<?xml version="1.0" encoding="UTF-8" standalone="no"?>
<svg xmlns:xlink="http://www.w3.org/1999/xlink" height="30.3px" width="8.25px" xmlns="http://www.w3.org/2000/svg">
  <g transform="matrix(1.0, 0.0, 0.0, 1.0, 4.85, 7.0)">
    <path d="M3.0 -4.65 L3.4 -5.25 Q1.8 5.45 1.0 9.05 L0.15 11.5 Q-0.6 12.9 -1.65 13.35 -2.05 13.45 -2.45 13.55 -2.9 13.5 -3.25 13.15 -3.8 12.65 -4.1 11.4 -4.3 10.5 -4.5 9.6 -4.65 8.45 -4.75 7.3 L-4.65 5.5 -4.55 4.9 -3.9 1.3 -2.1 -7.0 Q-0.7 -3.85 0.85 -3.65 L2.65 -4.15 3.0 -4.65" fill="#ffffff" fill-opacity="0.69803923" fill-rule="evenodd" stroke="none">
      <animate attributeName="fill" dur="2s" repeatCount="indefinite" values="#ffffff;#ffffff"/>
      <animate attributeName="fill-opacity" dur="2s" repeatCount="indefinite" values="0.69803923;0.69803923"/>
      <animate attributeName="d" dur="2s" repeatCount="indefinite" values="M3.0 -4.65 L3.4 -5.25 Q1.8 5.45 1.0 9.05 L0.15 11.5 Q-0.6 12.9 -1.65 13.35 -2.05 13.45 -2.45 13.55 -2.9 13.5 -3.25 13.15 -3.8 12.65 -4.1 11.4 -4.3 10.5 -4.5 9.6 -4.65 8.45 -4.75 7.3 L-4.65 5.5 -4.55 4.9 -3.9 1.3 -2.1 -7.0 Q-0.7 -3.85 0.85 -3.65 L2.65 -4.15 3.0 -4.65;M3.4 -5.25 L3.2 -3.95 Q0.95 8.85 0.55 15.25 L0.5 19.1 Q0.65 21.9 -0.05 22.85 -0.35 23.3 -0.85 23.3 -1.45 23.35 -2.35 22.8 -3.9 21.8 -4.5 20.75 -5.15 19.6 -4.65 18.3 -4.15 17.0 -4.1 15.0 L-4.15 12.1 -4.25 10.95 -4.65 5.5 -2.1 -7.0 Q-0.05 -5.05 1.3 -4.65 L3.05 -4.65 3.4 -5.25"/>
    </path>
    <path d="M3.0 -4.65 L2.65 -4.15 0.85 -3.65 Q-0.7 -3.85 -2.1 -7.0 L-3.9 1.3 -4.55 4.9 -4.65 5.5 -4.75 7.3 Q-4.65 8.45 -4.5 9.6 -4.3 10.5 -4.1 11.4 -3.8 12.65 -3.25 13.15 -2.9 13.5 -2.45 13.55 -2.05 13.45 -1.65 13.35 -0.6 12.9 0.15 11.5 L1.0 9.05 Q1.8 5.45 3.4 -5.25 L3.0 -4.65" fill="none" stroke="#000000" stroke-linecap="round" stroke-linejoin="round" stroke-opacity="0.0" stroke-width="1.0">
      <animate attributeName="stroke" dur="2s" repeatCount="indefinite" values="#000000;#000001"/>
      <animate attributeName="stroke-width" dur="2s" repeatCount="indefinite" values="0.0;0.0"/>
      <animate attributeName="fill-opacity" dur="2s" repeatCount="indefinite" values="0.0;0.0"/>
      <animate attributeName="d" dur="2s" repeatCount="indefinite" values="M3.0 -4.65 L2.65 -4.15 0.85 -3.65 Q-0.7 -3.85 -2.1 -7.0 L-3.9 1.3 -4.55 4.9 -4.65 5.5 -4.75 7.3 Q-4.65 8.45 -4.5 9.6 -4.3 10.5 -4.1 11.4 -3.8 12.65 -3.25 13.15 -2.9 13.5 -2.45 13.55 -2.05 13.45 -1.65 13.35 -0.6 12.9 0.15 11.5 L1.0 9.05 Q1.8 5.45 3.4 -5.25 L3.0 -4.65;M3.4 -5.25 L3.05 -4.65 1.3 -4.65 Q-0.05 -5.05 -2.1 -7.0 L-4.65 5.5 -4.25 10.95 -4.15 12.1 -4.1 15.0 Q-4.15 17.0 -4.65 18.3 -5.15 19.6 -4.5 20.75 -3.9 21.8 -2.35 22.8 -1.45 23.35 -0.85 23.3 -0.35 23.3 -0.05 22.85 0.65 21.9 0.5 19.1 L0.55 15.25 Q0.95 8.85 3.2 -3.95 L3.4 -5.25"/>
    </path>
  </g>
</svg>
