<?xml version="1.0" encoding="UTF-8" standalone="no"?>
<svg xmlns:xlink="http://www.w3.org/1999/xlink" height="39.6px" width="8.5px" xmlns="http://www.w3.org/2000/svg">
  <g transform="matrix(1.0, 0.0, 0.0, 1.0, 4.85, 7.0)">
    <path d="M-4.65 5.5 L-4.25 10.95 Q-3.75 15.8 -4.65 18.3 -5.6 20.75 -2.35 22.8 0.85 24.8 0.5 19.1 0.1 13.35 3.4 -5.25 3.05 -4.7 1.3 -4.65 -0.05 -5.05 -2.1 -7.0 L-4.65 5.5" fill="#ffffff" fill-opacity="0.69803923" fill-rule="evenodd" stroke="none">
      <animate attributeName="fill" dur="2s" repeatCount="indefinite" values="#ffffff;#ffffff"/>
      <animate attributeName="fill-opacity" dur="2s" repeatCount="indefinite" values="0.69803923;0.69803923"/>
      <animate attributeName="d" dur="2s" repeatCount="indefinite" values="M-4.65 5.5 L-4.25 10.95 Q-3.75 15.8 -4.65 18.3 -5.6 20.75 -2.35 22.8 0.85 24.8 0.5 19.1 0.1 13.35 3.4 -5.25 3.05 -4.7 1.3 -4.65 -0.05 -5.05 -2.1 -7.0 L-4.65 5.5;M-4.65 5.5 L-4.25 11.0 Q-3.75 15.9 -4.3 24.15 -4.9 32.4 -1.6 32.6 1.7 32.8 0.2 23.55 -1.35 14.3 3.65 -1.9 2.85 -2.6 -0.8 -3.7 -1.9 -3.65 -3.0 -3.65 L-4.65 5.5"/>
    </path>
    <path d="M-4.65 5.5 L-2.1 -7.0 Q-0.05 -5.05 1.3 -4.65 3.05 -4.7 3.4 -5.25 0.1 13.35 0.5 19.1 0.85 24.8 -2.35 22.8 -5.6 20.75 -4.65 18.3 -3.75 15.8 -4.25 10.95 L-4.65 5.5" fill="none" stroke="#000000" stroke-linecap="round" stroke-linejoin="round" stroke-opacity="0.0" stroke-width="1.0">
      <animate attributeName="stroke" dur="2s" repeatCount="indefinite" values="#000000;#000001"/>
      <animate attributeName="stroke-width" dur="2s" repeatCount="indefinite" values="0.0;0.0"/>
      <animate attributeName="fill-opacity" dur="2s" repeatCount="indefinite" values="0.0;0.0"/>
      <animate attributeName="d" dur="2s" repeatCount="indefinite" values="M-4.65 5.5 L-2.1 -7.0 Q-0.05 -5.05 1.3 -4.65 3.05 -4.7 3.4 -5.25 0.1 13.35 0.5 19.1 0.85 24.8 -2.35 22.8 -5.6 20.75 -4.65 18.3 -3.75 15.8 -4.25 10.95 L-4.65 5.5;M-4.65 5.5 L-3.0 -3.65 Q-1.9 -3.65 -0.8 -3.7 2.85 -2.6 3.65 -1.9 -1.35 14.3 0.2 23.55 1.7 32.8 -1.6 32.6 -4.9 32.4 -4.3 24.15 -3.75 15.9 -4.25 11.0 L-4.65 5.5"/>
    </path>
  </g>
</svg>
