<?xml version="1.0" encoding="UTF-8" standalone="no"?>
<svg xmlns:xlink="http://www.w3.org/1999/xlink" height="43.7px" width="8.45px" xmlns="http://www.w3.org/2000/svg">
  <g transform="matrix(1.0, 0.0, 0.0, 1.0, 4.8, 3.65)">
    <path d="M-4.65 5.5 Q-4.45 8.25 -4.25 11.0 -3.75 15.9 -4.3 24.15 -4.9 32.4 -1.6 32.6 1.7 32.8 0.2 23.55 -1.35 14.3 3.65 -1.9 2.85 -2.6 2.05 -3.3 L-3.0 -3.65 Q-3.85 0.95 -4.65 5.5" fill="#ffffff" fill-opacity="0.69803923" fill-rule="evenodd" stroke="none">
      <animate attributeName="fill" dur="2s" repeatCount="indefinite" values="#ffffff;#ffffff"/>
      <animate attributeName="fill-opacity" dur="2s" repeatCount="indefinite" values="0.69803923;0.69803923"/>
      <animate attributeName="d" dur="2s" repeatCount="indefinite" values="M-4.65 5.5 Q-4.45 8.25 -4.25 11.0 -3.75 15.9 -4.3 24.15 -4.9 32.4 -1.6 32.6 1.7 32.8 0.2 23.55 -1.35 14.3 3.65 -1.9 2.85 -2.6 2.05 -3.3 L-3.0 -3.65 Q-3.85 0.95 -4.65 5.5;M-4.75 5.15 Q-4.9 8.85 -4.3 13.8 -3.75 18.7 -4.1 29.1 -4.5 39.5 -1.2 40.05 2.1 40.55 0.15 29.75 -1.8 18.95 2.05 2.85 3.1 1.3 2.05 -0.6 L-3.0 -0.85 Q-4.65 1.4 -4.75 5.15"/>
    </path>
    <path d="M-4.65 5.5 Q-3.85 0.95 -3.0 -3.65 L2.05 -3.3 Q2.85 -2.6 3.65 -1.9 -1.35 14.3 0.2 23.55 1.7 32.8 -1.6 32.6 -4.9 32.4 -4.3 24.15 -3.75 15.9 -4.25 11.0 -4.45 8.25 -4.65 5.5" fill="none" stroke="#000000" stroke-linecap="round" stroke-linejoin="round" stroke-opacity="0.0" stroke-width="1.0">
      <animate attributeName="stroke" dur="2s" repeatCount="indefinite" values="#000000;#000001"/>
      <animate attributeName="stroke-width" dur="2s" repeatCount="indefinite" values="0.0;0.0"/>
      <animate attributeName="fill-opacity" dur="2s" repeatCount="indefinite" values="0.0;0.0"/>
      <animate attributeName="d" dur="2s" repeatCount="indefinite" values="M-4.65 5.5 Q-3.85 0.95 -3.0 -3.65 L2.05 -3.3 Q2.85 -2.6 3.65 -1.9 -1.35 14.3 0.2 23.55 1.7 32.8 -1.6 32.6 -4.9 32.4 -4.3 24.15 -3.75 15.9 -4.25 11.0 -4.45 8.25 -4.65 5.5;M-4.75 5.15 Q-4.65 1.4 -3.0 -0.85 L2.05 -0.6 Q3.1 1.3 2.05 2.85 -1.8 18.95 0.15 29.75 2.1 40.55 -1.2 40.05 -4.5 39.5 -4.1 29.1 -3.75 18.7 -4.3 13.8 -4.9 8.85 -4.75 5.15"/>
    </path>
  </g>
</svg>
