<?xml version="1.0" encoding="UTF-8" standalone="no"?>
<svg xmlns:xlink="http://www.w3.org/1999/xlink" height="43.2px" width="7.85px" xmlns="http://www.w3.org/2000/svg">
  <g transform="matrix(1.0, 0.0, 0.0, 1.0, 5.3, 0.95)">
    <path d="M-1.2 40.05 L-2.05 39.65 Q-4.35 38.05 -4.1 29.7 L-4.1 29.1 Q-3.8 20.8 -4.1 16.0 L-4.3 13.8 Q-4.5 11.9 -4.65 10.0 -4.7 7.55 -4.75 5.15 -4.65 1.45 -3.0 -0.85 L-0.8 -0.9 -0.65 -0.9 -0.2 -0.8 1.65 -0.6 2.55 0.95 Q2.65 1.95 1.95 3.15 -1.7 18.65 0.15 29.75 2.1 40.55 -1.2 40.05" fill="#ffffff" fill-opacity="0.69803923" fill-rule="evenodd" stroke="none">
      <animate attributeName="fill" dur="2s" repeatCount="indefinite" values="#ffffff;#ffffff"/>
      <animate attributeName="fill-opacity" dur="2s" repeatCount="indefinite" values="0.69803923;0.69803923"/>
      <animate attributeName="d" dur="2s" repeatCount="indefinite" values="M-1.2 40.05 L-2.05 39.65 Q-4.35 38.05 -4.1 29.7 L-4.1 29.1 Q-3.8 20.8 -4.1 16.0 L-4.3 13.8 Q-4.5 11.9 -4.65 10.0 -4.7 7.55 -4.75 5.15 -4.65 1.45 -3.0 -0.85 L-0.8 -0.9 -0.65 -0.9 -0.2 -0.8 1.65 -0.6 2.55 0.95 Q2.65 1.95 1.95 3.15 -1.7 18.65 0.15 29.75 2.1 40.55 -1.2 40.05;M-0.55 42.25 L-1.3 42.2 Q-7.2 41.25 -4.45 34.0 L-4.25 33.4 Q-1.75 26.5 -2.6 20.7 L-2.9 18.65 Q-3.55 14.7 -3.85 14.85 -4.1 15.0 -3.9 10.75 -3.6 7.7 -3.3 4.7 L-1.3 5.1 -1.1 5.2 -0.5 5.3 1.5 5.3 1.95 3.3 Q1.7 4.4 1.5 5.45 -1.75 21.85 1.5 32.7 4.2 42.45 -0.55 42.25"/>
    </path>
    <path d="M-1.2 40.05 Q2.1 40.55 0.15 29.75 -1.7 18.65 1.95 3.15 2.65 1.95 2.55 0.95 L1.65 -0.6 -0.2 -0.8 -0.65 -0.9 -0.8 -0.9 -3.0 -0.85 Q-4.65 1.45 -4.75 5.15 -4.7 7.55 -4.65 10.0 -4.5 11.9 -4.3 13.8 L-4.1 16.0 Q-3.8 20.8 -4.1 29.1 L-4.1 29.7 Q-4.35 38.05 -2.05 39.65 L-1.2 40.05" fill="none" stroke="#000000" stroke-linecap="round" stroke-linejoin="round" stroke-opacity="0.0" stroke-width="1.0">
      <animate attributeName="stroke" dur="2s" repeatCount="indefinite" values="#000000;#000001"/>
      <animate attributeName="stroke-width" dur="2s" repeatCount="indefinite" values="0.0;0.0"/>
      <animate attributeName="fill-opacity" dur="2s" repeatCount="indefinite" values="0.0;0.0"/>
      <animate attributeName="d" dur="2s" repeatCount="indefinite" values="M-1.2 40.05 Q2.1 40.55 0.15 29.75 -1.7 18.65 1.95 3.15 2.65 1.95 2.55 0.95 L1.65 -0.6 -0.2 -0.8 -0.65 -0.9 -0.8 -0.9 -3.0 -0.85 Q-4.65 1.45 -4.75 5.15 -4.7 7.55 -4.65 10.0 -4.5 11.9 -4.3 13.8 L-4.1 16.0 Q-3.8 20.8 -4.1 29.1 L-4.1 29.7 Q-4.35 38.05 -2.05 39.65 L-1.2 40.05;M-0.55 42.25 Q4.2 42.45 1.5 32.7 -1.75 21.85 1.5 5.45 1.7 4.4 1.95 3.3 L1.5 5.3 -0.5 5.3 -1.1 5.2 -1.3 5.1 -3.3 4.7 Q-3.6 7.7 -3.9 10.75 -4.1 15.0 -3.85 14.85 -3.55 14.7 -2.9 18.65 L-2.6 20.7 Q-1.75 26.5 -4.25 33.4 L-4.45 34.0 Q-7.2 41.25 -1.3 42.2 L-0.55 42.25"/>
    </path>
  </g>
</svg>
