<?xml version="1.0" encoding="UTF-8" standalone="no"?>
<svg xmlns:xlink="http://www.w3.org/1999/xlink" height="38.95px" width="8.4px" xmlns="http://www.w3.org/2000/svg">
  <g transform="matrix(1.0, 0.0, 0.0, 1.0, 5.85, -3.3)">
    <path d="M-4.45 34.0 Q-7.2 41.25 -1.3 42.2 L-0.75 42.25 Q4.4 42.6 1.3 32.1 L1.2 31.6 Q-0.95 24.1 0.3 13.35 0.7 9.7 1.5 5.65 L1.5 5.45 1.55 5.3 1.95 3.3 1.95 3.4 Q1.6 4.35 1.3 5.3 0.1 5.25 -1.1 5.2 L-2.25 4.9 -3.6 4.7 Q-4.2 15.05 -3.85 14.85 -3.55 14.7 -2.8 19.3 L-2.4 23.6 Q-2.35 28.45 -4.45 34.0" fill="#ffffff" fill-opacity="0.69803923" fill-rule="evenodd" stroke="none">
      <animate attributeName="fill" dur="2s" repeatCount="indefinite" values="#ffffff;#ffffff"/>
      <animate attributeName="fill-opacity" dur="2s" repeatCount="indefinite" values="0.69803923;0.69803923"/>
      <animate attributeName="d" dur="2s" repeatCount="indefinite" values="M-4.45 34.0 Q-7.2 41.25 -1.3 42.2 L-0.75 42.25 Q4.4 42.6 1.3 32.1 L1.2 31.6 Q-0.95 24.1 0.3 13.35 0.7 9.7 1.5 5.65 L1.5 5.45 1.55 5.3 1.95 3.3 1.95 3.4 Q1.6 4.35 1.3 5.3 0.1 5.25 -1.1 5.2 L-2.25 4.9 -3.6 4.7 Q-4.2 15.05 -3.85 14.85 -3.55 14.7 -2.8 19.3 L-2.4 23.6 Q-2.35 28.45 -4.45 34.0;M-4.8 34.65 Q-7.8 39.45 -2.1 40.6 L-1.7 40.7 Q4.2 41.75 1.95 33.8 L1.75 33.1 Q-0.95 24.45 -0.1 18.4 0.75 12.35 0.55 11.6 L0.55 11.6 0.45 11.4 0.1 9.9 0.1 9.8 Q-0.9 8.7 -1.45 9.6 -1.85 10.3 -3.1 10.1 L-4.2 9.8 -4.1 11.15 Q-3.8 15.1 -3.55 19.0 -3.4 21.15 -3.25 23.25 L-2.5 26.8 Q-1.75 29.7 -4.8 34.65"/>
    </path>
    <path d="M-4.45 34.0 Q-2.35 28.45 -2.4 23.6 L-2.8 19.3 Q-3.55 14.7 -3.85 14.85 -4.2 15.05 -3.6 4.7 L-2.25 4.9 -1.1 5.2 Q0.1 5.25 1.3 5.3 1.6 4.35 1.95 3.4 L1.95 3.3 1.55 5.3 1.5 5.45 1.5 5.65 Q0.7 9.7 0.3 13.35 -0.95 24.1 1.2 31.6 L1.3 32.1 Q4.4 42.6 -0.75 42.25 L-1.3 42.2 Q-7.2 41.25 -4.45 34.0" fill="none" stroke="#000000" stroke-linecap="round" stroke-linejoin="round" stroke-opacity="0.0" stroke-width="1.0">
      <animate attributeName="stroke" dur="2s" repeatCount="indefinite" values="#000000;#000001"/>
      <animate attributeName="stroke-width" dur="2s" repeatCount="indefinite" values="0.0;0.0"/>
      <animate attributeName="fill-opacity" dur="2s" repeatCount="indefinite" values="0.0;0.0"/>
      <animate attributeName="d" dur="2s" repeatCount="indefinite" values="M-4.45 34.0 Q-2.35 28.45 -2.4 23.6 L-2.8 19.3 Q-3.55 14.7 -3.85 14.85 -4.2 15.05 -3.6 4.7 L-2.25 4.9 -1.1 5.2 Q0.1 5.25 1.3 5.3 1.6 4.35 1.95 3.4 L1.95 3.3 1.55 5.3 1.5 5.45 1.5 5.65 Q0.7 9.7 0.3 13.35 -0.95 24.1 1.2 31.6 L1.3 32.1 Q4.4 42.6 -0.75 42.25 L-1.3 42.2 Q-7.2 41.25 -4.45 34.0;M-4.8 34.65 Q-1.75 29.7 -2.5 26.8 L-3.25 23.25 Q-3.4 21.15 -3.55 19.0 -3.8 15.1 -4.1 11.15 L-4.2 9.8 -3.1 10.1 Q-1.85 10.3 -1.45 9.6 -0.9 8.7 0.1 9.8 L0.1 9.9 0.45 11.4 0.55 11.6 0.55 11.6 Q0.75 12.35 -0.1 18.4 -0.95 24.45 1.75 33.1 L1.95 33.8 Q4.2 41.75 -1.7 40.7 L-2.1 40.6 Q-7.8 39.45 -4.8 34.65"/>
    </path>
  </g>
</svg>
