<?xml version="1.0" encoding="UTF-8" standalone="no"?>
<svg xmlns:xlink="http://www.w3.org/1999/xlink" height="31.6px" width="10.85px" xmlns="http://www.w3.org/2000/svg">
  <g transform="matrix(1.0, 0.0, 0.0, 1.0, 5.85, -9.2)">
    <path d="M-4.8 34.65 Q-7.9 39.6 -1.7 40.7 4.45 41.8 1.75 33.1 -0.95 24.45 -0.1 18.4 0.75 12.35 0.55 11.6 0.3 10.7 0.1 9.8 -0.95 8.65 -4.2 9.8 -3.7 16.55 -3.25 23.25 -2.85 25.05 -2.5 26.8 -1.75 29.7 -4.8 34.65" fill="#ffffff" fill-opacity="0.69803923" fill-rule="evenodd" stroke="none">
      <animate attributeName="fill" dur="2s" repeatCount="indefinite" values="#ffffff;#ffffff"/>
      <animate attributeName="fill-opacity" dur="2s" repeatCount="indefinite" values="0.69803923;0.69803923"/>
      <animate attributeName="d" dur="2s" repeatCount="indefinite" values="M-4.8 34.65 Q-7.9 39.6 -1.7 40.7 4.45 41.8 1.75 33.1 -0.95 24.45 -0.1 18.4 0.75 12.35 0.55 11.6 0.3 10.7 0.1 9.8 -0.95 8.65 -4.2 9.8 -3.7 16.55 -3.25 23.25 -2.85 25.05 -2.5 26.8 -1.75 29.7 -4.8 34.65;M-4.75 34.55 Q-7.8 38.75 -0.05 39.6 7.7 40.4 3.55 35.95 -0.6 31.5 -0.45 22.55 -0.3 13.6 0.0 12.25 0.25 10.85 0.1 9.8 -0.95 8.65 -4.2 9.8 -1.5 25.05 -2.2 27.9 -2.95 30.7 -2.35 30.5 -1.7 30.3 -4.75 34.55"/>
    </path>
    <path d="M-4.8 34.65 Q-1.75 29.7 -2.5 26.8 -2.85 25.05 -3.25 23.25 -3.7 16.55 -4.2 9.8 -0.95 8.65 0.1 9.8 0.3 10.7 0.55 11.6 0.75 12.35 -0.1 18.4 -0.95 24.45 1.75 33.1 4.45 41.8 -1.7 40.7 -7.9 39.6 -4.8 34.65" fill="none" stroke="#000000" stroke-linecap="round" stroke-linejoin="round" stroke-opacity="0.0" stroke-width="1.0">
      <animate attributeName="stroke" dur="2s" repeatCount="indefinite" values="#000000;#000001"/>
      <animate attributeName="stroke-width" dur="2s" repeatCount="indefinite" values="0.0;0.0"/>
      <animate attributeName="fill-opacity" dur="2s" repeatCount="indefinite" values="0.0;0.0"/>
      <animate attributeName="d" dur="2s" repeatCount="indefinite" values="M-4.8 34.65 Q-1.75 29.7 -2.5 26.8 -2.85 25.05 -3.25 23.25 -3.7 16.55 -4.2 9.8 -0.95 8.65 0.1 9.8 0.3 10.7 0.55 11.6 0.75 12.35 -0.1 18.4 -0.95 24.45 1.75 33.1 4.45 41.8 -1.7 40.7 -7.9 39.6 -4.8 34.65;M-4.75 34.55 Q-1.7 30.3 -2.35 30.5 -2.95 30.7 -2.2 27.9 -1.5 25.05 -4.2 9.8 -0.95 8.65 0.1 9.8 0.25 10.85 0.0 12.25 -0.3 13.6 -0.45 22.55 -0.6 31.5 3.55 35.95 7.7 40.4 -0.05 39.6 -7.8 38.75 -4.75 34.55"/>
    </path>
  </g>
</svg>
