<?xml version="1.0" encoding="UTF-8" standalone="no"?>
<svg xmlns:xlink="http://www.w3.org/1999/xlink" height="30.45px" width="12.85px" xmlns="http://www.w3.org/2000/svg">
  <g transform="matrix(1.0, 0.0, 0.0, 1.0, 7.55, -9.2)">
    <path d="M-6.8 36.6 Q-8.95 38.55 -0.7 39.45 7.45 40.4 2.45 36.8 -2.6 33.2 -1.7 22.5 -0.8 11.75 -0.25 11.3 0.25 10.85 0.1 9.8 -0.95 8.65 -4.2 9.8 -1.9 24.35 -3.05 29.55 -4.25 34.75 -4.45 34.7 -5.65 35.65 -6.8 36.6" fill="#ffffff" fill-opacity="0.69803923" fill-rule="evenodd" stroke="none">
      <animate attributeName="fill" dur="2s" repeatCount="indefinite" values="#ffffff;#ffffff"/>
      <animate attributeName="fill-opacity" dur="2s" repeatCount="indefinite" values="0.69803923;0.0"/>
      <animate attributeName="d" dur="2s" repeatCount="indefinite" values="M-6.8 36.6 Q-8.95 38.55 -0.7 39.45 7.45 40.4 2.45 36.8 -2.6 33.2 -1.7 22.5 -0.8 11.75 -0.25 11.3 0.25 10.85 0.1 9.8 -0.95 8.65 -4.2 9.8 -1.9 24.35 -3.05 29.55 -4.25 34.75 -4.45 34.7 -5.65 35.65 -6.8 36.6;M-7.05 35.6 Q-9.45 36.6 -0.5 38.3 8.4 40.0 3.6 38.8 -1.25 37.55 -1.7 25.9 -2.2 14.25 -2.5 13.9 -2.85 13.55 0.1 9.8 -0.95 8.65 -4.2 9.8 -1.75 25.6 -3.0 30.3 -4.25 34.95 -4.45 34.8 -4.65 34.65 -7.05 35.6"/>
    </path>
    <path d="M-6.8 36.6 Q-5.65 35.65 -4.45 34.7 -4.25 34.75 -3.05 29.55 -1.9 24.35 -4.2 9.8 -0.95 8.65 0.1 9.8 0.25 10.85 -0.25 11.3 -0.8 11.75 -1.7 22.5 -2.6 33.2 2.45 36.8 7.45 40.4 -0.7 39.45 -8.95 38.55 -6.8 36.6" fill="none" stroke="#000000" stroke-linecap="round" stroke-linejoin="round" stroke-opacity="0.0" stroke-width="1.0">
      <animate attributeName="stroke" dur="2s" repeatCount="indefinite" values="#000000;#000001"/>
      <animate attributeName="stroke-width" dur="2s" repeatCount="indefinite" values="0.0;0.0"/>
      <animate attributeName="fill-opacity" dur="2s" repeatCount="indefinite" values="0.0;0.0"/>
      <animate attributeName="d" dur="2s" repeatCount="indefinite" values="M-6.8 36.6 Q-5.65 35.65 -4.45 34.7 -4.25 34.75 -3.05 29.55 -1.9 24.35 -4.2 9.8 -0.95 8.65 0.1 9.8 0.25 10.85 -0.25 11.3 -0.8 11.75 -1.7 22.5 -2.6 33.2 2.45 36.8 7.45 40.4 -0.7 39.45 -8.95 38.55 -6.8 36.6;M-7.05 35.6 Q-4.65 34.65 -4.45 34.8 -4.25 34.95 -3.0 30.3 -1.75 25.6 -4.2 9.8 -0.95 8.65 0.1 9.8 -2.85 13.55 -2.5 13.9 -2.2 14.25 -1.7 25.9 -1.25 37.55 3.6 38.8 8.4 40.0 -0.5 38.3 -9.45 36.6 -7.05 35.6"/>
    </path>
  </g>
</svg>
