<?xml version="1.0" encoding="UTF-8" standalone="no"?>
<svg xmlns:xlink="http://www.w3.org/1999/xlink" height="11.25px" width="6.3px" xmlns="http://www.w3.org/2000/svg">
  <g transform="matrix(1.0, 0.0, 0.0, 1.0, 4.05, -0.75)">
    <path d="M-0.3 6.15 L-2.3 6.3 -2.3 6.3 Q-2.3 6.3 -2.3 6.3 -2.3 6.3 -2.3 6.3 L-2.4 6.3 Q-2.55 7.15 -2.1 7.55 L-1.65 7.85 -1.45 7.9 Q-1.25 7.95 -1.05 7.95 L-0.75 7.95 -0.1 7.85 0.1 7.65 0.25 7.1 -0.05 6.35 -0.3 6.15" fill="#ffffff" fill-opacity="0.69803923" fill-rule="evenodd" stroke="none">
      <animate attributeName="fill" dur="2s" repeatCount="indefinite" values="#ffffff;#ffffff"/>
      <animate attributeName="fill-opacity" dur="2s" repeatCount="indefinite" values="0.69803923;0.69803923"/>
      <animate attributeName="d" dur="2s" repeatCount="indefinite" values="M-0.3 6.15 L-2.3 6.3 -2.3 6.3 Q-2.3 6.3 -2.3 6.3 -2.3 6.3 -2.3 6.3 L-2.4 6.3 Q-2.55 7.15 -2.1 7.55 L-1.65 7.85 -1.45 7.9 Q-1.25 7.95 -1.05 7.95 L-0.75 7.95 -0.1 7.85 0.1 7.65 0.25 7.1 -0.05 6.35 -0.3 6.15;M2.25 0.75 L2.25 0.75 1.75 2.0 Q-0.2 5.5 -1.1 5.5 -1.9 5.5 -2.15 4.9 L-3.55 2.15 Q-3.8 5.75 -4.05 9.3 L-3.55 10.9 -3.15 11.4 Q-2.65 12.0 -2.05 12.0 L-1.2 11.75 -0.25 10.65 0.4 9.3 1.15 6.75 1.95 2.65 2.25 0.75"/>
    </path>
    <path d="M-0.3 6.15 L-0.05 6.35 0.25 7.1 0.1 7.65 -0.1 7.85 -0.75 7.95 -1.05 7.95 Q-1.25 7.95 -1.45 7.9 L-1.65 7.85 -2.1 7.55 Q-2.55 7.15 -2.4 6.3 L-2.3 6.3 Q-2.3 6.3 -2.3 6.3 -2.3 6.3 -2.3 6.3 L-2.3 6.3 -0.3 6.15" fill="none" stroke="#000000" stroke-linecap="round" stroke-linejoin="round" stroke-opacity="0.0" stroke-width="1.0">
      <animate attributeName="stroke" dur="2s" repeatCount="indefinite" values="#000000;#000001"/>
      <animate attributeName="stroke-width" dur="2s" repeatCount="indefinite" values="0.0;0.0"/>
      <animate attributeName="fill-opacity" dur="2s" repeatCount="indefinite" values="0.0;0.0"/>
      <animate attributeName="d" dur="2s" repeatCount="indefinite" values="M-0.3 6.15 L-0.05 6.35 0.25 7.1 0.1 7.65 -0.1 7.85 -0.75 7.95 -1.05 7.95 Q-1.25 7.95 -1.45 7.9 L-1.65 7.85 -2.1 7.55 Q-2.55 7.15 -2.4 6.3 L-2.3 6.3 Q-2.3 6.3 -2.3 6.3 -2.3 6.3 -2.3 6.3 L-2.3 6.3 -0.3 6.15;M2.25 0.75 L1.95 2.65 1.15 6.75 0.4 9.3 -0.25 10.65 -1.2 11.75 -2.05 12.0 Q-2.65 12.0 -3.15 11.4 L-3.55 10.9 -4.05 9.3 Q-3.8 5.75 -3.55 2.15 L-2.15 4.9 Q-1.9 5.5 -1.1 5.5 -0.2 5.5 1.75 2.0 L2.25 0.75 2.25 0.75"/>
    </path>
  </g>
</svg>
