<?xml version="1.0" encoding="UTF-8" standalone="no"?>
<svg xmlns:xlink="http://www.w3.org/1999/xlink" height="16.2px" width="8.25px" xmlns="http://www.w3.org/2000/svg">
  <g transform="matrix(1.0, 0.0, 0.0, 1.0, 5.0, -0.75)">
    <path d="M-4.05 9.3 L-4.05 9.3 -3.55 10.9 -3.15 11.4 Q-2.65 12.0 -2.05 12.0 -1.55 11.8 -1.05 11.65 -0.15 10.95 0.55 8.9 L1.15 6.75 1.95 2.75 2.25 0.75 Q2.0 1.4 1.75 2.0 1.4 2.6 1.05 3.2 L0.4 4.15 Q-0.55 5.5 -1.3 5.5 -1.95 5.45 -2.15 4.9 -2.85 3.5 -3.55 2.15 -3.8 5.75 -4.05 9.3" fill="#ffffff" fill-opacity="0.69803923" fill-rule="evenodd" stroke="none">
      <animate attributeName="fill" dur="2s" repeatCount="indefinite" values="#ffffff;#ffffff"/>
      <animate attributeName="fill-opacity" dur="2s" repeatCount="indefinite" values="0.69803923;0.69803923"/>
      <animate attributeName="d" dur="2s" repeatCount="indefinite" values="M-4.05 9.3 L-4.05 9.3 -3.55 10.9 -3.15 11.4 Q-2.65 12.0 -2.05 12.0 -1.55 11.8 -1.05 11.65 -0.15 10.95 0.55 8.9 L1.15 6.75 1.95 2.75 2.25 0.75 Q2.0 1.4 1.75 2.0 1.4 2.6 1.05 3.2 L0.4 4.15 Q-0.55 5.5 -1.3 5.5 -1.95 5.45 -2.15 4.9 -2.85 3.5 -3.55 2.15 -3.8 5.75 -4.05 9.3;M-4.05 11.8 L-4.15 12.2 -4.8 14.3 -4.95 15.05 Q-5.1 16.15 -4.85 16.6 -4.6 17.15 -3.75 16.8 -1.45 15.8 -0.7 13.9 L0.3 11.3 2.2 6.45 3.05 3.95 Q3.35 2.8 3.25 2.15 3.1 1.1 2.05 1.25 L1.3 2.55 Q0.15 4.6 -0.8 4.65 -1.25 4.25 -1.65 3.9 -2.0 3.4 -3.75 2.7 -5.3 8.3 -4.05 11.8"/>
    </path>
    <path d="M-4.05 9.3 Q-3.8 5.75 -3.55 2.15 -2.85 3.5 -2.15 4.9 -1.95 5.45 -1.3 5.5 -0.55 5.5 0.4 4.15 L1.05 3.2 Q1.4 2.6 1.75 2.0 2.0 1.4 2.25 0.75 L1.95 2.75 1.15 6.75 0.55 8.9 Q-0.15 10.95 -1.05 11.65 -1.55 11.8 -2.05 12.0 -2.65 12.0 -3.15 11.4 L-3.55 10.9 -4.05 9.3 -4.05 9.3" fill="none" stroke="#000000" stroke-linecap="round" stroke-linejoin="round" stroke-opacity="0.0" stroke-width="1.0">
      <animate attributeName="stroke" dur="2s" repeatCount="indefinite" values="#000000;#000001"/>
      <animate attributeName="stroke-width" dur="2s" repeatCount="indefinite" values="0.0;0.0"/>
      <animate attributeName="fill-opacity" dur="2s" repeatCount="indefinite" values="0.0;0.0"/>
      <animate attributeName="d" dur="2s" repeatCount="indefinite" values="M-4.05 9.3 Q-3.8 5.75 -3.55 2.15 -2.85 3.5 -2.15 4.9 -1.95 5.45 -1.3 5.5 -0.55 5.5 0.4 4.15 L1.05 3.2 Q1.4 2.6 1.75 2.0 2.0 1.4 2.25 0.75 L1.95 2.75 1.15 6.75 0.55 8.9 Q-0.15 10.95 -1.05 11.65 -1.55 11.8 -2.05 12.0 -2.65 12.0 -3.15 11.4 L-3.55 10.9 -4.05 9.3 -4.05 9.3;M-4.05 11.8 Q-5.3 8.3 -3.75 2.7 -2.0 3.4 -1.65 3.9 -1.25 4.25 -0.8 4.65 0.15 4.6 1.3 2.55 L2.05 1.25 Q3.1 1.1 3.25 2.15 3.35 2.8 3.05 3.95 L2.2 6.45 0.3 11.3 -0.7 13.9 Q-1.45 15.8 -3.75 16.8 -4.6 17.15 -4.85 16.6 -5.1 16.15 -4.95 15.05 L-4.8 14.3 -4.15 12.2 -4.05 11.8"/>
    </path>
  </g>
</svg>
