<?xml version="1.0" encoding="UTF-8" standalone="no"?>
<svg xmlns:xlink="http://www.w3.org/1999/xlink" height="34.1px" width="9.05px" xmlns="http://www.w3.org/2000/svg">
  <g transform="matrix(1.0, 0.0, 0.0, 1.0, 6.65, -4.25)">
    <path d="M-3.05 5.3 Q-3.4 5.5 -3.7 5.7 L-4.6 6.85 -4.85 8.3 Q-4.8 9.85 -4.05 12.8 L-3.5 14.8 Q-4.35 17.95 -5.2 21.05 -6.3 25.5 -6.4 27.95 -6.5 30.45 -5.55 30.95 L-4.95 31.1 Q-4.2 30.9 -3.5 30.7 -1.65 29.55 -2.05 25.35 L-2.1 24.3 Q-2.35 18.9 0.25 10.95 L0.65 9.75 Q2.9 2.4 1.3 4.9 0.95 4.95 0.65 5.0 -1.05 5.1 -2.75 5.2 -2.9 5.25 -3.05 5.3" fill="#ffffff" fill-opacity="0.69803923" fill-rule="evenodd" stroke="none">
      <animate attributeName="fill" dur="2s" repeatCount="indefinite" values="#ffffff;#ffffff"/>
      <animate attributeName="fill-opacity" dur="2s" repeatCount="indefinite" values="0.69803923;0.69803923"/>
      <animate attributeName="d" dur="2s" repeatCount="indefinite" values="M-3.05 5.3 Q-3.4 5.5 -3.7 5.7 L-4.6 6.85 -4.85 8.3 Q-4.8 9.85 -4.05 12.8 L-3.5 14.8 Q-4.35 17.95 -5.2 21.05 -6.3 25.5 -6.4 27.95 -6.5 30.45 -5.55 30.95 L-4.95 31.1 Q-4.2 30.9 -3.5 30.7 -1.65 29.55 -2.05 25.35 L-2.1 24.3 Q-2.35 18.9 0.25 10.95 L0.65 9.75 Q2.9 2.4 1.3 4.9 0.95 4.95 0.65 5.0 -1.05 5.1 -2.75 5.2 -2.9 5.25 -3.05 5.3;M-4.35 6.15 Q-4.75 6.05 -4.75 6.85 L-4.55 8.6 -4.1 10.6 Q-3.5 12.95 -3.55 16.15 L-3.8 18.55 Q-4.15 21.3 -5.15 25.4 -6.65 31.5 -6.65 33.65 -6.65 35.8 -5.85 37.25 L-5.4 37.9 Q-4.75 38.55 -3.8 38.3 -2.65 37.95 -2.9 31.85 L-3.0 30.6 Q-3.4 23.75 -0.35 14.55 L0.1 13.25 Q2.7 5.95 2.35 5.45 2.25 5.25 1.7 6.0 0.05 6.9 -3.65 6.6 -4.1 6.2 -4.35 6.15"/>
    </path>
    <path d="M-3.05 5.3 Q-2.9 5.25 -2.75 5.2 -1.05 5.1 0.65 5.0 0.95 4.95 1.3 4.9 2.9 2.4 0.65 9.75 L0.25 10.95 Q-2.35 18.9 -2.1 24.3 L-2.05 25.35 Q-1.65 29.55 -3.5 30.7 -4.2 30.9 -4.95 31.1 L-5.55 30.95 Q-6.5 30.45 -6.4 27.95 -6.3 25.5 -5.2 21.05 -4.35 17.95 -3.5 14.8 L-4.05 12.8 Q-4.8 9.85 -4.85 8.3 L-4.6 6.85 -3.7 5.7 Q-3.4 5.5 -3.05 5.3" fill="none" stroke="#000000" stroke-linecap="round" stroke-linejoin="round" stroke-opacity="0.0" stroke-width="1.0">
      <animate attributeName="stroke" dur="2s" repeatCount="indefinite" values="#000000;#000001"/>
      <animate attributeName="stroke-width" dur="2s" repeatCount="indefinite" values="0.0;0.0"/>
      <animate attributeName="fill-opacity" dur="2s" repeatCount="indefinite" values="0.0;0.0"/>
      <animate attributeName="d" dur="2s" repeatCount="indefinite" values="M-3.05 5.3 Q-2.9 5.25 -2.75 5.2 -1.05 5.1 0.65 5.0 0.95 4.95 1.3 4.9 2.9 2.4 0.65 9.75 L0.25 10.95 Q-2.35 18.9 -2.1 24.3 L-2.05 25.35 Q-1.65 29.55 -3.5 30.7 -4.2 30.9 -4.95 31.1 L-5.55 30.95 Q-6.5 30.45 -6.4 27.95 -6.3 25.5 -5.2 21.05 -4.35 17.95 -3.5 14.8 L-4.05 12.8 Q-4.8 9.85 -4.85 8.3 L-4.6 6.85 -3.7 5.7 Q-3.4 5.5 -3.05 5.3;M-4.35 6.15 Q-4.1 6.2 -3.65 6.6 0.05 6.9 1.7 6.0 2.25 5.25 2.35 5.45 2.7 5.95 0.1 13.25 L-0.35 14.55 Q-3.4 23.75 -3.0 30.6 L-2.9 31.85 Q-2.65 37.95 -3.8 38.3 -4.75 38.55 -5.4 37.9 L-5.85 37.25 Q-6.65 35.8 -6.65 33.65 -6.65 31.5 -5.15 25.4 -4.15 21.3 -3.8 18.55 L-3.55 16.15 Q-3.5 12.95 -4.1 10.6 L-4.55 8.6 -4.75 6.85 Q-4.75 6.05 -4.35 6.15"/>
    </path>
  </g>
</svg>
