<?xml version="1.0" encoding="UTF-8" standalone="no"?>
<svg xmlns:xlink="http://www.w3.org/1999/xlink" height="33.3px" width="10.6px" xmlns="http://www.w3.org/2000/svg">
  <g transform="matrix(1.0, 0.0, 0.0, 1.0, 8.2, -5.4)">
    <path d="M-6.65 33.65 Q-6.65 35.8 -5.85 37.25 -5.1 38.65 -3.8 38.3 -2.55 37.9 -3.0 30.6 -3.45 23.25 0.1 13.25 3.65 3.25 1.7 6.0 -2.2 8.15 -4.75 6.85 -4.4 8.75 -4.1 10.6 -3.5 12.95 -3.55 16.15 -3.65 19.3 -5.15 25.4 -6.65 31.5 -6.65 33.65" fill="#ffffff" fill-opacity="0.69803923" fill-rule="evenodd" stroke="none">
      <animate attributeName="fill" dur="2s" repeatCount="indefinite" values="#ffffff;#ffffff"/>
      <animate attributeName="fill-opacity" dur="2s" repeatCount="indefinite" values="0.69803923;0.69803923"/>
      <animate attributeName="d" dur="2s" repeatCount="indefinite" values="M-6.65 33.65 Q-6.65 35.8 -5.85 37.25 -5.1 38.65 -3.8 38.3 -2.55 37.9 -3.0 30.6 -3.45 23.25 0.1 13.25 3.65 3.25 1.7 6.0 -2.2 8.15 -4.75 6.85 -4.4 8.75 -4.1 10.6 -3.5 12.95 -3.55 16.15 -3.65 19.3 -5.15 25.4 -6.65 31.5 -6.65 33.65;M-7.5 34.85 Q-8.95 36.9 -7.3 37.9 -5.7 38.85 -3.7 38.65 -1.7 38.4 -2.55 30.85 -3.45 23.25 -2.05 17.55 -0.7 11.85 -1.75 10.45 -2.8 9.0 -3.7 11.35 -3.95 11.6 -3.7 12.3 -3.5 12.95 -3.55 16.15 -3.65 19.3 -4.85 26.05 -6.1 32.75 -7.5 34.85"/>
    </path>
    <path d="M-6.65 33.65 Q-6.65 31.5 -5.15 25.4 -3.65 19.3 -3.55 16.15 -3.5 12.95 -4.1 10.6 -4.4 8.75 -4.75 6.85 -2.2 8.15 1.7 6.0 3.65 3.25 0.1 13.25 -3.45 23.25 -3.0 30.6 -2.55 37.9 -3.8 38.3 -5.1 38.65 -5.85 37.25 -6.65 35.8 -6.65 33.65" fill="none" stroke="#000000" stroke-linecap="round" stroke-linejoin="round" stroke-opacity="0.0" stroke-width="1.0">
      <animate attributeName="stroke" dur="2s" repeatCount="indefinite" values="#000000;#000001"/>
      <animate attributeName="stroke-width" dur="2s" repeatCount="indefinite" values="0.0;0.0"/>
      <animate attributeName="fill-opacity" dur="2s" repeatCount="indefinite" values="0.0;0.0"/>
      <animate attributeName="d" dur="2s" repeatCount="indefinite" values="M-6.65 33.65 Q-6.65 31.5 -5.15 25.4 -3.65 19.3 -3.55 16.15 -3.5 12.95 -4.1 10.6 -4.4 8.75 -4.75 6.85 -2.2 8.15 1.7 6.0 3.65 3.25 0.1 13.25 -3.45 23.25 -3.0 30.6 -2.55 37.9 -3.8 38.3 -5.1 38.65 -5.85 37.25 -6.65 35.8 -6.65 33.65;M-7.5 34.85 Q-6.1 32.75 -4.85 26.05 -3.65 19.3 -3.55 16.15 -3.5 12.95 -3.7 12.3 -3.95 11.6 -3.7 11.35 -2.8 9.0 -1.75 10.45 -0.7 11.85 -2.05 17.55 -3.45 23.25 -2.55 30.85 -1.7 38.4 -3.7 38.65 -5.7 38.85 -7.3 37.9 -8.95 36.9 -7.5 34.85"/>
    </path>
  </g>
</svg>
