<?xml version="1.0" encoding="UTF-8" standalone="no"?>
<svg xmlns:xlink="http://www.w3.org/1999/xlink" height="21.2px" width="6.65px" xmlns="http://www.w3.org/2000/svg">
  <g transform="matrix(1.0, 0.0, 0.0, 1.0, 6.5, -18.5)">
    <path d="M-6.05 37.3 Q-6.95 38.0 -5.95 38.55 -4.95 39.1 -1.7 39.5 1.5 39.9 -1.3 35.25 -4.1 30.55 -2.4 25.3 -0.7 20.05 -1.75 19.1 -2.8 18.05 -3.1 18.8 L-3.7 19.7 Q-3.95 19.9 -3.45 23.25 -3.4 25.7 -4.25 31.15 -5.15 36.55 -6.05 37.3" fill="#ffffff" fill-opacity="0.69803923" fill-rule="evenodd" stroke="none">
      <animate attributeName="fill" dur="2s" repeatCount="indefinite" values="#ffffff;#ffffff"/>
      <animate attributeName="fill-opacity" dur="2s" repeatCount="indefinite" values="0.69803923;0.0"/>
      <animate attributeName="d" dur="2s" repeatCount="indefinite" values="M-6.05 37.3 Q-6.95 38.0 -5.95 38.55 -4.95 39.1 -1.7 39.5 1.5 39.9 -1.3 35.25 -4.1 30.55 -2.4 25.3 -0.7 20.05 -1.75 19.1 -2.8 18.05 -3.1 18.8 L-3.7 19.7 Q-3.95 19.9 -3.45 23.25 -3.4 25.7 -4.25 31.15 -5.15 36.55 -6.05 37.3;M-6.05 37.3 Q-6.95 38.0 -5.95 38.55 -4.95 39.1 -1.65 39.6 1.6 40.05 -0.95 37.95 -3.55 35.85 -3.1 29.35 -2.7 22.8 -2.75 20.45 -2.8 18.05 -3.1 18.8 L-3.7 19.7 Q-3.95 19.9 -3.45 23.25 -3.4 25.7 -4.25 31.15 -5.15 36.55 -6.05 37.3"/>
    </path>
    <path d="M-6.05 37.3 Q-5.15 36.55 -4.25 31.15 -3.4 25.7 -3.45 23.25 -3.95 19.9 -3.7 19.7 L-3.1 18.8 Q-2.8 18.05 -1.75 19.1 -0.7 20.05 -2.4 25.3 -4.1 30.55 -1.3 35.25 1.5 39.9 -1.7 39.5 -4.95 39.1 -5.95 38.55 -6.95 38.0 -6.05 37.3" fill="none" stroke="#000000" stroke-linecap="round" stroke-linejoin="round" stroke-opacity="0.0" stroke-width="1.0">
      <animate attributeName="stroke" dur="2s" repeatCount="indefinite" values="#000000;#000001"/>
      <animate attributeName="stroke-width" dur="2s" repeatCount="indefinite" values="0.0;0.0"/>
      <animate attributeName="fill-opacity" dur="2s" repeatCount="indefinite" values="0.0;0.0"/>
      <animate attributeName="d" dur="2s" repeatCount="indefinite" values="M-6.05 37.3 Q-5.15 36.55 -4.25 31.15 -3.4 25.7 -3.45 23.25 -3.95 19.9 -3.7 19.7 L-3.1 18.8 Q-2.8 18.05 -1.75 19.1 -0.7 20.05 -2.4 25.3 -4.1 30.55 -1.3 35.25 1.5 39.9 -1.7 39.5 -4.95 39.1 -5.95 38.55 -6.95 38.0 -6.05 37.3;M-6.05 37.3 Q-5.15 36.55 -4.25 31.15 -3.4 25.7 -3.45 23.25 -3.95 19.9 -3.7 19.7 L-3.1 18.8 Q-2.8 18.05 -2.75 20.45 -2.7 22.8 -3.1 29.35 -3.55 35.85 -0.95 37.95 1.6 40.05 -1.65 39.6 -4.95 39.1 -5.95 38.55 -6.95 38.0 -6.05 37.3"/>
    </path>
  </g>
</svg>
