<?xml version="1.0" encoding="UTF-8" standalone="no"?>
<svg xmlns:xlink="http://www.w3.org/1999/xlink" height="30.35px" width="17.55px" xmlns="http://www.w3.org/2000/svg">
  <g transform="matrix(1.0, 0.0, 0.0, 1.0, 0.0, 20.9)">
    <path d="M0.8 -2.45 Q0.7 -1.8 0.95 -1.25 2.9 -1.3 4.85 -1.35 5.2 -3.6 5.85 -4.65 7.8 -7.85 9.3 -9.45 11.85 -12.3 14.4 -15.15 17.55 -18.7 17.55 -19.2 17.55 -22.55 13.95 -19.25 11.3 -16.85 8.0 -12.3 5.7 -9.75 3.4 -7.2 0.8 -4.45 0.8 -2.45" fill="#ffffff" fill-rule="evenodd" stroke="none">
      <animate attributeName="fill" dur="2s" repeatCount="indefinite" values="#ffffff;#ffffff"/>
      <animate attributeName="fill-opacity" dur="2s" repeatCount="indefinite" values="1.0;1.0"/>
      <animate attributeName="d" dur="2s" repeatCount="indefinite" values="M0.8 -2.45 Q0.7 -1.8 0.95 -1.25 2.9 -1.3 4.85 -1.35 5.2 -3.6 5.85 -4.65 7.8 -7.85 9.3 -9.45 11.85 -12.3 14.4 -15.15 17.55 -18.7 17.55 -19.2 17.55 -22.55 13.95 -19.25 11.3 -16.85 8.0 -12.3 5.7 -9.75 3.4 -7.2 0.8 -4.45 0.8 -2.45;M0.4 3.25 Q-0.45 6.95 0.55 8.7 0.75 9.3 3.7 9.45 5.0 8.75 4.6 7.65 3.75 5.5 3.8 4.25 3.9 0.5 4.4 -1.65 5.2 -5.4 5.95 -9.1 6.9 -13.75 6.65 -14.2 5.0 -17.1 3.55 -12.4 2.45 -9.05 1.85 -3.45 1.1 -0.1 0.4 3.25"/>
    </path>
    <path d="M0.8 -2.45 Q0.8 -4.45 3.4 -7.2 5.7 -9.75 8.0 -12.3 11.3 -16.85 13.95 -19.25 17.55 -22.55 17.55 -19.2 17.55 -18.7 14.4 -15.15 11.85 -12.3 9.3 -9.45 7.8 -7.85 5.85 -4.65 5.2 -3.6 4.85 -1.35 2.9 -1.3 0.95 -1.25 0.7 -1.8 0.8 -2.45" fill="none" stroke="#000000" stroke-linecap="round" stroke-linejoin="round" stroke-opacity="0.0" stroke-width="1.0">
      <animate attributeName="stroke" dur="2s" repeatCount="indefinite" values="#000000;#000001"/>
      <animate attributeName="stroke-width" dur="2s" repeatCount="indefinite" values="0.0;0.0"/>
      <animate attributeName="fill-opacity" dur="2s" repeatCount="indefinite" values="0.0;0.0"/>
      <animate attributeName="d" dur="2s" repeatCount="indefinite" values="M0.8 -2.45 Q0.8 -4.45 3.4 -7.2 5.7 -9.75 8.0 -12.3 11.3 -16.85 13.95 -19.25 17.55 -22.55 17.55 -19.2 17.55 -18.7 14.4 -15.15 11.85 -12.3 9.3 -9.45 7.8 -7.85 5.85 -4.65 5.2 -3.6 4.85 -1.35 2.9 -1.3 0.95 -1.25 0.7 -1.8 0.8 -2.45;M0.4 3.25 Q1.1 -0.1 1.85 -3.45 2.45 -9.05 3.55 -12.4 5.0 -17.1 6.65 -14.2 6.9 -13.75 5.95 -9.1 5.2 -5.4 4.4 -1.65 3.9 0.5 3.8 4.25 3.75 5.5 4.6 7.65 5.0 8.75 3.7 9.45 0.75 9.3 0.55 8.7 -0.45 6.95 0.4 3.25"/>
    </path>
  </g>
</svg>
