<?xml version="1.0" encoding="UTF-8" standalone="no"?>
<svg xmlns:xlink="http://www.w3.org/1999/xlink" height="35.2px" width="7.9px" xmlns="http://www.w3.org/2000/svg">
  <g transform="matrix(1.0, 0.0, 0.0, 1.0, -1.15, 15.3)">
    <path d="M1.35 1.8 Q0.9 6.4 1.45 7.6 2.0 8.75 4.3 11.3 6.55 13.85 7.85 12.95 9.15 12.05 6.8 9.2 4.45 6.3 4.25 3.45 4.0 0.6 4.4 -1.45 L5.95 -9.1 Q6.9 -13.75 6.65 -14.2 5.0 -17.1 3.55 -12.4 2.45 -9.05 1.85 -3.45 L1.35 1.8" fill="#ffffff" fill-rule="evenodd" stroke="none">
      <animate attributeName="fill" dur="2s" repeatCount="indefinite" values="#ffffff;#ffffff"/>
      <animate attributeName="fill-opacity" dur="2s" repeatCount="indefinite" values="1.0;1.0"/>
      <animate attributeName="d" dur="2s" repeatCount="indefinite" values="M1.35 1.8 Q0.9 6.4 1.45 7.6 2.0 8.75 4.3 11.3 6.55 13.85 7.85 12.95 9.15 12.05 6.8 9.2 4.45 6.3 4.25 3.45 4.0 0.6 4.4 -1.45 L5.95 -9.1 Q6.9 -13.75 6.65 -14.2 5.0 -17.1 3.55 -12.4 2.45 -9.05 1.85 -3.45 L1.35 1.8;M1.45 1.9 Q1.1 6.55 2.85 8.5 4.6 10.4 5.8 16.25 6.95 22.1 8.5 18.6 9.95 15.1 7.4 10.7 4.8 6.3 4.4 3.45 4.0 0.6 4.25 -0.7 L4.5 -2.5 Q4.2 -3.55 3.9 -4.55 3.25 -6.1 2.65 -5.8 2.05 -5.5 1.95 -4.15 L1.45 1.9"/>
    </path>
    <path d="M1.35 1.8 L1.85 -3.45 Q2.45 -9.05 3.55 -12.4 5.0 -17.1 6.65 -14.2 6.9 -13.75 5.95 -9.1 L4.4 -1.45 Q4.0 0.6 4.25 3.45 4.45 6.3 6.8 9.2 9.15 12.05 7.85 12.95 6.55 13.85 4.3 11.3 2.0 8.75 1.45 7.6 0.9 6.4 1.35 1.8" fill="none" stroke="#000000" stroke-linecap="round" stroke-linejoin="round" stroke-opacity="0.0" stroke-width="1.0">
      <animate attributeName="stroke" dur="2s" repeatCount="indefinite" values="#000000;#000001"/>
      <animate attributeName="stroke-width" dur="2s" repeatCount="indefinite" values="0.0;0.0"/>
      <animate attributeName="fill-opacity" dur="2s" repeatCount="indefinite" values="0.0;0.0"/>
      <animate attributeName="d" dur="2s" repeatCount="indefinite" values="M1.35 1.8 L1.85 -3.45 Q2.45 -9.05 3.55 -12.4 5.0 -17.1 6.65 -14.2 6.9 -13.75 5.95 -9.1 L4.4 -1.45 Q4.0 0.6 4.25 3.45 4.45 6.3 6.8 9.2 9.15 12.05 7.85 12.95 6.55 13.85 4.3 11.3 2.0 8.75 1.45 7.6 0.9 6.4 1.35 1.8;M1.45 1.9 L1.95 -4.15 Q2.05 -5.5 2.65 -5.8 3.25 -6.1 3.9 -4.55 4.2 -3.55 4.5 -2.5 L4.25 -0.7 Q4.0 0.6 4.4 3.45 4.8 6.3 7.4 10.7 9.95 15.1 8.5 18.6 6.95 22.1 5.8 16.25 4.6 10.4 2.85 8.5 1.1 6.55 1.45 1.9"/>
    </path>
  </g>
</svg>
