<?xml version="1.0" encoding="UTF-8" standalone="no"?>
<svg xmlns:xlink="http://www.w3.org/1999/xlink" height="28.3px" width="8.15px" xmlns="http://www.w3.org/2000/svg">
  <g transform="matrix(1.0, 0.0, 0.0, 1.0, -1.4, 5.85)">
    <path d="M1.45 1.9 L1.45 2.0 Q1.1 6.55 2.85 8.5 L3.15 8.85 Q4.7 10.85 5.8 16.25 L6.3 18.35 Q7.3 21.35 8.5 18.6 9.05 17.25 9.05 15.8 9.0 13.4 7.4 10.7 L6.05 8.2 Q4.7 5.45 4.4 3.45 4.0 0.6 4.25 -0.7 L4.4 -1.65 4.5 -2.5 3.9 -4.55 Q3.25 -6.1 2.65 -5.8 2.3 -5.6 2.1 -5.0 1.9 -3.2 1.7 -1.45 L1.45 1.9" fill="#ffffff" fill-rule="evenodd" stroke="none">
      <animate attributeName="fill" dur="2s" repeatCount="indefinite" values="#ffffff;#ffffff"/>
      <animate attributeName="fill-opacity" dur="2s" repeatCount="indefinite" values="1.0;1.0"/>
      <animate attributeName="d" dur="2s" repeatCount="indefinite" values="M1.45 1.9 L1.45 2.0 Q1.1 6.55 2.85 8.5 L3.15 8.85 Q4.7 10.85 5.8 16.25 L6.3 18.35 Q7.3 21.35 8.5 18.6 9.05 17.25 9.05 15.8 9.0 13.4 7.4 10.7 L6.05 8.2 Q4.7 5.45 4.4 3.45 4.0 0.6 4.25 -0.7 L4.4 -1.65 4.5 -2.5 3.9 -4.55 Q3.25 -6.1 2.65 -5.8 2.3 -5.6 2.1 -5.0 1.9 -3.2 1.7 -1.45 L1.45 1.9;M1.5 1.9 L1.5 1.9 Q1.2 6.25 2.2 8.6 L2.4 8.95 Q3.45 11.0 4.95 16.2 L5.45 17.85 Q6.15 20.3 6.8 21.45 7.85 23.35 8.9 21.6 10.05 19.6 9.1 16.5 L8.0 13.9 Q6.9 11.75 6.15 9.7 5.35 7.65 4.95 5.7 L4.75 4.8 4.6 3.9 4.3 1.95 Q4.25 1.0 4.2 0.05 4.25 -0.4 4.25 -0.85 4.05 -1.35 1.75 -1.25 L1.5 1.9"/>
    </path>
    <path d="M1.45 1.9 L1.7 -1.45 Q1.9 -3.2 2.1 -5.0 2.3 -5.6 2.65 -5.8 3.25 -6.1 3.9 -4.55 L4.5 -2.5 4.4 -1.65 4.25 -0.7 Q4.0 0.6 4.4 3.45 4.7 5.45 6.05 8.2 L7.4 10.7 Q9.0 13.4 9.05 15.8 9.05 17.25 8.5 18.6 7.3 21.35 6.3 18.35 L5.8 16.25 Q4.7 10.85 3.15 8.85 L2.85 8.5 Q1.1 6.55 1.45 2.0 L1.45 1.9" fill="none" stroke="#000000" stroke-linecap="round" stroke-linejoin="round" stroke-opacity="0.0" stroke-width="1.0">
      <animate attributeName="stroke" dur="2s" repeatCount="indefinite" values="#000000;#000001"/>
      <animate attributeName="stroke-width" dur="2s" repeatCount="indefinite" values="0.0;0.0"/>
      <animate attributeName="fill-opacity" dur="2s" repeatCount="indefinite" values="0.0;0.0"/>
      <animate attributeName="d" dur="2s" repeatCount="indefinite" values="M1.45 1.9 L1.7 -1.45 Q1.9 -3.2 2.1 -5.0 2.3 -5.6 2.65 -5.8 3.25 -6.1 3.9 -4.55 L4.5 -2.5 4.4 -1.65 4.25 -0.7 Q4.0 0.6 4.4 3.45 4.7 5.45 6.05 8.2 L7.4 10.7 Q9.0 13.4 9.05 15.8 9.05 17.25 8.5 18.6 7.3 21.35 6.3 18.35 L5.8 16.25 Q4.7 10.85 3.15 8.85 L2.85 8.5 Q1.1 6.55 1.45 2.0 L1.45 1.9;M1.5 1.9 L1.75 -1.25 Q4.05 -1.35 4.25 -0.85 4.25 -0.4 4.2 0.05 4.25 1.0 4.3 1.95 L4.6 3.9 4.75 4.8 4.95 5.7 Q5.35 7.65 6.15 9.7 6.9 11.75 8.0 13.9 L9.1 16.5 Q10.05 19.6 8.9 21.6 7.85 23.35 6.8 21.45 6.15 20.3 5.45 17.85 L4.95 16.2 Q3.45 11.0 2.4 8.95 L2.2 8.6 Q1.2 6.25 1.5 1.9 L1.5 1.9"/>
    </path>
  </g>
</svg>
