<?xml version="1.0" encoding="UTF-8" standalone="no"?>
<svg xmlns:xlink="http://www.w3.org/1999/xlink" height="31.1px" width="8.05px" xmlns="http://www.w3.org/2000/svg">
  <g transform="matrix(1.0, 0.0, 0.0, 1.0, -1.45, 1.85)">
    <path d="M1.5 1.9 Q1.35 4.25 1.55 6.0 1.75 7.65 2.4 8.95 L3.05 10.4 3.75 12.25 Q4.15 13.5 4.5 14.75 5.0 16.3 5.45 17.85 L5.85 19.25 Q6.7 21.75 7.4 22.25 L8.2 22.35 8.9 21.6 9.45 19.95 Q9.85 17.5 8.0 13.9 6.85 11.65 6.05 9.55 5.15 7.1 4.75 4.8 4.0 0.6 4.05 -1.3 2.9 -1.25 1.75 -1.25 L1.5 1.9" fill="#ffffff" fill-rule="evenodd" stroke="none">
      <animate attributeName="fill" dur="2s" repeatCount="indefinite" values="#ffffff;#ffffff"/>
      <animate attributeName="fill-opacity" dur="2s" repeatCount="indefinite" values="1.0;1.0"/>
      <animate attributeName="d" dur="2s" repeatCount="indefinite" values="M1.5 1.9 Q1.35 4.25 1.55 6.0 1.75 7.65 2.4 8.95 L3.05 10.4 3.75 12.25 Q4.15 13.5 4.5 14.75 5.0 16.3 5.45 17.85 L5.85 19.25 Q6.7 21.75 7.4 22.25 L8.2 22.35 8.9 21.6 9.45 19.95 Q9.85 17.5 8.0 13.9 6.85 11.65 6.05 9.55 5.15 7.1 4.75 4.8 4.0 0.6 4.05 -1.3 2.9 -1.25 1.75 -1.25 L1.5 1.9;M2.15 10.15 Q2.25 12.0 2.75 13.95 3.45 15.4 4.1 16.85 L4.95 18.5 4.3 20.25 Q3.6 21.75 3.6 22.8 3.6 24.7 4.3 26.3 L4.85 27.3 Q6.1 29.25 7.6 29.25 L8.5 28.95 8.6 27.85 8.8 25.95 Q8.65 22.7 8.5 19.45 8.2 16.35 7.5 14.6 6.65 12.35 5.8 10.15 4.6 6.9 3.95 4.55 2.9 5.2 2.15 6.8 L2.15 10.15"/>
    </path>
    <path d="M1.5 1.9 L1.75 -1.25 Q2.9 -1.25 4.05 -1.3 4.0 0.6 4.75 4.8 5.15 7.1 6.05 9.55 6.85 11.65 8.0 13.9 9.85 17.5 9.45 19.95 L8.9 21.6 8.2 22.35 7.4 22.25 Q6.7 21.75 5.85 19.25 L5.45 17.85 Q5.0 16.3 4.5 14.75 4.15 13.5 3.75 12.25 L3.05 10.4 2.4 8.95 Q1.75 7.65 1.55 6.0 1.35 4.25 1.5 1.9" fill="none" stroke="#000000" stroke-linecap="round" stroke-linejoin="round" stroke-opacity="0.0" stroke-width="1.0">
      <animate attributeName="stroke" dur="2s" repeatCount="indefinite" values="#000000;#000001"/>
      <animate attributeName="stroke-width" dur="2s" repeatCount="indefinite" values="0.0;0.0"/>
      <animate attributeName="fill-opacity" dur="2s" repeatCount="indefinite" values="0.0;0.0"/>
      <animate attributeName="d" dur="2s" repeatCount="indefinite" values="M1.5 1.9 L1.75 -1.25 Q2.9 -1.25 4.05 -1.3 4.0 0.6 4.75 4.8 5.15 7.1 6.05 9.55 6.85 11.65 8.0 13.9 9.85 17.5 9.45 19.95 L8.9 21.6 8.2 22.35 7.4 22.25 Q6.7 21.75 5.85 19.25 L5.45 17.85 Q5.0 16.3 4.5 14.75 4.15 13.5 3.75 12.25 L3.05 10.4 2.4 8.95 Q1.75 7.65 1.55 6.0 1.35 4.25 1.5 1.9;M2.15 10.15 L2.15 6.8 Q2.9 5.2 3.95 4.55 4.6 6.9 5.8 10.15 6.65 12.35 7.5 14.6 8.2 16.35 8.5 19.45 8.65 22.7 8.8 25.95 L8.6 27.85 8.5 28.95 7.6 29.25 Q6.1 29.25 4.85 27.3 L4.3 26.3 Q3.6 24.7 3.6 22.8 3.6 21.75 4.3 20.25 L4.95 18.5 4.1 16.85 Q3.45 15.4 2.75 13.95 2.25 12.0 2.15 10.15"/>
    </path>
  </g>
</svg>
