<?xml version="1.0" encoding="UTF-8" standalone="no"?>
<svg xmlns:xlink="http://www.w3.org/1999/xlink" height="23.0px" width="5.5px" xmlns="http://www.w3.org/2000/svg">
  <g transform="matrix(1.0, 0.0, 0.0, 1.0, 3.3, 11.85)">
    <path d="M-3.3 3.9 L-3.3 4.0 Q-2.9 6.7 0.45 4.8 2.75 5.2 1.8 -0.8 L1.45 -2.5 Q0.95 -5.0 0.45 -7.5 L0.15 -10.75 0.2 -11.45 Q-0.9 -13.4 -1.05 -5.5 -1.05 -1.85 -1.45 0.4 -2.0 3.25 -3.3 3.9" fill="#fff7ee" fill-opacity="0.9019608" fill-rule="evenodd" stroke="none">
      <animate attributeName="fill" dur="2s" repeatCount="indefinite" values="#fff7ee;#fff7ef"/>
      <animate attributeName="fill-opacity" dur="2s" repeatCount="indefinite" values="0.9019608;0.9019608"/>
      <animate attributeName="d" dur="2s" repeatCount="indefinite" values="M-3.3 3.9 L-3.3 4.0 Q-2.9 6.7 0.45 4.8 2.75 5.2 1.8 -0.8 L1.45 -2.5 Q0.95 -5.0 0.45 -7.5 L0.15 -10.75 0.2 -11.45 Q-0.9 -13.4 -1.05 -5.5 -1.05 -1.85 -1.45 0.4 -2.0 3.25 -3.3 3.9;M-2.9 8.45 L-2.9 8.45 Q-1.35 13.4 0.35 9.3 2.0 5.2 2.2 0.95 L2.2 -1.25 Q2.15 -4.35 1.55 -7.2 L0.85 -11.15 0.2 -11.7 Q-1.5 -12.75 -0.2 -3.05 0.1 2.4 -1.85 3.95 -3.15 5.35 -2.9 8.45"/>
    </path>
    <path d="M-3.3 3.9 Q-2.0 3.25 -1.45 0.4 -1.05 -1.85 -1.05 -5.5 -0.9 -13.4 0.2 -11.45 L0.15 -10.75 0.45 -7.5 Q0.95 -5.0 1.45 -2.5 L1.8 -0.8 Q2.75 5.2 0.45 4.8 -2.9 6.7 -3.3 4.0 L-3.3 3.9" fill="none" stroke="#000000" stroke-linecap="round" stroke-linejoin="round" stroke-opacity="0.0" stroke-width="1.0">
      <animate attributeName="stroke" dur="2s" repeatCount="indefinite" values="#000000;#000001"/>
      <animate attributeName="stroke-width" dur="2s" repeatCount="indefinite" values="0.0;0.0"/>
      <animate attributeName="fill-opacity" dur="2s" repeatCount="indefinite" values="0.0;0.0"/>
      <animate attributeName="d" dur="2s" repeatCount="indefinite" values="M-3.3 3.9 Q-2.0 3.25 -1.45 0.4 -1.05 -1.85 -1.05 -5.5 -0.9 -13.4 0.2 -11.45 L0.15 -10.75 0.45 -7.5 Q0.95 -5.0 1.45 -2.5 L1.8 -0.8 Q2.75 5.2 0.45 4.8 -2.9 6.7 -3.3 4.0 L-3.3 3.9;M-2.9 8.45 Q-3.15 5.35 -1.85 3.95 0.1 2.4 -0.2 -3.05 -1.5 -12.75 0.2 -11.7 L0.85 -11.15 1.55 -7.2 Q2.15 -4.35 2.2 -1.25 L2.2 0.95 Q2.0 5.2 0.35 9.3 -1.35 13.4 -2.9 8.45 L-2.9 8.45"/>
    </path>
  </g>
</svg>
