<?xml version="1.0" encoding="UTF-8" standalone="no"?>
<svg xmlns:xlink="http://www.w3.org/1999/xlink" height="29.65px" width="5.2px" xmlns="http://www.w3.org/2000/svg">
  <g transform="matrix(1.0, 0.0, 0.0, 1.0, 3.0, 11.85)">
    <path d="M-2.9 8.45 L-2.9 8.45 Q-1.6 12.65 -0.15 10.35 L0.35 9.3 Q1.45 6.6 1.9 3.8 L2.2 0.95 Q2.3 -1.75 2.0 -4.3 L1.55 -7.2 Q1.2 -9.2 0.85 -11.15 -0.75 -12.9 -0.85 -10.25 -0.65 -8.05 -0.5 -5.9 -0.15 -3.55 -0.15 -1.75 -0.1 2.6 -2.5 4.95 -3.05 6.3 -2.9 8.45" fill="#fff7ee" fill-opacity="0.9019608" fill-rule="evenodd" stroke="none">
      <animate attributeName="fill" dur="2s" repeatCount="indefinite" values="#fff7ee;#fff7ef"/>
      <animate attributeName="fill-opacity" dur="2s" repeatCount="indefinite" values="0.9019608;0.9019608"/>
      <animate attributeName="d" dur="2s" repeatCount="indefinite" values="M-2.9 8.45 L-2.9 8.45 Q-1.6 12.65 -0.15 10.35 L0.35 9.3 Q1.45 6.6 1.9 3.8 L2.2 0.95 Q2.3 -1.75 2.0 -4.3 L1.55 -7.2 Q1.2 -9.2 0.85 -11.15 -0.75 -12.9 -0.85 -10.25 -0.65 -8.05 -0.5 -5.9 -0.15 -3.55 -0.15 -1.75 -0.1 2.6 -2.5 4.95 -3.05 6.3 -2.9 8.45;M-2.9 17.25 L-2.8 17.3 Q1.0 19.05 0.9 14.75 L0.8 13.15 Q0.65 9.45 0.5 5.8 L0.5 2.3 Q0.7 -0.8 1.45 -4.2 L1.9 -7.8 Q1.85 -10.1 -0.65 -10.6 -1.1 -9.65 -1.0 -6.9 -0.9 -4.05 -1.25 -1.05 -1.5 1.4 -2.05 4.0 -3.1 8.5 -2.7 13.25 -3.15 12.8 -2.9 17.25"/>
    </path>
    <path d="M-2.9 8.45 Q-3.05 6.3 -2.5 4.95 -0.1 2.6 -0.15 -1.75 -0.15 -3.55 -0.5 -5.9 -0.65 -8.05 -0.85 -10.25 -0.75 -12.9 0.85 -11.15 1.2 -9.2 1.55 -7.2 L2.0 -4.3 Q2.3 -1.75 2.2 0.95 L1.9 3.8 Q1.45 6.6 0.35 9.3 L-0.15 10.35 Q-1.6 12.65 -2.9 8.45 L-2.9 8.45" fill="none" stroke="#000000" stroke-linecap="round" stroke-linejoin="round" stroke-opacity="0.0" stroke-width="1.0">
      <animate attributeName="stroke" dur="2s" repeatCount="indefinite" values="#000000;#000001"/>
      <animate attributeName="stroke-width" dur="2s" repeatCount="indefinite" values="0.0;0.0"/>
      <animate attributeName="fill-opacity" dur="2s" repeatCount="indefinite" values="0.0;0.0"/>
      <animate attributeName="d" dur="2s" repeatCount="indefinite" values="M-2.9 8.45 Q-3.05 6.3 -2.5 4.95 -0.1 2.6 -0.15 -1.75 -0.15 -3.55 -0.5 -5.9 -0.65 -8.05 -0.85 -10.25 -0.75 -12.9 0.85 -11.15 1.2 -9.2 1.55 -7.2 L2.0 -4.3 Q2.3 -1.75 2.2 0.95 L1.9 3.8 Q1.45 6.6 0.35 9.3 L-0.15 10.35 Q-1.6 12.65 -2.9 8.45 L-2.9 8.45;M-2.9 17.25 Q-3.15 12.8 -2.7 13.25 -3.1 8.5 -2.05 4.0 -1.5 1.4 -1.25 -1.05 -0.9 -4.05 -1.0 -6.9 -1.1 -9.65 -0.65 -10.6 1.85 -10.1 1.9 -7.8 L1.45 -4.2 Q0.7 -0.8 0.5 2.3 L0.5 5.8 Q0.65 9.45 0.8 13.15 L0.9 14.75 Q1.0 19.05 -2.8 17.3 L-2.9 17.25"/>
    </path>
  </g>
</svg>
