<?xml version="1.0" encoding="UTF-8" standalone="no"?>
<svg xmlns:xlink="http://www.w3.org/1999/xlink" height="24.35px" width="3.3px" xmlns="http://www.w3.org/2000/svg">
  <g transform="matrix(1.0, 0.0, 0.0, 1.0, -1.35, -4.1)">
    <path d="M1.35 8.1 L1.35 8.2 1.35 8.3 1.7 8.45 1.9 8.45 2.1 8.45 2.25 8.55 Q2.4 8.6 2.55 8.6 L3.05 8.5 Q4.65 8.5 4.65 8.15 L4.65 8.1 Q4.6 8.0 4.25 7.85 3.85 7.7 3.8 7.35 L3.7 7.0 3.6 6.55 3.8 6.15 Q3.75 6.0 3.4 5.95 3.4 5.7 3.4 5.45 L3.4 5.2 3.4 5.15 3.45 4.6 Q3.5 4.25 2.55 4.1 1.95 4.55 1.8 5.25 L1.7 7.35 1.35 8.1" fill="#e9feff" fill-opacity="0.3019608" fill-rule="evenodd" stroke="none">
      <animate attributeName="fill" dur="2s" repeatCount="indefinite" values="#e9feff;#e9feff"/>
      <animate attributeName="fill-opacity" dur="2s" repeatCount="indefinite" values="0.3019608;0.3019608"/>
      <animate attributeName="d" dur="2s" repeatCount="indefinite" values="M1.35 8.1 L1.35 8.2 1.35 8.3 1.7 8.45 1.9 8.45 2.1 8.45 2.25 8.55 Q2.4 8.6 2.55 8.6 L3.05 8.5 Q4.65 8.5 4.65 8.15 L4.65 8.1 Q4.6 8.0 4.25 7.85 3.85 7.7 3.8 7.35 L3.7 7.0 3.6 6.55 3.8 6.15 Q3.75 6.0 3.4 5.95 3.4 5.7 3.4 5.45 L3.4 5.2 3.4 5.15 3.45 4.6 Q3.5 4.25 2.55 4.1 1.95 4.55 1.8 5.25 L1.7 7.35 1.35 8.1;M1.35 26.15 L1.35 26.15 1.4 26.75 1.85 27.7 2.55 28.45 3.35 28.0 4.2 27.4 Q4.65 27.05 4.65 25.95 L4.35 23.85 Q3.7 19.25 3.6 17.7 L3.6 17.3 Q3.7 16.3 3.8 15.35 3.9 13.95 4.0 12.55 L4.05 11.0 4.05 9.2 3.85 7.1 Q3.7 6.4 3.55 5.75 3.2 4.55 2.55 4.1 L2.4 5.1 2.3 5.45 2.2 7.55 Q2.05 9.85 1.9 12.15 1.8 14.2 1.7 16.2 L1.45 22.9 1.35 26.15"/>
    </path>
    <path d="M1.35 8.1 L1.7 7.35 1.8 5.25 Q1.95 4.55 2.55 4.1 3.5 4.25 3.45 4.6 L3.4 5.15 3.4 5.2 3.4 5.45 Q3.4 5.7 3.4 5.95 3.75 6.0 3.8 6.15 L3.6 6.55 3.7 7.0 3.8 7.35 Q3.85 7.7 4.25 7.85 4.6 8.0 4.65 8.1 L4.65 8.15 Q4.65 8.5 3.05 8.5 L2.55 8.6 Q2.4 8.6 2.25 8.55 L2.1 8.45 1.9 8.45 1.7 8.45 1.35 8.3 1.35 8.2 1.35 8.1" fill="none" stroke="#000000" stroke-linecap="round" stroke-linejoin="round" stroke-opacity="0.0" stroke-width="1.0">
      <animate attributeName="stroke" dur="2s" repeatCount="indefinite" values="#000000;#000001"/>
      <animate attributeName="stroke-width" dur="2s" repeatCount="indefinite" values="0.0;0.0"/>
      <animate attributeName="fill-opacity" dur="2s" repeatCount="indefinite" values="0.0;0.0"/>
      <animate attributeName="d" dur="2s" repeatCount="indefinite" values="M1.35 8.1 L1.7 7.35 1.8 5.25 Q1.95 4.55 2.55 4.1 3.5 4.25 3.45 4.6 L3.4 5.15 3.4 5.2 3.4 5.45 Q3.4 5.7 3.4 5.95 3.75 6.0 3.8 6.15 L3.6 6.55 3.7 7.0 3.8 7.35 Q3.85 7.7 4.25 7.85 4.6 8.0 4.65 8.1 L4.65 8.15 Q4.65 8.5 3.05 8.5 L2.55 8.6 Q2.4 8.6 2.25 8.55 L2.1 8.45 1.9 8.45 1.7 8.45 1.35 8.3 1.35 8.2 1.35 8.1;M1.35 26.15 L1.45 22.9 1.7 16.2 Q1.8 14.2 1.9 12.15 2.05 9.85 2.2 7.55 L2.3 5.45 2.4 5.1 2.55 4.1 Q3.2 4.55 3.55 5.75 3.7 6.4 3.85 7.1 L4.05 9.2 4.05 11.0 4.0 12.55 Q3.9 13.95 3.8 15.35 3.7 16.3 3.6 17.3 L3.6 17.7 Q3.7 19.25 4.35 23.85 L4.65 25.95 Q4.65 27.05 4.2 27.4 L3.35 28.0 2.55 28.45 1.85 27.7 1.4 26.75 1.35 26.15 1.35 26.15"/>
    </path>
  </g>
</svg>
