<?xml version="1.0" encoding="UTF-8" standalone="no"?>
<svg xmlns:xlink="http://www.w3.org/1999/xlink" height="246.7px" width="3.3px" xmlns="http://www.w3.org/2000/svg">
  <g transform="matrix(1.0, 0.0, 0.0, 1.0, -1.35, -35.0)">
    <path d="M1.35 118.95 Q1.35 122.35 2.55 127.7 L4.2 123.7 Q4.65 122.35 4.65 118.55 3.6 90.4 3.6 85.25 L4.05 61.25 Q4.15 39.55 2.55 35.0 L2.3 40.15 Q1.8 61.25 1.35 118.95" fill="#e9feff" fill-opacity="0.3019608" fill-rule="evenodd" stroke="none">
      <animate attributeName="fill" dur="2s" repeatCount="indefinite" values="#e9feff;#e9feff"/>
      <animate attributeName="fill-opacity" dur="2s" repeatCount="indefinite" values="0.3019608;0.3019608"/>
      <animate attributeName="d" dur="2s" repeatCount="indefinite" values="M1.35 118.95 Q1.35 122.35 2.55 127.7 L4.2 123.7 Q4.65 122.35 4.65 118.55 3.6 90.4 3.6 85.25 L4.05 61.25 Q4.15 39.55 2.55 35.0 L2.3 40.15 Q1.8 61.25 1.35 118.95;M1.35 272.95 Q1.35 276.35 2.55 281.7 L4.2 277.7 Q4.65 276.35 4.65 272.55 3.6 244.4 3.6 239.25 L4.05 215.25 Q4.15 193.55 2.55 189.0 L2.3 194.15 Q1.8 215.25 1.35 272.95"/>
    </path>
    <path d="M1.35 118.95 Q1.8 61.25 2.3 40.15 L2.55 35.0 Q4.15 39.55 4.05 61.25 L3.6 85.25 Q3.6 90.4 4.65 118.55 4.65 122.35 4.2 123.7 L2.55 127.7 Q1.35 122.35 1.35 118.95" fill="none" stroke="#000000" stroke-linecap="round" stroke-linejoin="round" stroke-opacity="0.0" stroke-width="1.0">
      <animate attributeName="stroke" dur="2s" repeatCount="indefinite" values="#000000;#000001"/>
      <animate attributeName="stroke-width" dur="2s" repeatCount="indefinite" values="0.0;0.0"/>
      <animate attributeName="fill-opacity" dur="2s" repeatCount="indefinite" values="0.0;0.0"/>
      <animate attributeName="d" dur="2s" repeatCount="indefinite" values="M1.35 118.95 Q1.8 61.25 2.3 40.15 L2.55 35.0 Q4.15 39.55 4.05 61.25 L3.6 85.25 Q3.6 90.4 4.65 118.55 4.65 122.35 4.2 123.7 L2.55 127.7 Q1.35 122.35 1.35 118.95;M1.35 272.95 Q1.8 215.25 2.3 194.15 L2.55 189.0 Q4.15 193.55 4.05 215.25 L3.6 239.25 Q3.6 244.4 4.65 272.55 4.65 276.35 4.2 277.7 L2.55 281.7 Q1.35 276.35 1.35 272.95"/>
    </path>
  </g>
</svg>
