<?xml version="1.0" encoding="UTF-8" standalone="no"?>
<svg xmlns:xlink="http://www.w3.org/1999/xlink" height="106.5px" width="3.3px" xmlns="http://www.w3.org/2000/svg">
  <g transform="matrix(1.0, 0.0, 0.0, 1.0, -1.35, -4.1)">
    <path d="M1.35 26.15 Q1.35 27.05 1.85 27.7 2.15 28.05 4.2 27.4 4.65 27.05 4.65 26.05 3.6 18.65 3.6 17.3 L4.05 11.0 Q4.15 5.3 2.55 4.1 L2.3 5.45 Q1.8 11.0 1.35 26.15" fill="#e9feff" fill-opacity="0.3019608" fill-rule="evenodd" stroke="none">
      <animate attributeName="fill" dur="2s" repeatCount="indefinite" values="#e9feff;#e9feff"/>
      <animate attributeName="fill-opacity" dur="2s" repeatCount="indefinite" values="0.3019608;0.3019608"/>
      <animate attributeName="d" dur="2s" repeatCount="indefinite" values="M1.35 26.15 Q1.35 27.05 1.85 27.7 2.15 28.05 4.2 27.4 4.65 27.05 4.65 26.05 3.6 18.65 3.6 17.3 L4.05 11.0 Q4.15 5.3 2.55 4.1 L2.3 5.45 Q1.8 11.0 1.35 26.15;M1.35 106.35 Q1.35 108.65 1.85 110.3 2.15 111.15 4.2 109.55 4.65 108.65 4.65 106.1 3.6 87.35 3.6 83.95 L4.05 67.95 Q4.15 53.5 2.55 50.5 L2.3 53.9 Q1.8 67.95 1.35 106.35"/>
    </path>
    <path d="M1.35 26.15 Q1.8 11.0 2.3 5.45 L2.55 4.1 Q4.15 5.3 4.05 11.0 L3.6 17.3 Q3.6 18.65 4.65 26.05 4.65 27.05 4.2 27.4 2.15 28.05 1.85 27.7 1.35 27.05 1.35 26.15" fill="none" stroke="#000000" stroke-linecap="round" stroke-linejoin="round" stroke-opacity="0.0" stroke-width="1.0">
      <animate attributeName="stroke" dur="2s" repeatCount="indefinite" values="#000000;#000001"/>
      <animate attributeName="stroke-width" dur="2s" repeatCount="indefinite" values="0.0;0.0"/>
      <animate attributeName="fill-opacity" dur="2s" repeatCount="indefinite" values="0.0;0.0"/>
      <animate attributeName="d" dur="2s" repeatCount="indefinite" values="M1.35 26.15 Q1.8 11.0 2.3 5.45 L2.55 4.1 Q4.15 5.3 4.05 11.0 L3.6 17.3 Q3.6 18.65 4.65 26.05 4.65 27.05 4.2 27.4 2.15 28.05 1.85 27.7 1.35 27.05 1.35 26.15;M1.35 106.35 Q1.8 67.95 2.3 53.9 L2.55 50.5 Q4.15 53.5 4.05 67.95 L3.6 83.95 Q3.6 87.35 4.65 106.1 4.65 108.65 4.2 109.55 2.15 111.15 1.85 110.3 1.35 108.65 1.35 106.35"/>
    </path>
  </g>
</svg>
