<?xml version="1.0" encoding="UTF-8" standalone="no"?>
<svg xmlns:xlink="http://www.w3.org/1999/xlink" height="231.2px" width="3.3px" xmlns="http://www.w3.org/2000/svg">
  <g transform="matrix(1.0, 0.0, 0.0, 1.0, -1.35, -50.5)">
    <path d="M1.35 106.35 Q1.35 108.65 2.55 112.2 L4.2 109.55 Q4.65 108.65 4.65 106.1 3.6 87.35 3.6 83.95 L4.05 67.95 Q4.15 53.5 2.55 50.5 L2.3 53.9 Q1.8 67.95 1.35 106.35" fill="#e9feff" fill-opacity="0.3019608" fill-rule="evenodd" stroke="none">
      <animate attributeName="fill" dur="2s" repeatCount="indefinite" values="#e9feff;#e9feff"/>
      <animate attributeName="fill-opacity" dur="2s" repeatCount="indefinite" values="0.3019608;0.3019608"/>
      <animate attributeName="d" dur="2s" repeatCount="indefinite" values="M1.35 106.35 Q1.35 108.65 2.55 112.2 L4.2 109.55 Q4.65 108.65 4.65 106.1 3.6 87.35 3.6 83.95 L4.05 67.95 Q4.15 53.5 2.55 50.5 L2.3 53.9 Q1.8 67.95 1.35 106.35;M1.35 275.25 Q1.35 277.75 2.55 281.7 L4.2 278.75 Q4.65 277.75 4.65 274.95 3.6 254.2 3.6 250.4 L4.05 232.7 Q4.15 216.65 2.55 213.3 L2.3 217.1 Q1.8 232.7 1.35 275.25"/>
    </path>
    <path d="M1.35 106.35 Q1.8 67.95 2.3 53.9 L2.55 50.5 Q4.15 53.5 4.05 67.95 L3.6 83.95 Q3.6 87.35 4.65 106.1 4.65 108.65 4.2 109.55 L2.55 112.2 Q1.35 108.65 1.35 106.35" fill="none" stroke="#000000" stroke-linecap="round" stroke-linejoin="round" stroke-opacity="0.0" stroke-width="1.0">
      <animate attributeName="stroke" dur="2s" repeatCount="indefinite" values="#000000;#000001"/>
      <animate attributeName="stroke-width" dur="2s" repeatCount="indefinite" values="0.0;0.0"/>
      <animate attributeName="fill-opacity" dur="2s" repeatCount="indefinite" values="0.0;0.0"/>
      <animate attributeName="d" dur="2s" repeatCount="indefinite" values="M1.35 106.35 Q1.8 67.95 2.3 53.9 L2.55 50.5 Q4.15 53.5 4.05 67.95 L3.6 83.95 Q3.6 87.35 4.65 106.1 4.65 108.65 4.2 109.55 L2.55 112.2 Q1.35 108.65 1.35 106.35;M1.35 275.25 Q1.8 232.7 2.3 217.1 L2.55 213.3 Q4.15 216.65 4.05 232.7 L3.6 250.4 Q3.6 254.2 4.65 274.95 4.65 277.75 4.2 278.75 L2.55 281.7 Q1.35 277.75 1.35 275.25"/>
    </path>
  </g>
</svg>
