<?xml version="1.0" encoding="UTF-8" standalone="no"?>
<svg xmlns:xlink="http://www.w3.org/1999/xlink" height="68.4px" width="3.3px" xmlns="http://www.w3.org/2000/svg">
  <g transform="matrix(1.0, 0.0, 0.0, 1.0, -1.35, -213.3)">
    <path d="M1.35 275.25 Q1.35 277.75 2.55 281.7 L4.2 278.75 Q4.65 277.75 4.65 274.95 3.6 254.2 3.6 250.4 L4.05 232.7 Q4.15 216.65 2.55 213.3 L2.3 217.1 Q1.8 232.7 1.35 275.25" fill="#e9feff" fill-opacity="0.3019608" fill-rule="evenodd" stroke="none">
      <animate attributeName="fill" dur="2s" repeatCount="indefinite" values="#e9feff;#e9feff"/>
      <animate attributeName="fill-opacity" dur="2s" repeatCount="indefinite" values="0.3019608;0.3019608"/>
      <animate attributeName="d" dur="2s" repeatCount="indefinite" values="M1.35 275.25 Q1.35 277.75 2.55 281.7 L4.2 278.75 Q4.65 277.75 4.65 274.95 3.6 254.2 3.6 250.4 L4.05 232.7 Q4.15 216.65 2.55 213.3 L2.3 217.1 Q1.8 232.7 1.35 275.25;M1.35 281.25 Q1.95 281.5 2.55 281.7 L4.2 281.5 Q4.45 281.35 4.65 281.2 3.6 279.75 3.6 279.5 L4.05 278.25 Q4.15 277.1 2.55 276.9 L2.3 277.15 Q1.8 278.25 1.35 281.25"/>
    </path>
    <path d="M1.35 275.25 Q1.8 232.7 2.3 217.1 L2.55 213.3 Q4.15 216.65 4.05 232.7 L3.6 250.4 Q3.6 254.2 4.65 274.95 4.65 277.75 4.2 278.75 L2.55 281.7 Q1.35 277.75 1.35 275.25" fill="none" stroke="#000000" stroke-linecap="round" stroke-linejoin="round" stroke-opacity="0.0" stroke-width="1.0">
      <animate attributeName="stroke" dur="2s" repeatCount="indefinite" values="#000000;#000001"/>
      <animate attributeName="stroke-width" dur="2s" repeatCount="indefinite" values="0.0;0.0"/>
      <animate attributeName="fill-opacity" dur="2s" repeatCount="indefinite" values="0.0;0.0"/>
      <animate attributeName="d" dur="2s" repeatCount="indefinite" values="M1.35 275.25 Q1.8 232.7 2.3 217.1 L2.55 213.3 Q4.15 216.65 4.05 232.7 L3.6 250.4 Q3.6 254.2 4.65 274.95 4.65 277.75 4.2 278.75 L2.55 281.7 Q1.35 277.75 1.35 275.25;M1.35 281.25 Q1.8 278.25 2.3 277.15 L2.55 276.9 Q4.15 277.1 4.05 278.25 L3.6 279.5 Q3.6 279.75 4.65 281.2 4.45 281.35 4.2 281.5 L2.55 281.7 Q1.95 281.5 1.35 281.25"/>
    </path>
  </g>
</svg>
