<?xml version="1.0" encoding="UTF-8" standalone="no"?>
<svg xmlns:xlink="http://www.w3.org/1999/xlink" height="90.2px" width="3.3px" xmlns="http://www.w3.org/2000/svg">
  <g transform="matrix(1.0, 0.0, 0.0, 1.0, -1.35, -5.45)">
    <path d="M1.35 26.15 Q1.35 27.05 2.55 28.45 L4.2 27.4 Q4.65 27.05 4.65 26.05 3.6 18.65 3.6 17.3 L4.05 11.0 Q4.15 5.3 2.3 5.45 1.8 11.0 1.35 26.15" fill="#e9feff" fill-opacity="0.3019608" fill-rule="evenodd" stroke="none">
      <animate attributeName="fill" dur="2s" repeatCount="indefinite" values="#e9feff;#e9feff"/>
      <animate attributeName="fill-opacity" dur="2s" repeatCount="indefinite" values="0.3019608;0.3019608"/>
      <animate attributeName="d" dur="2s" repeatCount="indefinite" values="M1.35 26.15 Q1.35 27.05 2.55 28.45 L4.2 27.4 Q4.65 27.05 4.65 26.05 3.6 18.65 3.6 17.3 L4.05 11.0 Q4.15 5.3 2.3 5.45 1.8 11.0 1.35 26.15;M1.35 92.95 Q1.35 94.0 2.55 95.65 L4.2 94.45 Q4.65 94.0 4.65 92.85 3.6 84.15 3.6 82.55 L4.05 75.15 Q4.15 68.45 2.3 68.65 1.8 75.15 1.35 92.95"/>
    </path>
    <path d="M1.35 26.15 Q1.8 11.0 2.3 5.45 4.15 5.3 4.05 11.0 L3.6 17.3 Q3.6 18.65 4.65 26.05 4.65 27.05 4.2 27.4 L2.55 28.45 Q1.35 27.05 1.35 26.15" fill="none" stroke="#000000" stroke-linecap="round" stroke-linejoin="round" stroke-opacity="0.0" stroke-width="1.0">
      <animate attributeName="stroke" dur="2s" repeatCount="indefinite" values="#000000;#000001"/>
      <animate attributeName="stroke-width" dur="2s" repeatCount="indefinite" values="0.0;0.0"/>
      <animate attributeName="fill-opacity" dur="2s" repeatCount="indefinite" values="0.0;0.0"/>
      <animate attributeName="d" dur="2s" repeatCount="indefinite" values="M1.35 26.15 Q1.8 11.0 2.3 5.45 4.15 5.3 4.05 11.0 L3.6 17.3 Q3.6 18.65 4.65 26.05 4.65 27.05 4.2 27.4 L2.55 28.45 Q1.35 27.05 1.35 26.15;M1.35 92.95 Q1.8 75.15 2.3 68.65 4.15 68.45 4.05 75.15 L3.6 82.55 Q3.6 84.15 4.65 92.85 4.65 94.0 4.2 94.45 L2.55 95.65 Q1.35 94.0 1.35 92.95"/>
    </path>
  </g>
</svg>
