<?xml version="1.0" encoding="UTF-8" standalone="no"?>
<svg xmlns:xlink="http://www.w3.org/1999/xlink" height="203.75px" width="3.3px" xmlns="http://www.w3.org/2000/svg">
  <g transform="matrix(1.0, 0.0, 0.0, 1.0, -1.35, -68.65)">
    <path d="M1.35 92.95 Q1.35 94.0 1.85 94.8 L2.55 95.65 4.2 94.45 Q4.65 94.0 4.65 92.85 3.6 84.15 3.6 82.55 L4.05 75.15 Q4.15 68.45 2.3 68.65 1.8 75.15 1.35 92.95" fill="#e9feff" fill-opacity="0.3019608" fill-rule="evenodd" stroke="none">
      <animate attributeName="fill" dur="2s" repeatCount="indefinite" values="#e9feff;#e9feff"/>
      <animate attributeName="fill-opacity" dur="2s" repeatCount="indefinite" values="0.3019608;0.3019608"/>
      <animate attributeName="d" dur="2s" repeatCount="indefinite" values="M1.35 92.95 Q1.35 94.0 1.85 94.8 L2.55 95.65 4.2 94.45 Q4.65 94.0 4.65 92.85 3.6 84.15 3.6 82.55 L4.05 75.15 Q4.15 68.45 2.3 68.65 1.8 75.15 1.35 92.95;M1.35 267.7 Q1.35 269.5 1.85 270.85 L2.55 272.4 4.2 270.25 Q4.65 269.5 4.65 267.5 3.6 252.4 3.6 249.6 L4.05 236.7 Q4.15 225.05 2.3 225.35 1.8 236.7 1.35 267.7"/>
    </path>
    <path d="M1.35 92.95 Q1.8 75.15 2.3 68.65 4.15 68.45 4.05 75.15 L3.6 82.55 Q3.6 84.15 4.65 92.85 4.65 94.0 4.2 94.45 L2.55 95.65 1.85 94.8 Q1.35 94.0 1.35 92.95" fill="none" stroke="#000000" stroke-linecap="round" stroke-linejoin="round" stroke-opacity="0.0" stroke-width="1.0">
      <animate attributeName="stroke" dur="2s" repeatCount="indefinite" values="#000000;#000001"/>
      <animate attributeName="stroke-width" dur="2s" repeatCount="indefinite" values="0.0;0.0"/>
      <animate attributeName="fill-opacity" dur="2s" repeatCount="indefinite" values="0.0;0.0"/>
      <animate attributeName="d" dur="2s" repeatCount="indefinite" values="M1.35 92.95 Q1.8 75.15 2.3 68.65 4.15 68.45 4.05 75.15 L3.6 82.55 Q3.6 84.15 4.65 92.85 4.65 94.0 4.2 94.45 L2.55 95.65 1.85 94.8 Q1.35 94.0 1.35 92.95;M1.35 267.7 Q1.8 236.7 2.3 225.35 4.15 225.05 4.05 236.7 L3.6 249.6 Q3.6 252.4 4.65 267.5 4.65 269.5 4.2 270.25 L2.55 272.4 1.85 270.85 Q1.35 269.5 1.35 267.7"/>
    </path>
  </g>
</svg>
