<?xml version="1.0" encoding="UTF-8" standalone="no"?>
<svg xmlns:xlink="http://www.w3.org/1999/xlink" height="18.95px" width="27.35px" xmlns="http://www.w3.org/2000/svg">
  <g transform="matrix(1.0, 0.0, 0.0, 1.0, -116.35, -119.6)">
    <path d="M117.5 131.7 L117.5 131.7 Q117.5 134.05 121.55 135.85 L122.4 136.2 Q127.05 138.0 132.8 138.0 L134.2 137.95 Q138.45 137.5 138.45 134.25 138.3 133.45 138.15 132.65 L137.7 131.45 Q137.05 129.9 136.95 127.15 136.95 126.65 137.4 125.45 137.6 124.5 137.8 123.55 137.5 122.95 135.15 122.05 133.95 121.6 132.75 121.2 L130.15 120.4 125.6 119.6 Q125.35 119.6 124.4 120.7 123.35 121.9 120.8 125.25 117.5 129.8 117.5 131.7" fill="#f8fff0" fill-opacity="0.8" fill-rule="evenodd" stroke="none">
      <animate attributeName="fill" dur="2s" repeatCount="indefinite" values="#f8fff0;#f8fff1"/>
      <animate attributeName="fill-opacity" dur="2s" repeatCount="indefinite" values="0.8;0.8"/>
      <animate attributeName="d" dur="2s" repeatCount="indefinite" values="M117.5 131.7 L117.5 131.7 Q117.5 134.05 121.55 135.85 L122.4 136.2 Q127.05 138.0 132.8 138.0 L134.2 137.95 Q138.45 137.5 138.45 134.25 138.3 133.45 138.15 132.65 L137.7 131.45 Q137.05 129.9 136.95 127.15 136.95 126.65 137.4 125.45 137.6 124.5 137.8 123.55 137.5 122.95 135.15 122.05 133.95 121.6 132.75 121.2 L130.15 120.4 125.6 119.6 Q125.35 119.6 124.4 120.7 123.35 121.9 120.8 125.25 117.5 129.8 117.5 131.7;M116.35 133.0 L116.35 133.1 Q116.4 135.6 121.25 137.5 L122.3 137.85 Q128.1 138.05 133.9 138.2 L135.4 138.0 Q140.7 137.3 142.6 136.4 144.15 135.65 143.55 134.8 L142.65 133.8 Q141.3 132.65 138.25 131.65 137.45 131.1 136.65 130.6 135.9 129.85 135.8 128.45 135.8 127.95 136.7 125.05 136.7 124.45 134.45 123.5 L131.6 122.5 126.65 121.15 Q125.55 121.0 124.45 120.9 124.0 120.9 120.25 125.75 116.35 130.95 116.35 133.0"/>
    </path>
    <path d="M117.5 131.7 Q117.5 129.8 120.8 125.25 123.35 121.9 124.4 120.7 125.35 119.6 125.6 119.6 L130.15 120.4 132.75 121.2 Q133.95 121.6 135.15 122.05 137.5 122.95 137.8 123.55 137.6 124.5 137.4 125.45 136.95 126.65 136.95 127.15 137.05 129.9 137.7 131.45 L138.15 132.65 Q138.3 133.45 138.45 134.25 138.45 137.5 134.2 137.95 L132.8 138.0 Q127.05 138.0 122.4 136.2 L121.55 135.85 Q117.5 134.05 117.5 131.7 L117.5 131.7" fill="none" stroke="#000000" stroke-linecap="round" stroke-linejoin="round" stroke-opacity="0.0" stroke-width="1.0">
      <animate attributeName="stroke" dur="2s" repeatCount="indefinite" values="#000000;#000001"/>
      <animate attributeName="stroke-width" dur="2s" repeatCount="indefinite" values="0.0;0.0"/>
      <animate attributeName="fill-opacity" dur="2s" repeatCount="indefinite" values="0.0;0.0"/>
      <animate attributeName="d" dur="2s" repeatCount="indefinite" values="M117.5 131.7 Q117.5 129.8 120.8 125.25 123.35 121.9 124.4 120.7 125.35 119.6 125.6 119.6 L130.15 120.4 132.75 121.2 Q133.95 121.6 135.15 122.05 137.5 122.95 137.8 123.55 137.6 124.5 137.4 125.45 136.95 126.65 136.95 127.15 137.05 129.9 137.7 131.45 L138.15 132.65 Q138.3 133.45 138.45 134.25 138.45 137.5 134.2 137.95 L132.8 138.0 Q127.05 138.0 122.4 136.2 L121.55 135.85 Q117.5 134.05 117.5 131.7 L117.5 131.7;M116.35 133.0 Q116.35 130.95 120.25 125.75 124.0 120.9 124.45 120.9 125.55 121.0 126.65 121.15 L131.6 122.5 134.45 123.5 Q136.7 124.45 136.7 125.05 135.8 127.95 135.8 128.45 135.9 129.85 136.65 130.6 137.45 131.1 138.25 131.65 141.3 132.65 142.65 133.8 L143.55 134.8 Q144.15 135.65 142.6 136.4 140.7 137.3 135.4 138.0 L133.9 138.2 Q128.1 138.05 122.3 137.85 L121.25 137.5 Q116.4 135.6 116.35 133.1 L116.35 133.0"/>
    </path>
  </g>
</svg>
