<?xml version="1.0" encoding="UTF-8" standalone="no"?>
<svg xmlns:xlink="http://www.w3.org/1999/xlink" height="22.6px" width="36.6px" xmlns="http://www.w3.org/2000/svg">
  <g transform="matrix(1.0, 0.0, 0.0, 1.0, -116.35, -121.1)">
    <path d="M116.35 133.0 L116.35 133.0 116.35 133.0 Q116.35 135.15 119.85 136.85 L120.6 137.2 121.25 137.5 Q124.45 138.75 130.0 138.5 L134.2 138.15 135.4 138.0 Q143.35 136.9 143.7 135.4 L143.55 134.8 Q142.2 132.9 139.0 131.95 136.75 131.25 136.1 129.8 135.8 129.2 135.8 128.45 135.8 128.05 136.35 126.25 L136.7 125.05 Q136.7 124.55 135.15 123.8 L132.55 122.8 Q132.05 122.65 131.6 122.5 L130.55 122.15 127.9 121.4 123.95 121.2 122.8 122.5 Q121.1 124.7 119.45 126.85 116.35 131.15 116.35 133.0" fill="#f8fff0" fill-opacity="0.8" fill-rule="evenodd" stroke="none">
      <animate attributeName="fill" dur="2s" repeatCount="indefinite" values="#f8fff0;#f8fff1"/>
      <animate attributeName="fill-opacity" dur="2s" repeatCount="indefinite" values="0.8;0.8"/>
      <animate attributeName="d" dur="2s" repeatCount="indefinite" values="M116.35 133.0 L116.35 133.0 116.35 133.0 Q116.35 135.15 119.85 136.85 L120.6 137.2 121.25 137.5 Q124.45 138.75 130.0 138.5 L134.2 138.15 135.4 138.0 Q143.35 136.9 143.7 135.4 L143.55 134.8 Q142.2 132.9 139.0 131.95 136.75 131.25 136.1 129.8 135.8 129.2 135.8 128.45 135.8 128.05 136.35 126.25 L136.7 125.05 Q136.7 124.55 135.15 123.8 L132.55 122.8 Q132.05 122.65 131.6 122.5 L130.55 122.15 127.9 121.4 123.95 121.2 122.8 122.5 Q121.1 124.7 119.45 126.85 116.35 131.15 116.35 133.0;M119.7 135.5 L119.7 135.6 119.7 135.6 Q119.75 138.05 124.5 139.95 L125.55 140.3 126.4 140.55 Q130.5 141.5 137.0 140.8 L141.8 141.2 143.3 141.35 Q147.05 141.95 152.95 143.7 L152.85 143.2 Q151.8 138.85 149.15 137.75 146.3 136.7 145.2 135.85 144.5 135.4 143.85 135.0 142.6 134.4 141.35 133.8 L139.95 132.7 Q139.35 131.9 139.25 130.55 L139.75 127.35 Q139.7 127.0 138.9 126.55 L137.5 125.9 134.65 124.9 129.75 123.6 127.65 123.5 Q127.2 123.65 123.55 128.35 119.7 133.45 119.7 135.5"/>
    </path>
    <path d="M116.35 133.0 Q116.35 131.15 119.45 126.85 121.1 124.7 122.8 122.5 L123.95 121.2 127.9 121.4 130.55 122.15 131.6 122.5 Q132.05 122.65 132.55 122.8 L135.15 123.8 Q136.7 124.55 136.7 125.05 L136.35 126.25 Q135.8 128.05 135.8 128.45 135.8 129.2 136.1 129.8 136.75 131.25 139.0 131.95 142.2 132.9 143.55 134.8 L143.7 135.4 Q143.35 136.9 135.4 138.0 L134.2 138.15 130.0 138.5 Q124.45 138.75 121.25 137.5 L120.6 137.2 119.85 136.85 Q116.35 135.15 116.35 133.0 L116.35 133.0 116.35 133.0" fill="none" stroke="#000000" stroke-linecap="round" stroke-linejoin="round" stroke-opacity="0.0" stroke-width="1.0">
      <animate attributeName="stroke" dur="2s" repeatCount="indefinite" values="#000000;#000001"/>
      <animate attributeName="stroke-width" dur="2s" repeatCount="indefinite" values="0.0;0.0"/>
      <animate attributeName="fill-opacity" dur="2s" repeatCount="indefinite" values="0.0;0.0"/>
      <animate attributeName="d" dur="2s" repeatCount="indefinite" values="M116.35 133.0 Q116.35 131.15 119.45 126.85 121.1 124.7 122.8 122.5 L123.95 121.2 127.9 121.4 130.55 122.15 131.6 122.5 Q132.05 122.65 132.55 122.8 L135.15 123.8 Q136.7 124.55 136.7 125.05 L136.35 126.25 Q135.8 128.05 135.8 128.45 135.8 129.2 136.1 129.8 136.75 131.25 139.0 131.95 142.2 132.9 143.55 134.8 L143.7 135.4 Q143.35 136.9 135.4 138.0 L134.2 138.15 130.0 138.5 Q124.45 138.75 121.25 137.5 L120.6 137.2 119.85 136.85 Q116.35 135.15 116.35 133.0 L116.35 133.0 116.35 133.0;M119.7 135.5 Q119.7 133.45 123.55 128.35 127.2 123.65 127.65 123.5 L129.75 123.6 134.65 124.9 137.5 125.9 138.9 126.55 Q139.7 127.0 139.75 127.35 L139.25 130.55 Q139.35 131.9 139.95 132.7 L141.35 133.8 Q142.6 134.4 143.85 135.0 144.5 135.4 145.2 135.85 146.3 136.7 149.15 137.75 151.8 138.85 152.85 143.2 L152.95 143.7 Q147.05 141.95 143.3 141.35 L141.8 141.2 137.0 140.8 Q130.5 141.5 126.4 140.55 L125.55 140.3 124.5 139.95 Q119.75 138.05 119.7 135.6 L119.7 135.6 119.7 135.5"/>
    </path>
  </g>
</svg>
