<?xml version="1.0" encoding="UTF-8" standalone="no"?>
<svg xmlns:xlink="http://www.w3.org/1999/xlink" height="21.35px" width="15.5px" xmlns="http://www.w3.org/2000/svg">
  <g transform="matrix(1.0, 0.0, 0.0, 1.0, -138.55, -125.7)">
    <path d="M138.55 126.95 Q138.4 128.9 140.35 133.7 142.25 138.45 144.55 140.5 146.8 142.5 153.6 144.55 154.5 144.4 153.65 143.1 149.75 143.05 146.05 140.1 142.35 137.15 141.45 134.2 L140.05 128.9 Q139.55 126.5 138.85 125.7 L138.55 126.95" fill="#f8fff0" fill-opacity="0.8" fill-rule="evenodd" stroke="none">
      <animate attributeName="fill" dur="2s" repeatCount="indefinite" values="#f8fff0;#f8fff1"/>
      <animate attributeName="fill-opacity" dur="2s" repeatCount="indefinite" values="0.8;0.8"/>
      <animate attributeName="d" dur="2s" repeatCount="indefinite" values="M138.55 126.95 Q138.4 128.9 140.35 133.7 142.25 138.45 144.55 140.5 146.8 142.5 153.6 144.55 154.5 144.4 153.65 143.1 149.75 143.05 146.05 140.1 142.35 137.15 141.45 134.2 L140.05 128.9 Q139.55 126.5 138.85 125.7 L138.55 126.95;M138.55 126.95 Q138.4 128.9 140.35 133.7 142.5 139.0 144.65 144.25 147.05 150.0 149.65 143.9 153.85 145.05 153.65 143.1 149.75 143.05 146.05 140.1 142.35 137.15 141.45 134.2 L140.05 128.9 Q139.55 126.5 138.85 125.7 L138.55 126.95"/>
    </path>
    <path d="M138.55 126.95 L138.85 125.7 Q139.55 126.5 140.05 128.9 L141.45 134.2 Q142.35 137.15 146.05 140.1 149.75 143.05 153.65 143.1 154.5 144.4 153.6 144.55 146.8 142.5 144.55 140.5 142.25 138.45 140.35 133.7 138.4 128.9 138.55 126.95" fill="none" stroke="#000000" stroke-linecap="round" stroke-linejoin="round" stroke-opacity="0.0" stroke-width="1.0">
      <animate attributeName="stroke" dur="2s" repeatCount="indefinite" values="#000000;#000001"/>
      <animate attributeName="stroke-width" dur="2s" repeatCount="indefinite" values="0.0;0.0"/>
      <animate attributeName="fill-opacity" dur="2s" repeatCount="indefinite" values="0.0;0.0"/>
      <animate attributeName="d" dur="2s" repeatCount="indefinite" values="M138.55 126.95 L138.85 125.7 Q139.55 126.5 140.05 128.9 L141.45 134.2 Q142.35 137.15 146.05 140.1 149.75 143.05 153.65 143.1 154.5 144.4 153.6 144.55 146.8 142.5 144.55 140.5 142.25 138.45 140.35 133.7 138.4 128.9 138.55 126.95;M138.55 126.95 L138.85 125.7 Q139.55 126.5 140.05 128.9 L141.45 134.2 Q142.35 137.15 146.05 140.1 149.75 143.05 153.65 143.1 153.85 145.05 149.65 143.9 147.05 150.0 144.65 144.25 142.5 139.0 140.35 133.7 138.4 128.9 138.55 126.95"/>
    </path>
  </g>
</svg>
