<?xml version="1.0" encoding="UTF-8" standalone="no"?>
<svg xmlns:xlink="http://www.w3.org/1999/xlink" height="26.35px" width="16.05px" xmlns="http://www.w3.org/2000/svg">
  <g transform="matrix(1.0, 0.0, 0.0, 1.0, -138.5, -126.2)">
    <path d="M138.55 126.95 L138.55 127.15 138.55 127.85 138.95 129.75 139.3 130.8 139.7 131.95 139.9 132.55 140.35 133.7 141.3 136.0 Q141.8 137.25 142.3 138.5 142.45 138.85 142.6 139.2 142.8 139.65 143.0 140.1 L143.2 140.7 143.5 141.4 143.8 142.1 144.1 142.9 144.65 144.25 144.75 144.55 145.55 145.95 145.95 146.45 146.55 146.95 146.95 147.05 147.55 146.95 147.9 146.7 148.2 146.45 148.4 146.2 148.95 145.35 149.65 143.9 150.65 144.15 151.25 144.25 151.9 144.35 153.25 144.3 Q154.1 144.15 154.55 143.35 L153.65 143.1 151.05 142.7 150.55 142.6 149.75 142.3 148.25 141.6 147.55 141.2 146.75 140.65 146.05 140.1 145.55 139.7 144.45 138.7 143.45 137.6 143.0 137.1 142.65 136.6 142.3 136.0 141.7 134.8 141.45 134.2 141.35 133.8 141.15 133.2 140.8 132.0 140.5 130.85 140.3 130.2 140.15 129.6 140.05 128.9 Q139.85 128.0 138.75 126.2 L138.55 126.95" fill="#f8fff0" fill-opacity="0.8" fill-rule="evenodd" stroke="none">
      <animate attributeName="fill" dur="2s" repeatCount="indefinite" values="#f8fff0;#f8fff1"/>
      <animate attributeName="fill-opacity" dur="2s" repeatCount="indefinite" values="0.8;0.8"/>
      <animate attributeName="d" dur="2s" repeatCount="indefinite" values="M138.55 126.95 L138.55 127.15 138.55 127.85 138.95 129.75 139.3 130.8 139.7 131.95 139.9 132.55 140.35 133.7 141.3 136.0 Q141.8 137.25 142.3 138.5 142.45 138.85 142.6 139.2 142.8 139.65 143.0 140.1 L143.2 140.7 143.5 141.4 143.8 142.1 144.1 142.9 144.65 144.25 144.75 144.55 145.55 145.95 145.95 146.45 146.55 146.95 146.95 147.05 147.55 146.95 147.9 146.7 148.2 146.45 148.4 146.2 148.95 145.35 149.65 143.9 150.65 144.15 151.25 144.25 151.9 144.35 153.25 144.3 Q154.1 144.15 154.55 143.35 L153.65 143.1 151.05 142.7 150.55 142.6 149.75 142.3 148.25 141.6 147.55 141.2 146.75 140.65 146.05 140.1 145.55 139.7 144.45 138.7 143.45 137.6 143.0 137.1 142.65 136.6 142.3 136.0 141.7 134.8 141.45 134.2 141.35 133.8 141.15 133.2 140.8 132.0 140.5 130.85 140.3 130.2 140.15 129.6 140.05 128.9 Q139.85 128.0 138.75 126.2 L138.55 126.95;M138.55 127.8 L138.55 127.8 138.6 128.7 138.95 130.85 139.3 132.15 139.7 133.5 139.95 134.25 140.2 135.55 140.25 137.85 Q140.25 140.65 140.85 141.0 141.4 141.35 141.85 141.5 142.3 141.65 142.45 142.5 L142.65 143.3 142.85 144.2 143.05 145.05 143.15 146.0 143.45 147.65 143.45 147.65 143.6 149.35 143.7 150.15 143.8 151.0 143.95 151.55 144.35 152.3 144.75 152.55 145.05 152.3 145.4 152.05 146.15 150.9 147.25 149.25 147.8 148.2 148.15 147.6 148.4 146.9 149.0 145.45 Q149.45 144.65 149.85 143.9 L150.95 143.9 154.35 143.8 154.55 143.35 153.65 143.1 151.75 142.95 150.8 142.7 149.8 142.35 148.85 141.9 147.95 141.45 146.6 140.4 145.2 139.4 144.4 138.7 143.7 138.0 143.05 137.2 142.15 135.7 141.85 135.1 141.45 134.2 141.25 133.5 140.85 132.15 140.55 130.85 140.35 130.15 140.2 129.55 140.05 128.8 Q139.75 127.85 138.6 126.95 L138.55 127.8"/>
    </path>
    <path d="M138.55 126.95 L138.75 126.2 Q139.85 128.0 140.05 128.9 L140.15 129.6 140.3 130.2 140.5 130.85 140.8 132.0 141.15 133.2 141.35 133.8 141.45 134.2 141.7 134.8 142.3 136.0 142.65 136.6 143.0 137.1 143.45 137.6 144.45 138.7 145.55 139.7 146.05 140.1 146.75 140.65 147.55 141.2 148.25 141.6 149.75 142.3 150.55 142.6 151.05 142.7 153.65 143.1 154.55 143.35 Q154.1 144.15 153.25 144.3 L151.9 144.35 151.25 144.25 150.65 144.15 149.65 143.9 148.95 145.35 148.4 146.2 148.2 146.45 147.9 146.7 147.55 146.95 146.95 147.05 146.55 146.95 145.95 146.45 145.55 145.95 144.75 144.55 144.65 144.25 144.1 142.9 143.8 142.1 143.5 141.4 143.2 140.7 143.0 140.1 Q142.8 139.65 142.6 139.2 142.45 138.85 142.3 138.5 141.8 137.25 141.3 136.0 L140.35 133.7 139.9 132.55 139.7 131.95 139.3 130.8 138.95 129.75 138.55 127.85 138.55 127.15 138.55 126.95" fill="none" stroke="#000000" stroke-linecap="round" stroke-linejoin="round" stroke-opacity="0.0" stroke-width="1.0">
      <animate attributeName="stroke" dur="2s" repeatCount="indefinite" values="#000000;#000001"/>
      <animate attributeName="stroke-width" dur="2s" repeatCount="indefinite" values="0.0;0.0"/>
      <animate attributeName="fill-opacity" dur="2s" repeatCount="indefinite" values="0.0;0.0"/>
      <animate attributeName="d" dur="2s" repeatCount="indefinite" values="M138.55 126.95 L138.75 126.2 Q139.85 128.0 140.05 128.9 L140.15 129.6 140.3 130.2 140.5 130.85 140.8 132.0 141.15 133.2 141.35 133.8 141.45 134.2 141.7 134.8 142.3 136.0 142.65 136.6 143.0 137.1 143.45 137.6 144.45 138.7 145.55 139.7 146.05 140.1 146.75 140.65 147.55 141.2 148.25 141.6 149.75 142.3 150.55 142.6 151.05 142.7 153.65 143.1 154.55 143.35 Q154.1 144.15 153.25 144.3 L151.9 144.35 151.25 144.25 150.65 144.15 149.65 143.9 148.95 145.35 148.4 146.2 148.2 146.45 147.9 146.7 147.55 146.95 146.95 147.05 146.55 146.95 145.95 146.45 145.55 145.95 144.75 144.55 144.65 144.25 144.1 142.9 143.8 142.1 143.5 141.4 143.2 140.7 143.0 140.1 Q142.8 139.65 142.6 139.2 142.45 138.85 142.3 138.5 141.8 137.25 141.3 136.0 L140.35 133.7 139.9 132.55 139.7 131.95 139.3 130.8 138.95 129.75 138.55 127.85 138.55 127.15 138.55 126.95;M138.55 127.8 L138.6 126.95 Q139.75 127.85 140.05 128.8 L140.2 129.55 140.35 130.15 140.55 130.85 140.85 132.15 141.25 133.5 141.45 134.2 141.85 135.1 142.15 135.7 143.05 137.2 143.7 138.0 144.4 138.7 145.2 139.4 146.6 140.4 147.95 141.45 148.85 141.9 149.8 142.35 150.8 142.7 151.75 142.95 153.65 143.1 154.55 143.35 154.35 143.8 150.95 143.9 149.85 143.9 Q149.45 144.65 149.0 145.45 L148.4 146.9 148.15 147.6 147.8 148.2 147.25 149.25 146.15 150.9 145.4 152.05 145.05 152.3 144.75 152.55 144.35 152.3 143.95 151.55 143.8 151.0 143.7 150.15 143.6 149.35 143.45 147.65 143.45 147.65 143.15 146.0 143.05 145.05 142.85 144.2 142.65 143.3 142.45 142.5 Q142.3 141.65 141.85 141.5 141.4 141.35 140.85 141.0 140.25 140.65 140.25 137.85 L140.2 135.55 139.95 134.25 139.7 133.5 139.3 132.15 138.95 130.85 138.6 128.7 138.55 127.8 138.55 127.8"/>
    </path>
  </g>
</svg>
