<?xml version="1.0" encoding="UTF-8" standalone="no"?>
<svg xmlns:xlink="http://www.w3.org/1999/xlink" height="32.4px" width="16.0px" xmlns="http://www.w3.org/2000/svg">
  <g transform="matrix(1.0, 0.0, 0.0, 1.0, -138.55, -126.7)">
    <path d="M138.55 127.8 L138.55 127.8 138.6 128.7 138.95 130.85 139.3 132.15 139.7 133.5 139.95 134.25 140.2 136.25 140.25 137.85 Q140.25 140.65 140.85 141.0 141.4 141.35 141.85 141.5 142.3 141.65 142.45 142.4 L142.45 142.5 Q142.55 142.9 142.65 143.3 L142.85 144.2 143.05 145.05 143.15 146.0 143.45 147.65 143.6 149.35 143.6 149.75 143.7 150.15 143.8 151.0 143.95 151.55 144.35 152.3 144.75 152.55 Q144.9 152.4 145.05 152.3 L145.4 152.05 146.15 150.9 147.25 149.25 147.8 148.2 148.15 147.6 148.4 146.9 149.0 145.45 149.65 143.9 149.75 143.9 Q150.95 143.85 152.15 143.8 L153.55 143.8 154.35 143.8 154.55 143.35 153.65 143.1 151.75 142.95 150.8 142.7 150.6 142.6 149.8 142.35 148.95 141.9 147.95 141.45 146.6 140.4 145.2 139.4 144.4 138.7 143.7 138.0 143.05 137.2 142.15 135.7 141.7 134.8 141.45 134.2 141.25 133.5 140.85 132.15 140.55 130.85 140.35 130.15 140.2 129.55 140.05 128.9 139.4 126.95 Q139.15 126.3 138.6 127.25 L138.55 127.8" fill="#f8fff0" fill-opacity="0.8" fill-rule="evenodd" stroke="none">
      <animate attributeName="fill" dur="2s" repeatCount="indefinite" values="#f8fff0;#f8fff1"/>
      <animate attributeName="fill-opacity" dur="2s" repeatCount="indefinite" values="0.8;0.8"/>
      <animate attributeName="d" dur="2s" repeatCount="indefinite" values="M138.55 127.8 L138.55 127.8 138.6 128.7 138.95 130.85 139.3 132.15 139.7 133.5 139.95 134.25 140.2 136.25 140.25 137.85 Q140.25 140.65 140.85 141.0 141.4 141.35 141.85 141.5 142.3 141.65 142.45 142.4 L142.45 142.5 Q142.55 142.9 142.65 143.3 L142.85 144.2 143.05 145.05 143.15 146.0 143.45 147.65 143.6 149.35 143.6 149.75 143.7 150.15 143.8 151.0 143.95 151.55 144.35 152.3 144.75 152.55 Q144.9 152.4 145.05 152.3 L145.4 152.05 146.15 150.9 147.25 149.25 147.8 148.2 148.15 147.6 148.4 146.9 149.0 145.45 149.65 143.9 149.75 143.9 Q150.95 143.85 152.15 143.8 L153.55 143.8 154.35 143.8 154.55 143.35 153.65 143.1 151.75 142.95 150.8 142.7 150.6 142.6 149.8 142.35 148.95 141.9 147.95 141.45 146.6 140.4 145.2 139.4 144.4 138.7 143.7 138.0 143.05 137.2 142.15 135.7 141.7 134.8 141.45 134.2 141.25 133.5 140.85 132.15 140.55 130.85 140.35 130.15 140.2 129.55 140.05 128.9 139.4 126.95 Q139.15 126.3 138.6 127.25 L138.55 127.8;M138.55 127.8 L138.55 128.0 138.7 129.1 138.9 131.9 139.0 133.5 139.1 135.2 139.2 136.2 139.35 138.95 139.5 141.25 Q139.75 143.95 140.15 145.35 140.4 145.95 140.65 146.5 141.2 146.55 141.75 146.55 L141.75 146.55 Q142.4 145.95 142.55 146.7 L142.65 147.8 142.6 148.85 142.45 150.05 142.1 152.15 141.75 154.25 141.65 154.65 141.45 155.55 141.25 156.65 141.15 157.3 141.1 158.15 141.1 158.85 Q141.2 159.25 141.5 159.0 L141.75 158.7 142.45 157.5 143.5 155.45 144.0 154.3 144.35 153.5 144.75 152.55 145.6 150.75 146.25 148.65 146.25 148.45 Q146.5 146.45 147.05 145.5 L148.2 144.05 149.05 143.7 149.65 143.6 150.8 143.5 153.15 143.35 154.25 143.35 154.55 143.35 153.85 143.3 152.75 143.15 151.55 142.9 149.5 142.25 147.7 141.3 146.85 140.75 146.15 140.2 145.35 139.55 143.95 138.15 143.05 137.2 143.05 137.15 142.5 136.3 141.8 134.8 141.2 133.05 140.9 132.15 140.65 131.3 140.45 130.45 139.75 128.05 Q139.45 127.1 138.6 126.95 L138.55 127.8"/>
    </path>
    <path d="M138.55 127.8 L138.6 127.25 Q139.15 126.3 139.4 126.95 L140.05 128.9 140.2 129.55 140.35 130.15 140.55 130.85 140.85 132.15 141.25 133.5 141.45 134.2 141.7 134.8 142.15 135.7 143.05 137.2 143.7 138.0 144.4 138.7 145.2 139.4 146.6 140.4 147.95 141.45 148.95 141.9 149.8 142.35 150.6 142.6 150.8 142.7 151.75 142.95 153.65 143.1 154.55 143.35 154.35 143.8 153.55 143.8 152.15 143.8 Q150.95 143.85 149.75 143.9 L149.65 143.9 149.0 145.45 148.4 146.9 148.15 147.6 147.8 148.2 147.25 149.25 146.15 150.9 145.4 152.05 145.05 152.3 Q144.9 152.4 144.75 152.55 L144.35 152.3 143.95 151.55 143.8 151.0 143.7 150.15 143.6 149.75 143.6 149.35 143.45 147.65 143.15 146.0 143.05 145.05 142.85 144.2 142.65 143.3 Q142.55 142.9 142.45 142.5 L142.45 142.4 Q142.3 141.65 141.85 141.5 141.4 141.35 140.85 141.0 140.25 140.65 140.25 137.85 L140.2 136.25 139.95 134.25 139.7 133.5 139.3 132.15 138.95 130.85 138.6 128.7 138.55 127.8 138.55 127.8" fill="none" stroke="#000000" stroke-linecap="round" stroke-linejoin="round" stroke-opacity="0.0" stroke-width="1.0">
      <animate attributeName="stroke" dur="2s" repeatCount="indefinite" values="#000000;#000001"/>
      <animate attributeName="stroke-width" dur="2s" repeatCount="indefinite" values="0.0;0.0"/>
      <animate attributeName="fill-opacity" dur="2s" repeatCount="indefinite" values="0.0;0.0"/>
      <animate attributeName="d" dur="2s" repeatCount="indefinite" values="M138.55 127.8 L138.6 127.25 Q139.15 126.3 139.4 126.95 L140.05 128.9 140.2 129.55 140.35 130.15 140.55 130.85 140.85 132.15 141.25 133.5 141.45 134.2 141.7 134.8 142.15 135.7 143.05 137.2 143.7 138.0 144.4 138.7 145.2 139.4 146.6 140.4 147.95 141.45 148.95 141.9 149.8 142.35 150.6 142.6 150.8 142.7 151.75 142.95 153.65 143.1 154.55 143.35 154.35 143.8 153.55 143.8 152.15 143.8 Q150.95 143.85 149.75 143.9 L149.65 143.9 149.0 145.45 148.4 146.9 148.15 147.6 147.8 148.2 147.25 149.25 146.15 150.9 145.4 152.05 145.05 152.3 Q144.9 152.4 144.75 152.55 L144.35 152.3 143.95 151.55 143.8 151.0 143.7 150.15 143.6 149.75 143.6 149.35 143.45 147.65 143.15 146.0 143.05 145.05 142.85 144.2 142.65 143.3 Q142.55 142.9 142.45 142.5 L142.45 142.4 Q142.3 141.65 141.85 141.5 141.4 141.35 140.85 141.0 140.25 140.65 140.25 137.85 L140.2 136.25 139.95 134.25 139.7 133.5 139.3 132.15 138.95 130.85 138.6 128.7 138.55 127.8 138.55 127.8;M138.55 127.8 L138.6 126.95 Q139.45 127.1 139.75 128.05 L140.45 130.45 140.65 131.3 140.9 132.15 141.2 133.05 141.8 134.8 142.5 136.3 143.05 137.15 143.05 137.2 143.95 138.15 145.35 139.55 146.15 140.2 146.85 140.75 147.7 141.3 149.5 142.25 151.55 142.9 152.75 143.15 153.85 143.3 154.55 143.35 154.25 143.35 153.15 143.35 150.8 143.5 149.65 143.6 149.05 143.7 148.2 144.05 147.05 145.5 Q146.5 146.45 146.25 148.45 L146.25 148.65 145.6 150.75 144.75 152.55 144.35 153.5 144.0 154.3 143.5 155.45 142.45 157.5 141.75 158.7 141.5 159.0 Q141.2 159.25 141.1 158.85 L141.1 158.15 141.15 157.3 141.25 156.65 141.45 155.55 141.65 154.65 141.75 154.25 142.1 152.15 142.45 150.05 142.6 148.85 142.65 147.8 142.55 146.7 Q142.4 145.95 141.75 146.55 L141.75 146.55 Q141.2 146.55 140.65 146.5 140.4 145.95 140.15 145.35 139.75 143.95 139.5 141.25 L139.35 138.95 139.2 136.2 139.1 135.2 139.0 133.5 138.9 131.9 138.7 129.1 138.55 128.0 138.55 127.8"/>
    </path>
  </g>
</svg>
