<?xml version="1.0" encoding="UTF-8" standalone="no"?>
<svg xmlns:xlink="http://www.w3.org/1999/xlink" height="43.0px" width="16.4px" xmlns="http://www.w3.org/2000/svg">
  <g transform="matrix(1.0, 0.0, 0.0, 1.0, -138.15, -125.7)">
    <path d="M141.35 159.05 Q141.2 159.15 141.15 158.9 141.05 158.6 141.1 158.0 141.2 156.9 141.65 154.65 L142.25 151.45 Q143.25 145.1 141.75 146.55 L141.35 146.8 140.95 146.75 140.75 146.6 Q140.35 146.1 140.1 144.75 L140.0 144.35 139.9 143.85 Q139.85 143.5 139.8 143.2 L139.7 142.8 139.6 142.05 139.6 141.85 139.45 140.2 139.35 138.95 Q139.1 135.4 138.9 131.9 L138.55 127.8 138.6 126.95 138.85 125.7 Q139.6 127.15 140.7 131.5 141.4 134.25 142.35 136.05 L143.05 137.2 Q145.45 139.9 147.7 141.3 148.75 141.95 149.9 142.4 152.25 142.9 154.55 143.35 152.9 143.45 151.25 143.5 148.55 143.7 148.2 144.05 L147.05 145.5 Q146.5 146.45 146.0 149.65 L144.75 152.55 Q143.95 154.25 143.2 155.95 142.5 157.3 141.8 158.6 L141.35 159.05" fill="#f8fff0" fill-opacity="0.8" fill-rule="evenodd" stroke="none">
      <animate attributeName="fill" dur="2s" repeatCount="indefinite" values="#f8fff0;#f8fff1"/>
      <animate attributeName="fill-opacity" dur="2s" repeatCount="indefinite" values="0.8;0.8"/>
      <animate attributeName="d" dur="2s" repeatCount="indefinite" values="M141.35 159.05 Q141.2 159.15 141.15 158.9 141.05 158.6 141.1 158.0 141.2 156.9 141.65 154.65 L142.25 151.45 Q143.25 145.1 141.75 146.55 L141.35 146.8 140.95 146.75 140.75 146.6 Q140.35 146.1 140.1 144.75 L140.0 144.35 139.9 143.85 Q139.85 143.5 139.8 143.2 L139.7 142.8 139.6 142.05 139.6 141.85 139.45 140.2 139.35 138.95 Q139.1 135.4 138.9 131.9 L138.55 127.8 138.6 126.95 138.85 125.7 Q139.6 127.15 140.7 131.5 141.4 134.25 142.35 136.05 L143.05 137.2 Q145.45 139.9 147.7 141.3 148.75 141.95 149.9 142.4 152.25 142.9 154.55 143.35 152.9 143.45 151.25 143.5 148.55 143.7 148.2 144.05 L147.05 145.5 Q146.5 146.45 146.0 149.65 L144.75 152.55 Q143.95 154.25 143.2 155.95 142.5 157.3 141.8 158.6 L141.35 159.05;M139.4 168.55 Q139.15 168.4 138.9 168.3 138.15 167.8 138.15 167.05 138.85 164.6 139.55 162.15 L140.8 157.95 Q141.95 153.9 143.05 149.9 L143.4 148.2 143.35 147.4 143.2 147.35 Q142.25 148.3 141.3 149.25 L141.05 149.85 140.5 150.3 Q139.9 150.3 139.65 149.8 L139.5 149.25 139.7 148.2 139.8 148.05 139.25 145.65 139.0 143.85 Q138.45 139.85 138.45 134.35 L138.55 128.95 138.65 127.6 138.85 125.7 Q139.3 129.25 141.1 132.65 142.35 135.0 144.25 137.25 L145.3 138.4 Q148.1 141.4 151.05 142.6 152.45 143.2 153.85 143.4 149.9 143.6 148.1 144.6 147.1 145.5 146.0 147.55 145.4 149.05 144.8 150.55 L144.1 152.65 Q143.5 155.0 142.9 157.35 L142.1 161.2 Q141.5 164.25 141.5 165.6 141.5 167.55 140.15 168.7 L139.4 168.55"/>
    </path>
    <path d="M141.35 159.05 L141.8 158.6 Q142.5 157.3 143.2 155.95 143.95 154.25 144.75 152.55 L146.0 149.65 Q146.5 146.45 147.05 145.5 L148.2 144.05 Q148.55 143.7 151.25 143.5 152.9 143.45 154.55 143.35 152.25 142.9 149.9 142.4 148.75 141.95 147.7 141.3 145.45 139.9 143.05 137.2 L142.35 136.05 Q141.4 134.25 140.7 131.5 139.6 127.15 138.85 125.7 L138.6 126.95 138.55 127.8 138.9 131.9 Q139.1 135.4 139.35 138.95 L139.45 140.2 139.6 141.85 139.6 142.05 139.7 142.8 139.8 143.2 Q139.85 143.5 139.9 143.85 L140.0 144.35 140.1 144.75 Q140.35 146.1 140.75 146.6 L140.95 146.75 141.35 146.8 141.75 146.55 Q143.25 145.1 142.25 151.45 L141.65 154.65 Q141.2 156.9 141.1 158.0 141.05 158.6 141.15 158.9 141.2 159.15 141.35 159.05" fill="none" stroke="#000000" stroke-linecap="round" stroke-linejoin="round" stroke-opacity="0.0" stroke-width="1.0">
      <animate attributeName="stroke" dur="2s" repeatCount="indefinite" values="#000000;#000001"/>
      <animate attributeName="stroke-width" dur="2s" repeatCount="indefinite" values="0.0;0.0"/>
      <animate attributeName="fill-opacity" dur="2s" repeatCount="indefinite" values="0.0;0.0"/>
      <animate attributeName="d" dur="2s" repeatCount="indefinite" values="M141.35 159.05 L141.8 158.6 Q142.5 157.3 143.2 155.95 143.95 154.25 144.75 152.55 L146.0 149.65 Q146.5 146.45 147.05 145.5 L148.2 144.05 Q148.55 143.7 151.25 143.5 152.9 143.45 154.55 143.35 152.25 142.9 149.9 142.4 148.75 141.95 147.7 141.3 145.45 139.9 143.05 137.2 L142.35 136.05 Q141.4 134.25 140.7 131.5 139.6 127.15 138.85 125.7 L138.6 126.95 138.55 127.8 138.9 131.9 Q139.1 135.4 139.35 138.95 L139.45 140.2 139.6 141.85 139.6 142.05 139.7 142.8 139.8 143.2 Q139.85 143.5 139.9 143.85 L140.0 144.35 140.1 144.75 Q140.35 146.1 140.75 146.6 L140.95 146.75 141.35 146.8 141.75 146.55 Q143.25 145.1 142.25 151.45 L141.65 154.65 Q141.2 156.9 141.1 158.0 141.05 158.6 141.15 158.9 141.2 159.15 141.35 159.05;M139.4 168.55 L140.15 168.7 Q141.5 167.55 141.5 165.6 141.5 164.25 142.1 161.2 L142.9 157.35 Q143.5 155.0 144.1 152.65 L144.8 150.55 Q145.4 149.05 146.0 147.55 147.1 145.5 148.1 144.6 149.9 143.6 153.85 143.4 152.45 143.2 151.05 142.6 148.1 141.4 145.3 138.4 L144.25 137.25 Q142.35 135.0 141.1 132.65 139.3 129.25 138.85 125.7 L138.65 127.6 138.55 128.95 138.45 134.35 Q138.45 139.85 139.0 143.85 L139.25 145.65 139.8 148.05 139.7 148.2 139.5 149.25 139.65 149.8 Q139.9 150.3 140.5 150.3 L141.05 149.85 141.3 149.25 Q142.25 148.3 143.2 147.35 L143.35 147.4 143.4 148.2 143.05 149.9 Q141.95 153.9 140.8 157.95 L139.55 162.15 Q138.85 164.6 138.15 167.05 138.15 167.8 138.9 168.3 139.15 168.4 139.4 168.55"/>
    </path>
  </g>
</svg>
