<?xml version="1.0" encoding="UTF-8" standalone="no"?>
<svg xmlns:xlink="http://www.w3.org/1999/xlink" height="53.1px" width="18.45px" xmlns="http://www.w3.org/2000/svg">
  <g transform="matrix(1.0, 0.0, 0.0, 1.0, -135.4, -125.65)">
    <path d="M138.15 167.05 L138.15 167.05 Q138.15 167.8 139.0 168.35 139.5 168.7 140.05 168.7 L140.15 168.7 140.7 168.5 140.9 168.3 Q141.5 167.55 141.5 165.6 L141.55 164.75 Q141.75 162.45 142.9 157.35 L143.9 153.2 145.0 149.8 145.2 149.3 145.5 148.7 145.9 147.85 146.0 147.55 Q147.3 145.1 148.45 144.35 L148.85 144.1 Q149.6 143.75 151.8 143.55 L153.85 143.4 151.65 142.85 Q147.85 141.5 144.25 137.25 142.4 135.05 141.15 132.75 L140.95 132.35 140.65 131.75 139.85 129.85 Q139.6 129.15 139.4 128.45 139.25 127.85 139.1 127.25 L139.0 126.75 139.0 126.65 138.85 125.7 138.65 127.1 138.45 131.15 138.45 132.65 Q138.45 133.0 138.45 133.35 L138.45 134.05 138.45 134.35 138.45 134.75 Q138.45 139.0 138.8 142.45 L139.15 144.95 139.25 145.65 139.35 146.15 139.55 146.7 139.55 146.9 139.65 147.45 139.8 148.05 139.8 148.05 139.7 148.2 139.6 148.4 139.5 149.35 139.6 149.55 139.65 149.8 Q139.9 150.3 140.5 150.3 L141.05 149.85 141.2 149.65 141.3 149.25 141.7 148.85 143.35 147.4 143.15 149.4 141.8 154.45 140.8 157.95 138.15 167.05" fill="#f8fff0" fill-opacity="0.8" fill-rule="evenodd" stroke="none">
      <animate attributeName="fill" dur="2s" repeatCount="indefinite" values="#f8fff0;#f8fff1"/>
      <animate attributeName="fill-opacity" dur="2s" repeatCount="indefinite" values="0.8;0.8"/>
      <animate attributeName="d" dur="2s" repeatCount="indefinite" values="M138.15 167.05 L138.15 167.05 Q138.15 167.8 139.0 168.35 139.5 168.7 140.05 168.7 L140.15 168.7 140.7 168.5 140.9 168.3 Q141.5 167.55 141.5 165.6 L141.55 164.75 Q141.75 162.45 142.9 157.35 L143.9 153.2 145.0 149.8 145.2 149.3 145.5 148.7 145.9 147.85 146.0 147.55 Q147.3 145.1 148.45 144.35 L148.85 144.1 Q149.6 143.75 151.8 143.55 L153.85 143.4 151.65 142.85 Q147.85 141.5 144.25 137.25 142.4 135.05 141.15 132.75 L140.95 132.35 140.65 131.75 139.85 129.85 Q139.6 129.15 139.4 128.45 139.25 127.85 139.1 127.25 L139.0 126.75 139.0 126.65 138.85 125.7 138.65 127.1 138.45 131.15 138.45 132.65 Q138.45 133.0 138.45 133.35 L138.45 134.05 138.45 134.35 138.45 134.75 Q138.45 139.0 138.8 142.45 L139.15 144.95 139.25 145.65 139.35 146.15 139.55 146.7 139.55 146.9 139.65 147.45 139.8 148.05 139.8 148.05 139.7 148.2 139.6 148.4 139.5 149.35 139.6 149.55 139.65 149.8 Q139.9 150.3 140.5 150.3 L141.05 149.85 141.2 149.65 141.3 149.25 141.7 148.85 143.35 147.4 143.15 149.4 141.8 154.45 140.8 157.95 138.15 167.05;M135.4 175.95 L135.4 176.15 Q135.3 177.3 135.9 178.1 136.45 178.75 137.1 178.75 L137.3 178.75 137.9 178.1 138.0 177.9 Q138.55 176.85 138.9 174.65 L139.1 173.5 Q139.4 170.9 140.95 164.5 L142.2 159.5 143.35 155.25 143.8 154.75 144.05 153.85 144.1 152.65 144.2 152.25 Q145.1 149.25 146.0 147.55 L146.2 147.1 Q147.6 144.65 148.85 144.1 L151.25 143.6 153.85 143.4 Q148.85 142.7 144.25 137.25 141.75 134.25 140.35 131.15 L140.45 130.65 140.25 129.95 140.15 127.45 Q140.1 126.7 139.3 125.95 138.45 125.2 138.45 126.3 L138.65 126.8 138.7 126.95 138.65 128.15 138.55 129.75 137.4 134.65 137.05 136.6 Q137.05 137.15 137.55 137.15 L138.3 136.55 138.4 136.25 138.5 136.15 Q138.55 141.7 139.25 145.65 L139.95 148.7 139.75 149.7 139.6 150.2 139.45 150.9 139.5 151.15 139.85 151.4 140.45 151.05 140.5 150.95 140.7 150.75 140.75 150.6 141.05 149.6 141.15 149.4 141.35 149.2 Q141.8 148.75 142.2 148.35 L142.9 147.65 143.2 147.35 143.4 147.7 143.4 148.2 142.8 150.9 141.9 153.9 140.0 160.55 138.7 165.05 135.4 175.95"/>
    </path>
    <path d="M138.15 167.05 L140.8 157.95 141.8 154.45 143.15 149.4 143.35 147.4 141.7 148.85 141.3 149.25 141.2 149.65 141.05 149.85 140.5 150.3 Q139.9 150.3 139.65 149.8 L139.6 149.55 139.5 149.35 139.6 148.4 139.7 148.2 139.8 148.05 139.8 148.05 139.65 147.45 139.55 146.9 139.55 146.7 139.35 146.15 139.25 145.65 139.15 144.95 138.8 142.45 Q138.45 139.0 138.45 134.75 L138.45 134.35 138.45 134.05 138.45 133.35 Q138.45 133.0 138.45 132.65 L138.45 131.15 138.65 127.1 138.85 125.7 139.0 126.65 139.0 126.75 139.1 127.25 Q139.25 127.85 139.4 128.45 139.6 129.15 139.85 129.85 L140.65 131.75 140.95 132.35 141.15 132.75 Q142.4 135.05 144.25 137.25 147.85 141.5 151.65 142.85 L153.85 143.4 151.8 143.55 Q149.6 143.75 148.85 144.1 L148.45 144.35 Q147.3 145.1 146.0 147.55 L145.9 147.85 145.5 148.7 145.2 149.3 145.0 149.8 143.9 153.2 142.9 157.35 Q141.75 162.45 141.55 164.75 L141.5 165.6 Q141.5 167.55 140.9 168.3 L140.7 168.5 140.15 168.7 140.05 168.7 Q139.5 168.7 139.0 168.35 138.15 167.8 138.15 167.05 L138.15 167.05" fill="none" stroke="#000000" stroke-linecap="round" stroke-linejoin="round" stroke-opacity="0.0" stroke-width="1.0">
      <animate attributeName="stroke" dur="2s" repeatCount="indefinite" values="#000000;#000001"/>
      <animate attributeName="stroke-width" dur="2s" repeatCount="indefinite" values="0.0;0.0"/>
      <animate attributeName="fill-opacity" dur="2s" repeatCount="indefinite" values="0.0;0.0"/>
      <animate attributeName="d" dur="2s" repeatCount="indefinite" values="M138.15 167.05 L140.8 157.95 141.8 154.45 143.15 149.4 143.35 147.4 141.7 148.85 141.3 149.25 141.2 149.65 141.05 149.85 140.5 150.3 Q139.9 150.3 139.65 149.8 L139.6 149.55 139.5 149.35 139.6 148.4 139.7 148.2 139.8 148.05 139.8 148.05 139.65 147.45 139.55 146.9 139.55 146.7 139.35 146.15 139.25 145.65 139.15 144.95 138.8 142.45 Q138.45 139.0 138.45 134.75 L138.45 134.35 138.45 134.05 138.45 133.35 Q138.45 133.0 138.45 132.65 L138.45 131.15 138.65 127.1 138.85 125.7 139.0 126.65 139.0 126.75 139.1 127.25 Q139.25 127.85 139.4 128.45 139.6 129.15 139.85 129.85 L140.65 131.75 140.95 132.35 141.15 132.75 Q142.4 135.05 144.25 137.25 147.85 141.5 151.65 142.85 L153.85 143.4 151.8 143.55 Q149.6 143.75 148.85 144.1 L148.45 144.35 Q147.3 145.1 146.0 147.55 L145.9 147.85 145.5 148.7 145.2 149.3 145.0 149.8 143.9 153.2 142.9 157.35 Q141.75 162.45 141.55 164.75 L141.5 165.6 Q141.5 167.55 140.9 168.3 L140.7 168.5 140.15 168.7 140.05 168.7 Q139.5 168.7 139.0 168.35 138.15 167.8 138.15 167.05 L138.15 167.05;M135.4 175.95 L138.7 165.05 140.0 160.55 141.9 153.9 142.8 150.9 143.4 148.2 143.4 147.7 143.2 147.35 142.9 147.65 142.2 148.35 Q141.8 148.75 141.35 149.2 L141.15 149.4 141.05 149.6 140.75 150.6 140.7 150.75 140.5 150.95 140.45 151.05 139.85 151.4 139.5 151.15 139.45 150.9 139.6 150.2 139.75 149.7 139.95 148.7 139.25 145.65 Q138.55 141.7 138.5 136.15 L138.4 136.25 138.3 136.55 137.55 137.15 Q137.05 137.15 137.05 136.6 L137.4 134.65 138.55 129.75 138.65 128.15 138.7 126.95 138.65 126.8 138.45 126.3 Q138.45 125.2 139.3 125.95 140.1 126.7 140.15 127.45 L140.25 129.95 140.45 130.65 140.35 131.15 Q141.75 134.25 144.25 137.25 148.85 142.7 153.85 143.4 L151.25 143.6 148.85 144.1 Q147.6 144.65 146.2 147.1 L146.0 147.55 Q145.1 149.25 144.2 152.25 L144.1 152.65 144.05 153.85 143.8 154.75 143.35 155.25 142.2 159.5 140.95 164.5 Q139.4 170.9 139.1 173.5 L138.9 174.65 Q138.55 176.85 138.0 177.9 L137.9 178.1 137.3 178.75 137.1 178.75 Q136.45 178.75 135.9 178.1 135.3 177.3 135.4 176.15 L135.4 175.95"/>
    </path>
  </g>
</svg>
