<?xml version="1.0" encoding="UTF-8" standalone="no"?>
<svg xmlns:xlink="http://www.w3.org/1999/xlink" height="85.85px" width="28.8px" xmlns="http://www.w3.org/2000/svg">
  <g transform="matrix(1.0, 0.0, 0.0, 1.0, -127.1, -125.65)">
    <path d="M135.4 175.95 Q135.25 177.25 135.9 178.1 136.15 178.3 136.35 178.5 136.5 178.6 136.65 178.65 L137.1 178.75 Q137.5 178.75 137.9 178.1 138.65 176.8 139.1 173.5 L139.3 172.15 Q139.65 169.95 140.55 166.3 141.0 164.35 141.45 162.45 L142.2 159.5 142.7 157.65 143.35 155.25 143.8 154.75 144.05 153.85 144.1 152.65 Q144.65 151.0 145.2 149.35 L146.0 147.55 Q147.5 144.7 148.85 144.1 150.5 143.8 152.15 143.5 L153.85 143.4 151.7 142.85 Q150.15 142.3 148.7 141.3 147.2 140.05 145.75 138.85 145.0 138.05 144.25 137.25 L143.55 136.35 Q142.65 135.05 141.75 133.75 L140.35 131.15 140.45 130.65 140.25 129.95 140.15 127.45 Q140.1 126.7 139.3 125.95 138.45 125.2 138.45 126.3 L138.7 126.95 138.6 128.4 Q138.55 129.1 138.55 129.75 138.35 130.55 138.15 131.35 137.75 133.0 137.4 134.65 L137.25 135.6 Q137.2 135.8 137.15 136.0 L137.05 136.4 Q137.05 136.5 137.05 136.6 137.05 137.15 137.55 137.15 L138.3 136.55 138.5 136.15 Q138.6 138.15 138.65 140.1 138.7 140.7 138.75 141.25 138.8 141.8 138.85 142.3 L138.85 142.5 139.25 145.65 139.95 148.7 139.7 149.75 139.6 150.2 139.5 151.15 139.85 151.4 140.45 151.05 140.75 150.6 141.15 149.4 142.3 148.25 143.35 147.4 143.4 148.2 Q142.55 151.45 141.7 154.65 L140.0 160.55 139.1 163.55 135.4 175.95" fill="#f8fff0" fill-opacity="0.8" fill-rule="evenodd" stroke="none">
      <animate attributeName="fill" dur="2s" repeatCount="indefinite" values="#f8fff0;#f8fff1"/>
      <animate attributeName="fill-opacity" dur="2s" repeatCount="indefinite" values="0.8;0.8"/>
      <animate attributeName="d" dur="2s" repeatCount="indefinite" values="M135.4 175.95 Q135.25 177.25 135.9 178.1 136.15 178.3 136.35 178.5 136.5 178.6 136.65 178.65 L137.1 178.75 Q137.5 178.75 137.9 178.1 138.65 176.8 139.1 173.5 L139.3 172.15 Q139.65 169.95 140.55 166.3 141.0 164.35 141.45 162.45 L142.2 159.5 142.7 157.65 143.35 155.25 143.8 154.75 144.05 153.85 144.1 152.65 Q144.65 151.0 145.2 149.35 L146.0 147.55 Q147.5 144.7 148.85 144.1 150.5 143.8 152.15 143.5 L153.85 143.4 151.7 142.85 Q150.15 142.3 148.7 141.3 147.2 140.05 145.75 138.85 145.0 138.05 144.25 137.25 L143.55 136.35 Q142.65 135.05 141.75 133.75 L140.35 131.15 140.45 130.65 140.25 129.95 140.15 127.45 Q140.1 126.7 139.3 125.95 138.45 125.2 138.45 126.3 L138.7 126.95 138.6 128.4 Q138.55 129.1 138.55 129.75 138.35 130.55 138.15 131.35 137.75 133.0 137.4 134.65 L137.25 135.6 Q137.2 135.8 137.15 136.0 L137.05 136.4 Q137.05 136.5 137.05 136.6 137.05 137.15 137.55 137.15 L138.3 136.55 138.5 136.15 Q138.6 138.15 138.65 140.1 138.7 140.7 138.75 141.25 138.8 141.8 138.85 142.3 L138.85 142.5 139.25 145.65 139.95 148.7 139.7 149.75 139.6 150.2 139.5 151.15 139.85 151.4 140.45 151.05 140.75 150.6 141.15 149.4 142.3 148.25 143.35 147.4 143.4 148.2 Q142.55 151.45 141.7 154.65 L140.0 160.55 139.1 163.55 135.4 175.95;M128.3 204.1 Q126.5 209.2 127.35 210.8 127.75 211.5 128.7 211.5 129.7 211.5 129.1 211.35 L129.5 210.8 Q129.75 210.3 130.0 209.8 131.0 206.85 131.95 203.95 L132.55 201.6 Q134.4 194.35 134.4 193.15 134.45 191.0 135.9 187.75 L137.4 183.8 138.05 181.2 138.7 178.0 138.9 177.15 139.2 176.1 139.65 174.45 Q140.7 170.7 140.7 169.45 L140.9 166.95 Q141.25 163.85 142.4 160.9 143.25 158.65 144.55 156.55 L146.15 154.6 148.25 151.9 Q148.25 151.4 151.65 148.9 155.0 146.35 155.8 145.1 156.4 144.15 154.05 143.2 L152.5 142.7 Q148.4 141.5 149.4 140.6 L146.05 138.1 145.4 137.5 144.45 136.7 142.15 134.15 Q141.5 133.1 140.85 132.1 140.4 131.15 140.25 130.25 L140.25 129.5 140.15 127.6 Q140.1 126.5 139.2 126.05 138.25 127.05 138.05 127.95 137.8 129.05 137.75 132.45 L137.75 133.5 Q137.75 134.1 137.9 134.15 L138.15 134.05 Q138.25 133.95 138.3 133.95 138.25 134.55 138.2 135.15 L138.15 136.35 138.1 137.15 Q138.0 140.95 138.55 142.7 138.95 144.0 139.55 144.35 140.4 143.8 141.05 143.55 L141.15 143.9 140.7 147.95 140.2 151.95 140.05 153.3 139.95 154.3 139.8 155.5 139.7 156.35 139.6 157.4 139.5 158.25 139.3 160.2 139.1 162.75 139.05 164.55 138.9 165.85 Q138.5 169.45 136.85 175.15 L134.6 183.2 133.75 187.7 128.3 204.1"/>
    </path>
    <path d="M135.4 175.95 L139.1 163.55 140.0 160.55 141.7 154.65 Q142.55 151.45 143.4 148.2 L143.35 147.4 142.3 148.25 141.15 149.4 140.75 150.6 140.45 151.05 139.85 151.4 139.5 151.15 139.6 150.2 139.7 149.75 139.95 148.7 139.25 145.65 138.85 142.5 138.85 142.3 Q138.8 141.8 138.75 141.25 138.7 140.7 138.65 140.1 138.6 138.15 138.5 136.15 L138.3 136.55 137.55 137.15 Q137.05 137.15 137.05 136.6 137.05 136.5 137.05 136.4 L137.15 136.0 Q137.2 135.8 137.25 135.6 L137.4 134.65 Q137.75 133.0 138.15 131.35 138.35 130.55 138.55 129.75 138.55 129.1 138.6 128.4 L138.7 126.95 138.45 126.3 Q138.45 125.2 139.3 125.95 140.1 126.7 140.15 127.45 L140.25 129.95 140.45 130.65 140.35 131.15 141.75 133.75 Q142.65 135.05 143.55 136.35 L144.25 137.25 Q145.0 138.05 145.75 138.85 147.2 140.05 148.7 141.3 150.15 142.3 151.7 142.85 L153.85 143.4 152.15 143.5 Q150.5 143.8 148.85 144.1 147.5 144.7 146.0 147.55 L145.2 149.35 Q144.65 151.0 144.1 152.65 L144.05 153.85 143.8 154.75 143.35 155.25 142.7 157.65 142.2 159.5 141.45 162.45 Q141.0 164.35 140.55 166.3 139.65 169.95 139.3 172.15 L139.1 173.5 Q138.65 176.8 137.9 178.1 137.5 178.75 137.1 178.75 L136.65 178.65 Q136.5 178.6 136.35 178.5 136.15 178.3 135.9 178.1 135.25 177.25 135.4 175.95" fill="none" stroke="#000000" stroke-linecap="round" stroke-linejoin="round" stroke-opacity="0.0" stroke-width="1.0">
      <animate attributeName="stroke" dur="2s" repeatCount="indefinite" values="#000000;#000001"/>
      <animate attributeName="stroke-width" dur="2s" repeatCount="indefinite" values="0.0;0.0"/>
      <animate attributeName="fill-opacity" dur="2s" repeatCount="indefinite" values="0.0;0.0"/>
      <animate attributeName="d" dur="2s" repeatCount="indefinite" values="M135.4 175.95 L139.1 163.55 140.0 160.55 141.7 154.65 Q142.55 151.45 143.4 148.2 L143.35 147.4 142.3 148.25 141.15 149.4 140.75 150.6 140.45 151.05 139.85 151.4 139.5 151.15 139.6 150.2 139.7 149.75 139.95 148.7 139.25 145.65 138.85 142.5 138.85 142.3 Q138.8 141.8 138.75 141.25 138.7 140.7 138.65 140.1 138.6 138.15 138.5 136.15 L138.3 136.55 137.55 137.15 Q137.05 137.15 137.05 136.6 137.05 136.5 137.05 136.4 L137.15 136.0 Q137.2 135.8 137.25 135.6 L137.4 134.65 Q137.75 133.0 138.15 131.35 138.35 130.55 138.55 129.75 138.55 129.1 138.6 128.4 L138.7 126.95 138.45 126.3 Q138.45 125.2 139.3 125.95 140.1 126.7 140.15 127.45 L140.25 129.95 140.45 130.65 140.35 131.15 141.75 133.75 Q142.65 135.05 143.55 136.35 L144.25 137.25 Q145.0 138.05 145.75 138.85 147.2 140.05 148.7 141.3 150.15 142.3 151.7 142.85 L153.85 143.4 152.15 143.5 Q150.5 143.8 148.85 144.1 147.5 144.7 146.0 147.55 L145.2 149.35 Q144.65 151.0 144.1 152.65 L144.05 153.85 143.8 154.75 143.35 155.25 142.7 157.65 142.2 159.5 141.45 162.45 Q141.0 164.35 140.55 166.3 139.65 169.95 139.3 172.15 L139.1 173.5 Q138.65 176.8 137.9 178.1 137.5 178.75 137.1 178.75 L136.65 178.65 Q136.5 178.6 136.35 178.5 136.15 178.3 135.9 178.1 135.25 177.25 135.4 175.95;M128.3 204.1 L133.75 187.7 134.6 183.2 136.85 175.15 Q138.5 169.45 138.9 165.85 L139.05 164.55 139.1 162.75 139.3 160.2 139.5 158.25 139.6 157.4 139.7 156.35 139.8 155.5 139.95 154.3 140.05 153.3 140.2 151.95 140.7 147.95 141.15 143.9 141.05 143.55 Q140.4 143.8 139.55 144.35 138.95 144.0 138.55 142.7 138.0 140.95 138.1 137.15 L138.15 136.35 138.2 135.15 Q138.25 134.55 138.3 133.95 138.25 133.95 138.15 134.05 L137.9 134.15 Q137.75 134.1 137.75 133.5 L137.75 132.45 Q137.8 129.05 138.05 127.95 138.25 127.05 139.2 126.05 140.1 126.5 140.15 127.6 L140.25 129.5 140.25 130.25 Q140.4 131.15 140.85 132.1 141.5 133.1 142.15 134.15 L144.45 136.7 145.4 137.5 146.05 138.1 149.4 140.6 Q148.4 141.5 152.5 142.7 L154.05 143.2 Q156.4 144.15 155.8 145.1 155.0 146.35 151.65 148.9 148.25 151.4 148.25 151.9 L146.15 154.6 144.55 156.55 Q143.25 158.65 142.4 160.9 141.25 163.85 140.9 166.95 L140.7 169.45 Q140.7 170.7 139.65 174.45 L139.2 176.1 138.9 177.15 138.7 178.0 138.05 181.2 137.4 183.8 135.9 187.75 Q134.45 191.0 134.4 193.15 134.4 194.35 132.55 201.6 L131.95 203.95 Q131.0 206.85 130.0 209.8 129.75 210.3 129.5 210.8 L129.1 211.35 Q129.7 211.5 128.7 211.5 127.75 211.5 127.35 210.8 126.5 209.2 128.3 204.1"/>
    </path>
  </g>
</svg>
