<?xml version="1.0" encoding="UTF-8" standalone="no"?>
<svg xmlns:xlink="http://www.w3.org/1999/xlink" height="117.0px" width="35.85px" xmlns="http://www.w3.org/2000/svg">
  <g transform="matrix(1.0, 0.0, 0.0, 1.0, -120.35, -125.7)">
    <path d="M129.1 211.35 Q129.7 211.5 128.7 211.5 L128.7 211.5 Q127.75 211.5 127.35 210.75 126.55 209.2 128.2 204.3 L128.3 204.1 130.35 198.0 130.85 196.5 Q131.0 196.1 131.15 195.7 131.3 195.25 131.45 194.8 L131.95 193.35 133.75 187.7 Q134.2 184.05 136.85 175.15 138.8 168.55 139.05 164.0 L139.1 162.75 Q139.4 159.45 139.7 156.15 139.9 154.7 140.05 153.3 L140.05 153.3 140.15 152.2 140.25 151.25 140.4 149.75 140.55 148.4 140.65 147.9 Q140.85 146.45 141.05 145.0 141.1 144.6 141.15 144.2 L141.15 143.9 141.05 143.55 Q140.4 143.8 139.55 144.35 138.95 144.0 138.55 142.7 L138.4 142.0 Q138.05 140.2 138.15 137.0 138.2 136.5 138.2 136.05 L138.2 135.65 138.3 133.85 138.15 134.05 137.9 134.15 Q137.75 134.1 137.75 133.5 137.75 130.7 137.9 129.2 L137.95 128.55 138.05 127.95 Q138.25 127.1 139.2 126.05 140.1 126.5 140.15 127.6 L140.15 128.35 140.25 130.25 Q140.65 132.35 142.6 134.7 144.4 136.5 146.2 138.25 L146.9 138.75 Q148.15 139.7 149.4 140.6 148.45 141.45 151.95 142.5 L152.5 142.7 Q156.6 143.85 155.8 145.1 L154.65 146.4 Q153.3 147.55 151.95 148.7 L151.65 148.9 Q148.25 151.4 148.25 151.9 L146.85 153.7 144.55 156.55 Q142.2 160.3 141.3 164.4 140.75 166.85 140.7 169.45 140.7 170.7 139.65 174.45 L138.05 181.2 137.9 182.05 Q137.35 184.55 135.9 187.75 L134.75 190.8 134.6 191.55 Q134.4 192.4 134.35 193.7 133.4 197.8 132.45 201.9 L130.8 207.7 Q129.85 210.55 129.1 211.35" fill="#f8fff0" fill-opacity="0.8" fill-rule="evenodd" stroke="none">
      <animate attributeName="fill" dur="2s" repeatCount="indefinite" values="#f8fff0;#f8fff1"/>
      <animate attributeName="fill-opacity" dur="2s" repeatCount="indefinite" values="0.8;0.8"/>
      <animate attributeName="d" dur="2s" repeatCount="indefinite" values="M129.1 211.35 Q129.7 211.5 128.7 211.5 L128.7 211.5 Q127.75 211.5 127.35 210.75 126.55 209.2 128.2 204.3 L128.3 204.1 130.35 198.0 130.85 196.5 Q131.0 196.1 131.15 195.7 131.3 195.25 131.45 194.8 L131.95 193.35 133.75 187.7 Q134.2 184.05 136.85 175.15 138.8 168.55 139.05 164.0 L139.1 162.75 Q139.4 159.45 139.7 156.15 139.9 154.7 140.05 153.3 L140.05 153.3 140.15 152.2 140.25 151.25 140.4 149.75 140.55 148.4 140.65 147.9 Q140.85 146.45 141.05 145.0 141.1 144.6 141.15 144.2 L141.15 143.9 141.05 143.55 Q140.4 143.8 139.55 144.35 138.95 144.0 138.55 142.7 L138.4 142.0 Q138.05 140.2 138.15 137.0 138.2 136.5 138.2 136.05 L138.2 135.65 138.3 133.85 138.15 134.05 137.9 134.15 Q137.75 134.1 137.75 133.5 137.75 130.7 137.9 129.2 L137.95 128.55 138.05 127.95 Q138.25 127.1 139.2 126.05 140.1 126.5 140.15 127.6 L140.15 128.35 140.25 130.25 Q140.65 132.35 142.6 134.7 144.4 136.5 146.2 138.25 L146.9 138.75 Q148.15 139.7 149.4 140.6 148.45 141.45 151.95 142.5 L152.5 142.7 Q156.6 143.85 155.8 145.1 L154.65 146.4 Q153.3 147.55 151.95 148.7 L151.65 148.9 Q148.25 151.4 148.25 151.9 L146.85 153.7 144.55 156.55 Q142.2 160.3 141.3 164.4 140.75 166.85 140.7 169.45 140.7 170.7 139.65 174.45 L138.05 181.2 137.9 182.05 Q137.35 184.55 135.9 187.75 L134.75 190.8 134.6 191.55 Q134.4 192.4 134.35 193.7 133.4 197.8 132.45 201.9 L130.8 207.7 Q129.85 210.55 129.1 211.35;M122.05 242.7 Q121.6 242.45 121.15 242.2 L120.65 241.6 Q120.35 241.05 120.35 239.9 120.35 239.3 123.0 230.7 L123.1 230.4 126.0 221.0 126.25 218.85 Q126.3 217.9 126.9 217.9 127.55 217.9 127.6 216.7 L127.55 214.7 129.55 206.6 Q131.9 197.1 134.25 187.65 136.2 179.45 138.15 171.3 L138.55 169.45 Q140.2 162.8 141.5 159.55 142.1 158.05 142.1 155.2 L142.1 155.0 142.3 153.55 142.45 152.05 142.9 149.85 143.4 147.7 143.2 147.35 Q140.9 149.65 140.7 150.5 140.65 151.0 139.85 151.4 L139.65 151.25 139.65 150.7 Q139.55 149.4 139.5 148.15 139.35 146.55 139.25 145.0 L139.15 143.85 Q138.8 140.0 138.5 136.15 138.0 137.15 137.2 137.15 L137.05 136.6 137.8 134.35 138.0 133.75 138.05 133.55 Q138.2 132.95 138.35 132.4 139.15 128.7 138.45 126.3 L138.7 125.7 139.25 126.35 Q140.0 127.4 140.5 129.65 140.75 130.75 140.95 131.85 L141.15 132.75 142.2 134.75 Q143.7 136.9 146.6 139.55 150.9 143.55 152.65 143.2 L153.85 143.4 Q156.9 142.05 156.0 145.3 155.05 147.5 154.15 149.7 L153.65 150.55 Q151.65 154.35 150.1 155.55 L147.6 155.65 Q145.25 153.3 144.35 156.55 L144.15 157.1 Q143.3 159.8 142.5 162.5 L141.45 165.6 140.2 170.5 Q138.75 175.75 137.3 181.0 136.55 184.15 135.8 187.25 135.05 190.7 134.35 194.1 L132.75 202.4 132.55 203.5 Q131.35 207.3 130.2 211.1 L128.9 215.25 129.15 216.4 Q128.85 217.9 128.6 219.35 127.35 222.8 125.5 230.4 L123.9 237.45 Q122.9 241.7 122.05 242.7"/>
    </path>
    <path d="M129.1 211.35 Q129.85 210.55 130.8 207.7 L132.45 201.9 Q133.4 197.8 134.35 193.7 134.4 192.4 134.6 191.55 L134.75 190.8 135.9 187.75 Q137.35 184.55 137.9 182.05 L138.05 181.2 139.65 174.45 Q140.7 170.7 140.7 169.45 140.75 166.85 141.3 164.4 142.2 160.3 144.55 156.55 L146.85 153.7 148.25 151.9 Q148.25 151.4 151.65 148.9 L151.95 148.7 Q153.3 147.55 154.65 146.4 L155.8 145.1 Q156.6 143.85 152.5 142.7 L151.95 142.5 Q148.45 141.45 149.4 140.6 148.15 139.7 146.9 138.75 L146.2 138.25 Q144.4 136.5 142.6 134.7 140.65 132.35 140.25 130.25 L140.15 128.35 140.15 127.6 Q140.1 126.5 139.2 126.05 138.25 127.1 138.05 127.95 L137.95 128.55 137.9 129.2 Q137.75 130.7 137.75 133.5 137.75 134.1 137.9 134.15 L138.15 134.05 138.3 133.85 138.2 135.65 138.2 136.05 Q138.2 136.5 138.15 137.0 138.05 140.2 138.4 142.0 L138.55 142.7 Q138.95 144.0 139.55 144.35 140.4 143.8 141.05 143.55 L141.15 143.9 141.15 144.2 Q141.1 144.6 141.05 145.0 140.85 146.45 140.65 147.9 L140.55 148.4 140.4 149.75 140.25 151.25 140.15 152.2 140.05 153.3 140.05 153.3 Q139.9 154.7 139.7 156.15 139.4 159.45 139.1 162.75 L139.05 164.0 Q138.8 168.55 136.85 175.15 134.2 184.05 133.75 187.7 L131.95 193.35 131.45 194.8 Q131.3 195.25 131.15 195.7 131.0 196.1 130.85 196.5 L130.35 198.0 128.3 204.1 128.2 204.3 Q126.55 209.2 127.35 210.75 127.75 211.5 128.7 211.5 L128.7 211.5 Q129.7 211.5 129.1 211.35" fill="none" stroke="#000000" stroke-linecap="round" stroke-linejoin="round" stroke-opacity="0.0" stroke-width="1.0">
      <animate attributeName="stroke" dur="2s" repeatCount="indefinite" values="#000000;#000001"/>
      <animate attributeName="stroke-width" dur="2s" repeatCount="indefinite" values="0.0;0.0"/>
      <animate attributeName="fill-opacity" dur="2s" repeatCount="indefinite" values="0.0;0.0"/>
      <animate attributeName="d" dur="2s" repeatCount="indefinite" values="M129.1 211.35 Q129.85 210.55 130.8 207.7 L132.45 201.9 Q133.4 197.8 134.35 193.7 134.4 192.4 134.6 191.55 L134.75 190.8 135.9 187.75 Q137.35 184.55 137.9 182.05 L138.05 181.2 139.65 174.45 Q140.7 170.7 140.7 169.45 140.75 166.85 141.3 164.4 142.2 160.3 144.55 156.55 L146.85 153.7 148.25 151.9 Q148.25 151.4 151.65 148.9 L151.95 148.7 Q153.3 147.55 154.65 146.4 L155.8 145.1 Q156.6 143.85 152.5 142.7 L151.95 142.5 Q148.45 141.45 149.4 140.6 148.15 139.7 146.9 138.75 L146.2 138.25 Q144.4 136.5 142.6 134.7 140.65 132.35 140.25 130.25 L140.15 128.35 140.15 127.6 Q140.1 126.5 139.2 126.05 138.25 127.1 138.05 127.95 L137.95 128.55 137.9 129.2 Q137.75 130.7 137.75 133.5 137.75 134.1 137.9 134.15 L138.15 134.05 138.3 133.85 138.2 135.65 138.2 136.05 Q138.2 136.5 138.15 137.0 138.05 140.2 138.4 142.0 L138.55 142.7 Q138.95 144.0 139.55 144.35 140.4 143.8 141.05 143.55 L141.15 143.9 141.15 144.2 Q141.1 144.6 141.05 145.0 140.85 146.45 140.65 147.9 L140.55 148.4 140.4 149.75 140.25 151.25 140.15 152.2 140.05 153.3 140.05 153.3 Q139.9 154.7 139.7 156.15 139.4 159.45 139.1 162.75 L139.05 164.0 Q138.8 168.55 136.85 175.15 134.2 184.05 133.75 187.7 L131.95 193.35 131.45 194.8 Q131.3 195.25 131.15 195.7 131.0 196.1 130.85 196.5 L130.35 198.0 128.3 204.1 128.2 204.3 Q126.55 209.2 127.35 210.75 127.75 211.5 128.7 211.5 L128.7 211.5 Q129.7 211.5 129.1 211.35;M122.05 242.7 Q122.9 241.7 123.9 237.45 L125.5 230.4 Q127.35 222.8 128.6 219.35 128.85 217.9 129.15 216.4 L128.9 215.25 130.2 211.1 Q131.35 207.3 132.55 203.5 L132.75 202.4 134.35 194.1 Q135.05 190.7 135.8 187.25 136.55 184.15 137.3 181.0 138.75 175.75 140.2 170.5 L141.45 165.6 142.5 162.5 Q143.3 159.8 144.15 157.1 L144.35 156.55 Q145.25 153.3 147.6 155.65 L150.1 155.55 Q151.65 154.35 153.65 150.55 L154.15 149.7 Q155.05 147.5 156.0 145.3 156.9 142.05 153.85 143.4 L152.65 143.2 Q150.9 143.55 146.6 139.55 143.7 136.9 142.2 134.75 L141.15 132.75 140.95 131.85 Q140.75 130.75 140.5 129.65 140.0 127.4 139.25 126.35 L138.7 125.7 138.45 126.3 Q139.15 128.7 138.35 132.4 138.2 132.95 138.05 133.55 L138.0 133.75 137.8 134.35 137.05 136.6 137.2 137.15 Q138.0 137.15 138.5 136.15 138.8 140.0 139.15 143.85 L139.25 145.0 Q139.35 146.55 139.5 148.15 139.55 149.4 139.65 150.7 L139.65 151.25 139.85 151.4 Q140.65 151.0 140.7 150.5 140.9 149.65 143.2 147.35 L143.4 147.7 142.9 149.85 142.45 152.05 142.3 153.55 142.1 155.0 142.1 155.2 Q142.1 158.05 141.5 159.55 140.2 162.8 138.55 169.45 L138.15 171.3 Q136.2 179.45 134.25 187.65 131.9 197.1 129.55 206.6 L127.55 214.7 127.6 216.7 Q127.55 217.9 126.9 217.9 126.3 217.9 126.25 218.85 L126.0 221.0 123.1 230.4 123.0 230.7 Q120.35 239.3 120.35 239.9 120.35 241.05 120.65 241.6 L121.15 242.2 Q121.6 242.45 122.05 242.7"/>
    </path>
  </g>
</svg>
