<?xml version="1.0" encoding="UTF-8" standalone="no"?>
<svg xmlns:xlink="http://www.w3.org/1999/xlink" height="29.1px" width="11.4px" xmlns="http://www.w3.org/2000/svg">
  <g transform="matrix(1.0, 0.0, 0.0, 1.0, 4.8, 17.15)">
    <path d="M-4.8 -5.35 Q-3.4 -2.65 -2.0 0.0 -1.45 0.8 -0.35 -1.35 -1.25 -1.35 -2.2 -4.55 -3.15 -7.85 -1.7 -9.85 -0.3 -11.85 0.85 -15.55 2.0 -19.25 -1.4 -14.45 -4.85 -9.7 -4.8 -5.35" fill="#fff9f3" fill-opacity="0.29803923" fill-rule="evenodd" stroke="none">
      <animate attributeName="fill" dur="2s" repeatCount="indefinite" values="#fff9f3;#fff9f4"/>
      <animate attributeName="fill-opacity" dur="2s" repeatCount="indefinite" values="0.29803923;0.29803923"/>
      <animate attributeName="d" dur="2s" repeatCount="indefinite" values="M-4.8 -5.35 Q-3.4 -2.65 -2.0 0.0 -1.45 0.8 -0.35 -1.35 -1.25 -1.35 -2.2 -4.55 -3.15 -7.85 -1.7 -9.85 -0.3 -11.85 0.85 -15.55 2.0 -19.25 -1.4 -14.45 -4.85 -9.7 -4.8 -5.35;M0.05 -1.55 Q-1.1 4.2 0.75 8.15 4.7 11.3 6.5 11.95 6.75 11.7 6.5 9.9 5.65 10.3 3.45 7.75 1.2 5.15 1.7 2.75 2.15 0.35 1.65 -3.5 1.15 -7.35 0.05 -1.55"/>
    </path>
    <path d="M-4.8 -5.35 Q-4.85 -9.7 -1.4 -14.45 2.0 -19.25 0.85 -15.55 -0.3 -11.85 -1.7 -9.85 -3.15 -7.85 -2.2 -4.55 -1.25 -1.35 -0.35 -1.35 -1.45 0.8 -2.0 0.0 -3.4 -2.65 -4.8 -5.35" fill="none" stroke="#000000" stroke-linecap="round" stroke-linejoin="round" stroke-opacity="0.0" stroke-width="1.0">
      <animate attributeName="stroke" dur="2s" repeatCount="indefinite" values="#000000;#000001"/>
      <animate attributeName="stroke-width" dur="2s" repeatCount="indefinite" values="0.0;0.0"/>
      <animate attributeName="fill-opacity" dur="2s" repeatCount="indefinite" values="0.0;0.0"/>
      <animate attributeName="d" dur="2s" repeatCount="indefinite" values="M-4.8 -5.35 Q-4.85 -9.7 -1.4 -14.45 2.0 -19.25 0.85 -15.55 -0.3 -11.85 -1.7 -9.85 -3.15 -7.85 -2.2 -4.55 -1.25 -1.35 -0.35 -1.35 -1.45 0.8 -2.0 0.0 -3.4 -2.65 -4.8 -5.35;M0.05 -1.55 Q1.15 -7.35 1.65 -3.5 2.15 0.35 1.7 2.75 1.2 5.15 3.45 7.75 5.65 10.3 6.5 9.9 6.75 11.7 6.5 11.95 4.7 11.3 0.75 8.15 -1.1 4.2 0.05 -1.55"/>
    </path>
  </g>
</svg>
