<?xml version="1.0" encoding="UTF-8" standalone="no"?>
<svg xmlns:xlink="http://www.w3.org/1999/xlink" height="51.1px" width="18.1px" xmlns="http://www.w3.org/2000/svg">
  <g transform="matrix(1.0, 0.0, 0.0, 1.0, 0.4, 5.05)">
    <path d="M0.05 -1.55 Q-1.1 4.2 0.75 8.15 L1.3 8.6 Q3.45 10.25 5.55 11.85 L6.5 11.95 Q6.55 11.45 6.6 10.95 6.5 10.4 6.4 9.9 6.2 9.95 4.85 9.2 L3.45 7.75 2.3 6.1 Q1.35 4.4 1.7 2.75 2.05 0.8 1.8 -2.1 L1.65 -3.5 Q1.15 -7.35 0.05 -1.55" fill="#fff9f3" fill-opacity="0.29803923" fill-rule="evenodd" stroke="none">
      <animate attributeName="fill" dur="2s" repeatCount="indefinite" values="#fff9f3;#fff9f4"/>
      <animate attributeName="fill-opacity" dur="2s" repeatCount="indefinite" values="0.29803923;0.29803923"/>
      <animate attributeName="d" dur="2s" repeatCount="indefinite" values="M0.05 -1.55 Q-1.1 4.2 0.75 8.15 L1.3 8.6 Q3.45 10.25 5.55 11.85 L6.5 11.95 Q6.55 11.45 6.6 10.95 6.5 10.4 6.4 9.9 6.2 9.95 4.85 9.2 L3.45 7.75 2.3 6.1 Q1.35 4.4 1.7 2.75 2.05 0.8 1.8 -2.1 L1.65 -3.5 Q1.15 -7.35 0.05 -1.55;M5.55 7.7 Q5.25 16.05 8.5 28.4 L8.9 29.75 Q10.95 37.15 12.7 41.05 L13.75 43.1 Q14.55 44.5 15.3 45.05 17.15 46.35 17.7 45.95 17.25 44.3 16.8 42.65 L14.7 38.35 12.45 34.45 Q11.65 33.0 10.55 27.55 9.65 22.45 8.75 17.35 L8.25 14.15 Q5.8 -0.3 5.55 7.7"/>
    </path>
    <path d="M0.05 -1.55 Q1.15 -7.35 1.65 -3.5 L1.8 -2.1 Q2.05 0.8 1.7 2.75 1.35 4.4 2.3 6.1 L3.45 7.75 4.85 9.2 Q6.2 9.95 6.4 9.9 6.5 10.4 6.6 10.95 6.55 11.45 6.5 11.95 L5.55 11.85 Q3.45 10.25 1.3 8.6 L0.75 8.15 Q-1.1 4.2 0.05 -1.55" fill="none" stroke="#000000" stroke-linecap="round" stroke-linejoin="round" stroke-opacity="0.0" stroke-width="1.0">
      <animate attributeName="stroke" dur="2s" repeatCount="indefinite" values="#000000;#000001"/>
      <animate attributeName="stroke-width" dur="2s" repeatCount="indefinite" values="0.0;0.0"/>
      <animate attributeName="fill-opacity" dur="2s" repeatCount="indefinite" values="0.0;0.0"/>
      <animate attributeName="d" dur="2s" repeatCount="indefinite" values="M0.05 -1.55 Q1.15 -7.35 1.65 -3.5 L1.8 -2.1 Q2.05 0.8 1.7 2.75 1.35 4.4 2.3 6.1 L3.45 7.75 4.85 9.2 Q6.2 9.95 6.4 9.9 6.5 10.4 6.6 10.95 6.55 11.45 6.5 11.95 L5.55 11.85 Q3.45 10.25 1.3 8.6 L0.75 8.15 Q-1.1 4.2 0.05 -1.55;M5.55 7.7 Q5.8 -0.3 8.25 14.15 L8.75 17.35 Q9.65 22.45 10.55 27.55 11.65 33.0 12.45 34.45 L14.7 38.35 16.8 42.65 Q17.25 44.3 17.7 45.95 17.15 46.35 15.3 45.05 14.55 44.5 13.75 43.1 L12.7 41.05 Q10.95 37.15 8.9 29.75 L8.5 28.4 Q5.25 16.05 5.55 7.7"/>
    </path>
  </g>
</svg>
