<?xml version="1.0" encoding="UTF-8" standalone="no"?>
<svg xmlns:xlink="http://www.w3.org/1999/xlink" height="98.15px" width="43.7px" xmlns="http://www.w3.org/2000/svg">
  <g transform="matrix(1.0, 0.0, 0.0, 1.0, -5.55, -4.85)">
    <path d="M5.55 7.7 Q5.25 16.5 8.9 29.75 12.5 43.0 15.3 45.05 18.1 47.0 17.7 45.95 17.25 44.3 16.8 42.65 15.75 40.55 14.7 38.45 13.55 36.45 12.45 34.45 11.1 31.95 8.75 17.35 5.8 -1.1 5.55 7.7" fill="#fff9f3" fill-opacity="0.29803923" fill-rule="evenodd" stroke="none">
      <animate attributeName="fill" dur="2s" repeatCount="indefinite" values="#fff9f3;#fff9f4"/>
      <animate attributeName="fill-opacity" dur="2s" repeatCount="indefinite" values="0.29803923;0.29803923"/>
      <animate attributeName="d" dur="2s" repeatCount="indefinite" values="M5.55 7.7 Q5.25 16.5 8.9 29.75 12.5 43.0 15.3 45.05 18.1 47.0 17.7 45.95 17.25 44.3 16.8 42.65 15.75 40.55 14.7 38.45 13.55 36.45 12.45 34.45 11.1 31.95 8.75 17.35 5.8 -1.1 5.55 7.7;M24.15 63.2 Q26.1 71.8 34.85 86.05 43.55 100.3 47.15 102.0 50.7 103.7 48.25 102.5 45.8 101.25 43.6 97.9 42.2 96.0 41.05 93.15 39.9 90.25 37.85 87.75 35.75 85.2 29.75 71.7 22.1 54.65 24.15 63.2"/>
    </path>
    <path d="M5.55 7.7 Q5.8 -1.1 8.75 17.35 11.1 31.95 12.45 34.45 13.55 36.45 14.7 38.45 15.75 40.55 16.8 42.65 17.25 44.3 17.7 45.95 18.1 47.0 15.3 45.05 12.5 43.0 8.9 29.75 5.25 16.5 5.55 7.7" fill="none" stroke="#000000" stroke-linecap="round" stroke-linejoin="round" stroke-opacity="0.0" stroke-width="1.0">
      <animate attributeName="stroke" dur="2s" repeatCount="indefinite" values="#000000;#000001"/>
      <animate attributeName="stroke-width" dur="2s" repeatCount="indefinite" values="0.0;0.0"/>
      <animate attributeName="fill-opacity" dur="2s" repeatCount="indefinite" values="0.0;0.0"/>
      <animate attributeName="d" dur="2s" repeatCount="indefinite" values="M5.55 7.7 Q5.8 -1.1 8.75 17.35 11.1 31.95 12.45 34.45 13.55 36.45 14.7 38.45 15.75 40.55 16.8 42.65 17.25 44.3 17.7 45.95 18.1 47.0 15.3 45.05 12.5 43.0 8.9 29.75 5.25 16.5 5.55 7.7;M24.15 63.2 Q22.1 54.65 29.75 71.7 35.75 85.2 37.85 87.75 39.9 90.25 41.05 93.15 42.2 96.0 43.6 97.9 45.8 101.25 48.25 102.5 50.7 103.7 47.15 102.0 43.55 100.3 34.85 86.05 26.1 71.8 24.15 63.2"/>
    </path>
  </g>
</svg>
