<?xml version="1.0" encoding="UTF-8" standalone="no"?>
<svg xmlns:xlink="http://www.w3.org/1999/xlink" height="78.35px" width="54.75px" xmlns="http://www.w3.org/2000/svg">
  <g transform="matrix(1.0, 0.0, 0.0, 1.0, -23.7, -60.35)">
    <path d="M24.15 63.2 Q26.1 71.8 34.85 86.05 43.55 100.3 47.15 102.0 50.7 103.7 48.25 102.5 45.8 101.25 43.6 97.9 42.2 96.0 41.05 93.15 39.9 90.25 37.85 87.75 35.75 85.2 29.75 71.7 22.1 54.65 24.15 63.2" fill="#fff9f3" fill-opacity="0.29803923" fill-rule="evenodd" stroke="none">
      <animate attributeName="fill" dur="2s" repeatCount="indefinite" values="#fff9f3;#fff9f4"/>
      <animate attributeName="fill-opacity" dur="2s" repeatCount="indefinite" values="0.29803923;0.0"/>
      <animate attributeName="d" dur="2s" repeatCount="indefinite" values="M24.15 63.2 Q26.1 71.8 34.85 86.05 43.55 100.3 47.15 102.0 50.7 103.7 48.25 102.5 45.8 101.25 43.6 97.9 42.2 96.0 41.05 93.15 39.9 90.25 37.85 87.75 35.75 85.2 29.75 71.7 22.1 54.65 24.15 63.2;M41.75 96.95 Q44.8 103.55 59.8 121.5 74.65 139.45 77.6 138.65 80.55 137.75 73.55 132.5 66.6 127.3 64.05 124.65 62.65 123.45 61.25 122.3 59.4 120.25 57.55 118.2 55.1 115.15 46.9 102.8 38.6 90.45 41.75 96.95"/>
    </path>
    <path d="M24.15 63.2 Q22.1 54.65 29.75 71.7 35.75 85.2 37.85 87.75 39.9 90.25 41.05 93.15 42.2 96.0 43.6 97.9 45.8 101.25 48.25 102.5 50.7 103.7 47.15 102.0 43.55 100.3 34.85 86.05 26.1 71.8 24.15 63.2" fill="none" stroke="#000000" stroke-linecap="round" stroke-linejoin="round" stroke-opacity="0.0" stroke-width="1.0">
      <animate attributeName="stroke" dur="2s" repeatCount="indefinite" values="#000000;#000001"/>
      <animate attributeName="stroke-width" dur="2s" repeatCount="indefinite" values="0.0;0.0"/>
      <animate attributeName="fill-opacity" dur="2s" repeatCount="indefinite" values="0.0;0.0"/>
      <animate attributeName="d" dur="2s" repeatCount="indefinite" values="M24.15 63.2 Q22.1 54.65 29.75 71.7 35.75 85.2 37.85 87.75 39.9 90.25 41.05 93.15 42.2 96.0 43.6 97.9 45.8 101.25 48.25 102.5 50.7 103.7 47.15 102.0 43.55 100.3 34.85 86.05 26.1 71.8 24.15 63.2;M41.75 96.95 Q38.6 90.45 46.9 102.8 55.1 115.15 57.55 118.2 59.4 120.25 61.25 122.3 62.65 123.45 64.05 124.65 66.6 127.3 73.55 132.5 80.55 137.75 77.6 138.65 74.65 139.45 59.8 121.5 44.8 103.55 41.75 96.95"/>
    </path>
  </g>
</svg>
