<?xml version="1.0" encoding="UTF-8" standalone="no"?>
<svg xmlns:xlink="http://www.w3.org/1999/xlink" height="58.25px" width="2.55px" xmlns="http://www.w3.org/2000/svg">
  <g transform="matrix(1.0, 0.0, 0.0, 1.0, 0.6, 17.75)">
    <path d="M-0.6 -3.0 Q-0.45 -2.85 -0.3 -2.7 0.0 -2.45 0.6 -2.45 1.2 -2.55 1.75 -2.65 1.95 -2.75 1.95 -3.75 L1.8 -4.6 Q1.55 -5.1 1.4 -6.15 0.75 -10.35 0.7 -17.75 0.3 -17.4 -0.1 -17.05 L0.2 -14.25 Q0.5 -11.85 -0.6 -3.0" fill="#fff9f3" fill-opacity="0.29803923" fill-rule="evenodd" stroke="none">
      <animate attributeName="fill" dur="2s" repeatCount="indefinite" values="#fff9f3;#fff9f4"/>
      <animate attributeName="fill-opacity" dur="2s" repeatCount="indefinite" values="0.29803923;0.29803923"/>
      <animate attributeName="d" dur="2s" repeatCount="indefinite" values="M-0.6 -3.0 Q-0.45 -2.85 -0.3 -2.7 0.0 -2.45 0.6 -2.45 1.2 -2.55 1.75 -2.65 1.95 -2.75 1.95 -3.75 L1.8 -4.6 Q1.55 -5.1 1.4 -6.15 0.75 -10.35 0.7 -17.75 0.3 -17.4 -0.1 -17.05 L0.2 -14.25 Q0.5 -11.85 -0.6 -3.0;M-0.6 38.85 Q-0.5 38.85 -0.3 39.75 0.0 40.5 0.6 40.5 1.6 40.5 1.75 39.9 1.95 39.6 1.95 36.6 L1.8 34.1 Q1.55 32.6 1.4 29.45 0.75 16.85 0.7 -5.3 0.5 -5.6 -0.1 -3.2 L0.2 5.2 Q0.5 12.4 -0.6 38.85"/>
    </path>
    <path d="M-0.6 -3.0 Q0.5 -11.85 0.2 -14.25 L-0.1 -17.05 Q0.3 -17.4 0.7 -17.75 0.75 -10.35 1.4 -6.15 1.55 -5.1 1.8 -4.6 L1.95 -3.75 Q1.95 -2.75 1.75 -2.65 1.2 -2.55 0.6 -2.45 0.0 -2.45 -0.3 -2.7 -0.45 -2.85 -0.6 -3.0" fill="none" stroke="#000000" stroke-linecap="round" stroke-linejoin="round" stroke-opacity="0.0" stroke-width="1.0">
      <animate attributeName="stroke" dur="2s" repeatCount="indefinite" values="#000000;#000001"/>
      <animate attributeName="stroke-width" dur="2s" repeatCount="indefinite" values="0.0;0.0"/>
      <animate attributeName="fill-opacity" dur="2s" repeatCount="indefinite" values="0.0;0.0"/>
      <animate attributeName="d" dur="2s" repeatCount="indefinite" values="M-0.6 -3.0 Q0.5 -11.85 0.2 -14.25 L-0.1 -17.05 Q0.3 -17.4 0.7 -17.75 0.75 -10.35 1.4 -6.15 1.55 -5.1 1.8 -4.6 L1.95 -3.75 Q1.95 -2.75 1.75 -2.65 1.2 -2.55 0.6 -2.45 0.0 -2.45 -0.3 -2.7 -0.45 -2.85 -0.6 -3.0;M-0.6 38.85 Q0.5 12.4 0.2 5.2 L-0.1 -3.2 Q0.5 -5.6 0.7 -5.3 0.75 16.85 1.4 29.45 1.55 32.6 1.8 34.1 L1.95 36.6 Q1.95 39.6 1.75 39.9 1.6 40.5 0.6 40.5 0.0 40.5 -0.3 39.75 -0.5 38.85 -0.6 38.85"/>
    </path>
  </g>
</svg>
