<?xml version="1.0" encoding="UTF-8" standalone="no"?>
<svg xmlns:xlink="http://www.w3.org/1999/xlink" height="55.95px" width="3.55px" xmlns="http://www.w3.org/2000/svg">
  <g transform="matrix(1.0, 0.0, 0.0, 1.0, 0.6, 5.35)">
    <path d="M-0.6 38.85 Q-0.5 38.85 -0.3 39.75 0.0 40.5 0.6 40.5 1.6 40.5 1.75 39.9 1.95 39.6 1.95 36.6 L1.8 34.1 Q1.55 32.6 1.4 29.45 0.75 16.85 0.7 -5.3 0.5 -5.6 -0.1 -3.2 L0.2 5.2 Q0.5 12.4 -0.6 38.85" fill="#fff9f3" fill-opacity="0.29803923" fill-rule="evenodd" stroke="none">
      <animate attributeName="fill" dur="2s" repeatCount="indefinite" values="#fff9f3;#fff9f4"/>
      <animate attributeName="fill-opacity" dur="2s" repeatCount="indefinite" values="0.29803923;0.29803923"/>
      <animate attributeName="d" dur="2s" repeatCount="indefinite" values="M-0.6 38.85 Q-0.5 38.85 -0.3 39.75 0.0 40.5 0.6 40.5 1.6 40.5 1.75 39.9 1.95 39.6 1.95 36.6 L1.8 34.1 Q1.55 32.6 1.4 29.45 0.75 16.85 0.7 -5.3 0.5 -5.6 -0.1 -3.2 L0.2 5.2 Q0.5 12.4 -0.6 38.85;M-0.6 45.35 Q-0.5 45.35 -0.3 46.9 -0.1 48.45 0.55 50.0 1.2 51.55 2.3 49.0 3.35 46.5 2.75 43.9 L2.4 42.7 Q2.35 40.75 2.3 38.8 1.5 16.75 0.7 -5.3 0.5 -5.6 -0.1 -2.85 L0.2 6.75 Q0.5 15.0 -0.6 45.35"/>
    </path>
    <path d="M-0.6 38.85 Q0.5 12.4 0.2 5.2 L-0.1 -3.2 Q0.5 -5.6 0.7 -5.3 0.75 16.85 1.4 29.45 1.55 32.6 1.8 34.1 L1.95 36.6 Q1.95 39.6 1.75 39.9 1.6 40.5 0.6 40.5 0.0 40.5 -0.3 39.75 -0.5 38.85 -0.6 38.85" fill="none" stroke="#000000" stroke-linecap="round" stroke-linejoin="round" stroke-opacity="0.0" stroke-width="1.0">
      <animate attributeName="stroke" dur="2s" repeatCount="indefinite" values="#000000;#000001"/>
      <animate attributeName="stroke-width" dur="2s" repeatCount="indefinite" values="0.0;0.0"/>
      <animate attributeName="fill-opacity" dur="2s" repeatCount="indefinite" values="0.0;0.0"/>
      <animate attributeName="d" dur="2s" repeatCount="indefinite" values="M-0.6 38.85 Q0.5 12.4 0.2 5.2 L-0.1 -3.2 Q0.5 -5.6 0.7 -5.3 0.75 16.85 1.4 29.45 1.55 32.6 1.8 34.1 L1.95 36.6 Q1.95 39.6 1.75 39.9 1.6 40.5 0.6 40.5 0.0 40.5 -0.3 39.75 -0.5 38.85 -0.6 38.85;M-0.6 45.35 Q0.5 15.0 0.2 6.75 L-0.1 -2.85 Q0.5 -5.6 0.7 -5.3 1.5 16.75 2.3 38.8 2.35 40.75 2.4 42.7 L2.75 43.9 Q3.35 46.5 2.3 49.0 1.2 51.55 0.55 50.0 -0.1 48.45 -0.3 46.9 -0.5 45.35 -0.6 45.35"/>
    </path>
  </g>
</svg>
