<?xml version="1.0" encoding="UTF-8" standalone="no"?>
<svg xmlns:xlink="http://www.w3.org/1999/xlink" height="169.95px" width="3.45px" xmlns="http://www.w3.org/2000/svg">
  <g transform="matrix(1.0, 0.0, 0.0, 1.0, 0.6, -33.6)">
    <path d="M-0.6 117.5 Q-0.5 117.5 -0.3 120.05 -0.1 122.55 0.55 125.1 1.2 127.65 2.3 123.45 3.35 119.35 2.4 113.15 L2.3 106.8 0.3 33.6 Q-0.05 35.25 -0.1 38.65 L0.2 54.35 Q0.5 67.85 -0.6 117.5" fill="#fff9f3" fill-opacity="0.29803923" fill-rule="evenodd" stroke="none">
      <animate attributeName="fill" dur="2s" repeatCount="indefinite" values="#fff9f3;#fff9f4"/>
      <animate attributeName="fill-opacity" dur="2s" repeatCount="indefinite" values="0.29803923;0.0"/>
      <animate attributeName="d" dur="2s" repeatCount="indefinite" values="M-0.6 117.5 Q-0.5 117.5 -0.3 120.05 -0.1 122.55 0.55 125.1 1.2 127.65 2.3 123.45 3.35 119.35 2.4 113.15 L2.3 106.8 0.3 33.6 Q-0.05 35.25 -0.1 38.65 L0.2 54.35 Q0.5 67.85 -0.6 117.5;M-0.6 195.0 Q-0.5 195.0 -0.3 197.55 -0.1 200.05 0.55 202.6 1.2 205.15 2.3 200.95 3.35 196.85 2.4 190.65 L2.3 184.3 0.3 111.1 Q-0.05 112.75 -0.1 116.15 L0.2 131.85 Q0.5 145.35 -0.6 195.0"/>
    </path>
    <path d="M-0.6 117.5 Q0.5 67.85 0.2 54.35 L-0.1 38.65 Q-0.05 35.25 0.3 33.6 L2.3 106.8 2.4 113.15 Q3.35 119.35 2.3 123.45 1.2 127.65 0.55 125.1 -0.1 122.55 -0.3 120.05 -0.5 117.5 -0.6 117.5" fill="none" stroke="#000000" stroke-linecap="round" stroke-linejoin="round" stroke-opacity="0.0" stroke-width="1.0">
      <animate attributeName="stroke" dur="2s" repeatCount="indefinite" values="#000000;#000001"/>
      <animate attributeName="stroke-width" dur="2s" repeatCount="indefinite" values="0.0;0.0"/>
      <animate attributeName="fill-opacity" dur="2s" repeatCount="indefinite" values="0.0;0.0"/>
      <animate attributeName="d" dur="2s" repeatCount="indefinite" values="M-0.6 117.5 Q0.5 67.85 0.2 54.35 L-0.1 38.65 Q-0.05 35.25 0.3 33.6 L2.3 106.8 2.4 113.15 Q3.35 119.35 2.3 123.45 1.2 127.65 0.55 125.1 -0.1 122.55 -0.3 120.05 -0.5 117.5 -0.6 117.5;M-0.6 195.0 Q0.5 145.35 0.2 131.85 L-0.1 116.15 Q-0.05 112.75 0.3 111.1 L2.3 184.3 2.4 190.65 Q3.35 196.85 2.3 200.95 1.2 205.15 0.55 202.6 -0.1 200.05 -0.3 197.55 -0.5 195.0 -0.6 195.0"/>
    </path>
  </g>
</svg>
