<?xml version="1.0" encoding="UTF-8" standalone="no"?>
<svg xmlns:xlink="http://www.w3.org/1999/xlink" height="3320.55px" width="3032.6px" xmlns="http://www.w3.org/2000/svg">
  <g transform="matrix(1.0, 0.0, 0.0, 1.0, 1165.05, 1747.55)">
    <path d="M-1164.9 1554.6 Q-1165.35 1558.25 -1164.5 1561.45 -1162.8 1567.85 -1157.0 1571.0 -1151.4 1574.1 -1144.9 1572.4 -1139.55 1571.05 -1137.3 1567.65 -1133.75 1560.85 -1129.35 1553.5 -1109.0 1520.05 -1050.95 1460.1 -1012.4 1404.3 -968.6 1356.55 -955.25 1346.4 -951.85 1338.15 -948.45 1329.9 -929.6 1320.35 L-893.6 1302.15 -862.8 1268.95 Q-846.95 1252.6 -831.9 1235.65 L-801.9 1201.6 -767.3 1161.25 Q-747.35 1137.8 -743.4 1132.55 L-707.75 1088.85 -704.25 1084.4 -659.8 1027.0 -620.05 993.15 -583.85 959.1 Q-581.7 956.0 -580.75 955.3 -580.3 955.0 -578.85 954.75 -575.4 954.3 -567.05 946.1 -560.95 940.2 -554.1 932.4 -544.25 921.2 -536.8 910.55 L-492.05 849.1 Q-480.15 836.85 -471.95 831.05 -468.1 829.8 -466.1 827.3 -463.6 825.65 -461.5 823.6 -457.35 819.55 -449.35 809.35 -445.6 804.5 -444.75 801.65 -444.0 798.6 -444.95 793.9 -422.65 763.85 -379.3 719.1 -340.75 663.3 -296.95 615.55 -283.6 605.4 -280.2 597.15 -276.8 588.9 -257.95 579.35 L-221.95 561.15 -191.15 527.95 Q-175.3 511.6 -160.25 494.65 L-130.25 460.6 -95.65 420.25 Q-75.7 396.8 -71.75 391.55 L-36.1 347.85 -32.6 343.4 11.85 286.0 51.6 252.15 87.8 218.1 Q89.95 215.0 92.8 213.75 96.25 213.3 104.6 205.1 110.7 199.2 117.55 191.4 127.4 180.2 134.85 169.55 L179.6 108.1 Q194.7 92.55 203.85 87.35 207.35 85.3 210.15 82.6 214.3 78.55 222.3 68.35 226.05 63.5 226.9 60.65 227.8 57.0 226.2 50.85 224.45 43.9 217.6 40.5 211.5 37.4 205.5 38.95 201.0 40.05 197.6 42.7 193.4 45.95 191.45 51.2 L187.4 59.15 Q182.9 68.6 180.3 76.75 177.3 86.75 174.55 91.65 173.1 94.15 172.3 94.75 168.75 99.85 155.8 116.0 L91.65 185.25 Q88.1 189.65 85.85 193.4 L78.6 204.5 46.3 239.65 4.7 279.9 -18.0 312.0 -38.45 338.8 -69.0 375.4 Q-77.8 385.45 -101.1 409.9 -131.2 441.55 -141.3 449.85 L-174.9 479.55 Q-192.15 493.9 -209.4 508.2 L-282.2 562.3 Q-307.9 594.0 -325.85 617.25 -343.8 640.5 -358.55 659.05 -373.35 677.6 -377.75 687.0 L-457.65 769.35 -466.45 780.05 Q-470.75 781.15 -474.05 783.7 -478.25 786.95 -480.2 792.2 L-484.2 800.1 -491.4 808.35 Q-492.8 809.95 -493.25 813.6 -493.7 817.25 -492.5 821.55 -494.9 828.7 -497.1 832.65 -498.55 835.15 -499.35 835.75 -502.9 840.85 -515.85 857.0 L-580.0 926.25 Q-583.55 930.65 -585.8 934.4 L-593.05 945.5 -625.35 980.65 -666.95 1020.9 -689.65 1053.0 -710.1 1079.8 -740.65 1116.4 Q-749.45 1126.45 -772.75 1150.9 -802.85 1182.55 -812.95 1190.85 L-846.55 1220.55 Q-863.8 1234.9 -881.05 1249.2 L-953.85 1303.3 Q-979.55 1335.0 -997.5 1358.25 -1013.85 1379.15 -1030.2 1400.05 -1045.0 1418.6 -1049.4 1428.0 L-1129.3 1510.35 Q-1142.2 1526.2 -1148.9 1533.45 -1156.0 1541.4 -1163.05 1549.35 -1164.45 1550.95 -1164.9 1554.6" fill="#fffbee" fill-opacity="0.8" fill-rule="evenodd" stroke="none">
      <animate attributeName="fill" dur="2s" repeatCount="indefinite" values="#fffbee;#fffbef"/>
      <animate attributeName="fill-opacity" dur="2s" repeatCount="indefinite" values="0.8;0.8"/>
      <animate attributeName="d" dur="2s" repeatCount="indefinite" values="M-1164.9 1554.6 Q-1165.35 1558.25 -1164.5 1561.45 -1162.8 1567.85 -1157.0 1571.0 -1151.4 1574.1 -1144.9 1572.4 -1139.55 1571.05 -1137.3 1567.65 -1133.75 1560.85 -1129.35 1553.5 -1109.0 1520.05 -1050.95 1460.1 -1012.4 1404.3 -968.6 1356.55 -955.25 1346.4 -951.85 1338.15 -948.45 1329.9 -929.6 1320.35 L-893.6 1302.15 -862.8 1268.95 Q-846.95 1252.6 -831.9 1235.65 L-801.9 1201.6 -767.3 1161.25 Q-747.35 1137.8 -743.4 1132.55 L-707.75 1088.85 -704.25 1084.4 -659.8 1027.0 -620.05 993.15 -583.85 959.1 Q-581.7 956.0 -580.75 955.3 -580.3 955.0 -578.85 954.75 -575.4 954.3 -567.05 946.1 -560.95 940.2 -554.1 932.4 -544.25 921.2 -536.8 910.55 L-492.05 849.1 Q-480.15 836.85 -471.95 831.05 -468.1 829.8 -466.1 827.3 -463.6 825.65 -461.5 823.6 -457.35 819.55 -449.35 809.35 -445.6 804.5 -444.75 801.65 -444.0 798.6 -444.95 793.9 -422.65 763.85 -379.3 719.1 -340.75 663.3 -296.95 615.55 -283.6 605.4 -280.2 597.15 -276.8 588.9 -257.95 579.35 L-221.95 561.15 -191.15 527.95 Q-175.3 511.6 -160.25 494.65 L-130.25 460.6 -95.65 420.25 Q-75.7 396.8 -71.75 391.55 L-36.1 347.85 -32.6 343.4 11.85 286.0 51.6 252.15 87.8 218.1 Q89.95 215.0 92.8 213.75 96.25 213.3 104.6 205.1 110.7 199.2 117.55 191.4 127.4 180.2 134.85 169.55 L179.6 108.1 Q194.7 92.55 203.85 87.35 207.35 85.3 210.15 82.6 214.3 78.55 222.3 68.35 226.05 63.5 226.9 60.65 227.8 57.0 226.2 50.85 224.45 43.9 217.6 40.5 211.5 37.4 205.5 38.95 201.0 40.05 197.6 42.7 193.4 45.95 191.45 51.2 L187.4 59.15 Q182.9 68.6 180.3 76.75 177.3 86.75 174.55 91.65 173.1 94.15 172.3 94.75 168.75 99.85 155.8 116.0 L91.65 185.25 Q88.1 189.65 85.85 193.4 L78.6 204.5 46.3 239.65 4.7 279.9 -18.0 312.0 -38.45 338.8 -69.0 375.4 Q-77.8 385.45 -101.1 409.9 -131.2 441.55 -141.3 449.85 L-174.9 479.55 Q-192.15 493.9 -209.4 508.2 L-282.2 562.3 Q-307.9 594.0 -325.85 617.25 -343.8 640.5 -358.55 659.05 -373.35 677.6 -377.75 687.0 L-457.65 769.35 -466.45 780.05 Q-470.75 781.15 -474.05 783.7 -478.25 786.95 -480.2 792.2 L-484.2 800.1 -491.4 808.35 Q-492.8 809.95 -493.25 813.6 -493.7 817.25 -492.5 821.55 -494.9 828.7 -497.1 832.65 -498.55 835.15 -499.35 835.75 -502.9 840.85 -515.85 857.0 L-580.0 926.25 Q-583.55 930.65 -585.8 934.4 L-593.05 945.5 -625.35 980.65 -666.95 1020.9 -689.65 1053.0 -710.1 1079.8 -740.65 1116.4 Q-749.45 1126.45 -772.75 1150.9 -802.85 1182.55 -812.95 1190.85 L-846.55 1220.55 Q-863.8 1234.9 -881.05 1249.2 L-953.85 1303.3 Q-979.55 1335.0 -997.5 1358.25 -1013.85 1379.15 -1030.2 1400.05 -1045.0 1418.6 -1049.4 1428.0 L-1129.3 1510.35 Q-1142.2 1526.2 -1148.9 1533.45 -1156.0 1541.4 -1163.05 1549.35 -1164.45 1550.95 -1164.9 1554.6;M-2801.4 3045.45 Q-2801.85 3049.1 -2801.0 3052.3 -2799.3 3058.7 -2793.5 3061.85 -2787.9 3064.95 -2781.4 3063.25 -2776.05 3061.9 -2773.8 3058.5 -2770.25 3051.7 -2765.85 3044.35 -2745.5 3010.9 -2687.45 2950.95 -2648.9 2895.15 -2605.1 2847.4 -2591.75 2837.25 -2588.35 2829.0 -2584.95 2820.75 -2566.1 2811.2 L-2530.1 2793.0 -2499.3 2759.8 Q-2483.45 2743.45 -2468.4 2726.5 L-2438.4 2692.45 -2403.8 2652.1 Q-2383.85 2628.65 -2379.9 2623.4 L-2344.25 2579.7 -2340.75 2575.25 -2296.3 2517.85 -2256.55 2484.0 -2220.35 2449.95 Q-2218.2 2446.85 -2217.25 2446.15 -2216.3 2445.85 -2215.35 2445.6 -2211.9 2445.15 -2203.55 2436.95 -2197.45 2431.05 -2190.6 2423.25 -2180.75 2412.05 -2173.3 2401.4 L-2128.55 2339.95 Q-2116.65 2327.7 -2108.45 2321.9 -2104.6 2320.65 -2102.6 2318.15 -2100.1 2316.5 -2098.0 2314.45 -2093.85 2310.4 -2085.85 2300.2 -2082.1 2295.35 -2081.25 2292.5 -2080.5 2289.45 -2081.45 2284.75 -2059.15 2254.7 -2015.8 2209.95 -1977.25 2154.15 -1933.45 2106.4 -1920.1 2096.25 -1916.7 2088.0 -1913.3 2079.75 -1894.45 2070.2 L-1858.45 2052.0 -1827.65 2018.8 Q-1811.8 2002.45 -1796.75 1985.5 L-1766.75 1951.45 -1732.15 1911.1 Q-1712.2 1887.65 -1708.25 1882.4 L-1672.6 1838.7 -1669.1 1834.25 -1624.65 1776.85 -1584.9 1743.0 -1548.7 1708.95 Q-1546.55 1705.85 -1543.7 1704.6 -1540.25 1704.15 -1531.9 1695.95 -1525.8 1690.05 -1518.95 1682.25 -1509.1 1671.05 -1501.65 1660.4 L-1456.9 1598.95 Q-1441.8 1583.4 -1432.65 1578.2 -1429.15 1576.15 -1426.35 1573.45 -1422.2 1569.4 -1414.2 1559.2 -1410.45 1554.35 -1409.6 1551.5 -1408.7 1547.85 -1410.3 1541.7 -1412.05 1534.75 -1418.9 1531.35 -1425.0 1528.25 -1431.0 1529.8 -1435.5 1530.9 -1438.9 1533.55 -1443.1 1536.8 -1445.05 1542.05 L-1449.1 1550.0 Q-1453.6 1559.45 -1456.2 1567.6 -1459.2 1577.6 -1461.95 1582.5 -1463.4 1585.0 -1464.2 1585.6 -1467.75 1590.7 -1480.7 1606.85 L-1544.85 1676.1 Q-1548.4 1680.5 -1550.65 1684.25 L-1557.9 1695.35 -1590.2 1730.5 -1631.8 1770.75 -1654.5 1802.85 -1674.95 1829.65 -1705.5 1866.25 Q-1714.3 1876.3 -1737.6 1900.75 -1767.7 1932.4 -1777.8 1940.7 L-1811.4 1970.4 Q-1844.1 1997.75 -1845.9 1999.05 L-1918.7 2053.15 Q-1944.4 2084.85 -1962.35 2108.1 -1980.3 2131.35 -1995.05 2149.9 -2009.85 2168.45 -2014.25 2177.85 L-2094.15 2260.2 -2102.95 2270.9 Q-2107.25 2272.0 -2110.55 2274.55 -2114.75 2277.8 -2116.7 2283.05 L-2120.7 2290.95 -2127.9 2299.2 Q-2129.3 2300.8 -2129.75 2304.45 -2130.2 2308.1 -2129.0 2312.4 -2131.4 2319.55 -2133.6 2323.5 -2135.05 2326.0 -2135.85 2326.6 -2139.4 2331.7 -2152.35 2347.85 L-2216.5 2417.1 Q-2220.05 2421.5 -2222.3 2425.25 L-2229.55 2436.35 -2261.85 2471.5 -2303.45 2511.75 -2326.15 2543.85 -2346.6 2570.65 -2377.15 2607.25 Q-2385.95 2617.3 -2409.25 2641.75 -2439.35 2673.4 -2449.45 2681.7 L-2483.05 2711.4 Q-2515.75 2738.75 -2517.55 2740.05 L-2590.35 2794.15 Q-2616.05 2825.85 -2634.0 2849.1 -2651.95 2872.35 -2666.7 2890.9 -2681.5 2909.45 -2685.9 2918.85 L-2765.8 3001.2 Q-2778.7 3017.05 -2785.4 3024.3 -2793.7 3033.25 -2799.55 3040.2 -2800.95 3041.8 -2801.4 3045.45"/>
    </path>
    <path d="M-1164.9 1554.6 Q-1164.45 1550.95 -1163.05 1549.35 -1156.0 1541.4 -1148.9 1533.45 -1142.2 1526.2 -1129.3 1510.35 L-1049.4 1428.0 Q-1045.0 1418.6 -1030.2 1400.05 -1013.85 1379.15 -997.5 1358.25 -979.55 1335.0 -953.85 1303.3 L-881.05 1249.2 Q-863.8 1234.9 -846.55 1220.55 L-812.95 1190.85 Q-802.85 1182.55 -772.75 1150.9 -749.45 1126.45 -740.65 1116.4 L-710.1 1079.8 -689.65 1053.0 -666.95 1020.9 -625.35 980.65 -593.05 945.5 -585.8 934.4 Q-583.55 930.65 -580.0 926.25 L-515.85 857.0 Q-502.9 840.85 -499.35 835.75 -498.55 835.15 -497.1 832.65 -494.9 828.7 -492.5 821.55 -493.7 817.25 -493.25 813.6 -492.8 809.95 -491.4 808.35 L-484.2 800.1 -480.2 792.2 Q-478.25 786.95 -474.05 783.7 -470.75 781.15 -466.45 780.05 L-457.65 769.35 -377.75 687.0 Q-373.35 677.6 -358.55 659.05 -343.8 640.5 -325.85 617.25 -307.9 594.0 -282.2 562.3 L-209.4 508.2 Q-192.15 493.9 -174.9 479.55 L-141.3 449.85 Q-131.2 441.55 -101.1 409.9 -77.8 385.45 -69.0 375.4 L-38.45 338.8 -18.0 312.0 4.7 279.9 46.3 239.65 78.6 204.5 85.85 193.4 Q88.1 189.65 91.65 185.25 L155.8 116.0 Q168.75 99.85 172.3 94.75 173.1 94.15 174.55 91.65 177.3 86.75 180.3 76.75 182.9 68.6 187.4 59.15 L191.45 51.2 Q193.4 45.95 197.6 42.7 201.0 40.05 205.5 38.95 211.5 37.4 217.6 40.5 224.45 43.9 226.2 50.85 227.8 57.0 226.9 60.65 226.05 63.5 222.3 68.35 214.3 78.55 210.15 82.6 207.35 85.3 203.85 87.35 194.7 92.55 179.6 108.1 L134.85 169.55 Q127.4 180.2 117.55 191.4 110.7 199.2 104.6 205.1 96.25 213.3 92.8 213.75 89.95 215.0 87.8 218.1 L51.6 252.15 11.85 286.0 -32.6 343.4 -36.1 347.85 -71.75 391.55 Q-75.7 396.8 -95.65 420.25 L-130.25 460.6 -160.25 494.65 Q-175.3 511.6 -191.15 527.95 L-221.95 561.15 -257.95 579.35 Q-276.8 588.9 -280.2 597.15 -283.6 605.4 -296.95 615.55 -340.75 663.3 -379.3 719.1 -422.65 763.85 -444.95 793.9 -444.0 798.6 -444.75 801.65 -445.6 804.5 -449.35 809.35 -457.35 819.55 -461.5 823.6 -463.6 825.65 -466.1 827.3 -468.1 829.8 -471.95 831.05 -480.15 836.85 -492.05 849.1 L-536.8 910.55 Q-544.25 921.2 -554.1 932.4 -560.95 940.2 -567.05 946.1 -575.4 954.3 -578.85 954.75 -580.3 955.0 -580.75 955.3 -581.7 956.0 -583.85 959.1 L-620.05 993.15 -659.8 1027.0 -704.25 1084.4 -707.75 1088.85 -743.4 1132.55 Q-747.35 1137.8 -767.3 1161.25 L-801.9 1201.6 -831.9 1235.65 Q-846.95 1252.6 -862.8 1268.95 L-893.6 1302.15 -929.6 1320.35 Q-948.45 1329.9 -951.85 1338.15 -955.25 1346.4 -968.6 1356.55 -1012.4 1404.3 -1050.95 1460.1 -1109.0 1520.05 -1129.35 1553.5 -1133.75 1560.85 -1137.3 1567.65 -1139.55 1571.05 -1144.9 1572.4 -1151.4 1574.1 -1157.0 1571.0 -1162.8 1567.85 -1164.5 1561.45 -1165.35 1558.25 -1164.9 1554.6" fill="none" stroke="#000000" stroke-linecap="round" stroke-linejoin="round" stroke-opacity="0.0" stroke-width="1.0">
      <animate attributeName="stroke" dur="2s" repeatCount="indefinite" values="#000000;#000001"/>
      <animate attributeName="stroke-width" dur="2s" repeatCount="indefinite" values="0.0;0.0"/>
      <animate attributeName="fill-opacity" dur="2s" repeatCount="indefinite" values="0.0;0.0"/>
      <animate attributeName="d" dur="2s" repeatCount="indefinite" values="M-1164.9 1554.6 Q-1164.45 1550.95 -1163.05 1549.35 -1156.0 1541.4 -1148.9 1533.45 -1142.2 1526.2 -1129.3 1510.35 L-1049.4 1428.0 Q-1045.0 1418.6 -1030.2 1400.05 -1013.85 1379.15 -997.5 1358.25 -979.55 1335.0 -953.85 1303.3 L-881.05 1249.2 Q-863.8 1234.9 -846.55 1220.55 L-812.95 1190.85 Q-802.85 1182.55 -772.75 1150.9 -749.45 1126.45 -740.65 1116.4 L-710.1 1079.8 -689.65 1053.0 -666.95 1020.9 -625.35 980.65 -593.05 945.5 -585.8 934.4 Q-583.55 930.65 -580.0 926.25 L-515.85 857.0 Q-502.9 840.85 -499.35 835.75 -498.55 835.15 -497.1 832.65 -494.9 828.7 -492.5 821.55 -493.7 817.25 -493.25 813.6 -492.8 809.95 -491.4 808.35 L-484.2 800.1 -480.2 792.2 Q-478.25 786.95 -474.05 783.7 -470.75 781.15 -466.45 780.05 L-457.65 769.35 -377.75 687.0 Q-373.35 677.6 -358.55 659.05 -343.8 640.5 -325.85 617.25 -307.9 594.0 -282.2 562.3 L-209.4 508.2 Q-192.15 493.9 -174.9 479.55 L-141.3 449.85 Q-131.2 441.55 -101.1 409.9 -77.8 385.45 -69.0 375.4 L-38.45 338.8 -18.0 312.0 4.7 279.9 46.3 239.65 78.6 204.5 85.85 193.4 Q88.1 189.65 91.65 185.25 L155.8 116.0 Q168.75 99.85 172.3 94.75 173.1 94.15 174.55 91.65 177.3 86.75 180.3 76.75 182.9 68.6 187.4 59.15 L191.45 51.2 Q193.4 45.95 197.6 42.7 201.0 40.05 205.5 38.95 211.5 37.4 217.6 40.5 224.45 43.9 226.2 50.85 227.8 57.0 226.9 60.65 226.05 63.5 222.3 68.35 214.3 78.55 210.15 82.6 207.35 85.3 203.85 87.35 194.7 92.55 179.6 108.1 L134.85 169.55 Q127.4 180.2 117.55 191.4 110.7 199.2 104.6 205.1 96.25 213.3 92.8 213.75 89.95 215.0 87.8 218.1 L51.6 252.15 11.85 286.0 -32.6 343.4 -36.1 347.85 -71.75 391.55 Q-75.7 396.8 -95.65 420.25 L-130.25 460.6 -160.25 494.65 Q-175.3 511.6 -191.15 527.95 L-221.95 561.15 -257.95 579.35 Q-276.8 588.9 -280.2 597.15 -283.6 605.4 -296.95 615.55 -340.75 663.3 -379.3 719.1 -422.65 763.85 -444.95 793.9 -444.0 798.6 -444.75 801.65 -445.6 804.5 -449.35 809.35 -457.35 819.55 -461.5 823.6 -463.6 825.65 -466.1 827.3 -468.1 829.8 -471.95 831.05 -480.15 836.85 -492.05 849.1 L-536.8 910.55 Q-544.25 921.2 -554.1 932.4 -560.95 940.2 -567.05 946.1 -575.4 954.3 -578.85 954.75 -580.3 955.0 -580.75 955.3 -581.7 956.0 -583.85 959.1 L-620.05 993.15 -659.8 1027.0 -704.25 1084.4 -707.75 1088.85 -743.4 1132.55 Q-747.35 1137.8 -767.3 1161.25 L-801.9 1201.6 -831.9 1235.65 Q-846.95 1252.6 -862.8 1268.95 L-893.6 1302.15 -929.6 1320.35 Q-948.45 1329.9 -951.85 1338.15 -955.25 1346.4 -968.6 1356.55 -1012.4 1404.3 -1050.95 1460.1 -1109.0 1520.05 -1129.35 1553.5 -1133.75 1560.85 -1137.3 1567.65 -1139.55 1571.05 -1144.9 1572.4 -1151.4 1574.1 -1157.0 1571.0 -1162.8 1567.85 -1164.5 1561.45 -1165.35 1558.25 -1164.9 1554.6;M-2801.4 3045.45 Q-2800.95 3041.8 -2799.55 3040.2 -2793.7 3033.25 -2785.4 3024.3 -2778.7 3017.05 -2765.8 3001.2 L-2685.9 2918.85 Q-2681.5 2909.45 -2666.7 2890.9 -2651.95 2872.35 -2634.0 2849.1 -2616.05 2825.85 -2590.35 2794.15 L-2517.55 2740.05 Q-2515.75 2738.75 -2483.05 2711.4 L-2449.45 2681.7 Q-2439.35 2673.4 -2409.25 2641.75 -2385.95 2617.3 -2377.15 2607.25 L-2346.6 2570.65 -2326.15 2543.85 -2303.45 2511.75 -2261.85 2471.5 -2229.55 2436.35 -2222.3 2425.25 Q-2220.05 2421.5 -2216.5 2417.1 L-2152.35 2347.85 Q-2139.4 2331.7 -2135.85 2326.6 -2135.05 2326.0 -2133.6 2323.5 -2131.4 2319.55 -2129.0 2312.4 -2130.2 2308.1 -2129.75 2304.45 -2129.3 2300.8 -2127.9 2299.2 L-2120.7 2290.95 -2116.7 2283.05 Q-2114.75 2277.8 -2110.55 2274.55 -2107.25 2272.0 -2102.95 2270.9 L-2094.15 2260.2 -2014.25 2177.85 Q-2009.85 2168.45 -1995.05 2149.9 -1980.3 2131.35 -1962.35 2108.1 -1944.4 2084.85 -1918.7 2053.15 L-1845.9 1999.05 Q-1844.1 1997.75 -1811.4 1970.4 L-1777.8 1940.7 Q-1767.7 1932.4 -1737.6 1900.75 -1714.3 1876.3 -1705.5 1866.25 L-1674.95 1829.65 -1654.5 1802.85 -1631.8 1770.75 -1590.2 1730.5 -1557.9 1695.35 -1550.65 1684.25 Q-1548.4 1680.5 -1544.85 1676.1 L-1480.7 1606.85 Q-1467.75 1590.7 -1464.2 1585.6 -1463.4 1585.0 -1461.95 1582.5 -1459.2 1577.6 -1456.2 1567.6 -1453.6 1559.45 -1449.1 1550.0 L-1445.05 1542.05 Q-1443.1 1536.8 -1438.9 1533.55 -1435.5 1530.9 -1431.0 1529.8 -1425.0 1528.25 -1418.9 1531.35 -1412.05 1534.75 -1410.3 1541.7 -1408.7 1547.85 -1409.6 1551.5 -1410.45 1554.35 -1414.2 1559.2 -1422.2 1569.4 -1426.35 1573.45 -1429.15 1576.15 -1432.65 1578.2 -1441.8 1583.4 -1456.9 1598.95 L-1501.65 1660.4 Q-1509.1 1671.05 -1518.95 1682.25 -1525.8 1690.05 -1531.9 1695.95 -1540.25 1704.15 -1543.7 1704.6 -1546.55 1705.85 -1548.7 1708.95 L-1584.9 1743.0 -1624.65 1776.85 -1669.1 1834.25 -1672.6 1838.7 -1708.25 1882.4 Q-1712.2 1887.65 -1732.15 1911.1 L-1766.75 1951.45 -1796.75 1985.5 Q-1811.8 2002.45 -1827.65 2018.8 L-1858.45 2052.0 -1894.45 2070.2 Q-1913.3 2079.75 -1916.7 2088.0 -1920.1 2096.25 -1933.45 2106.4 -1977.25 2154.15 -2015.8 2209.95 -2059.15 2254.7 -2081.45 2284.75 -2080.5 2289.45 -2081.25 2292.5 -2082.1 2295.35 -2085.85 2300.2 -2093.85 2310.4 -2098.0 2314.45 -2100.1 2316.5 -2102.6 2318.15 -2104.6 2320.65 -2108.45 2321.9 -2116.65 2327.7 -2128.55 2339.95 L-2173.3 2401.4 Q-2180.75 2412.05 -2190.6 2423.25 -2197.45 2431.05 -2203.55 2436.95 -2211.9 2445.15 -2215.35 2445.6 -2216.3 2445.85 -2217.25 2446.15 -2218.2 2446.85 -2220.35 2449.95 L-2256.55 2484.0 -2296.3 2517.85 -2340.75 2575.25 -2344.25 2579.7 -2379.9 2623.4 Q-2383.85 2628.65 -2403.8 2652.1 L-2438.4 2692.45 -2468.4 2726.5 Q-2483.45 2743.45 -2499.3 2759.8 L-2530.1 2793.0 -2566.1 2811.2 Q-2584.95 2820.75 -2588.35 2829.0 -2591.75 2837.25 -2605.1 2847.4 -2648.9 2895.15 -2687.45 2950.95 -2745.5 3010.9 -2765.85 3044.35 -2770.25 3051.7 -2773.8 3058.5 -2776.05 3061.9 -2781.4 3063.25 -2787.9 3064.95 -2793.5 3061.85 -2799.3 3058.7 -2801.0 3052.3 -2801.85 3049.1 -2801.4 3045.45"/>
    </path>
  </g>
</svg>
