<?xml version="1.0" encoding="UTF-8" standalone="no"?>
<svg xmlns:xlink="http://www.w3.org/1999/xlink" height="76.35px" width="49.45px" xmlns="http://www.w3.org/2000/svg">
  <g transform="matrix(1.0, 0.0, 0.0, 1.0, 24.5, 94.5)">
    <path d="M-0.95 -31.1 Q-0.95 -25.75 2.8 -21.95 6.65 -18.15 12.0 -18.15 17.35 -18.15 21.2 -21.95 24.95 -25.75 24.95 -31.1 24.95 -36.5 21.2 -40.3 17.35 -44.1 12.0 -44.1 6.65 -44.1 2.8 -40.3 -0.95 -36.5 -0.95 -31.1" fill="#ffffff" fill-rule="evenodd" stroke="none">
      <animate attributeName="fill" dur="2s" repeatCount="indefinite" values="#ffffff;#ffffff"/>
      <animate attributeName="fill-opacity" dur="2s" repeatCount="indefinite" values="1.0;0.7019608"/>
      <animate attributeName="d" dur="2s" repeatCount="indefinite" values="M-0.95 -31.1 Q-0.95 -25.75 2.8 -21.95 6.65 -18.15 12.0 -18.15 17.35 -18.15 21.2 -21.95 24.95 -25.75 24.95 -31.1 24.95 -36.5 21.2 -40.3 17.35 -44.1 12.0 -44.1 6.65 -44.1 2.8 -40.3 -0.95 -36.5 -0.95 -31.1;M-24.5 -70.0 Q-24.5 -59.85 -17.35 -52.7 -10.15 -45.5 0.0 -45.5 10.15 -45.5 17.35 -52.7 24.5 -59.85 24.5 -70.0 24.5 -80.15 17.35 -87.35 10.15 -94.5 0.0 -94.5 -10.15 -94.5 -17.35 -87.35 -24.5 -80.15 -24.5 -70.0"/>
    </path>
    <path d="M-0.95 -31.1 Q-0.95 -36.5 2.8 -40.3 6.65 -44.1 12.0 -44.1 17.35 -44.1 21.2 -40.3 24.95 -36.5 24.95 -31.1 24.95 -25.75 21.2 -21.95 17.35 -18.15 12.0 -18.15 6.65 -18.15 2.8 -21.95 -0.95 -25.75 -0.95 -31.1" fill="none" stroke="#000000" stroke-linecap="round" stroke-linejoin="round" stroke-opacity="0.0" stroke-width="1.0">
      <animate attributeName="stroke" dur="2s" repeatCount="indefinite" values="#000000;#000001"/>
      <animate attributeName="stroke-width" dur="2s" repeatCount="indefinite" values="0.0;0.0"/>
      <animate attributeName="fill-opacity" dur="2s" repeatCount="indefinite" values="0.0;0.0"/>
      <animate attributeName="d" dur="2s" repeatCount="indefinite" values="M-0.95 -31.1 Q-0.95 -36.5 2.8 -40.3 6.65 -44.1 12.0 -44.1 17.35 -44.1 21.2 -40.3 24.95 -36.5 24.95 -31.1 24.95 -25.75 21.2 -21.95 17.35 -18.15 12.0 -18.15 6.65 -18.15 2.8 -21.95 -0.95 -25.75 -0.95 -31.1;M-24.5 -70.0 Q-24.5 -80.15 -17.35 -87.35 -10.15 -94.5 0.0 -94.5 10.15 -94.5 17.35 -87.35 24.5 -80.15 24.5 -70.0 24.5 -59.85 17.35 -52.7 10.15 -45.5 0.0 -45.5 -10.15 -45.5 -17.35 -52.7 -24.5 -59.85 -24.5 -70.0"/>
    </path>
  </g>
</svg>
