<?xml version="1.0" encoding="UTF-8" standalone="no"?>
<svg xmlns:xlink="http://www.w3.org/1999/xlink" height="83.5px" width="45.3px" xmlns="http://www.w3.org/2000/svg">
  <g transform="matrix(1.0, 0.0, 0.0, 1.0, 34.65, 104.65)">
    <path d="M-18.95 -34.1 Q-18.95 -28.75 -15.2 -24.95 -11.35 -21.15 -6.0 -21.15 -0.65 -21.15 3.2 -24.95 6.95 -28.75 6.95 -34.1 6.95 -39.5 3.2 -43.3 -0.65 -47.1 -6.0 -47.1 -11.35 -47.1 -15.2 -43.3 -18.95 -39.5 -18.95 -34.1" fill="#ffffff" fill-rule="evenodd" stroke="none">
      <animate attributeName="fill" dur="2s" repeatCount="indefinite" values="#ffffff;#ffffff"/>
      <animate attributeName="fill-opacity" dur="2s" repeatCount="indefinite" values="1.0;0.7019608"/>
      <animate attributeName="d" dur="2s" repeatCount="indefinite" values="M-18.95 -34.1 Q-18.95 -28.75 -15.2 -24.95 -11.35 -21.15 -6.0 -21.15 -0.65 -21.15 3.2 -24.95 6.95 -28.75 6.95 -34.1 6.95 -39.5 3.2 -43.3 -0.65 -47.1 -6.0 -47.1 -11.35 -47.1 -15.2 -43.3 -18.95 -39.5 -18.95 -34.1;M-34.65 -82.0 Q-34.65 -72.65 -28.05 -66.0 -21.4 -59.35 -12.0 -59.35 -2.6 -59.35 4.05 -66.0 10.65 -72.65 10.65 -82.0 10.65 -91.4 4.05 -98.05 -2.6 -104.65 -12.0 -104.65 -21.4 -104.65 -28.05 -98.05 -34.65 -91.4 -34.65 -82.0"/>
    </path>
    <path d="M-18.95 -34.1 Q-18.95 -39.5 -15.2 -43.3 -11.35 -47.1 -6.0 -47.1 -0.65 -47.1 3.2 -43.3 6.95 -39.5 6.95 -34.1 6.95 -28.75 3.2 -24.95 -0.65 -21.15 -6.0 -21.15 -11.35 -21.15 -15.2 -24.95 -18.95 -28.75 -18.95 -34.1" fill="none" stroke="#000000" stroke-linecap="round" stroke-linejoin="round" stroke-opacity="0.0" stroke-width="1.0">
      <animate attributeName="stroke" dur="2s" repeatCount="indefinite" values="#000000;#000001"/>
      <animate attributeName="stroke-width" dur="2s" repeatCount="indefinite" values="0.0;0.0"/>
      <animate attributeName="fill-opacity" dur="2s" repeatCount="indefinite" values="0.0;0.0"/>
      <animate attributeName="d" dur="2s" repeatCount="indefinite" values="M-18.95 -34.1 Q-18.95 -39.5 -15.2 -43.3 -11.35 -47.1 -6.0 -47.1 -0.65 -47.1 3.2 -43.3 6.95 -39.5 6.95 -34.1 6.95 -28.75 3.2 -24.95 -0.65 -21.15 -6.0 -21.15 -11.35 -21.15 -15.2 -24.95 -18.95 -28.75 -18.95 -34.1;M-34.65 -82.0 Q-34.65 -91.4 -28.05 -98.05 -21.4 -104.65 -12.0 -104.65 -2.6 -104.65 4.05 -98.05 10.65 -91.4 10.65 -82.0 10.65 -72.65 4.05 -66.0 -2.6 -59.35 -12.0 -59.35 -21.4 -59.35 -28.05 -66.0 -34.65 -72.65 -34.65 -82.0"/>
    </path>
  </g>
</svg>
