<?xml version="1.0" encoding="UTF-8" standalone="no"?>
<svg xmlns:xlink="http://www.w3.org/1999/xlink" height="63.1px" width="25.95px" xmlns="http://www.w3.org/2000/svg">
  <g transform="matrix(1.0, 0.0, 0.0, 1.0, 11.2, 59.3)">
    <path d="M-4.0 0.15 Q-3.9 1.75 -2.75 2.8 -1.55 3.9 0.0 3.8 1.55 3.7 2.55 2.5 3.6 1.25 3.5 -0.35 3.4 -1.95 2.25 -3.0 1.05 -4.1 -0.5 -4.0 -2.05 -3.9 -3.05 -2.7 -4.1 -1.45 -4.0 0.15" fill="#ffffff" fill-rule="evenodd" stroke="none">
      <animate attributeName="fill" dur="2s" repeatCount="indefinite" values="#ffffff;#ffffff"/>
      <animate attributeName="fill-opacity" dur="2s" repeatCount="indefinite" values="1.0;1.0"/>
      <animate attributeName="d" dur="2s" repeatCount="indefinite" values="M-4.0 0.15 Q-3.9 1.75 -2.75 2.8 -1.55 3.9 0.0 3.8 1.55 3.7 2.55 2.5 3.6 1.25 3.5 -0.35 3.4 -1.95 2.25 -3.0 1.05 -4.1 -0.5 -4.0 -2.05 -3.9 -3.05 -2.7 -4.1 -1.45 -4.0 0.15;M-11.15 -44.95 Q-10.8 -39.35 -6.8 -35.6 -2.7 -31.9 2.65 -32.25 7.95 -32.55 11.55 -36.75 15.05 -40.9 14.7 -46.5 14.35 -52.1 10.35 -55.9 6.3 -59.6 1.0 -59.3 -4.35 -58.95 -8.0 -54.75 -11.5 -50.55 -11.15 -44.95"/>
    </path>
    <path d="M-4.0 0.15 Q-4.1 -1.45 -3.05 -2.7 -2.05 -3.9 -0.5 -4.0 1.05 -4.1 2.25 -3.0 3.4 -1.95 3.5 -0.35 3.6 1.25 2.55 2.5 1.55 3.7 0.0 3.8 -1.55 3.9 -2.75 2.8 -3.9 1.75 -4.0 0.15" fill="none" stroke="#000000" stroke-linecap="round" stroke-linejoin="round" stroke-opacity="0.0" stroke-width="1.0">
      <animate attributeName="stroke" dur="2s" repeatCount="indefinite" values="#000000;#000001"/>
      <animate attributeName="stroke-width" dur="2s" repeatCount="indefinite" values="0.0;0.0"/>
      <animate attributeName="fill-opacity" dur="2s" repeatCount="indefinite" values="0.0;0.0"/>
      <animate attributeName="d" dur="2s" repeatCount="indefinite" values="M-4.0 0.15 Q-4.1 -1.45 -3.05 -2.7 -2.05 -3.9 -0.5 -4.0 1.05 -4.1 2.25 -3.0 3.4 -1.95 3.5 -0.35 3.6 1.25 2.55 2.5 1.55 3.7 0.0 3.8 -1.55 3.9 -2.75 2.8 -3.9 1.75 -4.0 0.15;M-11.15 -44.95 Q-11.5 -50.55 -8.0 -54.75 -4.35 -58.95 1.0 -59.3 6.3 -59.6 10.35 -55.9 14.35 -52.1 14.7 -46.5 15.05 -40.9 11.55 -36.75 7.95 -32.55 2.65 -32.25 -2.7 -31.9 -6.8 -35.6 -10.8 -39.35 -11.15 -44.95"/>
    </path>
  </g>
</svg>
