<?xml version="1.0" encoding="UTF-8" standalone="no"?>
<svg xmlns:xlink="http://www.w3.org/1999/xlink" height="263.4px" width="232.4px" xmlns="http://www.w3.org/2000/svg">
  <g transform="matrix(1.0, 0.0, 0.0, 1.0, -222.7, 196.05)">
    <path d="M255.45 63.85 L255.85 63.7 Q258.8 62.55 261.5 61.05 271.4 55.6 278.9 45.35 282.9 39.85 286.25 33.05 293.85 29.2 303.05 23.2 L307.25 20.4 Q309.95 18.55 312.6 16.75 318.1 12.75 323.55 8.75 L329.45 4.25 Q329.5 1.05 330.35 -2.35 332.1 -9.25 337.35 -17.0 339.45 -19.8 341.55 -22.6 L342.9 -24.2 Q345.35 -26.85 347.8 -29.5 356.8 -38.5 370.05 -46.3 375.5 -49.55 381.65 -52.6 389.65 -56.55 394.1 -60.6 403.05 -68.75 397.8 -77.2 L396.7 -78.7 Q394.65 -81.5 392.6 -84.3 389.9 -88.3 388.85 -91.05 387.55 -94.3 388.5 -95.8 391.05 -99.3 393.55 -102.75 397.05 -107.3 400.55 -111.85 L401.25 -112.75 Q402.9 -114.85 404.55 -116.95 L409.9 -123.95 419.35 -136.65 Q424.85 -144.2 428.8 -150.75 L433.15 -158.55 Q437.9 -168.1 438.6 -170.4 439.15 -172.15 441.9 -174.95 L443.95 -176.85 Q448.1 -180.6 451.1 -184.2 L451.75 -185.0 Q453.45 -187.0 454.3 -188.85 455.2 -190.9 455.05 -192.8 454.8 -196.05 452.35 -196.05 450.4 -196.05 447.8 -193.85 L445.35 -191.45 Q443.5 -189.55 441.7 -187.65 440.7 -186.65 439.7 -185.7 438.7 -184.75 437.75 -183.85 436.4 -182.65 435.05 -181.5 433.3 -180.1 431.55 -178.7 L430.75 -178.1 Q424.75 -173.6 419.45 -167.25 416.45 -163.45 412.75 -159.75 L408.75 -156.0 Q402.55 -150.5 392.5 -138.9 384.25 -129.35 378.3 -117.9 L376.25 -113.75 Q369.65 -99.8 369.05 -94.9 368.5 -91.8 365.75 -85.75 363.95 -82.1 362.2 -78.5 L359.65 -73.9 Q356.2 -67.95 352.3 -62.6 L347.95 -56.85 Q339.35 -46.3 327.7 -33.25 315.2 -19.25 299.2 -2.35 L272.65 25.15 260.95 37.45 Q226.55 74.9 255.45 63.85" fill="#fffbee" fill-opacity="0.8" fill-rule="evenodd" stroke="none">
      <animate attributeName="fill" dur="2s" repeatCount="indefinite" values="#fffbee;#fffbef"/>
      <animate attributeName="fill-opacity" dur="2s" repeatCount="indefinite" values="0.8;0.8"/>
      <animate attributeName="d" dur="2s" repeatCount="indefinite" values="M255.45 63.85 L255.85 63.7 Q258.8 62.55 261.5 61.05 271.4 55.6 278.9 45.35 282.9 39.85 286.25 33.05 293.85 29.2 303.05 23.2 L307.25 20.4 Q309.95 18.55 312.6 16.75 318.1 12.75 323.55 8.75 L329.45 4.25 Q329.5 1.05 330.35 -2.35 332.1 -9.25 337.35 -17.0 339.45 -19.8 341.55 -22.6 L342.9 -24.2 Q345.35 -26.85 347.8 -29.5 356.8 -38.5 370.05 -46.3 375.5 -49.55 381.65 -52.6 389.65 -56.55 394.1 -60.6 403.05 -68.75 397.8 -77.2 L396.7 -78.7 Q394.65 -81.5 392.6 -84.3 389.9 -88.3 388.85 -91.05 387.55 -94.3 388.5 -95.8 391.05 -99.3 393.55 -102.75 397.05 -107.3 400.55 -111.85 L401.25 -112.75 Q402.9 -114.85 404.55 -116.95 L409.9 -123.95 419.35 -136.65 Q424.85 -144.2 428.8 -150.75 L433.15 -158.55 Q437.9 -168.1 438.6 -170.4 439.15 -172.15 441.9 -174.95 L443.95 -176.85 Q448.1 -180.6 451.1 -184.2 L451.75 -185.0 Q453.45 -187.0 454.3 -188.85 455.2 -190.9 455.05 -192.8 454.8 -196.05 452.35 -196.05 450.4 -196.05 447.8 -193.85 L445.35 -191.45 Q443.5 -189.55 441.7 -187.65 440.7 -186.65 439.7 -185.7 438.7 -184.75 437.75 -183.85 436.4 -182.65 435.05 -181.5 433.3 -180.1 431.55 -178.7 L430.75 -178.1 Q424.75 -173.6 419.45 -167.25 416.45 -163.45 412.75 -159.75 L408.75 -156.0 Q402.55 -150.5 392.5 -138.9 384.25 -129.35 378.3 -117.9 L376.25 -113.75 Q369.65 -99.8 369.05 -94.9 368.5 -91.8 365.75 -85.75 363.95 -82.1 362.2 -78.5 L359.65 -73.9 Q356.2 -67.95 352.3 -62.6 L347.95 -56.85 Q339.35 -46.3 327.7 -33.25 315.2 -19.25 299.2 -2.35 L272.65 25.15 260.95 37.45 Q226.55 74.9 255.45 63.85;M222.7 64.3 L222.7 64.3 Q222.7 67.35 227.75 67.35 236.45 67.35 251.1 61.2 258.35 58.15 264.5 54.45 273.95 48.7 280.85 41.35 L283.75 37.0 Q286.45 33.05 288.5 32.0 292.05 30.2 300.5 24.95 L306.9 20.65 Q309.8 18.65 312.65 16.65 319.5 11.7 326.3 6.8 329.55 4.45 330.3 0.5 L330.75 -1.8 Q331.75 -6.65 332.9 -9.15 336.7 -17.55 350.35 -31.9 353.55 -35.25 360.9 -40.2 366.05 -43.65 373.25 -47.9 382.05 -53.1 390.05 -57.35 L391.75 -58.5 Q396.15 -61.6 397.35 -62.95 399.8 -65.75 399.8 -70.25 399.8 -72.3 398.8 -74.75 397.4 -78.15 394.0 -82.45 388.8 -88.95 388.2 -93.1 L388.15 -94.05 Q388.15 -94.75 390.9 -98.8 L396.2 -106.15 406.45 -119.1 Q411.85 -125.85 417.2 -132.6 L422.3 -139.85 Q425.65 -144.95 429.0 -150.85 430.45 -153.5 431.9 -156.1 L433.25 -158.65 Q435.45 -163.2 437.6 -167.75 L438.05 -168.8 Q439.75 -172.55 440.3 -173.15 441.6 -174.6 442.9 -176.05 444.55 -177.9 446.15 -179.7 448.05 -181.75 449.9 -183.8 L452.3 -186.75 Q455.1 -190.35 455.1 -191.8 455.1 -193.85 454.65 -194.75 454.05 -196.05 452.35 -196.05 451.15 -196.05 448.85 -194.5 446.55 -193.0 445.35 -191.45 L444.75 -190.75 Q441.2 -186.4 432.95 -179.85 425.9 -174.25 424.55 -172.8 L420.45 -168.7 Q411.4 -159.5 402.35 -150.35 393.7 -141.5 385.8 -130.15 L382.95 -125.9 Q376.9 -116.5 373.3 -107.9 371.5 -102.95 369.75 -98.0 369.1 -95.35 366.95 -89.9 L364.9 -85.05 Q360.7 -75.15 358.35 -72.1 L353.75 -66.2 Q342.65 -52.25 331.2 -41.25 314.7 -26.25 298.2 -11.3 L267.25 15.2 254.55 26.45 Q222.7 55.15 222.7 64.3"/>
    </path>
    <path d="M255.45 63.85 Q226.55 74.9 260.95 37.45 L272.65 25.15 299.2 -2.35 Q315.2 -19.25 327.7 -33.25 339.35 -46.3 347.95 -56.85 L352.3 -62.6 Q356.2 -67.95 359.65 -73.9 L362.2 -78.5 Q363.95 -82.1 365.75 -85.75 368.5 -91.8 369.05 -94.9 369.65 -99.8 376.25 -113.75 L378.3 -117.9 Q384.25 -129.35 392.5 -138.9 402.55 -150.5 408.75 -156.0 L412.75 -159.75 Q416.45 -163.45 419.45 -167.25 424.75 -173.6 430.75 -178.1 L431.55 -178.7 Q433.3 -180.1 435.05 -181.5 436.4 -182.65 437.75 -183.85 438.7 -184.75 439.7 -185.7 440.7 -186.65 441.7 -187.65 443.5 -189.55 445.35 -191.45 L447.8 -193.85 Q450.4 -196.05 452.35 -196.05 454.8 -196.05 455.05 -192.8 455.2 -190.9 454.3 -188.85 453.45 -187.0 451.75 -185.0 L451.1 -184.2 Q448.1 -180.6 443.95 -176.85 L441.9 -174.95 Q439.15 -172.15 438.6 -170.4 437.9 -168.1 433.15 -158.55 L428.8 -150.75 Q424.85 -144.2 419.35 -136.65 L409.9 -123.95 404.55 -116.95 Q402.9 -114.85 401.25 -112.75 L400.55 -111.85 Q397.05 -107.3 393.55 -102.75 391.05 -99.3 388.5 -95.8 387.55 -94.3 388.85 -91.05 389.9 -88.3 392.6 -84.3 394.65 -81.5 396.7 -78.7 L397.8 -77.2 Q403.05 -68.75 394.1 -60.6 389.65 -56.55 381.65 -52.6 375.5 -49.55 370.05 -46.3 356.8 -38.5 347.8 -29.5 345.35 -26.85 342.9 -24.2 L341.55 -22.6 Q339.45 -19.8 337.35 -17.0 332.1 -9.25 330.35 -2.35 329.5 1.05 329.45 4.25 L323.55 8.75 Q318.1 12.75 312.6 16.75 309.95 18.55 307.25 20.4 L303.05 23.2 Q293.85 29.2 286.25 33.05 282.9 39.85 278.9 45.35 271.4 55.6 261.5 61.05 258.8 62.55 255.85 63.7 L255.45 63.85" fill="none" stroke="#000000" stroke-linecap="round" stroke-linejoin="round" stroke-opacity="0.0" stroke-width="1.0">
      <animate attributeName="stroke" dur="2s" repeatCount="indefinite" values="#000000;#000001"/>
      <animate attributeName="stroke-width" dur="2s" repeatCount="indefinite" values="0.0;0.0"/>
      <animate attributeName="fill-opacity" dur="2s" repeatCount="indefinite" values="0.0;0.0"/>
      <animate attributeName="d" dur="2s" repeatCount="indefinite" values="M255.45 63.85 Q226.55 74.9 260.95 37.45 L272.65 25.15 299.2 -2.35 Q315.2 -19.25 327.7 -33.25 339.35 -46.3 347.95 -56.85 L352.3 -62.6 Q356.2 -67.95 359.65 -73.9 L362.2 -78.5 Q363.95 -82.1 365.75 -85.75 368.5 -91.8 369.05 -94.9 369.65 -99.8 376.25 -113.75 L378.3 -117.9 Q384.25 -129.35 392.5 -138.9 402.55 -150.5 408.75 -156.0 L412.75 -159.75 Q416.45 -163.45 419.45 -167.25 424.75 -173.6 430.75 -178.1 L431.55 -178.7 Q433.3 -180.1 435.05 -181.5 436.4 -182.65 437.75 -183.85 438.7 -184.75 439.7 -185.7 440.7 -186.65 441.7 -187.65 443.5 -189.55 445.35 -191.45 L447.8 -193.85 Q450.4 -196.05 452.35 -196.05 454.8 -196.05 455.05 -192.8 455.2 -190.9 454.3 -188.85 453.45 -187.0 451.75 -185.0 L451.1 -184.2 Q448.1 -180.6 443.95 -176.85 L441.9 -174.95 Q439.15 -172.15 438.6 -170.4 437.9 -168.1 433.15 -158.55 L428.8 -150.75 Q424.85 -144.2 419.35 -136.65 L409.9 -123.95 404.55 -116.95 Q402.9 -114.85 401.25 -112.75 L400.55 -111.85 Q397.05 -107.3 393.55 -102.75 391.05 -99.3 388.5 -95.8 387.55 -94.3 388.85 -91.05 389.9 -88.3 392.6 -84.3 394.65 -81.5 396.7 -78.7 L397.8 -77.2 Q403.05 -68.75 394.1 -60.6 389.65 -56.55 381.65 -52.6 375.5 -49.55 370.05 -46.3 356.8 -38.5 347.8 -29.5 345.35 -26.85 342.9 -24.2 L341.55 -22.6 Q339.45 -19.8 337.35 -17.0 332.1 -9.25 330.35 -2.35 329.5 1.05 329.45 4.25 L323.55 8.75 Q318.1 12.75 312.6 16.75 309.95 18.55 307.25 20.4 L303.05 23.2 Q293.85 29.2 286.25 33.05 282.9 39.85 278.9 45.35 271.4 55.6 261.5 61.05 258.8 62.55 255.85 63.7 L255.45 63.85;M222.7 64.3 Q222.7 55.15 254.55 26.45 L267.25 15.2 298.2 -11.3 Q314.7 -26.25 331.2 -41.25 342.65 -52.25 353.75 -66.2 L358.35 -72.1 Q360.7 -75.15 364.9 -85.05 L366.95 -89.9 Q369.1 -95.35 369.75 -98.0 371.5 -102.95 373.3 -107.9 376.9 -116.5 382.95 -125.9 L385.8 -130.15 Q393.7 -141.5 402.35 -150.35 411.4 -159.5 420.45 -168.7 L424.55 -172.8 Q425.9 -174.25 432.95 -179.85 441.2 -186.4 444.75 -190.75 L445.35 -191.45 Q446.55 -193.0 448.85 -194.5 451.15 -196.05 452.35 -196.05 454.05 -196.05 454.65 -194.75 455.1 -193.85 455.1 -191.8 455.1 -190.35 452.3 -186.75 L449.9 -183.8 Q448.05 -181.75 446.15 -179.7 444.55 -177.9 442.9 -176.05 441.6 -174.6 440.3 -173.15 439.75 -172.55 438.05 -168.8 L437.6 -167.75 Q435.45 -163.2 433.25 -158.65 L431.9 -156.1 Q430.45 -153.5 429.0 -150.85 425.65 -144.95 422.3 -139.85 L417.2 -132.6 Q411.85 -125.85 406.45 -119.1 L396.2 -106.15 390.9 -98.8 Q388.15 -94.75 388.15 -94.05 L388.2 -93.1 Q388.8 -88.95 394.0 -82.45 397.4 -78.15 398.8 -74.75 399.8 -72.3 399.8 -70.25 399.8 -65.75 397.35 -62.95 396.15 -61.6 391.75 -58.5 L390.05 -57.35 Q382.05 -53.1 373.25 -47.9 366.05 -43.65 360.9 -40.2 353.55 -35.25 350.35 -31.9 336.7 -17.55 332.9 -9.15 331.75 -6.65 330.75 -1.8 L330.3 0.5 Q329.55 4.45 326.3 6.8 319.5 11.7 312.65 16.65 309.8 18.65 306.9 20.65 L300.5 24.95 Q292.05 30.2 288.5 32.0 286.45 33.05 283.75 37.0 L280.85 41.35 Q273.95 48.7 264.5 54.45 258.35 58.15 251.1 61.2 236.45 67.35 227.75 67.35 222.7 67.35 222.7 64.3 L222.7 64.3"/>
    </path>
  </g>
</svg>
