<?xml version="1.0" encoding="UTF-8" standalone="no"?>
<svg xmlns:xlink="http://www.w3.org/1999/xlink" height="1839.8px" width="1686.95px" xmlns="http://www.w3.org/2000/svg">
  <g transform="matrix(1.0, 0.0, 0.0, 1.0, 493.4, 1007.8)">
    <path d="M-493.25 813.6 Q-493.7 817.25 -492.85 820.45 -491.15 826.85 -485.35 830.0 -479.75 833.1 -473.25 831.4 -467.9 830.05 -465.65 826.65 -461.65 819.55 -457.7 812.5 -437.35 779.05 -379.3 719.1 -340.75 663.3 -296.95 615.55 -283.6 605.4 -280.2 597.15 -276.8 588.9 -257.95 579.35 L-221.95 561.15 -191.15 527.95 Q-175.3 511.6 -160.25 494.65 L-130.25 460.6 -95.65 420.25 Q-75.7 396.8 -71.75 391.55 L-36.1 347.85 -32.6 343.4 11.85 286.0 51.6 252.15 87.8 218.1 Q89.95 215.0 92.8 213.75 96.25 213.3 104.6 205.1 110.7 199.2 117.55 191.4 127.4 180.2 134.85 169.55 L179.6 108.1 Q194.7 92.55 203.85 87.35 207.35 85.3 210.15 82.6 214.3 78.55 222.3 68.35 226.05 63.5 226.9 60.65 227.8 57.0 226.2 50.85 224.45 43.9 217.6 40.5 211.5 37.4 205.5 38.95 201.0 40.05 197.6 42.7 193.4 45.95 191.45 51.2 L187.4 59.15 Q182.9 68.6 180.3 76.75 177.3 86.75 174.55 91.65 173.1 94.15 172.3 94.75 168.75 99.85 155.8 116.0 L91.65 185.25 Q88.1 189.65 85.85 193.4 L78.6 204.5 46.3 239.65 4.7 279.9 -18.0 312.0 -38.45 338.8 -69.0 375.4 Q-77.8 385.45 -101.1 409.9 -131.2 441.55 -141.3 449.85 L-174.9 479.55 -209.4 508.2 -282.2 562.3 Q-307.9 594.0 -325.85 617.25 -343.8 640.5 -358.55 659.05 -373.35 677.6 -377.75 687.0 L-457.65 769.35 Q-470.55 785.2 -477.25 792.45 -484.35 800.4 -491.4 808.35 -492.8 809.95 -493.25 813.6" fill="#fffbee" fill-opacity="0.8" fill-rule="evenodd" stroke="none">
      <animate attributeName="fill" dur="2s" repeatCount="indefinite" values="#fffbee;#fffbef"/>
      <animate attributeName="fill-opacity" dur="2s" repeatCount="indefinite" values="0.8;0.8"/>
      <animate attributeName="d" dur="2s" repeatCount="indefinite" values="M-493.25 813.6 Q-493.7 817.25 -492.85 820.45 -491.15 826.85 -485.35 830.0 -479.75 833.1 -473.25 831.4 -467.9 830.05 -465.65 826.65 -461.65 819.55 -457.7 812.5 -437.35 779.05 -379.3 719.1 -340.75 663.3 -296.95 615.55 -283.6 605.4 -280.2 597.15 -276.8 588.9 -257.95 579.35 L-221.95 561.15 -191.15 527.95 Q-175.3 511.6 -160.25 494.65 L-130.25 460.6 -95.65 420.25 Q-75.7 396.8 -71.75 391.55 L-36.1 347.85 -32.6 343.4 11.85 286.0 51.6 252.15 87.8 218.1 Q89.95 215.0 92.8 213.75 96.25 213.3 104.6 205.1 110.7 199.2 117.55 191.4 127.4 180.2 134.85 169.55 L179.6 108.1 Q194.7 92.55 203.85 87.35 207.35 85.3 210.15 82.6 214.3 78.55 222.3 68.35 226.05 63.5 226.9 60.65 227.8 57.0 226.2 50.85 224.45 43.9 217.6 40.5 211.5 37.4 205.5 38.95 201.0 40.05 197.6 42.7 193.4 45.95 191.45 51.2 L187.4 59.15 Q182.9 68.6 180.3 76.75 177.3 86.75 174.55 91.65 173.1 94.15 172.3 94.75 168.75 99.85 155.8 116.0 L91.65 185.25 Q88.1 189.65 85.85 193.4 L78.6 204.5 46.3 239.65 4.7 279.9 -18.0 312.0 -38.45 338.8 -69.0 375.4 Q-77.8 385.45 -101.1 409.9 -131.2 441.55 -141.3 449.85 L-174.9 479.55 -209.4 508.2 -282.2 562.3 Q-307.9 594.0 -325.85 617.25 -343.8 640.5 -358.55 659.05 -373.35 677.6 -377.75 687.0 L-457.65 769.35 Q-470.55 785.2 -477.25 792.45 -484.35 800.4 -491.4 808.35 -492.8 809.95 -493.25 813.6;M473.1 -232.65 Q472.65 -229.0 473.5 -225.8 475.2 -219.4 481.0 -216.25 486.6 -213.15 493.1 -214.85 498.45 -216.2 500.7 -219.6 504.25 -226.4 508.65 -233.75 529.0 -267.2 587.05 -327.15 625.6 -382.95 669.4 -430.7 682.75 -440.85 686.15 -449.1 689.55 -457.35 708.4 -466.9 L744.4 -485.1 775.2 -518.3 Q791.05 -534.65 806.1 -551.6 L836.1 -585.65 870.7 -626.0 Q890.65 -649.45 894.6 -654.7 L930.25 -698.4 933.75 -702.85 978.2 -760.25 1017.95 -794.1 1054.15 -828.15 Q1056.3 -831.25 1059.15 -832.5 1062.6 -832.95 1070.95 -841.15 1077.05 -847.05 1083.9 -854.85 1093.75 -866.05 1101.2 -876.7 L1145.95 -938.15 Q1161.05 -953.7 1170.2 -958.9 1173.7 -960.95 1176.5 -963.65 1180.65 -967.7 1188.65 -977.9 1192.4 -982.75 1193.25 -985.6 1194.15 -989.25 1192.55 -995.4 1190.8 -1002.35 1183.95 -1005.75 1177.85 -1008.85 1171.85 -1007.3 1167.35 -1006.2 1163.95 -1003.55 1159.75 -1000.3 1157.8 -995.05 L1153.75 -987.1 Q1149.25 -977.65 1146.65 -969.5 1143.65 -959.5 1140.9 -954.6 1139.45 -952.1 1138.65 -951.5 1135.1 -946.4 1122.15 -930.25 L1058.0 -861.0 Q1054.45 -856.6 1052.2 -852.85 L1044.95 -841.75 1012.65 -806.6 971.05 -766.35 948.35 -734.25 927.9 -707.45 897.35 -670.85 Q888.55 -660.8 865.25 -636.35 835.15 -604.7 825.05 -596.4 L791.45 -566.7 756.95 -538.05 684.15 -483.95 Q658.45 -452.25 640.5 -429.0 622.55 -405.75 607.8 -387.2 593.0 -368.65 588.6 -359.25 L508.7 -276.9 Q495.8 -261.05 489.1 -253.8 480.8 -244.85 474.95 -237.9 473.55 -236.3 473.1 -232.65"/>
    </path>
    <path d="M-493.25 813.6 Q-492.8 809.95 -491.4 808.35 -484.35 800.4 -477.25 792.45 -470.55 785.2 -457.65 769.35 L-377.75 687.0 Q-373.35 677.6 -358.55 659.05 -343.8 640.5 -325.85 617.25 -307.9 594.0 -282.2 562.3 L-209.4 508.2 -174.9 479.55 -141.3 449.85 Q-131.2 441.55 -101.1 409.9 -77.8 385.45 -69.0 375.4 L-38.45 338.8 -18.0 312.0 4.7 279.9 46.3 239.65 78.6 204.5 85.85 193.4 Q88.1 189.65 91.65 185.25 L155.8 116.0 Q168.75 99.85 172.3 94.75 173.1 94.15 174.55 91.65 177.3 86.75 180.3 76.75 182.9 68.6 187.4 59.15 L191.45 51.2 Q193.4 45.95 197.6 42.7 201.0 40.05 205.5 38.95 211.5 37.4 217.6 40.5 224.45 43.9 226.2 50.85 227.8 57.0 226.9 60.65 226.05 63.5 222.3 68.35 214.3 78.55 210.15 82.6 207.35 85.3 203.85 87.35 194.7 92.55 179.6 108.1 L134.85 169.55 Q127.4 180.2 117.55 191.4 110.7 199.2 104.6 205.1 96.25 213.3 92.8 213.75 89.95 215.0 87.8 218.1 L51.6 252.15 11.85 286.0 -32.6 343.4 -36.1 347.85 -71.75 391.55 Q-75.7 396.8 -95.65 420.25 L-130.25 460.6 -160.25 494.65 Q-175.3 511.6 -191.15 527.95 L-221.95 561.15 -257.95 579.35 Q-276.8 588.9 -280.2 597.15 -283.6 605.4 -296.95 615.55 -340.75 663.3 -379.3 719.1 -437.35 779.05 -457.7 812.5 -461.65 819.55 -465.65 826.65 -467.9 830.05 -473.25 831.4 -479.75 833.1 -485.35 830.0 -491.15 826.85 -492.85 820.45 -493.7 817.25 -493.25 813.6" fill="none" stroke="#000000" stroke-linecap="round" stroke-linejoin="round" stroke-opacity="0.0" stroke-width="1.0">
      <animate attributeName="stroke" dur="2s" repeatCount="indefinite" values="#000000;#000001"/>
      <animate attributeName="stroke-width" dur="2s" repeatCount="indefinite" values="0.0;0.0"/>
      <animate attributeName="fill-opacity" dur="2s" repeatCount="indefinite" values="0.0;0.0"/>
      <animate attributeName="d" dur="2s" repeatCount="indefinite" values="M-493.25 813.6 Q-492.8 809.95 -491.4 808.35 -484.35 800.4 -477.25 792.45 -470.55 785.2 -457.65 769.35 L-377.75 687.0 Q-373.35 677.6 -358.55 659.05 -343.8 640.5 -325.85 617.25 -307.9 594.0 -282.2 562.3 L-209.4 508.2 -174.9 479.55 -141.3 449.85 Q-131.2 441.55 -101.1 409.9 -77.8 385.45 -69.0 375.4 L-38.45 338.8 -18.0 312.0 4.7 279.9 46.3 239.65 78.6 204.5 85.85 193.4 Q88.1 189.65 91.65 185.25 L155.8 116.0 Q168.75 99.85 172.3 94.75 173.1 94.15 174.55 91.65 177.3 86.75 180.3 76.75 182.9 68.6 187.4 59.15 L191.45 51.2 Q193.4 45.95 197.6 42.7 201.0 40.05 205.5 38.95 211.5 37.4 217.6 40.5 224.45 43.9 226.2 50.85 227.8 57.0 226.9 60.65 226.05 63.5 222.3 68.35 214.3 78.55 210.15 82.6 207.35 85.3 203.85 87.35 194.7 92.55 179.6 108.1 L134.85 169.55 Q127.4 180.2 117.55 191.4 110.7 199.2 104.6 205.1 96.25 213.3 92.8 213.75 89.95 215.0 87.8 218.1 L51.6 252.15 11.85 286.0 -32.6 343.4 -36.1 347.85 -71.75 391.55 Q-75.7 396.8 -95.65 420.25 L-130.25 460.6 -160.25 494.65 Q-175.3 511.6 -191.15 527.95 L-221.95 561.15 -257.95 579.35 Q-276.8 588.9 -280.2 597.15 -283.6 605.4 -296.95 615.55 -340.75 663.3 -379.3 719.1 -437.35 779.05 -457.7 812.5 -461.65 819.55 -465.65 826.65 -467.9 830.05 -473.25 831.4 -479.75 833.1 -485.35 830.0 -491.15 826.85 -492.85 820.45 -493.7 817.25 -493.25 813.6;M473.1 -232.65 Q473.55 -236.3 474.95 -237.9 480.8 -244.85 489.1 -253.8 495.8 -261.05 508.7 -276.9 L588.6 -359.25 Q593.0 -368.65 607.8 -387.2 622.55 -405.75 640.5 -429.0 658.45 -452.25 684.15 -483.95 L756.95 -538.05 791.45 -566.7 825.05 -596.4 Q835.15 -604.7 865.25 -636.35 888.55 -660.8 897.35 -670.85 L927.9 -707.45 948.35 -734.25 971.05 -766.35 1012.65 -806.6 1044.95 -841.75 1052.2 -852.85 Q1054.45 -856.6 1058.0 -861.0 L1122.15 -930.25 Q1135.1 -946.4 1138.65 -951.5 1139.45 -952.1 1140.9 -954.6 1143.65 -959.5 1146.65 -969.5 1149.25 -977.65 1153.75 -987.1 L1157.8 -995.05 Q1159.75 -1000.3 1163.95 -1003.55 1167.35 -1006.2 1171.85 -1007.3 1177.85 -1008.85 1183.95 -1005.75 1190.8 -1002.35 1192.55 -995.4 1194.15 -989.25 1193.25 -985.6 1192.4 -982.75 1188.65 -977.9 1180.65 -967.7 1176.5 -963.65 1173.7 -960.95 1170.2 -958.9 1161.05 -953.7 1145.95 -938.15 L1101.2 -876.7 Q1093.75 -866.05 1083.9 -854.85 1077.05 -847.05 1070.95 -841.15 1062.6 -832.95 1059.15 -832.5 1056.3 -831.25 1054.15 -828.15 L1017.95 -794.1 978.2 -760.25 933.75 -702.85 930.25 -698.4 894.6 -654.7 Q890.65 -649.45 870.7 -626.0 L836.1 -585.65 806.1 -551.6 Q791.05 -534.65 775.2 -518.3 L744.4 -485.1 708.4 -466.9 Q689.55 -457.35 686.15 -449.1 682.75 -440.85 669.4 -430.7 625.6 -382.95 587.05 -327.15 529.0 -267.2 508.65 -233.75 504.25 -226.4 500.7 -219.6 498.45 -216.2 493.1 -214.85 486.6 -213.15 481.0 -216.25 475.2 -219.4 473.5 -225.8 472.65 -229.0 473.1 -232.65"/>
    </path>
  </g>
</svg>
