<?xml version="1.0" encoding="UTF-8" standalone="no"?>
<svg xmlns:xlink="http://www.w3.org/1999/xlink" height="26.6px" width="6.9px" xmlns="http://www.w3.org/2000/svg">
  <g transform="matrix(1.0, 0.0, 0.0, 1.0, 5.75, 17.15)">
    <path d="M-4.8 -5.35 L-4.8 -5.35 Q-3.7 0.65 -2.55 0.75 L-1.2 0.5 -0.85 0.05 -0.35 -1.35 Q-1.0 -1.35 -1.7 -3.0 -1.95 -3.8 -2.2 -4.55 -2.7 -6.35 -2.5 -7.75 -2.35 -8.95 -1.7 -9.85 -0.8 -11.15 0.0 -13.15 0.45 -14.35 0.85 -15.55 1.85 -18.8 -0.65 -15.45 -1.8 -13.8 -2.9 -12.15 -4.85 -8.65 -4.8 -5.35" fill="#fff6f0" fill-opacity="0.8" fill-rule="evenodd" stroke="none">
      <animate attributeName="fill" dur="2s" repeatCount="indefinite" values="#fff6f0;#fff6f1"/>
      <animate attributeName="fill-opacity" dur="2s" repeatCount="indefinite" values="0.8;0.8"/>
      <animate attributeName="d" dur="2s" repeatCount="indefinite" values="M-4.8 -5.35 L-4.8 -5.35 Q-3.7 0.65 -2.55 0.75 L-1.2 0.5 -0.85 0.05 -0.35 -1.35 Q-1.0 -1.35 -1.7 -3.0 -1.95 -3.8 -2.2 -4.55 -2.7 -6.35 -2.5 -7.75 -2.35 -8.95 -1.7 -9.85 -0.8 -11.15 0.0 -13.15 0.45 -14.35 0.85 -15.55 1.85 -18.8 -0.65 -15.45 -1.8 -13.8 -2.9 -12.15 -4.85 -8.65 -4.8 -5.35;M-5.75 -2.8 L-5.75 -2.7 Q-5.85 1.5 -4.9 4.15 L-4.35 5.35 -4.05 5.9 -3.15 7.3 Q-2.5 8.35 -1.85 9.4 -0.55 9.55 -0.05 9.05 0.7 8.35 -0.45 6.15 -1.0 5.05 -1.5 3.95 -2.5 1.65 -2.9 -0.2 -3.15 -1.4 -2.95 -2.8 -2.7 -4.65 -1.65 -6.95 -1.3 -7.75 -2.45 -9.35 -5.15 -7.8 -5.75 -2.8"/>
    </path>
    <path d="M-4.8 -5.35 Q-4.85 -8.65 -2.9 -12.15 -1.8 -13.8 -0.65 -15.45 1.85 -18.8 0.85 -15.55 0.45 -14.35 0.0 -13.15 -0.8 -11.15 -1.7 -9.85 -2.35 -8.95 -2.5 -7.75 -2.7 -6.35 -2.2 -4.55 -1.95 -3.8 -1.7 -3.0 -1.0 -1.35 -0.35 -1.35 L-0.85 0.05 -1.2 0.5 -2.55 0.75 Q-3.7 0.65 -4.8 -5.35 L-4.8 -5.35" fill="none" stroke="#000000" stroke-linecap="round" stroke-linejoin="round" stroke-opacity="0.0" stroke-width="1.0">
      <animate attributeName="stroke" dur="2s" repeatCount="indefinite" values="#000000;#000001"/>
      <animate attributeName="stroke-width" dur="2s" repeatCount="indefinite" values="0.0;0.0"/>
      <animate attributeName="fill-opacity" dur="2s" repeatCount="indefinite" values="0.0;0.0"/>
      <animate attributeName="d" dur="2s" repeatCount="indefinite" values="M-4.8 -5.35 Q-4.85 -8.65 -2.9 -12.15 -1.8 -13.8 -0.65 -15.45 1.85 -18.8 0.85 -15.55 0.45 -14.35 0.0 -13.15 -0.8 -11.15 -1.7 -9.85 -2.35 -8.95 -2.5 -7.75 -2.7 -6.35 -2.2 -4.55 -1.95 -3.8 -1.7 -3.0 -1.0 -1.35 -0.35 -1.35 L-0.85 0.05 -1.2 0.5 -2.55 0.75 Q-3.7 0.65 -4.8 -5.35 L-4.8 -5.35;M-5.75 -2.8 Q-5.15 -7.8 -2.45 -9.35 -1.3 -7.75 -1.65 -6.95 -2.7 -4.65 -2.95 -2.8 -3.15 -1.4 -2.9 -0.2 -2.5 1.65 -1.5 3.95 -1.0 5.05 -0.45 6.15 0.7 8.35 -0.05 9.05 -0.55 9.55 -1.85 9.4 -2.5 8.35 -3.15 7.3 L-4.05 5.9 -4.35 5.35 -4.9 4.15 Q-5.85 1.5 -5.75 -2.7 L-5.75 -2.8"/>
    </path>
  </g>
</svg>
