<?xml version="1.0" encoding="UTF-8" standalone="no"?>
<svg xmlns:xlink="http://www.w3.org/1999/xlink" height="35.75px" width="17.45px" xmlns="http://www.w3.org/2000/svg">
  <g transform="matrix(1.0, 0.0, 0.0, 1.0, 5.25, 0.45)">
    <path d="M-5.25 2.65 L-5.25 2.75 Q-5.1 6.9 -3.2 10.95 L-1.5 14.05 -0.9 14.95 -0.35 15.65 0.2 16.5 Q1.7 18.7 2.15 20.3 L2.25 20.8 Q2.6 23.05 4.35 23.8 L4.45 23.8 4.9 23.8 5.0 23.75 5.35 23.35 Q5.95 23.4 6.0 22.6 L5.85 21.8 5.1 19.9 3.2 18.05 1.35 15.45 Q0.15 13.05 -1.05 10.7 -2.0 8.4 -2.3 6.5 L-2.4 5.15 Q-2.4 3.7 -3.05 0.55 -5.45 -2.2 -5.25 2.65" fill="#fff6f0" fill-opacity="0.8" fill-rule="evenodd" stroke="none">
      <animate attributeName="fill" dur="2s" repeatCount="indefinite" values="#fff6f0;#fff6f1"/>
      <animate attributeName="fill-opacity" dur="2s" repeatCount="indefinite" values="0.8;0.8"/>
      <animate attributeName="d" dur="2s" repeatCount="indefinite" values="M-5.25 2.65 L-5.25 2.75 Q-5.1 6.9 -3.2 10.95 L-1.5 14.05 -0.9 14.95 -0.35 15.65 0.2 16.5 Q1.7 18.7 2.15 20.3 L2.25 20.8 Q2.6 23.05 4.35 23.8 L4.45 23.8 4.9 23.8 5.0 23.75 5.35 23.35 Q5.95 23.4 6.0 22.6 L5.85 21.8 5.1 19.9 3.2 18.05 1.35 15.45 Q0.15 13.05 -1.05 10.7 -2.0 8.4 -2.3 6.5 L-2.4 5.15 Q-2.4 3.7 -3.05 0.55 -5.45 -2.2 -5.25 2.65;M-1.9 8.45 L-1.9 8.45 Q-0.55 13.35 1.75 17.6 L3.95 21.8 4.55 23.15 5.0 24.25 5.55 25.5 Q6.4 27.85 7.2 30.15 L7.4 30.75 Q8.3 33.4 9.7 34.5 L9.9 34.65 10.5 34.9 10.75 34.9 11.25 35.15 Q12.35 35.6 12.15 34.7 L12.05 33.95 11.05 31.55 9.25 28.7 7.1 25.25 Q6.1 23.4 5.0 19.15 4.4 17.15 3.25 14.75 L2.6 13.35 Q1.7 10.65 0.85 8.0 -3.25 3.55 -1.9 8.45"/>
    </path>
    <path d="M-5.25 2.65 Q-5.45 -2.2 -3.05 0.55 -2.4 3.7 -2.4 5.15 L-2.3 6.5 Q-2.0 8.4 -1.05 10.7 0.15 13.05 1.35 15.45 L3.2 18.05 5.1 19.9 5.85 21.8 6.0 22.6 Q5.95 23.4 5.35 23.35 L5.0 23.75 4.9 23.8 4.45 23.8 4.35 23.8 Q2.6 23.05 2.25 20.8 L2.15 20.3 Q1.7 18.7 0.2 16.5 L-0.35 15.65 -0.9 14.95 -1.5 14.05 -3.2 10.95 Q-5.1 6.9 -5.25 2.75 L-5.25 2.65" fill="none" stroke="#000000" stroke-linecap="round" stroke-linejoin="round" stroke-opacity="0.0" stroke-width="1.0">
      <animate attributeName="stroke" dur="2s" repeatCount="indefinite" values="#000000;#000001"/>
      <animate attributeName="stroke-width" dur="2s" repeatCount="indefinite" values="0.0;0.0"/>
      <animate attributeName="fill-opacity" dur="2s" repeatCount="indefinite" values="0.0;0.0"/>
      <animate attributeName="d" dur="2s" repeatCount="indefinite" values="M-5.25 2.65 Q-5.45 -2.2 -3.05 0.55 -2.4 3.7 -2.4 5.15 L-2.3 6.5 Q-2.0 8.4 -1.05 10.7 0.15 13.05 1.35 15.45 L3.2 18.05 5.1 19.9 5.85 21.8 6.0 22.6 Q5.95 23.4 5.35 23.35 L5.0 23.75 4.9 23.8 4.45 23.8 4.35 23.8 Q2.6 23.05 2.25 20.8 L2.15 20.3 Q1.7 18.7 0.2 16.5 L-0.35 15.65 -0.9 14.95 -1.5 14.05 -3.2 10.95 Q-5.1 6.9 -5.25 2.75 L-5.25 2.65;M-1.9 8.45 Q-3.25 3.55 0.85 8.0 1.7 10.65 2.6 13.35 L3.25 14.75 Q4.4 17.15 5.0 19.15 6.1 23.4 7.1 25.25 L9.25 28.7 11.05 31.55 12.05 33.95 12.15 34.7 Q12.35 35.6 11.25 35.15 L10.75 34.9 10.5 34.9 9.9 34.65 9.7 34.5 Q8.3 33.4 7.4 30.75 L7.2 30.15 Q6.4 27.85 5.55 25.5 L5.0 24.25 4.55 23.15 3.95 21.8 1.75 17.6 Q-0.55 13.35 -1.9 8.45 L-1.9 8.45"/>
    </path>
  </g>
</svg>
