<?xml version="1.0" encoding="UTF-8" standalone="no"?>
<svg xmlns:xlink="http://www.w3.org/1999/xlink" height="27.15px" width="9.15px" xmlns="http://www.w3.org/2000/svg">
  <g transform="matrix(1.0, 0.0, 0.0, 1.0, 13.4, 8.8)">
    <path d="M-11.75 -2.8 L-11.75 -2.7 Q-11.85 3.1 -11.45 4.7 L-10.7 7.15 Q-9.6 10.05 -7.85 11.7 L-7.75 11.5 Q-6.6 9.3 -6.25 7.55 -5.95 5.9 -6.4 4.75 -7.25 2.55 -6.8 1.0 L-5.95 -1.65 Q-5.5 -3.45 -5.05 -5.2 -4.65 -7.0 -4.85 -8.0 -5.25 -9.7 -9.5 -7.85 -11.35 -6.25 -11.75 -2.8" fill="#fff6f0" fill-opacity="0.8" fill-rule="evenodd" stroke="none">
      <animate attributeName="fill" dur="2s" repeatCount="indefinite" values="#fff6f0;#fff6f1"/>
      <animate attributeName="fill-opacity" dur="2s" repeatCount="indefinite" values="0.8;0.8"/>
      <animate attributeName="d" dur="2s" repeatCount="indefinite" values="M-11.75 -2.8 L-11.75 -2.7 Q-11.85 3.1 -11.45 4.7 L-10.7 7.15 Q-9.6 10.05 -7.85 11.7 L-7.75 11.5 Q-6.6 9.3 -6.25 7.55 -5.95 5.9 -6.4 4.75 -7.25 2.55 -6.8 1.0 L-5.95 -1.65 Q-5.5 -3.45 -5.05 -5.2 -4.65 -7.0 -4.85 -8.0 -5.25 -9.7 -9.5 -7.85 -11.35 -6.25 -11.75 -2.8;M-12.9 0.15 L-12.9 0.15 Q-14.0 4.45 -12.65 8.3 L-11.5 10.75 Q-9.95 13.4 -8.4 16.0 L-8.2 16.4 Q-7.75 17.2 -4.6 18.35 -4.15 16.85 -4.25 15.25 -4.35 13.45 -5.45 11.45 L-7.05 8.9 Q-8.0 7.15 -8.25 5.1 -8.3 3.7 -8.3 2.3 -8.1 0.3 -9.7 -3.5 -11.5 -5.65 -12.9 0.15"/>
    </path>
    <path d="M-11.75 -2.8 Q-11.35 -6.25 -9.5 -7.85 -5.25 -9.7 -4.85 -8.0 -4.65 -7.0 -5.05 -5.2 -5.5 -3.45 -5.95 -1.65 L-6.8 1.0 Q-7.25 2.55 -6.4 4.75 -5.95 5.9 -6.25 7.55 -6.6 9.3 -7.75 11.5 L-7.85 11.7 Q-9.6 10.05 -10.7 7.15 L-11.45 4.7 Q-11.85 3.1 -11.75 -2.7 L-11.75 -2.8" fill="none" stroke="#000000" stroke-linecap="round" stroke-linejoin="round" stroke-opacity="0.0" stroke-width="1.0">
      <animate attributeName="stroke" dur="2s" repeatCount="indefinite" values="#000000;#000001"/>
      <animate attributeName="stroke-width" dur="2s" repeatCount="indefinite" values="0.0;0.0"/>
      <animate attributeName="fill-opacity" dur="2s" repeatCount="indefinite" values="0.0;0.0"/>
      <animate attributeName="d" dur="2s" repeatCount="indefinite" values="M-11.75 -2.8 Q-11.35 -6.25 -9.5 -7.85 -5.25 -9.7 -4.85 -8.0 -4.65 -7.0 -5.05 -5.2 -5.5 -3.45 -5.95 -1.65 L-6.8 1.0 Q-7.25 2.55 -6.4 4.75 -5.95 5.9 -6.25 7.55 -6.6 9.3 -7.75 11.5 L-7.85 11.7 Q-9.6 10.05 -10.7 7.15 L-11.45 4.7 Q-11.85 3.1 -11.75 -2.7 L-11.75 -2.8;M-12.9 0.15 Q-11.5 -5.65 -9.7 -3.5 -8.1 0.3 -8.3 2.3 -8.3 3.7 -8.25 5.1 -8.0 7.15 -7.05 8.9 L-5.45 11.45 Q-4.35 13.45 -4.25 15.25 -4.15 16.85 -4.6 18.35 -7.75 17.2 -8.2 16.4 L-8.4 16.0 Q-9.95 13.4 -11.5 10.75 L-12.65 8.3 Q-14.0 4.45 -12.9 0.15 L-12.9 0.15"/>
    </path>
  </g>
</svg>
