<?xml version="1.0" encoding="UTF-8" standalone="no"?>
<svg xmlns:xlink="http://www.w3.org/1999/xlink" height="32.35px" width="13.35px" xmlns="http://www.w3.org/2000/svg">
  <g transform="matrix(1.0, 0.0, 0.0, 1.0, 13.4, 4.1)">
    <path d="M-12.9 0.15 L-12.9 0.25 Q-14.35 5.9 -11.5 10.75 L-10.75 12.0 Q-9.75 13.7 -8.8 15.35 L-8.2 16.4 Q-7.35 16.95 -6.55 17.5 L-4.8 18.25 -4.6 18.35 -4.4 17.55 Q-4.3 16.55 -4.2 15.6 -4.2 14.6 -4.45 13.6 L-5.15 11.6 -5.15 11.6 Q-5.5 11.65 -6.7 9.5 L-7.05 8.9 Q-8.2 6.8 -8.35 4.35 -8.3 2.15 -8.3 0.0 -8.55 -2.1 -9.7 -3.5 -11.5 -5.65 -12.9 0.15" fill="#fff6f0" fill-opacity="0.8" fill-rule="evenodd" stroke="none">
      <animate attributeName="fill" dur="2s" repeatCount="indefinite" values="#fff6f0;#fff6f1"/>
      <animate attributeName="fill-opacity" dur="2s" repeatCount="indefinite" values="0.8;0.8"/>
      <animate attributeName="d" dur="2s" repeatCount="indefinite" values="M-12.9 0.15 L-12.9 0.25 Q-14.35 5.9 -11.5 10.75 L-10.75 12.0 Q-9.75 13.7 -8.8 15.35 L-8.2 16.4 Q-7.35 16.95 -6.55 17.5 L-4.8 18.25 -4.6 18.35 -4.4 17.55 Q-4.3 16.55 -4.2 15.6 -4.2 14.6 -4.45 13.6 L-5.15 11.6 -5.15 11.6 Q-5.5 11.65 -6.7 9.5 L-7.05 8.9 Q-8.2 6.8 -8.35 4.35 -8.3 2.15 -8.3 0.0 -8.55 -2.1 -9.7 -3.5 -11.5 -5.65 -12.9 0.15;M-11.25 4.85 L-11.25 4.85 Q-11.05 11.4 -8.25 17.95 L-7.5 19.65 Q-6.75 20.6 -5.9 24.15 L-5.5 25.7 Q-4.85 27.7 -4.2 27.9 L-1.55 28.25 -1.25 28.2 -0.65 27.35 Q0.2 27.1 -0.15 25.2 -0.2 24.6 -0.9 23.0 L-2.7 21.5 -2.8 21.4 Q-3.75 20.05 -4.65 18.75 L-5.05 18.0 Q-6.55 15.3 -8.0 12.65 -8.7 11.4 -9.7 7.3 -8.85 5.0 -8.05 2.7 -11.5 -2.5 -11.25 4.85"/>
    </path>
    <path d="M-12.9 0.15 Q-11.5 -5.65 -9.7 -3.5 -8.55 -2.1 -8.3 0.0 -8.3 2.15 -8.35 4.35 -8.2 6.8 -7.05 8.9 L-6.7 9.5 Q-5.5 11.65 -5.15 11.6 L-5.15 11.6 -4.45 13.6 Q-4.2 14.6 -4.2 15.6 -4.3 16.55 -4.4 17.55 L-4.6 18.35 -4.8 18.25 -6.55 17.5 Q-7.35 16.95 -8.2 16.4 L-8.8 15.35 Q-9.75 13.7 -10.75 12.0 L-11.5 10.75 Q-14.35 5.9 -12.9 0.25 L-12.9 0.15" fill="none" stroke="#000000" stroke-linecap="round" stroke-linejoin="round" stroke-opacity="0.0" stroke-width="1.0">
      <animate attributeName="stroke" dur="2s" repeatCount="indefinite" values="#000000;#000001"/>
      <animate attributeName="stroke-width" dur="2s" repeatCount="indefinite" values="0.0;0.0"/>
      <animate attributeName="fill-opacity" dur="2s" repeatCount="indefinite" values="0.0;0.0"/>
      <animate attributeName="d" dur="2s" repeatCount="indefinite" values="M-12.9 0.15 Q-11.5 -5.65 -9.7 -3.5 -8.55 -2.1 -8.3 0.0 -8.3 2.15 -8.35 4.35 -8.2 6.8 -7.05 8.9 L-6.7 9.5 Q-5.5 11.65 -5.15 11.6 L-5.15 11.6 -4.45 13.6 Q-4.2 14.6 -4.2 15.6 -4.3 16.55 -4.4 17.55 L-4.6 18.35 -4.8 18.25 -6.55 17.5 Q-7.35 16.95 -8.2 16.4 L-8.8 15.35 Q-9.75 13.7 -10.75 12.0 L-11.5 10.75 Q-14.35 5.9 -12.9 0.25 L-12.9 0.15;M-11.25 4.85 Q-11.5 -2.5 -8.05 2.7 -8.85 5.0 -9.7 7.3 -8.7 11.4 -8.0 12.65 -6.55 15.3 -5.05 18.0 L-4.65 18.75 Q-3.75 20.05 -2.8 21.4 L-2.7 21.5 -0.9 23.0 Q-0.2 24.6 -0.15 25.2 0.2 27.1 -0.65 27.35 L-1.25 28.2 -1.55 28.25 -4.2 27.9 Q-4.85 27.7 -5.5 25.7 L-5.9 24.15 Q-6.75 20.6 -7.5 19.65 L-8.25 17.95 Q-11.05 11.4 -11.25 4.85 L-11.25 4.85"/>
    </path>
  </g>
</svg>
