<?xml version="1.0" encoding="UTF-8" standalone="no"?>
<svg xmlns:xlink="http://www.w3.org/1999/xlink" height="38.9px" width="18.65px" xmlns="http://www.w3.org/2000/svg">
  <g transform="matrix(1.0, 0.0, 0.0, 1.0, 11.25, -0.5)">
    <path d="M-11.25 4.85 L-11.25 4.85 Q-11.15 9.05 -9.95 13.25 -9.15 15.45 -8.4 17.65 L-7.5 19.65 -7.0 20.55 Q-6.45 21.75 -5.9 24.05 L-5.9 24.15 Q-5.25 26.85 -4.6 27.6 L-4.2 27.9 -2.05 28.2 -1.55 28.25 Q-0.95 28.15 -0.65 27.35 L-0.5 27.25 Q0.15 26.9 -0.15 25.2 L-0.15 25.2 -0.7 23.4 -0.9 23.0 -0.9 23.0 -2.45 21.75 -2.8 21.4 -4.65 18.75 -5.85 16.55 Q-6.95 14.6 -8.0 12.65 L-8.8 11.15 Q-10.0 8.6 -9.7 7.3 L-9.1 5.3 Q-8.7 4.15 -9.45 0.95 -11.45 -0.85 -11.25 4.85" fill="#fff6f0" fill-opacity="0.8" fill-rule="evenodd" stroke="none">
      <animate attributeName="fill" dur="2s" repeatCount="indefinite" values="#fff6f0;#fff6f1"/>
      <animate attributeName="fill-opacity" dur="2s" repeatCount="indefinite" values="0.8;0.8"/>
      <animate attributeName="d" dur="2s" repeatCount="indefinite" values="M-11.25 4.85 L-11.25 4.85 Q-11.15 9.05 -9.95 13.25 -9.15 15.45 -8.4 17.65 L-7.5 19.65 -7.0 20.55 Q-6.45 21.75 -5.9 24.05 L-5.9 24.15 Q-5.25 26.85 -4.6 27.6 L-4.2 27.9 -2.05 28.2 -1.55 28.25 Q-0.95 28.15 -0.65 27.35 L-0.5 27.25 Q0.15 26.9 -0.15 25.2 L-0.15 25.2 -0.7 23.4 -0.9 23.0 -0.9 23.0 -2.45 21.75 -2.8 21.4 -4.65 18.75 -5.85 16.55 Q-6.95 14.6 -8.0 12.65 L-8.8 11.15 Q-10.0 8.6 -9.7 7.3 L-9.1 5.3 Q-8.7 4.15 -9.45 0.95 -11.45 -0.85 -11.25 4.85;M-8.15 9.45 L-8.15 9.55 Q-7.1 15.35 -4.65 19.0 -2.2 22.7 -1.7 23.85 L-0.7 26.3 -0.35 27.25 Q0.5 29.35 1.35 31.4 L1.45 31.6 Q2.35 33.55 3.2 35.45 L3.5 36.1 4.5 38.65 4.8 39.15 Q5.2 39.55 6.15 39.35 L6.35 39.3 Q7.8 38.85 7.25 37.25 L7.15 37.05 6.2 34.6 6.05 34.25 6.05 33.95 5.25 31.85 4.95 31.4 2.8 28.1 1.2 25.45 Q0.4 24.0 -0.5 21.05 L-1.0 19.15 Q-1.55 17.4 -2.45 15.3 L-3.4 13.35 Q-4.3 10.65 -5.15 8.0 -9.25 3.55 -8.15 9.45"/>
    </path>
    <path d="M-11.25 4.85 Q-11.45 -0.85 -9.45 0.95 -8.7 4.15 -9.1 5.3 L-9.7 7.3 Q-10.0 8.6 -8.8 11.15 L-8.0 12.65 Q-6.95 14.6 -5.85 16.55 L-4.65 18.75 -2.8 21.4 -2.45 21.75 -0.9 23.0 -0.9 23.0 -0.7 23.4 -0.15 25.2 -0.15 25.2 Q0.15 26.9 -0.5 27.25 L-0.65 27.35 Q-0.95 28.15 -1.55 28.25 L-2.05 28.2 -4.2 27.9 -4.6 27.6 Q-5.25 26.85 -5.9 24.15 L-5.9 24.05 Q-6.45 21.75 -7.0 20.55 L-7.5 19.65 -8.4 17.65 Q-9.15 15.45 -9.95 13.25 -11.15 9.05 -11.25 4.85 L-11.25 4.85" fill="none" stroke="#000000" stroke-linecap="round" stroke-linejoin="round" stroke-opacity="0.0" stroke-width="1.0">
      <animate attributeName="stroke" dur="2s" repeatCount="indefinite" values="#000000;#000001"/>
      <animate attributeName="stroke-width" dur="2s" repeatCount="indefinite" values="0.0;0.0"/>
      <animate attributeName="fill-opacity" dur="2s" repeatCount="indefinite" values="0.0;0.0"/>
      <animate attributeName="d" dur="2s" repeatCount="indefinite" values="M-11.25 4.85 Q-11.45 -0.85 -9.45 0.95 -8.7 4.15 -9.1 5.3 L-9.7 7.3 Q-10.0 8.6 -8.8 11.15 L-8.0 12.65 Q-6.95 14.6 -5.85 16.55 L-4.65 18.75 -2.8 21.4 -2.45 21.75 -0.9 23.0 -0.9 23.0 -0.7 23.4 -0.15 25.2 -0.15 25.2 Q0.15 26.9 -0.5 27.25 L-0.65 27.35 Q-0.95 28.15 -1.55 28.25 L-2.05 28.2 -4.2 27.9 -4.6 27.6 Q-5.25 26.85 -5.9 24.15 L-5.9 24.05 Q-6.45 21.75 -7.0 20.55 L-7.5 19.65 -8.4 17.65 Q-9.15 15.45 -9.95 13.25 -11.15 9.05 -11.25 4.85 L-11.25 4.85;M-8.15 9.45 Q-9.25 3.55 -5.15 8.0 -4.3 10.65 -3.4 13.35 L-2.45 15.3 Q-1.55 17.4 -1.0 19.15 L-0.5 21.05 Q0.4 24.0 1.2 25.45 L2.8 28.1 4.95 31.4 5.25 31.85 6.05 33.95 6.05 34.25 6.2 34.6 7.15 37.05 7.25 37.25 Q7.8 38.85 6.35 39.3 L6.15 39.35 Q5.2 39.55 4.8 39.15 L4.5 38.65 3.5 36.1 3.2 35.45 Q2.35 33.55 1.45 31.6 L1.35 31.4 Q0.5 29.35 -0.35 27.25 L-0.7 26.3 -1.7 23.85 Q-2.2 22.7 -4.65 19.0 -7.1 15.35 -8.15 9.55 L-8.15 9.45"/>
    </path>
  </g>
</svg>
