<?xml version="1.0" encoding="UTF-8" standalone="no"?>
<svg xmlns:xlink="http://www.w3.org/1999/xlink" height="90.7px" width="61.35px" xmlns="http://www.w3.org/2000/svg">
  <g transform="matrix(1.0, 0.0, 0.0, 1.0, -17.1, -48.0)">
    <path d="M19.25 54.5 Q25.35 70.45 34.45 85.4 43.55 100.3 47.15 102.0 50.7 103.7 48.25 102.5 45.8 101.25 45.45 99.7 45.85 99.6 45.55 97.6 45.25 95.55 40.5 90.4 35.75 85.2 24.45 61.85 13.15 38.5 19.25 54.5" fill="#fff6f0" fill-opacity="0.8" fill-rule="evenodd" stroke="none">
      <animate attributeName="fill" dur="2s" repeatCount="indefinite" values="#fff6f0;#fff9f4"/>
      <animate attributeName="fill-opacity" dur="2s" repeatCount="indefinite" values="0.8;0.0"/>
      <animate attributeName="d" dur="2s" repeatCount="indefinite" values="M19.25 54.5 Q25.35 70.45 34.45 85.4 43.55 100.3 47.15 102.0 50.7 103.7 48.25 102.5 45.8 101.25 45.45 99.7 45.85 99.6 45.55 97.6 45.25 95.55 40.5 90.4 35.75 85.2 24.45 61.85 13.15 38.5 19.25 54.5;M41.75 96.95 Q44.8 103.55 59.8 121.5 74.65 139.45 77.6 138.65 80.55 137.75 73.55 132.5 66.6 127.3 64.05 124.65 62.65 123.45 61.25 122.3 59.4 120.25 57.55 118.2 55.1 115.15 46.9 102.8 38.6 90.45 41.75 96.95"/>
    </path>
    <path d="M19.25 54.5 Q13.15 38.5 24.45 61.85 35.75 85.2 40.5 90.4 45.25 95.55 45.55 97.6 45.85 99.6 45.45 99.7 45.8 101.25 48.25 102.5 50.7 103.7 47.15 102.0 43.55 100.3 34.45 85.4 25.35 70.45 19.25 54.5" fill="none" stroke="#000000" stroke-linecap="round" stroke-linejoin="round" stroke-opacity="0.0" stroke-width="1.0">
      <animate attributeName="stroke" dur="2s" repeatCount="indefinite" values="#000000;#000001"/>
      <animate attributeName="stroke-width" dur="2s" repeatCount="indefinite" values="0.0;0.0"/>
      <animate attributeName="fill-opacity" dur="2s" repeatCount="indefinite" values="0.0;0.0"/>
      <animate attributeName="d" dur="2s" repeatCount="indefinite" values="M19.25 54.5 Q13.15 38.5 24.45 61.85 35.75 85.2 40.5 90.4 45.25 95.55 45.55 97.6 45.85 99.6 45.45 99.7 45.8 101.25 48.25 102.5 50.7 103.7 47.15 102.0 43.55 100.3 34.45 85.4 25.35 70.45 19.25 54.5;M41.75 96.95 Q38.6 90.45 46.9 102.8 55.1 115.15 57.55 118.2 59.4 120.25 61.25 122.3 62.65 123.45 64.05 124.65 66.6 127.3 73.55 132.5 80.55 137.75 77.6 138.65 74.65 139.45 59.8 121.5 44.8 103.55 41.75 96.95"/>
    </path>
  </g>
</svg>
