<?xml version="1.0" encoding="UTF-8" standalone="no"?>
<svg xmlns:xlink="http://www.w3.org/1999/xlink" height="43.85px" width="20.15px" xmlns="http://www.w3.org/2000/svg">
  <g transform="matrix(1.0, 0.0, 0.0, 1.0, 8.4, -6.1)">
    <path d="M-8.15 9.45 Q-7.1 15.3 -4.65 19.0 -2.2 22.7 -1.7 23.85 L-0.35 27.25 0.05 28.4 1.35 31.4 Q2.3 33.45 3.2 35.45 L4.5 38.65 Q4.8 39.75 6.35 39.3 6.9 39.15 7.15 38.8 7.6 38.2 7.15 37.05 6.9 36.4 6.65 35.75 6.4 35.15 6.2 34.6 5.95 33.95 6.05 33.95 L5.7 32.9 5.25 31.85 3.25 28.8 1.2 25.45 Q0.15 23.55 -1.0 19.15 -1.8 16.55 -3.4 13.25 L-5.15 8.0 Q-9.25 3.55 -8.15 9.45" fill="#fff6f0" fill-opacity="0.8" fill-rule="evenodd" stroke="none">
      <animate attributeName="fill" dur="2s" repeatCount="indefinite" values="#fff6f0;#fff6f1"/>
      <animate attributeName="fill-opacity" dur="2s" repeatCount="indefinite" values="0.8;0.8"/>
      <animate attributeName="d" dur="2s" repeatCount="indefinite" values="M-8.15 9.45 Q-7.1 15.3 -4.65 19.0 -2.2 22.7 -1.7 23.85 L-0.35 27.25 0.05 28.4 1.35 31.4 Q2.3 33.45 3.2 35.45 L4.5 38.65 Q4.8 39.75 6.35 39.3 6.9 39.15 7.15 38.8 7.6 38.2 7.15 37.05 6.9 36.4 6.65 35.75 6.4 35.15 6.2 34.6 5.95 33.95 6.05 33.95 L5.7 32.9 5.25 31.85 3.25 28.8 1.2 25.45 Q0.15 23.55 -1.0 19.15 -1.8 16.55 -3.4 13.25 L-5.15 8.0 Q-9.25 3.55 -8.15 9.45;M-4.95 12.0 Q-4.55 17.0 -3.0 23.85 -2.2 27.05 -1.45 30.2 L-0.25 34.35 0.15 35.65 1.5 39.8 Q2.45 42.55 3.35 44.55 L5.15 47.8 Q6.25 49.3 7.3 49.75 7.85 49.85 8.4 49.95 9.6 49.7 10.75 49.5 12.0 49.1 11.65 48.5 11.15 47.45 11.45 47.35 11.2 46.9 11.0 46.5 L10.35 45.3 9.65 44.2 7.05 40.4 4.45 36.5 Q3.4 34.25 1.65 28.8 0.5 24.95 -0.6 21.15 L-2.65 14.2 Q-5.55 5.15 -4.95 12.0"/>
    </path>
    <path d="M-8.15 9.45 Q-9.25 3.55 -5.15 8.0 L-3.4 13.25 Q-1.8 16.55 -1.0 19.15 0.15 23.55 1.2 25.45 L3.25 28.8 5.25 31.85 5.7 32.9 6.05 33.95 Q5.95 33.95 6.2 34.6 6.4 35.15 6.65 35.75 6.9 36.4 7.15 37.05 7.6 38.2 7.15 38.8 6.9 39.15 6.35 39.3 4.8 39.75 4.5 38.65 L3.2 35.45 Q2.3 33.45 1.35 31.4 L0.05 28.4 -0.35 27.25 -1.7 23.85 Q-2.2 22.7 -4.65 19.0 -7.1 15.3 -8.15 9.45" fill="none" stroke="#000000" stroke-linecap="round" stroke-linejoin="round" stroke-opacity="0.0" stroke-width="1.0">
      <animate attributeName="stroke" dur="2s" repeatCount="indefinite" values="#000000;#000001"/>
      <animate attributeName="stroke-width" dur="2s" repeatCount="indefinite" values="0.0;0.0"/>
      <animate attributeName="fill-opacity" dur="2s" repeatCount="indefinite" values="0.0;0.0"/>
      <animate attributeName="d" dur="2s" repeatCount="indefinite" values="M-8.15 9.45 Q-9.25 3.55 -5.15 8.0 L-3.4 13.25 Q-1.8 16.55 -1.0 19.15 0.15 23.55 1.2 25.45 L3.25 28.8 5.25 31.85 5.7 32.9 6.05 33.95 Q5.95 33.95 6.2 34.6 6.4 35.15 6.65 35.75 6.9 36.4 7.15 37.05 7.6 38.2 7.15 38.8 6.9 39.15 6.35 39.3 4.8 39.75 4.5 38.65 L3.2 35.45 Q2.3 33.45 1.35 31.4 L0.05 28.4 -0.35 27.25 -1.7 23.85 Q-2.2 22.7 -4.65 19.0 -7.1 15.3 -8.15 9.45;M-4.95 12.0 Q-5.55 5.15 -2.65 14.2 L-0.6 21.15 Q0.5 24.95 1.65 28.8 3.4 34.25 4.45 36.5 L7.05 40.4 9.65 44.2 10.35 45.3 11.0 46.5 Q11.2 46.9 11.45 47.35 11.15 47.45 11.65 48.5 12.0 49.1 10.75 49.5 9.6 49.7 8.4 49.95 7.85 49.85 7.3 49.75 6.25 49.3 5.15 47.8 L3.35 44.55 Q2.45 42.55 1.5 39.8 L0.15 35.65 -0.25 34.35 -1.45 30.2 Q-2.2 27.05 -3.0 23.85 -4.55 17.0 -4.95 12.0"/>
    </path>
  </g>
</svg>
