<?xml version="1.0" encoding="UTF-8" standalone="no"?>
<svg xmlns:xlink="http://www.w3.org/1999/xlink" height="83.1px" width="58.65px" xmlns="http://www.w3.org/2000/svg">
  <g transform="matrix(1.0, 0.0, 0.0, 1.0, -12.9, -56.25)">
    <path d="M13.35 59.9 Q15.45 70.45 24.05 85.4 32.65 100.3 36.15 102.0 36.7 102.25 37.25 102.5 34.85 101.25 34.5 100.5 34.1 99.75 34.55 99.7 34.95 99.6 34.75 97.6 34.5 95.55 31.45 92.8 28.4 90.0 19.8 69.65 11.2 49.3 13.35 59.9" fill="#fff6f0" fill-opacity="0.8" fill-rule="evenodd" stroke="none">
      <animate attributeName="fill" dur="2s" repeatCount="indefinite" values="#fff6f0;#fff9f4"/>
      <animate attributeName="fill-opacity" dur="2s" repeatCount="indefinite" values="0.8;0.10980392"/>
      <animate attributeName="d" dur="2s" repeatCount="indefinite" values="M13.35 59.9 Q15.45 70.45 24.05 85.4 32.65 100.3 36.15 102.0 36.7 102.25 37.25 102.5 34.85 101.25 34.5 100.5 34.1 99.75 34.55 99.7 34.95 99.6 34.75 97.6 34.5 95.55 31.45 92.8 28.4 90.0 19.8 69.65 11.2 49.3 13.35 59.9;M36.7 98.4 Q39.55 106.3 53.65 123.5 67.65 140.7 70.65 139.25 73.6 137.75 66.9 132.55 60.1 127.35 60.35 127.9 60.45 128.45 57.2 122.35 55.5 119.15 53.85 116.0 53.75 115.8 51.45 115.5 49.2 115.15 41.55 102.8 33.8 90.45 36.7 98.4"/>
    </path>
    <path d="M13.35 59.9 Q11.2 49.3 19.8 69.65 28.4 90.0 31.45 92.8 34.5 95.55 34.75 97.6 34.95 99.6 34.55 99.7 34.1 99.75 34.5 100.5 34.85 101.25 37.25 102.5 36.7 102.25 36.15 102.0 32.65 100.3 24.05 85.4 15.45 70.45 13.35 59.9" fill="none" stroke="#000000" stroke-linecap="round" stroke-linejoin="round" stroke-opacity="0.0" stroke-width="1.0">
      <animate attributeName="stroke" dur="2s" repeatCount="indefinite" values="#000000;#000001"/>
      <animate attributeName="stroke-width" dur="2s" repeatCount="indefinite" values="0.0;0.0"/>
      <animate attributeName="fill-opacity" dur="2s" repeatCount="indefinite" values="0.0;0.0"/>
      <animate attributeName="d" dur="2s" repeatCount="indefinite" values="M13.35 59.9 Q11.2 49.3 19.8 69.65 28.4 90.0 31.45 92.8 34.5 95.55 34.75 97.6 34.95 99.6 34.55 99.7 34.1 99.75 34.5 100.5 34.85 101.25 37.25 102.5 36.7 102.25 36.15 102.0 32.65 100.3 24.05 85.4 15.45 70.45 13.35 59.9;M36.7 98.4 Q33.8 90.45 41.55 102.8 49.2 115.15 51.45 115.5 53.75 115.8 53.85 116.0 55.5 119.15 57.2 122.35 60.45 128.45 60.35 127.9 60.1 127.35 66.9 132.55 73.6 137.75 70.65 139.25 67.65 140.7 53.65 123.5 39.55 106.3 36.7 98.4"/>
    </path>
  </g>
</svg>
