<?xml version="1.0" encoding="UTF-8" standalone="no"?>
<svg xmlns:xlink="http://www.w3.org/1999/xlink" height="94.15px" width="6.4px" xmlns="http://www.w3.org/2000/svg">
  <g transform="matrix(1.0, 0.0, 0.0, 1.0, -0.65, -0.85)">
    <path d="M0.65 3.1 Q0.55 7.45 1.3 9.85 2.05 12.25 4.0 13.85 5.9 15.45 6.75 14.55 7.6 13.6 6.15 10.35 4.45 6.6 2.75 2.9 0.75 -1.25 0.65 3.1" fill="#ebf7fd" fill-opacity="0.6" fill-rule="evenodd" stroke="none">
      <animate attributeName="fill" dur="2s" repeatCount="indefinite" values="#ebf7fd;#ebf7fe"/>
      <animate attributeName="fill-opacity" dur="2s" repeatCount="indefinite" values="0.6;0.6"/>
      <animate attributeName="d" dur="2s" repeatCount="indefinite" values="M0.65 3.1 Q0.55 7.45 1.3 9.85 2.05 12.25 4.0 13.85 5.9 15.45 6.75 14.55 7.6 13.6 6.15 10.35 4.45 6.6 2.75 2.9 0.75 -1.25 0.65 3.1;M4.0 91.35 Q4.0 95.2 5.05 95.0 6.1 94.8 6.45 61.75 6.8 28.6 6.3 21.2 5.8 13.75 4.95 8.8 4.1 3.8 4.05 45.65 4.0 68.5 4.0 91.35"/>
    </path>
    <path d="M0.65 3.1 Q0.75 -1.25 2.75 2.9 4.45 6.6 6.15 10.35 7.6 13.6 6.75 14.55 5.9 15.45 4.0 13.85 2.05 12.25 1.3 9.85 0.55 7.45 0.65 3.1" fill="none" stroke="#000000" stroke-linecap="round" stroke-linejoin="round" stroke-opacity="0.0" stroke-width="1.0">
      <animate attributeName="stroke" dur="2s" repeatCount="indefinite" values="#000000;#000001"/>
      <animate attributeName="stroke-width" dur="2s" repeatCount="indefinite" values="0.0;0.0"/>
      <animate attributeName="fill-opacity" dur="2s" repeatCount="indefinite" values="0.0;0.0"/>
      <animate attributeName="d" dur="2s" repeatCount="indefinite" values="M0.65 3.1 Q0.75 -1.25 2.75 2.9 4.45 6.6 6.15 10.35 7.6 13.6 6.75 14.55 5.9 15.45 4.0 13.85 2.05 12.25 1.3 9.85 0.55 7.45 0.65 3.1;M4.0 91.35 Q4.0 68.5 4.05 45.65 4.1 3.8 4.95 8.8 5.8 13.75 6.3 21.2 6.8 28.6 6.45 61.75 6.1 94.8 5.05 95.0 4.0 95.2 4.0 91.35"/>
    </path>
  </g>
</svg>
