<?xml version="1.0" encoding="UTF-8" standalone="no"?>
<svg xmlns:xlink="http://www.w3.org/1999/xlink" height="7.1px" width="18.0px" xmlns="http://www.w3.org/2000/svg">
  <g transform="matrix(1.0, 0.0, 0.0, 1.0, 11.45, 4.5)">
    <path d="M-4.35 -2.6 Q-3.8 -1.6 -3.3 -0.65 -2.85 0.25 -1.45 0.5 L0.3 0.6 Q0.8 0.55 1.3 0.5 2.9 0.2 0.55 -1.6 -0.6 -2.35 -2.25 -3.1 -4.35 -3.95 -4.35 -2.6 M0.2 -4.05 Q3.95 -3.35 3.75 -1.9 3.65 -0.65 4.65 1.85 0.95 1.75 -2.7 1.7 -5.15 1.3 -5.7 0.1 -6.25 -1.1 -6.1 -3.2 -6.0 -4.05 -4.9 -4.35 -2.85 -4.3 -0.8 -4.25 L0.2 -4.05" fill="#ffffff" fill-opacity="0.6" fill-rule="evenodd" stroke="none">
      <animate attributeName="fill" dur="2s" repeatCount="indefinite" values="#ffffff;#ffffff"/>
      <animate attributeName="fill-opacity" dur="2s" repeatCount="indefinite" values="0.6;0.6"/>
      <animate attributeName="d" dur="2s" repeatCount="indefinite" values="M-4.35 -2.6 Q-3.8 -1.6 -3.3 -0.65 -2.85 0.25 -1.45 0.5 L0.3 0.6 Q0.8 0.55 1.3 0.5 2.9 0.2 0.55 -1.6 -0.6 -2.35 -2.25 -3.1 -4.35 -3.95 -4.35 -2.6 M0.2 -4.05 Q3.95 -3.35 3.75 -1.9 3.65 -0.65 4.65 1.85 0.95 1.75 -2.7 1.7 -5.15 1.3 -5.7 0.1 -6.25 -1.1 -6.1 -3.2 -6.0 -4.05 -4.9 -4.35 -2.85 -4.3 -0.8 -4.25 L0.2 -4.05;M-6.55 -0.25 Q-5.35 0.4 -3.55 0.65 -2.1 0.7 -0.65 0.7 L1.9 0.2 Q2.4 -0.15 1.7 -0.75 0.85 -1.45 -2.05 -3.0 -4.15 -2.9 -6.25 -2.85 -8.6 -1.45 -6.55 -0.25 M1.25 -3.8 Q4.15 -3.15 5.65 -1.95 7.35 -0.4 5.8 1.85 3.65 3.4 -1.7 1.85 -4.35 1.55 -6.95 1.25 -9.9 0.75 -11.45 -1.0 -11.65 -2.1 -9.2 -3.3 -5.9 -5.0 -0.95 -4.25 L1.25 -3.8"/>
    </path>
    <path d="M-4.35 -2.6 Q-3.8 -1.6 -3.3 -0.65 -2.85 0.25 -1.45 0.5 L0.3 0.6 Q0.8 0.55 1.3 0.5 2.9 0.2 0.55 -1.6 -0.6 -2.35 -2.25 -3.1 -4.35 -3.95 -4.35 -2.6" fill="#ffffff" fill-rule="evenodd" stroke="none">
      <animate attributeName="fill" dur="2s" repeatCount="indefinite" values="#ffffff;#ffffff"/>
      <animate attributeName="fill-opacity" dur="2s" repeatCount="indefinite" values="1.0;1.0"/>
      <animate attributeName="d" dur="2s" repeatCount="indefinite" values="M-4.35 -2.6 Q-3.8 -1.6 -3.3 -0.65 -2.85 0.25 -1.45 0.5 L0.3 0.6 Q0.8 0.55 1.3 0.5 2.9 0.2 0.55 -1.6 -0.6 -2.35 -2.25 -3.1 -4.35 -3.95 -4.35 -2.6;M-6.55 -0.25 Q-5.35 0.4 -3.55 0.65 -2.1 0.7 -0.65 0.7 L1.9 0.2 Q2.4 -0.15 1.7 -0.75 0.85 -1.45 -2.05 -3.0 -4.15 -2.9 -6.25 -2.85 -8.6 -1.45 -6.55 -0.25"/>
    </path>
    <path d="M0.2 -4.05 L-0.8 -4.25 Q-2.85 -4.3 -4.9 -4.35 -6.0 -4.05 -6.1 -3.2 -6.25 -1.1 -5.7 0.1 -5.15 1.3 -2.7 1.7 0.95 1.75 4.65 1.85 3.65 -0.65 3.75 -1.9 3.95 -3.35 0.2 -4.05 M-4.35 -2.6 Q-4.35 -3.95 -2.25 -3.1 -0.6 -2.35 0.55 -1.6 2.9 0.2 1.3 0.5 0.8 0.55 0.3 0.6 L-1.45 0.5 Q-2.85 0.25 -3.3 -0.65 -3.8 -1.6 -4.35 -2.6 -4.35 -3.95 -2.25 -3.1 -0.6 -2.35 0.55 -1.6 2.9 0.2 1.3 0.5 0.8 0.55 0.3 0.6 L-1.45 0.5 Q-2.85 0.25 -3.3 -0.65 -3.8 -1.6 -4.35 -2.6" fill="none" stroke="#000000" stroke-linecap="round" stroke-linejoin="round" stroke-opacity="0.0" stroke-width="1.0">
      <animate attributeName="stroke" dur="2s" repeatCount="indefinite" values="#000000;#000001"/>
      <animate attributeName="stroke-width" dur="2s" repeatCount="indefinite" values="0.0;0.0"/>
      <animate attributeName="fill-opacity" dur="2s" repeatCount="indefinite" values="0.0;0.0"/>
      <animate attributeName="d" dur="2s" repeatCount="indefinite" values="M0.2 -4.05 L-0.8 -4.25 Q-2.85 -4.3 -4.9 -4.35 -6.0 -4.05 -6.1 -3.2 -6.25 -1.1 -5.7 0.1 -5.15 1.3 -2.7 1.7 0.95 1.75 4.65 1.85 3.65 -0.65 3.75 -1.9 3.95 -3.35 0.2 -4.05 M-4.35 -2.6 Q-4.35 -3.95 -2.25 -3.1 -0.6 -2.35 0.55 -1.6 2.9 0.2 1.3 0.5 0.8 0.55 0.3 0.6 L-1.45 0.5 Q-2.85 0.25 -3.3 -0.65 -3.8 -1.6 -4.35 -2.6 -4.35 -3.95 -2.25 -3.1 -0.6 -2.35 0.55 -1.6 2.9 0.2 1.3 0.5 0.8 0.55 0.3 0.6 L-1.45 0.5 Q-2.85 0.25 -3.3 -0.65 -3.8 -1.6 -4.35 -2.6;M1.25 -3.8 L-0.95 -4.25 Q-5.9 -5.0 -9.2 -3.3 -11.65 -2.1 -11.45 -1.0 -9.9 0.75 -6.95 1.25 -4.35 1.55 -1.7 1.85 3.65 3.4 5.8 1.85 7.35 -0.4 5.65 -1.95 4.15 -3.15 1.25 -3.8 M-6.55 -0.25 Q-8.6 -1.45 -6.25 -2.85 -4.15 -2.9 -2.05 -3.0 0.85 -1.45 1.7 -0.75 2.4 -0.15 1.9 0.2 L-0.65 0.7 Q-2.1 0.7 -3.55 0.65 -5.35 0.4 -6.55 -0.25 -8.6 -1.45 -6.25 -2.85 -4.15 -2.9 -2.05 -3.0 0.85 -1.45 1.7 -0.75 2.4 -0.15 1.9 0.2 L-0.65 0.7 Q-2.1 0.7 -3.55 0.65 -5.35 0.4 -6.55 -0.25"/>
    </path>
  </g>
</svg>
