<?xml version="1.0" encoding="UTF-8" standalone="no"?>
<svg xmlns:xlink="http://www.w3.org/1999/xlink" height="13.1px" width="23.8px" xmlns="http://www.w3.org/2000/svg">
  <g transform="matrix(1.0, 0.0, 0.0, 1.0, 13.2, 6.25)">
    <path d="M-7.35 -0.15 Q-4.9 1.2 -0.3 1.0 4.25 0.7 2.45 -0.75 0.7 -2.25 -2.0 -3.4 -4.5 -3.3 -7.0 -3.25 -9.75 -1.55 -7.35 -0.15 M-12.5 0.05 Q-10.5 1.8 -1.55 2.35 4.55 4.35 7.35 2.35 9.2 -0.35 7.15 -2.15 5.15 -4.0 -0.7 -4.9 -6.5 -5.85 -10.5 -3.75 -14.55 -1.75 -12.5 0.05" fill="#ffffff" fill-opacity="0.6" fill-rule="evenodd" stroke="none">
      <animate attributeName="fill" dur="2s" repeatCount="indefinite" values="#ffffff;#ffffff"/>
      <animate attributeName="fill-opacity" dur="2s" repeatCount="indefinite" values="0.6;0.6"/>
      <animate attributeName="d" dur="2s" repeatCount="indefinite" values="M-7.35 -0.15 Q-4.9 1.2 -0.3 1.0 4.25 0.7 2.45 -0.75 0.7 -2.25 -2.0 -3.4 -4.5 -3.3 -7.0 -3.25 -9.75 -1.55 -7.35 -0.15 M-12.5 0.05 Q-10.5 1.8 -1.55 2.35 4.55 4.35 7.35 2.35 9.2 -0.35 7.15 -2.15 5.15 -4.0 -0.7 -4.9 -6.5 -5.85 -10.5 -3.75 -14.55 -1.75 -12.5 0.05;M-7.0 -3.85 Q-9.75 -1.7 -6.9 0.4 -4.1 2.45 2.7 3.45 9.5 4.45 6.05 0.55 2.55 -3.4 -1.05 -4.5 -4.7 -5.6 -7.0 -3.85 M-12.5 0.3 Q-10.5 2.5 -1.45 4.15 12.1 9.65 10.4 3.85 9.2 -0.2 7.15 -2.45 5.15 -4.75 -0.7 -5.9 -6.5 -7.1 -10.5 -4.45 -14.55 -1.95 -12.5 0.3"/>
    </path>
    <path d="M-7.35 -0.15 Q-4.9 1.2 -0.3 1.0 4.25 0.7 2.45 -0.75 0.7 -2.25 -2.0 -3.4 -4.5 -3.3 -7.0 -3.25 -9.75 -1.55 -7.35 -0.15" fill="#ffffff" fill-rule="evenodd" stroke="none">
      <animate attributeName="fill" dur="2s" repeatCount="indefinite" values="#ffffff;#ffffff"/>
      <animate attributeName="fill-opacity" dur="2s" repeatCount="indefinite" values="1.0;1.0"/>
      <animate attributeName="d" dur="2s" repeatCount="indefinite" values="M-7.35 -0.15 Q-4.9 1.2 -0.3 1.0 4.25 0.7 2.45 -0.75 0.7 -2.25 -2.0 -3.4 -4.5 -3.3 -7.0 -3.25 -9.75 -1.55 -7.35 -0.15;M-7.0 -3.85 Q-9.75 -1.7 -6.9 0.4 -4.1 2.45 2.7 3.45 9.5 4.45 6.05 0.55 2.55 -3.4 -1.05 -4.5 -4.7 -5.6 -7.0 -3.85"/>
    </path>
    <path d="M-12.5 0.05 Q-14.55 -1.75 -10.5 -3.75 -6.5 -5.85 -0.7 -4.9 5.15 -4.0 7.15 -2.15 9.2 -0.35 7.35 2.35 4.55 4.35 -1.55 2.35 -10.5 1.8 -12.5 0.05 M-7.35 -0.15 Q-9.75 -1.55 -7.0 -3.25 -4.5 -3.3 -2.0 -3.4 0.7 -2.25 2.45 -0.75 4.25 0.7 -0.3 1.0 -4.9 1.2 -7.35 -0.15 -9.75 -1.55 -7.0 -3.25 -4.5 -3.3 -2.0 -3.4 0.7 -2.25 2.45 -0.75 4.25 0.7 -0.3 1.0 -4.9 1.2 -7.35 -0.15" fill="none" stroke="#000000" stroke-linecap="round" stroke-linejoin="round" stroke-opacity="0.0" stroke-width="1.0">
      <animate attributeName="stroke" dur="2s" repeatCount="indefinite" values="#000000;#000001"/>
      <animate attributeName="stroke-width" dur="2s" repeatCount="indefinite" values="0.0;0.0"/>
      <animate attributeName="fill-opacity" dur="2s" repeatCount="indefinite" values="0.0;0.0"/>
      <animate attributeName="d" dur="2s" repeatCount="indefinite" values="M-12.5 0.05 Q-14.55 -1.75 -10.5 -3.75 -6.5 -5.85 -0.7 -4.9 5.15 -4.0 7.15 -2.15 9.2 -0.35 7.35 2.35 4.55 4.35 -1.55 2.35 -10.5 1.8 -12.5 0.05 M-7.35 -0.15 Q-9.75 -1.55 -7.0 -3.25 -4.5 -3.3 -2.0 -3.4 0.7 -2.25 2.45 -0.75 4.25 0.7 -0.3 1.0 -4.9 1.2 -7.35 -0.15 -9.75 -1.55 -7.0 -3.25 -4.5 -3.3 -2.0 -3.4 0.7 -2.25 2.45 -0.75 4.25 0.7 -0.3 1.0 -4.9 1.2 -7.35 -0.15;M-12.5 0.3 Q-14.55 -1.95 -10.5 -4.45 -6.5 -7.1 -0.7 -5.9 5.15 -4.75 7.15 -2.45 9.2 -0.2 10.4 3.85 12.1 9.65 -1.45 4.15 -10.5 2.5 -12.5 0.3 M-7.0 -3.85 Q-4.7 -5.6 -1.05 -4.5 2.55 -3.4 6.05 0.55 9.5 4.45 2.7 3.45 -4.1 2.45 -6.9 0.4 -9.75 -1.7 -7.0 -3.85 -4.7 -5.6 -1.05 -4.5 2.55 -3.4 6.05 0.55 9.5 4.45 2.7 3.45 -4.1 2.45 -6.9 0.4 -9.75 -1.7 -7.0 -3.85"/>
    </path>
  </g>
</svg>
