<?xml version="1.0" encoding="UTF-8" standalone="no"?>
<svg xmlns:xlink="http://www.w3.org/1999/xlink" height="15.05px" width="31.1px" xmlns="http://www.w3.org/2000/svg">
  <g transform="matrix(1.0, 0.0, 0.0, 1.0, 17.7, 6.25)">
    <path d="M-7.0 -3.85 Q-9.75 -1.7 -6.9 0.4 -4.1 2.45 2.7 3.45 9.5 4.45 6.05 0.55 2.55 -3.4 -1.05 -4.5 -4.7 -5.6 -7.0 -3.85 M-12.5 0.3 Q-10.5 2.5 -1.45 4.15 12.1 9.65 10.4 3.85 9.2 -0.2 7.15 -2.45 5.15 -4.75 -0.7 -5.9 -6.5 -7.1 -10.5 -4.45 -14.55 -1.95 -12.5 0.3" fill="#ffffff" fill-opacity="0.6" fill-rule="evenodd" stroke="none">
      <animate attributeName="fill" dur="2s" repeatCount="indefinite" values="#ffffff;#ffffff"/>
      <animate attributeName="fill-opacity" dur="2s" repeatCount="indefinite" values="0.6;0.6"/>
      <animate attributeName="d" dur="2s" repeatCount="indefinite" values="M-7.0 -3.85 Q-9.75 -1.7 -6.9 0.4 -4.1 2.45 2.7 3.45 9.5 4.45 6.05 0.55 2.55 -3.4 -1.05 -4.5 -4.7 -5.6 -7.0 -3.85 M-12.5 0.3 Q-10.5 2.5 -1.45 4.15 12.1 9.65 10.4 3.85 9.2 -0.2 7.15 -2.45 5.15 -4.75 -0.7 -5.9 -6.5 -7.1 -10.5 -4.45 -14.55 -1.95 -12.5 0.3;M-9.35 0.65 Q-5.05 1.55 4.75 4.2 14.5 6.85 9.05 1.6 3.55 -3.7 -0.55 -4.65 -4.7 -5.6 -9.15 -2.95 -13.65 -0.3 -9.35 0.65 M-16.3 2.65 Q-12.5 3.75 -1.45 4.15 15.9 12.2 12.95 6.3 10.0 0.35 7.6 -2.2 5.15 -4.75 -0.7 -5.9 -6.5 -7.1 -13.3 -2.8 -20.15 1.5 -16.3 2.65"/>
    </path>
    <path d="M-7.0 -3.85 Q-9.75 -1.7 -6.9 0.4 -4.1 2.45 2.7 3.45 9.5 4.45 6.05 0.55 2.55 -3.4 -1.05 -4.5 -4.7 -5.6 -7.0 -3.85" fill="#ffffff" fill-rule="evenodd" stroke="none">
      <animate attributeName="fill" dur="2s" repeatCount="indefinite" values="#ffffff;#ffffff"/>
      <animate attributeName="fill-opacity" dur="2s" repeatCount="indefinite" values="1.0;1.0"/>
      <animate attributeName="d" dur="2s" repeatCount="indefinite" values="M-7.0 -3.85 Q-9.75 -1.7 -6.9 0.4 -4.1 2.45 2.7 3.45 9.5 4.45 6.05 0.55 2.55 -3.4 -1.05 -4.5 -4.7 -5.6 -7.0 -3.85;M-9.35 0.65 Q-5.05 1.55 4.75 4.2 14.5 6.85 9.05 1.6 3.55 -3.7 -0.55 -4.65 -4.7 -5.6 -9.15 -2.95 -13.65 -0.3 -9.35 0.65"/>
    </path>
    <path d="M-12.5 0.3 Q-14.55 -1.95 -10.5 -4.45 -6.5 -7.1 -0.7 -5.9 5.15 -4.75 7.15 -2.45 9.2 -0.2 10.4 3.85 12.1 9.65 -1.45 4.15 -10.5 2.5 -12.5 0.3 M-7.0 -3.85 Q-4.7 -5.6 -1.05 -4.5 2.55 -3.4 6.05 0.55 9.5 4.45 2.7 3.45 -4.1 2.45 -6.9 0.4 -9.75 -1.7 -7.0 -3.85 -4.7 -5.6 -1.05 -4.5 2.55 -3.4 6.05 0.55 9.5 4.45 2.7 3.45 -4.1 2.45 -6.9 0.4 -9.75 -1.7 -7.0 -3.85" fill="none" stroke="#000000" stroke-linecap="round" stroke-linejoin="round" stroke-opacity="0.0" stroke-width="1.0">
      <animate attributeName="stroke" dur="2s" repeatCount="indefinite" values="#000000;#000001"/>
      <animate attributeName="stroke-width" dur="2s" repeatCount="indefinite" values="0.0;0.0"/>
      <animate attributeName="fill-opacity" dur="2s" repeatCount="indefinite" values="0.0;0.0"/>
      <animate attributeName="d" dur="2s" repeatCount="indefinite" values="M-12.5 0.3 Q-14.55 -1.95 -10.5 -4.45 -6.5 -7.1 -0.7 -5.9 5.15 -4.75 7.15 -2.45 9.2 -0.2 10.4 3.85 12.1 9.65 -1.45 4.15 -10.5 2.5 -12.5 0.3 M-7.0 -3.85 Q-4.7 -5.6 -1.05 -4.5 2.55 -3.4 6.05 0.55 9.5 4.45 2.7 3.45 -4.1 2.45 -6.9 0.4 -9.75 -1.7 -7.0 -3.85 -4.7 -5.6 -1.05 -4.5 2.55 -3.4 6.05 0.55 9.5 4.45 2.7 3.45 -4.1 2.45 -6.9 0.4 -9.75 -1.7 -7.0 -3.85;M-16.3 2.65 Q-20.15 1.5 -13.3 -2.8 -6.5 -7.1 -0.7 -5.9 5.15 -4.75 7.6 -2.2 10.0 0.35 12.95 6.3 15.9 12.2 -1.45 4.15 -12.5 3.75 -16.3 2.65 M-9.35 0.65 Q-13.65 -0.3 -9.15 -2.95 -4.7 -5.6 -0.55 -4.65 3.55 -3.7 9.05 1.6 14.5 6.85 4.75 4.2 -5.05 1.55 -9.35 0.65 -13.65 -0.3 -9.15 -2.95 -4.7 -5.6 -0.55 -4.65 3.55 -3.7 9.05 1.6 14.5 6.85 4.75 4.2 -5.05 1.55 -9.35 0.65"/>
    </path>
  </g>
</svg>
