<?xml version="1.0" encoding="UTF-8" standalone="no"?>
<svg xmlns:xlink="http://www.w3.org/1999/xlink" height="18.9px" width="36.05px" xmlns="http://www.w3.org/2000/svg">
  <g transform="matrix(1.0, 0.0, 0.0, 1.0, 17.7, 8.55)">
    <path d="M-9.35 0.65 L-9.35 0.65 -3.25 2.1 3.6 3.9 4.75 4.2 Q14.25 6.8 9.05 1.6 3.55 -3.7 -1.45 -4.8 -2.65 -4.85 -3.8 -4.85 -6.4 -4.6 -10.05 -2.4 -13.2 -0.2 -9.35 0.65 M-16.3 2.65 Q-12.95 3.65 -3.65 4.05 L-1.45 4.15 Q15.85 12.15 12.95 6.3 10.0 0.35 6.85 -2.85 4.35 -4.9 -0.7 -5.9 L-2.55 -6.15 Q-4.4 -6.0 -6.2 -5.85 -9.6 -5.15 -14.3 -2.15 -19.85 1.6 -16.3 2.65" fill="#ffffff" fill-opacity="0.6" fill-rule="evenodd" stroke="none">
      <animate attributeName="fill" dur="2s" repeatCount="indefinite" values="#ffffff;#ffffff"/>
      <animate attributeName="fill-opacity" dur="2s" repeatCount="indefinite" values="0.6;0.6"/>
      <animate attributeName="d" dur="2s" repeatCount="indefinite" values="M-9.35 0.65 L-9.35 0.65 -3.25 2.1 3.6 3.9 4.75 4.2 Q14.25 6.8 9.05 1.6 3.55 -3.7 -1.45 -4.8 -2.65 -4.85 -3.8 -4.85 -6.4 -4.6 -10.05 -2.4 -13.2 -0.2 -9.35 0.65 M-16.3 2.65 Q-12.95 3.65 -3.65 4.05 L-1.45 4.15 Q15.85 12.15 12.95 6.3 10.0 0.35 6.85 -2.85 4.35 -4.9 -0.7 -5.9 L-2.55 -6.15 Q-4.4 -6.0 -6.2 -5.85 -9.6 -5.15 -14.3 -2.15 -19.85 1.6 -16.3 2.65;M-9.35 0.65 L-9.25 0.65 -1.65 2.25 6.9 4.45 8.5 4.85 Q19.4 7.45 12.2 0.8 5.8 -5.15 -0.2 -6.95 -0.9 -7.05 -1.65 -4.8 -4.8 -5.2 -9.15 -2.95 -13.65 -0.3 -9.35 0.65 M-16.3 2.65 Q-12.55 3.7 -1.4 4.4 L1.15 5.55 Q21.5 14.3 17.8 7.15 14.4 0.6 10.65 -3.8 7.9 -6.55 1.9 -8.05 L-0.4 -8.55 Q-1.0 -8.7 -3.65 -6.15 -7.7 -6.05 -13.3 -2.8 -20.15 1.5 -16.3 2.65"/>
    </path>
    <path d="M-9.35 0.65 L-9.35 0.65 -3.25 2.1 3.6 3.9 4.75 4.2 Q14.25 6.8 9.05 1.6 3.55 -3.7 -1.45 -4.8 -2.65 -4.85 -3.8 -4.85 -6.4 -4.6 -10.05 -2.4 -13.2 -0.2 -9.35 0.65" fill="#ffffff" fill-rule="evenodd" stroke="none">
      <animate attributeName="fill" dur="2s" repeatCount="indefinite" values="#ffffff;#ffffff"/>
      <animate attributeName="fill-opacity" dur="2s" repeatCount="indefinite" values="1.0;1.0"/>
      <animate attributeName="d" dur="2s" repeatCount="indefinite" values="M-9.35 0.65 L-9.35 0.65 -3.25 2.1 3.6 3.9 4.75 4.2 Q14.25 6.8 9.05 1.6 3.55 -3.7 -1.45 -4.8 -2.65 -4.85 -3.8 -4.85 -6.4 -4.6 -10.05 -2.4 -13.2 -0.2 -9.35 0.65;M-9.35 0.65 L-9.25 0.65 -1.65 2.25 6.9 4.45 8.5 4.85 Q19.4 7.45 12.2 0.8 5.8 -5.15 -0.2 -6.95 -0.9 -7.05 -1.65 -4.8 -4.8 -5.2 -9.15 -2.95 -13.65 -0.3 -9.35 0.65"/>
    </path>
    <path d="M-16.3 2.65 Q-19.85 1.6 -14.3 -2.15 -9.6 -5.15 -6.2 -5.85 -4.4 -6.0 -2.55 -6.15 L-0.7 -5.9 Q4.35 -4.9 6.85 -2.85 10.0 0.35 12.95 6.3 15.85 12.15 -1.45 4.15 L-3.65 4.05 Q-12.95 3.65 -16.3 2.65 M-9.35 0.65 Q-13.2 -0.2 -10.05 -2.4 -6.4 -4.6 -3.8 -4.85 -2.65 -4.85 -1.45 -4.8 3.55 -3.7 9.05 1.6 14.25 6.8 4.75 4.2 L3.6 3.9 -3.25 2.1 -9.35 0.65 -9.35 0.65 Q-13.2 -0.2 -10.05 -2.4 -6.4 -4.6 -3.8 -4.85 -2.65 -4.85 -1.45 -4.8 3.55 -3.7 9.05 1.6 14.25 6.8 4.75 4.2 L3.6 3.9 -3.25 2.1 -9.35 0.65 -9.35 0.65" fill="none" stroke="#000000" stroke-linecap="round" stroke-linejoin="round" stroke-opacity="0.0" stroke-width="1.0">
      <animate attributeName="stroke" dur="2s" repeatCount="indefinite" values="#000000;#000001"/>
      <animate attributeName="stroke-width" dur="2s" repeatCount="indefinite" values="0.0;0.0"/>
      <animate attributeName="fill-opacity" dur="2s" repeatCount="indefinite" values="0.0;0.0"/>
      <animate attributeName="d" dur="2s" repeatCount="indefinite" values="M-16.3 2.65 Q-19.85 1.6 -14.3 -2.15 -9.6 -5.15 -6.2 -5.85 -4.4 -6.0 -2.55 -6.15 L-0.7 -5.9 Q4.35 -4.9 6.85 -2.85 10.0 0.35 12.95 6.3 15.85 12.15 -1.45 4.15 L-3.65 4.05 Q-12.95 3.65 -16.3 2.65 M-9.35 0.65 Q-13.2 -0.2 -10.05 -2.4 -6.4 -4.6 -3.8 -4.85 -2.65 -4.85 -1.45 -4.8 3.55 -3.7 9.05 1.6 14.25 6.8 4.75 4.2 L3.6 3.9 -3.25 2.1 -9.35 0.65 -9.35 0.65 Q-13.2 -0.2 -10.05 -2.4 -6.4 -4.6 -3.8 -4.85 -2.65 -4.85 -1.45 -4.8 3.55 -3.7 9.05 1.6 14.25 6.8 4.75 4.2 L3.6 3.9 -3.25 2.1 -9.35 0.65 -9.35 0.65;M-16.3 2.65 Q-20.15 1.5 -13.3 -2.8 -7.7 -6.05 -3.65 -6.15 -1.0 -8.7 -0.4 -8.55 L1.9 -8.05 Q7.9 -6.55 10.65 -3.8 14.4 0.6 17.8 7.15 21.5 14.3 1.15 5.55 L-1.4 4.4 Q-12.55 3.7 -16.3 2.65 M-9.35 0.65 Q-13.65 -0.3 -9.15 -2.95 -4.8 -5.2 -1.65 -4.8 -0.9 -7.05 -0.2 -6.95 5.8 -5.15 12.2 0.8 19.4 7.45 8.5 4.85 L6.9 4.45 -1.65 2.25 -9.25 0.65 -9.35 0.65 Q-13.65 -0.3 -9.15 -2.95 -4.8 -5.2 -1.65 -4.8 -0.9 -7.05 -0.2 -6.95 5.8 -5.15 12.2 0.8 19.4 7.45 8.5 4.85 L6.9 4.45 -1.65 2.25 -9.25 0.65 -9.35 0.65"/>
    </path>
  </g>
</svg>
