<?xml version="1.0" encoding="UTF-8" standalone="no"?>
<svg xmlns:xlink="http://www.w3.org/1999/xlink" height="21.8px" width="41.65px" xmlns="http://www.w3.org/2000/svg">
  <g transform="matrix(1.0, 0.0, 0.0, 1.0, 19.45, 8.55)">
    <path d="M-9.35 0.65 L-1.65 2.25 6.9 4.45 Q19.85 7.9 12.6 1.1 5.3 -5.7 -0.2 -6.95 -0.9 -7.05 -1.65 -4.8 -5.3 -5.25 -9.15 -2.95 -13.65 -0.3 -9.35 0.65 M-16.3 2.65 Q-12.55 3.7 -1.65 4.4 -1.5 4.4 -1.4 4.4 21.75 14.75 17.8 7.15 13.85 -0.5 10.65 -3.8 7.4 -7.05 -0.4 -8.55 -1.0 -8.7 -3.65 -6.15 -8.2 -6.05 -13.3 -2.8 -20.15 1.5 -16.3 2.65" fill="#ffffff" fill-opacity="0.6" fill-rule="evenodd" stroke="none">
      <animate attributeName="fill" dur="2s" repeatCount="indefinite" values="#ffffff;#ffffff"/>
      <animate attributeName="fill-opacity" dur="2s" repeatCount="indefinite" values="0.6;0.6"/>
      <animate attributeName="d" dur="2s" repeatCount="indefinite" values="M-9.35 0.65 L-1.65 2.25 6.9 4.45 Q19.85 7.9 12.6 1.1 5.3 -5.7 -0.2 -6.95 -0.9 -7.05 -1.65 -4.8 -5.3 -5.25 -9.15 -2.95 -13.65 -0.3 -9.35 0.65 M-16.3 2.65 Q-12.55 3.7 -1.65 4.4 -1.5 4.4 -1.4 4.4 21.75 14.75 17.8 7.15 13.85 -0.5 10.65 -3.8 7.4 -7.05 -0.4 -8.55 -1.0 -8.7 -3.65 -6.15 -8.2 -6.05 -13.3 -2.8 -20.15 1.5 -16.3 2.65;M-9.35 0.65 L-1.65 2.25 12.95 7.8 Q23.3 11.6 15.0 3.0 6.65 -5.6 2.9 -6.3 -0.9 -7.05 -1.65 -4.8 -5.3 -5.25 -9.15 -2.95 -13.65 -0.3 -9.35 0.65 M-17.75 3.0 Q-12.3 3.95 -6.9 4.9 -0.5 5.85 12.45 11.2 25.35 16.5 21.2 8.2 17.05 -0.1 12.25 -3.55 7.4 -7.05 -0.4 -8.55 -1.0 -8.7 -3.65 -6.15 -8.2 -6.05 -15.15 -2.0 -22.15 2.05 -17.75 3.0"/>
    </path>
    <path d="M-9.35 0.65 L-1.65 2.25 6.9 4.45 Q19.85 7.9 12.6 1.1 5.3 -5.7 -0.2 -6.95 -0.9 -7.05 -1.65 -4.8 -5.3 -5.25 -9.15 -2.95 -13.65 -0.3 -9.35 0.65" fill="#ffffff" fill-rule="evenodd" stroke="none">
      <animate attributeName="fill" dur="2s" repeatCount="indefinite" values="#ffffff;#ffffff"/>
      <animate attributeName="fill-opacity" dur="2s" repeatCount="indefinite" values="1.0;1.0"/>
      <animate attributeName="d" dur="2s" repeatCount="indefinite" values="M-9.35 0.65 L-1.65 2.25 6.9 4.45 Q19.85 7.9 12.6 1.1 5.3 -5.7 -0.2 -6.95 -0.9 -7.05 -1.65 -4.8 -5.3 -5.25 -9.15 -2.95 -13.65 -0.3 -9.35 0.65;M-9.35 0.65 L-1.65 2.25 12.95 7.8 Q23.3 11.6 15.0 3.0 6.65 -5.6 2.9 -6.3 -0.9 -7.05 -1.65 -4.8 -5.3 -5.25 -9.15 -2.95 -13.65 -0.3 -9.35 0.65"/>
    </path>
    <path d="M-16.3 2.65 Q-20.15 1.5 -13.3 -2.8 -8.2 -6.05 -3.65 -6.15 -1.0 -8.7 -0.4 -8.55 7.4 -7.05 10.65 -3.8 13.85 -0.5 17.8 7.15 21.75 14.75 -1.4 4.4 -1.5 4.4 -1.65 4.4 -12.55 3.7 -16.3 2.65 M-9.35 0.65 Q-13.65 -0.3 -9.15 -2.95 -5.3 -5.25 -1.65 -4.8 -0.9 -7.05 -0.2 -6.95 5.3 -5.7 12.6 1.1 19.85 7.9 6.9 4.45 L-1.65 2.25 -9.35 0.65 Q-13.65 -0.3 -9.15 -2.95 -5.3 -5.25 -1.65 -4.8 -0.9 -7.05 -0.2 -6.95 5.3 -5.7 12.6 1.1 19.85 7.9 6.9 4.45 L-1.65 2.25 -9.35 0.65" fill="none" stroke="#000000" stroke-linecap="round" stroke-linejoin="round" stroke-opacity="0.0" stroke-width="1.0">
      <animate attributeName="stroke" dur="2s" repeatCount="indefinite" values="#000000;#000001"/>
      <animate attributeName="stroke-width" dur="2s" repeatCount="indefinite" values="0.0;0.0"/>
      <animate attributeName="fill-opacity" dur="2s" repeatCount="indefinite" values="0.0;0.0"/>
      <animate attributeName="d" dur="2s" repeatCount="indefinite" values="M-16.3 2.65 Q-20.15 1.5 -13.3 -2.8 -8.2 -6.05 -3.65 -6.15 -1.0 -8.7 -0.4 -8.55 7.4 -7.05 10.65 -3.8 13.85 -0.5 17.8 7.15 21.75 14.75 -1.4 4.4 -1.5 4.4 -1.65 4.4 -12.55 3.7 -16.3 2.65 M-9.35 0.65 Q-13.65 -0.3 -9.15 -2.95 -5.3 -5.25 -1.65 -4.8 -0.9 -7.05 -0.2 -6.95 5.3 -5.7 12.6 1.1 19.85 7.9 6.9 4.45 L-1.65 2.25 -9.35 0.65 Q-13.65 -0.3 -9.15 -2.95 -5.3 -5.25 -1.65 -4.8 -0.9 -7.05 -0.2 -6.95 5.3 -5.7 12.6 1.1 19.85 7.9 6.9 4.45 L-1.65 2.25 -9.35 0.65;M-17.75 3.0 Q-22.15 2.05 -15.15 -2.0 -8.2 -6.05 -3.65 -6.15 -1.0 -8.7 -0.4 -8.55 7.4 -7.05 12.25 -3.55 17.05 -0.1 21.2 8.2 25.35 16.5 12.45 11.2 -0.5 5.85 -6.9 4.9 -12.3 3.95 -17.75 3.0 M-9.35 0.65 Q-13.65 -0.3 -9.15 -2.95 -5.3 -5.25 -1.65 -4.8 -0.9 -7.05 2.9 -6.3 6.65 -5.6 15.0 3.0 23.3 11.6 12.95 7.8 L-1.65 2.25 -9.35 0.65 Q-13.65 -0.3 -9.15 -2.95 -5.3 -5.25 -1.65 -4.8 -0.9 -7.05 2.9 -6.3 6.65 -5.6 15.0 3.0 23.3 11.6 12.95 7.8 L-1.65 2.25 -9.35 0.65"/>
    </path>
  </g>
</svg>
