<?xml version="1.0" encoding="UTF-8" standalone="no"?>
<svg xmlns:xlink="http://www.w3.org/1999/xlink" height="22.5px" width="47.25px" xmlns="http://www.w3.org/2000/svg">
  <g transform="matrix(1.0, 0.0, 0.0, 1.0, 19.5, 8.55)">
    <path d="M-9.35 0.65 Q-5.5 1.45 -1.65 2.25 L-0.1 2.9 12.95 7.8 14.5 8.35 Q19.5 9.9 18.4 7.15 17.75 6.25 17.15 5.4 16.05 4.2 15.0 3.0 L13.65 1.65 Q11.75 -0.15 9.9 -1.9 5.4 -5.85 2.9 -6.3 1.05 -6.65 -0.05 -6.3 -1.25 -5.95 -1.65 -4.8 -2.65 -4.8 -3.65 -4.8 -6.35 -4.6 -9.9 -2.45 -13.25 -0.2 -9.35 0.65 M-17.75 3.0 Q-12.95 3.85 -8.2 4.7 L-6.9 4.9 Q-1.65 5.7 8.05 9.45 L12.45 11.2 Q18.2 13.55 20.6 13.2 22.2 13.0 22.25 11.5 L21.8 9.5 Q21.5 8.85 21.2 8.2 L20.35 6.6 Q19.3 4.85 18.3 3.15 L16.05 0.05 Q14.2 -2.15 12.25 -3.55 L10.75 -4.5 Q6.25 -7.25 -0.4 -8.55 -0.8 -8.65 -2.1 -7.6 -2.75 -7.05 -5.35 -6.0 -9.45 -5.35 -15.9 -1.55 -21.9 2.1 -17.75 3.0" fill="#ffffff" fill-opacity="0.6" fill-rule="evenodd" stroke="none">
      <animate attributeName="fill" dur="2s" repeatCount="indefinite" values="#ffffff;#ffffff"/>
      <animate attributeName="fill-opacity" dur="2s" repeatCount="indefinite" values="0.6;0.6"/>
      <animate attributeName="d" dur="2s" repeatCount="indefinite" values="M-9.35 0.65 Q-5.5 1.45 -1.65 2.25 L-0.1 2.9 12.95 7.8 14.5 8.35 Q19.5 9.9 18.4 7.15 17.75 6.25 17.15 5.4 16.05 4.2 15.0 3.0 L13.65 1.65 Q11.75 -0.15 9.9 -1.9 5.4 -5.85 2.9 -6.3 1.05 -6.65 -0.05 -6.3 -1.25 -5.95 -1.65 -4.8 -2.65 -4.8 -3.65 -4.8 -6.35 -4.6 -9.9 -2.45 -13.25 -0.2 -9.35 0.65 M-17.75 3.0 Q-12.95 3.85 -8.2 4.7 L-6.9 4.9 Q-1.65 5.7 8.05 9.45 L12.45 11.2 Q18.2 13.55 20.6 13.2 22.2 13.0 22.25 11.5 L21.8 9.5 Q21.5 8.85 21.2 8.2 L20.35 6.6 Q19.3 4.85 18.3 3.15 L16.05 0.05 Q14.2 -2.15 12.25 -3.55 L10.75 -4.5 Q6.25 -7.25 -0.4 -8.55 -0.8 -8.65 -2.1 -7.6 -2.75 -7.05 -5.35 -6.0 -9.45 -5.35 -15.9 -1.55 -21.9 2.1 -17.75 3.0;M-12.25 1.6 Q-11.05 3.25 -3.65 2.5 L-1.65 2.25 13.55 8.45 15.55 9.25 Q19.5 10.9 21.9 11.25 22.7 11.25 23.8 9.25 23.8 8.25 21.45 6.2 L19.5 4.6 Q16.6 2.4 14.5 1.6 9.75 -2.6 6.6 -4.55 4.5 -5.85 3.15 -6.15 1.7 -6.25 0.3 -6.35 -1.2 -6.1 -1.65 -4.8 -4.9 -5.2 -9.15 -2.95 -13.65 -0.3 -12.25 1.6 M-17.85 3.15 Q-13.55 4.2 -8.0 6.25 L-6.7 6.7 Q1.55 9.15 9.8 11.6 L15.05 12.9 Q22.5 14.6 24.15 13.55 24.85 13.4 26.3 11.75 L27.75 9.65 Q27.75 9.1 27.25 8.35 L26.1 7.05 Q25.25 6.2 22.9 4.45 L19.65 2.0 Q17.8 -0.2 15.6 -1.85 L13.85 -3.05 Q8.35 -6.45 1.9 -8.05 0.75 -8.3 -0.4 -8.55 -0.85 -8.65 -3.65 -6.15 -7.95 -6.05 -15.15 -2.0 -22.15 2.05 -17.85 3.15"/>
    </path>
    <path d="M-9.35 0.65 Q-5.5 1.45 -1.65 2.25 L-0.1 2.9 12.95 7.8 14.5 8.35 Q19.5 9.9 18.4 7.15 17.75 6.25 17.15 5.4 16.05 4.2 15.0 3.0 L13.65 1.65 Q11.75 -0.15 9.9 -1.9 5.4 -5.85 2.9 -6.3 1.05 -6.65 -0.05 -6.3 -1.25 -5.95 -1.65 -4.8 -2.65 -4.8 -3.65 -4.8 -6.35 -4.6 -9.9 -2.45 -13.25 -0.2 -9.35 0.65" fill="#ffffff" fill-rule="evenodd" stroke="none">
      <animate attributeName="fill" dur="2s" repeatCount="indefinite" values="#ffffff;#ffffff"/>
      <animate attributeName="fill-opacity" dur="2s" repeatCount="indefinite" values="1.0;1.0"/>
      <animate attributeName="d" dur="2s" repeatCount="indefinite" values="M-9.35 0.65 Q-5.5 1.45 -1.65 2.25 L-0.1 2.9 12.95 7.8 14.5 8.35 Q19.5 9.9 18.4 7.15 17.75 6.25 17.15 5.4 16.05 4.2 15.0 3.0 L13.65 1.65 Q11.75 -0.15 9.9 -1.9 5.4 -5.85 2.9 -6.3 1.05 -6.65 -0.05 -6.3 -1.25 -5.95 -1.65 -4.8 -2.65 -4.8 -3.65 -4.8 -6.35 -4.6 -9.9 -2.45 -13.25 -0.2 -9.35 0.65;M-12.25 1.6 Q-11.05 3.25 -3.65 2.5 L-1.65 2.25 13.55 8.45 15.55 9.25 Q19.5 10.9 21.9 11.25 22.7 11.25 23.8 9.25 23.8 8.25 21.45 6.2 L19.5 4.6 Q16.6 2.4 14.5 1.6 9.75 -2.6 6.6 -4.55 4.5 -5.85 3.15 -6.15 1.7 -6.25 0.3 -6.35 -1.2 -6.1 -1.65 -4.8 -4.9 -5.2 -9.15 -2.95 -13.65 -0.3 -12.25 1.6"/>
    </path>
    <path d="M-17.75 3.0 Q-21.9 2.1 -15.9 -1.55 -9.45 -5.35 -5.35 -6.0 -2.75 -7.05 -2.1 -7.6 -0.8 -8.65 -0.4 -8.55 6.25 -7.25 10.75 -4.5 L12.25 -3.55 Q14.2 -2.15 16.05 0.05 L18.3 3.15 Q19.3 4.85 20.35 6.6 L21.2 8.2 Q21.5 8.85 21.8 9.5 L22.25 11.5 Q22.2 13.0 20.6 13.2 18.2 13.55 12.45 11.2 L8.05 9.45 Q-1.65 5.7 -6.9 4.9 L-8.2 4.7 Q-12.95 3.85 -17.75 3.0 M-9.35 0.65 Q-13.25 -0.2 -9.9 -2.45 -6.35 -4.6 -3.65 -4.8 -2.65 -4.8 -1.65 -4.8 -1.25 -5.95 -0.05 -6.3 1.05 -6.65 2.9 -6.3 5.4 -5.85 9.9 -1.9 11.75 -0.15 13.65 1.65 L15.0 3.0 Q16.05 4.2 17.15 5.4 17.75 6.25 18.4 7.15 19.5 9.9 14.5 8.35 L12.95 7.8 -0.1 2.9 -1.65 2.25 Q-5.5 1.45 -9.35 0.65 -13.25 -0.2 -9.9 -2.45 -6.35 -4.6 -3.65 -4.8 -2.65 -4.8 -1.65 -4.8 -1.25 -5.95 -0.05 -6.3 1.05 -6.65 2.9 -6.3 5.4 -5.85 9.9 -1.9 11.75 -0.15 13.65 1.65 L15.0 3.0 Q16.05 4.2 17.15 5.4 17.75 6.25 18.4 7.15 19.5 9.9 14.5 8.35 L12.95 7.8 -0.1 2.9 -1.65 2.25 Q-5.5 1.45 -9.35 0.65" fill="none" stroke="#000000" stroke-linecap="round" stroke-linejoin="round" stroke-opacity="0.0" stroke-width="1.0">
      <animate attributeName="stroke" dur="2s" repeatCount="indefinite" values="#000000;#000001"/>
      <animate attributeName="stroke-width" dur="2s" repeatCount="indefinite" values="0.0;0.0"/>
      <animate attributeName="fill-opacity" dur="2s" repeatCount="indefinite" values="0.0;0.0"/>
      <animate attributeName="d" dur="2s" repeatCount="indefinite" values="M-17.75 3.0 Q-21.9 2.1 -15.9 -1.55 -9.45 -5.35 -5.35 -6.0 -2.75 -7.05 -2.1 -7.6 -0.8 -8.65 -0.4 -8.55 6.25 -7.25 10.75 -4.5 L12.25 -3.55 Q14.2 -2.15 16.05 0.05 L18.3 3.15 Q19.3 4.85 20.35 6.6 L21.2 8.2 Q21.5 8.85 21.8 9.5 L22.25 11.5 Q22.2 13.0 20.6 13.2 18.2 13.55 12.45 11.2 L8.05 9.45 Q-1.65 5.7 -6.9 4.9 L-8.2 4.7 Q-12.95 3.85 -17.75 3.0 M-9.35 0.65 Q-13.25 -0.2 -9.9 -2.45 -6.35 -4.6 -3.65 -4.8 -2.65 -4.8 -1.65 -4.8 -1.25 -5.95 -0.05 -6.3 1.05 -6.65 2.9 -6.3 5.4 -5.85 9.9 -1.9 11.75 -0.15 13.65 1.65 L15.0 3.0 Q16.05 4.2 17.15 5.4 17.75 6.25 18.4 7.15 19.5 9.9 14.5 8.35 L12.95 7.8 -0.1 2.9 -1.65 2.25 Q-5.5 1.45 -9.35 0.65 -13.25 -0.2 -9.9 -2.45 -6.35 -4.6 -3.65 -4.8 -2.65 -4.8 -1.65 -4.8 -1.25 -5.95 -0.05 -6.3 1.05 -6.65 2.9 -6.3 5.4 -5.85 9.9 -1.9 11.75 -0.15 13.65 1.65 L15.0 3.0 Q16.05 4.2 17.15 5.4 17.75 6.25 18.4 7.15 19.5 9.9 14.5 8.35 L12.95 7.8 -0.1 2.9 -1.65 2.25 Q-5.5 1.45 -9.35 0.65;M-17.85 3.15 Q-22.15 2.05 -15.15 -2.0 -7.95 -6.05 -3.65 -6.15 -0.85 -8.65 -0.4 -8.55 0.75 -8.3 1.9 -8.05 8.35 -6.45 13.85 -3.05 L15.6 -1.85 Q17.8 -0.2 19.65 2.0 L22.9 4.45 Q25.25 6.2 26.1 7.05 L27.25 8.35 Q27.75 9.1 27.75 9.65 L26.3 11.75 Q24.85 13.4 24.15 13.55 22.5 14.6 15.05 12.9 L9.8 11.6 Q1.55 9.15 -6.7 6.7 L-8.0 6.25 Q-13.55 4.2 -17.85 3.15 M-12.25 1.6 Q-13.65 -0.3 -9.15 -2.95 -4.9 -5.2 -1.65 -4.8 -1.2 -6.1 0.3 -6.35 1.7 -6.25 3.15 -6.15 4.5 -5.85 6.6 -4.55 9.75 -2.6 14.5 1.6 16.6 2.4 19.5 4.6 L21.45 6.2 Q23.8 8.25 23.8 9.25 22.7 11.25 21.9 11.25 19.5 10.9 15.55 9.25 L13.55 8.45 -1.65 2.25 -3.65 2.5 Q-11.05 3.25 -12.25 1.6 -13.65 -0.3 -9.15 -2.95 -4.9 -5.2 -1.65 -4.8 -1.2 -6.1 0.3 -6.35 1.7 -6.25 3.15 -6.15 4.5 -5.85 6.6 -4.55 9.75 -2.6 14.5 1.6 16.6 2.4 19.5 4.6 L21.45 6.2 Q23.8 8.25 23.8 9.25 22.7 11.25 21.9 11.25 19.5 10.9 15.55 9.25 L13.55 8.45 -1.65 2.25 -3.65 2.5 Q-11.05 3.25 -12.25 1.6"/>
    </path>
  </g>
</svg>
