<?xml version="1.0" encoding="UTF-8" standalone="no"?>
<svg xmlns:xlink="http://www.w3.org/1999/xlink" height="27.4px" width="57.9px" xmlns="http://www.w3.org/2000/svg">
  <g transform="matrix(1.0, 0.0, 0.0, 1.0, 26.55, 8.55)">
    <path d="M-14.55 2.3 Q-13.2 4.15 -3.75 4.55 2.55 3.9 15.55 9.25 19.5 10.9 21.3 11.1 L24.5 10.75 Q26.0 10.0 27.5 8.55 29.0 7.1 22.8 4.75 L14.5 1.6 Q6.55 -5.45 3.15 -6.15 -0.9 -7.05 -1.65 -4.8 -5.3 -5.25 -10.6 -2.4 -15.95 0.4 -14.55 2.3 M-20.55 4.35 L-20.45 4.35 Q-15.6 5.15 -9.3 7.5 L-8.75 7.7 Q-2.7 9.5 3.3 11.25 L9.2 12.7 9.4 12.7 11.0 13.05 Q12.25 13.3 13.45 13.55 L14.75 13.8 Q15.9 14.0 17.0 14.15 18.0 14.25 19.0 14.35 20.75 14.25 22.5 14.2 L24.15 13.55 24.95 13.15 26.0 12.3 26.4 12.0 27.35 11.2 29.2 9.45 31.0 7.6 Q31.75 6.7 30.85 6.05 30.4 5.7 29.6 5.4 28.8 5.15 28.0 4.9 L24.1 3.75 23.2 3.5 Q20.9 2.8 19.65 2.0 L19.45 1.7 Q17.05 -1.05 13.85 -3.05 8.15 -6.6 -0.4 -8.55 -0.8 -8.65 -2.05 -7.6 L-3.65 -6.15 Q-7.95 -6.05 -16.8 -1.25 -25.45 3.5 -20.55 4.35" fill="#ffffff" fill-opacity="0.6" fill-rule="evenodd" stroke="none">
      <animate attributeName="fill" dur="2s" repeatCount="indefinite" values="#ffffff;#ffffff"/>
      <animate attributeName="fill-opacity" dur="2s" repeatCount="indefinite" values="0.6;0.6"/>
      <animate attributeName="d" dur="2s" repeatCount="indefinite" values="M-14.55 2.3 Q-13.2 4.15 -3.75 4.55 2.55 3.9 15.55 9.25 19.5 10.9 21.3 11.1 L24.5 10.75 Q26.0 10.0 27.5 8.55 29.0 7.1 22.8 4.75 L14.5 1.6 Q6.55 -5.45 3.15 -6.15 -0.9 -7.05 -1.65 -4.8 -5.3 -5.25 -10.6 -2.4 -15.95 0.4 -14.55 2.3 M-20.55 4.35 L-20.45 4.35 Q-15.6 5.15 -9.3 7.5 L-8.75 7.7 Q-2.7 9.5 3.3 11.25 L9.2 12.7 9.4 12.7 11.0 13.05 Q12.25 13.3 13.45 13.55 L14.75 13.8 Q15.9 14.0 17.0 14.15 18.0 14.25 19.0 14.35 20.75 14.25 22.5 14.2 L24.15 13.55 24.95 13.15 26.0 12.3 26.4 12.0 27.35 11.2 29.2 9.45 31.0 7.6 Q31.75 6.7 30.85 6.05 30.4 5.7 29.6 5.4 28.8 5.15 28.0 4.9 L24.1 3.75 23.2 3.5 Q20.9 2.8 19.65 2.0 L19.45 1.7 Q17.05 -1.05 13.85 -3.05 8.15 -6.6 -0.4 -8.55 -0.8 -8.65 -2.05 -7.6 L-3.65 -6.15 Q-7.95 -6.05 -16.8 -1.25 -25.45 3.5 -20.55 4.35;M-20.05 3.85 Q-18.2 5.55 -3.75 4.55 1.95 6.45 10.75 8.7 19.55 10.9 21.3 11.1 L24.5 10.75 Q26.0 10.0 27.5 8.55 29.0 7.1 22.8 4.75 L14.5 1.6 Q6.55 -5.45 3.15 -6.15 -0.9 -7.05 -1.65 -4.8 -5.3 -5.25 -13.6 -1.55 -21.95 2.1 -20.05 3.85 M-24.5 6.5 L-24.5 6.5 Q-18.85 6.9 -11.75 8.9 L-11.15 9.1 Q-3.7 11.25 3.1 12.05 L10.3 12.9 10.45 13.1 11.45 14.0 Q12.7 14.95 12.7 16.3 L12.6 17.65 Q12.85 18.85 14.6 18.85 15.6 18.85 16.8 18.1 18.35 17.05 20.5 16.45 L22.05 15.5 22.7 14.95 23.75 13.85 24.15 13.55 25.45 12.75 27.35 11.2 29.6 9.1 Q30.3 8.35 31.0 7.6 31.6 6.85 31.1 6.25 30.7 5.75 29.6 5.4 L25.2 4.05 24.1 3.75 Q21.6 3.1 20.15 2.3 L19.65 2.0 Q17.1 -1.05 13.65 -3.2 7.25 -7.1 -2.0 -7.65 -2.85 -6.9 -3.65 -6.15 L-5.95 -5.85 Q-10.65 -4.7 -20.25 0.55 -30.15 6.1 -24.5 6.5"/>
    </path>
    <path d="M-14.55 2.3 Q-13.2 4.15 -3.75 4.55 2.55 3.9 15.55 9.25 19.5 10.9 21.3 11.1 L24.5 10.75 Q26.0 10.0 27.5 8.55 29.0 7.1 22.8 4.75 L14.5 1.6 Q6.55 -5.45 3.15 -6.15 -0.9 -7.05 -1.65 -4.8 -5.3 -5.25 -10.6 -2.4 -15.95 0.4 -14.55 2.3" fill="#ffffff" fill-rule="evenodd" stroke="none">
      <animate attributeName="fill" dur="2s" repeatCount="indefinite" values="#ffffff;#ffffff"/>
      <animate attributeName="fill-opacity" dur="2s" repeatCount="indefinite" values="1.0;1.0"/>
      <animate attributeName="d" dur="2s" repeatCount="indefinite" values="M-14.55 2.3 Q-13.2 4.15 -3.75 4.55 2.55 3.9 15.55 9.25 19.5 10.9 21.3 11.1 L24.5 10.75 Q26.0 10.0 27.5 8.55 29.0 7.1 22.8 4.75 L14.5 1.6 Q6.55 -5.45 3.15 -6.15 -0.9 -7.05 -1.65 -4.8 -5.3 -5.25 -10.6 -2.4 -15.95 0.4 -14.55 2.3;M-20.05 3.85 Q-18.2 5.55 -3.75 4.55 1.95 6.45 10.75 8.7 19.55 10.9 21.3 11.1 L24.5 10.75 Q26.0 10.0 27.5 8.55 29.0 7.1 22.8 4.75 L14.5 1.6 Q6.55 -5.45 3.15 -6.15 -0.9 -7.05 -1.65 -4.8 -5.3 -5.25 -13.6 -1.55 -21.95 2.1 -20.05 3.85"/>
    </path>
    <path d="M-20.55 4.35 Q-25.45 3.5 -16.8 -1.25 -7.95 -6.05 -3.65 -6.15 L-2.05 -7.6 Q-0.8 -8.65 -0.4 -8.55 8.15 -6.6 13.85 -3.05 17.05 -1.05 19.45 1.7 L19.65 2.0 Q20.9 2.8 23.2 3.5 L24.1 3.75 28.0 4.9 Q28.8 5.15 29.6 5.4 30.4 5.7 30.85 6.05 31.75 6.7 31.0 7.6 L29.2 9.45 27.35 11.2 26.4 12.0 26.0 12.3 24.95 13.15 24.15 13.55 22.5 14.2 Q20.75 14.25 19.0 14.35 18.0 14.25 17.0 14.15 15.9 14.0 14.75 13.8 L13.45 13.55 Q12.25 13.3 11.0 13.05 L9.4 12.7 9.2 12.7 3.3 11.25 Q-2.7 9.5 -8.75 7.7 L-9.3 7.5 Q-15.6 5.15 -20.45 4.35 L-20.55 4.35 M-14.55 2.3 Q-15.95 0.4 -10.6 -2.4 -5.3 -5.25 -1.65 -4.8 -0.9 -7.05 3.15 -6.15 6.55 -5.45 14.5 1.6 L22.8 4.75 Q29.0 7.1 27.5 8.55 26.0 10.0 24.5 10.75 L21.3 11.1 Q19.5 10.9 15.55 9.25 2.55 3.9 -3.75 4.55 -13.2 4.15 -14.55 2.3 -15.95 0.4 -10.6 -2.4 -5.3 -5.25 -1.65 -4.8 -0.9 -7.05 3.15 -6.15 6.55 -5.45 14.5 1.6 L22.8 4.75 Q29.0 7.1 27.5 8.55 26.0 10.0 24.5 10.75 L21.3 11.1 Q19.5 10.9 15.55 9.25 2.55 3.9 -3.75 4.55 -13.2 4.15 -14.55 2.3" fill="none" stroke="#000000" stroke-linecap="round" stroke-linejoin="round" stroke-opacity="0.0" stroke-width="1.0">
      <animate attributeName="stroke" dur="2s" repeatCount="indefinite" values="#000000;#000001"/>
      <animate attributeName="stroke-width" dur="2s" repeatCount="indefinite" values="0.0;0.0"/>
      <animate attributeName="fill-opacity" dur="2s" repeatCount="indefinite" values="0.0;0.0"/>
      <animate attributeName="d" dur="2s" repeatCount="indefinite" values="M-20.55 4.35 Q-25.45 3.5 -16.8 -1.25 -7.95 -6.05 -3.65 -6.15 L-2.05 -7.6 Q-0.8 -8.65 -0.4 -8.55 8.15 -6.6 13.85 -3.05 17.05 -1.05 19.45 1.7 L19.65 2.0 Q20.9 2.8 23.2 3.5 L24.1 3.75 28.0 4.9 Q28.8 5.15 29.6 5.4 30.4 5.7 30.85 6.05 31.75 6.7 31.0 7.6 L29.2 9.45 27.35 11.2 26.4 12.0 26.0 12.3 24.95 13.15 24.15 13.55 22.5 14.2 Q20.75 14.25 19.0 14.35 18.0 14.25 17.0 14.15 15.9 14.0 14.75 13.8 L13.45 13.55 Q12.25 13.3 11.0 13.05 L9.4 12.7 9.2 12.7 3.3 11.25 Q-2.7 9.5 -8.75 7.7 L-9.3 7.5 Q-15.6 5.15 -20.45 4.35 L-20.55 4.35 M-14.55 2.3 Q-15.95 0.4 -10.6 -2.4 -5.3 -5.25 -1.65 -4.8 -0.9 -7.05 3.15 -6.15 6.55 -5.45 14.5 1.6 L22.8 4.75 Q29.0 7.1 27.5 8.55 26.0 10.0 24.5 10.75 L21.3 11.1 Q19.5 10.9 15.55 9.25 2.55 3.9 -3.75 4.55 -13.2 4.15 -14.55 2.3 -15.95 0.4 -10.6 -2.4 -5.3 -5.25 -1.65 -4.8 -0.9 -7.05 3.15 -6.15 6.55 -5.45 14.5 1.6 L22.8 4.75 Q29.0 7.1 27.5 8.55 26.0 10.0 24.5 10.75 L21.3 11.1 Q19.5 10.9 15.55 9.25 2.55 3.9 -3.75 4.55 -13.2 4.15 -14.55 2.3;M-24.5 6.5 Q-30.15 6.1 -20.25 0.55 -10.65 -4.7 -5.95 -5.85 L-3.65 -6.15 Q-2.85 -6.9 -2.0 -7.65 7.25 -7.1 13.65 -3.2 17.1 -1.05 19.65 2.0 L20.15 2.3 Q21.6 3.1 24.1 3.75 L25.2 4.05 29.6 5.4 Q30.7 5.75 31.1 6.25 31.6 6.85 31.0 7.6 30.3 8.35 29.6 9.1 L27.35 11.2 25.45 12.75 24.15 13.55 23.75 13.85 22.7 14.95 22.05 15.5 20.5 16.45 Q18.35 17.05 16.8 18.1 15.6 18.85 14.6 18.85 12.85 18.85 12.6 17.65 L12.7 16.3 Q12.7 14.95 11.45 14.0 L10.45 13.1 10.3 12.9 3.1 12.05 Q-3.7 11.25 -11.15 9.1 L-11.75 8.9 Q-18.85 6.9 -24.5 6.5 L-24.5 6.5 M-20.05 3.85 Q-21.95 2.1 -13.6 -1.55 -5.3 -5.25 -1.65 -4.8 -0.9 -7.05 3.15 -6.15 6.55 -5.45 14.5 1.6 L22.8 4.75 Q29.0 7.1 27.5 8.55 26.0 10.0 24.5 10.75 L21.3 11.1 Q19.55 10.9 10.75 8.7 1.95 6.45 -3.75 4.55 -18.2 5.55 -20.05 3.85 -21.95 2.1 -13.6 -1.55 -5.3 -5.25 -1.65 -4.8 -0.9 -7.05 3.15 -6.15 6.55 -5.45 14.5 1.6 L22.8 4.75 Q29.0 7.1 27.5 8.55 26.0 10.0 24.5 10.75 L21.3 11.1 Q19.55 10.9 10.75 8.7 1.95 6.45 -3.75 4.55 -18.2 5.55 -20.05 3.85"/>
    </path>
  </g>
</svg>
