<?xml version="1.0" encoding="UTF-8" standalone="no"?>
<svg xmlns:xlink="http://www.w3.org/1999/xlink" height="34.75px" width="65.5px" xmlns="http://www.w3.org/2000/svg">
  <g transform="matrix(1.0, 0.0, 0.0, 1.0, 34.15, 8.55)">
    <path d="M-23.75 5.95 Q-21.85 7.6 -5.55 7.1 L-5.25 7.1 Q-0.6 7.25 4.0 7.35 6.7 7.85 9.35 8.35 L10.75 8.7 10.95 8.8 12.3 9.1 13.15 9.3 13.95 10.15 15.4 11.6 15.5 11.75 Q15.8 12.8 16.05 13.85 16.25 14.55 17.2 14.7 L17.85 14.75 Q20.15 14.75 22.05 13.25 L22.15 13.15 22.95 12.45 23.6 11.5 23.75 11.1 24.5 10.75 Q25.1 10.35 25.7 10.0 26.6 9.25 27.5 8.55 28.65 7.45 25.45 5.9 24.75 5.6 24.1 5.3 L22.8 4.75 Q20.65 3.95 18.55 3.15 L14.5 1.6 11.9 -0.6 Q5.95 -5.55 3.15 -6.15 L1.55 -6.4 Q-1.05 -6.55 -2.4 -4.85 -6.3 -4.8 -15.5 -0.5 -25.7 4.2 -23.75 5.95 M-29.7 10.0 Q-22.35 9.3 -13.4 10.25 L-12.9 10.3 -0.35 11.65 3.1 12.05 6.0 12.5 7.1 12.75 Q10.2 14.2 10.55 16.7 L10.55 17.9 10.5 18.25 10.2 19.75 Q8.6 26.05 9.8 26.2 10.35 26.3 11.45 25.1 13.25 23.3 15.0 21.55 16.25 20.35 17.2 19.6 L18.05 18.9 20.05 17.25 20.3 17.05 20.95 16.5 21.85 15.7 Q22.3 15.3 22.7 14.95 L23.6 14.05 23.75 13.85 24.15 13.55 Q24.7 13.45 26.35 12.05 L27.35 11.2 Q28.3 10.3 29.25 9.45 30.25 8.35 31.2 7.3 31.85 6.25 29.9 5.5 L29.2 5.3 Q28.05 4.9 26.9 4.55 L24.1 3.75 22.0 3.1 Q20.55 2.6 19.65 2.0 L18.4 0.55 Q16.3 -1.55 12.65 -3.75 6.7 -7.2 -0.7 -8.5 -2.25 -7.3 -3.75 -6.15 -8.4 -5.95 -22.7 2.35 -37.25 10.7 -29.7 10.0" fill="#ffffff" fill-opacity="0.6" fill-rule="evenodd" stroke="none">
      <animate attributeName="fill" dur="2s" repeatCount="indefinite" values="#ffffff;#ffffff"/>
      <animate attributeName="fill-opacity" dur="2s" repeatCount="indefinite" values="0.6;0.6"/>
      <animate attributeName="d" dur="2s" repeatCount="indefinite" values="M-23.75 5.95 Q-21.85 7.6 -5.55 7.1 L-5.25 7.1 Q-0.6 7.25 4.0 7.35 6.7 7.85 9.35 8.35 L10.75 8.7 10.95 8.8 12.3 9.1 13.15 9.3 13.95 10.15 15.4 11.6 15.5 11.75 Q15.8 12.8 16.05 13.85 16.25 14.55 17.2 14.7 L17.85 14.75 Q20.15 14.75 22.05 13.25 L22.15 13.15 22.95 12.45 23.6 11.5 23.75 11.1 24.5 10.75 Q25.1 10.35 25.7 10.0 26.6 9.25 27.5 8.55 28.65 7.45 25.45 5.9 24.75 5.6 24.1 5.3 L22.8 4.75 Q20.65 3.95 18.55 3.15 L14.5 1.6 11.9 -0.6 Q5.95 -5.55 3.15 -6.15 L1.55 -6.4 Q-1.05 -6.55 -2.4 -4.85 -6.3 -4.8 -15.5 -0.5 -25.7 4.2 -23.75 5.95 M-29.7 10.0 Q-22.35 9.3 -13.4 10.25 L-12.9 10.3 -0.35 11.65 3.1 12.05 6.0 12.5 7.1 12.75 Q10.2 14.2 10.55 16.7 L10.55 17.9 10.5 18.25 10.2 19.75 Q8.6 26.05 9.8 26.2 10.35 26.3 11.45 25.1 13.25 23.3 15.0 21.55 16.25 20.35 17.2 19.6 L18.05 18.9 20.05 17.25 20.3 17.05 20.95 16.5 21.85 15.7 Q22.3 15.3 22.7 14.95 L23.6 14.05 23.75 13.85 24.15 13.55 Q24.7 13.45 26.35 12.05 L27.35 11.2 Q28.3 10.3 29.25 9.45 30.25 8.35 31.2 7.3 31.85 6.25 29.9 5.5 L29.2 5.3 Q28.05 4.9 26.9 4.55 L24.1 3.75 22.0 3.1 Q20.55 2.6 19.65 2.0 L18.4 0.55 Q16.3 -1.55 12.65 -3.75 6.7 -7.2 -0.7 -8.5 -2.25 -7.3 -3.75 -6.15 -8.4 -5.95 -22.7 2.35 -37.25 10.7 -29.7 10.0;M-26.25 7.4 Q-24.25 9.0 -5.25 7.1 L-4.85 7.2 Q0.55 8.7 5.9 9.3 11.45 9.8 12.25 10.65 L13.35 12.15 13.35 12.25 14.35 13.6 14.65 14.4 14.7 15.55 14.5 17.5 14.45 17.85 Q14.3 19.85 15.9 18.7 16.5 18.2 17.1 17.7 L17.6 17.25 Q19.9 15.0 21.55 13.7 L22.05 13.25 23.05 12.55 23.85 13.6 23.9 14.0 24.0 14.9 Q24.3 15.6 25.45 15.6 26.7 15.6 27.55 14.25 28.45 12.75 28.85 9.65 28.85 8.75 28.25 8.1 L27.1 6.9 Q25.95 5.95 22.8 4.75 L18.2 3.0 14.5 1.6 Q8.35 -3.85 4.95 -5.5 L3.15 -6.15 Q-0.05 -6.85 -1.65 -4.8 -5.3 -5.25 -16.8 0.25 -28.3 5.75 -26.25 7.4 M-31.3 11.2 Q-23.05 10.0 -13.85 11.35 L-13.25 11.45 0.2 13.0 3.95 13.1 7.1 12.75 8.25 13.4 Q11.0 15.25 10.5 18.25 L10.2 19.75 10.1 20.15 9.75 21.7 Q8.25 28.45 11.45 25.1 12.3 24.2 13.15 23.35 15.6 20.9 17.2 19.6 18.4 18.6 19.6 17.6 L20.3 17.05 22.4 15.2 22.6 15.6 22.8 16.35 22.65 17.6 Q22.7 18.15 23.3 18.5 L24.7 18.95 24.9 18.95 25.55 19.0 Q26.9 18.9 27.95 17.5 L28.75 16.15 Q29.4 14.9 29.65 13.5 30.0 11.7 30.55 10.35 31.35 8.7 31.35 7.5 L31.35 6.75 Q31.25 5.95 29.6 5.4 L26.6 4.45 24.1 3.75 Q22.8 3.35 21.55 2.95 L19.65 2.0 Q17.65 -0.4 13.85 -3.05 7.6 -6.95 -0.4 -8.55 -1.0 -8.7 -3.65 -6.15 -8.2 -6.05 -23.85 3.2 -39.55 12.4 -31.3 11.2"/>
    </path>
    <path d="M-23.75 5.95 Q-21.85 7.6 -5.55 7.1 L-5.25 7.1 Q-0.6 7.25 4.0 7.35 6.7 7.85 9.35 8.35 L10.75 8.7 10.95 8.8 12.3 9.1 13.15 9.3 13.95 10.15 15.4 11.6 15.5 11.75 Q15.8 12.8 16.05 13.85 16.25 14.55 17.2 14.7 L17.85 14.75 Q20.15 14.75 22.05 13.25 L22.15 13.15 22.95 12.45 23.6 11.5 23.75 11.1 24.5 10.75 Q25.1 10.35 25.7 10.0 26.6 9.25 27.5 8.55 28.65 7.45 25.45 5.9 24.75 5.6 24.1 5.3 L22.8 4.75 Q20.65 3.95 18.55 3.15 L14.5 1.6 11.9 -0.6 Q5.95 -5.55 3.15 -6.15 L1.55 -6.4 Q-1.05 -6.55 -2.4 -4.85 -6.3 -4.8 -15.5 -0.5 -25.7 4.2 -23.75 5.95" fill="#ffffff" fill-rule="evenodd" stroke="none">
      <animate attributeName="fill" dur="2s" repeatCount="indefinite" values="#ffffff;#ffffff"/>
      <animate attributeName="fill-opacity" dur="2s" repeatCount="indefinite" values="1.0;1.0"/>
      <animate attributeName="d" dur="2s" repeatCount="indefinite" values="M-23.75 5.95 Q-21.85 7.6 -5.55 7.1 L-5.25 7.1 Q-0.6 7.25 4.0 7.35 6.7 7.85 9.35 8.35 L10.75 8.7 10.95 8.8 12.3 9.1 13.15 9.3 13.95 10.15 15.4 11.6 15.5 11.75 Q15.8 12.8 16.05 13.85 16.25 14.55 17.2 14.7 L17.85 14.75 Q20.15 14.75 22.05 13.25 L22.15 13.15 22.95 12.45 23.6 11.5 23.75 11.1 24.5 10.75 Q25.1 10.35 25.7 10.0 26.6 9.25 27.5 8.55 28.65 7.45 25.45 5.9 24.75 5.6 24.1 5.3 L22.8 4.75 Q20.65 3.95 18.55 3.15 L14.5 1.6 11.9 -0.6 Q5.95 -5.55 3.15 -6.15 L1.55 -6.4 Q-1.05 -6.55 -2.4 -4.85 -6.3 -4.8 -15.5 -0.5 -25.7 4.2 -23.75 5.95;M-26.25 7.4 Q-24.25 9.0 -5.25 7.1 L-4.85 7.2 Q0.55 8.7 5.9 9.3 11.45 9.8 12.25 10.65 L13.35 12.15 13.35 12.25 14.35 13.6 14.65 14.4 14.7 15.55 14.5 17.5 14.45 17.85 Q14.3 19.85 15.9 18.7 16.5 18.2 17.1 17.7 L17.6 17.25 Q19.9 15.0 21.55 13.7 L22.05 13.25 23.05 12.55 23.85 13.6 23.9 14.0 24.0 14.9 Q24.3 15.6 25.45 15.6 26.7 15.6 27.55 14.25 28.45 12.75 28.85 9.65 28.85 8.75 28.25 8.1 L27.1 6.9 Q25.95 5.95 22.8 4.75 L18.2 3.0 14.5 1.6 Q8.35 -3.85 4.95 -5.5 L3.15 -6.15 Q-0.05 -6.85 -1.65 -4.8 -5.3 -5.25 -16.8 0.25 -28.3 5.75 -26.25 7.4"/>
    </path>
    <path d="M-29.7 10.0 Q-37.25 10.7 -22.7 2.35 -8.4 -5.95 -3.75 -6.15 -2.25 -7.3 -0.7 -8.5 6.7 -7.2 12.65 -3.75 16.3 -1.55 18.4 0.55 L19.65 2.0 Q20.55 2.6 22.0 3.1 L24.1 3.75 26.9 4.55 Q28.05 4.9 29.2 5.3 L29.9 5.5 Q31.85 6.25 31.2 7.3 30.25 8.35 29.25 9.45 28.3 10.3 27.35 11.2 L26.35 12.05 Q24.7 13.45 24.15 13.55 L23.75 13.85 23.6 14.05 22.7 14.95 Q22.3 15.3 21.85 15.7 L20.95 16.5 20.3 17.05 20.05 17.25 18.05 18.9 17.2 19.6 Q16.25 20.35 15.0 21.55 13.25 23.3 11.45 25.1 10.35 26.3 9.8 26.2 8.6 26.05 10.2 19.75 L10.5 18.25 10.55 17.9 10.55 16.7 Q10.2 14.2 7.1 12.75 L6.0 12.5 3.1 12.05 -0.35 11.65 -12.9 10.3 -13.4 10.25 Q-22.35 9.3 -29.7 10.0 M-23.75 5.95 Q-25.7 4.2 -15.5 -0.5 -6.3 -4.8 -2.4 -4.85 -1.05 -6.55 1.55 -6.4 L3.15 -6.15 Q5.95 -5.55 11.9 -0.6 L14.5 1.6 18.55 3.15 Q20.65 3.95 22.8 4.75 L24.1 5.3 Q24.75 5.6 25.45 5.9 28.65 7.45 27.5 8.55 26.6 9.25 25.7 10.0 25.1 10.35 24.5 10.75 L23.75 11.1 23.6 11.5 22.95 12.45 22.15 13.15 22.05 13.25 Q20.15 14.75 17.85 14.75 L17.2 14.7 Q16.25 14.55 16.05 13.85 15.8 12.8 15.5 11.75 L15.4 11.6 13.95 10.15 13.15 9.3 12.3 9.1 10.95 8.8 10.75 8.7 9.35 8.35 Q6.7 7.85 4.0 7.35 -0.6 7.25 -5.25 7.1 L-5.55 7.1 Q-21.85 7.6 -23.75 5.95 -25.7 4.2 -15.5 -0.5 -6.3 -4.8 -2.4 -4.85 -1.05 -6.55 1.55 -6.4 L3.15 -6.15 Q5.95 -5.55 11.9 -0.6 L14.5 1.6 18.55 3.15 Q20.65 3.95 22.8 4.75 L24.1 5.3 Q24.75 5.6 25.45 5.9 28.65 7.45 27.5 8.55 26.6 9.25 25.7 10.0 25.1 10.35 24.5 10.75 L23.75 11.1 23.6 11.5 22.95 12.45 22.15 13.15 22.05 13.25 Q20.15 14.75 17.85 14.75 L17.2 14.7 Q16.25 14.55 16.05 13.85 15.8 12.8 15.5 11.75 L15.4 11.6 13.95 10.15 13.15 9.3 12.3 9.1 10.95 8.8 10.75 8.7 9.35 8.35 Q6.7 7.85 4.0 7.35 -0.6 7.25 -5.25 7.1 L-5.55 7.1 Q-21.85 7.6 -23.75 5.95" fill="none" stroke="#000000" stroke-linecap="round" stroke-linejoin="round" stroke-opacity="0.0" stroke-width="1.0">
      <animate attributeName="stroke" dur="2s" repeatCount="indefinite" values="#000000;#000001"/>
      <animate attributeName="stroke-width" dur="2s" repeatCount="indefinite" values="0.0;0.0"/>
      <animate attributeName="fill-opacity" dur="2s" repeatCount="indefinite" values="0.0;0.0"/>
      <animate attributeName="d" dur="2s" repeatCount="indefinite" values="M-29.7 10.0 Q-37.25 10.7 -22.7 2.35 -8.4 -5.95 -3.75 -6.15 -2.25 -7.3 -0.7 -8.5 6.7 -7.2 12.65 -3.75 16.3 -1.55 18.4 0.55 L19.65 2.0 Q20.55 2.6 22.0 3.1 L24.1 3.75 26.9 4.55 Q28.05 4.9 29.2 5.3 L29.9 5.5 Q31.85 6.25 31.2 7.3 30.25 8.35 29.25 9.45 28.3 10.3 27.35 11.2 L26.35 12.05 Q24.7 13.45 24.15 13.55 L23.75 13.85 23.6 14.05 22.7 14.95 Q22.3 15.3 21.85 15.7 L20.95 16.5 20.3 17.05 20.05 17.25 18.05 18.9 17.2 19.6 Q16.25 20.35 15.0 21.55 13.25 23.3 11.45 25.1 10.35 26.3 9.8 26.2 8.6 26.05 10.2 19.75 L10.5 18.25 10.55 17.9 10.55 16.7 Q10.2 14.2 7.1 12.75 L6.0 12.5 3.1 12.05 -0.35 11.65 -12.9 10.3 -13.4 10.25 Q-22.35 9.3 -29.7 10.0 M-23.75 5.95 Q-25.7 4.2 -15.5 -0.5 -6.3 -4.8 -2.4 -4.85 -1.05 -6.55 1.55 -6.4 L3.15 -6.15 Q5.95 -5.55 11.9 -0.6 L14.5 1.6 18.55 3.15 Q20.65 3.95 22.8 4.75 L24.1 5.3 Q24.75 5.6 25.45 5.9 28.65 7.45 27.5 8.55 26.6 9.25 25.7 10.0 25.1 10.35 24.5 10.75 L23.75 11.1 23.6 11.5 22.95 12.45 22.15 13.15 22.05 13.25 Q20.15 14.75 17.85 14.75 L17.2 14.7 Q16.25 14.55 16.05 13.85 15.8 12.8 15.5 11.75 L15.4 11.6 13.95 10.15 13.15 9.3 12.3 9.1 10.95 8.8 10.75 8.7 9.35 8.35 Q6.7 7.85 4.0 7.35 -0.6 7.25 -5.25 7.1 L-5.55 7.1 Q-21.85 7.6 -23.75 5.95 -25.7 4.2 -15.5 -0.5 -6.3 -4.8 -2.4 -4.85 -1.05 -6.55 1.55 -6.4 L3.15 -6.15 Q5.95 -5.55 11.9 -0.6 L14.5 1.6 18.55 3.15 Q20.65 3.95 22.8 4.75 L24.1 5.3 Q24.75 5.6 25.45 5.9 28.65 7.45 27.5 8.55 26.6 9.25 25.7 10.0 25.1 10.35 24.5 10.75 L23.75 11.1 23.6 11.5 22.95 12.45 22.15 13.15 22.05 13.25 Q20.15 14.75 17.85 14.75 L17.2 14.7 Q16.25 14.55 16.05 13.85 15.8 12.8 15.5 11.75 L15.4 11.6 13.95 10.15 13.15 9.3 12.3 9.1 10.95 8.8 10.75 8.7 9.35 8.35 Q6.7 7.85 4.0 7.35 -0.6 7.25 -5.25 7.1 L-5.55 7.1 Q-21.85 7.6 -23.75 5.95;M-31.3 11.2 Q-39.55 12.4 -23.85 3.2 -8.2 -6.05 -3.65 -6.15 -1.0 -8.7 -0.4 -8.55 7.6 -6.95 13.85 -3.05 17.65 -0.4 19.65 2.0 L21.55 2.95 Q22.8 3.35 24.1 3.75 L26.6 4.45 29.6 5.4 Q31.25 5.95 31.35 6.75 L31.35 7.5 Q31.35 8.7 30.55 10.35 30.0 11.7 29.65 13.5 29.4 14.9 28.75 16.15 L27.95 17.5 Q26.9 18.9 25.55 19.0 L24.9 18.95 24.7 18.95 23.3 18.5 Q22.7 18.15 22.65 17.6 L22.8 16.35 22.6 15.6 22.4 15.2 20.3 17.05 19.6 17.6 Q18.4 18.6 17.2 19.6 15.6 20.9 13.15 23.35 12.3 24.2 11.45 25.1 8.25 28.45 9.75 21.7 L10.1 20.15 10.2 19.75 10.5 18.25 Q11.0 15.25 8.25 13.4 L7.1 12.75 3.95 13.1 0.2 13.0 -13.25 11.45 -13.85 11.35 Q-23.05 10.0 -31.3 11.2 M-26.25 7.4 Q-28.3 5.75 -16.8 0.25 -5.3 -5.25 -1.65 -4.8 -0.05 -6.85 3.15 -6.15 L4.95 -5.5 Q8.35 -3.85 14.5 1.6 L18.2 3.0 22.8 4.75 Q25.95 5.95 27.1 6.9 L28.25 8.1 Q28.85 8.75 28.85 9.65 28.45 12.75 27.55 14.25 26.7 15.6 25.45 15.6 24.3 15.6 24.0 14.9 L23.9 14.0 23.85 13.6 23.05 12.55 22.05 13.25 21.55 13.7 Q19.9 15.0 17.6 17.25 L17.1 17.7 Q16.5 18.2 15.9 18.7 14.3 19.85 14.45 17.85 L14.5 17.5 14.7 15.55 14.65 14.4 14.35 13.6 13.35 12.25 13.35 12.15 12.25 10.65 Q11.45 9.8 5.9 9.3 0.55 8.7 -4.85 7.2 L-5.25 7.1 Q-24.25 9.0 -26.25 7.4 -28.3 5.75 -16.8 0.25 -5.3 -5.25 -1.65 -4.8 -0.05 -6.85 3.15 -6.15 L4.95 -5.5 Q8.35 -3.85 14.5 1.6 L18.2 3.0 22.8 4.75 Q25.95 5.95 27.1 6.9 L28.25 8.1 Q28.85 8.75 28.85 9.65 28.45 12.75 27.55 14.25 26.7 15.6 25.45 15.6 24.3 15.6 24.0 14.9 L23.9 14.0 23.85 13.6 23.05 12.55 22.05 13.25 21.55 13.7 Q19.9 15.0 17.6 17.25 L17.1 17.7 Q16.5 18.2 15.9 18.7 14.3 19.85 14.45 17.85 L14.5 17.5 14.7 15.55 14.65 14.4 14.35 13.6 13.35 12.25 13.35 12.15 12.25 10.65 Q11.45 9.8 5.9 9.3 0.55 8.7 -4.85 7.2 L-5.25 7.1 Q-24.25 9.0 -26.25 7.4"/>
    </path>
  </g>
</svg>
