<?xml version="1.0" encoding="UTF-8" standalone="no"?>
<svg xmlns:xlink="http://www.w3.org/1999/xlink" height="35.35px" width="68.35px" xmlns="http://www.w3.org/2000/svg">
  <g transform="matrix(1.0, 0.0, 0.0, 1.0, 34.7, 8.55)">
    <path d="M-26.25 7.4 Q-24.25 9.0 -5.25 8.75 L5.9 9.3 Q11.45 9.8 12.25 10.65 L13.35 12.25 14.35 13.6 Q14.95 14.3 14.5 17.5 14.15 19.95 15.9 18.75 L17.25 18.4 18.4 17.9 19.8 17.7 Q21.3 17.4 22.75 17.15 25.55 16.65 28.3 16.15 32.4 16.7 30.8 12.8 29.15 8.85 27.7 7.6 27.15 6.4 22.8 4.75 L14.5 1.6 Q6.55 -5.45 3.15 -6.15 -0.9 -7.05 -1.65 -4.8 -5.3 -5.25 -16.8 0.25 -28.3 5.75 -26.25 7.4 M-31.7 12.2 L-31.7 12.2 Q-24.45 11.9 -16.05 13.2 L-14.75 13.4 -0.95 14.2 -0.25 14.1 0.7 14.0 2.1 13.9 Q3.75 13.9 4.6 14.4 5.3 14.85 5.8 15.85 L5.9 15.95 Q7.45 16.85 8.95 17.7 9.4 18.05 9.8 18.35 L10.05 18.7 Q10.35 19.15 10.2 19.75 8.1 27.95 10.85 25.9 L11.55 25.3 Q14.45 22.45 16.8 21.75 L17.95 21.6 18.55 21.55 18.75 21.55 Q20.5 21.35 21.1 20.6 L21.25 20.4 Q21.85 19.3 22.55 19.2 22.75 18.65 24.5 18.95 L24.7 18.95 26.65 18.9 Q28.05 18.65 29.9 17.8 L30.7 17.4 Q33.15 15.95 32.95 14.0 L32.85 13.2 Q32.6 11.45 32.05 10.2 L31.65 9.15 Q31.35 8.25 31.35 7.5 L31.3 6.65 30.85 6.0 Q30.4 5.65 29.6 5.4 L28.6 5.1 24.1 3.75 23.3 3.55 Q20.95 2.8 19.15 1.4 16.8 -1.25 13.35 -3.35 7.1 -7.1 -0.7 -8.5 -1.5 -8.2 -3.85 -6.15 -8.5 -5.85 -23.85 3.2 -39.55 12.4 -31.7 12.2" fill="#ffffff" fill-opacity="0.6" fill-rule="evenodd" stroke="none">
      <animate attributeName="fill" dur="2s" repeatCount="indefinite" values="#ffffff;#ffffff"/>
      <animate attributeName="fill-opacity" dur="2s" repeatCount="indefinite" values="0.6;0.6"/>
      <animate attributeName="d" dur="2s" repeatCount="indefinite" values="M-26.25 7.4 Q-24.25 9.0 -5.25 8.75 L5.9 9.3 Q11.45 9.8 12.25 10.65 L13.35 12.25 14.35 13.6 Q14.95 14.3 14.5 17.5 14.15 19.95 15.9 18.75 L17.25 18.4 18.4 17.9 19.8 17.7 Q21.3 17.4 22.75 17.15 25.55 16.65 28.3 16.15 32.4 16.7 30.8 12.8 29.15 8.85 27.7 7.6 27.15 6.4 22.8 4.75 L14.5 1.6 Q6.55 -5.45 3.15 -6.15 -0.9 -7.05 -1.65 -4.8 -5.3 -5.25 -16.8 0.25 -28.3 5.75 -26.25 7.4 M-31.7 12.2 L-31.7 12.2 Q-24.45 11.9 -16.05 13.2 L-14.75 13.4 -0.95 14.2 -0.25 14.1 0.7 14.0 2.1 13.9 Q3.75 13.9 4.6 14.4 5.3 14.85 5.8 15.85 L5.9 15.95 Q7.45 16.85 8.95 17.7 9.4 18.05 9.8 18.35 L10.05 18.7 Q10.35 19.15 10.2 19.75 8.1 27.95 10.85 25.9 L11.55 25.3 Q14.45 22.45 16.8 21.75 L17.95 21.6 18.55 21.55 18.75 21.55 Q20.5 21.35 21.1 20.6 L21.25 20.4 Q21.85 19.3 22.55 19.2 22.75 18.65 24.5 18.95 L24.7 18.95 26.65 18.9 Q28.05 18.65 29.9 17.8 L30.7 17.4 Q33.15 15.95 32.95 14.0 L32.85 13.2 Q32.6 11.45 32.05 10.2 L31.65 9.15 Q31.35 8.25 31.35 7.5 L31.3 6.65 30.85 6.0 Q30.4 5.65 29.6 5.4 L28.6 5.1 24.1 3.75 23.3 3.55 Q20.95 2.8 19.15 1.4 16.8 -1.25 13.35 -3.35 7.1 -7.1 -0.7 -8.5 -1.5 -8.2 -3.85 -6.15 -8.5 -5.85 -23.85 3.2 -39.55 12.4 -31.7 12.2;M-28.4 9.05 Q-28.5 12.35 -14.55 10.95 L5.4 9.65 Q11.4 9.8 12.25 10.65 L13.35 12.25 14.35 13.6 Q14.95 14.3 14.5 17.5 14.15 19.95 15.9 18.75 L17.25 18.4 18.7 18.15 20.05 18.55 Q20.9 18.75 22.85 17.75 24.8 16.7 28.3 16.15 32.4 16.7 30.8 12.8 29.15 8.85 27.7 7.6 27.15 6.4 22.8 4.75 L14.5 1.6 Q6.55 -5.45 3.15 -6.15 -0.9 -7.05 -1.65 -4.8 -5.3 -5.25 -16.8 0.25 -28.3 5.75 -28.4 9.05 M-32.55 13.25 L-32.25 13.25 Q-24.25 14.25 -16.25 15.25 L-14.85 15.45 -0.9 14.9 -0.1 14.7 0.75 14.5 2.35 15.0 Q3.45 15.4 4.5 15.75 5.45 16.05 6.35 16.35 L6.6 16.35 Q9.3 17.9 9.8 18.35 10.3 18.8 10.25 19.5 L10.2 19.75 Q10.05 20.3 9.95 20.8 8.1 28.75 11.75 26.15 L12.55 25.55 Q15.9 23.3 18.25 22.85 L19.25 22.6 19.8 22.4 19.95 22.4 Q20.55 22.4 22.25 21.4 L22.55 21.2 Q23.4 20.65 24.25 20.1 25.2 19.6 26.1 19.1 L26.35 19.1 28.2 19.8 Q29.75 20.4 31.45 19.35 L32.15 18.85 Q33.9 17.35 33.6 15.2 L33.45 14.4 Q32.95 12.85 32.5 11.35 L32.05 10.2 Q31.75 9.4 31.5 8.6 L31.35 7.5 31.35 6.75 Q31.3 6.2 30.5 5.75 L29.6 5.4 25.0 4.05 24.1 3.75 Q21.8 3.15 19.65 2.0 17.35 -0.75 13.85 -3.05 7.55 -6.95 -0.4 -8.55 -1.0 -8.7 -3.65 -6.15 -8.2 -6.05 -24.05 3.3 -39.5 12.4 -32.55 13.25"/>
    </path>
    <path d="M-26.25 7.4 Q-24.25 9.0 -5.25 8.75 L5.9 9.3 Q11.45 9.8 12.25 10.65 L13.35 12.25 14.35 13.6 Q14.95 14.3 14.5 17.5 14.15 19.95 15.9 18.75 L17.25 18.4 18.4 17.9 19.8 17.7 Q21.3 17.4 22.75 17.15 25.55 16.65 28.3 16.15 32.4 16.7 30.8 12.8 29.15 8.85 27.7 7.6 27.15 6.4 22.8 4.75 L14.5 1.6 Q6.55 -5.45 3.15 -6.15 -0.9 -7.05 -1.65 -4.8 -5.3 -5.25 -16.8 0.25 -28.3 5.75 -26.25 7.4" fill="#ffffff" fill-rule="evenodd" stroke="none">
      <animate attributeName="fill" dur="2s" repeatCount="indefinite" values="#ffffff;#ffffff"/>
      <animate attributeName="fill-opacity" dur="2s" repeatCount="indefinite" values="1.0;1.0"/>
      <animate attributeName="d" dur="2s" repeatCount="indefinite" values="M-26.25 7.4 Q-24.25 9.0 -5.25 8.75 L5.9 9.3 Q11.45 9.8 12.25 10.65 L13.35 12.25 14.35 13.6 Q14.95 14.3 14.5 17.5 14.15 19.95 15.9 18.75 L17.25 18.4 18.4 17.9 19.8 17.7 Q21.3 17.4 22.75 17.15 25.55 16.65 28.3 16.15 32.4 16.7 30.8 12.8 29.15 8.85 27.7 7.6 27.15 6.4 22.8 4.75 L14.5 1.6 Q6.55 -5.45 3.15 -6.15 -0.9 -7.05 -1.65 -4.8 -5.3 -5.25 -16.8 0.25 -28.3 5.75 -26.25 7.4;M-28.4 9.05 Q-28.5 12.35 -14.55 10.95 L5.4 9.65 Q11.4 9.8 12.25 10.65 L13.35 12.25 14.35 13.6 Q14.95 14.3 14.5 17.5 14.15 19.95 15.9 18.75 L17.25 18.4 18.7 18.15 20.05 18.55 Q20.9 18.75 22.85 17.75 24.8 16.7 28.3 16.15 32.4 16.7 30.8 12.8 29.15 8.85 27.7 7.6 27.15 6.4 22.8 4.75 L14.5 1.6 Q6.55 -5.45 3.15 -6.15 -0.9 -7.05 -1.65 -4.8 -5.3 -5.25 -16.8 0.25 -28.3 5.75 -28.4 9.05"/>
    </path>
    <path d="M-31.7 12.2 Q-39.55 12.4 -23.85 3.2 -8.5 -5.85 -3.85 -6.15 -1.5 -8.2 -0.7 -8.5 7.1 -7.1 13.35 -3.35 16.8 -1.25 19.15 1.4 20.95 2.8 23.3 3.55 L24.1 3.75 28.6 5.1 29.6 5.4 Q30.4 5.65 30.85 6.0 L31.3 6.65 31.35 7.5 Q31.35 8.25 31.65 9.15 L32.05 10.2 Q32.6 11.45 32.85 13.2 L32.95 14.0 Q33.15 15.95 30.7 17.4 L29.9 17.8 Q28.05 18.65 26.65 18.9 L24.7 18.95 24.5 18.95 Q22.75 18.65 22.55 19.2 21.85 19.3 21.25 20.4 L21.1 20.6 Q20.5 21.35 18.75 21.55 L18.55 21.55 17.95 21.6 16.8 21.75 Q14.45 22.45 11.55 25.3 L10.85 25.9 Q8.1 27.95 10.2 19.75 10.35 19.15 10.05 18.7 L9.8 18.35 Q9.4 18.05 8.95 17.7 7.45 16.85 5.9 15.95 L5.8 15.85 Q5.3 14.85 4.6 14.4 3.75 13.9 2.1 13.9 L0.7 14.0 -0.25 14.1 -0.95 14.2 -14.75 13.4 -16.05 13.2 Q-24.45 11.9 -31.7 12.2 L-31.7 12.2 M-26.25 7.4 Q-28.3 5.75 -16.8 0.25 -5.3 -5.25 -1.65 -4.8 -0.9 -7.05 3.15 -6.15 6.55 -5.45 14.5 1.6 L22.8 4.75 Q27.15 6.4 27.7 7.6 29.15 8.85 30.8 12.8 32.4 16.7 28.3 16.15 25.55 16.65 22.75 17.15 21.3 17.4 19.8 17.7 L18.4 17.9 17.25 18.4 15.9 18.75 Q14.15 19.95 14.5 17.5 14.95 14.3 14.35 13.6 L13.35 12.25 12.25 10.65 Q11.45 9.8 5.9 9.3 L-5.25 8.75 Q-24.25 9.0 -26.25 7.4 -28.3 5.75 -16.8 0.25 -5.3 -5.25 -1.65 -4.8 -0.9 -7.05 3.15 -6.15 6.55 -5.45 14.5 1.6 L22.8 4.75 Q27.15 6.4 27.7 7.6 29.15 8.85 30.8 12.8 32.4 16.7 28.3 16.15 25.55 16.65 22.75 17.15 21.3 17.4 19.8 17.7 L18.4 17.9 17.25 18.4 15.9 18.75 Q14.15 19.95 14.5 17.5 14.95 14.3 14.35 13.6 L13.35 12.25 12.25 10.65 Q11.45 9.8 5.9 9.3 L-5.25 8.75 Q-24.25 9.0 -26.25 7.4" fill="none" stroke="#000000" stroke-linecap="round" stroke-linejoin="round" stroke-opacity="0.0" stroke-width="1.0">
      <animate attributeName="stroke" dur="2s" repeatCount="indefinite" values="#000000;#000001"/>
      <animate attributeName="stroke-width" dur="2s" repeatCount="indefinite" values="0.0;0.0"/>
      <animate attributeName="fill-opacity" dur="2s" repeatCount="indefinite" values="0.0;0.0"/>
      <animate attributeName="d" dur="2s" repeatCount="indefinite" values="M-31.7 12.2 Q-39.55 12.4 -23.85 3.2 -8.5 -5.85 -3.85 -6.15 -1.5 -8.2 -0.7 -8.5 7.1 -7.1 13.35 -3.35 16.8 -1.25 19.15 1.4 20.95 2.8 23.3 3.55 L24.1 3.75 28.6 5.1 29.6 5.4 Q30.4 5.65 30.85 6.0 L31.3 6.65 31.35 7.5 Q31.35 8.25 31.65 9.15 L32.05 10.2 Q32.6 11.45 32.85 13.2 L32.95 14.0 Q33.15 15.95 30.7 17.4 L29.9 17.8 Q28.05 18.65 26.65 18.9 L24.7 18.95 24.5 18.95 Q22.75 18.65 22.55 19.2 21.85 19.3 21.25 20.4 L21.1 20.6 Q20.5 21.35 18.75 21.55 L18.55 21.55 17.95 21.6 16.8 21.75 Q14.45 22.45 11.55 25.3 L10.85 25.9 Q8.1 27.95 10.2 19.75 10.35 19.15 10.05 18.7 L9.8 18.35 Q9.4 18.05 8.95 17.7 7.45 16.85 5.9 15.95 L5.8 15.85 Q5.3 14.85 4.6 14.4 3.75 13.9 2.1 13.9 L0.7 14.0 -0.25 14.1 -0.95 14.2 -14.75 13.4 -16.05 13.2 Q-24.45 11.9 -31.7 12.2 L-31.7 12.2 M-26.25 7.4 Q-28.3 5.75 -16.8 0.25 -5.3 -5.25 -1.65 -4.8 -0.9 -7.05 3.15 -6.15 6.55 -5.45 14.5 1.6 L22.8 4.75 Q27.15 6.4 27.7 7.6 29.15 8.85 30.8 12.8 32.4 16.7 28.3 16.15 25.55 16.65 22.75 17.15 21.3 17.4 19.8 17.7 L18.4 17.9 17.25 18.4 15.9 18.75 Q14.15 19.95 14.5 17.5 14.95 14.3 14.35 13.6 L13.35 12.25 12.25 10.65 Q11.45 9.8 5.9 9.3 L-5.25 8.75 Q-24.25 9.0 -26.25 7.4 -28.3 5.75 -16.8 0.25 -5.3 -5.25 -1.65 -4.8 -0.9 -7.05 3.15 -6.15 6.55 -5.45 14.5 1.6 L22.8 4.75 Q27.15 6.4 27.7 7.6 29.15 8.85 30.8 12.8 32.4 16.7 28.3 16.15 25.55 16.65 22.75 17.15 21.3 17.4 19.8 17.7 L18.4 17.9 17.25 18.4 15.9 18.75 Q14.15 19.95 14.5 17.5 14.95 14.3 14.35 13.6 L13.35 12.25 12.25 10.65 Q11.45 9.8 5.9 9.3 L-5.25 8.75 Q-24.25 9.0 -26.25 7.4;M-32.55 13.25 Q-39.5 12.4 -24.05 3.3 -8.2 -6.05 -3.65 -6.15 -1.0 -8.7 -0.4 -8.55 7.55 -6.95 13.85 -3.05 17.35 -0.75 19.65 2.0 21.8 3.15 24.1 3.75 L25.0 4.05 29.6 5.4 30.5 5.75 Q31.3 6.2 31.35 6.75 L31.35 7.5 31.5 8.6 Q31.75 9.4 32.05 10.2 L32.5 11.35 Q32.95 12.85 33.45 14.4 L33.6 15.2 Q33.9 17.35 32.15 18.85 L31.45 19.35 Q29.75 20.4 28.2 19.8 L26.35 19.1 26.1 19.1 Q25.2 19.6 24.25 20.1 23.4 20.65 22.55 21.2 L22.25 21.4 Q20.55 22.4 19.95 22.4 L19.8 22.4 19.25 22.6 18.25 22.85 Q15.9 23.3 12.55 25.55 L11.75 26.15 Q8.1 28.75 9.95 20.8 10.05 20.3 10.2 19.75 L10.25 19.5 Q10.3 18.8 9.8 18.35 9.3 17.9 6.6 16.35 L6.35 16.35 Q5.45 16.05 4.5 15.75 3.45 15.4 2.35 15.0 L0.75 14.5 -0.1 14.7 -0.9 14.9 -14.85 15.45 -16.25 15.25 Q-24.25 14.25 -32.25 13.25 L-32.55 13.25 M-28.4 9.05 Q-28.3 5.75 -16.8 0.25 -5.3 -5.25 -1.65 -4.8 -0.9 -7.05 3.15 -6.15 6.55 -5.45 14.5 1.6 L22.8 4.75 Q27.15 6.4 27.7 7.6 29.15 8.85 30.8 12.8 32.4 16.7 28.3 16.15 24.8 16.7 22.85 17.75 20.9 18.75 20.05 18.55 L18.7 18.15 17.25 18.4 15.9 18.75 Q14.15 19.95 14.5 17.5 14.95 14.3 14.35 13.6 L13.35 12.25 12.25 10.65 Q11.4 9.8 5.4 9.65 L-14.55 10.95 Q-28.5 12.35 -28.4 9.05 -28.3 5.75 -16.8 0.25 -5.3 -5.25 -1.65 -4.8 -0.9 -7.05 3.15 -6.15 6.55 -5.45 14.5 1.6 L22.8 4.75 Q27.15 6.4 27.7 7.6 29.15 8.85 30.8 12.8 32.4 16.7 28.3 16.15 24.8 16.7 22.85 17.75 20.9 18.75 20.05 18.55 L18.7 18.15 17.25 18.4 15.9 18.75 Q14.15 19.95 14.5 17.5 14.95 14.3 14.35 13.6 L13.35 12.25 12.25 10.65 Q11.4 9.8 5.4 9.65 L-14.55 10.95 Q-28.5 12.35 -28.4 9.05"/>
    </path>
  </g>
</svg>
