<?xml version="1.0" encoding="UTF-8" standalone="no"?>
<svg xmlns:xlink="http://www.w3.org/1999/xlink" height="58.75px" width="9.45px" xmlns="http://www.w3.org/2000/svg">
  <g transform="matrix(1.0, 0.0, 0.0, 1.0, 3.95, 31.8)">
    <path d="M-2.6 -1.6 Q-2.6 0.2 -0.55 0.2 1.5 0.2 2.8 -3.05 5.2 -9.0 4.55 -10.35 3.3 -12.75 4.15 -19.0 4.75 -21.8 5.3 -24.55 6.0 -30.15 4.1 -31.8 1.85 -28.6 1.4 -23.7 1.25 -18.05 0.7 -15.1 0.35 -12.25 0.0 -9.45 L-0.45 -5.65 Q-0.75 -4.65 -1.8 -3.85 -2.6 -3.25 -2.6 -1.6" fill="#ffffff" fill-opacity="0.8" fill-rule="evenodd" stroke="none">
      <animate attributeName="fill" dur="2s" repeatCount="indefinite" values="#ffffff;#ffffff"/>
      <animate attributeName="fill-opacity" dur="2s" repeatCount="indefinite" values="0.8;0.8"/>
      <animate attributeName="d" dur="2s" repeatCount="indefinite" values="M-2.6 -1.6 Q-2.6 0.2 -0.55 0.2 1.5 0.2 2.8 -3.05 5.2 -9.0 4.55 -10.35 3.3 -12.75 4.15 -19.0 4.75 -21.8 5.3 -24.55 6.0 -30.15 4.1 -31.8 1.85 -28.6 1.4 -23.7 1.25 -18.05 0.7 -15.1 0.35 -12.25 0.0 -9.45 L-0.45 -5.65 Q-0.75 -4.65 -1.8 -3.85 -2.6 -3.25 -2.6 -1.6;M-3.85 23.9 Q-3.6 27.65 -1.25 26.8 1.0 25.9 1.2 18.25 1.4 10.6 1.8 7.3 2.1 3.5 2.4 -0.3 2.55 -4.65 3.65 -12.45 4.35 -20.65 2.45 -23.1 0.2 -18.4 -0.25 -11.25 -0.4 -2.95 -0.2 0.9 -0.05 4.75 -1.05 9.85 L-2.1 15.2 Q-2.4 16.65 -3.25 18.4 -4.15 20.1 -3.85 23.9"/>
    </path>
    <path d="M-2.6 -1.6 Q-2.6 -3.25 -1.8 -3.85 -0.75 -4.65 -0.45 -5.65 L0.0 -9.45 Q0.35 -12.25 0.7 -15.1 1.25 -18.05 1.4 -23.7 1.85 -28.6 4.1 -31.8 6.0 -30.15 5.3 -24.55 4.75 -21.8 4.15 -19.0 3.3 -12.75 4.55 -10.35 5.2 -9.0 2.8 -3.05 1.5 0.2 -0.55 0.2 -2.6 0.2 -2.6 -1.6" fill="none" stroke="#000000" stroke-linecap="round" stroke-linejoin="round" stroke-opacity="0.0" stroke-width="1.0">
      <animate attributeName="stroke" dur="2s" repeatCount="indefinite" values="#000000;#000001"/>
      <animate attributeName="stroke-width" dur="2s" repeatCount="indefinite" values="0.0;0.0"/>
      <animate attributeName="fill-opacity" dur="2s" repeatCount="indefinite" values="0.0;0.0"/>
      <animate attributeName="d" dur="2s" repeatCount="indefinite" values="M-2.6 -1.6 Q-2.6 -3.25 -1.8 -3.85 -0.75 -4.65 -0.45 -5.65 L0.0 -9.45 Q0.35 -12.25 0.7 -15.1 1.25 -18.05 1.4 -23.7 1.85 -28.6 4.1 -31.8 6.0 -30.15 5.3 -24.55 4.75 -21.8 4.15 -19.0 3.3 -12.75 4.55 -10.35 5.2 -9.0 2.8 -3.05 1.5 0.2 -0.55 0.2 -2.6 0.2 -2.6 -1.6;M-3.85 23.9 Q-4.15 20.1 -3.25 18.4 -2.4 16.65 -2.1 15.2 L-1.05 9.85 Q-0.05 4.75 -0.2 0.9 -0.4 -2.95 -0.25 -11.25 0.2 -18.4 2.45 -23.1 4.35 -20.65 3.65 -12.45 2.55 -4.65 2.4 -0.3 2.1 3.5 1.8 7.3 1.4 10.6 1.2 18.25 1.0 25.9 -1.25 26.8 -3.6 27.65 -3.85 23.9"/>
    </path>
  </g>
</svg>
