<?xml version="1.0" encoding="UTF-8" standalone="no"?>
<svg xmlns:xlink="http://www.w3.org/1999/xlink" height="69.4px" width="9.65px" xmlns="http://www.w3.org/2000/svg">
  <g transform="matrix(1.0, 0.0, 0.0, 1.0, 5.8, 23.1)">
    <path d="M-3.85 23.9 Q-3.6 27.65 -1.25 26.8 1.0 25.9 1.2 18.25 1.4 10.6 1.8 7.3 2.1 3.5 2.4 -0.3 2.55 -4.65 3.65 -12.45 4.35 -20.65 2.45 -23.1 0.2 -18.4 -0.25 -11.25 -0.4 -2.95 -0.2 0.9 -0.05 4.75 -1.05 9.85 L-2.1 15.2 Q-2.4 16.65 -3.25 18.4 -4.15 20.1 -3.85 23.9" fill="#ffffff" fill-opacity="0.8" fill-rule="evenodd" stroke="none">
      <animate attributeName="fill" dur="2s" repeatCount="indefinite" values="#ffffff;#ffffff"/>
      <animate attributeName="fill-opacity" dur="2s" repeatCount="indefinite" values="0.8;0.8"/>
      <animate attributeName="d" dur="2s" repeatCount="indefinite" values="M-3.85 23.9 Q-3.6 27.65 -1.25 26.8 1.0 25.9 1.2 18.25 1.4 10.6 1.8 7.3 2.1 3.5 2.4 -0.3 2.55 -4.65 3.65 -12.45 4.35 -20.65 2.45 -23.1 0.2 -18.4 -0.25 -11.25 -0.4 -2.95 -0.2 0.9 -0.05 4.75 -1.05 9.85 L-2.1 15.2 Q-2.4 16.65 -3.25 18.4 -4.15 20.1 -3.85 23.9;M-5.8 42.9 Q-5.8 46.3 -3.75 46.3 -1.7 46.3 -0.4 40.1 2.0 28.75 1.35 26.2 0.1 21.6 0.95 9.75 1.55 4.45 2.1 -0.85 2.8 -11.55 0.9 -14.7 -1.35 -8.6 -1.8 0.75 -1.95 11.5 -2.5 17.15 -2.85 22.55 -3.2 27.9 L-3.65 35.2 Q-3.95 37.1 -5.0 38.65 -5.8 39.8 -5.8 42.9"/>
    </path>
    <path d="M-3.85 23.9 Q-4.15 20.1 -3.25 18.4 -2.4 16.65 -2.1 15.2 L-1.05 9.85 Q-0.05 4.75 -0.2 0.9 -0.4 -2.95 -0.25 -11.25 0.2 -18.4 2.45 -23.1 4.35 -20.65 3.65 -12.45 2.55 -4.65 2.4 -0.3 2.1 3.5 1.8 7.3 1.4 10.6 1.2 18.25 1.0 25.9 -1.25 26.8 -3.6 27.65 -3.85 23.9" fill="none" stroke="#000000" stroke-linecap="round" stroke-linejoin="round" stroke-opacity="0.0" stroke-width="1.0">
      <animate attributeName="stroke" dur="2s" repeatCount="indefinite" values="#000000;#000001"/>
      <animate attributeName="stroke-width" dur="2s" repeatCount="indefinite" values="0.0;0.0"/>
      <animate attributeName="fill-opacity" dur="2s" repeatCount="indefinite" values="0.0;0.0"/>
      <animate attributeName="d" dur="2s" repeatCount="indefinite" values="M-3.85 23.9 Q-4.15 20.1 -3.25 18.4 -2.4 16.65 -2.1 15.2 L-1.05 9.85 Q-0.05 4.75 -0.2 0.9 -0.4 -2.95 -0.25 -11.25 0.2 -18.4 2.45 -23.1 4.35 -20.65 3.65 -12.45 2.55 -4.65 2.4 -0.3 2.1 3.5 1.8 7.3 1.4 10.6 1.2 18.25 1.0 25.9 -1.25 26.8 -3.6 27.65 -3.85 23.9;M-5.8 42.9 Q-5.8 39.8 -5.0 38.65 -3.95 37.1 -3.65 35.2 L-3.2 27.9 Q-2.85 22.55 -2.5 17.15 -1.95 11.5 -1.8 0.75 -1.35 -8.6 0.9 -14.7 2.8 -11.55 2.1 -0.85 1.55 4.45 0.95 9.75 0.1 21.6 1.35 26.2 2.0 28.75 -0.4 40.1 -1.7 46.3 -3.75 46.3 -5.8 46.3 -5.8 42.9"/>
    </path>
  </g>
</svg>
