<?xml version="1.0" encoding="UTF-8" standalone="no"?>
<svg xmlns:xlink="http://www.w3.org/1999/xlink" height="62.45px" width="8.1px" xmlns="http://www.w3.org/2000/svg">
  <g transform="matrix(1.0, 0.0, 0.0, 1.0, 5.8, 14.7)">
    <path d="M-5.8 42.9 Q-5.8 46.3 -3.75 46.3 -1.7 46.3 -0.4 40.1 2.0 28.75 1.35 26.2 0.1 21.6 0.95 9.75 L2.1 -0.85 Q2.8 -11.55 0.9 -14.7 -1.35 -8.6 -1.8 0.75 -1.95 11.5 -2.5 17.15 L-3.2 27.9 -3.65 35.2 Q-3.95 37.1 -5.0 38.65 -5.8 39.8 -5.8 42.9" fill="#ffffff" fill-opacity="0.8" fill-rule="evenodd" stroke="none">
      <animate attributeName="fill" dur="2s" repeatCount="indefinite" values="#ffffff;#ffffff"/>
      <animate attributeName="fill-opacity" dur="2s" repeatCount="indefinite" values="0.8;0.8"/>
      <animate attributeName="d" dur="2s" repeatCount="indefinite" values="M-5.8 42.9 Q-5.8 46.3 -3.75 46.3 -1.7 46.3 -0.4 40.1 2.0 28.75 1.35 26.2 0.1 21.6 0.95 9.75 L2.1 -0.85 Q2.8 -11.55 0.9 -14.7 -1.35 -8.6 -1.8 0.75 -1.95 11.5 -2.5 17.15 L-3.2 27.9 -3.65 35.2 Q-3.95 37.1 -5.0 38.65 -5.8 39.8 -5.8 42.9;M-5.7 44.2 Q-5.6 46.55 -2.25 47.6 1.05 48.65 0.25 42.95 -0.55 37.2 -0.5 32.2 -0.45 27.15 0.0 22.4 L1.05 10.45 Q0.95 5.4 0.9 0.35 0.05 6.25 -0.75 12.1 -1.65 18.35 -2.5 24.6 L-3.2 32.75 -3.65 38.3 Q-3.95 39.75 -5.0 40.95 -5.8 41.8 -5.7 44.2"/>
    </path>
    <path d="M-5.8 42.9 Q-5.8 39.8 -5.0 38.65 -3.95 37.1 -3.65 35.2 L-3.2 27.9 -2.5 17.15 Q-1.95 11.5 -1.8 0.75 -1.35 -8.6 0.9 -14.7 2.8 -11.55 2.1 -0.85 L0.95 9.75 Q0.1 21.6 1.35 26.2 2.0 28.75 -0.4 40.1 -1.7 46.3 -3.75 46.3 -5.8 46.3 -5.8 42.9" fill="none" stroke="#000000" stroke-linecap="round" stroke-linejoin="round" stroke-opacity="0.0" stroke-width="1.0">
      <animate attributeName="stroke" dur="2s" repeatCount="indefinite" values="#000000;#000001"/>
      <animate attributeName="stroke-width" dur="2s" repeatCount="indefinite" values="0.0;0.0"/>
      <animate attributeName="fill-opacity" dur="2s" repeatCount="indefinite" values="0.0;0.0"/>
      <animate attributeName="d" dur="2s" repeatCount="indefinite" values="M-5.8 42.9 Q-5.8 39.8 -5.0 38.65 -3.95 37.1 -3.65 35.2 L-3.2 27.9 -2.5 17.15 Q-1.95 11.5 -1.8 0.75 -1.35 -8.6 0.9 -14.7 2.8 -11.55 2.1 -0.85 L0.95 9.75 Q0.1 21.6 1.35 26.2 2.0 28.75 -0.4 40.1 -1.7 46.3 -3.75 46.3 -5.8 46.3 -5.8 42.9;M-5.7 44.2 Q-5.8 41.8 -5.0 40.95 -3.95 39.75 -3.65 38.3 L-3.2 32.75 -2.5 24.6 Q-1.65 18.35 -0.75 12.1 0.05 6.25 0.9 0.35 0.95 5.4 1.05 10.45 L0.0 22.4 Q-0.45 27.15 -0.5 32.2 -0.55 37.2 0.25 42.95 1.05 48.65 -2.25 47.6 -5.6 46.55 -5.7 44.2"/>
    </path>
  </g>
</svg>
