<?xml version="1.0" encoding="UTF-8" standalone="no"?>
<svg xmlns:xlink="http://www.w3.org/1999/xlink" height="47.4px" width="7.3px" xmlns="http://www.w3.org/2000/svg">
  <g transform="matrix(1.0, 0.0, 0.0, 1.0, 5.7, -0.35)">
    <path d="M-5.7 44.2 Q-5.6 46.55 -2.25 47.6 1.05 48.65 0.25 42.95 -0.55 37.2 -0.5 32.2 -0.45 27.15 0.0 22.4 0.55 16.4 1.05 10.45 L0.9 0.35 -0.75 12.1 -2.5 24.6 -3.2 32.75 Q-3.6 38.05 -5.0 40.95 -5.8 41.8 -5.7 44.2" fill="#ffffff" fill-opacity="0.8" fill-rule="evenodd" stroke="none">
      <animate attributeName="fill" dur="2s" repeatCount="indefinite" values="#ffffff;#ffffff"/>
      <animate attributeName="fill-opacity" dur="2s" repeatCount="indefinite" values="0.8;0.2"/>
      <animate attributeName="d" dur="2s" repeatCount="indefinite" values="M-5.7 44.2 Q-5.6 46.55 -2.25 47.6 1.05 48.65 0.25 42.95 -0.55 37.2 -0.5 32.2 -0.45 27.15 0.0 22.4 0.55 16.4 1.05 10.45 L0.9 0.35 -0.75 12.1 -2.5 24.6 -3.2 32.75 Q-3.6 38.05 -5.0 40.95 -5.8 41.8 -5.7 44.2;M-5.15 43.8 Q-5.05 45.2 -1.75 46.05 1.5 46.85 0.1 45.35 -1.3 43.85 -1.45 38.45 -1.65 33.05 -0.35 28.2 0.95 23.35 1.6 23.7 L1.45 17.7 -0.2 24.7 -1.35 31.0 -2.3 36.45 Q-3.05 40.15 -4.45 41.85 -5.25 42.35 -5.15 43.8"/>
    </path>
    <path d="M-5.7 44.2 Q-5.8 41.8 -5.0 40.95 -3.6 38.05 -3.2 32.75 L-2.5 24.6 -0.75 12.1 0.9 0.35 1.05 10.45 Q0.55 16.4 0.0 22.4 -0.45 27.15 -0.5 32.2 -0.55 37.2 0.25 42.95 1.05 48.65 -2.25 47.6 -5.6 46.55 -5.7 44.2" fill="none" stroke="#000000" stroke-linecap="round" stroke-linejoin="round" stroke-opacity="0.0" stroke-width="1.0">
      <animate attributeName="stroke" dur="2s" repeatCount="indefinite" values="#000000;#000001"/>
      <animate attributeName="stroke-width" dur="2s" repeatCount="indefinite" values="0.0;0.0"/>
      <animate attributeName="fill-opacity" dur="2s" repeatCount="indefinite" values="0.0;0.0"/>
      <animate attributeName="d" dur="2s" repeatCount="indefinite" values="M-5.7 44.2 Q-5.8 41.8 -5.0 40.95 -3.6 38.05 -3.2 32.75 L-2.5 24.6 -0.75 12.1 0.9 0.35 1.05 10.45 Q0.55 16.4 0.0 22.4 -0.45 27.15 -0.5 32.2 -0.55 37.2 0.25 42.95 1.05 48.65 -2.25 47.6 -5.6 46.55 -5.7 44.2;M-5.15 43.8 Q-5.25 42.35 -4.45 41.85 -3.05 40.15 -2.3 36.45 L-1.35 31.0 -0.2 24.7 1.45 17.7 1.6 23.7 Q0.95 23.35 -0.35 28.2 -1.65 33.05 -1.45 38.45 -1.3 43.85 0.1 45.35 1.5 46.85 -1.75 46.05 -5.05 45.2 -5.15 43.8"/>
    </path>
  </g>
</svg>
