<?xml version="1.0" encoding="UTF-8" standalone="no"?>
<svg xmlns:xlink="http://www.w3.org/1999/xlink" height="45.05px" width="7.0px" xmlns="http://www.w3.org/2000/svg">
  <g transform="matrix(1.0, 0.0, 0.0, 1.0, -20.2, 21.05)">
    <path d="M21.35 -7.75 Q21.45 -7.05 21.55 -6.35 22.3 -5.1 25.2 -5.1 27.15 -5.1 27.2 -8.1 27.3 -10.35 26.35 -13.6 25.7 -15.75 25.85 -19.1 25.95 -21.05 24.75 -21.05 23.25 -21.05 22.75 -19.65 22.15 -18.1 22.5 -14.4 22.65 -12.85 22.0 -10.45 21.65 -9.1 21.35 -7.75" fill="#ffffff" fill-opacity="0.8980392" fill-rule="evenodd" stroke="none">
      <animate attributeName="fill" dur="2s" repeatCount="indefinite" values="#ffffff;#ffffff"/>
      <animate attributeName="fill-opacity" dur="2s" repeatCount="indefinite" values="0.8980392;0.8980392"/>
      <animate attributeName="d" dur="2s" repeatCount="indefinite" values="M21.35 -7.75 Q21.45 -7.05 21.55 -6.35 22.3 -5.1 25.2 -5.1 27.15 -5.1 27.2 -8.1 27.3 -10.35 26.35 -13.6 25.7 -15.75 25.85 -19.1 25.95 -21.05 24.75 -21.05 23.25 -21.05 22.75 -19.65 22.15 -18.1 22.5 -14.4 22.65 -12.85 22.0 -10.45 21.65 -9.1 21.35 -7.75;M20.2 19.75 Q21.85 24.65 24.3 23.9 26.75 23.15 26.2 19.3 25.65 15.35 25.7 5.8 25.7 -3.8 25.85 -11.65 25.95 -16.25 24.75 -16.25 23.25 -16.25 22.75 -12.95 22.15 -9.3 23.4 -2.95 24.65 3.4 23.45 9.1 22.25 14.8 21.8 15.0 21.35 15.15 20.2 19.75"/>
    </path>
    <path d="M21.35 -7.75 Q21.65 -9.1 22.0 -10.45 22.65 -12.85 22.5 -14.4 22.15 -18.1 22.75 -19.65 23.25 -21.05 24.75 -21.05 25.95 -21.05 25.85 -19.1 25.7 -15.75 26.35 -13.6 27.3 -10.35 27.2 -8.1 27.15 -5.1 25.2 -5.1 22.3 -5.1 21.55 -6.35 21.45 -7.05 21.35 -7.75" fill="none" stroke="#000000" stroke-linecap="round" stroke-linejoin="round" stroke-opacity="0.0" stroke-width="1.0">
      <animate attributeName="stroke" dur="2s" repeatCount="indefinite" values="#000000;#000001"/>
      <animate attributeName="stroke-width" dur="2s" repeatCount="indefinite" values="0.0;0.0"/>
      <animate attributeName="fill-opacity" dur="2s" repeatCount="indefinite" values="0.0;0.0"/>
      <animate attributeName="d" dur="2s" repeatCount="indefinite" values="M21.35 -7.75 Q21.65 -9.1 22.0 -10.45 22.65 -12.85 22.5 -14.4 22.15 -18.1 22.75 -19.65 23.25 -21.05 24.75 -21.05 25.95 -21.05 25.85 -19.1 25.7 -15.75 26.35 -13.6 27.3 -10.35 27.2 -8.1 27.15 -5.1 25.2 -5.1 22.3 -5.1 21.55 -6.35 21.45 -7.05 21.35 -7.75;M20.2 19.75 Q21.35 15.15 21.8 15.0 22.25 14.8 23.45 9.1 24.65 3.4 23.4 -2.95 22.15 -9.3 22.75 -12.95 23.25 -16.25 24.75 -16.25 25.95 -16.25 25.85 -11.65 25.7 -3.8 25.7 5.8 25.65 15.35 26.2 19.3 26.75 23.15 24.3 23.9 21.85 24.65 20.2 19.75"/>
    </path>
  </g>
</svg>
