<?xml version="1.0" encoding="UTF-8" standalone="no"?>
<svg xmlns:xlink="http://www.w3.org/1999/xlink" height="68.9px" width="8.1px" xmlns="http://www.w3.org/2000/svg">
  <g transform="matrix(1.0, 0.0, 0.0, 1.0, -20.2, 16.25)">
    <path d="M20.2 19.75 Q21.85 24.65 24.3 23.9 26.75 23.15 26.2 19.3 25.65 15.35 25.7 5.8 25.7 -3.8 25.85 -11.65 25.95 -16.25 24.75 -16.25 23.25 -16.25 22.75 -12.95 22.15 -9.3 23.4 -2.95 24.65 3.4 23.45 9.1 22.25 14.8 21.8 15.0 21.35 15.15 20.2 19.75" fill="#ffffff" fill-opacity="0.8980392" fill-rule="evenodd" stroke="none">
      <animate attributeName="fill" dur="2s" repeatCount="indefinite" values="#ffffff;#ffffff"/>
      <animate attributeName="fill-opacity" dur="2s" repeatCount="indefinite" values="0.8980392;0.8980392"/>
      <animate attributeName="d" dur="2s" repeatCount="indefinite" values="M20.2 19.75 Q21.85 24.65 24.3 23.9 26.75 23.15 26.2 19.3 25.65 15.35 25.7 5.8 25.7 -3.8 25.85 -11.65 25.95 -16.25 24.75 -16.25 23.25 -16.25 22.75 -12.95 22.15 -9.3 23.4 -2.95 24.65 3.4 23.45 9.1 22.25 14.8 21.8 15.0 21.35 15.15 20.2 19.75;M21.35 38.7 Q21.45 42.0 21.55 45.3 19.5 52.7 24.65 52.65 29.8 52.55 27.7 39.65 25.6 26.75 25.65 13.7 25.7 0.6 26.0 -3.95 26.25 -8.55 24.9 -8.55 24.1 -8.65 23.35 -8.75 23.15 -8.95 23.1 3.05 23.05 15.05 22.2 26.5 21.75 32.6 21.35 38.7"/>
    </path>
    <path d="M20.2 19.75 Q21.35 15.15 21.8 15.0 22.25 14.8 23.45 9.1 24.65 3.4 23.4 -2.95 22.15 -9.3 22.75 -12.95 23.25 -16.25 24.75 -16.25 25.95 -16.25 25.85 -11.65 25.7 -3.8 25.7 5.8 25.65 15.35 26.2 19.3 26.75 23.15 24.3 23.9 21.85 24.65 20.2 19.75" fill="none" stroke="#000000" stroke-linecap="round" stroke-linejoin="round" stroke-opacity="0.0" stroke-width="1.0">
      <animate attributeName="stroke" dur="2s" repeatCount="indefinite" values="#000000;#000001"/>
      <animate attributeName="stroke-width" dur="2s" repeatCount="indefinite" values="0.0;0.0"/>
      <animate attributeName="fill-opacity" dur="2s" repeatCount="indefinite" values="0.0;0.0"/>
      <animate attributeName="d" dur="2s" repeatCount="indefinite" values="M20.2 19.75 Q21.35 15.15 21.8 15.0 22.25 14.8 23.45 9.1 24.65 3.4 23.4 -2.95 22.15 -9.3 22.75 -12.95 23.25 -16.25 24.75 -16.25 25.95 -16.25 25.85 -11.65 25.7 -3.8 25.7 5.8 25.65 15.35 26.2 19.3 26.75 23.15 24.3 23.9 21.85 24.65 20.2 19.75;M21.35 38.7 Q21.75 32.6 22.2 26.5 23.05 15.05 23.1 3.05 23.15 -8.95 23.35 -8.75 24.1 -8.65 24.9 -8.55 26.25 -8.55 26.0 -3.95 25.7 0.6 25.65 13.7 25.6 26.75 27.7 39.65 29.8 52.55 24.65 52.65 19.5 52.7 21.55 45.3 21.45 42.0 21.35 38.7"/>
    </path>
  </g>
</svg>
