<?xml version="1.0" encoding="UTF-8" standalone="no"?>
<svg xmlns:xlink="http://www.w3.org/1999/xlink" height="61.4px" width="17.15px" xmlns="http://www.w3.org/2000/svg">
  <g transform="matrix(1.0, 0.0, 0.0, 1.0, -17.35, 8.75)">
    <path d="M21.35 38.7 L21.55 45.3 Q19.5 52.7 24.65 52.65 29.8 52.55 27.7 39.65 25.6 26.75 25.65 13.7 25.7 0.6 26.0 -3.95 26.25 -8.55 23.35 -8.75 23.15 -8.95 23.1 3.05 23.05 15.05 22.2 26.5 L21.35 38.7" fill="#ffffff" fill-opacity="0.8980392" fill-rule="evenodd" stroke="none">
      <animate attributeName="fill" dur="2s" repeatCount="indefinite" values="#ffffff;#ffffff"/>
      <animate attributeName="fill-opacity" dur="2s" repeatCount="indefinite" values="0.8980392;0.8980392"/>
      <animate attributeName="d" dur="2s" repeatCount="indefinite" values="M21.35 38.7 L21.55 45.3 Q19.5 52.7 24.65 52.65 29.8 52.55 27.7 39.65 25.6 26.75 25.65 13.7 25.7 0.6 26.0 -3.95 26.25 -8.55 23.35 -8.75 23.15 -8.95 23.1 3.05 23.05 15.05 22.2 26.5 L21.35 38.7;M21.35 44.3 L21.55 47.6 Q11.55 50.85 25.25 52.3 38.9 53.75 32.45 46.1 26.0 38.4 25.85 31.8 25.7 25.2 26.0 22.9 26.25 20.6 23.35 20.5 23.15 20.4 23.1 26.45 23.05 32.45 22.2 38.2 L21.35 44.3"/>
    </path>
    <path d="M21.35 38.7 L22.2 26.5 Q23.05 15.05 23.1 3.05 23.15 -8.95 23.35 -8.75 26.25 -8.55 26.0 -3.95 25.7 0.6 25.65 13.7 25.6 26.75 27.7 39.65 29.8 52.55 24.65 52.65 19.5 52.7 21.55 45.3 L21.35 38.7" fill="none" stroke="#000000" stroke-linecap="round" stroke-linejoin="round" stroke-opacity="0.0" stroke-width="1.0">
      <animate attributeName="stroke" dur="2s" repeatCount="indefinite" values="#000000;#000001"/>
      <animate attributeName="stroke-width" dur="2s" repeatCount="indefinite" values="0.0;0.0"/>
      <animate attributeName="fill-opacity" dur="2s" repeatCount="indefinite" values="0.0;0.0"/>
      <animate attributeName="d" dur="2s" repeatCount="indefinite" values="M21.35 38.7 L22.2 26.5 Q23.05 15.05 23.1 3.05 23.15 -8.95 23.35 -8.75 26.25 -8.55 26.0 -3.95 25.7 0.6 25.65 13.7 25.6 26.75 27.7 39.65 29.8 52.55 24.65 52.65 19.5 52.7 21.55 45.3 L21.35 38.7;M21.35 44.3 L22.2 38.2 Q23.05 32.45 23.1 26.45 23.15 20.4 23.35 20.5 26.25 20.6 26.0 22.9 25.7 25.2 25.85 31.8 26.0 38.4 32.45 46.1 38.9 53.75 25.25 52.3 11.55 50.85 21.55 47.6 L21.35 44.3"/>
    </path>
  </g>
</svg>
