<?xml version="1.0" encoding="UTF-8" standalone="no"?>
<svg xmlns:xlink="http://www.w3.org/1999/xlink" height="32.05px" width="19.9px" xmlns="http://www.w3.org/2000/svg">
  <g transform="matrix(1.0, 0.0, 0.0, 1.0, -15.95, -20.5)">
    <path d="M21.35 44.3 L21.55 47.6 Q11.55 50.85 25.25 52.3 38.9 53.75 32.45 46.1 26.0 38.4 25.85 31.8 25.7 25.2 26.0 22.9 26.25 20.6 23.35 20.5 23.15 20.4 23.1 26.45 23.05 32.45 22.2 38.2 L21.35 44.3" fill="#ffffff" fill-opacity="0.8980392" fill-rule="evenodd" stroke="none">
      <animate attributeName="fill" dur="2s" repeatCount="indefinite" values="#ffffff;#ffffff"/>
      <animate attributeName="fill-opacity" dur="2s" repeatCount="indefinite" values="0.8980392;0.09803922"/>
      <animate attributeName="d" dur="2s" repeatCount="indefinite" values="M21.35 44.3 L21.55 47.6 Q11.55 50.85 25.25 52.3 38.9 53.75 32.45 46.1 26.0 38.4 25.85 31.8 25.7 25.2 26.0 22.9 26.25 20.6 23.35 20.5 23.15 20.4 23.1 26.45 23.05 32.45 22.2 38.2 L21.35 44.3;M20.6 46.95 L20.85 48.75 Q9.25 50.5 25.15 51.3 40.95 52.1 33.45 47.9 26.0 43.75 25.85 40.15 25.65 36.55 26.0 35.3 26.3 34.05 22.95 34.0 22.7 33.95 22.65 37.25 22.6 40.5 21.6 43.6 L20.6 46.95"/>
    </path>
    <path d="M21.35 44.3 L22.2 38.2 Q23.05 32.45 23.1 26.45 23.15 20.4 23.35 20.5 26.25 20.6 26.0 22.9 25.7 25.2 25.85 31.8 26.0 38.4 32.45 46.1 38.9 53.75 25.25 52.3 11.55 50.85 21.55 47.6 L21.35 44.3" fill="none" stroke="#000000" stroke-linecap="round" stroke-linejoin="round" stroke-opacity="0.0" stroke-width="1.0">
      <animate attributeName="stroke" dur="2s" repeatCount="indefinite" values="#000000;#000001"/>
      <animate attributeName="stroke-width" dur="2s" repeatCount="indefinite" values="0.0;0.0"/>
      <animate attributeName="fill-opacity" dur="2s" repeatCount="indefinite" values="0.0;0.0"/>
      <animate attributeName="d" dur="2s" repeatCount="indefinite" values="M21.35 44.3 L22.2 38.2 Q23.05 32.45 23.1 26.45 23.15 20.4 23.35 20.5 26.25 20.6 26.0 22.9 25.7 25.2 25.85 31.8 26.0 38.4 32.45 46.1 38.9 53.75 25.25 52.3 11.55 50.85 21.55 47.6 L21.35 44.3;M20.6 46.95 L21.6 43.6 Q22.6 40.5 22.65 37.25 22.7 33.95 22.95 34.0 26.3 34.05 26.0 35.3 25.65 36.55 25.85 40.15 26.0 43.75 33.45 47.9 40.95 52.1 25.15 51.3 9.25 50.5 20.85 48.75 L20.6 46.95"/>
    </path>
  </g>
</svg>
