<?xml version="1.0" encoding="UTF-8" standalone="no"?>
<svg xmlns:xlink="http://www.w3.org/1999/xlink" height="55.3px" width="10.65px" xmlns="http://www.w3.org/2000/svg">
  <g transform="matrix(1.0, 0.0, 0.0, 1.0, -43.1, 27.95)">
    <path d="M43.1 -26.0 L43.1 -25.6 43.1 -24.85 Q43.2 -17.45 44.65 -9.25 46.25 0.2 47.95 0.2 50.3 0.2 50.3 -3.05 50.3 -4.6 49.45 -8.05 L48.1 -12.5 Q46.75 -14.35 46.5 -21.8 L46.4 -24.1 46.15 -26.3 Q44.35 -29.75 43.1 -26.0" fill="#ffffff" fill-opacity="0.8980392" fill-rule="evenodd" stroke="none">
      <animate attributeName="fill" dur="2s" repeatCount="indefinite" values="#ffffff;#ffffff"/>
      <animate attributeName="fill-opacity" dur="2s" repeatCount="indefinite" values="0.8980392;0.8980392"/>
      <animate attributeName="d" dur="2s" repeatCount="indefinite" values="M43.1 -26.0 L43.1 -25.6 43.1 -24.85 Q43.2 -17.45 44.65 -9.25 46.25 0.2 47.95 0.2 50.3 0.2 50.3 -3.05 50.3 -4.6 49.45 -8.05 L48.1 -12.5 Q46.75 -14.35 46.5 -21.8 L46.4 -24.1 46.15 -26.3 Q44.35 -29.75 43.1 -26.0;M44.75 -16.45 L44.75 -15.85 45.65 -10.65 Q48.95 -2.75 48.1 12.2 47.2 27.1 50.6 27.35 53.95 27.6 53.75 23.15 53.5 18.65 52.35 13.3 L50.5 5.35 Q49.05 2.35 48.4 -9.75 L48.15 -13.5 47.8 -17.05 Q45.8 -22.6 44.75 -16.45"/>
    </path>
    <path d="M43.1 -26.0 Q44.35 -29.75 46.15 -26.3 L46.4 -24.1 46.5 -21.8 Q46.75 -14.35 48.1 -12.5 L49.45 -8.05 Q50.3 -4.6 50.3 -3.05 50.3 0.2 47.95 0.2 46.25 0.2 44.65 -9.25 43.2 -17.45 43.1 -24.85 L43.1 -25.6 43.1 -26.0" fill="none" stroke="#000000" stroke-linecap="round" stroke-linejoin="round" stroke-opacity="0.0" stroke-width="1.0">
      <animate attributeName="stroke" dur="2s" repeatCount="indefinite" values="#000000;#000001"/>
      <animate attributeName="stroke-width" dur="2s" repeatCount="indefinite" values="0.0;0.0"/>
      <animate attributeName="fill-opacity" dur="2s" repeatCount="indefinite" values="0.0;0.0"/>
      <animate attributeName="d" dur="2s" repeatCount="indefinite" values="M43.1 -26.0 Q44.35 -29.75 46.15 -26.3 L46.4 -24.1 46.5 -21.8 Q46.75 -14.35 48.1 -12.5 L49.45 -8.05 Q50.3 -4.6 50.3 -3.05 50.3 0.2 47.95 0.2 46.25 0.2 44.65 -9.25 43.2 -17.45 43.1 -24.85 L43.1 -25.6 43.1 -26.0;M44.75 -16.45 Q45.8 -22.6 47.8 -17.05 L48.15 -13.5 48.4 -9.75 Q49.05 2.35 50.5 5.35 L52.35 13.3 Q53.5 18.65 53.75 23.15 53.95 27.6 50.6 27.35 47.2 27.1 48.1 12.2 48.95 -2.75 45.65 -10.65 L44.75 -15.85 44.75 -16.45"/>
    </path>
  </g>
</svg>
