<?xml version="1.0" encoding="UTF-8" standalone="no"?>
<svg xmlns:xlink="http://www.w3.org/1999/xlink" height="61.9px" width="13.1px" xmlns="http://www.w3.org/2000/svg">
  <g transform="matrix(1.0, 0.0, 0.0, 1.0, -46.25, 10.85)">
    <path d="M46.25 -8.0 L46.25 -7.15 47.95 1.95 48.05 2.7 Q49.55 11.15 48.25 30.65 L48.15 31.65 Q47.0 51.0 53.2 51.05 L54.25 51.0 Q59.45 50.6 58.4 45.1 L57.9 42.65 Q56.6 37.25 55.3 31.85 L54.55 28.95 52.6 21.2 52.0 19.1 Q51.15 15.1 50.45 6.5 L50.05 1.0 Q49.85 -1.55 49.7 -4.05 49.45 -6.45 49.25 -8.8 49.0 -9.7 46.7 -10.85 46.45 -9.4 46.25 -8.0" fill="#ffffff" fill-opacity="0.8980392" fill-rule="evenodd" stroke="none">
      <animate attributeName="fill" dur="2s" repeatCount="indefinite" values="#ffffff;#ffffff"/>
      <animate attributeName="fill-opacity" dur="2s" repeatCount="indefinite" values="0.8980392;0.8980392"/>
      <animate attributeName="d" dur="2s" repeatCount="indefinite" values="M46.25 -8.0 L46.25 -7.15 47.95 1.95 48.05 2.7 Q49.55 11.15 48.25 30.65 L48.15 31.65 Q47.0 51.0 53.2 51.05 L54.25 51.0 Q59.45 50.6 58.4 45.1 L57.9 42.65 Q56.6 37.25 55.3 31.85 L54.55 28.95 52.6 21.2 52.0 19.1 Q51.15 15.1 50.45 6.5 L50.05 1.0 Q49.85 -1.55 49.7 -4.05 49.45 -6.45 49.25 -8.8 49.0 -9.7 46.7 -10.85 46.45 -9.4 46.25 -8.0;M48.0 16.4 L48.1 16.7 50.35 21.9 50.55 22.3 Q53.0 27.65 51.9 39.1 L51.8 39.6 Q50.55 50.8 55.35 50.85 L55.9 50.8 Q60.3 50.25 59.1 47.8 L58.3 46.65 Q56.0 43.95 55.25 40.85 L54.95 39.0 54.55 34.4 54.35 32.8 Q52.8 30.5 52.05 25.4 L51.6 21.95 Q51.4 19.8 51.65 18.95 51.8 18.0 51.25 16.3 51.15 15.9 49.15 14.95 48.0 16.1 48.0 16.4"/>
    </path>
    <path d="M46.25 -8.0 Q46.45 -9.4 46.7 -10.85 49.0 -9.7 49.25 -8.8 49.45 -6.45 49.7 -4.05 49.85 -1.55 50.05 1.0 L50.45 6.5 Q51.15 15.1 52.0 19.1 L52.6 21.2 54.55 28.95 55.3 31.85 Q56.6 37.25 57.9 42.65 L58.4 45.1 Q59.45 50.6 54.25 51.0 L53.2 51.05 Q47.0 51.0 48.15 31.65 L48.25 30.65 Q49.55 11.15 48.05 2.7 L47.95 1.95 46.25 -7.15 46.25 -8.0" fill="none" stroke="#000000" stroke-linecap="round" stroke-linejoin="round" stroke-opacity="0.0" stroke-width="1.0">
      <animate attributeName="stroke" dur="2s" repeatCount="indefinite" values="#000000;#000001"/>
      <animate attributeName="stroke-width" dur="2s" repeatCount="indefinite" values="0.0;0.0"/>
      <animate attributeName="fill-opacity" dur="2s" repeatCount="indefinite" values="0.0;0.0"/>
      <animate attributeName="d" dur="2s" repeatCount="indefinite" values="M46.25 -8.0 Q46.45 -9.4 46.7 -10.85 49.0 -9.7 49.25 -8.8 49.45 -6.45 49.7 -4.05 49.85 -1.55 50.05 1.0 L50.45 6.5 Q51.15 15.1 52.0 19.1 L52.6 21.2 54.55 28.95 55.3 31.85 Q56.6 37.25 57.9 42.65 L58.4 45.1 Q59.45 50.6 54.25 51.0 L53.2 51.05 Q47.0 51.0 48.15 31.65 L48.25 30.65 Q49.55 11.15 48.05 2.7 L47.95 1.95 46.25 -7.15 46.25 -8.0;M48.0 16.4 Q48.0 16.1 49.15 14.95 51.15 15.9 51.25 16.3 51.8 18.0 51.65 18.95 51.4 19.8 51.6 21.95 L52.05 25.4 Q52.8 30.5 54.35 32.8 L54.55 34.4 54.95 39.0 55.25 40.85 Q56.0 43.95 58.3 46.65 L59.1 47.8 Q60.3 50.25 55.9 50.8 L55.35 50.85 Q50.55 50.8 51.8 39.6 L51.9 39.1 Q53.0 27.65 50.55 22.3 L50.35 21.9 48.1 16.7 48.0 16.4"/>
    </path>
  </g>
</svg>
