<?xml version="1.0" encoding="UTF-8" standalone="no"?>
<svg xmlns:xlink="http://www.w3.org/1999/xlink" height="35.95px" width="12.1px" xmlns="http://www.w3.org/2000/svg">
  <g transform="matrix(1.0, 0.0, 0.0, 1.0, -48.0, -14.95)">
    <path d="M48.0 16.4 Q48.05 16.85 50.55 22.3 53.05 27.75 51.8 39.6 50.5 51.45 55.9 50.8 61.3 50.1 58.3 46.65 55.3 43.15 54.95 39.0 L54.35 32.8 Q52.8 30.5 52.05 25.4 51.3 20.25 51.6 19.15 51.9 18.0 49.15 14.95 48.0 16.1 48.0 16.4" fill="#ffffff" fill-opacity="0.8980392" fill-rule="evenodd" stroke="none">
      <animate attributeName="fill" dur="2s" repeatCount="indefinite" values="#ffffff;#ffffff"/>
      <animate attributeName="fill-opacity" dur="2s" repeatCount="indefinite" values="0.8980392;0.09803922"/>
      <animate attributeName="d" dur="2s" repeatCount="indefinite" values="M48.0 16.4 Q48.05 16.85 50.55 22.3 53.05 27.75 51.8 39.6 50.5 51.45 55.9 50.8 61.3 50.1 58.3 46.65 55.3 43.15 54.95 39.0 L54.35 32.8 Q52.8 30.5 52.05 25.4 51.3 20.25 51.6 19.15 51.9 18.0 49.15 14.95 48.0 16.1 48.0 16.4;M48.95 23.6 Q50.25 25.8 51.5 28.0 54.0 32.1 51.0 42.25 48.0 52.4 55.1 50.65 62.2 48.9 59.25 46.3 56.25 43.65 55.9 40.5 L55.3 35.9 Q53.75 34.15 53.0 30.35 52.25 26.45 52.55 25.65 52.85 24.8 50.1 22.5 48.95 23.35 48.95 23.6"/>
    </path>
    <path d="M48.0 16.4 Q48.0 16.1 49.15 14.95 51.9 18.0 51.6 19.15 51.3 20.25 52.05 25.4 52.8 30.5 54.35 32.8 L54.95 39.0 Q55.3 43.15 58.3 46.65 61.3 50.1 55.9 50.8 50.5 51.45 51.8 39.6 53.05 27.75 50.55 22.3 48.05 16.85 48.0 16.4" fill="none" stroke="#000000" stroke-linecap="round" stroke-linejoin="round" stroke-opacity="0.0" stroke-width="1.0">
      <animate attributeName="stroke" dur="2s" repeatCount="indefinite" values="#000000;#000001"/>
      <animate attributeName="stroke-width" dur="2s" repeatCount="indefinite" values="0.0;0.0"/>
      <animate attributeName="fill-opacity" dur="2s" repeatCount="indefinite" values="0.0;0.0"/>
      <animate attributeName="d" dur="2s" repeatCount="indefinite" values="M48.0 16.4 Q48.0 16.1 49.15 14.95 51.9 18.0 51.6 19.15 51.3 20.25 52.05 25.4 52.8 30.5 54.35 32.8 L54.95 39.0 Q55.3 43.15 58.3 46.65 61.3 50.1 55.9 50.8 50.5 51.45 51.8 39.6 53.05 27.75 50.55 22.3 48.05 16.85 48.0 16.4;M48.95 23.6 Q48.95 23.35 50.1 22.5 52.85 24.8 52.55 25.65 52.25 26.45 53.0 30.35 53.75 34.15 55.3 35.9 L55.9 40.5 Q56.25 43.65 59.25 46.3 62.2 48.9 55.1 50.65 48.0 52.4 51.0 42.25 54.0 32.1 51.5 28.0 50.25 25.8 48.95 23.6"/>
    </path>
  </g>
</svg>
