<?xml version="1.0" encoding="UTF-8" standalone="no"?>
<svg xmlns:xlink="http://www.w3.org/1999/xlink" height="7.05px" width="44.4px" xmlns="http://www.w3.org/2000/svg">
  <g transform="matrix(1.0, 0.0, 0.0, 1.0, -1.85, 0.4)">
    <path d="M41.05 2.65 L41.05 2.65 41.15 2.75 41.25 2.75 41.25 2.75 41.55 2.7 41.95 2.55 42.3 2.35 42.85 2.05 Q43.1 1.85 43.35 1.7 L43.45 1.6 Q43.65 1.45 43.85 1.3 L44.1 1.1 Q44.45 0.7 44.75 0.35 L44.8 0.15 44.75 -0.05 Q44.55 0.0 44.4 0.05 44.15 0.2 43.95 0.35 L43.75 0.55 Q43.55 0.75 43.4 0.95 L43.4 0.95 43.0 1.3 41.85 2.0 Q41.1 2.5 41.05 2.65 M1.85 -0.35 L1.85 -0.35 2.05 0.1 2.05 0.1 2.15 0.2 2.25 0.3 2.25 0.3 2.35 0.4 2.35 0.4 2.7 0.75 3.15 1.15 3.15 1.15 3.65 1.55 Q4.0 1.75 4.3 1.9 4.65 2.05 5.0 2.2 5.3 2.25 5.55 2.3 6.05 2.3 6.05 2.05 L6.05 1.95 5.95 1.8 5.8 1.55 5.7 1.45 5.45 1.3 5.0 1.2 4.8 1.25 4.55 1.35 4.15 1.2 3.8 0.95 Q3.5 0.7 3.25 0.45 L2.45 -0.15 Q1.85 -0.55 1.85 -0.35" fill="#ffffff" fill-opacity="0.6" fill-rule="evenodd" stroke="none">
      <animate attributeName="fill" dur="2s" repeatCount="indefinite" values="#ffffff;#ffffff"/>
      <animate attributeName="fill-opacity" dur="2s" repeatCount="indefinite" values="0.6;0.6"/>
      <animate attributeName="d" dur="2s" repeatCount="indefinite" values="M41.05 2.65 L41.05 2.65 41.15 2.75 41.25 2.75 41.25 2.75 41.55 2.7 41.95 2.55 42.3 2.35 42.85 2.05 Q43.1 1.85 43.35 1.7 L43.45 1.6 Q43.65 1.45 43.85 1.3 L44.1 1.1 Q44.45 0.7 44.75 0.35 L44.8 0.15 44.75 -0.05 Q44.55 0.0 44.4 0.05 44.15 0.2 43.95 0.35 L43.75 0.55 Q43.55 0.75 43.4 0.95 L43.4 0.95 43.0 1.3 41.85 2.0 Q41.1 2.5 41.05 2.65 M1.85 -0.35 L1.85 -0.35 2.05 0.1 2.05 0.1 2.15 0.2 2.25 0.3 2.25 0.3 2.35 0.4 2.35 0.4 2.7 0.75 3.15 1.15 3.15 1.15 3.65 1.55 Q4.0 1.75 4.3 1.9 4.65 2.05 5.0 2.2 5.3 2.25 5.55 2.3 6.05 2.3 6.05 2.05 L6.05 1.95 5.95 1.8 5.8 1.55 5.7 1.45 5.45 1.3 5.0 1.2 4.8 1.25 4.55 1.35 4.15 1.2 3.8 0.95 Q3.5 0.7 3.25 0.45 L2.45 -0.15 Q1.85 -0.55 1.85 -0.35;M36.15 4.45 L36.15 4.55 36.2 4.65 36.5 4.7 36.75 4.7 37.45 4.65 38.7 4.05 39.9 4.05 40.85 5.55 Q41.65 6.65 42.2 6.65 L42.65 6.6 Q43.4 6.4 43.4 5.4 L43.15 4.45 Q43.15 3.55 44.7 2.4 L44.95 2.2 45.55 1.7 Q46.25 1.0 46.25 0.4 46.25 -0.2 45.1 -0.25 L44.35 -0.2 Q43.9 -0.15 43.9 0.1 L44.1 0.35 42.8 1.4 38.95 3.0 Q36.15 3.95 36.15 4.45 M1.85 -0.35 L1.95 -0.1 2.45 0.5 2.35 0.45 2.3 0.7 2.4 0.85 2.5 0.95 2.4 1.15 2.3 1.3 3.05 2.1 3.9 3.55 3.9 3.65 3.8 5.1 Q3.8 6.1 4.7 6.1 5.35 6.1 5.65 5.0 5.8 4.45 6.3 4.2 6.75 4.05 7.2 3.95 L7.5 3.95 7.85 4.2 8.4 4.45 8.7 4.35 8.7 3.85 8.15 3.35 7.55 2.9 7.05 2.6 6.05 2.0 5.8 1.55 Q5.45 1.2 4.7 1.35 L3.05 0.3 Q2.45 -0.05 1.85 -0.35"/>
    </path>
    <path d="M1.85 -0.35 Q1.85 -0.55 2.45 -0.15 L3.25 0.45 Q3.5 0.7 3.8 0.95 L4.15 1.2 4.55 1.35 4.8 1.25 5.0 1.2 5.45 1.3 5.7 1.45 5.8 1.55 5.95 1.8 6.05 1.95 6.05 2.05 Q6.05 2.3 5.55 2.3 5.3 2.25 5.0 2.2 4.65 2.05 4.3 1.9 4.0 1.75 3.65 1.55 L3.15 1.15 3.15 1.15 2.7 0.75 2.35 0.4 2.35 0.4 2.25 0.3 2.25 0.3 2.15 0.2 2.05 0.1 2.05 0.1 1.85 -0.35 1.85 -0.35 M41.05 2.65 Q41.1 2.5 41.85 2.0 L43.0 1.3 43.4 0.95 43.4 0.95 Q43.55 0.75 43.75 0.55 L43.95 0.35 Q44.15 0.2 44.4 0.05 44.55 0.0 44.75 -0.05 L44.8 0.15 44.75 0.35 Q44.45 0.7 44.1 1.1 L43.85 1.3 Q43.65 1.45 43.45 1.6 L43.35 1.7 Q43.1 1.85 42.85 2.05 L42.3 2.35 41.95 2.55 41.55 2.7 41.25 2.75 41.25 2.75 41.15 2.75 41.05 2.65 41.05 2.65" fill="none" stroke="#000000" stroke-linecap="round" stroke-linejoin="round" stroke-opacity="0.0" stroke-width="1.0">
      <animate attributeName="stroke" dur="2s" repeatCount="indefinite" values="#000000;#000001"/>
      <animate attributeName="stroke-width" dur="2s" repeatCount="indefinite" values="0.0;0.0"/>
      <animate attributeName="fill-opacity" dur="2s" repeatCount="indefinite" values="0.0;0.0"/>
      <animate attributeName="d" dur="2s" repeatCount="indefinite" values="M1.85 -0.35 Q1.85 -0.55 2.45 -0.15 L3.25 0.45 Q3.5 0.7 3.8 0.95 L4.15 1.2 4.55 1.35 4.8 1.25 5.0 1.2 5.45 1.3 5.7 1.45 5.8 1.55 5.95 1.8 6.05 1.95 6.05 2.05 Q6.05 2.3 5.55 2.3 5.3 2.25 5.0 2.2 4.65 2.05 4.3 1.9 4.0 1.75 3.65 1.55 L3.15 1.15 3.15 1.15 2.7 0.75 2.35 0.4 2.35 0.4 2.25 0.3 2.25 0.3 2.15 0.2 2.05 0.1 2.05 0.1 1.85 -0.35 1.85 -0.35 M41.05 2.65 Q41.1 2.5 41.85 2.0 L43.0 1.3 43.4 0.95 43.4 0.95 Q43.55 0.75 43.75 0.55 L43.95 0.35 Q44.15 0.2 44.4 0.05 44.55 0.0 44.75 -0.05 L44.8 0.15 44.75 0.35 Q44.45 0.7 44.1 1.1 L43.85 1.3 Q43.65 1.45 43.45 1.6 L43.35 1.7 Q43.1 1.85 42.85 2.05 L42.3 2.35 41.95 2.55 41.55 2.7 41.25 2.75 41.25 2.75 41.15 2.75 41.05 2.65 41.05 2.65;M1.85 -0.35 Q2.45 -0.05 3.05 0.3 L4.7 1.35 Q5.45 1.2 5.8 1.55 L6.05 2.0 7.05 2.6 7.55 2.9 8.15 3.35 8.7 3.85 8.7 4.35 8.4 4.45 7.85 4.2 7.5 3.95 7.2 3.95 Q6.75 4.05 6.3 4.2 5.8 4.45 5.65 5.0 5.35 6.1 4.7 6.1 3.8 6.1 3.8 5.1 L3.9 3.65 3.9 3.55 3.05 2.1 2.3 1.3 2.4 1.15 2.5 0.95 2.4 0.85 2.3 0.7 2.35 0.45 2.45 0.5 1.95 -0.1 1.85 -0.35 M36.15 4.45 Q36.15 3.95 38.95 3.0 L42.8 1.4 44.1 0.35 43.9 0.1 Q43.9 -0.15 44.35 -0.2 L45.1 -0.25 Q46.25 -0.2 46.25 0.4 46.25 1.0 45.55 1.7 L44.95 2.2 44.7 2.4 Q43.15 3.55 43.15 4.45 L43.4 5.4 Q43.4 6.4 42.65 6.6 L42.2 6.65 Q41.65 6.65 40.85 5.55 L39.9 4.05 38.7 4.05 37.45 4.65 36.75 4.7 36.5 4.7 36.2 4.65 36.15 4.55 36.15 4.45"/>
    </path>
  </g>
</svg>
