<?xml version="1.0" encoding="UTF-8" standalone="no"?>
<svg xmlns:xlink="http://www.w3.org/1999/xlink" height="21.7px" width="48.9px" xmlns="http://www.w3.org/2000/svg">
  <g transform="matrix(1.0, 0.0, 0.0, 1.0, 1.25, 1.8)">
    <path d="M34.35 4.75 L34.4 5.0 Q34.6 5.3 34.8 5.6 35.55 6.1 35.95 6.05 36.3 5.8 36.6 5.55 36.7 5.5 36.75 5.5 37.5 5.4 38.2 5.35 L40.15 5.5 40.65 6.0 Q41.6 6.85 42.55 7.7 43.45 7.7 43.15 6.35 42.9 5.9 42.8 5.3 L42.8 5.15 43.05 4.55 Q43.55 3.5 44.1 3.05 L45.95 1.3 47.25 -0.15 47.1 -0.4 47.45 -0.95 47.65 -1.25 Q47.65 -2.25 46.35 -1.45 45.95 -1.15 45.55 -0.9 L45.1 -0.4 44.9 -0.4 Q43.45 -0.5 43.75 0.05 43.2 0.15 43.85 0.35 L43.65 0.45 43.45 0.6 42.65 1.5 42.45 1.6 41.55 2.05 Q41.2 2.2 40.85 2.3 39.9 2.2 37.65 3.4 L34.35 4.75 M-1.25 -1.0 L-1.25 -1.0 -1.2 -0.9 -0.75 -0.2 -0.65 -0.1 -0.2 0.5 -0.1 0.7 0.65 1.75 0.9 2.25 0.95 2.5 0.95 2.6 0.95 2.85 0.95 3.7 0.95 4.2 Q1.0 5.1 1.5 5.4 L2.1 5.5 Q2.25 5.3 2.4 5.1 L2.5 4.75 Q2.75 4.15 2.95 3.55 3.1 3.15 3.25 2.8 3.5 3.3 3.75 3.8 L4.1 4.7 Q4.2 5.05 4.25 5.4 L4.1 6.25 Q3.95 6.8 3.85 7.35 L3.85 7.45 Q3.55 8.15 4.0 9.15 L4.5 10.0 4.5 10.8 4.5 11.75 Q4.65 12.7 5.75 12.7 L6.45 12.4 6.45 12.4 Q6.45 11.4 6.45 10.4 L6.45 8.8 6.45 8.5 6.3 7.6 6.75 7.1 6.95 6.9 8.25 6.65 9.15 6.6 9.45 6.35 9.15 6.25 9.25 6.05 9.35 5.95 9.5 5.95 10.1 5.8 10.25 5.65 10.3 5.5 10.3 5.25 Q10.3 4.75 9.45 4.2 L9.05 4.05 8.8 4.05 8.65 4.2 8.65 4.2 8.55 4.2 8.0 3.9 7.55 3.7 6.85 3.55 6.6 3.25 6.35 2.85 6.15 2.65 5.25 2.2 Q5.15 2.05 5.05 2.25 4.9 2.2 5.0 2.4 L5.0 2.45 4.65 2.1 Q4.3 1.8 3.95 1.5 L3.8 1.25 Q3.7 1.05 3.65 0.9 L3.5 0.75 3.5 0.6 3.25 0.25 3.05 0.05 2.75 -0.1 2.5 -0.25 2.05 -0.45 1.8 -0.55 1.1 -0.8 0.45 -0.9 -0.75 -1.5 Q-1.25 -1.55 -1.25 -1.0" fill="#ffffff" fill-opacity="0.6" fill-rule="evenodd" stroke="none">
      <animate attributeName="fill" dur="2s" repeatCount="indefinite" values="#ffffff;#ffffff"/>
      <animate attributeName="fill-opacity" dur="2s" repeatCount="indefinite" values="0.6;0.6"/>
      <animate attributeName="d" dur="2s" repeatCount="indefinite" values="M34.35 4.75 L34.4 5.0 Q34.6 5.3 34.8 5.6 35.55 6.1 35.95 6.05 36.3 5.8 36.6 5.55 36.7 5.5 36.75 5.5 37.5 5.4 38.2 5.35 L40.15 5.5 40.65 6.0 Q41.6 6.85 42.55 7.7 43.45 7.7 43.15 6.35 42.9 5.9 42.8 5.3 L42.8 5.15 43.05 4.55 Q43.55 3.5 44.1 3.05 L45.95 1.3 47.25 -0.15 47.1 -0.4 47.45 -0.95 47.65 -1.25 Q47.65 -2.25 46.35 -1.45 45.95 -1.15 45.55 -0.9 L45.1 -0.4 44.9 -0.4 Q43.45 -0.5 43.75 0.05 43.2 0.15 43.85 0.35 L43.65 0.45 43.45 0.6 42.65 1.5 42.45 1.6 41.55 2.05 Q41.2 2.2 40.85 2.3 39.9 2.2 37.65 3.4 L34.35 4.75 M-1.25 -1.0 L-1.25 -1.0 -1.2 -0.9 -0.75 -0.2 -0.65 -0.1 -0.2 0.5 -0.1 0.7 0.65 1.75 0.9 2.25 0.95 2.5 0.95 2.6 0.95 2.85 0.95 3.7 0.95 4.2 Q1.0 5.1 1.5 5.4 L2.1 5.5 Q2.25 5.3 2.4 5.1 L2.5 4.75 Q2.75 4.15 2.95 3.55 3.1 3.15 3.25 2.8 3.5 3.3 3.75 3.8 L4.1 4.7 Q4.2 5.05 4.25 5.4 L4.1 6.25 Q3.95 6.8 3.85 7.35 L3.85 7.45 Q3.55 8.15 4.0 9.15 L4.5 10.0 4.5 10.8 4.5 11.75 Q4.65 12.7 5.75 12.7 L6.45 12.4 6.45 12.4 Q6.45 11.4 6.45 10.4 L6.45 8.8 6.45 8.5 6.3 7.6 6.75 7.1 6.95 6.9 8.25 6.65 9.15 6.6 9.45 6.35 9.15 6.25 9.25 6.05 9.35 5.95 9.5 5.95 10.1 5.8 10.25 5.65 10.3 5.5 10.3 5.25 Q10.3 4.75 9.45 4.2 L9.05 4.05 8.8 4.05 8.65 4.2 8.65 4.2 8.55 4.2 8.0 3.9 7.55 3.7 6.85 3.55 6.6 3.25 6.35 2.85 6.15 2.65 5.25 2.2 Q5.15 2.05 5.05 2.25 4.9 2.2 5.0 2.4 L5.0 2.45 4.65 2.1 Q4.3 1.8 3.95 1.5 L3.8 1.25 Q3.7 1.05 3.65 0.9 L3.5 0.75 3.5 0.6 3.25 0.25 3.05 0.05 2.75 -0.1 2.5 -0.25 2.05 -0.45 1.8 -0.55 1.1 -0.8 0.45 -0.9 -0.75 -1.5 Q-1.25 -1.55 -1.25 -1.0;M33.0 4.4 L32.55 4.7 Q31.9 5.25 32.9 5.55 33.85 5.7 34.8 5.85 34.15 5.95 35.75 6.1 35.9 5.95 36.1 5.9 36.95 5.6 37.9 6.75 L39.9 8.8 40.85 9.5 Q42.0 10.35 42.75 13.4 43.05 14.9 43.3 16.35 43.4 17.15 43.5 17.9 L43.55 18.2 43.85 19.65 Q44.35 20.65 45.1 17.25 L45.85 13.0 46.25 10.3 46.35 9.6 46.45 8.5 46.15 8.0 Q45.25 6.4 45.05 5.0 44.9 4.0 45.15 3.15 L45.45 2.45 45.6 2.05 Q46.15 1.05 46.7 0.05 47.1 -0.45 47.45 -0.95 L47.65 -1.25 47.35 -1.75 45.6 -0.75 45.15 -0.55 43.5 0.2 Q44.15 0.6 43.55 1.2 42.9 1.8 38.4 3.25 L33.0 4.4 M-1.25 -1.0 L-1.15 -0.75 -1.05 -0.65 -0.4 0.25 -0.5 0.45 -0.05 1.4 0.05 1.6 0.8 3.15 0.95 3.95 0.95 4.05 0.95 4.2 1.05 4.65 1.1 5.85 1.0 6.45 Q0.95 7.35 0.9 8.25 L1.2 9.05 Q1.5 9.4 2.0 9.4 L2.3 9.35 Q2.25 8.5 2.45 7.7 2.6 7.05 2.9 6.65 3.35 6.1 4.1 6.1 L3.85 7.45 Q3.7 7.85 3.8 8.4 L4.15 9.35 Q3.8 10.0 3.7 10.95 L3.7 11.2 Q3.65 12.45 3.65 13.65 L3.7 14.95 3.7 15.75 3.7 16.85 Q3.85 18.45 4.2 19.15 L4.8 19.7 5.0 19.7 Q6.55 18.5 6.85 17.75 L7.0 15.7 7.0 15.25 6.95 13.8 6.9 13.0 6.9 12.7 6.45 11.05 6.45 9.85 6.45 9.3 6.45 8.9 6.45 8.5 6.45 8.4 6.35 8.2 6.3 7.6 6.6 7.25 6.95 6.9 7.4 6.8 Q8.3 6.7 9.15 6.6 L9.45 6.35 9.15 6.25 9.25 6.05 9.35 5.95 9.5 5.95 10.25 5.65 10.3 5.25 9.85 4.5 9.45 4.2 8.8 4.05 8.65 4.2 7.85 3.85 Q7.55 3.75 7.25 3.65 7.05 3.6 6.85 3.55 L6.75 3.45 6.35 2.85 Q5.75 2.3 5.25 2.2 L5.05 2.25 Q4.85 2.2 5.0 2.45 L4.9 2.35 4.7 2.2 3.95 1.5 3.8 1.25 3.65 0.9 3.5 0.6 3.35 0.3 2.85 -0.1 1.8 -0.55 1.0 -0.8 -0.55 -1.45 Q-1.25 -1.65 -1.25 -1.0"/>
    </path>
    <path d="M-1.25 -1.0 Q-1.25 -1.55 -0.75 -1.5 L0.45 -0.9 1.1 -0.8 1.8 -0.55 2.05 -0.45 2.5 -0.25 2.75 -0.1 3.05 0.05 3.25 0.25 3.5 0.6 3.5 0.75 3.65 0.9 Q3.7 1.05 3.8 1.25 L3.95 1.5 Q4.3 1.8 4.65 2.1 L5.0 2.45 5.0 2.4 Q4.9 2.2 5.05 2.25 5.15 2.05 5.25 2.2 L6.15 2.65 6.35 2.85 6.6 3.25 6.85 3.55 7.55 3.7 8.0 3.9 8.55 4.2 8.65 4.2 8.65 4.2 8.8 4.05 9.05 4.05 9.45 4.2 Q10.3 4.75 10.3 5.25 L10.3 5.5 10.25 5.65 10.1 5.8 9.5 5.95 9.35 5.95 9.25 6.05 9.15 6.25 9.45 6.35 9.15 6.6 8.25 6.65 6.95 6.9 6.75 7.1 6.3 7.6 6.45 8.5 6.45 8.8 6.45 10.4 Q6.45 11.4 6.45 12.4 L6.45 12.4 5.75 12.7 Q4.65 12.7 4.5 11.75 L4.5 10.8 4.5 10.0 4.0 9.15 Q3.55 8.15 3.85 7.45 L3.85 7.35 Q3.95 6.8 4.1 6.25 L4.25 5.4 Q4.2 5.05 4.1 4.7 L3.75 3.8 Q3.5 3.3 3.25 2.8 3.1 3.15 2.95 3.55 2.75 4.15 2.5 4.75 L2.4 5.1 Q2.25 5.3 2.1 5.5 L1.5 5.4 Q1.0 5.1 0.95 4.2 L0.95 3.7 0.95 2.85 0.95 2.6 0.95 2.5 0.9 2.25 0.65 1.75 -0.1 0.7 -0.2 0.5 -0.65 -0.1 -0.75 -0.2 -1.2 -0.9 -1.25 -1.0 -1.25 -1.0 M34.35 4.75 L37.65 3.4 Q39.9 2.2 40.85 2.3 41.2 2.2 41.55 2.05 L42.45 1.6 42.65 1.5 43.45 0.6 43.65 0.45 43.85 0.35 Q43.2 0.15 43.75 0.05 43.45 -0.5 44.9 -0.4 L45.1 -0.4 45.55 -0.9 Q45.95 -1.15 46.35 -1.45 47.65 -2.25 47.65 -1.25 L47.45 -0.95 47.1 -0.4 47.25 -0.15 45.95 1.3 44.1 3.05 Q43.55 3.5 43.05 4.55 L42.8 5.15 42.8 5.3 Q42.9 5.9 43.15 6.35 43.45 7.7 42.55 7.7 41.6 6.85 40.65 6.0 L40.15 5.5 38.2 5.35 Q37.5 5.4 36.75 5.5 36.7 5.5 36.6 5.55 36.3 5.8 35.95 6.05 35.55 6.1 34.8 5.6 34.6 5.3 34.4 5.0 L34.35 4.75" fill="none" stroke="#000000" stroke-linecap="round" stroke-linejoin="round" stroke-opacity="0.0" stroke-width="1.0">
      <animate attributeName="stroke" dur="2s" repeatCount="indefinite" values="#000000;#000001"/>
      <animate attributeName="stroke-width" dur="2s" repeatCount="indefinite" values="0.0;0.0"/>
      <animate attributeName="fill-opacity" dur="2s" repeatCount="indefinite" values="0.0;0.0"/>
      <animate attributeName="d" dur="2s" repeatCount="indefinite" values="M-1.25 -1.0 Q-1.25 -1.55 -0.75 -1.5 L0.45 -0.9 1.1 -0.8 1.8 -0.55 2.05 -0.45 2.5 -0.25 2.75 -0.1 3.05 0.05 3.25 0.25 3.5 0.6 3.5 0.75 3.65 0.9 Q3.7 1.05 3.8 1.25 L3.95 1.5 Q4.3 1.8 4.65 2.1 L5.0 2.45 5.0 2.4 Q4.9 2.2 5.05 2.25 5.15 2.05 5.25 2.2 L6.15 2.65 6.35 2.85 6.6 3.25 6.85 3.55 7.55 3.7 8.0 3.9 8.55 4.2 8.65 4.2 8.65 4.2 8.8 4.05 9.05 4.05 9.45 4.2 Q10.3 4.75 10.3 5.25 L10.3 5.5 10.25 5.65 10.1 5.8 9.5 5.95 9.35 5.95 9.25 6.05 9.15 6.25 9.45 6.35 9.15 6.6 8.25 6.65 6.95 6.9 6.75 7.1 6.3 7.6 6.45 8.5 6.45 8.8 6.45 10.4 Q6.45 11.4 6.45 12.4 L6.45 12.4 5.75 12.7 Q4.65 12.7 4.5 11.75 L4.5 10.8 4.5 10.0 4.0 9.15 Q3.55 8.15 3.85 7.45 L3.85 7.35 Q3.95 6.8 4.1 6.25 L4.25 5.4 Q4.2 5.05 4.1 4.7 L3.75 3.8 Q3.5 3.3 3.25 2.8 3.1 3.15 2.95 3.55 2.75 4.15 2.5 4.75 L2.4 5.1 Q2.25 5.3 2.1 5.5 L1.5 5.4 Q1.0 5.1 0.95 4.2 L0.95 3.7 0.95 2.85 0.95 2.6 0.95 2.5 0.9 2.25 0.65 1.75 -0.1 0.7 -0.2 0.5 -0.65 -0.1 -0.75 -0.2 -1.2 -0.9 -1.25 -1.0 -1.25 -1.0 M34.35 4.75 L37.65 3.4 Q39.9 2.2 40.85 2.3 41.2 2.2 41.55 2.05 L42.45 1.6 42.65 1.5 43.45 0.6 43.65 0.45 43.85 0.35 Q43.2 0.15 43.75 0.05 43.45 -0.5 44.9 -0.4 L45.1 -0.4 45.55 -0.9 Q45.95 -1.15 46.35 -1.45 47.65 -2.25 47.65 -1.25 L47.45 -0.95 47.1 -0.4 47.25 -0.15 45.95 1.3 44.1 3.05 Q43.55 3.5 43.05 4.55 L42.8 5.15 42.8 5.3 Q42.9 5.9 43.15 6.35 43.45 7.7 42.55 7.7 41.6 6.85 40.65 6.0 L40.15 5.5 38.2 5.35 Q37.5 5.4 36.75 5.5 36.7 5.5 36.6 5.55 36.3 5.8 35.95 6.05 35.55 6.1 34.8 5.6 34.6 5.3 34.4 5.0 L34.35 4.75;M-1.25 -1.0 Q-1.25 -1.65 -0.55 -1.45 L1.0 -0.8 1.8 -0.55 2.85 -0.1 3.35 0.3 3.5 0.6 3.65 0.9 3.8 1.25 3.95 1.5 4.7 2.2 4.9 2.35 5.0 2.45 Q4.85 2.2 5.05 2.25 L5.25 2.2 Q5.75 2.3 6.35 2.85 L6.75 3.45 6.85 3.55 Q7.05 3.6 7.25 3.65 7.55 3.75 7.85 3.85 L8.65 4.2 8.8 4.05 9.45 4.2 9.85 4.5 10.3 5.25 10.25 5.65 9.5 5.95 9.35 5.95 9.25 6.05 9.15 6.25 9.45 6.35 9.15 6.6 Q8.3 6.7 7.4 6.8 L6.95 6.9 6.6 7.25 6.3 7.6 6.35 8.2 6.45 8.4 6.45 8.5 6.45 8.9 6.45 9.3 6.45 9.85 6.45 11.05 6.9 12.7 6.9 13.0 6.95 13.8 7.0 15.25 7.0 15.7 6.85 17.75 Q6.55 18.5 5.0 19.7 L4.8 19.7 4.2 19.15 Q3.85 18.45 3.7 16.85 L3.7 15.75 3.7 14.95 3.65 13.65 Q3.65 12.45 3.7 11.2 L3.7 10.95 Q3.8 10.0 4.15 9.35 L3.8 8.4 Q3.7 7.85 3.85 7.45 L4.1 6.1 Q3.35 6.1 2.9 6.65 2.6 7.05 2.45 7.7 2.25 8.5 2.3 9.35 L2.0 9.4 Q1.5 9.4 1.2 9.05 L0.9 8.25 Q0.95 7.35 1.0 6.45 L1.1 5.85 1.05 4.65 0.95 4.2 0.95 4.05 0.95 3.95 0.8 3.15 0.05 1.6 -0.05 1.4 -0.5 0.45 -0.4 0.25 -1.05 -0.65 -1.15 -0.75 -1.25 -1.0 M33.0 4.4 L38.4 3.25 Q42.9 1.8 43.55 1.2 44.15 0.6 43.5 0.2 L45.15 -0.55 45.6 -0.75 47.35 -1.75 47.65 -1.25 47.45 -0.95 Q47.1 -0.45 46.7 0.05 46.15 1.05 45.6 2.05 L45.45 2.45 45.15 3.15 Q44.9 4.0 45.05 5.0 45.25 6.4 46.15 8.0 L46.45 8.5 46.35 9.6 46.25 10.3 45.85 13.0 45.1 17.25 Q44.35 20.65 43.85 19.65 L43.55 18.2 43.5 17.9 Q43.4 17.15 43.3 16.35 43.05 14.9 42.75 13.4 42.0 10.35 40.85 9.5 L39.9 8.8 37.9 6.75 Q36.95 5.6 36.1 5.9 35.9 5.95 35.75 6.1 34.15 5.95 34.8 5.85 33.85 5.7 32.9 5.55 31.9 5.25 32.55 4.7 L33.0 4.4"/>
    </path>
  </g>
</svg>
