<?xml version="1.0" encoding="UTF-8" standalone="no"?>
<svg xmlns:xlink="http://www.w3.org/1999/xlink" height="41.95px" width="51.85px" xmlns="http://www.w3.org/2000/svg">
  <g transform="matrix(1.0, 0.0, 0.0, 1.0, 60.0, 12.9)">
    <path d="M-59.75 13.2 Q-61.45 24.8 -50.5 26.5 L-46.4 27.6 -41.4 28.9 Q-39.9 29.25 -38.45 28.9 L-36.95 28.55 Q-23.0 28.55 -16.25 23.8 -11.3 20.3 -11.3 15.35 -11.3 13.2 -12.8 11.15 -14.3 9.1 -14.3 7.9 -14.1 7.0 -13.9 6.1 -13.7 5.2 -13.5 4.3 -13.5 1.85 -12.5 -2.1 -11.8 -5.4 -16.2 -9.65 -20.6 -13.95 -22.45 -12.6 -24.35 -11.3 -31.55 -8.7 L-41.2 -8.7 -45.55 -7.85 Q-48.15 -7.05 -53.1 -2.7 -58.1 1.6 -59.75 13.2" fill="#ffffff" fill-opacity="0.4" fill-rule="evenodd" stroke="none">
      <animate attributeName="fill" dur="2s" repeatCount="indefinite" values="#ffffff;#ffffff"/>
      <animate attributeName="fill-opacity" dur="2s" repeatCount="indefinite" values="0.4;0.4"/>
      <animate attributeName="d" dur="2s" repeatCount="indefinite" values="M-59.75 13.2 Q-61.45 24.8 -50.5 26.5 L-46.4 27.6 -41.4 28.9 Q-39.9 29.25 -38.45 28.9 L-36.95 28.55 Q-23.0 28.55 -16.25 23.8 -11.3 20.3 -11.3 15.35 -11.3 13.2 -12.8 11.15 -14.3 9.1 -14.3 7.9 -14.1 7.0 -13.9 6.1 -13.7 5.2 -13.5 4.3 -13.5 1.85 -12.5 -2.1 -11.8 -5.4 -16.2 -9.65 -20.6 -13.95 -22.45 -12.6 -24.35 -11.3 -31.55 -8.7 L-41.2 -8.7 -45.55 -7.85 Q-48.15 -7.05 -53.1 -2.7 -58.1 1.6 -59.75 13.2;M-59.75 13.2 Q-61.45 24.8 -50.5 26.5 L-46.4 27.6 -41.4 28.9 Q-39.9 29.25 -38.45 28.9 L-36.95 28.55 Q-23.0 28.55 -16.25 23.8 -11.3 20.3 -11.3 15.35 -11.3 13.2 -9.55 12.15 -7.85 11.05 -8.45 9.8 -9.05 8.55 -8.45 6.0 -7.8 3.45 -8.6 2.05 -9.9 -0.8 -11.2 -3.6 -11.8 -5.4 -16.2 -9.65 -20.6 -13.95 -22.45 -12.6 -24.35 -11.3 -31.55 -8.7 L-41.2 -8.7 -45.55 -7.85 Q-48.15 -7.05 -53.1 -2.7 -58.1 1.6 -59.75 13.2"/>
    </path>
    <path d="M-59.75 13.2 Q-58.1 1.6 -53.1 -2.7 -48.15 -7.05 -45.55 -7.85 L-41.2 -8.7 -31.55 -8.7 Q-24.35 -11.3 -22.45 -12.6 -20.6 -13.95 -16.2 -9.65 -11.8 -5.4 -12.5 -2.1 -13.5 1.85 -13.5 4.3 -13.7 5.2 -13.9 6.1 -14.1 7.0 -14.3 7.9 -14.3 9.1 -12.8 11.15 -11.3 13.2 -11.3 15.35 -11.3 20.3 -16.25 23.8 -23.0 28.55 -36.95 28.55 L-38.45 28.9 Q-39.9 29.25 -41.4 28.9 L-46.4 27.6 -50.5 26.5 Q-61.45 24.8 -59.75 13.2" fill="none" stroke="#000000" stroke-linecap="round" stroke-linejoin="round" stroke-opacity="0.0" stroke-width="1.0">
      <animate attributeName="stroke" dur="2s" repeatCount="indefinite" values="#000000;#000001"/>
      <animate attributeName="stroke-width" dur="2s" repeatCount="indefinite" values="0.0;0.0"/>
      <animate attributeName="fill-opacity" dur="2s" repeatCount="indefinite" values="0.0;0.0"/>
      <animate attributeName="d" dur="2s" repeatCount="indefinite" values="M-59.75 13.2 Q-58.1 1.6 -53.1 -2.7 -48.15 -7.05 -45.55 -7.85 L-41.2 -8.7 -31.55 -8.7 Q-24.35 -11.3 -22.45 -12.6 -20.6 -13.95 -16.2 -9.65 -11.8 -5.4 -12.5 -2.1 -13.5 1.85 -13.5 4.3 -13.7 5.2 -13.9 6.1 -14.1 7.0 -14.3 7.9 -14.3 9.1 -12.8 11.15 -11.3 13.2 -11.3 15.35 -11.3 20.3 -16.25 23.8 -23.0 28.55 -36.95 28.55 L-38.45 28.9 Q-39.9 29.25 -41.4 28.9 L-46.4 27.6 -50.5 26.5 Q-61.45 24.8 -59.75 13.2;M-59.75 13.2 Q-58.1 1.6 -53.1 -2.7 -48.15 -7.05 -45.55 -7.85 L-41.2 -8.7 -31.55 -8.7 Q-24.35 -11.3 -22.45 -12.6 -20.6 -13.95 -16.2 -9.65 -11.8 -5.4 -11.2 -3.6 -9.9 -0.8 -8.6 2.05 -7.8 3.45 -8.45 6.0 -9.05 8.55 -8.45 9.8 -7.85 11.05 -9.55 12.15 -11.3 13.2 -11.3 15.35 -11.3 20.3 -16.25 23.8 -23.0 28.55 -36.95 28.55 L-38.45 28.9 Q-39.9 29.25 -41.4 28.9 L-46.4 27.6 -50.5 26.5 Q-61.45 24.8 -59.75 13.2"/>
    </path>
  </g>
</svg>
