<?xml version="1.0" encoding="UTF-8" standalone="no"?>
<svg xmlns:xlink="http://www.w3.org/1999/xlink" height="42.05px" width="56.15px" xmlns="http://www.w3.org/2000/svg">
  <g transform="matrix(1.0, 0.0, 0.0, 1.0, 61.2, 12.95)">
    <path d="M-59.75 13.2 Q-61.4 24.6 -50.9 26.4 L-50.5 26.5 -47.15 27.4 -46.4 27.6 -42.65 28.6 -41.4 28.9 -39.9 29.1 -38.75 29.0 -38.45 28.9 -36.95 28.55 Q-25.85 28.55 -19.3 25.5 -17.65 24.75 -16.25 23.8 -14.25 22.35 -13.05 20.7 -11.55 18.65 -11.35 16.25 L-11.3 15.35 Q-11.3 13.2 -9.55 12.15 L-9.05 11.75 Q-7.95 10.85 -8.45 9.8 -9.0 8.65 -8.45 6.0 -8.0 4.3 -8.25 3.1 -8.35 2.5 -8.6 2.05 -9.35 0.6 -11.2 -2.1 -11.2 -2.85 -11.2 -3.6 -11.7 -5.1 -14.9 -8.4 L-16.2 -9.65 Q-18.75 -12.15 -22.45 -12.6 -23.95 -11.55 -28.85 -9.7 L-31.55 -8.7 -37.45 -8.7 Q-39.35 -8.7 -41.2 -8.7 -43.4 -8.25 -45.55 -7.85 -48.15 -7.05 -53.1 -2.7 -58.1 1.65 -59.75 13.2" fill="#ffffff" fill-opacity="0.4" fill-rule="evenodd" stroke="none">
      <animate attributeName="fill" dur="2s" repeatCount="indefinite" values="#ffffff;#ffffff"/>
      <animate attributeName="fill-opacity" dur="2s" repeatCount="indefinite" values="0.4;0.4"/>
      <animate attributeName="d" dur="2s" repeatCount="indefinite" values="M-59.75 13.2 Q-61.4 24.6 -50.9 26.4 L-50.5 26.5 -47.15 27.4 -46.4 27.6 -42.65 28.6 -41.4 28.9 -39.9 29.1 -38.75 29.0 -38.45 28.9 -36.95 28.55 Q-25.85 28.55 -19.3 25.5 -17.65 24.75 -16.25 23.8 -14.25 22.35 -13.05 20.7 -11.55 18.65 -11.35 16.25 L-11.3 15.35 Q-11.3 13.2 -9.55 12.15 L-9.05 11.75 Q-7.95 10.85 -8.45 9.8 -9.0 8.65 -8.45 6.0 -8.0 4.3 -8.25 3.1 -8.35 2.5 -8.6 2.05 -9.35 0.6 -11.2 -2.1 -11.2 -2.85 -11.2 -3.6 -11.7 -5.1 -14.9 -8.4 L-16.2 -9.65 Q-18.75 -12.15 -22.45 -12.6 -23.95 -11.55 -28.85 -9.7 L-31.55 -8.7 -37.45 -8.7 Q-39.35 -8.7 -41.2 -8.7 -43.4 -8.25 -45.55 -7.85 -48.15 -7.05 -53.1 -2.7 -58.1 1.65 -59.75 13.2;M-61.2 12.0 Q-61.45 24.8 -50.5 26.5 L-50.0 26.65 -46.4 27.6 -45.5 27.85 -41.4 28.9 -40.0 29.05 -38.45 28.9 -36.95 28.55 -36.45 28.55 -35.15 28.55 Q-22.55 28.25 -16.25 23.8 -14.4 22.5 -13.25 21.25 -11.3 19.1 -11.3 17.0 -11.3 13.65 -7.95 15.3 L-6.95 15.7 Q-4.95 16.05 -5.05 12.7 L-5.1 12.0 Q-5.3 10.7 -5.45 9.45 -5.85 6.6 -6.7 4.9 -7.5 3.2 -8.35 1.95 -8.65 1.5 -8.9 1.05 -9.85 -0.5 -11.2 -3.6 -11.15 -4.35 -11.4 -5.15 -12.15 -7.7 -15.7 -10.6 L-17.2 -11.75 Q-20.7 -14.15 -24.2 -11.75 -26.7 -10.45 -31.55 -8.7 L-34.75 -8.7 -41.2 -8.7 Q-42.3 -8.7 -45.1 -9.55 -46.75 -10.05 -49.65 -11.1 -55.35 -12.8 -58.05 -6.95 -60.95 -0.85 -61.2 12.0"/>
    </path>
    <path d="M-59.75 13.2 Q-58.1 1.65 -53.1 -2.7 -48.15 -7.05 -45.55 -7.85 -43.4 -8.25 -41.2 -8.7 -39.35 -8.7 -37.45 -8.7 L-31.55 -8.7 -28.85 -9.7 Q-23.95 -11.55 -22.45 -12.6 -18.75 -12.15 -16.2 -9.65 L-14.9 -8.4 Q-11.7 -5.1 -11.2 -3.6 -11.2 -2.85 -11.2 -2.1 -9.35 0.6 -8.6 2.05 -8.35 2.5 -8.25 3.1 -8.0 4.3 -8.45 6.0 -9.0 8.65 -8.45 9.8 -7.95 10.85 -9.05 11.75 L-9.55 12.15 Q-11.3 13.2 -11.3 15.35 L-11.35 16.25 Q-11.55 18.65 -13.05 20.7 -14.25 22.35 -16.25 23.8 -17.65 24.75 -19.3 25.5 -25.85 28.55 -36.95 28.55 L-38.45 28.9 -38.75 29.0 -39.9 29.1 -41.4 28.9 -42.65 28.6 -46.4 27.6 -47.15 27.4 -50.5 26.5 -50.9 26.4 Q-61.4 24.6 -59.75 13.2" fill="none" stroke="#000000" stroke-linecap="round" stroke-linejoin="round" stroke-opacity="0.0" stroke-width="1.0">
      <animate attributeName="stroke" dur="2s" repeatCount="indefinite" values="#000000;#000001"/>
      <animate attributeName="stroke-width" dur="2s" repeatCount="indefinite" values="0.0;0.0"/>
      <animate attributeName="fill-opacity" dur="2s" repeatCount="indefinite" values="0.0;0.0"/>
      <animate attributeName="d" dur="2s" repeatCount="indefinite" values="M-59.75 13.2 Q-58.1 1.65 -53.1 -2.7 -48.15 -7.05 -45.55 -7.85 -43.4 -8.25 -41.2 -8.7 -39.35 -8.7 -37.45 -8.7 L-31.55 -8.7 -28.85 -9.7 Q-23.95 -11.55 -22.45 -12.6 -18.75 -12.15 -16.2 -9.65 L-14.9 -8.4 Q-11.7 -5.1 -11.2 -3.6 -11.2 -2.85 -11.2 -2.1 -9.35 0.6 -8.6 2.05 -8.35 2.5 -8.25 3.1 -8.0 4.3 -8.45 6.0 -9.0 8.65 -8.45 9.8 -7.95 10.85 -9.05 11.75 L-9.55 12.15 Q-11.3 13.2 -11.3 15.35 L-11.35 16.25 Q-11.55 18.65 -13.05 20.7 -14.25 22.35 -16.25 23.8 -17.65 24.75 -19.3 25.5 -25.85 28.55 -36.95 28.55 L-38.45 28.9 -38.75 29.0 -39.9 29.1 -41.4 28.9 -42.65 28.6 -46.4 27.6 -47.15 27.4 -50.5 26.5 -50.9 26.4 Q-61.4 24.6 -59.75 13.2;M-61.2 12.0 Q-60.95 -0.85 -58.05 -6.95 -55.35 -12.8 -49.65 -11.1 -46.75 -10.05 -45.1 -9.55 -42.3 -8.7 -41.2 -8.7 L-34.75 -8.7 -31.55 -8.7 Q-26.7 -10.45 -24.2 -11.75 -20.7 -14.15 -17.2 -11.75 L-15.7 -10.6 Q-12.15 -7.7 -11.4 -5.15 -11.15 -4.35 -11.2 -3.6 -9.85 -0.5 -8.9 1.05 -8.65 1.5 -8.35 1.95 -7.5 3.2 -6.7 4.9 -5.85 6.6 -5.45 9.45 -5.3 10.7 -5.1 12.0 L-5.05 12.7 Q-4.95 16.05 -6.95 15.7 L-7.95 15.3 Q-11.3 13.65 -11.3 17.0 -11.3 19.1 -13.25 21.25 -14.4 22.5 -16.25 23.8 -22.55 28.25 -35.15 28.55 L-36.45 28.55 -36.95 28.55 -38.45 28.9 -40.0 29.05 -41.4 28.9 -45.5 27.85 -46.4 27.6 -50.0 26.65 -50.5 26.5 Q-61.45 24.8 -61.2 12.0"/>
    </path>
  </g>
</svg>
