<?xml version="1.0" encoding="UTF-8" standalone="no"?>
<svg xmlns:xlink="http://www.w3.org/1999/xlink" height="39.15px" width="47.2px" xmlns="http://www.w3.org/2000/svg">
  <g transform="matrix(1.0, 0.0, 0.0, 1.0, 57.6, 12.35)">
    <path d="M-57.45 11.05 Q-58.05 13.25 -56.1 14.7 L-52.6 17.8 -50.85 21.45 Q-49.2 24.7 -48.45 25.3 -47.2 26.0 -44.7 26.6 L-37.85 26.6 Q-34.95 26.05 -32.55 26.65 -30.15 27.25 -23.9 25.3 -17.65 23.35 -14.1 12.0 -10.55 0.6 -12.75 -3.3 -15.0 -7.2 -17.8 -10.8 -20.6 -14.45 -24.55 -9.5 -28.5 -4.55 -31.2 -4.65 -43.4 -7.95 -47.9 -5.25 -52.4 -2.6 -54.35 0.2 -56.35 3.0 -55.95 5.05 -55.55 7.05 -56.65 9.6 L-57.45 11.05" fill="#ffffff" fill-opacity="0.69803923" fill-rule="evenodd" stroke="none">
      <animate attributeName="fill" dur="2s" repeatCount="indefinite" values="#ffffff;#ffffff"/>
      <animate attributeName="fill-opacity" dur="2s" repeatCount="indefinite" values="0.69803923;0.69803923"/>
      <animate attributeName="d" dur="2s" repeatCount="indefinite" values="M-57.45 11.05 Q-58.05 13.25 -56.1 14.7 L-52.6 17.8 -50.85 21.45 Q-49.2 24.7 -48.45 25.3 -47.2 26.0 -44.7 26.6 L-37.85 26.6 Q-34.95 26.05 -32.55 26.65 -30.15 27.25 -23.9 25.3 -17.65 23.35 -14.1 12.0 -10.55 0.6 -12.75 -3.3 -15.0 -7.2 -17.8 -10.8 -20.6 -14.45 -24.55 -9.5 -28.5 -4.55 -31.2 -4.65 -43.4 -7.95 -47.9 -5.25 -52.4 -2.6 -54.35 0.2 -56.35 3.0 -55.95 5.05 -55.55 7.05 -56.65 9.6 L-57.45 11.05;M-57.45 11.05 Q-58.05 13.25 -56.1 14.7 L-52.6 17.8 -50.85 21.45 Q-49.2 24.7 -48.45 25.3 -47.2 26.0 -44.7 26.6 L-37.85 26.6 Q-34.95 26.05 -32.55 26.65 -30.15 27.25 -23.85 25.35 -17.55 23.35 -13.05 12.2 -8.55 1.0 -11.75 -3.1 -14.8 -6.95 -17.8 -10.8 -20.6 -14.45 -24.55 -9.5 -28.5 -4.55 -31.2 -4.65 -40.6 -7.2 -50.0 -9.75 -56.6 -11.55 -56.65 -4.75 -56.75 2.05 -56.15 4.55 -55.55 7.05 -56.65 9.6 L-57.45 11.05"/>
    </path>
    <path d="M-57.45 11.05 L-56.65 9.6 Q-55.55 7.05 -55.95 5.05 -56.35 3.0 -54.35 0.2 -52.4 -2.6 -47.9 -5.25 -43.4 -7.95 -31.2 -4.65 -28.5 -4.55 -24.55 -9.5 -20.6 -14.45 -17.8 -10.8 -15.0 -7.2 -12.75 -3.3 -10.55 0.6 -14.1 12.0 -17.65 23.35 -23.9 25.3 -30.15 27.25 -32.55 26.65 -34.95 26.05 -37.85 26.6 L-44.7 26.6 Q-47.2 26.0 -48.45 25.3 -49.2 24.7 -50.85 21.45 L-52.6 17.8 -56.1 14.7 Q-58.05 13.25 -57.45 11.05" fill="none" stroke="#000000" stroke-linecap="round" stroke-linejoin="round" stroke-opacity="0.0" stroke-width="1.0">
      <animate attributeName="stroke" dur="2s" repeatCount="indefinite" values="#000000;#000001"/>
      <animate attributeName="stroke-width" dur="2s" repeatCount="indefinite" values="0.0;0.0"/>
      <animate attributeName="fill-opacity" dur="2s" repeatCount="indefinite" values="0.0;0.0"/>
      <animate attributeName="d" dur="2s" repeatCount="indefinite" values="M-57.45 11.05 L-56.65 9.6 Q-55.55 7.05 -55.95 5.05 -56.35 3.0 -54.35 0.2 -52.4 -2.6 -47.9 -5.25 -43.4 -7.95 -31.2 -4.65 -28.5 -4.55 -24.55 -9.5 -20.6 -14.45 -17.8 -10.8 -15.0 -7.2 -12.75 -3.3 -10.55 0.6 -14.1 12.0 -17.65 23.35 -23.9 25.3 -30.15 27.25 -32.55 26.65 -34.95 26.05 -37.85 26.6 L-44.7 26.6 Q-47.2 26.0 -48.45 25.3 -49.2 24.7 -50.85 21.45 L-52.6 17.8 -56.1 14.7 Q-58.05 13.25 -57.45 11.05;M-57.45 11.05 L-56.65 9.6 Q-55.55 7.05 -56.15 4.55 -56.75 2.05 -56.65 -4.75 -56.6 -11.55 -50.0 -9.75 -40.6 -7.2 -31.2 -4.65 -28.5 -4.55 -24.55 -9.5 -20.6 -14.45 -17.8 -10.8 -14.8 -6.95 -11.75 -3.1 -8.55 1.0 -13.05 12.2 -17.55 23.35 -23.85 25.35 -30.15 27.25 -32.55 26.65 -34.95 26.05 -37.85 26.6 L-44.7 26.6 Q-47.2 26.0 -48.45 25.3 -49.2 24.7 -50.85 21.45 L-52.6 17.8 -56.1 14.7 Q-58.05 13.25 -57.45 11.05"/>
    </path>
  </g>
</svg>
