<?xml version="1.0" encoding="UTF-8" standalone="no"?>
<svg xmlns:xlink="http://www.w3.org/1999/xlink" height="42.3px" width="59.0px" xmlns="http://www.w3.org/2000/svg">
  <g transform="matrix(1.0, 0.0, 0.0, 1.0, 64.0, 13.3)">
    <path d="M-61.2 12.0 Q-61.45 24.8 -50.5 26.5 -48.45 27.05 -46.4 27.6 L-41.4 28.9 -36.95 28.55 Q-23.0 28.55 -16.25 23.8 -11.3 20.3 -11.3 17.0 -11.3 13.65 -7.95 15.3 -4.65 16.9 -5.1 12.0 -5.6 7.15 -6.5 5.2 -7.4 3.3 -8.35 1.95 -9.35 0.6 -11.2 -3.6 -11.05 -6.8 -15.7 -10.6 -20.35 -14.45 -22.35 -12.85 -24.35 -11.3 -31.55 -8.7 L-41.2 -8.7 Q-42.95 -8.7 -49.05 -10.9 -55.2 -13.1 -58.05 -6.95 -60.95 -0.85 -61.2 12.0" fill="#ffffff" fill-opacity="0.4" fill-rule="evenodd" stroke="none">
      <animate attributeName="fill" dur="2s" repeatCount="indefinite" values="#ffffff;#ffffff"/>
      <animate attributeName="fill-opacity" dur="2s" repeatCount="indefinite" values="0.4;0.4"/>
      <animate attributeName="d" dur="2s" repeatCount="indefinite" values="M-61.2 12.0 Q-61.45 24.8 -50.5 26.5 -48.45 27.05 -46.4 27.6 L-41.4 28.9 -36.95 28.55 Q-23.0 28.55 -16.25 23.8 -11.3 20.3 -11.3 17.0 -11.3 13.65 -7.95 15.3 -4.65 16.9 -5.1 12.0 -5.6 7.15 -6.5 5.2 -7.4 3.3 -8.35 1.95 -9.35 0.6 -11.2 -3.6 -11.05 -6.8 -15.7 -10.6 -20.35 -14.45 -22.35 -12.85 -24.35 -11.3 -31.55 -8.7 L-41.2 -8.7 Q-42.95 -8.7 -49.05 -10.9 -55.2 -13.1 -58.05 -6.95 -60.95 -0.85 -61.2 12.0;M-63.5 12.0 Q-61.65 24.8 -55.8 25.7 -49.95 26.6 -46.4 27.6 L-41.4 28.9 -36.95 28.55 Q-23.0 28.55 -16.95 25.0 -10.95 21.4 -9.85 21.8 -8.75 22.15 -6.7 19.5 -4.65 16.9 -5.1 12.0 -5.6 7.15 -6.5 5.2 -7.4 3.3 -8.35 1.95 -9.35 0.6 -11.2 -3.6 -11.05 -6.8 -15.7 -10.6 -20.35 -14.45 -22.35 -12.85 -24.35 -11.3 -31.55 -8.7 L-41.2 -8.7 Q-42.95 -8.7 -49.45 -11.6 -56.0 -14.55 -60.65 -7.7 -65.35 -0.85 -63.5 12.0"/>
    </path>
    <path d="M-61.2 12.0 Q-60.95 -0.85 -58.05 -6.95 -55.2 -13.1 -49.05 -10.9 -42.95 -8.7 -41.2 -8.7 L-31.55 -8.7 Q-24.35 -11.3 -22.35 -12.85 -20.35 -14.45 -15.7 -10.6 -11.05 -6.8 -11.2 -3.6 -9.35 0.6 -8.35 1.95 -7.4 3.3 -6.5 5.2 -5.6 7.15 -5.1 12.0 -4.65 16.9 -7.95 15.3 -11.3 13.65 -11.3 17.0 -11.3 20.3 -16.25 23.8 -23.0 28.55 -36.95 28.55 L-41.4 28.9 -46.4 27.6 Q-48.45 27.05 -50.5 26.5 -61.45 24.8 -61.2 12.0" fill="none" stroke="#000000" stroke-linecap="round" stroke-linejoin="round" stroke-opacity="0.0" stroke-width="1.0">
      <animate attributeName="stroke" dur="2s" repeatCount="indefinite" values="#000000;#000001"/>
      <animate attributeName="stroke-width" dur="2s" repeatCount="indefinite" values="0.0;0.0"/>
      <animate attributeName="fill-opacity" dur="2s" repeatCount="indefinite" values="0.0;0.0"/>
      <animate attributeName="d" dur="2s" repeatCount="indefinite" values="M-61.2 12.0 Q-60.95 -0.85 -58.05 -6.95 -55.2 -13.1 -49.05 -10.9 -42.95 -8.7 -41.2 -8.7 L-31.55 -8.7 Q-24.35 -11.3 -22.35 -12.85 -20.35 -14.45 -15.7 -10.6 -11.05 -6.8 -11.2 -3.6 -9.35 0.6 -8.35 1.95 -7.4 3.3 -6.5 5.2 -5.6 7.15 -5.1 12.0 -4.65 16.9 -7.95 15.3 -11.3 13.65 -11.3 17.0 -11.3 20.3 -16.25 23.8 -23.0 28.55 -36.95 28.55 L-41.4 28.9 -46.4 27.6 Q-48.45 27.05 -50.5 26.5 -61.45 24.8 -61.2 12.0;M-63.5 12.0 Q-65.35 -0.85 -60.65 -7.7 -56.0 -14.55 -49.45 -11.6 -42.95 -8.7 -41.2 -8.7 L-31.55 -8.7 Q-24.35 -11.3 -22.35 -12.85 -20.35 -14.45 -15.7 -10.6 -11.05 -6.8 -11.2 -3.6 -9.35 0.6 -8.35 1.95 -7.4 3.3 -6.5 5.2 -5.6 7.15 -5.1 12.0 -4.65 16.9 -6.7 19.5 -8.75 22.15 -9.85 21.8 -10.95 21.4 -16.95 25.0 -23.0 28.55 -36.95 28.55 L-41.4 28.9 -46.4 27.6 Q-49.95 26.6 -55.8 25.7 -61.65 24.8 -63.5 12.0"/>
    </path>
  </g>
</svg>
