<?xml version="1.0" encoding="UTF-8" standalone="no"?>
<svg xmlns:xlink="http://www.w3.org/1999/xlink" height="39.6px" width="49.45px" xmlns="http://www.w3.org/2000/svg">
  <g transform="matrix(1.0, 0.0, 0.0, 1.0, 58.75, 12.8)">
    <path d="M-55.55 -8.8 Q-56.4 -7.75 -56.6 -5.85 L-56.65 -4.75 Q-56.75 1.0 -56.35 3.65 L-56.15 4.55 Q-55.6 6.8 -55.8 7.9 L-55.85 8.15 -56.55 9.4 -56.65 9.6 -57.35 10.8 -57.45 11.05 Q-58.0 13.15 -56.3 14.5 L-56.1 14.7 -52.8 17.6 -52.6 17.8 -50.95 21.25 -50.85 21.45 Q-49.35 24.35 -48.45 25.3 L-44.9 26.5 -44.7 26.6 -38.15 26.6 -37.85 26.6 Q-35.15 26.1 -32.85 26.55 L-32.55 26.65 Q-30.15 27.25 -23.85 25.35 -17.65 23.4 -13.25 12.6 L-13.05 12.2 Q-8.55 1.0 -11.75 -3.1 L-12.25 -3.8 -17.8 -10.8 Q-18.6 -11.85 -19.55 -12.2 -21.75 -13.0 -24.55 -9.5 L-25.3 -8.55 Q-28.65 -4.55 -29.85 -4.6 L-31.5 -4.75 -50.0 -9.75 Q-53.95 -10.85 -55.55 -8.8" fill="#ffffff" fill-opacity="0.69803923" fill-rule="evenodd" stroke="none">
      <animate attributeName="fill" dur="2s" repeatCount="indefinite" values="#ffffff;#ffffff"/>
      <animate attributeName="fill-opacity" dur="2s" repeatCount="indefinite" values="0.69803923;0.69803923"/>
      <animate attributeName="d" dur="2s" repeatCount="indefinite" values="M-55.55 -8.8 Q-56.4 -7.75 -56.6 -5.85 L-56.65 -4.75 Q-56.75 1.0 -56.35 3.65 L-56.15 4.55 Q-55.6 6.8 -55.8 7.9 L-55.85 8.15 -56.55 9.4 -56.65 9.6 -57.35 10.8 -57.45 11.05 Q-58.0 13.15 -56.3 14.5 L-56.1 14.7 -52.8 17.6 -52.6 17.8 -50.95 21.25 -50.85 21.45 Q-49.35 24.35 -48.45 25.3 L-44.9 26.5 -44.7 26.6 -38.15 26.6 -37.85 26.6 Q-35.15 26.1 -32.85 26.55 L-32.55 26.65 Q-30.15 27.25 -23.85 25.35 -17.65 23.4 -13.25 12.6 L-13.05 12.2 Q-8.55 1.0 -11.75 -3.1 L-12.25 -3.8 -17.8 -10.8 Q-18.6 -11.85 -19.55 -12.2 -21.75 -13.0 -24.55 -9.5 L-25.3 -8.55 Q-28.65 -4.55 -29.85 -4.6 L-31.5 -4.75 -50.0 -9.75 Q-53.95 -10.85 -55.55 -8.8;M-58.0 -8.5 Q-58.7 -7.25 -58.75 -5.25 L-58.75 -4.05 Q-58.75 1.8 -57.2 4.3 L-56.75 5.1 Q-55.6 7.2 -55.85 8.15 L-55.95 8.4 -56.65 9.6 -56.75 9.8 -57.45 11.05 -57.55 11.35 Q-57.95 13.35 -56.1 14.7 L-55.9 14.9 -52.6 17.8 -52.45 18.1 -50.85 21.45 -50.75 21.65 Q-49.15 24.7 -48.2 25.4 L-44.7 26.6 -44.4 26.6 -37.85 26.6 -37.55 26.55 Q-34.8 26.1 -32.55 26.65 L-32.25 26.7 Q-29.8 27.15 -23.6 25.8 -17.1 24.3 -12.1 14.05 L-11.9 13.55 Q-7.5 4.25 -10.6 -1.75 L-11.05 -2.55 -16.05 -9.75 Q-16.95 -10.75 -17.8 -11.75 -20.3 -14.35 -23.75 -10.55 L-24.55 -9.6 Q-27.75 -5.5 -29.25 -4.75 L-31.2 -4.65 -52.0 -10.25 Q-56.55 -11.15 -58.0 -8.5"/>
    </path>
    <path d="M-55.55 -8.8 Q-53.95 -10.85 -50.0 -9.75 L-31.5 -4.75 -29.85 -4.6 Q-28.65 -4.55 -25.3 -8.55 L-24.55 -9.5 Q-21.75 -13.0 -19.55 -12.2 -18.6 -11.85 -17.8 -10.8 L-12.25 -3.8 -11.75 -3.1 Q-8.55 1.0 -13.05 12.2 L-13.25 12.6 Q-17.65 23.4 -23.85 25.35 -30.15 27.25 -32.55 26.65 L-32.85 26.55 Q-35.15 26.1 -37.85 26.6 L-38.15 26.6 -44.7 26.6 -44.9 26.5 -48.45 25.3 Q-49.35 24.35 -50.85 21.45 L-50.95 21.25 -52.6 17.8 -52.8 17.6 -56.1 14.7 -56.3 14.5 Q-58.0 13.15 -57.45 11.05 L-57.35 10.8 -56.65 9.6 -56.55 9.4 -55.85 8.15 -55.8 7.9 Q-55.6 6.8 -56.15 4.55 L-56.35 3.65 Q-56.75 1.0 -56.65 -4.75 L-56.6 -5.85 Q-56.4 -7.75 -55.55 -8.8" fill="none" stroke="#000000" stroke-linecap="round" stroke-linejoin="round" stroke-opacity="0.0" stroke-width="1.0">
      <animate attributeName="stroke" dur="2s" repeatCount="indefinite" values="#000000;#000001"/>
      <animate attributeName="stroke-width" dur="2s" repeatCount="indefinite" values="0.0;0.0"/>
      <animate attributeName="fill-opacity" dur="2s" repeatCount="indefinite" values="0.0;0.0"/>
      <animate attributeName="d" dur="2s" repeatCount="indefinite" values="M-55.55 -8.8 Q-53.95 -10.85 -50.0 -9.75 L-31.5 -4.75 -29.85 -4.6 Q-28.65 -4.55 -25.3 -8.55 L-24.55 -9.5 Q-21.75 -13.0 -19.55 -12.2 -18.6 -11.85 -17.8 -10.8 L-12.25 -3.8 -11.75 -3.1 Q-8.55 1.0 -13.05 12.2 L-13.25 12.6 Q-17.65 23.4 -23.85 25.35 -30.15 27.25 -32.55 26.65 L-32.85 26.55 Q-35.15 26.1 -37.85 26.6 L-38.15 26.6 -44.7 26.6 -44.9 26.5 -48.45 25.3 Q-49.35 24.35 -50.85 21.45 L-50.95 21.25 -52.6 17.8 -52.8 17.6 -56.1 14.7 -56.3 14.5 Q-58.0 13.15 -57.45 11.05 L-57.35 10.8 -56.65 9.6 -56.55 9.4 -55.85 8.15 -55.8 7.9 Q-55.6 6.8 -56.15 4.55 L-56.35 3.65 Q-56.75 1.0 -56.65 -4.75 L-56.6 -5.85 Q-56.4 -7.75 -55.55 -8.8;M-58.0 -8.5 Q-56.55 -11.15 -52.0 -10.25 L-31.2 -4.65 -29.25 -4.75 Q-27.75 -5.5 -24.55 -9.6 L-23.75 -10.55 Q-20.3 -14.35 -17.8 -11.75 -16.95 -10.75 -16.05 -9.75 L-11.05 -2.55 -10.6 -1.75 Q-7.5 4.25 -11.9 13.55 L-12.1 14.05 Q-17.1 24.3 -23.6 25.8 -29.8 27.15 -32.25 26.7 L-32.55 26.65 Q-34.8 26.1 -37.55 26.55 L-37.85 26.6 -44.4 26.6 -44.7 26.6 -48.2 25.4 Q-49.15 24.7 -50.75 21.65 L-50.85 21.45 -52.45 18.1 -52.6 17.8 -55.9 14.9 -56.1 14.7 Q-57.95 13.35 -57.55 11.35 L-57.45 11.05 -56.75 9.8 -56.65 9.6 -55.95 8.4 -55.85 8.15 Q-55.6 7.2 -56.75 5.1 L-57.2 4.3 Q-58.75 1.8 -58.75 -4.05 L-58.75 -5.25 Q-58.7 -7.25 -58.0 -8.5"/>
    </path>
  </g>
</svg>
