<?xml version="1.0" encoding="UTF-8" standalone="no"?>
<svg xmlns:xlink="http://www.w3.org/1999/xlink" height="40.15px" width="55.9px" xmlns="http://www.w3.org/2000/svg">
  <g transform="matrix(1.0, 0.0, 0.0, 1.0, 64.3, 13.3)">
    <path d="M-58.75 -5.25 Q-58.9 1.55 -57.2 4.3 -55.55 7.05 -55.85 8.15 -56.65 9.6 -57.45 11.05 -58.05 13.25 -56.1 14.7 L-52.6 17.8 -50.85 21.45 Q-49.2 24.7 -48.45 25.3 -47.2 26.0 -44.7 26.6 L-37.85 26.6 Q-34.95 26.05 -32.55 26.65 -30.15 27.25 -23.6 25.8 -17.1 24.3 -12.1 14.05 -7.1 3.75 -11.05 -2.55 -15.0 -8.9 -17.8 -11.75 -20.6 -14.65 -24.55 -9.6 -28.5 -4.55 -29.85 -4.6 -30.55 -4.65 -31.2 -4.65 -41.1 -7.35 -51.0 -10.0 -58.65 -12.05 -58.75 -5.25" fill="#ffffff" fill-opacity="0.69803923" fill-rule="evenodd" stroke="none">
      <animate attributeName="fill" dur="2s" repeatCount="indefinite" values="#ffffff;#ffffff"/>
      <animate attributeName="fill-opacity" dur="2s" repeatCount="indefinite" values="0.69803923;0.69803923"/>
      <animate attributeName="d" dur="2s" repeatCount="indefinite" values="M-58.75 -5.25 Q-58.9 1.55 -57.2 4.3 -55.55 7.05 -55.85 8.15 -56.65 9.6 -57.45 11.05 -58.05 13.25 -56.1 14.7 L-52.6 17.8 -50.85 21.45 Q-49.2 24.7 -48.45 25.3 -47.2 26.0 -44.7 26.6 L-37.85 26.6 Q-34.95 26.05 -32.55 26.65 -30.15 27.25 -23.6 25.8 -17.1 24.3 -12.1 14.05 -7.1 3.75 -11.05 -2.55 -15.0 -8.9 -17.8 -11.75 -20.6 -14.65 -24.55 -9.6 -28.5 -4.55 -29.85 -4.6 -30.55 -4.65 -31.2 -4.65 -41.1 -7.35 -51.0 -10.0 -58.65 -12.05 -58.75 -5.25;M-62.5 -4.7 Q-66.35 2.65 -62.05 5.0 -57.75 7.35 -56.85 7.95 -55.95 8.55 -57.45 11.05 -58.05 13.25 -56.1 14.7 L-52.6 17.8 -50.85 21.45 Q-49.2 24.7 -48.45 25.3 -47.2 26.0 -44.7 26.6 L-37.85 26.6 Q-34.95 26.05 -32.55 26.65 -30.15 27.25 -23.45 26.05 -16.75 24.8 -11.35 15.2 -5.95 5.55 -10.45 -1.65 -15.0 -8.9 -17.8 -11.75 -20.6 -14.65 -24.55 -12.05 -28.5 -9.5 -29.8 -8.9 -31.15 -8.3 -37.25 -8.1 -43.4 -7.95 -51.0 -10.0 -58.65 -12.05 -62.5 -4.7"/>
    </path>
    <path d="M-58.75 -5.25 Q-58.65 -12.05 -51.0 -10.0 -41.1 -7.35 -31.2 -4.65 -30.55 -4.65 -29.85 -4.6 -28.5 -4.55 -24.55 -9.6 -20.6 -14.65 -17.8 -11.75 -15.0 -8.9 -11.05 -2.55 -7.1 3.75 -12.1 14.05 -17.1 24.3 -23.6 25.8 -30.15 27.25 -32.55 26.65 -34.95 26.05 -37.85 26.6 L-44.7 26.6 Q-47.2 26.0 -48.45 25.3 -49.2 24.7 -50.85 21.45 L-52.6 17.8 -56.1 14.7 Q-58.05 13.25 -57.45 11.05 -56.65 9.6 -55.85 8.15 -55.55 7.05 -57.2 4.3 -58.9 1.55 -58.75 -5.25" fill="none" stroke="#000000" stroke-linecap="round" stroke-linejoin="round" stroke-opacity="0.0" stroke-width="1.0">
      <animate attributeName="stroke" dur="2s" repeatCount="indefinite" values="#000000;#000001"/>
      <animate attributeName="stroke-width" dur="2s" repeatCount="indefinite" values="0.0;0.0"/>
      <animate attributeName="fill-opacity" dur="2s" repeatCount="indefinite" values="0.0;0.0"/>
      <animate attributeName="d" dur="2s" repeatCount="indefinite" values="M-58.75 -5.25 Q-58.65 -12.05 -51.0 -10.0 -41.1 -7.35 -31.2 -4.65 -30.55 -4.65 -29.85 -4.6 -28.5 -4.55 -24.55 -9.6 -20.6 -14.65 -17.8 -11.75 -15.0 -8.9 -11.05 -2.55 -7.1 3.75 -12.1 14.05 -17.1 24.3 -23.6 25.8 -30.15 27.25 -32.55 26.65 -34.95 26.05 -37.85 26.6 L-44.7 26.6 Q-47.2 26.0 -48.45 25.3 -49.2 24.7 -50.85 21.45 L-52.6 17.8 -56.1 14.7 Q-58.05 13.25 -57.45 11.05 -56.65 9.6 -55.85 8.15 -55.55 7.05 -57.2 4.3 -58.9 1.55 -58.75 -5.25;M-62.5 -4.7 Q-58.65 -12.05 -51.0 -10.0 -43.4 -7.95 -37.25 -8.1 -31.15 -8.3 -29.8 -8.9 -28.5 -9.5 -24.55 -12.05 -20.6 -14.65 -17.8 -11.75 -15.0 -8.9 -10.45 -1.65 -5.95 5.55 -11.35 15.2 -16.75 24.8 -23.45 26.05 -30.15 27.25 -32.55 26.65 -34.95 26.05 -37.85 26.6 L-44.7 26.6 Q-47.2 26.0 -48.45 25.3 -49.2 24.7 -50.85 21.45 L-52.6 17.8 -56.1 14.7 Q-58.05 13.25 -57.45 11.05 -55.95 8.55 -56.85 7.95 -57.75 7.35 -62.05 5.0 -66.35 2.65 -62.5 -4.7"/>
    </path>
  </g>
</svg>
