<?xml version="1.0" encoding="UTF-8" standalone="no"?>
<svg xmlns:xlink="http://www.w3.org/1999/xlink" height="49.35px" width="64.8px" xmlns="http://www.w3.org/2000/svg">
  <g transform="matrix(1.0, 0.0, 0.0, 1.0, 69.1, 16.85)">
    <path d="M-66.75 14.1 Q-64.05 26.35 -57.0 26.5 -49.95 26.6 -46.4 27.6 L-41.4 28.9 Q-39.9 29.25 -38.45 28.9 -37.7 28.7 -36.95 28.55 -23.0 28.55 -16.95 25.0 -10.95 21.4 -8.95 24.05 -7.0 26.65 -5.35 22.95 -3.7 19.3 -4.65 13.2 -5.6 7.15 -6.5 5.2 -7.4 3.3 -8.35 1.95 -9.35 0.6 -11.2 -3.6 -11.05 -6.8 -15.95 -11.55 -20.85 -16.35 -23.2 -15.15 -25.55 -14.0 -31.55 -12.8 L-41.5 -11.2 Q-43.9 -13.5 -49.95 -14.05 -56.0 -14.6 -62.7 -6.4 -69.45 1.8 -66.75 14.1" fill="#ffffff" fill-opacity="0.4" fill-rule="evenodd" stroke="none">
      <animate attributeName="fill" dur="2s" repeatCount="indefinite" values="#ffffff;#ffffff"/>
      <animate attributeName="fill-opacity" dur="2s" repeatCount="indefinite" values="0.4;0.4"/>
      <animate attributeName="d" dur="2s" repeatCount="indefinite" values="M-66.75 14.1 Q-64.05 26.35 -57.0 26.5 -49.95 26.6 -46.4 27.6 L-41.4 28.9 Q-39.9 29.25 -38.45 28.9 -37.7 28.7 -36.95 28.55 -23.0 28.55 -16.95 25.0 -10.95 21.4 -8.95 24.05 -7.0 26.65 -5.35 22.95 -3.7 19.3 -4.65 13.2 -5.6 7.15 -6.5 5.2 -7.4 3.3 -8.35 1.95 -9.35 0.6 -11.2 -3.6 -11.05 -6.8 -15.95 -11.55 -20.85 -16.35 -23.2 -15.15 -25.55 -14.0 -31.55 -12.8 L-41.5 -11.2 Q-43.9 -13.5 -49.95 -14.05 -56.0 -14.6 -62.7 -6.4 -69.45 1.8 -66.75 14.1;M-68.2 15.95 Q-65.25 28.1 -59.25 30.75 -53.25 33.35 -48.6 32.1 L-41.95 30.05 Q-40.2 29.45 -38.45 28.9 -37.0 28.55 -29.6 29.85 -22.5 30.15 -15.4 30.45 -8.6 29.75 -7.75 28.2 -6.55 25.55 -5.35 22.95 -3.7 19.3 -4.65 13.2 -5.6 7.15 -6.3 5.1 -7.05 3.1 -6.25 2.3 -5.45 1.45 -8.3 -5.9 -10.25 -10.05 -15.2 -13.35 -20.2 -16.7 -22.65 -16.85 -25.1 -16.95 -31.55 -12.8 L-41.05 -14.8 Q-43.9 -17.25 -50.3 -16.25 -56.7 -15.3 -63.95 -5.75 -71.25 3.8 -68.2 15.95"/>
    </path>
    <path d="M-66.75 14.1 Q-69.45 1.8 -62.7 -6.4 -56.0 -14.6 -49.95 -14.05 -43.9 -13.5 -41.5 -11.2 L-31.55 -12.8 Q-25.55 -14.0 -23.2 -15.15 -20.85 -16.35 -15.95 -11.55 -11.05 -6.8 -11.2 -3.6 -9.35 0.6 -8.35 1.95 -7.4 3.3 -6.5 5.2 -5.6 7.15 -4.65 13.2 -3.7 19.3 -5.35 22.95 -7.0 26.65 -8.95 24.05 -10.95 21.4 -16.95 25.0 -23.0 28.55 -36.95 28.55 -37.7 28.7 -38.45 28.9 -39.9 29.25 -41.4 28.9 L-46.4 27.6 Q-49.95 26.6 -57.0 26.5 -64.05 26.35 -66.75 14.1" fill="none" stroke="#000000" stroke-linecap="round" stroke-linejoin="round" stroke-opacity="0.0" stroke-width="1.0">
      <animate attributeName="stroke" dur="2s" repeatCount="indefinite" values="#000000;#000001"/>
      <animate attributeName="stroke-width" dur="2s" repeatCount="indefinite" values="0.0;0.0"/>
      <animate attributeName="fill-opacity" dur="2s" repeatCount="indefinite" values="0.0;0.0"/>
      <animate attributeName="d" dur="2s" repeatCount="indefinite" values="M-66.75 14.1 Q-69.45 1.8 -62.7 -6.4 -56.0 -14.6 -49.95 -14.05 -43.9 -13.5 -41.5 -11.2 L-31.55 -12.8 Q-25.55 -14.0 -23.2 -15.15 -20.85 -16.35 -15.95 -11.55 -11.05 -6.8 -11.2 -3.6 -9.35 0.6 -8.35 1.95 -7.4 3.3 -6.5 5.2 -5.6 7.15 -4.65 13.2 -3.7 19.3 -5.35 22.95 -7.0 26.65 -8.95 24.05 -10.95 21.4 -16.95 25.0 -23.0 28.55 -36.95 28.55 -37.7 28.7 -38.45 28.9 -39.9 29.25 -41.4 28.9 L-46.4 27.6 Q-49.95 26.6 -57.0 26.5 -64.05 26.35 -66.75 14.1;M-68.2 15.95 Q-71.25 3.8 -63.95 -5.75 -56.7 -15.3 -50.3 -16.25 -43.9 -17.25 -41.05 -14.8 L-31.55 -12.8 Q-25.1 -16.95 -22.65 -16.85 -20.2 -16.7 -15.2 -13.35 -10.25 -10.05 -8.3 -5.9 -5.45 1.45 -6.25 2.3 -7.05 3.1 -6.3 5.1 -5.6 7.15 -4.65 13.2 -3.7 19.3 -5.35 22.95 -6.55 25.55 -7.75 28.2 -8.6 29.75 -15.4 30.45 -22.5 30.15 -29.6 29.85 -37.0 28.55 -38.45 28.9 -40.2 29.45 -41.95 30.05 L-48.6 32.1 Q-53.25 33.35 -59.25 30.75 -65.25 28.1 -68.2 15.95"/>
    </path>
  </g>
</svg>
