<?xml version="1.0" encoding="UTF-8" standalone="no"?>
<svg xmlns:xlink="http://www.w3.org/1999/xlink" height="40.15px" width="60.75px" xmlns="http://www.w3.org/2000/svg">
  <g transform="matrix(1.0, 0.0, 0.0, 1.0, 67.9, 13.25)">
    <path d="M-60.65 -7.45 L-61.9 -5.75 -62.5 -4.7 Q-66.15 2.25 -62.5 4.7 L-62.05 5.0 Q-58.35 7.0 -57.2 7.75 L-56.85 7.95 Q-55.95 8.55 -56.65 9.6 L-57.45 11.05 -57.5 12.7 Q-57.25 13.85 -56.1 14.7 -55.2 15.5 -54.3 16.3 -53.45 17.05 -52.6 17.8 L-51.9 19.2 -50.85 21.45 -50.1 22.9 Q-49.0 24.85 -47.65 25.7 L-44.7 26.6 -43.5 26.6 Q-41.7 26.6 -39.95 26.6 L-37.85 26.6 -33.6 26.4 -32.55 26.65 -29.0 26.8 -23.45 26.05 Q-21.8 25.75 -20.2 24.95 -15.4 22.45 -11.35 15.2 L-10.6 13.85 Q-6.25 5.05 -10.45 -1.65 L-10.95 -2.5 Q-15.15 -9.05 -17.8 -11.75 L-18.8 -12.6 -19.45 -12.95 Q-21.7 -13.9 -25.05 -11.75 L-30.15 -8.8 -37.25 -8.1 Q-43.0 -7.95 -51.0 -10.0 -57.0 -11.6 -60.65 -7.45" fill="#ffffff" fill-opacity="0.69803923" fill-rule="evenodd" stroke="none">
      <animate attributeName="fill" dur="2s" repeatCount="indefinite" values="#ffffff;#ffffff"/>
      <animate attributeName="fill-opacity" dur="2s" repeatCount="indefinite" values="0.69803923;0.69803923"/>
      <animate attributeName="d" dur="2s" repeatCount="indefinite" values="M-60.65 -7.45 L-61.9 -5.75 -62.5 -4.7 Q-66.15 2.25 -62.5 4.7 L-62.05 5.0 Q-58.35 7.0 -57.2 7.75 L-56.85 7.95 Q-55.95 8.55 -56.65 9.6 L-57.45 11.05 -57.5 12.7 Q-57.25 13.85 -56.1 14.7 -55.2 15.5 -54.3 16.3 -53.45 17.05 -52.6 17.8 L-51.9 19.2 -50.85 21.45 -50.1 22.9 Q-49.0 24.85 -47.65 25.7 L-44.7 26.6 -43.5 26.6 Q-41.7 26.6 -39.95 26.6 L-37.85 26.6 -33.6 26.4 -32.55 26.65 -29.0 26.8 -23.45 26.05 Q-21.8 25.75 -20.2 24.95 -15.4 22.45 -11.35 15.2 L-10.6 13.85 Q-6.25 5.05 -10.45 -1.65 L-10.95 -2.5 Q-15.15 -9.05 -17.8 -11.75 L-18.8 -12.6 -19.45 -12.95 Q-21.7 -13.9 -25.05 -11.75 L-30.15 -8.8 -37.25 -8.1 Q-43.0 -7.95 -51.0 -10.0 -57.0 -11.6 -60.65 -7.45;M-61.9 -6.25 L-63.15 -4.5 -63.75 -3.45 Q-67.7 3.3 -67.45 6.9 L-67.45 7.6 Q-67.3 11.0 -67.85 13.15 L-67.85 13.35 Q-68.1 14.55 -66.35 14.25 L-64.5 13.7 -62.9 13.05 Q-61.5 12.45 -60.15 11.9 -57.4 10.75 -57.45 11.05 -57.8 12.45 -57.2 13.5 L-56.1 14.7 -53.9 16.6 -52.6 17.8 Q-51.7 19.65 -50.85 21.45 L-49.25 24.35 -48.45 25.3 Q-47.2 26.0 -44.7 26.6 L-42.4 26.6 -37.85 26.6 -36.6 26.45 -32.55 26.65 -26.75 26.8 Q-24.95 26.65 -23.2 26.5 -16.8 25.75 -11.3 18.55 L-10.3 17.2 Q-4.65 9.1 -9.1 0.8 L-9.65 -0.1 Q-14.05 -7.35 -16.7 -10.55 L-17.8 -11.75 -18.5 -12.35 Q-20.85 -14.2 -24.55 -12.05 L-29.8 -8.9 -37.45 -8.1 Q-43.5 -8.0 -52.1 -10.25 -58.0 -11.35 -61.9 -6.25"/>
    </path>
    <path d="M-60.65 -7.45 Q-57.0 -11.6 -51.0 -10.0 -43.0 -7.95 -37.25 -8.1 L-30.15 -8.8 -25.05 -11.75 Q-21.7 -13.9 -19.45 -12.95 L-18.8 -12.6 -17.8 -11.75 Q-15.15 -9.05 -10.95 -2.5 L-10.45 -1.65 Q-6.25 5.05 -10.6 13.85 L-11.35 15.2 Q-15.4 22.45 -20.2 24.95 -21.8 25.75 -23.45 26.05 L-29.0 26.8 -32.55 26.65 -33.6 26.4 -37.85 26.6 -39.95 26.6 Q-41.7 26.6 -43.5 26.6 L-44.7 26.6 -47.65 25.7 Q-49.0 24.85 -50.1 22.9 L-50.85 21.45 -51.9 19.2 -52.6 17.8 Q-53.45 17.05 -54.3 16.3 -55.2 15.5 -56.1 14.7 -57.25 13.85 -57.5 12.7 L-57.45 11.05 -56.65 9.6 Q-55.95 8.55 -56.85 7.95 L-57.2 7.75 Q-58.35 7.0 -62.05 5.0 L-62.5 4.7 Q-66.15 2.25 -62.5 -4.7 L-61.9 -5.75 -60.65 -7.45" fill="none" stroke="#000000" stroke-linecap="round" stroke-linejoin="round" stroke-opacity="0.0" stroke-width="1.0">
      <animate attributeName="stroke" dur="2s" repeatCount="indefinite" values="#000000;#000001"/>
      <animate attributeName="stroke-width" dur="2s" repeatCount="indefinite" values="0.0;0.0"/>
      <animate attributeName="fill-opacity" dur="2s" repeatCount="indefinite" values="0.0;0.0"/>
      <animate attributeName="d" dur="2s" repeatCount="indefinite" values="M-60.65 -7.45 Q-57.0 -11.6 -51.0 -10.0 -43.0 -7.95 -37.25 -8.1 L-30.15 -8.8 -25.05 -11.75 Q-21.7 -13.9 -19.45 -12.95 L-18.8 -12.6 -17.8 -11.75 Q-15.15 -9.05 -10.95 -2.5 L-10.45 -1.65 Q-6.25 5.05 -10.6 13.85 L-11.35 15.2 Q-15.4 22.45 -20.2 24.95 -21.8 25.75 -23.45 26.05 L-29.0 26.8 -32.55 26.65 -33.6 26.4 -37.85 26.6 -39.95 26.6 Q-41.7 26.6 -43.5 26.6 L-44.7 26.6 -47.65 25.7 Q-49.0 24.85 -50.1 22.9 L-50.85 21.45 -51.9 19.2 -52.6 17.8 Q-53.45 17.05 -54.3 16.3 -55.2 15.5 -56.1 14.7 -57.25 13.85 -57.5 12.7 L-57.45 11.05 -56.65 9.6 Q-55.95 8.55 -56.85 7.95 L-57.2 7.75 Q-58.35 7.0 -62.05 5.0 L-62.5 4.7 Q-66.15 2.25 -62.5 -4.7 L-61.9 -5.75 -60.65 -7.45;M-61.9 -6.25 Q-58.0 -11.35 -52.1 -10.25 -43.5 -8.0 -37.45 -8.1 L-29.8 -8.9 -24.55 -12.05 Q-20.85 -14.2 -18.5 -12.35 L-17.8 -11.75 -16.7 -10.55 Q-14.05 -7.35 -9.65 -0.1 L-9.1 0.8 Q-4.65 9.1 -10.3 17.2 L-11.3 18.55 Q-16.8 25.75 -23.2 26.5 -24.95 26.65 -26.75 26.8 L-32.55 26.65 -36.6 26.45 -37.85 26.6 -42.4 26.6 -44.7 26.6 Q-47.2 26.0 -48.45 25.3 L-49.25 24.35 -50.85 21.45 Q-51.7 19.65 -52.6 17.8 L-53.9 16.6 -56.1 14.7 -57.2 13.5 Q-57.8 12.45 -57.45 11.05 -57.4 10.75 -60.15 11.9 -61.5 12.45 -62.9 13.05 L-64.5 13.7 -66.35 14.25 Q-68.1 14.55 -67.85 13.35 L-67.85 13.15 Q-67.3 11.0 -67.45 7.6 L-67.45 6.9 Q-67.7 3.3 -63.75 -3.45 L-63.15 -4.5 -61.9 -6.25"/>
    </path>
  </g>
</svg>
