<?xml version="1.0" encoding="UTF-8" standalone="no"?>
<svg xmlns:xlink="http://www.w3.org/1999/xlink" height="49.35px" width="65.9px" xmlns="http://www.w3.org/2000/svg">
  <g transform="matrix(1.0, 0.0, 0.0, 1.0, 70.2, 16.85)">
    <path d="M-68.2 15.95 Q-65.25 28.1 -59.25 30.75 -53.25 33.35 -48.6 32.1 L-41.95 30.05 -38.45 28.9 Q-37.0 28.55 -29.6 29.85 L-15.4 30.45 Q-8.6 29.75 -7.75 28.2 L-5.35 22.95 Q-3.7 19.3 -4.65 13.2 -5.45 7.75 -6.25 2.3 -5.45 1.45 -8.3 -5.9 -10.25 -10.05 -15.2 -13.35 -20.2 -16.7 -22.65 -16.85 -25.1 -16.95 -31.55 -12.8 L-41.05 -14.8 Q-43.9 -17.25 -50.3 -16.25 -56.7 -15.3 -63.95 -5.75 -71.25 3.8 -68.2 15.95" fill="#ffffff" fill-opacity="0.4" fill-rule="evenodd" stroke="none">
      <animate attributeName="fill" dur="2s" repeatCount="indefinite" values="#ffffff;#ffffff"/>
      <animate attributeName="fill-opacity" dur="2s" repeatCount="indefinite" values="0.4;0.4"/>
      <animate attributeName="d" dur="2s" repeatCount="indefinite" values="M-68.2 15.95 Q-65.25 28.1 -59.25 30.75 -53.25 33.35 -48.6 32.1 L-41.95 30.05 -38.45 28.9 Q-37.0 28.55 -29.6 29.85 L-15.4 30.45 Q-8.6 29.75 -7.75 28.2 L-5.35 22.95 Q-3.7 19.3 -4.65 13.2 -5.45 7.75 -6.25 2.3 -5.45 1.45 -8.3 -5.9 -10.25 -10.05 -15.2 -13.35 -20.2 -16.7 -22.65 -16.85 -25.1 -16.95 -31.55 -12.8 L-41.05 -14.8 Q-43.9 -17.25 -50.3 -16.25 -56.7 -15.3 -63.95 -5.75 -71.25 3.8 -68.2 15.95;M-69.0 14.35 Q-65.25 28.1 -59.25 30.75 -53.25 33.35 -48.6 32.1 L-41.95 30.05 -38.45 28.9 Q-37.0 28.55 -29.6 29.85 L-15.4 30.45 Q-8.6 29.75 -7.75 28.2 L-5.35 22.95 Q-3.7 19.3 -4.6 13.25 -5.5 7.2 -4.7 4.05 -5.45 1.45 -8.3 -5.9 -10.25 -10.05 -15.2 -13.35 -20.2 -16.7 -22.65 -16.85 -25.1 -16.95 -31.55 -12.8 L-41.05 -14.8 Q-43.9 -17.25 -50.5 -16.65 -57.1 -16.05 -64.9 -7.75 -72.75 0.55 -69.0 14.35"/>
    </path>
    <path d="M-68.2 15.95 Q-71.25 3.8 -63.95 -5.75 -56.7 -15.3 -50.3 -16.25 -43.9 -17.25 -41.05 -14.8 L-31.55 -12.8 Q-25.1 -16.95 -22.65 -16.85 -20.2 -16.7 -15.2 -13.35 -10.25 -10.05 -8.3 -5.9 -5.45 1.45 -6.25 2.3 -5.45 7.75 -4.65 13.2 -3.7 19.3 -5.35 22.95 L-7.75 28.2 Q-8.6 29.75 -15.4 30.45 L-29.6 29.85 Q-37.0 28.55 -38.45 28.9 L-41.95 30.05 -48.6 32.1 Q-53.25 33.35 -59.25 30.75 -65.25 28.1 -68.2 15.95" fill="none" stroke="#000000" stroke-linecap="round" stroke-linejoin="round" stroke-opacity="0.0" stroke-width="1.0">
      <animate attributeName="stroke" dur="2s" repeatCount="indefinite" values="#000000;#000001"/>
      <animate attributeName="stroke-width" dur="2s" repeatCount="indefinite" values="0.0;0.0"/>
      <animate attributeName="fill-opacity" dur="2s" repeatCount="indefinite" values="0.0;0.0"/>
      <animate attributeName="d" dur="2s" repeatCount="indefinite" values="M-68.2 15.95 Q-71.25 3.8 -63.95 -5.75 -56.7 -15.3 -50.3 -16.25 -43.9 -17.25 -41.05 -14.8 L-31.55 -12.8 Q-25.1 -16.95 -22.65 -16.85 -20.2 -16.7 -15.2 -13.35 -10.25 -10.05 -8.3 -5.9 -5.45 1.45 -6.25 2.3 -5.45 7.75 -4.65 13.2 -3.7 19.3 -5.35 22.95 L-7.75 28.2 Q-8.6 29.75 -15.4 30.45 L-29.6 29.85 Q-37.0 28.55 -38.45 28.9 L-41.95 30.05 -48.6 32.1 Q-53.25 33.35 -59.25 30.75 -65.25 28.1 -68.2 15.95;M-69.0 14.35 Q-72.75 0.55 -64.9 -7.75 -57.1 -16.05 -50.5 -16.65 -43.9 -17.25 -41.05 -14.8 L-31.55 -12.8 Q-25.1 -16.95 -22.65 -16.85 -20.2 -16.7 -15.2 -13.35 -10.25 -10.05 -8.3 -5.9 -5.45 1.45 -4.7 4.05 -5.5 7.2 -4.6 13.25 -3.7 19.3 -5.35 22.95 L-7.75 28.2 Q-8.6 29.75 -15.4 30.45 L-29.6 29.85 Q-37.0 28.55 -38.45 28.9 L-41.95 30.05 -48.6 32.1 Q-53.25 33.35 -59.25 30.75 -65.25 28.1 -69.0 14.35"/>
    </path>
  </g>
</svg>
