<?xml version="1.0" encoding="UTF-8" standalone="no"?>
<svg xmlns:xlink="http://www.w3.org/1999/xlink" height="40.5px" width="61.15px" xmlns="http://www.w3.org/2000/svg">
  <g transform="matrix(1.0, 0.0, 0.0, 1.0, 68.0, 13.6)">
    <path d="M-67.85 13.15 Q-68.45 15.45 -62.9 13.05 -57.35 10.65 -57.45 11.05 -58.05 13.25 -56.1 14.7 L-52.6 17.8 -50.85 21.45 Q-49.2 24.7 -48.45 25.3 -47.2 26.0 -44.7 26.6 L-37.85 26.6 Q-34.95 26.05 -32.55 26.65 -30.15 27.25 -23.2 26.5 -16.25 25.7 -10.3 17.2 -4.35 8.65 -9.65 -0.1 -15.0 -8.9 -17.8 -11.75 -20.6 -14.65 -24.55 -12.05 -28.5 -9.5 -29.8 -8.9 -31.15 -8.3 -37.25 -8.1 -43.4 -7.95 -51.0 -10.0 -58.65 -12.05 -63.15 -4.5 -67.7 3.0 -67.45 6.9 -67.25 10.8 -67.85 13.15" fill="#ffffff" fill-opacity="0.69803923" fill-rule="evenodd" stroke="none">
      <animate attributeName="fill" dur="2s" repeatCount="indefinite" values="#ffffff;#ffffff"/>
      <animate attributeName="fill-opacity" dur="2s" repeatCount="indefinite" values="0.69803923;0.69803923"/>
      <animate attributeName="d" dur="2s" repeatCount="indefinite" values="M-67.85 13.15 Q-68.45 15.45 -62.9 13.05 -57.35 10.65 -57.45 11.05 -58.05 13.25 -56.1 14.7 L-52.6 17.8 -50.85 21.45 Q-49.2 24.7 -48.45 25.3 -47.2 26.0 -44.7 26.6 L-37.85 26.6 Q-34.95 26.05 -32.55 26.65 -30.15 27.25 -23.2 26.5 -16.25 25.7 -10.3 17.2 -4.35 8.65 -9.65 -0.1 -15.0 -8.9 -17.8 -11.75 -20.6 -14.65 -24.55 -12.05 -28.5 -9.5 -29.8 -8.9 -31.15 -8.3 -37.25 -8.1 -43.4 -7.95 -51.0 -10.0 -58.65 -12.05 -63.15 -4.5 -67.7 3.0 -67.45 6.9 -67.25 10.8 -67.85 13.15;M-67.85 13.15 Q-68.45 15.45 -66.65 17.75 -64.9 20.05 -65.05 20.95 -65.2 21.85 -56.1 14.7 L-52.6 17.8 -50.85 21.45 Q-49.2 24.7 -48.45 25.3 -47.2 26.0 -44.7 26.6 L-37.85 26.6 Q-34.95 26.05 -32.55 26.65 -30.15 27.25 -23.2 26.5 -16.25 25.7 -10.2 17.0 -4.15 8.3 -9.0 -1.35 -13.85 -11.05 -17.25 -12.85 -20.6 -14.65 -24.55 -12.05 -28.5 -9.5 -29.8 -8.9 -31.15 -8.3 -37.25 -8.1 -43.4 -7.95 -51.0 -10.45 -58.65 -13.0 -63.15 -5.75 -67.7 1.5 -67.45 6.15 -67.25 10.85 -67.85 13.15"/>
    </path>
    <path d="M-67.85 13.15 Q-67.25 10.8 -67.45 6.9 -67.7 3.0 -63.15 -4.5 -58.65 -12.05 -51.0 -10.0 -43.4 -7.95 -37.25 -8.1 -31.15 -8.3 -29.8 -8.9 -28.5 -9.5 -24.55 -12.05 -20.6 -14.65 -17.8 -11.75 -15.0 -8.9 -9.65 -0.1 -4.35 8.65 -10.3 17.2 -16.25 25.7 -23.2 26.5 -30.15 27.25 -32.55 26.65 -34.95 26.05 -37.85 26.6 L-44.7 26.6 Q-47.2 26.0 -48.45 25.3 -49.2 24.7 -50.85 21.45 L-52.6 17.8 -56.1 14.7 Q-58.05 13.25 -57.45 11.05 -57.35 10.65 -62.9 13.05 -68.45 15.45 -67.85 13.15" fill="none" stroke="#000000" stroke-linecap="round" stroke-linejoin="round" stroke-opacity="0.0" stroke-width="1.0">
      <animate attributeName="stroke" dur="2s" repeatCount="indefinite" values="#000000;#000001"/>
      <animate attributeName="stroke-width" dur="2s" repeatCount="indefinite" values="0.0;0.0"/>
      <animate attributeName="fill-opacity" dur="2s" repeatCount="indefinite" values="0.0;0.0"/>
      <animate attributeName="d" dur="2s" repeatCount="indefinite" values="M-67.85 13.15 Q-67.25 10.8 -67.45 6.9 -67.7 3.0 -63.15 -4.5 -58.65 -12.05 -51.0 -10.0 -43.4 -7.95 -37.25 -8.1 -31.15 -8.3 -29.8 -8.9 -28.5 -9.5 -24.55 -12.05 -20.6 -14.65 -17.8 -11.75 -15.0 -8.9 -9.65 -0.1 -4.35 8.65 -10.3 17.2 -16.25 25.7 -23.2 26.5 -30.15 27.25 -32.55 26.65 -34.95 26.05 -37.85 26.6 L-44.7 26.6 Q-47.2 26.0 -48.45 25.3 -49.2 24.7 -50.85 21.45 L-52.6 17.8 -56.1 14.7 Q-58.05 13.25 -57.45 11.05 -57.35 10.65 -62.9 13.05 -68.45 15.45 -67.85 13.15;M-67.85 13.15 Q-67.25 10.85 -67.45 6.15 -67.7 1.5 -63.15 -5.75 -58.65 -13.0 -51.0 -10.45 -43.4 -7.95 -37.25 -8.1 -31.15 -8.3 -29.8 -8.9 -28.5 -9.5 -24.55 -12.05 -20.6 -14.65 -17.25 -12.85 -13.85 -11.05 -9.0 -1.35 -4.15 8.3 -10.2 17.0 -16.25 25.7 -23.2 26.5 -30.15 27.25 -32.55 26.65 -34.95 26.05 -37.85 26.6 L-44.7 26.6 Q-47.2 26.0 -48.45 25.3 -49.2 24.7 -50.85 21.45 L-52.6 17.8 -56.1 14.7 Q-65.2 21.85 -65.05 20.95 -64.9 20.05 -66.65 17.75 -68.45 15.45 -67.85 13.15"/>
    </path>
  </g>
</svg>
