<?xml version="1.0" encoding="UTF-8" standalone="no"?>
<svg xmlns:xlink="http://www.w3.org/1999/xlink" height="53.25px" width="66.4px" xmlns="http://www.w3.org/2000/svg">
  <g transform="matrix(1.0, 0.0, 0.0, 1.0, 70.7, 17.65)">
    <path d="M-69.0 14.35 Q-65.25 28.1 -59.25 30.75 -53.25 33.35 -48.6 32.1 -45.25 31.05 -41.95 30.05 -40.2 29.45 -38.45 28.9 -37.0 28.55 -29.6 29.85 L-15.4 30.45 Q-8.6 29.75 -7.75 28.2 L-5.35 22.95 Q-3.7 19.3 -4.6 13.25 -5.5 7.2 -4.7 4.05 -5.45 1.45 -8.3 -5.9 -10.25 -10.05 -15.2 -13.35 -20.2 -16.7 -22.65 -16.85 -25.1 -16.95 -31.55 -12.8 L-41.05 -14.8 Q-43.9 -17.25 -50.5 -16.65 -57.1 -16.05 -64.9 -7.75 -72.75 0.55 -69.0 14.35" fill="#ffffff" fill-opacity="0.4" fill-rule="evenodd" stroke="none">
      <animate attributeName="fill" dur="2s" repeatCount="indefinite" values="#ffffff;#ffffff"/>
      <animate attributeName="fill-opacity" dur="2s" repeatCount="indefinite" values="0.4;0.4"/>
      <animate attributeName="d" dur="2s" repeatCount="indefinite" values="M-69.0 14.35 Q-65.25 28.1 -59.25 30.75 -53.25 33.35 -48.6 32.1 -45.25 31.05 -41.95 30.05 -40.2 29.45 -38.45 28.9 -37.0 28.55 -29.6 29.85 L-15.4 30.45 Q-8.6 29.75 -7.75 28.2 L-5.35 22.95 Q-3.7 19.3 -4.6 13.25 -5.5 7.2 -4.7 4.05 -5.45 1.45 -8.3 -5.9 -10.25 -10.05 -15.2 -13.35 -20.2 -16.7 -22.65 -16.85 -25.1 -16.95 -31.55 -12.8 L-41.05 -14.8 Q-43.9 -17.25 -50.5 -16.65 -57.1 -16.05 -64.9 -7.75 -72.75 0.55 -69.0 14.35;M-69.65 15.65 Q-66.4 30.9 -60.1 32.75 -53.8 34.6 -49.3 35.3 -44.85 35.95 -42.1 35.25 -39.4 34.55 -38.0 33.0 -36.65 31.4 -29.45 31.25 L-15.4 30.45 Q-8.6 29.75 -7.75 28.2 L-5.35 22.95 Q-3.7 19.3 -4.6 13.25 -5.5 7.2 -4.7 4.05 -5.45 1.45 -8.3 -5.9 -10.15 -10.9 -15.1 -14.5 -20.1 -18.15 -22.6 -17.55 -25.1 -16.95 -31.55 -12.8 L-41.2 -16.35 Q-43.9 -17.25 -51.35 -17.4 -58.8 -17.55 -65.85 -8.6 -72.95 0.4 -69.65 15.65"/>
    </path>
    <path d="M-69.0 14.35 Q-72.75 0.55 -64.9 -7.75 -57.1 -16.05 -50.5 -16.65 -43.9 -17.25 -41.05 -14.8 L-31.55 -12.8 Q-25.1 -16.95 -22.65 -16.85 -20.2 -16.7 -15.2 -13.35 -10.25 -10.05 -8.3 -5.9 -5.45 1.45 -4.7 4.05 -5.5 7.2 -4.6 13.25 -3.7 19.3 -5.35 22.95 L-7.75 28.2 Q-8.6 29.75 -15.4 30.45 L-29.6 29.85 Q-37.0 28.55 -38.45 28.9 -40.2 29.45 -41.95 30.05 -45.25 31.05 -48.6 32.1 -53.25 33.35 -59.25 30.75 -65.25 28.1 -69.0 14.35" fill="none" stroke="#000000" stroke-linecap="round" stroke-linejoin="round" stroke-opacity="0.0" stroke-width="1.0">
      <animate attributeName="stroke" dur="2s" repeatCount="indefinite" values="#000000;#000001"/>
      <animate attributeName="stroke-width" dur="2s" repeatCount="indefinite" values="0.0;0.0"/>
      <animate attributeName="fill-opacity" dur="2s" repeatCount="indefinite" values="0.0;0.0"/>
      <animate attributeName="d" dur="2s" repeatCount="indefinite" values="M-69.0 14.35 Q-72.75 0.55 -64.9 -7.75 -57.1 -16.05 -50.5 -16.65 -43.9 -17.25 -41.05 -14.8 L-31.55 -12.8 Q-25.1 -16.95 -22.65 -16.85 -20.2 -16.7 -15.2 -13.35 -10.25 -10.05 -8.3 -5.9 -5.45 1.45 -4.7 4.05 -5.5 7.2 -4.6 13.25 -3.7 19.3 -5.35 22.95 L-7.75 28.2 Q-8.6 29.75 -15.4 30.45 L-29.6 29.85 Q-37.0 28.55 -38.45 28.9 -40.2 29.45 -41.95 30.05 -45.25 31.05 -48.6 32.1 -53.25 33.35 -59.25 30.75 -65.25 28.1 -69.0 14.35;M-69.65 15.65 Q-72.95 0.4 -65.85 -8.6 -58.8 -17.55 -51.35 -17.4 -43.9 -17.25 -41.2 -16.35 L-31.55 -12.8 Q-25.1 -16.95 -22.6 -17.55 -20.1 -18.15 -15.1 -14.5 -10.15 -10.9 -8.3 -5.9 -5.45 1.45 -4.7 4.05 -5.5 7.2 -4.6 13.25 -3.7 19.3 -5.35 22.95 L-7.75 28.2 Q-8.6 29.75 -15.4 30.45 L-29.45 31.25 Q-36.65 31.4 -38.0 33.0 -39.4 34.55 -42.1 35.25 -44.85 35.95 -49.3 35.3 -53.8 34.6 -60.1 32.75 -66.4 30.9 -69.65 15.65"/>
    </path>
  </g>
</svg>
