<?xml version="1.0" encoding="UTF-8" standalone="no"?>
<svg xmlns:xlink="http://www.w3.org/1999/xlink" height="53.25px" width="70.75px" xmlns="http://www.w3.org/2000/svg">
  <g transform="matrix(1.0, 0.0, 0.0, 1.0, 72.1, 17.65)">
    <path d="M-69.65 15.65 Q-66.4 30.9 -60.1 32.75 -53.8 34.6 -49.3 35.3 -44.85 35.95 -42.1 35.25 -39.4 34.55 -38.0 33.0 -36.65 31.4 -29.45 31.25 L-15.4 30.45 Q-8.6 29.75 -7.75 28.2 -6.55 25.55 -5.35 22.95 -3.7 19.3 -4.6 13.25 -5.5 7.2 -4.75 6.9 -4.05 6.6 -4.7 4.05 -5.45 1.45 -8.3 -5.9 -10.15 -10.9 -15.1 -14.5 -20.1 -18.15 -22.6 -17.55 -25.1 -16.95 -31.55 -12.8 L-41.2 -16.35 Q-43.9 -17.25 -51.35 -17.4 -58.8 -17.55 -65.85 -8.6 -72.95 0.4 -69.65 15.65" fill="#ffffff" fill-opacity="0.4" fill-rule="evenodd" stroke="none">
      <animate attributeName="fill" dur="2s" repeatCount="indefinite" values="#ffffff;#ffffff"/>
      <animate attributeName="fill-opacity" dur="2s" repeatCount="indefinite" values="0.4;0.4"/>
      <animate attributeName="d" dur="2s" repeatCount="indefinite" values="M-69.65 15.65 Q-66.4 30.9 -60.1 32.75 -53.8 34.6 -49.3 35.3 -44.85 35.95 -42.1 35.25 -39.4 34.55 -38.0 33.0 -36.65 31.4 -29.45 31.25 L-15.4 30.45 Q-8.6 29.75 -7.75 28.2 -6.55 25.55 -5.35 22.95 -3.7 19.3 -4.6 13.25 -5.5 7.2 -4.75 6.9 -4.05 6.6 -4.7 4.05 -5.45 1.45 -8.3 -5.9 -10.15 -10.9 -15.1 -14.5 -20.1 -18.15 -22.6 -17.55 -25.1 -16.95 -31.55 -12.8 L-41.2 -16.35 Q-43.9 -17.25 -51.35 -17.4 -58.8 -17.55 -65.85 -8.6 -72.95 0.4 -69.65 15.65;M-71.0 18.25 Q-67.55 33.05 -60.65 33.85 -54.95 34.6 -49.3 35.3 -44.85 35.95 -42.1 35.25 -39.4 34.55 -38.0 33.0 -36.65 31.4 -29.45 31.25 L-15.4 30.45 Q-8.6 29.75 -7.4 29.1 -6.2 28.45 -4.5 24.95 -2.75 21.5 -1.85 18.15 -0.95 14.85 -1.75 11.9 -2.6 8.95 -4.0 5.25 -6.15 -0.35 -8.3 -5.9 -10.15 -10.9 -15.1 -14.5 -20.1 -18.15 -22.6 -17.55 -25.1 -16.95 -31.55 -12.8 L-41.2 -16.35 Q-43.9 -17.25 -51.35 -17.4 -58.8 -17.55 -66.65 -7.1 -74.5 3.4 -71.0 18.25"/>
    </path>
    <path d="M-69.65 15.65 Q-72.95 0.4 -65.85 -8.6 -58.8 -17.55 -51.35 -17.4 -43.9 -17.25 -41.2 -16.35 L-31.55 -12.8 Q-25.1 -16.95 -22.6 -17.55 -20.1 -18.15 -15.1 -14.5 -10.15 -10.9 -8.3 -5.9 -5.45 1.45 -4.7 4.05 -4.05 6.6 -4.75 6.9 -5.5 7.2 -4.6 13.25 -3.7 19.3 -5.35 22.95 -6.55 25.55 -7.75 28.2 -8.6 29.75 -15.4 30.45 L-29.45 31.25 Q-36.65 31.4 -38.0 33.0 -39.4 34.55 -42.1 35.25 -44.85 35.95 -49.3 35.3 -53.8 34.6 -60.1 32.75 -66.4 30.9 -69.65 15.65" fill="none" stroke="#000000" stroke-linecap="round" stroke-linejoin="round" stroke-opacity="0.0" stroke-width="1.0">
      <animate attributeName="stroke" dur="2s" repeatCount="indefinite" values="#000000;#000001"/>
      <animate attributeName="stroke-width" dur="2s" repeatCount="indefinite" values="0.0;0.0"/>
      <animate attributeName="fill-opacity" dur="2s" repeatCount="indefinite" values="0.0;0.0"/>
      <animate attributeName="d" dur="2s" repeatCount="indefinite" values="M-69.65 15.65 Q-72.95 0.4 -65.85 -8.6 -58.8 -17.55 -51.35 -17.4 -43.9 -17.25 -41.2 -16.35 L-31.55 -12.8 Q-25.1 -16.95 -22.6 -17.55 -20.1 -18.15 -15.1 -14.5 -10.15 -10.9 -8.3 -5.9 -5.45 1.45 -4.7 4.05 -4.05 6.6 -4.75 6.9 -5.5 7.2 -4.6 13.25 -3.7 19.3 -5.35 22.95 -6.55 25.55 -7.75 28.2 -8.6 29.75 -15.4 30.45 L-29.45 31.25 Q-36.65 31.4 -38.0 33.0 -39.4 34.55 -42.1 35.25 -44.85 35.95 -49.3 35.3 -53.8 34.6 -60.1 32.75 -66.4 30.9 -69.65 15.65;M-71.0 18.25 Q-74.5 3.4 -66.65 -7.1 -58.8 -17.55 -51.35 -17.4 -43.9 -17.25 -41.2 -16.35 L-31.55 -12.8 Q-25.1 -16.95 -22.6 -17.55 -20.1 -18.15 -15.1 -14.5 -10.15 -10.9 -8.3 -5.9 -6.15 -0.35 -4.0 5.25 -2.6 8.95 -1.75 11.9 -0.95 14.85 -1.85 18.15 -2.75 21.5 -4.5 24.95 -6.2 28.45 -7.4 29.1 -8.6 29.75 -15.4 30.45 L-29.45 31.25 Q-36.65 31.4 -38.0 33.0 -39.4 34.55 -42.1 35.25 -44.85 35.95 -49.3 35.3 -54.95 34.6 -60.65 33.85 -67.55 33.05 -71.0 18.25"/>
    </path>
  </g>
</svg>
