<?xml version="1.0" encoding="UTF-8" standalone="no"?>
<svg xmlns:xlink="http://www.w3.org/1999/xlink" height="47.5px" width="63.25px" xmlns="http://www.w3.org/2000/svg">
  <g transform="matrix(1.0, 0.0, 0.0, 1.0, 69.15, 15.65)">
    <path d="M-67.85 13.15 Q-68.45 15.45 -66.65 17.75 -64.9 20.05 -65.05 20.95 -65.2 21.85 -61.05 28.0 L-52.6 17.8 Q-51.7 19.65 -50.85 21.45 -49.2 24.7 -48.45 25.3 -47.2 26.0 -44.7 26.6 L-37.85 26.6 Q-34.95 26.05 -32.55 26.65 -30.15 27.25 -23.2 26.5 -16.3 25.7 -10.25 16.75 -4.25 7.75 -9.5 -3.55 -14.75 -14.95 -17.65 -14.8 -20.6 -14.65 -24.55 -12.05 -28.5 -9.5 -29.8 -8.9 -31.15 -8.3 -37.25 -8.1 -43.4 -7.95 -51.0 -10.45 -58.65 -13.0 -63.15 -5.75 -67.7 1.5 -67.45 6.15 -67.25 10.85 -67.85 13.15" fill="#ffffff" fill-opacity="0.69803923" fill-rule="evenodd" stroke="none">
      <animate attributeName="fill" dur="2s" repeatCount="indefinite" values="#ffffff;#ffffff"/>
      <animate attributeName="fill-opacity" dur="2s" repeatCount="indefinite" values="0.69803923;0.69803923"/>
      <animate attributeName="d" dur="2s" repeatCount="indefinite" values="M-67.85 13.15 Q-68.45 15.45 -66.65 17.75 -64.9 20.05 -65.05 20.95 -65.2 21.85 -61.05 28.0 L-52.6 17.8 Q-51.7 19.65 -50.85 21.45 -49.2 24.7 -48.45 25.3 -47.2 26.0 -44.7 26.6 L-37.85 26.6 Q-34.95 26.05 -32.55 26.65 -30.15 27.25 -23.2 26.5 -16.3 25.7 -10.25 16.75 -4.25 7.75 -9.5 -3.55 -14.75 -14.95 -17.65 -14.8 -20.6 -14.65 -24.55 -12.05 -28.5 -9.5 -29.8 -8.9 -31.15 -8.3 -37.25 -8.1 -43.4 -7.95 -51.0 -10.45 -58.65 -13.0 -63.15 -5.75 -67.7 1.5 -67.45 6.15 -67.25 10.85 -67.85 13.15;M-69.0 13.35 Q-69.65 15.75 -67.75 18.1 -65.95 20.5 -66.1 21.45 -66.25 22.35 -61.95 28.75 L-59.25 31.85 Q-53.15 18.25 -51.35 21.95 -49.65 25.35 -48.9 25.95 -47.6 26.7 -45.0 27.3 L-37.9 27.3 Q-34.85 26.75 -32.4 27.35 -29.9 28.0 -22.65 27.2 -15.5 26.35 -9.25 17.1 -3.0 7.75 -8.45 -4.0 -13.9 -15.8 -16.9 -15.65 -20.0 -15.5 -24.1 -12.8 -28.15 -10.15 -29.5 -9.55 -30.9 -8.9 -37.25 -8.7 -43.65 -8.55 -51.5 -11.15 -59.45 -13.8 -64.15 -6.25 -68.85 1.25 -68.6 6.1 -68.4 10.95 -69.0 13.35"/>
    </path>
    <path d="M-67.85 13.15 Q-67.25 10.85 -67.45 6.15 -67.7 1.5 -63.15 -5.75 -58.65 -13.0 -51.0 -10.45 -43.4 -7.95 -37.25 -8.1 -31.15 -8.3 -29.8 -8.9 -28.5 -9.5 -24.55 -12.05 -20.6 -14.65 -17.65 -14.8 -14.75 -14.95 -9.5 -3.55 -4.25 7.75 -10.25 16.75 -16.3 25.7 -23.2 26.5 -30.15 27.25 -32.55 26.65 -34.95 26.05 -37.85 26.6 L-44.7 26.6 Q-47.2 26.0 -48.45 25.3 -49.2 24.7 -50.85 21.45 -51.7 19.65 -52.6 17.8 L-61.05 28.0 Q-65.2 21.85 -65.05 20.95 -64.9 20.05 -66.65 17.75 -68.45 15.45 -67.85 13.15" fill="none" stroke="#000000" stroke-linecap="round" stroke-linejoin="round" stroke-opacity="0.0" stroke-width="1.0">
      <animate attributeName="stroke" dur="2s" repeatCount="indefinite" values="#000000;#000001"/>
      <animate attributeName="stroke-width" dur="2s" repeatCount="indefinite" values="0.0;0.0"/>
      <animate attributeName="fill-opacity" dur="2s" repeatCount="indefinite" values="0.0;0.0"/>
      <animate attributeName="d" dur="2s" repeatCount="indefinite" values="M-67.85 13.15 Q-67.25 10.85 -67.45 6.15 -67.7 1.5 -63.15 -5.75 -58.65 -13.0 -51.0 -10.45 -43.4 -7.95 -37.25 -8.1 -31.15 -8.3 -29.8 -8.9 -28.5 -9.5 -24.55 -12.05 -20.6 -14.65 -17.65 -14.8 -14.75 -14.95 -9.5 -3.55 -4.25 7.75 -10.25 16.75 -16.3 25.7 -23.2 26.5 -30.15 27.25 -32.55 26.65 -34.95 26.05 -37.85 26.6 L-44.7 26.6 Q-47.2 26.0 -48.45 25.3 -49.2 24.7 -50.85 21.45 -51.7 19.65 -52.6 17.8 L-61.05 28.0 Q-65.2 21.85 -65.05 20.95 -64.9 20.05 -66.65 17.75 -68.45 15.45 -67.85 13.15;M-69.0 13.35 Q-68.4 10.95 -68.6 6.1 -68.85 1.25 -64.15 -6.25 -59.45 -13.8 -51.5 -11.15 -43.65 -8.55 -37.25 -8.7 -30.9 -8.9 -29.5 -9.55 -28.15 -10.15 -24.1 -12.8 -20.0 -15.5 -16.9 -15.65 -13.9 -15.8 -8.45 -4.0 -3.0 7.75 -9.25 17.1 -15.5 26.35 -22.65 27.2 -29.9 28.0 -32.4 27.35 -34.85 26.75 -37.9 27.3 L-45.0 27.3 Q-47.6 26.7 -48.9 25.95 -49.65 25.35 -51.35 21.95 -53.15 18.25 -59.25 31.85 L-61.95 28.75 Q-66.25 22.35 -66.1 21.45 -65.95 20.5 -67.75 18.1 -69.65 15.75 -69.0 13.35"/>
    </path>
  </g>
</svg>
