<?xml version="1.0" encoding="UTF-8" standalone="no"?>
<svg xmlns:xlink="http://www.w3.org/1999/xlink" height="53.25px" width="70.75px" xmlns="http://www.w3.org/2000/svg">
  <g transform="matrix(1.0, 0.0, 0.0, 1.0, 72.1, 17.65)">
    <path d="M-71.0 18.25 L-71.0 18.25 Q-67.55 32.95 -60.75 33.85 L-60.65 33.85 -49.4 35.3 -49.3 35.3 Q-44.95 35.95 -42.2 35.25 L-42.1 35.25 Q-39.5 34.6 -38.0 33.0 -36.65 31.4 -29.65 31.25 L-29.45 31.25 -15.6 30.45 -15.4 30.45 Q-9.25 29.8 -7.65 29.2 L-7.4 29.1 Q-6.25 28.45 -4.6 25.15 L-4.5 24.95 Q-2.8 21.6 -1.95 18.35 L-1.85 18.15 Q-1.0 15.0 -1.65 12.2 L-1.75 11.9 Q-2.55 9.05 -3.9 5.55 L-4.0 5.25 -8.2 -5.6 -8.3 -5.9 Q-10.1 -10.75 -14.8 -14.3 L-15.1 -14.5 Q-19.7 -17.85 -22.2 -17.6 L-22.6 -17.55 Q-24.85 -17.0 -30.3 -13.55 -30.9 -13.2 -31.55 -12.8 L-38.85 -15.5 -41.2 -16.35 Q-43.4 -17.1 -48.8 -17.3 -51.5 -17.2 -54.15 -17.1 -59.15 -15.85 -64.3 -10.0 L-66.65 -7.1 Q-67.85 -5.2 -69.0 -3.35 -73.9 5.95 -71.0 18.25" fill="#ffffff" fill-opacity="0.4" fill-rule="evenodd" stroke="none">
      <animate attributeName="fill" dur="2s" repeatCount="indefinite" values="#ffffff;#ffffff"/>
      <animate attributeName="fill-opacity" dur="2s" repeatCount="indefinite" values="0.4;0.4"/>
      <animate attributeName="d" dur="2s" repeatCount="indefinite" values="M-71.0 18.25 L-71.0 18.25 Q-67.55 32.95 -60.75 33.85 L-60.65 33.85 -49.4 35.3 -49.3 35.3 Q-44.95 35.95 -42.2 35.25 L-42.1 35.25 Q-39.5 34.6 -38.0 33.0 -36.65 31.4 -29.65 31.25 L-29.45 31.25 -15.6 30.45 -15.4 30.45 Q-9.25 29.8 -7.65 29.2 L-7.4 29.1 Q-6.25 28.45 -4.6 25.15 L-4.5 24.95 Q-2.8 21.6 -1.95 18.35 L-1.85 18.15 Q-1.0 15.0 -1.65 12.2 L-1.75 11.9 Q-2.55 9.05 -3.9 5.55 L-4.0 5.25 -8.2 -5.6 -8.3 -5.9 Q-10.1 -10.75 -14.8 -14.3 L-15.1 -14.5 Q-19.7 -17.85 -22.2 -17.6 L-22.6 -17.55 Q-24.85 -17.0 -30.3 -13.55 -30.9 -13.2 -31.55 -12.8 L-38.85 -15.5 -41.2 -16.35 Q-43.4 -17.1 -48.8 -17.3 -51.5 -17.2 -54.15 -17.1 -59.15 -15.85 -64.3 -10.0 L-66.65 -7.1 Q-67.85 -5.2 -69.0 -3.35 -73.9 5.95 -71.0 18.25;M-71.0 18.25 L-71.0 18.35 Q-67.55 33.05 -60.65 33.85 L-60.55 33.85 -49.3 35.3 -49.1 35.3 Q-44.8 35.95 -42.1 35.25 L-41.9 35.25 Q-39.35 34.5 -37.9 32.9 -36.4 31.4 -29.45 31.25 L-29.25 31.25 -15.4 30.45 -15.1 30.45 Q-8.6 29.75 -7.4 29.1 L-7.2 29.0 Q-6.05 28.2 -4.5 24.95 L-4.4 24.75 Q-2.7 21.4 -1.85 18.15 L-1.75 17.85 Q-1.0 14.75 -1.75 11.9 L-1.85 11.7 Q-2.65 8.8 -4.0 5.25 L-4.1 5.05 -8.3 -5.9 -8.4 -6.2 Q-10.3 -11.0 -15.1 -14.5 L-15.4 -14.7 Q-20.15 -18.15 -22.6 -17.55 L-23.0 -17.45 Q-27.45 -16.9 -31.9 -16.35 -32.65 -16.35 -33.4 -16.35 L-41.2 -16.35 -43.55 -16.85 Q-47.45 -17.15 -51.35 -17.4 -52.6 -17.4 -56.7 -16.15 -65.7 -16.5 -67.7 -11.5 L-68.9 -7.85 Q-69.45 -5.3 -68.95 -3.45 -73.95 5.85 -71.0 18.25"/>
    </path>
    <path d="M-71.0 18.25 Q-73.9 5.95 -69.0 -3.35 -67.85 -5.2 -66.65 -7.1 L-64.3 -10.0 Q-59.15 -15.85 -54.15 -17.1 -51.5 -17.2 -48.8 -17.3 -43.4 -17.1 -41.2 -16.35 L-38.85 -15.5 -31.55 -12.8 Q-30.9 -13.2 -30.3 -13.55 -24.85 -17.0 -22.6 -17.55 L-22.2 -17.6 Q-19.7 -17.85 -15.1 -14.5 L-14.8 -14.3 Q-10.1 -10.75 -8.3 -5.9 L-8.2 -5.6 -4.0 5.25 -3.9 5.55 Q-2.55 9.05 -1.75 11.9 L-1.65 12.2 Q-1.0 15.0 -1.85 18.15 L-1.95 18.35 Q-2.8 21.6 -4.5 24.95 L-4.6 25.15 Q-6.25 28.45 -7.4 29.1 L-7.65 29.2 Q-9.25 29.8 -15.4 30.45 L-15.6 30.45 -29.45 31.25 -29.65 31.25 Q-36.65 31.4 -38.0 33.0 -39.5 34.6 -42.1 35.25 L-42.2 35.25 Q-44.95 35.95 -49.3 35.3 L-49.4 35.3 -60.65 33.85 -60.75 33.85 Q-67.55 32.95 -71.0 18.25 L-71.0 18.25" fill="none" stroke="#000000" stroke-linecap="round" stroke-linejoin="round" stroke-opacity="0.0" stroke-width="1.0">
      <animate attributeName="stroke" dur="2s" repeatCount="indefinite" values="#000000;#000001"/>
      <animate attributeName="stroke-width" dur="2s" repeatCount="indefinite" values="0.0;0.0"/>
      <animate attributeName="fill-opacity" dur="2s" repeatCount="indefinite" values="0.0;0.0"/>
      <animate attributeName="d" dur="2s" repeatCount="indefinite" values="M-71.0 18.25 Q-73.9 5.95 -69.0 -3.35 -67.85 -5.2 -66.65 -7.1 L-64.3 -10.0 Q-59.15 -15.85 -54.15 -17.1 -51.5 -17.2 -48.8 -17.3 -43.4 -17.1 -41.2 -16.35 L-38.85 -15.5 -31.55 -12.8 Q-30.9 -13.2 -30.3 -13.55 -24.85 -17.0 -22.6 -17.55 L-22.2 -17.6 Q-19.7 -17.85 -15.1 -14.5 L-14.8 -14.3 Q-10.1 -10.75 -8.3 -5.9 L-8.2 -5.6 -4.0 5.25 -3.9 5.55 Q-2.55 9.05 -1.75 11.9 L-1.65 12.2 Q-1.0 15.0 -1.85 18.15 L-1.95 18.35 Q-2.8 21.6 -4.5 24.95 L-4.6 25.15 Q-6.25 28.45 -7.4 29.1 L-7.65 29.2 Q-9.25 29.8 -15.4 30.45 L-15.6 30.45 -29.45 31.25 -29.65 31.25 Q-36.65 31.4 -38.0 33.0 -39.5 34.6 -42.1 35.25 L-42.2 35.25 Q-44.95 35.95 -49.3 35.3 L-49.4 35.3 -60.65 33.85 -60.75 33.85 Q-67.55 32.95 -71.0 18.25 L-71.0 18.25;M-71.0 18.25 Q-73.95 5.85 -68.95 -3.45 -69.45 -5.3 -68.9 -7.85 L-67.7 -11.5 Q-65.7 -16.5 -56.7 -16.15 -52.6 -17.4 -51.35 -17.4 -47.45 -17.15 -43.55 -16.85 L-41.2 -16.35 -33.4 -16.35 Q-32.65 -16.35 -31.9 -16.35 -27.45 -16.9 -23.0 -17.45 L-22.6 -17.55 Q-20.15 -18.15 -15.4 -14.7 L-15.1 -14.5 Q-10.3 -11.0 -8.4 -6.2 L-8.3 -5.9 -4.1 5.05 -4.0 5.25 Q-2.65 8.8 -1.85 11.7 L-1.75 11.9 Q-1.0 14.75 -1.75 17.85 L-1.85 18.15 Q-2.7 21.4 -4.4 24.75 L-4.5 24.95 Q-6.05 28.2 -7.2 29.0 L-7.4 29.1 Q-8.6 29.75 -15.1 30.45 L-15.4 30.45 -29.25 31.25 -29.45 31.25 Q-36.4 31.4 -37.9 32.9 -39.35 34.5 -41.9 35.25 L-42.1 35.25 Q-44.8 35.95 -49.1 35.3 L-49.3 35.3 -60.55 33.85 -60.65 33.85 Q-67.55 33.05 -71.0 18.35 L-71.0 18.25"/>
    </path>
  </g>
</svg>
