<?xml version="1.0" encoding="UTF-8" standalone="no"?>
<svg xmlns:xlink="http://www.w3.org/1999/xlink" height="47.5px" width="25.8px" xmlns="http://www.w3.org/2000/svg">
  <g transform="matrix(1.0, 0.0, 0.0, 1.0, 0.05, 46.65)">
    <path d="M5.25 -12.2 Q5.05 -10.7 4.9 -9.2 4.45 -7.1 3.55 -5.05 L3.1 -4.05 2.2 -2.35 0.2 0.85 0.2 0.85 Q-0.3 -1.95 0.2 -4.9 0.55 -6.9 1.3 -9.0 1.85 -10.35 2.75 -11.4 3.25 -12.0 4.95 -12.35 L5.25 -12.2" fill="#ffffff" fill-opacity="0.69803923" fill-rule="evenodd" stroke="none">
      <animate attributeName="fill" dur="2s" repeatCount="indefinite" values="#ffffff;#ffffff"/>
      <animate attributeName="fill-opacity" dur="2s" repeatCount="indefinite" values="0.69803923;0.69803923"/>
      <animate attributeName="d" dur="2s" repeatCount="indefinite" values="M5.25 -12.2 Q5.05 -10.7 4.9 -9.2 4.45 -7.1 3.55 -5.05 L3.1 -4.05 2.2 -2.35 0.2 0.85 0.2 0.85 Q-0.3 -1.95 0.2 -4.9 0.55 -6.9 1.3 -9.0 1.85 -10.35 2.75 -11.4 3.25 -12.0 4.95 -12.35 L5.25 -12.2;M25.45 -46.65 Q26.85 -41.6 22.05 -36.95 16.95 -32.05 12.6 -26.45 L10.9 -23.2 7.65 -17.55 1.95 -7.2 1.6 -7.15 Q4.0 -15.35 8.4 -22.85 11.2 -28.3 14.6 -33.55 16.9 -36.85 19.2 -40.15 20.7 -42.15 24.55 -45.9 L25.45 -46.65"/>
    </path>
    <path d="M5.25 -12.2 L4.95 -12.35 Q3.25 -12.0 2.75 -11.4 1.85 -10.35 1.3 -9.0 0.55 -6.9 0.2 -4.9 -0.3 -1.95 0.2 0.85 L0.2 0.85 2.2 -2.35 3.1 -4.05 3.55 -5.05 Q4.45 -7.1 4.9 -9.2 5.05 -10.7 5.25 -12.2" fill="none" stroke="#000000" stroke-linecap="round" stroke-linejoin="round" stroke-opacity="0.0" stroke-width="1.0">
      <animate attributeName="stroke" dur="2s" repeatCount="indefinite" values="#000000;#000001"/>
      <animate attributeName="stroke-width" dur="2s" repeatCount="indefinite" values="0.0;0.0"/>
      <animate attributeName="fill-opacity" dur="2s" repeatCount="indefinite" values="0.0;0.0"/>
      <animate attributeName="d" dur="2s" repeatCount="indefinite" values="M5.25 -12.2 L4.95 -12.35 Q3.25 -12.0 2.75 -11.4 1.85 -10.35 1.3 -9.0 0.55 -6.9 0.2 -4.9 -0.3 -1.95 0.2 0.85 L0.2 0.85 2.2 -2.35 3.1 -4.05 3.55 -5.05 Q4.45 -7.1 4.9 -9.2 5.05 -10.7 5.25 -12.2;M25.45 -46.65 L24.55 -45.9 Q20.7 -42.15 19.2 -40.15 16.9 -36.85 14.6 -33.55 11.2 -28.3 8.4 -22.85 4.0 -15.35 1.6 -7.15 L1.95 -7.2 7.65 -17.55 10.9 -23.2 12.6 -26.45 Q16.95 -32.05 22.05 -36.95 26.85 -41.6 25.45 -46.65"/>
    </path>
  </g>
</svg>
