<?xml version="1.0" encoding="UTF-8" standalone="no"?>
<svg xmlns:xlink="http://www.w3.org/1999/xlink" height="21.7px" width="7.1px" xmlns="http://www.w3.org/2000/svg">
  <g transform="matrix(1.0, 0.0, 0.0, 1.0, 0.05, 6.95)">
    <path d="M3.1 -6.35 Q3.0 -6.65 2.95 -6.95 L1.85 -5.95 Q0.65 -4.5 0.35 -2.35 L0.1 -0.7 Q0.0 0.7 -0.05 2.05 L0.15 3.4 0.6 4.3 Q1.0 4.9 2.7 5.2 3.85 5.25 4.1 1.1 4.0 -1.65 3.55 -4.25 3.3 -5.3 3.1 -6.35" fill="#ebf7fd" fill-opacity="0.6" fill-rule="evenodd" stroke="none">
      <animate attributeName="fill" dur="2s" repeatCount="indefinite" values="#ebf7fd;#ebf7fe"/>
      <animate attributeName="fill-opacity" dur="2s" repeatCount="indefinite" values="0.6;0.6"/>
      <animate attributeName="d" dur="2s" repeatCount="indefinite" values="M3.1 -6.35 Q3.0 -6.65 2.95 -6.95 L1.85 -5.95 Q0.65 -4.5 0.35 -2.35 L0.1 -0.7 Q0.0 0.7 -0.05 2.05 L0.15 3.4 0.6 4.3 Q1.0 4.9 2.7 5.2 3.85 5.25 4.1 1.1 4.0 -1.65 3.55 -4.25 3.3 -5.3 3.1 -6.35;M1.3 0.9 Q1.0 0.85 0.85 1.4 L0.65 3.1 Q0.6 5.95 0.9 7.95 L1.3 9.85 Q1.85 11.55 3.0 12.85 L4.0 13.85 5.1 14.6 Q6.15 15.15 7.05 13.6 7.1 12.5 5.35 8.5 4.05 5.7 2.75 2.9 1.8 0.95 1.3 0.9"/>
    </path>
    <path d="M3.1 -6.35 Q3.3 -5.3 3.55 -4.25 4.0 -1.65 4.1 1.1 3.85 5.25 2.7 5.2 1.0 4.9 0.6 4.3 L0.15 3.4 -0.05 2.05 Q0.0 0.7 0.1 -0.7 L0.35 -2.35 Q0.65 -4.5 1.85 -5.95 L2.95 -6.95 Q3.0 -6.65 3.1 -6.35" fill="none" stroke="#000000" stroke-linecap="round" stroke-linejoin="round" stroke-opacity="0.0" stroke-width="1.0">
      <animate attributeName="stroke" dur="2s" repeatCount="indefinite" values="#000000;#000001"/>
      <animate attributeName="stroke-width" dur="2s" repeatCount="indefinite" values="0.0;0.0"/>
      <animate attributeName="fill-opacity" dur="2s" repeatCount="indefinite" values="0.0;0.0"/>
      <animate attributeName="d" dur="2s" repeatCount="indefinite" values="M3.1 -6.35 Q3.3 -5.3 3.55 -4.25 4.0 -1.65 4.1 1.1 3.85 5.25 2.7 5.2 1.0 4.9 0.6 4.3 L0.15 3.4 -0.05 2.05 Q0.0 0.7 0.1 -0.7 L0.35 -2.35 Q0.65 -4.5 1.85 -5.95 L2.95 -6.95 Q3.0 -6.65 3.1 -6.35;M1.3 0.9 Q1.8 0.95 2.75 2.9 4.05 5.7 5.35 8.5 7.1 12.5 7.05 13.6 6.15 15.15 5.1 14.6 L4.0 13.85 3.0 12.85 Q1.85 11.55 1.3 9.85 L0.9 7.95 Q0.6 5.95 0.65 3.1 L0.85 1.4 Q1.0 0.85 1.3 0.9"/>
    </path>
  </g>
</svg>
