<?xml version="1.0" encoding="UTF-8" standalone="no"?>
<svg xmlns:xlink="http://www.w3.org/1999/xlink" height="46.35px" width="37.8px" xmlns="http://www.w3.org/2000/svg">
  <g transform="matrix(1.0, 0.0, 0.0, 1.0, 35.8, 45.3)">
    <path d="M-9.85 -17.2 Q-8.05 -12.0 -5.3 -9.8 -3.4 -8.6 -2.8 -6.4 -1.65 -2.05 -0.05 1.05 2.1 -0.15 2.0 -2.75 1.7 -11.4 -4.55 -17.1 -11.65 -22.4 -9.85 -17.2" fill="#ffffff" fill-opacity="0.69803923" fill-rule="evenodd" stroke="none">
      <animate attributeName="fill" dur="2s" repeatCount="indefinite" values="#ffffff;#ffffff"/>
      <animate attributeName="fill-opacity" dur="2s" repeatCount="indefinite" values="0.69803923;0.69803923"/>
      <animate attributeName="d" dur="2s" repeatCount="indefinite" values="M-9.85 -17.2 Q-8.05 -12.0 -5.3 -9.8 -3.4 -8.6 -2.8 -6.4 -1.65 -2.05 -0.05 1.05 2.1 -0.15 2.0 -2.75 1.7 -11.4 -4.55 -17.1 -11.65 -22.4 -9.85 -17.2;M-34.85 -44.65 Q-38.5 -42.85 -27.8 -36.0 -23.75 -35.2 -20.85 -30.0 -17.95 -24.85 -7.3 -10.65 3.3 3.5 -7.8 -18.4 -18.95 -40.3 -27.2 -42.95 -31.25 -46.5 -34.85 -44.65"/>
    </path>
    <path d="M-9.85 -17.2 Q-11.65 -22.4 -4.55 -17.1 1.7 -11.4 2.0 -2.75 2.1 -0.15 -0.05 1.05 -1.65 -2.05 -2.8 -6.4 -3.4 -8.6 -5.3 -9.8 -8.05 -12.0 -9.85 -17.2" fill="none" stroke="#000000" stroke-linecap="round" stroke-linejoin="round" stroke-opacity="0.0" stroke-width="1.0">
      <animate attributeName="stroke" dur="2s" repeatCount="indefinite" values="#000000;#000001"/>
      <animate attributeName="stroke-width" dur="2s" repeatCount="indefinite" values="0.0;0.0"/>
      <animate attributeName="fill-opacity" dur="2s" repeatCount="indefinite" values="0.0;0.0"/>
      <animate attributeName="d" dur="2s" repeatCount="indefinite" values="M-9.85 -17.2 Q-11.65 -22.4 -4.55 -17.1 1.7 -11.4 2.0 -2.75 2.1 -0.15 -0.05 1.05 -1.65 -2.05 -2.8 -6.4 -3.4 -8.6 -5.3 -9.8 -8.05 -12.0 -9.85 -17.2;M-34.85 -44.65 Q-31.25 -46.5 -27.2 -42.95 -18.95 -40.3 -7.8 -18.4 3.3 3.5 -7.3 -10.65 -17.95 -24.85 -20.85 -30.0 -23.75 -35.2 -27.8 -36.0 -38.5 -42.85 -34.85 -44.65"/>
    </path>
  </g>
</svg>
