<?xml version="1.0" encoding="UTF-8" standalone="no"?>
<svg xmlns:xlink="http://www.w3.org/1999/xlink" height="24.8px" width="89.05px" xmlns="http://www.w3.org/2000/svg">
  <g transform="matrix(1.0, 0.0, 0.0, 1.0, 128.1, 58.6)">
    <path d="M-96.4 -51.15 Q-95.45 -51.65 -94.5 -52.15 -92.35 -53.1 -89.1 -53.85 -84.25 -55.05 -77.0 -55.9 L-71.15 -56.15 Q-57.85 -55.95 -39.05 -50.45 -44.05 -55.7 -64.8 -57.75 -88.3 -60.0 -93.7 -56.2 -99.15 -52.45 -96.4 -51.15" fill="#ffffff" fill-opacity="0.69803923" fill-rule="evenodd" stroke="none">
      <animate attributeName="fill" dur="2s" repeatCount="indefinite" values="#ffffff;#ffffff"/>
      <animate attributeName="fill-opacity" dur="2s" repeatCount="indefinite" values="0.69803923;0.0"/>
      <animate attributeName="d" dur="2s" repeatCount="indefinite" values="M-96.4 -51.15 Q-95.45 -51.65 -94.5 -52.15 -92.35 -53.1 -89.1 -53.85 -84.25 -55.05 -77.0 -55.9 L-71.15 -56.15 Q-57.85 -55.95 -39.05 -50.45 -44.05 -55.7 -64.8 -57.75 -88.3 -60.0 -93.7 -56.2 -99.15 -52.45 -96.4 -51.15;M-128.1 -34.2 Q-127.45 -33.55 -126.25 -34.0 -125.1 -34.45 -122.6 -36.6 -118.45 -39.55 -114.35 -42.5 L-110.3 -45.2 Q-100.85 -51.35 -81.55 -54.7 -86.3 -58.35 -103.25 -50.1 -115.7 -44.05 -123.6 -38.0 -125.85 -36.1 -128.1 -34.2"/>
    </path>
    <path d="M-96.4 -51.15 Q-99.15 -52.45 -93.7 -56.2 -88.3 -60.0 -64.8 -57.75 -44.05 -55.7 -39.05 -50.45 -57.85 -55.95 -71.15 -56.15 L-77.0 -55.9 Q-84.25 -55.05 -89.1 -53.85 -92.35 -53.1 -94.5 -52.15 -95.45 -51.65 -96.4 -51.15" fill="none" stroke="#000000" stroke-linecap="round" stroke-linejoin="round" stroke-opacity="0.0" stroke-width="1.0">
      <animate attributeName="stroke" dur="2s" repeatCount="indefinite" values="#000000;#000001"/>
      <animate attributeName="stroke-width" dur="2s" repeatCount="indefinite" values="0.0;0.0"/>
      <animate attributeName="fill-opacity" dur="2s" repeatCount="indefinite" values="0.0;0.0"/>
      <animate attributeName="d" dur="2s" repeatCount="indefinite" values="M-96.4 -51.15 Q-99.15 -52.45 -93.7 -56.2 -88.3 -60.0 -64.8 -57.75 -44.05 -55.7 -39.05 -50.45 -57.85 -55.95 -71.15 -56.15 L-77.0 -55.9 Q-84.25 -55.05 -89.1 -53.85 -92.35 -53.1 -94.5 -52.15 -95.45 -51.65 -96.4 -51.15;M-128.1 -34.2 Q-125.85 -36.1 -123.6 -38.0 -115.7 -44.05 -103.25 -50.1 -86.3 -58.35 -81.55 -54.7 -100.85 -51.35 -110.3 -45.2 L-114.35 -42.5 Q-118.45 -39.55 -122.6 -36.6 -125.1 -34.45 -126.25 -34.0 -127.45 -33.55 -128.1 -34.2"/>
    </path>
  </g>
</svg>
