<?xml version="1.0" encoding="UTF-8" standalone="no"?>
<svg xmlns:xlink="http://www.w3.org/1999/xlink" height="38.35px" width="87.05px" xmlns="http://www.w3.org/2000/svg">
  <g transform="matrix(1.0, 0.0, 0.0, 1.0, 97.3, 58.55)">
    <path d="M-70.5 -55.25 L-70.4 -55.25 Q-63.7 -53.45 -57.0 -51.65 L-49.8 -50.5 Q-48.6 -50.3 -46.2 -48.85 -39.9 -44.95 -25.05 -32.0 L-22.2 -29.5 Q-18.95 -26.7 -15.7 -23.9 -7.5 -17.15 -11.6 -22.75 -13.9 -25.95 -20.15 -33.15 -28.0 -42.2 -35.75 -47.9 -48.6 -57.35 -61.2 -57.75 -65.85 -57.8 -70.5 -57.8 -78.2 -57.45 -70.5 -55.25" fill="#ffffff" fill-opacity="0.69803923" fill-rule="evenodd" stroke="none">
      <animate attributeName="fill" dur="2s" repeatCount="indefinite" values="#ffffff;#ffffff"/>
      <animate attributeName="fill-opacity" dur="2s" repeatCount="indefinite" values="0.69803923;0.69803923"/>
      <animate attributeName="d" dur="2s" repeatCount="indefinite" values="M-70.5 -55.25 L-70.4 -55.25 Q-63.7 -53.45 -57.0 -51.65 L-49.8 -50.5 Q-48.6 -50.3 -46.2 -48.85 -39.9 -44.95 -25.05 -32.0 L-22.2 -29.5 Q-18.95 -26.7 -15.7 -23.9 -7.5 -17.15 -11.6 -22.75 -13.9 -25.95 -20.15 -33.15 -28.0 -42.2 -35.75 -47.9 -48.6 -57.35 -61.2 -57.75 -65.85 -57.8 -70.5 -57.8 -78.2 -57.45 -70.5 -55.25;M-96.4 -51.15 L-96.4 -51.15 Q-93.15 -52.95 -86.35 -54.35 L-80.4 -55.4 Q-78.7 -55.65 -77.05 -55.9 -62.85 -57.8 -53.8 -54.8 L-50.7 -53.8 Q-44.65 -51.95 -44.05 -52.3 -43.35 -52.8 -39.0 -47.45 -38.75 -51.85 -46.95 -54.55 -52.9 -56.5 -63.4 -57.55 -74.95 -57.9 -86.5 -58.25 -91.6 -57.7 -93.7 -56.2 -99.15 -52.45 -96.4 -51.15"/>
    </path>
    <path d="M-70.5 -55.25 Q-78.2 -57.45 -70.5 -57.8 -65.85 -57.8 -61.2 -57.75 -48.6 -57.35 -35.75 -47.9 -28.0 -42.2 -20.15 -33.15 -13.9 -25.95 -11.6 -22.75 -7.5 -17.15 -15.7 -23.9 -18.95 -26.7 -22.2 -29.5 L-25.05 -32.0 Q-39.9 -44.95 -46.2 -48.85 -48.6 -50.3 -49.8 -50.5 L-57.0 -51.65 Q-63.7 -53.45 -70.4 -55.25 L-70.5 -55.25" fill="none" stroke="#000000" stroke-linecap="round" stroke-linejoin="round" stroke-opacity="0.0" stroke-width="1.0">
      <animate attributeName="stroke" dur="2s" repeatCount="indefinite" values="#000000;#000001"/>
      <animate attributeName="stroke-width" dur="2s" repeatCount="indefinite" values="0.0;0.0"/>
      <animate attributeName="fill-opacity" dur="2s" repeatCount="indefinite" values="0.0;0.0"/>
      <animate attributeName="d" dur="2s" repeatCount="indefinite" values="M-70.5 -55.25 Q-78.2 -57.45 -70.5 -57.8 -65.85 -57.8 -61.2 -57.75 -48.6 -57.35 -35.75 -47.9 -28.0 -42.2 -20.15 -33.15 -13.9 -25.95 -11.6 -22.75 -7.5 -17.15 -15.7 -23.9 -18.95 -26.7 -22.2 -29.5 L-25.05 -32.0 Q-39.9 -44.95 -46.2 -48.85 -48.6 -50.3 -49.8 -50.5 L-57.0 -51.65 Q-63.7 -53.45 -70.4 -55.25 L-70.5 -55.25;M-96.4 -51.15 Q-99.15 -52.45 -93.7 -56.2 -91.6 -57.7 -86.5 -58.25 -74.95 -57.9 -63.4 -57.55 -52.9 -56.5 -46.95 -54.55 -38.75 -51.85 -39.0 -47.45 -43.35 -52.8 -44.05 -52.3 -44.65 -51.95 -50.7 -53.8 L-53.8 -54.8 Q-62.85 -57.8 -77.05 -55.9 -78.7 -55.65 -80.4 -55.4 L-86.35 -54.35 Q-93.15 -52.95 -96.4 -51.15 L-96.4 -51.15"/>
    </path>
  </g>
</svg>
