<?xml version="1.0" encoding="UTF-8" standalone="no"?>
<svg xmlns:xlink="http://www.w3.org/1999/xlink" height="22.0px" width="80.6px" xmlns="http://www.w3.org/2000/svg">
  <g transform="matrix(1.0, 0.0, 0.0, 1.0, 119.6, 58.8)">
    <path d="M-96.4 -51.15 Q-95.35 -51.65 -94.3 -52.1 -91.55 -52.95 -88.85 -53.8 -84.05 -54.95 -77.05 -55.9 L-70.65 -56.55 Q-60.75 -57.1 -53.8 -54.8 -44.8 -51.85 -44.05 -52.3 -43.35 -52.8 -39.0 -47.45 -38.9 -48.8 -39.6 -50.0 -42.95 -55.55 -64.65 -57.65 -88.45 -59.9 -93.7 -56.2 -99.15 -52.45 -96.4 -51.15" fill="#ffffff" fill-opacity="0.69803923" fill-rule="evenodd" stroke="none">
      <animate attributeName="fill" dur="2s" repeatCount="indefinite" values="#ffffff;#ffffff"/>
      <animate attributeName="fill-opacity" dur="2s" repeatCount="indefinite" values="0.69803923;0.0"/>
      <animate attributeName="d" dur="2s" repeatCount="indefinite" values="M-96.4 -51.15 Q-95.35 -51.65 -94.3 -52.1 -91.55 -52.95 -88.85 -53.8 -84.05 -54.95 -77.05 -55.9 L-70.65 -56.55 Q-60.75 -57.1 -53.8 -54.8 -44.8 -51.85 -44.05 -52.3 -43.35 -52.8 -39.0 -47.45 -38.9 -48.8 -39.6 -50.0 -42.95 -55.55 -64.65 -57.65 -88.45 -59.9 -93.7 -56.2 -99.15 -52.45 -96.4 -51.15;M-119.6 -37.2 Q-118.95 -36.55 -117.75 -37.0 -116.6 -37.45 -114.1 -39.6 -112.25 -41.25 -106.1 -45.35 L-101.8 -48.2 Q-96.65 -51.55 -89.0 -54.0 -85.4 -55.15 -81.25 -56.1 -78.2 -56.7 -75.2 -57.3 -74.1 -57.5 -73.05 -57.7 -77.65 -61.25 -94.35 -53.3 -107.05 -47.15 -115.1 -41.0 -117.35 -39.1 -119.6 -37.2"/>
    </path>
    <path d="M-96.4 -51.15 Q-99.15 -52.45 -93.7 -56.2 -88.45 -59.9 -64.65 -57.65 -42.95 -55.55 -39.6 -50.0 -38.9 -48.8 -39.0 -47.45 -43.35 -52.8 -44.05 -52.3 -44.8 -51.85 -53.8 -54.8 -60.75 -57.1 -70.65 -56.55 L-77.05 -55.9 Q-84.05 -54.95 -88.85 -53.8 -91.55 -52.95 -94.3 -52.1 -95.35 -51.65 -96.4 -51.15" fill="none" stroke="#000000" stroke-linecap="round" stroke-linejoin="round" stroke-opacity="0.0" stroke-width="1.0">
      <animate attributeName="stroke" dur="2s" repeatCount="indefinite" values="#000000;#000001"/>
      <animate attributeName="stroke-width" dur="2s" repeatCount="indefinite" values="0.0;0.0"/>
      <animate attributeName="fill-opacity" dur="2s" repeatCount="indefinite" values="0.0;0.0"/>
      <animate attributeName="d" dur="2s" repeatCount="indefinite" values="M-96.4 -51.15 Q-99.15 -52.45 -93.7 -56.2 -88.45 -59.9 -64.65 -57.65 -42.95 -55.55 -39.6 -50.0 -38.9 -48.8 -39.0 -47.45 -43.35 -52.8 -44.05 -52.3 -44.8 -51.85 -53.8 -54.8 -60.75 -57.1 -70.65 -56.55 L-77.05 -55.9 Q-84.05 -54.95 -88.85 -53.8 -91.55 -52.95 -94.3 -52.1 -95.35 -51.65 -96.4 -51.15;M-119.6 -37.2 Q-117.35 -39.1 -115.1 -41.0 -107.05 -47.15 -94.35 -53.3 -77.65 -61.25 -73.05 -57.7 -74.1 -57.5 -75.2 -57.3 -78.2 -56.7 -81.25 -56.1 -85.4 -55.15 -89.0 -54.0 -96.65 -51.55 -101.8 -48.2 L-106.1 -45.35 Q-112.25 -41.25 -114.1 -39.6 -116.6 -37.45 -117.75 -37.0 -118.95 -36.55 -119.6 -37.2"/>
    </path>
  </g>
</svg>
