<?xml version="1.0" encoding="UTF-8" standalone="no"?>
<svg xmlns:xlink="http://www.w3.org/1999/xlink" height="48.45px" width="9.7px" xmlns="http://www.w3.org/2000/svg">
  <g transform="matrix(1.0, 0.0, 0.0, 1.0, 1.85, -3.85)">
    <path d="M2.5 47.05 Q1.95 52.05 3.8 51.5 5.65 50.95 4.6 45.6 4.4 43.55 4.9 32.35 5.4 21.15 4.75 3.85 4.05 20.3 3.4 36.75 2.95 41.9 2.5 47.05" fill="#ffffff" fill-opacity="0.4" fill-rule="evenodd" stroke="none">
      <animate attributeName="fill" dur="2s" repeatCount="indefinite" values="#ffffff;#ffffff"/>
      <animate attributeName="fill-opacity" dur="2s" repeatCount="indefinite" values="0.4;0.4"/>
      <animate attributeName="d" dur="2s" repeatCount="indefinite" values="M2.5 47.05 Q1.95 52.05 3.8 51.5 5.65 50.95 4.6 45.6 4.4 43.55 4.9 32.35 5.4 21.15 4.75 3.85 4.05 20.3 3.4 36.75 2.95 41.9 2.5 47.05;M-1.6 51.55 Q-3.0 52.7 3.5 52.1 10.0 51.45 6.75 46.9 4.4 43.55 4.9 32.35 5.4 21.15 3.75 22.85 2.65 42.5 1.2 46.4 -0.25 50.35 -1.6 51.55"/>
    </path>
    <path d="M2.5 47.05 Q2.95 41.9 3.4 36.75 4.05 20.3 4.75 3.85 5.4 21.15 4.9 32.35 4.4 43.55 4.6 45.6 5.65 50.95 3.8 51.5 1.95 52.05 2.5 47.05" fill="none" stroke="#000000" stroke-linecap="round" stroke-linejoin="round" stroke-opacity="0.0" stroke-width="1.0">
      <animate attributeName="stroke" dur="2s" repeatCount="indefinite" values="#000000;#000001"/>
      <animate attributeName="stroke-width" dur="2s" repeatCount="indefinite" values="0.0;0.0"/>
      <animate attributeName="fill-opacity" dur="2s" repeatCount="indefinite" values="0.0;0.0"/>
      <animate attributeName="d" dur="2s" repeatCount="indefinite" values="M2.5 47.05 Q2.95 41.9 3.4 36.75 4.05 20.3 4.75 3.85 5.4 21.15 4.9 32.35 4.4 43.55 4.6 45.6 5.65 50.95 3.8 51.5 1.95 52.05 2.5 47.05;M-1.6 51.55 Q-0.25 50.35 1.2 46.4 2.65 42.5 3.75 22.85 5.4 21.15 4.9 32.35 4.4 43.55 6.75 46.9 10.0 51.45 3.5 52.1 -3.0 52.7 -1.6 51.55"/>
    </path>
  </g>
</svg>
