<?xml version="1.0" encoding="UTF-8" standalone="no"?>
<svg xmlns:xlink="http://www.w3.org/1999/xlink" height="78.35px" width="4.45px" xmlns="http://www.w3.org/2000/svg">
  <g transform="matrix(1.0, 0.0, 0.0, 1.0, -5.65, 28.35)">
    <path d="M8.25 -11.15 Q8.3 -3.9 8.3 3.3 6.95 8.55 8.65 8.6 10.3 8.6 10.1 4.05 9.95 -2.2 9.85 -8.4 9.95 -18.4 10.0 -28.35 8.2 -22.7 8.25 -11.15" fill="#ffffff" fill-opacity="0.4" fill-rule="evenodd" stroke="none">
      <animate attributeName="fill" dur="2s" repeatCount="indefinite" values="#ffffff;#ffffff"/>
      <animate attributeName="fill-opacity" dur="2s" repeatCount="indefinite" values="0.4;0.4"/>
      <animate attributeName="d" dur="2s" repeatCount="indefinite" values="M8.25 -11.15 Q8.3 -3.9 8.3 3.3 6.95 8.55 8.65 8.6 10.3 8.6 10.1 4.05 9.95 -2.2 9.85 -8.4 9.95 -18.4 10.0 -28.35 8.2 -22.7 8.25 -11.15;M6.2 43.95 Q4.9 49.2 6.7 49.9 8.5 50.6 8.25 45.55 8.05 40.35 7.85 35.2 7.75 29.9 8.2 2.25 6.65 19.45 6.6 30.7 6.5 41.9 6.2 43.95"/>
    </path>
    <path d="M8.25 -11.15 Q8.2 -22.7 10.0 -28.35 9.95 -18.4 9.85 -8.4 9.95 -2.2 10.1 4.05 10.3 8.6 8.65 8.6 6.95 8.55 8.3 3.3 8.3 -3.9 8.25 -11.15" fill="none" stroke="#000000" stroke-linecap="round" stroke-linejoin="round" stroke-opacity="0.0" stroke-width="1.0">
      <animate attributeName="stroke" dur="2s" repeatCount="indefinite" values="#000000;#000001"/>
      <animate attributeName="stroke-width" dur="2s" repeatCount="indefinite" values="0.0;0.0"/>
      <animate attributeName="fill-opacity" dur="2s" repeatCount="indefinite" values="0.0;0.0"/>
      <animate attributeName="d" dur="2s" repeatCount="indefinite" values="M8.25 -11.15 Q8.2 -22.7 10.0 -28.35 9.95 -18.4 9.85 -8.4 9.95 -2.2 10.1 4.05 10.3 8.6 8.65 8.6 6.95 8.55 8.3 3.3 8.3 -3.9 8.25 -11.15;M6.2 43.95 Q6.5 41.9 6.6 30.7 6.65 19.45 8.2 2.25 7.75 29.9 7.85 35.2 8.05 40.35 8.25 45.55 8.5 50.6 6.7 49.9 4.9 49.2 6.2 43.95"/>
    </path>
  </g>
</svg>
