<?xml version="1.0" encoding="UTF-8" standalone="no"?>
<svg xmlns:xlink="http://www.w3.org/1999/xlink" height="31.3px" width="16.6px" xmlns="http://www.w3.org/2000/svg">
  <g transform="matrix(1.0, 0.0, 0.0, 1.0, 0.95, -21.0)">
    <path d="M4.0 45.1 Q0.55 49.4 6.95 50.55 13.45 51.65 12.1 50.35 10.8 49.05 9.55 45.0 8.3 41.0 8.2 21.25 6.65 19.45 6.6 30.7 6.5 41.9 4.0 45.1" fill="#ffffff" fill-opacity="0.4" fill-rule="evenodd" stroke="none">
      <animate attributeName="fill" dur="2s" repeatCount="indefinite" values="#ffffff;#ffffff"/>
      <animate attributeName="fill-opacity" dur="2s" repeatCount="indefinite" values="0.4;0.0"/>
      <animate attributeName="d" dur="2s" repeatCount="indefinite" values="M4.0 45.1 Q0.55 49.4 6.95 50.55 13.45 51.65 12.1 50.35 10.8 49.05 9.55 45.0 8.3 41.0 8.2 21.25 6.65 19.45 6.6 30.7 6.5 41.9 4.0 45.1;M0.9 46.8 Q-4.6 48.9 6.15 51.15 16.95 53.4 15.5 51.3 14.1 49.1 12.1 47.85 10.15 46.55 8.45 33.2 6.8 19.8 6.6 32.3 6.45 44.75 0.9 46.8"/>
    </path>
    <path d="M4.0 45.1 Q6.5 41.9 6.6 30.7 6.65 19.45 8.2 21.25 8.3 41.0 9.55 45.0 10.8 49.05 12.1 50.35 13.45 51.65 6.95 50.55 0.55 49.4 4.0 45.1" fill="none" stroke="#000000" stroke-linecap="round" stroke-linejoin="round" stroke-opacity="0.0" stroke-width="1.0">
      <animate attributeName="stroke" dur="2s" repeatCount="indefinite" values="#000000;#000001"/>
      <animate attributeName="stroke-width" dur="2s" repeatCount="indefinite" values="0.0;0.0"/>
      <animate attributeName="fill-opacity" dur="2s" repeatCount="indefinite" values="0.0;0.0"/>
      <animate attributeName="d" dur="2s" repeatCount="indefinite" values="M4.0 45.1 Q6.5 41.9 6.6 30.7 6.65 19.45 8.2 21.25 8.3 41.0 9.55 45.0 10.8 49.05 12.1 50.35 13.45 51.65 6.95 50.55 0.55 49.4 4.0 45.1;M0.9 46.8 Q6.45 44.75 6.6 32.3 6.8 19.8 8.45 33.2 10.15 46.55 12.1 47.85 14.1 49.1 15.5 51.3 16.95 53.4 6.15 51.15 -4.6 48.9 0.9 46.8"/>
    </path>
  </g>
</svg>
