<?xml version="1.0" encoding="UTF-8" standalone="no"?>
<svg xmlns:xlink="http://www.w3.org/1999/xlink" height="15.6px" width="19.65px" xmlns="http://www.w3.org/2000/svg">
  <g transform="matrix(1.0, 0.0, 0.0, 1.0, 29.2, -5.5)">
    <path d="M-28.6 7.05 Q-23.15 7.1 -19.15 10.15 -13.05 14.55 -10.15 19.65 -9.75 14.8 -18.05 8.2 -24.85 4.65 -28.6 7.05" fill="#837f7e" fill-opacity="0.84705883" fill-rule="evenodd" stroke="none">
      <animate attributeName="fill" dur="2s" repeatCount="indefinite" values="#837f7e;#837f7f"/>
      <animate attributeName="fill-opacity" dur="2s" repeatCount="indefinite" values="0.84705883;0.84705883"/>
      <animate attributeName="d" dur="2s" repeatCount="indefinite" values="M-28.6 7.05 Q-23.15 7.1 -19.15 10.15 -13.05 14.55 -10.15 19.65 -9.75 14.8 -18.05 8.2 -24.85 4.65 -28.6 7.05;M-28.6 7.05 Q-28.1 13.35 -21.65 17.3 -13.5 22.1 -10.15 19.65 -9.75 14.8 -18.05 8.2 -24.85 4.65 -28.6 7.05"/>
    </path>
    <path d="M-28.6 7.05 Q-24.85 4.65 -18.05 8.2 -9.75 14.8 -10.15 19.65 -13.05 14.55 -19.15 10.15 -23.15 7.1 -28.6 7.05 -24.85 4.65 -18.05 8.2 -9.75 14.8 -10.15 19.65 -13.05 14.55 -19.15 10.15 -23.15 7.1 -28.6 7.05" fill="none" stroke="#242119" stroke-linecap="round" stroke-linejoin="round" stroke-width="1.2000000000000002">
      <animate attributeName="stroke" dur="2s" repeatCount="indefinite" values="#242119;#24211a"/>
      <animate attributeName="stroke-width" dur="2s" repeatCount="indefinite" values="1.2000000000000002;1.2000000000000002"/>
      <animate attributeName="fill-opacity" dur="2s" repeatCount="indefinite" values="1.0;1.0"/>
      <animate attributeName="d" dur="2s" repeatCount="indefinite" values="M-28.6 7.05 Q-24.85 4.65 -18.05 8.2 -9.75 14.8 -10.15 19.65 -13.05 14.55 -19.15 10.15 -23.15 7.1 -28.6 7.05 -24.85 4.65 -18.05 8.2 -9.75 14.8 -10.15 19.65 -13.05 14.55 -19.15 10.15 -23.15 7.1 -28.6 7.05;M-28.6 7.05 Q-24.85 4.65 -18.05 8.2 -9.75 14.8 -10.15 19.65 -13.5 22.1 -21.65 17.3 -28.1 13.35 -28.6 7.05 -24.85 4.65 -18.05 8.2 -9.75 14.8 -10.15 19.65 -13.5 22.1 -21.65 17.3 -28.1 13.35 -28.6 7.05"/>
    </path>
  </g>
</svg>
