<?xml version="1.0" encoding="UTF-8" standalone="no"?>
<svg xmlns:xlink="http://www.w3.org/1999/xlink" height="19.65px" width="8.15px" xmlns="http://www.w3.org/2000/svg">
  <g transform="matrix(1.0, 0.0, 0.0, 1.0, 4.75, 6.1)">
    <path d="M-4.75 9.65 L-4.75 9.75 Q-4.7 10.35 -3.85 11.0 L-3.5 11.25 Q-2.75 11.7 -2.0 11.7 L-1.8 11.7 Q-0.45 11.6 0.5 10.75 L1.55 9.3 Q1.8 8.85 1.5 4.85 L1.05 4.85 0.95 4.85 Q0.2 4.7 -0.5 4.55 -1.45 4.2 -3.05 3.15 -3.5 5.9 -4.65 8.85 L-4.75 9.65" fill="#ffffff" fill-opacity="0.09803922" fill-rule="evenodd" stroke="none">
      <animate attributeName="fill" dur="2s" repeatCount="indefinite" values="#ffffff;#ffffff"/>
      <animate attributeName="fill-opacity" dur="2s" repeatCount="indefinite" values="0.09803922;0.69803923"/>
      <animate attributeName="d" dur="2s" repeatCount="indefinite" values="M-4.75 9.65 L-4.75 9.75 Q-4.7 10.35 -3.85 11.0 L-3.5 11.25 Q-2.75 11.7 -2.0 11.7 L-1.8 11.7 Q-0.45 11.6 0.5 10.75 L1.55 9.3 Q1.8 8.85 1.5 4.85 L1.05 4.85 0.95 4.85 Q0.2 4.7 -0.5 4.55 -1.45 4.2 -3.05 3.15 -3.5 5.9 -4.65 8.85 L-4.75 9.65;M-4.75 7.3 L-4.75 7.3 Q-4.5 9.0 -4.3 10.65 L-4.1 11.4 Q-3.5 13.8 -2.05 13.5 L-1.65 13.35 Q0.15 12.6 1.0 9.05 L1.7 5.3 Q2.45 0.75 3.15 -3.75 L3.3 -4.75 3.4 -5.25 Q3.05 -4.7 1.05 -3.65 -0.6 -3.65 -2.3 -6.1 -3.6 -0.65 -4.7 6.0 L-4.75 7.3"/>
    </path>
    <path d="M-4.75 9.65 L-4.65 8.85 Q-3.5 5.9 -3.05 3.15 -1.45 4.2 -0.5 4.55 0.2 4.7 0.95 4.85 L1.05 4.85 1.5 4.85 Q1.8 8.85 1.55 9.3 L0.5 10.75 Q-0.45 11.6 -1.8 11.7 L-2.0 11.7 Q-2.75 11.7 -3.5 11.25 L-3.85 11.0 Q-4.7 10.35 -4.75 9.75 L-4.75 9.65" fill="none" stroke="#000000" stroke-linecap="round" stroke-linejoin="round" stroke-opacity="0.0" stroke-width="1.0">
      <animate attributeName="stroke" dur="2s" repeatCount="indefinite" values="#000000;#000001"/>
      <animate attributeName="stroke-width" dur="2s" repeatCount="indefinite" values="0.0;0.0"/>
      <animate attributeName="fill-opacity" dur="2s" repeatCount="indefinite" values="0.0;0.0"/>
      <animate attributeName="d" dur="2s" repeatCount="indefinite" values="M-4.75 9.65 L-4.65 8.85 Q-3.5 5.9 -3.05 3.15 -1.45 4.2 -0.5 4.55 0.2 4.7 0.95 4.85 L1.05 4.85 1.5 4.85 Q1.8 8.85 1.55 9.3 L0.5 10.75 Q-0.45 11.6 -1.8 11.7 L-2.0 11.7 Q-2.75 11.7 -3.5 11.25 L-3.85 11.0 Q-4.7 10.35 -4.75 9.75 L-4.75 9.65;M-4.75 7.3 L-4.7 6.0 Q-3.6 -0.65 -2.3 -6.1 -0.6 -3.65 1.05 -3.65 3.05 -4.7 3.4 -5.25 L3.3 -4.75 3.15 -3.75 Q2.45 0.75 1.7 5.3 L1.0 9.05 Q0.15 12.6 -1.65 13.35 L-2.05 13.5 Q-3.5 13.8 -4.1 11.4 L-4.3 10.65 Q-4.5 9.0 -4.75 7.3 L-4.75 7.3"/>
    </path>
  </g>
</svg>
