<?xml version="1.0" encoding="UTF-8" standalone="no"?>
<svg xmlns:xlink="http://www.w3.org/1999/xlink" height="115.45px" width="72.4px" xmlns="http://www.w3.org/2000/svg">
  <g transform="matrix(1.0, 0.0, 0.0, 1.0, 0.6, 0.05)">
    <path d="M5.95 1.35 Q7.75 0.6 9.5 0.3 21.3 -2.05 27.55 11.6 29.2 16.7 32.95 20.85 31.6 21.2 29.55 19.95 25.0 22.45 20.25 23.8 18.45 17.85 18.15 11.5 19.75 11.5 21.7 12.65 20.75 8.6 18.15 4.55 15.55 0.5 5.95 1.35 M28.5 48.55 Q33.9 47.2 39.1 44.45 L42.9 54.1 48.0 66.6 Q43.85 69.45 39.4 71.15 33.95 62.25 28.5 48.55 M27.95 100.9 Q39.85 106.15 47.15 105.0 51.7 103.35 53.3 97.05 L53.5 96.25 50.8 91.45 Q54.05 89.9 57.15 87.7 60.65 95.15 62.3 97.05 L62.85 97.6 Q67.6 101.5 65.15 105.9 62.1 109.9 42.35 114.8 34.0 114.65 31.9 110.95 29.35 106.15 27.95 100.9" fill="#3c4451" fill-rule="evenodd" stroke="none"/>
    <path d="M20.25 23.8 Q25.0 22.45 29.55 19.95 L31.75 25.65 36.1 36.85 39.1 44.45 Q33.9 47.2 28.5 48.55 L20.25 23.8 M48.0 66.6 L48.3 67.3 Q53.6 80.25 57.15 87.7 54.05 89.9 50.8 91.45 L39.4 71.15 Q43.85 69.45 48.0 66.6" fill="#a84444" fill-rule="evenodd" stroke="none"/>
    <path d="M5.95 1.35 Q15.55 0.5 18.15 4.55 20.75 8.6 21.7 12.65 19.75 11.5 18.15 11.5 18.45 17.85 20.25 23.8 L17.0 24.55 Q9.35 26.0 1.0 24.55 -0.75 15.45 0.65 9.55 1.95 4.1 5.95 1.35 M10.6 49.0 Q19.1 50.35 26.75 48.9 L28.5 48.55 Q33.95 62.25 39.4 71.15 L34.75 72.6 Q27.85 74.25 20.2 73.4 L19.35 71.0 16.2 62.6 10.6 49.0 M27.95 100.9 L27.15 97.05 26.75 94.55 43.4 94.05 Q47.2 93.15 50.8 91.45 L53.5 96.25 53.3 97.05 Q51.7 103.35 47.15 105.0 39.85 106.15 27.95 100.9" fill="#444d5c" fill-rule="evenodd" stroke="none"/>
    <path d="M1.0 24.55 Q9.35 26.0 17.0 24.55 L20.25 23.8 28.5 48.55 26.75 48.9 Q19.1 50.35 10.6 49.0 L6.7 40.1 2.9 31.9 2.3 30.7 Q1.15 27.25 0.95 25.65 0.85 24.85 1.0 24.55 M50.8 91.45 Q47.2 93.15 43.4 94.05 L26.75 94.55 Q23.45 82.65 20.2 73.4 27.85 74.25 34.75 72.6 L39.4 71.15 50.8 91.45" fill="#e75a47" fill-rule="evenodd" stroke="none"/>
    <path d="M62.85 97.6 Q67.65 98.7 69.15 101.8 73.25 107.85 69.15 111.2 L50.0 114.35 42.35 114.8 Q62.1 109.9 65.15 105.9 67.6 101.5 62.85 97.6" fill="#2b414c" fill-rule="evenodd" stroke="none"/>
    <path d="M20.25 23.8 Q25.0 22.45 29.55 19.95 31.6 21.2 32.95 20.85 M20.25 23.8 L17.0 24.55 Q9.35 26.0 1.0 24.55 0.85 24.85 0.95 25.65 1.15 27.25 2.3 30.7 L2.9 31.9 6.7 40.1 10.6 49.0 Q19.1 50.35 26.75 48.9 L28.5 48.55 Q33.9 47.2 39.1 44.45 L36.1 36.85 31.75 25.65 29.55 19.95 M0.65 9.55 Q-0.75 15.45 1.0 24.55 M26.75 94.55 L27.15 97.05 27.95 100.9 Q29.35 106.15 31.9 110.95 34.0 114.65 42.35 114.8 L50.0 114.35 69.15 111.2 Q73.25 107.85 69.15 101.8 67.65 98.7 62.85 97.6 L62.3 97.05 Q60.65 95.15 57.15 87.7 53.6 80.25 48.3 67.3 L48.0 66.6 Q43.85 69.45 39.4 71.15 L34.75 72.6 Q27.85 74.25 20.2 73.4 L19.35 71.0 16.2 62.6 10.6 49.0 M50.8 91.45 Q47.2 93.15 43.4 94.05 L26.75 94.55 Q23.45 82.65 20.2 73.4 M50.8 91.45 Q54.05 89.9 57.15 87.7 M48.0 66.6 L42.9 54.1 39.1 44.45" fill="none" stroke="#303234" stroke-linecap="round" stroke-linejoin="round" stroke-width="1.2000000000000002"/>
    <path d="M5.85 1.25 L6.0 1.25 6.0 1.4 5.65 1.7 5.45 1.8 5.3 2.0 4.8 2.4 4.15 3.1 3.25 4.3 3.15 4.5 3.0 4.7 2.2 6.3 1.45 8.5 1.2 9.65 1.2 9.75 Q1.0 10.35 0.45 10.15 -0.05 10.0 0.05 9.4 L0.15 8.95 0.45 8.2 0.55 7.85 1.6 5.65 1.7 5.55 2.65 4.15 2.7 4.05 3.55 3.1 5.3 1.6 5.5 1.5 Q5.7 1.4 5.85 1.25 M33.4 20.45 Q33.75 21.0 33.3 21.3 L32.45 21.2 32.05 20.65 31.85 20.45 30.8 19.0 29.1 16.0 28.95 15.75 27.95 13.25 27.8 12.9 27.65 12.3 27.55 12.05 27.45 11.6 Q27.35 11.5 27.5 11.5 27.6 11.4 27.6 11.55 L28.0 12.45 28.1 12.75 28.45 13.45 28.6 13.85 29.75 15.9 30.05 16.3 30.3 16.75 30.75 17.35 30.9 17.5 31.15 17.9 31.6 18.45 31.7 18.6 32.9 19.9 33.05 20.1 33.4 20.45" fill="#303234" fill-rule="evenodd" stroke="none"/>
  </g>
</svg>
