<?xml version="1.0" encoding="UTF-8" standalone="no"?>
<svg xmlns:xlink="http://www.w3.org/1999/xlink" height="111.75px" width="175.45px" xmlns="http://www.w3.org/2000/svg">
  <g transform="matrix(1.0, 0.0, 0.0, 1.0, 0.5, 1.2)">
    <path d="M116.35 64.6 Q125.8 59.7 131.3 63.25 140.6 64.05 150.1 67.3 155.25 69.1 157.25 71.35 151.7 70.65 134.45 66.25 L131.3 63.25 116.35 64.6 M120.65 34.8 Q123.6 33.55 127.0 33.2 139.05 35.45 140.75 40.3 144.7 43.8 148.25 49.0 150.5 51.55 149.7 53.3 145.9 47.6 141.95 44.05 141.8 41.95 140.75 40.3 141.8 41.95 141.95 44.05 133.3 38.8 124.8 37.95 123.3 36.0 120.65 34.8 M56.8 17.05 Q57.65 14.75 56.1 12.45 59.2 13.2 61.25 18.35 58.25 15.2 56.8 17.05 M28.1 1.8 Q37.75 -1.8 56.1 12.45 51.15 19.1 46.85 16.75 38.6 12.75 28.8 11.35 32.8 4.8 28.1 1.8 M25.6 1.3 Q29.5 6.4 25.95 8.4 22.0 10.05 17.35 10.55 8.8 10.45 0.1 7.95 L0.65 6.95 Q13.1 3.0 25.6 1.3" fill="#97b771" fill-rule="evenodd" stroke="none"/>
    <path d="M115.05 70.85 Q116.15 67.6 116.35 64.6 L131.3 63.25 Q133.7 66.05 134.0 67.95 134.75 72.6 129.75 79.1 134.75 72.6 134.0 67.95 133.7 66.05 131.3 63.25 L134.45 66.25 Q151.7 70.65 157.25 71.35 157.95 72.1 158.25 72.95 169.5 81.35 173.6 101.1 171.85 99.6 157.7 95.9 156.4 94.75 157.9 91.45 132.2 89.4 129.8 85.05 128.1 83.05 129.75 79.1 120.95 79.9 115.05 70.85 M141.95 44.05 Q145.9 47.6 149.7 53.3 149.3 54.1 148.25 54.7 143.6 53.7 141.05 49.8 142.15 46.6 141.95 44.05 142.15 46.6 141.05 49.8 L140.1 52.1 Q128.35 51.6 126.65 45.95 127.1 41.0 124.8 37.95 133.3 38.8 141.95 44.05 M158.25 72.95 Q160.6 76.35 161.3 79.55 162.65 85.8 157.9 91.45 162.65 85.8 161.3 79.55 160.6 76.35 158.25 72.95 M56.1 12.45 Q57.65 14.75 56.8 17.05 58.25 15.2 61.25 18.35 62.95 22.6 63.95 29.9 L59.05 29.95 52.85 30.5 Q46.55 26.7 47.2 24.6 55.3 20.8 56.8 17.05 55.3 20.8 47.2 24.6 42.55 22.0 32.65 22.05 22.7 22.05 22.1 19.15 26.65 14.75 28.8 11.35 26.65 14.75 22.1 19.15 13.35 17.0 3.45 13.15 -0.6 10.35 0.1 7.95 8.8 10.45 17.35 10.55 22.0 10.05 25.95 8.4 29.5 6.4 25.6 1.3 L24.9 0.45 Q26.8 1.0 28.1 1.8 32.8 4.8 28.8 11.35 38.6 12.75 46.85 16.75 51.15 19.1 56.1 12.45" fill="#899f6c" fill-rule="evenodd" stroke="none"/>
    <path d="M56.1 12.45 Q37.75 -1.8 28.1 1.8 26.8 1.0 24.9 0.45 L23.75 0.15 24.9 0.45 25.6 1.3 Q13.1 3.0 0.65 6.95 1.45 5.8 3.45 4.75 14.35 0.8 23.75 0.15 33.55 -2.25 42.3 1.95 51.0 6.15 56.1 12.45" fill="#bdcc98" fill-rule="evenodd" stroke="none"/>
    <path d="M173.7 101.7 L174.45 106.1 Q174.3 108.95 172.7 109.75 171.0 110.55 167.75 109.05 158.8 102.7 149.55 98.2 145.45 98.65 137.45 94.65 130.9 91.55 123.7 85.65 117.95 86.0 113.45 74.6 L115.05 70.85 Q120.95 79.9 129.75 79.1 128.1 83.05 129.8 85.05 132.2 89.4 157.9 91.45 154.9 94.95 149.55 98.2 154.9 94.95 157.9 91.45 156.4 94.75 157.7 95.9 171.85 99.6 173.6 101.1 L173.7 101.7 M148.25 54.7 Q143.4 55.1 138.65 54.9 134.2 57.0 124.9 52.9 121.2 54.5 115.2 49.7 113.8 47.75 111.9 45.95 L109.95 44.25 Q113.55 35.35 120.65 34.8 123.3 36.0 124.8 37.95 127.1 41.0 126.65 45.95 128.35 51.6 140.1 52.1 L141.05 49.8 Q143.6 53.7 148.25 54.7 M138.65 54.9 L140.1 52.1 138.65 54.9 M123.7 85.65 Q127.35 82.2 129.75 79.1 127.35 82.2 123.7 85.65 M124.9 52.9 Q126.35 49.05 126.65 45.95 126.35 49.05 124.9 52.9" fill="#7b8e61" fill-rule="evenodd" stroke="none"/>
    <path d="M173.7 101.7 L174.45 106.1 Q174.3 108.95 172.7 109.75 171.0 110.55 167.75 109.05 158.8 102.7 149.55 98.2 145.45 98.65 137.45 94.65 130.9 91.55 123.7 85.65 117.95 86.0 113.45 74.6 M116.35 64.6 Q125.8 59.7 131.3 63.25 140.6 64.05 150.1 67.3 155.25 69.1 157.25 71.35 157.95 72.1 158.25 72.95 169.5 81.35 173.6 101.1 M120.65 34.8 Q123.6 33.55 127.0 33.2 139.05 35.45 140.75 40.3 144.7 43.8 148.25 49.0 150.5 51.55 149.7 53.3 149.3 54.1 148.25 54.7 143.4 55.1 138.65 54.9 134.2 57.0 124.9 52.9 121.2 54.5 115.2 49.7 M140.75 40.3 Q141.8 41.95 141.95 44.05 142.15 46.6 141.05 49.8 L140.1 52.1 138.65 54.9 M109.95 44.25 Q113.55 35.35 120.65 34.8 123.3 36.0 124.8 37.95 127.1 41.0 126.65 45.95 126.35 49.05 124.9 52.9 M131.3 63.25 Q133.7 66.05 134.0 67.95 134.75 72.6 129.75 79.1 127.35 82.2 123.7 85.65 M157.9 91.45 Q162.65 85.8 161.3 79.55 160.6 76.35 158.25 72.95 M157.9 91.45 Q154.9 94.95 149.55 98.2 M56.1 12.45 Q57.65 14.75 56.8 17.05 55.3 20.8 47.2 24.6 46.55 26.7 52.85 30.5 M61.25 18.35 Q59.2 13.2 56.1 12.45 51.0 6.15 42.3 1.95 33.55 -2.25 23.75 0.15 L24.9 0.45 Q26.8 1.0 28.1 1.8 32.8 4.8 28.8 11.35 26.65 14.75 22.1 19.15 22.7 22.05 32.65 22.05 42.55 22.0 47.2 24.6 M63.95 29.9 Q62.95 22.6 61.25 18.35 M0.65 6.95 L0.1 7.95 Q-0.6 10.35 3.45 13.15 13.35 17.0 22.1 19.15 M23.75 0.15 Q14.35 0.8 3.45 4.75 1.45 5.8 0.65 6.95" fill="none" stroke="#403a2d" stroke-linecap="round" stroke-linejoin="round" stroke-width="1.0"/>
    <path d="M149.7 53.3 L150.1 53.75" fill="none" stroke="#403a2d" stroke-linecap="round" stroke-linejoin="round" stroke-width="0.05"/>
  </g>
</svg>
