<?xml version="1.0" encoding="UTF-8" standalone="no"?>
<svg xmlns:xlink="http://www.w3.org/1999/xlink" height="176.1px" width="85.05px" xmlns="http://www.w3.org/2000/svg">
  <g transform="matrix(1.0, 0.0, 0.0, 1.0, 0.6, 0.6)">
    <path d="M47.05 167.4 L16.65 155.3 Q8.7 151.9 4.55 136.95 0.55 63.55 30.35 12.35 35.1 6.1 40.65 0.0 L46.5 17.2 Q36.2 54.05 32.55 98.75 32.7 130.65 47.05 167.4" fill="#f6e19b" fill-rule="evenodd" stroke="none"/>
    <path d="M46.5 17.2 L56.35 46.45 Q48.2 78.3 51.2 88.75 56.5 134.9 69.65 152.5 73.55 159.75 66.1 174.9 L47.05 167.4 Q32.7 130.65 32.55 98.75 36.2 54.05 46.5 17.2" fill="#dac78e" fill-rule="evenodd" stroke="none"/>
    <path d="M56.35 46.45 L66.25 75.7 Q67.15 83.1 70.5 88.2 82.95 113.75 82.05 147.95 89.5 164.3 66.1 174.9 73.55 159.75 69.65 152.5 56.5 134.9 51.2 88.75 48.2 78.3 56.35 46.45" fill="#c8b585" fill-rule="evenodd" stroke="none"/>
    <path d="M4.55 136.95 Q0.5 122.55 0.0 97.35 -0.85 52.9 30.35 12.35 0.55 63.55 4.55 136.95" fill="#f9e8b7" fill-rule="evenodd" stroke="none"/>
    <path d="M66.25 75.7 Q67.15 83.1 70.5 88.2 82.95 113.75 82.05 147.95 89.5 164.3 66.1 174.9 M16.65 155.3 Q8.7 151.9 4.55 136.95 0.5 122.55 0.0 97.35 -0.85 52.9 30.35 12.35 35.1 6.1 40.65 0.0" fill="none" stroke="#403a2d" stroke-linecap="round" stroke-linejoin="round" stroke-width="1.2000000000000002"/>
  </g>
</svg>
