<?xml version="1.0" encoding="UTF-8" standalone="no"?>
<svg xmlns:xlink="http://www.w3.org/1999/xlink" height="121.05px" width="107.0px" xmlns="http://www.w3.org/2000/svg">
  <g transform="matrix(1.0, 0.0, 0.0, 1.0, 0.6, 0.05)">
    <path d="M97.65 17.1 Q104.65 18.65 105.8 17.9 101.05 51.3 92.6 55.45 84.15 59.55 69.2 61.0 104.2 48.5 97.65 17.1 M0.65 105.1 Q30.7 117.5 56.05 114.0 58.5 112.6 58.45 108.05 57.45 104.65 55.75 101.45 53.8 91.95 59.7 75.95 57.45 85.25 59.0 99.3 L60.1 100.55 Q65.75 107.2 66.15 112.5 66.4 115.95 64.45 118.85 9.85 125.25 0.65 105.1" fill="#c8b585" fill-rule="evenodd" stroke="none"/>
    <path d="M65.95 7.95 Q71.0 12.2 72.5 15.5 78.55 28.85 68.65 41.1 59.85 46.55 45.15 48.65 32.2 48.35 22.55 53.4 45.9 58.15 45.15 64.3 42.4 73.45 44.35 94.45 40.6 103.9 32.35 106.75 16.95 108.35 0.1 90.05 1.05 71.6 10.2 55.05 L10.1 55.05 Q9.95 36.75 13.6 27.35 17.65 16.9 25.3 10.5 L25.45 10.35 Q30.3 6.25 35.4 3.25 L36.95 2.35 41.5 0.0 65.95 7.95 M43.35 9.25 Q24.2 12.25 18.05 37.75 L30.8 20.5 Q32.65 16.85 43.35 9.25 M13.9 59.85 Q8.75 62.25 8.25 72.0 L14.4 64.95 Q15.8 58.65 13.9 59.85" fill="#f6e19b" fill-rule="evenodd" stroke="none"/>
    <path d="M97.65 17.1 Q104.2 48.5 69.2 61.0 62.15 65.6 59.7 75.95 53.8 91.95 55.75 101.45 57.45 104.65 58.45 108.05 58.5 112.6 56.05 114.0 30.7 117.5 0.65 105.1 -0.3 97.4 0.1 90.05 16.95 108.35 32.35 106.75 40.6 103.9 44.35 94.45 42.4 73.45 45.15 64.3 45.9 58.15 22.55 53.4 32.2 48.35 45.15 48.65 59.85 46.55 68.65 41.1 78.55 28.85 72.5 15.5 71.0 12.2 65.95 7.95 L72.5 10.05 Q89.25 15.2 97.65 17.1" fill="#dac78e" fill-rule="evenodd" stroke="none"/>
    <path d="M13.9 59.85 Q15.8 58.65 14.4 64.95 L8.25 72.0 Q8.75 62.25 13.9 59.85 M43.35 9.25 Q32.65 16.85 30.8 20.5 L18.05 37.75 Q24.2 12.25 43.35 9.25" fill="#f9e8b7" fill-rule="evenodd" stroke="none"/>
    <path d="M66.15 112.5 Q65.75 107.2 60.1 100.55 67.5 100.6 70.75 111.35 67.65 111.65 66.15 112.5" fill="#cdc8c5" fill-rule="evenodd" stroke="none"/>
    <path d="M69.2 61.0 Q84.15 59.55 92.6 55.45 101.05 51.3 105.8 17.9 M0.1 90.05 Q-0.3 97.4 0.65 105.1 9.85 125.25 64.45 118.85 66.4 115.95 66.15 112.5 65.75 107.2 60.1 100.55 67.5 100.6 70.75 111.35 67.65 111.65 66.15 112.5 M59.7 75.95 Q62.15 65.6 69.2 61.0 M35.4 3.25 Q30.3 6.25 25.45 10.35 L25.3 10.5 Q17.65 16.9 13.6 27.35 9.95 36.75 10.1 55.05 M10.2 55.05 Q1.05 71.6 0.1 90.05 M60.1 100.55 L59.0 99.3 Q57.45 85.25 59.7 75.95" fill="none" stroke="#403a2d" stroke-linecap="round" stroke-linejoin="round" stroke-width="1.2000000000000002"/>
    <path d="M12.45 50.95 L12.55 50.95 Q12.75 50.95 12.6 51.1 L10.7 55.3 10.65 55.45 9.8 55.6 Q9.25 55.25 9.65 54.75 L12.45 50.95 M41.45 -0.05 L41.55 0.0 41.5 0.05 37.5 2.55 37.2 2.7 37.15 2.75 37.1 2.75 37.0 2.85 35.7 3.75 35.65 3.75 35.6 3.8 Q35.1 4.05 34.8 3.5 34.55 2.95 35.05 2.7 L36.5 2.0 36.65 1.95 36.7 1.9 36.75 1.9 36.8 1.85 41.45 -0.05" fill="#403a2d" fill-rule="evenodd" stroke="none"/>
  </g>
</svg>
