<?xml version="1.0" encoding="UTF-8" standalone="no"?>
<svg xmlns:xlink="http://www.w3.org/1999/xlink" height="230.4px" width="197.8px" xmlns="http://www.w3.org/2000/svg">
  <g transform="matrix(1.0, 0.0, 0.0, 1.0, 0.6, 0.6)">
    <path d="M18.8 76.45 Q11.5 60.4 15.95 34.4 18.75 23.6 27.85 22.0 L65.85 23.45 122.2 12.8 Q161.6 29.0 183.3 53.25 L193.1 47.8 196.6 229.2 Q139.3 221.15 112.0 195.7 88.95 180.4 82.0 168.9 76.9 157.1 74.05 147.3 L73.95 147.0 Q69.25 140.75 65.7 120.9 L62.25 109.95 61.05 103.55 54.15 90.7 Q49.1 69.05 51.15 60.6 48.05 65.05 49.0 77.1 L49.35 86.7 Q50.95 95.05 54.35 99.9 56.2 103.2 56.65 106.55 L53.35 102.8 47.9 96.45 Q51.05 115.25 49.65 120.7 L48.6 135.4 46.7 128.2 Q45.4 122.45 44.6 116.25 L18.8 76.45 M77.05 52.65 Q67.55 54.1 68.8 64.35 72.75 73.15 74.3 83.85 75.95 91.85 72.85 98.95 72.6 106.85 70.1 106.5 70.7 108.25 74.75 102.9 76.2 101.25 76.55 99.3 78.65 91.15 78.1 84.95 76.05 72.7 73.95 64.65 72.8 61.4 75.6 56.8 77.35 53.7 100.55 48.0 L77.05 52.65 M63.35 82.9 Q64.8 94.05 68.35 96.0 64.35 85.05 65.05 72.15 62.9 76.25 63.35 82.9" fill="#dac78e" fill-rule="evenodd" stroke="none"/>
    <path d="M193.1 47.8 L183.3 53.25 Q161.6 29.0 122.2 12.8 L65.85 23.45 27.85 22.0 Q18.75 23.6 15.95 34.4 11.5 60.4 18.8 76.45 L0.0 47.45 Q11.9 21.85 24.3 13.85 46.6 -0.65 75.2 1.55 91.15 -1.9 110.35 2.35 139.75 8.8 193.1 47.8 M48.6 135.4 L49.65 120.7 Q51.05 115.25 47.9 96.45 L53.35 102.8 56.65 106.55 Q56.2 103.2 54.35 99.9 50.95 95.05 49.35 86.7 L49.0 77.1 Q48.05 65.05 51.15 60.6 49.1 69.05 54.15 90.7 L61.05 103.55 62.25 109.95 65.7 120.9 Q69.25 140.75 73.95 147.0 L74.05 147.3 Q76.9 157.1 82.0 168.9 88.95 180.4 112.0 195.7 62.35 181.8 48.6 135.4 M63.35 82.9 Q62.9 76.25 65.05 72.15 64.35 85.05 68.35 96.0 64.8 94.05 63.35 82.9" fill="#f6e19b" fill-rule="evenodd" stroke="none"/>
    <path d="M77.05 52.65 L100.55 48.0 Q77.35 53.7 75.6 56.8 72.8 61.4 73.95 64.65 76.05 72.7 78.1 84.95 78.65 91.15 76.55 99.3 76.2 101.25 74.75 102.9 70.7 108.25 70.1 106.5 72.6 106.85 72.85 98.95 75.95 91.85 74.3 83.85 72.75 73.15 68.8 64.35 67.55 54.1 77.05 52.65" fill="#c8b585" fill-rule="evenodd" stroke="none"/>
    <path d="M46.7 128.2 L48.6 135.4 Q62.35 181.8 112.0 195.7 139.3 221.15 196.6 229.2 M193.1 47.8 Q139.75 8.8 110.35 2.35 91.15 -1.9 75.2 1.55 46.6 -0.65 24.3 13.85 11.9 21.85 0.0 47.45" fill="none" stroke="#403a2d" stroke-linecap="round" stroke-linejoin="round" stroke-width="1.2000000000000002"/>
    <path d="M111.8 196.25 Q111.2 196.05 111.4 195.5 111.6 194.95 112.15 195.1 L124.3 198.1 135.4 199.7 143.2 200.2 144.15 200.25 146.45 200.35 146.5 200.4 146.4 200.5 144.15 200.55 143.2 200.5 137.6 200.35 137.25 200.3 134.6 200.15 133.8 200.1 119.7 198.15 111.8 196.25 M44.5 116.25 L44.55 116.15 44.65 116.2 47.25 128.05 47.25 128.1 47.2 128.55 46.8 128.8 Q46.2 128.9 46.1 128.3 L44.5 116.75 44.5 116.25 M76.5 99.2 L76.6 99.3 76.75 99.85 76.75 100.35 76.7 100.7 76.55 101.1 76.5 101.3 76.4 101.45 76.3 101.65 76.2 101.8 76.1 102.0 75.85 102.25 75.85 102.3 75.45 102.6 75.35 102.65 75.3 102.7 74.8 102.95 74.75 102.95 74.65 102.8 74.75 102.4 74.8 102.3 74.8 102.15 74.95 101.85 75.1 101.4 75.15 101.3 75.2 101.25 75.25 101.1 75.35 100.95 75.4 100.75 75.5 100.6 75.55 100.55 75.6 100.45 75.65 100.3 75.75 100.2 76.0 99.8 76.1 99.7 76.15 99.6 76.3 99.4 76.5 99.2 M74.2 83.85 L74.25 83.75 74.35 83.8 74.45 83.95 74.95 85.65 74.95 85.75 75.0 85.9 75.4 88.65 75.35 91.55 74.85 94.4 73.85 97.3 73.6 97.7 73.45 98.1 73.25 98.4 73.2 98.5 72.9 98.95 72.8 99.0 72.75 98.9 72.75 98.7 72.8 98.5 72.85 98.4 72.9 98.25 73.35 96.3 73.45 96.0 73.9 93.5 73.9 93.35 74.1 92.15 74.1 91.8 74.15 91.45 74.25 89.7 74.3 89.35 74.25 84.85 74.2 84.5 74.2 83.85 M49.25 86.7 L49.3 86.6 49.4 86.65 49.5 86.8 49.55 87.0 49.6 87.1 50.35 89.25 50.4 89.5 52.15 94.55 52.3 94.85 52.6 95.75 53.15 97.1 53.3 97.35 53.7 98.25 53.75 98.45 54.0 98.95 54.1 99.1 54.2 99.4 54.25 99.5 54.35 99.65 54.4 99.8 54.4 99.95 54.25 99.95 54.15 99.8 54.0 99.65 53.9 99.6 53.8 99.5 53.7 99.35 53.6 99.25 53.35 98.95 51.9 96.75 51.8 96.45 51.2 95.3 51.1 95.0 50.8 94.35 50.15 92.45 49.85 91.2 49.75 90.9 49.75 90.75 49.7 90.6 49.4 88.95 49.4 88.7 49.35 88.45 49.25 87.3 49.25 86.7 M77.0 52.55 L77.1 52.6 77.05 52.7 76.85 52.8 76.0 53.05 75.95 53.1 75.85 53.1 75.15 53.4 74.9 53.45 74.65 53.6 74.15 53.8 73.05 54.45 72.9 54.5 72.8 54.6 72.5 54.8 72.45 54.85 72.35 54.9 72.25 55.0 71.95 55.2 71.85 55.35 71.8 55.4 71.7 55.45 71.0 56.2 70.95 56.3 70.9 56.35 70.3 57.25 70.25 57.4 70.05 57.7 69.45 59.3 69.4 59.5 69.4 59.65 69.3 59.95 69.2 60.6 69.15 60.75 69.15 60.9 69.1 61.2 69.05 61.35 69.05 61.5 68.95 62.35 68.95 62.8 68.9 63.05 68.9 64.15 68.85 64.3 68.8 64.4 68.7 64.35 68.65 64.15 68.55 63.95 68.35 62.85 68.25 62.05 68.25 61.3 68.2 61.15 68.4 59.05 68.75 57.75 68.85 57.55 69.6 56.1 70.65 54.85 70.95 54.6 71.1 54.45 71.25 54.35 71.4 54.2 71.6 54.1 71.75 54.0 71.8 53.95 71.9 53.9 73.2 53.25 74.45 52.85 74.7 52.8 75.0 52.7 75.25 52.7 75.7 52.6 75.9 52.6 76.3 52.55 77.0 52.55" fill="#403a2d" fill-rule="evenodd" stroke="none"/>
    <path d="M57.2 60.8 Q57.9 60.15 59.0 60.65 63.75 68.6 60.9 79.1 59.85 84.5 60.75 88.85 L58.8 80.6 58.8 80.75 58.7 80.3 Q55.3 73.85 56.1 63.3 56.45 61.45 57.2 60.8 M59.6 63.9 L59.15 63.55 Q56.55 65.35 57.0 69.1 L57.45 69.45 Q57.05 67.7 57.85 65.9 58.6 64.1 59.6 63.9 M60.2 78.25 L60.7 74.15 60.55 71.55 60.25 70.1 59.95 70.0 59.95 74.25 Q59.95 78.1 59.0 80.7 59.7 80.95 60.2 78.25" fill="url(#gradient0)" fill-rule="evenodd" stroke="none"/>
    <path d="M60.2 78.25 Q59.7 80.95 59.0 80.7 59.95 78.1 59.95 74.25 L59.95 70.0 60.25 70.1 60.55 71.55 60.7 74.15 60.2 78.25 M59.6 63.9 Q58.6 64.1 57.85 65.9 57.05 67.7 57.45 69.45 L57.0 69.1 Q56.55 65.35 59.15 63.55 L59.6 63.9" fill="#834040" fill-rule="evenodd" stroke="none"/>
    <path d="M57.2 60.8 Q56.45 61.45 56.1 63.3 55.3 73.85 58.7 80.3 L58.8 80.75 58.8 80.6 60.75 88.85 Q59.85 84.5 60.9 79.1 63.75 68.6 59.0 60.65 64.35 62.6 64.1 67.95 61.5 78.65 62.55 89.35 62.65 92.85 67.55 97.7 L67.55 99.1 Q67.05 100.75 64.0 100.65 60.9 100.45 61.35 98.7 62.5 95.15 61.2 90.4 L60.9 89.3 60.8 89.05 60.75 88.85 Q57.25 87.55 54.95 80.05 L54.0 67.1 Q53.5 60.35 57.2 60.8 M61.2 90.4 Q61.9 92.8 63.3 94.85 61.9 92.8 61.2 90.4" fill="#c8b585" fill-rule="evenodd" stroke="none"/>
    <path d="M59.0 60.65 Q57.9 60.15 57.2 60.8 56.45 61.45 56.1 63.3 55.3 73.85 58.7 80.3 L58.8 80.75 M58.8 80.6 L60.75 88.85 Q59.85 84.5 60.9 79.1 63.75 68.6 59.0 60.65 M61.2 90.4 L60.9 89.3 60.8 89.05 60.75 88.85 M63.3 94.85 Q61.9 92.8 61.2 90.4" fill="none" stroke="#403a2d" stroke-linecap="round" stroke-linejoin="round" stroke-width="0.8"/>
    <path d="M66.65 98.4 L66.65 98.55 66.5 98.55 66.35 98.4 65.9 98.1 65.3 97.55 65.1 97.4 63.75 96.0 63.4 99.1 63.35 99.15 63.25 99.05 63.05 95.2 62.95 95.05 62.9 95.0 62.9 94.9 Q62.75 94.6 63.1 94.4 63.5 94.3 63.65 94.65 L63.65 94.7 63.85 95.05 64.95 96.6 65.4 97.1 65.55 97.3 66.3 98.1 66.5 98.25 66.65 98.4" fill="#403a2d" fill-rule="evenodd" stroke="none"/>
  </g>
  <defs>
    <radialGradient cx="0" cy="0" gradientTransform="matrix(0.0042, -4.0E-4, 0.0015, 0.0158, 59.0, 72.5)" gradientUnits="userSpaceOnUse" id="gradient0" r="819.2" spreadMethod="pad">
      <stop offset="0.48627450980392156" stop-color="#9a4b4b"/>
      <stop offset="0.6509803921568628" stop-color="#ee7575"/>
    </radialGradient>
  </defs>
</svg>
