<?xml version="1.0" encoding="UTF-8" standalone="no"?>
<svg xmlns:xlink="http://www.w3.org/1999/xlink" height="4.2px" width="16.15px" xmlns="http://www.w3.org/2000/svg">
  <g transform="matrix(1.0, 0.0, 0.0, 1.0, 0.0, 0.0)">
    <path d="M16.0 1.9 L16.15 1.9 16.15 2.05 16.0 2.2 15.55 2.55 14.6 3.15 14.35 3.25 14.1 3.4 12.2 4.05 11.85 4.1 11.65 4.15 11.45 4.15 11.05 4.2 9.45 4.15 8.6 4.0 8.4 4.0 7.8 3.85 5.0 2.8 4.9 2.75 4.85 2.75 4.85 2.7 2.6 1.7 2.55 1.7 2.5 1.65 2.35 1.6 0.05 0.25 0.05 0.2 0.0 0.1 Q0.0 -0.05 0.1 0.05 L0.15 0.05 0.3 0.1 0.5 0.2 0.65 0.2 0.8 0.3 2.8 0.9 2.85 0.95 2.9 0.95 5.2 1.7 5.25 1.7 5.35 1.75 5.4 1.75 5.6 1.85 5.95 1.95 6.3 2.1 7.55 2.5 7.75 2.6 8.1 2.7 8.5 2.75 9.2 2.95 10.3 3.05 10.4 3.1 11.7 3.1 12.05 3.05 12.2 3.05 12.4 3.0 12.7 3.0 13.0 2.9 13.6 2.8 14.35 2.55 14.6 2.5 16.0 1.9" fill="#403a2d" fill-rule="evenodd" stroke="none"/>
  </g>
</svg>
