<?xml version="1.0" encoding="UTF-8" standalone="no"?>
<svg xmlns:xlink="http://www.w3.org/1999/xlink" height="80.8px" width="25.15px" xmlns="http://www.w3.org/2000/svg">
  <g transform="matrix(1.0, 0.0, 0.0, 1.0, -53.85, -62.95)">
    <path d="M64.25 68.45 L64.05 67.5 63.55 67.1 Q63.25 67.1 63.05 67.5 L62.85 68.45 63.05 69.4 63.55 69.8 64.05 69.4 64.25 68.45 M62.45 74.2 Q61.8 72.95 61.8 71.15 61.8 69.95 62.35 69.2 62.9 68.5 62.9 67.4 L62.4 65.2 61.8 62.95 Q65.15 62.85 64.7 68.0 64.3 72.85 62.45 74.2 M55.9 82.2 L55.1 83.15 Q54.75 82.0 54.55 77.45 54.4 73.2 53.85 72.05 L54.0 70.7 54.2 70.45 55.35 72.0 Q56.6 74.4 57.9 79.8 59.35 76.9 60.3 76.35 L60.65 76.3 Q60.85 76.75 60.65 77.95 L60.45 79.8 Q60.45 82.7 61.55 85.4 L64.0 90.7 64.05 90.75 Q63.5 90.95 63.25 90.6 L61.05 85.8 60.75 87.3 60.05 79.45 58.9 79.75 Q58.2 80.85 57.65 80.95 L57.7 82.7 Q57.8 85.45 57.25 87.65 L56.85 89.2 57.1 87.0 Q57.1 86.5 56.75 86.65 56.35 86.75 56.35 86.25 L56.6 84.55 56.7 83.1 Q57.15 82.0 56.5 80.75 56.15 80.9 56.0 81.45 55.8 81.95 55.9 82.2 M60.65 88.25 Q60.8 94.6 63.5 98.4 66.2 102.2 66.25 107.4 64.2 101.2 62.95 98.6 L61.7 96.65 61.55 97.9 61.35 99.6 60.95 98.45 61.0 98.8 60.95 100.15 60.9 101.0 61.1 101.4 61.25 102.45 61.1 103.4 60.15 103.6 Q60.75 104.95 61.5 109.9 62.0 111.9 62.45 112.85 L62.6 114.25 62.45 115.75 Q62.25 116.15 61.25 116.15 L60.2 116.05 59.5 110.95 Q58.8 106.8 58.8 103.55 L58.65 102.0 Q58.65 101.4 59.5 101.7 59.25 97.4 59.4 94.6 L60.7 97.65 Q61.35 97.5 61.5 96.95 61.15 94.3 60.2 93.0 L59.05 92.0 59.0 91.9 Q59.1 91.1 59.75 89.8 L60.65 88.25 M67.0 109.7 L68.05 111.65 66.75 111.65 66.7 113.55 66.65 115.0 Q66.7 115.65 67.35 115.65 67.95 115.65 68.05 116.15 L68.15 117.15 67.95 116.7 Q68.3 118.95 68.35 124.8 L68.3 131.2 Q67.2 130.45 67.2 133.4 L67.25 134.3 66.55 133.55 66.2 133.2 67.2 123.1 Q65.2 117.3 65.0 114.2 64.95 113.65 63.9 111.55 62.85 109.45 62.75 106.45 62.7 104.15 61.85 101.2 L62.6 101.1 Q65.05 109.7 66.7 111.25 L67.2 111.15 67.0 109.7 M68.55 113.25 Q69.85 114.3 70.65 116.85 71.4 119.2 71.5 121.95 70.75 122.45 70.75 123.55 70.75 124.65 72.7 130.4 74.6 136.0 76.6 140.95 77.3 140.75 77.3 138.5 L75.55 133.65 73.05 126.95 Q74.95 130.8 76.9 135.6 79.0 140.75 79.0 141.8 79.0 143.6 76.75 143.75 75.6 141.3 68.55 118.25 L69.0 118.3 69.65 118.15 69.7 117.75 68.55 113.25 M69.05 133.45 L69.2 133.75 Q69.3 133.5 69.45 133.75 L69.6 134.1 Q69.35 134.1 69.2 133.9 L69.05 133.45 M69.7 134.55 Q70.5 135.15 70.5 136.05 L70.45 137.55 70.5 137.65 69.95 137.7 Q69.3 137.7 67.85 135.15 L69.7 135.25 69.7 134.55 M58.75 94.15 L58.55 95.05 56.75 97.75 56.0 95.25 55.55 92.95 56.7 89.95 56.6 90.3 Q56.6 92.15 56.95 94.25 L57.7 94.4 58.75 94.15 M69.45 93.65 L68.6 93.2 Q67.8 92.6 67.8 91.6 67.8 91.1 68.25 90.9 L68.7 90.15 67.95 89.0 66.7 87.25 Q66.85 86.6 67.15 86.35 69.5 88.55 69.95 89.8 70.55 91.4 69.45 93.65 M70.0 95.45 L69.8 95.95 69.35 96.15 68.9 95.95 68.7 95.45 68.9 94.95 69.35 94.75 69.8 94.95 70.0 95.45 M57.05 98.9 L57.75 100.4 57.05 100.75 56.35 99.8 Q57.05 99.5 57.05 98.9 M58.8 107.8 Q56.85 107.4 56.65 106.45 56.7 104.8 56.1 103.2 L56.5 101.4 57.8 103.9 Q58.95 106.45 58.8 107.8" fill="#fcfff0" fill-opacity="0.7490196" fill-rule="evenodd" stroke="none"/>
    <path d="M64.25 68.45 L64.05 69.4 63.55 69.8 63.05 69.4 62.85 68.45 63.05 67.5 Q63.25 67.1 63.55 67.1 L64.05 67.5 64.25 68.45 M60.75 87.3 L60.65 88.25 59.75 89.8 Q59.1 91.1 59.0 91.9 L59.05 92.0 60.2 93.0 Q61.15 94.3 61.5 96.95 61.35 97.5 60.7 97.65 L59.4 94.6 58.8 93.4 58.75 94.15 57.7 94.4 56.95 94.25 Q56.6 92.15 56.6 90.3 L56.7 89.95 56.7 89.85 56.85 89.2 57.25 87.65 Q57.8 85.45 57.7 82.7 L57.65 80.95 Q58.2 80.85 58.9 79.75 L60.05 79.45 60.75 87.3 M66.25 107.4 L67.0 109.7 67.2 111.15 66.7 111.25 Q65.05 109.7 62.6 101.1 L61.85 101.2 60.9 101.0 60.95 100.15 61.35 99.6 61.55 97.9 61.7 96.65 62.95 98.6 Q64.2 101.2 66.25 107.4 M68.05 111.65 L68.3 112.25 68.4 112.95 68.55 113.25 69.7 117.75 69.65 118.15 69.0 118.3 68.55 118.25 68.45 118.15 68.45 118.0 68.3 117.5 68.15 117.15 68.05 116.15 Q67.95 115.65 67.35 115.65 66.7 115.65 66.65 115.0 L66.7 113.55 66.75 111.65 68.05 111.65 M71.5 121.95 L73.05 126.95 75.55 133.65 77.3 138.5 Q77.3 140.75 76.6 140.95 74.6 136.0 72.7 130.4 70.75 124.65 70.75 123.55 70.75 122.45 71.5 121.95 M68.3 131.2 Q68.85 131.75 69.05 133.45 L69.2 133.9 Q69.35 134.1 69.6 134.1 L69.7 134.55 69.7 135.25 67.85 135.15 67.25 134.35 67.25 134.3 67.2 133.4 Q67.2 130.45 68.3 131.2 M56.7 83.1 L56.25 82.75 55.9 82.2 Q55.8 81.95 56.0 81.45 56.15 80.9 56.5 80.75 57.15 82.0 56.7 83.1" fill="#fcfff0" fill-opacity="0.9490196" fill-rule="evenodd" stroke="none"/>
  </g>
</svg>
