<?xml version="1.0" encoding="UTF-8" standalone="no"?>
<svg xmlns:xlink="http://www.w3.org/1999/xlink" height="123.8px" width="101.35px" xmlns="http://www.w3.org/2000/svg">
  <g transform="matrix(1.0, 0.0, 0.0, 1.0, 0.6, 0.0)">
    <path d="M4.7 103.05 Q24.8 116.75 32.25 110.6 36.4 91.15 25.3 82.15 13.7 74.05 6.25 61.0 15.3 67.15 21.85 66.2 L33.6 58.85 Q56.0 47.1 51.35 19.9 47.45 8.7 20.5 15.4 57.95 -8.55 98.2 4.8 91.4 21.6 78.75 37.25 67.5 53.8 63.65 75.5 63.75 80.25 65.1 86.45 63.9 82.05 64.05 89.2 65.45 94.75 69.1 97.25 64.85 97.65 64.3 99.6 73.35 108.7 71.75 111.9 69.0 116.1 61.0 117.05 L22.3 117.9 Q13.5 118.45 6.3 112.05 5.0 108.6 4.7 103.05" fill="#dac78e" fill-rule="evenodd" stroke="none"/>
    <path d="M20.5 15.4 Q47.45 8.7 51.35 19.9 56.0 47.1 33.6 58.85 L21.85 66.2 Q15.3 67.15 6.25 61.0 13.7 74.05 25.3 82.15 36.4 91.15 32.25 110.6 24.8 116.75 4.7 103.05 4.2 94.85 5.8 82.1 -10.9 44.25 20.5 15.4" fill="#f6e19b" fill-rule="evenodd" stroke="none"/>
    <path d="M6.3 112.05 Q13.5 118.45 22.3 117.9 L61.0 117.05 Q69.0 116.1 71.75 111.9 73.35 108.7 64.3 99.6 64.85 97.65 69.1 97.25 65.45 94.75 64.05 89.2 63.9 82.05 65.1 86.45 65.8 89.55 68.8 94.85 L74.9 97.6 Q68.1 99.0 68.55 101.15 68.85 102.65 72.7 104.5 82.35 108.85 84.7 114.95 86.05 119.45 74.1 120.1 50.1 125.95 20.95 120.7 11.35 121.85 7.1 113.9 L6.3 112.05" fill="#c8b585" fill-rule="evenodd" stroke="none"/>
    <path d="M74.9 97.6 Q86.35 98.95 95.65 107.3 93.0 112.25 85.15 111.8 82.4 107.45 77.95 105.5 72.35 102.95 71.35 100.9 71.65 99.2 74.9 97.6" fill="#e0dddc" fill-rule="evenodd" stroke="none"/>
    <path d="M84.7 114.95 Q82.35 108.85 72.7 104.5 68.85 102.65 68.55 101.15 68.1 99.0 74.9 97.6 71.65 99.2 71.35 100.9 72.35 102.95 77.95 105.5 82.4 107.45 85.15 111.8 93.0 112.25 95.65 107.3 L100.15 111.9 Q93.8 114.65 84.7 114.95" fill="#cdc8c5" fill-rule="evenodd" stroke="none"/>
    <path d="M4.7 103.05 Q5.0 108.6 6.3 112.05 L7.1 113.9 Q11.35 121.85 20.95 120.7 50.1 125.95 74.1 120.1 86.05 119.45 84.7 114.95 82.35 108.85 72.7 104.5 68.85 102.65 68.55 101.15 68.1 99.0 74.9 97.6 86.35 98.95 95.65 107.3 L100.15 111.9 Q93.8 114.65 84.7 114.95 M65.1 86.45 Q63.75 80.25 63.65 75.5 67.5 53.8 78.75 37.25 91.4 21.6 98.2 4.8 M20.5 15.4 Q-10.9 44.25 5.8 82.1 4.2 94.85 4.7 103.05 M74.9 97.6 L68.8 94.85 Q65.8 89.55 65.1 86.45" fill="none" stroke="#403a2d" stroke-linecap="round" stroke-linejoin="round" stroke-width="1.2000000000000002"/>
    <path d="M51.25 19.9 Q51.15 19.8 51.3 19.8 51.4 19.7 51.4 19.85 L51.55 20.35 52.2 24.1 52.4 26.25 52.45 26.45 52.5 27.9 52.55 28.0 52.35 34.05 51.9 36.85 51.8 37.15 51.6 38.2 50.75 40.95 50.7 41.05 50.65 41.3 50.0 42.85 Q49.15 44.95 47.95 46.75 L47.85 47.0 46.75 48.55 44.45 51.35 43.75 52.05 43.55 52.2 43.4 52.4 42.35 53.35 41.95 53.65 41.3 54.25 39.25 55.7 38.95 55.95 37.7 56.75 37.4 56.9 36.85 57.25 Q35.5 58.0 34.1 58.7 L33.6 58.9 33.5 58.9 Q33.35 58.75 33.55 58.75 L33.95 58.45 34.85 57.95 37.35 56.25 37.65 56.0 38.25 55.6 38.5 55.35 38.8 55.15 40.05 54.1 40.7 53.55 42.7 51.7 42.85 51.5 43.35 51.0 44.6 49.5 47.0 46.15 48.5 43.35 49.65 40.55 50.0 39.4 50.15 38.9 50.6 37.4 51.35 33.4 51.65 29.2 51.65 24.8 51.25 19.9" fill="#403a2d" fill-rule="evenodd" stroke="none"/>
  </g>
</svg>
