<?xml version="1.0" encoding="UTF-8" standalone="no"?>
<svg xmlns:xlink="http://www.w3.org/1999/xlink" height="106.75px" width="87.55px" xmlns="http://www.w3.org/2000/svg">
  <g transform="matrix(1.0, 0.0, 0.0, 1.0, 0.6, 12.65)">
    <path d="M2.05 34.9 Q5.05 18.9 12.6 6.85 14.85 3.25 17.5 0.0 39.15 -20.5 61.7 -7.75 67.85 19.8 66.85 32.75 70.9 59.35 55.8 73.25 L33.05 87.65 Q0.25 87.2 2.05 34.9" fill="#f6e19b" fill-rule="evenodd" stroke="none"/>
    <path d="M2.05 34.9 Q0.25 87.2 33.05 87.65 L23.8 93.5 Q1.65 92.35 0.3 67.3 -0.7 49.45 2.05 34.9 M55.8 73.25 Q70.9 59.35 66.85 32.75 67.85 19.8 61.7 -7.75 L86.35 6.25 Q85.75 35.9 65.5 67.1 L55.75 73.35 55.8 73.25" fill="#dac78e" fill-rule="evenodd" stroke="none"/>
    <path d="M17.5 0.0 Q14.85 3.25 12.6 6.85 5.05 18.9 2.05 34.9 -0.7 49.45 0.3 67.3 1.65 92.35 23.8 93.5 M65.5 67.1 Q85.75 35.9 86.35 6.25" fill="none" stroke="#403a2d" stroke-linecap="round" stroke-linejoin="round" stroke-width="1.2000000000000002"/>
    <path d="M12.7 0.9 L12.75 0.8 12.85 0.85 13.05 1.2 13.3 2.1 13.35 2.2 13.4 2.45 13.4 2.75 13.45 3.0 13.45 3.15 13.5 3.3 13.5 4.75 13.45 5.05 13.45 5.3 13.4 5.55 13.35 6.05 13.15 7.0 13.1 7.1 Q12.9 7.65 12.35 7.45 11.8 7.2 12.0 6.65 L12.55 5.0 12.6 4.9 12.7 4.35 12.75 4.25 12.75 4.1 12.85 3.55 12.85 3.3 12.9 3.15 12.9 2.05 12.85 1.8 12.85 1.6 12.8 1.45 12.8 1.3 12.75 1.15 12.7 0.9" fill="#403a2d" fill-rule="evenodd" stroke="none"/>
  </g>
</svg>
