<?xml version="1.0" encoding="UTF-8" standalone="no"?>
<svg xmlns:xlink="http://www.w3.org/1999/xlink" height="53.3px" width="111.75px" xmlns="http://www.w3.org/2000/svg">
  <g transform="matrix(1.0, 0.0, 0.0, 1.0, 0.6, 0.6)">
    <path d="M90.85 15.9 Q95.25 20.35 98.05 24.1 98.7 26.0 97.15 26.65 86.65 25.75 82.8 28.85 78.1 32.05 73.85 32.25 76.2 33.3 79.35 36.2 84.35 37.35 87.9 42.9 L89.05 44.85 Q90.9 47.7 91.1 50.35 84.3 43.6 79.15 40.6 68.7 36.45 65.35 30.85 30.7 28.6 9.75 23.15 L46.45 0.0 Q50.5 2.9 60.1 5.6 69.65 8.25 72.25 8.35 80.05 9.95 86.95 13.75 L90.85 15.9" fill="#f6e19b" fill-rule="evenodd" stroke="none"/>
    <path d="M79.35 36.2 Q76.2 33.3 73.85 32.25 78.1 32.05 82.8 28.85 86.65 25.75 97.15 26.65 98.7 26.0 98.05 24.1 95.25 20.35 90.85 15.9 L95.9 18.7 97.7 20.25 Q112.55 34.8 106.15 35.65 102.85 31.9 99.85 29.95 L90.75 29.7 Q86.85 30.65 84.15 33.6 82.5 36.0 79.35 36.2 M9.75 23.15 Q30.7 28.6 65.35 30.85 68.7 36.45 79.15 40.6 84.3 43.6 91.1 50.35 L91.1 50.45 Q91.25 53.15 79.5 47.3 71.05 47.55 60.3 38.25 24.6 39.15 0.0 29.25 L9.75 23.15" fill="#dac78e" fill-rule="evenodd" stroke="none"/>
    <path d="M89.05 44.85 L87.9 42.9 Q84.35 37.35 79.35 36.2 82.5 36.0 84.15 33.6 86.85 30.65 90.75 29.7 L99.85 29.95 Q102.85 31.9 106.15 35.65 111.8 50.7 110.2 51.85 L109.7 52.05 Q107.7 52.45 101.35 49.0 94.05 45.05 89.05 44.85 M87.9 42.9 Q97.55 44.0 105.9 48.65 107.3 48.9 107.65 47.75 105.95 38.55 100.45 31.45 90.25 30.2 88.45 32.55 86.6 34.85 80.95 35.95 88.05 38.45 87.9 42.9" fill="#cdc8c5" fill-rule="evenodd" stroke="none"/>
    <path d="M87.9 42.9 Q88.05 38.45 80.95 35.95 86.6 34.85 88.45 32.55 90.25 30.2 100.45 31.45 105.95 38.55 107.65 47.75 107.3 48.9 105.9 48.65 97.55 44.0 87.9 42.9" fill="#e0dddc" fill-rule="evenodd" stroke="none"/>
    <path d="M90.85 15.9 L86.95 13.75 Q80.05 9.95 72.25 8.35 69.65 8.25 60.1 5.6 50.5 2.9 46.45 0.0 M91.1 50.35 Q90.9 47.7 89.05 44.85 L87.9 42.9 Q84.35 37.35 79.35 36.2 82.5 36.0 84.15 33.6 86.85 30.65 90.75 29.7 L99.85 29.95 Q102.85 31.9 106.15 35.65 112.55 34.8 97.7 20.25 L95.9 18.7 90.85 15.9 M106.15 35.65 Q111.8 50.7 110.2 51.85 L109.7 52.05 Q107.7 52.45 101.35 49.0 94.05 45.05 89.05 44.85 M0.0 29.25 Q24.6 39.15 60.3 38.25 71.05 47.55 79.5 47.3 91.25 53.15 91.1 50.45 L91.1 50.35" fill="none" stroke="#403a2d" stroke-linecap="round" stroke-linejoin="round" stroke-width="1.2000000000000002"/>
    <path d="M79.75 35.75 L79.8 35.8 Q80.15 36.25 79.75 36.65 L78.9 36.6 78.5 36.15 76.05 33.85 74.7 32.85 74.3 32.65 74.05 32.45 73.8 32.3 73.75 32.2 Q73.75 32.05 73.85 32.15 L74.45 32.35 76.4 33.35 78.9 35.05 79.75 35.75" fill="#403a2d" fill-rule="evenodd" stroke="none"/>
  </g>
</svg>
