<?xml version="1.0" encoding="UTF-8" standalone="no"?>
<svg xmlns:xlink="http://www.w3.org/1999/xlink" height="110.2px" width="133.2px" xmlns="http://www.w3.org/2000/svg">
  <g transform="matrix(1.0, 0.0, 0.0, 1.0, 0.5, 0.5)">
    <path d="M105.4 101.5 Q99.05 93.85 96.25 82.9 93.95 81.0 94.45 72.4 95.4 62.1 98.1 55.2 106.85 50.9 115.3 52.15 118.9 53.15 121.2 54.7 122.85 60.2 123.6 67.6 124.9 80.35 118.25 82.55 108.6 78.25 96.25 82.9 L109.95 82.3 Q115.05 82.05 119.55 85.0 122.2 87.45 121.45 92.45 120.55 102.8 116.65 106.0 112.35 106.45 105.4 101.5 M98.55 54.05 Q98.45 48.15 108.4 42.95 L110.5 43.1 111.9 43.15 Q119.2 46.45 121.35 49.85 121.7 51.9 119.9 52.2 110.1 47.1 98.55 54.05 M41.8 67.95 L41.55 64.8 Q42.95 68.5 43.6 68.05 43.75 56.55 45.6 51.85 L56.25 51.45 Q60.7 52.5 63.1 55.65 64.95 60.05 61.0 64.1 48.5 75.5 44.9 72.7 43.55 71.55 41.8 67.95 M68.65 27.5 Q73.2 27.0 79.9 27.8 80.35 29.6 75.0 31.0 L65.35 30.45 Q65.65 28.95 68.65 27.5 M101.5 57.55 Q95.85 64.9 99.05 77.25 102.1 78.85 104.95 76.25 103.0 65.55 106.5 55.25 106.9 52.35 101.5 57.55 M100.35 86.55 Q101.0 91.65 103.45 94.25 106.6 96.35 107.6 91.9 L106.1 85.6 Q102.95 87.05 100.35 86.55 M52.35 3.65 Q55.35 5.15 58.55 7.5 56.95 10.0 53.6 10.05 50.9 6.8 46.25 3.85 L52.35 3.65 M43.8 3.1 Q55.1 12.2 47.35 15.45 35.25 20.05 26.0 18.05 24.15 12.0 16.9 9.0 28.2 2.05 43.8 3.1 M64.7 31.0 Q68.45 31.45 72.15 32.65 77.4 34.05 78.65 38.0 80.4 43.7 74.2 49.35 68.6 51.7 61.3 51.1 54.1 48.05 44.75 51.45 50.4 38.45 64.7 31.0 M0.0 23.35 Q7.45 14.65 16.2 9.6 23.05 14.2 22.6 19.6 21.75 23.6 17.75 24.05 8.9 25.45 0.0 23.35" fill="#97b771" fill-rule="evenodd" stroke="none"/>
    <path d="M111.9 43.15 L115.05 42.95 Q130.75 50.85 130.95 62.55 L132.15 67.75 Q132.7 85.3 128.95 91.0 126.6 100.75 122.8 107.7 117.35 110.75 111.85 107.7 108.25 104.95 105.4 101.5 112.35 106.45 116.65 106.0 120.55 102.8 121.45 92.45 122.2 87.45 119.55 85.0 115.05 82.05 109.95 82.3 L96.25 82.9 Q108.6 78.25 118.25 82.55 124.9 80.35 123.6 67.6 122.85 60.2 121.2 54.7 118.9 53.15 115.3 52.15 106.85 50.9 98.1 55.2 L98.55 54.05 Q110.1 47.1 119.9 52.2 121.7 51.9 121.35 49.85 119.2 46.45 111.9 43.15 M130.95 62.55 Q125.75 55.2 119.9 52.2 125.75 55.2 130.95 62.55 M79.9 27.8 L83.75 30.4 85.95 32.35 Q88.65 37.5 86.7 39.05 86.65 47.5 81.6 53.95 74.55 63.0 72.35 61.3 61.95 70.6 49.5 76.0 43.9 77.75 42.55 73.0 L41.8 67.95 Q43.55 71.55 44.9 72.7 48.5 75.5 61.0 64.1 64.95 60.05 63.1 55.65 60.7 52.5 56.25 51.45 L45.6 51.85 42.3 52.4 Q43.55 51.85 44.75 51.45 54.1 48.05 61.3 51.1 68.6 51.7 74.2 49.35 80.4 43.7 78.65 38.0 77.4 34.05 72.15 32.65 68.45 31.45 64.7 31.0 L65.35 30.45 64.7 31.0 61.55 30.75 65.35 30.45 75.0 31.0 Q80.35 29.6 79.9 27.8 M86.7 39.05 Q83.55 32.7 75.0 31.0 83.55 32.7 86.7 39.05 M128.95 91.0 Q126.7 88.3 124.3 86.3 121.4 83.9 118.25 82.55 121.4 83.9 124.3 86.3 126.7 88.3 128.95 91.0 M58.55 7.5 Q59.4 9.4 61.1 11.6 L63.5 14.4 Q61.35 19.9 57.15 19.45 49.35 24.6 40.7 27.1 29.4 30.45 25.9 28.1 L5.5 26.9 Q0.15 25.75 0.0 23.35 8.9 25.45 17.75 24.05 21.75 23.6 22.6 19.6 23.05 14.2 16.2 9.6 14.75 8.65 12.95 7.7 L16.9 9.0 Q24.15 12.0 26.0 18.05 35.25 20.05 47.35 15.45 55.1 12.2 43.8 3.1 L40.8 0.85 Q43.8 2.3 46.25 3.85 50.9 6.8 53.6 10.05 56.95 10.0 58.55 7.5 M57.15 19.45 Q57.25 14.5 53.6 10.05 57.25 14.5 57.15 19.45 M25.9 28.1 Q27.3 22.3 26.0 18.05 27.3 22.3 25.9 28.1 M72.35 61.3 Q67.65 53.7 61.3 51.1 67.65 53.7 72.35 61.3 M16.2 9.6 L16.9 9.0 16.2 9.6" fill="#899f6c" fill-rule="evenodd" stroke="none"/>
    <path d="M41.55 64.8 Q41.1 58.05 42.3 52.4 40.5 48.7 50.35 37.0 54.95 33.15 60.1 30.9 62.45 28.05 68.65 27.5 65.65 28.95 65.35 30.45 L61.55 30.75 64.7 31.0 Q50.4 38.45 44.75 51.45 43.55 51.85 42.3 52.4 L45.6 51.85 Q43.75 56.55 43.6 68.05 42.95 68.5 41.55 64.8 M101.5 57.55 Q106.9 52.35 106.5 55.25 103.0 65.55 104.95 76.25 102.1 78.85 99.05 77.25 95.85 64.9 101.5 57.55 M100.35 86.55 Q102.95 87.05 106.1 85.6 L107.6 91.9 Q106.6 96.35 103.45 94.25 101.0 91.65 100.35 86.55 M0.0 23.35 Q-0.05 22.45 0.6 21.4 5.95 12.85 12.95 7.7 14.5 2.05 33.3 0.0 L40.8 0.85 Q46.1 0.5 52.35 3.65 L46.25 3.85 Q43.8 2.3 40.8 0.85 L43.8 3.1 Q28.2 2.05 16.9 9.0 L12.95 7.7 Q14.75 8.65 16.2 9.6 7.45 14.65 0.0 23.35 M61.55 30.75 L60.1 30.9 61.55 30.75" fill="#bdcc98" fill-rule="evenodd" stroke="none"/>
    <path d="M111.9 43.15 L115.05 42.95 Q130.75 50.85 130.95 62.55 L132.15 67.75 Q132.7 85.3 128.95 91.0 126.6 100.75 122.8 107.7 117.35 110.75 111.85 107.7 108.25 104.95 105.4 101.5 99.05 93.85 96.25 82.9 93.95 81.0 94.45 72.4 95.4 62.1 98.1 55.2 L98.55 54.05 Q98.45 48.15 108.4 42.95 L110.5 43.1 111.9 43.15 M119.9 52.2 Q125.75 55.2 130.95 62.55 M79.9 27.8 L83.75 30.4 85.95 32.35 Q88.65 37.5 86.7 39.05 86.65 47.5 81.6 53.95 74.55 63.0 72.35 61.3 61.95 70.6 49.5 76.0 43.9 77.75 42.55 73.0 L41.8 67.95 41.55 64.8 Q41.1 58.05 42.3 52.4 40.5 48.7 50.35 37.0 54.95 33.15 60.1 30.9 62.45 28.05 68.65 27.5 73.2 27.0 79.9 27.8 M75.0 31.0 Q83.55 32.7 86.7 39.05 M96.25 82.9 Q108.6 78.25 118.25 82.55 121.4 83.9 124.3 86.3 126.7 88.3 128.95 91.0 M98.55 54.05 Q110.1 47.1 119.9 52.2 M58.55 7.5 Q59.4 9.4 61.1 11.6 L63.5 14.4 Q61.35 19.9 57.15 19.45 49.35 24.6 40.7 27.1 29.4 30.45 25.9 28.1 L5.5 26.9 Q0.15 25.75 0.0 23.35 -0.05 22.45 0.6 21.4 5.95 12.85 12.95 7.7 14.5 2.05 33.3 0.0 L40.8 0.85 Q46.1 0.5 52.35 3.65 55.35 5.15 58.55 7.5 M53.6 10.05 Q57.25 14.5 57.15 19.45 M40.8 0.85 Q43.8 2.3 46.25 3.85 50.9 6.8 53.6 10.05 M16.9 9.0 Q24.15 12.0 26.0 18.05 27.3 22.3 25.9 28.1 M65.35 30.45 L61.55 30.75 60.1 30.9 M61.3 51.1 Q67.65 53.7 72.35 61.3 M65.35 30.45 L75.0 31.0 M12.95 7.7 L16.9 9.0 M42.3 52.4 Q43.55 51.85 44.75 51.45 54.1 48.05 61.3 51.1" fill="none" stroke="#403a2d" stroke-linecap="round" stroke-linejoin="round" stroke-width="1.0"/>
    <path d="M64.7 31.0 L65.35 30.45 M16.9 9.0 L16.2 9.6" fill="none" stroke="#403a2d" stroke-linecap="round" stroke-linejoin="round" stroke-width="0.05"/>
  </g>
</svg>
