<?xml version="1.0" encoding="UTF-8" standalone="no"?>
<svg xmlns:xlink="http://www.w3.org/1999/xlink" height="35.95px" width="27.35px" xmlns="http://www.w3.org/2000/svg">
  <g transform="matrix(1.0, 0.0, 0.0, 1.0, 0.6, 0.6)">
    <path d="M21.35 22.55 Q17.2 29.4 11.85 32.8 6.45 36.05 3.05 33.9 -0.45 31.75 0.05 25.4 0.65 19.0 4.75 12.15 8.95 5.3 14.25 1.95 19.6 -1.25 23.15 0.85 26.6 3.05 26.05 9.45 25.6 15.75 21.35 22.55" fill="url(#gradient0)" fill-rule="evenodd" stroke="none"/>
    <path d="M21.35 22.55 Q17.2 29.4 11.85 32.8 6.45 36.05 3.05 33.9 -0.45 31.75 0.05 25.4 0.65 19.0 4.75 12.15 8.95 5.3 14.25 1.95 19.6 -1.25 23.15 0.85 26.6 3.05 26.05 9.45 25.6 15.75 21.35 22.55 Z" fill="none" stroke="#403a2d" stroke-linecap="round" stroke-linejoin="round" stroke-width="1.2000000000000002"/>
    <path d="M18.95 18.85 Q16.05 23.6 12.35 25.95 8.55 28.25 6.2 26.8 3.75 25.2 4.15 20.85 4.55 16.4 7.4 11.6 10.3 6.85 14.0 4.5 17.8 2.25 20.25 3.7 22.55 5.2 22.25 9.65 21.85 14.05 18.95 18.85" fill="url(#gradient1)" fill-rule="evenodd" stroke="none"/>
    <path d="M11.25 11.7 Q10.15 10.3 10.8 8.1 11.4 5.8 13.05 4.0 14.95 1.9 16.75 1.55 18.75 1.05 19.55 2.45 20.5 3.75 19.7 6.15 19.3 8.45 17.55 10.4 15.95 12.1 13.85 12.6 12.0 13.25 11.25 11.7" fill="url(#gradient2)" fill-rule="evenodd" stroke="none"/>
  </g>
  <defs>
    <radialGradient cx="0" cy="0" gradientTransform="matrix(0.0211, 0.0133, -0.017, 0.0282, 10.35, 16.65)" gradientUnits="userSpaceOnUse" id="gradient0" r="819.2" spreadMethod="pad">
      <stop offset="0.42745098039215684" stop-color="#b04c45"/>
      <stop offset="0.611764705882353" stop-color="#8b4c46"/>
    </radialGradient>
    <radialGradient cx="0" cy="0" gradientTransform="matrix(0.0073, 0.0048, -0.0097, 0.0152, 13.25, 15.7)" gradientUnits="userSpaceOnUse" id="gradient1" r="819.2" spreadMethod="pad">
      <stop offset="0.6862745098039216" stop-color="#0d0a08"/>
      <stop offset="0.7411764705882353" stop-color="#8b4c46"/>
      <stop offset="0.9254901960784314" stop-color="#8b4c46" stop-opacity="0.0"/>
    </radialGradient>
    <radialGradient cx="0" cy="0" gradientTransform="matrix(-0.0058, 0.0063, 0.0025, 0.0037, 15.3, 7.15)" gradientUnits="userSpaceOnUse" id="gradient2" r="819.2" spreadMethod="pad">
      <stop offset="0.0" stop-color="#ffffff"/>
      <stop offset="0.6862745098039216" stop-color="#ffffff"/>
      <stop offset="1.0" stop-color="#ffffff" stop-opacity="0.0"/>
    </radialGradient>
  </defs>
</svg>
