<?xml version="1.0" encoding="UTF-8" standalone="no"?>
<svg xmlns:xlink="http://www.w3.org/1999/xlink" height="122.7px" width="127.75px" xmlns="http://www.w3.org/2000/svg">
  <g transform="matrix(1.0, 0.0, 0.0, 1.0, 0.6, -74.75)">
    <path d="M94.8 75.35 Q102.55 80.8 109.2 88.7 L113.8 96.45 Q121.3 116.85 106.55 108.15 127.85 127.9 121.75 165.9 117.1 179.3 109.5 185.7 106.3 190.3 105.3 195.45 L62.65 188.5 Q66.75 179.85 75.45 176.55 L47.7 178.05 Q38.75 179.1 27.4 175.65 L23.2 172.95 Q15.05 157.7 11.3 147.6 L11.3 147.55 8.3 137.25 Q8.1 133.3 10.65 130.7 8.85 125.2 5.9 119.85 4.65 115.5 5.15 113.65 5.85 112.75 6.7 113.55 6.2 114.7 6.5 115.2 L6.65 115.4 Q6.85 117.15 8.05 118.1 L10.55 119.65 11.05 119.65 11.55 119.65 11.55 119.05 Q16.65 121.15 24.6 116.0 L24.65 116.2 24.65 116.4 25.4 116.55 25.65 116.45 Q27.8 116.55 29.3 114.6 30.15 111.65 29.15 110.6 L29.85 110.5 40.4 110.6 Q50.5 110.55 58.8 94.75 56.95 100.95 57.2 110.7 L57.3 113.05 57.35 113.1 Q66.1 119.3 76.05 118.45 85.75 118.15 91.5 106.3 88.85 94.2 82.45 85.9 79.6 82.9 76.7 81.75 84.0 78.55 81.15 74.85 L81.1 74.8 94.8 75.35 M55.55 91.5 L55.65 91.6 Q58.8 82.0 59.8 81.45 L59.6 81.35 Q61.25 80.55 62.85 80.65 57.9 85.5 56.2 93.55 55.6 93.15 55.55 91.5 M11.9 136.1 L11.95 136.15 11.95 136.1 11.9 136.1 M108.8 163.05 Q99.65 171.8 86.1 175.55 93.8 175.25 100.85 171.5 107.75 167.85 108.8 163.05" fill="#dac78e" fill-rule="evenodd" stroke="none"/>
    <path d="M81.1 74.8 L81.15 74.85 Q84.0 78.55 76.7 81.75 70.95 79.4 64.8 84.0 L63.25 86.75 Q60.3 89.5 58.8 94.75 50.5 110.55 40.4 110.6 L29.85 110.5 29.15 110.6 29.1 110.55 Q27.7 110.7 26.1 113.05 L25.95 113.3 Q24.9 115.0 24.6 116.0 16.65 121.15 11.55 119.05 10.65 117.25 9.45 115.85 L8.7 115.0 Q7.3 113.55 6.75 113.55 L6.7 113.55 Q5.85 112.75 5.15 113.65 4.65 115.5 5.9 119.85 8.85 125.2 10.65 130.7 8.1 133.3 8.3 137.25 L11.3 147.55 11.3 147.6 Q15.05 157.7 23.2 172.95 21.35 171.15 19.75 169.05 L17.55 165.7 Q7.3 148.35 8.45 141.9 L1.6 126.15 Q-4.05 109.65 10.15 91.15 7.15 96.75 6.4 103.1 L6.7 106.7 Q14.0 91.1 24.1 81.25 L81.1 74.8 M59.6 81.35 Q57.45 83.05 56.25 86.45 55.4 88.8 55.4 90.05 55.4 90.75 55.55 91.5 55.6 93.15 56.2 93.55 57.9 85.5 62.85 80.65 61.25 80.55 59.6 81.35" fill="#f6e19b" fill-rule="evenodd" stroke="none"/>
    <path d="M10.15 91.15 Q12.5 86.7 17.0 82.05 L24.1 81.25 Q14.0 91.1 6.7 106.7 L6.4 103.1 Q7.15 96.75 10.15 91.15" fill="#f9e8b7" fill-rule="evenodd" stroke="none"/>
    <path d="M25.65 116.45 L25.4 116.55 24.65 116.4 24.65 116.2 24.6 116.0 Q24.9 115.0 25.95 113.3 L26.1 113.05 Q27.7 110.7 29.1 110.55 29.05 111.4 27.4 114.0 L25.65 116.45 M11.55 119.05 L11.55 119.65 11.05 119.65 6.65 115.4 6.5 115.2 Q6.2 114.7 6.7 113.55 L6.75 113.55 Q7.3 113.55 8.7 115.0 L9.45 115.85 Q10.65 117.25 11.55 119.05 M55.55 91.5 Q55.4 90.75 55.4 90.05 55.4 88.8 56.25 86.45 57.45 83.05 59.6 81.35 L59.8 81.45 Q58.8 82.0 55.65 91.6 L55.55 91.5" fill="#403a2d" fill-rule="evenodd" stroke="none"/>
    <path d="M91.5 106.3 Q85.75 118.15 76.05 118.45 66.1 119.3 57.35 113.1 L57.3 113.05 57.2 110.7 Q56.95 100.95 58.8 94.75 60.3 89.5 63.25 86.75 58.05 96.9 58.9 110.7 77.05 120.4 91.5 106.3 M29.15 110.6 Q30.15 111.65 29.3 114.6 27.8 116.55 25.65 116.45 L27.4 114.0 Q29.05 111.4 29.1 110.55 L29.15 110.6 M11.05 119.65 L10.55 119.65 8.05 118.1 Q6.85 117.15 6.65 115.4 L11.05 119.65 M23.2 172.95 L27.4 175.65 Q38.75 179.1 47.7 178.05 L75.45 176.55 Q66.75 179.85 62.65 188.5 L62.6 188.55 Q60.8 191.45 58.7 191.55 L59.55 188.0 59.5 188.0 Q61.4 181.35 51.55 181.8 42.15 182.3 34.85 179.9 28.15 177.65 23.2 172.95 M105.3 195.45 Q106.3 190.3 109.5 185.7 117.1 179.3 121.75 165.9 127.85 127.9 106.55 108.15 121.3 116.85 113.8 96.45 120.7 109.55 121.5 122.65 134.7 150.25 113.45 196.8 L113.4 196.85 105.3 195.45 M108.8 163.05 Q107.75 167.85 100.85 171.5 93.8 175.25 86.1 175.55 99.65 171.8 108.8 163.05" fill="#c8b585" fill-rule="evenodd" stroke="none"/>
    <path d="M113.8 96.45 L109.2 88.7 Q102.55 80.8 94.8 75.35 M76.7 81.75 Q79.6 82.9 82.45 85.9 88.85 94.2 91.5 106.3 77.05 120.4 58.9 110.7 58.05 96.9 63.25 86.75 L64.8 84.0 Q70.95 79.4 76.7 81.75 M113.8 96.45 Q120.7 109.55 121.5 122.65 134.7 150.25 113.45 196.8 L113.4 196.85 M17.0 82.05 Q12.5 86.7 10.15 91.15 -4.05 109.65 1.6 126.15 L8.45 141.9 Q7.3 148.35 17.55 165.7 L19.75 169.05 Q21.35 171.15 23.2 172.95 28.15 177.65 34.85 179.9 42.15 182.3 51.55 181.8" fill="none" stroke="#403a2d" stroke-linecap="round" stroke-linejoin="round" stroke-width="1.2000000000000002"/>
    <path d="M113.1 112.8 L113.1 112.65 113.25 112.65 114.85 113.9 115.8 114.75 116.0 114.9 118.9 117.95 120.15 119.55 120.3 119.8 121.15 120.95 122.0 122.35 122.0 122.4 122.05 122.85 121.75 123.2 Q121.25 123.45 120.95 122.9 L119.4 120.1 118.95 119.4 116.05 115.65 115.65 115.25 115.5 115.05 113.55 113.15 113.1 112.8 M51.55 182.35 L51.5 182.4 Q50.9 182.3 50.9 181.75 50.9 181.1 51.5 181.2 L53.25 181.2 53.5 181.25 55.55 181.5 55.8 181.6 56.1 181.65 56.4 181.75 56.7 181.8 57.8 182.3 Q58.3 182.55 58.8 183.05 L59.55 184.0 59.9 185.05 59.95 186.3 59.9 186.5 59.9 186.7 59.85 186.85 59.8 187.2 59.7 187.5 59.7 187.6 59.65 187.7 59.55 188.0 59.45 188.05 59.4 187.95 59.4 187.8 59.45 187.65 59.45 187.55 59.5 187.45 59.55 187.15 59.55 186.85 59.6 186.65 59.6 186.05 59.5 185.15 59.1 184.25 58.4 183.5 57.5 182.95 56.45 182.6 56.2 182.5 56.05 182.5 55.9 182.45 55.65 182.4 55.4 182.4 51.55 182.35 M7.9 142.15 L7.85 142.05 Q7.55 141.5 8.2 141.3 L8.65 141.3 8.95 141.6 11.35 147.55 11.3 147.65 11.2 147.6 7.9 142.15 M9.6 90.85 L9.6 90.8 Q9.95 90.25 10.45 90.6 10.9 90.9 10.65 91.4 L10.25 92.1 8.85 94.9 7.3 99.2 7.2 99.75 7.1 100.0 6.7 101.95 6.6 102.25 6.45 103.1 6.35 103.15 6.3 103.05 6.3 102.5 6.65 100.15 6.65 99.9 6.8 99.1 8.25 94.05 8.3 93.8 8.75 92.65 9.6 90.85" fill="#403a2d" fill-rule="evenodd" stroke="none"/>
  </g>
</svg>
