<?xml version="1.0" encoding="UTF-8" standalone="no"?>
<svg xmlns:xlink="http://www.w3.org/1999/xlink" height="80.35px" width="59.75px" xmlns="http://www.w3.org/2000/svg">
  <g transform="matrix(1.0, 0.0, 0.0, 1.0, -99.1, 0.0)">
    <path d="M137.1 61.0 Q132.75 59.8 127.6 59.3 122.3 52.45 125.15 39.25 134.0 25.35 142.3 7.0 L151.35 2.7 151.4 2.7 Q151.9 4.6 150.45 7.45 L149.9 8.4 136.7 36.85 136.35 37.65 135.8 38.9 Q130.25 52.15 137.1 61.0 152.95 65.3 158.25 79.75 L99.7 71.25 99.75 71.2 Q115.25 59.7 137.1 61.0" fill="#97b771" fill-rule="evenodd" stroke="none"/>
    <path d="M151.35 2.7 L142.3 7.0 Q134.0 25.35 125.15 39.25 122.3 52.45 127.6 59.3 132.75 59.8 137.1 61.0 115.25 59.7 99.75 71.2 110.8 57.5 118.65 38.9 L119.15 37.65 Q122.85 28.7 125.8 18.65 L127.8 11.6 Q130.9 -5.5 151.4 2.65 L151.35 2.7" fill="#899f6c" fill-rule="evenodd" stroke="none"/>
    <path d="M151.4 2.7 L151.35 2.7 151.4 2.65 151.4 2.7" fill="#bdcc98" fill-rule="evenodd" stroke="none"/>
    <path d="M137.1 61.0 Q130.25 52.15 135.8 38.9 L136.35 37.65 136.7 36.85 149.9 8.4 150.45 7.45 Q151.9 4.6 151.4 2.7 L151.4 2.65 M127.8 11.6 L125.8 18.65 Q122.85 28.7 119.15 37.65 L118.65 38.9 Q110.8 57.5 99.75 71.2 L99.7 71.25 M137.1 61.0 Q152.95 65.3 158.25 79.75" fill="none" stroke="#403a2d" stroke-linecap="round" stroke-linejoin="round" stroke-width="1.2000000000000002"/>
    <path d="M127.55 59.35 L127.5 59.25 Q127.5 59.1 127.6 59.2 L132.4 59.6 137.25 60.4 137.3 60.4 Q137.9 60.6 137.7 61.15 137.55 61.75 136.9 61.55 L133.15 60.45 127.55 59.35" fill="#403a2d" fill-rule="evenodd" stroke="none"/>
  </g>
</svg>
