<?xml version="1.0" encoding="UTF-8" standalone="no"?>
<svg xmlns:xlink="http://www.w3.org/1999/xlink" height="233.5px" width="308.7px" xmlns="http://www.w3.org/2000/svg">
  <g transform="matrix(1.0, 0.0, 0.0, 1.0, -157.9, -152.55)">
    <path d="M374.6 319.45 Q373.9 314.25 382.95 316.05 398.5 320.9 409.85 323.0 424.4 325.85 430.45 324.85 L430.8 325.0 Q450.4 329.85 466.0 329.1 430.8 351.45 382.4 361.8 L373.25 363.35 Q369.1 364.5 364.6 365.1 342.3 367.95 311.7 357.6 L310.55 357.25 307.0 355.95 304.55 355.1 Q291.3 350.45 277.65 343.55 243.15 326.1 222.25 299.35 201.6 272.0 190.1 247.65 L187.95 243.9 187.8 243.7 183.85 236.75 183.05 235.2 179.0 227.2 175.55 219.7 Q160.5 183.4 163.1 172.95 165.65 162.5 173.0 153.25 L174.25 163.15 173.8 170.95 Q172.65 174.7 174.15 178.4 181.25 202.9 187.95 220.15 L188.65 222.0 193.7 234.15 195.05 237.2 195.65 238.3 Q215.05 285.4 240.55 301.3 265.95 324.25 335.65 320.95 324.1 326.3 328.8 333.95 357.5 343.1 374.0 327.75 375.85 325.5 376.05 323.4 376.15 321.3 374.6 319.45" fill="#97b771" fill-rule="evenodd" stroke="none"/>
    <path d="M430.45 324.85 Q424.4 325.85 409.85 323.0 398.5 320.9 382.95 316.05 373.9 314.25 374.6 319.45 367.9 313.7 355.3 312.65 379.75 307.75 393.45 312.15 413.5 320.65 430.45 324.85 M335.65 320.95 Q265.95 324.25 240.55 301.3 264.1 313.3 282.15 314.7 L341.35 317.0 346.5 317.3 Q339.95 319.0 335.65 320.95 M173.0 153.25 Q165.65 162.5 163.1 172.95 160.5 183.4 175.55 219.7 L165.75 199.0 Q159.65 189.1 158.5 178.95 160.4 167.45 166.9 158.25 169.4 154.75 170.9 153.8 171.85 153.2 172.95 153.15 L173.0 153.25" fill="#bdcc98" fill-rule="evenodd" stroke="none"/>
    <path d="M179.0 227.2 L183.05 235.2 183.85 236.75 187.8 243.7 187.95 243.9 190.1 247.65 Q201.6 272.0 222.25 299.35 243.15 326.1 277.65 343.55 291.3 350.45 304.55 355.1 L307.0 355.95 310.55 357.25 311.7 357.6 Q342.3 367.95 364.6 365.1 369.1 364.5 373.25 363.35 L382.4 361.8 Q430.8 351.45 466.0 329.1 462.2 338.8 456.45 342.25 447.7 347.45 443.8 352.05 L413.9 374.6 Q366.05 394.05 309.55 378.7 223.75 338.7 186.15 245.0 L179.0 227.2" fill="#899f6c" fill-rule="evenodd" stroke="none"/>
    <path d="M430.45 324.85 Q413.5 320.65 393.45 312.15 379.75 307.75 355.3 312.65 367.9 313.7 374.6 319.45 376.15 321.3 376.05 323.4 375.85 325.5 374.0 327.75 357.5 343.1 328.8 333.95 324.1 326.3 335.65 320.95 339.95 319.0 346.5 317.3 L341.35 317.0 282.15 314.7 Q264.1 313.3 240.55 301.3 215.05 285.4 195.65 238.3 L195.05 237.2 193.7 234.15 188.65 222.0 187.95 220.15 Q181.25 202.9 174.15 178.4 M175.55 219.7 L179.0 227.2 186.15 245.0 Q223.75 338.7 309.55 378.7 366.05 394.05 413.9 374.6 L443.8 352.05 Q447.7 347.45 456.45 342.25 462.2 338.8 466.0 329.1 450.4 329.85 430.8 325.0 M311.7 357.6 Q342.3 367.95 364.6 365.1 M172.95 153.15 Q171.85 153.2 170.9 153.8 169.4 154.75 166.9 158.25 160.4 167.45 158.5 178.95 159.65 189.1 165.75 199.0 L175.55 219.7" fill="none" stroke="#403a2d" stroke-linecap="round" stroke-linejoin="round" stroke-width="1.2000000000000002"/>
    <path d="M173.0 153.25 L172.95 153.15" fill="none" stroke="#2a3c45" stroke-linecap="round" stroke-linejoin="round" stroke-width="0.05"/>
    <path d="M304.5 355.15 L304.45 355.05 Q304.45 354.9 304.55 355.0 L304.85 355.05 307.05 355.65 307.1 355.65 307.1 355.7 307.2 355.7 311.5 356.95 311.8 357.0 311.9 357.0 Q312.5 357.2 312.3 357.75 312.15 358.35 311.55 358.15 L311.2 358.05 307.0 356.25 306.85 356.15 306.7 356.1 304.5 355.15 M178.45 227.45 L178.4 227.4 Q178.2 226.85 178.7 226.6 179.35 226.4 179.5 226.9 L183.3 234.8 183.35 234.95 183.45 235.05 183.55 235.35 184.05 236.4 184.15 236.5 184.15 236.55 187.95 243.55 187.95 243.6 188.0 243.65 188.05 243.75 188.1 243.8 190.15 247.55 190.15 247.7 190.0 247.7 187.75 243.95 187.6 243.8 183.55 237.0 183.5 236.95 183.5 236.85 183.4 236.75 182.7 235.45 182.65 235.3 182.55 235.2 178.45 227.45 M174.7 178.15 L174.7 178.25 Q174.9 178.85 174.3 179.0 173.75 179.2 173.55 178.6 L173.45 178.3 173.25 177.4 173.15 177.1 173.1 176.8 173.1 176.65 173.05 176.5 173.0 176.15 173.0 175.8 172.95 175.6 173.05 173.25 173.15 172.75 173.15 172.6 173.25 172.3 173.3 172.05 173.4 171.8 173.55 171.2 173.7 170.9 Q173.7 170.75 173.8 170.85 L173.85 170.95 173.75 171.45 173.75 171.65 173.65 172.1 173.65 172.4 173.6 172.7 173.6 173.0 173.55 173.3 173.7 175.0 173.7 175.15 173.75 175.35 173.75 175.5 173.9 176.0 173.95 176.3 174.25 177.1 174.3 177.35 174.4 177.55 174.5 177.7 174.55 177.85 174.7 178.15 M364.65 365.65 L364.6 365.7 Q363.95 365.7 363.95 365.15 363.85 364.5 364.5 364.5 L371.2 363.65 373.2 363.25 Q373.3 363.15 373.3 363.3 L373.25 363.4 372.5 363.7 366.0 365.4 364.65 365.65" fill="#403a2d" fill-rule="evenodd" stroke="none"/>
  </g>
</svg>
