<?xml version="1.0" encoding="UTF-8" standalone="no"?>
<svg xmlns:xlink="http://www.w3.org/1999/xlink" height="22.25px" width="30.5px" xmlns="http://www.w3.org/2000/svg">
  <g transform="matrix(1.0, 0.0, 0.0, 1.0, 0.6, -0.1)">
    <path d="M16.3 0.4 Q22.0 1.5 24.9 5.2 L27.7 9.15 29.25 11.9 25.85 11.35 22.95 11.1 Q16.0 11.1 9.0 14.8 3.4 17.75 0.0 21.7 2.75 13.45 5.65 9.1 9.75 3.05 16.3 0.4" fill="#c8b585" fill-rule="evenodd" stroke="none"/>
    <path d="M16.3 0.4 Q9.75 3.05 5.65 9.1 2.75 13.45 0.0 21.7 L-0.1 20.05 -0.1 18.35 Q0.05 12.25 3.15 7.0 7.2 0.1 13.55 0.1 L16.3 0.4" fill="#dac78e" fill-rule="evenodd" stroke="none"/>
    <path d="M0.0 21.7 Q3.4 17.75 9.0 14.8 16.0 11.1 22.95 11.1 L25.85 11.35 29.25 11.9" fill="none" stroke="#403a2d" stroke-linecap="round" stroke-linejoin="round" stroke-width="1.2000000000000002"/>
    <path d="M-0.15 18.3 L-0.1 18.25 0.0 18.35 0.0 18.5 0.55 21.65 0.6 21.8 Q0.5 22.45 0.0 22.35 -0.65 22.35 -0.55 21.7 L-0.2 18.45 -0.15 18.3 M29.75 11.6 L29.85 11.75 Q30.05 12.35 29.45 12.55 28.9 12.75 28.7 12.15 L27.6 9.2 27.6 9.05 27.75 9.05 29.7 11.5 29.75 11.6" fill="#403a2d" fill-rule="evenodd" stroke="none"/>
  </g>
</svg>
