<?xml version="1.0" encoding="UTF-8" standalone="no"?>
<svg xmlns:xlink="http://www.w3.org/1999/xlink" height="113.8px" width="136.0px" xmlns="http://www.w3.org/2000/svg">
  <g transform="matrix(1.0, 0.0, 0.0, 1.0, 0.0, 0.6)">
    <path d="M135.4 0.9 L133.5 47.75 Q68.2 48.65 1.5 57.75 4.25 33.75 12.35 11.3 14.4 5.6 16.8 0.0 60.85 26.85 106.85 13.2 121.05 8.95 135.4 0.9" fill="#f6e19b" fill-rule="evenodd" stroke="none"/>
    <path d="M133.5 47.75 L131.95 70.65 Q58.95 71.45 0.7 101.95 -0.15 91.1 0.0 80.55 0.1 73.6 0.6 66.8 L1.5 57.75 Q68.2 48.65 133.5 47.75" fill="#dac78e" fill-rule="evenodd" stroke="none"/>
    <path d="M131.95 70.65 L131.95 86.2 Q69.15 80.0 1.75 112.6 L0.7 101.95 Q58.95 71.45 131.95 70.65" fill="#c9b783" fill-rule="evenodd" stroke="none"/>
    <path d="M131.95 86.2 Q69.15 80.0 1.75 112.6 M16.8 0.0 Q60.85 26.85 106.85 13.2 121.05 8.95 135.4 0.9" fill="none" stroke="#403a2d" stroke-linecap="round" stroke-linejoin="round" stroke-width="1.2000000000000002"/>
  </g>
</svg>
