<?xml version="1.0" encoding="UTF-8" standalone="no"?>
<svg xmlns:xlink="http://www.w3.org/1999/xlink" height="189.6px" width="180.05px" xmlns="http://www.w3.org/2000/svg">
  <g transform="matrix(1.0, 0.0, 0.0, 1.0, 0.6, 0.6)">
    <path d="M173.7 66.5 L175.45 97.35 Q148.75 75.4 102.55 60.35 95.4 56.3 88.45 51.5 109.25 55.8 125.05 57.9 L146.25 59.7 Q162.75 60.25 173.7 66.5" fill="#f6e19b" fill-rule="evenodd" stroke="none"/>
    <path d="M175.45 97.35 L178.85 157.7 Q116.3 170.7 87.95 149.2 59.15 127.75 53.65 108.2 37.9 80.15 13.9 74.75 L33.2 0.0 Q59.2 31.7 88.45 51.5 95.4 56.3 102.55 60.35 148.75 75.4 175.45 97.35" fill="#dac78e" fill-rule="evenodd" stroke="none"/>
    <path d="M178.85 157.7 Q171.9 172.65 160.0 182.0 130.1 185.95 106.65 187.95 80.15 191.05 50.85 173.75 22.4 156.95 1.25 130.25 L0.0 128.65 13.9 74.75 Q37.9 80.15 53.65 108.2 59.15 127.75 87.95 149.2 116.3 170.7 178.85 157.7" fill="#c9b783" fill-rule="evenodd" stroke="none"/>
    <path d="M178.85 157.7 Q171.9 172.65 160.0 182.0 130.1 185.95 106.65 187.95 80.15 191.05 50.85 173.75 22.4 156.95 1.25 130.25 L0.0 128.65 M33.2 0.0 Q59.2 31.7 88.45 51.5 109.25 55.8 125.05 57.9 L146.25 59.7 Q162.75 60.25 173.7 66.5 L174.05 66.7 M88.45 51.5 Q95.4 56.3 102.55 60.35" fill="none" stroke="#403a2d" stroke-linecap="round" stroke-linejoin="round" stroke-width="1.2000000000000002"/>
    <path d="M77.6 180.25 L77.6 180.1 Q77.6 179.95 77.75 180.1 L78.0 180.3 80.9 182.05 83.9 183.45 84.15 183.6 85.95 184.25 86.25 184.4 91.95 185.95 93.7 186.3 98.4 186.95 106.3 187.3 106.65 187.35 Q107.25 187.35 107.25 187.95 107.25 188.6 106.6 188.5 L101.85 188.25 93.55 187.05 92.15 186.7 91.8 186.65 86.4 185.0 86.1 184.85 85.6 184.7 85.45 184.6 84.3 184.1 84.0 184.0 81.65 182.8 80.75 182.3 80.35 182.1 79.25 181.4 78.7 181.0 78.2 180.7 77.6 180.25" fill="#403a2d" fill-rule="evenodd" stroke="none"/>
  </g>
</svg>
