<?xml version="1.0" encoding="UTF-8" standalone="no"?>
<svg xmlns:xlink="http://www.w3.org/1999/xlink" height="182.5px" width="119.7px" xmlns="http://www.w3.org/2000/svg">
  <g transform="matrix(1.0, 0.0, 0.0, 1.0, 0.6, 0.6)">
    <path d="M47.3 0.0 Q50.2 0.2 53.9 3.15 59.25 7.35 66.25 17.15 88.3 55.95 96.6 104.0 99.9 126.9 107.0 145.3 111.85 157.9 118.5 168.45 58.25 194.15 0.0 168.45 53.1 159.05 70.6 140.75 80.5 122.3 72.95 95.15 64.75 43.0 47.3 0.0" fill="#dac78e" fill-rule="evenodd" stroke="none"/>
    <path d="M40.9 28.2 Q46.25 35.5 46.5 74.5 43.7 97.6 23.4 112.55 L34.2 76.75 Q39.4 54.3 40.9 28.2" fill="#f9e8b7" fill-rule="evenodd" stroke="none"/>
    <path d="M47.3 0.0 Q64.75 43.0 72.95 95.15 80.5 122.3 70.6 140.75 53.1 159.05 0.0 168.45 0.7 156.9 3.2 145.3 6.1 131.65 11.55 118.0 31.7 69.3 37.7 17.15 38.8 7.35 41.6 3.15 43.9 -0.3 47.3 0.0 M40.9 28.2 Q39.4 54.3 34.2 76.75 L23.4 112.55 Q43.7 97.6 46.5 74.5 46.25 35.5 40.9 28.2" fill="#f6e19b" fill-rule="evenodd" stroke="none"/>
    <path d="M0.0 168.45 Q58.25 194.15 118.5 168.45 111.85 157.9 107.0 145.3 99.9 126.9 96.6 104.0 88.3 55.95 66.25 17.15 59.25 7.35 53.9 3.15 50.2 0.2 47.3 0.0 43.9 -0.3 41.6 3.15 38.8 7.35 37.7 17.15 31.7 69.3 11.55 118.0 6.1 131.65 3.2 145.3 0.7 156.9 0.0 168.45 Z" fill="none" stroke="#403a2d" stroke-linecap="round" stroke-linejoin="round" stroke-width="1.2000000000000002"/>
  </g>
</svg>
