<?xml version="1.0" encoding="UTF-8" standalone="no"?>
<svg xmlns:xlink="http://www.w3.org/1999/xlink" height="176.75px" width="178.05px" xmlns="http://www.w3.org/2000/svg">
  <g transform="matrix(1.0, 0.0, 0.0, 1.0, 0.6, 0.6)">
    <path d="M140.7 3.7 Q143.9 11.65 138.75 19.55 126.9 32.95 109.9 38.25 108.45 25.8 100.35 20.65 105.0 11.1 112.25 9.3 126.7 4.35 140.7 3.7 M49.35 10.2 Q46.15 24.7 49.7 39.35 44.25 41.75 38.25 40.85 35.55 40.4 32.75 39.35 23.95 37.05 15.1 26.75 24.65 14.4 42.7 11.1 L49.35 10.2" fill="#f9e8b7" fill-rule="evenodd" stroke="none"/>
    <path d="M128.3 122.35 Q115.25 111.2 110.65 101.3 L110.45 100.95 Q106.85 92.95 108.75 85.75 114.05 77.55 116.65 64.55 142.6 55.25 160.4 34.1 L160.4 31.0 Q135.95 61.1 104.9 54.55 L104.45 54.65 103.95 54.15 95.55 32.65 Q89.8 26.0 95.55 15.2 104.55 7.8 114.1 4.0 143.25 -7.7 176.85 14.85 L128.3 122.35 M55.75 6.95 Q65.1 8.7 75.0 13.65 86.1 32.6 69.35 60.1 L64.25 60.9 Q37.4 64.4 20.9 49.7 L14.0 41.5 14.95 43.75 Q20.35 54.9 41.65 67.2 50.8 82.75 46.5 91.55 35.75 95.8 26.7 91.45 L0.0 28.45 Q24.8 1.55 54.75 6.75 L55.75 6.95 M140.7 3.7 Q126.7 4.35 112.25 9.3 105.0 11.1 100.35 20.65 108.45 25.8 109.9 38.25 126.9 32.95 138.75 19.55 143.9 11.65 140.7 3.7 M49.35 10.2 L42.7 11.1 Q24.65 14.4 15.1 26.75 23.95 37.05 32.75 39.35 35.55 40.4 38.25 40.85 44.25 41.75 49.7 39.35 46.15 24.7 49.35 10.2" fill="#f6e19b" fill-rule="evenodd" stroke="none"/>
    <path d="M114.1 4.0 Q104.55 7.8 95.55 15.2 89.8 26.0 95.55 32.65 L103.95 54.15 104.45 54.65 104.9 54.55 Q135.95 61.1 160.4 31.0 L160.4 34.1 Q142.6 55.25 116.65 64.55 114.05 77.55 108.75 85.75 106.85 92.95 110.45 100.95 L110.65 101.3 Q115.25 111.2 128.3 122.35 L110.15 127.9 Q112.05 136.65 112.2 144.6 113.45 151.85 115.45 157.7 117.45 163.65 120.3 168.05 127.3 177.8 117.35 175.8 111.5 175.7 104.8 174.35 L91.2 172.55 Q80.8 170.65 72.1 167.35 67.1 165.45 62.65 163.1 50.25 148.65 59.5 126.9 L26.7 91.45 Q35.75 95.8 46.5 91.55 50.8 82.75 41.65 67.2 20.35 54.9 14.95 43.75 L14.0 41.5 20.9 49.7 Q37.4 64.4 64.25 60.9 L69.35 60.1 Q86.1 32.6 75.0 13.65 65.1 8.7 55.75 6.95 85.75 11.8 114.1 4.0" fill="#dac78e" fill-rule="evenodd" stroke="none"/>
    <path d="M26.7 91.45 L59.5 126.9 Q50.25 148.65 62.65 163.1 25.85 143.4 26.7 91.45" fill="#c9b783" fill-rule="evenodd" stroke="none"/>
    <path d="M62.65 163.1 Q67.1 165.45 72.1 167.35 80.8 170.65 91.2 172.55 M176.85 14.85 Q143.25 -7.7 114.1 4.0 M0.0 28.45 Q24.8 1.55 54.75 6.75 L55.75 6.95 M26.7 91.45 Q25.85 143.4 62.65 163.1 Z" fill="none" stroke="#403a2d" stroke-linecap="round" stroke-linejoin="round" stroke-width="1.2000000000000002"/>
    <path d="M91.05 173.1 L91.0 173.1 Q90.45 173.0 90.55 172.4 90.75 171.8 91.3 171.95 L104.8 174.25 104.85 174.35 104.75 174.4 103.5 174.35 102.6 174.3 91.05 173.1 M55.6 7.5 L55.2 7.25 55.15 6.8 Q55.25 6.2 55.85 6.35 L58.15 6.85 67.95 10.1 74.15 12.95 75.0 13.4 79.05 15.65 79.25 15.8 79.3 15.9 79.2 15.95 78.95 15.85 72.5 12.7 67.7 10.75 60.35 8.5 55.6 7.5 M95.6 15.25 L95.45 15.25 95.45 15.1 96.2 14.5 96.55 14.15 99.95 11.5 100.1 11.35 100.85 10.8 101.05 10.7 106.8 6.95 108.05 6.25 113.85 3.4 113.9 3.4 Q114.45 3.2 114.65 3.75 114.85 4.3 114.3 4.55 L109.7 6.45 108.45 7.05 101.55 11.0 101.35 11.1 100.2 11.9 100.0 12.0 95.6 15.25" fill="#403a2d" fill-rule="evenodd" stroke="none"/>
  </g>
</svg>
