<?xml version="1.0" encoding="UTF-8" standalone="no"?>
<svg xmlns:xlink="http://www.w3.org/1999/xlink" height="60.0px" width="42.8px" xmlns="http://www.w3.org/2000/svg">
  <g transform="matrix(1.0, 0.0, 0.0, 1.0, 21.65, 30.0)">
    <path d="M-6.2 29.9 Q-7.05 29.65 -8.25 28.65 L-14.0 24.1 -12.35 25.35 -15.05 22.6 Q-17.3 20.1 -18.15 18.5 -23.55 5.55 -19.05 -8.6 -15.9 -16.95 -11.55 -22.75 -6.1 -28.7 0.15 -30.0 L9.9 -25.4 13.95 -17.35 Q17.05 -10.7 18.85 -4.9 20.25 0.65 20.6 5.8 20.95 11.4 20.05 16.5 18.25 22.05 13.6 25.65 L2.5 27.8 2.85 27.2 4.2 24.75 Q5.7 22.5 5.8 19.6 7.85 13.75 7.7 6.85 5.4 -2.1 2.5 -8.3 L1.3 -10.6 Q0.15 -14.35 0.05 -18.4 0.0 -21.25 0.45 -24.15 L0.65 -25.35 Q-2.55 -25.35 -7.3 -19.2 -12.1 -13.05 -14.75 -2.85 -20.2 18.85 -6.2 29.9 M4.35 -20.85 Q8.8 -11.15 11.2 -0.25 12.45 6.4 11.2 19.2 13.05 21.6 14.85 12.8 15.55 7.2 15.2 -2.55 11.15 -15.65 4.95 -23.15 2.8 -26.5 4.35 -20.85 M8.25 7.05 L8.0 6.85 8.0 7.2 Q8.25 7.5 8.25 7.05" fill="#dac78e" fill-rule="evenodd" stroke="none"/>
    <path d="M18.85 -4.9 Q22.75 8.05 20.05 16.5 20.95 11.4 20.6 5.8 20.25 0.65 18.85 -4.9 M4.35 -20.85 Q2.8 -26.5 4.95 -23.15 11.15 -15.65 15.2 -2.55 15.55 7.2 14.85 12.8 13.05 21.6 11.2 19.2 12.45 6.4 11.2 -0.25 8.8 -11.15 4.35 -20.85" fill="#f6e19b" fill-rule="evenodd" stroke="none"/>
    <path d="M0.05 -18.4 Q0.15 -14.35 1.3 -10.6 L2.5 -8.3 Q-0.1 -11.4 -3.7 -7.65 L-2.1 -10.25 Q-0.3 -13.15 0.05 -18.4" fill="#d28666" fill-rule="evenodd" stroke="none"/>
    <path d="M2.85 27.2 Q0.5 29.75 -5.0 29.65 -5.4 30.15 -6.2 29.9 -20.2 18.85 -14.75 -2.85 -12.1 -13.05 -7.3 -19.2 -2.55 -25.35 0.65 -25.35 L0.45 -24.15 Q0.0 -21.25 0.05 -18.4 -0.3 -13.15 -2.1 -10.25 L-3.7 -7.65 Q-9.5 1.75 -9.65 6.0 -9.8 13.2 -7.4 19.4 -0.15 26.2 5.8 19.6 5.7 22.5 4.2 24.75 L2.85 27.2" fill="#c9b783" fill-rule="evenodd" stroke="none"/>
    <path d="M7.7 6.85 Q4.8 7.8 2.1 9.55 L-0.6 11.7 -3.25 9.0 Q-5.65 6.9 -8.35 6.9 -9.65 7.0 -9.65 6.0 -4.65 7.05 -3.4 8.15 -2.15 9.2 -0.6 11.1 1.45 9.0 3.1 8.15 4.7 7.25 7.7 6.85 M8.25 7.05 Q8.25 7.5 8.0 7.2 L8.0 6.85 8.25 7.05" fill="#7b452d" fill-rule="evenodd" stroke="none"/>
    <path d="M2.5 -8.3 Q5.4 -2.1 7.7 6.85 4.7 7.25 3.1 8.15 1.45 9.0 -0.6 11.1 -2.15 9.2 -3.4 8.15 -4.65 7.05 -9.65 6.0 -9.5 1.75 -3.7 -7.65 -0.1 -11.4 2.5 -8.3" fill="url(#gradient0)" fill-rule="evenodd" stroke="none"/>
    <path d="M7.7 6.85 Q7.85 13.75 5.8 19.6 -0.15 26.2 -7.4 19.4 -9.8 13.2 -9.65 6.0 -9.65 7.0 -8.35 6.9 -5.65 6.9 -3.25 9.0 L-0.6 11.7 2.1 9.55 Q4.8 7.8 7.7 6.85 M-7.4 9.0 Q-1.6 11.95 -2.15 17.25 -0.8 15.3 -1.95 13.0 -4.5 8.95 -7.4 9.0" fill="url(#gradient1)" fill-rule="evenodd" stroke="none"/>
    <path d="M-7.4 9.0 Q-4.5 8.95 -1.95 13.0 -0.8 15.3 -2.15 17.25 -1.6 11.95 -7.4 9.0" fill="#e99571" fill-rule="evenodd" stroke="none"/>
    <path d="M0.05 -18.4 Q0.15 -14.35 1.3 -10.6 L2.5 -8.3 Q5.4 -2.1 7.7 6.85 7.85 13.75 5.8 19.6 -0.15 26.2 -7.4 19.4 -9.8 13.2 -9.65 6.0 -9.5 1.75 -3.7 -7.65 L-2.1 -10.25 Q-0.3 -13.15 0.05 -18.4 Z" fill="none" stroke="#403a2d" stroke-linecap="round" stroke-linejoin="round" stroke-width="1.0"/>
    <path d="M-7.85 19.5 L-7.9 19.45 Q-8.0 18.95 -7.5 18.85 -7.0 18.75 -6.9 19.25 L-6.8 19.8 -6.4 21.55 -6.3 21.8 -6.25 22.05 -6.05 22.6 -6.0 22.85 -5.6 23.75 -5.55 23.95 -5.35 24.25 -5.25 24.5 -5.1 24.7 -5.1 24.85 -5.25 24.85 -5.95 23.9 -6.05 23.7 -6.2 23.5 -6.3 23.25 -6.45 23.05 -6.55 22.8 -6.7 22.55 -7.8 19.75 -7.85 19.5 M-19.1 -8.6 L-19.0 -8.65 -18.95 -8.55 -20.25 -0.85 -20.45 5.65 -19.55 12.8 -18.4 17.3 -18.1 18.15 -18.05 18.45 -18.1 18.55 -18.2 18.5 -18.35 18.25 -19.8 14.95 -20.85 11.35 -21.45 7.95 -21.45 7.8 -21.5 7.65 -21.65 5.05 -21.6 2.4 -21.55 1.1 -21.45 0.5 -21.45 0.2 -20.6 -4.25 -20.5 -4.5 -20.1 -6.0 -20.0 -6.2 -19.8 -6.9 -19.45 -7.75 -19.4 -7.95 -19.1 -8.6 M5.3 19.5 Q5.3 18.95 5.85 19.05 L6.15 19.25 6.25 19.6 6.25 19.95 6.2 20.1 5.9 21.6 5.7 22.1 5.65 22.35 5.5 22.7 5.4 22.85 5.0 23.7 4.75 24.05 4.65 24.25 4.55 24.35 4.25 24.8 4.15 24.8 Q3.95 24.8 4.1 24.65 L4.3 24.25 4.4 24.1 4.45 23.9 4.65 23.55 4.7 23.35 4.8 23.1 4.85 22.9 4.95 22.65 4.95 22.55 5.15 21.7 5.15 21.55 5.2 21.45 5.2 21.2 5.25 20.8 5.25 20.55 5.3 20.4 5.3 19.5 M-3.3 -7.25 L-3.4 -7.15 -4.15 -7.25 Q-4.4 -7.65 -4.05 -8.0 L-3.95 -8.05 -3.8 -8.15 -3.3 -8.55 -3.2 -8.6 -3.1 -8.7 -2.6 -9.0 -2.35 -9.2 -1.4 -9.65 -1.05 -9.75 -1.0 -9.8 -0.9 -9.8 -0.7 -9.85 0.0 -9.95 0.7 -9.85 1.15 -9.7 1.25 -9.65 1.35 -9.65 2.45 -8.95 2.7 -8.7 2.8 -8.65 3.0 -8.45 Q3.2 -8.0 2.8 -7.75 2.4 -7.5 2.1 -7.95 L2.05 -8.0 1.95 -8.2 1.85 -8.35 1.75 -8.45 1.7 -8.55 1.45 -8.8 1.05 -9.1 0.8 -9.2 0.7 -9.3 0.55 -9.3 0.0 -9.4 -0.45 -9.4 -0.75 -9.3 -0.85 -9.3 -0.9 -9.25 -1.2 -9.15 -1.75 -8.85 -2.6 -8.15 -3.15 -7.55 -3.3 -7.25 M13.85 -17.3 L13.9 -17.4 14.0 -17.35 17.55 -10.05 19.15 -5.75 19.3 -5.2 19.35 -5.1 19.35 -5.05 19.4 -5.05 19.4 -5.0 21.0 3.85 21.1 9.75 20.9 11.95 20.9 12.25 20.1 16.5 20.0 16.55 19.95 16.45 20.2 11.9 20.25 11.6 20.05 5.65 20.0 5.5 19.85 3.95 18.25 -4.7 18.25 -4.85 18.15 -5.05 18.05 -5.45 16.0 -11.6 13.95 -16.9 13.85 -17.3 M0.5 -18.4 L0.55 -18.3 Q0.45 -17.85 0.0 -17.85 -0.15 -17.85 -0.3 -18.0 L-0.4 -18.35 -0.4 -19.0 0.05 -23.15 0.55 -25.35 0.65 -25.4 0.7 -25.3 0.5 -19.0 0.5 -18.4" fill="#403a2d" fill-rule="evenodd" stroke="none"/>
  </g>
  <defs>
    <radialGradient cx="0" cy="0" gradientTransform="matrix(0.0127, 0.0, 0.0, 0.0175, -0.25, 5.75)" gradientUnits="userSpaceOnUse" id="gradient0" r="819.2" spreadMethod="pad">
      <stop offset="0.1568627450980392" stop-color="#854b30"/>
      <stop offset="0.3568627450980392" stop-color="#935336"/>
      <stop offset="0.7686274509803922" stop-color="#b67051"/>
    </radialGradient>
    <radialGradient cx="0" cy="0" gradientTransform="matrix(0.0158, 0.0, 0.0, 0.0186, -1.05, 18.15)" gradientUnits="userSpaceOnUse" id="gradient1" r="819.2" spreadMethod="pad">
      <stop offset="0.42745098039215684" stop-color="#d28666"/>
      <stop offset="0.611764705882353" stop-color="#d2805c"/>
    </radialGradient>
  </defs>
</svg>
