<?xml version="1.0" encoding="UTF-8" standalone="no"?>
<svg xmlns:xlink="http://www.w3.org/1999/xlink" height="140.9px" width="137.8px" xmlns="http://www.w3.org/2000/svg">
  <g transform="matrix(1.0, 0.0, 0.0, 1.0, 167.15, -59.35)">
    <path d="M-43.6 74.85 Q-39.1 81.1 -35.95 90.05 -18.65 139.25 -51.35 181.35 -62.7 196.05 -77.4 198.95 -22.3 169.75 -43.6 74.85 M-67.2 129.05 Q-65.15 138.35 -66.6 142.3 L-69.75 149.05 -73.1 153.15 -73.05 153.25 Q-80.05 157.7 -84.55 162.85 -93.2 154.55 -95.55 146.65 -97.8 139.25 -94.45 132.25 -96.1 144.15 -85.3 159.1 -77.7 153.4 -73.25 146.2 -67.25 137.6 -67.2 129.05" fill="#c8b585" fill-rule="evenodd" stroke="none"/>
    <path d="M-43.6 74.85 Q-22.3 169.75 -77.4 198.95 -88.45 201.1 -101.35 196.7 -104.35 195.7 -103.75 192.95 -98.8 194.9 -94.45 192.95 L-94.5 193.0 -92.35 191.9 Q-90.25 190.45 -91.25 188.75 -84.45 177.2 -84.55 162.85 -80.05 157.7 -73.05 153.25 L-73.05 153.3 Q-66.2 148.1 -66.4 142.3 L-66.6 142.3 Q-65.15 138.35 -67.2 129.05 -68.5 123.15 -73.25 116.1 -79.4 113.1 -85.5 116.1 -73.95 104.85 -78.5 96.5 -86.4 83.0 -86.85 71.7 -87.7 66.35 -105.9 68.7 -62.55 48.55 -43.6 74.85" fill="#dac78e" fill-rule="evenodd" stroke="none"/>
    <path d="M-103.75 192.95 Q-102.1 187.1 -104.65 183.9 -112.65 170.6 -105.8 154.85 -106.2 152.55 -107.8 150.5 L-115.6 155.6 Q-119.05 157.8 -123.9 156.35 L-125.95 155.4 Q-128.85 153.5 -129.1 149.05 -133.55 155.65 -141.5 159.05 L-167.05 140.25 -167.1 140.25 -166.4 138.55 -163.3 131.2 -163.3 131.15 -158.5 121.55 Q-162.0 130.8 -159.4 134.2 -146.45 121.55 -135.95 97.65 -125.75 80.25 -105.95 68.7 L-105.9 68.7 Q-87.7 66.35 -86.85 71.7 -86.4 83.0 -78.5 96.5 -73.95 104.85 -85.5 116.1 -93.25 123.55 -94.45 132.25 -97.8 139.25 -95.55 146.65 -93.2 154.55 -84.55 162.85 -84.45 177.2 -91.25 188.75 L-91.3 188.7 Q-91.95 190.75 -94.45 192.95 -98.8 194.9 -103.75 192.95 M-98.5 85.45 Q-92.75 95.8 -94.45 102.4 -89.65 107.05 -88.05 96.0 -96.75 80.1 -98.5 85.45" fill="#f6e19b" fill-rule="evenodd" stroke="none"/>
    <path d="M-158.5 121.55 Q-144.95 96.85 -121.9 77.2 -113.55 72.25 -105.95 68.7 -125.75 80.25 -135.95 97.65 -146.45 121.55 -159.4 134.2 -162.0 130.8 -158.5 121.55 M-98.5 85.45 Q-96.75 80.1 -88.05 96.0 -89.65 107.05 -94.45 102.4 -92.75 95.8 -98.5 85.45" fill="#f9e8b7" fill-rule="evenodd" stroke="none"/>
    <path d="M-66.6 142.3 L-66.4 142.3 Q-66.2 148.1 -73.05 153.3 L-73.05 153.25 -73.1 153.15 -69.75 149.05 -66.6 142.3 M-91.25 188.75 Q-90.25 190.45 -92.35 191.9 L-94.5 193.0 -94.45 192.95 Q-91.95 190.75 -91.3 188.7 L-91.25 188.75" fill="#403a2d" fill-rule="evenodd" stroke="none"/>
    <path d="M-77.4 198.95 Q-62.7 196.05 -51.35 181.35 -18.65 139.25 -35.95 90.05 -39.1 81.1 -43.6 74.85 -62.55 48.55 -105.9 68.7 L-105.95 68.7 Q-113.55 72.25 -121.9 77.2 -144.95 96.85 -158.5 121.55 L-163.3 131.15 M-77.4 198.95 Q-88.45 201.1 -101.35 196.7 -104.35 195.7 -103.75 192.95 -102.1 187.1 -104.65 183.9 -112.65 170.6 -105.8 154.85 M-85.5 116.1 Q-79.4 113.1 -73.25 116.1 -68.5 123.15 -67.2 129.05 -67.25 137.6 -73.25 146.2 -77.7 153.4 -85.3 159.1 M-94.45 132.25 Q-93.25 123.55 -85.5 116.1" fill="none" stroke="#403a2d" stroke-linecap="round" stroke-linejoin="round" stroke-width="1.2000000000000002"/>
    <path d="M-163.85 130.95 L-163.8 130.9 Q-163.5 130.35 -163.0 130.6 -162.5 130.85 -162.7 131.4 L-166.15 138.55 -166.25 138.7 -166.3 138.85 -166.95 140.25 Q-166.95 140.4 -167.05 140.3 L-167.1 140.2 -167.0 139.8 -163.85 130.95 M-107.85 150.55 L-107.85 150.4 -107.7 150.4 -107.55 150.55 -107.5 150.65 -107.4 150.75 -107.2 151.0 -107.05 151.1 -106.95 151.3 -106.55 151.8 -106.45 152.0 -106.3 152.2 -106.2 152.4 -106.05 152.6 -105.55 153.6 -105.45 153.95 -105.35 154.1 -105.3 154.25 -105.2 154.7 -105.15 154.85 Q-105.15 155.4 -105.7 155.5 -106.35 155.5 -106.35 154.95 L-106.4 154.75 -106.4 154.35 -106.45 154.2 -106.5 153.9 -106.8 152.7 -106.9 152.45 -106.95 152.25 -107.3 151.5 -107.5 151.2 -107.75 150.7 -107.85 150.55 M-84.85 159.0 Q-85.1 159.6 -85.7 159.4 L-85.8 159.35 -85.95 159.3 -86.15 159.2 -86.2 159.1 -86.35 158.95 -87.05 157.95 -91.45 150.5 -92.0 149.25 -93.1 146.7 -94.35 142.8 -94.9 140.25 -95.15 137.9 -95.2 137.6 -95.2 137.3 -95.25 136.8 -95.2 134.45 -95.2 134.1 -95.15 133.75 -95.15 133.4 -94.95 132.15 Q-94.95 131.6 -94.35 131.7 -93.8 131.7 -93.9 132.3 L-93.9 132.6 -94.0 133.5 -94.0 134.15 -94.05 134.5 -94.05 135.35 -94.0 135.75 -93.95 137.25 -93.9 137.5 -93.9 137.75 -93.75 138.85 -93.15 141.8 -91.7 146.2 -91.3 147.1 -91.2 147.4 -88.75 152.3 -86.15 156.45 -85.9 156.75 -84.95 158.2 -84.85 158.4 -84.85 159.0" fill="#403a2d" fill-rule="evenodd" stroke="none"/>
  </g>
</svg>
