<?xml version="1.0" encoding="UTF-8" standalone="no"?>
<svg xmlns:xlink="http://www.w3.org/1999/xlink" height="59.7px" width="90.6px" xmlns="http://www.w3.org/2000/svg">
  <g transform="matrix(1.0, 0.0, 0.0, 1.0, -252.3, -78.25)">
    <path d="M253.55 98.4 Q251.0 82.95 258.4 78.85 276.95 84.7 297.1 86.45 L298.45 86.55 304.6 86.9 Q327.15 89.75 325.1 93.35 302.85 93.2 286.45 100.2 279.75 98.7 276.0 92.75 276.65 125.5 269.35 124.75 261.3 119.1 253.55 98.4 M256.75 86.9 Q262.1 96.9 261.85 104.65 267.6 103.2 266.15 95.95 260.6 84.0 256.75 86.9" fill="#97b771" fill-rule="evenodd" stroke="none"/>
    <path d="M325.95 86.7 Q333.3 86.85 338.8 88.6 345.1 97.75 341.75 106.3 340.1 107.45 336.85 106.95 L335.8 106.7 304.65 102.95 303.8 102.9 302.4 102.75 Q288.1 101.6 281.8 110.85 282.65 127.2 270.55 136.75 263.8 141.45 256.35 109.9 254.4 103.5 253.55 98.4 261.3 119.1 269.35 124.75 276.65 125.5 276.0 92.75 279.75 98.7 286.45 100.2 302.85 93.2 325.1 93.35 327.15 89.75 304.6 86.9 311.4 87.15 318.55 86.95 L325.9 86.65 325.95 86.7 M281.8 110.85 Q281.6 106.3 280.5 101.25 281.6 106.3 281.8 110.85" fill="#899f6c" fill-rule="evenodd" stroke="none"/>
    <path d="M256.75 86.9 Q260.6 84.0 266.15 95.95 267.6 103.2 261.85 104.65 262.1 96.9 256.75 86.9" fill="#bdcc98" fill-rule="evenodd" stroke="none"/>
    <path d="M325.95 86.7 Q333.3 86.85 338.8 88.6 M341.75 106.3 Q340.1 107.45 336.85 106.95 L335.8 106.7 304.65 102.95 303.8 102.9 302.4 102.75 Q288.1 101.6 281.8 110.85 282.65 127.2 270.55 136.75 263.8 141.45 256.35 109.9 254.4 103.5 253.55 98.4 251.0 82.95 258.4 78.85 276.95 84.7 297.1 86.45 L298.45 86.55 304.6 86.9 Q311.4 87.15 318.55 86.95 L325.9 86.65 M280.5 101.25 Q281.6 106.3 281.8 110.85" fill="none" stroke="#403a2d" stroke-linecap="round" stroke-linejoin="round" stroke-width="1.2000000000000002"/>
  </g>
</svg>
