<?xml version="1.0" encoding="UTF-8" standalone="no"?>
<svg xmlns:xlink="http://www.w3.org/1999/xlink" height="138.05px" width="344.9px" xmlns="http://www.w3.org/2000/svg">
  <g transform="matrix(1.0, 0.0, 0.0, 1.0, 0.6, 0.6)">
    <path d="M335.15 96.05 Q335.8 96.15 336.15 95.65 343.7 89.15 315.05 62.1 L320.6 65.05 Q331.3 69.55 338.25 77.0 343.45 87.45 343.7 98.7 343.7 103.0 343.05 104.6 342.6 105.7 341.75 106.3 L335.15 96.05 M1.3 136.85 Q24.25 100.65 53.25 68.55 77.2 43.35 113.9 35.1 193.6 7.6 235.5 32.35 215.75 25.35 199.8 26.5 173.8 30.65 158.35 40.2 122.0 64.85 104.8 76.0 120.65 56.75 109.35 52.1 80.7 61.6 76.45 83.75 76.15 89.65 80.85 90.8 89.65 91.55 100.45 84.95 83.55 103.3 69.9 107.8 24.1 118.45 1.3 136.85" fill="#899f6c" fill-rule="evenodd" stroke="none"/>
    <path d="M335.15 96.05 Q333.65 95.8 330.6 92.35 329.25 88.75 325.9 86.65 305.75 71.05 290.15 61.05 L288.5 60.05 Q282.6 56.25 277.3 53.15 L274.4 51.55 273.3 50.95 Q252.9 38.45 235.5 32.35 193.6 7.6 113.9 35.1 77.2 43.35 53.25 68.55 24.25 100.65 1.3 136.85 -1.35 126.8 1.35 120.6 4.2 113.8 5.25 108.75 21.6 64.3 51.35 38.75 71.75 14.2 174.75 1.9 227.1 8.7 276.95 39.9 L293.3 50.1 315.05 62.1 Q343.7 89.15 336.15 95.65 335.8 96.15 335.15 96.05 M279.3 50.25 L305.0 67.3 Q312.15 71.1 311.7 68.3 L279.3 50.25" fill="#97b771" fill-rule="evenodd" stroke="none"/>
    <path d="M174.75 1.9 Q71.75 14.2 51.35 38.75 21.6 64.3 5.25 108.75 L5.8 105.2 16.65 69.4 Q43.85 25.45 98.5 4.6 137.25 -3.0 174.75 1.9 M279.3 50.25 L311.7 68.3 Q312.15 71.1 305.0 67.3 L279.3 50.25" fill="#bdcc98" fill-rule="evenodd" stroke="none"/>
    <path d="M315.05 62.1 L293.3 50.1 276.95 39.9 Q227.1 8.7 174.75 1.9 137.25 -3.0 98.5 4.6 43.85 25.45 16.65 69.4 L5.8 105.2 5.25 108.75 Q4.2 113.8 1.35 120.6 -1.35 126.8 1.3 136.85 24.1 118.45 69.9 107.8 83.55 103.3 100.45 84.95 89.65 91.55 80.85 90.8 76.15 89.65 76.45 83.75 80.7 61.6 109.35 52.1 120.65 56.75 104.8 76.0 122.0 64.85 158.35 40.2 173.8 30.65 199.8 26.5 215.75 25.35 235.5 32.35 252.9 38.45 273.3 50.95 L274.4 51.55 277.3 53.15 Q282.6 56.25 288.5 60.05 L290.15 61.05 Q305.75 71.05 325.9 86.65 M341.75 106.3 Q342.6 105.7 343.05 104.6 343.7 103.0 343.7 98.7 343.45 87.45 338.25 77.0 331.3 69.55 320.6 65.05 L315.05 62.1 Z" fill="none" stroke="#403a2d" stroke-linecap="round" stroke-linejoin="round" stroke-width="1.2000000000000002"/>
    <path d="M325.55 87.15 L325.5 87.1 Q324.95 86.75 325.35 86.25 325.75 85.75 326.2 86.1 L326.6 86.4 326.75 86.55 326.95 86.7 327.15 86.9 327.35 87.05 328.3 88.0 328.4 88.15 328.65 88.4 328.75 88.55 329.0 88.85 329.75 90.05 329.9 90.35 329.95 90.5 330.05 90.65 330.35 91.4 330.45 91.6 330.65 92.3 330.6 92.4 330.5 92.35 330.35 92.05 330.25 91.9 330.2 91.75 330.05 91.55 329.95 91.35 329.55 90.7 329.5 90.6 328.1 88.95 327.95 88.85 327.85 88.7 326.5 87.7 326.3 87.6 326.15 87.45 326.0 87.35 325.85 87.3 325.55 87.15" fill="#403a2d" fill-rule="evenodd" stroke="none"/>
  </g>
</svg>
