<?xml version="1.0" encoding="UTF-8" standalone="no"?>
<svg xmlns:xlink="http://www.w3.org/1999/xlink" height="46.35px" width="109.6px" xmlns="http://www.w3.org/2000/svg">
  <g transform="matrix(1.0, 0.0, 0.0, 1.0, 0.6, 0.6)">
    <path d="M88.3 3.3 L90.85 4.1 95.35 5.8 Q97.1 6.45 101.45 8.95 105.8 11.5 107.65 14.45 108.6 15.95 108.4 16.85 102.15 14.25 94.8 13.15 86.6 12.2 77.85 14.05 75.85 12.5 83.95 3.9 L85.4 3.7 88.3 3.3" fill="#e0dddc" fill-rule="evenodd" stroke="none"/>
    <path d="M108.4 16.85 Q108.2 17.7 107.0 18.05 98.05 16.95 87.65 18.95 81.1 15.8 75.65 16.9 72.7 15.5 73.8 13.4 L75.85 9.05 Q76.95 6.85 78.25 5.2 L83.95 3.9 Q75.85 12.5 77.85 14.05 86.6 12.2 94.8 13.15 102.15 14.25 108.4 16.85" fill="#cdc8c5" fill-rule="evenodd" stroke="none"/>
    <path d="M87.65 18.95 Q96.25 22.95 97.55 25.35 97.8 25.9 97.3 26.35 84.8 22.1 73.05 22.35 L54.75 21.2 Q35.05 30.05 4.65 38.15 L27.0 4.55 Q37.25 0.7 50.2 1.3 69.8 -1.9 86.1 2.65 L87.7 3.15 88.3 3.3 85.4 3.7 Q78.75 2.7 74.25 6.55 69.7 10.45 67.3 17.7 L68.65 17.7 75.65 16.9 Q81.1 15.8 87.65 18.95" fill="#dac78e" fill-rule="evenodd" stroke="none"/>
    <path d="M97.3 26.35 Q95.3 27.95 82.85 28.6 71.85 31.65 58.95 29.95 26.55 44.15 0.0 45.15 L4.65 38.15 Q35.05 30.05 54.75 21.2 L73.05 22.35 Q84.8 22.1 97.3 26.35 M85.4 3.7 L83.95 3.9 78.25 5.2 Q76.95 6.85 75.85 9.05 L73.8 13.4 Q72.7 15.5 75.65 16.9 L68.65 17.7 67.3 17.7 Q69.7 10.45 74.25 6.55 78.75 2.7 85.4 3.7" fill="#c9b783" fill-rule="evenodd" stroke="none"/>
    <path d="M88.3 3.3 L90.85 4.1 95.35 5.8 Q97.1 6.45 101.45 8.95 105.8 11.5 107.65 14.45 108.6 15.95 108.4 16.85 108.2 17.7 107.0 18.05 98.05 16.95 87.65 18.95 96.25 22.95 97.55 25.35 97.8 25.9 97.3 26.35 95.3 27.95 82.85 28.6 71.85 31.65 58.95 29.95 26.55 44.15 0.0 45.15 M27.0 4.55 Q37.25 0.7 50.2 1.3 69.8 -1.9 86.1 2.65 L87.7 3.15 88.3 3.3 85.4 3.7 83.95 3.9 78.25 5.2 Q76.95 6.85 75.85 9.05 L73.8 13.4 Q72.7 15.5 75.65 16.9 81.1 15.8 87.65 18.95" fill="none" stroke="#403a2d" stroke-linecap="round" stroke-linejoin="round" stroke-width="1.2000000000000002"/>
    <path d="M75.5 16.3 L75.6 16.25 Q76.25 16.25 76.25 16.8 L76.15 17.25 Q76.0 17.45 75.75 17.45 L74.1 17.65 68.65 17.8 68.55 17.7 68.6 17.6 68.65 17.6 71.45 17.2 75.5 16.3" fill="#403a2d" fill-rule="evenodd" stroke="none"/>
  </g>
</svg>
