<?xml version="1.0" encoding="UTF-8" standalone="no"?>
<svg xmlns:xlink="http://www.w3.org/1999/xlink" height="128.25px" width="87.75px" xmlns="http://www.w3.org/2000/svg">
  <g transform="matrix(1.0, 0.0, 0.0, 1.0, 17.8, 0.9)">
    <path d="M58.25 26.75 Q49.55 25.85 42.2 22.5 5.25 10.15 -12.2 8.4 L-12.2 5.5 Q45.1 16.5 58.25 26.75 M47.1 45.35 Q33.1 38.75 21.3 36.65 3.3 32.3 -16.25 30.4 L-15.3 26.7 Q4.75 29.35 24.0 35.35 35.7 39.05 47.1 45.35" fill="#97b771" fill-rule="evenodd" stroke="none"/>
    <path d="M-12.2 8.4 Q5.25 10.15 42.2 22.5 49.55 25.85 58.25 26.75 L65.05 32.05 Q62.7 31.7 62.65 34.9 34.25 21.0 -12.2 11.35 L-12.2 8.4 M47.1 45.35 Q51.85 47.95 56.5 51.0 54.8 51.65 55.55 55.4 L20.85 40.75 Q2.75 35.75 -17.2 34.1 L-16.25 30.4 Q3.3 32.3 21.3 36.65 33.1 38.75 47.1 45.35" fill="#899f6c" fill-rule="evenodd" stroke="none"/>
    <path d="M-12.2 11.35 Q34.25 21.0 62.65 34.9 62.7 31.7 65.05 32.05 L58.25 26.75 Q45.1 16.5 -12.2 5.5 M-17.2 34.1 Q2.75 35.75 20.85 40.75 L55.55 55.4 Q54.8 51.65 56.5 51.0 51.85 47.95 47.1 45.35 35.7 39.05 24.0 35.35 4.75 29.35 -15.3 26.7" fill="none" stroke="#403a2d" stroke-linecap="round" stroke-linejoin="round" stroke-width="1.2000000000000002"/>
    <path d="M18.45 43.85 Q17.35 46.0 17.0 49.4 17.35 46.0 18.45 43.85 21.55 40.8 30.1 42.9 38.6 44.95 45.35 49.6 44.2 51.2 43.6 53.35 44.2 51.2 45.35 49.6 50.0 48.2 59.85 63.65 48.65 61.8 42.95 56.9 43.1 54.95 43.6 53.35 40.0 59.25 35.15 60.1 28.15 61.1 16.95 55.9 16.7 52.2 17.0 49.4 15.25 52.75 12.15 53.3 L0.05 52.9 Q0.2 51.15 2.35 49.6 9.95 45.5 18.45 43.85 M20.8 44.8 Q21.1 47.05 19.6 48.75 27.85 46.05 42.45 51.35 L42.45 49.65 Q26.4 41.95 20.8 44.8 M14.65 46.4 Q9.85 47.1 5.4 49.9 2.6 52.3 6.05 52.05 9.85 48.55 14.65 46.4 M46.6 51.15 L45.75 52.7 Q48.2 52.95 50.15 54.35 49.3 52.2 46.6 51.15" fill="#97b771" fill-rule="evenodd" stroke="none"/>
    <path d="M20.8 44.8 Q26.4 41.95 42.45 49.65 L42.45 51.35 Q27.85 46.05 19.6 48.75 21.1 47.05 20.8 44.8 M14.65 46.4 Q9.85 48.55 6.05 52.05 2.6 52.3 5.4 49.9 9.85 47.1 14.65 46.4 M46.6 51.15 Q49.3 52.2 50.15 54.35 48.2 52.95 45.75 52.7 L46.6 51.15" fill="#bdcc98" fill-rule="evenodd" stroke="none"/>
    <path d="M0.05 52.9 L12.15 53.3 Q15.25 52.75 17.0 49.4 16.7 52.2 16.95 55.9 28.15 61.1 35.15 60.1 40.0 59.25 43.6 53.35 43.1 54.95 42.95 56.9 42.65 59.55 42.95 62.8 43.35 67.45 44.85 73.3 43.35 67.45 42.95 62.8 42.65 59.55 42.95 56.9 48.65 61.8 59.85 63.65 L59.85 64.35 60.15 70.0 Q48.8 76.15 44.85 73.3 39.6 73.4 34.15 72.2 18.6 70.5 18.25 65.85 10.25 62.15 2.35 57.35 -0.15 54.95 0.05 52.9 M16.95 55.9 Q17.25 60.25 18.25 65.85 17.25 60.25 16.95 55.9" fill="#899f6c" fill-rule="evenodd" stroke="none"/>
    <path d="M17.0 49.4 Q17.35 46.0 18.45 43.85 9.95 45.5 2.35 49.6 0.2 51.15 0.05 52.9 -0.15 54.95 2.35 57.35 10.25 62.15 18.25 65.85 18.6 70.5 34.15 72.2 39.6 73.4 44.85 73.3 43.35 67.45 42.95 62.8 42.65 59.55 42.95 56.9 43.1 54.95 43.6 53.35 44.2 51.2 45.35 49.6 38.6 44.95 30.1 42.9 21.55 40.8 18.45 43.85 M17.0 49.4 Q16.7 52.2 16.95 55.9 17.25 60.25 18.25 65.85 M44.85 73.3 Q48.8 76.15 60.15 70.0 L59.85 64.35 59.85 63.65 Q50.0 48.2 45.35 49.6" fill="none" stroke="#403a2d" stroke-linecap="round" stroke-linejoin="round" stroke-width="1.2000000000000002"/>
    <path d="M52.8 20.05 Q46.5 20.75 42.2 22.5 38.85 23.0 35.95 21.4 30.95 15.25 23.75 10.9 25.7 6.45 28.45 3.65 37.5 4.6 47.9 10.0 52.4 14.7 54.85 19.7 L52.8 20.05 M45.9 26.1 Q48.55 21.9 51.65 20.45 55.3 21.7 58.15 24.95 59.75 29.95 60.8 39.5 53.25 30.25 45.9 26.1 M29.7 2.4 Q23.65 4.9 20.85 8.65 L16.0 8.85 Q11.8 5.45 7.05 4.45 6.95 3.6 7.2 2.95 18.45 0.8 29.7 2.4" fill="#97b771" fill-rule="evenodd" stroke="none"/>
    <path d="M23.75 10.9 Q30.95 15.25 35.95 21.4 38.85 23.0 42.2 22.5 46.5 20.75 52.8 20.05 L51.65 20.45 Q48.55 21.9 45.9 26.1 43.15 30.4 40.9 37.6 43.15 30.4 45.9 26.1 53.25 30.25 60.8 39.5 58.85 40.7 58.4 42.4 57.9 44.1 57.2 44.75 42.45 41.8 40.9 37.6 37.45 35.55 33.85 33.0 20.05 26.3 20.6 21.95 21.75 15.55 23.75 10.9 21.75 15.55 20.6 21.95 16.15 16.25 10.8 10.45 7.4 6.85 7.05 4.45 11.8 5.45 16.0 8.85 L20.85 8.65 Q23.65 4.9 29.7 2.4 L29.75 2.4 28.45 3.65 Q25.7 6.45 23.75 10.9" fill="#899f6c" fill-rule="evenodd" stroke="none"/>
    <path d="M52.8 20.05 L54.85 19.7 Q56.7 20.5 58.15 24.95 55.3 21.7 51.65 20.45 L52.8 20.05 M47.9 10.0 Q37.5 4.6 28.45 3.65 L29.75 2.4 29.7 2.4 Q18.45 0.8 7.2 2.95 8.1 0.45 14.15 0.0 L32.35 0.6 Q37.05 0.25 44.3 6.55 L47.9 10.0 M29.75 2.4 Q30.95 1.35 32.35 0.6 30.95 1.35 29.75 2.4" fill="#bdcc98" fill-rule="evenodd" stroke="none"/>
    <path d="M52.8 20.05 L54.85 19.7 Q52.4 14.7 47.9 10.0 L44.3 6.55 Q37.05 0.25 32.35 0.6 30.95 1.35 29.75 2.4 L28.45 3.65 Q25.7 6.45 23.75 10.9 21.75 15.55 20.6 21.95 20.05 26.3 33.85 33.0 37.45 35.55 40.9 37.6 43.15 30.4 45.9 26.1 48.55 21.9 51.65 20.45 L52.8 20.05 M40.9 37.6 Q42.45 41.8 57.2 44.75 57.9 44.1 58.4 42.4 58.85 40.7 60.8 39.5 59.75 29.95 58.15 24.95 56.7 20.5 54.85 19.7 M7.2 2.95 Q6.95 3.6 7.05 4.45 7.4 6.85 10.8 10.45 16.15 16.25 20.6 21.95 M32.35 0.6 L14.15 0.0 Q8.1 0.45 7.2 2.95" fill="none" stroke="#403a2d" stroke-linecap="round" stroke-linejoin="round" stroke-width="1.2000000000000002"/>
    <path d="M60.4 87.5 Q49.0 86.3 49.45 89.05 L47.9 86.5 Q51.15 83.9 60.4 87.5 M25.4 101.35 Q24.4 94.35 33.75 90.25 42.05 86.55 46.75 86.5 29.8 92.05 25.4 101.35 M24.5 106.9 Q25.7 108.0 24.8 113.05 23.6 116.25 22.75 114.9 L24.5 106.9" fill="#bdcc98" fill-rule="evenodd" stroke="none"/>
    <path d="M49.45 89.05 Q49.0 86.3 60.4 87.5 62.9 88.45 65.8 89.85 64.75 96.1 56.4 97.2 52.05 92.95 49.45 89.05 M46.75 86.5 Q49.6 90.8 50.5 95.15 51.05 97.85 51.65 98.25 46.6 105.9 29.95 106.95 27.4 104.35 25.4 101.35 29.8 92.05 46.75 86.5 M24.95 102.4 Q27.8 107.9 31.65 112.2 32.95 115.15 31.85 118.1 28.75 120.95 21.15 124.45 20.15 122.15 20.75 117.6 21.75 109.5 24.95 102.4 M24.5 106.9 L22.75 114.9 Q23.6 116.25 24.8 113.05 25.7 108.0 24.5 106.9" fill="#97b771" fill-rule="evenodd" stroke="none"/>
    <path d="M47.9 86.5 L49.45 89.05 Q52.05 92.95 56.4 97.2 64.75 96.1 65.8 89.85 66.15 89.8 67.1 92.9 67.95 96.0 69.35 96.95 65.55 102.9 62.5 102.6 L56.9 108.75 Q51.95 117.25 45.7 117.55 36.25 113.45 29.95 106.95 36.25 113.45 45.7 117.55 37.8 122.3 28.05 126.05 22.7 128.0 21.15 124.45 28.75 120.95 31.85 118.1 32.95 115.15 31.65 112.2 27.8 107.9 24.95 102.4 L25.4 101.35 Q27.4 104.35 29.95 106.95 46.6 105.9 51.65 98.25 51.05 97.85 50.5 95.15 49.6 90.8 46.75 86.5 L47.9 86.5 M56.4 97.2 Q59.1 99.85 62.5 102.6 59.1 99.85 56.4 97.2" fill="#899f6c" fill-rule="evenodd" stroke="none"/>
    <path d="M60.4 87.5 Q51.15 83.9 47.9 86.5 L49.45 89.05 Q52.05 92.95 56.4 97.2 59.1 99.85 62.5 102.6 65.55 102.9 69.35 96.95 67.95 96.0 67.1 92.9 66.15 89.8 65.8 89.85 62.9 88.45 60.4 87.5 M47.9 86.5 L46.75 86.5 Q42.05 86.55 33.75 90.25 24.4 94.35 25.4 101.35 L24.95 102.4 Q21.75 109.5 20.75 117.6 20.15 122.15 21.15 124.45 22.7 128.0 28.05 126.05 37.8 122.3 45.7 117.55 51.95 117.25 56.9 108.75 L62.5 102.6 M29.95 106.95 Q36.25 113.45 45.7 117.55 M29.95 106.95 Q27.4 104.35 25.4 101.35" fill="none" stroke="#403a2d" stroke-linecap="round" stroke-linejoin="round" stroke-width="1.2000000000000002"/>
  </g>
</svg>
