<?xml version="1.0" encoding="UTF-8" standalone="no"?>
<svg xmlns:xlink="http://www.w3.org/1999/xlink" height="69.85px" width="110.15px" xmlns="http://www.w3.org/2000/svg">
  <g transform="matrix(1.0, 0.0, 0.0, 1.0, 0.5, 0.5)">
    <path d="M22.15 56.7 Q27.65 63.4 40.2 61.9 57.4 59.75 69.1 53.25 74.55 50.05 76.7 48.25 78.8 46.45 85.2 45.4 81.1 44.7 82.8 41.4 L84.1 38.5 85.6 36.6 Q103.3 27.6 109.15 36.4 108.95 42.55 102.2 47.1 96.45 50.9 85.75 47.4 49.2 76.75 19.0 65.95 11.9 60.45 7.45 54.1 0.2 31.95 4.75 18.0 6.9 5.7 10.7 0.7 12.4 0.05 14.45 0.0 L25.4 0.0 17.3 8.5 Q14.4 8.6 11.5 11.9 0.65 39.6 22.15 56.7" fill="#899f6c" fill-rule="evenodd" stroke="none"/>
    <path d="M84.1 38.5 L82.8 41.4 Q81.1 44.7 85.2 45.4 78.8 46.45 76.7 48.25 74.55 50.05 69.1 53.25 57.4 59.75 40.2 61.9 27.65 63.4 22.15 56.7 49.55 69.25 84.1 38.5 M10.7 0.7 Q6.9 5.7 4.75 18.0 0.2 31.95 7.45 54.1 -0.8 42.2 0.1 27.3 L1.75 23.25 Q3.85 10.95 7.55 2.8 8.95 1.4 10.7 0.7 M109.15 36.4 Q103.3 27.6 85.6 36.6 89.25 32.4 94.45 30.9 100.65 29.85 106.9 32.2 108.3 33.8 109.15 36.4" fill="#97b771" fill-rule="evenodd" stroke="none"/>
    <path d="M94.45 30.9 Q95.45 30.55 96.55 30.35 103.45 28.25 106.9 32.2 100.65 29.85 94.45 30.9 M7.55 2.8 Q3.85 10.95 1.75 23.25 L0.1 27.3 Q0.7 17.0 5.7 5.2 L7.55 2.8" fill="#bdcc98" fill-rule="evenodd" stroke="none"/>
    <path d="M22.15 56.7 Q0.65 39.6 11.5 11.9 14.4 8.6 17.3 8.5 L25.4 0.0 14.45 0.0 Q12.4 0.05 10.7 0.7 8.95 1.4 7.55 2.8 L5.7 5.2 Q0.7 17.0 0.1 27.3 -0.8 42.2 7.45 54.1 11.9 60.45 19.0 65.95 49.2 76.75 85.75 47.4 96.45 50.9 102.2 47.1 108.95 42.55 109.15 36.4 108.3 33.8 106.9 32.2 103.45 28.25 96.55 30.35 95.45 30.55 94.45 30.9 89.25 32.4 85.6 36.6 L84.1 38.5 Q49.55 69.25 22.15 56.7 Z" fill="none" stroke="#403a2d" stroke-linecap="round" stroke-linejoin="round" stroke-width="1.0"/>
  </g>
</svg>
