<?xml version="1.0" encoding="UTF-8" standalone="no"?>
<svg xmlns:xlink="http://www.w3.org/1999/xlink" height="91.25px" width="127.45px" xmlns="http://www.w3.org/2000/svg">
  <g transform="matrix(1.0, 0.0, 0.0, 1.0, 0.5, 0.5)">
    <path d="M87.8 4.45 L90.0 2.8 Q98.15 -3.05 106.35 3.35 L107.85 4.55 Q96.7 -0.4 87.8 4.45 M12.1 51.6 Q4.15 49.9 0.0 59.35 -0.2 55.65 1.6 52.7 7.15 48.35 12.1 51.6" fill="#bdcc98" fill-rule="evenodd" stroke="none"/>
    <path d="M107.85 4.55 Q113.75 9.55 118.0 16.65 104.75 6.05 99.25 5.7 90.3 7.85 83.95 15.35 70.8 39.4 54.05 63.4 44.85 78.6 33.95 84.1 27.0 85.6 23.6 81.3 19.6 77.6 18.7 74.6 15.6 74.2 12.4 71.8 L18.45 71.95 Q20.4 71.35 21.25 68.45 30.05 104.5 76.7 17.2 80.35 10.3 87.8 4.45 96.7 -0.4 107.85 4.55 M12.95 52.2 Q1.15 53.45 2.95 68.1 L1.45 65.5 Q0.15 62.2 0.0 59.35 4.15 49.9 12.1 51.6 L12.95 52.2" fill="#97b771" fill-rule="evenodd" stroke="none"/>
    <path d="M118.0 16.65 Q123.75 26.35 126.25 40.0 127.05 52.3 124.35 62.8 120.75 51.25 118.45 48.8 118.0 37.55 115.8 32.15 107.7 11.9 98.05 10.5 88.1 13.0 76.85 35.75 28.55 119.1 14.85 74.95 6.35 72.5 2.95 68.1 1.15 53.45 12.95 52.2 14.2 53.2 15.45 54.75 21.1 60.3 21.25 68.45 20.4 71.35 18.45 71.95 L12.4 71.8 Q15.6 74.2 18.7 74.6 19.6 77.6 23.6 81.3 27.0 85.6 33.95 84.1 44.85 78.6 54.05 63.4 70.8 39.4 83.95 15.35 90.3 7.85 99.25 5.7 104.75 6.05 118.0 16.65" fill="#899f6c" fill-rule="evenodd" stroke="none"/>
    <path d="M87.8 4.45 L90.0 2.8 Q98.15 -3.05 106.35 3.35 L107.85 4.55 Q113.75 9.55 118.0 16.65 123.75 26.35 126.25 40.0 127.05 52.3 124.35 62.8 M118.45 48.8 L117.7 47.1 M21.25 68.45 Q21.1 60.3 15.45 54.75 14.2 53.2 12.95 52.2 L12.1 51.6 Q7.15 48.35 1.6 52.7 -0.2 55.65 0.0 59.35 0.15 62.2 1.45 65.5 L2.95 68.1 Q6.35 72.5 14.85 74.95 28.55 119.1 76.85 35.75 88.1 13.0 98.05 10.5 107.7 11.9 115.8 32.15 118.0 37.55 118.45 48.8 M87.8 4.45 Q80.35 10.3 76.7 17.2 30.05 104.5 21.25 68.45" fill="none" stroke="#403a2d" stroke-linecap="round" stroke-linejoin="round" stroke-width="1.0"/>
  </g>
</svg>
