<?xml version="1.0" encoding="UTF-8" standalone="no"?>
<svg xmlns:xlink="http://www.w3.org/1999/xlink" height="49.5px" width="79.95px" xmlns="http://www.w3.org/2000/svg">
  <g transform="matrix(1.0, 0.0, 0.0, 1.0, 0.55, -0.65)">
    <path d="M40.7 6.8 L67.6 13.55 Q70.05 32.0 78.8 49.55 56.65 47.4 40.75 44.6 41.6 32.9 38.9 28.9 32.5 26.55 26.85 18.9 L24.45 15.8 Q38.1 15.95 40.7 6.8" fill="#bcd2dd" fill-rule="evenodd" stroke="none"/>
    <path d="M40.7 6.8 Q38.1 15.95 24.45 15.8 L26.85 18.9 Q32.5 26.55 38.9 28.9 41.6 32.9 40.75 44.6 -1.7 37.05 0.05 24.6 6.95 14.75 9.2 10.25 11.4 5.7 15.9 1.25 L40.7 6.8" fill="#c9e3ea" fill-rule="evenodd" stroke="none"/>
    <path d="M78.8 49.55 Q70.05 32.0 67.6 13.55 M15.9 1.25 Q11.4 5.7 9.2 10.25 6.95 14.75 0.05 24.6" fill="none" stroke="#2a3c45" stroke-linecap="round" stroke-linejoin="round" stroke-width="1.2000000000000002"/>
    <path d="M38.9 28.8 L38.95 28.9 38.85 28.95 38.65 28.95 37.8 28.7 37.4 28.55 36.45 28.2 36.15 28.1 35.9 27.95 35.6 27.85 35.45 27.75 35.3 27.7 34.75 27.35 34.45 27.2 32.9 26.15 30.9 24.45 30.8 24.3 29.4 22.85 29.3 22.7 29.2 22.6 27.75 20.65 27.0 19.4 26.85 19.1 26.75 18.95 26.75 18.8 26.9 18.8 31.45 23.35 31.6 23.45 33.65 25.25 33.8 25.35 33.9 25.45 36.55 27.35 36.65 27.45 36.8 27.5 37.45 27.95 38.3 28.45 38.45 28.5 38.55 28.6 38.75 28.7 38.9 28.8" fill="#2a3c45" fill-rule="evenodd" stroke="none"/>
  </g>
</svg>
