<?xml version="1.0" encoding="UTF-8" standalone="no"?>
<svg xmlns:xlink="http://www.w3.org/1999/xlink" height="199.5px" width="175.8px" xmlns="http://www.w3.org/2000/svg">
  <g transform="matrix(1.0, 0.0, 0.0, 1.0, 0.35, 2.1)">
    <path d="M125.35 20.3 L161.1 23.7 Q170.25 37.45 173.55 51.75 175.95 62.1 175.3 72.75 L174.05 79.85 173.65 82.2 Q167.9 116.75 170.6 145.25 L138.45 159.4 Q89.0 189.35 57.25 195.7 69.5 143.0 98.35 111.4 93.6 107.2 92.05 100.4 99.15 94.35 107.55 94.6 120.9 81.45 130.55 59.8 126.5 57.5 124.35 53.0 119.35 42.65 121.75 33.7 124.9 29.55 125.35 20.3 M127.45 86.45 Q125.95 96.35 129.45 99.35 L136.0 101.3 Q144.7 103.35 150.5 101.75 153.5 86.4 143.6 81.35 L136.0 81.75 Q131.5 82.95 127.45 86.45" fill="#bcd2dd" fill-rule="evenodd" stroke="none"/>
    <path d="M125.35 20.3 Q124.9 29.55 121.75 33.7 119.35 42.65 124.35 53.0 126.5 57.5 130.55 59.8 120.9 81.45 107.55 94.6 99.15 94.35 92.05 100.4 93.6 107.2 98.35 111.4 69.5 143.0 57.25 195.7 -3.65 207.85 0.25 133.6 5.65 109.05 14.95 98.75 23.9 86.65 36.2 78.45 42.7 74.5 47.7 70.1 54.75 72.8 61.45 69.15 61.1 60.65 58.4 58.05 62.3 52.05 64.1 45.45 68.95 28.35 76.3 14.8 L85.7 2.8 Q85.0 14.55 125.35 20.3 M52.65 118.55 Q46.4 117.65 38.8 121.35 37.35 126.35 43.95 129.05 51.15 131.85 59.35 125.65 58.85 118.55 52.65 118.55" fill="#c9e3ea" fill-rule="evenodd" stroke="none"/>
    <path d="M127.45 86.45 Q131.5 82.95 136.0 81.75 L143.6 81.35 Q153.5 86.4 150.5 101.75 144.7 103.35 136.0 101.3 L129.45 99.35 Q125.95 96.35 127.45 86.45 M58.4 58.05 Q61.1 60.65 61.45 69.15 54.75 72.8 47.7 70.1 54.25 64.4 58.4 58.05 M52.65 118.55 Q58.85 118.55 59.35 125.65 51.15 131.85 43.95 129.05 37.35 126.35 38.8 121.35 46.4 117.65 52.65 118.55" fill="#304c79" fill-rule="evenodd" stroke="none"/>
    <path d="M170.6 145.25 Q167.9 116.75 173.65 82.2 M127.45 86.45 Q131.5 82.95 136.0 81.75 L143.6 81.35 Q153.5 86.4 150.5 101.75 144.7 103.35 136.0 101.3 L129.45 99.35 Q125.95 96.35 127.45 86.45 M85.7 2.8 L76.3 14.8 Q68.95 28.35 64.1 45.45 62.3 52.05 58.4 58.05 61.1 60.65 61.45 69.15 54.75 72.8 47.7 70.1 42.7 74.5 36.2 78.45 23.9 86.65 14.95 98.75 5.65 109.05 0.25 133.6 M58.4 58.05 Q54.25 64.4 47.7 70.1 M52.65 118.55 Q58.85 118.55 59.35 125.65 51.15 131.85 43.95 129.05 37.35 126.35 38.8 121.35 46.4 117.65 52.65 118.55" fill="none" stroke="#2a3c45" stroke-linecap="round" stroke-linejoin="round" stroke-width="1.2000000000000002"/>
    <path d="M174.2 82.25 L174.2 82.3 Q174.1 82.9 173.5 82.8 172.9 82.7 173.05 82.1 L173.1 81.7 175.2 72.7 Q175.2 72.55 175.3 72.65 L175.35 72.75 174.5 79.65 174.5 80.0 174.45 80.1 174.2 82.25" fill="#2a3c45" fill-rule="evenodd" stroke="none"/>
    <path d="M106.6 16.75 Q110.45 22.5 108.45 31.55 107.25 35.15 105.25 35.1 97.2 27.55 93.75 18.2 98.05 12.1 106.6 16.75" fill="#304c79" fill-rule="evenodd" stroke="none"/>
    <path d="M106.6 16.75 Q98.05 12.1 93.75 18.2 97.2 27.55 105.25 35.1 107.25 35.15 108.45 31.55 110.45 22.5 106.6 16.75 Z" fill="none" stroke="#2a3c45" stroke-linecap="round" stroke-linejoin="round" stroke-width="1.2000000000000002"/>
    <path d="M172.6 11.9 Q173.65 15.5 173.85 19.3 174.2 36.95 152.55 60.3 L141.6 58.8 Q137.5 57.8 132.7 52.15 L129.65 43.05 129.6 42.95 128.75 39.8 128.45 37.4 128.5 36.55 Q132.8 42.15 140.05 45.6 145.25 47.85 149.5 44.3 164.25 37.55 172.6 11.9" fill="#bcd2dd" fill-rule="evenodd" stroke="none"/>
    <path d="M128.5 36.55 Q128.65 35.35 129.35 34.85 L129.4 34.8 130.8 33.4 Q150.95 20.4 172.6 11.9 164.25 37.55 149.5 44.3 145.25 47.85 140.05 45.6 132.8 42.15 128.5 36.55" fill="#c9e3ea" fill-rule="evenodd" stroke="none"/>
    <path d="M130.8 33.4 Q139.0 25.1 148.05 20.0 159.7 13.35 172.6 11.9 150.95 20.4 130.8 33.4" fill="#d1f2f2" fill-rule="evenodd" stroke="none"/>
    <path d="M172.6 11.9 Q173.65 15.5 173.85 19.3 174.2 36.95 152.55 60.3 M129.4 34.8 L130.8 33.4 Q139.0 25.1 148.05 20.0 159.7 13.35 172.6 11.9 Z" fill="none" stroke="#2a3c45" stroke-linecap="round" stroke-linejoin="round" stroke-width="1.2000000000000002"/>
    <path d="M132.6 52.2 L132.6 52.1 132.75 52.05 132.85 52.15 133.0 52.25 133.05 52.3 133.15 52.35 133.35 52.55 134.45 53.45 134.75 53.75 136.05 54.85 136.65 55.3 137.05 55.65 137.65 56.1 137.85 56.3 139.0 57.15 139.2 57.25 140.05 57.85 140.4 58.0 140.95 58.35 141.35 58.55 141.5 58.6 141.6 58.7 141.65 58.8 141.55 58.85 141.05 58.85 140.95 58.8 140.8 58.8 140.5 58.75 139.75 58.55 139.35 58.4 138.95 58.2 138.7 58.15 138.5 58.0 138.05 57.8 136.5 56.75 136.3 56.55 135.65 56.05 135.45 55.85 135.25 55.7 133.8 54.05 132.85 52.6 132.8 52.55 132.75 52.45 132.65 52.3 132.6 52.2 M129.7 43.0 L129.65 43.1 Q129.55 43.2 129.55 43.05 L129.25 42.4 128.45 39.95 128.45 39.8 128.4 39.75 128.4 39.55 128.0 37.45 128.0 36.25 128.05 36.15 128.05 36.05 128.2 35.45 128.55 34.75 128.8 34.5 129.0 34.35 129.05 34.3 129.5 34.2 Q129.75 34.25 129.85 34.45 L129.95 34.95 129.7 35.3 129.65 35.3 129.6 35.4 129.55 35.4 129.35 35.6 129.35 35.65 129.25 35.75 129.2 35.85 129.15 36.0 129.1 36.1 129.05 36.25 129.0 36.35 129.0 36.5 128.95 36.55 128.95 36.7 128.85 37.4 129.0 39.5 129.0 39.75 129.05 39.85 129.7 43.0" fill="#2a3c45" fill-rule="evenodd" stroke="none"/>
    <path d="M55.35 -1.4 Q56.5 -1.65 58.2 -0.85 67.35 4.4 75.5 11.85 83.85 19.55 91.1 29.9 L89.45 37.1 Q87.15 45.3 77.65 48.85 L64.55 52.7 Q74.65 47.05 78.9 36.5 81.15 31.85 78.3 28.2 68.15 10.0 55.35 -1.4" fill="#bcd2dd" fill-rule="evenodd" stroke="none"/>
    <path d="M55.35 -1.4 Q68.15 10.0 78.3 28.2 81.15 31.85 78.9 36.5 74.65 47.05 64.55 52.7 L61.85 46.1 Q52.15 21.25 52.95 3.25 53.1 -1.0 55.35 -1.4 M56.1 4.7 Q56.05 13.35 57.5 17.55 61.15 36.1 65.55 45.8 68.75 43.9 70.35 40.4 63.25 29.5 56.1 4.7" fill="#c9e3ea" fill-rule="evenodd" stroke="none"/>
    <path d="M56.1 4.7 Q63.25 29.5 70.35 40.4 68.75 43.9 65.55 45.8 61.15 36.1 57.5 17.55 56.05 13.35 56.1 4.7" fill="#d1f2f2" fill-rule="evenodd" stroke="none"/>
    <path d="M91.1 29.9 Q83.85 19.55 75.5 11.85 67.35 4.4 58.2 -0.85 56.5 -1.65 55.35 -1.4 53.1 -1.0 52.95 3.25 52.15 21.25 61.85 46.1 L64.55 52.7" fill="none" stroke="#2a3c45" stroke-linecap="round" stroke-linejoin="round" stroke-width="1.2000000000000002"/>
    <path d="M89.35 37.05 L89.45 37.0 89.5 37.1 89.5 37.3 89.45 37.55 89.45 37.7 88.85 39.8 88.15 41.35 87.55 42.3 87.45 42.5 87.3 42.65 87.1 43.0 86.85 43.3 86.6 43.65 84.15 45.95 83.8 46.15 83.65 46.3 82.5 47.05 82.15 47.2 81.85 47.4 81.65 47.45 81.5 47.55 80.6 48.0 78.25 48.8 78.1 48.8 77.65 48.9 Q77.55 49.0 77.55 48.85 77.45 48.75 77.6 48.75 L79.2 47.85 80.75 46.9 81.05 46.75 82.5 45.7 82.85 45.5 83.0 45.35 83.15 45.25 83.75 44.75 83.9 44.65 84.0 44.5 84.15 44.35 84.3 44.25 84.9 43.7 86.45 42.0 88.15 39.45 89.35 37.05" fill="#2a3c45" fill-rule="evenodd" stroke="none"/>
    <path d="M26.1 96.6 Q23.05 73.5 22.25 58.3 30.3 70.6 37.85 88.2 37.9 95.95 32.3 102.9 L31.9 102.75 31.8 102.75 Q30.45 102.4 28.95 100.85 L28.1 99.9 Q27.0 98.5 26.1 96.6" fill="#c9e3ea" fill-rule="evenodd" stroke="none"/>
    <path d="M22.25 58.3 Q36.85 65.45 46.85 75.25 51.35 79.7 54.95 84.75 L53.05 93.15 Q49.7 100.9 40.65 102.6 L32.3 102.9 Q37.9 95.95 37.85 88.2 30.3 70.6 22.25 58.3" fill="#bcd2dd" fill-rule="evenodd" stroke="none"/>
    <path d="M26.1 96.6 L25.6 95.55 Q17.95 64.15 22.25 58.3 23.05 73.5 26.1 96.6" fill="#d1f2f2" fill-rule="evenodd" stroke="none"/>
    <path d="M22.25 58.3 Q17.95 64.15 25.6 95.55 L26.1 96.6 Q27.0 98.5 28.1 99.9 M22.25 58.3 Q36.85 65.45 46.85 75.25 51.35 79.7 54.95 84.75" fill="none" stroke="#2a3c45" stroke-linecap="round" stroke-linejoin="round" stroke-width="1.2000000000000002"/>
    <path d="M28.6 99.55 L28.65 99.65 28.65 99.7 29.4 100.65 29.6 100.85 29.75 101.1 30.15 101.5 30.6 101.85 30.8 102.05 30.95 102.1 31.05 102.2 31.15 102.25 31.3 102.35 31.4 102.4 31.55 102.45 31.7 102.55 31.8 102.6 31.8 102.55 31.85 102.6 31.95 102.6 32.3 102.8 32.35 102.9 32.25 102.95 31.85 102.85 31.8 102.9 31.75 102.85 31.6 102.85 30.55 102.5 30.4 102.4 29.6 101.95 29.5 101.85 29.25 101.7 28.85 101.4 28.75 101.3 28.05 100.7 27.85 100.45 27.7 100.35 27.6 100.25 27.55 100.15 27.45 99.7 Q27.5 99.45 27.7 99.35 L28.05 99.2 28.1 99.2 Q28.35 99.2 28.55 99.5 L28.6 99.55 M40.65 102.65 Q40.55 102.75 40.55 102.6 L40.6 102.5 40.8 102.4 41.6 102.1 42.0 101.95 42.5 101.8 42.7 101.7 43.0 101.6 47.15 99.45 48.85 98.1 50.8 96.1 52.95 93.1 53.05 93.05 53.1 93.15 52.8 94.2 52.6 94.6 52.45 95.1 52.3 95.35 52.2 95.6 50.95 97.55 50.45 98.1 49.95 98.7 47.1 100.85 45.1 101.8 43.8 102.2 43.2 102.35 41.35 102.65 40.65 102.65" fill="#2a3c45" fill-rule="evenodd" stroke="none"/>
    <path d="M122.15 113.1 L122.1 113.15 Q120.85 114.15 118.95 114.2 120.85 114.1 122.15 113.1 M96.05 101.25 Q110.05 76.5 128.6 71.4 123.95 88.8 116.9 100.6 114.55 104.1 110.45 104.1 103.25 105.15 96.05 101.25 M120.25 77.05 Q105.4 85.7 101.0 99.3 110.35 87.55 120.25 77.05" fill="#c9e3ea" fill-rule="evenodd" stroke="none"/>
    <path d="M118.95 114.2 L117.6 114.15 Q105.15 112.05 97.55 104.6 96.2 103.3 96.05 101.25 103.25 105.15 110.45 104.1 114.55 104.1 116.9 100.6 123.95 88.8 128.6 71.4 135.75 87.0 122.15 113.1 120.85 114.1 118.95 114.2" fill="#bcd2dd" fill-rule="evenodd" stroke="none"/>
    <path d="M120.25 77.05 Q110.35 87.55 101.0 99.3 105.4 85.7 120.25 77.05" fill="#d1f2f2" fill-rule="evenodd" stroke="none"/>
    <path d="M122.15 113.1 L122.1 113.15 M96.05 101.25 Q110.05 76.5 128.6 71.4 135.75 87.0 122.15 113.1 Z" fill="none" stroke="#2a3c45" stroke-linecap="round" stroke-linejoin="round" stroke-width="1.2000000000000002"/>
    <path d="M95.45 101.3 L95.4 101.1 Q95.5 100.55 96.05 100.55 L96.5 100.75 96.6 101.15 96.6 102.0 96.65 102.3 96.65 102.45 96.8 102.9 96.8 103.05 96.9 103.2 97.05 103.65 97.15 103.8 97.25 104.05 97.35 104.15 97.4 104.25 97.5 104.4 97.6 104.5 97.6 104.65 97.45 104.65 97.3 104.55 97.2 104.4 97.1 104.35 96.55 103.8 96.15 103.2 96.05 103.0 95.85 102.7 95.8 102.5 95.5 101.65 95.5 101.5 95.45 101.45 95.45 101.3 M121.85 112.5 Q122.45 112.2 122.7 112.75 L122.75 113.2 122.5 113.55 121.65 114.0 121.4 114.05 121.2 114.15 120.05 114.4 118.9 114.4 117.55 114.2 117.5 114.15 117.6 114.05 118.9 113.95 120.1 113.65 120.5 113.45 120.65 113.4 120.85 113.3 121.15 113.1 121.3 112.95 121.6 112.75 121.85 112.5" fill="#2a3c45" fill-rule="evenodd" stroke="none"/>
  </g>
</svg>
