<?xml version="1.0" encoding="UTF-8" standalone="no"?>
<svg xmlns:xlink="http://www.w3.org/1999/xlink" height="77.25px" width="82.95px" xmlns="http://www.w3.org/2000/svg">
  <g transform="matrix(1.0, 0.0, 0.0, 1.0, -2.1, -61.8)">
    <path d="M49.8 98.7 L57.25 98.35 Q68.9 90.75 68.65 73.5 L71.9 61.8 74.45 71.9 Q90.8 88.3 81.95 114.55 80.1 119.9 77.25 125.7 L8.85 125.7 23.15 108.95 25.7 99.4 Q29.4 104.75 33.45 106.45 36.15 107.85 39.2 107.5 44.2 105.8 49.8 98.7" fill="#bcd2dd" fill-rule="evenodd" stroke="none"/>
    <path d="M49.8 98.7 Q44.2 105.8 39.2 107.5 36.15 107.85 33.45 106.45 29.4 104.75 25.7 99.4 L27.25 99.4 30.75 100.45 32.7 100.8 35.1 100.9 38.5 100.85 41.45 100.75 Q42.8 100.7 46.6 99.55 L49.8 98.7 M8.85 125.7 L77.25 125.7 Q75.0 130.15 72.15 134.85 55.6 139.2 42.95 134.15 L27.3 133.85 Q22.75 134.9 16.4 135.25 10.05 135.6 2.7 132.85 L8.85 125.7" fill="#91bdc9" fill-rule="evenodd" stroke="none"/>
    <path d="M72.15 134.85 Q55.6 139.2 42.95 134.15 M27.3 133.85 Q22.75 134.9 16.4 135.25 10.05 135.6 2.7 132.85" fill="none" stroke="#2a3c45" stroke-linecap="round" stroke-linejoin="round" stroke-width="1.2000000000000002"/>
    <path d="M34.05 102.75 Q29.85 101.55 30.0 101.4 35.5 102.75 41.45 101.4 L41.5 101.6 36.8 102.85 Q39.7 104.55 39.7 104.75 36.5 103.35 35.25 103.35 34.5 103.35 33.4 103.95 L32.45 104.55 32.15 104.65 34.05 102.75" fill="#2a3c45" fill-rule="evenodd" stroke="none"/>
    <path d="M46.4 120.9 L48.2 127.1 Q49.75 142.15 37.35 137.25 41.25 130.95 39.25 125.7 L36.95 122.4 36.15 120.6 Q35.65 113.05 34.35 113.6 29.9 116.9 27.3 124.5 26.1 129.2 27.3 133.85 28.25 136.7 30.4 137.5 24.4 139.75 22.45 135.75 19.7 131.2 22.25 124.45 24.8 117.65 29.9 111.45 L32.35 112.7 40.85 112.75 Q45.3 116.9 46.4 120.9 M35.9 113.3 Q37.2 117.85 37.75 121.45 39.8 122.85 41.3 126.4 41.9 127.4 42.1 130.2 43.15 132.3 45.05 128.65 44.05 116.2 35.9 113.3 M32.35 112.7 Q28.0 114.55 26.35 119.3 L23.75 126.6 Q23.1 128.85 24.95 128.1 25.5 120.65 32.35 112.7" fill="#bcd2dd" fill-rule="evenodd" stroke="none"/>
    <path d="M35.9 113.3 Q44.05 116.2 45.05 128.65 43.15 132.3 42.1 130.2 41.9 127.4 41.3 126.4 39.8 122.85 37.75 121.45 37.2 117.85 35.9 113.3 M32.35 112.7 Q25.5 120.65 24.95 128.1 23.1 128.85 23.75 126.6 L26.35 119.3 Q28.0 114.55 32.35 112.7 M34.9 136.25 L35.0 136.25 35.5 136.45 34.9 136.25" fill="#c9e3ea" fill-rule="evenodd" stroke="none"/>
    <path d="M32.75 125.25 L33.15 123.45 Q33.9 121.3 34.2 118.75 34.35 122.5 36.75 125.25 L36.85 125.7 Q36.4 125.4 35.2 125.05 L32.75 125.25" fill="#bd6c6c" fill-rule="evenodd" stroke="none"/>
    <path d="M37.35 137.25 L35.85 136.6 Q37.35 131.6 36.9 126.05 L36.85 125.7 36.75 125.25 Q34.35 122.5 34.2 118.75 33.9 121.3 33.15 123.45 L32.75 125.25 Q32.3 125.45 32.3 125.9 32.55 126.1 32.75 125.25 31.7 131.8 33.2 136.15 L30.4 137.5 Q28.25 136.7 27.3 133.85 26.1 129.2 27.3 124.5 29.9 116.9 34.35 113.6 35.65 113.05 36.15 120.6 L36.95 122.4 39.25 125.7 Q41.25 130.95 37.35 137.25 M36.85 125.75 L36.85 125.7 36.85 125.75" fill="#91bdc9" fill-rule="evenodd" stroke="none"/>
    <path d="M35.85 136.6 Q34.4 135.7 33.2 136.15 31.7 131.8 32.75 125.25 32.75 126.05 33.45 125.65 34.15 125.25 34.75 125.3 35.35 125.35 35.85 125.75 36.3 126.1 36.85 125.75 L36.85 125.7 36.9 126.05 Q37.35 131.6 35.85 136.6" fill="url(#gradient0)" fill-rule="evenodd" stroke="none"/>
    <path d="M32.75 125.25 L35.2 125.05 Q36.4 125.4 36.85 125.7 L36.85 125.75 Q36.3 126.1 35.85 125.75 35.35 125.35 34.75 125.3 34.15 125.25 33.45 125.65 32.75 126.05 32.75 125.25 32.55 126.1 32.3 125.9 32.3 125.45 32.75 125.25" fill="#8c4f4f" fill-rule="evenodd" stroke="none"/>
    <path d="M46.4 120.9 L48.2 127.1 Q49.75 142.15 37.35 137.25 L35.85 136.6 M33.2 136.15 L30.4 137.5 Q24.4 139.75 22.45 135.75 19.7 131.2 22.25 124.45" fill="none" stroke="#2a3c45" stroke-linecap="round" stroke-linejoin="round" stroke-width="1.2000000000000002"/>
    <path d="M35.85 136.6 Q34.4 135.7 33.2 136.15 31.7 131.8 32.75 125.25 L33.15 123.45 Q33.9 121.3 34.2 118.75 34.35 122.5 36.75 125.25 L36.85 125.7 36.9 126.05 Q37.35 131.6 35.85 136.6" fill="none" stroke="#2a3c45" stroke-linecap="round" stroke-linejoin="round" stroke-width="0.8"/>
    <path d="M34.25 116.6 L34.3 116.55 34.4 116.6 34.4 116.65 34.55 117.7 34.55 118.9 Q34.45 119.35 34.05 119.15 33.65 119.05 33.8 118.65 L33.85 118.35 34.05 117.65 34.15 116.95 34.25 116.6 M29.8 111.35 L29.95 111.35 29.95 111.5 27.2 115.4 24.3 120.85 24.15 121.1 22.8 124.65 22.75 124.7 Q22.55 125.3 22.0 125.0 21.45 124.75 21.65 124.2 L22.25 122.9 22.4 122.5 23.45 120.4 25.2 117.45 27.9 113.6 28.9 112.45 29.15 112.1 29.8 111.35 M40.75 112.8 L40.75 112.65 40.9 112.65 41.2 112.95 41.6 113.25 42.35 113.95 44.15 115.85 44.75 116.6 45.0 117.0 45.3 117.35 45.75 118.15 46.0 118.5 46.1 118.7 46.15 118.85 46.5 119.5 46.75 120.2 46.8 120.3 46.95 120.7 46.95 120.75 Q47.1 121.3 46.55 121.5 46.0 121.65 45.8 121.05 L45.7 120.65 45.7 120.55 45.55 120.2 45.55 120.05 45.4 119.6 45.25 119.3 45.2 119.1 45.1 118.95 44.95 118.55 44.35 117.4 43.1 115.5 41.8 113.95 41.4 113.45 40.75 112.8" fill="#2a3c45" fill-rule="evenodd" stroke="none"/>
  </g>
  <defs>
    <radialGradient cx="0" cy="0" gradientTransform="matrix(0.0122, 0.0, 0.0, 0.0152, 34.6, 121.75)" gradientUnits="userSpaceOnUse" id="gradient0" r="819.2" spreadMethod="pad">
      <stop offset="0.4196078431372549" stop-color="#b66868"/>
      <stop offset="0.5882352941176471" stop-color="#9a5858"/>
      <stop offset="0.8352941176470589" stop-color="#724141"/>
      <stop offset="1.0" stop-color="#2a3c45"/>
    </radialGradient>
  </defs>
</svg>
