<?xml version="1.0" encoding="UTF-8" standalone="no"?>
<svg xmlns:xlink="http://www.w3.org/1999/xlink" height="109.65px" width="80.7px" xmlns="http://www.w3.org/2000/svg">
  <g transform="matrix(1.0, 0.0, 0.0, 1.0, 0.6, 0.6)">
    <path d="M64.85 0.8 Q66.65 1.6 67.1 3.15 67.75 5.6 67.0 9.3 65.95 14.15 62.35 21.1 61.5 25.6 62.5 30.25 63.85 36.75 66.65 46.05 L69.2 52.95 69.3 53.35 69.45 53.7 71.9 61.8 Q71.35 66.75 68.65 73.5 68.9 90.75 57.25 98.35 L49.8 98.7 46.6 99.55 Q37.05 101.55 27.25 99.4 L25.7 99.4 23.15 108.95 Q23.6 105.65 20.45 100.15 17.3 94.65 13.9 91.25 L11.95 89.15 Q7.55 84.8 3.9 71.7 11.35 87.05 25.9 91.75 L34.0 91.2 Q44.6 90.25 41.45 77.3 29.85 40.7 38.55 28.25 49.95 11.65 64.85 0.8" fill="#bcd2dd" fill-rule="evenodd" stroke="none"/>
    <path d="M64.85 0.8 Q49.95 11.65 38.55 28.25 29.85 40.7 41.45 77.3 44.6 90.25 34.0 91.2 L25.9 91.75 Q11.35 87.05 3.9 71.7 -7.9 45.9 16.2 20.55 22.25 13.75 28.85 9.3 36.5 4.15 44.9 2.2 59.9 -1.3 64.85 0.8 M44.1 6.85 Q31.9 9.5 21.5 18.15 14.9 24.2 12.65 29.75 13.7 32.35 19.65 30.5 18.95 22.3 44.1 6.85 M10.3 34.25 L7.8 38.05 Q11.7 38.95 15.6 38.05 16.2 35.0 10.3 34.25" fill="#c9e3ea" fill-rule="evenodd" stroke="none"/>
    <path d="M10.3 34.25 Q16.2 35.0 15.6 38.05 11.7 38.95 7.8 38.05 L10.3 34.25 M44.1 6.85 Q18.95 22.3 19.65 30.5 13.7 32.35 12.65 29.75 14.9 24.2 21.5 18.15 31.9 9.5 44.1 6.85" fill="#d1f2f2" fill-rule="evenodd" stroke="none"/>
    <path d="M27.25 99.4 Q37.05 101.55 46.6 99.55 42.8 100.7 41.45 100.75 L38.5 100.85 35.1 100.9 32.7 100.8 30.75 100.45 27.25 99.4" fill="#2a3c45" fill-rule="evenodd" stroke="none"/>
    <path d="M69.3 53.35 L69.2 52.95 66.65 46.05 Q63.85 36.75 62.5 30.25 61.5 25.6 62.35 21.1 65.95 14.15 67.0 9.3 67.75 5.6 67.1 3.15 66.65 1.6 64.85 0.8 59.9 -1.3 44.9 2.2 36.5 4.15 28.85 9.3 22.25 13.75 16.2 20.55 -7.9 45.9 3.9 71.7 7.55 84.8 11.95 89.15 L13.9 91.25" fill="none" stroke="#2a3c45" stroke-linecap="round" stroke-linejoin="round" stroke-width="1.2000000000000002"/>
    <path d="M68.55 73.5 L68.6 73.4 68.7 73.45 68.9 77.5 68.35 82.6 68.05 83.85 68.0 84.2 67.7 85.15 66.8 87.75 65.6 90.2 65.25 90.75 65.1 91.05 64.25 92.3 64.15 92.4 63.2 93.65 62.8 94.1 61.4 95.5 60.05 96.6 59.9 96.75 59.2 97.2 58.9 97.45 58.75 97.55 58.6 97.6 58.35 97.8 57.3 98.4 57.15 98.4 57.15 98.25 58.35 97.25 58.5 97.15 60.15 95.65 60.3 95.45 61.0 94.7 61.15 94.5 61.9 93.7 62.05 93.45 62.25 93.25 62.4 93.0 62.6 92.75 63.3 91.8 63.35 91.65 63.45 91.55 63.6 91.25 63.8 91.0 64.1 90.45 64.3 90.2 65.7 87.25 66.6 84.8 67.3 82.35 68.55 73.5 M79.95 58.1 L80.05 58.15 80.0 58.25 79.85 58.3 78.65 58.6 78.45 58.6 78.0 58.7 77.75 58.7 77.55 58.75 77.0 58.75 76.75 58.8 76.45 58.8 75.6 58.7 75.3 58.7 74.7 58.55 73.5 58.2 72.35 57.65 71.35 56.9 70.65 56.2 71.95 61.75 71.9 61.85 71.8 61.8 68.85 53.85 68.85 53.8 68.85 53.6 68.75 53.5 Q68.55 52.95 69.05 52.7 L69.55 52.7 69.85 53.0 69.9 53.15 70.0 53.3 70.55 54.4 70.65 54.55 70.75 54.75 71.45 55.7 71.5 55.8 71.6 55.9 71.8 56.05 71.95 56.25 72.8 57.0 74.85 58.0 75.4 58.15 76.5 58.3 76.75 58.35 77.95 58.35 78.2 58.3 78.6 58.3 78.8 58.25 79.4 58.2 79.8 58.1 79.95 58.1 M23.2 108.95 L23.1 109.0 23.05 108.9 23.05 107.6 22.7 105.8 22.5 105.1 22.2 104.35 20.55 101.0 20.45 100.75 20.2 100.35 20.15 100.25 20.05 100.15 19.95 99.95 17.6 96.45 13.4 91.6 Q13.0 91.2 13.45 90.75 L14.3 90.8 16.0 92.7 16.4 93.25 17.35 94.55 17.6 94.85 20.75 100.05 21.0 100.45 22.6 104.2 23.05 105.7 23.3 107.3 23.3 108.5 23.25 108.6 23.25 108.7 23.2 108.95 M3.35 71.95 L3.35 71.9 3.3 71.45 3.6 71.1 Q4.15 70.9 4.4 71.4 L4.85 72.35 7.85 77.55 9.3 79.65 13.0 83.8 14.6 85.2 14.7 85.35 16.75 86.95 17.6 87.5 17.85 87.7 20.5 89.3 20.75 89.4 24.65 91.2 25.6 91.5 25.9 91.65 25.95 91.75 25.85 91.8 20.85 89.9 20.6 89.75 20.35 89.65 18.7 88.8 17.6 88.1 17.3 87.95 16.75 87.55 16.45 87.4 14.75 86.15 14.45 85.95 14.3 85.8 14.15 85.7 13.6 85.25 9.5 81.25 8.6 80.2 4.7 74.45 3.8 72.85 3.7 72.6 3.35 71.95 M61.8 20.8 L61.8 20.75 Q61.9 20.55 62.15 20.5 L62.6 20.55 Q63.1 20.8 62.85 21.35 L59.5 28.6 58.9 30.5 58.85 30.8 58.75 31.1 58.7 31.4 58.65 31.55 58.6 31.65 58.35 33.0 58.35 33.25 58.2 35.0 58.2 35.05 58.15 35.1 Q58.05 35.2 58.05 35.05 L58.0 33.2 58.05 32.95 58.05 32.7 58.2 31.6 58.2 31.45 58.25 31.3 58.3 31.0 59.3 27.05 61.8 20.8" fill="#2a3c45" fill-rule="evenodd" stroke="none"/>
  </g>
</svg>
