<?xml version="1.0" encoding="UTF-8" standalone="no"?>
<svg xmlns:xlink="http://www.w3.org/1999/xlink" height="16.95px" width="13.05px" xmlns="http://www.w3.org/2000/svg">
  <g transform="matrix(1.0, 0.0, 0.0, 1.0, -26.45, -130.35)">
    <path d="M33.45 135.95 Q33.75 135.35 34.7 135.15 L34.8 135.95 Q34.8 137.7 35.0 138.0 L34.85 139.1 Q33.75 140.65 31.5 142.6 L30.15 144.45 28.15 146.15 27.6 146.3 27.5 145.75 Q27.5 145.5 28.45 143.6 L29.85 140.45 Q30.05 139.9 31.2 138.9 32.55 137.85 33.45 135.95 M36.6 139.05 L35.45 138.0 35.5 137.55 35.55 137.85 Q38.1 138.95 36.6 139.05 M37.9 139.5 L37.95 139.6 37.9 140.25 37.25 140.1 37.2 139.5 37.6 139.6 Q37.95 139.75 37.9 139.5 M39.1 141.8 L39.3 142.35 Q39.2 143.0 38.95 142.75 L38.25 141.65 38.4 141.3 38.9 141.9 Q39.25 142.5 39.1 141.8 M37.65 146.85 L37.6 146.85 37.6 146.8 37.5 146.45 38.1 146.4 38.0 146.85 37.65 146.85" fill="#fcfff0" fill-opacity="0.9019608" fill-rule="evenodd" stroke="none"/>
    <path d="M34.8 135.95 L34.85 135.95 35.75 136.45 Q36.45 137.1 37.9 139.5 37.95 139.75 37.6 139.6 L37.2 139.5 37.25 140.1 37.9 140.25 37.95 139.6 39.1 141.8 Q39.25 142.5 38.9 141.9 L38.4 141.3 38.25 141.65 38.95 142.75 Q39.2 143.0 39.3 142.35 L39.5 143.1 38.8 143.5 37.15 140.45 Q36.05 138.55 35.0 138.0 34.8 137.7 34.8 135.95 M32.6 135.9 L33.45 135.95 Q32.55 137.85 31.2 138.9 30.05 139.9 29.85 140.45 L28.45 143.6 Q27.5 145.5 27.5 145.75 L27.6 146.3 28.15 146.15 30.15 144.45 Q28.75 146.7 26.7 146.45 L26.5 146.4 26.45 145.65 27.6 144.45 Q28.75 143.0 28.8 141.6 28.9 138.7 29.55 137.8 L32.6 135.9 M36.6 139.05 Q38.1 138.95 35.55 137.85 L35.5 137.55 35.45 138.0 36.6 139.05 M37.5 146.45 L37.55 145.75 38.0 145.5 38.35 145.5 38.5 146.15 38.4 147.05 38.0 147.3 37.65 146.85 38.0 146.85 38.1 146.4 37.5 146.45" fill="#fcfff0" fill-opacity="0.6" fill-rule="evenodd" stroke="none"/>
    <path d="M34.8 135.95 L34.7 135.15 Q33.75 135.35 33.45 135.95 L32.6 135.9 Q33.55 134.95 33.1 133.3 32.9 132.4 33.35 131.45 33.85 130.35 34.75 130.35 35.9 131.2 36.0 132.0 L35.85 134.05 35.25 135.6 34.85 135.95 34.8 135.95" fill="url(#gradient0)" fill-rule="evenodd" stroke="none"/>
  </g>
  <defs>
    <radialGradient cx="0" cy="0" gradientTransform="matrix(0.0048, 0.0, 0.0, 0.0073, 34.35, 136.05)" gradientUnits="userSpaceOnUse" id="gradient0" r="819.2" spreadMethod="pad">
      <stop offset="0.3137254901960784" stop-color="#fcfff0" stop-opacity="0.6"/>
      <stop offset="1.0" stop-color="#fcfff0" stop-opacity="0.0"/>
    </radialGradient>
  </defs>
</svg>
