<?xml version="1.0" encoding="UTF-8" standalone="no"?>
<svg xmlns:xlink="http://www.w3.org/1999/xlink" height="19.55px" width="19.3px" xmlns="http://www.w3.org/2000/svg">
  <g transform="matrix(1.0, 0.0, 0.0, 1.0, -22.65, -129.2)">
    <path d="M39.15 139.0 L39.2 140.25 39.55 142.35 39.45 142.95 Q39.2 143.25 38.7 143.35 L37.75 142.1 Q37.15 140.85 37.0 138.65 L33.95 138.65 28.9 145.3 Q26.7 147.7 25.5 147.95 24.55 147.9 24.45 147.25 L26.0 145.3 27.05 143.85 Q29.25 140.7 29.25 139.6 L27.25 139.15 Q26.8 139.05 26.45 138.45 26.65 137.9 27.7 137.6 L28.35 137.5 31.2 136.8 32.85 136.2 33.85 135.75 34.75 135.65 34.9 135.7 34.95 135.7 35.25 135.8 37.7 136.65 Q39.25 137.2 39.15 139.0" fill="#fcfff0" fill-opacity="0.9019608" fill-rule="evenodd" stroke="none"/>
    <path d="M36.25 134.9 L36.9 134.65 38.3 136.75 Q39.0 137.8 41.8 137.45 L41.9 137.6 41.95 138.2 Q41.95 138.85 41.2 138.95 L39.15 139.0 Q39.25 137.2 37.7 136.65 L35.25 135.8 36.25 134.9 M39.2 140.25 L39.75 141.15 Q40.15 141.85 40.15 142.45 L40.05 143.75 39.65 143.95 38.7 144.15 Q37.75 144.15 37.3 142.0 36.85 139.8 36.15 139.8 33.25 139.8 30.05 144.3 L29.3 145.3 Q26.6 148.75 25.0 148.75 23.85 148.75 22.85 148.15 22.65 148.4 22.65 147.4 L24.65 145.3 25.15 144.85 Q27.65 142.6 27.65 141.45 27.65 141.05 26.45 140.55 25.0 139.9 24.25 138.65 L24.45 137.85 27.7 137.6 Q26.65 137.9 26.45 138.45 26.8 139.05 27.25 139.15 L29.25 139.6 Q29.25 140.7 27.05 143.85 L26.0 145.3 24.45 147.25 Q24.55 147.9 25.5 147.95 26.7 147.7 28.9 145.3 L33.95 138.65 37.0 138.65 Q37.15 140.85 37.75 142.1 L38.7 143.35 Q39.2 143.25 39.45 142.95 L39.55 142.35 39.2 140.25 M28.35 137.5 Q29.4 136.8 29.8 135.8 30.15 134.9 31.6 134.1 32.35 134.2 32.55 135.75 L32.55 135.8 32.45 135.95 32.35 136.15 32.85 136.2 31.2 136.8 28.35 137.5 M38.5 146.4 L38.35 147.05 38.0 147.3 37.65 147.05 37.5 146.4 Q37.5 146.05 37.65 145.8 L38.0 145.5 38.35 145.8 38.5 146.4" fill="#fcfff0" fill-opacity="0.6" fill-rule="evenodd" stroke="none"/>
    <path d="M32.55 135.8 Q33.1 133.6 32.9 132.9 L32.8 132.05 Q32.8 131.3 33.2 130.55 33.8 129.2 34.95 129.2 36.4 130.25 36.5 131.25 L36.55 132.05 36.3 133.8 36.25 134.2 36.25 134.9 35.25 135.8 34.95 135.7 34.9 135.7 34.75 135.65 33.85 135.75 32.85 136.2 32.35 136.15 32.45 135.95 32.55 135.8" fill="url(#gradient0)" fill-rule="evenodd" stroke="none"/>
    <path d="M32.55 135.75 L32.6 134.2 M36.25 134.2 L36.75 134.2 M32.55 135.8 L32.55 135.75 Z" fill="none" stroke="#2a3c45" stroke-linecap="round" stroke-linejoin="round" stroke-width="0.05"/>
  </g>
  <defs>
    <radialGradient cx="0" cy="0" gradientTransform="matrix(0.006, 0.0, 0.0, 0.0092, 34.45, 136.3)" gradientUnits="userSpaceOnUse" id="gradient0" r="819.2" spreadMethod="pad">
      <stop offset="0.3137254901960784" stop-color="#fcfff0" stop-opacity="0.8"/>
      <stop offset="1.0" stop-color="#fcfff0" stop-opacity="0.0"/>
    </radialGradient>
  </defs>
</svg>
