<?xml version="1.0" encoding="UTF-8" standalone="no"?>
<svg xmlns:xlink="http://www.w3.org/1999/xlink" height="48.05px" width="50.45px" xmlns="http://www.w3.org/2000/svg">
  <g transform="matrix(1.0, 0.0, 0.0, 1.0, -4.9, -112.65)">
    <path d="M41.55 116.45 L41.3 117.7 40.8 118.75 39.4 118.75 39.15 118.6 39.15 118.85 Q40.0 120.4 40.15 121.8 L40.35 122.35 40.1 123.0 40.05 123.15 Q39.85 123.55 39.2 123.55 38.15 123.55 37.75 120.8 L37.65 120.4 37.65 120.0 37.65 119.95 Q37.15 119.85 37.05 119.4 L37.05 118.8 37.05 118.75 36.6 118.1 35.65 116.8 Q35.65 114.4 37.55 116.6 37.75 116.25 38.3 116.25 38.8 116.25 39.15 116.55 L39.6 117.0 40.05 115.35 Q39.55 115.3 39.45 114.85 L39.45 114.35 39.65 113.65 Q39.7 112.1 40.5 113.3 41.15 113.3 41.15 114.0 L41.1 114.45 Q41.55 115.5 41.55 116.45 M55.35 128.25 Q55.35 129.15 54.6 129.15 L53.95 128.9 52.9 128.0 51.6 127.95 51.05 127.55 50.85 127.25 Q50.85 126.35 53.1 126.3 55.35 126.25 55.35 128.25 M53.55 135.0 L53.3 135.55 Q53.05 135.75 52.8 135.75 52.25 135.75 52.1 135.4 L52.05 135.05 Q52.05 134.25 52.8 134.25 53.55 134.25 53.55 135.0 M49.35 128.7 L49.05 130.15 48.55 131.2 Q48.45 132.9 47.8 133.35 L47.1 133.1 46.6 129.3 Q46.25 127.5 46.25 126.35 46.25 124.5 47.4 126.5 L48.15 128.15 48.4 127.9 Q49.35 127.2 49.35 128.7 M42.95 129.4 L42.4 130.25 41.4 130.95 40.7 130.7 40.65 130.1 Q40.65 129.4 41.8 128.8 42.95 128.2 42.95 129.4 M43.75 132.2 L42.8 133.15 42.1 132.9 42.05 132.3 Q42.05 131.45 42.9 131.45 43.75 131.45 43.75 132.2 M36.25 134.9 L36.9 134.65 37.05 134.85 Q37.1 133.0 37.5 130.55 38.2 126.9 39.15 130.0 L39.05 134.15 Q39.7 136.45 44.1 136.45 44.95 136.45 44.95 137.2 L44.7 137.8 45.4 137.85 Q46.4 137.95 46.7 138.7 L46.75 139.75 Q46.75 140.65 44.75 141.4 45.25 141.35 45.75 141.65 L47.0 142.6 47.8 142.6 47.9 142.95 47.6 143.45 46.8 143.5 45.75 143.3 45.75 143.1 45.15 142.85 Q44.15 142.35 43.9 141.65 41.55 142.25 41.55 142.55 L42.15 144.15 Q42.75 145.65 42.75 147.05 L42.75 148.4 Q42.65 149.35 41.9 149.35 L40.85 148.55 39.8 149.15 Q38.8 149.15 37.65 147.05 L37.1 145.95 35.45 144.5 Q34.75 143.6 34.85 143.0 L34.75 142.95 34.1 143.35 32.35 144.4 Q30.15 145.25 29.65 146.4 29.5 146.75 29.75 148.6 29.7 150.3 28.0 150.3 L27.2 150.25 25.4 150.55 Q23.9 150.55 22.45 149.95 L21.95 150.25 20.2 151.1 19.75 151.1 19.4 151.3 17.8 151.3 17.3 150.75 16.5 151.1 15.95 151.0 15.9 150.25 Q15.9 149.5 16.6 149.25 17.3 149.05 18.5 149.55 L19.6 149.1 22.45 148.4 22.9 147.85 Q24.6 145.9 24.6 144.15 L24.55 142.75 24.3 142.4 23.5 140.95 23.6 140.3 23.45 138.25 23.05 137.85 23.05 137.5 22.85 137.05 Q22.85 136.2 23.4 136.25 L23.55 136.2 26.8 135.95 26.85 135.7 26.45 134.2 Q26.45 133.25 27.2 133.25 27.85 133.25 28.2 134.1 L28.75 135.35 Q28.95 134.3 29.65 132.45 L30.65 129.55 Q30.65 127.35 31.5 126.8 32.35 126.25 32.35 128.5 32.35 132.15 31.7 133.85 L31.6 134.1 Q32.35 134.2 32.55 135.75 L32.55 135.8 32.45 135.95 32.4 136.05 31.8 136.2 28.6 137.6 27.9 137.45 25.55 136.75 Q24.45 136.35 24.45 137.6 L24.65 138.4 Q24.9 138.75 25.4 138.95 L24.65 139.25 Q24.65 140.05 25.75 140.45 26.85 140.85 26.85 141.9 L26.4 143.2 Q26.0 144.05 26.05 144.6 L25.8 145.95 Q25.45 146.9 25.45 147.3 L25.45 147.35 Q23.45 148.0 23.45 149.25 L23.5 149.6 Q23.75 149.95 24.7 149.95 L27.0 149.55 Q27.95 149.15 27.95 148.6 L27.7 147.55 28.0 146.35 27.8 143.85 Q29.7 143.5 29.8 142.9 29.55 142.2 29.6 141.85 L32.7 141.35 32.7 141.4 Q32.85 141.75 33.4 141.75 35.25 141.75 36.4 143.25 38.2 145.55 39.4 146.35 L40.8 146.35 41.5 145.5 41.75 144.9 Q41.75 144.25 40.4 142.55 L39.7 141.05 42.8 140.1 Q43.35 139.85 43.35 139.3 L43.1 138.95 43.6 138.95 44.55 138.0 Q44.55 137.4 43.8 137.25 L40.8 137.35 38.8 136.6 Q38.2 135.15 35.75 135.35 L36.25 134.9 M30.55 113.6 L29.55 114.65 Q28.5 115.65 28.35 116.1 L28.25 117.35 Q27.95 118.55 27.0 118.55 26.35 118.55 26.25 118.1 L26.25 117.6 Q26.25 115.7 28.4 113.65 L30.55 113.6 M39.15 147.3 L39.15 147.4 39.25 147.35 39.15 147.3 M11.8 151.2 L11.9 151.55 Q11.9 152.05 10.45 152.2 L9.45 152.35 8.8 152.5 8.9 152.75 Q8.9 153.6 7.5 154.1 L6.95 154.0 6.9 153.55 6.95 153.3 6.9 152.95 Q6.9 152.3 7.9 151.75 9.25 150.95 11.8 151.2 M5.9 154.9 L5.9 155.1 5.85 155.3 5.5 155.45 5.4 155.5 4.95 155.25 4.9 154.95 4.95 154.8 4.9 154.55 Q4.9 153.7 5.4 153.7 5.9 153.7 5.9 154.55 L5.9 154.9 M45.5 157.2 L45.45 157.4 45.45 157.55 45.35 157.65 45.0 157.7 44.8 157.7 Q43.95 157.7 43.65 157.2 L43.5 156.7 43.65 156.3 43.35 155.45 42.8 153.7 42.6 153.7 Q42.35 153.7 41.6 152.7 L40.9 151.85 Q40.9 150.75 42.0 151.55 L42.3 151.8 Q42.8 151.35 43.35 152.2 L44.2 153.9 44.95 155.85 45.5 156.85 45.5 157.15 45.5 157.2 M47.2 159.8 L47.3 160.15 47.25 160.55 46.7 160.7 46.3 160.65 46.15 160.45 46.1 160.15 46.45 159.75 47.2 159.8" fill="#fcfff0" fill-opacity="0.6" fill-rule="evenodd" stroke="none"/>
    <path d="M32.4 136.05 L32.45 135.95 32.55 135.8 Q33.1 133.6 32.9 132.9 L32.8 132.05 Q32.8 131.3 33.2 130.55 33.8 129.2 34.95 129.2 36.4 130.25 36.5 131.25 L36.55 132.05 36.3 133.8 36.25 134.2 36.25 134.9 35.75 135.35 32.4 136.05" fill="url(#gradient0)" fill-rule="evenodd" stroke="none"/>
    <path d="M35.75 135.35 Q38.2 135.15 38.8 136.6 L40.8 137.35 43.8 137.25 Q44.55 137.4 44.55 138.0 L43.6 138.95 43.1 138.95 43.35 139.3 Q43.35 139.85 42.8 140.1 L39.7 141.05 40.4 142.55 Q41.75 144.25 41.75 144.9 L41.5 145.5 40.8 146.35 39.4 146.35 Q38.2 145.55 36.4 143.25 35.25 141.75 33.4 141.75 32.85 141.75 32.7 141.4 L32.7 141.35 29.6 141.85 Q29.55 142.2 29.8 142.9 29.7 143.5 27.8 143.85 L28.0 146.35 27.7 147.55 27.95 148.6 Q27.95 149.15 27.0 149.55 L24.7 149.95 Q23.75 149.95 23.5 149.6 L23.45 149.25 Q23.45 148.0 25.45 147.35 L25.45 147.3 Q25.45 146.9 25.8 145.95 L26.05 144.6 Q26.0 144.05 26.4 143.2 L26.85 141.9 Q26.85 140.85 25.75 140.45 24.65 140.05 24.65 139.25 L25.4 138.95 Q24.9 138.75 24.65 138.4 L24.45 137.6 Q24.45 136.35 25.55 136.75 L27.9 137.45 28.6 137.6 31.8 136.2 32.4 136.05 35.75 135.35" fill="#fcfff0" fill-opacity="0.9019608" fill-rule="evenodd" stroke="none"/>
    <path d="M32.55 135.75 L32.6 134.2 M32.55 135.8 L32.55 135.75 M36.25 134.2 L36.75 134.2" fill="none" stroke="#2a3c45" stroke-linecap="round" stroke-linejoin="round" stroke-width="0.05"/>
  </g>
  <defs>
    <radialGradient cx="0" cy="0" gradientTransform="matrix(0.006, 0.0, 0.0, 0.0092, 34.45, 136.3)" gradientUnits="userSpaceOnUse" id="gradient0" r="819.2" spreadMethod="pad">
      <stop offset="0.3137254901960784" stop-color="#fcfff0" stop-opacity="0.8"/>
      <stop offset="1.0" stop-color="#fcfff0" stop-opacity="0.0"/>
    </radialGradient>
  </defs>
</svg>
