<?xml version="1.0" encoding="UTF-8" standalone="no"?>
<svg xmlns:xlink="http://www.w3.org/1999/xlink" height="106.85px" width="123.0px" xmlns="http://www.w3.org/2000/svg">
  <g transform="matrix(1.0, 0.0, 0.0, 1.0, 0.1, 0.25)">
    <path d="M98.2 85.55 L100.5 86.15 103.85 87.25 Q113.45 90.95 118.8 99.3 112.45 94.65 105.0 91.4 106.75 97.3 107.4 97.0 114.35 98.4 120.85 100.85 L121.6 101.45 122.3 102.05 Q114.5 100.25 105.9 100.5 L103.5 90.75 101.65 88.35 100.5 87.35 98.2 85.55 M103.5 90.75 L103.85 90.9 105.0 91.4 103.85 90.9 103.5 90.75" fill="#c3cbcd" fill-rule="evenodd" stroke="none"/>
    <path d="M91.6 80.95 Q93.65 83.45 95.9 84.65 L97.9 85.5 98.2 85.55 100.5 87.35 101.65 88.35 103.5 90.75 105.9 100.5 Q103.25 101.05 100.85 102.25 L97.9 103.05 95.9 103.45 83.5 105.2 Q68.55 107.05 45.95 104.6 42.15 102.75 42.75 98.75 91.75 105.6 94.15 94.6 94.5 91.25 85.15 87.55 L87.9 85.25 88.8 84.65 Q90.5 83.3 91.6 80.95" fill="#91bdc9" fill-rule="evenodd" stroke="none"/>
    <path d="M92.2 73.6 L92.2 79.25 91.6 80.95 Q90.5 83.3 88.8 84.65 L87.9 85.25 85.15 87.55 Q94.5 91.25 94.15 94.6 91.75 105.6 42.75 98.75 45.3 90.0 50.7 87.1 69.05 77.0 92.2 73.6" fill="#bcd2dd" fill-rule="evenodd" stroke="none"/>
    <path d="M118.8 99.3 L120.85 100.85 Q114.35 98.4 107.4 97.0 106.75 97.3 105.0 91.4 112.45 94.65 118.8 99.3" fill="#eceef0" fill-rule="evenodd" stroke="none"/>
    <path d="M92.2 73.6 L92.2 79.25 91.6 80.95 Q93.65 83.45 95.9 84.65 L97.9 85.5 98.2 85.55 100.5 86.15 103.85 87.25 Q113.45 90.95 118.8 99.3 L120.85 100.85 121.6 101.45 122.3 102.05 Q114.5 100.25 105.9 100.5 103.25 101.05 100.85 102.25 L97.9 103.05 95.9 103.45 83.5 105.2 Q68.55 107.05 45.95 104.6 42.15 102.75 42.75 98.75 M105.9 100.5 L103.5 90.75 101.65 88.35 100.5 87.35 98.2 85.55 M105.0 91.4 L103.85 90.9 103.5 90.75 M118.8 99.3 Q112.45 94.65 105.0 91.4" fill="none" stroke="#2a3c45" stroke-linecap="round" stroke-linejoin="round" stroke-width="1.2000000000000002"/>
    <path d="M91.1 80.55 Q91.4 80.1 91.9 80.35 92.45 80.7 92.1 81.2 L91.5 82.15 90.7 83.2 90.3 83.6 90.25 83.7 90.1 83.8 89.9 84.0 89.7 84.15 89.5 84.35 89.1 84.65 88.9 84.75 88.9 84.8 88.85 84.8 88.75 84.9 87.9 85.3 87.8 85.3 Q87.65 85.15 87.85 85.15 L88.05 85.0 88.6 84.5 88.65 84.5 88.65 84.45 88.85 84.3 89.3 83.75 89.5 83.55 89.65 83.35 89.7 83.25 89.8 83.15 89.85 83.05 89.95 82.9 90.3 82.25 90.45 82.05 90.65 81.65 90.7 81.45 91.1 80.55" fill="#2a3c45" fill-rule="evenodd" stroke="none"/>
    <path d="M74.7 2.0 Q85.45 5.9 89.85 17.35 L102.65 52.0 Q106.4 60.6 99.75 71.0 L95.0 75.9 Q79.85 90.55 61.75 97.6 L47.95 102.2 Q42.2 104.15 26.95 104.65 11.7 105.15 5.9 97.65 0.1 90.15 0.0 87.65 12.35 85.15 25.9 70.3 25.2 82.2 36.95 81.1 50.95 78.75 62.9 65.85 67.85 59.3 70.7 52.55 L77.35 56.95 Q82.7 51.2 88.05 39.0 84.2 28.85 77.9 23.6 75.75 24.55 73.8 25.65 L73.05 22.2 Q69.95 11.35 61.9 4.0 58.7 1.0 50.3 3.2 53.4 1.2 57.05 0.2 67.35 -0.65 74.7 2.0 M61.25 92.35 Q68.4 88.4 71.9 84.05 65.8 78.45 59.65 77.8 54.2 84.45 53.15 90.0 56.95 92.35 61.25 92.35" fill="#bcd2dd" fill-rule="evenodd" stroke="none"/>
    <path d="M25.9 70.3 L28.7 31.25 Q27.5 29.15 31.2 25.4 34.9 21.65 41.2 12.75 44.95 6.55 50.3 3.2 58.7 1.0 61.9 4.0 69.95 11.35 73.05 22.2 L73.8 25.65 Q65.4 30.3 59.9 37.95 59.55 44.4 70.7 52.55 67.85 59.3 62.9 65.85 50.95 78.75 36.95 81.1 25.2 82.2 25.9 70.3 M32.85 44.95 Q28.15 57.0 31.2 67.85 L32.85 73.6 Q36.5 72.0 39.6 67.9 43.3 60.1 45.85 48.35 39.85 44.1 32.85 44.95" fill="#c9e3ea" fill-rule="evenodd" stroke="none"/>
    <path d="M73.8 25.65 Q76.2 39.5 70.7 52.55 59.55 44.4 59.9 37.95 65.4 30.3 73.8 25.65 M32.85 44.95 Q39.85 44.1 45.85 48.35 43.3 60.1 39.6 67.9 36.5 72.0 32.85 73.6 L31.2 67.85 Q28.15 57.0 32.85 44.95 M61.25 92.35 Q56.95 92.35 53.15 90.0 54.2 84.45 59.65 77.8 65.8 78.45 71.9 84.05 68.4 88.4 61.25 92.35" fill="#304c79" fill-rule="evenodd" stroke="none"/>
    <path d="M73.8 25.65 Q75.75 24.55 77.9 23.6 84.2 28.85 88.05 39.0 82.7 51.2 77.35 56.95 L70.7 52.55 Q76.2 39.5 73.8 25.65" fill="#294269" fill-rule="evenodd" stroke="none"/>
    <path d="M74.7 2.0 Q85.45 5.9 89.85 17.35 L102.65 52.0 Q106.4 60.6 99.75 71.0 L95.0 75.9 Q79.85 90.55 61.75 97.6 L47.95 102.2 Q42.2 104.15 26.95 104.65 11.7 105.15 5.9 97.65 M70.7 52.55 L77.35 56.95 Q82.7 51.2 88.05 39.0 84.2 28.85 77.9 23.6 75.75 24.55 73.8 25.65 65.4 30.3 59.9 37.95 59.55 44.4 70.7 52.55 M32.85 44.95 Q39.85 44.1 45.85 48.35 43.3 60.1 39.6 67.9 36.5 72.0 32.85 73.6 L31.2 67.85 Q28.15 57.0 32.85 44.95 M61.25 92.35 Q68.4 88.4 71.9 84.05 65.8 78.45 59.65 77.8 54.2 84.45 53.15 90.0 56.95 92.35 61.25 92.35" fill="none" stroke="#2a3c45" stroke-linecap="round" stroke-linejoin="round" stroke-width="1.2000000000000002"/>
    <path d="M6.35 97.25 L6.4 97.3 Q6.7 97.8 6.25 98.15 5.8 98.45 5.4 98.0 L5.1 97.6 2.15 93.05 1.1 91.2 0.05 88.75 -0.05 88.15 -0.05 87.65 0.0 87.55 0.05 87.6 0.1 87.75 0.15 88.1 0.35 88.65 1.05 90.1 4.0 94.4 5.65 96.45 6.05 96.85 6.35 97.25 M57.05 0.25 Q56.95 0.35 56.95 0.2 56.85 0.1 57.0 0.1 L57.8 0.0 58.65 -0.05 60.45 -0.15 60.8 -0.2 64.3 -0.25 65.15 -0.2 66.4 -0.15 66.6 -0.1 66.85 -0.1 67.65 -0.05 68.5 0.0 69.3 0.1 69.65 0.2 69.85 0.2 70.05 0.25 70.8 0.35 71.15 0.45 71.5 0.5 73.95 1.1 74.15 1.2 74.9 1.4 Q75.5 1.7 75.25 2.2 75.05 2.75 74.5 2.55 L74.45 2.55 73.75 2.3 73.6 2.2 69.5 1.05 66.75 0.6 66.55 0.55 66.35 0.55 64.25 0.35 62.65 0.25 57.05 0.25" fill="#2a3c45" fill-rule="evenodd" stroke="none"/>
  </g>
</svg>
