<?xml version="1.0" encoding="UTF-8" standalone="no"?>
<svg xmlns:xlink="http://www.w3.org/1999/xlink" height="115.5px" width="138.05px" xmlns="http://www.w3.org/2000/svg">
  <g transform="matrix(1.0, 0.0, 0.0, 1.0, 0.6, 0.6)">
    <path d="M107.85 22.4 Q105.25 23.1 104.5 26.2 103.85 28.85 104.55 33.3 108.0 49.85 112.3 60.25 110.15 65.6 103.4 65.85 95.2 64.95 86.9 62.55 L84.6 60.25 Q81.1 57.0 76.9 56.0 L76.1 55.9 75.5 55.8 Q72.3 55.4 71.05 56.95 L71.05 56.4 Q59.35 56.75 56.0 59.9 52.6 63.05 51.1 66.1 50.65 66.95 50.65 67.95 46.95 71.8 48.4 75.7 L50.75 80.1 Q45.4 97.75 44.15 106.65 37.05 110.55 16.55 110.7 19.15 103.15 16.0 96.65 12.85 90.1 4.1 84.55 -5.85 54.4 8.25 30.6 28.15 -9.7 72.1 3.1 81.35 5.85 91.6 10.85 L95.95 14.8 Q100.6 18.65 105.6 21.3 106.7 21.95 107.85 22.4 M127.8 67.7 Q122.65 60.2 119.3 52.2 121.75 52.2 126.3 56.25 127.25 57.75 127.5 61.0 128.6 65.1 127.8 67.7 M44.15 106.65 L43.85 109.6 Q43.0 113.05 44.15 106.65 M28.35 13.0 Q53.2 10.2 73.8 23.8 94.4 37.45 96.7 32.85 92.15 21.15 92.4 16.1 70.55 6.2 54.0 4.8 37.1 5.85 28.35 13.0" fill="#c9e3ea" fill-rule="evenodd" stroke="none"/>
    <path d="M28.35 13.0 Q37.1 5.85 54.0 4.8 70.55 6.2 92.4 16.1 92.15 21.15 96.7 32.85 94.4 37.45 73.8 23.8 53.2 10.2 28.35 13.0" fill="#d1f2f2" fill-rule="evenodd" stroke="none"/>
    <path d="M107.85 22.4 L111.6 24.0 Q116.2 26.85 114.25 34.25 115.5 43.45 119.3 52.2 122.65 60.2 127.8 67.7 130.65 72.0 134.1 76.25 121.55 71.25 113.3 83.45 109.55 89.0 118.35 103.9 111.55 105.4 108.5 110.95 105.1 106.0 98.95 107.7 L97.7 108.05 91.0 108.25 Q86.25 107.6 83.25 104.55 82.15 103.4 81.2 101.9 L74.1 93.6 62.3 112.8 44.15 106.65 Q45.4 97.75 50.75 80.1 L48.4 75.7 Q46.95 71.8 50.65 67.95 L50.7 68.55 50.8 69.75 50.95 70.3 Q51.5 72.2 53.1 74.45 56.55 79.65 57.5 80.1 58.45 80.6 58.25 79.9 L58.6 80.0 Q70.4 84.35 84.55 80.15 86.85 80.15 90.1 82.1 90.3 78.35 88.8 74.35 L86.85 70.2 Q81.65 61.4 75.85 58.7 L74.45 58.1 Q72.7 57.1 71.05 56.95 72.3 55.4 75.5 55.8 L76.1 55.9 76.9 56.0 Q81.1 57.0 84.6 60.25 L86.9 62.55 Q95.2 64.95 103.4 65.85 110.15 65.6 112.3 60.25 108.0 49.85 104.55 33.3 103.85 28.85 104.5 26.2 105.25 23.1 107.85 22.4" fill="#bcd2dd" fill-rule="evenodd" stroke="none"/>
    <path d="M88.8 74.35 Q90.3 78.35 90.1 82.1 86.85 80.15 84.55 80.15 89.5 79.0 88.8 74.35 M58.6 80.0 L58.25 79.9 Q58.45 80.6 57.5 80.1 56.55 79.65 53.1 74.45 51.5 72.2 50.95 70.3 L50.8 69.75 50.7 68.55 50.65 67.95 Q50.65 66.95 51.1 66.1 52.6 63.05 56.0 59.9 59.35 56.75 71.05 56.4 L71.05 56.95 Q70.1 56.7 71.05 56.4 70.1 56.7 71.05 56.95 L70.95 57.15 70.9 57.25 70.85 57.3 Q64.55 57.8 60.35 59.2 L57.25 60.55 Q51.25 64.0 54.45 71.7 L57.15 77.0 58.6 80.0" fill="#2a3c45" fill-rule="evenodd" stroke="none"/>
    <path d="M118.35 103.9 Q109.55 89.0 113.3 83.45 121.55 71.25 134.1 76.25 L136.0 78.45 Q138.7 98.75 133.05 104.6 L121.6 103.4 118.35 103.9 M126.95 93.05 L122.6 91.7 126.95 93.05 M135.1 88.55 L134.5 83.9 135.1 88.55" fill="url(#gradient0)" fill-rule="evenodd" stroke="none"/>
    <path d="M71.05 56.95 Q72.7 57.1 74.45 58.1 L72.45 57.65 70.95 57.15 71.05 56.95" fill="#a9d3dd" fill-rule="evenodd" stroke="none"/>
    <path d="M83.25 104.55 Q86.25 107.6 91.0 108.25 89.15 109.65 86.95 114.3 84.05 111.15 83.25 104.55" fill="#eceef0" fill-rule="evenodd" stroke="none"/>
    <path d="M119.3 52.2 Q115.5 43.45 114.25 34.25 116.2 26.85 111.6 24.0 L107.85 22.4 Q106.7 21.95 105.6 21.3 100.6 18.65 95.95 14.8 L91.6 10.85 Q81.35 5.85 72.1 3.1 28.15 -9.7 8.25 30.6 -5.85 54.4 4.1 84.55 12.85 90.1 16.0 96.65 M71.05 56.95 Q72.7 57.1 74.45 58.1 L75.85 58.7 Q81.65 61.4 86.85 70.2 L88.8 74.35 Q90.3 78.35 90.1 82.1 86.85 80.15 84.55 80.15 70.4 84.35 58.6 80.0 L58.25 79.9 M83.25 104.55 Q86.25 107.6 91.0 108.25 L97.7 108.05 98.95 107.7 Q105.1 106.0 108.5 110.95 111.55 105.4 118.35 103.9 L121.6 103.4 133.05 104.6 Q138.7 98.75 136.0 78.45 L134.1 76.25 Q130.65 72.0 127.8 67.7 122.65 60.2 119.3 52.2 121.75 52.2 126.3 56.25 127.25 57.75 127.5 61.0 128.6 65.1 127.8 67.7 M122.6 91.7 L126.95 93.05 M134.5 83.9 L135.1 88.55 M83.25 104.55 Q84.05 111.15 86.95 114.3 89.15 109.65 91.0 108.25" fill="none" stroke="#2a3c45" stroke-linecap="round" stroke-linejoin="round" stroke-width="1.2000000000000002"/>
    <path d="M71.05 56.4 Q70.1 56.7 71.05 56.95 L70.95 57.15" fill="none" stroke="#2a3c45" stroke-linecap="round" stroke-linejoin="round" stroke-width="0.05"/>
    <path d="M80.9 102.05 Q80.7 101.8 81.0 101.6 81.25 101.4 81.45 101.7 L81.55 101.8 81.65 101.95 83.65 104.1 83.7 104.2 Q84.1 104.6 83.65 105.05 L82.8 104.95 82.7 104.8 81.75 103.55 81.15 102.55 81.05 102.35 80.95 102.2 80.9 102.05 M15.45 96.85 L15.4 96.85 Q15.2 96.3 15.75 96.05 16.3 95.75 16.5 96.4 L16.75 96.95 16.8 97.1 16.9 97.25 17.45 98.95 17.45 99.05 17.8 100.55 17.8 100.7 17.85 100.85 17.95 101.5 17.95 101.85 18.0 102.2 18.0 102.55 18.05 102.9 18.05 104.25 17.85 105.95 17.85 106.1 17.8 106.25 17.55 107.75 17.45 108.05 17.35 108.55 17.25 108.8 16.85 110.1 16.6 110.7 16.5 110.75 16.45 110.65 16.7 109.75 17.1 107.95 17.1 107.8 17.15 107.7 17.15 107.4 17.3 106.2 17.3 106.05 17.35 105.9 17.35 103.45 17.3 103.25 17.3 102.95 17.25 102.6 17.25 102.45 17.2 102.3 17.15 101.95 17.15 101.8 17.1 101.65 17.0 101.05 16.9 100.75 16.85 100.45 16.5 99.35 16.45 99.25 16.35 98.9 15.85 97.7 15.75 97.55 15.45 96.85 M86.95 62.45 L86.95 62.6 86.8 62.6 85.5 61.6 84.75 60.9 84.6 60.8 84.3 60.5 84.3 60.55 83.8 60.15 80.1 57.85 75.45 55.85 75.4 55.75 Q75.4 55.6 75.5 55.7 L78.05 56.1 81.1 57.25 82.25 57.9 84.85 59.9 84.85 59.95 85.15 60.25 85.25 60.4 86.45 61.8 86.95 62.45" fill="#2a3c45" fill-rule="evenodd" stroke="none"/>
  </g>
  <defs>
    <radialGradient cx="0" cy="0" gradientTransform="matrix(0.0244, -0.0423, 0.0301, 0.0174, 116.45, 86.6)" gradientUnits="userSpaceOnUse" id="gradient0" r="819.2" spreadMethod="pad">
      <stop offset="0.4196078431372549" stop-color="#c0d7e2"/>
      <stop offset="0.6823529411764706" stop-color="#91b5bd"/>
    </radialGradient>
  </defs>
</svg>
