<?xml version="1.0" encoding="UTF-8" standalone="no"?>
<svg xmlns:xlink="http://www.w3.org/1999/xlink" height="28.25px" width="47.5px" xmlns="http://www.w3.org/2000/svg">
  <g transform="matrix(1.0, 0.0, 0.0, 1.0, 7.1, 0.0)">
    <path d="M24.3 1.55 Q36.4 8.35 38.4 16.0 40.4 23.7 39.75 27.65 35.8 20.45 23.15 15.2 9.5 10.0 0.0 12.3 L0.4 11.2 Q6.3 9.2 13.1 8.5 15.15 8.55 18.1 5.75 L18.2 5.65 Q20.85 3.15 24.3 1.55" fill="#adc1cc" fill-rule="evenodd" stroke="none"/>
    <path d="M0.4 11.2 Q2.05 6.65 7.2 2.55 12.95 -2.0 24.3 1.55 20.85 3.15 18.2 5.65 L18.1 5.75 Q15.15 8.55 13.1 8.5 6.3 9.2 0.4 11.2" fill="#bcd2dd" fill-rule="evenodd" stroke="none"/>
    <path d="M39.75 27.65 Q35.8 20.45 23.15 15.2 9.5 10.0 0.0 12.3" fill="none" stroke="#2a3c45" stroke-linecap="round" stroke-linejoin="round" stroke-width="1.2000000000000002"/>
    <path d="M0.55 12.45 L0.55 12.5 Q0.35 13.05 -0.15 12.85 -0.7 12.7 -0.55 12.1 L-0.35 11.5 -0.1 10.95 -0.1 11.0 0.05 10.5 0.3 10.0 0.4 9.85 0.45 9.7 0.8 9.05 2.45 6.7 4.4 4.65 5.2 3.95 7.1 2.45 7.25 2.45 7.25 2.6 4.5 5.25 4.3 5.55 4.05 5.8 2.45 8.0 2.3 8.3 2.1 8.6 1.35 10.1 1.1 10.75 1.1 10.8 1.05 10.9 0.9 11.35 0.9 11.4 0.6 12.15 0.6 12.3 0.55 12.45 M38.3 16.0 L38.35 15.9 38.45 15.95 39.95 21.7 40.3 24.15 40.3 24.4 40.35 24.65 40.4 26.6 40.3 27.7 40.3 27.75 Q40.2 28.35 39.6 28.25 39.0 28.15 39.15 27.55 L39.35 26.15 39.35 25.8 39.35 22.9 39.25 22.05 39.25 21.8 39.05 20.45 39.05 20.2 38.3 16.0" fill="#2a3c45" fill-rule="evenodd" stroke="none"/>
    <path d="M0.75 12.25 L0.85 12.2 Q1.45 12.3 1.45 12.85 L1.25 13.25 0.8 13.4 0.35 13.4 0.1 13.45 -0.05 13.45 -0.2 13.5 -0.6 13.55 -1.45 13.85 -2.45 14.35 -2.6 14.5 -2.8 14.6 -3.4 15.05 -3.55 15.2 -3.7 15.2 -3.7 15.05 -3.55 14.9 -3.4 14.7 -3.15 14.45 -3.05 14.3 -2.75 14.0 -2.0 13.4 -1.9 13.3 -1.8 13.25 -1.35 12.95 -0.5 12.55 0.25 12.3 0.5 12.25 0.75 12.25 M4.45 11.05 L4.5 11.05 Q5.05 11.25 4.95 11.8 4.75 12.4 4.2 12.2 L4.1 12.2 2.7 11.8 2.6 11.9 2.45 12.0 2.4 12.05 2.35 12.05 2.35 12.1 2.05 12.1 1.75 12.15 1.4 12.15 1.05 12.2 0.85 12.2 -1.65 12.1 -2.7 11.9 -4.6 11.15 -5.4 10.65 -5.85 10.25 -5.95 10.2 -6.5 9.65 -7.05 8.95 -7.1 8.85 -7.1 8.7 -6.95 8.7 -6.85 8.8 -6.6 9.0 -6.25 9.35 Q-5.95 9.55 -5.7 9.7 L-5.6 9.75 -5.55 9.8 -5.4 9.9 -4.25 10.4 -3.4 10.6 -2.5 10.75 -2.25 10.8 0.1 10.75 -0.75 10.35 -1.85 9.65 -2.2 9.4 -2.4 9.3 -3.35 8.45 -3.55 8.2 -3.65 8.1 -3.7 8.0 -4.0 7.55 -4.1 7.45 -4.05 7.15 Q-3.8 7.0 -3.7 7.15 L-3.6 7.25 -3.45 7.5 -3.2 7.75 -3.1 7.8 -2.7 8.2 -2.55 8.3 -2.45 8.4 -2.15 8.65 -0.75 9.45 -0.35 9.6 0.0 9.8 1.95 10.4 2.2 10.4 2.35 10.5 2.4 10.55 3.05 10.75 4.35 11.0 4.45 11.05" fill="#2a3c45" fill-rule="evenodd" stroke="none"/>
  </g>
</svg>
