<?xml version="1.0" encoding="UTF-8" standalone="no"?>
<svg xmlns:xlink="http://www.w3.org/1999/xlink" height="28.25px" width="44.45px" xmlns="http://www.w3.org/2000/svg">
  <g transform="matrix(1.0, 0.0, 0.0, 1.0, 4.05, 0.0)">
    <path d="M29.1 4.55 Q36.85 10.0 38.4 16.0 40.4 23.7 39.75 27.65 35.8 20.45 23.25 20.35 3.3 20.25 0.0 12.3 L0.4 11.2 0.65 10.55 Q14.2 1.6 29.1 4.55" fill="#adc1cc" fill-rule="evenodd" stroke="none"/>
    <path d="M0.65 10.55 Q2.45 6.35 7.2 2.55 12.95 -2.0 24.3 1.55 L29.1 4.55 Q14.2 1.6 0.65 10.55" fill="#bcd2dd" fill-rule="evenodd" stroke="none"/>
    <path d="M39.75 27.65 Q35.8 20.45 23.25 20.35 3.3 20.25 0.0 12.3" fill="none" stroke="#2a3c45" stroke-linecap="round" stroke-linejoin="round" stroke-width="1.2000000000000002"/>
    <path d="M0.55 12.45 L0.55 12.5 Q0.35 13.05 -0.15 12.85 -0.7 12.7 -0.55 12.1 L-0.35 11.5 -0.1 10.95 -0.1 11.0 0.15 10.3 0.8 9.05 1.8 7.55 2.05 7.3 2.45 6.75 3.9 5.15 5.2 3.95 7.1 2.45 7.25 2.45 7.25 2.6 4.75 5.0 4.55 5.3 4.3 5.55 4.1 5.8 3.85 6.05 2.45 8.0 2.4 8.15 2.3 8.3 1.35 10.1 1.25 10.4 1.15 10.6 1.15 10.65 1.1 10.7 1.1 10.75 0.9 11.35 0.9 11.4 0.6 12.15 0.6 12.3 0.55 12.45 M38.3 16.0 L38.35 15.9 38.45 15.95 39.95 21.7 40.3 24.15 40.3 24.4 40.35 24.65 40.4 26.6 40.3 27.7 40.3 27.75 Q40.2 28.35 39.6 28.25 39.0 28.15 39.15 27.55 L39.35 26.15 39.35 25.8 39.35 22.9 39.25 22.05 39.25 21.8 39.05 20.45 39.05 20.2 38.3 16.0" fill="#2a3c45" fill-rule="evenodd" stroke="none"/>
    <path d="M6.6 16.75 L6.65 16.75 Q7.2 17.1 6.85 17.6 6.55 18.05 6.05 17.8 L4.7 16.95 4.55 17.05 4.4 17.1 4.35 17.1 4.3 17.15 4.2 17.15 3.95 17.1 3.8 17.1 3.65 17.05 3.35 17.0 3.3 17.0 Q3.5 17.2 3.35 17.55 3.2 18.1 2.6 17.95 L1.9 17.8 1.75 17.75 1.55 17.75 1.15 17.7 0.95 17.7 0.75 17.75 0.5 17.75 0.3 17.8 0.05 17.8 -0.95 18.1 -1.15 18.2 -1.6 18.35 -2.0 18.55 -2.15 18.55 -2.15 18.4 -1.15 17.7 -0.05 17.2 0.0 17.15 0.1 17.1 0.35 17.05 0.6 16.95 1.55 16.75 2.2 16.75 0.1 16.0 -0.05 15.9 -0.3 15.8 -0.55 15.65 -2.15 14.5 -2.8 13.8 -2.95 13.65 -3.3 13.15 -3.4 12.95 -3.65 12.55 -3.75 12.25 -4.0 11.75 -4.0 11.6 -3.95 11.5 -3.85 11.55 -3.75 11.65 -3.6 11.9 -3.0 12.7 -2.9 12.8 -2.3 13.35 -2.15 13.45 -2.0 13.6 -1.65 13.85 -0.9 14.3 0.35 14.8 0.55 14.85 0.8 14.95 2.45 15.3 1.4 14.4 1.35 14.3 0.65 13.6 0.55 13.4 0.4 13.25 0.3 13.1 -0.05 12.45 -0.25 12.2 -0.35 11.9 -0.45 11.8 -0.55 11.45 -0.7 11.15 -0.7 11.05 Q-0.8 10.85 -0.55 10.75 -0.35 10.65 -0.25 10.9 L0.0 11.45 0.0 11.55 0.1 11.65 0.2 11.9 0.8 12.7 0.95 12.8 1.05 12.95 1.65 13.55 1.8 13.65 1.85 13.75 1.95 13.8 3.15 14.75 3.35 14.85 4.25 15.45 4.45 15.45 4.5 15.5 4.55 15.5 4.75 15.75 4.85 15.8 4.95 15.85 5.0 15.85 5.05 15.9 6.6 16.75" fill="#2a3c45" fill-rule="evenodd" stroke="none"/>
  </g>
</svg>
