<?xml version="1.0" encoding="UTF-8" standalone="no"?>
<svg xmlns:xlink="http://www.w3.org/1999/xlink" height="64.85px" width="89.15px" xmlns="http://www.w3.org/2000/svg">
  <g transform="matrix(1.0, 0.0, 0.0, 1.0, 0.6, 0.6)">
    <path d="M1.1 14.85 Q19.5 26.7 37.95 31.8 40.6 46.25 27.9 59.3 20.55 54.65 12.95 45.05 7.0 37.55 0.9 27.0 -1.0 21.75 1.1 14.85" fill="#dbaf57" fill-rule="evenodd" stroke="none"/>
    <path d="M27.9 59.3 Q40.6 46.25 37.95 31.8 19.5 26.7 1.1 14.85 3.05 8.2 8.8 0.0 L87.95 4.55 Q72.1 54.85 43.95 63.5 36.1 64.5 27.9 59.3" fill="#d3a954" fill-rule="evenodd" stroke="none"/>
    <path d="M27.9 59.3 Q36.1 64.5 43.95 63.5 72.1 54.85 87.95 4.55 M8.8 0.0 Q3.05 8.2 1.1 14.85 -1.0 21.75 0.9 27.0 7.0 37.55 12.95 45.05 20.55 54.65 27.9 59.3 Z" fill="none" stroke="#3f3316" stroke-linecap="round" stroke-linejoin="round" stroke-width="1.2000000000000002"/>
  </g>
</svg>
