<?xml version="1.0" encoding="UTF-8" standalone="no"?>
<svg xmlns:xlink="http://www.w3.org/1999/xlink" height="7.55px" width="14.25px" xmlns="http://www.w3.org/2000/svg">
  <g transform="matrix(1.0, 0.0, 0.0, 1.0, -119.15, -13.6)">
    <path d="M124.3 17.35 L123.5 16.95 Q121.65 17.05 122.5 16.6 L123.3 16.05 126.45 16.0 Q130.2 15.65 133.4 18.1 L133.3 18.5 133.0 18.7 Q130.8 17.5 129.75 17.95 L129.8 18.1 Q130.1 18.95 129.9 19.1 L129.7 19.15 Q129.35 18.15 127.8 17.65 L125.6 17.3 124.6 17.6 124.05 18.2 123.85 18.05 Q123.9 17.7 124.3 17.35" fill="#3f3316" fill-rule="evenodd" stroke="none"/>
    <path d="M123.8 21.15 Q121.85 20.9 119.6 18.95 118.75 18.15 119.5 16.4 L120.5 14.6 125.15 13.6 Q122.35 14.3 121.05 15.75 120.2 16.15 120.75 18.65 L123.8 21.15" fill="#e2c05a" fill-rule="evenodd" stroke="none"/>
  </g>
</svg>
