<?xml version="1.0" encoding="UTF-8" standalone="no"?>
<svg xmlns:xlink="http://www.w3.org/1999/xlink" height="66.3px" width="83.65px" xmlns="http://www.w3.org/2000/svg">
  <g transform="matrix(1.0, 0.0, 0.0, 1.0, 0.6, 0.6)">
    <path d="M28.35 61.4 Q35.8 57.45 38.85 44.75 38.5 38.45 37.05 32.0 21.75 31.1 4.75 20.1 2.1 10.95 0.0 0.0 L79.15 4.45 Q88.8 17.95 70.35 44.7 54.5 67.7 37.0 64.8 34.1 64.3 31.2 63.15 L28.35 61.4" fill="#d3a954" fill-rule="evenodd" stroke="none"/>
    <path d="M4.75 20.1 Q21.75 31.1 37.05 32.0 38.5 38.45 38.85 44.75 35.8 57.45 28.35 61.4 13.65 51.2 4.75 20.1" fill="#dbaf57" fill-rule="evenodd" stroke="none"/>
    <path d="M28.35 61.4 L31.2 63.15 Q34.1 64.3 37.0 64.8 54.5 67.7 70.35 44.7 88.8 17.95 79.15 4.45 M0.0 0.0 Q2.1 10.95 4.75 20.1 13.65 51.2 28.35 61.4 Z" fill="none" stroke="#3f3316" stroke-linecap="round" stroke-linejoin="round" stroke-width="1.2000000000000002"/>
  </g>
</svg>
