<?xml version="1.0" encoding="UTF-8" standalone="no"?>
<svg xmlns:xlink="http://www.w3.org/1999/xlink" height="7.55px" width="14.4px" xmlns="http://www.w3.org/2000/svg">
  <g transform="matrix(1.0, 0.0, 0.0, 1.0, -120.4, -13.9)">
    <path d="M125.5 17.65 L124.65 17.25 Q122.8 17.35 123.55 16.9 L124.25 16.35 127.4 16.3 Q131.05 15.95 134.8 18.4 L134.8 18.8 134.55 19.0 Q132.1 17.8 131.15 18.25 L131.2 18.4 Q131.75 19.25 131.55 19.4 L131.4 19.45 Q130.75 18.45 129.1 17.95 L126.8 17.6 125.9 17.9 125.5 18.5 125.25 18.35 125.5 17.65" fill="#3f3316" fill-rule="evenodd" stroke="none"/>
    <path d="M125.9 21.45 Q123.95 21.2 121.25 19.25 120.15 18.45 120.5 16.7 120.6 15.9 121.1 14.9 L125.5 13.9 Q122.85 14.6 121.9 16.05 121.15 16.45 122.3 18.95 L125.9 21.45" fill="#e2c05a" fill-rule="evenodd" stroke="none"/>
  </g>
</svg>
