<?xml version="1.0" encoding="UTF-8" standalone="no"?>
<svg xmlns:xlink="http://www.w3.org/1999/xlink" height="64.9px" width="105.45px" xmlns="http://www.w3.org/2000/svg">
  <g transform="matrix(1.0, 0.0, 0.0, 1.0, 0.6, 0.6)">
    <path d="M79.7 1.9 Q80.3 4.7 81.4 7.1 87.15 19.5 104.25 20.95 65.3 78.85 28.7 58.35 61.35 54.45 44.6 33.15 25.85 34.5 6.3 24.35 2.25 13.05 0.0 0.0 L79.7 1.9" fill="#d3a954" fill-rule="evenodd" stroke="none"/>
    <path d="M6.3 24.35 Q25.85 34.5 44.6 33.15 61.35 54.45 28.7 58.35 25.45 56.5 22.25 54.1 12.3 41.2 6.3 24.35" fill="#dbaf57" fill-rule="evenodd" stroke="none"/>
    <path d="M28.7 58.35 Q65.3 78.85 104.25 20.95 87.15 19.5 81.4 7.1 80.3 4.7 79.7 1.9 M0.0 0.0 Q2.25 13.05 6.3 24.35 12.3 41.2 22.25 54.1 25.45 56.5 28.7 58.35 Z" fill="none" stroke="#3f3316" stroke-linecap="round" stroke-linejoin="round" stroke-width="1.2000000000000002"/>
    <path d="M80.8 7.2 Q80.65 6.65 81.25 6.45 81.85 6.35 81.95 6.95 L84.2 15.7 86.0 20.2 86.65 21.4 87.35 22.3 87.95 22.9 88.25 23.1 88.45 23.2 88.6 23.3 88.65 23.4 88.55 23.45 88.35 23.4 88.25 23.35 88.1 23.3 88.0 23.2 87.8 23.1 87.1 22.5 86.35 21.6 84.2 17.5 84.0 17.15 80.8 7.2" fill="#3f3316" fill-rule="evenodd" stroke="none"/>
  </g>
</svg>
