<?xml version="1.0" encoding="UTF-8" standalone="no"?>
<svg xmlns:xlink="http://www.w3.org/1999/xlink" height="65.0px" width="153.25px" xmlns="http://www.w3.org/2000/svg">
  <g transform="matrix(1.0, 0.0, 0.0, 1.0, 0.6, 0.6)">
    <path d="M94.95 21.25 Q113.7 31.7 152.05 25.6 147.6 32.4 142.9 38.0 119.65 41.8 94.95 21.25 M59.5 57.05 L51.5 54.15 Q25.35 43.9 12.25 27.5 L9.7 24.05 Q22.7 29.4 70.4 35.0 72.25 40.8 82.8 49.85 90.1 56.1 80.5 57.95 L59.5 57.05" fill="#dbaf57" fill-rule="evenodd" stroke="none"/>
    <path d="M94.95 21.25 Q119.65 41.8 142.9 38.0 134.7 47.6 125.65 53.65 108.1 65.3 87.05 63.6 L80.15 62.7 Q69.05 60.2 59.5 57.05 L80.5 57.95 Q90.1 56.1 82.8 49.85 72.25 40.8 70.4 35.0 22.7 29.4 9.7 24.05 2.25 13.25 0.0 0.0 L79.3 2.0 Q81.8 9.85 87.1 15.3 90.45 18.75 94.95 21.25" fill="#d3a954" fill-rule="evenodd" stroke="none"/>
    <path d="M142.9 38.0 Q147.6 32.4 152.05 25.6 113.7 31.7 94.95 21.25 90.45 18.75 87.1 15.3 81.8 9.85 79.3 2.0 M142.9 38.0 Q134.7 47.6 125.65 53.65 108.1 65.3 87.05 63.6 L80.15 62.7 Q69.05 60.2 59.5 57.05 L51.5 54.15 Q25.35 43.9 12.25 27.5 L9.7 24.05 Q2.25 13.25 0.0 0.0" fill="none" stroke="#3f3316" stroke-linecap="round" stroke-linejoin="round" stroke-width="1.2000000000000002"/>
  </g>
</svg>
