<?xml version="1.0" encoding="UTF-8" standalone="no"?>
<svg xmlns:xlink="http://www.w3.org/1999/xlink" height="64.0px" width="133.35px" xmlns="http://www.w3.org/2000/svg">
  <g transform="matrix(1.0, 0.0, 0.0, 1.0, 0.6, 0.6)">
    <path d="M46.8 11.2 Q50.85 6.55 53.0 0.0 L132.15 4.55 Q112.1 56.05 78.95 62.15 54.6 64.95 35.35 55.55 88.4 53.25 78.25 35.7 55.4 29.7 46.8 11.2" fill="#d3a954" fill-rule="evenodd" stroke="none"/>
    <path d="M35.35 55.55 Q14.75 45.5 0.0 21.45 28.2 27.7 40.0 16.95 43.9 14.55 46.8 11.2 55.4 29.7 78.25 35.7 88.4 53.25 35.35 55.55" fill="#dbaf57" fill-rule="evenodd" stroke="none"/>
    <path d="M46.8 11.2 Q50.85 6.55 53.0 0.0 M132.15 4.55 Q112.1 56.05 78.95 62.15 54.6 64.95 35.35 55.55 14.75 45.5 0.0 21.45 28.2 27.7 40.0 16.95 43.9 14.55 46.8 11.2 Z" fill="none" stroke="#3f3316" stroke-linecap="round" stroke-linejoin="round" stroke-width="1.2000000000000002"/>
    <path d="M39.5 16.55 L39.55 16.5 40.4 16.45 Q40.8 16.85 40.45 17.3 L37.75 19.95 35.95 21.4 35.7 21.65 33.4 23.2 32.8 23.5 32.5 23.7 29.2 25.4 28.3 25.75 28.2 25.7 28.25 25.6 29.1 25.15 32.25 23.25 32.5 23.05 32.8 22.9 37.1 19.3 37.2 19.15 38.9 17.3 39.0 17.15 39.1 17.05 39.5 16.55" fill="#3f3316" fill-rule="evenodd" stroke="none"/>
  </g>
</svg>
