<?xml version="1.0" encoding="UTF-8" standalone="no"?>
<svg xmlns:xlink="http://www.w3.org/1999/xlink" height="43.05px" width="57.15px" xmlns="http://www.w3.org/2000/svg">
  <g transform="matrix(1.0, 0.0, 0.0, 1.0, -6.85, -2.6)">
    <path d="M54.9 33.8 L56.05 31.45 Q58.75 24.15 60.4 22.95 62.05 21.75 63.9 22.2 64.1 25.7 63.9 28.8 63.35 35.75 60.3 40.85 L59.35 41.85 58.05 42.85 54.6 44.4 Q52.2 45.2 46.45 44.6 40.7 44.0 40.55 43.5 L40.5 43.6 36.95 42.6 Q46.45 42.6 52.4 36.7 L53.9 35.1 54.9 33.8 M32.5 42.8 L30.0 43.5 24.5 43.85 Q21.3 44.1 18.4 42.5 15.5 40.9 13.55 38.95 20.0 42.15 24.8 41.3 26.45 38.9 23.65 34.85 L24.75 33.7 Q25.65 33.6 27.35 34.55 30.75 38.85 31.4 41.4 L31.5 41.35 32.5 42.8" fill="#cbc7b0" fill-rule="evenodd" stroke="none"/>
    <path d="M13.05 38.65 Q8.9 33.75 6.85 24.55 10.9 25.65 15.9 29.6 31.8 25.75 24.75 33.7 L23.65 34.85 Q26.45 38.9 24.8 41.3 20.0 42.15 13.55 38.95 L13.05 38.65 M41.15 35.15 Q43.4 33.75 43.8 35.7 L41.6 39.85 46.3 35.1 47.9 35.15 54.9 33.8 53.9 35.1 52.4 36.7 Q46.45 42.6 36.95 42.6 L37.55 41.85 37.65 41.9 Q37.65 41.3 38.1 40.8 L39.05 39.75 39.6 38.3 Q40.2 36.8 41.15 35.15 M16.7 31.35 Q15.55 35.75 16.2 38.3 18.35 40.0 20.5 39.45 17.9 37.05 16.7 31.35" fill="#ddd9c0" fill-rule="evenodd" stroke="none"/>
    <path d="M43.8 35.7 Q46.35 33.45 46.3 35.1 L41.6 39.85 43.8 35.7 M37.55 41.85 L36.95 42.6 36.9 42.6 37.5 41.85 37.55 41.85 M8.75 3.35 L7.7 2.6 8.25 2.8 8.75 3.35 M16.7 31.35 Q17.9 37.05 20.5 39.45 18.35 40.0 16.2 38.3 15.55 35.75 16.7 31.35" fill="#e8e4cc" fill-rule="evenodd" stroke="none"/>
    <path d="M27.35 34.55 L27.75 34.5 28.05 34.9 Q31.6 39.6 31.55 41.35 L31.5 41.35 31.4 41.4 Q30.75 38.85 27.35 34.55 M30.0 34.3 Q29.45 33.35 29.0 32.0 L27.8 28.9 26.65 27.8 26.75 27.55 Q27.8 28.25 27.75 27.9 L28.35 24.3 26.95 23.0 27.05 22.45 28.65 23.5 Q29.3 22.9 29.45 21.55 L27.75 20.1 27.95 19.4 29.8 20.8 30.85 20.1 31.05 20.05 31.0 20.6 31.05 20.05 Q33.15 19.15 35.2 19.65 L35.45 20.4 35.55 20.5 35.5 20.5 35.75 21.0 Q37.1 23.8 37.8 24.05 L38.35 23.75 38.6 24.3 38.1 24.75 38.6 27.65 38.85 30.35 38.4 32.3 40.3 30.25 40.3 30.45 40.35 30.6 37.35 34.4 34.95 37.4 33.4 37.15 Q32.75 36.9 31.4 35.95 30.6 35.4 30.0 34.3 M31.45 14.8 L31.5 14.0 Q33.3 13.8 35.15 14.0 L35.2 14.85 Q33.35 14.6 31.45 14.8 M40.7 35.05 L41.15 35.15 Q40.2 36.8 39.6 38.3 L39.05 39.75 38.1 40.8 Q37.65 41.3 37.65 41.9 L37.55 41.85 37.5 41.85 Q38.15 39.2 40.7 35.05 M22.45 19.55 L22.6 19.6 22.55 19.65 22.45 19.55 M31.0 20.6 L30.6 20.75 30.4 21.05 Q28.7 23.85 28.5 27.55 28.4 29.45 29.95 32.9 L30.1 33.2 Q31.9 37.0 34.35 36.85 35.8 36.75 36.9 34.3 L37.3 33.25 38.2 29.55 Q38.45 27.05 37.25 24.95 L35.85 22.15 35.15 20.4 31.0 20.6" fill="#915b58" fill-rule="evenodd" stroke="none"/>
    <path d="M60.3 40.85 L60.4 40.95 58.3 43.6 Q55.95 45.65 52.0 45.65 L44.7 44.95 Q42.05 44.4 40.5 43.6 L40.55 43.5 Q40.7 44.0 46.45 44.6 52.2 45.2 54.6 44.4 L58.05 42.85 59.35 41.85 60.3 40.85 M30.0 43.5 L29.7 43.65 27.05 44.2 24.05 44.6 Q21.3 44.6 18.5 43.45 14.55 41.85 13.05 38.65 L13.55 38.95 Q15.5 40.9 18.4 42.5 21.3 44.1 24.5 43.85 L30.0 43.5" fill="#3f3316" fill-rule="evenodd" stroke="none"/>
    <path d="M31.5 14.0 L32.05 6.45 34.45 6.45 35.15 14.0 Q33.3 13.8 31.5 14.0" fill="url(#gradient0)" fill-rule="evenodd" stroke="none"/>
    <path d="M36.95 42.6 L36.25 43.45 34.3 43.65 Q33.35 43.7 32.65 43.0 L32.5 42.8 31.5 41.35 31.55 41.35 Q31.6 39.6 28.05 34.9 L27.75 34.5 30.0 34.3 Q30.6 35.4 31.4 35.95 32.75 36.9 33.4 37.15 L34.95 37.4 37.35 34.4 38.3 34.6 36.15 37.65 Q37.1 37.9 36.4 39.25 L39.6 34.85 40.7 35.05 Q38.15 39.2 37.5 41.85 L36.9 42.6 36.95 42.6 M31.05 20.05 L31.45 14.8 Q33.35 14.6 35.2 14.85 L35.75 21.0 35.5 20.5 35.55 20.5 35.45 20.4 35.2 19.65 Q33.15 19.15 31.05 20.05 M33.95 42.85 L33.75 38.15 Q32.2 39.25 30.65 37.55 32.1 41.05 33.95 42.85" fill="#e5908c" fill-rule="evenodd" stroke="none"/>
    <path d="M31.0 20.6 L35.15 20.4 35.85 22.15 37.25 24.95 Q38.45 27.05 38.2 29.55 L37.3 33.25 36.9 34.3 Q35.8 36.75 34.35 36.85 31.9 37.0 30.1 33.2 L29.95 32.9 Q28.4 29.45 28.5 27.55 28.7 23.85 30.4 21.05 L30.6 20.75 31.0 20.6" fill="url(#gradient1)" fill-rule="evenodd" stroke="none"/>
    <path d="M38.3 34.6 L39.6 34.85 36.4 39.25 Q37.1 37.9 36.15 37.65 L38.3 34.6 M33.95 42.85 Q32.1 41.05 30.65 37.55 32.2 39.25 33.75 38.15 L33.95 42.85" fill="#f79b97" fill-rule="evenodd" stroke="none"/>
    <path d="M31.45 14.8 L31.5 14.0 M35.15 14.0 L35.2 14.85 M31.0 20.6 L31.05 20.05" fill="none" stroke="#31393d" stroke-linecap="round" stroke-linejoin="round" stroke-width="0.05"/>
  </g>
  <defs>
    <radialGradient cx="0" cy="0" gradientTransform="matrix(0.0683, -0.0033, 0.0012, 0.0244, 31.7, 1.6)" gradientUnits="userSpaceOnUse" id="gradient0" r="819.2" spreadMethod="repeat">
      <stop offset="0.43137254901960786" stop-color="#ddd9c0"/>
      <stop offset="0.6901960784313725" stop-color="#e5908c"/>
    </radialGradient>
    <radialGradient cx="0" cy="0" gradientTransform="matrix(0.0071, -3.0E-4, 8.0E-4, 0.016, 32.9, 25.25)" gradientUnits="userSpaceOnUse" id="gradient1" r="819.2" spreadMethod="repeat">
      <stop offset="0.26666666666666666" stop-color="#6b4342"/>
      <stop offset="0.5529411764705883" stop-color="#875552"/>
      <stop offset="0.7803921568627451" stop-color="#915b58"/>
      <stop offset="1.0" stop-color="#e5908c"/>
    </radialGradient>
  </defs>
</svg>
