<?xml version="1.0" encoding="UTF-8" standalone="no"?>
<svg xmlns:xlink="http://www.w3.org/1999/xlink" height="43.85px" width="38.05px" xmlns="http://www.w3.org/2000/svg">
  <g transform="matrix(1.0, 0.0, 0.0, 1.0, 3.45, 4.35)">
    <path d="M12.8 0.75 Q16.8 -0.3 21.6 -0.2 26.4 -0.1 28.05 3.95 29.65 7.95 29.65 13.35 29.65 17.7 29.1 25.2 L28.95 27.1 28.8 28.9 28.85 28.9 27.95 30.05 Q28.2 27.15 27.75 24.1 28.5 9.6 23.4 5.05 19.5 1.7 13.75 0.9 L12.8 0.75" fill="#cbc7b0" fill-rule="evenodd" stroke="none"/>
    <path d="M29.95 17.0 Q30.0 11.0 29.4 7.3 28.8 3.55 27.0 1.55 25.2 -0.45 20.05 -0.6 L14.0 0.1 Q15.95 -2.25 21.0 -4.35 30.95 -4.25 34.0 4.55 35.4 15.45 33.5 22.8 32.9 19.55 29.95 17.0 M11.4 1.65 L11.85 1.3 12.8 0.75 13.75 0.9 Q19.5 1.7 23.4 5.05 28.5 9.6 27.75 24.1 28.2 27.15 27.95 30.05 L23.1 35.9 20.9 36.7 22.6 30.05 Q24.05 15.0 22.3 16.3 19.25 27.2 19.3 37.25 L16.7 38.1 Q16.55 28.7 20.4 11.95 L20.25 11.65 19.7 12.05 19.7 12.1 9.5 11.6 9.55 11.15 9.15 11.15 11.4 1.65" fill="#ddd9c0" fill-rule="evenodd" stroke="none"/>
    <path d="M20.9 36.7 L19.3 37.25 Q19.25 27.2 22.3 16.3 24.05 15.0 22.6 30.05 L20.9 36.7" fill="#e8e4cc" fill-rule="evenodd" stroke="none"/>
    <path d="M16.7 38.1 L16.25 38.25 Q16.5 29.1 19.7 12.1 L19.7 12.05 20.25 11.65 20.4 11.95 Q16.55 28.7 16.7 38.1 M13.05 39.35 L12.6 39.5 12.4 38.4 11.35 34.75 Q10.3 32.45 8.2 31.2 L5.6 29.5 5.0 28.55 Q7.55 30.3 8.25 30.2 9.8 28.05 12.4 17.1 L12.75 16.8 8.85 30.65 10.75 32.9 12.3 35.1 12.9 37.0 Q13.6 35.1 14.35 27.1 15.1 18.85 15.35 18.3 15.6 21.75 13.05 39.35 M1.4 23.5 L0.95 22.75 1.55 22.55 Q4.7 21.65 6.75 18.15 8.7 14.65 9.15 11.15 L9.5 11.6 Q9.05 14.6 7.1 18.1 4.65 22.35 1.95 23.25 L1.4 23.5 M9.8 17.0 L10.2 16.95 Q10.1 18.8 8.55 21.95 7.2 24.75 5.75 26.65 5.75 26.3 7.75 22.15 L9.8 17.0" fill="#915b58" fill-rule="evenodd" stroke="none"/>
    <path d="M16.25 38.25 L15.2 38.65 Q15.9 30.3 15.6 20.5 L14.0 39.05 13.05 39.35 Q15.6 21.75 15.35 18.3 15.1 18.85 14.35 27.1 13.6 35.1 12.9 37.0 L12.3 35.1 10.75 32.9 8.85 30.65 12.75 16.8 12.4 17.1 Q9.8 28.05 8.25 30.2 7.55 30.3 5.0 28.55 L1.4 23.5 1.95 23.25 Q4.65 22.35 7.1 18.1 9.05 14.6 9.5 11.6 L19.7 12.1 Q16.5 29.1 16.25 38.25 M9.8 17.0 L7.75 22.15 Q5.75 26.3 5.75 26.65 7.2 24.75 8.55 21.95 10.1 18.8 10.2 16.95 L9.8 17.0 M9.6 22.65 Q7.6 27.65 5.8 28.1 L7.55 28.95 9.6 22.65 M12.15 33.15 Q11.45 27.35 12.35 24.1 11.2 25.5 10.1 30.0 11.15 30.75 12.15 33.15" fill="#e5908c" fill-rule="evenodd" stroke="none"/>
    <path d="M15.2 38.65 L14.0 39.05 15.6 20.5 Q15.9 30.3 15.2 38.65 M9.6 22.65 L7.55 28.95 5.8 28.1 Q7.6 27.65 9.6 22.65 M12.15 33.15 Q11.15 30.75 10.1 30.0 11.2 25.5 12.35 24.1 11.45 27.35 12.15 33.15" fill="#f79b97" fill-rule="evenodd" stroke="none"/>
    <path d="M0.6 14.25 Q4.25 11.6 7.0 8.1 L11.4 1.65 9.15 11.15 Q8.7 14.65 6.75 18.15 4.7 21.65 1.55 22.55 L0.95 22.75 -3.45 16.6 0.6 14.25" fill="url(#gradient0)" fill-rule="evenodd" stroke="none"/>
    <path d="M12.6 39.5 L5.6 29.5 8.2 31.2 Q10.3 32.45 11.35 34.75 L12.4 38.4 12.6 39.5" fill="url(#gradient1)" fill-rule="evenodd" stroke="none"/>
    <path d="M29.95 17.0 L29.55 21.0 29.1 25.2 Q29.65 17.7 29.65 13.35 29.65 7.95 28.05 3.95 26.4 -0.1 21.6 -0.2 16.8 -0.3 12.8 0.75 L11.85 1.3 11.4 1.65 7.0 8.1 Q4.25 11.6 0.6 14.25 6.7 8.45 9.1 4.25 11.15 0.7 14.0 0.1 L20.05 -0.6 Q25.2 -0.45 27.0 1.55 28.8 3.55 29.4 7.3 30.0 11.0 29.95 17.0" fill="#3f3316" fill-rule="evenodd" stroke="none"/>
  </g>
  <defs>
    <radialGradient cx="0" cy="0" gradientTransform="matrix(0.0575, -0.0371, 0.0132, 0.0205, -8.25, 13.75)" gradientUnits="userSpaceOnUse" id="gradient0" r="819.2" spreadMethod="repeat">
      <stop offset="0.43137254901960786" stop-color="#ddd9c0"/>
      <stop offset="0.6901960784313725" stop-color="#e5908c"/>
    </radialGradient>
    <radialGradient cx="0" cy="0" gradientTransform="matrix(0.006, -0.0038, 0.0087, 0.0135, 4.6, 33.6)" gradientUnits="userSpaceOnUse" id="gradient1" r="819.2" spreadMethod="repeat">
      <stop offset="0.26666666666666666" stop-color="#6b4342"/>
      <stop offset="0.5529411764705883" stop-color="#875552"/>
      <stop offset="0.7803921568627451" stop-color="#915b58"/>
      <stop offset="1.0" stop-color="#e5908c"/>
    </radialGradient>
  </defs>
</svg>
