<?xml version="1.0" encoding="UTF-8" standalone="no"?>
<svg xmlns:xlink="http://www.w3.org/1999/xlink" height="28.8px" width="37.8px" xmlns="http://www.w3.org/2000/svg">
  <g transform="matrix(1.0, 0.0, 0.0, 1.0, 1.85, 2.6)">
    <path d="M27.1 4.15 L27.45 4.9 26.4 5.75 26.35 5.75 Q23.65 8.05 20.15 9.2 16.0 10.6 11.45 10.25 L11.15 10.15 11.05 9.75 15.25 9.75 18.9 9.4 Q20.3 9.0 22.35 7.85 L25.5 5.5 25.9 5.15 26.0 5.05 27.1 4.15 M29.7 9.65 L29.95 10.15 29.65 10.45 29.65 10.85 Q29.55 14.1 31.25 17.4 32.1 19.1 35.2 21.35 L35.45 21.5 35.95 22.5 33.9 21.0 31.35 18.95 Q30.25 18.55 24.3 17.7 19.8 17.05 18.8 16.15 L19.7 16.55 25.45 17.75 30.8 18.1 29.5 14.7 Q24.8 13.6 23.15 13.75 L22.0 13.55 29.35 13.85 Q29.6 13.0 29.05 11.75 L22.1 10.5 23.05 10.35 23.35 10.3 29.0 10.9 29.55 9.8 29.7 9.65 M34.1 23.85 L33.75 24.05 30.55 22.85 Q22.85 20.15 10.75 17.65 10.7 17.15 11.15 17.0 26.15 20.6 34.1 23.85" fill="#915b58" fill-rule="evenodd" stroke="none"/>
    <path d="M27.45 4.9 L29.7 9.65 29.55 9.8 29.0 10.9 23.35 10.3 23.05 10.35 22.1 10.5 29.05 11.75 Q29.6 13.0 29.35 13.85 L22.0 13.55 23.15 13.75 Q24.8 13.6 29.5 14.7 L30.8 18.1 25.45 17.75 19.7 16.55 18.8 16.15 Q19.8 17.05 24.3 17.7 30.25 18.55 31.35 18.95 L33.9 21.0 35.95 22.5 34.1 23.85 Q26.15 20.6 11.15 17.0 L11.15 16.5 11.2 16.25 Q12.05 11.75 11.45 10.25 16.0 10.6 20.15 9.2 23.65 8.05 26.35 5.75 L26.4 5.75 27.45 4.9 M27.65 11.95 L23.05 11.65 27.45 12.45 27.65 11.95 M28.8 14.85 L22.15 15.05 Q26.05 16.55 29.35 17.1 28.15 15.35 28.8 14.85 M33.65 22.25 L29.75 20.1 Q28.0 20.0 29.95 21.4 L33.65 22.25" fill="#e5908c" fill-rule="evenodd" stroke="none"/>
    <path d="M28.8 14.85 Q28.15 15.35 29.35 17.1 26.05 16.55 22.15 15.05 L28.8 14.85 M27.65 11.95 L27.45 12.45 23.05 11.65 27.65 11.95 M33.65 22.25 L29.95 21.4 Q28.0 20.0 29.75 20.1 L33.65 22.25" fill="#d78783" fill-rule="evenodd" stroke="none"/>
    <path d="M33.75 24.05 L30.7 26.2 Q28.6 25.15 25.5 24.3 L25.3 24.25 23.9 23.9 8.4 17.15 10.55 9.55 11.0 9.7 11.05 9.75 11.15 10.15 11.45 10.25 Q12.05 11.75 11.2 16.25 L11.15 16.5 11.15 17.0 Q10.7 17.15 10.75 17.65 22.85 20.15 30.55 22.85 L33.75 24.05" fill="#cbc7b0" fill-rule="evenodd" stroke="none"/>
    <path d="M21.1 26.1 L19.3 25.95 16.15 25.95 10.85 25.7 Q7.1 25.35 4.55 24.0 1.95 22.6 0.3 20.6 -1.4 18.55 -1.55 14.85 -1.7 11.15 -0.2 8.7 1.25 6.25 2.2 6.7 L10.55 9.55 8.4 17.15 23.9 23.9 25.3 24.25 21.5 26.15 21.1 26.1" fill="#ddd9c0" fill-rule="evenodd" stroke="none"/>
    <path d="M2.2 6.7 Q10.05 5.0 12.85 3.7 L20.15 -0.45 23.75 -2.6 27.1 4.15 26.0 5.05 25.9 5.15 25.5 5.5 22.35 7.85 Q20.3 9.0 18.9 9.4 L15.25 9.75 11.05 9.75 11.0 9.7 10.55 9.55 2.2 6.7" fill="url(#gradient0)" fill-rule="evenodd" stroke="none"/>
    <path d="M29.95 10.15 L35.45 21.5 35.2 21.35 Q32.1 19.1 31.25 17.4 29.55 14.1 29.65 10.85 L29.65 10.45 29.95 10.15" fill="url(#gradient1)" fill-rule="evenodd" stroke="none"/>
    <path d="M21.1 26.1 L8.45 25.6 Q-1.85 23.35 -1.85 14.6 -1.85 10.25 0.05 7.5 0.6 6.75 1.2 6.35 L2.95 6.15 Q4.25 6.2 9.5 4.4 14.7 2.6 20.0 -0.5 L20.15 -0.45 12.85 3.7 Q10.05 5.0 2.2 6.7 1.25 6.25 -0.2 8.7 -1.7 11.15 -1.55 14.85 -1.4 18.55 0.3 20.6 1.95 22.6 4.55 24.0 7.1 25.35 10.85 25.7 L16.15 25.95 19.3 25.95 21.1 26.1" fill="#3f3316" fill-rule="evenodd" stroke="none"/>
    <path d="M27.45 4.9 L29.7 9.65" fill="none" stroke="#31393d" stroke-linecap="round" stroke-linejoin="round" stroke-width="0.05"/>
  </g>
  <defs>
    <radialGradient cx="0" cy="0" gradientTransform="matrix(0.0575, -0.0371, 0.0132, 0.0205, 21.05, -6.65)" gradientUnits="userSpaceOnUse" id="gradient0" r="819.2" spreadMethod="repeat">
      <stop offset="0.43137254901960786" stop-color="#ddd9c0"/>
      <stop offset="0.6901960784313725" stop-color="#e5908c"/>
    </radialGradient>
    <radialGradient cx="0" cy="0" gradientTransform="matrix(0.006, -0.0038, 0.0087, 0.0135, 33.9, 13.2)" gradientUnits="userSpaceOnUse" id="gradient1" r="819.2" spreadMethod="repeat">
      <stop offset="0.26666666666666666" stop-color="#6b4342"/>
      <stop offset="0.5529411764705883" stop-color="#875552"/>
      <stop offset="0.7803921568627451" stop-color="#915b58"/>
      <stop offset="1.0" stop-color="#e5908c"/>
    </radialGradient>
  </defs>
</svg>
