<?xml version="1.0" encoding="UTF-8" standalone="no"?>
<svg xmlns:xlink="http://www.w3.org/1999/xlink" height="33.7px" width="7.35px" xmlns="http://www.w3.org/2000/svg">
  <g transform="matrix(1.0, 0.0, 0.0, 1.0, -67.25, -171.65)">
    <path d="M70.0 179.3 L69.75 179.0 70.2 176.8 70.2 174.55 Q70.2 172.55 71.1 171.65 72.15 172.75 72.05 173.35 L71.75 174.15 72.6 175.7 74.25 179.3 70.0 179.3" fill="url(#gradient0)" fill-rule="evenodd" stroke="none"/>
    <path d="M74.25 179.3 L74.0 180.0 73.55 180.45 74.05 181.8 Q74.6 183.05 74.6 184.15 74.6 185.6 74.15 186.65 73.65 187.65 73.65 189.15 73.65 190.55 74.05 191.9 L74.45 193.7 Q74.45 195.5 73.45 195.75 L73.55 197.85 73.85 201.15 73.85 201.5 73.9 201.85 74.25 204.0 74.05 204.55 Q73.85 204.75 73.65 204.75 L73.35 204.75 72.75 205.35 Q71.75 205.35 71.5 204.75 L71.45 203.95 72.25 199.35 72.0 197.15 Q72.0 195.9 72.25 195.75 L72.25 195.6 71.9 195.2 71.9 194.4 72.05 191.65 72.0 191.15 72.0 183.5 Q71.45 182.7 71.45 181.65 L71.55 180.65 71.4 180.65 70.95 180.55 70.95 180.6 70.95 181.3 70.45 184.1 69.9 186.15 69.85 186.35 69.9 186.7 69.85 187.0 69.9 188.1 69.9 189.35 Q69.75 190.35 69.15 190.35 68.8 190.35 68.5 189.15 L68.25 187.9 68.25 187.55 Q67.25 187.4 67.25 186.65 L68.15 185.95 68.45 185.7 Q68.45 184.95 69.0 184.9 L69.0 184.7 69.3 182.6 69.5 181.85 69.2 182.15 69.05 182.15 68.95 182.25 69.0 182.95 69.0 183.8 Q68.95 184.35 68.4 184.35 L68.25 184.35 68.1 184.35 Q67.55 184.35 67.4 184.0 L67.4 183.6 67.45 183.3 67.4 182.65 67.4 182.5 Q67.25 182.2 67.25 181.7 67.25 180.95 67.9 180.85 L68.3 180.95 68.65 180.65 68.8 180.5 69.8 179.45 70.0 179.3 74.25 179.3" fill="#fff9ee" fill-opacity="0.8" fill-rule="evenodd" stroke="none"/>
  </g>
  <defs>
    <linearGradient gradientTransform="matrix(0.0, -0.0027, 0.0047, 0.0, 72.0, 175.45)" gradientUnits="userSpaceOnUse" id="gradient0" spreadMethod="pad" x1="-819.2" x2="819.2">
      <stop offset="0.0" stop-color="#fff9ee" stop-opacity="0.8"/>
      <stop offset="1.0" stop-color="#fff9ee" stop-opacity="0.0"/>
    </linearGradient>
  </defs>
</svg>
