<?xml version="1.0" encoding="UTF-8" standalone="no"?>
<svg xmlns:xlink="http://www.w3.org/1999/xlink" height="47.4px" width="29.1px" xmlns="http://www.w3.org/2000/svg">
  <g transform="matrix(1.0, 0.0, 0.0, 1.0, -56.1, -157.95)">
    <path d="M69.85 178.6 L70.2 176.8 70.2 174.55 Q70.2 172.55 71.1 171.65 72.15 172.75 72.05 173.35 L71.75 174.15 72.6 175.7 74.15 178.95 74.25 179.2 74.25 179.3 70.0 179.3 69.8 179.05 69.85 178.6" fill="url(#gradient0)" fill-rule="evenodd" stroke="none"/>
    <path d="M73.85 180.25 L73.55 180.45 74.1 181.8 Q74.6 183.2 74.6 184.15 L74.15 186.65 Q73.65 188.65 73.65 189.15 L74.05 191.35 74.45 193.55 73.95 194.65 Q73.45 195.25 73.45 195.75 L74.25 203.9 Q74.25 205.05 72.6 205.35 L71.7 205.2 Q71.45 204.95 71.45 203.95 L71.85 201.6 72.25 199.35 72.25 197.45 Q72.6 182.4 71.55 180.65 L70.95 180.55 Q69.1 182.15 68.7 184.35 68.65 193.2 67.25 186.65 65.75 187.0 66.55 184.55 67.25 182.7 67.25 181.7 67.25 181.0 67.4 180.95 L68.3 180.95 68.9 180.35 70.0 179.3 74.25 179.3 74.25 179.55 73.85 180.25 M65.55 181.5 L65.55 181.6 65.5 182.95 Q64.85 182.9 63.75 183.6 61.05 185.4 61.05 187.35 L61.1 187.75 60.65 187.95 60.3 187.9 60.35 188.45 60.35 188.6 60.3 189.45 Q60.15 190.1 59.55 190.1 59.0 190.1 58.95 189.5 L58.95 188.85 Q58.95 187.45 59.55 187.35 L59.65 187.35 59.9 187.4 Q59.9 186.75 60.55 186.4 60.75 186.0 61.3 185.85 L61.45 185.85 62.1 184.45 62.65 183.45 63.25 182.65 Q63.7 182.2 63.85 182.75 L64.15 182.5 Q64.25 181.5 64.85 180.65 65.55 179.6 65.55 181.5 M62.15 180.15 L62.1 180.3 61.7 180.15 Q61.4 179.9 61.35 179.15 L61.35 178.85 61.35 178.7 61.3 178.6 61.1 178.05 61.3 177.6 61.4 177.5 61.55 176.75 61.65 175.35 Q61.1 175.1 60.3 173.4 L60.35 173.0 60.55 172.7 Q60.8 172.5 61.35 173.0 62.15 173.7 62.35 174.3 62.6 174.3 63.15 174.8 64.35 176.0 64.35 176.5 64.35 177.15 63.75 177.15 63.3 177.15 62.9 176.8 L62.55 178.35 62.45 178.9 62.15 180.15" fill="#fff9ee" fill-opacity="0.8" fill-rule="evenodd" stroke="none"/>
    <path d="M58.8 158.5 L58.9 158.15 58.75 158.05 59.3 157.95 Q60.3 157.95 61.65 159.2 62.8 160.3 64.75 159.85 L65.2 159.75 Q65.4 159.75 65.4 160.35 65.4 161.65 63.4 161.45 61.1 161.2 58.8 158.5 M69.5 166.05 Q68.75 165.55 68.35 165.05 67.65 164.15 67.65 162.25 L67.75 161.5 67.95 161.45 69.35 162.9 Q70.45 164.6 69.5 166.05 M60.55 172.7 L60.45 172.5 60.6 171.9 61.05 171.65 Q61.95 172.5 66.05 178.45 L66.15 178.1 64.75 176.0 Q63.6 174.6 63.6 174.3 63.6 174.1 63.95 173.9 64.25 173.75 63.95 172.6 63.9 171.55 64.5 171.05 65.1 170.55 66.15 170.75 L65.5 169.05 64.8 167.65 65.1 166.25 Q65.1 165.6 65.55 165.55 L66.45 165.75 Q66.0 165.05 66.1 164.6 L66.25 164.4 67.3 164.8 Q67.95 165.2 67.4 166.25 L68.2 167.1 69.0 168.25 68.1 168.4 67.1 168.35 66.65 168.35 Q67.4 169.55 67.4 170.7 L67.1 171.35 Q66.15 171.7 65.25 172.3 65.25 172.7 69.85 178.6 L69.8 179.05 68.65 179.1 67.35 178.65 Q66.5 180.5 66.35 181.25 L66.35 181.45 65.75 181.5 65.55 181.5 Q65.55 179.6 64.85 180.65 64.25 181.5 64.15 182.5 L63.85 182.75 Q63.7 182.2 63.25 182.65 L63.35 181.65 63.3 180.1 62.15 180.15 62.45 178.9 62.55 178.35 62.9 176.8 Q63.3 177.15 63.75 177.15 64.35 177.15 64.35 176.5 64.35 176.0 63.15 174.8 62.6 174.3 62.35 174.3 62.15 173.7 61.35 173.0 60.8 172.5 60.55 172.7 M74.15 178.95 L75.05 178.25 76.25 177.45 Q75.65 176.65 75.8 174.55 L76.1 172.3 75.65 170.1 Q75.15 168.4 75.15 167.9 75.2 166.8 75.7 165.7 76.65 163.5 78.7 163.05 L78.9 163.75 77.85 165.5 76.8 167.05 Q76.9 167.3 78.5 168.35 79.85 169.25 79.55 170.4 L82.3 168.45 81.7 168.3 Q81.45 168.1 81.45 167.4 81.45 166.1 82.55 165.55 83.15 165.25 83.75 165.25 L84.6 165.3 85.0 165.5 85.2 166.75 84.25 167.75 Q83.6 168.35 83.6 168.75 L81.65 170.55 Q79.5 172.3 78.9 174.25 79.6 173.65 80.15 173.55 80.55 174.05 80.1 175.15 L80.85 174.0 Q81.4 173.25 82.45 172.75 L82.6 172.75 82.7 173.5 Q82.7 174.15 82.15 174.95 81.5 175.9 81.2 177.45 80.45 181.35 79.55 181.8 78.85 180.05 79.65 178.45 L77.4 181.05 Q75.85 182.4 75.0 182.75 L74.3 181.4 73.85 180.25 74.25 179.55 74.25 179.3 74.25 179.2 74.15 178.95 M61.1 187.75 L61.1 187.85 60.65 188.4 Q61.1 188.45 60.35 188.45 L60.3 187.9 60.65 187.95 61.1 187.75 M59.55 187.35 L59.6 187.05 58.25 187.1 Q57.65 187.1 57.15 186.75 L61.3 184.95 62.1 184.45 61.45 185.85 61.3 185.85 Q60.75 186.0 60.55 186.4 59.9 186.75 59.9 187.4 L59.65 187.35 59.55 187.35 M61.7 180.15 L59.9 179.8 Q59.25 179.4 58.95 178.4 58.65 179.3 58.3 182.3 L57.15 182.7 56.35 182.5 56.1 180.9 57.0 176.15 Q57.9 172.0 58.8 171.1 L59.5 171.0 Q59.75 171.4 59.6 172.5 L60.35 173.0 60.3 173.4 Q61.1 175.1 61.65 175.35 L61.55 176.75 61.4 177.5 61.3 177.6 60.25 175.8 60.2 174.65 Q60.2 174.0 59.8 173.85 L59.4 173.9 59.15 174.5 Q58.85 175.1 58.85 175.7 L59.5 176.85 61.05 178.85 61.35 178.85 61.35 179.15 Q61.4 179.9 61.7 180.15 M65.0 162.7 L64.7 163.3 63.95 163.55 63.2 163.3 Q62.9 163.05 62.9 162.7 62.9 162.35 63.2 162.1 63.5 161.85 63.95 161.85 64.4 161.85 64.7 162.1 L65.0 162.7 M63.7 171.75 L63.5 172.2 Q63.3 172.4 63.05 172.4 L62.6 172.2 62.4 171.75 62.6 171.3 63.05 171.1 Q63.3 171.1 63.5 171.3 L63.7 171.75 M63.05 170.2 L63.05 170.8 62.9 170.9 62.4 171.15 61.95 169.7 Q61.7 169.05 60.5 167.95 L56.6 164.5 56.4 163.85 Q56.35 163.6 56.95 163.6 58.7 163.6 61.0 166.5 63.05 169.15 63.05 170.2 M78.3 170.3 L78.05 169.3 78.05 172.2 78.25 171.45 78.3 170.3 M78.7 176.8 Q78.2 177.15 78.0 177.7 77.75 179.0 78.45 177.85 L79.35 176.25 78.7 176.8" fill="#fff9ee" fill-opacity="0.3019608" fill-rule="evenodd" stroke="none"/>
  </g>
  <defs>
    <linearGradient gradientTransform="matrix(0.0, -0.0027, 0.0047, 0.0, 72.0, 175.45)" gradientUnits="userSpaceOnUse" id="gradient0" spreadMethod="pad" x1="-819.2" x2="819.2">
      <stop offset="0.0" stop-color="#fff9ee" stop-opacity="0.8"/>
      <stop offset="1.0" stop-color="#fff9ee" stop-opacity="0.0"/>
    </linearGradient>
  </defs>
</svg>
