<?xml version="1.0" encoding="UTF-8" standalone="no"?>
<svg xmlns:xlink="http://www.w3.org/1999/xlink" height="98.4px" width="90.8px" xmlns="http://www.w3.org/2000/svg">
  <g transform="matrix(1.0, 0.0, 0.0, 1.0, 0.6, 0.6)">
    <path d="M44.55 9.7 L44.55 9.8 Q33.3 62.05 54.65 77.65 61.3 82.85 54.95 84.0 L50.9 84.5 Q36.95 79.55 27.1 64.35 14.6 34.35 44.55 9.7" fill="#e8e4cc" fill-rule="evenodd" stroke="none"/>
    <path d="M44.55 9.7 Q14.6 34.35 27.1 64.35 36.95 79.55 50.9 84.5 42.15 86.3 34.1 86.4 20.9 86.1 8.1 81.3 3.7 73.95 1.7 66.85 -0.35 49.3 17.2 19.2 27.0 9.35 42.45 0.0 L44.55 9.7" fill="#e8cc5d" fill-rule="evenodd" stroke="none"/>
    <path d="M50.9 84.5 L54.95 84.0 Q61.3 82.85 54.65 77.65 33.3 62.05 44.55 9.8 56.0 56.55 89.6 80.85 85.15 82.35 80.5 84.2 L76.8 85.7 Q62.45 88.65 50.9 84.5" fill="#ddd9c0" fill-rule="evenodd" stroke="none"/>
    <path d="M76.8 85.7 Q67.0 89.75 56.25 95.3 54.0 96.45 51.65 97.2 L22.6 92.95 Q17.15 90.25 11.3 86.25 L8.1 81.3 Q20.9 86.1 34.1 86.4 42.15 86.3 50.9 84.5 62.45 88.65 76.8 85.7" fill="#e2c05a" fill-rule="evenodd" stroke="none"/>
    <path d="M1.7 66.85 Q-5.35 41.75 17.2 19.2 -0.35 49.3 1.7 66.85" fill="#f2dd6c" fill-rule="evenodd" stroke="none"/>
    <path d="M89.6 80.85 Q85.15 82.35 80.5 84.2 L76.8 85.7 Q67.0 89.75 56.25 95.3 54.0 96.45 51.65 97.2 M22.6 92.95 Q17.15 90.25 11.3 86.25 L8.1 81.3 Q3.7 73.95 1.7 66.85 -5.35 41.75 17.2 19.2 27.0 9.35 42.45 0.0" fill="none" stroke="#3f3316" stroke-linecap="round" stroke-linejoin="round" stroke-width="1.2000000000000002"/>
  </g>
</svg>
