<?xml version="1.0" encoding="UTF-8" standalone="no"?>
<svg xmlns:xlink="http://www.w3.org/1999/xlink" height="70.4px" width="102.7px" xmlns="http://www.w3.org/2000/svg">
  <g transform="matrix(1.0, 0.0, 0.0, 1.0, 0.6, 0.6)">
    <path d="M69.9 43.15 Q81.3 54.75 92.2 63.5 L94.2 65.9 Q95.35 68.1 92.2 68.3 78.3 68.1 57.7 64.4 52.55 63.4 50.35 61.35 47.55 58.7 49.55 54.35 L50.85 51.25 Q53.4 45.65 56.45 42.95 L56.75 42.7 Q62.45 37.9 69.9 43.15" fill="url(#gradient0)" fill-rule="evenodd" stroke="none"/>
    <path d="M94.2 65.9 L92.2 63.5 Q81.3 54.75 69.9 43.15 70.2 36.05 80.1 40.2 L85.25 44.45 Q99.9 57.25 101.5 69.2 L94.2 65.9" fill="url(#gradient1)" fill-rule="evenodd" stroke="none"/>
    <path d="M69.9 43.15 Q62.45 37.9 56.75 42.7 63.7 36.35 68.1 37.9 71.25 35.8 76.15 36.8 L63.3 23.5 66.1 25.5 Q76.65 33.3 85.25 44.45 L80.1 40.2 Q70.2 36.05 69.9 43.15 M50.85 51.25 L49.55 54.35 Q47.55 58.7 50.35 61.35 46.05 61.05 39.65 56.8 L29.7 46.1 25.25 40.95 Q33.5 48.65 41.8 52.8 46.75 55.0 50.85 51.25 M48.65 15.3 Q44.0 13.55 39.15 14.0 L31.85 1.6 40.1 2.0 Q42.15 10.45 48.65 15.3" fill="#dbaf57" fill-rule="evenodd" stroke="none"/>
    <path d="M56.75 42.7 L56.45 42.95 Q53.4 45.65 50.85 51.25 46.75 55.0 41.8 52.8 33.5 48.65 25.25 40.95 L25.2 40.9 Q16.3 30.35 7.65 18.2 5.3 15.65 4.1 8.35 3.3 4.5 0.0 0.0 L31.85 1.6 39.15 14.0 Q44.0 13.55 48.65 15.3 56.4 18.7 63.3 23.5 L76.15 36.8 Q71.25 35.8 68.1 37.9 63.7 36.35 56.75 42.7 M20.05 20.25 Q29.6 36.45 38.5 44.1 42.55 37.5 49.5 35.25 34.05 23.6 20.05 20.25" fill="#ddbc58" fill-rule="evenodd" stroke="none"/>
    <path d="M20.05 20.25 Q34.05 23.6 49.5 35.25 42.55 37.5 38.5 44.1 29.6 36.45 20.05 20.25" fill="#e8cc5d" fill-rule="evenodd" stroke="none"/>
    <path d="M94.2 65.9 L92.2 63.5 Q81.3 54.75 69.9 43.15 62.45 37.9 56.75 42.7 M56.45 42.95 Q53.4 45.65 50.85 51.25 L49.55 54.35 Q47.55 58.7 50.35 61.35 52.55 63.4 57.7 64.4 78.3 68.1 92.2 68.3 95.35 68.1 94.2 65.9 L101.5 69.2 Q99.9 57.25 85.25 44.45 L80.1 40.2 Q70.2 36.05 69.9 43.15 M63.3 23.5 L66.1 25.5 Q76.65 33.3 85.25 44.45 M48.65 15.3 Q56.4 18.7 63.3 23.5 M48.65 15.3 Q42.15 10.45 40.1 2.0 M0.0 0.0 Q3.3 4.5 4.1 8.35 5.3 15.65 7.65 18.2 16.3 30.35 25.2 40.9 M50.35 61.35 Q46.05 61.05 39.65 56.8 L29.7 46.1 25.25 40.95" fill="none" stroke="#3f3316" stroke-linecap="round" stroke-linejoin="round" stroke-width="1.2000000000000002"/>
  </g>
  <defs>
    <radialGradient cx="0" cy="0" gradientTransform="matrix(0.0147, -0.0221, 0.0365, 0.0243, 73.9, 53.05)" gradientUnits="userSpaceOnUse" id="gradient0" r="819.2" spreadMethod="repeat">
      <stop offset="0.43137254901960786" stop-color="#f5f6f9"/>
      <stop offset="0.6274509803921569" stop-color="#d8d9db"/>
      <stop offset="1.0" stop-color="#bfc0c2"/>
    </radialGradient>
    <radialGradient cx="0" cy="0" gradientTransform="matrix(0.0148, -0.0135, 0.0208, 0.0228, 90.9, 47.7)" gradientUnits="userSpaceOnUse" id="gradient1" r="819.2" spreadMethod="repeat">
      <stop offset="0.43137254901960786" stop-color="#f5f6f9"/>
      <stop offset="0.6274509803921569" stop-color="#d8d9db"/>
      <stop offset="1.0" stop-color="#bfc0c2"/>
    </radialGradient>
  </defs>
</svg>
