<?xml version="1.0" encoding="UTF-8" standalone="no"?>
<svg xmlns:xlink="http://www.w3.org/1999/xlink" height="95.0px" width="99.95px" xmlns="http://www.w3.org/2000/svg">
  <g transform="matrix(1.0, 0.0, 0.0, 1.0, 0.6, 0.6)">
    <path d="M73.45 52.2 Q87.5 62.95 96.75 83.3 98.75 88.6 97.95 90.4 77.55 70.7 60.5 59.65 48.05 43.2 53.7 42.4 57.55 43.45 61.15 45.0 67.7 47.8 73.45 52.2" fill="url(#gradient0)" fill-rule="evenodd" stroke="none"/>
    <path d="M97.95 90.4 Q100.4 94.15 95.45 93.75 69.25 89.7 53.9 75.35 45.95 67.85 40.9 57.6 40.2 54.15 40.0 52.1 L39.95 51.75 Q39.6 47.9 41.55 48.85 50.25 53.0 60.5 59.65 77.55 70.7 97.95 90.4" fill="url(#gradient1)" fill-rule="evenodd" stroke="none"/>
    <path d="M43.35 73.95 Q38.55 72.55 35.65 69.8 31.65 61.15 25.7 53.0 L31.7 58.05 Q34.95 59.55 36.8 55.5 36.6 49.75 38.4 45.95 40.35 39.05 44.9 41.6 39.8 32.7 36.55 20.3 34.35 13.25 17.1 8.9 9.35 6.05 8.95 0.0 L19.9 0.9 Q37.65 6.8 49.15 22.85 56.0 31.15 62.8 35.85 70.2 45.3 61.15 45.0 57.55 43.45 53.7 42.4 49.1 40.5 49.35 47.95 46.25 50.35 41.55 48.85 39.6 47.9 39.95 51.75 L40.0 52.1 Q39.55 64.0 44.55 67.8 47.3 70.9 43.35 73.95" fill="#ddbc58" fill-rule="evenodd" stroke="none"/>
    <path d="M53.9 75.35 Q47.8 75.25 43.35 73.95 47.3 70.9 44.55 67.8 39.55 64.0 40.0 52.1 40.2 54.15 40.9 57.6 45.95 67.85 53.9 75.35 M62.8 35.85 Q65.35 37.6 67.9 38.85 72.95 42.95 73.45 52.2 67.7 47.8 61.15 45.0 70.2 45.3 62.8 35.85 M60.5 59.65 Q50.25 53.0 41.55 48.85 46.25 50.35 49.35 47.95 49.1 40.5 53.7 42.4 48.05 43.2 60.5 59.65" fill="#dbaf57" fill-rule="evenodd" stroke="none"/>
    <path d="M25.7 53.0 Q18.7 43.45 8.95 34.55 -0.2 23.2 0.0 14.45 L3.25 21.35 Q7.2 30.05 11.1 31.85 22.95 44.55 12.3 30.2 8.5 26.25 6.7 22.15 4.85 10.9 6.2 2.15 L8.95 0.0 Q9.35 6.05 17.1 8.9 34.35 13.25 36.55 20.3 39.8 32.7 44.9 41.6 40.35 39.05 38.4 45.95 36.6 49.75 36.8 55.5 34.95 59.55 31.7 58.05 L25.7 53.0" fill="#e8cc5d" fill-rule="evenodd" stroke="none"/>
    <path d="M0.0 14.45 Q0.15 7.5 6.2 2.15 4.85 10.9 6.7 22.15 8.5 26.25 12.3 30.2 22.95 44.55 11.1 31.85 7.2 30.05 3.25 21.35 L0.0 14.45" fill="#f2dd6c" fill-rule="evenodd" stroke="none"/>
    <path d="M97.95 90.4 Q100.4 94.15 95.45 93.75 69.25 89.7 53.9 75.35 47.8 75.25 43.35 73.95 38.55 72.55 35.65 69.8 31.65 61.15 25.7 53.0 18.7 43.45 8.95 34.55 -0.2 23.2 0.0 14.45 0.15 7.5 6.2 2.15 L8.95 0.0 M19.9 0.9 Q37.65 6.8 49.15 22.85 56.0 31.15 62.8 35.85 65.35 37.6 67.9 38.85 72.95 42.95 73.45 52.2 87.5 62.95 96.75 83.3 98.75 88.6 97.95 90.4 77.55 70.7 60.5 59.65 50.25 53.0 41.55 48.85 39.6 47.9 39.95 51.75 M40.0 52.1 Q40.2 54.15 40.9 57.6 45.95 67.85 53.9 75.35 M53.7 42.4 Q57.55 43.45 61.15 45.0 67.7 47.8 73.45 52.2 M60.5 59.65 Q48.05 43.2 53.7 42.4" fill="none" stroke="#3f3316" stroke-linecap="round" stroke-linejoin="round" stroke-width="1.2000000000000002"/>
  </g>
  <defs>
    <radialGradient cx="0" cy="0" gradientTransform="matrix(0.0127, -0.0127, 0.037, 0.037, 79.85, 63.05)" gradientUnits="userSpaceOnUse" id="gradient0" r="819.2" spreadMethod="repeat">
      <stop offset="0.43137254901960786" stop-color="#f5f6f9"/>
      <stop offset="0.6274509803921569" stop-color="#d8d9db"/>
      <stop offset="1.0" stop-color="#bfc0c2"/>
    </radialGradient>
    <radialGradient cx="0" cy="0" gradientTransform="matrix(0.0145, -0.02, 0.049, 0.0354, 72.35, 71.3)" gradientUnits="userSpaceOnUse" id="gradient1" r="819.2" spreadMethod="repeat">
      <stop offset="0.43137254901960786" stop-color="#f5f6f9"/>
      <stop offset="0.6274509803921569" stop-color="#d8d9db"/>
      <stop offset="1.0" stop-color="#bfc0c2"/>
    </radialGradient>
  </defs>
</svg>
