<?xml version="1.0" encoding="UTF-8" standalone="no"?>
<svg xmlns:xlink="http://www.w3.org/1999/xlink" height="111.5px" width="93.0px" xmlns="http://www.w3.org/2000/svg">
  <g transform="matrix(1.0, 0.0, 0.0, 1.0, 0.6, 0.6)">
    <path d="M48.0 14.0 L56.2 6.1 57.8 5.05 Q76.05 -6.9 91.8 9.35 92.5 30.6 71.8 47.7 61.3 57.55 53.95 72.25 45.4 81.6 44.35 73.85 44.8 62.45 37.3 57.75 34.65 55.0 29.8 58.15 25.8 57.0 24.5 53.45 L24.2 51.05 Q23.3 48.9 22.15 48.6 28.45 44.6 28.95 54.55 34.15 52.75 39.35 54.2 46.0 53.75 52.6 46.95 55.6 38.8 59.85 30.95 62.55 22.05 62.0 15.1 52.7 15.15 48.95 13.8 L48.0 14.0" fill="#ddbc58" fill-rule="evenodd" stroke="none"/>
    <path d="M14.85 57.95 Q12.95 50.65 21.35 39.55 L48.0 14.0 48.95 13.8 Q52.7 15.15 62.0 15.1 62.55 22.05 59.85 30.95 55.6 38.8 52.6 46.95 46.0 53.75 39.35 54.2 34.15 52.75 28.95 54.55 28.45 44.6 22.15 48.6 19.3 47.8 14.85 57.95 M47.5 19.25 Q37.7 30.45 27.35 37.75 33.0 37.5 45.05 27.2 50.9 18.7 47.5 19.25" fill="#e8cc5d" fill-rule="evenodd" stroke="none"/>
    <path d="M34.3 84.75 Q2.0 113.55 0.0 109.9 L0.0 104.5 Q0.85 101.45 2.65 97.05 9.8 79.6 25.5 62.2 L27.75 59.6 29.8 58.15 Q34.65 55.0 37.3 57.75 38.35 58.8 39.05 60.85 41.7 67.0 41.1 78.6 L34.3 84.75" fill="url(#gradient0)" fill-rule="evenodd" stroke="none"/>
    <path d="M53.95 72.25 Q51.9 76.3 50.1 80.7 46.5 85.55 34.3 84.75 L41.1 78.6 Q41.7 67.0 39.05 60.85 38.35 58.8 37.3 57.75 44.8 62.45 44.35 73.85 45.4 81.6 53.95 72.25 M24.5 53.45 Q25.8 57.0 29.8 58.15 L27.75 59.6 25.5 62.2 24.5 53.45" fill="#dbaf57" fill-rule="evenodd" stroke="none"/>
    <path d="M0.0 104.5 Q3.7 72.45 14.85 57.95 19.3 47.8 22.15 48.6 23.3 48.9 24.2 51.05 L24.5 53.45 25.5 62.2 Q9.8 79.6 2.65 97.05 0.85 101.45 0.0 104.5" fill="url(#gradient1)" fill-rule="evenodd" stroke="none"/>
    <path d="M47.5 19.25 Q50.9 18.7 45.05 27.2 33.0 37.5 27.35 37.75 37.7 30.45 47.5 19.25" fill="#f2dd6c" fill-rule="evenodd" stroke="none"/>
    <path d="M48.0 14.0 L56.2 6.1 57.8 5.05 Q76.05 -6.9 91.8 9.35 92.5 30.6 71.8 47.7 61.3 57.55 53.95 72.25 51.9 76.3 50.1 80.7 46.5 85.55 34.3 84.75 2.0 113.55 0.0 109.9 L0.0 104.5 Q3.7 72.45 14.85 57.95 12.95 50.65 21.35 39.55 L48.0 14.0 M22.15 48.6 Q23.3 48.9 24.2 51.05 L24.5 53.45 25.5 62.2 Q9.8 79.6 2.65 97.05 0.85 101.45 0.0 104.5 M29.8 58.15 Q34.65 55.0 37.3 57.75 38.35 58.8 39.05 60.85 41.7 67.0 41.1 78.6 L34.3 84.75 M29.8 58.15 L27.75 59.6 25.5 62.2 M14.85 57.95 Q19.3 47.8 22.15 48.6" fill="none" stroke="#3f3316" stroke-linecap="round" stroke-linejoin="round" stroke-width="1.2000000000000002"/>
  </g>
  <defs>
    <radialGradient cx="0" cy="0" gradientTransform="matrix(0.0207, 0.0158, -0.0375, 0.0492, 16.55, 79.0)" gradientUnits="userSpaceOnUse" id="gradient0" r="819.2" spreadMethod="repeat">
      <stop offset="0.43137254901960786" stop-color="#f5f6f9"/>
      <stop offset="0.6274509803921569" stop-color="#d8d9db"/>
      <stop offset="1.0" stop-color="#bfc0c2"/>
    </radialGradient>
    <radialGradient cx="0" cy="0" gradientTransform="matrix(0.0203, 0.0081, -0.0169, 0.0422, 6.3, 69.95)" gradientUnits="userSpaceOnUse" id="gradient1" r="819.2" spreadMethod="repeat">
      <stop offset="0.43137254901960786" stop-color="#f5f6f9"/>
      <stop offset="0.6274509803921569" stop-color="#d8d9db"/>
      <stop offset="1.0" stop-color="#bfc0c2"/>
    </radialGradient>
  </defs>
</svg>
