<?xml version="1.0" encoding="UTF-8" standalone="no"?>
<svg xmlns:xlink="http://www.w3.org/1999/xlink" height="60.15px" width="64.35px" xmlns="http://www.w3.org/2000/svg">
  <g transform="matrix(1.0, 0.0, 0.0, 1.0, 1.15, -1.7)">
    <path d="M31.4 26.0 Q35.85 20.6 41.2 16.0 50.5 8.0 62.6 2.3 60.75 6.15 57.95 16.0 38.15 33.0 30.75 45.25 34.5 36.8 35.1 30.75 34.85 26.2 31.4 26.0" fill="#d3a954" fill-rule="evenodd" stroke="none"/>
    <path d="M31.4 26.0 Q34.85 26.2 35.1 30.75 34.5 36.8 30.75 45.25 27.9 49.9 26.9 53.85 25.85 58.65 26.75 61.25 L16.25 61.25 Q14.0 59.15 17.1 53.15 20.3 41.75 27.7 29.5 L31.4 26.0" fill="#ddbc58" fill-rule="evenodd" stroke="none"/>
    <path d="M16.25 61.25 L-0.55 61.25 Q2.35 53.9 10.65 47.7 18.6 38.3 27.7 29.5 20.3 41.75 17.1 53.15 14.0 59.15 16.25 61.25" fill="#e8cc5d" fill-rule="evenodd" stroke="none"/>
    <path d="M30.75 45.25 Q38.15 33.0 57.95 16.0 60.75 6.15 62.6 2.3 50.5 8.0 41.2 16.0 35.85 20.6 31.4 26.0 L27.7 29.5 Q18.6 38.3 10.65 47.7 2.35 53.9 -0.55 61.25 M30.75 45.25 Q27.9 49.9 26.9 53.85" fill="none" stroke="#3f3316" stroke-linecap="round" stroke-linejoin="round" stroke-width="1.2000000000000002"/>
    <path d="M26.8 61.2 L26.75 61.3 Q26.65 61.4 26.65 61.25 L26.5 60.95 26.35 60.35 26.25 60.1 26.15 59.55 26.15 59.4 26.1 59.25 26.05 58.9 26.05 58.55 26.0 58.2 26.05 55.45 26.3 53.7 26.3 53.6 Q26.5 53.0 27.05 53.2 27.6 53.4 27.45 53.95 L27.4 54.25 27.15 55.05 26.65 57.9 26.65 58.05 26.6 58.25 26.6 60.05 26.8 61.2" fill="#3f3316" fill-rule="evenodd" stroke="none"/>
  </g>
</svg>
