<?xml version="1.0" encoding="UTF-8" standalone="no"?>
<svg xmlns:xlink="http://www.w3.org/1999/xlink" height="14.65px" width="14.1px" xmlns="http://www.w3.org/2000/svg">
  <g transform="matrix(1.0, 0.0, 0.0, 1.0, 0.0, 0.0)">
    <path d="M14.1 7.65 Q14.1 10.55 12.0 12.6 9.95 14.65 7.05 14.65 4.15 14.65 2.05 12.6 0.0 10.55 0.0 7.65 0.0 4.75 2.05 2.7 4.15 0.65 7.05 0.65 9.95 0.65 12.0 2.7 14.1 4.75 14.1 7.65" fill="#0e1012" fill-rule="evenodd" stroke="none"/>
    <path d="M7.55 7.75 Q6.25 5.25 6.05 3.05 5.8 0.9 6.7 0.3 7.7 -0.45 9.15 0.75 10.7 2.0 11.95 4.55 13.2 6.9 13.3 9.05 13.6 11.25 12.7 12.05 11.9 12.6 10.25 11.35 8.75 10.3 7.55 7.75" fill="url(#gradient0)" fill-rule="evenodd" stroke="none"/>
  </g>
  <defs>
    <radialGradient cx="0" cy="0" gradientTransform="matrix(-0.0031, 0.0022, 0.0034, 0.0067, 9.7, 6.1)" gradientUnits="userSpaceOnUse" id="gradient0" r="819.2" spreadMethod="pad">
      <stop offset="0.0" stop-color="#ffffff"/>
      <stop offset="0.6862745098039216" stop-color="#ffffff"/>
      <stop offset="1.0" stop-color="#ffffff" stop-opacity="0.0"/>
    </radialGradient>
  </defs>
</svg>
