<?xml version="1.0" encoding="UTF-8" standalone="no"?>
<svg xmlns:xlink="http://www.w3.org/1999/xlink" height="57.3px" width="70.6px" xmlns="http://www.w3.org/2000/svg">
  <g transform="matrix(1.0, 0.0, 0.0, 1.0, 0.45, 0.0)">
    <path d="M14.1 22.6 Q20.45 25.9 28.1 29.1 52.05 44.55 49.8 49.3 35.15 51.05 18.25 43.7 11.9 39.55 5.9 33.6 31.2 40.9 14.1 22.6" fill="url(#gradient0)" fill-rule="evenodd" stroke="none"/>
    <path d="M0.35 14.25 Q6.25 18.5 14.1 22.6 31.2 40.9 5.9 33.6 L0.4 27.65 -0.45 17.75 0.35 14.25" fill="#918f7e" fill-rule="evenodd" stroke="none"/>
    <path d="M11.25 2.55 Q20.85 12.55 42.85 26.55 L49.35 30.6 Q64.35 41.1 69.55 56.7 64.4 54.25 60.3 53.3 L49.8 49.3 Q52.05 44.55 28.1 29.1 20.45 25.9 14.1 22.6 6.25 18.5 0.35 14.25 3.45 2.25 9.5 0.0 L11.25 2.55" fill="#ddbc58" fill-rule="evenodd" stroke="none"/>
    <path d="M49.8 49.3 L60.3 53.3 Q36.55 53.75 18.25 43.7 35.15 51.05 49.8 49.3" fill="#d3a954" fill-rule="evenodd" stroke="none"/>
    <path d="M60.3 53.3 Q64.4 54.25 69.55 56.7 64.35 41.1 49.35 30.6 L42.85 26.55 Q20.85 12.55 11.25 2.55 M18.25 43.7 Q11.9 39.55 5.9 33.6 L0.4 27.65" fill="none" stroke="#3f3316" stroke-linecap="round" stroke-linejoin="round" stroke-width="1.2000000000000002"/>
    <path d="M0.35 14.25 Q6.25 18.5 14.1 22.6 20.45 25.9 28.1 29.1 52.05 44.55 49.8 49.3 35.15 51.05 18.25 43.7 36.55 53.75 60.3 53.3 Z" fill="none" stroke="#3f3316" stroke-linecap="round" stroke-linejoin="miter-clip" stroke-miterlimit="3.0" stroke-width="1.0"/>
  </g>
  <defs>
    <radialGradient cx="0" cy="0" gradientTransform="matrix(0.0121, -0.0209, 0.0602, 0.0349, 2.2, 23.0)" gradientUnits="userSpaceOnUse" id="gradient0" r="819.2" spreadMethod="repeat">
      <stop offset="0.0" stop-color="#9a9886"/>
      <stop offset="0.43137254901960786" stop-color="#a3a18e"/>
      <stop offset="0.6196078431372549" stop-color="#b8b5a0"/>
    </radialGradient>
  </defs>
</svg>
