<?xml version="1.0" encoding="UTF-8" standalone="no"?>
<svg xmlns:xlink="http://www.w3.org/1999/xlink" height="56.35px" width="60.05px" xmlns="http://www.w3.org/2000/svg">
  <g transform="matrix(1.0, 0.0, 0.0, 1.0, 0.6, 0.6)">
    <path d="M0.65 53.75 Q3.4 47.75 7.05 42.2 19.95 32.55 31.15 17.15 37.05 11.75 42.25 4.85 43.75 10.45 43.25 14.9 41.95 19.2 24.05 32.6 L15.95 38.1 2.1 50.85 0.65 53.75" fill="#e8cc5d" fill-rule="evenodd" stroke="none"/>
    <path d="M58.85 27.6 Q52.6 33.7 43.75 38.35 L33.0 43.05 14.25 45.85 13.95 45.85 Q16.1 40.5 31.3 30.35 L41.55 23.05 Q34.5 35.0 58.85 27.6" fill="url(#gradient0)" fill-rule="evenodd" stroke="none"/>
    <path d="M54.5 11.15 Q57.8 16.8 58.85 27.6 34.5 35.0 41.55 23.05 49.45 16.85 54.5 11.15" fill="#918f7e" fill-rule="evenodd" stroke="none"/>
    <path d="M42.25 4.85 L45.7 0.0 Q50.3 3.85 54.5 11.15 49.45 16.85 41.55 23.05 L31.3 30.35 Q16.1 40.5 13.95 45.85 L14.25 45.85 2.1 50.85 15.95 38.1 24.05 32.6 Q41.95 19.2 43.25 14.9 43.75 10.45 42.25 4.85" fill="#ddbc58" fill-rule="evenodd" stroke="none"/>
    <path d="M33.0 43.05 Q17.5 49.5 0.0 55.15 L0.65 53.75 2.1 50.85 14.25 45.85 33.0 43.05" fill="#d3a954" fill-rule="evenodd" stroke="none"/>
    <path d="M7.05 42.2 Q14.35 31.15 25.1 22.1 L31.15 17.15 Q19.95 32.55 7.05 42.2" fill="#f2dd6c" fill-rule="evenodd" stroke="none"/>
    <path d="M58.85 27.6 Q52.6 33.7 43.75 38.35 L33.0 43.05 Q17.5 49.5 0.0 55.15 L0.65 53.75 Q3.4 47.75 7.05 42.2 14.35 31.15 25.1 22.1 L31.15 17.15 Q37.05 11.75 42.25 4.85 L45.7 0.0" fill="none" stroke="#3f3316" stroke-linecap="round" stroke-linejoin="round" stroke-width="1.2000000000000002"/>
    <path d="M54.5 11.15 Q49.45 16.85 41.55 23.05 L31.3 30.35 Q16.1 40.5 13.95 45.85 L14.25 45.85 33.0 43.05" fill="none" stroke="#3f3316" stroke-linecap="round" stroke-linejoin="miter-clip" stroke-miterlimit="3.0" stroke-width="1.0"/>
  </g>
  <defs>
    <radialGradient cx="0" cy="0" gradientTransform="matrix(-0.016, -0.0202, 0.0518, -0.041, 56.75, 18.6)" gradientUnits="userSpaceOnUse" id="gradient0" r="819.2" spreadMethod="repeat">
      <stop offset="0.0" stop-color="#9a9886"/>
      <stop offset="0.43137254901960786" stop-color="#a3a18e"/>
      <stop offset="0.6196078431372549" stop-color="#b8b5a0"/>
    </radialGradient>
  </defs>
</svg>
