<?xml version="1.0" encoding="UTF-8" standalone="no"?>
<svg xmlns:xlink="http://www.w3.org/1999/xlink" height="23.3px" width="15.3px" xmlns="http://www.w3.org/2000/svg">
  <g transform="matrix(1.0, 0.0, 0.0, 1.0, 0.65, 0.65)">
    <path d="M13.6 16.35 L13.55 16.2 13.6 18.05 13.55 18.0 13.5 20.6 Q11.55 19.1 7.0 12.5 2.45 5.85 0.85 0.5 L5.7 0.8 5.7 0.7 Q9.25 1.05 11.35 5.6 13.45 10.1 13.6 16.35" fill="#d3a954" fill-rule="evenodd" stroke="none"/>
    <path d="M13.6 16.35 L14.65 22.1 14.55 22.65 14.35 22.6 Q12.25 22.45 5.8 12.3 -0.65 2.15 -0.65 0.75 L-0.6 -0.65 0.15 -0.55 5.4 0.5 5.7 0.7 5.7 0.8 0.85 0.5 Q2.45 5.85 7.0 12.5 11.55 19.1 13.5 20.6 L13.55 18.0 13.6 18.05 13.55 16.2 13.6 16.35" fill="#3f3316" fill-rule="evenodd" stroke="none"/>
  </g>
</svg>
