<?xml version="1.0" encoding="UTF-8" standalone="no"?>
<svg xmlns:xlink="http://www.w3.org/1999/xlink" height="13.5px" width="14.85px" xmlns="http://www.w3.org/2000/svg">
  <g transform="matrix(1.0, 0.0, 0.0, 1.0, 0.6, 0.6)">
    <path d="M11.5 3.65 Q12.8 5.2 13.4 7.4 L10.7 7.05 10.3 7.05 8.65 6.95 5.8 7.2 5.0 7.35 1.55 8.25 Q1.2 2.35 11.5 3.65" fill="#915b58" fill-rule="evenodd" stroke="none"/>
    <path d="M10.3 7.05 Q7.25 8.45 6.65 12.9 4.45 10.1 5.0 7.35 L5.8 7.2 8.65 6.95 10.3 7.05" fill="#e8e4cc" fill-rule="evenodd" stroke="none"/>
    <path d="M1.55 8.25 L0.9 8.5 Q-1.85 2.8 4.0 0.0 9.0 0.75 11.5 3.65 1.2 2.35 1.55 8.25" fill="#f5f6f9" fill-rule="evenodd" stroke="none"/>
    <path d="M11.5 3.65 Q12.8 5.2 13.4 7.4 L10.7 7.05 10.3 7.05 8.65 6.95 5.8 7.2 5.0 7.35 1.55 8.25 0.9 8.5 Q-1.85 2.8 4.0 0.0 9.0 0.75 11.5 3.65 Z" fill="none" stroke="#3f3316" stroke-linecap="round" stroke-linejoin="miter-clip" stroke-miterlimit="3.0" stroke-width="1.2000000000000002"/>
  </g>
</svg>
