<?xml version="1.0" encoding="UTF-8" standalone="no"?>
<svg xmlns:xlink="http://www.w3.org/1999/xlink" height="28.2px" width="20.1px" xmlns="http://www.w3.org/2000/svg">
  <g transform="matrix(1.0, 0.0, 0.0, 1.0, 0.0, 0.0)">
    <path d="M19.6 13.65 Q20.85 18.5 18.95 22.7 17.1 26.85 13.2 27.9 9.25 28.95 5.45 26.2 1.8 23.5 0.55 18.65 -0.75 13.75 1.1 9.55 3.05 5.4 7.0 4.35 10.9 3.3 14.6 6.05 18.3 8.75 19.6 13.65" fill="#0e1012" fill-rule="evenodd" stroke="none"/>
    <path d="M13.2 9.15 Q11.65 6.2 11.45 3.6 11.15 1.05 12.2 0.35 13.4 -0.55 15.1 0.9 16.9 2.35 18.4 5.35 19.85 8.15 20.0 10.7 20.35 13.25 19.3 14.2 18.35 14.85 16.4 13.4 14.6 12.15 13.2 9.15" fill="url(#gradient0)" fill-rule="evenodd" stroke="none"/>
    <path d="M4.95 22.8 Q3.8 21.95 3.75 21.35 L3.4 20.05 Q3.1 19.2 3.8 20.4 4.5 21.6 5.65 22.4 6.7 23.05 8.75 23.9 10.65 24.65 8.8 24.3 L6.5 23.8 4.95 22.8" fill="#ffffff" fill-rule="evenodd" stroke="none"/>
  </g>
  <defs>
    <radialGradient cx="0" cy="0" gradientTransform="matrix(-0.0036, 0.0026, 0.004, 0.0079, 15.75, 7.2)" gradientUnits="userSpaceOnUse" id="gradient0" r="819.2" spreadMethod="pad">
      <stop offset="0.0" stop-color="#ffffff"/>
      <stop offset="0.6862745098039216" stop-color="#ffffff"/>
      <stop offset="1.0" stop-color="#ffffff" stop-opacity="0.0"/>
    </radialGradient>
  </defs>
</svg>
