<?xml version="1.0" encoding="UTF-8" standalone="no"?>
<svg xmlns:xlink="http://www.w3.org/1999/xlink" height="98.45px" width="92.2px" xmlns="http://www.w3.org/2000/svg">
  <g transform="matrix(1.0, 0.0, 0.0, 1.0, -46.1, -48.75)">
    <path d="M120.6 95.5 L119.4 95.5 119.2 93.05 Q120.05 93.8 120.6 95.5 M105.3 63.8 Q121.85 74.3 117.25 79.95 105.05 83.6 96.4 94.05 87.7 104.45 85.55 118.75 76.0 139.6 88.25 113.3 100.45 87.0 122.05 86.05 120.15 86.95 118.35 88.1 102.7 97.7 90.85 121.55 88.6 126.1 86.55 131.15 L82.55 140.35 Q79.25 142.3 76.4 142.7 L74.2 142.75 Q68.05 142.35 63.9 134.2 L62.7 131.5 Q63.1 129.7 63.95 127.75 64.75 122.4 65.2 116.3 L65.3 115.35 Q65.75 107.3 65.6 97.75 63.8 82.55 59.5 73.55 59.65 77.15 59.4 79.5 58.3 79.75 57.35 80.7 56.35 74.1 48.9 71.3 L50.9 61.05 49.85 57.75 Q54.95 52.8 60.8 49.35 L105.3 63.8 M55.5 62.6 Q63.2 69.0 67.5 77.45 71.6 85.4 70.45 102.6 L69.5 111.8 Q65.6 130.65 70.2 113.8 74.8 96.9 70.7 75.0 64.35 65.7 55.5 62.6" fill="#e8cc5d" fill-rule="evenodd" stroke="none"/>
    <path d="M120.6 95.5 Q120.05 93.8 119.2 93.05 118.95 90.4 118.35 88.1 120.15 86.95 122.05 86.05 100.45 87.0 88.25 113.3 76.0 139.6 85.55 118.75 87.7 104.45 96.4 94.05 105.05 83.6 117.25 79.95 121.85 74.3 105.3 63.8 L136.35 73.85 Q137.2 76.45 137.7 79.3 135.35 86.65 134.0 93.4 127.0 91.5 120.6 95.5 M55.5 62.6 Q64.35 65.7 70.7 75.0 74.8 96.9 70.2 113.8 65.6 130.65 69.5 111.8 L70.45 102.6 Q71.6 85.4 67.5 77.45 63.2 69.0 55.5 62.6" fill="#ddbc58" fill-rule="evenodd" stroke="none"/>
    <path d="M93.45 120.85 Q95.4 122.45 97.95 122.8 123.65 116.1 121.2 97.7 L120.6 95.5 Q127.0 91.5 134.0 93.4 133.0 98.65 132.55 103.4 129.2 115.5 122.2 120.35 114.4 126.2 109.3 129.2 99.35 136.1 89.6 140.3 84.9 142.0 80.55 144.7 82.05 143.15 82.55 140.35 L86.55 131.15 Q88.6 126.1 90.85 121.55 L93.45 120.85 M63.8 115.25 Q62.75 115.85 60.95 114.8 50.2 100.35 55.5 83.05 56.35 81.6 57.35 80.7 58.3 79.75 59.4 79.5 L59.2 81.05 58.65 82.85 Q54.85 87.5 56.45 96.55 58.7 110.6 63.8 115.25" fill="#ddd9c0" fill-rule="evenodd" stroke="none"/>
    <path d="M119.4 95.5 L120.6 95.5 121.2 97.7 Q123.65 116.1 97.95 122.8 95.4 122.45 93.45 120.85 L102.75 118.35 Q114.35 116.85 119.05 103.35 119.5 99.2 119.4 95.5" fill="#cbc7b0" fill-rule="evenodd" stroke="none"/>
    <path d="M57.35 80.7 Q56.35 81.6 55.5 83.05 50.2 100.35 60.95 114.8 62.75 115.85 63.8 115.25 L65.2 116.3 Q64.75 122.4 63.95 127.75 63.1 129.7 62.7 131.5 L63.9 134.2 Q68.05 142.35 74.2 142.75 L76.4 142.7 Q79.25 142.3 82.55 140.35 82.05 143.15 80.55 144.7 78.9 146.45 76.05 146.6 L74.1 146.5 69.8 145.4 Q62.25 141.8 62.3 134.85 53.45 121.75 47.35 94.3 45.5 81.8 48.9 71.3 56.35 74.1 57.35 80.7 M62.7 131.5 Q62.3 133.25 62.3 134.85 62.3 133.25 62.7 131.5" fill="#e8e4cc" fill-rule="evenodd" stroke="none"/>
    <path d="M119.2 93.05 L119.4 95.5 Q119.5 99.2 119.05 103.35 114.35 116.85 102.75 118.35 L93.45 120.85 90.85 121.55 Q102.7 97.7 118.35 88.1 118.95 90.4 119.2 93.05 M134.0 93.4 Q135.35 86.65 137.7 79.3 137.2 76.45 136.35 73.85 M48.9 71.3 L50.9 61.05 49.85 57.75 Q54.95 52.8 60.8 49.35 M48.9 71.3 Q45.5 81.8 47.35 94.3 53.45 121.75 62.3 134.85 62.3 133.25 62.7 131.5 63.1 129.7 63.95 127.75 64.75 122.4 65.2 116.3 L63.8 115.25 Q58.7 110.6 56.45 96.55 54.85 87.5 58.65 82.85 L59.2 81.05 59.4 79.5 Q59.65 77.15 59.5 73.55 63.8 82.55 65.6 97.75 65.75 107.3 65.3 115.35 L65.2 116.3 M62.3 134.85 Q62.25 141.8 69.8 145.4 L74.1 146.5 76.05 146.6 Q78.9 146.45 80.55 144.7 84.9 142.0 89.6 140.3 99.35 136.1 109.3 129.2 114.4 126.2 122.2 120.35 129.2 115.5 132.55 103.4 133.0 98.65 134.0 93.4" fill="none" stroke="#3f3316" stroke-linecap="round" stroke-linejoin="round" stroke-width="1.2000000000000002"/>
    <path d="M97.95 122.7 L98.0 122.8 97.9 122.85 97.45 122.85 97.1 122.8 96.95 122.8 96.75 122.75 96.3 122.7 94.95 122.3 93.9 121.8 93.75 121.7 93.6 121.65 93.25 121.4 93.05 121.3 92.95 121.2 92.75 120.8 92.95 120.35 Q93.4 119.95 93.8 120.35 L94.2 120.75 94.35 120.85 94.6 121.1 94.95 121.35 96.45 122.2 97.5 122.55 97.6 122.6 97.75 122.6 97.95 122.7 M90.3 121.25 L90.3 121.2 Q90.55 120.65 91.15 120.95 91.6 121.3 91.35 121.8 L86.6 131.15 86.5 131.2 86.45 131.1 90.3 121.25 M80.95 145.1 L80.9 145.15 80.05 145.1 Q79.65 144.7 80.1 144.25 L80.25 144.15 80.3 144.1 80.3 144.05 80.4 144.0 80.6 143.8 80.7 143.65 80.85 143.55 81.3 142.9 81.5 142.5 81.75 142.15 81.9 141.75 82.0 141.55 82.05 141.35 82.2 141.05 82.3 140.75 82.35 140.5 82.45 140.3 82.55 140.25 82.6 140.35 82.6 140.8 82.5 141.5 82.25 142.55 81.65 144.05 81.55 144.25 81.25 144.7 81.1 144.85 81.1 144.9 80.95 145.1 M63.7 114.6 Q64.25 114.4 64.45 115.0 64.65 115.55 64.05 115.75 L63.9 115.8 63.85 115.85 63.65 115.85 63.6 115.9 62.85 115.9 61.95 115.6 61.8 115.5 61.7 115.45 61.1 115.05 61.0 114.95 60.85 114.85 60.85 114.75 Q60.85 114.6 60.95 114.7 L61.0 114.7 61.1 114.75 61.4 114.85 61.9 114.95 62.0 115.0 62.25 115.0 62.4 115.05 62.65 115.05 62.75 115.0 62.95 115.0 63.0 114.95 63.05 114.95 63.15 114.9 63.2 114.9 63.3 114.85 63.4 114.75 63.7 114.6 M55.55 83.1 L55.45 83.1 Q55.25 83.1 55.4 82.95 L55.6 82.5 56.85 80.65 57.05 80.45 57.05 80.4 57.95 79.55 58.7 79.1 59.0 79.0 59.15 78.9 59.25 78.9 59.35 78.85 Q59.95 78.75 60.05 79.4 60.05 79.95 59.5 80.05 L59.45 80.05 59.3 80.1 59.2 80.1 59.1 80.15 58.5 80.35 58.1 80.55 57.95 80.7 57.75 80.8 57.6 80.95 57.55 80.95 57.55 81.0 57.35 81.15 56.05 82.4 55.55 83.1 M55.75 67.55 L55.75 67.4 55.9 67.4 57.75 69.65 58.15 70.2 59.85 73.0 60.0 73.3 60.05 73.35 Q60.25 73.9 59.7 74.15 59.15 74.35 58.95 73.8 L58.95 73.75 58.8 73.5 58.55 72.75 57.8 71.15 57.7 70.85 57.55 70.55 55.75 67.55 M118.7 93.4 Q118.25 92.95 118.75 92.55 L119.6 92.6 119.6 92.65 119.65 92.7 119.75 92.75 120.15 93.3 120.35 93.7 120.7 94.6 120.85 95.35 120.9 95.4 120.9 95.55 121.25 97.45 121.25 97.65 121.2 97.75 121.1 97.7 121.0 97.5 120.35 95.75 120.3 95.65 120.25 95.6 120.25 95.55 119.95 94.9 119.45 94.1 119.3 93.95 119.1 93.7 118.95 93.6 118.85 93.55 118.7 93.4 M126.4 84.0 Q126.5 83.9 126.5 84.05 L126.45 84.15 122.25 86.3 122.2 86.35 122.15 86.35 122.05 86.4 118.95 88.35 118.65 88.6 118.6 88.6 Q118.1 88.95 117.75 88.4 117.5 87.9 118.0 87.55 L121.35 85.9 121.75 85.75 121.85 85.7 121.9 85.7 121.95 85.65 122.15 85.6 126.0 84.1 126.4 84.0" fill="#3f3316" fill-rule="evenodd" stroke="none"/>
  </g>
</svg>
