<?xml version="1.0" encoding="UTF-8" standalone="no"?>
<svg xmlns:xlink="http://www.w3.org/1999/xlink" height="38.8px" width="88.15px" xmlns="http://www.w3.org/2000/svg">
  <g transform="matrix(1.0, 0.0, 0.0, 1.0, 0.6, 0.6)">
    <path d="M28.35 22.6 Q37.05 21.8 41.3 19.15 44.75 17.0 50.0 10.2 L52.1 7.3 Q42.4 17.9 22.7 23.4 L28.35 22.6 M0.0 18.0 Q0.25 15.6 2.8 13.45 43.95 1.5 68.35 4.3 80.55 5.55 86.95 0.0 66.15 28.75 38.75 35.3 L16.7 37.6 15.4 36.45 Q5.9 28.1 0.0 18.0 M18.55 31.0 L18.15 30.95 Q16.95 31.35 16.3 32.3 15.8 32.95 15.8 33.55 15.8 34.7 16.35 35.4 L16.45 35.45 Q16.35 34.3 17.05 32.8 17.8 31.3 18.7 31.15 L18.55 31.0" fill="#ddbc58" fill-rule="evenodd" stroke="none"/>
    <path d="M50.0 10.2 Q45.6 15.15 43.65 16.65 L38.5 19.5 Q35.4 20.95 31.85 21.45 28.25 21.95 28.0 22.5 L28.35 22.6 22.7 23.4 Q42.4 17.9 52.1 7.3 L50.0 10.2 M2.8 13.45 Q12.6 4.95 56.7 0.2 71.95 1.8 86.95 0.0 80.55 5.55 68.35 4.3 43.95 1.5 2.8 13.45" fill="#e8cc5d" fill-rule="evenodd" stroke="none"/>
    <path d="M50.0 10.2 Q44.75 17.0 41.3 19.15 37.05 21.8 28.35 22.6 L28.0 22.5 Q28.25 21.95 31.85 21.45 35.4 20.95 38.5 19.5 L43.65 16.65 Q45.6 15.15 50.0 10.2 M18.55 31.0 L18.7 31.15 Q17.8 31.3 17.05 32.8 16.35 34.3 16.45 35.45 L16.35 35.4 Q15.8 34.7 15.8 33.55 15.8 32.95 16.3 32.3 16.95 31.35 18.15 30.95 L18.55 31.0" fill="#3f3316" fill-rule="evenodd" stroke="none"/>
    <path d="M0.0 18.0 Q0.25 15.6 2.8 13.45 12.6 4.95 56.7 0.2 71.95 1.8 86.95 0.0 66.15 28.75 38.75 35.3 L16.7 37.6" fill="none" stroke="#3f3316" stroke-linecap="round" stroke-linejoin="round" stroke-width="1.2000000000000002"/>
  </g>
</svg>
