<?xml version="1.0" encoding="UTF-8" standalone="no"?>
<svg xmlns:xlink="http://www.w3.org/1999/xlink" height="60.55px" width="63.75px" xmlns="http://www.w3.org/2000/svg">
  <g transform="matrix(1.0, 0.0, 0.0, 1.0, 0.6, 0.6)">
    <path d="M30.3 20.7 L34.95 22.7 Q54.9 31.35 62.55 48.8 51.8 36.45 39.45 27.4 L30.3 20.7 M50.4 54.15 Q45.75 55.45 44.2 59.35 31.5 59.1 8.35 38.15 L4.4 27.9 Q8.85 37.2 21.1 45.65 37.1 56.85 26.35 41.35 L20.85 27.45 23.05 29.7 Q26.05 38.05 30.2 43.5 L32.45 46.1 34.15 47.55 34.9 48.0 35.0 47.9 Q37.85 54.85 50.4 54.15" fill="#ddbc58" fill-rule="evenodd" stroke="none"/>
    <path d="M3.55 25.35 Q-2.6 6.65 1.95 0.0 7.1 5.2 12.45 9.45 L3.2 5.55 Q1.9 11.0 3.55 25.35" fill="#f2dd6c" fill-rule="evenodd" stroke="none"/>
    <path d="M62.55 48.8 L50.4 54.15 Q37.85 54.85 35.0 47.9 31.1 43.45 28.25 38.75 L23.45 30.15 22.9 29.1 22.85 29.2 22.95 29.45 23.05 29.7 20.85 27.45 26.35 41.35 Q37.1 56.85 21.1 45.65 8.85 37.2 4.4 27.9 L3.55 25.35 Q1.9 11.0 3.2 5.55 L12.45 9.45 Q21.1 16.3 30.3 20.7 L39.45 27.4 Q51.8 36.45 62.55 48.8" fill="#e8cc5d" fill-rule="evenodd" stroke="none"/>
    <path d="M23.05 29.7 L22.95 29.45 22.85 29.2 22.9 29.1 23.45 30.15 28.25 38.75 Q31.1 43.45 35.0 47.9 L34.9 48.0 34.15 47.55 32.45 46.1 30.2 43.5 Q26.05 38.05 23.05 29.7" fill="#3f3316" fill-rule="evenodd" stroke="none"/>
    <path d="M30.3 20.7 L34.95 22.7 Q54.9 31.35 62.55 48.8 M44.2 59.35 Q31.5 59.1 8.35 38.15 L4.4 27.9 3.55 25.35 Q-2.6 6.65 1.95 0.0 7.1 5.2 12.45 9.45 21.1 16.3 30.3 20.7 Z" fill="none" stroke="#3f3316" stroke-linecap="round" stroke-linejoin="round" stroke-width="1.2000000000000002"/>
  </g>
</svg>
