<?xml version="1.0" encoding="UTF-8" standalone="no"?>
<svg xmlns:xlink="http://www.w3.org/1999/xlink" height="72.75px" width="77.2px" xmlns="http://www.w3.org/2000/svg">
  <g transform="matrix(1.0, 0.0, 0.0, 1.0, -55.05, -3.7)">
    <path d="M102.35 9.95 L107.9 4.65 108.25 4.3 108.35 4.55 108.2 4.55 Q109.7 36.0 96.2 65.65 L99.15 63.25 Q103.3 64.15 110.9 61.45 112.15 62.3 107.7 65.4 126.3 65.8 117.7 67.05 113.9 67.2 114.2 71.05 L96.2 65.65 76.4 59.7 55.05 53.3 68.75 44.3 72.15 50.15 Q73.4 48.85 73.95 46.5 L74.2 45.0 74.9 45.85 73.95 46.5 Q76.5 51.5 76.4 59.7 L77.65 56.9 Q81.8 60.85 83.35 60.15 L82.5 56.85 Q84.25 36.2 102.35 9.95" fill="#e8cc5d" fill-rule="evenodd" stroke="none"/>
    <path d="M108.35 4.55 Q115.65 33.65 105.3 53.9 105.85 57.6 104.75 60.0 113.25 55.9 117.8 54.65 116.15 57.0 116.75 59.15 118.65 56.6 122.25 55.75 L132.25 76.45 114.2 71.05 Q113.9 67.2 117.7 67.05 126.3 65.8 107.7 65.4 112.15 62.3 110.9 61.45 103.3 64.15 99.15 63.25 L96.2 65.65 Q109.7 36.0 108.2 4.55 L108.35 4.55 M74.9 45.85 Q78.25 50.25 78.85 54.05 80.0 48.35 81.8 46.85 81.45 51.95 82.5 56.85 L83.35 60.15 Q81.8 60.85 77.65 56.9 L76.4 59.7 Q76.5 51.5 73.95 46.5 L74.9 45.85" fill="#ddbc58" fill-rule="evenodd" stroke="none"/>
    <path d="M81.8 46.85 Q83.2 29.25 102.35 9.95 84.25 36.2 82.5 56.85 81.45 51.95 81.8 46.85" fill="#f2dd6c" fill-rule="evenodd" stroke="none"/>
    <path d="M81.8 46.85 Q83.2 29.25 102.35 9.95 L107.9 4.65 108.25 4.3 108.35 4.55 Q115.65 33.65 105.3 53.9 105.85 57.6 104.75 60.0 113.25 55.9 117.8 54.65 116.15 57.0 116.75 59.15 118.65 56.6 122.25 55.75 M68.75 44.3 L72.15 50.15 Q73.4 48.85 73.95 46.5 L74.2 45.0 74.9 45.85 Q78.25 50.25 78.85 54.05 80.0 48.35 81.8 46.85 Z" fill="none" stroke="#3f3316" stroke-linecap="round" stroke-linejoin="round" stroke-width="1.2000000000000002"/>
    <path d="M104.75 53.6 L104.75 53.55 Q105.1 53.0 105.6 53.35 106.1 53.6 105.8 54.15 L105.55 54.55 105.45 54.8 101.2 60.95 99.2 63.3 99.05 63.3 99.05 63.15 101.6 59.4 104.75 53.6 M83.4 60.1 L83.35 60.2 Q83.25 60.3 83.25 60.15 L82.3 57.15 82.2 56.6 81.9 55.45 81.4 52.35 81.2 49.95 81.2 46.8 81.2 46.75 Q81.2 46.1 81.85 46.2 82.45 46.3 82.35 46.85 L82.2 48.95 82.55 55.95 83.4 60.1" fill="#3f3316" fill-rule="evenodd" stroke="none"/>
  </g>
</svg>
