<?xml version="1.0" encoding="UTF-8" standalone="no"?>
<svg xmlns:xlink="http://www.w3.org/1999/xlink" height="49.2px" width="65.45px" xmlns="http://www.w3.org/2000/svg">
  <g transform="matrix(1.0, 0.0, 0.0, 1.0, 4.3, 0.6)">
    <path d="M31.35 48.0 Q36.45 38.0 42.7 30.1 49.5 20.15 59.8 13.35 65.15 45.2 31.35 48.0 M5.7 42.75 Q-9.6 28.7 0.0 0.0 4.45 9.3 6.1 23.1 6.6 35.3 5.7 42.75" fill="#e8cc5d" fill-rule="evenodd" stroke="none"/>
    <path d="M31.35 48.0 Q36.45 38.0 42.7 30.1 49.5 20.15 59.8 13.35 65.15 45.2 31.35 48.0 M5.7 42.75 Q6.6 35.3 6.1 23.1 4.45 9.3 0.0 0.0 -9.6 28.7 5.7 42.75" fill="none" stroke="#3f3316" stroke-linecap="round" stroke-linejoin="round" stroke-width="1.2000000000000002"/>
  </g>
</svg>
