<?xml version="1.0" encoding="UTF-8" standalone="no"?>
<svg xmlns:xlink="http://www.w3.org/1999/xlink" height="37.2px" width="27.5px" xmlns="http://www.w3.org/2000/svg">
  <g transform="matrix(1.0, 0.0, 0.0, 1.0, 0.4, 0.4)">
    <path d="M0.35 18.15 Q1.4 10.65 6.05 5.3 10.65 0.0 16.05 0.0 21.45 0.0 24.5 5.3 27.5 10.65 26.4 18.15 25.25 25.75 20.65 31.05 16.05 36.4 10.65 36.4 5.25 36.4 2.2 31.05 -0.85 25.75 0.35 18.15" fill="url(#gradient0)" fill-rule="evenodd" stroke="none"/>
    <path d="M0.35 18.15 Q-0.85 25.75 2.2 31.05 5.25 36.4 10.65 36.4 16.05 36.4 20.65 31.05 25.25 25.75 26.4 18.15 27.5 10.65 24.5 5.3 21.45 0.0 16.05 0.0 10.65 0.0 6.05 5.3 1.4 10.65 0.35 18.15 Z" fill="none" stroke="#201e13" stroke-linecap="round" stroke-linejoin="round" stroke-width="0.8"/>
    <path d="M6.45 18.1 Q7.05 14.3 9.35 11.6 11.7 8.9 14.4 8.9 17.1 8.9 18.65 11.6 20.15 14.3 19.55 18.1 19.0 21.9 16.7 24.55 14.35 27.3 11.65 27.3 8.95 27.3 7.4 24.55 5.9 21.9 6.45 18.1" fill="url(#gradient1)" fill-rule="evenodd" stroke="none"/>
  </g>
  <defs>
    <radialGradient cx="0" cy="0" gradientTransform="matrix(-0.032, 0.0, -0.0066, 0.0439, 8.1, 23.3)" gradientUnits="userSpaceOnUse" id="gradient0" r="819.2" spreadMethod="pad">
      <stop offset="0.44313725490196076" stop-color="#4b8cc8"/>
      <stop offset="0.5764705882352941" stop-color="#006daf"/>
    </radialGradient>
    <radialGradient cx="0" cy="0" gradientTransform="matrix(-0.0078, 0.0, -0.0017, 0.0112, 13.0, 18.1)" gradientUnits="userSpaceOnUse" id="gradient1" r="819.2" spreadMethod="pad">
      <stop offset="0.9058823529411765" stop-color="#f7f7f9"/>
      <stop offset="1.0" stop-color="#eeeef0" stop-opacity="0.4"/>
    </radialGradient>
  </defs>
</svg>
