<?xml version="1.0" encoding="UTF-8" standalone="no"?>
<svg xmlns:xlink="http://www.w3.org/1999/xlink" height="32.85px" width="21.15px" xmlns="http://www.w3.org/2000/svg">
  <g transform="matrix(1.0, 0.0, 0.0, 1.0, 0.4, 0.4)">
    <path d="M20.35 16.0 Q20.35 22.65 17.35 27.35 14.35 32.05 10.15 32.05 6.0 32.05 3.0 27.35 0.0 22.65 0.0 16.0 0.0 9.4 3.0 4.65 6.0 0.0 10.15 0.0 14.35 0.0 17.35 4.65 20.35 9.4 20.35 16.0" fill="url(#gradient0)" fill-rule="evenodd" stroke="none"/>
    <path d="M20.35 16.0 Q20.35 22.65 17.35 27.35 14.35 32.05 10.15 32.05 6.0 32.05 3.0 27.35 0.0 22.65 0.0 16.0 0.0 9.4 3.0 4.65 6.0 0.0 10.15 0.0 14.35 0.0 17.35 4.65 20.35 9.4 20.35 16.0 Z" fill="none" stroke="#201e13" stroke-linecap="round" stroke-linejoin="round" stroke-width="0.8"/>
    <path d="M15.15 16.0 Q15.15 19.3 13.7 21.6 12.2 23.95 10.15 23.95 8.05 23.95 6.55 21.6 5.1 19.3 5.1 16.0 5.1 12.7 6.55 10.35 8.05 8.05 10.15 8.05 12.2 8.05 13.7 10.35 15.15 12.7 15.15 16.0" fill="url(#gradient1)" fill-rule="evenodd" stroke="none"/>
  </g>
  <defs>
    <radialGradient cx="0" cy="0" gradientTransform="matrix(0.0249, 0.0, 0.0, 0.0386, 12.55, 21.3)" gradientUnits="userSpaceOnUse" id="gradient0" r="819.2" spreadMethod="pad">
      <stop offset="0.44313725490196076" stop-color="#4b8cc8"/>
      <stop offset="0.5764705882352941" stop-color="#006daf"/>
    </radialGradient>
    <radialGradient cx="0" cy="0" gradientTransform="matrix(0.006, 0.0, 0.0, 0.0097, 10.15, 16.0)" gradientUnits="userSpaceOnUse" id="gradient1" r="819.2" spreadMethod="pad">
      <stop offset="0.9058823529411765" stop-color="#f7f7f9"/>
      <stop offset="1.0" stop-color="#eeeef0" stop-opacity="0.4"/>
    </radialGradient>
  </defs>
</svg>
