<?xml version="1.0" encoding="UTF-8" standalone="no"?>
<svg xmlns:xlink="http://www.w3.org/1999/xlink" height="25.75px" width="50.6px" xmlns="http://www.w3.org/2000/svg">
  <g transform="matrix(1.0, 0.0, 0.0, 1.0, 0.15, 0.15)">
    <path d="M24.3 11.75 Q31.35 13.3 39.3 13.3 34.75 19.9 30.3 22.95 31.45 19.3 29.15 16.05 27.55 13.8 24.3 11.75" fill="url(#gradient0)" fill-rule="evenodd" stroke="none"/>
    <path d="M29.15 16.05 Q24.6 13.05 21.0 12.65 22.45 15.2 22.55 17.65 20.05 14.4 17.05 12.35 13.8 10.8 11.8 10.15 L10.35 9.8 Q8.2 9.4 8.3 10.75 9.0 15.85 17.0 22.85 9.15 19.1 5.25 11.25 0.6 2.1 1.65 1.3 5.6 4.3 9.9 6.55 L13.55 8.3 Q18.7 10.5 24.3 11.75 27.55 13.8 29.15 16.05" fill="#bb7875" fill-rule="evenodd" stroke="none"/>
    <path d="M17.0 22.85 Q9.0 15.85 8.3 10.75 8.2 9.4 10.35 9.8 L11.8 10.15 Q13.8 10.8 17.05 12.35 20.05 14.4 22.55 17.65 22.45 15.2 21.0 12.65 24.6 13.05 29.15 16.05 31.45 19.3 30.3 22.95 26.2 26.45 19.7 24.0 L17.0 22.85 M12.2 13.1 Q15.65 17.8 20.3 21.95 18.5 15.65 12.2 13.1" fill="#cb837f" fill-rule="evenodd" stroke="none"/>
    <path d="M12.2 13.1 Q18.5 15.65 20.3 21.95 15.65 17.8 12.2 13.1" fill="#e0908c" fill-rule="evenodd" stroke="none"/>
    <path d="M29.15 16.05 Q27.55 13.8 24.3 11.75 M30.3 22.95 Q31.45 19.3 29.15 16.05 Z" fill="none" stroke="#201e13" stroke-linecap="round" stroke-linejoin="round" stroke-width="1.2000000000000002"/>
    <path d="M8.45 6.2 Q10.4 7.15 12.6 8.25 L10.8 9.35 Q10.1 9.65 9.8 8.95 L8.45 6.2" fill="#ffffff" fill-rule="evenodd" stroke="none"/>
    <path d="M30.3 22.95 Q26.2 26.45 19.7 24.0 L17.0 22.85 Q9.15 19.1 5.25 11.25 0.6 2.1 1.65 1.3 5.6 4.3 9.9 6.55 L13.55 8.3 Q18.7 10.5 24.3 11.75 31.35 13.3 39.3 13.3 34.75 19.9 30.3 22.95 Z" fill="none" stroke="#201e13" stroke-linecap="round" stroke-linejoin="round" stroke-width="1.2000000000000002"/>
    <path d="M2.0 0.8 L2.2 0.95 Q2.6 1.4 2.1 1.8 L1.25 1.75 -0.1 0.15 -0.15 -0.05 0.1 -0.15 2.0 0.8 M39.25 13.85 L39.2 13.85 Q38.65 13.85 38.65 13.25 38.65 12.6 39.3 12.7 L40.3 12.7 40.65 12.75 41.85 12.75 42.75 12.8 43.75 12.75 44.8 12.75 45.8 12.7 46.8 12.7 47.75 12.65 50.3 12.45 Q50.4 12.35 50.4 12.5 L50.35 12.6 48.65 12.9 48.25 13.0 40.65 13.8 40.3 13.85 39.25 13.85" fill="#201e13" fill-rule="evenodd" stroke="none"/>
  </g>
  <defs>
    <linearGradient gradientTransform="matrix(-0.0065, -0.0065, 0.0048, -0.0048, 30.85, 16.0)" gradientUnits="userSpaceOnUse" id="gradient0" spreadMethod="reflect" x1="-819.2" x2="819.2">
      <stop offset="0.19215686274509805" stop-color="#6d4f30"/>
      <stop offset="0.8745098039215686" stop-color="#483420"/>
    </linearGradient>
  </defs>
</svg>
