<?xml version="1.0" encoding="UTF-8" standalone="no"?>
<svg xmlns:xlink="http://www.w3.org/1999/xlink" height="5.65px" width="16.35px" xmlns="http://www.w3.org/2000/svg">
  <g transform="matrix(1.0, 0.0, 0.0, 1.0, -29.15, -0.4)">
    <path d="M40.65 6.05 Q40.4 6.15 40.35 5.65 40.25 4.5 42.3 3.25 43.8 2.3 43.85 2.3 L45.5 2.4 Q43.05 3.15 41.35 5.05 L40.75 6.0 40.65 6.05 M29.15 0.4 Q30.8 0.3 31.75 1.65 32.7 3.0 33.1 4.6 L33.05 4.8 32.75 4.45 30.45 1.55 29.15 0.4" fill="#201e13" fill-rule="evenodd" stroke="none"/>
    <path d="M40.75 6.0 L41.35 5.05 Q43.05 3.15 45.5 2.4 43.6 4.95 40.75 6.0 M29.15 0.4 L30.45 1.55 32.75 4.45 Q30.4 3.25 29.15 0.4" fill="#efd977" fill-rule="evenodd" stroke="none"/>
    <path d="M40.65 6.05 L40.75 6.0 M32.75 4.45 L33.05 4.8" fill="none" stroke="#201e13" stroke-linecap="round" stroke-linejoin="round" stroke-width="0.05"/>
  </g>
</svg>
