<?xml version="1.0" encoding="UTF-8" standalone="no"?>
<svg xmlns:xlink="http://www.w3.org/1999/xlink" height="62.75px" width="98.1px" xmlns="http://www.w3.org/2000/svg">
  <g transform="matrix(1.0, 0.0, 0.0, 1.0, 0.55, 0.0)">
    <path d="M96.95 23.75 Q86.15 21.75 77.35 27.4 74.6 29.15 72.05 31.65 72.3 27.65 73.1 23.65 74.0 18.8 75.65 14.0 L93.25 14.7 Q94.6 16.85 95.55 19.25 L96.95 23.75" fill="#4c4c4c" fill-rule="evenodd" stroke="none"/>
    <path d="M75.45 57.3 Q82.35 59.15 88.8 57.6 88.05 62.25 82.45 62.75 L75.45 57.3" fill="#e8d274" fill-rule="evenodd" stroke="none"/>
    <path d="M3.3 4.3 Q5.15 0.5 9.55 0.0 23.05 6.85 37.3 9.55 40.1 11.7 39.6 18.35 40.0 22.95 39.4 29.0 23.45 9.35 3.95 6.9 L1.1 6.6 0.0 6.5 3.3 4.3" fill="url(#gradient0)" fill-rule="evenodd" stroke="none"/>
    <path d="M0.35 43.2 Q13.05 49.75 23.3 50.05 20.75 53.05 12.2 52.15 1.55 51.65 0.35 43.2" fill="#fce67a" fill-rule="evenodd" stroke="none"/>
    <path d="M23.3 49.95 L23.35 50.0 23.25 50.1 23.0 50.15 22.25 50.15 21.95 50.2 19.25 50.1 19.05 50.05 17.65 49.9 13.7 49.15 6.1 46.45 0.5 43.4 0.3 43.25 0.25 43.15 Q0.25 43.0 0.35 43.1 L5.15 44.95 5.55 45.15 7.0 45.65 8.2 46.15 8.45 46.2 9.5 46.6 11.6 47.3 13.75 47.95 14.0 48.0 14.3 48.1 19.55 49.35 20.35 49.45 20.75 49.55 23.3 49.95 M3.15 4.1 L3.4 4.15 3.4 4.45 1.45 6.0 4.15 6.2 5.4 6.35 11.75 7.65 14.5 8.6 15.0 8.75 18.85 10.4 19.3 10.65 Q20.6 11.3 23.1 12.8 L26.7 15.25 29.95 17.85 32.15 19.85 37.2 25.25 38.95 27.5 39.4 18.35 Q39.3 18.15 39.55 18.15 39.75 18.05 39.75 18.3 L39.85 18.75 40.1 26.55 40.0 28.9 39.95 29.2 Q39.8 29.7 39.3 29.6 L38.85 29.3 38.55 29.0 38.15 28.5 27.95 18.7 22.05 14.5 18.4 12.4 16.6 11.5 10.8 9.2 10.35 9.1 9.95 8.95 2.15 7.3 1.55 7.25 1.2 7.2 1.0 7.15 0.0 7.0 -0.1 6.95 -0.45 6.7 Q-0.7 6.35 -0.25 6.05 L3.15 4.1 M88.75 57.5 L88.85 57.55 88.8 57.65 88.65 57.75 88.5 57.8 88.4 57.85 87.2 58.25 86.4 58.45 86.3 58.5 85.2 58.7 84.9 58.7 84.75 58.75 81.4 58.85 81.1 58.8 80.8 58.8 78.15 58.35 77.9 58.25 77.4 58.15 77.2 58.05 77.05 58.05 76.25 57.7 75.95 57.6 75.8 57.55 75.7 57.5 75.55 57.45 75.4 57.35 75.35 57.25 Q75.35 57.1 75.45 57.2 L75.9 57.2 76.05 57.25 76.35 57.25 77.1 57.35 80.25 57.6 82.1 57.65 82.4 57.7 86.65 57.6 87.85 57.55 88.15 57.5 88.75 57.5 M97.5 23.6 L97.55 23.65 Q97.65 24.25 97.05 24.35 L96.65 24.3 96.5 24.3 96.15 24.25 94.3 24.15 93.9 24.1 91.55 24.1 88.25 24.45 85.85 24.9 83.5 25.6 82.6 25.9 82.3 26.05 79.5 27.3 78.5 27.9 78.45 27.9 78.35 27.95 78.25 28.05 73.35 31.4 72.65 31.95 72.5 32.15 72.4 32.2 71.95 32.55 Q71.6 32.95 71.2 32.55 70.7 32.2 71.1 31.7 L71.45 31.3 71.45 31.25 72.85 23.6 Q72.85 23.3 73.1 23.4 73.45 23.4 73.3 23.65 L72.75 29.9 72.85 29.75 74.2 28.5 74.4 28.35 75.0 27.8 76.65 26.6 76.75 26.5 76.9 26.45 77.15 26.25 77.25 26.2 77.3 26.15 79.65 24.8 82.75 23.5 85.4 22.8 88.0 22.4 88.3 22.35 92.6 22.35 95.2 22.7 96.15 22.9 95.25 19.35 Q95.15 19.1 95.4 18.95 95.7 18.85 95.8 19.1 L97.3 22.85 97.4 23.15 97.5 23.6" fill="#201e13" fill-rule="evenodd" stroke="none"/>
  </g>
  <defs>
    <radialGradient cx="0" cy="0" gradientTransform="matrix(0.0111, -0.0253, 0.0382, 0.0168, 8.9, 7.15)" gradientUnits="userSpaceOnUse" id="gradient0" r="819.2" spreadMethod="reflect">
      <stop offset="0.19215686274509805" stop-color="#6b6968"/>
      <stop offset="0.8745098039215686" stop-color="#4c4c4c"/>
    </radialGradient>
  </defs>
</svg>
