<?xml version="1.0" encoding="UTF-8" standalone="no"?>
<svg xmlns:xlink="http://www.w3.org/1999/xlink" height="17.7px" width="45.6px" xmlns="http://www.w3.org/2000/svg">
  <g transform="matrix(1.0, 0.0, 0.0, 1.0, -6.6, -2.65)">
    <path d="M7.25 6.75 Q34.7 15.25 52.2 5.3 L44.1 14.0 Q25.05 27.75 7.25 6.75" fill="#fce67a" fill-rule="evenodd" stroke="none"/>
    <path d="M6.8 7.15 L6.6 6.7 6.8 6.3 Q7.25 5.9 7.65 6.3 L14.75 13.1 19.1 16.35 20.75 17.35 22.5 18.15 22.95 18.35 23.3 18.45 23.4 18.45 24.35 18.75 28.2 19.5 30.1 19.6 31.25 19.55 31.35 19.5 31.45 19.5 31.7 19.45 31.8 19.45 31.9 19.4 32.15 19.35 32.25 19.35 32.35 19.3 33.0 19.15 33.2 19.05 35.2 18.25 43.75 13.45 43.8 13.45 Q44.35 13.2 44.6 13.7 L44.65 14.15 44.4 14.5 39.15 17.3 35.55 19.0 33.45 19.8 33.2 19.85 33.0 19.95 32.5 20.05 32.4 20.1 32.3 20.1 32.05 20.15 31.95 20.2 31.8 20.2 31.55 20.25 31.3 20.25 31.1 20.3 30.1 20.35 28.1 20.2 23.2 19.15 23.1 19.1 22.95 19.1 22.35 18.85 22.25 18.85 20.4 18.0 17.1 15.9 16.7 15.65 15.6 14.8 6.8 7.15" fill="#201e13" fill-rule="evenodd" stroke="none"/>
    <path d="M39.3 8.3 Q39.0 8.4 39.15 7.9 39.4 6.75 41.85 5.5 L43.7 4.55 45.35 4.65 Q42.65 5.4 40.3 7.3 L39.4 8.25 39.3 8.3 M29.6 2.65 Q31.3 2.55 31.8 3.9 32.35 5.25 32.2 6.85 L32.1 7.05 31.9 6.7 30.55 3.8 29.6 2.65" fill="#201e13" fill-rule="evenodd" stroke="none"/>
    <path d="M39.4 8.25 L40.3 7.3 Q42.65 5.4 45.35 4.65 42.6 7.2 39.4 8.25 M29.6 2.65 L30.55 3.8 31.9 6.7 Q29.95 5.5 29.6 2.65" fill="#efd977" fill-rule="evenodd" stroke="none"/>
    <path d="M39.3 8.3 L39.4 8.25 M31.9 6.7 L32.1 7.05" fill="none" stroke="#201e13" stroke-linecap="round" stroke-linejoin="round" stroke-width="0.05"/>
  </g>
</svg>
