<?xml version="1.0" encoding="UTF-8" standalone="no"?>
<svg xmlns:xlink="http://www.w3.org/1999/xlink" height="91.9px" width="97.2px" xmlns="http://www.w3.org/2000/svg">
  <g transform="matrix(1.0, 0.0, 0.0, 1.0, 0.6, 1.7)">
    <path d="M49.45 3.65 L49.0 3.9 Q49.3 6.85 47.7 7.95 L51.1 12.95 Q65.85 33.2 96.0 44.2 59.55 42.85 38.8 0.75 L38.8 0.35 39.9 -1.1 Q43.15 -0.6 45.55 0.75 47.95 2.1 49.45 3.65 M0.0 3.85 L1.6 2.2 Q27.45 44.4 29.7 60.15 47.15 68.35 57.7 73.85 L37.35 89.6 Q7.35 43.85 0.0 3.85" fill="#e8d274" fill-rule="evenodd" stroke="none"/>
    <path d="M51.1 12.95 L47.7 7.95 Q49.3 6.85 49.0 3.9 L49.45 3.65 Q51.1 6.6 51.1 12.95" fill="#d8c36c" fill-rule="evenodd" stroke="none"/>
    <path d="M38.8 0.35 L38.8 0.75 Q59.55 42.85 96.0 44.2 L57.7 73.85 Q47.15 68.35 29.7 60.15 27.45 44.4 1.6 2.2 L38.8 0.35 M19.4 15.85 Q28.65 28.8 33.25 45.6 35.7 42.15 31.85 29.5 24.9 18.2 19.4 15.85" fill="#fce67a" fill-rule="evenodd" stroke="none"/>
    <path d="M19.4 15.85 Q24.9 18.2 31.85 29.5 35.7 42.15 33.25 45.6 28.65 28.8 19.4 15.85" fill="#fcf59d" fill-rule="evenodd" stroke="none"/>
    <path d="M49.45 3.65 Q47.95 2.1 45.55 0.75 43.15 -0.6 39.9 -1.1 M96.0 44.2 Q65.85 33.2 51.1 12.95 51.1 6.6 49.45 3.65 M0.0 3.85 Q7.35 43.85 37.35 89.6" fill="none" stroke="#201e13" stroke-linecap="round" stroke-linejoin="round" stroke-width="1.2000000000000002"/>
    <path d="M51.55 12.55 L51.6 12.65 Q51.95 13.15 51.4 13.5 L50.95 13.55 50.6 13.3 47.6 8.0 47.6 7.85 47.75 7.85 51.4 12.35 51.55 12.55" fill="#201e13" fill-rule="evenodd" stroke="none"/>
  </g>
</svg>
