<?xml version="1.0" encoding="UTF-8" standalone="no"?>
<svg xmlns:xlink="http://www.w3.org/1999/xlink" height="47.45px" width="97.0px" xmlns="http://www.w3.org/2000/svg">
  <g transform="matrix(1.0, 0.0, 0.0, 1.0, 0.6, 4.95)">
    <path d="M74.15 0.05 Q87.75 11.9 94.7 32.85 95.45 36.25 95.8 39.85 78.35 42.25 60.2 41.55 56.25 33.5 50.95 26.65 45.8 17.45 47.6 7.8 39.65 6.4 36.0 4.35 32.35 2.25 29.5 0.05 L74.15 0.05 M55.6 12.75 Q54.75 21.6 58.55 28.85 63.9 30.9 63.3 28.45 58.45 22.3 55.6 12.75" fill="#fce67a" fill-rule="evenodd" stroke="none"/>
    <path d="M84.5 0.1 Q91.05 16.3 94.7 32.85 87.75 11.9 74.15 0.05 L84.5 0.1 M60.2 41.55 Q54.9 43.25 41.45 41.9 23.05 22.3 11.3 -3.1 18.1 -8.0 29.5 0.05 32.35 2.25 36.0 4.35 39.65 6.4 47.6 7.8 45.8 17.45 50.95 26.65 56.25 33.5 60.2 41.55" fill="#e8d274" fill-rule="evenodd" stroke="none"/>
    <path d="M41.45 41.9 L28.8 30.8 Q13.4 17.95 0.0 0.0 L11.3 -3.1 Q23.05 22.3 41.45 41.9" fill="#d8c36c" fill-rule="evenodd" stroke="none"/>
    <path d="M55.6 12.75 Q58.45 22.3 63.3 28.45 63.9 30.9 58.55 28.85 54.75 21.6 55.6 12.75" fill="#fcf59d" fill-rule="evenodd" stroke="none"/>
    <path d="M94.7 32.85 Q91.05 16.3 84.5 0.1 M94.7 32.85 Q95.45 36.25 95.8 39.85 M41.45 41.9 L28.8 30.8 Q13.4 17.95 0.0 0.0" fill="none" stroke="#201e13" stroke-linecap="round" stroke-linejoin="round" stroke-width="1.2000000000000002"/>
  </g>
</svg>
