<?xml version="1.0" encoding="UTF-8" standalone="no"?>
<svg xmlns:xlink="http://www.w3.org/1999/xlink" height="14.5px" width="33.0px" xmlns="http://www.w3.org/2000/svg">
  <g transform="matrix(1.0, 0.0, 0.0, 1.0, 0.0, 0.0)">
    <path d="M30.2 13.9 L30.15 13.85 Q31.5 13.6 32.25 11.85 33.0 10.1 32.6 8.95 L32.7 9.0 Q33.1 9.7 32.95 10.95 32.7 12.3 32.05 13.0 31.45 13.7 30.2 13.9 M27.55 7.1 L26.7 7.95 26.35 8.1 26.65 8.25 27.6 9.0 28.95 10.35 29.35 11.1 28.3 11.05 26.1 10.3 Q24.5 9.6 21.0 9.05 L16.9 8.3 Q12.2 7.0 7.2 6.95 L4.0 7.1 3.65 7.0 3.5 6.4 4.65 5.95 Q6.15 5.15 7.3 4.65 6.05 4.15 5.75 3.5 7.45 4.4 10.75 5.75 14.2 7.1 17.95 7.95 21.6 8.7 23.6 8.0 L25.4 7.7 25.85 7.6 Q26.75 7.2 27.55 7.1 M7.55 5.1 L4.35 6.55 8.1 6.35 Q9.35 6.1 8.9 5.75 8.5 5.35 7.55 5.1 M27.45 10.25 L28.8 10.95 Q26.4 8.05 25.55 8.3 L23.75 8.8 25.7 9.55 27.45 10.25 M0.95 3.8 Q0.35 4.4 0.8 6.95 1.2 9.4 2.8 10.0 2.4 10.15 1.45 9.35 0.7 8.65 0.2 7.2 -0.4 5.1 0.95 3.8" fill="#623f3d" fill-rule="evenodd" stroke="none"/>
    <path d="M27.45 10.25 L25.7 9.55 23.75 8.8 25.55 8.3 Q26.4 8.05 28.8 10.95 L27.45 10.25 M7.55 5.1 Q8.5 5.35 8.9 5.75 9.35 6.1 8.1 6.35 L4.35 6.55 7.55 5.1" fill="#bb7875" fill-rule="evenodd" stroke="none"/>
    <path d="M6.8 0.0 Q9.15 0.5 4.6 2.05 L2.45 3.7 Q3.4 -0.15 6.8 0.0 M27.5 11.55 L5.05 7.75 Q16.5 7.8 27.5 11.55" fill="#fcf59d" fill-rule="evenodd" stroke="none"/>
    <path d="M30.2 13.9 L19.35 14.4 Q14.8 13.35 13.5 12.2 21.85 13.95 30.2 13.9" fill="#e8d274" fill-rule="evenodd" stroke="none"/>
  </g>
</svg>
