<?xml version="1.0" encoding="UTF-8" standalone="no"?>
<svg xmlns:xlink="http://www.w3.org/1999/xlink" height="5.05px" width="10.05px" xmlns="http://www.w3.org/2000/svg">
  <g transform="matrix(1.0, 0.0, 0.0, 1.0, -14.4, -22.95)">
    <path d="M22.95 27.35 Q23.65 27.2 24.05 26.25 24.45 25.25 24.25 24.65 L24.3 24.65 24.45 25.75 24.05 26.8 23.95 26.85 Q23.6 27.25 23.0 27.35 L22.95 27.35 M14.9 22.95 Q14.6 23.25 14.85 24.6 15.05 25.95 15.9 26.25 15.7 26.35 15.2 25.9 L14.5 24.75 Q14.2 23.6 14.9 22.95 M17.2 24.6 L19.4 24.9 22.5 25.65 22.45 25.75 20.7 26.05 Q19.5 26.05 18.35 25.45 L17.2 24.6" fill="#623f3d" fill-rule="evenodd" stroke="none"/>
    <path d="M22.95 27.35 L23.0 27.35 Q23.6 27.25 23.95 26.85 L24.05 26.8 Q24.05 27.75 23.7 27.85 L20.85 27.6 Q17.35 26.75 16.1 25.0 L16.9 23.65 Q18.6 23.05 20.45 23.6 L22.8 24.45 23.35 24.9 Q23.65 26.35 21.85 27.15 L22.95 27.35 M17.2 24.6 L18.35 25.45 Q19.5 26.05 20.7 26.05 L22.45 25.75 22.5 25.65 19.4 24.9 17.2 24.6" fill="#e8d274" fill-rule="evenodd" stroke="none"/>
  </g>
</svg>
