<?xml version="1.0" encoding="UTF-8" standalone="no"?>
<svg xmlns:xlink="http://www.w3.org/1999/xlink" height="12.6px" width="21.6px" xmlns="http://www.w3.org/2000/svg">
  <g transform="matrix(1.0, 0.0, 0.0, 1.0, -74.55, -83.4)">
    <path d="M82.5 84.95 Q81.9 84.6 82.0 84.3 82.4 83.4 83.0 83.4 83.15 83.4 84.0 83.95 L85.35 84.9 85.35 85.25 83.7 85.7 Q83.3 85.75 84.2 85.5 L84.35 85.25 Q83.85 84.35 83.15 84.25 L82.5 84.9 82.5 84.95 M84.5 88.6 Q83.55 87.85 82.9 87.75 82.35 87.7 81.3 86.6 L81.3 86.25 Q81.35 86.0 81.95 86.0 84.75 86.0 89.55 87.45 94.25 88.85 95.8 88.8 L96.0 88.65 96.15 89.25 Q96.15 90.7 95.0 92.0 L92.7 93.9 Q91.95 93.75 91.7 93.0 94.2 91.2 94.4 90.3 L94.55 90.3 95.35 90.15 95.45 89.85 94.75 89.25 93.65 88.95 Q92.3 88.95 92.1 89.45 L92.1 89.3 90.0 89.0 Q89.35 89.0 88.75 89.3 87.35 89.95 85.95 91.9 L85.85 91.55 85.25 91.4 Q85.1 91.35 85.1 91.95 85.1 92.85 82.7 93.6 L79.95 94.4 79.9 94.8 Q79.95 95.15 80.55 95.15 L82.35 95.0 79.9 95.4 79.05 95.1 78.85 94.6 78.5 94.05 Q79.3 93.55 80.1 93.5 L81.2 93.5 Q82.65 93.5 84.0 92.35 85.35 91.2 85.35 90.0 L85.15 89.1 84.6 88.65 Q83.45 87.65 84.95 88.5 L87.05 88.7 Q86.95 88.7 87.0 88.2 86.05 87.05 83.85 87.05 83.25 87.05 83.25 87.25 L84.5 88.6 M84.45 93.65 L84.0 94.05 Q84.4 93.65 84.1 93.65 L84.45 93.65 M80.6 84.3 L79.3 85.3 78.3 85.85 Q77.75 85.8 77.7 85.35 L78.8 84.35 80.6 84.3 M75.8 95.95 L74.55 95.25 74.65 94.6 Q74.75 94.35 75.4 94.35 76.35 94.35 77.55 95.25 L76.15 96.0 Q75.6 95.7 76.0 95.85 L76.4 95.9 Q76.4 95.35 76.15 95.3 75.95 95.2 75.8 95.95" fill="#fffef0" fill-opacity="0.7019608" fill-rule="evenodd" stroke="none"/>
    <path d="M84.2 85.5 L83.5 85.45 83.4 85.4 82.55 85.25 82.5 84.95 82.5 84.9 83.15 84.25 Q83.85 84.35 84.35 85.25 L84.2 85.5 M94.4 90.3 L93.15 90.0 Q92.65 89.85 92.1 89.45 92.3 88.95 93.65 88.95 L94.75 89.25 95.45 89.85 95.35 90.15 94.55 90.3 94.4 90.3 M85.95 91.9 L85.8 92.35 85.55 92.4 85.0 93.15 84.45 93.65 84.1 93.65 Q84.4 93.65 84.0 94.05 L83.95 94.1 82.35 95.0 80.55 95.15 Q79.95 95.15 79.9 94.8 L79.95 94.4 82.7 93.6 Q85.1 92.85 85.1 91.95 85.1 91.35 85.25 91.4 L85.85 91.55 85.95 91.9 M84.6 88.65 L84.5 88.6 83.25 87.25 Q83.25 87.05 83.85 87.05 86.05 87.05 87.0 88.2 86.95 88.7 87.05 88.7 L84.95 88.5 Q83.45 87.65 84.6 88.65 M76.15 96.0 L75.8 95.95 Q75.95 95.2 76.15 95.3 76.4 95.35 76.4 95.9 L76.0 95.85 Q75.6 95.7 76.15 96.0" fill="#fffef0" fill-opacity="0.9411765" fill-rule="evenodd" stroke="none"/>
  </g>
</svg>
