<?xml version="1.0" encoding="UTF-8" standalone="no"?>
<svg xmlns:xlink="http://www.w3.org/1999/xlink" height="22.55px" width="40.2px" xmlns="http://www.w3.org/2000/svg">
  <g transform="matrix(1.0, 0.0, 0.0, 1.0, -67.05, -81.7)">
    <path d="M83.6 92.7 Q85.35 90.95 85.35 90.0 85.35 88.95 83.65 88.15 81.75 87.25 81.3 86.1 L81.95 86.0 93.05 88.4 95.75 88.65 97.2 89.0 Q98.75 89.45 99.95 90.15 L99.2 90.5 98.25 90.35 98.15 90.55 100.2 92.45 99.1 92.4 97.45 90.3 96.1 89.55 95.9 89.85 96.15 90.45 Q95.15 90.05 94.3 90.65 L94.4 90.3 94.05 90.3 93.65 90.15 Q95.45 89.95 95.6 89.65 L95.55 89.3 Q93.2 89.3 88.95 88.1 84.7 86.85 83.9 86.85 83.3 86.85 83.35 87.0 L83.55 87.15 Q84.1 88.05 86.9 89.4 85.6 91.3 84.6 92.1 L83.6 92.7 M105.3 99.15 Q105.55 100.25 106.0 100.85 L106.55 101.6 105.85 102.0 Q105.65 101.7 105.3 102.0 104.7 101.1 104.35 98.85 L105.3 99.15 M106.8 102.0 L107.25 103.1 107.05 103.5 106.55 103.4 Q106.2 103.05 106.2 102.65 L106.8 102.0 M97.85 92.25 L95.8 91.3 97.1 90.8 Q97.1 91.4 97.85 92.25 M95.6 91.35 L93.4 93.3 Q94.45 91.7 95.6 91.35 M93.2 93.45 L93.9 94.1 93.9 94.55 92.25 94.5 92.7 94.35 92.45 93.8 92.2 93.7 Q91.75 93.8 91.7 94.05 L91.8 94.4 90.6 92.75 91.5 92.55 92.35 92.9 92.85 92.3 93.2 91.3 Q93.2 90.7 92.75 90.3 L91.9 89.7 Q92.6 90.15 93.6 90.15 L94.05 90.8 93.55 91.3 92.55 93.0 Q92.7 93.45 93.2 93.45 M90.7 89.05 Q89.25 88.95 87.65 90.05 87.8 89.25 87.45 88.8 L89.55 88.65 90.7 89.05 M85.95 92.0 L82.75 95.15 Q79.75 97.8 77.45 99.25 L74.9 100.55 71.1 101.55 72.65 100.4 72.8 100.05 Q72.2 100.15 70.85 100.8 69.05 101.6 68.55 102.45 68.75 103.0 69.45 102.6 L68.35 104.2 67.65 104.25 Q67.05 103.7 67.05 102.7 67.05 102.15 70.0 100.8 73.1 99.3 74.9 99.3 75.4 99.45 75.2 99.65 L75.15 99.75 76.0 99.2 77.75 98.25 80.35 96.5 82.05 94.85 85.95 92.0 M80.25 95.4 L79.05 95.1 78.5 94.05 81.95 93.45 80.85 93.95 Q81.0 94.4 81.4 94.65 L80.25 95.4 M82.2 84.95 Q81.35 84.65 81.3 84.0 L80.9 84.15 Q81.6 84.65 81.8 85.4 L81.85 85.6 81.3 85.65 Q80.7 85.65 80.5 85.25 L80.3 84.6 78.3 85.85 77.7 85.35 Q78.85 84.3 78.15 84.8 78.15 84.0 77.4 84.15 77.05 84.0 77.0 83.7 76.75 82.95 78.6 82.25 80.45 81.5 80.4 81.8 81.6 81.5 82.2 82.7 L83.1 84.3 83.45 85.25 82.2 84.95 M81.15 83.2 L80.85 82.8 80.15 83.65 81.15 83.2 M75.8 95.95 Q74.55 95.25 74.6 94.6 L74.65 94.5 75.4 94.35 76.35 94.5 77.0 94.9 77.55 95.25 Q76.4 96.05 75.8 95.95" fill="#fffef0" fill-opacity="0.7019608" fill-rule="evenodd" stroke="none"/>
    <path d="M99.1 92.4 L101.7 93.75 Q103.75 95.25 105.3 99.15 L104.35 98.85 102.9 96.8 100.6 94.55 99.9 94.3 Q99.3 94.0 97.85 92.25 97.1 91.4 97.1 90.8 L95.8 91.3 95.7 91.3 95.6 91.35 Q94.45 91.7 93.4 93.3 L93.2 93.45 Q92.7 93.45 92.55 93.0 L93.55 91.3 94.05 90.8 94.1 90.85 94.3 90.65 Q95.15 90.05 96.15 90.45 L95.9 89.85 96.1 89.55 97.45 90.3 99.1 92.4 M106.55 101.6 L106.8 102.0 106.2 102.65 105.95 102.45 105.85 102.0 106.55 101.6 M92.25 94.5 L91.8 94.4 91.7 94.05 Q91.75 93.8 92.2 93.7 L92.45 93.8 92.7 94.35 92.25 94.5 M91.9 89.7 L90.7 89.05 89.55 88.65 87.45 88.8 Q87.8 89.25 87.65 90.05 L85.95 92.0 82.05 94.85 80.35 96.5 77.75 98.25 Q78.05 97.5 78.85 96.6 L80.25 95.4 81.4 94.65 Q81.0 94.4 80.85 93.95 L81.95 93.45 83.6 92.7 84.6 92.1 Q85.6 91.3 86.9 89.4 84.1 88.05 83.55 87.15 L83.35 87.0 Q83.3 86.85 83.9 86.85 84.7 86.85 88.95 88.1 93.2 89.3 95.55 89.3 L95.6 89.65 Q95.45 89.95 93.65 90.15 L93.6 90.15 Q92.6 90.15 91.9 89.7 M71.1 101.55 L69.45 102.6 Q68.75 103.0 68.55 102.45 69.05 101.6 70.85 100.8 72.2 100.15 72.8 100.05 L72.65 100.4 71.1 101.55 M74.9 99.3 L75.8 98.55 76.05 99.05 76.0 99.2 75.15 99.75 75.2 99.65 Q75.4 99.45 74.9 99.3 M77.3 98.05 L77.05 98.4 Q76.8 98.4 76.5 98.1 76.55 97.9 76.9 97.85 77.25 97.85 77.3 98.05" fill="#fffef0" fill-opacity="0.9411765" fill-rule="evenodd" stroke="none"/>
  </g>
</svg>
