<?xml version="1.0" encoding="UTF-8" standalone="no"?>
<svg xmlns:xlink="http://www.w3.org/1999/xlink" height="34.8px" width="53.15px" xmlns="http://www.w3.org/2000/svg">
  <g transform="matrix(1.0, 0.0, 0.0, 1.0, -60.0, -76.9)">
    <path d="M89.75 85.0 L90.65 86.75 Q91.45 87.4 95.15 87.4 L98.25 85.1 98.35 85.6 95.55 88.65 98.2 89.25 98.95 89.05 Q99.6 88.75 100.15 88.75 L101.85 89.2 Q103.45 89.7 103.85 89.95 L102.7 90.85 101.4 90.5 Q100.85 90.7 100.7 90.85 L101.85 91.65 101.9 92.0 100.45 91.25 99.05 90.65 98.15 90.55 100.2 92.45 99.1 92.4 Q97.9 90.1 95.9 89.85 96.05 90.2 95.55 90.35 L94.3 90.65 93.65 90.15 Q95.4 89.95 95.6 89.65 L95.55 89.3 Q94.3 89.65 89.55 88.3 L83.9 86.85 83.25 86.95 83.35 87.0 85.0 88.3 Q86.5 89.4 86.9 89.4 85.35 91.85 83.6 92.7 85.35 91.3 85.35 90.0 85.35 88.45 82.85 87.6 L80.2 87.05 Q79.75 87.05 78.55 87.9 76.95 89.0 76.45 90.5 75.35 90.3 73.35 91.5 72.15 92.2 69.75 93.85 L68.35 92.2 Q69.85 92.3 71.65 91.25 73.6 90.1 74.9 90.05 L74.15 87.7 74.0 87.45 74.6 87.35 75.75 88.55 77.05 87.75 77.1 87.1 81.15 85.65 82.25 85.9 84.85 86.6 Q84.1 85.45 83.6 85.35 L83.4 84.9 83.5 84.3 83.85 84.35 85.2 84.9 86.7 85.0 87.45 84.9 Q87.9 84.9 88.2 85.25 L88.3 85.65 88.2 85.65 86.55 85.35 Q86.1 85.2 85.2 86.05 L85.7 86.85 86.2 86.85 86.8 87.0 86.85 87.25 87.65 87.2 90.7 87.85 88.9 87.05 89.6 86.4 88.85 85.95 89.75 85.0 M102.8 92.3 Q103.7 92.8 103.65 93.1 L103.5 93.25 103.2 93.25 102.4 92.7 102.15 92.3 102.8 92.3 M103.35 93.65 Q104.7 93.0 106.9 92.5 L106.95 92.75 Q106.5 93.9 106.6 94.3 L104.85 94.15 Q104.3 94.15 103.95 94.45 L103.0 95.05 Q102.55 95.0 102.5 94.55 103.0 95.05 102.5 94.45 L103.35 93.65 M105.2 98.85 Q106.8 100.5 109.95 105.45 113.05 110.35 113.15 111.3 L113.0 111.65 112.75 111.7 Q110.3 111.35 109.75 110.1 109.4 109.45 109.4 106.9 109.4 105.85 108.75 104.7 L106.0 100.85 106.55 101.6 105.85 102.0 Q105.65 101.85 105.3 102.0 104.85 101.15 104.35 98.85 L104.55 98.85 104.8 98.7 104.6 98.8 105.2 98.85 M106.8 102.0 Q107.25 103.1 107.05 103.5 L106.8 103.55 Q106.25 103.2 106.2 102.65 L106.8 102.0 M97.85 92.25 L95.8 91.3 97.1 90.8 Q97.2 91.35 97.85 92.25 M95.6 91.35 L93.55 93.15 96.6 93.8 97.5 93.35 98.35 93.0 Q98.7 93.2 98.8 94.25 L97.75 94.75 95.15 95.2 95.2 94.35 92.8 94.1 92.25 94.2 92.45 94.3 92.6 94.85 Q91.55 94.65 90.55 93.85 91.0 93.4 90.6 92.75 L92.35 92.9 92.95 92.25 93.2 91.3 91.9 89.7 Q92.4 90.0 93.6 90.15 L94.05 90.8 Q93.4 91.45 92.6 92.95 L93.5 93.15 95.6 91.35 M90.7 89.05 Q89.25 89.15 87.65 90.05 87.8 89.55 87.45 88.8 L90.7 89.05 M85.95 92.0 L80.45 97.25 Q75.4 101.25 71.1 101.55 L72.8 100.05 72.5 100.15 Q72.2 100.2 70.55 101.2 68.95 102.15 68.55 102.45 L68.9 102.8 69.45 102.6 Q68.7 104.2 66.9 105.85 L63.7 108.45 62.3 107.3 Q63.4 106.05 65.6 104.5 67.05 103.45 67.05 102.7 67.05 102.1 68.8 100.85 71.3 99.15 74.9 99.3 L76.05 99.05 76.0 99.15 75.15 99.75 Q75.55 99.5 76.0 99.2 76.65 99.1 77.75 98.25 80.05 96.95 81.35 95.9 L85.95 92.0 M63.05 109.0 L61.1 110.3 60.8 109.9 60.7 109.55 63.05 109.0 M80.25 95.4 Q79.75 95.4 79.05 94.95 L78.5 94.05 81.95 93.45 81.1 94.35 80.25 95.4 M88.1 80.55 L88.15 78.9 88.35 80.65 88.1 80.55 M89.15 78.7 L89.6 80.65 89.6 82.0 88.65 79.15 89.0 78.95 89.15 78.7 M81.85 85.6 L81.9 85.65 Q80.9 85.3 80.3 84.6 L78.3 85.85 77.95 85.7 Q77.8 85.5 78.0 85.15 L78.4 84.7 77.9 84.45 77.0 83.7 78.95 82.45 80.35 81.75 Q81.45 81.75 82.0 82.25 82.9 83.0 83.45 85.25 83.4 85.25 83.3 85.35 L82.6 85.45 81.7 85.2 81.85 85.6 M100.25 90.1 L100.55 89.65 99.95 89.65 100.25 90.1 M80.85 82.8 L80.15 83.65 Q81.15 83.2 80.85 82.8 M74.7 95.0 L74.6 94.6 74.65 94.45 75.4 94.35 76.65 94.5 77.55 95.25 Q76.4 96.05 75.85 95.95 L74.7 95.0" fill="#fffef0" fill-opacity="0.7019608" fill-rule="evenodd" stroke="none"/>
    <path d="M103.85 89.95 Q105.55 90.75 105.55 91.45 L105.5 92.0 105.45 92.1 105.05 92.05 104.45 91.7 103.7 91.4 102.8 92.3 102.15 92.3 101.9 92.0 101.85 91.65 102.7 90.85 103.85 89.95 M103.2 93.25 L103.35 93.65 102.1 94.1 102.5 94.45 Q103.0 95.05 102.5 94.55 102.55 95.0 103.0 95.05 L105.2 98.85 104.6 98.8 104.8 98.7 104.55 98.85 104.35 98.85 Q101.85 95.35 100.45 94.4 L97.85 92.25 Q97.2 91.35 97.1 90.8 L95.8 91.3 95.6 91.35 93.5 93.15 92.6 92.95 Q93.4 91.45 94.05 90.8 L94.3 90.65 95.55 90.35 Q96.05 90.2 95.9 89.85 97.9 90.1 99.1 92.4 L100.1 92.85 101.15 93.0 Q101.55 92.7 102.4 92.7 L103.2 93.25 M106.55 101.6 L106.8 102.0 106.2 102.65 105.85 102.0 106.55 101.6 M95.15 95.2 L94.05 95.2 92.6 94.85 92.45 94.3 92.25 94.2 92.8 94.1 95.2 94.35 95.15 95.2 M91.9 89.7 L90.7 89.05 87.45 88.8 Q87.8 89.55 87.65 90.05 L85.95 92.0 81.35 95.9 Q80.05 96.95 77.75 98.25 L78.95 96.8 80.25 95.4 81.1 94.35 81.95 93.45 83.6 92.7 Q85.35 91.85 86.9 89.4 86.5 89.4 85.0 88.3 L83.35 87.0 83.25 86.95 83.9 86.85 89.55 88.3 Q94.3 89.65 95.55 89.3 L95.6 89.65 Q95.4 89.95 93.65 90.15 L93.6 90.15 Q92.4 90.0 91.9 89.7 M71.1 101.55 L69.45 102.6 68.9 102.8 68.55 102.45 Q68.95 102.15 70.55 101.2 72.2 100.2 72.5 100.15 L72.8 100.05 71.1 101.55 M63.7 108.45 L63.5 108.85 63.05 109.0 60.7 109.55 60.2 109.45 Q60.0 109.8 60.0 108.8 60.0 108.5 60.55 108.0 61.3 107.25 62.3 107.3 L63.7 108.45 M74.9 99.3 Q75.75 98.45 76.05 99.05 L74.9 99.3 M76.0 99.15 L76.0 99.2 Q75.55 99.5 75.15 99.75 L76.0 99.15 M88.2 85.25 L88.6 85.0 88.8 84.2 Q88.05 82.45 87.65 81.0 87.75 80.6 88.1 80.55 L88.35 80.65 88.15 78.9 86.7 77.0 87.3 76.9 88.0 77.0 88.2 77.3 89.15 78.65 89.15 78.7 89.0 78.95 88.65 79.15 89.6 82.0 90.0 83.8 89.75 85.0 88.85 85.95 89.6 86.4 88.9 87.05 87.65 87.2 86.85 87.25 86.8 87.0 87.1 86.5 87.1 86.45 87.0 86.45 86.2 86.85 85.7 86.85 85.2 86.05 Q86.1 85.2 86.55 85.35 L88.2 85.65 88.3 85.65 88.2 85.25 M77.3 98.1 L77.2 98.3 76.9 98.4 76.65 98.3 76.5 98.1 76.65 97.9 76.9 97.8 77.2 97.9 77.3 98.1" fill="#fffef0" fill-opacity="0.9411765" fill-rule="evenodd" stroke="none"/>
  </g>
</svg>
