<?xml version="1.0" encoding="UTF-8" standalone="no"?>
<svg xmlns:xlink="http://www.w3.org/1999/xlink" height="97.45px" width="53.15px" xmlns="http://www.w3.org/2000/svg">
  <g transform="matrix(1.0, 0.0, 0.0, 1.0, -60.0, -14.25)">
    <path d="M89.75 85.0 L90.65 86.75 Q91.45 87.4 95.15 87.4 L98.25 85.1 98.35 85.6 95.55 88.65 98.2 89.25 98.95 89.05 Q99.6 88.75 100.15 88.75 L101.85 89.2 Q103.45 89.7 103.85 89.95 L102.7 90.85 101.4 90.5 Q100.85 90.7 100.7 90.85 L101.85 91.65 101.9 92.0 100.45 91.25 99.05 90.65 98.15 90.55 100.2 92.45 99.1 92.4 Q97.9 90.1 95.9 89.85 96.05 90.2 95.55 90.35 L94.3 90.65 93.65 90.15 Q95.4 89.95 95.6 89.65 L95.55 89.3 Q94.3 89.65 89.55 88.3 L83.9 86.85 83.25 86.95 83.35 87.0 85.0 88.3 Q86.5 89.4 86.9 89.4 85.35 91.85 83.6 92.7 85.35 91.3 85.35 90.0 85.35 88.45 82.85 87.6 L80.2 87.05 Q79.75 87.05 78.55 87.9 76.95 89.0 76.45 90.5 75.35 90.3 73.35 91.5 72.15 92.2 69.75 93.85 L68.35 92.2 Q69.85 92.3 71.65 91.25 73.6 90.1 74.9 90.05 L74.15 87.7 74.0 87.45 74.6 87.35 75.75 88.55 77.05 87.75 77.1 87.1 81.15 85.65 82.25 85.9 84.85 86.6 Q84.1 85.45 83.6 85.35 L83.4 84.9 83.5 84.3 83.85 84.35 85.2 84.9 86.7 85.0 87.45 84.9 Q87.9 84.9 88.2 85.25 L88.3 85.65 88.2 85.65 86.55 85.35 Q86.1 85.2 85.2 86.05 L85.7 86.85 86.2 86.85 86.8 87.0 86.85 87.25 87.65 87.2 90.7 87.85 88.9 87.05 89.6 86.4 88.85 85.95 89.75 85.0 M102.8 92.3 Q103.7 92.8 103.65 93.1 L103.5 93.25 103.2 93.25 102.4 92.7 102.15 92.3 102.8 92.3 M103.35 93.65 Q104.7 93.0 106.9 92.5 L106.95 92.75 Q106.5 93.9 106.6 94.3 L104.85 94.15 Q104.3 94.15 103.95 94.45 L103.0 95.05 Q102.55 95.0 102.5 94.55 103.0 95.05 102.5 94.45 L103.35 93.65 M105.2 98.85 Q106.8 100.5 109.95 105.45 113.05 110.35 113.15 111.3 L113.0 111.65 112.75 111.7 Q110.3 111.35 109.75 110.1 109.4 109.45 109.4 106.9 109.4 105.85 108.75 104.7 L106.0 100.85 106.55 101.6 105.85 102.0 Q105.65 101.85 105.3 102.0 104.85 101.15 104.35 98.85 L104.55 98.85 104.8 98.7 104.6 98.8 105.2 98.85 M106.8 102.0 Q107.25 103.1 107.05 103.5 L106.8 103.55 Q106.25 103.2 106.2 102.65 L106.8 102.0 M97.85 92.25 L95.8 91.3 97.1 90.8 Q97.2 91.35 97.85 92.25 M95.6 91.35 L93.55 93.15 96.6 93.8 97.5 93.35 98.35 93.0 Q98.7 93.2 98.8 94.25 L97.75 94.75 95.15 95.2 95.2 94.35 92.8 94.1 92.25 94.2 92.45 94.3 92.6 94.85 Q91.55 94.65 90.55 93.85 91.0 93.4 90.6 92.75 L92.35 92.9 92.95 92.25 93.2 91.3 91.9 89.7 Q92.4 90.0 93.6 90.15 L94.05 90.8 Q93.4 91.45 92.6 92.95 L93.5 93.15 95.6 91.35 M90.7 89.05 Q89.25 89.15 87.65 90.05 87.8 89.55 87.45 88.8 L90.7 89.05 M85.95 92.0 L80.45 97.25 Q75.4 101.25 71.1 101.55 L72.8 100.05 72.5 100.15 Q72.2 100.2 70.55 101.2 68.95 102.15 68.55 102.45 L68.9 102.8 69.45 102.6 Q68.7 104.2 66.9 105.85 L63.7 108.45 62.3 107.3 Q63.4 106.05 65.6 104.5 67.05 103.45 67.05 102.7 67.05 102.1 68.8 100.85 71.3 99.15 74.9 99.3 L76.05 99.05 76.0 99.15 75.15 99.75 Q75.55 99.5 76.0 99.2 76.65 99.1 77.75 98.25 80.05 96.95 81.35 95.9 L85.95 92.0 M63.05 109.0 L61.1 110.3 60.8 109.9 60.7 109.55 63.05 109.0 M80.25 95.4 Q79.75 95.4 79.05 94.95 L78.5 94.05 81.95 93.45 81.1 94.35 80.25 95.4 M88.1 80.55 L88.15 78.9 88.35 80.65 88.1 80.55 M89.15 78.7 L89.6 80.65 89.6 82.0 88.65 79.15 89.0 78.95 89.15 78.7 M81.85 85.6 L81.9 85.65 Q80.9 85.3 80.3 84.6 L78.3 85.85 77.95 85.7 Q77.8 85.5 78.0 85.15 L78.4 84.7 77.9 84.45 77.0 83.7 78.95 82.45 80.35 81.75 Q81.45 81.75 82.0 82.25 82.9 83.0 83.45 85.25 83.4 85.25 83.3 85.35 L82.6 85.45 81.7 85.2 81.85 85.6 M100.25 90.1 L100.55 89.65 99.95 89.65 100.25 90.1 M80.85 82.8 L80.15 83.65 Q81.15 83.2 80.85 82.8 M74.7 95.0 L74.6 94.6 74.65 94.45 75.4 94.35 76.65 94.5 77.55 95.25 Q76.4 96.05 75.85 95.95 L74.7 95.0" fill="#fffef0" fill-opacity="0.7019608" fill-rule="evenodd" stroke="none"/>
    <path d="M83.1 28.6 L83.1 28.4 82.6 26.15 Q82.1 24.6 81.75 24.75 L81.3 25.05 78.75 21.35 Q78.85 20.9 79.1 20.8 79.8 21.35 81.25 23.75 L81.55 23.5 82.3 24.15 Q82.9 24.8 83.15 25.65 L83.6 26.85 84.0 28.25 84.0 28.65 Q84.0 29.6 83.5 30.1 L82.85 30.45 82.65 30.2 Q83.05 29.5 83.1 28.6 M89.6 49.35 L89.7 50.25 Q89.7 51.25 89.6 50.65 L89.35 50.7 88.9 49.8 88.3 47.75 88.0 45.45 88.2 45.45 87.95 44.95 86.85 42.3 87.0 41.45 87.6 42.0 88.2 43.75 88.5 45.45 88.2 45.45 89.1 47.65 89.6 49.35 M90.65 58.4 L90.8 59.4 90.65 60.5 90.35 60.65 89.95 60.55 89.75 59.7 Q89.75 59.1 90.0 58.75 L90.3 58.2 90.65 58.4 M87.7 69.1 L87.65 69.1 86.9 69.05 Q86.45 69.1 86.45 68.1 L86.65 67.8 87.75 66.95 88.45 66.9 88.95 67.5 Q89.6 65.2 89.35 63.1 89.25 61.8 90.15 60.8 L90.6 61.35 89.7 66.1 Q89.15 68.5 89.4 69.0 L87.7 69.1 M87.0 37.0 L85.7 34.6 Q85.15 33.5 85.55 33.5 L87.0 35.45 88.1 37.75 87.85 37.8 87.0 37.0 M85.8 49.85 L85.75 49.95 85.15 49.6 Q84.65 49.25 84.5 48.45 L84.65 48.2 Q85.4 48.95 85.8 49.85 M87.75 73.25 L86.95 72.95 Q86.6 72.65 86.6 72.2 L87.75 73.25 M103.85 89.95 Q105.55 90.75 105.55 91.45 L105.5 92.0 105.45 92.1 105.05 92.05 104.45 91.7 103.7 91.4 102.8 92.3 102.15 92.3 101.9 92.0 101.85 91.65 102.7 90.85 103.85 89.95 M103.2 93.25 L103.35 93.65 102.1 94.1 102.5 94.45 Q103.0 95.05 102.5 94.55 102.55 95.0 103.0 95.05 L105.2 98.85 104.6 98.8 104.8 98.7 104.55 98.85 104.35 98.85 Q101.85 95.35 100.45 94.4 L97.85 92.25 Q97.2 91.35 97.1 90.8 L95.8 91.3 95.6 91.35 93.5 93.15 92.6 92.95 Q93.4 91.45 94.05 90.8 L94.3 90.65 95.55 90.35 Q96.05 90.2 95.9 89.85 97.9 90.1 99.1 92.4 L100.1 92.85 101.15 93.0 Q101.55 92.7 102.4 92.7 L103.2 93.25 M106.55 101.6 L106.8 102.0 106.2 102.65 105.85 102.0 106.55 101.6 M95.15 95.2 L94.05 95.2 92.6 94.85 92.45 94.3 92.25 94.2 92.8 94.1 95.2 94.35 95.15 95.2 M91.9 89.7 L90.7 89.05 87.45 88.8 Q87.8 89.55 87.65 90.05 L85.95 92.0 81.35 95.9 Q80.05 96.95 77.75 98.25 L78.95 96.8 80.25 95.4 81.1 94.35 81.95 93.45 83.6 92.7 Q85.35 91.85 86.9 89.4 86.5 89.4 85.0 88.3 L83.35 87.0 83.25 86.95 83.9 86.85 89.55 88.3 Q94.3 89.65 95.55 89.3 L95.6 89.65 Q95.4 89.95 93.65 90.15 L93.6 90.15 Q92.4 90.0 91.9 89.7 M71.1 101.55 L69.45 102.6 68.9 102.8 68.55 102.45 Q68.95 102.15 70.55 101.2 72.2 100.2 72.5 100.15 L72.8 100.05 71.1 101.55 M63.7 108.45 L63.5 108.85 63.05 109.0 60.7 109.55 60.2 109.45 Q60.0 109.8 60.0 108.8 60.0 108.5 60.55 108.0 61.3 107.25 62.3 107.3 L63.7 108.45 M74.9 99.3 Q75.75 98.45 76.05 99.05 L74.9 99.3 M76.0 99.15 L76.0 99.2 Q75.55 99.5 75.15 99.75 L76.0 99.15 M88.2 85.25 L88.6 85.0 88.8 84.2 Q88.05 82.45 87.65 81.0 87.75 80.6 88.1 80.55 L88.35 80.65 88.15 78.9 86.7 77.0 87.3 76.9 88.0 77.0 88.2 77.3 89.15 78.65 89.15 78.7 89.0 78.95 88.65 79.15 89.6 82.0 90.0 83.8 89.75 85.0 88.85 85.95 89.6 86.4 88.9 87.05 87.65 87.2 86.85 87.25 86.8 87.0 87.1 86.5 87.1 86.45 87.0 86.45 86.2 86.85 85.7 86.85 85.2 86.05 Q86.1 85.2 86.55 85.35 L88.2 85.65 88.3 85.65 88.2 85.25 M75.35 17.75 Q73.8 16.7 73.2 15.8 L73.1 15.5 73.05 15.35 73.35 15.15 75.55 17.0 Q75.75 17.65 75.35 17.75 M77.3 98.1 L77.2 98.3 76.9 98.4 76.65 98.3 76.5 98.1 76.65 97.9 76.9 97.8 77.2 97.9 77.3 98.1" fill="#fffef0" fill-opacity="0.9411765" fill-rule="evenodd" stroke="none"/>
    <path d="M81.55 23.5 L81.25 23.75 Q79.8 21.35 79.1 20.8 78.85 20.9 78.75 21.35 L81.3 25.05 81.75 24.75 Q82.1 24.6 82.6 26.15 L83.1 28.4 83.1 28.6 80.2 24.6 Q78.35 22.1 77.9 20.9 L79.35 19.8 80.1 21.2 81.55 23.5 M82.65 30.2 L81.65 28.55 Q81.75 28.3 82.15 28.3 L83.1 28.6 Q83.05 29.5 82.65 30.2 M88.25 22.75 L88.25 24.4 87.6 24.9 85.4 18.5 85.45 18.25 86.1 18.15 Q87.0 18.15 87.4 19.5 L88.25 22.75 M84.0 28.25 L84.05 28.6 84.5 31.35 84.45 31.95 84.35 31.95 83.9 31.7 82.85 30.45 83.5 30.1 Q84.0 29.6 84.0 28.65 L84.0 28.25 M85.55 33.5 L85.55 33.1 85.85 32.65 Q88.2 34.6 88.8 39.55 89.15 42.15 89.1 45.2 L89.6 49.35 89.1 47.65 88.2 45.45 88.5 45.45 88.2 43.75 87.6 42.0 87.0 37.0 87.85 37.8 88.1 37.75 87.0 35.45 85.55 33.5 M89.7 50.25 L90.65 58.4 90.3 58.2 90.0 58.75 Q89.75 59.1 89.75 59.7 L89.95 60.55 90.35 60.65 90.65 60.5 90.6 61.35 Q90.4 66.7 89.8 68.55 L88.7 70.75 Q89.25 70.8 88.25 70.8 L87.6 70.7 87.65 69.85 87.7 69.1 89.4 69.0 Q89.15 68.5 89.7 66.1 L90.6 61.35 90.15 60.8 Q89.25 61.8 89.35 63.1 89.6 65.2 88.95 67.5 L88.45 66.9 Q89.45 60.1 89.45 57.8 L89.45 56.95 88.2 58.5 87.55 58.0 Q87.15 57.4 87.15 55.35 L87.4 54.0 89.4 56.25 88.3 47.75 88.9 49.8 89.35 50.7 89.6 50.65 Q89.7 51.25 89.7 50.25 M87.65 69.1 L87.25 69.85 87.0 69.9 Q86.3 69.35 86.3 68.0 L86.5 65.9 87.6 65.6 87.75 66.95 86.65 67.8 86.45 68.1 Q86.45 69.1 86.9 69.05 L87.65 69.1 M88.0 45.45 L87.95 44.95 88.2 45.45 88.0 45.45 M86.95 51.4 Q87.45 51.45 86.45 51.45 85.25 51.45 84.55 48.75 L83.7 44.7 83.9 44.1 85.55 47.4 Q86.8 50.2 86.95 51.4 M85.8 49.85 Q85.4 48.95 84.65 48.2 L84.5 48.45 Q84.65 49.25 85.15 49.6 L85.75 49.95 85.8 49.85 M88.15 53.1 L87.95 53.7 87.45 53.9 Q87.15 53.9 86.95 53.7 L86.75 53.1 86.95 52.55 Q87.15 52.3 87.45 52.3 L87.95 52.55 88.15 53.1 M86.6 72.2 L86.45 72.1 87.05 72.0 Q88.05 72.0 87.75 72.15 L87.8 72.7 87.75 73.25 86.6 72.2 M73.1 15.5 L72.6 15.45 Q72.0 15.45 70.8 16.15 L69.55 16.8 69.3 16.75 Q69.15 16.65 69.15 16.05 69.15 15.5 70.65 14.85 72.1 14.25 73.1 14.25 74.5 14.25 75.1 15.25 L75.95 17.55 75.35 17.75 Q75.75 17.65 75.55 17.0 L73.35 15.15 73.05 15.35 73.1 15.5" fill="#fffef0" fill-opacity="0.8" fill-rule="evenodd" stroke="none"/>
  </g>
</svg>
