<?xml version="1.0" encoding="UTF-8" standalone="no"?>
<svg xmlns:xlink="http://www.w3.org/1999/xlink" height="71.8px" width="74.85px" xmlns="http://www.w3.org/2000/svg">
  <g transform="matrix(1.0, 0.0, 0.0, 1.0, 0.6, 0.6)">
    <path d="M59.15 21.5 Q59.15 28.75 60.5 34.2 72.65 47.8 74.25 59.25 L65.3 60.1 Q61.45 55.0 52.1 52.25 30.45 45.55 11.15 29.75 L11.1 29.8 11.05 29.65 Q6.8 22.35 2.45 13.75 19.25 30.55 38.2 33.75 58.3 34.35 59.15 21.5 M11.05 29.65 L11.15 29.75 11.05 29.65" fill="#e8d274" fill-rule="evenodd" stroke="none"/>
    <path d="M33.1 2.8 L34.75 3.35 Q46.65 7.4 59.2 19.1 L59.15 21.5 Q58.3 34.35 38.2 33.75 19.25 30.55 2.45 13.75 L0.0 8.95 Q7.9 -5.05 33.1 2.8 M14.7 2.6 Q3.7 4.05 3.35 9.4 L8.75 9.25 Q10.55 5.95 14.7 2.6" fill="#fce67a" fill-rule="evenodd" stroke="none"/>
    <path d="M14.7 2.6 Q10.55 5.95 8.75 9.25 L3.35 9.4 Q3.7 4.05 14.7 2.6" fill="#fcf59d" fill-rule="evenodd" stroke="none"/>
    <path d="M65.3 60.1 L65.9 61.0 Q67.0 62.7 73.85 67.8 72.75 71.55 69.0 70.6 L64.35 69.55 64.05 69.5 63.05 69.4 57.5 69.8 57.3 69.8 Q40.8 75.4 18.75 42.2 15.0 36.55 11.1 29.8 L11.15 29.75 Q30.45 45.55 52.1 52.25 61.45 55.0 65.3 60.1" fill="#d8c36c" fill-rule="evenodd" stroke="none"/>
    <path d="M11.15 29.75 L11.05 29.65" fill="none" stroke="#201e13" stroke-linecap="round" stroke-linejoin="miter-clip" stroke-miterlimit="5.0" stroke-width="0.05"/>
    <path d="M57.5 69.8 L57.3 69.8 Q40.8 75.4 18.75 42.2 15.0 36.55 11.1 29.8 M0.0 8.95 Q7.9 -5.05 33.1 2.8" fill="none" stroke="#201e13" stroke-linecap="round" stroke-linejoin="round" stroke-width="1.2000000000000002"/>
    <path d="M57.6 70.35 L57.55 70.35 Q56.95 70.45 56.85 69.85 56.75 69.3 57.35 69.2 L58.65 69.0 60.4 68.9 62.65 68.95 62.85 69.0 63.1 69.0 63.5 69.1 63.95 69.15 64.1 69.15 64.15 69.2 64.35 69.2 64.65 69.25 64.95 69.35 65.55 69.45 69.0 70.5 69.05 70.6 68.95 70.65 65.15 69.9 64.85 69.9 64.6 69.85 64.25 69.85 64.05 69.8 63.85 69.8 63.45 69.75 63.0 69.75 62.8 69.7 61.75 69.7 58.0 70.25 57.6 70.35 M59.25 19.0 L59.25 19.15 59.1 19.15 55.85 16.3 49.85 11.7 49.25 11.3 40.15 6.1 36.0 4.35 35.6 4.25 34.65 3.9 34.55 3.85 34.5 3.85 32.9 3.35 32.85 3.35 Q32.3 3.2 32.5 2.55 32.7 2.0 33.25 2.2 L34.85 2.75 34.95 2.8 35.0 2.8 42.35 6.15 44.75 7.6 50.2 11.25 54.35 14.6 54.6 14.75 59.25 19.0" fill="#201e13" fill-rule="evenodd" stroke="none"/>
  </g>
</svg>
