<?xml version="1.0" encoding="UTF-8" standalone="no"?>
<svg xmlns:xlink="http://www.w3.org/1999/xlink" height="83.2px" width="47.5px" xmlns="http://www.w3.org/2000/svg">
  <g transform="matrix(1.0, 0.0, 0.0, 1.0, 0.6, 0.6)">
    <path d="M12.6 5.2 L17.9 42.3 17.3 40.15 Q10.35 20.7 12.6 5.2" fill="#fcf59d" fill-rule="evenodd" stroke="none"/>
    <path d="M32.5 20.2 Q30.85 39.05 31.95 49.4 32.95 59.75 29.2 67.35 26.25 66.5 24.2 64.9 L24.1 64.55 17.9 42.3 12.6 5.2 Q13.0 2.55 13.65 0.0 L32.5 20.2" fill="#fce67a" fill-rule="evenodd" stroke="none"/>
    <path d="M29.2 67.35 Q32.95 59.75 31.95 49.4 30.85 39.05 32.5 20.2 L42.95 32.65 Q39.95 39.95 38.65 49.5 37.5 58.05 37.75 68.35 32.8 68.4 29.2 67.35" fill="#e8d274" fill-rule="evenodd" stroke="none"/>
    <path d="M24.2 64.9 Q26.25 66.5 29.2 67.35 22.95 69.45 12.15 71.25 7.75 72.25 6.15 75.05 L0.0 74.9 Q2.9 66.7 7.1 66.9 22.2 67.45 24.0 64.7 L24.2 64.9" fill="#6b6968" fill-rule="evenodd" stroke="none"/>
    <path d="M29.2 67.35 Q32.8 68.4 37.75 68.35 44.6 71.15 46.3 80.85 38.5 76.85 30.6 75.8 23.65 77.35 15.3 78.1 8.35 79.05 4.9 82.0 4.65 77.65 6.15 75.05 7.75 72.25 12.15 71.25 22.95 69.45 29.2 67.35 M24.1 64.55 L24.2 64.9 24.0 64.7 24.1 64.55" fill="#595756" fill-rule="evenodd" stroke="none"/>
    <path d="M37.75 68.35 Q37.5 58.05 38.65 49.5 M13.65 0.0 Q13.0 2.55 12.6 5.2 10.35 20.7 17.3 40.15 L17.9 42.3 24.1 64.55 24.2 64.9 M6.15 75.05 Q4.65 77.65 4.9 82.0 8.35 79.05 15.3 78.1 23.65 77.35 30.6 75.8 38.5 76.85 46.3 80.85 44.6 71.15 37.75 68.35 M24.1 64.55 L24.0 64.7 Q22.2 67.45 7.1 66.9 2.9 66.7 0.0 74.9 L6.15 75.05" fill="none" stroke="#201e13" stroke-linecap="round" stroke-linejoin="round" stroke-width="1.2000000000000002"/>
    <path d="M12.1 71.15 Q12.2 71.05 12.2 71.2 L12.15 71.3 11.05 71.7 10.85 71.8 10.55 71.9 9.45 72.45 8.35 73.2 8.25 73.3 8.1 73.4 7.5 74.05 7.4 74.15 7.35 74.25 7.2 74.4 7.2 74.45 6.85 74.95 6.8 75.0 6.8 75.05 6.65 75.3 6.65 75.35 6.6 75.4 Q6.25 75.95 5.75 75.55 L5.5 75.2 5.6 74.75 5.8 74.45 5.85 74.35 6.8 73.35 7.35 72.95 7.45 72.85 7.75 72.65 7.85 72.6 7.9 72.55 8.2 72.35 8.85 72.05 9.5 71.8 9.8 71.65 10.7 71.4 12.1 71.15 M39.2 49.55 L39.2 49.6 Q39.1 50.2 38.5 50.1 L38.15 49.85 38.05 49.4 38.15 48.65 38.25 48.25 38.3 47.8 40.0 40.45 40.15 40.05 40.95 37.4 41.1 37.05 41.65 35.4 41.8 35.1 42.85 32.6 Q42.85 32.45 42.95 32.55 L43.0 32.65 42.1 35.25 42.05 35.55 40.65 40.6 40.6 41.0 39.2 49.55" fill="#201e13" fill-rule="evenodd" stroke="none"/>
  </g>
</svg>
