<?xml version="1.0" encoding="UTF-8" standalone="no"?>
<svg xmlns:xlink="http://www.w3.org/1999/xlink" height="206.4px" width="50.45px" xmlns="http://www.w3.org/2000/svg">
  <g transform="matrix(1.0, 0.0, 0.0, 1.0, 0.6, 0.6)">
    <path d="M0.0 153.2 Q13.7 72.45 13.7 37.5 11.75 19.15 21.55 0.0 L40.4 9.65 Q19.65 45.4 33.1 151.3 L36.95 166.85 Q26.3 164.55 15.65 160.35 14.55 115.3 16.4 66.8 12.05 110.4 4.6 155.5 L0.0 153.2" fill="#6b6968" fill-rule="evenodd" stroke="none"/>
    <path d="M40.4 9.65 Q37.2 19.75 35.85 33.05 33.3 58.2 37.3 94.75 43.45 150.55 49.25 168.85 L36.95 166.85 33.1 151.3 Q19.65 45.4 40.4 9.65" fill="#5e5e5e" fill-rule="evenodd" stroke="none"/>
    <path d="M22.75 205.2 Q4.2 187.65 0.0 153.2 L4.6 155.5 Q10.1 158.2 15.65 160.35 26.3 164.55 36.95 166.85 38.4 179.35 22.75 205.2 M5.1 162.1 Q11.8 187.8 19.8 198.25 16.3 185.2 13.35 166.4 L5.1 162.1" fill="#fce67a" fill-rule="evenodd" stroke="none"/>
    <path d="M5.1 162.1 L13.35 166.4 Q16.3 185.2 19.8 198.25 11.8 187.8 5.1 162.1" fill="#fcf59d" fill-rule="evenodd" stroke="none"/>
    <path d="M15.65 160.35 Q10.1 158.2 4.6 155.5 12.05 110.4 16.4 66.8 14.55 115.3 15.65 160.35" fill="#797975" fill-rule="evenodd" stroke="none"/>
    <path d="M49.25 168.85 Q41.1 192.9 22.75 205.2 38.4 179.35 36.95 166.85 L49.25 168.85" fill="#e8d274" fill-rule="evenodd" stroke="none"/>
    <path d="M35.85 33.05 Q33.3 58.2 37.3 94.75 43.45 150.55 49.25 168.85 41.1 192.9 22.75 205.2 4.2 187.65 0.0 153.2 13.7 72.45 13.7 37.5 11.75 19.15 21.55 0.0" fill="none" stroke="#201e13" stroke-linecap="round" stroke-linejoin="round" stroke-width="1.2000000000000002"/>
    <path d="M40.3 9.6 Q40.3 9.45 40.4 9.55 L40.45 9.65 38.25 19.1 36.7 29.8 36.7 30.2 36.4 33.1 Q36.4 33.75 35.75 33.65 35.15 33.55 35.25 32.95 L35.65 29.65 35.75 29.25 36.5 24.4 40.3 9.6" fill="#201e13" fill-rule="evenodd" stroke="none"/>
  </g>
</svg>
