<?xml version="1.0" encoding="UTF-8" standalone="no"?>
<svg xmlns:xlink="http://www.w3.org/1999/xlink" height="32.65px" width="29.8px" xmlns="http://www.w3.org/2000/svg">
  <g transform="matrix(1.0, 0.0, 0.0, 1.0, -102.65, 44.0)">
    <path d="M125.2 -43.6 Q124.5 -42.2 121.65 -41.95 L117.15 -41.8 113.0 -41.45 110.85 -40.5 111.2 -39.7 111.5 -39.6 112.45 -39.7 Q114.35 -29.85 114.35 -28.45 114.35 -24.4 115.1 -19.05 115.85 -13.75 116.6 -12.3 L117.45 -12.75 117.45 -14.9 117.85 -14.35 118.05 -13.45 Q118.05 -12.2 116.25 -11.4 114.9 -10.85 114.2 -17.15 L113.7 -23.9 Q113.45 -26.05 112.1 -29.6 110.45 -34.05 108.45 -36.3 L108.25 -35.8 Q108.05 -35.55 107.4 -35.55 105.95 -35.55 104.15 -37.8 L102.65 -40.1 102.85 -41.45 125.2 -43.6 M116.1 -25.95 L115.85 -27.1 116.5 -27.0 Q116.75 -27.0 116.75 -27.65 116.75 -31.55 113.55 -40.05 L122.0 -40.4 126.15 -40.65 Q126.2 -37.2 127.05 -35.2 127.75 -33.65 128.45 -33.65 129.45 -33.65 128.8 -33.75 129.0 -34.05 129.0 -35.75 129.0 -37.65 128.0 -39.95 127.15 -42.0 125.85 -43.65 L132.2 -44.0 132.35 -43.75 132.45 -42.95 Q132.45 -42.4 131.55 -41.05 130.4 -39.4 130.0 -38.35 129.65 -37.45 129.7 -35.8 L129.85 -33.55 129.7 -32.05 129.45 -31.75 128.55 -31.5 Q127.75 -31.5 126.6 -34.7 125.45 -37.95 123.35 -37.95 122.2 -37.95 119.25 -34.7 116.4 -31.55 116.45 -30.9 L117.05 -28.4 Q117.25 -27.5 116.1 -25.95" fill="#fffbf7" fill-opacity="0.6" fill-rule="evenodd" stroke="none"/>
    <path d="M117.45 -14.9 L117.45 -12.75 116.6 -12.3 Q115.85 -13.75 115.1 -19.05 114.35 -24.4 114.35 -28.45 114.35 -29.85 112.45 -39.7 L111.5 -39.6 111.2 -39.7 110.85 -40.5 113.0 -41.45 117.15 -41.8 121.65 -41.95 Q124.5 -42.2 125.2 -43.6 L125.85 -43.65 Q127.15 -42.0 128.0 -39.95 129.0 -37.65 129.0 -35.75 129.0 -34.05 128.8 -33.75 129.45 -33.65 128.45 -33.65 127.75 -33.65 127.05 -35.2 126.2 -37.2 126.15 -40.65 L122.0 -40.4 113.55 -40.05 Q116.75 -31.55 116.75 -27.65 116.75 -27.0 116.5 -27.0 L115.85 -27.1 116.1 -25.95 Q117.7 -17.05 117.45 -14.9" fill="#fffbf7" fill-opacity="0.9019608" fill-rule="evenodd" stroke="none"/>
  </g>
</svg>
