<?xml version="1.0" encoding="UTF-8" standalone="no"?>
<svg xmlns:xlink="http://www.w3.org/1999/xlink" height="109.3px" width="195.3px" xmlns="http://www.w3.org/2000/svg">
  <g transform="matrix(1.0, 0.0, 0.0, 1.0, 95.25, 54.65)">
    <path d="M45.15 54.05 Q5.65 54.25 -18.8 50.3 -43.3 46.35 -51.8 39.95 -71.75 17.85 -76.95 1.45 -77.9 -1.5 -78.35 -4.25 -80.95 -16.3 -87.6 -26.0 -90.7 -30.5 -94.65 -34.5 -53.45 -71.75 3.2 -38.0 7.85 -34.6 11.8 -30.2 16.1 -27.2 21.95 -24.25 35.2 -17.6 70.5 -25.3 L43.45 -12.95 Q24.25 -9.7 5.05 -17.65 -3.5 -20.25 -17.95 -17.9 -31.15 18.85 -22.15 37.35 12.2 48.8 53.65 39.85 L45.15 54.05" fill="#d7bad0" fill-rule="evenodd" stroke="none"/>
    <path d="M29.75 -6.55 Q26.65 -3.45 15.9 -1.85 -0.7 -1.1 0.65 -4.65 L29.75 -6.55" fill="#e7d2e0" fill-rule="evenodd" stroke="none"/>
    <path d="M29.75 -6.55 L0.65 -4.65 Q-0.7 -1.1 15.9 -1.85 26.65 -3.45 29.75 -6.55 M53.65 39.85 Q12.2 48.8 -22.15 37.35 -31.15 18.85 -17.95 -17.9 -3.5 -20.25 5.05 -17.65 24.25 -9.7 43.45 -12.95 L70.5 -25.3 Q84.7 -30.85 88.05 -32.65 91.35 -34.4 99.45 -37.2 L53.65 39.85" fill="#e5c6dd" fill-rule="evenodd" stroke="none"/>
    <path d="M70.5 -25.3 Q35.2 -17.6 21.95 -24.25 16.1 -27.2 11.8 -30.2 7.85 -34.6 3.2 -38.0 -53.45 -71.75 -94.65 -34.5 -90.7 -30.5 -87.6 -26.0 -80.95 -16.3 -78.35 -4.25 -77.9 -1.5 -76.95 1.45 -71.75 17.85 -51.8 39.95 -43.3 46.35 -18.8 50.3 5.65 54.25 45.15 54.05 M70.5 -25.3 Q84.7 -30.85 88.05 -32.65 91.35 -34.4 99.45 -37.2" fill="none" stroke="#483e44" stroke-linecap="round" stroke-linejoin="round" stroke-width="1.2000000000000002"/>
    <path d="M70.25 -25.8 L70.25 -25.85 Q70.8 -26.05 71.05 -25.5 71.25 -24.9 70.7 -24.75 L43.45 -12.85 Q43.35 -12.75 43.35 -12.9 L43.4 -13.0 70.25 -25.8 M14.35 -26.5 L14.35 -26.35 14.2 -26.35 12.55 -28.5 12.0 -29.05 11.8 -29.3 11.3 -29.8 11.25 -29.9 Q10.85 -30.4 11.4 -30.75 11.95 -31.0 12.25 -30.55 L12.65 -29.95 14.3 -26.65 14.35 -26.5" fill="#483e44" fill-rule="evenodd" stroke="none"/>
  </g>
</svg>
