<?xml version="1.0" encoding="UTF-8" standalone="no"?>
<svg xmlns:xlink="http://www.w3.org/1999/xlink" height="133.25px" width="98.9px" xmlns="http://www.w3.org/2000/svg">
  <g transform="matrix(1.0, 0.0, 0.0, 1.0, 50.75, 66.65)">
    <path d="M17.45 -61.45 L20.15 -62.5 Q23.95 -64.05 27.5 -66.05 27.25 -63.15 23.5 -61.3 32.8 -61.0 40.25 -58.0 58.45 -41.9 34.65 -15.95 30.05 -16.3 25.7 -14.6 22.95 -13.5 20.35 -11.6 4.35 24.3 -19.75 45.15 -24.3 47.9 -29.25 47.35 L-34.55 44.9 -28.8 59.65 Q-32.15 57.3 -34.95 52.35 L-42.35 43.8 -32.55 66.0 Q-42.35 58.9 -46.75 46.15 L-48.25 42.8 Q-48.05 22.6 -40.95 9.85 -34.25 4.3 -25.0 1.95 L-26.05 4.5 Q-34.35 4.3 -39.65 25.4 -39.95 28.9 -37.1 26.6 -34.7 25.6 -32.9 23.25 L-35.25 29.45 -28.3 22.9 Q-19.05 -8.15 5.05 -52.5 9.65 -58.2 17.45 -61.45" fill="#e5c6dd" fill-rule="evenodd" stroke="none"/>
    <path d="M17.45 -61.45 Q9.65 -58.2 5.05 -52.5 -19.05 -8.15 -28.3 22.9 L-35.25 29.45 -32.9 23.25 Q-31.55 21.35 -30.5 18.65 -28.4 10.5 -26.05 4.5 L-25.0 1.95 -22.85 -2.55 Q-12.85 -30.15 3.9 -58.15 5.8 -60.55 6.6 -63.5 8.25 -60.8 7.8 -59.05 11.65 -60.85 15.75 -66.05 16.15 -63.25 12.4 -59.9 L17.45 -61.45 M-40.95 9.85 Q-48.05 22.6 -48.25 42.8 -53.3 29.5 -44.8 13.45 L-40.95 9.85" fill="#e7d2e0" fill-rule="evenodd" stroke="none"/>
    <path d="M-32.9 23.25 Q-34.7 25.6 -37.1 26.6 -39.95 28.9 -39.65 25.4 -34.35 4.3 -26.05 4.5 -28.4 10.5 -30.5 18.65 -31.55 21.35 -32.9 23.25 M-32.55 66.0 L-42.35 43.8 -34.95 52.35 Q-32.15 60.25 -32.55 66.0 M-28.8 59.65 L-34.55 44.9 -29.25 47.35 Q-24.3 47.9 -19.75 45.15 4.35 24.3 20.35 -11.6 22.95 -13.5 25.7 -14.6 16.35 22.55 -17.8 52.2 -17.35 55.75 -13.0 57.45 -19.75 58.85 -26.4 54.15 -26.75 56.6 -25.15 61.45 -27.05 60.9 -28.8 59.65" fill="#d7bad0" fill-rule="evenodd" stroke="none"/>
    <path d="M23.5 -61.3 Q27.25 -63.15 27.5 -66.05 23.95 -64.05 20.15 -62.5 L17.45 -61.45 12.4 -59.9 Q16.15 -63.25 15.75 -66.05 11.65 -60.85 7.8 -59.05 8.25 -60.8 6.6 -63.5 5.8 -60.55 3.9 -58.15 M-46.75 46.15 Q-42.35 58.9 -32.55 66.0 -32.15 60.25 -34.95 52.35 -32.15 57.3 -28.8 59.65 -27.05 60.9 -25.15 61.45 -26.75 56.6 -26.4 54.15 -19.75 58.85 -13.0 57.45 -17.35 55.75 -17.8 52.2" fill="none" stroke="#483e44" stroke-linecap="round" stroke-linejoin="miter-clip" stroke-miterlimit="5.0" stroke-width="1.2000000000000002"/>
    <path d="M-26.05 4.5 L-25.0 1.95 Q-34.25 4.3 -40.95 9.85 L-44.8 13.45 Q-53.3 29.5 -48.25 42.8 L-46.75 46.15 M3.9 -58.15 Q-12.85 -30.15 -22.85 -2.55 L-25.0 1.95 M-26.05 4.5 Q-28.4 10.5 -30.5 18.65 M25.7 -14.6 Q16.35 22.55 -17.8 52.2" fill="none" stroke="#483e44" stroke-linecap="round" stroke-linejoin="round" stroke-width="1.2000000000000002"/>
    <path d="M-31.05 18.4 L-31.0 18.35 -30.65 18.05 -30.2 18.05 Q-29.7 18.3 -29.9 18.85 L-29.95 18.95 -30.05 19.1 -30.2 19.5 -31.5 21.9 -32.5 23.3 -32.6 23.4 -32.6 23.45 -32.65 23.5 -32.65 23.55 -32.85 23.7 -33.0 23.9 -33.2 24.1 -33.35 24.3 -35.5 25.95 -36.1 26.3 -36.4 26.4 -36.6 26.5 -37.05 26.65 -37.15 26.6 -37.1 26.5 -36.7 26.3 -35.7 25.65 -35.1 25.15 -34.45 24.55 -33.65 23.7 -33.2 23.1 -33.2 23.05 -33.15 23.0 -33.1 22.9 -32.7 22.3 -31.25 19.05 -31.2 18.85 -31.1 18.65 -31.05 18.5 -31.05 18.4 M25.45 -15.15 L26.05 -15.3 26.3 -15.4 26.55 -15.45 26.85 -15.55 27.95 -15.8 30.0 -16.1 30.9 -16.15 31.7 -16.2 32.85 -16.2 33.2 -16.15 33.5 -16.15 33.8 -16.1 34.05 -16.1 34.25 -16.05 34.65 -16.0 34.7 -15.9 Q34.7 -15.75 34.6 -15.85 L34.0 -15.85 33.8 -15.8 32.85 -15.8 32.5 -15.75 32.15 -15.75 27.8 -14.8 27.5 -14.65 26.65 -14.35 26.1 -14.05 25.9 -14.0 25.65 -13.95 25.2 -13.8 25.0 -13.7 24.6 -13.55 23.85 -13.3 23.6 -13.15 23.1 -12.95 20.85 -11.8 Q20.7 -11.65 20.6 -11.65 L20.4 -11.5 20.25 -11.5 20.25 -11.65 20.45 -11.85 20.7 -12.0 21.0 -12.3 21.4 -12.55 21.8 -12.9 24.15 -14.45 24.6 -14.65 24.75 -14.8 24.95 -14.85 25.45 -15.15 M40.25 -58.05 L40.3 -57.95 Q40.3 -57.8 40.2 -57.9 L37.05 -58.9 35.35 -59.35 35.0 -59.4 33.3 -59.8 33.1 -59.8 31.15 -60.15 25.0 -60.65 23.4 -60.7 Q22.85 -60.7 22.85 -61.3 22.95 -61.95 23.5 -61.85 L24.65 -61.8 29.7 -61.15 30.5 -61.0 36.55 -59.5 40.25 -58.05" fill="#483e44" fill-rule="evenodd" stroke="none"/>
  </g>
</svg>
