<?xml version="1.0" encoding="UTF-8" standalone="no"?>
<svg xmlns:xlink="http://www.w3.org/1999/xlink" height="30.95px" width="16.95px" xmlns="http://www.w3.org/2000/svg">
  <g transform="matrix(1.0, 0.0, 0.0, 1.0, 2.4, -7.35)">
    <path d="M11.0 10.45 L11.3 7.5 11.9 7.4 Q12.45 7.85 12.45 9.8 L13.35 12.15 Q14.3 14.7 14.55 16.75 L14.55 19.65 14.25 20.0 Q12.2 18.7 12.2 14.25 L12.6 14.15 13.0 13.75 11.3 10.15 11.0 10.45 M1.6 9.9 Q2.7 10.85 2.65 13.3 L2.65 13.85 Q3.15 14.0 2.2 14.0 L0.9 12.35 -2.4 7.9 -2.25 7.55 Q-2.25 7.35 -1.65 7.35 L-0.2 7.75 1.25 8.1 4.55 8.7 4.75 9.2 Q3.65 10.7 3.1 10.6 L1.75 9.9 1.45 9.85 1.6 9.9 M-0.6 8.9 L1.05 9.65 2.6 9.75 2.65 9.2 Q1.5 8.35 0.0 8.35 L-0.65 8.5 -0.6 8.9 M9.9 15.3 L9.7 16.25 9.25 16.6 Q9.0 16.6 8.8 16.25 L8.6 15.3 8.8 14.4 Q9.0 14.0 9.25 14.0 9.5 14.0 9.7 14.4 L9.9 15.3 M5.5 24.2 L5.0 18.05 5.1 17.5 5.75 17.9 Q6.15 18.3 6.7 18.3 7.25 18.3 7.65 17.95 8.05 17.55 8.25 17.5 L8.0 18.3 Q7.65 18.85 7.65 19.4 L8.1 21.5 Q8.6 23.8 8.7 25.5 8.75 26.65 9.15 29.0 L9.5 31.65 Q9.5 33.05 8.75 35.0 L8.2 36.15 8.35 34.45 Q8.35 27.0 7.7 23.55 7.15 20.7 5.85 19.55 L5.75 20.35 5.95 21.75 5.5 24.2 M4.8 37.85 Q4.65 38.2 4.65 37.2 4.65 35.6 5.05 35.2 L5.9 35.1 Q6.55 35.1 6.55 34.5 L5.55 25.1 6.4 29.45 7.05 33.75 Q7.05 34.55 6.1 35.7 5.05 37.0 4.8 37.85 M14.35 17.4 L14.15 16.9 13.55 16.65 Q13.2 16.65 13.0 16.9 12.75 17.1 12.75 17.4 L13.0 17.95 Q13.2 18.15 13.55 18.15 L14.15 17.95 14.35 17.4" fill="#fffbf7" fill-opacity="0.6" fill-rule="evenodd" stroke="none"/>
    <path d="M12.2 14.25 L11.55 13.5 10.65 11.25 11.0 10.45 11.3 10.15 13.0 13.75 12.6 14.15 12.2 14.25 M1.75 9.9 L1.6 9.9 1.45 9.85 1.75 9.9 M-0.6 8.9 L-0.65 8.5 0.0 8.35 Q1.5 8.35 2.65 9.2 L2.6 9.75 1.05 9.65 -0.6 8.9 M8.2 36.15 Q7.15 37.9 5.6 38.3 L4.8 37.85 Q5.05 37.0 6.1 35.7 7.05 34.55 7.05 33.75 L6.4 29.45 5.55 25.1 5.5 24.2 5.95 21.75 5.75 20.35 5.85 19.55 Q7.15 20.7 7.7 23.55 8.35 27.0 8.35 34.45 L8.2 36.15 M14.35 17.4 L14.15 17.95 13.55 18.15 Q13.2 18.15 13.0 17.95 L12.75 17.4 Q12.75 17.1 13.0 16.9 13.2 16.65 13.55 16.65 L14.15 16.9 14.35 17.4" fill="#fffbf7" fill-opacity="0.9019608" fill-rule="evenodd" stroke="none"/>
  </g>
</svg>
