<?xml version="1.0" encoding="UTF-8" standalone="no"?>
<svg xmlns:xlink="http://www.w3.org/1999/xlink" height="52.7px" width="19.65px" xmlns="http://www.w3.org/2000/svg">
  <g transform="matrix(1.0, 0.0, 0.0, 1.0, 5.1, -6.7)">
    <path d="M11.45 13.25 Q10.65 11.2 10.75 9.4 10.85 7.55 11.9 7.4 L13.35 11.3 Q14.55 15.4 14.55 18.2 L14.25 20.0 14.25 27.3 13.5 27.75 Q11.7 25.5 12.3 23.45 13.05 20.85 11.7 17.7 L11.55 16.95 11.45 14.85 11.95 15.85 Q12.7 17.2 13.5 17.7 14.15 17.4 14.25 16.45 L13.3 14.6 Q12.4 13.25 11.45 13.25 M10.9 19.35 Q10.7 22.2 9.6 22.45 8.6 22.7 8.6 24.35 L9.05 28.05 9.5 31.75 Q9.5 33.1 8.3 35.2 L7.9 35.85 7.95 34.25 7.5 32.0 7.05 29.7 7.5 27.35 7.95 25.0 Q7.95 23.4 8.4 22.6 L10.9 19.35 M7.7 36.2 Q7.05 37.35 7.05 37.6 L7.35 40.55 7.85 46.95 Q8.0 49.85 8.3 52.65 L8.6 55.3 8.3 59.0 Q8.5 59.4 7.5 59.4 6.8 59.4 6.35 58.25 5.8 57.05 6.2 55.8 6.7 57.7 7.2 58.2 L7.95 57.75 7.95 54.75 7.4 54.15 Q7.1 53.9 7.1 53.35 L7.55 52.8 Q7.8 52.0 6.9 50.3 7.65 50.3 7.65 48.75 L7.45 47.85 6.9 47.45 6.55 47.75 6.2 48.05 Q6.05 48.25 6.05 48.85 6.05 49.5 6.35 49.8 L6.9 50.3 Q6.3 51.05 6.05 51.85 5.25 48.75 4.2 47.6 3.0 46.35 2.6 45.0 L2.7 44.15 4.4 45.05 Q5.4 45.4 5.7 45.65 L5.45 40.4 5.6 40.55 6.4 39.95 Q7.05 39.2 7.05 38.3 7.05 37.7 6.85 37.6 L6.3 37.5 5.3 38.65 5.4 38.1 4.8 38.0 4.35 38.0 4.65 37.2 Q4.65 36.65 4.95 35.6 L5.55 33.4 6.15 35.3 6.9 37.1 7.5 36.45 7.7 36.2 M5.45 29.85 Q4.95 27.0 4.5 27.0 L4.1 29.8 3.3 33.3 4.2 26.9 Q4.2 26.35 4.55 25.6 L5.15 24.2 4.35 23.3 Q3.7 23.95 3.0 25.35 L2.4 22.25 1.7 19.55 Q3.6 18.95 3.65 18.45 3.7 18.2 4.2 18.2 4.85 18.2 5.0 18.6 L5.1 18.95 5.0 17.5 6.4 18.3 9.25 14.0 Q9.9 14.25 9.9 15.3 L9.85 16.5 8.3 19.05 Q5.45 21.95 5.75 23.45 6.45 26.45 5.45 29.85 M3.3 33.35 L2.25 34.35 Q1.3 35.1 0.5 35.25 L0.25 35.2 0.15 34.4 Q0.95 30.5 1.75 29.45 1.75 32.7 2.45 33.65 L3.3 33.35 M9.8 17.95 L10.65 16.6 Q10.95 16.6 11.05 17.2 L9.8 17.95 M-1.65 8.9 Q0.75 9.3 1.35 8.9 L1.7 8.15 3.1 8.35 Q4.4 8.65 4.75 9.2 L3.45 10.55 Q3.05 10.75 1.75 9.9 L1.6 9.9 Q2.3 11.15 2.85 13.95 L2.5 14.0 1.8 13.6 -1.65 8.9" fill="#fffbf7" fill-opacity="0.6" fill-rule="evenodd" stroke="none"/>
    <path d="M11.7 17.7 Q11.6 18.45 10.9 19.35 L8.4 22.6 Q7.95 23.4 7.95 25.0 L7.5 27.35 7.05 29.7 7.5 32.0 7.95 34.25 7.9 35.85 7.9 36.05 7.7 36.2 7.5 36.45 6.9 37.1 6.15 35.3 5.55 33.4 5.45 29.85 Q6.45 26.45 5.75 23.45 5.45 21.95 8.3 19.05 L9.8 17.95 11.05 17.2 11.55 16.95 11.7 17.7 M6.2 55.8 Q6.05 54.2 6.65 53.8 L6.05 51.85 Q6.3 51.05 6.9 50.3 L6.35 49.8 Q6.05 49.5 6.05 48.85 6.05 48.25 6.2 48.05 L6.55 47.75 6.9 47.45 7.45 47.85 7.65 48.75 Q7.65 50.3 6.9 50.3 7.8 52.0 7.55 52.8 L7.1 53.35 Q7.1 53.9 7.4 54.15 L7.95 54.75 7.95 57.75 7.2 58.2 Q6.7 57.7 6.2 55.8 M5.45 40.4 L4.8 39.6 5.3 38.65 6.3 37.5 6.85 37.6 Q7.05 37.7 7.05 38.3 7.05 39.2 6.4 39.95 L5.6 40.55 5.45 40.4 M3.3 33.3 L3.3 33.35 2.45 33.65 Q1.75 32.7 1.75 29.45 L2.25 27.5 3.0 25.35 Q3.7 23.95 4.35 23.3 L5.15 24.2 4.55 25.6 Q4.2 26.35 4.2 26.9 L3.3 33.3 M11.45 14.85 Q11.1 14.1 11.45 14.2 L11.45 13.25 Q12.4 13.25 13.3 14.6 L14.25 16.45 Q14.15 17.4 13.5 17.7 12.7 17.2 11.95 15.85 L11.45 14.85 M1.7 8.15 L1.35 8.9 Q0.75 9.3 -1.65 8.9 L-3.15 8.95 -4.3 8.55 -5.1 7.95 -5.1 7.05 Q-5.15 6.75 -4.15 6.75 L-2.0 6.75 Q0.3 7.0 1.7 8.15 M-1.8 17.1 L-2.45 17.4 -3.15 15.5 -3.6 13.95 -2.35 13.55 Q-1.45 15.45 -1.8 17.1" fill="#fffbf7" fill-opacity="0.9019608" fill-rule="evenodd" stroke="none"/>
  </g>
</svg>
