<?xml version="1.0" encoding="UTF-8" standalone="no"?>
<svg xmlns:xlink="http://www.w3.org/1999/xlink" height="79.9px" width="34.8px" xmlns="http://www.w3.org/2000/svg">
  <g transform="matrix(1.0, 0.0, 0.0, 1.0, 14.55, 20.5)">
    <path d="M11.95 -18.5 L13.15 -19.95 Q14.85 -21.6 14.85 -18.15 14.85 -14.7 16.1 -12.0 19.05 -5.7 19.2 -4.85 18.95 -3.05 18.95 0.35 L19.25 1.95 19.55 3.55 19.45 5.15 Q19.2 5.95 18.45 6.15 17.0 3.55 17.2 1.35 17.7 -1.1 17.7 -2.85 17.7 -4.35 16.7 -6.55 L16.8 -6.9 15.3 -9.95 14.55 -10.95 14.45 -11.7 14.15 -13.5 12.7 -15.1 Q11.4 -16.4 11.4 -16.9 L14.1 -13.65 14.7 -13.85 14.85 -14.25 Q14.7 -15.6 13.7 -17.1 12.85 -18.35 11.95 -18.5 M6.45 -4.95 L6.0 -4.4 5.45 -4.2 4.55 -4.6 Q4.25 -4.8 3.9 -5.1 4.4 -6.05 5.15 -5.9 5.85 -5.8 6.45 -4.95 M7.4 -0.6 L6.6 -1.7 Q5.75 -2.65 5.75 -3.1 L5.75 -3.55 5.9 -3.75 Q8.2 -3.75 9.55 -1.85 L10.5 0.05 Q10.5 0.6 9.6 1.2 L8.4 1.7 Q6.95 1.7 7.0 0.6 L7.1 0.2 7.55 0.8 Q8.1 1.35 8.6 1.35 9.35 1.35 9.5 1.05 L9.35 -0.6 8.25 -0.75 7.4 -0.6 M-14.1 -1.4 L-13.95 -3.3 Q-13.85 -4.05 -12.75 -5.55 L-11.75 -6.9 -12.35 -8.25 Q-12.35 -8.65 -11.0 -10.1 -9.35 -11.85 -7.8 -11.85 -7.65 -12.05 -7.65 -11.3 -7.65 -10.9 -8.4 -9.5 -8.25 -9.2 -8.25 -8.6 -8.25 -8.15 -8.7 -7.45 L-8.55 -8.1 Q-8.55 -12.3 -10.1 -10.5 -11.7 -8.7 -11.7 -5.0 L-11.3 -4.25 -12.4 -2.3 -12.5 -2.45 Q-13.5 -2.4 -14.1 -1.4 M-12.75 -0.35 L-12.95 5.55 Q-12.95 7.25 -12.0 9.0 -11.1 10.8 -11.1 11.95 L-11.15 12.65 -11.25 12.8 -11.85 12.95 Q-13.6 12.95 -14.25 9.4 L-14.55 5.75 -14.25 0.9 -13.8 1.05 Q-13.35 0.85 -12.85 -0.25 L-12.75 -0.35 M1.7 8.15 L3.1 8.35 Q4.4 8.65 4.75 9.2 L3.45 10.55 Q3.05 10.75 1.75 9.9 L1.6 9.9 Q2.3 11.15 2.85 13.95 L2.5 14.0 1.8 13.6 -1.65 8.9 -3.15 8.95 -4.3 8.55 -5.1 7.95 -5.1 7.05 Q-5.15 6.75 -4.15 6.75 L-2.0 6.75 Q0.3 7.0 1.7 8.15 M-8.25 19.4 L-8.4 19.85 -8.5 20.15 -9.05 20.25 Q-10.25 20.25 -10.95 17.7 L-11.4 15.3 Q-11.4 12.35 -10.35 14.75 L-9.4 16.8 Q-9.05 16.65 -8.35 17.0 -6.95 17.7 -7.05 18.9 L-7.2 19.1 -7.8 19.25 -8.35 19.2 -8.25 19.4 M-1.8 17.1 L-2.45 17.4 -3.15 15.5 -3.6 13.95 -2.35 13.55 Q-1.45 15.45 -1.8 17.1 M-5.75 27.4 L-5.85 29.4 -6.6 29.6 Q-7.75 29.0 -8.1 27.25 L-8.25 24.3 Q-8.25 22.0 -7.0 24.15 -5.75 26.35 -5.75 27.4 M20.25 18.3 L20.25 20.4 19.4 20.85 Q18.6 20.1 18.6 19.25 L18.75 17.85 Q19.65 17.7 20.25 18.3 M9.2 18.4 L9.8 17.95 10.65 16.6 11.0 16.95 11.5 16.2 11.45 14.85 Q11.1 14.1 11.45 14.2 L11.45 13.25 Q10.65 11.2 10.75 9.4 10.85 7.55 11.9 7.4 L13.35 11.3 Q14.55 15.4 14.55 18.2 L14.25 20.0 14.25 27.3 13.5 27.75 Q14.05 28.0 14.25 28.35 L14.25 30.45 13.5 30.9 Q12.65 30.05 12.65 29.25 12.65 28.35 13.5 27.75 11.7 25.5 12.3 23.45 L12.55 21.9 12.2 22.05 12.0 21.85 12.05 21.4 11.95 20.85 11.85 20.7 Q11.2 20.75 10.15 21.75 L10.2 20.95 10.15 20.5 10.05 20.6 8.65 20.3 Q9.2 19.15 9.2 18.45 L9.2 18.4 M11.15 23.2 L11.1 23.9 Q11.1 26.45 10.0 28.35 L9.25 29.45 9.5 31.75 Q9.5 33.1 8.3 35.2 L7.9 35.85 7.9 36.05 7.7 36.2 Q7.05 37.35 7.05 37.6 L7.25 39.35 Q6.85 39.9 6.8 40.8 L6.75 42.9 6.8 45.1 Q6.9 46.3 7.5 46.85 L8.25 46.5 8.25 42.95 8.75 42.45 Q9.3 42.85 9.45 43.45 L9.5 44.5 8.95 48.15 8.25 51.8 8.25 51.85 8.3 52.65 8.6 55.3 8.3 59.0 Q8.5 59.4 7.5 59.4 6.8 59.4 6.35 58.25 5.8 57.05 6.2 55.8 6.05 54.2 6.65 53.8 L6.05 51.85 Q5.25 48.75 4.2 47.6 3.0 46.35 2.6 45.0 L2.7 44.15 4.4 45.05 Q5.4 45.4 5.7 45.65 L5.7 45.25 5.6 45.3 Q4.8 44.55 4.8 43.85 4.8 42.5 5.65 42.5 L5.45 40.4 5.6 40.55 Q6.7 38.65 8.5 30.45 L9.85 24.0 9.9 24.0 Q10.45 24.0 11.15 23.2 M4.3 40.5 L3.8 43.8 3.0 44.0 2.1 43.85 Q2.0 43.9 2.0 43.15 2.55 37.65 3.75 36.8 L4.25 36.95 4.5 37.35 Q3.95 38.15 3.6 39.6 L4.3 40.5 M4.65 37.15 Q4.65 36.55 4.95 35.6 L5.55 33.4 5.5 31.15 5.75 32.8 Q5.75 34.75 5.35 36.55 L4.65 37.15 M4.95 27.6 L4.5 27.0 4.1 29.8 3.3 33.3 3.3 33.35 2.25 34.35 Q1.3 35.1 0.5 35.25 L0.25 35.2 0.15 34.4 Q0.95 30.5 1.75 29.45 L2.25 27.5 3.0 25.35 2.4 22.25 1.7 19.55 3.1 19.0 3.0 18.6 Q3.0 16.6 5.05 18.4 L5.0 17.5 6.4 18.3 9.25 14.0 Q9.9 14.25 9.9 15.3 L9.85 16.5 9.0 17.85 7.95 17.8 7.4 17.85 Q7.3 19.4 6.85 20.3 5.9 20.4 5.4 20.8 4.5 21.4 4.5 22.8 L4.55 23.8 Q4.2 24.4 4.2 25.75 L4.25 26.5 Q4.4 26.9 5.0 27.15 L5.15 27.1 4.95 27.6 M6.0 25.65 L6.1 26.05 5.65 26.5 6.0 25.65" fill="#fffbf7" fill-opacity="0.6" fill-rule="evenodd" stroke="none"/>
    <path d="M11.4 -16.9 L11.1 -17.25 11.15 -18.45 11.95 -18.5 Q12.85 -18.35 13.7 -17.1 14.7 -15.6 14.85 -14.25 L14.7 -13.85 14.1 -13.65 11.4 -16.9 M16.7 -6.55 L16.65 -6.35 16.4 -6.15 15.8 -6.05 Q15.1 -6.05 14.45 -7.85 L13.95 -9.55 Q13.95 -11.3 14.55 -10.95 L15.3 -9.95 16.8 -6.9 16.7 -6.55 M7.1 0.2 L7.05 0.05 7.1 -0.6 7.4 -0.6 8.25 -0.75 9.35 -0.6 9.5 1.05 Q9.35 1.35 8.6 1.35 8.1 1.35 7.55 0.8 L7.1 0.2 M-8.7 -7.45 Q-9.5 -4.45 -10.95 -3.9 L-11.3 -4.25 -11.7 -5.0 Q-11.7 -8.7 -10.1 -10.5 -8.55 -12.3 -8.55 -8.1 L-8.7 -7.45 M-12.4 -2.3 L-12.35 -1.55 -12.75 -0.35 -12.85 -0.25 Q-13.35 0.85 -13.8 1.05 L-14.25 0.9 -14.35 0.85 -14.55 0.15 -14.1 -1.4 Q-13.5 -2.4 -12.5 -2.45 L-12.4 -2.3 M12.0 21.85 L11.3 23.0 11.15 23.2 Q10.45 24.0 9.9 24.0 L9.85 24.0 8.5 30.45 Q6.7 38.65 5.6 40.55 L5.45 40.4 4.95 39.85 4.35 40.55 4.3 40.5 3.6 39.6 Q3.95 38.15 4.5 37.35 L4.65 37.15 5.35 36.55 Q5.75 34.75 5.75 32.8 L5.5 31.15 5.3 30.35 4.8 28.2 4.95 27.6 5.15 27.1 5.0 27.15 Q4.4 26.9 4.25 26.5 L4.2 25.75 Q4.2 24.4 4.55 23.8 L4.5 22.8 Q4.5 21.4 5.4 20.8 5.9 20.4 6.85 20.3 7.3 19.4 7.4 17.85 L7.95 17.8 9.0 17.85 9.05 17.85 9.15 17.95 9.2 18.4 9.2 18.45 Q9.2 19.15 8.65 20.3 L10.05 20.6 10.15 20.5 10.2 20.95 10.15 21.75 Q11.2 20.75 11.85 20.7 L11.95 20.85 12.05 21.4 12.0 21.85 M7.25 39.35 L7.5 39.0 8.25 39.65 8.25 42.95 8.25 46.5 7.5 46.85 Q6.9 46.3 6.8 45.1 L6.75 42.9 6.8 40.8 Q6.85 39.9 7.25 39.35 M6.0 25.65 L5.65 26.5 6.1 26.05 6.0 25.65" fill="#fffbf7" fill-opacity="0.9019608" fill-rule="evenodd" stroke="none"/>
  </g>
</svg>
