<?xml version="1.0" encoding="UTF-8" standalone="no"?>
<svg xmlns:xlink="http://www.w3.org/1999/xlink" height="86.1px" width="105.3px" xmlns="http://www.w3.org/2000/svg">
  <g transform="matrix(1.0, 0.0, 0.0, 1.0, 52.65, 43.05)">
    <path d="M-28.75 15.45 Q-23.8 12.7 -16.1 4.2 -11.85 -0.6 -9.3 -2.9 19.15 -32.55 12.45 -41.4 L11.45 -42.45 28.4 -41.4 Q18.3 -10.4 1.85 5.45 -18.95 32.45 -51.0 31.55 -50.8 29.3 -50.25 27.5 -48.35 19.85 -42.5 17.9 -37.55 19.25 -31.25 16.65 L-28.75 15.45" fill="#e5c6dd" fill-rule="evenodd" stroke="none"/>
    <path d="M28.4 -41.4 L28.5 -41.4 52.05 -40.0 Q38.3 -13.85 25.95 -2.9 L21.35 1.35 Q12.85 8.6 10.0 13.1 L9.8 13.5 9.05 14.9 Q8.6 19.5 6.6 23.4 1.65 32.65 -11.65 36.05 L-15.8 36.95 Q-31.75 40.25 -48.05 38.1 L-48.9 36.85 Q-51.1 32.65 -51.0 31.55 -18.95 32.45 1.85 5.45 18.3 -10.4 28.4 -41.4" fill="#d7bad0" fill-rule="evenodd" stroke="none"/>
    <path d="M-11.65 36.05 Q-20.5 42.55 -31.95 42.45 L-37.1 42.05 Q-45.3 41.35 -48.05 38.1 -31.75 40.25 -15.8 36.95 L-11.65 36.05 M-51.0 31.55 Q-51.8 29.45 -51.95 27.6 L-52.0 25.35 Q-51.55 19.5 -44.4 15.2 L-38.9 16.3 Q-37.55 13.7 -35.2 14.65 -32.0 15.75 -28.75 15.45 L-31.25 16.65 Q-37.55 19.25 -42.5 17.9 -48.35 19.85 -50.25 27.5 -50.8 29.3 -51.0 31.55 M-31.25 16.65 L-38.9 16.3 -31.25 16.65" fill="#c4a8bb" fill-rule="evenodd" stroke="none"/>
    <path d="M-28.75 15.45 Q-23.8 12.7 -16.1 4.2 -11.85 -0.6 -9.3 -2.9 19.15 -32.55 12.45 -41.4 L11.45 -42.45 M52.05 -40.0 Q38.3 -13.85 25.95 -2.9 L21.35 1.35 Q12.85 8.6 10.0 13.1 L9.8 13.5 9.05 14.9 Q8.6 19.5 6.6 23.4 1.65 32.65 -11.65 36.05 -20.5 42.55 -31.95 42.45 L-37.1 42.05 Q-45.3 41.35 -48.05 38.1 L-48.9 36.85 Q-51.1 32.65 -51.0 31.55 -51.8 29.45 -51.95 27.6 L-52.0 25.35 Q-51.55 19.5 -44.4 15.2 L-38.9 16.3 Q-37.55 13.7 -35.2 14.65 -32.0 15.75 -28.75 15.45 L-31.25 16.65 Q-37.55 19.25 -42.5 17.9 -48.35 19.85 -50.25 27.5 -50.8 29.3 -51.0 31.55 M-38.9 16.3 L-31.25 16.65" fill="none" stroke="#483e44" stroke-linecap="round" stroke-linejoin="round" stroke-width="1.2000000000000002"/>
  </g>
</svg>
