<?xml version="1.0" encoding="UTF-8" standalone="no"?>
<svg xmlns:xlink="http://www.w3.org/1999/xlink" height="32.95px" width="65.15px" xmlns="http://www.w3.org/2000/svg">
  <g transform="matrix(1.0, 0.0, 0.0, 1.0, 32.55, 16.5)">
    <path d="M-31.9 -4.0 Q0.65 -8.75 32.0 4.4 28.95 19.75 12.85 14.5 -9.0 4.0 -31.85 6.9 L-31.9 -4.0" fill="#d7bad0" fill-rule="evenodd" stroke="none"/>
    <path d="M-31.9 -4.0 L-31.95 -14.45 Q-3.6 -19.35 18.15 -7.9 27.05 -5.25 32.0 4.4 0.65 -8.75 -31.9 -4.0" fill="#e5c6dd" fill-rule="evenodd" stroke="none"/>
    <path d="M32.0 4.4 Q27.05 -5.25 18.15 -7.9 -3.6 -19.35 -31.95 -14.45 M-31.85 6.9 Q-9.0 4.0 12.85 14.5 28.95 19.75 32.0 4.4 Z" fill="none" stroke="#483e44" stroke-linecap="round" stroke-linejoin="round" stroke-width="1.2000000000000002"/>
  </g>
</svg>
