<?xml version="1.0" encoding="UTF-8" standalone="no"?>
<svg xmlns:xlink="http://www.w3.org/1999/xlink" height="92.3px" width="44.05px" xmlns="http://www.w3.org/2000/svg">
  <g transform="matrix(1.0, 0.0, 0.0, 1.0, 24.55, 47.15)">
    <path d="M18.1 -46.15 Q19.8 -29.9 17.8 -16.1 L15.15 0.0 Q4.25 29.2 -23.95 30.4 -20.45 25.8 -17.55 20.8 -9.6 19.5 0.4 6.55 10.35 -23.6 9.7 -46.25 L18.1 -46.15" fill="#d7bad0" fill-rule="evenodd" stroke="none"/>
    <path d="M15.15 0.0 Q11.45 18.7 5.8 34.5 -13.0 34.55 -23.95 30.4 4.25 29.2 15.15 0.0" fill="#c4a8bb" fill-rule="evenodd" stroke="none"/>
    <path d="M-17.55 20.8 Q-1.5 -7.1 -5.15 -46.55 L9.7 -46.25 Q10.35 -23.6 0.4 6.55 -9.6 19.5 -17.55 20.8" fill="#e5c6dd" fill-rule="evenodd" stroke="none"/>
    <path d="M18.1 -46.15 Q19.8 -29.9 17.8 -16.1 L15.15 0.0 Q11.45 18.7 5.8 34.5 M-23.95 30.4 Q-20.45 25.8 -17.55 20.8 -1.5 -7.1 -5.15 -46.55" fill="none" stroke="#483e44" stroke-linecap="round" stroke-linejoin="round" stroke-width="1.2000000000000002"/>
    <path d="M5.2 34.45 L5.2 34.4 Q5.2 33.75 5.85 33.85 6.45 33.95 6.35 34.5 L6.35 34.85 6.3 35.2 6.3 37.0 6.35 37.35 6.3 37.5 6.3 38.0 6.35 38.15 6.35 38.55 6.45 39.05 6.45 39.35 6.75 40.65 6.85 40.9 6.85 41.0 7.0 41.4 7.05 41.5 7.2 41.9 7.55 42.6 7.7 42.8 7.75 42.95 7.85 43.05 7.95 43.25 8.15 43.45 8.2 43.6 8.3 43.7 8.45 43.9 9.05 44.45 9.25 44.6 9.45 44.8 9.7 44.95 9.7 45.1 9.55 45.1 9.35 44.95 9.2 44.9 9.1 44.8 8.75 44.55 8.65 44.5 7.65 43.5 7.5 43.3 7.4 43.2 7.15 42.85 6.85 42.35 6.75 42.25 6.6 41.85 6.5 41.75 5.95 40.3 5.8 39.75 5.7 39.5 5.5 38.4 5.45 38.25 5.45 38.1 5.35 37.55 5.35 37.5 5.4 37.4 5.2 35.95 5.2 35.2 5.15 34.8 5.15 34.65 5.2 34.45" fill="#483e44" fill-rule="evenodd" stroke="none"/>
  </g>
</svg>
