<?xml version="1.0" encoding="UTF-8" standalone="no"?>
<svg xmlns:xlink="http://www.w3.org/1999/xlink" height="53.55px" width="103.0px" xmlns="http://www.w3.org/2000/svg">
  <g transform="matrix(1.0, 0.0, 0.0, 1.0, 50.4, 26.75)">
    <path d="M-49.8 -15.1 L-49.8 -26.05 -43.15 -26.1 Q6.1 -17.9 51.55 23.05 50.35 24.9 46.4 25.7 L38.45 26.05 Q32.55 6.15 -36.2 -14.45 L-39.25 -14.9 Q-44.45 -15.2 -49.8 -15.1" fill="#e5c6dd" fill-rule="evenodd" stroke="none"/>
    <path d="M-43.15 -26.1 Q3.1 -25.7 39.45 6.95 50.45 15.35 51.8 20.15 52.25 21.8 51.55 23.05 6.1 -17.9 -43.15 -26.1" fill="#e7d2e0" fill-rule="evenodd" stroke="none"/>
    <path d="M38.45 26.05 Q27.0 25.0 11.85 15.45 -25.9 -5.6 -49.8 -3.9 L-49.8 -15.1 Q-44.45 -15.2 -39.25 -14.9 L-36.2 -14.45 Q32.55 6.15 38.45 26.05" fill="#d7bad0" fill-rule="evenodd" stroke="none"/>
    <path d="M-49.8 -26.05 L-43.15 -26.1 Q3.1 -25.7 39.45 6.95 50.45 15.35 51.8 20.15 52.25 21.8 51.55 23.05 50.35 24.9 46.4 25.7 L38.45 26.05 Q27.0 25.0 11.85 15.45 -25.9 -5.6 -49.8 -3.9" fill="none" stroke="#483e44" stroke-linecap="round" stroke-linejoin="round" stroke-width="1.2000000000000002"/>
  </g>
</svg>
