<?xml version="1.0" encoding="UTF-8" standalone="no"?>
<svg xmlns:xlink="http://www.w3.org/1999/xlink" height="169.5px" width="152.95px" xmlns="http://www.w3.org/2000/svg">
  <g transform="matrix(1.0, 0.0, 0.0, 1.0, 76.7, 84.75)">
    <path d="M72.6 -61.85 L73.0 -61.0 Q75.7 -54.5 76.15 -46.45 L71.95 -35.85 Q65.9 -13.8 62.55 6.45 L62.25 7.25 62.1 7.55 61.85 8.15 61.75 8.35 61.5 8.85 Q56.85 16.95 50.7 22.85 L49.7 23.8 49.65 23.8 48.4 24.9 Q32.9 38.2 2.5 50.95 -2.1 51.7 -6.7 50.95 L-21.0 49.15 Q-8.3 51.85 -3.45 56.55 1.85 57.55 5.05 70.05 6.85 76.55 6.05 84.15 4.15 82.6 3.0 79.55 2.45 78.1 2.05 76.35 1.8 77.9 -0.3 79.55 -1.2 80.2 -4.05 80.9 L-23.6 76.7 Q-13.8 59.35 -44.45 46.15 17.3 30.55 37.6 -2.0 42.9 -10.5 45.4 -20.15 57.4 -66.85 25.9 -83.95 45.0 -85.35 63.05 -74.4 69.3 -69.15 72.6 -61.85" fill="#d7bad0" fill-rule="evenodd" stroke="none"/>
    <path d="M-66.05 54.1 Q-67.6 53.1 -69.45 52.4 -74.35 49.25 -76.1 43.25 -75.7 29.4 -72.0 15.85 -72.85 41.45 -66.05 54.1 M-26.1 -45.8 L-22.6 -49.9 -25.95 -48.6 Q-20.4 -54.7 -14.45 -58.9 L-14.25 -59.1 -6.45 -66.9 Q5.6 -73.05 9.45 -72.8 11.1 -72.7 11.2 -71.3 3.9 -65.4 -3.3 -58.85 -7.75 -55.1 -12.1 -48.2 L-10.7 -51.9 Q-17.35 -45.6 -23.05 -38.75 L-27.9 -27.35 Q-29.15 -27.65 -27.75 -31.0 -32.05 -28.15 -35.9 -23.15 L-35.95 -25.5 -41.2 -24.1 Q-43.35 -23.4 -44.2 -22.75 -35.45 -34.65 -27.35 -44.3 L-26.1 -45.8" fill="#e7d2e0" fill-rule="evenodd" stroke="none"/>
    <path d="M-23.6 76.7 L-34.05 74.45 -36.85 73.35 -40.7 71.75 -41.85 71.25 -42.55 70.9 -43.15 70.6 -42.55 70.9 -56.55 63.35 -58.7 61.6 -60.95 59.4 -60.4 60.05 -61.05 59.25 Q-62.8 56.1 -66.05 54.1 -72.85 41.45 -72.0 15.85 L-71.7 14.8 Q-69.3 6.35 -65.55 -2.0 L-64.15 -5.1 -28.3 -54.5 -28.1 -54.7 -22.4 -60.3 -11.15 -70.4 Q7.85 -82.7 25.9 -83.95 57.4 -66.85 45.4 -20.15 42.9 -10.5 37.6 -2.0 17.3 30.55 -44.45 46.15 -13.8 59.35 -23.6 76.7 M-27.35 -44.3 Q-35.45 -34.65 -44.2 -22.75 -43.35 -23.4 -41.2 -24.1 L-35.95 -25.5 -35.9 -23.15 Q-32.05 -28.15 -27.75 -31.0 -29.15 -27.65 -27.9 -27.35 L-23.05 -38.75 Q-17.35 -45.6 -10.7 -51.9 L-12.1 -48.2 Q-7.75 -55.1 -3.3 -58.85 3.9 -65.4 11.2 -71.3 11.1 -72.7 9.45 -72.8 5.6 -73.05 -6.45 -66.9 L-14.25 -59.1 -14.45 -58.9 Q-20.4 -54.7 -25.95 -48.6 L-22.6 -49.9 -26.1 -45.8 -27.55 -44.25 -27.35 -44.3" fill="#e5c6dd" fill-rule="evenodd" stroke="none"/>
    <path d="M2.5 50.95 Q8.15 55.25 13.75 65.75 9.85 65.55 5.55 61.2 10.5 71.35 9.4 75.85 7.35 74.3 5.05 70.05 1.85 57.55 -3.45 56.55 -8.3 51.85 -21.0 49.15 L-6.7 50.95 Q-2.1 51.7 2.5 50.95" fill="#c4a8bb" fill-rule="evenodd" stroke="none"/>
    <path d="M49.65 23.8 L48.4 24.9 Q32.9 38.2 2.5 50.95 M-42.55 70.9 L-56.55 63.35 -58.7 61.6 -60.95 59.4 -60.4 60.05 -61.05 59.25 Q-62.8 56.1 -66.05 54.1 -67.6 53.1 -69.45 52.4 -74.35 49.25 -76.1 43.25 -75.7 29.4 -72.0 15.85 L-71.7 14.8 M-11.15 -70.4 Q7.85 -82.7 25.9 -83.95 45.0 -85.35 63.05 -74.4 69.3 -69.15 72.6 -61.85" fill="none" stroke="#483e44" stroke-linecap="round" stroke-linejoin="round" stroke-width="1.2000000000000002"/>
    <path d="M2.5 50.95 Q8.15 55.25 13.75 65.75 9.85 65.55 5.55 61.2 10.5 71.35 9.4 75.85 7.35 74.3 5.05 70.05 6.85 76.55 6.05 84.15 4.15 82.6 3.0 79.55 2.45 78.1 2.05 76.35" fill="none" stroke="#483e44" stroke-linecap="round" stroke-linejoin="miter-clip" stroke-miterlimit="5.0" stroke-width="1.2000000000000002"/>
    <path d="M-42.75 71.45 L-42.8 71.4 Q-43.35 71.1 -43.1 70.6 -42.85 70.1 -42.3 70.3 L-41.9 70.5 -41.55 70.75 -41.6 70.7 -36.4 73.25 -34.0 74.35 Q-33.85 74.35 -33.95 74.45 -33.95 74.6 -34.05 74.5 L-42.05 71.75 -42.1 71.7 -42.6 71.5 -42.7 71.45 -42.75 71.45 M-64.2 -5.1 L-64.1 -5.15 -64.05 -5.05 -65.35 -1.95 -65.35 -1.9 -67.65 3.85 -67.8 4.35 -68.0 4.8 -71.1 14.95 Q-71.25 15.55 -71.85 15.35 -72.4 15.2 -72.25 14.6 L-72.0 13.75 -65.8 -1.75 -65.75 -1.95 -65.7 -2.05 -65.65 -2.1 -64.65 -4.3 -64.2 -5.1 M-28.2 -54.4 L-28.35 -54.4 -28.35 -54.55 -20.1 -62.9 -11.5 -70.85 -10.65 -70.75 Q-10.3 -70.35 -10.75 -69.9 L-28.2 -54.4 M-4.0 80.95 L-4.1 80.9 -4.05 80.8 -3.7 80.65 -2.85 80.4 -0.75 79.45 -0.6 79.35 -0.5 79.3 -0.5 79.25 -0.45 79.25 -0.35 79.1 -0.2 79.0 0.0 78.75 0.45 78.2 1.15 77.25 1.4 76.5 1.4 76.3 1.45 76.25 1.45 76.15 Q1.65 75.55 2.2 75.7 L2.55 75.95 2.6 76.4 2.6 76.55 2.55 76.65 2.45 77.0 2.05 77.75 1.6 78.3 0.25 79.55 0.05 79.65 -0.05 79.8 -0.1 79.8 -0.15 79.85 -0.25 79.9 -0.4 80.0 -2.15 80.6 -2.75 80.7 -3.25 80.85 -4.0 80.95 M2.4 50.35 L2.45 50.3 Q3.0 50.3 3.1 50.85 3.2 51.5 2.55 51.5 L2.15 51.55 1.95 51.6 1.4 51.6 1.1 51.65 0.4 51.65 0.0 51.7 -4.2 51.45 -6.7 51.0 -6.75 50.9 -6.65 50.85 -6.25 50.85 -6.05 50.9 -5.8 50.9 -5.55 50.95 -4.9 50.95 -4.55 51.0 -2.95 51.0 2.4 50.35 M50.1 24.2 Q49.65 24.65 49.25 24.2 48.85 23.8 49.25 23.35 L50.35 22.35 50.6 22.15 53.5 19.2 57.35 14.65 57.5 14.4 57.7 14.2 58.75 12.75 61.35 8.75 61.7 8.05 61.7 8.1 61.95 7.45 61.95 7.5 62.15 7.15 62.1 7.2 62.45 6.4 Q62.45 6.25 62.55 6.35 L62.6 6.45 62.35 7.25 62.35 7.3 62.3 7.3 62.2 7.55 62.2 7.6 61.95 8.15 61.95 8.2 58.55 14.05 58.0 14.8 57.85 15.05 54.0 20.05 53.8 20.25 51.05 23.25 50.9 23.35 50.1 24.2 M72.05 -61.55 L72.0 -61.6 Q71.8 -62.15 72.35 -62.4 L72.8 -62.4 73.1 -62.1 74.55 -58.05 75.8 -52.05 75.9 -51.35 75.9 -51.1 76.2 -46.45 76.15 -46.35 Q76.05 -46.25 76.05 -46.4 L75.35 -51.25 75.35 -51.5 74.8 -54.0 74.7 -54.2 74.5 -55.1 74.35 -55.55 74.3 -55.8 74.1 -56.45 74.0 -56.65 73.95 -56.9 73.35 -58.65 72.05 -61.55" fill="#483e44" fill-rule="evenodd" stroke="none"/>
  </g>
</svg>
