<?xml version="1.0" encoding="UTF-8" standalone="no"?>
<svg xmlns:xlink="http://www.w3.org/1999/xlink" height="115.65px" width="36.75px" xmlns="http://www.w3.org/2000/svg">
  <g transform="matrix(1.0, 0.0, 0.0, 1.0, 13.75, 53.1)">
    <path d="M21.3 -10.85 Q10.95 -36.65 1.95 -39.85 L5.35 -33.55 Q7.4 -25.05 8.9 -16.65 9.4 -6.4 8.65 5.4 10.75 3.95 11.35 0.8 15.85 3.55 12.55 35.05 9.15 47.5 2.85 59.85 -8.35 0.45 -9.85 -52.15 L8.1 -49.9 Q20.15 -37.55 22.05 -24.45 23.0 -17.75 21.3 -10.85 M4.5 38.9 Q6.45 34.9 6.25 30.3 3.35 11.55 3.45 24.3 5.25 30.7 4.5 38.9" fill="#e5c6dd" fill-rule="evenodd" stroke="none"/>
    <path d="M5.35 -33.55 L1.95 -39.85 Q10.95 -36.65 21.3 -10.85 L20.7 -8.65 Q18.3 -13.85 15.4 -18.9 L12.2 -24.1 Q8.6 -30.7 5.35 -33.55 M-9.85 -52.15 Q-8.35 0.45 2.85 59.85 L1.75 61.95 Q-12.5 9.65 -13.1 -39.35 L-13.05 -52.5 -9.85 -52.15" fill="#e7d2e0" fill-rule="evenodd" stroke="none"/>
    <path d="M12.55 35.05 Q15.85 3.55 11.35 0.8 10.75 3.95 8.65 5.4 9.4 -6.4 8.9 -16.65 7.4 -25.05 5.35 -33.55 8.6 -30.7 12.2 -24.1 L13.85 -17.6 Q19.7 8.75 12.55 35.05 M4.5 38.9 Q5.25 30.7 3.45 24.3 3.35 11.55 6.25 30.3 6.45 34.9 4.5 38.9" fill="#d7bad0" fill-rule="evenodd" stroke="none"/>
    <path d="M21.3 -10.85 Q23.0 -17.75 22.05 -24.45 20.15 -37.55 8.1 -49.9 M2.85 59.85 Q9.15 47.5 12.55 35.05 19.7 8.75 13.85 -17.6 L12.2 -24.1 15.4 -18.9 Q18.3 -13.85 20.7 -8.65 L21.3 -10.85 M-13.05 -52.5 L-13.1 -39.35 Q-12.5 9.65 1.75 61.95 L2.85 59.85" fill="none" stroke="#483e44" stroke-linecap="round" stroke-linejoin="round" stroke-width="1.2000000000000002"/>
    <path d="M5.25 -33.45 L5.25 -33.6 5.4 -33.6 5.8 -33.3 6.5 -32.65 6.75 -32.35 7.55 -31.55 11.25 -26.7 12.7 -24.35 12.75 -24.3 Q12.95 -23.75 12.45 -23.5 11.95 -23.25 11.65 -23.8 L11.45 -24.25 8.85 -28.9 6.0 -32.7 5.25 -33.45" fill="#483e44" fill-rule="evenodd" stroke="none"/>
  </g>
</svg>
