<?xml version="1.0" encoding="UTF-8" standalone="no"?>
<svg xmlns:xlink="http://www.w3.org/1999/xlink" height="91.45px" width="145.9px" xmlns="http://www.w3.org/2000/svg">
  <g transform="matrix(1.0, 0.0, 0.0, 1.0, 94.05, 45.7)">
    <path d="M46.5 -45.1 L47.2 -32.7 Q28.3 -32.9 -64.5 22.75 -77.4 20.75 -93.35 14.3 -85.4 12.5 -66.45 16.5 -46.1 8.0 -23.6 -7.15 -1.2 -22.35 46.5 -45.1" fill="#e7d2e0" fill-rule="evenodd" stroke="none"/>
    <path d="M-3.95 43.05 Q-34.55 45.45 -58.8 36.8 -75.65 30.8 -84.75 23.95 -64.45 33.65 -44.45 37.1 -23.8 41.1 -3.95 43.05" fill="#d7bad0" fill-rule="evenodd" stroke="none"/>
    <path d="M49.4 9.5 L51.25 44.85 Q24.4 45.95 -3.95 43.05 -23.8 41.1 -44.45 37.1 -13.15 18.9 49.4 9.5" fill="url(#gradient0)" fill-rule="evenodd" stroke="none"/>
    <path d="M-93.35 14.3 Q-77.4 20.75 -64.5 22.75 28.3 -32.9 47.2 -32.7 L49.4 9.5 Q-13.15 18.9 -44.45 37.1 -64.45 33.65 -84.75 23.95 -90.85 19.35 -93.45 14.3 L-93.35 14.3" fill="#e5c6dd" fill-rule="evenodd" stroke="none"/>
    <path d="M46.5 -45.1 Q-1.2 -22.35 -23.6 -7.15 -46.1 8.0 -66.45 16.5 -85.4 12.5 -93.35 14.3 L-93.45 14.3 Q-90.85 19.35 -84.75 23.95 -75.65 30.8 -58.8 36.8 -34.55 45.45 -3.95 43.05 -23.8 41.1 -44.45 37.1 -13.15 18.9 49.4 9.5 M51.25 44.85 Q24.4 45.95 -3.95 43.05" fill="none" stroke="#483e44" stroke-linecap="round" stroke-linejoin="round" stroke-width="1.2000000000000002"/>
  </g>
  <defs>
    <radialGradient cx="0" cy="0" gradientTransform="matrix(0.005, -0.0543, 0.115, 0.0106, 18.0, 16.65)" gradientUnits="userSpaceOnUse" id="gradient0" r="819.2" spreadMethod="pad">
      <stop offset="0.42745098039215684" stop-color="#485769"/>
      <stop offset="0.6509803921568628" stop-color="#567fa2"/>
    </radialGradient>
  </defs>
</svg>
