<?xml version="1.0" encoding="UTF-8" standalone="no"?>
<svg xmlns:xlink="http://www.w3.org/1999/xlink" height="27.45px" width="19.45px" xmlns="http://www.w3.org/2000/svg">
  <g transform="matrix(1.0, 0.0, 0.0, 1.0, 9.7, 13.75)">
    <path d="M7.15 -2.2 Q9.9 2.1 9.75 6.45 9.65 10.8 6.65 12.7 3.7 14.6 -0.3 12.95 -4.3 11.3 -7.1 7.1 -9.8 2.8 -9.7 -1.5 -9.55 -5.85 -6.65 -7.75 -3.7 -9.65 0.35 -8.05 4.45 -6.4 7.15 -2.2" fill="url(#gradient0)" fill-rule="evenodd" stroke="none"/>
    <path d="M7.6 -8.15 Q9.95 -4.65 9.75 -1.1 9.65 2.6 7.2 4.25 4.75 5.8 1.3 4.35 -2.1 3.05 -4.4 -0.45 -6.65 -4.0 -6.5 -7.7 -6.3 -11.25 -3.85 -12.85 -1.4 -14.5 1.95 -13.15 5.4 -11.75 7.6 -8.15" fill="url(#gradient1)" fill-rule="evenodd" stroke="none"/>
  </g>
  <defs>
    <radialGradient cx="0" cy="0" gradientTransform="matrix(0.0134, -0.0077, 0.0077, 0.0134, -0.05, 2.45)" gradientUnits="userSpaceOnUse" id="gradient0" r="819.2" spreadMethod="pad">
      <stop offset="0.19607843137254902" stop-color="#4b447e"/>
      <stop offset="0.8588235294117647" stop-color="#4b447e"/>
    </radialGradient>
    <radialGradient cx="0" cy="0" gradientTransform="matrix(0.0079, -0.0045, 0.0064, 0.0111, 1.65, -4.35)" gradientUnits="userSpaceOnUse" id="gradient1" r="819.2" spreadMethod="pad">
      <stop offset="0.5843137254901961" stop-color="#ffffff"/>
      <stop offset="1.0" stop-color="#ffffff" stop-opacity="0.0"/>
    </radialGradient>
  </defs>
</svg>
