<?xml version="1.0" encoding="UTF-8" standalone="no"?>
<svg xmlns:xlink="http://www.w3.org/1999/xlink" height="24.95px" width="18.35px" xmlns="http://www.w3.org/2000/svg">
  <g transform="matrix(1.0, 0.0, 0.0, 1.0, 9.2, 12.45)">
    <path d="M9.15 0.95 Q9.35 5.6 7.25 9.0 5.15 12.35 1.9 12.5 -1.3 12.65 -3.65 9.55 -6.1 6.4 -6.4 1.75 -6.55 -2.85 -4.55 -6.2 -2.4 -9.55 0.75 -9.75 3.95 -9.9 6.45 -6.75 8.9 -3.55 9.15 0.95" fill="url(#gradient0)" fill-rule="evenodd" stroke="none"/>
    <path d="M3.75 -3.55 Q4.05 0.3 2.25 3.0 0.5 5.9 -2.2 6.1 -4.85 6.2 -6.9 3.5 -9.0 0.9 -9.2 -2.9 -9.4 -6.75 -7.6 -9.6 -5.8 -12.35 -3.15 -12.45 -0.45 -12.7 1.6 -10.05 3.7 -7.4 3.75 -3.55" fill="url(#gradient1)" fill-rule="evenodd" stroke="none"/>
  </g>
  <defs>
    <radialGradient cx="0" cy="0" gradientTransform="matrix(0.0141, 0.0, 0.0, 0.0141, 1.3, 1.35)" gradientUnits="userSpaceOnUse" id="gradient0" r="819.2" spreadMethod="pad">
      <stop offset="0.19607843137254902" stop-color="#4b447e"/>
      <stop offset="0.8588235294117647" stop-color="#4b447e"/>
    </radialGradient>
    <radialGradient cx="0" cy="0" gradientTransform="matrix(0.0083, 0.0, 0.0, 0.0117, -2.7, -3.25)" gradientUnits="userSpaceOnUse" id="gradient1" r="819.2" spreadMethod="pad">
      <stop offset="0.5843137254901961" stop-color="#ffffff"/>
      <stop offset="1.0" stop-color="#ffffff" stop-opacity="0.0"/>
    </radialGradient>
  </defs>
</svg>
