<?xml version="1.0" encoding="UTF-8" standalone="no"?>
<svg xmlns:xlink="http://www.w3.org/1999/xlink" height="163.5px" width="151.75px" xmlns="http://www.w3.org/2000/svg">
  <g transform="matrix(1.0, 0.0, 0.0, 1.0, 75.7, 80.95)">
    <path d="M35.2 -21.55 Q18.9 -22.45 12.15 -19.55 -3.5 -14.3 -5.35 -0.65 -3.95 8.05 -1.05 9.95 -0.4 12.4 1.6 12.95 L3.75 16.7 Q36.5 10.4 35.95 -13.55 L36.0 -14.1 Q36.25 -17.7 35.2 -21.55 M52.15 -48.2 Q74.05 -22.05 75.35 0.6 76.45 19.1 65.75 44.0 L64.8 46.2 Q63.35 49.1 61.4 50.75 52.35 59.05 44.65 65.2 28.8 77.85 18.55 81.3 L15.25 81.4 Q36.3 70.8 20.9 65.15 7.4 63.65 -6.25 58.9 -8.7 60.35 -11.1 60.85 L-13.85 61.35 -15.25 61.6 -16.5 61.75 -16.65 61.75 Q-24.4 56.2 -30.1 49.25 L-33.75 48.6 Q-25.6 28.75 -27.7 23.3 -29.95 15.4 -37.25 6.35 -38.95 -0.9 -36.15 -6.3 L-34.3 -30.45 Q-22.4 -63.8 13.1 -79.55 40.75 -63.15 48.9 -52.0 L52.15 -48.2 M63.7 48.6 L62.7 49.55 63.75 48.55 63.7 48.6 M6.05 55.05 Q2.85 57.15 -6.25 58.9 2.85 57.15 6.05 55.05" fill="#d7bad0" fill-rule="evenodd" stroke="none"/>
    <path d="M-1.05 9.95 Q-3.95 8.05 -5.35 -0.65 -3.5 -14.3 12.15 -19.55 18.9 -22.45 35.2 -21.55 2.05 -18.55 -1.35 4.7 -1.65 7.95 -1.05 9.95 M-16.75 -78.85 Q-3.0 -81.4 13.1 -79.55 -22.4 -63.8 -34.3 -30.45 L-36.15 -6.3 Q-38.95 -0.9 -37.25 6.35 -29.95 15.4 -27.7 23.3 -25.6 28.75 -33.75 48.6 L-30.1 49.25 Q-24.4 56.2 -16.65 61.75 L-16.5 61.75 -15.25 61.6 -13.85 61.35 -11.1 60.85 Q-8.7 60.35 -6.25 58.9 7.4 63.65 20.9 65.15 36.3 70.8 15.25 81.4 L5.45 80.65 Q-48.6 66.25 -59.85 50.7 -61.0 45.9 -60.0 41.85 -46.2 35.8 -45.35 29.7 -42.0 26.05 -45.35 22.35 -45.0 16.25 -49.65 13.35 -56.7 8.25 -65.35 10.95 -84.4 -47.0 -16.75 -78.85 M-36.45 34.45 L-37.5 40.35 Q-37.05 50.75 -34.05 38.55 -31.1 26.35 -36.45 34.45" fill="#e5c6dd" fill-rule="evenodd" stroke="none"/>
    <path d="M35.95 -13.55 Q36.5 10.4 3.75 16.7 L1.6 12.95 4.75 12.8 Q34.25 2.7 35.95 -13.55" fill="#c4a8bb" fill-rule="evenodd" stroke="none"/>
    <path d="M18.55 81.3 L14.75 81.65 Q8.85 82.55 5.25 81.75 -41.95 76.0 -64.2 52.05 -68.0 43.55 -66.3 36.55 L-57.25 36.05 Q-50.45 34.55 -45.35 29.7 -46.2 35.8 -60.0 41.85 -61.0 45.9 -59.85 50.7 -48.6 66.25 5.45 80.65 L15.25 81.4 18.55 81.3 M-71.2 15.3 Q-75.25 13.9 -75.25 5.55 -76.0 -12.1 -73.55 -20.45 L-71.45 -38.5 -71.1 -39.05 Q-63.5 -51.75 -53.85 -60.5 -38.0 -74.95 -16.75 -78.85 -84.4 -47.0 -65.35 10.95 -56.7 8.25 -49.65 13.35 -45.0 16.25 -45.35 22.35 -58.05 10.95 -71.1 15.3 L-71.2 15.3 M-36.45 34.45 Q-31.1 26.35 -34.05 38.55 -37.05 50.75 -37.5 40.35 L-36.45 34.45" fill="#e7d2e0" fill-rule="evenodd" stroke="none"/>
    <path d="M35.2 -21.55 Q36.25 -17.7 36.0 -14.1 M1.6 12.95 Q-0.4 12.4 -1.05 9.95 -1.65 7.95 -1.35 4.7 2.05 -18.55 35.2 -21.55 M52.15 -48.2 Q74.05 -22.05 75.35 0.6 76.45 19.1 65.75 44.0 M5.25 81.75 Q-41.95 76.0 -64.2 52.05 -68.0 43.55 -66.3 36.55 -70.35 30.8 -71.1 22.1 -71.4 18.9 -71.2 15.3 L-71.1 15.3 Q-58.05 10.95 -45.35 22.35 -42.0 26.05 -45.35 29.7 -50.45 34.55 -57.25 36.05 L-66.3 36.55 M-71.45 -38.5 L-71.1 -39.05 Q-63.5 -51.75 -53.85 -60.5 -38.0 -74.95 -16.75 -78.85 -3.0 -81.4 13.1 -79.55 M1.6 12.95 L4.75 12.8 Q34.25 2.7 35.95 -13.55 M-11.1 60.85 Q-8.7 60.35 -6.25 58.9 2.85 57.15 6.05 55.05" fill="none" stroke="#483e44" stroke-linecap="round" stroke-linejoin="round" stroke-width="1.2000000000000002"/>
    <path d="M52.95 -48.85 L52.15 -48.2" fill="none" stroke="#483e44" stroke-linecap="round" stroke-linejoin="round" stroke-width="0.05"/>
    <path d="M-16.45 62.0 Q-16.75 62.1 -16.75 61.8 -16.85 61.45 -16.5 61.45 L-14.1 60.95 -14.0 60.9 -13.9 60.9 -13.6 60.8 -11.15 60.25 -11.1 60.2 Q-10.55 60.2 -10.45 60.75 L-10.55 61.2 Q-10.7 61.4 -10.95 61.4 L-11.0 61.4 -13.2 61.7 -13.45 61.7 -13.65 61.75 -13.8 61.75 -13.95 61.8 -14.2 61.85 -16.45 62.0 M-65.3 11.0 L-65.4 10.95 -65.35 10.85 -65.2 10.75 -65.0 10.65 -64.35 10.4 -63.9 10.3 -62.9 10.0 -62.3 9.85 -61.95 9.8 -61.65 9.7 -60.2 9.55 -59.85 9.55 -59.45 9.5 -59.05 9.5 -58.7 9.55 -57.1 9.65 -54.1 10.45 -52.75 11.05 -52.6 11.1 -52.45 11.2 -50.75 12.25 -50.4 12.55 -50.1 12.75 -50.0 12.85 -49.85 12.95 -49.55 13.25 -49.55 13.35 Q-49.55 13.55 -49.7 13.4 L-50.3 13.05 -54.05 11.4 -55.4 11.0 -55.8 10.95 -57.25 10.65 -58.0 10.55 -58.35 10.55 -58.75 10.5 -60.7 10.45 -60.85 10.5 -61.55 10.5 -63.8 10.75 -65.3 11.0 M5.1 82.3 L5.05 82.3 Q4.5 82.2 4.6 81.6 4.8 81.0 5.35 81.15 L5.5 81.15 5.8 81.25 5.9 81.25 6.2 81.35 6.5 81.4 6.7 81.4 6.9 81.45 8.85 81.65 13.7 81.5 14.0 81.45 14.3 81.45 14.55 81.4 14.7 81.4 14.85 81.35 16.45 81.3 18.5 81.2 Q18.6 81.1 18.6 81.25 L18.55 81.35 14.9 81.85 14.75 81.85 14.65 81.9 12.55 82.25 9.45 82.55 7.25 82.55 6.8 82.5 6.35 82.5 5.7 82.4 5.55 82.4 5.45 82.35 5.25 82.35 5.1 82.3 M6.35 55.5 L6.3 55.55 Q5.8 55.9 5.45 55.35 5.2 54.8 5.7 54.55 L5.9 54.4 6.1 54.3 7.95 53.15 8.55 52.7 8.7 52.55 9.05 52.3 9.2 52.15 9.5 51.95 9.6 51.8 9.8 51.65 9.9 51.5 9.95 51.45 Q10.05 51.25 10.25 51.45 L10.35 51.75 10.3 51.85 10.2 51.95 9.9 52.35 9.65 52.6 9.5 52.8 7.05 55.0 6.75 55.2 6.55 55.4 6.35 55.5 M61.45 50.8 L61.3 50.8 61.3 50.65 62.0 49.95 63.3 48.1 64.35 46.05 64.35 46.0 64.45 45.8 65.15 43.75 65.2 43.7 Q65.5 43.15 66.0 43.4 66.55 43.7 66.3 44.2 L65.45 45.9 65.25 46.2 65.2 46.35 65.2 46.4 65.15 46.4 65.15 46.45 65.1 46.55 63.8 48.45 62.85 49.55 62.2 50.15 62.05 50.35 61.85 50.45 61.7 50.6 61.5 50.75 61.45 50.8 M52.6 -48.55 L52.65 -48.45 52.75 -48.0 52.5 -47.65 Q52.0 -47.3 51.65 -47.8 L48.8 -51.9 48.8 -52.05 48.95 -52.05 52.6 -48.55 M12.1 -19.6 L12.2 -19.55 12.15 -19.45 9.85 -18.4 7.0 -16.9 6.55 -16.6 4.65 -15.4 2.7 -13.95 0.85 -12.3 0.0 -11.4 -0.15 -11.15 -1.65 -9.2 -1.95 -8.75 -2.85 -7.25 -2.95 -7.0 -3.1 -6.75 -3.2 -6.5 -4.6 -3.05 -4.8 -2.35 -4.85 -2.05 -4.95 -1.75 -5.15 -0.9 -5.25 -0.6 -5.35 -0.55 -5.4 -0.65 -5.4 -1.3 -5.35 -1.55 -5.35 -1.8 -5.0 -4.0 -4.75 -4.9 -4.6 -5.4 -4.55 -5.65 -4.45 -5.85 -3.6 -7.95 -3.05 -9.05 -2.4 -10.1 -1.65 -11.15 0.0 -13.15 1.95 -14.85 3.4 -15.9 3.5 -15.95 5.6 -17.2 5.7 -17.25 5.85 -17.3 9.25 -18.8 11.8 -19.55 12.1 -19.6 M-70.95 14.7 Q-70.4 14.95 -70.6 15.5 -70.85 16.05 -71.4 15.85 L-71.9 15.6 -72.05 15.55 -72.15 15.45 -72.3 15.4 -72.95 14.95 -73.6 14.25 -74.2 13.35 -75.15 11.0 -75.6 8.15 -75.7 5.75 -75.65 5.55 -75.7 5.5 -75.45 -9.55 -75.4 -9.75 -75.4 -9.95 -75.3 -11.15 -73.75 -20.05 -73.6 -20.45 -73.5 -20.5 -73.45 -20.4 -74.45 -15.3 -74.9 -10.35 -74.9 -9.95 -74.95 -9.75 -74.8 5.5 -74.75 5.55 -74.65 8.05 -74.15 10.75 -73.25 12.8 -72.75 13.55 -72.2 14.05 -71.7 14.4 -71.4 14.55 -71.35 14.55 -71.25 14.6 -71.2 14.65 -71.05 14.7 -70.95 14.7" fill="#483e44" fill-rule="evenodd" stroke="none"/>
    <path d="M-29.6 47.25 Q-28.2 47.75 -30.1 49.25 -32.25 49.65 -33.75 48.55 -34.3 47.9 -29.6 47.25" fill="#231419" fill-rule="evenodd" stroke="none"/>
    <path d="M-27.95 -20.45 Q-27.4 -15.25 -30.05 -11.15 -32.65 -6.95 -36.85 -6.2 -41.0 -5.4 -44.3 -8.55 -47.6 -11.65 -48.15 -16.8 -48.65 -21.95 -46.05 -26.15 -43.45 -30.3 -39.3 -31.05 -35.1 -31.8 -31.8 -28.75 -28.45 -25.65 -27.95 -20.45" fill="url(#gradient0)" fill-rule="evenodd" stroke="none"/>
    <path d="M-27.95 -20.45 Q-27.4 -15.25 -30.05 -11.15 -32.65 -6.95 -36.85 -6.2 -41.0 -5.4 -44.3 -8.55 -47.6 -11.65 -48.15 -16.8 -48.65 -21.95 -46.05 -26.15 -43.45 -30.3 -39.3 -31.05 -35.1 -31.8 -31.8 -28.75 -28.45 -25.65 -27.95 -20.45 Z" fill="none" stroke="#483e44" stroke-linecap="round" stroke-linejoin="round" stroke-width="1.2000000000000002"/>
  </g>
  <defs>
    <radialGradient cx="0" cy="0" gradientTransform="matrix(0.0139, -0.0011, 0.0, 0.0187, -42.75, -20.75)" gradientUnits="userSpaceOnUse" id="gradient0" r="819.2" spreadMethod="pad">
      <stop offset="0.0" stop-color="#fbf6f8"/>
      <stop offset="0.3254901960784314" stop-color="#a83a54"/>
      <stop offset="0.7294117647058823" stop-color="#a83a54"/>
      <stop offset="1.0" stop-color="#d35f62"/>
    </radialGradient>
  </defs>
</svg>
