<?xml version="1.0" encoding="UTF-8" standalone="no"?>
<svg xmlns:xlink="http://www.w3.org/1999/xlink" height="58.3px" width="119.65px" xmlns="http://www.w3.org/2000/svg">
  <g transform="matrix(1.0, 0.0, 0.0, 1.0, 62.0, 32.95)">
    <path d="M17.1 11.45 Q10.7 0.35 21.55 -11.95 32.4 -24.25 54.05 -24.7 18.0 -16.75 17.1 11.45 M-53.4 14.8 L-53.15 11.85 Q-44.8 8.8 -35.05 13.35 -25.3 17.9 -24.75 24.75 -40.75 9.5 -53.4 14.8" fill="#d7bad0" fill-rule="evenodd" stroke="none"/>
    <path d="M54.05 -24.7 Q18.0 -16.75 17.1 11.45 M-24.75 24.75 Q-40.75 9.5 -53.4 14.8 L-53.65 14.9" fill="none" stroke="#483e44" stroke-linecap="round" stroke-linejoin="miter-clip" stroke-miterlimit="5.0" stroke-width="1.2000000000000002"/>
    <path d="M-58.25 11.85 L-58.2 11.75 Q-58.2 11.7 -58.1 11.8 L-58.05 11.85 -57.95 12.05 -57.85 12.15 -57.75 12.3 -57.45 12.6 -56.6 13.2 -56.05 13.45 -54.85 13.8 -53.2 14.0 -52.05 14.0 -51.65 14.2 -51.55 14.65 Q-51.55 15.25 -52.2 15.15 L-52.5 15.15 -53.4 15.0 -53.35 15.4 Q-53.35 15.75 -53.65 16.0 L-54.25 16.25 -54.8 16.25 -55.0 16.25 -55.1 16.25 -55.15 16.25 -55.65 16.5 -55.75 16.5 -55.8 16.55 -55.85 16.55 -56.45 16.95 -56.65 17.05 -56.85 17.25 -56.95 17.3 -57.0 17.4 -57.1 17.5 -57.2 17.55 -57.65 18.15 -57.85 18.55 -57.95 18.7 -57.95 18.8 -58.0 18.9 -58.1 19.25 -58.1 19.4 -58.15 19.5 -58.2 19.75 Q-58.2 20.1 -58.5 20.0 -58.85 20.0 -58.75 19.7 L-58.75 19.15 -58.65 18.75 -58.65 18.6 -58.6 18.5 -58.55 18.25 -58.35 17.75 -58.05 17.25 -57.85 17.0 -57.75 16.9 -57.65 16.75 -57.05 16.15 -56.7 15.9 -57.0 15.8 -57.85 15.4 -58.35 15.05 -58.45 14.95 -58.6 14.85 -58.7 14.75 -58.8 14.7 -58.9 14.6 -59.05 14.5 -59.25 14.3 -59.35 14.15 -59.85 13.65 -60.05 13.4 -60.4 12.95 -60.6 12.75 -60.75 12.5 -61.1 12.05 -62.0 10.6 -62.0 10.45 -61.85 10.45 -59.7 13.1 -59.5 13.25 -59.3 13.45 -59.15 13.55 -59.05 13.65 -58.85 13.8 -58.75 13.9 -58.6 13.95 -58.5 14.05 -58.4 14.1 -58.3 14.2 -58.15 14.25 -58.05 14.3 -57.9 14.4 -56.95 14.8 -56.7 14.85 -56.55 14.9 -56.45 14.9 -55.45 14.95 -55.3 14.9 -55.2 14.85 -54.95 14.8 -55.05 14.8 -54.75 14.65 -55.7 14.3 -56.85 13.65 -57.35 13.25 -57.7 12.85 -58.15 12.15 -58.25 11.95 -58.25 11.85 M53.05 -29.45 L53.1 -29.55 53.2 -29.5 53.25 -29.4 53.25 -28.3 52.9 -27.15 52.25 -25.9 51.85 -25.3 51.65 -25.1 51.8 -25.1 51.85 -25.15 51.95 -25.15 52.65 -25.55 53.15 -26.0 53.7 -26.6 54.2 -27.3 54.95 -28.95 55.4 -30.6 55.7 -32.9 55.8 -32.95 55.85 -32.85 55.8 -30.95 55.75 -30.75 55.75 -30.55 55.7 -30.1 55.65 -29.9 55.65 -29.7 55.35 -28.3 54.45 -26.1 53.95 -25.35 55.0 -25.3 56.15 -24.95 57.0 -24.35 57.1 -24.3 57.15 -24.2 57.3 -24.05 57.45 -23.8 57.6 -23.65 57.6 -23.6 Q57.75 -23.35 57.55 -23.2 L57.15 -23.25 57.1 -23.3 57.0 -23.45 56.8 -23.6 56.55 -23.85 56.25 -24.05 56.05 -24.15 55.4 -24.35 54.45 -24.4 53.95 -24.35 53.1 -24.15 52.8 -24.05 52.7 -24.0 52.45 -23.8 52.1 -23.5 51.7 -23.3 Q50.85 -23.1 50.65 -24.0 L50.0 -23.3 49.75 -23.1 49.7 -23.05 Q49.25 -22.75 48.85 -23.2 48.55 -23.65 49.0 -24.05 L49.55 -24.4 49.9 -24.7 50.35 -25.0 51.7 -26.3 52.45 -27.35 52.9 -28.4 53.0 -28.8 53.0 -29.4 53.05 -29.45" fill="#483e44" fill-rule="evenodd" stroke="none"/>
  </g>
</svg>
