<?xml version="1.0" encoding="UTF-8" standalone="no"?>
<svg xmlns:xlink="http://www.w3.org/1999/xlink" height="47.75px" width="139.1px" xmlns="http://www.w3.org/2000/svg">
  <g transform="matrix(1.0, 0.0, 0.0, 1.0, 69.25, 23.9)">
    <path d="M-51.3 -22.85 Q-14.35 -25.5 25.4 -12.65 42.9 -8.1 69.25 -11.2 L69.15 -11.1 Q45.4 -2.2 33.45 -5.65 -28.4 -19.65 -60.25 -19.0 L-69.25 -19.0 -61.65 -21.75 -61.6 -21.8 -59.75 -22.05 -55.45 -22.5 -54.05 -22.6 -52.7 -22.75 -51.3 -22.85 M-33.65 6.2 Q-23.35 13.2 -14.5 23.1 L-14.55 23.1 Q-44.35 -0.4 -55.45 -2.95 L-60.9 -4.15 -57.45 -3.9 -52.1 -3.5 Q-42.35 0.3 -33.65 6.2" fill="#e5c6dd" fill-rule="evenodd" stroke="none"/>
    <path d="M-52.7 -22.75 L-54.05 -22.6 -55.45 -22.5 -52.7 -22.75 M-61.6 -21.8 L-61.65 -21.75 -61.65 -21.8 -61.6 -21.8 M-60.25 -19.0 Q-28.4 -19.65 33.45 -5.65 45.4 -2.2 69.15 -11.1 57.6 -2.1 45.6 3.75 12.15 20.1 -33.65 6.2 -42.35 0.3 -52.1 -3.5 L-57.45 -3.9 -60.25 -19.0 M-14.55 23.1 Q-28.9 24.3 -44.65 16.0 -49.75 13.3 -55.0 9.6 L-55.45 -2.95 Q-44.35 -0.4 -14.55 23.1" fill="#d7bad0" fill-rule="evenodd" stroke="none"/>
    <path d="M69.15 -11.1 L69.25 -11.2 Q42.9 -8.1 25.4 -12.65 -14.35 -25.5 -51.3 -22.85 M69.15 -11.1 Q57.6 -2.1 45.6 3.75 12.15 20.1 -33.65 6.2 -23.35 13.2 -14.5 23.1 L-14.55 23.1 Q-28.9 24.3 -44.65 16.0" fill="none" stroke="#483e44" stroke-linecap="round" stroke-linejoin="round" stroke-width="1.2000000000000002"/>
    <path d="M-44.35 15.45 L-44.3 15.45 Q-43.75 15.8 -44.1 16.3 -44.35 16.8 -44.9 16.5 L-51.05 12.6 -54.15 10.35 -54.6 9.95 -55.05 9.65 -55.05 9.5 -54.9 9.5 -54.5 9.8 -44.35 15.45 M-52.1 -3.4 L-52.15 -3.5 -52.05 -3.55 -42.4 0.5 -35.45 4.3 -33.3 5.7 -33.25 5.7 Q-32.85 6.05 -33.1 6.55 -33.45 7.0 -33.95 6.7 L-33.95 6.65 -35.55 5.6 -36.05 5.2 -42.75 1.1 -52.1 -3.4 M-51.3 -23.4 L-51.25 -23.45 -50.85 -23.25 -50.65 -22.85 Q-50.65 -22.25 -51.25 -22.25 L-61.55 -21.65 -61.6 -21.65 -61.7 -21.75 -61.65 -21.9 -61.6 -21.9 -54.1 -23.05 -53.85 -23.05 -52.75 -23.25 -52.7 -23.25 -51.3 -23.4" fill="#483e44" fill-rule="evenodd" stroke="none"/>
  </g>
</svg>
