<?xml version="1.0" encoding="UTF-8" standalone="no"?>
<svg xmlns:xlink="http://www.w3.org/1999/xlink" height="57.6px" width="119.15px" xmlns="http://www.w3.org/2000/svg">
  <g transform="matrix(1.0, 0.0, 0.0, 1.0, 61.8, 32.25)">
    <path d="M17.1 11.45 Q10.7 0.35 21.55 -11.95 32.4 -24.25 54.05 -24.7 15.75 -5.7 17.1 11.45 M-53.7 20.45 L-53.65 19.15 -53.4 14.95 -53.15 11.85 Q-44.8 8.8 -35.05 13.35 -25.3 17.9 -24.75 24.75 -39.55 15.6 -53.7 20.45" fill="#d7bad0" fill-rule="evenodd" stroke="none"/>
    <path d="M54.05 -24.7 Q15.75 -5.7 17.1 11.45 M-24.75 24.75 Q-39.55 15.6 -53.7 20.45" fill="none" stroke="#483e44" stroke-linecap="round" stroke-linejoin="miter-clip" stroke-miterlimit="5.0" stroke-width="1.2000000000000002"/>
    <path d="M-58.05 17.05 L-58.0 16.95 Q-58.0 16.9 -57.9 17.0 L-57.85 17.05 -57.75 17.25 -57.65 17.35 -57.55 17.5 -57.25 17.8 -56.4 18.4 -55.25 18.85 -54.05 19.1 -51.85 19.2 -51.45 19.4 -51.35 19.85 Q-51.35 20.45 -52.0 20.35 L-52.3 20.35 -53.2 20.15 -53.15 20.6 Q-53.15 20.95 -53.45 21.2 L-54.05 21.45 -54.6 21.45 -54.8 21.45 -54.9 21.45 -54.95 21.45 -55.45 21.7 -55.55 21.7 -55.6 21.75 -55.65 21.75 -56.25 22.15 -56.45 22.25 -56.65 22.45 -56.75 22.5 -56.8 22.6 -56.9 22.7 -57.0 22.75 -57.45 23.35 -57.65 23.75 -57.75 23.9 -57.75 24.0 -57.8 24.1 -57.9 24.45 -57.9 24.6 -57.95 24.7 -58.0 24.95 Q-58.0 25.3 -58.3 25.2 L-58.55 24.9 -58.55 24.35 -58.45 23.95 -58.45 23.8 -58.4 23.7 -58.35 23.45 -58.15 22.95 -57.85 22.45 -57.65 22.2 -57.55 22.1 -57.45 21.95 -56.85 21.35 -56.5 21.1 -56.8 21.0 -57.65 20.6 -58.15 20.25 -58.25 20.15 -58.4 20.05 -58.5 19.95 -58.6 19.9 -58.7 19.8 -58.85 19.7 -59.05 19.5 -59.15 19.35 -59.65 18.85 -59.85 18.6 -60.2 18.15 -60.4 17.95 -60.55 17.7 -61.8 15.8 -61.8 15.65 -61.65 15.65 -61.0 16.6 -60.1 17.7 -59.5 18.3 -59.3 18.45 -59.1 18.65 -58.95 18.75 -58.85 18.85 -58.65 19.0 -58.55 19.1 -58.4 19.15 -58.3 19.25 -58.2 19.3 -58.1 19.4 -57.95 19.45 -57.85 19.5 -57.7 19.6 -56.75 20.0 -56.5 20.05 -56.35 20.1 -56.25 20.1 -55.25 20.15 -55.1 20.1 -55.0 20.05 -54.75 20.0 -54.85 20.0 -54.55 19.85 -55.5 19.5 -56.65 18.85 -57.15 18.45 -57.5 18.05 -57.95 17.35 -58.05 17.15 -58.05 17.05 M52.7 -28.4 L52.75 -28.5 52.85 -28.45 52.9 -28.35 52.9 -27.7 52.75 -26.6 52.55 -25.95 51.9 -24.65 51.3 -23.9 51.35 -23.9 51.45 -23.95 51.35 -23.85 51.6 -24.0 51.85 -24.15 51.95 -24.2 52.1 -24.3 52.3 -24.5 52.4 -24.55 52.55 -24.65 53.1 -25.3 53.2 -25.45 53.3 -25.55 53.35 -25.7 53.45 -25.8 54.2 -27.1 54.4 -27.65 54.95 -29.45 54.95 -29.6 55.0 -29.75 55.25 -31.25 55.25 -31.55 55.35 -32.2 55.45 -32.25 55.5 -32.15 55.5 -30.9 55.45 -30.6 55.45 -30.3 55.35 -29.65 55.35 -29.35 55.15 -28.1 55.05 -27.8 55.0 -27.5 54.6 -26.25 54.15 -25.2 54.05 -25.1 53.95 -24.95 53.9 -24.8 53.6 -24.4 53.9 -24.45 55.1 -24.4 55.65 -24.3 56.15 -24.1 56.6 -23.85 57.05 -23.4 57.1 -23.3 57.2 -23.15 57.25 -23.1 Q57.45 -22.9 57.2 -22.7 L56.8 -22.75 56.55 -23.0 56.45 -23.05 56.2 -23.25 55.45 -23.55 55.0 -23.6 54.05 -23.5 53.15 -23.25 52.45 -22.95 52.1 -22.6 52.05 -22.6 52.05 -22.55 52.0 -22.5 51.9 -22.35 51.5 -22.0 Q50.75 -21.65 50.3 -22.45 L50.25 -22.6 49.45 -21.6 49.35 -21.55 48.5 -21.6 Q48.15 -22.1 48.6 -22.45 L48.9 -22.65 49.15 -22.9 49.55 -23.2 51.3 -25.05 52.35 -26.75 52.65 -27.75 52.65 -28.25 52.7 -28.35 52.7 -28.4" fill="#483e44" fill-rule="evenodd" stroke="none"/>
  </g>
</svg>
