<?xml version="1.0" encoding="UTF-8" standalone="no"?>
<svg xmlns:xlink="http://www.w3.org/1999/xlink" height="65.35px" width="117.85px" xmlns="http://www.w3.org/2000/svg">
  <g transform="matrix(1.0, 0.0, 0.0, 1.0, 59.7, 32.15)">
    <path d="M17.1 11.45 Q10.7 0.35 21.55 -11.95 32.4 -24.25 54.05 -24.7 44.9 -2.7 17.1 11.45 M-51.55 28.3 Q-53.15 22.35 -53.3 19.55 L-53.4 14.95 -53.15 11.85 Q-44.8 8.8 -35.05 13.35 -25.3 17.9 -24.75 24.75 -44.2 31.05 -51.55 28.3" fill="#d7bad0" fill-rule="evenodd" stroke="none"/>
    <path d="M54.05 -24.7 Q44.9 -2.7 17.1 11.45 M-24.75 24.75 Q-44.2 31.05 -51.55 28.3" fill="none" stroke="#483e44" stroke-linecap="round" stroke-linejoin="miter-clip" stroke-miterlimit="5.0" stroke-width="1.2000000000000002"/>
    <path d="M-55.95 25.1 L-55.9 25.0 Q-55.9 24.95 -55.8 25.05 L-55.65 25.3 -55.55 25.4 -55.45 25.55 -55.3 25.7 -55.15 25.9 -54.75 26.25 -54.3 26.55 -54.0 26.7 -53.9 26.8 -53.6 26.9 -53.45 27.0 -51.95 27.45 -50.45 27.65 -50.1 27.65 -49.8 27.7 -49.7 27.7 Q-49.1 27.8 -49.25 28.4 -49.35 29.05 -49.95 28.85 L-50.6 28.75 -50.75 28.7 -50.75 28.8 Q-50.65 29.15 -50.85 29.5 -51.35 30.25 -52.2 29.85 L-52.4 29.75 -52.55 29.75 -52.8 29.7 -54.15 30.3 -54.35 30.45 -54.4 30.45 -54.45 30.5 -54.55 30.55 -54.65 30.65 -54.75 30.7 -54.8 30.8 -54.9 30.85 -55.35 31.4 -55.55 31.8 -55.65 31.95 -55.65 32.05 -55.7 32.15 -55.8 32.45 -55.8 32.6 -55.85 32.7 -55.9 32.95 Q-55.9 33.3 -56.2 33.2 L-56.45 32.9 -56.45 32.35 -56.35 31.95 -56.35 31.85 -56.3 31.75 -56.25 31.5 -56.1 31.15 -56.05 31.0 -55.75 30.5 -55.45 30.2 -55.35 30.05 -54.95 29.65 -54.4 29.3 -54.5 29.25 -55.35 28.8 -55.6 28.6 -55.85 28.45 -55.95 28.35 -56.1 28.25 -56.3 28.05 -56.55 27.85 -57.6 26.75 -57.75 26.5 -58.15 26.05 -58.3 25.8 -58.5 25.55 -59.7 23.55 -59.7 23.4 -59.55 23.4 -57.4 26.2 -57.0 26.6 -56.75 26.75 -56.35 27.15 -55.85 27.45 -55.75 27.55 -55.65 27.6 -55.15 27.9 -54.0 28.3 -53.9 28.3 -53.75 28.35 -53.6 28.35 -53.1 28.4 -52.85 28.35 -52.7 28.3 -52.75 28.3 -52.4 28.2 -53.0 27.95 -53.15 27.9 -53.45 27.75 -53.75 27.55 -53.9 27.5 -54.2 27.3 -54.25 27.25 -54.35 27.2 -54.6 27.0 -55.05 26.55 -55.55 25.9 -55.65 25.7 -55.85 25.4 -55.95 25.1 M53.85 -22.6 L53.85 -22.55 53.75 -22.3 53.75 -22.2 53.7 -22.2 53.7 -22.15 53.65 -21.85 53.65 -21.75 53.5 -21.35 Q53.25 -21.05 52.9 -21.0 L52.25 -21.15 52.05 -20.15 51.95 -19.85 51.9 -19.75 Q51.7 -19.2 51.15 -19.4 50.6 -19.65 50.8 -20.2 L51.2 -21.3 51.85 -23.8 51.9 -24.5 51.9 -25.15 51.9 -25.8 51.85 -26.1 51.75 -26.35 51.65 -26.8 51.4 -27.35 51.35 -27.4 51.35 -27.55 51.5 -27.55 51.55 -27.45 51.6 -27.4 51.9 -26.9 52.3 -25.85 52.45 -25.2 52.55 -23.75 52.5 -22.95 52.7 -23.3 52.8 -23.45 52.85 -23.6 52.9 -23.65 52.9 -23.75 53.0 -23.9 53.1 -24.25 53.1 -24.45 53.25 -25.25 53.25 -27.1 53.2 -27.35 53.2 -27.55 52.65 -29.75 51.75 -31.85 51.7 -32.0 51.75 -32.1 51.85 -32.05 51.9 -31.95 52.1 -31.7 53.15 -29.5 53.9 -27.2 54.1 -26.2 54.15 -24.4 54.35 -24.6 55.4 -25.15 55.95 -25.3 56.5 -25.4 57.0 -25.4 57.55 -25.25 57.65 -25.25 57.7 -25.2 57.9 -25.15 57.95 -25.1 Q58.2 -25.0 58.1 -24.75 L57.75 -24.55 57.65 -24.55 57.5 -24.6 57.45 -24.6 57.4 -24.65 57.25 -24.65 56.95 -24.7 56.55 -24.65 55.75 -24.4 54.95 -23.85 53.85 -22.6" fill="#483e44" fill-rule="evenodd" stroke="none"/>
  </g>
</svg>
