<?xml version="1.0" encoding="UTF-8" standalone="no"?>
<svg xmlns:xlink="http://www.w3.org/1999/xlink" height="70.8px" width="116.2px" xmlns="http://www.w3.org/2000/svg">
  <g transform="matrix(1.0, 0.0, 0.0, 1.0, 57.55, 31.95)">
    <path d="M17.1 11.45 Q10.7 0.35 21.55 -11.95 32.4 -24.25 54.05 -24.7 55.05 6.3 17.1 11.45 M-49.25 34.15 Q-53.15 22.35 -53.3 19.55 L-53.4 14.95 -53.15 11.85 Q-44.8 8.8 -35.05 13.35 -25.3 17.9 -24.75 24.75 -36.8 37.0 -49.25 34.15" fill="#d7bad0" fill-rule="evenodd" stroke="none"/>
    <path d="M54.05 -24.7 Q55.05 6.3 17.1 11.45 M-24.75 24.75 Q-36.8 37.0 -49.25 34.15" fill="none" stroke="#483e44" stroke-linecap="round" stroke-linejoin="miter-clip" stroke-miterlimit="5.0" stroke-width="1.2000000000000002"/>
    <path d="M-53.8 30.75 L-53.75 30.65 -53.65 30.7 -53.5 30.95 -53.4 31.05 -53.3 31.2 -53.15 31.35 -53.0 31.55 -52.6 31.9 -52.15 32.2 -51.85 32.35 -51.75 32.45 -51.45 32.55 -51.3 32.65 -49.25 33.2 -48.3 33.3 -47.95 33.3 -47.65 33.35 -47.55 33.35 Q-46.95 33.45 -47.1 34.05 -47.2 34.7 -47.8 34.5 L-48.45 34.4 -48.6 34.35 -48.6 34.45 Q-48.5 34.8 -48.7 35.15 -49.2 35.9 -50.05 35.5 L-50.25 35.4 -50.4 35.4 -50.65 35.35 -50.75 35.4 -52.0 35.95 -52.2 36.1 -52.25 36.1 -52.3 36.15 -52.4 36.2 -52.5 36.3 -52.6 36.35 -52.65 36.45 -52.75 36.5 -53.2 37.05 -53.4 37.45 -53.5 37.6 -53.5 37.7 -53.55 37.8 -53.65 38.1 -53.65 38.25 -53.7 38.35 -53.75 38.6 Q-53.75 38.95 -54.05 38.85 -54.4 38.85 -54.3 38.55 L-54.3 38.0 -54.2 37.6 -54.2 37.5 -54.15 37.4 -54.1 37.15 -53.9 36.65 -53.6 36.15 -53.3 35.85 -53.2 35.7 -52.8 35.3 -52.25 34.95 -52.35 34.9 -53.2 34.45 -53.45 34.25 -53.7 34.1 -53.8 34.0 -53.95 33.9 -54.15 33.7 -54.4 33.5 -55.45 32.4 -55.6 32.15 -56.0 31.7 -56.15 31.45 -56.35 31.2 -57.55 29.2 -57.55 29.05 -57.4 29.05 -56.75 30.05 -55.85 31.2 -54.85 32.25 -54.6 32.4 -54.2 32.8 -53.7 33.1 -53.6 33.2 -53.5 33.25 -53.35 33.35 -53.0 33.55 -51.85 33.95 -51.75 33.95 -51.6 34.0 -51.45 34.0 -50.95 34.05 -50.7 34.0 -50.55 33.95 -50.6 33.95 -50.25 33.85 -50.85 33.6 -51.0 33.55 -51.3 33.4 -51.6 33.2 -51.75 33.15 -52.05 32.95 -52.1 32.9 -52.2 32.85 -52.45 32.65 -52.9 32.2 -53.4 31.55 -53.5 31.35 -53.7 31.05 -53.8 30.75 M51.45 -27.3 L51.45 -27.45 51.6 -27.45 51.65 -27.4 51.75 -27.35 52.15 -26.95 52.8 -26.05 53.35 -24.8 53.65 -23.25 53.7 -23.25 53.7 -23.35 53.85 -23.75 53.85 -23.9 53.9 -24.05 53.9 -24.2 53.95 -24.35 53.95 -24.95 53.7 -26.6 53.0 -28.4 52.55 -29.2 52.3 -29.55 52.2 -29.75 50.6 -31.8 50.6 -31.95 50.75 -31.95 52.4 -30.15 52.5 -30.0 52.95 -29.45 54.0 -27.8 54.75 -25.95 54.95 -25.15 55.1 -25.4 55.95 -26.2 56.45 -26.5 56.95 -26.7 57.65 -26.85 57.85 -26.85 58.0 -26.8 58.35 -26.8 58.4 -26.75 58.65 -26.45 Q58.65 -26.1 58.35 -26.2 L58.0 -26.2 57.85 -26.15 57.7 -26.15 57.2 -26.0 56.45 -25.55 55.6 -24.4 55.1 -23.3 55.1 -22.9 55.15 -22.65 55.2 -22.6 55.25 -22.05 Q55.1 -21.2 54.2 -21.3 L53.95 -21.35 53.95 -20.05 53.75 -19.65 53.3 -19.55 Q52.7 -19.55 52.8 -20.2 L52.8 -20.55 52.85 -20.9 52.95 -22.6 52.6 -25.3 52.15 -26.4 51.8 -26.95 51.45 -27.3" fill="#483e44" fill-rule="evenodd" stroke="none"/>
  </g>
</svg>
