<?xml version="1.0" encoding="UTF-8" standalone="no"?>
<svg xmlns:xlink="http://www.w3.org/1999/xlink" height="92.65px" width="343.6px" xmlns="http://www.w3.org/2000/svg">
  <g transform="matrix(1.0, 0.0, 0.0, 1.0, -52.0, 0.65)">
    <path d="M133.75 10.1 Q257.55 -13.35 378.15 14.4 397.65 24.9 395.35 53.95 386.2 69.2 366.95 64.35 338.65 60.1 336.0 42.8 323.1 52.1 306.7 54.8 289.95 64.9 273.15 60.0 L273.15 74.6 249.95 88.4 Q210.35 97.05 170.75 84.95 159.9 81.2 155.25 65.15 146.15 68.65 130.3 65.15 119.65 80.2 102.8 85.8 L80.4 84.1 Q54.65 73.65 52.0 40.2 78.35 17.9 133.75 10.1" fill="#000000" fill-opacity="0.34901962" fill-rule="evenodd" stroke="none"/>
  </g>
</svg>
