<?xml version="1.0" encoding="UTF-8" standalone="no"?>
<svg xmlns:xlink="http://www.w3.org/1999/xlink" height="501.75px" width="237.8px" xmlns="http://www.w3.org/2000/svg">
  <g transform="matrix(1.0, 0.0, 0.0, 1.0, 117.5, 250.85)">
    <path d="M41.5 -169.4 L46.2 -179.25 Q63.8 -216.1 84.85 -237.6 101.65 -253.05 114.0 -249.65 116.7 -249.35 118.0 -248.45 93.05 -249.0 41.5 -169.4" fill="#af815d" fill-rule="evenodd" stroke="none"/>
    <path d="M118.0 -248.45 Q115.85 -236.75 109.6 -223.6 108.6 -221.85 108.3 -215.2 L107.65 -210.45 Q78.1 -184.05 59.15 -139.3 52.7 -116.55 41.6 -104.95 41.45 -110.55 39.45 -114.25 33.25 -102.9 25.9 -97.0 23.95 -109.1 29.4 -136.5 34.1 -153.2 41.5 -169.4 93.05 -249.0 118.0 -248.45" fill="#aa7858" fill-rule="evenodd" stroke="none"/>
    <path d="M108.3 -215.2 L108.5 -211.7 Q121.2 -191.35 119.7 -180.85 L113.75 -171.5 Q97.85 -143.5 77.45 -118.85 74.8 -114.05 72.8 -106.85 L72.3 -104.95 Q71.8 -105.65 71.5 -107.05 71.15 -108.7 71.85 -114.15 70.15 -109.15 69.15 -107.4 66.2 -102.3 60.95 -98.7 L61.7 -103.75 Q59.0 -97.35 53.5 -93.15 47.95 -88.95 41.45 -84.6 36.75 -81.05 35.45 -77.4 L34.75 -79.7 Q31.8 -74.45 29.2 -73.05 L28.55 -72.75 28.75 -73.1 Q29.75 -76.3 28.6 -77.65 27.45 -75.05 26.05 -73.5 25.05 -72.4 23.95 -71.8 L24.3 -73.75 Q24.9 -78.85 23.5 -81.95 L22.5 -84.05 Q22.05 -85.45 21.35 -89.45 L21.6 -94.05 Q22.2 -103.55 24.15 -114.1 26.2 -125.4 29.4 -136.5 23.95 -109.1 25.9 -97.0 33.25 -102.9 39.45 -114.25 41.45 -110.55 41.6 -104.95 52.7 -116.55 59.15 -139.3 78.1 -184.05 107.65 -210.45 L108.3 -215.2 M107.65 -210.45 L108.5 -211.7 107.65 -210.45" fill="#9c6b4d" fill-rule="evenodd" stroke="none"/>
    <path d="M-24.15 235.85 Q-74.85 258.15 -83.45 204.65 -103.45 196.2 -116.0 170.1 -121.45 155.05 -93.15 137.9 L-94.85 154.3 -94.85 154.35 Q-38.05 219.75 -28.35 193.15 -1.7 195.8 -8.7 167.65 -0.2 166.15 -5.85 148.3 25.15 150.15 28.5 103.85 L24.7 80.85 Q39.25 79.5 39.3 53.35 48.9 19.8 32.55 19.25 39.35 9.15 31.75 -10.9 42.5 -5.95 51.75 -40.95 63.1 -58.3 53.2 -71.1 45.7 -73.2 36.85 -66.35 L36.6 -66.1 Q33.05 -63.35 29.3 -59.15 25.35 -64.85 18.4 -58.8 19.4 -81.45 12.75 -94.05 19.3 -100.45 23.5 -129.55 L29.4 -136.5 Q26.2 -125.4 24.15 -114.1 22.2 -103.55 21.6 -94.05 L21.35 -89.45 Q22.05 -85.45 22.5 -84.05 L23.5 -81.95 Q24.9 -78.85 24.3 -73.75 L23.95 -71.8 Q25.05 -72.4 26.05 -73.5 27.45 -75.05 28.6 -77.65 29.75 -76.3 28.75 -73.1 L28.55 -72.75 29.2 -73.05 Q31.8 -74.45 34.75 -79.7 L35.45 -77.4 Q36.75 -81.05 41.45 -84.6 47.95 -88.95 53.5 -93.15 59.0 -97.35 61.7 -103.75 L60.95 -98.7 Q52.8 -91.65 56.0 -86.4 52.75 -75.85 57.2 -79.75 62.85 -93.2 69.7 -97.35 68.9 -92.2 70.8 -91.9 84.15 -125.0 102.55 -143.3 95.75 -92.85 85.9 -46.9 85.3 18.25 79.05 60.75 77.55 80.3 69.4 84.3 81.8 97.6 76.65 135.0 71.45 162.05 57.9 170.05 64.85 185.4 59.75 198.4 45.75 212.7 20.5 217.75 0.25 236.3 -24.15 235.85 M-2.65 -29.45 Q1.7 -1.6 -15.9 7.9 1.8 -7.95 -10.5 -37.25 L-2.65 -29.45 M-33.0 56.35 Q-24.5 80.9 -37.3 102.2 -27.5 75.7 -39.95 55.35 L-33.0 56.35" fill="#e0cf99" fill-rule="evenodd" stroke="none"/>
    <path d="M-93.15 137.9 Q-76.75 -0.3 10.0 -112.7 L12.45 -115.85 15.35 -119.45 -10.2 -62.95 Q-23.3 -47.25 -31.85 -18.5 -51.15 13.45 -58.85 38.75 -69.45 51.05 -77.85 101.05 L-94.85 154.3 -93.15 137.9" fill="#f7eac0" fill-rule="evenodd" stroke="none"/>
    <path d="M15.35 -119.45 L23.5 -129.55 Q19.3 -100.45 12.75 -94.05 19.4 -81.45 18.4 -58.8 25.35 -64.85 29.3 -59.15 33.05 -63.35 36.6 -66.1 L36.85 -66.35 Q45.7 -73.2 53.2 -71.1 63.1 -58.3 51.75 -40.95 42.5 -5.95 31.75 -10.9 39.35 9.15 32.55 19.25 48.9 19.8 39.3 53.35 39.25 79.5 24.7 80.85 L28.5 103.85 Q25.15 150.15 -5.85 148.3 -0.2 166.15 -8.7 167.65 -1.7 195.8 -28.35 193.15 -38.05 219.75 -94.85 154.35 L-94.85 154.3 -77.85 101.05 Q-69.45 51.05 -58.85 38.75 -51.15 13.45 -31.85 -18.5 -23.3 -47.25 -10.2 -62.95 L15.35 -119.45 M-2.65 -29.45 L-10.5 -37.25 Q1.8 -7.95 -15.9 7.9 1.7 -1.6 -2.65 -29.45 M-33.0 56.35 L-39.95 55.35 Q-27.5 75.7 -37.3 102.2 -24.5 80.9 -33.0 56.35" fill="#f7e6ad" fill-rule="evenodd" stroke="none"/>
    <path d="M113.75 -171.5 Q118.25 -118.2 104.3 -44.4 L91.55 163.2 Q102.8 266.6 38.1 224.85 0.25 269.45 -24.15 235.85 0.25 236.3 20.5 217.75 45.75 212.7 59.75 198.4 64.85 185.4 57.9 170.05 71.45 162.05 76.65 135.0 81.8 97.6 69.4 84.3 77.55 80.3 79.05 60.75 85.3 18.25 85.9 -46.9 95.75 -92.85 102.55 -143.3 84.15 -125.0 70.8 -91.9 68.9 -92.2 69.7 -97.35 62.85 -93.2 57.2 -79.75 52.75 -75.85 56.0 -86.4 52.8 -91.65 60.95 -98.7 66.2 -102.3 69.15 -107.4 70.15 -109.15 71.85 -114.15 71.15 -108.7 71.5 -107.05 71.8 -105.65 72.3 -104.95 L72.8 -106.85 Q74.8 -114.05 77.45 -118.85 97.85 -143.5 113.75 -171.5" fill="#d4c491" fill-rule="evenodd" stroke="none"/>
    <path d="M41.5 -169.4 L46.2 -179.25 Q63.8 -216.1 84.85 -237.6 101.65 -253.05 114.0 -249.65 116.7 -249.35 118.0 -248.45 M119.7 -180.85 L113.75 -171.5 Q118.25 -118.2 104.3 -44.4 L91.55 163.2 Q102.8 266.6 38.1 224.85 0.25 269.45 -24.15 235.85 -74.85 258.15 -83.45 204.65 -103.45 196.2 -116.0 170.1 -121.45 155.05 -93.15 137.9 -76.75 -0.3 10.0 -112.7 L12.45 -115.85 15.35 -119.45 23.5 -129.55 29.4 -136.5 Q34.1 -153.2 41.5 -169.4 M29.4 -136.5 Q26.2 -125.4 24.15 -114.1 22.2 -103.55 21.6 -94.05 L21.35 -89.45 Q22.05 -85.45 22.5 -84.05 M77.45 -118.85 Q97.85 -143.5 113.75 -171.5" fill="none" stroke="#47373a" stroke-linecap="round" stroke-linejoin="miter-clip" stroke-miterlimit="3.0" stroke-width="1.2000000000000002"/>
    <path d="M108.5 -211.7 L107.65 -210.45" fill="none" stroke="#47373a" stroke-linecap="round" stroke-linejoin="miter-clip" stroke-miterlimit="5.0" stroke-width="0.05"/>
    <path d="M23.5 -81.95 Q24.9 -78.85 24.3 -73.75 L23.95 -71.8 Q25.05 -72.4 26.05 -73.5 27.45 -75.05 28.6 -77.65 29.75 -76.3 28.75 -73.1 L28.55 -72.75 29.2 -73.05 Q31.8 -74.45 34.75 -79.7 L35.45 -77.4 Q36.75 -81.05 41.45 -84.6 47.95 -88.95 53.5 -93.15 59.0 -97.35 61.7 -103.75 L60.95 -98.7 Q66.2 -102.3 69.15 -107.4 70.15 -109.15 71.85 -114.15 71.15 -108.7 71.5 -107.05 71.8 -105.65 72.3 -104.95 L72.8 -106.85 Q74.8 -114.05 77.45 -118.85" fill="none" stroke="#47373a" stroke-linecap="round" stroke-linejoin="miter-clip" stroke-miterlimit="5.0" stroke-width="1.2000000000000002"/>
    <path d="M22.5 -84.05 L23.5 -81.95" fill="none" stroke="#47373a" stroke-linecap="round" stroke-linejoin="round" stroke-width="1.2000000000000002"/>
    <path d="M-93.7 137.8 L-93.7 137.75 Q-93.6 137.15 -93.05 137.25 -92.45 137.35 -92.55 137.95 L-94.7 154.3 -94.8 154.4 -94.95 154.35 -94.95 154.25 -93.7 137.8" fill="#47373a" fill-rule="evenodd" stroke="none"/>
  </g>
</svg>
