<?xml version="1.0" encoding="UTF-8" standalone="no"?>
<svg xmlns:xlink="http://www.w3.org/1999/xlink" height="39.65px" width="28.35px" xmlns="http://www.w3.org/2000/svg">
  <g transform="matrix(1.0, 0.0, 0.0, 1.0, 14.15, 19.85)">
    <path d="M11.85 -4.85 Q15.1 3.1 13.9 10.15 12.8 17.2 7.95 19.15 3.05 21.15 -2.75 17.0 -8.5 12.75 -11.75 4.8 -15.0 -3.15 -13.85 -10.15 -12.7 -17.25 -7.8 -19.25 -2.95 -21.2 2.8 -17.0 8.6 -12.8 11.85 -4.85" fill="url(#gradient0)" fill-rule="evenodd" stroke="none"/>
    <path d="M5.85 -0.95 Q7.55 3.7 7.2 7.55 6.85 11.35 4.6 12.15 2.3 12.95 -0.45 10.3 -3.25 7.55 -5.0 2.85 -6.75 -1.75 -6.35 -5.6 -6.0 -9.45 -3.7 -10.3 -1.5 -11.0 1.3 -8.35 4.15 -5.65 5.85 -0.95" fill="#47373a" fill-rule="evenodd" stroke="none"/>
  </g>
  <defs>
    <radialGradient cx="0" cy="0" gradientTransform="matrix(0.0218, -0.0085, 0.0153, 0.0393, -2.85, -2.65)" gradientUnits="userSpaceOnUse" id="gradient0" r="819.2" spreadMethod="pad">
      <stop offset="0.4470588235294118" stop-color="#d58286"/>
      <stop offset="0.6392156862745098" stop-color="#b46c71"/>
    </radialGradient>
  </defs>
</svg>
