<?xml version="1.0" encoding="UTF-8" standalone="no"?>
<svg xmlns:xlink="http://www.w3.org/1999/xlink" height="32.85px" width="25.85px" xmlns="http://www.w3.org/2000/svg">
  <g transform="matrix(1.0, 0.0, 0.0, 1.0, 13.35, 16.45)">
    <path d="M7.35 -6.2 Q11.95 0.5 12.4 5.45 12.85 10.35 11.35 14.1 9.8 17.85 5.25 15.5 0.65 13.05 -4.75 6.8 -10.2 0.5 -12.4 -5.9 -14.6 -12.35 -11.65 -15.0 -8.7 -17.7 -2.95 -15.3 2.75 -12.95 7.35 -6.2" fill="url(#gradient0)" fill-rule="evenodd" stroke="none"/>
    <path d="M3.65 -2.55 Q6.6 1.25 7.8 4.95 8.95 8.55 7.65 9.95 6.35 11.35 3.45 9.7 0.4 7.95 -2.6 4.1 -5.55 0.3 -6.7 -3.4 -7.9 -7.1 -6.6 -8.5 -5.3 -9.75 -2.3 -8.1 0.7 -6.45 3.65 -2.55" fill="#47373a" fill-rule="evenodd" stroke="none"/>
  </g>
  <defs>
    <radialGradient cx="0" cy="0" gradientTransform="matrix(0.0123, -0.0141, 0.0256, 0.032, -2.1, -1.65)" gradientUnits="userSpaceOnUse" id="gradient0" r="819.2" spreadMethod="pad">
      <stop offset="0.4470588235294118" stop-color="#d58286"/>
      <stop offset="0.6392156862745098" stop-color="#b46c71"/>
    </radialGradient>
  </defs>
</svg>
