<?xml version="1.0" encoding="UTF-8" standalone="no"?>
<svg xmlns:xlink="http://www.w3.org/1999/xlink" height="161.95px" width="183.7px" xmlns="http://www.w3.org/2000/svg">
  <g transform="matrix(1.0, 0.0, 0.0, 1.0, 72.0, 159.05)">
    <path d="M38.15 -65.9 L38.75 -65.95 Q51.6 -65.75 56.6 -75.4 57.9 -77.95 58.65 -81.1 60.25 -101.85 47.8 -114.5 41.25 -116.05 36.35 -115.75 30.15 -115.4 26.7 -111.95 29.9 -119.0 38.95 -119.55 L44.8 -148.25 Q60.95 -135.0 77.7 -110.0 L79.0 -107.95 Q85.0 -97.85 85.5 -84.55 83.85 -53.45 78.7 -59.4 73.6 -65.35 64.6 -66.3 55.55 -67.3 46.85 -64.2 29.55 -60.0 38.15 -65.9" fill="#8e6146" fill-rule="evenodd" stroke="none"/>
    <path d="M26.7 -111.95 Q24.6 -109.85 23.5 -106.6 23.1 -105.3 23.2 -103.3 23.4 -97.3 27.7 -85.2 31.8 -75.3 35.2 -63.6 L35.6 -64.1 Q36.8 -65.65 38.15 -65.9 29.55 -60.0 46.85 -64.2 55.55 -67.3 64.6 -66.3 73.6 -65.35 78.7 -59.4 83.85 -53.45 85.5 -84.55 86.25 -64.1 73.8 -36.25 70.6 -31.9 67.1 -28.0 L64.65 -25.35 Q44.7 -4.75 15.4 1.8 L13.2 2.3 Q-1.8 2.6 -16.65 -3.95 -13.85 -2.85 -12.15 -4.45 L-8.55 -2.1 Q-4.55 -0.55 -0.45 -0.95 L5.75 -1.75 Q20.7 -2.9 26.05 -12.1 17.2 -4.05 4.3 -4.05 -4.9 -8.1 -8.55 -17.7 L-6.0 -20.15 Q-4.85 -21.35 -4.3 -22.6 -3.15 -23.5 -2.35 -26.75 -5.2 -27.75 -6.75 -27.75 L-11.85 -27.0 Q-14.4 -26.2 -16.7 -23.9 -18.7 -21.9 -18.9 -20.6 -22.35 -22.8 -30.4 -35.35 -35.95 -44.05 -53.7 -56.95 -60.95 -62.6 -69.8 -63.0 L-71.05 -76.3 Q-17.4 -148.5 18.7 -158.15 34.2 -156.75 43.55 -149.3 L44.8 -148.25 38.95 -119.55 Q29.9 -119.0 26.7 -111.95 M41.8 -56.2 Q38.8 -49.5 34.9 -46.6 45.2 -45.9 41.8 -56.2" fill="#9c6b4d" fill-rule="evenodd" stroke="none"/>
    <path d="M4.3 -4.05 Q17.2 -4.05 26.05 -12.1 20.7 -2.9 5.75 -1.75 L-0.45 -0.95 Q-4.55 -0.55 -8.55 -2.1 L-12.15 -4.45 -11.85 -4.75 Q-2.35 -0.55 4.3 -4.05" fill="#935d45" fill-rule="evenodd" stroke="none"/>
    <path d="M18.7 -158.15 Q-17.4 -148.5 -71.05 -76.3 -71.8 -88.85 -70.75 -99.4 L-70.5 -100.65 Q-65.4 -124.15 -43.8 -139.8 -30.1 -149.75 -9.65 -156.55 L-3.55 -157.45 18.7 -158.15 M-53.7 -56.95 Q-35.95 -44.05 -30.4 -35.35 -22.35 -22.8 -18.9 -20.6 L-16.25 -19.2 Q-15.75 -18.6 -13.3 -17.9 L-8.55 -17.7 Q-4.9 -8.1 4.3 -4.05 -2.35 -0.55 -11.85 -4.75 L-12.15 -4.45 Q-13.85 -2.85 -16.65 -3.95 L-16.85 -4.05 Q-30.25 -10.0 -43.55 -21.45 -37.1 -25.45 -37.35 -30.55 L-31.95 -30.95 Q-40.2 -43.65 -47.6 -50.85 -50.5 -54.4 -53.7 -56.95 M41.8 -56.2 Q45.2 -45.9 34.9 -46.6 38.8 -49.5 41.8 -56.2" fill="#aa7858" fill-rule="evenodd" stroke="none"/>
    <path d="M-18.9 -20.6 Q-18.7 -21.9 -16.7 -23.9 -14.4 -26.2 -11.85 -27.0 L-6.75 -27.75 Q-5.2 -27.75 -2.35 -26.75 -3.15 -23.5 -4.3 -22.6 L-7.2 -19.95 Q-8.45 -18.7 -9.6 -18.45 -10.7 -18.25 -12.2 -18.45 L-16.25 -19.2 -18.9 -20.6" fill="url(#gradient0)" fill-rule="evenodd" stroke="none"/>
    <path d="M-4.3 -22.6 Q-4.85 -21.35 -6.0 -20.15 L-8.55 -17.7 -13.3 -17.9 Q-15.75 -18.6 -16.25 -19.2 L-12.2 -18.45 Q-10.7 -18.25 -9.6 -18.45 -8.45 -18.7 -7.2 -19.95 L-4.3 -22.6" fill="#47373a" fill-rule="evenodd" stroke="none"/>
    <path d="M38.15 -65.9 L38.75 -65.95 Q51.6 -65.75 56.6 -75.4 57.9 -77.95 58.65 -81.1 60.25 -101.85 47.8 -114.5 41.25 -116.05 36.35 -115.75 30.15 -115.4 26.7 -111.95 24.6 -109.85 23.5 -106.6 23.1 -105.3 23.2 -103.3 23.4 -97.3 27.7 -85.2 31.8 -75.3 35.2 -63.6 L35.6 -64.1 Q36.8 -65.65 38.15 -65.9 M85.5 -84.55 Q85.0 -97.85 79.0 -107.95 L77.7 -110.0 Q60.95 -135.0 44.8 -148.25 L43.55 -149.3 Q34.2 -156.75 18.7 -158.15 L-3.55 -157.45 -9.65 -156.55 Q-30.1 -149.75 -43.8 -139.8 -65.4 -124.15 -70.5 -100.65 L-70.75 -99.4 Q-71.8 -88.85 -71.05 -76.3 L-69.8 -63.0 Q-60.95 -62.6 -53.7 -56.95 -50.5 -54.4 -47.6 -50.85 -40.2 -43.65 -31.95 -30.95 L-37.35 -30.55 Q-37.1 -25.45 -43.55 -21.45 -30.25 -10.0 -16.85 -4.05 L-16.65 -3.95 Q-1.8 2.6 13.2 2.3 L15.4 1.8 Q44.7 -4.75 64.65 -25.35 L67.1 -28.0 Q70.6 -31.9 73.8 -36.25 86.25 -64.1 85.5 -84.55 M-69.8 -63.0 Q-69.9 -57.15 -67.65 -52.2 L-66.7 -49.25 Q-60.95 -32.85 -45.9 -23.5 L-43.55 -21.45" fill="none" stroke="#47373a" stroke-linecap="round" stroke-linejoin="round" stroke-width="1.2000000000000002"/>
    <path d="M4.3 -4.05 Q17.2 -4.05 26.05 -12.1 M-11.85 -4.75 Q-2.35 -0.55 4.3 -4.05" fill="none" stroke="#47373a" stroke-linecap="round" stroke-linejoin="miter-clip" stroke-miterlimit="3.0" stroke-width="1.2000000000000002"/>
    <path d="M85.5 -84.55 L111.7 -108.5" fill="none" stroke="#47373a" stroke-linecap="round" stroke-linejoin="miter-clip" stroke-miterlimit="5.0" stroke-width="0.05"/>
    <path d="M-12.85 -5.7 L-12.8 -6.05 Q-12.6 -6.25 -12.4 -6.05 L-11.35 -5.05 -11.2 -4.85 Q-10.95 -4.35 -11.5 -4.05 -12.1 -3.8 -12.3 -4.4 L-12.85 -5.7 M26.1 -14.3 L26.35 -14.55 26.65 -14.25 26.7 -12.2 Q26.5 -11.6 25.95 -11.8 25.35 -11.95 25.55 -12.55 L26.1 -14.3 M-9.1 -17.45 L-9.15 -17.6 Q-9.25 -18.2 -8.7 -18.3 -8.15 -18.5 -7.95 -17.9 L-7.85 -17.45 -7.25 -15.65 -7.2 -15.55 -7.1 -15.4 -7.0 -15.1 -6.55 -14.1 -6.35 -13.8 -6.2 -13.45 -5.3 -12.05 -5.2 -11.85 -5.05 -11.7 -4.55 -11.0 -2.75 -9.0 -2.1 -8.4 -0.4 -7.1 -0.25 -6.95 -0.1 -6.85 4.5 -4.55 4.65 -4.55 Q5.1 -4.2 4.85 -3.7 L4.5 -3.4 4.05 -3.5 2.9 -4.1 1.95 -4.7 1.7 -4.9 1.4 -5.05 -0.4 -6.4 -0.6 -6.5 -3.2 -8.85 -3.35 -9.05 -4.45 -10.2 -4.55 -10.4 -4.85 -10.75 -5.9 -12.15 -7.45 -14.45 -8.8 -16.9 -8.85 -17.05 -9.0 -17.25 -9.1 -17.45" fill="#47373a" fill-rule="evenodd" stroke="none"/>
  </g>
  <defs>
    <radialGradient cx="0" cy="0" gradientTransform="matrix(-0.0031, -0.0053, 0.0108, -0.0062, -12.25, -24.25)" gradientUnits="userSpaceOnUse" id="gradient0" r="819.2" spreadMethod="pad">
      <stop offset="0.24705882352941178" stop-color="#ee9899"/>
      <stop offset="0.5098039215686274" stop-color="#d7898a"/>
      <stop offset="0.7333333333333333" stop-color="#b87576"/>
    </radialGradient>
  </defs>
</svg>
