<?xml version="1.0" encoding="UTF-8" standalone="no"?>
<svg xmlns:xlink="http://www.w3.org/1999/xlink" height="101.1px" width="135.05px" xmlns="http://www.w3.org/2000/svg">
  <g transform="matrix(1.0, 0.0, 0.0, 1.0, 69.15, 54.2)">
    <path d="M33.95 -14.3 Q35.25 -37.95 58.3 -38.45 34.85 -19.05 46.1 13.55 37.2 -3.2 33.95 -14.3 M-59.85 11.35 Q-45.1 12.5 -31.4 28.45 -17.75 44.35 -21.7 46.3 -46.8 23.95 -58.55 24.75 -61.4 15.2 -59.85 11.35" fill="#aa7858" fill-rule="evenodd" stroke="none"/>
    <path d="M33.95 -14.3 Q31.15 -23.75 32.45 -29.1 39.05 -50.05 58.3 -38.45 35.25 -37.95 33.95 -14.3" fill="#9c6b4d" fill-rule="evenodd" stroke="none"/>
    <path d="M58.3 -38.45 Q34.85 -19.05 46.1 13.55 M-21.7 46.3 Q-46.8 23.95 -58.55 24.75 -61.4 15.2 -59.85 11.35" fill="none" stroke="#47373a" stroke-linecap="round" stroke-linejoin="miter-clip" stroke-miterlimit="3.0" stroke-width="1.2000000000000002"/>
    <path d="M-60.35 24.3 L-59.9 24.2 -60.5 23.95 -63.3 22.55 -65.9 20.8 -67.85 18.85 -68.0 18.6 -68.2 18.35 -68.9 17.2 -69.0 16.9 -69.1 16.7 -69.15 16.5 -69.15 16.4 -69.0 16.4 -69.0 16.45 -68.85 16.55 -68.75 16.75 -67.65 17.9 -67.45 18.05 -67.25 18.25 -66.25 18.95 -65.1 19.65 -62.15 21.1 -61.95 21.15 -61.8 21.25 -61.45 21.4 -61.1 21.5 -60.75 21.65 -59.7 22.0 -62.0 20.25 -62.35 19.9 -63.5 18.95 -65.75 16.6 -67.8 13.85 -68.35 12.85 -68.35 12.7 -68.2 12.7 -63.3 17.25 -62.2 18.1 -55.3 22.25 -52.95 23.4 -52.85 23.5 -52.75 23.5 -52.7 23.55 -52.45 23.7 -52.25 23.9 -52.05 24.05 -51.95 24.1 -51.7 24.35 -51.65 24.45 -51.55 24.5 -51.2 24.95 -51.1 25.3 Q-51.1 25.8 -51.65 25.9 L-52.45 25.9 -52.65 25.85 -52.75 25.85 -52.9 25.8 -53.15 25.75 -53.25 25.7 -53.4 25.7 -53.7 25.6 -53.75 25.55 -53.85 25.5 -54.0 25.45 -55.0 24.95 -55.25 25.05 -55.45 25.1 -55.7 25.2 -55.8 25.2 -55.9 25.25 -56.45 25.25 -56.5 25.3 -56.55 25.3 -56.7 25.25 -56.9 25.25 -56.95 25.2 -57.15 25.2 -57.75 25.0 -57.9 25.1 -57.95 25.1 -57.95 25.15 -58.05 25.15 -58.15 25.2 -58.25 25.3 -58.3 25.3 -58.4 25.35 -58.6 25.4 -58.8 25.4 -59.65 25.55 -59.95 25.65 -60.1 25.65 -61.35 26.1 -62.15 26.5 -62.3 26.55 -62.45 26.65 -64.55 27.9 -64.65 27.9 -64.7 27.75 -64.25 27.15 -63.5 26.35 -62.95 25.9 -62.85 25.75 -60.7 24.45 -60.55 24.4 -60.35 24.3 M58.7 -38.1 L58.6 -38.15 57.95 -37.4 57.8 -37.25 57.7 -37.2 57.65 -37.15 57.6 -37.15 57.25 -36.95 57.15 -36.85 57.05 -36.8 56.95 -36.8 56.7 -36.7 56.5 -36.65 56.25 -36.65 56.2 -36.65 55.85 -35.95 55.65 -35.65 55.6 -35.5 55.55 -35.45 55.5 -35.35 55.3 -35.1 55.2 -35.0 55.15 -34.9 54.95 -34.7 54.85 -34.65 54.8 -34.55 54.6 -34.4 54.55 -34.35 54.45 -34.3 54.2 -34.1 53.95 -33.95 53.6 -33.9 Q53.0 -33.9 53.1 -34.5 L53.1 -34.75 53.15 -35.05 53.15 -35.25 53.2 -35.5 53.25 -35.6 53.25 -35.7 53.4 -36.1 53.45 -36.2 53.55 -36.5 53.55 -36.55 53.6 -36.6 53.65 -36.75 53.75 -36.9 53.8 -37.05 57.25 -43.6 57.4 -44.05 58.6 -47.0 58.65 -47.2 59.25 -48.9 59.45 -49.75 59.6 -50.1 60.35 -54.15 60.4 -54.2 60.55 -54.15 60.6 -50.75 60.5 -49.95 60.5 -49.55 60.45 -49.3 60.45 -49.1 59.8 -45.85 59.65 -45.4 58.95 -42.95 58.75 -42.5 58.6 -42.0 58.45 -41.6 58.5 -41.7 58.75 -41.95 60.85 -45.0 61.0 -45.35 61.2 -45.65 61.35 -46.0 61.55 -46.3 62.45 -48.4 62.65 -49.0 62.7 -49.1 62.75 -49.25 62.8 -49.5 62.85 -49.6 62.85 -49.75 62.9 -49.95 63.05 -51.3 63.05 -51.4 63.1 -51.45 63.15 -51.55 63.25 -51.5 63.3 -51.45 63.3 -51.3 63.5 -49.95 63.5 -49.0 63.45 -48.85 63.35 -47.85 62.95 -46.1 61.95 -43.55 59.85 -39.95 60.7 -40.2 61.45 -40.3 63.0 -40.3 63.2 -40.25 63.35 -40.25 64.65 -40.05 65.5 -39.8 65.85 -39.65 65.9 -39.6 65.8 -39.5 65.45 -39.45 63.2 -39.35 62.7 -39.25 62.5 -39.25 62.35 -39.2 62.15 -39.2 60.15 -38.6 60.0 -38.5 59.25 -38.15 59.15 -38.15 59.1 -38.1 58.7 -38.1" fill="#47373a" fill-rule="evenodd" stroke="none"/>
  </g>
</svg>
