<?xml version="1.0" encoding="UTF-8" standalone="no"?>
<svg xmlns:xlink="http://www.w3.org/1999/xlink" height="145.35px" width="67.15px" xmlns="http://www.w3.org/2000/svg">
  <g transform="matrix(1.0, 0.0, 0.0, 1.0, -91.3, 261.6)">
    <path d="M100.75 -261.0 Q105.25 -259.8 109.15 -256.05 117.9 -235.05 119.8 -188.1 120.65 -167.0 117.65 -157.7 114.95 -144.8 117.35 -123.7 111.95 -138.2 106.3 -176.4 L106.15 -177.1 103.55 -188.5 Q101.8 -196.15 101.35 -198.8 100.65 -202.55 98.4 -209.05 97.7 -212.3 96.35 -215.95 95.3 -219.0 92.7 -224.15 L91.45 -226.65 100.75 -261.0" fill="#aa7858" fill-rule="evenodd" stroke="none"/>
    <path d="M100.7 -261.0 L100.75 -261.05 100.75 -261.0 100.7 -261.0" fill="#af815d" fill-rule="evenodd" stroke="none"/>
    <path d="M109.15 -256.05 Q139.35 -233.8 157.85 -166.75 143.6 -123.0 121.1 -116.4 119.95 -116.85 117.35 -123.7 114.95 -144.8 117.65 -157.7 120.65 -167.0 119.8 -188.1 117.9 -235.05 109.15 -256.05" fill="#9c6b4d" fill-rule="evenodd" stroke="none"/>
    <path d="M100.75 -261.0 Q105.25 -259.8 109.15 -256.05 139.35 -233.8 157.85 -166.75 M117.35 -123.7 Q111.95 -138.2 106.3 -176.4 L106.15 -177.1 103.55 -188.5" fill="none" stroke="#47373a" stroke-linecap="round" stroke-linejoin="miter-clip" stroke-miterlimit="3.0" stroke-width="1.2000000000000002"/>
    <path d="M121.1 -116.45 L121.15 -116.35 Q121.15 -116.2 121.05 -116.3 L120.95 -116.3 120.7 -116.5 120.05 -117.2 118.55 -119.7 116.75 -123.45 116.75 -123.55 Q116.55 -124.15 117.15 -124.3 117.7 -124.5 117.9 -123.9 L118.3 -122.65 119.2 -120.0 Q119.8 -118.3 120.35 -117.4 L120.6 -116.95 120.85 -116.65 121.05 -116.5 121.1 -116.5 121.1 -116.45 M91.35 -226.6 L91.4 -226.7 91.5 -226.65 96.4 -216.5 98.1 -211.4 98.7 -209.1 98.7 -209.15 101.5 -200.25 104.1 -188.6 Q104.3 -188.0 103.65 -187.9 L103.2 -187.95 Q103.0 -188.1 102.95 -188.35 L100.6 -200.05 98.05 -208.9 98.05 -208.95 95.95 -216.3 91.35 -226.6" fill="#47373a" fill-rule="evenodd" stroke="none"/>
  </g>
</svg>
