<?xml version="1.0" encoding="UTF-8" standalone="no"?>
<svg xmlns:xlink="http://www.w3.org/1999/xlink" height="101.05px" width="132.55px" xmlns="http://www.w3.org/2000/svg">
  <g transform="matrix(1.0, 0.0, 0.0, 1.0, 65.9, 54.15)">
    <path d="M-59.85 11.35 Q-45.1 12.5 -31.4 28.45 -17.75 44.35 -21.7 46.3 -41.9 33.95 -54.85 33.55 -61.95 18.65 -59.85 11.35" fill="#aa7858" fill-rule="evenodd" stroke="none"/>
    <path d="M-21.7 46.3 Q-41.9 33.95 -54.85 33.55 -61.95 18.65 -59.85 11.35" fill="none" stroke="#47373a" stroke-linecap="round" stroke-linejoin="miter-clip" stroke-miterlimit="3.0" stroke-width="1.2000000000000002"/>
    <path d="M34.95 -10.8 Q31.15 -23.75 32.45 -29.1 39.05 -50.05 58.3 -38.45 35.05 -35.7 34.95 -10.8" fill="#9c6b4d" fill-rule="evenodd" stroke="none"/>
    <path d="M34.95 -10.8 Q35.05 -35.7 58.3 -38.45 46.85 -14.45 46.1 13.55 37.2 -3.2 34.95 -10.8" fill="#aa7858" fill-rule="evenodd" stroke="none"/>
    <path d="M58.3 -38.45 Q46.85 -14.45 46.1 13.55" fill="none" stroke="#47373a" stroke-linecap="round" stroke-linejoin="miter-clip" stroke-miterlimit="3.0" stroke-width="1.2000000000000002"/>
    <path d="M-57.1 33.15 L-56.65 33.05 -57.25 32.8 -60.05 31.4 -62.65 29.65 -63.7 28.65 -64.6 27.7 -64.75 27.45 -64.95 27.2 -65.65 26.05 -65.75 25.75 -65.85 25.55 -65.9 25.35 -65.9 25.25 -65.75 25.25 -65.75 25.3 -65.6 25.4 -65.5 25.6 -65.3 25.85 -64.4 26.75 -64.2 26.9 -64.0 27.1 -63.0 27.8 -61.85 28.5 -58.9 29.95 -58.7 30.0 -58.55 30.1 -58.2 30.25 -57.85 30.35 -57.5 30.5 -56.45 30.85 -58.75 29.1 -59.1 28.75 -59.9 28.1 -62.5 25.45 -64.55 22.7 -65.1 21.7 -65.1 21.55 -64.95 21.55 -62.65 23.95 -61.75 24.7 -61.45 25.0 -58.95 26.95 -52.05 31.1 -49.7 32.25 -49.6 32.35 -49.5 32.35 -49.45 32.4 -49.2 32.55 -49.0 32.75 -48.8 32.9 -48.7 32.95 -48.45 33.2 -48.4 33.3 -48.3 33.35 -47.95 33.8 -47.85 34.15 Q-47.85 34.65 -48.4 34.75 L-49.2 34.75 -49.4 34.7 -49.5 34.7 -49.65 34.65 -49.9 34.6 -50.0 34.55 -50.15 34.55 -50.45 34.45 -50.5 34.4 -50.6 34.35 -50.75 34.3 -51.75 33.8 -52.0 33.9 -52.2 33.95 -52.45 34.05 -52.55 34.05 -52.65 34.1 -53.2 34.1 -53.25 34.15 -53.3 34.15 -53.45 34.1 -53.65 34.1 -53.7 34.05 -53.9 34.05 -54.5 33.85 -54.65 33.95 -54.7 33.95 -54.7 34.0 -54.8 34.0 -54.9 34.05 -55.0 34.15 -55.05 34.15 -55.15 34.2 -55.35 34.25 -55.55 34.25 -56.4 34.4 -56.7 34.5 -56.85 34.5 -58.1 34.95 -58.9 35.35 -59.05 35.4 -61.3 36.75 -61.4 36.75 -61.45 36.6 -61.0 36.0 -60.25 35.2 -59.7 34.75 -59.6 34.6 -57.45 33.3 -57.3 33.25 -57.1 33.15" fill="#47373a" fill-rule="evenodd" stroke="none"/>
    <path d="M59.95 -37.95 L59.7 -37.95 59.2 -37.1 58.45 -36.4 58.35 -36.35 58.3 -36.35 57.85 -36.1 57.6 -36.05 57.5 -36.05 57.1 -34.7 56.95 -34.45 56.9 -34.3 56.8 -34.2 56.65 -34.0 56.6 -33.9 56.5 -33.8 56.35 -33.6 56.0 -33.25 55.8 -33.1 55.45 -32.95 Q54.95 -32.85 54.85 -33.45 L54.85 -33.75 54.8 -34.05 54.8 -34.6 54.85 -34.7 54.85 -34.95 54.9 -35.1 54.9 -35.2 55.0 -35.5 55.0 -35.6 55.05 -35.65 57.75 -44.1 58.7 -49.55 58.7 -49.65 58.75 -49.75 58.85 -54.0 58.9 -54.1 59.0 -54.05 59.1 -53.8 59.65 -50.7 59.7 -49.9 59.75 -49.7 59.75 -46.75 59.05 -41.3 59.05 -41.4 59.85 -43.05 59.95 -43.2 60.05 -43.4 61.05 -45.8 61.15 -46.15 61.4 -46.8 62.0 -49.6 62.0 -49.85 62.05 -50.35 62.0 -51.65 62.0 -51.85 62.05 -51.95 62.15 -51.9 62.25 -51.75 62.65 -50.4 62.8 -49.3 62.85 -48.0 62.65 -46.15 62.6 -45.95 62.6 -45.75 62.25 -44.2 61.65 -42.3 61.05 -40.85 61.0 -40.7 60.65 -39.95 60.75 -40.0 60.9 -40.1 61.1 -40.15 61.25 -40.25 61.45 -40.3 61.8 -40.45 62.15 -40.55 63.7 -40.8 65.35 -40.8 66.25 -40.7 66.6 -40.6 66.65 -40.55 66.6 -40.45 66.55 -40.45 66.25 -40.35 65.85 -40.3 64.0 -39.85 62.9 -39.5 62.25 -39.2 61.95 -39.1 61.8 -39.0 61.65 -38.95 60.7 -38.3 60.5 -38.2 60.35 -38.05 60.25 -38.05 60.2 -38.0 60.05 -38.0 59.95 -37.95" fill="#47373a" fill-rule="evenodd" stroke="none"/>
  </g>
</svg>
