<?xml version="1.0" encoding="UTF-8" standalone="no"?>
<svg xmlns:xlink="http://www.w3.org/1999/xlink" height="120.2px" width="202.55px" xmlns="http://www.w3.org/2000/svg">
  <g transform="matrix(1.0, 0.0, 0.0, 1.0, 99.1, 62.15)">
    <path d="M31.9 10.05 L41.4 57.4 Q4.1 57.9 -26.7 53.1 -60.4 32.75 -92.95 9.3 L-92.95 4.8 Q-75.9 4.15 -26.15 40.45 5.45 30.95 31.9 10.05 M-98.25 -22.95 L-98.5 -27.3 Q-92.05 -29.35 -81.65 -26.45 L-91.0 -25.2 Q-86.25 -23.95 -83.05 -20.8 -85.1 -20.15 -87.15 -20.8 -92.7 -23.95 -98.25 -22.95" fill="#9c6b4d" fill-rule="evenodd" stroke="none"/>
    <path d="M31.9 10.05 Q5.45 30.95 -26.15 40.45 -75.9 4.15 -92.95 4.8 -97.25 -8.05 -98.25 -22.95 -92.7 -23.95 -87.15 -20.8 -83.4 -19.05 -81.0 -15.95 -82.8 -14.85 -84.75 -16.3 L-69.5 -4.2 Q-43.25 10.95 -18.45 28.95 2.2 12.25 27.25 -12.95 L31.9 10.05 M-84.95 -16.5 L-84.75 -16.3 -84.95 -16.5" fill="#aa7858" fill-rule="evenodd" stroke="none"/>
    <path d="M-84.75 -16.3 L-84.95 -16.5 M-87.15 -20.8 Q-85.1 -20.15 -83.05 -20.8 -86.25 -23.95 -91.0 -25.2 L-81.65 -26.45 Q-92.05 -29.35 -98.5 -27.3 M-87.15 -20.8 Q-83.4 -19.05 -81.0 -15.95 -82.8 -14.85 -84.75 -16.3" fill="none" stroke="#47373a" stroke-linecap="round" stroke-linejoin="miter-clip" stroke-miterlimit="3.0" stroke-width="1.2000000000000002"/>
    <path d="M-92.95 9.3 Q-60.4 32.75 -26.7 53.1 4.1 57.9 41.4 57.4 M27.25 -12.95 Q2.2 12.25 -18.45 28.95 -43.25 10.95 -69.5 -4.2 L-84.75 -16.3 Z" fill="none" stroke="#47373a" stroke-linecap="round" stroke-linejoin="round" stroke-width="1.2000000000000002"/>
    <path d="M-18.75 28.4 L-18.65 28.35 Q-18.1 28.05 -17.8 28.65 -17.6 29.2 -18.1 29.45 L-22.1 31.35 -22.25 31.35 -22.25 31.2 -18.75 28.4" fill="#47373a" fill-rule="evenodd" stroke="none"/>
    <path d="M78.0 -60.7 L78.05 -60.7 Q82.25 -54.95 82.85 -50.6 87.25 -53.35 90.15 -48.3 94.5 -40.25 95.3 -29.55 102.15 -22.5 102.85 -14.75 102.1 6.35 87.1 7.3 90.35 35.95 58.5 36.1 39.95 51.75 21.45 41.75 0.9 36.7 -3.6 25.9 -4.95 28.85 -6.8 29.45 -4.3 23.0 -4.9 18.7 -4.8 12.6 -0.95 5.25 1.95 6.1 3.85 9.2 5.55 17.3 21.55 7.65 26.65 25.7 37.8 19.6 49.8 22.9 57.35 16.75 63.35 7.6 56.85 3.65 71.3 2.4 74.8 -11.9 79.1 -31.9 69.8 -36.85 68.0 -35.4 48.7 -38.55 66.4 -48.25 78.0 -60.7 M12.6 -49.1 Q14.25 -51.65 16.4 -53.5 17.7 -51.85 16.4 -47.7 L20.35 -51.15 Q15.55 -46.25 12.75 -38.55 11.65 -41.15 12.6 -49.1 M46.7 -60.35 Q49.4 -59.0 51.5 -56.15 42.15 -52.7 35.6 -46.4 L25.55 -34.2 Q16.1 -33.05 24.4 -46.1 L46.7 -60.35" fill="#e0cf99" fill-rule="evenodd" stroke="none"/>
    <path d="M-0.95 5.25 Q-11.0 1.5 -12.65 -7.7 -14.35 -3.25 -15.3 -7.35 L-14.2 -12.6 Q-8.2 -28.35 6.1 -29.15 6.0 -31.25 7.4 -34.4 8.9 -43.5 12.6 -49.1 11.65 -41.15 12.75 -38.55 15.55 -46.25 20.35 -51.15 L24.2 -54.15 Q38.25 -64.55 46.7 -60.35 L24.4 -46.1 Q16.1 -33.05 25.55 -34.2 L35.6 -46.4 Q42.15 -52.7 51.5 -56.15 63.65 -62.6 78.0 -60.7 66.4 -48.25 48.7 -38.55 68.0 -35.4 69.8 -36.85 79.1 -31.9 74.8 -11.9 71.3 2.4 56.85 3.65 63.35 7.6 57.35 16.75 49.8 22.9 37.8 19.6 26.65 25.7 21.55 7.65 5.55 17.3 3.85 9.2 1.95 6.1 -0.95 5.25" fill="#f7e6ad" fill-rule="evenodd" stroke="none"/>
    <path d="M78.0 -60.7 L78.05 -60.7 Q82.25 -54.95 82.85 -50.6 87.25 -53.35 90.15 -48.3 94.5 -40.25 95.3 -29.55 102.15 -22.5 102.85 -14.75 102.1 6.35 87.1 7.3 90.35 35.95 58.5 36.1 39.95 51.75 21.45 41.75 0.9 36.7 -3.6 25.9 -4.95 28.85 -6.8 29.45 -4.3 23.0 -4.9 18.7 -4.8 12.6 -0.95 5.25 -11.0 1.5 -12.65 -7.7 -14.35 -3.25 -15.3 -7.35 L-14.2 -12.6 Q-8.2 -28.35 6.1 -29.15 6.0 -31.25 7.4 -34.4 8.9 -43.5 12.6 -49.1 14.25 -51.65 16.4 -53.5 17.7 -51.85 16.4 -47.7 L20.35 -51.15 24.2 -54.15 Q38.25 -64.55 46.7 -60.35 49.4 -59.0 51.5 -56.15 63.65 -62.6 78.0 -60.7 Z" fill="none" stroke="#47373a" stroke-linecap="round" stroke-linejoin="miter-clip" stroke-miterlimit="5.0" stroke-width="1.2000000000000002"/>
    <path d="M-1.1 5.8 L-1.2 5.75 Q-1.75 5.55 -1.55 5.0 -1.3 4.45 -0.75 4.65 L-0.4 4.8 -0.35 4.8 -0.2 4.9 0.0 5.0 0.15 5.1 0.3 5.15 0.4 5.2 0.85 5.5 0.95 5.6 1.1 5.65 1.35 5.85 1.9 6.35 2.0 6.5 2.25 6.7 2.45 6.95 2.75 7.25 2.8 7.4 3.0 7.6 3.4 8.25 3.45 8.35 3.55 8.45 3.65 8.6 3.9 9.1 3.9 9.25 3.75 9.25 3.6 9.0 3.4 8.75 3.2 8.55 3.15 8.45 2.8 8.1 2.65 7.9 2.45 7.75 2.25 7.55 1.55 7.0 1.45 6.9 0.6 6.4 0.15 6.2 0.0 6.1 -0.1 6.1 -0.2 6.05 -0.7 5.9 -0.75 5.9 -0.85 5.85 -1.1 5.8 M95.75 -29.9 Q96.2 -29.45 95.7 -29.05 L94.85 -29.1 94.45 -29.6 90.3 -33.8 90.05 -34.0 90.05 -34.15 90.2 -34.15 94.9 -30.65 95.2 -30.35 95.5 -30.15 95.75 -29.9 M81.45 -44.35 L81.35 -44.35 Q81.15 -44.35 81.3 -44.5 L81.45 -44.7 81.55 -45.0 81.65 -45.15 81.95 -45.8 82.0 -46.05 82.05 -46.2 82.1 -46.3 82.15 -46.6 82.25 -46.85 82.25 -47.0 82.3 -47.15 82.3 -47.3 82.35 -47.35 82.35 -47.75 82.4 -48.0 82.4 -49.35 82.35 -49.55 82.3 -49.95 82.3 -50.25 82.25 -50.5 82.25 -50.55 82.2 -50.6 Q82.2 -51.25 82.8 -51.25 83.4 -51.25 83.4 -50.65 L83.45 -50.35 83.45 -50.0 83.4 -49.6 83.4 -49.35 83.35 -49.05 83.35 -48.8 83.2 -47.9 83.0 -47.3 83.0 -47.2 82.95 -47.15 82.6 -46.15 82.5 -46.0 82.3 -45.65 82.2 -45.4 82.05 -45.2 81.95 -45.0 81.8 -44.85 81.7 -44.7 81.65 -44.6 81.45 -44.35 M13.75 -26.4 L13.75 -26.25 13.6 -26.25 12.8 -26.85 12.3 -27.15 12.15 -27.2 12.0 -27.3 11.7 -27.45 11.55 -27.55 11.4 -27.6 10.75 -27.95 10.4 -28.05 10.2 -28.15 9.85 -28.25 9.75 -28.3 9.65 -28.3 9.3 -28.4 7.65 -28.65 7.0 -28.65 6.95 -28.6 6.85 -28.6 6.45 -28.55 6.15 -28.55 6.1 -28.5 6.05 -28.5 Q5.5 -28.5 5.4 -29.1 5.4 -29.7 6.0 -29.7 L6.4 -29.75 6.85 -29.7 7.1 -29.7 7.4 -29.65 7.75 -29.65 8.05 -29.6 9.55 -29.15 10.1 -28.9 10.3 -28.85 10.45 -28.75 12.4 -27.55 12.5 -27.45 12.95 -27.1 13.15 -26.9 13.75 -26.4 M51.25 -56.7 L51.3 -56.7 Q51.85 -56.9 52.05 -56.35 52.25 -55.7 51.7 -55.55 L50.05 -55.0 45.85 -53.2 43.2 -51.8 43.0 -51.65 39.3 -49.3 39.15 -49.15 35.65 -46.3 35.5 -46.3 35.5 -46.45 38.75 -49.4 38.9 -49.5 39.35 -49.9 42.45 -52.15 42.65 -52.25 42.85 -52.4 51.25 -56.7" fill="#47373a" fill-rule="evenodd" stroke="none"/>
  </g>
</svg>
