<?xml version="1.0" encoding="UTF-8" standalone="no"?>
<svg xmlns:xlink="http://www.w3.org/1999/xlink" height="220.25px" width="168.25px" xmlns="http://www.w3.org/2000/svg">
  <g transform="matrix(1.0, 0.0, 0.0, 1.0, 83.95, 110.2)">
    <path d="M1.9 -100.3 L1.85 -100.4 Q1.95 -101.3 5.75 -104.5 9.55 -107.75 13.95 -109.15 L13.95 -109.1 14.0 -109.0 13.35 -108.7 Q11.75 -107.95 7.85 -105.1 3.05 -101.6 1.9 -100.3 M-29.35 -110.05 Q-27.2 -110.45 -25.1 -109.55 L-18.3 -105.7 Q-13.6 -102.75 -12.5 -101.8 L-11.35 -100.75 Q-14.85 -102.5 -20.75 -106.15 -26.7 -109.85 -29.3 -109.95 L-29.35 -110.05 M1.35 -48.5 Q3.45 -47.6 6.55 -46.1 L11.6 -43.6 11.15 -43.7 Q9.15 -44.0 6.15 -45.3 L5.95 -45.35 5.5 -45.5 5.1 -45.7 Q4.35 -45.85 2.8 -47.15 1.0 -48.55 1.35 -48.5 M-10.8 -45.15 L-11.0 -45.1 -11.2 -45.0 Q-14.55 -43.65 -16.1 -43.65 L-16.75 -43.7 -16.7 -43.8 Q-11.4 -45.7 -7.65 -47.4 L-5.1 -48.4 -5.3 -48.0 -6.7 -47.05 Q-7.8 -46.25 -10.8 -45.15 M-2.75 -13.75 L-2.65 -16.25 -2.45 -24.3 -2.4 -26.25 -2.35 -33.95 -2.4 -34.8 -2.35 -34.45 -2.1 -32.35 Q-1.75 -28.45 -1.85 -24.6 L-2.05 -20.8 Q-2.6 -13.75 -2.75 -13.75" fill="#47373a" fill-rule="evenodd" stroke="none"/>
    <path d="M-11.35 -100.75 L-10.95 -100.55 -10.95 -100.5 1.75 -100.4 1.9 -100.3 Q3.05 -101.6 7.85 -105.1 11.75 -107.95 13.35 -108.7 14.25 -108.85 14.5 -107.35 L10.4 -103.55 Q5.4 -99.8 12.65 -103.2 16.35 -104.55 19.5 -104.7 20.5 -91.9 26.55 -74.4 22.5 -76.9 23.15 -75.8 25.65 -74.95 27.75 -73.7 36.55 -68.05 36.3 -54.6 L36.0 -51.2 Q35.0 -46.4 31.4 -43.2 27.8 -41.15 26.85 -33.25 28.8 -23.9 33.2 -17.45 L38.6 -6.55 Q41.3 -0.05 45.2 5.5 L45.9 7.4 45.85 7.4 Q67.95 36.75 50.45 101.65 -1.05 118.3 -50.7 101.95 -70.65 47.2 -62.45 17.4 -57.55 -1.55 -48.95 -12.1 -39.75 -20.75 -39.8 -32.05 L-41.8 -36.6 Q-44.0 -41.95 -48.05 -46.1 -52.5 -46.8 -53.95 -48.6 L-51.4 -55.7 Q-51.15 -54.35 -48.9 -54.0 -48.05 -53.65 -47.1 -51.8 L-43.05 -43.35 Q-44.25 -59.0 -38.85 -68.25 L-35.25 -71.7 Q-27.6 -75.25 -20.7 -75.7 L-29.5 -75.5 Q-37.35 -73.95 -44.45 -76.05 L-40.25 -87.45 Q-37.4 -94.75 -36.45 -105.4 -32.4 -110.05 -29.35 -110.05 L-29.3 -109.95 Q-26.7 -109.85 -20.75 -106.15 -14.85 -102.5 -11.35 -100.75 M12.85 -76.75 Q2.1 -76.85 -0.85 -67.35 -1.3 -63.05 0.35 -60.3 2.8 -75.45 12.85 -76.75 M5.5 -45.5 L5.95 -45.35 6.15 -45.3 Q9.15 -44.0 11.15 -43.7 L11.6 -43.6 6.55 -46.1 Q3.45 -47.6 1.35 -48.5 -0.95 -49.65 -2.0 -49.75 -3.15 -49.7 -5.1 -48.4 L-7.65 -47.4 Q-11.4 -45.7 -16.7 -43.8 L-16.75 -43.7 -16.1 -43.65 Q-14.55 -43.65 -11.2 -45.0 L-11.0 -45.1 -10.8 -45.15 Q-2.05 -48.05 5.5 -45.5 M-2.35 -34.45 L-2.4 -34.8 -2.35 -33.95 -2.4 -26.25 -2.45 -24.3 -2.65 -16.25 -2.75 -13.75 -3.0 -10.05 Q-3.25 -0.6 -0.95 -22.55 -1.25 -41.05 -2.5 -38.95 L-2.35 -34.45 M-29.7 -27.2 L-29.75 -27.2 -29.7 -27.2" fill="#aa7858" fill-rule="evenodd" stroke="none"/>
    <path d="M13.95 -109.1 Q16.5 -109.1 18.75 -110.0 L19.35 -106.65 19.5 -104.7 Q16.35 -104.55 12.65 -103.2 5.4 -99.8 10.4 -103.55 L14.5 -107.35 Q14.25 -108.85 13.35 -108.7 L14.0 -109.0 13.95 -109.1 M36.0 -51.2 Q42.7 -33.15 53.6 -14.7 72.15 14.85 83.7 87.2 67.6 96.15 50.45 101.65 67.95 36.75 45.85 7.4 L45.9 7.4 45.2 5.5 Q41.3 -0.05 38.6 -6.55 L33.2 -17.45 Q28.8 -23.9 26.85 -33.25 27.8 -41.15 31.4 -43.2 35.0 -46.4 36.0 -51.2 M-51.4 -55.7 Q-51.65 -56.9 -50.35 -58.8 L-48.4 -64.75 Q-47.45 -67.15 -46.65 -69.7 L-45.15 -74.05 -44.45 -76.05 Q-37.35 -73.95 -29.5 -75.5 -32.95 -74.6 -35.6 -73.1 -36.15 -72.65 -36.85 -72.4 -36.9 -72.25 -37.1 -72.25 L-38.2 -71.4 -40.8 -68.8 Q-42.8 -66.35 -43.8 -63.25 -44.95 -59.8 -45.05 -55.5 L-45.05 -53.35 -44.9 -51.05 Q-44.5 -47.7 -43.05 -43.35 L-47.1 -51.8 Q-48.05 -53.65 -48.9 -54.0 -51.15 -54.35 -51.4 -55.7 L-50.35 -58.8 -51.4 -55.7 M1.35 -48.5 Q1.0 -48.55 2.8 -47.15 4.35 -45.85 5.1 -45.7 L5.5 -45.5 Q-2.05 -48.05 -10.8 -45.15 -7.8 -46.25 -6.7 -47.05 L-5.3 -48.0 -5.1 -48.4 Q-3.15 -49.7 -2.0 -49.75 -0.95 -49.65 1.35 -48.5 M-2.75 -13.75 Q-2.6 -13.75 -2.05 -20.8 L-1.85 -24.6 Q-1.75 -28.45 -2.1 -32.35 L-2.35 -34.45 -2.5 -38.95 Q-1.25 -41.05 -0.95 -22.55 -3.25 -0.6 -3.0 -10.05 L-2.75 -13.75" fill="#9c6b4d" fill-rule="evenodd" stroke="none"/>
    <path d="M-50.7 101.95 Q-67.45 96.45 -83.15 87.15 -85.45 16.9 -63.7 -24.2 -58.15 -37.35 -53.95 -48.6 -52.5 -46.8 -48.05 -46.1 -44.0 -41.95 -41.8 -36.6 L-39.8 -32.05 Q-39.75 -20.75 -48.95 -12.1 -57.55 -1.55 -62.45 17.4 -70.65 47.2 -50.7 101.95 M12.85 -76.75 Q2.8 -75.45 0.35 -60.3 -1.3 -63.05 -0.85 -67.35 2.1 -76.85 12.85 -76.75 M-29.5 -75.5 L-20.7 -75.7 Q-27.6 -75.25 -35.25 -71.7 L-38.85 -68.25 Q-44.25 -59.0 -43.05 -43.35 -44.5 -47.7 -44.9 -51.05 L-45.05 -53.35 -45.05 -55.5 Q-44.95 -59.8 -43.8 -63.25 -42.8 -66.35 -40.8 -68.8 L-38.2 -71.4 -37.1 -72.25 Q-36.9 -72.25 -36.85 -72.4 -36.15 -72.65 -35.6 -73.1 -32.95 -74.6 -29.5 -75.5 M-29.7 -27.2 L-29.75 -27.2 -29.7 -27.2" fill="#af815d" fill-rule="evenodd" stroke="none"/>
    <path d="M27.75 -73.7 Q36.55 -68.05 36.3 -54.6 M-35.6 -73.1 Q-36.15 -72.65 -36.85 -72.4 -36.9 -72.25 -37.1 -72.25 L-38.2 -71.4 -40.8 -68.8 Q-42.8 -66.35 -43.8 -63.25 -44.95 -59.8 -45.05 -55.5 L-45.05 -53.35 -44.9 -51.05" fill="none" stroke="#47373a" stroke-linecap="round" stroke-linejoin="miter-clip" stroke-miterlimit="3.0" stroke-width="1.2000000000000002"/>
    <path d="M36.0 -51.2 Q42.7 -33.15 53.6 -14.7 72.15 14.85 83.7 87.2 M-83.15 87.15 Q-85.45 16.9 -63.7 -24.2 -58.15 -37.35 -53.95 -48.6 L-51.4 -55.7 -50.35 -58.8 -48.4 -64.75 Q-47.45 -67.15 -46.65 -69.7 L-45.15 -74.05 -44.45 -76.05 -40.25 -87.45 Q-37.4 -94.75 -36.45 -105.4" fill="none" stroke="#47373a" stroke-linecap="round" stroke-linejoin="round" stroke-width="1.2000000000000002"/>
    <path d="M-45.45 -50.95 L-45.5 -51.0 Q-45.5 -51.65 -44.9 -51.65 L-44.5 -51.5 -44.3 -51.1 -44.25 -50.75 -43.95 -47.95 -43.25 -44.55 -43.0 -43.7 -42.95 -43.35 Q-42.85 -43.25 -43.0 -43.25 -43.1 -43.15 -43.1 -43.3 L-43.8 -45.0 -45.35 -50.2 -45.35 -50.45 -45.4 -50.55 -45.4 -50.6 -45.45 -50.95 M-29.5 -75.55 L-29.4 -75.5 Q-29.3 -75.4 -29.45 -75.4 L-30.0 -75.15 -30.4 -75.05 -32.5 -74.15 -32.75 -74.0 -34.8 -72.9 -35.05 -72.7 -35.3 -72.55 -35.35 -72.5 -35.8 -72.5 -36.15 -72.8 Q-36.4 -73.3 -35.85 -73.6 L-34.45 -74.2 -32.45 -74.9 -32.15 -74.95 -31.55 -75.15 -29.5 -75.55 M35.7 -54.65 Q35.7 -55.2 36.3 -55.2 36.95 -55.1 36.85 -54.55 L36.85 -54.0 36.65 -52.55 36.5 -51.55 36.45 -51.3 36.45 -51.05 36.4 -51.0 35.9 -49.3 34.2 -46.1 33.9 -45.65 32.9 -44.5 32.75 -44.3 31.45 -43.1 31.3 -43.1 31.3 -43.25 32.65 -44.7 32.8 -44.9 32.85 -45.0 32.95 -45.1 33.5 -45.9 34.55 -47.9 35.15 -49.55 35.5 -51.2 35.5 -51.3 35.55 -51.45 35.7 -54.65 M19.8 -76.6 Q19.65 -76.6 19.75 -76.7 L19.85 -76.75 19.95 -76.75 23.65 -75.95 27.95 -74.25 28.05 -74.2 28.1 -74.15 Q28.55 -73.75 28.25 -73.3 27.9 -72.85 27.4 -73.15 L27.35 -73.2 27.1 -73.35 26.8 -73.6 25.8 -74.15 Q23.0 -75.3 20.15 -76.5 L19.9 -76.55 19.8 -76.6" fill="#47373a" fill-rule="evenodd" stroke="none"/>
  </g>
</svg>
