<?xml version="1.0" encoding="UTF-8" standalone="no"?>
<svg xmlns:xlink="http://www.w3.org/1999/xlink" height="92.4px" width="108.35px" xmlns="http://www.w3.org/2000/svg">
  <g transform="matrix(1.0, 0.0, 0.0, 1.0, 54.2, 46.2)">
    <path d="M22.9 2.75 L22.9 -8.1 35.1 -8.1 34.85 -5.7 Q40.1 -5.8 44.1 -2.7 47.9 0.35 48.05 4.65 L48.05 4.7 48.1 4.75 Q48.3 5.55 48.65 6.15 52.8 17.5 47.1 22.3 50.05 23.7 52.15 27.7 L52.6 28.65 53.75 46.2 22.9 46.2 22.9 2.9 Q27.9 -4.75 38.35 -4.6 L34.2 -5.1 30.05 -4.85 30.05 -4.9 Q23.1 -3.05 22.9 2.75 M37.35 20.4 Q29.05 21.6 28.35 27.4 33.5 20.9 43.4 21.15 40.55 20.15 37.35 20.4 M-31.55 -6.9 L-21.5 -6.9 -21.5 -2.05 -21.45 42.55 -54.2 42.55 Q-53.1 38.4 -51.4 34.75 -51.35 34.6 -51.3 34.8 L-42.95 26.45 Q-32.5 22.35 -26.25 24.45 -29.7 21.85 -34.35 22.0 L-34.1 21.95 -34.05 21.85 -35.05 21.75 -37.5 21.75 -40.95 22.75 Q-51.5 16.25 -46.2 7.4 L-46.05 7.45 -46.0 7.35 Q-36.15 -4.7 -21.5 -2.05 L-25.1 -3.5 -27.25 -4.3 -30.55 -4.85 -31.55 -6.9" fill="#aa7858" fill-rule="evenodd" stroke="none"/>
    <path d="M52.6 28.65 L52.15 27.7 Q50.05 23.7 47.1 22.3 52.8 17.5 48.65 6.15 48.3 5.55 48.1 4.75 L48.05 4.7 48.05 4.65 Q47.9 0.35 44.1 -2.7 40.1 -5.8 34.85 -5.7 L35.1 -8.1 50.1 -8.1 52.6 28.65" fill="#9c6b4d" fill-rule="evenodd" stroke="none"/>
    <path d="M22.9 2.75 Q23.1 -3.05 30.05 -4.9 L30.05 -4.85 34.2 -5.1 38.35 -4.6 Q27.9 -4.75 22.9 2.9 L22.9 2.75 M37.35 20.4 Q40.55 20.15 43.4 21.15 33.5 20.9 28.35 27.4 29.05 21.6 37.35 20.4 M-54.2 42.55 L-54.2 14.9 -37.5 -6.9 -31.55 -6.9 -30.55 -4.85 -27.25 -4.3 -25.1 -3.5 -21.5 -2.05 Q-36.15 -4.7 -46.0 7.35 L-46.05 7.45 -46.2 7.4 Q-51.5 16.25 -40.95 22.75 L-37.5 21.75 -35.05 21.75 -34.05 21.85 -34.1 21.95 -34.35 22.0 Q-29.7 21.85 -26.25 24.45 -32.5 22.35 -42.95 26.45 L-51.3 34.8 Q-51.35 34.6 -51.4 34.75 -53.1 38.4 -54.2 42.55" fill="#af815d" fill-rule="evenodd" stroke="none"/>
    <path d="M-38.35 1.0 Q-36.8 -2.1 -33.6 -1.85 -32.65 -1.75 -31.65 -1.15 L-30.8 -0.25 -30.85 -0.3 Q-34.8 -2.9 -38.35 1.0" fill="#47373a" fill-rule="evenodd" stroke="none"/>
    <path d="M-38.35 1.0 Q-34.8 -2.9 -30.85 -0.3 -31.1 1.8 -32.4 3.1 -33.65 4.4 -35.3 4.25 -37.65 4.1 -38.35 1.0" fill="url(#gradient0)" fill-rule="evenodd" stroke="none"/>
    <path d="M-45.8 30.05 Q-42.9 25.2 -38.5 27.2 -38.4 29.45 -39.5 31.1 -40.55 32.75 -42.2 32.95 -44.6 33.2 -45.8 30.05" fill="url(#gradient1)" fill-rule="evenodd" stroke="none"/>
    <path d="M-45.8 30.05 Q-44.75 26.45 -41.5 26.05 L-39.45 26.4 Q-38.6 26.8 -38.45 27.25 L-38.5 27.2 Q-42.9 25.2 -45.8 30.05" fill="#47373a" fill-rule="evenodd" stroke="none"/>
    <path d="M36.5 -1.4 L36.45 -1.35 37.5 -2.35 Q38.3 -2.9 40.25 -2.9 42.2 -2.9 44.45 0.8 41.1 -3.85 36.5 -1.4" fill="#47373a" fill-rule="evenodd" stroke="none"/>
    <path d="M44.45 0.8 Q43.55 3.85 41.35 4.05 39.1 4.2 37.85 2.65 36.55 1.05 36.5 -1.4 41.1 -3.85 44.45 0.8" fill="url(#gradient2)" fill-rule="evenodd" stroke="none"/>
    <path d="M41.4 24.0 L41.3 24.05 42.6 23.15 45.4 22.95 Q47.3 23.2 48.45 27.2 46.45 22.1 41.4 24.0" fill="#47373a" fill-rule="evenodd" stroke="none"/>
    <path d="M48.45 27.2 Q46.8 30.1 44.65 30.05 42.4 29.9 41.65 28.2 40.8 26.45 41.4 24.0 46.45 22.1 48.45 27.2" fill="url(#gradient3)" fill-rule="evenodd" stroke="none"/>
    <path d="M-29.8 -42.15 Q-28.15 -45.65 -24.8 -45.6 -23.8 -45.55 -22.75 -44.95 -21.95 -44.45 -21.85 -44.05 L-21.9 -44.05 Q-26.05 -46.65 -29.8 -42.15" fill="#47373a" fill-rule="evenodd" stroke="none"/>
    <path d="M-29.8 -42.15 Q-26.05 -46.65 -21.9 -44.05 -22.15 -41.75 -23.55 -40.2 -24.85 -38.7 -26.6 -38.75 -29.05 -38.75 -29.8 -42.15" fill="url(#gradient4)" fill-rule="evenodd" stroke="none"/>
    <path d="M38.8 -42.1 Q37.55 -38.95 35.2 -38.9 32.85 -38.9 31.7 -40.55 30.5 -42.35 30.7 -44.85 35.8 -47.1 38.8 -42.1" fill="url(#gradient5)" fill-rule="evenodd" stroke="none"/>
    <path d="M30.7 -44.85 L30.65 -44.8 Q30.9 -45.3 31.85 -45.8 L34.8 -46.15 Q36.85 -46.05 38.8 -42.1 35.8 -47.1 30.7 -44.85" fill="#47373a" fill-rule="evenodd" stroke="none"/>
    <path d="M-34.35 22.0 Q-39.85 22.35 -44.75 26.15 -49.75 30.5 -51.3 34.8 -51.35 34.6 -51.4 34.75 L-51.45 34.75 Q-49.8 30.0 -48.55 28.45 -46.35 25.3 -40.95 22.75 L-37.5 21.75 -35.05 21.75 -34.05 21.85 -34.1 21.95 -34.35 22.0" fill="#47373a" fill-rule="evenodd" stroke="none"/>
    <path d="M-46.0 7.35 L-46.2 7.4 Q-45.05 4.6 -41.65 0.85 -36.1 -5.1 -30.55 -4.85 L-27.25 -4.3 -25.1 -3.5 -25.1 -3.35 Q-32.45 -5.3 -39.2 -0.4 -44.05 3.15 -46.0 7.35" fill="#47373a" fill-rule="evenodd" stroke="none"/>
    <path d="M48.05 4.7 L48.0 4.7 Q47.65 2.0 44.65 -1.1 42.0 -3.7 38.35 -4.6 L34.2 -5.1 30.05 -4.85 30.05 -4.9 34.85 -5.7 Q40.1 -5.8 44.1 -2.7 47.9 0.35 48.05 4.65 L48.05 4.7" fill="#47373a" fill-rule="evenodd" stroke="none"/>
    <path d="M43.4 21.15 Q40.55 20.15 37.4 20.4 L40.2 20.15 Q42.7 20.1 44.8 21.1 L47.1 22.3 Q50.05 23.7 52.15 27.7 53.15 29.75 54.15 32.55 L54.05 32.55 Q52.5 27.4 47.9 23.65 45.8 21.95 43.4 21.15" fill="#47373a" fill-rule="evenodd" stroke="none"/>
  </g>
  <defs>
    <radialGradient cx="0" cy="0" gradientTransform="matrix(0.0053, 4.0E-4, -4.0E-4, 0.0049, -35.0, 0.0)" gradientUnits="userSpaceOnUse" id="gradient0" r="819.2" spreadMethod="pad">
      <stop offset="0.0392156862745098" stop-color="#e29091"/>
      <stop offset="0.48627450980392156" stop-color="#d7898a"/>
      <stop offset="0.7490196078431373" stop-color="#bd7879"/>
    </radialGradient>
    <radialGradient cx="0" cy="0" gradientTransform="matrix(0.0054, -6.0E-4, 4.0E-4, 0.0054, -42.6, 28.35)" gradientUnits="userSpaceOnUse" id="gradient1" r="819.2" spreadMethod="pad">
      <stop offset="0.0392156862745098" stop-color="#e29091"/>
      <stop offset="0.48627450980392156" stop-color="#d7898a"/>
      <stop offset="0.7490196078431373" stop-color="#bd7879"/>
    </radialGradient>
    <radialGradient cx="0" cy="0" gradientTransform="matrix(-0.0057, 0.0, 0.0, 0.0058, 40.15, -1.15)" gradientUnits="userSpaceOnUse" id="gradient2" r="819.2" spreadMethod="pad">
      <stop offset="0.0392156862745098" stop-color="#e29091"/>
      <stop offset="0.48627450980392156" stop-color="#d7898a"/>
      <stop offset="0.7490196078431373" stop-color="#bd7879"/>
    </radialGradient>
    <radialGradient cx="0" cy="0" gradientTransform="matrix(-0.0056, -7.0E-4, -0.0015, 0.0058, 44.8, 24.7)" gradientUnits="userSpaceOnUse" id="gradient3" r="819.2" spreadMethod="pad">
      <stop offset="0.0392156862745098" stop-color="#e29091"/>
      <stop offset="0.48627450980392156" stop-color="#d7898a"/>
      <stop offset="0.7490196078431373" stop-color="#bd7879"/>
    </radialGradient>
    <radialGradient cx="0" cy="0" gradientTransform="matrix(0.0056, 1.0E-4, -5.0E-4, 0.0055, -26.3, -43.4)" gradientUnits="userSpaceOnUse" id="gradient4" r="819.2" spreadMethod="pad">
      <stop offset="0.0392156862745098" stop-color="#e29091"/>
      <stop offset="0.48627450980392156" stop-color="#d7898a"/>
      <stop offset="0.7490196078431373" stop-color="#bd7879"/>
    </radialGradient>
    <radialGradient cx="0" cy="0" gradientTransform="matrix(-0.006, -4.0E-4, -6.0E-4, 0.006, 34.5, -44.35)" gradientUnits="userSpaceOnUse" id="gradient5" r="819.2" spreadMethod="pad">
      <stop offset="0.0392156862745098" stop-color="#e29091"/>
      <stop offset="0.48627450980392156" stop-color="#d7898a"/>
      <stop offset="0.7490196078431373" stop-color="#bd7879"/>
    </radialGradient>
  </defs>
</svg>
