<?xml version="1.0" encoding="UTF-8" standalone="no"?>
<svg xmlns:xlink="http://www.w3.org/1999/xlink" height="7.45px" width="68.6px" xmlns="http://www.w3.org/2000/svg">
  <g transform="matrix(1.0, 0.0, 0.0, 1.0, 29.8, 46.2)">
    <path d="M-21.9 -44.05 Q-26.05 -46.65 -29.8 -42.15 -28.15 -45.65 -24.8 -45.6 -23.8 -45.55 -22.75 -44.95 -21.95 -44.45 -21.85 -44.05 L-21.9 -44.05" fill="#47373a" fill-rule="evenodd" stroke="none"/>
    <path d="M-29.8 -42.15 Q-26.05 -46.65 -21.9 -44.05 -22.15 -41.75 -23.55 -40.2 -24.85 -38.7 -26.6 -38.75 -29.05 -38.75 -29.8 -42.15" fill="url(#gradient0)" fill-rule="evenodd" stroke="none"/>
    <path d="M30.7 -44.85 L30.65 -44.8 Q30.9 -45.3 31.85 -45.8 L34.8 -46.15 Q36.85 -46.05 38.8 -42.1 35.8 -47.1 30.7 -44.85" fill="#47373a" fill-rule="evenodd" stroke="none"/>
    <path d="M38.8 -42.1 Q37.55 -38.95 35.2 -38.9 32.85 -38.9 31.7 -40.55 30.5 -42.35 30.7 -44.85 35.8 -47.1 38.8 -42.1" fill="url(#gradient1)" fill-rule="evenodd" stroke="none"/>
  </g>
  <defs>
    <radialGradient cx="0" cy="0" gradientTransform="matrix(0.0056, 1.0E-4, -5.0E-4, 0.0055, -26.3, -43.4)" gradientUnits="userSpaceOnUse" id="gradient0" r="819.2" spreadMethod="pad">
      <stop offset="0.0392156862745098" stop-color="#e29091"/>
      <stop offset="0.48627450980392156" stop-color="#d7898a"/>
      <stop offset="0.7490196078431373" stop-color="#bd7879"/>
    </radialGradient>
    <radialGradient cx="0" cy="0" gradientTransform="matrix(-0.006, -4.0E-4, -6.0E-4, 0.006, 34.5, -44.35)" gradientUnits="userSpaceOnUse" id="gradient1" r="819.2" spreadMethod="pad">
      <stop offset="0.0392156862745098" stop-color="#e29091"/>
      <stop offset="0.48627450980392156" stop-color="#d7898a"/>
      <stop offset="0.7490196078431373" stop-color="#bd7879"/>
    </radialGradient>
  </defs>
</svg>
