<?xml version="1.0" encoding="UTF-8" standalone="no"?>
<svg xmlns:xlink="http://www.w3.org/1999/xlink" height="145.5px" width="236.7px" xmlns="http://www.w3.org/2000/svg">
  <g transform="matrix(1.0, 0.0, 0.0, 1.0, 118.75, 72.75)">
    <path d="M7.35 -19.8 Q21.65 -16.85 32.8 -12.85 57.6 -30.85 83.85 -46.0 L96.5 -56.0 Q100.1 -58.65 100.9 -61.55 L98.15 -61.4 Q102.4 -62.4 105.25 -65.8 L99.4 -67.55 Q106.35 -70.2 112.85 -69.1 123.5 -66.1 112.0 -52.9 109.45 -47.6 106.15 -38.6 94.2 -41.0 84.6 -34.25 69.25 -17.1 44.35 -3.35 27.9 1.75 7.35 -19.8" fill="#aa7858" fill-rule="evenodd" stroke="none"/>
    <path d="M7.35 -19.8 Q27.9 1.75 44.35 -3.35 69.25 -17.1 84.6 -34.25 94.2 -41.0 106.15 -38.6 105.0 -32.8 100.95 -29.4 74.75 -9.05 41.05 11.3 15.5 33.2 -21.8 41.55 L-21.8 -24.4 Q-5.85 -22.55 7.35 -19.8" fill="#9c6b4d" fill-rule="evenodd" stroke="none"/>
    <path d="M96.5 -56.0 L83.85 -46.0 Q57.6 -30.85 32.8 -12.85 21.65 -16.85 7.35 -19.8 -5.85 -22.55 -21.8 -24.4 M100.95 -29.4 Q74.75 -9.05 41.05 11.3 15.5 33.2 -21.8 41.55" fill="none" stroke="#47373a" stroke-linecap="round" stroke-linejoin="round" stroke-width="1.2000000000000002"/>
    <path d="M112.85 -69.1 Q106.35 -70.2 99.4 -67.55 L105.25 -65.8 Q102.4 -62.4 98.15 -61.4 L100.9 -61.55 Q100.1 -58.65 96.5 -56.0 Z" fill="none" stroke="#47373a" stroke-linecap="round" stroke-linejoin="miter-clip" stroke-miterlimit="3.0" stroke-width="1.2000000000000002"/>
    <path d="M105.05 -65.2 L104.8 -65.25 Q104.3 -65.65 104.6 -66.1 104.85 -66.6 105.4 -66.35 L107.75 -65.05 107.8 -64.95 Q107.8 -64.8 107.7 -64.9 L105.05 -65.2 M100.45 -61.05 Q100.0 -61.4 100.3 -61.9 100.7 -62.35 101.15 -62.05 L101.25 -61.95 101.35 -61.9 101.45 -61.9 101.5 -61.85 101.55 -61.85 101.75 -61.75 101.9 -61.75 101.95 -61.7 103.05 -61.7 104.4 -61.95 104.55 -61.95 104.65 -61.9 104.6 -61.8 104.3 -61.6 104.05 -61.5 103.8 -61.35 102.45 -60.9 102.05 -60.85 101.95 -60.8 101.25 -60.8 101.15 -60.85 101.05 -60.85 100.45 -61.05 M32.45 -12.3 L32.35 -12.4 Q31.9 -12.8 32.25 -13.25 L33.1 -13.35 36.6 -10.55 36.6 -10.45 Q36.6 -10.25 36.45 -10.4 L32.45 -12.3" fill="#47373a" fill-rule="evenodd" stroke="none"/>
    <path d="M-17.35 -61.45 Q-11.15 -55.75 -6.35 -47.45 5.0 -43.45 9.9 -35.3 20.25 -11.9 4.3 -2.8 23.1 26.75 -11.9 44.05 -24.0 71.05 -49.75 70.1 -75.05 75.65 -85.85 66.25 -85.75 70.2 -87.45 71.85 -88.15 63.5 -91.1 59.05 -94.2 52.4 -93.9 42.3 -90.25 41.7 -86.5 44.0 -48.35 60.7 -36.7 41.95 -25.6 29.2 -36.3 17.55 -20.25 12.45 -22.15 -0.45 -25.0 -25.8 -45.4 -41.9 -56.9 -37.1 -58.45 -46.55 -57.95 -60.8 -41.85 -72.1 -34.2 -68.15 -31.25 -63.75 -28.95 -60.1 -29.55 -56.25 L-32.1 -53.9 -29.1 -47.65 -25.6 -52.5 Q-13.1 -55.85 -17.35 -61.45 M-106.1 -31.1 L-106.05 -31.2 Q-103.75 -30.05 -102.95 -24.85 L-104.5 -15.35 Q-106.4 -14.25 -106.1 -31.1 M-75.7 -54.9 Q-72.3 -54.75 -68.75 -52.95 -77.2 -44.15 -81.1 -33.75 -88.9 -23.85 -96.9 -20.2 -88.45 -42.35 -75.7 -54.9" fill="#e0cf99" fill-rule="evenodd" stroke="none"/>
    <path d="M-17.35 -61.45 Q-13.1 -55.85 -25.6 -52.5 L-29.1 -47.65 -32.1 -53.9 -29.55 -56.25 Q-28.95 -60.1 -31.25 -63.75 -27.85 -69.05 -21.9 -65.15 L-17.35 -61.45 M-41.85 -72.1 Q-57.95 -60.8 -58.45 -46.55 -56.9 -37.1 -45.4 -41.9 -25.0 -25.8 -22.15 -0.45 -20.25 12.45 -36.3 17.55 -25.6 29.2 -36.7 41.95 -48.35 60.7 -86.5 44.0 -90.25 41.7 -93.9 42.3 -106.95 43.6 -113.7 34.45 -113.2 40.2 -116.45 36.25 L-117.95 29.9 Q-119.75 9.5 -104.4 0.95 -105.7 -1.3 -105.8 -5.45 -110.45 -21.0 -106.1 -31.1 -106.4 -14.25 -104.5 -15.35 L-102.95 -24.85 Q-100.9 -30.1 -97.8 -36.1 -87.6 -55.45 -75.7 -54.9 -88.45 -42.35 -96.9 -20.2 -88.9 -23.85 -81.1 -33.75 -77.2 -44.15 -68.75 -52.95 -58.75 -66.45 -41.9 -72.15 L-41.85 -72.1" fill="#f7e6ad" fill-rule="evenodd" stroke="none"/>
    <path d="M-93.9 42.3 Q-94.2 52.4 -91.1 59.05 -88.15 63.5 -87.45 71.85 -85.75 70.2 -85.85 66.25 -75.05 75.65 -49.75 70.1 -24.0 71.05 -11.9 44.05 23.1 26.75 4.3 -2.8 20.25 -11.9 9.9 -35.3 5.0 -43.45 -6.35 -47.45 -11.15 -55.75 -17.35 -61.45 L-21.9 -65.15 Q-27.85 -69.05 -31.25 -63.75 -34.2 -68.15 -41.85 -72.1 L-41.9 -72.15 Q-58.75 -66.45 -68.75 -52.95 -72.3 -54.75 -75.7 -54.9 -87.6 -55.45 -97.8 -36.1 -100.9 -30.1 -102.95 -24.85 -103.75 -30.05 -106.05 -31.2 L-106.1 -31.1 Q-110.45 -21.0 -105.8 -5.45 -105.7 -1.3 -104.4 0.95 -119.75 9.5 -117.95 29.9 L-116.45 36.25 Q-113.2 40.2 -113.7 34.45 -106.95 43.6 -93.9 42.3 Z" fill="none" stroke="#47373a" stroke-linecap="round" stroke-linejoin="miter-clip" stroke-miterlimit="5.0" stroke-width="1.2000000000000002"/>
    <path d="M-93.8 42.85 L-93.85 42.9 Q-94.5 42.9 -94.5 42.3 L-94.35 41.9 -93.95 41.7 -93.6 41.65 -92.05 41.65 -91.55 41.75 -91.4 41.75 -91.05 41.8 -89.6 42.2 -88.75 42.55 -86.85 43.6 -86.4 43.9 -86.4 44.0 -86.5 44.05 -86.55 44.05 -86.8 43.9 -87.0 43.85 -87.15 43.75 -87.6 43.55 -88.15 43.35 -88.45 43.2 -89.1 43.0 -89.4 42.95 -89.75 42.85 -90.1 42.8 -90.3 42.75 -90.45 42.75 -90.65 42.7 -90.8 42.7 -91.15 42.65 -92.65 42.7 -92.9 42.7 -93.1 42.75 -93.3 42.75 -93.35 42.8 -93.45 42.8 -93.8 42.85 M-6.15 -48.0 L-6.05 -47.95 Q-5.45 -47.75 -5.75 -47.2 -5.95 -46.65 -6.5 -46.85 L-14.35 -49.55 -14.4 -49.65 -14.3 -49.7 -6.15 -48.0 M-29.45 -56.2 L-29.55 -56.15 -29.6 -56.25 -29.6 -58.05 -29.85 -59.35 -29.85 -59.55 -30.0 -60.05 -30.45 -61.2 -30.5 -61.25 -30.5 -61.35 -30.95 -62.2 -31.1 -62.4 -31.35 -62.85 -31.75 -63.4 -31.8 -63.5 Q-32.05 -64.0 -31.55 -64.3 -30.95 -64.6 -30.7 -64.05 L-30.35 -63.35 -29.9 -62.3 -29.7 -61.65 -29.65 -61.6 -29.65 -61.5 -29.4 -60.6 -29.3 -59.85 -29.25 -59.65 -29.25 -59.45 -29.2 -59.1 -29.2 -57.6 -29.25 -57.45 -29.25 -57.15 -29.35 -56.7 -29.35 -56.55 -29.45 -56.2 M-94.5 -0.15 L-94.45 -0.05 -94.55 0.0 -95.8 -0.2 -96.1 -0.2 -96.5 -0.25 -96.65 -0.25 -96.85 -0.3 -98.6 -0.3 -99.1 -0.25 -99.3 -0.25 -99.55 -0.2 -99.8 -0.2 -99.9 -0.15 -100.0 -0.15 -101.3 0.1 -102.1 0.35 -102.45 0.5 -102.6 0.6 -102.75 0.65 -103.05 0.8 -103.1 0.85 -103.3 0.95 -104.05 1.45 -104.1 1.45 -104.15 1.5 -104.6 1.55 -104.95 1.25 Q-105.25 0.65 -104.7 0.4 L-103.65 -0.05 -103.6 -0.1 -103.5 -0.1 -103.0 -0.3 -102.8 -0.35 -102.4 -0.5 -101.05 -0.8 -100.1 -0.9 -97.7 -0.85 -97.45 -0.8 -97.25 -0.8 -96.8 -0.7 -96.6 -0.7 -96.05 -0.55 -95.7 -0.5 -94.5 -0.15 M-69.15 -53.35 Q-68.7 -53.75 -68.3 -53.35 -67.85 -52.95 -68.3 -52.5 L-70.25 -50.5 -70.35 -50.35 -73.75 -46.35 -75.75 -43.55 -76.5 -42.45 -78.55 -38.95 -78.65 -38.7 -81.0 -33.7 Q-81.0 -33.55 -81.1 -33.65 L-81.15 -33.75 -80.85 -34.7 -80.75 -34.9 -80.65 -35.2 -78.95 -39.15 -76.45 -43.7 -76.3 -43.9 -76.2 -44.15 -71.3 -50.9 -71.15 -51.05 -71.05 -51.2 -70.6 -51.75 -69.15 -53.35" fill="#47373a" fill-rule="evenodd" stroke="none"/>
  </g>
</svg>
