<?xml version="1.0" encoding="UTF-8" standalone="no"?>
<svg xmlns:xlink="http://www.w3.org/1999/xlink" height="37.95px" width="15.85px" xmlns="http://www.w3.org/2000/svg">
  <g transform="matrix(1.0, 0.0, 0.0, 1.0, 13.15, -35.65)">
    <path d="M-3.0 54.6 L-3.0 55.05 -3.25 57.3 -3.5 58.4 -4.0 61.4 -4.0 61.45 -3.5 64.9 -3.7 68.4 Q-4.05 72.3 -5.0 72.3 -6.05 72.3 -5.9 71.25 L-5.4 64.95 -5.9 61.35 -5.7 59.25 -6.0 59.25 Q-6.6 59.25 -7.55 57.05 L-8.15 55.55 -8.4 55.0 Q-8.4 54.25 -8.2 54.0 -7.85 53.5 -6.7 55.05 L-6.2 55.8 -5.6 56.8 -5.45 57.1 -5.4 56.75 Q-5.4 55.2 -4.2 53.85 -3.1 52.6 -3.0 54.6 M-8.95 60.9 Q-9.2 61.25 -9.85 61.25 -10.85 61.25 -11.1 60.4 L-11.15 59.65 Q-11.15 58.15 -9.95 58.5 L-9.65 58.65 Q-8.8 59.05 -8.8 60.3 L-8.95 60.9" fill="#fffae5" fill-opacity="0.9019608" fill-rule="evenodd" stroke="none"/>
    <path d="M2.5 43.6 L2.3 43.7 1.65 44.35 Q0.75 42.25 -1.0 35.75 L-0.3 35.65 Q1.4 36.85 2.15 39.25 2.8 41.35 2.5 43.6 M1.65 48.05 L1.2 47.95 Q1.05 47.85 1.05 47.25 2.1 44.25 2.55 43.75 3.15 45.9 1.65 48.05 M-0.55 55.05 L-1.1 55.65 -1.5 55.6 -1.65 54.85 -0.1 49.6 Q-0.1 49.05 -0.55 48.85 L-1.0 48.45 -0.4 47.55 0.05 47.85 0.5 47.55 Q1.2 48.15 1.05 49.85 0.95 51.25 0.35 52.8 L0.95 52.15 1.65 49.65 1.9 51.65 Q3.0 53.15 2.6 54.6 1.9 57.75 1.1 58.15 L0.75 58.2 Q0.55 58.15 0.55 57.5 L0.7 54.6 Q-0.4 55.2 -0.55 55.05 M-9.45 40.5 L-9.35 40.0 -10.3 40.9 -10.75 40.65 -10.9 40.05 Q-10.1 39.3 -9.7 39.25 L-9.2 39.3 -8.75 38.6 -7.75 37.1 -7.65 38.0 Q-7.65 40.5 -8.55 43.25 -9.25 45.3 -9.95 46.25 L-9.3 49.15 -9.5 49.75 -9.55 51.15 -10.1 51.3 -10.65 49.75 -10.65 48.0 -10.45 48.0 -10.5 47.9 -11.1 46.3 -10.7 45.0 -10.5 44.65 Q-9.85 43.45 -9.5 40.55 L-9.45 40.5 M-3.25 57.3 L-3.1 57.3 -3.0 58.25 -3.6 59.9 -4.0 61.45 -4.0 61.4 -3.5 58.4 -3.25 57.3 M-3.7 68.4 L-3.5 70.05 Q-3.5 70.95 -4.3 72.0 -5.25 73.25 -6.8 73.6 L-7.15 70.8 -6.75 63.3 -6.8 63.1 -7.9 61.9 Q-7.85 61.05 -6.55 61.55 L-6.3 60.2 -8.6 56.0 Q-8.6 55.5 -8.15 55.55 L-7.55 57.05 Q-6.6 59.25 -6.0 59.25 L-5.7 59.25 -5.9 61.35 -5.4 64.95 -5.9 71.25 Q-6.05 72.3 -5.0 72.3 -4.05 72.3 -3.7 68.4 M-8.2 54.0 L-9.0 52.15 Q-8.75 50.75 -8.15 50.6 L-6.15 52.0 -5.15 52.2 -4.6 52.5 Q-4.45 52.7 -4.55 53.45 L-4.05 53.6 -2.9 51.65 Q-2.4 52.0 -2.4 52.45 L-3.0 54.6 Q-3.1 52.6 -4.2 53.85 -5.4 55.2 -5.4 56.75 L-5.45 57.1 -5.6 56.8 -5.2 54.75 -6.2 55.8 -6.7 55.05 Q-7.85 53.5 -8.2 54.0 M-9.65 58.65 L-9.95 58.5 Q-11.15 58.15 -11.15 59.65 L-11.1 60.4 Q-10.85 61.25 -9.85 61.25 -9.2 61.25 -8.95 60.9 -8.6 62.15 -8.6 62.75 -8.6 63.75 -8.8 63.3 L-9.15 63.5 Q-11.85 60.8 -13.15 56.0 L-13.05 55.3 -12.75 54.9 Q-10.7 55.25 -9.8 58.35 L-9.65 58.65" fill="#fffae5" fill-opacity="0.5019608" fill-rule="evenodd" stroke="none"/>
    <path d="M-3.85 38.6 Q-0.65 39.4 -1.0 44.15 -1.35 48.9 -1.85 50.25 -2.35 51.6 -1.95 51.4 -1.6 51.15 -1.3 51.55 -1.05 51.95 -1.05 52.65 -1.05 53.85 -1.75 55.7 -2.8 58.5 -4.8 58.5 -6.95 58.5 -6.95 56.65 L-6.25 54.1 Q-5.55 52.2 -5.55 50.25 L-5.6 48.65 Q-7.7 46.6 -7.4 44.75 -7.1 42.85 -6.15 40.8 -5.25 38.7 -4.5 38.6 L-3.85 38.6" fill="url(#gradient0)" fill-rule="evenodd" stroke="none"/>
  </g>
  <defs>
    <radialGradient cx="0" cy="0" gradientTransform="matrix(0.0082, 0.0, 0.0, 0.0169, -4.15, 36.6)" gradientUnits="userSpaceOnUse" id="gradient0" r="819.2" spreadMethod="pad">
      <stop offset="0.4" stop-color="#b4b0a1" stop-opacity="0.0"/>
      <stop offset="0.792156862745098" stop-color="#fffae5" stop-opacity="0.7019608"/>
    </radialGradient>
  </defs>
</svg>
