<?xml version="1.0" encoding="UTF-8" standalone="no"?>
<svg xmlns:xlink="http://www.w3.org/1999/xlink" height="74.85px" width="66.1px" xmlns="http://www.w3.org/2000/svg">
  <g transform="matrix(1.0, 0.0, 0.0, 1.0, 38.25, -8.2)">
    <path d="M27.85 24.1 Q27.85 24.75 27.05 25.25 L25.05 25.7 Q23.9 25.7 23.1 25.25 22.25 24.75 22.25 24.1 22.25 23.45 23.1 23.0 23.9 22.5 25.05 22.5 26.2 22.5 27.05 23.0 27.85 23.45 27.85 24.1 M24.7 32.25 Q24.7 32.9 24.25 33.4 23.75 33.85 23.1 33.85 22.45 33.85 22.0 33.4 21.5 32.9 21.5 32.25 21.5 31.6 22.0 31.15 22.45 30.65 23.1 30.65 23.75 30.65 24.25 31.15 L24.7 32.25" fill="#fffae5" fill-opacity="0.10980392" fill-rule="evenodd" stroke="none"/>
    <path d="M9.15 25.55 Q14.95 22.4 16.0 22.4 16.9 22.4 17.45 23.4 18.05 24.4 17.85 25.8 L17.75 25.5 16.7 25.7 13.3 24.95 9.35 26.8 9.15 25.55 M14.0 32.8 L15.8 34.35 Q18.05 36.7 20.65 40.8 L13.95 32.9 14.0 32.8 M20.6 43.6 Q18.75 43.6 17.45 42.8 16.1 42.0 16.1 40.9 L20.6 43.6 M13.1 49.75 L12.8 50.1 Q12.5 50.45 12.5 51.05 L14.55 56.25 13.4 57.2 12.0 57.4 11.5 53.7 11.15 50.95 Q11.15 50.7 13.1 49.75 M16.65 76.95 L13.2 79.85 6.5 60.75 3.8 62.8 5.7 57.15 Q7.15 62.05 10.75 71.45 L11.15 72.3 Q12.0 73.9 13.95 75.4 15.65 76.75 16.65 76.95 M1.35 66.2 L-2.2 67.9 -2.15 67.6 0.05 64.85 1.35 66.2 M-8.45 67.95 L-10.5 71.95 -10.0 70.6 -9.3 68.3 -9.05 67.5 -8.9 67.05 -8.45 67.95 M-11.95 74.45 L-13.1 76.3 -14.6 75.05 -13.8 71.8 -12.2 65.7 -12.8 70.0 -13.15 72.8 -11.95 74.45 M-12.3 60.85 L-12.45 60.15 -11.1 55.35 -11.05 55.35 -10.85 56.1 Q-9.65 59.95 -9.85 60.85 L-10.2 61.25 -11.4 60.75 -12.3 60.85 M-16.7 70.35 Q-18.05 70.05 -18.55 69.65 L-16.9 66.2 Q-17.3 69.65 -17.1 70.1 L-16.7 70.35 M-16.25 63.55 L-16.5 62.15 -16.15 60.85 Q-16.0 61.25 -16.0 62.05 -16.05 62.9 -16.25 63.55 M-18.1 53.15 L-18.25 52.4 -20.05 54.55 -20.7 53.85 -20.05 52.25 Q-19.3 51.2 -19.4 50.45 L-18.45 47.9 -18.1 53.15 M-23.15 58.45 Q-23.15 59.8 -24.25 60.8 -25.4 61.75 -27.0 61.75 L-23.15 58.45 M-30.35 61.75 L-30.85 61.4 -31.15 60.4 Q-31.15 59.85 -29.65 58.4 L-27.25 55.95 Q-27.25 58.35 -28.15 60.05 -29.05 61.75 -30.35 61.75 M-19.85 45.1 L-20.9 41.6 -20.85 41.05 Q-19.95 44.1 -19.85 45.1 M-22.45 39.8 Q-24.25 39.8 -25.5 39.1 -26.8 38.35 -26.8 37.35 L-24.1 38.6 -23.05 39.05 -20.95 39.95 -21.05 40.15 -22.45 39.8 M-27.55 36.75 L-30.05 35.65 -32.35 34.45 -28.6 35.5 Q-27.55 35.95 -27.55 36.75 M-19.6 31.45 L-17.85 27.85 Q-17.85 30.05 -18.45 31.75 -19.3 32.7 -19.55 33.8 -20.1 34.35 -21.2 34.6 L-21.25 34.6 -19.7 32.0 -19.6 31.45 M-18.3 16.3 L-22.1 13.4 Q-21.55 12.55 -20.95 12.45 L-19.2 12.5 Q-18.85 14.9 -18.3 16.3 M-8.8 26.6 L-9.6 29.6 Q-10.7 33.0 -12.35 35.5 L-13.05 36.2 -13.35 34.85 -13.8 33.7 -14.25 33.8 -14.5 34.05 -11.9 28.2 -11.25 26.4 -9.95 26.6 -8.8 26.6 M5.7 43.6 L5.35 43.4 6.2 42.75 6.25 43.35 5.7 43.6 M4.85 43.1 Q4.35 42.85 4.0 42.25 3.35 41.15 3.85 39.0 L4.85 43.1 M1.75 25.9 L1.1 23.5 1.3 22.1 Q0.9 21.8 1.9 21.8 2.5 21.8 3.05 22.15 L4.55 23.15 Q3.7 24.45 3.6 25.3 L3.95 27.6 1.75 25.9 M7.05 48.2 L6.85 49.95 7.7 53.05 Q8.65 56.3 9.3 57.5 L8.05 56.5 3.35 55.3 7.05 48.2 M13.2 39.0 L13.65 38.25 13.4 37.95 13.5 37.45 14.4 38.45 13.0 39.85 13.2 39.0 M-18.4 23.4 L-19.4 24.2 -28.0 21.75 -19.25 22.6 -18.4 23.4 M-23.4 18.25 Q-26.7 18.25 -28.25 19.2 -29.2 19.8 -29.65 21.1 L-30.7 20.4 -27.65 18.2 -23.4 18.25 M-3.9 21.5 Q-0.6 26.65 -0.6 27.6 -0.6 28.3 -0.85 28.45 L-1.9 28.55 Q-3.4 28.55 -4.0 27.95 -4.6 27.35 -4.9 25.6 L-3.9 24.35 -3.6 23.55 Q-3.6 22.65 -3.9 21.5 M-31.8 31.05 L-32.55 31.55 -33.65 31.8 Q-34.7 31.8 -35.9 30.8 L-31.8 31.05 M-31.25 45.55 Q-31.25 46.1 -31.65 46.5 -32.05 46.9 -32.6 46.9 -33.15 46.9 -33.55 46.5 -33.95 46.1 -33.95 45.55 -33.95 45.0 -33.55 44.6 -33.15 44.2 -32.6 44.2 -32.05 44.2 -31.65 44.6 -31.25 45.0 -31.25 45.55 M-27.2 49.35 L-28.65 50.55 Q-28.65 50.05 -28.2 49.7 -27.8 49.35 -27.2 49.35 M-30.2 51.85 Q-31.75 52.5 -32.05 52.4 -32.4 52.2 -32.55 51.35 L-30.95 48.3 Q-31.0 48.95 -31.5 49.8 -31.7 50.65 -30.2 51.85 M-16.2 39.9 L-15.5 37.15 -15.35 39.6 -15.55 40.6 -15.85 42.75 -16.25 42.75 -16.35 41.7 Q-16.0 41.15 -16.2 39.9 M-14.6 53.9 L-13.9 52.45 Q-13.15 51.05 -12.9 51.25 L-13.35 52.15 -14.5 54.4 -14.6 53.9" fill="#fffae5" fill-opacity="0.5019608" fill-rule="evenodd" stroke="none"/>
    <path d="M4.55 23.15 Q6.45 23.15 7.8 23.85 9.15 24.55 9.15 25.55 L9.35 26.8 13.3 24.95 16.7 25.7 Q15.9 30.05 14.15 31.9 L13.7 31.1 Q13.25 30.75 12.6 30.75 L13.1 30.25 13.35 29.35 13.25 28.55 13.1 28.35 12.6 28.15 11.75 28.05 Q11.3 28.05 10.6 28.45 9.6 28.95 9.45 29.85 L8.55 26.45 Q8.1 25.3 7.4 25.3 L6.2 25.5 5.65 25.7 5.35 29.45 3.95 27.6 3.6 25.3 Q3.7 24.45 4.55 23.15 M20.65 40.8 L21.5 41.6 21.75 42.55 20.6 43.6 16.1 40.9 15.75 42.35 13.1 49.75 Q11.15 50.7 11.15 50.95 L11.5 53.7 12.0 57.4 10.0 58.0 Q9.0 58.15 9.0 60.25 9.0 62.5 9.65 63.85 10.3 65.15 11.25 65.15 L12.7 64.75 12.75 63.45 13.95 65.65 Q15.9 68.85 16.3 70.05 16.7 71.25 16.7 73.65 L16.65 76.95 Q15.65 76.75 13.95 75.4 12.0 73.9 11.15 72.3 L13.95 72.3 13.95 65.65 10.75 65.65 10.75 71.45 Q7.15 62.05 5.7 57.15 L3.8 62.8 Q3.8 64.2 3.1 65.2 2.35 66.2 1.35 66.2 L0.05 64.85 -2.15 67.6 -1.45 62.25 1.45 57.85 2.3 56.6 3.25 55.35 3.35 55.3 8.05 56.5 9.3 57.5 Q8.65 56.3 7.7 53.05 L6.85 49.95 7.05 48.2 7.2 47.35 Q7.2 45.55 6.25 43.35 L6.2 42.75 6.5 41.7 6.65 40.6 Q8.05 40.6 8.35 39.95 9.2 41.8 10.15 42.65 11.25 41.95 11.75 39.95 12.15 38.55 12.15 37.15 L11.45 33.3 Q13.2 33.55 13.95 32.9 L20.65 40.8 M-7.15 68.7 L-8.45 67.95 -8.9 67.05 -9.05 67.5 -9.3 68.3 -9.2 67.0 Q-7.5 65.8 -7.3 62.55 L-6.95 64.75 Q-7.35 65.35 -7.35 66.95 L-7.15 68.7 M-10.5 71.95 Q-10.5 73.0 -10.9 73.75 -11.35 74.45 -11.95 74.45 L-13.15 72.8 -12.8 70.0 -12.2 65.7 -12.25 65.45 Q-12.1 65.65 -12.3 68.35 L-12.1 70.6 -10.8 70.7 -10.0 70.6 -10.5 71.95 M-10.6 64.1 L-11.3 64.45 Q-11.3 63.35 -12.3 60.85 L-11.4 60.75 -10.2 61.25 -9.85 60.85 -10.6 64.1 M-14.1 65.2 L-13.45 65.45 -13.35 66.2 Q-13.35 69.25 -16.4 70.45 L-16.7 70.35 -17.1 70.1 Q-17.3 69.65 -16.9 66.2 L-16.25 63.55 Q-16.05 62.9 -16.0 62.05 -16.0 61.25 -16.15 60.85 L-16.25 59.35 Q-16.45 58.6 -16.7 58.5 L-17.25 58.8 Q-17.75 57.0 -18.1 53.15 L-18.45 47.9 -19.4 50.45 -20.85 49.35 Q-21.8 49.35 -23.7 51.25 -26.15 53.75 -26.15 56.95 -25.6 58.5 -24.6 58.5 -23.65 58.5 -22.4 57.5 L-23.15 58.45 -27.0 61.75 -29.05 63.35 -30.35 61.75 Q-29.05 61.75 -28.15 60.05 -27.25 58.35 -27.25 55.95 L-25.2 52.2 Q-23.35 49.0 -19.85 45.1 -19.95 44.1 -20.85 41.05 L-21.05 40.15 -20.95 39.95 -23.05 39.05 -20.8 38.85 -19.75 38.65 -18.05 41.8 -17.45 42.45 Q-16.55 42.45 -16.35 41.7 L-16.25 42.75 -15.85 42.75 Q-15.4 44.15 -14.75 53.65 L-14.9 55.1 Q-16.3 57.6 -16.3 58.05 L-15.9 59.45 Q-15.55 60.35 -15.55 60.85 -15.55 61.35 -15.9 62.8 L-16.3 64.75 Q-16.3 65.65 -14.95 66.65 -14.6 66.55 -14.1 65.2 M-20.7 53.85 L-21.35 53.6 -20.05 52.25 -20.7 53.85 M-26.8 37.35 L-27.55 36.75 Q-27.55 35.95 -28.6 35.5 L-32.35 34.45 -32.5 34.3 -32.55 33.5 Q-32.55 32.25 -31.6 31.8 -30.9 31.45 -29.2 31.45 -25.8 32.8 -24.3 34.05 -23.75 33.85 -22.65 32.2 L-20.3 28.5 -19.35 29.5 Q-19.1 30.15 -19.6 31.45 L-19.7 32.0 -21.25 34.6 -25.45 34.7 -25.55 36.2 -24.1 38.6 -26.8 37.35 M-17.85 27.85 L-17.85 27.8 -16.65 27.9 Q-15.6 27.9 -15.2 27.4 -14.85 26.95 -14.85 25.9 -14.85 24.8 -15.5 22.2 -13.5 21.4 -13.5 19.25 -13.5 14.95 -15.6 14.95 -16.6 14.95 -16.75 15.3 L-17.0 18.35 -18.3 16.3 Q-18.85 14.9 -19.2 12.5 L-18.85 12.05 -18.0 11.9 Q-15.55 11.9 -14.0 13.4 -11.7 15.65 -11.95 20.8 L-9.3 20.5 Q-8.85 20.5 -7.95 21.8 L-9.05 23.5 -8.8 26.6 -9.95 26.6 -11.25 26.4 -11.9 28.2 -14.5 34.05 Q-15.2 35.15 -15.5 37.15 L-16.2 39.9 Q-16.95 37.7 -16.95 36.7 -16.95 36.2 -16.45 35.35 -15.95 34.5 -15.95 34.0 L-16.35 33.0 -17.5 31.2 -18.45 31.75 Q-17.85 30.05 -17.85 27.85 M13.4 37.95 L13.2 39.0 13.0 39.85 14.4 38.45 13.5 37.45 13.4 37.95 M12.35 43.05 Q8.15 44.05 8.2 46.25 8.25 47.5 10.5 51.2 11.5 50.2 12.5 47.35 L13.35 44.2 Q13.35 43.55 13.0 43.3 L12.35 43.05 M-19.4 24.2 L-18.4 23.4 -17.9 27.75 -19.4 24.2 M-19.25 22.6 L-28.0 21.75 Q-28.9 21.75 -29.65 21.1 -29.2 19.8 -28.25 19.2 -26.7 18.25 -23.4 18.25 L-21.7 18.3 -17.05 18.5 Q-17.3 18.85 -18.2 19.15 L-19.8 19.45 -21.3 19.1 -22.8 18.7 Q-23.5 18.7 -23.75 19.0 -24.15 19.45 -24.3 21.0 L-21.85 21.9 -19.25 22.6 M-21.2 34.6 Q-20.1 34.35 -19.55 33.8 L-20.1 35.0 -21.2 34.6 M-35.9 30.8 L-38.25 29.45 -35.1 28.1 Q-32.05 29.05 -31.0 29.5 L-30.2 29.95 -31.8 31.05 -35.9 30.8 M-30.95 48.3 Q-24.9 45.35 -24.65 44.95 L-24.1 45.25 Q-23.8 45.5 -23.8 46.15 -23.8 47.0 -24.45 47.65 -25.2 48.4 -27.2 49.35 -27.8 49.35 -28.2 49.7 -28.65 50.05 -28.65 50.55 L-30.2 51.85 Q-31.7 50.65 -31.5 49.8 -31.0 48.95 -30.95 48.3" fill="#fffae5" fill-opacity="0.14901961" fill-rule="evenodd" stroke="none"/>
    <path d="M14.15 31.9 L14.0 32.8 13.95 32.9 Q13.2 33.55 11.45 33.3 L10.95 33.05 10.75 32.2 Q10.75 31.6 12.6 30.75 13.25 30.75 13.7 31.1 L14.15 31.9 M-8.25 82.5 Q-8.8 83.05 -9.8 83.05 L-11.7 82.85 -11.85 82.6 -12.0 81.75 Q-12.0 80.65 -10.65 79.15 -8.8 77.0 -6.95 70.5 L-6.45 71.5 Q-6.2 71.9 -6.2 72.45 L-8.45 81.55 -8.4 82.35 -8.25 82.5 M-9.2 67.0 L-10.65 66.95 Q-10.95 65.75 -10.6 64.1 L-9.85 60.85 Q-9.65 59.95 -10.85 56.1 L-9.35 58.8 -8.05 55.05 Q-9.0 53.15 -9.0 52.15 L-8.95 51.0 Q-8.8 50.6 -8.15 50.6 -7.65 50.6 -7.6 51.0 -7.6 51.4 -7.1 51.4 L-7.35 50.55 Q-7.25 49.45 -4.8 48.5 L-4.5 50.65 -4.05 53.6 Q-3.6 53.3 -2.9 51.65 -2.2 52.25 -2.9 55.7 L-3.5 55.35 Q-4.45 56.35 -5.25 64.4 L-6.95 64.75 -7.3 62.55 Q-7.5 65.8 -9.2 67.0 M-12.45 60.15 L-14.1 65.2 Q-14.6 66.55 -14.95 66.65 -16.3 65.65 -16.3 64.75 L-15.9 62.8 Q-15.55 61.35 -15.55 60.85 -15.55 60.35 -15.9 59.45 L-16.3 58.05 Q-16.3 57.6 -14.9 55.1 L-14.5 54.4 -13.35 52.15 -12.9 51.25 Q-13.15 51.05 -13.9 52.45 L-14.6 53.9 -14.75 53.65 Q-15.4 44.15 -15.85 42.75 L-15.55 40.6 -15.35 39.6 -14.05 48.45 Q-13.65 50.55 -13.0 50.55 L-12.35 50.5 -12.5 50.4 -11.8 48.9 Q-11.1 47.65 -11.1 46.3 -11.1 44.9 -10.05 43.45 -9.0 42.0 -9.0 40.25 L-10.25 40.6 -10.7 40.4 -10.9 40.05 -7.7 37.4 -7.65 38.35 Q-7.65 40.1 -8.25 43.65 -9.05 48.4 -10.55 53.45 L-11.1 55.35 -12.45 60.15 M-16.5 62.15 L-18.0 65.55 Q-19.2 68.05 -19.6 68.45 L-20.75 67.75 -21.0 66.65 Q-21.0 65.2 -19.7 62.95 L-17.25 58.8 -16.7 58.5 Q-16.45 58.6 -16.25 59.35 L-16.15 60.85 -16.5 62.15 M-20.9 41.6 L-22.45 39.8 -21.05 40.15 -20.85 41.05 -20.9 41.6 M-12.35 35.5 L-10.85 36.75 -12.95 39.3 -13.05 36.2 -12.35 35.5 M1.45 57.85 L0.75 58.2 0.7 54.6 -0.3 55.2 -1.45 55.7 -1.6 55.6 -1.65 54.85 Q-1.65 53.9 -0.85 52.25 L-0.1 50.55 Q-0.1 49.25 -1.0 48.45 L0.5 47.55 0.95 48.2 1.1 49.25 Q1.1 50.55 0.35 52.8 L1.45 50.5 1.65 49.65 Q2.65 53.7 2.3 56.6 L1.45 57.85 M3.25 55.35 L4.85 49.4 5.7 43.6 6.25 43.35 Q7.2 45.55 7.2 47.35 L7.05 48.2 3.35 55.3 3.25 55.35 M3.3 36.5 L1.85 32.0 0.75 28.2 Q0.75 26.65 1.75 25.9 L3.95 27.6 5.35 29.45 Q6.75 31.5 6.75 33.15 6.75 33.6 7.9 35.2 8.9 37.2 8.35 39.95 8.05 40.6 6.65 40.6 L6.85 37.05 7.0 34.4 Q6.95 33.7 5.25 31.85 L2.8 29.75 Q2.25 30.2 2.2 31.75 L3.3 36.5 M1.7 13.4 Q1.7 13.8 0.7 13.8 L-2.35 9.75 -2.2 8.4 -2.2 8.3 -1.65 8.2 Q-0.65 8.2 0.8 9.8 2.4 11.65 1.7 13.4 M1.2 47.95 Q1.3 47.35 1.9 45.9 L2.55 44.25 2.75 44.3 2.8 45.0 Q2.6 48.75 1.2 47.95 M1.65 44.35 L-1.0 35.75 Q0.7 37.45 2.4 42.35 2.4 43.7 1.65 44.35 M-3.3 19.15 L-4.1 19.1 -4.35 19.0 Q-4.15 18.75 -4.3 17.15 L-4.8 11.95 -3.55 11.45 -2.4 12.55 -2.2 13.35 -2.45 14.0 Q-2.7 14.4 -1.7 16.5 -0.75 18.55 -1.15 18.9 -1.55 19.25 -2.7 15.95 -3.0 19.15 -3.3 19.15 M-4.9 25.6 L-6.3 25.55 -6.5 23.65 -7.35 19.6 -7.65 19.8 -8.4 19.85 -9.2 19.75 -9.5 18.6 -8.95 17.65 Q-8.65 17.2 -8.15 17.2 -7.05 17.2 -5.7 18.75 -4.55 20.05 -3.9 21.5 -3.6 22.65 -3.6 23.55 L-3.9 24.35 -4.9 25.6 M-5.2 54.75 L-5.85 56.35 -5.6 56.8 -5.2 54.75" fill="#fffae5" fill-opacity="0.6" fill-rule="evenodd" stroke="none"/>
    <path d="M-2.2 67.9 Q-2.8 70.6 -3.5 72.4 -3.95 73.5 -3.95 74.65 -3.95 78.4 -4.9 80.6 -6.1 83.25 -8.25 82.5 L-8.4 82.35 -8.45 81.55 -6.2 72.45 Q-6.2 71.9 -6.45 71.5 L-6.95 70.5 -7.15 68.7 -7.35 66.95 Q-7.35 65.35 -6.95 64.75 L-5.25 64.4 Q-4.45 56.35 -3.5 55.35 L-2.9 55.7 Q-1.5 56.8 -1.2 58.8 -0.9 60.5 -1.45 62.25 L-2.15 67.6 -2.2 67.9 M-12.95 39.3 L-11.8 48.9 -12.5 50.4 -12.35 50.5 -13.0 50.55 Q-13.65 50.55 -14.05 48.45 L-15.35 39.6 -15.5 37.15 Q-15.2 35.15 -14.5 34.05 L-14.25 33.8 -13.8 33.7 -13.35 34.85 -13.05 36.2 -12.95 39.3 M-10.55 53.45 Q-10.4 53.75 -10.55 54.35 -10.65 54.95 -11.05 55.35 L-11.1 55.35 -10.55 53.45 M5.35 43.4 L4.85 43.1 3.85 39.0 3.3 36.5 2.2 31.75 Q2.25 30.2 2.8 29.75 L5.25 31.85 Q6.95 33.7 7.0 34.4 L6.85 37.05 6.65 40.6 6.5 41.7 6.2 42.75 5.35 43.4" fill="#fffae5" fill-opacity="0.9019608" fill-rule="evenodd" stroke="none"/>
    <path d="M-3.85 38.6 Q-0.65 39.4 -1.0 44.15 -1.35 48.9 -1.85 50.25 -2.35 51.6 -1.95 51.4 -1.6 51.15 -1.3 51.55 -1.05 51.95 -1.05 52.65 -1.05 53.85 -1.75 55.7 -2.8 58.5 -4.8 58.5 -6.95 58.5 -6.95 56.65 L-6.25 54.1 Q-5.55 52.2 -5.55 50.25 L-5.6 48.65 Q-7.7 46.6 -7.4 44.75 -7.1 42.85 -6.15 40.8 -5.25 38.7 -4.5 38.6 L-3.85 38.6" fill="url(#gradient0)" fill-rule="evenodd" stroke="none"/>
  </g>
  <defs>
    <radialGradient cx="0" cy="0" gradientTransform="matrix(0.0082, 0.0, 0.0, 0.0169, -4.15, 36.6)" gradientUnits="userSpaceOnUse" id="gradient0" r="819.2" spreadMethod="pad">
      <stop offset="0.4" stop-color="#b4b0a1" stop-opacity="0.0"/>
      <stop offset="0.792156862745098" stop-color="#fffae5" stop-opacity="0.7019608"/>
    </radialGradient>
  </defs>
</svg>
