<?xml version="1.0" encoding="UTF-8" standalone="no"?>
<svg xmlns:xlink="http://www.w3.org/1999/xlink" height="315.4px" width="169.55px" xmlns="http://www.w3.org/2000/svg">
  <g transform="matrix(1.0, 0.0, 0.0, 1.0, 84.8, 157.7)">
    <path d="M53.35 35.2 Q48.2 14.1 40.45 -3.95 L40.4 -4.0 Q30.8 -24.1 25.6 -33.3 17.95 -46.8 14.0 -58.4 10.0 -70.05 -14.2 -118.95 -5.25 -103.95 5.75 -84.55 35.45 -32.1 48.45 -4.8 48.05 3.95 50.2 16.85 L53.35 35.2 M-38.7 -157.1 L-40.65 -148.95 Q-89.15 57.15 9.15 126.05 80.2 149.6 56.45 53.55 63.75 64.35 69.1 74.05 116.1 158.85 16.6 157.05 -25.45 155.65 -47.05 113.0 -77.15 31.4 -83.7 -36.65 -84.45 -50.3 -84.05 -62.1 -81.5 -143.0 -38.7 -157.1" fill="#9c6b4d" fill-rule="evenodd" stroke="none"/>
    <path d="M-14.2 -118.95 Q10.0 -70.05 14.0 -58.4 17.95 -46.8 25.6 -33.3 30.8 -24.1 40.4 -4.0 L40.45 -3.95 Q48.2 14.1 53.35 35.2 L56.45 53.55 Q80.2 149.6 9.15 126.05 -89.15 57.15 -40.65 -148.95 L-38.7 -157.1 Q-29.4 -144.45 -14.2 -118.95" fill="#aa7858" fill-rule="evenodd" stroke="none"/>
    <path d="M48.45 -4.8 Q35.45 -32.1 5.75 -84.55 -5.25 -103.95 -14.2 -118.95 -29.4 -144.45 -38.7 -157.1 -81.5 -143.0 -84.05 -62.1 -84.45 -50.3 -83.7 -36.65 -77.15 31.4 -47.05 113.0 -25.45 155.65 16.6 157.05 116.1 158.85 69.1 74.05" fill="none" stroke="#47373a" stroke-linecap="round" stroke-linejoin="round" stroke-width="1.2000000000000002"/>
    <path d="M69.6 73.75 Q69.85 74.3 69.35 74.55 68.8 74.8 68.55 74.3 L56.35 53.6 56.35 53.45 Q56.5 53.3 56.5 53.45 L66.75 68.9 67.7 70.5 69.6 73.75" fill="#47373a" fill-rule="evenodd" stroke="none"/>
  </g>
</svg>
