<?xml version="1.0" encoding="UTF-8" standalone="no"?>
<svg xmlns:xlink="http://www.w3.org/1999/xlink" height="89.55px" width="174.85px" xmlns="http://www.w3.org/2000/svg">
  <g transform="matrix(1.0, 0.0, 0.0, 1.0, 87.4, 44.5)">
    <path d="M-59.0 33.8 Q-56.2 27.35 -49.8 24.4 L-10.75 26.75 -16.6 19.35 Q-22.85 15.4 3.2 15.75 15.65 18.0 31.4 15.55 44.3 18.15 57.15 16.0 45.85 4.9 29.45 4.3 25.4 5.05 20.85 0.55 L27.4 -4.8 Q17.1 -4.2 6.35 -9.8 8.2 -12.55 10.5 -14.0 -4.65 -10.6 -20.75 -15.25 -17.2 -20.05 -11.75 -20.55 -25.2 -20.2 -36.75 -27.15 -43.95 -32.55 -50.4 -35.5 L-47.35 -36.4 Q-38.0 -39.6 -29.6 -44.45 -37.1 -23.65 -11.3 -23.15 13.4 -19.7 6.55 -43.3 11.7 -40.55 18.55 -39.5 32.2 -38.05 45.25 -43.2 45.3 -35.15 40.1 -31.0 52.75 -30.8 66.55 -37.05 59.25 -24.85 47.1 -19.85 L59.15 -16.25 Q85.85 -15.55 86.5 1.8 80.8 -4.05 72.75 -5.3 78.1 5.3 86.85 10.8 78.0 13.3 67.85 10.7 71.5 12.15 71.5 14.35 66.15 11.2 59.75 12.1 65.2 21.75 59.5 35.2 56.95 29.6 53.45 25.45 L51.65 25.45 Q46.9 23.7 42.75 25.45 46.3 31.35 45.9 31.7 39.8 28.2 32.15 29.3 26.0 34.75 16.1 33.45 21.9 40.1 -0.55 37.1 -6.2 38.9 -8.6 38.5 -14.6 41.1 -17.5 44.45 -22.65 41.0 -22.5 34.8 -32.1 35.15 -40.05 40.3 -38.1 33.55 -32.5 31.25 L-43.95 30.75 Q-55.25 30.8 -57.85 36.5 L-59.0 33.8 M-36.1 -7.4 Q-26.55 -7.3 -17.05 -10.15 -25.35 -4.5 -39.0 -2.35 -43.05 1.95 -36.1 -7.4" fill="#9c6b4d" fill-rule="evenodd" stroke="none"/>
    <path d="M-50.4 -35.5 Q-43.95 -32.55 -36.75 -27.15 -25.2 -20.2 -11.75 -20.55 -17.2 -20.05 -20.75 -15.25 -4.65 -10.6 10.5 -14.0 8.2 -12.55 6.35 -9.8 17.1 -4.2 27.4 -4.8 L20.85 0.55 Q25.4 5.05 29.45 4.3 45.85 4.9 57.15 16.0 44.3 18.15 31.4 15.55 15.65 18.0 3.2 15.75 -22.85 15.4 -16.6 19.35 L-10.75 26.75 -49.8 24.4 Q-56.2 27.35 -59.0 33.8 -60.75 28.45 -58.7 22.75 -65.8 33.75 -73.8 31.1 -71.8 27.75 -70.35 18.55 -72.65 25.2 -78.5 25.25 -80.75 13.4 -76.65 8.7 -84.6 9.25 -86.8 7.7 -73.45 -0.25 -63.7 -23.5 -71.75 -24.35 -80.8 -29.35 -68.95 -32.65 -55.45 -29.3 -63.95 -33.35 -67.05 -38.9 -60.45 -38.75 -52.9 -36.45 L-52.1 -36.2 -51.3 -35.9 -50.4 -35.5 M-36.1 -7.4 Q-43.05 1.95 -39.0 -2.35 -25.35 -4.5 -17.05 -10.15 -26.55 -7.3 -36.1 -7.4" fill="#aa7858" fill-rule="evenodd" stroke="none"/>
    <path d="M-50.4 -35.5 L-51.3 -35.9 -47.35 -36.4 -50.4 -35.5" fill="#b98c6d" fill-rule="evenodd" stroke="none"/>
    <path d="M-50.4 -35.5 L-51.3 -35.9 -52.1 -36.2 -52.9 -36.45 Q-60.45 -38.75 -67.05 -38.9 -63.95 -33.35 -55.45 -29.3 -68.95 -32.65 -80.8 -29.35 -71.75 -24.35 -63.7 -23.5 -73.45 -0.25 -86.8 7.7 -84.6 9.25 -76.65 8.7 -80.75 13.4 -78.5 25.25 -72.65 25.2 -70.35 18.55 -71.8 27.75 -73.8 31.1 -65.8 33.75 -58.7 22.75 -60.75 28.45 -59.0 33.8 L-57.85 36.5 Q-55.25 30.8 -43.95 30.75 L-32.5 31.25 Q-38.1 33.55 -40.05 40.3 -32.1 35.15 -22.5 34.8 -22.65 41.0 -17.5 44.45 -14.6 41.1 -8.6 38.5 -6.2 38.9 -0.55 37.1 21.9 40.1 16.1 33.45 26.0 34.75 32.15 29.3 39.8 28.2 45.9 31.7 46.3 31.35 42.75 25.45 46.9 23.7 51.65 25.45 L53.45 25.45 Q56.95 29.6 59.5 35.2 65.2 21.75 59.75 12.1 66.15 11.2 71.5 14.35 71.5 12.15 67.85 10.7 78.0 13.3 86.85 10.8 78.1 5.3 72.75 -5.3 80.8 -4.05 86.5 1.8 85.85 -15.55 59.15 -16.25 L47.1 -19.85 Q59.25 -24.85 66.55 -37.05 52.75 -30.8 40.1 -31.0 45.3 -35.15 45.25 -43.2 32.2 -38.05 18.55 -39.5 M53.45 25.45 Q52.45 25.9 51.65 25.45" fill="none" stroke="#47373a" stroke-linecap="round" stroke-linejoin="miter-clip" stroke-miterlimit="5.0" stroke-width="1.2000000000000002"/>
    <path d="M-48.75 -35.3 L-40.7 -30.3 -40.15 -29.85 -39.6 -29.5 -36.65 -27.2 -36.65 -27.05 -36.8 -27.05 -41.6 -30.25 -50.4 -34.85 -50.7 -34.95 -50.8 -35.05 Q-51.15 -35.35 -50.95 -35.75 L-50.6 -36.05 -50.5 -36.05 -47.55 -36.85 -47.5 -36.9 -47.45 -36.9 -47.35 -36.95 -47.15 -37.0 -45.55 -37.55 -44.65 -37.85 -33.9 -42.3 -31.75 -43.35 -31.45 -43.55 -29.65 -44.5 -29.6 -44.5 -29.5 -44.5 -29.5 -44.35 -31.6 -43.1 -31.95 -42.95 -34.1 -41.7 -47.15 -35.85 -47.55 -35.75 -48.75 -35.3 M48.95 21.2 L48.95 21.05 49.1 21.05 49.9 21.6 50.25 21.9 50.7 22.2 53.2 24.35 53.45 24.65 53.95 25.1 Q54.3 25.6 53.8 25.95 53.3 26.35 52.95 25.8 L52.65 25.35 51.1 23.4 48.95 21.2 M59.15 -16.8 L59.2 -16.8 59.65 -16.6 59.75 -16.2 Q59.75 -15.6 59.15 -15.6 L59.1 -15.65 57.7 -15.65 57.45 -15.6 57.15 -15.6 53.15 -14.75 52.85 -14.7 Q52.75 -14.6 52.75 -14.75 L52.8 -14.85 53.05 -15.0 56.4 -16.3 57.3 -16.5 57.55 -16.6 58.85 -16.8 59.15 -16.8 M6.5 -43.2 Q6.35 -43.2 6.45 -43.3 L6.55 -43.35 8.35 -42.55 8.6 -42.5 8.8 -42.4 10.25 -41.85 11.9 -41.35 12.2 -41.3 12.45 -41.2 17.8 -40.15 18.1 -40.15 18.6 -40.05 18.65 -40.05 Q19.25 -39.95 19.15 -39.35 L18.9 -38.95 18.45 -38.9 17.3 -39.1 13.4 -40.15 10.6 -41.15 10.1 -41.4 9.55 -41.6 6.95 -42.9 6.5 -43.2" fill="#47373a" fill-rule="evenodd" stroke="none"/>
  </g>
</svg>
