<?xml version="1.0" encoding="UTF-8" standalone="no"?>
<svg xmlns:xlink="http://www.w3.org/1999/xlink" height="56.2px" width="62.8px" xmlns="http://www.w3.org/2000/svg">
  <g transform="matrix(1.0, 0.0, 0.0, 1.0, 31.4, 28.1)">
    <path d="M15.1 -13.6 L15.05 -15.45 16.0 -16.6 16.7 -16.8 Q20.65 8.45 12.9 20.85 11.5 18.5 10.85 13.65 12.65 9.95 13.85 4.45 15.25 -4.0 15.1 -13.6 15.25 -4.0 13.85 4.45 12.65 9.95 10.85 13.65 8.45 18.45 5.05 20.2 L4.8 20.35 Q10.5 11.6 15.1 -13.6 M-19.95 22.55 Q-14.25 10.15 -10.85 -13.15 -6.8 -10.75 -2.75 -12.6 -1.7 -8.8 -3.2 -5.95 -6.65 -7.8 -10.0 -5.95 -9.75 -1.65 -10.05 3.35 -12.3 22.1 -19.95 22.55" fill="#9c6b4d" fill-rule="evenodd" stroke="none"/>
    <path d="M16.7 -16.8 L16.0 -16.6 Q20.6 -21.85 27.1 -18.65 32.6 -16.05 29.95 -9.1 25.35 -16.4 16.6 -17.25 L16.7 -16.8 M14.55 -22.5 Q7.85 -26.25 1.15 -23.35 L1.9 -24.7 Q8.3 -31.25 14.55 -22.5 M-19.5 -19.45 Q-21.3 -6.65 -24.25 0.6 -27.05 7.3 -24.25 21.25 -27.55 18.95 -30.3 12.65 -31.25 7.9 -30.4 3.65 L-30.4 -7.0 Q-28.0 -8.7 -24.05 -15.25 -22.1 -18.5 -19.5 -19.45 M-2.75 -12.6 Q-0.3 -13.0 1.0 -16.15 2.8 -15.3 0.65 -5.0 -2.6 5.85 -2.65 17.35 L-4.5 14.05 Q-7.5 1.95 -3.2 -5.95 -1.7 -8.8 -2.75 -12.6" fill="#af815d" fill-rule="evenodd" stroke="none"/>
    <path d="M15.05 -15.45 L15.1 -13.6 Q10.5 11.6 4.8 20.35 0.7 22.2 -2.65 17.35 -2.6 5.85 0.65 -5.0 2.8 -15.3 1.0 -16.15 -0.3 -13.0 -2.75 -12.6 -6.8 -10.75 -10.85 -13.15 -14.25 10.15 -19.95 22.55 L-20.5 22.55 Q-22.45 22.5 -24.25 21.25 -27.05 7.3 -24.25 0.6 -21.3 -6.65 -19.5 -19.45 -16.35 -20.6 -12.3 -18.4 L-8.9 -17.1 Q-2.3 -17.8 1.15 -23.35 7.85 -26.25 14.55 -22.5 L15.05 -15.45 M12.9 20.85 Q20.65 8.45 16.7 -16.8 L16.6 -17.25 Q25.35 -16.4 29.95 -9.1 31.55 -3.4 29.05 8.25 L24.5 18.95 Q20.2 28.55 15.45 23.0 13.95 22.65 12.9 20.85" fill="#aa7858" fill-rule="evenodd" stroke="none"/>
    <path d="M15.05 -15.45 L15.1 -13.6 Q15.25 -4.0 13.85 4.45 12.65 9.95 10.85 13.65 11.5 18.5 12.9 20.85 13.95 22.65 15.45 23.0 20.2 28.55 24.5 18.95 L29.05 8.25 Q31.55 -3.4 29.95 -9.1 32.6 -16.05 27.1 -18.65 20.6 -21.85 16.0 -16.6 L15.05 -15.45 14.55 -22.5 Q8.3 -31.25 1.9 -24.7 L1.15 -23.35 Q-2.3 -17.8 -8.9 -17.1 L-12.3 -18.4 Q-16.35 -20.6 -19.5 -19.45 -22.1 -18.5 -24.05 -15.25 -28.0 -8.7 -30.4 -7.0 L-30.4 3.65 Q-31.25 7.9 -30.3 12.65 -27.55 18.95 -24.25 21.25 -22.45 22.5 -20.5 22.55 L-19.95 22.55 Q-12.3 22.1 -10.05 3.35 -9.75 -1.65 -10.0 -5.95 -6.65 -7.8 -3.2 -5.95 -7.5 1.95 -4.5 14.05 L-2.65 17.35 Q0.7 22.2 4.8 20.35 L5.05 20.2 Q8.45 18.45 10.85 13.65" fill="none" stroke="#47373a" stroke-linecap="round" stroke-linejoin="round" stroke-width="1.2000000000000002"/>
    <path d="M-9.4 -5.95 L-9.35 -5.9 Q-9.35 -5.3 -9.95 -5.3 -10.55 -5.3 -10.55 -5.9 L-10.55 -6.55 -10.6 -7.0 -10.8 -12.0 -10.9 -12.8 -10.9 -13.1 -10.85 -13.2 -10.75 -13.15 -10.05 -10.25 -9.4 -6.25 -9.4 -5.95 M-2.65 -5.65 L-2.7 -5.6 Q-2.95 -5.1 -3.5 -5.35 -4.05 -5.7 -3.7 -6.2 L-3.55 -6.45 -3.55 -6.5 -3.5 -6.55 -3.4 -6.7 -3.35 -6.9 -3.15 -7.3 -2.95 -7.8 -2.95 -7.9 -2.85 -8.2 -2.8 -8.3 -2.7 -8.9 -2.65 -9.05 -2.6 -11.0 -2.65 -11.5 -2.65 -11.6 -2.7 -11.75 -2.7 -11.95 -2.8 -12.55 -2.75 -12.65 -2.65 -12.6 -2.45 -12.0 -2.35 -11.8 -2.35 -11.7 -2.3 -11.55 -2.1 -10.45 -2.05 -10.3 -2.05 -10.15 -1.95 -9.2 -1.95 -8.5 -2.0 -8.2 -2.0 -7.85 -2.05 -7.7 -2.05 -7.55 -2.1 -7.25 -2.2 -7.0 -2.2 -6.85 -2.35 -6.5 -2.4 -6.25 -2.45 -6.1 -2.55 -5.95 -2.65 -5.65 M-27.55 -3.7 L-27.45 -3.7 Q-27.25 -3.7 -27.4 -3.55 L-27.55 -3.25 -27.75 -2.95 -28.05 -2.2 -28.2 -1.95 -28.6 -1.0 -28.7 -0.65 -28.85 -0.35 -29.35 1.35 -29.4 1.65 -29.5 1.95 -29.8 3.75 -29.8 3.8 Q-29.95 4.4 -30.55 4.25 -31.1 4.05 -30.95 3.5 L-30.9 3.2 -30.75 2.8 -30.7 2.55 -30.2 1.05 -29.9 0.4 -29.85 0.2 -29.75 0.05 -29.45 -0.6 -29.25 -0.9 -29.2 -1.1 -28.9 -1.55 -28.6 -2.15 -28.4 -2.4 -28.0 -3.1 -27.85 -3.25 -27.55 -3.7" fill="#47373a" fill-rule="evenodd" stroke="none"/>
    <path d="M-17.75 20.45 Q-19.05 23.9 -21.05 26.15 -23.3 24.7 -24.6 20.05 L-17.75 20.45" fill="#fad0cf" fill-rule="evenodd" stroke="none"/>
    <path d="M-24.6 20.05 Q-23.3 24.7 -21.05 26.15 -19.05 23.9 -17.75 20.45" fill="none" stroke="#47373a" stroke-linecap="round" stroke-linejoin="round" stroke-width="1.2000000000000002"/>
    <path d="M6.4 18.45 Q4.6 22.4 1.4 23.6 -1.1 22.5 -2.75 16.55 L6.4 18.45" fill="#fad0cf" fill-rule="evenodd" stroke="none"/>
    <path d="M-2.75 16.55 Q-1.1 22.5 1.4 23.6 4.6 22.4 6.4 18.45" fill="none" stroke="#47373a" stroke-linecap="round" stroke-linejoin="round" stroke-width="1.2000000000000002"/>
    <path d="M21.3 22.95 Q18.5 26.6 15.7 27.5 14.6 25.95 13.65 21.1 L21.3 22.95" fill="#fad0cf" fill-rule="evenodd" stroke="none"/>
    <path d="M21.3 22.95 Q18.5 26.6 15.7 27.5 14.6 25.95 13.65 21.1" fill="none" stroke="#47373a" stroke-linecap="round" stroke-linejoin="round" stroke-width="1.2000000000000002"/>
  </g>
</svg>
