<?xml version="1.0" encoding="UTF-8" standalone="no"?>
<svg xmlns:xlink="http://www.w3.org/1999/xlink" height="849.85px" width="1300.0px" xmlns="http://www.w3.org/2000/svg">
  <g transform="matrix(1.0, 0.0, 0.0, 1.0, 447.55, 410.95)">
    <path d="M852.45 -410.95 L852.45 438.9 -447.55 438.9 -447.55 -410.95 852.45 -410.95" fill="url(#gradient0)" fill-rule="evenodd" stroke="none"/>
    <path d="M100.2 -84.0 Q100.2 8.05 35.05 73.05 -30.0 138.2 -122.0 138.2 -214.0 138.2 -279.15 73.05 -288.2 64.05 -295.95 54.45 -310.1 37.15 -319.95 18.15 -324.35 9.95 -327.85 1.45 -344.2 -37.95 -344.2 -84.0 -344.2 -154.4 -306.1 -209.1 L-299.3 -218.35 Q-290.2 -230.15 -279.15 -241.15 -271.95 -248.3 -264.4 -254.6 -203.8 -306.2 -122.0 -306.2 -30.0 -306.2 35.05 -241.15 100.2 -176.0 100.2 -84.0" fill="url(#gradient1)" fill-rule="evenodd" stroke="none"/>
  </g>
  <defs>
    <radialGradient cx="0" cy="0" gradientTransform="matrix(1.3621, 0.0, 0.0, 0.6774, 159.25, 131.15)" gradientUnits="userSpaceOnUse" id="gradient0" r="819.2" spreadMethod="pad">
      <stop offset="0.4117647058823529" stop-color="#ffbc27"/>
      <stop offset="1.0" stop-color="#e4eeb5"/>
    </radialGradient>
    <radialGradient cx="0" cy="0" gradientTransform="matrix(0.2753, 0.0, 0.0, 0.2753, -122.0, -84.0)" gradientUnits="userSpaceOnUse" id="gradient1" r="819.2" spreadMethod="pad">
      <stop offset="0.0" stop-color="#fff356"/>
      <stop offset="0.3607843137254902" stop-color="#efff9a" stop-opacity="0.8980392"/>
      <stop offset="0.6980392156862745" stop-color="#f1ffbd" stop-opacity="0.2"/>
      <stop offset="1.0" stop-color="#f1ffbd" stop-opacity="0.0"/>
    </radialGradient>
  </defs>
</svg>
