<?xml version="1.0" encoding="UTF-8" standalone="no"?>
<svg xmlns:xlink="http://www.w3.org/1999/xlink" height="646.25px" width="1303.05px" xmlns="http://www.w3.org/2000/svg">
  <g transform="matrix(1.0, 0.0, 0.0, 1.0, 651.5, 316.2)">
    <path d="M-651.5 277.0 L-651.5 213.8 Q-648.1 220.6 -648.1 227.35 -648.0 235.3 -645.6 243.1 -643.2 250.95 -643.2 258.75 -643.1 266.6 -649.6 274.45 L-651.5 277.0 M-651.5 177.0 L-651.5 154.55 Q-649.1 159.6 -649.1 164.75 -649.0 170.85 -651.5 177.0" fill="#7c8690" fill-rule="evenodd" stroke="none"/>
    <path d="M-651.5 -223.15 L-651.5 -244.3 -647.1 -242.5 Q-644.7 -241.65 -640.15 -241.65 -623.7 -241.65 -610.1 -247.4 -604.8 -249.65 -596.2 -254.3 L-578.95 -263.6 Q-556.25 -275.45 -539.0 -287.55 L-517.35 -303.9 Q-508.1 -310.8 -500.5 -313.25 -491.15 -316.2 -474.95 -316.2 -449.95 -316.2 -413.4 -300.9 -375.7 -285.1 -349.85 -262.9 -335.7 -250.75 -324.65 -238.15 -319.0 -231.75 -310.1 -220.05 -303.7 -211.6 -300.35 -208.9 -295.65 -205.1 -289.45 -205.1 -265.0 -205.1 -230.85 -224.4 -226.55 -226.85 -208.95 -237.65 -199.1 -243.7 -196.75 -243.7 -190.45 -243.7 -186.15 -238.2 -182.55 -232.0 -181.4 -230.6 -180.6 -229.6 -173.15 -224.5 -165.5 -219.25 -158.35 -214.9 -151.7 -210.8 -140.4 -204.6 -131.15 -199.45 -126.85 -196.5 -114.2 -187.9 -101.4 -169.25 -98.8 -165.45 -93.25 -155.8 -89.25 -148.85 -86.25 -145.8 -82.0 -141.5 -75.5 -139.65 -68.25 -137.6 -56.1 -137.8 -45.45 -138.0 -36.35 -134.9 -30.3 -132.85 -21.95 -127.9 -12.6 -122.4 -8.8 -120.85 -1.1 -117.6 7.1 -117.6 17.35 -117.6 49.5 -149.85 54.35 -154.7 58.7 -160.8 L65.0 -170.1 Q68.1 -174.7 70.35 -176.6 73.25 -179.0 76.85 -179.0 85.05 -173.65 94.65 -168.25 113.8 -157.55 121.3 -157.55 127.8 -157.55 132.8 -160.6 L142.95 -168.35 Q147.35 -171.7 155.25 -172.35 159.5 -172.7 165.6 -172.6 168.85 -172.8 173.6 -176.1 L183.4 -183.5 Q184.4 -184.2 192.15 -186.95 199.85 -189.65 200.55 -190.2 203.85 -192.65 206.7 -193.65 209.8 -194.75 214.05 -194.75 222.85 -194.75 236.65 -187.55 253.7 -178.65 262.2 -165.05 278.15 -139.55 286.05 -132.3 294.2 -124.75 306.25 -124.75 321.1 -124.75 341.4 -135.7 L357.1 -144.4 Q365.9 -149.05 372.2 -150.8 L395.0 -152.95 423.25 -154.7 Q438.8 -154.7 449.9 -143.0 L459.0 -132.0 Q464.7 -124.8 469.0 -120.9 471.8 -118.35 479.9 -108.3 489.05 -98.55 500.5 -94.15 526.3 -84.2 534.45 -81.7 546.4 -78.0 555.85 -78.0 572.8 -78.0 583.65 -86.95 586.75 -89.5 593.85 -96.85 601.25 -104.5 606.75 -109.2 L624.85 -122.95 Q642.6 -136.45 651.55 -144.2 L651.55 -50.15 Q644.4 -39.9 628.35 -32.3 606.05 -23.1 590.45 -15.45 570.7 -5.75 555.7 -3.15 547.25 -1.7 527.65 -1.7 515.45 -1.7 513.25 -1.9 505.95 -2.55 500.2 -5.7 497.8 -7.0 481.7 -21.3 463.1 -37.8 454.6 -47.6 439.2 -65.4 400.35 -80.35 383.85 -86.7 367.85 -90.45 351.95 -94.15 341.3 -94.15 308.75 -94.15 292.7 -92.9 271.65 -91.25 256.45 -86.35 240.3 -81.1 224.25 -70.25 208.9 -59.9 187.9 -40.45 179.1 -47.05 172.1 -54.75 L162.9 -65.25 Q158.35 -69.9 153.0 -71.75 146.65 -74.0 135.3 -74.0 126.8 -73.65 122.45 -73.95 114.8 -74.5 110.05 -77.7 L95.85 -88.4 Q86.95 -94.7 81.2 -94.7 70.25 -94.7 49.4 -80.05 29.45 -64.55 26.15 -62.85 L12.3 -81.15 Q4.65 -90.7 -1.85 -96.4 -18.3 -110.8 -40.15 -110.8 -51.3 -110.8 -70.65 -101.3 -82.8 -95.35 -107.35 -80.45 -132.95 -64.95 -143.4 -59.65 -161.9 -50.15 -171.8 -50.15 -182.5 -50.15 -212.45 -62.5 L-234.4 -71.85 Q-245.65 -76.6 -249.65 -77.75 L-260.4 -79.75 -289.6 -85.5 Q-294.75 -86.55 -301.35 -89.25 L-312.95 -94.3 Q-327.7 -100.7 -338.45 -100.7 L-353.55 -99.7 -385.5 -101.35 -410.7 -103.6 Q-432.0 -107.2 -445.75 -115.5 -448.85 -117.4 -461.25 -122.45 -473.3 -127.4 -473.8 -127.75 -478.65 -131.3 -483.45 -136.2 -487.85 -140.7 -488.2 -142.0 -497.05 -174.15 -525.4 -189.7 -535.3 -195.15 -549.6 -199.6 L-571.5 -205.95 Q-578.7 -208.2 -596.25 -209.55 L-618.95 -211.55 Q-621.95 -212.05 -630.0 -214.85 -639.95 -218.25 -651.5 -223.15" fill="url(#gradient0)" fill-rule="evenodd" stroke="none"/>
    <path d="M651.55 -50.15 L651.55 114.3 627.5 110.8 Q605.8 107.4 601.5 107.4 595.4 107.4 581.4 112.9 567.4 118.4 560.65 118.4 557.1 118.4 549.15 115.3 536.15 110.2 527.0 107.4 514.85 103.7 488.7 96.35 L472.35 90.65 Q457.25 85.3 451.55 83.85 421.05 76.15 414.7 74.75 404.35 72.55 396.5 72.55 L373.85 72.55 Q366.95 72.3 363.85 70.6 361.6 69.4 356.3 63.9 348.85 56.15 341.15 49.55 337.95 46.8 329.45 44.5 L313.15 40.45 Q291.45 34.65 286.65 23.65 281.55 11.85 266.5 4.3 262.2 2.15 253.2 -1.45 244.2 -5.05 240.1 -7.1 232.3 -11.0 222.15 -15.2 211.9 -19.45 208.85 -21.0 196.75 -27.05 187.9 -40.45 208.9 -59.9 224.25 -70.25 240.3 -81.1 256.45 -86.35 271.65 -91.25 292.7 -92.9 308.75 -94.15 341.3 -94.15 351.95 -94.15 367.85 -90.45 383.85 -86.7 400.35 -80.35 439.2 -65.4 454.6 -47.6 463.1 -37.8 481.7 -21.3 497.8 -7.0 500.2 -5.7 505.95 -2.55 513.25 -1.9 515.45 -1.7 527.65 -1.7 547.25 -1.7 555.7 -3.15 570.7 -5.75 590.45 -15.45 606.05 -23.1 628.35 -32.3 644.4 -39.9 651.55 -50.15 M-651.5 -55.05 L-651.5 -223.15 Q-639.95 -218.25 -630.0 -214.85 -621.95 -212.05 -618.95 -211.55 L-596.25 -209.55 Q-578.7 -208.2 -571.5 -205.95 L-549.6 -199.6 Q-535.3 -195.15 -525.4 -189.7 -497.05 -174.15 -488.2 -142.0 -487.85 -140.7 -483.45 -136.2 -478.65 -131.3 -473.8 -127.75 -473.3 -127.4 -461.25 -122.45 -448.85 -117.4 -445.75 -115.5 -432.0 -107.2 -410.7 -103.6 L-385.5 -101.35 -353.55 -99.7 -338.45 -100.7 Q-327.7 -100.7 -312.95 -94.3 L-301.35 -89.25 Q-294.75 -86.55 -289.6 -85.5 L-260.4 -79.75 -249.65 -77.75 Q-245.65 -76.6 -234.4 -71.85 L-212.45 -62.5 Q-182.5 -50.15 -171.8 -50.15 -161.9 -50.15 -143.4 -59.65 -132.95 -64.95 -107.35 -80.45 -82.8 -95.35 -70.65 -101.3 -51.3 -110.8 -40.15 -110.8 -18.3 -110.8 -1.85 -96.4 4.65 -90.7 12.3 -81.15 L26.15 -62.85 Q14.45 -59.45 -5.65 -49.45 -20.25 -42.15 -31.15 -42.15 -36.75 -42.15 -49.8 -45.85 -62.85 -49.55 -68.55 -49.55 -73.1 -49.55 -80.4 -46.8 -86.55 -44.45 -89.85 -42.25 -100.65 -34.95 -101.95 -34.5 -106.3 -32.95 -116.65 -29.85 -123.8 -27.7 -127.45 -25.8 L-137.45 -20.15 Q-143.0 -17.0 -144.35 -16.75 L-166.35 -14.4 Q-185.25 -11.7 -195.4 -5.75 -217.9 7.55 -229.15 12.6 -245.15 19.85 -256.55 19.85 -259.3 19.85 -269.35 17.35 L-291.05 11.85 Q-323.7 3.8 -340.95 3.8 -354.25 3.8 -362.5 11.75 -367.85 16.85 -379.9 33.4 -383.1 37.35 -395.85 51.2 -408.35 64.85 -411.35 68.6 L-420.7 80.3 Q-424.3 84.45 -427.35 86.45 -430.4 88.45 -436.5 90.6 L-453.25 96.15 -461.1 98.7 Q-465.65 100.4 -470.1 103.3 -474.8 106.35 -488.1 115.95 -492.85 119.4 -496.25 119.4 -503.05 119.4 -507.15 116.5 -510.55 114.1 -513.0 108.85 L-517.2 98.15 Q-520.0 90.9 -523.15 86.05 -526.5 80.9 -529.95 73.75 -532.95 67.45 -537.0 61.8 -549.85 43.85 -603.2 -12.25 -607.55 -16.85 -623.05 -19.15 L-634.5 -21.05 Q-640.4 -22.4 -643.25 -24.7 -648.8 -29.15 -648.3 -41.8 -648.0 -48.25 -648.3 -50.15 -648.85 -54.0 -651.5 -55.05" fill="url(#gradient1)" fill-rule="evenodd" stroke="none"/>
    <path d="M651.55 114.3 L651.55 330.05 -651.5 330.05 -651.5 277.0 -649.6 274.45 Q-643.1 266.6 -643.2 258.75 -643.2 250.95 -645.6 243.1 -648.0 235.3 -648.1 227.35 -648.1 220.6 -651.5 213.8 L-651.5 177.0 Q-649.0 170.85 -649.1 164.75 -649.1 159.6 -651.5 154.55 L-651.5 -55.05 Q-648.85 -54.0 -648.3 -50.15 -648.0 -48.25 -648.3 -41.8 -648.8 -29.15 -643.25 -24.7 -640.4 -22.4 -634.5 -21.05 L-623.05 -19.15 Q-607.55 -16.85 -603.2 -12.25 -549.85 43.85 -537.0 61.8 -532.95 67.45 -529.95 73.75 -526.5 80.9 -523.15 86.05 -520.0 90.9 -517.2 98.15 L-513.0 108.85 Q-510.55 114.1 -507.15 116.5 -503.05 119.4 -496.25 119.4 -492.85 119.4 -488.1 115.95 -474.8 106.35 -470.1 103.3 -465.65 100.4 -461.1 98.7 L-453.25 96.15 -436.5 90.6 Q-430.4 88.45 -427.35 86.45 -424.3 84.45 -420.7 80.3 L-411.35 68.6 Q-408.35 64.85 -395.85 51.2 -383.1 37.35 -379.9 33.4 -367.85 16.85 -362.5 11.75 -354.25 3.8 -340.95 3.8 -323.7 3.8 -291.05 11.85 L-269.35 17.35 Q-259.3 19.85 -256.55 19.85 -245.15 19.85 -229.15 12.6 -217.9 7.55 -195.4 -5.75 -185.25 -11.7 -166.35 -14.4 L-144.35 -16.75 Q-143.0 -17.0 -137.45 -20.15 L-127.45 -25.8 Q-123.8 -27.7 -116.65 -29.85 -106.3 -32.95 -101.95 -34.5 -100.65 -34.95 -89.85 -42.25 -86.55 -44.45 -80.4 -46.8 -73.1 -49.55 -68.55 -49.55 -62.85 -49.55 -49.8 -45.85 -36.75 -42.15 -31.15 -42.15 -20.25 -42.15 -5.65 -49.45 14.45 -59.45 26.15 -62.85 29.45 -64.55 49.4 -80.05 70.25 -94.7 81.2 -94.7 86.95 -94.7 95.85 -88.4 L110.05 -77.7 Q114.8 -74.5 122.45 -73.95 126.8 -73.65 135.3 -74.0 146.65 -74.0 153.0 -71.75 158.35 -69.9 162.9 -65.25 L172.1 -54.75 Q179.1 -47.05 187.9 -40.45 196.75 -27.05 208.85 -21.0 211.9 -19.45 222.15 -15.2 232.3 -11.0 240.1 -7.1 244.2 -5.05 253.2 -1.45 262.2 2.15 266.5 4.3 281.55 11.85 286.65 23.65 291.45 34.65 313.15 40.45 L329.45 44.5 Q337.95 46.8 341.15 49.55 348.85 56.15 356.3 63.9 361.6 69.4 363.85 70.6 366.95 72.3 373.85 72.55 L396.5 72.55 Q404.35 72.55 414.7 74.75 421.05 76.15 451.55 83.85 457.25 85.3 472.35 90.65 L488.7 96.35 Q514.85 103.7 527.0 107.4 536.15 110.2 549.15 115.3 557.1 118.4 560.65 118.4 567.4 118.4 581.4 112.9 595.4 107.4 601.5 107.4 605.8 107.4 627.5 110.8 L651.55 114.3" fill="#ae620a" fill-rule="evenodd" stroke="none"/>
  </g>
  <defs>
    <linearGradient gradientTransform="matrix(0.0, -0.1407, 0.192, 0.0, 0.0, -159.0)" gradientUnits="userSpaceOnUse" id="gradient0" spreadMethod="pad" x1="-819.2" x2="819.2">
      <stop offset="0.0" stop-color="#f5a121"/>
      <stop offset="1.0" stop-color="#f59d15"/>
    </linearGradient>
    <linearGradient gradientTransform="matrix(0.4136, 0.0, 0.0, 0.209, -312.7, -51.9)" gradientUnits="userSpaceOnUse" id="gradient1" spreadMethod="pad" x1="-819.2" x2="819.2">
      <stop offset="0.0" stop-color="#d7820b"/>
      <stop offset="1.0" stop-color="#ec9714"/>
    </linearGradient>
  </defs>
</svg>
