<?xml version="1.0" encoding="UTF-8" standalone="no"?>
<svg xmlns:xlink="http://www.w3.org/1999/xlink" height="88.0px" width="252.8px" xmlns="http://www.w3.org/2000/svg">
  <g transform="matrix(1.0, 0.0, 0.0, 1.0, 127.2, 44.55)">
    <path d="M-2.3 -44.55 Q7.7 -44.55 16.9 -42.1 27.4 -39.35 33.3 -34.3 35.45 -32.45 38.7 -30.85 41.75 -29.35 44.75 -28.55 48.05 -27.6 50.1 -26.25 52.5 -24.6 54.45 -23.85 L65.45 -21.1 Q75.3 -18.7 77.15 -17.9 L85.65 -12.55 Q90.45 -9.45 93.95 -9.5 108.45 -9.8 116.9 -3.0 123.5 2.2 125.2 10.2 126.65 16.95 122.75 22.1 117.7 28.75 105.1 28.75 96.55 28.7 91.1 26.7 92.65 32.9 85.1 38.15 77.5 43.45 66.7 43.45 57.95 43.2 53.3 41.0 42.6 35.45 42.45 35.45 L33.15 37.6 Q23.0 39.75 18.2 39.75 7.2 39.25 1.85 37.35 L-11.0 32.2 Q-11.6 32.2 -13.55 33.65 -15.9 35.45 -16.85 35.9 L-20.15 37.3 -23.7 38.45 -28.6 39.45 -37.05 40.3 Q-51.85 40.3 -64.1 35.45 L-71.6 32.1 Q-74.85 30.6 -76.4 30.6 L-79.5 31.85 Q-82.55 33.05 -85.6 33.05 -87.85 33.05 -92.55 31.3 -97.2 29.5 -99.35 29.5 -107.2 29.5 -114.5 25.6 -124.4 20.3 -126.55 10.2 -127.55 7.1 -127.05 3.3 -126.05 -4.2 -118.5 -7.8 L-115.5 -7.9 -111.25 -7.7 Q-106.85 -7.7 -105.4 -8.65 -104.95 -9.0 -104.1 -10.8 -102.7 -13.95 -91.0 -13.95 L-85.45 -17.9 Q-80.0 -21.9 -79.65 -22.65 -79.35 -23.2 -79.65 -25.0 -79.4 -26.95 -76.6 -29.25 -65.95 -38.3 -48.05 -38.3 -41.2 -38.3 -33.25 -36.5 L-26.25 -34.75 Q-24.95 -34.75 -24.15 -35.75 -22.65 -37.6 -20.65 -38.9 -18.65 -40.3 -13.35 -42.15 -6.7 -44.55 -2.3 -44.55" fill="#ffb951" fill-rule="evenodd" stroke="none"/>
    <path d="M9.05 -40.0 Q18.15 -40.0 26.1 -37.8 35.1 -35.3 39.5 -30.7 41.1 -29.0 43.75 -27.55 46.25 -26.2 48.85 -25.45 51.65 -24.6 53.25 -23.35 55.15 -21.85 56.8 -21.15 L66.25 -18.65 Q74.75 -16.5 76.25 -15.75 L83.0 -10.9 Q86.8 -8.05 89.95 -8.1 103.2 -8.4 109.65 -2.2 114.65 2.55 114.65 9.85 114.65 16.0 110.1 20.65 104.2 26.75 92.75 26.75 84.95 26.7 80.4 24.85 80.65 30.5 72.75 35.3 64.8 40.1 54.95 40.1 47.05 39.9 43.2 37.9 L34.4 32.85 25.55 34.8 Q15.9 36.75 11.5 36.75 1.6 36.3 -2.9 34.55 -3.85 34.2 -13.6 29.85 -14.15 29.85 -16.2 31.2 -18.7 32.85 -19.65 33.25 L-22.95 34.5 -26.4 35.55 -31.05 36.45 -38.95 37.25 Q-52.4 37.25 -62.6 32.85 L-68.8 29.8 Q-71.5 28.4 -72.9 28.4 L-75.95 29.55 Q-78.95 30.65 -81.75 30.65 -83.8 30.65 -87.7 29.05 -91.6 27.4 -93.55 27.4 -100.7 27.4 -106.6 23.85 -114.6 19.05 -114.6 9.85 -114.9 7.0 -113.75 3.55 -111.35 -3.3 -103.8 -6.55 L-101.1 -6.65 -97.25 -6.45 Q-93.25 -6.45 -91.75 -7.35 -91.25 -7.65 -90.15 -9.3 -88.25 -12.15 -77.6 -12.15 L-71.8 -15.75 Q-66.05 -19.4 -65.55 -20.1 -65.2 -20.6 -65.1 -22.2 -64.5 -24.0 -61.55 -26.1 -50.1 -34.35 -33.8 -34.35 -27.55 -34.35 -20.65 -32.7 L-14.6 -31.1 Q-13.45 -31.1 -12.5 -32.0 -10.8 -33.7 -8.75 -34.9 -6.65 -36.15 -1.45 -37.85 5.05 -40.0 9.05 -40.0" fill="#eca840" fill-rule="evenodd" stroke="none"/>
  </g>
</svg>
