<?xml version="1.0" encoding="UTF-8" standalone="no"?>
<svg xmlns:xlink="http://www.w3.org/1999/xlink" height="120.1px" width="336.4px" xmlns="http://www.w3.org/2000/svg">
  <g transform="matrix(1.0, 0.0, 0.0, 1.0, 169.9, 61.35)">
    <path d="M-18.95 -60.05 Q-9.15 -58.2 -1.4 -53.85 1.8 -52.0 4.6 -49.8 L5.05 -48.95 Q13.25 -50.45 23.65 -50.05 L24.75 -50.05 Q28.8 -48.9 32.05 -46.85 38.35 -43.0 42.05 -35.85 L42.65 -35.7 42.45 -36.8 42.3 -37.9 Q46.65 -35.8 50.25 -33.45 L49.7 -33.45 51.1 -32.6 52.05 -32.35 Q61.95 -26.9 67.75 -16.8 L68.15 -15.75 Q95.6 -16.8 108.2 -0.1 L108.55 0.85 Q127.35 0.25 134.5 14.0 L135.15 14.15 Q156.75 14.8 165.45 30.8 L165.8 31.85 Q169.85 49.6 150.0 50.45 129.05 51.35 116.35 47.35 114.35 49.95 111.8 51.0 83.7 62.6 63.7 44.05 57.0 58.15 31.55 57.0 7.35 55.95 -8.05 51.8 -9.95 54.4 -13.15 55.5 -38.5 64.15 -60.45 49.6 L-61.4 49.8 Q-75.6 57.25 -88.5 47.35 L-89.5 47.6 Q-94.45 49.85 -97.35 54.0 L-98.4 54.1 Q-118.6 59.3 -135.75 49.6 L-136.85 49.6 -151.25 49.6 -151.45 48.95 Q-160.6 46.85 -165.05 39.6 L-165.85 39.35 Q-168.65 35.9 -169.9 30.75 -166.25 23.95 -157.2 21.4 -157.05 21.35 -157.15 20.8 L-147.2 20.8 -146.1 20.8 Q-143.45 14.05 -137.0 10.4 -136.75 10.25 -136.85 9.7 -131.45 8.65 -124.9 8.6 L-123.75 8.6 Q-125.55 -10.0 -107.15 -11.25 L-106.05 -11.3 Q-105.15 -21.45 -93.5 -22.35 L-92.4 -22.4 Q-89.7 -30.95 -82.8 -36.05 -82.55 -36.25 -82.65 -36.8 -75.3 -40.15 -66.1 -40.05 L-56.45 -39.1 -55.3 -39.0 Q-52.5 -48.45 -44.8 -53.85 -38.5 -58.3 -28.95 -59.95 L-27.8 -60.05 -28.0 -61.15 Q-16.65 -61.75 -18.15 -60.3 -18.4 -60.05 -18.95 -60.05" fill="#ffb951" fill-rule="evenodd" stroke="none"/>
    <path d="M-1.5 -53.05 Q7.1 -51.4 13.4 -47.45 16.05 -45.8 18.25 -43.8 L18.5 -43.05 Q26.15 -44.4 35.5 -44.05 L36.5 -44.05 Q39.95 -43.0 42.6 -41.15 47.7 -37.65 49.95 -31.2 L50.5 -31.05 50.5 -32.05 50.5 -33.05 Q54.1 -31.15 57.0 -29.05 L56.5 -29.05 57.6 -28.25 58.5 -28.05 Q66.55 -23.1 70.3 -14.0 L70.5 -13.05 Q95.45 -14.0 104.3 1.1 L104.5 1.95 Q121.55 1.4 125.95 13.8 L126.5 13.95 Q145.9 14.55 151.35 29.0 L151.5 29.95 Q152.5 45.95 134.45 46.75 115.4 47.55 104.5 43.95 102.35 46.3 99.85 47.25 72.75 57.7 57.5 40.95 49.25 53.7 26.45 52.65 4.8 51.7 -8.5 47.95 -10.6 50.3 -13.7 51.3 -37.9 59.1 -55.5 45.95 L-56.4 46.15 Q-70.35 52.9 -80.5 43.95 L-81.4 44.15 Q-86.25 46.2 -89.5 49.95 L-90.45 50.05 Q-109.45 54.75 -123.5 45.95 L-124.5 45.95 -137.5 45.95 -137.6 45.4 Q-145.55 43.5 -148.5 36.95 L-149.15 36.7 Q-151.15 33.6 -151.5 28.95 -147.15 22.8 -138.65 20.5 -138.5 20.45 -138.5 19.95 L-129.5 19.95 -128.5 19.95 Q-125.1 13.85 -118.7 10.55 L-118.5 9.95 Q-113.45 9.0 -107.5 8.95 L-106.5 8.95 Q-105.3 -7.85 -88.5 -9.0 L-87.5 -9.05 Q-85.15 -18.2 -74.5 -19.0 L-73.5 -19.05 Q-69.75 -26.8 -62.75 -31.4 -62.5 -31.55 -62.5 -32.05 -55.35 -35.1 -47.1 -35.0 L-38.5 -34.15 -37.5 -34.05 Q-33.5 -42.6 -25.8 -47.45 -19.4 -51.5 -10.5 -52.95 L-9.5 -53.05 -9.5 -54.05 Q0.85 -54.6 -0.7 -53.3 L-1.5 -53.05" fill="#eca840" fill-rule="evenodd" stroke="none"/>
  </g>
</svg>
