<?xml version="1.0" encoding="UTF-8" standalone="no"?>
<svg xmlns:xlink="http://www.w3.org/1999/xlink" height="137.0px" width="485.6px" xmlns="http://www.w3.org/2000/svg">
  <g transform="matrix(1.0, 0.0, 0.0, 1.0, 244.45, 69.95)">
    <path d="M225.15 24.2 Q229.2 24.2 230.9 25.15 L234.2 27.15 237.0 29.45 Q239.35 31.6 239.55 32.45 L239.75 34.55 Q240.5 34.55 240.75 35.05 L241.05 36.3 Q241.85 45.1 237.25 49.5 232.95 53.5 224.4 53.5 220.75 53.5 216.9 51.95 214.2 50.85 212.85 49.95 L211.75 49.2 210.95 53.3 Q210.15 56.55 209.55 57.65 208.35 59.75 203.35 60.8 L194.15 61.55 186.65 60.65 178.4 59.5 Q176.7 59.25 174.7 58.0 L172.45 56.2 170.65 54.4 169.2 53.4 158.35 54.1 150.5 53.4 145.75 52.75 Q141.75 52.05 135.9 49.4 130.65 47.0 129.85 46.1 121.5 50.4 118.3 51.65 111.6 54.05 103.75 54.05 92.7 54.05 82.7 50.5 71.75 46.6 69.65 40.85 68.1 41.9 63.25 43.05 L57.65 44.0 46.85 42.95 Q46.25 42.95 43.7 45.05 L39.4 48.35 27.1 53.4 14.45 55.8 -0.3 56.9 -11.15 56.95 Q-12.5 57.35 -16.75 61.05 -19.95 63.25 -23.25 64.15 L-32.15 64.95 -39.75 64.25 Q-43.3 63.5 -49.9 61.25 -51.0 63.8 -59.05 65.5 -66.75 67.05 -76.55 67.05 -87.45 67.05 -96.35 63.9 -105.15 60.75 -109.05 55.5 -112.6 59.9 -119.85 62.1 -125.25 63.7 -130.5 63.7 -138.25 63.7 -145.85 61.3 -154.9 58.4 -160.0 52.95 L-160.15 53.05 Q-161.3 56.7 -162.8 58.25 -164.45 59.9 -167.25 59.9 L-170.35 59.55 -171.7 59.65 -174.0 60.75 Q-176.45 61.85 -180.15 64.15 -181.65 65.05 -184.0 65.05 -186.45 65.05 -190.75 63.7 -195.65 62.2 -197.3 60.45 -197.9 59.85 -204.85 59.3 -212.75 58.65 -215.45 57.65 -222.4 55.15 -224.7 54.0 -234.65 47.05 -235.0 46.5 -236.0 45.0 -241.55 38.5 -244.0 35.6 -244.3 31.9 -244.55 29.4 -244.3 26.65 -243.85 23.15 -242.7 21.55 L-241.6 20.35 -241.05 19.9 -226.6 6.3 Q-223.55 6.3 -216.9 4.35 -210.05 2.3 -206.0 2.1 -205.25 -9.0 -194.35 -18.0 -183.9 -26.7 -172.1 -27.2 -173.3 -37.0 -166.5 -46.15 -160.1 -54.95 -152.2 -56.0 L-147.35 -56.5 Q-144.35 -56.85 -142.35 -57.55 -140.7 -58.15 -139.2 -60.35 -137.5 -62.9 -136.35 -63.65 -132.8 -65.9 -128.9 -67.45 -122.4 -69.95 -116.1 -69.95 L-109.65 -69.15 Q-105.15 -68.1 -102.05 -66.3 -100.05 -65.15 -95.25 -60.65 -91.0 -56.6 -89.95 -56.4 L-83.95 -55.05 Q-81.2 -54.1 -79.9 -52.55 -78.7 -51.05 -77.3 -47.2 -76.05 -43.6 -75.85 -41.75 L-75.85 -39.75 Q-73.35 -39.8 -71.4 -37.15 -69.6 -34.8 -69.9 -32.95 L-69.85 -31.4 -62.7 -30.65 Q-60.15 -30.05 -57.95 -28.4 -55.75 -26.7 -55.7 -25.1 L-43.7 -26.95 -36.0 -27.15 Q-27.8 -27.15 -17.5 -24.55 -9.75 -22.55 -5.55 -20.6 0.55 -17.75 7.5 -11.65 13.55 -6.3 15.4 -3.1 16.65 -6.85 22.45 -9.85 29.95 -13.9 41.6 -13.9 51.9 -13.9 59.25 -10.15 67.1 -6.1 72.5 2.65 L78.25 2.15 87.1 2.1 87.6 2.7 90.15 3.85 Q91.95 4.6 94.5 6.65 L97.05 8.4 107.85 7.15 Q114.55 7.15 120.35 10.15 126.1 13.15 130.5 18.85 135.3 14.95 144.95 13.05 150.95 11.9 155.4 11.9 164.9 11.9 171.5 14.3 175.4 15.7 178.7 17.55 L182.35 20.2 Q184.65 22.0 185.2 22.0 L191.0 20.45 Q197.4 18.8 202.05 18.8 L204.8 18.85 Q205.75 21.95 206.95 21.55 209.05 20.85 210.15 21.55 L216.95 26.2 219.5 25.2 Q222.35 24.2 225.15 24.2" fill="#ffb951" fill-rule="evenodd" stroke="none"/>
    <path d="M217.5 24.55 Q221.4 24.55 222.95 25.45 L225.9 27.35 228.4 29.55 Q230.45 31.6 230.55 32.45 L230.55 34.45 Q231.25 34.45 231.5 34.9 L231.65 36.1 Q231.65 44.5 226.85 48.7 222.45 52.55 214.25 52.55 210.8 52.55 207.25 51.05 204.75 50.0 203.5 49.15 L202.55 48.45 201.4 52.35 Q200.35 55.45 199.7 56.5 198.4 58.5 193.55 59.5 L184.65 60.25 177.6 59.35 169.8 58.25 Q168.2 58.05 166.4 56.85 164.9 55.85 164.4 55.1 L162.8 53.4 161.55 52.45 151.1 53.1 143.65 52.45 139.2 51.8 Q135.45 51.15 130.05 48.6 125.3 46.35 124.55 45.45 116.25 49.6 113.05 50.75 106.45 53.05 98.95 53.05 88.4 53.05 79.15 49.65 69.05 45.95 67.55 40.45 65.95 41.45 61.25 42.55 L55.8 43.45 45.55 42.45 Q45.0 42.45 42.35 44.45 39.0 47.0 37.95 47.6 L25.8 52.45 13.5 54.75 -0.65 55.8 -11.05 55.85 Q-12.35 56.2 -16.75 59.75 -20.0 61.85 -23.2 62.7 L-31.8 63.5 -39.0 62.8 Q-42.3 62.1 -48.45 59.95 -49.7 62.4 -57.55 64.0 -65.05 65.5 -74.4 65.5 -84.85 65.5 -93.05 62.45 -101.15 59.45 -104.45 54.45 -108.25 58.65 -115.35 60.75 -120.65 62.3 -125.65 62.3 -133.05 62.3 -140.1 60.0 -148.5 57.2 -152.9 52.0 L-153.05 52.1 Q-154.45 55.6 -156.05 57.1 -157.75 58.65 -160.45 58.65 L-163.35 58.3 -164.65 58.4 -166.95 59.45 Q-169.35 60.5 -173.1 62.7 -174.6 63.55 -176.85 63.55 -179.2 63.55 -183.2 62.3 -187.75 60.85 -189.2 59.2 -189.7 58.6 -196.3 58.1 -203.75 57.45 -206.3 56.5 L-214.8 53.0 -223.95 45.85 Q-224.8 44.4 -229.55 38.2 -231.6 35.45 -231.6 31.9 -231.6 29.5 -231.1 26.9 -230.4 23.55 -229.15 22.0 L-228.0 20.85 -227.45 20.45 -212.45 7.45 Q-209.55 7.45 -203.05 5.6 -196.3 3.65 -192.45 3.45 -190.7 -7.15 -179.55 -15.75 -168.8 -24.05 -157.45 -24.55 -157.75 -33.9 -150.5 -42.65 -143.6 -51.05 -136.0 -52.05 L-131.3 -52.55 -126.45 -53.55 Q-124.8 -54.1 -123.2 -56.2 -121.3 -58.65 -120.15 -59.35 -116.6 -61.5 -112.7 -63.0 -106.3 -65.4 -100.3 -65.4 L-94.2 -64.6 Q-90.0 -63.6 -87.15 -61.9 -85.35 -60.8 -81.15 -56.5 -77.45 -52.65 -76.45 -52.45 L-70.9 -51.15 Q-68.3 -50.25 -67.2 -48.75 -66.2 -47.35 -65.2 -43.65 -64.3 -40.2 -64.3 -38.45 L-64.45 -36.55 Q-62.05 -36.6 -60.4 -34.05 -58.9 -31.8 -59.35 -30.05 L-59.45 -28.55 -52.7 -27.85 Q-50.3 -27.25 -48.35 -25.7 -46.4 -24.05 -46.45 -22.55 L-34.85 -24.3 -27.45 -24.5 Q-19.65 -24.5 -10.05 -22.0 -2.8 -20.1 1.05 -18.25 6.65 -15.5 12.7 -9.7 18.05 -4.6 19.55 -1.55 21.05 -5.1 26.85 -8.0 34.4 -11.85 45.5 -11.85 55.35 -11.85 62.05 -8.25 69.15 -4.4 73.55 3.95 L79.1 3.5 87.55 3.45 88.0 4.0 90.3 5.1 Q92.0 5.85 94.25 7.8 L96.55 9.45 106.95 8.25 Q113.35 8.25 118.65 11.15 123.85 14.0 127.55 19.45 132.5 15.7 141.9 13.9 147.75 12.8 152.0 12.8 161.05 12.8 167.1 15.1 170.75 16.45 173.7 18.2 L177.0 20.75 Q179.0 22.45 179.55 22.45 L185.2 20.95 Q191.5 19.4 195.9 19.4 L198.55 19.45 Q199.15 22.4 200.35 22.0 202.4 21.35 203.4 22.0 L209.55 26.45 212.0 25.5 Q214.85 24.55 217.5 24.55" fill="#eca840" fill-rule="evenodd" stroke="none"/>
  </g>
</svg>
