<?xml version="1.0" encoding="UTF-8" standalone="no"?>
<svg xmlns:xlink="http://www.w3.org/1999/xlink" height="94.95px" width="159.55px" xmlns="http://www.w3.org/2000/svg">
  <g transform="matrix(1.0, 0.0, 0.0, 1.0, 80.7, 48.6)">
    <path d="M42.95 -18.75 L35.85 -9.6 Q34.4 -8.05 33.55 -5.95 32.7 -3.8 31.2 -1.85 33.2 -0.4 36.55 -0.25 L37.0 -0.25 37.0 0.0 Q51.5 0.35 65.3 -0.25 L65.55 -0.25 Q64.05 2.2 61.55 4.05 L61.65 4.35 Q65.85 6.9 71.15 8.3 L70.65 8.35 Q67.25 10.0 64.75 12.55 L65.25 12.6 Q70.55 15.25 77.0 16.8 72.2 19.7 65.3 20.8 L65.3 21.05 Q68.45 23.75 70.85 26.4 L70.05 26.4 Q65.3 27.4 68.7 28.75 69.1 28.9 66.35 29.7 65.75 29.85 65.3 30.1 63.15 31.3 65.3 34.4 L65.1 35.0 Q65.0 35.4 65.3 35.95 68.65 36.95 63.15 37.55 L62.6 37.55 Q54.35 37.3 59.55 42.25 L61.0 43.45 Q60.05 44.35 57.8 44.0 L57.3 44.0 Q41.25 40.85 23.75 38.75 11.35 37.15 1.85 32.2 -1.25 30.55 -5.05 29.6 -5.2 34.25 -8.65 35.65 L-8.8 35.95 Q-21.3 39.0 -31.2 34.0 L-34.3 32.6 Q-36.65 31.6 -32.75 31.7 -31.25 27.3 -36.45 26.65 L-36.45 26.4 Q-32.95 24.55 -31.25 21.0 L-31.15 20.5 Q-36.45 19.15 -42.85 18.95 L-43.4 18.95 -43.4 18.4 -60.45 18.65 -60.45 18.95 Q-67.5 20.95 -76.95 20.5 L-77.5 20.5 -79.65 20.5 -80.7 20.5 Q-80.5 6.35 -67.35 1.35 L-66.85 1.3 -58.3 0.8 -58.2 0.5 -48.75 -6.65 -48.6 -7.0 Q-46.5 -8.3 -47.65 -4.0 -46.65 -3.95 -46.7 -3.6 -47.3 -1.2 -50.85 1.35 L-50.85 1.6 -6.65 4.5 -6.5 4.1 8.25 -12.5 8.7 -12.6 8.8 -12.95 13.05 -16.75 13.5 -16.85 Q31.55 -28.1 48.75 -40.2 49.05 -40.2 49.15 -40.35 55.0 -44.65 61.55 -48.2 L62.0 -48.3 Q64.1 -49.4 61.55 -46.1 L61.95 -44.65 Q64.8 -39.2 71.15 -36.5 68.9 -34.85 64.2 -35.9 57.95 -37.25 59.4 -34.9 62.2 -31.8 54.1 -32.75 L53.55 -32.75 Q49.15 -27.85 45.9 -21.65 45.8 -21.55 45.55 -21.55 44.1 -20.35 42.95 -18.75" fill="#b88438" fill-rule="evenodd" stroke="none"/>
    <path d="M44.8 -16.5 L37.7 -7.35 Q36.25 -5.8 35.4 -3.7 34.55 -1.55 33.05 0.4 35.05 1.85 38.4 2.0 L38.85 2.0 38.85 2.25 Q53.35 2.6 67.15 2.0 L67.4 2.0 Q65.9 4.45 63.4 6.3 L63.5 6.6 Q67.7 9.15 73.0 10.55 L72.5 10.6 Q69.1 12.25 66.6 14.8 L67.1 14.85 Q72.4 17.5 78.85 19.05 74.05 21.95 67.15 23.05 L67.15 23.3 Q70.3 26.0 72.7 28.65 L71.9 28.65 Q67.15 29.65 70.55 31.0 70.95 31.15 68.2 31.95 67.6 32.1 67.15 32.35 65.0 33.55 67.15 36.65 L66.95 37.25 Q66.85 37.65 67.15 38.2 70.5 39.2 65.0 39.8 L64.45 39.8 Q56.2 39.55 61.4 44.5 L62.85 45.7 Q61.9 46.6 59.65 46.25 L59.15 46.25 Q43.1 43.1 25.6 41.0 13.2 39.4 3.7 34.45 0.6 32.8 -3.2 31.85 -3.35 36.5 -6.8 37.9 L-6.95 38.2 Q-19.45 41.25 -29.35 36.25 L-32.45 34.85 Q-34.8 33.85 -30.9 33.95 -29.4 29.55 -34.6 28.9 L-34.6 28.65 Q-31.1 26.8 -29.4 23.25 L-29.3 22.75 Q-34.6 21.4 -41.0 21.2 L-41.55 21.2 -41.55 20.65 -58.6 20.9 -58.6 21.2 Q-65.65 23.2 -75.1 22.75 L-75.65 22.75 -77.8 22.75 -78.85 22.75 Q-78.65 8.6 -65.5 3.6 L-65.0 3.55 -56.45 3.05 -56.35 2.75 -46.9 -4.4 -46.75 -4.75 Q-44.65 -6.05 -45.8 -1.75 -44.8 -1.7 -44.85 -1.35 -45.45 1.05 -49.0 3.6 L-49.0 3.85 -4.8 6.75 -4.65 6.35 10.1 -10.25 10.55 -10.35 10.65 -10.7 14.9 -14.5 15.35 -14.6 Q33.4 -25.85 50.6 -37.95 50.9 -37.95 51.0 -38.1 56.85 -42.4 63.4 -45.95 L63.85 -46.05 Q65.95 -47.15 63.4 -43.85 L63.8 -42.4 Q66.65 -36.95 73.0 -34.25 70.75 -32.6 66.05 -33.65 59.8 -35.0 61.25 -32.65 64.05 -29.55 55.95 -30.5 L55.4 -30.5 Q51.0 -25.6 47.75 -19.4 L47.4 -19.3 Q45.95 -18.1 44.8 -16.5" fill="#8a632a" fill-rule="evenodd" stroke="none"/>
  </g>
</svg>
