<?xml version="1.0" encoding="UTF-8" standalone="no"?>
<svg xmlns:xlink="http://www.w3.org/1999/xlink" height="349.7px" width="1300.05px" xmlns="http://www.w3.org/2000/svg">
  <g transform="matrix(1.0, 0.0, 0.0, 1.0, 447.55, -89.15)">
    <path d="M-447.55 395.2 Q-443.15 390.9 -441.2 387.45 -439.25 383.9 -439.25 380.15 -439.25 376.45 -443.4 359.35 -447.55 342.2 -447.55 328.0 -447.55 311.5 -446.35 306.95 -445.15 305.2 -445.15 302.8 L-446.0 299.25 Q-446.95 295.6 -447.55 294.4 L-447.55 121.85 Q-445.1 122.65 -444.5 125.45 -444.15 127.15 -444.4 131.7 -444.95 141.55 -441.15 145.2 -437.65 148.6 -432.05 149.95 L-421.4 151.05 -410.95 151.65 Q-405.45 152.4 -402.3 154.9 -351.95 194.6 -337.3 210.65 -331.35 217.15 -328.15 223.05 L-322.9 233.95 Q-321.45 236.9 -318.25 239.6 -315.05 242.25 -314.05 244.35 L-312.6 250.0 Q-311.35 255.2 -310.8 255.9 -303.35 265.45 -292.65 265.45 -290.95 265.45 -276.8 257.65 -261.4 249.15 -252.45 247.0 -235.2 242.85 -227.3 239.3 -217.4 234.9 -211.65 227.55 -208.3 223.3 -193.55 210.05 L-177.5 195.7 -167.2 184.9 Q-162.05 179.3 -159.2 176.9 -151.05 170.25 -137.75 170.25 -120.55 170.25 -88.0 176.9 L-66.35 181.45 -53.5 183.5 Q-41.7 183.5 -30.7 177.35 L-17.85 172.9 Q-3.85 167.9 3.2 164.25 17.7 156.75 35.3 154.8 L55.85 153.75 Q56.4 153.7 71.55 147.65 87.4 141.35 99.7 139.05 106.65 137.75 117.3 131.65 126.45 126.4 134.05 126.4 139.85 126.4 152.9 129.45 165.95 132.45 170.0 132.45 178.05 132.45 183.35 131.15 187.1 130.25 192.5 127.7 207.8 120.55 224.35 116.65 229.25 115.5 235.3 112.3 L242.9 107.75 Q273.2 89.15 283.45 89.15 288.2 89.15 302.4 97.35 317.05 105.85 324.4 106.4 331.45 106.95 343.8 106.0 354.7 106.2 364.15 112.9 374.6 120.35 380.75 125.35 389.3 132.35 395.1 139.0 402.2 147.1 409.85 150.6 415.45 153.2 433.8 158.0 437.9 159.1 452.9 164.7 466.1 169.65 474.2 172.95 477.2 174.15 486.75 184.7 496.5 195.5 500.15 197.3 501.65 198.05 521.65 202.4 541.05 206.55 542.8 207.95 547.65 211.7 553.9 217.15 L561.2 223.15 Q567.35 227.4 578.25 227.4 L602.25 227.4 635.4 232.8 Q647.6 234.7 663.8 239.55 L682.6 245.05 Q691.35 246.8 727.35 256.2 759.65 264.65 762.3 264.65 768.45 264.65 782.5 260.1 796.5 255.55 802.55 255.55 805.4 255.55 823.45 258.55 841.1 261.45 852.5 261.25 L852.5 438.85 -447.55 438.85 -447.55 395.2" fill="#5e2104" fill-rule="evenodd" stroke="none"/>
  </g>
</svg>
