<?xml version="1.0" encoding="UTF-8" standalone="no"?>
<svg xmlns:xlink="http://www.w3.org/1999/xlink" height="470.2px" width="890.15px" xmlns="http://www.w3.org/2000/svg">
  <g transform="matrix(1.0, 0.0, 0.0, 1.0, 445.05, 235.1)">
    <path d="M-9.8 108.4 L-9.65 108.4 -9.75 108.25 -9.8 108.4 M-98.55 112.3 L-98.75 112.5 -98.45 112.45 -98.55 112.3 M-84.05 107.45 L-84.2 107.6 -83.95 107.65 -84.05 107.45 M-81.9 76.25 L-82.1 76.3 -81.9 76.4 -81.9 76.25 M-120.15 59.85 L-120.35 59.85 -120.3 60.1 -120.15 59.85 M-92.0 1.8 L-92.2 1.85 -92.0 1.85 -92.0 1.8 M-17.85 86.7 L-16.15 87.5 -16.2 86.75 -16.5 86.35 Q-16.75 86.2 -17.15 86.35 L-17.85 86.7 M-2.6 85.85 L-2.35 86.05 -2.3 85.75 -2.6 85.85 M-39.05 97.35 L-38.9 97.45 -39.0 97.25 -39.05 97.35 M-59.25 69.9 L-58.6 70.05 -58.6 69.95 -59.25 69.9 M-72.2 38.2 L-72.25 38.5 -72.1 38.2 -72.2 38.2 M-42.85 48.65 L-42.75 48.45 -42.9 48.4 -42.85 48.65 M0.5 73.05 L1.15 73.35 0.65 72.75 0.5 73.05 M-38.0 -1.0 L-37.95 -1.75 Q-38.2 -1.45 -38.05 -1.0 L-38.0 -1.0 M-36.4 -3.65 L-36.3 -3.65 -36.4 -4.05 -36.4 -3.65 M-58.4 -29.0 L-58.35 -29.1 -58.85 -29.3 -58.4 -29.0 M6.6 70.5 L6.5 70.45 6.35 70.5 6.45 70.55 6.6 70.5 Q8.2 69.8 9.85 70.55 L12.45 72.4 Q14.8 74.25 15.4 76.65 13.8 75.05 11.45 74.05 L7.0 72.65 4.95 74.0 4.85 74.35 5.3 74.75 9.4 76.4 Q11.75 77.4 12.95 79.0 L13.85 79.85 14.65 80.75 Q16.2 80.2 16.9 81.2 L17.0 81.5 16.95 81.75 14.65 81.6 14.25 81.5 12.85 82.5 Q13.0 83.45 12.15 83.05 11.05 82.4 10.75 83.6 10.85 84.85 10.15 84.75 L8.15 85.05 6.2 85.4 Q5.5 86.15 3.5 86.3 L2.35 86.35 Q1.75 86.5 1.45 87.1 3.0 87.45 5.55 88.75 8.2 90.2 9.5 90.55 11.1 91.0 12.2 92.35 12.95 93.25 13.8 95.2 L14.9 95.9 Q15.65 96.3 16.0 96.95 14.45 96.7 12.55 95.65 L9.55 94.1 Q7.6 93.3 7.2 92.85 6.5 91.9 5.55 92.5 5.05 92.8 5.25 93.25 L5.55 94.1 5.9 94.85 6.55 95.6 Q6.95 95.85 7.1 96.45 L7.3 97.4 11.85 100.6 Q10.7 100.65 9.4 100.0 L7.45 99.0 Q6.5 99.2 5.25 98.65 3.75 97.85 3.2 97.85 L3.2 100.35 Q3.0 101.65 2.4 101.6 1.95 101.5 1.9 101.1 L1.95 100.2 Q1.95 99.05 1.0 97.9 L-0.8 96.1 Q-1.6 96.9 -1.2 98.2 -0.6 99.95 -0.7 100.35 -0.7 101.25 -1.2 101.05 -5.6 99.3 -7.0 96.45 -7.95 96.7 -8.0 97.55 L-7.95 99.05 Q-5.9 100.75 -2.5 105.05 -5.5 104.55 -7.15 103.1 L-9.3 101.8 -11.45 100.65 -11.55 100.8 -11.55 101.05 Q-10.25 102.75 -10.25 105.35 -11.1 104.95 -11.85 103.7 L-13.0 102.0 -13.85 102.05 -14.65 101.9 -15.5 101.95 Q-16.1 102.05 -16.5 101.5 L-17.2 100.75 -17.7 101.9 Q-17.75 102.45 -16.8 102.8 -15.85 103.1 -14.3 104.65 -12.9 106.05 -11.7 106.3 -10.25 106.5 -9.05 107.5 -8.2 108.2 -7.2 109.8 L-10.4 109.15 Q-12.4 108.85 -13.4 107.95 -14.65 106.6 -15.6 107.25 -15.95 107.5 -15.8 108.0 L-15.5 108.95 -15.35 109.8 -15.1 110.75 Q-15.0 111.25 -15.5 111.45 -16.15 111.75 -16.6 110.45 -17.15 109.4 -18.5 108.0 L-20.5 105.7 -21.1 104.95 Q-21.7 105.0 -21.8 105.4 L-21.95 106.25 -21.6 108.6 Q-22.4 108.55 -23.15 107.75 -24.0 106.7 -24.4 106.6 -25.05 106.9 -25.55 107.75 L-26.35 109.15 Q-26.8 109.6 -26.5 110.1 L-25.55 110.85 Q-23.0 112.0 -22.3 113.0 L-21.15 113.4 Q-20.65 113.6 -20.55 114.0 -20.5 114.25 -20.75 114.9 -20.95 115.45 -21.3 115.45 L-22.0 115.3 -26.6 113.8 Q-26.95 114.6 -26.4 115.3 L-25.5 116.4 -22.95 120.0 Q-22.35 121.0 -22.95 121.6 -23.3 121.95 -23.7 121.8 L-24.4 121.3 -26.85 119.15 -29.15 116.85 Q-29.9 117.7 -29.2 119.35 L-29.0 120.0 -28.65 121.3 Q-28.6 122.1 -29.4 122.4 -30.15 122.7 -30.5 122.05 -30.8 121.15 -31.05 120.8 L-31.7 119.5 Q-32.5 119.05 -32.55 117.9 -32.7 116.55 -33.05 116.1 L-35.65 115.25 Q-36.7 116.6 -37.55 115.15 L-38.4 113.8 -39.8 113.45 Q-40.7 113.45 -41.05 114.3 L-42.5 116.1 Q-43.1 117.25 -42.45 118.5 -42.15 119.0 -42.95 119.3 -43.4 119.45 -43.85 118.85 L-44.75 117.65 Q-45.25 116.95 -45.9 116.6 -45.8 117.25 -46.0 119.05 -46.1 120.6 -45.75 121.5 -46.05 122.3 -46.5 122.4 -47.0 122.45 -47.45 121.8 L-48.2 120.65 -48.65 119.35 Q-48.8 118.7 -49.35 118.0 L-50.35 116.85 Q-51.75 117.85 -52.25 117.6 -52.65 117.35 -52.9 115.6 L-53.0 114.8 -54.25 115.95 -56.1 117.9 Q-56.85 118.65 -57.4 118.3 -57.9 117.9 -57.5 116.95 L-56.9 115.35 -55.9 113.85 Q-53.2 111.4 -53.55 108.85 L-54.25 108.3 Q-55.9 108.25 -57.55 109.2 L-60.3 111.25 Q-60.55 112.95 -60.95 113.35 -61.6 114.0 -63.05 112.75 L-63.4 112.75 -64.0 112.95 -65.3 113.3 -66.5 113.85 -65.85 118.25 -65.65 119.25 Q-65.65 119.85 -66.25 120.1 -67.3 120.5 -67.85 118.85 L-68.65 117.35 -69.6 116.05 Q-70.05 115.75 -70.25 115.7 -70.55 115.6 -70.4 116.35 -70.15 117.1 -70.85 117.85 L-72.25 117.9 Q-73.3 118.35 -73.5 117.1 L-74.1 116.0 -74.65 114.7 -75.05 114.35 -85.5 120.3 Q-86.05 120.65 -86.1 121.3 L-86.1 122.45 Q-86.2 123.75 -87.15 123.75 -87.8 123.7 -87.85 123.2 L-87.85 122.3 Q-88.0 119.3 -86.45 116.65 -85.25 114.65 -82.75 112.1 L-82.4 111.7 Q-82.75 111.45 -84.15 111.1 -85.2 110.75 -85.75 110.15 -86.2 110.2 -86.65 109.8 L-87.4 108.9 -87.4 110.85 Q-86.85 111.55 -86.85 112.75 L-86.75 114.7 Q-86.55 115.4 -87.55 115.75 -88.2 116.05 -88.65 115.05 L-89.75 111.9 Q-90.1 111.0 -91.1 110.9 -91.1 112.55 -90.75 113.1 -89.05 115.6 -89.45 118.05 -89.1 119.2 -89.6 121.3 -89.6 122.15 -90.55 122.15 -91.55 122.15 -91.6 121.2 L-92.1 117.7 -92.9 116.1 Q-93.3 115.1 -94.6 115.6 L-95.25 117.55 Q-95.5 118.9 -95.9 119.5 -97.25 121.55 -100.3 124.7 -100.3 122.75 -99.4 120.1 L-97.7 115.4 -99.75 116.85 -103.55 120.2 Q-103.6 118.3 -102.3 116.3 L-99.8 113.05 Q-100.7 112.5 -101.35 112.65 -101.8 113.4 -102.75 113.5 L-104.4 113.6 Q-105.2 113.65 -105.25 113.15 L-104.9 112.15 -103.6 107.85 -103.55 107.5 Q-103.45 106.35 -103.9 106.5 L-104.85 107.0 -104.85 107.1 -107.25 110.1 Q-108.85 111.85 -109.15 113.4 -109.0 114.3 -110.1 115.15 -110.5 113.15 -109.5 110.45 L-108.95 109.2 -113.35 111.75 Q-114.35 113.1 -117.4 114.7 -116.35 111.9 -113.3 109.7 L-112.7 109.45 -109.45 105.6 Q-107.5 103.6 -105.25 102.8 L-105.75 101.7 Q-106.2 101.25 -107.0 101.35 L-110.3 101.05 Q-111.1 100.4 -111.2 97.7 -112.15 95.25 -112.75 95.2 -113.4 95.15 -115.1 97.25 L-117.0 99.55 Q-117.95 100.95 -118.05 102.3 -118.2 103.1 -118.7 102.95 -119.55 102.7 -119.25 101.7 -118.85 100.05 -120.55 99.85 L-120.95 100.3 Q-122.55 102.0 -126.45 104.95 L-126.85 104.55 -123.7 100.6 -124.75 100.65 Q-125.35 100.85 -125.5 100.45 -125.7 99.95 -125.25 99.5 L-124.4 98.8 -121.65 96.25 -120.8 94.85 Q-120.3 94.0 -120.45 93.5 -120.55 92.95 -121.35 93.0 L-122.8 93.0 -123.55 92.65 Q-123.85 92.3 -123.6 92.05 L-123.2 91.65 -123.55 91.3 Q-125.65 91.5 -127.2 93.3 L-129.9 96.85 -129.9 95.75 -129.55 94.85 -129.05 93.9 Q-128.75 93.3 -128.8 92.7 -129.75 92.85 -131.05 93.5 L-133.2 94.5 -133.9 94.95 Q-134.35 95.2 -134.55 94.35 -135.0 93.0 -134.35 91.35 -133.9 89.95 -135.2 89.65 -135.85 89.7 -136.4 90.35 L-139.7 92.4 Q-141.7 93.8 -143.25 94.1 -139.45 89.8 -135.0 87.5 L-134.65 87.45 Q-134.7 86.75 -135.5 86.85 L-138.45 87.45 Q-140.1 87.8 -141.2 88.45 -139.05 85.7 -135.3 84.7 -135.5 84.35 -135.9 84.4 L-136.5 84.45 -137.7 83.7 Q-137.95 83.15 -136.9 82.3 L-135.15 81.1 -133.0 80.9 Q-131.95 81.1 -132.0 80.25 -132.15 80.0 -132.7 79.9 -133.25 79.85 -133.35 79.5 L-134.15 79.25 Q-135.1 80.15 -136.6 80.45 L-139.65 80.65 Q-137.2 78.6 -136.0 77.7 -133.95 76.2 -132.05 75.6 -131.7 74.8 -132.2 74.6 L-133.15 74.4 Q-134.6 74.1 -136.6 75.05 -137.55 75.45 -137.85 74.7 -138.2 73.95 -137.3 73.5 L-134.95 71.85 Q-134.05 71.5 -132.55 70.2 -131.1 68.95 -130.05 68.65 L-129.3 67.8 Q-128.45 67.3 -128.5 66.8 L-129.25 65.9 -129.4 65.8 -129.4 65.4 Q-129.6 64.95 -129.4 64.5 L-129.05 63.65 Q-130.6 63.7 -132.6 64.85 -135.3 66.45 -135.95 66.65 -135.8 65.95 -136.15 65.8 L-139.05 65.25 Q-137.95 64.55 -135.55 63.7 -133.25 62.8 -132.25 62.1 -132.35 61.7 -132.95 61.6 -133.5 61.5 -133.65 61.05 -129.75 59.2 -126.1 61.1 -124.35 62.05 -123.25 60.2 -123.55 59.65 -125.0 59.1 -126.3 58.55 -126.5 57.75 -127.35 57.9 -128.5 57.25 -129.9 56.5 -130.4 56.45 -127.75 55.1 -126.05 56.05 L-125.7 56.05 Q-125.4 55.3 -124.7 55.4 L-123.45 55.45 Q-124.4 54.55 -126.45 53.8 -128.7 53.0 -129.55 52.3 L-129.9 52.25 -131.7 55.0 Q-131.65 54.0 -130.75 51.75 -131.55 51.25 -132.4 51.3 L-134.05 51.75 -136.0 52.8 -138.15 53.25 Q-136.8 52.65 -134.15 50.3 -131.75 48.15 -129.9 47.7 -128.9 47.45 -129.95 47.0 L-130.2 46.7 Q-129.45 46.5 -128.75 45.45 -128.0 44.35 -127.35 44.15 -126.85 42.8 -125.25 42.4 L-122.75 41.55 Q-122.45 41.1 -121.1 40.7 -119.95 40.45 -119.8 39.5 L-120.95 39.45 Q-121.8 39.65 -122.2 39.0 L-122.8 37.85 -124.05 37.75 -125.2 37.3 -128.45 37.95 Q-128.5 37.4 -128.15 37.1 L-127.45 36.7 Q-128.3 36.2 -129.8 36.05 L-132.5 35.8 Q-131.55 35.1 -130.3 35.05 L-128.3 35.15 -126.15 35.35 Q-124.9 35.35 -124.05 34.8 -123.85 34.75 -123.1 35.25 L-121.1 35.75 -119.0 36.35 Q-117.9 36.75 -117.3 35.95 -116.7 35.1 -116.9 33.45 L-116.65 32.7 Q-116.45 31.7 -115.8 31.4 L-114.45 31.5 -113.45 31.55 -112.9 30.9 Q-113.05 30.6 -112.5 30.1 L-112.5 29.8 Q-113.1 29.25 -114.15 29.45 L-116.15 29.75 Q-115.0 28.55 -113.35 27.8 L-110.5 26.65 Q-111.4 26.05 -112.85 26.35 L-115.45 26.6 Q-113.5 25.15 -110.85 25.4 -109.75 25.6 -108.3 24.95 L-107.0 24.75 -105.75 24.9 -104.65 24.4 Q-104.65 24.0 -105.55 23.85 -106.35 23.7 -106.15 22.95 L-108.95 22.4 Q-110.85 22.15 -111.8 21.35 L-107.2 21.45 -107.8 19.95 -107.85 19.2 Q-108.75 18.1 -110.1 18.1 L-112.65 18.5 Q-113.35 18.65 -113.4 19.4 -113.45 20.3 -113.75 20.5 -114.4 18.7 -115.7 19.4 -117.55 20.45 -118.0 20.3 L-114.2 16.95 -113.35 16.3 Q-112.85 15.85 -112.9 15.25 L-115.0 16.1 Q-115.25 16.15 -116.0 16.9 -116.6 17.45 -117.2 17.35 L-120.3 18.45 -119.85 17.7 -119.2 17.05 Q-119.85 16.85 -121.0 17.35 L-123.1 17.55 Q-120.45 15.85 -116.4 14.6 L-109.55 12.65 -109.5 12.65 -109.1 11.75 Q-110.05 11.1 -113.0 10.9 L-114.8 10.55 -116.7 9.4 -113.4 8.9 Q-111.5 8.6 -110.4 7.95 -109.8 7.4 -109.0 7.75 L-108.25 7.65 Q-108.1 7.3 -108.3 7.05 -108.9 6.35 -108.75 5.35 L-108.25 3.75 Q-109.4 3.25 -110.85 3.3 L-113.7 3.75 Q-113.3 3.15 -112.5 2.85 -112.15 2.65 -111.4 2.4 -110.95 2.15 -111.15 1.95 L-111.7 1.6 -114.2 1.0 Q-115.65 0.55 -116.55 -0.2 -112.8 0.25 -111.1 1.1 L-110.8 1.2 -106.15 1.65 -104.4 1.2 Q-103.9 1.2 -103.15 0.55 -102.5 -0.15 -102.0 -0.15 L-101.85 -1.35 Q-102.4 -1.6 -101.95 -1.9 -101.15 -4.0 -103.05 -3.05 L-105.55 -1.8 Q-104.7 -2.95 -103.05 -4.05 L-100.15 -6.0 -104.95 -5.7 Q-107.9 -5.55 -110.1 -5.75 -108.35 -6.5 -104.95 -6.8 -101.75 -7.05 -100.3 -7.8 -100.45 -8.2 -101.05 -8.45 L-101.85 -8.95 -103.55 -10.05 Q-104.75 -10.4 -105.35 -10.7 L-106.15 -10.7 Q-106.6 -10.7 -106.65 -11.05 -106.8 -11.5 -106.2 -11.4 -105.6 -11.35 -105.6 -11.75 -106.2 -12.25 -107.2 -12.1 L-108.95 -11.7 Q-107.15 -14.2 -105.7 -15.0 L-105.05 -15.3 Q-104.7 -15.45 -104.65 -15.9 -104.6 -16.8 -104.05 -16.75 L-103.1 -16.3 -100.15 -16.25 Q-98.05 -15.9 -97.6 -17.95 -98.6 -18.5 -100.15 -17.95 L-102.7 -17.4 Q-102.5 -18.05 -101.7 -18.35 -100.75 -18.7 -100.5 -19.05 -101.3 -20.2 -103.05 -19.85 L-105.9 -19.95 -104.35 -20.65 -102.8 -20.9 -102.15 -20.8 Q-101.8 -20.7 -101.65 -20.95 -101.4 -21.3 -101.8 -21.45 L-102.1 -21.6 Q-100.15 -22.85 -98.85 -21.85 L-96.3 -22.1 -93.85 -22.25 -95.55 -23.05 -97.15 -23.95 -101.4 -25.0 Q-104.1 -25.45 -105.7 -26.55 L-100.7 -27.1 Q-99.5 -27.15 -98.9 -27.6 -98.4 -27.95 -98.2 -28.95 -98.15 -29.45 -97.8 -29.55 L-97.15 -29.45 Q-95.95 -29.65 -94.35 -30.85 L-91.65 -32.4 -94.2 -32.6 -96.75 -32.3 -98.75 -32.3 -103.6 -31.7 Q-102.95 -32.3 -101.95 -32.55 L-100.15 -32.85 -97.15 -33.35 -94.15 -33.7 Q-93.05 -33.7 -92.9 -34.3 -92.7 -34.85 -93.05 -35.15 L-93.8 -35.5 Q-96.2 -37.05 -98.7 -37.45 L-96.25 -37.55 -94.25 -37.45 Q-93.3 -38.45 -94.15 -39.65 L-95.25 -39.2 Q-95.15 -39.75 -94.65 -40.15 L-93.9 -40.75 Q-92.4 -42.4 -94.6 -42.65 L-95.5 -43.05 -97.55 -43.25 -99.8 -43.7 -98.5 -44.4 -97.2 -44.75 -96.65 -45.35 Q-97.9 -46.2 -97.4 -46.95 L-96.15 -48.1 -94.8 -49.25 Q-93.4 -50.25 -93.35 -50.35 L-97.2 -50.75 -101.1 -50.9 Q-99.75 -51.05 -97.45 -51.85 L-93.85 -52.85 -91.05 -53.4 Q-89.5 -53.85 -88.7 -54.95 L-89.05 -55.3 -89.5 -55.35 -90.75 -55.3 Q-92.25 -54.95 -92.75 -56.35 -93.25 -58.0 -91.65 -58.35 -91.75 -58.9 -91.35 -59.4 L-90.55 -60.3 -93.95 -60.5 -97.2 -60.25 -92.55 -61.2 Q-89.65 -61.6 -88.0 -62.5 L-88.75 -62.95 Q-89.35 -63.05 -89.5 -63.25 L-87.45 -64.15 Q-86.15 -64.7 -86.1 -66.05 -87.0 -65.85 -88.4 -66.5 -89.9 -67.3 -90.65 -67.2 -91.2 -67.2 -91.2 -68.05 -91.1 -68.6 -90.4 -68.45 L-86.9 -68.45 -86.0 -68.7 -85.05 -69.35 Q-86.0 -69.25 -87.2 -70.0 -88.6 -70.7 -89.35 -70.7 L-87.45 -71.2 -85.5 -71.1 -84.1 -71.35 Q-83.25 -71.7 -82.75 -72.4 L-82.8 -72.65 Q-84.1 -72.7 -84.4 -74.1 -84.45 -74.55 -83.6 -74.55 L-83.85 -75.8 Q-83.95 -76.55 -83.6 -77.1 -82.9 -77.75 -81.3 -78.15 -79.55 -78.65 -78.85 -79.15 L-80.5 -79.5 -82.0 -78.9 -83.05 -78.7 -83.15 -79.65 Q-83.1 -80.1 -83.3 -80.1 L-83.75 -80.1 -87.1 -81.05 -79.4 -81.4 Q-78.95 -82.0 -79.25 -82.3 L-80.0 -82.65 Q-83.1 -84.0 -84.8 -85.05 L-81.35 -84.35 Q-79.2 -83.75 -77.95 -83.9 -77.85 -84.35 -77.4 -84.35 L-76.75 -84.25 -75.15 -85.2 Q-74.3 -85.7 -73.8 -86.35 L-74.3 -86.85 Q-74.95 -86.9 -76.0 -87.6 -76.6 -88.3 -77.85 -88.65 L-79.85 -89.4 Q-77.05 -90.2 -75.45 -89.45 L-75.05 -89.4 Q-75.3 -90.6 -75.8 -91.15 -76.4 -91.7 -79.55 -93.65 L-77.65 -93.4 -75.9 -93.35 -75.8 -93.5 -75.9 -93.7 -77.95 -94.7 Q-79.2 -95.35 -79.6 -96.35 L-76.8 -95.65 Q-75.25 -95.25 -74.3 -94.45 L-72.65 -93.3 Q-71.75 -93.0 -71.4 -94.9 -72.5 -95.25 -73.75 -96.05 L-76.15 -97.95 -74.7 -97.75 -73.2 -97.85 -72.35 -98.3 Q-71.9 -98.65 -72.25 -99.4 -72.65 -100.05 -72.25 -100.25 L-71.35 -100.15 Q-70.95 -100.0 -70.3 -99.65 -69.8 -99.5 -69.45 -100.0 -69.0 -100.7 -70.25 -101.85 L-70.6 -102.5 -71.2 -103.05 Q-73.1 -104.15 -71.15 -104.7 -70.75 -104.8 -70.45 -105.35 L-69.95 -106.0 -70.95 -107.8 Q-71.75 -109.0 -71.9 -110.05 L-69.2 -106.45 Q-67.6 -104.1 -66.3 -102.9 L-67.45 -107.7 Q-68.0 -108.75 -68.55 -110.9 L-69.55 -114.1 Q-70.55 -115.2 -69.0 -115.4 L-69.5 -117.45 Q-68.3 -116.5 -67.25 -114.95 L-65.65 -112.35 -64.0 -110.6 Q-63.05 -118.4 -63.05 -122.15 -62.6 -120.3 -62.65 -117.15 L-62.6 -112.2 Q-62.6 -111.65 -62.3 -111.55 L-58.5 -118.5 Q-59.25 -114.2 -61.4 -111.05 L-61.45 -109.55 Q-61.4 -108.6 -61.8 -108.05 L-61.6 -107.2 Q-61.4 -106.7 -61.8 -106.4 -61.35 -105.5 -60.85 -105.85 L-60.2 -106.65 -57.9 -110.1 Q-56.0 -106.0 -58.4 -103.3 L-58.5 -103.05 Q-58.4 -101.9 -57.95 -101.65 -56.8 -103.4 -55.25 -104.5 -55.45 -103.55 -56.4 -102.4 L-57.6 -100.5 -56.6 -100.7 Q-56.3 -100.65 -55.2 -101.15 -54.35 -101.5 -54.05 -100.9 -53.9 -100.5 -54.5 -99.6 -55.1 -98.7 -55.75 -98.3 L-57.7 -96.65 -57.45 -95.95 Q-57.3 -95.55 -56.75 -95.75 L-53.7 -97.75 Q-52.85 -98.3 -52.55 -97.5 -52.4 -96.6 -51.7 -97.3 -51.05 -98.0 -49.35 -98.0 -50.35 -97.65 -51.3 -96.4 L-52.95 -94.45 -52.6 -94.0 Q-52.05 -93.15 -51.6 -93.05 -51.0 -92.85 -50.15 -93.5 -49.05 -94.4 -47.15 -95.0 L-43.85 -95.95 -46.75 -94.1 -49.7 -92.3 Q-49.4 -91.75 -48.8 -91.65 L-47.8 -91.45 Q-48.35 -90.5 -48.6 -90.4 -48.8 -90.25 -49.65 -90.7 L-50.65 -91.0 -51.7 -91.15 -55.5 -88.5 -55.55 -88.15 -55.1 -87.25 -51.25 -87.65 -50.4 -87.65 -49.05 -87.5 -47.8 -86.85 Q-46.8 -87.3 -46.2 -86.85 L-46.7 -86.45 Q-46.9 -86.05 -48.1 -85.65 -49.05 -85.3 -48.85 -84.65 -48.75 -84.2 -47.75 -84.0 L-46.0 -83.7 Q-46.85 -83.2 -48.65 -83.05 -50.95 -82.95 -50.35 -80.95 L-49.5 -80.85 -44.95 -80.75 -40.4 -80.05 -43.1 -79.55 -45.75 -79.45 -47.35 -79.3 Q-48.05 -78.85 -48.1 -77.55 -48.15 -76.55 -47.8 -76.2 L-46.65 -75.8 -44.5 -75.4 Q-43.3 -75.0 -42.6 -74.15 L-37.55 -75.75 -37.4 -75.4 -38.75 -74.55 Q-39.6 -74.1 -40.2 -74.0 -40.8 -73.95 -40.55 -73.0 -40.3 -72.2 -41.25 -72.35 -43.15 -72.7 -42.65 -71.2 L-44.15 -71.3 Q-45.25 -71.7 -45.25 -70.7 L-45.35 -70.65 Q-44.25 -70.6 -41.9 -69.4 -41.45 -69.9 -40.65 -69.65 L-39.3 -69.45 Q-40.4 -68.65 -40.2 -68.1 -40.05 -67.8 -39.15 -67.35 L-37.25 -66.4 Q-33.1 -64.7 -30.9 -62.3 L-33.4 -62.65 -35.5 -63.45 -38.5 -63.15 Q-40.25 -63.05 -41.25 -62.25 -41.85 -61.8 -42.35 -62.55 L-43.15 -62.5 -42.65 -61.85 Q-42.35 -61.55 -41.45 -61.3 -40.7 -60.9 -41.05 -59.95 L-39.8 -59.2 -33.65 -58.7 Q-34.05 -58.4 -35.4 -58.35 -36.45 -58.3 -36.7 -57.6 -37.45 -55.65 -36.0 -55.35 -35.35 -54.85 -35.75 -54.65 L-36.35 -54.1 -35.05 -53.3 Q-33.0 -54.05 -31.7 -54.0 -29.95 -53.85 -28.75 -52.4 -28.85 -51.65 -30.05 -51.45 -31.25 -51.35 -31.5 -50.55 L-29.8 -50.35 -28.1 -50.1 Q-27.6 -49.8 -26.55 -49.6 L-24.85 -49.2 -28.0 -48.6 Q-29.95 -48.15 -31.25 -48.6 -32.8 -48.8 -35.3 -48.6 L-39.3 -48.5 -40.85 -47.95 -38.75 -47.2 Q-38.65 -46.85 -39.2 -46.5 -39.65 -46.2 -39.4 -45.85 -39.3 -45.65 -38.85 -45.6 L-38.05 -45.6 -34.45 -46.0 -30.85 -45.55 Q-27.95 -44.2 -30.6 -42.6 L-30.8 -41.8 -29.15 -41.35 -27.65 -41.0 Q-26.6 -40.2 -26.35 -40.15 L-28.2 -40.0 -27.65 -39.3 Q-27.3 -38.85 -27.65 -38.45 -28.0 -38.05 -28.5 -38.2 L-29.25 -38.75 -31.25 -40.1 -33.15 -40.6 Q-34.35 -40.85 -35.1 -40.05 L-33.95 -38.75 -32.65 -37.55 Q-31.6 -37.35 -32.4 -36.55 -32.8 -36.1 -32.4 -35.5 L-32.1 -35.4 Q-28.3 -35.25 -25.75 -33.95 L-28.35 -33.85 -30.8 -33.95 Q-30.8 -33.5 -30.1 -33.05 -29.25 -32.65 -29.2 -32.05 -30.15 -32.5 -30.45 -31.7 -30.85 -30.75 -31.15 -30.7 L-30.8 -29.9 Q-30.55 -29.35 -30.7 -29.1 -31.45 -27.5 -30.3 -26.85 -29.5 -26.35 -28.6 -26.55 -26.55 -27.1 -23.3 -26.45 L-18.05 -25.7 -27.65 -24.2 -26.5 -23.75 Q-26.0 -23.45 -26.55 -22.65 -25.6 -21.8 -23.8 -21.65 L-20.75 -21.45 Q-22.1 -19.85 -23.95 -19.15 -24.55 -18.35 -24.1 -17.85 -23.9 -17.6 -23.05 -17.1 L-22.05 -16.8 -21.05 -16.7 -20.0 -16.7 Q-18.75 -16.6 -18.8 -16.05 -18.85 -15.5 -19.35 -15.5 L-20.15 -15.7 -21.05 -15.9 Q-21.5 -15.9 -21.65 -15.45 -21.75 -15.0 -21.35 -14.8 L-20.55 -14.5 Q-20.2 -14.3 -19.15 -14.05 -18.45 -13.7 -19.4 -12.65 L-18.7 -12.25 -15.45 -10.15 Q-17.25 -9.75 -19.35 -10.75 -20.8 -11.6 -23.05 -10.05 -23.75 -9.5 -23.25 -8.65 L-22.4 -7.15 -27.45 -7.6 Q-28.6 -7.7 -28.2 -8.6 -28.65 -8.65 -29.2 -8.1 -29.8 -7.45 -30.3 -7.5 -30.55 -7.5 -30.55 -6.9 -30.55 -6.3 -30.05 -6.05 -29.3 -6.55 -29.15 -5.95 -28.95 -5.2 -28.75 -5.2 L-26.3 -4.85 Q-25.5 -5.75 -24.35 -5.7 L-22.3 -5.25 Q-21.85 -4.95 -22.05 -4.6 L-22.35 -3.95 -21.05 -3.9 Q-19.45 -4.6 -18.1 -3.45 L-17.7 -3.55 -16.25 -3.6 -15.0 -2.9 Q-15.3 -2.6 -15.85 -2.65 L-16.75 -2.6 Q-16.8 -1.3 -17.95 0.15 L-19.75 2.45 -21.0 2.5 Q-20.15 3.75 -18.05 3.25 L-16.4 3.15 Q-15.45 3.25 -15.35 3.75 -15.35 4.55 -16.25 4.6 L-17.75 4.55 -19.2 4.7 -19.35 5.4 Q-18.85 5.7 -19.35 5.9 -19.25 6.1 -19.7 6.65 -19.85 7.05 -19.0 6.65 -17.95 6.1 -16.3 6.2 L-13.6 6.3 -14.8 7.3 Q-15.6 7.65 -15.5 8.4 L-12.1 9.7 Q-9.75 10.35 -8.7 10.95 L-13.4 10.25 -14.7 10.05 Q-15.5 10.0 -15.95 10.55 L-15.15 11.85 Q-14.65 13.3 -13.05 12.8 L-11.85 12.4 Q-11.25 12.4 -11.55 13.65 L-10.8 14.3 -10.45 14.2 -7.7 15.15 Q-7.95 15.6 -8.7 15.6 -9.45 15.6 -9.7 16.05 L-6.25 18.5 -8.6 18.65 -10.9 18.7 -11.95 18.65 Q-12.6 18.55 -13.0 18.2 L-13.9 18.15 -15.25 18.35 Q-15.75 18.55 -14.7 19.55 -13.85 20.6 -14.8 21.15 -15.2 21.45 -15.5 21.15 L-16.0 20.5 -17.25 19.15 -18.6 18.25 Q-19.45 17.7 -20.2 17.75 -20.35 18.05 -21.3 18.35 -21.95 18.7 -20.95 19.65 -20.55 20.0 -21.05 20.15 L-21.95 20.45 -22.8 20.95 Q-23.1 21.3 -22.0 21.5 -19.5 23.0 -16.15 21.1 -16.0 21.95 -16.45 22.15 L-17.3 22.4 Q-17.9 22.65 -18.05 23.7 -18.2 24.75 -17.7 24.9 -16.65 25.15 -16.65 25.85 L-16.75 27.15 Q-16.0 27.0 -13.8 27.15 -11.95 27.25 -10.8 26.65 L-10.05 26.6 Q-9.15 25.5 -7.35 24.6 L-4.25 23.1 Q-4.6 24.0 -5.6 24.6 L-7.35 25.55 Q-7.85 25.9 -7.85 26.15 L-7.4 26.6 -6.65 26.85 Q-6.45 27.15 -6.7 27.2 L-7.1 27.25 -8.65 27.6 Q-9.05 28.3 -8.6 28.6 L-7.7 29.05 -6.2 29.9 -4.6 30.9 -7.95 30.75 Q-8.8 31.35 -9.7 33.35 L-10.15 34.05 -10.45 34.8 -10.4 34.8 Q-9.95 34.8 -9.5 34.45 L-8.85 33.8 Q-8.0 33.2 -7.8 34.25 L-4.95 33.4 Q-5.1 34.1 -5.75 34.5 L-6.7 35.15 Q-6.7 36.3 -6.25 36.75 -5.8 37.35 -4.6 37.4 -3.2 37.55 -1.3 38.2 L1.9 39.45 2.95 40.45 Q3.85 41.0 4.15 41.35 2.65 41.35 1.05 40.35 L0.25 40.35 0.25 41.8 0.25 42.25 Q0.25 42.55 -0.15 42.5 -0.65 42.5 -0.65 41.75 L-1.95 40.35 Q-2.3 40.3 -3.55 40.9 L-5.25 40.8 Q-6.25 42.55 -3.95 42.65 -1.6 42.9 0.8 45.15 L-1.65 44.35 -4.45 44.1 Q-1.65 44.85 0.75 47.1 L4.65 51.1 3.95 51.2 3.4 50.95 2.05 50.25 Q1.25 49.7 0.8 51.1 0.75 51.65 0.0 50.9 L-1.05 50.2 -1.95 49.3 -4.7 48.1 -7.45 47.15 Q-7.75 47.85 -7.05 48.6 -6.25 49.35 -6.25 49.9 L-7.7 49.05 Q-8.6 48.35 -9.15 48.3 L-9.75 48.5 -10.4 48.4 -10.6 48.45 -10.75 48.45 Q-11.0 48.95 -10.7 49.3 L-10.0 49.7 -6.2 51.35 -3.2 52.2 Q-2.1 52.2 -0.8 52.8 L1.35 54.0 Q2.9 55.0 1.4 56.1 L2.25 56.5 Q3.75 57.05 4.25 57.7 2.7 57.85 1.55 56.85 L1.3 56.85 Q-0.15 56.15 -0.65 56.4 -1.3 56.75 -1.0 58.4 L-1.05 59.0 -0.5 58.8 0.7 58.8 Q1.4 58.85 1.45 59.45 1.65 60.5 -0.15 60.75 -1.9 61.9 0.25 62.4 L1.45 62.0 3.5 60.15 Q4.6 59.2 5.55 59.45 6.45 59.65 7.45 61.0 6.95 61.1 6.2 60.6 5.45 60.05 4.95 60.35 5.2 60.6 4.7 61.45 4.35 62.15 5.3 62.35 L9.1 63.55 13.1 64.55 11.9 65.0 10.85 65.0 10.5 65.35 Q10.15 65.6 10.7 65.85 L11.65 66.2 Q12.1 66.5 12.1 67.1 11.7 68.2 10.4 68.6 L8.2 69.1 7.15 69.55 Q6.65 69.85 6.6 70.5" fill="#743106" fill-rule="evenodd" stroke="none"/>
    <path d="M-5.85 36.95 Q-4.7 35.65 -3.3 35.8 -3.25 35.8 -1.0 36.55 L-5.85 36.95" fill="#20273a" fill-rule="evenodd" stroke="none"/>
    <path d="M16.9 37.5 L17.05 37.75 17.25 37.6 16.9 37.5 M80.25 41.5 L80.1 41.3 80.0 41.5 80.25 41.5 M117.15 -41.45 L117.35 -41.6 117.15 -41.65 117.15 -41.45 M90.55 -43.95 L90.55 -44.7 90.0 -44.0 90.55 -43.95 M90.2 -71.9 L90.2 -72.35 89.9 -72.05 90.2 -71.9 M36.75 -20.5 L36.6 -20.55 36.6 -20.5 36.7 -20.45 36.75 -20.5 M30.5 -70.75 L31.05 -71.05 30.3 -71.3 30.5 -70.75 M47.85 -68.8 L47.4 -69.1 47.1 -69.05 47.45 -68.8 47.85 -68.8 M52.35 -73.25 L52.85 -73.65 52.55 -73.85 52.35 -73.25 M53.8 -104.9 L53.75 -104.6 54.35 -104.55 53.8 -104.9 M29.95 -146.15 L30.1 -146.3 29.95 -146.35 29.95 -146.15 M115.4 -56.55 L115.55 -56.1 115.75 -56.15 115.4 -56.55 Q115.05 -59.3 115.05 -60.7 L115.2 -62.9 Q115.6 -63.85 117.15 -63.05 L118.85 -61.1 Q119.8 -60.45 120.35 -63.2 120.6 -64.5 122.1 -66.65 123.65 -68.65 123.85 -70.55 124.8 -68.9 124.6 -66.0 124.35 -63.05 125.15 -61.65 L132.75 -68.1 Q131.55 -66.0 132.65 -63.9 133.75 -61.75 133.6 -61.15 133.15 -59.8 131.2 -58.9 128.75 -57.75 128.15 -57.25 128.75 -56.25 130.2 -56.6 131.75 -57.0 132.35 -56.35 L132.5 -55.0 132.15 -54.5 128.2 -52.0 Q125.95 -50.4 124.8 -48.55 L124.65 -46.2 Q124.4 -44.95 123.75 -44.05 122.45 -42.15 124.7 -41.9 L128.15 -42.05 Q130.15 -42.25 131.35 -43.55 L128.05 -39.1 129.1 -36.15 129.7 -36.15 Q130.4 -38.35 131.75 -38.05 132.5 -37.9 134.15 -36.8 L135.4 -38.25 Q136.25 -39.2 137.5 -38.85 136.6 -37.1 134.8 -35.2 L131.85 -32.15 Q132.5 -31.05 133.9 -30.6 L136.1 -29.95 Q135.45 -27.35 132.65 -25.45 128.75 -22.85 127.85 -21.85 L133.4 -21.3 138.55 -21.8 141.4 -22.5 Q142.7 -22.55 142.9 -19.9 L143.35 -19.7 144.1 -19.55 145.7 -19.4 Q147.9 -18.9 150.75 -20.5 154.55 -22.5 155.6 -22.75 154.0 -20.3 149.85 -17.75 L148.25 -16.65 Q149.2 -13.85 148.05 -13.0 L144.9 -12.75 143.2 -12.8 142.85 -12.7 142.45 -12.7 Q142.1 -12.35 141.2 -11.75 140.55 -11.1 140.85 -9.95 141.8 -6.25 140.3 -5.5 139.2 -4.9 136.35 -5.85 L132.35 -5.0 Q131.3 -4.5 130.45 -2.8 L128.9 -0.15 Q129.1 0.45 130.2 0.6 131.3 0.65 131.35 1.65 L130.8 3.25 Q130.65 4.2 131.5 4.8 L133.95 3.25 133.9 4.05 134.15 3.95 133.95 3.25 Q135.6 -0.1 137.8 -1.7 138.45 -1.15 138.15 0.15 L137.9 1.1 142.4 1.25 Q145.2 1.95 146.7 0.15 147.3 -0.65 148.95 -0.5 144.25 4.25 140.55 5.45 L140.0 5.8 Q140.75 6.65 142.4 6.55 144.4 6.5 145.35 7.05 L142.25 9.0 Q140.55 9.75 138.95 9.4 134.7 9.55 133.1 12.4 133.05 14.6 133.7 16.3 134.4 18.1 137.3 22.9 134.25 20.85 133.25 20.7 131.2 20.3 130.05 23.25 L129.35 23.25 128.1 23.0 122.35 25.25 Q124.8 26.05 124.2 28.25 123.5 31.0 123.95 31.7 127.25 30.55 130.1 32.45 129.1 33.95 127.25 34.0 125.25 33.75 124.3 34.0 L122.2 34.7 Q122.3 36.1 122.0 36.85 121.55 37.75 120.1 38.0 L121.6 39.2 Q123.35 40.25 124.0 41.1 125.0 42.45 124.55 44.25 123.7 47.4 119.85 48.4 L110.35 50.0 100.8 51.0 90.35 51.75 79.85 52.15 Q49.7 53.8 10.7 52.95 -5.8 52.65 -17.3 52.15 L-45.35 50.1 -55.25 48.25 Q-58.75 47.45 -59.15 43.75 -59.35 41.9 -58.15 40.65 -57.55 40.0 -55.6 38.95 L-53.05 38.0 Q-51.55 37.55 -50.7 36.55 -54.65 34.8 -56.65 34.05 -60.15 32.7 -62.9 32.65 -64.6 32.55 -65.3 32.1 -66.65 31.35 -66.05 29.1 -67.0 28.2 -68.8 27.55 L-71.75 26.35 Q-65.4 25.55 -60.75 26.85 L-56.85 26.05 -56.15 25.9 Q-55.65 25.8 -55.9 24.75 -56.3 22.95 -55.55 22.4 -54.85 21.95 -53.35 23.05 L-51.7 22.05 Q-51.2 21.35 -50.05 21.35 L-48.3 21.15 -48.15 17.05 -48.3 15.3 Q-47.95 12.8 -49.7 12.35 L-52.55 11.5 Q-54.5 10.9 -56.55 12.55 L-56.95 14.6 Q-57.4 15.65 -58.2 15.65 -59.25 15.6 -59.4 12.6 -60.8 12.55 -63.3 10.0 -65.55 7.75 -67.6 8.25 -66.8 6.75 -65.25 6.75 L-62.8 6.7 -61.45 6.35 Q-60.75 6.0 -60.8 5.0 -60.85 4.05 -61.6 3.55 L-63.0 3.3 -68.45 2.95 -73.7 1.0 Q-73.0 -0.15 -71.6 0.15 L-69.5 0.55 -68.2 0.15 Q-67.8 -0.2 -68.45 -1.35 L-76.75 -5.15 -70.05 -5.35 Q-66.3 -5.05 -64.05 -2.25 L-63.4 -2.05 Q-58.6 -4.35 -54.95 -3.95 L-52.95 -4.5 Q-51.75 -4.85 -52.2 -5.65 -52.95 -7.05 -54.2 -8.15 -55.55 -9.3 -57.1 -9.6 L-61.65 -10.05 Q-62.75 -9.9 -64.2 -10.45 L-66.9 -11.45 Q-65.9 -13.05 -63.4 -12.8 -61.0 -12.5 -60.15 -13.65 L-61.0 -14.6 -64.55 -16.35 Q-66.65 -17.4 -67.9 -18.9 L-64.85 -19.0 -61.95 -18.65 Q-61.65 -19.25 -62.45 -20.0 -63.35 -20.8 -62.9 -21.8 -58.75 -19.85 -57.4 -16.75 -56.2 -15.25 -53.95 -15.15 L-50.25 -15.0 -47.75 -14.65 Q-46.15 -14.6 -45.4 -14.1 -43.3 -12.8 -42.9 -13.65 -42.65 -14.2 -43.1 -16.45 L-42.15 -16.3 Q-41.3 -13.3 -38.95 -11.35 L-33.7 -7.5 Q-30.6 -4.95 -27.15 -6.55 -22.7 -8.6 -21.5 -8.35 -22.65 -8.95 -30.4 -14.65 -35.65 -18.5 -39.9 -18.95 -39.5 -20.7 -38.35 -21.15 -37.1 -21.3 -36.65 -21.6 -35.7 -22.55 -34.1 -22.5 L-31.45 -22.4 Q-28.0 -22.75 -30.5 -25.45 L-32.9 -25.75 Q-34.4 -26.05 -34.35 -28.3 -34.3 -28.65 -35.6 -29.25 L-37.75 -30.2 -36.25 -30.35 Q-35.15 -30.1 -35.05 -31.1 -34.95 -32.25 -35.75 -32.6 L-37.4 -32.9 -39.9 -33.05 Q-44.3 -31.05 -49.9 -34.65 -49.35 -35.75 -47.3 -36.2 -45.35 -36.6 -44.85 -37.85 L-44.1 -39.95 Q-45.75 -41.5 -48.1 -42.0 L-52.6 -42.25 -55.0 -42.6 -57.85 -43.3 Q-56.6 -44.35 -54.8 -44.5 L-51.45 -44.7 Q-53.2 -47.0 -56.75 -48.45 -61.2 -50.35 -62.25 -51.05 L-58.5 -51.0 -54.65 -51.15 Q-51.95 -51.85 -51.7 -52.25 -51.3 -53.0 -52.4 -56.1 -51.55 -55.6 -48.35 -52.55 -46.05 -50.4 -43.9 -50.1 L-42.5 -49.85 Q-41.95 -49.85 -41.2 -50.75 -40.35 -51.65 -38.95 -50.75 -37.1 -49.7 -36.55 -49.75 -34.85 -47.3 -31.85 -46.9 L-26.6 -46.6 -23.25 -47.75 Q-21.15 -48.3 -20.65 -50.4 -21.35 -51.15 -20.95 -51.7 L-20.05 -52.45 -19.15 -53.0 Q-18.8 -53.3 -19.9 -53.5 -21.7 -53.95 -21.4 -55.1 -20.75 -56.6 -20.75 -57.25 -21.4 -57.45 -22.75 -58.65 -23.95 -59.8 -24.9 -59.95 -22.45 -60.9 -20.7 -60.9 -18.55 -60.85 -16.75 -59.4 -15.6 -58.5 -14.85 -58.95 -14.05 -59.4 -13.95 -61.1 L-14.35 -61.0 Q-14.0 -64.2 -16.65 -66.5 -20.45 -69.7 -21.1 -71.0 -18.8 -70.6 -16.25 -68.5 L-12.2 -65.55 Q-10.4 -64.7 -10.0 -64.7 -9.0 -64.75 -8.85 -67.0 L-9.6 -69.45 Q-9.7 -70.9 -8.05 -71.5 -7.1 -71.85 -7.2 -72.95 L-7.3 -74.75 Q-11.1 -76.4 -13.35 -76.8 -16.8 -77.45 -19.45 -76.2 -21.85 -75.0 -22.9 -76.95 -23.6 -79.45 -24.25 -80.1 -25.25 -81.1 -24.05 -81.75 L-22.0 -82.4 Q-20.55 -82.75 -20.8 -83.75 -21.3 -84.95 -21.2 -85.5 -20.75 -87.8 -22.05 -87.5 -23.75 -87.15 -23.9 -87.5 -28.65 -86.85 -31.85 -88.15 L-30.25 -89.95 Q-29.25 -91.0 -30.55 -92.35 L-32.85 -94.9 Q-34.2 -96.3 -35.6 -96.85 -33.3 -97.1 -30.75 -95.95 L-26.35 -93.35 -25.0 -93.45 Q-24.7 -93.85 -24.65 -95.05 -24.55 -96.2 -25.55 -97.85 -26.65 -99.6 -26.7 -100.85 -24.9 -100.05 -23.3 -97.75 L-20.55 -94.15 Q-19.65 -94.45 -17.7 -93.4 -15.9 -92.4 -14.8 -93.2 -13.25 -94.3 -10.95 -93.15 -8.3 -91.85 -7.3 -92.05 -7.05 -93.05 -7.95 -93.6 -8.95 -94.1 -9.0 -94.65 -8.35 -95.4 -7.45 -95.3 L-5.9 -94.95 Q-4.9 -94.7 -4.5 -95.55 -4.1 -96.3 -4.7 -96.9 -7.15 -99.35 -5.9 -99.95 L-3.1 -100.6 -0.8 -101.15 Q-2.25 -102.6 -4.45 -103.1 L-8.0 -103.85 Q-9.9 -103.05 -10.7 -104.9 -11.85 -107.6 -12.2 -107.8 -10.8 -110.2 -12.25 -110.85 -14.25 -111.25 -14.7 -111.9 L-19.7 -113.85 Q-17.8 -114.6 -16.75 -114.55 -15.6 -114.5 -14.65 -113.6 -10.25 -111.7 -7.75 -117.25 -6.65 -117.55 -6.2 -119.05 L-5.45 -121.3 -5.7 -124.1 Q-6.7 -125.05 -6.5 -125.4 -6.35 -125.8 -4.15 -126.95 L-6.1 -129.1 Q-7.2 -130.4 -7.95 -132.0 -5.2 -131.2 -2.15 -128.0 1.45 -124.25 2.85 -123.45 L3.85 -125.2 5.05 -126.55 Q5.8 -126.95 6.25 -125.5 L6.65 -123.95 Q6.95 -123.3 7.85 -123.55 9.15 -123.9 10.35 -126.3 10.6 -127.0 10.4 -127.75 10.1 -128.45 9.4 -128.55 7.95 -128.8 8.1 -129.8 L8.6 -131.55 Q8.8 -133.2 9.75 -133.1 L11.35 -132.5 13.35 -131.9 15.6 -131.05 14.7 -135.8 Q13.1 -137.25 12.3 -139.65 11.8 -141.1 11.25 -144.2 L8.45 -146.3 Q6.85 -147.5 6.5 -149.4 L3.1 -153.05 Q4.95 -153.15 6.15 -152.35 7.15 -151.75 8.0 -150.4 L9.9 -149.0 Q11.0 -148.15 12.1 -148.75 12.05 -149.65 11.05 -150.4 9.95 -151.3 9.8 -151.95 L11.75 -152.0 Q13.05 -151.6 13.65 -152.4 13.35 -154.0 11.5 -155.95 9.3 -158.4 8.5 -160.05 11.55 -158.45 13.95 -155.65 L17.5 -150.55 Q18.85 -150.2 19.85 -151.9 21.15 -153.85 22.2 -154.15 L27.4 -153.85 32.45 -153.15 Q32.85 -153.45 33.2 -153.35 33.1 -153.95 33.3 -154.25 32.3 -154.95 32.55 -156.1 L33.15 -158.0 33.2 -158.1 32.0 -158.2 Q29.45 -158.5 27.25 -157.25 27.0 -158.1 28.65 -159.3 30.0 -160.35 28.55 -161.9 27.7 -161.8 27.15 -162.4 26.85 -162.65 26.3 -163.65 L24.15 -164.85 Q22.8 -165.8 21.55 -167.35 L29.2 -165.05 Q31.2 -165.55 30.6 -167.8 29.2 -167.65 28.6 -167.8 27.45 -168.0 27.4 -169.75 26.85 -171.5 25.0 -171.55 22.6 -171.65 21.95 -172.3 25.0 -174.4 23.6 -176.2 21.1 -178.2 19.95 -179.5 L23.4 -179.6 Q24.55 -180.1 25.75 -181.4 25.45 -182.55 24.05 -182.7 22.45 -182.75 22.1 -183.6 22.25 -184.5 23.7 -184.85 25.1 -185.3 25.4 -186.0 L25.5 -187.1 18.6 -194.25 Q20.8 -193.9 23.35 -191.7 26.75 -188.75 27.5 -188.35 L28.8 -187.35 29.45 -190.05 Q29.9 -191.55 30.85 -192.3 32.0 -191.3 31.35 -189.1 30.7 -186.85 31.55 -186.0 L32.85 -187.9 Q33.65 -188.95 34.85 -189.05 38.65 -189.4 36.2 -193.85 36.75 -194.25 38.05 -193.45 39.15 -192.8 39.85 -193.9 L33.3 -196.6 33.45 -197.2 35.55 -196.6 37.65 -196.5 Q38.75 -196.75 38.3 -197.2 37.5 -197.7 37.45 -198.0 L35.1 -200.45 32.2 -202.6 Q33.45 -203.2 35.05 -202.6 37.1 -201.8 37.75 -201.8 36.15 -206.5 32.6 -209.5 34.25 -209.6 35.9 -208.5 L38.7 -206.45 Q40.4 -205.3 40.65 -206.2 L40.65 -208.45 Q38.15 -210.5 37.55 -211.45 36.35 -213.45 37.25 -216.1 L35.95 -218.3 Q35.25 -219.6 37.15 -220.95 37.9 -221.55 38.2 -221.45 L38.65 -220.75 39.8 -217.2 Q40.15 -215.65 41.45 -216.2 L43.25 -216.05 Q44.95 -218.55 45.8 -223.15 46.85 -229.45 47.2 -230.6 48.8 -225.1 47.15 -219.65 L46.35 -217.05 Q46.15 -215.55 47.3 -214.5 L50.1 -220.15 51.0 -219.65 48.55 -212.85 48.3 -212.35 Q49.2 -211.0 48.85 -208.3 48.45 -205.4 48.95 -204.2 L47.65 -202.6 Q48.05 -202.15 49.45 -201.9 50.4 -201.4 48.9 -199.8 47.95 -198.75 49.15 -197.85 49.7 -197.9 51.4 -198.85 52.8 -199.65 54.05 -199.35 53.5 -198.0 52.15 -197.2 L49.9 -195.95 Q49.35 -195.55 49.7 -195.0 L50.1 -194.15 51.15 -193.65 50.75 -193.05 Q49.55 -191.1 50.9 -189.05 52.55 -186.5 52.45 -185.45 53.95 -186.0 55.0 -187.65 L56.6 -190.4 58.25 -193.0 59.85 -195.8 Q60.55 -194.8 58.95 -191.95 57.65 -189.6 60.35 -188.3 L58.35 -185.8 Q57.6 -184.2 59.15 -182.4 59.8 -179.9 58.7 -179.05 57.95 -178.5 55.8 -178.6 L55.3 -178.3 55.05 -176.55 Q56.25 -175.1 54.6 -174.7 L53.3 -174.5 Q52.5 -174.35 52.3 -173.5 51.85 -171.55 52.45 -171.15 52.95 -170.8 54.6 -171.4 55.6 -171.75 57.6 -172.85 L61.2 -172.7 55.75 -167.85 Q55.65 -166.95 56.95 -164.6 57.55 -162.7 54.3 -162.8 L54.3 -162.9 54.0 -161.0 57.85 -160.35 61.65 -160.1 64.65 -160.6 Q66.4 -160.75 66.65 -163.05 69.45 -162.05 71.0 -164.05 L73.1 -168.55 74.4 -171.9 Q75.3 -174.0 77.25 -175.25 L74.6 -168.95 Q73.15 -165.65 72.45 -163.45 72.2 -162.6 71.0 -161.0 70.2 -159.5 71.0 -158.05 L77.85 -160.0 Q77.0 -158.45 75.8 -157.6 L73.85 -156.5 72.0 -155.9 Q71.05 -155.45 71.4 -153.35 71.65 -152.15 70.1 -152.4 68.3 -152.85 67.95 -151.85 67.6 -150.9 68.75 -150.45 70.0 -150.0 69.7 -148.95 68.95 -148.7 68.0 -149.3 L66.4 -150.25 Q65.75 -148.7 66.3 -147.3 66.6 -146.35 67.7 -144.85 69.55 -145.65 72.9 -149.1 76.1 -152.5 78.65 -153.25 L74.9 -149.0 Q72.7 -146.5 71.65 -144.4 75.1 -143.1 77.85 -143.55 73.3 -140.75 69.4 -140.6 69.7 -137.75 71.4 -138.5 73.85 -139.5 74.5 -138.9 72.6 -138.15 71.35 -135.9 L69.35 -131.9 69.35 -129.9 Q69.3 -128.75 68.6 -128.1 68.45 -124.1 71.7 -124.3 72.0 -126.9 75.1 -128.15 L75.15 -130.15 Q75.2 -131.35 75.5 -131.65 76.15 -132.15 77.0 -131.2 78.0 -130.1 78.5 -130.1 L80.95 -136.2 Q82.25 -139.85 82.1 -143.25 L82.85 -139.05 Q83.2 -136.85 84.4 -135.8 85.6 -134.7 86.0 -134.6 86.9 -134.3 87.65 -135.8 88.95 -138.5 91.2 -139.65 L93.15 -143.35 Q94.45 -145.45 96.3 -146.55 95.7 -144.35 94.4 -142.15 L92.1 -138.55 92.05 -138.05 Q89.75 -134.7 90.0 -134.0 90.2 -133.3 93.8 -132.5 93.7 -130.6 92.15 -129.6 90.35 -128.75 89.5 -128.15 L89.25 -127.2 Q89.35 -126.65 89.75 -126.15 91.05 -124.55 90.5 -122.4 90.05 -120.3 88.25 -120.2 87.1 -120.15 86.1 -117.9 85.15 -115.9 83.65 -116.4 L83.5 -114.5 Q84.95 -113.7 87.25 -115.45 89.7 -117.15 91.3 -116.6 90.5 -114.9 88.55 -113.05 L85.5 -110.05 Q86.95 -108.9 88.45 -108.95 89.7 -109.05 91.35 -110.05 92.7 -110.95 92.85 -110.35 93.0 -109.9 92.3 -108.6 L89.5 -99.7 Q90.5 -99.0 91.7 -99.25 L93.7 -99.8 94.95 -99.95 Q95.65 -99.9 95.85 -99.05 95.95 -98.25 95.4 -97.75 L94.25 -97.25 91.15 -96.05 Q88.3 -94.55 85.45 -93.1 85.2 -91.5 86.9 -91.25 L90.35 -91.15 Q92.3 -90.85 92.8 -88.4 96.2 -90.7 99.25 -91.0 99.35 -89.9 98.5 -88.9 97.5 -87.8 97.35 -87.0 98.3 -86.25 99.55 -86.25 L101.9 -86.65 102.85 -87.5 Q103.9 -90.4 106.85 -90.4 L111.6 -90.7 112.15 -88.9 118.7 -92.2 Q118.1 -90.15 116.35 -89.1 L113.8 -87.5 110.3 -85.7 108.65 -84.55 Q109.75 -83.65 111.85 -83.95 L115.7 -84.1 Q112.9 -82.25 109.6 -81.5 L103.7 -80.7 Q100.35 -73.65 105.1 -70.4 L98.4 -69.35 92.0 -68.95 90.35 -68.95 89.15 -66.65 Q88.7 -65.25 89.4 -64.45 90.5 -63.1 92.15 -62.75 L95.4 -63.05 96.85 -63.45 Q98.5 -67.65 102.8 -67.95 L108.95 -68.45 Q112.35 -69.0 114.95 -70.4 L112.95 -68.6 Q111.8 -67.5 110.9 -67.05 109.0 -66.05 109.45 -65.15 L111.05 -63.8 Q110.2 -62.75 107.4 -61.25 105.55 -59.6 107.95 -56.35 109.3 -58.4 111.65 -57.35 114.45 -56.05 115.4 -56.55" fill="#743106" fill-rule="evenodd" stroke="none"/>
    <path d="M233.15 135.1 L235.55 133.6 238.1 133.65 241.35 133.5 244.4 131.8 Q245.65 131.4 246.0 128.35 246.3 125.35 245.35 123.7 241.6 123.8 241.05 123.15 240.6 122.45 241.15 118.25 238.75 115.1 238.85 114.15 238.95 113.2 241.65 111.05 L242.25 109.9 Q242.6 109.4 245.2 107.6 247.1 106.35 247.25 103.7 L248.25 103.9 251.3 105.3 Q253.05 106.15 253.95 107.65 L254.7 108.55 Q257.25 106.15 259.55 108.9 L260.65 107.75 Q261.2 106.95 260.4 105.95 259.65 105.05 259.35 103.25 L258.8 100.35 Q255.4 98.05 254.1 94.5 L261.1 97.05 Q261.75 96.5 262.85 97.7 263.9 98.75 264.65 98.1 264.5 96.4 264.05 95.9 263.1 95.4 263.2 94.6 263.25 93.95 264.0 93.45 L266.0 92.35 Q267.05 91.65 266.7 89.8 266.4 88.3 265.15 88.45 L263.1 88.7 262.4 88.65 260.55 88.75 Q259.5 88.65 258.9 87.5 256.0 86.55 254.45 87.15 L253.4 87.05 Q252.75 86.7 253.15 85.95 254.1 83.8 253.05 83.35 L251.5 82.45 244.15 80.95 Q239.75 79.65 236.9 75.95 L243.95 77.05 251.8 72.75 251.1 71.7 Q249.05 71.5 249.2 69.05 249.5 65.6 249.2 65.15 250.1 64.2 251.05 64.85 L252.5 66.25 Q253.9 66.7 256.3 65.2 258.7 63.65 260.3 64.1 L257.15 59.95 Q255.25 57.7 254.8 55.25 258.7 55.9 259.65 56.4 262.15 57.55 263.25 61.0 264.75 64.2 265.15 64.5 265.6 64.75 266.5 63.3 265.6 60.45 267.1 59.15 L269.5 56.9 Q266.9 55.95 265.6 53.2 264.45 50.75 264.1 46.4 L268.1 50.85 Q270.5 52.95 272.85 52.15 L273.8 52.35 Q274.4 52.85 274.45 53.8 L277.3 54.85 278.6 54.5 Q279.3 54.2 279.5 52.95 279.95 50.0 282.25 50.4 283.3 50.35 284.3 47.75 285.25 45.2 286.55 45.25 L289.4 44.8 289.4 44.6 286.5 42.0 Q285.0 40.95 283.6 41.35 280.6 42.15 277.5 40.25 278.0 39.15 278.7 39.05 L279.9 39.15 281.25 39.15 Q282.0 39.15 282.4 38.25 278.95 35.7 277.4 36.2 275.8 36.6 273.0 40.85 272.5 42.1 271.7 42.1 270.95 42.1 270.85 41.1 270.4 38.15 269.1 37.85 L266.45 38.35 Q265.3 38.65 264.3 37.9 263.15 37.0 263.5 35.45 264.3 32.15 263.05 30.6 L260.25 28.4 257.4 28.3 Q253.7 30.75 249.8 27.5 L254.95 25.25 Q257.9 24.2 260.25 25.2 L262.45 23.1 Q261.3 20.85 262.5 18.65 261.5 17.25 262.15 16.1 L263.4 14.3 Q263.85 13.25 264.55 13.3 265.35 13.45 265.95 14.6 L267.15 15.75 268.35 16.4 272.35 15.75 Q274.85 15.15 276.5 16.15 276.8 16.3 276.65 15.3 L276.35 13.6 275.85 12.4 Q275.75 9.65 273.8 8.5 271.25 7.0 270.85 6.3 269.4 5.55 268.7 3.25 L267.6 -0.8 Q268.9 -1.8 269.95 -0.15 271.35 2.0 271.85 2.15 L272.15 2.45 272.35 2.85 Q273.55 3.4 275.05 5.15 L277.5 7.95 Q278.45 7.5 279.0 5.7 279.75 3.4 280.05 2.9 281.1 1.5 281.7 1.1 282.7 0.35 283.25 1.5 284.0 3.05 285.6 3.6 287.6 4.45 288.1 4.85 L289.2 5.75 Q289.8 6.1 290.25 5.4 290.8 4.6 290.4 3.75 L289.55 2.4 287.95 -0.4 287.4 -0.85 Q285.55 -1.8 285.2 -2.4 284.9 -3.0 284.8 -5.5 L283.9 -6.9 282.65 -7.6 Q281.85 -7.95 281.55 -8.8 280.6 -11.15 278.65 -11.8 L276.75 -11.8 Q275.55 -11.85 274.85 -11.35 L273.75 -10.1 Q273.0 -9.5 272.5 -10.45 272.15 -11.05 272.75 -12.1 273.4 -13.2 273.0 -13.85 L266.65 -13.85 263.9 -11.15 Q262.25 -9.9 260.9 -13.75 260.65 -14.4 258.9 -14.45 L255.3 -14.65 Q259.9 -18.4 261.5 -19.0 264.7 -20.25 267.45 -17.35 L268.0 -17.35 Q268.6 -18.3 269.9 -18.3 271.45 -18.3 271.95 -18.85 271.5 -20.25 270.25 -20.95 268.85 -21.5 268.2 -22.0 267.05 -22.9 267.25 -23.95 267.35 -24.6 267.8 -24.8 L268.7 -24.85 Q270.15 -25.0 270.9 -23.75 272.55 -25.1 275.1 -24.9 L279.3 -24.5 Q282.95 -27.6 280.9 -32.15 L280.1 -33.15 Q277.7 -33.2 277.3 -36.85 276.75 -41.3 275.45 -42.3 276.9 -42.35 277.85 -41.4 L279.05 -39.45 Q279.8 -38.1 280.95 -39.55 281.9 -40.95 282.1 -40.0 282.85 -37.2 284.4 -37.1 L287.2 -37.4 288.2 -38.4 289.35 -38.45 Q289.85 -41.35 290.8 -42.35 291.85 -43.55 293.8 -42.6 L296.0 -42.35 Q297.5 -42.4 298.3 -41.8 298.95 -41.3 299.45 -41.9 299.85 -42.4 299.85 -43.65 L297.05 -45.65 Q295.1 -45.4 294.15 -46.2 293.0 -47.15 292.8 -49.95 290.75 -51.15 290.05 -53.2 289.5 -53.4 289.15 -54.05 L288.6 -55.3 288.05 -55.95 288.45 -55.5 Q288.05 -55.9 285.35 -54.15 283.35 -52.85 282.85 -57.1 L281.85 -56.95 278.0 -57.4 275.25 -56.05 Q273.6 -55.4 272.3 -56.25 L269.3 -56.65 Q267.4 -56.8 266.25 -58.35 267.45 -59.5 269.95 -59.4 272.5 -59.4 273.5 -60.35 273.3 -61.1 272.1 -62.1 271.05 -62.95 271.15 -64.55 272.35 -64.5 275.25 -62.45 277.95 -60.55 279.75 -60.9 L278.35 -63.15 Q277.55 -64.4 276.85 -64.75 275.1 -65.55 275.45 -67.15 275.6 -68.25 276.35 -68.15 L277.5 -67.8 282.65 -66.4 284.3 -65.8 Q285.25 -65.7 285.8 -67.0 L283.4 -68.0 Q281.95 -68.65 280.95 -69.95 L283.65 -70.2 Q285.0 -70.25 285.8 -71.65 286.5 -72.95 287.6 -72.8 288.55 -72.6 289.55 -71.4 L292.15 -69.05 Q295.55 -70.05 292.85 -73.35 L287.95 -79.8 Q286.95 -79.75 286.35 -81.1 L285.3 -83.35 Q284.55 -84.1 284.3 -84.6 283.75 -85.55 284.35 -86.6 L285.3 -88.6 Q285.95 -89.55 286.95 -89.25 L288.15 -89.2 289.4 -89.25 290.8 -92.55 Q291.8 -94.65 290.4 -96.65 290.2 -97.0 290.7 -97.35 291.2 -97.75 291.7 -97.75 293.9 -97.75 295.05 -95.6 299.6 -96.6 302.05 -91.35 L302.45 -90.85 302.9 -90.45 Q303.5 -91.1 303.8 -92.35 L304.2 -94.5 303.5 -95.45 300.85 -97.9 Q299.45 -99.5 299.2 -101.85 297.7 -103.6 294.9 -103.75 291.45 -103.85 290.4 -104.45 290.55 -105.5 291.75 -106.0 292.8 -106.4 292.7 -107.4 292.5 -108.7 291.55 -109.1 L289.8 -109.6 Q287.55 -110.4 286.75 -110.3 284.2 -110.0 281.9 -112.35 L278.0 -117.25 291.45 -113.05 Q292.0 -113.6 291.8 -114.35 L291.5 -115.75 291.45 -115.75 289.8 -116.4 Q288.8 -116.75 288.2 -117.25 285.05 -120.0 285.55 -122.05 285.95 -123.55 287.15 -122.8 288.9 -121.7 289.15 -121.7 289.7 -121.65 290.8 -121.0 291.65 -120.3 293.5 -119.5 295.1 -118.65 295.7 -116.7 297.4 -117.4 296.7 -119.05 295.9 -121.05 296.55 -124.35 295.35 -125.05 295.4 -126.7 L295.75 -129.6 291.65 -129.45 Q289.2 -129.55 287.4 -130.85 288.05 -131.75 288.8 -131.9 L290.0 -131.85 291.35 -132.8 Q293.5 -135.1 296.55 -134.5 298.25 -134.25 301.8 -132.75 L300.55 -134.7 299.75 -135.4 Q299.25 -135.9 299.45 -136.9 L303.35 -136.9 Q305.6 -137.05 304.1 -139.95 300.1 -139.5 298.65 -144.4 297.65 -150.7 296.6 -153.45 300.9 -152.65 303.0 -148.7 L303.5 -148.5 Q305.05 -148.8 305.0 -150.7 L304.05 -151.9 Q303.7 -152.65 304.45 -153.35 305.3 -154.1 304.85 -154.85 304.35 -155.9 304.4 -156.1 303.85 -157.75 302.2 -158.8 300.15 -160.1 299.55 -160.85 L307.15 -162.0 Q311.55 -162.75 314.6 -164.25 L316.4 -163.9 Q317.45 -163.85 316.9 -166.45 316.35 -166.25 315.8 -166.65 L314.9 -167.6 Q313.0 -167.95 310.85 -169.6 L307.05 -172.85 Q306.25 -172.65 305.2 -173.35 L303.5 -174.6 302.15 -175.45 Q301.5 -176.2 301.75 -177.25 302.05 -178.5 302.9 -178.35 L304.4 -177.7 305.7 -177.05 305.75 -177.05 Q306.3 -177.7 306.35 -179.6 L306.5 -181.1 Q307.45 -180.45 309.65 -180.8 311.65 -181.15 312.65 -180.2 L312.75 -180.3 Q314.5 -179.95 316.25 -181.0 317.45 -181.8 319.3 -183.75 318.5 -184.0 317.4 -186.7 316.4 -189.1 314.9 -188.65 313.0 -188.05 311.25 -189.3 310.05 -190.1 308.3 -192.35 308.75 -193.35 311.5 -192.6 313.65 -191.95 313.6 -196.4 315.4 -195.65 318.65 -192.4 321.7 -190.1 324.35 -192.6 L325.35 -191.7 Q326.15 -190.85 326.65 -191.85 327.6 -193.85 326.1 -197.15 L319.35 -201.65 Q315.2 -204.5 312.45 -207.65 318.15 -207.85 321.25 -205.7 L324.45 -205.25 Q326.1 -205.55 327.05 -207.95 L326.25 -209.3 325.6 -210.85 325.15 -212.15 Q324.85 -213.05 325.3 -213.65 325.85 -214.3 326.45 -213.85 L327.45 -212.95 329.15 -210.15 Q330.2 -208.55 331.2 -209.4 332.05 -210.1 332.0 -212.35 L331.8 -216.25 331.8 -218.3 327.05 -225.0 326.65 -226.65 Q330.4 -224.15 331.5 -226.45 332.1 -227.7 332.1 -232.55 L332.1 -233.1 Q332.35 -234.9 333.0 -235.1 333.45 -235.2 333.75 -234.6 L334.1 -233.5 Q336.9 -227.15 334.25 -219.35 L334.15 -217.25 334.0 -213.4 Q333.95 -211.15 334.95 -210.55 335.7 -210.15 336.4 -211.85 L337.6 -214.9 338.3 -216.0 Q338.85 -216.45 339.3 -216.0 339.75 -215.45 339.6 -214.65 L339.2 -213.15 337.95 -209.85 Q337.25 -207.85 337.05 -206.15 338.0 -205.85 339.9 -206.8 341.55 -207.65 342.5 -207.1 344.3 -210.35 345.8 -211.85 347.8 -213.85 350.25 -213.95 348.25 -206.0 344.05 -203.2 342.15 -201.8 342.6 -199.45 L343.25 -197.85 Q343.45 -197.25 342.7 -196.05 342.05 -195.0 342.8 -194.2 343.55 -193.3 344.55 -193.7 345.1 -193.95 346.25 -194.95 L346.95 -196.15 347.0 -196.7 Q348.1 -199.55 348.85 -200.3 350.05 -201.6 351.95 -200.0 352.25 -199.75 353.45 -201.05 L354.9 -201.1 Q355.45 -199.8 354.3 -198.85 352.95 -197.75 352.9 -197.15 352.85 -196.3 351.85 -192.8 351.05 -190.1 351.55 -188.15 352.3 -188.35 353.75 -190.25 355.05 -191.9 356.55 -191.75 355.15 -190.4 355.45 -186.0 355.6 -182.1 353.2 -181.1 354.55 -179.8 356.45 -180.35 L359.25 -180.9 Q359.6 -180.0 358.8 -178.7 358.0 -177.4 358.6 -175.9 359.65 -179.15 360.9 -178.35 L362.6 -175.75 Q363.95 -173.1 361.0 -172.0 359.75 -170.45 358.35 -170.7 358.75 -167.75 357.75 -165.9 356.9 -164.5 354.9 -163.45 L353.6 -162.75 Q352.85 -162.25 353.2 -161.9 355.15 -160.15 353.9 -159.05 352.3 -157.7 352.45 -157.25 L354.8 -157.35 356.55 -158.75 Q357.2 -158.35 356.65 -155.15 356.2 -152.8 358.85 -153.9 359.75 -156.6 361.85 -159.7 L365.6 -165.25 Q364.45 -156.15 359.65 -150.45 359.8 -149.1 360.05 -148.8 360.4 -148.45 361.1 -149.55 362.2 -151.0 363.8 -152.15 L366.65 -153.9 Q367.75 -155.3 370.0 -155.55 372.5 -155.85 373.45 -156.6 374.1 -157.1 374.0 -156.05 373.95 -154.95 373.45 -154.2 L372.35 -153.0 Q371.75 -152.25 372.15 -151.2 373.25 -148.7 372.4 -148.0 L370.4 -147.3 Q369.5 -145.85 367.25 -145.2 364.95 -144.55 364.05 -143.45 364.15 -142.55 365.15 -141.9 366.1 -141.25 366.0 -140.2 367.2 -137.05 367.7 -136.55 368.1 -135.95 369.55 -135.9 371.3 -135.95 374.7 -137.0 377.7 -137.55 379.85 -135.15 379.2 -134.1 378.2 -133.95 L376.6 -133.75 Q375.85 -132.7 373.4 -132.7 371.2 -132.75 370.4 -130.75 370.55 -128.5 369.35 -127.75 L367.2 -126.65 Q365.5 -125.35 363.85 -119.85 362.2 -114.25 362.9 -111.7 362.95 -111.4 363.85 -111.3 L365.45 -112.55 368.05 -114.8 Q369.65 -116.15 370.3 -117.8 370.1 -118.35 370.4 -118.8 L370.95 -119.1 Q374.7 -120.95 378.05 -126.55 378.55 -125.0 378.0 -123.3 377.5 -121.5 377.7 -120.7 L381.1 -123.2 382.6 -124.3 Q383.45 -124.75 383.9 -123.7 384.4 -122.55 383.7 -121.7 L382.25 -120.4 381.45 -119.4 380.6 -118.5 Q380.15 -117.9 380.25 -117.1 380.4 -116.05 381.15 -115.9 L382.35 -115.75 Q383.9 -115.9 383.9 -115.25 383.75 -111.7 385.2 -111.5 386.05 -111.3 387.95 -111.95 L389.3 -112.25 Q390.0 -112.25 390.35 -111.1 389.5 -109.6 388.05 -108.8 387.25 -108.35 385.4 -107.8 L382.75 -107.0 Q381.25 -106.4 380.0 -105.35 378.85 -104.35 376.65 -100.6 374.8 -97.4 373.1 -96.65 L369.55 -93.5 367.5 -89.55 Q366.2 -87.55 364.6 -87.0 L363.6 -85.85 Q362.85 -85.2 362.7 -84.0 L366.65 -84.0 369.55 -83.95 Q371.45 -83.35 372.4 -84.95 L375.85 -90.15 376.7 -91.7 Q377.3 -92.5 377.55 -91.8 377.9 -90.9 379.2 -90.05 380.2 -89.3 380.1 -88.65 379.35 -85.0 380.85 -84.35 L383.75 -83.95 386.95 -81.0 Q388.85 -79.45 390.8 -81.3 391.3 -81.8 391.35 -80.6 391.35 -79.4 391.0 -78.7 389.95 -76.6 388.0 -76.5 L387.35 -75.3 388.05 -74.3 Q389.6 -75.2 391.55 -74.9 L394.8 -73.9 Q394.85 -72.9 393.9 -71.9 393.1 -71.0 393.5 -69.9 394.7 -66.95 396.65 -67.3 398.2 -67.6 398.3 -66.05 398.3 -65.15 397.75 -64.9 L396.7 -64.75 Q390.3 -60.45 382.4 -60.45 381.95 -59.55 381.05 -59.15 L379.5 -58.55 Q379.6 -55.5 378.15 -54.8 L375.35 -54.15 Q375.75 -52.7 375.1 -49.85 374.7 -47.9 375.3 -46.8 375.9 -45.6 377.35 -45.8 L378.8 -44.75 383.25 -49.25 Q386.1 -52.35 388.4 -53.1 L387.7 -51.15 Q385.8 -47.8 385.8 -45.8 385.8 -43.2 388.85 -41.75 L392.2 -41.65 Q393.55 -43.6 394.7 -42.45 395.35 -41.8 395.45 -40.5 395.5 -39.45 395.15 -38.4 L394.8 -36.85 Q394.9 -36.4 395.8 -36.4 396.35 -37.15 397.5 -37.1 398.8 -37.05 399.3 -37.5 400.25 -38.9 401.55 -38.05 403.35 -36.85 403.7 -36.85 L403.9 -35.6 Q403.25 -34.3 402.1 -34.15 L400.05 -34.2 Q397.3 -32.05 393.85 -31.9 L389.95 -29.6 Q387.65 -28.0 386.35 -25.2 L391.25 -25.35 395.8 -25.05 399.35 -25.5 Q401.4 -25.45 401.65 -23.4 401.9 -21.2 399.95 -20.55 L396.7 -19.25 Q396.65 -17.6 395.45 -17.1 393.5 -16.25 390.65 -15.8 L385.8 -15.3 385.6 -15.0 385.3 -15.0 Q384.1 -14.1 382.75 -14.15 381.7 -14.3 380.2 -15.0 377.5 -16.3 374.65 -15.0 373.4 -14.4 372.9 -13.1 372.25 -11.6 372.8 -9.85 373.35 -8.2 374.25 -7.9 375.2 -7.6 376.3 -8.9 378.0 -10.95 380.15 -10.95 380.65 -11.4 382.1 -10.7 383.25 -10.1 384.05 -11.15 384.85 -12.35 385.7 -12.65 386.8 -13.05 387.35 -11.75 387.75 -10.85 387.0 -9.75 L385.7 -7.8 Q385.95 -4.4 384.1 -2.4 L380.85 0.7 Q381.2 2.6 381.9 2.95 382.6 3.3 383.55 1.9 384.15 1.1 385.15 -1.4 386.0 -2.55 386.35 2.4 386.4 3.5 388.55 3.05 L392.9 1.8 Q394.4 1.25 396.0 -1.45 397.75 -4.55 398.65 -5.25 399.6 -0.1 398.05 3.95 396.85 7.0 393.8 10.35 394.7 12.15 396.85 12.35 399.35 12.6 400.1 13.5 L401.7 16.1 Q402.65 17.45 403.95 16.45 405.25 15.45 407.1 15.0 L410.35 14.5 Q410.75 14.45 411.65 13.8 412.4 13.5 412.6 14.9 412.7 16.1 412.3 16.95 411.75 18.0 410.7 17.7 L410.1 17.85 Q409.55 18.4 406.9 19.5 404.9 20.35 404.05 22.25 404.3 22.8 405.45 22.6 406.45 22.4 406.45 24.05 409.2 22.6 412.7 23.55 L418.8 25.95 416.6 27.3 414.25 27.2 412.65 27.3 Q411.65 27.3 411.2 28.15 409.2 32.05 405.65 32.65 L399.35 32.55 399.05 32.75 398.75 32.7 Q395.6 32.7 393.25 35.75 391.8 37.65 389.55 42.65 388.65 44.6 389.55 46.3 389.95 47.05 390.35 46.4 L391.05 45.4 392.65 44.45 394.15 42.9 Q394.8 41.95 395.2 42.55 395.5 42.9 395.8 44.15 L399.6 44.9 Q401.7 44.85 403.0 42.45 403.8 41.0 404.7 41.3 L406.45 42.2 407.95 40.55 Q408.9 39.85 410.05 40.7 409.0 41.9 408.55 44.4 L407.8 48.4 Q407.75 50.1 408.85 49.75 410.05 49.35 410.15 50.2 410.15 51.25 409.15 52.15 408.2 53.0 408.25 54.1 L409.8 54.25 Q410.75 53.85 411.3 54.85 L409.85 57.1 Q408.85 58.45 409.2 60.1 409.85 62.55 411.2 62.0 413.45 61.1 413.55 61.1 415.05 59.05 418.6 58.05 422.4 56.95 423.85 55.4 L423.5 57.05 Q423.2 57.8 423.25 57.9 425.0 61.3 423.45 62.25 421.25 62.8 420.75 63.6 L419.45 64.75 417.9 65.6 Q417.55 66.45 416.9 66.55 L415.7 66.55 415.0 67.35 Q414.45 67.8 414.95 68.65 L416.35 68.55 416.6 68.45 Q418.9 67.3 420.1 67.3 422.05 67.3 423.55 69.45 423.15 69.95 421.3 70.5 420.05 70.85 419.9 72.75 426.15 72.2 430.4 75.15 429.4 76.6 428.0 76.85 L425.6 76.95 405.5 77.25 Q403.35 77.35 402.1 76.0 L401.0 76.1 Q400.25 76.0 399.9 76.7 L401.65 77.95 Q402.0 79.7 400.55 80.8 399.0 81.95 399.05 83.55 L404.95 82.55 Q408.4 82.15 410.7 84.4 411.45 83.4 412.05 83.35 412.8 83.25 413.25 84.5 413.65 85.7 413.0 86.35 L411.8 87.2 410.1 88.8 Q411.2 90.3 411.35 90.95 411.6 92.05 410.0 92.9 409.9 93.85 410.2 94.25 L411.1 94.85 Q411.95 95.0 412.0 95.65 412.1 96.3 411.45 97.2 L410.75 99.4 410.95 101.5 Q411.1 102.6 412.3 101.0 412.9 100.3 413.6 100.15 L414.95 100.3 416.3 99.2 419.85 96.8 Q421.95 95.3 422.8 93.0 L423.5 92.95 Q424.1 93.35 423.85 94.1 L423.7 98.1 Q423.65 100.6 422.15 101.4 423.5 102.75 423.7 103.3 424.0 104.4 422.2 105.35 420.6 106.3 421.05 108.1 421.3 109.3 423.8 110.2 426.25 111.1 427.0 110.25 L427.95 109.15 Q428.55 108.55 429.1 108.8 L431.2 108.65 433.3 107.15 Q434.55 106.15 435.05 107.65 435.45 108.9 434.15 109.95 432.35 111.45 432.15 112.0 432.0 112.2 432.0 112.7 L433.55 113.6 Q434.5 114.05 434.5 115.65 L430.55 117.25 429.9 118.4 Q430.3 120.85 431.7 120.55 L434.05 120.3 Q437.1 117.7 439.5 117.0 442.0 116.25 445.1 117.0 441.3 120.55 438.8 121.95 435.35 124.0 431.95 123.7 431.6 124.7 430.4 125.1 429.1 125.55 428.75 126.2 428.95 126.85 430.05 127.5 431.0 128.05 430.9 129.35 430.25 129.85 429.5 129.65 L428.1 129.05 Q420.1 125.85 413.9 128.35 L409.55 130.0 Q407.05 130.7 405.0 129.95 L400.75 130.05 400.05 131.15 Q399.5 131.7 399.7 132.45 399.9 133.2 400.45 133.3 L401.55 133.25 406.4 133.05 Q411.4 133.25 415.5 136.5 L408.85 138.2 Q405.1 138.8 402.2 137.25 L401.05 137.5 Q400.35 137.55 400.25 138.45 400.1 139.5 401.4 140.6 403.25 142.15 402.75 144.95 L401.85 149.45 Q401.7 151.15 400.65 151.65 399.7 152.05 398.45 151.35 397.55 151.0 396.75 151.7 394.7 153.4 392.55 152.75 390.9 152.2 388.7 150.1 L386.6 148.9 Q385.35 148.5 384.4 149.4 383.05 150.7 381.5 148.75 375.35 140.4 367.2 144.1 L364.95 144.0 Q364.35 143.2 364.45 140.45 364.05 139.1 362.85 138.65 361.35 138.05 361.0 137.4 359.5 136.75 356.9 136.9 354.05 137.15 352.85 136.85 350.0 136.05 351.3 139.35 352.5 139.45 352.25 140.8 L351.9 141.35 351.3 141.75 Q350.7 143.2 351.2 143.35 L352.3 143.4 356.05 144.3 Q358.15 145.05 359.0 147.8 L368.75 149.55 Q370.35 149.9 370.8 150.25 371.8 151.05 371.6 152.95 371.35 154.6 370.35 154.8 L368.25 154.8 363.95 154.9 Q361.45 155.35 360.3 158.4 L360.25 158.6 Q358.35 160.2 356.0 159.5 L351.85 157.5 350.95 157.5 Q350.4 157.55 350.25 157.85 350.0 158.35 350.3 158.9 L350.95 159.7 352.45 161.85 Q352.6 163.05 351.65 163.35 350.6 163.1 349.55 161.6 L347.7 159.2 347.25 158.6 346.1 158.6 346.0 159.25 Q344.7 162.6 343.0 162.2 342.25 162.05 340.0 159.9 340.8 161.9 339.95 163.8 L339.0 164.85 Q337.4 166.4 335.7 164.25 333.65 161.8 332.75 161.9 331.95 161.4 331.95 159.65 331.05 157.55 331.15 156.4 328.95 157.75 327.8 159.95 L326.95 160.6 Q325.95 158.05 324.55 158.05 323.6 158.05 321.7 159.3 L321.2 160.1 Q320.05 160.85 319.25 159.6 L318.6 159.6 318.35 159.95 Q317.5 160.5 317.05 159.6 L316.35 158.55 Q314.2 158.85 311.85 160.5 L307.8 163.9 Q306.95 165.5 305.7 164.9 305.1 164.8 304.85 163.55 304.7 162.25 304.4 162.2 299.65 161.0 303.65 155.75 L294.75 153.6 296.6 151.8 298.0 150.75 Q300.1 149.85 299.55 148.75 L298.0 146.8 298.0 144.85 Q298.8 143.6 298.55 143.1 298.35 142.7 297.3 142.8 L295.55 143.35 Q294.45 143.7 294.6 142.8 295.0 139.7 293.4 138.45 L290.75 136.4 289.1 137.15 286.5 137.75 Q285.35 138.5 286.35 141.8 286.75 143.05 286.1 143.55 285.45 144.05 284.65 143.0 L283.65 142.05 Q283.2 142.0 282.7 143.0 282.0 144.85 283.0 146.3 L284.4 148.65 285.35 150.25 Q285.85 151.25 285.5 152.2 285.0 153.45 284.3 153.0 L283.2 151.75 Q282.55 151.1 282.1 151.45 L281.3 152.65 Q279.75 155.0 278.1 151.8 276.4 148.5 274.95 150.35 L274.5 149.55 274.2 148.8 Q274.1 147.85 274.5 147.1 L275.4 145.8 279.9 138.75 275.2 138.35 Q272.75 138.35 270.9 139.45 269.7 140.85 267.8 140.85 L264.55 140.65 263.2 140.75 Q262.4 140.7 262.05 139.7 261.8 139.0 262.6 138.2 263.45 137.5 263.15 136.55 L260.9 136.4 Q259.55 136.3 258.8 135.45 258.3 135.2 257.4 135.9 256.55 136.55 256.0 136.15 254.3 137.05 252.35 139.55 L249.05 143.9 Q247.65 146.65 246.75 145.05 245.85 143.45 247.1 141.75 248.5 139.8 248.2 138.5 L240.4 138.5 236.45 138.75 Q234.2 138.65 232.55 137.45 L230.8 137.5 Q229.75 137.4 229.0 136.45 229.9 135.3 231.15 135.15 L233.15 135.1 M306.0 -15.45 L306.05 -16.15 305.75 -15.45 306.0 -15.45 M355.4 -109.0 L355.4 -109.3 355.25 -109.25 355.4 -109.0 M344.75 -73.3 L345.7 -72.2 Q346.1 -73.3 344.75 -73.3 M361.65 -96.05 L361.9 -96.3 361.65 -96.45 361.65 -96.05 M386.7 4.4 L386.7 4.2 386.5 4.25 386.7 4.4 M388.9 23.85 Q388.55 24.3 388.55 24.5 L388.3 27.1 Q389.2 25.95 388.9 23.85 M397.15 29.05 L397.15 29.25 397.3 29.2 397.15 29.05 M349.6 72.85 L349.65 73.05 349.85 72.85 349.6 72.85 M333.7 63.1 L333.45 63.45 333.75 63.3 333.7 63.1 M387.05 123.5 Q386.8 122.8 386.8 121.95 L385.8 123.25 387.05 123.5 M387.95 138.25 Q387.3 138.65 387.3 139.15 387.9 139.7 388.95 139.4 L387.95 138.25 M311.55 12.35 Q311.05 11.9 310.9 12.7 L311.55 12.35 M314.25 109.3 L314.2 109.15 314.05 109.4 314.25 109.3 M333.7 -1.35 Q332.8 -1.1 333.0 0.25 L333.7 -1.35" fill="#743106" fill-rule="evenodd" stroke="none"/>
    <path d="M-183.7 101.45 L-183.6 101.7 -183.5 101.5 -183.7 101.45 M-137.4 105.15 L-137.5 105.05 -137.55 105.15 -137.4 105.15 M-129.85 25.15 L-129.85 24.45 -130.3 25.15 -129.85 25.15 M-161.1 1.95 L-161.45 1.6 Q-161.7 1.35 -161.6 1.65 L-161.4 1.95 -161.1 1.95 M-157.8 -2.25 L-157.4 -2.65 -157.6 -2.8 -157.8 -2.25 M-156.7 -31.85 L-156.75 -31.55 -156.35 -31.55 -156.7 -31.85 M-173.8 0.05 L-173.4 -0.2 -173.9 -0.4 -173.8 0.05 M-98.15 69.4 L-98.15 70.1 -98.0 70.05 -98.15 69.4 Q-96.9 66.15 -95.35 64.75 -94.85 65.2 -95.1 66.45 L-95.25 67.35 -91.95 67.5 Q-89.9 68.25 -88.85 66.45 -88.3 65.7 -87.15 65.8 -90.55 70.3 -93.3 71.4 L-93.75 71.7 Q-93.15 72.55 -91.95 72.5 -90.55 72.45 -89.85 72.9 L-92.1 74.8 Q-93.3 75.5 -94.5 75.15 -97.55 75.25 -98.75 77.9 -98.8 79.95 -98.35 81.6 L-95.7 87.75 Q-97.95 85.85 -98.65 85.65 -100.1 85.3 -101.0 88.1 L-102.4 87.9 -106.6 90.0 Q-104.85 90.75 -105.3 92.8 -105.85 95.35 -105.45 96.0 -103.0 94.95 -101.0 96.7 -101.75 98.15 -103.05 98.15 -104.5 97.95 -105.2 98.15 L-106.8 98.8 Q-106.65 100.15 -106.9 100.8 -107.2 101.7 -108.25 101.9 L-107.2 103.0 Q-105.85 104.1 -105.45 104.8 -104.65 106.05 -105.0 107.75 -105.6 110.7 -108.45 111.65 -111.3 112.55 -115.4 113.15 L-122.4 114.1 -130.0 114.8 -137.65 115.15 Q-159.75 116.6 -188.25 115.9 -213.95 115.25 -229.2 113.25 L-236.5 111.5 Q-238.95 110.7 -239.3 107.3 -239.45 105.6 -238.6 104.4 L-236.7 102.8 -234.9 101.95 Q-233.7 101.45 -233.15 100.55 L-237.5 98.2 Q-240.05 96.9 -242.05 96.85 -245.0 96.85 -244.35 93.5 -245.05 92.7 -246.35 92.1 L-248.55 91.0 Q-243.8 90.25 -240.5 91.45 L-237.65 90.75 -237.15 90.55 Q-236.85 90.45 -236.95 89.55 -237.25 87.8 -236.7 87.3 -236.2 86.85 -235.1 87.9 L-233.9 86.95 Q-233.45 86.35 -232.65 86.3 L-231.35 86.15 -231.35 80.7 Q-231.05 78.3 -232.4 77.9 -234.3 77.4 -234.45 77.1 -235.85 76.5 -237.45 78.05 L-237.7 80.0 Q-237.95 81.0 -238.6 81.0 -239.15 80.95 -239.3 80.0 L-239.5 78.1 Q-240.5 78.05 -242.35 75.75 -244.0 73.55 -245.5 74.0 -244.85 72.65 -243.75 72.65 L-242.05 72.6 -240.95 72.25 Q-240.45 71.95 -240.5 71.0 -240.55 70.1 -241.1 69.7 -241.55 69.35 -242.15 69.45 -243.95 69.9 -246.1 69.05 L-249.95 67.3 Q-249.4 66.15 -248.4 66.45 L-246.9 66.8 -245.95 66.45 Q-245.65 66.1 -246.1 65.05 L-252.2 61.55 -247.3 61.3 Q-244.5 61.6 -242.9 64.3 -242.65 64.15 -242.45 64.45 -239.0 62.25 -236.25 62.6 L-234.75 62.15 Q-233.9 61.8 -234.25 61.05 -235.6 57.9 -237.8 57.3 L-241.15 56.95 -243.05 56.6 -245.0 55.65 Q-244.2 54.15 -242.45 54.35 -240.7 54.6 -240.1 53.6 L-240.7 52.7 -243.3 51.05 Q-244.8 50.05 -245.7 48.7 -244.75 47.95 -243.4 48.55 -242.0 49.2 -241.35 48.85 -241.1 48.3 -241.75 47.6 -242.4 46.85 -242.05 45.95 -239.1 47.65 -238.0 50.65 -237.2 52.1 -235.55 52.1 L-232.8 52.3 -230.95 52.65 Q-229.8 52.7 -229.25 53.15 -227.8 54.4 -227.45 53.6 -227.2 53.0 -227.55 50.9 L-226.85 51.1 Q-226.25 53.95 -224.55 55.7 L-220.7 59.3 Q-218.45 61.75 -215.9 60.2 -212.65 58.3 -211.85 58.5 L-218.3 52.65 Q-222.1 49.05 -225.25 48.55 -224.9 46.95 -224.15 46.55 L-222.85 46.15 Q-222.1 45.25 -221.0 45.25 L-219.05 45.35 Q-216.65 45.15 -218.35 42.45 L-220.1 42.25 Q-221.2 42.0 -221.2 39.85 -221.2 39.5 -222.05 39.0 L-223.7 38.05 -222.55 37.9 Q-221.85 38.15 -221.7 37.2 -221.6 36.15 -222.2 35.8 L-223.4 35.5 -225.2 35.4 Q-228.55 37.25 -232.5 33.9 -232.1 32.85 -230.65 32.45 -229.2 32.0 -228.85 30.9 L-228.35 28.95 Q-229.55 27.45 -231.3 27.0 L-234.55 26.8 -236.3 26.45 -238.35 25.8 Q-237.5 24.8 -236.15 24.7 L-233.7 24.45 Q-235.0 22.3 -237.55 20.95 -240.8 19.25 -241.55 18.55 L-238.85 18.6 -236.0 18.5 Q-234.05 17.8 -233.9 17.35 -233.6 16.7 -234.4 13.8 -233.7 14.35 -231.4 17.15 -229.75 19.2 -228.15 19.45 L-227.15 19.65 Q-226.75 19.65 -226.15 18.85 L-224.55 18.8 Q-223.25 19.85 -222.75 19.8 -221.55 22.05 -219.35 22.45 L-215.5 22.75 Q-215.35 22.55 -213.1 21.65 -211.55 21.1 -211.2 19.2 -211.65 18.5 -211.35 17.95 L-210.7 17.25 -210.05 16.75 Q-209.85 16.5 -210.65 16.25 -211.95 15.9 -211.7 14.75 -211.25 13.4 -211.25 12.75 L-212.75 11.4 Q-213.6 10.4 -214.25 10.2 -212.45 9.35 -211.2 9.35 -209.6 9.35 -208.3 10.75 -207.45 11.65 -206.95 11.15 -206.35 10.75 -206.3 9.15 L-206.6 9.2 Q-206.3 6.2 -208.3 4.05 -211.05 1.05 -211.55 -0.15 -209.85 0.25 -207.95 2.2 L-205.0 4.95 Q-203.7 5.85 -203.35 5.8 -202.6 5.7 -202.55 3.6 L-203.05 1.25 Q-203.15 0.0 -202.0 -0.6 -201.25 -0.9 -201.4 -1.95 L-201.4 -3.6 Q-204.15 -5.15 -205.8 -5.55 -208.35 -6.15 -210.3 -4.95 -212.0 -3.9 -212.75 -5.75 -213.3 -8.05 -213.8 -8.65 -214.85 -10.0 -212.15 -10.8 -211.15 -11.2 -211.3 -12.1 -211.65 -13.2 -211.6 -13.65 -211.25 -15.8 -212.2 -15.55 -213.45 -15.2 -213.55 -15.55 -217.05 -15.0 -219.35 -16.2 L-218.15 -17.9 Q-217.45 -18.8 -218.4 -20.1 L-220.05 -22.45 Q-221.1 -23.8 -222.1 -24.3 -220.4 -24.6 -218.5 -23.45 -218.15 -23.25 -215.35 -21.05 -214.2 -20.45 -214.1 -22.65 -214.05 -23.7 -214.75 -25.25 -215.5 -26.9 -215.55 -28.05 -214.25 -27.35 -213.1 -25.2 L-211.15 -21.8 Q-210.5 -22.1 -209.0 -21.1 L-206.9 -21.0 -204.1 -20.85 Q-202.15 -19.7 -201.4 -19.85 -201.2 -20.75 -201.85 -21.2 -202.6 -21.75 -202.6 -22.25 -202.15 -22.95 -201.5 -22.9 L-200.4 -22.5 Q-199.65 -22.35 -199.3 -23.05 -199.0 -23.8 -199.5 -24.35 -201.35 -26.65 -200.4 -27.25 L-198.3 -27.85 -196.65 -28.35 Q-197.7 -29.75 -199.4 -30.15 -201.1 -30.45 -201.9 -30.85 -203.25 -30.15 -203.85 -31.9 -204.75 -34.35 -205.0 -34.55 -204.0 -36.8 -205.05 -37.45 -206.5 -37.8 -206.9 -38.4 -208.7 -39.3 -210.5 -40.25 -209.1 -40.95 -208.3 -40.9 -207.45 -40.85 -206.8 -40.0 -203.5 -38.2 -201.75 -43.45 -200.95 -43.75 -200.6 -45.1 L-200.1 -47.2 -200.25 -49.9 Q-200.95 -50.75 -200.85 -51.1 L-199.15 -52.55 Q-201.15 -55.2 -201.85 -57.2 -199.9 -56.5 -197.65 -53.5 -195.05 -50.05 -194.0 -49.3 L-193.25 -50.8 -192.35 -52.1 Q-191.8 -52.55 -191.45 -51.1 L-191.2 -49.7 Q-191.0 -49.05 -190.35 -49.3 -189.25 -49.7 -188.55 -51.9 -188.25 -52.55 -188.5 -53.25 -188.7 -53.9 -189.2 -54.0 -190.3 -54.25 -190.15 -55.15 -189.8 -56.25 -189.8 -56.85 -189.65 -58.4 -189.0 -58.25 -188.55 -58.2 -187.8 -57.75 L-184.65 -56.3 -185.35 -60.8 Q-186.5 -62.15 -187.1 -64.4 L-187.85 -68.65 -189.85 -70.6 Q-191.1 -71.8 -191.35 -73.5 L-193.8 -76.95 Q-191.5 -77.05 -190.2 -74.45 L-188.85 -73.15 Q-188.05 -72.4 -187.25 -72.9 -187.25 -73.8 -187.95 -74.45 -188.8 -75.3 -188.9 -75.85 L-187.5 -75.95 Q-186.5 -75.5 -186.1 -76.35 -186.3 -77.8 -187.6 -79.65 -189.25 -81.95 -189.85 -83.5 -187.6 -81.95 -185.9 -79.35 L-183.3 -74.55 Q-182.3 -74.3 -181.55 -75.8 -180.6 -77.7 -179.8 -77.95 L-176.0 -77.7 Q-173.45 -76.95 -172.35 -77.05 L-171.85 -77.25 -171.7 -78.05 Q-172.45 -78.7 -172.3 -79.75 -171.9 -80.95 -171.85 -81.55 L-171.85 -81.65 -172.65 -81.8 Q-174.55 -81.95 -176.15 -80.9 -176.35 -81.65 -175.15 -82.8 -174.15 -83.75 -175.2 -85.2 -175.8 -85.15 -176.2 -85.7 L-176.85 -86.85 -178.4 -88.0 Q-179.35 -88.8 -180.3 -90.35 L-174.75 -88.15 Q-173.3 -88.7 -173.75 -90.7 L-175.2 -90.7 Q-176.0 -90.95 -176.05 -92.55 -176.45 -94.25 -177.8 -94.25 -179.6 -94.35 -180.05 -94.95 -177.8 -96.95 -178.8 -98.6 L-181.45 -101.7 Q-179.05 -100.95 -177.3 -103.4 -177.45 -104.6 -178.5 -104.65 -179.65 -104.75 -179.95 -105.55 -179.75 -106.4 -178.75 -106.8 -177.7 -107.15 -177.5 -107.8 L-177.4 -108.85 -182.5 -115.45 Q-180.9 -115.1 -179.05 -113.1 L-176.0 -109.95 -174.95 -109.0 -174.55 -111.55 Q-174.2 -113.0 -173.5 -113.7 -172.6 -112.75 -173.15 -110.75 -173.6 -108.6 -172.95 -107.8 L-172.0 -109.55 Q-171.5 -110.55 -170.6 -110.7 -167.95 -110.95 -169.6 -115.1 -169.25 -115.45 -168.25 -114.75 -167.4 -114.1 -166.95 -115.15 L-171.7 -117.7 -171.6 -118.3 -170.05 -117.75 -168.6 -117.6 Q-167.75 -117.85 -168.05 -118.25 L-168.7 -119.0 Q-169.3 -120.2 -170.4 -121.3 L-172.5 -123.3 Q-171.6 -123.9 -170.5 -123.3 -169.0 -122.6 -168.45 -122.6 -169.65 -126.8 -172.2 -129.75 -171.0 -129.9 -169.75 -128.85 L-167.75 -126.9 Q-166.5 -125.85 -166.35 -126.7 L-166.35 -128.8 -168.6 -131.65 Q-169.5 -133.5 -168.85 -135.95 L-169.75 -138.05 Q-170.25 -139.25 -168.9 -140.5 -168.3 -141.1 -168.1 -141.0 L-167.8 -140.3 -166.95 -136.95 Q-166.7 -135.55 -165.75 -136.0 L-164.45 -135.95 Q-163.2 -138.25 -162.6 -142.5 L-161.55 -149.55 Q-160.45 -144.35 -161.6 -139.25 L-162.2 -136.85 Q-162.4 -135.45 -161.5 -134.5 L-159.45 -139.7 -158.85 -139.25 -160.75 -132.5 Q-160.1 -131.2 -160.4 -128.65 -160.65 -126.0 -160.25 -124.8 -160.2 -124.6 -161.2 -123.3 -160.9 -122.95 -159.9 -122.65 -159.25 -122.2 -160.3 -120.7 -160.95 -119.7 -160.15 -118.9 -159.8 -118.95 -158.5 -119.85 -157.4 -120.55 -156.55 -120.25 -156.95 -118.95 -157.9 -118.25 L-159.55 -117.1 Q-159.95 -116.7 -159.75 -116.25 -159.35 -115.6 -159.45 -115.4 L-158.65 -114.95 -159.0 -114.4 Q-159.85 -112.55 -158.85 -110.6 -157.6 -108.3 -157.7 -107.25 -156.6 -107.8 -155.85 -109.3 L-154.7 -111.9 -152.35 -116.95 Q-151.8 -116.0 -153.0 -113.35 -153.95 -111.15 -151.95 -109.95 L-153.4 -107.6 Q-154.0 -106.15 -152.9 -104.4 -152.4 -102.1 -153.15 -101.35 -153.75 -100.75 -155.25 -100.85 L-155.65 -100.55 -155.85 -98.9 Q-154.9 -97.55 -156.2 -97.2 L-157.15 -97.05 Q-157.65 -96.85 -157.85 -96.1 -158.2 -94.25 -157.8 -93.85 -157.35 -93.5 -156.15 -94.05 -155.4 -94.45 -154.0 -95.5 -152.65 -96.2 -151.35 -95.3 L-155.3 -90.8 Q-155.35 -89.95 -154.4 -87.75 -154.0 -86.0 -156.35 -86.1 L-156.4 -86.15 -156.6 -84.4 -153.8 -83.8 -151.0 -83.5 -148.85 -83.95 Q-147.5 -84.15 -147.3 -86.25 -145.25 -85.35 -144.2 -87.2 L-142.65 -91.45 -141.7 -94.6 Q-141.0 -96.55 -139.6 -97.7 L-143.15 -86.7 Q-143.3 -85.85 -144.2 -84.4 -144.8 -83.0 -144.2 -81.6 L-139.1 -83.45 Q-139.75 -82.0 -140.65 -81.25 L-142.05 -80.2 -143.4 -79.65 Q-144.15 -79.1 -143.85 -77.25 -143.65 -76.1 -144.8 -76.4 -146.15 -76.7 -146.45 -75.75 -146.65 -74.85 -145.8 -74.45 -144.9 -74.1 -145.15 -73.1 -145.65 -72.9 -146.4 -73.45 L-147.55 -74.3 Q-147.95 -72.85 -147.6 -71.55 L-146.55 -69.25 Q-145.2 -69.95 -142.75 -73.25 -140.45 -76.4 -138.6 -77.1 L-141.3 -73.15 Q-142.9 -70.9 -143.65 -68.85 -141.35 -67.6 -139.1 -68.0 -142.65 -65.4 -145.3 -65.3 -145.1 -62.65 -143.85 -63.35 -142.1 -64.25 -141.6 -63.7 -142.95 -63.0 -143.9 -60.85 L-145.35 -57.15 -145.35 -55.25 Q-145.45 -54.15 -145.9 -53.55 -146.0 -49.8 -143.65 -50.0 -143.5 -52.5 -141.2 -53.65 L-141.2 -55.55 -140.9 -56.9 Q-140.35 -57.4 -139.75 -56.5 -139.1 -55.45 -138.7 -55.45 -137.4 -59.15 -136.85 -61.15 -136.0 -64.6 -136.05 -67.8 L-135.5 -63.9 Q-135.25 -61.7 -134.3 -60.8 L-133.2 -59.65 Q-132.55 -59.4 -131.95 -60.8 -131.0 -63.3 -129.35 -64.4 L-127.95 -67.85 Q-126.95 -69.85 -125.65 -70.9 -126.1 -68.85 -127.05 -66.7 L-128.7 -63.35 -128.75 -62.95 Q-130.4 -59.75 -130.3 -59.1 -130.15 -58.45 -127.45 -57.7 -127.6 -55.9 -128.7 -55.0 L-130.65 -53.6 -130.8 -52.7 -130.4 -51.75 Q-129.5 -50.25 -129.9 -48.2 -130.25 -46.2 -131.55 -46.15 -132.45 -46.15 -133.15 -44.05 -133.85 -42.15 -134.9 -42.6 L-135.05 -40.85 Q-133.9 -40.15 -132.25 -41.7 -130.55 -43.3 -129.35 -42.8 -129.9 -41.2 -131.3 -39.55 L-133.55 -36.7 Q-132.5 -35.6 -131.45 -35.65 -130.55 -35.7 -129.3 -36.7 -128.3 -37.45 -128.2 -36.95 -128.05 -36.45 -128.6 -35.3 L-130.65 -27.0 Q-129.95 -26.3 -129.0 -26.6 L-127.55 -27.05 -126.65 -27.25 Q-126.15 -27.2 -126.05 -26.35 -125.85 -25.25 -127.15 -24.7 L-129.4 -23.6 -133.6 -20.85 Q-133.85 -19.35 -132.5 -19.1 L-130.0 -19.0 Q-128.65 -18.7 -128.25 -16.45 -125.7 -18.55 -123.5 -18.85 -123.4 -17.85 -124.05 -16.9 -124.8 -15.85 -124.85 -15.15 -124.2 -14.45 -123.25 -14.45 L-121.55 -14.8 -120.9 -15.55 Q-120.1 -18.25 -117.95 -18.25 L-114.45 -18.55 -114.1 -16.85 -114.1 -16.9 -109.25 -20.0 Q-109.75 -18.05 -111.0 -17.1 L-112.85 -15.55 -115.4 -13.9 -116.6 -12.75 Q-115.75 -11.95 -114.3 -12.25 L-111.5 -12.4 Q-113.5 -10.65 -115.95 -9.95 L-120.25 -9.25 Q-122.6 -2.65 -119.25 0.45 L-124.1 1.4 -128.85 1.75 -130.0 1.8 -130.9 3.95 Q-131.2 5.25 -130.7 6.0 -129.9 7.25 -128.7 7.6 -127.6 7.95 -126.35 7.3 L-125.3 6.9 Q-124.0 2.95 -120.9 2.75 L-116.4 2.25 Q-113.95 1.7 -112.05 0.4 L-113.45 2.2 -115.0 3.6 Q-116.35 4.55 -116.05 5.3 L-114.9 6.6 Q-115.55 7.6 -117.6 9.05 -118.9 10.55 -117.2 13.6 -116.2 11.65 -114.45 12.65 -112.4 13.9 -111.7 13.4 L-111.95 9.5 -111.8 7.45 Q-111.5 6.55 -110.4 7.3 L-109.15 9.15 Q-108.45 9.8 -108.1 7.15 -107.9 5.95 -106.8 3.95 -105.65 2.05 -105.55 0.3 -104.85 1.8 -105.0 4.6 -105.2 7.3 -104.6 8.6 L-99.05 2.6 Q-99.9 4.6 -99.1 6.5 -98.3 8.55 -98.4 9.1 -98.75 10.4 -100.1 11.2 L-102.35 12.75 Q-101.95 13.7 -100.9 13.35 -99.7 13.0 -99.3 13.6 L-99.15 14.9 -99.45 15.3 -102.35 17.65 Q-104.0 19.15 -104.85 20.85 -104.85 23.8 -105.55 25.1 -106.1 25.95 -105.85 26.5 -105.65 27.0 -104.9 27.1 L-102.4 26.95 Q-100.9 26.8 -100.05 25.55 L-102.5 29.7 -101.7 32.5 -101.3 32.5 Q-100.75 30.4 -99.75 30.7 -99.15 30.85 -98.0 31.9 L-97.05 30.55 Q-96.45 29.65 -95.55 29.95 -96.2 31.6 -97.5 33.35 L-99.65 36.25 Q-99.15 37.25 -98.15 37.7 L-96.55 38.35 Q-97.05 40.75 -99.1 42.45 -101.95 44.9 -102.6 45.9 L-98.5 46.35 -94.8 45.95 -92.75 45.25 Q-91.8 45.25 -91.6 47.75 L-90.7 48.05 -89.55 48.15 Q-87.95 48.6 -85.8 47.15 L-82.35 45.05 Q-83.45 47.2 -86.5 49.7 L-87.7 50.75 Q-87.0 53.35 -87.8 54.15 L-90.15 54.4 -91.35 54.35 -91.65 54.45 -91.9 54.45 -92.85 55.35 Q-93.3 55.95 -93.1 57.0 -92.35 60.5 -93.5 61.2 -94.3 61.75 -96.4 60.85 L-99.3 61.7 Q-100.05 62.2 -100.7 63.75 L-101.85 66.15 Q-101.7 66.75 -100.8 66.85 -100.1 67.0 -100.05 67.9 L-100.45 69.4 Q-100.6 70.3 -99.95 70.85 L-98.15 69.4" fill="#743106" fill-rule="evenodd" stroke="none"/>
    <path d="M-279.65 161.8 L-279.7 161.85 Q-280.55 166.15 -281.15 163.05 L-281.5 163.8 -282.6 164.65 -284.15 166.05 Q-283.15 167.35 -283.05 168.0 -282.85 169.0 -284.2 169.75 -284.4 171.25 -283.25 171.5 -282.55 171.6 -282.45 172.2 -282.3 172.85 -282.9 173.6 L-283.55 175.55 Q-283.4 175.95 -283.4 177.45 -283.2 178.45 -282.15 177.05 -281.45 176.05 -279.85 176.4 L-278.6 175.45 -275.5 173.25 Q-273.55 171.95 -272.85 169.85 -272.7 169.4 -272.2 169.75 -271.7 170.1 -271.9 170.75 L-272.1 174.45 Q-272.1 176.6 -273.4 177.4 -272.2 178.55 -272.05 179.1 -271.75 180.1 -273.35 181.0 -274.8 181.8 -274.4 183.4 -274.1 184.55 -272.0 185.3 L-269.1 185.35 -268.25 184.35 Q-267.8 183.85 -267.25 184.05 L-265.35 183.95 Q-265.15 183.95 -263.45 182.6 -262.4 181.65 -261.95 183.05 -261.6 184.1 -262.75 185.05 L-264.6 186.9 -264.65 187.55 -263.3 188.4 Q-262.45 188.8 -262.4 190.2 L-266.0 191.65 -266.55 192.7 Q-266.2 194.9 -264.95 194.65 L-262.9 194.4 Q-260.1 192.1 -258.0 191.45 -255.8 190.75 -253.05 191.45 -256.4 194.6 -258.65 195.9 -261.7 197.7 -264.65 197.5 -265.0 198.35 -266.05 198.7 -267.2 199.15 -267.5 199.7 -267.35 200.3 -266.35 200.9 -265.55 201.4 -265.65 202.55 -266.25 202.95 -266.9 202.8 -267.75 202.45 -268.15 202.25 -275.15 199.35 -280.8 201.65 L-284.6 203.15 Q-286.85 203.8 -288.65 203.1 -291.1 202.55 -292.4 203.15 L-293.05 204.15 Q-293.5 204.7 -293.35 205.3 -293.2 206.05 -292.7 206.1 L-291.75 206.05 -287.4 205.95 Q-283.05 206.05 -279.35 209.0 L-285.25 210.55 Q-288.6 211.05 -291.2 209.7 L-292.2 209.9 Q-292.8 209.95 -292.9 210.75 -293.0 211.7 -291.85 212.65 -290.2 214.15 -290.6 216.55 L-291.5 220.65 Q-291.55 222.2 -292.5 222.65 -293.35 223.0 -294.5 222.35 -295.2 221.95 -296.05 222.65 -297.8 224.2 -299.75 223.6 -301.25 223.1 -303.2 221.15 -304.4 220.4 -305.05 220.15 -306.15 219.75 -306.95 220.65 -308.25 221.8 -309.5 220.0 -315.05 212.55 -322.25 215.85 L-324.25 215.8 Q-324.8 215.05 -324.7 212.55 -325.0 211.35 -326.1 210.9 -327.4 210.35 -327.75 209.75 L-331.35 209.35 Q-333.95 209.6 -335.0 209.3 L-336.45 209.25 Q-337.05 209.65 -336.3 211.55 -335.3 211.65 -335.5 212.85 L-335.85 213.3 -336.4 213.75 Q-336.9 215.05 -336.45 215.2 L-335.5 215.2 -332.2 216.05 Q-330.3 216.7 -329.55 219.15 L-320.9 220.75 Q-319.55 221.05 -319.05 221.4 -318.2 222.05 -318.35 223.75 -318.55 225.25 -319.4 225.4 L-321.25 225.5 Q-323.85 225.3 -325.1 225.55 -327.3 225.95 -328.35 228.75 L-328.45 228.85 Q-330.1 230.35 -332.25 229.7 L-335.9 227.85 -336.7 227.9 Q-337.2 227.95 -337.35 228.2 -337.55 228.6 -337.25 229.15 L-336.7 229.9 -335.4 231.8 Q-335.15 232.85 -336.05 233.1 -336.95 232.95 -338.0 231.65 -339.0 230.05 -339.55 229.4 L-340.0 228.9 -341.0 228.9 -341.1 229.45 Q-342.3 232.5 -343.75 232.15 -344.4 232.0 -346.45 230.05 -345.65 231.8 -346.45 233.6 L-347.3 234.5 Q-348.75 235.9 -350.25 234.0 -352.05 231.75 -352.85 231.85 -353.6 231.45 -353.6 229.85 -354.4 227.85 -354.3 226.95 -356.2 228.15 -357.25 230.1 L-358.0 230.7 Q-358.9 228.45 -360.2 228.4 -361.0 228.4 -362.6 229.5 L-363.1 230.2 Q-364.2 230.9 -364.85 229.8 L-365.45 229.8 -365.45 229.75 -365.65 230.1 Q-366.4 230.55 -366.8 229.8 L-367.45 228.85 Q-369.35 229.1 -371.4 230.55 -372.4 231.25 -375.0 233.65 -375.75 235.1 -376.9 234.6 -377.45 234.45 -377.6 233.35 -377.8 232.15 -378.05 232.1 -382.25 231.1 -378.75 226.35 L-386.6 224.35 -384.95 222.75 -383.7 221.8 Q-381.9 221.0 -382.35 220.0 L-383.7 218.3 -383.7 216.45 Q-383.05 215.4 -383.25 214.95 -383.4 214.6 -384.3 214.65 L-385.9 215.2 Q-386.85 215.45 -386.7 214.65 -386.35 211.85 -387.85 210.75 L-390.15 208.9 -391.65 209.55 -394.0 210.05 Q-394.95 210.85 -394.05 213.8 -393.75 214.9 -394.35 215.3 -394.95 215.8 -395.6 214.85 L-396.45 213.95 Q-396.9 213.9 -397.3 214.85 -398.0 216.5 -397.05 217.8 -396.1 219.3 -395.8 219.95 L-394.95 221.4 Q-394.5 222.3 -394.8 223.1 -395.3 224.25 -395.9 223.85 L-396.9 222.7 Q-397.4 222.1 -397.85 222.45 L-398.6 223.55 Q-399.9 225.65 -401.4 222.75 -402.9 219.8 -404.2 221.45 L-404.65 220.75 -404.9 220.05 -404.65 218.5 -403.85 217.35 -399.85 211.0 -404.0 210.65 Q-406.2 210.65 -407.8 211.65 -408.9 212.9 -410.55 212.9 L-413.45 212.7 -414.65 212.85 Q-415.4 212.8 -415.65 211.9 -415.85 211.25 -415.15 210.55 -414.45 209.9 -414.75 209.0 L-416.7 208.8 Q-417.85 208.8 -418.55 208.05 -419.0 207.8 -419.8 208.45 -420.6 209.05 -421.05 208.7 -422.6 209.45 -424.3 211.8 L-427.25 215.6 Q-428.5 218.2 -429.25 216.7 -430.05 215.3 -428.95 213.75 -427.65 211.95 -427.95 210.75 L-434.9 210.75 -438.4 211.0 Q-440.45 210.9 -441.9 209.85 L-443.45 209.9 Q-444.4 209.75 -445.05 208.95 -444.25 207.9 -443.2 207.75 L-441.4 207.7 Q-439.6 206.5 -439.2 206.35 L-436.95 206.4 -434.05 206.3 -431.35 204.75 Q-430.2 204.45 -429.9 201.65 -429.6 198.95 -430.5 197.4 -433.8 197.55 -434.3 196.95 -434.75 196.35 -434.25 192.55 -436.35 189.8 -436.3 188.9 -436.25 188.0 -433.8 186.05 L-433.3 185.05 -430.7 183.0 Q-428.95 181.8 -428.8 179.45 L-427.9 179.65 -425.25 180.95 Q-423.65 181.65 -422.9 183.05 L-422.25 183.85 Q-420.0 181.6 -417.85 184.1 L-416.85 183.05 Q-416.45 182.4 -417.15 181.45 -417.8 180.7 -418.05 179.05 L-418.55 176.45 Q-421.5 174.45 -422.7 171.15 L-416.5 173.5 Q-415.9 173.0 -414.95 174.0 -414.0 174.95 -413.45 174.4 -413.45 172.9 -413.9 172.5 -414.75 172.0 -414.6 171.3 -414.55 170.65 -413.95 170.25 L-412.15 169.25 Q-411.2 168.6 -411.55 167.0 -411.75 165.65 -412.9 165.8 L-414.75 166.0 -415.4 165.95 -417.05 166.0 Q-417.9 165.85 -418.5 164.85 L-420.45 164.4 -422.4 164.55 -423.35 164.45 Q-423.9 164.15 -423.6 163.45 -422.75 161.5 -423.7 161.15 L-425.0 160.3 -431.55 158.95 Q-435.45 157.85 -438.0 154.45 L-431.75 155.45 -424.75 151.55 -425.35 150.6 Q-427.2 150.5 -427.1 148.2 -426.85 145.15 -427.1 144.7 -426.3 143.85 -425.5 144.4 L-424.1 145.8 Q-422.95 146.2 -420.8 144.75 -418.65 143.35 -417.2 143.85 -417.75 142.7 -420.05 140.0 -421.75 138.0 -422.1 135.8 -418.55 136.5 -417.75 136.85 -415.55 137.9 -414.6 141.0 -413.25 143.9 -412.9 144.2 -412.55 144.4 -411.7 143.1 -412.6 140.5 -411.2 139.4 -409.15 137.7 -409.05 137.35 -413.25 135.85 -413.85 127.9 L-410.25 131.85 Q-408.15 133.8 -406.05 133.0 -405.7 132.9 -405.3 133.25 -404.75 133.65 -404.7 134.5 L-402.15 135.45 -400.95 135.15 Q-400.3 134.9 -400.2 133.8 -399.8 131.2 -397.7 131.5 -396.7 131.4 -395.9 129.05 -395.0 126.75 -393.95 126.8 L-391.4 126.4 -391.4 126.3 -393.95 123.9 Q-395.25 123.05 -396.55 123.35 -399.25 124.1 -401.9 122.3 -401.5 121.3 -400.85 121.25 L-399.85 121.3 -398.65 121.4 Q-397.95 121.3 -397.6 120.5 -400.75 118.25 -402.1 118.6 -403.45 119.0 -405.95 122.85 -406.35 124.0 -407.05 124.0 -407.75 124.0 -407.9 123.1 -408.25 120.45 -409.35 120.2 L-411.75 120.65 Q-412.85 120.9 -413.7 120.2 -414.75 119.45 -414.35 118.05 -413.7 115.05 -414.85 113.65 L-417.25 111.65 -419.75 111.55 Q-423.1 113.75 -426.6 110.8 -425.0 110.2 -422.0 108.8 -419.35 107.85 -417.25 108.75 L-415.3 106.9 Q-416.3 105.0 -415.25 102.9 -416.2 101.65 -415.6 100.6 L-414.5 99.0 Q-414.1 98.05 -413.45 98.1 -412.7 98.15 -412.25 99.2 L-411.1 100.2 -410.05 100.85 -406.5 100.2 Q-404.25 99.75 -402.85 100.65 -402.55 100.75 -402.75 99.85 L-402.95 98.35 -403.4 97.25 Q-403.5 94.8 -405.2 93.7 -407.5 92.4 -407.9 91.75 -409.1 91.05 -409.75 89.0 L-410.75 85.35 Q-409.6 84.45 -408.65 85.95 L-406.95 88.0 -406.5 88.65 Q-405.45 89.1 -404.15 90.7 L-401.95 93.25 Q-401.15 92.85 -400.6 91.25 L-399.65 88.7 Q-397.65 85.7 -396.85 87.4 -396.2 88.8 -394.75 89.35 -393.0 90.05 -392.55 90.45 L-391.55 91.25 Q-391.0 91.6 -390.55 90.95 -390.1 90.25 -390.5 89.45 L-391.25 88.25 -392.65 85.75 -393.15 85.3 -395.1 83.9 Q-395.35 83.45 -395.45 81.15 L-396.25 79.9 Q-396.45 79.65 -397.35 79.25 -398.05 78.95 -398.35 78.2 -399.25 76.0 -400.9 75.45 L-402.6 75.45 Q-403.6 75.45 -404.25 75.95 L-405.3 77.0 Q-405.85 77.55 -406.4 76.7 -406.7 76.2 -406.15 75.15 -405.65 74.15 -405.95 73.65 L-411.55 73.65 Q-412.35 74.05 -414.0 76.05 -415.5 77.2 -416.75 73.7 -416.95 73.1 -418.45 73.05 L-421.65 72.95 Q-417.6 69.55 -416.15 68.95 -413.3 67.85 -410.9 70.45 L-410.4 70.45 Q-409.9 69.6 -408.7 69.6 -407.4 69.6 -406.85 69.1 -407.3 67.85 -408.4 67.25 L-410.25 66.25 Q-411.2 65.55 -411.05 64.55 L-410.55 63.75 -409.75 63.7 Q-408.45 63.6 -407.8 64.7 -406.35 63.55 -404.1 63.65 L-400.3 64.0 Q-397.1 61.3 -398.95 57.2 L-399.6 56.25 Q-401.8 56.2 -402.15 52.9 -402.6 48.95 -403.8 48.05 -402.45 47.95 -401.6 48.8 -401.3 49.15 -400.55 50.55 -399.9 51.75 -398.9 50.45 -398.0 49.25 -397.85 50.05 -397.2 52.6 -395.8 52.7 L-393.3 52.4 -392.45 51.55 -391.4 51.5 Q-391.0 48.9 -390.15 48.0 -389.15 46.85 -387.45 47.75 L-385.5 48.0 Q-384.2 47.95 -383.45 48.45 L-382.45 48.4 Q-382.05 47.85 -382.05 46.8 L-384.55 45.0 Q-386.25 45.2 -387.15 44.5 -388.2 43.6 -388.3 41.1 -390.15 40.0 -390.8 38.2 L-391.55 37.5 -392.05 36.3 -392.55 35.7 -392.2 36.1 Q-392.55 35.75 -395.0 37.35 -396.75 38.5 -397.25 34.65 L-398.15 34.9 -401.5 34.4 Q-403.2 35.1 -406.6 35.65 L-411.75 35.45 -414.45 35.1 Q-416.15 34.95 -417.15 33.6 -416.05 32.5 -413.85 32.55 -411.6 32.55 -410.7 31.75 -410.9 31.1 -411.95 30.15 -412.85 29.4 -412.85 27.95 -411.85 28.0 -406.5 29.9 -401.6 31.65 -399.9 31.25 L-401.2 29.25 Q-401.9 28.15 -402.5 27.85 L-403.5 27.15 Q-404.0 26.55 -403.8 25.6 -403.6 24.65 -402.95 24.7 -402.6 24.7 -401.9 25.0 -400.35 25.35 -397.35 26.35 L-395.9 26.9 Q-395.05 26.95 -394.6 25.8 L-396.65 24.9 Q-398.0 24.3 -398.9 23.1 L-396.45 22.95 Q-395.25 22.8 -394.6 21.6 -393.95 20.4 -393.0 20.6 -392.15 20.7 -391.2 21.75 L-388.9 23.9 Q-386.0 23.05 -388.25 20.05 L-392.65 14.25 Q-393.5 14.3 -394.05 13.15 -394.6 11.6 -395.0 11.05 L-395.95 9.9 Q-396.35 9.1 -395.8 8.1 L-394.95 6.35 Q-394.4 5.45 -393.5 5.7 L-392.45 5.8 -391.4 5.75 -390.15 2.75 Q-389.25 0.9 -390.5 -0.95 -390.7 -1.25 -390.2 -1.6 -389.8 -1.95 -389.4 -1.95 -387.35 -1.95 -386.35 0.05 -382.35 -0.95 -380.15 3.85 L-379.4 4.6 Q-378.85 4.05 -378.55 2.95 L-378.2 0.95 -378.85 0.15 -381.15 -2.05 Q-382.45 -3.45 -382.65 -5.6 -383.95 -7.2 -386.5 -7.3 -389.55 -7.45 -390.5 -7.95 -390.35 -8.9 -389.25 -9.3 -388.3 -9.65 -388.45 -10.55 -388.55 -11.75 -389.45 -12.15 L-391.0 -12.55 -394.5 -14.45 Q-397.6 -16.1 -398.15 -16.05 -400.35 -15.8 -402.45 -17.95 L-405.85 -22.4 -397.7 -19.05 Q-391.45 -16.3 -389.55 -15.7 -389.05 -16.15 -389.2 -16.9 L-389.5 -18.05 -389.5 -18.1 -393.15 -20.15 -396.75 -22.3 Q-399.6 -24.85 -399.15 -26.65 -398.7 -28.0 -395.55 -25.9 L-391.65 -23.45 -390.85 -23.2 -390.15 -22.8 Q-389.4 -22.2 -387.75 -21.5 -386.3 -20.65 -385.8 -18.95 -384.25 -19.6 -384.9 -21.1 -385.6 -22.8 -385.0 -25.85 -386.15 -26.5 -386.0 -28.0 -385.7 -29.75 -385.7 -30.6 L-389.4 -30.4 Q-391.55 -30.55 -393.15 -31.7 L-391.9 -32.65 -390.85 -32.6 -389.7 -33.45 Q-387.75 -35.55 -385.0 -35.0 -383.45 -34.75 -380.35 -33.45 L-381.45 -35.15 -382.15 -35.8 Q-382.6 -36.25 -382.4 -37.15 L-379.0 -37.15 Q-377.05 -37.35 -378.25 -39.85 -380.8 -42.3 -390.8 -48.15 -397.75 -52.25 -399.25 -57.35 -398.65 -57.25 -393.0 -54.1 -387.85 -52.45 -389.1 -59.4 -389.6 -62.45 -385.0 -54.95 -379.85 -46.5 -379.35 -47.8 L-378.8 -47.6 Q-377.45 -47.9 -377.5 -49.6 L-378.4 -50.7 Q-378.7 -51.4 -378.05 -52.0 -377.25 -52.65 -377.6 -53.35 L-378.05 -54.45 Q-378.5 -55.95 -380.0 -56.9 L-382.35 -58.7 -375.55 -59.7 Q-371.7 -60.5 -368.95 -61.8 L-367.4 -61.45 Q-366.45 -61.45 -366.95 -63.8 -367.4 -63.6 -367.85 -63.95 L-368.7 -64.8 Q-370.4 -65.1 -372.35 -66.65 L-375.65 -69.6 Q-376.45 -69.35 -377.35 -69.95 L-378.85 -71.1 -379.4 -72.35 Q-379.65 -73.3 -380.4 -73.5 -386.35 -74.6 -382.95 -74.5 L-378.05 -73.9 -376.85 -73.3 Q-376.3 -73.9 -376.3 -75.55 L-376.15 -76.95 -373.45 -76.7 Q-371.6 -76.95 -370.7 -76.15 L-370.65 -76.2 Q-369.1 -75.9 -367.5 -76.9 -366.45 -77.55 -364.8 -79.35 -365.5 -79.55 -366.5 -82.05 -367.4 -84.2 -368.7 -83.75 -370.4 -83.25 -372.0 -84.35 -372.95 -85.0 -374.6 -87.1 -374.2 -88.0 -371.75 -87.3 -369.75 -86.7 -369.8 -90.7 -366.4 -89.3 -365.8 -89.25 -363.9 -89.05 -362.4 -90.9 -361.9 -91.5 -360.25 -88.6 -358.65 -85.8 -358.25 -86.6 -357.5 -88.4 -358.8 -91.4 L-364.85 -94.1 Q-369.15 -96.2 -373.65 -102.4 -371.95 -102.45 -368.0 -99.35 -364.1 -96.3 -362.95 -96.3 L-363.7 -101.35 -360.65 -97.1 Q-359.45 -96.85 -359.0 -97.7 L-357.95 -101.15 -358.65 -102.4 -359.2 -103.75 -359.65 -104.9 Q-359.85 -105.7 -359.45 -106.2 -358.95 -106.85 -358.5 -106.5 L-357.6 -105.55 -356.05 -103.15 Q-355.1 -101.65 -354.25 -102.45 -353.45 -103.1 -353.6 -105.1 L-353.7 -110.4 -356.6 -110.35 Q-356.35 -112.65 -354.9 -113.6 -353.45 -114.5 -353.45 -116.55 L-353.4 -117.05 Q-353.3 -118.75 -352.65 -118.9 -352.2 -119.05 -352.0 -118.5 L-351.65 -117.45 -350.35 -114.45 Q-350.4 -113.95 -351.55 -111.35 L-351.55 -109.45 Q-351.45 -108.4 -351.75 -106.05 -351.85 -104.05 -350.9 -103.5 -350.2 -103.1 -349.55 -104.6 L-348.55 -107.35 -347.85 -108.4 -347.0 -108.35 Q-346.45 -107.7 -347.1 -105.8 L-348.2 -102.85 -348.95 -99.5 Q-348.15 -99.25 -346.5 -100.15 L-344.2 -100.35 -341.3 -107.85 Q-339.3 -112.95 -337.4 -113.0 L-339.45 -103.95 Q-341.05 -98.0 -342.8 -96.85 -344.55 -95.65 -344.05 -93.5 L-343.55 -92.05 Q-343.35 -91.5 -344.05 -90.45 -344.65 -89.5 -343.95 -88.75 -343.25 -87.95 -342.35 -88.3 -341.95 -88.5 -340.85 -89.45 L-340.2 -90.5 -340.2 -91.0 Q-339.15 -93.6 -338.55 -94.25 -337.45 -95.4 -335.8 -94.0 -335.55 -93.75 -334.5 -94.9 L-333.2 -94.95 Q-332.7 -93.8 -333.7 -93.0 -334.9 -91.9 -334.95 -91.4 -335.0 -90.55 -335.9 -87.5 -336.55 -85.05 -336.2 -83.35 -335.5 -83.45 -334.2 -85.2 -333.0 -86.65 -331.65 -86.55 -332.95 -85.3 -332.7 -81.35 -332.55 -77.85 -334.75 -76.95 -333.5 -75.8 -331.85 -76.25 L-329.35 -76.8 Q-329.0 -75.95 -329.7 -74.8 -330.4 -73.6 -329.9 -72.3 -328.95 -75.2 -327.85 -74.5 -327.35 -74.15 -326.35 -72.15 -325.15 -69.8 -327.75 -68.75 -328.95 -67.35 -330.1 -67.6 -329.75 -64.9 -330.65 -63.25 -331.4 -61.95 -333.2 -61.1 L-334.3 -60.45 Q-335.0 -59.95 -334.65 -59.65 -332.95 -58.1 -334.1 -57.1 -335.5 -55.9 -335.4 -55.45 L-333.25 -55.5 -331.7 -56.8 Q-331.1 -56.45 -331.65 -53.55 -332.0 -51.4 -329.65 -52.45 -328.8 -54.95 -327.05 -57.65 -324.8 -60.8 -323.7 -62.65 -324.75 -54.5 -328.95 -49.4 L-328.6 -47.9 Q-328.3 -47.6 -327.65 -48.55 L-325.35 -50.85 -322.75 -52.45 Q-321.75 -53.8 -314.8 -57.75 L-306.7 -62.45 Q-317.55 -52.9 -316.65 -52.75 -310.45 -51.8 -313.35 -51.35 -318.05 -50.55 -317.85 -49.95 -317.25 -48.6 -313.95 -47.45 -313.35 -47.25 -319.4 -46.5 -320.2 -45.25 -322.15 -44.65 -324.25 -44.05 -325.05 -43.05 -325.0 -42.3 -324.05 -41.65 -323.2 -41.05 -323.25 -40.1 L-321.8 -36.8 Q-321.45 -36.3 -320.2 -36.2 -318.65 -36.3 -315.6 -37.25 -312.85 -37.75 -311.0 -35.6 -311.55 -34.65 -312.45 -34.5 L-313.85 -34.3 Q-314.6 -33.35 -316.7 -33.35 -318.65 -33.45 -319.4 -31.6 -319.25 -29.65 -320.3 -28.9 -320.9 -28.45 -322.2 -27.95 -323.75 -26.75 -325.2 -21.8 -326.7 -16.8 -326.1 -14.45 L-325.2 -14.15 -323.8 -15.25 -321.5 -17.25 Q-320.05 -18.5 -319.5 -19.95 -319.65 -20.5 -319.4 -20.85 L-318.9 -21.15 Q-315.65 -22.8 -312.55 -27.8 -312.15 -26.45 -312.65 -24.9 -313.1 -23.3 -312.95 -22.55 L-309.9 -24.8 -308.55 -25.8 Q-307.8 -26.2 -307.45 -25.25 -306.95 -24.2 -307.6 -23.45 L-308.85 -22.3 -309.55 -21.45 -310.35 -20.6 Q-310.75 -20.05 -310.6 -19.35 -310.5 -18.4 -309.85 -18.25 L-308.8 -18.05 Q-307.35 -18.4 -307.45 -17.7 -307.55 -14.5 -306.25 -14.3 L-303.75 -14.7 -302.6 -14.95 Q-301.95 -15.0 -301.65 -14.0 -302.4 -12.65 -303.65 -11.85 L-306.05 -10.95 Q-309.2 -10.15 -310.85 -8.75 -311.9 -7.85 -313.8 -4.5 -315.55 -1.6 -317.0 -0.95 L-320.2 1.9 -321.95 5.45 Q-323.1 7.3 -324.5 7.75 L-325.45 8.75 Q-326.1 9.35 -326.2 10.45 L-322.75 10.45 Q-322.0 9.9 -320.15 10.45 -318.4 11.05 -317.6 9.6 L-314.6 4.9 -313.8 3.55 Q-313.3 2.8 -313.05 3.45 -312.75 4.2 -311.65 5.05 -310.7 5.7 -310.8 6.3 -311.45 9.6 -310.1 10.1 L-307.55 10.55 Q-306.15 11.3 -300.95 8.7 -296.1 6.2 -293.7 3.95 -293.25 3.5 -293.95 7.15 -294.65 10.7 -295.0 11.4 -295.95 13.3 -297.7 13.45 L-298.25 14.5 -297.6 15.4 Q-295.3 14.0 -291.55 12.5 -286.85 10.55 -285.55 11.0 -285.5 11.9 -289.4 15.2 -293.15 18.4 -292.8 19.4 -291.7 22.1 -290.05 21.7 -288.6 21.6 -288.6 22.8 L-288.5 29.2 Q-288.95 33.75 -291.7 29.4 -294.3 31.15 -300.1 31.55 L-308.75 31.7 Q-309.15 32.5 -309.9 32.85 L-311.35 33.4 Q-311.2 36.1 -312.55 36.7 L-315.05 37.3 Q-314.65 38.65 -315.15 41.25 -315.6 42.95 -315.05 43.95 -314.6 45.05 -313.2 44.9 L-312.0 45.75 Q-310.15 44.5 -302.3 41.75 L-292.15 38.25 -292.8 40.0 Q-294.45 43.05 -294.45 44.85 -294.45 47.2 -291.75 48.5 L-288.75 48.6 Q-287.5 46.95 -286.55 47.85 -285.35 49.0 -286.15 51.55 L-286.45 52.95 Q-286.35 53.35 -285.55 53.35 -285.1 52.65 -284.05 52.65 -282.9 52.7 -282.5 52.3 -281.6 51.0 -280.45 51.85 L-278.55 52.9 -278.35 54.1 Q-278.95 55.2 -279.95 55.4 L-281.8 55.3 Q-284.2 57.2 -287.3 57.35 L-287.3 57.4 -290.75 59.45 Q-292.85 60.85 -293.95 63.35 -292.25 62.9 -289.6 63.3 L-285.55 63.55 -282.45 63.1 Q-280.55 63.2 -280.35 65.0 -280.15 66.95 -281.85 67.55 -284.45 68.5 -284.75 68.8 -284.9 70.2 -285.85 70.7 -287.65 71.45 -290.1 71.8 L-294.45 72.35 -294.6 72.55 -294.9 72.55 Q-295.95 73.4 -302.75 73.3 L-310.7 72.55 Q-313.1 71.45 -315.6 72.55 -316.7 73.1 -317.25 74.3 -317.75 75.6 -317.25 77.25 -316.75 78.7 -316.0 78.95 -315.15 79.25 -314.15 78.05 -312.65 76.2 -310.75 76.2 -310.25 75.8 -309.05 76.45 -307.95 77.0 -307.25 76.05 -306.55 75.0 -305.8 74.7 -304.85 74.35 -304.3 75.55 -303.95 76.35 -304.65 77.35 L-305.8 79.05 Q-305.6 82.1 -307.25 83.9 L-310.15 86.75 Q-309.4 90.4 -307.75 87.8 L-306.3 84.8 Q-305.55 83.8 -305.25 88.25 -305.2 89.15 -303.3 88.8 -302.6 88.7 -297.9 86.15 L-292.55 83.45 -289.65 81.85 -285.35 80.45 Q-282.5 79.5 -281.3 78.55 -280.55 82.6 -288.3 88.25 L-298.65 95.45 Q-297.8 97.05 -295.9 97.2 -293.7 97.4 -293.0 98.2 L-291.6 100.6 Q-290.7 101.75 -289.6 100.85 -288.45 100.0 -286.8 99.55 L-283.9 99.1 -282.8 98.45 Q-282.1 98.2 -281.95 99.5 -281.8 100.6 -282.2 101.35 -282.65 102.3 -283.6 102.0 -283.85 102.3 -284.15 102.15 -284.6 102.65 -287.0 103.65 -288.75 104.4 -289.45 106.15 -289.3 106.65 -288.25 106.45 -287.35 106.25 -287.4 107.75 -285.0 106.45 -281.85 107.25 L-276.4 109.45 -278.35 110.7 -280.5 110.55 -281.9 110.7 Q-282.75 110.7 -283.15 111.4 -285.0 114.95 -288.05 115.45 L-293.65 115.4 -293.9 115.6 -294.2 115.55 Q-297.05 115.55 -299.1 118.3 -300.45 120.0 -302.4 124.5 -303.2 126.3 -302.4 127.75 -302.0 128.4 -301.65 127.9 L-301.0 126.95 Q-299.05 125.8 -298.35 124.75 -297.75 123.85 -297.35 124.45 L-296.85 125.85 -286.95 126.5 Q-278.55 126.45 -277.4 124.25 -276.75 123.05 -275.9 123.35 -275.4 123.45 -274.4 124.1 L-273.05 122.6 Q-272.15 121.95 -271.15 122.8 -272.1 123.85 -272.5 126.05 L-273.15 129.65 Q-273.2 131.2 -272.2 130.85 -271.15 130.5 -271.05 131.25 -271.05 132.2 -271.9 133.0 -272.8 133.85 -272.75 134.8 L-271.4 134.9 Q-270.5 134.55 -270.05 135.5 L-271.35 137.5 Q-272.2 138.7 -271.85 140.15 -271.35 142.4 -270.1 141.9 L-268.1 141.1 Q-266.65 139.2 -263.55 138.35 -260.15 137.4 -258.85 135.95 -259.0 137.05 -259.45 138.25 -257.9 141.3 -259.3 142.1 L-261.65 143.35 -262.8 144.4 -264.2 145.15 Q-264.5 145.9 -265.05 146.0 L-266.15 146.0 Q-266.15 146.25 -266.7 146.7 -267.2 147.1 -266.85 147.9 L-265.55 147.8 -265.35 147.65 Q-263.4 146.65 -262.25 146.65 -260.5 146.7 -259.15 148.6 -259.5 149.1 -261.15 149.55 -262.3 149.85 -262.4 151.55 -256.9 151.05 -253.05 153.75 -253.95 155.05 -255.2 155.3 L-257.4 155.35 -275.25 155.65 Q-275.75 155.65 -275.4 159.2 -275.1 162.4 -275.5 161.9 L-278.4 161.85 -279.65 161.8 -278.7 156.75 Q-279.6 158.0 -286.1 158.85 -294.0 159.85 -293.95 161.3 L-288.7 160.45 Q-285.7 160.1 -283.6 162.1 -282.95 161.2 -282.4 161.15 -281.75 161.1 -281.3 162.2 -281.1 161.75 -279.65 161.8 M-318.25 -0.4 L-318.0 -0.6 -318.25 -0.75 -318.25 -0.4 M-294.1 107.5 L-294.3 108.1 -294.55 110.5 Q-293.8 109.5 -294.1 107.5 M-286.7 112.2 L-286.7 112.45 -286.55 112.4 -286.7 112.2 M-295.65 197.3 L-295.9 195.9 -296.75 197.05 -295.65 197.3 M-294.85 210.6 Q-295.45 210.85 -295.45 211.4 -294.8 211.9 -294.0 211.6 L-294.85 210.6 M-333.25 20.1 L-332.4 21.1 Q-332.05 20.1 -333.25 20.1 M-367.7 72.15 L-367.65 71.5 -367.85 72.15 -367.7 72.15 M-362.75 97.2 Q-363.2 96.85 -363.3 97.55 L-362.75 97.2 M-343.05 84.85 Q-343.9 85.15 -343.7 86.35 L-343.05 84.85 M-378.7 156.35 L-378.8 156.3 -378.75 156.4 -378.7 156.35 M-346.45 187.85 L-346.35 187.55 -346.55 187.8 -346.45 187.85" fill="#743106" fill-rule="evenodd" stroke="none"/>
  </g>
</svg>
