<?xml version="1.0" encoding="UTF-8" standalone="no"?>
<svg xmlns:xlink="http://www.w3.org/1999/xlink" height="44.0px" width="1288.75px" xmlns="http://www.w3.org/2000/svg">
  <g transform="matrix(1.0, 0.0, 0.0, 1.0, 183.2, 0.5)">
    <path d="M1105.05 6.0 L1105.05 37.0 Q1105.05 43.0 1096.65 43.0 L-174.3 43.0 Q-182.7 43.0 -182.7 37.0 L-182.7 6.0 Q-182.7 0.0 -174.3 0.0 L1096.65 0.0 Q1105.05 0.0 1105.05 6.0" fill="#ffffff" fill-rule="evenodd" stroke="none"/>
    <path d="M1105.05 6.0 Q1105.05 0.0 1096.65 0.0 L-174.3 0.0 Q-182.7 0.0 -182.7 6.0 L-182.7 37.0 Q-182.7 43.0 -174.3 43.0 L1096.65 43.0 Q1105.05 43.0 1105.05 37.0 L1105.05 6.0 Z" fill="none" stroke="#231f20" stroke-linecap="round" stroke-linejoin="round" stroke-width="1.0"/>
  </g>
</svg>
