<?xml version="1.0" encoding="UTF-8" standalone="no"?>
<svg xmlns:xlink="http://www.w3.org/1999/xlink" height="84.3px" width="229.5px" xmlns="http://www.w3.org/2000/svg">
  <g transform="matrix(1.0, 0.0, 0.0, 1.0, -33.75, -258.35)">
    <path d="M159.55 278.1 Q158.7 278.5 158.25 279.25 L157.55 280.8 141.3 319.7 Q140.85 320.75 140.75 321.85 L141.0 322.75 141.45 323.25 170.25 323.25 173.75 318.1 176.3 313.4 180.05 323.25 197.15 323.25 180.4 280.75 180.1 280.1 179.6 279.15 178.85 278.4 Q178.5 278.1 178.3 278.1 L159.55 278.1 M76.7 289.75 L76.95 290.75 72.95 296.55 67.8 302.55 Q66.95 303.7 66.95 304.35 L67.1 305.25 67.65 306.4 83.4 306.4 85.45 304.5 85.7 304.0 86.8 302.55 88.95 299.7 92.35 294.75 Q93.25 293.5 93.35 291.45 L93.5 287.8 93.5 280.6 Q93.3 279.95 92.45 279.1 L90.75 278.1 45.3 278.1 45.3 323.25 61.4 323.25 61.4 289.35 76.15 289.35 76.7 289.75 M115.1 278.1 L98.95 278.1 98.95 323.25 134.4 323.25 Q135.0 323.25 135.5 321.5 L136.5 317.75 137.2 313.85 137.45 311.95 115.1 311.95 115.1 278.1 M33.75 258.35 L263.25 258.35 263.25 342.65 33.75 342.65 33.75 258.35 M217.5 278.1 L201.35 278.1 201.35 303.1 Q201.8 304.85 204.0 306.05 L233.15 306.05 233.15 310.0 232.8 311.2 231.55 311.95 201.35 311.95 201.55 313.85 202.25 317.75 203.25 321.5 Q203.8 323.25 204.4 323.25 L246.65 323.25 Q248.65 322.25 249.4 320.25 L249.4 278.1 233.15 278.1 233.15 293.35 Q232.9 294.3 231.95 294.75 L218.6 294.75 217.95 294.4 217.5 293.35 217.5 278.1 M169.05 292.25 L175.8 311.95 161.45 311.95 169.05 292.25" fill="#333333" fill-opacity="0.007843138" fill-rule="evenodd" stroke="none"/>
  </g>
</svg>
