<?xml version="1.0" encoding="UTF-8" standalone="no"?>
<svg xmlns:xlink="http://www.w3.org/1999/xlink" height="22.0px" width="17.0px" xmlns="http://www.w3.org/2000/svg">
  <g transform="matrix(1.0, 0.0, 0.0, 1.0, 0.0, 0.0)">
    <path d="M14.65 10.6 Q14.65 15.0 13.2 17.15 L17.0 22.0 13.0 22.0 11.15 19.55 Q9.55 20.9 7.3 20.9 3.85 20.9 1.9 18.05 0.0 15.25 0.0 10.6 0.0 5.8 1.9 2.9 3.85 0.0 7.3 0.0 10.8 0.0 12.75 2.9 14.65 5.8 14.65 10.6 M10.35 4.9 Q9.3 3.05 7.3 3.05 5.35 3.05 4.3 4.9 3.3 6.75 3.3 10.25 3.3 13.8 4.35 15.85 5.35 17.9 7.3 17.9 8.6 17.9 9.3 17.15 L4.85 11.4 8.75 11.4 11.0 14.2 Q11.35 13.1 11.35 10.25 11.35 6.75 10.35 4.9" fill="#ffffff" fill-rule="evenodd" stroke="none"/>
  </g>
</svg>
