<?xml version="1.0" encoding="UTF-8" standalone="no"?>
<svg xmlns:xlink="http://www.w3.org/1999/xlink" height="306.95px" width="829.55px" xmlns="http://www.w3.org/2000/svg">
  <g transform="matrix(1.0, 0.0, 0.0, 1.0, -48.25, -490.0)">
    <path d="M869.25 498.3 Q876.8 505.65 876.8 516.0 L876.8 770.95 Q876.8 781.3 869.25 788.6 861.7 795.95 851.1 795.95 L75.0 795.95 Q64.3 795.95 56.75 788.6 49.25 781.3 49.25 770.95 L49.25 516.0 Q49.25 505.65 56.75 498.3 64.3 491.0 75.0 491.0 L851.1 491.0 Q861.7 491.0 869.25 498.3" fill="#333333" fill-opacity="0.49803922" fill-rule="evenodd" stroke="none"/>
    <path d="M869.25 498.3 Q861.7 491.0 851.1 491.0 L75.0 491.0 Q64.3 491.0 56.75 498.3 49.25 505.65 49.25 516.0 L49.25 770.95 Q49.25 781.3 56.75 788.6 64.3 795.95 75.0 795.95 L851.1 795.95 Q861.7 795.95 869.25 788.6 876.8 781.3 876.8 770.95 L876.8 516.0 Q876.8 505.65 869.25 498.3 Z" fill="none" stroke="#666666" stroke-linecap="round" stroke-linejoin="round" stroke-width="2.0"/>
  </g>
</svg>
