<?xml version="1.0" encoding="UTF-8" standalone="no"?>
<svg xmlns:xlink="http://www.w3.org/1999/xlink" height="306.95px" width="331.8px" xmlns="http://www.w3.org/2000/svg">
  <g transform="matrix(1.0, 0.0, 0.0, 1.0, -923.65, -490.0)">
    <path d="M1246.9 498.3 Q1254.45 505.65 1254.45 516.0 L1254.45 770.95 Q1254.45 781.3 1246.9 788.6 1239.35 795.95 1228.75 795.95 L950.4 795.95 Q939.7 795.95 932.15 788.6 924.65 781.3 924.65 770.95 L924.65 516.0 Q924.65 505.65 932.15 498.3 939.7 491.0 950.4 491.0 L1228.75 491.0 Q1239.35 491.0 1246.9 498.3" fill="#333333" fill-opacity="0.49803922" fill-rule="evenodd" stroke="none"/>
    <path d="M1246.9 498.3 Q1239.35 491.0 1228.75 491.0 L950.4 491.0 Q939.7 491.0 932.15 498.3 924.65 505.65 924.65 516.0 L924.65 770.95 Q924.65 781.3 932.15 788.6 939.7 795.95 950.4 795.95 L1228.75 795.95 Q1239.35 795.95 1246.9 788.6 1254.45 781.3 1254.45 770.95 L1254.45 516.0 Q1254.45 505.65 1246.9 498.3 Z" fill="none" stroke="#666666" stroke-linecap="round" stroke-linejoin="round" stroke-width="2.0"/>
  </g>
</svg>
