<?xml version="1.0" encoding="UTF-8" standalone="no"?>
<svg xmlns:xlink="http://www.w3.org/1999/xlink" height="124.7px" width="124.7px" xmlns="http://www.w3.org/2000/svg">
  <g transform="matrix(1.0, 0.0, 0.0, 1.0, 62.35, 62.35)">
    <path d="M3.15 -62.35 L3.9 -62.35 3.9 -62.2 3.15 -62.2 3.15 -62.35 M7.0 -62.1 L7.3 -62.1 7.3 -61.9 7.0 -61.9 7.0 -62.1 M61.9 7.6 L61.9 7.95 61.75 7.95 61.75 7.6 61.9 7.6 M-61.7 -9.4 L-61.7 -9.7 -61.6 -9.7 -61.6 -9.4 -61.7 -9.4 M-9.65 -61.75 L-9.3 -61.75 -9.3 -61.6 -9.65 -61.6 -9.65 -61.75" fill="#7a7a7a" fill-opacity="0.4862745" fill-rule="evenodd" stroke="none"/>
    <path d="M-62.35 -2.35 L-62.35 -3.15 -62.2 -3.15 -62.35 -2.35 M-3.1 -62.35 L-2.3 -62.35 -3.1 -62.2 -3.1 -62.35 M2.2 -62.35 L3.15 -62.35 3.15 -62.2 2.2 -62.35" fill="#bfbfbf" fill-opacity="0.75686276" fill-rule="evenodd" stroke="none"/>
    <path d="M4.4 -62.2 L5.0 -62.2 5.5 -62.1 5.95 -62.1 6.25 -62.1 6.7 -62.1 7.0 -61.9 7.3 -61.9 7.7 -61.9 7.75 -61.9 8.15 -61.75 8.45 -61.75 8.75 -61.75 9.2 -61.75 9.5 -61.6 9.85 -61.6 10.15 -61.6 10.5 -61.45 10.75 -61.45 10.95 -61.45 11.25 -61.3 11.55 -61.3 11.7 -61.3 12.0 -61.15 12.3 -61.15 12.5 -61.15 12.75 -60.95 13.1 -60.95 Q29.85 -60.25 46.95 -40.5 53.75 -32.65 57.75 -24.75 61.65 -16.9 60.95 -12.95 L60.95 -12.65 61.15 -12.35 61.15 -12.2 61.15 -11.9 61.25 -11.6 61.25 -11.2 61.25 -10.95 61.45 -10.6 61.45 -10.35 61.45 -10.0 61.55 -9.7 61.55 -9.4 61.55 -8.9 61.75 -8.6 61.75 -8.3 61.75 -7.8 61.9 -7.55 61.9 -7.2 61.9 -6.9 61.9 -6.6 61.9 -6.25 62.05 -5.95 62.05 -5.5 62.05 -5.0 62.05 -4.55 62.25 -3.95 62.25 -3.15 62.25 -2.35 62.25 -0.35 62.25 0.3 62.25 2.15 62.25 3.1 62.25 3.85 62.05 4.45 62.05 4.95 62.05 5.45 62.05 5.9 61.9 6.4 61.9 6.65 61.9 7.0 61.9 7.25 61.75 7.6 61.75 7.95 61.75 8.2 61.75 8.4 61.55 8.7 61.55 9.0 61.55 9.35 61.55 9.65 61.45 9.95 61.45 10.25 61.45 10.4 61.25 10.75 61.25 11.0 61.25 11.4 61.15 11.65 61.15 12.0 61.15 12.15 60.95 12.45 60.95 12.75 60.8 13.55 60.65 13.85 60.65 14.2 Q57.25 33.45 40.25 47.4 26.65 58.6 13.55 60.75 L13.25 60.75 12.95 60.95 12.75 60.95 12.5 60.95 12.15 61.05 12.0 61.05 11.7 61.05 11.4 61.2 10.3 61.4 9.95 61.4 9.7 61.55 9.35 61.55 9.05 61.55 8.55 61.7 8.3 61.7 7.95 61.7 7.7 61.7 7.3 61.85 7.0 61.85 6.7 61.85 6.4 61.85 5.95 62.0 5.6 62.0 5.15 62.0 4.7 62.0 4.05 62.2 3.3 62.2 2.5 62.2 1.25 62.2 -5.65 62.3 -62.35 62.2 -62.35 -2.35 -62.2 -3.15 -62.2 -3.95 -62.2 -4.55 -62.2 -5.0 -62.05 -5.5 -62.05 -5.95 -62.05 -6.25 -62.05 -6.75 -61.85 -7.05 -61.85 -7.35 -61.85 -7.65 -61.85 -7.95 -61.7 -8.3 -61.7 -8.6 -61.7 -8.9 -61.7 -9.05 -61.6 -9.4 -61.6 -9.7 -61.6 -10.0 -61.6 -10.15 -61.4 -10.45 -61.4 -10.8 -60.95 -13.4 -60.8 -13.75 -60.8 -14.05 Q-60.25 -18.75 -55.8 -27.7 -51.75 -35.85 -49.6 -37.95 L-49.4 -38.1 -49.25 -38.35 Q-39.75 -48.85 -37.55 -49.75 L-37.25 -50.1 -36.9 -50.2 -36.65 -50.55 Q-30.6 -53.9 -24.85 -56.7 -16.6 -60.65 -14.05 -60.8 L-13.7 -60.8 -13.4 -60.95 -10.75 -61.45 -10.45 -61.45 -10.1 -61.6 -9.95 -61.6 -9.65 -61.6 -9.3 -61.6 Q-9.15 -61.65 -9.05 -61.75 L-8.85 -61.75 -8.55 -61.75 -8.25 -61.75 -7.9 -61.9 -7.65 -61.9 -7.3 -61.9 -7.05 -61.9 -6.65 -62.1 -6.25 -62.1 -5.9 -62.1 -5.45 -62.1 -5.0 -62.2 -4.5 -62.2 -3.85 -62.2 -3.1 -62.2 -2.3 -62.35 2.2 -62.35 3.15 -62.2 3.9 -62.2 4.4 -62.2 M3.45 -53.35 L2.8 -53.35 2.2 -53.35 -2.3 -53.35 -2.8 -53.35 -3.1 -53.35 -3.75 -53.35 -4.2 -53.15 -4.85 -53.15 -5.3 -53.15 -5.6 -53.15 -5.9 -53.0 -6.4 -53.0 -6.65 -53.0 -7.05 -53.0 -7.3 -52.9 -7.65 -52.9 -7.9 -52.9 -8.25 -52.75 -8.55 -52.75 -8.85 -52.75 -9.2 -52.55 -9.5 -52.55 -9.85 -52.55 -10.1 -52.4 -10.3 -52.4 -10.6 -52.4 -10.9 -52.25 -16.15 -50.45 -22.2 -48.6 Q-24.35 -48.1 -31.2 -43.15 -41.4 -35.8 -47.75 -23.0 -50.95 -16.5 -52.25 -10.95 L-52.4 -10.6 -52.4 -10.35 -52.4 -10.15 -52.5 -9.85 -52.5 -9.55 -52.5 -9.2 -52.7 -8.9 -52.7 -8.6 -52.7 -8.3 -52.85 -7.95 -52.85 -7.65 -52.85 -7.2 -53.0 -6.75 -53.0 -6.4 -53.0 -5.95 -53.15 -5.6 -53.15 -5.35 -53.15 -4.85 -53.15 -4.2 -53.3 -3.8 -53.3 -3.15 -53.3 -2.8 -53.3 -2.2 -53.3 53.15 -40.7 53.3 -40.7 53.15 -40.6 15.35 -40.5 -1.75 -40.5 -2.35 -40.5 -2.7 -40.5 -3.15 -40.5 -3.6 -40.35 -4.1 -40.35 -4.4 -40.35 -4.7 -40.35 -5.15 -40.2 -5.5 -40.2 -5.95 -40.2 -6.25 -40.05 -6.6 -40.05 -6.9 -40.05 -7.2 -39.9 -7.55 -39.9 -7.8 -38.9 -12.0 Q-37.7 -16.15 -35.5 -19.95 L-35.4 -20.15 -35.25 -20.45 -34.65 -21.55 -34.45 -21.7 -34.25 -22.0 -33.65 -22.95 -33.5 -23.15 -33.35 -23.4 -32.9 -24.0 -32.7 -24.2 -32.55 -24.5 -32.45 -24.65 -32.25 -24.8 -32.1 -25.15 -31.95 -25.3 -31.8 -25.4 -31.65 -25.6 -31.45 -25.95 -31.2 -26.2 -31.0 -26.4 -30.85 -26.55 -30.7 -26.7 -30.5 -27.0 -30.25 -27.3 -29.9 -27.6 -29.8 -27.75 -29.65 -27.95 -29.25 -28.2 -29.0 -28.55 -28.85 -28.7 -28.5 -29.0 -27.7 -29.8 -27.45 -30.15 Q-23.2 -34.7 -9.3 -39.6 L-9.05 -39.6 -8.7 -39.75 -8.4 -39.75 -8.1 -39.95 -7.65 -39.95 -7.15 -40.1 -6.85 -40.1 -6.55 -40.1 -6.25 -40.25 -5.75 -40.25 -5.45 -40.25 -5.1 -40.35 -4.65 -40.35 -4.35 -40.35 -3.85 -40.35 -3.6 -40.55 -2.95 -40.55 -2.3 -40.55 -1.55 -40.55 2.2 -40.55 2.8 -40.55 3.45 -40.55 3.9 -40.35 4.2 -40.35 4.5 -40.35 5.0 -40.35 5.3 -40.25 5.75 -40.25 6.1 -40.25 6.4 -40.1 6.7 -40.1 7.0 -40.1 7.3 -39.95 7.7 -39.95 7.75 -39.95 8.15 -39.75 8.45 -39.75 Q23.35 -35.45 32.5 -24.15 35.8 -20.05 37.65 -15.95 39.2 -12.45 38.95 -10.95 L39.15 -10.6 39.15 -10.35 39.3 -10.0 39.3 -9.7 39.45 -9.4 39.45 -9.05 39.6 -8.75 39.6 -8.3 39.75 -7.95 39.75 -7.65 39.9 -7.2 39.9 -6.75 40.1 -6.25 40.1 -5.8 40.1 -5.5 40.25 -5.0 40.25 -4.55 40.25 -4.2 40.25 -3.8 40.35 -3.4 40.35 -2.8 40.35 -2.2 40.35 -1.15 40.35 1.05 40.35 2.0 40.35 2.75 40.35 3.25 40.25 3.7 40.25 4.0 40.25 4.45 40.25 4.85 40.1 5.1 40.1 5.45 40.1 5.75 40.1 6.05 39.9 6.55 39.9 6.85 39.75 7.75 39.6 8.1 39.6 8.4 39.45 8.7 39.45 9.0 38.95 10.9 38.85 11.2 38.85 11.5 38.65 12.0 38.55 12.25 38.55 12.45 38.35 12.75 38.35 13.05 Q38.5 15.5 35.85 19.85 33.15 24.25 28.9 28.55 18.25 39.25 8.45 39.6 L8.15 39.6 7.75 39.75 7.7 39.75 7.3 39.75 7.0 39.85 6.7 39.85 6.4 39.85 6.1 40.05 5.6 40.05 5.3 40.05 5.0 40.2 4.5 40.2 4.05 40.2 3.75 40.2 3.45 40.35 2.8 40.35 2.35 40.35 1.7 40.35 -1.7 40.35 -2.5 40.35 -2.95 40.35 -3.6 40.35 -4.05 40.2 -4.35 40.2 -4.65 40.2 -5.1 40.2 -5.45 40.05 -5.75 40.05 -6.25 40.05 -6.55 39.85 -6.85 39.85 -13.4 38.15 -13.4 27.15 -13.4 20.55 -13.25 20.4 -9.25 22.25 -5.45 23.65 -5.1 23.8 -4.85 23.8 -4.65 23.8 -4.2 24.0 -3.85 24.0 -3.75 24.0 -3.4 24.15 -3.1 24.15 -2.8 24.15 -2.3 24.15 -2.05 24.25 -1.7 24.25 -0.9 24.25 1.4 24.25 1.7 24.25 2.2 24.15 2.7 24.15 2.95 24.15 3.3 24.15 3.6 24.0 3.75 24.0 4.05 24.0 4.5 23.8 4.7 23.8 5.0 23.8 5.3 23.65 Q10.55 22.75 15.5 18.35 20.3 14.1 22.75 8.55 L22.95 8.2 22.95 8.1 23.1 7.75 23.25 7.15 23.35 6.85 23.35 6.55 24.0 3.4 24.15 3.1 24.15 2.75 24.15 2.45 24.15 2.0 24.3 1.4 24.3 -1.4 24.3 -1.9 24.15 -2.2 24.15 -2.7 24.15 -3.0 24.15 -3.35 24.0 -3.6 23.85 -4.7 23.85 -5.0 23.7 -5.35 23.7 -5.5 23.7 -5.8 23.55 -6.15 Q19.45 -14.95 18.5 -15.9 14.85 -18.3 8.55 -22.95 L8.3 -23.15 8.15 -23.15 7.75 -23.2 5.3 -23.9 5.0 -24.0 4.7 -24.0 4.5 -24.0 4.2 -24.2 3.75 -24.2 3.45 -24.2 3.15 -24.35 2.8 -24.35 2.5 -24.35 2.2 -24.35 1.9 -24.5 1.4 -24.5 0.65 -24.5 -0.6 -24.5 -1.55 -24.5 -2.05 -24.5 -2.3 -24.35 -2.65 -24.35 -3.1 -24.35 -3.6 -24.2 -3.85 -24.2 -4.35 -24.2 -4.65 -24.0 -4.85 -24.0 -5.1 -24.0 -5.45 -23.9 Q-11.15 -22.0 -16.1 -17.9 -22.8 -12.4 -23.85 -5.5 L-24.0 -5.15 -24.0 -4.85 -24.0 -4.7 -24.15 -4.2 -24.15 -3.95 -24.15 -3.8 -24.3 -3.4 -24.3 -3.15 -24.3 -2.8 -24.3 -2.35 -24.45 -2.05 -24.45 -1.75 -24.45 -0.95 -24.35 5.5 -24.45 53.15 0.75 53.3 0.75 53.15 2.2 53.15 2.95 53.15 3.6 53.15 4.05 52.95 4.7 52.95 5.0 52.95 5.3 52.95 5.75 52.8 6.25 52.8 6.55 52.8 6.9 52.8 7.15 52.65 7.5 52.65 7.75 52.65 8.15 52.5 Q12.1 52.1 16.0 50.85 20.35 49.5 25.7 46.75 31.35 43.85 35.45 39.75 37.45 37.75 43.65 30.15 47.05 25.95 49.85 18.0 51.85 12.35 52.35 9.0 L52.5 8.7 52.5 8.4 52.5 8.1 52.7 7.6 52.7 7.25 52.7 7.0 52.9 6.55 52.9 6.2 52.9 5.75 53.0 5.45 53.0 5.1 53.0 4.85 53.0 4.45 53.0 4.0 53.15 3.4 53.15 2.75 53.15 1.85 53.15 -2.05 53.15 -2.7 53.15 -3.0 53.15 -3.6 53.15 -3.95 53.0 -4.2 53.0 -4.7 53.0 -5.0 53.0 -5.35 53.0 -5.6 52.9 -5.95 52.9 -6.4 52.9 -6.9 52.7 -7.2 52.7 -7.55 52.7 -7.8 52.5 -8.15 52.5 -8.6 52.5 -8.9 52.35 -9.2 Q52.55 -13.5 49.4 -20.2 46.15 -27.25 40.6 -33.8 26.6 -50.4 9.05 -52.55 L8.75 -52.75 8.45 -52.75 8.15 -52.75 7.75 -52.9 7.5 -52.9 7.0 -52.9 6.55 -53.0 6.25 -53.0 5.75 -53.0 5.3 -53.15 5.0 -53.15 4.7 -53.15 4.05 -53.15 3.45 -53.35" fill="#fefefe" fill-opacity="0.99607843" fill-rule="evenodd" stroke="none"/>
    <path d="M3.9 -62.35 L4.4 -62.2 3.9 -62.2 3.9 -62.35" fill="#3b3b3b" fill-opacity="0.23921569" fill-rule="evenodd" stroke="none"/>
    <path d="M5.5 -62.2 L5.95 -62.2 5.95 -62.1 5.5 -62.1 5.5 -62.2 M62.25 4.45 L62.25 4.95 62.05 4.95 62.05 4.45 62.25 4.45 M5.15 62.2 L4.7 62.2 4.7 62.0 5.15 62.0 5.15 62.2" fill="#767676" fill-opacity="0.47058824" fill-rule="evenodd" stroke="none"/>
    <path d="M5.95 -62.2 L6.25 -62.1 5.95 -62.1 5.95 -62.2 M61.9 7.95 L61.75 8.2 61.75 7.95 61.9 7.95 M-49.6 -37.95 L-49.4 -38.2 -49.4 -38.1 -49.6 -37.95" fill="#363636" fill-opacity="0.21960784" fill-rule="evenodd" stroke="none"/>
    <path d="M5.0 -62.2 L5.5 -62.2 5.5 -62.1 5.0 -62.2 M61.75 -8.9 L61.75 -8.6 61.55 -8.9 61.75 -8.9 M62.25 3.85 L62.25 4.45 62.05 4.45 62.25 3.85 M4.7 62.2 L4.05 62.2 4.7 62.0 4.7 62.2" fill="#b8b8b8" fill-opacity="0.7294118" fill-rule="evenodd" stroke="none"/>
    <path d="M6.7 -62.1 L7.0 -62.1 7.0 -61.9 6.7 -62.1 M61.45 -10.95 L61.45 -10.6 61.25 -10.95 61.45 -10.95 M-61.6 -10.15 L-61.6 -10.45 -61.4 -10.45 -61.6 -10.15 M-10.45 -61.6 L-10.1 -61.6 -10.45 -61.45 -10.45 -61.6" fill="#b2b2b2" fill-opacity="0.7058824" fill-rule="evenodd" stroke="none"/>
    <path d="M7.3 -62.1 L7.7 -61.9 7.3 -61.9 7.3 -62.1" fill="#3e3e3e" fill-opacity="0.2509804" fill-rule="evenodd" stroke="none"/>
    <path d="M8.15 -61.9 L8.45 -61.9 8.45 -61.75 8.15 -61.75 8.15 -61.9 M9.2 -61.75 L9.5 -61.75 9.5 -61.6 9.2 -61.75" fill="#969696" fill-opacity="0.59607846" fill-rule="evenodd" stroke="none"/>
    <path d="M7.75 -61.9 L8.15 -61.9 8.15 -61.75 7.75 -61.9 M7.7 61.85 L7.3 61.85 7.7 61.7 7.7 61.85" fill="#d6d6d6" fill-opacity="0.84705883" fill-rule="evenodd" stroke="none"/>
    <path d="M9.5 -61.75 L9.85 -61.6 9.5 -61.6 9.5 -61.75 M62.35 2.15 L62.25 3.1 62.25 2.15 62.35 2.15" fill="#404040" fill-opacity="0.25882354" fill-rule="evenodd" stroke="none"/>
    <path d="M8.45 -61.9 L8.75 -61.75 8.45 -61.75 8.45 -61.9 M9.35 61.55 L9.05 61.7 9.05 61.55 9.35 61.55 M8.3 61.7 L7.95 61.85 7.95 61.7 8.3 61.7 M-62.05 -7.35 L-61.85 -7.65 -61.85 -7.35 -62.05 -7.35 M-7.65 -61.9 L-7.3 -62.1 -7.3 -61.9 -7.65 -61.9" fill="#4e4e4e" fill-opacity="0.3137255" fill-rule="evenodd" stroke="none"/>
    <path d="M3.45 -53.35 L4.05 -53.15 3.45 -53.15 3.45 -53.35 M53.15 -3.95 L53.15 -3.6 53.0 -3.6 53.0 -3.95 53.15 -3.95" fill="#ffcbb0" fill-rule="evenodd" stroke="none"/>
    <path d="M2.8 -53.35 L3.45 -53.35 3.45 -53.15 2.8 -53.15 2.8 -53.35 M24.3 -1.4 L24.3 1.4 24.15 1.4 24.15 -1.4 24.3 -1.4" fill="#ffa372" fill-rule="evenodd" stroke="none"/>
    <path d="M4.05 -53.15 L4.7 -53.15 5.0 -53.0 5.3 -53.0 5.75 -53.0 6.25 -53.0 6.55 -52.9 7.0 -52.9 7.5 -52.9 7.75 -52.75 8.15 -52.75 8.45 -52.75 8.75 -52.55 9.05 -52.55 Q26.6 -50.4 40.6 -33.8 46.15 -27.25 49.4 -20.2 52.55 -13.5 52.35 -9.2 L52.35 -8.9 52.5 -8.6 52.5 -8.15 52.5 -7.8 52.7 -7.55 52.7 -7.2 52.7 -6.9 52.9 -6.4 52.9 -5.95 52.9 -5.6 52.9 -5.35 52.9 -5.0 53.0 -4.7 53.0 -4.2 53.0 -3.95 53.0 -3.6 53.0 -3.0 53.0 -2.7 53.15 -2.05 53.15 1.85 53.0 2.75 53.0 3.4 53.0 4.0 53.0 4.45 52.9 4.85 52.9 5.1 52.9 5.45 52.9 5.75 52.9 6.2 52.7 6.55 52.7 7.0 52.7 7.25 52.5 7.6 52.5 8.1 52.5 8.4 52.35 8.7 52.35 9.0 Q51.85 12.35 49.85 18.0 47.05 25.95 43.65 30.15 37.45 37.75 35.45 39.75 31.35 43.85 25.7 46.75 20.35 49.5 16.0 50.85 12.1 52.1 8.15 52.5 L7.75 52.5 7.5 52.65 7.15 52.65 6.9 52.65 6.55 52.65 6.25 52.8 5.75 52.8 5.3 52.8 5.0 52.8 4.7 52.95 4.05 52.95 3.6 52.95 2.95 52.95 2.2 53.15 0.75 53.15 -24.45 53.15 -24.35 5.5 -24.3 -0.95 -24.3 -1.75 -24.3 -2.05 -24.3 -2.35 -24.3 -2.8 -24.15 -3.15 -24.15 -3.4 -24.15 -3.8 -24.15 -3.95 -24.0 -4.2 -24.0 -4.7 -24.0 -4.85 -23.85 -5.15 -23.85 -5.5 Q-22.8 -12.4 -16.1 -17.9 -11.15 -22.0 -5.45 -23.9 L-5.1 -23.9 -4.85 -24.0 -4.65 -24.0 -4.35 -24.0 -3.85 -24.2 -3.6 -24.2 -3.1 -24.2 -2.65 -24.35 -2.3 -24.35 -2.05 -24.35 -1.55 -24.35 -0.6 -24.35 0.65 -24.35 1.4 -24.35 1.9 -24.35 2.2 -24.35 2.5 -24.35 2.8 -24.2 3.15 -24.2 3.45 -24.2 3.75 -24.2 4.2 -24.0 4.5 -24.0 4.7 -24.0 5.0 -23.9 5.3 -23.9 7.75 -23.2 7.95 -23.15 8.3 -22.95 8.55 -22.95 Q14.85 -18.3 18.5 -15.9 19.45 -14.95 23.55 -6.15 L23.55 -5.8 23.7 -5.5 23.7 -5.35 23.7 -5.0 23.85 -4.7 24.0 -3.6 24.0 -3.35 24.0 -3.0 24.15 -2.7 24.15 -2.2 24.15 -1.9 24.15 -1.4 24.15 1.4 24.15 2.0 24.15 2.45 24.0 2.75 24.0 3.1 24.0 3.4 23.35 6.55 23.25 6.85 23.25 7.15 23.1 7.75 22.95 7.95 22.75 8.2 22.75 8.55 Q20.3 14.1 15.5 18.35 10.55 22.75 5.3 23.65 L5.0 23.65 4.7 23.8 4.5 23.8 4.05 23.8 3.75 24.0 3.6 24.0 3.3 24.0 2.95 24.0 2.7 24.15 2.2 24.15 1.7 24.15 1.4 24.15 -0.9 24.15 -1.7 24.15 -2.05 24.15 -2.3 24.15 -2.8 24.15 -3.1 24.0 -3.4 24.0 -3.75 24.0 -3.85 24.0 -4.2 23.8 -4.65 23.8 -4.85 23.8 -5.1 23.65 -5.45 23.65 -9.25 22.25 -13.25 20.4 -13.55 20.55 -13.4 27.15 -13.4 38.15 -6.85 39.85 -6.55 40.05 -6.25 40.05 -5.75 40.05 -5.45 40.2 -5.1 40.2 -4.65 40.2 -4.35 40.35 -4.05 40.35 -3.6 40.35 -2.95 40.35 -2.5 40.55 -1.7 40.55 1.7 40.55 2.35 40.55 2.8 40.35 3.45 40.35 3.75 40.35 4.05 40.35 4.5 40.2 5.0 40.2 5.3 40.2 5.6 40.05 6.1 40.05 6.4 40.05 6.7 39.85 7.0 39.85 7.3 39.85 7.7 39.75 7.75 39.75 8.15 39.75 8.45 39.6 Q18.25 39.25 28.9 28.55 33.15 24.25 35.85 19.85 38.5 15.5 38.35 13.05 L38.55 12.75 38.55 12.6 38.65 12.25 38.65 12.0 38.85 11.5 38.95 11.2 38.95 10.9 39.45 9.0 39.6 8.7 39.6 8.4 39.75 8.1 39.75 7.75 39.9 6.85 40.1 6.55 40.1 6.05 40.1 5.75 40.25 5.45 40.25 5.1 40.25 4.85 40.25 4.45 40.35 4.0 40.35 3.7 40.35 3.25 40.35 2.75 40.55 2.0 40.55 1.05 40.55 -1.15 40.55 -2.2 40.55 -2.8 40.35 -3.4 40.35 -3.8 40.35 -4.2 40.35 -4.55 40.25 -5.15 40.25 -5.5 40.25 -5.8 40.1 -6.4 40.1 -6.75 39.9 -7.35 39.9 -7.65 39.75 -8.3 39.6 -9.05 39.45 -9.7 39.3 -10.35 39.15 -10.95 38.95 -12.2 50.2 -9.55 Q50.8 -11.55 48.9 -16.6 46.95 -21.7 43.4 -27.35 34.45 -41.6 24.5 -45.75 L10.55 -50.5 Q5.9 -51.85 1.1 -51.9 L-20.9 -47.4 -29.8 -40.85 -39.1 -33.7 -38.3 -33.05 Q-35.1 -33.15 -32.35 -32.3 L-27.5 -30.35 -27.6 -30.15 -27.7 -29.95 -28.65 -29.0 -28.85 -28.9 -29.0 -28.7 -29.45 -28.2 -29.65 -28.1 -29.8 -27.95 -29.9 -27.75 -30.25 -27.3 -30.5 -27.0 -30.7 -26.8 -30.85 -26.7 -31.0 -26.55 -31.2 -26.2 -31.45 -25.95 -31.65 -25.75 -31.8 -25.6 -31.95 -25.3 -32.1 -25.15 -32.25 -24.95 -32.45 -24.65 -32.55 -24.5 -32.7 -24.35 -32.9 -24.0 -33.35 -23.4 -33.5 -23.2 -33.65 -22.95 -34.25 -22.0 -34.45 -21.85 -34.65 -21.55 -35.25 -20.45 -35.4 -20.3 -35.5 -19.95 Q-37.7 -16.15 -38.9 -12.0 L-39.9 -7.8 -40.05 -7.55 -40.05 -7.2 -40.05 -6.9 -40.2 -6.6 -40.2 -6.25 -40.2 -5.95 -40.35 -5.5 -40.35 -5.15 -40.35 -4.7 -40.5 -4.4 -40.5 -4.1 -40.5 -3.6 -40.5 -3.15 -40.7 -2.7 -40.7 -2.35 -40.7 -1.75 -40.6 15.35 -40.7 53.15 -53.3 53.15 -53.3 -2.2 -53.15 -2.8 -53.15 -3.15 -53.15 -3.8 -53.15 -4.2 -53.15 -4.85 -53.0 -5.35 -53.0 -5.6 -53.0 -5.95 -53.0 -6.4 -52.85 -6.75 -52.85 -7.2 -52.85 -7.65 -52.7 -7.95 -52.7 -8.3 -52.7 -8.6 -52.5 -8.9 -52.5 -9.2 -52.5 -9.55 -52.4 -9.85 -52.4 -10.15 -52.4 -10.35 -52.25 -10.6 -52.25 -10.95 Q-50.95 -16.5 -47.75 -23.0 -41.4 -35.8 -31.2 -43.15 -24.35 -48.1 -22.2 -48.6 L-16.15 -50.45 -10.9 -52.25 -10.6 -52.25 -10.3 -52.4 -10.1 -52.4 -9.85 -52.4 -9.5 -52.55 -9.2 -52.55 -8.85 -52.55 -8.55 -52.75 -8.25 -52.75 -7.9 -52.75 -7.65 -52.9 -7.3 -52.9 -7.05 -52.9 -6.65 -52.9 -6.4 -53.0 -5.9 -53.0 -5.6 -53.0 -5.3 -53.0 -4.85 -53.15 -4.2 -53.15 -3.75 -53.15 -3.1 -53.15 -2.8 -53.15 -2.3 -53.35 2.2 -53.35 2.8 -53.15 3.45 -53.15 4.05 -53.15 M19.35 -12.35 Q15.85 -17.1 12.45 -19.45 7.05 -23.15 -0.15 -23.15 L-5.3 -22.25 Q-9.4 -21.3 -10.9 -20.6 L-16.35 -15.25 -19.45 -12.5 Q-3.05 -7.6 8.35 -4.6 19.0 -1.85 21.0 -1.85 22.15 -1.85 22.6 -2.2 L22.65 -2.65 21.8 -5.85 19.35 -12.35" fill="#ff600b" fill-rule="evenodd" stroke="none"/>
    <path d="M2.2 -53.35 L2.8 -53.35 2.8 -53.15 2.2 -53.35" fill="#ff813e" fill-rule="evenodd" stroke="none"/>
    <path d="M5.0 -53.15 L5.3 -53.15 5.3 -53.0 5.0 -53.0 5.0 -53.15 M-0.9 24.25 L-1.7 24.25 -1.7 24.15 -0.9 24.15 -0.9 24.25 M-30.5 -27.0 L-30.7 -26.7 -30.7 -26.8 -30.5 -27.0" fill="#ffa474" fill-rule="evenodd" stroke="none"/>
    <path d="M4.7 -53.15 L5.0 -53.15 5.0 -53.0 4.7 -53.15 M39.6 -8.3 L39.6 -8.75 39.6 -9.05 39.75 -8.3 39.6 -8.3 M19.35 -12.35 L21.8 -5.85 22.65 -2.65 22.6 -2.2 Q22.15 -1.85 21.0 -1.85 19.0 -1.85 8.35 -4.6 -3.05 -7.6 -19.45 -12.5 L-16.35 -15.25 -10.9 -20.6 Q17.5 -12.6 19.35 -12.35" fill="#ff8747" fill-rule="evenodd" stroke="none"/>
    <path d="M7.75 -52.9 L8.15 -52.75 7.75 -52.75 7.75 -52.9 M6.1 40.05 L6.4 39.85 6.4 40.05 6.1 40.05 M-40.05 -6.6 L-40.2 -6.25 -40.2 -6.6 -40.05 -6.6 M-8.25 -52.75 L-7.9 -52.9 -7.9 -52.75 -8.25 -52.75" fill="#ffd0b8" fill-rule="evenodd" stroke="none"/>
    <path d="M7.5 -52.9 L7.75 -52.9 7.75 -52.75 7.5 -52.9" fill="#ff9861" fill-rule="evenodd" stroke="none"/>
    <path d="M8.45 -52.75 L8.75 -52.75 8.75 -52.55 8.45 -52.75 M-52.7 -8.6 L-52.7 -8.9 -52.5 -8.9 -52.7 -8.6 M-8.85 -52.75 L-8.55 -52.75 -8.85 -52.55 -8.85 -52.75" fill="#ff9258" fill-rule="evenodd" stroke="none"/>
    <path d="M5.3 -53.15 L5.75 -53.0 5.3 -53.0 5.3 -53.15 M4.05 52.95 L3.6 53.15 3.6 52.95 4.05 52.95 M-24.15 -4.2 L-24.0 -4.7 -24.0 -4.2 -24.15 -4.2" fill="#ffccb1" fill-rule="evenodd" stroke="none"/>
    <path d="M6.55 -53.0 L7.0 -52.9 6.55 -52.9 6.55 -53.0 M-5.45 -40.25 L-5.75 -40.25 -5.75 -40.35 -5.45 -40.35 -5.45 -40.25 M-53.0 -6.75 L-52.85 -7.2 -52.85 -6.75 -53.0 -6.75" fill="#ffc1a0" fill-rule="evenodd" stroke="none"/>
    <path d="M6.25 -53.0 L6.55 -53.0 6.55 -52.9 6.25 -53.0 M-29.8 -27.75 L-29.9 -27.6 -29.9 -27.75 -29.8 -27.95 -29.8 -27.75 M-6.65 -53.0 L-6.4 -53.0 -6.65 -52.9 -6.65 -53.0 M-3.1 -53.35 L-2.8 -53.35 -2.8 -53.15 -3.1 -53.15 -3.1 -53.35" fill="#ff8f52" fill-rule="evenodd" stroke="none"/>
    <path d="M8.75 -52.75 L9.05 -52.55 8.75 -52.55 8.75 -52.75 M39.45 -9.4 L39.3 -9.7 39.45 -9.7 39.45 -9.4 M-52.7 -8.9 L-52.5 -9.2 -52.5 -8.9 -52.7 -8.9 M-9.2 -52.55 L-8.85 -52.75 -8.85 -52.55 -9.2 -52.55" fill="#ffc8ab" fill-rule="evenodd" stroke="none"/>
    <path d="M12.75 -61.15 L13.1 -60.95 12.75 -60.95 12.75 -61.15 M12.75 60.95 L12.5 61.05 12.5 60.95 12.75 60.95" fill="#646464" fill-opacity="0.4" fill-rule="evenodd" stroke="none"/>
    <path d="M11.7 -61.3 L12.0 -61.3 12.0 -61.15 11.7 -61.3 M12.5 -61.15 L12.75 -61.15 12.75 -60.95 12.5 -61.15 M12.5 61.05 L12.15 61.05 12.5 60.95 12.5 61.05" fill="#d0d0d0" fill-opacity="0.8235294" fill-rule="evenodd" stroke="none"/>
    <path d="M12.0 -61.3 L12.3 -61.15 12.0 -61.15 12.0 -61.3" fill="#6c6c6c" fill-opacity="0.43137255" fill-rule="evenodd" stroke="none"/>
    <path d="M10.95 -61.45 L11.25 -61.45 11.25 -61.3 10.95 -61.45 M62.35 -0.35 L62.35 0.3 62.25 0.3 62.25 -0.35 62.35 -0.35" fill="#bababa" fill-opacity="0.7372549" fill-rule="evenodd" stroke="none"/>
    <path d="M11.25 -61.45 L11.55 -61.3 11.25 -61.3 11.25 -61.45 M12.0 61.05 L11.7 61.2 11.7 61.05 12.0 61.05" fill="#626262" fill-opacity="0.39215687" fill-rule="evenodd" stroke="none"/>
    <path d="M10.5 -61.6 L10.75 -61.45 10.5 -61.45 10.5 -61.6 M61.55 9.95 L61.45 10.25 61.45 9.95 61.55 9.95" fill="#484848" fill-opacity="0.2901961" fill-rule="evenodd" stroke="none"/>
    <path d="M10.15 -61.6 L10.5 -61.6 10.5 -61.45 10.15 -61.6 M61.55 9.65 L61.55 9.95 61.45 9.95 61.55 9.65" fill="#a0a0a0" fill-opacity="0.63529414" fill-rule="evenodd" stroke="none"/>
    <path d="M-9.05 -39.6 L-9.3 -39.6 Q-9.15 -39.65 -9.05 -39.75 L-9.05 -39.6 M1.1 -51.9 Q5.9 -51.85 10.55 -50.5 L24.5 -45.75 Q19.75 -46.35 12.6 -48.45 L1.1 -51.9" fill="#ffa473" fill-rule="evenodd" stroke="none"/>
    <path d="M22.95 8.1 L22.95 8.2 22.75 8.2 22.95 7.95 22.95 8.1 M38.95 -10.95 Q39.2 -12.45 37.65 -15.95 35.8 -20.05 32.5 -24.15 23.35 -35.45 8.45 -39.75 L8.15 -39.95 7.75 -39.95 7.7 -39.95 7.3 -40.1 7.0 -40.1 6.7 -40.1 6.4 -40.25 6.1 -40.25 5.75 -40.25 5.3 -40.35 5.0 -40.35 4.5 -40.35 4.2 -40.55 3.9 -40.55 3.45 -40.55 2.8 -40.55 2.2 -40.75 -1.55 -40.75 -2.3 -40.75 2.8 -41.0 -20.9 -47.4 1.1 -51.9 12.6 -48.45 Q19.75 -46.35 24.5 -45.75 34.45 -41.6 43.4 -27.35 46.95 -21.7 48.9 -16.6 50.8 -11.55 50.2 -9.55 L38.95 -12.2 39.15 -10.95 38.95 -10.95" fill="#ff945b" fill-rule="evenodd" stroke="none"/>
    <path d="M4.5 -40.35 L4.2 -40.35 4.2 -40.55 4.5 -40.35" fill="#ffb188" fill-rule="evenodd" stroke="none"/>
    <path d="M4.2 -40.35 L3.9 -40.35 3.9 -40.55 4.2 -40.55 4.2 -40.35" fill="#ffc7ab" fill-rule="evenodd" stroke="none"/>
    <path d="M3.9 -40.35 L3.45 -40.55 3.9 -40.55 3.9 -40.35" fill="#ffdfce" fill-rule="evenodd" stroke="none"/>
    <path d="M2.8 -40.55 L2.2 -40.55 2.2 -40.75 2.8 -40.55" fill="#ffb68d" fill-rule="evenodd" stroke="none"/>
    <path d="M2.2 -40.55 L-1.55 -40.55 -1.55 -40.75 2.2 -40.75 2.2 -40.55" fill="#ffdfd0" fill-rule="evenodd" stroke="none"/>
    <path d="M5.75 -40.25 L5.3 -40.25 5.3 -40.35 5.75 -40.25" fill="#ffba95" fill-rule="evenodd" stroke="none"/>
    <path d="M7.15 52.65 L6.9 52.8 6.9 52.65 7.15 52.65 M22.95 8.2 L22.75 8.55 22.75 8.2 22.95 8.2 M5.3 -40.25 L5.0 -40.35 5.3 -40.35 5.3 -40.25 M-6.25 -40.25 L-6.55 -40.1 -6.55 -40.25 -6.4 -40.25 -6.25 -40.25 M-7.3 -52.9 L-7.05 -53.0 -7.05 -52.9 -7.3 -52.9" fill="#ffdcca" fill-rule="evenodd" stroke="none"/>
    <path d="M3.45 40.35 L3.75 40.2 3.75 40.35 3.45 40.35 M40.35 -3.4 L40.25 -3.8 40.35 -3.8 40.35 -3.4 M6.4 -40.1 L6.1 -40.25 6.4 -40.25 6.4 -40.1" fill="#ffddca" fill-rule="evenodd" stroke="none"/>
    <path d="M7.7 -39.95 L7.3 -39.95 7.3 -40.1 7.7 -39.95" fill="#ffb58d" fill-rule="evenodd" stroke="none"/>
    <path d="M7.3 -39.95 L7.0 -40.1 7.3 -40.1 7.3 -39.95" fill="#ffdbc7" fill-rule="evenodd" stroke="none"/>
    <path d="M6.7 -40.1 L6.4 -40.1 6.4 -40.25 6.7 -40.1" fill="#ffbb97" fill-rule="evenodd" stroke="none"/>
    <path d="M24.15 -3.35 L24.15 -3.0 24.0 -3.0 24.0 -3.35 24.15 -3.35 M24.15 2.75 L24.15 3.1 24.0 3.1 24.0 2.75 24.15 2.75 M8.45 -39.75 L8.15 -39.75 8.15 -39.95 8.45 -39.75" fill="#ffb085" fill-rule="evenodd" stroke="none"/>
    <path d="M8.15 -39.75 L7.75 -39.95 8.15 -39.95 8.15 -39.75 M-5.1 -40.35 L-5.45 -40.25 -5.45 -40.35 -5.1 -40.35" fill="#ffdbc8" fill-rule="evenodd" stroke="none"/>
    <path d="M8.3 -23.15 L8.55 -22.95 8.3 -22.95 8.3 -23.15" fill="#ffdac7" fill-rule="evenodd" stroke="none"/>
    <path d="M8.15 -23.15 L8.3 -23.15 8.3 -22.95 7.95 -23.15 8.15 -23.15" fill="#ff9257" fill-rule="evenodd" stroke="none"/>
    <path d="M7.75 -23.2 L8.15 -23.15 7.95 -23.15 7.75 -23.2" fill="#ffd2bc" fill-rule="evenodd" stroke="none"/>
    <path d="M4.2 -24.2 L4.5 -24.0 4.2 -24.0 4.2 -24.2 M5.0 -24.0 L5.3 -23.9 5.0 -23.9 5.0 -24.0" fill="#ffdecc" fill-rule="evenodd" stroke="none"/>
    <path d="M3.75 -24.2 L4.2 -24.2 4.2 -24.0 3.75 -24.2 M4.7 -24.0 L5.0 -24.0 5.0 -23.9 4.7 -24.0 M-5.75 40.05 L-5.45 40.05 -5.45 40.2 -5.75 40.05 M5.3 40.05 L5.6 40.05 5.3 40.2 5.3 40.05" fill="#ffa270" fill-rule="evenodd" stroke="none"/>
    <path d="M3.15 -24.35 L3.45 -24.2 3.15 -24.2 3.15 -24.35" fill="#ffceb2" fill-rule="evenodd" stroke="none"/>
    <path d="M2.8 -24.35 L3.15 -24.35 3.15 -24.2 2.8 -24.2 2.8 -24.35 M40.1 -5.5 L40.1 -5.8 40.25 -5.8 40.25 -5.5 40.1 -5.5 M-33.35 -23.4 L-33.5 -23.15 -33.5 -23.2 -33.35 -23.4" fill="#ffa677" fill-rule="evenodd" stroke="none"/>
    <path d="M2.5 -24.35 L2.8 -24.35 2.8 -24.2 2.5 -24.35" fill="#ff8542" fill-rule="evenodd" stroke="none"/>
    <path d="M-4.65 -24.0 L-4.35 -24.2 -4.35 -24.0 -4.65 -24.0 M-2.3 -24.35 L-2.05 -24.5 -2.05 -24.35 -2.3 -24.35 M1.9 -24.5 L2.2 -24.35 1.9 -24.35 1.9 -24.5 M3.6 24.0 L3.3 24.15 3.3 24.0 3.6 24.0" fill="#ffddcb" fill-rule="evenodd" stroke="none"/>
    <path d="M-2.05 -24.5 L-1.55 -24.5 -1.55 -24.35 -2.05 -24.35 -2.05 -24.5 M1.4 -24.5 L1.9 -24.5 1.9 -24.35 1.4 -24.35 1.4 -24.5 M24.3 -1.9 L24.3 -1.4 24.15 -1.4 24.15 -1.9 24.3 -1.9" fill="#ffc2a1" fill-rule="evenodd" stroke="none"/>
    <path d="M0.65 -24.5 L1.4 -24.5 1.4 -24.35 0.65 -24.35 0.65 -24.5" fill="#ffa371" fill-rule="evenodd" stroke="none"/>
    <path d="M-0.6 -24.5 L0.65 -24.5 0.65 -24.35 -0.6 -24.35 -0.6 -24.5" fill="#ff823e" fill-rule="evenodd" stroke="none"/>
    <path d="M4.05 40.2 L4.5 40.2 4.05 40.35 4.05 40.2 M-6.85 -40.1 L-7.15 -40.1 -6.85 -40.25 -6.85 -40.1 M-10.9 -20.6 Q-9.4 -21.3 -5.3 -22.25 L-0.15 -23.15 Q7.05 -23.15 12.45 -19.45 15.85 -17.1 19.35 -12.35 17.5 -12.6 -10.9 -20.6" fill="#ff9a64" fill-rule="evenodd" stroke="none"/>
    <path d="M23.7 -5.8 L23.7 -5.5 23.55 -5.8 23.7 -5.8" fill="#ff9962" fill-rule="evenodd" stroke="none"/>
    <path d="M-24.0 -5.15 L-23.85 -5.5 -23.85 -5.15 -24.0 -5.15 M23.55 -6.15 L23.7 -5.8 23.55 -5.8 23.55 -6.15 M5.3 23.65 L5.0 23.8 5.0 23.65 5.3 23.65 M-5.1 23.8 L-5.45 23.65 -5.1 23.65 -5.1 23.8" fill="#ffd7c1" fill-rule="evenodd" stroke="none"/>
    <path d="M23.7 -5.35 L23.85 -5.0 23.7 -5.0 23.7 -5.35" fill="#ffc9ab" fill-rule="evenodd" stroke="none"/>
    <path d="M-24.15 -3.95 L-24.15 -4.2 -24.0 -4.2 -24.15 -3.95 M23.85 -5.0 L23.85 -4.7 23.7 -5.0 23.85 -5.0 M24.15 -3.0 L24.15 -2.7 24.0 -3.0 24.15 -3.0 M24.15 2.45 L24.15 2.75 24.0 2.75 24.15 2.45 M-3.85 24.0 L-4.2 24.0 -4.2 23.8 -3.85 24.0" fill="#ff8b4d" fill-rule="evenodd" stroke="none"/>
    <path d="M53.15 3.4 L53.0 4.0 53.0 3.4 53.15 3.4 M-24.45 -2.05 L-24.3 -2.35 -24.3 -2.05 -24.45 -2.05 M24.0 -3.6 L24.15 -3.35 24.0 -3.35 24.0 -3.6 M24.15 3.1 L24.0 3.4 24.0 3.1 24.15 3.1 M-52.5 -9.85 L-52.4 -10.15 -52.4 -9.85 -52.5 -9.85 M-52.4 -10.6 L-52.25 -10.95 -52.25 -10.6 -52.4 -10.6 M-10.9 -52.25 L-10.6 -52.4 -10.6 -52.25 -10.9 -52.25 M-10.1 -52.4 L-9.85 -52.55 -9.85 -52.4 -10.1 -52.4" fill="#ffd4bd" fill-rule="evenodd" stroke="none"/>
    <path d="M-24.3 -3.4 L-24.15 -3.8 -24.15 -3.4 -24.3 -3.4 M24.15 -2.2 L24.3 -1.9 24.15 -1.9 24.15 -2.2 M-2.05 24.25 L-2.3 24.15 -2.05 24.15 -2.05 24.25 M-3.4 24.15 L-3.75 24.0 -3.4 24.0 -3.4 24.15" fill="#ffd9c4" fill-rule="evenodd" stroke="none"/>
    <path d="M39.75 -7.95 L39.6 -8.3 39.75 -8.3 39.75 -7.95 M39.15 -10.6 L38.95 -10.95 39.15 -10.95 39.15 -10.6" fill="#ffc2a2" fill-rule="evenodd" stroke="none"/>
    <path d="M38.55 12.45 L38.55 12.25 38.65 12.25 38.55 12.6 38.55 12.45 M39.15 -10.35 L39.15 -10.6 39.15 -10.95 39.3 -10.35 39.15 -10.35" fill="#ff8849" fill-rule="evenodd" stroke="none"/>
    <path d="M39.3 -9.7 L39.3 -10.0 39.3 -10.35 39.45 -9.7 39.3 -9.7" fill="#ff8848" fill-rule="evenodd" stroke="none"/>
    <path d="M39.45 -9.05 L39.45 -9.4 39.45 -9.7 39.6 -9.05 39.45 -9.05" fill="#ff8644" fill-rule="evenodd" stroke="none"/>
    <path d="M39.3 -10.0 L39.15 -10.35 39.3 -10.35 39.3 -10.0" fill="#ffc8ac" fill-rule="evenodd" stroke="none"/>
    <path d="M39.6 -8.75 L39.45 -9.05 39.6 -9.05 39.6 -8.75" fill="#ffbb98" fill-rule="evenodd" stroke="none"/>
    <path d="M53.0 -5.0 L53.0 -4.7 52.9 -5.0 53.0 -5.0 M53.0 4.45 L53.0 4.85 52.9 4.85 53.0 4.45 M5.0 52.95 L4.7 52.95 5.0 52.8 5.0 52.95 M39.75 -7.65 L39.75 -7.95 39.75 -8.3 39.9 -7.65 39.75 -7.65" fill="#ff8240" fill-rule="evenodd" stroke="none"/>
    <path d="M39.9 -6.75 L39.9 -7.2 39.9 -7.35 40.1 -6.75 39.9 -6.75" fill="#ff8645" fill-rule="evenodd" stroke="none"/>
    <path d="M39.9 -7.2 L39.75 -7.65 39.9 -7.65 39.9 -7.35 39.9 -7.2" fill="#ffb995" fill-rule="evenodd" stroke="none"/>
    <path d="M40.1 -6.25 L39.9 -6.75 40.1 -6.75 40.1 -6.4 40.1 -6.25" fill="#ffbd9a" fill-rule="evenodd" stroke="none"/>
    <path d="M40.25 -4.55 L40.25 -5.0 40.25 -5.15 40.35 -4.55 40.25 -4.55 M40.1 -5.8 L40.1 -6.25 40.1 -6.4 40.25 -5.8 40.1 -5.8" fill="#ff823f" fill-rule="evenodd" stroke="none"/>
    <path d="M24.3 1.4 L24.15 2.0 24.15 1.4 24.3 1.4 M40.25 -5.0 L40.1 -5.5 40.25 -5.5 40.25 -5.15 40.25 -5.0" fill="#ffd0b6" fill-rule="evenodd" stroke="none"/>
    <path d="M40.25 -4.2 L40.25 -4.55 40.35 -4.55 40.35 -4.2 40.25 -4.2" fill="#ffa16f" fill-rule="evenodd" stroke="none"/>
    <path d="M40.25 -3.8 L40.25 -4.2 40.35 -4.2 40.35 -3.8 40.25 -3.8" fill="#ffc09f" fill-rule="evenodd" stroke="none"/>
    <path d="M6.4 39.85 L6.7 39.85 6.4 40.05 6.4 39.85 M40.35 -2.2 L40.35 -2.8 40.55 -2.8 40.55 -2.2 40.35 -2.2 M-40.05 -6.9 L-40.05 -6.6 -40.2 -6.6 -40.05 -6.9" fill="#ff9d69" fill-rule="evenodd" stroke="none"/>
    <path d="M40.35 -1.15 L40.35 -2.2 40.55 -2.2 40.55 -1.15 40.35 -1.15" fill="#ffbd9b" fill-rule="evenodd" stroke="none"/>
    <path d="M53.15 -2.7 L53.15 -2.05 53.0 -2.7 53.15 -2.7 M40.35 -2.8 L40.35 -3.4 40.55 -2.8 40.35 -2.8 M-2.8 -53.35 L-2.3 -53.35 -2.8 -53.15 -2.8 -53.35" fill="#ff803c" fill-rule="evenodd" stroke="none"/>
    <path d="M52.35 -9.2 L52.5 -8.9 52.35 -8.9 52.35 -9.2 M52.5 8.7 L52.35 9.0 52.35 8.7 52.5 8.7 M-52.85 -7.95 L-52.7 -8.3 -52.7 -7.95 -52.85 -7.95" fill="#ffd1b8" fill-rule="evenodd" stroke="none"/>
    <path d="M52.5 -8.9 L52.5 -8.6 52.35 -8.9 52.5 -8.9 M52.5 8.4 L52.5 8.7 52.35 8.7 52.5 8.4" fill="#ff9762" fill-rule="evenodd" stroke="none"/>
    <path d="M52.5 -8.15 L52.7 -7.8 52.5 -7.8 52.5 -8.15" fill="#ffbf9e" fill-rule="evenodd" stroke="none"/>
    <path d="M52.7 -7.8 L52.7 -7.55 52.5 -7.8 52.7 -7.8 M52.7 7.25 L52.7 7.6 52.5 7.6 52.7 7.25 M38.35 13.05 L38.35 12.75 38.55 12.75 38.35 13.05" fill="#ff894b" fill-rule="evenodd" stroke="none"/>
    <path d="M52.7 -7.2 L52.9 -6.9 52.7 -6.9 52.7 -7.2" fill="#ffd3bc" fill-rule="evenodd" stroke="none"/>
    <path d="M52.9 -6.9 L52.9 -6.4 52.7 -6.9 52.9 -6.9 M-40.5 -2.7 L-40.5 -2.35 -40.7 -2.35 -40.7 -2.7 -40.5 -2.7" fill="#ffa271" fill-rule="evenodd" stroke="none"/>
    <path d="M52.9 -5.95 L53.0 -5.6 52.9 -5.6 52.9 -5.95 M53.0 -4.2 L53.15 -3.95 53.0 -3.95 53.0 -4.2" fill="#ffdccb" fill-rule="evenodd" stroke="none"/>
    <path d="M53.0 -5.6 L53.0 -5.35 52.9 -5.35 52.9 -5.6 53.0 -5.6 M53.0 5.1 L53.0 5.45 52.9 5.45 52.9 5.1 53.0 5.1" fill="#ffba96" fill-rule="evenodd" stroke="none"/>
    <path d="M53.0 -5.35 L53.0 -5.0 52.9 -5.0 52.9 -5.35 53.0 -5.35 M53.0 4.85 L53.0 5.1 52.9 5.1 52.9 4.85 53.0 4.85" fill="#ff9f6d" fill-rule="evenodd" stroke="none"/>
    <path d="M53.15 -3.6 L53.15 -3.0 53.0 -3.0 53.0 -3.6 53.15 -3.6 M53.15 2.75 L53.15 3.4 53.0 3.4 53.0 2.75 53.15 2.75" fill="#ffaa7d" fill-rule="evenodd" stroke="none"/>
    <path d="M53.15 -3.0 L53.15 -2.7 53.0 -2.7 53.0 -3.0 53.15 -3.0 M-53.3 -2.8 L-53.3 -3.15 -53.15 -3.15 -53.15 -2.8 -53.3 -2.8 M-53.0 -6.4 L-53.0 -6.75 -52.85 -6.75 -53.0 -6.4" fill="#ff8e53" fill-rule="evenodd" stroke="none"/>
    <path d="M60.95 -12.95 L61.15 -12.65 60.95 -12.65 60.95 -12.95 M61.15 -12.2 L61.25 -11.9 61.15 -11.9 61.15 -12.2" fill="#343434" fill-opacity="0.21176471" fill-rule="evenodd" stroke="none"/>
    <path d="M61.15 -12.65 L61.15 -12.35 60.95 -12.65 61.15 -12.65" fill="#a2a2a2" fill-opacity="0.6431373" fill-rule="evenodd" stroke="none"/>
    <path d="M61.25 -11.9 L61.25 -11.6 61.15 -11.9 61.25 -11.9" fill="#989898" fill-opacity="0.6039216" fill-rule="evenodd" stroke="none"/>
    <path d="M61.25 -11.2 L61.45 -10.95 61.25 -10.95 61.25 -11.2 M61.75 -8.3 L61.9 -7.8 61.75 -7.8 61.75 -8.3" fill="#585858" fill-opacity="0.3529412" fill-rule="evenodd" stroke="none"/>
    <path d="M61.45 -10.35 L61.55 -10.0 61.45 -10.0 61.45 -10.35 M61.55 -9.4 L61.75 -8.9 61.55 -8.9 61.55 -9.4 M10.3 61.4 L9.95 61.55 9.95 61.4 10.3 61.4 M-61.6 -10.45 L-61.4 -10.8 -61.4 -10.45 -61.6 -10.45 M-10.75 -61.45 L-10.45 -61.6 -10.45 -61.45 -10.75 -61.45" fill="#606060" fill-opacity="0.38431373" fill-rule="evenodd" stroke="none"/>
    <path d="M61.55 -10.0 L61.55 -9.7 61.45 -10.0 61.55 -10.0 M9.95 61.55 L9.7 61.55 9.95 61.4 9.95 61.55" fill="#b0b0b0" fill-opacity="0.69803923" fill-rule="evenodd" stroke="none"/>
    <path d="M61.9 -7.8 L61.9 -7.55 61.75 -7.8 61.9 -7.8 M62.05 5.9 L62.05 6.4 61.9 6.4 62.05 5.9" fill="#aeaeae" fill-opacity="0.6901961" fill-rule="evenodd" stroke="none"/>
    <path d="M61.9 -7.2 L62.05 -6.9 61.9 -6.9 61.9 -7.2" fill="#262626" fill-opacity="0.15686275" fill-rule="evenodd" stroke="none"/>
    <path d="M62.05 -6.9 L62.05 -6.6 61.9 -6.6 61.9 -6.9 62.05 -6.9" fill="#5e5e5e" fill-opacity="0.3764706" fill-rule="evenodd" stroke="none"/>
    <path d="M62.05 -6.6 L62.05 -6.25 61.9 -6.25 61.9 -6.6 62.05 -6.6" fill="#8e8e8e" fill-opacity="0.5647059" fill-rule="evenodd" stroke="none"/>
    <path d="M62.05 -6.25 L62.05 -5.95 61.9 -6.25 62.05 -6.25 M-61.85 -7.95 L-61.85 -8.3 -61.7 -8.3 -61.85 -7.95 M-8.25 -61.9 L-7.9 -61.9 -8.25 -61.75 -8.25 -61.9" fill="#c6c6c6" fill-opacity="0.78431374" fill-rule="evenodd" stroke="none"/>
    <path d="M62.05 -5.5 L62.25 -5.0 62.05 -5.0 62.05 -5.5" fill="#434343" fill-opacity="0.27058825" fill-rule="evenodd" stroke="none"/>
    <path d="M62.25 -5.0 L62.25 -4.55 62.05 -4.55 62.05 -5.0 62.25 -5.0 M62.35 -2.35 L62.35 -0.35 62.25 -0.35 62.25 -2.35 62.35 -2.35 M6.7 62.0 L6.4 62.0 6.4 61.85 6.7 61.85 6.7 62.0" fill="#7e7e7e" fill-opacity="0.5019608" fill-rule="evenodd" stroke="none"/>
    <path d="M62.25 -4.55 L62.25 -3.95 62.05 -4.55 62.25 -4.55 M13.25 60.95 L12.95 60.95 13.25 60.75 13.25 60.95" fill="#bcbcbc" fill-opacity="0.74509805" fill-rule="evenodd" stroke="none"/>
    <path d="M62.25 -3.15 L62.35 -2.35 62.25 -2.35 62.25 -3.15" fill="#3f3f3f" fill-opacity="0.25490198" fill-rule="evenodd" stroke="none"/>
    <path d="M40.35 1.05 L40.35 -1.15 40.55 -1.15 40.55 1.05 40.35 1.05" fill="#ffdbc9" fill-rule="evenodd" stroke="none"/>
    <path d="M62.35 0.3 L62.35 2.15 62.25 2.15 62.25 0.3 62.35 0.3" fill="#7f7f7f" fill-opacity="0.5058824" fill-rule="evenodd" stroke="none"/>
    <path d="M62.25 4.95 L62.05 5.45 62.05 4.95 62.25 4.95 M61.75 9.0 L61.55 9.35 61.55 9.0 61.75 9.0 M5.6 62.0 L5.15 62.2 5.15 62.0 5.6 62.0 M-61.85 -8.6 L-61.7 -8.9 -61.7 -8.6 -61.85 -8.6 M-8.85 -61.75 L-8.55 -61.9 -8.55 -61.75 -8.85 -61.75" fill="#383838" fill-opacity="0.22745098" fill-rule="evenodd" stroke="none"/>
    <path d="M62.05 6.4 L62.05 6.65 61.9 6.65 61.9 6.4 62.05 6.4" fill="#6e6e6e" fill-opacity="0.4392157" fill-rule="evenodd" stroke="none"/>
    <path d="M62.05 6.65 L61.9 7.0 61.9 6.65 62.05 6.65" fill="#323232" fill-opacity="0.20392157" fill-rule="evenodd" stroke="none"/>
    <path d="M61.9 7.25 L61.9 7.6 61.75 7.6 61.9 7.25 M6.4 62.0 L5.95 62.0 6.4 61.85 6.4 62.0" fill="#bebebe" fill-opacity="0.7529412" fill-rule="evenodd" stroke="none"/>
    <path d="M61.75 8.7 L61.75 9.0 61.55 9.0 61.55 8.7 61.75 8.7" fill="#888888" fill-opacity="0.5411765" fill-rule="evenodd" stroke="none"/>
    <path d="M61.75 8.4 L61.75 8.7 61.55 8.7 61.75 8.4 M-61.7 -9.05 L-61.7 -9.4 -61.6 -9.4 -61.7 -9.05 M-9.3 -61.75 L-9.05 -61.75 Q-9.15 -61.65 -9.3 -61.6 L-9.3 -61.75" fill="#cecece" fill-opacity="0.8156863" fill-rule="evenodd" stroke="none"/>
    <path d="M61.45 10.4 L61.45 10.75 61.25 10.75 61.45 10.4" fill="#c8c8c8" fill-opacity="0.7921569" fill-rule="evenodd" stroke="none"/>
    <path d="M61.45 10.75 L61.25 11.0 61.25 10.75 61.45 10.75" fill="#727272" fill-opacity="0.45490196" fill-rule="evenodd" stroke="none"/>
    <path d="M61.25 11.4 L61.25 11.65 61.15 11.65 61.25 11.4 M61.15 12.15 L61.15 12.45 60.95 12.45 61.15 12.15" fill="#b4b4b4" fill-opacity="0.7137255" fill-rule="evenodd" stroke="none"/>
    <path d="M61.25 11.65 L61.15 12.0 61.15 11.65 61.25 11.65 M61.15 12.45 L60.95 12.75 60.95 12.45 61.15 12.45 M13.55 60.75 L13.25 60.95 13.25 60.75 13.55 60.75" fill="#525252" fill-opacity="0.32941177" fill-rule="evenodd" stroke="none"/>
    <path d="M60.8 13.55 L60.8 13.85 60.65 13.85 60.8 13.55" fill="#cacaca" fill-opacity="0.8" fill-rule="evenodd" stroke="none"/>
    <path d="M53.15 1.85 L53.15 2.75 53.0 2.75 53.15 1.85" fill="#ff8341" fill-rule="evenodd" stroke="none"/>
    <path d="M53.0 5.45 L52.9 5.75 52.9 5.45 53.0 5.45 M23.1 7.75 L22.95 8.1 22.95 7.95 23.1 7.75 M39.45 8.7 L39.6 8.4 39.6 8.7 39.45 8.7" fill="#ffd8c3" fill-rule="evenodd" stroke="none"/>
    <path d="M52.9 6.2 L52.9 6.55 52.7 6.55 52.9 6.2" fill="#ff9862" fill-rule="evenodd" stroke="none"/>
    <path d="M52.9 6.55 L52.7 7.0 52.7 6.55 52.9 6.55" fill="#ffc9ad" fill-rule="evenodd" stroke="none"/>
    <path d="M52.7 7.6 L52.5 8.1 52.5 7.6 52.7 7.6" fill="#ffcaae" fill-rule="evenodd" stroke="none"/>
    <path d="M40.35 2.0 L40.35 1.05 40.55 1.05 40.55 2.0 40.35 2.0" fill="#ffbb96" fill-rule="evenodd" stroke="none"/>
    <path d="M60.8 13.85 L60.65 14.2 60.65 13.85 60.8 13.85" fill="#5c5c5c" fill-opacity="0.36862746" fill-rule="evenodd" stroke="none"/>
    <path d="M40.35 2.75 L40.35 2.0 40.55 2.0 40.35 2.75 M-9.85 -52.55 L-9.5 -52.55 -9.85 -52.4 -9.85 -52.55" fill="#ff975f" fill-rule="evenodd" stroke="none"/>
    <path d="M40.25 4.0 L40.25 3.7 40.35 3.7 40.35 4.0 40.25 4.0" fill="#ffb893" fill-rule="evenodd" stroke="none"/>
    <path d="M40.25 4.45 L40.25 4.0 40.35 4.0 40.25 4.45" fill="#ff965e" fill-rule="evenodd" stroke="none"/>
    <path d="M40.1 5.1 L40.25 4.85 40.25 5.1 40.1 5.1 M40.25 3.7 L40.35 3.25 40.35 3.7 40.25 3.7 M-40.35 -4.1 L-40.5 -3.6 -40.5 -4.1 -40.35 -4.1" fill="#ffd6c0" fill-rule="evenodd" stroke="none"/>
    <path d="M-24.3 -3.15 L-24.3 -3.4 -24.15 -3.4 -24.15 -3.15 -24.3 -3.15 M3.3 24.15 L2.95 24.15 2.95 24.0 3.3 24.0 3.3 24.15 M-3.1 24.15 L-3.4 24.15 -3.4 24.0 -3.1 24.0 -3.1 24.15 M40.1 5.45 L40.1 5.1 40.25 5.1 40.25 5.45 40.1 5.45 M-40.5 -2.35 L-40.5 -1.75 -40.7 -1.75 -40.7 -2.35 -40.5 -2.35" fill="#ffb48c" fill-rule="evenodd" stroke="none"/>
    <path d="M40.1 5.75 L40.1 5.45 40.25 5.45 40.1 5.75" fill="#ff8f53" fill-rule="evenodd" stroke="none"/>
    <path d="M39.9 6.85 L39.9 6.55 40.1 6.55 39.9 6.85 M-40.5 -3.15 L-40.5 -2.7 -40.7 -2.7 -40.5 -3.15" fill="#ff8646" fill-rule="evenodd" stroke="none"/>
    <path d="M39.9 6.55 L40.1 6.05 40.1 6.55 39.9 6.55" fill="#ffb994" fill-rule="evenodd" stroke="none"/>
    <path d="M39.6 8.1 L39.75 7.75 39.75 8.1 39.6 8.1" fill="#ffc3a2" fill-rule="evenodd" stroke="none"/>
    <path d="M39.6 8.4 L39.6 8.1 39.75 8.1 39.6 8.4 M-35.4 -20.15 L-35.5 -19.95 -35.4 -20.3 -35.4 -20.15" fill="#ff8c4f" fill-rule="evenodd" stroke="none"/>
    <path d="M39.45 9.0 L39.45 8.7 39.6 8.7 39.45 9.0" fill="#ff9b65" fill-rule="evenodd" stroke="none"/>
    <path d="M38.85 11.2 L38.95 10.9 38.95 11.2 38.85 11.2" fill="#ffd5be" fill-rule="evenodd" stroke="none"/>
    <path d="M7.75 52.65 L7.5 52.65 7.75 52.5 7.75 52.65 M38.85 11.5 L38.85 11.2 38.95 11.2 38.85 11.5 M-27.45 -30.15 L-27.7 -29.8 -27.7 -29.95 -27.6 -30.15 -27.45 -30.15" fill="#ff935a" fill-rule="evenodd" stroke="none"/>
    <path d="M38.55 12.25 L38.65 12.0 38.65 12.25 38.55 12.25" fill="#ffc6a8" fill-rule="evenodd" stroke="none"/>
    <path d="M23.35 6.85 L23.25 7.15 23.25 6.85 23.35 6.85 M-1.7 40.35 L1.7 40.35 1.7 40.55 -1.7 40.55 -1.7 40.35 M-53.15 -5.6 L-53.0 -5.95 -53.0 -5.6 -53.15 -5.6 M-5.9 -53.0 L-5.6 -53.15 -5.6 -53.0 -5.9 -53.0" fill="#ffd5bf" fill-rule="evenodd" stroke="none"/>
    <path d="M23.35 6.55 L23.35 6.85 23.25 6.85 23.35 6.55 M-2.95 -40.55 L-3.6 -40.55 -3.85 -40.55 -4.2 -40.55 -4.2 -40.75 -2.95 -40.75 -2.95 -40.55 M-4.65 -40.35 L-5.1 -40.35 -5.45 -40.35 -4.65 -40.55 -4.65 -40.35 M-28.85 -28.7 L-29.0 -28.55 -29.0 -28.7 -28.85 -28.9 -28.85 -28.7" fill="#ff9760" fill-rule="evenodd" stroke="none"/>
    <path d="M0.75 53.15 L0.75 53.3 -24.45 53.15 0.75 53.15 M5.0 40.2 L5.3 40.05 5.3 40.2 5.0 40.2 M38.35 12.75 L38.55 12.45 38.55 12.6 38.55 12.75 38.35 12.75 M-39.9 -7.55 L-40.05 -7.2 -40.05 -7.55 -39.9 -7.55 M-40.2 -5.5 L-40.35 -5.15 -40.35 -5.5 -40.2 -5.5 M-40.7 53.15 L-40.7 53.3 -53.3 53.15 -40.7 53.15" fill="#ffceb4" fill-rule="evenodd" stroke="none"/>
    <path d="M2.2 24.15 L1.7 24.25 1.7 24.15 2.2 24.15" fill="#ffd3ba" fill-rule="evenodd" stroke="none"/>
    <path d="M1.7 24.25 L1.4 24.25 1.4 24.15 1.7 24.15 1.7 24.25" fill="#ffb993" fill-rule="evenodd" stroke="none"/>
    <path d="M6.55 52.8 L6.25 52.8 6.55 52.65 6.55 52.8 M1.4 24.25 L-0.9 24.25 -0.9 24.15 1.4 24.15 1.4 24.25" fill="#ff8a4b" fill-rule="evenodd" stroke="none"/>
    <path d="M4.05 24.0 L3.75 24.0 4.05 23.8 4.05 24.0 M2.95 24.15 L2.7 24.15 2.95 24.0 2.95 24.15 M-2.8 24.15 L-3.1 24.15 -3.1 24.0 -2.8 24.15" fill="#ff9054" fill-rule="evenodd" stroke="none"/>
    <path d="M4.5 23.8 L4.05 24.0 4.05 23.8 4.5 23.8 M-4.2 24.0 L-4.65 23.8 -4.2 23.8 -4.2 24.0" fill="#ffcdb1" fill-rule="evenodd" stroke="none"/>
    <path d="M5.3 52.95 L5.0 52.95 5.0 52.8 5.3 52.8 5.3 52.95 M-24.0 -4.85 L-24.0 -5.15 -23.85 -5.15 -24.0 -4.85 M-5.1 -24.0 L-4.85 -24.0 -5.1 -23.9 -5.1 -24.0 M5.0 23.8 L4.7 23.8 5.0 23.65 5.0 23.8 M-4.85 23.8 L-5.1 23.8 -5.1 23.65 -4.85 23.8" fill="#ffa06c" fill-rule="evenodd" stroke="none"/>
    <path d="M7.75 39.75 L8.15 39.6 8.15 39.75 7.75 39.75 M-3.85 -40.35 L-4.35 -40.35 -4.35 -40.55 -4.2 -40.55 -3.85 -40.55 -3.85 -40.35" fill="#ffcdb2" fill-rule="evenodd" stroke="none"/>
    <path d="M8.15 39.6 L8.45 39.6 8.15 39.75 8.15 39.6" fill="#ff8d4e" fill-rule="evenodd" stroke="none"/>
    <path d="M7.0 39.85 L7.3 39.75 7.3 39.85 7.0 39.85" fill="#ffcfb4" fill-rule="evenodd" stroke="none"/>
    <path d="M7.3 39.75 L7.7 39.75 7.3 39.85 7.3 39.75 M-39.9 -7.8 L-39.9 -7.55 -40.05 -7.55 -39.9 -7.8" fill="#ff945a" fill-rule="evenodd" stroke="none"/>
    <path d="M3.75 40.2 L4.05 40.2 4.05 40.35 3.75 40.35 3.75 40.2" fill="#ffc09d" fill-rule="evenodd" stroke="none"/>
    <path d="M1.7 40.35 L2.35 40.35 2.35 40.55 1.7 40.55 1.7 40.35" fill="#ffae83" fill-rule="evenodd" stroke="none"/>
    <path d="M-2.95 40.35 L-2.5 40.35 -2.5 40.55 -2.95 40.35 M2.35 40.35 L2.8 40.35 2.35 40.55 2.35 40.35 M-31.0 -26.4 L-31.2 -26.2 -31.0 -26.55 -31.0 -26.4 M-5.3 -53.15 L-4.85 -53.15 -5.3 -53.0 -5.3 -53.15" fill="#ff8d50" fill-rule="evenodd" stroke="none"/>
    <path d="M11.7 61.2 L11.4 61.2 11.7 61.05 11.7 61.2 M-62.05 -6.75 L-62.05 -7.05 -61.85 -7.05 -62.05 -6.75 M-7.05 -62.1 L-6.65 -62.1 -7.05 -61.9 -7.05 -62.1" fill="#c2c2c2" fill-opacity="0.76862746" fill-rule="evenodd" stroke="none"/>
    <path d="M8.15 52.5 L7.75 52.65 7.75 52.5 8.15 52.5" fill="#ffccb2" fill-rule="evenodd" stroke="none"/>
    <path d="M6.9 52.8 L6.55 52.8 6.55 52.65 6.9 52.65 6.9 52.8 M-40.35 -4.4 L-40.35 -4.1 -40.5 -4.1 -40.5 -4.4 -40.35 -4.4 M-53.15 -5.35 L-53.15 -5.6 -53.0 -5.6 -53.0 -5.35 -53.15 -5.35 M-5.6 -53.15 L-5.3 -53.15 -5.3 -53.0 -5.6 -53.0 -5.6 -53.15" fill="#ffb087" fill-rule="evenodd" stroke="none"/>
    <path d="M5.75 52.8 L5.3 52.95 5.3 52.8 5.75 52.8" fill="#ffc7aa" fill-rule="evenodd" stroke="none"/>
    <path d="M3.6 53.15 L2.95 53.15 2.95 52.95 3.6 52.95 3.6 53.15" fill="#ffa879" fill-rule="evenodd" stroke="none"/>
    <path d="M2.95 53.15 L2.2 53.15 2.95 52.95 2.95 53.15" fill="#ff8340" fill-rule="evenodd" stroke="none"/>
    <path d="M7.0 61.85 L6.7 62.0 6.7 61.85 7.0 61.85" fill="#4a4a4a" fill-opacity="0.29803923" fill-rule="evenodd" stroke="none"/>
    <path d="M7.95 61.85 L7.7 61.85 7.7 61.7 7.95 61.7 7.95 61.85" fill="#949494" fill-opacity="0.5882353" fill-rule="evenodd" stroke="none"/>
    <path d="M9.05 61.7 L8.55 61.7 9.05 61.55 9.05 61.7" fill="#acacac" fill-opacity="0.68235296" fill-rule="evenodd" stroke="none"/>
    <path d="M2.5 62.35 L1.25 62.35 1.25 62.2 2.5 62.2 2.5 62.35 M-62.2 -5.5 L-62.2 -5.95 -62.05 -5.95 -62.05 -5.5 -62.2 -5.5 M-61.85 -8.3 L-61.85 -8.6 -61.7 -8.6 -61.7 -8.3 -61.85 -8.3 M-8.55 -61.9 L-8.25 -61.9 -8.25 -61.75 -8.55 -61.75 -8.55 -61.9 M-5.9 -62.2 L-5.45 -62.2 -5.45 -62.1 -5.9 -62.1 -5.9 -62.2" fill="#808080" fill-opacity="0.50980395" fill-rule="evenodd" stroke="none"/>
    <path d="M1.25 62.35 L-5.65 62.3 1.25 62.2 1.25 62.35" fill="#bdbdbd" fill-opacity="0.7490196" fill-rule="evenodd" stroke="none"/>
    <path d="M3.3 62.2 L2.5 62.35 2.5 62.2 3.3 62.2" fill="#424242" fill-opacity="0.26666668" fill-rule="evenodd" stroke="none"/>
    <path d="M-62.05 -7.05 L-62.05 -7.35 -61.85 -7.35 -61.85 -7.05 -62.05 -7.05 M-7.3 -62.1 L-7.05 -62.1 -7.05 -61.9 -7.3 -61.9 -7.3 -62.1" fill="#8a8a8a" fill-opacity="0.54901963" fill-rule="evenodd" stroke="none"/>
    <path d="M-62.2 -5.0 L-62.2 -5.5 -62.05 -5.5 -62.2 -5.0 M-5.45 -62.2 L-5.0 -62.2 -5.45 -62.1 -5.45 -62.2" fill="#c3c3c3" fill-opacity="0.77254903" fill-rule="evenodd" stroke="none"/>
    <path d="M-62.2 -5.95 L-62.05 -6.25 -62.05 -5.95 -62.2 -5.95 M-6.25 -62.1 L-5.9 -62.2 -5.9 -62.1 -6.25 -62.1" fill="#464646" fill-opacity="0.28235295" fill-rule="evenodd" stroke="none"/>
    <path d="M-62.35 -3.15 L-62.35 -3.95 -62.2 -3.95 -62.2 -3.15 -62.35 -3.15 M-3.85 -62.35 L-3.1 -62.35 -3.1 -62.2 -3.85 -62.2 -3.85 -62.35" fill="#818181" fill-opacity="0.5137255" fill-rule="evenodd" stroke="none"/>
    <path d="M-62.35 -3.95 L-62.2 -4.55 -62.2 -3.95 -62.35 -3.95 M-4.5 -62.2 L-3.85 -62.35 -3.85 -62.2 -4.5 -62.2" fill="#3c3c3c" fill-opacity="0.24313726" fill-rule="evenodd" stroke="none"/>
    <path d="M-14.05 -60.8 L-13.7 -60.95 -13.7 -60.8 -14.05 -60.8" fill="#2e2e2e" fill-opacity="0.1882353" fill-rule="evenodd" stroke="none"/>
    <path d="M-13.7 -60.95 L-13.4 -60.95 -13.7 -60.8 -13.7 -60.95" fill="#a4a4a4" fill-opacity="0.6509804" fill-rule="evenodd" stroke="none"/>
    <path d="M-40.35 -4.7 L-40.35 -4.4 -40.5 -4.4 -40.35 -4.7 M-10.6 -52.4 L-10.3 -52.4 -10.6 -52.25 -10.6 -52.4" fill="#ff9156" fill-rule="evenodd" stroke="none"/>
    <path d="M-61.7 -9.7 L-61.6 -10.0 -61.6 -9.7 -61.7 -9.7 M-9.95 -61.6 L-9.65 -61.75 -9.65 -61.6 -9.95 -61.6" fill="#303030" fill-opacity="0.19607843" fill-rule="evenodd" stroke="none"/>
    <path d="M-7.05 -53.0 L-6.65 -53.0 -6.65 -52.9 -7.05 -52.9 -7.05 -53.0" fill="#ffb58e" fill-rule="evenodd" stroke="none"/>
    <path d="M-13.25 20.4 L-13.4 20.55 -13.55 20.55 -13.25 20.4 M-7.9 -52.9 L-7.65 -52.9 -7.9 -52.75 -7.9 -52.9" fill="#ff9a63" fill-rule="evenodd" stroke="none"/>
    <path d="M-53.3 -3.15 L-53.3 -3.8 -53.15 -3.8 -53.15 -3.15 -53.3 -3.15 M-3.75 -53.35 L-3.1 -53.35 -3.1 -53.15 -3.75 -53.15 -3.75 -53.35" fill="#ffab7f" fill-rule="evenodd" stroke="none"/>
    <path d="M-7.15 -40.1 L-7.65 -39.95 -7.65 -40.1 -7.15 -40.1 M-53.3 -3.8 L-53.15 -4.2 -53.15 -3.8 -53.3 -3.8 M-4.2 -53.15 L-3.75 -53.35 -3.75 -53.15 -4.2 -53.15" fill="#ffd1b9" fill-rule="evenodd" stroke="none"/>
    <path d="M-49.4 -38.2 L-49.25 -38.35 -49.4 -38.1 -49.4 -38.2" fill="#4f4f4f" fill-opacity="0.31764707" fill-rule="evenodd" stroke="none"/>
    <path d="M-60.95 -13.75 L-60.8 -14.05 -60.8 -13.75 -60.95 -13.75" fill="#2c2c2c" fill-opacity="0.18039216" fill-rule="evenodd" stroke="none"/>
    <path d="M-60.95 -13.4 L-60.95 -13.75 -60.8 -13.75 -60.95 -13.4" fill="#9c9c9c" fill-opacity="0.61960787" fill-rule="evenodd" stroke="none"/>
    <path d="M-32.25 -24.8 L-32.45 -24.65 -32.25 -24.95 -32.25 -24.8 M-52.4 -10.35 L-52.4 -10.6 -52.25 -10.6 -52.4 -10.35" fill="#ff9056" fill-rule="evenodd" stroke="none"/>
    <path d="M-52.5 -9.55 L-52.5 -9.85 -52.4 -9.85 -52.5 -9.55" fill="#ff9660" fill-rule="evenodd" stroke="none"/>
    <path d="M-52.85 -7.65 L-52.85 -7.95 -52.7 -7.95 -52.85 -7.65" fill="#ff9964" fill-rule="evenodd" stroke="none"/>
    <path d="M-32.7 -24.2 L-32.9 -24.0 -32.7 -24.35 -32.7 -24.2 M-53.15 -4.85 L-53.15 -5.35 -53.0 -5.35 -53.15 -4.85" fill="#ff9055" fill-rule="evenodd" stroke="none"/>
    <path d="M-53.3 -2.2 L-53.3 -2.8 -53.15 -2.8 -53.3 -2.2" fill="#ff7f3a" fill-rule="evenodd" stroke="none"/>
    <path d="M-9.3 -39.6 Q-23.2 -34.7 -27.45 -30.15 L-27.6 -30.15 -27.5 -30.35 -32.35 -32.3 Q-35.1 -33.15 -38.3 -33.05 L-39.1 -33.7 -29.8 -40.85 -20.9 -47.4 2.8 -41.0 -2.3 -40.75 -2.95 -40.75 -4.2 -40.75 -4.2 -40.55 -4.35 -40.55 -4.65 -40.55 -5.45 -40.35 -5.75 -40.35 -6.4 -40.25 -6.55 -40.25 -6.85 -40.25 -7.15 -40.1 -7.65 -40.1 -8.1 -39.95 -8.4 -39.95 -8.7 -39.75 -9.05 -39.75 Q-9.15 -39.65 -9.3 -39.6" fill="#ff894a" fill-rule="evenodd" stroke="none"/>
    <path d="M-6.55 -40.1 L-6.85 -40.1 -6.85 -40.25 -6.55 -40.25 -6.55 -40.1" fill="#ffb892" fill-rule="evenodd" stroke="none"/>
    <path d="M-5.75 -40.25 L-6.25 -40.25 -6.4 -40.25 -5.75 -40.35 -5.75 -40.25" fill="#ff9c67" fill-rule="evenodd" stroke="none"/>
    <path d="M-7.65 -39.95 L-8.1 -39.95 -7.65 -40.1 -7.65 -39.95" fill="#ff9a65" fill-rule="evenodd" stroke="none"/>
    <path d="M-8.1 -39.95 L-8.4 -39.75 -8.4 -39.95 -8.1 -39.95" fill="#ffc3a3" fill-rule="evenodd" stroke="none"/>
    <path d="M-8.4 -39.75 L-8.7 -39.75 -8.4 -39.95 -8.4 -39.75" fill="#ff9b66" fill-rule="evenodd" stroke="none"/>
    <path d="M-4.05 40.2 L-3.6 40.35 -4.05 40.35 -4.05 40.2 M-8.7 -39.75 L-9.05 -39.6 -9.05 -39.75 -8.7 -39.75" fill="#ffd3bb" fill-rule="evenodd" stroke="none"/>
    <path d="M-1.55 -40.55 L-2.3 -40.55 -2.3 -40.75 -1.55 -40.75 -1.55 -40.55" fill="#ffcdb3" fill-rule="evenodd" stroke="none"/>
    <path d="M-2.3 -40.55 L-2.95 -40.55 -2.95 -40.75 -2.3 -40.75 -2.3 -40.55" fill="#ffb58c" fill-rule="evenodd" stroke="none"/>
    <path d="M-4.35 -40.35 L-4.65 -40.35 -4.65 -40.55 -4.35 -40.55 -4.35 -40.35" fill="#ffb289" fill-rule="evenodd" stroke="none"/>
    <path d="M-3.6 -40.55 L-3.85 -40.35 -3.85 -40.55 -3.6 -40.55" fill="#ffe6d9" fill-rule="evenodd" stroke="none"/>
    <path d="M-28.5 -29.0 L-28.85 -28.7 -28.85 -28.9 -28.65 -29.0 -28.5 -29.0 M-30.7 -26.7 L-30.85 -26.55 -30.85 -26.7 -30.7 -26.8 -30.7 -26.7" fill="#ff9e6b" fill-rule="evenodd" stroke="none"/>
    <path d="M-30.85 -26.55 L-31.0 -26.4 -31.0 -26.55 -30.85 -26.7 -30.85 -26.55" fill="#ff965f" fill-rule="evenodd" stroke="none"/>
    <path d="M-31.45 -25.95 L-31.65 -25.6 -31.65 -25.75 -31.45 -25.95" fill="#ff9f6b" fill-rule="evenodd" stroke="none"/>
    <path d="M-31.65 -25.6 L-31.8 -25.4 -31.8 -25.6 -31.65 -25.75 -31.65 -25.6" fill="#ff955d" fill-rule="evenodd" stroke="none"/>
    <path d="M-31.8 -25.4 L-31.95 -25.3 -31.8 -25.6 -31.8 -25.4" fill="#ff8b4e" fill-rule="evenodd" stroke="none"/>
    <path d="M-29.25 -28.2 L-29.65 -27.95 -29.65 -28.1 -29.45 -28.2 -29.25 -28.2 M-32.1 -25.15 L-32.25 -24.8 -32.25 -24.95 -32.1 -25.15 M-32.55 -24.5 L-32.7 -24.2 -32.7 -24.35 -32.55 -24.5" fill="#ff9e6a" fill-rule="evenodd" stroke="none"/>
    <path d="M-24.3 -2.8 L-24.3 -3.15 -24.15 -3.15 -24.3 -2.8 M-27.7 -29.8 L-28.5 -29.0 -28.65 -29.0 -27.7 -29.95 -27.7 -29.8" fill="#ff8f54" fill-rule="evenodd" stroke="none"/>
    <path d="M-29.65 -27.95 L-29.8 -27.75 -29.8 -27.95 -29.65 -28.1 -29.65 -27.95" fill="#ff975e" fill-rule="evenodd" stroke="none"/>
    <path d="M-29.0 -28.55 L-29.25 -28.2 -29.45 -28.2 -29.0 -28.7 -29.0 -28.55" fill="#ff9359" fill-rule="evenodd" stroke="none"/>
    <path d="M-4.65 40.2 L-4.35 40.2 -4.35 40.35 -4.65 40.2 M-29.9 -27.6 L-30.25 -27.3 -29.9 -27.75 -29.9 -27.6" fill="#ff8c4e" fill-rule="evenodd" stroke="none"/>
    <path d="M-34.25 -22.0 L-34.45 -21.7 -34.45 -21.85 -34.25 -22.0" fill="#ffa676" fill-rule="evenodd" stroke="none"/>
    <path d="M-34.45 -21.7 L-34.65 -21.55 -34.45 -21.85 -34.45 -21.7" fill="#ff8e51" fill-rule="evenodd" stroke="none"/>
    <path d="M-6.85 39.85 L-6.55 39.85 -6.55 40.05 -6.85 39.85 M-33.5 -23.15 L-33.65 -22.95 -33.5 -23.2 -33.5 -23.15" fill="#ff965d" fill-rule="evenodd" stroke="none"/>
    <path d="M-35.25 -20.45 L-35.4 -20.15 -35.4 -20.3 -35.25 -20.45" fill="#ffa97c" fill-rule="evenodd" stroke="none"/>
    <path d="M-4.35 -24.2 L-3.85 -24.2 -4.35 -24.0 -4.35 -24.2 M-40.2 -5.95 L-40.2 -5.5 -40.35 -5.5 -40.2 -5.95" fill="#ff9c66" fill-rule="evenodd" stroke="none"/>
    <path d="M-24.45 -1.75 L-24.45 -2.05 -24.3 -2.05 -24.3 -1.75 -24.45 -1.75" fill="#ffc4a4" fill-rule="evenodd" stroke="none"/>
    <path d="M-24.45 -0.95 L-24.45 -1.75 -24.3 -1.75 -24.3 -0.95 -24.45 -0.95" fill="#ffa472" fill-rule="evenodd" stroke="none"/>
    <path d="M-24.35 5.5 L-24.45 -0.95 -24.3 -0.95 -24.35 5.5" fill="#ff7e38" fill-rule="evenodd" stroke="none"/>
    <path d="M-1.55 -24.5 L-0.6 -24.5 -0.6 -24.35 -1.55 -24.35 -1.55 -24.5" fill="#ffa06d" fill-rule="evenodd" stroke="none"/>
    <path d="M-3.1 -24.35 L-2.65 -24.35 -3.1 -24.2 -3.1 -24.35" fill="#ff8d4f" fill-rule="evenodd" stroke="none"/>
    <path d="M-3.6 -24.2 L-3.1 -24.35 -3.1 -24.2 -3.6 -24.2" fill="#ffc4a3" fill-rule="evenodd" stroke="none"/>
    <path d="M-5.45 -23.9 L-5.1 -24.0 -5.1 -23.9 -5.45 -23.9" fill="#ffdcc8" fill-rule="evenodd" stroke="none"/>
    <path d="M-40.5 -1.75 L-40.6 15.35 -40.7 -1.75 -40.5 -1.75" fill="#ffd7c2" fill-rule="evenodd" stroke="none"/>
    <path d="M-13.4 20.55 L-13.4 27.15 -13.55 20.55 -13.4 20.55" fill="#ffa26f" fill-rule="evenodd" stroke="none"/>
    <path d="M-1.7 24.25 L-2.05 24.25 -2.05 24.15 -1.7 24.15 -1.7 24.25" fill="#ffc5a4" fill-rule="evenodd" stroke="none"/>
    <path d="M-4.35 40.2 L-4.05 40.2 -4.05 40.35 -4.35 40.35 -4.35 40.2" fill="#ffac7f" fill-rule="evenodd" stroke="none"/>
    <path d="M-2.5 40.35 L-1.7 40.35 -1.7 40.55 -2.5 40.55 -2.5 40.35" fill="#ffb187" fill-rule="evenodd" stroke="none"/>
    <path d="M-6.55 39.85 L-6.25 40.05 -6.55 40.05 -6.55 39.85 M-5.45 40.05 L-5.1 40.2 -5.45 40.2 -5.45 40.05" fill="#ffcaac" fill-rule="evenodd" stroke="none"/>
  </g>
</svg>
