<?xml version="1.0" encoding="UTF-8" standalone="no"?>
<svg xmlns:xlink="http://www.w3.org/1999/xlink" height="16.2px" width="16.2px" xmlns="http://www.w3.org/2000/svg">
  <g transform="matrix(1.0, 0.0, 0.0, 1.0, 81.55, 6.35)">
    <path d="M-81.05 -5.85 L-65.85 -5.85 -65.85 9.35 -81.05 9.35 -81.05 -5.85 M-78.5 -3.1 L-73.35 2.05 -68.2 -3.1 -73.35 2.05 -78.5 -3.1 M-78.5 7.2 L-73.35 2.05 -68.2 7.2 -73.35 2.05 -78.5 7.2" fill="#fffbf7" fill-rule="evenodd" stroke="none"/>
    <path d="M-81.05 -5.85 L-65.85 -5.85 -65.85 9.35 -81.05 9.35 -81.05 -5.85 M-68.2 7.2 L-73.35 2.05 -78.5 7.2 M-68.2 -3.1 L-73.35 2.05 -78.5 -3.1" fill="none" stroke="#000000" stroke-linecap="round" stroke-linejoin="bevel" stroke-width="1.0"/>
  </g>
</svg>
