<?xml version="1.0" encoding="UTF-8" standalone="no"?>
<svg xmlns:xlink="http://www.w3.org/1999/xlink" height="377.6px" width="437.0px" xmlns="http://www.w3.org/2000/svg">
  <g transform="matrix(1.0, 0.0, 0.0, 1.0, 214.5, 175.15)">
    <path d="M1.2 -135.9 L1.2 -136.15 3.15 -136.05 3.15 -135.9 2.9 -135.9 1.2 -135.9" fill="#060606" fill-opacity="0.39215687" fill-rule="evenodd" stroke="none"/>
    <path d="M-194.0 -129.65 L202.0 -129.65 Q222.0 -129.65 222.0 -105.15 L222.0 -89.7 Q216.8 -91.1 211.55 -90.45 211.35 -112.4 192.6 -112.4 L-184.55 -112.4 Q-203.3 -112.4 -203.6 -91.05 -208.9 -91.9 -214.0 -89.7 L-214.0 -105.15 Q-214.0 -129.65 -194.0 -129.65" fill="#ffffff" fill-rule="evenodd" stroke="none"/>
    <path d="M-194.0 -74.0 L202.0 -74.0 Q222.0 -74.0 222.0 -54.0 L222.0 181.95 Q222.0 201.95 202.0 201.95 L-194.0 201.95 Q-214.0 201.95 -214.0 181.95 L-214.0 -54.0 Q-214.0 -74.0 -194.0 -74.0" fill="#ffffff" fill-rule="evenodd" stroke="none"/>
    <path d="M-194.0 -74.0 L202.0 -74.0 Q222.0 -74.0 222.0 -54.0 L222.0 181.95 Q222.0 201.95 202.0 201.95 L-194.0 201.95 Q-214.0 201.95 -214.0 181.95 L-214.0 -54.0 Q-214.0 -74.0 -194.0 -74.0 Z" fill="none" stroke="#000000" stroke-linecap="round" stroke-linejoin="round" stroke-width="1.0"/>
    <path d="M-194.0 -175.15 L202.0 -175.15 Q222.0 -175.15 222.0 -150.65 L222.0 -135.2 Q216.8 -136.6 211.55 -135.95 211.35 -157.9 192.6 -157.9 L-184.55 -157.9 Q-203.3 -157.9 -203.6 -136.55 -208.9 -137.4 -214.0 -135.2 L-214.0 -150.65 Q-214.0 -175.15 -194.0 -175.15" fill="#ffffff" fill-rule="evenodd" stroke="none"/>
    <path d="M-38.15 65.4 L-38.2 63.95 Q-38.2 47.65 -26.7 36.2 -15.25 24.7 1.05 24.7 17.3 24.7 28.75 36.2 40.25 47.65 40.25 63.95 L40.25 65.4 Q39.75 80.7 28.75 91.65 17.3 103.15 1.05 103.15 -15.25 103.15 -26.7 91.65 -37.7 80.7 -38.15 65.4 M18.4 64.5 Q18.4 57.1 13.1 51.8 7.85 46.5 0.4 46.5 -7.0 46.5 -12.25 51.8 -17.55 57.1 -17.55 64.5 -17.55 71.9 -12.25 77.2 -7.0 82.45 0.4 82.45 7.85 82.45 13.1 77.2 18.4 71.9 18.4 64.5" fill="#ffffff" fill-rule="evenodd" stroke="none"/>
    <path d="M18.4 64.5 Q18.4 71.9 13.1 77.2 7.85 82.45 0.4 82.45 -7.0 82.45 -12.25 77.2 -17.55 71.9 -17.55 64.5 -17.55 57.1 -12.25 51.8 -7.0 46.5 0.4 46.5 7.85 46.5 13.1 51.8 18.4 57.1 18.4 64.5" fill="#000000" fill-rule="evenodd" stroke="none"/>
    <path d="M-103.65 65.4 L-103.7 63.35 Q-103.7 19.7 -72.85 -11.1 -42.0 -41.95 1.65 -41.95 45.25 -41.95 76.1 -11.1 106.9 19.7 106.9 63.35 L106.9 65.4 40.25 65.4 40.25 63.95 Q40.25 47.65 28.75 36.2 17.3 24.7 1.05 24.7 -15.25 24.7 -26.7 36.2 -38.2 47.65 -38.2 63.95 L-38.15 65.4 -103.65 65.4" fill="#333333" fill-rule="evenodd" stroke="none"/>
    <path d="M106.9 65.4 Q106.15 107.75 76.1 137.8 45.25 168.65 1.65 168.65 -42.0 168.65 -72.85 137.8 -102.95 107.75 -103.65 65.4 L-38.15 65.4 Q-37.7 80.7 -26.7 91.65 -15.25 103.15 1.05 103.15 17.3 103.15 28.75 91.65 39.75 80.7 40.25 65.4 L106.9 65.4" fill="#dbdbdb" fill-rule="evenodd" stroke="none"/>
    <path d="M-103.65 65.4 L-103.7 63.35 Q-103.7 19.7 -72.85 -11.1 -42.0 -41.95 1.65 -41.95 45.25 -41.95 76.1 -11.1 106.9 19.7 106.9 63.35 L106.9 65.4 Q106.15 107.75 76.1 137.8 45.25 168.65 1.65 168.65 -42.0 168.65 -72.85 137.8 -102.95 107.75 -103.65 65.4 L-38.15 65.4 -38.2 63.95 Q-38.2 47.65 -26.7 36.2 -15.25 24.7 1.05 24.7 17.3 24.7 28.75 36.2 40.25 47.65 40.25 63.95 L40.25 65.4 106.9 65.4 M40.25 65.4 Q39.75 80.7 28.75 91.65 17.3 103.15 1.05 103.15 -15.25 103.15 -26.7 91.65 -37.7 80.7 -38.15 65.4" fill="none" stroke="#000000" stroke-linecap="round" stroke-linejoin="round" stroke-width="10.0"/>
  </g>
</svg>
