<?xml version="1.0" encoding="UTF-8" standalone="no"?>
<svg xmlns:xlink="http://www.w3.org/1999/xlink" height="133.4px" width="125.3px" xmlns="http://www.w3.org/2000/svg">
  <g transform="matrix(1.0, 0.0, 0.0, 1.0, 62.35, 66.7)">
    <path d="M36.7 -52.5 L37.1 -52.2 39.35 -51.1 Q56.45 -41.4 57.55 -31.2 L59.3 -27.55 Q64.65 -17.7 59.75 16.6 62.6 25.95 62.3 28.4 61.85 31.8 55.15 21.65 58.25 30.45 52.75 41.9 L51.3 31.7 Q47.95 44.1 12.95 61.6 L11.45 62.1 Q10.85 62.2 10.4 62.45 -0.6 65.75 -11.75 66.05 -36.15 66.65 -42.85 62.3 -49.8 57.7 -53.75 53.5 -59.1 50.0 -58.95 44.55 L-57.65 37.95 Q-57.1 36.2 -57.2 32.25 -57.3 28.3 -57.85 24.75 L-58.25 22.7 -60.9 15.25 Q-65.75 3.1 -54.15 -22.35 -51.45 -38.75 -45.45 -46.45 -41.95 -44.0 -46.1 -36.7 -40.95 -44.85 -33.2 -49.8 -34.1 -38.6 -43.85 -24.8 L-46.35 -31.45 Q-46.45 -12.5 -44.35 -5.55 -42.3 1.45 -39.9 3.55 -37.65 8.85 -39.65 14.85 -42.0 23.0 -39.45 33.2 -33.5 41.15 -26.8 41.85 -9.75 42.6 2.6 24.6 6.5 20.5 4.25 15.05 -1.0 -11.95 1.8 -34.25 3.5 -50.9 13.8 -61.95 17.4 -66.8 22.45 -66.0 19.9 -62.2 21.8 -60.2 31.65 -56.45 36.7 -52.5" fill="#cc6f0f" fill-rule="evenodd" stroke="none"/>
    <path d="M13.8 -61.95 Q3.5 -50.9 1.8 -34.25 -1.0 -11.95 4.25 15.05 6.5 20.5 2.6 24.6 -9.75 42.6 -26.8 41.85 -33.5 41.15 -39.45 33.2 -42.0 23.0 -39.65 14.85 -37.65 8.85 -39.9 3.55 -42.3 1.45 -44.35 -5.55 -46.45 -12.5 -46.35 -31.45 L-43.85 -24.8 Q-34.1 -38.6 -33.2 -49.8 -30.55 -51.55 -27.55 -52.85 -16.05 -58.1 -2.05 -59.9 L13.8 -61.95 M-57.65 37.95 L-58.95 44.55 Q-58.95 42.6 -58.15 40.35 L-57.65 37.95" fill="#ee830f" fill-rule="evenodd" stroke="none"/>
    <path d="M36.7 -52.5 L37.1 -52.2 M39.35 -51.1 L36.7 -52.5 Q31.65 -56.45 21.8 -60.2 19.9 -62.2 22.45 -66.0 17.4 -66.8 13.8 -61.95 L-2.05 -59.9 Q-16.05 -58.1 -27.55 -52.85 -30.55 -51.55 -33.2 -49.8 -40.95 -44.85 -46.1 -36.7 -41.95 -44.0 -45.45 -46.45 -51.45 -38.75 -54.15 -22.35 M-42.85 62.3 Q-36.15 66.65 -11.75 66.05 -0.6 65.75 10.4 62.45 10.85 62.2 11.45 62.1 L12.95 61.6 Q47.95 44.1 51.3 31.7 L52.75 41.9 Q58.25 30.45 55.15 21.65 61.85 31.8 62.3 28.4 62.6 25.95 59.75 16.6 64.65 -17.7 59.3 -27.55 L57.55 -31.2 Q56.45 -41.4 39.35 -51.1" fill="none" stroke="#4d2b06" stroke-linecap="round" stroke-linejoin="round" stroke-width="1.2000000000000002"/>
    <path d="M-58.35 24.85 L-58.9 21.8 -58.9 21.85 -59.05 21.3 -59.65 19.35 -60.15 17.4 -60.1 17.3 Q-60.0 17.2 -60.0 17.35 L-58.6 20.5 -58.5 20.8 -58.35 21.05 -58.15 21.6 -58.15 21.65 -57.95 22.4 -57.8 22.75 -57.3 24.6 -57.3 24.65 -56.7 29.2 -56.55 33.0 -56.6 33.4 -56.65 35.5 -57.15 38.05 -57.15 38.0 -58.55 43.75 -58.85 44.55 -58.95 44.6 -59.0 44.5 -58.1 37.85 -58.1 37.8 -57.95 37.0 -57.9 36.85 -57.9 36.65 -57.8 35.45 -57.75 35.25 -57.75 32.15 -57.8 31.75 -57.8 31.35 -58.35 24.85 -58.35 24.8 -58.35 24.85" fill="#4d2b06" fill-rule="evenodd" stroke="none"/>
  </g>
</svg>
