<?xml version="1.0" encoding="UTF-8" standalone="no"?>
<svg xmlns:xlink="http://www.w3.org/1999/xlink" height="69.6px" width="75.25px" xmlns="http://www.w3.org/2000/svg">
  <g transform="matrix(1.0, 0.0, 0.0, 1.0, 37.85, 35.05)">
    <path d="M1.25 -3.5 L1.15 -4.0 Q13.85 -6.45 26.5 -13.9 L26.2 -15.15 29.65 -16.0 29.7 -16.0 35.15 -15.8 Q40.85 -1.6 32.25 2.8 15.15 -3.55 2.2 0.15 -8.9 1.5 1.25 -3.5 M-28.75 -5.2 L-33.2 -6.5 -37.35 -8.05 -33.2 -10.65 -29.9 -12.45 -26.0 -9.85 -28.75 -5.2 M-21.2 -20.8 L-28.4 -25.05 -20.7 -27.15 -17.8 -24.1 -21.2 -20.8 M-7.35 -29.95 Q-10.1 -32.05 -12.7 -34.5 -9.25 -34.65 -5.95 -34.45 L-3.95 -31.6 -7.35 -29.95 M-10.2 15.8 L-16.0 14.25 -17.05 13.9 Q-14.8 11.05 -12.45 8.8 L-9.05 10.95 -10.2 15.8" fill="#000000" fill-rule="evenodd" stroke="none"/>
    <path d="M2.2 0.15 Q15.15 -3.55 32.25 2.8 L-9.05 10.95 -12.45 8.8 -11.6 8.0 Q-5.4 2.35 2.2 0.15 M35.15 -15.8 L29.7 -16.0 30.15 -16.15 29.85 -16.35 29.65 -16.0 -17.8 -24.1 -20.7 -27.15 -18.35 -27.6 -7.25 -28.65 -5.65 -28.65 -7.35 -29.95 -3.95 -31.6 -5.95 -34.45 Q15.7 -33.25 32.3 -18.5 L35.15 -15.8 M-29.9 -12.45 L-27.65 -13.55 -27.55 -13.6 Q-21.5 -16.5 -15.3 -18.0 -1.55 -12.35 13.9 -13.35 19.0 -13.7 24.35 -14.75 L26.5 -13.9 -26.0 -9.85 -29.9 -12.45 M-5.65 -28.65 Q12.9 -28.25 29.85 -16.35 12.9 -28.25 -5.65 -28.65" fill="#ecded7" fill-rule="evenodd" stroke="none"/>
    <path d="M29.7 -16.0 L29.65 -16.0 26.2 -15.15 24.35 -14.75 Q19.0 -13.7 13.9 -13.35 -1.55 -12.35 -15.3 -18.0 -18.3 -19.25 -21.2 -20.8 L-17.8 -24.1 29.65 -16.0 29.85 -16.35 30.15 -16.15 29.7 -16.0 M26.5 -13.9 Q13.85 -6.45 1.15 -4.0 -13.8 -1.1 -28.75 -5.2 L-26.0 -9.85 26.5 -13.9 M32.25 2.8 Q35.05 8.55 35.85 14.25 37.25 24.4 32.25 34.55 L9.8 33.15 6.15 16.05 Q-1.95 17.55 -10.2 15.8 L-9.05 10.95 32.25 2.8 Q22.7 10.85 12.95 14.25 9.55 15.45 6.15 16.05 9.55 15.45 12.95 14.25 22.7 10.85 32.25 2.8" fill="#fcede6" fill-rule="evenodd" stroke="none"/>
    <path d="M1.25 -3.5 Q-8.9 1.5 2.2 0.15 15.15 -3.55 32.25 2.8 22.7 10.85 12.95 14.25 9.55 15.45 6.15 16.05 -1.95 17.55 -10.2 15.8 L-16.0 14.25 -17.05 13.9 Q-14.8 11.05 -12.45 8.8 L-11.6 8.0 Q-5.4 2.35 2.2 0.15 M35.15 -15.8 L29.7 -16.0 29.65 -16.0 26.2 -15.15 24.35 -14.75 Q19.0 -13.7 13.9 -13.35 -1.55 -12.35 -15.3 -18.0 -18.3 -19.25 -21.2 -20.8 L-28.4 -25.05 -20.7 -27.15 -18.35 -27.6 -7.25 -28.65 -5.65 -28.65 -7.35 -29.95 Q-10.1 -32.05 -12.7 -34.5 -9.25 -34.65 -5.95 -34.45 15.7 -33.25 32.3 -18.5 L35.15 -15.8 M26.5 -13.9 Q13.85 -6.45 1.15 -4.0 -13.8 -1.1 -28.75 -5.2 L-33.2 -6.5 -37.35 -8.05 -33.2 -10.65 -29.9 -12.45 -27.65 -13.55 -27.55 -13.6 Q-21.5 -16.5 -15.3 -18.0 M24.35 -14.75 L26.5 -13.9 M29.85 -16.35 L30.15 -16.15 29.7 -16.0 M29.85 -16.35 Q12.9 -28.25 -5.65 -28.65" fill="none" stroke="#000000" stroke-linecap="round" stroke-linejoin="round" stroke-width="1.0"/>
  </g>
</svg>
