<?xml version="1.0" encoding="UTF-8" standalone="no"?>
<svg xmlns:xlink="http://www.w3.org/1999/xlink" height="149.65px" width="147.95px" xmlns="http://www.w3.org/2000/svg">
  <g transform="matrix(1.0, 0.0, 0.0, 1.0, 120.2, 33.2)">
    <path d="M-30.4 -25.3 Q-2.8 -41.1 12.95 -25.3 L24.1 -18.65 23.5 -17.6 27.25 -16.8 Q15.1 30.55 -1.4 74.4 -88.05 84.8 -87.15 115.95 L-115.85 115.95 -115.85 96.1 -96.45 82.05 -103.15 83.15 Q-90.0 77.0 -80.65 70.25 L-77.85 68.15 -75.95 64.2 Q-84.35 66.45 -85.45 65.65 -74.95 62.35 -64.95 55.5 L-53.7 46.65 Q-56.0 46.45 -58.05 46.6 -52.05 45.3 -47.25 42.35 -42.4 37.75 -40.55 31.9 L-21.75 6.55 Q-19.25 0.25 -20.4 -0.9 -26.75 7.25 -35.8 15.4 -45.8 20.9 -52.15 23.75 L-53.2 22.1 Q-35.95 10.85 -21.05 -1.7 L-17.65 -4.65 Q-32.5 3.55 -36.15 3.15 -26.6 -6.45 -13.55 -11.8 -21.25 -16.85 -28.95 -10.25 L-34.35 -6.45 -34.7 -6.2 -34.35 -6.45 -28.95 -10.25 -33.3 -5.05 -33.35 -5.05 -33.4 -5.15 -34.7 -6.2 Q-40.2 -3.1 -42.75 -2.7 -43.55 -2.55 -44.05 -2.7 -47.05 -3.6 -39.15 -14.25 L-30.4 -25.3 M-20.95 13.5 Q-40.0 38.55 -40.55 31.9 -40.0 38.55 -20.95 13.5 M-5.9 24.1 Q-10.2 43.45 -11.4 27.5 -10.2 43.45 -5.9 24.1 M-14.45 20.15 Q-14.4 29.7 -12.55 26.95 -11.55 25.4 -10.0 20.15 -11.55 25.4 -12.55 26.95 -14.4 29.7 -14.45 20.15 M-80.65 70.25 Q-92.1 79.1 -79.35 75.5 -92.1 79.1 -80.65 70.25" fill="#fcede6" fill-rule="evenodd" stroke="none"/>
    <path d="M-30.4 -25.3 L-39.15 -14.25 Q-47.05 -3.6 -44.05 -2.7 -43.55 -2.55 -42.75 -2.7 -40.2 -3.1 -34.7 -6.2 L-49.45 8.6 -34.7 -6.2 -33.4 -5.15 -33.35 -5.05 -33.3 -5.05 -28.95 -10.25 Q-21.25 -16.85 -13.55 -11.8 -26.6 -6.45 -36.15 3.15 -32.5 3.55 -17.65 -4.65 L-21.05 -1.7 Q-35.95 10.85 -53.2 22.1 L-52.15 23.75 Q-45.8 20.9 -35.8 15.4 -26.75 7.25 -20.4 -0.9 -19.25 0.25 -21.75 6.55 L-40.55 31.9 Q-40.75 30.1 -39.55 26.0 -38.35 21.85 -35.8 15.4 -38.35 21.85 -39.55 26.0 -40.75 30.1 -40.55 31.9 -42.4 37.75 -47.25 42.35 -52.05 45.3 -58.05 46.6 -56.0 46.45 -53.7 46.65 L-64.95 55.5 Q-74.95 62.35 -85.45 65.65 -84.35 66.45 -75.95 64.2 L-77.85 68.15 -80.65 70.25 Q-90.0 77.0 -103.15 83.15 L-96.45 82.05 -115.85 96.1 Q-126.25 96.5 -108.6 86.15 -120.55 90.45 -98.9 74.6 L-95.1 70.55 -94.4 69.85 -94.05 69.5 -91.95 67.45 -86.5 62.5 Q-106.6 64.35 -73.3 52.45 L-65.8 48.0 Q-76.55 45.25 -60.8 43.4 -70.0 43.6 -53.95 35.8 -66.05 36.05 -52.15 23.75 L-52.45 23.9 Q-57.8 26.25 -60.55 26.75 -69.65 28.35 -49.45 8.6 -51.95 8.85 -47.55 -0.95 -58.5 0.65 -45.2 -11.3 -73.75 1.1 -44.8 -23.15 -41.05 -23.35 -33.15 -25.3 L-30.4 -25.3 M-39.15 -14.25 L-45.2 -11.3 -39.15 -14.25 M-54.9 42.8 L-60.8 43.4 -54.9 42.8 M-74.05 57.2 Q-87.1 64.5 -85.45 65.65 -87.1 64.5 -74.05 57.2 M-87.15 115.95 Q-88.05 84.8 -1.4 74.4 -9.35 95.55 -18.35 115.95 L-87.15 115.95" fill="#ecded7" fill-rule="evenodd" stroke="none"/>
    <path d="M-30.4 -25.3 L-39.15 -14.25 -45.2 -11.3 Q-58.5 0.65 -47.55 -0.95 -51.95 8.85 -49.45 8.6 L-34.7 -6.2 -34.35 -6.45 -28.95 -10.25 M-52.15 23.75 Q-45.8 20.9 -35.8 15.4 -38.35 21.85 -39.55 26.0 -40.75 30.1 -40.55 31.9 -40.0 38.55 -20.95 13.5 M-44.8 -23.15 Q-48.2 -22.95 -47.55 -25.3 M-33.15 -25.3 Q-41.05 -23.35 -44.8 -23.15 -73.75 1.1 -45.2 -11.3 M-10.0 20.15 Q-11.55 25.4 -12.55 26.95 -14.4 29.7 -14.45 20.15 M-11.4 27.5 Q-10.2 43.45 -5.9 24.1 M-49.45 8.6 Q-69.65 28.35 -60.55 26.75 -57.8 26.25 -52.45 23.9 L-52.15 23.75 Q-66.05 36.05 -53.95 35.8 -70.0 43.6 -60.8 43.4 L-54.9 42.8 M-60.8 43.4 Q-76.55 45.25 -65.8 48.0 L-73.3 52.45 Q-106.6 64.35 -86.5 62.5 L-91.95 67.45 -94.05 69.5 -94.4 69.85 -95.1 70.55 -98.9 74.6 Q-120.55 90.45 -108.6 86.15 -126.25 96.5 -115.85 96.1 L-115.85 115.95 -87.15 115.95 -18.35 115.95 Q-9.35 95.55 -1.4 74.4 15.1 30.55 27.25 -16.8 M-80.65 70.25 L-77.85 68.15 M-75.95 64.2 Q-84.35 66.45 -85.45 65.65 -87.1 64.5 -74.05 57.2 M-79.35 75.5 Q-92.1 79.1 -80.65 70.25" fill="none" stroke="#000000" stroke-linecap="round" stroke-linejoin="round" stroke-width="1.0"/>
  </g>
</svg>
