<?xml version="1.0" encoding="UTF-8" standalone="no"?>
<svg xmlns:xlink="http://www.w3.org/1999/xlink" height="90.45px" width="114.9px" xmlns="http://www.w3.org/2000/svg">
  <g transform="matrix(1.0, 0.0, 0.0, 1.0, 57.45, 45.2)">
    <path d="M6.15 -13.65 L12.15 -12.45 23.25 11.5 20.35 14.65 Q16.45 13.2 10.2 7.5 16.45 13.2 20.35 14.65 L25.9 34.45 22.25 38.95 19.15 35.4 Q15.3 30.65 10.5 22.85 11.95 19.65 10.5 15.0 L8.6 10.6 Q9.55 9.4 10.2 7.5 L10.2 1.85 4.5 -6.4 Q4.95 -8.5 4.85 -11.95 L5.05 -13.75 6.15 -13.65 M23.35 -10.2 L34.55 -8.0 34.55 10.75 30.95 13.15 Q34.85 15.85 38.65 13.5 40.55 12.3 42.45 9.85 L52.1 37.25 49.55 42.3 Q43.75 37.65 33.4 24.2 L32.0 19.75 30.95 13.15 29.55 12.0 26.7 8.7 25.75 5.95 23.35 -10.2 M-2.6 33.55 Q-6.35 29.65 -11.1 21.45 L-8.65 14.15 -9.3 10.05 Q-8.55 8.55 -8.15 6.15 L-8.15 1.45 -7.9 -2.35 Q0.45 1.75 0.25 -1.15 L4.55 8.95 0.8 11.95 3.15 28.6 -2.6 33.55 M-20.7 25.85 Q-23.2 23.95 -26.35 20.5 L-37.1 4.0 -40.55 -2.95 Q-40.9 -4.8 -39.3 -5.25 -37.95 -3.7 -32.6 -0.4 L-30.3 0.7 -28.3 5.85 -28.3 9.3 Q-22.45 11.9 -22.25 7.95 L-21.0 6.85 Q-17.8 10.25 -15.35 11.55 -17.8 10.25 -21.0 6.85 L-22.65 5.05 -25.55 0.3 -25.35 -1.75 Q-14.05 1.8 -23.35 -5.3 -16.55 -1.9 -13.5 -1.3 L-12.35 7.65 -15.35 11.55 -15.35 11.6 -16.2 20.55 -20.7 25.85 M-37.1 4.0 Q-31.75 7.75 -28.3 9.3 -31.75 7.75 -37.1 4.0 M-8.15 6.15 Q-3.0 10.5 0.8 11.95 -3.0 10.5 -8.15 6.15" fill="#ececec" fill-rule="evenodd" stroke="none"/>
    <path d="M5.05 -13.75 L4.85 -11.95 Q4.95 -8.5 4.5 -6.4 3.35 -1.6 -1.1 -4.2 0.15 -2.2 0.25 -1.15 0.45 1.75 -7.9 -2.35 L-11.65 -4.3 Q-9.75 -0.65 -13.5 -1.3 -16.55 -1.9 -23.35 -5.3 -14.05 1.8 -25.35 -1.75 L-28.05 -2.65 Q-27.5 1.5 -30.3 0.7 L-32.6 -0.4 Q-37.95 -3.7 -39.3 -5.25 -40.9 -4.8 -40.55 -2.95 -39.9 1.0 -49.45 -4.05 L-52.65 -4.1 Q-56.1 -2.45 -56.95 -6.35 L-38.25 -38.0 Q-38.25 -35.7 -36.65 -33.05 -20.7 -21.75 -3.2 -15.95 L5.05 -13.75" fill="#fcede6" fill-rule="evenodd" stroke="none"/>
    <path d="M-38.25 -38.0 Q-38.3 -39.75 -37.45 -41.3 -36.5 -43.05 -34.4 -44.55 -24.9 -45.35 -14.0 -41.3 -6.1 -38.35 2.55 -32.75 5.9 -23.45 5.05 -13.75 L-3.2 -15.95 Q-20.7 -21.75 -36.65 -33.05 -38.25 -35.7 -38.25 -38.0" fill="#ecded7" fill-rule="evenodd" stroke="none"/>
    <path d="M4.5 -6.4 L10.2 1.85 10.2 7.5 Q9.55 9.4 8.6 10.6 L10.5 15.0 Q11.95 19.65 10.5 22.85 9.7 28.8 8.35 32.25 L3.15 28.6 0.8 11.95 Q5.95 13.9 8.6 10.6 L4.55 8.95 0.25 -1.15 Q0.15 -2.2 -1.1 -4.2 3.35 -1.6 4.5 -6.4 M23.25 11.5 L12.15 -12.45 23.35 -10.2 25.75 5.95 26.7 8.7 29.55 12.0 30.95 13.15 32.0 19.75 33.4 24.2 Q33.65 32.7 32.65 37.3 L25.9 34.45 20.35 14.65 Q24.65 16.15 26.05 12.4 L23.25 11.5 M34.55 -8.0 L48.9 4.6 54.05 23.85 Q56.85 34.3 56.95 39.55 L52.1 37.25 42.45 9.85 Q40.55 12.3 38.65 13.5 L34.55 10.75 34.55 -8.0 M-11.1 21.45 L-11.5 23.65 -16.2 20.55 -15.35 11.6 Q-11.2 13.8 -9.3 10.05 L-12.35 7.65 -13.5 -1.3 Q-9.75 -0.65 -11.65 -4.3 L-7.9 -2.35 -8.15 1.45 -8.15 6.15 Q-8.55 8.55 -9.3 10.05 L-8.65 14.15 -11.1 21.45 M-30.3 0.7 Q-27.5 1.5 -28.05 -2.65 L-25.35 -1.75 -25.55 0.3 -22.65 5.05 Q-22.2 6.8 -22.25 7.95 -22.2 6.8 -22.65 5.05 L-21.0 6.85 -22.25 7.95 -28.3 5.85 -30.3 0.7 M26.7 8.7 Q26.6 10.95 26.05 12.4 26.6 10.95 26.7 8.7" fill="#ffffff" fill-rule="evenodd" stroke="none"/>
    <path d="M20.35 14.65 L23.25 11.5 26.05 12.4 Q24.65 16.15 20.35 14.65 M56.95 39.55 Q57.1 48.35 49.55 42.3 L52.1 37.25 56.95 39.55 M32.65 37.3 Q30.45 47.25 22.25 38.95 L25.9 34.45 32.65 37.3 M8.35 32.25 Q7.55 34.2 6.55 35.4 3.75 38.75 -0.55 35.4 L-2.6 33.55 3.15 28.6 8.35 32.25 M-11.5 23.65 Q-13.45 31.3 -20.7 25.85 L-16.2 20.55 -11.5 23.65 M-28.3 5.85 L-22.25 7.95 Q-22.45 11.9 -28.3 9.3 L-28.3 5.85 M-15.35 11.55 L-12.35 7.65 -9.3 10.05 Q-11.2 13.8 -15.35 11.6 L-15.35 11.55 M38.65 13.5 Q34.85 15.85 30.95 13.15 L34.55 10.75 38.65 13.5 M4.55 8.95 L8.6 10.6 Q5.95 13.9 0.8 11.95 L4.55 8.95" fill="#000000" fill-rule="evenodd" stroke="none"/>
    <path d="M12.15 -12.45 L6.15 -13.65 M5.05 -13.75 L4.85 -11.95 Q4.95 -8.5 4.5 -6.4 3.35 -1.6 -1.1 -4.2 0.15 -2.2 0.25 -1.15 0.45 1.75 -7.9 -2.35 L-11.65 -4.3 Q-9.75 -0.65 -13.5 -1.3 -16.55 -1.9 -23.35 -5.3 -14.05 1.8 -25.35 -1.75 L-28.05 -2.65 Q-27.5 1.5 -30.3 0.7 L-32.6 -0.4 Q-37.95 -3.7 -39.3 -5.25 -40.9 -4.8 -40.55 -2.95 -39.9 1.0 -49.45 -4.05 L-52.65 -4.1 Q-56.1 -2.45 -56.95 -6.35 M10.2 1.85 L10.2 7.5 Q16.45 13.2 20.35 14.65 24.65 16.15 26.05 12.4 26.6 10.95 26.7 8.7 L29.55 12.0 30.95 13.15 Q34.85 15.85 38.65 13.5 40.55 12.3 42.45 9.85 M12.15 -12.45 L23.35 -10.2 34.55 -8.0 48.9 4.6 54.05 23.85 Q56.85 34.3 56.95 39.55 57.1 48.35 49.55 42.3 43.75 37.65 33.4 24.2 33.65 32.7 32.65 37.3 30.45 47.25 22.25 38.95 L19.15 35.4 Q15.3 30.65 10.5 22.85 9.7 28.8 8.35 32.25 7.55 34.2 6.55 35.4 3.75 38.75 -0.55 35.4 L-2.6 33.55 Q-6.35 29.65 -11.1 21.45 L-11.5 23.65 Q-13.45 31.3 -20.7 25.85 -23.2 23.95 -26.35 20.5 L-37.1 4.0 -40.55 -2.95 M-34.4 -44.55 Q-24.9 -45.35 -14.0 -41.3 -6.1 -38.35 2.55 -32.75 5.9 -23.45 5.05 -13.75 M-22.25 7.95 Q-22.2 6.8 -22.65 5.05 L-25.55 0.3 M-8.15 6.15 Q-8.55 8.55 -9.3 10.05 -11.2 13.8 -15.35 11.6 L-15.35 11.55 Q-17.8 10.25 -21.0 6.85 L-22.65 5.05 M-8.65 14.15 L-11.1 21.45 M-8.15 6.15 L-8.15 1.45 M-22.25 7.95 Q-22.45 11.9 -28.3 9.3 -31.75 7.75 -37.1 4.0 M32.0 19.75 L33.4 24.2 M25.75 5.95 L26.7 8.7 M10.5 15.0 Q11.95 19.65 10.5 22.85 M8.6 10.6 Q9.55 9.4 10.2 7.5 M8.6 10.6 Q5.95 13.9 0.8 11.95 -3.0 10.5 -8.15 6.15" fill="none" stroke="#000000" stroke-linecap="round" stroke-linejoin="round" stroke-width="1.0"/>
  </g>
</svg>
