<?xml version="1.0" encoding="UTF-8" standalone="no"?>
<svg xmlns:xlink="http://www.w3.org/1999/xlink" height="20.3px" width="48.0px" xmlns="http://www.w3.org/2000/svg">
  <g transform="matrix(1.0, 0.0, 0.0, 1.0, 24.25, 9.95)">
    <path d="M14.1 -0.9 Q14.85 -3.45 14.35 -5.7 19.25 -6.4 23.75 -4.5 17.25 -4.65 14.1 -0.9" fill="#3f3f3f" fill-rule="evenodd" stroke="none"/>
    <path d="M14.35 -5.7 Q13.8 -7.9 12.0 -9.85 18.7 -9.35 23.75 -4.5 19.25 -6.4 14.35 -5.7" fill="#000000" fill-rule="evenodd" stroke="none"/>
    <path d="M14.35 -5.7 L6.7 -3.85 Q-7.6 0.0 -19.15 7.05 L-23.75 1.85 Q-9.95 -4.45 4.7 -8.15 L12.0 -9.85 Q13.8 -7.9 14.35 -5.7" fill="#8f8682" fill-rule="evenodd" stroke="none"/>
    <path d="M-19.15 7.05 Q-7.6 0.0 6.7 -3.85 L14.35 -5.7 Q14.85 -3.45 14.1 -0.9 L9.45 1.9 Q-2.85 8.7 -16.65 9.85 L-19.15 7.05" fill="#a69b97" fill-rule="evenodd" stroke="none"/>
    <path d="M-19.15 7.05 L-16.65 9.85 Q-2.85 8.7 9.45 1.9 M4.7 -8.15 Q-9.95 -4.45 -23.75 1.85 L-19.15 7.05 Z" fill="none" stroke="#000000" stroke-linecap="round" stroke-linejoin="round" stroke-width="1.0"/>
    <path d="M14.0 -0.95 L14.15 -0.95 14.15 -0.8 10.4 1.85 9.65 2.3 9.6 2.35 Q9.15 2.55 8.95 2.1 8.7 1.65 9.2 1.45 L11.6 0.25 Q12.55 -0.1 13.25 -0.55 L14.0 -0.95 M4.8 -7.65 L4.75 -7.65 4.4 -7.7 Q4.2 -7.8 4.15 -8.0 4.05 -8.5 4.55 -8.6 L11.95 -9.9 12.05 -9.85 12.0 -9.75 4.8 -7.65" fill="#000000" fill-rule="evenodd" stroke="none"/>
  </g>
</svg>
