<?xml version="1.0" encoding="UTF-8" standalone="no"?>
<svg xmlns:xlink="http://www.w3.org/1999/xlink" height="24.3px" width="47.0px" xmlns="http://www.w3.org/2000/svg">
  <g transform="matrix(1.0, 0.0, 0.0, 1.0, 23.7, 12.05)">
    <path d="M6.4 -6.2 L6.65 -6.75 15.8 -5.45 15.4 -3.55 14.45 -2.25 14.5 -2.25 12.25 0.95 11.0 -4.35 6.4 -6.2 M12.25 1.0 Q12.9 5.0 12.5 9.25 L12.4 11.75 3.3 9.95 3.3 7.85 Q2.05 6.55 3.2 4.85 -2.95 7.05 -9.45 3.75 -8.9 5.0 -10.1 6.3 L-12.05 8.05 -16.65 6.85 Q-15.5 2.9 -10.6 1.1 -1.3 -1.9 5.1 3.6 10.15 4.25 12.25 1.0 M-9.45 3.75 L-10.6 1.1 -9.45 3.75 M3.2 4.85 L5.1 3.6 3.2 4.85" fill="#a69b97" fill-rule="evenodd" stroke="none"/>
    <path d="M15.8 -5.45 L6.65 -6.75 6.4 -6.2 11.0 -4.35 12.25 0.95 12.25 1.0 Q10.15 4.25 5.1 3.6 -1.3 -1.9 -10.6 1.1 -15.5 2.9 -16.65 6.85 L-21.25 5.6 -21.25 3.15 -22.95 2.75 Q-24.1 -3.65 -20.6 -9.85 -3.55 -13.65 13.95 -9.85 15.85 -7.85 15.8 -5.45 M6.4 -6.2 Q-4.45 -9.95 -14.05 -7.5 -20.45 -3.45 -21.25 3.15 -20.45 -3.45 -14.05 -7.5 -4.45 -9.95 6.4 -6.2" fill="#8f8682" fill-rule="evenodd" stroke="none"/>
    <path d="M14.5 -2.25 L14.45 -2.25 15.4 -3.55 14.5 -2.25 M15.8 -5.45 Q15.85 -7.85 13.95 -9.85 19.3 -8.7 23.3 -0.75 L23.1 -0.9 15.8 -5.45" fill="#000000" fill-rule="evenodd" stroke="none"/>
    <path d="M15.4 -3.55 L15.8 -5.45 23.1 -0.9 Q19.2 -3.15 14.5 -2.25 L15.4 -3.55" fill="#3f3f3f" fill-rule="evenodd" stroke="none"/>
    <path d="M6.4 -6.2 L11.0 -4.35 12.25 0.95 12.25 1.0 Q12.9 5.0 12.5 9.25 L12.4 11.75 3.3 9.95 3.3 7.85 Q2.05 6.55 3.2 4.85 -2.95 7.05 -9.45 3.75 -8.9 5.0 -10.1 6.3 L-12.05 8.05 -16.65 6.85 -21.25 5.6 -21.25 3.15 Q-20.45 -3.45 -14.05 -7.5 -4.45 -9.95 6.4 -6.2 M5.1 3.6 L3.2 4.85 M-10.6 1.1 L-9.45 3.75" fill="none" stroke="#000000" stroke-linecap="round" stroke-linejoin="round" stroke-width="1.0"/>
    <path d="M23.3 -0.75 L23.1 -0.9" fill="none" stroke="#000000" stroke-linecap="round" stroke-linejoin="round" stroke-width="0.05"/>
    <path d="M14.4 -2.3 L14.5 -2.3 Q14.7 -2.3 14.55 -2.15 L12.6 1.3 11.85 1.35 Q11.5 1.0 11.8 0.65 L14.4 -2.3 M-20.8 5.3 Q-20.55 5.7 -20.95 6.0 L-21.65 5.85 -23.35 2.95 -23.4 2.8 -23.55 2.0 -23.65 -0.05 -23.7 -0.25 -23.7 -0.5 -23.65 -0.9 -23.65 -1.3 -23.55 -2.6 -23.3 -3.8 -23.25 -4.25 -23.0 -5.25 -22.9 -5.45 -22.75 -6.05 -22.65 -6.25 -22.55 -6.65 -22.45 -6.85 -22.4 -7.05 -22.2 -7.4 -21.9 -8.2 -20.95 -10.05 -20.65 -10.25 -9.85 -11.85 -1.65 -12.05 -1.4 -12.0 0.75 -11.95 0.9 -11.9 1.0 -11.9 2.65 -11.8 2.9 -11.75 3.2 -11.75 4.85 -11.6 5.1 -11.55 5.25 -11.55 5.35 -11.5 7.0 -11.3 7.25 -11.3 14.0 -10.05 14.15 -9.95 14.15 -9.8 Q14.15 -9.45 13.9 -9.6 L13.85 -9.6 7.45 -10.7 7.2 -10.7 5.3 -10.95 5.05 -10.95 3.15 -11.15 2.9 -11.15 2.6 -11.2 2.05 -11.2 1.0 -11.3 0.45 -11.3 -0.05 -11.35 -1.7 -11.35 -2.2 -11.4 -11.95 -10.9 -20.3 -9.45 -20.2 -9.6 -20.5 -9.4 -20.3 -9.45 -20.95 -8.2 -21.55 -6.7 -21.65 -6.55 -21.7 -6.35 -22.45 -3.65 -22.45 -3.45 -22.5 -3.25 -22.7 -1.65 -22.7 -1.25 -22.75 -1.15 -22.75 -0.1 -22.7 0.25 -22.6 1.85 -22.45 2.55 -22.5 2.5 -22.45 2.65 -22.45 2.55 -20.8 5.3" fill="#000000" fill-rule="evenodd" stroke="none"/>
  </g>
</svg>
