<?xml version="1.0" encoding="UTF-8" standalone="no"?>
<svg xmlns:xlink="http://www.w3.org/1999/xlink" height="133.95px" width="212.5px" xmlns="http://www.w3.org/2000/svg">
  <g transform="matrix(1.0, 0.0, 0.0, 1.0, 106.0, 66.95)">
    <path d="M22.65 -40.3 L20.4 -39.75 11.0 -38.7 20.4 -39.75 22.65 -40.3 22.2 -39.1 95.65 -13.1 97.5 -6.85 Q70.15 -10.3 42.45 -22.0 L37.4 -24.25 Q32.65 -24.6 26.55 -27.3 23.85 -31.5 20.25 -29.3 19.9 -30.8 18.35 -32.6 16.05 -35.3 11.0 -38.7 -2.55 -36.85 -17.7 -38.7 L-20.7 -42.0 Q-11.25 -42.3 -33.25 -51.7 -20.4 -49.25 -18.35 -50.15 L-18.0 -50.1 -18.35 -50.15 -17.95 -50.5 -18.0 -50.1 18.85 -45.55 22.65 -40.3 M20.4 -39.75 L22.2 -39.1 20.4 -39.75 M15.25 -29.4 L17.15 -24.9 13.5 -23.7 5.1 -22.6 13.5 -23.7 72.45 -2.0 73.65 2.4 Q59.85 0.7 28.0 -7.1 22.55 -9.1 18.05 -13.55 12.0 -22.05 5.1 -22.6 L3.45 -22.5 -0.45 -22.35 -3.5 -22.35 Q-9.2 -27.9 -14.85 -29.45 L-12.0 -31.1 15.25 -29.4 M4.6 -10.9 L52.9 10.3 54.9 16.5 Q43.5 15.25 18.95 9.45 12.7 1.05 5.65 -3.3 1.25 -8.25 -4.75 -8.5 L-5.1 -8.5 -14.9 -9.3 Q-21.2 -14.1 -24.65 -14.65 -31.15 -18.15 -30.35 -22.35 L-30.05 -23.35 -30.15 -23.55 Q-31.65 -25.7 -42.75 -30.3 L-42.65 -30.4 Q-32.85 -26.85 -29.1 -26.1 L-27.7 -25.9 -1.4 -12.75 -0.3 -8.7 Q3.65 -9.2 4.6 -10.9 M28.35 28.6 Q20.7 27.2 5.4 21.65 -6.15 15.15 -12.3 6.5 -7.7 5.35 -6.65 4.4 L27.35 23.2 28.35 28.6 M10.0 41.75 Q3.5 40.35 -8.6 34.95 -10.65 27.75 -15.75 24.35 L-21.5 18.8 Q-16.6 17.75 -20.65 13.55 -23.35 10.75 -29.9 6.55 L-22.05 6.95 -29.9 6.55 -42.3 -6.85 -12.95 1.1 -12.3 6.5 -22.05 6.95 9.8 35.35 10.0 41.75 M-4.7 55.85 Q-10.6 54.45 -22.3 48.2 L-25.3 43.75 Q-27.3 36.35 -34.05 31.65 -32.35 30.2 -33.35 27.25 -34.6 23.6 -40.0 17.6 -42.5 13.65 -46.0 11.3 -46.35 8.2 -49.8 5.15 -47.3 5.5 -47.05 4.65 L-26.75 16.2 -25.65 19.1 -34.15 18.45 -40.0 17.6 -34.15 18.45 -4.9 49.65 -4.7 55.85 M-21.85 66.35 Q-27.6 65.5 -38.4 60.5 L-48.75 53.9 -60.35 39.9 Q-66.65 36.05 -72.3 30.9 -67.3 31.55 -67.3 29.0 L-67.55 27.45 -49.3 37.6 -48.8 42.2 Q-41.6 42.7 -45.1 37.6 L-21.85 60.25 -21.85 66.35 M-30.35 -22.35 Q-29.75 -22.75 -30.05 -23.35 -29.75 -22.75 -30.35 -22.35 M-0.3 -8.7 L-4.75 -8.5 -0.3 -8.7 M-38.55 27.25 L-37.45 32.8 Q-42.0 33.3 -51.25 31.2 -54.6 28.2 -57.15 27.2 L-63.3 22.8 -67.45 18.45 Q-60.6 18.45 -65.2 14.75 -60.6 15.85 -60.25 14.45 L-60.25 14.0 Q-60.45 12.85 -62.6 10.55 L-38.55 27.25 M-48.8 42.2 Q-52.85 41.95 -60.35 39.9 -52.85 41.95 -48.8 42.2" fill="#ffffff" fill-rule="evenodd" stroke="none"/>
    <path d="M18.85 -45.55 L-18.0 -50.1 -17.95 -50.5 Q-17.45 -52.1 -30.8 -58.0 L-27.95 -60.95 Q-3.75 -59.6 21.8 -50.9 27.55 -48.95 33.35 -46.65 L46.75 -41.4 Q88.3 -27.0 100.75 -16.4 L95.65 -13.1 22.2 -39.1 22.65 -40.3 Q32.5 -43.25 21.8 -50.9 L18.85 -45.55 M-20.7 -42.0 L-17.7 -38.7 Q-2.55 -36.85 11.0 -38.7 16.05 -35.3 18.35 -32.6 L15.25 -29.4 -12.0 -31.1 -14.85 -29.45 Q-9.2 -27.9 -3.5 -22.35 L-0.45 -22.35 3.45 -22.5 5.1 -22.6 Q12.0 -22.05 18.05 -13.55 22.55 -9.1 28.0 -7.1 48.05 2.45 57.15 8.2 L52.9 10.3 4.6 -10.9 Q5.65 -12.8 3.0 -16.15 0.9 -18.8 -3.5 -22.35 0.9 -18.8 3.0 -16.15 L-1.4 -12.75 -27.7 -25.9 Q-23.25 -25.7 -40.2 -36.15 -31.85 -33.35 -26.9 -32.05 L-25.2 -31.6 Q-19.0 -30.1 -19.65 -31.6 -20.7 -34.0 -40.0 -44.4 -25.8 -41.9 -20.7 -42.0 M20.25 -29.3 Q23.85 -31.5 26.55 -27.3 32.65 -24.6 37.4 -24.25 L42.45 -22.0 48.5 -19.3 52.15 -17.6 Q68.75 -9.9 76.75 -5.05 L72.45 -2.0 13.5 -23.7 17.15 -24.9 Q20.8 -26.55 20.25 -29.3 M18.95 9.45 Q27.45 16.2 31.75 20.6 L27.35 23.2 -6.65 4.4 Q-4.25 2.3 -6.8 -1.5 -9.05 -4.8 -14.9 -9.3 -9.05 -4.8 -6.8 -1.5 L-12.95 1.1 -42.3 -6.85 Q-41.7 -7.75 -47.35 -11.75 L-41.8 -11.1 -40.6 -11.15 Q-35.85 -11.7 -45.2 -17.85 -37.4 -16.25 -34.35 -16.15 L-33.3 -16.15 Q-32.6 -16.25 -32.45 -16.45 -32.2 -16.8 -33.15 -17.55 -35.2 -19.1 -42.4 -22.25 L-32.9 -21.8 Q-31.1 -21.95 -30.4 -22.35 L-30.35 -22.35 Q-31.15 -18.15 -24.65 -14.65 -21.2 -14.1 -14.9 -9.3 L-5.1 -8.5 -4.75 -8.5 Q1.25 -8.25 5.65 -3.3 12.7 1.05 18.95 9.45 M5.4 21.65 Q13.3 30.3 16.05 35.35 L9.8 35.35 -22.05 6.95 -12.3 6.5 Q-6.15 15.15 5.4 21.65 M-8.6 34.95 Q-1.6 44.4 0.5 49.65 L-4.9 49.65 -34.15 18.45 -25.65 19.1 -21.5 18.8 -15.75 24.35 Q-10.65 27.75 -8.6 34.95 M-22.3 48.2 Q-17.15 55.8 -15.85 60.25 L-21.85 60.25 -45.1 37.6 -49.3 37.6 -67.55 27.45 Q-68.1 25.6 -69.95 23.55 -61.95 27.95 -60.9 27.1 L-60.75 26.75 Q-60.7 25.8 -63.3 22.8 L-57.15 27.2 Q-54.6 28.2 -51.25 31.2 -42.0 33.3 -37.45 32.8 -35.2 32.5 -34.05 31.65 -27.3 36.35 -25.3 43.75 L-22.3 48.2 M-29.9 6.55 Q-23.35 10.75 -20.65 13.55 L-26.75 16.2 -47.05 4.65 Q-46.65 3.0 -54.55 -3.05 -49.85 -2.65 -47.95 -3.15 L-47.05 -3.55 Q-45.5 -4.8 -49.95 -8.15 -42.95 -5.95 -42.3 -6.85 L-29.9 6.55 M-49.8 5.15 Q-46.35 8.2 -46.0 11.3 -42.5 13.65 -40.0 17.6 -34.6 23.6 -33.35 27.25 L-38.55 27.25 -62.6 10.55 Q-54.45 11.0 -56.35 8.95 -53.35 9.95 -53.5 8.7 -53.55 8.3 -53.95 7.6 L-54.1 7.45 Q-55.2 5.8 -58.2 2.85 L-51.9 4.75 -49.8 5.15 M-51.25 31.2 Q-46.9 35.05 -45.1 37.6 -46.9 35.05 -51.25 31.2" fill="#ececec" fill-rule="evenodd" stroke="none"/>
    <path d="M22.65 -40.3 L18.85 -45.55 21.8 -50.9 Q32.5 -43.25 22.65 -40.3 M18.35 -32.6 Q19.9 -30.8 20.25 -29.3 20.8 -26.55 17.15 -24.9 L15.25 -29.4 18.35 -32.6 M97.5 -6.85 L95.65 -13.1 100.75 -16.4 Q107.45 -10.65 105.6 -6.05 L97.5 -6.85 M3.0 -16.15 Q5.65 -12.8 4.6 -10.9 3.65 -9.2 -0.3 -8.7 L-1.4 -12.75 3.0 -16.15 M52.9 10.3 L57.15 8.2 Q73.4 18.4 54.9 16.5 L52.9 10.3 M72.45 -2.0 L76.75 -5.05 Q93.05 4.7 73.65 2.4 L72.45 -2.0 M31.75 20.6 Q41.8 31.05 28.35 28.6 L27.35 23.2 31.75 20.6 M16.05 35.35 Q20.9 44.1 10.0 41.75 L9.8 35.35 16.05 35.35 M0.5 49.65 Q3.75 57.75 -4.7 55.85 L-4.9 49.65 0.5 49.65 M-15.85 60.25 Q-13.7 67.55 -21.85 66.35 L-21.85 60.25 -15.85 60.25 M-20.65 13.55 Q-16.6 17.75 -21.5 18.8 L-25.65 19.1 -26.75 16.2 -20.65 13.55 M-6.8 -1.5 Q-4.25 2.3 -6.65 4.4 -7.7 5.35 -12.3 6.5 L-12.95 1.1 -6.8 -1.5 M-33.35 27.25 Q-32.35 30.2 -34.05 31.65 -35.2 32.5 -37.45 32.8 L-38.55 27.25 -33.35 27.25 M-48.8 42.2 L-49.3 37.6 -45.1 37.6 Q-41.6 42.7 -48.8 42.2" fill="#000000" fill-rule="evenodd" stroke="none"/>
    <path d="M-106.0 14.1 Q-105.8 7.75 -102.95 0.75 -78.0 -29.9 -50.95 -55.55 L-50.75 -55.75 -45.5 -61.35 Q-42.6 -64.35 -39.95 -65.6 -31.05 -68.1 -35.2 -63.05 -65.8 -19.65 -106.0 14.1 M-63.1 -1.7 L-61.1 -3.95 -54.55 -3.05 Q-46.65 3.0 -47.05 4.65 -47.3 5.5 -49.8 5.15 L-51.9 4.75 -58.2 2.85 -63.1 -1.7 M-49.95 -8.15 Q-51.9 -9.6 -54.95 -11.45 L-54.1 -13.15 -47.35 -11.75 Q-41.7 -7.75 -42.3 -6.85 -42.95 -5.95 -49.95 -8.15 M-45.2 -17.85 L-49.2 -20.4 -47.9 -22.9 -42.4 -22.25 Q-35.2 -19.1 -33.15 -17.55 -32.2 -16.8 -32.45 -16.45 -32.6 -16.25 -33.3 -16.15 L-34.35 -16.15 Q-37.4 -16.25 -45.2 -17.85 M-62.6 10.55 Q-60.45 12.85 -60.25 14.0 L-60.25 14.45 Q-60.6 15.85 -65.2 14.75 -67.55 12.9 -72.75 10.1 L-72.45 9.55 -62.6 10.55 M-67.45 18.45 L-63.3 22.8 Q-60.7 25.8 -60.75 26.75 L-60.9 27.1 Q-61.95 27.95 -69.95 23.55 -72.55 20.65 -77.8 17.4 L-67.45 18.45" fill="#ecded7" fill-rule="evenodd" stroke="none"/>
    <path d="M-18.35 -50.15 Q-20.4 -49.25 -33.25 -51.7 -11.25 -42.3 -20.7 -42.0 -25.8 -41.9 -40.0 -44.4 -20.7 -34.0 -19.65 -31.6 -19.0 -30.1 -25.2 -31.6 L-26.9 -32.05 Q-31.85 -33.35 -40.2 -36.15 -23.25 -25.7 -27.7 -25.9 L-29.1 -26.1 Q-32.85 -26.85 -42.65 -30.4 L-42.75 -30.3 Q-31.65 -25.7 -30.15 -23.55 L-30.05 -23.35 -30.35 -22.35 -30.4 -22.35 Q-31.1 -21.95 -32.9 -21.8 L-42.4 -22.25 -47.9 -22.9 -49.2 -20.4 -45.2 -17.85 Q-35.85 -11.7 -40.6 -11.15 L-41.8 -11.1 -47.35 -11.75 -54.1 -13.15 -54.95 -11.45 Q-51.9 -9.6 -49.95 -8.15 -45.5 -4.8 -47.05 -3.55 L-47.95 -3.15 Q-49.85 -2.65 -54.55 -3.05 L-61.1 -3.95 -63.1 -1.7 -58.2 2.85 Q-55.2 5.8 -54.1 7.45 L-53.95 7.6 Q-53.55 8.3 -53.5 8.7 -53.35 9.95 -56.35 8.95 -59.75 7.85 -67.15 3.95 -59.75 7.85 -56.35 8.95 -54.45 11.0 -62.6 10.55 L-72.45 9.55 -72.95 9.95 -72.75 10.1 Q-67.55 12.9 -65.2 14.75 -60.6 18.45 -67.45 18.45 L-77.8 17.4 Q-72.55 20.65 -69.95 23.55 -68.1 25.6 -67.55 27.45 L-67.3 29.0 Q-67.3 31.55 -72.3 30.9 -77.35 30.2 -87.4 26.3 -81.6 35.0 -94.5 26.3 -94.55 32.2 -103.9 25.85 -106.2 20.3 -106.0 14.1 -65.8 -19.65 -35.2 -63.05 -12.1 -67.5 -27.95 -60.95 L-30.8 -58.0 Q-17.45 -52.1 -17.95 -50.5 L-18.35 -50.15 M-45.5 -61.35 L-42.2 -64.95 -39.95 -65.6 Q-42.6 -64.35 -45.5 -61.35" fill="#fcede6" fill-rule="evenodd" stroke="none"/>
    <path d="M11.0 -38.7 L20.4 -39.75 22.65 -40.3 Q32.5 -43.25 21.8 -50.9 27.55 -48.95 33.35 -46.65 L46.75 -41.4 Q88.3 -27.0 100.75 -16.4 107.45 -10.65 105.6 -6.05 L97.5 -6.85 Q70.15 -10.3 42.45 -22.0 L37.4 -24.25 Q32.65 -24.6 26.55 -27.3 M-18.35 -50.15 Q-20.4 -49.25 -33.25 -51.7 -11.25 -42.3 -20.7 -42.0 -25.8 -41.9 -40.0 -44.4 -20.7 -34.0 -19.65 -31.6 -19.0 -30.1 -25.2 -31.6 L-26.9 -32.05 Q-31.85 -33.35 -40.2 -36.15 -23.25 -25.7 -27.7 -25.9 L-29.1 -26.1 Q-32.85 -26.85 -42.65 -30.4 M-17.7 -38.7 Q-2.55 -36.85 11.0 -38.7 16.05 -35.3 18.35 -32.6 19.9 -30.8 20.25 -29.3 20.8 -26.55 17.15 -24.9 L13.5 -23.7 5.1 -22.6 3.45 -22.5 -0.45 -22.35 -3.5 -22.35 Q0.9 -18.8 3.0 -16.15 5.65 -12.8 4.6 -10.9 3.65 -9.2 -0.3 -8.7 L-4.75 -8.5 -5.1 -8.5 -14.9 -9.3 Q-9.05 -4.8 -6.8 -1.5 -4.25 2.3 -6.65 4.4 -7.7 5.35 -12.3 6.5 L-22.05 6.95 -29.9 6.55 Q-23.35 10.75 -20.65 13.55 -16.6 17.75 -21.5 18.8 L-25.65 19.1 -34.15 18.45 -40.0 17.6 Q-42.5 13.65 -46.0 11.3 M57.15 8.2 Q48.05 2.45 28.0 -7.1 22.55 -9.1 18.05 -13.55 M76.75 -5.05 Q68.75 -9.9 52.15 -17.6 L48.5 -19.3 42.45 -22.0 M73.65 2.4 Q93.05 4.7 76.75 -5.05 M54.9 16.5 Q73.4 18.4 57.15 8.2 M54.9 16.5 Q43.5 15.25 18.95 9.45 27.45 16.2 31.75 20.6 41.8 31.05 28.35 28.6 20.7 27.2 5.4 21.65 13.3 30.3 16.05 35.35 20.9 44.1 10.0 41.75 3.5 40.35 -8.6 34.95 -1.6 44.4 0.5 49.65 3.75 57.75 -4.7 55.85 -10.6 54.45 -22.3 48.2 -17.15 55.8 -15.85 60.25 -13.7 67.55 -21.85 66.35 -27.6 65.5 -38.4 60.5 L-48.75 53.9 M-72.3 30.9 Q-77.35 30.2 -87.4 26.3 -81.6 35.0 -94.5 26.3 -94.55 32.2 -103.9 25.85 M-102.95 0.75 Q-78.0 -29.9 -50.95 -55.55 L-50.75 -55.75 -45.5 -61.35 Q-42.6 -64.35 -39.95 -65.6 -31.05 -68.1 -35.2 -63.05 -12.1 -67.5 -27.95 -60.95 -3.75 -59.6 21.8 -50.9 M-15.75 24.35 Q-10.65 27.75 -8.6 34.95 M18.95 9.45 Q12.7 1.05 5.65 -3.3 M28.0 -7.1 Q59.85 0.7 73.65 2.4 M-17.95 -50.5 Q-17.45 -52.1 -30.8 -58.0 M-18.35 -50.15 L-17.95 -50.5 M-42.75 -30.3 Q-31.65 -25.7 -30.15 -23.55 M-30.05 -23.35 Q-29.75 -22.75 -30.35 -22.35 L-30.4 -22.35 Q-31.1 -21.95 -32.9 -21.8 L-42.4 -22.25 -47.9 -22.9 M-24.65 -14.65 Q-21.2 -14.1 -14.9 -9.3 M-61.1 -3.95 L-54.55 -3.05 Q-49.85 -2.65 -47.95 -3.15 L-47.05 -3.55 Q-45.5 -4.8 -49.95 -8.15 -51.9 -9.6 -54.95 -11.45 M-54.1 -13.15 L-47.35 -11.75 -41.8 -11.1 -40.6 -11.15 Q-35.85 -11.7 -45.2 -17.85 L-49.2 -20.4 M-47.35 -11.75 Q-41.7 -7.75 -42.3 -6.85 -42.95 -5.95 -49.95 -8.15 M-14.85 -29.45 Q-9.2 -27.9 -3.5 -22.35 M-45.2 -17.85 Q-37.4 -16.25 -34.35 -16.15 L-33.3 -16.15 Q-32.6 -16.25 -32.45 -16.45 -32.2 -16.8 -33.15 -17.55 -35.2 -19.1 -42.4 -22.25 M-47.05 4.65 Q-47.3 5.5 -49.8 5.15 L-51.9 4.75 -58.2 2.85 -63.1 -1.7 M-34.05 31.65 Q-32.35 30.2 -33.35 27.25 -34.6 23.6 -40.0 17.6 M-37.45 32.8 Q-35.2 32.5 -34.05 31.65 M-25.3 43.75 L-22.3 48.2 M-56.35 8.95 Q-53.35 9.95 -53.5 8.7 -53.55 8.3 -53.95 7.6 L-54.1 7.45 Q-55.2 5.8 -58.2 2.85 M-65.2 14.75 Q-60.6 15.85 -60.25 14.45 L-60.25 14.0 Q-60.45 12.85 -62.6 10.55 L-72.45 9.55 M-72.75 10.1 Q-67.55 12.9 -65.2 14.75 -60.6 18.45 -67.45 18.45 L-63.3 22.8 Q-60.7 25.8 -60.75 26.75 L-60.9 27.1 Q-61.95 27.95 -69.95 23.55 -72.55 20.65 -77.8 17.4 L-67.45 18.45 M-57.15 27.2 Q-54.6 28.2 -51.25 31.2 -42.0 33.3 -37.45 32.8 M-72.75 10.1 L-72.95 9.95 M-72.3 30.9 Q-67.3 31.55 -67.3 29.0 L-67.55 27.45 Q-68.1 25.6 -69.95 23.55 M-48.8 42.2 Q-41.6 42.7 -45.1 37.6 -46.9 35.05 -51.25 31.2 M-60.35 39.9 Q-52.85 41.95 -48.8 42.2 M-67.15 3.95 Q-59.75 7.85 -56.35 8.95 -54.45 11.0 -62.6 10.55 M-47.05 4.65 Q-46.65 3.0 -54.55 -3.05" fill="none" stroke="#000000" stroke-linecap="round" stroke-linejoin="round" stroke-width="1.0"/>
    <path d="M-18.0 -50.1 L-18.35 -50.15 M22.2 -39.1 L20.4 -39.75 M-30.15 -23.55 L-30.05 -23.35" fill="none" stroke="#000000" stroke-linecap="round" stroke-linejoin="round" stroke-width="0.05"/>
  </g>
</svg>
