<?xml version="1.0" encoding="UTF-8" standalone="no"?>
<svg xmlns:xlink="http://www.w3.org/1999/xlink" height="12.2px" width="12.7px" xmlns="http://www.w3.org/2000/svg">
  <g transform="matrix(1.0, 0.0, 0.0, 1.0, 6.35, 6.1)">
    <path d="M-4.65 2.8 L-3.6 0.2 Q-3.1 -0.75 -1.8 -0.65 L1.65 -0.1 2.8 -1.35 Q3.3 -2.25 2.35 -2.8 L1.6 -3.25 Q1.3 -3.3 0.9 -2.6 L0.75 -2.3 -0.05 -2.4 -2.8 -4.05 -3.4 -4.3 Q-3.75 -4.5 -3.5 -5.0 L-3.4 -5.1 Q-2.95 -5.9 -1.2 -6.1 -0.7 -6.15 1.8 -4.85 L2.0 -4.75 5.75 -2.0 Q6.65 -0.65 6.2 0.2 5.4 1.6 4.1 1.8 L2.75 1.65 -0.25 1.1 Q-2.0 1.85 -2.15 3.65 -3.5 3.5 -4.65 2.8 M-4.1 3.85 L-3.15 4.4 Q-2.3 4.9 -2.45 5.9 -2.8 6.45 -5.4 5.45 -6.65 4.6 -6.25 3.9 L-6.15 3.75 -4.1 3.85" fill="#ffffff" fill-rule="evenodd" stroke="none"/>
  </g>
</svg>
