<?xml version="1.0" encoding="UTF-8" standalone="no"?>
<svg xmlns:xlink="http://www.w3.org/1999/xlink" height="125.5px" width="180.15px" xmlns="http://www.w3.org/2000/svg">
  <g transform="matrix(1.0, 0.0, 0.0, 1.0, 59.9, 116.4)">
    <path d="M98.0 -98.4 Q96.5 -99.95 98.7 -101.5 L98.8 -101.5 Q102.95 -102.1 108.05 -98.9 109.45 -98.05 108.05 -97.55 103.1 -97.15 98.0 -98.4" fill="#33302e" fill-rule="evenodd" stroke="none"/>
    <path d="M98.0 -98.4 Q103.1 -97.15 108.05 -97.55 109.45 -98.05 108.05 -98.9 102.95 -102.1 98.8 -101.5 L98.7 -101.5 Q96.5 -99.95 98.0 -98.4 M106.4 -112.15 Q108.35 -111.8 109.45 -111.15 123.45 -99.9 118.45 -93.55 L116.9 -92.65 113.15 -90.6 108.65 -88.45 105.35 -87.1 104.15 -86.6 101.95 -85.8 99.25 -84.0 98.1 -83.25 93.6 -80.45 92.15 -79.5 87.8 -76.85 86.2 -75.95 Q83.95 -74.6 81.8 -73.4 L79.35 -72.05 75.2 -69.9 72.0 -68.3 68.65 -66.8 65.9 -65.65 70.4 -71.3 Q77.35 -80.3 80.55 -86.5 88.05 -101.05 74.65 -99.95 59.3 -98.7 48.4 -87.2 47.85 -88.8 44.45 -89.1 44.75 -91.85 41.3 -91.35 L40.1 -91.1 36.05 -92.45 Q39.9 -100.6 51.7 -103.75 56.75 -102.75 61.45 -103.7 82.75 -109.1 106.4 -112.15" fill="#8f8682" fill-rule="evenodd" stroke="none"/>
    <path d="M5.25 -113.45 L6.15 -114.4 6.15 -115.8 Q10.25 -116.25 22.65 -114.55 L27.75 -113.8 Q35.7 -113.6 44.25 -111.7 L53.0 -109.7 Q53.75 -105.25 52.2 -104.0 44.4 -108.7 31.2 -109.6 L30.35 -109.65 18.45 -110.5 Q20.6 -109.85 17.5 -107.35 8.65 -104.0 -3.2 -107.45 L-7.45 -108.8 Q-10.3 -110.45 -11.85 -111.7 L-9.25 -112.55 -9.25 -115.0 Q-3.7 -114.55 8.4 -111.7 L7.5 -112.1 5.25 -113.45 M-36.15 3.15 L-36.35 3.1 Q-39.3 2.45 -33.35 -5.05 L-33.3 -5.05 -28.95 -10.25 Q-21.25 -16.85 -13.55 -11.8 -26.6 -6.45 -36.15 3.15 M-34.7 -6.2 L-49.45 8.6 Q-51.95 8.85 -47.55 -0.95 -58.5 0.65 -45.2 -11.3 -73.75 1.1 -44.8 -23.15 -40.25 -23.4 -29.65 -26.2 L-22.15 -34.85 Q-17.05 -37.9 -19.8 -31.45 L-42.75 -2.7 Q-40.2 -3.1 -34.7 -6.2 M-47.4 -25.7 Q-46.1 -29.0 -38.1 -36.4 -54.15 -29.1 -35.5 -46.6 -32.65 -54.8 -29.45 -62.6 L-28.6 -62.45 Q-22.8 -59.8 -18.1 -60.0 -19.35 -52.9 -25.3 -46.25 -23.8 -41.45 -18.9 -41.35 L-47.4 -25.7 M-30.85 -69.4 L-29.8 -70.35 Q-27.1 -72.75 -24.25 -74.5 L-20.5 -76.6 -19.9 -76.85 Q-12.75 -80.25 -8.2 -81.45 -5.7 -77.7 -7.4 -72.9 -10.15 -71.2 -11.9 -71.7 L-27.4 -67.25 -30.85 -69.4 M-27.95 -92.95 Q-24.0 -95.2 -20.0 -96.4 -23.4 -98.4 -26.5 -101.2 L-23.15 -104.85 Q-9.9 -102.05 0.1 -95.95 L6.0 -93.25 6.0 -92.95 Q6.7 -91.5 7.5 -90.4 -2.65 -93.3 -3.3 -90.4 -13.2 -88.35 -25.3 -90.0 L-27.95 -92.95 M-45.2 -11.3 L-39.15 -14.25 Q-47.05 -3.6 -44.05 -2.7 -43.55 -2.55 -42.75 -2.7 -43.55 -2.55 -44.05 -2.7 -47.05 -3.6 -39.15 -14.25 L-45.2 -11.3 M-29.65 -42.05 Q-34.95 -39.3 -38.1 -36.4 -34.95 -39.3 -29.65 -42.05 M-29.65 -26.2 L-39.15 -14.25 -29.65 -26.2" fill="#ecded7" fill-rule="evenodd" stroke="none"/>
    <path d="M6.15 -115.8 L6.15 -114.4 5.25 -113.45 Q2.65 -115.4 6.15 -115.8 M-9.25 -115.0 L-9.25 -112.55 -11.85 -111.7 Q-17.0 -115.65 -9.25 -115.0 M-29.45 -62.6 Q-32.5 -63.25 -35.6 -64.3 -33.3 -67.15 -30.85 -69.4 L-27.4 -67.25 -28.6 -62.45 -29.45 -62.6 M-27.6 -85.6 Q-30.65 -87.15 -33.7 -89.25 L-27.95 -92.95 -25.3 -90.0 -27.6 -85.6 M-26.5 -101.2 Q-29.05 -103.5 -31.4 -106.25 -28.1 -107.65 -24.95 -108.4 L-23.15 -104.85 -26.5 -101.2" fill="#000000" fill-rule="evenodd" stroke="none"/>
    <path d="M51.7 -103.75 Q39.9 -100.6 36.05 -92.45 33.95 -93.05 32.8 -93.6 24.8 -97.75 22.95 -97.85 21.1 -97.95 24.45 -93.9 L23.25 -94.75 22.25 -95.35 23.25 -94.75 23.2 -94.75 22.25 -95.35 Q15.3 -100.75 7.45 -98.4 8.4 -94.75 16.0 -92.95 L6.0 -93.25 0.1 -95.95 Q-9.9 -102.05 -23.15 -104.85 L-24.95 -108.4 -19.5 -109.4 Q-26.1 -118.5 -9.75 -109.25 L-7.45 -108.8 -3.2 -107.45 Q8.65 -104.0 17.5 -107.35 20.6 -109.85 18.45 -110.5 L30.35 -109.65 31.2 -109.6 Q44.4 -108.7 52.2 -104.0 L51.7 -103.75 M27.25 -16.8 Q6.2 13.25 -16.55 -5.4 L-17.65 -4.65 Q-32.5 3.55 -36.15 3.15 -26.6 -6.45 -13.55 -11.8 -21.25 -16.85 -28.95 -10.25 L-33.3 -5.05 -33.35 -5.05 -33.4 -5.15 -34.7 -6.2 Q-40.2 -3.1 -42.75 -2.7 L-19.8 -31.45 Q-17.05 -37.9 -22.15 -34.85 L-29.65 -26.2 Q-40.25 -23.4 -44.8 -23.15 -48.5 -22.95 -47.4 -25.7 L-18.9 -41.35 Q-23.8 -41.45 -25.3 -46.25 -19.35 -52.9 -18.1 -60.0 -22.8 -59.8 -28.6 -62.45 L-27.4 -67.25 -11.9 -71.7 -11.65 -71.05 Q-10.85 -69.15 -10.2 -68.8 L-8.2 -67.95 -7.45 -67.7 Q-8.8 -65.85 -6.55 -67.0 L-5.95 -67.35 -7.05 -66.3 Q-8.95 -63.8 -11.2 -62.3 L-11.55 -62.05 -11.6 -62.1 -11.7 -61.95 -12.05 -61.5 -12.25 -61.3 -13.85 -58.95 Q-14.3 -58.15 -13.7 -58.05 L-13.65 -58.05 Q-11.05 -57.75 -9.1 -59.85 L-8.85 -59.95 Q-7.35 -59.25 -6.95 -58.05 -9.8 -54.5 -10.95 -53.4 L-10.95 -52.6 -8.9 -53.2 -8.1 -53.6 Q-13.05 -45.8 -9.45 -45.15 L-5.5 -44.6 Q-6.55 -26.25 0.95 -32.0 3.9 -10.5 5.25 -26.85 7.55 -24.55 10.15 -22.85 17.05 -19.05 24.55 -17.35 L27.25 -16.8 M-8.2 -81.45 L-12.3 -81.4 Q-16.35 -81.55 -20.35 -82.7 -24.0 -83.75 -27.6 -85.6 L-25.3 -90.0 Q-13.2 -88.35 -3.3 -90.4 -3.75 -88.65 -0.75 -84.8 L-3.0 -82.2 -3.05 -82.2 -8.2 -81.45 M-9.75 -109.25 Q-14.45 -110.0 -19.5 -109.4 -14.45 -110.0 -9.75 -109.25 M-11.7 -61.95 Q-14.6 -60.2 -18.1 -60.0 -14.6 -60.2 -11.7 -61.95 M-7.05 -66.3 L-6.55 -67.0 -7.05 -66.3 M-28.95 -10.25 L-34.35 -6.45 -34.7 -6.2 -34.35 -6.45 -28.95 -10.25" fill="#fcede6" fill-rule="evenodd" stroke="none"/>
    <path d="M106.4 -112.15 Q82.75 -109.1 61.45 -103.7 56.75 -102.75 51.7 -103.75 L52.2 -104.0 Q53.75 -105.25 53.0 -109.7 L61.8 -107.7 Q96.05 -114.05 106.4 -112.15 M48.4 -87.2 Q59.3 -98.7 74.65 -99.95 88.05 -101.05 80.55 -86.5 77.35 -80.3 70.4 -71.3 76.45 -80.25 80.65 -89.7 79.9 -104.0 53.75 -86.5 L48.45 -86.3 48.4 -87.2" fill="#837b76" fill-rule="evenodd" stroke="none"/>
    <path d="M36.05 -92.45 L40.1 -91.1 41.3 -91.35 Q44.75 -91.85 44.45 -89.1 47.85 -88.8 48.4 -87.2 L48.45 -86.3 53.75 -86.5 Q56.4 -85.45 54.0 -80.65 58.0 -79.65 55.55 -78.0 53.15 -76.35 55.35 -74.7 59.45 -71.55 54.75 -69.65 59.85 -64.1 53.15 -66.1 54.5 -63.2 50.45 -60.5 38.15 -54.3 22.3 -51.55 L24.6 -47.35 Q28.7 -38.85 28.85 -29.5 L36.2 -28.6 39.2 -28.6 28.5 -18.05 28.4 -17.95 27.25 -16.8 24.55 -17.35 Q17.05 -19.05 10.15 -22.85 7.55 -24.55 5.25 -26.85 3.9 -10.5 0.95 -32.0 -6.55 -26.25 -5.5 -44.6 L-9.45 -45.15 Q-13.05 -45.8 -8.1 -53.6 L-8.9 -53.2 -10.95 -52.6 -10.95 -53.4 Q-9.8 -54.5 -6.95 -58.05 -7.35 -59.25 -8.85 -59.95 L-9.1 -59.85 Q-11.05 -57.75 -13.65 -58.05 -13.55 -59.5 -12.25 -61.3 -13.55 -59.5 -13.65 -58.05 L-13.7 -58.05 Q-14.3 -58.15 -13.85 -58.95 L-12.25 -61.3 -12.05 -61.5 -11.7 -61.95 -11.65 -62.0 -11.55 -62.05 -11.65 -62.0 -11.7 -61.95 -11.6 -62.1 -11.55 -62.05 -11.2 -62.3 Q-8.95 -63.8 -7.05 -66.3 L-5.95 -67.35 -7.45 -67.7 -5.95 -67.35 -6.55 -67.0 Q-8.8 -65.85 -7.45 -67.7 L-8.2 -67.95 Q-10.65 -68.95 -11.65 -71.05 -10.65 -68.95 -8.2 -67.95 L-10.2 -68.8 Q-10.85 -69.15 -11.65 -71.05 L-11.9 -71.7 Q-10.15 -71.2 -7.4 -72.9 -5.7 -77.7 -8.2 -81.45 -3.75 -81.1 -3.05 -82.2 L-3.0 -82.2 -0.75 -84.8 Q-3.75 -88.65 -3.3 -90.4 -2.65 -93.3 7.5 -90.4 6.7 -91.5 6.0 -92.95 L6.0 -93.25 16.0 -92.95 Q8.4 -94.75 7.45 -98.4 15.3 -100.75 22.25 -95.35 L23.2 -94.75 22.65 -93.85 24.45 -93.9 Q21.1 -97.95 22.95 -97.85 24.8 -97.75 32.8 -93.6 33.95 -93.05 36.05 -92.45 M68.65 -66.8 L72.0 -68.3 Q73.35 -65.05 71.45 -60.65 L68.65 -66.8 M75.2 -69.9 L79.35 -72.05 Q80.4 -70.85 78.65 -65.45 L75.2 -69.9 M81.8 -73.4 Q83.95 -74.6 86.2 -75.95 86.9 -74.65 85.45 -69.55 L81.8 -73.4 M87.8 -76.85 L92.15 -79.5 Q93.9 -75.75 91.1 -73.75 L87.8 -76.85 M93.6 -80.45 L98.1 -83.25 Q99.25 -78.2 97.85 -76.95 L93.6 -80.45 M99.25 -84.0 L101.95 -85.8 104.15 -86.6 Q105.7 -81.55 104.3 -78.65 L99.25 -84.0 M105.35 -87.1 L108.65 -88.45 113.15 -90.6 116.9 -92.65 118.45 -93.55 118.45 -89.35 Q117.2 -88.95 116.9 -90.3 L116.9 -85.45 Q114.7 -87.45 113.15 -90.6 114.55 -85.8 113.15 -82.8 L108.65 -88.45 Q109.8 -84.85 109.0 -81.65 107.0 -83.2 105.35 -87.1 M63.95 -64.9 L65.9 -65.65 65.9 -61.5 63.95 -64.9 M28.4 -17.95 Q27.5 -17.15 24.55 -17.35 27.5 -17.15 28.4 -17.95 M10.2 -69.8 Q34.15 -53.5 43.35 -78.45 20.25 -96.4 10.2 -69.8 M116.9 -90.3 L116.9 -92.65 116.9 -90.3 M-11.6 -62.1 L-11.65 -62.0 -11.6 -62.1" fill="#ffffff" fill-rule="evenodd" stroke="none"/>
    <path d="M70.4 -71.3 L65.9 -65.65 63.95 -64.9 Q55.4 -61.85 50.45 -60.5 54.5 -63.2 53.15 -66.1 59.85 -64.1 54.75 -69.65 59.45 -71.55 55.35 -74.7 53.15 -76.35 55.55 -78.0 58.0 -79.65 54.0 -80.65 56.4 -85.45 53.75 -86.5 79.9 -104.0 80.65 -89.7 76.45 -80.25 70.4 -71.3" fill="#8a817d" fill-rule="evenodd" stroke="none"/>
    <path d="M24.45 -93.9 L22.65 -93.85 23.2 -94.75 23.25 -94.75 24.45 -93.9" fill="#e7dcd5" fill-rule="evenodd" stroke="none"/>
    <path d="M10.2 -69.8 Q20.25 -96.4 43.35 -78.45 34.15 -53.5 10.2 -69.8" fill="#ececec" fill-rule="evenodd" stroke="none"/>
    <path d="M118.45 -93.55 Q123.45 -99.9 109.45 -111.15 108.35 -111.8 106.4 -112.15 96.05 -114.05 61.8 -107.7 L53.0 -109.7 44.25 -111.7 Q35.7 -113.6 27.75 -113.8 L22.65 -114.55 Q10.25 -116.25 6.15 -115.8 2.65 -115.4 5.25 -113.45 L7.5 -112.1 8.4 -111.7 Q-3.7 -114.55 -9.25 -115.0 -17.0 -115.65 -11.85 -111.7 -10.3 -110.45 -7.45 -108.8 L-3.2 -107.45 M51.7 -103.75 Q39.9 -100.6 36.05 -92.45 L40.1 -91.1 M41.3 -91.35 Q44.75 -91.85 44.45 -89.1 47.85 -88.8 48.4 -87.2 L48.45 -86.3 53.75 -86.5 Q56.4 -85.45 54.0 -80.65 58.0 -79.65 55.55 -78.0 53.15 -76.35 55.35 -74.7 59.45 -71.55 54.75 -69.65 59.85 -64.1 53.15 -66.1 54.5 -63.2 50.45 -60.5 38.15 -54.3 22.3 -51.55 L24.6 -47.35 M65.9 -65.65 L68.65 -66.8 72.0 -68.3 75.2 -69.9 79.35 -72.05 81.8 -73.4 Q83.95 -74.6 86.2 -75.95 L87.8 -76.85 92.15 -79.5 93.6 -80.45 98.1 -83.25 99.25 -84.0 101.95 -85.8 104.15 -86.6 105.35 -87.1 108.65 -88.45 113.15 -90.6 116.9 -92.65 118.45 -93.55 M52.2 -104.0 Q53.75 -105.25 53.0 -109.7 M51.7 -103.75 L52.2 -104.0 M63.95 -64.9 L65.9 -65.65 M63.95 -64.9 Q55.4 -61.85 50.45 -60.5 M39.2 -28.6 L28.5 -18.05 28.4 -17.95 Q27.5 -17.15 24.55 -17.35 17.05 -19.05 10.15 -22.85 7.55 -24.55 5.25 -26.85 3.9 -10.5 0.95 -32.0 -6.55 -26.25 -5.5 -44.6 L-9.45 -45.15 Q-13.05 -45.8 -8.1 -53.6 L-8.9 -53.2 -10.95 -52.6 -10.95 -53.4 Q-9.8 -54.5 -6.95 -58.05 -7.35 -59.25 -8.85 -59.95 L-9.1 -59.85 Q-11.05 -57.75 -13.65 -58.05 -13.55 -59.5 -12.25 -61.3 L-12.05 -61.5 -11.7 -61.95 -11.65 -62.0 -11.6 -62.1 M-16.55 -5.4 L-17.65 -4.65 Q-32.5 3.55 -36.15 3.15 L-36.35 3.1 Q-39.3 2.45 -33.35 -5.05 L-33.3 -5.05 -28.95 -10.25 -34.35 -6.45 -34.7 -6.2 -49.45 8.6 Q-51.95 8.85 -47.55 -0.95 -58.5 0.65 -45.2 -11.3 -73.75 1.1 -44.8 -23.15 -48.5 -22.95 -47.4 -25.7 -46.1 -29.0 -38.1 -36.4 -54.15 -29.1 -35.5 -46.6 -32.65 -54.8 -29.45 -62.6 -32.5 -63.25 -35.6 -64.3 -33.3 -67.15 -30.85 -69.4 L-29.8 -70.35 Q-27.1 -72.75 -24.25 -74.5 L-20.5 -76.6 M-8.2 -81.45 L-12.3 -81.4 Q-16.35 -81.55 -20.35 -82.7 -24.0 -83.75 -27.6 -85.6 -30.65 -87.15 -33.7 -89.25 L-27.95 -92.95 Q-24.0 -95.2 -20.0 -96.4 -23.4 -98.4 -26.5 -101.2 -29.05 -103.5 -31.4 -106.25 -28.1 -107.65 -24.95 -108.4 L-19.5 -109.4 Q-26.1 -118.5 -9.75 -109.25 L-7.45 -108.8 M36.05 -92.45 Q33.95 -93.05 32.8 -93.6 24.8 -97.75 22.95 -97.85 21.1 -97.95 24.45 -93.9 L23.25 -94.75 22.25 -95.35 Q15.3 -100.75 7.45 -98.4 8.4 -94.75 16.0 -92.95 L6.0 -93.25 6.0 -92.95 Q6.7 -91.5 7.5 -90.4 -2.65 -93.3 -3.3 -90.4 -3.75 -88.65 -0.75 -84.8 L-3.0 -82.2 -3.05 -82.2 Q-3.75 -81.1 -8.2 -81.45 -5.7 -77.7 -7.4 -72.9 -10.15 -71.2 -11.9 -71.7 L-11.65 -71.05 Q-10.65 -68.95 -8.2 -67.95 L-7.45 -67.7 -5.95 -67.35 -6.55 -67.0 -7.05 -66.3 Q-8.95 -63.8 -11.2 -62.3 L-11.55 -62.05 -11.65 -62.0 M23.2 -94.75 L22.25 -95.35 M23.2 -94.75 L23.25 -94.75 M-19.5 -109.4 Q-14.45 -110.0 -9.75 -109.25 M-3.05 -82.2 L-8.2 -81.45 M-28.6 -62.45 L-29.45 -62.6 M-28.6 -62.45 Q-22.8 -59.8 -18.1 -60.0 -14.6 -60.2 -11.7 -61.95 M-42.75 -2.7 Q-43.55 -2.55 -44.05 -2.7 -47.05 -3.6 -39.15 -14.25 L-45.2 -11.3 M-44.8 -23.15 Q-40.25 -23.4 -29.65 -26.2 L-22.15 -34.85 M-42.75 -2.7 Q-40.2 -3.1 -34.7 -6.2 M-38.1 -36.4 Q-34.95 -39.3 -29.65 -42.05 M-39.15 -14.25 L-29.65 -26.2" fill="none" stroke="#000000" stroke-linecap="round" stroke-linejoin="round" stroke-width="1.0"/>
    <path d="M40.1 -91.1 L41.3 -91.35 M118.45 -93.55 L118.45 -89.35 Q117.2 -88.95 116.9 -90.3 L116.9 -85.45 Q114.7 -87.45 113.15 -90.6 114.55 -85.8 113.15 -82.8 L108.65 -88.45 Q109.8 -84.85 109.0 -81.65 107.0 -83.2 105.35 -87.1 M75.2 -69.9 L78.65 -65.45 Q80.4 -70.85 79.35 -72.05 M65.9 -65.65 L65.9 -61.5 63.95 -64.9 M68.65 -66.8 L71.45 -60.65 Q73.35 -65.05 72.0 -68.3 M116.9 -92.65 L116.9 -90.3 M99.25 -84.0 L104.3 -78.65 Q105.7 -81.55 104.15 -86.6 M93.6 -80.45 L97.85 -76.95 Q99.25 -78.2 98.1 -83.25 M81.8 -73.4 L85.45 -69.55 Q86.9 -74.65 86.2 -75.95 M87.8 -76.85 L91.1 -73.75 Q93.9 -75.75 92.15 -79.5" fill="none" stroke="#000000" stroke-linecap="square" stroke-linejoin="round" stroke-width="0.05"/>
    <path d="M19.35 -78.15 Q24.55 -86.45 34.05 -79.4 37.25 -75.8 34.4 -72.15 27.5 -65.0 22.2 -69.3 16.9 -73.6 19.35 -78.15" fill="#fffea4" fill-rule="evenodd" stroke="none"/>
    <path d="M19.35 -78.15 Q16.9 -73.6 22.2 -69.3 27.5 -65.0 34.4 -72.15 37.25 -75.8 34.05 -79.4 24.55 -86.45 19.35 -78.15 Z" fill="none" stroke="#000000" stroke-linecap="round" stroke-linejoin="round" stroke-width="1.0"/>
    <path d="M28.3 -69.55 L27.75 -69.45 Q27.25 -69.6 27.45 -70.1 L27.55 -70.25 27.6 -70.4 27.8 -70.8 27.9 -71.1 28.55 -72.6 28.55 -72.7 28.65 -72.9 28.7 -73.15 28.8 -73.35 28.95 -73.8 29.05 -74.3 29.1 -74.4 29.15 -74.55 29.4 -75.75 29.45 -76.25 29.5 -76.4 29.5 -76.5 29.55 -76.75 29.55 -77.0 29.6 -77.25 29.7 -79.4 29.75 -79.75 29.75 -80.65 29.8 -80.8 Q29.8 -81.15 30.1 -81.25 30.55 -81.4 30.75 -80.95 L30.8 -80.85 30.85 -80.7 30.9 -80.6 30.95 -80.45 31.0 -80.2 31.1 -79.9 31.25 -79.1 31.35 -78.7 31.35 -78.55 31.4 -78.45 31.4 -78.2 31.45 -76.2 31.4 -76.05 31.25 -74.9 31.2 -74.75 31.2 -74.6 31.1 -74.3 31.05 -74.05 30.55 -72.7 30.1 -71.75 28.85 -70.05 28.75 -69.95 28.65 -69.9 28.5 -69.75 28.4 -69.6 28.3 -69.55" fill="#000000" fill-rule="evenodd" stroke="none"/>
    <path d="M36.1 -78.0 L30.65 -80.0 Q26.25 -81.75 22.15 -79.15 L16.9 -75.8 Q24.85 -88.6 36.1 -78.0" fill="#fcede6" fill-rule="evenodd" stroke="none"/>
    <path d="M36.1 -78.0 Q24.85 -88.6 16.9 -75.8 L22.15 -79.15 Q26.25 -81.75 30.65 -80.0 L36.1 -78.0 37.9 -76.15 M15.9 -74.1 L16.9 -75.8" fill="none" stroke="#000000" stroke-linecap="round" stroke-linejoin="round" stroke-width="1.0"/>
  </g>
</svg>
