<?xml version="1.0" encoding="UTF-8" standalone="no"?>
<svg xmlns:xlink="http://www.w3.org/1999/xlink" height="25.85px" width="24.1px" xmlns="http://www.w3.org/2000/svg">
  <g transform="matrix(1.0, 0.0, 0.0, 1.0, 12.05, 12.9)">
    <path d="M-11.55 12.45 L-11.55 -4.55 -3.2 -12.4 -3.2 1.15 -11.55 12.45" fill="#c2b6b1" fill-rule="evenodd" stroke="none"/>
    <path d="M-11.55 12.45 L-3.2 1.15 11.55 1.2 2.1 12.45 -11.55 12.45" fill="#ded0ca" fill-rule="evenodd" stroke="none"/>
    <path d="M-3.2 1.15 L-3.2 -12.4 11.55 -12.4 11.55 1.2 -3.2 1.15" fill="#fcede6" fill-rule="evenodd" stroke="none"/>
    <path d="M-3.2 -12.4 L-11.55 -4.55 -11.55 12.45 -3.2 1.15 -3.2 -12.4 11.55 -12.4 11.55 1.2 2.1 12.45 -11.55 12.45 M-3.2 1.15 L11.55 1.2" fill="none" stroke="#a89e99" stroke-linecap="round" stroke-linejoin="round" stroke-width="1.0"/>
  </g>
</svg>
