<?xml version="1.0" encoding="UTF-8" standalone="no"?>
<svg xmlns:xlink="http://www.w3.org/1999/xlink" height="113.9px" width="78.85px" xmlns="http://www.w3.org/2000/svg">
  <g transform="matrix(1.0, 0.0, 0.0, 1.0, 39.15, 56.65)">
    <path d="M34.0 -48.0 Q37.55 -41.35 39.1 -29.6 28.95 17.5 -5.35 46.4 -14.9 68.8 -16.75 42.2 -19.45 53.2 -20.1 48.75 L-20.3 47.2 -20.25 38.85 -22.0 38.65 Q-24.75 38.15 -27.35 36.9 -27.9 35.1 -24.45 34.75 L-18.3 35.15 Q-15.95 34.25 -15.1 30.7 -11.8 34.7 -11.25 43.65 L-4.7 34.1 Q21.7 -0.15 34.0 -48.0" fill="#cc6f0f" fill-rule="evenodd" stroke="none"/>
    <path d="M-27.35 36.9 L-29.3 35.75 Q-34.5 32.5 -39.05 26.0 L-35.3 16.2 -34.75 14.8 Q-20.8 -19.75 0.0 -45.75 24.25 -66.4 34.0 -48.0 21.7 -0.15 -4.7 34.1 L-11.25 43.65 Q-11.8 34.7 -15.1 30.7 -15.95 34.25 -18.3 35.15 L-24.45 34.75 Q-27.9 35.1 -27.35 36.9" fill="#ee830f" fill-rule="evenodd" stroke="none"/>
    <path d="M39.1 -29.6 Q28.95 17.5 -5.35 46.4 -14.9 68.8 -16.75 42.2 -19.45 53.2 -20.1 48.75 M-34.75 14.8 Q-20.8 -19.75 0.0 -45.75" fill="none" stroke="#4d2b06" stroke-linecap="round" stroke-linejoin="round" stroke-width="1.2000000000000002"/>
    <path d="M-19.5 48.65 L-19.45 48.7 Q-19.45 49.25 -20.0 49.35 -20.65 49.45 -20.65 48.8 L-20.7 48.6 -20.7 48.4 -20.8 47.25 -20.3 38.8 -20.25 38.75 -20.15 38.85 -19.75 47.1 -19.65 47.9 -19.5 48.45 -19.5 48.65 M-38.95 26.0 Q-38.95 26.15 -39.05 26.05 L-39.1 25.95 -35.9 16.35 -35.85 16.15 -35.8 16.05 -35.8 16.0 -35.75 15.95 -35.3 14.55 -35.25 14.55 -35.25 14.5 Q-34.95 13.95 -34.45 14.2 -33.95 14.45 -34.15 15.0 L-34.4 15.45 -34.75 16.35 -34.8 16.4 -34.8 16.45 -34.85 16.5 -34.9 16.7 -38.95 26.0" fill="#4d2b06" fill-rule="evenodd" stroke="none"/>
  </g>
</svg>
