<?xml version="1.0" encoding="UTF-8" standalone="no"?>
<svg xmlns:xlink="http://www.w3.org/1999/xlink" height="61.2px" width="160.25px" xmlns="http://www.w3.org/2000/svg">
  <g transform="matrix(1.0, 0.0, 0.0, 1.0, -79.65, -40.75)">
    <path d="M189.25 76.15 L188.15 81.25 Q137.25 63.15 87.05 48.35 L89.1 41.35 Q136.65 54.25 189.25 76.15" fill="#5d8595" fill-rule="evenodd" stroke="none"/>
    <path d="M87.05 48.35 Q137.25 63.15 188.15 81.25 L183.8 101.35 Q132.3 94.45 108.9 84.4 94.65 77.05 80.25 71.35 L87.05 48.35" fill="#577d8c" fill-rule="evenodd" stroke="none"/>
    <path d="M189.25 76.15 Q136.65 54.25 89.1 41.35 M183.8 101.35 Q132.3 94.45 108.9 84.4 94.65 77.05 80.25 71.35" fill="none" stroke="#31393d" stroke-linecap="round" stroke-linejoin="round" stroke-width="1.2000000000000002"/>
    <path d="M178.7 77.6 L229.5 60.7 239.3 72.25 Q204.8 90.95 183.9 101.3 L178.7 77.6" fill="#577d8c" fill-rule="evenodd" stroke="none"/>
    <path d="M178.7 77.6 L178.1 74.9 Q195.95 63.5 217.65 46.7 L229.5 60.7 178.7 77.6" fill="#5d8595" fill-rule="evenodd" stroke="none"/>
    <path d="M217.65 46.7 Q195.95 63.5 178.1 74.9 M239.3 72.25 Q204.8 90.95 183.9 101.3" fill="none" stroke="#31393d" stroke-linecap="round" stroke-linejoin="round" stroke-width="1.2000000000000002"/>
  </g>
</svg>
