<?xml version="1.0" encoding="UTF-8" standalone="no"?>
<svg xmlns:xlink="http://www.w3.org/1999/xlink" height="292.2px" width="187.25px" xmlns="http://www.w3.org/2000/svg">
  <g transform="matrix(1.0, 0.0, 0.0, 1.0, 0.6, 0.6)">
    <path d="M186.05 22.15 Q182.7 83.95 165.35 127.7 152.05 161.2 130.5 184.1 L126.75 188.45 Q101.45 218.9 97.45 253.4 L97.2 255.95 96.7 263.65 Q43.25 294.85 36.5 287.5 L38.9 278.95 Q49.2 264.0 38.9 242.95 30.1 224.2 29.3 199.0 33.2 95.15 72.65 4.2 L186.05 22.15" fill="#e5c6bb" fill-rule="evenodd" stroke="none"/>
    <path d="M72.65 4.2 Q33.2 95.15 29.3 199.0 30.1 224.2 38.9 242.95 49.2 264.0 38.9 278.95 L36.5 287.5 26.35 291.5 Q23.2 288.7 20.45 285.35 -3.15 256.8 0.45 188.45 1.85 161.25 7.6 127.7 12.1 101.0 19.4 70.35 27.05 37.9 46.1 0.0 L72.65 4.2" fill="#f4ccc1" fill-rule="evenodd" stroke="none"/>
    <path d="M97.45 253.4 Q101.45 218.9 126.75 188.45 L130.5 184.1 Q152.05 161.2 165.35 127.7 182.7 83.95 186.05 22.15 M46.1 0.0 Q27.05 37.9 19.4 70.35 12.1 101.0 7.6 127.7 1.85 161.25 0.45 188.45 -3.15 256.8 20.45 285.35" fill="none" stroke="#574a3a" stroke-linecap="round" stroke-linejoin="round" stroke-width="1.2000000000000002"/>
    <path d="M19.95 285.7 L19.9 285.65 Q19.55 285.2 20.05 284.8 20.55 284.4 20.9 284.95 L22.05 286.5 25.0 290.0 26.4 291.4 26.4 291.55 26.25 291.55 19.95 285.7 M38.95 279.0 L38.85 279.0 Q38.65 279.0 38.8 278.85 L39.4 277.75 39.6 277.45 40.45 275.8 41.15 274.2 41.25 273.9 41.4 273.6 42.3 270.9 43.0 267.85 43.25 265.8 43.3 265.6 43.3 265.4 43.35 264.95 43.45 262.35 43.4 261.95 43.25 259.3 43.15 258.05 41.2 249.45 41.05 249.15 39.8 245.5 39.7 245.3 38.8 242.95 38.85 242.85 38.95 242.9 41.6 248.2 42.0 249.2 43.1 252.45 43.85 255.3 43.9 255.7 44.25 257.45 44.25 257.65 44.3 257.85 44.4 258.75 44.45 259.0 44.45 259.2 44.6 261.0 44.55 264.6 44.55 264.7 44.5 264.85 44.5 265.05 44.45 265.5 44.45 265.7 43.2 271.2 42.8 272.3 42.65 272.6 42.4 273.3 41.25 275.6 40.95 276.1 40.9 276.2 40.8 276.3 40.4 276.95 40.3 277.15 40.15 277.3 39.95 277.65 38.95 279.0 M96.75 263.65 L96.65 263.7 96.6 263.6 96.85 253.3 96.85 253.25 Q96.95 252.65 97.55 252.75 98.15 252.85 98.0 253.45 L97.65 255.8 97.65 256.0 97.6 256.2 96.75 263.65" fill="#574a3a" fill-rule="evenodd" stroke="none"/>
  </g>
</svg>
