<?xml version="1.0" encoding="UTF-8" standalone="no"?>
<svg xmlns:xlink="http://www.w3.org/1999/xlink" height="211.25px" width="236.85px" xmlns="http://www.w3.org/2000/svg">
  <g transform="matrix(1.0, 0.0, 0.0, 1.0, 0.6, 0.6)">
    <path d="M6.35 182.9 L0.0 176.95 Q39.0 154.9 77.25 129.15 108.2 102.75 149.5 84.6 144.35 41.2 152.95 0.0 L166.95 2.6 Q158.2 34.1 159.4 89.45 L152.1 95.9 151.9 95.9 151.9 96.0 151.95 96.0 Q119.25 115.15 93.5 138.45 49.95 160.7 6.35 182.9" fill="#f4ccc1" fill-rule="evenodd" stroke="none"/>
    <path d="M166.95 2.6 L235.65 15.2 Q233.85 78.45 203.35 116.1 139.25 181.65 35.25 210.05 L6.35 182.9 Q49.95 160.7 93.5 138.45 119.25 115.15 151.95 96.0 158.3 99.3 161.95 100.7 165.8 102.15 175.1 104.9 L175.65 104.7 152.1 95.9 159.4 89.45 Q158.2 34.1 166.95 2.6 M176.3 104.65 L176.25 104.85 176.3 105.1 176.3 104.65" fill="#e5c6bb" fill-rule="evenodd" stroke="none"/>
    <path d="M152.1 95.9 L175.65 104.7 175.1 104.9 Q165.8 102.15 161.95 100.7 158.3 99.3 151.95 96.0 L151.9 96.0 151.9 95.9 152.1 95.9 M176.3 104.65 L176.3 105.1 176.25 104.85 176.3 104.65" fill="#574a3a" fill-rule="evenodd" stroke="none"/>
    <path d="M235.65 15.2 Q233.85 78.45 203.35 116.1 139.25 181.65 35.25 210.05 M0.0 176.95 Q39.0 154.9 77.25 129.15 108.2 102.75 149.5 84.6 144.35 41.2 152.95 0.0" fill="none" stroke="#574a3a" stroke-linecap="round" stroke-linejoin="round" stroke-width="1.2000000000000002"/>
  </g>
</svg>
