<?xml version="1.0" encoding="UTF-8" standalone="no"?>
<svg xmlns:xlink="http://www.w3.org/1999/xlink" height="131.1px" width="215.1px" xmlns="http://www.w3.org/2000/svg">
  <g transform="matrix(1.0, 0.0, 0.0, 1.0, 107.55, 65.25)">
    <path d="M35.6 -36.35 L35.4 -37.05 35.2 -37.3 Q34.25 -38.65 30.8 -40.85 37.1 -43.75 45.7 -39.9 40.6 -46.95 47.6 -48.15 56.65 -42.5 61.25 -32.55 L61.4 -32.6 Q70.95 -22.85 89.6 -22.3 99.0 -16.3 96.5 1.3 83.65 -4.05 79.95 -3.5 83.75 -0.1 82.85 4.1 77.4 6.2 70.25 -1.95 75.8 5.75 72.95 16.55 64.3 10.05 57.05 -2.65 49.4 6.6 49.0 15.1 L45.75 10.15 Q38.5 12.5 35.6 18.65 L36.85 11.15 Q37.8 4.9 37.3 0.8 L36.55 -2.7 36.85 5.05 36.5 9.2 Q36.1 11.25 35.25 18.55 L35.1 19.6 35.3 19.3 35.2 19.6 20.7 65.25 Q9.2 37.75 -12.45 24.3 -15.9 16.4 -11.25 6.1 -18.35 7.95 -18.15 20.0 -23.25 6.6 -32.25 3.35 -37.5 7.05 -38.95 18.4 -37.55 33.55 -32.0 45.95 -45.75 35.65 -49.05 13.3 -56.45 6.6 -52.05 -1.25 L-63.6 -2.3 Q-78.6 6.15 -95.45 7.9 -103.5 6.65 -106.95 2.2 -89.4 -4.3 -79.0 -23.85 -74.45 -27.1 -76.0 -31.7 -85.2 -28.05 -91.65 -20.2 -83.9 -36.85 -60.2 -45.0 L-55.0 -45.65 -53.5 -46.6 Q-49.45 -47.6 -44.15 -49.75 -36.1 -40.0 -10.0 -31.0 -13.4 -28.1 -10.45 -23.6 5.5 -29.65 11.85 -37.3 19.7 -22.25 29.65 -23.4 L29.7 -23.4 Q30.75 -23.0 31.55 -22.85 L32.85 -22.75 33.05 -22.75 Q34.4 -23.1 33.35 -25.4 L33.1 -25.9 33.1 -25.95 30.15 -30.4 Q39.0 -24.45 30.45 -35.15 35.6 -34.9 35.6 -36.35 M33.0 12.55 Q33.0 17.4 31.55 25.15 L29.0 38.3 29.15 38.35 Q31.4 31.55 32.65 24.95 33.75 18.85 33.75 10.95 33.75 3.0 32.0 -3.5 L31.9 -3.5 Q32.95 7.7 33.0 12.55" fill="#ffff9d" fill-rule="evenodd" stroke="none"/>
    <path d="M47.6 -48.15 Q40.6 -46.95 45.7 -39.9 37.1 -43.75 30.8 -40.85 34.25 -38.65 35.2 -37.3 L35.4 -37.05 35.6 -36.35 Q35.6 -34.9 30.45 -35.15 39.0 -24.45 30.15 -30.4 L33.1 -25.95 33.1 -25.9 33.35 -25.4 Q34.4 -23.1 33.05 -22.75 L32.85 -22.75 31.55 -22.85 Q30.75 -23.0 29.7 -23.4 L29.65 -23.4 Q19.7 -22.25 11.85 -37.3 5.5 -29.65 -10.45 -23.6 -13.4 -28.1 -10.0 -31.0 -36.1 -40.0 -44.15 -49.75 -49.45 -47.6 -53.5 -46.6 L-55.0 -45.65 -60.2 -45.0 -62.5 -45.0 -62.6 -45.05 Q-68.05 -45.6 -71.45 -49.1 -50.3 -60.4 -38.65 -61.75 14.85 -68.55 55.45 -62.2 78.65 -50.3 87.55 -36.4 92.35 -29.85 104.8 -29.65 101.1 -23.6 95.7 -22.3 107.8 -7.5 106.9 8.3 104.05 4.85 101.6 3.0 L101.5 2.95 Q101.4 12.35 96.15 19.35 93.15 10.25 85.45 7.0 88.05 15.5 85.6 22.5 82.15 19.4 80.7 15.6 77.3 38.85 67.95 46.05 66.4 24.5 57.4 10.2 49.25 38.4 33.65 52.55 27.05 62.1 20.7 65.25 L35.2 19.6 35.6 18.65 Q38.5 12.5 45.75 10.15 L49.0 15.1 Q49.4 6.6 57.05 -2.65 64.3 10.05 72.95 16.55 75.8 5.75 70.25 -1.95 77.4 6.2 82.85 4.1 83.75 -0.1 79.95 -3.5 83.65 -4.05 96.5 1.3 99.0 -16.3 89.6 -22.3 70.95 -22.85 61.4 -32.6 60.45 -36.3 58.75 -38.95 55.15 -44.5 47.65 -48.3 L47.6 -48.15 M-91.65 -20.2 Q-85.2 -28.05 -76.0 -31.7 -74.45 -27.1 -79.0 -23.85 -82.2 -19.85 -91.65 -20.2 M-106.95 2.2 Q-103.5 6.65 -95.45 7.9 -78.6 6.15 -63.6 -2.3 L-52.05 -1.25 Q-56.45 6.6 -49.05 13.3 -54.1 22.8 -58.0 22.95 -60.65 15.5 -55.6 11.35 -69.45 16.95 -82.2 31.85 -87.2 16.15 -74.7 6.35 -97.3 19.05 -106.95 2.2 M-32.0 45.95 Q-37.55 33.55 -38.95 18.4 -37.5 7.05 -32.25 3.35 -23.25 6.6 -18.15 20.0 -18.35 7.95 -11.25 6.1 -15.9 16.4 -12.45 24.3 -15.25 28.9 -8.5 46.4 -24.75 36.35 -28.25 14.1 -34.65 21.7 -32.0 45.95 M79.85 11.15 Q80.0 13.5 80.7 15.6 80.0 13.5 79.85 11.15" fill="#d1d16b" fill-rule="evenodd" stroke="none"/>
    <path d="M35.2 19.6 L35.3 19.3 35.1 19.6 35.25 18.55 Q36.1 11.25 36.5 9.2 L36.85 5.05 36.55 -2.7 37.3 0.8 Q37.8 4.9 36.85 11.15 L35.6 18.65 35.2 19.6 M61.4 -32.6 L61.25 -32.55 Q56.65 -42.5 47.6 -48.15 L47.65 -48.3 Q55.15 -44.5 58.75 -38.95 60.45 -36.3 61.4 -32.6 M33.0 12.55 Q32.95 7.7 31.9 -3.5 L32.0 -3.5 Q33.75 3.0 33.75 10.95 33.75 18.85 32.65 24.95 31.4 31.55 29.15 38.35 L29.0 38.3 31.55 25.15 Q33.0 17.4 33.0 12.55" fill="#4d2b06" fill-rule="evenodd" stroke="none"/>
    <path d="M35.6 -36.35 Q35.6 -34.9 30.45 -35.15 39.0 -24.45 30.15 -30.4 L33.1 -25.95 33.1 -25.9 M-60.2 -45.0 Q-83.9 -36.85 -91.65 -20.2 -82.2 -19.85 -79.0 -23.85 -89.4 -4.3 -106.95 2.2 -97.3 19.05 -74.7 6.35 -87.2 16.15 -82.2 31.85 -69.45 16.95 -55.6 11.35 -60.65 15.5 -58.0 22.95 -54.1 22.8 -49.05 13.3 -45.75 35.65 -32.0 45.95 -34.65 21.7 -28.25 14.1 -24.75 36.35 -8.5 46.4 -15.25 28.9 -12.45 24.3 9.2 37.75 20.7 65.25 27.05 62.1 33.65 52.55 49.25 38.4 57.4 10.2 66.4 24.5 67.95 46.05 77.3 38.85 80.7 15.6 80.0 13.5 79.85 11.15 M55.45 -62.2 Q78.65 -50.3 87.55 -36.4 92.35 -29.85 104.8 -29.65 101.1 -23.6 95.7 -22.3 107.8 -7.5 106.9 8.3 104.05 4.85 101.6 3.0 L101.5 2.95 Q101.4 12.35 96.15 19.35 93.15 10.25 85.45 7.0 88.05 15.5 85.6 22.5 82.15 19.4 80.7 15.6 M-60.2 -45.0 L-62.5 -45.0 -62.6 -45.05 Q-68.05 -45.6 -71.45 -49.1 -50.3 -60.4 -38.65 -61.75" fill="none" stroke="#4d2b06" stroke-linecap="round" stroke-linejoin="round" stroke-width="1.2000000000000002"/>
    <path d="M-68.25 2.1 L-68.1 2.1 -68.1 2.25 -73.35 6.2 -74.4 6.85 -74.45 6.9 Q-74.95 7.15 -75.25 6.6 -75.5 6.1 -74.95 5.8 L-68.25 2.1 M34.1 52.85 Q33.85 53.35 33.3 53.05 32.75 52.7 33.15 52.2 L34.4 50.3 40.4 40.15 49.1 21.5 Q49.1 21.35 49.2 21.45 L49.25 21.55 39.0 44.65 38.8 44.95 38.65 45.3 36.0 49.9 34.1 52.85 M101.8 2.45 L101.9 2.5 Q102.4 2.9 102.0 3.35 L101.15 3.4 100.95 3.25 100.85 3.2 100.75 3.1 100.2 2.65 99.8 2.45 99.6 2.3 99.4 2.2 99.0 1.95 98.1 1.6 97.9 1.55 97.85 1.5 97.7 1.5 97.3 1.4 97.15 1.4 97.0 1.35 96.5 1.35 96.4 1.3 96.45 1.2 96.7 1.1 96.95 1.1 97.15 1.05 98.0 1.05 98.25 1.1 98.75 1.15 100.0 1.55 101.05 2.0 101.35 2.2 101.45 2.2 101.5 2.25 101.6 2.3 101.8 2.45 M95.55 -22.85 L95.65 -22.9 Q96.3 -22.9 96.3 -22.35 96.4 -21.8 95.8 -21.7 L95.2 -21.6 93.5 -21.55 93.2 -21.6 92.9 -21.6 92.6 -21.65 92.35 -21.65 91.75 -21.75 91.5 -21.75 89.8 -22.1 89.55 -22.2 89.5 -22.3 89.6 -22.35 90.15 -22.35 90.55 -22.3 92.35 -22.3 92.65 -22.35 92.9 -22.35 93.2 -22.4 93.45 -22.4 94.65 -22.65 94.85 -22.65 95.3 -22.8 95.55 -22.85 M32.5 -25.75 Q32.2 -26.3 32.85 -26.5 L33.3 -26.5 33.6 -26.2 33.65 -26.1 33.7 -25.95 33.8 -25.75 33.85 -25.6 33.85 -25.5 33.95 -25.3 34.0 -25.05 34.1 -24.8 34.2 -24.3 34.2 -24.05 34.2 -23.75 34.2 -23.45 34.1 -23.15 33.9 -22.85 33.65 -22.6 33.1 -22.4 32.8 -22.4 31.5 -22.6 30.5 -22.9 29.6 -23.3 Q29.45 -23.3 29.55 -23.4 L29.65 -23.45 31.55 -23.05 32.95 -23.05 33.1 -23.15 33.2 -23.2 33.3 -23.3 33.35 -23.45 33.35 -23.75 33.15 -24.5 32.95 -24.9 32.9 -24.95 32.85 -25.05 32.85 -25.1 32.8 -25.15 32.8 -25.2 32.75 -25.3 32.65 -25.45 32.5 -25.75 M30.7 -40.75 L30.7 -40.85 Q30.7 -41.05 30.85 -40.9 L31.5 -40.55 34.05 -38.95 34.85 -38.35 35.3 -37.95 35.55 -37.6 35.85 -37.3 36.05 -36.85 36.15 -36.4 36.2 -36.3 Q36.2 -35.75 35.6 -35.65 35.0 -35.65 35.0 -36.25 L34.9 -36.8 34.7 -37.0 34.65 -37.15 34.55 -37.3 34.3 -37.55 34.1 -37.85 32.5 -39.35 31.9 -39.8 30.7 -40.75" fill="#4d2b06" fill-rule="evenodd" stroke="none"/>
  </g>
</svg>
