<?xml version="1.0" encoding="UTF-8" standalone="no"?>
<svg xmlns:xlink="http://www.w3.org/1999/xlink" height="264.9px" width="270.15px" xmlns="http://www.w3.org/2000/svg">
  <g transform="matrix(1.0, 0.0, 0.0, 1.0, 0.6, 0.6)">
    <path d="M37.55 247.8 L0.0 231.3 Q2.85 199.9 20.3 173.9 22.9 131.55 41.6 95.65 42.05 65.9 51.15 0.0 L160.05 0.0 Q165.35 37.95 149.75 62.5 142.75 73.6 141.95 87.75 143.0 131.4 135.05 154.45 L134.9 154.5 Q134.9 157.7 132.75 163.9 130.85 169.45 129.0 173.8 127.15 178.1 125.8 179.45 124.45 180.75 124.3 181.3 L109.75 186.95 Q93.7 192.9 83.85 204.9 L83.65 205.1 Q63.0 226.6 37.55 247.8 M20.0 182.6 L20.3 173.9 20.0 182.6 M41.6 95.65 Q45.0 89.05 48.95 82.75 45.0 89.05 41.6 95.65 M64.45 158.6 Q62.75 159.5 60.75 162.05 58.6 164.9 58.85 166.5 L59.0 167.55 59.65 167.6 58.45 168.2 Q57.25 168.85 57.35 169.05 57.35 169.55 59.5 168.35 61.65 167.1 63.95 162.7 66.2 158.3 68.3 137.85 L64.45 158.6" fill="#f4ccc1" fill-rule="evenodd" stroke="none"/>
    <path d="M268.95 0.0 L224.55 118.5 Q200.5 184.95 209.7 215.15 L75.1 264.3 37.55 247.8 Q63.0 226.6 83.65 205.1 L83.85 204.9 Q93.7 192.9 109.75 186.95 L124.3 181.3 Q124.65 181.5 126.3 179.7 128.55 177.2 131.5 169.65 L134.8 160.8 Q135.15 159.5 135.05 154.45 143.0 131.4 141.95 87.75 142.75 73.6 149.75 62.5 165.35 37.95 160.05 0.0 L268.95 0.0 M59.65 167.6 L59.0 167.55 58.85 166.5 Q58.6 164.9 60.75 162.05 62.75 159.5 64.45 158.6 63.4 163.15 59.65 167.6" fill="#e5c6bb" fill-rule="evenodd" stroke="none"/>
    <path d="M64.45 158.6 L68.3 137.85 Q66.2 158.3 63.95 162.7 61.65 167.1 59.5 168.35 57.35 169.55 57.35 169.05 57.25 168.85 58.45 168.2 L59.65 167.6 Q63.4 163.15 64.45 158.6 M124.3 181.3 Q124.45 180.75 125.8 179.45 127.15 178.1 129.0 173.8 130.85 169.45 132.75 163.9 134.9 157.7 134.9 154.5 L135.05 154.45 Q135.15 159.5 134.8 160.8 L131.5 169.65 Q128.55 177.2 126.3 179.7 124.65 181.5 124.3 181.3" fill="#574a3a" fill-rule="evenodd" stroke="none"/>
    <path d="M268.95 0.0 L224.55 118.5 Q200.5 184.95 209.7 215.15 M0.0 231.3 Q2.85 199.9 20.3 173.9 22.9 131.55 41.6 95.65 42.05 65.9 51.15 0.0 M48.95 82.75 Q45.0 89.05 41.6 95.65 M20.3 173.9 L20.0 182.6" fill="none" stroke="#574a3a" stroke-linecap="round" stroke-linejoin="round" stroke-width="1.2000000000000002"/>
    <path d="M83.85 204.9 L83.65 205.1" fill="none" stroke="#574a3a" stroke-linecap="round" stroke-linejoin="round" stroke-width="0.05"/>
  </g>
</svg>
