<?xml version="1.0" encoding="UTF-8" standalone="no"?>
<svg xmlns:xlink="http://www.w3.org/1999/xlink" height="78.45px" width="59.05px" xmlns="http://www.w3.org/2000/svg">
  <g transform="matrix(1.0, 0.0, 0.0, 1.0, 0.6, 0.05)">
    <path d="M50.8 7.0 Q51.9 22.05 55.55 34.05 61.1 55.4 53.3 66.6 38.5 86.35 18.95 71.25 5.75 71.7 1.75 62.0 3.65 44.4 7.8 38.65 L11.15 33.0 Q13.3 28.8 15.05 23.75 L15.05 23.7 15.3 23.05 15.8 21.55 16.45 19.25 17.4 15.8 50.4 0.0 50.8 7.0 M22.1 33.0 L21.95 32.95 19.9 35.5 17.35 39.25 Q16.6 40.45 15.45 44.7 14.25 48.9 14.2 51.7 14.1 54.45 14.5 56.35 14.95 58.55 16.2 60.6 L16.45 63.7 Q18.35 42.65 28.9 26.15 L22.1 33.0" fill="#e5c6bb" fill-rule="evenodd" stroke="none"/>
    <path d="M16.2 60.6 Q14.95 58.55 14.5 56.35 14.1 54.45 14.2 51.7 14.25 48.9 15.45 44.7 16.6 40.45 17.35 39.25 L19.9 35.5 21.95 32.95 22.1 33.0 22.15 33.05 Q17.7 38.9 15.95 46.7 15.1 50.6 15.1 53.3 L15.35 56.55 16.3 60.6 16.2 60.6" fill="#574a3a" fill-rule="evenodd" stroke="none"/>
    <path d="M1.75 62.0 Q0.25 58.4 0.0 53.4 0.6 39.9 11.15 33.0 L7.8 38.65 Q3.65 44.4 1.75 62.0 M16.2 60.6 L16.3 60.6 15.35 56.55 15.1 53.3 Q15.1 50.6 15.95 46.7 17.7 38.9 22.15 33.05 L22.1 33.0 28.9 26.15 Q18.35 42.65 16.45 63.7 L16.2 60.6" fill="#f4ccc1" fill-rule="evenodd" stroke="none"/>
    <path d="M50.8 7.0 Q51.9 22.05 55.55 34.05 61.1 55.4 53.3 66.6 38.5 86.35 18.95 71.25 5.75 71.7 1.75 62.0 0.25 58.4 0.0 53.4 0.6 39.9 11.15 33.0 13.3 28.8 15.05 23.75" fill="none" stroke="#574a3a" stroke-linecap="round" stroke-linejoin="round" stroke-width="1.2000000000000002"/>
    <path d="M13.6 66.65 L13.6 66.5 13.75 66.5 13.95 66.7 15.45 67.95 19.3 70.75 19.35 70.8 Q19.8 71.25 19.4 71.65 L18.55 71.7 17.35 70.6 13.6 66.65 M15.6 23.9 Q15.35 24.5 14.8 24.3 14.25 24.05 14.45 23.5 L14.5 23.4 14.5 23.3 14.75 22.9 14.8 22.8 14.75 22.9 15.35 21.35 15.35 21.4 16.05 19.3 16.15 19.1 17.3 15.75 Q17.3 15.6 17.4 15.7 L17.45 15.8 16.85 18.75 16.8 19.1 16.7 19.45 16.2 21.65 16.2 21.7 15.8 23.15 15.8 23.2 15.75 23.25 15.7 23.55 15.65 23.7 15.6 23.75 15.6 23.9 M51.35 6.95 L51.4 7.0 Q51.4 7.6 50.8 7.6 50.2 7.6 50.2 7.0 L50.3 0.0 50.35 -0.05 50.45 0.0 51.35 6.95" fill="#574a3a" fill-rule="evenodd" stroke="none"/>
  </g>
</svg>
