<?xml version="1.0" encoding="UTF-8" standalone="no"?>
<svg xmlns:xlink="http://www.w3.org/1999/xlink" height="40.05px" width="151.3px" xmlns="http://www.w3.org/2000/svg">
  <g transform="matrix(1.0, 0.0, 0.0, 1.0, 0.6, -0.3)">
    <path d="M145.7 3.75 L145.65 3.65 Q147.45 4.05 148.85 6.2 150.7 9.05 150.7 13.85 L150.4 16.35 149.95 18.5 Q150.35 6.55 145.7 3.75 M32.95 8.2 L33.1 8.3 Q33.2 10.95 31.7 15.1 29.9 20.15 26.85 21.65 28.6 19.8 30.65 15.35 32.7 10.9 32.95 8.2 M52.05 28.45 L69.9 29.8 80.6 29.8 90.15 30.65 90.1 31.1 87.15 31.45 57.35 29.75 52.05 28.45" fill="#574a3a" fill-rule="evenodd" stroke="none"/>
    <path d="M145.65 3.65 L145.7 3.75 Q136.55 20.75 128.4 25.6 112.8 32.1 90.15 30.65 L80.6 29.8 69.9 29.8 52.05 28.45 Q37.25 26.2 34.85 9.65 L33.1 8.3 32.95 8.2 30.75 5.4 88.65 3.85 118.45 2.75 Q128.0 2.15 129.15 0.9 L145.65 3.65" fill="#f4ccc1" fill-rule="evenodd" stroke="none"/>
    <path d="M145.7 3.75 Q150.35 6.55 149.95 18.5 L136.6 35.85 129.2 37.05 121.6 37.7 109.75 38.4 Q103.3 38.7 89.4 38.45 L65.55 36.9 Q49.6 35.0 25.7 29.05 21.85 30.25 19.1 28.2 15.8 28.15 14.15 25.8 27.6 24.45 30.75 5.4 L32.95 8.2 Q32.7 10.9 30.65 15.35 28.6 19.8 26.85 21.65 29.9 20.15 31.7 15.1 33.2 10.95 33.1 8.3 L34.85 9.65 Q37.25 26.2 52.05 28.45 L57.35 29.75 87.15 31.45 90.1 31.1 90.15 30.65 Q112.8 32.1 128.4 25.6 136.55 20.75 145.7 3.75" fill="#e5c6bb" fill-rule="evenodd" stroke="none"/>
    <path d="M14.15 25.8 Q2.45 25.65 0.45 18.55 11.2 24.1 18.75 18.95 26.7 11.55 22.2 3.35 29.75 0.4 30.75 5.4 27.6 24.45 14.15 25.8" fill="#b88787" fill-rule="evenodd" stroke="none"/>
    <path d="M0.45 18.55 Q-0.2 16.25 0.15 13.25 -0.55 2.6 22.2 3.35 26.7 11.55 18.75 18.95 11.2 24.1 0.45 18.55" fill="#b87777" fill-rule="evenodd" stroke="none"/>
    <path d="M118.45 2.75 L88.65 3.85 30.75 5.4 Q27.6 24.45 14.15 25.8 2.45 25.65 0.45 18.55 -0.2 16.25 0.15 13.25 -0.55 2.6 22.2 3.35 29.75 0.4 30.75 5.4 M121.6 37.7 L109.75 38.4 Q103.3 38.7 89.4 38.45 L65.55 36.9 Q49.6 35.0 25.7 29.05 21.85 30.25 19.1 28.2 15.8 28.15 14.15 25.8" fill="none" stroke="#574a3a" stroke-linecap="round" stroke-linejoin="round" stroke-width="1.2000000000000002"/>
    <path d="M19.05 28.75 Q18.45 28.75 18.45 28.15 18.45 27.5 19.1 27.6 L20.15 27.6 20.35 27.55 20.85 27.55 21.1 27.5 21.65 27.45 24.25 26.8 28.65 25.05 34.8 21.75 34.95 21.75 34.95 21.9 27.5 26.35 24.55 27.65 21.85 28.45 20.75 28.65 20.6 28.65 20.5 28.7 20.25 28.7 19.85 28.75 19.05 28.75 M136.55 35.75 L136.65 35.8 136.6 35.9 129.5 37.3 129.35 37.35 129.2 37.35 129.15 37.4 121.65 38.25 121.6 38.25 121.6 38.3 Q120.95 38.3 120.95 37.7 120.95 37.1 121.5 37.1 L129.1 36.7 129.15 36.7 129.25 36.65 129.4 36.65 136.55 35.75 M129.05 0.8 L129.2 0.8 129.2 0.95 129.15 0.95 129.1 1.05 128.8 1.25 127.65 1.75 123.95 2.6 118.45 3.3 118.4 3.35 118.0 3.15 117.8 2.75 Q117.8 2.15 118.4 2.15 L118.85 2.1 120.9 2.05 121.85 2.0 122.85 1.95 123.85 1.9 126.75 1.6 128.2 1.25 128.7 1.05 128.8 1.0 128.9 0.9 128.95 0.9 129.05 0.8" fill="#574a3a" fill-rule="evenodd" stroke="none"/>
    <path d="M40.4 12.8 L39.05 12.8 Q38.8 10.35 40.65 10.05 41.25 11.2 40.4 12.8 M37.95 8.0 Q36.75 11.95 37.7 15.9 35.5 15.25 35.4 12.05 35.15 9.35 37.95 8.0 M51.95 15.25 Q48.8 14.95 49.65 12.25 50.25 9.75 52.6 9.6 51.6 12.25 51.95 15.25 M54.15 14.8 Q52.45 12.25 54.55 9.9 57.7 8.9 61.85 9.35 L67.05 11.6 74.4 10.2 Q75.85 10.75 74.85 12.35 76.45 11.65 76.35 10.7 L85.45 12.2 Q82.65 14.1 76.45 13.85 76.45 15.6 74.65 16.35 73.55 15.0 73.65 13.75 L71.95 16.75 Q70.85 14.4 65.75 14.1 67.2 15.4 65.5 16.95 L61.25 13.15 Q58.4 14.55 54.15 14.8 M88.5 13.7 Q86.7 13.7 86.7 11.65 87.4 9.75 89.0 9.9 87.05 11.75 88.5 13.7" fill="#f4e8e2" fill-rule="evenodd" stroke="none"/>
    <path d="M107.6 20.25 Q107.35 20.25 107.2 20.4 107.05 20.55 107.05 20.75 L107.2 21.05 107.6 21.2 107.95 21.1 108.1 20.8 107.95 20.45 107.6 20.25 M105.9 24.5 Q106.5 24.5 107.3 23.9 108.3 23.25 108.4 22.3 106.2 22.55 106.6 23.15 L106.8 23.55 105.85 23.65 104.85 23.25 103.85 22.95 103.4 23.0 103.25 23.3 Q105.15 24.45 105.9 24.5 M96.1 5.0 L95.75 5.6 95.3 6.1 92.0 10.1 Q90.35 12.2 90.35 12.85 90.35 16.3 93.45 17.8 95.65 18.85 100.3 19.2 L107.2 19.85 Q110.3 20.45 110.3 22.4 110.3 24.4 107.9 24.6 L99.85 24.25 Q96.4 24.1 94.8 24.85 93.3 25.55 93.3 27.2 L93.0 28.7 92.7 30.2 Q92.7 31.8 93.35 33.75 L93.9 36.45 Q93.9 37.45 93.25 38.6 92.1 40.45 89.9 40.35 87.3 40.25 82.9 38.45 78.6 36.75 75.2 36.6 L74.2 36.95 70.95 37.2 67.0 36.25 61.7 35.05 Q60.85 34.5 60.25 34.45 L56.75 33.2 56.0 33.35 55.15 33.5 39.15 31.45 37.9 31.35 36.5 31.45 32.15 33.1 30.65 32.85 31.7 31.9 31.25 31.55 31.0 31.85 Q30.8 32.1 30.5 32.05 L28.8 31.65 27.05 31.2 26.7 31.3 26.75 31.65 27.5 32.25 Q22.45 31.35 20.45 30.55 18.85 29.9 17.5 28.8 L14.95 27.9 9.35 26.4 7.1 25.65 4.15 24.3 Q2.6 23.0 1.85 21.0 L0.6 16.6 -0.3 12.75 Q-0.3 11.1 2.3 8.0 5.65 4.15 9.9 3.35 L19.0 2.15 21.95 1.9 23.9 0.8 Q24.85 0.2 26.45 0.3 28.0 0.35 29.8 3.15 L30.1 3.5 30.7 5.05 31.25 4.75 31.4 4.1 Q36.55 6.2 51.6 6.2 L64.8 5.8 66.05 6.0 70.4 5.55 74.3 5.5 79.85 4.75 90.65 4.75 89.6 5.85 89.05 6.35 Q87.85 7.45 87.3 9.4 86.9 10.65 86.9 11.9 86.9 12.5 87.35 13.2 L89.65 17.9 88.0 13.4 87.6 11.95 Q87.6 8.85 90.0 6.2 L90.3 5.9 91.4 4.8 96.1 5.0 M76.8 7.8 Q74.45 7.7 73.1 8.95 71.85 10.15 72.05 11.85 72.25 13.6 73.95 14.85 75.9 16.3 79.1 16.45 L81.95 16.2 Q83.8 15.75 83.8 14.1 83.8 11.75 81.85 9.9 79.8 7.95 76.8 7.8 M91.8 35.6 L91.35 35.8 Q91.2 35.95 91.2 36.2 L91.35 36.75 Q91.5 36.95 91.8 36.95 L92.2 36.75 92.4 36.3 92.2 35.8 91.8 35.6 M86.55 25.65 Q85.2 25.6 84.25 26.15 83.3 26.75 83.3 27.65 83.3 28.55 84.25 29.2 85.2 29.9 86.55 29.95 87.85 30.0 88.8 29.4 89.75 28.85 89.75 27.95 89.75 27.05 88.8 26.35 87.85 25.7 86.55 25.65 M91.2 37.55 L89.7 37.95 87.95 38.35 86.9 38.05 85.95 37.75 85.5 37.85 85.5 37.95 86.8 38.55 87.9 38.9 89.65 38.65 Q90.65 38.3 91.2 37.55 M45.0 7.6 Q45.0 8.8 45.85 9.35 46.6 9.85 49.1 10.85 L63.55 11.3 63.55 11.05 64.85 11.0 Q67.3 11.15 68.65 10.25 70.15 9.35 70.5 7.9 70.85 6.4 63.85 7.0 56.85 7.55 50.95 6.95 45.0 6.35 45.0 7.6 M66.4 11.05 Q64.3 10.95 63.45 11.4 62.6 11.95 60.7 11.95 L57.0 11.85 54.85 11.95 55.0 12.25 57.5 12.55 60.75 12.3 63.6 12.0 65.05 11.75 Q66.25 11.5 66.5 11.2 67.0 11.1 66.4 11.05 M79.25 24.95 L80.3 22.9 Q80.3 21.95 79.25 21.55 L76.4 21.15 Q72.5 20.95 69.8 22.25 67.3 23.4 67.3 25.05 67.3 28.2 68.85 29.45 69.9 30.3 72.4 30.4 L74.25 30.1 Q76.75 28.75 78.75 25.7 L78.8 25.7 78.6 26.1 Q77.9 27.45 77.4 29.15 L77.5 29.55 77.6 29.65 Q77.95 29.7 80.7 24.9 L79.25 24.95 M67.4 13.35 Q66.3 13.3 65.55 13.8 64.8 14.35 64.8 15.15 64.8 15.95 65.55 16.55 66.3 17.15 67.4 17.2 68.5 17.25 69.3 16.75 70.05 16.2 70.05 15.4 70.05 14.6 69.3 14.0 68.5 13.4 67.4 13.35 M49.9 11.35 L49.65 11.1 45.35 10.35 Q45.6 10.45 45.15 10.65 L47.25 11.85 Q48.55 12.2 49.9 11.35 M71.75 13.95 Q71.65 15.15 72.9 15.85 73.65 16.25 74.3 16.3 L75.6 16.05 75.05 15.75 71.75 13.95 M46.55 27.95 Q51.85 28.2 51.9 26.0 51.9 25.15 50.9 24.45 49.85 23.7 48.35 23.65 L41.1 22.7 38.7 21.95 Q37.9 21.95 37.15 22.3 36.1 22.95 36.1 24.35 36.1 25.95 37.25 26.55 39.35 27.6 46.55 27.95 M31.5 9.4 L31.65 7.55 30.75 8.0 Q29.3 10.55 29.4 13.7 29.55 16.2 27.85 17.8 L24.45 20.85 23.9 21.45 Q26.8 20.0 28.3 18.5 30.85 15.85 31.5 9.4 M66.15 27.15 L66.5 26.75 62.1 26.2 54.05 25.4 53.95 25.85 58.5 26.7 66.15 27.15 M13.15 11.55 Q13.75 12.55 15.15 13.1 16.4 13.7 17.9 13.75 20.85 13.9 22.4 12.25 23.8 10.7 23.8 8.05 23.8 6.9 22.75 6.25 22.0 5.75 21.3 5.7 L16.8 5.9 15.6 6.25 Q12.8 5.7 10.2 7.6 8.05 9.15 8.05 10.2 8.05 10.7 8.5 10.9 L13.15 11.55 M26.1 11.25 Q24.8 11.2 23.85 11.8 22.9 12.45 22.9 13.35 22.9 14.3 23.85 15.05 24.8 15.75 26.1 15.8 27.45 15.85 28.4 15.25 29.35 14.6 29.35 13.65 29.35 12.75 28.4 12.0 27.45 11.3 26.1 11.25 M35.6 19.2 L35.65 19.2 35.65 19.55 36.05 19.7 Q36.4 19.7 36.95 19.3 37.8 18.7 37.85 17.55 L35.6 19.2 M22.3 27.6 Q29.3 25.0 31.55 23.85 L33.5 22.6 34.1 21.9 34.25 21.25 Q33.75 22.9 28.85 24.4 22.95 26.15 21.3 27.45 L22.3 27.6 M6.95 13.9 Q5.5 13.85 4.9 15.05 4.2 16.35 4.85 17.85 6.65 21.95 14.7 22.35 15.65 22.4 16.3 21.8 17.25 20.85 17.25 18.7 17.25 17.65 15.05 16.85 L12.35 16.15 9.05 14.85 6.95 13.9 M23.35 24.6 L21.3 24.85 Q19.75 25.15 19.5 25.5 L19.6 25.75 20.05 25.9 Q21.0 25.9 22.0 25.5 L23.35 24.6" fill="url(#gradient0)" fill-rule="evenodd" stroke="none"/>
    <path d="M105.9 24.5 Q105.15 24.45 103.25 23.3 L103.4 23.0 103.85 22.95 104.85 23.25 105.85 23.65 106.8 23.55 106.6 23.15 Q106.2 22.55 108.4 22.3 108.3 23.25 107.3 23.9 106.5 24.5 105.9 24.5 M107.6 20.25 L107.95 20.45 108.1 20.8 107.95 21.1 107.6 21.2 107.2 21.05 107.05 20.75 Q107.05 20.55 107.2 20.4 107.35 20.25 107.6 20.25 M30.65 32.85 Q29.65 33.7 29.25 33.6 L27.5 32.25 26.75 31.65 26.7 31.3 27.05 31.2 28.8 31.65 30.5 32.05 Q30.8 32.1 31.0 31.85 L31.25 31.55 31.7 31.9 30.65 32.85 M30.1 3.5 L30.0 3.2 30.0 2.85 30.35 2.75 31.05 3.1 Q31.45 3.45 31.4 4.1 L31.25 4.75 30.7 5.05 30.1 3.5 M91.95 3.6 L92.05 3.55 92.1 3.6 92.35 4.1 91.6 4.65 91.4 4.8 90.3 5.9 90.0 6.2 Q87.6 8.85 87.6 11.95 L88.0 13.4 89.65 17.9 87.35 13.2 Q86.9 12.5 86.9 11.9 86.9 10.65 87.3 9.4 87.85 7.45 89.05 6.35 L89.6 5.85 90.65 4.75 91.25 4.25 91.85 3.6 91.95 3.6 M91.8 35.6 L92.2 35.8 92.4 36.3 92.2 36.75 91.8 36.95 Q91.5 36.95 91.35 36.75 L91.2 36.2 Q91.2 35.95 91.35 35.8 L91.8 35.6 M91.2 37.55 Q90.65 38.3 89.65 38.65 L87.9 38.9 86.8 38.55 85.5 37.95 85.5 37.85 85.95 37.75 86.9 38.05 87.95 38.35 89.7 37.95 91.2 37.55 M66.4 11.05 Q67.0 11.1 66.5 11.2 66.25 11.5 65.05 11.75 L63.6 12.0 60.75 12.3 57.5 12.55 55.0 12.25 54.85 11.95 57.0 11.85 60.7 11.95 Q62.6 11.95 63.45 11.4 64.3 10.95 66.4 11.05 M79.25 24.95 L80.7 24.9 Q77.95 29.7 77.6 29.65 L77.5 29.55 77.4 29.15 Q77.9 27.45 78.6 26.1 L78.8 25.7 78.8 25.65 78.8 25.6 79.25 24.95 M71.75 13.95 L75.05 15.75 75.6 16.05 74.3 16.3 Q73.65 16.25 72.9 15.85 71.65 15.15 71.75 13.95 M49.9 11.35 Q48.55 12.2 47.25 11.85 L45.15 10.65 Q45.6 10.45 45.35 10.35 L49.65 11.1 49.9 11.35 M66.15 27.15 L58.5 26.7 53.95 25.85 54.05 25.4 62.1 26.2 66.5 26.75 66.15 27.15 M31.5 9.4 Q30.85 15.85 28.3 18.5 26.8 20.0 23.9 21.45 L24.45 20.85 27.85 17.8 Q29.55 16.2 29.4 13.7 29.3 10.55 30.75 8.0 L31.65 7.55 31.5 9.4 M21.05 6.2 Q21.9 6.25 22.45 6.7 23.05 7.05 23.05 7.55 23.05 8.05 22.45 8.45 L21.05 8.7 19.65 8.3 Q19.1 7.85 19.1 7.35 19.1 6.85 19.65 6.55 20.25 6.15 21.05 6.2 M15.6 6.25 Q18.35 7.05 19.2 8.1 20.05 9.15 19.2 10.1 18.4 11.15 16.4 11.5 14.4 11.85 13.15 11.55 L8.5 10.9 Q8.05 10.7 8.05 10.2 8.05 9.15 10.2 7.6 12.8 5.7 15.6 6.25 M22.3 27.6 L21.3 27.45 Q22.95 26.15 28.85 24.4 33.75 22.9 34.25 21.25 L34.1 21.9 33.5 22.6 31.55 23.85 Q29.3 25.0 22.3 27.6 M35.6 19.2 L37.85 17.55 Q37.8 18.7 36.95 19.3 36.4 19.7 36.05 19.7 L35.65 19.55 35.65 19.2 35.6 19.2 M23.35 24.6 L22.0 25.5 Q21.0 25.9 20.05 25.9 L19.6 25.75 19.5 25.5 Q19.75 25.15 21.3 24.85 L23.35 24.6" fill="#ffffff" fill-rule="evenodd" stroke="none"/>
    <path d="M79.85 4.75 L80.6 4.65 82.95 4.25 84.8 3.9 91.95 3.6 91.85 3.6 91.25 4.25 90.65 4.75 79.85 4.75 M92.1 3.6 Q96.8 3.9 96.1 5.0 L91.4 4.8 91.6 4.65 92.35 4.1 92.1 3.6" fill="url(#gradient1)" fill-rule="evenodd" stroke="none"/>
  </g>
  <defs>
    <linearGradient gradientTransform="matrix(0.0674, 0.0079, -0.002, 0.0246, 55.1, 15.95)" gradientUnits="userSpaceOnUse" id="gradient0" spreadMethod="pad" x1="-819.2" x2="819.2">
      <stop offset="0.0" stop-color="#cccccc" stop-opacity="0.4509804"/>
      <stop offset="1.0" stop-color="#cccccc" stop-opacity="0.14901961"/>
    </linearGradient>
    <linearGradient gradientTransform="matrix(0.0674, 0.0059, -0.002, 0.0139, 55.1, 10.3)" gradientUnits="userSpaceOnUse" id="gradient1" spreadMethod="pad" x1="-819.2" x2="819.2">
      <stop offset="0.0" stop-color="#cccccc" stop-opacity="0.4509804"/>
      <stop offset="1.0" stop-color="#cccccc" stop-opacity="0.14901961"/>
    </linearGradient>
  </defs>
</svg>
