<?xml version="1.0" encoding="UTF-8" standalone="no"?>
<svg xmlns:xlink="http://www.w3.org/1999/xlink" height="378.0px" width="166.55px" xmlns="http://www.w3.org/2000/svg">
  <g transform="matrix(1.0, 0.0, 0.0, 1.0, 0.6, 0.1)">
    <path d="M27.65 30.45 Q35.6 17.35 45.15 9.0 L135.25 0.0 Q138.7 1.85 142.45 7.05 149.75 17.4 158.0 40.95 170.4 76.45 161.9 128.55 153.35 180.65 151.0 189.3 146.8 212.3 141.75 233.6 130.7 279.95 115.65 318.3 L102.1 340.0 Q101.7 327.1 102.85 320.5 L104.65 313.7 Q105.2 311.7 106.65 307.6 L110.8 299.65 Q103.95 310.15 102.5 318.3 101.0 326.45 101.25 331.2 L101.7 338.0 101.95 340.15 61.7 368.1 Q64.5 362.25 66.6 353.2 L67.45 351.7 68.85 345.85 Q69.55 342.6 69.6 340.55 L69.55 338.35 69.2 329.75 67.8 320.9 67.7 320.9 60.95 310.5 Q57.3 299.35 60.65 292.35 81.75 269.75 81.15 255.6 61.8 183.8 70.6 123.25 72.0 113.55 74.1 104.15 L74.55 101.55 Q80.8 46.1 34.2 45.3 19.05 55.4 9.15 85.25 13.55 65.1 20.15 46.1 L22.05 40.75 Q24.75 35.25 27.65 30.45" fill="#e5c6bb" fill-rule="evenodd" stroke="none"/>
    <path d="M61.7 368.1 L50.35 375.95 Q42.45 379.2 34.6 375.95 5.45 352.85 14.4 297.6 7.2 264.65 3.6 233.6 -0.05 202.25 0.0 172.85 0.05 126.6 9.15 85.25 19.05 55.4 34.2 45.3 80.8 46.1 74.55 101.55 L74.1 104.15 Q72.0 113.55 70.6 123.25 61.8 183.8 81.15 255.6 81.75 269.75 60.65 292.35 57.3 299.35 60.95 310.5 L67.7 320.9 68.3 340.5 67.2 350.15 66.5 353.15 66.6 353.2 Q64.5 362.25 61.7 368.1" fill="#f4ccc1" fill-rule="evenodd" stroke="none"/>
    <path d="M102.1 340.0 L101.95 340.15 101.7 338.0 101.25 331.2 Q101.0 326.45 102.5 318.3 103.95 310.15 110.8 299.65 L106.65 307.6 Q105.2 311.7 104.65 313.7 L102.85 320.5 Q101.7 327.1 102.1 340.0 M67.7 320.9 L67.8 320.9 69.2 329.75 69.55 338.35 69.6 340.55 Q69.55 342.6 68.85 345.85 L67.45 351.7 66.6 353.2 66.5 353.15 67.2 350.15 68.3 340.5 67.7 320.9" fill="#574a3a" fill-rule="evenodd" stroke="none"/>
    <path d="M142.45 7.05 Q149.75 17.4 158.0 40.95 170.4 76.45 161.9 128.55 153.35 180.65 151.0 189.3 146.8 212.3 141.75 233.6 130.7 279.95 115.65 318.3 M34.6 375.95 Q5.45 352.85 14.4 297.6 7.2 264.65 3.6 233.6 -0.05 202.25 0.0 172.85 0.05 126.6 9.15 85.25 13.55 65.1 20.15 46.1 L22.05 40.75 Q24.75 35.25 27.65 30.45" fill="none" stroke="#574a3a" stroke-linecap="round" stroke-linejoin="round" stroke-width="1.2000000000000002"/>
    <path d="M50.3 375.85 Q50.4 375.75 50.4 375.9 L50.35 376.0 49.4 376.45 48.5 376.75 48.4 376.8 48.25 376.85 48.0 376.9 46.15 377.45 44.75 377.7 44.55 377.7 44.35 377.75 44.0 377.8 40.9 377.9 40.55 377.85 40.15 377.85 38.35 377.6 36.55 377.2 36.3 377.1 35.35 376.85 35.0 376.7 34.35 376.5 34.3 376.45 Q33.7 376.25 34.0 375.7 34.15 375.15 34.8 375.35 L35.75 375.8 36.15 375.9 36.6 376.1 36.85 376.15 37.1 376.25 38.25 376.6 38.55 376.65 38.9 376.75 40.25 377.0 40.45 377.05 40.6 377.05 43.95 377.2 44.3 377.15 44.65 377.15 46.7 376.85 47.9 376.6 48.15 376.5 48.3 376.5 48.4 376.45 49.3 376.2 Q49.5 376.15 49.65 376.05 L50.3 375.85 M28.15 30.75 L28.1 30.75 Q27.85 31.25 27.3 30.95 26.85 30.65 27.1 30.1 L30.1 25.65 30.25 25.4 34.45 19.8 34.85 19.3 42.8 10.85 43.15 10.6 45.05 8.9 45.2 8.9 45.2 9.05 41.7 12.4 37.05 17.75 36.65 18.25 31.05 25.95 30.95 26.2 28.15 30.75 M135.2 0.05 L135.15 0.0 135.25 -0.05 135.65 0.1 136.65 0.65 140.15 3.55 142.9 6.65 142.95 6.7 Q143.25 7.2 142.8 7.55 142.35 7.85 141.95 7.4 L141.45 6.6 139.55 4.05 137.7 2.0 136.2 0.75 135.95 0.6 135.2 0.05" fill="#574a3a" fill-rule="evenodd" stroke="none"/>
  </g>
</svg>
