<?xml version="1.0" encoding="UTF-8" standalone="no"?>
<svg xmlns:xlink="http://www.w3.org/1999/xlink" height="242.8px" width="82.7px" xmlns="http://www.w3.org/2000/svg">
  <g transform="matrix(1.0, 0.0, 0.0, 1.0, -10.05, 0.5)">
    <path d="M33.35 10.6 L52.4 7.1 Q37.2 84.65 42.4 128.35 48.1 194.85 37.7 217.45 25.05 227.9 25.4 236.2 L12.35 233.8 Q7.8 221.7 14.9 211.5 23.1 178.45 20.95 145.25 16.8 79.15 33.35 10.6" fill="#f4ccc1" fill-rule="evenodd" stroke="none"/>
    <path d="M25.4 236.2 Q25.05 227.9 37.7 217.45 48.1 194.85 42.4 128.35 37.2 84.65 52.4 7.1 L92.25 0.0 Q90.95 53.3 85.4 105.25 L85.35 105.85 Q84.8 128.8 77.3 152.65 L77.2 153.15 Q67.5 197.2 56.35 241.8 L25.4 236.2" fill="#e5c6bb" fill-rule="evenodd" stroke="none"/>
    <path d="M33.35 10.6 Q16.8 79.15 20.95 145.25 23.1 178.45 14.9 211.5 7.8 221.7 12.35 233.8 M92.25 0.0 Q90.95 53.3 85.4 105.25 L85.35 105.85 Q84.8 128.8 77.3 152.65 L77.2 153.15 Q67.5 197.2 56.35 241.8" fill="none" stroke="#574a3a" stroke-linecap="round" stroke-linejoin="round" stroke-width="1.0"/>
  </g>
</svg>
