<?xml version="1.0" encoding="UTF-8" standalone="no"?>
<svg xmlns:xlink="http://www.w3.org/1999/xlink" height="92.0px" width="76.1px" xmlns="http://www.w3.org/2000/svg">
  <g transform="matrix(1.0, 0.0, 0.0, 1.0, 0.5, 0.5)">
    <path d="M43.45 6.4 L71.1 16.65 Q73.7 42.45 75.1 66.0 74.55 73.9 68.85 77.25 65.8 78.4 61.1 77.25 58.5 86.55 44.05 84.15 43.2 84.5 43.15 82.65 37.6 91.55 29.3 85.55 23.25 94.45 13.0 88.75 9.3 77.5 9.15 67.2 L0.1 59.3 Q2.9 59.35 4.2 55.4 4.2 45.85 5.35 42.2 7.3 37.7 10.25 37.05 15.9 38.05 21.7 44.25 31.95 46.9 42.2 42.1 45.05 36.25 46.75 28.05 43.5 24.85 43.45 6.4 M22.65 77.8 L18.45 76.55 Q16.8 75.85 12.6 73.05 L12.45 73.15 Q14.3 76.55 18.15 77.7 L22.65 77.8 M38.75 76.0 L33.25 76.0 33.15 76.1 Q34.0 76.95 35.95 77.2 37.2 77.2 38.1 76.65 L38.75 76.0 M54.7 74.6 L51.3 75.2 48.65 74.75 Q47.7 74.45 46.15 73.5 L46.0 73.6 Q47.85 76.2 51.05 76.2 52.55 76.2 53.7 75.55 L54.7 74.6" fill="#e5c6bb" fill-rule="evenodd" stroke="none"/>
    <path d="M43.45 6.4 Q43.5 24.85 46.75 28.05 45.05 36.25 42.2 42.1 31.95 46.9 21.7 44.25 15.9 38.05 10.25 37.05 7.3 37.7 5.35 42.2 4.2 45.85 4.2 55.4 2.9 59.35 0.1 59.3 -0.4 38.35 2.2 35.65 15.7 23.6 26.35 0.0 L43.45 6.4" fill="#f4ccc1" fill-rule="evenodd" stroke="none"/>
    <path d="M54.7 74.6 L53.7 75.55 Q52.55 76.2 51.05 76.2 47.85 76.2 46.0 73.6 L46.15 73.5 Q47.7 74.45 48.65 74.75 L51.3 75.2 54.7 74.6 M38.75 76.0 L38.1 76.65 Q37.2 77.2 35.95 77.2 34.0 76.95 33.15 76.1 L33.25 76.0 38.75 76.0 M22.65 77.8 L18.15 77.7 Q14.3 76.55 12.45 73.15 L12.6 73.05 Q16.8 75.85 18.45 76.55 L22.65 77.8" fill="#574a3a" fill-rule="evenodd" stroke="none"/>
    <path d="M0.1 59.3 L9.15 67.2 Q9.3 77.5 13.0 88.75 23.25 94.45 29.3 85.55 37.6 91.55 43.15 82.65 43.2 84.5 44.05 84.15 58.5 86.55 61.1 77.25 65.8 78.4 68.85 77.25 74.55 73.9 75.1 66.0 73.7 42.45 71.1 16.65 M0.1 59.3 Q-0.4 38.35 2.2 35.65 15.7 23.6 26.35 0.0" fill="none" stroke="#574a3a" stroke-linecap="round" stroke-linejoin="round" stroke-width="1.0"/>
    <path d="M43.95 75.8 Q43.95 75.65 44.05 75.75 L44.1 75.85 44.1 76.15 43.85 78.0 43.6 82.55 43.65 82.65 43.6 82.7 43.45 83.05 43.1 83.15 Q42.55 83.15 42.65 82.65 L42.65 82.3 42.8 81.0 43.95 75.8 M29.75 85.35 L29.75 85.4 Q29.95 85.85 29.45 86.05 28.95 86.15 28.8 85.7 L26.5 77.9 26.55 77.8 26.65 77.85 29.75 85.35 M9.6 67.15 L9.65 67.2 Q9.55 67.7 9.1 67.7 L8.75 67.55 8.65 67.2 8.65 65.15 9.15 59.05 9.2 58.95 9.9 56.15 9.95 55.65 10.05 55.2 10.1 54.7 10.15 54.45 10.2 53.35 10.25 53.25 10.15 49.8 10.15 49.6 10.1 49.35 9.9 47.9 9.5 45.95 9.4 45.75 9.4 45.6 9.35 45.5 8.8 43.6 8.85 43.5 8.95 43.55 9.65 45.55 9.7 45.65 9.75 45.9 9.9 46.35 10.4 48.55 10.4 48.8 10.55 49.55 10.55 49.8 10.75 51.75 10.75 53.75 10.7 54.25 10.65 55.25 10.15 58.2 9.85 59.2 9.9 59.1 9.75 60.6 9.75 61.15 9.6 67.15" fill="#574a3a" fill-rule="evenodd" stroke="none"/>
  </g>
</svg>
