<?xml version="1.0" encoding="UTF-8" standalone="no"?>
<svg xmlns:xlink="http://www.w3.org/1999/xlink" height="36.0px" width="99.85px" xmlns="http://www.w3.org/2000/svg">
  <g transform="matrix(1.0, 0.0, 0.0, 1.0, 51.15, 9.4)">
    <path d="M41.25 15.9 Q32.35 19.1 22.4 15.6 19.5 14.05 18.9 10.9 18.6 9.6 18.75 8.05 19.7 -0.8 24.6 -3.15 30.6 -7.0 33.85 -8.0 L37.1 -8.95 Q37.75 -9.0 38.65 -9.35 L44.35 -9.0 45.35 -8.8 Q48.55 -8.0 48.7 -5.05 48.8 -0.55 48.3 3.05 47.5 8.75 45.05 12.3 43.5 14.6 41.25 15.9 M-27.65 -1.4 L-26.35 -1.1 -26.05 -1.0 Q-19.9 0.95 -15.5 6.7 -14.2 8.4 -13.0 10.6 -9.85 16.25 -13.35 19.7 L-15.75 21.45 Q-23.8 26.85 -33.3 26.6 L-35.5 26.0 Q-38.8 24.75 -41.8 21.9 -44.45 19.35 -46.85 15.5 -49.0 12.0 -50.9 7.25 -52.05 4.05 -48.15 1.9 -44.3 0.15 -40.75 -0.85 L-40.4 -0.95 -40.2 -0.9 Q-34.25 -2.4 -29.25 -1.7 L-28.85 -1.65 -27.65 -1.4" fill="#533b1c" fill-rule="evenodd" stroke="none"/>
  </g>
</svg>
