<?xml version="1.0" encoding="UTF-8" standalone="no"?>
<svg xmlns:xlink="http://www.w3.org/1999/xlink" height="183.7px" width="150.25px" xmlns="http://www.w3.org/2000/svg">
  <g transform="matrix(1.0, 0.0, 0.0, 1.0, -65.25, 11.15)">
    <path d="M140.85 3.3 Q146.55 -3.8 161.8 -10.55 L161.6 -7.3 162.5 -7.8 Q155.65 -3.7 152.9 2.3 143.8 6.75 139.1 18.35 137.0 20.35 138.25 13.9 139.7 10.2 122.1 21.0 L125.4 22.85 Q119.0 24.65 115.65 27.4 115.45 20.9 118.2 14.75 114.7 16.6 112.1 19.6 110.2 21.85 108.75 24.75 L102.8 30.05 Q105.6 21.45 103.8 20.95 100.8 22.9 98.55 26.5 95.75 13.05 84.6 9.0 84.3 10.4 84.45 12.15 84.6 15.05 86.05 19.15 L87.7 24.55 Q80.9 12.55 78.2 12.75 74.2 5.95 65.85 -3.5 76.5 -4.75 82.4 6.1 81.5 3.65 81.25 -3.0 85.55 0.7 88.15 1.35 L89.35 -9.7 Q95.95 2.95 101.35 6.95 101.9 3.1 101.45 -1.0 106.05 0.85 110.85 6.7 110.95 -0.4 115.35 -5.15 119.1 2.55 125.2 6.85 128.15 3.5 132.15 1.35 L133.95 4.2 Q136.2 6.6 140.85 3.3 138.15 6.4 137.35 9.5 L133.95 4.2 137.35 9.5 Q138.15 6.4 140.85 3.3 M170.7 1.3 Q173.9 1.45 177.85 2.5 162.95 13.05 162.45 20.85 158.85 21.35 155.45 25.35 155.8 9.55 170.7 1.3 M164.3 19.7 Q166.6 18.45 168.45 18.95 165.95 21.5 165.45 25.6 L161.25 31.05 Q161.0 24.5 164.3 19.7 M174.7 23.1 Q176.7 23.65 178.85 25.2 172.1 27.3 169.95 29.95 L169.75 30.15 Q168.8 34.8 170.05 40.55 174.85 51.6 177.9 61.85 183.7 81.75 182.55 98.35 173.65 64.65 161.4 41.3 164.7 37.55 165.3 32.2 165.9 26.65 174.7 23.1 M147.05 17.6 L148.05 15.5 Q147.5 19.0 148.75 22.25 L150.8 25.95 Q150.15 27.8 146.55 26.35 147.35 23.15 147.05 17.6 M100.05 13.4 Q94.4 7.65 88.25 6.45 L86.1 6.1 Q85.0 7.25 84.6 9.0 85.0 7.25 86.1 6.1 L88.25 6.45 Q87.8 3.55 88.15 1.35 87.8 3.55 88.25 6.45 94.4 7.65 100.05 13.4 M119.85 19.0 Q118.3 17.05 118.2 14.75 118.3 17.05 119.85 19.0" fill="#ceb692" fill-rule="evenodd" stroke="none"/>
    <path d="M162.5 -7.8 L162.75 -7.95 165.05 -9.2 Q164.4 -1.45 160.75 4.1 164.35 1.0 170.7 1.3 155.8 9.55 155.45 25.35 158.85 21.35 162.45 20.85 L162.45 20.9 164.3 19.7 Q161.0 24.5 161.25 31.05 L165.45 25.6 165.45 25.65 Q169.75 21.6 174.7 23.1 165.9 26.65 165.3 32.2 164.7 37.55 161.4 41.3 173.65 64.65 182.55 98.35 181.9 107.05 179.35 114.85 175.85 125.55 168.4 142.05 162.7 154.7 152.3 162.5 L152.15 162.65 150.65 163.7 145.7 166.75 134.35 172.55 139.2 165.25 Q146.2 150.15 148.5 130.45 146.45 123.05 145.45 115.65 142.9 111.15 129.55 116.05 112.7 117.7 100.2 106.1 91.4 94.9 90.0 81.8 L98.9 45.35 Q97.0 40.95 92.45 36.65 87.85 32.4 80.6 28.3 L81.75 24.65 Q82.75 20.4 78.2 12.75 80.9 12.55 87.7 24.55 L86.05 19.15 Q84.6 15.05 84.45 12.15 84.3 10.4 84.6 9.0 95.75 13.05 98.55 26.5 100.8 22.9 103.8 20.95 105.6 21.45 102.8 30.05 L108.75 24.75 Q110.2 21.85 112.1 19.6 114.7 16.6 118.2 14.75 115.45 20.9 115.65 27.4 119.0 24.65 125.4 22.85 L122.1 21.0 Q139.7 10.2 138.25 13.9 137.0 20.35 139.1 18.35 143.8 6.75 152.9 2.3 155.65 -3.7 162.5 -7.8 M147.05 17.6 Q145.75 20.0 143.9 22.0 145.75 20.0 147.05 17.6 147.35 23.15 146.55 26.35 150.15 27.8 150.8 25.95 L148.75 22.25 Q147.5 19.0 148.05 15.5 L147.05 17.6" fill="#dbc897" fill-rule="evenodd" stroke="none"/>
    <path d="M134.35 172.55 L77.2 151.55 Q81.55 138.65 76.9 116.7 L74.0 103.7 Q66.7 72.7 80.6 28.3 87.85 32.4 92.45 36.65 97.0 40.95 98.9 45.35 L90.0 81.8 Q91.4 94.9 100.2 106.1 112.7 117.7 129.55 116.05 142.9 111.15 145.45 115.65 146.45 123.05 148.5 130.45 146.2 150.15 139.2 165.25 L134.35 172.55" fill="#edd8a3" fill-rule="evenodd" stroke="none"/>
    <path d="M140.85 3.3 Q146.55 -3.8 161.8 -10.55 L161.6 -7.3 M165.05 -9.2 Q164.4 -1.45 160.75 4.1 164.35 1.0 170.7 1.3 173.9 1.45 177.85 2.5 162.95 13.05 162.45 20.85 L162.45 20.9 164.3 19.7 Q166.6 18.45 168.45 18.95 165.95 21.5 165.45 25.6 L165.45 25.65 Q169.75 21.6 174.7 23.1 176.7 23.65 178.85 25.2 172.1 27.3 169.95 29.95 L169.75 30.15 Q168.8 34.8 170.05 40.55 M81.75 24.65 Q82.75 20.4 78.2 12.75 74.2 5.95 65.85 -3.5 76.5 -4.75 82.4 6.1 81.5 3.65 81.25 -3.0 85.55 0.7 88.15 1.35 L89.35 -9.7 Q95.95 2.95 101.35 6.95 101.9 3.1 101.45 -1.0 106.05 0.85 110.85 6.7 110.95 -0.4 115.35 -5.15 119.1 2.55 125.2 6.85 128.15 3.5 132.15 1.35 L133.95 4.2 137.35 9.5 Q138.15 6.4 140.85 3.3" fill="none" stroke="#31393d" stroke-linecap="round" stroke-linejoin="miter-clip" stroke-miterlimit="5.0" stroke-width="1.2000000000000002"/>
    <path d="M161.6 -7.3 L162.5 -7.8 M162.75 -7.95 L165.05 -9.2 M170.05 40.55 Q174.85 51.6 177.9 61.85 183.7 81.75 182.55 98.35 181.9 107.05 179.35 114.85 175.85 125.55 168.4 142.05 162.7 154.7 152.3 162.5 M77.2 151.55 Q81.55 138.65 76.9 116.7 L74.0 103.7 Q66.7 72.7 80.6 28.3 L81.75 24.65 M133.95 4.2 Q136.2 6.6 140.85 3.3 M143.9 22.0 Q145.75 20.0 147.05 17.6 L148.05 15.5 Q147.5 19.0 148.75 22.25 M118.2 14.75 Q114.7 16.6 112.1 19.6 M84.6 9.0 Q84.3 10.4 84.45 12.15 M118.2 14.75 Q118.3 17.05 119.85 19.0 M84.6 9.0 Q85.0 7.25 86.1 6.1 L88.25 6.45 Q87.8 3.55 88.15 1.35 M88.25 6.45 Q94.4 7.65 100.05 13.4" fill="none" stroke="#31393d" stroke-linecap="round" stroke-linejoin="round" stroke-width="1.2000000000000002"/>
    <path d="M145.75 166.8 L145.6 166.8 145.6 166.65 150.3 163.3 150.35 163.3 150.35 163.25 150.4 163.25 151.8 162.15 151.85 162.1 Q152.4 161.75 152.65 162.3 L152.75 162.75 152.45 163.1 150.95 164.05 150.9 164.05 150.9 164.1 150.85 164.1 150.8 164.15 150.65 164.2 145.75 166.8 M86.1 19.1 L86.05 19.2 Q85.95 19.3 85.95 19.15 L85.65 18.55 84.35 14.8 84.2 14.15 84.1 13.85 83.85 12.5 83.85 12.15 83.8 12.05 84.0 11.65 Q84.2 11.45 84.45 11.5 85.1 11.5 85.0 12.1 L85.0 12.4 85.05 12.75 85.05 13.45 85.1 13.7 85.1 14.0 85.2 14.6 85.2 14.95 85.3 15.6 85.4 15.9 85.55 16.9 86.05 18.8 86.1 19.1 M108.8 24.75 L108.7 24.8 108.65 24.7 109.7 22.4 109.8 22.1 110.4 21.1 110.5 20.85 111.6 19.2 111.7 19.1 Q112.15 18.7 112.55 19.1 112.9 19.55 112.55 19.95 L111.25 21.35 110.55 22.25 110.35 22.45 108.8 24.75 M99.5 13.7 Q99.15 13.3 99.6 12.85 L100.45 12.95 101.15 13.85 103.8 18.25 103.95 18.55 104.05 18.85 104.05 18.95 103.9 18.95 103.9 18.9 103.7 18.7 103.55 18.4 100.7 14.85 100.05 14.2 99.8 14.0 99.5 13.7 M119.35 19.35 L119.3 19.3 Q118.9 18.8 119.45 18.45 L119.9 18.35 120.3 18.6 120.3 18.65 120.4 18.7 120.45 18.8 120.65 19.05 122.45 20.8 125.4 22.75 125.45 22.85 125.35 22.9 124.35 22.55 122.2 21.5 120.6 20.45 119.6 19.6 119.5 19.5 119.45 19.4 119.35 19.35 M124.7 6.45 L124.8 6.35 125.25 6.15 125.65 6.35 Q126.1 6.8 125.65 7.2 L123.05 9.9 122.95 9.9 Q122.75 9.9 122.9 9.75 L124.7 6.45 M148.2 22.5 L148.15 22.4 Q147.9 21.9 148.45 21.6 149.0 21.4 149.25 21.95 L150.85 25.9 150.85 26.0 150.75 26.0 150.7 25.95 148.2 22.5 M138.35 26.9 L138.2 26.9 138.2 26.75 140.0 25.2 143.45 21.55 143.5 21.5 Q143.7 21.3 143.95 21.35 L144.35 21.55 Q144.7 22.0 144.3 22.4 L139.3 26.3 138.35 26.9 M158.25 7.25 L158.1 7.25 158.1 7.1 158.65 6.35 160.25 3.75 160.3 3.6 161.15 3.55 Q161.6 4.0 161.2 4.4 L161.1 4.55 160.8 4.9 158.4 7.15 158.25 7.25 M162.4 -8.45 L162.45 -8.45 Q162.95 -8.7 163.25 -8.25 163.6 -7.75 163.05 -7.4 L162.9 -7.35 162.8 -7.3 162.8 -7.25 162.75 -7.25 161.1 -6.3 160.7 -6.0 160.45 -5.85 160.35 -5.75 160.2 -5.7 158.85 -4.7 158.75 -4.6 157.0 -3.1 156.9 -2.95 156.75 -2.85 154.4 0.0 154.25 0.15 153.85 0.8 153.7 0.95 152.95 2.3 152.85 2.35 152.8 2.25 153.55 0.6 153.8 0.2 153.9 0.0 154.05 -0.2 156.4 -3.4 156.5 -3.55 158.3 -5.35 159.65 -6.45 159.85 -6.65 160.1 -6.8 162.1 -8.25 162.15 -8.25 162.2 -8.3 162.3 -8.35 162.4 -8.45" fill="#31393d" fill-rule="evenodd" stroke="none"/>
    <path d="M176.9 66.35 L176.7 66.7 176.45 65.9 176.9 66.35" fill="#e4e3e3" fill-rule="evenodd" stroke="none"/>
    <path d="M176.7 66.7 L176.9 66.35 Q178.65 68.25 180.6 68.3 180.1 65.65 178.5 62.95 L178.0 62.25 178.85 62.5 Q195.9 72.95 213.05 85.8 216.75 88.25 213.1 89.25 195.55 95.5 182.3 101.55 181.5 99.5 182.3 98.3 L179.7 99.6 Q178.6 99.15 177.3 99.2 178.3 93.5 178.1 87.75 179.75 90.05 180.9 90.0 179.0 86.4 178.65 83.0 178.5 74.9 176.7 66.7" fill="url(#gradient0)" fill-rule="evenodd" stroke="none"/>
    <path d="M178.5 62.95 Q180.1 65.65 180.6 68.3 178.65 68.25 176.9 66.35 176.4 61.95 178.5 62.95" fill="#edd8a3" fill-rule="evenodd" stroke="none"/>
    <path d="M176.7 66.7 L176.9 66.35" fill="none" stroke="#31393d" stroke-linecap="round" stroke-linejoin="miter-clip" stroke-miterlimit="3.0" stroke-width="0.05"/>
    <path d="M176.45 65.9 L176.7 66.7 Q178.5 74.9 178.65 83.0 M178.1 87.75 Q178.3 93.5 177.3 99.2 178.6 99.15 179.7 99.6 M182.3 101.55 Q195.55 95.5 213.1 89.25 216.75 88.25 213.05 85.8 195.9 72.95 178.85 62.5 L178.0 62.25" fill="none" stroke="#31393d" stroke-linecap="round" stroke-linejoin="round" stroke-width="1.2000000000000002"/>
    <path d="M176.9 66.35 L176.45 65.9 M178.65 83.0 Q179.0 86.4 180.9 90.0 179.75 90.05 178.1 87.75 M179.7 99.6 L182.3 98.3 Q181.5 99.5 182.3 101.55 M178.0 62.25 L178.5 62.95 Q180.1 65.65 180.6 68.3 178.65 68.25 176.9 66.35" fill="none" stroke="#31393d" stroke-linecap="round" stroke-linejoin="miter-clip" stroke-miterlimit="3.0" stroke-width="1.2000000000000002"/>
    <path d="M129.95 29.55 L132.9 28.95 Q152.55 25.7 166.55 43.35 175.15 58.8 164.3 81.4 153.35 104.0 127.0 105.4 119.25 105.8 113.0 103.75 98.0 98.7 91.8 79.25 85.05 58.0 95.75 45.65 109.8 33.1 129.95 29.55" fill="url(#gradient1)" fill-rule="evenodd" stroke="none"/>
    <path d="M129.95 29.55 Q109.8 33.1 95.75 45.65 85.05 58.0 91.8 79.25 98.0 98.7 113.0 103.75 119.25 105.8 127.0 105.4 153.35 104.0 164.3 81.4 175.15 58.8 166.55 43.35 152.55 25.7 132.9 28.95 L129.95 29.55 Z" fill="none" stroke="#31393d" stroke-linecap="round" stroke-linejoin="round" stroke-width="1.2000000000000002"/>
    <path d="M115.8 53.05 L115.85 53.05 Q116.4 52.8 116.65 53.3 116.85 53.85 116.35 54.1 L115.95 54.3 115.8 54.35 115.5 54.55 114.9 54.85 114.7 55.0 114.2 55.3 113.95 55.5 113.7 55.65 112.9 56.3 110.75 58.5 110.5 58.8 110.45 58.9 110.35 59.0 109.75 59.85 108.2 62.75 107.2 65.45 106.5 68.2 106.4 68.25 106.35 68.15 106.35 67.95 106.5 67.0 106.85 65.35 109.15 59.45 109.4 59.1 109.5 58.9 109.65 58.75 109.85 58.35 112.25 55.55 113.85 54.25 114.75 53.65 114.95 53.55 115.4 53.25 115.8 53.05" fill="#31393d" fill-rule="evenodd" stroke="none"/>
  </g>
  <defs>
    <radialGradient cx="0" cy="0" gradientTransform="matrix(0.0022, -0.0202, 0.0336, 0.0037, 196.2, 78.6)" gradientUnits="userSpaceOnUse" id="gradient0" r="819.2" spreadMethod="pad">
      <stop offset="0.3843137254901961" stop-color="#e4e3e3"/>
      <stop offset="0.6196078431372549" stop-color="#d2cfce"/>
      <stop offset="0.9215686274509803" stop-color="#b6b3b2"/>
    </radialGradient>
    <radialGradient cx="0" cy="0" gradientTransform="matrix(0.0255, -0.061, 0.0538, 0.0225, 138.75, 73.35)" gradientUnits="userSpaceOnUse" id="gradient1" r="819.2" spreadMethod="pad">
      <stop offset="0.09019607843137255" stop-color="#3c3c3c"/>
      <stop offset="0.6196078431372549" stop-color="#545555"/>
      <stop offset="0.803921568627451" stop-color="#656566"/>
    </radialGradient>
  </defs>
</svg>
