<?xml version="1.0" encoding="UTF-8" standalone="no"?>
<svg xmlns:xlink="http://www.w3.org/1999/xlink" height="42.6px" width="167.6px" xmlns="http://www.w3.org/2000/svg">
  <g transform="matrix(1.0, 0.0, 0.0, 1.0, -8.0, -8.75)">
    <path d="M170.9 17.75 L171.35 17.8 171.35 17.85 170.9 17.75 171.35 17.85 175.0 43.6 Q127.6 52.7 103.75 50.25 69.55 43.9 37.7 46.65 24.75 52.55 18.2 47.75 -0.6 32.95 17.45 13.8 39.35 4.3 72.05 15.0 37.8 11.5 33.35 15.9 24.15 22.25 30.7 28.8 47.5 42.9 62.45 35.3 75.75 30.15 90.7 30.9 117.55 29.7 138.9 34.9 157.0 36.3 165.4 17.25 L165.45 17.25 166.0 17.3 166.15 17.3 166.7 17.35 166.8 17.35 167.0 17.4 169.45 17.65 170.9 17.75 M166.0 17.3 L166.7 17.35 166.0 17.3" fill="#5d8595" fill-rule="evenodd" stroke="none"/>
    <path d="M80.8 14.65 Q110.05 13.75 142.2 15.6 151.9 16.6 150.75 18.1 L90.95 16.75 Q56.4 16.55 80.8 14.65" fill="#77a6b8" fill-rule="evenodd" stroke="none"/>
    <path d="M72.05 15.0 L80.8 14.65 Q56.4 16.55 90.95 16.75 L150.75 18.1 Q151.9 16.6 142.2 15.6 L165.4 17.25 Q157.0 36.3 138.9 34.9 117.55 29.7 90.7 30.9 75.75 30.15 62.45 35.3 47.5 42.9 30.7 28.8 24.15 22.25 33.35 15.9 37.8 11.5 72.05 15.0" fill="#6593a6" fill-rule="evenodd" stroke="none"/>
    <path d="M170.9 17.75 L171.35 17.85 M175.0 43.6 Q127.6 52.7 103.75 50.25 69.55 43.9 37.7 46.65 24.75 52.55 18.2 47.75 -0.6 32.95 17.45 13.8 39.35 4.3 72.05 15.0 L80.8 14.65 Q110.05 13.75 142.2 15.6 L165.4 17.25 M165.45 17.25 L166.0 17.3 166.7 17.35 166.8 17.35 167.0 17.4 169.45 17.65 170.9 17.75 Z" fill="none" stroke="#31393d" stroke-linecap="round" stroke-linejoin="round" stroke-width="1.2000000000000002"/>
    <path d="M47.7 43.05 Q47.8 42.95 47.8 43.1 L47.75 43.2 37.85 47.2 37.8 47.2 Q37.25 47.4 37.05 46.8 36.95 46.2 37.5 46.05 L47.7 43.05 M62.45 35.35 Q62.35 35.45 62.35 35.3 62.25 35.2 62.4 35.2 L63.5 34.65 67.55 33.05 72.6 31.65 75.9 31.05 76.05 31.0 76.2 31.0 79.6 30.55 83.4 30.35 88.8 30.55 89.45 30.65 90.35 30.75 90.7 30.8 90.75 30.85 90.65 30.95 90.35 31.0 89.45 31.05 88.8 31.05 88.0 31.1 86.2 31.2 85.15 31.25 76.4 32.15 76.25 32.2 76.05 32.2 67.55 33.95 67.3 34.05 66.8 34.15 62.75 35.3 62.45 35.35" fill="#31393d" fill-rule="evenodd" stroke="none"/>
  </g>
</svg>
