<?xml version="1.0" encoding="UTF-8" standalone="no"?>
<svg xmlns:xlink="http://www.w3.org/1999/xlink" height="13.85px" width="46.35px" xmlns="http://www.w3.org/2000/svg">
  <g transform="matrix(1.0, 0.0, 0.0, 1.0, 0.85, -0.5)">
    <path d="M8.55 1.05 L16.7 0.7 Q21.85 0.7 28.6 3.45 35.3 6.15 38.15 8.45 40.95 10.7 43.1 10.15 45.25 9.55 44.55 11.35 44.6 12.3 44.1 13.05 43.45 14.05 42.1 14.05 39.6 14.05 36.45 13.15 L26.95 10.75 Q20.6 9.25 0.45 8.15 L8.55 1.05 M20.8 1.95 Q15.95 0.45 13.2 1.1 24.5 4.05 35.15 8.6 29.95 5.1 20.8 1.95" fill="#cb768a" fill-rule="evenodd" stroke="none"/>
    <path d="M20.8 1.95 Q29.95 5.1 35.15 8.6 24.5 4.05 13.2 1.1 15.95 0.45 20.8 1.95" fill="#ee8aa1" fill-rule="evenodd" stroke="none"/>
    <path d="M8.55 1.05 Q8.45 0.85 8.35 1.0 L8.25 0.9 12.65 0.55 18.55 0.55 23.35 1.45 Q26.65 2.3 31.45 4.2 36.25 6.05 40.05 9.3 L41.05 9.65 42.1 9.75 45.3 9.85 45.5 11.65 Q45.3 13.05 44.15 13.85 43.0 14.6 40.75 14.25 L35.05 13.1 30.65 12.05 Q19.75 8.9 0.0 8.85 L-0.6 8.25 -0.85 8.0 0.45 8.15 Q20.6 9.25 26.95 10.75 L36.45 13.15 Q39.6 14.05 42.1 14.05 43.45 14.05 44.1 13.05 44.6 12.3 44.55 11.35 45.25 9.55 43.1 10.15 40.95 10.7 38.15 8.45 35.3 6.15 28.6 3.45 21.85 0.7 16.7 0.7 L8.55 1.05" fill="#874e5c" fill-rule="evenodd" stroke="none"/>
  </g>
</svg>
