<?xml version="1.0" encoding="UTF-8" standalone="no"?>
<svg xmlns:xlink="http://www.w3.org/1999/xlink" height="30.1px" width="91.9px" xmlns="http://www.w3.org/2000/svg">
  <g transform="matrix(1.0, 0.0, 0.0, 1.0, 0.3, 0.85)">
    <path d="M79.25 13.2 Q82.7 17.8 89.4 18.55 91.65 18.45 90.7 20.7 87.05 29.45 75.25 28.55 62.2 27.55 44.9 24.3 22.45 26.95 0.3 25.4 L0.0 25.35 7.4 18.3 Q22.85 20.55 35.25 18.15 L41.85 14.9 45.75 14.9 Q56.35 24.15 70.45 24.1 76.0 24.05 78.9 22.5 82.9 18.95 79.25 13.2" fill="#5d8595" fill-opacity="0.99607843" fill-rule="evenodd" stroke="none"/>
    <path d="M7.4 18.3 Q36.75 -4.85 75.65 0.0 L75.55 0.65 Q74.55 6.9 79.25 13.2 82.9 18.95 78.9 22.5 76.0 24.05 70.45 24.1 56.35 24.15 45.75 14.9 L41.85 14.9 35.25 18.15 Q22.85 20.55 7.4 18.3" fill="#6593a6" fill-rule="evenodd" stroke="none"/>
    <path d="M79.25 13.2 Q82.7 17.8 89.4 18.55 91.65 18.45 90.7 20.7 87.05 29.45 75.25 28.55 62.2 27.55 44.9 24.3 22.45 26.95 0.3 25.4 M75.55 0.65 Q74.55 6.9 79.25 13.2 Z" fill="none" stroke="#31393d" stroke-linecap="round" stroke-linejoin="round" stroke-width="1.2000000000000002"/>
  </g>
</svg>
