<?xml version="1.0" encoding="UTF-8" standalone="no"?>
<svg xmlns:xlink="http://www.w3.org/1999/xlink" height="123.1px" width="114.55px" xmlns="http://www.w3.org/2000/svg">
  <g transform="matrix(1.0, 0.0, 0.0, 1.0, 0.6, 0.6)">
    <path d="M110.7 3.9 Q109.0 6.35 107.8 8.45 L107.75 8.45 Q91.7 18.3 83.95 26.5 L76.0 34.55 Q75.8 34.4 76.2 32.5 37.15 78.25 29.8 117.65 L0.0 113.4 Q37.9 54.55 77.55 22.9 L110.7 3.9" fill="#6593a6" fill-rule="evenodd" stroke="none"/>
    <path d="M107.75 8.45 Q109.25 7.85 111.1 7.95 107.85 9.65 105.75 13.55 91.55 40.15 83.75 66.2 73.1 101.7 59.55 121.9 L29.8 117.65 Q37.15 78.25 76.2 32.5 75.8 34.4 76.0 34.55 L83.95 26.5 Q91.7 18.3 107.75 8.45" fill="#5d8595" fill-opacity="0.99607843" fill-rule="evenodd" stroke="none"/>
    <path d="M113.35 0.0 L113.25 0.2 110.7 3.9 77.55 22.9 Q95.25 8.75 113.35 0.0" fill="#77a6b8" fill-rule="evenodd" stroke="none"/>
    <path d="M113.25 0.2 L110.7 3.9 Q109.0 6.35 107.8 8.45 M107.75 8.45 Q109.25 7.85 111.1 7.95 107.85 9.65 105.75 13.55 91.55 40.15 83.75 66.2 73.1 101.7 59.55 121.9 M0.0 113.4 Q37.9 54.55 77.55 22.9 95.25 8.75 113.35 0.0" fill="none" stroke="#31393d" stroke-linecap="round" stroke-linejoin="round" stroke-width="1.2000000000000002"/>
  </g>
</svg>
