<?xml version="1.0" encoding="UTF-8" standalone="no"?>
<svg xmlns:xlink="http://www.w3.org/1999/xlink" height="26.8px" width="28.85px" xmlns="http://www.w3.org/2000/svg">
  <g transform="matrix(1.0, 0.0, 0.0, 1.0, 0.0, 0.0)">
    <path d="M22.55 25.25 Q13.65 28.45 3.7 24.95 1.35 23.75 0.5 21.45 -0.15 19.75 0.05 17.4 L0.2 16.4 Q1.3 8.4 5.9 6.2 10.0 3.55 12.85 2.25 14.15 1.65 15.15 1.35 L15.2 1.35 18.4 0.4 19.7 0.1 19.95 0.0 20.1 0.1 21.45 0.95 Q23.85 2.65 25.35 5.35 27.45 9.15 27.8 14.85 L26.35 21.65 Q24.8 23.95 22.55 25.25 M7.7 11.0 Q7.35 9.7 6.3 9.4 5.3 9.05 4.25 9.8 1.5 11.65 2.55 15.65 2.75 16.55 3.15 16.95 3.95 18.05 5.65 17.65 7.3 17.25 7.7 14.4 8.0 12.3 7.7 11.0" fill="#422b14" fill-rule="evenodd" stroke="none"/>
    <path d="M7.7 11.0 Q8.0 12.3 7.7 14.4 7.3 17.25 5.65 17.65 3.95 18.05 3.15 16.95 2.75 16.55 2.55 15.65 1.5 11.65 4.25 9.8 5.3 9.05 6.3 9.4 7.35 9.7 7.7 11.0" fill="#ffffff" fill-rule="evenodd" stroke="none"/>
    <path d="M25.75 20.25 L25.65 20.3 25.6 20.2 25.65 19.85 27.3 14.65 27.3 14.75 27.45 13.35 27.55 12.9 27.8 11.05 28.65 7.4 28.7 7.35 28.8 7.45 28.85 7.9 28.8 8.4 28.8 9.3 28.75 10.25 28.35 14.45 28.25 14.9 28.25 15.0 26.95 18.0 25.95 19.95 25.75 20.25" fill="#ffffff" fill-rule="evenodd" stroke="none"/>
  </g>
</svg>
