<?xml version="1.0" encoding="UTF-8" standalone="no"?>
<svg xmlns:xlink="http://www.w3.org/1999/xlink" height="140.75px" width="208.95px" xmlns="http://www.w3.org/2000/svg">
  <g transform="matrix(1.0, 0.0, 0.0, 1.0, 6.5, -9.9)">
    <path d="M44.65 13.9 Q84.4 1.85 132.1 32.75 134.1 36.5 136.25 39.75 143.05 50.3 150.9 56.2 157.1 60.9 164.0 62.7 183.85 66.95 192.55 66.95 199.8 67.65 201.85 75.45 L194.15 89.95 Q194.95 78.15 186.3 74.3 L174.05 73.95 Q158.15 73.95 147.15 76.3 L146.25 76.85 145.4 77.35 136.1 76.85 Q123.6 76.25 113.75 73.2 107.25 71.25 108.7 70.6 L114.5 71.75 Q131.3 74.7 144.15 72.6 L137.25 66.35 Q133.6 62.9 131.65 60.35 L132.7 56.9 Q137.15 50.0 123.8 46.45 121.5 46.35 118.85 42.7 L118.8 42.65 Q103.2 32.35 85.4 27.75 L83.7 27.35 Q64.55 22.7 42.85 24.6 41.0 25.2 39.25 25.95 L44.65 13.9 39.25 25.95 Q10.25 37.85 6.9 70.25 L6.95 70.25 Q11.05 73.3 16.35 80.35 22.35 102.25 27.1 110.75 13.55 110.5 -0.1 108.4 -8.15 96.0 -5.0 70.25 -3.85 58.2 4.5 43.45 12.55 30.6 23.25 23.8 33.65 17.2 44.65 13.9" fill="#545555" fill-rule="evenodd" stroke="none"/>
    <path d="M118.8 42.65 L118.85 42.7 Q121.5 46.35 123.8 46.45 137.15 50.0 132.7 56.9 L131.65 60.35 131.65 60.3 Q117.5 56.15 98.05 61.5 L94.2 61.65 96.25 63.45 106.65 69.45 107.5 69.75 Q110.7 70.9 114.5 71.75 L108.7 70.6 Q107.25 71.25 113.75 73.2 123.6 76.25 136.1 76.85 L145.4 77.35 143.55 78.45 139.2 80.95 Q84.0 111.85 27.1 110.75 22.35 102.25 16.35 80.35 11.05 73.3 6.95 70.25 52.1 68.9 108.55 46.8 L118.8 42.65 M108.7 70.6 L107.5 69.75 108.7 70.6" fill="#656566" fill-rule="evenodd" stroke="none"/>
    <path d="M39.25 25.95 Q41.0 25.2 42.85 24.6 64.55 22.7 83.7 27.35 L85.4 27.75 Q103.2 32.35 118.8 42.65 L108.55 46.8 Q52.1 68.9 6.95 70.25 L6.9 70.25 Q10.25 37.85 39.25 25.95 M145.4 77.35 L145.45 77.4 113.5 114.1 73.35 143.8 Q59.9 143.3 46.45 136.1 34.35 124.3 27.1 110.75 84.0 111.85 139.2 80.95 L143.55 78.45 145.4 77.35 M31.75 42.7 Q23.15 53.4 19.65 61.25 L21.4 61.25 Q48.75 54.05 73.5 39.05 78.05 35.6 63.25 34.7 46.7 35.35 31.75 42.7" fill="#6593a6" fill-rule="evenodd" stroke="none"/>
    <path d="M98.05 61.5 L96.45 63.25 96.25 63.45 94.2 61.65 98.05 61.5" fill="url(#gradient0)" fill-rule="evenodd" stroke="none"/>
    <path d="M73.35 143.8 L64.0 150.65 56.4 150.0 Q46.05 147.2 37.35 143.2 16.1 133.45 4.75 116.4 L-0.1 108.4 Q13.55 110.5 27.1 110.75 34.35 124.3 46.45 136.1 59.9 143.3 73.35 143.8 M31.75 42.7 Q46.7 35.35 63.25 34.7 78.05 35.6 73.5 39.05 48.75 54.05 21.4 61.25 L19.65 61.25 Q23.15 53.4 31.75 42.7" fill="#5d8595" fill-opacity="0.99607843" fill-rule="evenodd" stroke="none"/>
    <path d="M146.25 76.85 L147.15 76.3 Q158.15 73.95 174.05 73.95 L186.3 74.3 Q194.95 78.15 194.15 89.95 L201.85 75.45 Q199.8 67.65 192.55 66.95 183.85 66.95 164.0 62.7 157.1 60.9 150.9 56.2 143.05 50.3 136.25 39.75 134.1 36.5 132.1 32.75 84.4 1.85 44.65 13.9 33.65 17.2 23.25 23.8 12.55 30.6 4.5 43.45 -3.85 58.2 -5.0 70.25 -8.15 96.0 -0.1 108.4 L4.75 116.4 Q16.1 133.45 37.35 143.2 M39.25 25.95 Q41.0 25.2 42.85 24.6 64.55 22.7 83.7 27.35 L85.4 27.75 Q103.2 32.35 118.8 42.65 L108.55 46.8 Q52.1 68.9 6.95 70.25 L6.9 70.25 Q10.25 37.85 39.25 25.95 M131.65 60.35 Q133.6 62.9 137.25 66.35 L144.15 72.6 Q131.3 74.7 114.5 71.75 M146.25 76.85 L145.4 77.35 143.55 78.45 139.2 80.95 Q84.0 111.85 27.1 110.75 13.55 110.5 -0.1 108.4 M131.65 60.3 L131.65 60.35" fill="none" stroke="#31393d" stroke-linecap="round" stroke-linejoin="round" stroke-width="1.2000000000000002"/>
    <path d="M44.65 13.9 L39.25 25.95 M107.5 69.75 L108.7 70.6" fill="none" stroke="#31393d" stroke-linecap="round" stroke-linejoin="miter-clip" stroke-miterlimit="3.0" stroke-width="0.05"/>
    <path d="M107.5 69.75 Q110.7 70.9 114.5 71.75" fill="none" stroke="#31393d" stroke-linecap="round" stroke-linejoin="miter-clip" stroke-miterlimit="3.0" stroke-width="1.2000000000000002"/>
    <path d="M94.2 61.65 L98.05 61.5 Q117.5 56.15 131.65 60.3" fill="none" stroke="#31393d" stroke-linecap="round" stroke-linejoin="miter-clip" stroke-miterlimit="3.0" stroke-width="1.0"/>
    <path d="M93.8 62.1 Q93.8 61.3 94.55 61.15 L94.85 61.1 95.4 61.1 95.5 61.15 95.7 61.2 95.75 61.25 95.85 61.3 95.95 61.4 96.1 61.5 97.0 62.35 98.85 63.4 103.25 66.25 107.0 68.8 107.65 69.15 107.7 69.15 Q108.1 69.4 108.0 69.85 107.9 70.4 107.3 70.3 L106.35 70.1 103.85 68.95 103.7 68.85 103.55 68.8 95.55 64.6 95.45 64.5 95.35 64.45 94.3 63.55 94.0 63.25 93.95 63.15 93.85 63.0 93.85 62.9 93.8 62.8 93.75 62.6 93.75 62.35 93.8 62.1" fill="#31393d" fill-rule="evenodd" stroke="none"/>
  </g>
  <defs>
    <radialGradient cx="0" cy="0" gradientTransform="matrix(0.0051, -0.0273, 0.0449, 0.0083, 123.95, 69.5)" gradientUnits="userSpaceOnUse" id="gradient0" r="819.2" spreadMethod="pad">
      <stop offset="0.3764705882352941" stop-color="#d5d1cf"/>
      <stop offset="0.7372549019607844" stop-color="#736d6a"/>
    </radialGradient>
  </defs>
</svg>
