<?xml version="1.0" encoding="UTF-8" standalone="no"?>
<svg xmlns:xlink="http://www.w3.org/1999/xlink" height="8.9px" width="51.65px" xmlns="http://www.w3.org/2000/svg">
  <g transform="matrix(1.0, 0.0, 0.0, 1.0, 0.4, -7.4)">
    <path d="M45.15 14.1 L36.1 13.85 Q30.45 13.8 27.15 13.9 35.95 11.95 41.55 12.7 41.8 11.8 40.25 8.8 L40.3 8.75 45.15 14.1" fill="#545555" fill-rule="evenodd" stroke="none"/>
    <path d="M27.15 13.9 L22.25 13.8 3.85 12.15 Q4.55 11.8 5.4 11.55 16.45 9.45 27.45 8.3 L28.35 8.25 30.65 8.15 40.25 8.8 Q41.8 11.8 41.55 12.7 35.95 11.95 27.15 13.9" fill="#656566" fill-rule="evenodd" stroke="none"/>
    <path d="M5.4 11.55 Q9.85 8.7 27.45 8.3 16.45 9.45 5.4 11.55" fill="#767677" fill-rule="evenodd" stroke="none"/>
    <path d="M45.15 14.1 L45.9 14.25 Q46.2 14.4 46.3 14.8 L46.1 15.2 Q34.95 14.95 19.3 15.6 4.85 15.6 1.0 14.25 -1.0 13.6 -0.1 12.8 -0.1 12.15 0.4 12.0 L1.65 11.9 3.85 12.15 22.25 13.8 27.15 13.9 Q30.45 13.8 36.1 13.85 L45.15 14.1 M28.35 8.25 L28.35 8.2 31.65 7.75 35.3 7.4 38.05 7.7 40.4 8.2 40.3 8.75 40.25 8.8 30.65 8.15 28.35 8.25" fill="#31393d" fill-rule="evenodd" stroke="none"/>
    <path d="M45.45 15.15 Q45.5 14.3 45.15 14.1 47.65 14.3 48.25 14.75 L51.25 16.3 50.6 16.3 47.6 15.45 45.45 15.15" fill="#31393d" fill-rule="evenodd" stroke="none"/>
  </g>
</svg>
