<?xml version="1.0" encoding="UTF-8" standalone="no"?>
<svg xmlns:xlink="http://www.w3.org/1999/xlink" height="152.35px" width="70.45px" xmlns="http://www.w3.org/2000/svg">
  <g transform="matrix(1.0, 0.0, 0.0, 1.0, 0.6, 0.6)">
    <path d="M5.95 89.85 Q15.65 66.35 26.85 49.0 L14.05 78.85 Q8.2 89.25 5.95 89.85" fill="#767677" fill-rule="evenodd" stroke="none"/>
    <path d="M5.95 89.85 Q8.2 89.25 14.05 78.85 L26.85 49.0 Q15.65 66.35 5.95 89.85 M1.2 95.5 Q24.1 44.2 35.35 31.25 L57.0 6.25 Q23.45 72.75 14.4 96.15 10.65 101.45 4.75 100.65 2.5 98.85 1.2 95.5" fill="#656566" fill-rule="evenodd" stroke="none"/>
    <path d="M1.2 95.5 Q2.5 98.85 4.75 100.65 10.65 101.45 14.4 96.15 23.45 72.75 57.0 6.25 L33.0 97.35 Q26.85 120.6 12.3 123.55 -3.9 126.8 1.2 95.5" fill="#545555" fill-rule="evenodd" stroke="none"/>
    <path d="M57.0 6.25 L35.35 31.25 Q24.1 44.2 1.2 95.5 -3.9 126.8 12.3 123.55 26.85 120.6 33.0 97.35 L57.0 6.25 Z" fill="none" stroke="#31393d" stroke-linecap="round" stroke-linejoin="round" stroke-width="1.2000000000000002"/>
    <path d="M11.65 128.25 L11.7 128.3 Q43.7 147.25 56.1 76.3 60.45 44.25 63.3 3.25 71.15 13.0 66.75 45.9 L66.7 46.1 66.7 46.25 66.8 47.0 Q72.1 88.25 65.95 130.65 62.15 150.5 34.6 151.15 12.0 151.7 11.65 128.25" fill="#545555" fill-rule="evenodd" stroke="none"/>
    <path d="M59.15 0.0 Q61.55 1.0 63.3 3.25 60.45 44.25 56.1 76.3 43.7 147.25 11.7 128.3 L11.65 128.25 11.65 125.35 Q28.25 48.95 59.15 0.0 M37.0 48.95 Q28.8 67.55 26.5 79.75 28.3 82.25 31.35 78.4 32.55 67.15 40.85 47.0 41.4 41.7 37.0 48.95 M18.75 108.55 L15.4 119.6 Q17.65 123.55 19.55 118.05 20.4 111.1 23.25 105.4 L18.75 108.55" fill="#656566" fill-rule="evenodd" stroke="none"/>
    <path d="M18.75 108.55 L23.25 105.4 Q20.4 111.1 19.55 118.05 17.65 123.55 15.4 119.6 L18.75 108.55 M37.0 48.95 Q41.4 41.7 40.85 47.0 32.55 67.15 31.35 78.4 28.3 82.25 26.5 79.75 28.8 67.55 37.0 48.95" fill="#767677" fill-rule="evenodd" stroke="none"/>
    <path d="M59.15 0.0 Q28.25 48.95 11.65 125.35 L11.65 128.25 Q12.0 151.7 34.6 151.15 62.15 150.5 65.95 130.65 72.1 88.25 66.8 47.0" fill="none" stroke="#31393d" stroke-linecap="round" stroke-linejoin="round" stroke-width="1.2000000000000002"/>
  </g>
</svg>
