<?xml version="1.0" encoding="UTF-8" standalone="no"?>
<svg xmlns:xlink="http://www.w3.org/1999/xlink" height="86.3px" width="48.75px" xmlns="http://www.w3.org/2000/svg">
  <g transform="matrix(1.0, 0.0, 0.0, 1.0, 0.6, 0.6)">
    <path d="M45.55 0.15 Q48.35 1.15 47.25 6.45 L44.35 18.55 Q42.5 25.3 38.95 25.9 31.65 31.95 28.25 45.95 L27.8 46.2 28.1 46.65 Q27.25 49.4 25.65 50.35 30.65 67.2 22.95 69.85 L23.5 73.65 Q25.25 89.8 13.5 83.2 9.6 81.2 6.75 78.65 10.1 77.3 11.65 73.65 12.95 70.65 13.0 66.1 10.2 63.75 8.6 59.95 22.75 69.7 23.7 54.7 22.65 50.45 19.25 47.8 17.55 46.95 16.4 45.4 20.25 25.9 28.3 23.8 27.8 22.85 27.7 21.65 33.85 22.0 39.25 14.55 42.5 9.3 45.55 0.15 M38.95 25.9 Q30.3 27.65 28.3 23.8 30.3 27.65 38.95 25.9 M27.8 46.2 Q22.5 49.0 19.25 47.8 22.5 49.0 27.8 46.2 M22.25 69.7 Q16.6 69.05 13.0 66.1 16.6 69.05 22.25 69.7" fill="#deaea9" fill-rule="evenodd" stroke="none"/>
    <path d="M6.75 78.65 Q4.25 76.35 2.65 73.65 0.7 70.45 0.0 66.65 1.75 61.15 7.75 58.05 L8.0 58.15 7.95 58.0 7.9 58.0 Q4.15 52.2 5.6 45.15 6.0 40.9 14.3 39.15 12.2 20.5 28.25 16.95 30.55 14.25 33.95 13.15 38.45 10.6 39.45 5.7 40.3 4.0 41.25 2.7 43.45 -0.6 45.55 0.15 42.5 9.3 39.25 14.55 33.85 22.0 27.7 21.65 27.8 22.85 28.3 23.8 20.25 25.9 16.4 45.4 17.55 46.95 19.25 47.8 22.65 50.45 23.7 54.7 22.75 69.7 8.6 59.95 10.2 63.75 13.0 66.1 12.95 70.65 11.65 73.65 10.1 77.3 6.75 78.65 M16.4 45.4 Q14.7 43.1 14.3 39.15 14.7 43.1 16.4 45.4 M27.7 21.65 Q27.5 19.7 28.25 16.95 27.5 19.7 27.7 21.65 M8.6 59.95 L8.0 58.15 8.6 59.95" fill="#f4ccc1" fill-rule="evenodd" stroke="none"/>
    <path d="M45.55 0.15 Q48.35 1.15 47.25 6.45 M41.25 2.7 Q43.45 -0.6 45.55 0.15" fill="none" stroke="#574a3a" stroke-linecap="round" stroke-linejoin="round" stroke-width="1.2000000000000002"/>
    <path d="M47.25 6.45 L44.35 18.55 Q42.5 25.3 38.95 25.9 31.65 31.95 28.25 45.95 L27.8 46.2 Q22.5 49.0 19.25 47.8 17.55 46.95 16.4 45.4 14.7 43.1 14.3 39.15 12.2 20.5 28.25 16.95 30.55 14.25 33.95 13.15 38.45 10.6 39.45 5.7 40.3 4.0 41.25 2.7 M28.1 46.65 Q27.25 49.4 25.65 50.35 30.65 67.2 22.95 69.85 L23.5 73.65 Q25.25 89.8 13.5 83.2 9.6 81.2 6.75 78.65 4.25 76.35 2.65 73.65 0.7 70.45 0.0 66.65 1.75 61.15 7.75 58.05 L8.0 58.15 7.95 58.0 7.9 58.0 Q4.15 52.2 5.6 45.15 6.0 40.9 14.3 39.15 M27.7 21.65 Q27.8 22.85 28.3 23.8 30.3 27.65 38.95 25.9 M28.25 16.95 Q27.5 19.7 27.7 21.65 M8.6 59.95 Q10.2 63.75 13.0 66.1 16.6 69.05 22.25 69.7 M8.0 58.15 L8.6 59.95" fill="none" stroke="#574a3a" stroke-linecap="round" stroke-linejoin="miter-clip" stroke-miterlimit="3.0" stroke-width="1.2000000000000002"/>
  </g>
</svg>
