<?xml version="1.0" encoding="UTF-8" standalone="no"?>
<svg xmlns:xlink="http://www.w3.org/1999/xlink" height="172.45px" width="81.55px" xmlns="http://www.w3.org/2000/svg">
  <g transform="matrix(1.0, 0.0, 0.0, 1.0, 0.6, 0.6)">
    <path d="M79.1 4.35 L77.0 12.2 Q64.1 42.75 57.95 43.1 52.05 42.6 49.95 48.75 L15.75 149.1 Q18.2 154.85 22.05 154.95 25.85 156.35 10.9 166.4 L0.0 171.25 Q7.8 99.1 38.6 49.1 49.95 37.75 62.1 21.25 L61.55 24.9 79.1 4.35" fill="#6593a6" fill-rule="evenodd" stroke="none"/>
    <path d="M79.1 4.35 L61.55 24.9 62.1 21.25 Q49.95 37.75 38.6 49.1 50.8 29.3 66.55 13.05 L75.4 1.35 Q75.65 3.5 74.85 5.35 77.15 2.75 80.35 0.0 L79.1 4.35" fill="#77a6b8" fill-rule="evenodd" stroke="none"/>
    <path d="M10.9 166.4 Q25.85 156.35 22.05 154.95 18.2 154.85 15.75 149.1 L49.95 48.75 Q52.05 42.6 57.95 43.1 64.1 42.75 77.0 12.2 64.0 62.25 63.45 119.75 60.85 138.05 52.9 147.6 L10.9 166.4 M47.35 135.2 Q53.5 108.8 55.7 56.65 56.85 47.95 52.05 49.7 40.9 92.2 26.1 136.15 17.35 149.9 26.95 142.15 L29.05 139.45 Q31.95 132.1 35.3 126.05 L35.3 129.15 Q38.05 122.55 41.85 116.85 42.7 120.15 42.75 124.6 42.75 126.05 43.2 129.55 43.35 127.0 43.15 125.7 45.2 132.45 47.35 135.2 48.05 137.65 47.85 138.55 L49.1 134.05 47.85 138.55 Q48.05 137.65 47.35 135.2" fill="#5d8595" fill-opacity="0.99607843" fill-rule="evenodd" stroke="none"/>
    <path d="M29.05 139.45 L26.95 142.15 Q17.35 149.9 26.1 136.15 40.9 92.2 52.05 49.7 56.85 47.95 55.7 56.65 53.5 108.8 47.35 135.2 45.2 132.45 43.15 125.7 L42.75 124.6 Q42.7 120.15 41.85 116.85 38.05 122.55 35.3 129.15 L35.3 126.05 Q31.95 132.1 29.05 139.45" fill="url(#gradient0)" fill-rule="evenodd" stroke="none"/>
    <path d="M42.75 124.6 L43.15 125.7 Q43.35 127.0 43.2 129.55 42.75 126.05 42.75 124.6" fill="#656566" fill-rule="evenodd" stroke="none"/>
    <path d="M77.0 12.2 L79.1 4.35 80.35 0.0 Q77.15 2.75 74.85 5.35 75.65 3.5 75.4 1.35 L66.55 13.05 Q50.8 29.3 38.6 49.1 7.8 99.1 0.0 171.25 M77.0 12.2 Q64.0 62.25 63.45 119.75 60.85 138.05 52.9 147.6 M47.35 135.2 Q53.5 108.8 55.7 56.65 56.85 47.95 52.05 49.7 40.9 92.2 26.1 136.15 17.35 149.9 26.95 142.15 L29.05 139.45" fill="none" stroke="#31393d" stroke-linecap="round" stroke-linejoin="round" stroke-width="1.2000000000000002"/>
    <path d="M29.05 139.45 Q31.95 132.1 35.3 126.05 L35.3 129.15 Q38.05 122.55 41.85 116.85 42.7 120.15 42.75 124.6 L43.15 125.7 Q45.2 132.45 47.35 135.2 48.05 137.65 47.85 138.55 L49.1 134.05 M42.75 124.6 Q42.75 126.05 43.2 129.55" fill="none" stroke="#31393d" stroke-linecap="round" stroke-linejoin="miter-clip" stroke-miterlimit="3.0" stroke-width="1.2000000000000002"/>
    <path d="M48.5 134.1 L48.45 134.0 Q48.45 133.4 49.05 133.4 49.65 133.4 49.65 133.95 L49.7 134.35 49.75 135.35 49.95 136.7 50.0 136.9 50.0 137.1 51.15 141.25 51.55 142.15 51.65 142.55 51.6 142.65 51.5 142.6 51.3 142.3 49.75 138.9 49.7 138.7 49.6 138.5 49.2 137.3 48.55 134.65 48.55 134.45 48.5 134.1" fill="#31393d" fill-rule="evenodd" stroke="none"/>
  </g>
  <defs>
    <radialGradient cx="0" cy="0" gradientTransform="matrix(0.0182, 0.004, -0.0177, 0.0816, 41.15, 102.0)" gradientUnits="userSpaceOnUse" id="gradient0" r="819.2" spreadMethod="pad">
      <stop offset="0.3764705882352941" stop-color="#545555"/>
      <stop offset="0.5882352941176471" stop-color="#444444"/>
    </radialGradient>
  </defs>
</svg>
