<?xml version="1.0" encoding="UTF-8" standalone="no"?>
<svg xmlns:xlink="http://www.w3.org/1999/xlink" height="13.9px" width="53.45px" xmlns="http://www.w3.org/2000/svg">
  <g transform="matrix(1.0, 0.0, 0.0, 1.0, -0.85, -7.45)">
    <path d="M27.55 8.3 L27.55 8.25 31.15 7.8 35.1 7.45 38.1 7.75 40.65 8.25 40.55 8.8 40.5 8.85 40.35 8.85 40.25 8.85 34.85 8.5 30.05 8.2 29.6 8.25 29.1 8.3 27.55 8.3" fill="#31393d" fill-rule="evenodd" stroke="none"/>
    <path d="M40.25 8.85 L40.35 8.85 48.5 19.75 Q31.4 21.8 1.35 13.15 L3.05 13.3 Q16.9 14.25 18.3 14.9 19.75 15.6 26.7 14.9 38.4 14.9 41.55 12.7 41.8 11.8 40.25 8.85" fill="#545555" fill-rule="evenodd" stroke="none"/>
    <path d="M34.85 8.5 L40.25 8.85 Q41.8 11.8 41.55 12.7 38.4 14.9 26.7 14.9 19.75 15.6 18.3 14.9 16.9 14.25 3.05 13.3 L1.35 13.15 Q4.55 11.8 5.4 11.55 6.85 10.6 9.75 9.95 L20.4 9.55 34.85 8.5" fill="#656566" fill-rule="evenodd" stroke="none"/>
    <path d="M27.55 8.3 L29.1 8.3 29.6 8.25 30.05 8.2 34.85 8.5 20.4 9.55 9.75 9.95 10.7 9.75 Q16.55 8.55 27.45 8.3 L27.55 8.3" fill="#767677" fill-rule="evenodd" stroke="none"/>
    <path d="M48.4 19.15 Q48.95 19.05 49.05 19.65 49.15 20.2 48.55 20.3 L47.35 20.5 40.35 20.95 37.35 20.95 33.25 20.7 20.0 18.95 5.25 15.5 3.75 15.0 1.65 14.0 1.45 13.85 1.3 13.8 1.15 13.7 0.85 13.2 Q0.85 12.55 1.5 12.55 L2.7 12.6 2.9 12.6 3.1 12.65 4.1 12.75 4.35 12.8 4.5 12.85 4.65 12.85 4.95 12.9 5.25 13.0 5.9 13.1 14.25 15.25 32.4 18.6 40.6 19.25 41.0 19.3 48.4 19.15" fill="#31393d" fill-rule="evenodd" stroke="none"/>
    <path d="M48.5 20.2 Q48.55 19.35 48.2 19.15 50.7 19.35 51.3 19.8 L54.3 21.35 53.65 21.35 Q52.4 20.8 50.65 20.5 L48.5 20.2" fill="#31393d" fill-rule="evenodd" stroke="none"/>
  </g>
</svg>
