<?xml version="1.0" encoding="UTF-8" standalone="no"?>
<svg xmlns:xlink="http://www.w3.org/1999/xlink" height="19.0px" width="55.9px" xmlns="http://www.w3.org/2000/svg">
  <g transform="matrix(1.0, 0.0, 0.0, 1.0, -0.85, -7.75)">
    <path d="M26.7 8.3 L33.8 7.75 37.4 8.1 40.75 8.55 40.6 9.1 40.55 9.15 40.4 9.15 37.65 9.05 32.6 8.8 32.5 8.8 25.2 8.6 24.3 8.6 24.3 8.55 26.7 8.3 M35.0 8.35 L32.6 8.8 35.0 8.35 M51.25 23.6 L52.15 23.6 52.05 24.6 Q48.2 25.25 45.4 26.2 L40.55 26.75 Q32.35 26.75 24.1 24.25 13.35 20.95 0.85 13.05 L1.15 12.65 2.25 12.8 2.3 12.8 4.85 13.65 Q13.2 17.6 26.1 22.5 33.15 24.85 44.35 24.85 L51.25 23.6" fill="#31393d" fill-rule="evenodd" stroke="none"/>
    <path d="M4.85 13.65 L2.3 12.8 2.25 12.8 5.4 11.55 Q7.35 10.6 15.15 9.45 L15.8 9.35 21.5 9.5 25.5 9.25 31.65 9.75 Q37.4 10.25 37.65 9.05 L40.4 9.15 42.5 16.85 Q42.5 19.0 37.3 19.0 30.45 19.0 18.55 16.6 L4.85 13.65" fill="#656566" fill-rule="evenodd" stroke="none"/>
    <path d="M51.25 23.6 L44.35 24.85 Q33.15 24.85 26.1 22.5 13.2 17.6 4.85 13.65 L18.55 16.6 Q30.45 19.0 37.3 19.0 42.5 19.0 42.5 16.85 L40.4 9.15 40.55 9.15 51.25 23.6" fill="#545555" fill-rule="evenodd" stroke="none"/>
    <path d="M26.7 8.3 L24.3 8.55 24.3 8.6 25.2 8.6 32.5 8.8 32.6 8.8 37.65 9.05 Q37.4 10.25 31.65 9.75 L25.5 9.25 21.5 9.5 15.8 9.35 26.7 8.3" fill="#767677" fill-rule="evenodd" stroke="none"/>
    <path d="M32.5 8.8 L32.6 8.8 35.0 8.35 M37.65 9.05 L32.6 8.8" fill="none" stroke="#31393d" stroke-linecap="round" stroke-linejoin="round" stroke-width="0.05"/>
    <path d="M50.85 24.75 Q50.65 23.95 50.25 23.85 L53.4 23.65 56.75 24.35 56.1 24.5 Q54.75 24.35 52.95 24.5 L50.85 24.75" fill="#31393d" fill-rule="evenodd" stroke="none"/>
  </g>
</svg>
