<?xml version="1.0" encoding="UTF-8" standalone="no"?>
<svg xmlns:xlink="http://www.w3.org/1999/xlink" height="28.5px" width="31.35px" xmlns="http://www.w3.org/2000/svg">
  <g transform="matrix(1.0, 0.0, 0.0, 1.0, 0.0, 0.0)">
    <path d="M17.65 0.5 L19.25 0.9 Q25.4 2.85 29.8 8.6 33.05 16.15 29.55 23.35 21.5 28.75 12.0 28.5 7.45 27.6 3.5 23.8 -4.0 10.2 4.55 1.05 L4.9 0.95 5.1 1.0 Q11.05 -0.5 16.05 0.2 L16.45 0.25 17.65 0.5 M9.8 7.1 Q10.1 4.2 7.6 4.25 5.15 4.25 4.7 8.5 4.4 11.8 6.85 12.1 8.65 12.3 9.35 10.0 L9.8 7.1" fill="#422b14" fill-rule="evenodd" stroke="none"/>
    <path d="M9.8 7.1 L9.35 10.0 Q8.65 12.3 6.85 12.1 4.4 11.8 4.7 8.5 5.15 4.25 7.6 4.25 10.1 4.2 9.8 7.1" fill="#ffffff" fill-rule="evenodd" stroke="none"/>
    <path d="M17.25 26.0 L17.15 25.95 17.2 25.85 17.35 25.8 17.5 25.7 17.65 25.7 17.75 25.65 18.05 25.6 18.7 25.35 20.65 24.8 20.75 24.75 21.0 24.7 21.55 24.5 21.8 24.45 23.0 24.0 23.1 23.95 24.4 23.45 24.65 23.3 24.9 23.2 26.8 22.15 26.95 22.0 27.15 21.9 27.75 21.5 27.85 21.4 27.95 21.35 28.05 21.25 28.15 21.2 28.3 21.1 28.4 21.0 28.5 21.0 28.55 21.15 28.3 21.65 28.2 21.75 28.15 21.9 27.85 22.35 27.55 22.65 27.4 22.85 27.35 22.95 27.25 23.0 27.1 23.2 26.9 23.4 26.8 23.45 26.7 23.55 25.8 24.25 25.7 24.3 24.8 24.85 22.5 25.75 22.2 25.8 21.9 25.9 21.3 26.0 18.8 26.2 18.4 26.15 18.05 26.15 17.8 26.1 17.65 26.1 17.55 26.05 17.4 26.05 17.25 26.0" fill="#ffffff" fill-rule="evenodd" stroke="none"/>
  </g>
</svg>
