<?xml version="1.0" encoding="UTF-8" standalone="no"?>
<svg xmlns:xlink="http://www.w3.org/1999/xlink" height="139.65px" width="113.95px" xmlns="http://www.w3.org/2000/svg">
  <g transform="matrix(1.0, 0.0, 0.0, 1.0, -13.85, 180.65)">
    <path d="M122.25 -151.7 Q123.7 -145.9 125.05 -135.55 127.6 -114.3 127.25 -98.3 127.1 -87.6 121.15 -65.8 L115.35 -46.05 94.75 -41.5 Q96.3 -70.0 87.3 -94.45 110.3 -103.45 102.3 -154.15 L103.7 -152.0 Q108.2 -144.55 112.0 -134.45 L111.7 -129.95 110.2 -108.1 Q123.5 -117.25 122.25 -151.7" fill="#dd7e8f" fill-rule="evenodd" stroke="none"/>
    <path d="M111.7 -129.95 L112.4 -138.2 112.45 -138.45 112.45 -138.95 112.65 -140.05 Q114.8 -158.1 117.8 -158.9 120.2 -159.55 122.25 -151.75 L122.25 -151.7 Q123.5 -117.25 110.2 -108.1 L111.7 -129.95 M87.3 -94.45 Q77.55 -120.6 55.8 -141.95 50.8 -146.95 44.85 -151.95 43.9 -168.85 28.2 -179.75 36.9 -180.6 53.4 -179.7 75.2 -178.5 87.25 -169.0 97.5 -160.9 102.3 -154.15 110.3 -103.45 87.3 -94.45" fill="#ed99ac" fill-rule="evenodd" stroke="none"/>
    <path d="M44.85 -151.95 Q36.75 -158.5 27.05 -165.1 14.15 -173.75 14.45 -174.9 15.25 -177.0 23.45 -178.9 L28.2 -179.75 Q43.9 -168.85 44.85 -151.95" fill="#f7bec4" fill-rule="evenodd" stroke="none"/>
    <path d="M94.75 -41.5 Q96.3 -70.0 87.3 -94.45 77.55 -120.6 55.8 -141.95 50.8 -146.95 44.85 -151.95 36.75 -158.5 27.05 -165.1 14.15 -173.75 14.45 -174.9 15.25 -177.0 23.45 -178.9 L28.2 -179.75 Q36.9 -180.6 53.4 -179.7 75.2 -178.5 87.25 -169.0 97.5 -160.9 102.3 -154.15" fill="none" stroke="#000000" stroke-linecap="butt" stroke-linejoin="miter-clip" stroke-miterlimit="3.0" stroke-width="1.0"/>
    <path d="M112.45 -138.95 L112.65 -140.05 Q114.8 -158.1 117.8 -158.9 120.2 -159.55 122.25 -151.75 L122.25 -151.7 Q123.7 -145.9 125.05 -135.55 127.6 -114.3 127.25 -98.3 127.1 -87.6 121.15 -65.8 L115.35 -46.05 M111.7 -129.95 L109.6 -98.9" fill="none" stroke="#000000" stroke-linecap="round" stroke-linejoin="miter-clip" stroke-miterlimit="3.0" stroke-width="1.0"/>
    <path d="M102.3 -154.15 L103.7 -152.0 Q108.2 -144.55 112.0 -134.45" fill="none" stroke="#000000" stroke-linecap="butt" stroke-linejoin="miter-clip" stroke-miterlimit="3.0" stroke-width="1.0"/>
    <path d="M112.0 -134.45 L112.25 -137.2 112.35 -137.4 112.35 -138.1 112.45 -138.95 112.45 -138.45 112.4 -138.25 112.4 -138.2 112.4 -137.75 112.35 -137.4 111.7 -129.95 112.0 -134.45 M112.35 -138.1 L112.4 -138.2 M112.4 -138.25 L112.45 -138.95 M112.4 -137.75 L112.35 -138.1" fill="none" stroke="#000000" stroke-linecap="round" stroke-linejoin="miter-clip" stroke-miterlimit="3.0" stroke-width="1.0"/>
  </g>
</svg>
