<?xml version="1.0" encoding="UTF-8" standalone="no"?>
<svg xmlns:xlink="http://www.w3.org/1999/xlink" height="188.15px" width="88.95px" xmlns="http://www.w3.org/2000/svg">
  <g transform="matrix(1.0, 0.0, 0.0, 1.0, -44.25, -57.6)">
    <path d="M64.75 58.95 Q92.95 53.1 127.95 72.55 L125.0 100.25 Q122.15 129.4 122.9 137.0 123.4 142.45 126.05 149.8 L127.8 154.25 127.95 154.65 132.65 166.35 Q133.2 168.95 122.7 193.0 119.35 193.5 115.55 194.5 L112.5 195.45 Q109.4 196.35 107.0 197.5 L108.5 193.3 Q117.4 166.65 108.05 155.15 L91.7 137.9 Q82.9 129.1 74.1 116.65 64.35 102.85 63.6 79.5 63.4 72.25 64.05 64.9 L64.75 58.95 M120.6 154.2 L121.65 156.0 Q125.5 161.9 125.35 163.3 125.5 161.9 121.65 156.0 L120.6 154.2" fill="#f5e9eb" fill-rule="evenodd" stroke="none"/>
    <path d="M96.7 179.55 Q102.25 164.75 100.6 159.6 99.25 155.2 94.45 151.15 L83.9 144.2 Q66.85 133.65 59.75 123.4 51.1 110.85 47.05 87.65 45.85 80.35 45.1 72.85 L44.75 66.85 Q54.2 61.15 64.75 58.95 L64.05 64.9 Q63.4 72.25 63.6 79.5 64.35 102.85 74.1 116.65 82.9 129.1 91.7 137.9 L108.05 155.15 Q117.4 166.65 108.5 193.3 L107.0 197.5 Q103.55 199.1 101.45 201.1 100.8 195.35 99.4 189.05 98.15 183.25 96.7 179.55" fill="#eccdd2" fill-rule="evenodd" stroke="none"/>
    <path d="M76.8 213.9 Q77.1 212.9 80.05 211.35 L82.5 210.2 87.7 199.8 Q93.45 188.05 96.7 179.55 98.15 183.25 99.4 189.05 100.8 195.35 101.45 201.1 103.55 199.1 107.0 197.5 103.8 205.65 99.65 212.9 L96.8 217.4 94.45 220.55 94.45 220.6 Q94.45 221.15 93.85 221.35 92.85 221.6 91.95 221.95 L90.6 221.95 87.65 222.75 85.8 223.0 Q80.05 223.55 77.8 221.25 L77.25 220.55 Q76.65 219.6 76.45 218.25 76.25 217.3 76.35 216.25 L76.7 214.35 76.8 214.25 76.75 214.1 76.8 213.9" fill="#dd7e8f" fill-rule="evenodd" stroke="none"/>
    <path d="M122.7 193.0 L109.9 221.0 109.95 221.3 Q109.95 224.0 107.55 225.95 L104.95 228.65 104.1 229.6 104.5 229.85 89.9 240.25 Q87.1 242.45 82.25 243.8 79.1 244.8 75.95 245.1 69.05 245.9 67.0 242.55 65.55 240.15 65.85 238.0 L66.2 236.85 64.85 235.9 Q63.5 234.7 63.2 233.0 62.9 231.3 63.85 229.15 L64.25 228.5 63.15 227.85 Q61.9 227.1 61.5 225.7 61.1 224.1 62.35 222.15 63.65 220.2 65.35 219.4 L73.75 214.75 76.05 213.45 76.8 213.9 76.75 214.1 76.8 214.25 76.7 214.35 76.35 216.25 Q76.25 217.3 76.45 218.25 76.65 219.6 77.25 220.55 L77.8 221.25 Q80.05 223.55 85.8 223.0 L87.65 222.75 90.6 221.95 91.95 221.95 Q92.85 221.6 93.85 221.35 94.45 221.15 94.45 220.6 L94.45 220.55 96.8 217.4 99.65 212.9 Q103.8 205.65 107.0 197.5 109.4 196.35 112.5 195.45 L115.55 194.5 Q119.35 193.5 122.7 193.0" fill="#ed99ac" fill-rule="evenodd" stroke="none"/>
    <path d="M96.7 179.55 Q98.15 183.25 99.4 189.05 100.8 195.35 101.45 201.1 103.55 199.1 107.0 197.5 109.4 196.35 112.5 195.45 L115.55 194.5 Q119.35 193.5 122.7 193.0 M125.35 163.3 Q125.5 161.9 121.65 156.0 L120.6 154.2" fill="none" stroke="#000000" stroke-linecap="butt" stroke-linejoin="miter-clip" stroke-miterlimit="3.0" stroke-width="1.0"/>
    <path d="M110.25 220.15 L110.4 220.15 Q110.75 220.3 110.75 220.7 110.75 221.7 110.2 223.45 109.7 225.1 109.2 225.8 L106.45 228.8 Q104.5 230.6 104.1 230.6 L103.75 230.4 103.7 230.35 103.65 230.1 105.7 227.95 108.65 224.75 109.15 223.4 109.5 222.05 Q109.55 221.05 109.75 220.6 109.95 220.1 110.25 220.15 M74.2 214.45 L74.05 214.1 Q74.05 213.85 76.85 212.2 L80.1 210.35 82.8 208.0 84.2 206.9 Q84.8 206.55 84.8 207.0 84.8 207.65 83.1 209.15 L80.95 211.05 Q76.1 214.55 74.65 214.55 L74.2 214.45" fill="#000000" fill-rule="evenodd" stroke="none"/>
    <path d="M84.2 206.9 L87.7 199.8 Q95.0 184.75 98.35 175.0 101.95 163.9 100.6 159.6 99.25 155.2 94.45 151.15 L83.9 144.2 Q66.85 133.65 59.75 123.4 51.1 110.85 47.05 87.65 45.85 80.35 45.1 72.85 L44.75 66.85 M127.95 72.55 L125.0 100.25 Q122.15 129.4 122.9 137.0 123.4 142.45 126.05 149.8 L127.8 154.25 127.95 154.65 132.65 166.35 Q133.2 168.9 123.55 191.0 L110.25 220.15 M103.75 230.4 L89.9 240.25 Q87.1 242.45 82.25 243.8 79.1 244.8 75.95 245.1 69.05 245.9 67.0 242.55 65.55 240.15 65.85 238.0 L66.2 236.85 64.85 235.9 Q63.5 234.7 63.2 233.0 62.9 231.3 63.85 229.15 L64.25 228.5 63.15 227.85 Q61.9 227.1 61.5 225.7 61.1 224.1 62.35 222.15 63.65 220.2 65.35 219.4 68.6 217.75 73.75 214.7 L74.2 214.45 M67.25 226.3 Q65.25 226.8 64.25 228.5 M66.2 236.85 Q66.9 235.3 68.5 234.55" fill="none" stroke="#000000" stroke-linecap="butt" stroke-linejoin="miter-clip" stroke-miterlimit="3.0" stroke-width="1.0"/>
  </g>
</svg>
