<?xml version="1.0" encoding="UTF-8" standalone="no"?>
<svg xmlns:xlink="http://www.w3.org/1999/xlink" height="331.25px" width="247.15px" xmlns="http://www.w3.org/2000/svg">
  <g transform="matrix(1.0, 0.0, 0.0, 1.0, 131.4, 85.45)">
    <path d="M66.95 -84.95 L67.05 -55.05 66.95 -84.95 67.35 -84.95 67.05 -56.45 67.05 -55.05 67.05 -53.7 67.05 -45.55 67.6 -33.65 70.25 -15.7 70.35 -15.2 70.25 -15.7 70.35 -15.25 70.35 -15.2 70.5 -14.75 70.5 -14.6 75.4 5.85 79.9 25.95 81.15 31.55 Q81.2 34.55 85.8 42.95 L88.35 49.75 Q90.35 55.5 90.95 60.05 L93.2 69.35 93.5 70.05 94.0 71.25 94.05 71.4 95.95 77.35 94.05 71.4 95.0 73.7 Q95.85 75.95 95.95 77.35 L97.9 83.35 101.15 93.55 97.9 83.35 100.05 88.65 Q101.0 91.3 101.15 93.55 L105.15 106.25 104.8 106.65 106.7 111.35 109.0 117.2 Q105.45 112.05 104.1 110.6 L102.45 109.05 101.9 109.8 Q101.65 110.25 101.65 110.9 101.65 111.55 103.55 114.3 L107.05 119.4 Q98.15 125.3 92.15 127.8 84.05 131.15 75.6 131.15 68.9 131.15 65.65 117.8 64.65 113.65 63.9 107.95 L63.2 102.1 55.4 104.8 Q61.85 115.05 61.85 116.05 61.85 117.8 60.45 118.9 59.3 119.75 57.95 119.75 53.5 119.75 50.5 115.95 L46.0 108.25 31.4 113.9 Q13.2 92.05 5.05 77.7 L-1.5 66.0 Q-5.8 58.7 -12.05 50.2 -15.1 43.85 -18.0 38.55 -23.65 28.25 -30.85 22.3 -36.65 17.5 -48.85 5.55 -63.8 -9.15 -66.4 -14.1 -74.7 -29.75 -77.15 -46.95 -78.9 -59.45 -79.6 -62.9 -81.6 -73.4 -85.5 -84.95 L66.95 -84.95 M85.8 42.95 Q90.45 57.2 90.95 60.05 90.45 57.2 85.8 42.95" fill="#ecdbc9" fill-rule="evenodd" stroke="none"/>
    <path d="M31.4 113.9 L46.0 108.25 50.5 115.95 Q53.5 119.75 57.95 119.75 59.3 119.75 60.45 118.9 61.85 117.8 61.85 116.05 61.85 115.05 55.4 104.8 L63.2 102.1 63.9 107.95 Q64.65 113.65 65.65 117.8 68.9 131.15 75.6 131.15 84.05 131.15 92.15 127.8 98.15 125.3 107.05 119.4 L103.55 114.3 Q101.65 111.55 101.65 110.9 101.65 110.25 101.9 109.8 L102.45 109.05 104.1 110.6 Q105.45 112.05 109.0 117.2 L109.85 118.65 Q111.1 120.65 111.85 123.45 L113.3 129.5 115.15 136.85 115.25 138.1 115.2 139.4 115.1 140.0 115.25 141.9 Q115.25 151.4 111.9 171.35 110.2 181.3 108.5 189.35 L105.95 197.4 104.8 202.4 103.0 206.65 100.5 214.4 99.0 217.35 Q96.3 223.35 89.45 234.3 83.35 243.95 82.2 245.05 L81.75 245.3 81.25 245.55 80.05 245.8 Q70.05 240.55 59.45 227.2 38.3 200.55 34.9 160.0 L34.55 155.0 Q34.55 154.1 39.7 149.85 44.8 145.6 44.8 144.55 44.8 141.75 40.45 132.75 L31.4 113.9 M103.0 206.65 L105.95 197.4 103.0 206.65 M113.3 129.5 L109.85 118.65 113.3 129.5 M115.2 139.4 L115.15 136.85 115.2 139.4" fill="#ebdac8" fill-rule="evenodd" stroke="none"/>
    <path d="M-85.5 -84.95 Q-81.6 -73.4 -79.6 -62.9 -78.9 -59.45 -77.15 -46.95 -74.7 -29.75 -66.4 -14.1 -63.8 -9.15 -48.85 5.55 -36.65 17.5 -30.85 22.3 -23.65 28.25 -18.0 38.55 -15.1 43.85 -12.05 50.2 -5.8 58.7 -1.5 66.0 L5.05 77.7 Q13.2 92.05 31.4 113.9 L40.45 132.75 Q44.8 141.75 44.8 144.55 44.8 145.6 39.7 149.85 34.55 154.1 34.55 155.0 L34.9 160.0 12.7 158.15 Q4.95 158.15 -11.45 164.45 -33.85 173.1 -47.35 176.55 L-50.35 176.55 Q-50.1 176.45 -50.1 175.45 -50.1 173.65 -55.85 159.8 L-55.9 159.65 -56.8 156.85 -55.9 159.65 -57.2 157.1 -56.8 156.85 -57.05 146.65 -57.05 146.6 Q-56.9 143.5 -58.0 139.95 L-59.4 136.1 -58.0 139.95 Q-56.9 143.5 -57.05 146.6 -57.0 145.2 -59.4 136.1 L-59.45 136.0 -61.65 129.2 -63.15 124.15 -63.35 123.3 -66.45 109.05 -63.35 123.3 Q-66.85 110.25 -66.45 109.05 L-66.35 109.2 -66.3 108.75 Q-66.3 107.6 -67.2 105.55 L-67.95 102.65 -71.15 93.65 -67.95 102.65 -67.2 105.55 -69.1 99.9 -71.15 93.65 -72.55 85.25 Q-72.7 83.0 -74.15 73.85 -75.9 62.85 -77.6 54.65 L-87.5 17.8 Q-93.85 -2.9 -95.9 -8.6 -100.55 -21.25 -107.7 -33.75 L-116.0 -45.6 -116.95 -47.4 Q-118.1 -50.6 -120.6 -56.35 L-127.45 -79.0 -128.25 -84.05 -128.35 -84.95 -85.5 -84.95 M-89.6 -10.25 L-107.7 -33.75 -89.6 -10.25 M-59.9 84.55 L-56.45 102.1 -51.15 125.3 -56.45 102.1 -59.9 84.55" fill="#e2cdbf" fill-rule="evenodd" stroke="none"/>
    <path d="M-129.5 -81.45 L-130.65 -83.7 -130.9 -84.95 -128.4 -84.95 -128.35 -84.95 -128.25 -84.05 -128.4 -84.95 -128.25 -84.05 -127.45 -79.0 -128.15 -79.0 -128.4 -79.45 -128.65 -80.1 -129.5 -81.45" fill="#e4a7a3" fill-rule="evenodd" stroke="none"/>
    <path d="M-72.55 85.25 L-71.15 93.65 -67.95 102.65 -67.2 105.55 -66.45 109.05 -63.35 123.3 -63.15 124.15 -62.2 128.05 Q-61.05 132.25 -59.45 136.0 L-59.4 136.1 -58.0 139.95 Q-56.9 143.5 -57.05 146.6 L-57.05 146.65 -56.8 156.85 -55.9 159.65 -55.85 159.8 -52.8 168.85 M-77.6 54.65 L-72.55 85.25 M-77.6 54.65 L-87.5 17.8" fill="none" stroke="#000000" stroke-linecap="round" stroke-linejoin="round" stroke-width="1.25"/>
    <path d="M67.05 -55.05 L66.95 -84.95 M105.15 106.25 L101.15 93.55 97.9 83.35 95.95 77.35 94.05 71.4 94.0 71.25 93.5 70.05 M93.2 69.35 L90.95 60.05 Q90.45 57.2 85.8 42.95 L81.15 31.55 79.9 25.95 75.4 5.85 70.5 -14.6 70.5 -14.75 70.35 -15.25 M70.35 -15.2 L70.25 -15.7 67.6 -33.65 67.05 -45.55 67.05 -53.7 67.05 -55.05 M-129.5 -81.45 L-130.65 -83.7 -130.9 -84.95 M-128.4 -84.95 L-128.25 -84.05 -127.45 -79.0 -120.6 -56.35 Q-118.1 -50.6 -116.95 -47.4 L-116.0 -45.6 -107.7 -33.75 -89.6 -10.25 M-128.15 -79.0 L-127.45 -77.7 M-129.5 -81.45 L-128.4 -79.45 -128.15 -79.0 M-87.5 17.8 Q-93.85 -2.9 -95.9 -8.6 -100.55 -21.25 -107.7 -33.75 M-116.0 -45.6 L-114.55 -42.8 M-51.15 125.3 L-56.45 102.1 -59.9 84.55 M109.85 118.65 Q108.2 114.1 104.8 106.65 M113.3 129.5 L115.15 136.85 115.2 139.4 115.25 141.9 Q115.25 151.4 111.9 171.35 110.2 181.3 108.5 189.35 L105.95 197.4 103.0 206.65 100.5 214.4 99.0 217.35 Q96.3 223.35 89.45 234.3 83.35 243.95 82.2 245.05 L81.75 245.3 M109.85 118.65 L113.3 129.5" fill="none" stroke="#000000" stroke-linecap="round" stroke-linejoin="round" stroke-width="1.0"/>
  </g>
</svg>
