<?xml version="1.0" encoding="UTF-8" standalone="no"?>
<svg xmlns:xlink="http://www.w3.org/1999/xlink" height="361.4px" width="165.7px" xmlns="http://www.w3.org/2000/svg">
  <g transform="matrix(1.0, 0.0, 0.0, 1.0, 73.9, 211.9)">
    <path d="M47.8 -176.9 L40.65 -183.7 Q43.8 -183.7 46.0 -182.05 48.2 -180.45 48.2 -178.15 47.7 -177.5 47.8 -176.9" fill="#2d2c2a" fill-rule="evenodd" stroke="none"/>
    <path d="M-13.7 -211.9 L-5.95 -211.2 Q-2.65 -210.1 0.9 -205.7 L4.6 -199.9 7.6 -194.6 Q9.05 -191.2 11.35 -188.55 L14.65 -184.55 Q14.55 -184.1 23.35 -183.0 L32.95 -181.95 40.65 -183.7 47.8 -176.9 Q61.75 -157.55 67.2 -147.1 L74.7 -132.55 Q80.8 -119.75 80.8 -114.85 L81.9 -101.05 82.25 -93.45 Q82.25 -71.7 78.6 -56.6 75.4 -43.4 65.5 -20.8 67.8 -22.15 73.0 -32.8 78.35 -43.65 77.95 -46.95 83.6 -23.75 89.95 18.25 L88.65 22.15 90.25 30.4 Q91.8 38.8 91.8 44.5 91.8 58.55 89.55 108.7 L86.6 126.05 -5.7 136.7 Q-7.7 132.2 -13.45 109.45 -19.7 84.8 -25.7 56.55 -41.95 -20.0 -41.95 -52.7 -41.95 -75.85 -35.6 -90.75 -31.3 -100.85 -21.6 -111.0 -10.4 -122.75 -7.6 -127.4 -1.25 -138.05 -1.25 -153.95 -1.25 -175.9 -5.8 -191.55 -8.25 -200.15 -12.95 -210.35 L-12.2 -210.95 -13.45 -211.5 -13.7 -211.9" fill="#ecdcca" fill-rule="evenodd" stroke="none"/>
    <path d="M80.8 -114.85 Q80.8 -119.75 74.7 -132.55 L67.2 -147.1 Q61.75 -157.55 47.8 -176.9 47.7 -177.5 48.2 -178.15 62.2 -162.6 73.4 -137.35 77.0 -129.3 79.8 -121.3 L82.05 -114.35 81.3 -114.5 80.8 -114.85" fill="#3f382f" fill-rule="evenodd" stroke="none"/>
    <path d="M89.95 18.25 Q83.6 -23.75 77.95 -46.95 78.35 -43.65 73.0 -32.8 67.8 -22.15 65.5 -20.8 75.4 -43.4 78.6 -56.6 82.25 -71.7 82.25 -93.45 L81.9 -101.05 80.8 -114.85 81.3 -114.5 82.05 -114.35 83.25 -103.25 Q84.05 -94.7 84.05 -91.7 84.05 -72.8 81.3 -61.5 80.45 -57.95 79.4 -55.55 L78.55 -53.85 Q82.5 -37.35 85.9 -20.4 92.65 13.35 89.95 18.25" fill="#312e29" fill-rule="evenodd" stroke="none"/>
    <path d="M86.6 126.05 L89.55 108.7 Q88.7 117.25 88.35 126.05 L86.6 126.05" fill="#666057" fill-rule="evenodd" stroke="none"/>
    <path d="M-13.7 -211.9 L-13.45 -211.5 -12.95 -210.35 Q-8.25 -200.15 -5.8 -191.55 -1.25 -175.9 -1.25 -153.95 -1.25 -138.05 -7.6 -127.4 -10.4 -122.75 -21.6 -111.0 -31.3 -100.85 -35.6 -90.75 -41.95 -75.85 -41.95 -52.7 -41.95 -20.0 -25.7 56.55 -19.7 84.8 -13.45 109.45 -7.7 132.2 -5.7 136.7 -5.9 143.1 -16.2 147.0 -26.5 150.9 -37.9 148.75 -39.85 129.05 -40.35 125.85 L-47.65 87.35 -51.6 62.35 -47.65 87.35 Q-48.6 83.25 -50.2 72.6 L-51.6 62.35 -51.65 61.8 -52.25 51.85 Q-52.45 46.4 -55.25 25.2 L-58.9 -1.45 Q-59.5 -6.15 -60.5 -18.75 L-61.7 -33.1 -64.0 -55.05 -64.75 -61.95 -64.75 -62.05 -64.75 -62.1 -64.9 -63.4 -65.95 -72.55 -64.9 -63.4 -65.3 -66.15 -65.95 -72.55 -66.2 -76.7 -66.75 -79.25 -68.4 -93.3 -66.75 -79.25 Q-68.3 -82.85 -68.3 -85.5 L-68.4 -93.3 -68.85 -98.45 -69.2 -100.55 Q-69.75 -103.85 -69.75 -107.5 -69.75 -117.4 -68.95 -126.1 L-68.95 -126.2 -68.2 -135.7 -67.25 -146.85 -63.5 -152.4 -59.8 -157.65 -57.9 -164.7 Q-56.0 -171.8 -56.0 -172.8 L-49.45 -181.4 Q-42.85 -190.15 -42.9 -190.95 -41.9 -195.7 -30.25 -204.0 -18.7 -212.2 -13.7 -211.9 M-68.85 -98.45 Q-69.7 -109.8 -68.95 -126.1 -69.7 -109.8 -68.85 -98.45 M-73.8 -91.6 L-73.7 -91.25 Q-73.7 -90.9 -73.8 -90.85 L-73.8 -91.6" fill="#e2cdbf" fill-rule="evenodd" stroke="none"/>
    <path d="M-68.95 -126.2 L-68.95 -126.1 Q-69.7 -109.8 -68.85 -98.45 L-68.4 -93.3 -66.75 -79.25 -65.95 -72.55 -64.9 -63.4 -64.75 -62.1 -64.75 -62.05 -64.75 -61.95 -64.0 -55.05 -61.7 -33.1 M-58.9 -1.45 L-55.25 25.2 Q-52.45 46.4 -52.25 51.85 L-51.65 61.8 -51.6 62.35 -47.65 87.35 -37.9 148.75 M-67.25 -150.4 Q-68.45 -137.2 -68.95 -126.2 M-62.05 -32.6 Q-59.95 -8.25 -58.9 -1.45" fill="none" stroke="#000000" stroke-linecap="round" stroke-linejoin="round" stroke-width="1.25"/>
  </g>
</svg>
