<?xml version="1.0" encoding="UTF-8" standalone="no"?>
<svg xmlns:xlink="http://www.w3.org/1999/xlink" height="80.4px" width="133.45px" xmlns="http://www.w3.org/2000/svg">
  <g transform="matrix(1.0, 0.0, 0.0, 1.0, -133.1, 35.75)">
    <path d="M182.4 3.65 Q181.15 1.5 178.45 -1.05 172.95 -6.2 165.35 -8.4 157.65 -10.55 147.25 -10.1 L138.3 -9.25 133.6 -30.15 135.65 -29.8 Q143.25 -29.05 154.65 -31.8 L154.7 -31.85 170.45 -35.2 171.15 -35.25 Q172.45 -35.25 178.7 -31.7 L178.7 -31.6 Q178.75 -29.25 179.65 -26.1 181.4 -19.7 185.45 -15.9 189.2 -12.55 210.75 -4.0 212.25 7.2 216.3 11.8 L204.65 11.05 Q199.75 10.9 196.5 11.15 188.75 6.6 182.4 3.65" fill="#f5e9eb" fill-rule="evenodd" stroke="none"/>
    <path d="M138.3 -9.25 L147.25 -10.1 Q157.65 -10.55 165.35 -8.4 172.95 -6.2 178.45 -1.05 181.15 1.5 182.4 3.65 173.7 -0.5 169.45 -0.5 L167.95 -0.5 157.4 1.1 150.5 3.4 142.15 7.8 138.3 -9.25" fill="#eccdd2" fill-rule="evenodd" stroke="none"/>
    <path d="M210.75 -4.0 Q189.2 -12.55 185.45 -15.9 181.4 -19.7 179.65 -26.1 178.75 -29.25 178.7 -31.6 L178.7 -31.7 184.2 -28.4 Q198.1 -19.9 202.75 -17.6 L210.05 -14.2 Q210.1 -9.95 210.6 -4.95 L210.75 -4.0" fill="#f7f8fa" fill-rule="evenodd" stroke="none"/>
    <path d="M210.05 -14.2 L234.15 -3.5 Q246.6 2.1 253.15 5.45 253.25 6.5 252.95 7.55 252.4 9.6 250.65 9.9 248.05 10.25 219.45 -0.65 214.75 -2.35 210.75 -4.0 L210.6 -4.95 Q210.1 -9.95 210.05 -14.2 M266.05 24.0 L265.75 27.5 Q265.25 30.6 259.25 30.6 L258.9 30.5 258.35 30.5 258.15 30.45 253.5 30.0 Q260.9 28.8 266.05 24.0 M258.4 33.5 L258.3 33.9 Q257.3 37.55 255.3 38.5 253.9 39.3 251.4 39.05 L251.3 39.05 249.45 38.7 248.05 38.25 247.65 38.2 245.75 37.6 251.25 37.05 Q255.0 35.95 258.4 33.5 M251.0 41.35 L250.25 42.6 Q248.8 43.85 247.0 44.15 244.75 44.4 242.9 42.8 L242.65 42.5 242.95 42.8 Q247.55 43.25 251.0 41.35" fill="#f7bec4" fill-rule="evenodd" stroke="none"/>
    <path d="M196.5 11.15 Q199.75 10.9 204.65 11.05 L216.3 11.8 Q212.25 7.2 210.75 -4.0 214.75 -2.35 219.45 -0.65 248.05 10.25 250.65 9.9 252.4 9.6 252.95 7.55 253.25 6.5 253.15 5.45 259.1 8.45 260.05 9.65 265.8 16.95 266.1 23.9 L266.05 24.0 Q260.9 28.8 253.5 30.0 L258.15 30.45 258.35 30.5 258.9 30.5 258.5 33.45 258.4 33.5 Q255.0 35.95 251.25 37.05 L245.75 37.6 247.65 38.2 248.05 38.25 249.45 38.7 251.3 39.05 251.4 39.05 251.4 39.2 251.1 41.3 251.0 41.35 Q247.55 43.25 242.95 42.8 L242.65 42.5 232.7 35.15 232.85 35.0 Q237.0 30.45 232.0 26.95 218.6 20.75 207.5 17.95 201.65 14.2 196.5 11.15" fill="#ed99ac" fill-rule="evenodd" stroke="none"/>
    <path d="M232.7 35.15 L217.85 24.75 207.5 17.95 Q218.6 20.75 232.0 26.95 237.0 30.45 232.85 35.0 L232.7 35.15" fill="#dd7e8f" fill-rule="evenodd" stroke="none"/>
    <path d="M196.5 11.15 Q199.75 10.9 204.65 11.05 L216.3 11.8 Q212.25 7.2 210.75 -4.0 L210.6 -4.95 Q210.1 -9.95 210.05 -14.2" fill="none" stroke="#000000" stroke-linecap="butt" stroke-linejoin="miter-clip" stroke-miterlimit="3.0" stroke-width="1.0"/>
    <path d="M133.6 -30.15 Q141.55 -28.65 154.7 -31.85 169.25 -35.35 171.15 -35.25 172.85 -35.25 184.2 -28.4 198.1 -19.9 202.75 -17.6 208.1 -15.0 234.15 -3.5 258.15 7.2 260.05 9.65 267.3 18.85 265.8 27.5 265.3 30.6 259.35 30.6 L258.9 30.5" fill="none" stroke="#000000" stroke-linecap="butt" stroke-linejoin="miter-clip" stroke-miterlimit="3.0" stroke-width="1.0"/>
    <path d="M258.9 30.5 L258.35 33.9 Q257.35 37.5 255.35 38.5 253.95 39.25 251.4 39.05" fill="none" stroke="#000000" stroke-linecap="round" stroke-linejoin="miter-clip" stroke-miterlimit="3.0" stroke-width="1.0"/>
    <path d="M251.4 39.05 L251.4 39.2 Q251.25 41.65 250.3 42.55 248.9 43.85 247.05 44.1 244.8 44.4 242.95 42.8 236.9 37.1 210.9 20.25 179.1 -0.45 169.45 -0.5 159.9 -0.55 150.1 3.65 L142.15 7.8 M258.9 30.5 L253.5 30.0 M251.4 39.05 L249.45 38.7 245.75 37.6" fill="none" stroke="#000000" stroke-linecap="round" stroke-linejoin="miter-clip" stroke-miterlimit="3.0" stroke-width="1.0"/>
  </g>
</svg>
