<?xml version="1.0" encoding="UTF-8" standalone="no"?>
<svg xmlns:xlink="http://www.w3.org/1999/xlink" height="37.05px" width="51.7px" xmlns="http://www.w3.org/2000/svg">
  <g transform="matrix(1.0, 0.0, 0.0, 1.0, -5.4, 38.65)">
    <path d="M29.8 -36.75 L30.4 -37.75 Q31.65 -38.5 32.85 -37.75 L34.25 -37.05 Q36.5 -35.7 36.75 -35.1 L37.15 -31.7 37.15 -31.65 37.4 -26.2 37.45 -26.1 37.45 -25.55 Q37.45 -23.3 36.0 -17.55 37.45 -23.3 37.45 -25.55 L37.45 -26.1 37.95 -24.9 37.25 -21.7 36.0 -17.55 Q35.5 -15.65 34.8 -14.05 L33.0 -10.1 32.95 -10.0 32.45 -9.05 32.95 -10.0 33.2 -9.55 32.45 -9.05 29.25 -4.9 29.55 -4.9 27.2 -2.3 29.55 -4.9 30.0 -4.85 29.75 -4.3 27.2 -2.3 23.4 -2.4 23.3 -3.35 Q24.75 -5.0 26.4 -7.8 29.25 -12.55 29.25 -15.7 29.25 -17.25 28.05 -17.8 L24.45 -19.0 Q25.85 -18.9 27.85 -18.1 L29.7 -17.35 Q32.15 -17.35 33.15 -20.0 33.6 -21.15 34.95 -28.4 36.55 -30.15 36.55 -31.4 36.55 -34.0 35.65 -35.25 34.45 -36.95 31.4 -36.95 31.05 -36.95 29.8 -34.75 28.5 -32.55 28.3 -31.7 L27.55 -31.9 Q27.25 -32.1 27.25 -32.4 L27.2 -32.45 28.85 -35.2 29.55 -35.65 29.8 -36.75 M38.05 -31.75 L41.3 -32.3 42.4 -32.2 42.6 -32.35 44.15 -32.55 Q45.85 -31.95 46.35 -31.55 L47.0 -30.95 47.3 -29.9 Q47.3 -28.7 46.35 -28.15 45.5 -29.95 44.1 -30.85 43.0 -31.6 41.85 -31.6 39.05 -31.6 38.55 -30.45 L38.5 -28.8 38.25 -28.75 37.9 -30.85 38.05 -31.75 M49.15 -31.8 Q51.0 -31.8 54.3 -30.55 L49.15 -31.8 54.3 -30.55 55.8 -29.15 Q56.2 -28.4 56.45 -26.85 L56.6 -24.05 56.7 -21.5 Q56.7 -19.95 55.95 -18.15 L54.2 -15.95 51.85 -17.05 54.3 -25.55 Q55.3 -26.7 55.3 -27.7 55.3 -28.8 54.1 -29.45 52.95 -30.1 51.05 -30.1 L49.35 -28.5 Q48.75 -28.7 48.55 -28.85 48.25 -29.05 48.25 -29.7 48.25 -30.35 48.4 -30.6 L48.85 -31.5 49.15 -31.8 M43.6 -25.15 Q45.05 -25.15 45.95 -26.0 L46.65 -26.2 46.9 -24.05 47.45 -19.8 47.45 -18.25 47.35 -17.2 45.1 -13.05 42.7 -9.35 Q42.7 -9.05 42.35 -8.85 L41.5 -8.65 Q39.25 -6.15 37.4 -6.3 L35.85 -7.45 37.0 -7.6 Q38.05 -10.3 40.85 -14.4 43.25 -18.7 43.6 -25.15 M11.8 -22.0 L11.55 -21.95 8.75 -22.7 6.65 -21.3 6.2 -22.35 6.8 -22.95 9.5 -23.75 11.8 -22.0 M11.95 -8.3 Q11.85 -8.75 12.7 -13.8 L13.7 -19.55 13.95 -19.65 15.3 -18.05 16.6 -16.25 16.3 -12.55 Q15.95 -11.15 14.6 -9.15 15.95 -11.15 16.3 -12.55 L16.6 -16.25 Q17.25 -14.2 16.5 -11.95 15.8 -9.9 14.6 -9.15 L12.0 -8.05 11.95 -8.3 M50.8 -25.95 Q50.4 -23.95 50.15 -23.9 49.85 -23.85 49.65 -24.6 49.4 -25.4 49.4 -26.5 L49.4 -27.25 50.8 -25.95 M56.6 -24.05 L55.95 -18.15 56.6 -24.05 M42.7 -9.35 L41.5 -8.65 42.7 -9.35" fill="#e2cdbf" fill-rule="evenodd" stroke="none"/>
    <path d="M37.15 -31.65 L38.05 -31.75 37.9 -30.85 38.25 -28.75 38.5 -25.8 38.55 -25.8 39.05 -26.6 39.45 -26.05 40.4 -25.85 40.4 -25.65 43.45 -25.15 43.6 -25.15 Q43.25 -18.7 40.85 -14.4 38.05 -10.3 37.0 -7.6 L35.85 -7.45 34.4 -8.55 33.2 -9.55 32.95 -10.0 33.0 -10.1 34.8 -14.05 Q35.5 -15.65 36.0 -17.55 L37.25 -21.7 37.95 -24.9 37.45 -26.1 37.4 -26.2 37.15 -31.65 M42.5 -32.3 L42.65 -32.8 Q42.85 -33.15 43.45 -33.15 45.0 -33.15 45.95 -32.25 L47.25 -30.85 47.8 -30.45 48.05 -30.75 48.1 -30.85 48.85 -31.5 48.4 -30.6 Q48.25 -30.35 48.25 -29.7 48.25 -29.05 48.55 -28.85 48.75 -28.7 49.35 -28.5 L49.4 -27.25 49.4 -26.5 Q49.4 -25.4 49.65 -24.6 49.85 -23.85 50.15 -23.9 50.4 -23.95 50.8 -25.95 L54.3 -25.55 51.85 -17.05 54.2 -15.95 54.3 -14.9 53.8 -14.5 52.95 -14.3 54.3 -14.9 52.95 -14.3 Q48.2 -16.5 47.45 -17.05 L47.35 -17.2 47.45 -18.25 47.45 -19.8 46.9 -24.05 46.9 -26.2 46.65 -26.2 45.95 -26.0 45.15 -26.7 46.35 -28.15 Q47.3 -28.7 47.3 -29.9 L47.0 -30.95 46.35 -31.55 Q45.85 -31.95 44.15 -32.55 L42.6 -32.35 42.4 -32.2 42.5 -32.3 42.6 -32.35 42.5 -32.3 M27.25 -32.4 Q27.25 -32.1 27.55 -31.9 L28.3 -31.7 29.6 -29.9 31.7 -27.2 33.0 -27.45 34.25 -28.3 34.95 -28.4 Q33.6 -21.15 33.15 -20.0 32.15 -17.35 29.7 -17.35 L27.85 -18.1 Q25.85 -18.9 24.45 -19.0 L28.05 -17.8 Q29.25 -17.25 29.25 -15.7 29.25 -12.55 26.4 -7.8 24.75 -5.0 23.3 -3.35 L22.85 -3.05 22.25 -2.95 21.4 -3.85 20.95 -5.55 Q20.35 -7.35 20.45 -9.45 L20.65 -12.15 20.65 -12.45 20.9 -16.85 21.15 -18.3 21.7 -21.35 Q23.0 -26.4 25.9 -30.55 L26.85 -31.85 27.25 -32.4 M11.55 -21.95 L11.8 -22.0 Q12.7 -21.3 13.15 -21.3 L13.8 -21.0 14.05 -20.3 13.9 -19.75 13.7 -19.55 12.7 -13.8 Q11.85 -8.75 11.95 -8.3 L11.75 -7.7 Q11.55 -7.5 11.3 -7.5 10.9 -7.8 9.65 -8.95 8.45 -10.05 7.3 -12.25 L6.4 -16.75 7.3 -12.25 6.9 -12.9 5.4 -17.15 5.95 -17.35 6.4 -16.75 6.25 -17.45 6.85 -17.75 7.0 -18.2 7.25 -18.0 7.9 -17.7 9.2 -17.85 10.45 -18.2 11.4 -18.85 12.2 -19.85 12.55 -20.5 12.25 -21.45 11.55 -21.95 M13.15 -21.3 L14.05 -20.3 13.15 -21.3 M21.15 -18.3 L22.25 -22.25 Q23.9 -27.55 25.9 -30.55 23.9 -27.55 22.25 -22.25 L21.15 -18.3 M20.95 -5.55 L20.65 -12.15 20.95 -5.55 M33.0 -10.1 L34.4 -8.55 33.0 -10.1 M47.8 -30.45 L47.45 -19.8 47.8 -30.45 M47.25 -30.85 L46.35 -31.55 47.25 -30.85 M47.45 -17.05 L47.45 -18.25 47.45 -17.05" fill="#ecdcca" fill-rule="evenodd" stroke="none"/>
    <path d="M6.25 -17.45 L6.4 -16.75 5.95 -17.35 6.25 -17.45" fill="#aba092" fill-rule="evenodd" stroke="none"/>
    <path d="M13.7 -19.55 L13.9 -19.75 13.95 -19.65 13.7 -19.55" fill="#996c4f" fill-rule="evenodd" stroke="none"/>
    <path d="M29.6 -29.9 L31.65 -29.0 34.25 -28.3 33.0 -27.45 31.7 -27.2 29.6 -29.9" fill="#eee0d0" fill-rule="evenodd" stroke="none"/>
    <path d="M31.05 -33.8 L30.6 -33.1 30.25 -32.65 30.9 -33.9 31.05 -33.8 M38.25 -28.75 L38.5 -28.8 39.05 -26.6 38.55 -25.8 38.5 -25.8 38.25 -28.75 M43.6 -25.15 L43.45 -25.15 40.4 -25.65 40.4 -25.85 43.3 -25.9 Q43.8 -26.05 45.15 -26.7 L45.95 -26.0 Q45.05 -25.15 43.6 -25.15 M11.4 -18.85 L10.45 -18.2 9.2 -17.85 11.4 -18.85" fill="#ebdccd" fill-rule="evenodd" stroke="none"/>
    <path d="M28.3 -31.7 Q28.5 -32.55 29.8 -34.75 31.05 -36.95 31.4 -36.95 34.45 -36.95 35.65 -35.25 36.55 -34.0 36.55 -31.4 36.55 -30.15 34.95 -28.4 L34.25 -28.3 31.65 -29.0 29.6 -29.9 28.3 -31.7 M31.05 -33.8 L30.9 -33.9 30.25 -32.65 30.6 -33.1 31.05 -33.8 M38.5 -28.8 L38.55 -30.45 Q39.05 -31.6 41.85 -31.6 43.0 -31.6 44.1 -30.85 45.5 -29.95 46.35 -28.15 L45.15 -26.7 Q43.8 -26.05 43.3 -25.9 L40.4 -25.85 39.45 -26.05 39.05 -26.6 38.5 -28.8 M6.65 -21.3 L8.75 -22.7 11.55 -21.95 12.25 -21.45 12.55 -20.5 12.2 -19.85 11.4 -18.85 9.2 -17.85 7.9 -17.7 7.25 -18.0 7.0 -18.2 6.05 -18.85 5.95 -20.2 6.65 -21.3 M50.8 -25.95 L49.4 -27.25 49.35 -28.5 51.05 -30.1 Q52.95 -30.1 54.1 -29.45 55.3 -28.8 55.3 -27.7 55.3 -26.7 54.3 -25.55 L50.8 -25.95" fill="#ece9de" fill-rule="evenodd" stroke="none"/>
    <path d="M29.8 -36.75 L30.4 -37.75 Q31.65 -38.5 32.85 -37.75 L34.25 -37.05 Q36.5 -35.7 36.75 -35.1 L37.15 -31.7 37.15 -31.65 38.05 -31.75 41.3 -32.3 42.5 -32.3 42.6 -32.35 44.15 -32.55 Q45.85 -31.95 46.35 -31.55 L47.25 -30.85 47.8 -30.45 47.45 -19.8 47.45 -18.25 47.45 -17.05 Q46.8 -14.15 45.1 -11.75 43.85 -10.0 42.7 -9.35 L41.5 -8.65 Q39.25 -6.15 37.4 -6.3 L35.85 -7.45 34.4 -8.55 33.0 -10.1 34.8 -14.05 Q35.5 -15.65 36.0 -17.55 37.45 -23.3 37.45 -25.55 L37.45 -26.1 37.4 -26.2 37.15 -31.65 M48.05 -30.75 L48.1 -30.85 49.15 -31.8 54.3 -30.55 55.45 -30.3 M28.85 -35.2 L27.2 -32.45 26.85 -31.85 25.9 -30.55 Q23.9 -27.55 22.25 -22.25 L21.15 -18.3 20.9 -16.85 20.65 -12.45 M27.2 -2.3 L29.55 -4.9 32.45 -9.05 32.95 -10.0 33.0 -10.1 M28.85 -35.2 L29.8 -36.75 M9.5 -23.75 L6.8 -22.95 6.2 -22.35 5.95 -20.2 6.05 -18.85 6.25 -17.45 6.4 -16.75 7.3 -12.25 Q8.45 -10.05 9.65 -8.95 10.9 -7.8 11.3 -7.5 L13.1 -7.5 Q13.9 -7.75 14.6 -9.15 15.95 -11.15 16.3 -12.55 L16.6 -16.25 15.6 -18.05 14.05 -20.3 13.15 -21.3 11.5 -22.5 9.5 -23.75 M20.65 -12.15 L20.95 -5.55 21.4 -3.85 22.25 -2.95 23.4 -2.4 25.55 -2.1 27.2 -2.3 M56.45 -26.85 L56.35 -27.5 55.8 -30.3 M55.95 -18.15 L56.6 -24.05 56.45 -26.85 M55.95 -18.15 L55.3 -16.35 54.3 -14.9 52.95 -14.3 52.75 -14.25 48.1 -16.0" fill="none" stroke="#000000" stroke-linecap="round" stroke-linejoin="round" stroke-width="1.0"/>
  </g>
</svg>
