<?xml version="1.0" encoding="UTF-8" standalone="no"?>
<svg xmlns:xlink="http://www.w3.org/1999/xlink" height="84.25px" width="107.95px" xmlns="http://www.w3.org/2000/svg">
  <g transform="matrix(1.0, 0.0, 0.0, 1.0, 7.6, 43.35)">
    <path d="M2.2 -15.7 L2.25 -15.75 Q6.05 -19.45 12.65 -22.2 21.8 -26.0 35.9 -23.65 48.85 -13.9 48.25 -7.0 L48.1 -6.9 48.35 -6.1 Q48.0 -5.2 48.0 -4.85 L47.55 -3.5 47.65 -3.15 47.4 -2.15 47.1 -1.35 46.4 1.3 46.25 1.55 46.15 1.5 Q45.75 1.5 45.75 1.85 45.15 1.75 42.4 -0.5 L40.65 -2.0 40.35 -1.85 Q22.8 -13.0 3.85 -12.95 L3.55 -12.95 3.05 -14.15 2.55 -14.85 2.2 -15.7" fill="#eccdd2" fill-rule="evenodd" stroke="none"/>
    <path d="M45.75 1.85 Q45.75 1.5 46.15 1.5 L46.25 1.55 46.4 1.3 47.1 -1.35 47.4 -2.15 47.65 -3.15 47.55 -3.5 48.0 -4.85 Q48.0 -5.2 48.35 -6.1 L48.1 -6.9 48.25 -7.0 Q48.85 -13.9 35.9 -23.65 49.65 -19.65 57.35 -22.4 L63.4 -18.35 63.3 -18.25 Q64.25 -17.95 64.95 -16.75 L65.1 -17.0 65.3 -16.85 65.35 -16.8 Q73.65 6.1 56.75 9.85 L53.35 7.25 52.65 6.8 50.3 5.25 50.5 5.0 49.9 4.85 Q49.3 4.85 47.5 3.45 45.75 2.1 45.75 1.85" fill="#ccacbd" fill-rule="evenodd" stroke="none"/>
    <path d="M35.9 -23.65 Q21.8 -26.0 12.65 -22.2 6.05 -19.45 2.25 -15.75 L2.2 -15.7 -7.1 -35.75 -5.9 -36.5 -5.6 -36.7 Q2.8 -41.8 11.8 -42.1 26.35 -42.55 57.35 -22.4 49.65 -19.65 35.9 -23.65" fill="#f5e9eb" fill-rule="evenodd" stroke="none"/>
    <path d="M65.35 -16.8 L66.3 -15.95 71.05 -11.6 75.6 -7.1 Q79.0 14.4 64.95 17.7 L62.6 15.25 57.25 10.2 56.75 9.85 Q73.65 6.1 65.35 -16.8" fill="#6393cf" fill-rule="evenodd" stroke="none"/>
    <path d="M77.5 -5.25 L83.15 0.7 87.25 5.3 Q98.6 18.45 99.75 23.85 100.75 28.5 93.0 25.75 90.55 24.9 87.6 23.35 L85.1 22.1 88.95 30.8 Q92.3 39.75 89.25 40.35 86.45 40.95 76.4 30.05 L65.8 18.55 64.95 17.7 Q79.0 14.4 75.6 -7.1 L77.5 -5.25" fill="#86cef4" fill-rule="evenodd" stroke="none"/>
    <path d="M52.65 6.8 L50.25 5.3 50.3 5.25 52.65 6.8" fill="#eb9baa" fill-rule="evenodd" stroke="none"/>
    <path d="M65.1 -17.0 L65.3 -16.85 M66.3 -15.95 L71.05 -11.6 77.5 -5.25 83.15 0.7 87.25 5.3 Q98.6 18.45 99.75 23.85 100.75 28.5 93.0 25.75 90.55 24.9 87.6 23.35 L85.1 22.1 88.95 30.8 Q92.3 39.75 89.25 40.35 86.45 40.95 76.4 30.05 L65.8 18.55 64.95 17.7 62.6 15.25 57.25 10.2 56.75 9.85 53.35 7.25 52.65 6.8 50.3 5.25" fill="none" stroke="#000000" stroke-linecap="butt" stroke-linejoin="miter-clip" stroke-miterlimit="3.0" stroke-width="1.0"/>
    <path d="M35.9 -23.65 Q21.35 -26.1 12.7 -22.35 6.25 -19.6 2.3 -15.7 M3.55 -12.95 L3.85 -12.95 Q22.65 -13.0 40.1 -2.0 L40.35 -1.8 M-7.1 -35.7 L-5.85 -36.4 -5.55 -36.6 Q3.0 -41.55 12.15 -41.9 28.1 -42.6 63.35 -18.65" fill="none" stroke="#000000" stroke-linecap="butt" stroke-linejoin="miter-clip" stroke-miterlimit="3.0" stroke-width="1.0"/>
    <path d="M40.35 -1.8 L48.7 4.35 52.65 6.1 M63.35 -18.65 L63.55 -18.5 65.7 -16.2" fill="none" stroke="#000000" stroke-linecap="round" stroke-linejoin="round" stroke-width="1.0"/>
  </g>
</svg>
