<?xml version="1.0" encoding="UTF-8" standalone="no"?>
<svg xmlns:xlink="http://www.w3.org/1999/xlink" height="96.9px" width="134.85px" xmlns="http://www.w3.org/2000/svg">
  <g transform="matrix(1.0, 0.0, 0.0, 1.0, -15.85, 53.05)">
    <path d="M41.85 3.35 Q28.3 2.65 16.35 7.0 19.45 5.05 22.1 -0.45 L26.85 -12.15 Q33.55 -29.65 41.75 -36.85 50.6 -44.6 63.05 -48.5 58.85 -47.05 54.0 -43.05 43.7 -34.55 40.65 -20.35 37.6 -6.1 41.85 3.35 M139.8 -36.75 L147.4 -31.15 Q151.25 -23.0 149.95 -14.85 150.75 -7.0 149.2 2.65 146.15 21.95 134.5 31.1 122.85 40.25 101.05 42.65 L81.55 43.2 82.5 42.85 82.05 42.7 81.3 42.9 80.65 43.05 Q78.35 43.05 77.3 40.35 76.65 38.7 76.65 37.1 76.65 32.8 78.8 29.0 L79.25 28.3 Q79.8 27.45 80.3 27.25 80.95 27.0 80.95 28.35 L93.7 27.9 Q107.35 23.8 111.65 22.15 127.4 16.1 134.35 6.25 138.15 0.95 143.05 -14.0 146.1 -23.3 143.25 -30.95 141.85 -34.8 139.8 -36.75" fill="#f5e9eb" fill-rule="evenodd" stroke="none"/>
    <path d="M63.05 -48.5 L63.65 -48.7 Q79.4 -53.55 100.85 -52.3 114.9 -51.5 132.55 -41.25 136.45 -39.0 139.8 -36.75 141.85 -34.8 143.25 -30.95 146.1 -23.3 143.05 -14.0 138.15 0.95 134.35 6.25 127.4 16.1 111.65 22.15 107.35 23.8 93.7 27.9 L80.95 28.35 Q80.95 27.0 80.3 27.25 79.8 27.45 79.25 28.3 66.4 27.5 57.35 20.35 45.95 11.3 42.55 4.85 L41.85 3.35 Q37.6 -6.1 40.65 -20.35 43.7 -34.55 54.0 -43.05 58.85 -47.05 63.05 -48.5" fill="#f7f8fa" fill-rule="evenodd" stroke="none"/>
    <path d="M16.35 7.0 Q19.45 5.05 22.1 -0.45 L26.85 -12.15 Q33.55 -29.65 41.75 -36.85 61.95 -54.55 100.85 -52.3 114.9 -51.5 132.55 -41.25 141.4 -36.1 147.4 -31.15 M81.55 43.2 L87.2 43.35 101.05 42.65 Q122.85 40.25 134.5 31.1 146.15 21.95 149.2 2.65 150.75 -7.0 149.95 -14.85" fill="none" stroke="#000000" stroke-linecap="butt" stroke-linejoin="miter-clip" stroke-miterlimit="3.0" stroke-width="1.0"/>
  </g>
</svg>
