<?xml version="1.0" encoding="UTF-8" standalone="no"?>
<svg xmlns:xlink="http://www.w3.org/1999/xlink" height="99.05px" width="146.45px" xmlns="http://www.w3.org/2000/svg">
  <g transform="matrix(1.0, 0.0, 0.0, 1.0, -0.15, -0.05)">
    <path d="M10.5 81.65 L0.75 67.85 Q18.9 51.35 39.5 28.8 56.05 12.7 76.7 6.1 L75.2 9.6 Q100.3 -0.5 123.95 0.8 134.4 2.9 140.9 7.05 115.45 58.95 91.4 67.15 L94.05 65.25 Q127.45 35.85 130.8 13.85 L131.05 11.85 Q114.6 5.15 82.9 24.5 85.85 20.4 85.45 18.25 49.6 30.3 32.0 56.05 L31.75 56.4 29.85 59.3 Q22.0 72.15 10.5 81.65" fill="#ef8410" fill-rule="evenodd" stroke="none"/>
    <path d="M123.95 0.8 Q135.15 1.4 146.0 4.6 134.1 47.45 91.55 73.0 94.9 73.4 95.45 74.55 75.6 101.1 34.0 98.25 L31.75 98.05 21.6 96.8 21.1 96.7 21.05 96.7 10.5 81.65 Q22.0 72.15 29.85 59.3 L31.75 56.4 32.0 56.05 Q39.55 51.1 46.05 51.95 36.65 57.15 34.0 67.8 37.1 64.2 40.5 63.75 44.95 62.45 48.65 68.2 35.95 67.6 35.9 77.05 40.4 73.6 43.75 75.25 41.45 77.15 39.3 79.55 36.5 82.6 34.05 86.45 52.6 94.35 91.4 67.15 115.45 58.95 140.9 7.05 134.4 2.9 123.95 0.8" fill="#cc6f0f" fill-rule="evenodd" stroke="none"/>
    <path d="M91.4 67.15 Q52.6 94.35 34.05 86.45 36.5 82.6 39.3 79.55 58.05 84.65 94.05 65.25 L91.4 67.15 M40.5 63.75 Q37.1 64.2 34.0 67.8 36.65 57.15 46.05 51.95 39.55 51.1 32.0 56.05 49.6 30.3 85.45 18.25 85.85 20.4 82.9 24.5 114.6 5.15 131.05 11.85 L130.8 13.85 Q64.65 30.15 40.5 63.75" fill="#2f2f2f" fill-rule="evenodd" stroke="none"/>
    <path d="M39.3 79.55 Q41.45 77.15 43.75 75.25 40.4 73.6 35.9 77.05 35.95 67.6 48.65 68.2 44.95 62.45 40.5 63.75 64.65 30.15 130.8 13.85 127.45 35.85 94.05 65.25 58.05 84.65 39.3 79.55" fill="#424242" fill-rule="evenodd" stroke="none"/>
    <path d="M123.95 0.8 Q135.15 1.4 146.0 4.6 134.1 47.45 91.55 73.0 94.9 73.4 95.45 74.55 75.6 101.1 34.0 98.25 M0.75 67.85 Q18.9 51.35 39.5 28.8 56.05 12.7 76.7 6.1 L75.2 9.6 Q100.3 -0.5 123.95 0.8 M91.4 67.15 Q52.6 94.35 34.05 86.45 36.5 82.6 39.3 79.55 41.45 77.15 43.75 75.25 40.4 73.6 35.9 77.05 35.95 67.6 48.65 68.2 44.95 62.45 40.5 63.75 37.1 64.2 34.0 67.8 36.65 57.15 46.05 51.95 39.55 51.1 32.0 56.05 49.6 30.3 85.45 18.25 85.85 20.4 82.9 24.5 114.6 5.15 131.05 11.85 L130.8 13.85 Q127.45 35.85 94.05 65.25 L91.4 67.15" fill="none" stroke="#4d2b06" stroke-linecap="round" stroke-linejoin="miter-clip" stroke-miterlimit="5.0" stroke-width="1.2000000000000002"/>
    <path d="M34.05 97.65 Q34.7 97.65 34.6 98.3 34.5 98.9 33.9 98.8 L32.35 98.6 32.0 98.6 31.8 98.55 31.65 98.55 31.6 98.5 21.55 96.9 21.05 96.75 21.0 96.65 Q21.0 96.5 21.1 96.6 L31.7 97.5 31.9 97.5 32.1 97.55 34.05 97.65 M33.25 88.25 L33.15 88.3 33.1 88.2 33.25 87.15 33.35 86.8 33.35 86.65 33.4 86.45 33.5 86.2 33.5 86.1 33.7 85.85 34.15 85.65 34.55 85.85 Q35.0 86.3 34.55 86.75 L34.15 87.15 33.25 88.25" fill="#4d2b06" fill-rule="evenodd" stroke="none"/>
  </g>
</svg>
