<?xml version="1.0" encoding="UTF-8" standalone="no"?>
<svg xmlns:xlink="http://www.w3.org/1999/xlink" height="79.15px" width="134.2px" xmlns="http://www.w3.org/2000/svg">
  <g transform="matrix(1.0, 0.0, 0.0, 1.0, 124.1, 41.4)">
    <path d="M9.6 -20.8 L9.75 -20.3 Q8.2 -19.4 6.05 -16.85 4.1 -14.5 3.35 -12.95 L0.5 -12.9 -0.25 -12.85 0.25 -13.55 Q3.35 -17.7 9.6 -20.8 M-89.55 35.0 Q-96.5 33.0 -103.85 29.25 -115.6 23.35 -123.6 16.25 L-121.15 7.95 Q-107.2 19.45 -96.0 18.2 L-83.85 16.65 Q-81.6 27.3 -89.55 35.0" fill="#eccdd2" fill-rule="evenodd" stroke="none"/>
    <path d="M-83.85 16.65 Q-64.0 12.15 -51.2 0.65 -29.1 -15.3 -15.95 -28.45 -12.8 -31.65 -9.5 -34.05 -2.45 -39.4 5.05 -41.2 5.95 -32.7 9.25 -24.6 L9.1 -22.7 9.6 -20.8 Q3.35 -17.7 0.25 -13.55 L-0.25 -12.85 Q-8.6 -3.3 -20.1 7.65 -43.05 29.55 -61.7 35.35 -74.5 39.35 -89.55 35.0 -81.6 27.3 -83.85 16.65" fill="#f5e9eb" fill-rule="evenodd" stroke="none"/>
    <path d="M-121.15 7.95 Q-106.7 21.0 -87.85 17.5 -69.05 14.0 -57.6 5.7 -31.95 -12.4 -17.9 -26.8 -13.8 -31.0 -9.5 -34.05 -2.45 -39.1 5.1 -40.9" fill="none" stroke="#000000" stroke-linecap="butt" stroke-linejoin="miter-clip" stroke-miterlimit="3.0" stroke-width="1.0"/>
    <path d="M9.6 -20.85 Q3.65 -17.8 0.3 -13.5 L-0.25 -12.85 Q-8.6 -3.3 -20.1 7.65 -43.05 29.55 -61.7 35.35 -80.35 41.15 -103.85 29.25 -115.6 23.35 -123.6 16.25" fill="none" stroke="#000000" stroke-linecap="butt" stroke-linejoin="miter-clip" stroke-miterlimit="3.0" stroke-width="1.0"/>
    <path d="M-0.25 -12.85 L0.5 -12.9 3.35 -12.95" fill="none" stroke="#000000" stroke-linecap="round" stroke-linejoin="miter-clip" stroke-miterlimit="3.0" stroke-width="1.0"/>
  </g>
</svg>
