<?xml version="1.0" encoding="UTF-8" standalone="no"?>
<svg xmlns:xlink="http://www.w3.org/1999/xlink" height="88.2px" width="128.8px" xmlns="http://www.w3.org/2000/svg">
  <g transform="matrix(1.0, 0.0, 0.0, 1.0, 135.45, 168.8)">
    <path d="M-87.4 -152.05 L-75.45 -156.45 -64.45 -159.9 Q-43.65 -165.9 -26.6 -167.7 -9.9 -169.45 -7.75 -166.1 L-7.6 -165.9 -7.55 -165.75 Q-5.75 -162.25 -11.65 -154.6 L-12.5 -153.55 -12.65 -153.4 Q-16.35 -150.0 -28.6 -144.15 -41.1 -138.2 -47.1 -137.05 -53.15 -135.9 -58.5 -136.1 L-58.3 -136.3 -57.3 -137.6 -56.9 -138.15 -56.35 -138.95 -55.1 -141.0 Q-53.8 -143.55 -54.65 -144.6 -56.25 -146.6 -66.45 -143.2 -75.65 -140.15 -88.15 -134.05 L-88.5 -133.85 -89.6 -133.35 -88.5 -133.85 -89.55 -133.35 -89.6 -133.35 -94.75 -132.25 Q-100.5 -131.3 -104.1 -132.8 -107.75 -134.35 -105.1 -139.35 -102.5 -144.4 -99.2 -146.9 -94.3 -149.25 -89.05 -151.4 L-87.4 -152.05 M-11.65 -154.6 L-12.65 -153.4 -11.65 -154.6" fill="#f7bec4" fill-rule="evenodd" stroke="none"/>
    <path d="M-12.5 -153.55 L-13.7 -152.15 -23.65 -142.05 Q-29.2 -136.95 -34.7 -132.65 L-33.45 -132.5 Q-32.0 -131.95 -31.0 -129.75 -30.4 -128.45 -36.2 -121.55 -42.0 -114.75 -50.65 -106.5 L-63.45 -95.05 -64.25 -94.4 -63.45 -95.05 -64.25 -94.4 Q-80.2 -90.8 -100.0 -97.15 L-103.8 -101.3 Q-100.35 -101.2 -91.4 -107.15 -83.2 -112.6 -73.9 -120.75 -64.45 -128.95 -59.05 -135.45 L-58.5 -136.1 Q-53.15 -135.9 -47.1 -137.05 -41.1 -138.2 -28.6 -144.15 -16.35 -150.0 -12.65 -153.4 L-12.5 -153.55 M-119.85 -113.1 L-134.95 -119.85 Q-126.55 -132.55 -105.7 -143.65 L-99.2 -146.9 Q-102.5 -144.4 -105.1 -139.35 -107.75 -134.35 -104.1 -132.8 -100.5 -131.3 -94.75 -132.25 L-89.6 -133.35 -89.55 -133.35 -91.0 -132.6 -109.4 -122.3 Q-119.1 -116.05 -119.85 -113.1 M-48.0 -124.25 Q-45.85 -124.45 -38.55 -129.75 L-34.7 -132.65 -38.55 -129.75 Q-45.85 -124.45 -48.0 -124.25 M-13.7 -152.15 L-12.65 -153.4 -13.7 -152.15 M-91.0 -132.6 L-89.6 -133.35 -91.0 -132.6" fill="#ed99ac" fill-rule="evenodd" stroke="none"/>
    <path d="M-103.8 -101.3 L-115.0 -109.5 Q-108.85 -117.45 -90.6 -126.85 L-75.1 -134.6 Q-69.4 -137.35 -66.55 -138.3 -60.7 -140.3 -58.2 -139.4 L-57.1 -138.6 -56.9 -138.15 -57.3 -137.6 -58.3 -136.3 -58.5 -136.1 -59.05 -135.45 Q-64.45 -128.95 -73.9 -120.75 -83.2 -112.6 -91.4 -107.15 -100.35 -101.2 -103.8 -101.3 M-57.3 -137.6 L-56.9 -138.15 -57.3 -137.6" fill="#5d7caf" fill-rule="evenodd" stroke="none"/>
    <path d="M-115.0 -109.5 L-119.85 -113.1 Q-119.1 -116.05 -109.4 -122.3 L-91.0 -132.6 -89.55 -133.35 -88.5 -133.85 -88.15 -134.05 Q-75.65 -140.15 -66.45 -143.2 -56.25 -146.6 -54.65 -144.6 -53.8 -143.55 -55.1 -141.0 L-56.35 -138.95 -56.9 -138.15 -57.1 -138.6 -58.2 -139.4 Q-60.7 -140.3 -66.55 -138.3 -69.4 -137.35 -75.1 -134.6 L-90.6 -126.85 Q-108.85 -117.45 -115.0 -109.5 M-56.35 -138.95 L-56.9 -138.15 -56.35 -138.95" fill="#486491" fill-rule="evenodd" stroke="none"/>
    <path d="M-64.25 -94.4 L-65.05 -93.75 Q-77.25 -83.9 -85.5 -81.1 L-100.0 -97.15 Q-80.2 -90.8 -64.25 -94.4 L-65.05 -93.75 -64.25 -94.4" fill="#dd7e8f" fill-rule="evenodd" stroke="none"/>
    <path d="M-87.4 -152.05 L-75.45 -156.45 -64.45 -159.9 Q-43.65 -165.9 -26.6 -167.7 -9.9 -169.45 -7.75 -166.1 L-7.6 -165.9 -7.55 -165.75 Q-5.75 -162.25 -11.65 -154.6 L-12.65 -153.4 -13.7 -152.15 -23.65 -142.05 Q-29.2 -136.95 -34.7 -132.65 L-33.45 -132.5 Q-32.0 -131.95 -31.0 -129.75 -30.4 -128.45 -36.2 -121.55 -42.0 -114.75 -50.65 -106.5 L-63.45 -95.05 -64.25 -94.4 -65.05 -93.75 Q-77.25 -83.9 -85.5 -81.1 M-134.95 -119.85 Q-126.55 -132.55 -105.7 -143.65 -97.25 -148.15 -87.4 -152.05 M-89.6 -133.35 L-88.5 -133.85 -88.15 -134.05 Q-75.65 -140.15 -66.45 -143.2 -56.25 -146.6 -54.65 -144.6 -53.8 -143.55 -55.1 -141.0 L-56.35 -138.95 -56.9 -138.15 -57.3 -137.6 -58.3 -136.3 M-59.05 -135.45 Q-64.45 -128.95 -73.9 -120.75 -83.2 -112.6 -91.4 -107.15 -100.35 -101.2 -103.8 -101.3 M-34.7 -132.65 L-38.55 -129.75 Q-45.85 -124.45 -48.0 -124.25 M-89.6 -133.35 L-91.0 -132.6 -109.4 -122.3 Q-119.1 -116.05 -119.85 -113.1" fill="none" stroke="#000000" stroke-linecap="butt" stroke-linejoin="miter-clip" stroke-miterlimit="3.0" stroke-width="1.0"/>
  </g>
</svg>
