<?xml version="1.0" encoding="UTF-8" standalone="no"?>
<svg xmlns:xlink="http://www.w3.org/1999/xlink" height="100.1px" width="72.95px" xmlns="http://www.w3.org/2000/svg">
  <g transform="matrix(1.0, 0.0, 0.0, 1.0, 105.8, -57.9)">
    <path d="M-99.4 116.95 Q-76.7 164.8 -45.4 116.95 L-47.9 123.65 Q-49.3 128.95 -48.45 141.25 -69.75 149.75 -61.25 149.7 L-47.7 152.55 -47.65 155.95 Q-66.3 160.1 -84.2 155.95 -83.9 152.35 -87.55 143.75 L-99.4 116.95" fill="#eccdd2" fill-rule="evenodd" stroke="none"/>
    <path d="M-99.4 116.95 Q-103.5 106.75 -105.3 98.85 L-103.35 98.6 -100.45 98.05 -97.6 97.5 -91.4 96.3 Q-90.4 96.3 -85.3 93.85 L-79.65 91.05 -71.95 84.85 Q-50.85 78.7 -35.2 58.4 -30.5 68.8 -37.8 93.85 -40.8 104.25 -45.4 116.95 -76.7 164.8 -99.4 116.95 M-48.45 141.25 L-47.7 152.55 -61.25 149.7 Q-69.75 149.75 -48.45 141.25" fill="#f5e9eb" fill-rule="evenodd" stroke="none"/>
    <path d="M-35.2 58.4 Q-30.5 68.8 -37.8 93.85 -41.6 106.95 -47.9 123.65 -49.3 128.95 -48.45 141.25 -47.45 154.5 -47.65 155.95 M-95.6 125.9 L-87.55 143.75 Q-83.9 152.35 -84.2 155.95 M-105.3 98.85 Q-102.75 110.1 -95.6 125.9" fill="none" stroke="#000000" stroke-linecap="butt" stroke-linejoin="miter-clip" stroke-miterlimit="3.0" stroke-width="1.0"/>
  </g>
</svg>
