<?xml version="1.0" encoding="UTF-8" standalone="no"?>
<svg xmlns:xlink="http://www.w3.org/1999/xlink" height="77.85px" width="210.1px" xmlns="http://www.w3.org/2000/svg">
  <g transform="matrix(1.0, 0.0, 0.0, 1.0, 103.65, 111.05)">
    <path d="M64.25 -80.8 Q73.35 -81.2 82.3 -80.7 100.55 -79.75 104.85 -76.3 108.55 -73.25 99.85 -68.7 97.2 -67.25 93.55 -65.95 L90.45 -64.8 99.3 -60.9 Q107.7 -56.4 105.3 -53.2 103.05 -50.25 87.45 -50.55 L69.65 -50.7 Q80.35 -65.85 64.25 -80.8" fill="#86cef4" fill-rule="evenodd" stroke="none"/>
    <path d="M69.65 -50.7 L58.1 -50.15 57.5 -50.05 Q70.55 -68.05 49.1 -79.85 L64.25 -80.8 Q80.35 -65.85 69.65 -50.7" fill="#6393cf" fill-rule="evenodd" stroke="none"/>
    <path d="M57.5 -50.05 Q53.05 -49.5 42.4 -46.15 58.6 -71.5 32.45 -77.25 L47.9 -79.75 49.1 -79.85 Q70.55 -68.05 57.5 -50.05" fill="#eb9baa" fill-rule="evenodd" stroke="none"/>
    <path d="M42.4 -46.15 L39.2 -45.25 Q22.2 -39.95 12.85 -37.8 -24.2 -29.15 -53.2 -38.65 -71.9 -44.8 -83.95 -58.8 -69.95 -57.35 -61.65 -65.85 -51.4 -61.95 -39.05 -63.35 -27.35 -64.55 4.95 -71.55 L32.45 -77.25 Q58.6 -71.5 42.4 -46.15" fill="#f5e9eb" fill-rule="evenodd" stroke="none"/>
    <path d="M-83.95 -58.8 Q-91.05 -66.95 -95.9 -77.8 -102.5 -92.45 -103.15 -105.3 L-96.8 -110.55 Q-93.85 -97.55 -85.25 -85.05 -75.3 -70.9 -61.65 -65.85 -69.95 -57.35 -83.95 -58.8" fill="#eccdd2" fill-rule="evenodd" stroke="none"/>
    <path d="M-96.8 -110.55 Q-93.85 -97.55 -85.25 -85.05 -67.85 -60.25 -39.05 -63.35 -27.35 -64.55 4.95 -71.55 37.2 -78.6 47.9 -79.75 65.15 -81.6 82.3 -80.7 100.55 -79.75 104.85 -76.3 108.55 -73.25 99.85 -68.7 97.2 -67.25 93.55 -65.95 L90.45 -64.8 99.3 -60.9 Q107.7 -56.4 105.3 -53.2 103.05 -50.25 87.45 -50.55 65.4 -51.0 58.1 -50.15 53.1 -49.6 39.2 -45.25 22.2 -39.95 12.85 -37.8 -24.2 -29.15 -53.2 -38.65 -82.65 -48.3 -95.9 -77.8 -102.5 -92.45 -103.15 -105.3" fill="none" stroke="#000000" stroke-linecap="butt" stroke-linejoin="miter-clip" stroke-miterlimit="3.0" stroke-width="1.0"/>
  </g>
</svg>
