<?xml version="1.0" encoding="UTF-8" standalone="no"?>
<svg xmlns:xlink="http://www.w3.org/1999/xlink" height="80.95px" width="98.5px" xmlns="http://www.w3.org/2000/svg">
  <g transform="matrix(1.0, 0.0, 0.0, 1.0, 151.3, 159.45)">
    <path d="M-85.1 -123.9 Q-64.75 -132.3 -56.45 -129.35 -53.65 -128.35 -53.4 -123.8 -53.15 -119.6 -55.1 -113.45 -59.45 -99.75 -67.9 -92.3 -75.6 -85.65 -85.85 -81.8 -94.65 -78.55 -99.55 -79.1 -107.15 -79.9 -110.15 -91.65 L-110.3 -92.3 Q-78.35 -94.6 -85.1 -123.9 M-118.55 -97.15 L-120.1 -96.1 Q-130.35 -89.5 -139.5 -92.1 -144.55 -93.55 -147.9 -102.9 -151.3 -112.4 -150.7 -123.75 -150.1 -135.45 -144.65 -146.65 -139.05 -158.15 -133.6 -157.9 -125.85 -157.55 -117.55 -138.5 -139.6 -118.55 -118.55 -97.15" fill="#f5e9eb" fill-rule="evenodd" stroke="none"/>
    <path d="M-85.1 -123.9 Q-78.35 -94.6 -110.3 -92.3 -111.7 -97.8 -111.7 -103.2 -114.45 -100.0 -118.55 -97.15 -139.6 -118.55 -117.55 -138.5 L-116.05 -134.9 Q-113.2 -127.9 -110.65 -119.5 L-108.65 -112.5 Q-99.15 -118.0 -87.85 -122.85 L-85.1 -123.9" fill="#f7bec4" fill-rule="evenodd" stroke="none"/>
    <path d="M-56.45 -129.35 Q-65.35 -132.5 -87.85 -122.85 -99.15 -118.0 -108.65 -112.5 L-110.65 -119.5 Q-113.2 -127.9 -116.05 -134.9 -125.1 -157.5 -133.6 -157.9 -139.05 -158.15 -144.65 -146.65 -150.1 -135.45 -150.7 -123.75 -151.3 -112.4 -147.9 -102.9 -144.55 -93.55 -139.5 -92.1 -130.35 -89.5 -120.1 -96.1 -114.95 -99.4 -111.7 -103.2 -111.7 -97.5 -110.15 -91.65 -107.15 -79.9 -99.55 -79.1 -94.65 -78.55 -85.85 -81.8 -75.6 -85.65 -67.9 -92.3 -59.45 -99.75 -55.1 -113.45 -53.15 -119.6 -53.4 -123.8 -53.65 -128.35 -56.45 -129.35 Z" fill="none" stroke="#000000" stroke-linecap="butt" stroke-linejoin="miter-clip" stroke-miterlimit="3.0" stroke-width="1.0"/>
  </g>
</svg>
