<?xml version="1.0" encoding="UTF-8" standalone="no"?>
<svg xmlns:xlink="http://www.w3.org/1999/xlink" height="913.45px" width="1322.9px" xmlns="http://www.w3.org/2000/svg">
  <g transform="matrix(1.0, 0.0, 0.0, 1.0, 0.0, -53.3)">
    <path d="M0.15 101.7 L1322.9 101.7 1322.9 271.5 0.15 271.5 0.15 101.7" fill="url(#gradient0)" fill-rule="evenodd" stroke="none"/>
    <path d="M1322.9 294.9 Q1321.05 289.6 1322.15 283.85 1317.15 282.5 1314.2 279.2 1310.85 281.85 1306.2 281.85 1301.4 281.85 1298.05 279.2 1294.55 276.55 1294.55 272.75 1294.55 269.1 1297.7 266.45 1293.6 268.6 1288.25 267.8 L1286.6 269.45 Q1281.95 274.05 1274.35 274.55 1267.5 275.05 1261.95 271.9 1265.1 273.9 1265.8 276.9 1266.75 280.35 1264.15 283.35 1261.75 286.3 1257.1 286.95 1252.65 287.65 1248.95 285.65 1246.9 291.1 1240.6 293.9 1234.3 296.9 1227.1 295.25 1220.05 293.6 1216.35 288.65 1212.45 283.65 1214.3 278.2 1213.0 282.0 1208.2 284.0 1203.35 286.15 1198.2 285.0 1194.1 284.0 1191.5 281.35 1188.9 278.7 1188.55 275.55 1187.6 278.55 1184.45 280.7 1181.15 282.65 1176.85 282.85 1173.7 282.85 1170.95 281.85 1174.3 290.45 1167.8 297.25 1162.4 302.85 1153.35 303.7 1144.25 304.65 1136.85 300.2 1135.75 305.0 1130.55 307.8 1125.35 310.45 1119.25 309.45 1113.15 308.5 1109.6 304.35 1105.9 300.2 1107.2 295.4 1094.8 296.25 1085.15 289.95 1075.5 283.85 1074.2 274.05 L1074.05 271.9 Q1066.05 273.55 1059.75 269.25 1055.5 271.4 1050.3 270.45 1045.3 269.45 1042.5 265.95 1039.95 262.5 1041.05 258.5 1042.15 254.7 1046.4 252.55 1043.45 253.75 1039.35 253.4 1036.2 260.5 1029.0 264.5 1020.45 269.25 1009.9 268.6 999.55 267.95 991.75 262.35 L991.75 263.3 Q991.4 264.65 989.7 265.45 988.25 266.3 986.35 265.95 989.15 266.65 990.45 268.8 991.75 270.75 990.8 272.9 990.1 275.05 987.5 276.05 L982.1 276.2 Q981.35 279.55 977.85 281.5 974.15 283.5 969.7 282.85 965.25 282.2 962.65 279.2 960.25 276.4 961.0 272.9 956.9 280.5 947.1 283.5 937.45 286.3 927.65 283.0 918.0 279.7 914.1 271.9 910.0 264.3 914.1 256.7 908.9 246.45 914.3 236.35 919.85 226.45 932.8 222.45 943.2 219.3 954.3 221.8 965.05 224.1 971.9 231.05 969.9 224.3 975.8 219.15 980.65 215.2 987.5 215.0 994.55 214.85 999.7 218.65 994.35 212.85 995.8 206.1 997.1 199.15 1004.35 195.15 1011.6 191.2 1020.45 192.35 1029.35 193.7 1034.55 199.3 1044.0 192.2 1057.15 192.5 1070.5 193.0 1079.75 200.65 1083.3 203.3 1085.35 206.9 L1087.9 205.6 Q1094.6 202.95 1102.2 203.75 L1102.0 203.1 Q1100.9 198.0 1104.6 193.85 1108.3 189.7 1114.8 188.9 1113.5 183.9 1117.2 179.8 1120.9 175.65 1127.2 174.8 1133.5 174.0 1138.9 176.95 1144.05 179.95 1145.35 184.9 1145.55 180.6 1149.45 177.8 1153.5 174.8 1158.9 175.0 1161.3 175.15 1163.55 176.0 1165.75 173.15 1169.45 173.0 1171.7 164.55 1180.95 160.1 1190.05 155.45 1200.8 157.45 1209.5 158.95 1215.05 164.25 1217.25 159.95 1223.0 158.1 1220.05 152.35 1221.7 146.35 1224.15 137.95 1233.2 133.45 1242.45 129.0 1253.2 131.0 1258.4 124.85 1267.85 123.55 1277.3 122.4 1285.3 126.7 1286.2 127.0 1286.75 127.7 1289.0 124.2 1292.5 121.55 1297.9 117.75 1305.3 116.6 L1319.4 117.1 Q1317.9 114.95 1317.9 112.8 1317.9 108.0 1322.55 105.0 1320.3 104.2 1319.4 102.35 1318.65 100.7 1319.4 98.9 1318.1 96.75 1319.2 94.45 1320.3 92.3 1322.9 91.3 L1322.9 294.9" fill="url(#gradient1)" fill-rule="evenodd" stroke="none"/>
    <path d="M528.65 258.2 Q537.75 264.5 538.65 274.25 539.6 283.85 531.8 291.25 524.0 297.55 513.1 297.55 501.95 297.55 494.2 291.25 491.2 288.8 489.0 285.5 482.3 288.95 474.35 287.95 466.2 286.8 461.2 281.7 458.05 286.0 451.95 287.15 445.8 288.15 440.65 285.5 435.45 282.85 434.15 278.05 432.65 273.25 435.8 268.95 433.2 269.1 430.25 268.3 L429.7 270.45 Q427.65 278.35 419.3 282.65 411.0 286.95 401.15 285.15 401.9 288.45 399.5 291.25 397.25 293.9 393.2 294.4 389.1 295.1 385.8 293.25 382.45 291.25 381.7 287.95 379.3 290.3 375.4 290.6 371.5 290.8 368.75 288.65 365.2 286.3 365.6 282.85 363.0 284.8 360.0 284.8 356.7 284.8 354.25 283.0 351.85 281.0 351.85 278.35 342.6 277.7 336.85 272.1 330.9 266.45 331.65 259.0 332.05 256.35 332.6 255.2 325.9 258.05 319.05 257.05 318.15 261.85 314.25 265.3 310.35 268.95 304.45 270.1 298.85 274.75 291.1 274.75 283.1 274.75 277.55 270.25 274.4 267.6 272.9 264.0 269.05 265.3 265.15 264.5 261.05 263.8 258.45 261.15 258.85 264.8 255.85 267.8 252.9 270.6 248.3 270.75 243.65 271.1 240.1 268.6 236.6 266.3 236.25 262.5 234.75 265.95 230.65 267.45 226.6 269.1 222.35 267.8 218.05 266.45 216.2 263.15 214.35 259.85 215.85 256.35 209.75 256.05 205.85 252.05 201.75 248.25 202.3 243.3 202.7 241.65 203.45 239.85 L201.75 238.5 Q202.5 241.3 201.2 243.95 200.1 246.8 197.15 248.45 193.05 250.75 188.4 250.1 183.6 249.6 180.65 246.3 174.7 246.1 170.65 242.8 166.55 239.35 166.55 234.55 166.55 233.2 167.1 231.9 161.9 230.55 159.9 226.45 159.9 230.75 155.05 232.55 150.8 234.05 146.9 231.9 148.4 234.7 146.35 237.35 144.85 239.5 141.9 240.15 138.75 240.65 136.15 239.35 129.3 242.8 121.5 241.3 113.75 239.85 109.5 234.35 106.5 230.55 106.5 226.25 106.5 221.95 109.1 218.15 105.75 217.65 104.85 215.0 100.4 214.05 97.8 211.2 L96.5 211.55 Q89.85 212.35 84.25 209.25 78.7 206.1 77.6 200.65 78.7 205.6 75.4 209.75 71.85 213.85 65.75 214.85 59.8 215.85 54.6 213.05 49.45 210.2 48.3 205.25 46.3 208.25 42.2 209.05 38.3 210.05 34.6 208.25 31.1 206.6 30.0 203.3 29.05 200.15 31.1 197.15 21.25 198.5 13.3 193.5 5.5 188.7 4.05 180.8 3.5 177.8 4.05 175.15 L0.15 176.3 0.15 53.6 Q10.35 52.4 19.4 56.2 28.85 60.2 33.5 67.8 L33.85 68.3 Q36.45 65.0 39.25 63.0 48.15 56.4 60.0 56.9 71.85 57.4 80.0 64.65 80.95 60.7 84.85 58.35 88.9 56.05 93.75 56.7 98.75 57.4 101.7 60.55 104.65 63.85 103.75 67.8 109.5 64.0 116.9 64.65 124.3 65.3 128.95 69.95 133.75 74.75 133.0 80.7 132.1 86.5 127.1 90.15 133.0 86.15 140.8 86.65 148.95 87.15 154.3 92.3 L155.25 93.3 Q160.45 92.3 165.25 94.25 168.6 92.3 172.3 93.95 173.4 88.8 177.5 84.85 181.75 80.85 188.05 79.2 197.3 76.75 205.85 80.2 214.55 83.7 217.5 91.15 221.2 91.6 223.45 94.1 225.65 96.4 225.1 99.4 224.55 102.85 220.5 104.85 226.05 105.2 228.45 109.3 231.4 114.1 227.35 117.9 233.1 115.3 239.2 117.45 240.3 115.45 241.25 114.6 245.7 110.15 252.7 109.5 259.95 108.85 265.3 112.45 271.05 111.3 276.05 113.8 281.25 116.25 282.75 120.9 283.85 124.35 282.35 127.7 280.9 130.8 277.55 132.8 L280.5 132.65 Q281.45 130.5 282.75 128.85 286.8 123.9 294.25 122.7 301.65 121.75 307.75 125.05 309.6 120.9 314.45 119.1 319.25 117.25 324.45 118.6 329.65 120.05 331.85 124.05 334.25 128.0 332.4 132.15 336.3 128.85 341.85 128.85 347.4 128.85 351.5 132.0 355.4 135.15 355.55 139.6 355.55 144.2 351.7 147.35 356.7 146.7 361.15 148.35 365.6 150.2 367.8 153.65 372.45 151.35 378.0 150.85 387.45 150.2 394.85 155.15 402.25 160.1 403.0 167.7 408.75 174.0 407.25 181.75 405.8 189.7 398.0 194.35 L395.8 195.5 Q396.35 199.65 393.55 203.6 398.95 204.75 399.3 209.25 L403.95 209.55 Q406.35 210.2 408.0 211.55 413.0 213.05 415.25 217.15 L415.6 217.15 Q412.3 211.9 412.85 206.1 413.2 199.95 417.45 195.0 423.95 187.75 434.7 186.05 445.65 184.4 454.7 189.55 457.3 187.05 461.4 186.9 465.3 186.55 468.45 188.7 471.4 190.85 471.75 194.0 474.75 190.85 480.1 190.55 484.75 190.55 488.05 193.0 491.4 195.65 491.6 199.3 495.3 196.65 500.3 197.0 505.3 197.3 508.25 200.45 511.6 203.6 511.25 207.6 510.7 211.55 506.95 214.2 517.7 218.5 521.45 227.75 524.95 236.85 519.55 245.6 516.8 249.9 512.7 252.55 522.0 253.4 528.65 258.2" fill="url(#gradient2)" fill-rule="evenodd" stroke="none"/>
    <path d="M579.45 234.7 Q580.35 242.65 573.15 248.95 565.9 255.2 554.6 256.35 557.75 258.5 557.95 261.5 557.95 264.65 554.8 266.95 552.35 268.95 548.65 269.45 545.15 269.95 542.0 268.8 548.65 272.4 549.95 278.2 551.25 284.0 546.65 289.3 542.55 294.1 535.15 296.25 527.75 298.2 520.5 296.75 527.35 299.55 530.15 304.65 532.9 309.95 530.3 315.6 527.15 322.05 518.45 325.35 509.75 328.65 500.65 326.85 499.35 332.45 493.8 336.75 488.25 340.9 480.65 342.4 479.75 348.65 473.6 353.45 467.3 358.45 458.25 359.75 462.15 367.55 458.25 375.45 454.55 383.4 444.9 388.35 450.8 397.3 446.35 407.25 441.75 417.15 428.95 422.8 424.15 429.05 414.5 431.4 404.85 433.7 396.15 430.55 387.45 427.4 384.65 420.8 381.9 414.15 386.7 407.9 379.1 409.55 372.25 406.9 365.6 404.25 363.55 398.95 362.6 396.0 363.15 393.5 L358.15 393.85 Q350.95 393.65 346.3 389.85 341.85 386.05 342.6 380.95 332.6 378.95 328.15 372.8 322.75 372.0 318.3 369.85 317.6 370.35 316.85 370.65 319.25 377.45 314.05 383.75 308.7 390.0 298.85 392.0 289.05 394.15 280.35 390.7 271.8 387.2 269.4 380.45 264.95 382.6 259.75 382.4 254.75 382.1 251.25 379.6 247.0 381.75 241.8 381.4 236.6 381.25 233.1 378.6 231.05 380.75 227.35 381.25 223.8 381.75 220.85 380.45 217.9 379.1 217.15 376.65 216.6 374.15 218.8 372.0 218.05 370.0 219.75 368.2 221.2 366.35 224.2 365.7 219.35 361.75 221.05 356.6 221.6 354.15 223.8 352.15 215.1 353.15 206.95 351.0 198.8 348.85 193.4 343.85 190.1 340.9 188.25 336.75 L186.0 337.6 Q175.45 341.25 164.7 338.6 153.95 336.1 149.3 328.8 136.0 329.5 126.55 323.55 116.9 317.4 116.5 308.15 116.35 301.55 121.35 295.4 115.05 292.95 113.55 287.95 105.2 292.75 94.85 293.25 81.5 294.1 72.05 287.95 62.4 281.85 62.05 272.6 57.6 271.9 55.9 268.6 L50.2 268.95 Q43.7 268.45 39.8 264.8 35.9 261.35 37.0 256.7 34.05 261.85 27.0 264.3 19.8 266.8 12.55 264.95 5.15 263.3 2.2 258.35 -0.95 253.55 1.8 248.25 L0.15 247.75 0.15 133.8 Q11.1 130.5 22.75 132.5 22.75 127.2 28.15 123.2 33.5 119.25 41.1 118.9 48.7 118.75 54.05 122.2 59.45 125.7 59.45 131.0 69.25 127.35 79.85 129.5 90.2 131.65 95.0 138.45 100.95 146.35 94.65 155.3 97.8 154.65 101.9 155.15 106.9 155.8 110.05 158.45 113.35 161.1 113.75 164.55 114.85 161.1 118.75 158.6 122.65 156.15 127.8 155.65 134.3 154.95 139.3 157.8 144.3 160.6 144.7 164.9 144.15 158.8 150.05 154.0 156.0 149.0 164.9 148.2 173.8 147.55 180.65 151.35 187.3 155.3 187.85 161.45 193.05 159.75 198.05 161.1 203.25 162.25 205.3 165.9 207.5 169.35 205.45 173.0 203.8 176.15 200.1 177.8 207.15 175.3 215.1 176.65 223.8 178.15 228.1 183.6 L229.35 185.75 Q235.85 185.4 240.5 188.4 237.35 185.25 238.45 181.1 239.55 177.15 244.2 174.8 249.0 172.35 254.75 173.0 260.3 173.5 263.45 176.8 267.9 173.35 274.2 172.85 274.2 163.6 282.95 155.8 292.95 146.7 308.85 145.05 324.6 143.4 336.85 150.0 347.25 148.85 355.4 153.0 363.55 157.15 364.85 164.25 365.95 170.05 361.7 175.3 357.6 180.45 350.0 183.1 353.7 183.45 355.75 185.25 358.7 187.55 357.4 190.7 362.25 186.4 370.05 184.9 377.8 183.25 385.05 185.4 393.55 188.05 396.7 194.2 399.85 200.3 395.8 206.6 399.5 206.4 402.25 208.05 404.85 209.75 404.85 212.35 405.05 215.0 402.45 217.0 399.85 219.0 396.15 219.15 L396.15 219.5 Q402.85 218.0 410.8 218.5 426.2 212.05 442.5 216.0 450.45 214.35 458.05 216.35 465.45 218.5 469.15 223.3 481.6 215.2 497.5 215.2 499.0 207.4 507.9 202.6 516.6 197.65 527.55 198.3 538.45 198.95 544.95 204.95 551.45 210.9 549.8 218.5 561.1 217.35 569.8 222.15 578.5 226.95 579.45 234.7" fill="url(#gradient3)" fill-rule="evenodd" stroke="none"/>
    <path d="M1322.75 457.8 L1322.75 966.75 0.0 966.75 0.0 457.8 1322.75 457.8" fill="url(#gradient4)" fill-rule="evenodd" stroke="none"/>
  </g>
  <defs>
    <linearGradient gradientTransform="matrix(0.0, 0.0973, 0.2273, 0.0, 661.5, 187.7)" gradientUnits="userSpaceOnUse" id="gradient0" spreadMethod="pad" x1="-819.2" x2="819.2">
      <stop offset="0.0" stop-color="#55b9df"/>
      <stop offset="0.9333333333333333" stop-color="#e3eff5"/>
    </linearGradient>
    <linearGradient gradientTransform="matrix(0.1686, 0.2039, 0.2366, -0.1635, 1236.35, 327.35)" gradientUnits="userSpaceOnUse" id="gradient1" spreadMethod="pad" x1="-819.2" x2="819.2">
      <stop offset="0.011764705882352941" stop-color="#ffffff"/>
      <stop offset="0.49019607843137253" stop-color="#d1edfb"/>
      <stop offset="0.9568627450980393" stop-color="#77d1f6"/>
    </linearGradient>
    <linearGradient gradientTransform="matrix(-0.6424, 0.1942, 0.2176, 0.5734, -101.95, 284.65)" gradientUnits="userSpaceOnUse" id="gradient2" spreadMethod="pad" x1="-819.2" x2="819.2">
      <stop offset="0.011764705882352941" stop-color="#ffffff"/>
      <stop offset="0.49019607843137253" stop-color="#d1edfb"/>
      <stop offset="0.9568627450980393" stop-color="#77d1f6"/>
    </linearGradient>
    <linearGradient gradientTransform="matrix(-0.3373, 0.2502, 0.2292, 0.2534, 153.95, 316.1)" gradientUnits="userSpaceOnUse" id="gradient3" spreadMethod="pad" x1="-819.2" x2="819.2">
      <stop offset="0.011764705882352941" stop-color="#ffffff"/>
      <stop offset="0.49019607843137253" stop-color="#d1edfb"/>
      <stop offset="0.9568627450980393" stop-color="#77d1f6"/>
    </linearGradient>
    <linearGradient gradientTransform="matrix(0.0, -0.3741, -0.2659, 0.0, 661.35, 764.15)" gradientUnits="userSpaceOnUse" id="gradient4" spreadMethod="pad" x1="-819.2" x2="819.2">
      <stop offset="0.0" stop-color="#ffd28b"/>
      <stop offset="1.0" stop-color="#e2d79b"/>
    </linearGradient>
  </defs>
</svg>
