<?xml version="1.0" encoding="UTF-8" standalone="no"?>
<svg xmlns:xlink="http://www.w3.org/1999/xlink" height="35.75px" width="100.75px" xmlns="http://www.w3.org/2000/svg">
  <g transform="matrix(1.0, 0.0, 0.0, 1.0, 0.6, 0.6)">
    <path d="M0.0 14.5 Q8.35 5.5 28.45 8.45 41.3 20.6 39.5 25.8 13.15 47.8 0.0 14.5 M99.45 2.8 Q101.2 33.75 71.6 23.4 66.0 10.35 79.4 3.95 92.6 -3.3 99.45 2.8" fill="#cc6f0f" fill-rule="evenodd" stroke="none"/>
    <path d="M99.45 2.8 Q92.6 -3.3 79.4 3.95 66.0 10.35 71.6 23.4 101.2 33.75 99.45 2.8 M0.0 14.5 Q13.15 47.8 39.5 25.8 41.3 20.6 28.45 8.45 8.35 5.5 0.0 14.5" fill="none" stroke="#4d2b06" stroke-linecap="round" stroke-linejoin="round" stroke-width="1.2000000000000002"/>
  </g>
</svg>
