<?xml version="1.0" encoding="UTF-8" standalone="no"?>
<svg xmlns:xlink="http://www.w3.org/1999/xlink" height="263.15px" width="391.7px" xmlns="http://www.w3.org/2000/svg">
  <g transform="matrix(1.0, 0.0, 0.0, 1.0, 195.85, 131.6)">
    <path d="M-120.25 124.1 L-120.25 114.5 Q-119.75 101.8 -116.45 87.05 -109.55 55.0 -72.8 4.2 -57.75 -17.15 -41.35 -33.2 -24.1 -50.05 -8.2 -58.35 4.95 -65.45 18.7 -68.9 25.45 -70.55 29.55 -71.05 26.1 -69.75 20.35 -66.75 8.85 -60.8 -1.3 -52.55 -13.3 -43.3 -27.9 -26.05 -39.5 -12.5 -56.6 11.0 -79.55 40.9 -87.25 51.85 -102.0 72.85 -107.95 87.05 -113.65 100.65 -117.45 113.85 L-120.25 124.1" fill="url(#gradient0)" fill-rule="evenodd" stroke="none"/>
    <path d="M-60.35 86.75 Q-61.85 84.75 -63.8 80.6 -67.75 72.35 -68.55 61.6 -69.7 48.05 -64.45 30.85 -58.7 12.15 -47.05 -4.9 -30.0 -30.05 1.5 -56.2 L24.1 -73.9 Q19.85 -65.1 10.2 -51.7 L-7.85 -27.9 Q-21.3 -10.55 -29.85 1.55 -53.8 35.6 -58.9 60.25 -61.0 70.2 -60.85 79.45 -60.7 84.1 -60.35 86.75" fill="url(#gradient1)" fill-rule="evenodd" stroke="none"/>
    <path d="M-28.35 64.4 Q-26.9 51.65 -25.6 38.75 -23.3 20.25 -21.5 11.45 -18.05 -6.4 -11.8 -21.45 -5.25 -37.8 6.55 -51.7 17.4 -64.6 29.85 -71.9 39.55 -77.7 49.7 -81.15 54.8 -83.0 57.75 -83.65 55.6 -82.15 52.0 -79.35 44.65 -73.55 38.25 -66.6 21.5 -49.55 7.7 -17.0 3.45 -7.05 -4.9 13.6 -12.3 31.8 -15.9 39.75 -22.65 55.0 -28.35 64.4" fill="url(#gradient2)" fill-rule="evenodd" stroke="none"/>
    <path d="M-195.85 131.55 Q-193.4 115.85 -186.85 93.35 -174.05 51.5 -153.7 22.25 -142.2 6.2 -126.95 -6.25 -113.35 -17.45 -100.2 -22.75 -84.3 -29.4 -73.65 -29.9 -83.8 -26.05 -97.45 -17.15 -122.35 -0.6 -143.5 28.35 -165.2 57.3 -181.9 94.2 -191.6 115.85 -195.85 131.55" fill="url(#gradient3)" fill-rule="evenodd" stroke="none"/>
    <path d="M12.5 49.2 Q12.95 40.6 10.0 27.35 L7.9 16.45 Q6.75 9.15 6.55 3.2 7.05 -12.7 12.3 -26.75 21.5 -49.75 44.45 -72.2 54.8 -82.0 62.2 -87.6 L60.2 -82.3 Q57.6 -75.35 54.15 -68.1 L43.95 -47.25 Q36.75 -32.55 32.5 -21.95 28.4 -12.0 23.95 4.2 22.3 12.3 20.2 27.2 18.7 35.8 15.45 43.4 L12.5 49.2" fill="url(#gradient4)" fill-rule="evenodd" stroke="none"/>
    <path d="M36.6 29.5 Q34.8 22.25 34.3 10.65 33.3 -12.7 40.55 -33.85 47.6 -54.55 64.15 -72.2 72.5 -81.0 79.05 -85.8 79.25 -85.6 74.15 -68.75 68.1 -48.55 61.2 -28.7 49.7 2.7 36.6 29.5" fill="url(#gradient5)" fill-rule="evenodd" stroke="none"/>
    <path d="M47.75 29.15 Q45.75 21.4 46.45 9.0 47.25 -12.7 59.25 -37.0 64.15 -47.25 71.85 -59.3 L83.2 -76.85 Q89.55 -86.6 93.2 -92.9 L94.0 -87.6 Q94.8 -80.85 94.0 -73.55 92.2 -55.35 79.75 -30.4 75.15 -21.45 67.25 -7.7 L56.75 11.0 47.75 29.15" fill="url(#gradient6)" fill-rule="evenodd" stroke="none"/>
    <path d="M69.25 11.3 Q67.25 4.05 68.9 -7.05 71.55 -26.25 82.35 -47.1 86.45 -55.0 93.5 -66.6 100.75 -78.35 102.7 -82.15 107.45 -91.1 108.45 -97.55 L110.75 -92.55 Q113.35 -86.1 113.7 -79.35 115.15 -61.65 103.2 -39.65 98.25 -30.55 90.7 -19.8 L79.4 -4.1 Q75.15 1.55 71.85 7.0 L69.25 11.3" fill="url(#gradient7)" fill-rule="evenodd" stroke="none"/>
    <path d="M110.9 -12.7 Q108.95 -19.3 108.75 -29.55 108.25 -50.25 117.8 -67.1 126.95 -83.65 147.15 -94.2 157.15 -99.5 165.2 -101.5 152.75 -82.0 139.3 -58.15 112.35 -14.15 110.9 -12.7" fill="url(#gradient8)" fill-rule="evenodd" stroke="none"/>
    <path d="M136.15 -72.05 Q143.2 -82.15 153.55 -89.6 163.2 -96.55 173.7 -99.85 183.9 -103.15 195.85 -102.35 L195.85 -100.85 Q189.0 -98.2 183.4 -92.9 172.9 -83.65 157.65 -62.15 141.25 -39.15 136.5 -26.9 133.85 -20.8 133.85 -14.5 134.05 -11.35 134.5 -9.55 132.7 -11.35 130.4 -14.85 126.15 -21.75 125.35 -29.55 123.85 -39.15 126.5 -49.9 129.25 -61.65 136.15 -72.05" fill="url(#gradient9)" fill-rule="evenodd" stroke="none"/>
    <path d="M168.3 -76.35 Q177.5 -88.45 195.85 -94.7 L195.85 -71.55 190.15 -64.95 Q177.65 -50.9 168.15 -33.2 L161.1 -18.3 Q158.0 -25.75 157.0 -37.15 156.15 -46.6 158.45 -56.0 161.4 -67.25 168.3 -76.35" fill="url(#gradient10)" fill-rule="evenodd" stroke="none"/>
    <path d="M195.85 -72.7 L195.85 -32.85 186.7 -21.6 Q185.2 -28.7 185.35 -38.5 186.05 -57.85 195.85 -72.7" fill="url(#gradient11)" fill-rule="evenodd" stroke="none"/>
    <path d="M-186.65 -17.45 L-179.45 -18.45 Q-169.95 -19.8 -159.25 -22.95 -149.45 -25.75 -128.6 -33.7 L-89.7 -48.25 Q-48.55 -62.8 -13.45 -67.1 L11.5 -68.6 20.85 -68.4 Q8.2 -65.75 -10.65 -59.65 -22.45 -55.85 -44.1 -48.05 L-85.3 -33.0 Q-135.8 -14.65 -161.1 -13.5 -172.25 -13.0 -180.6 -15.3 -186.5 -17.65 -186.65 -17.45" fill="url(#gradient12)" fill-rule="evenodd" stroke="none"/>
    <path d="M-160.75 -51.2 Q-156.8 -53.05 -153.05 -55.0 -142.85 -59.5 -131.2 -62.95 -103.0 -71.55 -57.9 -74.7 L-16.9 -77.35 17.05 -80.0 49.05 -83.95 Q39.4 -78.85 20.5 -72.7 -10.5 -62.65 -58.05 -58.85 L-99.55 -56.35 -131.9 -54.35 -153.05 -52.2 -160.75 -51.2" fill="url(#gradient13)" fill-rule="evenodd" stroke="none"/>
    <path d="M-129.25 -87.3 L-136.0 -87.75 -128.6 -89.9 Q-118.9 -92.25 -108.25 -92.4 L-79.05 -91.6 -43.45 -91.6 Q2.95 -91.6 26.25 -89.1 44.95 -87.3 56.75 -84.45 L27.25 -81.65 -4.6 -78.2 -44.45 -75.85 Q-65.6 -75.7 -83.15 -78.0 -90.2 -79.0 -98.6 -81.0 L-111.2 -83.95 Q-120.4 -86.3 -129.25 -87.3" fill="url(#gradient14)" fill-rule="evenodd" stroke="none"/>
    <path d="M-106.1 -105.65 L-81.5 -108.6 Q-51.5 -111.1 -23.1 -108.95 6.1 -106.65 37.55 -100.2 53.3 -97.05 63.35 -94.2 L37.55 -92.55 Q5.4 -91.4 -25.25 -93.55 -54.6 -95.4 -83.3 -100.85 L-106.1 -105.65" fill="url(#gradient15)" fill-rule="evenodd" stroke="none"/>
    <path d="M-102.0 -114.25 L-76.1 -117.4 -47.75 -119.55 Q-29.05 -120.7 -12.45 -119.85 23.45 -118.2 54.65 -107.95 72.0 -102.5 81.7 -96.85 70.55 -99.2 53.15 -101.0 L-13.1 -104.65 Q-57.25 -106.3 -77.4 -109.3 -87.1 -110.6 -95.6 -112.6 L-102.0 -114.25" fill="url(#gradient16)" fill-rule="evenodd" stroke="none"/>
    <path d="M-71.7 -126.3 L-47.4 -128.8 Q-13.6 -131.75 12.3 -129.6 46.75 -126.3 74.65 -114.05 84.5 -109.75 92.2 -104.65 L97.95 -100.7 Q87.75 -104.5 72.0 -107.45 52.85 -111.1 11.5 -114.55 -31.3 -118.2 -48.2 -121.0 -57.55 -122.5 -65.6 -124.5 L-71.7 -126.3" fill="url(#gradient17)" fill-rule="evenodd" stroke="none"/>
    <path d="M44.15 -131.6 Q63.35 -128.8 77.95 -125.8 106.65 -119.55 137.8 -109.95 153.4 -105.15 163.4 -101.65 L138.8 -102.65 Q107.6 -105.15 76.45 -111.6 41.0 -118.7 7.55 -131.6 L44.15 -131.6" fill="url(#gradient18)" fill-rule="evenodd" stroke="none"/>
    <path d="M96.8 -129.8 Q117.45 -125.15 165.85 -111.75 184.4 -106.3 195.55 -104.5 L189.0 -103.65 168.15 -104.3 Q136.5 -107.15 95.95 -115.75 63.15 -122.7 38.7 -131.6 L88.25 -131.6 96.8 -129.8" fill="url(#gradient19)" fill-rule="evenodd" stroke="none"/>
    <path d="M96.3 -131.6 L143.4 -131.6 Q170.95 -123.35 195.85 -114.75 L195.85 -107.8 Q163.4 -112.75 126.95 -122.5 112.35 -126.3 96.3 -131.6" fill="url(#gradient20)" fill-rule="evenodd" stroke="none"/>
    <path d="M142.7 -131.6 L180.8 -131.6 195.85 -125.5 195.85 -114.75 142.7 -131.6" fill="url(#gradient21)" fill-rule="evenodd" stroke="none"/>
    <path d="M178.3 -131.6 L195.85 -131.6 195.85 -124.0 178.3 -131.6" fill="url(#gradient22)" fill-rule="evenodd" stroke="none"/>
    <path d="M-125.8 110.9 Q-126.95 109.4 -128.25 105.6 -130.75 98.15 -129.9 87.4 -129.1 74.15 -123.35 57.6 -116.95 39.6 -106.3 22.7 -88.75 -4.4 -61.85 -26.9 -48.4 -38.0 -38.85 -43.95 L-55.45 -23.6 Q-76.45 2.4 -93.0 26.7 -115.65 61.1 -122.7 85.4 -125.8 95.5 -125.95 104.25 -126.15 108.55 -125.8 110.9" fill="url(#gradient23)" fill-rule="evenodd" stroke="none"/>
    <path d="M-153.2 97.8 Q-140.55 55.45 -125.0 27.5 -115.3 9.8 -101.85 -5.25 -89.4 -18.95 -76.75 -27.25 -67.1 -33.5 -56.9 -37.5 L-49.05 -40.15 -55.6 -35.85 Q-64.15 -30.05 -71.5 -22.95 -91.85 -4.1 -111.85 30.65 -127.45 56.8 -147.15 97.65 -161.4 128.25 -162.05 131.05 -159.1 117.65 -153.2 97.8" fill="url(#gradient24)" fill-rule="evenodd" stroke="none"/>
    <path d="M10.35 -70.4 Q37.55 -82.3 68.4 -88.95 81.85 -91.9 104.85 -95.05 L143.55 -100.2 Q169.3 -104.0 195.85 -104.3 L195.85 -101.35 Q170.6 -100.85 146.0 -97.2 L106.8 -92.05 Q83.0 -89.25 70.05 -86.6 39.2 -80.35 11.35 -69.1 -8.85 -61.0 -25.25 -51.4 L-37.7 -43.45 -25.75 -51.7 Q-9.65 -61.65 10.35 -70.4" fill="url(#gradient25)" fill-rule="evenodd" stroke="none"/>
  </g>
  <defs>
    <radialGradient cx="0" cy="0" gradientTransform="matrix(0.5413, 0.2553, 0.3067, -0.3597, 127.65, -191.0)" gradientUnits="userSpaceOnUse" id="gradient0" r="819.2" spreadMethod="pad">
      <stop offset="0.0" stop-color="#84c341"/>
      <stop offset="0.09019607843137255" stop-color="#74b33c"/>
      <stop offset="0.38823529411764707" stop-color="#42812c"/>
      <stop offset="0.6509803921568628" stop-color="#1e5c21"/>
      <stop offset="0.8627450980392157" stop-color="#08461a"/>
      <stop offset="1.0" stop-color="#003e17"/>
    </radialGradient>
    <radialGradient cx="0" cy="0" gradientTransform="matrix(0.5615, 0.2649, 0.3181, -0.3731, 304.8, -182.55)" gradientUnits="userSpaceOnUse" id="gradient1" r="819.2" spreadMethod="pad">
      <stop offset="0.0" stop-color="#84c341"/>
      <stop offset="0.09019607843137255" stop-color="#74b33c"/>
      <stop offset="0.38823529411764707" stop-color="#42812c"/>
      <stop offset="0.6509803921568628" stop-color="#1e5c21"/>
      <stop offset="0.8627450980392157" stop-color="#08461a"/>
      <stop offset="1.0" stop-color="#003e17"/>
    </radialGradient>
    <radialGradient cx="0" cy="0" gradientTransform="matrix(0.5372, 0.2534, 0.3044, -0.3569, 281.15, -181.9)" gradientUnits="userSpaceOnUse" id="gradient2" r="819.2" spreadMethod="pad">
      <stop offset="0.0" stop-color="#84c341"/>
      <stop offset="0.09019607843137255" stop-color="#74b33c"/>
      <stop offset="0.38823529411764707" stop-color="#42812c"/>
      <stop offset="0.6509803921568628" stop-color="#1e5c21"/>
      <stop offset="0.8627450980392157" stop-color="#08461a"/>
      <stop offset="1.0" stop-color="#003e17"/>
    </radialGradient>
    <radialGradient cx="0" cy="0" gradientTransform="matrix(0.3214, 0.418, 0.5993, -0.1774, 344.65, 168.1)" gradientUnits="userSpaceOnUse" id="gradient3" r="819.2" spreadMethod="pad">
      <stop offset="0.0" stop-color="#84c341"/>
      <stop offset="0.09019607843137255" stop-color="#74b33c"/>
      <stop offset="0.38823529411764707" stop-color="#42812c"/>
      <stop offset="0.6509803921568628" stop-color="#1e5c21"/>
      <stop offset="0.8627450980392157" stop-color="#08461a"/>
      <stop offset="1.0" stop-color="#003e17"/>
    </radialGradient>
    <radialGradient cx="0" cy="0" gradientTransform="matrix(0.7303, 0.3445, 0.4137, -0.4853, 444.7, -41.8)" gradientUnits="userSpaceOnUse" id="gradient4" r="819.2" spreadMethod="pad">
      <stop offset="0.0" stop-color="#84c341"/>
      <stop offset="0.09019607843137255" stop-color="#74b33c"/>
      <stop offset="0.38823529411764707" stop-color="#42812c"/>
      <stop offset="0.6509803921568628" stop-color="#1e5c21"/>
      <stop offset="0.8627450980392157" stop-color="#08461a"/>
      <stop offset="1.0" stop-color="#003e17"/>
    </radialGradient>
    <radialGradient cx="0" cy="0" gradientTransform="matrix(0.5073, 0.2393, 0.2874, -0.3371, 252.8, -183.4)" gradientUnits="userSpaceOnUse" id="gradient5" r="819.2" spreadMethod="pad">
      <stop offset="0.0" stop-color="#84c341"/>
      <stop offset="0.09019607843137255" stop-color="#74b33c"/>
      <stop offset="0.38823529411764707" stop-color="#42812c"/>
      <stop offset="0.6509803921568628" stop-color="#1e5c21"/>
      <stop offset="0.8627450980392157" stop-color="#08461a"/>
      <stop offset="1.0" stop-color="#003e17"/>
    </radialGradient>
    <radialGradient cx="0" cy="0" gradientTransform="matrix(0.5009, 0.2363, 0.2837, -0.3328, 249.2, -181.75)" gradientUnits="userSpaceOnUse" id="gradient6" r="819.2" spreadMethod="pad">
      <stop offset="0.0" stop-color="#84c341"/>
      <stop offset="0.09019607843137255" stop-color="#74b33c"/>
      <stop offset="0.38823529411764707" stop-color="#42812c"/>
      <stop offset="0.6509803921568628" stop-color="#1e5c21"/>
      <stop offset="0.8627450980392157" stop-color="#08461a"/>
      <stop offset="1.0" stop-color="#003e17"/>
    </radialGradient>
    <radialGradient cx="0" cy="0" gradientTransform="matrix(0.4361, 0.2057, 0.247, -0.2897, 106.0, -168.35)" gradientUnits="userSpaceOnUse" id="gradient7" r="819.2" spreadMethod="pad">
      <stop offset="0.0" stop-color="#84c341"/>
      <stop offset="0.09019607843137255" stop-color="#74b33c"/>
      <stop offset="0.38823529411764707" stop-color="#42812c"/>
      <stop offset="0.6509803921568628" stop-color="#1e5c21"/>
      <stop offset="0.8627450980392157" stop-color="#08461a"/>
      <stop offset="1.0" stop-color="#003e17"/>
    </radialGradient>
    <radialGradient cx="0" cy="0" gradientTransform="matrix(0.4587, 0.2164, 0.2599, -0.3048, 240.5, -165.85)" gradientUnits="userSpaceOnUse" id="gradient8" r="819.2" spreadMethod="pad">
      <stop offset="0.0" stop-color="#84c341"/>
      <stop offset="0.09019607843137255" stop-color="#74b33c"/>
      <stop offset="0.38823529411764707" stop-color="#42812c"/>
      <stop offset="0.6509803921568628" stop-color="#1e5c21"/>
      <stop offset="0.8627450980392157" stop-color="#08461a"/>
      <stop offset="1.0" stop-color="#003e17"/>
    </radialGradient>
    <radialGradient cx="0" cy="0" gradientTransform="matrix(0.4401, 0.2076, 0.2493, -0.2924, 239.35, -156.9)" gradientUnits="userSpaceOnUse" id="gradient9" r="819.2" spreadMethod="pad">
      <stop offset="0.0" stop-color="#84c341"/>
      <stop offset="0.09019607843137255" stop-color="#74b33c"/>
      <stop offset="0.38823529411764707" stop-color="#42812c"/>
      <stop offset="0.6509803921568628" stop-color="#1e5c21"/>
      <stop offset="0.8627450980392157" stop-color="#08461a"/>
      <stop offset="1.0" stop-color="#003e17"/>
    </radialGradient>
    <radialGradient cx="0" cy="0" gradientTransform="matrix(0.3713, 0.1752, 0.2104, -0.2467, 115.65, -140.2)" gradientUnits="userSpaceOnUse" id="gradient10" r="819.2" spreadMethod="pad">
      <stop offset="0.0" stop-color="#84c341"/>
      <stop offset="0.09019607843137255" stop-color="#74b33c"/>
      <stop offset="0.38823529411764707" stop-color="#42812c"/>
      <stop offset="0.6509803921568628" stop-color="#1e5c21"/>
      <stop offset="0.8627450980392157" stop-color="#08461a"/>
      <stop offset="1.0" stop-color="#003e17"/>
    </radialGradient>
    <radialGradient cx="0" cy="0" gradientTransform="matrix(0.3973, 0.1874, 0.2251, -0.264, 247.55, -135.1)" gradientUnits="userSpaceOnUse" id="gradient11" r="819.2" spreadMethod="pad">
      <stop offset="0.0" stop-color="#84c341"/>
      <stop offset="0.09019607843137255" stop-color="#74b33c"/>
      <stop offset="0.38823529411764707" stop-color="#42812c"/>
      <stop offset="0.6509803921568628" stop-color="#1e5c21"/>
      <stop offset="0.8627450980392157" stop-color="#08461a"/>
      <stop offset="1.0" stop-color="#003e17"/>
    </radialGradient>
    <radialGradient cx="0" cy="0" gradientTransform="matrix(-0.101, -0.4132, 0.5755, -0.0298, 258.7, -176.25)" gradientUnits="userSpaceOnUse" id="gradient12" r="819.2" spreadMethod="pad">
      <stop offset="0.0" stop-color="#84c341"/>
      <stop offset="0.09019607843137255" stop-color="#74b33c"/>
      <stop offset="0.38823529411764707" stop-color="#42812c"/>
      <stop offset="0.6509803921568628" stop-color="#1e5c21"/>
      <stop offset="0.8627450980392157" stop-color="#08461a"/>
      <stop offset="1.0" stop-color="#003e17"/>
    </radialGradient>
    <radialGradient cx="0" cy="0" gradientTransform="matrix(-0.1374, -0.5619, 0.7826, -0.0405, 419.6, -52.85)" gradientUnits="userSpaceOnUse" id="gradient13" r="819.2" spreadMethod="pad">
      <stop offset="0.0" stop-color="#84c341"/>
      <stop offset="0.09019607843137255" stop-color="#74b33c"/>
      <stop offset="0.38823529411764707" stop-color="#42812c"/>
      <stop offset="0.6509803921568628" stop-color="#1e5c21"/>
      <stop offset="0.8627450980392157" stop-color="#08461a"/>
      <stop offset="1.0" stop-color="#003e17"/>
    </radialGradient>
    <radialGradient cx="0" cy="0" gradientTransform="matrix(-0.0977, -0.3996, 0.5565, -0.0288, 313.15, -80.35)" gradientUnits="userSpaceOnUse" id="gradient14" r="819.2" spreadMethod="pad">
      <stop offset="0.0" stop-color="#84c341"/>
      <stop offset="0.09019607843137255" stop-color="#74b33c"/>
      <stop offset="0.38823529411764707" stop-color="#42812c"/>
      <stop offset="0.6509803921568628" stop-color="#1e5c21"/>
      <stop offset="0.8627450980392157" stop-color="#08461a"/>
      <stop offset="1.0" stop-color="#003e17"/>
    </radialGradient>
    <radialGradient cx="0" cy="0" gradientTransform="matrix(-0.1007, -0.412, 0.5738, -0.0297, 273.3, -140.05)" gradientUnits="userSpaceOnUse" id="gradient15" r="819.2" spreadMethod="pad">
      <stop offset="0.0" stop-color="#84c341"/>
      <stop offset="0.09019607843137255" stop-color="#74b33c"/>
      <stop offset="0.38823529411764707" stop-color="#42812c"/>
      <stop offset="0.6509803921568628" stop-color="#1e5c21"/>
      <stop offset="0.8627450980392157" stop-color="#08461a"/>
      <stop offset="1.0" stop-color="#003e17"/>
    </radialGradient>
    <radialGradient cx="0" cy="0" gradientTransform="matrix(-0.0987, -0.4036, 0.5622, -0.0291, 316.95, -74.55)" gradientUnits="userSpaceOnUse" id="gradient16" r="819.2" spreadMethod="pad">
      <stop offset="0.0" stop-color="#84c341"/>
      <stop offset="0.09019607843137255" stop-color="#74b33c"/>
      <stop offset="0.38823529411764707" stop-color="#42812c"/>
      <stop offset="0.6509803921568628" stop-color="#1e5c21"/>
      <stop offset="0.8627450980392157" stop-color="#08461a"/>
      <stop offset="1.0" stop-color="#003e17"/>
    </radialGradient>
    <radialGradient cx="0" cy="0" gradientTransform="matrix(-0.1409, -0.5762, 0.8025, -0.0415, 428.95, -44.45)" gradientUnits="userSpaceOnUse" id="gradient17" r="819.2" spreadMethod="pad">
      <stop offset="0.0" stop-color="#84c341"/>
      <stop offset="0.09019607843137255" stop-color="#74b33c"/>
      <stop offset="0.38823529411764707" stop-color="#42812c"/>
      <stop offset="0.6509803921568628" stop-color="#1e5c21"/>
      <stop offset="0.8627450980392157" stop-color="#08461a"/>
      <stop offset="1.0" stop-color="#003e17"/>
    </radialGradient>
    <radialGradient cx="0" cy="0" gradientTransform="matrix(-0.097, -0.4229, 0.5897, -0.0259, 291.85, -148.15)" gradientUnits="userSpaceOnUse" id="gradient18" r="819.2" spreadMethod="pad">
      <stop offset="0.0" stop-color="#84c341"/>
      <stop offset="0.09019607843137255" stop-color="#74b33c"/>
      <stop offset="0.38823529411764707" stop-color="#42812c"/>
      <stop offset="0.6509803921568628" stop-color="#1e5c21"/>
      <stop offset="0.8627450980392157" stop-color="#08461a"/>
      <stop offset="1.0" stop-color="#003e17"/>
    </radialGradient>
    <radialGradient cx="0" cy="0" gradientTransform="matrix(-0.1063, -0.4635, 0.6464, -0.0284, 337.6, -17.65)" gradientUnits="userSpaceOnUse" id="gradient19" r="819.2" spreadMethod="pad">
      <stop offset="0.0" stop-color="#84c341"/>
      <stop offset="0.09019607843137255" stop-color="#74b33c"/>
      <stop offset="0.38823529411764707" stop-color="#42812c"/>
      <stop offset="0.6509803921568628" stop-color="#1e5c21"/>
      <stop offset="0.8627450980392157" stop-color="#08461a"/>
      <stop offset="1.0" stop-color="#003e17"/>
    </radialGradient>
    <radialGradient cx="0" cy="0" gradientTransform="matrix(-0.1004, -0.4378, 0.6105, -0.0268, 300.2, -126.3)" gradientUnits="userSpaceOnUse" id="gradient20" r="819.2" spreadMethod="pad">
      <stop offset="0.0" stop-color="#84c341"/>
      <stop offset="0.09019607843137255" stop-color="#74b33c"/>
      <stop offset="0.38823529411764707" stop-color="#42812c"/>
      <stop offset="0.6509803921568628" stop-color="#1e5c21"/>
      <stop offset="0.8627450980392157" stop-color="#08461a"/>
      <stop offset="1.0" stop-color="#003e17"/>
    </radialGradient>
    <radialGradient cx="0" cy="0" fx="313.6" fy="0" gradientTransform="matrix(-0.5044, 0.2685, -0.4322, -0.387, 308.05, -97.85)" gradientUnits="userSpaceOnUse" id="gradient21" r="819.2" spreadMethod="pad">
      <stop offset="0.0" stop-color="#84c341"/>
      <stop offset="0.09019607843137255" stop-color="#74b33c"/>
      <stop offset="0.38823529411764707" stop-color="#42812c"/>
      <stop offset="0.6509803921568628" stop-color="#1e5c21"/>
      <stop offset="0.8627450980392157" stop-color="#08461a"/>
      <stop offset="1.0" stop-color="#003e17"/>
    </radialGradient>
    <radialGradient cx="0" cy="0" gradientTransform="matrix(-0.1735, -0.7563, 1.0546, -0.0463, 375.8, 129.25)" gradientUnits="userSpaceOnUse" id="gradient22" r="819.2" spreadMethod="pad">
      <stop offset="0.0" stop-color="#84c341"/>
      <stop offset="0.09019607843137255" stop-color="#74b33c"/>
      <stop offset="0.38823529411764707" stop-color="#42812c"/>
      <stop offset="0.6509803921568628" stop-color="#1e5c21"/>
      <stop offset="0.8627450980392157" stop-color="#08461a"/>
      <stop offset="1.0" stop-color="#003e17"/>
    </radialGradient>
    <radialGradient cx="0" cy="0" gradientTransform="matrix(0.5596, 0.2489, 0.3232, -0.3525, 378.3, -135.75)" gradientUnits="userSpaceOnUse" id="gradient23" r="819.2" spreadMethod="pad">
      <stop offset="0.0" stop-color="#84c341"/>
      <stop offset="0.09019607843137255" stop-color="#74b33c"/>
      <stop offset="0.38823529411764707" stop-color="#42812c"/>
      <stop offset="0.6509803921568628" stop-color="#1e5c21"/>
      <stop offset="0.8627450980392157" stop-color="#08461a"/>
      <stop offset="1.0" stop-color="#003e17"/>
    </radialGradient>
    <radialGradient cx="0" cy="0" gradientTransform="matrix(0.5955, 0.2648, 0.344, -0.3752, 332.0, -187.0)" gradientUnits="userSpaceOnUse" id="gradient24" r="819.2" spreadMethod="pad">
      <stop offset="0.0" stop-color="#84c341"/>
      <stop offset="0.09019607843137255" stop-color="#74b33c"/>
      <stop offset="0.38823529411764707" stop-color="#42812c"/>
      <stop offset="0.6509803921568628" stop-color="#1e5c21"/>
      <stop offset="0.8627450980392157" stop-color="#08461a"/>
      <stop offset="1.0" stop-color="#003e17"/>
    </radialGradient>
    <radialGradient cx="0" cy="0" gradientTransform="matrix(0.3745, 0.1767, 0.2122, -0.2489, 285.1, -79.35)" gradientUnits="userSpaceOnUse" id="gradient25" r="819.2" spreadMethod="pad">
      <stop offset="0.0" stop-color="#84c341"/>
      <stop offset="0.09019607843137255" stop-color="#74b33c"/>
      <stop offset="0.38823529411764707" stop-color="#42812c"/>
      <stop offset="0.6509803921568628" stop-color="#1e5c21"/>
      <stop offset="0.8627450980392157" stop-color="#08461a"/>
      <stop offset="1.0" stop-color="#003e17"/>
    </radialGradient>
  </defs>
</svg>
