<?xml version="1.0" encoding="UTF-8" standalone="no"?>
<svg xmlns:xlink="http://www.w3.org/1999/xlink" height="355.65px" width="118.1px" xmlns="http://www.w3.org/2000/svg">
  <g transform="matrix(1.0, 0.0, 0.0, 1.0, 59.05, 177.85)">
    <path d="M46.25 -177.85 L59.05 -177.85 59.05 -157.35 Q53.35 -165.8 46.25 -177.85" fill="url(#gradient0)" fill-rule="evenodd" stroke="none"/>
    <path d="M-41.0 106.65 L-38.2 103.0 Q-34.25 97.9 -31.0 92.25 -29.5 89.95 -22.95 74.4 -17.2 61.15 -10.8 53.05 -4.1 45.1 7.25 36.2 L22.8 23.8 Q31.5 16.15 35.45 11.05 35.1 11.35 34.3 15.35 32.65 21.3 28.9 27.1 25.6 32.7 16.4 42.95 2.65 58.0 -0.15 61.35 -4.1 66.45 -13.95 81.5 -21.3 93.25 -26.25 97.4 -31.15 101.85 -36.75 104.65 L-41.0 106.65" fill="url(#gradient1)" fill-rule="evenodd" stroke="none"/>
    <path d="M-55.1 64.15 Q-55.1 63.95 -50.85 63.3 -45.4 62.0 -40.65 59.5 -35.6 56.85 -27.85 50.6 L-13.1 38.15 Q3.6 24.75 20.35 18.5 30.7 14.35 38.4 13.35 33.0 16.5 25.45 22.45 L12.65 33.35 -3.1 46.95 Q-21.8 63.0 -37.2 65.15 -43.6 66.1 -50.2 65.15 L-55.1 64.15" fill="url(#gradient2)" fill-rule="evenodd" stroke="none"/>
    <path d="M-55.6 42.65 L-52.8 39.8 Q-49.05 36.35 -44.1 33.35 -30.8 25.25 -8.2 19.0 21.0 10.55 30.7 6.75 40.35 2.95 45.95 -0.05 43.65 4.6 36.1 10.7 23.65 21.3 -0.5 28.4 -9.65 31.2 -22.45 34.35 L-40.15 38.65 -55.6 42.65" fill="url(#gradient3)" fill-rule="evenodd" stroke="none"/>
    <path d="M22.8 177.8 Q21.0 170.0 19.7 158.25 17.9 139.05 20.05 116.25 L22.3 95.75 Q23.3 85.0 23.45 78.7 L23.15 62.8 25.3 67.45 Q27.75 73.4 29.4 80.0 34.3 97.4 31.35 122.2 29.55 138.55 25.3 161.55 L22.8 177.8" fill="url(#gradient4)" fill-rule="evenodd" stroke="none"/>
    <path d="M-59.05 19.0 L-55.75 17.0 Q-51.35 14.7 -45.25 13.7 L-28.35 11.05 -8.2 7.25 Q16.6 1.95 31.35 0.15 L49.9 -1.35 35.45 4.6 Q13.15 13.5 -1.3 16.65 -11.95 19.15 -23.95 19.65 L-34.25 19.5 -42.8 19.0 -54.75 18.65 -59.05 19.0" fill="url(#gradient5)" fill-rule="evenodd" stroke="none"/>
    <path d="M-50.5 5.4 Q-50.5 4.75 -37.7 1.1 -21.95 -3.35 -5.4 -5.5 22.65 -8.8 48.4 -8.3 44.0 -6.15 35.75 -3.7 19.2 1.45 1.0 3.95 -15.9 6.25 -35.1 5.9 L-50.5 5.4" fill="url(#gradient6)" fill-rule="evenodd" stroke="none"/>
    <path d="M-52.5 -0.05 L-39.2 -4.65 Q-19.5 -10.95 -4.75 -13.25 16.1 -16.75 37.1 -15.25 48.9 -14.6 56.45 -12.95 L39.9 -10.8 2.3 -4.2 Q-20.8 -0.2 -36.05 0.3 L-47.9 0.15 -52.5 -0.05" fill="url(#gradient7)" fill-rule="evenodd" stroke="none"/>
    <path d="M-28.55 -14.6 Q-9.5 -20.55 4.1 -22.2 25.75 -25.0 44.45 -22.2 52.35 -21.05 59.05 -19.25 L59.05 -18.25 46.45 -17.75 11.0 -13.25 Q-9.0 -10.3 -25.25 -9.8 L-36.75 -10.15 -41.0 -10.45 -28.55 -14.6" fill="url(#gradient8)" fill-rule="evenodd" stroke="none"/>
    <path d="M26.1 -33.95 L59.05 -36.45 59.05 -30.15 Q46.6 -26.2 32.5 -25.2 14.95 -23.55 -5.05 -25.35 L-21.3 -27.65 -7.55 -30.0 Q9.55 -32.45 26.1 -33.95" fill="url(#gradient9)" fill-rule="evenodd" stroke="none"/>
    <path d="M-18.5 -36.6 Q-12.45 -35.95 -6.05 -36.45 L33.0 -40.05 59.05 -43.05 59.05 -34.6 Q50.85 -32.45 39.9 -31.15 15.6 -28.65 -4.4 -31.95 -11.95 -32.95 -18.5 -35.25 L-23.1 -37.25 -18.5 -36.6" fill="url(#gradient10)" fill-rule="evenodd" stroke="none"/>
    <path d="M43.15 -50.8 L59.05 -52.8 59.05 -43.2 50.2 -41.9 Q29.2 -39.75 6.9 -42.9 -0.3 -43.85 -6.85 -45.35 L-11.8 -46.5 4.95 -47.35 Q25.3 -48.5 43.15 -50.8" fill="url(#gradient11)" fill-rule="evenodd" stroke="none"/>
    <path d="M50.35 -60.9 L59.05 -61.9 59.05 -52.15 57.1 -52.0 Q37.25 -50.15 14.6 -52.65 L-3.9 -55.3 50.35 -60.9" fill="url(#gradient12)" fill-rule="evenodd" stroke="none"/>
    <path d="M59.05 -70.85 L59.05 -61.75 Q42.5 -61.9 24.15 -64.7 L9.2 -67.2 23.65 -68.85 59.05 -70.85" fill="url(#gradient13)" fill-rule="evenodd" stroke="none"/>
    <path d="M30.35 28.25 L33.65 14.5 Q33.65 13.85 34.95 18.65 36.25 23.95 37.1 29.9 L39.4 46.75 Q40.85 59.35 42.35 67.45 46.25 90.45 56.45 107.15 L59.05 111.1 59.05 116.1 52.0 109.3 Q44.45 101.05 38.55 89.8 32.15 77.7 29.85 65.8 26.25 48.25 30.35 28.25" fill="url(#gradient14)" fill-rule="evenodd" stroke="none"/>
    <path d="M37.75 14.85 Q40.05 9.9 43.5 6.25 45.3 4.6 46.6 3.6 L45.6 7.25 Q44.8 11.7 44.65 16.85 44.3 29.75 53.0 51.25 L59.05 65.8 59.05 83.8 Q46.25 65.15 40.35 51.05 35.75 40.3 35.3 30.25 34.8 20.95 37.75 14.85" fill="url(#gradient15)" fill-rule="evenodd" stroke="none"/>
    <path d="M45.3 12.55 Q45.6 7.75 46.25 3.6 L46.75 0.45 59.05 33.05 59.05 59.2 Q53.8 51.75 50.7 44.6 44.15 29.55 45.3 12.55" fill="url(#gradient16)" fill-rule="evenodd" stroke="none"/>
    <path d="M59.05 29.25 Q55.15 18.0 55.3 7.25 L56.3 -1.2 59.05 3.75 59.05 29.25" fill="url(#gradient17)" fill-rule="evenodd" stroke="none"/>
    <path d="M-39.2 122.2 Q-37.4 121.55 -35.75 120.7 -31.5 118.25 -28.35 113.75 -25.25 109.65 -20.65 99.85 L-11.8 81.5 Q-3.6 65.45 10.7 51.9 22.3 40.8 23.65 41.65 23.15 41.5 -1.15 89.8 -13.25 113.1 -23.75 119.4 -28.7 122.55 -34.6 122.7 L-39.2 122.2" fill="url(#gradient18)" fill-rule="evenodd" stroke="none"/>
    <path d="M-15.9 153.65 Q-16.55 145.7 -14.9 134.1 -12.6 114.1 -2.95 94.9 1.0 87.15 7.4 76.7 L16.25 62.0 Q21.0 53.55 23.15 47.6 L23.45 52.4 Q23.45 58.5 22.15 64.95 19.35 80.0 7.55 103.35 -8.0 134.6 -9.65 138.55 -13.75 147.65 -15.9 153.65" fill="url(#gradient19)" fill-rule="evenodd" stroke="none"/>
    <path d="M23.0 41.15 L48.9 -4.65 59.05 -21.2 59.05 -16.25 23.0 41.15" fill="url(#gradient20)" fill-rule="evenodd" stroke="none"/>
    <path d="M44.15 -177.85 L59.05 -177.85 59.05 -167.95 44.15 -177.85" fill="url(#gradient21)" fill-rule="evenodd" stroke="none"/>
    <path d="M21.65 -177.85 L40.85 -177.85 Q50.55 -173.55 59.05 -167.95 L59.05 -154.05 52.35 -158.5 Q37.75 -168.75 21.65 -177.85" fill="url(#gradient22)" fill-rule="evenodd" stroke="none"/>
    <path d="M59.05 -154.2 L59.05 -140.8 57.25 -141.8 Q9.7 -171.9 9.05 -173.25 L24.6 -169.1 Q43.0 -163.3 59.05 -154.2" fill="url(#gradient23)" fill-rule="evenodd" stroke="none"/>
    <path d="M59.05 -139.65 L59.05 -127.55 Q44.3 -134.85 30.35 -143.6 18.55 -151.05 19.05 -151.4 L30.7 -148.75 Q45.45 -145.1 59.05 -139.65" fill="url(#gradient24)" fill-rule="evenodd" stroke="none"/>
  </g>
  <defs>
    <radialGradient cx="0" cy="0" gradientTransform="matrix(-0.6851, -0.2978, -0.1119, 0.7525, 293.65, 1.95)" gradientUnits="userSpaceOnUse" id="gradient0" r="819.2" spreadMethod="pad">
      <stop offset="0.0" stop-color="#84c341"/>
      <stop offset="0.09019607843137255" stop-color="#74b33c"/>
      <stop offset="0.38823529411764707" stop-color="#42812c"/>
      <stop offset="0.6509803921568628" stop-color="#1e5c21"/>
      <stop offset="0.8627450980392157" stop-color="#08461a"/>
      <stop offset="1.0" stop-color="#003e17"/>
    </radialGradient>
    <radialGradient cx="0" cy="0" gradientTransform="matrix(-0.2459, -0.2233, 0.1777, -0.152, 101.05, -32.8)" gradientUnits="userSpaceOnUse" id="gradient1" r="819.2" spreadMethod="pad">
      <stop offset="0.0" stop-color="#84c341"/>
      <stop offset="0.09019607843137255" stop-color="#74b33c"/>
      <stop offset="0.38823529411764707" stop-color="#42812c"/>
      <stop offset="0.6509803921568628" stop-color="#1e5c21"/>
      <stop offset="0.8627450980392157" stop-color="#08461a"/>
      <stop offset="1.0" stop-color="#003e17"/>
    </radialGradient>
    <radialGradient cx="0" cy="0" gradientTransform="matrix(-0.275, -0.2497, 0.1987, -0.17, 80.4, -111.55)" gradientUnits="userSpaceOnUse" id="gradient2" r="819.2" spreadMethod="pad">
      <stop offset="0.0" stop-color="#84c341"/>
      <stop offset="0.09019607843137255" stop-color="#74b33c"/>
      <stop offset="0.38823529411764707" stop-color="#42812c"/>
      <stop offset="0.6509803921568628" stop-color="#1e5c21"/>
      <stop offset="0.8627450980392157" stop-color="#08461a"/>
      <stop offset="1.0" stop-color="#003e17"/>
    </radialGradient>
    <radialGradient cx="0" cy="0" gradientTransform="matrix(-0.2818, -0.256, 0.2036, -0.1743, 62.0, -131.2)" gradientUnits="userSpaceOnUse" id="gradient3" r="819.2" spreadMethod="pad">
      <stop offset="0.0" stop-color="#84c341"/>
      <stop offset="0.09019607843137255" stop-color="#74b33c"/>
      <stop offset="0.38823529411764707" stop-color="#42812c"/>
      <stop offset="0.6509803921568628" stop-color="#1e5c21"/>
      <stop offset="0.8627450980392157" stop-color="#08461a"/>
      <stop offset="1.0" stop-color="#003e17"/>
    </radialGradient>
    <radialGradient cx="0" cy="0" gradientTransform="matrix(-0.3588, -0.1302, 0.0255, -0.2927, 13.45, -65.05)" gradientUnits="userSpaceOnUse" id="gradient4" r="819.2" spreadMethod="pad">
      <stop offset="0.0" stop-color="#84c341"/>
      <stop offset="0.09019607843137255" stop-color="#74b33c"/>
      <stop offset="0.38823529411764707" stop-color="#42812c"/>
      <stop offset="0.6509803921568628" stop-color="#1e5c21"/>
      <stop offset="0.8627450980392157" stop-color="#08461a"/>
      <stop offset="1.0" stop-color="#003e17"/>
    </radialGradient>
    <radialGradient cx="0" cy="0" gradientTransform="matrix(-0.4783, -0.4344, 0.3456, -0.2957, -136.45, -270.8)" gradientUnits="userSpaceOnUse" id="gradient5" r="819.2" spreadMethod="pad">
      <stop offset="0.0" stop-color="#84c341"/>
      <stop offset="0.09019607843137255" stop-color="#74b33c"/>
      <stop offset="0.38823529411764707" stop-color="#42812c"/>
      <stop offset="0.6509803921568628" stop-color="#1e5c21"/>
      <stop offset="0.8627450980392157" stop-color="#08461a"/>
      <stop offset="1.0" stop-color="#003e17"/>
    </radialGradient>
    <radialGradient cx="0" cy="0" gradientTransform="matrix(-0.2855, -0.2593, 0.2063, -0.1765, 62.85, -132.85)" gradientUnits="userSpaceOnUse" id="gradient6" r="819.2" spreadMethod="pad">
      <stop offset="0.0" stop-color="#84c341"/>
      <stop offset="0.09019607843137255" stop-color="#74b33c"/>
      <stop offset="0.38823529411764707" stop-color="#42812c"/>
      <stop offset="0.6509803921568628" stop-color="#1e5c21"/>
      <stop offset="0.8627450980392157" stop-color="#08461a"/>
      <stop offset="1.0" stop-color="#003e17"/>
    </radialGradient>
    <radialGradient cx="0" cy="0" gradientTransform="matrix(-0.2858, -0.2596, 0.2065, -0.1767, 65.8, -130.9)" gradientUnits="userSpaceOnUse" id="gradient7" r="819.2" spreadMethod="pad">
      <stop offset="0.0" stop-color="#84c341"/>
      <stop offset="0.09019607843137255" stop-color="#74b33c"/>
      <stop offset="0.38823529411764707" stop-color="#42812c"/>
      <stop offset="0.6509803921568628" stop-color="#1e5c21"/>
      <stop offset="0.8627450980392157" stop-color="#08461a"/>
      <stop offset="1.0" stop-color="#003e17"/>
    </radialGradient>
    <radialGradient cx="0" cy="0" gradientTransform="matrix(-0.3049, -0.2769, 0.2203, -0.1885, 148.0, 3.95)" gradientUnits="userSpaceOnUse" id="gradient8" r="819.2" spreadMethod="pad">
      <stop offset="0.0" stop-color="#84c341"/>
      <stop offset="0.09019607843137255" stop-color="#74b33c"/>
      <stop offset="0.38823529411764707" stop-color="#42812c"/>
      <stop offset="0.6509803921568628" stop-color="#1e5c21"/>
      <stop offset="0.8627450980392157" stop-color="#08461a"/>
      <stop offset="1.0" stop-color="#003e17"/>
    </radialGradient>
    <radialGradient cx="0" cy="0" gradientTransform="matrix(-0.2893, -0.2627, 0.209, -0.1788, 84.5, -116.15)" gradientUnits="userSpaceOnUse" id="gradient9" r="819.2" spreadMethod="pad">
      <stop offset="0.0" stop-color="#84c341"/>
      <stop offset="0.09019607843137255" stop-color="#74b33c"/>
      <stop offset="0.38823529411764707" stop-color="#42812c"/>
      <stop offset="0.6509803921568628" stop-color="#1e5c21"/>
      <stop offset="0.8627450980392157" stop-color="#08461a"/>
      <stop offset="1.0" stop-color="#003e17"/>
    </radialGradient>
    <radialGradient cx="0" cy="0" gradientTransform="matrix(-0.2914, -0.2646, 0.2105, -0.1802, 95.8, -106.05)" gradientUnits="userSpaceOnUse" id="gradient10" r="819.2" spreadMethod="pad">
      <stop offset="0.0" stop-color="#84c341"/>
      <stop offset="0.09019607843137255" stop-color="#74b33c"/>
      <stop offset="0.38823529411764707" stop-color="#42812c"/>
      <stop offset="0.6509803921568628" stop-color="#1e5c21"/>
      <stop offset="0.8627450980392157" stop-color="#08461a"/>
      <stop offset="1.0" stop-color="#003e17"/>
    </radialGradient>
    <radialGradient cx="0" cy="0" gradientTransform="matrix(-0.4174, -0.3791, 0.3016, -0.2581, 195.55, 46.25)" gradientUnits="userSpaceOnUse" id="gradient11" r="819.2" spreadMethod="pad">
      <stop offset="0.0" stop-color="#84c341"/>
      <stop offset="0.09019607843137255" stop-color="#74b33c"/>
      <stop offset="0.38823529411764707" stop-color="#42812c"/>
      <stop offset="0.6509803921568628" stop-color="#1e5c21"/>
      <stop offset="0.8627450980392157" stop-color="#08461a"/>
      <stop offset="1.0" stop-color="#003e17"/>
    </radialGradient>
    <radialGradient cx="0" cy="0" gradientTransform="matrix(-0.3064, -0.2782, 0.2214, -0.1895, 121.55, -82.25)" gradientUnits="userSpaceOnUse" id="gradient12" r="819.2" spreadMethod="pad">
      <stop offset="0.0" stop-color="#84c341"/>
      <stop offset="0.09019607843137255" stop-color="#74b33c"/>
      <stop offset="0.38823529411764707" stop-color="#42812c"/>
      <stop offset="0.6509803921568628" stop-color="#1e5c21"/>
      <stop offset="0.8627450980392157" stop-color="#08461a"/>
      <stop offset="1.0" stop-color="#003e17"/>
    </radialGradient>
    <radialGradient cx="0" cy="0" gradientTransform="matrix(-0.4348, -0.3949, 0.3142, -0.2689, 202.1, 52.4)" gradientUnits="userSpaceOnUse" id="gradient13" r="819.2" spreadMethod="pad">
      <stop offset="0.0" stop-color="#84c341"/>
      <stop offset="0.09019607843137255" stop-color="#74b33c"/>
      <stop offset="0.38823529411764707" stop-color="#42812c"/>
      <stop offset="0.6509803921568628" stop-color="#1e5c21"/>
      <stop offset="0.8627450980392157" stop-color="#08461a"/>
      <stop offset="1.0" stop-color="#003e17"/>
    </radialGradient>
    <radialGradient cx="0" cy="0" gradientTransform="matrix(0.3088, 0.026, -0.0807, -0.283, 49.4, -111.85)" gradientUnits="userSpaceOnUse" id="gradient14" r="819.2" spreadMethod="pad">
      <stop offset="0.0" stop-color="#84c341"/>
      <stop offset="0.09019607843137255" stop-color="#74b33c"/>
      <stop offset="0.38823529411764707" stop-color="#42812c"/>
      <stop offset="0.6509803921568628" stop-color="#1e5c21"/>
      <stop offset="0.8627450980392157" stop-color="#08461a"/>
      <stop offset="1.0" stop-color="#003e17"/>
    </radialGradient>
    <radialGradient cx="0" cy="0" gradientTransform="matrix(0.408, 0.0343, -0.1067, -0.374, -49.85, -170.75)" gradientUnits="userSpaceOnUse" id="gradient15" r="819.2" spreadMethod="pad">
      <stop offset="0.0" stop-color="#84c341"/>
      <stop offset="0.09019607843137255" stop-color="#74b33c"/>
      <stop offset="0.38823529411764707" stop-color="#42812c"/>
      <stop offset="0.6509803921568628" stop-color="#1e5c21"/>
      <stop offset="0.8627450980392157" stop-color="#08461a"/>
      <stop offset="1.0" stop-color="#003e17"/>
    </radialGradient>
    <radialGradient cx="0" cy="0" gradientTransform="matrix(0.2882, 0.0243, -0.0754, -0.2642, -14.25, -119.95)" gradientUnits="userSpaceOnUse" id="gradient16" r="819.2" spreadMethod="pad">
      <stop offset="0.0" stop-color="#84c341"/>
      <stop offset="0.09019607843137255" stop-color="#74b33c"/>
      <stop offset="0.38823529411764707" stop-color="#42812c"/>
      <stop offset="0.6509803921568628" stop-color="#1e5c21"/>
      <stop offset="0.8627450980392157" stop-color="#08461a"/>
      <stop offset="1.0" stop-color="#003e17"/>
    </radialGradient>
    <radialGradient cx="0" cy="0" gradientTransform="matrix(0.2872, 0.0242, -0.0751, -0.2632, 52.65, -99.3)" gradientUnits="userSpaceOnUse" id="gradient17" r="819.2" spreadMethod="pad">
      <stop offset="0.0" stop-color="#84c341"/>
      <stop offset="0.09019607843137255" stop-color="#74b33c"/>
      <stop offset="0.38823529411764707" stop-color="#42812c"/>
      <stop offset="0.6509803921568628" stop-color="#1e5c21"/>
      <stop offset="0.8627450980392157" stop-color="#08461a"/>
      <stop offset="1.0" stop-color="#003e17"/>
    </radialGradient>
    <radialGradient cx="0" cy="0" gradientTransform="matrix(-0.2757, -0.2504, 0.1992, -0.1705, 41.5, -139.5)" gradientUnits="userSpaceOnUse" id="gradient18" r="819.2" spreadMethod="pad">
      <stop offset="0.0" stop-color="#84c341"/>
      <stop offset="0.09019607843137255" stop-color="#74b33c"/>
      <stop offset="0.38823529411764707" stop-color="#42812c"/>
      <stop offset="0.6509803921568628" stop-color="#1e5c21"/>
      <stop offset="0.8627450980392157" stop-color="#08461a"/>
      <stop offset="1.0" stop-color="#003e17"/>
    </radialGradient>
    <radialGradient cx="0" cy="0" gradientTransform="matrix(-0.2853, -0.2592, 0.2061, -0.1764, 8.7, -167.45)" gradientUnits="userSpaceOnUse" id="gradient19" r="819.2" spreadMethod="pad">
      <stop offset="0.0" stop-color="#84c341"/>
      <stop offset="0.09019607843137255" stop-color="#74b33c"/>
      <stop offset="0.38823529411764707" stop-color="#42812c"/>
      <stop offset="0.6509803921568628" stop-color="#1e5c21"/>
      <stop offset="0.8627450980392157" stop-color="#08461a"/>
      <stop offset="1.0" stop-color="#003e17"/>
    </radialGradient>
    <radialGradient cx="0" cy="0" gradientTransform="matrix(-0.2837, -0.2577, 0.205, -0.1755, 113.2, -88.7)" gradientUnits="userSpaceOnUse" id="gradient20" r="819.2" spreadMethod="pad">
      <stop offset="0.0" stop-color="#84c341"/>
      <stop offset="0.09019607843137255" stop-color="#74b33c"/>
      <stop offset="0.38823529411764707" stop-color="#42812c"/>
      <stop offset="0.6509803921568628" stop-color="#1e5c21"/>
      <stop offset="0.8627450980392157" stop-color="#08461a"/>
      <stop offset="1.0" stop-color="#003e17"/>
    </radialGradient>
    <radialGradient cx="0" cy="0" gradientTransform="matrix(-0.2627, 0.2011, 0.2708, 0.2481, 191.45, -125.4)" gradientUnits="userSpaceOnUse" id="gradient21" r="819.2" spreadMethod="pad">
      <stop offset="0.0" stop-color="#84c341"/>
      <stop offset="0.09019607843137255" stop-color="#74b33c"/>
      <stop offset="0.38823529411764707" stop-color="#42812c"/>
      <stop offset="0.6509803921568628" stop-color="#1e5c21"/>
      <stop offset="0.8627450980392157" stop-color="#08461a"/>
      <stop offset="1.0" stop-color="#003e17"/>
    </radialGradient>
    <radialGradient cx="0" cy="0" gradientTransform="matrix(-0.2657, 0.2034, 0.2739, 0.2509, 133.55, -91.85)" gradientUnits="userSpaceOnUse" id="gradient22" r="819.2" spreadMethod="pad">
      <stop offset="0.0" stop-color="#84c341"/>
      <stop offset="0.09019607843137255" stop-color="#74b33c"/>
      <stop offset="0.38823529411764707" stop-color="#42812c"/>
      <stop offset="0.6509803921568628" stop-color="#1e5c21"/>
      <stop offset="0.8627450980392157" stop-color="#08461a"/>
      <stop offset="1.0" stop-color="#003e17"/>
    </radialGradient>
    <radialGradient cx="0" cy="0" fx="313.6" fy="0" gradientTransform="matrix(-0.0964, -0.3201, -0.3693, 0.0437, 133.55, -91.85)" gradientUnits="userSpaceOnUse" id="gradient23" r="819.2" spreadMethod="pad">
      <stop offset="0.0" stop-color="#84c341"/>
      <stop offset="0.09019607843137255" stop-color="#74b33c"/>
      <stop offset="0.38823529411764707" stop-color="#42812c"/>
      <stop offset="0.6509803921568628" stop-color="#1e5c21"/>
      <stop offset="0.8627450980392157" stop-color="#08461a"/>
      <stop offset="1.0" stop-color="#003e17"/>
    </radialGradient>
    <radialGradient cx="0" cy="0" gradientTransform="matrix(-0.2627, 0.2011, 0.2708, 0.2481, 191.45, -125.4)" gradientUnits="userSpaceOnUse" id="gradient24" r="819.2" spreadMethod="pad">
      <stop offset="0.0" stop-color="#84c341"/>
      <stop offset="0.09019607843137255" stop-color="#74b33c"/>
      <stop offset="0.38823529411764707" stop-color="#42812c"/>
      <stop offset="0.6509803921568628" stop-color="#1e5c21"/>
      <stop offset="0.8627450980392157" stop-color="#08461a"/>
      <stop offset="1.0" stop-color="#003e17"/>
    </radialGradient>
  </defs>
</svg>
