<?xml version="1.0" encoding="UTF-8" standalone="no"?>
<svg xmlns:xlink="http://www.w3.org/1999/xlink" height="502.75px" width="1301.9px" xmlns="http://www.w3.org/2000/svg">
  <g transform="matrix(1.0, 0.0, 0.0, 1.0, 650.95, 251.4)">
    <path d="M650.05 -2.7 L650.4 -2.7 650.95 -2.6 650.95 -1.25 650.4 -1.0 649.65 -1.45 649.45 -2.05 650.05 -2.7 M210.05 -211.2 L209.45 -211.7 209.6 -212.3 210.2 -212.8 211.2 -212.45 211.2 -211.85 211.15 -211.5 210.9 -211.35 210.35 -211.25 210.05 -211.2 M58.65 -198.1 L58.1 -198.65 58.25 -199.2 58.85 -199.75 59.75 -199.35 59.8 -198.8 59.7 -198.45 59.55 -198.3 59.0 -198.15 58.65 -198.1 M106.4 -178.95 L105.8 -179.45 105.95 -180.05 106.6 -180.55 107.5 -180.2 107.55 -179.6 107.4 -179.25 107.25 -179.1 106.75 -179.0 106.4 -178.95 M101.8 -121.0 L101.45 -120.95 100.9 -120.95 100.7 -121.1 100.5 -121.45 100.45 -122.05 101.3 -122.5 102.0 -122.15 102.3 -121.6 101.8 -121.0 M151.85 -145.9 L151.55 -145.9 150.95 -145.95 150.85 -146.05 150.6 -146.45 150.55 -147.0 151.4 -147.5 152.15 -147.15 152.3 -146.6 151.85 -145.9 M125.45 -143.05 L124.85 -143.6 125.05 -144.15 125.7 -144.7 126.6 -144.3 126.65 -143.75 126.5 -143.35 126.3 -143.2 125.85 -143.1 125.45 -143.05 M3.5 -121.4 L3.15 -121.4 2.6 -121.4 2.4 -121.45 2.2 -121.85 2.2 -122.45 3.0 -123.0 3.7 -122.6 4.0 -122.0 3.5 -121.4 M53.3 -108.25 L52.7 -108.75 52.85 -109.35 53.55 -109.8 54.45 -109.5 54.5 -108.9 54.3 -108.5 54.2 -108.4 53.65 -108.3 53.3 -108.25 M25.8 -76.9 L26.35 -76.35 26.3 -75.75 25.55 -75.3 24.65 -75.6 24.6 -76.15 24.8 -76.6 24.95 -76.75 25.45 -76.85 25.8 -76.9 M39.85 -2.65 L39.45 -2.65 38.85 -2.75 38.6 -2.85 38.4 -3.3 38.4 -3.9 39.45 -4.35 40.25 -3.9 40.5 -3.3 39.85 -2.65 M146.25 -97.65 L145.9 -97.6 145.4 -97.6 145.2 -97.7 144.95 -98.05 144.9 -98.65 145.8 -99.1 146.55 -98.8 146.8 -98.25 146.25 -97.65 M136.25 -77.45 L135.65 -78.05 135.9 -78.7 136.7 -79.1 Q137.2 -78.85 137.75 -78.7 L137.75 -78.05 137.5 -77.65 137.35 -77.5 136.7 -77.45 136.25 -77.45 M108.35 -68.0 L108.95 -67.45 108.8 -66.85 108.15 -66.4 107.2 -66.7 107.15 -67.25 107.3 -67.75 107.5 -67.8 108.0 -67.95 108.35 -68.0 M133.25 -20.45 L133.65 -20.45 134.25 -20.35 134.5 -20.25 134.7 -19.8 134.7 -19.2 133.65 -18.75 Q133.25 -19.0 132.85 -19.2 L132.6 -19.8 133.25 -20.45 M272.45 -176.9 L271.85 -177.45 271.95 -178.05 272.7 -178.45 273.6 -178.2 273.65 -177.6 273.5 -177.2 273.25 -177.0 272.75 -176.9 272.45 -176.9 M246.05 -153.05 L245.65 -153.0 245.15 -153.0 Q245.05 -153.0 244.95 -153.1 L244.75 -153.5 244.7 -154.05 245.55 -154.5 246.35 -154.2 Q246.4 -153.9 246.6 -153.7 L246.05 -153.05 M253.4 -107.7 L252.9 -108.2 253.0 -108.85 253.7 -109.25 254.6 -109.0 254.65 -108.35 254.5 -108.05 254.3 -107.8 253.8 -107.7 253.4 -107.7 M280.95 -98.2 L280.6 -98.2 280.05 -98.3 279.8 -98.5 279.65 -98.9 279.7 -99.5 280.7 -99.75 281.5 -99.35 281.6 -98.75 280.95 -98.2 M300.5 -110.9 L300.15 -110.85 299.6 -110.9 299.45 -111.0 299.2 -111.4 299.15 -111.95 300.05 -112.45 300.7 -112.05 300.95 -111.55 300.5 -110.9 M319.45 -116.65 L320.0 -116.0 319.85 -115.4 319.05 -115.0 318.1 -115.4 318.1 -116.0 318.35 -116.45 318.5 -116.6 319.05 -116.65 319.45 -116.65 M231.65 -160.6 L231.05 -161.1 231.2 -161.75 231.85 -162.2 232.85 -161.9 232.85 -161.3 232.65 -160.9 232.5 -160.75 232.0 -160.65 231.65 -160.6 M209.75 -123.8 L209.4 -123.75 208.9 -123.8 208.75 -123.95 208.5 -124.25 208.45 -124.8 209.3 -125.35 210.05 -124.95 210.25 -124.45 209.75 -123.8 M176.3 -134.05 L175.85 -134.0 175.4 -134.1 175.2 -134.15 174.95 -134.55 174.9 -135.15 175.8 -135.55 176.5 -135.3 176.75 -134.7 176.3 -134.05 M171.2 -93.9 L170.6 -94.4 170.75 -95.05 171.4 -95.5 172.35 -95.2 172.35 -94.6 172.25 -94.2 172.05 -94.05 171.55 -93.95 171.2 -93.9 M194.2 -68.6 L193.75 -68.6 193.15 -68.65 192.95 -68.8 192.7 -69.2 192.7 -69.85 193.75 -70.2 194.6 -69.85 194.85 -69.2 194.2 -68.6 M188.8 -58.65 L188.2 -59.2 188.4 -59.75 189.05 -60.25 189.95 -59.9 190.0 -59.35 189.8 -58.9 189.65 -58.8 189.15 -58.65 188.8 -58.65 M229.15 -37.95 L229.6 -37.95 230.2 -37.9 230.4 -37.75 230.65 -37.3 230.65 -36.7 229.6 -36.3 228.75 -36.7 228.55 -37.3 229.15 -37.95 M195.35 -5.6 L195.7 -5.65 196.3 -5.65 196.4 -5.5 196.65 -5.2 196.7 -4.6 195.85 -4.1 Q195.45 -4.3 195.15 -4.45 L194.9 -5.0 195.35 -5.6 M243.8 -18.35 L244.45 -17.85 244.25 -17.25 243.6 -16.85 242.65 -17.1 242.6 -17.7 242.8 -18.1 243.0 -18.25 243.45 -18.3 243.8 -18.35 M310.05 -74.35 L309.45 -75.0 309.7 -75.5 310.6 -75.8 311.5 -75.35 311.45 -74.8 311.25 -74.4 311.0 -74.3 310.45 -74.3 310.05 -74.35 M283.5 -54.45 L283.95 -54.45 284.5 -54.35 284.65 -54.2 284.9 -53.8 284.9 -53.2 283.95 -52.75 283.15 -53.2 283.0 -53.8 283.5 -54.45 M271.3 -49.7 L270.75 -50.25 270.9 -50.85 271.6 -51.3 272.5 -51.0 272.55 -50.45 272.4 -50.0 272.2 -49.85 271.7 -49.75 271.3 -49.7 M250.05 -32.2 L249.55 -32.85 249.8 -33.35 250.55 -33.75 251.55 -33.25 251.5 -32.7 251.2 -32.3 251.05 -32.2 250.45 -32.15 250.05 -32.2 M301.95 -29.0 L301.5 -29.0 300.95 -29.1 300.75 -29.35 300.55 -29.65 300.6 -30.3 301.6 -30.55 302.35 -30.15 302.5 -29.5 301.95 -29.0 M406.5 -99.15 L407.1 -98.5 406.9 -97.9 406.15 -97.45 405.2 -97.9 405.2 -98.5 405.4 -98.95 405.6 -99.05 406.15 -99.15 406.5 -99.15 M463.9 -100.25 L463.5 -100.3 462.95 -100.4 462.8 -100.55 462.6 -100.9 462.65 -101.5 463.65 -101.85 464.4 -101.35 464.55 -100.75 463.9 -100.25 M403.8 -156.15 L403.4 -156.15 402.8 -156.2 402.65 -156.35 402.45 -156.75 402.45 -157.4 403.4 -157.8 404.1 -157.4 404.35 -156.75 403.8 -156.15 M351.2 -147.3 L350.6 -147.9 350.85 -148.55 351.6 -148.9 352.55 -148.55 352.55 -147.9 352.35 -147.5 352.15 -147.35 351.6 -147.3 351.2 -147.3 M349.7 -132.5 L349.35 -132.55 348.75 -132.65 348.5 -132.8 348.4 -133.15 348.45 -133.75 349.5 -134.1 350.2 -133.6 350.35 -133.0 349.7 -132.5 M386.9 -55.35 L386.4 -56.0 386.65 -56.6 387.45 -56.85 388.4 -56.45 388.35 -55.85 388.1 -55.45 387.85 -55.4 387.35 -55.3 386.9 -55.35 M325.9 -81.9 L325.5 -81.95 324.95 -82.05 324.8 -82.2 324.55 -82.6 324.6 -83.2 325.65 -83.5 326.4 -83.05 326.55 -82.4 325.9 -81.9 M333.85 -53.25 L334.4 -52.65 334.2 -52.0 333.45 -51.6 332.5 -52.0 332.5 -52.65 332.7 -53.0 332.9 -53.2 333.45 -53.25 333.85 -53.25 M350.0 -45.1 L349.45 -45.75 349.7 -46.25 350.5 -46.65 351.45 -46.1 351.4 -45.55 351.15 -45.25 350.95 -45.1 350.4 -45.05 350.0 -45.1 M338.1 -4.35 L338.5 -4.35 339.0 -4.25 339.2 -4.15 339.4 -3.7 339.4 -3.1 338.5 -2.7 337.65 -3.1 337.5 -3.7 338.1 -4.35 M448.65 -53.55 L449.0 -53.55 449.55 -53.5 449.75 -53.35 449.95 -52.95 449.95 -52.3 449.0 -51.9 448.25 -52.3 448.05 -52.95 448.65 -53.55 M392.5 -15.2 L392.1 -15.25 391.55 -15.35 391.35 -15.5 391.2 -15.9 391.25 -16.5 392.25 -16.8 393.0 -16.35 393.15 -15.7 392.5 -15.2 M378.95 -31.9 L379.35 -31.9 379.9 -31.8 380.1 -31.65 380.3 -31.25 380.3 -30.65 379.35 -30.2 378.55 -30.65 378.4 -31.25 378.95 -31.9 M413.8 -67.2 L413.3 -67.9 413.5 -68.45 414.3 -68.8 415.25 -68.3 415.2 -67.75 414.9 -67.35 414.8 -67.25 414.15 -67.2 413.8 -67.2 M422.4 -59.9 L423.0 -59.3 422.8 -58.65 422.05 -58.25 421.1 -58.65 421.1 -59.3 421.25 -59.7 421.5 -59.85 422.05 -59.9 422.4 -59.9 M442.9 -64.35 L442.45 -64.4 441.95 -64.5 441.75 -64.65 441.55 -65.05 441.6 -65.6 442.6 -66.0 443.35 -65.45 443.55 -64.9 442.9 -64.35 M420.0 -18.95 L419.4 -19.55 419.65 -20.1 420.5 -20.4 421.45 -19.95 421.4 -19.35 421.15 -19.0 420.9 -18.9 420.35 -18.9 420.0 -18.95 M438.8 -2.7 L439.15 -2.7 439.75 -2.6 439.9 -2.45 440.1 -2.05 440.1 -1.45 439.15 -1.0 438.4 -1.45 438.25 -2.05 438.8 -2.7 M413.8 -17.7 L414.2 -17.7 414.7 -17.6 414.9 -17.5 415.15 -17.05 415.15 -16.45 414.2 -16.05 413.4 -16.45 413.25 -17.05 413.8 -17.7 M468.95 -42.3 L468.4 -42.9 468.7 -43.45 469.5 -43.8 Q469.95 -43.5 470.45 -43.35 L470.4 -42.75 470.15 -42.4 469.95 -42.25 469.35 -42.25 468.95 -42.3 M467.1 -3.2 L467.7 -2.55 467.45 -1.95 466.7 -1.5 465.75 -1.95 465.75 -2.55 465.95 -3.0 466.2 -3.1 466.7 -3.2 467.1 -3.2 M516.5 -119.4 L516.1 -119.45 515.5 -119.6 515.35 -119.75 515.2 -120.1 515.25 -120.65 516.25 -121.05 516.95 -120.5 517.1 -119.95 516.5 -119.4 M491.3 -81.35 L490.7 -82.0 490.95 -82.6 491.65 -83.05 Q492.1 -82.8 492.6 -82.6 L492.6 -82.0 492.45 -81.55 492.2 -81.45 491.65 -81.35 491.3 -81.35 M494.0 -24.35 L494.45 -24.35 495.0 -24.3 495.15 -24.15 495.4 -23.75 495.4 -23.1 494.45 -22.7 493.7 -23.1 493.5 -23.75 494.0 -24.35 M522.4 -29.55 L522.0 -29.6 521.4 -29.7 521.25 -29.8 521.05 -30.2 521.1 -30.8 522.1 -31.1 522.85 -30.65 523.05 -30.05 522.4 -29.55 M546.6 -33.2 L547.2 -32.6 547.0 -31.95 546.2 -31.6 545.25 -31.95 545.25 -32.6 545.5 -33.0 545.65 -33.15 546.2 -33.2 546.6 -33.2 M631.15 -49.15 L630.6 -49.85 630.85 -50.4 631.7 -50.7 632.6 -50.25 632.55 -49.7 632.35 -49.3 632.1 -49.2 631.55 -49.1 631.15 -49.15 M578.35 -63.85 L577.8 -64.5 578.0 -65.1 578.75 -65.5 579.7 -65.1 579.7 -64.5 579.5 -64.05 579.3 -63.9 578.75 -63.85 578.35 -63.85 M577.25 -42.7 L576.7 -43.3 577.0 -43.9 577.8 -44.3 578.7 -43.75 578.65 -43.15 578.45 -42.75 578.25 -42.7 577.65 -42.7 577.25 -42.7 M598.55 -14.35 L598.9 -14.35 599.5 -14.3 599.7 -14.15 599.85 -13.75 599.85 -13.1 598.9 -12.65 598.2 -13.1 597.95 -13.75 598.55 -14.35 M552.65 1.8 L553.05 1.85 553.6 1.95 553.8 2.1 554.0 2.55 553.95 3.1 552.95 3.4 552.15 2.95 552.05 2.35 552.65 1.8 M533.75 61.85 L534.3 62.5 534.1 63.1 533.35 63.55 532.4 63.1 532.4 62.5 532.6 62.1 Q532.7 61.95 532.8 61.95 L533.35 61.85 533.75 61.85 M461.75 10.7 L462.1 10.75 462.65 10.9 462.9 10.95 463.05 11.45 463.0 12.0 461.95 12.3 461.25 11.85 461.05 11.25 461.75 10.7 M484.55 36.85 L485.1 37.45 484.9 38.1 484.15 38.5 483.2 38.1 483.2 37.45 483.4 37.05 483.6 36.9 484.15 36.85 484.55 36.85 M373.1 20.05 L372.7 20.05 372.15 19.9 372.0 19.8 371.8 19.35 371.85 18.8 372.85 18.45 373.55 18.95 373.75 19.5 373.1 20.05 M352.8 5.15 L353.35 5.75 353.15 6.4 352.35 6.8 351.4 6.4 351.4 5.75 351.65 5.35 351.85 5.2 352.35 5.15 352.8 5.15 M365.9 73.1 L366.4 73.7 366.1 74.25 365.35 74.6 364.4 74.1 364.45 73.5 364.75 73.2 364.85 73.05 365.5 73.05 365.9 73.1 M371.65 61.05 L372.25 61.65 372.05 62.3 371.35 62.7 370.35 62.3 370.35 61.65 370.55 61.25 370.75 61.1 371.35 61.05 371.65 61.05 M308.1 18.5 L308.65 19.1 308.5 19.75 307.7 20.15 306.75 19.75 306.75 19.1 306.95 18.7 307.15 18.55 307.7 18.5 308.1 18.5 M268.75 24.25 L269.35 24.9 269.15 25.5 268.3 25.95 267.25 25.5 267.25 24.9 267.5 24.5 267.7 24.35 268.3 24.25 268.75 24.25 M282.2 29.0 L281.75 28.95 281.2 28.85 281.0 28.7 280.85 28.25 280.9 27.7 281.9 27.4 282.65 27.85 282.8 28.45 282.2 29.0 M312.5 60.35 L312.9 60.4 313.4 60.45 313.6 60.6 313.85 61.0 313.8 61.6 312.75 61.85 312.0 61.45 311.8 60.85 312.5 60.35 M241.7 97.2 L242.1 97.2 242.7 97.25 242.95 97.4 243.15 97.8 243.15 98.45 242.1 98.85 241.25 98.45 241.05 97.8 241.7 97.2 M213.3 25.45 L213.75 25.45 214.35 25.5 214.55 25.7 214.8 26.05 214.8 26.7 213.75 27.1 212.9 26.7 212.7 26.05 213.3 25.45 M163.6 46.8 L164.25 47.45 164.05 48.05 163.2 48.5 162.15 48.05 162.15 47.45 162.35 47.05 162.6 46.9 163.2 46.8 163.6 46.8 M192.45 83.85 L192.9 83.85 193.5 83.9 193.7 84.05 193.95 84.45 193.95 85.1 192.9 85.5 192.05 85.1 191.8 84.45 192.45 83.85 M208.65 74.35 L209.3 75.0 209.1 75.6 208.2 76.0 207.2 75.6 207.2 75.0 207.4 74.55 207.65 74.45 208.2 74.35 208.65 74.35 M171.65 139.75 L172.0 139.75 172.65 139.8 172.9 139.95 173.1 140.35 173.1 141.0 172.0 141.4 171.2 141.0 171.0 140.35 171.65 139.75 M115.75 18.8 L116.15 18.8 116.75 18.85 Q116.85 18.85 117.0 19.0 L117.2 19.4 117.2 20.05 116.15 20.45 115.3 20.05 115.1 19.4 115.75 18.8 M86.85 25.15 L87.5 25.75 87.3 26.4 86.45 26.8 85.4 26.4 85.4 25.75 85.6 25.35 85.85 25.2 86.45 25.15 86.85 25.15 M97.7 76.0 L98.3 76.65 98.1 77.25 97.3 77.7 96.25 77.25 96.25 76.65 96.5 76.25 96.65 76.1 97.3 76.0 97.7 76.0 M125.25 61.0 L125.85 61.65 125.65 62.25 124.8 62.65 123.75 62.25 123.75 61.65 124.0 61.2 124.25 61.1 124.8 61.0 125.25 61.0 M36.85 54.35 L37.45 54.95 37.2 55.6 36.4 56.0 35.35 55.6 35.35 54.95 35.6 54.55 35.75 54.4 36.4 54.35 36.85 54.35 M66.5 75.5 L66.95 75.5 67.5 75.6 67.75 75.7 68.0 76.15 68.0 76.75 66.95 77.2 66.1 76.75 65.85 76.15 66.5 75.5 M47.3 115.55 L47.75 115.55 48.35 115.6 48.55 115.75 48.75 116.15 48.75 116.8 47.75 117.2 46.9 116.8 46.7 116.15 47.3 115.55 M-595.5 -94.15 L-594.85 -93.5 -595.1 -92.9 -595.9 -92.5 -596.95 -92.9 -596.95 -93.5 -596.75 -93.95 -596.5 -94.1 -595.9 -94.15 -595.5 -94.15 M-579.65 -30.75 L-579.0 -30.15 -579.25 -29.5 -580.05 -29.1 -581.1 -29.5 -581.1 -30.15 -580.9 -30.55 -580.65 -30.7 -580.05 -30.75 -579.65 -30.75 M-499.55 -76.65 L-498.9 -76.0 -499.15 -75.4 -500.0 -74.95 -501.05 -75.4 -501.05 -76.0 -500.8 -76.45 -500.55 -76.55 -500.0 -76.65 -499.55 -76.65 M-328.3 -154.85 L-328.85 -155.4 -328.75 -155.95 -328.05 -156.45 -327.1 -156.1 -327.05 -155.55 -327.3 -155.15 -327.4 -155.0 -327.9 -154.85 -328.3 -154.85 M-387.55 -103.6 L-387.85 -103.55 -388.35 -103.6 -388.6 -103.7 -388.8 -104.1 -388.85 -104.7 -387.95 -105.15 -387.25 -104.85 -387.05 -104.3 -387.55 -103.6 M-382.05 -122.45 L-382.7 -123.0 -382.55 -123.6 -381.9 -124.05 -380.9 -123.7 -380.9 -123.15 -381.0 -122.75 -381.25 -122.65 -381.8 -122.5 -382.05 -122.45 M-350.55 -138.7 L-351.15 -139.25 -351.0 -139.85 -350.4 -140.25 -349.45 -140.0 -349.4 -139.4 -349.5 -139.0 -349.7 -138.85 -350.25 -138.7 -350.55 -138.7 M-422.25 -144.65 L-422.8 -145.2 -422.7 -145.85 -421.95 -146.25 -421.15 -145.95 -421.1 -145.35 -421.2 -144.95 -421.35 -144.85 -421.85 -144.7 -422.25 -144.65 M-443.9 -58.5 L-444.35 -58.45 -444.85 -58.45 -445.0 -58.55 -445.2 -58.95 -445.25 -59.55 -444.4 -59.95 -443.7 -59.7 -443.45 -59.1 -443.9 -58.5 M-469.6 -93.2 L-470.25 -93.8 -470.05 -94.35 -469.4 -94.85 -468.45 -94.5 -468.4 -93.95 -468.55 -93.55 -468.75 -93.4 Q-468.95 -93.25 -469.25 -93.25 L-469.6 -93.2 M-482.05 -37.4 L-481.45 -36.8 -481.6 -36.15 -482.45 -35.75 -483.5 -36.15 -483.5 -36.8 -483.3 -37.2 -483.05 -37.35 -482.45 -37.4 -482.05 -37.4 M-401.2 -49.8 L-401.6 -49.8 -402.15 -49.8 -402.3 -49.95 -402.55 -50.25 -402.55 -50.9 Q-402.1 -51.1 -401.75 -51.35 L-401.05 -51.05 -400.75 -50.4 -401.2 -49.8 M-345.2 -10.7 L-344.6 -10.1 -344.85 -9.45 -345.65 -9.1 -346.7 -9.45 -346.7 -10.1 -346.45 -10.55 -346.3 -10.65 -345.65 -10.7 -345.2 -10.7 M-178.3 -157.6 L-178.8 -158.2 -178.75 -158.75 -178.05 -159.2 -177.1 -158.9 -177.05 -158.35 -177.25 -157.9 -177.4 -157.75 -177.9 -157.6 -178.3 -157.6 M-236.3 -118.25 L-236.55 -118.2 -237.1 -118.25 -237.3 -118.4 -237.55 -118.75 -237.6 -119.35 -236.7 -119.8 -235.95 -119.45 -235.8 -118.9 -236.3 -118.25 M-315.5 -108.15 L-316.05 -108.65 -315.95 -109.35 Q-315.6 -109.5 -315.3 -109.75 L-314.35 -109.5 -314.3 -108.85 -314.5 -108.45 -314.6 -108.3 -315.15 -108.2 -315.5 -108.15 M-275.2 -139.35 L-275.7 -139.85 -275.6 -140.45 -274.9 -140.95 -274.0 -140.6 -273.95 -140.0 -274.15 -139.6 -274.25 -139.5 -274.8 -139.4 -275.2 -139.35 M-280.45 -90.7 L-280.8 -90.65 -281.3 -90.65 -281.5 -90.8 -281.7 -91.15 -281.75 -91.75 -280.95 -92.2 -280.15 -91.9 -279.95 -91.35 -280.45 -90.7 M-293.85 -51.8 L-294.25 -51.75 -294.75 -51.75 -294.9 -51.9 -295.2 -52.3 -295.25 -52.9 Q-294.8 -53.05 -294.35 -53.35 L-293.6 -53.05 -293.4 -52.45 -293.85 -51.8 M-217.5 -30.6 L-217.85 -30.55 -218.45 -30.55 -218.6 -30.65 -218.8 -31.05 -218.85 -31.65 Q-218.4 -31.8 -218.0 -32.05 L-217.25 -31.75 -217.0 -31.2 -217.5 -30.6 M-199.25 -45.75 L-198.65 -45.15 -198.85 -44.5 -199.65 -44.1 -200.7 -44.5 -200.7 -45.15 -200.5 -45.55 -200.3 -45.7 -199.65 -45.75 -199.25 -45.75 M-45.45 -127.85 L-45.8 -127.8 -46.3 -127.9 -46.5 -128.0 -46.7 -128.4 -46.75 -128.95 -45.95 -129.4 -45.15 -129.1 -44.95 -128.55 -45.45 -127.85 M-131.0 -172.9 L-131.55 -173.45 -131.45 -174.0 -130.8 -174.5 -129.85 -174.15 -129.8 -173.6 -130.0 -173.25 -130.1 -173.05 -130.65 -172.9 -131.0 -172.9 M-91.6 -142.05 L-92.25 -142.55 -92.1 -143.15 -91.4 -143.6 -90.45 -143.3 -90.4 -142.7 -90.6 -142.3 -90.75 -142.15 -91.25 -142.1 -91.6 -142.05 M-91.25 -9.15 L-91.65 -9.15 -92.2 -9.15 -92.35 -9.3 -92.6 -9.6 -92.65 -10.25 -91.75 -10.7 -91.05 -10.4 -90.8 -9.75 -91.25 -9.15 M-79.6 -90.3 L-79.95 -90.25 -80.45 -90.2 -80.65 -90.4 -80.9 -90.75 -80.95 -91.35 -80.1 -91.8 -79.35 -91.5 -79.15 -90.9 -79.6 -90.3 M-67.95 -64.15 L-68.55 -64.7 -68.4 -65.3 -67.75 -65.75 -66.8 -65.45 -66.75 -64.9 -66.95 -64.45 -67.1 -64.35 -67.65 -64.2 -67.95 -64.15 M-56.05 14.85 L-56.5 14.85 -57.1 14.8 -57.3 14.65 -57.55 14.2 -57.55 13.6 -56.5 13.2 -55.65 13.6 -55.45 14.2 -56.05 14.85 M-21.1 45.5 L-20.65 45.5 -20.05 45.55 -19.85 45.7 -19.6 46.1 -19.6 46.75 -20.65 47.1 -21.5 46.75 -21.75 46.1 -21.1 45.5 M-78.3 64.35 L-77.65 64.95 -77.9 65.6 -78.7 66.05 -79.75 65.6 -79.75 64.95 -79.55 64.55 -79.35 64.4 -78.7 64.35 -78.3 64.35 M-135.05 76.0 L-134.4 76.65 -134.6 77.25 -135.45 77.7 -136.5 77.25 -136.5 76.65 -136.3 76.25 -136.05 76.1 -135.45 76.0 -135.05 76.0 M-6.9 140.55 L-6.5 140.55 -5.85 140.65 Q-5.75 140.65 -5.65 140.8 L-5.45 141.2 -5.45 141.8 -6.5 142.25 -7.3 141.8 -7.5 141.2 -6.9 140.55 M-167.05 10.45 L-166.65 10.45 -166.05 10.55 -165.8 10.65 -165.6 11.1 -165.6 11.7 -166.65 12.1 -167.5 11.7 -167.7 11.1 -167.05 10.45 M-178.4 39.35 L-178.2 39.55 -177.8 39.95 -177.95 40.6 -178.85 41.0 -179.85 40.6 -179.85 39.95 -179.65 39.55 -179.4 39.35 -178.85 39.35 -178.4 39.35 M-187.9 95.55 L-187.5 95.55 -186.9 95.6 Q-186.8 95.6 -186.65 95.75 L-186.45 96.15 -186.45 96.8 -187.5 97.2 -188.35 96.8 -188.55 96.15 -187.9 95.55 M-288.05 120.55 L-287.6 120.55 -287.0 120.65 Q-286.85 120.65 -286.8 120.75 L-286.55 121.2 -286.55 121.8 -287.6 122.25 -288.45 121.8 -288.65 121.2 -288.05 120.55 M-231.3 132.2 L-230.9 132.2 -230.25 132.3 -230.05 132.45 -229.85 132.85 -229.85 133.45 -230.9 133.9 -231.7 133.45 -231.9 132.85 -231.3 132.2 M-331.65 4.95 L-331.95 5.0 -332.45 5.0 -332.7 4.85 -332.9 4.55 -332.95 3.9 -332.1 3.45 -331.3 3.75 -331.15 4.4 -331.65 4.95 M-343.7 43.0 L-344.05 43.0 -344.55 42.95 -344.75 42.9 -345.0 42.5 -345.05 41.95 -344.2 41.4 -343.45 41.8 -343.15 42.35 -343.7 43.0 M-359.45 84.35 L-358.8 84.95 -359.0 85.6 -359.8 86.05 -360.9 85.6 -360.9 84.95 -360.7 84.6 -360.45 84.45 -359.8 84.35 -359.45 84.35 M-414.85 6.35 L-415.15 6.4 -415.65 6.4 -415.9 6.25 -416.1 5.85 -416.15 5.25 -415.3 4.85 -414.55 5.1 -414.35 5.7 -414.85 6.35 M-432.8 19.3 L-432.2 19.9 -432.4 20.55 -433.25 21.0 Q-433.75 20.75 -434.3 20.55 L-434.3 19.9 -434.05 19.5 -433.85 19.35 -433.25 19.3 -432.8 19.3 M-453.15 81.35 L-452.8 81.35 -452.15 81.4 -451.9 81.55 -451.7 81.95 -451.7 82.6 -452.8 83.0 -453.6 82.6 -453.8 81.95 -453.15 81.35 M-413.65 59.35 L-413.0 59.95 -413.2 60.6 -414.05 61.0 -415.1 60.6 -415.1 59.95 -414.9 59.55 -414.65 59.4 -414.05 59.35 -413.65 59.35 M-423.8 66.8 L-424.15 66.8 -424.65 66.8 -424.85 66.7 -425.1 66.3 -425.15 65.7 -424.2 65.25 -423.55 65.55 -423.3 66.15 -423.8 66.8 M-464.0 132.2 L-463.6 132.2 -463.0 132.3 -462.8 132.45 -462.55 132.85 -462.55 133.45 -463.6 133.9 -464.45 133.45 -464.65 132.85 -464.0 132.2 M-403.15 110.55 L-402.7 110.55 -402.1 110.6 -401.9 110.75 -401.65 111.15 -401.65 111.8 -402.7 112.2 -403.55 111.8 -403.75 111.15 -403.15 110.55 M-558.75 27.65 L-558.15 28.25 -558.4 28.9 -559.2 29.3 -560.25 28.9 -560.25 28.25 -560.0 27.85 -559.85 27.7 -559.2 27.65 -558.75 27.65 M-537.95 83.5 L-537.3 84.15 -537.5 84.8 -538.35 85.2 Q-538.9 84.95 -539.4 84.8 L-539.4 84.15 -539.2 83.7 -538.95 83.6 -538.35 83.5 -537.95 83.5 M-608.0 41.0 L-607.4 41.6 -607.6 42.25 -608.45 42.65 -609.45 42.25 -609.45 41.6 -609.25 41.2 -609.05 41.05 -608.45 41.0 -608.0 41.0 M-574.95 130.55 L-574.55 130.55 -573.95 130.65 Q-573.85 130.65 -573.7 130.75 L-573.55 131.2 -573.55 131.8 -574.55 132.2 -575.4 131.8 -575.6 131.2 -574.95 130.55 M-635.05 80.45 L-634.6 80.45 -634.0 80.55 -633.8 80.7 -633.55 81.1 -633.55 81.7 -634.6 82.15 -635.45 81.7 -635.7 81.1 -635.05 80.45 M-491.55 117.2 L-491.15 117.2 -490.55 117.3 -490.3 117.4 -490.1 117.85 -490.1 118.5 -491.15 118.85 -491.95 118.5 -492.2 117.85 -491.55 117.2 M-529.9 103.0 L-529.55 103.0 -528.9 103.1 -528.65 103.25 -528.45 103.65 -528.45 104.25 -529.55 104.7 -530.35 104.25 -530.55 103.65 -529.9 103.0" fill="#999999" fill-rule="evenodd" stroke="none"/>
    <path d="M195.2 -246.7 L194.65 -247.25 194.85 -247.85 195.5 -248.3 196.4 -248.0 196.45 -247.4 196.25 -247.0 196.15 -246.9 195.6 -246.75 195.2 -246.7 M6.15 -223.9 L5.55 -224.45 5.65 -225.0 6.4 -225.5 7.3 -225.15 7.35 -224.6 7.2 -224.2 7.0 -224.1 6.5 -223.95 6.15 -223.9 M57.25 -206.65 L56.7 -207.2 56.85 -207.75 57.55 -208.25 58.45 -207.9 58.5 -207.35 58.3 -206.95 58.15 -206.8 57.7 -206.65 57.25 -206.65 M126.65 -249.85 L126.1 -250.4 126.2 -250.95 126.85 -251.4 127.85 -251.1 127.9 -250.55 127.65 -250.15 127.6 -249.95 127.0 -249.85 126.65 -249.85 M120.6 -235.95 Q120.25 -236.15 120.05 -236.5 L120.15 -237.05 120.8 -237.55 121.75 -237.2 121.8 -236.65 121.6 -236.3 121.45 -236.1 120.95 -235.95 120.6 -235.95 M26.0 -181.45 L25.65 -181.45 25.1 -181.5 24.9 -181.55 24.75 -181.95 24.7 -182.55 25.55 -183.05 Q25.9 -182.8 26.25 -182.7 L26.45 -182.1 26.0 -181.45 M284.6 -188.85 L284.2 -188.9 283.6 -189.0 283.4 -189.15 283.25 -189.6 283.3 -190.2 284.35 -190.45 285.05 -190.05 285.25 -189.4 284.6 -188.85 M312.8 -164.65 L312.45 -164.6 311.95 -164.65 Q311.8 -164.65 311.7 -164.75 L311.55 -165.05 311.55 -165.65 312.35 -166.2 313.05 -165.8 313.35 -165.25 312.8 -164.65 M212.8 -178.25 L212.45 -178.2 211.9 -178.2 211.75 -178.35 211.55 -178.65 211.5 -179.25 212.3 -179.75 213.05 -179.4 213.25 -178.85 212.8 -178.25 M166.95 -173.2 L166.5 -173.2 166.0 -173.25 165.85 -173.35 165.6 -173.7 165.55 -174.25 166.45 -174.75 167.15 -174.4 167.4 -173.85 166.95 -173.2 M236.5 -85.95 L235.9 -86.55 236.2 -87.1 237.0 -87.5 237.9 -86.95 237.85 -86.35 237.7 -86.05 237.45 -85.95 236.9 -85.9 236.5 -85.95 M448.25 -157.25 L447.85 -157.25 447.3 -157.4 447.15 -157.6 446.9 -157.95 446.95 -158.5 448.0 -158.85 448.75 -158.35 448.85 -157.8 Q448.6 -157.45 448.25 -157.25 M441.55 -171.15 L441.2 -171.15 440.55 -171.25 440.45 -171.45 440.2 -171.85 440.25 -172.4 441.35 -172.7 442.05 -172.25 442.2 -171.7 441.55 -171.15 M366.05 -168.0 L365.6 -168.05 365.0 -168.2 364.9 -168.3 364.7 -168.7 364.75 -169.3 365.7 -169.6 366.45 -169.15 366.65 -168.55 366.05 -168.0 M346.65 -99.55 L346.15 -100.15 346.4 -100.7 347.2 -101.05 348.1 -100.55 348.05 -99.95 347.8 -99.65 347.65 -99.5 347.05 -99.5 346.65 -99.55 M397.2 -94.5 L396.7 -95.15 396.95 -95.7 397.75 -96.05 398.7 -95.55 398.65 -95.0 398.4 -94.65 398.2 -94.55 397.65 -94.5 397.2 -94.5 M574.3 -145.2 L573.95 -145.25 Q573.65 -145.25 573.4 -145.4 573.3 -145.4 573.15 -145.5 L573.0 -145.9 573.05 -146.45 574.05 -146.8 574.85 -146.3 575.0 -145.75 574.3 -145.2 M518.0 -127.95 L517.55 -127.95 517.05 -128.1 Q516.95 -128.1 516.85 -128.25 L516.65 -128.65 516.7 -129.2 517.7 -129.55 518.45 -129.05 518.65 -128.5 518.0 -127.95 M552.45 -102.75 L551.95 -103.4 552.2 -104.0 552.95 -104.35 Q553.45 -104.05 553.9 -103.85 L553.85 -103.25 553.65 -102.85 553.45 -102.8 552.85 -102.75 552.45 -102.75 M569.75 47.35 L570.15 47.35 570.7 47.45 570.9 47.55 571.1 48.0 571.1 48.6 570.15 49.05 569.4 48.6 569.25 48.0 569.75 47.35 M587.45 94.4 L588.05 95.05 587.9 95.65 587.1 96.05 586.15 95.65 586.15 95.05 586.35 94.6 586.55 94.5 587.1 94.4 587.45 94.4 M534.5 71.05 L535.1 71.7 534.85 72.3 534.1 72.75 533.15 72.3 533.15 71.7 533.35 71.25 533.55 71.15 534.1 71.05 534.5 71.05 M420.6 24.85 L421.0 24.85 421.55 24.95 421.7 25.05 421.9 25.5 421.9 26.1 421.0 26.5 420.2 26.1 420.05 25.5 420.6 24.85 M464.85 96.05 L465.4 96.7 465.2 97.3 464.45 97.75 463.5 97.3 463.5 96.7 463.7 96.3 463.95 96.15 464.45 96.05 464.85 96.05 M371.4 25.7 L371.75 25.7 372.35 25.75 372.5 25.9 372.7 26.3 372.7 26.95 371.75 27.35 371.05 26.95 370.85 26.3 371.4 25.7 M384.6 100.25 L385.15 100.9 384.9 101.5 384.2 101.9 383.25 101.5 383.25 100.9 383.45 100.45 Q383.5 100.35 383.6 100.35 L384.2 100.25 384.6 100.25 M457.25 110.25 L457.85 110.9 457.6 111.5 456.9 111.9 455.9 111.5 455.9 110.9 456.1 110.45 456.3 110.3 456.9 110.25 457.25 110.25 M266.15 1.5 L266.5 1.5 267.05 1.6 267.25 1.7 267.45 2.1 267.45 2.75 266.5 3.2 265.8 2.75 265.55 2.1 266.15 1.5 M287.9 80.2 L288.55 80.8 288.3 81.45 287.5 81.9 286.45 81.45 286.45 80.8 286.65 80.4 286.9 80.3 287.5 80.2 287.9 80.2 M171.95 104.4 L172.55 105.0 172.35 105.65 171.55 106.05 170.5 105.65 170.5 105.0 170.7 104.6 170.9 104.45 171.55 104.4 171.95 104.4 M304.3 115.25 L304.9 115.85 304.65 116.5 303.95 116.9 302.95 116.5 302.95 115.85 303.15 115.45 303.35 115.3 303.95 115.25 304.3 115.25 M245.85 193.95 L246.25 193.95 246.9 194.0 247.1 194.15 247.35 194.55 247.35 195.2 246.25 195.6 245.45 195.2 245.2 194.55 245.85 193.95 M77.35 188.95 L77.75 188.95 78.4 189.0 78.6 189.15 78.85 189.6 78.85 190.2 77.75 190.6 76.95 190.2 76.7 189.6 77.35 188.95 M69.0 174.75 L69.45 174.75 70.0 174.85 70.25 175.0 70.5 175.4 70.5 176.0 69.45 176.45 68.6 176.0 68.4 175.4 69.0 174.75 M117.75 103.55 L118.35 104.2 118.15 104.8 117.3 105.2 116.3 104.8 116.3 104.2 116.5 103.75 116.7 103.65 117.3 103.55 117.75 103.55 M157.4 178.95 L157.85 178.95 158.5 179.05 158.65 179.15 158.9 179.6 158.9 180.2 157.85 180.6 157.05 180.2 156.8 179.6 157.4 178.95 M-347.2 -179.0 L-347.8 -179.55 -347.65 -180.15 -347.0 -180.55 -346.05 -180.3 -346.0 -179.75 -346.15 -179.25 -346.35 -179.2 -346.85 -179.05 -347.2 -179.0 M-393.2 -175.6 L-393.8 -176.1 -393.7 -176.75 Q-393.3 -176.95 -393.0 -177.2 L-392.05 -176.9 -392.0 -176.3 -392.2 -175.85 -392.35 -175.7 -392.85 -175.65 -393.2 -175.6 M-378.3 -141.4 L-378.6 -141.35 -379.15 -141.35 Q-379.25 -141.35 -379.35 -141.45 L-379.6 -141.8 -379.65 -142.4 Q-379.15 -142.65 -378.7 -142.85 L-378.0 -142.55 -377.75 -142.0 -378.3 -141.4 M-454.25 -148.55 L-454.65 -148.5 -455.15 -148.5 -455.3 -148.6 -455.6 -148.95 -455.65 -149.55 -454.7 -150.05 -454.0 -149.7 -453.8 -149.15 -454.25 -148.55 M-73.55 -204.85 L-74.15 -205.35 -74.05 -206.0 -73.35 -206.45 -72.45 -206.15 -72.4 -205.55 -72.55 -205.1 -72.7 -204.95 -73.2 -204.9 -73.55 -204.85 M-209.45 -212.8 L-210.05 -213.3 -209.95 -213.95 -209.3 -214.4 -208.3 -214.1 -208.3 -213.5 -208.4 -213.05 -208.65 -212.95 -209.15 -212.85 -209.45 -212.8 M-188.3 -153.25 L-188.65 -153.2 -189.25 -153.25 -189.4 -153.35 -189.6 -153.75 -189.6 -154.35 -188.8 -154.75 -188.1 -154.45 -187.85 -153.9 -188.3 -153.25 M-236.15 -126.9 L-236.5 -126.85 -237.05 -126.9 Q-237.15 -126.9 -237.25 -127.0 L-237.45 -127.35 -237.5 -128.0 -236.65 -128.45 Q-236.25 -128.25 -235.9 -128.15 L-235.7 -127.5 -236.15 -126.9 M-302.95 -144.3 L-303.35 -144.25 -303.85 -144.3 -304.05 -144.45 -304.3 -144.8 -304.35 -145.35 Q-303.85 -145.65 -303.5 -145.85 L-302.75 -145.5 -302.5 -144.95 -302.95 -144.3 M-311.05 -156.9 L-311.45 -156.85 -311.95 -156.85 -312.1 -157.0 -312.35 -157.4 -312.4 -158.0 -311.6 -158.4 -310.8 -158.15 -310.6 -157.55 -311.05 -156.9 M-106.85 -148.95 L-107.2 -148.95 -107.65 -148.95 -107.9 -149.05 -108.1 -149.4 -108.15 -150.0 -107.35 -150.5 -106.5 -150.15 -106.35 -149.55 -106.85 -148.95 M-161.2 160.6 L-160.8 160.6 -160.2 160.65 -159.95 160.8 -159.75 161.2 -159.75 161.85 -160.8 162.3 Q-161.2 162.05 -161.65 161.85 L-161.85 161.2 -161.2 160.6 M-46.6 126.05 L-46.0 126.7 -46.2 127.3 -47.0 127.75 -48.05 127.3 -48.05 126.7 -47.85 126.25 -47.65 126.15 -47.0 126.05 -46.6 126.05 M-7.75 149.75 L-7.3 149.75 -6.7 149.85 -6.5 149.95 -6.25 150.4 -6.25 151.0 -7.3 151.45 -8.15 151.0 -8.4 150.4 -7.75 149.75 M-66.1 173.1 L-65.7 173.1 -65.1 173.2 -64.85 173.3 -64.65 173.75 -64.65 174.35 -65.7 174.75 -66.55 174.35 -66.75 173.75 -66.1 173.1 M-300.2 116.9 L-299.6 117.55 -299.8 118.15 -300.6 118.55 -301.65 118.15 -301.65 117.55 -301.45 117.1 -301.25 117.0 -300.6 116.9 -300.2 116.9 M-319.7 182.3 L-319.3 182.3 -318.7 182.35 -318.45 182.45 -318.25 182.9 -318.25 183.55 -319.3 183.95 -320.15 183.55 -320.35 182.9 -319.7 182.3 M-205.1 104.4 L-204.45 105.0 -204.65 105.65 -205.55 106.05 -206.55 105.65 -206.55 105.0 -206.35 104.6 -206.1 104.45 -205.55 104.4 -205.1 104.4 M-358.55 93.55 L-357.95 94.15 -358.2 94.8 -359.0 95.25 -360.05 94.8 -360.05 94.15 -359.8 93.75 -359.6 93.6 -359.0 93.55 -358.55 93.55 M-435.3 118.55 L-434.7 119.2 -434.95 119.8 -435.75 120.25 -436.8 119.8 -436.8 119.2 -436.55 118.8 Q-436.5 118.65 -436.35 118.65 L-435.75 118.55 -435.3 118.55 M-443.65 132.75 L-443.05 133.4 -443.25 134.0 -444.1 134.4 -445.15 134.0 -445.15 133.4 -444.9 132.95 -444.7 132.8 -444.1 132.75 -443.65 132.75 M-484.05 159.75 L-483.6 159.75 -483.05 159.85 -482.8 159.95 -482.6 160.4 -482.6 161.0 -483.6 161.4 -484.5 161.0 -484.7 160.4 -484.05 159.75 M-612.15 137.75 L-611.55 138.35 -611.75 139.0 -612.6 139.4 -613.65 139.0 -613.65 138.35 -613.4 137.95 -613.2 137.8 -612.6 137.75 -612.15 137.75 M-523.75 122.75 L-523.1 123.35 -523.35 124.0 -524.15 124.4 -525.25 124.0 -525.25 123.35 -525.0 122.95 -524.8 122.8 -524.15 122.75 -523.75 122.75 M-538.25 160.6 L-537.85 160.6 -537.25 160.65 -537.0 160.8 -536.8 161.2 -536.8 161.85 -537.85 162.3 -538.7 161.85 -538.9 161.2 -538.25 160.6" fill="#666666" fill-rule="evenodd" stroke="none"/>
    <path d="M214.5 -237.65 L215.1 -237.05 214.9 -236.4 214.1 -236.0 213.05 -236.4 213.05 -237.05 213.25 -237.45 213.45 -237.6 214.1 -237.65 214.5 -237.65 M261.6 -217.05 L261.95 -217.05 262.5 -217.0 262.75 -216.85 262.9 -216.45 262.9 -215.85 261.95 -215.4 261.25 -215.85 261.0 -216.45 261.6 -217.05 M235.1 -202.9 L235.45 -202.9 236.05 -202.8 236.25 -202.7 236.4 -202.25 236.4 -201.65 235.45 -201.25 234.75 -201.65 234.5 -202.25 235.1 -202.9 M283.85 -213.25 L284.8 -212.35 285.05 -211.4 284.45 -210.45 282.3 -210.2 281.4 -211.1 281.4 -212.0 282.0 -212.9 283.2 -213.25 283.85 -213.25 M312.6 -245.15 L313.2 -244.5 313.0 -243.85 312.25 -243.45 311.3 -243.85 311.3 -244.5 311.5 -244.95 311.7 -245.05 312.25 -245.15 312.6 -245.15 M291.85 -243.75 L292.25 -243.75 292.85 -243.7 293.0 -243.55 293.2 -243.15 293.2 -242.55 292.25 -242.1 291.5 -242.55 291.35 -243.15 291.85 -243.75 M297.05 -234.3 L297.7 -233.65 297.5 -233.05 296.7 -232.65 295.6 -233.05 295.6 -233.65 295.8 -234.1 296.05 -234.25 296.7 -234.3 297.05 -234.3 M66.85 -232.65 L67.5 -232.0 67.3 -231.4 66.4 -230.95 65.4 -231.4 65.4 -232.0 65.6 -232.4 65.85 -232.55 66.4 -232.65 66.85 -232.65 M43.5 -214.3 L44.1 -213.65 43.9 -213.05 43.1 -212.6 42.05 -213.05 42.05 -213.65 42.25 -214.1 42.45 -214.2 43.1 -214.3 43.5 -214.3 M52.95 -203.6 L53.35 -203.65 53.85 -203.65 54.05 -203.5 54.3 -203.15 54.3 -202.55 53.45 -202.1 53.3 -202.2 52.55 -203.05 52.95 -203.6 M141.9 -212.6 L142.55 -212.0 142.35 -211.35 141.55 -210.95 140.45 -211.35 140.45 -212.0 140.65 -212.4 140.9 -212.55 141.55 -212.6 141.9 -212.6 M97.1 -169.3 L97.75 -169.3 99.0 -169.0 99.55 -168.1 99.55 -167.15 98.65 -166.25 96.5 -166.6 95.9 -167.5 96.2 -168.4 97.1 -169.3 M151.4 -138.9 L151.6 -138.9 151.9 -138.85 152.0 -138.8 152.1 -138.6 152.1 -138.3 151.6 -138.1 Q151.4 -138.15 151.15 -138.3 L151.1 -138.6 151.4 -138.9 M92.2 -115.25 L92.85 -115.25 94.05 -114.95 94.7 -114.0 94.7 -113.1 93.75 -112.2 91.6 -112.5 90.95 -113.4 91.25 -114.35 92.2 -115.25 M126.95 -110.85 L127.55 -110.2 127.3 -109.6 126.5 -109.2 125.45 -109.6 125.45 -110.2 125.7 -110.65 125.85 -110.75 126.5 -110.85 126.95 -110.85 M70.0 -186.2 L70.9 -185.3 71.2 -184.35 70.6 -183.45 68.45 -183.15 67.5 -184.05 67.5 -185.0 68.15 -185.9 69.35 -186.2 70.0 -186.2 M24.85 -192.25 L25.8 -191.45 26.1 -190.6 25.65 -189.75 23.85 -189.3 23.0 -190.05 22.9 -190.95 23.35 -191.85 24.35 -192.2 24.85 -192.25 M10.35 -196.3 L10.95 -195.75 10.85 -195.15 10.15 -194.7 9.2 -195.0 9.15 -195.6 9.35 -196.05 9.55 -196.1 10.05 -196.25 10.35 -196.3 M35.95 -153.4 L36.6 -152.75 36.4 -152.15 35.6 -151.7 34.5 -152.15 34.5 -152.75 34.75 -153.2 34.95 -153.3 35.6 -153.4 35.95 -153.4 M10.0 -129.3 L10.15 -129.3 10.5 -129.3 10.6 -129.2 10.7 -129.0 10.7 -128.7 10.15 -128.5 9.8 -128.7 9.65 -129.0 10.0 -129.3 M8.55 -125.3 L8.0 -125.8 8.15 -126.4 8.85 -126.9 9.7 -126.55 9.75 -125.95 9.6 -125.6 9.5 -125.45 8.95 -125.35 8.55 -125.3 M3.4 -115.15 L4.25 -114.45 4.65 -113.55 4.2 -112.65 2.35 -112.2 1.55 -112.9 1.45 -113.8 1.95 -114.7 2.9 -115.1 3.4 -115.15 M21.95 -121.15 L22.45 -121.2 23.6 -121.05 24.15 -120.25 24.25 -119.35 23.5 -118.4 21.65 -118.55 21.05 -119.35 21.25 -120.25 21.95 -121.15 M72.7 -132.55 L73.3 -131.9 73.1 -131.3 72.3 -130.9 71.25 -131.3 71.25 -131.9 71.45 -132.35 71.65 -132.45 72.3 -132.55 72.7 -132.55 M50.0 -121.0 L50.2 -121.0 50.55 -120.95 50.65 -120.85 50.75 -120.65 50.75 -120.35 50.2 -120.1 49.8 -120.35 49.7 -120.65 50.0 -121.0 M43.15 -63.0 L43.55 -63.0 44.2 -62.9 44.4 -62.8 44.6 -62.35 44.6 -61.7 43.55 -61.35 42.75 -61.7 42.55 -62.35 43.15 -63.0 M75.75 -81.0 L76.15 -81.05 76.6 -81.05 76.85 -80.85 77.05 -80.55 77.1 -79.9 76.25 -79.45 75.5 -79.75 75.3 -80.4 75.75 -81.0 M64.35 -60.8 L64.95 -60.15 64.75 -59.55 63.9 -59.15 62.9 -59.55 62.9 -60.15 63.1 -60.6 63.35 -60.75 63.9 -60.8 64.35 -60.8 M76.7 -52.55 L76.9 -52.55 77.2 -52.55 77.35 -52.45 77.45 -52.25 77.45 -51.95 76.9 -51.75 76.5 -51.95 76.4 -52.25 76.7 -52.55 M1.15 -63.3 L2.05 -62.4 2.4 -61.45 1.75 -60.5 -0.4 -60.25 -1.3 -61.15 -1.3 -62.1 -0.7 -63.0 0.55 -63.3 1.15 -63.3 M6.6 -0.35 L6.05 -0.85 6.15 -1.55 6.85 -1.95 7.75 -1.7 7.8 -1.05 7.6 -0.65 7.55 -0.5 6.95 -0.4 6.6 -0.35 M58.5 -13.7 L58.2 -14.0 58.25 -14.25 58.65 -14.55 59.05 -14.35 59.1 -14.1 59.0 -13.85 58.9 -13.8 58.7 -13.75 58.5 -13.7 M79.85 -8.3 L79.3 -8.3 78.25 -8.5 77.65 -9.3 77.6 -10.2 78.3 -11.05 80.15 -11.0 80.75 -10.15 80.5 -9.25 79.85 -8.3 M92.8 -75.55 L93.35 -75.5 94.5 -75.15 95.0 -74.25 94.9 -73.4 94.0 -72.55 92.0 -73.05 91.55 -73.95 91.85 -74.75 92.8 -75.55 M115.4 -11.9 L114.85 -12.45 115.0 -13.05 115.65 -13.45 116.55 -13.2 116.6 -12.6 116.4 -12.2 116.3 -12.05 115.8 -11.9 115.4 -11.9 M143.15 -24.25 L142.85 -24.5 142.9 -24.75 143.25 -25.0 143.75 -24.85 143.75 -24.6 143.65 -24.4 143.55 -24.3 143.35 -24.25 143.15 -24.25 M128.25 -22.2 L127.45 -23.15 127.15 -24.05 127.7 -24.95 129.65 -25.3 130.5 -24.35 130.5 -23.45 129.95 -22.5 128.8 -22.2 128.25 -22.2 M133.2 -15.6 L132.85 -15.55 132.35 -15.55 132.15 -15.7 131.95 -16.05 131.9 -16.65 132.75 -17.1 133.5 -16.8 133.65 -16.25 133.2 -15.6 M298.75 -159.55 L299.55 -158.65 299.85 -157.7 299.3 -156.8 297.35 -156.45 296.5 -157.35 296.5 -158.3 297.1 -159.2 298.2 -159.55 298.75 -159.55 M318.9 -164.1 L319.45 -164.1 320.6 -163.8 321.15 -162.9 321.15 -161.95 320.35 -161.05 318.35 -161.35 317.8 -162.25 318.05 -163.2 318.9 -164.1 M263.85 -197.9 L264.25 -197.9 264.8 -197.8 265.0 -197.7 265.2 -197.25 265.2 -196.65 264.25 -196.25 263.5 -196.65 263.3 -197.25 263.85 -197.9 M259.55 -165.05 L260.15 -164.45 259.95 -163.85 259.15 -163.4 258.1 -163.85 258.1 -164.45 258.3 -164.85 258.5 -165.0 259.15 -165.05 259.55 -165.05 M250.25 -169.55 L250.6 -169.55 251.15 -169.45 251.4 -169.3 251.55 -168.9 251.55 -168.3 250.6 -167.85 249.85 -168.3 249.65 -168.9 250.25 -169.55 M322.1 -124.2 L322.75 -123.55 322.5 -122.95 321.7 -122.55 320.65 -122.95 320.65 -123.55 320.85 -124.0 321.05 -124.1 321.7 -124.2 322.1 -124.2 M292.9 -138.35 L293.55 -137.75 293.3 -137.15 292.5 -136.7 291.45 -137.15 291.45 -137.75 291.65 -138.15 291.9 -138.3 292.5 -138.35 292.9 -138.35 M290.55 -126.25 L291.1 -125.75 290.9 -125.1 Q290.7 -124.9 290.3 -124.65 L289.4 -125.0 289.35 -125.6 289.5 -125.95 289.65 -126.1 290.15 -126.2 290.55 -126.25 M290.4 -119.2 L291.05 -118.55 290.8 -117.95 290.0 -117.55 288.95 -117.95 288.95 -118.55 289.15 -119.0 289.4 -119.1 290.0 -119.2 290.4 -119.2 M229.0 -175.4 L229.4 -175.4 229.95 -175.3 230.2 -175.2 230.35 -174.75 230.35 -174.1 229.4 -173.7 228.65 -174.1 228.45 -174.75 229.0 -175.4 M236.7 -166.45 L237.1 -166.45 237.7 -166.35 237.95 -166.25 238.15 -165.8 238.15 -165.15 237.1 -164.75 236.25 -165.15 236.05 -165.8 236.7 -166.45 M220.05 -160.7 L220.65 -160.7 221.9 -160.45 222.45 -159.5 222.45 -158.55 221.55 -157.65 219.4 -157.95 218.8 -158.85 219.1 -159.8 220.05 -160.7 M186.15 -170.05 L186.7 -169.5 186.8 -169.45 186.55 -168.8 185.9 -168.5 185.7 -168.4 184.65 -168.8 184.65 -169.45 184.9 -169.85 Q184.95 -170.0 185.15 -170.0 L185.7 -170.05 186.15 -170.05 M172.45 -145.55 L172.9 -145.55 173.45 -145.5 173.7 -145.35 173.9 -144.95 173.9 -144.3 172.9 -143.9 172.0 -144.3 171.85 -144.8 171.8 -144.95 172.0 -145.1 172.45 -145.55 M232.05 -116.15 L232.45 -116.15 232.95 -116.1 233.2 -115.9 233.35 -115.55 233.35 -114.9 232.45 -114.45 231.65 -114.9 231.45 -115.55 232.05 -116.15 M238.7 -112.9 L238.95 -112.6 238.9 -112.35 238.55 -112.05 Q238.3 -112.15 238.1 -112.3 L238.05 -112.55 238.15 -112.75 238.25 -112.8 238.5 -112.85 238.7 -112.9 M229.75 -85.4 L230.7 -84.5 231.0 -83.55 230.4 -82.65 228.2 -82.35 227.3 -83.25 227.3 -84.2 227.9 -85.1 229.15 -85.4 229.75 -85.4 M193.3 -98.85 L193.7 -98.85 194.35 -98.8 194.55 -98.65 194.75 -98.25 194.75 -97.6 193.7 -97.2 192.9 -97.6 192.7 -98.25 193.3 -98.85 M175.95 -72.6 L176.2 -72.6 176.5 -72.55 176.6 -72.5 176.7 -72.3 176.7 -72.0 176.2 -71.75 Q175.95 -71.85 175.8 -72.0 L175.65 -72.3 175.95 -72.6 M170.3 -37.45 L170.9 -36.85 170.7 -36.2 169.85 -35.75 168.8 -36.2 168.8 -36.85 169.05 -37.2 169.3 -37.4 169.85 -37.45 170.3 -37.45 M221.4 -45.6 L221.05 -45.55 220.55 -45.55 220.35 -45.75 220.05 -46.1 220.05 -46.7 220.9 -47.15 221.65 -46.85 221.85 -46.25 221.4 -45.6 M228.7 -13.25 L228.4 -13.45 228.5 -13.8 228.8 -14.05 229.3 -13.85 229.3 -13.55 229.2 -13.4 229.15 -13.35 228.9 -13.25 228.7 -13.25 M236.8 -6.7 L237.35 -6.05 237.05 -5.55 236.25 -5.15 235.6 -5.55 235.4 -6.15 235.4 -6.2 235.55 -6.55 Q235.7 -6.7 235.8 -6.7 L236.4 -6.75 236.8 -6.7 M305.4 -90.85 L306.05 -90.2 305.85 -89.6 305.0 -89.15 303.95 -89.6 303.95 -90.2 304.15 -90.6 304.4 -90.75 305.0 -90.85 305.4 -90.85 M312.5 -85.4 L312.9 -85.45 313.45 -85.4 313.65 -85.25 313.8 -84.9 313.8 -84.85 313.6 -84.25 313.0 -83.85 312.3 -84.25 312.0 -84.75 312.5 -85.4 M252.0 -80.85 L252.6 -80.85 253.8 -80.5 254.45 -79.6 254.45 -78.65 253.5 -77.75 251.35 -78.1 250.75 -79.0 251.1 -79.95 252.0 -80.85 M272.75 -82.7 L272.4 -82.7 271.8 -82.8 271.65 -82.95 271.45 -83.35 271.45 -83.4 271.7 -84.05 272.4 -84.4 273.15 -83.95 273.35 -83.35 272.75 -82.7 M261.0 -47.55 L261.45 -47.5 262.0 -47.4 262.15 -47.25 262.35 -46.9 262.3 -46.3 261.3 -45.95 260.6 -46.4 260.4 -47.05 261.0 -47.55 M275.15 -5.45 L274.65 -5.4 273.6 -5.55 273.05 -6.35 272.95 -7.25 273.65 -8.2 275.55 -8.05 276.1 -7.25 275.9 -6.35 275.15 -5.45 M280.6 -4.0 L279.95 -4.65 280.2 -5.25 281.0 -5.7 281.75 -5.35 282.05 -4.7 282.05 -4.65 281.85 -4.25 281.65 -4.1 281.0 -4.0 280.6 -4.0 M318.15 -34.2 L318.35 -34.15 318.65 -34.1 318.75 -34.05 318.85 -33.85 318.8 -33.6 318.3 -33.35 317.9 -33.65 317.85 -33.9 318.15 -34.2 M292.85 -37.15 L292.35 -37.75 292.55 -38.4 Q292.85 -38.6 293.3 -38.8 L294.25 -38.4 294.25 -37.75 294.0 -37.35 293.85 -37.2 293.3 -37.15 292.85 -37.15 M293.7 -11.45 L292.85 -12.15 292.55 -13.05 292.95 -13.95 294.8 -14.45 295.65 -13.7 295.75 -12.8 295.25 -11.9 294.2 -11.5 293.7 -11.45 M494.85 -232.1 L495.15 -232.1 495.75 -232.0 495.95 -231.9 496.15 -231.45 496.15 -230.85 495.15 -230.4 494.45 -230.85 494.25 -231.45 494.85 -232.1 M518.4 -208.0 L518.7 -207.7 518.6 -207.4 518.25 -207.2 517.75 -207.4 517.75 -207.7 517.85 -207.9 517.95 -208.0 518.25 -208.0 518.4 -208.0 M566.15 -243.05 L566.4 -242.75 566.3 -242.4 565.9 -242.25 565.45 -242.4 565.45 -242.75 565.55 -242.95 565.65 -243.0 565.9 -243.05 566.15 -243.05 M549.2 -207.45 L550.6 -206.85 551.15 -205.95 551.7 -205.0 551.45 -204.1 551.15 -203.15 550.9 -202.55 550.3 -202.25 549.2 -201.95 547.55 -202.55 547.0 -203.5 546.7 -204.4 546.7 -205.3 547.0 -206.2 547.55 -206.85 548.1 -207.15 549.15 -207.3 549.2 -207.45 M637.9 -239.4 L638.75 -238.5 639.05 -237.55 638.5 -236.65 636.5 -236.35 635.65 -237.25 635.65 -238.2 636.2 -239.15 637.3 -239.4 637.9 -239.4 M358.5 -248.75 L358.9 -248.75 359.4 -248.7 359.65 -248.55 359.85 -248.15 359.85 -247.5 358.9 -247.1 358.75 -247.2 358.15 -247.5 357.9 -248.15 358.0 -248.2 358.5 -248.75 M617.9 -214.5 L618.45 -214.5 619.6 -214.2 620.15 -213.25 620.15 -212.35 619.35 -211.45 617.4 -211.75 616.8 -212.7 617.05 -213.6 617.9 -214.5 M327.75 -239.4 L328.6 -238.5 328.85 -237.55 328.3 -236.65 326.35 -236.35 325.55 -237.25 325.55 -238.2 326.05 -239.15 327.2 -239.4 327.75 -239.4 M370.95 -224.25 L371.35 -223.8 371.55 -223.65 371.5 -223.5 371.35 -223.0 370.55 -222.6 369.6 -223.0 369.6 -223.65 369.8 -224.05 370.05 -224.2 370.55 -224.25 370.95 -224.25 M390.05 -217.6 L390.3 -217.3 390.25 -217.0 Q390.05 -216.85 389.85 -216.8 L389.4 -217.0 389.4 -217.3 389.5 -217.5 389.6 -217.55 389.85 -217.6 390.05 -217.6 M439.35 -248.0 L440.15 -247.1 440.4 -246.2 439.9 -245.3 437.9 -244.95 437.1 -245.85 437.1 -246.8 437.6 -247.7 438.75 -248.0 439.35 -248.0 M461.5 -211.25 L461.85 -211.25 462.45 -211.15 462.6 -211.05 462.8 -210.6 462.8 -210.0 461.85 -209.6 461.1 -210.0 460.95 -210.6 461.5 -211.25 M482.1 -199.7 L482.35 -199.35 482.25 -199.05 481.9 -198.8 481.4 -199.05 481.4 -199.35 481.5 -199.55 481.6 -199.65 481.9 -199.7 482.1 -199.7 M443.8 -193.95 L444.65 -193.05 444.9 -192.1 444.3 -191.2 442.35 -190.9 441.5 -191.8 441.5 -192.7 442.1 -193.65 443.2 -193.95 443.8 -193.95 M412.25 -189.55 L412.65 -189.55 413.25 -189.45 413.35 -189.35 413.6 -188.9 413.6 -188.3 412.65 -187.9 411.9 -188.3 411.7 -188.9 412.25 -189.55 M443.25 -154.25 L444.1 -153.45 444.35 -152.65 443.95 -151.75 442.15 -151.25 441.35 -152.1 441.25 -152.95 441.7 -153.85 442.75 -154.2 443.25 -154.25 M469.05 -139.5 L469.45 -139.5 469.95 -139.45 470.2 -139.3 470.4 -138.85 470.4 -138.25 469.45 -137.85 468.7 -138.25 468.5 -138.85 469.05 -139.5 M457.85 -131.25 L458.1 -130.95 458.05 -130.65 457.65 -130.45 457.15 -130.65 457.15 -130.95 457.25 -131.15 457.4 -131.25 457.65 -131.25 457.85 -131.25 M367.75 -151.3 L368.05 -151.0 367.9 -150.7 367.55 -150.45 367.1 -150.7 367.1 -151.0 367.15 -151.2 367.25 -151.25 367.55 -151.3 367.75 -151.3 M352.0 -177.55 L352.55 -176.95 352.35 -176.3 351.65 -175.9 350.7 -176.3 350.7 -176.95 350.85 -177.35 351.05 -177.5 351.65 -177.55 352.0 -177.55 M372.9 -116.15 L373.3 -116.15 373.8 -116.1 374.0 -115.9 374.25 -115.55 374.25 -114.9 373.3 -114.45 372.5 -114.9 372.35 -115.55 372.9 -116.15 M328.8 -96.7 L329.4 -96.05 329.2 -95.4 328.4 -95.0 327.35 -95.4 327.35 -96.05 327.5 -96.5 327.75 -96.6 328.4 -96.7 328.8 -96.7 M352.9 -57.65 L352.55 -57.6 352.05 -57.6 351.85 -57.8 351.65 -58.15 351.6 -58.75 352.4 -59.2 353.2 -58.9 353.4 -58.3 352.9 -57.65 M349.15 -46.3 L348.85 -46.6 348.9 -46.9 349.35 -47.15 Q349.55 -47.05 349.8 -46.9 L349.8 -46.6 349.7 -46.4 349.6 -46.35 349.35 -46.3 349.15 -46.3 M325.45 -37.45 L326.1 -36.85 325.9 -36.2 325.0 -35.75 324.0 -36.2 324.0 -36.85 324.2 -37.2 324.45 -37.4 325.0 -37.45 325.45 -37.45 M339.7 -6.25 L339.35 -6.2 338.85 -6.25 Q338.7 -6.25 338.6 -6.4 L338.4 -6.7 338.35 -7.25 339.2 -7.8 340.0 -7.4 340.2 -6.9 339.7 -6.25 M359.95 -2.6 L359.6 -2.55 359.05 -2.55 358.8 -2.65 358.65 -3.1 358.6 -3.7 359.45 -4.1 360.2 -3.85 360.4 -3.25 359.95 -2.6 M604.95 -143.35 L605.5 -142.75 605.25 -142.1 604.55 -141.7 603.6 -142.1 603.6 -142.75 603.8 -143.15 603.95 -143.3 604.55 -143.35 604.95 -143.35 M569.7 -117.6 L570.05 -117.55 570.55 -117.4 570.8 -117.35 571.0 -116.9 570.95 -116.3 569.9 -116.0 569.15 -116.45 569.05 -117.05 569.7 -117.6 M590.9 -114.55 L591.4 -113.95 591.2 -113.4 590.4 -113.0 589.45 -113.55 589.45 -114.1 589.7 -114.4 589.9 -114.55 590.5 -114.55 590.9 -114.55 M554.45 -185.8 L554.95 -185.25 554.75 -184.65 553.95 -184.3 553.0 -184.8 553.05 -185.4 553.3 -185.75 553.5 -185.85 554.1 -185.85 554.45 -185.8 M526.45 -142.0 L526.95 -142.0 528.1 -141.7 528.65 -140.8 528.65 -139.85 527.85 -138.95 525.9 -139.2 525.3 -140.15 525.6 -141.1 526.45 -142.0 M522.75 -124.9 L523.2 -124.35 522.4 -123.5 522.2 -123.4 521.25 -123.85 521.3 -124.45 521.55 -124.8 521.8 -124.95 522.3 -124.95 522.75 -124.9 M488.3 -141.7 L488.85 -141.05 488.65 -140.4 487.95 -140.05 487.0 -140.4 487.0 -141.05 487.15 -141.5 487.35 -141.6 487.95 -141.7 488.3 -141.7 M548.65 -134.2 L549.0 -133.9 548.9 -133.6 548.5 -133.35 548.05 -133.6 548.05 -133.9 548.1 -134.1 548.2 -134.15 548.5 -134.2 548.65 -134.2 M553.7 -113.55 L554.25 -113.5 555.35 -113.15 555.85 -112.25 555.75 -111.35 554.85 -110.6 552.85 -111.05 552.35 -111.9 552.7 -112.75 553.7 -113.55 M524.95 -64.35 L524.5 -64.35 524.0 -64.4 523.8 -64.6 523.55 -64.95 523.55 -65.6 524.5 -66.05 525.3 -65.6 525.45 -64.95 524.95 -64.35 M497.65 -2.3 L498.15 -1.7 497.9 -1.05 497.1 -0.75 496.15 -1.2 496.2 -1.85 496.45 -2.15 496.7 -2.35 497.2 -2.35 497.65 -2.3 M556.9 -42.45 L557.7 -41.55 557.9 -40.65 557.25 -39.85 555.2 -39.7 554.4 -40.65 554.5 -41.55 555.1 -42.35 556.35 -42.5 556.9 -42.45 M625.05 -97.8 L625.4 -97.8 626.0 -97.7 626.2 -97.55 626.35 -97.15 626.35 -97.1 626.35 -96.55 626.1 -96.45 625.4 -96.1 624.7 -96.55 624.45 -97.15 625.05 -97.8 M616.15 -69.35 L616.7 -68.7 616.4 -68.1 615.65 -67.8 614.7 -68.25 614.75 -68.85 614.95 -69.25 615.2 -69.3 615.75 -69.35 616.15 -69.35 M578.9 -16.4 L578.35 -16.4 577.2 -16.7 576.65 -17.6 576.65 -18.55 577.5 -19.45 579.5 -19.15 580.05 -18.25 579.75 -17.3 578.9 -16.4 M577.35 -36.45 L577.9 -36.4 578.95 -36.0 579.5 -35.1 579.4 -34.2 578.5 -33.5 576.45 -33.95 576.0 -34.85 576.4 -35.75 577.35 -36.45 M571.7 -46.6 L571.25 -46.65 570.65 -46.75 570.5 -46.9 570.35 -47.25 570.4 -47.85 571.35 -48.2 572.1 -47.7 572.3 -47.1 571.7 -46.6 M599.1 -20.95 L598.25 -21.85 597.95 -22.8 598.5 -23.7 600.45 -24.05 601.3 -23.15 601.3 -22.2 600.7 -21.3 599.65 -20.95 599.1 -20.95 M592.85 -10.7 L593.35 -10.1 593.15 -9.45 592.4 -9.05 591.45 -9.45 591.45 -10.1 591.7 -10.5 591.85 -10.65 592.4 -10.7 592.85 -10.7 M627.95 -41.65 L628.5 -41.0 628.25 -40.5 627.5 -40.15 Q626.95 -40.35 626.5 -40.65 L626.55 -41.2 626.8 -41.55 627.0 -41.65 627.6 -41.7 627.95 -41.65 M633.95 17.4 L633.6 17.4 633.05 17.3 632.8 17.2 632.65 16.75 632.65 16.15 633.6 15.75 634.3 16.15 634.55 16.75 633.95 17.4 M647.55 -10.95 L647.2 -10.95 646.65 -11.05 646.45 -11.2 646.25 -11.6 646.25 -12.2 647.2 -12.65 647.95 -12.2 648.15 -11.6 647.55 -10.95 M598.05 37.5 L597.5 36.85 597.75 36.35 598.55 35.95 599.2 36.35 599.5 36.45 599.45 36.95 599.45 37.0 599.25 37.35 599.05 37.5 598.4 37.55 598.05 37.5 M605.95 63.25 L605.6 63.25 605.0 63.2 604.8 63.05 604.65 62.65 604.65 62.05 605.6 61.6 606.3 62.05 606.5 62.65 605.95 63.25 M570.1 58.9 L569.25 58.0 568.95 57.05 569.5 56.15 571.45 55.85 572.25 56.75 572.25 57.7 571.75 58.65 570.65 58.9 570.1 58.9 M585.2 64.65 L584.6 64.0 584.8 63.35 585.55 62.95 586.5 63.35 586.5 64.0 586.35 64.45 586.1 64.55 585.55 64.65 585.2 64.65 M573.85 78.35 L573.45 78.3 572.8 78.2 572.7 78.05 572.5 77.65 572.55 77.0 573.55 76.75 574.3 77.15 574.45 77.85 573.85 78.35 M516.65 65.0 L516.45 64.95 516.2 64.9 516.1 64.85 516.0 64.6 516.05 64.35 516.5 64.15 516.95 64.45 517.0 64.7 516.65 65.0 M493.15 70.4 L492.4 69.45 492.15 68.55 492.8 67.7 494.85 67.65 495.6 68.5 495.55 69.4 494.9 70.2 493.75 70.4 493.15 70.4 M526.2 168.1 L525.95 168.1 525.65 168.05 525.55 167.95 525.5 167.75 525.55 167.45 526.0 167.35 526.4 167.55 526.45 167.85 526.2 168.1 M565.05 135.85 L564.7 135.85 564.1 135.8 563.9 135.65 563.75 135.25 563.75 134.6 564.7 134.2 565.4 134.6 565.6 135.25 565.05 135.85 M539.3 68.25 L538.9 68.25 538.4 68.2 538.2 68.05 537.95 67.65 537.95 67.0 538.9 66.6 539.1 66.7 539.8 67.7 539.3 68.25 M504.85 196.05 L504.3 195.4 504.6 194.85 505.4 194.5 506.35 195.0 506.3 195.55 506.05 195.95 505.85 196.05 505.25 196.1 504.85 196.05 M630.55 105.8 L630.3 105.8 630.1 105.7 630.0 105.65 629.9 105.45 629.9 105.15 630.35 105.05 630.8 105.2 630.9 105.55 630.55 105.8 M581.6 145.9 L580.85 144.95 580.65 144.1 581.35 143.25 583.35 143.15 584.15 144.1 584.05 144.9 583.45 145.75 582.2 145.95 581.6 145.9 M600.3 170.85 L599.7 170.8 598.55 170.45 598.05 169.5 598.15 168.65 599.05 167.9 601.1 168.3 601.55 169.2 601.25 170.1 600.3 170.85 M439.8 56.5 L439.2 56.5 437.95 56.2 437.35 55.25 437.35 54.35 438.25 53.4 440.4 53.75 441.0 54.65 440.7 55.55 439.8 56.5 M434.35 63.1 L433.85 62.45 434.05 61.9 434.85 61.6 435.8 62.05 435.75 62.65 435.5 63.0 435.3 63.15 434.75 63.15 434.35 63.1 M453.95 66.8 L453.55 66.8 452.95 66.65 452.85 66.5 452.65 66.1 452.7 65.5 453.7 65.25 454.4 65.65 454.55 66.25 453.95 66.8 M423.4 54.45 L423.2 54.45 422.95 54.4 422.85 54.3 422.75 54.1 422.75 53.85 423.3 53.7 423.65 53.95 423.75 54.2 423.4 54.45 M328.95 21.45 L328.65 21.45 328.15 21.4 327.9 21.35 327.7 20.95 327.65 20.35 328.5 19.9 329.25 20.2 329.45 20.8 328.95 21.45 M356.2 23.6 L355.85 23.65 355.3 23.6 355.1 23.5 354.9 23.15 354.85 22.6 355.75 22.1 356.45 22.45 356.75 22.95 356.2 23.6 M337.2 33.1 L336.7 32.45 336.9 31.85 337.75 31.55 338.7 32.0 338.65 32.6 338.35 32.95 338.15 33.15 337.6 33.15 337.2 33.1 M332.45 39.1 L332.15 39.1 331.6 39.1 331.35 39.05 331.2 38.65 331.15 38.1 332.0 37.6 332.7 37.95 332.95 38.5 332.45 39.1 M326.65 99.7 L326.6 99.5 325.6 99.45 325.05 99.2 324.45 98.7 324.15 97.9 324.1 97.0 324.3 96.05 324.75 95.15 326.25 94.5 327.3 94.7 327.9 94.9 328.15 95.5 328.5 96.3 328.8 97.15 328.3 98.05 327.9 98.95 326.65 99.7 M329.15 65.45 L328.95 65.45 328.65 65.35 328.6 65.3 328.5 65.15 328.5 64.85 329.05 64.65 329.35 64.9 329.5 65.25 329.15 65.45 M404.1 111.8 L403.5 111.75 402.4 111.35 401.85 110.45 401.95 109.6 402.9 108.85 404.85 109.25 405.4 110.15 405.05 111.05 404.1 111.8 M372.0 105.0 L371.45 104.35 371.75 103.8 372.55 103.5 373.5 103.95 373.45 104.55 373.15 104.9 373.0 105.0 372.4 105.05 372.0 105.0 M346.95 129.3 L346.75 129.3 346.55 129.25 346.45 129.15 346.35 128.95 346.35 128.65 346.85 128.55 347.25 128.75 347.3 129.05 346.95 129.3 M326.8 133.9 L326.35 133.85 325.85 133.75 325.6 133.6 325.5 133.2 325.55 132.55 326.5 132.3 327.3 132.7 327.4 133.25 327.45 133.4 327.25 133.45 326.8 133.9 M342.75 128.4 L342.45 128.45 341.9 128.45 341.6 128.3 341.45 127.85 341.4 127.3 342.3 126.9 343.0 127.2 343.25 127.7 342.75 128.4 M330.05 109.75 L329.5 109.8 328.4 109.6 327.85 108.8 327.8 107.95 328.5 107.0 330.35 107.1 330.9 107.95 330.8 108.85 330.05 109.75 M350.1 198.85 L349.55 198.25 349.8 197.65 350.6 197.35 351.55 197.8 351.5 198.4 351.3 198.75 351.05 198.9 350.45 198.9 350.1 198.85 M395.3 161.9 L394.7 161.85 393.6 161.5 393.1 160.6 393.2 159.7 394.1 158.9 396.05 159.45 396.6 160.3 396.25 161.15 395.3 161.9 M443.05 120.45 L442.85 120.4 442.55 120.35 442.45 120.25 442.4 120.1 442.4 119.8 Q442.65 119.7 442.95 119.55 L443.3 119.85 443.4 120.15 443.05 120.45 M479.75 131.3 L479.6 131.3 479.3 131.25 479.25 131.15 479.15 131.0 479.15 130.7 479.7 130.55 480.0 130.75 480.15 131.05 479.75 131.3 M420.95 129.45 L420.45 128.85 420.65 128.3 421.45 127.95 422.4 128.45 422.35 129.0 422.15 129.35 421.95 129.45 421.3 129.5 420.95 129.45 M419.3 179.8 L418.55 178.85 418.35 178.0 418.95 177.2 421.0 177.05 421.8 178.0 421.75 178.9 421.1 179.65 419.9 179.85 419.3 179.8 M453.65 151.75 L453.1 151.1 453.35 150.6 454.15 150.25 455.1 150.75 455.05 151.3 454.8 151.7 454.6 151.8 454.0 151.8 453.65 151.75 M483.85 213.2 L483.35 212.55 483.55 211.9 484.3 211.6 485.3 212.05 485.25 212.7 485.0 213.05 484.8 213.15 484.2 213.2 483.85 213.2 M441.85 208.1 L441.35 207.45 441.6 206.9 442.4 206.5 443.3 207.05 443.25 207.6 443.1 208.0 442.9 208.05 442.25 208.1 441.85 208.1 M418.65 223.45 L418.1 222.8 418.35 222.2 419.25 221.85 420.1 222.35 420.05 222.95 419.85 223.25 419.6 223.4 419.1 223.45 418.65 223.45 M632.25 211.35 L631.7 210.65 631.95 210.15 Q632.35 210.0 632.75 209.8 L633.7 210.3 633.65 210.85 633.45 211.25 633.2 211.35 632.6 211.4 632.25 211.35 M613.2 251.3 L612.65 250.75 612.9 250.15 613.75 249.8 614.7 250.3 614.65 250.9 614.4 251.2 614.2 251.35 613.65 251.35 613.2 251.3 M245.2 9.95 L244.65 9.4 244.75 8.8 245.45 8.4 246.35 8.65 246.4 9.25 246.25 9.65 246.1 9.85 245.55 9.95 245.2 9.95 M258.45 41.55 L258.0 41.55 257.35 41.5 257.2 41.35 256.95 40.95 256.95 40.3 258.0 39.9 258.8 40.3 259.05 40.95 258.45 41.55 M272.2 65.65 L271.4 64.85 271.1 64.0 271.5 63.1 273.3 62.65 274.15 63.45 274.2 64.3 273.8 65.25 272.75 65.6 272.2 65.65 M277.95 73.25 L277.15 72.35 276.9 71.45 277.55 70.65 279.6 70.5 280.4 71.45 280.3 72.35 279.7 73.15 278.5 73.3 277.95 73.25 M244.15 76.95 L243.8 77.0 243.3 77.0 243.15 76.9 242.85 76.55 242.8 75.95 243.65 75.5 243.8 75.55 244.45 75.8 244.65 76.35 244.6 76.45 244.15 76.95 M257.55 67.25 L257.0 67.2 255.85 66.8 255.3 65.9 255.4 65.0 256.35 64.25 258.35 64.75 258.8 65.65 258.45 66.55 257.55 67.25 M306.05 66.6 L305.7 66.65 305.15 66.65 305.0 66.5 304.75 66.2 304.7 65.65 305.65 65.1 306.3 65.5 306.5 66.05 306.05 66.6 M286.75 69.7 L286.15 69.15 286.3 68.55 287.0 68.05 287.9 68.4 287.9 69.0 287.85 69.4 287.6 69.5 287.1 69.65 286.75 69.7 M310.95 88.65 L310.6 88.65 310.0 88.55 309.8 88.35 309.65 87.95 309.7 87.35 310.7 87.1 Q311.05 87.25 311.45 87.5 L311.6 88.1 310.95 88.65 M192.3 21.05 L191.75 20.4 192.0 19.8 192.85 19.5 193.75 19.95 193.7 20.55 193.45 20.9 193.25 21.1 192.7 21.1 192.3 21.05 M160.65 33.1 L159.8 32.35 159.5 31.45 160.0 30.55 161.75 30.15 162.6 30.9 162.7 31.75 162.2 32.65 161.2 33.05 160.65 33.1 M189.8 26.3 L189.45 26.35 188.9 26.3 188.75 26.2 188.5 25.85 188.45 25.25 189.3 24.8 190.05 25.1 190.3 25.65 189.8 26.3 M196.45 32.4 L196.25 32.4 195.95 32.35 195.85 32.3 195.75 32.1 195.75 31.8 196.25 31.55 196.7 31.8 196.8 32.1 196.45 32.4 M168.65 83.2 L167.8 82.45 167.45 81.6 167.95 80.75 169.75 80.2 170.55 81.0 170.65 81.9 170.2 82.8 169.2 83.15 168.65 83.2 M184.55 76.1 L184.05 75.45 184.3 74.85 185.1 74.6 186.05 75.0 186.0 75.6 185.8 76.05 185.55 76.15 184.95 76.15 184.55 76.1 M230.85 55.2 L230.4 54.75 230.25 54.7 230.3 54.55 230.4 54.0 231.1 53.6 231.95 53.85 232.0 54.5 231.9 54.9 231.7 55.05 231.25 55.15 230.85 55.2 M212.55 50.6 L212.2 50.35 212.25 50.05 212.65 49.85 213.1 49.95 213.1 50.25 213.0 50.45 212.9 50.55 212.7 50.6 212.55 50.6 M206.85 72.45 L206.3 71.8 206.55 71.3 207.4 70.9 208.35 71.45 208.3 72.0 208.05 72.3 207.8 72.45 207.25 72.5 206.85 72.45 M218.7 100.15 L218.15 99.5 218.4 98.9 219.2 98.6 220.15 99.05 220.1 99.65 219.85 100.05 219.6 100.1 219.05 100.15 218.7 100.15 M209.7 120.15 L209.35 120.2 208.8 120.2 208.6 120.05 208.4 119.7 208.35 119.1 209.25 118.65 209.95 118.95 210.2 119.55 209.7 120.15 M214.85 117.8 L214.3 117.2 214.55 116.65 215.35 116.3 216.3 116.8 216.25 117.35 216.05 117.75 215.8 117.8 215.2 117.8 214.85 117.8 M188.7 102.3 L188.1 101.65 188.4 101.15 189.2 100.8 190.15 101.3 190.1 101.85 189.9 102.2 189.65 102.3 189.05 102.35 188.7 102.3 M221.25 178.4 L219.85 177.65 219.4 176.75 218.85 175.85 219.2 175.0 219.6 174.2 219.85 173.6 220.5 173.4 221.7 173.2 223.35 173.85 223.85 174.75 224.05 175.7 224.0 176.6 223.65 177.4 223.0 177.9 222.4 178.15 221.3 178.2 221.25 178.4 M217.5 188.45 L216.65 187.55 216.55 186.65 217.15 185.8 219.2 185.7 219.95 186.65 219.9 187.5 219.3 188.3 218.1 188.5 217.5 188.45 M243.95 145.3 L243.45 144.75 243.65 144.2 Q244.05 143.95 244.4 143.8 L245.4 144.35 245.35 144.9 245.1 145.2 244.95 145.35 244.3 145.35 243.95 145.3 M281.2 144.35 L280.6 144.3 279.45 143.95 279.0 143.0 279.1 142.15 280.0 141.35 282.0 141.8 282.45 142.7 282.1 143.55 281.2 144.35 M265.2 148.4 L264.8 148.35 264.25 148.2 264.0 148.1 263.9 147.7 263.95 147.1 264.9 146.75 265.7 147.25 265.85 147.85 265.2 148.4 M273.0 137.9 L272.65 137.95 272.1 137.95 271.9 137.8 271.7 137.5 271.7 136.9 272.5 136.4 Q272.85 136.5 273.2 136.75 L273.45 137.3 273.0 137.9 M312.1 155.65 L311.65 155.15 311.55 155.05 311.8 154.5 312.5 154.25 312.65 154.2 313.6 154.65 313.55 155.25 313.25 155.6 313.05 155.7 312.5 155.7 312.1 155.65 M125.3 41.75 L125.0 41.45 125.1 41.15 125.4 40.85 125.9 41.1 125.9 41.4 125.85 41.55 125.75 41.65 125.5 41.7 125.3 41.75 M115.7 73.05 L115.35 73.1 114.8 73.1 114.65 73.0 114.4 72.6 114.35 72.05 115.25 71.55 115.95 71.9 116.2 72.4 115.7 73.05 M92.0 52.6 L91.65 52.35 91.75 52.05 92.05 51.85 92.55 52.0 92.55 52.3 92.45 52.45 92.4 52.55 92.15 52.6 92.0 52.6 M145.35 50.75 L145.05 50.8 144.45 50.75 144.3 50.65 144.1 50.3 144.05 49.75 144.9 49.25 145.65 49.6 145.8 50.15 145.35 50.75 M146.85 101.1 L146.3 101.15 145.25 100.95 144.65 100.2 144.6 99.3 145.3 98.35 147.2 98.5 147.75 99.3 147.55 100.15 146.85 101.1 M2.8 14.35 L2.2 13.75 2.4 13.1 3.25 12.65 4.3 13.1 4.3 13.75 4.05 14.1 3.8 14.3 3.25 14.35 2.8 14.35 M-0.45 67.2 L-1.0 67.25 -2.15 67.05 -2.7 66.2 -2.75 65.4 -2.05 64.45 -0.25 64.55 0.4 65.4 0.2 66.25 -0.45 67.2 M49.85 89.4 L49.6 89.15 49.65 88.85 50.0 88.65 50.4 88.75 50.45 89.05 50.4 89.25 50.35 89.35 50.05 89.4 49.85 89.4 M69.2 117.35 L68.85 117.4 68.3 117.35 68.1 117.25 67.9 116.85 67.85 116.3 68.7 115.8 69.45 116.15 69.7 116.7 69.2 117.35 M147.45 144.75 L147.05 144.75 146.6 144.7 146.35 144.55 146.2 144.25 146.15 143.65 146.9 143.15 147.75 143.5 147.95 144.1 147.45 144.75 M126.4 129.4 L126.05 129.4 125.45 129.35 125.25 129.3 125.15 128.9 125.1 128.35 125.9 127.8 126.6 128.2 126.85 128.75 126.4 129.4 M88.25 134.5 L87.95 134.5 87.4 134.45 87.25 134.35 87.0 134.0 86.95 133.35 87.85 132.9 88.55 133.2 88.75 133.85 88.25 134.5 M280.35 216.6 L279.85 216.0 280.1 215.45 Q280.5 215.2 280.9 215.1 L281.8 215.6 281.75 216.2 281.55 216.5 281.35 216.65 280.75 216.65 280.35 216.6 M203.5 207.1 L202.95 206.4 203.2 205.9 204.0 205.6 205.0 206.0 204.95 206.55 204.75 207.0 204.45 207.15 203.85 207.15 203.5 207.1 M648.85 171.95 L648.3 171.3 648.5 170.8 649.35 170.4 650.3 170.95 650.25 171.5 650.05 171.8 649.8 171.95 649.2 172.0 648.85 171.95 M-463.4 -225.55 L-462.5 -224.65 -462.2 -223.7 -462.85 -222.8 -465.0 -222.45 -465.9 -223.35 -465.9 -224.3 -465.3 -225.2 -464.05 -225.55 -463.4 -225.55 M-323.75 -220.55 L-323.4 -220.25 -323.55 -219.95 Q-323.75 -219.8 -323.95 -219.75 L-324.5 -219.95 -324.5 -220.25 -324.35 -220.45 -324.3 -220.5 -323.95 -220.55 -323.75 -220.55 M-586.35 -216.9 L-585.4 -216.0 -585.1 -215.1 -585.75 -214.2 -587.9 -213.85 -588.8 -214.75 -588.8 -215.7 -588.2 -216.65 -586.95 -216.9 -586.35 -216.9 M-603.0 -222.65 L-602.35 -222.0 -602.55 -221.4 -603.45 -220.95 -604.45 -221.4 -604.45 -222.0 -604.25 -222.45 -604.0 -222.55 -603.45 -222.65 -603.0 -222.65 M-538.75 -201.75 L-538.15 -201.15 -538.35 -200.5 -539.2 -200.1 -540.2 -200.5 -540.2 -201.15 -540.0 -201.55 -539.8 -201.7 -539.2 -201.75 -538.75 -201.75 M-517.7 -195.1 L-517.4 -194.8 -517.5 -194.5 -517.9 -194.3 Q-518.2 -194.35 -518.4 -194.5 L-518.4 -194.8 -518.35 -195.0 -518.2 -195.1 -517.9 -195.1 -517.7 -195.1 M-508.25 -156.4 L-507.85 -156.4 -507.2 -156.35 -507.0 -156.2 -506.8 -155.8 -506.8 -155.15 -507.85 -154.75 -508.65 -155.15 -508.85 -155.8 -508.25 -156.4 M-559.65 -155.05 L-559.0 -154.45 -559.2 -153.8 -560.0 -153.4 -561.1 -153.8 -561.1 -154.45 -560.9 -154.85 -560.65 -155.0 -560.0 -155.05 -559.65 -155.05 M-542.3 -128.8 L-542.0 -128.5 -542.1 -128.2 -542.55 -127.95 -543.05 -128.2 -543.05 -128.5 -542.9 -128.7 -542.8 -128.75 -542.55 -128.8 -542.3 -128.8 M-650.15 -157.05 L-649.55 -157.05 -648.3 -156.7 -647.7 -155.8 -647.7 -154.9 -648.65 -154.0 -650.8 -154.25 -650.95 -154.5 -650.95 -156.25 -650.15 -157.05 M-580.8 -181.45 L-580.4 -181.45 -579.8 -181.4 -579.55 -181.2 -579.35 -180.85 -579.35 -180.2 -580.4 -179.75 -581.25 -180.2 -581.45 -180.85 -580.8 -181.45 M-552.45 -113.85 L-552.05 -113.85 -551.45 -113.8 -551.2 -113.65 -551.0 -113.25 -551.0 -112.6 -552.05 -112.2 -552.85 -112.6 -553.1 -113.25 -552.45 -113.85 M-618.3 -137.05 L-617.4 -136.15 -617.1 -135.2 -617.7 -134.3 -619.85 -134.0 -620.75 -134.9 -620.75 -135.8 -620.15 -136.7 -618.95 -137.05 -618.3 -137.05 M-625.85 -108.85 L-625.45 -108.85 -624.85 -108.8 -624.6 -108.65 -624.4 -108.25 -624.4 -107.65 -625.45 -107.2 -626.3 -107.65 -626.5 -108.25 -625.85 -108.85 M-647.05 -146.0 L-647.05 -145.8 -645.85 -145.7 -645.25 -145.35 -644.65 -144.75 -644.35 -143.85 -644.35 -142.9 -644.65 -141.95 -645.25 -141.05 -647.05 -140.45 -648.3 -140.75 -648.95 -141.05 -649.2 -141.7 -649.55 -142.6 -649.85 -143.55 -649.2 -144.45 -648.65 -145.35 -647.05 -146.0 M-596.05 -29.2 L-595.5 -29.2 -594.25 -28.9 -593.6 -28.0 -593.6 -27.05 -594.55 -26.15 -596.7 -26.45 -597.3 -27.35 -597.0 -28.3 -596.05 -29.2 M-493.25 -54.65 L-492.8 -54.65 -492.2 -54.55 -492.0 -54.45 -491.75 -54.0 -491.75 -53.4 -492.8 -53.0 -493.65 -53.4 -493.85 -54.0 -493.25 -54.65 M-342.35 -185.0 L-340.85 -184.35 -340.2 -183.45 -339.6 -182.5 -339.95 -181.6 -340.2 -180.65 -340.5 -180.05 -341.15 -179.75 -342.35 -179.45 -344.2 -180.05 -344.85 -181.0 -345.15 -181.9 -345.15 -182.8 -344.85 -183.75 -344.2 -184.35 -343.6 -184.65 -342.4 -184.8 -342.35 -185.0 M-364.75 -159.75 L-364.35 -159.75 -363.75 -159.7 -363.5 -159.55 -363.3 -159.15 -363.3 -158.5 -364.35 -158.1 -365.2 -158.5 -365.4 -159.15 -364.75 -159.75 M-376.3 -185.55 L-376.0 -185.2 -376.1 -184.9 -376.5 -184.7 -377.05 -184.9 -377.05 -185.2 -376.9 -185.4 -376.8 -185.5 -376.5 -185.55 -376.3 -185.55 M-343.95 -139.75 L-343.5 -139.75 -342.85 -139.65 -342.7 -139.55 -342.45 -139.1 -342.45 -138.5 -343.5 -138.05 -344.3 -138.5 -344.55 -139.1 -343.95 -139.75 M-342.95 -111.7 L-342.65 -111.4 -342.7 -111.1 -343.15 -110.85 -343.65 -111.1 -343.65 -111.4 -343.6 -111.6 -343.45 -111.65 -343.15 -111.7 -342.95 -111.7 M-416.35 -177.2 L-416.0 -176.9 -416.15 -176.55 -416.55 -176.35 -417.1 -176.55 -417.1 -176.9 -416.95 -177.05 -416.85 -177.15 -416.55 -177.2 -416.35 -177.2 M-409.8 -158.1 L-409.4 -158.1 -408.8 -158.0 -408.55 -157.9 -408.35 -157.45 -408.35 -156.85 -409.4 -156.4 -410.25 -156.85 -410.45 -157.45 -409.8 -158.1 M-433.15 -176.45 L-432.75 -176.45 -432.15 -176.35 -431.9 -176.2 -431.7 -175.8 -431.7 -175.2 -432.75 -174.75 -433.6 -175.2 -433.8 -175.8 -433.15 -176.45 M-458.55 -171.45 L-457.6 -170.55 -457.3 -169.6 -457.9 -168.7 -460.05 -168.4 -461.0 -169.3 -461.0 -170.2 -460.35 -171.15 -459.15 -171.45 -458.55 -171.45 M-436.3 -130.0 L-435.65 -130.0 -434.45 -129.65 -433.85 -128.75 -433.85 -127.85 -434.75 -126.95 -436.95 -127.25 -437.5 -128.15 -437.25 -129.1 -436.3 -130.0 M-443.05 -108.75 L-442.7 -108.45 -442.85 -108.15 -443.25 -107.95 -443.8 -108.15 -443.8 -108.45 -443.65 -108.65 -443.55 -108.75 -443.25 -108.75 -443.05 -108.75 M-409.5 -119.2 L-408.85 -118.55 -409.05 -117.95 -409.9 -117.55 -410.95 -117.95 -410.95 -118.55 -410.7 -119.0 -410.5 -119.1 -409.9 -119.2 -409.5 -119.2 M-439.0 -76.3 L-438.6 -76.3 -438.0 -76.25 -437.75 -76.15 -437.55 -75.7 -437.55 -75.05 -438.6 -74.7 -439.45 -75.05 -439.65 -75.7 -439.0 -76.3 M-402.3 -97.2 L-401.9 -97.2 -401.25 -97.1 -401.05 -97.0 -400.85 -96.55 -400.85 -95.95 -401.9 -95.5 -402.7 -95.95 -402.9 -96.55 -402.3 -97.2 M-430.65 -4.6 L-430.25 -4.6 -429.65 -4.55 -429.4 -4.4 -429.2 -3.95 -429.2 -3.35 -430.25 -2.95 -431.1 -3.35 -431.3 -3.95 -430.65 -4.6 M-381.85 -43.25 L-382.4 -43.75 -382.25 -44.35 -381.6 -44.85 -380.7 -44.5 -380.65 -43.9 -380.8 -43.6 -380.95 -43.4 -381.45 -43.25 -381.85 -43.25 M-367.5 -7.1 L-366.85 -7.1 -365.6 -6.75 -365.0 -5.85 -365.0 -4.95 -365.95 -4.05 -368.1 -4.3 -368.7 -5.25 -368.4 -6.2 -367.5 -7.1 M-142.5 -245.15 L-141.9 -244.55 -142.1 -243.9 -142.95 -243.5 -144.0 -243.9 -144.0 -244.55 -143.75 -244.95 -143.55 -245.1 -142.95 -245.15 -142.5 -245.15 M-159.25 -200.95 L-158.6 -200.3 -158.8 -199.7 -159.6 -199.25 -160.65 -199.7 -160.65 -200.3 -160.5 -200.75 -160.25 -200.85 -159.6 -200.95 -159.25 -200.95 M-107.65 -198.5 L-106.05 -197.9 -105.5 -196.95 -104.85 -196.05 -105.15 -195.1 -105.5 -194.2 -105.75 -193.6 -106.4 -193.3 -107.65 -192.95 -109.5 -193.6 -110.05 -194.5 -110.4 -195.45 -110.4 -196.35 -110.05 -197.25 -109.5 -197.9 -108.85 -198.15 -107.65 -198.3 -107.65 -198.5 M-1.55 -216.0 L-0.95 -215.35 -1.15 -214.7 -1.95 -214.3 -3.0 -214.7 -3.0 -215.35 -2.8 -215.75 -2.6 -215.9 -1.95 -216.0 -1.55 -216.0 M-244.65 -216.9 L-243.75 -216.0 -243.4 -215.1 -244.05 -214.2 -246.2 -213.85 -247.15 -214.75 -247.15 -215.7 -246.5 -216.65 -245.3 -216.9 -244.65 -216.9 M-191.1 -190.55 L-190.8 -190.2 -190.9 -189.9 -191.3 -189.65 -191.85 -189.9 -191.85 -190.2 -191.75 -190.4 -191.65 -190.5 -191.3 -190.55 -191.1 -190.55 M-173.4 -157.6 L-172.75 -156.95 -172.95 -156.35 -173.8 -155.9 -174.85 -156.35 -174.85 -156.95 -174.65 -157.35 -174.4 -157.5 -173.8 -157.6 -173.4 -157.6 M-207.1 -144.75 L-206.7 -144.75 -206.1 -144.65 -205.85 -144.55 -205.65 -144.1 -205.65 -143.5 -206.7 -143.05 -207.5 -143.5 -207.7 -144.1 -207.1 -144.75 M-223.8 -188.95 L-223.4 -188.95 -222.75 -188.9 -222.55 -188.75 -222.3 -188.35 -222.3 -187.7 -223.4 -187.3 -224.2 -187.7 -224.45 -188.35 -223.8 -188.95 M-218.2 -145.05 L-217.9 -144.75 -218.0 -144.45 -218.45 -144.25 -218.95 -144.45 -218.95 -144.75 -218.85 -145.0 -218.7 -145.0 -218.45 -145.05 -218.2 -145.05 M-192.9 -101.35 L-192.5 -101.35 -191.9 -101.3 -191.65 -101.15 -191.5 -100.75 -191.5 -100.1 -192.5 -99.7 -193.35 -100.1 -193.55 -100.75 -192.9 -101.35 M-175.2 -134.35 L-175.0 -134.35 -174.7 -134.3 -174.55 -134.2 -174.5 -134.0 -174.5 -133.7 -175.0 -133.45 -175.45 -133.7 -175.5 -134.0 -175.2 -134.35 M-311.05 -166.55 L-310.1 -165.6 -309.8 -164.7 -310.4 -163.75 -312.6 -163.45 -313.5 -164.4 -313.5 -165.3 -312.9 -166.25 -311.65 -166.55 -311.05 -166.55 M-258.7 -142.3 L-258.7 -142.1 -257.45 -141.95 -256.85 -141.7 -256.25 -141.05 -255.95 -140.1 -255.95 -139.2 -256.25 -138.3 -256.85 -137.4 -258.7 -136.75 -259.95 -137.05 -260.55 -137.4 -260.85 -137.95 -261.15 -138.9 -261.45 -139.85 -260.85 -140.75 -260.25 -141.7 -258.7 -142.3 M-281.0 -120.85 L-280.35 -120.25 -280.6 -119.6 -281.4 -119.2 -282.5 -119.6 -282.5 -120.25 -282.25 -120.65 -282.05 -120.8 -281.4 -120.85 -281.0 -120.85 M-266.7 -79.6 L-266.1 -79.6 -264.85 -79.3 -264.25 -78.35 -264.25 -77.45 -265.15 -76.5 -267.3 -76.85 -267.9 -77.75 -267.6 -78.65 -266.7 -79.6 M-290.4 -29.65 L-290.95 -30.2 -290.85 -30.8 -290.1 -31.25 -289.25 -30.95 -289.2 -30.4 -289.3 -29.95 -289.5 -29.8 -290.0 -29.7 -290.4 -29.65 M-175.95 -55.55 L-176.3 -55.5 -176.85 -55.5 -177.05 -55.65 -177.25 -56.0 -177.3 -56.65 -176.4 -57.0 -175.7 -56.75 -175.45 -56.15 -175.95 -55.55 M-236.65 -32.2 L-237.45 -33.0 -237.8 -33.85 -237.3 -34.75 -235.55 -35.2 -234.65 -34.4 -234.6 -33.6 -235.1 -32.7 -236.1 -32.25 -236.65 -32.2 M-8.9 -193.25 L-8.55 -193.25 -8.0 -193.25 -7.8 -193.1 -7.6 -192.8 -7.6 -192.25 -8.45 -191.7 -9.15 -192.1 -9.35 -192.65 -8.9 -193.25 M-22.4 -195.95 L-21.75 -195.3 -22.0 -194.7 -22.8 -194.25 -23.9 -194.7 -23.9 -195.3 -23.65 -195.75 -23.45 -195.85 -22.8 -195.95 -22.4 -195.95 M-42.6 -164.35 L-42.35 -164.35 -42.05 -164.3 -41.95 -164.25 -41.85 -164.05 -41.85 -163.7 -42.35 -163.55 -42.8 -163.7 -42.9 -164.05 -42.6 -164.35 M-121.65 -160.7 L-121.0 -160.7 -119.8 -160.45 -119.2 -159.5 -119.2 -158.55 -120.1 -157.65 -122.3 -157.95 -122.9 -158.85 -122.6 -159.8 -121.65 -160.7 M-23.95 -128.75 L-23.9 -128.6 -22.7 -128.45 -22.1 -128.15 -21.5 -127.5 -21.2 -126.6 -21.2 -125.7 -21.5 -124.8 -22.1 -123.85 -23.95 -123.25 -25.15 -123.55 -25.8 -123.85 -26.1 -124.45 -26.4 -125.4 -26.7 -126.3 -26.1 -127.25 -25.5 -128.15 -23.95 -128.75 M-31.8 -148.05 L-31.45 -148.05 -30.95 -148.0 -30.75 -147.95 -30.55 -147.55 -30.5 -146.95 -31.35 -146.5 -32.05 -146.8 -32.3 -147.4 -31.8 -148.05 M-42.55 -120.35 L-42.2 -120.4 -41.65 -120.35 -41.5 -120.25 -41.25 -119.9 -41.2 -119.35 -42.1 -118.85 Q-42.45 -118.95 -42.8 -119.2 L-43.05 -119.7 -42.55 -120.35 M-99.6 -135.8 L-98.7 -134.9 -98.4 -134.0 -99.05 -133.05 -101.2 -132.75 -102.1 -133.65 -102.1 -134.55 -101.5 -135.5 -100.25 -135.8 -99.6 -135.8 M-148.1 -88.85 L-147.85 -88.85 -147.6 -88.8 -147.5 -88.75 -147.35 -88.55 -147.35 -88.2 -147.85 -88.05 -148.3 -88.2 -148.4 -88.55 -148.1 -88.85 M-85.35 -64.65 L-84.9 -64.65 -84.25 -64.6 -84.1 -64.45 -83.85 -64.05 -83.85 -63.4 -84.9 -63.0 -85.7 -63.4 -85.95 -64.05 -85.35 -64.65 M-147.7 -81.95 L-148.25 -82.5 -148.1 -83.05 -147.35 -83.6 -146.5 -83.2 -146.45 -82.65 -146.6 -82.25 Q-146.65 -82.15 -146.8 -82.15 L-147.3 -82.0 -147.7 -81.95 M-107.5 -19.1 L-106.85 -18.45 -107.1 -17.85 -107.9 -17.4 -108.65 -17.75 -108.95 -17.85 -108.95 -18.4 -108.95 -18.45 -108.75 -18.85 -108.55 -19.0 -107.9 -19.1 -107.5 -19.1 M-23.35 -55.5 L-23.15 -55.5 -22.85 -55.45 -22.75 -55.4 -22.65 -55.2 -22.65 -54.9 -23.15 -54.65 -23.6 -54.9 -23.7 -55.2 -23.35 -55.5 M-15.4 -41.2 L-15.7 -41.15 -16.3 -41.2 -16.5 -41.35 -16.65 -41.7 -16.65 -41.75 -16.7 -42.25 -16.45 -42.35 -15.85 -42.75 -15.1 -42.35 -14.9 -41.85 -15.4 -41.2 M-82.0 42.25 L-82.6 41.75 -82.45 41.1 -81.75 40.65 -80.95 41.0 -80.9 41.6 -80.95 41.95 -81.15 42.1 -81.65 42.2 -82.0 42.25 M-44.9 27.1 L-45.2 26.85 -45.1 26.5 -44.7 26.35 -44.3 26.45 -44.3 26.75 -44.4 26.95 -44.5 27.0 -44.65 27.1 -44.9 27.1 M-56.65 62.3 L-57.6 61.4 -57.9 60.45 -57.3 59.55 -55.1 59.25 -54.2 60.15 -54.2 61.1 -54.8 62.0 -56.05 62.3 -56.65 62.3 M-72.0 68.0 L-71.55 68.0 -70.9 68.05 -70.75 68.2 -70.5 68.6 -70.5 69.25 -71.55 69.65 -72.35 69.25 -72.6 68.6 -72.0 68.0 M-64.7 71.7 L-64.95 71.4 -64.95 71.1 -64.6 70.85 -64.15 71.0 -64.1 71.3 -64.15 71.5 -64.25 71.6 -64.55 71.7 -64.7 71.7 M-61.5 93.25 L-61.8 93.3 -62.35 93.25 -62.6 93.1 -62.75 92.8 -62.8 92.25 -61.95 91.7 -61.2 92.1 -61.0 92.6 -61.5 93.25 M-146.05 27.65 L-146.9 26.85 -147.25 26.0 -146.85 25.15 -144.95 24.65 -144.2 25.45 -144.1 26.3 -144.55 27.2 -145.55 27.6 -146.05 27.65 M-132.3 67.75 L-132.95 67.1 -132.75 66.5 -131.9 66.05 Q-131.35 66.25 -130.85 66.5 L-130.85 67.1 -131.05 67.5 -131.3 67.65 -131.9 67.75 -132.3 67.75 M-155.25 67.25 L-155.65 67.3 -156.2 67.35 -156.4 67.2 -156.6 66.85 -156.65 66.25 -155.75 65.8 -155.05 66.1 -154.75 66.65 -155.25 67.25 M-117.3 96.1 L-117.95 95.45 -117.7 94.85 -116.9 94.45 -115.85 94.85 -115.85 95.45 -116.05 95.9 -116.3 96.0 -116.9 96.1 -117.3 96.1 M-90.95 83.9 L-91.5 83.35 -91.4 82.75 -90.75 82.25 -89.8 82.6 -89.8 83.15 -89.95 83.6 -90.15 83.7 -90.65 83.85 -90.95 83.9 M-100.35 85.0 L-100.6 85.0 -100.8 85.05 -100.95 85.05 -101.0 84.8 -101.05 84.5 -100.6 84.3 -100.25 84.45 -100.1 84.75 -100.35 85.0 M-102.05 126.45 L-102.6 125.95 -102.5 125.3 -101.8 124.9 -100.85 125.15 -100.8 125.75 -101.0 126.2 -101.1 126.35 -101.7 126.4 -102.05 126.45 M-86.45 141.95 L-87.05 141.35 -86.85 140.75 -86.05 140.3 -85.0 140.75 -85.0 141.35 -85.2 141.75 -85.4 141.9 -86.05 141.95 -86.45 141.95 M-117.7 154.2 L-118.3 154.25 -119.3 154.1 -119.9 153.25 -120.0 152.35 -119.25 151.45 -117.4 151.6 -116.8 152.4 -117.05 153.3 -117.7 154.2 M-13.05 146.95 L-13.6 146.4 -12.8 145.4 -12.6 145.3 -11.55 145.7 -11.55 146.35 -11.8 146.75 Q-11.85 146.9 -12.05 146.9 L-12.6 146.95 -13.05 146.95 M-63.6 143.35 L-64.0 143.35 -64.6 143.25 -64.85 143.15 -65.05 142.7 -65.05 142.05 -64.0 141.65 -63.15 142.05 -62.95 142.7 -63.6 143.35 M-74.15 125.4 L-74.35 125.4 -74.65 125.4 -74.75 125.35 -74.85 125.15 -74.85 124.85 -74.45 124.6 -74.05 124.8 -74.0 125.05 -74.15 125.4 M-46.95 137.6 L-47.55 137.6 -48.8 137.35 -49.35 136.4 -49.35 135.45 -48.45 134.55 -46.3 134.85 -45.7 135.75 -46.0 136.7 -46.95 137.6 M-46.45 132.65 L-46.75 132.7 -47.3 132.65 -47.5 132.55 -47.7 132.15 -47.75 131.6 -46.9 131.1 -46.15 131.45 -45.95 131.95 -46.45 132.65 M-29.15 172.6 L-29.55 172.65 -30.05 172.65 -30.25 172.5 -30.45 172.2 -30.5 171.6 -29.65 171.1 -28.85 171.45 -28.65 172.05 -29.15 172.6 M-208.5 63.6 L-208.65 63.6 -208.9 63.55 -209.05 63.55 -209.1 63.35 -209.15 63.05 -208.7 62.8 -208.3 62.95 -208.25 63.25 -208.5 63.6 M-207.3 89.8 L-207.85 89.25 -207.75 88.7 -207.1 88.2 -206.15 88.55 -206.1 89.1 -206.3 89.55 -206.4 89.65 -206.95 89.75 -207.3 89.8 M-258.85 37.1 L-258.4 37.1 -257.8 37.2 -257.6 37.35 -257.35 37.75 -257.35 38.35 -258.4 38.8 -259.25 38.35 -259.45 37.75 -258.85 37.1 M-294.35 11.8 L-293.7 12.4 -293.95 13.05 -294.75 13.4 -295.8 13.05 -295.8 12.4 -295.6 12.0 -295.4 11.85 -294.75 11.8 -294.35 11.8 M-292.4 37.95 L-293.0 37.45 -292.9 36.8 -292.15 36.4 -291.3 36.65 -291.25 37.25 -291.35 37.75 -291.55 37.8 -292.05 37.9 -292.4 37.95 M-293.5 68.55 L-293.7 68.55 -293.95 68.6 -294.0 68.55 -294.2 68.35 -294.2 68.05 -293.75 67.85 -293.4 68.0 -293.3 68.25 -293.5 68.55 M-286.3 87.85 L-287.2 87.15 -287.5 86.25 -287.05 85.35 -285.2 84.9 -284.4 85.7 -284.3 86.55 -284.8 87.45 -285.75 87.8 -286.3 87.85 M-259.8 54.65 L-260.35 54.1 -260.25 53.45 -259.6 53.0 -258.65 53.3 -258.6 53.9 -258.75 54.35 -258.9 54.45 -259.45 54.6 -259.8 54.65 M-264.35 75.75 L-264.7 75.8 -265.2 75.7 -265.35 75.65 -265.65 75.25 -265.7 74.65 -264.85 74.25 -264.05 74.5 -263.85 75.1 -264.35 75.75 M-261.9 112.05 L-262.45 111.5 -262.4 110.95 -261.65 110.45 -260.75 110.8 -260.7 111.35 -260.85 111.75 -261.05 111.9 -261.55 112.05 -261.9 112.05 M-266.1 130.45 L-266.25 130.45 -266.5 130.4 -266.6 130.3 -266.75 130.2 -266.8 129.9 -266.3 129.65 -265.95 129.8 -265.8 130.1 -266.1 130.45 M-280.35 131.05 L-280.95 130.5 -280.85 129.9 -280.15 129.4 -279.2 129.75 -279.15 130.3 -279.35 130.7 -279.55 130.85 -280.05 131.0 -280.35 131.05 M-302.55 179.25 L-303.1 179.3 -304.2 179.1 -304.75 178.25 -304.8 177.35 -304.15 176.45 -302.25 176.65 -301.7 177.45 -301.85 178.3 -302.55 179.25 M-302.25 128.35 L-302.75 128.4 -303.75 128.2 -304.45 127.35 -304.5 126.5 -303.75 125.6 -301.9 125.7 -301.3 126.5 -301.5 127.45 -302.25 128.35 M-177.6 112.3 L-178.1 112.35 -179.15 112.15 -179.7 111.35 -179.8 110.5 -179.1 109.5 -177.25 109.65 -176.6 110.5 -176.85 111.35 -177.6 112.3 M-223.55 110.1 L-224.15 109.6 -224.05 109.0 -223.35 108.55 -222.45 108.85 -222.4 109.45 -222.5 109.8 -222.7 110.0 -223.2 110.1 -223.55 110.1 M-184.55 163.75 L-184.7 163.75 -185.0 163.75 -185.05 163.7 -185.2 163.5 -185.2 163.2 -184.75 163.0 -184.4 163.1 -184.2 163.4 -184.55 163.75 M-231.5 135.1 L-231.7 135.15 -231.95 135.1 -232.05 135.0 -232.2 134.85 -232.2 134.6 -231.75 134.35 -231.4 134.5 -231.35 134.75 -231.5 135.1 M-41.4 214.55 L-42.0 213.95 -41.8 213.3 -41.0 212.9 -39.95 213.3 -39.95 213.95 -40.15 214.35 -40.35 214.5 -41.0 214.55 -41.4 214.55 M-339.9 21.95 L-340.45 21.4 -340.3 20.85 -339.6 20.35 -338.7 20.7 -338.65 21.25 -338.9 21.65 -339.0 21.75 -339.5 21.9 -339.9 21.95 M-385.9 81.85 L-386.5 81.35 -386.35 80.65 -385.7 80.25 -384.8 80.55 -384.75 81.2 -384.85 81.55 -385.05 81.7 -385.55 81.8 -385.9 81.85 M-376.25 95.0 L-376.5 95.0 -376.65 95.0 -376.75 94.95 -376.95 94.75 -376.95 94.5 -376.5 94.2 -376.1 94.45 -376.0 94.7 -376.25 95.0 M-428.85 6.15 L-429.7 5.4 -430.05 4.5 -429.6 3.6 -427.75 3.2 -426.9 3.95 -426.85 4.85 -427.3 5.75 -428.4 6.15 -428.85 6.15 M-448.5 82.85 L-449.1 82.35 -448.95 81.75 -448.3 81.3 -447.35 81.6 -447.3 82.15 -447.4 82.6 -447.65 82.7 -448.15 82.8 -448.5 82.85 M-440.1 108.6 L-440.65 108.65 -441.7 108.45 -442.25 107.65 -442.35 106.8 -441.65 105.85 -439.8 106.0 -439.2 106.75 -439.45 107.7 -440.1 108.6 M-405.15 147.15 L-405.75 146.65 -405.65 146.0 -405.0 145.55 Q-404.5 145.65 -404.05 145.9 L-404.0 146.5 -404.15 146.85 -404.35 147.0 -404.85 147.1 -405.15 147.15 M-463.85 119.2 L-465.25 118.7 -465.8 117.9 -466.4 117.1 -466.2 116.2 -466.0 115.35 -465.8 114.75 -465.3 114.4 -464.25 114.05 -462.65 114.45 -462.1 115.25 -461.75 116.05 -461.7 116.95 -461.9 117.85 -462.35 118.45 -462.85 118.85 -463.9 119.0 -463.85 119.2 M-465.7 129.75 L-466.45 129.1 -466.5 127.45 -466.5 127.15 -464.65 126.8 Q-464.15 127.1 -463.8 127.55 L-463.7 128.4 -464.15 129.3 -465.15 129.7 -465.7 129.75 M-421.1 187.35 L-421.45 187.4 -422.0 187.35 -422.2 187.25 -422.35 186.85 -422.4 186.3 -421.6 185.8 -420.75 186.2 -420.6 186.7 -421.1 187.35 M-407.4 180.7 L-407.9 180.75 -408.95 180.6 -409.55 179.75 -409.65 178.85 -408.95 178.0 -407.1 178.1 -406.5 178.9 -406.65 179.8 -407.4 180.7 M-345.45 118.1 L-346.0 117.6 -345.9 117.0 -345.25 116.6 -344.3 116.85 -344.25 117.45 -344.45 117.85 -344.55 118.05 -345.1 118.1 -345.45 118.1 M-536.6 18.75 L-536.2 18.75 -535.6 18.85 Q-535.45 18.85 -535.35 19.0 L-535.15 19.35 -535.15 20.0 -536.2 20.45 -537.0 20.0 -537.25 19.35 -536.6 18.75 M-350.75 155.0 L-350.9 155.0 -351.15 155.05 -351.3 154.95 -351.4 154.8 -351.4 154.5 -350.9 154.25 -350.6 154.45 -350.5 154.7 -350.75 155.0 M-368.15 162.9 L-368.5 162.9 -369.0 162.9 -369.15 162.75 -369.4 162.4 -369.45 161.8 -368.6 161.35 -367.85 161.65 -367.65 162.25 -368.15 162.9 M-389.1 120.85 L-389.4 120.85 -389.95 120.85 -390.2 120.8 -390.35 120.4 -390.4 119.8 -389.55 119.3 -388.8 119.65 -388.6 120.25 -389.1 120.85" fill="#ffffff" fill-rule="evenodd" stroke="none"/>
  </g>
</svg>
