<?xml version="1.0" encoding="UTF-8" standalone="no"?>
<svg xmlns:xlink="http://www.w3.org/1999/xlink" height="834.95px" width="1564.05px" xmlns="http://www.w3.org/2000/svg">
  <g transform="matrix(1.0, 0.0, 0.0, 1.0, -1.45, -10.95)">
    <path d="M1565.3 54.45 L1.45 54.45 1.45 207.0 1565.3 207.0 1565.3 54.45" fill="url(#gradient0)" fill-rule="evenodd" stroke="none"/>
    <path d="M1.45 228.05 Q3.6 223.3 2.3 218.1 8.25 216.9 11.75 213.95 15.65 216.35 21.15 216.35 26.85 216.35 30.8 213.95 34.95 211.55 34.95 208.15 34.95 204.9 31.25 202.5 36.05 204.45 42.4 203.7 L44.4 205.2 Q49.85 209.35 58.85 209.8 66.95 210.25 73.5 207.4 69.8 209.2 68.9 211.85 67.8 215.0 70.9 217.65 73.75 220.35 79.2 220.95 84.45 221.55 88.85 219.75 91.25 224.65 98.7 227.2 106.15 229.85 114.7 228.35 123.05 226.9 127.4 222.4 132.0 217.95 129.8 213.05 131.35 216.5 137.05 218.25 142.75 220.2 148.9 219.15 153.7 218.25 156.75 215.9 159.85 213.5 160.3 210.7 161.35 213.35 165.1 215.3 169.05 217.05 174.1 217.2 L181.1 216.35 Q177.15 224.05 184.8 230.15 191.15 235.2 201.9 235.95 212.65 236.85 221.4 232.85 222.7 237.15 228.85 239.65 235.0 242.05 242.2 241.15 249.45 240.25 253.6 236.55 258.0 232.85 256.45 228.5 271.15 229.25 282.55 223.6 293.9 218.1 295.45 209.35 L295.7 207.4 Q305.1 208.9 312.55 205.05 317.6 206.95 323.7 206.05 329.65 205.2 332.9 202.05 336.0 198.95 334.65 195.35 333.35 191.95 328.3 190.0 331.85 191.05 336.65 190.75 340.35 197.15 348.9 200.7 359.0 205.05 371.5 204.45 383.75 203.85 392.95 198.8 L392.95 199.7 Q393.4 200.85 395.35 201.6 397.1 202.35 399.3 202.05 396.0 202.65 394.5 204.6 392.95 206.35 394.05 208.3 394.95 210.25 398.0 211.15 L404.35 211.3 Q405.2 214.25 409.4 216.05 413.75 217.8 419.05 217.2 424.3 216.65 427.35 213.95 430.2 211.4 429.3 208.3 434.15 215.15 445.75 217.8 457.15 220.35 468.75 217.35 480.15 214.4 484.75 207.4 489.55 200.55 484.75 193.75 490.9 184.5 484.55 175.45 477.95 166.55 462.6 162.95 450.35 160.15 437.2 162.4 424.5 164.45 416.4 170.7 418.8 164.6 411.8 160.0 406.1 156.45 398.0 156.3 389.65 156.15 383.55 159.55 389.9 154.35 388.15 148.25 386.6 142.0 378.05 138.45 369.5 134.9 359.0 135.9 348.5 137.1 342.35 142.15 331.15 135.75 315.6 136.05 299.85 136.5 288.9 143.35 284.7 145.75 282.3 149.0 L279.25 147.8 Q271.35 145.45 262.35 146.15 L262.6 145.6 Q263.9 140.95 259.55 137.25 255.15 133.55 247.5 132.8 249.0 128.35 244.65 124.6 240.25 120.9 232.8 120.15 225.35 119.4 219.0 122.1 212.85 124.75 211.3 129.25 211.1 125.35 206.5 122.85 201.7 120.15 195.35 120.3 L189.85 121.2 Q187.2 118.7 182.85 118.55 180.2 110.95 169.25 106.95 158.5 102.75 145.8 104.55 135.5 105.9 128.95 110.65 126.3 106.8 119.5 105.15 123.05 99.95 121.05 94.6 118.2 87.0 107.45 83.0 96.5 79.0 83.8 80.8 77.7 75.3 66.5 74.1 55.35 73.05 45.9 76.9 44.8 77.2 44.15 77.8 41.55 74.7 37.35 72.3 31.0 68.9 22.25 67.85 13.9 66.8 5.6 68.3 7.35 66.35 7.35 64.45 7.35 60.1 1.85 57.45 4.5 56.7 5.6 55.05 6.45 53.6 5.6 51.95 7.15 50.0 5.8 47.95 4.5 46.0 1.45 45.1 L1.45 228.05" fill="url(#gradient1)" fill-rule="evenodd" stroke="none"/>
    <path d="M940.45 195.05 Q929.75 200.7 928.65 209.5 927.55 218.1 936.75 224.8 945.95 230.45 958.85 230.45 972.0 230.45 981.2 224.8 984.7 222.55 987.35 219.6 995.25 222.7 1004.65 221.85 1014.3 220.8 1020.2 216.2 1023.95 220.05 1031.15 221.1 1038.4 222.0 1044.55 219.6 1050.65 217.2 1052.2 212.9 1053.95 208.6 1050.25 204.75 L1056.8 204.15 1057.45 206.05 Q1059.85 213.2 1069.75 217.05 1079.6 220.95 1091.2 219.3 1090.35 222.25 1093.2 224.8 1095.8 227.2 1100.6 227.65 1105.45 228.2 1109.4 226.6 1113.35 224.8 1114.2 221.85 1117.05 223.9 1121.65 224.2 1126.25 224.35 1129.55 222.4 1133.7 220.35 1133.25 217.2 1136.35 219.0 1139.85 219.0 1143.8 219.0 1146.65 217.35 1149.5 215.6 1149.5 213.2 1160.45 212.6 1167.25 207.55 1174.25 202.5 1173.35 195.8 1172.95 193.45 1172.25 192.4 1180.15 194.95 1188.25 194.05 1189.35 198.35 1193.95 201.45 1198.55 204.75 1205.55 205.8 1212.15 209.95 1221.35 209.95 1230.75 209.95 1237.35 205.95 1241.05 203.55 1242.8 200.3 L1252.0 200.7 Q1256.85 200.15 1259.9 197.75 1259.45 201.0 1262.95 203.7 1266.5 206.2 1271.95 206.35 1277.45 206.65 1281.6 204.45 1285.75 202.35 1286.2 198.95 1287.95 202.05 1292.75 203.4 L1302.65 203.7 Q1307.65 202.5 1309.85 199.55 1312.05 196.55 1310.3 193.45 1317.55 193.15 1322.15 189.6 1326.95 186.15 1326.3 181.7 1325.85 180.2 1325.0 178.6 L1326.95 177.4 Q1326.05 179.9 1327.6 182.3 1328.9 184.8 1332.45 186.3 1337.25 188.4 1342.7 187.8 1348.4 187.35 1351.9 184.35 1358.95 184.2 1363.75 181.25 1368.6 178.15 1368.6 173.8 1368.6 172.65 1367.9 171.45 1374.05 170.25 1376.45 166.55 1376.45 170.4 1382.15 172.05 1387.2 173.35 1391.8 171.45 1390.05 173.95 1392.45 176.35 1394.2 178.3 1397.7 178.85 1401.45 179.3 1404.5 178.15 1412.6 181.25 1421.8 179.9 1431.0 178.6 1436.05 173.65 1439.55 170.25 1439.55 166.4 1439.55 162.5 1436.5 159.1 1440.45 158.65 1441.55 156.3 1446.8 155.4 1449.85 152.85 L1451.4 153.15 Q1459.3 153.9 1465.85 151.1 1472.45 148.25 1473.75 143.35 1472.45 147.8 1476.35 151.55 1480.55 155.25 1487.75 156.15 1494.75 157.0 1500.9 154.5 1507.05 151.95 1508.35 147.5 1510.75 150.2 1515.6 150.95 1520.2 151.8 1524.55 150.2 1528.75 148.7 1530.05 145.75 1531.15 142.9 1528.75 140.25 1540.35 141.4 1549.75 136.95 1558.95 132.65 1560.7 125.5 1561.4 122.85 1560.7 120.45 L1565.3 121.5 1565.3 11.2 Q1553.25 10.15 1542.55 13.6 1531.35 17.15 1525.9 24.0 L1525.45 24.45 Q1522.4 21.45 1519.1 19.7 1508.6 13.75 1494.55 14.2 1480.55 14.65 1470.9 21.15 1469.8 17.6 1465.2 15.5 1460.4 13.45 1454.7 14.05 1448.75 14.65 1445.25 17.45 1441.75 20.45 1442.85 24.0 1436.05 20.6 1427.3 21.15 1418.55 21.75 1413.05 25.95 1407.35 30.25 1408.25 35.6 1409.35 40.8 1415.25 44.05 1408.25 40.5 1399.05 40.95 1389.4 41.4 1383.05 46.0 L1381.95 46.9 Q1375.8 46.0 1370.1 47.8 1366.15 46.0 1361.8 47.5 1360.45 42.85 1355.65 39.3 1350.6 35.75 1343.15 34.25 1332.2 32.0 1322.15 35.15 1311.85 38.25 1308.35 44.95 1303.95 45.4 1301.3 47.65 1298.7 49.7 1299.35 52.4 1300.0 55.5 1304.8 57.3 1298.25 57.6 1295.4 61.3 1291.9 65.6 1296.7 69.05 1289.9 66.65 1282.7 68.6 1281.4 66.8 1280.3 66.05 1275.0 62.05 1266.7 61.45 1258.15 60.85 1251.8 64.15 1245.0 63.1 1239.1 65.3 1232.95 67.55 1231.2 71.7 1229.9 74.85 1231.65 77.8 1233.4 80.65 1237.35 82.4 L1233.85 82.25 Q1232.75 80.35 1231.2 78.85 1226.4 74.4 1217.6 73.35 1208.85 72.45 1201.65 75.4 1199.45 71.7 1193.75 70.05 L1181.9 69.65 Q1175.75 70.95 1173.15 74.55 1170.3 78.1 1172.5 81.8 1167.9 78.85 1161.3 78.85 1154.75 78.85 1149.9 81.65 1145.3 84.5 1145.1 88.5 1145.1 92.65 1149.7 95.5 1143.8 94.9 1138.55 96.4 1133.25 98.0 1130.65 101.15 1125.15 99.05 1118.6 98.6 1107.4 98.0 1098.65 102.5 1089.9 106.95 1089.0 113.75 1082.2 119.4 1083.95 126.4 1085.75 133.55 1094.95 137.7 L1097.55 138.75 Q1096.9 142.45 1100.2 146.05 1093.85 147.05 1093.4 151.1 L1087.9 151.4 Q1085.05 151.95 1083.1 153.15 1077.2 154.5 1074.55 158.2 L1074.1 158.2 Q1078.05 153.45 1077.4 148.25 1076.95 142.75 1071.9 138.3 1064.25 131.75 1051.55 130.25 1038.6 128.8 1027.9 133.4 1024.8 131.15 1020.0 131.0 1015.4 130.7 1011.65 132.65 1008.15 134.6 1007.75 137.4 1004.2 134.6 997.85 134.3 992.4 134.3 988.45 136.5 984.5 138.9 984.3 142.15 979.9 139.8 974.0 140.1 968.05 140.4 964.55 143.2 960.6 146.05 961.05 149.6 961.7 153.15 966.1 155.55 953.4 159.4 949.0 167.75 944.85 175.9 951.2 183.8 954.5 187.65 959.3 190.0 948.35 190.75 940.45 195.05" fill="url(#gradient2)" fill-rule="evenodd" stroke="none"/>
    <path d="M880.45 173.95 Q879.35 181.1 887.9 186.75 896.45 192.4 909.8 193.45 906.05 195.35 905.85 198.05 905.85 200.85 909.6 202.95 912.4 204.75 916.8 205.2 920.95 205.65 924.7 204.6 916.8 207.85 915.25 213.05 913.75 218.25 919.2 223.0 924.05 227.35 932.8 229.25 941.55 231.05 950.1 229.7 942.0 232.25 938.7 236.85 935.45 241.6 938.5 246.65 942.2 252.45 952.5 255.4 962.8 258.4 973.55 256.75 975.1 261.8 981.65 265.7 988.25 269.4 997.2 270.75 998.3 276.4 1005.55 280.7 1013.0 285.15 1023.7 286.35 1019.1 293.3 1023.7 300.45 1028.1 307.6 1039.5 312.05 1032.5 320.1 1037.75 329.0 1043.2 337.9 1058.35 342.95 1064.05 348.6 1075.45 350.7 1086.8 352.8 1097.1 349.95 1107.4 347.15 1110.7 341.2 1114.0 335.25 1108.3 329.6 1117.3 331.1 1125.4 328.7 1133.25 326.3 1135.7 321.55 1136.8 318.9 1136.1 316.65 L1142.05 316.95 Q1150.6 316.8 1156.05 313.4 1161.3 309.95 1160.45 305.35 1172.25 303.6 1177.55 298.1 1183.9 297.35 1189.15 295.4 L1190.9 296.15 Q1188.05 302.25 1194.2 307.9 1200.55 313.55 1212.15 315.3 1223.75 317.25 1234.05 314.15 1244.15 311.0 1247.0 304.9 1252.25 306.85 1258.35 306.7 1264.3 306.4 1268.45 304.15 1273.5 306.1 1279.6 305.8 1285.75 305.65 1289.9 303.3 1292.35 305.2 1296.7 305.65 1300.9 306.1 1304.4 304.9 1307.9 303.75 1308.75 301.5 1309.4 299.25 1306.8 297.35 1307.65 295.55 1305.7 293.9 1303.95 292.3 1300.45 291.7 1306.15 288.1 1304.15 283.5 1303.5 281.3 1300.9 279.5 1311.15 280.4 1320.8 278.45 1330.45 276.55 1336.8 272.05 1340.75 269.4 1342.95 265.7 L1345.55 266.4 Q1358.05 269.7 1370.75 267.3 1383.45 265.1 1388.95 258.55 1404.75 259.15 1415.9 253.8 1427.3 248.3 1427.75 239.95 1427.95 234.0 1422.05 228.5 1429.5 226.3 1431.25 221.85 1441.1 226.15 1453.35 226.6 1469.15 227.35 1480.3 221.85 1491.7 216.35 1492.15 208.0 1497.4 207.4 1499.35 204.45 L1506.15 204.75 Q1513.85 204.3 1518.45 201.0 1523.05 197.9 1521.7 193.75 1525.25 198.35 1533.55 200.55 1542.1 202.8 1550.65 201.15 1559.4 199.7 1562.9 195.2 1566.65 190.9 1563.35 186.15 L1565.3 185.7 1565.3 83.3 Q1552.4 80.35 1538.6 82.1 1538.6 77.35 1532.25 73.8 1525.9 70.2 1516.9 69.9 1507.9 69.8 1501.55 72.9 1495.2 76.0 1495.2 80.8 1483.6 77.5 1471.1 79.45 1458.85 81.35 1453.15 87.45 1446.15 94.6 1453.6 102.6 1449.85 102.05 1445.05 102.5 1439.1 103.05 1435.4 105.45 1431.45 107.85 1431.0 110.95 1429.7 107.85 1425.1 105.6 1420.5 103.35 1414.35 102.9 1406.7 102.35 1400.8 104.85 1394.85 107.4 1394.45 111.25 1395.1 105.75 1388.1 101.45 1381.05 97.0 1370.55 96.25 1360.05 95.65 1351.9 99.05 1344.05 102.6 1343.4 108.1 1337.25 106.65 1331.35 107.85 1325.2 108.85 1322.8 112.15 1320.15 115.25 1322.55 118.55 1324.55 121.35 1328.9 122.85 1320.6 120.6 1311.15 121.8 1300.9 123.15 1295.85 128.05 L1294.3 129.95 Q1286.65 129.7 1281.15 132.35 1284.9 129.55 1283.55 125.8 1282.25 122.25 1276.8 120.15 1271.1 117.95 1264.3 118.55 1257.7 118.95 1254.0 121.95 1248.75 118.85 1241.3 118.4 1241.3 110.05 1231.0 103.05 1219.15 94.9 1200.3 93.4 1181.7 91.9 1167.25 97.85 1154.95 96.85 1145.3 100.55 1135.7 104.25 1134.15 110.65 1132.85 115.85 1137.85 120.6 1142.7 125.2 1151.65 127.6 1147.3 127.9 1144.9 129.55 1141.4 131.6 1142.9 134.45 1137.2 130.55 1128.0 129.25 1118.8 127.75 1110.25 129.7 1100.2 132.05 1096.45 137.55 1092.75 143.05 1097.55 148.7 1093.2 148.55 1089.9 150.05 1086.8 151.55 1086.8 153.9 1086.6 156.3 1089.65 158.05 1092.75 159.85 1097.1 160.0 L1097.1 160.3 Q1089.25 158.95 1079.8 159.4 1061.65 153.6 1042.35 157.15 1032.9 155.7 1023.95 157.45 1015.2 159.4 1010.8 163.7 996.1 156.45 977.3 156.45 975.5 149.45 965.0 145.15 954.7 140.65 941.8 141.25 928.85 141.85 921.2 147.2 913.5 152.55 915.5 159.4 902.15 158.35 891.85 162.65 881.55 167.0 880.45 173.95" fill="url(#gradient3)" fill-rule="evenodd" stroke="none"/>
    <path d="M1.65 388.55 L1.65 845.9 1565.5 845.9 1565.5 388.55 1.65 388.55" fill="url(#gradient4)" fill-rule="evenodd" stroke="none"/>
  </g>
  <defs>
    <linearGradient gradientTransform="matrix(0.0, 0.0875, -0.2688, 0.0, 783.4, 131.7)" gradientUnits="userSpaceOnUse" id="gradient0" spreadMethod="pad" x1="-819.2" x2="819.2">
      <stop offset="0.0" stop-color="#55b9df"/>
      <stop offset="0.9333333333333333" stop-color="#e3eff5"/>
    </linearGradient>
    <linearGradient gradientTransform="matrix(-0.1994, 0.1833, -0.2798, -0.1469, 103.75, 257.2)" gradientUnits="userSpaceOnUse" id="gradient1" spreadMethod="pad" x1="-819.2" x2="819.2">
      <stop offset="0.011764705882352941" stop-color="#ffffff"/>
      <stop offset="0.49019607843137253" stop-color="#d1edfb"/>
      <stop offset="0.9568627450980393" stop-color="#77d1f6"/>
    </linearGradient>
    <linearGradient gradientTransform="matrix(0.7595, 0.1745, -0.2572, 0.5152, 1686.05, 218.85)" gradientUnits="userSpaceOnUse" id="gradient2" spreadMethod="pad" x1="-819.2" x2="819.2">
      <stop offset="0.011764705882352941" stop-color="#ffffff"/>
      <stop offset="0.49019607843137253" stop-color="#d1edfb"/>
      <stop offset="0.9568627450980393" stop-color="#77d1f6"/>
    </linearGradient>
    <linearGradient gradientTransform="matrix(0.3988, 0.2249, -0.2709, 0.2277, 1383.45, 247.1)" gradientUnits="userSpaceOnUse" id="gradient3" spreadMethod="pad" x1="-819.2" x2="819.2">
      <stop offset="0.011764705882352941" stop-color="#ffffff"/>
      <stop offset="0.49019607843137253" stop-color="#d1edfb"/>
      <stop offset="0.9568627450980393" stop-color="#77d1f6"/>
    </linearGradient>
    <linearGradient gradientTransform="matrix(0.0, -0.3362, 0.3144, 0.0, 783.6, 663.85)" gradientUnits="userSpaceOnUse" id="gradient4" spreadMethod="pad" x1="-819.2" x2="819.2">
      <stop offset="0.0" stop-color="#ffd28b"/>
      <stop offset="1.0" stop-color="#e2d79b"/>
    </linearGradient>
  </defs>
</svg>
