<?xml version="1.0" encoding="UTF-8" standalone="no"?>
<svg xmlns:xlink="http://www.w3.org/1999/xlink" height="125.65px" width="64.55px" xmlns="http://www.w3.org/2000/svg">
  <g transform="matrix(1.0, 0.0, 0.0, 1.0, 0.0, 0.0)">
    <path d="M33.9 0.0 L35.45 0.55 35.4 13.9 Q35.45 15.65 38.2 18.3 L39.85 19.6 39.1 21.8 36.8 21.5 35.9 19.25 35.9 21.5 36.1 22.6 36.7 24.55 38.45 27.3 41.05 28.75 41.45 31.1 38.6 30.9 36.9 29.95 38.4 34.8 39.8 35.85 41.45 37.6 42.8 37.15 43.55 38.35 44.75 38.55 44.9 39.8 Q44.9 41.05 43.85 41.3 42.8 41.55 41.75 40.6 L40.9 39.6 38.35 40.6 42.6 45.9 44.65 46.85 44.4 48.95 39.35 49.05 42.2 52.65 44.35 52.7 44.2 55.85 48.6 59.75 Q49.25 60.35 50.55 58.35 L50.8 63.6 47.6 62.95 43.3 60.7 43.2 63.2 48.55 66.55 48.8 69.2 46.4 68.2 44.05 69.4 40.8 68.2 41.25 71.2 50.45 76.95 50.65 79.6 46.35 79.4 45.85 81.05 48.65 84.0 51.15 83.75 55.55 87.45 Q55.85 90.75 55.35 91.0 55.0 91.2 53.55 89.8 52.2 88.5 52.1 88.1 L52.5 91.5 48.15 90.2 50.65 93.0 50.1 93.85 Q49.55 95.1 49.75 96.95 49.85 98.2 47.6 95.65 L44.65 92.4 Q43.85 91.85 43.85 93.75 43.85 94.1 46.0 96.65 48.1 99.2 48.45 99.2 L54.0 98.6 53.05 102.75 Q51.0 102.0 49.45 102.0 48.45 101.95 48.5 102.4 L48.75 102.8 50.2 104.05 52.2 105.45 Q52.9 105.6 58.3 103.9 L58.95 106.95 54.05 108.4 56.85 113.95 63.1 112.2 64.55 114.7 60.45 118.55 60.6 119.9 64.35 120.65 63.6 124.1 Q63.35 124.35 54.1 121.65 L52.6 125.1 36.25 121.65 35.8 125.55 30.15 125.65 29.95 118.85 23.6 124.45 13.55 121.9 18.35 117.5 16.0 117.6 13.0 118.0 6.4 122.95 0.0 122.2 0.2 119.7 Q0.2 119.45 2.25 119.05 L4.25 118.65 6.8 115.75 7.6 114.85 7.95 114.65 7.4 112.7 Q5.15 114.8 4.6 114.75 L2.2 114.35 Q2.15 113.25 2.5 110.9 2.7 109.6 4.3 109.4 6.9 109.1 8.1 108.45 L10.35 107.6 11.95 106.0 Q13.3 104.35 13.05 103.75 L12.55 103.5 17.7 102.55 18.7 99.1 22.35 96.95 Q19.6 96.0 19.6 95.15 L20.6 92.8 Q21.55 90.9 21.4 90.7 21.25 90.4 18.5 91.7 L15.75 93.0 14.45 92.55 14.8 89.55 Q11.5 91.35 11.3 90.1 L10.65 88.7 Q10.3 87.9 10.65 86.85 10.95 85.95 12.3 85.6 13.55 85.3 13.6 84.55 13.65 83.7 15.7 84.75 17.8 85.85 17.95 85.4 18.15 84.8 19.4 83.6 L20.6 82.5 Q18.6 82.65 17.9 81.8 16.9 80.65 18.15 79.05 18.6 78.5 20.85 78.35 L23.55 78.1 24.8 75.65 Q25.7 73.25 26.2 72.9 26.7 72.55 26.55 70.7 26.4 68.8 26.85 68.4 28.25 67.2 24.9 67.8 L20.95 68.7 Q20.5 68.7 20.8 65.8 17.9 66.05 19.05 65.2 L22.6 63.25 Q24.75 62.1 23.95 61.9 L20.1 62.15 17.35 62.4 17.85 60.5 Q17.95 59.5 18.3 59.0 L20.05 58.75 Q21.6 58.6 22.85 56.25 23.05 55.8 23.7 56.45 L24.55 57.35 26.6 55.6 27.05 55.2 26.95 55.15 Q26.1 54.8 26.5 52.9 L28.3 50.45 Q29.95 48.3 29.65 48.3 L28.9 47.7 Q28.6 47.15 28.6 46.65 L29.5 45.45 Q30.3 44.35 30.2 43.95 30.1 43.6 28.95 43.65 L27.8 43.75 25.8 45.05 22.65 43.45 Q22.45 43.3 23.0 41.75 23.55 40.25 23.3 40.15 L26.1 41.65 27.3 40.6 Q27.95 40.3 27.95 37.9 L30.1 37.2 Q30.5 37.1 33.1 30.75 L29.1 32.8 Q28.9 32.75 28.9 30.75 28.9 30.45 30.4 29.15 L32.0 27.7 32.95 25.75 Q33.9 23.7 33.85 21.8 L33.7 20.7 32.6 20.75 31.75 21.25 31.2 21.7 31.0 19.9 34.55 16.5 33.9 0.0" fill="#003d7d" fill-rule="evenodd" stroke="none"/>
  </g>
</svg>
