<?xml version="1.0" encoding="UTF-8" standalone="no"?>
<svg xmlns:xlink="http://www.w3.org/1999/xlink" height="19.6px" width="23.85px" xmlns="http://www.w3.org/2000/svg">
  <g transform="matrix(1.0, 0.0, 0.0, 1.0, 340.7, 197.9)">
    <path d="M-327.55 -188.95 Q-327.55 -187.65 -328.8 -187.65 -330.1 -187.65 -330.1 -188.95 -330.1 -190.2 -328.8 -190.2 -327.55 -190.2 -327.55 -188.95" fill="#ffffff" fill-rule="evenodd" stroke="none"/>
    <path d="M-328.95 -196.7 Q-328.95 -195.45 -330.2 -195.45 -331.45 -195.45 -331.45 -196.7 -331.45 -197.9 -330.2 -197.9 -328.95 -197.9 -328.95 -196.7" fill="#ffffff" fill-rule="evenodd" stroke="none"/>
    <path d="M-338.1 -187.15 Q-338.1 -185.9 -339.45 -185.9 -340.7 -185.9 -340.7 -187.15 -340.7 -188.4 -339.45 -188.4 -338.1 -188.4 -338.1 -187.15" fill="#ffffff" fill-rule="evenodd" stroke="none"/>
    <path d="M-324.5 -179.55 Q-324.5 -178.3 -325.75 -178.3 -327.05 -178.3 -327.05 -179.55 -327.05 -180.75 -325.75 -180.75 -324.5 -180.75 -324.5 -179.55" fill="#ffffff" fill-rule="evenodd" stroke="none"/>
    <path d="M-316.85 -180.95 Q-316.85 -179.75 -318.1 -179.75 -319.45 -179.75 -319.45 -180.95 -319.45 -182.2 -318.1 -182.2 -316.85 -182.2 -316.85 -180.95" fill="#ffffff" fill-rule="evenodd" stroke="none"/>
  </g>
</svg>
