<?xml version="1.0" encoding="UTF-8" standalone="no"?>
<svg xmlns:xlink="http://www.w3.org/1999/xlink" height="93.95px" width="55.35px" xmlns="http://www.w3.org/2000/svg">
  <g transform="matrix(1.0, 0.0, 0.0, 1.0, 0.0, 0.0)">
    <path d="M28.3 0.0 L29.6 0.4 29.65 10.35 Q29.7 11.65 32.1 13.65 L33.5 14.6 32.85 16.25 30.9 16.05 30.1 14.35 30.1 16.05 30.3 16.9 30.8 18.3 Q31.25 19.15 32.35 20.4 L34.6 21.45 34.95 23.2 32.5 23.05 31.05 22.35 32.35 25.95 33.55 26.75 35.0 28.05 36.15 27.7 36.8 28.6 37.8 28.75 37.95 29.65 Q37.95 30.6 37.05 30.8 36.2 31.0 35.3 30.3 L34.55 29.55 32.35 30.3 36.0 34.25 37.8 34.95 37.6 36.5 33.3 36.6 35.75 39.3 37.55 39.3 37.5 41.7 41.3 44.6 Q41.85 45.0 42.95 43.5 L43.2 47.45 40.45 46.95 36.7 45.3 36.65 47.2 41.3 49.65 41.5 51.65 39.45 50.9 37.45 51.85 34.65 50.95 35.05 53.2 43.0 57.4 43.2 59.4 39.45 59.3 39.05 60.55 41.5 62.7 43.6 62.5 47.45 65.25 Q47.7 67.7 47.3 67.9 47.0 68.05 45.7 67.0 L44.45 65.75 44.85 68.3 41.1 67.35 43.25 69.45 42.8 70.1 Q42.35 71.0 42.5 72.35 42.6 73.3 40.65 71.45 L38.15 69.0 Q37.45 68.6 37.45 70.05 L39.3 72.2 41.45 74.1 46.2 73.6 45.4 76.7 Q43.6 76.15 42.3 76.15 41.45 76.15 41.5 76.45 L41.7 76.75 42.95 77.7 Q44.3 78.7 44.65 78.75 45.3 78.85 49.9 77.55 L50.45 79.8 46.25 80.9 48.75 85.05 54.1 83.7 55.35 85.55 51.85 88.45 52.0 89.5 55.2 90.0 54.6 92.6 46.45 90.85 45.15 93.45 31.1 90.95 30.75 93.85 25.9 93.95 25.7 88.9 20.25 93.1 11.6 91.25 15.7 87.95 13.7 88.05 11.15 88.35 8.05 90.35 5.5 92.1 0.0 91.55 0.15 89.7 Q0.15 89.5 1.9 89.2 L3.6 88.9 5.8 86.7 Q6.15 86.25 6.5 86.05 L6.75 85.9 6.3 84.45 Q4.4 86.0 3.9 86.0 L1.85 85.65 Q1.8 84.85 2.05 83.1 2.2 82.1 3.6 81.95 L6.85 81.2 Q7.6 80.85 8.8 80.55 L10.15 79.35 Q11.3 78.15 11.1 77.7 L10.65 77.5 15.05 76.75 15.9 74.2 19.0 72.55 Q16.65 71.85 16.65 71.25 L17.5 69.45 18.15 67.85 Q18.05 67.65 15.65 68.65 L13.3 69.65 12.2 69.3 12.45 67.05 Q9.65 68.45 9.45 67.5 L8.9 66.45 Q8.6 65.9 8.9 65.1 9.15 64.4 10.3 64.15 11.4 63.85 11.4 63.3 11.45 62.7 13.2 63.5 15.0 64.25 15.15 63.95 15.3 63.5 16.35 62.55 L17.4 61.75 Q15.7 61.85 15.05 61.25 14.2 60.4 15.3 59.2 15.65 58.75 17.6 58.6 L19.9 58.45 Q20.2 58.35 20.95 56.6 21.7 54.8 22.15 54.5 22.6 54.25 22.45 52.85 22.3 51.45 22.7 51.15 23.9 50.25 21.0 50.75 L17.6 51.4 Q17.25 51.4 17.45 49.25 L16.35 49.3 Q15.4 49.25 16.0 48.85 L19.0 47.35 Q20.8 46.5 20.15 46.35 L16.85 46.55 14.5 46.75 14.9 45.35 Q14.95 44.55 15.25 44.2 L16.75 44.0 Q18.1 43.9 19.15 42.1 19.35 41.75 19.9 42.25 L20.6 42.95 Q20.75 43.05 22.4 41.6 L22.75 41.3 22.65 41.25 Q21.95 41.0 22.25 39.55 L23.8 37.7 24.95 36.1 24.3 35.65 24.0 34.9 24.8 34.0 Q25.5 33.2 25.4 32.9 25.3 32.6 24.3 32.65 L23.3 32.7 21.6 33.75 18.9 32.55 Q18.75 32.45 19.2 31.3 L19.45 30.05 Q21.4 30.85 21.85 31.15 L22.85 30.4 Q23.4 30.15 23.45 28.35 L25.25 27.85 Q25.6 27.7 27.8 22.95 L24.35 24.5 Q24.15 24.5 24.15 23.0 L25.45 21.8 26.8 20.7 27.65 19.25 Q28.45 17.7 28.4 16.25 L28.25 15.5 27.3 15.5 Q27.05 15.55 26.55 15.9 L26.1 16.25 25.9 14.9 28.9 12.3 28.3 0.0" fill="#003d7d" fill-rule="evenodd" stroke="none"/>
  </g>
</svg>
