<?xml version="1.0" encoding="UTF-8" standalone="no"?>
<svg xmlns:xlink="http://www.w3.org/1999/xlink" height="93.95px" width="55.35px" xmlns="http://www.w3.org/2000/svg">
  <g transform="matrix(1.0, 0.0, 0.0, 1.0, 0.0, 0.0)">
    <path d="M28.25 0.0 L29.55 0.4 29.65 10.4 Q29.65 11.7 32.05 13.7 L33.45 14.6 32.85 16.25 30.85 16.05 30.1 14.4 30.1 16.05 30.3 16.9 30.8 18.35 Q31.2 19.15 32.35 20.4 L34.6 21.45 34.95 23.2 32.5 23.1 31.0 22.35 32.35 26.0 33.55 26.8 35.0 28.05 36.15 27.75 36.75 28.65 37.8 28.75 37.95 29.65 Q37.95 30.65 37.05 30.85 36.2 31.05 35.25 30.35 L34.5 29.6 32.35 30.35 36.0 34.25 37.8 34.95 37.6 36.55 33.25 36.65 35.7 39.35 37.55 39.35 37.5 41.7 41.3 44.6 Q41.85 45.05 42.9 43.55 L43.2 47.45 40.45 47.0 36.7 45.35 36.65 47.2 41.3 49.7 41.5 51.65 39.45 50.95 37.4 51.85 34.6 51.0 35.0 53.2 42.95 57.45 43.2 59.4 39.45 59.3 39.05 60.55 41.5 62.7 43.6 62.5 47.4 65.25 Q47.7 67.75 47.25 67.95 46.95 68.1 45.7 67.05 L44.45 65.75 44.8 68.3 41.05 67.4 43.25 69.45 42.8 70.1 Q42.35 71.0 42.5 72.4 42.6 73.35 40.6 71.45 L38.1 69.05 Q37.4 68.6 37.4 70.05 L39.25 72.2 41.4 74.1 46.2 73.65 45.4 76.75 42.25 76.2 Q41.4 76.2 41.45 76.5 L41.7 76.8 42.95 77.75 Q44.25 78.7 44.65 78.75 45.3 78.85 49.9 77.55 L50.45 79.85 46.25 80.95 48.75 85.1 54.05 83.75 55.35 85.6 51.8 88.5 51.95 89.5 55.2 90.05 54.55 92.65 Q54.35 92.85 46.4 90.85 L45.15 93.45 31.1 90.95 30.75 93.85 25.9 93.95 25.65 88.9 20.25 93.15 11.6 91.3 15.7 87.95 13.65 88.05 11.1 88.4 5.5 92.1 0.0 91.6 0.15 89.75 Q0.15 89.55 1.9 89.2 L3.6 88.9 5.75 86.75 6.5 86.05 6.75 85.9 6.25 84.45 Q4.35 86.0 3.85 86.0 L1.85 85.7 Q1.75 84.85 2.05 83.1 2.2 82.15 3.55 82.0 5.75 81.75 6.8 81.25 7.7 80.85 8.8 80.6 L10.15 79.4 Q11.3 78.15 11.05 77.7 L10.6 77.5 15.05 76.8 15.9 74.2 19.0 72.55 Q16.6 71.9 16.6 71.25 L17.45 69.45 18.15 67.9 Q18.05 67.7 15.65 68.65 L13.3 69.65 12.15 69.35 12.45 67.05 Q9.65 68.45 9.45 67.55 L8.9 66.5 Q8.55 65.9 8.85 65.1 9.1 64.4 10.3 64.15 11.35 63.9 11.4 63.35 11.45 62.75 13.2 63.5 15.0 64.3 15.1 63.95 15.3 63.5 16.35 62.6 L17.35 61.8 Q15.7 61.9 15.05 61.25 14.2 60.5 15.25 59.2 15.65 58.8 17.6 58.65 L19.9 58.5 Q20.2 58.4 20.95 56.65 21.7 54.8 22.15 54.55 22.6 54.3 22.4 52.9 22.25 51.5 22.65 51.2 23.9 50.3 21.0 50.8 L17.6 51.45 Q17.25 51.45 17.45 49.25 15.0 49.5 15.95 48.85 L19.0 47.4 Q20.8 46.5 20.15 46.35 L16.85 46.55 14.45 46.75 14.85 45.35 Q14.95 44.6 15.25 44.2 L16.75 44.0 Q18.1 43.9 19.15 42.15 L19.9 42.25 20.6 42.95 Q20.75 43.05 22.4 41.6 L22.7 41.35 22.65 41.3 Q21.95 41.0 22.25 39.6 L23.8 37.75 Q25.2 36.15 24.9 36.15 24.55 36.15 24.25 35.7 L24.0 34.9 24.75 34.0 25.4 32.9 Q25.3 32.6 24.3 32.65 L23.3 32.75 21.6 33.75 18.85 32.55 Q18.7 32.45 19.2 31.3 L19.45 30.1 21.85 31.15 22.85 30.4 Q23.4 30.2 23.4 28.35 L25.25 27.85 Q25.6 27.75 27.8 23.0 L24.35 24.55 Q24.15 24.55 24.15 23.0 L25.45 21.8 26.8 20.7 27.65 19.25 Q28.4 17.7 28.35 16.3 L28.25 15.5 27.3 15.55 Q27.05 15.6 26.55 15.9 L26.1 16.25 25.9 14.9 28.9 12.35 28.25 0.0" fill="#003d7d" fill-rule="evenodd" stroke="none"/>
  </g>
</svg>
