<?xml version="1.0" encoding="UTF-8" standalone="no"?>
<svg xmlns:xlink="http://www.w3.org/1999/xlink" height="156.3px" width="90.6px" xmlns="http://www.w3.org/2000/svg">
  <g transform="matrix(1.0, 0.0, 0.0, 1.0, 45.3, 78.15)">
    <path d="M43.75 -55.5 L44.0 -51.0 Q44.6 -49.0 41.0 -45.25 41.95 -43.4 41.3 -38.8 34.0 -22.5 14.85 3.9 L9.8 10.9 5.4 34.05 Q-1.6 53.1 -10.2 67.8 -39.55 90.6 -44.7 60.15 -44.75 53.7 -44.35 47.15 -32.25 -6.2 -14.25 -48.5 -2.75 -57.55 3.65 -58.0 3.8 -62.75 2.85 -64.15 23.0 -74.6 28.65 -70.9 29.45 -72.85 31.0 -74.6 39.0 -71.65 43.75 -55.5 M26.8 -53.55 Q23.85 -50.7 23.35 -43.45 25.3 -39.25 28.2 -41.55 33.1 -48.1 31.95 -52.6 31.1 -58.5 26.8 -53.55 M14.1 -59.1 Q10.5 -56.8 9.1 -50.1 8.15 -45.6 15.35 -48.25 18.75 -51.95 19.6 -57.75 19.6 -63.05 14.1 -59.1 M7.65 -33.25 Q4.75 -32.2 -7.9 -22.4 -12.05 -16.65 -10.35 -10.4 -5.15 -6.25 1.4 -7.55 3.25 -6.85 6.15 -6.8 11.0 -6.05 13.6 -14.15 L13.05 -29.85 Q12.45 -34.95 7.65 -33.25 M24.7 -29.95 Q22.45 -27.8 21.8 -21.65 21.25 -16.25 25.35 -18.95 28.6 -23.2 29.4 -28.6 30.7 -36.1 24.7 -29.95 M-4.2 -45.1 Q-6.9 -42.3 -8.25 -35.15 -6.95 -31.0 -3.75 -32.5 0.7 -37.2 0.35 -43.75 -0.25 -49.15 -4.2 -45.1" fill="#cc6f0f" fill-rule="evenodd" stroke="none"/>
    <path d="M14.1 -59.1 Q19.6 -63.05 19.6 -57.75 18.75 -51.95 15.35 -48.25 8.15 -45.6 9.1 -50.1 10.5 -56.8 14.1 -59.1 M26.8 -53.55 Q31.1 -58.5 31.95 -52.6 33.1 -48.1 28.2 -41.55 25.3 -39.25 23.35 -43.45 23.85 -50.7 26.8 -53.55 M24.7 -29.95 Q30.7 -36.1 29.4 -28.6 28.6 -23.2 25.35 -18.95 21.25 -16.25 21.8 -21.65 22.45 -27.8 24.7 -29.95 M7.65 -33.25 Q12.45 -34.95 13.05 -29.85 L13.6 -14.15 Q11.0 -6.05 6.15 -6.8 3.25 -6.85 1.4 -7.55 -5.15 -6.25 -10.35 -10.4 -12.05 -16.65 -7.9 -22.4 4.75 -32.2 7.65 -33.25 M-4.2 -45.1 Q-0.25 -49.15 0.35 -43.75 0.7 -37.2 -3.75 -32.5 -6.95 -31.0 -8.25 -35.15 -6.9 -42.3 -4.2 -45.1" fill="#aa5c1f" fill-rule="evenodd" stroke="none"/>
    <path d="M43.75 -55.5 Q39.0 -71.65 31.0 -74.6 29.45 -72.85 28.65 -70.9 23.0 -74.6 2.85 -64.15 3.8 -62.75 3.65 -58.0 -2.75 -57.55 -14.25 -48.5 -32.25 -6.2 -44.35 47.15 -42.1 10.85 -25.35 -29.65 -20.65 -41.5 -22.95 -41.05 -23.5 -40.9 -24.5 -40.0 -2.85 -65.55 2.85 -64.15 28.65 -83.85 31.0 -74.6 42.2 -79.65 43.75 -55.5 M5.4 34.05 L9.8 10.9 14.85 3.9 Q10.5 20.15 5.4 34.05 M41.3 -38.8 Q41.95 -43.4 41.0 -45.25 44.6 -49.0 44.0 -51.0 46.3 -47.15 41.3 -38.8" fill="#ee830f" fill-rule="evenodd" stroke="none"/>
    <path d="M44.0 -51.0 L43.75 -55.5 Q42.2 -79.65 31.0 -74.6 28.65 -83.85 2.85 -64.15 -2.85 -65.55 -24.5 -40.0 L-24.65 -39.85 -25.7 -38.9 M-44.35 47.15 Q-44.75 53.7 -44.7 60.15 -39.55 90.6 -10.2 67.8 -1.6 53.1 5.4 34.05 10.5 20.15 14.85 3.9 34.0 -22.5 41.3 -38.8 46.3 -47.15 44.0 -51.0 M9.8 10.9 L14.85 3.9 M14.1 -59.1 Q19.6 -63.05 19.6 -57.75 18.75 -51.95 15.35 -48.25 8.15 -45.6 9.1 -50.1 10.5 -56.8 14.1 -59.1 M26.8 -53.55 Q31.1 -58.5 31.95 -52.6 33.1 -48.1 28.2 -41.55 25.3 -39.25 23.35 -43.45 23.85 -50.7 26.8 -53.55 M-22.95 -41.05 Q-20.65 -41.5 -25.35 -29.65 -42.1 10.85 -44.35 47.15 M24.7 -29.95 Q30.7 -36.1 29.4 -28.6 28.6 -23.2 25.35 -18.95 21.25 -16.25 21.8 -21.65 22.45 -27.8 24.7 -29.95 M7.65 -33.25 Q12.45 -34.95 13.05 -29.85 L13.6 -14.15 Q11.0 -6.05 6.15 -6.8 3.25 -6.85 1.4 -7.55 -5.15 -6.25 -10.35 -10.4 -12.05 -16.65 -7.9 -22.4 4.75 -32.2 7.65 -33.25 M-4.2 -45.1 Q-0.25 -49.15 0.35 -43.75 0.7 -37.2 -3.75 -32.5 -6.95 -31.0 -8.25 -35.15 -6.9 -42.3 -4.2 -45.1" fill="none" stroke="#4d2b06" stroke-linecap="round" stroke-linejoin="round" stroke-width="1.2000000000000002"/>
    <path d="M3.35 -52.75 L3.25 -52.7 Q3.1 -52.7 3.2 -52.8 L3.3 -58.5 3.05 -61.55 2.85 -62.55 2.65 -63.15 2.6 -63.25 2.55 -63.45 2.45 -63.6 2.35 -63.8 2.3 -63.85 Q1.95 -64.35 2.5 -64.7 3.05 -64.95 3.3 -64.45 L3.5 -64.15 3.75 -63.5 3.8 -63.3 3.85 -62.95 3.95 -62.55 3.95 -62.3 4.0 -62.1 4.0 -58.5 3.45 -53.25 3.35 -52.75 M30.55 -75.0 L31.4 -75.05 Q31.85 -74.6 31.45 -74.2 L31.15 -73.9 31.05 -73.75 30.9 -73.6 30.55 -73.2 29.7 -72.1 29.1 -71.1 29.05 -70.9 28.85 -70.5 28.75 -70.35 27.85 -67.9 27.7 -67.15 27.7 -66.95 27.65 -66.65 27.6 -66.55 27.5 -66.5 Q27.35 -66.5 27.45 -66.6 L27.45 -67.4 27.5 -67.7 27.5 -68.0 28.0 -70.2 28.15 -70.6 28.2 -70.8 28.3 -71.0 28.35 -71.2 28.45 -71.4 28.95 -72.55 30.0 -74.3 30.15 -74.5 30.3 -74.65 30.35 -74.75 30.4 -74.8 30.45 -74.9 30.55 -75.0 M43.4 -50.8 L43.4 -50.85 Q43.25 -51.4 43.85 -51.6 44.45 -51.7 44.55 -51.15 L44.6 -51.0 44.6 -50.8 44.65 -50.55 44.35 -49.05 43.9 -48.25 43.35 -47.4 42.0 -45.8 37.75 -42.05 37.6 -42.05 37.6 -42.2 38.9 -43.4 42.65 -47.9 43.35 -49.45 43.5 -50.05 43.5 -50.45 43.45 -50.6 43.45 -50.7 43.4 -50.8" fill="#4d2b06" fill-rule="evenodd" stroke="none"/>
  </g>
</svg>
