<?xml version="1.0" encoding="UTF-8" standalone="no"?>
<svg xmlns:xlink="http://www.w3.org/1999/xlink" height="226.1px" width="1308.5px" xmlns="http://www.w3.org/2000/svg">
  <g transform="matrix(1.0, 0.0, 0.0, 1.0, 459.55, 43.65)">
    <path d="M58.85 29.95 Q60.85 30.1 63.35 28.95 L67.15 27.05 Q71.4 24.8 71.05 22.15 L69.4 22.3 67.75 22.4 66.65 23.4 Q66.25 23.65 65.5 22.55 64.25 23.4 63.6 24.8 L63.25 22.15 Q61.85 23.55 61.25 23.4 61.6 22.65 61.35 20.8 L59.35 20.8 Q58.1 20.8 57.2 20.25 59.85 19.5 64.35 14.35 L66.75 12.85 Q67.9 12.1 70.15 12.6 L73.65 13.85 Q76.7 14.75 80.85 13.85 74.3 13.85 74.95 11.35 75.05 10.85 76.05 10.1 76.8 9.35 76.8 8.1 L74.05 7.7 71.4 7.35 72.8 5.3 70.15 6.45 67.4 5.95 Q64.75 5.3 65.25 4.05 65.5 3.7 67.75 3.7 69.65 3.05 73.15 0.8 79.2 -2.6 78.8 -6.75 L77.2 -6.1 Q76.2 -5.75 75.8 -6.5 75.45 -6.0 74.65 -5.85 L73.55 -5.6 71.05 -4.35 70.8 -5.85 69.65 -6.0 70.0 -7.0 Q68.5 -7.15 66.9 -8.75 L70.4 -9.65 Q72.55 -10.15 73.8 -10.9 L77.95 -12.55 Q80.7 -14.05 80.45 -16.3 L79.6 -16.95 81.7 -19.2 Q83.1 -20.6 83.35 -21.95 83.6 -22.6 83.35 -23.7 83.2 -24.85 83.35 -25.5 L84.35 -27.35 85.25 -29.0 Q84.25 -29.65 83.95 -30.0 84.85 -32.15 84.85 -33.25 L83.85 -33.65 Q83.7 -34.65 85.0 -36.15 L83.45 -37.05 Q84.6 -41.3 87.6 -36.05 L91.65 -28.75 Q91.0 -29.0 90.4 -29.35 90.4 -26.35 94.4 -23.85 95.3 -23.35 95.4 -22.7 L95.65 -20.85 96.65 -18.3 Q95.15 -20.2 94.4 -19.7 L94.9 -16.8 Q95.3 -15.15 95.8 -14.15 96.4 -13.05 98.8 -10.65 L103.35 -6.5 105.2 -5.1 106.2 -4.85 Q106.85 -4.75 107.1 -4.25 106.85 -3.6 106.1 -3.6 L104.85 -3.5 Q104.1 -2.85 104.6 -2.5 L105.85 -1.45 Q104.85 -1.35 103.1 -2.6 101.2 -4.0 100.3 -4.0 100.45 -3.5 101.7 -1.6 101.05 -1.7 100.05 -2.2 L98.55 -2.85 Q98.95 -2.6 99.2 -1.7 L97.65 -1.95 96.15 -2.35 Q96.05 -1.1 97.15 0.05 L98.95 1.8 Q97.4 0.9 96.8 0.8 96.9 2.05 98.7 3.8 99.55 4.7 100.95 4.95 L103.2 5.3 107.6 5.95 Q111.35 6.3 112.0 6.85 L113.4 7.2 Q114.25 7.35 114.65 7.7 114.4 8.2 113.4 8.2 L112.0 8.1 Q112.0 8.6 112.5 9.6 L111.1 8.45 Q110.25 7.6 109.35 7.7 109.5 8.6 110.35 9.7 L109.6 9.7 Q109.6 10.95 111.1 12.5 L108.75 12.25 108.85 15.25 Q109.35 16.0 107.85 18.15 106.2 20.0 107.1 20.55 109.5 22.15 111.1 21.9 L120.55 21.55 120.8 21.05 Q121.05 20.65 123.95 22.3 L126.6 23.9 126.6 24.55 124.8 24.05 Q124.3 23.9 124.2 24.05 L123.7 24.4 122.45 24.95 121.55 25.3 121.45 25.95 120.05 26.8 Q119.05 27.2 118.9 27.55 118.55 28.7 119.9 29.6 121.45 30.6 121.3 31.45 L120.05 31.45 Q119.4 31.45 118.9 31.95 L118.4 32.7 Q118.15 33.1 117.4 32.95 116.55 32.7 115.4 31.7 114.0 30.6 113.4 30.35 113.5 30.95 114.0 31.6 L114.9 32.6 Q113.9 32.7 113.0 31.95 L111.5 30.6 111.25 33.45 Q110.1 30.6 109.1 30.7 L109.0 31.85 107.35 30.1 Q106.35 29.05 105.35 29.2 105.35 29.95 105.85 31.1 L104.35 29.85 Q103.2 28.8 102.85 29.2 103.35 29.7 103.35 30.45 101.55 28.95 100.55 28.8 100.95 29.7 103.45 32.2 105.7 34.25 105.6 35.6 L103.1 35.5 Q103.6 36.0 106.7 37.0 109.5 37.85 109.6 38.75 L108.0 38.5 Q108.25 39.75 108.85 39.9 L107.6 39.75 Q107.75 41.0 109.25 41.65 L113.15 43.4 Q114.15 44.05 116.4 44.8 L118.55 45.55 120.55 46.05 124.95 45.65 127.45 46.05 Q130.0 46.9 128.45 47.3 127.95 47.4 126.45 45.9 L127.95 47.95 125.05 47.55 Q123.55 48.3 122.45 48.3 122.7 49.95 121.45 49.45 L121.7 50.7 120.3 50.2 118.9 49.45 Q118.9 51.05 120.4 52.6 119.05 51.95 118.9 51.95 118.9 52.85 119.3 53.2 L117.65 53.35 120.55 56.6 121.45 56.75 Q121.95 56.75 122.3 57.0 122.95 57.5 123.05 58.35 123.3 59.25 122.8 59.85 L122.55 59.75 122.3 60.0 Q122.95 59.85 123.8 60.35 124.7 60.85 124.8 61.5 L124.7 62.4 Q124.55 63.0 124.7 63.4 124.8 63.9 125.6 64.5 L126.35 65.5 Q124.8 65.0 124.05 65.0 124.45 65.8 125.45 66.05 126.35 66.4 126.7 66.8 L128.1 68.3 129.45 69.3 Q129.75 70.05 128.95 70.7 128.1 71.2 128.35 71.95 L129.35 72.95 Q130.1 73.55 130.0 74.2 L128.35 73.55 Q128.6 74.85 128.2 75.1 L126.85 72.3 126.45 73.55 Q124.3 70.8 122.7 70.95 L121.7 71.7 120.7 72.8 120.4 70.95 Q120.05 72.05 120.15 72.95 L118.05 71.55 119.05 73.8 116.55 73.7 Q116.15 74.3 116.55 74.85 L117.3 75.85 119.55 77.85 Q123.05 79.5 126.45 81.0 L129.2 82.0 125.6 82.1 Q126.45 82.75 126.35 83.1 125.45 83.6 123.8 83.1 L121.3 82.5 Q121.8 83.0 121.8 83.75 L120.4 83.5 119.05 83.6 Q118.3 84.0 117.65 84.0 L116.4 84.25 116.05 84.65 118.3 85.4 Q119.65 85.9 120.55 86.0 L125.95 85.4 Q127.35 85.25 130.0 85.4 L133.85 84.4 137.65 84.15 136.9 85.4 135.75 85.75 136.5 86.25 137.0 87.0 134.75 86.9 134.4 88.8 133.25 87.4 Q133.5 89.05 132.85 90.3 131.6 89.65 131.25 89.8 L131.85 91.55 130.0 91.15 132.0 92.3 Q133.5 93.05 133.0 93.8 L130.6 94.05 Q128.35 93.8 127.95 94.05 L128.35 95.3 Q125.95 95.95 123.2 93.45 L123.7 94.8 Q122.95 94.8 121.95 93.8 120.8 92.8 120.15 92.65 121.3 94.45 120.95 95.7 L122.8 96.3 127.95 96.55 131.5 96.3 133.1 95.8 Q134.1 95.55 134.65 95.8 133.6 96.8 134.65 96.8 L136.25 96.7 Q135.75 98.2 133.85 98.35 L130.85 98.45 131.85 100.2 129.2 99.85 Q130.35 101.6 130.35 102.0 129.2 102.0 127.95 100.35 L127.35 99.6 126.45 99.7 124.05 100.6 125.35 100.85 Q128.85 102.25 126.95 103.1 125.85 103.1 125.35 103.5 124.95 103.6 131.1 105.6 137.15 107.65 136.9 107.75 135.15 108.5 134.1 108.15 137.25 109.65 136.0 110.4 L135.25 109.65 Q133.85 108.65 133.75 109.15 L132.85 109.15 132.75 109.5 130.75 109.5 Q133.25 112.05 137.25 112.3 138.9 112.3 137.75 113.15 137.4 113.4 136.75 113.15 135.9 112.8 135.75 112.8 137.15 114.15 137.25 115.4 L135.65 114.3 133.85 113.55 Q134.9 114.55 134.75 114.9 L132.6 114.3 Q131.1 113.8 130.75 114.8 130.0 114.55 129.2 114.15 L130.1 115.8 Q129.35 116.2 127.85 115.3 L125.6 114.05 126.95 115.15 Q127.95 116.05 127.85 116.55 127.6 118.7 125.2 114.9 124.55 116.05 123.8 115.95 L124.05 114.65 Q123.45 114.9 122.55 116.05 L122.2 115.3 122.2 114.4 109.5 115.4 Q109.6 115.05 115.5 114.55 L118.4 114.3 100.3 114.05 Q79.7 113.65 104.95 111.4 107.0 109.65 107.35 108.4 L106.7 108.5 107.25 107.25 105.7 108.4 Q106.2 106.1 105.45 106.25 L105.35 107.5 104.2 106.75 Q105.35 107.65 104.7 108.9 103.95 108.5 103.7 107.65 104.35 109.65 103.2 110.5 L102.45 108.5 101.8 110.4 101.55 109.15 100.55 107.65 100.55 109.25 Q99.95 109.15 98.45 107.65 98.45 109.15 100.3 109.9 102.6 111.0 100.7 111.0 99.8 111.0 97.55 109.75 95.55 108.75 94.4 109.25 L91.5 110.15 Q89.5 110.5 88.65 110.9 87.75 111.4 87.25 112.4 L86.5 113.8 Q86.0 114.15 85.1 113.15 L84.25 115.15 Q83.6 114.8 83.35 112.9 L82.1 115.4 82.1 114.3 81.85 113.15 Q80.1 114.55 78.7 113.8 L78.95 112.15 77.8 113.05 Q77.05 113.4 76.55 113.05 L72.05 115.15 74.15 112.55 Q73.05 112.4 71.8 113.8 70.65 114.8 70.0 116.05 69.75 114.9 69.4 114.65 68.65 115.8 67.75 115.95 L66.4 115.55 58.35 118.05 57.6 117.8 Q57.2 117.8 56.3 118.3 55.55 118.8 55.05 118.8 L56.05 116.55 Q53.95 118.2 51.05 118.95 L55.8 115.4 60.6 113.3 Q65.0 111.55 65.35 111.0 65.75 110.65 61.35 112.4 L65.9 110.0 Q66.25 109.25 65.75 108.25 64.5 109.4 58.7 112.15 52.8 115.05 51.65 115.8 L49.8 116.95 48.55 116.55 47.65 117.3 46.15 118.8 Q47.0 117.55 46.4 116.3 45.75 116.45 44.65 117.45 43.65 118.2 42.6 118.3 L44.4 116.8 46.0 115.05 Q48.9 113.05 49.55 110.65 50.3 108.15 56.7 104.75 63.75 100.95 64.75 99.45 L62.85 100.95 60.45 101.1 59.7 102.1 Q59.35 102.75 58.6 102.5 58.6 101.6 57.7 102.0 L56.45 103.25 55.55 103.6 Q54.45 104.0 53.05 103.6 L54.95 101.85 Q56.2 100.7 56.3 99.95 55.95 99.7 55.55 99.95 L55.3 100.35 52.05 100.7 Q51.8 99.35 51.4 98.95 49.8 101.35 49.05 101.2 L48.9 99.6 47.9 100.6 47.8 99.35 Q45.4 100.2 44.5 99.35 45.5 99.2 46.65 98.35 48.05 97.3 48.05 96.3 48.05 95.05 46.65 95.55 L45.15 96.05 43.5 96.2 Q44.75 96.05 46.4 94.7 L48.05 92.95 50.55 92.4 53.3 92.15 56.7 90.9 Q58.7 89.9 59.95 89.8 62.1 89.55 62.75 89.05 L63.5 88.0 63.5 86.9 Q62.6 86.75 62.5 86.25 62.35 86.15 62.5 84.9 L61.75 85.0 61.1 85.5 59.6 85.75 Q59.1 85.75 58.2 86.4 57.45 87.0 56.95 86.9 L56.95 85.15 Q54.3 86.25 53.45 85.65 53.55 85.15 55.45 83.6 L58.95 80.5 Q62.6 76.6 62.0 72.95 L60.6 73.8 Q60.85 72.55 60.7 71.95 L58.6 73.3 Q57.6 73.95 55.95 74.45 56.2 73.45 56.05 72.8 L51.55 75.45 Q51.8 74.3 51.65 73.55 L50.65 73.95 Q50.9 72.8 53.55 71.3 L51.55 71.05 Q52.2 71.05 52.8 70.15 53.55 69.05 53.95 68.8 56.45 68.8 56.55 67.55 L55.2 66.8 55.3 66.55 54.2 66.8 53.95 64.9 51.8 65.15 51.65 64.0 50.05 63.75 Q50.05 63.15 49.3 62.9 48.4 62.65 48.3 62.0 49.65 61.1 53.2 60.35 L56.7 59.75 Q59.2 59.6 64.0 56.75 64.75 56.2 67.75 54.6 70.15 53.35 71.4 52.2 73.05 50.7 73.05 50.2 73.15 49.55 72.8 48.95 72.4 48.2 71.8 48.3 L72.65 47.05 70.9 46.65 Q71.65 45.15 71.55 44.4 70.8 44.15 70.15 45.65 L69.25 48.05 Q68.9 48.95 67.9 49.7 66.75 50.55 66.0 50.45 L66.75 48.05 Q67.25 46.55 67.15 45.55 67.25 46.9 66.15 48.55 65.0 50.05 63.85 50.45 L61.75 50.7 59.35 50.95 60.85 48.7 57.95 49.2 59.35 47.7 58.45 47.4 57.85 46.9 Q58.7 46.8 59.6 45.55 60.35 44.15 60.45 43.05 L58.6 42.9 Q59.35 41.15 59.2 40.75 58.2 41.15 58.45 41.15 58.85 41.15 57.85 41.75 54.05 44.8 52.2 44.9 52.3 43.65 50.8 43.9 L48.65 44.4 Q48.65 43.05 49.3 42.15 L50.8 40.5 51.8 39.5 Q52.3 39.0 52.8 38.9 L55.95 38.35 59.6 38.65 Q60.7 39.0 62.1 36.5 61.35 36.35 59.7 37.1 L57.2 37.25 Q57.35 35.6 56.05 34.35 55.7 33.85 56.7 32.35 57.7 30.95 57.35 30.35 L58.45 30.2 58.85 29.95 57.2 29.6 Q56.3 29.3 57.1 28.05 L57.45 27.45 58.7 29.2 58.85 29.95" fill="#166fad" fill-rule="evenodd" stroke="none"/>
    <path d="M89.15 -38.15 Q88.75 -37.55 87.6 -38.7 87.1 -38.05 88.1 -36.8 L88.75 -35.9 88.9 -34.8 89.65 -34.3 90.0 -33.15 90.5 -32.4 90.65 -31.5 Q90.25 -30.65 89.4 -32.25 88.65 -33.65 88.25 -31.9 L88.1 -30.9 88.1 -29.75 Q87.85 -29.25 86.75 -31.0 L86.5 -31.9 86.0 -32.4 85.5 -31.9 Q85.1 -31.5 84.85 -31.5 83.85 -31.65 84.5 -33.0 85.5 -34.65 85.5 -35.05 85.75 -35.55 85.5 -37.3 85.35 -38.7 85.6 -39.8 L86.25 -41.55 Q86.75 -42.8 87.25 -42.55 L87.35 -41.3 Q87.5 -40.2 88.0 -39.95 L89.0 -39.3 Q89.5 -38.8 89.15 -38.15" fill="#dcf1fc" fill-rule="evenodd" stroke="none"/>
    <path d="M88.25 -30.75 Q88.5 -32.4 89.4 -31.0 L90.5 -28.75 91.75 -26.85 Q92.0 -26.0 92.75 -25.1 93.9 -23.7 95.65 -22.7 96.05 -22.45 97.15 -21.95 98.2 -21.45 98.3 -20.85 98.8 -19.45 97.55 -19.3 96.4 -19.2 95.9 -20.3 95.3 -21.85 94.9 -21.95 L94.3 -21.7 Q93.9 -21.45 93.55 -21.85 L92.25 -23.7 Q91.65 -25.25 91.0 -25.75 L90.0 -27.35 Q89.65 -28.5 89.0 -28.75 88.25 -27.75 89.75 -26.0 91.15 -24.35 90.15 -23.35 89.9 -23.1 89.65 -23.2 L89.15 -23.45 Q88.75 -23.45 88.75 -22.1 88.5 -20.7 88.25 -20.85 88.0 -20.85 87.5 -21.85 87.25 -20.95 88.0 -19.8 L89.15 -17.8 89.4 -16.55 90.25 -15.8 Q91.15 -14.65 90.65 -13.4 90.4 -12.55 90.0 -13.15 L89.4 -14.15 Q89.0 -14.3 88.75 -13.65 88.5 -12.9 88.0 -13.15 87.1 -13.4 86.75 -15.05 L86.25 -17.8 85.85 -18.7 Q85.25 -17.8 85.85 -14.9 85.75 -13.8 85.35 -13.65 85.0 -13.55 84.35 -14.55 L84.35 -13.3 Q84.5 -12.4 84.25 -11.9 L83.85 -11.55 83.35 -11.55 Q83.1 -11.55 82.85 -11.15 82.35 -9.5 81.45 -11.0 80.45 -12.9 79.95 -12.9 79.6 -12.8 79.45 -10.65 79.45 -8.75 78.45 -9.0 78.05 -9.15 77.7 -9.9 77.45 -10.5 76.8 -10.25 76.45 -10.0 76.05 -9.9 L75.55 -9.0 Q75.2 -8.65 74.8 -9.15 L74.15 -9.9 Q73.9 -10.0 73.8 -9.5 L73.65 -8.9 72.8 -7.9 71.8 -7.9 71.05 -7.4 Q70.55 -7.5 70.15 -8.5 69.75 -9.4 69.9 -10.0 70.15 -10.75 71.3 -10.5 72.3 -10.25 73.05 -11.4 74.05 -13.3 74.55 -13.55 L75.8 -13.55 Q76.45 -13.4 76.95 -13.9 77.55 -14.55 77.55 -15.05 L79.2 -15.3 79.95 -15.4 80.2 -16.55 Q80.35 -17.3 80.95 -17.8 L81.85 -18.95 81.6 -19.2 Q80.85 -17.7 80.35 -18.2 79.85 -18.7 81.1 -19.95 82.7 -21.45 83.6 -23.6 83.35 -24.2 82.95 -23.7 L82.35 -22.95 Q81.95 -22.35 81.45 -22.45 80.95 -22.45 81.35 -23.45 L81.85 -23.95 Q82.2 -24.35 82.35 -25.1 L83.35 -26.35 84.5 -28.1 85.1 -28.35 85.6 -29.1 86.0 -31.4 Q86.25 -32.65 87.25 -31.75 L87.5 -31.25 88.25 -30.75" fill="#dcf1fc" fill-rule="evenodd" stroke="none"/>
    <path d="M89.15 -21.85 L89.15 -22.7 Q89.5 -23.1 89.9 -22.35 90.25 -21.85 90.5 -22.1 L90.75 -23.2 Q90.9 -24.1 91.4 -24.1 92.65 -24.2 91.65 -20.7 L91.9 -18.55 Q91.75 -18.2 91.4 -18.45 L90.75 -18.8 90.15 -18.2 Q89.65 -17.95 89.4 -18.8 L89.65 -20.3 Q89.65 -21.1 89.15 -21.85" fill="#dcf1fc" fill-rule="evenodd" stroke="none"/>
    <path d="M97.8 -14.55 L99.05 -13.3 99.45 -12.3 Q99.7 -11.65 100.05 -11.4 L101.3 -10.0 102.2 -8.5 Q102.7 -7.65 103.6 -7.4 L104.35 -7.15 104.7 -6.6 105.2 -6.75 Q106.45 -6.35 105.6 -4.75 104.85 -3.25 103.95 -5.1 L103.1 -6.0 102.05 -5.75 Q101.45 -5.6 101.05 -6.6 L100.45 -8.25 99.95 -8.9 Q99.55 -8.75 99.7 -7.9 L99.8 -6.75 Q99.7 -6.25 99.2 -6.6 98.7 -7.0 98.05 -9.25 97.95 -9.9 97.55 -10.15 L96.9 -10.75 Q96.65 -11.25 96.8 -12.15 L96.8 -13.4 96.55 -13.9 Q96.3 -14.3 96.15 -14.15 L96.05 -13.05 Q96.05 -11.25 95.3 -11.65 94.65 -11.9 94.65 -13.8 94.65 -15.55 95.4 -15.55 96.15 -15.55 96.8 -14.9 97.3 -14.65 97.8 -14.55" fill="#dcf1fc" fill-rule="evenodd" stroke="none"/>
    <path d="M72.15 0.3 L74.8 0.15 75.45 -0.2 Q76.8 -0.95 78.2 -2.75 L80.6 -5.25 Q81.2 -6.25 81.95 -5.85 82.35 -5.6 82.6 -5.5 L83.35 -5.75 84.1 -5.5 Q84.5 -5.35 84.75 -6.1 L85.1 -7.65 Q85.5 -8.65 86.0 -8.4 86.35 -8.15 86.25 -7.4 86.1 -6.35 86.35 -6.1 86.6 -5.75 87.0 -5.75 87.25 -5.35 87.1 -5.0 87.25 -3.5 88.25 -4.5 88.65 -5.1 88.65 -6.75 88.5 -7.5 88.9 -8.4 89.15 -9.25 89.75 -8.25 90.25 -7.5 90.15 -5.35 L90.5 -3.25 90.15 -1.35 Q90.15 -0.7 90.4 -0.2 90.75 0.15 91.15 -0.2 91.4 -0.45 91.5 -1.6 L91.65 -3.25 Q92.15 -5.25 93.0 -3.5 L94.3 -0.6 Q94.65 -0.35 95.4 -0.35 96.15 -0.35 96.55 0.15 L98.05 2.55 Q98.7 3.05 100.2 3.45 101.2 4.2 101.8 4.3 L106.45 4.05 Q110.5 3.8 110.75 4.7 111.0 5.45 110.35 5.7 110.0 5.55 109.85 5.7 L109.6 6.2 Q109.25 6.55 109.0 6.3 L108.25 5.95 Q107.5 5.7 107.35 6.45 107.25 6.7 107.5 7.45 107.35 8.1 106.85 8.1 106.35 8.2 106.1 7.6 105.95 5.45 105.35 5.2 104.85 5.05 105.1 6.2 L105.45 7.45 Q105.35 8.2 102.2 8.7 99.05 9.2 98.8 8.7 L98.45 7.1 97.55 5.8 96.4 4.95 Q95.55 4.55 95.9 5.55 96.05 5.95 96.9 6.2 L97.65 7.45 Q98.45 9.2 97.95 9.7 97.55 10.2 97.3 9.6 L96.8 8.45 Q96.4 7.35 96.15 8.2 96.05 8.45 96.4 9.45 96.3 10.2 95.55 10.1 94.9 9.95 94.4 9.45 L93.9 8.45 93.0 8.35 Q92.4 8.2 92.15 6.3 L91.9 5.2 Q91.5 4.8 91.15 5.55 89.65 4.55 89.65 3.3 90.15 2.95 89.9 2.15 L89.25 1.05 88.75 2.05 88.1 2.7 Q87.6 2.7 87.6 1.15 87.1 -0.6 86.6 -0.1 L86.5 1.05 85.85 1.9 Q85.5 2.3 85.25 1.9 L84.5 1.15 Q83.95 1.05 83.7 1.55 83.45 1.9 83.6 2.55 L83.7 3.8 Q83.85 4.45 83.6 4.95 83.45 5.45 82.95 5.55 82.35 5.55 82.1 5.95 81.35 7.6 80.95 6.55 81.45 5.05 80.7 4.8 80.45 5.3 79.85 5.05 L78.95 5.05 Q77.8 5.3 77.55 4.05 77.3 2.7 78.45 2.3 79.7 2.05 79.7 1.3 79.7 0.65 79.05 0.9 78.55 1.15 78.45 0.65 79.2 -0.85 78.2 -0.7 77.95 -0.6 77.55 1.3 L77.05 2.05 76.55 2.7 75.95 2.55 75.3 2.3 Q74.95 2.3 74.8 2.8 L74.55 3.8 Q74.15 4.45 73.8 4.2 L73.3 3.3 Q72.65 2.45 72.3 2.8 72.3 3.55 71.8 3.7 L71.4 3.2 Q70.4 2.45 70.15 4.05 L70.15 4.8 Q70.0 5.2 69.65 5.05 L69.15 4.55 Q68.65 4.05 68.25 4.3 L67.5 4.95 Q67.0 5.2 66.5 4.55 66.15 3.8 66.65 3.3 66.9 3.05 67.65 3.3 L68.25 2.55 Q68.75 1.8 69.65 2.15 70.4 2.05 70.65 0.55 71.3 -0.1 72.15 0.3" fill="#dcf1fc" fill-rule="evenodd" stroke="none"/>
    <path d="M105.35 14.5 Q105.6 15.0 105.35 15.5 L104.6 15.9 101.05 15.75 97.65 15.25 96.8 15.1 Q96.3 15.1 95.8 14.6 94.9 13.25 94.3 13.1 92.75 12.85 93.4 14.1 L94.4 14.85 94.9 15.75 Q94.9 15.9 95.8 16.15 96.4 16.4 96.15 16.9 95.55 18.15 93.9 16.15 93.4 15.25 93.0 15.35 L92.4 16.15 Q91.9 16.9 91.4 16.15 L90.4 14.5 Q89.15 13.85 88.9 12.6 L88.25 11.1 Q87.85 11.1 87.35 12.0 L87.0 13.5 86.1 14.6 Q85.75 15.1 85.75 16.4 L85.35 17.75 85.25 19.0 Q85.35 19.5 85.75 19.4 L86.1 18.9 Q86.25 20.15 85.85 20.55 L85.1 20.9 Q84.75 21.15 84.75 21.65 L85.1 22.55 Q85.35 22.9 85.1 23.4 L83.6 25.05 83.1 26.2 82.2 27.05 Q81.7 27.2 81.35 26.7 80.95 26.05 81.1 25.45 L81.35 24.05 Q81.45 23.3 80.95 22.55 80.2 21.3 79.45 23.55 L78.8 25.55 Q77.95 26.3 77.7 26.95 L77.05 28.2 75.95 28.3 Q75.45 27.8 75.7 26.3 L75.55 25.05 Q75.3 24.4 74.95 24.8 73.9 25.8 74.4 27.45 74.65 28.95 73.65 29.7 L72.8 30.45 72.55 31.6 72.05 32.6 71.15 33.1 70.0 34.5 Q69.25 35.25 68.5 34.75 L68.25 34.6 67.75 35.0 66.9 35.6 66.25 36.35 64.5 36.6 Q63.25 36.6 63.0 36.25 62.35 35.1 63.6 34.5 65.5 33.85 65.9 33.2 L66.4 32.1 67.4 31.6 Q68.75 31.1 68.65 30.35 68.4 30.35 68.0 30.7 67.65 31.2 67.25 31.1 L66.15 30.6 Q65.35 30.85 64.85 32.2 L64.1 32.85 63.35 32.95 Q62.85 32.95 62.35 33.6 61.75 34.1 61.35 34.1 60.7 34.25 60.6 33.6 L60.2 32.45 Q59.95 31.85 59.6 32.1 L58.95 32.35 Q58.35 32.2 58.35 31.45 58.45 30.7 58.85 30.45 L59.85 30.35 60.85 30.1 62.35 28.55 63.5 28.3 Q66.75 28.55 67.65 27.3 68.65 25.95 70.15 25.55 L70.55 24.15 Q70.65 23.55 71.15 23.3 L72.05 23.05 Q72.65 22.8 73.3 21.65 73.55 21.3 75.05 21.3 75.95 21.15 76.7 20.15 L77.55 19.9 Q78.05 19.65 78.05 19.0 L76.3 20.15 Q74.8 21.15 74.8 19.9 74.8 19.5 75.45 18.65 L75.95 17.65 Q75.8 17.15 74.95 17.4 74.3 17.65 73.9 18.0 L72.9 19.4 Q72.05 20.15 71.55 18.9 71.15 18.0 72.65 16.5 L73.55 15.6 Q74.05 15.0 73.9 14.25 73.65 13.25 72.15 14.75 L70.8 17.4 Q69.25 18.9 69.0 18.75 68.25 18.5 68.75 17.25 L69.5 15.75 Q69.25 14.75 68.65 15.35 L68.0 16.9 Q67.75 18.65 66.5 18.4 66.15 18.25 65.75 17.75 L65.1 16.9 Q64.35 16.15 62.1 18.4 60.2 20.65 59.2 18.9 58.6 17.75 59.85 16.75 L60.45 15.75 62.75 14.35 Q64.0 13.5 65.25 13.5 L66.65 13.1 68.15 12.25 Q69.0 11.6 69.5 11.75 L72.4 9.85 Q73.15 9.2 73.4 9.2 73.9 9.1 74.65 9.7 L75.2 8.7 Q75.55 8.35 76.7 8.35 77.2 8.35 77.55 8.85 77.8 9.35 77.3 9.85 L76.45 10.2 Q75.8 10.45 75.7 10.7 75.55 11.5 76.3 11.6 L77.2 11.5 Q77.95 11.1 78.3 11.2 L79.2 11.2 79.95 10.35 Q80.35 9.85 80.85 9.95 81.1 9.95 81.6 10.45 81.85 10.85 82.2 10.6 L82.95 10.35 Q83.35 10.2 83.45 10.95 84.35 11.2 84.85 10.45 85.0 8.95 85.25 8.35 85.5 7.7 86.35 7.2 L87.1 5.45 Q87.85 4.7 88.75 5.45 89.5 6.05 89.4 7.45 L90.0 7.95 90.9 9.2 92.5 10.7 94.15 11.1 Q94.9 11.2 95.65 12.1 L96.9 13.35 97.3 14.5 Q97.55 14.85 98.45 15.1 L101.95 14.75 105.35 14.5" fill="#dcf1fc" fill-rule="evenodd" stroke="none"/>
    <path d="M87.0 23.4 Q86.85 23.05 86.35 22.8 L85.75 22.05 84.85 20.15 Q84.25 19.15 84.25 18.15 L84.6 15.1 Q84.6 14.6 85.1 13.6 86.1 10.6 87.6 10.6 88.1 10.45 88.75 11.5 89.4 12.5 89.4 13.25 L89.25 14.75 90.15 15.35 Q90.5 16.0 90.25 17.0 90.4 17.5 90.9 17.9 L91.65 18.4 92.75 19.75 Q94.65 22.15 96.65 22.65 L98.45 22.9 99.55 22.3 Q100.8 22.3 101.7 24.15 102.2 25.05 102.05 25.8 L101.8 26.45 Q101.8 26.95 102.45 27.55 L103.45 28.3 Q105.7 30.6 104.45 30.85 103.85 31.1 102.45 29.05 101.95 27.05 101.3 26.8 L100.55 26.8 Q100.05 27.05 99.8 26.8 98.8 25.3 98.2 25.7 97.55 26.2 98.05 26.8 98.45 27.45 98.95 27.55 100.05 28.05 100.2 28.45 L100.95 29.6 103.2 31.1 Q104.6 32.1 104.45 33.1 104.2 33.7 103.7 33.45 L102.85 32.95 Q101.7 32.1 100.8 32.1 L99.45 31.95 98.05 30.7 Q97.65 29.6 97.05 29.05 96.65 28.55 96.4 27.05 96.15 26.05 95.3 25.2 L94.05 23.9 Q93.15 23.3 92.75 22.55 91.9 20.65 91.5 22.05 91.25 22.65 92.0 24.05 92.0 25.45 91.15 25.05 90.9 25.05 90.65 23.9 L90.15 23.15 89.4 22.4 89.15 21.15 Q88.5 19.75 87.6 20.4 87.0 20.8 88.25 22.55 88.75 23.15 88.9 24.05 89.0 24.95 88.25 25.2 87.6 25.3 87.35 24.65 L87.0 23.4" fill="#dcf1fc" fill-rule="evenodd" stroke="none"/>
    <path d="M57.95 38.25 L59.2 37.75 Q60.45 37.5 58.2 38.75 59.45 38.25 61.6 36.75 L63.6 36.0 Q64.75 35.6 65.5 35.0 L67.15 33.1 Q68.5 31.95 68.75 33.7 68.9 34.35 68.15 35.5 L67.15 36.75 66.15 37.5 65.5 38.5 Q64.6 39.9 63.6 40.5 62.75 41.15 62.25 40.65 L60.95 39.75 Q60.6 39.65 60.35 40.0 L59.7 40.5 58.35 40.75 57.2 42.15 Q56.2 42.5 55.7 42.75 55.2 43.15 56.85 43.05 58.35 42.9 57.85 43.05 57.2 43.15 55.55 44.55 55.2 43.8 55.45 41.9 55.45 40.75 55.2 40.65 L54.3 40.75 Q53.3 41.25 53.2 41.5 53.05 43.05 52.55 43.05 L51.4 42.4 Q50.9 41.9 50.65 43.05 49.3 42.4 50.65 40.25 51.9 38.1 52.8 38.1 L54.45 38.5 Q54.95 38.35 55.3 37.6 56.55 36.85 57.95 38.25" fill="#dcf1fc" fill-rule="evenodd" stroke="none"/>
    <path d="M63.6 44.55 L64.6 43.4 Q65.25 42.65 66.9 41.9 68.65 41.15 69.25 40.5 L74.05 35.5 Q75.7 34.1 78.3 30.35 79.85 28.45 80.6 29.85 L80.7 30.85 Q80.7 31.6 80.95 31.95 82.35 31.95 83.2 30.6 L83.6 29.05 Q83.85 28.05 84.5 27.8 85.25 27.55 85.75 28.2 86.35 28.95 86.0 29.85 L85.35 30.7 84.75 31.7 Q85.6 32.35 85.1 33.7 84.75 35.25 85.35 36.0 85.1 36.6 85.5 38.1 86.0 39.65 85.75 40.4 85.25 41.9 84.5 41.15 84.1 40.75 84.1 38.65 83.95 36.5 83.1 37.0 82.35 37.5 83.1 39.25 L83.85 41.0 Q84.1 42.9 83.2 41.75 82.6 42.0 82.45 43.8 82.45 45.4 81.7 45.3 81.2 45.3 81.2 44.4 81.2 43.65 80.7 43.8 80.35 43.9 80.35 44.9 L79.95 46.15 Q79.2 46.15 78.95 46.4 L78.7 47.4 Q78.2 47.95 77.95 47.7 L77.55 46.65 Q77.05 45.3 76.55 44.9 L75.7 44.55 75.45 43.65 74.8 42.4 Q74.4 42.0 73.8 42.65 L72.9 44.05 71.8 44.65 70.55 44.9 Q69.75 45.15 69.5 45.8 69.4 47.4 68.9 47.7 L68.4 47.8 68.15 47.15 68.15 46.3 Q68.0 45.65 67.4 45.8 67.15 45.8 67.0 46.3 L66.9 47.15 Q66.5 48.05 65.75 48.3 65.25 47.95 65.0 48.05 L64.6 48.7 64.25 49.45 63.5 49.55 Q63.0 49.3 63.0 47.95 L63.6 46.65 Q63.85 46.05 63.6 44.55" fill="#dcf1fc" fill-rule="evenodd" stroke="none"/>
    <path d="M102.6 19.4 L103.95 20.15 Q106.6 22.3 108.25 22.3 L113.5 21.8 117.05 22.3 120.4 21.8 122.95 20.9 Q124.3 20.55 125.35 21.8 L126.2 23.15 Q126.6 24.15 126.35 24.8 125.95 25.55 125.05 25.3 L123.8 24.65 Q122.05 23.65 120.95 23.9 119.9 24.15 118.4 25.7 117.8 26.3 117.3 26.2 L116.15 25.3 Q114.5 23.9 114.65 25.7 L115.15 26.55 Q115.4 26.95 114.9 27.45 L114.25 27.55 113.65 27.2 112.5 27.3 Q112.0 27.3 111.5 26.3 110.6 24.65 110.25 24.95 110.0 25.05 110.1 25.45 L110.25 26.2 110.1 27.8 Q109.85 28.3 109.0 28.2 107.6 28.2 106.6 25.95 L105.85 23.9 Q105.35 22.8 104.35 23.55 L105.45 25.3 Q106.1 26.55 105.2 26.95 104.85 27.2 103.95 26.2 103.1 25.05 102.6 25.05 L102.6 25.95 102.2 26.45 Q101.7 26.55 101.55 26.05 L101.45 25.05 Q100.95 24.3 100.7 24.65 100.3 25.05 100.05 25.05 99.45 25.05 99.3 24.15 99.05 23.05 99.95 22.65 101.2 22.15 101.3 21.8 101.45 21.05 100.45 19.5 99.8 18.65 101.3 16.65 102.85 14.6 104.6 14.1 105.6 13.85 104.35 15.5 102.6 17.9 102.6 19.4" fill="#dcf1fc" fill-rule="evenodd" stroke="none"/>
    <path d="M85.0 38.1 Q83.95 37.35 84.5 34.85 84.85 32.35 85.85 31.95 L86.85 34.0 87.85 33.6 88.65 32.85 88.5 30.1 Q89.65 28.95 90.5 31.35 L91.4 32.6 92.4 33.85 Q93.0 34.6 93.55 34.6 93.9 34.6 93.8 33.7 L93.3 32.1 Q92.9 31.1 93.55 30.95 93.9 30.85 96.15 32.85 98.8 34.75 99.8 34.75 100.8 34.75 102.45 35.85 103.35 36.35 104.1 36.35 L105.7 36.1 107.35 36.5 Q108.35 37.0 108.5 37.6 109.0 38.9 107.0 39.25 106.1 39.5 103.95 38.65 L102.45 37.5 Q101.45 36.75 100.8 36.85 101.05 38.9 99.3 37.85 97.3 36.6 97.05 37.0 96.8 37.25 97.3 38.25 97.55 38.9 96.65 38.9 95.8 38.25 95.3 38.25 L94.3 38.75 92.9 38.35 Q92.0 38.1 91.5 38.35 91.65 39.0 91.15 39.15 L90.65 38.75 Q89.9 37.25 89.65 38.35 89.4 39.4 91.4 41.0 93.4 42.75 93.8 41.75 L93.55 40.15 Q93.4 38.9 94.4 38.9 94.8 38.9 95.05 39.4 L95.3 40.15 95.9 41.15 Q97.15 42.0 97.55 43.15 L97.8 44.4 Q97.95 45.15 98.45 45.3 L99.45 43.4 99.95 41.75 100.2 40.0 Q100.7 38.1 101.8 39.65 L103.6 42.15 105.45 42.5 107.25 42.75 Q108.5 43.55 110.25 44.15 111.1 44.4 111.65 45.05 112.15 45.8 111.0 46.05 110.6 46.15 110.0 45.65 L109.0 44.9 Q108.35 44.65 107.75 44.9 L106.35 45.3 Q105.7 45.4 105.2 44.9 L104.1 43.9 Q102.7 43.4 102.6 44.05 102.45 44.4 102.95 44.55 L103.45 44.8 Q103.95 45.15 104.2 46.15 L105.95 46.3 107.35 45.4 Q108.25 44.8 108.85 45.15 109.75 45.65 109.0 46.9 108.1 46.9 107.75 47.3 106.85 48.45 105.7 48.7 L104.6 49.3 103.35 49.2 101.8 48.2 Q101.55 48.2 101.3 48.55 L100.8 48.95 99.95 48.45 Q99.45 48.05 99.05 48.45 98.95 49.45 98.55 49.7 97.4 50.55 96.4 48.05 L95.65 46.55 Q95.05 45.8 94.55 47.05 95.05 49.8 93.8 50.05 93.0 50.2 93.0 49.3 L92.9 47.8 Q92.5 47.15 91.75 47.05 L90.65 46.4 90.15 44.8 Q89.25 44.15 88.9 43.55 L88.25 41.75 Q87.5 41.15 87.25 40.5 L87.5 38.5 Q87.6 37.1 86.85 36.85 86.5 36.75 86.1 37.75 85.85 38.75 85.0 38.1" fill="#dcf1fc" fill-rule="evenodd" stroke="none"/>
    <path d="M96.9 90.55 L95.9 91.15 Q95.4 91.4 94.9 91.15 L94.8 90.9 Q95.05 89.05 94.4 88.9 94.15 88.8 93.8 89.65 93.55 90.4 92.75 89.9 91.9 89.4 92.25 87.4 92.65 85.4 93.55 85.0 L94.55 86.65 Q95.8 86.5 96.05 85.65 L96.05 84.65 95.9 83.5 Q96.65 82.85 97.05 83.25 L97.65 84.4 98.55 85.4 99.3 86.4 Q100.7 87.5 100.55 86.15 L100.05 85.0 Q99.8 84.15 100.45 84.0 L102.7 85.5 Q104.85 86.9 105.85 86.9 106.85 86.75 108.25 87.65 109.0 88.15 109.75 88.0 L111.1 87.65 112.5 88.0 Q113.4 88.4 113.5 88.8 114.0 89.9 112.15 90.3 L109.5 89.8 Q107.6 88.25 106.7 88.55 106.85 90.05 105.35 89.3 103.6 88.4 103.35 88.65 103.2 88.9 103.6 89.65 103.85 90.15 103.1 90.15 102.2 89.65 101.8 89.8 101.3 90.15 100.95 90.15 99.3 89.55 98.55 89.9 98.55 90.4 98.2 90.55 L97.65 90.3 97.3 89.8 Q96.9 89.4 96.8 89.9 L96.9 90.55" fill="#dcf1fc" fill-rule="evenodd" stroke="none"/>
    <path d="M94.9 103.6 L93.9 104.25 Q93.4 104.5 92.9 104.25 L92.75 104.0 Q93.0 102.25 92.4 102.0 92.15 101.85 91.75 102.75 91.5 103.5 90.75 103.1 90.0 102.5 90.4 100.45 90.75 98.45 91.5 98.1 L92.5 99.7 Q93.8 99.6 94.05 98.7 L94.05 97.7 93.9 96.55 Q95.15 95.7 95.65 97.6 L96.55 98.45 97.3 99.45 Q98.7 100.6 98.55 99.2 L98.2 98.1 Q97.95 97.2 98.45 97.05 L100.7 98.6 Q102.85 99.95 103.95 99.95 104.85 99.85 106.2 100.7 107.0 101.2 107.75 101.1 L109.1 100.7 Q111.1 100.7 111.5 102.0 112.0 103.0 110.1 103.35 L107.5 102.85 Q105.6 101.35 104.7 101.6 104.95 103.25 103.45 102.5 101.55 101.6 101.3 101.85 101.2 102.0 101.55 102.75 101.8 103.25 101.05 103.25 L100.45 103.1 99.8 102.85 Q99.3 103.25 98.95 103.25 L97.65 103.0 96.55 103.1 Q96.55 103.6 96.15 103.6 L95.65 103.35 95.3 102.85 Q94.9 102.5 94.8 103.1 L94.9 103.6" fill="#dcf1fc" fill-rule="evenodd" stroke="none"/>
    <path d="M124.2 62.25 Q124.95 62.5 125.35 63.0 125.95 63.65 124.95 63.9 124.55 64.0 123.95 63.5 L122.95 62.9 Q122.45 62.65 121.8 62.9 L120.55 63.25 Q119.9 63.4 119.4 63.0 L118.3 62.15 Q118.05 61.9 117.55 61.75 117.05 61.65 117.05 62.15 116.9 62.9 117.8 62.9 L118.55 64.15 120.05 64.25 121.45 63.4 Q122.3 62.9 122.8 63.15 123.8 63.75 122.95 64.75 122.2 64.9 121.7 65.15 120.8 66.15 119.8 66.4 119.65 66.4 118.65 67.05 L117.55 66.9 Q116.55 66.05 116.05 66.05 115.65 66.65 115.15 66.65 L114.4 66.3 Q113.9 65.9 113.5 66.3 113.4 67.15 113.0 67.4 112.25 67.9 111.0 65.9 110.0 63.4 109.35 65.0 L109.25 66.65 Q109.25 67.65 108.5 67.8 107.75 67.9 107.75 67.15 L107.75 65.8 Q107.5 65.25 106.7 65.15 L105.6 64.5 Q105.45 63.5 105.1 63.0 L104.1 61.9 Q103.85 60.75 103.45 60.25 L102.7 59.1 102.85 57.0 102.95 56.85 Q104.1 56.45 104.85 57.25 104.7 58.25 106.6 59.6 108.35 61.1 108.75 60.25 L108.6 58.75 Q108.5 57.6 109.35 57.6 109.75 57.6 110.1 58.75 L110.75 59.6 Q112.15 60.75 112.25 61.5 L112.4 62.65 Q112.5 63.25 113.0 63.4 L114.0 61.65 Q114.65 60.6 114.75 58.6 115.4 57.0 116.4 58.25 L118.05 60.35 Q118.55 60.75 119.65 60.75 L121.3 61.0 Q122.8 62.0 124.2 62.25" fill="#dcf1fc" fill-rule="evenodd" stroke="none"/>
    <path d="M109.0 41.25 Q109.25 41.0 110.1 40.75 L111.35 40.65 112.5 41.75 113.75 42.9 116.15 44.3 Q116.9 44.8 118.65 45.15 L119.8 45.9 Q120.3 46.3 120.8 46.3 L123.7 46.05 126.45 45.8 Q128.2 44.9 128.95 45.55 129.75 46.3 129.35 46.65 128.95 47.05 128.2 46.9 127.45 46.15 126.95 46.4 L126.2 47.55 Q125.6 48.05 124.8 47.95 L123.3 47.55 120.8 47.7 Q120.15 47.8 119.4 47.15 L118.15 46.3 Q117.4 45.9 117.3 46.65 117.05 47.3 117.55 48.05 L118.3 49.3 Q118.65 49.95 117.65 50.2 117.15 50.3 116.8 49.55 L116.05 48.55 Q115.15 50.8 114.0 48.95 113.75 48.45 113.65 47.15 113.65 46.05 113.25 45.4 113.0 44.15 112.25 44.15 111.65 45.15 111.1 45.05 110.6 44.9 110.6 44.55 L110.5 43.55 109.5 42.15 109.0 41.25" fill="#dcf1fc" fill-rule="evenodd" stroke="none"/>
    <path d="M113.4 53.6 Q113.5 55.2 112.9 54.85 112.25 54.45 111.9 53.2 111.65 51.2 111.75 50.05 111.9 51.3 112.65 51.3 L114.0 51.2 Q114.5 51.45 115.0 52.35 L116.55 52.45 Q117.55 52.6 119.4 53.6 L120.8 53.7 122.2 54.1 Q123.95 54.95 124.95 54.85 129.85 54.85 130.1 56.85 130.5 59.0 128.2 58.35 L127.1 57.85 125.95 58.0 Q125.35 58.25 124.95 58.0 L124.05 57.35 Q123.3 57.1 122.95 57.75 L121.95 58.6 Q121.3 58.75 120.95 58.25 L120.05 57.35 Q119.65 57.1 119.05 57.6 L117.9 57.5 Q117.8 56.2 117.3 55.7 L116.55 55.6 116.05 55.7 114.9 54.45 Q114.15 53.6 113.4 53.6" fill="#dcf1fc" fill-rule="evenodd" stroke="none"/>
    <path d="M122.05 62.15 L121.2 61.65 120.4 60.6 Q118.55 60.1 118.15 59.25 118.05 58.6 118.3 57.85 118.65 57.25 119.15 57.1 119.8 57.0 120.05 57.75 L120.55 59.1 Q121.3 60.25 122.05 59.6 L123.2 58.35 Q123.95 57.85 124.55 58.5 L125.6 59.75 Q126.2 60.35 127.1 60.1 L128.6 59.85 Q129.1 59.85 129.85 60.5 L131.25 60.35 Q132.1 60.5 133.35 61.65 135.4 61.9 134.9 63.4 134.5 64.15 133.75 64.4 L132.5 64.15 131.35 63.25 Q131.0 63.15 130.75 63.4 L130.1 63.75 Q129.85 63.9 128.95 63.5 128.1 63.15 127.85 63.75 127.35 63.4 126.45 63.4 L125.2 63.15 124.05 62.0 Q123.05 61.5 122.8 61.5 L122.05 62.15" fill="#dcf1fc" fill-rule="evenodd" stroke="none"/>
    <path d="M102.95 58.0 Q101.8 58.25 101.95 57.1 101.95 55.95 102.85 55.45 L105.95 54.1 Q107.75 53.45 109.25 54.35 111.35 55.7 111.1 56.45 110.25 56.45 110.1 56.75 110.0 57.25 110.6 57.6 110.85 59.1 109.35 58.6 108.1 57.85 107.1 58.25 L105.95 58.75 Q105.45 58.85 104.7 58.1 L104.1 57.1 Q103.85 57.1 103.45 57.6 L102.95 58.0" fill="#dcf1fc" fill-rule="evenodd" stroke="none"/>
    <path d="M130.1 67.4 L131.5 69.65 Q132.0 70.3 132.1 70.95 132.1 71.7 131.25 71.3 130.85 71.2 130.0 70.3 129.1 69.55 128.35 69.8 127.6 70.55 127.1 70.45 L126.6 70.05 126.2 69.3 Q125.2 67.65 123.8 67.65 L122.2 68.05 Q121.3 68.3 120.8 67.65 L120.05 66.4 119.3 65.9 Q119.05 65.5 119.3 65.15 120.05 64.0 122.55 66.3 L124.2 66.15 125.05 66.9 Q125.6 67.4 126.1 67.15 125.85 65.65 126.2 65.15 126.6 64.65 126.85 64.9 L127.6 65.4 129.1 66.15 Q129.85 66.65 130.1 67.4" fill="#dcf1fc" fill-rule="evenodd" stroke="none"/>
    <path d="M92.25 52.2 L93.4 53.2 Q94.05 53.95 94.4 53.7 L95.05 52.6 Q95.8 52.35 96.8 53.7 L97.95 55.2 Q98.55 56.1 99.3 56.2 L100.7 56.6 Q101.45 57.0 101.7 58.0 101.95 59.35 101.2 59.0 100.2 58.25 99.8 58.1 98.95 57.85 99.05 58.85 99.05 59.75 99.7 60.35 100.45 61.4 102.35 62.4 104.2 63.9 104.1 65.15 L103.85 66.05 103.1 65.9 Q102.7 65.65 102.6 64.9 L102.2 63.9 Q101.7 63.4 101.45 63.75 L100.7 64.25 Q100.2 64.5 99.95 64.15 L99.3 63.65 Q98.3 63.4 98.45 64.5 L98.7 66.4 Q98.3 67.15 96.9 64.5 95.55 61.65 94.55 62.9 L93.4 64.0 Q92.9 64.4 92.25 63.15 91.9 62.4 92.25 61.5 L92.5 60.1 Q92.4 58.85 91.65 59.75 91.0 60.5 90.9 61.5 L91.0 63.4 Q90.9 64.4 89.9 63.65 89.4 63.4 89.15 61.65 L88.5 59.85 Q87.85 58.85 88.1 58.25 L88.5 57.35 Q88.75 57.0 88.35 56.45 87.6 55.45 87.0 57.25 86.5 58.75 85.6 57.35 85.25 58.1 85.6 59.1 L86.0 60.75 Q86.0 61.9 85.5 62.5 85.0 63.25 84.25 62.65 83.45 62.0 83.85 60.85 84.25 59.25 84.1 58.85 83.7 55.6 82.45 56.85 82.2 57.25 82.2 58.35 L82.1 59.35 82.6 60.0 Q83.1 61.9 81.6 63.4 80.6 64.25 80.35 64.65 L79.95 65.9 79.05 66.65 77.8 66.55 Q77.45 66.15 77.45 65.65 L77.2 65.0 Q76.55 64.15 75.3 65.8 75.3 67.8 74.8 68.15 74.4 68.4 74.15 67.9 L73.65 67.05 Q73.05 66.4 72.4 66.65 72.15 65.0 72.8 64.4 L73.9 64.0 74.8 62.65 Q75.3 61.65 74.4 61.65 L73.65 62.4 73.05 62.9 72.3 62.4 Q71.4 62.0 71.15 62.4 L70.4 63.4 Q69.25 61.75 68.15 64.0 66.9 66.55 65.5 65.8 64.85 65.4 64.85 64.4 64.85 63.4 65.35 62.75 65.6 62.4 66.4 62.15 L67.5 61.4 68.5 59.75 Q68.75 59.5 69.65 59.25 L71.8 58.0 73.05 57.35 Q73.8 57.0 73.9 56.35 74.05 55.6 73.55 54.95 72.9 54.2 72.4 54.6 72.4 55.95 70.8 57.6 L69.65 58.75 68.75 58.1 Q68.4 57.75 67.75 58.1 L66.65 60.0 64.75 61.75 Q63.75 62.9 63.35 62.75 62.35 62.25 63.0 60.75 62.1 60.0 59.7 62.4 L58.7 63.15 Q57.7 63.5 57.2 64.0 L56.85 64.65 56.05 64.75 Q55.7 64.5 55.7 64.15 L55.55 63.5 Q54.8 63.4 54.45 63.0 L53.7 61.9 52.8 61.5 Q52.45 61.4 52.55 60.6 52.55 60.1 54.05 59.1 54.55 58.6 57.1 58.1 58.45 57.75 60.95 56.6 63.5 55.45 64.75 55.1 66.5 54.6 68.15 53.35 68.65 52.95 71.3 52.1 73.55 51.2 77.55 48.05 78.95 47.4 79.85 46.15 81.45 44.55 82.2 47.4 82.45 48.55 82.85 48.55 83.1 48.55 82.85 47.3 82.2 46.65 82.45 45.8 82.7 44.8 83.45 45.05 84.25 45.3 84.6 47.95 84.85 50.7 85.75 51.2 L86.25 49.8 Q86.5 49.2 87.35 49.7 L92.25 52.2" fill="#dcf1fc" fill-rule="evenodd" stroke="none"/>
    <path d="M86.0 68.55 L86.5 67.65 Q87.1 67.05 87.75 67.8 88.1 68.15 88.1 69.55 88.0 70.55 88.9 70.45 L90.25 69.65 Q91.25 69.05 92.0 69.4 L93.4 70.15 Q94.15 70.55 94.3 69.3 L95.3 68.9 96.05 68.3 96.65 67.05 Q97.05 66.8 97.65 67.65 L98.55 69.55 Q99.05 70.7 99.95 70.95 L101.3 71.2 102.6 72.3 104.1 72.45 105.6 72.3 107.1 73.2 108.6 73.3 109.85 72.8 110.75 72.95 111.5 72.95 112.75 72.05 Q113.5 71.45 114.0 71.7 114.4 71.8 114.75 72.2 L115.4 72.7 116.4 72.2 Q117.15 72.2 117.8 72.8 118.4 73.55 117.9 74.2 L117.05 74.85 Q116.4 75.2 117.3 75.6 L118.9 75.45 120.4 75.2 Q121.2 75.45 121.7 76.6 122.2 77.95 122.45 78.2 122.8 78.6 123.95 78.7 125.05 78.7 125.45 79.1 126.6 79.85 125.2 80.75 L122.95 80.85 121.95 81.1 120.8 81.35 Q120.3 80.35 119.8 81.1 L119.8 82.6 Q119.4 84.25 118.05 82.75 L116.3 80.6 115.4 79.85 Q114.75 79.5 114.65 78.95 114.4 78.45 114.5 77.95 L114.75 77.1 Q114.4 76.2 114.0 76.2 L113.15 76.85 111.35 76.7 Q111.35 77.85 110.35 77.35 L109.0 76.7 Q107.85 81.25 104.45 78.1 L103.85 77.6 Q103.6 77.35 103.2 77.45 L102.85 77.95 Q102.6 78.35 102.05 77.95 101.8 77.85 101.2 76.45 100.7 75.35 99.7 75.6 L100.55 77.6 Q101.05 78.85 100.7 79.75 100.05 81.25 99.3 80.5 L97.65 79.5 Q98.55 80.6 97.95 81.25 L96.3 81.1 95.15 78.6 Q94.3 76.7 93.8 78.2 93.65 78.6 94.65 80.35 95.4 81.85 94.4 82.35 94.15 82.5 93.65 82.1 93.3 81.75 92.9 81.85 L92.25 82.6 91.75 83.6 Q91.25 84.25 90.65 84.15 L89.4 83.6 88.65 83.75 88.0 83.5 87.85 82.0 87.1 80.85 87.1 79.2 Q86.75 77.45 86.85 76.35 L87.35 73.45 Q87.5 71.95 85.85 71.45 L84.6 71.05 Q84.1 70.55 84.25 69.4 84.35 68.65 85.0 68.05 85.75 67.4 86.0 68.55" fill="#dcf1fc" fill-rule="evenodd" stroke="none"/>
    <path d="M80.1 78.1 Q79.7 76.7 82.45 74.95 L85.0 72.3 Q86.35 70.95 86.25 73.05 L85.35 75.1 85.35 76.1 85.1 77.1 Q84.25 77.85 83.95 78.35 L83.85 79.85 Q83.2 80.75 82.6 80.35 L82.2 79.75 82.2 79.1 Q81.95 78.6 80.95 78.6 80.2 78.6 80.1 78.1" fill="#dcf1fc" fill-rule="evenodd" stroke="none"/>
    <path d="M71.3 70.8 Q72.8 69.4 74.8 69.9 L77.45 69.65 Q77.95 69.3 78.55 68.15 L79.6 66.65 Q80.1 66.3 80.7 66.65 81.45 66.9 81.85 66.65 82.35 66.3 82.45 65.15 83.1 64.65 83.7 65.0 84.5 65.25 84.6 66.3 84.85 67.4 83.85 69.15 83.7 69.9 84.25 70.8 L84.6 72.2 Q84.35 73.2 83.7 73.8 82.95 74.05 82.35 74.45 81.6 75.85 80.35 75.7 L79.7 75.45 Q79.2 75.35 78.95 75.6 78.95 76.6 78.3 76.85 77.95 76.95 77.05 76.35 76.3 75.95 75.95 76.85 L75.05 78.7 Q74.4 79.85 73.65 78.6 73.9 77.7 73.4 77.2 73.05 76.85 72.15 77.6 71.8 78.85 71.3 79.2 L70.65 79.75 70.0 79.35 68.65 78.95 Q68.0 79.1 67.4 79.75 L66.4 81.25 65.1 81.75 Q64.85 81.85 64.25 83.1 63.6 84.25 63.1 84.15 L62.6 83.5 62.35 82.75 Q62.0 82.5 61.75 82.75 L61.35 83.5 Q60.85 84.5 60.1 84.65 L59.2 84.75 58.6 85.15 Q58.35 87.15 57.7 87.25 57.1 87.4 57.1 86.25 57.7 85.5 57.2 84.9 L56.05 84.4 Q56.2 83.25 57.1 82.35 L58.6 81.0 Q58.6 80.25 58.85 79.75 59.2 79.2 59.95 79.1 L61.25 79.2 Q62.25 79.2 62.85 78.6 L64.0 77.1 65.35 74.55 Q65.75 74.2 66.75 73.95 L68.15 73.2 71.3 70.8" fill="#dcf1fc" fill-rule="evenodd" stroke="none"/>
    <path d="M74.3 85.9 Q75.3 85.4 76.3 83.9 77.3 82.25 77.95 81.75 79.2 80.85 79.7 81.25 80.35 81.6 80.35 83.25 L81.45 82.25 Q82.35 81.35 82.95 81.5 83.85 81.85 83.85 83.1 83.85 84.25 82.45 84.9 L81.45 85.5 80.7 85.5 Q80.35 85.9 80.6 86.4 80.85 86.9 81.2 86.9 L81.85 86.4 Q82.35 86.0 82.7 86.4 83.2 86.75 82.95 88.15 L83.95 86.65 Q84.6 85.4 85.1 85.9 86.0 86.9 84.35 89.55 83.6 92.15 82.7 92.55 81.7 92.4 81.2 92.55 80.85 93.3 80.2 93.3 80.35 92.8 79.7 92.65 L78.8 92.4 Q78.8 91.8 79.95 90.05 80.85 88.65 80.2 87.5 79.6 88.8 79.05 88.9 78.45 87.65 77.55 89.55 76.3 91.65 75.55 91.15 75.55 89.9 74.15 90.15 73.8 91.55 72.9 91.3 L71.05 91.05 Q70.55 91.8 70.0 91.65 L69.25 90.8 Q68.15 89.9 67.5 90.8 67.25 91.15 67.5 92.15 67.65 93.2 67.4 93.45 67.15 93.7 66.5 93.05 65.9 92.3 65.35 92.3 64.25 92.55 64.35 93.7 L64.6 95.45 Q64.35 96.55 63.75 95.7 63.6 95.55 63.6 94.8 L63.35 93.95 Q62.5 92.95 62.1 94.2 L61.5 95.8 Q60.6 96.45 60.6 95.3 60.6 93.8 60.35 93.7 59.6 93.2 59.35 94.3 L59.1 96.05 Q58.35 97.6 57.6 97.2 L56.55 96.3 Q55.2 99.1 55.2 96.8 L55.45 94.2 Q54.95 94.05 54.55 94.2 54.05 97.95 53.55 96.3 53.45 96.05 53.95 94.55 54.2 93.55 53.05 93.45 51.9 93.45 51.65 94.05 51.55 94.55 51.9 94.8 L52.45 95.2 Q52.8 95.95 52.3 96.55 51.65 97.3 51.65 97.6 L50.15 97.7 Q50.15 98.6 49.65 98.95 L49.9 99.1 Q48.65 99.95 48.15 98.45 47.15 99.7 46.75 98.85 46.5 98.35 46.9 98.1 L47.55 97.6 49.55 94.3 Q50.3 92.4 52.2 91.65 L55.8 90.8 57.7 90.9 59.35 90.65 61.85 88.8 65.1 87.9 68.65 86.75 70.65 86.25 71.4 85.65 Q71.9 85.15 72.15 85.15 72.55 85.0 73.05 85.65 73.4 86.25 74.3 85.9" fill="#dcf1fc" fill-rule="evenodd" stroke="none"/>
    <path d="M77.55 105.85 Q78.7 105.35 79.7 103.6 80.85 101.7 81.45 101.1 82.6 99.95 83.35 100.45 84.1 100.95 84.1 103.0 L85.5 101.7 Q86.35 100.85 87.0 101.1 88.0 101.35 88.0 103.0 88.1 104.25 86.6 105.1 86.35 105.5 85.5 105.75 84.85 105.6 84.75 105.75 84.35 106.25 84.6 106.9 84.85 107.4 85.25 107.5 L86.0 106.9 Q86.5 106.5 87.0 106.9 87.5 107.4 87.25 109.15 87.6 109.15 88.35 107.25 89.0 105.75 89.65 106.5 90.15 107.15 89.65 108.75 L88.9 110.75 Q88.25 114.05 87.1 114.4 L85.6 114.3 Q85.25 115.15 84.5 115.15 84.6 114.55 83.95 114.3 L82.85 114.05 Q82.85 113.3 83.95 111.3 85.0 109.5 84.25 108.15 L83.7 109.15 Q83.45 109.75 82.95 109.75 82.35 108.25 81.35 110.5 80.1 113.05 79.2 112.4 79.2 110.9 77.55 111.15 77.3 112.8 76.3 112.55 74.65 111.9 74.15 112.05 73.65 112.9 73.15 112.8 L72.3 111.65 70.25 111.55 Q70.0 111.9 70.25 113.15 70.55 114.4 70.25 114.65 70.0 114.9 69.4 114.15 68.5 113.15 68.0 113.3 66.9 113.55 67.0 114.8 L67.4 117.05 Q67.15 118.45 66.4 117.3 66.25 115.7 65.75 115.15 64.75 113.8 64.5 115.3 L63.85 117.45 Q63.0 118.05 62.85 116.7 62.85 114.9 62.5 114.65 61.75 114.05 61.5 115.55 L61.25 117.45 Q60.6 119.2 59.6 118.8 L58.45 117.7 Q58.1 118.8 57.6 119.3 56.95 119.95 56.95 118.3 57.35 116.45 57.1 115.05 L56.05 114.9 55.8 117.2 Q55.45 118.8 55.05 117.55 54.95 117.2 55.45 115.3 55.7 114.15 54.45 114.05 53.05 114.05 52.95 114.65 52.8 115.3 53.2 115.55 L53.8 116.05 Q54.2 117.05 53.8 117.7 53.05 118.55 53.05 118.95 L51.4 119.05 Q51.4 120.2 50.9 120.6 L51.15 120.85 Q49.8 121.85 49.15 119.8 L48.4 120.45 Q47.9 120.85 47.65 120.2 47.4 119.7 47.9 119.3 L48.55 118.8 Q50.15 116.2 50.55 114.9 51.3 112.65 53.45 111.9 L57.45 111.0 59.45 111.15 Q60.7 111.4 61.35 110.9 L64.0 108.75 67.65 108.0 71.4 106.75 Q72.15 106.35 73.55 106.1 73.9 106.1 74.4 105.5 74.95 104.85 75.2 104.85 75.7 104.75 76.2 105.6 76.7 106.25 77.55 105.85" fill="#dcf1fc" fill-rule="evenodd" stroke="none"/>
    <path d="M67.0 96.05 L67.75 95.7 Q68.65 96.45 67.75 97.45 L66.25 98.85 65.25 100.1 Q64.6 100.1 64.0 100.45 63.25 101.1 61.75 101.85 60.95 102.1 60.7 102.85 L60.2 104.25 Q59.2 104.85 58.95 105.35 L58.2 106.35 54.3 108.75 Q51.15 110.65 51.05 111.3 50.9 111.9 48.8 113.9 L46.0 115.8 45.15 116.95 Q44.5 117.45 43.75 117.2 43.65 116.55 44.9 115.55 L47.55 113.4 Q48.8 112.15 48.8 110.5 48.8 110.0 52.45 108.0 L56.45 105.75 Q56.95 104.75 58.6 103.6 L59.2 102.1 Q59.35 100.95 59.7 100.7 L61.1 100.45 Q61.5 100.35 61.85 99.45 62.35 99.1 63.35 99.1 L64.75 98.7 Q65.35 98.35 67.0 96.05" fill="#dcf1fc" fill-rule="evenodd" stroke="none"/>
    <path d="M69.4 104.25 L67.65 105.25 Q66.25 105.6 66.0 104.25 65.9 103.35 67.9 103.0 L72.15 102.25 Q73.05 101.85 74.55 100.7 75.3 100.2 76.8 99.45 L78.05 97.7 Q79.05 96.55 79.85 97.05 80.1 97.3 79.85 98.2 L79.3 99.6 Q79.05 100.7 77.55 102.25 L76.8 102.85 75.95 103.0 75.45 102.5 Q75.3 102.1 74.95 102.25 L74.3 103.1 73.65 103.25 72.4 103.6 Q71.3 104.25 70.8 104.1 L70.0 104.0 Q69.75 104.0 69.4 104.25" fill="#dcf1fc" fill-rule="evenodd" stroke="none"/>
    <path d="M114.0 88.0 Q113.0 87.15 112.0 85.4 110.6 83.25 111.5 82.6 L112.75 82.35 113.9 82.1 114.5 81.6 115.4 81.75 116.3 82.6 117.65 83.35 118.8 84.25 120.15 84.4 120.7 83.9 Q121.05 83.5 121.45 83.6 L122.2 84.25 Q122.8 84.4 123.45 83.6 L124.55 82.5 125.85 82.6 126.85 83.5 Q127.95 84.4 130.5 83.1 L133.5 83.6 135.25 83.25 Q136.5 83.1 136.15 84.25 135.9 85.0 134.9 85.4 L134.0 86.65 Q133.5 87.15 132.75 86.9 L131.35 86.75 130.25 86.9 Q129.35 86.25 128.85 86.25 L127.7 87.0 Q126.95 87.65 126.6 87.75 L124.95 88.0 Q124.55 88.0 123.7 88.65 122.45 89.3 121.2 87.9 120.95 87.0 120.55 86.75 L119.9 86.65 119.3 86.75 Q118.9 86.0 118.15 86.4 L117.15 87.4 Q116.65 86.0 116.15 85.75 115.4 85.65 115.5 86.0 L115.75 86.75 Q115.9 88.0 115.4 88.4 114.9 88.8 114.0 88.0" fill="#dcf1fc" fill-rule="evenodd" stroke="none"/>
    <path d="M101.05 91.4 Q101.7 91.55 102.45 90.9 103.1 90.9 103.6 91.8 104.2 92.65 104.7 92.55 L105.85 91.65 Q106.45 90.8 107.1 91.05 107.6 91.05 108.35 91.65 109.0 92.15 109.6 92.05 L111.25 92.3 112.4 93.55 114.4 95.05 115.15 95.7 Q115.15 96.2 114.0 96.55 L111.75 95.05 Q111.0 94.3 110.5 94.8 L109.85 95.95 Q109.6 96.3 108.85 96.2 L107.85 95.8 Q107.6 96.2 108.1 96.7 L108.85 97.3 Q108.25 98.7 106.85 97.3 106.35 96.95 105.85 96.95 L104.7 97.3 Q104.1 95.8 102.95 95.55 102.35 95.45 101.05 94.45 100.55 94.05 99.95 93.95 L98.8 93.7 Q98.3 93.45 97.95 92.55 97.55 91.65 97.65 91.05 98.55 91.65 99.05 91.55 L99.95 90.9 Q100.45 90.8 101.05 91.4" fill="#dcf1fc" fill-rule="evenodd" stroke="none"/>
    <path d="M101.3 105.85 Q101.95 106.0 102.7 105.25 103.35 105.25 103.85 106.1 104.45 107.0 104.95 106.9 105.35 106.9 106.1 106.0 106.7 105.25 107.35 105.35 107.85 105.5 108.6 106.0 L109.75 106.5 111.35 106.75 Q111.9 107.0 112.65 108.0 113.25 108.65 114.65 109.5 L115.25 110.15 Q115.4 110.9 114.25 110.9 113.75 110.9 112.0 109.5 111.25 108.75 110.75 109.25 110.5 109.4 110.35 109.9 L110.1 110.4 Q109.85 110.75 109.1 110.65 L108.1 110.25 Q107.85 110.65 108.35 111.15 L109.1 111.8 Q108.5 113.4 107.1 111.65 L104.95 111.8 Q104.35 110.25 103.2 110.0 L101.2 108.9 Q100.8 108.5 100.2 108.4 L99.05 108.0 Q98.55 107.75 98.2 106.9 97.8 106.0 97.95 105.35 98.8 106.25 99.3 106.0 L100.2 105.35 Q100.7 105.25 101.3 105.85" fill="#dcf1fc" fill-rule="evenodd" stroke="none"/>
    <path d="M115.75 93.8 L114.4 93.55 113.25 92.95 Q112.75 92.55 113.25 91.8 113.65 91.15 114.5 91.65 L115.65 92.55 Q117.3 94.2 118.3 93.95 L119.55 93.45 Q120.05 93.2 120.7 93.7 L122.7 95.2 124.3 95.2 126.35 95.8 128.35 95.55 130.35 95.3 131.85 95.55 Q132.85 95.8 133.0 96.3 131.35 97.95 129.35 97.95 L127.6 98.6 126.6 98.35 125.45 97.95 Q125.35 98.6 124.3 98.35 L123.45 97.85 122.95 98.1 Q121.2 98.35 119.55 97.45 L118.05 97.3 116.8 96.2 115.5 95.2 Q115.0 94.45 115.75 93.8" fill="#dcf1fc" fill-rule="evenodd" stroke="none"/>
    <path d="M119.15 112.3 L117.8 111.9 116.65 111.4 Q116.15 110.9 116.65 110.15 117.3 109.15 119.05 110.9 120.8 112.65 121.7 112.4 L122.95 111.9 124.2 112.05 126.1 113.65 127.7 113.55 129.75 114.15 131.75 114.05 133.75 113.8 135.25 114.05 Q136.25 114.15 136.4 114.65 135.15 116.2 132.75 116.45 L131.0 116.95 130.0 116.7 128.95 116.3 Q128.7 116.95 127.7 116.7 127.2 116.2 126.85 116.2 L126.35 116.45 Q125.05 116.7 122.95 115.95 L121.45 115.7 120.15 114.65 118.9 113.55 Q118.4 112.8 119.15 112.3" fill="#dcf1fc" fill-rule="evenodd" stroke="none"/>
    <path d="M116.8 107.15 L115.4 106.9 114.25 106.25 Q113.65 105.85 114.15 105.1 114.5 104.5 115.4 104.85 L116.65 105.85 117.8 107.0 Q118.55 107.5 119.3 107.25 L120.55 106.75 Q121.05 106.5 121.7 107.0 L123.55 108.5 125.35 108.5 127.35 109.0 129.35 108.9 131.25 108.65 Q133.75 109.0 133.85 109.65 132.5 111.3 130.35 111.3 L128.45 111.9 127.45 111.65 Q126.85 111.3 126.45 111.3 126.35 112.05 125.35 111.65 124.7 111.15 124.45 111.15 L123.8 111.4 Q122.2 111.65 120.55 110.75 L119.8 110.65 118.9 110.65 117.65 109.5 116.55 108.5 Q115.9 107.75 116.8 107.15" fill="#dcf1fc" fill-rule="evenodd" stroke="none"/>
    <path d="M85.5 -40.2 L85.1 -42.45 Q84.85 -43.85 86.1 -43.6 88.1 -42.95 86.1 -41.3 87.25 -38.8 86.6 -37.65 L86.25 -37.15 85.5 -37.4 84.85 -37.3 Q84.5 -37.3 84.35 -38.05 L82.7 -38.15 Q82.95 -38.7 84.25 -39.05 85.35 -39.3 85.5 -40.2" fill="#ffffff" fill-rule="evenodd" stroke="none"/>
    <path d="M84.85 -36.55 Q84.75 -35.3 86.85 -37.65 87.85 -37.65 87.6 -35.8 86.6 -35.3 87.1 -34.3 L87.85 -32.9 Q88.0 -31.5 87.0 -32.4 L85.6 -33.65 Q85.6 -31.5 83.45 -32.4 81.45 -33.25 81.95 -35.55 L83.85 -34.9 Q84.6 -34.8 84.85 -36.55" fill="#ffffff" fill-rule="evenodd" stroke="none"/>
    <path d="M85.25 -30.5 Q86.35 -32.15 87.0 -28.75 87.6 -29.65 87.75 -29.1 88.0 -28.75 88.1 -27.6 88.5 -26.75 89.65 -26.0 L90.4 -25.25 Q90.9 -24.7 90.5 -24.1 90.25 -23.7 89.65 -23.95 L88.65 -24.1 88.25 -22.95 Q88.1 -22.2 87.5 -22.7 86.85 -23.2 87.0 -23.95 L87.35 -25.25 Q87.35 -26.75 86.6 -27.25 85.75 -27.85 85.35 -26.35 L83.85 -26.25 82.7 -25.25 82.1 -24.95 81.6 -25.5 81.45 -26.6 80.7 -27.35 80.1 -28.1 Q79.85 -28.35 80.2 -29.25 L80.7 -29.75 Q81.2 -29.9 81.6 -29.5 L81.85 -28.6 Q81.95 -27.85 82.2 -27.6 82.7 -27.25 82.95 -27.75 L83.6 -28.6 83.6 -28.75 Q84.5 -28.5 84.75 -29.0 L85.25 -30.5" fill="#ffffff" fill-rule="evenodd" stroke="none"/>
    <path d="M82.35 -22.35 L83.7 -24.85 Q84.75 -26.35 85.5 -24.35 86.0 -23.1 85.1 -22.7 L83.7 -22.35 Q83.6 -21.2 83.2 -20.85 82.35 -20.7 81.95 -20.3 L80.95 -18.7 Q80.45 -17.7 79.95 -17.55 79.45 -17.45 79.2 -17.95 L78.45 -18.8 Q77.55 -18.95 77.2 -19.2 76.45 -19.8 76.45 -20.45 76.45 -21.2 77.3 -21.1 L78.05 -20.7 Q78.45 -20.3 78.8 -20.3 79.3 -20.3 79.95 -20.95 L81.35 -21.35 Q81.95 -21.6 82.35 -22.35" fill="#ffffff" fill-rule="evenodd" stroke="none"/>
    <path d="M86.75 -17.3 Q87.1 -17.8 86.35 -19.05 85.5 -20.45 85.75 -21.35 86.0 -22.35 86.75 -21.85 L87.25 -20.45 87.85 -19.95 88.35 -17.2 Q89.25 -16.8 89.5 -15.65 89.75 -14.4 88.75 -14.55 88.1 -14.55 87.35 -15.55 86.6 -16.55 86.75 -17.3" fill="#ffffff" fill-rule="evenodd" stroke="none"/>
    <path d="M82.2 -18.3 L83.35 -20.05 Q84.1 -21.1 84.75 -20.6 85.35 -19.95 84.85 -17.45 L83.85 -15.65 Q83.2 -14.8 83.1 -13.65 L82.7 -11.55 Q82.45 -10.5 81.6 -11.0 81.35 -11.15 81.2 -11.8 L80.6 -12.65 Q79.85 -12.9 79.45 -11.65 L78.7 -9.9 Q78.45 -9.25 77.55 -10.0 L76.2 -11.0 Q75.45 -11.65 74.8 -11.4 74.4 -11.25 74.15 -11.0 L73.55 -10.25 72.05 -9.65 Q70.25 -7.25 69.15 -7.75 L67.9 -9.15 Q66.9 -9.65 66.65 -10.25 66.25 -11.65 67.4 -11.8 68.4 -11.9 69.15 -11.15 L69.5 -10.25 Q69.65 -9.9 70.15 -9.65 70.8 -9.25 71.9 -10.15 73.8 -12.05 73.3 -12.8 L73.55 -14.15 Q75.8 -13.15 76.05 -14.55 75.3 -15.05 75.55 -16.3 75.8 -16.8 76.2 -16.7 L76.95 -16.3 78.55 -15.55 Q79.3 -15.3 80.1 -16.05 L82.2 -18.3" fill="#ffffff" fill-rule="evenodd" stroke="none"/>
    <path d="M79.6 -6.0 L80.2 -7.9 Q80.7 -9.0 81.45 -8.15 L81.7 -5.85 Q81.85 -4.5 82.95 -5.0 83.6 -5.25 83.85 -6.0 83.95 -7.25 84.25 -7.5 84.85 -8.65 85.5 -8.15 86.25 -7.65 85.6 -6.85 85.75 -5.5 85.35 -4.35 84.75 -2.75 84.85 -1.35 L84.85 0.3 Q84.75 0.55 84.5 0.4 L83.95 0.4 Q82.95 1.05 82.85 2.95 L82.7 4.45 Q82.6 5.2 81.85 4.95 81.6 3.45 80.85 3.8 79.95 4.45 79.45 4.45 78.8 4.3 78.2 3.55 77.55 2.55 78.05 1.9 L81.1 1.15 Q83.45 0.3 81.7 -1.2 80.35 0.55 79.95 -0.7 79.85 -0.95 80.2 -1.6 80.45 -1.95 79.85 -2.35 79.3 -2.75 78.3 -1.7 77.05 0.65 75.7 0.65 L74.05 0.55 Q73.05 1.15 72.55 1.15 71.65 1.15 71.3 0.55 71.05 0.05 71.9 -0.45 L73.55 -0.7 74.4 -1.7 75.95 -2.6 76.7 -4.25 78.3 -4.75 Q79.05 -4.85 79.6 -6.0" fill="#ffffff" fill-rule="evenodd" stroke="none"/>
    <path d="M89.9 -0.1 Q89.0 0.9 87.75 -1.6 L87.5 -1.7 87.25 -2.35 Q87.25 -2.85 87.85 -3.5 L88.5 -3.85 Q88.75 -3.85 88.65 -3.0 89.5 -2.85 90.0 -1.85 90.65 -0.85 89.9 -0.1" fill="#ffffff" fill-rule="evenodd" stroke="none"/>
    <path d="M82.85 7.7 Q82.6 6.55 84.25 6.55 L86.25 5.45 Q87.85 4.2 88.35 5.55 88.65 6.2 88.0 6.7 L87.1 7.6 Q88.0 9.95 87.6 9.7 87.25 9.45 86.25 10.6 85.5 11.6 85.0 10.6 84.75 10.2 84.85 9.35 84.85 8.7 84.35 8.35 84.25 8.2 83.6 8.35 82.95 8.45 82.85 7.7" fill="#ffffff" fill-rule="evenodd" stroke="none"/>
    <path d="M67.75 10.85 L69.9 10.7 71.65 9.1 Q72.4 8.45 73.3 8.7 74.3 9.1 73.4 10.2 73.15 10.6 71.55 10.95 70.25 11.2 70.25 12.35 71.8 11.5 72.3 11.85 72.3 13.0 70.25 13.75 L69.0 14.6 Q68.4 15.0 67.9 15.75 L67.25 16.65 Q66.75 17.15 66.25 17.0 L65.75 16.65 65.1 16.0 Q64.1 15.35 63.6 15.6 63.25 15.75 62.6 16.9 62.1 17.75 61.25 17.75 L59.6 17.9 58.45 18.65 Q57.7 18.9 57.7 17.5 57.7 15.6 60.35 15.25 63.0 14.75 62.85 13.35 L62.25 11.75 Q62.0 11.2 63.25 11.6 L64.1 12.0 64.85 11.75 Q65.35 11.2 65.25 10.2 65.75 9.6 66.4 9.95 L67.75 10.85" fill="#ffffff" fill-rule="evenodd" stroke="none"/>
    <path d="M79.3 11.35 Q79.7 11.2 80.6 9.45 81.45 8.35 82.1 9.85 L82.1 12.0 Q81.95 13.35 82.95 12.5 L83.7 11.35 Q84.25 10.7 84.85 11.75 85.5 12.85 84.35 14.25 84.35 14.85 84.75 15.5 L85.35 16.65 Q85.5 17.75 85.1 18.0 L84.1 18.5 Q83.6 18.9 83.6 19.25 L83.45 20.25 Q83.2 22.15 82.2 21.8 L81.35 20.25 Q80.85 20.15 79.95 20.9 77.95 22.9 77.7 21.55 80.6 19.4 80.2 18.5 L78.3 18.65 76.3 19.0 Q76.45 18.25 77.55 17.75 78.7 17.25 78.7 16.65 78.8 15.9 77.8 16.4 76.8 16.9 76.55 16.15 L75.05 15.9 Q74.15 15.75 74.55 14.5 75.05 13.25 76.45 12.25 76.95 11.6 77.8 11.6 L79.3 11.35" fill="#ffffff" fill-rule="evenodd" stroke="none"/>
    <path d="M88.75 18.65 Q88.65 18.25 87.75 17.4 L86.85 16.0 Q86.75 15.1 87.25 15.25 L88.25 15.6 89.4 15.6 Q90.15 15.6 90.5 16.0 91.15 16.4 91.9 17.9 94.05 20.65 95.15 21.3 L97.65 21.65 Q99.3 21.8 99.8 22.4 100.3 22.9 100.05 23.65 99.8 24.4 99.2 24.4 L98.3 23.9 Q97.8 23.4 97.3 23.55 97.05 25.55 95.55 24.55 L94.05 23.05 92.5 20.25 Q91.4 18.5 90.4 19.25 L91.15 21.15 Q91.25 22.4 90.25 21.8 L89.4 20.4 88.75 18.65" fill="#ffffff" fill-rule="evenodd" stroke="none"/>
    <path d="M58.6 28.95 Q59.35 29.6 59.85 29.45 60.2 29.3 60.35 28.7 60.45 28.05 60.7 27.95 60.95 27.55 62.0 27.45 L65.75 27.3 Q67.0 27.2 67.9 26.3 L69.4 24.4 Q69.9 23.8 70.8 23.8 L72.3 23.9 73.3 23.3 Q73.8 22.9 74.3 23.3 L74.95 23.9 74.4 24.55 72.3 26.8 73.05 26.95 Q73.4 28.2 72.3 29.85 L70.25 32.1 69.0 32.95 67.65 33.85 Q67.25 34.1 66.75 35.35 66.4 36.25 65.6 36.5 64.75 36.75 64.35 36.25 64.0 35.6 64.75 35.1 L66.15 34.75 Q66.9 34.5 67.15 33.7 L67.0 33.1 Q66.9 32.6 67.15 32.2 67.25 31.85 68.25 31.35 L69.75 30.6 Q70.8 29.95 70.9 29.2 71.05 28.2 70.4 27.95 69.65 27.7 69.0 28.2 68.9 29.45 68.4 29.7 L67.65 29.6 Q67.25 29.05 67.0 29.05 66.25 28.95 65.9 29.45 L65.25 30.85 Q64.75 31.7 63.85 31.85 L62.25 32.35 61.25 33.2 Q60.6 33.6 60.7 32.35 60.7 31.7 62.1 30.85 63.35 30.1 63.25 29.3 63.1 28.2 62.25 29.05 L61.25 30.45 60.35 30.85 59.35 30.95 Q58.6 31.85 58.1 31.7 L57.35 31.2 56.7 30.35 58.35 29.05 58.6 28.95 58.2 28.7 56.55 27.55 Q55.3 27.3 57.45 27.05 59.35 26.8 59.95 27.7 60.2 27.95 58.6 28.95" fill="#ffffff" fill-rule="evenodd" stroke="none"/>
    <path d="M56.95 40.25 L58.1 40.25 Q60.1 40.25 59.7 40.65 L58.1 41.25 Q56.85 41.65 56.45 42.25 L55.7 44.05 Q55.05 45.05 54.2 44.55 53.95 43.4 54.95 42.15 L56.55 40.5 56.95 40.25 Q56.55 40.15 56.85 40.0 L57.2 39.9 Q57.7 39.0 57.6 38.5 L57.35 37.85 58.6 37.85 Q59.6 37.75 60.35 37.0 L62.0 35.35 Q63.0 34.5 64.0 34.5 65.35 34.6 65.6 34.85 66.5 35.25 66.4 36.25 66.15 37.5 64.25 37.75 L63.25 39.0 Q62.6 39.75 61.85 39.15 L61.75 38.35 Q61.75 38.0 61.1 37.85 60.7 37.75 60.2 38.1 L59.45 38.9 58.2 39.5 57.2 39.9 56.95 40.25 M57.1 37.35 L56.55 37.6 56.05 37.85 55.45 38.65 Q55.2 39.15 54.7 39.25 L52.95 38.9 Q52.3 39.15 52.2 39.5 L51.9 40.5 51.3 41.0 50.55 41.15 Q50.55 42.15 50.15 43.3 49.55 44.65 48.9 43.8 48.4 43.4 48.9 42.15 L49.55 40.5 Q50.05 38.35 50.65 37.75 L52.3 37.6 53.8 37.75 53.8 38.0 Q54.05 36.6 55.3 36.6 L57.6 36.85 Q58.2 36.85 57.1 37.35" fill="#ffffff" fill-rule="evenodd" stroke="none"/>
    <path d="M76.3 30.85 L77.2 28.55 Q77.8 28.05 78.95 28.2 L80.1 26.8 Q80.7 26.05 81.2 27.2 L81.2 28.55 80.95 29.85 Q80.85 30.1 79.95 30.35 79.3 30.45 79.2 31.2 79.05 31.6 79.45 32.45 79.7 33.2 79.45 33.7 L78.7 34.25 Q78.2 34.25 77.95 34.5 77.7 34.85 77.3 37.0 77.05 38.9 76.05 38.75 L75.95 36.5 Q75.8 35.35 74.8 36.5 74.3 37.0 74.15 38.35 L73.8 40.5 Q73.15 44.55 71.65 43.15 71.3 42.65 71.9 41.65 72.65 40.65 72.15 39.9 70.65 40.75 70.25 41.75 L69.75 43.4 Q69.5 44.3 68.9 44.4 L69.15 41.65 Q68.4 41.4 68.25 42.4 L67.9 43.8 Q67.0 43.9 66.75 44.3 66.75 45.15 66.4 45.55 L65.5 46.15 Q64.75 46.55 64.5 47.15 L64.0 48.55 Q63.6 49.3 62.85 48.55 62.5 48.05 62.85 47.05 L63.35 45.55 Q63.0 43.8 61.35 45.15 59.85 46.65 58.7 45.9 57.95 45.4 58.35 44.9 58.7 44.55 59.35 44.4 L60.1 44.4 Q60.6 44.4 60.85 44.05 61.25 43.65 61.5 42.5 62.25 41.5 64.25 41.0 L65.75 41.0 67.15 40.5 Q67.65 40.15 67.9 39.0 68.25 37.75 68.65 37.35 69.15 36.85 70.25 36.6 L71.8 36.0 74.3 34.0 Q75.8 32.95 76.3 30.85" fill="#ffffff" fill-rule="evenodd" stroke="none"/>
    <path d="M80.1 33.1 L80.45 31.45 Q80.7 30.7 81.45 30.6 L82.85 30.85 Q83.95 31.2 84.1 31.7 84.5 32.7 82.85 32.85 81.2 32.85 81.45 34.25 L82.1 36.0 81.45 37.35 Q81.2 38.65 81.7 39.15 82.6 39.9 82.7 40.4 83.2 41.9 82.35 41.4 L80.95 40.5 Q79.95 40.25 79.85 41.25 L79.6 43.05 Q79.45 43.55 78.7 43.9 78.55 44.15 78.55 45.65 L78.3 47.55 Q77.95 48.45 77.2 47.55 76.8 47.05 76.95 45.9 77.05 44.8 76.55 44.15 L75.8 45.3 Q75.2 45.9 74.65 45.55 73.15 44.55 74.55 42.75 L75.8 41.9 76.05 40.75 77.8 38.65 78.2 37.1 78.7 35.5 80.1 33.1" fill="#ffffff" fill-rule="evenodd" stroke="none"/>
    <path d="M72.55 51.3 L74.05 49.55 Q74.8 48.3 75.45 47.95 L77.2 48.05 Q78.2 48.45 78.8 47.8 L79.45 47.05 Q79.85 46.55 80.2 46.65 80.95 46.8 80.35 48.2 L79.2 48.95 78.3 50.05 77.2 51.05 Q76.55 51.7 76.45 52.35 76.3 52.85 76.3 54.2 76.05 55.35 75.05 55.1 74.05 54.85 74.55 53.95 75.3 53.1 75.3 52.7 75.55 51.3 74.8 51.8 L73.8 52.85 72.4 53.35 Q71.55 53.6 71.3 54.35 L71.15 56.2 Q71.05 57.35 70.25 57.6 69.25 58.0 69.4 57.1 L69.65 55.6 Q69.75 54.35 69.0 54.7 68.4 54.95 67.9 55.7 67.4 56.45 66.5 56.6 L65.1 57.0 Q64.75 57.25 64.1 58.35 63.5 59.35 62.75 59.5 L61.25 59.25 Q60.35 59.0 59.6 59.5 L59.2 60.25 Q57.7 61.25 57.2 62.75 56.95 63.9 56.05 64.25 55.2 64.5 55.3 63.0 L55.8 61.1 Q55.95 59.75 54.8 60.0 L54.05 61.0 Q53.05 61.0 52.55 61.5 L51.8 62.75 Q51.3 63.25 50.55 62.75 49.65 62.15 49.8 61.1 49.9 60.25 50.55 59.5 51.4 58.6 53.2 58.5 L56.2 58.5 57.95 58.35 Q58.7 58.1 59.35 57.5 59.95 56.85 60.95 56.6 L62.6 56.1 64.35 54.95 Q65.35 54.2 66.15 53.95 L68.9 53.1 Q69.25 51.95 70.55 51.8 L72.55 51.3" fill="#ffffff" fill-rule="evenodd" stroke="none"/>
    <path d="M80.2 49.05 Q80.95 48.7 81.2 49.55 81.45 50.45 81.1 51.2 L80.2 52.45 Q80.1 53.1 80.35 54.35 80.45 55.35 79.7 56.1 79.2 57.25 79.45 57.75 L80.35 58.35 Q80.95 58.6 81.1 59.0 81.2 59.75 79.85 60.5 79.05 61.1 79.45 62.5 79.85 64.0 79.3 64.65 78.95 65.15 78.45 65.25 77.7 65.4 77.55 64.65 L77.8 63.5 Q77.8 62.75 77.2 62.9 L76.55 63.75 75.8 63.9 Q75.55 64.0 75.05 65.0 L74.15 65.9 Q73.55 66.05 73.4 65.4 73.3 64.75 73.65 64.4 L74.8 63.9 75.45 62.9 Q75.7 61.9 75.95 61.65 L77.05 61.0 Q78.2 59.1 76.55 58.5 76.2 59.35 75.95 59.25 L75.7 59.0 75.7 58.6 Q75.45 57.85 75.05 58.0 74.8 58.1 74.8 58.5 L74.95 59.0 74.3 59.25 Q73.8 59.25 73.55 59.75 L73.3 60.75 Q73.05 61.5 72.55 61.25 72.3 61.1 72.15 60.1 72.15 59.25 71.4 59.6 L70.65 60.25 69.65 60.25 Q69.15 60.5 68.9 61.25 68.65 62.0 68.25 62.15 67.65 62.4 67.5 62.75 L67.0 63.75 Q66.5 64.25 66.0 63.75 65.5 63.25 65.6 62.5 65.75 61.5 67.4 61.1 68.25 60.85 68.4 60.6 L68.65 59.75 Q68.9 58.75 70.25 59.1 L70.9 58.35 71.8 58.5 72.3 57.75 Q72.4 57.1 72.8 56.85 L74.55 57.0 Q75.7 56.6 76.3 55.7 L76.8 54.45 Q77.05 53.6 77.55 53.35 77.95 53.1 78.7 52.7 79.2 52.35 79.3 51.55 79.7 49.2 80.2 49.05" fill="#ffffff" fill-rule="evenodd" stroke="none"/>
    <path d="M55.05 67.55 L56.45 67.4 57.45 66.05 Q58.2 65.25 58.6 66.55 58.95 67.65 57.85 68.15 56.45 68.8 56.3 69.4 L55.95 70.3 55.05 70.8 Q54.8 71.2 54.95 71.95 L54.8 73.05 Q54.55 73.95 53.8 73.7 53.3 73.7 53.3 73.45 L53.05 72.8 Q52.7 72.05 52.3 72.3 L51.65 73.05 51.05 73.45 50.8 74.7 Q50.65 75.1 50.15 74.95 49.65 74.95 49.4 74.45 48.8 73.2 50.05 72.3 51.05 71.7 52.2 71.55 53.05 71.3 53.7 70.45 55.3 69.65 54.7 69.05 54.45 68.9 53.8 69.3 53.2 69.65 52.8 69.3 52.2 68.9 52.55 68.3 52.8 67.8 53.3 67.8 L55.05 67.55" fill="#ffffff" fill-rule="evenodd" stroke="none"/>
    <path d="M78.3 68.05 L78.8 67.3 Q80.2 66.3 80.45 67.55 80.7 68.3 80.1 68.55 L79.05 68.9 78.45 69.65 Q78.3 69.9 77.3 70.15 75.3 71.2 75.3 71.8 L76.05 71.7 76.7 71.8 Q77.2 72.3 76.3 73.05 75.8 73.55 74.8 73.8 L73.3 73.7 Q73.05 73.95 73.15 74.2 L73.55 74.85 Q73.8 75.45 73.15 75.95 L72.55 76.1 71.8 76.95 Q70.8 78.45 70.25 78.2 69.75 77.95 70.0 77.35 L70.55 76.45 Q70.8 75.85 70.55 75.6 70.25 75.2 69.75 75.45 69.25 75.7 68.9 76.45 L68.25 77.7 67.0 77.85 66.25 78.2 64.85 78.7 64.1 80.0 Q64.0 80.6 63.5 81.1 62.85 81.75 62.35 81.35 62.1 81.25 62.0 80.6 61.85 80.1 61.25 80.35 59.95 80.5 60.2 82.1 60.45 84.15 59.2 84.15 58.7 84.0 58.45 83.6 58.35 83.0 57.95 82.75 57.35 82.25 56.45 83.75 55.7 85.4 54.8 84.75 53.8 84.0 55.55 83.1 L56.2 82.5 Q56.55 82.0 56.85 81.85 L57.7 81.5 57.95 80.75 Q58.1 79.85 58.45 79.75 L59.45 79.75 Q60.2 80.0 61.1 78.7 61.35 78.2 62.0 78.1 L63.1 77.6 63.75 76.6 Q64.1 76.1 64.85 76.2 65.1 76.2 65.9 76.7 L66.9 76.85 67.65 76.1 Q67.65 75.45 66.9 75.35 L66.25 75.45 Q65.9 75.45 65.9 74.95 66.0 74.7 66.65 74.3 L67.9 72.7 69.75 71.7 Q70.55 70.95 72.15 71.2 73.05 71.2 73.3 70.8 L73.9 69.65 75.2 69.65 76.3 69.55 78.3 68.05" fill="#ffffff" fill-rule="evenodd" stroke="none"/>
    <path d="M78.3 70.8 Q78.55 69.8 79.7 69.15 L81.6 68.05 Q82.45 67.65 82.45 68.3 82.45 68.8 81.95 69.55 81.45 70.05 81.85 70.8 L82.45 71.95 Q82.45 72.8 81.7 72.8 81.2 73.05 80.7 72.3 80.35 71.7 79.95 71.8 79.6 71.95 79.3 72.8 L78.7 74.05 Q78.05 74.45 77.55 74.05 76.95 73.8 77.05 72.95 L77.7 71.8 Q78.3 71.2 78.3 70.8" fill="#ffffff" fill-rule="evenodd" stroke="none"/>
    <path d="M68.5 80.35 L69.0 79.75 Q69.5 79.2 69.9 79.85 70.25 80.6 69.75 81.1 69.0 81.35 68.75 81.75 L68.15 82.6 Q67.65 83.1 67.15 82.6 66.5 82.1 66.9 81.35 67.0 81.0 67.65 80.85 L68.5 80.35" fill="#ffffff" fill-rule="evenodd" stroke="none"/>
    <path d="M79.3 84.0 Q79.6 85.25 78.95 85.9 78.05 86.15 77.8 86.5 L77.8 88.15 Q77.8 89.15 76.95 89.4 75.95 89.65 75.45 88.8 75.05 88.15 75.55 87.4 76.05 86.65 75.95 86.0 L75.05 86.75 Q75.2 88.0 74.8 88.25 L73.8 88.25 Q73.15 88.15 73.3 89.05 L73.55 90.05 Q73.65 90.65 73.3 91.05 72.8 91.55 71.8 90.3 71.3 89.4 70.9 89.55 70.65 89.65 70.55 90.05 L70.15 90.55 Q69.65 90.8 69.25 90.3 68.9 89.9 69.15 89.3 L70.0 88.4 Q70.55 87.75 70.25 87.5 69.75 87.15 69.25 87.75 L68.65 88.65 67.5 88.8 Q66.9 88.9 66.75 89.65 67.15 90.9 66.5 91.65 65.5 91.15 65.1 91.15 64.6 91.3 64.0 92.15 L62.75 93.05 Q61.5 93.05 61.85 91.8 62.25 90.9 64.1 90.55 66.15 89.15 65.75 88.55 65.25 87.9 64.0 89.15 L63.25 89.8 62.1 89.65 Q61.6 89.3 60.95 89.8 60.35 90.4 60.45 90.8 L61.25 91.3 Q61.25 91.65 60.7 91.9 59.7 92.05 59.35 92.8 58.45 95.3 57.6 93.95 L57.85 93.45 57.6 92.95 57.95 91.55 Q57.85 91.05 57.35 90.9 56.7 90.65 56.3 91.05 56.3 92.55 55.55 92.95 54.8 93.45 54.45 92.95 L53.55 91.65 Q52.95 91.3 52.45 91.8 L52.2 92.4 51.65 92.4 50.65 92.55 50.15 93.95 Q49.65 94.8 49.05 94.3 L48.55 93.3 Q47.8 92.8 47.15 93.05 L46.25 93.55 Q45.65 93.7 45.5 93.05 45.4 92.4 45.75 92.05 47.15 90.65 48.15 91.3 L49.05 92.05 Q49.55 92.4 50.05 92.05 L50.8 91.15 51.8 91.05 52.45 90.4 53.55 90.15 55.7 90.3 56.3 89.3 Q56.55 88.8 57.6 88.8 L59.7 89.05 Q60.45 88.8 60.6 88.15 L60.95 86.9 Q61.35 86.25 62.1 86.75 62.5 87.0 62.5 87.65 L63.5 87.75 64.0 86.75 Q64.5 86.0 65.1 86.25 L65.5 87.0 Q66.15 87.5 66.9 86.25 67.25 85.65 67.65 85.65 L68.65 85.9 69.75 85.65 70.55 84.75 Q70.8 84.5 71.9 85.25 L72.15 84.75 72.65 83.9 Q73.15 83.5 73.55 84.0 L73.65 84.9 Q73.65 85.5 74.05 85.65 74.3 85.75 75.3 84.25 75.95 83.5 76.8 83.6 77.8 83.9 77.45 84.75 78.95 83.25 79.3 84.0" fill="#ffffff" fill-rule="evenodd" stroke="none"/>
    <path d="M46.25 96.3 L46.9 96.3 47.55 96.05 48.05 95.05 Q48.55 94.95 49.05 96.05 L49.4 96.05 49.65 95.7 50.15 95.8 51.15 95.95 51.8 95.2 Q52.7 94.7 52.8 95.7 52.95 96.7 52.05 96.95 L51.55 96.95 51.05 97.2 50.05 97.3 Q49.8 97.45 49.8 98.2 49.8 99.35 49.05 99.1 48.8 98.95 48.65 98.2 48.65 97.6 48.3 97.45 L47.55 97.85 46.65 98.1 46.15 98.95 Q45.65 99.45 45.15 98.7 44.65 97.95 45.15 97.6 L45.9 97.05 46.25 96.3" fill="#ffffff" fill-rule="evenodd" stroke="none"/>
    <path d="M54.45 96.55 L54.45 97.05 54.95 96.55 54.95 95.95 55.3 95.7 55.55 95.7 55.7 95.45 56.2 94.55 Q56.45 94.05 56.95 94.3 57.6 94.55 57.6 95.2 L56.95 95.7 56.3 96.45 55.55 96.8 55.2 98.1 Q54.8 98.95 54.2 98.2 54.05 97.3 53.55 97.45 L52.95 98.45 Q52.45 98.85 52.2 98.2 52.05 97.7 52.3 97.2 52.55 96.8 53.45 96.3 53.8 95.7 54.05 95.7 54.7 95.7 54.45 96.55" fill="#ffffff" fill-rule="evenodd" stroke="none"/>
    <path d="M55.05 101.35 L55.95 100.95 Q56.55 101.2 55.95 101.85 L55.05 102.5 54.05 102.85 53.55 103.35 53.2 103.75 Q52.95 104.0 52.55 103.75 52.3 103.5 52.3 103.1 52.2 102.75 53.2 102.1 L53.8 102.0 54.05 101.2 55.05 101.35" fill="#ffffff" fill-rule="evenodd" stroke="none"/>
    <path d="M56.95 103.75 L57.85 103.35 Q58.45 103.25 58.7 103.0 L59.2 102.35 59.85 102.25 Q60.6 102.35 60.35 103.6 60.1 104.25 59.6 104.1 L58.7 104.25 Q58.45 104.35 58.6 104.6 L58.6 105.0 57.85 105.85 Q57.2 106.0 57.1 106.35 56.95 106.75 49.9 109.75 L49.05 109.65 48.8 110.65 Q48.55 111.4 48.05 110.9 47.8 110.65 47.8 110.25 L47.9 109.65 55.05 106.65 Q55.3 106.1 55.7 106.1 L56.45 105.85 56.7 104.85 Q56.55 104.1 56.95 103.75" fill="#ffffff" fill-rule="evenodd" stroke="none"/>
    <path d="M47.4 112.55 Q47.55 112.05 48.15 111.9 L49.15 111.65 49.65 111.0 Q49.9 110.65 50.4 110.65 52.3 110.4 49.05 112.65 48.55 114.05 47.9 114.15 L46.65 114.65 45.75 115.7 Q45.4 115.95 44.5 116.2 L43.4 117.2 Q43.0 117.55 42.35 117.55 41.75 117.7 42.0 116.8 42.1 116.3 42.85 116.05 L44.15 115.55 45.0 114.8 45.9 113.9 47.15 113.55 47.4 112.55" fill="#ffffff" fill-rule="evenodd" stroke="none"/>
    <path d="M73.9 93.2 L75.45 92.05 76.95 92.15 Q77.45 92.95 76.55 93.8 75.55 94.55 74.95 94.45 74.4 94.45 73.65 95.3 73.15 95.8 72.8 95.7 72.3 95.7 72.4 94.95 72.65 93.7 73.9 93.2" fill="#ffffff" fill-rule="evenodd" stroke="none"/>
    <path d="M77.55 94.55 L76.95 95.2 Q76.55 95.45 76.3 94.7 75.95 93.7 77.05 93.2 78.05 92.15 78.55 92.95 78.95 93.3 78.8 93.8 78.8 94.3 78.3 94.45 L77.55 94.55" fill="#ffffff" fill-rule="evenodd" stroke="none"/>
    <path d="M78.95 90.15 L80.35 88.8 80.85 88.15 Q81.1 87.75 81.6 88.15 82.2 88.55 82.45 90.05 82.6 91.4 81.7 91.55 81.35 91.65 81.2 91.15 81.2 90.65 80.7 90.8 80.45 90.8 79.95 91.55 79.45 92.15 79.05 92.05 78.45 91.9 78.55 91.15 78.55 90.55 78.95 90.15" fill="#ffffff" fill-rule="evenodd" stroke="none"/>
    <path d="M81.6 78.95 Q81.2 79.35 80.95 78.95 80.7 78.6 80.85 77.95 80.95 77.35 81.45 76.7 82.1 76.1 82.6 76.1 83.7 76.1 83.95 78.1 84.1 80.25 82.95 80.0 82.35 79.85 82.6 79.2 L82.95 78.2 Q82.85 77.1 82.2 77.85 L81.6 78.95" fill="#ffffff" fill-rule="evenodd" stroke="none"/>
    <path d="M89.75 68.8 L90.15 68.65 90.4 68.15 90.65 67.15 Q90.9 66.55 91.4 66.55 92.0 66.65 92.25 67.9 92.5 69.3 93.15 69.4 L93.8 69.4 94.15 69.8 95.05 71.3 96.15 72.2 Q96.65 72.55 96.9 73.45 97.4 74.95 99.3 76.1 100.7 77.1 100.2 78.7 99.55 80.25 98.7 79.5 L98.3 78.95 98.3 78.35 98.05 77.7 97.55 77.7 Q96.9 77.6 96.65 77.35 L95.4 74.45 Q95.3 73.95 94.8 73.45 94.15 72.95 94.05 73.7 93.9 74.3 94.9 75.2 95.3 75.95 94.9 76.7 94.4 77.45 93.9 76.45 93.65 74.85 92.75 74.3 91.9 73.8 91.75 74.55 L91.75 76.2 91.15 76.95 Q91.0 77.1 90.75 78.2 L90.25 79.35 89.65 80.6 Q88.9 84.25 88.1 82.0 88.0 81.35 88.35 80.5 L89.15 79.2 Q89.5 77.35 88.5 77.2 88.0 77.1 87.75 77.95 L87.6 79.2 Q87.5 80.0 87.0 80.35 86.5 80.6 86.1 79.85 85.85 79.35 86.1 78.95 L86.35 78.2 86.25 77.2 Q86.25 76.35 88.1 74.55 89.9 72.95 89.4 71.55 88.9 70.95 88.9 70.15 88.9 69.3 89.75 68.8" fill="#ffffff" fill-rule="evenodd" stroke="none"/>
    <path d="M82.6 54.6 L83.45 53.1 83.85 50.8 Q84.6 48.05 84.85 48.05 85.35 48.05 85.75 50.55 L86.85 51.8 Q87.35 52.35 87.5 53.35 87.5 55.6 86.25 55.6 L85.85 53.7 Q85.6 52.85 84.75 52.6 85.0 53.35 84.75 53.6 L84.25 54.2 Q83.95 54.85 84.6 56.35 85.5 58.5 84.25 58.75 83.2 59.0 82.95 57.1 82.6 55.45 82.6 54.6" fill="#ffffff" fill-rule="evenodd" stroke="none"/>
    <path d="M90.25 53.1 Q89.9 52.45 88.35 51.8 87.0 51.2 86.75 50.3 86.6 49.8 86.85 49.2 87.1 48.55 87.5 48.55 88.0 48.45 88.25 49.2 L88.65 50.45 Q88.9 50.7 91.0 51.55 92.25 52.2 93.0 53.85 L94.8 56.2 95.65 57.6 Q95.8 58.1 95.3 59.0 L95.55 60.25 Q95.55 61.0 94.8 60.85 93.55 60.75 93.55 58.75 93.8 57.85 93.55 57.6 93.3 56.85 92.5 57.1 92.75 58.0 92.25 58.5 L91.9 58.5 91.5 58.35 Q91.0 58.5 90.9 58.75 L90.5 59.5 Q90.25 60.1 89.9 59.85 89.4 59.75 89.15 59.0 88.9 58.25 89.15 57.85 L89.75 57.0 Q90.0 56.6 89.9 55.95 L89.9 54.85 Q90.65 53.85 90.25 53.1" fill="#ffffff" fill-rule="evenodd" stroke="none"/>
    <path d="M98.05 59.35 L98.2 58.6 98.8 59.1 99.3 59.75 Q99.8 60.35 100.95 60.6 101.55 60.75 102.6 62.4 102.95 63.0 104.45 64.0 105.85 65.0 105.2 66.4 104.6 67.8 103.45 66.15 L102.6 63.75 Q102.05 62.4 100.95 62.4 101.55 64.0 100.2 63.75 L99.45 63.25 98.8 63.25 98.05 62.75 Q97.65 62.15 97.95 61.75 L98.45 61.65 Q98.8 61.75 98.95 61.5 L98.2 60.6 Q97.8 60.25 98.05 59.35" fill="#ffffff" fill-rule="evenodd" stroke="none"/>
    <path d="M94.9 68.55 L95.55 68.55 96.9 70.45 Q97.8 71.05 99.05 72.8 99.7 73.2 100.45 73.45 101.55 73.7 101.3 72.8 101.2 72.3 100.45 72.2 L99.2 71.8 98.2 70.45 Q96.55 68.4 96.3 67.3 95.9 66.05 96.55 65.9 97.05 65.8 97.65 66.55 98.45 67.55 99.05 69.8 99.45 70.45 100.3 70.45 L101.8 70.7 102.85 71.7 104.2 71.95 106.1 71.8 107.35 72.8 108.5 72.7 109.5 71.7 Q110.5 70.8 110.85 71.55 L111.75 73.05 Q112.65 73.7 115.0 71.8 117.05 70.3 117.65 71.55 118.05 72.45 117.3 73.3 116.55 74.2 115.75 74.05 L115.0 73.8 Q114.65 74.45 114.15 74.55 L113.25 74.2 112.5 74.55 111.0 74.7 110.0 75.35 109.0 75.1 108.0 74.7 106.85 74.7 Q105.7 73.55 104.85 73.55 103.85 73.55 104.1 74.3 104.2 74.7 105.2 74.7 107.75 75.1 107.5 76.35 107.35 77.1 106.7 76.95 L105.7 76.7 104.95 76.95 Q104.6 76.85 104.2 76.1 103.2 74.3 102.45 74.45 103.35 75.7 102.45 76.1 102.05 76.2 101.3 75.1 100.7 74.3 100.05 74.2 L98.95 73.45 Q98.3 72.45 97.65 72.2 96.55 72.05 96.3 71.55 L95.9 70.8 95.15 70.3 94.65 69.4 Q94.4 68.65 94.9 68.55" fill="#ffffff" fill-rule="evenodd" stroke="none"/>
    <path d="M87.25 34.25 Q87.75 33.35 87.35 32.6 L86.25 31.6 Q85.25 30.85 85.35 30.1 85.5 29.3 86.1 29.2 86.75 29.05 87.25 29.45 88.0 30.1 88.75 31.95 L90.15 32.6 Q91.15 32.85 91.4 33.45 91.75 34.1 91.5 34.75 91.25 35.25 90.75 35.1 L90.25 34.85 Q89.9 34.6 89.65 35.1 89.65 36.1 89.25 36.5 88.75 36.85 87.85 36.0 87.1 35.1 87.25 34.25" fill="#ffffff" fill-rule="evenodd" stroke="none"/>
    <path d="M88.5 30.95 Q87.6 29.95 88.0 27.55 88.1 26.8 88.35 26.8 L89.15 27.3 90.25 27.55 Q91.0 27.55 91.4 27.95 91.9 28.3 92.25 29.45 L93.65 29.6 Q94.55 29.7 95.15 30.45 L96.15 32.1 Q96.65 32.6 97.8 32.95 98.95 33.2 99.3 33.7 100.7 35.75 99.45 36.6 98.8 37.25 98.2 36.6 L97.15 35.25 Q96.8 34.75 95.9 34.35 L94.65 33.35 93.8 31.6 Q93.0 30.35 92.4 30.85 92.65 31.45 92.5 31.95 92.4 32.6 91.9 32.35 L91.0 31.6 Q90.65 31.1 90.15 31.2 89.5 31.6 89.4 31.7 89.0 31.7 88.5 30.95" fill="#ffffff" fill-rule="evenodd" stroke="none"/>
    <path d="M94.05 87.65 Q94.4 86.9 94.15 86.25 L93.15 85.5 Q92.25 85.0 92.4 84.4 92.65 83.0 94.05 83.75 94.8 84.25 95.4 85.75 L96.55 86.15 Q97.4 86.4 97.65 86.9 L97.8 87.75 97.05 88.25 96.55 88.0 Q96.3 87.9 96.05 88.15 96.15 89.05 95.8 89.3 95.3 89.55 94.55 88.9 93.9 88.25 94.05 87.65" fill="#ffffff" fill-rule="evenodd" stroke="none"/>
    <path d="M95.15 85.0 Q94.3 83.6 94.8 82.25 94.9 81.6 95.15 81.75 L95.8 82.1 96.65 82.25 97.8 82.5 98.55 83.6 99.7 83.75 Q100.45 83.9 100.95 84.4 L101.95 85.65 103.35 86.25 Q104.35 86.5 104.7 86.9 105.85 88.25 104.85 89.15 104.2 89.55 103.6 89.15 L102.7 88.0 Q102.45 87.65 101.7 87.4 100.95 87.15 100.55 86.65 L99.8 85.25 Q99.2 84.4 98.55 84.75 99.05 86.25 98.05 85.9 97.3 85.0 96.55 85.15 L95.9 85.5 95.15 85.0" fill="#ffffff" fill-rule="evenodd" stroke="none"/>
    <path d="M90.0 98.6 Q89.15 97.7 89.5 95.8 89.75 95.05 90.5 95.7 L91.5 95.8 92.65 96.05 93.4 97.2 94.55 97.3 Q95.3 97.45 95.8 97.95 L96.8 99.2 Q97.15 99.6 98.2 99.85 L99.45 100.45 Q99.95 100.95 100.05 101.6 100.2 102.35 99.7 102.75 98.8 103.35 97.55 101.7 L96.55 100.95 95.4 100.35 94.65 98.85 Q94.05 97.95 93.4 98.35 93.9 99.85 92.9 99.6 92.15 98.6 91.4 98.7 L90.75 99.1 90.0 98.6" fill="#ffffff" fill-rule="evenodd" stroke="none"/>
    <path d="M90.25 99.2 Q89.4 98.35 89.75 96.55 89.9 95.95 90.15 95.95 L90.75 96.3 91.75 96.55 92.9 96.7 93.65 97.95 94.8 97.95 Q95.55 98.1 96.05 98.7 L97.05 99.85 Q97.4 100.35 98.45 100.45 L99.7 101.1 Q100.2 101.6 100.3 102.25 100.3 103.0 99.8 103.35 98.95 104.1 97.8 102.35 97.55 102.0 96.8 101.7 96.05 101.45 95.65 100.95 L94.9 99.6 Q94.15 98.7 93.65 98.95 94.15 100.45 93.15 100.2 L92.4 99.7 Q92.0 99.35 91.65 99.45 L91.0 99.7 Q90.65 99.85 90.25 99.2" fill="#ffffff" fill-rule="evenodd" stroke="none"/>
    <path d="M91.65 43.4 L90.0 41.9 Q88.9 40.75 89.4 39.9 89.9 38.9 90.9 39.65 91.25 39.9 91.25 40.75 91.4 41.5 91.65 41.75 92.0 42.15 93.15 42.25 93.65 42.5 94.05 43.4 94.4 44.4 94.8 44.55 95.3 44.65 96.05 43.9 96.65 43.9 97.15 44.8 98.05 44.9 97.55 44.05 L96.65 42.75 Q96.3 41.9 96.65 41.5 L97.65 41.4 99.05 42.15 99.55 41.9 99.45 41.15 Q99.3 39.65 100.05 39.4 100.95 39.15 101.45 40.5 101.8 41.65 102.2 41.9 L103.95 42.15 Q104.7 42.5 104.7 43.55 104.7 44.4 103.85 44.4 103.7 44.4 102.45 43.4 101.45 42.65 101.2 43.4 100.7 44.8 103.45 45.3 106.45 45.65 106.2 47.05 105.95 48.7 103.35 47.05 102.2 45.9 101.7 45.9 101.05 45.8 101.05 46.05 L101.2 46.8 Q101.45 48.05 100.95 47.95 L99.7 47.3 Q98.8 46.8 98.7 47.4 L98.45 49.05 Q97.4 48.8 97.05 47.95 97.05 46.55 96.65 46.15 96.3 45.4 95.05 45.4 94.65 45.4 94.15 45.8 L93.4 46.05 92.4 44.9 91.65 43.4" fill="#ffffff" fill-rule="evenodd" stroke="none"/>
    <path d="M105.95 61.9 L104.45 60.5 Q103.45 59.5 103.95 58.75 104.2 58.35 104.6 58.25 105.1 58.25 105.35 58.5 105.7 58.75 105.7 59.5 L106.1 60.35 107.5 60.75 108.25 61.9 Q108.6 62.75 109.0 62.9 109.5 63.0 110.1 62.25 110.6 62.25 111.1 63.15 112.0 63.25 111.5 62.4 L110.75 61.25 Q110.35 60.35 110.6 60.1 L111.65 60.0 Q112.15 60.1 113.0 60.75 L113.5 60.35 113.4 59.75 Q113.4 58.35 114.15 58.1 114.75 57.85 115.25 59.1 115.65 60.1 116.05 60.35 L117.65 60.6 Q118.3 60.85 118.15 61.75 118.15 62.65 117.4 62.65 L116.3 61.75 Q115.25 61.1 115.0 61.75 114.5 63.15 117.15 63.4 119.9 63.75 119.65 65.0 119.3 66.4 116.9 65.0 115.9 64.15 115.4 64.0 114.75 63.9 114.75 64.15 L114.9 64.9 Q115.15 66.05 114.65 65.9 L113.5 65.25 Q112.75 64.75 112.65 65.5 L112.25 66.9 Q111.35 66.9 111.0 66.05 111.0 64.75 110.6 64.25 110.5 64.0 109.1 63.65 108.75 63.65 108.35 64.0 107.85 64.4 107.6 64.25 107.35 64.25 105.95 61.9" fill="#ffffff" fill-rule="evenodd" stroke="none"/>
    <path d="M100.95 32.7 L99.8 32.95 Q99.3 32.7 99.3 32.45 L99.05 31.7 98.7 30.7 Q98.7 30.35 99.3 30.35 99.7 30.35 100.05 30.85 100.45 31.1 101.2 30.85 L101.95 30.95 102.7 31.85 104.45 31.95 Q105.45 32.2 105.6 33.6 105.6 35.0 104.2 35.0 103.6 35.0 102.6 33.45 101.95 32.35 100.95 32.7" fill="#ffffff" fill-rule="evenodd" stroke="none"/>
    <path d="M103.2 37.0 Q102.45 36.75 102.2 36.5 101.55 36.1 102.05 35.5 L103.35 35.6 104.6 36.5 Q106.6 37.25 105.35 38.1 104.7 38.65 104.2 38.0 L103.2 37.0" fill="#ffffff" fill-rule="evenodd" stroke="none"/>
    <path d="M106.2 15.35 Q106.7 15.75 104.95 17.75 103.2 19.5 103.6 19.5 L105.2 19.0 Q105.95 18.75 106.6 19.65 L107.6 20.9 108.25 20.8 108.6 20.15 Q110.0 19.0 111.9 20.4 112.65 20.9 113.4 20.8 114.4 20.65 114.9 20.8 115.4 20.9 116.15 21.15 L116.9 20.55 Q117.15 20.0 117.55 19.9 118.15 19.65 119.05 20.4 119.8 21.05 120.4 20.9 L122.3 20.25 Q123.3 20.15 124.2 20.8 L125.95 22.3 Q127.2 23.4 126.85 24.15 126.1 25.95 124.2 22.8 123.05 20.55 121.45 21.4 120.7 21.65 119.3 23.4 117.9 25.2 117.3 25.2 L116.15 24.3 115.0 22.9 Q112.4 20.9 113.15 23.3 L114.0 24.4 Q114.75 25.05 114.5 25.8 114.4 26.8 113.5 26.55 112.9 26.3 112.5 25.7 112.15 23.65 111.5 23.4 111.1 23.8 110.75 23.8 110.1 23.9 109.6 23.05 L109.1 22.4 108.6 22.3 Q108.35 22.3 108.25 22.8 108.0 23.3 108.1 23.65 108.25 24.65 109.85 25.55 L110.25 26.05 110.0 26.8 Q109.35 27.8 108.25 26.95 107.5 26.45 107.25 25.55 L107.0 23.65 Q106.7 22.65 106.2 22.9 106.1 22.9 105.35 23.65 104.95 21.9 104.45 21.3 104.1 20.55 103.2 20.65 L101.8 21.15 Q101.05 21.4 102.35 19.4 L104.7 15.75 105.1 15.25 106.2 15.35" fill="#ffffff" fill-rule="evenodd" stroke="none"/>
    <path d="M88.9 8.45 L89.25 8.6 Q89.5 9.35 89.9 9.7 90.25 10.2 90.15 9.1 89.5 8.2 89.4 7.7 89.25 6.95 89.5 6.45 89.9 5.95 90.4 6.2 91.0 6.45 91.5 7.85 L92.25 9.85 Q92.75 10.35 93.4 10.1 94.15 9.7 94.55 9.85 96.05 10.35 94.65 11.75 93.55 12.6 93.15 12.5 L92.65 11.85 92.15 10.95 Q91.4 10.2 91.0 10.7 90.75 11.35 91.4 12.25 L92.5 13.75 Q93.15 14.85 92.15 15.25 91.65 15.5 91.0 14.25 L90.15 12.5 89.0 10.7 Q88.35 9.45 88.9 8.45" fill="#ffffff" fill-rule="evenodd" stroke="none"/>
    <path d="M105.1 4.45 L99.45 4.8 98.2 5.05 96.8 3.55 Q96.05 2.55 95.3 2.95 95.55 5.3 94.65 4.55 L93.55 2.05 Q91.9 -0.7 91.5 -2.5 91.15 -5.5 91.65 -6.1 92.75 -7.25 93.15 -4.75 93.65 -3.0 94.3 -2.35 95.55 -1.35 96.55 0.55 97.55 3.05 98.3 3.3 L99.95 2.95 Q100.55 3.05 101.55 3.95 L103.1 4.05 104.7 4.3 105.1 4.45 106.35 4.3 107.6 4.2 108.85 4.3 109.85 5.55 Q112.0 6.2 111.35 6.45 110.75 6.85 110.0 5.8 L109.85 5.55 108.75 5.3 105.1 4.45" fill="#ffffff" fill-rule="evenodd" stroke="none"/>
    <path d="M93.3 -18.45 L93.65 -18.55 93.8 -18.8 Q93.65 -19.55 92.9 -19.8 92.0 -20.05 91.75 -20.45 91.0 -21.45 91.5 -22.85 91.75 -23.2 92.0 -23.1 L92.65 -22.6 94.8 -20.45 95.4 -18.05 Q95.65 -16.3 95.9 -15.9 L97.05 -15.65 Q98.2 -15.05 98.7 -14.3 L99.2 -12.55 Q99.45 -11.65 100.05 -11.0 102.2 -8.9 101.2 -8.25 101.05 -8.15 100.3 -8.9 L99.3 -9.9 98.2 -10.5 Q97.65 -11.0 97.55 -12.15 96.65 -15.8 95.55 -14.4 L95.9 -12.8 Q96.05 -11.8 95.15 -12.3 L94.05 -14.8 Q92.25 -16.55 92.15 -17.8 92.0 -18.8 92.4 -18.95 92.9 -19.05 93.3 -18.45" fill="#ffffff" fill-rule="evenodd" stroke="none"/>
    <path d="M89.65 -29.65 Q89.9 -29.75 90.15 -30.0 90.9 -29.65 91.65 -28.0 92.4 -26.1 93.0 -25.6 93.65 -25.25 95.65 -24.45 97.4 -23.7 97.55 -22.35 97.8 -20.2 96.15 -21.6 L95.05 -22.7 94.05 -22.7 Q93.55 -23.1 92.5 -25.35 L89.65 -29.65" fill="#ffffff" fill-rule="evenodd" stroke="none"/>
    <path d="M118.3 44.4 L119.4 45.15 Q120.05 45.65 120.4 45.65 120.95 45.8 121.8 45.05 122.3 45.05 122.95 45.4 L125.35 45.15 126.45 44.8 127.6 44.65 Q128.1 44.15 129.2 44.65 130.25 45.3 129.75 46.4 129.1 46.8 128.6 46.4 L127.7 45.65 126.6 45.8 Q125.95 46.3 126.2 46.9 125.7 47.7 124.8 47.55 L123.2 47.05 Q122.55 46.8 121.8 47.05 L120.4 47.3 Q119.8 47.3 119.15 46.55 118.4 45.55 117.9 45.4 116.9 44.9 117.15 45.8 L117.4 47.3 Q117.05 49.2 116.05 46.05 115.5 45.3 115.0 46.05 114.5 46.65 114.0 46.3 113.75 46.05 113.65 45.3 L113.5 44.3 Q112.75 43.3 112.65 42.5 112.9 42.5 115.0 43.8 L116.65 44.05 118.3 44.4" fill="#ffffff" fill-rule="evenodd" stroke="none"/>
    <path d="M102.95 51.8 L103.7 52.35 104.6 52.95 Q104.85 53.1 105.45 52.7 105.85 52.7 106.35 53.1 L107.5 52.7 Q108.25 52.35 108.75 52.7 L109.35 53.6 Q109.6 54.2 110.0 54.45 L111.0 54.7 Q111.75 54.95 111.75 55.45 111.65 56.2 110.75 55.7 L109.6 54.85 Q108.85 54.7 109.0 55.45 109.0 56.2 109.5 56.45 L110.6 56.85 Q111.25 57.1 110.75 57.75 110.35 58.25 109.35 57.6 108.35 57.1 108.0 56.45 L107.5 55.35 Q107.25 54.85 107.0 54.95 L106.35 54.95 Q105.95 54.1 105.6 53.95 L104.2 54.2 Q102.7 54.45 102.45 52.6 L102.95 51.8" fill="#ffffff" fill-rule="evenodd" stroke="none"/>
    <path d="M117.4 51.8 Q118.55 51.55 119.4 52.7 L121.05 54.6 121.95 54.95 122.95 54.6 Q123.8 54.35 125.45 54.6 L126.45 54.45 127.6 54.6 128.95 56.1 Q129.6 56.85 129.2 57.6 128.85 58.35 128.1 57.5 L127.2 56.2 Q126.7 55.7 125.95 55.85 126.2 57.6 125.7 57.75 125.2 58.0 124.7 57.1 L124.05 55.95 Q123.7 55.6 123.05 55.6 122.55 55.7 122.45 56.35 L122.45 57.6 Q122.45 58.25 121.7 58.0 121.05 57.75 120.7 57.0 L120.15 55.45 Q119.65 54.45 119.3 54.45 L118.9 54.95 118.8 55.45 Q118.4 55.7 118.3 55.45 L118.05 54.7 Q117.65 53.95 117.05 53.95 116.15 54.2 115.9 53.95 L115.4 53.35 115.15 52.95 114.65 53.1 Q114.15 52.6 114.4 52.1 114.5 51.45 114.75 51.55 L115.4 52.1 116.4 52.35 117.4 51.8" fill="#ffffff" fill-rule="evenodd" stroke="none"/>
    <path d="M128.1 59.75 Q127.6 59.25 128.1 59.1 128.6 58.85 128.95 59.35 L129.45 60.1 Q129.6 60.35 130.1 60.35 L131.1 60.25 132.1 60.35 133.0 61.0 134.25 60.75 Q136.15 60.1 136.15 61.25 136.25 61.75 135.5 61.75 134.65 61.75 134.5 62.15 L134.65 63.15 Q134.0 63.9 133.25 62.75 L132.5 61.75 Q132.0 61.25 131.5 61.9 L130.85 61.25 Q130.6 61.1 130.25 61.75 L129.6 62.65 Q129.35 62.9 128.95 62.15 129.1 60.75 128.6 60.5 128.1 60.25 128.1 60.75 127.95 61.0 127.95 61.5 L127.85 62.25 127.2 62.4 Q126.85 62.25 126.2 61.1 125.85 60.25 124.95 59.85 124.05 59.25 124.05 58.75 L125.7 58.85 127.35 59.85 128.1 59.75" fill="#ffffff" fill-rule="evenodd" stroke="none"/>
    <path d="M132.35 71.45 Q131.75 71.7 131.25 70.95 L130.35 70.05 Q128.6 69.4 127.7 69.55 L126.35 70.15 Q125.6 70.3 125.05 69.55 124.05 68.4 122.55 68.55 121.95 68.65 121.45 68.15 120.8 67.65 121.2 66.8 121.55 66.8 122.2 67.15 L123.05 67.3 124.05 66.9 Q124.45 66.8 124.95 67.4 L125.6 68.3 126.6 68.05 127.85 68.65 128.85 68.55 Q127.85 67.55 128.35 66.8 L129.45 67.3 Q130.1 67.55 130.5 67.9 L131.1 69.3 132.0 69.3 Q132.75 69.55 133.0 70.15 133.1 70.95 132.35 71.45" fill="#ffffff" fill-rule="evenodd" stroke="none"/>
    <path d="M118.65 78.95 Q119.3 78.6 119.8 79.35 120.4 80.25 120.8 80.25 L122.95 79.5 123.8 80.0 124.55 80.1 Q125.2 80.1 126.45 79.2 L127.6 79.2 Q128.2 79.5 128.1 80.25 L127.35 80.75 Q127.1 80.6 126.95 80.75 L126.7 81.5 Q126.2 82.0 125.45 81.5 124.7 80.85 124.3 81.0 123.8 81.6 123.45 81.5 122.95 80.5 122.45 80.75 L122.3 81.5 Q121.95 82.0 121.05 81.5 L120.3 81.1 Q120.05 81.0 119.9 81.6 L119.9 82.5 Q119.55 83.0 118.55 82.35 L117.55 80.75 Q117.55 80.6 115.65 80.1 114.15 79.6 114.5 78.6 114.75 77.85 115.25 78.2 L116.05 78.95 117.55 78.7 118.65 78.95" fill="#ffffff" fill-rule="evenodd" stroke="none"/>
    <path d="M112.75 84.0 L111.65 83.1 Q111.0 82.6 111.25 81.75 111.65 80.5 112.4 81.0 113.0 81.5 113.4 82.35 L115.0 83.5 Q116.65 85.0 115.65 85.0 115.25 85.15 114.4 83.75 113.65 84.15 114.15 85.0 L115.0 86.25 Q115.65 87.25 114.9 87.4 114.4 87.5 114.0 86.4 L113.15 85.25 Q113.15 84.4 112.75 84.0" fill="#ffffff" fill-rule="evenodd" stroke="none"/>
    <path d="M114.9 81.85 L115.5 81.5 Q116.3 81.75 117.15 83.0 L119.4 84.4 Q119.9 84.5 120.7 84.0 121.3 83.35 121.8 83.5 122.2 83.6 123.2 84.25 L124.45 84.15 124.7 83.35 125.2 83.1 Q125.7 82.85 126.7 83.1 L129.75 83.0 131.5 82.85 132.85 83.5 Q133.35 83.5 134.5 82.6 135.5 81.85 136.15 82.1 136.9 82.5 136.9 83.5 136.75 84.65 136.0 84.75 L134.9 84.65 Q134.4 85.25 133.85 85.15 133.5 84.4 133.0 84.65 132.85 85.4 132.5 85.5 132.25 85.65 131.35 85.0 130.6 84.25 130.0 84.75 130.35 85.25 130.1 85.75 129.85 86.25 129.35 86.0 L128.2 84.75 Q127.1 84.5 126.85 85.4 127.6 86.4 126.95 87.0 L126.2 86.25 Q125.6 85.75 125.35 86.4 L125.7 87.4 Q125.7 88.0 125.2 87.65 124.7 85.9 123.8 86.4 L124.05 87.15 124.05 87.9 Q123.55 88.8 122.7 87.5 122.2 86.5 121.7 86.15 121.45 85.9 121.2 85.9 L120.55 85.9 119.65 84.9 Q119.15 84.4 118.9 84.9 L118.3 85.65 Q117.55 86.0 117.3 85.25 L117.05 84.15 116.05 82.85 114.9 81.85" fill="#ffffff" fill-rule="evenodd" stroke="none"/>
    <path d="M96.4 92.65 L95.8 91.3 Q95.8 90.4 96.65 90.55 97.3 90.65 97.55 91.55 L98.05 92.95 98.8 93.05 99.45 92.4 Q99.95 91.9 100.2 92.05 L100.95 92.8 Q101.2 93.05 101.45 92.95 L101.95 92.65 103.45 92.65 Q104.35 92.95 104.35 93.55 104.35 94.2 103.45 94.05 L102.6 93.95 Q102.05 93.8 101.8 94.2 101.7 94.7 102.2 95.05 L103.6 95.3 Q104.6 95.2 105.1 95.55 105.6 95.8 105.7 96.45 105.85 97.05 105.2 97.2 104.85 97.3 104.2 96.55 103.6 95.8 103.1 95.8 101.8 95.95 101.2 95.45 99.45 93.7 98.8 94.8 100.05 96.8 98.7 96.3 97.4 95.7 97.15 94.3 L96.4 92.65" fill="#ffffff" fill-rule="evenodd" stroke="none"/>
    <path d="M111.75 95.05 Q111.0 94.3 110.25 94.7 L109.85 95.05 109.5 94.8 Q109.1 93.95 108.6 93.7 L107.6 93.7 Q105.35 94.05 104.85 93.3 104.35 92.55 105.1 92.55 L106.2 92.4 106.35 91.55 107.1 91.4 Q107.75 91.4 108.25 92.05 L109.0 92.95 Q109.5 93.2 110.25 92.65 110.75 92.15 111.35 92.8 L111.9 93.55 112.5 94.2 113.75 94.05 Q114.4 94.05 115.15 94.55 116.15 95.2 115.4 95.7 L114.4 95.55 113.5 96.2 Q113.0 96.3 111.75 95.05" fill="#ffffff" fill-rule="evenodd" stroke="none"/>
    <path d="M118.05 110.65 Q117.4 110.0 116.65 110.25 L116.3 110.5 115.75 110.4 Q115.4 109.5 114.9 109.25 L113.9 109.25 Q111.65 109.65 111.1 108.9 110.6 108.15 111.5 108.15 L112.5 108.0 112.65 107.15 Q112.75 107.0 113.4 107.0 114.0 107.0 114.5 107.65 L115.25 108.5 Q115.75 108.75 116.55 108.25 117.05 107.75 117.65 108.4 L118.8 109.75 120.05 109.65 Q120.7 109.65 121.45 110.15 122.45 110.75 121.7 111.3 L120.7 111.15 119.8 111.8 Q119.3 111.9 118.05 110.65" fill="#ffffff" fill-rule="evenodd" stroke="none"/>
    <path d="M120.05 96.7 L119.15 96.7 118.15 96.7 116.9 95.55 Q115.0 93.7 115.15 93.45 115.15 93.2 117.05 94.45 118.9 95.8 119.3 94.7 L119.8 93.7 120.4 93.45 121.3 94.3 Q121.7 95.05 122.2 95.05 122.45 95.05 123.3 94.45 123.95 94.05 124.55 94.45 L125.05 95.05 125.7 95.55 127.35 95.45 128.95 94.45 Q129.6 94.2 130.25 94.8 130.85 95.45 131.35 95.45 L133.0 94.95 Q134.0 94.45 134.5 94.7 135.25 95.05 134.9 95.7 L133.85 96.7 Q133.0 97.3 131.85 96.7 130.85 96.45 130.35 96.95 L129.85 97.45 129.2 97.3 Q128.45 96.95 128.1 97.05 127.85 97.85 127.2 97.85 126.85 97.85 126.35 97.2 125.85 96.7 125.2 96.95 125.2 97.7 124.55 97.95 124.05 98.2 123.55 97.95 123.05 96.7 122.2 96.8 122.05 98.1 121.3 97.6 L120.05 96.7" fill="#ffffff" fill-rule="evenodd" stroke="none"/>
    <path d="M125.2 109.75 L124.3 109.75 123.3 109.75 122.05 108.65 Q120.15 106.75 120.3 106.5 L122.2 107.5 Q124.05 108.9 124.45 107.75 L124.95 106.75 Q125.2 106.5 125.7 106.5 L126.45 107.4 Q126.85 108.15 127.35 108.15 L128.45 107.5 Q129.1 107.15 129.75 107.5 L130.25 108.15 130.85 108.65 132.5 108.5 134.1 107.5 Q134.9 107.25 135.4 107.9 136.0 108.65 136.5 108.65 136.9 108.65 138.15 108.0 139.15 107.5 139.65 107.75 141.05 108.4 139.15 109.75 138.15 110.4 137.0 109.75 136.0 109.5 135.5 110.0 L135.0 110.5 134.4 110.4 Q133.6 110.0 133.25 110.15 133.0 110.9 132.35 110.9 L131.5 110.25 Q131.0 109.75 130.35 110.0 130.35 110.75 129.75 111.0 129.2 111.3 128.7 111.0 128.2 109.75 127.45 109.9 127.35 111.15 126.6 110.65 L125.2 109.75" fill="#ffffff" fill-rule="evenodd" stroke="none"/>
    <path d="M75.2 99.2 L75.55 97.2 Q75.95 95.95 76.8 96.05 77.7 96.3 77.05 97.05 76.3 98.2 76.3 98.45 76.45 99.95 78.05 96.7 78.2 95.95 78.95 95.2 79.7 94.3 80.2 95.05 80.7 95.7 79.6 96.7 L78.45 99.6 77.7 100.45 77.2 101.6 Q76.55 102.6 76.2 102.25 76.3 101.45 76.05 101.2 75.8 100.85 75.3 101.35 L74.4 102.25 73.4 102.35 72.4 103.1 71.15 103.25 Q70.15 103.1 69.75 103.25 L68.65 104.25 Q67.75 104.85 67.25 104.25 66.75 103.5 67.5 103.25 L68.75 103.0 69.75 102.35 Q70.25 101.85 70.9 102.0 L72.15 102.0 73.05 101.35 73.9 100.1 Q74.05 99.95 74.65 99.7 L75.2 99.2" fill="#ffffff" fill-rule="evenodd" stroke="none"/>
    <path d="M84.6 93.45 L84.6 94.55 83.85 96.2 83.95 97.7 83.2 99.1 82.85 100.7 Q82.6 101.6 81.95 101.7 81.1 101.85 80.6 102.1 L79.45 103.25 78.05 103.6 76.8 105.0 Q75.45 105.85 75.05 105.75 74.4 105.35 74.95 104.6 75.3 104.0 75.8 103.85 L78.95 101.45 81.1 100.35 82.45 98.7 83.45 97.45 83.45 96.7 83.2 95.8 Q83.2 94.3 84.6 93.45" fill="#ffffff" fill-rule="evenodd" stroke="none"/>
    <path d="M130.85 107.4 L132.6 108.75 134.75 109.75 137.65 109.9 Q139.9 110.0 139.4 110.9 139.05 111.4 136.65 111.4 L134.0 111.3 Q131.25 109.65 130.85 108.0 L130.85 107.4" fill="#dcf1fc" fill-rule="evenodd" stroke="none"/>
    <path d="M-455.25 96.7 Q-410.95 90.9 -401.45 90.05 -370.85 87.2 -346.4 89.1 -321.95 91.1 -285.15 98.5 L-224.3 110.6 Q-152.8 122.8 -82.05 123.5 -12.65 124.15 59.7 113.75 126.2 104.25 227.9 110.5 L311.9 116.35 396.85 119.55 Q426.55 119.55 475.1 114.7 531.85 109.0 552.25 108.15 573.15 107.3 612.65 106.35 647.05 105.0 671.8 100.5 722.8 91.3 761.55 89.95 814.9 88.05 848.95 100.5 L848.95 182.45 -459.55 182.45 -459.55 98.6 -455.25 96.7" fill="url(#gradient0)" fill-rule="evenodd" stroke="none"/>
  </g>
  <defs>
    <linearGradient gradientTransform="matrix(-0.0052, 0.0546, 0.0612, 0.0047, 193.1, 158.05)" gradientUnits="userSpaceOnUse" id="gradient0" spreadMethod="pad" x1="-819.2" x2="819.2">
      <stop offset="0.1411764705882353" stop-color="#ffffff"/>
      <stop offset="0.21176470588235294" stop-color="#edf9fc"/>
      <stop offset="0.8862745098039215" stop-color="#bfe8f6"/>
    </linearGradient>
  </defs>
</svg>
