<?xml version="1.0" encoding="UTF-8" standalone="no"?>
<svg xmlns:xlink="http://www.w3.org/1999/xlink" height="345.55px" width="1308.5px" xmlns="http://www.w3.org/2000/svg">
  <g transform="matrix(1.0, 0.0, 0.0, 1.0, 460.7, -123.3)">
    <path d="M-460.7 133.45 Q-428.35 128.95 -417.95 129.1 L-363.05 131.55 Q-318.55 133.8 -274.5 152.9 -230.45 171.95 -191.5 170.2 -152.55 168.4 -82.55 174.7 -12.6 181.0 56.25 161.9 125.05 142.75 226.75 169.0 254.7 176.5 308.15 175.55 363.2 174.55 396.7 165.35 430.15 156.15 480.45 159.45 530.7 162.65 551.1 159.05 572.0 155.5 611.5 151.55 645.75 147.4 681.25 140.85 716.7 134.25 771.45 127.9 847.6 119.05 847.8 127.3 L847.8 468.85 -460.7 468.85 -460.7 133.45" fill="url(#gradient0)" fill-rule="evenodd" stroke="none"/>
  </g>
  <defs>
    <linearGradient gradientTransform="matrix(0.0583, 0.316, 0.0636, 0.0048, 191.95, 367.15)" gradientUnits="userSpaceOnUse" id="gradient0" spreadMethod="pad" x1="-819.2" x2="819.2">
      <stop offset="0.1411764705882353" stop-color="#ffffff"/>
      <stop offset="0.21176470588235294" stop-color="#edf9fc"/>
      <stop offset="0.6" stop-color="#bfe8f6"/>
      <stop offset="0.984313725490196" stop-color="#74cdeb"/>
    </linearGradient>
  </defs>
</svg>
