<?xml version="1.0" encoding="UTF-8" standalone="no"?>
<svg xmlns:xlink="http://www.w3.org/1999/xlink" height="117.55px" width="208.8px" xmlns="http://www.w3.org/2000/svg">
  <g transform="matrix(1.0, 0.0, 0.0, 1.0, 91.4, 93.4)">
    <path d="M-18.35 -75.65 Q-17.4 -75.35 -15.5 -77.2 -9.05 -94.45 11.0 -92.6 L1.1 -82.05 Q32.7 -96.0 57.85 -81.95 L68.8 -73.6 Q80.95 -67.9 90.55 -58.55 101.55 -52.2 116.8 -53.1 108.65 -45.5 92.35 -44.7 88.35 -27.15 76.95 -13.25 65.4 -20.8 65.85 -40.3 68.7 -50.15 81.05 -50.7 51.8 -63.9 39.1 -81.1 37.35 -84.65 25.3 -80.8 16.75 -80.45 10.1 -76.6 24.4 -68.3 25.6 -60.85 32.05 -53.2 36.05 -39.45 40.3 -34.15 50.35 -27.9 57.05 -27.1 53.8 5.9 19.65 26.15 -26.3 23.55 -52.0 13.8 -31.95 -6.2 L-23.65 -8.5 Q-15.4 -10.85 -5.05 -19.7 -1.85 -24.05 -0.6 -26.1 L1.35 -29.9 2.25 -33.15 Q2.6 -36.0 2.25 -36.55 L3.35 -47.05 9.0 -26.75 2.25 -13.5 Q-5.45 1.5 -19.4 6.85 -8.8 11.2 10.4 8.15 33.0 3.05 45.4 -13.2 47.35 -15.45 48.1 -17.2 L49.2 -19.95 Q49.6 -21.0 47.3 -23.5 45.0 -26.05 40.8 -28.8 30.0 -34.75 27.0 -44.7 18.3 -56.4 8.25 -66.15 L7.1 -67.2 7.05 -67.2 Q2.4 -71.15 -1.95 -73.55 -7.75 -71.6 -12.45 -73.55 L-18.35 -75.65 M-70.0 -31.75 Q-80.4 -25.5 -90.8 -29.0 -72.5 -34.45 -67.9 -41.35 -61.65 -46.8 -56.6 -44.5 -60.25 -36.55 -70.0 -31.75 M-39.85 -70.0 Q-45.65 -70.75 -50.9 -74.25 -37.2 -74.65 -25.65 -71.5 -23.65 -69.4 -21.5 -69.35 -12.1 -67.5 -14.1 -64.5 -33.8 -65.4 -39.85 -70.0 M-15.5 -77.2 Q-9.1 -77.4 -1.95 -73.55 -9.1 -77.4 -15.5 -77.2" fill="#d1d16b" fill-rule="evenodd" stroke="none"/>
    <path d="M76.95 -13.25 Q72.9 -8.3 67.9 -3.85 61.1 1.55 53.8 5.9 57.05 -27.1 50.35 -27.9 40.3 -34.15 36.05 -39.45 32.05 -53.2 25.6 -60.85 24.4 -68.3 10.1 -76.6 16.75 -80.45 25.3 -80.8 37.35 -84.65 39.1 -81.1 51.8 -63.9 81.05 -50.7 68.7 -50.15 65.85 -40.3 65.4 -20.8 76.95 -13.25 M-26.3 23.55 Q-64.35 18.7 -74.1 -5.9 -76.8 -20.6 -70.0 -31.75 -60.25 -36.55 -56.6 -44.5 -61.65 -46.8 -67.9 -41.35 -60.6 -57.2 -55.25 -61.55 -46.95 -68.25 -39.85 -70.0 -33.8 -65.4 -14.1 -64.5 -12.1 -67.5 -21.5 -69.35 -23.65 -69.4 -25.65 -71.5 -27.55 -75.05 -31.65 -80.0 -21.45 -76.4 -18.35 -75.65 L-12.45 -73.55 Q-7.75 -71.6 -1.95 -73.55 2.4 -71.15 7.05 -67.2 L7.1 -67.2 8.25 -66.15 Q18.3 -56.4 27.0 -44.7 30.0 -34.75 40.8 -28.8 L40.75 -28.5 Q42.8 -26.45 46.0 -23.85 47.7 -21.75 47.85 -19.85 48.0 -18.0 46.6 -15.9 L45.15 -13.7 45.4 -13.2 Q33.0 3.05 10.4 8.15 -8.8 11.2 -19.4 6.85 -5.45 1.5 2.25 -13.5 L9.0 -26.75 3.35 -47.05 2.25 -36.55 Q1.9 -36.45 1.7 -35.85 L1.15 -33.45 Q0.3 -29.45 -1.5 -26.55 L-5.0 -21.25 -10.2 -16.8 Q-14.4 -13.15 -23.4 -9.7 L-32.0 -6.6 -31.85 -6.3 -31.95 -6.2 Q-52.0 13.8 -26.3 23.55" fill="#ffff9d" fill-rule="evenodd" stroke="none"/>
    <path d="M40.8 -28.8 Q45.0 -26.05 47.3 -23.5 49.6 -21.0 49.2 -19.95 L48.1 -17.2 Q47.35 -15.45 45.4 -13.2 L45.15 -13.7 46.6 -15.9 Q48.0 -18.0 47.85 -19.85 47.7 -21.75 46.0 -23.85 42.8 -26.45 40.75 -28.5 L40.8 -28.8 M2.25 -36.55 Q2.6 -36.0 2.25 -33.15 L1.35 -29.9 -0.6 -26.1 Q-1.85 -24.05 -5.05 -19.7 -15.4 -10.85 -23.65 -8.5 L-31.95 -6.2 -31.85 -6.3 -32.0 -6.6 -23.4 -9.7 Q-14.4 -13.15 -10.2 -16.8 L-5.0 -21.25 -1.5 -26.55 Q0.3 -29.45 1.15 -33.45 L1.7 -35.85 Q1.9 -36.45 2.25 -36.55" fill="#4d2b06" fill-rule="evenodd" stroke="none"/>
    <path d="M-18.35 -75.65 Q-17.4 -75.35 -15.5 -77.2 -9.05 -94.45 11.0 -92.6 L1.1 -82.05 Q32.7 -96.0 57.85 -81.95 L68.8 -73.6 Q80.95 -67.9 90.55 -58.55 101.55 -52.2 116.8 -53.1 108.65 -45.5 92.35 -44.7 M-26.3 23.55 Q-64.35 18.7 -74.1 -5.9 -76.8 -20.6 -70.0 -31.75 -80.4 -25.5 -90.8 -29.0 -72.5 -34.45 -67.9 -41.35 -60.6 -57.2 -55.25 -61.55 -46.95 -68.25 -39.85 -70.0 -45.65 -70.75 -50.9 -74.25 -37.2 -74.65 -25.65 -71.5 -27.55 -75.05 -31.65 -80.0 -21.45 -76.4 -18.35 -75.65 M-1.95 -73.55 Q-9.1 -77.4 -15.5 -77.2 M-1.95 -73.55 Q2.4 -71.15 7.05 -67.2" fill="none" stroke="#4d2b06" stroke-linecap="round" stroke-linejoin="miter-clip" stroke-miterlimit="5.0" stroke-width="1.2000000000000002"/>
    <path d="M-21.45 -69.4 L-21.4 -69.35 -21.5 -69.25 -21.7 -69.2 -21.95 -69.2 -22.25 -69.25 -22.45 -69.25 -22.65 -69.3 -22.85 -69.3 -23.05 -69.35 -23.25 -69.45 -23.5 -69.5 -23.95 -69.7 -24.05 -69.7 -24.15 -69.8 -24.75 -70.1 -25.45 -70.55 -25.9 -70.9 -26.15 -71.15 Q-26.5 -71.6 -26.05 -72.0 L-25.2 -71.9 -25.05 -71.75 -24.95 -71.55 -24.25 -70.8 -23.9 -70.55 -23.75 -70.4 -23.65 -70.35 -23.6 -70.3 -23.25 -70.05 -22.85 -69.85 -22.7 -69.75 -21.45 -69.4 M6.65 -66.75 L6.45 -67.15 6.65 -67.6 7.05 -67.8 7.5 -67.6 8.6 -66.55 8.65 -66.55 8.65 -66.5 11.6 -63.5 12.4 -62.65 24.25 -48.5 24.85 -47.7 27.05 -44.75 27.05 -44.6 26.9 -44.6 24.0 -48.3 8.15 -65.45 7.85 -65.65 7.85 -65.7 7.8 -65.7 7.75 -65.75 7.65 -65.9 6.65 -66.75 M69.05 -74.1 Q69.6 -73.8 69.35 -73.3 69.1 -72.75 68.5 -73.05 67.6 -73.5 66.65 -74.0 L56.0 -78.35 Q55.85 -78.35 55.95 -78.45 L56.05 -78.5 58.1 -77.95 58.6 -77.85 67.05 -74.95 69.05 -74.1" fill="#4d2b06" fill-rule="evenodd" stroke="none"/>
  </g>
</svg>
