<?xml version="1.0" encoding="UTF-8" standalone="no"?>
<svg xmlns:xlink="http://www.w3.org/1999/xlink" height="141.55px" width="339.8px" xmlns="http://www.w3.org/2000/svg">
  <g transform="matrix(1.0, 0.0, 0.0, 1.0, 169.9, 70.45)">
    <path d="M66.05 -56.05 Q70.85 -53.3 75.25 -51.6 74.8 -40.3 91.95 -35.3 102.8 -30.3 112.45 -27.6 105.2 10.05 84.7 9.45 85.95 5.95 84.6 1.65 L72.05 25.95 72.5 25.5 Q68.9 31.55 62.65 36.35 50.95 42.2 35.85 42.9 44.65 42.1 43.8 36.05 14.4 49.2 -23.6 55.15 -14.6 51.15 -11.0 45.8 -42.85 53.8 -73.35 53.75 -65.75 52.35 -62.2 48.3 -98.75 54.45 -131.55 49.1 L-133.65 49.05 -138.1 50.0 -142.55 51.25 -143.05 51.35 Q-166.75 56.25 -169.3 53.1 -163.45 19.05 -138.8 4.9 -98.85 -21.05 -74.1 -28.2 -48.0 -35.45 -21.35 -33.5 -6.05 -32.4 9.45 -28.2 27.2 -26.05 45.75 -36.0 56.9 -48.2 66.05 -56.05 M-4.45 25.35 L-4.5 25.3 Q-5.15 25.15 -13.8 27.85 L-25.05 31.15 -33.3 32.9 -43.85 35.1 -59.15 37.05 -75.15 37.7 -81.8 37.15 -81.95 37.1 -84.1 36.75 -79.9 38.05 Q-73.35 42.15 -60.75 41.8 -5.8 37.2 11.7 25.6 L-4.2 25.2 -4.0 25.35 Q-3.65 25.7 -4.45 25.35" fill="#ffff9d" fill-rule="evenodd" stroke="none"/>
    <path d="M-142.55 51.25 L-138.1 50.0 -133.65 49.05 -131.55 49.1 Q-98.75 54.45 -62.2 48.3 -65.75 52.35 -73.35 53.75 -42.85 53.8 -11.0 45.8 -14.6 51.15 -23.6 55.15 14.4 49.2 43.8 36.05 44.65 42.1 35.85 42.9 50.95 42.2 62.65 36.35 68.9 31.55 72.5 25.5 L72.05 25.95 84.6 1.65 Q85.95 5.95 84.7 9.45 105.2 10.05 112.45 -27.6 102.8 -30.3 91.95 -35.3 74.8 -40.3 75.25 -51.6 70.85 -53.3 66.05 -56.05 89.8 -76.55 100.15 -67.85 129.9 -43.55 169.3 -43.6 155.65 -24.4 131.9 -24.65 139.25 25.9 81.2 44.2 41.5 65.1 49.4 55.1 L49.15 55.15 Q19.85 63.15 -12.45 65.1 -39.1 68.55 -59.2 70.15 L-59.4 70.15 Q-79.65 71.75 -57.1 65.55 -108.75 64.25 -149.35 54.95 -144.75 51.9 -143.05 51.35 L-142.55 51.25 M-79.9 38.05 Q-56.1 39.55 -30.5 33.2 -4.95 26.8 -4.45 25.35 -3.65 25.7 -4.0 25.35 L-4.2 25.2 11.7 25.6 Q-5.8 37.2 -60.75 41.8 -73.35 42.15 -79.9 38.05" fill="#d1d16b" fill-rule="evenodd" stroke="none"/>
    <path d="M-4.45 25.35 Q-4.95 26.8 -30.5 33.2 -56.1 39.55 -79.9 38.05 L-84.1 36.75 -81.95 37.1 -81.8 37.15 -75.15 37.7 -59.15 37.05 -43.85 35.1 -33.3 32.9 -25.05 31.15 -13.8 27.85 Q-5.15 25.15 -4.5 25.3 L-4.45 25.35" fill="#4d2b06" fill-rule="evenodd" stroke="none"/>
    <path d="M-21.35 -33.5 Q-48.0 -35.45 -74.1 -28.2 -98.85 -21.05 -138.8 4.9 -163.45 19.05 -169.3 53.1 M100.15 -67.85 Q129.9 -43.55 169.3 -43.6 155.65 -24.4 131.9 -24.65 139.25 25.9 81.2 44.2 41.5 65.1 49.4 55.1 L49.15 55.15 Q19.85 63.15 -12.45 65.1 -39.1 68.55 -59.2 70.15 L-59.4 70.15 Q-79.65 71.75 -57.1 65.55 -108.75 64.25 -149.35 54.95" fill="none" stroke="#4d2b06" stroke-linecap="round" stroke-linejoin="miter-clip" stroke-miterlimit="8.0" stroke-width="1.2000000000000002"/>
    <path d="M-169.3 53.1 Q-166.75 56.25 -143.05 51.35 L-142.55 51.25 M-149.35 54.95 Q-144.75 51.9 -143.05 51.35" fill="none" stroke="#4d2b06" stroke-linecap="round" stroke-linejoin="miter-clip" stroke-miterlimit="15.0" stroke-width="1.2000000000000002"/>
    <path d="M49.55 55.65 Q48.95 55.85 48.8 55.25 48.6 54.65 49.2 54.5 L51.35 53.75 52.25 53.45 55.85 52.15 56.15 52.0 58.15 51.25 71.75 44.7 77.35 41.25 Q78.9 40.2 80.4 39.1 L80.55 39.1 80.55 39.25 71.35 45.5 60.6 51.15 56.55 52.95 56.2 53.05 49.55 55.65 M131.9 -25.2 Q132.5 -25.2 132.5 -24.6 132.4 -23.95 131.85 -24.05 L129.6 -24.1 125.35 -24.5 120.5 -25.3 120.05 -25.35 113.6 -26.85 112.7 -27.15 112.45 -27.2 112.3 -27.25 112.2 -27.25 111.25 -27.55 107.55 -28.75 101.5 -30.95 101.1 -31.15 91.9 -35.2 Q91.75 -35.2 91.85 -35.3 L91.95 -35.35 92.4 -35.2 96.05 -33.6 112.4 -27.95 112.5 -27.9 112.65 -27.9 120.2 -26.25 129.65 -25.25 131.9 -25.2 M9.45 -28.25 L9.5 -28.15 Q9.5 -28.0 9.4 -28.1 L-3.0 -30.75 -15.95 -32.5 -16.5 -32.5 -21.35 -32.9 -21.4 -32.9 Q-21.95 -32.9 -21.95 -33.55 -21.85 -34.15 -21.3 -34.05 L-8.6 -32.45 -0.1 -30.75 9.45 -28.25" fill="#4d2b06" fill-rule="evenodd" stroke="none"/>
  </g>
</svg>
