<?xml version="1.0" encoding="UTF-8" standalone="no"?>
<svg xmlns:xlink="http://www.w3.org/1999/xlink" height="16.0px" width="12.95px" xmlns="http://www.w3.org/2000/svg">
  <g transform="matrix(1.0, 0.0, 0.0, 1.0, 6.8, 7.85)">
    <path d="M-1.25 -0.8 L-1.4 -0.45 Q-1.55 -0.3 -1.75 -0.3 L-2.1 -0.45 -2.25 -0.8 -2.25 -2.4 -3.9 -2.4 Q-4.1 -2.4 -4.25 -2.55 L-4.4 -2.9 -4.25 -3.25 -3.9 -3.4 -2.25 -3.4 -2.25 -5.15 -2.1 -5.5 -1.75 -5.65 -1.4 -5.5 -1.25 -5.15 -1.25 -3.4 0.45 -3.4 0.8 -3.25 0.95 -2.9 0.8 -2.55 0.45 -2.4 -1.25 -2.4 -1.25 -0.8 M1.9 0.85 L1.75 1.05 5.7 6.7 6.05 7.35 Q6.3 7.65 6.0 7.95 L5.3 8.0 5.0 7.75 0.35 2.35 0.2 2.2 0.15 2.1 0.15 2.0 -1.7 2.35 Q-3.8 2.35 -5.3 0.85 -6.8 -0.65 -6.8 -2.75 -6.8 -4.85 -5.3 -6.35 -3.8 -7.85 -1.7 -7.85 0.4 -7.85 1.9 -6.35 3.35 -4.85 3.35 -2.75 3.35 -0.65 1.9 0.85 M2.35 -2.75 Q2.35 -4.45 1.2 -5.65 0.0 -6.85 -1.7 -6.85 -3.4 -6.85 -4.6 -5.65 -5.8 -4.45 -5.8 -2.75 -5.8 -1.05 -4.6 0.15 -3.4 1.35 -1.7 1.35 -0.55 1.35 0.4 0.8 L1.2 0.15 Q2.35 -1.05 2.35 -2.75" fill="#ffffff" fill-rule="evenodd" stroke="none"/>
  </g>
</svg>
