<?xml version="1.0" encoding="UTF-8" standalone="no"?>
<svg xmlns:xlink="http://www.w3.org/1999/xlink" height="27.4px" width="27.4px" xmlns="http://www.w3.org/2000/svg">
  <g transform="matrix(1.0, 0.0, 0.0, 1.0, 13.35, 14.4)">
    <path d="M14.05 -1.3 Q14.05 2.7 7.1 -4.05 -0.05 -10.8 -7.15 1.8 L-11.55 9.0 Q-10.4 7.45 -8.3 5.45 -2.25 -1.1 1.6 -1.45 5.5 -1.75 10.05 2.0 14.6 5.75 12.35 9.9 9.9 13.85 5.6 9.05 1.35 4.3 -2.4 3.95 -6.3 3.7 -8.45 8.75 -10.6 13.75 -12.55 12.85 -13.5 12.3 -12.55 10.55 -13.7 12.3 -13.15 10.7 L-10.05 -0.4 Q-8.1 -7.95 -4.55 -11.4 -1.1 -14.8 4.95 -14.35 11.0 -13.85 12.55 -9.5 14.05 -5.25 14.05 -1.3" fill="#ffffff" fill-rule="evenodd" stroke="none"/>
  </g>
</svg>
