<?xml version="1.0" encoding="UTF-8" standalone="no"?>
<svg xmlns:xlink="http://www.w3.org/1999/xlink" height="33.0px" width="23.6px" xmlns="http://www.w3.org/2000/svg">
  <g transform="matrix(1.0, 0.0, 0.0, 1.0, 11.65, 15.85)">
    <path d="M-10.7 -5.2 Q-7.65 -6.7 -4.75 -8.45 L-4.7 -8.6 Q-5.2 -12.5 -3.75 -15.75 L-3.55 -15.8 Q-0.65 -16.15 0.0 -14.1 L0.15 -14.05 Q2.15 -15.25 5.05 -15.5 L5.3 -15.5 Q6.65 -14.95 7.25 -13.75 L7.3 -13.5 Q9.95 -13.0 10.45 -10.35 L10.45 -10.05 Q8.95 -8.4 6.45 -7.8 L6.2 -7.75 Q8.05 -6.5 10.75 -5.9 L10.75 -5.75 Q6.05 -3.0 1.8 0.2 L1.6 0.25 Q-4.55 -2.3 -10.65 -5.0 L-10.7 -5.2 M-3.55 -14.65 L-3.6 -14.35 Q-3.8 -9.65 -2.7 -6.35 L-2.45 -6.3 Q0.15 -4.75 3.3 -3.75 L3.45 -3.8 Q3.95 -6.4 5.05 -8.35 L5.25 -8.4 6.45 -9.5 6.75 -9.45 Q8.9 -9.35 9.35 -10.9 L9.25 -11.1 Q6.85 -12.45 5.05 -14.35 L5.05 -14.5 Q2.7 -14.1 1.0 -12.9 0.6 -12.9 0.35 -13.15 -1.15 -14.3 -3.55 -14.65 M2.15 1.4 L11.4 -4.85 11.6 -4.9 Q12.1 2.05 11.9 9.7 L11.9 10.0 11.85 10.2 Q6.9 13.3 2.45 16.85 L2.3 16.85 2.15 1.4 M-11.6 -3.75 L0.7 1.25 0.75 1.4 0.75 16.85 0.75 17.15 0.5 17.1 Q-5.2 14.2 -11.3 11.7 L-11.3 11.45 Q-11.8 4.2 -11.6 -3.75" fill="#ffffff" fill-rule="evenodd" stroke="none"/>
  </g>
</svg>
