<?xml version="1.0" encoding="UTF-8" standalone="no"?>
<svg xmlns:xlink="http://www.w3.org/1999/xlink" height="34.0px" width="23.7px" xmlns="http://www.w3.org/2000/svg">
  <g transform="matrix(1.0, 0.0, 0.0, 1.0, 11.95, 17.1)">
    <path d="M-3.5 -17.05 L-3.25 -17.05 -3.25 -16.85 -5.5 -14.15 -5.7 -13.95 -5.75 -13.8 -5.85 -13.7 -8.2 -10.05 -8.7 -9.1 -8.75 -8.85 -9.05 -8.3 -10.05 -5.25 -10.4 -3.2 -10.5 -3.0 -10.55 -0.2 -10.15 3.1 -9.15 6.3 -8.8 7.05 -8.7 7.5 -7.2 10.55 -7.0 10.8 -6.9 11.15 -3.2 16.65 Q-3.05 16.8 -3.2 16.85 L-3.4 16.85 -7.7 11.65 -7.85 11.35 -8.9 9.8 -10.35 6.8 -11.45 3.4 -11.95 -0.15 -11.95 -2.0 -11.8 -2.9 -11.8 -3.4 -11.45 -5.2 -10.75 -7.25 -9.3 -10.25 -8.7 -11.2 -8.6 -11.45 -8.45 -11.55 -7.0 -13.5 -6.8 -13.7 -6.45 -14.2 -6.3 -14.25 -6.25 -14.4 -3.5 -17.05 M5.2 -1.05 Q5.2 -6.95 -0.1 -10.45 -5.35 -6.95 -5.35 -1.05 -5.35 3.7 -2.05 10.0 -5.1 -3.0 -0.55 -5.45 L-0.2 -5.6 0.1 -5.55 Q4.95 -3.3 1.85 9.9 5.2 3.7 5.2 -1.05 M0.55 14.95 L0.35 15.1 0.1 15.25 -0.1 15.25 -0.3 15.25 -0.5 15.1 -0.65 14.95 Q-6.8 5.55 -6.75 -1.05 -6.8 -7.9 -0.45 -11.85 L-0.1 -12.0 0.35 -11.85 Q6.55 -7.9 6.55 -1.05 6.55 5.55 0.55 14.95 M3.1 -16.85 L3.1 -17.05 3.3 -17.05 4.0 -16.4 4.3 -16.2 6.1 -14.4 6.15 -14.25 6.3 -14.2 6.65 -13.7 6.85 -13.5 9.15 -10.25 Q10.05 -8.85 10.6 -7.25 L11.3 -5.2 11.35 -4.7 11.65 -3.4 11.65 -3.05 11.7 -3.0 11.75 -0.15 11.3 3.4 9.7 7.95 6.2 13.5 3.3 16.85 3.1 16.85 3.1 16.65 6.45 11.7 8.6 7.5 9.55 4.8 10.3 1.2 10.3 0.55 10.4 0.2 10.4 -0.6 10.45 -0.9 10.4 -1.1 10.3 -3.0 10.25 -3.2 9.9 -5.25 9.7 -5.9 9.7 -6.1 8.85 -8.4 8.6 -8.85 8.5 -9.1 5.65 -13.7 5.6 -13.8 5.55 -13.95 5.3 -14.15 3.1 -16.85" fill="#fffbf7" fill-rule="evenodd" stroke="none"/>
  </g>
</svg>
