<?xml version="1.0" encoding="UTF-8" standalone="no"?>
<svg xmlns:xlink="http://www.w3.org/1999/xlink" height="17.0px" width="31.25px" xmlns="http://www.w3.org/2000/svg">
  <g transform="matrix(1.0, 0.0, 0.0, 1.0, 15.65, 7.15)">
    <path d="M8.3 4.45 L8.0 5.05 7.4 5.35 Q7.05 5.35 6.75 5.05 L6.5 4.45 6.75 3.8 Q7.05 3.55 7.4 3.55 L8.0 3.8 8.3 4.45 M-7.25 4.45 Q-7.25 4.8 -7.55 5.05 -7.8 5.35 -8.15 5.35 L-8.8 5.05 -9.05 4.45 -8.8 3.8 -8.15 3.55 Q-7.8 3.55 -7.55 3.8 -7.25 4.1 -7.25 4.45" fill="#fffbf7" fill-rule="evenodd" stroke="none"/>
    <path d="M-7.3 -6.15 Q-16.7 -4.2 -14.05 4.15 -10.3 12.1 -2.65 5.95 -1.35 5.05 0.0 1.25 0.8 4.85 2.1 5.95 10.05 12.3 14.0 4.65 16.65 -4.4 7.25 -6.0" fill="none" stroke="#fffbf7" stroke-linecap="round" stroke-linejoin="miter-clip" stroke-miterlimit="5.0" stroke-width="2.0"/>
  </g>
</svg>
