<?xml version="1.0" encoding="UTF-8" standalone="no"?>
<svg xmlns:xlink="http://www.w3.org/1999/xlink" height="30.5px" width="30.5px" xmlns="http://www.w3.org/2000/svg">
  <g transform="matrix(1.0, 0.0, 0.0, 1.0, 15.3, 15.15)">
    <path d="M4.5 -7.5 L4.3 -7.5 Q3.35 -7.45 2.65 -6.75 1.9 -6.0 1.9 -4.95 L1.9 5.4 Q1.9 6.45 2.65 7.2 3.35 7.9 4.3 7.95 L4.5 7.95 4.55 7.95 5.0 7.95 Q5.75 7.8 6.35 7.2 7.1 6.45 7.1 5.4 L7.1 -4.95 Q7.1 -6.0 6.35 -6.75 5.75 -7.35 5.0 -7.45 L4.55 -7.5 4.5 -7.5 M15.2 0.1 Q15.2 6.4 10.75 10.85 6.3 15.35 -0.05 15.35 -6.35 15.35 -10.85 10.85 -15.3 6.4 -15.3 0.1 -15.3 -6.2 -10.85 -10.7 -6.35 -15.15 -0.05 -15.15 6.3 -15.15 10.75 -10.7 15.2 -6.2 15.2 0.1 M-4.5 -7.5 L-4.7 -7.5 Q-5.65 -7.45 -6.35 -6.75 -7.1 -6.0 -7.1 -4.95 L-7.1 5.4 Q-7.1 6.45 -6.35 7.2 -5.65 7.9 -4.7 7.95 L-4.5 7.95 -4.45 7.95 -4.0 7.95 Q-3.25 7.8 -2.65 7.2 -1.9 6.45 -1.9 5.4 L-1.9 -4.95 Q-1.9 -6.0 -2.65 -6.75 -3.25 -7.35 -4.0 -7.45 L-4.45 -7.5 -4.5 -7.5" fill="#fffbf7" fill-rule="evenodd" stroke="none"/>
  </g>
</svg>
