<?xml version="1.0" encoding="UTF-8" standalone="no"?>
<svg xmlns:xlink="http://www.w3.org/1999/xlink" height="39.95px" width="47.55px" xmlns="http://www.w3.org/2000/svg">
  <g transform="matrix(1.0, 0.0, 0.0, 1.0, 24.7, 19.1)">
    <path d="M1.1 -16.45 Q7.15 -18.75 14.6 -18.45 L14.65 -18.45 Q18.9 -18.6 22.25 -17.45 L18.0 -8.85 Q18.9 -3.65 17.85 1.8 L5.1 12.25 Q0.95 17.05 -10.4 17.4 -21.7 17.65 -12.4 10.8 L-13.2 10.5 -11.5 10.15 -13.2 10.5 -13.35 10.35 -11.5 10.15 -14.35 9.2 Q-16.0 9.2 -17.25 8.25 -18.95 6.9 -18.55 5.25 L-17.5 3.45 Q-16.6 2.35 -15.25 1.75 L-14.7 1.6 Q-14.0 0.35 -12.15 -0.95 L-11.3 -1.55 -10.75 -1.75 -8.45 -2.3 -7.7 -2.5 -10.75 -1.9 -10.7 -2.4 Q-13.55 -2.1 -14.55 -2.85 -15.8 -3.85 -15.55 -5.2 L-14.95 -6.7 -14.75 -6.75 -14.05 -7.8 -11.4 -9.8 -7.95 -11.8 -7.45 -11.9 Q-6.7 -12.6 -5.7 -12.75 L-5.5 -12.75 Q-2.85 -15.0 1.1 -16.45 M-12.15 -0.95 Q-10.45 -1.45 -8.45 -2.3 -10.45 -1.45 -12.15 -0.95" fill="#ee830f" fill-rule="evenodd" stroke="none"/>
    <path d="M1.1 -16.45 Q-2.85 -15.0 -5.5 -12.75 L-5.7 -12.75 Q-6.7 -12.6 -7.45 -11.9 L-7.95 -11.8 -11.4 -9.8 -14.05 -7.8 -14.75 -6.75 -14.95 -6.7 -15.55 -5.2 Q-15.8 -3.85 -14.55 -2.85 -13.55 -2.1 -10.7 -2.4 L-10.75 -1.9 -7.7 -2.5 -8.45 -2.3 -10.75 -1.75 -11.3 -1.55 -12.15 -0.95 Q-14.0 0.35 -14.7 1.6 L-15.25 1.75 Q-16.6 2.35 -17.5 3.45 L-18.55 5.25 Q-18.95 6.9 -17.25 8.25 -16.0 9.2 -14.35 9.2 L-11.5 10.15 -13.35 10.35 -13.2 10.5 -12.4 10.8 Q-21.7 17.65 -10.4 17.4 0.95 17.05 5.1 12.25 L17.85 1.8 Q16.7 8.05 12.95 14.65 L-4.15 19.2 -10.3 20.25 Q-14.8 20.4 -19.8 18.7 -23.65 17.45 -23.85 15.25 -24.1 13.0 -23.05 9.6 -26.2 7.3 -19.8 -0.65 -21.3 -7.95 -13.15 -11.35 -6.9 -14.7 1.1 -16.45 M-19.8 -0.65 L-12.15 -0.95 -19.8 -0.65 M-23.05 9.6 Q-19.1 12.55 -13.2 10.5 -19.1 12.55 -23.05 9.6" fill="#cc6f0f" fill-rule="evenodd" stroke="none"/>
    <path d="M22.25 -17.45 Q18.9 -18.6 14.65 -18.45 L14.6 -18.45 Q7.15 -18.75 1.1 -16.45 -6.9 -14.7 -13.15 -11.35 -21.3 -7.95 -19.8 -0.65 -26.2 7.3 -23.05 9.6 -24.1 13.0 -23.85 15.25 -23.65 17.45 -19.8 18.7 -14.8 20.4 -10.3 20.25 L-4.15 19.2 12.95 14.65 M-7.7 -2.5 L-8.45 -2.3 Q-10.45 -1.45 -12.15 -0.95 L-19.8 -0.65 M-11.5 10.15 L-13.2 10.5 Q-19.1 12.55 -23.05 9.6" fill="none" stroke="#4d2b06" stroke-linecap="round" stroke-linejoin="round" stroke-width="1.2000000000000002"/>
  </g>
</svg>
