<?xml version="1.0" encoding="UTF-8" standalone="no"?>
<svg xmlns:xlink="http://www.w3.org/1999/xlink" height="191.35px" width="206.9px" xmlns="http://www.w3.org/2000/svg">
  <g transform="matrix(1.0, 0.0, 0.0, 1.0, 105.7, 118.1)">
    <path d="M22.3 -108.1 L25.5 -102.95 M14.9 -117.6 L18.75 -113.05 M38.2 -62.7 L38.85 -56.7 M36.15 -74.65 L37.3 -68.7 M32.9 -86.4 L34.7 -80.55 M28.35 -97.6 L30.8 -92.05 M27.15 -8.1 L33.25 -6.65 M15.3 -10.7 L21.2 -9.45 M3.6 -13.05 L9.45 -11.9 M37.9 -14.35 L37.1 -8.25 M39.0 -26.4 L38.5 -20.4 M39.45 -38.5 L39.3 -32.45 M42.6 -4.35 L36.75 -5.8 36.7 -5.7 35.95 0.0 M48.45 -2.85 L54.3 -1.3 M39.25 -50.6 L39.45 -44.55 M94.95 10.25 L100.7 12.0 M83.45 6.8 L89.25 8.55 M71.8 3.45 L77.6 5.1 M60.15 0.25 L66.0 1.85 M25.45 39.85 L22.85 45.15 M29.65 28.75 L27.75 34.35 M32.8 17.35 L31.35 23.1 M35.1 5.8 L34.05 11.6 M12.45 59.65 L8.05 63.7 M19.85 50.3 L16.4 55.15 M-93.15 -19.15 L-87.1 -19.9 M-105.2 -16.8 L-99.2 -18.15 M-56.6 -20.55 L-50.5 -20.25 M-68.8 -20.8 L-62.7 -20.75 M-8.3 -15.2 L-2.35 -14.15 M-20.2 -17.0 L-14.25 -16.15 M-32.25 -18.6 L-26.2 -17.85 M-44.4 -19.8 L-38.3 -19.25 M-81.05 -20.4 L-74.9 -20.7 M-7.75 72.05 L-10.5 72.75 M3.15 67.15 Q0.6 68.75 -2.15 69.95" fill="none" stroke="#ffffff" stroke-linecap="round" stroke-linejoin="round" stroke-width="1.0"/>
  </g>
</svg>
