<?xml version="1.0" encoding="UTF-8" standalone="no"?>
<svg xmlns:xlink="http://www.w3.org/1999/xlink" height="193.55px" width="206.1px" xmlns="http://www.w3.org/2000/svg">
  <g transform="matrix(1.0, 0.0, 0.0, 1.0, 105.85, 119.3)">
    <path d="M3.35 -41.65 L2.15 -45.95 15.0 -44.35 32.85 -41.95 6.55 -14.65 5.05 -13.0 4.55 -12.4 3.35 -11.15 3.25 -11.75 3.25 -11.95 2.9 -13.4 2.3 -16.0 2.6 -17.2 Q3.5 -20.55 4.0 -23.85 5.45 -33.15 3.35 -41.65" fill="#595756" fill-rule="evenodd" stroke="none"/>
    <path d="M32.85 -41.95 L15.0 -44.35 2.15 -45.95 Q-21.35 -50.1 -39.45 -60.1 L-39.3 -60.2 -40.1 -60.4 Q-45.85 -62.05 -52.0 -65.85 L-52.5 -66.15 Q-68.7 -73.4 -83.35 -88.85 L-82.45 -89.95 Q-70.1 -74.65 -37.8 -61.3 -30.55 -57.7 -20.55 -54.2 -10.55 -50.7 1.2 -48.55 L14.4 -46.5 19.85 -45.85 46.7 -42.05 54.5 -39.95 58.65 -39.6 Q59.4 -39.2 63.3 -38.55 L70.7 -37.35 76.3 -37.2 84.05 -37.85 Q88.55 -38.7 92.95 -42.7 103.9 -16.2 96.9 11.95 89.05 8.5 88.15 7.9 90.0 1.5 90.55 -6.2 91.5 -21.3 86.8 -32.5 L86.35 -33.55 Q73.0 -30.75 59.25 -32.1 55.15 -24.0 53.95 -13.0 L53.75 -10.45 53.65 -9.7 53.6 -7.95 53.2 -13.0 Q52.25 -23.4 42.55 -40.95 L42.4 -41.15 40.6 -41.15 32.85 -41.95" fill="#4c4c4c" fill-rule="evenodd" stroke="none"/>
    <path d="M46.7 -42.05 L19.85 -45.85 14.4 -46.5 1.2 -48.55 Q-10.55 -50.7 -20.55 -54.2 -30.55 -57.7 -37.8 -61.3 -70.1 -74.65 -82.45 -89.95 L-81.0 -91.6 Q-50.55 -61.1 40.05 -44.15 L61.8 -39.95 46.7 -42.05" fill="#666664" fill-rule="evenodd" stroke="none"/>
    <path d="M2.9 -13.4 L3.25 -11.95 3.25 -11.75 1.2 -12.5 1.35 -13.0 2.9 -13.4 M-31.8 15.65 L-27.25 15.3 -26.9 17.3 -31.95 18.0 -31.8 15.65" fill="#efd977" fill-rule="evenodd" stroke="none"/>
    <path d="M2.3 -16.0 L2.9 -13.4 1.35 -13.0 2.3 -16.0 M3.25 -11.75 L3.35 -11.15 4.55 -12.4 5.05 -13.0 6.55 -14.65 32.85 -41.95 40.6 -41.15 42.4 -41.15 42.55 -40.95 Q52.25 -23.4 53.2 -13.0 L53.6 -7.95 53.5 -2.25 Q53.5 -1.15 53.65 0.0 L53.65 0.15 Q54.1 7.7 56.35 14.1 L56.7 15.05 57.3 16.55 55.55 15.5 Q51.7 32.7 40.65 37.6 33.15 39.7 11.5 41.2 31.7 51.8 -7.1 73.2 -24.45 71.35 -37.8 67.1 -46.95 62.1 -54.95 56.8 -99.55 27.0 -104.75 -13.0 L-105.2 -16.8 Q-84.65 -24.65 -58.9 -23.85 L-58.85 -23.85 -58.9 -23.3 Q-59.35 -18.0 -58.6 -13.0 L-58.25 -10.85 Q-57.5 -6.6 -55.85 -2.55 -51.55 8.5 -42.95 12.9 -40.65 14.1 -38.0 14.85 -34.95 15.65 -31.8 15.65 L-31.95 18.0 -26.9 17.3 Q-0.85 13.25 1.05 1.5 L3.25 -11.75 M9.4 -8.95 L8.55 -8.9 8.8 -8.75 34.4 -4.35 51.65 0.3 51.7 0.05 Q33.6 -8.95 9.4 -8.95 M32.4 70.75 L33.3 70.55 33.2 70.6 32.4 70.75 M7.25 -2.25 Q3.25 2.1 4.85 16.1 9.4 23.35 13.4 24.15 9.45 14.0 7.25 -2.25 M20.45 33.45 L20.6 33.5 20.15 33.0 20.45 33.45 M-41.15 20.45 Q-49.9 18.05 -58.0 11.25 -57.65 19.7 -52.5 25.5 -44.35 28.05 -41.15 20.45" fill="#fce67a" fill-rule="evenodd" stroke="none"/>
    <path d="M9.4 -8.95 Q33.6 -8.95 51.7 0.05 L51.65 0.3 34.4 -4.35 8.8 -8.75 8.55 -8.9 9.4 -8.95 M20.45 33.45 L20.15 33.0 20.6 33.5 20.45 33.45" fill="#201e13" fill-rule="evenodd" stroke="none"/>
    <path d="M-27.25 15.3 Q-20.4 13.95 -13.7 8.7 -3.5 0.75 1.2 -12.5 L3.25 -11.75 1.05 1.5 Q-0.85 13.25 -26.9 17.3 L-27.25 15.3 M88.15 7.9 Q89.05 8.5 96.9 11.95 89.55 44.35 61.7 59.2 47.4 66.8 33.3 70.55 L32.4 70.75 31.55 71.0 Q19.15 73.95 6.65 74.2 L-7.1 73.2 Q31.7 51.8 11.5 41.2 33.15 39.7 40.65 37.6 51.7 32.7 55.55 15.5 L57.3 16.55 Q58.2 18.7 59.25 20.5 61.7 25.65 65.15 27.1 67.25 28.3 69.55 28.5 77.2 29.25 83.3 19.0 86.35 14.1 88.15 7.9" fill="#e8d274" fill-rule="evenodd" stroke="none"/>
    <path d="M92.95 -42.7 Q88.55 -38.7 84.05 -37.85 L76.3 -37.2 70.7 -37.35 63.3 -38.55 Q59.4 -39.2 58.65 -39.6 L54.5 -39.95 46.7 -42.05 61.8 -39.95 40.05 -44.15 Q-50.55 -61.1 -81.0 -91.6 -63.4 -112.65 -30.4 -117.6 -10.4 -120.6 17.9 -115.35 45.95 -103.65 65.55 -84.1 85.0 -64.5 92.95 -42.7" fill="url(#gradient0)" fill-rule="evenodd" stroke="none"/>
    <path d="M7.25 -2.25 Q9.45 14.0 13.4 24.15 9.4 23.35 4.85 16.1 3.25 2.1 7.25 -2.25 M-41.15 20.45 Q-44.35 28.05 -52.5 25.5 -57.65 19.7 -58.0 11.25 -49.9 18.05 -41.15 20.45" fill="#fcf59d" fill-rule="evenodd" stroke="none"/>
    <path d="M-39.45 -60.1 L-40.8 -59.15 -43.1 -57.15 Q-45.55 -54.9 -47.65 -52.25 -54.15 -44.35 -57.2 -33.15 -58.45 -28.4 -58.85 -23.85 L-58.9 -23.85 Q-84.65 -24.65 -105.2 -16.8 -106.45 -58.55 -83.35 -88.85 -68.7 -73.4 -52.5 -66.15 L-52.0 -65.85 Q-45.85 -62.05 -40.1 -60.4 L-39.3 -60.2 -39.45 -60.1" fill="#6b6968" fill-rule="evenodd" stroke="none"/>
    <path d="M3.35 -41.65 Q5.45 -33.15 4.0 -23.85 3.5 -20.55 2.6 -17.2 L2.3 -16.0 2.9 -13.4 3.25 -11.95 3.25 -11.75 3.35 -11.15 M-43.1 -57.15 Q-45.55 -54.9 -47.65 -52.25 -54.15 -44.35 -57.2 -33.15 -58.45 -28.4 -58.85 -23.85 L-58.9 -23.3 Q-59.35 -18.0 -58.6 -13.0 L-58.25 -10.85 Q-57.5 -6.6 -55.85 -2.55 -51.55 8.5 -42.95 12.9 -40.65 14.1 -38.0 14.85 -34.95 15.65 -31.8 15.65 L-27.25 15.3 Q-20.4 13.95 -13.7 8.7 -3.5 0.75 1.2 -12.5 L1.35 -13.0 2.3 -16.0 M-82.45 -89.95 L-83.35 -88.85 Q-106.45 -58.55 -105.2 -16.8 L-104.75 -13.0 Q-99.55 27.0 -54.95 56.8 M92.95 -42.7 Q85.0 -64.5 65.55 -84.1 45.95 -103.65 17.9 -115.35 -10.4 -120.6 -30.4 -117.6 -63.4 -112.65 -81.0 -91.6 L-82.45 -89.95 M86.35 -33.55 L86.8 -32.5 Q91.5 -21.3 90.55 -6.2 90.0 1.5 88.15 7.9 M96.9 11.95 Q103.9 -16.2 92.95 -42.7 M33.3 70.55 Q47.4 66.8 61.7 59.2 89.55 44.35 96.9 11.95 M65.15 27.1 Q61.8 25.05 59.25 20.5 M-58.9 -23.85 L-58.85 -23.85" fill="none" stroke="#201e13" stroke-linecap="round" stroke-linejoin="round" stroke-width="1.2000000000000002"/>
    <path d="M-55.25 57.3 L-55.3 57.25 Q-55.7 56.9 -55.45 56.4 -55.1 55.95 -54.6 56.25 L-37.75 67.0 -37.7 67.1 -37.8 67.15 -55.25 57.3 M6.65 74.25 Q6.55 74.3 6.55 74.2 6.5 74.1 6.6 74.1 L19.55 72.85 30.7 70.6 31.25 70.45 31.35 70.45 31.4 70.4 31.45 70.4 32.2 70.15 32.3 70.15 33.05 70.0 Q33.65 69.85 33.75 70.45 33.95 71.05 33.3 71.15 L32.45 71.3 32.55 71.3 31.75 71.5 31.7 71.5 31.65 71.55 31.55 71.55 30.95 71.7 17.6 73.75 17.2 73.75 16.0 73.9 15.6 73.9 14.75 74.0 13.95 74.05 6.65 74.25 M42.3 -41.1 L42.35 -41.2 42.45 -41.15 42.5 -41.15 42.5 -41.1 42.6 -41.0 47.05 -32.75 47.25 -32.25 48.65 -29.25 49.1 -28.25 51.75 -21.55 53.45 -14.75 53.8 -17.15 53.9 -17.5 54.85 -22.05 54.95 -22.35 56.65 -27.8 56.8 -28.1 57.6 -30.1 57.7 -30.25 57.75 -30.4 58.7 -32.35 Q58.95 -32.85 59.5 -32.6 L59.8 -32.25 59.75 -31.8 58.9 -29.9 58.8 -29.75 58.75 -29.6 58.6 -29.3 57.15 -25.4 56.45 -23.05 56.4 -22.7 56.1 -21.7 54.7 -13.85 54.4 -10.4 54.4 -10.25 54.35 -9.75 54.3 -9.7 54.3 -7.85 54.25 -7.8 54.2 -1.3 54.35 -0.05 54.35 0.25 55.35 7.8 56.3 11.65 56.9 13.5 57.9 16.15 57.95 16.2 57.95 16.25 58.0 16.3 58.1 16.6 59.85 20.1 59.9 20.15 60.2 20.75 60.25 20.9 60.5 21.35 61.1 22.3 61.15 22.4 61.2 22.55 62.15 23.85 62.7 24.45 62.9 24.6 63.05 24.8 63.25 25.0 63.45 25.15 63.55 25.25 63.65 25.3 63.85 25.5 63.95 25.55 64.3 25.8 65.4 26.4 65.45 26.4 65.5 26.45 67.35 27.25 68.3 27.55 68.8 27.65 69.05 27.65 69.25 27.7 69.4 27.7 69.55 27.75 70.05 27.75 70.3 27.8 70.9 27.8 71.05 27.75 71.3 27.75 73.25 27.4 75.1 26.65 76.8 25.55 78.4 24.2 79.8 22.7 82.3 19.3 84.9 14.65 87.25 8.75 87.3 8.5 87.55 7.7 Q87.75 7.15 88.3 7.3 88.9 7.5 88.7 8.05 L88.55 8.55 88.5 8.8 86.95 13.2 84.3 18.6 80.9 23.6 79.4 25.25 77.7 26.7 75.8 27.95 Q74.6 28.55 73.65 28.8 L71.4 29.25 69.65 29.25 69.5 29.2 69.1 29.2 67.95 29.0 66.85 28.65 64.85 27.75 64.75 27.7 64.85 27.75 64.55 27.65 63.45 27.05 63.2 26.85 63.1 26.75 62.95 26.7 62.75 26.5 62.6 26.4 62.05 25.9 61.8 25.7 61.4 25.25 60.3 23.85 60.15 23.6 59.95 23.35 59.9 23.25 59.2 22.1 59.1 21.85 58.85 21.45 58.8 21.3 58.55 20.8 58.6 20.85 57.3 18.4 56.55 16.75 56.55 16.7 56.5 16.55 55.7 14.65 54.35 10.1 54.0 8.4 53.9 8.1 53.65 6.75 52.9 0.35 52.85 -8.15 52.9 -8.5 52.9 -9.3 52.65 -12.8 52.65 -13.1 52.6 -13.35 52.5 -14.4 51.7 -18.7 51.4 -19.75 51.35 -20.0 51.25 -20.25 50.3 -23.4 49.75 -24.95 46.6 -32.55 43.7 -38.45 43.6 -38.7 42.45 -40.85 42.3 -41.0 42.3 -41.1 M3.75 -10.7 Q3.35 -10.25 2.9 -10.7 L2.7 -11.1 2.9 -11.55 4.1 -12.8 4.05 -12.7 4.5 -13.25 4.55 -13.35 4.6 -13.35 4.6 -13.4 4.65 -13.35 4.7 -13.5 4.95 -13.7 6.1 -14.95 6.1 -15.0 6.15 -15.0 6.25 -15.15 32.75 -42.0 32.9 -42.0 32.9 -41.85 7.05 -14.4 6.95 -14.25 6.85 -14.15 6.65 -13.9 5.35 -12.5 5.0 -12.05 4.95 -12.0 4.95 -11.95 3.75 -10.7" fill="#201e13" fill-rule="evenodd" stroke="none"/>
  </g>
  <defs>
    <radialGradient cx="0" cy="0" gradientTransform="matrix(0.1393, 0.1317, -0.1909, 0.2018, -33.6, -105.2)" gradientUnits="userSpaceOnUse" id="gradient0" r="819.2" spreadMethod="reflect">
      <stop offset="0.09019607843137255" stop-color="#6b6968"/>
      <stop offset="0.43137254901960786" stop-color="#595756"/>
      <stop offset="1.0" stop-color="#484848"/>
    </radialGradient>
  </defs>
</svg>
