<?xml version="1.0" encoding="UTF-8" standalone="no"?>
<svg xmlns:xlink="http://www.w3.org/1999/xlink" height="114.7px" width="114.7px" xmlns="http://www.w3.org/2000/svg">
  <g transform="matrix(1.0, 0.0, 0.0, 1.0, 57.35, 57.35)">
    <path d="M54.85 0.0 Q54.85 22.75 38.8 38.8 22.75 54.85 0.0 54.85 -22.75 54.85 -38.8 38.8 -54.85 22.75 -54.85 0.0 -54.85 -22.75 -38.8 -38.8 -22.75 -54.85 0.0 -54.85 22.75 -54.85 38.8 -38.8 54.85 -22.75 54.85 0.0" fill="url(#gradient0)" fill-rule="evenodd" stroke="none"/>
    <path d="M54.85 0.0 Q54.85 22.75 38.8 38.8 22.75 54.85 0.0 54.85 -22.75 54.85 -38.8 38.8 -54.85 22.75 -54.85 0.0 -54.85 -22.75 -38.8 -38.8 -22.75 -54.85 0.0 -54.85 22.75 -54.85 38.8 -38.8 54.85 -22.75 54.85 0.0 Z" fill="none" stroke="#ffffff" stroke-linecap="round" stroke-linejoin="round" stroke-width="5.0"/>
    <path d="M27.4 33.05 L-0.5 3.45 -27.6 32.2 Q-28.75 33.4 -30.3 33.45 -31.9 33.55 -33.05 32.45 -34.0 31.55 -34.15 30.45 L-34.3 29.7 Q-34.35 28.05 -33.3 26.9 L-33.05 26.7 -4.25 -0.3 -32.95 -26.8 -33.2 -27.1 Q-34.35 -28.3 -34.3 -30.05 -34.3 -31.75 -32.95 -32.95 -31.95 -33.8 -30.75 -34.0 L-30.0 -34.05 Q-28.3 -34.05 -27.05 -32.7 L-0.5 -4.0 26.85 -33.6 Q28.1 -34.9 29.8 -34.95 L30.55 -34.9 Q31.8 -34.7 32.8 -33.8 34.1 -32.65 34.15 -30.9 34.2 -29.2 33.0 -28.0 L32.8 -27.7 3.2 -0.3 32.9 27.6 33.1 27.75 Q34.2 28.9 34.15 30.6 L34.05 31.4 Q33.75 32.45 32.9 33.3 31.7 34.4 30.1 34.35 28.55 34.3 27.4 33.05" fill="#000000" fill-rule="evenodd" stroke="none"/>
  </g>
  <defs>
    <linearGradient gradientTransform="matrix(0.067, 0.0, 0.0, 0.067, 0.0, 0.0)" gradientUnits="userSpaceOnUse" id="gradient0" spreadMethod="pad" x1="-819.2" x2="819.2">
      <stop offset="0.0" stop-color="#b6b6b6"/>
      <stop offset="1.0" stop-color="#727272"/>
    </linearGradient>
  </defs>
</svg>
