<?xml version="1.0" encoding="UTF-8" standalone="no"?>
<svg xmlns:xlink="http://www.w3.org/1999/xlink" height="128.05px" width="145.15px" xmlns="http://www.w3.org/2000/svg">
  <g transform="matrix(1.0, 0.0, 0.0, 1.0, -0.05, 0.0)">
    <path d="M81.9 12.75 Q61.05 12.75 45.5 27.3 29.35 42.45 29.8 64.05 34.3 63.7 39.6 64.1 L45.9 64.9 Q45.65 64.9 45.5 65.1 L45.3 65.5 23.15 87.2 Q21.5 86.8 17.25 82.2 L0.85 64.9 0.75 64.4 Q0.6 64.05 0.05 64.05 L16.55 64.05 Q16.4 49.15 23.35 35.05 28.9 23.7 36.75 16.6 45.25 8.85 60.5 4.2 74.4 0.0 87.7 0.0 95.3 0.0 106.35 4.25 119.4 9.25 127.85 17.25 136.55 25.5 141.05 39.35 145.2 52.05 145.2 67.45 145.2 82.6 141.95 90.85 139.5 97.0 130.2 109.4 124.65 116.8 112.2 122.2 98.65 128.05 84.05 128.05 66.4 128.05 56.75 125.0 45.45 121.4 35.55 111.2 38.05 110.0 39.85 106.4 41.45 103.1 44.7 102.1 61.6 116.15 81.45 116.15 104.8 116.15 118.4 102.55 132.45 88.5 132.45 63.45 132.45 50.45 130.35 43.95 128.6 38.4 122.65 30.65 116.25 22.35 105.2 17.5 94.25 12.75 81.9 12.75 M80.15 25.15 Q80.4 24.3 81.2 24.25 84.25 25.7 85.05 36.95 L86.85 66.55 103.85 88.05 103.05 88.3 101.85 88.5 Q100.4 88.5 96.45 85.0 85.9 75.7 77.75 69.0 76.9 62.05 78.15 48.4 L80.15 25.15" fill="#333333" fill-opacity="0.7019608" fill-rule="evenodd" stroke="none"/>
  </g>
</svg>
