<?xml version="1.0" encoding="UTF-8" standalone="no"?>
<svg xmlns:xlink="http://www.w3.org/1999/xlink" height="15.3px" width="8.8px" xmlns="http://www.w3.org/2000/svg">
  <g transform="matrix(1.0, 0.0, 0.0, 1.0, 4.8, 5.05)">
    <path d="M0.5 10.1 L-0.15 10.15 Q-2.25 10.15 -2.35 6.45 L-2.65 -0.4 -2.4 -1.6 Q-2.15 -2.05 -1.6 -2.05 0.45 -2.05 1.55 1.6 1.55 2.15 1.15 2.75 L0.6 3.8 Q0.3 5.55 0.65 7.0 L1.1 8.75 0.95 9.6 0.7 9.9 0.75 10.0 0.5 10.1" fill="#ffffff" fill-rule="evenodd" stroke="none"/>
    <path d="M0.75 10.0 L0.7 9.9 0.95 9.6 1.1 8.75 0.65 7.0 Q0.3 5.55 0.6 3.8 L1.15 2.75 Q1.55 2.15 1.55 1.6 0.45 -2.05 -1.6 -2.05 -2.15 -2.05 -2.4 -1.6 L-2.65 -0.4 -2.35 6.45 Q-2.25 10.15 -0.15 10.15 L0.5 10.1 -0.35 10.25 Q-1.25 10.25 -1.75 9.5 -2.45 8.5 -3.05 5.6 -3.25 4.55 -3.95 3.0 -4.65 1.4 -4.8 -0.45 -4.95 -2.3 -3.95 -3.3 -2.95 -4.35 -1.5 -4.85 -0.1 -5.4 1.1 -4.3 2.25 -3.2 2.45 -2.35 2.6 -1.55 2.9 -1.1 L3.3 -0.4 3.75 0.5 Q4.15 1.2 3.9 2.6 3.65 3.95 2.95 4.4 2.25 4.85 1.85 7.5 1.85 8.85 1.2 9.6 L0.75 10.0" fill="#ffffff" fill-opacity="0.7019608" fill-rule="evenodd" stroke="none"/>
  </g>
</svg>
