<?xml version="1.0" encoding="UTF-8" standalone="no"?>
<svg xmlns:xlink="http://www.w3.org/1999/xlink" height="1083.15px" width="1647.45px" xmlns="http://www.w3.org/2000/svg">
  <g transform="matrix(1.0, 0.0, 0.0, 1.0, 0.6, 0.0)">
    <path d="M0.0 715.75 L0.0 703.4 548.35 703.4 548.35 715.75 0.0 715.75" fill="#464646" fill-rule="evenodd" stroke="none"/>
    <path d="M1467.95 66.45 L1480.25 62.25 1480.25 470.6 1480.25 62.25 1467.95 66.45 1151.15 66.45 1151.15 466.9 1151.15 470.6 1107.75 470.6 1107.75 476.3 1111.15 478.85 1140.9 478.85 1163.8 501.7 1467.6 501.7 1490.5 478.85 1523.6 478.85 1523.6 473.25 1517.95 470.6 1480.25 470.6 1467.95 466.9 1467.95 66.45 M1480.25 62.25 L1151.15 62.25 1151.15 66.45 1151.15 62.25 1480.25 62.25 M0.0 31.1 L0.0 0.0 1646.25 0.0 1646.25 668.2 612.8 668.2 612.8 667.75 612.8 39.5 608.35 31.1 0.0 31.1" fill="url(#gradient0)" fill-rule="evenodd" stroke="none"/>
    <path d="M1646.25 715.75 L1646.25 1082.55 0.0 1082.55 0.0 715.75 548.35 715.75 608.35 715.75 1646.25 715.75" fill="url(#gradient1)" fill-rule="evenodd" stroke="none"/>
    <path d="M1467.95 466.9 L1480.25 470.6 1517.95 470.6 1523.6 473.25 1523.6 478.85 1490.5 478.85 1467.6 501.7 1163.8 501.7 1140.9 478.85 1111.15 478.85 1107.75 476.3 1107.75 470.6 1151.15 470.6 1151.15 466.9 1467.95 466.9 M1646.25 668.2 L1646.25 673.45 1646.25 715.75 608.35 715.75 608.35 673.45 608.35 31.1 548.35 62.25 608.35 31.1 608.35 673.45 608.35 715.75 548.35 715.75 548.35 703.4 548.35 62.25 0.0 62.25 0.0 31.1 608.35 31.1 612.8 39.5 612.8 667.75 612.8 668.2 1646.25 668.2 M1646.25 673.45 L608.35 673.45 612.8 667.75 608.35 673.45 1646.25 673.45 M1111.15 478.85 L1111.15 473.25 1107.75 470.6 1111.15 473.25 1523.6 473.25 1111.15 473.25 1111.15 478.85 M1490.5 478.85 L1140.9 478.85 1490.5 478.85" fill="#481c1c" fill-rule="evenodd" stroke="none"/>
    <path d="M1459.25 93.0 L1459.25 79.05 1158.15 79.05 1158.15 266.65 1201.8 266.65 1330.5 266.65 1459.25 266.65 1459.25 193.2 1459.25 181.65 1459.25 172.85 1459.25 93.0 M1467.95 66.45 L1467.95 466.9 1151.15 466.9 1151.15 66.45 1467.95 66.45 M1459.25 384.6 L1459.25 310.25 1459.25 283.55 1158.15 283.55 1158.15 458.95 1256.25 458.95 1364.35 458.95 1459.25 458.95 1459.25 384.6 M0.0 703.4 L0.0 696.2 58.45 696.2 58.45 252.3 58.45 134.55 58.45 72.95 0.0 72.95 0.0 62.25 548.35 62.25 548.35 703.4 0.0 703.4 M516.0 155.45 L516.0 72.95 509.85 72.95 70.1 72.95 70.1 447.4 70.1 546.65 70.1 696.2 516.0 696.2 516.0 212.2 516.0 184.65 516.0 155.45" fill="#918c8c" fill-rule="evenodd" stroke="none"/>
    <path d="M1201.8 266.65 L1158.15 266.65 1158.15 79.05 1459.25 79.05 1459.25 93.0 1201.8 266.65 M1459.25 172.85 L1459.25 181.65 1370.1 252.05 1459.25 193.2 1459.25 266.65 1330.5 266.65 1459.25 172.85 M1289.5 320.45 L1200.6 388.55 1317.0 312.8 1343.85 292.95 1289.5 320.45 M1459.25 384.6 L1459.25 458.95 1364.35 458.95 1459.25 384.6 M1256.25 458.95 L1158.15 458.95 1158.15 283.55 1459.25 283.55 1459.25 310.25 1256.25 458.95 M0.0 696.2 L0.0 296.8 58.45 252.3 58.45 696.2 0.0 696.2 M58.45 134.55 L0.0 182.6 0.0 72.95 58.45 72.95 58.45 134.55 M509.85 72.95 L70.1 447.4 70.1 72.95 509.85 72.95 M70.1 546.65 L516.0 155.45 516.0 184.65 314.3 388.55 516.0 212.2 516.0 696.2 70.1 696.2 70.1 546.65 M340.6 472.0 L193.4 620.25 393.15 451.0 340.6 472.0" fill="#242a26" fill-opacity="0.3019608" fill-rule="evenodd" stroke="none"/>
    <path d="M1459.25 93.0 L1459.25 79.05 1158.15 79.05 1158.15 266.65 1201.8 266.65 1330.5 266.65 1459.25 266.65 1459.25 193.2 1459.25 181.65 1459.25 172.85 1459.25 93.0 M1480.25 470.6 L1480.25 62.25 1467.95 66.45 1467.95 466.9 1480.25 470.6 1517.95 470.6 1523.6 473.25 1523.6 478.85 1490.5 478.85 1467.6 501.7 1163.8 501.7 1140.9 478.85 1111.15 478.85 1107.75 476.3 1107.75 470.6 1151.15 470.6 1151.15 466.9 1151.15 66.45 1151.15 62.25 1480.25 62.25 M1459.25 310.25 L1459.25 384.6 1459.25 458.95 1364.35 458.95 1256.25 458.95 1158.15 458.95 1158.15 283.55 1459.25 283.55 1459.25 310.25 M1646.25 668.2 L1646.25 673.45 1646.25 715.75 1646.25 1082.55 0.0 1082.55 0.0 715.75 0.0 703.4 0.0 696.2 58.45 696.2 58.45 252.3 58.45 134.55 58.45 72.95 0.0 72.95 0.0 62.25 0.0 31.1 608.35 31.1 612.8 39.5 612.8 667.75 608.35 673.45 1646.25 673.45 M1646.25 668.2 L612.8 668.2 612.8 667.75 M1107.75 470.6 L1111.15 473.25 1523.6 473.25 M1111.15 473.25 L1111.15 478.85 M516.0 155.45 L516.0 72.95 509.85 72.95 70.1 72.95 70.1 447.4 70.1 546.65 70.1 696.2 516.0 696.2 516.0 212.2 516.0 184.65 516.0 155.45 M548.35 62.25 L608.35 31.1 608.35 673.45 608.35 715.75 1646.25 715.75 M548.35 715.75 L548.35 703.4 0.0 703.4 M548.35 715.75 L608.35 715.75 M0.0 715.75 L548.35 715.75 M548.35 703.4 L548.35 62.25 0.0 62.25 M1151.15 466.9 L1467.95 466.9 M1140.9 478.85 L1490.5 478.85 M1467.95 66.45 L1151.15 66.45" fill="none" stroke="#251c18" stroke-linecap="round" stroke-linejoin="round" stroke-width="1.2000000000000002"/>
    <path d="M1457.9 760.7 L1432.45 736.4 M1138.85 736.4 L1151.7 760.7 M1377.45 789.1 L1352.75 760.7 M1631.75 789.1 L1595.4 760.7 M1448.55 870.9 L1408.2 824.45 M996.55 824.45 L1007.75 870.9 M1617.55 1065.35 L1554.95 993.3 M1037.15 993.3 L1054.45 1065.35 M1524.7 824.45 L1487.65 789.1 M1417.8 993.3 L1369.95 929.1 M726.6 929.1 L717.1 993.3 M747.4 789.1 L751.6 760.7 M319.75 760.7 L294.75 789.1 M988.05 789.1 L981.25 760.7 M923.4 760.7 L919.95 736.4 M577.75 736.4 L566.5 760.7 M28.7 760.7 L62.05 736.4 M146.4 760.7 L174.9 736.4 M444.75 760.7 L461.0 736.4 M515.6 870.9 L537.05 824.45 M263.65 824.45 L222.8 870.9 M735.25 870.9 L742.15 824.45 M332.3 929.1 L371.15 870.9 M459.1 993.3 L488.75 929.1 M71.6 824.45 L113.05 789.1 M241.3 1065.35 L289.4 993.3 M1240.8 929.1 L1210.0 870.9 M947.4 929.1 L939.1 870.9 M932.5 824.45 L927.45 789.1 M1185.45 824.45 L1166.75 789.1" fill="none" stroke="#333333" stroke-linecap="round" stroke-linejoin="round" stroke-width="0.05"/>
    <path d="M1432.45 736.4 L1138.85 736.4 919.95 736.4 577.75 736.4 461.0 736.4 174.9 736.4 62.05 736.4 0.0 736.4 M1151.7 760.7 L1352.75 760.7 1457.9 760.7 1595.4 760.7 1646.25 760.7 M1377.45 789.1 L1487.65 789.1 1631.75 789.1 1646.25 789.1 M1646.25 736.4 L1432.45 736.4 M1408.2 824.45 L1185.45 824.45 996.55 824.45 932.5 824.45 742.15 824.45 537.05 824.45 263.65 824.45 71.6 824.45 0.0 824.45 M1007.75 870.9 L1210.0 870.9 1448.55 870.9 1646.25 870.9 M1554.95 993.3 L1417.8 993.3 1037.15 993.3 717.1 993.3 459.1 993.3 289.4 993.3 0.0 993.3 M1054.45 1065.35 L1617.55 1065.35 1646.25 1065.35 M1408.2 824.45 L1524.7 824.45 1646.25 824.45 M1369.95 929.1 L1240.8 929.1 947.4 929.1 726.6 929.1 488.75 929.1 332.3 929.1 0.0 929.1 M1554.95 993.3 L1646.25 993.3 M1369.95 929.1 L1646.25 929.1 M751.6 760.7 L566.5 760.7 444.75 760.7 319.75 760.7 146.4 760.7 28.7 760.7 0.0 760.7 M294.75 789.1 L747.4 789.1 927.45 789.1 988.05 789.1 1166.75 789.1 1377.45 789.1 M981.25 760.7 L923.4 760.7 751.6 760.7 M981.25 760.7 L1151.7 760.7 M0.0 789.1 L113.05 789.1 294.75 789.1 M222.8 870.9 L371.15 870.9 515.6 870.9 735.25 870.9 939.1 870.9 1007.75 870.9 M0.0 1065.35 L241.3 1065.35 1054.45 1065.35 M0.0 870.9 L222.8 870.9" fill="none" stroke="#333333" stroke-linecap="round" stroke-linejoin="round" stroke-width="1.2000000000000002"/>
    <path d="M523.1 305.35 Q531.8 304.05 540.5 305.35 537.55 351.35 540.5 394.35 532.8 395.8 523.1 394.35 520.6 350.85 523.1 305.35" fill="url(#gradient2)" fill-rule="evenodd" stroke="none"/>
    <path d="M523.1 305.35 Q531.8 304.05 540.5 305.35 537.55 351.35 540.5 394.35 532.8 395.8 523.1 394.35 520.6 350.85 523.1 305.35 Z" fill="none" stroke="#669066" stroke-linecap="round" stroke-linejoin="round" stroke-width="0.05"/>
    <path d="M1289.5 320.45 L1343.85 292.95 1317.0 312.8 1200.6 388.55 1289.5 320.45 M1201.8 266.65 L1459.25 93.0 1459.25 172.85 1330.5 266.65 1201.8 266.65 M1459.25 193.2 L1370.1 252.05 1459.25 181.65 1459.25 193.2 M1459.25 310.25 L1459.25 384.6 1364.35 458.95 1256.25 458.95 1459.25 310.25 M340.6 472.0 L393.15 451.0 193.4 620.25 340.6 472.0 M58.45 252.3 L0.0 296.8 0.0 182.6 58.45 134.55 58.45 252.3 M516.0 212.2 L314.3 388.55 516.0 184.65 516.0 212.2 M70.1 447.4 L509.85 72.95 516.0 72.95 516.0 155.45 70.1 546.65 70.1 447.4" fill="#242a26" fill-opacity="0.2" fill-rule="evenodd" stroke="none"/>
  </g>
  <defs>
    <linearGradient gradientTransform="matrix(1.2571, 0.0, 0.0, 1.2571, 379.6, 295.8)" gradientUnits="userSpaceOnUse" id="gradient0" spreadMethod="pad" x1="-819.2" x2="819.2">
      <stop offset="0.0" stop-color="#8c816a"/>
      <stop offset="1.0" stop-color="#575d51"/>
    </linearGradient>
    <linearGradient gradientTransform="matrix(0.5809, -0.7681, 0.1781, 0.1347, 791.75, 1037.65)" gradientUnits="userSpaceOnUse" id="gradient1" spreadMethod="pad" x1="-819.2" x2="819.2">
      <stop offset="0.0" stop-color="#5e6440"/>
      <stop offset="0.5686274509803921" stop-color="#6b674d"/>
      <stop offset="1.0" stop-color="#48472b"/>
    </linearGradient>
    <linearGradient gradientTransform="matrix(0.0, 0.052, -0.0551, 0.0, 531.2, 349.9)" gradientUnits="userSpaceOnUse" id="gradient2" spreadMethod="pad" x1="-819.2" x2="819.2">
      <stop offset="0.3843137254901961" stop-color="#b6b5b5"/>
      <stop offset="0.6196078431372549" stop-color="#9f9c9c"/>
      <stop offset="0.9215686274509803" stop-color="#777574"/>
    </linearGradient>
  </defs>
</svg>
