<?xml version="1.0" encoding="UTF-8" standalone="no"?>
<svg xmlns:xlink="http://www.w3.org/1999/xlink" height="300.05px" width="105.75px" xmlns="http://www.w3.org/2000/svg">
  <g transform="matrix(1.0, 0.0, 0.0, 1.0, 12.8, 2.6)">
    <path d="M55.95 67.3 L55.95 67.2 56.05 67.25 56.1 67.25 57.55 77.6 Q58.9 91.3 58.6 108.7 58.25 130.4 56.7 144.45 55.95 151.5 55.25 154.25 L55.15 154.2 55.1 154.25 57.15 120.8 Q57.9 95.75 55.95 67.3 M53.1 251.45 L53.2 251.45 Q55.95 262.95 56.25 269.85 56.5 275.3 55.3 280.6 L53.75 284.65 51.75 288.75 51.55 288.75 Q53.45 284.4 53.75 283.15 55.1 277.2 55.2 272.4 55.5 263.65 53.05 251.55 L53.1 251.45" fill="#574a3a" fill-rule="evenodd" stroke="none"/>
    <path d="M55.15 154.2 L55.25 154.25 Q55.95 151.5 56.7 144.45 58.25 130.4 58.6 108.7 58.9 91.3 57.55 77.6 L56.1 67.25 56.05 67.25 55.95 67.2 55.95 67.3 Q39.25 39.6 4.4 37.7 L92.35 -2.0 Q86.2 22.15 88.2 34.55 99.1 110.8 72.15 170.65 60.8 213.75 62.45 259.8 65.85 277.3 72.9 288.25 L47.9 297.45 Q51.05 293.75 51.55 288.75 L51.75 288.75 53.75 284.65 55.3 280.6 Q56.5 275.3 56.25 269.85 55.95 262.95 53.2 251.45 L53.1 251.45 Q42.45 226.8 55.15 154.2" fill="#e5c6bb" fill-rule="evenodd" stroke="none"/>
    <path d="M55.95 67.3 Q57.9 95.75 57.15 120.8 L55.1 154.25 55.15 154.2 Q42.45 226.8 53.1 251.45 L53.05 251.55 Q55.5 263.65 55.2 272.4 55.1 277.2 53.75 283.15 53.45 284.4 51.55 288.75 51.05 293.75 47.9 297.45 L-10.25 287.1 -9.0 281.4 -7.75 275.55 -7.4 273.6 Q2.1 223.8 -4.95 174.85 -14.0 111.95 -11.75 43.65 L4.4 37.7 Q39.25 39.6 55.95 67.3" fill="#f4ccc1" fill-rule="evenodd" stroke="none"/>
    <path d="M72.9 288.25 Q65.85 277.3 62.45 259.8 60.8 213.75 72.15 170.65 99.1 110.8 88.2 34.55 86.2 22.15 92.35 -2.0 M-7.4 273.6 Q2.1 223.8 -4.95 174.85 -14.0 111.95 -11.75 43.65" fill="none" stroke="#574a3a" stroke-linecap="round" stroke-linejoin="round" stroke-width="1.2000000000000002"/>
    <path d="M-10.15 287.1 Q-10.15 287.25 -10.25 287.15 L-10.3 287.05 -9.3 281.55 -9.3 281.3 -9.25 281.2 -8.25 275.6 -8.25 275.4 -7.95 273.45 -7.95 273.4 Q-7.75 272.85 -7.2 272.95 -6.6 273.15 -6.8 273.7 L-7.2 275.55 -7.2 275.7 -7.25 275.8 -8.55 281.05 -8.65 281.35 -8.65 281.45 -8.7 281.5 -8.7 281.65 -9.95 286.55 -10.15 287.1" fill="#574a3a" fill-rule="evenodd" stroke="none"/>
  </g>
</svg>
