<?xml version="1.0" encoding="UTF-8" standalone="no"?>
<svg xmlns:xlink="http://www.w3.org/1999/xlink" height="97.55px" width="207.25px" xmlns="http://www.w3.org/2000/svg">
  <g transform="matrix(1.0, 0.0, 0.0, 1.0, -9.9, -66.85)">
    <path d="M212.95 102.95 Q217.8 121.55 216.1 134.85 214.05 147.35 207.75 153.4 201.45 159.5 194.8 162.7 188.05 165.85 169.05 160.15 L143.3 158.75 Q130.15 156.3 99.7 160.65 L79.55 161.75 71.15 160.7 Q55.75 158.85 59.25 150.15 L52.8 150.5 Q43.7 147.8 44.1 141.5 34.3 138.2 31.3 134.45 29.2 131.85 30.45 128.9 34.35 126.75 40.3 124.45 43.45 126.85 47.55 127.6 50.15 124.05 55.1 124.4 67.5 122.95 78.95 124.8 L93.4 127.35 111.0 134.55 Q123.65 140.75 185.4 116.75 L189.6 113.75 212.95 102.95 M59.25 150.15 L68.05 148.0 Q73.55 146.3 79.25 147.95 73.55 146.3 68.05 148.0 L59.25 150.15 M44.1 141.5 Q44.5 138.15 50.5 137.1 58.4 133.3 62.6 133.35 72.85 135.0 84.6 133.55 72.85 135.0 62.6 133.35 58.4 133.3 50.5 137.1 44.5 138.15 44.1 141.5" fill="#e5c6bb" fill-rule="evenodd" stroke="none"/>
    <path d="M13.1 113.4 Q6.35 105.5 17.2 98.2 26.45 97.45 33.15 92.65 36.2 89.65 39.8 90.45 50.4 93.15 61.5 92.8 L102.45 87.6 Q125.9 84.75 143.15 71.7 L144.6 70.55 148.8 66.95 189.6 113.75 185.4 116.75 Q123.65 140.75 111.0 134.55 L93.4 127.35 78.95 124.8 Q67.5 122.95 55.1 124.4 50.15 124.05 47.55 127.6 43.45 126.85 40.3 124.45 44.25 123.0 49.15 121.4 61.95 119.05 73.85 120.95 L60.0 112.7 Q49.35 110.75 36.5 113.9 27.25 118.5 26.6 114.9 L28.75 113.65 Q31.5 111.6 37.85 108.75 44.2 105.85 47.6 106.35 52.3 106.85 57.05 106.25 66.35 104.15 63.3 100.0 49.0 100.0 37.5 95.1 L17.75 104.35 Q12.65 108.0 13.1 113.4 M26.6 114.9 L24.4 115.1 26.6 114.9" fill="#f4ccc1" fill-rule="evenodd" stroke="none"/>
    <path d="M30.45 128.9 Q25.45 131.05 22.9 129.45 14.65 124.1 18.0 117.65 14.95 115.5 13.1 113.4 12.65 108.0 17.75 104.35 L37.5 95.1 Q49.0 100.0 63.3 100.0 66.35 104.15 57.05 106.25 52.3 106.85 47.6 106.35 44.2 105.85 37.85 108.75 31.5 111.6 28.75 113.65 L26.6 114.9 Q27.25 118.5 36.5 113.9 49.35 110.75 60.0 112.7 L73.85 120.95 Q61.95 119.05 49.15 121.4 44.25 123.0 40.3 124.45 34.35 126.75 30.45 128.9 M24.4 115.1 L26.6 114.9 24.4 115.1 18.0 117.65 24.4 115.1" fill="#eeb3b3" fill-rule="evenodd" stroke="none"/>
    <path d="M212.95 102.95 Q217.8 121.55 216.1 134.85 214.05 147.35 207.75 153.4 201.45 159.5 194.8 162.7 188.05 165.85 169.05 160.15 L143.3 158.75 Q130.15 156.3 99.7 160.65 L79.55 161.75 71.15 160.7 Q55.75 158.85 59.25 150.15 L52.8 150.5 Q43.7 147.8 44.1 141.5 34.3 138.2 31.3 134.45 29.2 131.85 30.45 128.9 25.45 131.05 22.9 129.45 14.65 124.1 18.0 117.65 14.95 115.5 13.1 113.4 6.35 105.5 17.2 98.2 26.45 97.45 33.15 92.65 36.2 89.65 39.8 90.45 50.4 93.15 61.5 92.8 L102.45 87.6 Q125.9 84.75 143.15 71.7 M40.3 124.45 Q34.35 126.75 30.45 128.9 M57.05 106.25 Q52.3 106.85 47.6 106.35 44.2 105.85 37.85 108.75 31.5 111.6 28.75 113.65 L26.6 114.9 24.4 115.1 18.0 117.65 M73.85 120.95 Q61.95 119.05 49.15 121.4 44.25 123.0 40.3 124.45 M84.6 133.55 Q72.85 135.0 62.6 133.35 58.4 133.3 50.5 137.1 44.5 138.15 44.1 141.5 M79.25 147.95 Q73.55 146.3 68.05 148.0 L59.25 150.15" fill="none" stroke="#574a3a" stroke-linecap="round" stroke-linejoin="round" stroke-width="1.2000000000000002"/>
    <path d="M148.7 66.85 L148.85 66.85 148.85 67.0 145.25 70.55 145.0 70.75 144.9 70.9 144.75 71.0 143.45 72.2 Q143.0 72.5 142.6 72.05 142.3 71.6 142.75 71.2 L144.15 70.25 144.25 70.2 144.25 70.15 144.3 70.15 144.4 70.05 148.7 66.85 M169.05 160.7 L168.95 160.75 Q168.4 160.65 168.4 160.1 L168.6 159.7 169.0 159.55 175.55 159.6 177.25 159.5 177.45 159.45 180.0 159.15 Q180.1 159.05 180.1 159.2 L180.05 159.3 179.6 159.45 177.55 159.9 177.3 159.9 177.1 159.95 175.6 160.2 175.35 160.2 175.1 160.25 171.6 160.6 170.75 160.65 169.05 160.7" fill="#574a3a" fill-rule="evenodd" stroke="none"/>
  </g>
</svg>
