<?xml version="1.0" encoding="UTF-8" standalone="no"?>
<svg xmlns:xlink="http://www.w3.org/1999/xlink" height="181.75px" width="100.95px" xmlns="http://www.w3.org/2000/svg">
  <g transform="matrix(1.0, 0.0, 0.0, 1.0, 0.65, 0.6)">
    <path d="M66.8 0.0 L69.1 0.1 Q83.05 2.1 86.7 12.8 93.7 18.7 99.7 25.3 57.45 77.8 64.6 129.55 L65.55 135.6 Q72.95 135.3 78.4 132.35 83.2 134.5 84.65 138.3 86.8 145.1 87.4 151.8 84.55 168.7 68.85 172.65 39.2 172.25 9.55 165.35 2.55 155.4 0.55 145.95 -0.05 143.1 0.0 140.2 4.7 149.8 10.1 144.65 21.85 124.8 28.2 100.6 31.55 67.6 35.8 62.55 L38.5 50.95 39.15 53.05 Q45.6 56.9 56.95 36.45 65.3 16.45 52.95 15.95 50.6 17.75 48.65 19.65 52.3 5.45 66.8 0.0" fill="#545555" fill-rule="evenodd" stroke="none"/>
    <path d="M64.6 129.55 Q73.35 130.05 78.4 132.35 72.95 135.3 65.55 135.6 L64.6 129.55 M0.0 140.2 Q0.1 130.95 6.6 121.1 15.15 108.1 37.45 45.6 37.75 48.25 38.5 50.95 L35.8 62.55 Q31.55 67.6 28.2 100.6 21.85 124.8 10.1 144.65 4.7 149.8 0.0 140.2 M44.0 24.6 L45.45 14.6 Q50.25 5.55 57.3 2.15 61.6 0.0 66.8 0.0 52.3 5.45 48.65 19.65 46.0 22.05 44.0 24.6" fill="#656566" fill-rule="evenodd" stroke="none"/>
    <path d="M37.45 45.6 Q36.25 34.35 44.0 24.6 46.0 22.05 48.65 19.65 50.6 17.75 52.95 15.95 41.2 29.0 39.15 53.05 L38.5 50.95 Q37.75 48.25 37.45 45.6" fill="#aa6373" fill-rule="evenodd" stroke="none"/>
    <path d="M52.95 15.95 Q65.3 16.45 56.95 36.45 45.6 56.9 39.15 53.05 41.2 29.0 52.95 15.95" fill="#935663" fill-rule="evenodd" stroke="none"/>
    <path d="M87.4 151.8 Q88.55 164.75 83.75 177.25 61.45 183.85 34.95 177.25 L13.5 170.55 9.55 165.35 Q39.2 172.25 68.85 172.65 84.55 168.7 87.4 151.8" fill="#4f4f4f" fill-rule="evenodd" stroke="none"/>
    <path d="M99.7 25.3 Q57.45 77.8 64.6 129.55 73.35 130.05 78.4 132.35 83.2 134.5 84.65 138.3 86.8 145.1 87.4 151.8 88.55 164.75 83.75 177.25 61.45 183.85 34.95 177.25 L13.5 170.55 9.55 165.35 Q2.55 155.4 0.55 145.95 -0.05 143.1 0.0 140.2 0.1 130.95 6.6 121.1 15.15 108.1 37.45 45.6 36.25 34.35 44.0 24.6 L45.45 14.6 Q50.25 5.55 57.3 2.15 61.6 0.0 66.8 0.0 M48.65 19.65 Q50.6 17.75 52.95 15.95 65.3 16.45 56.95 36.45 45.6 56.9 39.15 53.05 L38.5 50.95 Q37.75 48.25 37.45 45.6 M48.65 19.65 Q46.0 22.05 44.0 24.6 M64.6 129.55 L65.55 135.6" fill="none" stroke="#31393d" stroke-linecap="round" stroke-linejoin="round" stroke-width="1.2000000000000002"/>
    <path d="M66.75 0.55 Q66.15 0.55 66.15 0.0 L66.35 -0.4 66.8 -0.55 68.45 -0.5 68.8 -0.45 69.1 -0.45 69.15 -0.4 69.2 -0.4 73.2 0.4 73.7 0.6 74.75 0.9 76.9 1.8 79.05 2.9 81.0 4.3 82.7 5.85 84.1 7.5 85.15 9.1 85.4 9.5 85.5 9.7 85.6 9.85 85.9 10.55 86.2 11.2 86.55 12.15 86.7 12.45 86.75 12.75 86.7 12.85 86.6 12.8 86.35 12.25 86.1 11.55 85.95 11.3 85.5 10.35 85.2 9.85 85.1 9.65 84.85 9.3 83.75 7.75 82.35 6.2 80.65 4.75 78.7 3.5 74.5 1.75 73.45 1.45 72.95 1.35 72.45 1.2 68.7 0.6 67.85 0.6 67.05 0.55 66.75 0.55" fill="#31393d" fill-rule="evenodd" stroke="none"/>
  </g>
</svg>
