<?xml version="1.0" encoding="UTF-8" standalone="no"?>
<svg xmlns:xlink="http://www.w3.org/1999/xlink" height="188.65px" width="115.05px" xmlns="http://www.w3.org/2000/svg">
  <g transform="matrix(1.0, 0.0, 0.0, 1.0, 0.55, 0.6)">
    <path d="M65.3 0.0 Q78.7 3.55 88.65 14.0 L88.65 14.05 89.05 14.25 Q109.1 25.6 109.1 32.35 L109.55 56.25 93.45 29.55 Q84.8 23.1 68.15 28.8 L41.6 38.0 Q24.95 43.85 28.2 65.55 27.2 74.5 24.15 78.05 21.05 81.6 18.3 81.3 12.0 80.6 6.1 73.05 7.35 81.5 14.65 85.2 20.0 96.7 19.85 115.25 L19.55 117.0 Q19.1 131.1 22.3 134.0 L22.3 126.55 Q26.5 160.2 44.95 179.0 40.4 176.4 37.55 172.95 -8.2 131.75 1.85 66.7 17.35 34.0 39.0 13.95 37.55 15.65 39.0 19.0 41.55 10.95 65.3 0.0" fill="#6593a6" fill-rule="evenodd" stroke="none"/>
    <path d="M44.95 179.0 Q26.5 160.2 22.3 126.55 L22.3 134.0 Q19.1 131.1 19.55 117.0 L19.85 115.25 Q20.0 96.7 14.65 85.2 7.35 81.5 6.1 73.05 12.0 80.6 18.3 81.3 21.05 81.6 24.15 78.05 27.2 74.5 28.2 65.55 24.95 43.85 41.6 38.0 L68.15 28.8 Q84.8 23.1 93.45 29.55 L109.55 56.25 Q57.6 76.15 42.95 91.05 45.0 134.1 65.15 158.4 L65.15 150.9 Q70.75 158.2 76.75 164.3 L79.1 166.7 Q91.95 180.85 61.15 184.75 51.35 182.7 44.95 179.0" fill="#5d8595" fill-rule="evenodd" stroke="none"/>
    <path d="M65.3 0.0 Q41.55 10.95 39.0 19.0 37.55 15.65 39.0 13.95 17.35 34.0 1.85 66.7 2.65 61.4 3.8 56.0 26.25 6.7 65.3 0.0" fill="#77a6b8" fill-rule="evenodd" stroke="none"/>
    <path d="M109.55 56.25 Q114.65 114.4 113.8 144.25 113.5 154.3 112.5 161.7 111.85 170.45 112.6 180.0 L109.7 174.95 Q108.75 182.25 104.95 185.35 105.95 182.85 105.95 179.95 L105.8 180.1 Q104.1 182.3 101.55 183.85 95.05 187.7 82.9 187.45 L69.0 186.05 61.15 184.75 Q91.95 180.85 79.1 166.7 L76.75 164.3 Q70.75 158.2 65.15 150.9 L65.15 158.4 Q45.0 134.1 42.95 91.05 57.6 76.15 109.55 56.25" fill="#577d8c" fill-rule="evenodd" stroke="none"/>
    <path d="M1.85 66.7 Q-8.2 131.75 37.55 172.95 40.4 176.4 44.95 179.0 51.35 182.7 61.15 184.75 L69.0 186.05 82.9 187.45 Q95.05 187.7 101.55 183.85 104.1 182.3 105.8 180.1 M109.55 56.25 Q114.65 114.4 113.8 144.25 113.5 154.3 112.5 161.7 M65.3 0.0 Q26.25 6.7 3.8 56.0 2.65 61.4 1.85 66.7" fill="none" stroke="#31393d" stroke-linecap="round" stroke-linejoin="round" stroke-width="1.2000000000000002"/>
    <path d="M112.5 161.7 Q111.85 170.45 112.6 180.0 L109.7 174.95 Q108.75 182.25 104.95 185.35 105.95 182.85 105.95 179.95" fill="none" stroke="#31393d" stroke-linecap="round" stroke-linejoin="miter-clip" stroke-miterlimit="3.0" stroke-width="1.2000000000000002"/>
  </g>
</svg>
