<?xml version="1.0" encoding="UTF-8" standalone="no"?>
<svg xmlns:xlink="http://www.w3.org/1999/xlink" height="228.0px" width="115.3px" xmlns="http://www.w3.org/2000/svg">
  <g transform="matrix(1.0, 0.0, 0.0, 1.0, 0.5, 0.8)">
    <path d="M22.95 -0.25 Q25.25 -0.05 27.5 1.0 L30.15 2.45 51.35 40.6 Q48.5 73.15 51.9 111.75 54.6 156.75 70.75 169.95 78.45 176.2 98.05 176.9 104.8 178.15 108.0 183.8 111.8 191.85 113.25 198.3 108.65 210.7 101.6 209.9 L100.8 205.75 99.95 201.6 Q87.6 234.1 35.65 213.8 25.75 196.6 14.4 185.0 4.15 180.95 3.35 164.9 13.9 166.05 22.35 150.7 24.75 126.0 17.5 90.6 18.25 75.4 17.75 66.25 15.8 32.25 10.4 21.15 6.75 13.65 15.0 1.6 L15.05 1.55 Q19.1 -0.55 22.95 -0.25 M91.4 185.75 Q97.35 191.1 99.95 201.6 97.35 191.1 91.4 185.75" fill="#545555" fill-rule="evenodd" stroke="none"/>
    <path d="M15.05 1.55 L15.0 1.6 Q6.75 13.65 10.4 21.15 15.8 32.25 17.75 66.25 18.25 75.4 17.5 90.6 24.75 126.0 22.35 150.7 13.9 166.05 3.35 164.9 3.2 162.35 3.3 159.55 5.95 107.9 4.95 83.2 9.3 82.75 8.0 67.75 6.7 52.7 3.55 38.65 2.3 20.75 6.45 10.25 L6.5 10.2 Q7.15 8.2 9.4 5.5 12.25 3.0 15.0 1.6 L15.0 1.55 15.05 1.55" fill="#656566" fill-rule="evenodd" stroke="none"/>
    <path d="M3.55 38.65 Q6.7 52.7 8.0 67.75 9.3 82.75 4.95 83.2 -0.1 75.55 0.0 60.2 0.05 44.85 3.55 38.65" fill="#aa6373" fill-rule="evenodd" stroke="none"/>
    <path d="M35.65 213.8 Q87.6 234.1 99.95 201.6 L100.8 205.75 101.6 209.9 Q108.65 210.7 113.25 198.3 118.15 219.85 97.1 223.05 92.75 226.2 84.5 226.5 39.5 227.65 35.65 213.8 M97.1 223.05 Q102.7 218.85 101.6 209.9 102.7 218.85 97.1 223.05" fill="#4f4f4f" fill-rule="evenodd" stroke="none"/>
    <path d="M22.95 -0.25 Q19.1 -0.55 15.05 1.55 L15.0 1.6 Q12.25 3.0 9.4 5.5 7.15 8.2 6.5 10.2 L6.45 10.25 M3.55 38.65 Q0.05 44.85 0.0 60.2 -0.1 75.55 4.95 83.2" fill="none" stroke="#31393d" stroke-linecap="round" stroke-linejoin="round" stroke-width="1.0"/>
    <path d="M3.35 164.9 Q4.15 180.95 14.4 185.0 25.75 196.6 35.65 213.8 39.5 227.65 84.5 226.5 92.75 226.2 97.1 223.05 118.15 219.85 113.25 198.3 111.8 191.85 108.0 183.8 104.8 178.15 98.05 176.9 78.45 176.2 70.75 169.95 54.6 156.75 51.9 111.75 48.5 73.15 51.35 40.6 M99.95 201.6 Q97.35 191.1 91.4 185.75 M6.45 10.25 Q2.3 20.75 3.55 38.65 6.7 52.7 8.0 67.75 9.3 82.75 4.95 83.2 5.95 107.9 3.3 159.55 3.2 162.35 3.35 164.9 M99.95 201.6 L100.8 205.75 101.6 209.9 Q102.7 218.85 97.1 223.05" fill="none" stroke="#31393d" stroke-linecap="round" stroke-linejoin="round" stroke-width="1.2000000000000002"/>
    <path d="M72.45 180.4 Q72.35 180.5 72.35 180.35 72.25 180.25 72.4 180.25 L72.65 180.2 73.3 180.15 74.3 180.1 74.6 180.05 75.6 180.05 75.95 180.0 76.75 180.0 77.15 180.05 78.0 180.05 78.85 180.15 80.7 180.35 84.45 181.2 87.8 182.6 88.5 183.0 88.85 183.15 91.1 184.7 91.75 185.3 91.8 185.3 Q92.25 185.65 91.85 186.15 L91.0 186.2 91.0 186.15 88.6 184.25 87.3 183.45 84.15 181.95 82.4 181.4 80.6 180.95 78.8 180.65 77.1 180.45 76.7 180.45 76.35 180.4 72.45 180.4 M22.9 0.2 L22.8 0.2 Q22.3 0.1 22.4 -0.3 22.5 -0.8 22.95 -0.7 L23.2 -0.7 23.7 -0.55 24.1 -0.5 24.9 -0.25 25.1 -0.15 25.75 0.0 26.55 0.35 26.85 0.55 27.15 0.65 27.5 0.9 27.55 1.0 27.45 1.05 27.25 1.0 27.0 0.9 26.55 0.8 26.0 0.6 24.75 0.35 23.95 0.25 23.1 0.25 22.9 0.2" fill="#31393d" fill-rule="evenodd" stroke="none"/>
  </g>
</svg>
