<?xml version="1.0" encoding="UTF-8" standalone="no"?>
<svg xmlns:xlink="http://www.w3.org/1999/xlink" height="67.7px" width="64.3px" xmlns="http://www.w3.org/2000/svg">
  <g transform="matrix(1.0, 0.0, 0.0, 1.0, 3.9, 17.8)">
    <path d="M-2.95 22.3 Q-3.9 14.55 -3.35 2.0 -2.5 -7.45 1.1 -13.2 1.5 -21.7 20.65 -14.5 L58.35 33.65 59.8 34.9 Q48.1 48.35 28.8 47.05 12.45 46.15 4.15 36.9 -2.05 30.0 -2.95 22.3" fill="#5d8595" fill-rule="evenodd" stroke="none"/>
    <path d="M-2.95 22.3 Q-2.05 30.0 4.15 36.9 12.45 46.15 28.8 47.05 48.1 48.35 59.8 34.9" fill="none" stroke="#31393d" stroke-linecap="round" stroke-linejoin="miter-clip" stroke-miterlimit="5.0" stroke-width="1.2000000000000002"/>
    <path d="M-3.4 1.95 L-3.3 1.9 Q-3.2 1.9 -3.25 2.0 L-2.85 17.55 -2.35 22.2 -2.3 22.25 Q-2.3 22.8 -2.85 22.9 -3.5 22.9 -3.5 22.35 L-3.9 14.05 -3.4 1.95" fill="#31393d" fill-rule="evenodd" stroke="none"/>
    <path d="M-1.0 3.45 L1.8 -8.3 8.9 -6.55 5.9 5.25 -1.0 3.45" fill="url(#gradient0)" fill-rule="evenodd" stroke="none"/>
    <path d="M-3.25 23.9 L-3.05 22.7 Q-2.15 20.8 -0.7 20.4 2.2 24.0 9.65 20.35 L10.15 20.85 Q12.3 22.9 14.6 26.5 L15.15 27.4 16.2 29.35 18.85 36.3 Q20.95 42.1 23.65 43.6 L23.75 43.7 Q25.0 45.05 25.35 46.15 L25.4 46.3 25.4 47.4 Q24.95 48.9 23.3 48.55 21.65 48.15 19.25 46.7 7.55 45.4 3.05 39.05 -2.55 30.4 -3.2 25.9 L-3.25 23.9 M5.6 23.3 L5.6 23.05 Q4.6 23.6 3.1 24.85 L1.7 24.25 0.6 23.95 Q2.75 25.15 2.85 25.65 L4.1 31.1 Q4.85 34.3 5.45 35.35 7.4 38.9 8.55 39.95 10.45 41.65 15.75 43.6 L16.8 44.0 17.85 44.0 Q11.1 38.5 6.7 32.5 2.3 26.45 5.6 23.3 M5.75 24.25 Q5.0 24.5 5.15 27.75 7.1 32.75 8.65 33.95 6.4 28.65 5.75 24.25 M-1.3 23.85 Q-1.85 23.8 -2.0 25.8 -0.1 31.85 1.9 35.2 3.7 37.8 3.0 34.55 0.65 30.7 -1.3 23.85 M20.2 45.55 Q21.75 47.25 23.25 47.6 24.4 47.0 22.95 45.85 19.1 44.5 20.2 45.55" fill="url(#gradient1)" fill-rule="evenodd" stroke="none"/>
    <path d="M5.6 23.3 Q2.3 26.45 6.7 32.5 11.1 38.5 17.85 44.0 L16.8 44.0 15.75 43.6 Q10.45 41.65 8.55 39.95 7.4 38.9 5.45 35.35 4.85 34.3 4.1 31.1 L2.85 25.65 Q2.75 25.15 0.6 23.95 L1.7 24.25 3.1 24.85 Q4.6 23.6 5.6 23.05 L5.6 23.3 M11.15 40.85 Q12.9 42.15 14.6 42.2 L13.9 41.55 9.4 36.6 5.0 31.7 5.55 33.35 Q5.55 35.25 7.7 37.95 9.85 40.65 11.15 40.85" fill="#31393d" fill-rule="evenodd" stroke="none"/>
    <path d="M11.15 40.85 Q9.85 40.65 7.7 37.95 5.55 35.25 5.55 33.35 L5.0 31.7 9.4 36.6 13.9 41.55 14.6 42.2 Q12.9 42.15 11.15 40.85" fill="url(#gradient2)" fill-rule="evenodd" stroke="none"/>
    <path d="M-1.3 23.85 Q0.65 30.7 3.0 34.55 3.7 37.8 1.9 35.2 -0.1 31.85 -2.0 25.8 -1.85 23.8 -1.3 23.85 M5.75 24.25 Q6.4 28.65 8.65 33.95 7.1 32.75 5.15 27.75 5.0 24.5 5.75 24.25 M20.2 45.55 Q19.1 44.5 22.95 45.85 24.4 47.0 23.25 47.6 21.75 47.25 20.2 45.55" fill="#749fb1" fill-rule="evenodd" stroke="none"/>
    <path d="M-3.25 23.9 L-3.2 25.9 Q-2.55 30.4 3.05 39.05 7.55 45.4 19.25 46.7 21.65 48.15 23.3 48.55 24.95 48.9 25.4 47.4 L25.4 46.3" fill="none" stroke="#31393d" stroke-linecap="round" stroke-linejoin="round" stroke-width="0.8"/>
    <path d="M-0.7 20.3 Q-0.6 20.2 -0.6 20.35 L-0.65 20.45 -0.95 20.6 -1.0 20.65 -1.3 20.8 -1.35 20.85 -1.45 20.9 -1.5 21.0 -1.65 21.1 -1.95 21.4 -2.3 21.9 -2.4 22.1 -2.45 22.15 -2.5 22.25 -2.55 22.45 -2.65 22.6 -2.75 22.8 -2.7 22.8 -2.85 23.9 -2.8 23.95 Q-2.9 24.3 -3.25 24.3 -3.65 24.3 -3.65 23.9 L-3.55 23.2 -3.35 22.55 -3.3 22.55 -3.1 22.15 -2.95 21.95 -2.9 21.9 -2.85 21.8 -2.7 21.6 -2.4 21.3 -2.25 21.1 -2.1 20.95 -1.9 20.85 -1.7 20.7 -1.65 20.65 -1.15 20.4 -1.0 20.35 -0.9 20.35 -0.7 20.3 M25.7 46.0 L25.75 46.05 Q25.85 46.45 25.45 46.55 L24.95 46.25 24.9 46.1 24.9 46.0 24.85 45.8 24.65 45.4 24.6 45.25 24.55 45.15 23.85 44.05 23.75 43.85 23.55 43.65 23.55 43.5 23.7 43.5 24.8 44.6 25.0 44.85 25.1 44.95 25.35 45.3 25.45 45.55 25.65 45.85 25.7 46.0 M16.25 29.3 L16.25 29.4 Q16.1 29.55 16.1 29.35 L15.35 28.3 15.2 28.0 14.9 27.6 14.85 27.55 14.85 27.5 14.8 27.45 14.65 27.2 14.35 26.8 14.3 26.75 14.3 26.65 14.25 26.65 12.95 24.8 12.8 24.55 10.85 21.95 10.6 21.7 10.0 20.95 9.95 20.95 9.9 20.8 9.85 20.7 9.55 20.4 9.55 20.3 Q9.55 20.1 9.7 20.25 L10.3 20.7 10.25 20.7 10.75 21.1 11.25 21.55 13.4 24.05 14.55 25.7 14.85 26.3 14.9 26.3 14.9 26.35 14.95 26.45 15.05 26.55 15.4 27.25 15.45 27.3 15.5 27.45 16.05 28.65 16.25 29.3" fill="#31393d" fill-rule="evenodd" stroke="none"/>
    <path d="M6.75 0.4 Q5.25 -0.7 4.4 1.1 3.55 2.85 4.2 5.15 L4.1 5.15 3.1 3.4 2.85 1.35 2.55 1.4 1.5 2.25 Q1.8 1.4 2.4 1.05 2.9 0.3 3.0 -3.15 L2.75 -3.35 2.55 -3.4 Q2.2 -3.65 1.35 -2.8 L1.4 -2.95 1.8 -3.55 Q2.1 -3.95 2.75 -3.95 3.15 -3.95 3.75 -5.4 4.5 -7.15 5.55 -7.85 5.1 -7.15 4.95 -5.8 4.8 -4.5 5.15 -3.85 L7.4 -3.75 7.3 -3.8 Q6.35 -3.75 5.6 -3.25 4.8 -2.8 4.7 -0.4 L6.25 -0.25 6.9 0.4 6.75 0.4" fill="#3c454a" fill-rule="evenodd" stroke="none"/>
    <path d="M17.7 29.5 L17.6 29.75 14.5 29.8 14.5 29.35 15.7 29.15 17.25 29.15 17.7 29.5 M7.65 44.85 L7.2 44.8 6.25 44.0 Q4.1 42.25 4.4 42.05 L6.0 42.95 7.85 44.55 7.85 44.8 6.65 44.25 7.65 44.85 M3.8 39.0 L5.25 38.0 4.8 36.8 4.15 35.45 4.1 35.05 4.3 35.3 Q5.75 37.35 5.75 38.0 L5.7 38.9 5.45 39.4 3.7 39.5 3.8 39.0 M17.7 45.55 L18.2 44.55 18.55 44.35 18.65 44.55 18.2 45.55 Q17.95 45.6 18.1 45.05 18.25 44.55 17.7 45.55 M10.65 33.65 L10.65 33.6 11.0 33.95 11.35 34.45 Q11.85 35.15 11.65 35.3 L10.95 34.7 10.4 33.95 10.65 33.65 M13.05 31.05 L12.45 30.65 12.45 29.95 12.65 30.2 Q13.05 30.65 13.05 31.05 M21.8 33.55 L21.7 33.25 22.25 33.35 22.2 33.55 21.85 33.4 Q21.7 33.25 21.8 33.55 M17.55 36.95 L19.7 38.1 Q20.55 38.7 20.8 39.9 L19.9 40.55 19.0 40.95 Q18.65 40.85 18.75 40.55 19.15 40.15 20.05 39.85 L18.75 38.8 Q17.85 38.1 17.3 37.25 L17.55 36.95 M21.8 31.85 L21.8 32.3 21.4 32.3 21.5 31.9 21.8 31.85 M23.6 38.05 L23.85 37.65 24.55 38.9 24.85 40.1 24.65 40.15 Q24.2 39.7 23.6 38.05 M20.85 43.7 L21.7 45.35 21.35 45.6 Q20.85 45.4 20.55 44.2 L20.85 43.7 M25.15 48.1 L24.85 48.15 23.35 47.2 22.8 46.75 23.15 46.5 Q23.75 46.55 24.9 47.3 26.05 48.0 25.15 48.1" fill="#e9feff" fill-opacity="0.4" fill-rule="evenodd" stroke="none"/>
    <path d="M14.5 29.35 L14.0 29.85 13.8 31.15 Q13.8 32.85 16.15 34.9 18.3 36.85 19.75 36.85 L21.8 36.4 21.7 36.6 21.1 38.2 21.7 43.75 24.2 44.0 24.7 43.95 24.35 44.85 Q23.7 45.75 23.15 45.8 L26.2 48.45 27.25 49.75 26.95 49.9 Q25.15 49.6 17.5 46.75 11.65 44.55 7.65 44.85 L6.65 44.25 7.85 44.8 7.85 44.55 6.0 42.95 4.4 42.05 Q4.1 42.25 6.25 44.0 L7.2 44.8 Q4.5 44.45 2.7 41.55 1.3 39.25 1.3 37.5 2.6 38.95 3.8 39.0 L3.7 39.5 5.45 39.4 5.7 38.9 5.75 38.0 Q5.75 37.35 4.3 35.3 L3.65 33.95 4.7 32.95 5.65 34.7 5.7 34.85 Q6.15 36.85 7.15 38.2 L8.05 39.25 7.95 39.25 7.45 39.75 6.45 40.8 Q7.4 41.9 11.45 43.75 15.85 45.8 17.7 45.55 18.25 44.55 18.1 45.05 17.95 45.6 18.2 45.55 L18.65 44.55 18.55 44.35 18.2 44.55 Q18.1 44.0 17.3 43.45 L16.95 43.3 Q16.7 41.7 15.2 41.0 L12.0 39.15 11.25 38.55 11.3 38.35 10.35 36.45 9.05 34.7 7.15 32.75 9.3 33.1 10.4 33.45 10.65 33.65 10.4 33.95 10.95 34.7 11.65 35.3 Q11.85 35.15 11.35 34.45 L11.0 33.95 Q12.75 35.05 14.2 35.05 L15.0 34.95 14.95 34.7 14.0 32.8 13.05 31.05 Q13.05 30.65 12.65 30.2 L12.45 29.95 12.65 28.85 15.7 27.6 Q18.7 27.6 22.2 30.8 25.15 33.6 25.15 34.25 L25.05 35.3 24.55 35.95 24.15 34.3 Q23.85 33.35 23.4 33.1 L22.4 33.65 22.3 34.55 22.2 34.1 21.8 33.55 Q21.7 33.25 21.85 33.4 L22.2 33.55 22.25 33.35 21.7 33.25 19.15 30.7 17.7 29.5 17.25 29.15 15.7 29.15 14.5 29.35 M17.55 36.95 L15.25 35.95 12.85 35.45 Q12.1 35.45 12.2 35.65 L12.5 35.75 Q14.45 38.75 15.5 39.65 16.9 40.8 18.75 40.55 18.65 40.85 19.0 40.95 L19.9 40.55 20.8 39.9 Q20.55 38.7 19.7 38.1 L17.55 36.95 M10.1 37.2 L9.8 36.75 9.25 35.85 10.1 37.2 M21.8 31.85 L21.5 31.9 21.4 32.3 21.8 32.3 21.8 31.85 M25.15 48.1 Q26.05 48.0 24.9 47.3 23.75 46.55 23.15 46.5 L22.8 46.75 23.35 47.2 24.85 48.15 25.15 48.1 M20.85 43.7 L20.55 44.2 Q20.85 45.4 21.35 45.6 L21.7 45.35 20.85 43.7" fill="#e9feff" fill-opacity="0.101960786" fill-rule="evenodd" stroke="none"/>
    <path d="M23.6 38.05 L22.95 37.3 Q23.75 37.3 24.3 36.9 L25.15 38.05 25.7 40.9 Q25.25 42.6 25.05 41.5 L24.65 40.15 24.85 40.1 24.55 38.9 23.85 37.65 23.6 38.05" fill="#e9feff" fill-opacity="0.2" fill-rule="evenodd" stroke="none"/>
  </g>
  <defs>
    <radialGradient cx="0" cy="0" gradientTransform="matrix(0.0083, 8.0E-4, -0.0012, 0.0124, 4.25, -1.75)" gradientUnits="userSpaceOnUse" id="gradient0" r="819.2" spreadMethod="pad">
      <stop offset="0.0" stop-color="#486874"/>
      <stop offset="0.5372549019607843" stop-color="#5d8595"/>
    </radialGradient>
    <radialGradient cx="0" cy="0" gradientTransform="matrix(0.0132, -0.007, 0.0116, 0.022, 9.75, 35.7)" gradientUnits="userSpaceOnUse" id="gradient1" r="819.2" spreadMethod="pad">
      <stop offset="0.4588235294117647" stop-color="#7a8595"/>
      <stop offset="0.7529411764705882" stop-color="#5d8595"/>
      <stop offset="1.0" stop-color="#aa6373"/>
    </radialGradient>
    <radialGradient cx="0" cy="0" gradientTransform="matrix(0.0034, -0.0024, 0.006, 0.0087, 10.25, 36.75)" gradientUnits="userSpaceOnUse" id="gradient2" r="819.2" spreadMethod="pad">
      <stop offset="0.4588235294117647" stop-color="#74444f"/>
      <stop offset="0.8666666666666667" stop-color="#aa6373"/>
    </radialGradient>
  </defs>
</svg>
