<?xml version="1.0" encoding="UTF-8" standalone="no"?>
<svg xmlns:xlink="http://www.w3.org/1999/xlink" height="38.3px" width="102.75px" xmlns="http://www.w3.org/2000/svg">
  <g transform="matrix(1.0, 0.0, 0.0, 1.0, 52.85, 10.45)">
    <path d="M41.85 16.85 Q32.25 20.35 21.5 16.55 18.35 14.85 17.7 11.45 17.4 10.05 17.55 8.4 18.0 4.5 19.1 1.75 L19.15 1.65 19.15 1.6 19.3 1.35 Q20.9 -2.3 23.85 -3.7 30.35 -7.85 33.85 -8.95 L37.35 -9.95 39.05 -10.4 45.2 -10.0 46.3 -9.8 Q49.75 -8.95 49.9 -5.75 50.0 -0.9 49.45 3.0 48.6 9.15 45.95 13.0 44.3 15.45 41.85 16.85 M-27.3 -2.55 L-25.9 -2.25 -25.6 -2.15 Q-18.9 0.0 -14.15 6.2 -12.7 8.05 -11.4 10.45 -8.0 16.6 -11.8 20.35 L-14.4 22.25 -19.2 24.95 -19.3 25.0 Q-22.65 26.55 -26.25 27.25 L-33.45 27.85 -35.85 27.2 Q-39.4 25.8 -42.7 22.75 -45.55 19.95 -48.15 15.8 -50.5 12.0 -52.55 6.8 -53.8 3.35 -49.55 1.0 -45.4 -0.9 -41.55 -1.95 L-41.15 -2.1 -40.95 -2.05 Q-34.5 -3.65 -29.05 -2.9 L-28.6 -2.85 -28.2 -2.8 -27.3 -2.55" fill="#533b1c" fill-rule="evenodd" stroke="none"/>
    <path d="M-28.3 -1.0 L-26.7 -0.6 Q-20.55 1.35 -16.15 7.1 -12.9 14.65 -16.4 21.85 -24.45 27.25 -33.95 27.0 -38.5 26.1 -42.45 22.3 -49.95 8.7 -41.4 -0.45 L-41.05 -0.55 -40.85 -0.5 Q-34.9 -2.0 -29.9 -1.3 L-29.5 -1.25 -28.3 -1.0" fill="#422b14" fill-rule="evenodd" stroke="none"/>
    <path d="M-28.65 24.5 L-28.75 24.45 -28.7 24.35 -28.55 24.3 -28.4 24.2 -28.25 24.2 -28.15 24.15 -27.85 24.1 -27.2 23.85 -25.25 23.3 -25.15 23.25 -24.9 23.2 -24.35 23.0 -24.1 22.95 -22.9 22.5 -22.8 22.45 -21.5 21.95 -21.25 21.8 -21.0 21.7 -19.5 20.85 -19.1 20.65 -18.95 20.5 -18.75 20.4 -18.15 20.0 -18.05 19.9 -17.95 19.85 -17.85 19.75 -17.75 19.7 -17.6 19.6 -17.5 19.5 -17.4 19.5 -17.35 19.65 -17.6 20.15 -17.7 20.25 -17.75 20.4 -18.05 20.85 -18.35 21.15 -18.5 21.35 -18.55 21.45 -18.65 21.5 -18.8 21.7 -19.0 21.9 -19.1 21.95 -19.2 22.05 -20.1 22.75 -20.2 22.8 -21.7 23.65 -23.4 24.25 -23.7 24.3 -24.0 24.4 -25.65 24.65 -27.1 24.7 -27.5 24.65 -27.85 24.65 -28.1 24.6 -28.25 24.6 -28.35 24.55 -28.5 24.55 -28.65 24.5" fill="#ffffff" fill-rule="evenodd" stroke="none"/>
    <path d="M-35.3 10.9 L-35.0 13.8 Q-35.1 16.25 -36.85 16.5 -39.35 16.85 -39.9 13.6 -40.55 9.35 -38.2 8.75 -35.8 8.05 -35.3 10.9" fill="#ffffff" fill-rule="evenodd" stroke="none"/>
  </g>
</svg>
