<?xml version="1.0" encoding="UTF-8" standalone="no"?>
<svg xmlns:xlink="http://www.w3.org/1999/xlink" height="131.0px" width="155.5px" xmlns="http://www.w3.org/2000/svg">
  <g transform="matrix(1.0, 0.0, 0.0, 1.0, 81.35, 63.9)">
    <path d="M44.35 -9.0 L38.65 -9.35 Q37.75 -9.0 37.1 -8.95 L33.85 -8.0 Q30.6 -7.0 24.6 -3.15 21.85 -1.85 20.35 1.55 L20.25 1.75 20.25 1.8 20.2 1.9 Q19.15 4.45 18.75 8.05 18.6 9.6 18.9 10.9 L18.6 11.0 18.55 11.0 Q17.5 7.25 16.45 15.95 15.85 19.35 19.1 19.5 35.05 25.55 30.8 38.0 26.55 52.4 17.15 58.4 8.45 63.3 -0.3 62.95 -4.55 64.35 -53.1 50.85 -51.6 49.4 -52.7 44.75 -54.65 44.15 -57.15 46.15 -57.7 43.6 -56.35 38.65 -66.3 46.1 -73.8 57.2 -75.1 45.65 -71.0 36.7 -67.0 34.5 -65.8 30.6 -65.3 28.75 -65.35 26.6 -66.8 28.9 -68.4 30.75 -72.65 35.65 -77.95 37.35 -75.85 34.65 -74.35 31.15 -70.1 21.4 -70.25 5.5 -60.55 -13.15 -45.6 -29.85 L31.25 -21.5 Q39.5 -20.5 44.35 -9.0 M-27.65 -1.4 L-28.45 -1.6 -28.85 -1.65 -29.25 -1.7 Q-34.25 -2.4 -40.2 -0.9 L-40.4 -0.95 -40.75 -0.85 Q-44.3 0.15 -48.15 1.9 -52.05 4.05 -50.9 7.25 -49.0 12.0 -46.85 15.5 -44.45 19.35 -41.8 21.9 -38.8 24.75 -35.5 26.0 L-35.9 26.65 -33.5 29.15 Q-18.3 29.35 -8.3 24.35 -3.85 22.5 -4.5 20.35 L-10.35 12.4 -10.4 12.45 -10.35 12.4 -15.5 6.7 -18.6 -1.35 -22.65 -0.95 -27.65 -1.4 -22.65 -0.95 -26.35 -1.15 -26.35 -1.1 -27.65 -1.4 M-77.85 38.55 L-79.0 38.6 -77.95 37.35 -77.85 38.55" fill="#ee830f" fill-rule="evenodd" stroke="none"/>
    <path d="M18.9 10.9 Q19.5 14.05 22.4 15.6 32.35 19.1 41.25 15.9 43.5 14.6 45.05 12.3 47.5 8.75 48.3 3.05 48.8 -0.55 48.7 -5.05 48.55 -8.0 45.35 -8.8 L44.35 -9.0 Q39.5 -20.5 31.25 -21.5 L-45.6 -29.85 Q-60.55 -13.15 -70.25 5.5 -74.85 8.7 -80.75 9.45 -76.65 3.4 -74.05 -7.05 -66.55 -20.8 -58.5 -31.25 -45.95 -47.55 -31.95 -55.85 -26.85 -58.95 -21.5 -60.9 -17.4 -62.45 -13.2 -63.15 18.35 -68.8 54.35 -30.65 59.7 -21.2 58.05 -4.55 64.0 2.6 63.25 11.8 68.3 12.95 73.55 20.0 73.35 21.4 63.4 20.25 72.1 31.85 71.0 35.3 L55.95 34.15 Q24.4 61.4 8.3 65.3 L1.5 66.4 Q-5.85 66.9 -13.7 64.6 -28.85 60.4 -53.1 50.85 -54.55 53.9 -58.75 54.45 -60.1 51.9 -58.7 48.75 -67.65 53.95 -73.8 57.2 -66.3 46.1 -56.35 38.65 -57.7 43.6 -57.15 46.15 -54.65 44.15 -52.7 44.75 -51.6 49.4 -53.1 50.85 -4.55 64.35 -0.3 62.95 8.45 63.3 17.15 58.4 26.55 52.4 30.8 38.0 35.05 25.55 19.1 19.5 15.85 19.35 16.45 15.95 17.5 7.25 18.55 11.0 L18.6 11.0 18.9 10.9 M-77.95 37.35 Q-72.65 35.65 -68.4 30.75 -66.8 28.9 -65.35 26.6 -65.3 28.75 -65.8 30.6 -67.0 34.5 -71.0 36.7 -73.75 38.3 -77.85 38.55 L-77.95 37.35 M55.25 -7.6 L58.05 -4.55 55.25 -7.6 M58.75 31.1 L55.95 34.15 58.75 31.1 M-22.65 -0.95 L-18.6 -1.35 -15.5 6.7 -10.35 12.4 -10.4 12.45 -10.35 12.4 -4.5 20.35 Q-3.85 22.5 -8.3 24.35 -18.3 29.35 -33.5 29.15 L-35.9 26.65 -35.5 26.0 -33.3 26.6 -26.65 26.05 Q-23.35 25.4 -20.25 24.0 L-20.15 23.95 Q-17.9 22.9 -15.75 21.45 L-13.35 19.7 Q-9.85 16.25 -13.0 10.6 -14.2 8.4 -15.5 6.7 -19.9 0.95 -26.05 -1.0 L-26.35 -1.1 -26.35 -1.15 -22.65 -0.95" fill="#cc6f0f" fill-rule="evenodd" stroke="none"/>
    <path d="M44.35 -9.0 L38.65 -9.35 Q37.75 -9.0 37.1 -8.95 L33.85 -8.0 Q30.6 -7.0 24.6 -3.15 21.85 -1.85 20.35 1.55 L20.25 1.75 20.25 1.8 20.2 1.9 Q19.15 4.45 18.75 8.05 18.6 9.6 18.9 10.9 19.5 14.05 22.4 15.6 32.35 19.1 41.25 15.9 43.5 14.6 45.05 12.3 47.5 8.75 48.3 3.05 48.8 -0.55 48.7 -5.05 48.55 -8.0 45.35 -8.8 L44.35 -9.0 M-70.25 5.5 Q-70.1 21.4 -74.35 31.15 -75.85 34.65 -77.95 37.35 L-79.0 38.6 -77.85 38.55 Q-73.75 38.3 -71.0 36.7 -75.1 45.65 -73.8 57.2 -67.65 53.95 -58.7 48.75 -60.1 51.9 -58.75 54.45 -54.55 53.9 -53.1 50.85 -28.85 60.4 -13.7 64.6 -5.85 66.9 1.5 66.4 L8.3 65.3 Q24.4 61.4 55.95 34.15 L58.75 31.1 M58.05 -4.55 L55.25 -7.6 M54.35 -30.65 Q59.7 -21.2 58.05 -4.55 64.0 2.6 63.25 11.8 68.3 12.95 73.55 20.0 73.35 21.4 63.4 20.25 72.1 31.85 71.0 35.3 L55.95 34.15 M-35.5 26.0 Q-38.8 24.75 -41.8 21.9 -44.45 19.35 -46.85 15.5 -49.0 12.0 -50.9 7.25 -52.05 4.05 -48.15 1.9 -44.3 0.15 -40.75 -0.85 L-40.4 -0.95 -40.2 -0.9 Q-34.25 -2.4 -29.25 -1.7 L-28.85 -1.65 -28.45 -1.6 -27.65 -1.4 -22.65 -0.95 -18.6 -1.35 M-35.5 26.0 L-33.3 26.6 -26.65 26.05 Q-23.35 25.4 -20.25 24.0 L-20.15 23.95 Q-17.9 22.9 -15.75 21.45 L-13.35 19.7 Q-9.85 16.25 -13.0 10.6 -14.2 8.4 -15.5 6.7 -19.9 0.95 -26.05 -1.0 L-26.35 -1.1 -27.65 -1.4 M-74.05 -7.05 Q-76.65 3.4 -80.75 9.45 -74.85 8.7 -70.25 5.5" fill="none" stroke="#4d2b06" stroke-linecap="round" stroke-linejoin="round" stroke-width="1.2000000000000002"/>
    <path d="M17.3 27.95 L17.4 29.85 Q17.05 33.5 12.4 36.05 10.1 37.6 6.95 36.05 3.45 34.55 1.55 30.7 7.65 27.8 13.75 27.75 L17.3 27.95 M3.55 31.1 L3.65 31.15 4.5 31.15 4.75 31.1 4.95 31.1 5.75 30.95 5.85 30.95 7.05 30.55 7.15 30.55 7.55 30.4 9.0 29.6 9.2 29.4 9.2 29.25 9.15 29.25 9.05 29.2 8.2 29.2 7.95 29.25 7.75 29.25 6.95 29.4 6.85 29.4 5.65 29.8 5.55 29.8 5.15 29.95 3.7 30.75 3.5 30.95 Q3.35 30.95 3.5 31.1 L3.55 31.1" fill="#361e04" fill-rule="evenodd" stroke="none"/>
    <path d="M3.55 31.1 L3.5 31.1 Q3.35 30.95 3.5 30.95 L3.7 30.75 5.15 29.95 5.55 29.8 5.65 29.8 6.85 29.4 6.95 29.4 7.75 29.25 7.95 29.25 8.2 29.2 9.05 29.2 9.15 29.25 9.2 29.25 9.2 29.4 9.0 29.6 7.55 30.4 7.15 30.55 7.05 30.55 5.85 30.95 5.75 30.95 4.95 31.1 4.75 31.1 4.5 31.15 3.65 31.15 3.55 31.1" fill="#ffffff" fill-rule="evenodd" stroke="none"/>
  </g>
</svg>
