<?xml version="1.0" encoding="UTF-8" standalone="no"?>
<svg xmlns:xlink="http://www.w3.org/1999/xlink" height="40.4px" width="29.0px" xmlns="http://www.w3.org/2000/svg">
  <g transform="matrix(1.0, 0.0, 0.0, 1.0, -7.95, 7.5)">
    <path d="M29.2 -1.15 L29.25 -0.5 Q29.35 2.95 29.75 6.3 30.25 10.75 34.4 14.1 L36.8 15.8 36.85 29.5 Q25.9 34.1 19.3 31.6 L18.8 31.45 22.6 29.5 Q19.9 28.9 17.6 24.3 19.65 25.25 21.35 25.2 L17.2 21.35 15.75 20.05 Q13.9 18.35 10.85 13.0 7.8 7.55 8.8 -6.9 11.15 3.0 12.5 5.3 19.6 -2.65 28.85 -1.0 L29.2 -1.15" fill="#5d8595" fill-rule="evenodd" stroke="none"/>
    <path d="M18.8 31.45 L19.3 31.6 18.95 31.65 18.7 31.55 18.6 31.5 18.8 31.45" fill="#6593a6" fill-rule="evenodd" stroke="none"/>
    <path d="M29.2 -1.15 L28.85 -1.0" fill="none" stroke="#31393d" stroke-linecap="round" stroke-linejoin="round" stroke-width="0.05"/>
    <path d="M29.75 6.3 Q29.35 2.95 29.25 -0.5 L29.2 -1.15 M10.85 13.0 Q13.9 18.35 15.75 20.05 L17.2 21.35 21.35 25.2 M19.3 31.6 L18.95 31.65 18.7 31.55" fill="none" stroke="#31393d" stroke-linecap="round" stroke-linejoin="round" stroke-width="1.2000000000000002"/>
    <path d="M12.5 5.3 Q11.15 3.0 8.8 -6.9 7.8 7.55 10.85 13.0 M21.35 25.2 Q19.65 25.25 17.6 24.3 19.9 28.9 22.6 29.5 L18.8 31.45" fill="none" stroke="#31393d" stroke-linecap="round" stroke-linejoin="miter-clip" stroke-miterlimit="3.0" stroke-width="1.2000000000000002"/>
    <path d="M19.05 32.15 L18.95 32.1 18.4 32.05 18.6 31.5 18.55 31.4 18.55 31.3 18.6 31.1 18.7 30.9 18.8 30.85 19.2 30.95 19.5 31.0 19.65 31.1 19.9 31.15 20.55 31.4 21.0 31.5 21.1 31.55 21.25 31.6 22.7 31.85 22.9 31.9 23.05 31.9 23.4 31.95 26.5 31.95 29.8 31.5 30.6 31.3 31.0 31.25 34.7 30.15 36.8 29.4 Q36.9 29.3 36.9 29.45 L36.85 29.55 35.35 30.25 32.25 31.4 31.7 31.55 31.5 31.65 26.55 32.75 22.8 32.9 22.6 32.85 22.25 32.85 21.0 32.65 20.9 32.65 20.75 32.6 20.25 32.5 19.05 32.15 M29.15 6.35 L29.1 6.3 Q29.1 5.75 29.65 5.65 30.3 5.55 30.3 6.2 L30.5 7.6 30.8 8.6 30.85 8.85 31.5 10.25 32.05 11.15 33.25 12.7 33.85 13.25 34.0 13.45 34.2 13.65 34.6 13.95 35.3 14.55 36.85 15.7 36.85 15.8 36.7 15.85 33.7 13.85 33.5 13.65 33.05 13.3 32.25 12.5 31.1 11.15 30.2 9.7 29.6 8.3 29.5 7.9 29.35 7.5 29.3 7.15 29.2 6.9 29.15 6.35" fill="#31393d" fill-rule="evenodd" stroke="none"/>
  </g>
</svg>
