<?xml version="1.0" encoding="UTF-8" standalone="no"?>
<svg xmlns:xlink="http://www.w3.org/1999/xlink" height="8.65px" width="30.05px" xmlns="http://www.w3.org/2000/svg">
  <g transform="matrix(1.0, 0.0, 0.0, 1.0, 15.0, 4.3)">
    <path d="M3.7 -1.5 L0.9 -1.4 Q-4.15 -1.05 -9.3 0.35 L-11.9 1.05 -12.25 -0.6 Q1.45 -5.4 12.45 -2.75 L11.7 -1.05 3.7 -1.5" fill="#7a0829" fill-rule="evenodd" stroke="none"/>
    <path d="M3.7 -1.5 L11.7 -1.05 Q9.95 1.75 6.75 1.75 L2.3 2.3 0.7 2.55 0.65 2.1 -6.25 1.9 Q-8.5 1.55 -9.3 0.35 -4.15 -1.05 0.9 -1.4 2.55 -0.5 2.0 0.35 3.45 -0.2 3.7 -1.5" fill="#d55172" fill-rule="evenodd" stroke="none"/>
    <path d="M0.9 -1.4 L3.7 -1.5 Q3.45 -0.2 2.0 0.35 2.55 -0.5 0.9 -1.4 M-11.9 1.05 L-9.3 0.35 Q-8.5 1.55 -6.25 1.9 L0.65 2.1 0.7 2.55 -1.7 3.15 -7.75 3.75 Q-10.95 3.6 -11.9 1.05" fill="#d2b6a1" fill-rule="evenodd" stroke="none"/>
    <path d="M11.7 -1.05 L12.45 -2.75 Q1.45 -5.4 -12.25 -0.6 L-11.9 1.05 Q-10.95 3.6 -7.75 3.75 L-1.7 3.15 0.7 2.55 2.3 2.3 6.75 1.75 Q9.95 1.75 11.7 -1.05 M12.45 -2.75 L14.45 -2.8 M-12.25 -0.6 L-14.4 -0.3" fill="none" stroke="#4d2b06" stroke-linecap="round" stroke-linejoin="round" stroke-width="1.2000000000000002"/>
  </g>
</svg>
