<?xml version="1.0" encoding="UTF-8" standalone="no"?>
<svg xmlns:xlink="http://www.w3.org/1999/xlink" height="117.95px" width="228.95px" xmlns="http://www.w3.org/2000/svg">
  <g transform="matrix(1.0, 0.0, 0.0, 1.0, 4.05, -5.05)">
    <path d="M31.15 28.75 L55.65 43.05 Q87.05 63.15 118.5 74.1 129.9 77.6 142.55 84.55 142.05 82.35 140.85 81.55 147.2 85.5 152.0 87.7 170.3 95.5 186.55 101.65 L187.0 101.8 Q207.5 109.7 221.35 105.45 224.1 115.3 224.3 122.4 216.5 121.7 208.45 117.75 171.55 99.65 127.9 85.5 84.15 71.35 27.0 51.8 L19.15 49.35 19.1 49.4 Q9.5 47.2 -3.45 53.35 0.2 47.3 9.25 39.35 L9.3 39.3 9.35 39.35 17.7 37.1 Q20.65 31.85 31.15 28.75" fill="#5d8595" fill-rule="evenodd" stroke="none"/>
    <path d="M221.35 105.0 L221.35 105.45 Q207.5 109.7 187.0 101.8 L186.55 101.65 Q170.3 95.5 152.0 87.7 147.2 85.5 140.85 81.55 142.05 82.35 142.55 84.55 129.9 77.6 118.5 74.1 87.05 63.15 55.65 43.05 L31.15 28.75 Q32.85 9.25 54.25 5.65 L63.85 11.75 71.5 17.0 Q129.3 55.5 199.1 94.9 209.15 101.35 221.35 105.0" fill="#6593a6" fill-rule="evenodd" stroke="none"/>
    <path d="M221.35 105.0 Q209.15 101.35 199.1 94.9 129.3 55.5 71.5 17.0 L63.85 11.75 54.25 5.65 M224.3 122.4 Q216.5 121.7 208.45 117.75 171.55 99.65 127.9 85.5 84.15 71.35 27.0 51.8 L19.15 49.35 19.1 49.4" fill="none" stroke="#31393d" stroke-linecap="round" stroke-linejoin="round" stroke-width="1.2000000000000002"/>
    <path d="M19.1 49.4 Q9.5 47.2 -3.45 53.35 0.2 47.3 9.25 39.35 L9.3 39.3" fill="none" stroke="#31393d" stroke-linecap="round" stroke-linejoin="miter-clip" stroke-miterlimit="3.0" stroke-width="1.2000000000000002"/>
    <path d="M9.25 39.95 Q8.65 39.95 8.65 39.35 8.65 38.75 9.25 38.75 L9.35 39.25 9.35 39.45 9.25 39.95" fill="#31393d" fill-rule="evenodd" stroke="none"/>
  </g>
</svg>
