<?xml version="1.0" encoding="UTF-8" standalone="no"?>
<svg xmlns:xlink="http://www.w3.org/1999/xlink" height="213.25px" width="159.8px" xmlns="http://www.w3.org/2000/svg">
  <g transform="matrix(1.0, 0.0, 0.0, 1.0, 19.0, 32.25)">
    <path d="M-14.45 -2.7 L-13.65 -4.5 Q-11.95 -8.45 -9.85 -11.5 L-9.8 -11.5 -7.15 -14.8 -3.4 -18.2 -3.05 -18.4 1.15 -21.3 Q34.55 -42.75 59.7 -22.2 68.4 -15.1 76.1 -2.95 L79.35 2.6 86.65 16.4 Q93.15 29.15 98.7 42.35 L99.85 45.05 99.85 45.2 Q97.15 66.1 102.25 82.95 102.3 99.6 95.0 92.9 L83.75 85.25 Q83.95 87.55 80.75 88.8 73.1 77.3 63.8 69.05 L54.75 62.9 Q51.5 60.85 51.55 66.75 47.9 64.25 47.15 59.6 42.85 62.1 38.8 62.6 L37.55 62.65 Q26.25 63.3 14.5 58.15 -6.75 48.95 -18.2 28.1 L-18.35 25.0 Q-18.7 8.5 -14.45 -2.7 M54.5 -15.95 Q36.6 -26.1 21.15 -21.75 38.9 -20.5 54.5 -15.95" fill="#6593a6" fill-rule="evenodd" stroke="none"/>
    <path d="M54.5 -15.95 Q38.9 -20.5 21.15 -21.75 36.6 -26.1 54.5 -15.95" fill="#77a6b8" fill-rule="evenodd" stroke="none"/>
    <path d="M99.85 45.2 L101.65 49.55 107.1 64.25 Q107.35 68.3 108.1 72.8 109.0 78.35 110.75 84.5 108.3 81.95 110.6 94.5 120.45 119.05 128.0 143.4 125.9 140.25 122.5 140.05 123.0 149.45 125.6 155.75 L122.15 151.8 Q123.5 167.15 116.65 169.65 L116.25 169.8 Q89.3 178.4 65.9 167.8 27.8 152.4 2.6 119.85 -2.4 108.4 -5.35 95.45 -6.9 88.95 -7.85 82.15 L-10.8 71.6 Q-14.5 57.4 -16.4 45.35 L-16.7 43.0 -17.6 36.25 -17.9 33.25 -18.2 28.1 Q-6.75 48.95 14.5 58.15 26.25 63.3 37.55 62.65 L38.8 62.6 Q42.85 62.1 47.15 59.6 47.9 64.25 51.55 66.75 51.5 60.85 54.75 62.9 L63.8 69.05 Q73.1 77.3 80.75 88.8 83.95 87.55 83.75 85.25 L95.0 92.9 Q102.3 99.6 102.25 82.95 97.15 66.1 99.85 45.2" fill="#5d8595" fill-rule="evenodd" stroke="none"/>
    <path d="M110.75 84.5 Q114.75 98.8 123.15 116.55 133.1 137.5 134.45 145.05 136.7 150.3 140.2 156.8 L136.95 155.2 Q137.35 157.85 136.5 161.2 L134.9 158.15 Q134.3 165.35 130.4 169.8 131.9 165.5 131.5 163.5 127.3 173.15 114.65 179.25 75.35 185.05 33.6 162.05 26.1 155.55 19.8 148.0 9.35 135.4 2.6 119.85 27.8 152.4 65.9 167.8 89.3 178.4 116.25 169.8 L116.65 169.65 Q123.5 167.15 122.15 151.8 L125.6 155.75 Q123.0 149.45 122.5 140.05 125.9 140.25 128.0 143.4 120.45 119.05 110.6 94.5 108.3 81.95 110.75 84.5" fill="#577d8c" fill-rule="evenodd" stroke="none"/>
    <path d="M107.1 64.25 Q107.35 68.3 108.1 72.8 109.0 78.35 110.75 84.5 114.75 98.8 123.15 116.55 133.1 137.5 134.45 145.05 M131.5 163.5 Q127.3 173.15 114.65 179.25 75.35 185.05 33.6 162.05 26.1 155.55 19.8 148.0 9.35 135.4 2.6 119.85 -2.4 108.4 -5.35 95.45 -6.9 88.95 -7.85 82.15 L-10.8 71.6 Q-14.5 57.4 -16.4 45.35 L-16.7 43.0 -17.6 36.25 -17.9 33.25 -18.2 28.1 -18.35 25.0 Q-18.7 8.5 -14.45 -2.7" fill="none" stroke="#31393d" stroke-linecap="round" stroke-linejoin="round" stroke-width="1.2000000000000002"/>
    <path d="M134.45 145.05 Q136.7 150.3 140.2 156.8 L136.95 155.2 Q137.35 157.85 136.5 161.2 L134.9 158.15 Q134.3 165.35 130.4 169.8 131.9 165.5 131.5 163.5" fill="none" stroke="#31393d" stroke-linecap="round" stroke-linejoin="miter-clip" stroke-miterlimit="3.0" stroke-width="1.2000000000000002"/>
    <path d="M137.3 154.7 Q137.75 155.0 137.5 155.55 137.1 156.05 136.65 155.7 L136.45 155.6 136.35 155.5 136.25 155.45 135.4 154.8 135.25 154.65 134.85 154.35 134.65 154.15 134.5 153.95 134.4 153.9 134.3 153.8 133.85 153.2 133.75 153.1 133.7 153.0 133.55 152.8 133.15 152.15 132.95 151.75 132.95 151.6 133.1 151.6 133.5 152.15 134.2 152.85 134.4 153.0 134.55 153.15 134.75 153.3 134.85 153.35 134.95 153.45 135.15 153.6 135.35 153.7 135.55 153.85 135.95 154.05 136.45 154.35 136.9 154.5 137.3 154.7 M-13.85 -2.45 L-13.9 -2.4 Q-14.05 -1.9 -14.65 -2.1 -15.2 -2.35 -15.0 -2.9 L-14.85 -3.2 -14.75 -3.5 -14.15 -4.65 -14.15 -4.7 -14.1 -4.7 -14.1 -4.75 -14.05 -4.9 -13.9 -5.15 -13.65 -5.75 -12.75 -7.4 -12.45 -7.95 -10.85 -10.65 -10.65 -10.9 -10.5 -11.15 -10.1 -11.65 -10.1 -11.7 -9.95 -11.8 -8.6 -13.5 -7.3 -14.9 -7.3 -14.95 -7.2 -15.05 -7.0 -15.2 -3.45 -18.25 -3.4 -18.25 -3.1 -18.45 -2.95 -18.45 Q-2.8 -18.3 -2.95 -18.3 L-3.35 -18.1 -3.3 -18.1 -7.45 -14.05 -9.5 -11.3 -9.6 -11.15 -9.85 -10.75 -10.05 -10.5 -11.4 -8.1 -12.95 -4.75 -13.1 -4.3 -13.1 -4.25 -13.2 -4.15 -13.85 -2.45" fill="#31393d" fill-rule="evenodd" stroke="none"/>
  </g>
</svg>
