<?xml version="1.0" encoding="UTF-8" standalone="no"?>
<svg xmlns:xlink="http://www.w3.org/1999/xlink" height="33.8px" width="16.95px" xmlns="http://www.w3.org/2000/svg">
  <g transform="matrix(1.0, 0.0, 0.0, 1.0, -100.25, -12.05)">
    <path d="M106.95 12.35 L107.0 12.35 110.7 12.05 Q111.3 12.05 114.15 13.1 117.2 14.25 117.2 14.7 117.2 16.65 115.65 18.95 114.25 21.0 114.8 27.1 114.9 28.55 112.4 31.5 L109.5 34.75 Q109.85 33.65 110.7 32.45 L111.45 31.35 111.3 30.65 111.15 30.7 Q109.5 31.45 108.4 33.85 107.55 36.35 107.1 36.9 L104.2 39.8 Q101.55 42.6 101.55 43.45 L101.65 44.2 101.75 44.4 102.75 44.7 Q104.7 44.0 105.95 41.75 L108.3 37.4 Q106.55 42.7 105.2 44.5 104.2 45.85 102.65 45.85 101.35 45.85 100.7 45.15 100.25 44.65 100.25 44.0 100.25 40.95 103.7 37.6 L107.65 33.75 Q109.2 30.1 109.45 30.0 109.75 29.85 111.2 30.45 112.45 30.45 113.35 28.5 114.2 26.65 114.2 24.2 114.2 19.4 110.6 17.35 L107.05 15.6 Q104.75 14.45 103.25 13.05 103.85 12.75 105.95 12.5 L105.9 12.55 105.8 13.1 105.9 13.45 108.65 14.55 Q111.1 15.5 112.3 16.4 113.3 17.15 113.5 18.35 113.65 19.2 114.5 19.2 L115.1 19.1 115.05 18.85 Q114.95 17.5 114.15 16.4 115.5 16.35 115.65 15.35 115.8 14.4 115.05 14.15 L106.95 12.35" fill="#f8fff0" fill-opacity="0.6" fill-rule="evenodd" stroke="none"/>
    <path d="M109.5 34.75 Q109.1 36.05 108.3 37.4 L105.95 41.75 Q104.7 44.0 102.75 44.7 L101.75 44.4 101.65 44.2 101.55 43.45 Q101.55 42.6 104.2 39.8 L107.1 36.9 Q107.55 36.35 108.4 33.85 109.5 31.45 111.15 30.7 L111.3 30.65 111.45 31.35 110.7 32.45 Q109.85 33.65 109.5 34.75 M105.95 12.5 L106.65 12.3 106.95 12.35 115.05 14.15 Q115.8 14.4 115.65 15.35 115.5 16.35 114.15 16.4 114.95 17.5 115.05 18.85 L115.1 19.1 114.5 19.2 Q113.65 19.2 113.5 18.35 113.3 17.15 112.3 16.4 111.1 15.5 108.65 14.55 L105.9 13.45 105.8 13.1 105.9 12.55 105.95 12.5" fill="#f8fff0" fill-opacity="0.9019608" fill-rule="evenodd" stroke="none"/>
  </g>
</svg>
