<?xml version="1.0" encoding="UTF-8" standalone="no"?>
<svg xmlns:xlink="http://www.w3.org/1999/xlink" height="55.45px" width="100.95px" xmlns="http://www.w3.org/2000/svg">
  <g transform="matrix(1.0, 0.0, 0.0, 1.0, -16.25, -12.05)">
    <path d="M106.95 12.35 L107.0 12.35 110.7 12.05 Q111.3 12.05 114.15 13.1 117.2 14.25 117.2 14.7 117.2 16.65 115.65 18.95 114.25 21.0 114.8 27.1 114.9 28.55 112.4 31.5 L109.5 34.75 Q109.85 33.65 110.7 32.45 L111.45 31.35 111.3 30.65 111.15 30.7 Q109.5 31.45 108.4 33.85 107.55 36.35 107.1 36.9 L104.2 39.8 Q101.55 42.6 101.55 43.45 L101.65 44.2 101.75 44.4 102.75 44.7 Q104.7 44.0 105.95 41.75 L108.3 37.4 Q106.55 42.7 105.2 44.5 104.2 45.85 102.65 45.85 101.35 45.85 100.7 45.15 100.25 44.65 100.25 44.0 100.25 40.95 103.7 37.6 L107.65 33.75 Q109.2 30.1 109.45 30.0 109.75 29.85 111.2 30.45 112.45 30.45 113.35 28.5 114.2 26.65 114.2 24.2 114.2 19.4 110.6 17.35 L107.05 15.6 Q104.75 14.45 103.25 13.05 103.85 12.75 105.95 12.5 L105.9 12.55 105.8 13.1 105.9 13.45 108.65 14.55 Q111.1 15.5 112.3 16.4 113.3 17.15 113.5 18.35 113.65 19.2 114.5 19.2 L115.1 19.1 115.05 18.85 Q114.95 17.5 114.15 16.4 115.5 16.35 115.65 15.35 115.8 14.4 115.05 14.15 L106.95 12.35 M51.0 36.1 L51.05 35.3 Q51.0 34.9 50.35 34.9 49.65 34.9 47.85 36.05 45.75 37.4 45.75 38.7 L45.75 39.0 Q45.45 38.5 45.45 38.05 45.45 37.2 46.2 36.25 47.7 34.3 51.6 33.25 L52.2 33.55 Q52.5 33.85 52.5 34.5 L51.0 36.1 M46.05 39.35 L46.15 39.25 46.5 39.3 Q47.6 38.8 48.15 37.95 48.7 37.1 49.65 36.6 49.0 37.15 45.65 42.45 46.25 41.05 46.25 40.1 L46.05 39.35 M38.0 30.35 Q38.55 30.45 41.55 31.65 44.8 32.9 45.4 33.35 45.2 34.25 43.75 34.25 L43.3 34.05 Q43.95 34.05 44.0 33.85 L44.0 33.5 Q43.4 32.3 38.0 30.35 M39.25 32.45 L38.45 32.15 Q33.35 30.15 29.6 30.9 L29.4 30.45 30.3 30.45 Q30.9 30.4 30.9 29.8 L30.75 29.0 30.55 28.95 27.0 27.9 26.9 28.55 27.7 29.95 28.3 31.05 28.4 32.5 Q28.5 33.65 28.85 34.1 L29.25 33.75 Q30.65 38.6 32.5 42.95 33.95 46.5 35.15 48.15 L35.0 48.0 Q34.75 48.3 34.65 48.95 L35.5 53.3 34.65 54.3 Q34.7 56.35 33.95 59.1 L33.15 61.65 Q33.15 62.3 33.3 62.35 L33.95 62.3 37.2 54.5 Q37.9 51.45 36.35 49.35 L37.0 49.55 Q40.1 49.55 42.35 47.45 39.65 51.05 37.6 51.7 L38.2 52.65 Q38.55 53.35 38.55 54.0 34.65 62.7 33.6 63.4 L31.9 62.5 Q34.25 57.6 34.25 52.8 29.3 39.3 28.05 35.15 27.35 32.75 24.4 28.25 21.7 24.1 21.35 24.1 L22.1 23.75 Q23.25 23.05 23.6 22.1 22.85 21.7 20.65 22.4 L18.15 23.4 18.3 23.7 Q18.95 24.35 20.1 24.35 L20.8 24.3 20.45 24.55 Q20.05 25.0 19.55 25.0 17.4 24.05 16.25 22.65 L16.55 21.4 22.3 20.95 23.25 21.45 25.8 23.1 24.75 23.95 Q29.95 28.65 31.2 29.25 L36.8 30.15 36.15 30.65 39.25 32.45 M34.4 65.75 L34.1 67.0 Q33.75 67.5 33.25 67.5 32.75 67.5 32.45 67.0 32.1 66.45 32.1 65.75 32.1 65.05 32.45 64.55 32.75 64.0 33.25 64.0 33.75 64.0 34.1 64.55 L34.4 65.75 M33.8 66.4 L33.6 65.75 Q33.4 65.45 33.1 65.45 32.8 65.45 32.6 65.75 L32.4 66.4 32.6 67.1 33.1 67.35 33.6 67.1 33.8 66.4" fill="#f8fff0" fill-opacity="0.6" fill-rule="evenodd" stroke="none"/>
    <path d="M109.5 34.75 Q109.1 36.05 108.3 37.4 L105.95 41.75 Q104.7 44.0 102.75 44.7 L101.75 44.4 101.65 44.2 101.55 43.45 Q101.55 42.6 104.2 39.8 L107.1 36.9 Q107.55 36.35 108.4 33.85 109.5 31.45 111.15 30.7 L111.3 30.65 111.45 31.35 110.7 32.45 Q109.85 33.65 109.5 34.75 M105.95 12.5 L106.65 12.3 106.95 12.35 115.05 14.15 Q115.8 14.4 115.65 15.35 115.5 16.35 114.15 16.4 114.95 17.5 115.05 18.85 L115.1 19.1 114.5 19.2 Q113.65 19.2 113.5 18.35 113.3 17.15 112.3 16.4 111.1 15.5 108.65 14.55 L105.9 13.45 105.8 13.1 105.9 12.55 105.95 12.5 M45.75 39.0 L45.75 38.7 Q45.75 37.4 47.85 36.05 49.65 34.9 50.35 34.9 51.0 34.9 51.05 35.3 L51.0 36.1 Q50.8 36.6 49.65 36.6 48.7 37.1 48.15 37.95 47.6 38.8 46.5 39.3 L46.15 39.25 46.05 39.35 45.85 39.1 45.75 39.0 M43.3 34.05 Q42.5 34.05 40.05 32.85 L39.25 32.45 36.15 30.65 36.8 30.15 38.0 30.35 Q43.4 32.3 44.0 33.5 L44.0 33.85 Q43.95 34.05 43.3 34.05 M29.6 30.9 Q29.8 31.45 29.25 33.75 L28.85 34.1 Q28.5 33.65 28.4 32.5 L28.3 31.05 27.7 29.95 26.9 28.55 27.0 27.9 30.55 28.95 30.75 29.0 30.9 29.8 Q30.9 30.4 30.3 30.45 L29.4 30.45 29.6 30.9 M35.15 48.15 L36.35 49.35 Q37.9 51.45 37.2 54.5 L33.95 62.3 33.3 62.35 Q33.15 62.3 33.15 61.65 L33.95 59.1 Q34.7 56.35 34.65 54.3 L35.5 53.3 34.65 48.95 Q34.75 48.3 35.0 48.0 L35.15 48.15 M21.35 24.1 L20.8 24.3 20.1 24.35 Q18.95 24.35 18.3 23.7 L18.15 23.4 20.65 22.4 Q22.85 21.7 23.6 22.1 23.25 23.05 22.1 23.75 L21.35 24.1 M33.8 66.4 L33.6 67.1 33.1 67.35 32.6 67.1 32.4 66.4 32.6 65.75 Q32.8 65.45 33.1 65.45 33.4 65.45 33.6 65.75 L33.8 66.4" fill="#f8fff0" fill-opacity="0.9019608" fill-rule="evenodd" stroke="none"/>
  </g>
</svg>
