<?xml version="1.0" encoding="UTF-8" standalone="no"?>
<svg xmlns:xlink="http://www.w3.org/1999/xlink" height="23.8px" width="36.9px" xmlns="http://www.w3.org/2000/svg">
  <g transform="matrix(1.0, 0.0, 0.0, 1.0, -118.55, -120.25)">
    <path d="M118.55 132.0 Q118.55 130.0 122.25 125.1 125.75 120.6 126.15 120.35 L128.1 120.3 131.35 120.8 132.65 121.15 135.45 122.1 Q137.4 122.9 137.65 123.4 L137.55 125.6 137.55 126.25 Q137.8 127.45 138.4 128.15 138.95 128.75 138.75 130.25 L138.45 131.35 138.65 131.6 Q139.3 132.5 139.0 132.05 138.7 131.6 142.95 134.25 147.15 136.85 149.15 138.6 151.1 140.3 151.7 140.25 152.3 140.2 154.65 142.45 156.95 144.65 152.75 143.85 148.55 143.05 144.05 140.4 L139.25 137.75 135.1 137.4 125.9 137.1 124.1 136.65 123.1 136.3 Q118.6 134.45 118.55 132.05 L118.55 132.0" fill="#f8fff0" fill-opacity="0.8" fill-rule="evenodd" stroke="none"/>
  </g>
</svg>
