<?xml version="1.0" encoding="UTF-8" standalone="no"?>
<svg xmlns:xlink="http://www.w3.org/1999/xlink" height="28.9px" width="105.1px" xmlns="http://www.w3.org/2000/svg">
  <g transform="matrix(1.0, 0.0, 0.0, 1.0, 0.0, 0.0)">
    <path d="M104.5 15.15 L104.45 15.15 Q97.1 11.3 89.2 10.75 79.0 10.1 70.65 13.6 72.35 7.4 80.0 4.75 106.9 -8.45 104.5 15.15 M41.3 15.75 L41.25 15.75 Q31.25 15.6 21.65 18.55 12.05 21.5 4.7 28.3 -6.8 11.7 9.85 9.0 26.5 6.25 32.65 6.0 37.45 7.1 41.3 15.75" fill="#ee830f" fill-rule="evenodd" stroke="none"/>
    <path d="M104.45 15.15 L104.5 15.15 M41.25 15.75 L41.3 15.75" fill="none" stroke="#4d2b06" stroke-linecap="round" stroke-linejoin="miter-clip" stroke-miterlimit="3.0" stroke-width="1.2000000000000002"/>
    <path d="M70.65 13.6 Q79.0 10.1 89.2 10.75 97.1 11.3 104.45 15.15 M4.7 28.3 Q12.05 21.5 21.65 18.55 31.25 15.6 41.25 15.75" fill="none" stroke="#4d2b06" stroke-linecap="round" stroke-linejoin="round" stroke-width="1.2000000000000002"/>
  </g>
</svg>
