<?xml version="1.0" encoding="UTF-8" standalone="no"?>
<svg xmlns:xlink="http://www.w3.org/1999/xlink" height="117.0px" width="35.85px" xmlns="http://www.w3.org/2000/svg">
  <g transform="matrix(1.0, 0.0, 0.0, 1.0, -120.35, -125.7)">
    <path d="M132.55 203.5 L128.9 215.25 129.05 215.45 129.15 216.4 Q129.15 217.7 128.6 219.35 127.3 223.0 125.5 230.4 L123.9 237.45 Q122.9 241.7 122.05 242.7 121.05 242.35 120.65 241.6 120.35 241.05 120.35 239.9 120.35 239.3 123.0 230.7 L126.0 221.0 126.25 218.85 Q126.3 217.9 126.9 217.9 127.55 217.9 127.6 216.7 L127.55 214.7 138.15 171.3 Q140.0 163.25 141.5 159.55 142.1 158.0 142.1 155.0 L142.3 153.55 142.45 152.05 142.9 149.85 143.4 147.7 143.2 147.35 Q140.9 149.65 140.7 150.5 140.65 151.0 139.85 151.4 L139.65 151.35 139.15 143.85 138.5 136.15 Q138.0 137.15 137.2 137.15 L137.05 136.6 Q139.55 129.95 138.45 126.3 L138.7 125.7 Q139.85 126.7 140.4 129.25 L141.15 132.75 Q142.3 135.6 146.6 139.55 150.9 143.55 152.65 143.2 L153.85 143.4 Q158.4 141.4 154.15 149.7 149.9 157.95 147.6 155.65 145.25 153.3 144.35 156.55 L141.45 165.6 137.3 181.0 Q134.9 190.1 132.55 203.5" fill="#f8fff0" fill-opacity="0.8" fill-rule="evenodd" stroke="none"/>
  </g>
</svg>
