<?xml version="1.0" encoding="UTF-8" standalone="no"?>
<svg xmlns:xlink="http://www.w3.org/1999/xlink" height="89.65px" width="3.7px" xmlns="http://www.w3.org/2000/svg">
  <g transform="matrix(1.0, 0.0, 0.0, 1.0, -10.1, 1.1)">
    <path d="M13.35 48.0 L12.85 60.3 13.05 60.45 13.4 61.3 Q13.75 62.6 13.6 64.3 13.3 68.2 13.45 75.8 L13.8 83.05 Q13.9 87.4 13.35 88.55 12.3 88.5 11.7 87.85 11.3 87.45 11.0 86.3 10.85 85.75 11.15 76.75 L11.55 66.6 11.25 64.45 Q11.05 63.5 11.65 63.35 12.25 63.2 12.0 62.0 L11.4 60.15 10.45 15.45 Q10.15 7.2 10.65 3.25 10.75 1.7 10.1 -1.0 L12.65 -1.1 12.6 -0.4 12.15 9.1 12.1 25.05 Q12.15 34.45 13.35 48.0" fill="#f8fff0" fill-opacity="0.8" fill-rule="evenodd" stroke="none"/>
  </g>
</svg>
