<?xml version="1.0" encoding="UTF-8" standalone="no"?>
<svg xmlns:xlink="http://www.w3.org/1999/xlink" height="82.6px" width="121.2px" xmlns="http://www.w3.org/2000/svg">
  <g transform="matrix(1.0, 0.0, 0.0, 1.0, 60.6, 41.3)">
    <path d="M11.85 -25.9 L13.95 -22.3 Q15.95 -12.8 18.6 -9.05 L18.65 -9.0 18.65 -8.9 18.95 -8.6 Q24.4 -0.5 30.25 -0.25 38.35 -0.55 46.4 -3.4 50.5 -4.95 59.6 1.7 L59.95 2.5 Q60.8 13.95 48.25 24.55 42.8 26.8 39.35 23.0 L38.65 20.8 Q37.1 16.7 34.65 14.9 33.6 18.4 32.1 19.65 L31.5 20.1 Q26.6 22.3 23.6 17.5 L22.75 15.95 Q17.45 9.1 -3.4 8.8 -9.9 11.5 -13.35 4.15 -14.7 9.75 -17.55 10.35 -21.55 7.0 -22.5 0.5 -23.1 3.4 -24.4 4.6 -30.65 -2.35 -29.75 -14.45 L-35.0 -14.05 Q-38.45 -1.55 -47.35 -0.05 -46.55 2.3 -45.55 3.85 -42.2 9.2 -37.3 13.35 -32.35 17.45 -19.0 19.05 L-17.35 19.3 Q-25.0 22.65 -33.6 40.7 -56.95 35.7 -60.0 13.35 -54.2 3.8 -51.7 -7.85 -44.9 -28.95 -34.0 -33.95 -6.0 -41.45 11.85 -25.9 M-0.5 -5.3 Q-0.7 -18.55 -10.8 -25.15 -23.8 -31.15 -35.6 -22.35 -10.3 -25.6 -0.5 -5.3 0.3 -2.3 -4.75 -5.85 0.3 -2.3 -0.5 -5.3" fill="#433f3d" fill-rule="evenodd" stroke="none"/>
    <path d="M11.85 -25.9 Q-6.0 -41.45 -34.0 -33.95 -44.9 -28.95 -51.7 -7.85 -50.45 -23.15 -42.9 -31.1 -39.3 -34.95 -34.15 -37.05 -2.65 -48.05 11.85 -25.9 M59.6 1.7 Q50.5 -4.95 46.4 -3.4 38.35 -0.55 30.25 -0.25 24.4 -0.5 18.95 -8.6 L19.65 -7.85 Q29.1 0.0 42.25 -4.45 53.95 -9.7 59.6 1.7" fill="#545448" fill-rule="evenodd" stroke="none"/>
    <path d="M18.6 -9.05 Q15.95 -12.8 13.95 -22.3 L11.85 -25.9 Q19.95 -22.5 18.6 -9.05" fill="url(#gradient0)" fill-rule="evenodd" stroke="none"/>
    <path d="M-17.35 19.3 L-19.0 19.05 Q-32.35 17.45 -37.3 13.35 -42.2 9.2 -45.55 3.85 -46.55 2.3 -47.35 -0.05 -38.45 -1.55 -35.0 -14.05 L-29.75 -14.45 Q-30.65 -2.35 -24.4 4.6 -23.1 3.4 -22.5 0.5 -21.55 7.0 -17.55 10.35 -14.7 9.75 -13.35 4.15 -9.9 11.5 -3.4 8.8 17.45 9.1 22.75 15.95 L23.6 17.5 Q-8.5 20.1 -17.35 19.3 M32.1 19.65 Q33.6 18.4 34.65 14.9 37.1 16.7 38.65 20.8 35.6 19.8 32.1 19.65" fill="#382c2c" fill-rule="evenodd" stroke="none"/>
    <path d="M-18.95 -22.2 Q-17.05 -23.5 -16.55 -26.6 -17.05 -23.5 -18.95 -22.2 M-0.5 -5.3 Q-10.3 -25.6 -35.6 -22.35 -23.8 -31.15 -10.8 -25.15 -0.7 -18.55 -0.5 -5.3" fill="url(#gradient1)" fill-rule="evenodd" stroke="none"/>
    <path d="M11.85 -25.9 L13.95 -22.3 Q15.95 -12.8 18.6 -9.05 19.95 -22.5 11.85 -25.9 -2.65 -48.05 -34.15 -37.05 -39.3 -34.95 -42.9 -31.1 -50.45 -23.15 -51.7 -7.85 -54.2 3.8 -60.0 13.35 M-33.6 40.7 Q-25.0 22.65 -17.35 19.3 -8.5 20.1 23.6 17.5 26.6 22.3 31.5 20.1 L32.1 19.65 Q33.6 18.4 34.65 14.9 37.1 16.7 38.65 20.8 L39.35 23.0 Q42.8 26.8 48.25 24.55 60.8 13.95 59.95 2.5 L59.6 1.7 Q53.95 -9.7 42.25 -4.45 29.1 0.0 19.65 -7.85 L18.95 -8.6 18.65 -8.9 18.65 -9.0 M-29.75 -14.45 Q-30.65 -2.35 -24.4 4.6 -23.1 3.4 -22.5 0.5 -21.55 7.0 -17.55 10.35 -14.7 9.75 -13.35 4.15 -9.9 11.5 -3.4 8.8 17.45 9.1 22.75 15.95 L23.6 17.5 M32.1 19.65 Q35.6 19.8 38.65 20.8 M-0.5 -5.3 Q-0.7 -18.55 -10.8 -25.15 -23.8 -31.15 -35.6 -22.35 -10.3 -25.6 -0.5 -5.3 0.3 -2.3 -4.75 -5.85" fill="none" stroke="#1d1010" stroke-linecap="round" stroke-linejoin="round" stroke-width="1.2000000000000002"/>
    <path d="M-16.55 -26.6 Q-17.05 -23.5 -18.95 -22.2" fill="none" stroke="#1d1010" stroke-linecap="round" stroke-linejoin="round" stroke-width="2.0"/>
    <path d="M41.7 2.45 Q41.55 2.2 41.7 1.85 41.95 1.3 42.55 1.6 L42.7 1.7 42.9 1.8 43.2 2.0 43.3 2.05 43.35 2.1 43.85 2.45 44.05 2.8 44.15 3.2 44.15 3.45 44.25 3.85 44.5 5.5 44.55 5.7 44.65 6.35 45.0 7.5 45.0 7.6 45.3 8.25 45.35 8.4 45.45 8.6 45.85 9.25 45.9 9.3 45.85 10.0 45.0 10.1 44.8 9.95 44.25 9.4 44.2 9.3 44.1 9.2 43.95 9.0 43.9 8.9 43.8 8.8 43.6 8.35 43.5 8.25 43.45 8.15 43.1 7.25 42.95 6.8 42.8 6.35 42.5 5.0 42.4 4.05 42.35 3.85 42.35 3.35 42.2 3.2 42.15 3.1 41.9 2.8 41.8 2.65 41.7 2.45 M-31.45 -19.25 L-31.6 -19.1 -31.95 -19.1 -32.1 -19.05 -33.85 -19.0 -34.1 -19.05 -34.35 -19.0 -34.6 -19.05 -36.25 -19.05 -36.6 -19.1 -37.1 -19.1 -37.15 -19.15 -37.2 -19.15 -37.2 -19.3 -37.0 -19.5 -36.55 -19.75 -36.4 -19.8 -35.95 -20.0 -34.9 -20.2 -33.8 -20.2 -33.65 -20.15 -33.5 -20.15 -33.0 -20.05 -32.75 -19.95 -32.65 -19.95 -32.3 -19.8 -32.15 -19.7 -31.95 -19.65 -31.85 -19.55 -31.7 -19.5 -31.45 -19.25 M-34.95 -13.95 Q-35.05 -13.85 -35.05 -14.0 L-35.0 -14.1 -34.7 -14.25 -33.8 -14.55 -31.9 -14.95 -31.4 -15.0 -31.15 -15.0 -30.95 -15.05 -29.85 -15.05 -29.65 -15.0 -29.5 -15.0 -29.35 -14.95 -29.1 -14.9 -28.95 -14.85 -28.75 -14.75 -28.35 -14.65 -26.65 -13.95 -26.45 -13.8 -26.2 -13.7 -26.0 -13.55 -24.65 -12.75 -24.5 -12.6 -24.45 -12.5 Q-24.45 -12.35 -24.55 -12.45 L-26.2 -13.1 -26.45 -13.15 -26.65 -13.25 -26.9 -13.3 -27.15 -13.4 -29.0 -13.75 -29.15 -13.8 -29.65 -13.8 -29.8 -13.85 -29.95 -13.85 -30.1 -13.9 -30.25 -13.95 -30.4 -13.95 -31.2 -14.1 -31.4 -14.1 -31.85 -14.15 -33.3 -14.15 -33.75 -14.1 -33.95 -14.1 -34.45 -14.0 -34.6 -14.0 -34.7 -13.95 -34.95 -13.95 M-47.4 0.0 L-47.35 -0.1 -47.25 -0.05 -45.85 3.0 -42.6 7.6 -38.3 12.05 -37.85 12.4 -37.65 12.6 -37.2 12.95 -37.1 13.05 -37.05 13.05 -37.05 13.1 -37.0 13.15 -36.55 13.45 -36.1 13.8 -34.15 14.85 -32.1 15.75 -27.8 17.0 -18.9 18.45 -18.85 18.45 -17.25 18.7 Q-16.7 18.7 -16.7 19.35 -16.8 19.95 -17.4 19.85 L-19.1 19.6 -19.05 19.6 -25.8 18.45 -32.4 16.45 -34.5 15.5 -36.5 14.35 -37.4 13.65 -37.5 13.55 -37.65 13.45 -38.25 12.85 -38.7 12.5 -42.95 7.85 -45.25 4.6 -46.6 2.1 -47.4 0.0 M47.0 3.3 L46.75 3.7 46.3 3.85 Q46.0 3.85 45.85 3.65 L45.8 3.55 45.65 3.4 45.55 3.25 45.5 3.15 45.45 3.1 45.35 2.95 45.3 2.9 45.25 2.9 45.2 2.8 44.95 2.45 44.85 2.35 44.8 2.25 44.45 1.9 44.3 1.7 43.8 1.2 43.75 1.2 43.7 1.15 43.65 1.05 43.55 1.0 43.45 0.9 43.25 0.75 43.15 0.7 43.1 0.65 42.55 0.25 42.45 0.2 42.4 0.15 42.35 0.15 42.2 0.0 42.05 -0.05 41.95 -0.1 41.85 -0.2 41.75 -0.25 41.65 -0.35 Q41.4 -0.45 41.4 -0.7 41.2 -1.35 41.85 -1.45 L41.95 -1.5 42.05 -1.5 42.1 -1.55 42.6 -1.55 42.85 -1.6 42.95 -1.6 43.1 -1.55 43.7 -1.45 44.4 -1.25 44.75 -1.05 44.9 -1.0 45.25 -0.75 45.3 -0.7 45.4 -0.65 45.55 -0.5 45.65 -0.45 45.7 -0.4 45.7 -0.35 46.3 0.25 46.3 0.3 46.35 0.35 46.45 0.5 46.55 0.7 46.6 0.75 46.6 0.85 46.75 1.2 46.85 1.5 47.05 2.25 47.05 3.15 47.0 3.25 47.0 3.3" fill="#1d1010" fill-rule="evenodd" stroke="none"/>
  </g>
  <defs>
    <radialGradient cx="0" cy="0" gradientTransform="matrix(0.0067, -0.0018, 0.0029, 0.011, 14.35, -19.85)" gradientUnits="userSpaceOnUse" id="gradient0" r="819.2" spreadMethod="pad">
      <stop offset="0.10588235294117647" stop-color="#d0beec"/>
      <stop offset="0.2823529411764706" stop-color="#afa0c6"/>
      <stop offset="0.5529411764705883" stop-color="#8b809f"/>
    </radialGradient>
    <radialGradient cx="0" cy="0" gradientTransform="matrix(0.0057, -0.0079, 0.0184, 0.0133, -13.55, -24.8)" gradientUnits="userSpaceOnUse" id="gradient1" r="819.2" spreadMethod="pad">
      <stop offset="0.10588235294117647" stop-color="#d0beec"/>
      <stop offset="0.2823529411764706" stop-color="#afa0c6"/>
      <stop offset="0.5529411764705883" stop-color="#8b809f"/>
    </radialGradient>
  </defs>
</svg>
