<?xml version="1.0" encoding="UTF-8" standalone="no"?>
<svg xmlns:xlink="http://www.w3.org/1999/xlink" height="998.95px" width="1326.9px" xmlns="http://www.w3.org/2000/svg">
  <g transform="matrix(1.0, 0.0, 0.0, 1.0, 663.45, 795.6)">
    <path d="M540.3 -686.55 L560.95 -686.55 560.95 -373.0 171.2 -373.0 171.2 -686.55 201.25 -686.55 540.3 -686.55 M554.15 -665.75 L554.15 -676.65 176.65 -676.65 176.65 -529.8 217.75 -529.8 390.9 -529.8 554.15 -529.8 554.15 -587.3 554.15 -596.35 554.15 -603.25 554.15 -665.75 M554.15 -495.65 L554.15 -516.55 176.65 -516.55 176.65 -379.25 290.95 -379.25 436.45 -379.25 554.15 -379.25 554.15 -437.45 554.15 -495.65 M-160.8 -689.65 L-160.8 -376.1 -550.55 -376.1 -550.55 -689.65 -520.5 -689.65 -181.45 -689.65 -160.8 -689.65 M-167.6 -668.85 L-167.6 -679.75 -545.1 -679.75 -545.1 -532.9 -504.0 -532.9 -330.85 -532.9 -167.6 -532.9 -167.6 -590.4 -167.6 -599.45 -167.6 -606.35 -167.6 -668.85 M-167.6 -498.75 L-167.6 -519.65 -545.1 -519.65 -545.1 -382.35 -430.8 -382.35 -285.3 -382.35 -167.6 -382.35 -167.6 -440.55 -167.6 -498.75" fill="#fff5f5" fill-rule="evenodd" stroke="none"/>
    <path d="M171.2 -373.0 L560.95 -373.0 570.6 -370.1 600.1 -370.1 604.5 -368.05 604.5 -363.65 578.6 -363.65 560.7 -345.75 181.1 -345.75 163.15 -363.65 139.85 -363.65 137.2 -365.65 137.2 -370.1 171.2 -370.1 171.2 -373.0 M139.85 -363.65 L139.85 -368.05 137.2 -370.1 139.85 -368.05 604.5 -368.05 139.85 -368.05 139.85 -363.65 M578.6 -363.65 L163.15 -363.65 578.6 -363.65 M-160.8 -376.1 L-151.15 -373.2 -121.65 -373.2 -117.25 -371.15 -117.25 -366.75 -143.15 -366.75 -161.05 -348.85 -540.65 -348.85 -558.6 -366.75 -581.9 -366.75 -584.55 -368.75 -584.55 -373.2 -550.55 -373.2 -550.55 -376.1 -160.8 -376.1 M-581.9 -366.75 L-581.9 -371.15 -584.55 -373.2 -581.9 -371.15 -117.25 -371.15 -581.9 -371.15 -581.9 -366.75 M-305.4 -193.8 L-305.4 -188.55 -305.4 -146.25 -662.75 -146.25 -662.75 -188.55 -662.75 -193.8 -305.4 -193.8 M-143.15 -366.75 L-558.6 -366.75 -143.15 -366.75 M-305.4 -188.55 L-662.75 -188.55 -305.4 -188.55" fill="#6b2a2a" fill-rule="evenodd" stroke="none"/>
    <path d="M540.3 -686.55 L540.3 -689.8 570.6 -689.8 560.95 -686.55 570.6 -689.8 570.6 -370.1 560.95 -373.0 560.95 -686.55 540.3 -686.55" fill="url(#gradient0)" fill-rule="evenodd" stroke="none"/>
    <path d="M540.3 -689.8 L540.3 -686.55 201.25 -686.55 201.25 -689.8 540.3 -689.8" fill="url(#gradient1)" fill-rule="evenodd" stroke="none"/>
    <path d="M201.25 -689.8 L201.25 -686.55 171.2 -686.55 171.2 -689.8 201.25 -689.8" fill="url(#gradient2)" fill-rule="evenodd" stroke="none"/>
    <path d="M-519.2 -125.6 L-493.75 -101.3 -519.2 -125.6 -662.75 -125.6 -519.2 -125.6 -305.4 -125.6 -519.2 -125.6 M-662.75 -101.3 L-662.75 -125.6 -662.75 -146.25 -305.4 -146.25 -305.4 -125.6 -305.4 -101.3 -356.25 -101.3 -493.75 -101.3 -598.9 -101.3 -662.75 -101.3 -598.9 -101.3 -493.75 -101.3 -356.25 -101.3 -305.4 -101.3 -305.4 -72.9 -305.4 -64.05 -305.4 -37.55 -426.95 -37.55 -543.45 -37.55 -662.75 -37.55 -543.45 -37.55 -426.95 -37.55 -305.4 -37.55 -305.4 8.9 -305.4 62.2 -662.75 62.2 -662.75 8.9 -662.75 -37.55 -662.75 -72.9 -574.2 -72.9 -464.0 -72.9 -574.2 -72.9 -662.75 -72.9 -662.75 -101.3 M-464.0 -72.9 L-426.95 -37.55 -464.0 -72.9 -319.9 -72.9 -305.4 -72.9 -319.9 -72.9 -464.0 -72.9 M-598.9 -101.3 L-574.2 -72.9 -598.9 -101.3 M-356.25 -101.3 L-319.9 -72.9 -356.25 -101.3 M-305.4 8.9 L-503.1 8.9 -305.4 8.9 M-543.45 -37.55 L-503.1 8.9 -543.45 -37.55 M-503.1 8.9 L-662.75 8.9 -503.1 8.9" fill="url(#gradient3)" fill-rule="evenodd" stroke="none"/>
    <path d="M217.75 -529.8 L554.15 -665.75 554.15 -603.25 390.9 -529.8 217.75 -529.8 M554.15 -596.35 L554.15 -587.3 444.15 -541.2 554.15 -596.35 M335.75 -487.65 L408.85 -509.2 372.75 -493.65 216.15 -434.35 335.75 -487.65 M554.15 -495.65 L554.15 -437.45 436.45 -379.25 290.95 -379.25 539.0 -490.8 554.15 -495.65 M-504.0 -532.9 L-167.6 -668.85 -167.6 -606.35 -330.85 -532.9 -504.0 -532.9 M-167.6 -599.45 L-167.6 -590.4 -277.6 -544.3 -167.6 -599.45 M-167.6 -498.75 L-167.6 -440.55 -285.3 -382.35 -430.8 -382.35 -182.75 -493.9 -167.6 -498.75 M-386.0 -490.75 L-312.9 -512.3 -349.0 -496.75 -505.6 -437.45 -386.0 -490.75" fill="#98afa0" fill-opacity="0.7019608" fill-rule="evenodd" stroke="none"/>
    <path d="M217.75 -529.8 L176.65 -529.8 176.65 -676.65 554.15 -676.65 554.15 -665.75 217.75 -529.8 M554.15 -603.25 L554.15 -596.35 444.15 -541.2 554.15 -587.3 554.15 -529.8 390.9 -529.8 554.15 -603.25 M335.75 -487.65 L216.15 -434.35 372.75 -493.65 408.85 -509.2 335.75 -487.65 M290.95 -379.25 L176.65 -379.25 176.65 -516.55 554.15 -516.55 554.15 -495.65 539.0 -490.8 290.95 -379.25 M554.15 -437.45 L554.15 -379.25 436.45 -379.25 554.15 -437.45 M-504.0 -532.9 L-545.1 -532.9 -545.1 -679.75 -167.6 -679.75 -167.6 -668.85 -504.0 -532.9 M-167.6 -606.35 L-167.6 -599.45 -277.6 -544.3 -167.6 -590.4 -167.6 -532.9 -330.85 -532.9 -167.6 -606.35 M-430.8 -382.35 L-545.1 -382.35 -545.1 -519.65 -167.6 -519.65 -167.6 -498.75 -182.75 -493.9 -430.8 -382.35 M-167.6 -440.55 L-167.6 -382.35 -285.3 -382.35 -167.6 -440.55 M-386.0 -490.75 L-505.6 -437.45 -349.0 -496.75 -312.9 -512.3 -386.0 -490.75" fill="#49544d" fill-opacity="0.7019608" fill-rule="evenodd" stroke="none"/>
    <path d="M-160.8 -689.65 L-151.15 -692.9 -160.8 -689.65 -181.45 -689.65 -181.45 -692.9 -151.15 -692.9 -151.15 -373.2 -160.8 -376.1 -160.8 -689.65" fill="url(#gradient4)" fill-rule="evenodd" stroke="none"/>
    <path d="M-181.45 -692.9 L-181.45 -689.65 -520.5 -689.65 -520.5 -692.9 -181.45 -692.9" fill="url(#gradient5)" fill-rule="evenodd" stroke="none"/>
    <path d="M-520.5 -692.9 L-520.5 -689.65 -550.55 -689.65 -550.55 -692.9 -520.5 -692.9" fill="url(#gradient6)" fill-rule="evenodd" stroke="none"/>
    <path d="M570.6 -689.8 L540.3 -689.8 201.25 -689.8 171.2 -689.8 171.2 -686.55 171.2 -373.0 171.2 -370.1 137.2 -370.1 137.2 -365.65 139.85 -363.65 163.15 -363.65 181.1 -345.75 560.7 -345.75 578.6 -363.65 604.5 -363.65 604.5 -368.05 600.1 -370.1 570.6 -370.1 570.6 -689.8 M-151.15 -373.2 L-151.15 -692.9 -181.45 -692.9 -520.5 -692.9 -550.55 -692.9 -550.55 -689.65 -550.55 -376.1 -550.55 -373.2 -584.55 -373.2 -584.55 -368.75 -581.9 -366.75 -558.6 -366.75 -540.65 -348.85 -161.05 -348.85 -143.15 -366.75 -117.25 -366.75 -117.25 -371.15 -121.65 -373.2 -151.15 -373.2 M-305.4 -101.3 L-305.4 -125.6 -305.4 -146.25 -305.4 -188.55 -305.4 -193.8 -662.75 -193.8 -662.75 -264.2 -662.6 -264.2 -662.6 -795.6 661.25 -795.6 661.25 -64.05 -305.4 -64.05 -305.4 -72.9 -305.4 -101.3" fill="url(#gradient7)" fill-rule="evenodd" stroke="none"/>
    <path d="M540.3 -686.55 L560.95 -686.55 570.6 -689.8 540.3 -689.8 201.25 -689.8 171.2 -689.8 171.2 -686.55 171.2 -373.0 560.95 -373.0 560.95 -686.55 M201.25 -686.55 L540.3 -686.55 M554.15 -665.75 L554.15 -676.65 176.65 -676.65 176.65 -529.8 217.75 -529.8 390.9 -529.8 554.15 -529.8 554.15 -587.3 554.15 -596.35 554.15 -603.25 554.15 -665.75 M290.95 -379.25 L176.65 -379.25 176.65 -516.55 554.15 -516.55 554.15 -495.65 554.15 -437.45 554.15 -379.25 436.45 -379.25 290.95 -379.25 M201.25 -686.55 L171.2 -686.55 M570.6 -370.1 L600.1 -370.1 604.5 -368.05 604.5 -363.65 578.6 -363.65 560.7 -345.75 181.1 -345.75 163.15 -363.65 139.85 -363.65 137.2 -365.65 137.2 -370.1 171.2 -370.1 171.2 -373.0 M137.2 -370.1 L139.85 -368.05 604.5 -368.05 M139.85 -368.05 L139.85 -363.65 M570.6 -370.1 L560.95 -373.0 M570.6 -689.8 L570.6 -370.1 M163.15 -363.65 L578.6 -363.65 M-151.15 -692.9 L-160.8 -689.65 -160.8 -376.1 -151.15 -373.2 -151.15 -692.9 -181.45 -692.9 -520.5 -692.9 -550.55 -692.9 -550.55 -689.65 -520.5 -689.65 -181.45 -689.65 -160.8 -689.65 M-167.6 -668.85 L-167.6 -679.75 -545.1 -679.75 -545.1 -532.9 -504.0 -532.9 -330.85 -532.9 -167.6 -532.9 -167.6 -590.4 -167.6 -599.45 -167.6 -606.35 -167.6 -668.85 M-430.8 -382.35 L-545.1 -382.35 -545.1 -519.65 -167.6 -519.65 -167.6 -498.75 -167.6 -440.55 -167.6 -382.35 -285.3 -382.35 -430.8 -382.35 M-151.15 -373.2 L-121.65 -373.2 -117.25 -371.15 -117.25 -366.75 -143.15 -366.75 -161.05 -348.85 -540.65 -348.85 -558.6 -366.75 -581.9 -366.75 -584.55 -368.75 -584.55 -373.2 -550.55 -373.2 -550.55 -376.1 -550.55 -689.65 M-584.55 -373.2 L-581.9 -371.15 -117.25 -371.15 M-581.9 -371.15 L-581.9 -366.75 M-558.6 -366.75 L-143.15 -366.75 M-550.55 -376.1 L-160.8 -376.1 M-662.75 -193.8 L-305.4 -193.8 M-662.75 -146.25 L-305.4 -146.25 M-662.75 -188.55 L-305.4 -188.55" fill="none" stroke="#251c18" stroke-linecap="round" stroke-linejoin="round" stroke-width="1.2000000000000002"/>
    <path d="M-493.75 -101.3 L-519.2 -125.6 M-574.2 -72.9 L-598.9 -101.3 M-426.95 -37.55 L-464.0 -72.9 M-319.9 -72.9 L-356.25 -101.3 M-557.1 100.1 L-581.7 67.1 M-334.1 203.35 L-365.8 166.85 M-503.1 8.9 L-543.45 -37.55" fill="none" stroke="#669066" stroke-linecap="round" stroke-linejoin="round" stroke-width="0.05"/>
    <path d="M-519.2 -125.6 L-662.75 -125.6 M-662.75 -101.3 L-598.9 -101.3 -493.75 -101.3 -356.25 -101.3 -305.4 -101.3 M-305.4 -125.6 L-519.2 -125.6 M-464.0 -72.9 L-574.2 -72.9 -662.75 -72.9 M-662.75 -37.55 L-543.45 -37.55 -426.95 -37.55 -305.4 -37.55 M-305.4 -72.9 L-319.9 -72.9 -464.0 -72.9 M-503.1 8.9 L-305.4 8.9 M-662.75 8.9 L-503.1 8.9" fill="none" stroke="#797261" stroke-linecap="round" stroke-linejoin="round" stroke-width="1.2000000000000002"/>
    <path d="M-581.7 67.1 L-662.75 67.1 M-581.7 67.1 L-452.5 67.1" fill="none" stroke="#669066" stroke-linecap="round" stroke-linejoin="round" stroke-width="1.2000000000000002"/>
    <path d="M662.6 -231.25 L662.6 -196.6 662.55 19.95 Q611.45 16.55 558.35 -4.15 493.65 -32.2 420.45 -29.85 404.35 -32.1 392.35 -26.05 384.4 -30.75 374.35 -36.05 343.85 -52.15 312.9 -62.65 L300.7 -66.6 312.9 -62.65 Q343.85 -52.15 374.35 -36.05 384.4 -30.75 392.35 -26.05 409.3 -16.0 416.65 -8.6 418.8 -6.75 422.45 -4.45 370.85 -29.35 343.6 -27.35 334.8 -33.8 320.95 -39.4 271.05 -43.2 261.6 -15.55 267.85 -9.3 271.7 -4.45 239.0 -12.85 211.4 -2.2 216.15 2.0 219.7 7.1 180.3 -10.05 145.0 -5.05 135.95 -16.45 119.1 -18.9 L118.9 -18.95 Q106.6 -20.8 102.1 -12.9 97.45 -21.9 84.8 -38.95 69.85 -58.95 58.05 -70.05 L52.95 -75.1 Q46.7 -81.65 33.5 -92.2 L19.05 -103.5 -15.1 -130.95 Q-21.0 -140.15 -26.0 -149.7 -31.0 -159.2 -35.1 -169.05 -41.6 -184.65 -47.8 -204.95 -53.55 -223.55 -59.05 -246.05 -53.55 -223.55 -47.8 -204.95 -41.6 -184.65 -35.1 -169.05 -31.0 -159.2 -26.0 -149.7 -21.0 -140.15 -15.1 -130.95 L19.05 -103.5 33.5 -92.2 Q46.7 -81.65 52.95 -75.1 L58.05 -70.05 Q69.85 -58.95 84.8 -38.95 97.45 -21.9 102.1 -12.9 L89.25 -21.05 Q-45.55 -61.55 -90.75 -35.6 -113.05 -55.4 -135.3 -56.75 -157.5 -67.2 -173.05 -50.85 -163.85 -45.2 -160.75 -31.7 L-158.8 -25.2 -157.45 -20.25 Q-173.8 -47.0 -190.15 -30.55 -191.05 -33.9 -192.3 -36.75 -214.2 -54.85 -224.55 -32.35 -283.0 -37.2 -306.0 -45.95 -302.55 -39.7 -299.55 -32.35 -338.35 -54.35 -371.5 -46.9 -374.55 -66.45 -390.4 -75.25 -414.9 -88.95 -428.1 -87.1 L-429.4 -81.0 -662.6 -64.05 -655.05 -71.55 Q-615.4 -112.25 -610.6 -117.55 L-579.7 -152.3 -573.05 -160.1 -564.75 -169.5 -557.4 -179.0 -550.85 -187.35 Q-544.75 -196.5 -538.95 -204.15 -528.0 -218.65 -518.1 -227.6 -504.55 -239.85 -489.5 -244.75 -478.9 -248.2 -459.35 -249.85 -433.0 -251.95 -421.75 -253.85 L-405.8 -251.95 -394.1 -250.95 -386.8 -249.6 -226.85 -264.2 -65.1 -246.7 -59.05 -246.05 -52.95 -246.75 -34.3 -247.7 -33.45 -247.75 -32.95 -247.75 -13.95 -248.6 -13.3 -248.65 -1.85 -248.2 13.9 -246.55 24.2 -245.35 25.75 -245.15 33.3 -244.4 33.35 -244.4 43.7 -242.55 Q50.4 -241.25 52.75 -241.6 53.55 -241.75 58.45 -243.85 L69.7 -247.0 78.45 -247.9 84.05 -247.3 93.1 -245.8 97.1 -243.75 Q101.15 -241.8 102.95 -241.95 L104.3 -241.7 Q106.0 -241.55 107.6 -242.6 L109.4 -243.75 111.45 -244.65 112.65 -245.15 117.6 -247.25 125.35 -250.35 126.45 -250.75 130.15 -251.2 133.9 -251.45 Q140.55 -251.45 146.05 -249.5 148.75 -248.6 156.05 -244.85 L160.15 -242.2 Q162.15 -240.95 162.75 -241.1 L164.05 -241.4 174.1 -243.1 177.15 -243.25 182.4 -243.65 193.7 -242.85 Q200.5 -242.1 205.25 -240.85 L209.55 -239.5 217.4 -235.15 Q225.4 -231.45 233.5 -231.25 L258.0 -231.25 282.5 -231.25 286.5 -231.25 440.6 -231.25 589.45 -231.25 662.6 -231.25 M-47.8 -204.95 Q121.25 -195.85 288.85 -193.45 384.6 -192.1 479.85 -192.95 483.2 -158.4 508.2 -134.7 406.55 -135.3 304.6 -137.6 285.5 -163.7 288.85 -193.45 285.5 -163.7 304.6 -137.6 406.55 -135.3 508.2 -134.7 483.2 -158.4 479.85 -192.95 384.6 -192.1 288.85 -193.45 121.25 -195.85 -47.8 -204.95 M288.85 -193.45 Q278.65 -222.85 258.0 -231.25 278.65 -222.85 288.85 -193.45 M621.8 -195.4 Q550.95 -193.6 479.85 -192.95 475.45 -213.95 440.6 -231.25 475.45 -213.95 479.85 -192.95 550.95 -193.6 621.8 -195.4 L589.45 -231.25 621.8 -195.4 662.6 -196.6 621.8 -195.4 M-391.8 -214.0 L-393.55 -200.7 Q-394.0 -198.05 -400.75 -166.55 L-400.9 -166.05 Q-401.3 -163.65 -402.2 -161.3 L-403.65 -157.55 -403.7 -157.35 Q-404.7 -153.75 -407.35 -150.5 -404.7 -153.75 -403.7 -157.35 L-403.65 -157.55 -402.2 -161.3 Q-401.3 -163.65 -400.9 -166.05 L-400.75 -166.55 Q-394.0 -198.05 -393.55 -200.7 L-391.8 -214.0 -386.9 -248.7 -386.8 -249.6 -386.9 -248.7 -391.8 -214.0 Q-457.75 -216.65 -538.95 -204.15 -457.75 -216.65 -391.8 -214.0 -300.1 -202.15 -212.5 -210.6 -300.1 -202.15 -391.8 -214.0 M-407.35 -150.5 Q-418.75 -129.85 -428.1 -87.1 -418.75 -129.85 -407.35 -150.5 -489.35 -159.8 -579.7 -152.3 -489.35 -159.8 -407.35 -150.5 -298.25 -142.85 -199.9 -153.15 -298.25 -142.85 -407.35 -150.5 M-212.5 -210.6 Q-210.25 -197.1 -207.6 -184.75 -204.2 -168.9 -199.9 -153.15 -204.2 -168.9 -207.6 -184.75 -210.25 -197.1 -212.5 -210.6 L-213.5 -216.75 -216.4 -234.75 -216.95 -237.1 Q-220.75 -252.9 -226.85 -264.2 -220.75 -252.9 -216.95 -237.1 L-216.4 -234.75 -213.5 -216.75 -212.5 -210.6 M-199.9 -153.15 Q-190.8 -119.8 -177.5 -86.7 L-177.55 -69.6 Q-177.65 -60.75 -173.05 -50.85 -177.65 -60.75 -177.55 -69.6 L-177.5 -86.7 Q-190.8 -119.8 -199.9 -153.15 M304.6 -137.6 Q139.7 -141.35 -26.0 -149.7 139.7 -141.35 304.6 -137.6" fill="url(#gradient8)" fill-rule="evenodd" stroke="none"/>
    <path d="M-662.6 55.75 L-662.6 -17.0 Q-576.95 -26.55 -492.35 -29.4 -489.2 -23.1 -486.3 -18.45 -482.65 -44.4 -460.6 -35.9 -460.15 -41.05 -460.05 -45.6 -447.1 -49.35 -441.45 -33.85 L-440.75 -38.8 Q-438.05 -57.3 -437.9 -52.85 -397.65 -47.6 -370.9 -32.05 -370.45 -40.1 -371.5 -46.9 -338.35 -54.35 -299.55 -32.35 -302.55 -39.7 -306.0 -45.95 -283.0 -37.2 -224.55 -32.35 -214.2 -54.85 -192.3 -36.75 -191.05 -33.9 -190.15 -30.55 -173.8 -47.0 -157.45 -20.25 L-158.8 -25.2 -160.75 -31.7 Q-163.85 -45.2 -173.05 -50.85 -157.5 -67.2 -135.3 -56.75 -113.05 -55.4 -90.75 -35.6 -45.55 -61.55 89.25 -21.05 L102.1 -12.9 107.5 -3.45 114.65 9.8 118.5 18.45 114.65 9.8 107.5 -3.45 102.1 -12.9 Q106.6 -20.8 118.9 -18.95 L119.1 -18.9 Q135.95 -16.45 145.0 -5.05 180.3 -10.05 219.7 7.1 216.15 2.0 211.4 -2.2 239.0 -12.85 271.7 -4.45 L274.1 -1.25 Q276.3 1.95 278.3 5.5 L295.1 31.65 282.45 31.45 Q272.15 31.7 249.4 28.7 223.45 25.25 205.15 20.25 L202.05 19.4 Q192.1 16.85 180.05 15.25 167.4 13.6 156.85 13.6 L140.05 14.55 Q126.45 15.85 118.5 18.45 82.05 22.3 65.0 22.3 L51.0 21.25 30.35 20.1 Q10.6 20.1 -31.3 20.9 -67.55 21.55 -85.85 21.3 L-113.65 20.4 -146.9 18.45 -155.55 -13.3 -157.45 -20.25 -155.55 -13.3 -146.9 18.45 -161.15 18.5 -204.15 19.8 Q-235.35 20.95 -380.25 31.95 L-445.7 37.8 -445.9 34.3 Q-445.5 -3.75 -441.45 -33.85 -445.5 -3.75 -445.9 34.3 L-445.7 37.8 -476.85 39.05 -524.7 41.75 -592.6 47.55 -662.6 55.75 M-65.1 -246.7 Q-57.25 -246.55 -52.95 -246.75 L-59.05 -246.05 -65.1 -246.7 M102.95 -241.95 Q105.55 -241.85 107.6 -242.6 106.0 -241.55 104.3 -241.7 L102.95 -241.95 M112.65 -245.15 L119.1 -248.15 125.35 -250.35 117.6 -247.25 112.65 -245.15 M156.05 -244.85 L162.75 -241.1 Q162.15 -240.95 160.15 -242.2 L156.05 -244.85 M177.15 -243.25 L180.85 -243.65 182.4 -243.65 177.15 -243.25 M282.5 -231.25 L286.6 -231.4 286.5 -231.25 282.5 -231.25 M-371.95 -22.2 Q-371.15 -27.35 -370.9 -32.05 -371.15 -27.35 -371.95 -22.2" fill="#8b2828" fill-rule="evenodd" stroke="none"/>
    <path d="M662.55 19.95 L662.55 92.9 475.55 92.9 311.2 92.9 137.2 92.9 -141.15 92.9 -439.05 92.9 -662.6 92.9 -662.6 55.75 -592.6 47.55 -524.7 41.75 -476.85 39.05 -445.7 37.8 -380.25 31.95 Q-235.35 20.95 -204.15 19.8 L-161.15 18.5 -146.9 18.45 -113.65 20.4 -85.85 21.3 Q-67.55 21.55 -31.3 20.9 10.6 20.1 30.35 20.1 L51.0 21.25 65.0 22.3 Q82.05 22.3 118.5 18.45 126.45 15.85 140.05 14.55 L156.85 13.6 Q167.4 13.6 180.05 15.25 192.1 16.85 202.05 19.4 L205.15 20.25 Q223.45 25.25 249.4 28.7 272.15 31.7 282.45 31.45 L295.1 31.65 278.3 5.5 Q276.3 1.95 274.1 -1.25 L271.7 -4.45 Q267.85 -9.3 261.6 -15.55 271.05 -43.2 320.95 -39.4 334.8 -33.8 343.6 -27.35 370.85 -29.35 422.45 -4.45 425.0 -2.85 428.25 -1.05 434.35 3.05 434.35 8.95 438.8 14.5 441.5 18.45 444.7 23.2 447.1 27.9 L475.55 92.9 447.1 27.9 Q444.7 23.2 441.5 18.45 438.8 14.5 434.35 8.95 434.35 3.05 428.25 -1.05 425.0 -2.85 422.45 -4.45 418.8 -6.75 416.65 -8.6 409.3 -16.0 392.35 -26.05 404.35 -32.1 420.45 -29.85 493.65 -32.2 558.35 -4.15 611.45 16.55 662.55 19.95 M137.2 92.9 Q132.65 66.3 131.3 60.15 L118.5 18.45 131.3 60.15 Q132.65 66.3 137.2 92.9 M311.2 92.9 Q311.5 79.15 306.35 59.55 301.2 39.95 295.1 31.65 301.2 39.95 306.35 59.55 311.5 79.15 311.2 92.9 M-141.15 92.9 L-146.9 18.45 -141.15 92.9 M-439.05 92.9 L-445.7 37.8 -439.05 92.9" fill="url(#gradient9)" fill-rule="evenodd" stroke="none"/>
    <path d="M-662.6 -17.0 L-662.6 -64.05 -429.4 -81.0 -428.1 -87.1 Q-414.9 -88.95 -390.4 -75.25 -374.55 -66.45 -371.5 -46.9 -370.45 -40.1 -370.9 -32.05 -397.65 -47.6 -437.9 -52.85 -438.05 -57.3 -440.75 -38.8 L-441.45 -33.85 Q-447.1 -49.35 -460.05 -45.6 -460.15 -41.05 -460.6 -35.9 -482.65 -44.4 -486.3 -18.45 -489.2 -23.1 -492.35 -29.4 -576.95 -26.55 -662.6 -17.0 M-429.4 -81.0 Q-432.2 -76.65 -437.9 -52.85 -432.2 -76.65 -429.4 -81.0" fill="#7f1f1f" fill-rule="evenodd" stroke="none"/>
    <path d="M-662.6 -64.05 L-655.05 -71.55 Q-615.4 -112.25 -610.6 -117.55 L-579.7 -152.3 -573.05 -160.1 -557.4 -179.0 -550.85 -187.35 Q-544.75 -196.5 -538.95 -204.15 -528.0 -218.65 -518.1 -227.6 -504.55 -239.85 -489.5 -244.75 -478.9 -248.2 -459.35 -249.85 -433.0 -251.95 -421.75 -253.85 L-394.1 -250.95 -386.8 -249.6 -226.85 -264.2 -65.1 -246.7 -59.05 -246.05 -52.95 -246.75 -34.3 -247.7 -33.45 -247.75 -32.95 -247.75 -13.95 -248.6 -13.3 -248.65 -1.85 -248.2 13.9 -246.55 24.2 -245.35 33.3 -244.4 33.35 -244.4 43.7 -242.55 Q50.4 -241.25 52.75 -241.6 53.55 -241.75 58.45 -243.85 L69.7 -247.0 78.45 -247.9 84.05 -247.3 93.1 -245.8 96.2 -244.7 102.95 -241.95 104.3 -241.7 Q106.0 -241.55 107.6 -242.6 L109.4 -243.75 111.45 -244.65 112.65 -245.15 117.6 -247.25 125.35 -250.35 126.45 -250.75 130.15 -251.2 133.9 -251.45 Q140.55 -251.45 146.05 -249.5 148.75 -248.6 156.05 -244.85 L160.15 -242.2 Q162.15 -240.95 162.75 -241.1 L164.05 -241.4 174.1 -243.1 177.15 -243.25 182.4 -243.65 183.5 -243.7 Q195.35 -243.7 205.25 -240.85 L209.55 -239.5 217.4 -235.15 Q225.4 -231.45 233.5 -231.25 L258.0 -231.25 282.5 -231.25 286.5 -231.25 440.6 -231.25 589.45 -231.25 662.6 -231.25 M102.1 -12.9 Q97.45 -21.9 84.8 -38.95 69.85 -58.95 58.05 -70.05 L52.95 -75.1 Q46.7 -81.65 33.5 -92.2 L19.05 -103.5 -15.1 -130.95 Q-21.0 -140.15 -26.0 -149.7 -31.0 -159.2 -35.1 -169.05 -41.6 -184.65 -47.8 -204.95 -53.55 -223.55 -59.05 -246.05 M118.5 18.45 L114.65 9.8 107.5 -3.45 102.1 -12.9 M-160.75 -31.7 L-158.8 -25.2 -157.45 -20.25 -155.55 -13.3 -146.9 18.45 -113.65 20.4 -85.85 21.3 Q-67.55 21.55 -31.3 20.9 10.6 20.1 30.35 20.1 L51.0 21.25 65.0 22.3 Q82.05 22.3 118.5 18.45 126.45 15.85 140.05 14.55 L156.85 13.6 Q167.4 13.6 180.05 15.25 192.1 16.85 202.05 19.4 L205.15 20.25 Q223.45 25.25 249.4 28.7 272.15 31.7 282.45 31.45 L295.1 31.65 Q301.2 39.95 306.35 59.55 311.5 79.15 311.2 92.9 M392.35 -26.05 Q384.4 -30.75 374.35 -36.05 343.85 -52.15 312.9 -62.65 L300.7 -66.6 M475.55 92.9 L447.1 27.9 Q444.7 23.2 441.5 18.45 438.8 14.5 434.35 8.95 434.35 3.05 428.25 -1.05 425.0 -2.85 422.45 -4.45 418.8 -6.75 416.65 -8.6 409.3 -16.0 392.35 -26.05 M118.5 18.45 L131.3 60.15 Q132.65 66.3 137.2 92.9 M-391.8 -214.0 L-386.9 -248.7 -386.8 -249.6 M-407.35 -150.5 Q-404.7 -153.75 -403.7 -157.35 L-403.65 -157.55 -402.2 -161.3 Q-401.3 -163.65 -400.9 -166.05 L-400.75 -166.55 Q-394.0 -198.05 -393.55 -200.7 L-391.8 -214.0 M-441.45 -33.85 L-440.75 -38.8 Q-438.05 -57.3 -437.9 -52.85 -432.2 -76.65 -429.4 -81.0 L-428.1 -87.1 Q-418.75 -129.85 -407.35 -150.5 M-212.5 -210.6 L-213.5 -216.75 -216.4 -234.75 -216.95 -237.1 Q-220.75 -252.9 -226.85 -264.2 M-199.9 -153.15 Q-204.2 -168.9 -207.6 -184.75 -210.25 -197.1 -212.5 -210.6 M-173.05 -50.85 Q-177.65 -60.75 -177.55 -69.6 L-177.5 -86.7 Q-190.8 -119.8 -199.9 -153.15 M-146.9 18.45 L-161.15 18.5 -204.15 19.8 Q-235.35 20.95 -380.25 31.95 L-445.7 37.8 -439.05 92.9 M-146.9 18.45 L-141.15 92.9 M-445.7 37.8 L-445.9 34.3 Q-445.5 -3.75 -441.45 -33.85 M-445.7 37.8 L-476.85 39.05 -524.7 41.75 -592.6 47.55 -662.6 55.75" fill="none" stroke="#373535" stroke-linecap="round" stroke-linejoin="round" stroke-width="1.2000000000000002"/>
    <path d="M288.85 -193.45 Q285.5 -163.7 304.6 -137.6 406.55 -135.3 508.2 -134.7 483.2 -158.4 479.85 -192.95 384.6 -192.1 288.85 -193.45 121.25 -195.85 -47.8 -204.95 M258.0 -231.25 Q278.65 -222.85 288.85 -193.45 M589.45 -231.25 L621.8 -195.4 662.6 -196.6 M440.6 -231.25 Q475.45 -213.95 479.85 -192.95 550.95 -193.6 621.8 -195.4 M-391.8 -214.0 Q-457.75 -216.65 -538.95 -204.15 M-429.4 -81.0 L-662.6 -64.05 M-407.35 -150.5 Q-489.35 -159.8 -579.7 -152.3 M-371.5 -46.9 Q-370.45 -40.1 -370.9 -32.05 -371.15 -27.35 -371.95 -22.2 M-428.1 -87.1 Q-414.9 -88.95 -390.4 -75.25 -374.55 -66.45 -371.5 -46.9 M-212.5 -210.6 Q-300.1 -202.15 -391.8 -214.0 M-199.9 -153.15 Q-298.25 -142.85 -407.35 -150.5 M-26.0 -149.7 Q139.7 -141.35 304.6 -137.6" fill="none" stroke="#373535" stroke-linecap="round" stroke-linejoin="round" stroke-width="1.7000000000000002"/>
    <path d="M220.0 -40.45 L220.0 -40.3 219.85 -40.3 199.95 -52.55 194.5 -55.85 168.0 -71.1 152.85 -79.2 136.95 -87.1 120.75 -94.35 112.65 -97.6 104.65 -100.5 Q96.65 -103.25 89.3 -105.1 81.9 -106.95 75.15 -107.8 L63.05 -108.35 57.45 -107.8 57.15 -107.8 54.25 -107.25 53.8 -107.1 50.45 -106.15 48.05 -105.25 46.1 -104.4 Q46.0 -104.3 46.0 -104.45 L46.05 -104.55 47.95 -105.5 Q50.55 -106.7 53.7 -107.5 L54.2 -107.65 55.45 -107.9 55.7 -108.0 57.35 -108.3 65.85 -109.05 68.85 -109.0 75.25 -108.55 89.5 -106.0 Q96.45 -104.4 105.0 -101.5 L113.05 -98.65 121.2 -95.45 137.45 -88.2 153.4 -80.25 168.55 -72.05 200.35 -53.15 220.0 -40.45" fill="#1e0b0d" fill-rule="evenodd" stroke="none"/>
    <path d="M451.9 -66.2 Q451.75 -66.2 451.85 -66.3 L451.95 -66.35 471.35 -63.3 471.55 -63.25 471.75 -63.25 474.3 -62.7 474.5 -62.7 514.4 -55.25 514.45 -55.25 514.55 -55.2 514.7 -55.2 515.0 -55.1 519.6 -54.15 538.75 -49.85 558.5 -45.1 597.4 -34.95 662.7 -14.4 Q663.3 -14.25 663.1 -13.65 662.95 -13.05 662.35 -13.25 L597.4 -34.0 597.05 -34.15 597.0 -34.15 596.85 -34.2 577.9 -39.3 573.05 -40.6 558.3 -44.45 538.65 -49.25 519.5 -53.65 514.6 -54.7 514.45 -54.75 514.3 -54.75 474.45 -62.4 474.25 -62.4 471.5 -63.0 471.3 -63.0 451.9 -66.2 M621.1 -194.85 Q620.85 -195.1 620.9 -195.45 620.95 -195.85 621.25 -196.05 621.5 -196.3 621.85 -196.25 L622.45 -195.9 628.6 -187.75 628.8 -187.5 634.65 -177.95 637.55 -172.15 642.05 -161.25 642.2 -160.75 642.4 -160.3 645.8 -148.75 647.75 -139.5 650.1 -119.05 650.2 -116.2 650.15 -116.1 Q650.05 -116.0 650.05 -116.15 L648.15 -133.8 648.05 -134.2 647.8 -135.9 644.65 -150.0 641.35 -160.2 641.3 -160.4 637.3 -169.95 636.05 -172.5 632.85 -178.45 632.6 -178.8 631.55 -180.6 631.3 -180.95 628.55 -185.2 628.35 -185.45 627.25 -187.05 627.15 -187.15 626.8 -187.7 621.1 -194.85 M-135.3 -56.65 L-135.35 -56.75 -135.25 -56.8 -132.45 -56.7 -124.2 -55.4 -123.85 -55.3 -123.5 -55.25 -122.6 -55.0 -117.15 -53.25 -116.95 -53.15 -116.75 -53.1 -114.3 -52.1 -114.1 -52.05 -107.25 -48.65 -107.05 -48.5 -106.85 -48.4 -103.5 -46.4 -103.1 -46.1 -102.65 -45.85 Q-99.05 -43.45 -96.15 -41.2 L-90.25 -36.25 -90.05 -36.05 -84.5 -30.7 -79.55 -25.45 -69.5 -12.85 -67.95 -10.65 -67.4 -9.9 -67.4 -9.75 -67.55 -9.75 -76.2 -19.85 -80.55 -24.55 -85.55 -29.65 -91.25 -34.95 -91.3 -34.95 -91.5 -35.15 -94.9 -38.0 -95.25 -38.35 -97.2 -39.85 -103.55 -44.45 -107.65 -47.0 -107.85 -47.15 -108.05 -47.25 -114.1 -50.5 -114.5 -50.65 -117.4 -52.0 -117.6 -52.05 -123.1 -54.05 -124.1 -54.4 -125.75 -54.85 -130.75 -56.0 -131.25 -56.05 -131.65 -56.15 -135.3 -56.65 M-186.15 -54.7 L-186.2 -54.8 -186.1 -54.85 -183.55 -54.65 -183.3 -54.6 -183.1 -54.6 -176.6 -52.95 -176.4 -52.85 -176.0 -52.7 -174.05 -51.8 -172.95 -51.15 -173.05 -51.2 -172.9 -51.15 -172.95 -51.15 -172.85 -51.15 -170.35 -49.5 -168.65 -48.05 -165.65 -44.7 -162.6 -39.6 -160.7 -34.75 -159.9 -31.85 Q-159.75 -31.0 -160.55 -30.8 L-161.2 -30.9 -161.55 -31.45 -161.55 -31.5 -162.85 -36.35 -163.85 -39.0 -165.8 -42.85 -167.9 -45.75 -170.35 -48.35 -170.65 -48.55 -170.9 -48.8 -173.15 -50.45 -173.25 -50.5 -176.25 -52.15 -176.65 -52.3 -176.85 -52.4 -177.05 -52.45 -177.8 -52.8 -180.25 -53.6 -186.15 -54.7 M-177.35 -85.85 L-177.4 -85.85 Q-178.15 -85.7 -178.35 -86.55 L-178.15 -87.2 Q-177.95 -87.45 -177.6 -87.5 L-167.55 -88.45 -153.8 -88.55 -153.45 -88.5 -152.75 -88.5 -144.25 -87.75 -128.65 -84.7 -121.25 -82.45 -120.9 -82.3 -117.5 -81.05 -117.45 -80.95 Q-117.45 -80.8 -117.55 -80.9 L-129.9 -84.5 -142.25 -86.65 -142.6 -86.65 -142.95 -86.7 -152.1 -87.4 -153.5 -87.4 -153.85 -87.45 -158.3 -87.45 -177.35 -85.85 M-359.55 -80.9 L-359.6 -81.0 -359.5 -81.05 -353.2 -80.85 -351.6 -80.65 -351.3 -80.65 -351.1 -80.6 -350.95 -80.6 -349.15 -80.35 -343.1 -79.0 -343.0 -79.0 -339.4 -77.85 -339.3 -77.8 -339.15 -77.75 -338.95 -77.65 -337.45 -77.05 -337.3 -77.0 -336.6 -76.7 Q-332.45 -74.95 -329.0 -72.75 -325.1 -70.3 -321.6 -67.25 -318.45 -64.5 -314.95 -60.5 -311.85 -56.8 -309.3 -52.9 L-305.35 -46.4 -305.3 -46.35 -305.3 -46.3 -305.25 -46.25 -305.15 -46.0 -304.6 -45.05 -300.95 -37.3 -299.45 -33.65 -299.0 -32.55 -298.9 -32.35 -298.45 -31.05 -298.15 -30.2 -297.0 -27.0 -293.6 -15.15 Q-293.5 -15.05 -293.65 -15.05 -293.75 -14.95 -293.75 -15.1 L-300.0 -31.9 -300.05 -32.15 -306.65 -45.5 -306.65 -45.55 -306.7 -45.65 -306.8 -45.75 -307.05 -46.25 -310.65 -52.0 Q-312.9 -55.4 -316.25 -59.4 -319.3 -62.9 -322.7 -66.0 L-322.95 -66.2 -323.15 -66.4 -327.75 -70.05 -328.0 -70.2 -329.8 -71.45 Q-333.45 -73.85 -337.15 -75.5 -340.5 -77.05 -344.15 -78.2 L-346.6 -78.85 -347.0 -79.0 -348.9 -79.45 -349.3 -79.5 -349.65 -79.6 -351.05 -79.85 -351.2 -79.9 -351.4 -79.9 -353.3 -80.25 -353.6 -80.25 -357.05 -80.7 -357.45 -80.7 -359.55 -80.9 M-474.4 -76.85 Q-475.25 -76.95 -475.15 -77.8 L-474.8 -78.35 -474.15 -78.5 -474.0 -78.5 -473.85 -78.45 -473.6 -78.45 -473.3 -78.35 -473.1 -78.35 -472.95 -78.3 -472.5 -78.2 -472.25 -78.1 -472.05 -78.05 -470.95 -77.65 -469.7 -77.1 -467.0 -75.25 Q-465.7 -74.0 -464.55 -72.35 -463.4 -70.6 -462.6 -68.6 L-461.25 -64.4 -460.8 -62.2 -460.4 -59.95 -459.95 -55.45 -459.75 -51.1 -459.75 -47.0 -459.9 -43.35 -460.3 -37.95 -460.4 -36.4 -460.5 -35.85 Q-460.5 -35.7 -460.6 -35.8 L-460.65 -35.9 -460.55 -37.95 Q-460.35 -40.3 -460.3 -43.4 L-460.75 -55.4 -461.35 -59.8 -461.8 -62.0 -462.3 -64.1 -463.75 -68.15 Q-464.55 -70.0 -465.65 -71.55 L-468.0 -74.15 Q-469.25 -75.15 -470.4 -75.7 L-471.5 -76.2 -472.45 -76.5 -474.1 -76.8 -474.25 -76.8 -474.4 -76.85 M-539.15 -72.15 L-539.2 -72.15 -539.75 -72.5 -539.85 -73.15 -539.5 -73.7 -538.9 -73.8 -532.65 -72.5 -532.3 -72.4 -532.0 -72.35 -526.55 -70.7 -519.4 -67.6 -512.8 -63.5 -511.15 -62.15 -510.85 -61.95 -510.6 -61.7 -510.05 -61.25 -506.05 -57.2 -504.5 -55.3 -504.3 -55.0 -503.85 -54.45 -503.05 -53.25 -502.95 -53.15 -501.55 -50.9 -501.5 -50.8 -493.5 -32.45 -491.45 -28.3 -488.6 -22.85 -483.8 -15.0 -481.95 -12.5 -480.0 -10.15 -477.75 -8.05 -477.75 -7.9 -477.9 -7.9 -480.15 -10.0 -482.2 -12.35 -484.05 -14.8 -486.45 -18.3 -492.7 -29.4 -502.4 -50.35 -502.45 -50.45 -503.8 -52.55 -507.35 -57.0 -510.3 -59.9 -510.6 -60.1 -511.35 -60.8 -517.0 -64.75 -519.1 -65.9 -520.05 -66.35 -520.35 -66.55 -520.65 -66.7 -522.55 -67.55 -531.7 -70.65 -532.7 -70.9 -532.9 -70.9 -533.05 -70.95 -539.15 -72.15 M508.1 -133.85 L508.05 -133.85 507.5 -134.15 Q507.25 -134.4 507.3 -134.75 507.45 -135.6 508.25 -135.5 L546.4 -129.85 559.45 -127.3 563.75 -126.4 601.2 -117.35 601.25 -117.25 Q601.25 -117.1 601.15 -117.2 L558.15 -126.6 546.2 -128.75 508.1 -133.85 M420.45 -29.75 L420.35 -29.8 420.4 -29.9 451.85 -30.05 456.5 -29.8 461.0 -29.45 487.3 -26.2 487.7 -26.1 510.2 -21.3 529.15 -15.75 541.3 -11.45 558.35 -4.2 558.4 -4.1 Q558.4 -3.95 558.3 -4.05 L537.6 -11.7 527.4 -14.95 515.95 -18.2 500.35 -21.95 486.6 -24.6 465.05 -27.6 456.75 -28.4 456.4 -28.4 456.05 -28.45 447.65 -29.05 420.45 -29.75 M229.1 -46.65 L229.1 -46.8 229.25 -46.8 260.65 -17.05 260.75 -16.9 266.35 -11.05 272.7 -3.8 274.3 -1.65 274.35 -1.5 274.45 -1.4 278.6 5.15 278.65 5.2 278.65 5.25 278.75 5.35 295.45 31.05 295.6 31.35 Q295.9 31.9 295.4 32.15 294.9 32.5 294.55 31.95 L294.55 31.9 294.4 31.7 278.0 5.85 277.9 5.75 277.9 5.7 277.85 5.65 277.85 5.6 273.8 -0.95 273.6 -1.15 273.45 -1.4 272.05 -3.3 265.85 -10.6 261.3 -15.35 261.3 -15.4 259.7 -17.15 229.35 -46.45 229.15 -46.6 229.1 -46.65 M183.45 -16.1 Q183.3 -16.1 183.4 -16.2 L183.5 -16.25 189.3 -14.9 189.7 -14.75 190.15 -14.65 197.5 -11.95 201.05 -10.25 206.0 -7.35 209.0 -5.25 209.1 -5.15 211.8 -2.95 211.95 -2.8 211.95 -2.75 212.05 -2.7 213.0 -1.85 216.5 1.8 219.4 5.55 221.9 9.6 223.3 12.35 224.35 14.9 225.15 17.15 225.1 17.25 225.0 17.2 222.6 12.7 218.35 6.35 215.35 2.8 210.9 -1.45 210.8 -1.55 210.65 -1.65 210.45 -1.85 208.2 -3.7 208.1 -3.8 206.65 -4.85 206.4 -5.0 205.1 -5.95 198.7 -9.75 198.45 -9.85 195.35 -11.4 189.45 -13.95 183.45 -16.1 M300.85 -67.15 Q301.45 -67.0 301.25 -66.4 301.1 -65.8 300.5 -66.0 L280.3 -72.55 250.65 -81.25 212.5 -90.65 Q212.35 -90.65 212.45 -90.75 L212.55 -90.8 256.0 -80.5 273.2 -75.65 280.6 -73.45 300.85 -67.15 M119.05 -18.8 L119.0 -18.9 119.1 -18.95 120.45 -18.9 122.9 -18.55 123.2 -18.55 123.5 -18.45 124.85 -18.25 128.2 -17.4 131.95 -16.05 134.5 -14.85 135.35 -14.35 138.7 -12.25 141.0 -10.4 141.7 -9.7 142.1 -9.4 145.5 -5.55 145.5 -5.5 145.55 -5.45 145.6 -5.35 145.75 -5.2 146.75 -3.75 149.1 0.4 150.15 2.85 150.5 3.85 150.55 4.1 150.7 4.55 150.65 4.65 Q150.55 4.75 150.55 4.6 L150.3 4.2 150.05 3.7 145.7 -3.0 144.5 -4.5 144.35 -4.65 141.6 -7.55 141.3 -7.9 140.6 -8.5 137.7 -10.85 131.3 -14.65 127.05 -16.45 119.5 -18.65 119.05 -18.8 M102.4 -13.35 L102.65 -13.0 102.55 -12.55 102.2 -12.3 101.75 -12.4 99.9 -13.65 94.55 -17.1 88.95 -20.55 88.8 -20.6 76.8 -27.25 45.75 -41.65 Q37.75 -45.0 28.95 -48.35 L11.4 -54.7 -6.25 -60.65 -23.6 -65.9 -53.0 -73.05 -67.4 -75.5 -77.2 -76.65 -83.55 -77.05 -85.8 -77.15 -85.9 -77.25 -85.75 -77.3 -83.5 -77.25 -77.15 -76.85 -67.35 -75.8 -58.05 -74.35 -54.7 -73.75 -39.85 -70.6 -31.8 -68.6 -23.45 -66.35 Q-16.3 -64.4 -6.1 -61.25 L11.65 -55.4 29.25 -49.1 46.1 -42.5 77.3 -28.2 89.35 -21.6 89.5 -21.5 89.65 -21.45 101.95 -13.7 102.4 -13.35 M52.9 -74.5 Q52.3 -74.5 52.3 -75.1 52.4 -75.75 52.95 -75.65 L58.95 -75.55 72.45 -74.3 76.55 -73.75 106.1 -67.9 140.05 -58.65 140.4 -58.5 165.5 -49.5 180.2 -42.65 180.25 -42.55 Q180.25 -42.4 180.15 -42.5 L168.2 -48.05 167.75 -48.2 140.2 -58.0 139.85 -58.15 101.9 -68.05 101.5 -68.1 85.95 -71.2 72.85 -73.2 72.6 -73.2 59.25 -74.35 58.9 -74.4 52.9 -74.5" fill="#373535" fill-rule="evenodd" stroke="none"/>
  </g>
  <defs>
    <linearGradient gradientTransform="matrix(0.9842, 0.0, 0.0, 0.9842, -291.1, -506.95)" gradientUnits="userSpaceOnUse" id="gradient0" spreadMethod="pad" x1="-819.2" x2="819.2">
      <stop offset="0.0" stop-color="#ffecc3"/>
      <stop offset="1.0" stop-color="#e5f3d3"/>
    </linearGradient>
    <linearGradient gradientTransform="matrix(1.6912, 0.0, 0.0, 0.9842, -888.35, -506.95)" gradientUnits="userSpaceOnUse" id="gradient1" spreadMethod="pad" x1="-819.2" x2="819.2">
      <stop offset="0.0" stop-color="#ffecc3"/>
      <stop offset="1.0" stop-color="#e5f3d3"/>
    </linearGradient>
    <linearGradient gradientTransform="matrix(0.9842, 0.0, 0.0, 0.9842, -432.85, -506.95)" gradientUnits="userSpaceOnUse" id="gradient2" spreadMethod="pad" x1="-819.2" x2="819.2">
      <stop offset="0.0" stop-color="#ffecc3"/>
      <stop offset="1.0" stop-color="#e5f3d3"/>
    </linearGradient>
    <linearGradient gradientTransform="matrix(0.5809, -0.7681, 0.1781, 0.1347, -1159.9, 175.65)" gradientUnits="userSpaceOnUse" id="gradient3" spreadMethod="pad" x1="-819.2" x2="819.2">
      <stop offset="0.0" stop-color="#b9c47e"/>
      <stop offset="0.5686274509803921" stop-color="#a19b73"/>
      <stop offset="1.0" stop-color="#878651"/>
    </linearGradient>
    <linearGradient gradientTransform="matrix(0.9842, 0.0, 0.0, 0.9842, -1012.85, -510.05)" gradientUnits="userSpaceOnUse" id="gradient4" spreadMethod="pad" x1="-819.2" x2="819.2">
      <stop offset="0.0" stop-color="#ffecc3"/>
      <stop offset="1.0" stop-color="#e5f3d3"/>
    </linearGradient>
    <linearGradient gradientTransform="matrix(1.6912, 0.0, 0.0, 0.9842, -1610.1, -510.05)" gradientUnits="userSpaceOnUse" id="gradient5" spreadMethod="pad" x1="-819.2" x2="819.2">
      <stop offset="0.0" stop-color="#ffecc3"/>
      <stop offset="1.0" stop-color="#e5f3d3"/>
    </linearGradient>
    <linearGradient gradientTransform="matrix(0.9842, 0.0, 0.0, 0.9842, -1154.6, -510.05)" gradientUnits="userSpaceOnUse" id="gradient6" spreadMethod="pad" x1="-819.2" x2="819.2">
      <stop offset="0.0" stop-color="#ffecc3"/>
      <stop offset="1.0" stop-color="#e5f3d3"/>
    </linearGradient>
    <linearGradient gradientTransform="matrix(0.8081, 0.0, 0.0, 0.4465, -0.75, -429.85)" gradientUnits="userSpaceOnUse" id="gradient7" spreadMethod="pad" x1="-819.2" x2="819.2">
      <stop offset="0.0" stop-color="#5f3d3d"/>
      <stop offset="1.0" stop-color="#544141"/>
    </linearGradient>
    <linearGradient gradientTransform="matrix(0.0045, -0.1467, 0.039, 0.0012, -520.8, -186.8)" gradientUnits="userSpaceOnUse" id="gradient8" spreadMethod="pad" x1="-819.2" x2="819.2">
      <stop offset="0.2823529411764706" stop-color="#7f1f1f"/>
      <stop offset="0.5529411764705883" stop-color="#721616"/>
    </linearGradient>
    <linearGradient gradientTransform="matrix(0.0, 0.1045, -0.0454, 0.0, -7.55, 10.9)" gradientUnits="userSpaceOnUse" id="gradient9" spreadMethod="pad" x1="-819.2" x2="819.2">
      <stop offset="0.5019607843137255" stop-color="#8b2828"/>
      <stop offset="0.6980392156862745" stop-color="#9c2d2d"/>
    </linearGradient>
  </defs>
</svg>
