<?xml version="1.0" encoding="UTF-8" standalone="no"?>
<svg xmlns:xlink="http://www.w3.org/1999/xlink" height="213.4px" width="267.65px" xmlns="http://www.w3.org/2000/svg">
  <g transform="matrix(1.0, 0.0, 0.0, 1.0, 133.8, 106.7)">
    <path d="M131.95 -80.2 Q133.6 -78.85 133.15 -75.2 94.75 -21.25 37.3 28.2 -20.05 77.6 -68.45 106.1 L-133.2 -14.95 Q-112.5 -22.35 -111.2 -22.4 L-108.05 -22.85 -107.7 -22.9 -105.2 -23.2 Q-81.35 -26.0 -69.25 -22.0 9.35 26.95 48.2 1.0 64.3 -14.4 78.1 -35.35 79.4 -33.85 75.9 -25.8 104.9 -51.75 131.95 -80.2" fill="#ba626d" fill-rule="evenodd" stroke="none"/>
    <path d="M86.6 -86.3 Q86.9 -95.5 90.25 -106.1 L92.9 -103.1 86.6 -86.3 M-111.2 -22.4 Q-66.6 -35.75 -42.1 -40.6 0.95 -49.2 66.15 -69.25 L69.55 -69.85 79.25 -69.95 Q-6.05 -41.0 -77.85 -27.5 L-105.2 -23.2 -107.7 -22.9 -108.05 -22.85 -111.2 -22.4 M61.3 -90.15 L60.05 -93.9 Q74.0 -85.75 87.2 -76.15 L86.85 -73.5 Q71.95 -84.45 61.3 -90.15" fill="#ce717b" fill-rule="evenodd" stroke="none"/>
    <path d="M86.6 -86.3 L92.9 -103.1 Q105.8 -88.0 109.0 -76.8 L126.7 -80.75 Q130.3 -81.55 131.95 -80.2 104.9 -51.75 75.9 -25.8 79.4 -33.85 78.1 -35.35 64.3 -14.4 48.2 1.0 9.35 26.95 -69.25 -22.0 -81.35 -26.0 -105.2 -23.2 L-77.85 -27.5 Q-6.05 -41.0 79.25 -69.95 L69.55 -69.85 66.15 -69.25 Q66.25 -75.05 61.3 -90.15 71.95 -84.45 86.85 -73.5 L87.2 -76.15 Q86.4 -81.0 86.6 -86.3" fill="#c46a75" fill-rule="evenodd" stroke="none"/>
    <path d="M-105.2 -23.2 L-107.7 -22.9 -108.05 -22.85" fill="none" stroke="#574a3a" stroke-linecap="round" stroke-linejoin="round" stroke-width="0.05"/>
    <path d="M92.9 -103.1 L90.25 -106.1 Q86.9 -95.5 86.6 -86.3 86.4 -81.0 87.2 -76.15 74.0 -85.75 60.05 -93.9 L61.3 -90.15 Q66.25 -75.05 66.15 -69.25 0.95 -49.2 -42.1 -40.6 -66.6 -35.75 -111.2 -22.4 -112.5 -22.35 -133.2 -14.95 M92.9 -103.1 Q105.8 -88.0 109.0 -76.8 L126.7 -80.75 Q130.3 -81.55 131.95 -80.2 133.6 -78.85 133.15 -75.2 94.75 -21.25 37.3 28.2 -20.05 77.6 -68.45 106.1" fill="none" stroke="#47373a" stroke-linecap="round" stroke-linejoin="round" stroke-width="1.2000000000000002"/>
    <path d="M92.25 -73.35 L92.3 -73.45 92.4 -73.5 92.55 -73.6 92.6 -73.6 92.7 -73.65 94.1 -74.2 95.3 -74.5 95.7 -74.65 98.2 -75.15 98.4 -75.15 98.85 -75.25 99.7 -75.35 100.05 -75.35 100.45 -75.4 100.75 -75.4 101.05 -75.45 101.9 -75.45 102.1 -75.35 102.05 -75.25 101.95 -75.2 101.8 -75.1 101.75 -75.1 101.2 -74.85 98.65 -74.05 96.15 -73.55 95.95 -73.55 95.5 -73.45 94.65 -73.35 94.3 -73.35 93.9 -73.3 93.6 -73.3 93.3 -73.25 92.45 -73.25 92.25 -73.35 M66.25 -68.65 L66.05 -68.6 Q65.45 -68.6 65.45 -69.2 L65.6 -69.65 66.0 -69.8 69.5 -69.9 69.6 -69.85 69.55 -69.75 66.25 -68.65" fill="#47373a" fill-rule="evenodd" stroke="none"/>
  </g>
</svg>
