<?xml version="1.0" encoding="UTF-8" standalone="no"?>
<svg xmlns:xlink="http://www.w3.org/1999/xlink" height="38.3px" width="105.1px" xmlns="http://www.w3.org/2000/svg">
  <g transform="matrix(1.0, 0.0, 0.0, 1.0, 0.0, 0.0)">
    <path d="M104.5 15.15 L104.45 15.15 Q100.3 28.3 86.25 28.85 72.25 30.4 70.65 13.6 72.35 7.4 80.0 4.75 106.9 -8.45 104.5 15.15 M4.7 28.3 Q-6.8 11.7 9.85 9.0 26.5 6.25 32.65 6.0 37.45 7.1 41.3 15.75 L41.45 17.8 Q47.25 30.0 31.05 36.35 19.35 41.25 4.7 28.3" fill="#ee830f" fill-rule="evenodd" stroke="none"/>
    <path d="M104.45 15.15 L104.5 15.15" fill="none" stroke="#4d2b06" stroke-linecap="round" stroke-linejoin="miter-clip" stroke-miterlimit="3.0" stroke-width="1.2000000000000002"/>
    <path d="M70.65 13.6 Q72.25 30.4 86.25 28.85 100.3 28.3 104.45 15.15 M41.45 17.8 Q47.25 30.0 31.05 36.35 19.35 41.25 4.7 28.3" fill="none" stroke="#4d2b06" stroke-linecap="round" stroke-linejoin="round" stroke-width="1.2000000000000002"/>
  </g>
</svg>
