<?xml version="1.0" encoding="UTF-8" standalone="no"?>
<svg xmlns:xlink="http://www.w3.org/1999/xlink" height="65.6px" width="193.0px" xmlns="http://www.w3.org/2000/svg">
  <g transform="matrix(1.0, 0.0, 0.0, 1.0, 98.05, 35.15)">
    <path d="M41.85 -11.55 L94.35 -8.45 85.05 29.85 Q34.3 27.35 -18.2 28.25 -47.85 26.0 -80.0 20.35 -91.75 18.1 -93.9 9.7 -106.15 -26.95 -82.4 -34.55 L-76.9 -24.3 Q-54.4 -21.5 -41.05 -17.45 -10.05 -11.75 41.85 -11.55" fill="#d8b8ad" fill-rule="evenodd" stroke="none"/>
    <path d="M-82.4 -34.55 Q-72.95 -29.05 -67.35 -27.3 -36.95 -27.8 -16.85 -19.2 11.5 -14.3 41.85 -11.55 -10.05 -11.75 -41.05 -17.45 -54.4 -21.5 -76.9 -24.3 L-82.4 -34.55" fill="#e5c6bb" fill-rule="evenodd" stroke="none"/>
    <path d="M41.85 -11.55 L94.35 -8.45 M85.05 29.85 Q34.3 27.35 -18.2 28.25 -47.85 26.0 -80.0 20.35 -91.75 18.1 -93.9 9.7 M-82.4 -34.55 Q-72.95 -29.05 -67.35 -27.3 -36.95 -27.8 -16.85 -19.2 11.5 -14.3 41.85 -11.55 Z" fill="none" stroke="#574a3a" stroke-linecap="round" stroke-linejoin="round" stroke-width="1.2000000000000002"/>
    <path d="M-77.55 -1.15 L-77.6 -1.05 -77.7 -1.1 -78.05 -2.95 -78.4 -7.5 -78.2 -12.7 -78.1 -13.15 -77.85 -15.0 -77.0 -18.15 -76.75 -18.8 -75.75 -20.85 -75.6 -21.05 -75.5 -21.1 -75.45 -21.0 -75.5 -20.75 -76.1 -18.6 -77.35 -6.65 -77.45 -2.45 -77.5 -2.0 -77.5 -1.35 -77.55 -1.15" fill="#574a3a" fill-rule="evenodd" stroke="none"/>
  </g>
</svg>
