<?xml version="1.0" encoding="UTF-8" standalone="no"?>
<svg xmlns:xlink="http://www.w3.org/1999/xlink" height="108.65px" width="200.3px" xmlns="http://www.w3.org/2000/svg">
  <g transform="matrix(1.0, 0.0, 0.0, 1.0, 93.4, 58.0)">
    <path d="M-8.9 -26.45 Q13.45 -22.05 33.75 -17.25 69.95 -8.65 99.75 1.45 56.15 0.05 -3.15 -21.95 L-8.9 -26.45" fill="#e5c6bb" fill-rule="evenodd" stroke="none"/>
    <path d="M-92.8 -56.9 Q-54.55 -61.1 -14.0 -30.45 L-8.9 -26.45 -3.15 -21.95 Q56.15 0.05 99.75 1.45 86.0 3.25 106.3 50.05 88.15 48.55 67.4 48.95 L59.75 49.15 Q44.1 50.5 29.1 49.45 L28.8 49.5 Q2.05 47.0 -22.15 41.35 -76.45 22.85 -82.9 31.65 L-92.8 -56.9 M-13.2 19.35 Q-26.9 19.7 -39.3 17.05 -26.9 19.7 -13.2 19.35" fill="#d8b8ad" fill-rule="evenodd" stroke="none"/>
    <path d="M-92.8 -56.9 Q-54.55 -61.1 -14.0 -30.45 L-8.9 -26.45 Q13.45 -22.05 33.75 -17.25 69.95 -8.65 99.75 1.45 M106.3 50.05 Q88.15 48.55 67.4 48.95 L59.75 49.15 Q44.1 50.5 29.1 49.45 L28.8 49.5 Q2.05 47.0 -22.15 41.35 -76.45 22.85 -82.9 31.65 M-8.9 -26.45 L-3.15 -21.95 M-39.3 17.05 Q-26.9 19.7 -13.2 19.35" fill="none" stroke="#574a3a" stroke-linecap="round" stroke-linejoin="round" stroke-width="1.2000000000000002"/>
  </g>
</svg>
