<?xml version="1.0" encoding="UTF-8" standalone="no"?>
<svg xmlns:xlink="http://www.w3.org/1999/xlink" height="727.7px" width="445.3px" xmlns="http://www.w3.org/2000/svg">
  <g transform="matrix(1.0, 0.0, 0.0, 1.0, 222.65, 363.85)">
    <path d="M104.85 -363.05 Q98.1 -341.1 94.15 -313.6 L90.25 -323.35 Q78.8 -338.65 51.6 -346.4 77.85 -341.45 91.75 -327.9 L99.65 -357.1 Q101.7 -364.45 104.85 -363.05 M77.8 -298.0 L82.65 -296.0 Q63.85 -293.55 45.1 -287.1 L43.05 -288.4 Q60.1 -294.6 77.8 -298.0 M77.85 -269.05 Q58.75 -196.9 24.65 -95.85 5.25 -32.55 -29.25 32.2 -33.85 43.85 -39.5 44.95 -111.95 4.5 -205.15 37.8 -146.15 8.95 -93.75 12.3 -59.75 14.45 -28.5 30.2 L-28.4 29.65 Q-27.85 25.75 -23.45 10.45 -19.05 -4.9 -6.45 -36.45 6.15 -67.9 18.75 -102.75 46.5 -179.25 72.45 -266.85 L77.85 -269.05 M138.7 165.95 Q107.55 105.75 24.55 98.3 L39.45 96.85 Q28.4 85.45 -6.8 73.25 L-5.3 73.6 Q26.1 81.1 39.15 87.45 41.85 88.75 43.75 90.0 51.35 94.45 59.2 97.65 L55.95 97.95 59.2 97.65 66.8 100.4 67.55 100.7 Q82.45 105.2 98.35 114.95 117.65 126.8 138.4 146.3 150.3 157.6 162.65 171.35 159.6 170.35 156.65 169.75 151.9 168.8 147.15 168.9 L138.7 165.95 M67.85 124.05 Q40.2 120.75 8.75 122.25 32.15 114.3 67.85 124.05" fill="#ce717b" fill-rule="evenodd" stroke="none"/>
    <path d="M104.85 -363.05 Q106.9 -362.15 109.45 -357.45 127.45 -301.5 131.1 -252.7 128.7 -268.3 123.1 -266.45 136.7 -225.8 138.0 -134.6 135.95 -158.4 130.45 -156.6 141.5 -75.4 134.1 46.05 127.75 86.55 42.0 70.75 -31.65 64.8 -35.6 68.6 L-6.8 73.25 Q28.4 85.45 39.45 96.85 L24.55 98.3 Q107.55 105.75 138.7 165.95 L133.85 164.4 Q104.05 155.35 83.35 158.6 71.45 160.45 62.55 166.35 L86.95 194.1 Q68.05 188.75 49.15 196.6 52.9 227.25 74.75 255.15 83.6 266.5 95.5 277.4 71.25 287.3 14.85 262.4 -18.25 246.8 -48.4 225.4 -4.8 261.4 -57.9 229.85 -111.05 198.25 -127.35 179.8 -151.45 160.7 -143.5 144.0 L-178.25 113.8 Q-198.55 76.5 -205.15 37.8 -111.95 4.5 -39.5 44.95 -33.85 43.85 -29.25 32.2 5.25 -32.55 24.65 -95.85 58.75 -196.9 77.85 -269.05 64.2 -275.0 45.1 -287.1 63.85 -293.55 82.65 -296.0 L77.8 -298.0 Q80.45 -299.55 81.45 -302.25 85.85 -304.85 83.7 -305.65 64.9 -320.75 51.6 -346.4 78.8 -338.65 90.25 -323.35 L94.15 -313.6 Q98.1 -341.1 104.85 -363.05 M186.35 185.9 L186.4 185.9 186.45 185.95 186.55 186.1 186.95 186.5 187.0 186.5 186.4 186.1 186.4 186.05 186.25 185.85 186.35 185.9 186.55 186.1 186.35 185.9 M67.85 124.05 Q32.15 114.3 8.75 122.25 40.2 120.75 67.85 124.05 M-121.2 168.7 Q-100.25 196.75 -72.9 210.7 -84.4 200.85 -93.9 192.05 L-108.55 178.0 Q-113.6 172.75 -121.2 168.7" fill="#c46a75" fill-rule="evenodd" stroke="none"/>
    <path d="M51.6 -346.4 Q64.9 -320.75 83.7 -305.65 85.85 -304.85 81.45 -302.25 80.45 -299.55 77.8 -298.0 63.85 -314.7 51.6 -346.4 M45.1 -287.1 Q64.2 -275.0 77.85 -269.05 L72.45 -266.85 Q62.0 -267.8 43.05 -288.4 L45.1 -287.1 M-205.15 37.8 Q-198.55 76.5 -178.25 113.8 L-143.5 144.0 Q-151.45 160.7 -127.35 179.8 -111.05 198.25 -57.9 229.85 -4.8 261.4 -48.4 225.4 -18.25 246.8 14.85 262.4 71.25 287.3 95.5 277.4 120.1 299.95 157.55 320.6 116.6 340.2 49.9 339.1 -39.45 328.5 -107.35 286.4 -163.6 238.75 -204.35 146.65 -205.7 140.45 -207.85 132.95 -211.15 121.4 -216.35 106.8 -228.75 72.1 -216.65 50.95 -214.65 47.45 -211.95 44.3 -209.0 40.8 -205.2 37.8 L-205.15 37.8 M-6.8 73.25 L-35.6 68.6 Q-31.65 64.8 42.0 70.75 127.75 86.55 134.1 46.05 141.5 -75.4 130.45 -156.6 135.95 -158.4 138.0 -134.6 136.7 -225.8 123.1 -266.45 128.7 -268.3 131.1 -252.7 127.45 -301.5 109.45 -357.45 145.9 -282.45 150.75 -86.0 151.55 -52.5 151.8 -10.7 151.95 30.95 150.75 59.65 149.95 78.9 149.0 90.85 L147.95 100.9 147.45 104.7 Q144.85 115.15 134.0 112.65 116.5 105.2 97.9 103.7 L86.15 102.85 Q73.75 95.65 58.65 92.25 30.6 78.25 -5.3 73.6 L-6.8 73.25 M-121.2 168.7 Q-113.6 172.75 -108.55 178.0 L-93.9 192.05 Q-84.4 200.85 -72.9 210.7 -100.25 196.75 -121.2 168.7 M-85.6 281.7 Q-64.65 305.2 -37.3 313.2 -48.8 307.2 -58.3 301.1 -67.85 294.95 -72.9 289.55 -78.0 284.1 -85.6 281.7" fill="#ba626d" fill-rule="evenodd" stroke="none"/>
    <path d="M95.5 277.4 Q83.6 266.5 74.75 255.15 52.9 227.25 49.15 196.6 68.05 188.75 86.95 194.1 L62.55 166.35 Q71.45 160.45 83.35 158.6 104.05 155.35 133.85 164.4 L138.7 165.95 147.15 168.9 Q151.9 168.8 156.65 169.75 159.6 170.35 162.65 171.35 176.2 177.8 186.35 185.9 L186.25 185.85 186.4 186.05 186.4 186.1 187.0 186.5 Q198.75 198.05 201.2 201.45 203.6 204.8 204.25 207.2 204.85 209.55 208.05 212.75 L152.25 212.75 Q116.6 228.35 95.5 277.4" fill="#d9e6f1" fill-rule="evenodd" stroke="none"/>
    <path d="M147.45 104.7 L145.55 118.3 144.7 123.95 Q143.05 139.45 138.4 146.3 117.65 126.8 98.35 114.95 82.45 105.2 67.55 100.7 L66.8 100.4 59.2 97.65 Q51.35 94.45 43.75 90.0 41.85 88.75 39.15 87.45 26.1 81.1 -5.3 73.6 30.6 78.25 58.65 92.25 73.75 95.65 86.15 102.85 L97.9 103.7 Q116.5 105.2 134.0 112.65 144.85 115.15 147.45 104.7 M49.9 339.1 Q-98.0 329.5 -164.55 241.75 -175.55 227.25 -184.35 210.6 -189.55 200.75 -194.0 190.2 -198.5 179.35 -202.2 167.8 -201.35 160.35 -204.35 146.65 -163.6 238.75 -107.35 286.4 -39.45 328.5 49.9 339.1 M-85.6 281.7 Q-78.0 284.1 -72.9 289.55 -67.85 294.95 -58.3 301.1 -48.8 307.2 -37.3 313.2 -64.65 305.2 -85.6 281.7" fill="#af5d69" fill-rule="evenodd" stroke="none"/>
    <path d="M208.05 212.75 Q214.9 226.1 218.15 242.75 227.9 279.95 216.55 325.4 212.0 343.65 204.05 363.25 178.0 361.35 152.35 358.1 100.1 351.5 49.9 339.1 116.6 340.2 157.55 320.6 120.1 299.95 95.5 277.4 116.6 228.35 152.25 212.75 L208.05 212.75" fill="#d0dbe5" fill-rule="evenodd" stroke="none"/>
    <path d="M109.45 -357.45 Q106.9 -362.15 104.85 -363.05 101.7 -364.45 99.65 -357.1 L91.75 -327.9 Q77.85 -341.45 51.6 -346.4 63.85 -314.7 77.8 -298.0 60.1 -294.6 43.05 -288.4 62.0 -267.8 72.45 -266.85 46.5 -179.25 18.75 -102.75 6.15 -67.9 -6.45 -36.45 -19.05 -4.9 -23.45 10.45 -27.85 25.75 -28.4 29.65 M109.45 -357.45 Q145.9 -282.45 150.75 -86.0 151.55 -52.5 151.8 -10.7 151.95 30.95 150.75 59.65 149.95 78.9 149.0 90.85 L147.95 100.9 147.45 104.7 145.55 118.3 144.7 123.95 Q143.05 139.45 138.4 146.3 150.3 157.6 162.65 171.35 176.2 177.8 186.35 185.9 L186.55 186.1 186.95 186.5 187.0 186.5 Q198.75 198.05 201.2 201.45 M204.05 363.25 Q178.0 361.35 152.35 358.1 100.1 351.5 49.9 339.1 -98.0 329.5 -164.55 241.75 -175.55 227.25 -184.35 210.6 -189.55 200.75 -194.0 190.2 M-205.15 37.8 Q-146.15 8.95 -93.75 12.3 -59.75 14.45 -28.5 30.2 M59.2 97.65 Q51.35 94.45 43.75 90.0 M59.2 97.65 L66.8 100.4 67.55 100.7 Q82.45 105.2 98.35 114.95 117.65 126.8 138.4 146.3 M162.65 171.35 Q159.6 170.35 156.65 169.75 151.9 168.8 147.15 168.9" fill="none" stroke="#47373a" stroke-linecap="round" stroke-linejoin="round" stroke-width="1.2000000000000002"/>
    <path d="M55.95 97.95 L59.2 97.65" fill="none" stroke="#47373a" stroke-linecap="round" stroke-linejoin="round" stroke-width="0.05"/>
    <path d="M-202.25 167.8 L-202.2 167.7 Q-202.1 167.6 -202.1 167.75 L-193.85 189.0 -193.4 189.95 Q-193.2 190.6 -193.75 190.75 -194.3 190.95 -194.55 190.4 L-195.6 187.65 -202.25 167.8 M-33.1 39.25 L-31.05 35.1 -31.7 35.75 -32.65 36.45 -32.8 36.45 -32.8 36.3 -32.3 35.85 -32.15 35.65 -31.95 35.5 -31.7 35.15 -31.6 35.05 -31.45 34.8 -30.95 34.15 -30.9 34.0 -30.7 33.7 -30.55 33.4 -30.35 33.1 -29.9 32.2 -29.1 30.15 -29.1 30.1 -29.1 30.05 -29.05 29.95 -28.85 29.7 -28.95 29.5 Q-29.2 29.05 -28.8 28.7 -28.25 28.2 -27.75 28.7 -27.3 29.25 -27.8 29.75 L-27.95 29.95 Q-27.8 30.15 -27.95 30.5 L-27.95 30.55 -28.7 32.3 -28.7 32.4 -28.75 32.4 -28.75 32.45 -28.85 32.75 -31.85 38.6 -33.6 41.05 -34.4 41.95 -35.45 43.0 -35.6 43.1 -35.7 43.2 -35.95 43.4 -37.2 44.2 -38.3 44.7 -39.45 45.0 -39.55 44.95 -39.5 44.85 -37.35 43.95 -36.4 43.25 -36.0 42.85 -35.85 42.8 -35.75 42.65 -35.55 42.45 -34.8 41.6 -34.4 41.15 -33.1 39.25 M147.15 168.3 L147.2 168.3 Q147.75 168.3 147.75 168.95 147.65 169.55 147.1 169.45 L139.85 169.15 138.9 169.2 138.0 169.25 132.5 169.85 127.1 170.95 127.0 170.9 127.05 170.8 127.25 170.7 127.9 170.55 Q128.55 170.3 130.1 169.95 L136.95 168.6 139.8 168.3 140.7 168.25 141.6 168.2 145.3 168.2 146.3 168.25 147.15 168.3 M44.05 89.45 L44.05 89.5 Q44.55 89.75 44.25 90.3 43.9 90.8 43.4 90.5 L42.9 90.15 39.2 88.05 28.75 83.65 -6.2 73.5 -6.8 73.3 -6.85 73.2 -6.75 73.15 -6.6 73.15 -0.35 74.6 1.35 75.0 29.05 82.8 39.65 87.05 43.55 89.15 43.9 89.4 44.05 89.45 M66.95 99.8 Q67.55 99.95 67.35 100.55 67.15 101.1 66.6 100.95 L55.1 98.2 54.8 98.1 53.85 97.95 43.75 96.95 42.8 96.9 39.45 96.9 Q39.35 96.95 39.35 96.85 39.25 96.75 39.4 96.75 L39.75 96.7 40.6 96.65 47.0 96.65 54.6 97.35 54.9 97.35 58.35 97.9 62.7 98.75 66.95 99.8 M78.1 -297.45 L78.0 -297.4 Q77.5 -297.15 77.2 -297.7 76.95 -298.25 77.45 -298.5 L77.9 -298.7 78.2 -298.9 78.4 -299.0 79.15 -299.5 79.25 -299.6 79.35 -299.65 80.25 -300.55 80.8 -301.3 80.9 -301.5 81.1 -301.8 81.15 -301.95 81.2 -302.05 81.35 -302.25 81.45 -302.3 81.5 -302.2 81.45 -301.95 81.4 -301.8 81.35 -301.7 81.25 -301.35 80.85 -300.45 80.55 -300.0 80.5 -299.9 80.4 -299.8 80.25 -299.55 79.9 -299.1 79.7 -298.9 79.55 -298.7 78.85 -298.05 78.5 -297.8 78.3 -297.6 78.1 -297.45 M91.25 -328.25 L91.3 -328.35 92.15 -328.4 Q92.6 -327.95 92.2 -327.55 L92.2 -327.5 92.05 -327.35 92.05 -327.3 92.0 -327.25 91.95 -327.15 91.9 -327.0 91.7 -326.7 90.7 -324.35 90.6 -324.0 90.3 -323.3 90.2 -323.25 Q90.05 -323.25 90.15 -323.35 L90.6 -326.2 91.0 -327.7 91.05 -327.8 91.05 -327.85 91.1 -327.9 91.1 -328.0 91.15 -328.1 91.2 -328.15 91.2 -328.2 91.25 -328.25" fill="#47373a" fill-rule="evenodd" stroke="none"/>
  </g>
</svg>
