<?xml version="1.0" encoding="UTF-8" standalone="no"?>
<svg xmlns:xlink="http://www.w3.org/1999/xlink" height="26.5px" width="38.85px" xmlns="http://www.w3.org/2000/svg">
  <g transform="matrix(1.0, 0.0, 0.0, 1.0, 19.4, 14.2)">
    <path d="M4.85 -8.5 L5.25 -7.75 4.95 -7.4 4.25 -7.0 4.8 -6.45 5.1 -5.65 5.0 -5.15 Q4.85 -4.85 4.2 -4.85 3.6 -4.85 3.45 -5.2 L3.3 -5.55 3.25 -5.6 Q2.95 -5.75 2.4 -6.9 L1.5 -9.25 1.35 -9.95 Q1.4 -11.15 1.9 -11.4 2.8 -11.1 3.25 -10.1 3.65 -9.0 4.85 -8.5 M0.7 -8.8 Q1.2 -8.8 1.55 -8.25 L1.85 -7.05 1.85 -6.7 1.1 -6.5 Q-1.95 -7.6 -3.45 -9.45 L-3.45 -10.1 -2.75 -10.35 Q-1.3 -10.35 0.7 -8.8 M0.3 3.95 Q-0.3 3.95 -1.75 3.35 L-4.95 1.6 -7.8 -0.15 Q-8.95 -1.3 -9.1 -1.75 L-10.65 -6.0 -10.75 -7.4 -10.65 -7.65 -10.35 -7.8 -10.2 -7.85 Q-10.35 -9.55 -10.1 -10.15 L-9.4 -10.4 -8.85 -9.65 Q-8.55 -9.0 -8.5 -8.15 L-8.35 -6.2 -7.65 -5.65 Q-7.9 -7.1 -7.3 -7.15 L-6.05 -6.9 Q-5.45 -6.9 -5.25 -7.75 L-4.9 -8.75 -4.0 -7.0 -3.4 -5.15 Q-3.4 -4.65 -3.85 -4.15 L-4.3 -3.15 Q-4.3 -2.65 -3.9 -2.5 -3.5 -2.4 -3.5 -1.9 -3.5 -1.25 -3.95 -1.15 L-4.8 -1.1 Q-2.4 1.2 2.6 3.75 6.15 5.55 9.6 10.85 L8.95 11.2 8.25 11.3 0.8 3.8 0.3 3.95 M6.8 -3.1 L8.25 -3.05 Q9.4 -2.85 9.45 -1.45 L8.25 -1.2 6.75 -1.25 6.55 -1.5 6.4 -2.2 6.8 -3.1 M-14.6 -5.9 L-13.7 -5.2 -13.75 -4.6 -14.25 -3.55 -15.1 -3.7 -15.5 -4.15 -15.8 -4.75 Q-15.8 -5.25 -15.45 -5.55 -15.1 -5.9 -14.6 -5.9 M-14.05 -2.45 L-12.75 -1.25 Q-12.25 -0.55 -12.1 0.85 -11.95 1.1 -12.9 1.1 -14.3 1.1 -14.95 -1.6 L-14.3 -2.6 -14.05 -2.45 M-6.1 -2.65 L-5.6 -2.2 Q-5.7 -3.2 -6.15 -3.4 L-6.85 -3.85 -6.65 -3.35 -6.1 -2.65 M15.4 4.1 L14.2 3.3 13.8 2.85 Q13.5 2.4 13.5 2.05 L13.6 1.35 13.9 1.25 Q15.85 2.25 16.55 3.65 16.85 4.15 15.85 4.15 L15.4 4.1" fill="#fffaee" fill-opacity="0.2" fill-rule="evenodd" stroke="none"/>
    <path d="M-8.5 -8.15 L-5.8 -9.85 Q-3.35 -11.35 -2.3 -11.55 L-0.5 -11.85 Q-1.35 -11.9 0.8 -13.05 2.9 -14.2 4.0 -14.2 L4.6 -14.1 4.75 -13.85 5.0 -13.45 Q4.2 -12.95 3.9 -12.65 3.35 -12.2 3.35 -11.55 L3.8 -10.4 Q4.3 -9.3 4.85 -8.5 3.65 -9.0 3.25 -10.1 2.8 -11.1 1.9 -11.4 1.4 -11.15 1.35 -9.95 L1.5 -9.25 1.0 -9.6 0.7 -8.8 Q-1.3 -10.35 -2.75 -10.35 L-3.45 -10.1 -3.45 -9.45 Q-1.95 -7.6 1.1 -6.5 L1.85 -6.7 1.85 -7.05 2.05 -6.4 2.0 -5.85 Q1.85 -5.6 1.2 -5.6 -0.1 -5.6 -0.75 -6.0 -1.55 -6.7 -2.5 -7.2 L-2.5 -7.25 -3.0 -4.95 -3.4 -2.7 Q-3.4 0.45 -0.2 1.85 4.45 3.9 5.3 4.8 L11.25 11.15 9.85 12.3 Q7.75 12.3 4.25 8.45 1.0 4.35 0.3 3.95 L0.8 3.8 8.25 11.3 8.95 11.2 9.6 10.85 Q6.15 5.55 2.6 3.75 -2.4 1.2 -4.8 -1.1 L-3.95 -1.15 Q-3.5 -1.25 -3.5 -1.9 -3.5 -2.4 -3.9 -2.5 -4.3 -2.65 -4.3 -3.15 L-3.85 -4.15 Q-3.4 -4.65 -3.4 -5.15 L-4.0 -7.0 -4.9 -8.75 -5.25 -7.75 Q-5.45 -6.9 -6.05 -6.9 L-7.3 -7.15 Q-7.9 -7.1 -7.65 -5.65 L-8.35 -6.2 -8.5 -8.15 M5.25 -7.75 L5.7 -7.25 5.9 -6.4 5.8 -5.15 Q5.2 -4.8 4.2 -4.8 L3.55 -4.95 3.3 -5.55 3.45 -5.2 Q3.6 -4.85 4.2 -4.85 4.85 -4.85 5.0 -5.15 L5.1 -5.65 4.8 -6.45 4.25 -7.0 4.95 -7.4 5.25 -7.75 M-1.75 3.35 Q-3.15 3.3 -5.3 1.9 -7.0 0.75 -7.8 -0.15 L-4.95 1.6 -1.75 3.35 M-9.1 -1.75 L-11.25 -4.15 -10.65 -6.0 -9.1 -1.75 M6.55 -1.5 Q5.6 -2.5 5.4 -3.1 L5.2 -4.35 5.8 -4.9 6.0 -4.8 5.95 -4.15 6.1 -4.15 Q6.75 -4.15 6.8 -3.85 L6.8 -3.1 6.4 -2.2 6.55 -1.5 M9.45 -1.45 L10.3 -0.9 10.25 -0.35 9.2 -0.25 8.0 -0.5 6.75 -1.25 8.25 -1.2 9.45 -1.45 M5.95 -4.15 Q5.95 -4.9 5.65 -4.5 5.45 -4.2 5.95 -4.15 M-15.8 -4.75 Q-16.8 -5.3 -18.05 -6.2 L-19.4 -7.35 -19.2 -7.45 Q-15.7 -6.65 -14.6 -5.9 -15.1 -5.9 -15.45 -5.55 -15.8 -5.25 -15.8 -4.75 M-14.25 -3.55 L-14.05 -2.45 -14.3 -2.6 -14.95 -1.6 Q-14.3 1.1 -12.9 1.1 -11.95 1.1 -12.1 0.85 -11.65 1.5 -11.65 2.25 L-12.4 2.8 Q-14.05 1.35 -14.9 -0.8 -15.75 -2.75 -15.5 -4.15 L-15.1 -3.7 -14.25 -3.55 M-6.1 -2.65 L-6.65 -3.35 -6.85 -3.85 -6.15 -3.4 Q-5.7 -3.2 -5.6 -2.2 L-6.1 -2.65 M16.55 3.65 L16.8 3.9 17.05 4.55 17.05 4.7 16.5 4.8 15.4 4.1 15.85 4.15 Q16.85 4.15 16.55 3.65 M13.8 2.85 Q12.65 1.8 12.25 1.05 L12.65 -0.1 13.9 1.25 13.6 1.35 13.5 2.05 Q13.5 2.4 13.8 2.85 M19.45 5.65 L19.3 6.0 18.95 6.1 18.6 6.0 18.45 5.65 18.6 5.35 18.95 5.2 Q19.15 5.2 19.3 5.35 L19.45 5.65" fill="#fffaee" fill-opacity="0.8" fill-rule="evenodd" stroke="none"/>
  </g>
</svg>
