<?xml version="1.0" encoding="UTF-8" standalone="no"?>
<svg xmlns:xlink="http://www.w3.org/1999/xlink" height="90.0px" width="40.75px" xmlns="http://www.w3.org/2000/svg">
  <g transform="matrix(1.0, 0.0, 0.0, 1.0, 20.3, 45.05)">
    <path d="M1.7 -8.45 L1.6 -8.65 1.15 -8.9 1.6 -8.65 1.7 -8.45 Q1.2 -7.9 -3.2 -7.6 L-3.15 -13.3 5.8 -13.75 12.25 -13.25 Q13.95 -12.55 14.9 -11.3 L15.65 -10.0 18.55 -7.2 Q19.85 -5.8 19.85 -4.3 19.85 -1.75 18.9 -1.1 L17.2 -0.55 14.3 1.05 Q15.35 2.9 17.65 5.3 19.05 6.75 19.05 8.85 19.05 12.65 17.85 13.75 17.25 14.25 12.75 15.95 L4.75 16.35 2.25 16.2 4.75 16.35 12.75 15.95 Q14.6 17.55 15.6 21.15 15.6 25.6 14.1 27.2 12.9 28.5 9.9 28.5 L6.55 28.2 8.7 29.8 Q9.9 31.15 9.9 33.6 9.9 35.6 8.05 37.55 6.15 39.5 2.7 41.15 1.5 42.2 -0.7 43.3 -2.95 44.35 -3.85 44.35 L-3.85 37.5 -0.75 39.55 Q1.95 41.1 2.7 41.15 1.95 41.1 -0.75 39.55 L-3.85 37.5 Q8.15 34.75 1.0 27.3 L6.55 28.2 1.0 27.3 -2.45 26.5 Q11.1 26.8 4.35 18.55 1.05 18.85 -6.95 14.55 L-5.45 14.95 2.25 16.2 Q17.15 11.7 13.45 5.0 L8.2 3.2 Q12.2 -1.35 11.5 -6.4 6.6 -9.9 1.7 -8.45 M14.3 1.05 L8.2 3.2 14.3 1.05 M-3.45 -44.45 Q-2.6 -43.45 -1.2 -40.15 L0.0 -36.95 Q0.0 -34.95 -0.85 -31.95 -1.8 -28.65 -3.05 -27.15 L-3.45 -44.45" fill="#ccada3" fill-rule="evenodd" stroke="none"/>
    <path d="M1.7 -8.45 Q6.6 -9.9 11.5 -6.4 12.2 -1.35 8.2 3.2 5.4 4.0 1.2 3.3 L-5.85 2.15 -5.9 2.15 -5.85 2.15 1.2 3.3 Q5.4 4.0 8.2 3.2 L13.45 5.0 Q17.15 11.7 2.25 16.2 L-5.45 14.95 -6.95 14.55 -12.55 12.85 -13.55 12.75 -12.55 12.85 -6.95 14.55 Q1.05 18.85 4.35 18.55 11.1 26.8 -2.45 26.5 L-4.3 26.05 -15.5 23.65 -4.3 26.05 -2.45 26.5 1.0 27.3 Q8.15 34.75 -3.85 37.5 L-6.0 36.55 Q-9.25 34.95 -11.95 32.9 -16.6 29.35 -16.6 26.3 L-16.35 25.05 -15.5 23.65 Q-18.5 22.0 -19.35 19.9 L-19.7 18.05 Q-19.7 16.7 -18.85 15.5 L-17.6 14.15 Q-15.75 12.6 -13.55 12.75 L-15.95 11.9 Q-17.6 11.05 -17.6 9.6 L-17.55 8.95 -17.4 7.8 -17.35 7.55 Q-15.95 1.75 -5.9 2.15 -7.65 2.05 -9.2 0.7 -10.65 -0.55 -10.65 -1.8 -10.65 -2.95 -10.1 -3.9 L-8.9 -5.45 Q-6.95 -7.2 -3.2 -7.6 1.2 -7.9 1.7 -8.45 M-2.75 0.55 L-1.85 -0.8 Q-1.45 -1.5 -1.45 -2.15 -1.45 -3.15 -2.3 -4.0 L-4.1 -5.25 -2.3 -4.0 Q-1.45 -3.15 -1.45 -2.15 -1.45 -1.5 -1.85 -0.8 L-2.75 0.55 M-10.25 12.5 Q-9.2 11.6 -8.4 10.15 L-7.8 8.75 Q-7.8 7.35 -8.5 5.5 -7.8 7.35 -7.8 8.75 L-8.4 10.15 Q-9.2 11.6 -10.25 12.5 M-10.8 30.45 Q-9.7 29.4 -9.0 27.9 -8.3 26.45 -8.45 25.6 -8.3 26.45 -9.0 27.9 -9.7 29.4 -10.8 30.45 M-14.1 21.95 L-11.75 21.55 Q-10.15 20.9 -10.15 18.7 -10.15 17.45 -10.85 15.2 -10.15 17.45 -10.15 18.7 -10.15 20.9 -11.75 21.55 L-14.1 21.95" fill="#e5c6bb" fill-rule="evenodd" stroke="none"/>
    <path d="M-6.0 36.55 Q-13.55 38.0 -18.35 31.85 -19.5 27.35 -19.35 19.9 -18.5 22.0 -15.5 23.65 L-16.35 25.05 -16.6 26.3 Q-16.6 29.35 -11.95 32.9 -9.25 34.95 -6.0 36.55 M-18.85 15.5 Q-18.95 10.7 -17.55 8.95 L-17.6 9.6 Q-17.6 11.05 -15.95 11.9 L-13.55 12.75 Q-15.75 12.6 -17.6 14.15 L-18.85 15.5 M-17.35 7.55 Q-18.35 1.4 -10.1 -3.9 -10.65 -2.95 -10.65 -1.8 -10.65 -0.55 -9.2 0.7 -7.65 2.05 -5.9 2.15 -15.95 1.75 -17.35 7.55" fill="#af5d69" fill-rule="evenodd" stroke="none"/>
    <path d="M1.15 -8.9 L1.6 -8.65 1.7 -8.45 Q1.2 -7.9 -3.2 -7.6 -6.95 -7.2 -8.9 -5.45 L-10.1 -3.9 Q-10.65 -2.95 -10.65 -1.8 -10.65 -0.55 -9.2 0.7 -7.65 2.05 -5.9 2.15 -15.95 1.75 -17.35 7.55 M8.2 3.2 L14.3 1.05 17.2 -0.55 18.9 -1.1 Q19.85 -1.75 19.85 -4.3 19.85 -5.8 18.55 -7.2 L15.65 -10.0 14.9 -11.3 Q13.95 -12.55 12.25 -13.25 L5.8 -13.75 -3.15 -13.3 M12.75 15.95 Q17.25 14.25 17.85 13.75 19.05 12.65 19.05 8.85 19.05 6.75 17.65 5.3 15.35 2.9 14.3 1.05 M-5.9 2.15 L-5.85 2.15 1.2 3.3 Q5.4 4.0 8.2 3.2 M2.25 16.2 L4.75 16.35 12.75 15.95 Q14.6 17.55 15.6 21.15 15.6 25.6 14.1 27.2 12.9 28.5 9.9 28.5 L6.55 28.2 8.7 29.8 Q9.9 31.15 9.9 33.6 9.9 35.6 8.05 37.55 6.15 39.5 2.7 41.15 1.5 42.2 -0.7 43.3 -2.95 44.35 -3.85 44.35 M-3.85 37.5 L-6.0 36.55 Q-9.25 34.95 -11.95 32.9 -16.6 29.35 -16.6 26.3 L-16.35 25.05 -15.5 23.65 -4.3 26.05 -2.45 26.5 1.0 27.3 6.55 28.2 M-19.35 19.9 L-19.7 18.05 Q-19.7 16.7 -18.85 15.5 L-17.6 14.15 Q-15.75 12.6 -13.55 12.75 L-12.55 12.85 -6.95 14.55 -5.45 14.95 2.25 16.2 M-17.55 8.95 L-17.4 7.8 M-3.45 -44.45 Q-2.6 -43.45 -1.2 -40.15 L0.0 -36.95 Q0.0 -34.95 -0.85 -31.95 -1.8 -28.65 -3.05 -27.15 M-17.55 8.95 L-17.6 9.6 Q-17.6 11.05 -15.95 11.9 L-13.55 12.75 M-19.35 19.9 Q-18.5 22.0 -15.5 23.65 M-3.85 37.5 L-0.75 39.55 Q1.95 41.1 2.7 41.15" fill="none" stroke="#574a3a" stroke-linecap="round" stroke-linejoin="round" stroke-width="1.2000000000000002"/>
    <path d="M-4.1 -5.25 L-2.3 -4.0 Q-1.45 -3.15 -1.45 -2.15 -1.45 -1.5 -1.85 -0.8 L-2.75 0.55 M-8.5 5.5 Q-7.8 7.35 -7.8 8.75 L-8.4 10.15 Q-9.2 11.6 -10.25 12.5 M-10.85 15.2 Q-10.15 17.45 -10.15 18.7 -10.15 20.9 -11.75 21.55 L-14.1 21.95 M-8.45 25.6 Q-8.3 26.45 -9.0 27.9 -9.7 29.4 -10.8 30.45" fill="none" stroke="#574a3a" stroke-linecap="round" stroke-linejoin="round" stroke-width="0.8"/>
    <path d="M13.45 4.9 L13.5 5.0 13.4 5.05 8.85 3.9 8.25 3.8 8.1 3.75 7.95 3.75 Q7.45 3.6 7.55 3.05 7.75 2.45 8.25 2.6 L8.4 2.6 8.55 2.7 8.85 2.8 13.45 4.9 M12.55 -0.45 L12.5 -0.5 12.6 -0.6 12.8 -0.65 14.05 -0.65 14.9 -0.75 15.3 -0.75 15.7 -0.8 17.05 -1.1 17.15 -1.15 Q17.75 -1.15 17.85 -0.6 17.85 0.0 17.3 0.0 L17.1 0.05 16.15 0.05 15.75 0.0 15.3 0.0 13.65 -0.2 12.55 -0.45" fill="#574a3a" fill-rule="evenodd" stroke="none"/>
  </g>
</svg>
