<?xml version="1.0" encoding="UTF-8" standalone="no"?>
<svg xmlns:xlink="http://www.w3.org/1999/xlink" height="83.15px" width="97.85px" xmlns="http://www.w3.org/2000/svg">
  <g transform="matrix(1.0, 0.0, 0.0, 1.0, 48.45, 41.3)">
    <path d="M-27.8 0.25 Q-36.35 -6.85 -42.85 -14.2 L-48.45 -41.3 Q-12.65 4.45 24.75 22.8 L35.7 25.15 Q37.1 34.7 43.75 41.25 37.25 40.65 21.75 32.4 -7.8 16.8 -27.8 0.25" fill="#d0dbe5" fill-rule="evenodd" stroke="none"/>
    <path d="M43.75 41.25 Q37.1 34.7 35.7 25.15 35.05 20.8 35.8 9.95 48.15 16.6 48.75 25.95 49.3 35.25 43.75 41.25" fill="url(#gradient0)" fill-rule="evenodd" stroke="none"/>
    <path d="M35.7 25.15 L24.75 22.8 Q-12.65 4.45 -48.45 -41.3 4.05 -35.45 35.8 0.85 L35.8 9.95 Q35.05 20.8 35.7 25.15" fill="#d9e6f1" fill-rule="evenodd" stroke="none"/>
    <path d="M-27.8 0.25 Q-7.8 16.8 21.75 32.4 37.25 40.65 43.75 41.25 37.1 34.7 35.7 25.15 35.05 20.8 35.8 9.95 48.15 16.6 48.75 25.95 49.3 35.25 43.75 41.25" fill="none" stroke="#47373a" stroke-linecap="round" stroke-linejoin="round" stroke-width="1.2000000000000002"/>
    <path d="M-42.9 -14.1 L-42.9 -14.25 -42.75 -14.25 -30.5 -2.7 -27.4 -0.2 -27.35 -0.15 Q-26.9 0.15 -27.3 0.65 L-28.15 0.7 -29.2 -0.15 -41.25 -12.15 -42.9 -14.1" fill="#47373a" fill-rule="evenodd" stroke="none"/>
  </g>
  <defs>
    <radialGradient cx="0" cy="0" gradientTransform="matrix(0.0149, -0.004, 0.0063, 0.0237, 40.0, 26.0)" gradientUnits="userSpaceOnUse" id="gradient0" r="819.2" spreadMethod="pad">
      <stop offset="0.0784313725490196" stop-color="#6d4252"/>
      <stop offset="0.3058823529411765" stop-color="#8a5467"/>
      <stop offset="0.803921568627451" stop-color="#c47893"/>
    </radialGradient>
  </defs>
</svg>
