<?xml version="1.0" encoding="UTF-8" standalone="no"?>
<svg xmlns:xlink="http://www.w3.org/1999/xlink" height="93.3px" width="198.25px" xmlns="http://www.w3.org/2000/svg">
  <g transform="matrix(1.0, 0.0, 0.0, 1.0, 99.7, 50.5)">
    <path d="M-14.45 10.85 L-20.2 3.75 Q-54.85 -36.8 -99.7 -50.5 -38.6 -48.0 23.8 -15.95 49.45 22.05 67.55 27.15 71.3 31.05 65.35 32.6 33.65 43.85 -14.45 10.85" fill="#d9e6f1" fill-rule="evenodd" stroke="none"/>
    <path d="M23.8 -15.95 Q54.4 0.5 72.55 9.0 90.7 17.45 97.95 32.65 56.85 45.65 25.6 40.95 8.1 33.2 -3.8 22.5 -9.85 17.05 -14.45 10.85 33.65 43.85 65.35 32.6 71.3 31.05 67.55 27.15 49.45 22.05 23.8 -15.95" fill="#d0dbe5" fill-rule="evenodd" stroke="none"/>
    <path d="M97.95 32.65 Q56.85 45.65 25.6 40.95 8.1 33.2 -3.8 22.5 -9.85 17.05 -14.45 10.85" fill="none" stroke="#47373a" stroke-linecap="round" stroke-linejoin="round" stroke-width="1.2000000000000002"/>
    <path d="M-13.95 10.45 Q-13.55 10.95 -14.0 11.3 L-14.85 11.25 -15.8 10.1 -20.1 4.15 -20.35 3.85 -20.3 3.6 Q-20.15 3.45 -20.0 3.6 L-14.95 9.4 -13.95 10.45" fill="#47373a" fill-rule="evenodd" stroke="none"/>
  </g>
</svg>
