<?xml version="1.0" encoding="UTF-8" standalone="no"?>
<svg xmlns:xlink="http://www.w3.org/1999/xlink" height="168.45px" width="125.75px" xmlns="http://www.w3.org/2000/svg">
  <g transform="matrix(1.0, 0.0, 0.0, 1.0, 62.85, 84.25)">
    <path d="M-53.35 -75.05 L-51.05 -83.65 Q-48.75 -50.0 -40.2 -30.0 -20.55 7.35 1.6 30.45 13.4 40.95 20.5 77.15 2.55 72.2 -14.6 63.5 -58.3 13.35 -62.25 -39.4 -50.0 -5.8 -37.75 9.8 -36.8 5.7 -43.85 -14.2 -52.0 -49.2 -53.35 -75.05" fill="#d9e6f1" fill-rule="evenodd" stroke="none"/>
    <path d="M-51.05 -83.65 Q-34.35 -40.4 3.0 -1.9 40.35 36.5 62.3 83.6 40.9 82.75 20.5 77.15 13.4 40.95 1.6 30.45 -20.55 7.35 -40.2 -30.0 -48.75 -50.0 -51.05 -83.65 M-62.25 -39.4 Q-54.8 -35.0 -48.2 -22.9 L-43.85 -14.2 Q-36.8 5.7 -37.75 9.8 -50.0 -5.8 -62.25 -39.4" fill="#d0dbe5" fill-rule="evenodd" stroke="none"/>
    <path d="M-48.2 -22.9 Q-59.4 -47.8 -53.35 -75.05 -52.0 -49.2 -43.85 -14.2 L-48.2 -22.9" fill="#e5f0fc" fill-rule="evenodd" stroke="none"/>
    <path d="M-53.35 -75.05 L-51.05 -83.65 Q-34.35 -40.4 3.0 -1.9 40.35 36.5 62.3 83.6 M-14.6 63.5 Q-58.3 13.35 -62.25 -39.4 -54.8 -35.0 -48.2 -22.9 -59.4 -47.8 -53.35 -75.05 Z" fill="none" stroke="#47373a" stroke-linecap="round" stroke-linejoin="round" stroke-width="1.2000000000000002"/>
    <path d="M-43.75 -14.2 Q-43.65 -14.1 -43.8 -14.1 L-43.9 -14.15 -48.75 -22.7 Q-48.95 -23.25 -48.4 -23.45 L-47.95 -23.45 -47.65 -23.15 -43.75 -14.2" fill="#47373a" fill-rule="evenodd" stroke="none"/>
  </g>
</svg>
