<?xml version="1.0" encoding="UTF-8" standalone="no"?>
<svg xmlns:xlink="http://www.w3.org/1999/xlink" height="47.15px" width="32.8px" xmlns="http://www.w3.org/2000/svg">
  <g transform="matrix(1.0, 0.0, 0.0, 1.0, 16.4, 23.55)">
    <path d="M15.05 3.1 Q13.15 12.5 7.35 18.25 1.6 24.05 -4.65 22.8 -10.85 21.5 -13.95 13.9 -17.0 6.4 -15.05 -3.05 -13.15 -12.45 -7.45 -18.2 -1.6 -24.0 4.6 -22.75 10.85 -21.4 13.9 -13.9 16.95 -6.3 15.05 3.1" fill="url(#gradient0)" fill-rule="evenodd" stroke="none"/>
    <path d="M15.05 3.1 Q13.15 12.5 7.35 18.25 1.6 24.05 -4.65 22.8 -10.85 21.5 -13.95 13.9 -17.0 6.4 -15.05 -3.05 -13.15 -12.45 -7.45 -18.2 -1.6 -24.0 4.6 -22.75 10.85 -21.4 13.9 -13.9 16.95 -6.3 15.05 3.1 Z" fill="none" stroke="#47373a" stroke-linecap="round" stroke-linejoin="round" stroke-width="1.2000000000000002"/>
    <path d="M6.05 -0.3 Q5.05 4.9 2.55 8.3 0.1 11.75 -2.4 11.45 -4.9 11.05 -5.9 7.15 -7.0 3.25 -5.95 -1.9 -4.9 -7.1 -2.5 -10.55 0.05 -13.95 2.5 -13.65 5.05 -13.4 6.05 -9.45 7.1 -5.5 6.05 -0.3" fill="#060503" fill-rule="evenodd" stroke="none"/>
    <path d="M3.45 -13.9 Q4.45 -10.1 3.35 -6.95 2.3 -3.75 -0.25 -3.1 -2.8 -2.4 -5.3 -4.6 -7.8 -6.8 -8.8 -10.6 -9.85 -14.35 -8.75 -17.45 -7.65 -20.65 -5.1 -21.35 -2.55 -22.0 -0.1 -19.8 2.4 -17.65 3.45 -13.9" fill="url(#gradient1)" fill-rule="evenodd" stroke="none"/>
    <path d="M10.35 0.5 Q10.35 2.85 9.3 4.35 8.25 5.95 6.75 5.95 5.2 5.95 4.25 4.35 3.15 2.85 3.15 0.55 3.15 -1.65 4.15 -3.2 5.3 -4.8 6.75 -4.85 8.25 -4.8 9.3 -3.2 10.35 -1.65 10.35 0.5" fill="url(#gradient2)" fill-rule="evenodd" stroke="none"/>
  </g>
  <defs>
    <radialGradient cx="0" cy="0" gradientTransform="matrix(0.0387, 0.0104, -0.0112, 0.0417, -6.05, 8.8)" gradientUnits="userSpaceOnUse" id="gradient0" r="819.2" spreadMethod="pad">
      <stop offset="0.10196078431372549" stop-color="#ebc79e"/>
      <stop offset="0.25882352941176473" stop-color="#cea16d"/>
      <stop offset="0.5450980392156862" stop-color="#cea16d"/>
      <stop offset="0.6901960784313725" stop-color="#906949"/>
    </radialGradient>
    <radialGradient cx="0" cy="0" gradientTransform="matrix(0.0066, -0.0018, 0.0029, 0.0107, -2.65, -12.25)" gradientUnits="userSpaceOnUse" id="gradient1" r="819.2" spreadMethod="pad">
      <stop offset="0.8313725490196079" stop-color="#eee6da"/>
      <stop offset="1.0" stop-color="#eee6da" stop-opacity="0.0"/>
    </radialGradient>
    <radialGradient cx="0" cy="0" gradientTransform="matrix(0.0039, 0.0, 0.0, 0.0063, 6.8, 0.6)" gradientUnits="userSpaceOnUse" id="gradient2" r="819.2" spreadMethod="pad">
      <stop offset="0.6549019607843137" stop-color="#eee6da"/>
      <stop offset="1.0" stop-color="#eee6da" stop-opacity="0.0"/>
    </radialGradient>
  </defs>
</svg>
