<?xml version="1.0" encoding="UTF-8" standalone="no"?>
<svg xmlns:xlink="http://www.w3.org/1999/xlink" height="186.05px" width="218.9px" xmlns="http://www.w3.org/2000/svg">
  <g transform="matrix(1.0, 0.0, 0.0, 1.0, 63.9, 28.85)">
    <path d="M60.5 -22.0 Q-23.2 -28.05 -54.25 1.8 -46.15 -11.85 -33.65 -26.2 0.35 -29.5 28.15 -27.55 42.55 -26.55 55.3 -24.1 L60.5 -22.0 M63.45 8.0 Q79.7 2.55 97.6 5.3 99.2 12.15 97.9 12.25 91.4 16.5 89.65 28.75 77.9 13.95 63.45 8.0 M-22.6 20.75 Q-33.9 31.65 -41.8 55.45 -38.4 27.65 -22.6 20.75" fill="#e5f0fc" fill-rule="evenodd" stroke="none"/>
    <path d="M73.0 -17.0 L60.5 -22.0 62.8 -22.5 60.5 -22.0 55.3 -24.1 62.8 -22.5 Q79.5 -18.65 93.15 -12.1 82.9 -15.4 73.0 -17.0 M62.5 99.45 Q19.0 80.35 5.65 51.75 2.85 46.15 2.0 29.7 4.25 32.95 6.15 36.9 7.95 38.75 9.25 39.45 10.35 40.05 9.3 37.3 L8.9 36.4 10.05 36.75 10.0 36.75 10.0 36.85 10.0 37.1 Q9.0 46.8 15.6 56.85 25.75 72.25 53.7 88.55 52.85 88.45 58.65 94.55 L62.5 99.45 M101.95 -0.45 L114.55 1.2 Q125.0 9.55 132.7 20.3 150.4 44.65 153.65 81.4 L154.2 89.95 154.4 95.0 Q152.7 109.45 144.65 119.9 163.05 53.95 101.95 -0.45" fill="#d0dbe5" fill-rule="evenodd" stroke="none"/>
    <path d="M60.5 -22.0 L73.0 -17.0 Q38.5 -22.55 8.0 -7.5 -7.0 3.05 -10.45 10.35 L2.0 29.7 Q2.85 46.15 5.65 51.75 19.0 80.35 62.5 99.45 L68.8 106.95 -24.3 86.9 Q-54.45 80.55 -56.7 57.4 L-63.9 21.85 Q-60.3 12.0 -54.25 1.8 -23.2 -28.05 60.5 -22.0 M101.9 -0.45 L101.95 -0.45 Q163.05 53.95 144.65 119.9 126.75 112.9 96.0 83.1 94.9 73.3 93.55 68.85 L92.15 64.35 Q90.75 51.85 79.65 35.25 68.5 18.6 55.05 14.65 47.75 10.35 41.15 8.2 64.65 -4.2 101.9 -0.45 M63.45 8.0 Q77.9 13.95 89.65 28.75 91.4 16.5 97.9 12.25 99.2 12.15 97.6 5.3 79.7 2.55 63.45 8.0 M-22.6 20.75 Q-38.4 27.65 -41.8 55.45 -33.9 31.65 -22.6 20.75" fill="#d9e6f1" fill-rule="evenodd" stroke="none"/>
    <path d="M-10.45 10.35 Q-7.0 3.05 8.0 -7.5 38.5 -22.55 73.0 -17.0 L101.9 -0.45 Q64.65 -4.2 41.15 8.2 47.75 10.35 55.05 14.65 L55.35 14.8 Q66.2 19.3 77.75 34.5 89.95 50.6 91.95 64.25 L92.15 64.45 92.15 64.3 92.15 64.35 93.55 68.85 Q94.9 73.3 96.0 83.1 126.75 112.9 144.65 119.9 144.0 138.6 145.2 143.55 L148.25 155.9 144.25 155.9 Q122.2 151.65 100.6 135.3 79.0 118.9 62.9 98.05 86.95 52.25 51.35 34.5 37.3 26.15 10.25 36.7 L10.05 36.75 8.9 36.4 9.3 37.3 Q8.2 37.05 6.4 34.2 3.5 29.7 -10.45 10.35" fill="#c46a75" fill-rule="evenodd" stroke="none"/>
    <path d="M73.0 -17.0 Q82.9 -15.4 93.15 -12.1 105.0 -6.45 114.55 1.2 L101.95 -0.45 101.9 -0.45 73.0 -17.0 M56.0 89.25 Q70.7 76.35 63.45 49.3 59.1 39.1 51.35 34.5 86.95 52.25 62.9 98.05 L56.05 89.25 56.0 89.25 M148.25 155.9 L145.2 143.55 Q144.0 138.6 144.65 119.9 152.7 109.45 154.4 95.0 L154.3 107.05 Q153.55 129.35 148.55 155.95 L148.25 155.9" fill="#ba626d" fill-rule="evenodd" stroke="none"/>
    <path d="M68.8 106.95 L62.5 99.45 58.65 94.55 Q52.85 88.45 53.7 88.55 L55.05 89.3 56.0 89.25 56.05 89.25 62.9 98.05 Q79.0 118.9 100.6 135.3 122.2 151.65 144.25 155.9 L148.25 155.9 148.55 155.95 Q149.1 156.8 148.55 157.2 133.05 157.25 107.65 141.3 82.15 125.3 68.8 106.95 M2.0 29.7 L-10.45 10.35 Q3.5 29.7 6.4 34.2 8.2 37.05 9.3 37.3 10.35 40.05 9.25 39.45 7.95 38.75 6.15 36.9 4.25 32.95 2.0 29.7 M92.15 64.35 L92.15 64.3 92.15 64.45 91.95 64.25 Q89.95 50.6 77.75 34.5 66.2 19.3 55.35 14.8 L55.05 14.65 Q68.5 18.6 79.65 35.25 90.75 51.85 92.15 64.35" fill="#47373a" fill-rule="evenodd" stroke="none"/>
    <path d="M93.15 -12.1 Q79.5 -18.65 62.8 -22.5 L55.3 -24.1 Q42.55 -26.55 28.15 -27.55 0.35 -29.5 -33.65 -26.2 M114.55 1.2 Q105.0 -6.45 93.15 -12.1 M154.4 95.0 L154.2 89.95 153.65 81.4 Q150.4 44.65 132.7 20.3 125.0 9.55 114.55 1.2 M56.0 89.25 Q70.7 76.35 63.45 49.3 59.1 39.1 51.35 34.5 37.3 26.15 10.25 36.7 L10.05 36.75 8.9 36.4 M15.6 56.85 Q25.75 72.25 53.7 88.55 L55.05 89.3 M148.55 155.95 Q153.55 129.35 154.3 107.05 L154.4 95.0" fill="none" stroke="#47373a" stroke-linecap="round" stroke-linejoin="round" stroke-width="1.2000000000000002"/>
    <path d="M62.8 -22.5 L60.5 -22.0" fill="none" stroke="#47373a" stroke-linecap="round" stroke-linejoin="round" stroke-width="0.05"/>
    <path d="M10.05 35.3 L10.15 35.3 Q10.75 35.3 11.15 35.75 11.55 36.2 11.55 36.8 L11.4 37.4 11.2 39.05 11.15 40.95 11.3 43.4 11.4 44.05 11.4 44.2 11.45 44.35 11.65 45.6 11.75 45.9 11.85 46.5 11.95 46.8 12.0 47.15 12.75 49.55 13.55 51.65 15.25 55.1 16.1 56.5 Q16.35 57.0 15.9 57.3 15.4 57.7 15.05 57.15 L14.2 55.9 14.15 55.8 13.4 54.65 12.1 52.35 12.0 52.2 11.95 52.05 11.05 50.25 9.15 44.6 9.15 44.45 8.7 42.1 8.7 41.75 8.6 41.05 8.6 40.7 8.55 40.4 8.55 36.75 Q8.5 36.15 8.9 35.75 9.3 35.3 9.85 35.3 L10.05 35.3" fill="#47373a" fill-rule="evenodd" stroke="none"/>
  </g>
</svg>
