<?xml version="1.0" encoding="UTF-8" standalone="no"?>
<svg xmlns:xlink="http://www.w3.org/1999/xlink" height="75.25px" width="66.9px" xmlns="http://www.w3.org/2000/svg">
  <g transform="matrix(1.0, 0.0, 0.0, 1.0, 34.65, 14.4)">
    <path d="M-31.95 -4.8 Q-16.7 -12.35 8.0 -10.55 14.05 -10.05 24.2 -3.4 34.35 3.2 31.3 29.1 5.1 39.9 -31.95 -4.8" fill="#c46a75" fill-rule="evenodd" stroke="none"/>
    <path d="M-31.95 -4.8 Q5.1 39.9 31.3 29.1 32.1 34.65 24.75 58.75 17.4 51.6 7.4 46.05 -2.6 40.5 -16.35 23.55 -30.1 6.55 -31.95 -4.8" fill="#ba626d" fill-rule="evenodd" stroke="none"/>
    <path d="M-32.5 -4.65 Q-32.5 -5.1 -32.1 -5.25 -31.55 -5.45 -31.35 -4.9 L-31.15 -4.35 -30.95 -3.95 -30.9 -3.75 -30.7 -3.2 -30.55 -2.9 -29.25 0.8 -28.6 2.4 -26.15 7.3 -24.6 10.05 -20.8 15.85 -15.5 22.85 -13.75 25.0 -8.45 31.1 -2.9 36.9 1.05 40.5 1.25 40.65 1.35 40.75 1.45 40.8 5.9 44.15 14.9 49.8 20.0 53.7 20.2 53.9 21.25 54.8 21.6 55.2 22.3 55.85 24.45 58.2 24.8 58.65 24.8 58.8 24.65 58.8 13.1 50.35 5.8 46.1 1.85 43.45 -4.2 38.3 -12.75 29.45 -13.4 28.65 -13.75 28.3 -14.1 27.9 -15.4 26.35 -22.6 17.1 -26.5 11.2 -28.1 8.4 -31.5 1.05 -31.55 0.8 -32.1 -0.8 -32.5 -3.1 -32.5 -4.65" fill="#47373a" fill-rule="evenodd" stroke="none"/>
    <path d="M21.95 57.1 L21.85 57.0 Q21.4 56.5 21.9 56.0 L22.9 56.05 23.15 56.3 23.35 56.6 25.5 58.7 25.8 58.9 25.9 59.05 26.3 59.35 27.0 59.8 27.1 59.9 27.35 60.05 28.65 60.65 28.7 60.75 28.6 60.8 27.7 60.6 26.6 60.2 25.65 59.7 25.5 59.65 22.85 57.85 22.5 57.5 22.3 57.4 22.2 57.3 21.95 57.1 M15.45 51.35 L15.15 51.2 15.1 51.2 Q14.5 50.85 14.85 50.2 L15.25 49.9 15.8 49.95 19.95 52.0 23.9 53.3 24.45 53.45 24.95 53.6 27.95 54.15 28.0 54.25 27.9 54.3 27.35 54.3 26.3 54.2 25.85 54.2 22.0 53.55 19.9 53.0 21.3 53.9 21.45 53.95 23.35 54.8 29.35 56.3 31.95 56.6 32.2 56.65 32.25 56.7 32.15 56.8 31.95 56.85 29.9 56.85 28.65 56.8 28.25 56.75 27.9 56.75 23.85 56.05 23.45 55.9 23.0 55.8 19.8 54.55 17.2 53.0 15.9 51.9 15.65 51.55 15.45 51.35 M9.0 47.15 L8.85 47.1 8.5 46.7 8.5 46.15 Q8.85 45.55 9.45 45.8 L9.8 45.95 9.95 46.05 10.05 46.1 10.25 46.15 10.45 46.25 10.65 46.3 10.85 46.4 12.05 46.7 13.6 46.85 14.0 46.85 14.4 46.8 14.9 46.8 Q15.0 46.7 15.0 46.85 L14.95 46.95 14.55 47.1 14.4 47.1 13.1 47.4 11.45 47.5 10.9 47.45 10.65 47.45 10.15 47.35 9.95 47.35 9.35 47.2 9.25 47.2 9.0 47.15 M-29.55 -8.55 L-29.45 -8.6 -29.4 -8.5 -29.4 -8.4 -29.6 -6.8 -29.6 -6.6 -29.65 -6.45 -29.7 -5.3 -29.75 -5.1 -29.75 -2.55 -29.6 -1.2 -29.6 -0.4 -29.65 -0.3 -29.65 -0.2 -29.8 0.15 -30.05 0.5 Q-30.6 0.9 -30.95 0.3 L-31.2 0.0 -31.4 -0.45 -31.5 -0.9 -31.5 -1.55 -31.65 -1.6 -32.1 -2.0 -32.25 -2.1 -32.45 -2.4 -32.6 -2.55 -32.7 -2.75 -32.95 -3.15 -33.05 -3.35 -33.4 -4.25 -33.4 -4.35 -33.7 -5.2 -34.1 -6.7 -34.2 -7.0 -34.6 -9.8 -34.6 -10.1 -34.65 -10.7 -34.55 -13.45 -34.5 -13.6 -34.5 -13.75 -34.4 -14.3 -34.35 -14.4 -34.25 -14.35 -34.1 -13.75 -34.1 -13.65 -34.05 -13.5 -34.0 -13.15 -33.55 -11.1 -33.5 -10.95 -33.5 -10.85 -32.45 -7.5 -31.5 -5.2 -31.45 -5.05 -31.35 -4.95 -31.15 -4.5 -30.95 -5.3 -30.85 -5.5 -30.45 -6.8 -30.35 -7.0 -30.25 -7.3 -29.8 -8.15 -29.75 -8.2 -29.55 -8.55" fill="#47373a" fill-rule="evenodd" stroke="none"/>
  </g>
</svg>
