<?xml version="1.0" encoding="UTF-8" standalone="no"?>
<svg xmlns:xlink="http://www.w3.org/1999/xlink" height="129.25px" width="218.9px" xmlns="http://www.w3.org/2000/svg">
  <g transform="matrix(1.0, 0.0, 0.0, 1.0, 109.45, 64.6)">
    <path d="M-86.15 -58.15 Q-90.4 -55.35 -91.95 -51.0 -92.8 -48.6 -92.8 -45.75 L-92.8 -44.65 Q-92.3 -31.7 -88.7 -20.9 -93.85 -25.9 -100.15 -37.1 -102.65 -51.95 -97.55 -58.45 -90.85 -59.95 -86.15 -58.15 M46.05 46.55 L43.35 44.85 Q52.65 45.65 59.35 43.6 L62.35 42.4 Q67.95 41.5 69.15 52.7 L68.85 55.45 68.65 56.55 Q67.95 60.25 66.5 64.05 64.35 60.3 60.25 56.55 54.8 51.55 46.05 46.55 M75.15 37.4 Q74.6 37.05 73.95 36.9 73.7 36.9 73.65 36.75 82.6 34.45 84.8 27.15 85.85 23.6 94.1 35.3 96.5 41.7 97.2 49.75 86.95 42.15 76.1 37.7 L75.15 37.4" fill="#d0dbe5" fill-rule="evenodd" stroke="none"/>
    <path d="M-97.55 -58.45 Q-102.65 -51.95 -100.15 -37.1 -104.25 -44.4 -108.85 -54.3 -102.6 -57.3 -97.55 -58.45" fill="#d9e6f1" fill-rule="evenodd" stroke="none"/>
    <path d="M-92.8 -45.75 Q-92.8 -48.6 -91.95 -51.0 -90.4 -55.35 -86.15 -58.15 -79.2 -62.7 -65.2 -63.25 15.25 -69.6 62.1 -21.9 71.8 -12.05 80.05 0.1 -52.0 54.3 -92.8 -45.75 M-61.5 -60.3 Q-86.1 -57.25 -80.9 -50.8 L-14.1 -48.6 Q7.35 -47.25 54.2 -18.75 13.8 -61.45 -61.5 -60.3" fill="#c46a75" fill-rule="evenodd" stroke="none"/>
    <path d="M-92.8 -45.75 Q-52.0 54.3 80.05 0.1 81.35 2.7 82.25 5.2 L83.45 8.85 83.9 10.9 Q80.3 41.45 -24.2 29.7 -48.9 23.8 -64.65 12.0 L-67.95 9.4 Q-82.7 -2.85 -88.7 -20.9 -92.3 -31.7 -92.8 -44.65 L-92.8 -45.75" fill="#ba626d" fill-rule="evenodd" stroke="none"/>
    <path d="M-61.5 -60.3 Q13.8 -61.45 54.2 -18.75 7.35 -47.25 -14.1 -48.6 L-80.9 -50.8 Q-86.1 -57.25 -61.5 -60.3" fill="#ce717b" fill-rule="evenodd" stroke="none"/>
    <path d="M83.9 10.9 L84.05 12.0 Q85.0 20.1 80.05 25.45 71.65 34.25 46.75 35.4 5.05 36.65 -24.2 29.7 80.3 41.45 83.9 10.9" fill="#af5d69" fill-rule="evenodd" stroke="none"/>
    <path d="M-17.75 39.3 Q-17.45 39.0 -17.3 38.25 L-17.1 35.9 -17.35 35.4 -17.75 35.2 Q-18.4 35.65 -18.65 36.45 -18.95 37.35 -19.6 37.95 L-19.15 38.8 Q-44.05 30.05 -64.95 12.0 L-67.95 9.4 -64.65 12.0 Q-48.9 23.8 -24.2 29.7 5.05 36.65 46.75 35.4 71.65 34.25 80.05 25.45 85.0 20.1 84.05 12.0 L83.9 10.9 83.45 8.85 82.25 5.2 Q90.5 8.0 97.0 12.0 103.9 16.3 108.85 21.9 L88.25 25.1 Q91.85 29.5 94.1 35.3 85.85 23.6 84.8 27.15 82.6 34.45 73.65 36.75 73.7 36.9 73.95 36.9 74.6 37.05 75.15 37.4 71.25 38.55 68.4 41.65 L68.45 41.75 Q69.55 47.25 69.15 52.7 67.95 41.5 62.35 42.4 L59.35 43.6 Q52.65 45.65 43.35 44.85 L46.05 46.55 Q30.2 47.8 14.25 46.25 15.6 46.15 15.8 45.25 L16.0 43.55 15.65 41.45 14.85 39.25 Q14.45 39.85 14.45 42.0 L14.0 45.55 14.2 46.25 Q-4.35 45.2 -17.75 39.3" fill="#c5d0db" fill-rule="evenodd" stroke="none"/>
    <path d="M-19.15 38.8 L-19.6 37.95 Q-18.95 37.35 -18.65 36.45 -18.4 35.65 -17.75 35.2 L-17.35 35.4 -17.1 35.9 -17.3 38.25 Q-17.45 39.0 -17.75 39.3 L-19.15 38.8 -17.75 39.3 Q-18.25 39.7 -19.15 38.8 M14.2 46.25 L14.0 45.55 14.45 42.0 Q14.45 39.85 14.85 39.25 L15.65 41.45 16.0 43.55 15.8 45.25 Q15.6 46.15 14.25 46.25 L14.2 46.25" fill="#47373a" fill-rule="evenodd" stroke="none"/>
    <path d="M-86.15 -58.15 Q-90.4 -55.35 -91.95 -51.0 -92.8 -48.6 -92.8 -45.75 L-92.8 -44.65 Q-92.3 -31.7 -88.7 -20.9 -82.7 -2.85 -67.95 9.4 L-64.95 12.0 Q-44.05 30.05 -19.15 38.8 L-17.75 39.3 Q-4.35 45.2 14.2 46.25 M80.05 0.1 Q71.8 -12.05 62.1 -21.9 15.25 -69.6 -65.2 -63.25 -79.2 -62.7 -86.15 -58.15 M-100.15 -37.1 Q-93.85 -25.9 -88.7 -20.9 M-108.85 -54.3 Q-104.25 -44.4 -100.15 -37.1 M14.25 46.25 Q30.2 47.8 46.05 46.55 54.8 51.55 60.25 56.55 64.35 60.3 66.5 64.05 67.95 60.25 68.65 56.55 L68.85 55.45 69.15 52.7 Q69.55 47.25 68.45 41.75 L68.4 41.65 Q71.25 38.55 75.15 37.4 L76.1 37.7 Q86.95 42.15 97.2 49.75 96.5 41.7 94.1 35.3 91.85 29.5 88.25 25.1 L108.85 21.9 Q103.9 16.3 97.0 12.0 90.5 8.0 82.25 5.2 L83.45 8.85 83.9 10.9 84.05 12.0 Q85.0 20.1 80.05 25.45 71.65 34.25 46.75 35.4 5.05 36.65 -24.2 29.7 -48.9 23.8 -64.65 12.0 L-67.95 9.4 M82.25 5.2 Q81.35 2.7 80.05 0.1" fill="none" stroke="#47373a" stroke-linecap="round" stroke-linejoin="round" stroke-width="1.2000000000000002"/>
    <path d="M68.95 41.45 L69.0 41.65 Q69.1 42.25 68.5 42.35 67.9 42.45 67.8 41.8 L67.5 39.0 67.55 38.9 67.65 38.95 68.95 41.45 M75.45 36.85 L75.75 37.05 Q76.2 37.5 75.7 37.95 L74.8 37.9 74.75 37.8 74.4 37.45 73.9 37.1 73.7 37.0 73.6 36.9 73.55 36.75 73.55 36.7 73.7 36.65 73.7 36.7 73.8 36.7 73.9 36.65 73.95 36.65 75.05 36.75 75.25 36.8 75.35 36.85 75.45 36.85 M46.5 46.15 Q47.0 46.55 46.55 47.0 46.15 47.45 45.7 47.0 L45.3 46.7 43.25 44.9 43.25 44.8 Q43.25 44.7 43.4 44.75 L45.9 45.8 46.5 46.15 M88.65 24.65 L88.75 24.75 Q89.1 25.25 88.65 25.6 88.15 25.95 87.8 25.5 L87.8 25.45 87.75 25.45 87.75 25.4 87.7 25.35 87.6 25.2 87.5 24.95 87.55 25.0 87.4 24.6 87.3 24.4 87.25 24.2 86.95 23.6 86.85 23.45 86.65 23.05 86.5 22.9 86.4 22.7 86.25 22.55 86.0 22.2 85.85 22.05 85.85 21.95 86.0 21.9 86.55 22.3 86.7 22.45 86.9 22.6 87.35 23.05 87.55 23.2 87.7 23.4 87.85 23.55 87.95 23.75 88.1 23.9 88.5 24.45 88.55 24.5 88.6 24.65 88.65 24.65" fill="#47373a" fill-rule="evenodd" stroke="none"/>
  </g>
</svg>
