<?xml version="1.0" encoding="UTF-8" standalone="no"?>
<svg xmlns:xlink="http://www.w3.org/1999/xlink" height="185.65px" width="176.65px" xmlns="http://www.w3.org/2000/svg">
  <g transform="matrix(1.0, 0.0, 0.0, 1.0, 89.5, 92.8)">
    <path d="M49.8 88.55 Q62.4 62.3 62.45 30.3 66.45 15.4 54.1 -1.05 41.7 -17.55 50.0 -48.2 L83.2 -32.45 83.25 -31.0 83.0 -27.9 83.75 -24.35 Q95.05 34.25 61.0 92.25 L49.8 88.55 M77.25 -16.7 Q80.6 -20.1 82.1 -24.35 L83.0 -27.9 82.1 -24.35 Q80.6 -20.1 77.25 -16.7" fill="#d8b8ad" fill-rule="evenodd" stroke="none"/>
    <path d="M50.0 -48.2 Q41.7 -17.55 54.1 -1.05 66.45 15.4 62.45 30.3 62.4 62.3 49.8 88.55 L-77.0 46.45 Q-71.8 7.35 -60.55 -8.05 -49.35 -23.45 -37.5 -45.05 L-10.85 -77.05 50.0 -48.2" fill="#e5c6bb" fill-rule="evenodd" stroke="none"/>
    <path d="M-10.85 -77.05 L-37.5 -45.05 Q-49.35 -23.45 -60.55 -8.05 -71.8 7.35 -77.0 46.45 L-88.45 69.8 Q-91.5 20.1 -72.95 -11.35 L-68.7 -24.35 -68.2 -25.85 Q-55.5 -63.95 -42.85 -92.2 L-10.85 -77.05" fill="#edccc2" fill-rule="evenodd" stroke="none"/>
    <path d="M61.0 92.25 Q95.05 34.25 83.75 -24.35 L83.0 -27.9 82.1 -24.35 Q80.6 -20.1 77.25 -16.7 M83.2 -32.45 L83.25 -31.0 83.0 -27.9 M-88.45 69.8 Q-91.5 20.1 -72.95 -11.35 L-68.7 -24.35 -68.2 -25.85 Q-55.5 -63.95 -42.85 -92.2" fill="none" stroke="#574a3a" stroke-linecap="round" stroke-linejoin="round" stroke-width="1.2000000000000002"/>
    <path d="M-2.55 17.35 L-2.45 17.4 -2.4 17.5 -2.4 17.6 -2.35 17.8 -1.8 18.8 -0.9 20.0 4.55 25.5 15.1 34.8 20.8 41.75 22.45 44.25 22.8 44.9 22.95 45.1 24.25 47.8 24.2 47.9 24.1 47.85 23.7 47.25 23.6 47.05 21.35 43.8 16.3 37.8 16.0 37.4 14.35 35.65 9.0 31.05 -0.35 21.6 -1.3 20.3 -2.15 18.95 -2.45 18.25 -2.6 17.85 -2.6 17.65 -2.65 17.55 -2.55 17.35 M76.85 -17.15 L77.7 -17.1 Q78.1 -16.6 77.65 -16.25 L77.25 -15.85 75.9 -14.75 74.55 -13.75 70.2 -11.15 70.1 -11.15 70.05 -11.1 70.0 -11.1 69.95 -11.05 68.25 -10.3 Q68.15 -10.2 68.15 -10.35 L68.2 -10.45 69.8 -11.4 69.9 -11.5 70.05 -11.5 73.2 -13.75 73.6 -14.1 74.05 -14.45 76.05 -16.3 76.85 -17.15" fill="#574a3a" fill-rule="evenodd" stroke="none"/>
  </g>
</svg>
