<?xml version="1.0" encoding="UTF-8" standalone="no"?>
<svg xmlns:xlink="http://www.w3.org/1999/xlink" height="126.9px" width="187.2px" xmlns="http://www.w3.org/2000/svg">
  <g transform="matrix(1.0, 0.0, 0.0, 1.0, 93.6, 60.9)">
    <path d="M91.85 30.2 L78.45 65.4 Q28.2 42.05 -24.35 22.1 -53.0 8.0 -82.75 -10.4 L-86.2 -12.85 Q-89.5 -27.6 -74.3 -41.35 -59.65 -54.6 -48.0 -60.3 -44.6 -56.1 -42.95 -52.5 -21.65 -36.6 1.6 -15.3 46.0 17.25 91.85 30.2" fill="#e5c6bb" fill-rule="evenodd" stroke="none"/>
    <path d="M-48.0 -60.3 Q-40.25 -52.6 -30.5 -46.9 -20.8 -41.2 -4.2 -24.65 L2.15 -20.8 Q7.75 -17.4 13.4 -14.15 53.15 9.0 93.0 27.1 L91.85 30.2 Q46.0 17.25 1.6 -15.3 -21.65 -36.6 -42.95 -52.5 -44.6 -56.1 -48.0 -60.3 M-86.2 -12.85 L-87.7 -14.15 Q-91.2 -17.35 -92.4 -20.8 -93.15 -23.0 -93.0 -25.3 -80.4 -41.65 -74.3 -41.35 -89.5 -27.6 -86.2 -12.85" fill="#edccc2" fill-rule="evenodd" stroke="none"/>
    <path d="M-48.0 -60.3 Q-40.25 -52.6 -30.5 -46.9 -20.8 -41.2 -4.2 -24.65 L2.15 -20.8 Q7.75 -17.4 13.4 -14.15 53.15 9.0 93.0 27.1 M78.45 65.4 Q28.2 42.05 -24.35 22.1 -53.0 8.0 -82.75 -10.4 L-86.2 -12.85 -87.7 -14.15 Q-91.2 -17.35 -92.4 -20.8 -93.15 -23.0 -93.0 -25.3" fill="none" stroke="#574a3a" stroke-linecap="round" stroke-linejoin="round" stroke-width="1.2000000000000002"/>
  </g>
</svg>
