<?xml version="1.0" encoding="UTF-8" standalone="no"?>
<svg xmlns:xlink="http://www.w3.org/1999/xlink" height="101.85px" width="113.75px" xmlns="http://www.w3.org/2000/svg">
  <g transform="matrix(1.0, 0.0, 0.0, 1.0, 51.9, 49.7)">
    <path d="M15.45 -46.05 L23.0 -49.7 19.65 -45.95 Q21.0 -41.9 13.9 -37.25 L16.1 -34.5 12.45 -34.7 Q9.7 -35.05 6.9 -36.05 -11.1 -30.1 -0.55 -23.2 -3.0 -24.4 -4.7 -25.75 -6.95 -27.55 -7.3 -29.2 -8.3 -33.35 2.4 -36.35 L4.9 -36.75 Q13.0 -38.4 17.05 -42.35 L17.05 -42.4 Q18.15 -45.3 15.45 -46.05 M48.3 -8.4 L61.85 -11.85 54.95 -6.35 Q55.9 -2.1 53.0 1.15 L54.15 4.7 48.4 0.25 Q52.1 -0.05 53.0 -2.05 54.15 -4.25 48.3 -8.4 M28.65 -2.95 Q17.1 -4.0 17.3 0.6 12.65 -1.15 10.2 -2.55 9.8 -5.2 12.05 -6.45 L28.65 -2.95 M49.55 13.85 L60.35 10.9 55.3 14.7 Q56.95 20.4 53.45 22.35 L55.55 27.85 47.35 21.75 Q54.0 21.85 53.0 17.35 52.05 15.65 49.55 13.85 M36.1 19.8 Q29.45 18.85 28.2 23.1 L8.35 13.5 5.85 12.25 5.8 12.25 Q3.3 10.75 6.85 10.9 L16.3 14.3 Q27.0 17.65 36.1 19.8 M37.7 27.65 L48.85 26.7 41.95 30.4 Q42.6 34.55 40.3 36.9 L41.95 41.55 34.15 35.1 35.25 35.2 Q43.2 35.15 37.8 27.7 L37.7 27.65 M12.1 28.6 Q2.95 26.8 2.25 30.2 -0.85 27.7 -2.4 25.55 -5.85 22.5 -6.3 21.2 -6.55 20.6 -6.1 20.4 L-2.9 20.65 12.1 28.6 M16.55 40.95 L20.5 40.65 Q23.35 40.75 26.45 41.6 L19.85 43.2 Q20.15 46.65 15.9 48.2 L17.1 52.15 Q15.7 50.95 13.85 48.75 L11.0 45.0 Q15.85 46.65 16.85 45.1 18.5 43.55 16.55 40.95 M8.6 44.05 L5.0 44.3 Q5.0 44.65 0.0 42.15 L-22.95 30.65 Q-36.05 24.1 -50.2 9.3 -38.35 19.1 -19.9 26.0 -9.8 34.0 1.0 40.25 L3.95 41.8 8.6 44.05" fill="#ba626d" fill-rule="evenodd" stroke="none"/>
    <path d="M-0.55 -23.2 Q5.65 -20.15 16.65 -17.8 L48.3 -8.4 Q54.15 -4.25 53.0 -2.05 52.1 -0.05 48.4 0.25 43.95 0.55 35.55 -1.5 L32.15 -2.2 Q22.95 -7.35 11.65 -9.25 3.6 -7.95 10.2 -2.55 12.65 -1.15 17.3 0.6 L27.65 4.2 Q43.3 9.35 49.55 13.85 52.05 15.65 53.0 17.35 54.0 21.85 47.35 21.75 L42.15 21.15 38.8 20.45 4.95 6.45 Q0.5 10.6 5.8 12.25 L5.85 12.25 8.35 13.5 28.2 23.1 37.7 27.65 37.8 27.7 Q43.2 35.15 35.25 35.2 L34.15 35.1 32.1 34.65 Q26.35 33.25 12.15 28.6 3.75 21.35 -5.2 16.25 -10.2 16.25 -6.1 20.4 -6.55 20.6 -6.3 21.2 -5.85 22.5 -2.4 25.55 -0.85 27.7 2.25 30.2 5.9 33.15 11.75 36.6 15.1 39.05 16.55 40.95 18.5 43.55 16.85 45.1 15.85 46.65 11.0 45.0 L9.25 44.35 8.6 44.05 3.95 41.8 1.0 40.25 Q-9.8 34.0 -19.9 26.0 -38.35 19.1 -50.2 9.3 L-51.3 8.35 -51.0 -28.2 Q-39.3 -28.45 -29.45 -33.65 2.2 -47.8 9.65 -42.15 9.7 -44.6 7.6 -45.65 L15.45 -46.05 Q18.15 -45.3 17.05 -42.4 L17.05 -42.35 7.25 -39.3 Q-2.6 -40.95 -13.3 -34.6 -8.85 -31.9 -7.3 -29.2 -6.95 -27.55 -4.7 -25.75 -3.0 -24.4 -0.55 -23.2 M46.85 14.9 Q44.15 17.25 44.85 20.5 44.15 17.25 46.85 14.9 M45.85 -1.8 Q44.2 -5.05 47.8 -7.05 44.2 -5.05 45.85 -1.8 M14.0 41.05 Q10.45 41.85 9.25 44.35 10.45 41.85 14.0 41.05 M35.45 28.7 Q31.35 30.85 32.1 34.65 31.35 30.85 35.45 28.7" fill="#e5c6bb" fill-rule="evenodd" stroke="none"/>
    <path d="M-51.0 -28.2 L-51.0 -32.65 Q-39.4 -31.95 -22.35 -39.2 L-16.75 -41.7 Q-16.05 -41.9 -15.45 -42.2 L-12.0 -43.15 Q0.85 -47.75 7.6 -45.65 9.7 -44.6 9.65 -42.15 2.2 -47.8 -29.45 -33.65 -39.3 -28.45 -51.0 -28.2" fill="#edccc2" fill-rule="evenodd" stroke="none"/>
    <path d="M32.15 -2.2 L28.65 -2.95 12.05 -6.45 Q9.8 -5.2 10.2 -2.55 3.6 -7.95 11.65 -9.25 22.95 -7.35 32.15 -2.2 M38.8 20.45 L36.1 19.8 Q27.0 17.65 16.3 14.3 L6.85 10.9 Q3.3 10.75 5.8 12.25 0.5 10.6 4.95 6.45 L38.8 20.45 M12.15 28.6 L12.1 28.6 -2.9 20.65 -6.1 20.4 Q-10.2 16.25 -5.2 16.25 3.75 21.35 12.15 28.6 M17.05 -42.35 Q13.0 -38.4 4.9 -36.75 L2.4 -36.35 Q-8.3 -33.35 -7.3 -29.2 -8.85 -31.9 -13.3 -34.6 -2.6 -40.95 7.25 -39.3 L17.05 -42.35" fill="#ccada3" fill-rule="evenodd" stroke="none"/>
    <path d="M-0.55 -23.2 Q5.65 -20.15 16.65 -17.8 L48.3 -8.4 Q54.15 -4.25 53.0 -2.05 52.1 -0.05 48.4 0.25 43.95 0.55 35.55 -1.5 L32.15 -2.2 28.65 -2.95 12.05 -6.45 Q9.8 -5.2 10.2 -2.55 12.65 -1.15 17.3 0.6 L27.65 4.2 Q43.3 9.35 49.55 13.85 52.05 15.65 53.0 17.35 54.0 21.85 47.35 21.75 L42.15 21.15 38.8 20.45 36.1 19.8 Q27.0 17.65 16.3 14.3 L6.85 10.9 Q3.3 10.75 5.8 12.25 M28.2 23.1 L37.7 27.65 37.8 27.7 Q43.2 35.15 35.25 35.2 L34.15 35.1 32.1 34.65 Q26.35 33.25 12.15 28.6 L12.1 28.6 -2.9 20.65 -6.1 20.4 M2.25 30.2 Q5.9 33.15 11.75 36.6 15.1 39.05 16.55 40.95 18.5 43.55 16.85 45.1 15.85 46.65 11.0 45.0 L9.25 44.35 8.6 44.05 3.95 41.8 1.0 40.25 Q-9.8 34.0 -19.9 26.0 -38.35 19.1 -50.2 9.3 L-51.3 8.35 M-51.0 -32.65 Q-39.4 -31.95 -22.35 -39.2 L-16.75 -41.7 Q-16.05 -41.9 -15.45 -42.2 L-12.0 -43.15 Q0.85 -47.75 7.6 -45.65 L15.45 -46.05 Q18.15 -45.3 17.05 -42.4 L17.05 -42.35 Q13.0 -38.4 4.9 -36.75 L2.4 -36.35 Q-8.3 -33.35 -7.3 -29.2 -6.95 -27.55 -4.7 -25.75 -3.0 -24.4 -0.55 -23.2 M5.85 12.25 L8.35 13.5 28.2 23.1 M-6.3 21.2 Q-5.85 22.5 -2.4 25.55 -0.85 27.7 2.25 30.2" fill="none" stroke="#574a3a" stroke-linecap="round" stroke-linejoin="round" stroke-width="1.2000000000000002"/>
    <path d="M47.8 -7.05 Q44.2 -5.05 45.85 -1.8 M44.85 20.5 Q44.15 17.25 46.85 14.9 M9.25 44.35 Q10.45 41.85 14.0 41.05 M32.1 34.65 Q31.35 30.85 35.45 28.7" fill="none" stroke="#574a3a" stroke-linecap="round" stroke-linejoin="round" stroke-width="0.8"/>
    <path d="M-38.7 -1.0 L-38.7 -1.15 -38.55 -1.15 -28.95 7.75 -28.55 8.05 -27.1 9.35 -26.7 9.65 -22.3 13.45 -22.1 13.6 -22.1 13.7 Q-22.1 13.9 -22.25 13.75 L-24.6 12.4 -27.75 10.2 -32.05 6.55 -35.5 3.0 -35.75 2.65 -37.05 1.15 -38.7 -1.0 M-33.85 -12.75 L-33.95 -12.8 -33.9 -12.9 -33.45 -13.0 -33.3 -13.05 -33.1 -13.05 -31.4 -13.35 -31.1 -13.35 -30.1 -13.5 -29.75 -13.5 -24.05 -13.7 -23.65 -13.65 -22.8 -13.65 -18.1 -13.05 -16.7 -12.7 -16.4 -12.6 -16.15 -12.55 -15.95 -12.45 -15.9 -12.35 Q-15.9 -12.2 -16.0 -12.3 L-16.75 -12.3 -17.65 -12.35 -32.2 -12.65 -33.1 -12.7 -33.65 -12.7 -33.85 -12.75 M-29.35 -33.55 L-29.5 -33.55 -29.5 -33.7 -23.35 -39.25 -22.7 -39.65 -22.6 -39.7 -22.55 -39.75 Q-22.05 -40.0 -21.75 -39.45 -21.5 -38.95 -22.05 -38.65 L-22.4 -38.5 -27.15 -35.35 -29.35 -33.55 M-13.35 -34.5 L-13.35 -34.6 -13.2 -34.65 -9.7 -32.5 -8.0 -31.0 -7.4 -30.35 -6.95 -29.8 -6.75 -29.45 -6.7 -29.4 Q-6.45 -28.9 -6.95 -28.6 -7.55 -28.3 -7.8 -28.85 L-7.8 -28.9 -8.25 -29.7 -9.15 -30.9 -11.0 -32.7 -13.35 -34.5 M33.75 35.55 L33.65 35.45 33.45 35.05 33.65 34.6 Q34.1 34.25 34.5 34.6 L38.1 38.2 38.1 38.3 37.95 38.35 33.75 35.55 M13.9 48.65 L13.9 48.8 13.75 48.8 10.5 45.35 10.5 45.3 10.4 45.2 10.35 44.75 10.65 44.4 Q11.15 44.15 11.45 44.6 L13.9 48.65 M16.5 41.55 Q15.85 41.55 15.85 40.95 15.85 40.35 16.4 40.35 L16.6 40.35 16.8 40.3 20.3 40.5 20.5 40.55 20.55 40.6 20.45 40.7 20.3 40.75 18.5 41.0 16.5 41.55 M41.5 27.25 L41.6 27.3 41.55 27.4 37.7 28.2 37.55 28.25 Q37.0 28.15 37.0 27.6 37.0 26.95 37.65 27.05 L41.5 27.25 M53.75 12.6 L53.85 12.65 53.8 12.75 49.55 14.45 Q48.95 14.55 48.85 13.95 48.75 13.35 49.35 13.25 L53.75 12.6 M46.9 22.15 Q46.45 21.75 46.8 21.3 L47.65 21.25 51.8 24.7 51.8 24.8 Q51.8 25.0 51.65 24.85 L46.9 22.15 M53.75 -9.85 L53.85 -9.8 53.8 -9.7 48.4 -7.8 48.3 -7.75 Q47.75 -7.65 47.65 -8.25 47.55 -8.85 48.15 -8.95 L53.75 -9.85 M48.0 0.7 L47.9 0.6 47.7 0.2 47.9 -0.2 Q48.35 -0.6 48.75 -0.2 L52.05 2.95 52.05 3.05 51.9 3.1 48.0 0.7 M12.45 -34.75 L12.5 -34.65 Q12.5 -34.5 12.4 -34.6 L12.05 -34.6 10.6 -34.75 8.85 -35.05 6.75 -35.6 6.6 -35.6 6.45 -35.65 4.65 -36.15 4.6 -36.2 Q4.05 -36.5 4.3 -37.0 4.6 -37.55 5.1 -37.3 L6.75 -36.6 6.9 -36.5 7.05 -36.45 7.35 -36.3 7.7 -36.2 8.0 -36.05 9.05 -35.7 9.35 -35.55 11.75 -34.9 12.1 -34.85 12.45 -34.75 M7.3 -45.1 L7.2 -45.15 Q6.75 -45.45 7.0 -46.0 7.4 -46.5 7.85 -46.15 L8.0 -46.05 8.1 -46.0 8.2 -45.9 8.6 -45.6 8.75 -45.45 9.25 -44.8 9.35 -44.6 9.5 -44.4 9.55 -44.2 9.65 -43.95 9.65 -43.85 9.7 -43.75 9.7 -43.65 9.75 -43.6 9.75 -43.35 9.8 -43.15 9.8 -42.3 9.75 -42.1 9.65 -42.0 9.5 -42.1 9.5 -42.15 9.45 -42.3 9.45 -42.5 9.4 -42.65 9.35 -42.75 9.2 -43.4 9.15 -43.45 9.05 -43.65 9.0 -43.7 8.95 -43.85 8.85 -44.0 8.7 -44.15 8.6 -44.3 8.1 -44.7 7.95 -44.8 7.45 -45.05 7.3 -45.1 M15.7 -45.5 L15.6 -45.45 Q15.1 -45.25 14.8 -45.8 14.6 -46.35 15.15 -46.55 L20.15 -48.4 20.25 -48.35 20.2 -48.25 15.7 -45.5" fill="#574a3a" fill-rule="evenodd" stroke="none"/>
  </g>
</svg>
