<?xml version="1.0" encoding="UTF-8" standalone="no"?>
<svg xmlns:xlink="http://www.w3.org/1999/xlink" height="218.85px" width="294.8px" xmlns="http://www.w3.org/2000/svg">
  <g transform="matrix(1.0, 0.0, 0.0, 1.0, 147.65, 108.65)">
    <path d="M6.95 -73.45 Q36.2 -48.9 57.05 -19.35 L111.2 46.7 Q136.25 77.3 146.55 109.6 L136.55 109.05 Q118.05 69.5 89.7 47.15 52.25 -8.75 1.05 -58.75 -23.7 -85.6 -29.85 -96.55 L-19.85 -93.7 Q-5.7 -84.05 6.95 -73.45" fill="#d8b8ad" fill-rule="evenodd" stroke="none"/>
    <path d="M136.55 109.05 L24.65 102.7 Q15.8 92.7 4.8 83.6 -2.65 77.35 -11.1 71.5 -18.5 66.4 -26.6 61.6 -48.85 48.45 -67.2 31.15 -82.15 11.6 -94.1 -11.55 -101.25 -41.85 -110.35 -48.4 -113.85 -52.7 -116.55 -57.25 -119.25 -61.85 -124.35 -67.9 -129.45 -74.0 -132.05 -80.55 -134.65 -87.15 -134.5 -99.75 L-136.35 -108.65 -29.85 -96.55 Q-23.7 -85.6 1.05 -58.75 52.25 -8.75 89.7 47.15 118.05 69.5 136.55 109.05 M-72.7 -59.3 Q-46.35 -2.65 -12.25 24.35 -40.25 -7.25 -70.65 -71.7 L-72.7 -59.3 M-17.55 34.9 Q-37.45 18.0 -57.4 -10.7 -37.45 18.0 -17.55 34.9" fill="#e5c6bb" fill-rule="evenodd" stroke="none"/>
    <path d="M-67.2 31.15 Q-81.2 17.9 -92.95 2.25 -97.75 -8.35 -104.3 -17.65 -109.8 -25.3 -116.45 -32.05 -122.1 -37.1 -126.7 -42.4 -147.15 -66.25 -147.0 -87.3 -147.0 -92.1 -145.9 -96.75 L-136.35 -108.65 -134.5 -99.75 Q-134.65 -87.15 -132.05 -80.55 -129.45 -74.0 -124.35 -67.9 -119.25 -61.85 -116.55 -57.25 -113.85 -52.7 -110.35 -48.4 -101.25 -41.85 -94.1 -11.55 -82.15 11.6 -67.2 31.15 M-72.7 -59.3 L-70.65 -71.7 Q-40.25 -7.25 -12.25 24.35 -46.35 -2.65 -72.7 -59.3" fill="#edccc2" fill-rule="evenodd" stroke="none"/>
    <path d="M6.95 -73.45 Q36.2 -48.9 57.05 -19.35 L111.2 46.7 Q136.25 77.3 146.55 109.6 M24.65 102.7 Q15.8 92.7 4.8 83.6 -2.65 77.35 -11.1 71.5 -18.5 66.4 -26.6 61.6 -48.85 48.45 -67.2 31.15 -81.2 17.9 -92.95 2.25 -97.75 -8.35 -104.3 -17.65 -109.8 -25.3 -116.45 -32.05 -122.1 -37.1 -126.7 -42.4 -147.15 -66.25 -147.0 -87.3 -147.0 -92.1 -145.9 -96.75 M-132.05 -80.55 Q-129.45 -74.0 -124.35 -67.9 -119.25 -61.85 -116.55 -57.25 M-57.4 -10.7 Q-37.45 18.0 -17.55 34.9" fill="none" stroke="#574a3a" stroke-linecap="round" stroke-linejoin="round" stroke-width="1.2000000000000002"/>
    <path d="M-17.9 35.35 L-17.95 35.3 Q-18.4 34.95 -18.0 34.45 L-17.15 34.4 -7.6 42.4 -7.6 42.55 -7.75 42.55 -8.7 41.95 -17.9 35.35 M-66.85 -24.8 L-66.85 -24.95 -66.7 -24.95 -61.95 -18.05 -57.05 -11.25 -57.0 -11.2 -56.9 -11.0 -56.85 -11.0 Q-56.6 -10.45 -57.05 -10.15 -57.55 -9.8 -57.85 -10.35 L-58.05 -10.65 -58.0 -10.6 -62.5 -17.65 -66.85 -24.8 M-117.05 -56.9 L-117.05 -56.95 Q-117.35 -57.4 -116.8 -57.8 L-116.35 -57.85 -116.0 -57.55 -115.4 -56.35 -110.85 -49.25 -110.25 -48.45 -110.25 -48.3 -110.4 -48.3 -111.5 -49.6 -117.05 -56.9 M-134.55 -99.75 L-134.5 -99.8 -134.4 -99.7 -133.9 -91.4 -133.9 -91.15 -133.85 -90.95 -133.7 -89.6 -133.2 -86.55 -132.1 -82.4 -131.45 -80.75 -131.45 -80.7 Q-131.25 -80.15 -131.8 -79.95 -132.4 -79.7 -132.6 -80.3 L-134.0 -85.95 -134.5 -91.1 -134.55 -91.35 -134.65 -97.95 -134.55 -99.75 M-19.9 -93.6 L-19.9 -93.75 -19.75 -93.75 -8.5 -86.0 7.3 -73.9 7.3 -73.85 Q7.8 -73.55 7.4 -73.05 6.95 -72.6 6.55 -72.95 L-0.45 -78.85 -19.9 -93.6" fill="#574a3a" fill-rule="evenodd" stroke="none"/>
  </g>
</svg>
