<?xml version="1.0" encoding="UTF-8" standalone="no"?>
<svg xmlns:xlink="http://www.w3.org/1999/xlink" height="107.55px" width="269.15px" xmlns="http://www.w3.org/2000/svg">
  <g transform="matrix(1.0, 0.0, 0.0, 1.0, 134.65, 47.25)">
    <path d="M9.3 -45.9 Q20.65 -44.95 31.4 -42.7 -38.05 -43.7 -92.75 -23.6 -87.55 -25.85 -83.4 -28.55 -58.3 -45.05 -16.35 -46.5 -3.15 -46.95 9.3 -45.9" fill="#fcdace" fill-rule="evenodd" stroke="none"/>
    <path d="M-92.75 -23.6 Q-38.05 -43.7 31.4 -42.7 46.2 -39.65 59.8 -34.2 22.7 -31.3 -20.1 -11.4 -62.85 8.45 -133.85 0.1 -135.45 -7.05 -133.85 -14.2 -108.45 -16.85 -92.75 -23.6" fill="#edccc2" fill-rule="evenodd" stroke="none"/>
    <path d="M59.8 -34.2 Q92.2 -9.2 122.35 -5.3 L123.15 -5.2 Q123.8 7.25 122.4 18.55 121.05 29.25 110.5 33.0 69.85 39.4 25.2 31.5 -53.3 24.25 -131.85 22.95 -134.2 12.3 -133.85 0.1 -62.85 8.45 -20.1 -11.4 22.7 -31.3 59.8 -34.2" fill="#e5c6bb" fill-rule="evenodd" stroke="none"/>
    <path d="M123.15 -5.2 L133.35 -4.6 Q139.35 46.35 79.3 46.65 39.35 46.35 -0.45 38.5 -67.55 31.3 -131.55 28.3 L-131.85 22.95 Q-53.3 24.25 25.2 31.5 69.85 39.4 110.5 33.0 121.05 29.25 122.4 18.55 123.8 7.25 123.15 -5.2" fill="#d8b8ad" fill-rule="evenodd" stroke="none"/>
    <path d="M9.3 -45.9 Q-3.15 -46.95 -16.35 -46.5 -58.3 -45.05 -83.4 -28.55 -87.55 -25.85 -92.75 -23.6 -108.45 -16.85 -133.85 -14.2 M133.35 -4.6 Q139.35 46.35 79.3 46.65 39.35 46.35 -0.45 38.5 -67.55 31.3 -131.55 28.3" fill="none" stroke="#574a3a" stroke-linecap="round" stroke-linejoin="round" stroke-width="1.2000000000000002"/>
    <path d="M122.3 18.5 L122.4 18.45 122.45 18.55 122.45 19.4 122.35 20.4 122.35 20.55 122.3 20.7 122.25 21.0 122.25 21.15 122.2 21.3 122.15 21.65 121.75 23.15 121.1 24.75 120.5 26.0 120.25 26.4 117.8 29.35 117.05 29.95 116.9 30.1 116.7 30.25 116.5 30.35 116.35 30.5 114.9 31.4 114.5 31.6 114.35 31.7 111.8 32.75 111.15 32.9 111.0 32.95 110.5 33.05 110.4 33.0 110.45 32.9 113.9 30.95 114.05 30.8 114.7 30.4 114.85 30.25 115.05 30.15 115.7 29.65 116.0 29.35 116.2 29.25 117.3 28.2 117.45 28.0 118.2 27.2 119.25 25.75 119.75 25.05 120.7 23.2 121.4 21.45 122.3 18.5 M59.8 -34.25 L59.85 -34.15 Q59.85 -34.0 59.75 -34.1 L53.75 -36.3 41.9 -39.85 25.5 -43.35 14.75 -44.8 9.2 -45.3 Q8.65 -45.3 8.65 -45.95 8.75 -46.55 9.35 -46.45 L12.75 -46.1 14.1 -45.95 25.65 -44.2 30.3 -43.3 48.5 -38.45 59.8 -34.25" fill="#574a3a" fill-rule="evenodd" stroke="none"/>
    <path d="M58.75 42.35 Q73.1 41.7 79.85 40.4 L100.05 36.05 Q108.75 34.05 116.6 44.8 120.85 50.65 124.85 60.2 109.25 46.45 68.5 49.95 72.45 53.95 75.85 59.05 L6.05 39.75 Q38.15 30.15 58.75 42.35 L64.05 45.95 58.75 42.35" fill="#7f1f1f" fill-rule="evenodd" stroke="none"/>
    <path d="M116.6 44.8 Q108.75 34.05 100.05 36.05 L79.85 40.4 Q73.1 41.7 58.75 42.35 L64.05 45.95 M58.75 42.35 Q38.15 30.15 6.05 39.75" fill="none" stroke="#373535" stroke-linecap="round" stroke-linejoin="round" stroke-width="1.7000000000000002"/>
    <path d="M75.9 58.95 L75.9 59.1 75.75 59.1 70.1 52.35 68.35 50.6 63.65 46.7 63.5 46.6 63.45 46.55 63.15 45.95 63.35 45.35 63.95 45.05 64.55 45.25 67.6 48.1 68.65 49.2 73.25 54.9 75.9 58.95 M124.9 60.15 L124.85 60.25 Q124.75 60.35 124.75 60.2 L122.95 56.55 119.9 51.05 116.6 46.15 115.9 45.25 115.85 45.2 Q115.4 44.5 116.1 44.05 116.8 43.55 117.25 44.3 L118.45 46.1 118.75 46.65 123.45 56.35 124.9 60.15" fill="#373535" fill-rule="evenodd" stroke="none"/>
  </g>
</svg>
