<?xml version="1.0" encoding="UTF-8" standalone="no"?>
<svg xmlns:xlink="http://www.w3.org/1999/xlink" height="103.25px" width="82.5px" xmlns="http://www.w3.org/2000/svg">
  <g transform="matrix(1.0, 0.0, 0.0, 1.0, 29.65, 53.25)">
    <path d="M48.8 -14.45 L47.6 -9.9 18.4 -9.9 Q8.65 18.4 15.0 27.35 22.05 33.2 0.95 29.05 -4.45 26.5 -9.7 22.75 L-14.7 19.8 Q-27.95 5.1 -21.35 -31.4 -16.15 -33.35 -9.55 -30.5 -2.6 -26.65 5.45 -24.45 29.4 -21.7 48.8 -14.45" fill="#e5c6bb" fill-rule="evenodd" stroke="none"/>
    <path d="M-29.05 -52.65 Q8.2 -32.2 49.65 -28.1 L52.25 -27.85 48.8 -14.45 Q29.4 -21.7 5.45 -24.45 -2.6 -26.65 -9.55 -30.5 -16.15 -33.35 -21.35 -31.4 -23.05 -37.15 -25.2 -42.85 L-29.05 -52.65" fill="#edccc2" fill-rule="evenodd" stroke="none"/>
    <path d="M47.6 -9.9 L33.05 45.7 28.9 44.4 Q11.1 39.55 -4.3 44.6 -10.25 46.5 -15.8 49.9 -14.7 43.2 -14.05 36.5 -13.2 26.85 -14.7 19.8 L-9.7 22.75 Q-4.45 26.5 0.95 29.05 22.05 33.2 15.0 27.35 8.65 18.4 18.4 -9.9 L47.6 -9.9" fill="#d8b8ad" fill-rule="evenodd" stroke="none"/>
    <path d="M-29.05 -52.65 Q8.2 -32.2 49.65 -28.1 L52.25 -27.85 M33.05 45.7 L28.9 44.4 Q11.1 39.55 -4.3 44.6" fill="none" stroke="#574a3a" stroke-linecap="round" stroke-linejoin="round" stroke-width="1.2000000000000002"/>
    <path d="M-4.45 44.0 L-4.4 44.0 -3.95 44.05 Q-3.75 44.2 -3.7 44.4 -3.5 45.0 -4.1 45.15 L-4.6 45.3 -4.9 45.35 -5.55 45.6 -9.5 46.95 -15.0 49.55 -15.7 49.95 -15.85 49.95 -15.85 49.8 -15.35 49.5 -15.15 49.35 -9.8 46.3 -6.35 44.75 -5.55 44.4 -4.45 44.0 M25.9 41.4 L25.9 41.3 Q25.9 41.1 26.05 41.25 L33.35 45.15 33.4 45.2 Q33.85 45.6 33.55 46.05 33.2 46.5 32.7 46.2 L25.9 41.4 M17.15 33.85 L17.2 33.95 17.1 34.0 16.4 34.0 16.15 33.95 15.85 33.95 15.2 33.85 14.8 33.85 9.15 32.75 7.9 32.4 3.75 30.95 3.45 30.8 1.85 30.1 1.65 30.05 1.5 29.95 -4.2 26.85 -5.65 25.9 -8.25 24.05 -9.75 22.8 -9.75 22.7 Q-9.75 22.5 -9.6 22.65 L-4.7 25.45 -4.25 25.75 Q-1.1 27.35 2.0 28.9 L4.2 29.85 5.75 30.45 6.1 30.55 6.4 30.7 13.2 32.85 17.15 33.85" fill="#574a3a" fill-rule="evenodd" stroke="none"/>
  </g>
</svg>
