<?xml version="1.0" encoding="UTF-8" standalone="no"?>
<svg xmlns:xlink="http://www.w3.org/1999/xlink" height="56.85px" width="92.45px" xmlns="http://www.w3.org/2000/svg">
  <g transform="matrix(1.0, 0.0, 0.0, 1.0, 89.5, 106.5)">
    <path d="M-59.7 -104.65 L-62.0 -105.2 Q-48.5 -107.15 -32.6 -103.65 L2.95 -68.2 Q-14.05 -67.75 -32.25 -70.6 -36.8 -75.55 -44.5 -72.9 -48.9 -69.65 -52.8 -67.05 L-47.95 -73.45 Q-52.7 -75.95 -60.0 -74.5 -62.45 -73.6 -64.3 -73.05 -66.55 -74.3 -65.0 -76.6 L-58.2 -82.75 Q-70.45 -83.3 -85.65 -79.45 L-69.3 -85.25 -63.1 -85.4 -78.75 -93.0 -78.95 -93.15 -80.45 -94.45 Q-66.75 -89.75 -53.7 -94.45 -49.1 -92.6 -46.15 -89.55 -40.3 -86.7 -31.7 -88.65 -46.9 -97.2 -62.6 -98.8 L-64.85 -99.9 -45.95 -98.9 Q-41.4 -101.05 -34.5 -100.15 -46.8 -105.05 -59.7 -104.65" fill="#755648" fill-rule="evenodd" stroke="none"/>
    <path d="M2.95 -68.2 Q-30.55 -43.35 -61.85 -51.8 L-85.75 -50.8 Q-74.4 -53.8 -67.1 -58.9 -76.1 -56.65 -81.5 -58.0 -74.0 -59.8 -63.0 -64.5 -74.75 -68.2 -88.9 -68.5 -78.85 -72.75 -69.6 -72.5 -75.8 -80.3 -88.4 -78.5 L-85.65 -79.45 Q-70.45 -83.3 -58.2 -82.75 L-65.0 -76.6 Q-66.55 -74.3 -64.3 -73.05 -62.45 -73.6 -60.0 -74.5 -52.7 -75.95 -47.95 -73.45 L-52.8 -67.05 Q-48.9 -69.65 -44.5 -72.9 -36.8 -75.55 -32.25 -70.6 -14.05 -67.75 2.95 -68.2 M-69.3 -85.25 L-78.75 -93.0 -63.1 -85.4 -69.3 -85.25 M-53.7 -94.45 L-62.6 -98.8 Q-46.9 -97.2 -31.7 -88.65 -40.3 -86.7 -46.15 -89.55 -49.1 -92.6 -53.7 -94.45 M-45.95 -98.9 Q-51.8 -102.65 -59.7 -104.65 -46.8 -105.05 -34.5 -100.15 -41.4 -101.05 -45.95 -98.9" fill="#704e43" fill-rule="evenodd" stroke="none"/>
    <path d="M-59.7 -104.65 L-62.0 -105.2 Q-48.5 -107.15 -32.6 -103.65 M-61.85 -51.8 L-85.75 -50.8 Q-74.4 -53.8 -67.1 -58.9 -76.1 -56.65 -81.5 -58.0 -74.0 -59.8 -63.0 -64.5 -74.75 -68.2 -88.9 -68.5 -78.85 -72.75 -69.6 -72.5 -75.8 -80.3 -88.4 -78.5 L-85.65 -79.45 -69.3 -85.25 -78.75 -93.0 M-78.95 -93.15 L-80.45 -94.45 Q-66.75 -89.75 -53.7 -94.45 L-62.6 -98.8 -64.85 -99.9 -45.95 -98.9 Q-51.8 -102.65 -59.7 -104.65 Z" fill="none" stroke="#574a3a" stroke-linecap="round" stroke-linejoin="round" stroke-width="1.2000000000000002"/>
    <path d="M-66.85 -58.35 L-66.85 -58.3 Q-67.4 -58.1 -67.65 -58.65 -67.85 -59.25 -67.3 -59.4 L-67.05 -59.55 -65.75 -60.1 -54.55 -66.25 -44.55 -72.95 -44.4 -72.95 -44.4 -72.8 -55.25 -65.0 -61.3 -61.2 -66.55 -58.45 -66.85 -58.35 M-69.75 -71.9 L-69.8 -71.9 -70.15 -72.2 -70.15 -72.65 Q-70.0 -73.2 -69.4 -73.05 L-69.3 -73.0 -69.2 -73.0 -68.85 -72.9 -68.65 -72.9 -68.35 -72.85 -67.35 -72.85 -64.75 -73.25 -60.0 -74.55 -59.9 -74.5 Q-59.8 -74.4 -59.95 -74.4 L-60.35 -74.2 -64.15 -72.7 -67.45 -71.85 -67.65 -71.85 -68.0 -71.8 -68.4 -71.8 -68.7 -71.75 -69.0 -71.8 -69.25 -71.8 -69.5 -71.85 -69.65 -71.85 -69.75 -71.9 M-53.9 -93.85 L-53.95 -93.9 Q-54.5 -94.2 -54.25 -94.7 -54.0 -95.2 -53.45 -95.0 L-50.85 -93.6 -48.1 -91.65 -46.3 -89.9 -46.05 -89.6 -46.05 -89.45 -46.2 -89.45 -46.8 -90.0 -47.8 -90.8 -48.25 -91.1 -48.45 -91.2 -48.75 -91.45 -49.65 -91.95 -49.85 -92.1 -51.95 -93.15 -53.1 -93.6 -53.35 -93.65 -53.55 -93.75 -53.9 -93.85" fill="#574a3a" fill-rule="evenodd" stroke="none"/>
  </g>
</svg>
