<?xml version="1.0" encoding="UTF-8" standalone="no"?>
<svg xmlns:xlink="http://www.w3.org/1999/xlink" height="87.5px" width="35.05px" xmlns="http://www.w3.org/2000/svg">
  <g transform="matrix(1.0, 0.0, 0.0, 1.0, 17.55, 43.5)">
    <path d="M-12.4 -22.05 Q-9.85 -33.6 -4.7 -43.4 12.25 -8.5 7.25 19.9 5.6 20.35 1.3 24.95 L-0.4 26.8 Q-2.25 31.55 -1.25 35.1 -3.9 35.0 -3.85 30.1 L-3.8 25.3 Q-15.4 23.4 -16.9 11.1 L-16.7 7.65 Q-15.0 -10.55 -12.4 -22.05" fill="#e5c6bb" fill-rule="evenodd" stroke="none"/>
    <path d="M-16.9 11.1 Q-15.4 23.4 -3.8 25.3 L-3.85 30.1 Q-3.9 35.0 -1.25 35.1 0.0 39.8 6.3 42.35 2.6 45.15 -1.7 40.55 -4.65 37.25 -8.0 30.25 L-9.65 28.55 Q-16.15 26.5 -16.9 16.05 L-16.9 11.1" fill="#d8b8ad" fill-rule="evenodd" stroke="none"/>
    <path d="M-1.25 35.1 Q-2.25 31.55 -0.4 26.8 L1.3 24.95 Q-2.95 35.65 7.95 42.3 L6.3 42.35 Q0.0 39.8 -1.25 35.1" fill="#ffffff" fill-rule="evenodd" stroke="none"/>
    <path d="M1.3 24.95 Q5.6 20.35 7.25 19.9 10.1 19.1 14.75 23.45 19.35 27.75 14.05 34.75 L7.95 42.3 Q-2.95 35.65 1.3 24.95" fill="url(#gradient0)" fill-rule="evenodd" stroke="none"/>
    <path d="M-12.4 -22.05 Q-15.0 -10.55 -16.7 7.65 L-16.9 11.1 -16.9 16.05 Q-16.15 26.5 -9.65 28.55 L-8.0 30.25 Q-4.65 37.25 -1.7 40.55 2.6 45.15 6.3 42.35 0.0 39.8 -1.25 35.1 -2.25 31.55 -0.4 26.8 L1.3 24.95 Q5.6 20.35 7.25 19.9 10.1 19.1 14.75 23.45 19.35 27.75 14.05 34.75 L7.95 42.3 6.3 42.35" fill="none" stroke="#574a3a" stroke-linecap="round" stroke-linejoin="round" stroke-width="1.2000000000000002"/>
    <path d="M-4.75 -43.4 L-4.65 -43.45 -4.6 -43.35 -6.45 -39.35 -7.15 -37.65 -7.3 -37.2 -7.4 -37.0 -11.5 -23.35 -11.8 -21.9 -11.8 -21.85 Q-12.0 -21.3 -12.55 -21.45 L-12.9 -21.7 -12.95 -22.15 -12.45 -24.2 -9.55 -33.1 -5.25 -42.55 -4.75 -43.4" fill="#574a3a" fill-rule="evenodd" stroke="none"/>
  </g>
  <defs>
    <radialGradient cx="0" cy="0" gradientTransform="matrix(0.0133, -0.0017, 0.0029, 0.0227, 10.05, 25.65)" gradientUnits="userSpaceOnUse" id="gradient0" r="819.2" spreadMethod="pad">
      <stop offset="0.21568627450980393" stop-color="#6b4545"/>
      <stop offset="0.5019607843137255" stop-color="#986262"/>
      <stop offset="0.6980392156862745" stop-color="#b87777"/>
    </radialGradient>
  </defs>
</svg>
