<?xml version="1.0" encoding="UTF-8" standalone="no"?>
<svg xmlns:xlink="http://www.w3.org/1999/xlink" height="225.95px" width="209.65px" xmlns="http://www.w3.org/2000/svg">
  <g transform="matrix(1.0, 0.0, 0.0, 1.0, 96.5, 104.25)">
    <path d="M-84.85 27.3 L-96.5 -35.0 -83.5 -39.35 Q-76.5 -44.45 -70.4 -45.5 -69.8 -48.75 -62.85 -55.3 -52.35 -63.9 -41.3 -66.55 -27.85 -67.7 -25.65 -56.2 L-34.0 -59.55 Q-38.5 -65.75 -51.6 -58.05 L-58.05 -52.9 Q-63.0 -49.25 -62.2 -47.5 -69.5 -35.5 -92.0 -23.4 -87.4 -18.1 -79.3 -16.85 -79.8 -12.2 -84.45 -8.6 -76.8 -2.25 -66.75 1.15 -68.5 4.5 -74.7 4.75 -64.5 19.35 -47.3 32.05 -51.3 36.95 -61.7 39.6 -58.25 45.65 -53.85 48.7 -55.2 53.1 -63.2 57.4 -54.65 66.65 -52.6 79.0 L-56.1 83.85 -62.2 68.6 Q-66.25 63.5 -71.65 65.9 -77.55 65.8 -79.3 59.65 -80.5 54.0 -82.0 48.8 -85.75 39.95 -85.35 36.25 L-84.85 29.3 -84.85 27.3" fill="#e5c6bb" fill-rule="evenodd" stroke="none"/>
    <path d="M-56.1 83.85 L-52.6 79.0 Q-54.65 66.65 -63.2 57.4 -55.2 53.1 -53.85 48.7 -58.25 45.65 -61.7 39.6 -51.3 36.95 -47.3 32.05 -64.5 19.35 -74.7 4.75 -68.5 4.5 -66.75 1.15 -76.8 -2.25 -84.45 -8.6 -79.8 -12.2 -79.3 -16.85 -87.4 -18.1 -92.0 -23.4 -69.5 -35.5 -62.2 -47.5 -63.0 -49.25 -58.05 -52.9 L-51.6 -58.05 Q-38.5 -65.75 -34.0 -59.55 L-25.65 -56.2 Q102.75 48.4 -5.7 69.5 -23.8 73.1 -45.15 82.45 -53.95 88.55 -56.1 83.85" fill="#d8b8ad" fill-rule="evenodd" stroke="none"/>
    <path d="M-84.85 27.3 L-84.85 29.3 -85.35 36.25 Q-85.75 39.95 -82.0 48.8 -80.5 54.0 -79.3 59.65 -77.55 65.8 -71.65 65.9 -66.25 63.5 -62.2 68.6 L-56.1 83.85 Q-53.95 88.55 -45.15 82.45 -23.8 73.1 -5.7 69.5 M-25.65 -56.2 Q-27.85 -67.7 -41.3 -66.55 -52.35 -63.9 -62.85 -55.3 -69.8 -48.75 -70.4 -45.5" fill="none" stroke="#574a3a" stroke-linecap="round" stroke-linejoin="round" stroke-width="1.2000000000000002"/>
    <path d="M-58.0 -52.95 L-57.95 -52.8 -58.0 -52.7 -58.4 -52.25 -58.5 -52.1 -58.7 -51.9 -59.25 -51.25 -60.9 -49.6 -61.0 -49.45 -61.4 -49.05 -61.45 -48.95 -61.55 -48.85 -61.7 -48.65 -61.75 -48.6 -61.75 -48.55 -61.9 -48.25 -62.0 -48.1 -62.0 -48.0 -62.05 -47.95 -62.05 -47.8 -62.1 -47.7 -62.1 -47.4 -62.25 -47.45 -62.45 -47.65 -62.45 -47.75 -62.55 -48.05 -62.55 -48.15 -62.6 -48.4 -62.55 -48.7 -62.5 -48.85 -62.5 -49.0 -62.05 -49.9 -61.95 -50.05 -61.9 -50.2 -61.65 -50.45 -61.2 -51.0 -60.7 -51.45 -60.55 -51.55 -60.4 -51.7 -59.65 -52.2 -59.4 -52.35 -59.15 -52.5 -58.3 -52.9 -58.25 -52.9 -58.15 -52.95 -58.0 -52.95 M-33.9 -59.6 L-33.9 -59.45 -34.05 -59.45 -34.65 -60.05 -35.4 -60.6 -35.5 -60.7 -36.1 -61.05 -36.4 -61.15 -36.55 -61.25 -37.7 -61.6 -39.25 -61.75 -39.65 -61.75 -40.9 -61.65 -44.3 -60.85 -48.1 -59.4 -48.45 -59.3 -49.05 -59.0 -49.35 -58.9 -50.75 -58.25 -51.1 -58.15 -51.3 -58.0 -51.5 -57.95 -51.65 -57.95 -51.65 -58.1 -49.1 -59.85 -48.8 -60.0 -48.5 -60.2 -48.15 -60.35 -47.1 -60.95 -44.65 -61.95 -44.45 -62.05 -44.2 -62.1 -43.8 -62.25 -43.35 -62.35 -43.1 -62.45 -42.85 -62.5 -41.0 -62.8 -39.2 -62.8 -37.45 -62.5 -36.35 -62.05 -35.1 -61.15 -35.0 -61.05 -34.35 -60.3 -33.9 -59.6 M-70.5 -46.05 L-70.45 -46.05 Q-69.85 -46.15 -69.75 -45.55 -69.65 -45.0 -70.25 -44.9 L-70.9 -44.8 -71.05 -44.75 -71.2 -44.75 -72.95 -44.35 -75.25 -43.6 -75.55 -43.45 -76.5 -43.1 -77.1 -42.8 -77.4 -42.7 -78.9 -41.95 -79.05 -41.85 -79.2 -41.8 -79.9 -41.4 -80.05 -41.35 Q-80.75 -40.9 -81.5 -40.5 L-81.9 -40.2 -82.3 -40.0 -83.4 -39.25 -83.55 -39.25 -83.55 -39.4 -82.1 -40.5 -81.05 -41.25 -80.15 -41.85 -80.0 -41.9 -79.75 -42.1 -79.45 -42.25 -79.35 -42.35 -78.0 -43.1 -77.7 -43.3 -76.2 -44.1 -75.9 -44.2 -74.95 -44.65 -73.0 -45.4 -72.75 -45.45 -72.25 -45.6 -72.05 -45.7 -71.25 -45.9 -71.1 -45.9 -70.5 -46.05" fill="#574a3a" fill-rule="evenodd" stroke="none"/>
    <path d="M-22.25 37.0 Q-18.4 35.25 -14.25 33.1 -6.55 29.05 -3.15 23.75 7.15 17.25 20.75 1.8 L6.0 12.95 2.75 15.0 Q20.45 -1.1 27.75 -15.0 19.1 -7.15 11.75 -2.65 L-15.8 5.65 -6.25 -0.95 -28.65 -3.4 -12.9 -14.15 Q-4.55 -15.3 -2.6 -17.85 -40.15 -33.8 -84.4 -25.15 -61.8 -35.95 -44.65 -41.75 -33.55 -45.6 -24.6 -47.35 -12.2 -50.6 8.1 -52.55 -10.95 -56.3 -34.75 -55.15 L-56.2 -51.55 Q-42.5 -60.95 -27.6 -60.0 L-25.55 -59.85 Q-22.55 -59.55 -19.8 -58.7 -12.25 -62.1 -8.95 -61.45 -20.2 -66.4 -23.15 -70.2 L-32.6 -103.65 Q106.95 -87.1 111.85 1.0 109.35 31.4 90.45 59.6 L90.2 39.9 Q69.3 78.75 48.55 83.9 L50.1 70.5 Q25.1 95.75 -39.0 99.65 -26.6 97.45 -14.25 91.15 -0.1 83.85 13.9 71.45 25.7 61.8 29.65 41.35 3.05 64.8 -15.95 67.8 L-46.45 77.4 Q-28.8 69.55 -13.1 58.0 2.95 49.2 9.45 38.4 20.7 26.6 20.6 18.6 -12.95 55.25 -55.15 54.2 -34.2 49.9 -22.25 37.0 M87.3 -45.0 Q81.1 -57.25 67.65 -61.8 80.4 -53.5 87.3 -45.0 M80.6 -3.3 Q76.3 27.4 60.5 42.65 84.55 23.65 80.6 -3.3 M-1.55 -14.35 Q-9.05 -14.3 -19.85 -5.45 L-1.55 -14.35 M-9.65 -81.5 L38.45 -74.6 Q18.8 -82.35 -9.65 -81.5 M-50.05 -35.5 Q-8.7 -44.45 22.2 -48.5 -11.35 -50.1 -50.05 -35.5 M-3.45 91.4 Q33.25 79.1 45.6 51.7 29.1 70.25 -3.45 91.4" fill="#755648" fill-rule="evenodd" stroke="none"/>
    <path d="M-84.4 -25.15 Q-40.15 -33.8 -2.6 -17.85 -4.55 -15.3 -12.9 -14.15 L-28.65 -3.4 -6.25 -0.95 -15.8 5.65 11.75 -2.65 Q19.1 -7.15 27.75 -15.0 20.45 -1.1 2.75 15.0 L6.0 12.95 20.75 1.8 Q7.15 17.25 -3.15 23.75 -6.55 29.05 -14.25 33.1 -18.4 35.25 -22.25 37.0 -34.5 42.75 -43.25 45.0 L-16.35 28.4 Q-34.6 29.8 -47.65 27.0 -31.85 26.0 -17.2 21.9 -35.3 20.0 -53.8 13.7 -48.2 13.65 -45.5 9.9 -53.4 10.0 -61.6 9.5 -53.15 9.4 -48.8 6.15 -55.4 1.95 -65.85 2.6 -63.55 1.35 -61.25 0.7 -68.2 -1.6 -72.75 -7.0 -64.4 -3.45 -58.85 -5.5 L-61.5 -6.85 Q-68.75 -11.95 -81.4 -12.85 -65.35 -16.7 -52.35 -17.1 -66.1 -22.9 -84.4 -25.15 M-55.15 54.2 Q-12.95 55.25 20.6 18.6 20.7 26.6 9.45 38.4 2.95 49.2 -13.1 58.0 -41.15 59.95 -58.5 54.8 L-58.0 54.7 -55.15 54.2 M-15.95 67.8 Q3.05 64.8 29.65 41.35 25.7 61.8 13.9 71.45 -0.1 83.85 -14.25 91.15 -32.15 90.15 -58.9 99.25 L-15.95 67.8 M-39.0 99.65 Q25.1 95.75 50.1 70.5 L48.55 83.9 Q69.3 78.75 90.2 39.9 L90.45 59.6 Q109.35 31.4 111.85 1.0 112.4 -6.0 112.1 -13.1 112.6 -5.8 112.55 1.45 112.2 35.85 99.75 69.85 89.35 93.05 69.3 100.0 84.85 90.2 90.9 77.75 55.75 104.25 19.25 106.95 5.3 110.1 -14.05 121.1 L1.25 106.3 Q-11.25 109.8 -18.8 108.65 -4.2 105.1 10.7 99.05 -17.85 102.3 -39.0 99.65 M-23.15 -70.2 Q-20.2 -66.4 -8.95 -61.45 -12.25 -62.1 -19.8 -58.7 L-19.8 -58.85 -23.15 -70.2 M-34.75 -55.15 Q-10.95 -56.3 8.1 -52.55 -12.2 -50.6 -24.6 -47.35 -33.55 -45.6 -44.65 -41.75 -53.2 -42.3 -65.75 -39.65 -58.75 -46.15 -34.75 -55.15 M80.6 -3.3 Q84.55 23.65 60.5 42.65 76.3 27.4 80.6 -3.3" fill="#704e43" fill-rule="evenodd" stroke="none"/>
    <path d="M111.85 1.0 Q106.95 -87.1 -32.6 -103.65 16.6 -103.2 57.8 -86.65 91.75 -67.55 106.55 -32.8 109.55 -25.8 111.75 -18.2 L112.1 -13.1 Q112.4 -6.0 111.85 1.0 M87.3 -45.0 Q80.4 -53.5 67.65 -61.8 81.1 -57.25 87.3 -45.0 M-1.55 -14.35 L-19.85 -5.45 Q-9.05 -14.3 -1.55 -14.35 M-50.05 -35.5 Q-11.35 -50.1 22.2 -48.5 -8.7 -44.45 -50.05 -35.5 M-9.65 -81.5 Q18.8 -82.35 38.45 -74.6 L-9.65 -81.5 M-3.45 91.4 Q29.1 70.25 45.6 51.7 33.25 79.1 -3.45 91.4" fill="#82634e" fill-rule="evenodd" stroke="none"/>
    <path d="M-22.25 37.0 Q-34.2 49.9 -55.15 54.2 L-58.0 54.7 M-13.1 58.0 Q-28.8 69.55 -46.45 77.4 L-15.95 67.8 -58.9 99.25 Q-32.15 90.15 -14.25 91.15 -26.6 97.45 -39.0 99.65 -17.85 102.3 10.7 99.05 -4.2 105.1 -18.8 108.65 -11.25 109.8 1.25 106.3 L-14.05 121.1 Q5.3 110.1 19.25 106.95 55.75 104.25 90.9 77.75 84.85 90.2 69.3 100.0 89.35 93.05 99.75 69.85 112.2 35.85 112.55 1.45 112.6 -5.8 112.1 -13.1 L111.75 -18.2 Q109.55 -25.8 106.55 -32.8 91.75 -67.55 57.8 -86.65 16.6 -103.2 -32.6 -103.65 M-56.2 -51.55 L-34.75 -55.15 Q-58.75 -46.15 -65.75 -39.65 -53.2 -42.3 -44.65 -41.75 -61.8 -35.95 -84.4 -25.15 -66.1 -22.9 -52.35 -17.1 -65.35 -16.7 -81.4 -12.85 -68.75 -11.95 -61.5 -6.85 L-58.85 -5.5 Q-64.4 -3.45 -72.75 -7.0 -68.2 -1.6 -61.25 0.7 -63.55 1.35 -65.85 2.6 -55.4 1.95 -48.8 6.15 -53.15 9.4 -61.6 9.5 -53.4 10.0 -45.5 9.9 -48.2 13.65 -53.8 13.7 -35.3 20.0 -17.2 21.9 -31.85 26.0 -47.65 27.0 -34.6 29.8 -16.35 28.4 L-43.25 45.0 Q-34.5 42.75 -22.25 37.0 M-58.5 54.8 Q-41.15 59.95 -13.1 58.0" fill="none" stroke="#574a3a" stroke-linecap="round" stroke-linejoin="round" stroke-width="1.2000000000000002"/>
    <path d="M-58.0 54.7 L-58.5 54.8" fill="none" stroke="#47373a" stroke-linecap="round" stroke-linejoin="round" stroke-width="0.05"/>
    <path d="M1.4 106.85 L1.35 106.85 Q0.85 107.0 0.65 106.45 0.5 105.9 1.05 105.7 L11.85 102.4 19.05 99.7 19.55 99.55 41.15 90.1 41.25 90.15 41.2 90.25 14.35 102.45 10.9 103.7 7.85 104.8 1.4 106.85 M32.25 88.85 L32.35 88.9 32.3 89.0 10.9 99.6 Q10.3 99.8 10.1 99.25 9.9 98.7 10.45 98.45 L32.25 88.85 M93.7 69.8 Q93.7 69.65 93.8 69.75 L93.85 69.85 91.9 76.75 91.4 78.0 91.4 78.05 Q91.15 78.6 90.55 78.3 L90.3 77.95 Q90.2 77.65 90.35 77.45 L91.1 76.05 93.45 70.55 93.55 70.15 93.7 69.8 M-13.95 91.65 Q-14.5 91.9 -14.75 91.4 -15.0 90.85 -14.5 90.6 L-9.25 87.8 4.1 79.1 13.8 71.35 13.95 71.35 13.95 71.5 4.45 79.55 -1.3 83.85 -1.65 84.05 -1.95 84.3 -13.95 91.65 M9.35 38.3 L9.5 38.3 9.5 38.45 8.85 39.55 8.65 39.8 7.5 41.55 1.75 48.0 0.75 48.95 -0.3 49.9 -9.15 56.35 -12.8 58.5 Q-13.35 58.75 -13.6 58.25 -13.85 57.7 -13.35 57.45 L-10.95 56.1 -10.15 55.65 -7.3 54.0 -6.25 53.3 1.35 47.55 7.5 41.0 7.75 40.6 8.45 39.7 9.35 38.3 M-22.0 37.5 L-22.05 37.55 Q-22.6 37.75 -22.8 37.2 -23.1 36.65 -22.45 36.45 L-14.25 33.0 Q-14.15 32.9 -14.15 33.05 L-14.2 33.15 -21.65 37.35 -22.0 37.5 M-17.1 22.45 L-17.15 22.45 Q-17.7 22.55 -17.8 21.9 -17.8 21.3 -17.25 21.3 L-16.15 21.2 -16.0 21.2 -15.9 21.15 -15.6 21.15 -9.5 20.0 -5.15 18.55 -3.0 17.65 -2.45 17.45 -0.95 16.75 5.7 13.0 5.9 12.85 Q6.05 12.7 6.05 12.85 L6.05 13.0 -0.7 17.2 -0.95 17.3 -9.25 20.85 -15.75 22.3 -15.9 22.35 -16.05 22.35 -17.1 22.45 M-45.6 10.45 Q-46.2 10.35 -46.05 9.75 -45.95 9.15 -45.35 9.3 L-41.0 10.05 -37.4 10.45 -37.1 10.45 -36.75 10.5 -31.4 10.65 -31.0 10.6 -29.15 10.55 -28.05 10.45 -27.65 10.45 -23.7 9.95 -23.5 9.95 -23.35 9.9 -21.05 9.5 -15.85 8.2 -15.75 8.2 -15.7 8.15 -13.85 7.6 Q-13.75 7.5 -13.75 7.65 L-13.8 7.75 -15.6 8.4 -15.7 8.45 -15.8 8.45 -21.25 10.0 -23.25 10.4 -23.45 10.45 -23.6 10.45 -27.2 11.05 -27.6 11.05 -28.7 11.2 -29.1 11.2 -29.3 11.25 -29.5 11.25 -31.35 11.4 -41.15 11.1 -41.4 11.05 -41.65 11.05 -45.6 10.45 M-51.05 0.65 L-51.0 0.75 -51.1 0.8 -53.45 0.45 -53.65 0.4 -53.85 0.4 -54.3 0.35 -58.0 0.55 -59.2 0.75 -59.55 0.85 -59.9 0.9 -60.2 1.0 -60.45 1.05 -60.65 1.15 -61.05 1.25 -61.15 1.25 -61.6 1.2 -61.85 0.8 Q-61.95 0.2 -61.4 0.1 L-60.95 0.0 -60.7 0.0 -58.95 -0.25 -56.15 -0.3 -54.25 -0.1 -53.8 0.0 -53.35 0.0 -52.6 0.2 -52.25 0.25 -51.7 0.45 -51.45 0.5 -51.05 0.65 M-59.05 -4.9 L-59.1 -4.95 Q-59.6 -5.1 -59.4 -5.7 -59.15 -6.25 -58.6 -6.05 L-58.25 -5.85 -57.8 -5.7 -57.55 -5.55 -49.15 -2.8 -43.1 -1.45 -42.35 -1.25 -25.45 1.35 -25.4 1.45 -25.5 1.5 -38.5 0.0 -49.35 -1.95 -49.75 -2.0 -53.4 -2.95 -53.95 -3.15 -57.7 -4.35 -58.0 -4.5 -58.3 -4.6 -58.7 -4.8 -59.05 -4.9 M-26.2 -13.5 L-26.15 -13.4 Q-26.15 -13.25 -26.25 -13.35 L-31.65 -14.95 -38.5 -16.15 -43.35 -16.55 -52.3 -16.5 -52.3 -16.45 -52.35 -16.45 Q-52.55 -16.45 -52.75 -16.65 L-52.95 -17.05 Q-52.95 -17.65 -52.35 -17.65 L-49.9 -17.7 -49.05 -17.65 -48.2 -17.65 -47.2 -17.6 -39.65 -17.0 -34.8 -16.15 -33.65 -15.9 -33.4 -15.8 -33.1 -15.75 -27.5 -14.05 -26.2 -13.5 M-24.6 -47.4 L-24.5 -47.35 Q-24.4 -47.25 -24.55 -47.25 L-44.45 -41.15 Q-45.05 -41.0 -45.2 -41.55 -45.4 -42.15 -44.8 -42.3 L-38.05 -44.35 -24.6 -47.4 M-19.75 -58.9 L-19.7 -58.8 Q-19.7 -58.65 -19.8 -58.75 L-23.25 -59.45 -27.45 -59.75 -27.6 -59.75 -27.8 -59.8 -28.55 -59.8 -31.8 -59.8 -35.2 -59.45 -38.7 -58.85 -42.1 -57.95 -45.35 -56.8 -53.35 -52.7 -53.75 -52.4 -54.15 -52.2 -55.5 -51.25 -55.85 -51.05 -55.85 -51.0 Q-56.4 -50.75 -56.7 -51.2 -57.0 -51.75 -56.5 -52.0 L-48.7 -56.4 -45.65 -57.6 -42.35 -58.7 -38.85 -59.55 -35.25 -60.05 -31.8 -60.3 -27.55 -60.2 -27.5 -60.15 -27.05 -60.15 -21.35 -59.35 -20.15 -59.05 -19.75 -58.9" fill="#574a3a" fill-rule="evenodd" stroke="none"/>
  </g>
</svg>
