<?xml version="1.0" encoding="UTF-8" standalone="no"?>
<svg xmlns:xlink="http://www.w3.org/1999/xlink" height="965.9px" width="1349.0px" xmlns="http://www.w3.org/2000/svg">
  <g transform="matrix(1.0, 0.0, 0.0, 1.0, 321.6, 314.5)">
    <path d="M1022.4 -259.2 L640.0 32.0 720.0 32.0 369.6 264.0 451.2 264.0 132.8 486.4 195.2 486.4 8.0 646.4 -321.6 646.4 -321.6 -259.2 1022.4 -259.2" fill="url(#gradient0)" fill-rule="evenodd" stroke="none"/>
    <path d="M8.0 646.4 L195.2 486.4 132.8 486.4 451.2 264.0 369.6 264.0 720.0 32.0 640.0 32.0 1022.4 -259.2" fill="none" stroke="#000000" stroke-linecap="round" stroke-linejoin="round" stroke-width="10.0"/>
    <path d="M-206.95 464.3 Q-300.55 399.7 -321.6 292.3 214.2 42.85 430.8 -313.3 534.4 -324.2 551.05 -234.45 321.6 218.35 -206.95 464.3" fill="url(#gradient1)" fill-rule="evenodd" stroke="none"/>
    <path d="M-206.95 464.3 Q321.6 218.35 551.05 -234.45 534.4 -324.2 430.8 -313.3 214.2 42.85 -321.6 292.3 -300.55 399.7 -206.95 464.3 Z" fill="none" stroke="#000000" stroke-linecap="round" stroke-linejoin="round" stroke-width="0.05"/>
  </g>
  <defs>
    <linearGradient gradientTransform="matrix(0.3075, 0.4335, -0.4501, 0.3193, 353.15, 22.65)" gradientUnits="userSpaceOnUse" id="gradient0" spreadMethod="pad" x1="-819.2" x2="819.2">
      <stop offset="0.0" stop-color="#2a1b1b"/>
      <stop offset="0.5686274509803921" stop-color="#4a3030"/>
      <stop offset="1.0" stop-color="#231616"/>
    </linearGradient>
    <radialGradient cx="0" cy="0" gradientTransform="matrix(0.1901, 0.2047, -0.8354, 0.7759, 99.3, -21.0)" gradientUnits="userSpaceOnUse" id="gradient1" r="819.2" spreadMethod="pad">
      <stop offset="0.3058823529411765" stop-color="#b25e5e"/>
      <stop offset="0.6196078431372549" stop-color="#854646"/>
      <stop offset="0.9882352941176471" stop-color="#b25e5e"/>
    </radialGradient>
  </defs>
</svg>
