<?xml version="1.0" encoding="UTF-8" standalone="no"?>
<svg xmlns:xlink="http://www.w3.org/1999/xlink" height="285.4px" width="67.55px" xmlns="http://www.w3.org/2000/svg">
  <g transform="matrix(1.0, 0.0, 0.0, 1.0, 34.15, 142.45)">
    <path d="M-32.75 68.9 Q-29.95 67.55 -21.75 58.95 -13.3 50.0 -7.85 42.45 L2.45 50.45 3.55 51.35 Q1.9 52.5 0.45 62.2 L-1.6 79.5 -4.05 101.9 Q-6.0 119.0 -7.8 132.55 L-7.5 135.0 -8.3 135.25 Q-9.55 129.9 -16.65 110.35 L-19.75 101.9 Q-26.2 84.6 -32.75 68.9 M-6.45 142.1 L-6.0 142.35 -6.4 142.35 -6.45 142.1" fill="#1e7fae" fill-rule="evenodd" stroke="none"/>
    <path d="M3.55 51.35 L3.9 51.6 32.7 74.4 Q26.5 87.85 18.4 101.85 L18.4 101.9 -6.0 142.35 -6.45 142.1 Q-8.2 135.4 -8.3 135.25 L-7.5 135.0 -7.8 132.55 Q-6.0 119.0 -4.05 101.9 L-1.6 79.5 0.45 62.2 Q1.9 52.5 3.55 51.35" fill="#2e6088" fill-rule="evenodd" stroke="none"/>
    <path d="M0.55 -141.05 L0.9 -141.05 12.45 -87.8 Q6.9 -86.75 6.75 -87.25 L6.1 -87.7 Q5.4 -87.1 4.65 -84.65 3.8 -82.0 3.8 -79.65 L4.65 -66.8 5.7 -54.75 5.9 -39.55 5.9 -35.3 Q5.85 -9.75 5.2 11.65 4.3 42.05 2.45 50.45 L-7.85 42.45 Q-13.3 50.0 -21.75 58.95 -29.95 67.55 -32.75 68.9 -25.05 56.9 -16.0 -1.95 -7.35 -58.3 -7.35 -88.55 -7.35 -91.0 -10.2 -133.0 L-10.85 -141.85 0.55 -141.05" fill="#51b6e7" fill-rule="evenodd" stroke="none"/>
    <path d="M0.55 -141.05 L-10.85 -141.85 -10.2 -133.0 Q-10.4 -134.6 -11.0 -136.15 -11.35 -137.15 -11.35 -140.4 -11.35 -141.65 -10.6 -142.05 L-9.1 -142.3 -2.9 -141.8 0.55 -141.05 M2.45 50.45 Q4.3 42.05 5.2 11.65 5.85 -9.75 5.9 -35.3 L5.9 -39.55 5.7 -54.75 4.65 -66.8 3.8 -79.65 Q3.8 -82.0 4.65 -84.65 5.4 -87.1 6.1 -87.7 L6.75 -87.25 Q6.9 -86.75 12.45 -87.8 21.75 -37.1 26.7 4.4 30.7 38.05 32.7 74.4 L3.9 51.6 3.55 51.35 2.45 50.45" fill="#4392b9" fill-rule="evenodd" stroke="none"/>
    <path d="M-10.85 -141.85 L-10.2 -133.0 Q-7.35 -91.0 -7.35 -88.55 -7.35 -58.3 -16.0 -1.95 -25.05 56.9 -32.75 68.9 -29.95 67.55 -21.75 58.95 -13.3 50.0 -7.85 42.45 L2.45 50.45 3.55 51.35 M12.45 -87.8 L0.9 -141.05 M3.9 51.6 L32.7 74.4 Q30.7 38.05 26.7 4.4 21.75 -37.1 12.45 -87.8 M18.4 101.85 Q26.5 87.85 32.7 74.4 M-32.75 68.9 Q-26.2 84.6 -19.75 101.9 L-16.65 110.35 Q-9.55 129.9 -8.3 135.25 -8.2 135.4 -6.45 142.1 L-6.4 142.35 -6.0 142.35 18.4 101.9" fill="none" stroke="#4a4f58" stroke-linecap="round" stroke-linejoin="miter-clip" stroke-miterlimit="3.0" stroke-width="1.2000000000000002"/>
  </g>
</svg>
