<?xml version="1.0" encoding="UTF-8" standalone="no"?>
<svg xmlns:xlink="http://www.w3.org/1999/xlink" height="152.25px" width="666.25px" xmlns="http://www.w3.org/2000/svg">
  <g transform="matrix(1.0, 0.0, 0.0, 1.0, 330.35, 62.25)">
    <path d="M186.0 -46.05 L186.65 -49.5 187.25 -51.0 187.8 -52.35 Q196.35 -67.85 226.85 -56.3 221.5 -47.35 219.45 -38.25 L218.6 -32.45 Q217.7 -23.55 220.9 -14.7 221.4 -11.95 222.9 -9.35 228.5 3.5 242.45 16.35 245.9 18.85 249.45 20.6 267.8 29.35 290.1 27.2 307.9 25.3 328.5 15.95 330.1 14.75 332.45 13.9 329.6 22.85 322.95 29.8 305.85 47.7 264.35 48.55 219.4 43.9 199.0 0.65 195.8 -5.9 193.35 -12.9 188.45 -27.75 186.0 -46.05" fill="#b88787" fill-rule="evenodd" stroke="none"/>
    <path d="M264.35 48.55 Q255.9 59.4 239.8 59.8 226.25 69.45 207.9 63.6 -8.6 96.55 -114.15 86.75 L-126.5 85.5 -177.0 81.75 -185.1 81.3 Q-227.95 78.45 -246.25 73.1 -264.5 67.7 -304.25 52.0 L-304.55 52.05 -311.45 40.95 -310.8 41.5 Q-328.7 9.7 -327.35 -9.35 -326.9 -16.2 -323.85 -21.3 -321.5 23.25 -71.75 19.45 42.65 25.75 155.15 13.4 175.75 20.75 185.7 11.05 192.7 24.1 203.2 29.1 192.05 22.25 183.35 1.35 174.55 -19.35 175.2 -32.95 L174.25 -32.45 176.3 -46.2 186.0 -46.05 Q188.45 -27.75 193.35 -12.9 195.8 -5.9 199.0 0.65 219.4 43.9 264.35 48.55 M84.15 45.2 Q32.9 50.45 6.9 50.85 L3.15 50.8 -18.0 50.95 -43.75 50.9 Q-63.55 50.45 -85.5 54.55 L-76.15 54.15 -72.0 53.6 Q-68.95 52.9 30.25 51.25 L59.9 48.95 Q71.45 48.25 84.15 45.2" fill="#d8b8ad" fill-rule="evenodd" stroke="none"/>
    <path d="M-311.45 40.95 L-316.3 35.0 Q-321.15 28.9 -322.15 26.2 -324.3 22.45 -325.95 18.45 L-325.95 18.15 Q-328.5 10.85 -329.75 4.35 -330.55 -0.95 -330.25 -5.7 -329.7 -13.2 -326.9 -18.0 -325.6 -20.3 -323.8 -21.9 L-323.85 -21.3 Q-326.9 -16.2 -327.35 -9.35 -328.7 9.7 -310.8 41.5 L-311.45 40.95 M185.7 11.05 Q182.85 5.65 180.45 -1.35 173.8 -20.15 174.25 -32.45 L175.2 -32.95 Q174.55 -19.35 183.35 1.35 192.05 22.25 203.2 29.1 192.7 24.1 185.7 11.05 M84.15 45.2 Q71.45 48.25 59.9 48.95 L30.25 51.25 Q-68.95 52.9 -72.0 53.6 L-76.15 54.15 -85.5 54.55 Q-63.55 50.45 -43.75 50.9 L-18.0 50.95 3.15 50.8 6.9 50.85 Q32.9 50.45 84.15 45.2" fill="#574a3a" fill-rule="evenodd" stroke="none"/>
    <path d="M-326.9 -18.0 Q-322.15 -37.55 -311.65 -44.45 L-311.35 -44.7 -245.35 -57.55 Q-240.7 -52.55 -201.65 -50.75 -167.05 -49.5 -97.6 -48.45 L-91.9 -48.65 -89.5 -48.35 -76.1 -48.5 -58.6 -48.25 161.25 -46.3 176.3 -46.2 174.25 -32.45 Q173.8 -20.15 180.45 -1.35 182.85 5.65 185.7 11.05 175.75 20.75 155.15 13.4 42.65 25.75 -71.75 19.45 -321.5 23.25 -323.85 -21.3 L-323.8 -21.9 Q-325.6 -20.3 -326.9 -18.0" fill="#e5c6bb" fill-rule="evenodd" stroke="none"/>
    <path d="M226.85 -56.3 Q285.7 -59.3 312.25 -46.4 330.15 -37.95 333.4 -23.15 334.6 -18.1 334.2 -11.5 334.3 -8.65 334.85 -5.75 335.2 5.0 332.45 13.9 330.1 14.75 328.5 15.95 307.9 25.3 290.1 27.2 267.8 29.35 249.45 20.6 245.9 18.85 242.45 16.35 228.5 3.5 222.9 -9.35 221.4 -11.95 220.9 -14.7 217.7 -23.55 218.6 -32.45 L219.45 -38.25 Q221.5 -47.35 226.85 -56.3" fill="#b87777" fill-rule="evenodd" stroke="none"/>
    <path d="M-97.6 -48.45 L-91.1 -49.3 -91.9 -48.65 -97.6 -48.45 M-90.45 -49.25 Q-69.85 -51.2 -59.55 -48.35 L-58.6 -48.25 -76.1 -48.5 -89.5 -48.35 -89.95 -49.2 -90.45 -49.25" fill="url(#gradient0)" fill-rule="evenodd" stroke="none"/>
    <path d="M-91.1 -49.3 L-90.85 -49.5 -90.45 -49.25 -89.95 -49.2 -89.5 -48.35 -91.9 -48.65 -91.1 -49.3" fill="#ffffff" fill-rule="evenodd" stroke="none"/>
    <path d="M186.0 -46.05 L186.65 -49.5 187.25 -51.0 187.8 -52.35 Q196.35 -67.85 226.85 -56.3 285.7 -59.3 312.25 -46.4 330.15 -37.95 333.4 -23.15 334.6 -18.1 334.2 -11.5 334.3 -8.65 334.85 -5.75 335.2 5.0 332.45 13.9 329.6 22.85 322.95 29.8 305.85 47.7 264.35 48.55 255.9 59.4 239.8 59.8 226.25 69.45 207.9 63.6 -8.6 96.55 -114.15 86.75 L-126.5 85.5 M-201.65 -50.75 Q-167.05 -49.5 -97.6 -48.45 L-91.9 -48.65 -89.5 -48.35 -76.1 -48.5 -58.6 -48.25 161.25 -46.3 176.3 -46.2 186.0 -46.05 Q188.45 -27.75 193.35 -12.9 195.8 -5.9 199.0 0.65 219.4 43.9 264.35 48.55" fill="none" stroke="#574a3a" stroke-linecap="round" stroke-linejoin="round" stroke-width="2.0"/>
    <path d="M239.75 58.8 L239.75 58.75 239.8 58.75 Q240.2 58.75 240.5 59.05 L240.8 59.75 Q240.8 60.75 239.8 60.75 L238.85 60.8 238.1 60.8 237.75 60.75 234.85 60.6 234.35 60.6 232.15 60.35 226.95 59.5 220.85 58.05 214.25 55.95 207.3 53.35 196.8 48.65 181.9 40.8 181.55 40.55 164.65 30.25 164.65 30.1 164.8 30.1 190.45 44.5 193.8 46.15 207.75 52.15 214.7 54.6 221.25 56.5 227.25 57.8 232.35 58.5 232.9 58.6 233.45 58.6 234.5 58.7 234.75 58.7 235.0 58.75 239.75 58.8 M-126.35 84.5 Q-125.95 84.55 -125.65 84.85 -125.4 85.2 -125.45 85.6 -125.5 86.0 -125.8 86.25 L-126.55 86.45 -177.0 81.8 -177.05 81.7 -176.95 81.65 -172.3 81.85 -169.05 82.0 -160.95 82.4 -156.4 82.65 -151.65 82.9 -146.95 83.15 -142.4 83.45 -138.1 83.7 -126.35 84.5 M-245.4 -57.45 L-245.4 -57.6 -245.25 -57.6 -244.9 -57.25 -244.4 -56.9 -242.8 -56.1 -235.65 -54.25 -231.95 -53.7 -223.85 -52.85 -208.55 -51.95 -201.6 -51.7 -201.55 -51.7 Q-201.15 -51.7 -200.85 -51.4 -200.55 -51.05 -200.6 -50.65 -200.65 -50.25 -200.95 -49.95 -201.25 -49.7 -201.65 -49.75 L-208.65 -50.25 -223.95 -51.75 -232.1 -52.95 -240.55 -54.9 -242.95 -55.8 -244.7 -56.8 -244.8 -56.9 -245.05 -57.1 -245.4 -57.45" fill="#574a3a" fill-rule="evenodd" stroke="none"/>
    <path d="M52.6 -7.45 Q54.45 -20.1 50.15 -31.0 60.7 -30.85 63.3 -20.15 66.55 -8.9 52.6 -7.45 M42.8 -9.1 Q24.25 -9.95 11.55 -15.7 L-7.45 1.0 Q-15.15 -5.5 -8.55 -11.1 -30.95 -9.15 -36.15 0.5 L-43.45 -11.85 Q-43.05 -6.5 -48.05 -0.85 -56.0 -3.8 -55.95 -11.3 -83.4 -9.65 -95.55 -17.1 L-55.3 -24.45 Q-55.8 -20.4 -48.55 -17.4 -53.05 -24.3 -46.45 -26.7 L-14.05 -21.4 9.25 -31.5 Q27.8 -33.65 41.7 -29.95 50.85 -19.95 42.8 -9.1 M115.4 -39.2 Q127.45 -33.95 126.35 -22.4 125.5 -9.05 115.65 -6.1 120.2 -22.75 115.4 -39.2 M103.9 -18.9 Q100.55 -25.4 103.25 -30.3 111.35 -29.15 109.85 -18.95 L103.9 -18.9 M-109.15 -10.65 Q-102.85 -19.2 -111.2 -26.7 -103.95 -27.7 -101.1 -19.6 -101.25 -10.9 -109.15 -10.65" fill="#f4e8e2" fill-rule="evenodd" stroke="none"/>
  </g>
  <defs>
    <linearGradient gradientTransform="matrix(-0.2992, 0.0308, 0.0079, 0.0585, 91.4, -24.8)" gradientUnits="userSpaceOnUse" id="gradient0" spreadMethod="pad" x1="-819.2" x2="819.2">
      <stop offset="0.0" stop-color="#cccccc" stop-opacity="0.4509804"/>
      <stop offset="1.0" stop-color="#cccccc" stop-opacity="0.14901961"/>
    </linearGradient>
  </defs>
</svg>
