<?xml version="1.0" encoding="UTF-8" standalone="no"?>
<svg xmlns:xlink="http://www.w3.org/1999/xlink" height="115.4px" width="367.8px" xmlns="http://www.w3.org/2000/svg">
  <g transform="matrix(1.0, 0.0, 0.0, 1.0, 183.7, 54.9)">
    <path d="M-173.9 37.6 Q-195.85 -1.2 -168.75 -28.5 -168.2 -42.3 -148.45 -48.15 -126.35 -44.6 -103.9 -47.15 -67.0 -65.3 -25.0 -41.0 5.45 -33.3 42.7 -35.7 85.05 -41.1 128.15 -28.9 137.85 -30.95 147.25 -30.95 168.05 -23.9 176.45 1.2 194.7 29.55 169.45 57.75 L149.6 59.45 157.25 50.2 Q142.55 56.15 109.6 52.95 105.8 51.15 102.35 48.95 109.7 47.5 118.05 46.9 112.65 42.15 130.35 37.75 110.35 29.95 72.0 44.75 66.55 43.5 61.4 43.1 61.45 35.75 37.05 32.6 L16.2 31.45 Q-9.85 38.1 -17.05 36.0 -16.4 45.4 -20.9 52.0 L-38.65 51.35 Q-29.5 44.8 -23.75 32.75 -81.4 35.45 -115.45 49.7 -102.1 47.75 -92.4 51.4 -112.95 56.15 -148.05 56.6 -166.5 51.4 -173.9 37.6 M163.0 38.2 L138.0 33.8 Q137.1 38.85 149.95 41.85 166.2 43.0 163.0 38.2 M124.05 27.35 Q123.8 21.75 103.6 22.85 76.35 22.6 64.0 26.0 72.9 35.95 124.05 27.35 M8.15 23.4 Q-6.4 17.85 -63.3 27.95 -39.05 24.65 -7.45 30.35 7.9 32.85 8.15 23.4 M-117.0 36.8 L-136.3 40.25 Q-155.35 26.3 -157.6 33.0 -165.25 35.95 -154.5 43.55 -131.95 52.75 -117.0 36.8" fill="url(#gradient0)" fill-rule="evenodd" stroke="none"/>
    <path d="M149.6 59.45 Q124.9 60.2 109.6 52.95 142.55 56.15 157.25 50.2 L149.6 59.45 M102.35 48.95 Q90.45 50.65 81.75 53.25 65.65 61.9 20.1 44.35 17.35 45.35 15.05 46.9 4.75 52.15 -20.9 52.0 -16.4 45.4 -17.05 36.0 -9.85 38.1 16.2 31.45 L37.05 32.6 Q61.45 35.75 61.4 43.1 43.2 40.55 31.25 41.95 61.55 51.6 75.3 45.0 L72.0 44.75 Q110.35 29.95 130.35 37.75 112.65 42.15 118.05 46.9 109.7 47.5 102.35 48.95 M-38.65 51.35 Q-38.9 51.6 -39.5 51.65 -56.25 62.9 -84.65 55.5 -124.95 62.85 -148.05 56.6 -112.95 56.15 -92.4 51.4 -102.1 47.75 -115.45 49.7 -81.4 35.45 -23.75 32.75 -29.5 44.8 -38.65 51.35 M163.0 38.2 Q166.2 43.0 149.95 41.85 137.1 38.85 138.0 33.8 L163.0 38.2 M124.05 27.35 Q72.9 35.95 64.0 26.0 76.35 22.6 103.6 22.85 123.8 21.75 124.05 27.35 M8.15 23.4 Q7.9 32.85 -7.45 30.35 -39.05 24.65 -63.3 27.95 -6.4 17.85 8.15 23.4 M-117.0 36.8 Q-131.95 52.75 -154.5 43.55 -165.25 35.95 -157.6 33.0 -155.35 26.3 -136.3 40.25 L-117.0 36.8" fill="#b25e5e" fill-rule="evenodd" stroke="none"/>
    <path d="M72.0 44.75 L75.3 45.0 Q61.55 51.6 31.25 41.95 43.2 40.55 61.4 43.1 66.55 43.5 72.0 44.75" fill="#984e4e" fill-rule="evenodd" stroke="none"/>
    <path d="M169.45 57.75 L149.6 59.45 Q124.9 60.2 109.6 52.95 105.8 51.15 102.35 48.95 90.45 50.65 81.75 53.25 65.65 61.9 20.1 44.35 17.35 45.35 15.05 46.9 4.75 52.15 -20.9 52.0 L-38.65 51.35 Q-38.9 51.6 -39.5 51.65 -56.25 62.9 -84.65 55.5 -124.95 62.85 -148.05 56.6 -166.5 51.4 -173.9 37.6" fill="none" stroke="#733b3b" stroke-linecap="round" stroke-linejoin="round" stroke-width="2.0"/>
    <path d="M-38.05 52.15 L-38.1 52.15 Q-38.85 52.75 -39.5 51.9 L-39.65 51.15 -39.2 50.5 -38.15 49.8 -38.05 49.7 -37.95 49.65 -34.85 47.2 -33.4 45.85 -33.05 45.45 -32.85 45.3 -31.7 44.1 -31.55 43.9 -31.15 43.5 -29.7 41.8 -29.05 40.9 -28.85 40.7 -28.7 40.45 -28.05 39.6 -28.0 39.5 -27.9 39.4 -27.15 38.3 -27.05 38.1 -26.35 37.1 -26.25 36.9 -26.1 36.7 -23.8 32.7 Q-23.8 32.55 -23.7 32.65 -23.55 32.65 -23.65 32.75 L-25.65 36.95 -25.75 37.2 -27.1 39.6 -27.25 39.8 -27.3 39.95 -27.4 40.05 -27.7 40.5 -27.95 41.0 -31.65 46.0 -31.85 46.2 -35.1 49.65 -36.9 51.25 -37.0 51.3 -37.2 51.5 -38.05 52.15 M75.3 44.9 L75.35 45.0 75.25 45.05 74.45 45.0 73.6 44.95 71.95 44.9 71.95 44.85 62.25 43.45 61.45 43.4 61.2 43.4 61.0 43.35 50.85 42.4 50.05 42.35 49.2 42.3 48.4 42.25 36.2 42.25 35.4 42.3 34.55 42.4 34.15 42.4 23.45 44.25 20.45 45.25 20.4 45.25 19.65 45.25 Q19.25 45.05 19.1 44.65 19.0 44.25 19.15 43.9 L19.7 43.4 22.95 42.4 29.5 41.25 33.65 40.9 34.05 40.9 34.25 40.85 35.3 40.85 36.1 40.8 36.95 40.8 37.35 40.75 46.0 41.0 46.85 41.05 61.1 42.7 61.3 42.75 61.5 42.75 68.8 43.85 72.0 44.6 72.0 44.55 75.3 44.9 M102.5 49.9 L102.45 49.9 101.7 49.75 101.3 49.1 Q101.25 48.7 101.5 48.35 101.75 48.05 102.15 47.95 L102.55 47.85 117.1 46.3 117.95 46.25 118.35 46.25 127.25 45.5 128.05 45.45 128.8 45.45 130.35 45.35 138.85 45.05 138.95 45.1 138.9 45.2 118.9 47.35 118.5 47.45 118.15 47.45 118.1 47.5 118.05 47.5 117.2 47.55 102.5 49.9" fill="#733b3b" fill-rule="evenodd" stroke="none"/>
  </g>
  <defs>
    <linearGradient gradientTransform="matrix(0.0053, -0.065, 0.1554, 0.0126, 1.65, 14.75)" gradientUnits="userSpaceOnUse" id="gradient0" spreadMethod="pad" x1="-819.2" x2="819.2">
      <stop offset="0.0" stop-color="#b25e5e"/>
      <stop offset="1.0" stop-color="#4a3030"/>
    </linearGradient>
  </defs>
</svg>
