<?xml version="1.0" encoding="UTF-8" standalone="no"?>
<svg xmlns:xlink="http://www.w3.org/1999/xlink" height="1534.55px" width="1392.25px" xmlns="http://www.w3.org/2000/svg">
  <g transform="matrix(1.0, 0.0, 0.0, 1.0, -475.3, 1747.55)">
    <path d="M1796.15 -1670.0 Q1809.1 -1686.15 1812.65 -1691.25 1813.45 -1691.85 1814.9 -1694.35 1817.65 -1699.25 1820.65 -1709.25 1823.25 -1717.4 1827.75 -1726.85 L1831.8 -1734.8 Q1833.75 -1740.05 1837.95 -1743.3 1841.35 -1745.95 1845.85 -1747.05 1851.85 -1748.6 1857.95 -1745.5 1864.8 -1742.1 1866.55 -1735.15 1868.15 -1729.0 1867.25 -1725.35 1866.4 -1722.5 1862.65 -1717.65 1854.65 -1707.45 1850.5 -1703.4 1847.7 -1700.7 1844.2 -1698.65 1835.05 -1693.45 1819.95 -1677.9 L1775.2 -1616.45 Q1767.75 -1605.8 1757.9 -1594.6 1751.05 -1586.8 1744.95 -1580.9 1736.6 -1572.7 1733.15 -1572.25 L1731.25 -1571.7 Q1730.3 -1571.0 1728.15 -1567.9 L1691.95 -1533.85 1652.2 -1500.0 1607.75 -1442.6 1604.25 -1438.15 1568.6 -1394.45 Q1564.65 -1389.2 1544.7 -1365.75 L1510.1 -1325.4 1480.1 -1291.35 Q1465.05 -1274.4 1449.2 -1258.05 L1418.4 -1224.85 1382.4 -1206.65 Q1363.55 -1197.1 1360.15 -1188.85 1356.75 -1180.6 1343.4 -1170.45 1299.6 -1122.7 1261.05 -1066.9 1217.7 -1022.15 1195.4 -992.1 1196.35 -987.4 1195.6 -984.35 1194.75 -981.5 1191.0 -976.65 1183.0 -966.45 1178.85 -962.4 1176.75 -960.35 1174.25 -958.7 1172.25 -956.2 1168.4 -954.95 1160.2 -949.15 1148.3 -936.9 L1103.55 -875.45 Q1096.1 -864.8 1086.25 -853.6 1079.4 -845.8 1073.3 -839.9 1064.95 -831.7 1061.5 -831.25 L1059.6 -830.7 Q1058.65 -830.0 1056.5 -826.9 L1020.3 -792.85 980.55 -759.0 936.1 -701.6 932.6 -697.15 896.95 -653.45 Q893.0 -648.2 873.05 -624.75 L838.45 -584.4 808.45 -550.35 Q793.4 -533.4 777.55 -517.05 L746.75 -483.85 710.75 -465.65 Q691.9 -456.1 688.5 -447.85 685.1 -439.6 671.75 -429.45 627.95 -381.7 589.4 -325.9 531.35 -265.95 511.0 -232.5 506.6 -225.15 503.05 -218.35 500.8 -214.95 495.45 -213.6 488.95 -211.9 483.35 -215.0 477.55 -218.15 475.85 -224.55 475.0 -227.75 475.45 -231.4 475.9 -235.05 477.3 -236.65 483.15 -243.6 491.45 -252.55 498.15 -259.8 511.05 -275.65 L590.95 -358.0 Q595.35 -367.4 610.15 -385.95 624.9 -404.5 642.85 -427.75 660.8 -451.0 686.5 -482.7 L759.3 -536.8 Q761.1 -538.1 793.8 -565.45 L827.4 -595.15 Q837.5 -603.45 867.6 -635.1 890.9 -659.55 899.7 -669.6 L930.25 -706.2 950.7 -733.0 973.4 -765.1 1015.0 -805.35 1047.3 -840.5 1054.55 -851.6 Q1056.8 -855.35 1060.35 -859.75 L1124.5 -929.0 Q1137.45 -945.15 1141.0 -950.25 1141.8 -950.85 1143.25 -953.35 1145.45 -957.3 1147.85 -964.45 L1147.5 -965.55 Q1146.65 -968.75 1147.1 -972.4 1147.55 -976.05 1148.95 -977.65 L1156.15 -985.9 1160.15 -993.8 Q1162.1 -999.05 1166.3 -1002.3 1169.6 -1004.85 1173.9 -1005.95 L1182.7 -1016.65 1262.6 -1099.0 Q1267.0 -1108.4 1281.8 -1126.95 1296.55 -1145.5 1314.5 -1168.75 1332.45 -1192.0 1358.15 -1223.7 L1430.95 -1277.8 Q1432.75 -1279.1 1465.45 -1306.45 L1499.05 -1336.15 Q1509.15 -1344.45 1539.25 -1376.1 1562.55 -1400.55 1571.35 -1410.6 L1601.9 -1447.2 1622.35 -1474.0 1645.05 -1506.1 1686.65 -1546.35 1718.95 -1581.5 1726.2 -1592.6 Q1728.45 -1596.35 1732.0 -1600.75 L1796.15 -1670.0" fill="#fffbee" fill-opacity="0.8" fill-rule="evenodd" stroke="none"/>
  </g>
</svg>
