<?xml version="1.0" encoding="UTF-8" standalone="no"?>
<svg xmlns:xlink="http://www.w3.org/1999/xlink" height="49.85px" width="49.1px" xmlns="http://www.w3.org/2000/svg">
  <g transform="matrix(1.0, 0.0, 0.0, 1.0, 36.25, 106.35)">
    <path d="M2.75 -102.75 L-0.9 -100.3 -1.7 -100.65 Q-1.75 -103.3 -2.7 -106.1 0.2 -104.9 2.75 -102.75 M5.85 -95.1 L7.45 -98.05 8.75 -96.85 Q11.1 -94.45 12.6 -91.65 11.55 -90.9 10.65 -89.75 L8.8 -87.75 Q8.7 -91.9 5.85 -95.1 M8.75 -67.2 L5.95 -64.8 4.95 -66.95 Q5.8 -68.6 6.55 -71.25 L12.85 -72.85 Q11.35 -69.8 8.75 -67.2 M-25.65 -101.55 Q-22.3 -104.85 -18.25 -106.35 L-20.45 -102.95 -20.5 -102.3 Q-21.4 -102.05 -22.0 -101.6 L-23.05 -100.7 -25.7 -101.45 -25.65 -101.55 M-30.4 -96.75 L-29.95 -94.5 -32.2 -91.55 Q-33.35 -89.65 -33.8 -86.85 L-36.25 -84.8 Q-35.45 -91.65 -30.4 -96.75 M-30.35 -67.2 Q-32.5 -69.35 -33.85 -71.8 L-32.2 -73.1 Q-31.6 -71.45 -30.35 -69.65 L-30.4 -69.15 Q-29.65 -66.5 -30.35 -67.2 M-24.2 -61.2 Q-22.1 -61.25 -20.3 -62.5 L-19.85 -62.2 Q-19.2 -61.75 -18.55 -61.4 L-18.6 -60.5 Q-18.6 -59.5 -18.95 -57.95 -21.75 -59.15 -24.2 -61.2 M1.25 -60.1 Q-2.85 -57.2 -7.85 -56.5 L-7.25 -59.65 Q-3.5 -58.7 1.25 -60.1" fill="#ffffff" fill-opacity="0.2" fill-rule="evenodd" stroke="none"/>
  </g>
</svg>
