<?xml version="1.0" encoding="UTF-8" standalone="no"?>
<svg xmlns:xlink="http://www.w3.org/1999/xlink" height="101.1px" width="101.2px" xmlns="http://www.w3.org/2000/svg">
  <g transform="matrix(1.0, 0.0, 0.0, 1.0, 74.0, -74.9)">
    <path d="M-8.85 84.1 L-8.8 83.65 Q-6.65 81.15 -4.15 79.4 -1.1 77.2 2.55 76.1 6.3 74.9 11.2 74.9 17.5 74.9 20.85 77.7 25.45 81.5 26.7 91.7 L26.65 91.75 26.85 93.2 Q28.0 100.8 25.35 108.35 22.75 115.9 17.45 119.95 L15.7 121.3 8.7 125.3 3.9 127.3 Q-2.8 129.9 -5.7 129.9 -8.35 129.9 -10.5 127.3 -12.25 125.2 -13.3 121.6 L-13.55 120.5 -14.05 118.25 Q-15.65 113.5 -15.65 104.25 -15.65 101.55 -15.0 96.8 L-14.7 95.2 -13.0 90.8 Q-10.95 86.45 -8.85 84.1" fill="url(#gradient0)" fill-rule="evenodd" stroke="none"/>
    <path d="M-61.9 171.95 Q-63.35 170.65 -66.3 166.55 L-69.65 161.55 Q-72.2 156.05 -72.85 153.95 -74.05 150.0 -74.0 144.55 L-72.3 141.95 Q-70.55 140.2 -67.0 138.95 -63.2 137.6 -61.25 138.25 -52.75 138.45 -45.05 148.55 -38.2 157.6 -38.2 164.45 L-38.5 166.95 -39.15 169.3 -39.85 170.65 Q-41.3 172.6 -44.7 174.4 -47.85 176.0 -49.5 176.0 -52.2 176.0 -56.25 174.6 -59.9 173.35 -61.9 171.95" fill="url(#gradient1)" fill-rule="evenodd" stroke="none"/>
  </g>
  <defs>
    <radialGradient cx="0" cy="0" gradientTransform="matrix(0.0312, -0.0437, 0.03, 0.0214, 11.5, 107.55)" gradientUnits="userSpaceOnUse" id="gradient0" r="819.2" spreadMethod="pad">
      <stop offset="0.49411764705882355" stop-color="#2e798d"/>
      <stop offset="0.7176470588235294" stop-color="#23676e"/>
    </radialGradient>
    <radialGradient cx="0" cy="0" gradientTransform="matrix(0.0271, -0.0157, 0.0158, 0.0274, -52.05, 162.55)" gradientUnits="userSpaceOnUse" id="gradient1" r="819.2" spreadMethod="pad">
      <stop offset="0.49411764705882355" stop-color="#2e798d"/>
      <stop offset="0.7176470588235294" stop-color="#23676e"/>
    </radialGradient>
  </defs>
</svg>
