<?xml version="1.0" encoding="UTF-8" standalone="no"?>
<svg xmlns:xlink="http://www.w3.org/1999/xlink" height="53.55px" width="51.3px" xmlns="http://www.w3.org/2000/svg">
  <g transform="matrix(1.0, 0.0, 0.0, 1.0, 31.1, 112.3)">
    <path d="M-21.5 -105.0 Q-15.8 -111.7 -7.1 -112.25 0.7 -112.75 6.7 -108.0 L3.25 -105.2 2.35 -105.55 Q-1.1 -106.95 -5.8 -107.25 -10.35 -107.55 -13.45 -106.6 -16.65 -106.4 -17.9 -105.25 L-18.9 -104.25 -21.55 -104.85 -21.5 -105.0 M20.15 -87.05 Q20.7 -78.0 14.95 -71.3 L12.35 -68.6 11.2 -70.8 Q12.45 -73.8 13.1 -79.7 14.05 -87.5 13.75 -92.45 13.45 -96.9 10.3 -100.15 L11.7 -103.35 13.1 -102.2 Q19.6 -96.15 20.15 -87.05 M-24.05 -68.9 Q-30.5 -74.9 -31.05 -83.95 -31.6 -92.95 -25.95 -99.7 L-25.35 -97.4 -27.45 -94.15 Q-29.1 -90.75 -28.75 -84.9 L-28.4 -81.4 Q-27.8 -79.9 -26.75 -76.3 -26.1 -73.95 -24.2 -71.45 L-24.2 -70.95 Q-23.3 -68.2 -24.05 -68.9 M-3.85 -58.8 Q-11.55 -58.35 -17.5 -63.05 -15.45 -63.2 -13.75 -64.6 L-13.25 -64.35 Q-9.55 -62.0 -5.65 -62.25 -4.05 -62.35 -2.5 -63.1 2.1 -61.2 8.0 -63.45 2.95 -59.2 -3.85 -58.8" fill="#ffffff" fill-opacity="0.5019608" fill-rule="evenodd" stroke="none"/>
  </g>
</svg>
