<?xml version="1.0" encoding="UTF-8" standalone="no"?>
<svg xmlns:xlink="http://www.w3.org/1999/xlink" height="793.55px" width="720.6px" xmlns="http://www.w3.org/2000/svg">
  <g transform="matrix(1.0, 0.0, 0.0, 1.0, -472.95, 1007.8)">
    <path d="M1122.15 -930.25 Q1135.1 -946.4 1138.65 -951.5 1139.45 -952.1 1140.9 -954.6 1143.65 -959.5 1146.65 -969.5 1149.25 -977.65 1153.75 -987.1 L1157.8 -995.05 Q1159.75 -1000.3 1163.95 -1003.55 1167.35 -1006.2 1171.85 -1007.3 1177.85 -1008.85 1183.95 -1005.75 1190.8 -1002.35 1192.55 -995.4 1194.15 -989.25 1193.25 -985.6 1192.4 -982.75 1188.65 -977.9 1180.65 -967.7 1176.5 -963.65 1173.7 -960.95 1170.2 -958.9 1161.05 -953.7 1145.95 -938.15 L1101.2 -876.7 Q1093.75 -866.05 1083.9 -854.85 1077.05 -847.05 1070.95 -841.15 1062.6 -832.95 1059.15 -832.5 L1057.25 -831.95 Q1056.3 -831.25 1054.15 -828.15 L1017.95 -794.1 978.2 -760.25 933.75 -702.85 930.25 -698.4 894.6 -654.7 Q890.65 -649.45 870.7 -626.0 L836.1 -585.65 806.1 -551.6 Q791.05 -534.65 775.2 -518.3 L744.4 -485.1 708.4 -466.9 Q689.55 -457.35 686.15 -449.1 682.75 -440.85 669.4 -430.7 625.6 -382.95 587.05 -327.15 529.0 -267.2 508.65 -233.75 504.25 -226.4 500.7 -219.6 498.45 -216.2 493.1 -214.85 486.6 -213.15 481.0 -216.25 475.2 -219.4 473.5 -225.8 472.65 -229.0 473.1 -232.65 473.55 -236.3 474.95 -237.9 480.8 -244.85 489.1 -253.8 495.8 -261.05 508.7 -276.9 L588.6 -359.25 Q593.0 -368.65 607.8 -387.2 622.55 -405.75 640.5 -429.0 658.45 -452.25 684.15 -483.95 L756.95 -538.05 791.45 -566.7 825.05 -596.4 Q835.15 -604.7 865.25 -636.35 888.55 -660.8 897.35 -670.85 L927.9 -707.45 948.35 -734.25 971.05 -766.35 1012.65 -806.6 1044.95 -841.75 1052.2 -852.85 Q1054.45 -856.6 1058.0 -861.0 L1122.15 -930.25" fill="#fffbee" fill-opacity="0.8" fill-rule="evenodd" stroke="none"/>
  </g>
</svg>
