<?xml version="1.0" encoding="UTF-8" standalone="no"?>
<svg xmlns:xlink="http://www.w3.org/1999/xlink" height="51.95px" width="49.8px" xmlns="http://www.w3.org/2000/svg">
  <g transform="matrix(1.0, 0.0, 0.0, 1.0, 31.1, 111.1)">
    <path d="M10.25 -100.15 L11.65 -103.35 13.05 -102.2 Q15.55 -99.85 17.25 -97.0 16.25 -96.15 15.4 -94.9 L13.7 -92.7 Q13.3 -97.05 10.25 -100.15 M6.7 -108.0 L3.25 -105.2 2.4 -105.5 Q2.2 -108.25 1.05 -111.1 4.05 -110.0 6.7 -108.0 M14.95 -71.3 L12.3 -68.6 11.15 -70.8 Q11.9 -72.55 12.5 -75.35 L18.7 -77.45 Q17.35 -74.15 14.95 -71.3 M-21.55 -105.0 Q-18.45 -108.6 -14.5 -110.45 L-16.5 -106.75 -16.5 -106.05 Q-17.4 -105.75 -17.95 -105.25 L-18.95 -104.25 -21.6 -104.85 -21.55 -105.0 M-26.0 -99.7 L-25.4 -97.4 -27.45 -94.15 Q-28.5 -92.15 -28.75 -89.15 L-31.1 -86.9 Q-30.7 -94.05 -26.0 -99.7 M-24.05 -68.9 Q-26.35 -71.05 -27.85 -73.5 L-26.3 -74.95 Q-25.6 -73.3 -24.2 -71.45 L-24.25 -70.95 Q-23.3 -68.2 -24.05 -68.9 M7.95 -63.45 Q4.0 -60.2 -0.95 -59.15 L-0.55 -62.45 Q3.3 -61.7 7.95 -63.45 M-17.55 -63.05 Q-15.5 -63.2 -13.75 -64.6 L-13.3 -64.35 -11.95 -63.6 -11.95 -62.6 Q-11.85 -61.6 -12.1 -59.95 -15.0 -61.05 -17.55 -63.05" fill="#ffffff" fill-opacity="0.2" fill-rule="evenodd" stroke="none"/>
  </g>
</svg>
