<?xml version="1.0" encoding="UTF-8" standalone="no"?>
<svg xmlns:xlink="http://www.w3.org/1999/xlink" height="383.1px" width="321.25px" xmlns="http://www.w3.org/2000/svg">
  <g transform="matrix(1.0, 0.0, 0.0, 1.0, -149.6, 215.35)">
    <path d="M262.45 -29.4 Q263.1 -36.9 269.75 -45.3 279.05 -57.05 300.6 -71.9 L360.05 -112.75 Q363.95 -115.35 370.95 -123.45 378.2 -131.8 381.4 -137.65 L394.45 -162.0 Q403.2 -178.1 406.25 -181.55 422.2 -199.6 436.15 -208.35 447.35 -215.35 455.45 -215.35 L468.75 -214.5 Q470.85 -213.65 470.85 -209.3 470.85 -205.55 467.2 -201.2 L452.4 -185.7 Q450.2 -183.45 448.5 -179.2 445.35 -171.4 440.4 -162.2 431.05 -144.85 419.45 -129.55 L392.1 -94.85 385.75 -86.6 Q382.75 -82.35 382.75 -80.65 382.75 -76.8 385.15 -72.65 386.5 -70.2 390.4 -65.3 398.05 -55.6 398.05 -49.3 398.05 -43.15 389.35 -35.95 380.8 -28.9 362.3 -19.6 346.95 -11.9 332.9 1.3 321.5 12.0 315.55 21.5 313.15 25.4 310.85 29.85 307.45 36.5 306.7 40.25 305.8 48.4 305.5 48.8 L302.4 51.35 296.65 55.65 Q285.7 64.0 272.55 72.65 257.65 82.45 248.65 86.7 243.25 101.4 226.0 121.0 209.85 139.35 197.3 146.9 177.9 158.6 168.05 163.35 158.8 167.75 154.15 167.75 149.6 167.75 149.6 163.35 149.6 155.15 167.35 131.5 177.6 117.9 206.4 83.55 234.4 50.15 245.4 35.25 263.15 11.25 263.15 2.45 L262.15 -14.65 262.3 -29.4 262.45 -29.4" fill="#fffbee" fill-opacity="0.8" fill-rule="evenodd" stroke="none"/>
  </g>
</svg>
