<?xml version="1.0" encoding="UTF-8" standalone="no"?>
<svg xmlns:xlink="http://www.w3.org/1999/xlink" height="39.5px" width="37.35px" xmlns="http://www.w3.org/2000/svg">
  <g transform="matrix(1.0, 0.0, 0.0, 1.0, 0.0, 0.0)">
    <path d="M34.35 10.7 Q38.55 17.95 36.9 25.65 35.3 33.5 28.9 37.25 22.4 41.0 14.8 38.55 7.3 36.15 3.1 28.9 -1.15 21.65 0.4 13.85 2.05 6.05 8.55 2.3 14.95 -1.45 22.5 0.95 30.1 3.45 34.35 10.7" fill="url(#gradient0)" fill-rule="evenodd" stroke="none"/>
    <path d="M20.55 17.9 Q22.6 20.85 22.6 23.35 22.7 26.0 21.15 26.8 19.4 27.55 16.85 25.95 14.1 24.7 12.3 21.8 10.3 18.8 10.3 16.1 9.95 13.6 11.9 12.75 13.5 11.95 16.0 13.35 18.5 14.9 20.55 17.9" fill="url(#gradient1)" fill-rule="evenodd" stroke="none"/>
    <path d="M23.4 28.95 Q22.7 28.05 22.9 27.05 22.95 26.1 23.8 25.65 L25.9 25.6 Q27.2 25.9 27.75 26.8 28.65 27.65 28.55 28.75 28.35 29.6 27.45 30.2 L25.35 30.3 Q24.15 29.95 23.4 28.95" fill="url(#gradient2)" fill-rule="evenodd" stroke="none"/>
  </g>
  <defs>
    <radialGradient cx="0" cy="0" gradientTransform="matrix(-0.0011, -0.0916, 0.062, 0.012, 28.75, 19.25)" gradientUnits="userSpaceOnUse" id="gradient0" r="819.2" spreadMethod="pad">
      <stop offset="0.27450980392156865" stop-color="#23676e"/>
      <stop offset="0.7333333333333333" stop-color="#113438"/>
    </radialGradient>
    <radialGradient cx="0" cy="0" gradientTransform="matrix(0.0056, -0.0027, 0.0053, 0.0081, 16.45, 19.8)" gradientUnits="userSpaceOnUse" id="gradient1" r="819.2" spreadMethod="pad">
      <stop offset="0.0" stop-color="#ffffff"/>
      <stop offset="0.6862745098039216" stop-color="#ffffff"/>
      <stop offset="1.0" stop-color="#ffffff" stop-opacity="0.0"/>
    </radialGradient>
    <radialGradient cx="0" cy="0" gradientTransform="matrix(-0.003, 0.0015, -0.0021, -0.0025, 25.6, 27.85)" gradientUnits="userSpaceOnUse" id="gradient2" r="819.2" spreadMethod="pad">
      <stop offset="0.0" stop-color="#ffffff"/>
      <stop offset="0.6862745098039216" stop-color="#ffffff"/>
      <stop offset="1.0" stop-color="#ffffff" stop-opacity="0.0"/>
    </radialGradient>
  </defs>
</svg>
