<?xml version="1.0" encoding="UTF-8" standalone="no"?>
<svg xmlns:xlink="http://www.w3.org/1999/xlink" height="33.2px" width="12.55px" xmlns="http://www.w3.org/2000/svg">
  <g transform="matrix(1.0, 0.0, 0.0, 1.0, 6.3, 16.6)">
    <path d="M-5.5 -9.3 Q-4.9 -18.6 -2.0 -14.95 4.0 -8.35 4.4 0.7 4.75 9.75 5.65 14.05 5.65 15.45 4.0 16.0 0.4 15.05 -1.25 11.85 -3.7 7.25 -5.3 0.85 -5.95 -1.65 -5.5 -9.3 M-0.05 0.75 Q2.0 6.65 2.75 13.05 3.35 4.8 -0.05 0.75" fill="#a06278" fill-rule="evenodd" stroke="none"/>
    <path d="M-0.05 0.75 Q3.35 4.8 2.75 13.05 2.0 6.65 -0.05 0.75" fill="#cb7c98" fill-rule="evenodd" stroke="none"/>
    <path d="M-5.5 -9.3 Q-5.95 -1.65 -5.3 0.85 -3.7 7.25 -1.25 11.85 0.4 15.05 4.0 16.0 5.65 15.45 5.65 14.05 4.75 9.75 4.4 0.7 4.0 -8.35 -2.0 -14.95 -4.9 -18.6 -5.5 -9.3 Z" fill="none" stroke="#47373a" stroke-linecap="round" stroke-linejoin="round" stroke-width="1.2000000000000002"/>
  </g>
</svg>
