<?xml version="1.0" encoding="UTF-8" standalone="no"?>
<svg xmlns:xlink="http://www.w3.org/1999/xlink" height="21.25px" width="21.3px" xmlns="http://www.w3.org/2000/svg">
  <g transform="matrix(1.0, 0.0, 0.0, 1.0, -22.3, 10.6)">
    <path d="M38.1 -10.1 Q43.1 -10.1 43.1 -5.15 L43.1 5.2 Q43.1 10.15 38.1 10.15 L27.75 10.15 Q22.8 10.15 22.8 5.2 L22.8 -5.15 Q22.8 -10.1 27.75 -10.1 L38.1 -10.1 M33.15 0.05 L27.65 -5.45 33.15 0.05 38.65 -5.45 33.15 0.05 38.65 5.55 33.15 0.05 27.65 5.55 33.15 0.05" fill="url(#gradient0)" fill-rule="evenodd" stroke="none"/>
    <path d="M38.1 -10.1 L27.75 -10.1 Q22.8 -10.1 22.8 -5.15 L22.8 5.2 Q22.8 10.15 27.75 10.15 L38.1 10.15 Q43.1 10.15 43.1 5.2 L43.1 -5.15 Q43.1 -10.1 38.1 -10.1" fill="none" stroke="#000000" stroke-linecap="round" stroke-linejoin="round" stroke-width="1.0"/>
    <path d="M38.65 -5.45 L33.15 0.05 38.65 5.55 M33.15 0.05 L27.65 5.55 M27.65 -5.45 L33.15 0.05" fill="none" stroke="#1d1010" stroke-linecap="round" stroke-linejoin="round" stroke-width="3.0"/>
  </g>
  <defs>
    <linearGradient gradientTransform="matrix(0.0, 0.0124, 0.0124, 0.0, 32.9, 0.05)" gradientUnits="userSpaceOnUse" id="gradient0" spreadMethod="pad" x1="-819.2" x2="819.2">
      <stop offset="0.10196078431372549" stop-color="#fafafa"/>
      <stop offset="1.0" stop-color="#e2e2e2"/>
    </linearGradient>
  </defs>
</svg>
