<?xml version="1.0" encoding="UTF-8" standalone="no"?>
<svg xmlns:xlink="http://www.w3.org/1999/xlink" height="187.95px" width="277.55px" xmlns="http://www.w3.org/2000/svg">
  <g transform="matrix(1.0, 0.0, 0.0, 1.0, 10.25, 4.4)">
    <path d="M51.8 3.0 Q103.75 -16.6 170.05 20.4 173.0 25.25 176.2 29.4 186.15 42.85 197.15 50.0 205.8 55.7 215.15 57.5 242.05 61.45 253.6 60.7 263.35 60.95 266.7 71.2 L257.75 91.2 Q257.75 75.4 245.9 71.0 L229.55 71.6 Q208.35 73.0 193.9 77.15 L192.75 77.9 191.7 78.7 179.25 78.8 Q162.55 79.1 149.15 75.9 140.3 73.9 142.15 72.9 L150.0 73.9 Q172.65 76.35 189.55 72.45 183.95 68.2 179.85 64.75 174.65 60.45 171.85 57.25 L172.95 52.55 Q178.3 42.95 160.2 39.4 157.1 39.45 153.25 34.8 L153.2 34.75 Q131.5 22.4 107.35 17.85 L105.05 17.45 Q79.15 12.95 50.35 17.4 47.95 18.35 45.7 19.5 L51.8 3.0 45.7 19.5 Q8.05 37.9 6.45 81.4 L6.5 81.4 Q12.3 85.1 19.95 94.0 29.9 122.65 36.9 133.55 18.85 134.4 0.45 132.8 -11.3 117.0 -9.4 82.45 -8.95 66.25 0.9 45.85 10.55 28.05 24.2 18.0 37.45 8.3 51.8 3.0" fill="#545555" fill-rule="evenodd" stroke="none"/>
    <path d="M153.2 34.75 L153.25 34.8 Q157.1 39.45 160.2 39.4 178.3 42.95 172.95 52.55 L171.85 57.25 171.85 57.15 Q152.65 52.9 127.2 61.7 L122.05 62.25 124.95 64.45 139.35 71.55 140.45 71.85 Q144.85 73.15 150.0 73.9 L142.15 72.9 Q140.3 73.9 149.15 75.9 162.55 79.1 179.25 78.8 L191.7 78.7 Q190.45 79.45 189.3 80.3 L183.7 84.05 Q112.85 130.0 36.9 133.55 29.9 122.65 19.95 94.0 12.3 85.1 6.5 81.4 66.6 75.65 139.85 41.15 L153.2 34.75 M142.15 72.9 L140.45 71.85 142.15 72.9" fill="#656566" fill-rule="evenodd" stroke="none"/>
    <path d="M45.7 19.5 Q47.95 18.35 50.35 17.4 79.15 12.95 105.05 17.45 L107.35 17.85 Q131.5 22.4 153.2 34.75 L139.85 41.15 Q66.6 75.65 6.5 81.4 L6.45 81.4 Q8.05 37.9 45.7 19.5 M191.7 78.7 L191.75 78.75 152.35 130.45 101.5 173.55 Q83.55 174.1 64.95 165.65 47.8 151.0 36.9 133.55 112.85 130.0 183.7 84.05 L189.3 80.3 Q190.45 79.45 191.7 78.7 M37.15 42.45 Q26.65 57.45 22.7 68.25 L25.0 68.1 Q60.8 56.1 92.5 33.95 98.25 28.95 78.45 29.05 56.45 31.35 37.15 42.45" fill="#6593a6" fill-rule="evenodd" stroke="none"/>
    <path d="M127.2 61.7 L125.2 64.2 124.95 64.45 122.05 62.25 127.2 61.7" fill="url(#gradient0)" fill-rule="evenodd" stroke="none"/>
    <path d="M101.5 173.55 L89.65 183.55 79.4 183.3 Q65.35 180.5 53.45 175.9 24.25 164.8 7.65 143.1 L0.45 132.8 Q18.85 134.4 36.9 133.55 47.8 151.0 64.95 165.65 83.55 174.1 101.5 173.55 M37.15 42.45 Q56.45 31.35 78.45 29.05 98.25 28.95 92.5 33.95 60.8 56.1 25.0 68.1 L22.7 68.25 Q26.65 57.45 37.15 42.45" fill="#5d8595" fill-opacity="0.99607843" fill-rule="evenodd" stroke="none"/>
    <path d="M191.7 78.7 L192.75 77.9 193.9 77.15 Q208.35 73.0 229.55 71.6 L245.9 71.0 Q257.75 75.4 257.75 91.2 L266.7 71.2 Q263.35 60.95 253.6 60.7 242.05 61.45 215.15 57.5 205.8 55.7 197.15 50.0 186.15 42.85 176.2 29.4 173.0 25.25 170.05 20.4 103.75 -16.6 51.8 3.0 37.45 8.3 24.2 18.0 10.55 28.05 0.9 45.85 -8.95 66.25 -9.4 82.45 -11.3 117.0 0.45 132.8 18.85 134.4 36.9 133.55 112.85 130.0 183.7 84.05 L189.3 80.3 Q190.45 79.45 191.7 78.7 M45.7 19.5 Q47.95 18.35 50.35 17.4 79.15 12.95 105.05 17.45 L107.35 17.85 Q131.5 22.4 153.2 34.75 L139.85 41.15 Q66.6 75.65 6.5 81.4 L6.45 81.4 Q8.05 37.9 45.7 19.5 M171.85 57.25 Q174.65 60.45 179.85 64.75 183.95 68.2 189.55 72.45 172.65 76.35 150.0 73.9 M53.45 175.9 Q24.25 164.8 7.65 143.1 L0.45 132.8 M171.85 57.25 L171.85 57.15" fill="none" stroke="#31393d" stroke-linecap="round" stroke-linejoin="round" stroke-width="1.2000000000000002"/>
    <path d="M171.85 57.15 Q152.65 52.9 127.2 61.7 L122.05 62.25" fill="none" stroke="#31393d" stroke-linecap="round" stroke-linejoin="miter-clip" stroke-miterlimit="3.0" stroke-width="1.0"/>
    <path d="M51.8 3.0 L45.7 19.5 M140.45 71.85 L142.15 72.9" fill="none" stroke="#31393d" stroke-linecap="round" stroke-linejoin="miter-clip" stroke-miterlimit="3.0" stroke-width="0.05"/>
    <path d="M140.45 71.85 Q144.85 73.15 150.0 73.9" fill="none" stroke="#31393d" stroke-linecap="round" stroke-linejoin="miter-clip" stroke-miterlimit="3.0" stroke-width="1.2000000000000002"/>
    <path d="M121.65 62.7 L121.65 62.65 Q121.6 62.3 121.85 62.05 122.05 61.8 122.4 61.75 L122.7 61.7 123.0 61.7 123.25 61.75 123.4 61.75 123.5 61.8 123.7 61.85 123.8 61.9 123.9 62.0 124.1 62.1 125.75 63.35 125.5 63.25 139.65 70.9 139.45 70.85 140.6 71.25 Q141.15 71.45 140.95 71.95 140.85 72.5 140.25 72.4 L139.2 72.2 139.15 72.2 124.25 65.55 124.1 65.5 122.65 64.4 122.5 64.25 122.3 64.1 122.2 64.05 122.15 63.95 122.0 63.75 121.8 63.3 121.75 63.25 121.75 63.15 121.7 63.0 121.65 62.7" fill="#31393d" fill-rule="evenodd" stroke="none"/>
  </g>
  <defs>
    <radialGradient cx="0" cy="0" gradientTransform="matrix(0.0043, -0.0368, 0.0606, 0.0072, 162.4, 70.1)" gradientUnits="userSpaceOnUse" id="gradient0" r="819.2" spreadMethod="pad">
      <stop offset="0.3764705882352941" stop-color="#d5d1cf"/>
      <stop offset="0.7372549019607844" stop-color="#736d6a"/>
    </radialGradient>
  </defs>
</svg>
