<?xml version="1.0" encoding="UTF-8" standalone="no"?>
<svg xmlns:xlink="http://www.w3.org/1999/xlink" height="159.45px" width="135.85px" xmlns="http://www.w3.org/2000/svg">
  <g transform="matrix(1.0, 0.0, 0.0, 1.0, 9.05, -24.7)">
    <path d="M108.05 164.55 L107.85 164.35 Q107.55 164.75 106.95 164.75 105.9 164.75 104.65 160.3 L101.3 148.25 Q95.0 126.65 83.5 108.75 81.3 105.3 77.8 101.4 L71.6 94.5 66.55 87.75 Q63.1 83.5 59.0 80.5 56.3 78.5 50.3 73.75 44.55 69.5 39.05 67.2 36.65 66.2 32.8 63.85 29.35 61.7 27.0 60.9 23.65 59.75 14.05 58.7 7.2 57.9 7.2 56.15 L7.0 56.25 Q-14.95 60.75 -6.85 25.3 L19.9 37.85 Q48.35 51.3 63.2 59.05 98.75 78.95 126.1 149.5 L108.05 164.55" fill="#4392b9" fill-rule="evenodd" stroke="none"/>
    <path d="M6.8 57.0 L7.05 56.55 7.05 56.35 7.0 56.25 7.2 56.15 Q7.2 57.9 14.05 58.7 23.65 59.75 27.0 60.9 29.35 61.7 32.8 63.85 36.65 66.2 39.05 67.2 44.55 69.5 50.3 73.75 56.3 78.5 59.0 80.5 63.1 83.5 66.55 87.75 L71.6 94.5 77.8 101.4 Q81.3 105.3 83.5 108.75 95.0 126.65 101.3 148.25 L104.65 160.3 Q105.9 164.75 106.95 164.75 107.55 164.75 107.85 164.35 L108.05 164.55 85.8 183.1 Q67.3 117.7 45.55 87.3 29.6 67.25 6.8 57.0" fill="#51b6e7" fill-rule="evenodd" stroke="none"/>
    <path d="M6.8 57.0 Q29.6 67.25 45.55 87.3 67.3 117.7 85.8 183.1 L108.05 164.55 126.1 149.5 Q98.75 78.95 63.2 59.05 48.35 51.3 19.9 37.85 L-6.85 25.3" fill="none" stroke="#4a4f58" stroke-linecap="round" stroke-linejoin="miter-clip" stroke-miterlimit="3.0" stroke-width="1.2000000000000002"/>
  </g>
</svg>
