<?xml version="1.0" encoding="UTF-8" standalone="no"?>
<svg xmlns:xlink="http://www.w3.org/1999/xlink" height="110.6px" width="391.7px" xmlns="http://www.w3.org/2000/svg">
  <g transform="matrix(1.0, 0.0, 0.0, 1.0, 195.85, 55.3)">
    <path d="M195.85 55.3 L-129.0 55.3 -195.85 -11.55 -195.85 -55.3 195.85 -55.3 195.85 55.3" fill="url(#gradient0)" fill-rule="evenodd" stroke="none"/>
    <path d="M11.8 31.1 L40.0 31.1 Q44.05 31.1 46.9 33.95 49.75 36.8 49.75 40.85 49.75 44.9 46.9 47.75 44.05 50.6 40.0 50.6 L11.8 50.6 Q7.75 50.6 4.9 47.75 2.05 44.9 2.05 40.85 2.05 38.4 3.1 36.4 3.75 35.1 4.9 33.95 7.75 31.1 11.8 31.1 M45.35 39.15 Q43.7 36.75 40.1 35.85 25.05 32.95 10.4 35.95 8.2 36.35 6.6 38.3 3.9 42.15 6.3 46.0 7.85 48.45 10.55 48.65 25.85 50.3 40.6 48.65 43.1 48.3 44.4 46.8 47.6 42.85 45.35 39.15" fill="#ae5120" fill-rule="evenodd" stroke="none"/>
  </g>
  <defs>
    <linearGradient gradientTransform="matrix(0.5889, 0.0, 0.0, 0.7058, -38.2, 317.0)" gradientUnits="userSpaceOnUse" id="gradient0" spreadMethod="pad" x1="-819.2" x2="819.2">
      <stop offset="0.0" stop-color="#ae5120"/>
      <stop offset="1.0" stop-color="#d56023"/>
    </linearGradient>
  </defs>
</svg>
