<?xml version="1.0" encoding="UTF-8" standalone="no"?>
<svg xmlns:xlink="http://www.w3.org/1999/xlink" height="45.35px" width="14.1px" xmlns="http://www.w3.org/2000/svg">
  <g transform="matrix(1.0, 0.0, 0.0, 1.0, 23.85, 23.35)">
    <path d="M-17.5 -9.85 L-15.15 -9.25 Q-14.2 -8.8 -13.55 -8.2 -13.0 -7.6 -12.75 -6.85 -12.5 -6.05 -12.65 -5.15 -12.75 -4.15 -13.25 -3.45 -13.7 -2.75 -14.45 -2.4 -15.2 -1.95 -16.25 -1.85 L-18.6 -1.95 -20.9 -2.5 -22.45 -3.5 Q-23.05 -4.1 -23.25 -4.9 -23.5 -5.7 -23.4 -6.65 -23.1 -8.55 -21.6 -9.4 -20.15 -10.2 -17.5 -9.85 M-17.7 -8.3 L-20.9 -8.15 Q-22.0 -7.65 -22.2 -6.45 -22.35 -5.25 -21.4 -4.55 -20.45 -3.8 -18.35 -3.5 L-15.15 -3.65 Q-14.0 -4.1 -13.85 -5.3 -13.65 -6.55 -14.7 -7.3 -15.65 -8.0 -17.7 -8.3 M-10.0 -18.7 L-10.45 -17.15 -13.6 -17.25 -13.95 -17.3 -14.4 -17.3 -14.9 -17.3 -15.4 -17.35 -16.55 -17.45 -15.55 -16.85 -15.15 -16.6 -14.7 -16.35 -14.3 -16.1 -14.05 -15.9 -11.4 -14.25 -11.85 -12.65 -22.4 -14.2 -21.95 -15.6 -15.5 -14.5 -14.55 -14.35 -13.65 -14.15 -12.85 -13.95 -13.75 -14.5 -14.2 -14.75 -14.6 -15.0 -15.0 -15.25 -15.35 -15.5 -18.1 -17.2 -17.65 -18.5 -14.4 -18.4 -14.05 -18.35 -13.55 -18.35 -13.05 -18.3 -12.65 -18.3 -11.5 -18.2 -11.75 -18.3 -12.4 -18.55 -13.2 -18.9 -14.05 -19.3 -20.0 -21.95 -19.55 -23.35 -10.0 -18.7 M-13.2 2.9 L-18.05 3.5 -17.55 7.55 -12.7 6.95 -12.5 8.45 -22.95 9.8 -23.15 8.3 -18.75 7.7 -19.25 3.65 -23.65 4.25 -23.85 2.8 -13.4 1.45 -13.2 2.9 M-14.25 13.0 L-13.05 12.8 -11.85 13.2 -10.85 14.2 Q-10.4 14.9 -10.1 15.85 -9.5 17.6 -9.9 18.8 -10.25 20.0 -11.45 20.7 L-12.2 19.4 -11.55 18.85 -11.1 18.25 -11.0 17.3 -11.2 16.2 -11.65 15.25 Q-11.85 14.85 -12.2 14.6 -12.55 14.35 -12.9 14.3 L-13.75 14.4 Q-14.3 14.55 -14.5 14.9 L-14.85 15.7 -14.9 16.7 -14.85 17.8 -14.8 18.6 -14.8 19.4 -14.95 20.15 -15.2 20.85 -15.75 21.45 -16.6 21.8 -17.9 21.95 Q-18.5 21.9 -19.0 21.5 L-19.8 20.55 -20.4 19.25 -20.75 17.7 -20.6 16.55 -20.1 15.65 -19.2 14.85 -18.45 16.2 -19.1 16.65 -19.45 17.25 -19.55 17.95 -19.35 18.9 -18.85 19.85 -18.35 20.4 -17.75 20.6 -17.05 20.5 -16.45 20.05 -16.15 19.35 Q-16.05 19.0 -16.1 18.45 L-16.2 17.4 -16.2 16.55 -16.2 15.65 -16.05 14.8 -15.75 14.05 -15.15 13.4 -14.25 13.0" fill="#000000" fill-rule="evenodd" stroke="none"/>
  </g>
</svg>
