<?xml version="1.0" encoding="UTF-8" standalone="no"?>
<svg xmlns:xlink="http://www.w3.org/1999/xlink" height="155.3px" width="68.05px" xmlns="http://www.w3.org/2000/svg">
  <g transform="matrix(1.0, 0.0, 0.0, 1.0, 34.05, 77.65)">
    <path d="M-25.4 -33.1 Q-19.75 -43.65 -11.05 -52.9 -0.9 -63.7 10.95 -70.2 22.95 -76.8 33.5 -77.15 L33.5 -47.15 Q18.9 -43.6 7.0 -28.85 -4.85 -14.2 -4.85 0.0 -4.85 14.35 7.0 28.95 18.85 43.6 33.5 47.15 L33.5 77.15 Q2.65 73.35 -17.55 45.3 -22.0 39.1 -25.4 32.4 -41.7 -1.25 -25.4 -33.1" fill="url(#gradient0)" fill-rule="evenodd" stroke="none"/>
    <path d="M-25.4 -33.1 Q-19.75 -43.65 -11.05 -52.9 -0.9 -63.7 10.95 -70.2 22.95 -76.8 33.5 -77.15 L33.5 -47.15 Q18.9 -43.6 7.0 -28.85 -4.85 -14.2 -4.85 0.0 -4.85 14.35 7.0 28.95 18.85 43.6 33.5 47.15 L33.5 77.15 Q2.65 73.35 -17.55 45.3 -22.0 39.1 -25.4 32.4" fill="none" stroke="#ffff00" stroke-linecap="round" stroke-linejoin="round" stroke-width="1.0"/>
    <path d="M-25.4 32.4 Q-41.7 -1.25 -25.4 -33.1 Z" fill="none" stroke="#ffff00" stroke-linecap="butt" stroke-linejoin="round" stroke-width="1.0"/>
  </g>
  <defs>
    <radialGradient cx="0" cy="0" gradientTransform="matrix(0.0727, 0.0, 0.0, 0.0954, 26.2, 0.35)" gradientUnits="userSpaceOnUse" id="gradient0" r="819.2" spreadMethod="pad">
      <stop offset="0.0" stop-color="#dbda80"/>
      <stop offset="0.5254901960784314" stop-color="#bec449"/>
      <stop offset="0.984313725490196" stop-color="#d9d381"/>
    </radialGradient>
  </defs>
</svg>
