<?xml version="1.0" encoding="UTF-8" standalone="no"?>
<svg xmlns:xlink="http://www.w3.org/1999/xlink" height="42.6px" width="14.75px" xmlns="http://www.w3.org/2000/svg">
  <g transform="matrix(1.0, 0.0, 0.0, 1.0, -10.5, 20.9)">
    <path d="M13.0 -12.45 L17.65 -13.9 16.45 -17.75 11.8 -16.3 11.35 -17.75 21.4 -20.9 21.85 -19.45 17.65 -18.15 18.85 -14.3 23.05 -15.6 23.5 -14.15 13.45 -11.0 13.0 -12.45 M24.65 -8.85 L25.25 -2.45 24.05 -2.35 23.85 -4.8 15.75 -4.0 15.95 -1.55 14.75 -1.45 14.15 -7.85 15.35 -7.95 15.6 -5.45 23.7 -6.25 23.45 -8.75 24.65 -8.85 M18.95 8.1 L20.75 8.05 22.05 7.55 22.9 6.5 23.25 5.0 23.4 4.05 15.35 3.1 15.2 4.35 Q15.0 6.0 15.95 6.9 16.85 7.85 18.95 8.1 M18.75 9.6 Q17.45 9.45 16.5 8.95 L14.9 7.85 Q14.35 7.25 14.1 6.3 13.85 5.4 13.95 4.35 L14.3 1.45 24.75 2.7 24.45 5.1 23.9 7.25 22.8 8.7 21.1 9.5 18.75 9.6 M13.0 11.45 L22.95 14.9 20.55 21.7 19.4 21.3 21.3 15.9 18.2 14.85 16.5 19.8 15.35 19.4 17.05 14.45 13.65 13.25 11.65 18.95 10.5 18.55 13.0 11.45" fill="#000000" fill-rule="evenodd" stroke="none"/>
  </g>
</svg>
