<?xml version="1.0" encoding="UTF-8" standalone="no"?>
<svg xmlns:xlink="http://www.w3.org/1999/xlink" height="28.4px" width="71.1px" xmlns="http://www.w3.org/2000/svg">
  <g transform="matrix(1.0, 0.0, 0.0, 1.0, 35.55, 14.2)">
    <path d="M24.95 -12.95 Q28.4 -12.3 31.0 -9.7 34.55 -6.15 34.55 -1.2 L34.55 1.2 Q34.55 6.15 31.0 9.65 27.5 13.2 22.55 13.2 L-22.55 13.2 Q-26.8 13.2 -30.05 10.55 L21.75 10.55 Q26.65 10.25 27.6 8.4 36.3 -1.9 24.95 -12.95" fill="#3c1c16" fill-rule="evenodd" stroke="none"/>
    <path d="M-30.05 10.55 L-31.05 9.65 -32.65 7.75 Q-34.55 4.85 -34.55 1.2 L-34.55 -1.2 Q-34.55 -6.15 -31.05 -9.7 -27.5 -13.2 -22.55 -13.2 L22.55 -13.2 24.95 -12.95 Q36.3 -1.9 27.6 8.4 26.65 10.25 21.75 10.55 L-30.05 10.55" fill="#622f25" fill-opacity="0.99607843" fill-rule="evenodd" stroke="none"/>
    <path d="M24.95 -12.95 Q28.4 -12.3 31.0 -9.7 34.55 -6.15 34.55 -1.2 L34.55 1.2 Q34.55 6.15 31.0 9.65 27.5 13.2 22.55 13.2 L-22.55 13.2 Q-26.8 13.2 -30.05 10.55 L-31.05 9.65 -32.65 7.75 Q-34.55 4.85 -34.55 1.2 L-34.55 -1.2 Q-34.55 -6.15 -31.05 -9.7 -27.5 -13.2 -22.55 -13.2 L22.55 -13.2 24.95 -12.95 Z" fill="none" stroke="#341813" stroke-linecap="round" stroke-linejoin="round" stroke-width="2.0"/>
    <path d="M15.6 -0.55 L15.45 0.65 15.05 1.5 14.45 2.0 13.6 2.2 12.7 2.0 Q12.35 1.8 12.1 1.45 L11.7 0.6 11.6 -0.55 Q11.6 -1.25 11.75 -1.75 11.85 -2.25 12.1 -2.6 L12.75 -3.1 13.6 -3.25 Q14.55 -3.25 15.1 -2.55 15.6 -1.9 15.6 -0.55 M14.8 -0.55 L14.5 -2.15 Q14.2 -2.65 13.6 -2.65 13.0 -2.65 12.7 -2.15 12.4 -1.6 12.4 -0.55 12.4 0.5 12.7 1.05 13.0 1.55 13.6 1.55 14.25 1.55 14.5 1.05 L14.8 -0.55 M17.5 -2.55 L17.5 -0.65 20.15 -0.65 20.15 0.0 17.5 0.0 17.5 2.1 16.75 2.1 16.75 -3.15 20.25 -3.15 20.25 -2.55 17.5 -2.55 M22.3 -2.55 L22.3 -0.65 24.95 -0.65 24.95 0.0 22.3 0.0 22.3 2.1 21.55 2.1 21.55 -3.15 25.05 -3.15 25.05 -2.55 22.3 -2.55 M-23.6 -0.55 Q-23.6 -1.6 -23.9 -2.15 -24.2 -2.65 -24.8 -2.65 -25.4 -2.65 -25.7 -2.15 L-26.0 -0.55 -25.7 1.05 Q-25.4 1.55 -24.8 1.55 -24.15 1.55 -23.9 1.05 -23.6 0.5 -23.6 -0.55 M-22.8 -0.55 L-22.95 0.65 -23.35 1.5 Q-23.6 1.85 -23.95 2.0 L-24.8 2.2 -25.7 2.0 -26.3 1.45 -26.7 0.6 -26.8 -0.55 -26.65 -1.75 -26.3 -2.6 -25.65 -3.1 -24.8 -3.25 Q-23.85 -3.25 -23.3 -2.55 -22.8 -1.9 -22.8 -0.55 M-19.15 2.1 L-21.15 -2.3 -21.15 -1.95 -21.1 -1.65 -21.1 -1.3 -21.1 2.1 -21.75 2.1 -21.75 -3.15 -20.9 -3.15 -18.85 1.3 -18.85 0.95 -18.9 0.6 -18.9 0.2 -18.9 -3.15 -18.25 -3.15 -18.25 2.1 -19.15 2.1" fill="#ffffff" fill-opacity="0.69803923" fill-rule="evenodd" stroke="none"/>
  </g>
</svg>
