<?xml version="1.0" encoding="UTF-8" standalone="no"?>
<svg xmlns:xlink="http://www.w3.org/1999/xlink" height="14.9px" width="14.9px" xmlns="http://www.w3.org/2000/svg">
  <g transform="matrix(1.0, 0.0, 0.0, 1.0, 8.35, 7.65)">
    <path d="M5.55 3.6 Q6.55 4.05 6.55 5.25 L6.1 6.4 Q5.4 7.25 4.05 7.25 2.6 7.25 1.95 6.35 1.55 5.8 1.55 5.25 1.55 3.2 4.05 3.3 L5.55 3.6 5.55 5.05 5.55 3.6 M-4.35 3.25 Q-3.35 3.75 -3.35 4.95 -3.35 5.55 -3.8 6.1 -4.45 6.95 -5.85 6.95 -7.25 6.95 -7.95 6.05 -8.35 5.45 -8.35 4.95 -8.35 2.9 -5.85 2.95 L-4.35 3.25 -4.45 4.85 -4.35 3.25" fill="#000000" fill-rule="evenodd" stroke="none"/>
    <path d="M5.55 -3.45 L5.55 -6.5 Q0.6 -5.4 -4.0 -6.65 L-4.1 -3.45 -4.35 3.25 -4.45 4.85 M5.55 -3.45 L5.55 3.6 5.55 5.05" fill="none" stroke="#000000" stroke-linecap="round" stroke-linejoin="round" stroke-width="2.0"/>
    <path d="M-4.1 -3.45 Q0.5 -1.85 5.55 -3.45 Z" fill="none" stroke="#000000" stroke-linecap="round" stroke-linejoin="round" stroke-width="1.0"/>
  </g>
</svg>
