<?xml version="1.0" encoding="UTF-8" standalone="no"?>
<svg xmlns:xlink="http://www.w3.org/1999/xlink" height="59.7px" width="207.7px" xmlns="http://www.w3.org/2000/svg">
  <g transform="matrix(1.0, 0.0, 0.0, 1.0, 103.85, 29.85)">
    <path d="M-53.6 20.4 Q-62.05 28.85 -74.0 28.85 -85.95 28.85 -94.4 20.4 -102.85 11.95 -102.85 0.0 -102.85 -11.95 -94.4 -20.4 -85.95 -28.85 -74.0 -28.85 -62.1 -28.85 -53.65 -20.45 L98.85 -20.45 Q102.85 -20.45 102.85 -16.45 L102.85 16.35 Q102.85 20.35 98.85 20.35 L-53.55 20.35 -53.6 20.4" fill="url(#gradient0)" fill-rule="evenodd" stroke="none"/>
    <path d="M-53.6 20.4 Q-62.05 28.85 -74.0 28.85 -85.95 28.85 -94.4 20.4 -102.85 11.95 -102.85 0.0 -102.85 -11.95 -94.4 -20.4 -85.95 -28.85 -74.0 -28.85 -62.1 -28.85 -53.65 -20.45 L98.85 -20.45 Q102.85 -20.45 102.85 -16.45 L102.85 16.35 Q102.85 20.35 98.85 20.35 L-53.55 20.35 -53.6 20.4 Z" fill="none" stroke="#e9ddc2" stroke-linecap="round" stroke-linejoin="round" stroke-width="2.0"/>
  </g>
  <defs>
    <linearGradient gradientTransform="matrix(0.1255, 0.0, 0.0, 0.0352, 0.0, 0.0)" gradientUnits="userSpaceOnUse" id="gradient0" spreadMethod="pad" x1="-819.2" x2="819.2">
      <stop offset="0.3137254901960784" stop-color="#ffffff"/>
      <stop offset="1.0" stop-color="#e9ddc2"/>
    </linearGradient>
  </defs>
</svg>
