<?xml version="1.0" encoding="UTF-8" standalone="no"?>
<svg xmlns:xlink="http://www.w3.org/1999/xlink" height="46.0px" width="52.0px" xmlns="http://www.w3.org/2000/svg">
  <g transform="matrix(1.0, 0.0, 0.0, 1.0, 27.5, 26.0)">
    <path d="M14.5 -24.0 L12.5 -24.0 12.5 -26.0 18.5 -26.0 18.5 -24.0 20.5 -24.0 20.5 -22.0 22.5 -22.0 22.5 -18.0 24.5 -18.0 24.5 -10.0 22.5 -10.0 22.5 -8.0 20.5 -8.0 20.5 -6.0 16.5 -6.0 16.5 0.0 18.5 0.0 18.5 4.0 20.5 4.0 20.5 10.0 18.5 10.0 18.5 12.0 14.5 12.0 14.5 8.0 12.5 8.0 12.5 6.0 8.5 6.0 8.5 4.0 6.5 4.0 6.5 6.0 2.5 6.0 2.5 8.0 -1.5 8.0 -1.5 12.0 -3.5 12.0 -3.5 14.0 -5.5 14.0 -5.5 16.0 -7.5 16.0 -7.5 18.0 -9.5 18.0 -9.5 20.0 -13.5 20.0 -13.5 16.0 -11.5 16.0 -11.5 12.0 -13.5 12.0 -13.5 14.0 -15.5 14.0 -15.5 16.0 -19.5 16.0 -19.5 12.0 -17.5 12.0 -17.5 10.0 -19.5 10.0 -19.5 6.0 -17.5 6.0 -17.5 4.0 -19.5 4.0 -19.5 2.0 -23.5 2.0 -23.5 0.0 -25.5 0.0 -25.5 -2.0 -27.5 -2.0 -27.5 -8.0 -25.5 -8.0 -25.5 -14.0 -23.5 -14.0 -23.5 -18.0 -21.5 -18.0 -21.5 -22.0 -19.5 -22.0 -19.5 -24.0 -17.5 -24.0 -17.5 -22.0 -15.5 -22.0 -15.5 -18.0 -13.5 -18.0 -13.5 -16.0 -11.5 -16.0 -11.5 -14.0 -9.5 -14.0 -9.5 -16.0 -5.5 -16.0 -5.5 -18.0 0.5 -18.0 0.5 -14.0 -1.5 -14.0 -1.5 -10.0 -3.5 -10.0 -3.5 -8.0 -1.5 -8.0 -1.5 -6.0 2.5 -6.0 2.5 -8.0 4.5 -8.0 4.5 -10.0 10.5 -10.0 10.5 -8.0 6.5 -8.0 4.5 -8.0 4.5 -6.0 2.5 -6.0 2.5 -4.0 0.5 -4.0 -3.5 -4.0 -3.5 -6.0 -5.5 -6.0 -5.5 -8.0 -5.5 -10.0 -3.5 -10.0 -3.5 -12.0 -3.5 -14.0 -1.5 -14.0 -1.5 -16.0 -5.5 -16.0 -5.5 -14.0 -7.5 -14.0 -9.5 -14.0 -9.5 -12.0 -11.5 -12.0 -11.5 -14.0 -13.5 -14.0 -13.5 -16.0 -15.5 -16.0 -15.5 -18.0 -17.5 -18.0 -17.5 -22.0 -19.5 -22.0 -19.5 -18.0 -21.5 -18.0 -21.5 -14.0 -23.5 -14.0 -23.5 -12.0 -23.5 -10.0 -23.5 -8.0 -25.5 -8.0 -25.5 -6.0 -25.5 -4.0 -25.5 -2.0 -23.5 -2.0 -23.5 0.0 -21.5 0.0 -19.5 0.0 -19.5 2.0 -15.5 2.0 -15.5 4.0 -15.5 6.0 -17.5 6.0 -17.5 8.0 -15.5 8.0 -15.5 10.0 -15.5 12.0 -17.5 12.0 -17.5 14.0 -15.5 14.0 -15.5 12.0 -13.5 12.0 -13.5 10.0 -13.5 8.0 -11.5 8.0 -9.5 8.0 -9.5 10.0 -11.5 10.0 -11.5 12.0 -9.5 12.0 -9.5 16.0 -11.5 16.0 -11.5 18.0 -9.5 18.0 -9.5 16.0 -7.5 16.0 -7.5 14.0 -5.5 14.0 -5.5 12.0 -3.5 12.0 -3.5 10.0 -3.5 8.0 -1.5 8.0 -1.5 6.0 0.5 6.0 2.5 6.0 2.5 4.0 6.5 4.0 6.5 2.0 8.5 2.0 8.5 4.0 12.5 4.0 12.5 6.0 14.5 6.0 14.5 8.0 16.5 8.0 16.5 10.0 18.5 10.0 18.5 4.0 16.5 4.0 16.5 2.0 16.5 0.0 14.5 0.0 14.5 -2.0 14.5 -6.0 16.5 -6.0 16.5 -10.0 18.5 -10.0 18.5 -8.0 20.5 -8.0 20.5 -10.0 22.5 -10.0 22.5 -18.0 20.5 -18.0 20.5 -22.0 18.5 -22.0 18.5 -24.0 16.5 -24.0 14.5 -24.0 M12.5 -20.0 L10.5 -20.0 10.5 -22.0 14.5 -22.0 16.5 -22.0 16.5 -20.0 14.5 -20.0 12.5 -20.0 M14.5 -18.0 L16.5 -18.0 16.5 -16.0 18.5 -16.0 18.5 -14.0 20.5 -14.0 20.5 -10.0 18.5 -10.0 18.5 -14.0 16.5 -14.0 16.5 -16.0 12.5 -16.0 12.5 -12.0 14.5 -12.0 14.5 -6.0 12.5 -6.0 12.5 -8.0 12.5 -12.0 10.5 -12.0 10.5 -16.0 12.5 -16.0 12.5 -18.0 14.5 -18.0 M-15.5 -4.0 L-15.5 -2.0 -17.5 -2.0 -17.5 -4.0 -15.5 -4.0 M-9.5 12.0 L-9.5 10.0 -7.5 10.0 -7.5 12.0 -9.5 12.0" fill="#363637" fill-rule="evenodd" stroke="none"/>
    <path d="M16.5 -24.0 L18.5 -24.0 18.5 -22.0 20.5 -22.0 20.5 -18.0 22.5 -18.0 22.5 -10.0 20.5 -10.0 20.5 -14.0 20.5 -16.0 18.5 -16.0 18.5 -18.0 16.5 -18.0 14.5 -18.0 14.5 -20.0 16.5 -20.0 16.5 -22.0 16.5 -24.0 M-19.5 -18.0 L-19.5 -22.0 -17.5 -22.0 -17.5 -18.0 -15.5 -18.0 -15.5 -16.0 -17.5 -16.0 -19.5 -16.0 -19.5 -18.0 M-13.5 -14.0 L-11.5 -14.0 -11.5 -12.0 -9.5 -12.0 -9.5 -10.0 -13.5 -10.0 -13.5 -8.0 -15.5 -8.0 -15.5 -10.0 -17.5 -10.0 -17.5 -8.0 -19.5 -8.0 -19.5 -6.0 -17.5 -6.0 -17.5 -4.0 -19.5 -4.0 -21.5 -4.0 -21.5 -6.0 -23.5 -6.0 -23.5 -8.0 -21.5 -8.0 -21.5 -10.0 -21.5 -12.0 -19.5 -12.0 -19.5 -14.0 -17.5 -14.0 -13.5 -14.0 M-7.5 -14.0 L-5.5 -14.0 -5.5 -16.0 -1.5 -16.0 -1.5 -14.0 -3.5 -14.0 -3.5 -12.0 -5.5 -12.0 -7.5 -12.0 -7.5 -14.0 M-5.5 -10.0 L-5.5 -8.0 -7.5 -8.0 -7.5 -10.0 -5.5 -10.0 M-3.5 -4.0 L0.5 -4.0 0.5 -2.0 4.5 -2.0 4.5 -6.0 6.5 -6.0 6.5 -8.0 10.5 -8.0 10.5 -6.0 12.5 -6.0 12.5 -4.0 10.5 -4.0 10.5 -6.0 8.5 -6.0 8.5 -4.0 10.5 -4.0 10.5 -2.0 6.5 -2.0 4.5 -2.0 4.5 0.0 0.5 0.0 -1.5 0.0 -1.5 -2.0 -3.5 -2.0 -3.5 2.0 -5.5 2.0 -5.5 0.0 -7.5 0.0 -7.5 -2.0 -5.5 -2.0 -3.5 -2.0 -3.5 -4.0 M-9.5 -4.0 L-9.5 -6.0 -7.5 -6.0 -7.5 -4.0 -9.5 -4.0" fill="#9774c3" fill-rule="evenodd" stroke="none"/>
    <path d="M10.5 -10.0 L10.5 -12.0 8.5 -12.0 8.5 -16.0 10.5 -16.0 10.5 -18.0 12.5 -18.0 12.5 -20.0 14.5 -20.0 14.5 -18.0 12.5 -18.0 12.5 -16.0 10.5 -16.0 10.5 -12.0 12.5 -12.0 12.5 -8.0 10.5 -8.0 10.5 -10.0 M14.5 -22.0 L14.5 -24.0 16.5 -24.0 16.5 -22.0 14.5 -22.0 M20.5 -10.0 L20.5 -8.0 18.5 -8.0 18.5 -10.0 20.5 -10.0 M14.5 -6.0 L14.5 -2.0 12.5 -2.0 12.5 -4.0 12.5 -6.0 14.5 -6.0 M14.5 0.0 L16.5 0.0 16.5 2.0 14.5 2.0 14.5 6.0 12.5 6.0 12.5 4.0 8.5 4.0 8.5 2.0 8.5 0.0 6.5 0.0 6.5 2.0 2.5 2.0 2.5 4.0 0.5 4.0 -1.5 4.0 -1.5 6.0 -1.5 8.0 -3.5 8.0 -5.5 8.0 -5.5 10.0 -7.5 10.0 -7.5 8.0 -7.5 6.0 -5.5 6.0 -5.5 4.0 -7.5 4.0 -7.5 2.0 -5.5 2.0 -3.5 2.0 0.5 2.0 0.5 0.0 4.5 0.0 6.5 0.0 6.5 -2.0 10.5 -2.0 10.5 2.0 12.5 2.0 12.5 0.0 14.5 0.0 M-25.5 -6.0 L-25.5 -8.0 -23.5 -8.0 -23.5 -6.0 -25.5 -6.0 M-15.5 -16.0 L-13.5 -16.0 -13.5 -14.0 -17.5 -14.0 -17.5 -16.0 -15.5 -16.0 M4.5 -6.0 L4.5 -8.0 6.5 -8.0 6.5 -6.0 4.5 -6.0 M16.5 -18.0 L18.5 -18.0 18.5 -16.0 20.5 -16.0 20.5 -14.0 18.5 -14.0 18.5 -16.0 16.5 -16.0 16.5 -18.0 M-5.5 -4.0 L-3.5 -4.0 -3.5 -2.0 -5.5 -2.0 -5.5 -4.0 M-9.5 4.0 L-7.5 4.0 -7.5 6.0 -9.5 6.0 -9.5 4.0" fill="#6150b1" fill-rule="evenodd" stroke="none"/>
    <path d="M14.5 -2.0 L14.5 0.0 12.5 0.0 12.5 2.0 10.5 2.0 10.5 -2.0 12.5 -2.0 14.5 -2.0 M16.5 2.0 L16.5 4.0 18.5 4.0 18.5 10.0 16.5 10.0 16.5 8.0 16.5 6.0 14.5 6.0 14.5 2.0 16.5 2.0 M6.5 2.0 L6.5 4.0 2.5 4.0 2.5 6.0 0.5 6.0 0.5 4.0 2.5 4.0 2.5 2.0 6.5 2.0 M-3.5 8.0 L-3.5 10.0 -5.5 10.0 -5.5 12.0 -5.5 14.0 -7.5 14.0 -7.5 16.0 -9.5 16.0 -9.5 18.0 -11.5 18.0 -11.5 16.0 -9.5 16.0 -9.5 12.0 -7.5 12.0 -7.5 10.0 -9.5 10.0 -9.5 8.0 -11.5 8.0 -11.5 6.0 -15.5 6.0 -15.5 4.0 -13.5 4.0 -13.5 2.0 -11.5 2.0 -11.5 4.0 -9.5 4.0 -9.5 6.0 -9.5 8.0 -7.5 8.0 -7.5 10.0 -5.5 10.0 -5.5 8.0 -3.5 8.0 M-13.5 10.0 L-13.5 12.0 -15.5 12.0 -15.5 14.0 -17.5 14.0 -17.5 12.0 -15.5 12.0 -15.5 10.0 -13.5 10.0 M-15.5 8.0 L-17.5 8.0 -17.5 6.0 -15.5 6.0 -15.5 8.0 M-15.5 2.0 L-19.5 2.0 -19.5 0.0 -17.5 0.0 -15.5 0.0 -15.5 2.0 M-21.5 0.0 L-23.5 0.0 -23.5 -2.0 -21.5 -2.0 -21.5 0.0 M-23.5 -8.0 L-23.5 -10.0 -21.5 -10.0 -21.5 -8.0 -23.5 -8.0 M0.5 -4.0 L2.5 -4.0 2.5 -6.0 4.5 -6.0 4.5 -2.0 0.5 -2.0 0.5 -4.0 M10.5 -6.0 L10.5 -4.0 8.5 -4.0 8.5 -6.0 10.5 -6.0 M0.5 0.0 L0.5 2.0 -3.5 2.0 -3.5 -2.0 -1.5 -2.0 -1.5 0.0 0.5 0.0 M-7.5 4.0 L-5.5 4.0 -5.5 6.0 -7.5 6.0 -7.5 4.0 M-17.5 -8.0 L-15.5 -8.0 -15.5 -6.0 -17.5 -6.0 -17.5 -8.0" fill="#f3ce68" fill-rule="evenodd" stroke="none"/>
    <path d="M-9.5 -12.0 L-9.5 -14.0 -7.5 -14.0 -7.5 -12.0 -9.5 -12.0 M-3.5 -12.0 L-3.5 -10.0 -5.5 -10.0 -5.5 -12.0 -3.5 -12.0 M-5.5 -8.0 L-5.5 -6.0 -7.5 -6.0 -7.5 -8.0 -5.5 -8.0 M12.5 -4.0 L12.5 -2.0 10.5 -2.0 10.5 -4.0 12.5 -4.0 M4.5 -2.0 L6.5 -2.0 6.5 0.0 4.5 0.0 4.5 -2.0 M-23.5 -6.0 L-21.5 -6.0 -21.5 -4.0 -23.5 -4.0 -23.5 -6.0 M-21.5 -12.0 L-21.5 -14.0 -19.5 -14.0 -19.5 -16.0 -17.5 -16.0 -17.5 -14.0 -19.5 -14.0 -19.5 -12.0 -21.5 -12.0" fill="#6d6baa" fill-rule="evenodd" stroke="none"/>
    <path d="M8.5 2.0 L6.5 2.0 6.5 0.0 8.5 0.0 8.5 2.0 M0.5 6.0 L-1.5 6.0 -1.5 4.0 0.5 4.0 0.5 6.0 M12.5 -8.0 L12.5 -6.0 10.5 -6.0 10.5 -8.0 12.5 -8.0 M-5.5 2.0 L-7.5 2.0 -7.5 4.0 -9.5 4.0 -9.5 2.0 -7.5 2.0 -7.5 0.0 -5.5 0.0 -5.5 2.0 M-7.5 6.0 L-7.5 8.0 -9.5 8.0 -9.5 6.0 -7.5 6.0 M-7.5 -6.0 L-5.5 -6.0 -5.5 -4.0 -7.5 -4.0 -7.5 -6.0 M-7.5 -2.0 L-7.5 0.0 -11.5 0.0 -11.5 -2.0 -9.5 -2.0 -7.5 -2.0" fill="#575757" fill-rule="evenodd" stroke="none"/>
    <path d="M16.5 8.0 L14.5 8.0 14.5 6.0 16.5 6.0 16.5 8.0 M-3.5 10.0 L-3.5 12.0 -5.5 12.0 -5.5 10.0 -3.5 10.0 M-11.5 8.0 L-13.5 8.0 -13.5 10.0 -15.5 10.0 -15.5 8.0 -15.5 6.0 -11.5 6.0 -11.5 8.0 M-15.5 4.0 L-15.5 2.0 -15.5 0.0 -13.5 0.0 -11.5 0.0 -11.5 2.0 -9.5 2.0 -9.5 4.0 -11.5 4.0 -11.5 2.0 -13.5 2.0 -13.5 4.0 -15.5 4.0" fill="#b2894c" fill-rule="evenodd" stroke="none"/>
    <path d="M-25.5 -4.0 L-25.5 -6.0 -23.5 -6.0 -23.5 -4.0 -25.5 -4.0 M-23.5 -12.0 L-23.5 -14.0 -21.5 -14.0 -21.5 -18.0 -19.5 -18.0 -19.5 -16.0 -19.5 -14.0 -21.5 -14.0 -21.5 -12.0 -23.5 -12.0 M-21.5 -4.0 L-19.5 -4.0 -19.5 -2.0 -21.5 -2.0 -21.5 -4.0 M-17.5 -4.0 L-17.5 -6.0 -15.5 -6.0 -15.5 -4.0 -17.5 -4.0 M-15.5 -8.0 L-13.5 -8.0 -13.5 -10.0 -9.5 -10.0 -9.5 -12.0 -7.5 -12.0 -5.5 -12.0 -5.5 -10.0 -7.5 -10.0 -7.5 -8.0 -7.5 -6.0 -9.5 -6.0 -9.5 -4.0 -11.5 -4.0 -11.5 -6.0 -13.5 -6.0 -15.5 -6.0 -15.5 -8.0 M-15.5 -2.0 L-13.5 -2.0 -13.5 0.0 -15.5 0.0 -17.5 0.0 -17.5 -2.0 -15.5 -2.0" fill="#fc7ca8" fill-rule="evenodd" stroke="none"/>
    <path d="M-19.5 0.0 L-21.5 0.0 -21.5 -2.0 -19.5 -2.0 -17.5 -2.0 -17.5 0.0 -19.5 0.0 M-23.5 -2.0 L-25.5 -2.0 -25.5 -4.0 -23.5 -4.0 -23.5 -2.0 M-23.5 -10.0 L-23.5 -12.0 -21.5 -12.0 -21.5 -10.0 -23.5 -10.0 M-5.5 -6.0 L-3.5 -6.0 -3.5 -4.0 -5.5 -4.0 -5.5 -6.0 M-17.5 -6.0 L-19.5 -6.0 -19.5 -8.0 -17.5 -8.0 -17.5 -10.0 -15.5 -10.0 -15.5 -8.0 -17.5 -8.0 -17.5 -6.0 M-5.5 -2.0 L-7.5 -2.0 -9.5 -2.0 -9.5 -4.0 -7.5 -4.0 -5.5 -4.0 -5.5 -2.0 M-7.5 0.0 L-7.5 2.0 -9.5 2.0 -11.5 2.0 -11.5 0.0 -7.5 0.0" fill="#fef172" fill-rule="evenodd" stroke="none"/>
    <path d="M-19.5 -4.0 L-17.5 -4.0 -17.5 -2.0 -19.5 -2.0 -19.5 -4.0 M-21.5 -4.0 L-21.5 -2.0 -23.5 -2.0 -23.5 -4.0 -21.5 -4.0" fill="#f0518f" fill-rule="evenodd" stroke="none"/>
    <path d="M-15.5 -6.0 L-13.5 -6.0 -13.5 -4.0 -13.5 -2.0 -15.5 -2.0 -15.5 -4.0 -15.5 -6.0" fill="#76cf6f" fill-rule="evenodd" stroke="none"/>
    <path d="M-13.5 -6.0 L-11.5 -6.0 -11.5 -4.0 -13.5 -4.0 -13.5 -6.0" fill="#d1d1d0" fill-rule="evenodd" stroke="none"/>
    <path d="M-13.5 -2.0 L-13.5 -4.0 -11.5 -4.0 -11.5 -2.0 -13.5 -2.0" fill="#fdfefe" fill-rule="evenodd" stroke="none"/>
    <path d="M-11.5 -4.0 L-9.5 -4.0 -9.5 -2.0 -11.5 -2.0 -11.5 -4.0 M-13.5 0.0 L-13.5 -2.0 -11.5 -2.0 -11.5 0.0 -13.5 0.0" fill="#d0458b" fill-rule="evenodd" stroke="none"/>
  </g>
</svg>
