<?xml version="1.0" encoding="UTF-8" standalone="no"?>
<svg xmlns:xlink="http://www.w3.org/1999/xlink" height="50.0px" width="46.0px" xmlns="http://www.w3.org/2000/svg">
  <g transform="matrix(1.0, 0.0, 0.0, 1.0, 27.6, 27.1)">
    <path d="M10.4 -17.1 L10.4 -19.1 14.4 -19.1 14.4 -17.1 10.4 -17.1" fill="#3b3b39" fill-rule="evenodd" stroke="none"/>
    <path d="M14.4 -19.1 L14.4 -21.1 18.4 -21.1 18.4 -17.1 16.4 -17.1 16.4 -19.1 14.4 -19.1" fill="#3a3a39" fill-rule="evenodd" stroke="none"/>
    <path d="M10.4 -17.1 L14.4 -17.1 14.4 -15.1 12.4 -15.1 12.4 -9.1 10.4 -9.1 10.4 -11.1 8.4 -11.1 8.4 -15.1 10.4 -15.1 10.4 -17.1 M-23.6 -15.1 L-23.6 -19.1 -21.6 -19.1 -21.6 -21.1 -19.6 -21.1 -19.6 -23.1 -15.6 -23.1 -15.6 -25.1 -11.6 -25.1 -11.6 -23.1 -15.6 -23.1 -15.6 -21.1 -17.6 -21.1 -17.6 -19.1 -19.6 -19.1 -19.6 -17.1 -21.6 -17.1 -21.6 -15.1 -23.6 -15.1" fill="#828b9d" fill-rule="evenodd" stroke="none"/>
    <path d="M14.4 -15.1 L14.4 -7.1 10.4 -7.1 10.4 -9.1 12.4 -9.1 12.4 -15.1 14.4 -15.1 M14.4 8.9 L14.4 12.9 12.4 12.9 12.4 14.9 8.4 14.9 8.4 12.9 6.4 12.9 6.4 10.9 8.4 10.9 8.4 6.9 4.4 6.9 4.4 4.9 2.4 4.9 2.4 8.9 4.4 8.9 4.4 12.9 2.4 12.9 2.4 18.9 0.4 18.9 0.4 20.9 -1.6 20.9 -1.6 22.9 -5.6 22.9 -5.6 20.9 -9.6 20.9 -9.6 16.9 -7.6 16.9 -7.6 14.9 -9.6 14.9 -9.6 12.9 -11.6 12.9 -11.6 14.9 -13.6 14.9 -13.6 16.9 -19.6 16.9 -19.6 14.9 -21.6 14.9 -21.6 12.9 -19.6 12.9 -19.6 10.9 -17.6 10.9 -17.6 8.9 -15.6 8.9 -15.6 6.9 -17.6 6.9 -17.6 4.9 -19.6 4.9 -19.6 2.9 -17.6 2.9 -17.6 0.9 -19.6 0.9 -19.6 -1.1 -21.6 -1.1 -21.6 -5.1 -23.6 -5.1 -23.6 -3.1 -25.6 -3.1 -25.6 -5.1 -27.6 -5.1 -27.6 -15.1 -25.6 -15.1 -25.6 -19.1 -23.6 -19.1 -23.6 -15.1 -25.6 -15.1 -25.6 -5.1 -23.6 -5.1 -23.6 -7.1 -21.6 -7.1 -21.6 -5.1 -19.6 -5.1 -19.6 -1.1 -17.6 -1.1 -17.6 0.9 -15.6 0.9 -15.6 2.9 -17.6 2.9 -17.6 4.9 -15.6 4.9 -15.6 6.9 -13.6 6.9 -13.6 8.9 -15.6 8.9 -15.6 10.9 -17.6 10.9 -17.6 12.9 -19.6 12.9 -19.6 14.9 -15.6 14.9 -13.6 14.9 -13.6 12.9 -11.6 12.9 -11.6 10.9 -9.6 10.9 -9.6 12.9 -7.6 12.9 -7.6 14.9 -5.6 14.9 -5.6 16.9 -7.6 16.9 -7.6 18.9 -5.6 18.9 -5.6 20.9 -3.6 20.9 -1.6 20.9 -1.6 18.9 0.4 18.9 0.4 12.9 2.4 12.9 2.4 10.9 2.4 8.9 0.4 8.9 0.4 4.9 2.4 4.9 2.4 2.9 4.4 2.9 4.4 4.9 6.4 4.9 8.4 4.9 8.4 6.9 10.4 6.9 10.4 10.9 8.4 10.9 8.4 12.9 12.4 12.9 12.4 10.9 12.4 8.9 14.4 8.9 M-11.6 -23.1 L-11.6 -21.1 -15.6 -21.1 -15.6 -23.1 -11.6 -23.1 M-3.6 10.9 L-3.6 12.9 -3.6 14.9 -5.6 14.9 -5.6 12.9 -7.6 12.9 -7.6 10.9 -5.6 10.9 -3.6 10.9 M-19.6 -17.1 L-19.6 -19.1 -17.6 -19.1 -17.6 -17.1 -15.6 -17.1 -15.6 -15.1 -19.6 -15.1 -19.6 -17.1 M-15.6 -7.1 L-13.6 -7.1 -13.6 -5.1 -15.6 -5.1 -15.6 -7.1" fill="#383838" fill-rule="evenodd" stroke="none"/>
    <path d="M4.4 -9.1 L4.4 -11.1 6.4 -11.1 6.4 -9.1 4.4 -9.1 M8.4 -15.1 L8.4 -17.1 10.4 -17.1 10.4 -15.1 8.4 -15.1" fill="#3e3f3b" fill-rule="evenodd" stroke="none"/>
    <path d="M16.4 -17.1 L16.4 -15.1 14.4 -15.1 14.4 -17.1 16.4 -17.1 M-15.6 -25.1 L-15.6 -27.1 -9.6 -27.1 -9.6 -23.1 -11.6 -23.1 -11.6 -25.1 -15.6 -25.1 M-15.6 -21.1 L-15.6 -19.1 -17.6 -19.1 -17.6 -21.1 -15.6 -21.1" fill="#393939" fill-rule="evenodd" stroke="none"/>
    <path d="M14.4 -17.1 L14.4 -19.1 16.4 -19.1 16.4 -17.1 14.4 -17.1" fill="#818a9b" fill-rule="evenodd" stroke="none"/>
    <path d="M6.4 -11.1 L6.4 -15.1 8.4 -15.1 8.4 -11.1 6.4 -11.1" fill="#3e3e3b" fill-rule="evenodd" stroke="none"/>
    <path d="M6.4 -9.1 L6.4 -11.1 8.4 -11.1 10.4 -11.1 10.4 -9.1 8.4 -9.1 8.4 -7.1 6.4 -7.1 6.4 -9.1" fill="#70707a" fill-rule="evenodd" stroke="none"/>
    <path d="M8.4 -7.1 L8.4 -5.1 6.4 -5.1 6.4 -7.1 8.4 -7.1 M2.4 -7.1 L4.4 -7.1 4.4 -5.1 2.4 -5.1 2.4 -7.1" fill="#606060" fill-rule="evenodd" stroke="none"/>
    <path d="M10.4 -9.1 L10.4 -7.1 8.4 -7.1 8.4 -9.1 10.4 -9.1 M-3.6 20.9 L-5.6 20.9 -5.6 18.9 -5.6 16.9 -1.6 16.9 -1.6 18.9 -3.6 18.9 -3.6 20.9 M-13.6 8.9 L-13.6 6.9 -15.6 6.9 -15.6 4.9 -13.6 4.9 -13.6 6.9 -11.6 6.9 -11.6 10.9 -13.6 10.9 -13.6 8.9 M-15.6 2.9 L-15.6 0.9 -13.6 0.9 -13.6 -1.1 -11.6 -1.1 -11.6 -3.1 -9.6 -3.1 -9.6 -5.1 -9.6 -7.1 -11.6 -7.1 -13.6 -7.1 -13.6 -9.1 -9.6 -9.1 -9.6 -7.1 -7.6 -7.1 -7.6 -3.1 -9.6 -3.1 -9.6 0.9 -7.6 0.9 -7.6 -1.1 -5.6 -1.1 -5.6 -3.1 -3.6 -3.1 -3.6 -1.1 -5.6 -1.1 -5.6 0.9 -7.6 0.9 -7.6 2.9 -9.6 2.9 -11.6 2.9 -11.6 0.9 -13.6 0.9 -13.6 2.9 -15.6 2.9 M4.4 -1.1 L4.4 0.9 2.4 0.9 2.4 2.9 0.4 2.9 0.4 0.9 0.4 -1.1 2.4 -1.1 4.4 -1.1 M0.4 2.9 L0.4 4.9 -1.6 4.9 -1.6 8.9 -3.6 8.9 -3.6 10.9 -5.6 10.9 -5.6 8.9 -3.6 8.9 -3.6 2.9 0.4 2.9 M-21.6 -15.1 L-21.6 -17.1 -19.6 -17.1 -19.6 -15.1 -19.6 -13.1 -21.6 -13.1 -21.6 -9.1 -19.6 -9.1 -19.6 -7.1 -15.6 -7.1 -15.6 -5.1 -19.6 -5.1 -19.6 -7.1 -21.6 -7.1 -21.6 -9.1 -23.6 -9.1 -23.6 -13.1 -21.6 -13.1 -21.6 -15.1" fill="#5e5e5e" fill-rule="evenodd" stroke="none"/>
    <path d="M4.4 -7.1 L4.4 -9.1 6.4 -9.1 6.4 -7.1 4.4 -7.1" fill="#5c5c5a" fill-rule="evenodd" stroke="none"/>
    <path d="M10.4 -7.1 L10.4 -3.1 8.4 -3.1 8.4 -5.1 8.4 -7.1 10.4 -7.1 M-9.6 -17.1 L-5.6 -17.1 -5.6 -15.1 -7.6 -15.1 -9.6 -15.1 -9.6 -17.1 M-3.6 -11.1 L0.4 -11.1 0.4 -9.1 4.4 -9.1 4.4 -7.1 2.4 -7.1 0.4 -7.1 0.4 -9.1 -1.6 -9.1 -3.6 -9.1 -3.6 -11.1" fill="#39393a" fill-rule="evenodd" stroke="none"/>
    <path d="M8.4 -5.1 L8.4 -3.1 10.4 -3.1 10.4 2.9 10.4 4.9 8.4 4.9 6.4 4.9 6.4 2.9 4.4 2.9 4.4 0.9 4.4 -1.1 4.4 -3.1 2.4 -3.1 2.4 -5.1 0.4 -5.1 0.4 -3.1 2.4 -3.1 2.4 -1.1 0.4 -1.1 -1.6 -1.1 -1.6 -3.1 -1.6 -9.1 0.4 -9.1 0.4 -7.1 2.4 -7.1 2.4 -5.1 4.4 -5.1 4.4 -7.1 6.4 -7.1 6.4 -5.1 8.4 -5.1 M-5.6 16.9 L-5.6 14.9 -3.6 14.9 -3.6 12.9 -1.6 12.9 -1.6 16.9 -5.6 16.9 M-9.6 10.9 L-11.6 10.9 -11.6 6.9 -13.6 6.9 -13.6 4.9 -15.6 4.9 -17.6 4.9 -17.6 2.9 -15.6 2.9 -13.6 2.9 -11.6 2.9 -9.6 2.9 -9.6 4.9 -7.6 4.9 -7.6 8.9 -9.6 8.9 -9.6 10.9 M-15.6 -17.1 L-9.6 -17.1 -9.6 -15.1 -7.6 -15.1 -7.6 -13.1 -5.6 -13.1 -5.6 -11.1 -7.6 -11.1 -7.6 -9.1 -9.6 -9.1 -13.6 -9.1 -13.6 -7.1 -15.6 -7.1 -19.6 -7.1 -19.6 -9.1 -21.6 -9.1 -21.6 -13.1 -19.6 -13.1 -19.6 -15.1 -15.6 -15.1 -15.6 -17.1 M0.4 0.9 L0.4 2.9 -3.6 2.9 -3.6 0.9 -1.6 0.9 0.4 0.9 M-17.6 -13.1 L-17.6 -9.1 -15.6 -9.1 -15.6 -13.1 -17.6 -13.1 M-11.6 -7.1 L-9.6 -7.1 -9.6 -5.1 -11.6 -5.1 -11.6 -7.1" fill="#ffffff" fill-rule="evenodd" stroke="none"/>
    <path d="M2.4 -3.1 L0.4 -3.1 0.4 -5.1 2.4 -5.1 2.4 -3.1" fill="#858ea1" fill-rule="evenodd" stroke="none"/>
    <path d="M2.4 -3.1 L4.4 -3.1 4.4 -1.1 2.4 -1.1 2.4 -3.1" fill="#73737a" fill-rule="evenodd" stroke="none"/>
    <path d="M10.4 -3.1 L12.4 -3.1 12.4 2.9 10.4 2.9 10.4 -3.1" fill="#3b3b3d" fill-rule="evenodd" stroke="none"/>
    <path d="M10.4 2.9 L12.4 2.9 12.4 4.9 14.4 4.9 14.4 8.9 12.4 8.9 12.4 10.9 10.4 10.9 10.4 6.9 8.4 6.9 8.4 4.9 10.4 4.9 10.4 2.9 M-5.6 -11.1 L-3.6 -11.1 -3.6 -9.1 -3.6 -3.1 -5.6 -3.1 -5.6 -1.1 -7.6 -1.1 -7.6 0.9 -9.6 0.9 -9.6 -3.1 -7.6 -3.1 -7.6 -7.1 -9.6 -7.1 -9.6 -9.1 -7.6 -9.1 -7.6 -11.1 -5.6 -11.1" fill="#d6d6d6" fill-rule="evenodd" stroke="none"/>
    <path d="M12.4 2.9 L16.4 2.9 16.4 8.9 14.4 8.9 14.4 4.9 12.4 4.9 12.4 2.9" fill="#39393b" fill-rule="evenodd" stroke="none"/>
    <path d="M12.4 10.9 L12.4 12.9 8.4 12.9 8.4 10.9 10.4 10.9 12.4 10.9 M0.4 8.9 L2.4 8.9 2.4 10.9 0.4 10.9 0.4 8.9 M-1.6 18.9 L-1.6 20.9 -3.6 20.9 -3.6 18.9 -1.6 18.9 M-5.6 18.9 L-7.6 18.9 -7.6 16.9 -5.6 16.9 -5.6 18.9 M-17.6 -1.1 L-19.6 -1.1 -19.6 -5.1 -15.6 -5.1 -15.6 -3.1 -15.6 -1.1 -17.6 -1.1 M0.4 -1.1 L0.4 0.9 -1.6 0.9 -1.6 -1.1 0.4 -1.1 M-17.6 -13.1 L-15.6 -13.1 -15.6 -9.1 -17.6 -9.1 -17.6 -13.1" fill="#838c9f" fill-rule="evenodd" stroke="none"/>
    <path d="M6.4 4.9 L4.4 4.9 4.4 2.9 2.4 2.9 2.4 4.9 0.4 4.9 0.4 8.9 0.4 10.9 2.4 10.9 2.4 12.9 0.4 12.9 0.4 18.9 -1.6 18.9 -1.6 16.9 -1.6 12.9 -3.6 12.9 -3.6 10.9 -3.6 8.9 -1.6 8.9 -1.6 4.9 0.4 4.9 0.4 2.9 2.4 2.9 2.4 0.9 4.4 0.9 4.4 2.9 6.4 2.9 6.4 4.9 M-7.6 12.9 L-9.6 12.9 -9.6 10.9 -9.6 8.9 -7.6 8.9 -7.6 4.9 -9.6 4.9 -9.6 2.9 -7.6 2.9 -7.6 0.9 -5.6 0.9 -5.6 -1.1 -3.6 -1.1 -3.6 -3.1 -1.6 -3.1 -1.6 -1.1 -1.6 0.9 -3.6 0.9 -3.6 2.9 -3.6 8.9 -5.6 8.9 -5.6 10.9 -7.6 10.9 -7.6 12.9 M-11.6 10.9 L-11.6 12.9 -13.6 12.9 -13.6 14.9 -15.6 14.9 -15.6 12.9 -17.6 12.9 -17.6 10.9 -15.6 10.9 -15.6 8.9 -13.6 8.9 -13.6 10.9 -11.6 10.9 M-13.6 0.9 L-11.6 0.9 -11.6 2.9 -13.6 2.9 -13.6 0.9" fill="#d7d7d7" fill-rule="evenodd" stroke="none"/>
    <path d="M-19.6 -23.1 L-19.6 -25.1 -15.6 -25.1 -15.6 -23.1 -19.6 -23.1" fill="#3b3b3b" fill-rule="evenodd" stroke="none"/>
    <path d="M-23.6 -19.1 L-23.6 -21.1 -21.6 -21.1 -21.6 -23.1 -19.6 -23.1 -19.6 -21.1 -21.6 -21.1 -21.6 -19.1 -23.6 -19.1" fill="#3e3f3e" fill-rule="evenodd" stroke="none"/>
    <path d="M-15.6 14.9 L-19.6 14.9 -19.6 12.9 -17.6 12.9 -15.6 12.9 -15.6 14.9 M-15.6 0.9 L-17.6 0.9 -17.6 -1.1 -15.6 -1.1 -15.6 -3.1 -11.6 -3.1 -11.6 -1.1 -13.6 -1.1 -13.6 0.9 -15.6 0.9 M-19.6 -5.1 L-21.6 -5.1 -21.6 -7.1 -23.6 -7.1 -23.6 -5.1 -25.6 -5.1 -25.6 -15.1 -23.6 -15.1 -21.6 -15.1 -21.6 -13.1 -23.6 -13.1 -23.6 -9.1 -21.6 -9.1 -21.6 -7.1 -19.6 -7.1 -19.6 -5.1 M-11.6 -3.1 L-11.6 -5.1 -9.6 -5.1 -9.6 -3.1 -11.6 -3.1" fill="#71717c" fill-rule="evenodd" stroke="none"/>
    <path d="M-7.6 -15.1 L-5.6 -15.1 -5.6 -13.1 -7.6 -13.1 -7.6 -15.1" fill="#d8d8d8" fill-rule="evenodd" stroke="none"/>
    <path d="M-5.6 -15.1 L-3.6 -15.1 -3.6 -11.1 -5.6 -11.1 -5.6 -13.1 -5.6 -15.1" fill="#3a3a3c" fill-rule="evenodd" stroke="none"/>
    <path d="M-15.6 -19.1 L-9.6 -19.1 -9.6 -17.1 -15.6 -17.1 -15.6 -19.1" fill="#3a3a3a" fill-rule="evenodd" stroke="none"/>
    <path d="M-13.6 -7.1 L-11.6 -7.1 -11.6 -5.1 -13.6 -5.1 -13.6 -7.1" fill="#bc544d" fill-rule="evenodd" stroke="none"/>
    <path d="M-15.6 -3.1 L-15.6 -5.1 -13.6 -5.1 -11.6 -5.1 -11.6 -3.1 -15.6 -3.1" fill="#fc5e52" fill-rule="evenodd" stroke="none"/>
    <path d="M-3.6 -9.1 L-1.6 -9.1 -1.6 -3.1 -3.6 -3.1 -3.6 -9.1" fill="#5f5f5f" fill-rule="evenodd" stroke="none"/>
  </g>
</svg>
