<?xml version="1.0" encoding="UTF-8" standalone="no"?>
<svg xmlns:xlink="http://www.w3.org/1999/xlink" height="42.0px" width="44.0px" xmlns="http://www.w3.org/2000/svg">
  <g transform="matrix(1.0, 0.0, 0.0, 1.0, 25.65, 22.7)">
    <path d="M8.35 7.3 L8.35 11.3 6.35 11.3 6.35 7.3 8.35 7.3 M-1.65 -14.7 L-1.65 -16.7 2.35 -16.7 2.35 -14.7 -1.65 -14.7 M8.35 -18.7 L8.35 -20.7 12.35 -20.7 12.35 -16.7 10.35 -16.7 10.35 -18.7 8.35 -18.7" fill="#3d3d3d" fill-rule="evenodd" stroke="none"/>
    <path d="M8.35 -18.7 L10.35 -18.7 10.35 -16.7 8.35 -16.7 8.35 -18.7 M-21.65 -18.7 L-21.65 -20.7 -19.65 -20.7 -19.65 -18.7 -21.65 -18.7 M-21.65 -14.7 L-23.65 -14.7 -23.65 -16.7 -21.65 -16.7 -21.65 -14.7" fill="#e4baf4" fill-rule="evenodd" stroke="none"/>
    <path d="M10.35 -16.7 L10.35 -14.7 12.35 -14.7 12.35 -12.7 10.35 -12.7 10.35 -14.7 8.35 -14.7 8.35 -16.7 6.35 -16.7 6.35 -18.7 8.35 -18.7 8.35 -16.7 10.35 -16.7 M12.35 -6.7 L14.35 -6.7 14.35 -4.7 12.35 -4.7 12.35 -6.7 M16.35 -6.7 L18.35 -6.7 18.35 -2.7 16.35 -2.7 16.35 -0.7 14.35 -0.7 14.35 -2.7 16.35 -2.7 16.35 -6.7 M-19.65 -20.7 L-17.65 -20.7 -17.65 -18.7 -19.65 -18.7 -19.65 -20.7 M-15.65 -20.7 L-13.65 -20.7 -13.65 -16.7 -11.65 -16.7 -11.65 -14.7 -13.65 -14.7 -13.65 -16.7 -15.65 -16.7 -15.65 -20.7" fill="#3d3d3e" fill-rule="evenodd" stroke="none"/>
    <path d="M10.35 -14.7 L10.35 -12.7 6.35 -12.7 6.35 -10.7 2.35 -10.7 2.35 -8.7 -1.65 -8.7 -1.65 -6.7 -3.65 -6.7 -5.65 -6.7 -5.65 -4.7 -13.65 -4.7 -13.65 -6.7 -15.65 -6.7 -15.65 -8.7 -15.65 -10.7 -13.65 -10.7 -13.65 -8.7 -7.65 -8.7 -7.65 -10.7 -3.65 -10.7 -3.65 -12.7 -1.65 -12.7 -1.65 -14.7 2.35 -14.7 2.35 -12.7 4.35 -12.7 4.35 -14.7 8.35 -14.7 10.35 -14.7" fill="#cd8ade" fill-rule="evenodd" stroke="none"/>
    <path d="M8.35 3.3 L8.35 1.3 10.35 1.3 10.35 3.3 8.35 3.3 M10.35 -0.7 L10.35 -2.7 8.35 -2.7 8.35 -6.7 10.35 -6.7 10.35 -8.7 12.35 -8.7 12.35 -6.7 10.35 -6.7 10.35 -2.7 12.35 -2.7 12.35 -0.7 10.35 -0.7 M14.35 -6.7 L14.35 -8.7 16.35 -8.7 16.35 -6.7 14.35 -6.7 M4.35 15.3 L4.35 17.3 0.35 17.3 0.35 13.3 -1.65 13.3 -1.65 11.3 0.35 11.3 2.35 11.3 2.35 15.3 4.35 15.3 M-17.65 -0.7 L-19.65 -0.7 -19.65 -2.7 -17.65 -2.7 -17.65 -0.7 M-19.65 -4.7 L-19.65 -6.7 -17.65 -6.7 -17.65 -4.7 -19.65 -4.7 M-23.65 -14.7 L-25.65 -14.7 -25.65 -16.7 -23.65 -16.7 -23.65 -14.7 M-17.65 -20.7 L-17.65 -22.7 -15.65 -22.7 -15.65 -20.7 -17.65 -20.7 M2.35 -16.7 L2.35 -18.7 4.35 -18.7 4.35 -20.7 6.35 -20.7 6.35 -18.7 4.35 -18.7 4.35 -16.7 2.35 -16.7" fill="#40403f" fill-rule="evenodd" stroke="none"/>
    <path d="M2.35 -14.7 L4.35 -14.7 4.35 -12.7 2.35 -12.7 2.35 -14.7" fill="#e6baf5" fill-rule="evenodd" stroke="none"/>
    <path d="M4.35 -16.7 L4.35 -14.7 2.35 -14.7 2.35 -16.7 4.35 -16.7" fill="#cd88dd" fill-rule="evenodd" stroke="none"/>
    <path d="M4.35 -14.7 L4.35 -16.7 4.35 -18.7 6.35 -18.7 6.35 -16.7 8.35 -16.7 8.35 -14.7 4.35 -14.7 M-19.65 -18.7 L-17.65 -18.7 -17.65 -20.7 -15.65 -20.7 -15.65 -16.7 -19.65 -16.7 -19.65 -18.7" fill="#e5baf5" fill-rule="evenodd" stroke="none"/>
    <path d="M6.35 -8.7 L6.35 -6.7 4.35 -6.7 4.35 -8.7 6.35 -8.7 M-11.65 -14.7 L-1.65 -14.7 -1.65 -12.7 -3.65 -12.7 -11.65 -12.7 -11.65 -14.7 M-1.65 -2.7 L-1.65 -0.7 -3.65 -0.7 -3.65 -2.7 -1.65 -2.7" fill="#3b3b3b" fill-rule="evenodd" stroke="none"/>
    <path d="M10.35 -12.7 L10.35 -10.7 8.35 -10.7 8.35 -8.7 6.35 -8.7 6.35 -10.7 6.35 -12.7 10.35 -12.7" fill="#3b3b3c" fill-rule="evenodd" stroke="none"/>
    <path d="M6.35 -10.7 L6.35 -8.7 4.35 -8.7 4.35 -6.7 2.35 -6.7 2.35 -4.7 0.35 -4.7 0.35 -6.7 -1.65 -6.7 -1.65 -8.7 2.35 -8.7 2.35 -10.7 6.35 -10.7" fill="#636263" fill-rule="evenodd" stroke="none"/>
    <path d="M4.35 -6.7 L4.35 -2.7 6.35 -2.7 6.35 1.3 2.35 1.3 2.35 -0.7 4.35 -0.7 4.35 -2.7 2.35 -2.7 2.35 -4.7 2.35 -6.7 4.35 -6.7 M2.35 3.3 L8.35 3.3 8.35 5.3 6.35 5.3 4.35 5.3 2.35 5.3 2.35 3.3 M14.35 -0.7 L14.35 3.3 12.35 3.3 12.35 1.3 12.35 -0.7 14.35 -0.7" fill="#3c3c3b" fill-rule="evenodd" stroke="none"/>
    <path d="M2.35 -4.7 L2.35 -2.7 0.35 -2.7 0.35 -4.7 2.35 -4.7 M-5.65 13.3 L-5.65 15.3 -7.65 15.3 -7.65 13.3 -5.65 13.3" fill="#c59450" fill-rule="evenodd" stroke="none"/>
    <path d="M2.35 -2.7 L4.35 -2.7 4.35 -0.7 2.35 -0.7 0.35 -0.7 0.35 1.3 -3.65 1.3 -3.65 -0.7 -1.65 -0.7 -1.65 -2.7 -1.65 -4.7 0.35 -4.7 0.35 -2.7 2.35 -2.7" fill="#f5d680" fill-rule="evenodd" stroke="none"/>
    <path d="M2.35 -0.7 L2.35 1.3 0.35 1.3 0.35 -0.7 2.35 -0.7 M-13.65 -4.7 L-5.65 -4.7 -5.65 -2.7 -7.65 -2.7 -13.65 -2.7 -13.65 -4.7" fill="#656463" fill-rule="evenodd" stroke="none"/>
    <path d="M6.35 5.3 L8.35 5.3 8.35 7.3 6.35 7.3 6.35 5.3 M-1.65 -6.7 L0.35 -6.7 0.35 -4.7 -1.65 -4.7 -1.65 -6.7" fill="#c49350" fill-rule="evenodd" stroke="none"/>
    <path d="M10.35 -6.7 L12.35 -6.7 12.35 -4.7 14.35 -4.7 14.35 -6.7 16.35 -6.7 16.35 -2.7 14.35 -2.7 14.35 -0.7 12.35 -0.7 12.35 -2.7 10.35 -2.7 10.35 -6.7 M0.35 5.3 L0.35 9.3 -1.65 9.3 -3.65 9.3 -3.65 11.3 -5.65 11.3 -7.65 11.3 -7.65 7.3 -5.65 7.3 -5.65 5.3 -3.65 5.3 -3.65 3.3 -1.65 3.3 -1.65 5.3 0.35 5.3" fill="#cd89dd" fill-rule="evenodd" stroke="none"/>
    <path d="M10.35 1.3 L10.35 -0.7 12.35 -0.7 12.35 1.3 10.35 1.3" fill="#5d5c5b" fill-rule="evenodd" stroke="none"/>
    <path d="M10.35 3.3 L10.35 1.3 12.35 1.3 12.35 3.3 10.35 3.3" fill="#f0c475" fill-rule="evenodd" stroke="none"/>
    <path d="M12.35 3.3 L12.35 5.3 10.35 5.3 10.35 3.3 12.35 3.3" fill="#3e3e3b" fill-rule="evenodd" stroke="none"/>
    <path d="M8.35 5.3 L8.35 3.3 10.35 3.3 10.35 5.3 8.35 5.3" fill="#f6d881" fill-rule="evenodd" stroke="none"/>
    <path d="M10.35 5.3 L10.35 7.3 8.35 7.3 8.35 5.3 10.35 5.3 M-15.65 3.3 L-15.65 1.3 -13.65 1.3 -13.65 3.3 -15.65 3.3" fill="#404040" fill-rule="evenodd" stroke="none"/>
    <path d="M2.35 5.3 L4.35 5.3 4.35 7.3 2.35 7.3 2.35 5.3 M-13.65 -0.7 L-11.65 -0.7 -11.65 1.3 -13.65 1.3 -13.65 -0.7 M-9.65 3.3 L-9.65 1.3 -7.65 1.3 -3.65 1.3 -3.65 3.3 -9.65 3.3" fill="#f4d681" fill-rule="evenodd" stroke="none"/>
    <path d="M2.35 1.3 L2.35 3.3 0.35 3.3 0.35 1.3 2.35 1.3 M-19.65 -10.7 L-21.65 -10.7 -21.65 -12.7 -23.65 -12.7 -23.65 -14.7 -21.65 -14.7 -19.65 -14.7 -19.65 -12.7 -19.65 -10.7" fill="#3e3e3d" fill-rule="evenodd" stroke="none"/>
    <path d="M0.35 1.3 L0.35 3.3 -1.65 3.3 -3.65 3.3 -3.65 1.3 0.35 1.3 M-17.65 9.3 L-19.65 9.3 -19.65 7.3 -17.65 7.3 -17.65 5.3 -15.65 5.3 -15.65 9.3 -17.65 9.3" fill="#636364" fill-rule="evenodd" stroke="none"/>
    <path d="M0.35 3.3 L2.35 3.3 2.35 5.3 0.35 5.3 0.35 3.3" fill="#f4d482" fill-rule="evenodd" stroke="none"/>
    <path d="M0.35 5.3 L2.35 5.3 2.35 7.3 2.35 9.3 0.35 9.3 0.35 5.3" fill="#955abc" fill-rule="evenodd" stroke="none"/>
    <path d="M0.35 3.3 L0.35 5.3 -1.65 5.3 -1.65 3.3 0.35 3.3 M-1.65 9.3 L-1.65 11.3 -3.65 11.3 -3.65 9.3 -1.65 9.3" fill="#965bbd" fill-rule="evenodd" stroke="none"/>
    <path d="M2.35 11.3 L0.35 11.3 0.35 9.3 2.35 9.3 2.35 11.3 M-1.65 11.3 L-1.65 13.3 -3.65 13.3 -3.65 11.3 -1.65 11.3 M-15.65 11.3 L-17.65 11.3 -17.65 9.3 -15.65 9.3 -15.65 11.3" fill="#e2b9f3" fill-rule="evenodd" stroke="none"/>
    <path d="M2.35 7.3 L4.35 7.3 4.35 11.3 2.35 11.3 2.35 9.3 2.35 7.3 M-11.65 3.3 L-9.65 3.3 -3.65 3.3 -3.65 5.3 -5.65 5.3 -7.65 5.3 -9.65 5.3 -9.65 7.3 -11.65 7.3 -11.65 3.3" fill="#646363" fill-rule="evenodd" stroke="none"/>
    <path d="M4.35 11.3 L4.35 15.3 2.35 15.3 2.35 11.3 4.35 11.3 M-15.65 -0.7 L-17.65 -0.7 -17.65 -2.7 -15.65 -2.7 -15.65 -0.7" fill="#f3d47f" fill-rule="evenodd" stroke="none"/>
    <path d="M-3.65 -6.7 L-1.65 -6.7 -1.65 -4.7 -3.65 -4.7 -3.65 -6.7 M0.35 11.3 L-1.65 11.3 -1.65 9.3 0.35 9.3 0.35 11.3 M-3.65 13.3 L-5.65 13.3 -5.65 11.3 -3.65 11.3 -3.65 13.3" fill="#626263" fill-rule="evenodd" stroke="none"/>
    <path d="M6.35 7.3 L6.35 11.3 4.35 11.3 4.35 7.3 6.35 7.3" fill="#f3d57f" fill-rule="evenodd" stroke="none"/>
    <path d="M4.35 5.3 L6.35 5.3 6.35 7.3 4.35 7.3 4.35 5.3" fill="#676763" fill-rule="evenodd" stroke="none"/>
    <path d="M6.35 11.3 L6.35 15.3 4.35 15.3 4.35 11.3 6.35 11.3" fill="#413f3d" fill-rule="evenodd" stroke="none"/>
    <path d="M-23.65 -16.7 L-23.65 -22.7 -19.65 -22.7 -19.65 -20.7 -21.65 -20.7 -21.65 -18.7 -21.65 -16.7 -23.65 -16.7" fill="#3e3e3e" fill-rule="evenodd" stroke="none"/>
    <path d="M-15.65 -16.7 L-13.65 -16.7 -13.65 -14.7 -15.65 -14.7 -15.65 -10.7 -17.65 -10.7 -17.65 -12.7 -19.65 -12.7 -19.65 -14.7 -21.65 -14.7 -21.65 -16.7 -21.65 -18.7 -19.65 -18.7 -19.65 -16.7 -15.65 -16.7" fill="#cd8add" fill-rule="evenodd" stroke="none"/>
    <path d="M-17.65 11.3 L-19.65 11.3 -19.65 9.3 -17.65 9.3 -17.65 11.3 M-15.65 1.3 L-17.65 1.3 -17.65 -0.7 -15.65 -0.7 -15.65 1.3 M-19.65 -2.7 L-21.65 -2.7 -21.65 -4.7 -19.65 -4.7 -19.65 -2.7 M-17.65 -8.7 L-19.65 -8.7 -19.65 -10.7 -17.65 -10.7 -17.65 -8.7" fill="#454541" fill-rule="evenodd" stroke="none"/>
    <path d="M-15.65 -10.7 L-15.65 -8.7 -17.65 -8.7 -17.65 -10.7 -19.65 -10.7 -19.65 -12.7 -17.65 -12.7 -17.65 -10.7 -15.65 -10.7" fill="#626262" fill-rule="evenodd" stroke="none"/>
    <path d="M-3.65 -12.7 L-3.65 -10.7 -7.65 -10.7 -7.65 -8.7 -13.65 -8.7 -13.65 -10.7 -15.65 -10.7 -15.65 -14.7 -13.65 -14.7 -11.65 -14.7 -11.65 -12.7 -3.65 -12.7" fill="#e6bbf5" fill-rule="evenodd" stroke="none"/>
    <path d="M-17.65 -6.7 L-17.65 -8.7 -15.65 -8.7 -15.65 -6.7 -17.65 -6.7" fill="#403f3e" fill-rule="evenodd" stroke="none"/>
    <path d="M-17.65 -4.7 L-17.65 -6.7 -15.65 -6.7 -15.65 -4.7 -15.65 -2.7 -17.65 -2.7 -17.65 -4.7" fill="#6f501f" fill-rule="evenodd" stroke="none"/>
    <path d="M-15.65 -0.7 L-15.65 -2.7 -13.65 -2.7 -13.65 -0.7 -15.65 -0.7" fill="#42403e" fill-rule="evenodd" stroke="none"/>
    <path d="M-17.65 -2.7 L-19.65 -2.7 -19.65 -4.7 -17.65 -4.7 -17.65 -2.7 M-9.65 7.3 L-9.65 11.3 -11.65 11.3 -11.65 9.3 -11.65 7.3 -9.65 7.3" fill="#f4d580" fill-rule="evenodd" stroke="none"/>
    <path d="M-15.65 -4.7 L-13.65 -4.7 -13.65 -2.7 -15.65 -2.7 -15.65 -4.7 M-5.65 -0.7 L-5.65 -2.7 -3.65 -2.7 -3.65 -0.7 -5.65 -0.7" fill="#fefefe" fill-rule="evenodd" stroke="none"/>
    <path d="M-13.65 -2.7 L-7.65 -2.7 -7.65 -0.7 -7.65 1.3 -9.65 1.3 -9.65 3.3 -11.65 3.3 -11.65 1.3 -11.65 -0.7 -13.65 -0.7 -13.65 -2.7" fill="#fdfda8" fill-rule="evenodd" stroke="none"/>
    <path d="M-15.65 -6.7 L-13.65 -6.7 -13.65 -4.7 -15.65 -4.7 -15.65 -6.7" fill="#666564" fill-rule="evenodd" stroke="none"/>
    <path d="M-7.65 15.3 L-7.65 17.3 -9.65 17.3 -9.65 15.3 -7.65 15.3 M-13.65 1.3 L-15.65 1.3 -15.65 -0.7 -13.65 -0.7 -13.65 1.3" fill="#fcfca5" fill-rule="evenodd" stroke="none"/>
    <path d="M-7.65 -2.7 L-5.65 -2.7 -5.65 -0.7 -7.65 -0.7 -7.65 -2.7" fill="#6e521e" fill-rule="evenodd" stroke="none"/>
    <path d="M-1.65 -4.7 L-1.65 -2.7 -3.65 -2.7 -5.65 -2.7 -5.65 -4.7 -3.65 -4.7 -1.65 -4.7" fill="#6c501d" fill-rule="evenodd" stroke="none"/>
    <path d="M-3.65 -0.7 L-3.65 1.3 -7.65 1.3 -7.65 -0.7 -5.65 -0.7 -3.65 -0.7" fill="#403f3d" fill-rule="evenodd" stroke="none"/>
    <path d="M-5.65 -4.7 L-5.65 -6.7 -3.65 -6.7 -3.65 -4.7 -5.65 -4.7" fill="#9359ba" fill-rule="evenodd" stroke="none"/>
    <path d="M-9.65 7.3 L-9.65 5.3 -7.65 5.3 -7.65 7.3 -9.65 7.3" fill="#f4d481" fill-rule="evenodd" stroke="none"/>
    <path d="M-7.65 5.3 L-5.65 5.3 -5.65 7.3 -7.65 7.3 -7.65 5.3" fill="#975cbb" fill-rule="evenodd" stroke="none"/>
    <path d="M-7.65 7.3 L-7.65 11.3 -9.65 11.3 -9.65 7.3 -7.65 7.3" fill="#975cba" fill-rule="evenodd" stroke="none"/>
    <path d="M-9.65 15.3 L-11.65 15.3 -11.65 11.3 -9.65 11.3 -7.65 11.3 -7.65 13.3 -9.65 13.3 -9.65 15.3" fill="#c3924f" fill-rule="evenodd" stroke="none"/>
    <path d="M-7.65 11.3 L-5.65 11.3 -5.65 13.3 -7.65 13.3 -7.65 11.3" fill="#9459b7" fill-rule="evenodd" stroke="none"/>
    <path d="M-13.65 3.3 L-13.65 1.3 -11.65 1.3 -11.65 3.3 -13.65 3.3" fill="#646364" fill-rule="evenodd" stroke="none"/>
    <path d="M-13.65 3.3 L-11.65 3.3 -11.65 7.3 -13.65 7.3 -13.65 9.3 -15.65 9.3 -15.65 5.3 -13.65 5.3 -13.65 3.3" fill="#cc89dd" fill-rule="evenodd" stroke="none"/>
    <path d="M-15.65 5.3 L-15.65 3.3 -13.65 3.3 -13.65 5.3 -15.65 5.3" fill="#9359bb" fill-rule="evenodd" stroke="none"/>
    <path d="M-19.65 5.3 L-19.65 3.3 -15.65 3.3 -15.65 5.3 -17.65 5.3 -19.65 5.3" fill="#3f3e3e" fill-rule="evenodd" stroke="none"/>
    <path d="M-19.65 7.3 L-19.65 5.3 -17.65 5.3 -17.65 7.3 -19.65 7.3" fill="#e2b7f3" fill-rule="evenodd" stroke="none"/>
    <path d="M-7.65 17.3 L-7.65 19.3 -11.65 19.3 -11.65 15.3 -13.65 15.3 -13.65 13.3 -17.65 13.3 -17.65 11.3 -15.65 11.3 -13.65 11.3 -11.65 11.3 -11.65 15.3 -9.65 15.3 -9.65 17.3 -7.65 17.3" fill="#41413f" fill-rule="evenodd" stroke="none"/>
    <path d="M-13.65 11.3 L-15.65 11.3 -15.65 9.3 -13.65 9.3 -13.65 11.3" fill="#646465" fill-rule="evenodd" stroke="none"/>
    <path d="M-19.65 9.3 L-21.65 9.3 -21.65 5.3 -19.65 5.3 -19.65 7.3 -19.65 9.3" fill="#424240" fill-rule="evenodd" stroke="none"/>
    <path d="M-13.65 9.3 L-13.65 7.3 -11.65 7.3 -11.65 9.3 -13.65 9.3" fill="#965bbb" fill-rule="evenodd" stroke="none"/>
    <path d="M-11.65 11.3 L-13.65 11.3 -13.65 9.3 -11.65 9.3 -11.65 11.3" fill="#c29250" fill-rule="evenodd" stroke="none"/>
    <path d="M-1.65 13.3 L-1.65 15.3 -5.65 15.3 -5.65 13.3 -3.65 13.3 -1.65 13.3" fill="#42403f" fill-rule="evenodd" stroke="none"/>
    <path d="M-7.65 15.3 L-9.65 15.3 -9.65 13.3 -7.65 13.3 -7.65 15.3" fill="#f4d680" fill-rule="evenodd" stroke="none"/>
    <path d="M-5.65 15.3 L-5.65 17.3 -7.65 17.3 -7.65 15.3 -5.65 15.3" fill="#444340" fill-rule="evenodd" stroke="none"/>
  </g>
</svg>
