<?xml version="1.0" encoding="UTF-8" standalone="no"?>
<svg xmlns:xlink="http://www.w3.org/1999/xlink" height="118.45px" width="65.75px" xmlns="http://www.w3.org/2000/svg">
  <g transform="matrix(1.0, 0.0, 0.0, 1.0, -33.35, -41.7)">
    <path d="M36.15 97.65 L39.95 78.15 Q42.95 62.95 45.75 52.3 65.25 31.8 98.5 53.35 98.75 60.05 90.65 78.15 L83.65 92.9 83.0 94.35 80.05 102.3 Q72.45 114.85 56.9 118.4 44.15 113.1 36.15 97.65" fill="#a4c9de" fill-rule="evenodd" stroke="none"/>
    <path d="M36.15 97.65 Q44.15 113.1 56.9 118.4 72.45 114.85 80.05 102.3 77.25 109.85 75.8 118.6 74.35 127.35 73.35 136.4 L81.0 136.4 Q87.45 139.95 83.65 154.95 L76.65 157.4 Q72.2 153.5 65.8 150.75 60.25 148.85 54.7 150.75 47.95 152.95 43.95 156.75 L39.1 154.95 Q33.15 155.15 34.1 135.6 34.15 127.25 34.6 119.35 35.65 100.25 36.15 97.65" fill="#2e6088" fill-rule="evenodd" stroke="none"/>
    <path d="M76.65 157.4 Q60.3 162.05 43.95 156.75 47.95 152.95 54.7 150.75 60.25 148.85 65.8 150.75 72.2 153.5 76.65 157.4" fill="#66707d" fill-rule="evenodd" stroke="none"/>
    <path d="M80.05 102.3 L83.0 94.35 83.65 92.9 90.65 78.15 Q98.75 60.05 98.5 53.35 65.25 31.8 45.75 52.3 42.95 62.95 39.95 78.15 L36.15 97.65 Q44.15 113.1 56.9 118.4 72.45 114.85 80.05 102.3 77.25 109.85 75.8 118.6 74.35 127.35 73.35 136.4 L81.0 136.4 Q87.45 139.95 83.65 154.95 L76.65 157.4 Q60.3 162.05 43.95 156.75 L39.1 154.95 Q33.15 155.15 34.1 135.6 34.15 127.25 34.6 119.35 35.65 100.25 36.15 97.65" fill="none" stroke="#4a4f58" stroke-linecap="round" stroke-linejoin="miter-clip" stroke-miterlimit="3.0" stroke-width="1.2000000000000002"/>
  </g>
</svg>
