<?xml version="1.0" encoding="UTF-8" standalone="no"?>
<svg xmlns:xlink="http://www.w3.org/1999/xlink" height="42.0px" width="46.0px" xmlns="http://www.w3.org/2000/svg">
  <g transform="matrix(1.0, 0.0, 0.0, 1.0, 23.0, 21.0)">
    <path d="M9.0 -15.0 L9.0 -17.0 15.0 -17.0 15.0 -15.0 17.0 -15.0 17.0 -13.0 15.0 -13.0 15.0 -15.0 13.0 -15.0 9.0 -15.0 M21.0 -9.0 L23.0 -9.0 23.0 -7.0 21.0 -7.0 21.0 -9.0" fill="#383837" fill-rule="evenodd" stroke="none"/>
    <path d="M13.0 -15.0 L15.0 -15.0 15.0 -13.0 17.0 -13.0 17.0 -11.0 15.0 -11.0 15.0 -13.0 13.0 -13.0 13.0 -15.0" fill="#fefe9a" fill-rule="evenodd" stroke="none"/>
    <path d="M-19.0 1.0 L-21.0 1.0 -21.0 -1.0 -19.0 -1.0 -19.0 1.0 M-13.0 3.0 L-11.0 3.0 -11.0 5.0 -13.0 5.0 -13.0 3.0" fill="#ffffff" fill-rule="evenodd" stroke="none"/>
    <path d="M17.0 -13.0 L19.0 -13.0 19.0 -11.0 21.0 -11.0 21.0 -9.0 17.0 -9.0 17.0 -11.0 17.0 -13.0" fill="#373738" fill-rule="evenodd" stroke="none"/>
    <path d="M-21.0 11.0 L-23.0 11.0 -23.0 7.0 -21.0 7.0 -21.0 5.0 -19.0 5.0 -19.0 7.0 -21.0 7.0 -21.0 11.0 M-21.0 -3.0 L-21.0 -7.0 -19.0 -7.0 -19.0 -9.0 -17.0 -9.0 -17.0 -15.0 -15.0 -15.0 -15.0 -19.0 -13.0 -19.0 -13.0 -21.0 -11.0 -21.0 -11.0 -19.0 -13.0 -19.0 -13.0 -15.0 -15.0 -15.0 -15.0 -13.0 -15.0 -11.0 -15.0 -9.0 -17.0 -9.0 -17.0 -7.0 -19.0 -7.0 -19.0 -3.0 -21.0 -3.0 M-5.0 -7.0 L-5.0 -9.0 -3.0 -9.0 -3.0 -7.0 -5.0 -7.0 M1.0 -11.0 L1.0 -13.0 3.0 -13.0 3.0 -15.0 5.0 -15.0 5.0 -13.0 3.0 -13.0 3.0 -11.0 1.0 -11.0 M7.0 -13.0 L7.0 -15.0 9.0 -15.0 9.0 -13.0 7.0 -13.0 M9.0 -11.0 L9.0 -13.0 11.0 -13.0 11.0 -11.0 9.0 -11.0" fill="#3c3c3b" fill-rule="evenodd" stroke="none"/>
    <path d="M1.0 -9.0 L1.0 -11.0 3.0 -11.0 3.0 -13.0 5.0 -13.0 5.0 -9.0 1.0 -9.0" fill="#fea15a" fill-rule="evenodd" stroke="none"/>
    <path d="M9.0 7.0 L11.0 7.0 11.0 13.0 9.0 13.0 9.0 7.0 M-11.0 -19.0 L-9.0 -19.0 -9.0 -15.0 -7.0 -15.0 -7.0 -9.0 -9.0 -9.0 -9.0 -15.0 -11.0 -15.0 -11.0 -19.0 M5.0 -13.0 L7.0 -13.0 7.0 -11.0 9.0 -11.0 9.0 -9.0 7.0 -9.0 5.0 -9.0 5.0 -13.0" fill="#383636" fill-rule="evenodd" stroke="none"/>
    <path d="M-7.0 -5.0 L-5.0 -5.0 -5.0 -3.0 -7.0 -3.0 -7.0 -5.0 M7.0 -9.0 L9.0 -9.0 9.0 -7.0 7.0 -7.0 7.0 -9.0" fill="#5d5c5d" fill-rule="evenodd" stroke="none"/>
    <path d="M5.0 -9.0 L7.0 -9.0 7.0 -7.0 5.0 -7.0 5.0 -9.0" fill="#fea25d" fill-rule="evenodd" stroke="none"/>
    <path d="M-3.0 -9.0 L-3.0 -11.0 1.0 -11.0 1.0 -9.0 -3.0 -9.0" fill="#393938" fill-rule="evenodd" stroke="none"/>
    <path d="M3.0 -7.0 L1.0 -7.0 1.0 -9.0 5.0 -9.0 5.0 -7.0 3.0 -7.0" fill="#92767e" fill-rule="evenodd" stroke="none"/>
    <path d="M1.0 -7.0 L3.0 -7.0 3.0 -3.0 1.0 -3.0 1.0 -1.0 -3.0 -1.0 -3.0 -5.0 -1.0 -5.0 -1.0 -7.0 1.0 -7.0 M1.0 -1.0 L3.0 -1.0 3.0 -3.0 5.0 -3.0 5.0 1.0 3.0 1.0 1.0 1.0 1.0 -1.0" fill="#5c5b5d" fill-rule="evenodd" stroke="none"/>
    <path d="M7.0 -7.0 L7.0 -3.0 5.0 -3.0 5.0 -7.0 7.0 -7.0" fill="#5e5c5b" fill-rule="evenodd" stroke="none"/>
    <path d="M15.0 -9.0 L17.0 -9.0 17.0 -7.0 15.0 -7.0 15.0 -9.0" fill="#dac055" fill-rule="evenodd" stroke="none"/>
    <path d="M19.0 -1.0 L19.0 1.0 17.0 1.0 17.0 -1.0 19.0 -1.0" fill="#3e3f3e" fill-rule="evenodd" stroke="none"/>
    <path d="M21.0 -7.0 L21.0 -1.0 19.0 -1.0 19.0 -5.0 19.0 -7.0 21.0 -7.0 M-21.0 5.0 L-23.0 5.0 -23.0 -3.0 -21.0 -3.0 -21.0 -1.0 -21.0 1.0 -19.0 1.0 -19.0 3.0 -21.0 3.0 -21.0 5.0" fill="#3a3a39" fill-rule="evenodd" stroke="none"/>
    <path d="M17.0 1.0 L17.0 3.0 13.0 3.0 13.0 1.0 17.0 1.0" fill="#3d3e3b" fill-rule="evenodd" stroke="none"/>
    <path d="M13.0 3.0 L13.0 5.0 9.0 5.0 9.0 7.0 7.0 7.0 7.0 3.0 13.0 3.0" fill="#383737" fill-rule="evenodd" stroke="none"/>
    <path d="M5.0 1.0 L7.0 1.0 7.0 3.0 5.0 3.0 5.0 1.0 M-1.0 1.0 L-1.0 3.0 -3.0 3.0 -3.0 5.0 -5.0 5.0 -5.0 7.0 -7.0 7.0 -7.0 5.0 -5.0 5.0 -5.0 1.0 -3.0 1.0 -1.0 1.0" fill="#b65b49" fill-rule="evenodd" stroke="none"/>
    <path d="M-5.0 15.0 L-5.0 17.0 -7.0 17.0 -9.0 17.0 -9.0 15.0 -5.0 15.0" fill="#ea6c48" fill-rule="evenodd" stroke="none"/>
    <path d="M3.0 1.0 L3.0 3.0 1.0 3.0 1.0 5.0 3.0 5.0 3.0 7.0 1.0 7.0 1.0 5.0 -1.0 5.0 -1.0 3.0 1.0 3.0 1.0 1.0 3.0 1.0" fill="#b75d4c" fill-rule="evenodd" stroke="none"/>
    <path d="M1.0 1.0 L1.0 3.0 -1.0 3.0 -1.0 1.0 1.0 1.0" fill="#fdfd98" fill-rule="evenodd" stroke="none"/>
    <path d="M5.0 13.0 L3.0 13.0 3.0 11.0 5.0 11.0 5.0 13.0" fill="#404244" fill-rule="evenodd" stroke="none"/>
    <path d="M3.0 9.0 L1.0 9.0 1.0 7.0 3.0 7.0 3.0 9.0" fill="#5c5c59" fill-rule="evenodd" stroke="none"/>
    <path d="M3.0 11.0 L-1.0 11.0 -1.0 9.0 1.0 9.0 3.0 9.0 3.0 11.0 M-9.0 -9.0 L-9.0 -7.0 -5.0 -7.0 -5.0 -5.0 -7.0 -5.0 -9.0 -5.0 -11.0 -5.0 -11.0 -9.0 -9.0 -9.0" fill="#373736" fill-rule="evenodd" stroke="none"/>
    <path d="M7.0 13.0 L5.0 13.0 5.0 11.0 7.0 11.0 7.0 13.0" fill="#b25949" fill-rule="evenodd" stroke="none"/>
    <path d="M9.0 13.0 L9.0 15.0 5.0 15.0 5.0 13.0 7.0 13.0 9.0 13.0 M-13.0 19.0 L-17.0 19.0 -17.0 17.0 -19.0 17.0 -19.0 13.0 -17.0 13.0 -17.0 17.0 -15.0 17.0 -13.0 17.0 -13.0 19.0" fill="#3e3f3f" fill-rule="evenodd" stroke="none"/>
    <path d="M-21.0 -1.0 L-21.0 -3.0 -19.0 -3.0 -19.0 -1.0 -21.0 -1.0 M-15.0 -11.0 L-15.0 -13.0 -13.0 -13.0 -13.0 -11.0 -15.0 -11.0" fill="#595959" fill-rule="evenodd" stroke="none"/>
    <path d="M-13.0 -11.0 L-11.0 -11.0 -11.0 -9.0 -13.0 -9.0 -13.0 -11.0" fill="#b75d4d" fill-rule="evenodd" stroke="none"/>
    <path d="M-19.0 -1.0 L-19.0 -3.0 -17.0 -3.0 -17.0 -1.0 -19.0 -1.0" fill="#e96c49" fill-rule="evenodd" stroke="none"/>
    <path d="M-11.0 -5.0 L-9.0 -5.0 -9.0 -3.0 -11.0 -3.0 -11.0 -5.0 M-13.0 -1.0 L-13.0 -3.0 -11.0 -3.0 -11.0 -1.0 -13.0 -1.0" fill="#ec6f4c" fill-rule="evenodd" stroke="none"/>
    <path d="M-13.0 -1.0 L-13.0 1.0 -17.0 1.0 -17.0 -1.0 -13.0 -1.0 M-5.0 1.0 L-5.0 -1.0 -3.0 -1.0 -3.0 1.0 -5.0 1.0" fill="#ec6d49" fill-rule="evenodd" stroke="none"/>
    <path d="M-11.0 1.0 L-9.0 1.0 -9.0 3.0 -11.0 3.0 -11.0 1.0" fill="#5c5b59" fill-rule="evenodd" stroke="none"/>
    <path d="M-9.0 3.0 L-9.0 5.0 -9.0 7.0 -13.0 7.0 -13.0 5.0 -11.0 5.0 -11.0 3.0 -9.0 3.0" fill="#383738" fill-rule="evenodd" stroke="none"/>
    <path d="M-19.0 7.0 L-19.0 5.0 -17.0 5.0 -17.0 7.0 -19.0 7.0 M-7.0 7.0 L-9.0 7.0 -9.0 5.0 -7.0 5.0 -7.0 7.0" fill="#e96c48" fill-rule="evenodd" stroke="none"/>
    <path d="M-9.0 7.0 L-9.0 9.0 -13.0 9.0 -13.0 7.0 -9.0 7.0" fill="#eb6c49" fill-rule="evenodd" stroke="none"/>
    <path d="M-1.0 11.0 L-1.0 13.0 -3.0 13.0 -3.0 11.0 -1.0 11.0" fill="#3f3f3e" fill-rule="evenodd" stroke="none"/>
    <path d="M-13.0 1.0 L-11.0 1.0 -11.0 3.0 -13.0 3.0 -13.0 1.0 M-13.0 5.0 L-15.0 5.0 -15.0 3.0 -13.0 3.0 -13.0 5.0" fill="#b75c49" fill-rule="evenodd" stroke="none"/>
    <path d="M-15.0 9.0 L-19.0 9.0 -19.0 7.0 -17.0 7.0 -15.0 7.0 -15.0 9.0" fill="#5c5c5c" fill-rule="evenodd" stroke="none"/>
    <path d="M-13.0 9.0 L-15.0 9.0 -15.0 7.0 -13.0 7.0 -13.0 9.0" fill="#b45b49" fill-rule="evenodd" stroke="none"/>
    <path d="M-11.0 17.0 L-11.0 15.0 -9.0 15.0 -9.0 17.0 -11.0 17.0" fill="#b55b49" fill-rule="evenodd" stroke="none"/>
    <path d="M-13.0 17.0 L-15.0 17.0 -15.0 15.0 -11.0 15.0 -11.0 17.0 -13.0 17.0" fill="#5d5b5b" fill-rule="evenodd" stroke="none"/>
    <path d="M-11.0 19.0 L-13.0 19.0 -13.0 17.0 -11.0 17.0 -11.0 19.0" fill="#fea059" fill-rule="evenodd" stroke="none"/>
    <path d="M-7.0 19.0 L-7.0 21.0 -13.0 21.0 -13.0 19.0 -11.0 19.0 -9.0 19.0 -7.0 19.0" fill="#3d3d3e" fill-rule="evenodd" stroke="none"/>
    <path d="M-3.0 13.0 L-3.0 17.0 -5.0 17.0 -5.0 15.0 -5.0 13.0 -3.0 13.0" fill="#3a3a38" fill-rule="evenodd" stroke="none"/>
    <path d="M-5.0 13.0 L-5.0 15.0 -9.0 15.0 -9.0 13.0 -5.0 13.0" fill="#5e5c5d" fill-rule="evenodd" stroke="none"/>
    <path d="M-7.0 17.0 L-7.0 19.0 -9.0 19.0 -9.0 17.0 -7.0 17.0" fill="#fea159" fill-rule="evenodd" stroke="none"/>
    <path d="M-5.0 17.0 L-5.0 19.0 -7.0 19.0 -7.0 17.0 -5.0 17.0" fill="#3e3e3b" fill-rule="evenodd" stroke="none"/>
    <path d="M-19.0 13.0 L-21.0 13.0 -21.0 11.0 -19.0 11.0 -19.0 13.0" fill="#414244" fill-rule="evenodd" stroke="none"/>
    <path d="M17.0 -9.0 L21.0 -9.0 21.0 -7.0 19.0 -7.0 19.0 -5.0 17.0 -5.0 17.0 -3.0 15.0 -3.0 15.0 -1.0 9.0 -1.0 9.0 -3.0 7.0 -3.0 7.0 -7.0 9.0 -7.0 9.0 -9.0 9.0 -11.0 11.0 -11.0 11.0 -13.0 13.0 -13.0 13.0 -11.0 15.0 -11.0 15.0 -9.0 15.0 -7.0 17.0 -7.0 17.0 -9.0 M-1.0 9.0 L-1.0 11.0 -3.0 11.0 -5.0 11.0 -5.0 13.0 -9.0 13.0 -9.0 15.0 -11.0 15.0 -15.0 15.0 -15.0 13.0 -17.0 13.0 -19.0 13.0 -19.0 11.0 -21.0 11.0 -21.0 7.0 -19.0 7.0 -19.0 9.0 -15.0 9.0 -13.0 9.0 -9.0 9.0 -9.0 7.0 -7.0 7.0 -5.0 7.0 -5.0 5.0 -3.0 5.0 -3.0 3.0 -1.0 3.0 -1.0 5.0 1.0 5.0 1.0 7.0 -1.0 7.0 -1.0 9.0 M-19.0 -3.0 L-19.0 -7.0 -17.0 -7.0 -17.0 -5.0 -15.0 -5.0 -15.0 -7.0 -13.0 -7.0 -13.0 -9.0 -11.0 -9.0 -11.0 -5.0 -11.0 -3.0 -13.0 -3.0 -13.0 -1.0 -17.0 -1.0 -17.0 -3.0 -19.0 -3.0" fill="#ffeea4" fill-rule="evenodd" stroke="none"/>
    <path d="M9.0 -15.0 L13.0 -15.0 13.0 -13.0 15.0 -13.0 15.0 -11.0 17.0 -11.0 17.0 -9.0 15.0 -9.0 15.0 -11.0 13.0 -11.0 13.0 -13.0 11.0 -13.0 9.0 -13.0 9.0 -15.0 M-15.0 -9.0 L-15.0 -11.0 -13.0 -11.0 -13.0 -9.0 -13.0 -7.0 -15.0 -7.0 -15.0 -5.0 -17.0 -5.0 -17.0 -7.0 -15.0 -7.0 -15.0 -9.0" fill="#fff6bb" fill-rule="evenodd" stroke="none"/>
    <path d="M7.0 3.0 L7.0 7.0 9.0 7.0 9.0 13.0 7.0 13.0 7.0 11.0 5.0 11.0 3.0 11.0 3.0 9.0 3.0 7.0 3.0 5.0 1.0 5.0 1.0 3.0 3.0 3.0 3.0 1.0 5.0 1.0 5.0 3.0 7.0 3.0 M-19.0 5.0 L-21.0 5.0 -21.0 3.0 -19.0 3.0 -19.0 1.0 -19.0 -1.0 -17.0 -1.0 -17.0 1.0 -13.0 1.0 -13.0 -1.0 -11.0 -1.0 -11.0 -3.0 -9.0 -3.0 -9.0 -5.0 -7.0 -5.0 -7.0 -3.0 -5.0 -3.0 -5.0 -5.0 -5.0 -7.0 -3.0 -7.0 -3.0 -9.0 1.0 -9.0 1.0 -7.0 -1.0 -7.0 -1.0 -5.0 -3.0 -5.0 -3.0 -1.0 1.0 -1.0 1.0 -3.0 3.0 -3.0 3.0 -7.0 5.0 -7.0 5.0 -3.0 3.0 -3.0 3.0 -1.0 1.0 -1.0 1.0 1.0 -1.0 1.0 -3.0 1.0 -3.0 -1.0 -5.0 -1.0 -5.0 1.0 -7.0 1.0 -7.0 5.0 -9.0 5.0 -9.0 3.0 -9.0 1.0 -11.0 1.0 -13.0 1.0 -13.0 3.0 -15.0 3.0 -15.0 5.0 -13.0 5.0 -13.0 7.0 -15.0 7.0 -17.0 7.0 -17.0 5.0 -19.0 5.0 M-15.0 -13.0 L-15.0 -15.0 -13.0 -15.0 -13.0 -19.0 -11.0 -19.0 -11.0 -15.0 -9.0 -15.0 -9.0 -9.0 -11.0 -9.0 -11.0 -11.0 -13.0 -11.0 -13.0 -13.0 -15.0 -13.0" fill="#f6734a" fill-rule="evenodd" stroke="none"/>
    <path d="M-9.0 19.0 L-11.0 19.0 -11.0 17.0 -9.0 17.0 -9.0 19.0 M-15.0 17.0 L-17.0 17.0 -17.0 13.0 -15.0 13.0 -15.0 15.0 -15.0 17.0 M-7.0 5.0 L-7.0 1.0 -5.0 1.0 -5.0 5.0 -7.0 5.0" fill="#b07830" fill-rule="evenodd" stroke="none"/>
    <path d="M19.0 -5.0 L19.0 -1.0 17.0 -1.0 17.0 1.0 13.0 1.0 13.0 3.0 7.0 3.0 7.0 1.0 5.0 1.0 5.0 -3.0 7.0 -3.0 9.0 -3.0 9.0 -1.0 15.0 -1.0 15.0 -3.0 17.0 -3.0 17.0 -5.0 19.0 -5.0 M1.0 9.0 L-1.0 9.0 -1.0 7.0 1.0 7.0 1.0 9.0 M-3.0 11.0 L-3.0 13.0 -5.0 13.0 -5.0 11.0 -3.0 11.0 M-17.0 -7.0 L-17.0 -9.0 -15.0 -9.0 -15.0 -7.0 -17.0 -7.0" fill="#c5a46a" fill-rule="evenodd" stroke="none"/>
  </g>
</svg>
