<?xml version="1.0" encoding="UTF-8" standalone="no"?>
<svg xmlns:xlink="http://www.w3.org/1999/xlink" height="46.0px" width="44.0px" xmlns="http://www.w3.org/2000/svg">
  <g transform="matrix(1.0, 0.0, 0.0, 1.0, 22.0, 25.0)">
    <path d="M12.0 -17.0 L14.0 -17.0 14.0 -15.0 12.0 -15.0 12.0 -17.0 M18.0 5.0 L18.0 3.0 20.0 3.0 20.0 5.0 18.0 5.0 M-14.0 -1.0 L-14.0 1.0 -16.0 1.0 -16.0 -1.0 -14.0 -1.0 M-6.0 -1.0 L-6.0 -3.0 -4.0 -3.0 -4.0 -1.0 -2.0 -1.0 -2.0 1.0 -4.0 1.0 -4.0 3.0 -6.0 3.0 -8.0 3.0 -8.0 1.0 -6.0 1.0 -4.0 1.0 -4.0 -1.0 -6.0 -1.0" fill="#31bdff" fill-rule="evenodd" stroke="none"/>
    <path d="M14.0 -13.0 L14.0 -15.0 14.0 -17.0 12.0 -17.0 12.0 -19.0 16.0 -19.0 16.0 -11.0 14.0 -11.0 14.0 -13.0 M12.0 -15.0 L12.0 -13.0 10.0 -13.0 10.0 -11.0 8.0 -11.0 8.0 -13.0 6.0 -13.0 6.0 -19.0 2.0 -19.0 2.0 -17.0 0.0 -17.0 0.0 -19.0 2.0 -19.0 2.0 -21.0 6.0 -21.0 6.0 -19.0 8.0 -19.0 8.0 -13.0 10.0 -13.0 10.0 -17.0 12.0 -17.0 12.0 -15.0 M-18.0 -3.0 L-18.0 -7.0 -20.0 -7.0 -20.0 -11.0 -18.0 -11.0 -18.0 -15.0 -20.0 -15.0 -20.0 -17.0 -22.0 -17.0 -22.0 -21.0 -20.0 -21.0 -20.0 -23.0 -18.0 -23.0 -18.0 -25.0 -14.0 -25.0 -14.0 -21.0 -16.0 -21.0 -16.0 -19.0 -12.0 -19.0 -12.0 -21.0 -10.0 -21.0 -10.0 -23.0 -6.0 -23.0 -6.0 -21.0 -4.0 -21.0 -4.0 -15.0 -2.0 -15.0 -2.0 -17.0 0.0 -17.0 0.0 -15.0 -2.0 -15.0 -2.0 -13.0 -4.0 -13.0 -4.0 -15.0 -6.0 -15.0 -6.0 -17.0 -6.0 -21.0 -10.0 -21.0 -10.0 -19.0 -12.0 -19.0 -12.0 -17.0 -14.0 -17.0 -16.0 -17.0 -16.0 -19.0 -18.0 -19.0 -18.0 -21.0 -20.0 -21.0 -20.0 -19.0 -20.0 -17.0 -18.0 -17.0 -18.0 -15.0 -16.0 -15.0 -16.0 -13.0 -16.0 -11.0 -18.0 -11.0 -18.0 -9.0 -18.0 -7.0 -16.0 -7.0 -16.0 -5.0 -16.0 -3.0 -18.0 -3.0 M12.0 -11.0 L14.0 -11.0 14.0 -7.0 16.0 -7.0 16.0 -1.0 14.0 -1.0 14.0 1.0 12.0 1.0 12.0 3.0 18.0 3.0 18.0 1.0 22.0 1.0 22.0 5.0 20.0 5.0 20.0 7.0 18.0 7.0 18.0 9.0 12.0 9.0 12.0 7.0 8.0 7.0 8.0 9.0 10.0 9.0 10.0 15.0 8.0 15.0 8.0 17.0 4.0 17.0 4.0 13.0 2.0 13.0 2.0 11.0 0.0 11.0 0.0 13.0 -2.0 13.0 -2.0 15.0 -4.0 15.0 -4.0 17.0 -6.0 17.0 -6.0 19.0 -8.0 19.0 -8.0 21.0 -12.0 21.0 -12.0 19.0 -14.0 19.0 -14.0 17.0 -16.0 17.0 -16.0 13.0 -14.0 13.0 -14.0 11.0 -16.0 11.0 -16.0 9.0 -18.0 9.0 -18.0 5.0 -16.0 5.0 -16.0 9.0 -14.0 9.0 -14.0 11.0 -12.0 11.0 -12.0 13.0 -14.0 13.0 -14.0 15.0 -14.0 17.0 -12.0 17.0 -12.0 19.0 -8.0 19.0 -8.0 17.0 -6.0 17.0 -6.0 15.0 -4.0 15.0 -4.0 13.0 -4.0 11.0 -2.0 11.0 0.0 11.0 0.0 9.0 2.0 9.0 2.0 11.0 4.0 11.0 4.0 13.0 6.0 13.0 6.0 15.0 8.0 15.0 8.0 11.0 8.0 9.0 6.0 9.0 6.0 7.0 8.0 7.0 8.0 5.0 10.0 5.0 12.0 5.0 12.0 7.0 14.0 7.0 16.0 7.0 18.0 7.0 18.0 5.0 16.0 5.0 14.0 5.0 12.0 5.0 12.0 3.0 10.0 3.0 10.0 1.0 12.0 1.0 12.0 -1.0 14.0 -1.0 14.0 -7.0 12.0 -7.0 12.0 -11.0 M-16.0 3.0 L-18.0 3.0 -18.0 1.0 -20.0 1.0 -20.0 -1.0 -18.0 -1.0 -18.0 1.0 -16.0 1.0 -16.0 3.0 M-18.0 -21.0 L-16.0 -21.0 -16.0 -23.0 -18.0 -23.0 -18.0 -21.0 M2.0 -7.0 L4.0 -7.0 8.0 -7.0 8.0 -9.0 10.0 -9.0 10.0 -7.0 8.0 -7.0 8.0 -5.0 2.0 -5.0 2.0 -3.0 6.0 -3.0 6.0 -1.0 8.0 -1.0 8.0 -3.0 10.0 -3.0 10.0 -7.0 12.0 -7.0 12.0 -3.0 10.0 -3.0 10.0 -1.0 8.0 -1.0 8.0 1.0 6.0 1.0 6.0 -1.0 4.0 -1.0 2.0 -1.0 2.0 -3.0 0.0 -3.0 0.0 -5.0 2.0 -5.0 2.0 -7.0 M18.0 5.0 L20.0 5.0 20.0 3.0 18.0 3.0 18.0 5.0" fill="#313131" fill-rule="evenodd" stroke="none"/>
    <path d="M14.0 -15.0 L14.0 -13.0 12.0 -13.0 12.0 -15.0 14.0 -15.0 M-18.0 -21.0 L-18.0 -23.0 -16.0 -23.0 -16.0 -21.0 -18.0 -21.0 M4.0 -13.0 L2.0 -13.0 2.0 -15.0 2.0 -17.0 4.0 -17.0 4.0 -13.0 M16.0 5.0 L18.0 5.0 18.0 7.0 16.0 7.0 16.0 5.0 M-10.0 -19.0 L-8.0 -19.0 -8.0 -17.0 -8.0 -15.0 -10.0 -15.0 -10.0 -17.0 -10.0 -19.0 M-16.0 -1.0 L-16.0 -3.0 -14.0 -3.0 -14.0 -1.0 -16.0 -1.0 M-8.0 1.0 L-8.0 -1.0 -6.0 -1.0 -6.0 1.0 -8.0 1.0" fill="#3a84ef" fill-rule="evenodd" stroke="none"/>
    <path d="M0.0 -17.0 L2.0 -17.0 2.0 -19.0 6.0 -19.0 6.0 -13.0 6.0 -11.0 4.0 -11.0 4.0 -13.0 4.0 -17.0 2.0 -17.0 2.0 -15.0 0.0 -15.0 0.0 -17.0 M10.0 -11.0 L10.0 -13.0 12.0 -13.0 12.0 -11.0 10.0 -11.0 M-16.0 -7.0 L-18.0 -7.0 -18.0 -9.0 -16.0 -9.0 -14.0 -9.0 -14.0 -11.0 -16.0 -11.0 -16.0 -13.0 -14.0 -13.0 -14.0 -11.0 -12.0 -11.0 -10.0 -11.0 -10.0 -9.0 -8.0 -9.0 -8.0 -7.0 -6.0 -7.0 -2.0 -7.0 -2.0 -5.0 0.0 -5.0 0.0 -3.0 0.0 -1.0 -2.0 -1.0 -2.0 -3.0 -4.0 -3.0 -4.0 -5.0 -8.0 -5.0 -8.0 -3.0 -10.0 -3.0 -12.0 -3.0 -12.0 -5.0 -14.0 -5.0 -14.0 -7.0 -16.0 -7.0 M-20.0 -19.0 L-20.0 -21.0 -18.0 -21.0 -18.0 -19.0 -20.0 -19.0 M14.0 5.0 L16.0 5.0 16.0 7.0 14.0 7.0 14.0 5.0 M8.0 11.0 L8.0 15.0 6.0 15.0 6.0 13.0 6.0 11.0 8.0 11.0 M-8.0 17.0 L-8.0 19.0 -12.0 19.0 -12.0 17.0 -10.0 17.0 -10.0 15.0 -8.0 15.0 -8.0 17.0 M0.0 -13.0 L0.0 -11.0 -2.0 -11.0 -2.0 -9.0 -6.0 -9.0 -6.0 -11.0 -4.0 -11.0 -2.0 -11.0 -2.0 -13.0 0.0 -13.0 M-10.0 5.0 L-8.0 5.0 -8.0 9.0 -10.0 9.0 -10.0 7.0 -10.0 5.0 M-12.0 7.0 L-12.0 9.0 -14.0 9.0 -14.0 5.0 -12.0 5.0 -12.0 7.0" fill="#ff84a5" fill-rule="evenodd" stroke="none"/>
    <path d="M14.0 -13.0 L14.0 -11.0 12.0 -11.0 12.0 -13.0 14.0 -13.0 M6.0 -13.0 L8.0 -13.0 8.0 -11.0 8.0 -9.0 4.0 -9.0 4.0 -7.0 2.0 -7.0 2.0 -9.0 2.0 -13.0 0.0 -13.0 -2.0 -13.0 -2.0 -15.0 0.0 -15.0 2.0 -15.0 2.0 -13.0 4.0 -13.0 4.0 -11.0 6.0 -11.0 6.0 -13.0 M-16.0 5.0 L-16.0 3.0 -14.0 3.0 -14.0 5.0 -16.0 5.0 M-20.0 -1.0 L-20.0 -3.0 -18.0 -3.0 -18.0 -1.0 -20.0 -1.0 M-18.0 -9.0 L-18.0 -11.0 -16.0 -11.0 -16.0 -9.0 -18.0 -9.0 M-16.0 -13.0 L-16.0 -15.0 -14.0 -15.0 -14.0 -17.0 -12.0 -17.0 -12.0 -13.0 -10.0 -13.0 -10.0 -15.0 -8.0 -15.0 -8.0 -17.0 -6.0 -17.0 -6.0 -15.0 -8.0 -15.0 -8.0 -13.0 -8.0 -11.0 -10.0 -11.0 -12.0 -11.0 -12.0 -13.0 -14.0 -13.0 -16.0 -13.0 M10.0 -9.0 L10.0 -11.0 12.0 -11.0 12.0 -7.0 10.0 -7.0 10.0 -9.0 M8.0 5.0 L8.0 7.0 6.0 7.0 6.0 5.0 4.0 5.0 4.0 7.0 2.0 7.0 2.0 9.0 0.0 9.0 0.0 7.0 2.0 7.0 2.0 5.0 4.0 5.0 4.0 3.0 8.0 3.0 8.0 5.0 M-2.0 11.0 L-4.0 11.0 -8.0 11.0 -8.0 9.0 -6.0 9.0 -6.0 5.0 -8.0 5.0 -10.0 5.0 -10.0 3.0 -8.0 3.0 -6.0 3.0 -6.0 5.0 -2.0 5.0 -2.0 3.0 0.0 3.0 0.0 5.0 -2.0 5.0 -2.0 7.0 -4.0 7.0 -4.0 9.0 -2.0 9.0 -2.0 11.0 M-12.0 17.0 L-14.0 17.0 -14.0 15.0 -12.0 15.0 -12.0 13.0 -10.0 13.0 -10.0 15.0 -10.0 17.0 -12.0 17.0 M10.0 -1.0 L10.0 1.0 8.0 1.0 8.0 -1.0 10.0 -1.0 M0.0 -7.0 L2.0 -7.0 2.0 -5.0 0.0 -5.0 -2.0 -5.0 -2.0 -7.0 0.0 -7.0 M0.0 -3.0 L2.0 -3.0 2.0 -1.0 2.0 1.0 4.0 1.0 4.0 3.0 0.0 3.0 0.0 -1.0 0.0 -3.0 M4.0 -1.0 L6.0 -1.0 6.0 1.0 4.0 1.0 4.0 -1.0 M-2.0 -9.0 L-2.0 -7.0 -6.0 -7.0 -6.0 -9.0 -2.0 -9.0 M-10.0 9.0 L-10.0 11.0 -8.0 11.0 -8.0 13.0 -10.0 13.0 -10.0 11.0 -12.0 11.0 -12.0 9.0 -10.0 9.0 M-10.0 5.0 L-10.0 7.0 -12.0 7.0 -12.0 5.0 -10.0 5.0" fill="#525252" fill-rule="evenodd" stroke="none"/>
    <path d="M8.0 -11.0 L10.0 -11.0 10.0 -9.0 8.0 -9.0 8.0 -11.0 M-18.0 -3.0 L-16.0 -3.0 -16.0 -1.0 -18.0 -1.0 -18.0 -3.0 M-16.0 -5.0 L-16.0 -7.0 -14.0 -7.0 -14.0 -5.0 -16.0 -5.0 M-6.0 -15.0 L-4.0 -15.0 -4.0 -13.0 -6.0 -13.0 -6.0 -15.0 M0.0 -13.0 L2.0 -13.0 2.0 -9.0 0.0 -9.0 0.0 -11.0 0.0 -13.0 M4.0 -7.0 L4.0 -9.0 8.0 -9.0 8.0 -7.0 4.0 -7.0 M10.0 3.0 L12.0 3.0 12.0 5.0 14.0 5.0 14.0 7.0 12.0 7.0 12.0 5.0 10.0 5.0 10.0 3.0 M-4.0 11.0 L-4.0 13.0 -6.0 13.0 -6.0 15.0 -8.0 15.0 -8.0 13.0 -8.0 11.0 -10.0 11.0 -10.0 9.0 -8.0 9.0 -8.0 5.0 -6.0 5.0 -6.0 9.0 -8.0 9.0 -8.0 11.0 -4.0 11.0 M-12.0 11.0 L-14.0 11.0 -14.0 9.0 -16.0 9.0 -16.0 5.0 -14.0 5.0 -14.0 9.0 -12.0 9.0 -12.0 11.0 M-14.0 3.0 L-16.0 3.0 -16.0 1.0 -14.0 1.0 -14.0 -1.0 -14.0 -3.0 -12.0 -3.0 -12.0 -1.0 -10.0 -1.0 -10.0 -3.0 -8.0 -3.0 -8.0 -5.0 -4.0 -5.0 -4.0 -3.0 -2.0 -3.0 -2.0 -1.0 0.0 -1.0 0.0 3.0 4.0 3.0 4.0 1.0 6.0 1.0 8.0 1.0 8.0 3.0 4.0 3.0 4.0 5.0 2.0 5.0 2.0 7.0 0.0 7.0 -2.0 7.0 -2.0 5.0 0.0 5.0 0.0 3.0 -2.0 3.0 -2.0 5.0 -6.0 5.0 -6.0 3.0 -4.0 3.0 -2.0 3.0 -2.0 1.0 -2.0 -1.0 -4.0 -1.0 -4.0 -3.0 -6.0 -3.0 -6.0 -1.0 -4.0 -1.0 -4.0 1.0 -6.0 1.0 -6.0 -1.0 -8.0 -1.0 -8.0 1.0 -8.0 3.0 -10.0 3.0 -10.0 5.0 -12.0 5.0 -12.0 3.0 -14.0 3.0 M0.0 -9.0 L0.0 -7.0 -2.0 -7.0 -2.0 -9.0 0.0 -9.0 M-8.0 -13.0 L-6.0 -13.0 -6.0 -11.0 -6.0 -9.0 -8.0 -9.0 -8.0 -11.0 -8.0 -13.0 M-2.0 9.0 L-4.0 9.0 -4.0 7.0 -2.0 7.0 -2.0 9.0" fill="#ffffff" fill-rule="evenodd" stroke="none"/>
    <path d="M0.0 -11.0 L0.0 -9.0 -2.0 -9.0 -2.0 -11.0 0.0 -11.0 M-6.0 -13.0 L-4.0 -13.0 -4.0 -11.0 -6.0 -11.0 -6.0 -13.0 M-14.0 -3.0 L-14.0 -5.0 -12.0 -5.0 -12.0 -3.0 -10.0 -3.0 -10.0 -1.0 -12.0 -1.0 -12.0 -3.0 -14.0 -3.0" fill="#ffbdce" fill-rule="evenodd" stroke="none"/>
    <path d="M-16.0 -15.0 L-18.0 -15.0 -18.0 -17.0 -20.0 -17.0 -20.0 -19.0 -18.0 -19.0 -18.0 -17.0 -16.0 -17.0 -14.0 -17.0 -14.0 -15.0 -16.0 -15.0 M2.0 -9.0 L2.0 -7.0 0.0 -7.0 0.0 -9.0 2.0 -9.0 M10.0 1.0 L10.0 3.0 8.0 3.0 8.0 1.0 10.0 1.0 M6.0 7.0 L6.0 9.0 8.0 9.0 8.0 11.0 6.0 11.0 4.0 11.0 2.0 11.0 2.0 9.0 2.0 7.0 4.0 7.0 4.0 5.0 6.0 5.0 6.0 7.0 M0.0 9.0 L0.0 11.0 -2.0 11.0 -2.0 9.0 0.0 9.0 M-16.0 1.0 L-18.0 1.0 -18.0 -1.0 -16.0 -1.0 -16.0 1.0 M2.0 -1.0 L4.0 -1.0 4.0 1.0 2.0 1.0 2.0 -1.0 M-8.0 -13.0 L-8.0 -15.0 -6.0 -15.0 -6.0 -13.0 -8.0 -13.0 M-8.0 13.0 L-8.0 15.0 -10.0 15.0 -10.0 13.0 -8.0 13.0" fill="#efceef" fill-rule="evenodd" stroke="none"/>
    <path d="M-10.0 -19.0 L-10.0 -21.0 -6.0 -21.0 -6.0 -17.0 -8.0 -17.0 -8.0 -19.0 -10.0 -19.0 M12.0 -7.0 L14.0 -7.0 14.0 -1.0 12.0 -1.0 12.0 1.0 10.0 1.0 10.0 -1.0 10.0 -3.0 12.0 -3.0 12.0 -7.0 M-6.0 15.0 L-6.0 17.0 -8.0 17.0 -8.0 15.0 -6.0 15.0 M-14.0 15.0 L-14.0 13.0 -12.0 13.0 -12.0 15.0 -14.0 15.0 M-10.0 -15.0 L-10.0 -13.0 -12.0 -13.0 -12.0 -17.0 -10.0 -17.0 -10.0 -15.0 M-10.0 7.0 L-10.0 9.0 -12.0 9.0 -12.0 7.0 -10.0 7.0" fill="#d64273" fill-rule="evenodd" stroke="none"/>
    <path d="M10.0 5.0 L8.0 5.0 8.0 3.0 10.0 3.0 10.0 5.0 M-4.0 13.0 L-4.0 15.0 -6.0 15.0 -6.0 13.0 -4.0 13.0 M-12.0 13.0 L-12.0 11.0 -10.0 11.0 -10.0 13.0 -12.0 13.0 M-14.0 5.0 L-14.0 3.0 -12.0 3.0 -12.0 5.0 -14.0 5.0 M-2.0 7.0 L0.0 7.0 0.0 9.0 -2.0 9.0 -2.0 7.0" fill="#b59494" fill-rule="evenodd" stroke="none"/>
    <path d="M-18.0 -19.0 L-16.0 -19.0 -16.0 -17.0 -18.0 -17.0 -18.0 -19.0 M-12.0 -17.0 L-12.0 -19.0 -10.0 -19.0 -10.0 -17.0 -12.0 -17.0 M-4.0 -13.0 L-2.0 -13.0 -2.0 -11.0 -4.0 -11.0 -4.0 -13.0 M6.0 13.0 L4.0 13.0 4.0 11.0 6.0 11.0 6.0 13.0 M-14.0 -13.0 L-12.0 -13.0 -12.0 -11.0 -14.0 -11.0 -14.0 -13.0 M-10.0 -11.0 L-8.0 -11.0 -8.0 -9.0 -6.0 -9.0 -6.0 -7.0 -8.0 -7.0 -8.0 -9.0 -10.0 -9.0 -10.0 -11.0 M-16.0 -11.0 L-14.0 -11.0 -14.0 -9.0 -16.0 -9.0 -16.0 -11.0" fill="#a55a6b" fill-rule="evenodd" stroke="none"/>
    <path d="M-16.0 -3.0 L-16.0 -5.0 -14.0 -5.0 -14.0 -3.0 -16.0 -3.0 M-2.0 1.0 L-2.0 3.0 -4.0 3.0 -4.0 1.0 -2.0 1.0" fill="#bdefff" fill-rule="evenodd" stroke="none"/>
  </g>
</svg>
