<?xml version="1.0" encoding="UTF-8" standalone="no"?>
<svg xmlns:xlink="http://www.w3.org/1999/xlink" height="116.25px" width="128.25px" xmlns="http://www.w3.org/2000/svg">
  <g transform="matrix(1.0, 0.0, 0.0, 1.0, 64.1, 58.0)">
    <path d="M-22.9 -31.55 L-23.2 -31.5 -23.05 -31.55 -22.9 -31.55 M-35.55 -29.45 L-35.55 -29.35 Q-36.6 -29.3 -36.6 -28.2 -36.6 -26.75 -28.8 -23.75 -26.15 -22.8 -23.2 -21.05 L-22.3 -20.5 Q-21.9 -19.1 -18.5 -17.35 L-12.0 -13.85 Q-5.05 -9.0 -2.55 -6.45 -1.2 -5.0 0.2 -2.75 L2.45 1.0 5.1 5.3 Q6.55 7.35 7.95 8.05 L9.15 10.15 Q10.9 13.15 11.45 14.8 L12.95 18.6 14.25 22.45 15.35 31.85 Q15.95 37.9 17.3 37.9 L16.95 38.55 Q6.0 32.8 -5.85 31.65 -25.65 26.0 -41.0 15.95 L-41.2 15.85 -41.3 15.8 -41.55 15.6 Q-48.3 11.15 -54.15 5.9 -64.05 -8.0 -49.65 -2.7 -56.85 -10.65 -63.5 -22.1 L-62.7 -21.95 Q-62.45 -24.9 -54.05 -26.95 L-41.85 -29.25 -36.45 -29.3 -35.55 -29.45 M-30.9 11.95 Q-33.8 10.5 -36.65 8.7 L-42.2 4.55 Q-46.05 1.35 -49.65 -2.7 -46.05 1.35 -42.2 4.55 L-36.65 8.7 Q-33.8 10.5 -30.9 11.95" fill="#d6eefb" fill-rule="evenodd" stroke="none"/>
    <path d="M-20.85 -31.9 Q34.2 -81.45 46.7 -34.8 67.1 -27.65 49.2 -18.1 55.6 -15.6 50.95 -11.05 60.0 -3.2 58.3 -1.7 65.3 18.55 62.95 23.15 56.3 46.2 40.4 57.45 29.25 45.05 16.95 38.55 L17.3 37.9 Q15.95 37.9 15.35 31.85 L14.25 22.45 12.95 18.6 11.45 14.8 Q10.9 13.15 9.15 10.15 L7.95 8.05 Q6.55 7.35 5.1 5.3 L2.45 1.0 0.2 -2.75 Q-1.2 -5.0 -2.55 -6.45 -5.05 -9.0 -12.0 -13.85 L-18.5 -17.35 Q-21.9 -19.1 -22.3 -20.5 L-23.2 -21.05 Q-26.15 -22.8 -28.8 -23.75 -36.6 -26.75 -36.6 -28.2 -36.6 -29.3 -35.55 -29.35 L-35.55 -29.45 -25.75 -31.05 -24.6 -31.25 -24.55 -31.25 -23.2 -31.5 -22.9 -31.55 -22.25 -31.65 -20.85 -31.9" fill="#a4c9de" fill-rule="evenodd" stroke="none"/>
    <path d="M16.95 38.55 Q29.25 45.05 40.4 57.45 56.3 46.2 62.95 23.15 65.3 18.55 58.3 -1.7 60.0 -3.2 50.95 -11.05 55.6 -15.6 49.2 -18.1 67.1 -27.65 46.7 -34.8 34.2 -81.45 -20.85 -31.9 M16.95 38.55 Q6.0 32.8 -5.85 31.65 -25.65 26.0 -41.0 15.95 L-41.2 15.85 -41.3 15.8 -41.55 15.6 Q-48.3 11.15 -54.15 5.9 -64.05 -8.0 -49.65 -2.7 -56.85 -10.65 -63.5 -22.1 M-49.65 -2.7 Q-46.05 1.35 -42.2 4.55 L-36.65 8.7 Q-33.8 10.5 -30.9 11.95" fill="none" stroke="#4a4f58" stroke-linecap="round" stroke-linejoin="miter-clip" stroke-miterlimit="3.0" stroke-width="1.2000000000000002"/>
  </g>
</svg>
