<?xml version="1.0" encoding="UTF-8" standalone="no"?>
<svg xmlns:xlink="http://www.w3.org/1999/xlink" height="112.9px" width="169.45px" xmlns="http://www.w3.org/2000/svg">
  <g transform="matrix(1.0, 0.0, 0.0, 1.0, 84.85, 56.45)">
    <path d="M19.8 -53.15 L19.6 -52.25 Q17.15 -52.8 7.55 -48.85 L7.2 -48.7 Q-6.0 -43.2 -6.0 -41.3 L-5.9 -40.65 Q-5.55 -40.05 -3.9 -40.05 0.05 -40.05 5.8 -41.4 11.25 -42.7 11.25 -43.35 L11.15 -43.9 12.2 -44.1 Q63.1 -41.3 26.85 -31.2 L27.75 -30.15 Q27.3 -30.55 26.4 -30.55 L26.05 -30.5 25.15 -31.25 16.8 -30.5 Q15.15 -30.0 15.15 -29.0 L15.4 -28.5 16.35 -27.75 21.5 -27.6 Q25.2 -24.35 30.85 -18.15 L35.3 -13.0 Q39.0 -8.4 39.0 -6.5 L38.65 -4.7 38.3 -2.95 Q38.3 -1.7 39.75 -1.7 L39.75 -1.45 30.65 -2.6 27.7 -3.0 31.3 -7.85 32.25 -9.2 32.35 -9.4 32.35 -9.45 Q32.3 -13.15 25.65 -7.2 18.6 -0.85 9.6 11.75 7.55 14.7 2.6 24.15 -0.9 30.85 -2.1 34.05 -7.7 39.1 -14.1 44.2 L-23.9 51.55 -23.85 52.25 Q-23.6 52.8 -22.35 52.8 L-22.15 54.3 Q-45.0 56.9 -69.9 55.2 -94.05 -1.3 -77.55 -17.3 -43.1 -45.85 -16.65 -48.9 -8.9 -57.45 4.85 -55.5 14.25 -54.4 19.8 -53.15 M-5.65 8.7 Q5.35 -0.7 21.05 -6.55 L21.9 -6.85 24.8 -7.85 Q31.85 -11.95 32.65 -10.95 32.95 -10.55 32.35 -9.45 32.95 -10.55 32.65 -10.95 31.85 -11.95 24.8 -7.85 L21.9 -6.85 21.05 -6.55 Q5.35 -0.7 -5.65 8.7" fill="#d6eefb" fill-rule="evenodd" stroke="none"/>
    <path d="M12.2 -44.1 L11.15 -43.9 11.25 -43.35 Q11.25 -42.7 5.8 -41.4 0.05 -40.05 -3.9 -40.05 -5.55 -40.05 -5.9 -40.65 L-6.0 -41.3 Q-6.0 -43.2 7.2 -48.7 L7.55 -48.85 Q17.15 -52.8 19.6 -52.25 L19.8 -53.15 Q38.45 -49.1 12.2 -44.1 M-22.15 54.3 L-22.35 52.8 Q-23.6 52.8 -23.85 52.25 L-23.9 51.55 -14.1 44.2 Q-7.7 39.1 -2.1 34.05 -0.9 30.85 2.6 24.15 7.55 14.7 9.6 11.75 18.6 -0.85 25.65 -7.2 32.3 -13.15 32.35 -9.45 L32.35 -9.4 32.25 -9.2 31.3 -7.85 27.7 -3.0 30.65 -2.6 39.75 -1.45 39.75 -1.7 Q38.3 -1.7 38.3 -2.95 L38.65 -4.7 39.0 -6.5 Q39.0 -8.4 35.3 -13.0 L30.85 -18.15 Q25.2 -24.35 21.5 -27.6 L16.35 -27.75 15.4 -28.5 15.15 -29.0 Q15.15 -30.0 16.8 -30.5 L25.15 -31.25 26.05 -30.5 26.4 -30.55 Q27.3 -30.55 27.75 -30.15 L28.25 -29.55 Q48.25 -13.05 57.25 1.05 77.75 4.15 84.0 6.5 L84.25 6.9 81.1 10.7 81.7 12.1 Q36.55 47.55 -22.15 54.3 M24.15 1.7 L27.7 -3.0 24.15 1.7 M57.25 1.05 L39.75 -1.45 57.25 1.05" fill="#a4c9de" fill-rule="evenodd" stroke="none"/>
    <path d="M19.8 -53.15 Q14.25 -54.4 4.85 -55.5 -8.9 -57.45 -16.65 -48.9 -43.1 -45.85 -77.55 -17.3 -94.05 -1.3 -69.9 55.2 -45.0 56.9 -22.15 54.3 36.55 47.55 81.7 12.1 M32.35 -9.45 Q32.95 -10.55 32.65 -10.95 31.85 -11.95 24.8 -7.85 L21.9 -6.85 21.05 -6.55 Q5.35 -0.7 -5.65 8.7 M27.75 -30.15 L26.85 -31.2 Q63.1 -41.3 12.2 -44.1 38.45 -49.1 19.8 -53.15 M27.75 -30.15 L28.25 -29.55 Q48.25 -13.05 57.25 1.05 77.75 4.15 84.0 6.5 M32.25 -9.2 L31.3 -7.85 27.7 -3.0 30.65 -2.6 39.75 -1.45 57.25 1.05 M27.7 -3.0 L24.15 1.7" fill="none" stroke="#4a4f58" stroke-linecap="round" stroke-linejoin="miter-clip" stroke-miterlimit="3.0" stroke-width="1.2000000000000002"/>
  </g>
</svg>
