<?xml version="1.0" encoding="UTF-8" standalone="no"?>
<svg xmlns:xlink="http://www.w3.org/1999/xlink" height="96.0px" width="122.0px" xmlns="http://www.w3.org/2000/svg">
  <g transform="matrix(1.0, 0.0, 0.0, 1.0, -18.0, -18.0)">
    <path d="M76.0 24.0 L76.0 22.0 78.0 22.0 78.0 24.0 80.0 24.0 80.0 28.0 82.0 28.0 82.0 32.0 80.0 32.0 80.0 36.0 78.0 36.0 78.0 40.0 76.0 40.0 76.0 44.0 74.0 44.0 74.0 48.0 72.0 48.0 72.0 50.0 70.0 50.0 70.0 52.0 68.0 52.0 68.0 54.0 66.0 54.0 64.0 54.0 64.0 52.0 68.0 52.0 68.0 50.0 70.0 50.0 70.0 48.0 72.0 48.0 72.0 44.0 74.0 44.0 74.0 40.0 76.0 40.0 76.0 36.0 78.0 36.0 78.0 32.0 80.0 32.0 80.0 28.0 78.0 28.0 78.0 24.0 76.0 24.0 M138.0 64.0 L140.0 64.0 140.0 66.0 138.0 66.0 138.0 72.0 136.0 72.0 136.0 66.0 138.0 66.0 138.0 64.0 M134.0 72.0 L134.0 74.0 132.0 74.0 132.0 72.0 134.0 72.0 M136.0 76.0 L136.0 78.0 134.0 78.0 134.0 80.0 130.0 80.0 130.0 84.0 128.0 84.0 128.0 86.0 126.0 86.0 126.0 84.0 128.0 84.0 128.0 80.0 130.0 80.0 130.0 78.0 134.0 78.0 134.0 76.0 136.0 76.0 M128.0 90.0 L128.0 92.0 122.0 92.0 122.0 94.0 120.0 94.0 120.0 92.0 122.0 92.0 122.0 90.0 128.0 90.0 M118.0 94.0 L118.0 96.0 116.0 96.0 116.0 100.0 114.0 100.0 114.0 96.0 116.0 96.0 116.0 94.0 118.0 94.0 M112.0 100.0 L110.0 100.0 110.0 98.0 112.0 98.0 112.0 100.0 M106.0 100.0 L102.0 100.0 102.0 98.0 106.0 98.0 106.0 100.0 M100.0 98.0 L98.0 98.0 98.0 96.0 96.0 96.0 96.0 94.0 94.0 94.0 94.0 96.0 92.0 96.0 92.0 100.0 90.0 100.0 90.0 104.0 88.0 104.0 88.0 108.0 86.0 108.0 86.0 110.0 78.0 110.0 78.0 108.0 76.0 108.0 76.0 104.0 78.0 104.0 78.0 106.0 78.0 108.0 80.0 108.0 82.0 108.0 84.0 108.0 86.0 108.0 86.0 104.0 88.0 104.0 88.0 100.0 90.0 100.0 90.0 96.0 92.0 96.0 92.0 90.0 94.0 90.0 94.0 92.0 96.0 92.0 96.0 94.0 100.0 94.0 100.0 98.0 M80.0 94.0 L78.0 94.0 78.0 92.0 74.0 92.0 74.0 90.0 72.0 90.0 72.0 88.0 70.0 88.0 70.0 86.0 72.0 86.0 74.0 86.0 74.0 90.0 78.0 90.0 78.0 92.0 82.0 92.0 82.0 94.0 80.0 94.0 M64.0 104.0 L64.0 110.0 62.0 110.0 62.0 112.0 60.0 112.0 60.0 114.0 52.0 114.0 52.0 112.0 56.0 112.0 58.0 112.0 60.0 112.0 60.0 110.0 62.0 110.0 62.0 100.0 64.0 100.0 64.0 102.0 64.0 104.0 M52.0 100.0 L50.0 100.0 50.0 102.0 46.0 102.0 46.0 106.0 44.0 106.0 44.0 110.0 42.0 110.0 42.0 112.0 34.0 112.0 34.0 110.0 32.0 110.0 32.0 108.0 34.0 108.0 34.0 110.0 36.0 110.0 38.0 110.0 40.0 110.0 42.0 110.0 42.0 106.0 44.0 106.0 44.0 100.0 50.0 100.0 50.0 98.0 52.0 98.0 52.0 96.0 56.0 96.0 56.0 98.0 54.0 98.0 52.0 98.0 52.0 100.0 M34.0 100.0 L34.0 98.0 32.0 98.0 32.0 96.0 34.0 96.0 34.0 98.0 36.0 98.0 44.0 98.0 44.0 100.0 36.0 100.0 34.0 100.0 M24.0 92.0 L22.0 92.0 22.0 88.0 24.0 88.0 24.0 92.0 M22.0 86.0 L20.0 86.0 20.0 82.0 22.0 82.0 22.0 86.0 M28.0 20.0 L30.0 20.0 30.0 28.0 32.0 28.0 32.0 32.0 34.0 32.0 34.0 36.0 36.0 36.0 36.0 40.0 36.0 42.0 34.0 42.0 34.0 36.0 32.0 36.0 32.0 32.0 30.0 32.0 30.0 28.0 28.0 28.0 28.0 20.0 M48.0 38.0 L50.0 38.0 50.0 42.0 52.0 42.0 52.0 44.0 52.0 46.0 52.0 52.0 50.0 52.0 50.0 42.0 48.0 42.0 48.0 40.0 48.0 38.0 M48.0 52.0 L50.0 52.0 50.0 56.0 48.0 56.0 48.0 58.0 46.0 58.0 46.0 56.0 48.0 56.0 48.0 52.0 M44.0 58.0 L44.0 60.0 40.0 60.0 40.0 62.0 36.0 62.0 36.0 60.0 40.0 60.0 40.0 58.0 44.0 58.0 M30.0 72.0 L30.0 70.0 32.0 70.0 32.0 72.0 30.0 72.0 M32.0 76.0 L36.0 76.0 36.0 78.0 48.0 78.0 48.0 76.0 52.0 76.0 52.0 74.0 54.0 74.0 54.0 72.0 56.0 72.0 56.0 68.0 58.0 68.0 58.0 56.0 60.0 56.0 60.0 66.0 60.0 68.0 58.0 68.0 58.0 72.0 56.0 72.0 56.0 74.0 54.0 74.0 54.0 76.0 52.0 76.0 52.0 78.0 48.0 78.0 48.0 80.0 46.0 80.0 36.0 80.0 36.0 78.0 32.0 78.0 32.0 76.0 M58.0 54.0 L56.0 54.0 56.0 56.0 54.0 56.0 54.0 52.0 56.0 52.0 56.0 50.0 58.0 50.0 58.0 48.0 60.0 48.0 60.0 46.0 58.0 46.0 58.0 44.0 62.0 44.0 62.0 40.0 64.0 40.0 64.0 38.0 68.0 38.0 68.0 36.0 72.0 36.0 72.0 34.0 74.0 34.0 74.0 32.0 76.0 32.0 76.0 30.0 78.0 30.0 78.0 32.0 76.0 32.0 76.0 36.0 74.0 36.0 74.0 40.0 72.0 40.0 70.0 40.0 70.0 42.0 66.0 42.0 66.0 44.0 64.0 44.0 64.0 46.0 62.0 46.0 62.0 48.0 60.0 48.0 60.0 50.0 62.0 50.0 62.0 52.0 58.0 52.0 58.0 54.0 M66.0 48.0 L66.0 50.0 64.0 50.0 64.0 48.0 66.0 48.0 M60.0 54.0 L64.0 54.0 64.0 56.0 60.0 56.0 60.0 54.0 M72.0 62.0 L72.0 64.0 74.0 64.0 74.0 66.0 72.0 66.0 72.0 64.0 70.0 64.0 70.0 62.0 72.0 62.0 M26.0 64.0 L28.0 64.0 28.0 68.0 26.0 68.0 26.0 64.0 M42.0 70.0 L42.0 66.0 42.0 64.0 44.0 64.0 44.0 62.0 50.0 62.0 50.0 64.0 46.0 64.0 44.0 64.0 44.0 66.0 46.0 66.0 46.0 68.0 48.0 68.0 48.0 70.0 42.0 70.0 M72.0 74.0 L72.0 72.0 74.0 72.0 74.0 70.0 76.0 70.0 76.0 72.0 74.0 72.0 74.0 74.0 76.0 74.0 76.0 80.0 74.0 80.0 74.0 74.0 72.0 74.0 M74.0 68.0 L74.0 66.0 78.0 66.0 78.0 68.0 80.0 68.0 80.0 70.0 78.0 70.0 78.0 68.0 74.0 68.0 M56.0 96.0 L56.0 94.0 60.0 94.0 60.0 96.0 66.0 96.0 68.0 96.0 68.0 98.0 66.0 98.0 66.0 100.0 64.0 100.0 64.0 98.0 58.0 98.0 58.0 96.0 56.0 96.0 M66.0 92.0 L64.0 92.0 64.0 90.0 68.0 90.0 70.0 90.0 70.0 92.0 66.0 92.0" fill="#000000" fill-rule="evenodd" stroke="none"/>
    <path d="M92.0 60.0 L92.0 58.0 96.0 58.0 96.0 56.0 100.0 56.0 100.0 54.0 106.0 54.0 106.0 52.0 110.0 52.0 110.0 54.0 106.0 54.0 106.0 56.0 100.0 56.0 100.0 58.0 96.0 58.0 96.0 60.0 94.0 60.0 94.0 62.0 92.0 62.0 92.0 60.0 M112.0 56.0 L114.0 56.0 114.0 58.0 112.0 58.0 112.0 56.0 M116.0 58.0 L116.0 56.0 118.0 56.0 118.0 58.0 116.0 58.0 M120.0 60.0 L122.0 60.0 122.0 62.0 128.0 62.0 128.0 64.0 120.0 64.0 120.0 60.0 M130.0 62.0 L130.0 58.0 132.0 58.0 132.0 56.0 134.0 56.0 134.0 58.0 132.0 58.0 132.0 62.0 130.0 62.0 M132.0 50.0 L134.0 50.0 134.0 52.0 136.0 52.0 136.0 54.0 134.0 54.0 134.0 52.0 132.0 52.0 132.0 50.0 M28.0 50.0 L28.0 48.0 30.0 48.0 30.0 46.0 30.0 44.0 32.0 44.0 32.0 42.0 34.0 42.0 36.0 42.0 36.0 40.0 38.0 40.0 38.0 42.0 36.0 42.0 36.0 44.0 32.0 44.0 32.0 48.0 30.0 48.0 30.0 50.0 28.0 50.0 M90.0 64.0 L90.0 66.0 92.0 66.0 92.0 68.0 90.0 68.0 88.0 68.0 88.0 66.0 88.0 64.0 90.0 64.0 M92.0 72.0 L94.0 72.0 94.0 74.0 92.0 74.0 92.0 72.0 M116.0 78.0 L116.0 76.0 118.0 76.0 118.0 78.0 116.0 78.0 M128.0 80.0 L128.0 76.0 130.0 76.0 130.0 74.0 132.0 74.0 132.0 76.0 134.0 76.0 134.0 78.0 130.0 78.0 130.0 80.0 128.0 80.0 M118.0 90.0 L120.0 90.0 120.0 92.0 118.0 92.0 118.0 90.0 M136.0 58.0 L138.0 58.0 138.0 60.0 136.0 60.0 136.0 58.0 M136.0 64.0 L138.0 64.0 138.0 66.0 136.0 66.0 136.0 64.0 M44.0 36.0 L46.0 36.0 46.0 38.0 48.0 38.0 48.0 40.0 46.0 40.0 46.0 38.0 44.0 38.0 44.0 36.0 M48.0 42.0 L50.0 42.0 50.0 52.0 48.0 52.0 48.0 48.0 46.0 48.0 44.0 48.0 44.0 46.0 48.0 46.0 48.0 42.0 M38.0 36.0 L38.0 34.0 40.0 34.0 40.0 36.0 38.0 36.0 M36.0 58.0 L40.0 58.0 40.0 56.0 44.0 56.0 44.0 54.0 46.0 54.0 46.0 56.0 44.0 56.0 44.0 58.0 40.0 58.0 40.0 60.0 36.0 60.0 36.0 58.0 M22.0 80.0 L24.0 80.0 24.0 82.0 22.0 82.0 22.0 80.0 M24.0 88.0 L26.0 88.0 26.0 92.0 24.0 92.0 24.0 88.0 M34.0 96.0 L36.0 96.0 36.0 98.0 34.0 98.0 34.0 96.0 M70.0 68.0 L70.0 66.0 72.0 66.0 74.0 66.0 74.0 68.0 74.0 70.0 72.0 70.0 72.0 68.0 70.0 68.0 M64.0 70.0 L66.0 70.0 66.0 72.0 64.0 72.0 64.0 70.0" fill="#c8a050" fill-rule="evenodd" stroke="none"/>
    <path d="M66.0 54.0 L66.0 56.0 70.0 56.0 70.0 58.0 72.0 58.0 72.0 60.0 74.0 60.0 74.0 62.0 74.0 64.0 72.0 64.0 72.0 62.0 72.0 60.0 70.0 60.0 70.0 58.0 66.0 58.0 66.0 56.0 64.0 56.0 64.0 54.0 66.0 54.0 M86.0 66.0 L86.0 62.0 90.0 62.0 90.0 60.0 92.0 60.0 92.0 62.0 90.0 62.0 90.0 64.0 88.0 64.0 88.0 66.0 86.0 66.0 M110.0 54.0 L112.0 54.0 112.0 56.0 112.0 58.0 110.0 58.0 110.0 60.0 106.0 60.0 106.0 58.0 110.0 58.0 110.0 54.0 M132.0 52.0 L130.0 52.0 130.0 50.0 132.0 50.0 132.0 52.0 M136.0 54.0 L138.0 54.0 138.0 58.0 140.0 58.0 140.0 62.0 138.0 62.0 138.0 64.0 136.0 64.0 136.0 62.0 138.0 62.0 138.0 60.0 138.0 58.0 136.0 58.0 136.0 54.0 M134.0 74.0 L136.0 74.0 136.0 76.0 134.0 76.0 132.0 76.0 132.0 74.0 134.0 74.0 M128.0 86.0 L130.0 86.0 130.0 90.0 128.0 90.0 128.0 86.0 M120.0 94.0 L118.0 94.0 118.0 92.0 114.0 92.0 114.0 90.0 118.0 90.0 118.0 88.0 120.0 88.0 120.0 90.0 118.0 90.0 118.0 92.0 120.0 92.0 120.0 90.0 122.0 90.0 122.0 92.0 120.0 92.0 120.0 94.0 M108.0 100.0 L108.0 102.0 106.0 102.0 106.0 100.0 108.0 100.0 M32.0 98.0 L28.0 98.0 28.0 96.0 26.0 96.0 26.0 94.0 24.0 94.0 24.0 92.0 26.0 92.0 26.0 94.0 28.0 94.0 28.0 96.0 32.0 96.0 32.0 98.0 M20.0 82.0 L20.0 78.0 18.0 78.0 18.0 70.0 20.0 70.0 20.0 68.0 22.0 68.0 22.0 62.0 24.0 62.0 24.0 58.0 26.0 58.0 26.0 56.0 28.0 56.0 28.0 50.0 30.0 50.0 30.0 56.0 32.0 56.0 32.0 58.0 36.0 58.0 36.0 60.0 32.0 60.0 32.0 58.0 30.0 58.0 30.0 56.0 28.0 56.0 28.0 58.0 26.0 58.0 26.0 60.0 26.0 62.0 24.0 62.0 24.0 68.0 22.0 68.0 22.0 70.0 20.0 70.0 20.0 78.0 22.0 78.0 22.0 80.0 22.0 82.0 20.0 82.0 M36.0 36.0 L36.0 34.0 38.0 34.0 38.0 32.0 42.0 32.0 42.0 34.0 46.0 34.0 46.0 36.0 48.0 36.0 48.0 38.0 46.0 38.0 46.0 36.0 44.0 36.0 42.0 36.0 42.0 34.0 40.0 34.0 38.0 34.0 38.0 36.0 40.0 36.0 40.0 40.0 38.0 40.0 38.0 36.0 36.0 36.0 M116.0 94.0 L116.0 96.0 114.0 96.0 114.0 94.0 116.0 94.0 M46.0 48.0 L48.0 48.0 48.0 52.0 48.0 56.0 46.0 56.0 46.0 58.0 44.0 58.0 44.0 56.0 46.0 56.0 46.0 54.0 46.0 48.0 M70.0 74.0 L70.0 72.0 72.0 72.0 72.0 74.0 70.0 74.0 M74.0 80.0 L74.0 82.0 76.0 82.0 76.0 84.0 74.0 84.0 74.0 86.0 72.0 86.0 72.0 84.0 74.0 84.0 74.0 82.0 72.0 82.0 72.0 80.0 74.0 80.0 M64.0 90.0 L62.0 90.0 62.0 88.0 64.0 88.0 64.0 90.0" fill="#785828" fill-rule="evenodd" stroke="none"/>
    <path d="M74.0 62.0 L80.0 62.0 80.0 64.0 84.0 64.0 84.0 66.0 86.0 66.0 88.0 66.0 88.0 68.0 90.0 68.0 90.0 70.0 92.0 70.0 92.0 72.0 92.0 74.0 94.0 74.0 94.0 86.0 92.0 86.0 92.0 90.0 90.0 90.0 90.0 80.0 92.0 80.0 92.0 74.0 90.0 74.0 90.0 70.0 88.0 70.0 88.0 68.0 84.0 68.0 84.0 66.0 80.0 66.0 80.0 64.0 74.0 64.0 74.0 62.0 M76.0 104.0 L76.0 102.0 78.0 102.0 78.0 100.0 80.0 100.0 80.0 94.0 82.0 94.0 82.0 100.0 80.0 100.0 80.0 102.0 78.0 102.0 78.0 104.0 76.0 104.0 M74.0 92.0 L74.0 96.0 72.0 96.0 72.0 100.0 70.0 100.0 70.0 102.0 68.0 102.0 68.0 104.0 64.0 104.0 64.0 102.0 68.0 102.0 68.0 100.0 70.0 100.0 70.0 96.0 72.0 96.0 72.0 90.0 74.0 90.0 74.0 92.0 M52.0 112.0 L50.0 112.0 50.0 106.0 52.0 106.0 52.0 100.0 52.0 98.0 54.0 98.0 54.0 106.0 52.0 106.0 52.0 112.0 M32.0 108.0 L32.0 104.0 34.0 104.0 34.0 100.0 36.0 100.0 36.0 104.0 34.0 104.0 34.0 106.0 34.0 108.0 32.0 108.0 M28.0 48.0 L28.0 46.0 26.0 46.0 26.0 42.0 24.0 42.0 24.0 34.0 22.0 34.0 22.0 32.0 24.0 32.0 24.0 20.0 26.0 20.0 26.0 18.0 28.0 18.0 28.0 20.0 26.0 20.0 26.0 32.0 24.0 32.0 24.0 34.0 26.0 34.0 26.0 42.0 28.0 42.0 28.0 46.0 30.0 46.0 30.0 48.0 28.0 48.0 M52.0 44.0 L54.0 44.0 54.0 42.0 56.0 42.0 56.0 36.0 58.0 36.0 58.0 34.0 60.0 34.0 60.0 36.0 62.0 36.0 62.0 34.0 64.0 34.0 64.0 32.0 68.0 32.0 68.0 30.0 72.0 30.0 72.0 28.0 74.0 28.0 74.0 24.0 76.0 24.0 76.0 28.0 74.0 28.0 74.0 30.0 72.0 30.0 72.0 32.0 68.0 32.0 68.0 34.0 64.0 34.0 64.0 36.0 62.0 36.0 62.0 38.0 60.0 38.0 60.0 36.0 58.0 36.0 58.0 42.0 56.0 42.0 56.0 44.0 54.0 44.0 54.0 46.0 52.0 46.0 52.0 44.0 M80.0 106.0 L80.0 108.0 78.0 108.0 78.0 106.0 80.0 106.0 M82.0 108.0 L82.0 106.0 84.0 106.0 84.0 108.0 82.0 108.0 M30.0 58.0 L30.0 60.0 28.0 60.0 28.0 62.0 26.0 62.0 26.0 60.0 28.0 60.0 28.0 58.0 28.0 56.0 30.0 56.0 30.0 58.0 M28.0 68.0 L28.0 72.0 30.0 72.0 30.0 74.0 32.0 74.0 32.0 76.0 30.0 76.0 30.0 74.0 28.0 74.0 28.0 72.0 26.0 72.0 26.0 68.0 28.0 68.0 M32.0 70.0 L34.0 70.0 34.0 72.0 32.0 72.0 32.0 70.0 M58.0 56.0 L58.0 54.0 60.0 54.0 60.0 56.0 58.0 56.0 M58.0 48.0 L54.0 48.0 54.0 46.0 58.0 46.0 60.0 46.0 60.0 48.0 58.0 48.0 M42.0 70.0 L40.0 70.0 40.0 66.0 42.0 66.0 42.0 70.0 M42.0 64.0 L42.0 62.0 44.0 62.0 44.0 64.0 42.0 64.0 M56.0 110.0 L58.0 110.0 58.0 112.0 56.0 112.0 56.0 110.0 M40.0 110.0 L38.0 110.0 38.0 108.0 40.0 108.0 40.0 110.0 M36.0 110.0 L34.0 110.0 34.0 108.0 36.0 108.0 36.0 110.0" fill="#602800" fill-rule="evenodd" stroke="none"/>
    <path d="M134.0 54.0 L132.0 54.0 132.0 52.0 134.0 52.0 134.0 54.0 M28.0 58.0 L28.0 60.0 26.0 60.0 26.0 58.0 28.0 58.0" fill="#f8f090" fill-rule="evenodd" stroke="none"/>
    <path d="M76.0 24.0 L78.0 24.0 78.0 28.0 80.0 28.0 80.0 32.0 78.0 32.0 78.0 30.0 76.0 30.0 76.0 32.0 74.0 32.0 74.0 34.0 72.0 34.0 72.0 36.0 68.0 36.0 68.0 38.0 64.0 38.0 64.0 40.0 62.0 40.0 62.0 44.0 58.0 44.0 58.0 46.0 54.0 46.0 54.0 44.0 56.0 44.0 56.0 42.0 58.0 42.0 58.0 36.0 60.0 36.0 60.0 38.0 62.0 38.0 62.0 36.0 64.0 36.0 64.0 34.0 68.0 34.0 68.0 32.0 72.0 32.0 72.0 30.0 74.0 30.0 74.0 28.0 76.0 28.0 76.0 24.0" fill="#cf9736" fill-rule="evenodd" stroke="none"/>
    <path d="M78.0 32.0 L78.0 36.0 76.0 36.0 76.0 40.0 74.0 40.0 74.0 44.0 72.0 44.0 72.0 48.0 70.0 48.0 70.0 50.0 68.0 50.0 68.0 52.0 64.0 52.0 64.0 54.0 60.0 54.0 58.0 54.0 58.0 52.0 62.0 52.0 62.0 50.0 64.0 50.0 66.0 50.0 66.0 48.0 68.0 48.0 68.0 46.0 70.0 46.0 70.0 44.0 72.0 44.0 72.0 40.0 74.0 40.0 74.0 36.0 76.0 36.0 76.0 32.0 78.0 32.0 M26.0 20.0 L28.0 20.0 28.0 28.0 30.0 28.0 30.0 32.0 32.0 32.0 32.0 36.0 34.0 36.0 34.0 42.0 32.0 42.0 32.0 44.0 30.0 44.0 30.0 46.0 28.0 46.0 28.0 42.0 26.0 42.0 26.0 34.0 24.0 34.0 24.0 32.0 26.0 32.0 26.0 20.0 M44.0 106.0 L42.0 106.0 42.0 110.0 40.0 110.0 40.0 108.0 40.0 106.0 38.0 106.0 38.0 108.0 38.0 110.0 36.0 110.0 36.0 108.0 36.0 106.0 34.0 106.0 34.0 104.0 36.0 104.0 36.0 100.0 44.0 100.0 44.0 106.0" fill="#b07830" fill-rule="evenodd" stroke="none"/>
    <path d="M28.0 64.0 L30.0 64.0 30.0 68.0 28.0 68.0 28.0 64.0 M72.0 40.0 L72.0 44.0 70.0 44.0 70.0 46.0 68.0 46.0 68.0 48.0 66.0 48.0 64.0 48.0 64.0 50.0 62.0 50.0 60.0 50.0 60.0 48.0 62.0 48.0 62.0 46.0 64.0 46.0 64.0 44.0 66.0 44.0 66.0 42.0 70.0 42.0 70.0 40.0 72.0 40.0 M50.0 64.0 L50.0 68.0 48.0 68.0 46.0 68.0 46.0 66.0 46.0 64.0 50.0 64.0" fill="#202068" fill-rule="evenodd" stroke="none"/>
    <path d="M36.0 40.0 L36.0 36.0 38.0 36.0 38.0 40.0 36.0 40.0" fill="#ee00bd" fill-rule="evenodd" stroke="none"/>
    <path d="M28.0 62.0 L28.0 64.0 26.0 64.0 26.0 62.0 28.0 62.0 M46.0 64.0 L46.0 66.0 44.0 66.0 44.0 64.0 46.0 64.0" fill="#ffffff" fill-rule="evenodd" stroke="none"/>
    <path d="M78.0 104.0 L80.0 104.0 80.0 106.0 78.0 106.0 78.0 104.0 M82.0 106.0 L82.0 104.0 84.0 104.0 84.0 106.0 82.0 106.0 M42.0 66.0 L40.0 66.0 40.0 64.0 42.0 64.0 42.0 66.0 M58.0 110.0 L56.0 110.0 56.0 108.0 58.0 108.0 58.0 110.0 M34.0 108.0 L34.0 106.0 36.0 106.0 36.0 108.0 34.0 108.0 M38.0 108.0 L38.0 106.0 40.0 106.0 40.0 108.0 38.0 108.0" fill="#885018" fill-rule="evenodd" stroke="none"/>
    <path d="M66.0 72.0 L66.0 74.0 64.0 74.0 64.0 76.0 62.0 76.0 62.0 74.0 64.0 74.0 64.0 72.0 66.0 72.0 M54.0 90.0 L54.0 88.0 56.0 88.0 56.0 90.0 54.0 90.0" fill="#f8c878" fill-rule="evenodd" stroke="none"/>
    <path d="M72.0 72.0 L70.0 72.0 70.0 68.0 72.0 68.0 72.0 70.0 74.0 70.0 74.0 72.0 72.0 72.0" fill="#f8d580" fill-rule="evenodd" stroke="none"/>
    <path d="M74.0 70.0 L74.0 68.0 78.0 68.0 78.0 70.0 76.0 70.0 74.0 70.0" fill="#f8dc84" fill-rule="evenodd" stroke="none"/>
    <path d="M70.0 86.0 L70.0 88.0 72.0 88.0 72.0 90.0 72.0 96.0 70.0 96.0 70.0 100.0 68.0 100.0 68.0 102.0 64.0 102.0 64.0 100.0 66.0 100.0 66.0 98.0 68.0 98.0 68.0 96.0 66.0 96.0 66.0 92.0 70.0 92.0 70.0 90.0 68.0 90.0 68.0 86.0 70.0 86.0" fill="#83521c" fill-rule="evenodd" stroke="none"/>
    <path d="M84.0 66.0 L84.0 68.0 88.0 68.0 88.0 70.0 90.0 70.0 90.0 74.0 92.0 74.0 92.0 80.0 90.0 80.0 90.0 90.0 92.0 90.0 92.0 96.0 90.0 96.0 90.0 100.0 88.0 100.0 88.0 104.0 86.0 104.0 86.0 108.0 84.0 108.0 84.0 106.0 84.0 104.0 82.0 104.0 82.0 106.0 82.0 108.0 80.0 108.0 80.0 106.0 80.0 104.0 78.0 104.0 78.0 102.0 80.0 102.0 80.0 100.0 82.0 100.0 82.0 94.0 82.0 92.0 78.0 92.0 78.0 90.0 74.0 90.0 74.0 86.0 74.0 84.0 76.0 84.0 76.0 82.0 74.0 82.0 74.0 80.0 76.0 80.0 76.0 74.0 74.0 74.0 74.0 72.0 76.0 72.0 76.0 70.0 78.0 70.0 80.0 70.0 80.0 68.0 78.0 68.0 78.0 66.0 74.0 66.0 74.0 64.0 80.0 64.0 80.0 66.0 84.0 66.0 M50.0 52.0 L52.0 52.0 52.0 46.0 54.0 46.0 54.0 48.0 58.0 48.0 58.0 50.0 56.0 50.0 56.0 52.0 54.0 52.0 54.0 56.0 56.0 56.0 56.0 54.0 58.0 54.0 58.0 56.0 58.0 68.0 56.0 68.0 56.0 72.0 54.0 72.0 54.0 74.0 52.0 74.0 52.0 76.0 48.0 76.0 48.0 78.0 36.0 78.0 36.0 76.0 32.0 76.0 32.0 74.0 30.0 74.0 30.0 72.0 28.0 72.0 28.0 68.0 30.0 68.0 30.0 64.0 28.0 64.0 28.0 62.0 28.0 60.0 30.0 60.0 30.0 58.0 32.0 58.0 32.0 60.0 36.0 60.0 36.0 62.0 40.0 62.0 40.0 60.0 44.0 60.0 44.0 58.0 46.0 58.0 48.0 58.0 48.0 56.0 50.0 56.0 50.0 52.0 M32.0 70.0 L30.0 70.0 30.0 72.0 32.0 72.0 34.0 72.0 34.0 70.0 32.0 70.0 M40.0 66.0 L40.0 70.0 42.0 70.0 48.0 70.0 48.0 68.0 50.0 68.0 50.0 64.0 50.0 62.0 44.0 62.0 42.0 62.0 42.0 64.0 40.0 64.0 40.0 66.0 M54.0 98.0 L56.0 98.0 56.0 96.0 58.0 96.0 58.0 98.0 64.0 98.0 64.0 100.0 62.0 100.0 62.0 110.0 60.0 110.0 60.0 112.0 58.0 112.0 58.0 110.0 58.0 108.0 56.0 108.0 56.0 110.0 56.0 112.0 52.0 112.0 52.0 106.0 54.0 106.0 54.0 98.0" fill="#f6734a" fill-rule="evenodd" stroke="none"/>
    <path d="M114.0 58.0 L116.0 58.0 118.0 58.0 118.0 60.0 120.0 60.0 120.0 64.0 128.0 64.0 128.0 62.0 130.0 62.0 132.0 62.0 132.0 58.0 134.0 58.0 134.0 56.0 134.0 54.0 136.0 54.0 136.0 58.0 136.0 60.0 138.0 60.0 138.0 62.0 136.0 62.0 136.0 64.0 136.0 66.0 136.0 72.0 134.0 72.0 132.0 72.0 132.0 74.0 130.0 74.0 130.0 76.0 128.0 76.0 128.0 80.0 126.0 80.0 126.0 82.0 124.0 82.0 124.0 84.0 120.0 84.0 120.0 86.0 114.0 86.0 114.0 84.0 112.0 84.0 112.0 86.0 110.0 86.0 110.0 82.0 114.0 82.0 114.0 80.0 116.0 80.0 116.0 78.0 110.0 78.0 110.0 80.0 108.0 80.0 108.0 78.0 104.0 78.0 104.0 80.0 102.0 80.0 102.0 78.0 98.0 78.0 98.0 76.0 96.0 76.0 96.0 74.0 94.0 74.0 94.0 72.0 92.0 72.0 92.0 70.0 90.0 70.0 90.0 68.0 92.0 68.0 92.0 66.0 90.0 66.0 90.0 64.0 90.0 62.0 92.0 62.0 94.0 62.0 94.0 60.0 96.0 60.0 96.0 58.0 100.0 58.0 100.0 56.0 106.0 56.0 106.0 54.0 110.0 54.0 110.0 58.0 106.0 58.0 106.0 60.0 110.0 60.0 110.0 58.0 112.0 58.0 114.0 58.0 M22.0 88.0 L22.0 86.0 22.0 82.0 24.0 82.0 24.0 80.0 22.0 80.0 22.0 78.0 20.0 78.0 20.0 70.0 22.0 70.0 22.0 68.0 24.0 68.0 24.0 62.0 26.0 62.0 26.0 64.0 26.0 68.0 26.0 72.0 28.0 72.0 28.0 74.0 30.0 74.0 30.0 76.0 32.0 76.0 32.0 78.0 36.0 78.0 36.0 80.0 46.0 80.0 46.0 82.0 52.0 82.0 52.0 80.0 56.0 80.0 56.0 84.0 54.0 84.0 54.0 86.0 52.0 86.0 52.0 90.0 54.0 90.0 54.0 92.0 52.0 92.0 52.0 94.0 50.0 94.0 50.0 96.0 44.0 96.0 44.0 98.0 36.0 98.0 36.0 96.0 34.0 96.0 32.0 96.0 28.0 96.0 28.0 94.0 26.0 94.0 26.0 92.0 26.0 88.0 24.0 88.0 22.0 88.0 M116.0 78.0 L118.0 78.0 118.0 76.0 116.0 76.0 116.0 78.0 M42.0 34.0 L42.0 36.0 44.0 36.0 44.0 38.0 46.0 38.0 46.0 40.0 48.0 40.0 48.0 42.0 48.0 46.0 44.0 46.0 44.0 48.0 46.0 48.0 46.0 54.0 44.0 54.0 44.0 56.0 40.0 56.0 40.0 58.0 36.0 58.0 32.0 58.0 32.0 56.0 30.0 56.0 30.0 50.0 30.0 48.0 32.0 48.0 32.0 44.0 36.0 44.0 36.0 42.0 38.0 42.0 38.0 40.0 40.0 40.0 40.0 36.0 40.0 34.0 42.0 34.0 M64.0 56.0 L66.0 56.0 66.0 58.0 70.0 58.0 70.0 60.0 72.0 60.0 72.0 62.0 70.0 62.0 70.0 64.0 72.0 64.0 72.0 66.0 70.0 66.0 70.0 68.0 68.0 68.0 68.0 72.0 66.0 72.0 66.0 70.0 64.0 70.0 64.0 68.0 62.0 68.0 62.0 66.0 60.0 66.0 60.0 56.0 64.0 56.0 M64.0 72.0 L60.0 72.0 60.0 70.0 64.0 70.0 64.0 72.0 M70.0 74.0 L72.0 74.0 74.0 74.0 74.0 80.0 72.0 80.0 72.0 82.0 68.0 82.0 68.0 76.0 70.0 76.0 70.0 74.0 M56.0 80.0 L56.0 78.0 58.0 78.0 58.0 80.0 56.0 80.0" fill="#ffeea4" fill-rule="evenodd" stroke="none"/>
    <path d="M114.0 100.0 L112.0 100.0 112.0 98.0 110.0 98.0 110.0 100.0 108.0 100.0 106.0 100.0 106.0 98.0 102.0 98.0 100.0 98.0 100.0 94.0 96.0 94.0 96.0 92.0 94.0 92.0 94.0 90.0 92.0 90.0 92.0 86.0 94.0 86.0 94.0 74.0 96.0 74.0 96.0 76.0 98.0 76.0 98.0 78.0 102.0 78.0 102.0 80.0 104.0 80.0 104.0 78.0 108.0 78.0 108.0 80.0 110.0 80.0 110.0 78.0 116.0 78.0 116.0 80.0 114.0 80.0 114.0 82.0 110.0 82.0 110.0 86.0 112.0 86.0 112.0 84.0 114.0 84.0 114.0 86.0 120.0 86.0 120.0 84.0 124.0 84.0 124.0 82.0 126.0 82.0 126.0 80.0 128.0 80.0 128.0 84.0 126.0 84.0 126.0 86.0 128.0 86.0 128.0 90.0 122.0 90.0 120.0 90.0 120.0 88.0 118.0 88.0 118.0 90.0 114.0 90.0 114.0 92.0 118.0 92.0 118.0 94.0 116.0 94.0 114.0 94.0 114.0 96.0 114.0 100.0 M46.0 80.0 L48.0 80.0 48.0 78.0 52.0 78.0 52.0 76.0 54.0 76.0 54.0 74.0 56.0 74.0 56.0 72.0 58.0 72.0 58.0 68.0 60.0 68.0 60.0 66.0 62.0 66.0 62.0 68.0 64.0 68.0 64.0 70.0 60.0 70.0 60.0 72.0 64.0 72.0 64.0 74.0 62.0 74.0 62.0 76.0 64.0 76.0 64.0 74.0 66.0 74.0 66.0 72.0 68.0 72.0 68.0 68.0 70.0 68.0 70.0 72.0 70.0 74.0 70.0 76.0 68.0 76.0 68.0 82.0 72.0 82.0 74.0 82.0 74.0 84.0 72.0 84.0 72.0 86.0 70.0 86.0 68.0 86.0 68.0 90.0 64.0 90.0 64.0 92.0 66.0 92.0 66.0 96.0 60.0 96.0 60.0 94.0 56.0 94.0 56.0 96.0 52.0 96.0 52.0 98.0 50.0 98.0 50.0 100.0 44.0 100.0 44.0 98.0 44.0 96.0 50.0 96.0 50.0 94.0 52.0 94.0 52.0 92.0 54.0 92.0 54.0 90.0 52.0 90.0 52.0 86.0 54.0 86.0 54.0 84.0 56.0 84.0 56.0 80.0 52.0 80.0 52.0 82.0 46.0 82.0 46.0 80.0 M56.0 80.0 L58.0 80.0 58.0 78.0 56.0 78.0 56.0 80.0 M54.0 90.0 L56.0 90.0 56.0 88.0 54.0 88.0 54.0 90.0 M64.0 90.0 L64.0 88.0 62.0 88.0 62.0 90.0 64.0 90.0" fill="#c5a46a" fill-rule="evenodd" stroke="none"/>
  </g>
</svg>
