<?xml version="1.0" encoding="UTF-8" standalone="no"?>
<svg xmlns:xlink="http://www.w3.org/1999/xlink" height="94.0px" width="130.0px" xmlns="http://www.w3.org/2000/svg">
  <g transform="matrix(1.0, 0.0, 0.0, 1.0, -18.0, -20.0)">
    <path d="M108.0 66.0 L102.0 66.0 102.0 64.0 108.0 64.0 108.0 66.0 M102.0 66.0 L102.0 68.0 98.0 68.0 98.0 70.0 96.0 70.0 96.0 74.0 94.0 74.0 94.0 76.0 92.0 76.0 92.0 72.0 94.0 72.0 94.0 70.0 96.0 70.0 96.0 68.0 98.0 68.0 98.0 66.0 102.0 66.0 M120.0 98.0 L120.0 96.0 126.0 96.0 126.0 90.0 130.0 90.0 130.0 92.0 128.0 92.0 128.0 94.0 128.0 96.0 128.0 98.0 124.0 98.0 120.0 98.0 M138.0 90.0 L138.0 88.0 142.0 88.0 142.0 90.0 138.0 90.0 M144.0 84.0 L140.0 84.0 140.0 82.0 144.0 82.0 144.0 84.0 M138.0 82.0 L138.0 84.0 136.0 84.0 136.0 82.0 136.0 80.0 138.0 80.0 138.0 82.0 M134.0 82.0 L132.0 82.0 132.0 80.0 134.0 80.0 134.0 82.0 M130.0 80.0 L130.0 82.0 128.0 82.0 128.0 80.0 126.0 80.0 126.0 78.0 128.0 78.0 128.0 80.0 130.0 80.0 M124.0 76.0 L122.0 76.0 122.0 74.0 120.0 74.0 120.0 72.0 122.0 72.0 122.0 74.0 124.0 74.0 124.0 76.0 M120.0 70.0 L116.0 70.0 116.0 68.0 114.0 68.0 114.0 66.0 110.0 66.0 110.0 64.0 114.0 64.0 114.0 66.0 118.0 66.0 118.0 68.0 120.0 68.0 120.0 70.0 M148.0 84.0 L146.0 84.0 146.0 82.0 148.0 82.0 148.0 84.0 M46.0 38.0 L46.0 40.0 48.0 40.0 48.0 42.0 46.0 42.0 46.0 40.0 44.0 40.0 44.0 38.0 46.0 38.0 M48.0 44.0 L50.0 44.0 50.0 54.0 48.0 54.0 48.0 50.0 46.0 50.0 44.0 50.0 44.0 48.0 48.0 48.0 48.0 44.0 M30.0 48.0 L30.0 46.0 32.0 46.0 32.0 44.0 36.0 44.0 36.0 42.0 38.0 42.0 38.0 44.0 36.0 44.0 36.0 46.0 32.0 46.0 32.0 50.0 30.0 50.0 30.0 52.0 28.0 52.0 28.0 50.0 30.0 50.0 30.0 48.0 M38.0 36.0 L40.0 36.0 40.0 38.0 38.0 38.0 38.0 36.0 M36.0 60.0 L40.0 60.0 40.0 58.0 44.0 58.0 44.0 56.0 46.0 56.0 46.0 58.0 44.0 58.0 44.0 60.0 40.0 60.0 40.0 62.0 36.0 62.0 36.0 60.0 M22.0 80.0 L24.0 80.0 24.0 82.0 22.0 82.0 22.0 80.0 M24.0 88.0 L26.0 88.0 26.0 92.0 24.0 92.0 24.0 88.0 M32.0 96.0 L34.0 96.0 34.0 98.0 32.0 98.0 32.0 96.0 M72.0 68.0 L74.0 68.0 74.0 70.0 74.0 72.0 72.0 72.0 72.0 70.0 70.0 70.0 70.0 72.0 68.0 72.0 68.0 74.0 66.0 74.0 66.0 76.0 64.0 76.0 64.0 74.0 66.0 74.0 66.0 72.0 68.0 72.0 68.0 70.0 70.0 70.0 70.0 68.0 72.0 68.0" fill="#c8a050" fill-rule="evenodd" stroke="none"/>
    <path d="M120.0 72.0 L120.0 70.0 122.0 70.0 122.0 72.0 120.0 72.0 M92.0 72.0 L92.0 68.0 96.0 68.0 96.0 66.0 98.0 66.0 98.0 68.0 96.0 68.0 96.0 70.0 94.0 70.0 94.0 72.0 92.0 72.0 M108.0 104.0 L108.0 102.0 112.0 102.0 112.0 104.0 110.0 104.0 108.0 104.0 M120.0 104.0 L120.0 102.0 122.0 102.0 122.0 104.0 120.0 104.0 M128.0 96.0 L128.0 94.0 130.0 94.0 130.0 96.0 128.0 96.0 M62.0 56.0 L66.0 56.0 66.0 58.0 70.0 58.0 70.0 60.0 72.0 60.0 72.0 62.0 74.0 62.0 74.0 64.0 74.0 66.0 72.0 66.0 72.0 64.0 72.0 62.0 70.0 62.0 70.0 60.0 64.0 60.0 64.0 58.0 60.0 58.0 60.0 56.0 62.0 56.0 M38.0 34.0 L42.0 34.0 42.0 36.0 46.0 36.0 46.0 38.0 48.0 38.0 48.0 40.0 46.0 40.0 46.0 38.0 44.0 38.0 42.0 38.0 42.0 36.0 40.0 36.0 38.0 36.0 38.0 34.0 M36.0 38.0 L36.0 36.0 38.0 36.0 38.0 38.0 40.0 38.0 40.0 42.0 38.0 42.0 38.0 38.0 36.0 38.0 M46.0 56.0 L46.0 50.0 48.0 50.0 48.0 54.0 48.0 58.0 46.0 58.0 46.0 60.0 44.0 60.0 44.0 58.0 46.0 58.0 46.0 56.0 M36.0 62.0 L32.0 62.0 32.0 60.0 30.0 60.0 30.0 58.0 32.0 58.0 32.0 60.0 36.0 60.0 36.0 62.0 M30.0 52.0 L30.0 58.0 28.0 58.0 28.0 60.0 26.0 60.0 26.0 58.0 28.0 58.0 28.0 52.0 30.0 52.0 M26.0 62.0 L26.0 64.0 24.0 64.0 24.0 70.0 22.0 70.0 22.0 78.0 20.0 78.0 20.0 80.0 22.0 80.0 22.0 82.0 22.0 84.0 20.0 84.0 20.0 80.0 18.0 80.0 18.0 78.0 20.0 78.0 20.0 70.0 22.0 70.0 22.0 64.0 24.0 64.0 24.0 60.0 26.0 60.0 26.0 62.0 M26.0 92.0 L26.0 94.0 28.0 94.0 28.0 96.0 30.0 96.0 30.0 98.0 26.0 98.0 26.0 94.0 24.0 94.0 24.0 92.0 26.0 92.0 M74.0 82.0 L74.0 84.0 76.0 84.0 76.0 86.0 74.0 86.0 74.0 88.0 72.0 88.0 72.0 86.0 74.0 86.0 74.0 84.0 72.0 84.0 72.0 82.0 74.0 82.0 M70.0 88.0 L70.0 92.0 68.0 92.0 68.0 88.0 70.0 88.0 M72.0 74.0 L74.0 74.0 74.0 76.0 72.0 76.0 72.0 74.0 M64.0 92.0 L62.0 92.0 62.0 90.0 64.0 90.0 64.0 92.0" fill="#785828" fill-rule="evenodd" stroke="none"/>
    <path d="M74.0 64.0 L80.0 64.0 80.0 66.0 84.0 66.0 84.0 68.0 88.0 68.0 88.0 70.0 90.0 70.0 90.0 72.0 92.0 72.0 92.0 76.0 90.0 76.0 90.0 72.0 88.0 72.0 88.0 70.0 84.0 70.0 84.0 68.0 80.0 68.0 80.0 66.0 74.0 66.0 74.0 64.0 M92.0 76.0 L94.0 76.0 94.0 88.0 92.0 88.0 92.0 94.0 90.0 94.0 90.0 84.0 92.0 84.0 92.0 76.0 M82.0 98.0 L82.0 100.0 80.0 100.0 80.0 102.0 78.0 102.0 78.0 104.0 76.0 104.0 76.0 102.0 78.0 102.0 78.0 100.0 80.0 100.0 80.0 98.0 82.0 98.0 M80.0 106.0 L80.0 108.0 78.0 108.0 78.0 106.0 80.0 106.0 M82.0 108.0 L82.0 106.0 84.0 106.0 84.0 108.0 82.0 108.0 M72.0 24.0 L72.0 28.0 70.0 28.0 70.0 30.0 68.0 30.0 68.0 32.0 66.0 32.0 66.0 34.0 62.0 34.0 62.0 36.0 60.0 36.0 60.0 38.0 58.0 38.0 58.0 36.0 56.0 36.0 56.0 42.0 54.0 42.0 54.0 44.0 52.0 44.0 52.0 42.0 54.0 42.0 54.0 36.0 56.0 36.0 56.0 34.0 58.0 34.0 58.0 36.0 60.0 36.0 60.0 34.0 62.0 34.0 62.0 32.0 66.0 32.0 66.0 30.0 68.0 30.0 68.0 28.0 70.0 28.0 70.0 24.0 72.0 24.0 M52.0 46.0 L56.0 46.0 58.0 46.0 58.0 48.0 56.0 48.0 52.0 48.0 52.0 46.0 M30.0 22.0 L26.0 22.0 26.0 20.0 30.0 20.0 30.0 22.0 M26.0 22.0 L26.0 34.0 24.0 34.0 24.0 36.0 26.0 36.0 26.0 44.0 28.0 44.0 28.0 48.0 30.0 48.0 30.0 50.0 28.0 50.0 28.0 48.0 26.0 48.0 26.0 44.0 24.0 44.0 24.0 36.0 20.0 36.0 20.0 34.0 24.0 34.0 24.0 22.0 26.0 22.0 M30.0 60.0 L30.0 62.0 28.0 62.0 28.0 64.0 26.0 64.0 26.0 62.0 28.0 62.0 28.0 60.0 28.0 58.0 30.0 58.0 30.0 60.0 M28.0 70.0 L28.0 74.0 30.0 74.0 30.0 76.0 32.0 76.0 32.0 78.0 30.0 78.0 30.0 76.0 28.0 76.0 28.0 74.0 26.0 74.0 26.0 70.0 28.0 70.0 M32.0 72.0 L34.0 72.0 34.0 74.0 32.0 74.0 32.0 72.0 M56.0 56.0 L56.0 54.0 58.0 54.0 58.0 56.0 56.0 56.0 M40.0 68.0 L42.0 68.0 42.0 72.0 40.0 72.0 40.0 68.0 M42.0 66.0 L42.0 64.0 44.0 64.0 44.0 66.0 42.0 66.0 M72.0 94.0 L74.0 94.0 74.0 96.0 72.0 96.0 72.0 100.0 70.0 100.0 70.0 102.0 68.0 102.0 68.0 104.0 64.0 104.0 64.0 102.0 68.0 102.0 68.0 100.0 70.0 100.0 70.0 96.0 72.0 96.0 72.0 94.0 M52.0 112.0 L50.0 112.0 50.0 106.0 52.0 106.0 52.0 100.0 54.0 100.0 54.0 106.0 52.0 106.0 52.0 112.0 M32.0 108.0 L32.0 104.0 34.0 104.0 34.0 102.0 36.0 102.0 36.0 104.0 34.0 104.0 34.0 106.0 34.0 108.0 32.0 108.0 M58.0 112.0 L56.0 112.0 56.0 110.0 58.0 110.0 58.0 112.0 M40.0 110.0 L38.0 110.0 38.0 108.0 40.0 108.0 40.0 110.0 M36.0 110.0 L34.0 110.0 34.0 108.0 36.0 108.0 36.0 110.0" fill="#602800" fill-rule="evenodd" stroke="none"/>
    <path d="M130.0 90.0 L138.0 90.0 138.0 92.0 130.0 92.0 130.0 90.0 M142.0 88.0 L144.0 88.0 144.0 90.0 142.0 90.0 142.0 88.0 M146.0 88.0 L146.0 84.0 148.0 84.0 148.0 88.0 146.0 88.0 M92.0 94.0 L94.0 94.0 94.0 100.0 96.0 100.0 96.0 102.0 98.0 102.0 98.0 104.0 106.0 104.0 106.0 106.0 98.0 106.0 98.0 104.0 94.0 104.0 94.0 102.0 90.0 102.0 90.0 106.0 88.0 106.0 88.0 108.0 86.0 108.0 86.0 110.0 78.0 110.0 78.0 108.0 76.0 108.0 76.0 104.0 78.0 104.0 78.0 106.0 78.0 108.0 80.0 108.0 82.0 108.0 84.0 108.0 86.0 108.0 86.0 104.0 88.0 104.0 88.0 100.0 92.0 100.0 92.0 94.0 M108.0 106.0 L108.0 104.0 110.0 104.0 110.0 106.0 108.0 106.0 M114.0 104.0 L116.0 104.0 116.0 106.0 114.0 106.0 114.0 104.0 M118.0 104.0 L120.0 104.0 122.0 104.0 122.0 108.0 120.0 108.0 120.0 106.0 118.0 106.0 118.0 104.0 M120.0 102.0 L120.0 98.0 124.0 98.0 124.0 100.0 122.0 100.0 122.0 102.0 120.0 102.0 M74.0 88.0 L74.0 90.0 72.0 90.0 72.0 92.0 74.0 92.0 74.0 94.0 78.0 94.0 78.0 96.0 82.0 96.0 82.0 98.0 80.0 98.0 78.0 98.0 78.0 96.0 74.0 96.0 74.0 94.0 72.0 94.0 72.0 92.0 70.0 92.0 70.0 88.0 72.0 88.0 74.0 88.0 M74.0 24.0 L72.0 24.0 72.0 22.0 74.0 22.0 74.0 24.0 76.0 24.0 76.0 28.0 78.0 28.0 78.0 32.0 76.0 32.0 76.0 36.0 74.0 36.0 74.0 40.0 72.0 40.0 72.0 44.0 70.0 44.0 70.0 48.0 68.0 48.0 68.0 50.0 66.0 50.0 66.0 48.0 68.0 48.0 68.0 44.0 70.0 44.0 70.0 40.0 72.0 40.0 72.0 36.0 74.0 36.0 74.0 32.0 72.0 32.0 72.0 36.0 70.0 36.0 70.0 40.0 68.0 40.0 66.0 40.0 66.0 42.0 64.0 42.0 64.0 44.0 62.0 44.0 62.0 46.0 60.0 46.0 60.0 48.0 58.0 48.0 58.0 46.0 56.0 46.0 56.0 44.0 60.0 44.0 60.0 40.0 62.0 40.0 62.0 38.0 66.0 38.0 66.0 36.0 68.0 36.0 68.0 34.0 70.0 34.0 70.0 32.0 72.0 32.0 72.0 30.0 74.0 30.0 74.0 32.0 76.0 32.0 76.0 28.0 74.0 28.0 74.0 24.0 M52.0 44.0 L52.0 46.0 52.0 48.0 52.0 52.0 54.0 52.0 54.0 50.0 56.0 50.0 56.0 48.0 58.0 48.0 58.0 50.0 60.0 50.0 60.0 52.0 56.0 52.0 56.0 54.0 54.0 54.0 54.0 56.0 52.0 56.0 52.0 54.0 50.0 54.0 50.0 44.0 48.0 44.0 48.0 42.0 48.0 40.0 50.0 40.0 50.0 44.0 52.0 44.0 M66.0 52.0 L66.0 54.0 62.0 54.0 62.0 56.0 60.0 56.0 58.0 56.0 58.0 58.0 56.0 58.0 56.0 56.0 58.0 56.0 58.0 54.0 62.0 54.0 62.0 52.0 66.0 52.0 M62.0 50.0 L62.0 48.0 64.0 48.0 64.0 50.0 62.0 50.0 M36.0 42.0 L36.0 38.0 34.0 38.0 34.0 34.0 32.0 34.0 32.0 30.0 30.0 30.0 30.0 22.0 32.0 22.0 32.0 30.0 34.0 30.0 34.0 34.0 38.0 34.0 38.0 36.0 36.0 36.0 36.0 38.0 38.0 38.0 38.0 42.0 36.0 42.0 M48.0 54.0 L50.0 54.0 50.0 58.0 48.0 58.0 48.0 60.0 46.0 60.0 46.0 58.0 48.0 58.0 48.0 54.0 M44.0 60.0 L44.0 62.0 40.0 62.0 40.0 64.0 36.0 64.0 36.0 62.0 40.0 62.0 40.0 60.0 44.0 60.0 M30.0 74.0 L30.0 72.0 32.0 72.0 32.0 74.0 30.0 74.0 M32.0 78.0 L36.0 78.0 36.0 80.0 48.0 80.0 48.0 78.0 52.0 78.0 52.0 76.0 54.0 76.0 54.0 74.0 56.0 74.0 56.0 70.0 58.0 70.0 58.0 60.0 60.0 60.0 60.0 70.0 58.0 70.0 58.0 74.0 56.0 74.0 56.0 76.0 54.0 76.0 54.0 78.0 52.0 78.0 52.0 80.0 48.0 80.0 48.0 82.0 46.0 82.0 36.0 82.0 36.0 80.0 32.0 80.0 32.0 78.0 M26.0 66.0 L28.0 66.0 28.0 70.0 26.0 70.0 26.0 66.0 M42.0 68.0 L42.0 66.0 44.0 66.0 44.0 64.0 50.0 64.0 50.0 66.0 46.0 66.0 44.0 66.0 44.0 68.0 46.0 68.0 46.0 70.0 48.0 70.0 48.0 72.0 42.0 72.0 42.0 68.0 M22.0 84.0 L22.0 88.0 24.0 88.0 24.0 92.0 22.0 92.0 22.0 88.0 20.0 88.0 20.0 84.0 22.0 84.0 M30.0 96.0 L32.0 96.0 32.0 98.0 34.0 98.0 34.0 100.0 42.0 100.0 42.0 102.0 48.0 102.0 48.0 100.0 50.0 100.0 50.0 98.0 64.0 98.0 66.0 98.0 66.0 100.0 64.0 100.0 64.0 102.0 64.0 104.0 64.0 110.0 62.0 110.0 62.0 112.0 60.0 112.0 60.0 114.0 52.0 114.0 52.0 112.0 56.0 112.0 58.0 112.0 60.0 112.0 60.0 110.0 62.0 110.0 62.0 100.0 54.0 100.0 52.0 100.0 50.0 100.0 50.0 102.0 48.0 102.0 48.0 104.0 46.0 104.0 46.0 106.0 44.0 106.0 44.0 110.0 42.0 110.0 42.0 112.0 34.0 112.0 34.0 110.0 32.0 110.0 32.0 108.0 34.0 108.0 34.0 110.0 36.0 110.0 38.0 110.0 40.0 110.0 42.0 110.0 42.0 106.0 44.0 106.0 44.0 104.0 42.0 104.0 42.0 102.0 36.0 102.0 34.0 102.0 34.0 100.0 32.0 100.0 32.0 98.0 30.0 98.0 30.0 96.0 M72.0 64.0 L72.0 66.0 74.0 66.0 74.0 68.0 78.0 68.0 78.0 70.0 74.0 70.0 74.0 68.0 72.0 68.0 72.0 66.0 70.0 66.0 70.0 64.0 72.0 64.0 M78.0 72.0 L80.0 72.0 80.0 74.0 76.0 74.0 76.0 76.0 78.0 76.0 78.0 78.0 76.0 78.0 76.0 82.0 74.0 82.0 74.0 78.0 76.0 78.0 76.0 76.0 74.0 76.0 74.0 74.0 76.0 74.0 76.0 72.0 78.0 72.0 M68.0 92.0 L70.0 92.0 70.0 94.0 66.0 94.0 64.0 94.0 64.0 92.0 68.0 92.0" fill="#000000" fill-rule="evenodd" stroke="none"/>
    <path d="M72.0 24.0 L74.0 24.0 74.0 28.0 76.0 28.0 76.0 32.0 74.0 32.0 74.0 30.0 72.0 30.0 72.0 32.0 70.0 32.0 70.0 34.0 68.0 34.0 68.0 36.0 66.0 36.0 66.0 38.0 62.0 38.0 62.0 40.0 60.0 40.0 60.0 44.0 56.0 44.0 56.0 46.0 52.0 46.0 52.0 44.0 54.0 44.0 54.0 42.0 56.0 42.0 56.0 36.0 58.0 36.0 58.0 38.0 60.0 38.0 60.0 36.0 62.0 36.0 62.0 34.0 66.0 34.0 66.0 32.0 68.0 32.0 68.0 30.0 70.0 30.0 70.0 28.0 72.0 28.0 72.0 24.0" fill="#cf9736" fill-rule="evenodd" stroke="none"/>
    <path d="M60.0 50.0 L58.0 50.0 58.0 48.0 60.0 48.0 60.0 46.0 62.0 46.0 62.0 44.0 64.0 44.0 64.0 42.0 66.0 42.0 66.0 40.0 68.0 40.0 68.0 44.0 66.0 44.0 66.0 48.0 64.0 48.0 62.0 48.0 62.0 50.0 60.0 50.0 M28.0 66.0 L30.0 66.0 30.0 70.0 28.0 70.0 28.0 66.0 M50.0 66.0 L50.0 70.0 48.0 70.0 46.0 70.0 46.0 68.0 46.0 66.0 50.0 66.0" fill="#202068" fill-rule="evenodd" stroke="none"/>
    <path d="M56.0 48.0 L56.0 50.0 54.0 50.0 54.0 52.0 52.0 52.0 52.0 48.0 56.0 48.0" fill="#d8a038" fill-rule="evenodd" stroke="none"/>
    <path d="M66.0 50.0 L66.0 52.0 62.0 52.0 62.0 54.0 58.0 54.0 56.0 54.0 56.0 52.0 60.0 52.0 60.0 50.0 62.0 50.0 64.0 50.0 64.0 48.0 66.0 48.0 66.0 44.0 68.0 44.0 68.0 40.0 70.0 40.0 70.0 36.0 72.0 36.0 72.0 32.0 74.0 32.0 74.0 36.0 72.0 36.0 72.0 40.0 70.0 40.0 70.0 44.0 68.0 44.0 68.0 48.0 66.0 48.0 66.0 50.0 M26.0 22.0 L30.0 22.0 30.0 30.0 32.0 30.0 32.0 34.0 34.0 34.0 34.0 38.0 36.0 38.0 36.0 42.0 36.0 44.0 32.0 44.0 32.0 46.0 30.0 46.0 30.0 48.0 28.0 48.0 28.0 44.0 26.0 44.0 26.0 36.0 24.0 36.0 24.0 34.0 26.0 34.0 26.0 22.0 M42.0 102.0 L42.0 104.0 44.0 104.0 44.0 106.0 42.0 106.0 42.0 110.0 40.0 110.0 40.0 108.0 40.0 106.0 38.0 106.0 38.0 108.0 38.0 110.0 36.0 110.0 36.0 108.0 36.0 106.0 34.0 106.0 34.0 104.0 36.0 104.0 36.0 102.0 42.0 102.0" fill="#b07830" fill-rule="evenodd" stroke="none"/>
    <path d="M26.0 60.0 L28.0 60.0 28.0 62.0 26.0 62.0 26.0 60.0" fill="#f8f090" fill-rule="evenodd" stroke="none"/>
    <path d="M28.0 64.0 L28.0 66.0 26.0 66.0 26.0 64.0 28.0 64.0 M46.0 66.0 L46.0 68.0 44.0 68.0 44.0 66.0 46.0 66.0" fill="#ffffff" fill-rule="evenodd" stroke="none"/>
    <path d="M78.0 104.0 L80.0 104.0 80.0 106.0 78.0 106.0 78.0 104.0 M82.0 106.0 L82.0 104.0 84.0 104.0 84.0 106.0 82.0 106.0 M40.0 68.0 L40.0 66.0 42.0 66.0 42.0 68.0 40.0 68.0 M58.0 110.0 L56.0 110.0 56.0 108.0 58.0 108.0 58.0 110.0 M34.0 108.0 L34.0 106.0 36.0 106.0 36.0 108.0 34.0 108.0 M38.0 108.0 L38.0 106.0 40.0 106.0 40.0 108.0 38.0 108.0" fill="#885018" fill-rule="evenodd" stroke="none"/>
    <path d="M72.0 72.0 L70.0 72.0 70.0 74.0 68.0 74.0 68.0 76.0 66.0 76.0 66.0 78.0 64.0 78.0 64.0 76.0 62.0 76.0 62.0 74.0 64.0 74.0 64.0 76.0 66.0 76.0 66.0 74.0 68.0 74.0 68.0 72.0 70.0 72.0 70.0 70.0 72.0 70.0 72.0 72.0 M54.0 92.0 L54.0 90.0 56.0 90.0 56.0 92.0 54.0 92.0" fill="#f8c878" fill-rule="evenodd" stroke="none"/>
    <path d="M78.0 70.0 L78.0 72.0 76.0 72.0 76.0 74.0 74.0 74.0 72.0 74.0 72.0 72.0 74.0 72.0 74.0 70.0 78.0 70.0" fill="#f8dc84" fill-rule="evenodd" stroke="none"/>
    <path d="M70.0 92.0 L72.0 92.0 72.0 94.0 72.0 96.0 70.0 96.0 70.0 100.0 68.0 100.0 68.0 102.0 64.0 102.0 64.0 100.0 66.0 100.0 66.0 98.0 64.0 98.0 64.0 96.0 66.0 96.0 66.0 94.0 70.0 94.0 70.0 92.0" fill="#85511a" fill-rule="evenodd" stroke="none"/>
    <path d="M88.0 70.0 L88.0 72.0 90.0 72.0 90.0 76.0 92.0 76.0 92.0 84.0 90.0 84.0 90.0 94.0 92.0 94.0 92.0 100.0 88.0 100.0 88.0 104.0 86.0 104.0 86.0 108.0 84.0 108.0 84.0 106.0 84.0 104.0 82.0 104.0 82.0 106.0 82.0 108.0 80.0 108.0 80.0 106.0 80.0 104.0 78.0 104.0 78.0 102.0 80.0 102.0 80.0 100.0 82.0 100.0 82.0 98.0 82.0 96.0 78.0 96.0 78.0 94.0 74.0 94.0 74.0 92.0 72.0 92.0 72.0 90.0 74.0 90.0 74.0 88.0 74.0 86.0 76.0 86.0 76.0 84.0 74.0 84.0 74.0 82.0 76.0 82.0 76.0 78.0 78.0 78.0 78.0 76.0 76.0 76.0 76.0 74.0 80.0 74.0 80.0 72.0 78.0 72.0 78.0 70.0 78.0 68.0 74.0 68.0 74.0 66.0 80.0 66.0 80.0 68.0 84.0 68.0 84.0 70.0 88.0 70.0 M50.0 54.0 L52.0 54.0 52.0 56.0 54.0 56.0 54.0 54.0 56.0 54.0 56.0 56.0 56.0 58.0 58.0 58.0 58.0 60.0 58.0 70.0 56.0 70.0 56.0 74.0 54.0 74.0 54.0 76.0 52.0 76.0 52.0 78.0 48.0 78.0 48.0 80.0 36.0 80.0 36.0 78.0 32.0 78.0 32.0 76.0 30.0 76.0 30.0 74.0 28.0 74.0 28.0 70.0 30.0 70.0 30.0 66.0 28.0 66.0 28.0 64.0 28.0 62.0 30.0 62.0 30.0 60.0 32.0 60.0 32.0 62.0 36.0 62.0 36.0 64.0 40.0 64.0 40.0 62.0 44.0 62.0 44.0 60.0 46.0 60.0 48.0 60.0 48.0 58.0 50.0 58.0 50.0 54.0 M32.0 72.0 L30.0 72.0 30.0 74.0 32.0 74.0 34.0 74.0 34.0 72.0 32.0 72.0 M42.0 66.0 L40.0 66.0 40.0 68.0 40.0 72.0 42.0 72.0 48.0 72.0 48.0 70.0 50.0 70.0 50.0 66.0 50.0 64.0 44.0 64.0 42.0 64.0 42.0 66.0 M54.0 100.0 L62.0 100.0 62.0 110.0 60.0 110.0 60.0 112.0 58.0 112.0 58.0 110.0 58.0 108.0 56.0 108.0 56.0 110.0 56.0 112.0 52.0 112.0 52.0 106.0 54.0 106.0 54.0 100.0" fill="#f6734a" fill-rule="evenodd" stroke="none"/>
    <path d="M102.0 66.0 L108.0 66.0 110.0 66.0 114.0 66.0 114.0 68.0 116.0 68.0 116.0 70.0 120.0 70.0 120.0 72.0 120.0 74.0 122.0 74.0 122.0 76.0 124.0 76.0 126.0 76.0 126.0 78.0 126.0 80.0 128.0 80.0 128.0 82.0 130.0 82.0 130.0 80.0 132.0 80.0 132.0 82.0 134.0 82.0 136.0 82.0 136.0 84.0 138.0 84.0 138.0 82.0 140.0 82.0 140.0 84.0 144.0 84.0 146.0 84.0 146.0 88.0 144.0 88.0 142.0 88.0 138.0 88.0 138.0 90.0 130.0 90.0 126.0 90.0 126.0 96.0 120.0 96.0 120.0 98.0 110.0 98.0 110.0 96.0 108.0 96.0 108.0 98.0 106.0 98.0 106.0 96.0 104.0 96.0 104.0 94.0 102.0 94.0 102.0 92.0 108.0 92.0 108.0 90.0 106.0 90.0 106.0 88.0 104.0 88.0 104.0 86.0 100.0 86.0 100.0 84.0 96.0 84.0 96.0 82.0 98.0 82.0 98.0 80.0 96.0 80.0 96.0 76.0 94.0 76.0 94.0 74.0 96.0 74.0 96.0 70.0 98.0 70.0 98.0 68.0 102.0 68.0 102.0 66.0 M48.0 42.0 L48.0 44.0 48.0 48.0 44.0 48.0 44.0 50.0 46.0 50.0 46.0 56.0 44.0 56.0 44.0 58.0 40.0 58.0 40.0 60.0 36.0 60.0 32.0 60.0 32.0 58.0 30.0 58.0 30.0 52.0 30.0 50.0 32.0 50.0 32.0 46.0 36.0 46.0 36.0 44.0 38.0 44.0 38.0 42.0 40.0 42.0 40.0 38.0 40.0 36.0 42.0 36.0 42.0 38.0 44.0 38.0 44.0 40.0 46.0 40.0 46.0 42.0 48.0 42.0 M58.0 60.0 L58.0 58.0 58.0 56.0 60.0 56.0 60.0 58.0 64.0 58.0 64.0 60.0 70.0 60.0 70.0 62.0 72.0 62.0 72.0 64.0 70.0 64.0 70.0 66.0 72.0 66.0 72.0 68.0 70.0 68.0 70.0 70.0 68.0 70.0 68.0 72.0 66.0 72.0 66.0 74.0 64.0 74.0 64.0 72.0 62.0 72.0 62.0 70.0 60.0 70.0 60.0 60.0 58.0 60.0 M26.0 64.0 L26.0 66.0 26.0 70.0 26.0 74.0 28.0 74.0 28.0 76.0 30.0 76.0 30.0 78.0 32.0 78.0 32.0 80.0 36.0 80.0 36.0 82.0 46.0 82.0 46.0 84.0 52.0 84.0 52.0 82.0 58.0 82.0 58.0 84.0 56.0 84.0 56.0 86.0 54.0 86.0 54.0 88.0 52.0 88.0 52.0 92.0 54.0 92.0 54.0 94.0 52.0 94.0 52.0 96.0 48.0 96.0 48.0 98.0 42.0 98.0 42.0 100.0 34.0 100.0 34.0 98.0 34.0 96.0 32.0 96.0 30.0 96.0 28.0 96.0 28.0 94.0 26.0 94.0 26.0 92.0 26.0 88.0 24.0 88.0 22.0 88.0 22.0 84.0 22.0 82.0 24.0 82.0 24.0 80.0 22.0 80.0 20.0 80.0 20.0 78.0 22.0 78.0 22.0 70.0 24.0 70.0 24.0 64.0 26.0 64.0 M72.0 76.0 L74.0 76.0 76.0 76.0 76.0 78.0 74.0 78.0 74.0 82.0 72.0 82.0 72.0 84.0 68.0 84.0 68.0 78.0 72.0 78.0 72.0 76.0" fill="#ffeea4" fill-rule="evenodd" stroke="none"/>
    <path d="M94.0 76.0 L96.0 76.0 96.0 80.0 98.0 80.0 98.0 82.0 96.0 82.0 96.0 84.0 100.0 84.0 100.0 86.0 104.0 86.0 104.0 88.0 106.0 88.0 106.0 90.0 108.0 90.0 108.0 92.0 102.0 92.0 102.0 94.0 104.0 94.0 104.0 96.0 106.0 96.0 106.0 98.0 108.0 98.0 108.0 96.0 110.0 96.0 110.0 98.0 120.0 98.0 120.0 102.0 120.0 104.0 118.0 104.0 116.0 104.0 114.0 104.0 112.0 104.0 112.0 102.0 108.0 102.0 108.0 104.0 108.0 106.0 106.0 106.0 106.0 104.0 98.0 104.0 98.0 102.0 96.0 102.0 96.0 100.0 94.0 100.0 94.0 94.0 92.0 94.0 92.0 88.0 94.0 88.0 94.0 76.0 M46.0 82.0 L48.0 82.0 48.0 80.0 52.0 80.0 52.0 78.0 54.0 78.0 54.0 76.0 56.0 76.0 56.0 74.0 58.0 74.0 58.0 70.0 60.0 70.0 62.0 70.0 62.0 72.0 64.0 72.0 64.0 74.0 62.0 74.0 62.0 76.0 64.0 76.0 64.0 78.0 66.0 78.0 66.0 76.0 68.0 76.0 68.0 74.0 70.0 74.0 70.0 72.0 72.0 72.0 72.0 74.0 72.0 76.0 72.0 78.0 68.0 78.0 68.0 84.0 72.0 84.0 74.0 84.0 74.0 86.0 72.0 86.0 72.0 88.0 70.0 88.0 68.0 88.0 68.0 92.0 64.0 92.0 64.0 94.0 66.0 94.0 66.0 96.0 64.0 96.0 64.0 98.0 50.0 98.0 50.0 100.0 48.0 100.0 48.0 102.0 42.0 102.0 42.0 100.0 42.0 98.0 48.0 98.0 48.0 96.0 52.0 96.0 52.0 94.0 54.0 94.0 54.0 92.0 52.0 92.0 52.0 88.0 54.0 88.0 54.0 86.0 56.0 86.0 56.0 84.0 58.0 84.0 58.0 82.0 52.0 82.0 52.0 84.0 46.0 84.0 46.0 82.0 M54.0 92.0 L56.0 92.0 56.0 90.0 54.0 90.0 54.0 92.0 M64.0 92.0 L64.0 90.0 62.0 90.0 62.0 92.0 64.0 92.0" fill="#c5a46a" fill-rule="evenodd" stroke="none"/>
  </g>
</svg>
