<?xml version="1.0" encoding="UTF-8" standalone="no"?>
<svg xmlns:xlink="http://www.w3.org/1999/xlink" height="239.4px" width="318.9px" xmlns="http://www.w3.org/2000/svg">
  <g transform="matrix(1.0, 0.0, 0.0, 1.0, 159.4, 119.95)">
    <path d="M-134.1 -46.85 Q-121.6 -73.65 -107.9 -88.95 -94.85 -103.55 -78.1 -110.45 -63.35 -116.5 -41.2 -118.25 -27.65 -119.35 6.2 -119.35 L34.45 -118.3 Q53.0 -116.85 63.15 -113.65 73.35 -110.4 79.75 -108.0 88.5 -104.75 95.2 -101.25 100.0 -98.75 109.15 -91.9 117.3 -85.7 117.55 -85.7 L116.75 -84.8 114.65 -86.2 114.0 -86.1 114.1 -86.0 113.95 -85.85 113.9 -85.2 Q113.9 -84.25 115.75 -81.85 L121.8 -73.85 128.7 -64.0 Q134.5 -54.3 135.5 -45.8 136.95 -33.35 137.9 -12.25 138.8 8.1 138.8 25.3 138.8 31.7 135.05 42.65 130.35 56.2 123.2 64.25 116.25 72.05 104.35 76.0 93.65 79.5 80.35 79.5 66.6 79.5 60.65 71.6 56.35 65.9 54.25 53.7 57.6 41.65 56.85 29.6 55.8 25.4 53.55 25.6 L53.45 25.2 Q52.75 21.35 50.9 18.9 L50.2 17.9 49.65 17.75 Q41.95 13.9 32.45 17.2 30.5 17.9 29.65 19.25 L29.4 19.65 Q25.5 19.7 22.9 25.55 20.3 31.65 24.85 50.55 L25.05 52.85 25.1 53.25 Q25.4 56.65 26.1 58.85 L26.35 59.7 Q27.5 63.7 27.5 68.25 L27.35 70.75 Q26.5 77.4 20.95 82.5 12.9 89.9 -1.95 89.9 -3.9 89.9 -6.65 88.0 -10.35 85.4 -12.25 80.75 L-13.6 78.2 -13.35 81.3 Q-14.7 81.8 -17.85 84.0 -20.4 85.8 -21.75 87.25 L-18.3 83.4 -25.55 86.45 Q-31.45 89.05 -36.15 90.65 -51.65 95.9 -68.85 95.9 -113.05 95.9 -127.2 67.5 -131.95 58.0 -133.1 45.45 -133.4 42.15 -133.4 30.15 L-133.2 23.6 -132.9 15.8 -119.05 14.85 -114.35 14.15 Q-111.6 14.15 -105.55 17.1 L-99.4 20.05 -98.5 19.95 -98.25 19.85 -98.15 19.75 -98.15 19.05 Q-98.15 17.75 -102.2 14.15 L-101.35 14.2 Q-99.9 14.45 -99.15 13.4 -98.65 12.6 -98.65 11.55 L-100.95 6.6 Q-103.25 1.45 -103.25 -0.6 L-103.15 -1.65 -102.5 -1.8 Q-99.15 1.45 -96.55 2.85 -94.95 3.7 -94.15 3.7 L-93.35 3.5 Q-93.0 3.2 -93.0 2.3 -93.0 0.7 -96.05 -2.85 -99.15 -6.35 -99.15 -7.4 -99.15 -7.9 -96.95 -11.15 -94.6 -14.7 -94.25 -15.65 -93.6 -17.6 -93.6 -21.3 -93.6 -23.5 -94.0 -25.85 -94.6 -29.55 -95.85 -29.55 -96.25 -29.55 -102.4 -34.5 -109.2 -40.0 -111.55 -41.3 -115.3 -43.35 -124.85 -45.2 L-134.1 -46.85 M11.25 57.35 Q7.3 65.35 2.7 70.1 -2.55 75.5 -12.25 80.75 -2.55 75.5 2.7 70.1 7.3 65.35 11.25 57.35 M16.35 -31.65 L16.7 -31.7 Q17.3 -29.3 21.35 -21.65 L26.2 -12.8 Q27.65 -7.35 29.9 -3.05 34.25 5.35 41.15 5.35 43.25 5.35 45.65 -3.45 46.85 -7.85 47.65 -12.35 47.65 -20.4 46.5 -24.8 45.35 -29.15 45.35 -29.75 45.35 -34.35 44.45 -40.25 43.35 -47.55 42.9 -55.35 L42.9 -54.5 Q36.15 -55.2 31.6 -53.7 28.05 -52.0 26.7 -52.0 L24.6 -52.4 21.1 -52.95 15.65 -53.35 Q14.65 -53.35 14.35 -52.45 L14.2 -52.05 14.1 -52.7 14.85 -55.9 15.15 -59.1 14.8 -60.85 Q14.7 -60.85 14.45 -61.0 L13.6 -61.15 Q11.55 -61.15 8.6 -58.45 11.55 -61.15 13.6 -61.15 L14.45 -61.0 Q14.7 -60.85 14.8 -60.85 L15.15 -59.1 14.85 -55.9 14.1 -52.7 14.2 -52.05 15.6 -40.1 16.35 -31.65 Q17.25 -20.1 16.65 -16.3 15.6 -12.95 15.0 -9.4 15.6 -12.95 16.65 -16.3 17.25 -20.1 16.35 -31.65 M1.6 -62.25 L1.65 -63.1 3.15 -66.8 3.25 -68.4 Q3.25 -77.0 1.75 -81.55 L1.5 -81.7 0.3 -78.95 -0.7 -76.5 -1.15 -76.0 -1.35 -75.05 Q-1.55 -72.25 -1.4 -69.2 -1.15 -63.15 0.4 -61.35 1.4 -61.45 1.6 -62.25 M9.45 -74.75 Q10.65 -76.0 11.2 -76.0 L11.95 -75.85 12.05 -75.7 12.1 -74.65 12.05 -75.7 11.95 -75.85 11.2 -76.0 Q10.65 -76.0 9.45 -74.75 L7.55 -72.6 5.35 -69.75 Q4.05 -67.0 2.9 -62.75 -0.15 -51.6 -0.15 -44.2 L1.05 -42.95 Q1.9 -43.4 3.95 -47.55 5.85 -51.5 6.9 -54.7 L8.6 -58.45 Q11.05 -67.75 11.75 -71.2 12.2 -73.45 12.1 -74.65 L9.45 -74.75 M3.15 -66.8 L5.35 -69.75 3.15 -66.8 M10.75 -42.6 Q11.15 -43.25 12.55 -47.4 L14.1 -52.7 12.55 -47.4 Q11.15 -43.25 10.75 -42.6 M28.45 21.65 L28.8 21.9 28.8 22.25 28.5 22.5 28.1 22.5 28.45 21.65" fill="#d6eefb" fill-rule="evenodd" stroke="none"/>
    <path d="M-134.1 -46.85 L-124.85 -45.2 Q-115.3 -43.35 -111.55 -41.3 -109.2 -40.0 -102.4 -34.5 -96.25 -29.55 -95.85 -29.55 -94.6 -29.55 -94.0 -25.85 -93.6 -23.5 -93.6 -21.3 -93.6 -17.6 -94.25 -15.65 -94.6 -14.7 -96.95 -11.15 -99.15 -7.9 -99.15 -7.4 -99.15 -6.35 -96.05 -2.85 -93.0 0.7 -93.0 2.3 -93.0 3.2 -93.35 3.5 L-94.15 3.7 Q-94.95 3.7 -96.55 2.85 -99.15 1.45 -102.5 -1.8 L-103.15 -1.65 -103.25 -0.6 Q-103.25 1.45 -100.95 6.6 L-98.65 11.55 Q-98.65 12.6 -99.15 13.4 -99.9 14.45 -101.35 14.2 L-102.2 14.15 Q-98.15 17.75 -98.15 19.05 L-98.15 19.75 -98.25 19.85 -98.5 19.95 -99.4 20.05 -105.55 17.1 Q-111.6 14.15 -114.35 14.15 L-119.05 14.85 -132.9 15.8 -133.2 23.6 -133.4 30.15 Q-133.4 42.15 -133.1 45.45 -131.95 58.0 -127.2 67.5 -113.05 95.9 -68.85 95.9 -51.65 95.9 -36.15 90.65 -31.45 89.05 -25.55 86.45 L-18.3 83.4 -21.75 87.25 Q-20.4 85.8 -17.85 84.0 -14.7 81.8 -13.35 81.3 L-13.6 78.2 -12.25 80.75 Q-10.35 85.4 -6.65 88.0 -3.9 89.9 -1.95 89.9 12.9 89.9 20.95 82.5 26.5 77.4 27.35 70.75 L27.5 68.25 Q27.5 63.7 26.35 59.7 L26.1 58.85 Q25.4 56.65 25.1 53.25 L25.05 52.85 24.85 50.55 Q20.3 31.65 22.9 25.55 25.5 19.7 29.4 19.65 L28.45 21.65 28.1 22.5 Q27.55 23.15 27.45 24.4 L27.3 27.35 Q27.35 29.4 27.7 32.35 L27.9 33.8 28.1 35.45 Q29.35 41.1 32.55 47.45 36.85 56.0 41.4 58.15 L41.2 58.5 42.8 59.5 43.7 60.0 44.45 60.35 44.85 60.45 Q45.95 60.45 46.4 58.45 46.8 56.65 46.85 52.2 L46.85 48.85 Q46.95 46.05 47.95 42.7 L48.0 42.55 49.15 40.2 52.65 33.15 52.95 32.5 Q53.75 30.35 53.75 28.6 L53.55 25.6 Q55.8 25.4 56.85 29.6 57.6 41.65 54.25 53.7 56.35 65.9 60.65 71.6 66.6 79.5 80.35 79.5 93.65 79.5 104.35 76.0 116.25 72.05 123.2 64.25 130.35 56.2 135.05 42.65 138.8 31.7 138.8 25.3 138.8 8.1 137.9 -12.25 136.95 -33.35 135.5 -45.8 134.5 -54.3 128.7 -64.0 L121.8 -73.85 115.75 -81.85 Q113.9 -84.25 113.9 -85.2 L113.95 -85.85 114.1 -86.0 114.0 -86.1 114.65 -86.2 116.75 -84.8 117.55 -85.7 Q138.7 -63.85 148.4 -44.7 153.3 -35.05 153.95 -29.4 L153.75 -28.5 153.3 -28.3 Q151.8 -28.4 148.3 -32.15 L156.55 -16.6 Q158.9 -11.9 158.9 -9.65 L158.85 -8.8 158.75 -8.45 157.9 -8.2 Q156.85 -8.45 153.85 -10.35 150.5 -12.45 148.3 -14.45 152.85 -0.9 154.55 7.15 156.3 15.5 156.3 23.95 156.3 45.3 141.65 63.45 129.25 78.9 113.55 84.75 L113.25 85.35 63.35 91.3 Q62.65 92.3 61.3 92.3 54.95 92.3 30.75 95.2 L30.6 95.0 27.05 94.4 23.9 94.05 20.4 94.3 16.05 94.8 16.0 94.8 Q6.85 98.8 0.0 98.8 -6.35 98.8 -10.9 96.95 -15.85 94.95 -23.5 89.0 -26.35 92.5 -36.5 100.4 -46.65 108.25 -52.0 111.1 -52.75 110.5 -54.15 110.5 -59.55 110.5 -62.5 113.35 -64.0 114.8 -65.0 116.45 L-69.7 118.4 Q-72.5 119.45 -76.35 119.45 -85.55 119.45 -93.05 114.15 -94.85 112.9 -97.55 110.5 -99.4 108.85 -99.9 108.85 -100.5 108.85 -101.7 109.9 -126.15 91.1 -132.75 79.45 -136.25 73.3 -137.65 65.6 -138.7 59.6 -139.1 48.1 -140.7 53.15 -142.7 57.1 -145.3 62.25 -147.45 62.9 L-148.05 62.7 -148.6 60.5 -148.9 58.1 -148.35 48.1 -152.25 52.35 Q-154.1 53.85 -155.5 53.85 -156.85 53.85 -157.65 52.1 -158.8 49.7 -158.8 44.3 -158.8 33.75 -150.5 0.65 -141.45 -35.55 -134.1 -46.85 M14.2 -52.05 L14.35 -52.45 Q14.65 -53.35 15.65 -53.35 L21.1 -52.95 24.6 -52.4 26.7 -52.0 Q28.05 -52.0 31.6 -53.7 36.15 -55.2 42.9 -54.5 L42.9 -55.35 Q43.35 -47.55 44.45 -40.25 45.35 -34.35 45.35 -29.75 45.35 -29.15 46.5 -24.8 47.65 -20.4 47.65 -12.35 46.85 -7.85 45.65 -3.45 43.25 5.35 41.15 5.35 34.25 5.35 29.9 -3.05 27.65 -7.35 26.2 -12.8 L21.35 -21.65 Q17.3 -29.3 16.7 -31.7 L16.35 -31.65 15.6 -40.1 14.2 -52.05 M-0.7 -76.5 L0.3 -78.95 1.5 -81.7 1.75 -81.55 Q3.25 -77.0 3.25 -68.4 L3.15 -66.8 1.65 -63.1 1.6 -62.25 Q1.4 -61.45 0.4 -61.35 -1.15 -63.15 -1.4 -69.2 -1.55 -72.25 -1.35 -75.05 L-1.15 -76.0 -0.7 -76.5 M9.45 -74.75 L12.1 -74.65 Q12.2 -73.45 11.75 -71.2 11.05 -67.75 8.6 -58.45 L6.9 -54.7 Q5.85 -51.5 3.95 -47.55 1.9 -43.4 1.05 -42.95 L-0.15 -44.2 Q-0.15 -51.6 2.9 -62.75 4.05 -67.0 5.35 -69.75 L7.55 -72.6 9.45 -74.75 M23.1 -33.05 Q23.1 -25.95 28.0 -22.3 32.1 -19.25 38.55 -19.25 43.35 -19.25 43.35 -26.05 43.35 -35.65 40.2 -40.05 37.55 -43.75 33.25 -43.25 29.45 -42.8 26.25 -39.6 23.1 -36.4 23.1 -33.05 M31.4 47.3 Q34.45 52.2 36.25 54.5 39.35 58.5 41.2 58.5 39.35 58.5 36.25 54.5 34.45 52.2 31.4 47.3 M16.05 94.8 L16.3 94.65 Q19.5 93.15 29.05 87.55 L36.75 82.95 39.1 81.3 Q38.35 80.55 35.05 80.4 L39.85 77.75 Q44.3 75.35 44.95 74.6 L44.0 74.2 43.6 74.1 43.0 73.95 40.8 73.85 43.0 73.95 43.6 74.1 44.0 74.2 44.95 74.6 Q44.3 75.35 39.85 77.75 L35.05 80.4 Q38.35 80.55 39.1 81.3 L36.75 82.95 29.05 87.55 Q19.5 93.15 16.3 94.65 L16.05 94.8 M-12.25 80.75 L-13.35 81.3 -12.25 80.75 M-21.75 87.25 L-22.55 88.05 -23.5 89.0 -22.55 88.05 -21.75 87.25" fill="#a4c9de" fill-rule="evenodd" stroke="none"/>
    <path d="M23.1 -33.05 Q23.1 -36.4 26.25 -39.6 29.45 -42.8 33.25 -43.25 37.55 -43.75 40.2 -40.05 43.35 -35.65 43.35 -26.05 43.35 -19.25 38.55 -19.25 32.1 -19.25 28.0 -22.3 23.1 -25.95 23.1 -33.05 M29.65 -24.35 Q31.15 -24.85 32.5 -26.3 34.25 -28.35 34.2 -31.0 34.85 -29.95 36.45 -23.25 L36.7 -22.3 Q37.05 -23.5 37.05 -25.6 37.05 -29.05 34.35 -33.15 L38.5 -34.05 39.6 -33.85 40.35 -33.4 40.8 -33.15 38.85 -34.7 Q36.7 -35.7 34.15 -34.4 L34.8 -36.75 Q35.4 -39.0 36.05 -39.95 L36.5 -40.65 34.55 -37.6 33.0 -34.65 29.75 -35.85 27.8 -35.65 Q26.65 -35.4 26.6 -35.05 L26.75 -35.05 Q30.05 -35.05 31.85 -33.9 33.45 -32.9 33.45 -31.4 31.75 -26.35 29.65 -24.35 M25.05 -34.75 L25.55 -34.9 25.95 -34.95 25.05 -34.75 M29.4 19.65 L29.65 19.25 Q30.5 17.9 32.45 17.2 41.95 13.9 49.65 17.75 L50.2 17.9 50.9 18.9 47.45 20.45 47.4 19.65 46.6 19.4 Q45.8 19.75 44.6 20.65 L44.25 20.7 41.95 20.9 38.0 20.2 Q36.05 18.95 34.95 18.9 L34.15 19.0 34.4 19.35 35.5 20.45 Q37.05 21.85 38.05 23.3 39.1 24.8 39.85 26.7 41.6 31.2 41.6 37.8 L40.95 50.4 41.4 50.95 41.95 50.5 42.55 47.8 43.2 44.15 44.05 38.65 Q43.3 29.65 43.3 28.65 43.3 27.65 43.45 26.85 43.65 25.2 44.4 24.4 L46.8 22.35 Q47.85 23.15 48.5 24.85 49.15 26.55 49.3 28.6 L49.3 29.6 47.9 39.5 Q46.45 48.65 46.4 50.2 46.3 55.3 46.0 56.95 45.6 58.85 44.5 58.85 L43.95 58.85 41.45 58.15 41.4 58.15 Q36.85 56.0 32.55 47.45 29.35 41.1 28.1 35.45 L27.9 33.8 27.7 32.35 Q27.35 29.4 27.3 27.35 L27.45 24.4 Q27.55 23.15 28.1 22.5 L28.5 22.5 28.8 22.25 28.8 21.9 28.45 21.65 29.4 19.65 M44.9 48.25 Q46.05 49.4 46.4 50.2 46.05 49.4 44.9 48.25" fill="#a8b6c9" fill-rule="evenodd" stroke="none"/>
    <path d="M50.9 18.9 Q52.75 21.35 53.45 25.2 L53.55 25.6 53.75 28.6 Q53.75 30.35 52.95 32.5 L52.65 33.15 49.15 40.2 48.0 42.55 47.95 42.7 Q46.95 46.05 46.85 48.85 L46.85 52.2 Q46.8 56.65 46.4 58.45 45.95 60.45 44.85 60.45 L44.45 60.35 43.7 60.0 42.8 59.5 41.2 58.5 41.4 58.15 41.45 58.15 43.95 58.85 44.5 58.85 Q45.6 58.85 46.0 56.95 46.3 55.3 46.4 50.2 46.45 48.65 47.9 39.5 L49.3 29.6 49.3 28.6 Q49.15 26.55 48.5 24.85 47.85 23.15 46.8 22.35 L47.25 21.5 47.45 20.45 50.9 18.9 M38.0 20.2 L41.95 20.9 44.25 20.7 44.6 20.65 43.55 23.2 Q42.9 24.8 41.75 24.25 L41.7 24.1 39.1 21.15 38.0 20.2 M46.85 52.2 L46.4 50.2 46.85 52.2" fill="#8491a2" fill-rule="evenodd" stroke="none"/>
    <path d="M25.05 -34.75 L25.95 -34.95 25.55 -34.9 25.05 -34.75 M29.65 -24.35 Q31.75 -26.35 33.45 -31.4 33.45 -32.9 31.85 -33.9 30.05 -35.05 26.75 -35.05 L26.6 -35.05 Q26.65 -35.4 27.8 -35.65 L29.75 -35.85 33.0 -34.65 34.55 -37.6 36.5 -40.65 36.05 -39.95 Q35.4 -39.0 34.8 -36.75 L34.15 -34.4 Q36.7 -35.7 38.85 -34.7 L40.8 -33.15 40.35 -33.4 39.6 -33.85 38.5 -34.05 34.35 -33.15 Q37.05 -29.05 37.05 -25.6 37.05 -23.5 36.7 -22.3 L36.45 -23.25 Q34.85 -29.95 34.2 -31.0 34.25 -28.35 32.5 -26.3 31.15 -24.85 29.65 -24.35 M38.0 20.2 L39.1 21.15 41.7 24.1 41.75 24.25 Q42.9 24.8 43.55 23.2 L44.6 20.65 Q45.8 19.75 46.6 19.4 L47.4 19.65 47.45 20.45 47.25 21.5 46.8 22.35 44.4 24.4 Q43.65 25.2 43.45 26.85 43.3 27.65 43.3 28.65 43.3 29.65 44.05 38.65 L43.2 44.15 42.55 47.8 41.95 50.5 41.4 50.95 40.95 50.4 41.6 37.8 Q41.6 31.2 39.85 26.7 39.1 24.8 38.05 23.3 37.05 21.85 35.5 20.45 L34.4 19.35 34.15 19.0 34.95 18.9 Q36.05 18.95 38.0 20.2" fill="#4a4f58" fill-rule="evenodd" stroke="none"/>
    <path d="M117.55 -85.7 Q117.3 -85.7 109.15 -91.9 100.0 -98.75 95.2 -101.25 88.5 -104.75 79.75 -108.0 73.35 -110.4 63.15 -113.65 53.0 -116.85 34.45 -118.3 L6.2 -119.35 Q-27.65 -119.35 -41.2 -118.25 -63.35 -116.5 -78.1 -110.45 -94.85 -103.55 -107.9 -88.95 -121.6 -73.65 -134.1 -46.85 -141.45 -35.55 -150.5 0.65 -158.8 33.75 -158.8 44.3 -158.8 49.7 -157.65 52.1 -156.85 53.85 -155.5 53.85 -154.1 53.85 -152.25 52.35 L-148.35 48.1 -148.9 58.1 -148.6 60.5 -148.05 62.7 -147.45 62.9 Q-145.3 62.25 -142.7 57.1 -140.7 53.15 -139.1 48.1 -138.7 59.6 -137.65 65.6 -136.25 73.3 -132.75 79.45 -126.15 91.1 -101.7 109.9 M-21.75 87.25 Q-20.4 85.8 -17.85 84.0 -14.7 81.8 -13.35 81.3 L-12.25 80.75 Q-2.55 75.5 2.7 70.1 7.3 65.35 11.25 57.35 M16.35 -31.65 Q17.25 -20.1 16.65 -16.3 15.6 -12.95 15.0 -9.4 M1.6 -62.25 L1.65 -63.1 3.15 -66.8 3.25 -68.4 Q3.25 -77.0 1.75 -81.55 L1.5 -81.7 0.3 -78.95 -0.7 -76.5 M12.1 -74.65 L12.05 -75.7 11.95 -75.85 11.2 -76.0 Q10.65 -76.0 9.45 -74.75 L7.55 -72.6 5.35 -69.75 3.15 -66.8 M12.1 -74.65 Q12.2 -73.45 11.75 -71.2 11.05 -67.75 8.6 -58.45 11.55 -61.15 13.6 -61.15 L14.45 -61.0 Q14.7 -60.85 14.8 -60.85 L15.15 -59.1 14.85 -55.9 14.1 -52.7 14.2 -52.05 15.6 -40.1 16.35 -31.65 M6.9 -54.7 L8.6 -58.45 M14.1 -52.7 L12.55 -47.4 Q11.15 -43.25 10.75 -42.6 M117.55 -85.7 Q138.7 -63.85 148.4 -44.7 153.3 -35.05 153.95 -29.4 L153.75 -28.5 153.3 -28.3 Q151.8 -28.4 148.3 -32.15 L156.55 -16.6 Q158.9 -11.9 158.9 -9.65 L158.85 -8.8 158.75 -8.45 157.9 -8.2 Q156.85 -8.45 153.85 -10.35 150.5 -12.45 148.3 -14.45 152.85 -0.9 154.55 7.15 156.3 15.5 156.3 23.95 156.3 45.3 141.65 63.45 129.25 78.9 113.55 84.75 M16.0 94.8 Q6.85 98.8 0.0 98.8 -6.35 98.8 -10.9 96.95 -15.85 94.95 -23.5 89.0 -26.35 92.5 -36.5 100.4 -46.65 108.25 -52.0 111.1 M-23.5 89.0 L-22.55 88.05 -21.75 87.25" fill="none" stroke="#4a4f58" stroke-linecap="round" stroke-linejoin="miter-clip" stroke-miterlimit="3.0" stroke-width="1.2000000000000002"/>
    <path d="M30.6 95.0 L27.05 94.4 23.9 94.05 20.4 94.3 16.05 94.8 16.3 94.65 Q19.5 93.15 29.05 87.55 L36.75 82.95 39.1 81.3 Q38.35 80.55 35.05 80.4 L39.85 77.75 Q44.3 75.35 44.95 74.6 L44.0 74.2 43.6 74.1 43.0 73.95 40.8 73.85 M50.2 17.9 L50.9 18.9 Q52.75 21.35 53.45 25.2 L53.55 25.6 53.75 28.6 Q53.75 30.35 52.95 32.5 L52.65 33.15 49.15 40.2 48.0 42.55 47.95 42.7 Q46.95 46.05 46.85 48.85 L46.85 52.2 Q46.8 56.65 46.4 58.45 45.95 60.45 44.85 60.45 L44.45 60.35 43.7 60.0 42.8 59.5 41.2 58.5 Q39.35 58.5 36.25 54.5 34.45 52.2 31.4 47.3 M46.4 50.2 L46.85 52.2 M46.4 50.2 Q46.05 49.4 44.9 48.25" fill="none" stroke="#4a4f58" stroke-linecap="round" stroke-linejoin="round" stroke-width="1.2000000000000002"/>
    <path d="M28.45 21.65 L28.1 22.5 Q27.55 23.15 27.45 24.4 L27.3 27.35 Q27.35 29.4 27.7 32.35 L27.9 33.8 28.1 35.45 M29.4 19.65 L28.45 21.65" fill="none" stroke="#4a4f58" stroke-linecap="round" stroke-linejoin="round" stroke-width="1.0"/>
  </g>
</svg>
