<?xml version="1.0" encoding="UTF-8" standalone="no"?>
<svg xmlns:xlink="http://www.w3.org/1999/xlink" height="98.0px" width="126.0px" xmlns="http://www.w3.org/2000/svg">
  <g transform="matrix(1.0, 0.0, 0.0, 1.0, -18.0, -16.0)">
    <path d="M140.0 36.0 L140.0 34.0 142.0 34.0 142.0 36.0 140.0 36.0 140.0 38.0 136.0 38.0 136.0 40.0 128.0 40.0 128.0 42.0 122.0 42.0 122.0 44.0 116.0 44.0 116.0 42.0 108.0 42.0 108.0 40.0 116.0 40.0 116.0 42.0 122.0 42.0 122.0 40.0 128.0 40.0 128.0 38.0 136.0 38.0 136.0 36.0 140.0 36.0 M34.0 38.0 L36.0 38.0 36.0 36.0 38.0 36.0 38.0 38.0 36.0 38.0 36.0 40.0 32.0 40.0 32.0 44.0 30.0 44.0 30.0 46.0 28.0 46.0 28.0 44.0 30.0 44.0 30.0 40.0 32.0 40.0 32.0 38.0 34.0 38.0 M82.0 48.0 L82.0 46.0 84.0 46.0 84.0 44.0 86.0 44.0 86.0 42.0 88.0 42.0 88.0 40.0 92.0 40.0 92.0 38.0 94.0 38.0 94.0 36.0 106.0 36.0 106.0 38.0 94.0 38.0 94.0 40.0 92.0 40.0 92.0 42.0 88.0 42.0 88.0 44.0 86.0 44.0 86.0 48.0 84.0 48.0 84.0 50.0 82.0 50.0 82.0 48.0 M82.0 52.0 L82.0 60.0 80.0 60.0 80.0 58.0 78.0 58.0 78.0 56.0 80.0 56.0 80.0 52.0 82.0 52.0 M106.0 68.0 L106.0 66.0 108.0 66.0 108.0 68.0 106.0 68.0 M128.0 54.0 L128.0 52.0 130.0 52.0 130.0 54.0 128.0 54.0 M132.0 52.0 L132.0 50.0 134.0 50.0 134.0 48.0 136.0 48.0 136.0 46.0 138.0 46.0 138.0 44.0 140.0 44.0 140.0 46.0 138.0 46.0 138.0 48.0 136.0 48.0 136.0 50.0 134.0 50.0 134.0 52.0 132.0 52.0 M44.0 32.0 L46.0 32.0 46.0 34.0 48.0 34.0 48.0 36.0 46.0 36.0 46.0 34.0 44.0 34.0 44.0 32.0 M48.0 38.0 L50.0 38.0 50.0 48.0 48.0 48.0 48.0 44.0 46.0 44.0 44.0 44.0 44.0 42.0 48.0 42.0 48.0 38.0 M38.0 30.0 L40.0 30.0 40.0 32.0 38.0 32.0 38.0 30.0 M36.0 54.0 L40.0 54.0 40.0 52.0 44.0 52.0 44.0 50.0 46.0 50.0 46.0 52.0 44.0 52.0 44.0 54.0 40.0 54.0 40.0 56.0 36.0 56.0 36.0 54.0 M22.0 78.0 L22.0 76.0 24.0 76.0 24.0 78.0 22.0 78.0 M24.0 84.0 L26.0 84.0 26.0 88.0 24.0 88.0 24.0 84.0 M34.0 92.0 L36.0 92.0 36.0 94.0 34.0 94.0 34.0 92.0 M62.0 66.0 L64.0 66.0 64.0 64.0 66.0 64.0 66.0 62.0 68.0 62.0 68.0 60.0 70.0 60.0 72.0 60.0 72.0 62.0 72.0 64.0 70.0 64.0 70.0 62.0 68.0 62.0 68.0 64.0 66.0 64.0 66.0 66.0 64.0 66.0 64.0 68.0 62.0 68.0 62.0 66.0" fill="#c8a050" fill-rule="evenodd" stroke="none"/>
    <path d="M144.0 36.0 L144.0 42.0 142.0 42.0 142.0 46.0 140.0 46.0 140.0 48.0 138.0 48.0 138.0 50.0 136.0 50.0 136.0 52.0 134.0 52.0 134.0 54.0 132.0 54.0 132.0 56.0 130.0 56.0 130.0 54.0 132.0 54.0 132.0 52.0 134.0 52.0 134.0 50.0 136.0 50.0 136.0 48.0 138.0 48.0 138.0 46.0 140.0 46.0 140.0 44.0 140.0 42.0 142.0 42.0 142.0 36.0 144.0 36.0 M130.0 62.0 L132.0 62.0 132.0 64.0 130.0 64.0 130.0 66.0 126.0 66.0 126.0 70.0 124.0 70.0 124.0 66.0 126.0 66.0 126.0 64.0 130.0 64.0 130.0 62.0 M128.0 74.0 L130.0 74.0 130.0 78.0 128.0 78.0 128.0 76.0 124.0 76.0 124.0 78.0 120.0 78.0 120.0 80.0 118.0 80.0 118.0 78.0 120.0 78.0 120.0 76.0 124.0 76.0 124.0 74.0 128.0 74.0 M116.0 80.0 L116.0 84.0 114.0 84.0 114.0 86.0 110.0 86.0 110.0 88.0 106.0 88.0 106.0 90.0 102.0 90.0 102.0 88.0 92.0 88.0 92.0 86.0 102.0 86.0 102.0 88.0 106.0 88.0 106.0 86.0 110.0 86.0 110.0 84.0 114.0 84.0 114.0 80.0 116.0 80.0 M92.0 90.0 L94.0 90.0 94.0 96.0 92.0 96.0 92.0 100.0 90.0 100.0 90.0 104.0 88.0 104.0 88.0 108.0 86.0 108.0 86.0 110.0 78.0 110.0 78.0 108.0 76.0 108.0 76.0 104.0 78.0 104.0 78.0 106.0 78.0 108.0 80.0 108.0 82.0 108.0 84.0 108.0 86.0 108.0 86.0 104.0 88.0 104.0 88.0 100.0 90.0 100.0 90.0 96.0 92.0 96.0 92.0 90.0 M80.0 94.0 L78.0 94.0 78.0 92.0 74.0 92.0 74.0 90.0 72.0 90.0 72.0 88.0 70.0 88.0 68.0 88.0 68.0 86.0 66.0 86.0 64.0 86.0 64.0 84.0 68.0 84.0 70.0 84.0 70.0 86.0 72.0 86.0 72.0 88.0 74.0 88.0 74.0 90.0 78.0 90.0 78.0 92.0 82.0 92.0 82.0 94.0 80.0 94.0 M64.0 104.0 L64.0 110.0 62.0 110.0 62.0 112.0 60.0 112.0 60.0 114.0 52.0 114.0 52.0 112.0 56.0 112.0 58.0 112.0 60.0 112.0 60.0 110.0 62.0 110.0 62.0 100.0 64.0 100.0 64.0 102.0 64.0 104.0 M52.0 96.0 L50.0 96.0 50.0 98.0 46.0 98.0 46.0 106.0 44.0 106.0 44.0 110.0 42.0 110.0 42.0 112.0 34.0 112.0 34.0 110.0 32.0 110.0 32.0 108.0 34.0 108.0 34.0 110.0 36.0 110.0 38.0 110.0 40.0 110.0 42.0 110.0 42.0 106.0 44.0 106.0 44.0 96.0 36.0 96.0 34.0 96.0 34.0 94.0 32.0 94.0 32.0 92.0 34.0 92.0 34.0 94.0 36.0 94.0 44.0 94.0 44.0 96.0 50.0 96.0 50.0 94.0 52.0 94.0 52.0 92.0 56.0 92.0 56.0 90.0 66.0 90.0 68.0 90.0 68.0 92.0 66.0 92.0 66.0 100.0 64.0 100.0 64.0 92.0 56.0 92.0 56.0 94.0 54.0 94.0 52.0 94.0 52.0 96.0 M24.0 88.0 L22.0 88.0 22.0 84.0 20.0 84.0 20.0 80.0 22.0 80.0 22.0 84.0 24.0 84.0 24.0 88.0 M26.0 18.0 L28.0 18.0 28.0 26.0 30.0 26.0 30.0 30.0 32.0 30.0 32.0 34.0 34.0 34.0 34.0 38.0 32.0 38.0 32.0 34.0 30.0 34.0 30.0 30.0 28.0 30.0 28.0 26.0 26.0 26.0 26.0 18.0 M48.0 34.0 L50.0 34.0 50.0 38.0 52.0 38.0 52.0 42.0 52.0 44.0 52.0 48.0 50.0 48.0 50.0 38.0 48.0 38.0 48.0 36.0 48.0 34.0 M76.0 22.0 L76.0 20.0 78.0 20.0 78.0 22.0 80.0 22.0 80.0 26.0 82.0 26.0 82.0 30.0 80.0 30.0 80.0 34.0 78.0 34.0 78.0 38.0 76.0 38.0 76.0 42.0 74.0 42.0 74.0 46.0 72.0 46.0 72.0 48.0 70.0 48.0 70.0 50.0 68.0 50.0 68.0 52.0 64.0 52.0 64.0 50.0 68.0 50.0 68.0 48.0 70.0 48.0 70.0 46.0 72.0 46.0 72.0 42.0 74.0 42.0 74.0 38.0 76.0 38.0 76.0 34.0 78.0 34.0 78.0 30.0 80.0 30.0 80.0 26.0 78.0 26.0 78.0 22.0 76.0 22.0 M70.0 56.0 L70.0 58.0 72.0 58.0 72.0 60.0 76.0 60.0 76.0 62.0 72.0 62.0 72.0 60.0 70.0 60.0 70.0 58.0 68.0 58.0 68.0 56.0 70.0 56.0 M48.0 48.0 L50.0 48.0 50.0 52.0 48.0 52.0 48.0 54.0 46.0 54.0 46.0 52.0 48.0 52.0 48.0 48.0 M44.0 54.0 L44.0 56.0 40.0 56.0 40.0 58.0 36.0 58.0 36.0 56.0 40.0 56.0 40.0 54.0 44.0 54.0 M30.0 68.0 L30.0 66.0 32.0 66.0 32.0 68.0 30.0 68.0 M32.0 72.0 L36.0 72.0 36.0 74.0 48.0 74.0 48.0 72.0 52.0 72.0 52.0 70.0 54.0 70.0 54.0 68.0 56.0 68.0 56.0 64.0 58.0 64.0 58.0 54.0 60.0 54.0 60.0 64.0 58.0 64.0 58.0 68.0 56.0 68.0 56.0 70.0 54.0 70.0 54.0 72.0 52.0 72.0 52.0 74.0 48.0 74.0 48.0 76.0 46.0 76.0 36.0 76.0 36.0 74.0 32.0 74.0 32.0 72.0 M58.0 52.0 L56.0 52.0 56.0 54.0 54.0 54.0 54.0 50.0 56.0 50.0 56.0 48.0 58.0 48.0 58.0 46.0 60.0 46.0 60.0 44.0 58.0 44.0 58.0 42.0 62.0 42.0 62.0 38.0 64.0 38.0 64.0 36.0 68.0 36.0 68.0 34.0 72.0 34.0 72.0 32.0 74.0 32.0 74.0 30.0 76.0 30.0 76.0 28.0 78.0 28.0 78.0 30.0 76.0 30.0 76.0 34.0 74.0 34.0 74.0 38.0 72.0 38.0 70.0 38.0 70.0 40.0 66.0 40.0 66.0 42.0 64.0 42.0 64.0 44.0 62.0 44.0 62.0 46.0 60.0 46.0 60.0 48.0 62.0 48.0 62.0 50.0 58.0 50.0 58.0 52.0 M64.0 48.0 L64.0 46.0 66.0 46.0 66.0 48.0 64.0 48.0 M26.0 60.0 L28.0 60.0 28.0 64.0 26.0 64.0 26.0 60.0 M42.0 66.0 L42.0 62.0 42.0 60.0 44.0 60.0 44.0 58.0 50.0 58.0 50.0 60.0 46.0 60.0 44.0 60.0 44.0 62.0 46.0 62.0 46.0 64.0 48.0 64.0 48.0 66.0 42.0 66.0 M64.0 52.0 L64.0 54.0 60.0 54.0 60.0 52.0 64.0 52.0 M72.0 66.0 L74.0 66.0 74.0 64.0 76.0 64.0 76.0 62.0 78.0 62.0 78.0 64.0 76.0 64.0 76.0 66.0 74.0 66.0 74.0 68.0 76.0 68.0 76.0 74.0 74.0 74.0 74.0 68.0 72.0 68.0 72.0 66.0 M74.0 80.0 L74.0 82.0 70.0 82.0 70.0 80.0 72.0 80.0 74.0 80.0" fill="#000000" fill-rule="evenodd" stroke="none"/>
    <path d="M142.0 36.0 L142.0 34.0 144.0 34.0 144.0 36.0 142.0 36.0 M130.0 56.0 L128.0 56.0 128.0 54.0 130.0 54.0 130.0 56.0 M128.0 58.0 L130.0 58.0 130.0 62.0 128.0 62.0 128.0 58.0 M126.0 70.0 L128.0 70.0 128.0 72.0 126.0 72.0 126.0 70.0 M118.0 80.0 L116.0 80.0 114.0 80.0 114.0 78.0 118.0 78.0 118.0 80.0 M32.0 94.0 L28.0 94.0 28.0 92.0 26.0 92.0 26.0 90.0 24.0 90.0 24.0 88.0 26.0 88.0 26.0 90.0 28.0 90.0 28.0 92.0 32.0 92.0 32.0 94.0 M20.0 80.0 L20.0 76.0 18.0 76.0 18.0 66.0 20.0 66.0 20.0 60.0 22.0 60.0 22.0 56.0 24.0 56.0 24.0 54.0 26.0 54.0 26.0 52.0 28.0 52.0 28.0 48.0 28.0 46.0 30.0 46.0 30.0 52.0 32.0 52.0 32.0 54.0 36.0 54.0 36.0 56.0 32.0 56.0 32.0 54.0 30.0 54.0 30.0 52.0 28.0 52.0 28.0 54.0 26.0 54.0 26.0 56.0 24.0 56.0 24.0 60.0 22.0 60.0 22.0 66.0 20.0 66.0 20.0 76.0 22.0 76.0 22.0 78.0 22.0 80.0 20.0 80.0 M38.0 36.0 L38.0 32.0 36.0 32.0 36.0 30.0 38.0 30.0 38.0 28.0 42.0 28.0 42.0 30.0 46.0 30.0 46.0 32.0 48.0 32.0 48.0 34.0 46.0 34.0 46.0 32.0 44.0 32.0 42.0 32.0 42.0 30.0 40.0 30.0 38.0 30.0 38.0 32.0 40.0 32.0 40.0 36.0 38.0 36.0 M68.0 52.0 L70.0 52.0 70.0 54.0 72.0 54.0 72.0 58.0 70.0 58.0 70.0 56.0 70.0 54.0 68.0 54.0 68.0 52.0 M76.0 58.0 L76.0 56.0 78.0 56.0 78.0 52.0 80.0 52.0 80.0 48.0 82.0 48.0 82.0 50.0 82.0 52.0 80.0 52.0 80.0 56.0 78.0 56.0 78.0 58.0 76.0 58.0 M106.0 36.0 L108.0 36.0 108.0 40.0 106.0 40.0 106.0 42.0 104.0 42.0 104.0 40.0 106.0 40.0 106.0 38.0 106.0 36.0 M46.0 44.0 L48.0 44.0 48.0 48.0 48.0 52.0 46.0 52.0 46.0 54.0 44.0 54.0 44.0 52.0 46.0 52.0 46.0 50.0 46.0 44.0 M70.0 66.0 L72.0 66.0 72.0 68.0 70.0 68.0 70.0 66.0 M74.0 74.0 L74.0 76.0 76.0 76.0 76.0 78.0 74.0 78.0 74.0 80.0 72.0 80.0 72.0 78.0 74.0 78.0 74.0 76.0 72.0 76.0 72.0 74.0 74.0 74.0 M70.0 82.0 L70.0 84.0 68.0 84.0 68.0 80.0 70.0 80.0 70.0 82.0 M64.0 84.0 L62.0 84.0 62.0 82.0 64.0 82.0 64.0 84.0" fill="#785828" fill-rule="evenodd" stroke="none"/>
    <path d="M92.0 88.0 L92.0 90.0 90.0 90.0 90.0 80.0 92.0 80.0 92.0 70.0 90.0 70.0 90.0 66.0 88.0 66.0 88.0 64.0 90.0 64.0 90.0 66.0 92.0 66.0 92.0 70.0 94.0 70.0 94.0 82.0 92.0 82.0 92.0 86.0 92.0 88.0 M76.0 104.0 L76.0 102.0 78.0 102.0 78.0 100.0 80.0 100.0 80.0 94.0 82.0 94.0 82.0 100.0 80.0 100.0 80.0 102.0 78.0 102.0 78.0 104.0 76.0 104.0 M72.0 90.0 L72.0 96.0 70.0 96.0 70.0 100.0 68.0 100.0 68.0 102.0 66.0 102.0 66.0 104.0 64.0 104.0 64.0 102.0 66.0 102.0 66.0 100.0 68.0 100.0 68.0 96.0 70.0 96.0 70.0 88.0 72.0 88.0 72.0 90.0 M52.0 112.0 L50.0 112.0 50.0 106.0 52.0 106.0 52.0 96.0 52.0 94.0 54.0 94.0 54.0 106.0 52.0 106.0 52.0 112.0 M32.0 108.0 L32.0 104.0 34.0 104.0 34.0 96.0 36.0 96.0 36.0 104.0 34.0 104.0 34.0 106.0 34.0 108.0 32.0 108.0 M28.0 48.0 L26.0 48.0 26.0 44.0 24.0 44.0 24.0 40.0 22.0 40.0 22.0 32.0 20.0 32.0 20.0 30.0 22.0 30.0 22.0 18.0 24.0 18.0 24.0 16.0 26.0 16.0 26.0 18.0 24.0 18.0 24.0 30.0 22.0 30.0 22.0 32.0 24.0 32.0 24.0 40.0 26.0 40.0 26.0 44.0 28.0 44.0 28.0 46.0 28.0 48.0 M52.0 42.0 L54.0 42.0 54.0 40.0 56.0 40.0 56.0 34.0 58.0 34.0 58.0 32.0 60.0 32.0 60.0 34.0 62.0 34.0 62.0 32.0 64.0 32.0 64.0 30.0 68.0 30.0 68.0 28.0 72.0 28.0 72.0 26.0 74.0 26.0 74.0 22.0 76.0 22.0 76.0 26.0 74.0 26.0 74.0 28.0 72.0 28.0 72.0 30.0 68.0 30.0 68.0 32.0 64.0 32.0 64.0 34.0 62.0 34.0 62.0 36.0 60.0 36.0 60.0 34.0 58.0 34.0 58.0 40.0 56.0 40.0 56.0 42.0 54.0 42.0 54.0 44.0 52.0 44.0 52.0 42.0 M72.0 58.0 L76.0 58.0 78.0 58.0 80.0 58.0 80.0 60.0 76.0 60.0 72.0 60.0 72.0 58.0 M82.0 60.0 L84.0 60.0 84.0 62.0 88.0 62.0 88.0 64.0 84.0 64.0 84.0 62.0 80.0 62.0 80.0 60.0 82.0 60.0 M80.0 106.0 L80.0 108.0 78.0 108.0 78.0 106.0 80.0 106.0 M82.0 108.0 L82.0 106.0 84.0 106.0 84.0 108.0 82.0 108.0 M30.0 54.0 L30.0 56.0 28.0 56.0 28.0 58.0 26.0 58.0 26.0 56.0 28.0 56.0 28.0 54.0 28.0 52.0 30.0 52.0 30.0 54.0 M28.0 64.0 L28.0 68.0 30.0 68.0 30.0 70.0 32.0 70.0 32.0 72.0 30.0 72.0 30.0 70.0 28.0 70.0 28.0 68.0 26.0 68.0 26.0 64.0 28.0 64.0 M32.0 66.0 L34.0 66.0 34.0 68.0 32.0 68.0 32.0 66.0 M58.0 54.0 L58.0 52.0 60.0 52.0 60.0 54.0 58.0 54.0 M58.0 46.0 L54.0 46.0 54.0 44.0 58.0 44.0 60.0 44.0 60.0 46.0 58.0 46.0 M42.0 66.0 L40.0 66.0 40.0 62.0 42.0 62.0 42.0 66.0 M42.0 60.0 L42.0 58.0 44.0 58.0 44.0 60.0 42.0 60.0 M56.0 110.0 L58.0 110.0 58.0 112.0 56.0 112.0 56.0 110.0 M36.0 110.0 L34.0 110.0 34.0 108.0 36.0 108.0 36.0 110.0 M40.0 108.0 L40.0 110.0 38.0 110.0 38.0 108.0 40.0 108.0" fill="#602800" fill-rule="evenodd" stroke="none"/>
    <path d="M76.0 22.0 L78.0 22.0 78.0 26.0 80.0 26.0 80.0 30.0 78.0 30.0 78.0 28.0 76.0 28.0 76.0 30.0 74.0 30.0 74.0 32.0 72.0 32.0 72.0 34.0 68.0 34.0 68.0 36.0 64.0 36.0 64.0 38.0 62.0 38.0 62.0 42.0 58.0 42.0 58.0 44.0 54.0 44.0 54.0 42.0 56.0 42.0 56.0 40.0 58.0 40.0 58.0 34.0 60.0 34.0 60.0 36.0 62.0 36.0 62.0 34.0 64.0 34.0 64.0 32.0 68.0 32.0 68.0 30.0 72.0 30.0 72.0 28.0 74.0 28.0 74.0 26.0 76.0 26.0 76.0 22.0" fill="#cf9736" fill-rule="evenodd" stroke="none"/>
    <path d="M28.0 60.0 L30.0 60.0 30.0 64.0 28.0 64.0 28.0 60.0 M62.0 48.0 L60.0 48.0 60.0 46.0 62.0 46.0 62.0 44.0 64.0 44.0 64.0 42.0 66.0 42.0 66.0 40.0 70.0 40.0 70.0 38.0 72.0 38.0 72.0 42.0 70.0 42.0 70.0 44.0 68.0 44.0 68.0 46.0 66.0 46.0 64.0 46.0 64.0 48.0 62.0 48.0 M50.0 60.0 L50.0 64.0 48.0 64.0 46.0 64.0 46.0 62.0 46.0 60.0 50.0 60.0" fill="#202068" fill-rule="evenodd" stroke="none"/>
    <path d="M78.0 30.0 L78.0 34.0 76.0 34.0 76.0 38.0 74.0 38.0 74.0 42.0 72.0 42.0 72.0 46.0 70.0 46.0 70.0 48.0 68.0 48.0 68.0 50.0 64.0 50.0 64.0 52.0 60.0 52.0 58.0 52.0 58.0 50.0 62.0 50.0 62.0 48.0 64.0 48.0 66.0 48.0 66.0 46.0 68.0 46.0 68.0 44.0 70.0 44.0 70.0 42.0 72.0 42.0 72.0 38.0 74.0 38.0 74.0 34.0 76.0 34.0 76.0 30.0 78.0 30.0 M24.0 18.0 L26.0 18.0 26.0 26.0 28.0 26.0 28.0 30.0 30.0 30.0 30.0 34.0 32.0 34.0 32.0 38.0 32.0 40.0 30.0 40.0 30.0 44.0 28.0 44.0 26.0 44.0 26.0 40.0 24.0 40.0 24.0 32.0 22.0 32.0 22.0 30.0 24.0 30.0 24.0 18.0 M36.0 96.0 L44.0 96.0 44.0 106.0 42.0 106.0 42.0 110.0 40.0 110.0 40.0 108.0 40.0 106.0 38.0 106.0 38.0 108.0 38.0 110.0 36.0 110.0 36.0 108.0 36.0 106.0 34.0 106.0 34.0 104.0 36.0 104.0 36.0 96.0" fill="#b07830" fill-rule="evenodd" stroke="none"/>
    <path d="M26.0 54.0 L28.0 54.0 28.0 56.0 26.0 56.0 26.0 54.0" fill="#f8f090" fill-rule="evenodd" stroke="none"/>
    <path d="M28.0 58.0 L28.0 60.0 26.0 60.0 26.0 58.0 28.0 58.0 M44.0 60.0 L46.0 60.0 46.0 62.0 44.0 62.0 44.0 60.0" fill="#ffffff" fill-rule="evenodd" stroke="none"/>
    <path d="M78.0 104.0 L80.0 104.0 80.0 106.0 78.0 106.0 78.0 104.0 M82.0 106.0 L82.0 104.0 84.0 104.0 84.0 106.0 82.0 106.0 M42.0 62.0 L40.0 62.0 40.0 60.0 42.0 60.0 42.0 62.0 M64.0 100.0 L66.0 100.0 66.0 102.0 64.0 102.0 64.0 100.0 M58.0 110.0 L56.0 110.0 56.0 108.0 58.0 108.0 58.0 110.0 M34.0 108.0 L34.0 106.0 36.0 106.0 36.0 108.0 34.0 108.0 M38.0 108.0 L38.0 106.0 40.0 106.0 40.0 108.0 38.0 108.0" fill="#885018" fill-rule="evenodd" stroke="none"/>
    <path d="M68.0 62.0 L70.0 62.0 70.0 64.0 68.0 64.0 68.0 66.0 66.0 66.0 66.0 64.0 68.0 64.0 68.0 62.0 M62.0 68.0 L60.0 68.0 60.0 66.0 62.0 66.0 62.0 68.0 M56.0 76.0 L56.0 74.0 58.0 74.0 58.0 76.0 56.0 76.0 M54.0 86.0 L54.0 84.0 56.0 84.0 56.0 86.0 54.0 86.0" fill="#f8c878" fill-rule="evenodd" stroke="none"/>
    <path d="M72.0 62.0 L76.0 62.0 76.0 64.0 74.0 64.0 74.0 66.0 72.0 66.0 70.0 66.0 70.0 64.0 72.0 64.0 72.0 62.0" fill="#f8dc84" fill-rule="evenodd" stroke="none"/>
    <path d="M66.0 86.0 L68.0 86.0 68.0 88.0 70.0 88.0 70.0 96.0 68.0 96.0 68.0 100.0 66.0 100.0 66.0 92.0 68.0 92.0 68.0 90.0 66.0 90.0 66.0 86.0" fill="#84511b" fill-rule="evenodd" stroke="none"/>
    <path d="M88.0 64.0 L88.0 66.0 90.0 66.0 90.0 70.0 92.0 70.0 92.0 80.0 90.0 80.0 90.0 90.0 92.0 90.0 92.0 96.0 90.0 96.0 90.0 100.0 88.0 100.0 88.0 104.0 86.0 104.0 86.0 108.0 84.0 108.0 84.0 106.0 84.0 104.0 82.0 104.0 82.0 106.0 82.0 108.0 80.0 108.0 80.0 106.0 80.0 104.0 78.0 104.0 78.0 102.0 80.0 102.0 80.0 100.0 82.0 100.0 82.0 94.0 82.0 92.0 78.0 92.0 78.0 90.0 74.0 90.0 74.0 88.0 72.0 88.0 72.0 86.0 70.0 86.0 70.0 84.0 70.0 82.0 74.0 82.0 74.0 80.0 74.0 78.0 76.0 78.0 76.0 76.0 74.0 76.0 74.0 74.0 76.0 74.0 76.0 68.0 74.0 68.0 74.0 66.0 76.0 66.0 76.0 64.0 78.0 64.0 78.0 62.0 76.0 62.0 76.0 60.0 80.0 60.0 80.0 62.0 84.0 62.0 84.0 64.0 88.0 64.0 M50.0 48.0 L52.0 48.0 52.0 44.0 54.0 44.0 54.0 46.0 58.0 46.0 58.0 48.0 56.0 48.0 56.0 50.0 54.0 50.0 54.0 54.0 56.0 54.0 56.0 52.0 58.0 52.0 58.0 54.0 58.0 64.0 56.0 64.0 56.0 68.0 54.0 68.0 54.0 70.0 52.0 70.0 52.0 72.0 48.0 72.0 48.0 74.0 36.0 74.0 36.0 72.0 32.0 72.0 32.0 70.0 30.0 70.0 30.0 68.0 28.0 68.0 28.0 64.0 30.0 64.0 30.0 60.0 28.0 60.0 28.0 58.0 28.0 56.0 30.0 56.0 30.0 54.0 32.0 54.0 32.0 56.0 36.0 56.0 36.0 58.0 40.0 58.0 40.0 56.0 44.0 56.0 44.0 54.0 46.0 54.0 48.0 54.0 48.0 52.0 50.0 52.0 50.0 48.0 M32.0 66.0 L30.0 66.0 30.0 68.0 32.0 68.0 34.0 68.0 34.0 66.0 32.0 66.0 M40.0 62.0 L40.0 66.0 42.0 66.0 48.0 66.0 48.0 64.0 50.0 64.0 50.0 60.0 50.0 58.0 44.0 58.0 42.0 58.0 42.0 60.0 40.0 60.0 40.0 62.0 M54.0 94.0 L56.0 94.0 56.0 92.0 64.0 92.0 64.0 100.0 62.0 100.0 62.0 110.0 60.0 110.0 60.0 112.0 58.0 112.0 58.0 110.0 58.0 108.0 56.0 108.0 56.0 110.0 56.0 112.0 52.0 112.0 52.0 106.0 54.0 106.0 54.0 94.0" fill="#f6734a" fill-rule="evenodd" stroke="none"/>
    <path d="M140.0 36.0 L142.0 36.0 142.0 42.0 140.0 42.0 140.0 44.0 138.0 44.0 138.0 46.0 136.0 46.0 136.0 48.0 134.0 48.0 134.0 50.0 132.0 50.0 132.0 52.0 132.0 54.0 130.0 54.0 130.0 52.0 128.0 52.0 128.0 54.0 126.0 54.0 126.0 56.0 124.0 56.0 124.0 58.0 126.0 58.0 126.0 62.0 124.0 62.0 124.0 64.0 122.0 64.0 122.0 68.0 120.0 68.0 120.0 70.0 118.0 70.0 118.0 72.0 114.0 72.0 114.0 74.0 110.0 74.0 110.0 76.0 104.0 76.0 104.0 74.0 102.0 74.0 102.0 72.0 104.0 72.0 104.0 70.0 106.0 70.0 106.0 68.0 104.0 68.0 104.0 66.0 92.0 66.0 90.0 66.0 90.0 64.0 88.0 64.0 88.0 62.0 84.0 62.0 84.0 60.0 82.0 60.0 82.0 52.0 82.0 50.0 84.0 50.0 84.0 48.0 86.0 48.0 86.0 44.0 88.0 44.0 88.0 42.0 92.0 42.0 92.0 40.0 94.0 40.0 94.0 38.0 106.0 38.0 106.0 40.0 104.0 40.0 104.0 42.0 106.0 42.0 106.0 40.0 108.0 40.0 108.0 42.0 116.0 42.0 116.0 44.0 122.0 44.0 122.0 42.0 128.0 42.0 128.0 40.0 136.0 40.0 136.0 38.0 140.0 38.0 140.0 36.0 M106.0 68.0 L108.0 68.0 108.0 66.0 106.0 66.0 106.0 68.0 M64.0 52.0 L68.0 52.0 68.0 54.0 70.0 54.0 70.0 56.0 68.0 56.0 68.0 58.0 70.0 58.0 70.0 60.0 68.0 60.0 68.0 62.0 66.0 62.0 66.0 64.0 64.0 64.0 64.0 66.0 62.0 66.0 62.0 64.0 60.0 64.0 60.0 54.0 64.0 54.0 64.0 52.0 M42.0 30.0 L42.0 32.0 44.0 32.0 44.0 34.0 46.0 34.0 46.0 36.0 48.0 36.0 48.0 38.0 48.0 42.0 44.0 42.0 44.0 44.0 46.0 44.0 46.0 50.0 44.0 50.0 44.0 52.0 40.0 52.0 40.0 54.0 36.0 54.0 32.0 54.0 32.0 52.0 30.0 52.0 30.0 46.0 30.0 44.0 32.0 44.0 32.0 40.0 36.0 40.0 36.0 38.0 38.0 38.0 38.0 36.0 40.0 36.0 40.0 32.0 40.0 30.0 42.0 30.0 M22.0 60.0 L24.0 60.0 24.0 56.0 26.0 56.0 26.0 58.0 26.0 60.0 26.0 64.0 26.0 68.0 28.0 68.0 28.0 70.0 30.0 70.0 30.0 72.0 32.0 72.0 32.0 74.0 36.0 74.0 36.0 76.0 46.0 76.0 46.0 78.0 52.0 78.0 52.0 76.0 56.0 76.0 56.0 80.0 54.0 80.0 54.0 82.0 52.0 82.0 52.0 86.0 54.0 86.0 54.0 88.0 52.0 88.0 52.0 90.0 50.0 90.0 50.0 92.0 44.0 92.0 44.0 94.0 36.0 94.0 36.0 92.0 34.0 92.0 32.0 92.0 28.0 92.0 28.0 90.0 26.0 90.0 26.0 88.0 26.0 84.0 24.0 84.0 22.0 84.0 22.0 80.0 22.0 78.0 24.0 78.0 24.0 76.0 22.0 76.0 20.0 76.0 20.0 66.0 22.0 66.0 22.0 60.0 M66.0 66.0 L66.0 68.0 64.0 68.0 64.0 66.0 66.0 66.0 M64.0 68.0 L64.0 70.0 62.0 70.0 62.0 68.0 64.0 68.0 M70.0 68.0 L72.0 68.0 74.0 68.0 74.0 74.0 72.0 74.0 72.0 76.0 68.0 76.0 68.0 70.0 70.0 70.0 70.0 68.0" fill="#ffeea4" fill-rule="evenodd" stroke="none"/>
    <path d="M128.0 56.0 L128.0 58.0 128.0 62.0 130.0 62.0 130.0 64.0 126.0 64.0 126.0 66.0 124.0 66.0 124.0 70.0 126.0 70.0 126.0 72.0 128.0 72.0 128.0 74.0 124.0 74.0 124.0 76.0 120.0 76.0 120.0 78.0 118.0 78.0 114.0 78.0 114.0 80.0 114.0 84.0 110.0 84.0 110.0 86.0 106.0 86.0 106.0 88.0 102.0 88.0 102.0 86.0 92.0 86.0 92.0 82.0 94.0 82.0 94.0 70.0 92.0 70.0 92.0 66.0 104.0 66.0 104.0 68.0 106.0 68.0 106.0 70.0 104.0 70.0 104.0 72.0 102.0 72.0 102.0 74.0 104.0 74.0 104.0 76.0 110.0 76.0 110.0 74.0 114.0 74.0 114.0 72.0 118.0 72.0 118.0 70.0 120.0 70.0 120.0 68.0 122.0 68.0 122.0 64.0 124.0 64.0 124.0 62.0 126.0 62.0 126.0 58.0 124.0 58.0 124.0 56.0 126.0 56.0 126.0 54.0 128.0 54.0 128.0 56.0 M46.0 76.0 L48.0 76.0 48.0 74.0 52.0 74.0 52.0 72.0 54.0 72.0 54.0 70.0 56.0 70.0 56.0 68.0 58.0 68.0 58.0 64.0 60.0 64.0 62.0 64.0 62.0 66.0 60.0 66.0 60.0 68.0 62.0 68.0 62.0 70.0 64.0 70.0 64.0 68.0 66.0 68.0 66.0 66.0 68.0 66.0 68.0 64.0 70.0 64.0 70.0 66.0 70.0 68.0 70.0 70.0 68.0 70.0 68.0 76.0 72.0 76.0 74.0 76.0 74.0 78.0 72.0 78.0 72.0 80.0 70.0 80.0 68.0 80.0 68.0 84.0 64.0 84.0 64.0 86.0 66.0 86.0 66.0 90.0 56.0 90.0 56.0 92.0 52.0 92.0 52.0 94.0 50.0 94.0 50.0 96.0 44.0 96.0 44.0 94.0 44.0 92.0 50.0 92.0 50.0 90.0 52.0 90.0 52.0 88.0 54.0 88.0 54.0 86.0 52.0 86.0 52.0 82.0 54.0 82.0 54.0 80.0 56.0 80.0 56.0 76.0 52.0 76.0 52.0 78.0 46.0 78.0 46.0 76.0 M56.0 76.0 L58.0 76.0 58.0 74.0 56.0 74.0 56.0 76.0 M54.0 86.0 L56.0 86.0 56.0 84.0 54.0 84.0 54.0 86.0 M64.0 84.0 L64.0 82.0 62.0 82.0 62.0 84.0 64.0 84.0" fill="#c5a46a" fill-rule="evenodd" stroke="none"/>
  </g>
</svg>
