<?xml version="1.0" encoding="UTF-8" standalone="no"?>
<svg xmlns:xlink="http://www.w3.org/1999/xlink" height="106.0px" width="134.0px" xmlns="http://www.w3.org/2000/svg">
  <g transform="matrix(1.0, 0.0, 0.0, 1.0, -4.0, -2.0)">
    <path d="M116.0 56.0 L116.0 52.0 114.0 52.0 114.0 50.0 116.0 50.0 116.0 44.0 118.0 44.0 118.0 42.0 120.0 42.0 120.0 40.0 118.0 40.0 118.0 38.0 122.0 38.0 122.0 36.0 126.0 36.0 126.0 34.0 130.0 34.0 130.0 30.0 134.0 30.0 134.0 32.0 134.0 40.0 136.0 40.0 136.0 48.0 134.0 48.0 134.0 52.0 136.0 52.0 136.0 54.0 134.0 54.0 134.0 56.0 132.0 56.0 132.0 58.0 128.0 58.0 126.0 58.0 126.0 60.0 122.0 60.0 122.0 62.0 118.0 62.0 118.0 56.0 116.0 56.0" fill="#3f5566" fill-rule="evenodd" stroke="none"/>
    <path d="M134.0 32.0 L136.0 32.0 136.0 40.0 138.0 40.0 138.0 48.0 136.0 48.0 136.0 52.0 138.0 52.0 138.0 56.0 136.0 56.0 136.0 58.0 134.0 58.0 134.0 60.0 132.0 60.0 132.0 62.0 130.0 62.0 130.0 64.0 126.0 64.0 126.0 66.0 122.0 66.0 122.0 68.0 120.0 68.0 120.0 66.0 122.0 66.0 122.0 64.0 124.0 64.0 124.0 62.0 128.0 62.0 130.0 62.0 130.0 60.0 132.0 60.0 132.0 58.0 134.0 58.0 134.0 56.0 136.0 56.0 136.0 54.0 136.0 52.0 134.0 52.0 134.0 48.0 136.0 48.0 136.0 40.0 134.0 40.0 134.0 32.0 M118.0 68.0 L118.0 70.0 114.0 70.0 114.0 72.0 104.0 72.0 104.0 76.0 102.0 76.0 102.0 72.0 102.0 70.0 112.0 70.0 112.0 68.0 118.0 68.0 M104.0 78.0 L106.0 78.0 106.0 84.0 104.0 84.0 104.0 78.0 M106.0 86.0 L108.0 86.0 108.0 88.0 110.0 88.0 110.0 94.0 108.0 94.0 108.0 88.0 106.0 88.0 106.0 86.0 M108.0 96.0 L108.0 98.0 106.0 98.0 106.0 104.0 104.0 104.0 104.0 108.0 96.0 108.0 96.0 104.0 98.0 104.0 98.0 106.0 102.0 106.0 102.0 104.0 104.0 104.0 104.0 100.0 104.0 98.0 106.0 98.0 106.0 96.0 108.0 96.0 M98.0 102.0 L98.0 92.0 96.0 92.0 96.0 96.0 94.0 96.0 94.0 92.0 96.0 92.0 96.0 90.0 94.0 90.0 94.0 88.0 92.0 88.0 92.0 86.0 90.0 86.0 90.0 84.0 88.0 84.0 88.0 80.0 90.0 80.0 90.0 82.0 90.0 84.0 92.0 84.0 92.0 86.0 94.0 86.0 94.0 88.0 98.0 88.0 98.0 90.0 100.0 90.0 100.0 98.0 100.0 102.0 98.0 102.0 M92.0 100.0 L92.0 102.0 90.0 102.0 90.0 104.0 88.0 104.0 88.0 106.0 82.0 106.0 82.0 100.0 84.0 100.0 84.0 96.0 86.0 96.0 86.0 100.0 84.0 100.0 84.0 104.0 88.0 104.0 88.0 102.0 90.0 102.0 90.0 100.0 92.0 100.0 M72.0 94.0 L72.0 98.0 70.0 98.0 70.0 94.0 72.0 94.0 M70.0 100.0 L70.0 102.0 68.0 102.0 68.0 104.0 64.0 104.0 64.0 106.0 62.0 106.0 62.0 108.0 58.0 108.0 58.0 106.0 56.0 106.0 56.0 102.0 58.0 102.0 58.0 94.0 60.0 94.0 60.0 96.0 60.0 102.0 58.0 102.0 58.0 106.0 62.0 106.0 62.0 104.0 64.0 104.0 64.0 98.0 66.0 98.0 66.0 102.0 68.0 102.0 68.0 100.0 70.0 100.0 M54.0 70.0 L52.0 70.0 52.0 66.0 54.0 66.0 54.0 62.0 56.0 62.0 56.0 58.0 54.0 58.0 54.0 54.0 56.0 54.0 56.0 56.0 56.0 58.0 58.0 58.0 58.0 62.0 56.0 62.0 56.0 64.0 56.0 66.0 54.0 66.0 54.0 70.0 M50.0 70.0 L50.0 72.0 48.0 72.0 48.0 74.0 44.0 74.0 44.0 76.0 40.0 76.0 40.0 78.0 34.0 78.0 34.0 76.0 24.0 76.0 24.0 74.0 34.0 74.0 34.0 76.0 40.0 76.0 40.0 74.0 44.0 74.0 44.0 72.0 48.0 72.0 48.0 70.0 50.0 70.0 M36.0 60.0 L36.0 58.0 34.0 58.0 34.0 54.0 36.0 54.0 36.0 58.0 38.0 58.0 38.0 60.0 36.0 60.0 M34.0 52.0 L34.0 48.0 34.0 44.0 36.0 44.0 36.0 46.0 36.0 48.0 36.0 50.0 36.0 52.0 34.0 52.0 M26.0 52.0 L22.0 52.0 22.0 50.0 24.0 50.0 26.0 50.0 26.0 52.0 M20.0 52.0 L20.0 58.0 18.0 58.0 18.0 52.0 20.0 52.0 M16.0 58.0 L16.0 62.0 12.0 62.0 12.0 64.0 10.0 64.0 10.0 62.0 12.0 62.0 12.0 60.0 14.0 60.0 14.0 58.0 16.0 58.0 M8.0 64.0 L6.0 64.0 6.0 62.0 8.0 62.0 8.0 64.0 M32.0 42.0 L32.0 38.0 34.0 38.0 34.0 42.0 32.0 42.0 M40.0 8.0 L40.0 6.0 42.0 6.0 42.0 4.0 44.0 4.0 44.0 2.0 48.0 2.0 48.0 4.0 50.0 4.0 50.0 14.0 48.0 14.0 48.0 4.0 46.0 4.0 44.0 4.0 44.0 6.0 42.0 6.0 42.0 8.0 40.0 8.0 M52.0 14.0 L54.0 14.0 54.0 22.0 52.0 22.0 52.0 26.0 50.0 26.0 50.0 28.0 48.0 28.0 48.0 30.0 46.0 30.0 46.0 28.0 48.0 28.0 48.0 26.0 50.0 26.0 50.0 22.0 52.0 22.0 52.0 20.0 52.0 14.0 M96.0 28.0 L98.0 28.0 98.0 30.0 96.0 30.0 96.0 32.0 94.0 32.0 94.0 34.0 92.0 34.0 92.0 32.0 94.0 32.0 94.0 30.0 96.0 30.0 96.0 28.0 M90.0 36.0 L90.0 40.0 86.0 40.0 86.0 42.0 82.0 42.0 82.0 44.0 80.0 44.0 80.0 46.0 70.0 46.0 70.0 44.0 80.0 44.0 80.0 42.0 82.0 42.0 82.0 40.0 86.0 40.0 86.0 38.0 88.0 38.0 88.0 36.0 90.0 36.0 M68.0 56.0 L68.0 58.0 70.0 58.0 70.0 60.0 74.0 60.0 74.0 62.0 72.0 62.0 70.0 62.0 70.0 60.0 68.0 60.0 68.0 58.0 66.0 58.0 66.0 56.0 68.0 56.0 M100.0 66.0 L108.0 66.0 108.0 64.0 112.0 64.0 112.0 66.0 110.0 66.0 108.0 66.0 108.0 68.0 102.0 68.0 100.0 68.0 100.0 66.0 M112.0 62.0 L112.0 60.0 114.0 60.0 114.0 56.0 116.0 56.0 116.0 60.0 114.0 60.0 114.0 62.0 112.0 62.0 M52.0 50.0 L54.0 50.0 54.0 52.0 52.0 52.0 52.0 50.0 M38.0 62.0 L38.0 60.0 46.0 60.0 46.0 58.0 48.0 58.0 48.0 60.0 50.0 60.0 50.0 58.0 52.0 58.0 52.0 60.0 50.0 60.0 50.0 62.0 48.0 62.0 48.0 60.0 46.0 60.0 46.0 62.0 38.0 62.0 M48.0 54.0 L48.0 52.0 50.0 52.0 50.0 54.0 48.0 54.0 M66.0 96.0 L66.0 90.0 68.0 90.0 68.0 82.0 70.0 82.0 70.0 90.0 68.0 90.0 68.0 98.0 66.0 98.0 66.0 96.0" fill="#111111" fill-rule="evenodd" stroke="none"/>
    <path d="M120.0 68.0 L118.0 68.0 118.0 66.0 120.0 66.0 120.0 68.0 M34.0 54.0 L34.0 52.0 36.0 52.0 36.0 54.0 34.0 54.0 M94.0 28.0 L96.0 28.0 96.0 30.0 94.0 30.0 94.0 28.0 M126.0 60.0 L126.0 58.0 128.0 58.0 128.0 60.0 130.0 60.0 130.0 62.0 128.0 62.0 128.0 60.0 126.0 60.0 M134.0 56.0 L134.0 54.0 136.0 54.0 136.0 56.0 134.0 56.0 M110.0 66.0 L110.0 68.0 112.0 68.0 112.0 70.0 102.0 70.0 102.0 68.0 108.0 68.0 108.0 66.0 110.0 66.0 M122.0 64.0 L122.0 62.0 124.0 62.0 124.0 64.0 122.0 64.0 M102.0 70.0 L102.0 72.0 100.0 72.0 100.0 70.0 102.0 70.0 M88.0 68.0 L88.0 70.0 86.0 70.0 86.0 68.0 88.0 68.0 M70.0 64.0 L70.0 66.0 68.0 66.0 68.0 68.0 64.0 68.0 64.0 70.0 58.0 70.0 58.0 72.0 56.0 72.0 56.0 70.0 54.0 70.0 54.0 66.0 56.0 66.0 56.0 64.0 60.0 64.0 60.0 62.0 66.0 62.0 66.0 64.0 70.0 64.0 M56.0 76.0 L58.0 76.0 58.0 78.0 62.0 78.0 62.0 80.0 70.0 80.0 70.0 82.0 68.0 82.0 68.0 90.0 66.0 90.0 66.0 96.0 64.0 96.0 64.0 98.0 62.0 98.0 62.0 96.0 60.0 96.0 60.0 94.0 60.0 82.0 58.0 82.0 58.0 78.0 56.0 78.0 56.0 76.0 M70.0 78.0 L70.0 76.0 72.0 76.0 72.0 78.0 70.0 78.0 M80.0 80.0 L84.0 80.0 84.0 78.0 86.0 78.0 86.0 80.0 86.0 82.0 80.0 82.0 80.0 80.0 M90.0 82.0 L100.0 82.0 100.0 80.0 102.0 80.0 102.0 78.0 104.0 78.0 104.0 84.0 104.0 86.0 106.0 86.0 106.0 88.0 108.0 88.0 108.0 94.0 106.0 94.0 106.0 96.0 106.0 98.0 104.0 98.0 104.0 100.0 102.0 100.0 102.0 98.0 100.0 98.0 100.0 90.0 98.0 90.0 98.0 88.0 94.0 88.0 94.0 86.0 92.0 86.0 92.0 84.0 90.0 84.0 90.0 82.0 M46.0 4.0 L46.0 6.0 44.0 6.0 44.0 4.0 46.0 4.0 M36.0 26.0 L38.0 26.0 38.0 28.0 40.0 28.0 40.0 30.0 40.0 34.0 38.0 34.0 38.0 32.0 36.0 32.0 36.0 26.0 M46.0 22.0 L48.0 22.0 48.0 20.0 52.0 20.0 52.0 22.0 50.0 22.0 50.0 26.0 48.0 26.0 48.0 28.0 46.0 28.0 46.0 30.0 44.0 30.0 44.0 32.0 42.0 32.0 42.0 30.0 44.0 30.0 44.0 26.0 46.0 26.0 46.0 22.0 M56.0 32.0 L58.0 32.0 58.0 34.0 56.0 34.0 56.0 32.0 M60.0 34.0 L62.0 34.0 62.0 36.0 60.0 36.0 60.0 34.0 M50.0 50.0 L52.0 50.0 52.0 52.0 50.0 52.0 50.0 50.0 M40.0 48.0 L44.0 48.0 44.0 50.0 38.0 50.0 38.0 48.0 40.0 48.0 M48.0 56.0 L46.0 56.0 46.0 54.0 48.0 54.0 48.0 56.0" fill="#7b9bb4" fill-rule="evenodd" stroke="none"/>
    <path d="M50.0 14.0 L52.0 14.0 52.0 20.0 48.0 20.0 48.0 22.0 46.0 22.0 46.0 20.0 46.0 14.0 44.0 14.0 44.0 12.0 42.0 12.0 42.0 14.0 42.0 16.0 40.0 16.0 40.0 18.0 40.0 20.0 38.0 20.0 38.0 22.0 38.0 26.0 36.0 26.0 36.0 24.0 34.0 24.0 34.0 18.0 36.0 18.0 36.0 12.0 38.0 12.0 38.0 10.0 40.0 10.0 40.0 8.0 42.0 8.0 42.0 6.0 44.0 6.0 46.0 6.0 46.0 4.0 48.0 4.0 48.0 14.0 50.0 14.0 M68.0 32.0 L68.0 30.0 70.0 30.0 70.0 28.0 72.0 28.0 72.0 26.0 84.0 26.0 84.0 28.0 94.0 28.0 94.0 30.0 86.0 30.0 84.0 30.0 80.0 30.0 80.0 28.0 78.0 28.0 78.0 30.0 76.0 30.0 76.0 32.0 72.0 32.0 72.0 34.0 70.0 34.0 68.0 34.0 68.0 32.0 M112.0 64.0 L112.0 62.0 114.0 62.0 114.0 60.0 116.0 60.0 116.0 56.0 118.0 56.0 118.0 62.0 122.0 62.0 122.0 60.0 126.0 60.0 128.0 60.0 128.0 62.0 124.0 62.0 122.0 62.0 122.0 64.0 122.0 66.0 120.0 66.0 118.0 66.0 118.0 68.0 112.0 68.0 110.0 68.0 110.0 66.0 112.0 66.0 112.0 64.0 M128.0 58.0 L132.0 58.0 132.0 56.0 134.0 56.0 134.0 58.0 132.0 58.0 132.0 60.0 130.0 60.0 128.0 60.0 128.0 58.0 M68.0 36.0 L68.0 40.0 66.0 40.0 66.0 42.0 64.0 42.0 64.0 46.0 62.0 46.0 62.0 44.0 60.0 44.0 60.0 42.0 60.0 40.0 58.0 40.0 58.0 38.0 56.0 38.0 56.0 36.0 54.0 36.0 54.0 34.0 50.0 34.0 50.0 32.0 56.0 32.0 56.0 34.0 58.0 34.0 60.0 34.0 60.0 36.0 62.0 36.0 62.0 38.0 64.0 38.0 64.0 36.0 66.0 36.0 66.0 34.0 68.0 34.0 68.0 36.0 M44.0 50.0 L50.0 50.0 50.0 52.0 48.0 52.0 48.0 54.0 46.0 54.0 46.0 56.0 48.0 56.0 50.0 56.0 50.0 58.0 50.0 60.0 48.0 60.0 48.0 58.0 46.0 58.0 46.0 60.0 38.0 60.0 38.0 58.0 36.0 58.0 36.0 54.0 38.0 54.0 38.0 50.0 44.0 50.0 M38.0 58.0 L40.0 58.0 40.0 56.0 38.0 56.0 38.0 58.0 M56.0 54.0 L56.0 50.0 58.0 50.0 58.0 54.0 56.0 54.0" fill="#94e7ef" fill-rule="evenodd" stroke="none"/>
    <path d="M32.0 48.0 L32.0 50.0 28.0 50.0 28.0 52.0 26.0 52.0 26.0 50.0 26.0 46.0 28.0 46.0 30.0 46.0 30.0 48.0 32.0 48.0 M18.0 48.0 L20.0 48.0 20.0 50.0 18.0 50.0 18.0 48.0 M34.0 38.0 L34.0 36.0 36.0 36.0 36.0 34.0 38.0 34.0 40.0 34.0 40.0 30.0 42.0 30.0 42.0 32.0 44.0 32.0 44.0 30.0 46.0 30.0 48.0 30.0 48.0 32.0 50.0 32.0 50.0 34.0 54.0 34.0 54.0 36.0 56.0 36.0 56.0 38.0 58.0 38.0 58.0 40.0 56.0 40.0 56.0 38.0 54.0 38.0 54.0 36.0 50.0 36.0 50.0 38.0 48.0 38.0 48.0 32.0 44.0 32.0 44.0 34.0 40.0 34.0 40.0 36.0 38.0 36.0 38.0 40.0 38.0 42.0 36.0 42.0 36.0 38.0 34.0 38.0 M64.0 34.0 L66.0 34.0 66.0 32.0 68.0 32.0 68.0 34.0 66.0 34.0 66.0 36.0 64.0 36.0 64.0 34.0 M68.0 30.0 L68.0 26.0 72.0 26.0 72.0 24.0 84.0 24.0 84.0 26.0 94.0 26.0 94.0 28.0 84.0 28.0 84.0 26.0 72.0 26.0 72.0 28.0 70.0 28.0 70.0 30.0 68.0 30.0 M70.0 46.0 L70.0 54.0 68.0 54.0 68.0 56.0 66.0 56.0 66.0 54.0 68.0 54.0 68.0 46.0 66.0 46.0 66.0 44.0 68.0 44.0 68.0 42.0 70.0 42.0 70.0 44.0 70.0 46.0 M84.0 34.0 L84.0 32.0 86.0 32.0 88.0 32.0 88.0 34.0 84.0 34.0 M72.0 36.0 L70.0 36.0 70.0 34.0 72.0 34.0 72.0 32.0 76.0 32.0 76.0 30.0 78.0 30.0 78.0 28.0 80.0 28.0 80.0 30.0 84.0 30.0 84.0 32.0 80.0 32.0 80.0 30.0 78.0 30.0 78.0 32.0 76.0 32.0 76.0 34.0 72.0 34.0 72.0 36.0 M38.0 22.0 L38.0 20.0 40.0 20.0 40.0 22.0 38.0 22.0 M40.0 18.0 L40.0 16.0 42.0 16.0 42.0 14.0 44.0 14.0 44.0 16.0 42.0 16.0 42.0 18.0 40.0 18.0 M46.0 20.0 L46.0 22.0 46.0 26.0 44.0 26.0 44.0 30.0 42.0 30.0 42.0 28.0 42.0 26.0 44.0 26.0 44.0 20.0 46.0 20.0 M60.0 42.0 L60.0 44.0 62.0 44.0 62.0 46.0 64.0 46.0 64.0 48.0 62.0 48.0 62.0 50.0 60.0 50.0 60.0 54.0 58.0 54.0 58.0 50.0 56.0 50.0 56.0 48.0 60.0 48.0 60.0 44.0 58.0 44.0 58.0 42.0 60.0 42.0 M46.0 40.0 L48.0 40.0 48.0 42.0 48.0 44.0 46.0 44.0 46.0 46.0 44.0 46.0 44.0 42.0 46.0 42.0 46.0 40.0 M44.0 46.0 L44.0 48.0 50.0 48.0 50.0 50.0 44.0 50.0 44.0 48.0 40.0 48.0 40.0 46.0 38.0 46.0 38.0 42.0 40.0 42.0 40.0 46.0 44.0 46.0 M62.0 54.0 L62.0 52.0 64.0 52.0 64.0 54.0 62.0 54.0 62.0 56.0 60.0 56.0 60.0 54.0 62.0 54.0 M58.0 56.0 L56.0 56.0 56.0 54.0 58.0 54.0 58.0 56.0 M58.0 62.0 L60.0 62.0 60.0 64.0 56.0 64.0 56.0 62.0 58.0 62.0" fill="#383951" fill-rule="evenodd" stroke="none"/>
    <path d="M90.0 34.0 L90.0 36.0 88.0 36.0 88.0 38.0 86.0 38.0 86.0 40.0 82.0 40.0 82.0 42.0 80.0 42.0 80.0 44.0 70.0 44.0 70.0 42.0 68.0 42.0 68.0 40.0 68.0 36.0 70.0 36.0 72.0 36.0 78.0 36.0 78.0 40.0 80.0 40.0 80.0 36.0 84.0 36.0 84.0 34.0 88.0 34.0 88.0 32.0 86.0 32.0 86.0 30.0 94.0 30.0 94.0 32.0 92.0 32.0 90.0 32.0 90.0 34.0 M70.0 38.0 L70.0 40.0 74.0 40.0 74.0 38.0 70.0 38.0" fill="#729bbc" fill-rule="evenodd" stroke="none"/>
    <path d="M104.0 76.0 L104.0 78.0 102.0 78.0 102.0 76.0 104.0 76.0 M106.0 84.0 L106.0 86.0 104.0 86.0 104.0 84.0 106.0 84.0 M58.0 94.0 L58.0 82.0 56.0 82.0 56.0 78.0 54.0 78.0 54.0 70.0 56.0 70.0 56.0 72.0 58.0 72.0 58.0 74.0 56.0 74.0 56.0 76.0 56.0 78.0 58.0 78.0 58.0 82.0 60.0 82.0 60.0 94.0 58.0 94.0 M36.0 34.0 L36.0 32.0 34.0 32.0 34.0 26.0 32.0 26.0 32.0 18.0 34.0 18.0 34.0 12.0 36.0 12.0 36.0 10.0 38.0 10.0 38.0 8.0 40.0 8.0 40.0 10.0 38.0 10.0 38.0 12.0 36.0 12.0 36.0 18.0 34.0 18.0 34.0 24.0 36.0 24.0 36.0 26.0 36.0 32.0 38.0 32.0 38.0 34.0 36.0 34.0 M48.0 30.0 L58.0 30.0 58.0 32.0 62.0 32.0 62.0 34.0 64.0 34.0 64.0 36.0 64.0 38.0 62.0 38.0 62.0 36.0 62.0 34.0 60.0 34.0 58.0 34.0 58.0 32.0 56.0 32.0 50.0 32.0 48.0 32.0 48.0 30.0 M92.0 34.0 L90.0 34.0 90.0 32.0 92.0 32.0 92.0 34.0 M98.0 66.0 L100.0 66.0 100.0 68.0 98.0 68.0 98.0 66.0 M102.0 68.0 L102.0 70.0 100.0 70.0 100.0 68.0 102.0 68.0 M70.0 80.0 L70.0 78.0 72.0 78.0 72.0 80.0 70.0 80.0 M86.0 78.0 L86.0 76.0 88.0 76.0 88.0 80.0 86.0 80.0 86.0 78.0 M88.0 84.0 L90.0 84.0 90.0 86.0 92.0 86.0 92.0 88.0 94.0 88.0 94.0 90.0 96.0 90.0 96.0 92.0 94.0 92.0 94.0 96.0 92.0 96.0 92.0 98.0 88.0 98.0 88.0 94.0 90.0 94.0 90.0 92.0 88.0 92.0 88.0 88.0 86.0 88.0 86.0 84.0 88.0 84.0 M68.0 90.0 L70.0 90.0 70.0 82.0 72.0 82.0 72.0 90.0 70.0 90.0 70.0 94.0 70.0 98.0 68.0 98.0 68.0 90.0 M66.0 98.0 L68.0 98.0 68.0 100.0 68.0 102.0 66.0 102.0 66.0 98.0" fill="#525a84" fill-rule="evenodd" stroke="none"/>
    <path d="M20.0 48.0 L20.0 46.0 26.0 46.0 26.0 44.0 28.0 44.0 28.0 46.0 26.0 46.0 26.0 50.0 24.0 50.0 24.0 48.0 20.0 48.0 M84.0 30.0 L86.0 30.0 86.0 32.0 84.0 32.0 84.0 34.0 84.0 36.0 80.0 36.0 80.0 40.0 78.0 40.0 78.0 36.0 72.0 36.0 72.0 34.0 76.0 34.0 76.0 32.0 78.0 32.0 78.0 30.0 80.0 30.0 80.0 32.0 84.0 32.0 84.0 30.0 M70.0 36.0 L68.0 36.0 68.0 34.0 70.0 34.0 70.0 36.0 M68.0 40.0 L68.0 42.0 66.0 42.0 66.0 40.0 68.0 40.0 M38.0 26.0 L38.0 22.0 40.0 22.0 40.0 20.0 40.0 18.0 42.0 18.0 42.0 16.0 44.0 16.0 44.0 14.0 42.0 14.0 42.0 12.0 44.0 12.0 44.0 14.0 46.0 14.0 46.0 20.0 44.0 20.0 42.0 20.0 42.0 22.0 40.0 22.0 40.0 28.0 42.0 28.0 42.0 30.0 40.0 30.0 40.0 28.0 38.0 28.0 38.0 26.0 M58.0 40.0 L60.0 40.0 60.0 42.0 58.0 42.0 56.0 42.0 56.0 40.0 58.0 40.0 M48.0 38.0 L50.0 38.0 50.0 40.0 48.0 40.0 46.0 40.0 46.0 38.0 48.0 38.0 M48.0 42.0 L50.0 42.0 50.0 44.0 58.0 44.0 60.0 44.0 60.0 48.0 56.0 48.0 56.0 50.0 54.0 50.0 52.0 50.0 50.0 50.0 50.0 48.0 44.0 48.0 44.0 46.0 46.0 46.0 46.0 44.0 48.0 44.0 48.0 42.0 M44.0 42.0 L44.0 46.0 40.0 46.0 40.0 42.0 38.0 42.0 38.0 40.0 42.0 40.0 42.0 42.0 44.0 42.0 M70.0 38.0 L74.0 38.0 74.0 40.0 70.0 40.0 70.0 38.0 M58.0 54.0 L60.0 54.0 60.0 50.0 62.0 50.0 62.0 48.0 64.0 48.0 64.0 52.0 62.0 52.0 62.0 54.0 60.0 54.0 60.0 56.0 58.0 56.0 58.0 54.0 M32.0 48.0 L30.0 48.0 30.0 46.0 32.0 46.0 32.0 48.0 M34.0 38.0 L36.0 38.0 36.0 42.0 38.0 42.0 38.0 46.0 36.0 46.0 36.0 44.0 36.0 42.0 34.0 42.0 34.0 38.0 M38.0 48.0 L38.0 46.0 40.0 46.0 40.0 48.0 38.0 48.0" fill="#52639c" fill-rule="evenodd" stroke="none"/>
    <path d="M102.0 72.0 L102.0 76.0 102.0 78.0 102.0 80.0 100.0 80.0 100.0 82.0 90.0 82.0 90.0 80.0 88.0 80.0 88.0 76.0 86.0 76.0 86.0 78.0 84.0 78.0 84.0 80.0 80.0 80.0 72.0 80.0 72.0 78.0 72.0 76.0 70.0 76.0 70.0 78.0 70.0 80.0 62.0 80.0 62.0 78.0 58.0 78.0 58.0 76.0 56.0 76.0 56.0 74.0 58.0 74.0 58.0 72.0 58.0 70.0 64.0 70.0 64.0 68.0 68.0 68.0 68.0 66.0 70.0 66.0 70.0 64.0 70.0 62.0 72.0 62.0 72.0 64.0 74.0 64.0 74.0 66.0 76.0 66.0 76.0 68.0 80.0 68.0 80.0 70.0 86.0 70.0 88.0 70.0 88.0 68.0 92.0 68.0 92.0 66.0 98.0 66.0 98.0 68.0 100.0 68.0 100.0 70.0 100.0 72.0 102.0 72.0" fill="#94e5ee" fill-rule="evenodd" stroke="none"/>
    <path d="M74.0 62.0 L78.0 62.0 78.0 64.0 98.0 64.0 98.0 66.0 92.0 66.0 92.0 68.0 88.0 68.0 86.0 68.0 86.0 70.0 80.0 70.0 80.0 68.0 76.0 68.0 76.0 66.0 74.0 66.0 74.0 64.0 72.0 64.0 72.0 62.0 74.0 62.0" fill="#3d4e61" fill-rule="evenodd" stroke="none"/>
    <path d="M94.0 96.0 L94.0 100.0 92.0 100.0 90.0 100.0 90.0 102.0 88.0 102.0 88.0 104.0 84.0 104.0 84.0 100.0 86.0 100.0 86.0 96.0 86.0 94.0 88.0 94.0 88.0 92.0 86.0 92.0 86.0 88.0 84.0 88.0 84.0 84.0 80.0 84.0 80.0 82.0 74.0 82.0 74.0 90.0 72.0 90.0 72.0 94.0 70.0 94.0 70.0 90.0 72.0 90.0 72.0 82.0 70.0 82.0 70.0 80.0 72.0 80.0 80.0 80.0 80.0 82.0 86.0 82.0 86.0 80.0 88.0 80.0 88.0 84.0 86.0 84.0 86.0 88.0 88.0 88.0 88.0 92.0 90.0 92.0 90.0 94.0 88.0 94.0 88.0 98.0 92.0 98.0 92.0 96.0 94.0 96.0 M70.0 98.0 L70.0 100.0 68.0 100.0 68.0 98.0 70.0 98.0 M36.0 46.0 L38.0 46.0 38.0 48.0 36.0 48.0 36.0 46.0 M36.0 54.0 L36.0 52.0 36.0 50.0 38.0 50.0 38.0 54.0 36.0 54.0" fill="#313949" fill-rule="evenodd" stroke="none"/>
    <path d="M108.0 94.0 L108.0 96.0 106.0 96.0 106.0 94.0 108.0 94.0 M38.0 58.0 L38.0 56.0 40.0 56.0 40.0 58.0 38.0 58.0 M60.0 96.0 L62.0 96.0 62.0 98.0 64.0 98.0 64.0 96.0 66.0 96.0 66.0 98.0 64.0 98.0 64.0 104.0 62.0 104.0 62.0 106.0 58.0 106.0 58.0 102.0 60.0 102.0 60.0 96.0" fill="#425a6b" fill-rule="evenodd" stroke="none"/>
    <path d="M96.0 104.0 L96.0 102.0 98.0 102.0 100.0 102.0 100.0 98.0 102.0 98.0 102.0 100.0 104.0 100.0 104.0 104.0 102.0 104.0 102.0 106.0 98.0 106.0 98.0 104.0 96.0 104.0" fill="#3e5263" fill-rule="evenodd" stroke="none"/>
    <path d="M52.0 70.0 L50.0 70.0 48.0 70.0 48.0 72.0 44.0 72.0 44.0 74.0 40.0 74.0 40.0 72.0 42.0 72.0 42.0 70.0 44.0 70.0 44.0 68.0 46.0 68.0 46.0 64.0 38.0 64.0 38.0 62.0 46.0 62.0 46.0 60.0 48.0 60.0 48.0 62.0 50.0 62.0 50.0 60.0 52.0 60.0 52.0 58.0 54.0 58.0 56.0 58.0 56.0 62.0 54.0 62.0 54.0 66.0 52.0 66.0 52.0 70.0 M22.0 52.0 L20.0 52.0 18.0 52.0 18.0 50.0 20.0 50.0 20.0 48.0 24.0 48.0 24.0 50.0 22.0 50.0 22.0 52.0 M18.0 58.0 L16.0 58.0 16.0 52.0 18.0 52.0 18.0 58.0 M16.0 48.0 L18.0 48.0 18.0 50.0 16.0 50.0 16.0 48.0 M40.0 22.0 L42.0 22.0 42.0 20.0 44.0 20.0 44.0 26.0 42.0 26.0 42.0 28.0 40.0 28.0 40.0 22.0 M40.0 34.0 L44.0 34.0 44.0 32.0 48.0 32.0 48.0 38.0 46.0 38.0 46.0 40.0 46.0 42.0 44.0 42.0 42.0 42.0 42.0 40.0 38.0 40.0 38.0 36.0 40.0 36.0 40.0 34.0 M50.0 38.0 L50.0 36.0 54.0 36.0 54.0 38.0 56.0 38.0 56.0 40.0 56.0 42.0 58.0 42.0 58.0 44.0 50.0 44.0 50.0 42.0 48.0 42.0 48.0 40.0 50.0 40.0 50.0 38.0" fill="#529cde" fill-rule="evenodd" stroke="none"/>
    <path d="M64.0 46.0 L64.0 42.0 66.0 42.0 68.0 42.0 68.0 44.0 66.0 44.0 66.0 46.0 68.0 46.0 68.0 54.0 66.0 54.0 66.0 56.0 66.0 58.0 64.0 58.0 64.0 60.0 60.0 60.0 60.0 62.0 58.0 62.0 58.0 58.0 56.0 58.0 56.0 56.0 58.0 56.0 60.0 56.0 62.0 56.0 62.0 54.0 64.0 54.0 64.0 52.0 64.0 48.0 64.0 46.0" fill="#779bb7" fill-rule="evenodd" stroke="none"/>
    <path d="M10.0 64.0 L8.0 64.0 8.0 62.0 6.0 62.0 4.0 62.0 4.0 58.0 6.0 58.0 6.0 54.0 8.0 54.0 8.0 52.0 10.0 52.0 10.0 50.0 12.0 50.0 12.0 48.0 16.0 48.0 16.0 50.0 18.0 50.0 18.0 52.0 16.0 52.0 16.0 58.0 14.0 58.0 14.0 60.0 12.0 60.0 12.0 62.0 10.0 62.0 10.0 64.0" fill="#3d5162" fill-rule="evenodd" stroke="none"/>
    <path d="M34.0 48.0 L32.0 48.0 32.0 46.0 30.0 46.0 30.0 44.0 32.0 44.0 32.0 42.0 34.0 42.0 36.0 42.0 36.0 44.0 34.0 44.0 34.0 48.0" fill="#35394d" fill-rule="evenodd" stroke="none"/>
    <path d="M36.0 48.0 L38.0 48.0 38.0 50.0 36.0 50.0 36.0 48.0 M50.0 52.0 L52.0 52.0 52.0 54.0 50.0 54.0 50.0 52.0" fill="#ebfafe" fill-rule="evenodd" stroke="none"/>
    <path d="M24.0 74.0 L24.0 72.0 22.0 72.0 22.0 70.0 26.0 70.0 26.0 66.0 28.0 66.0 28.0 64.0 30.0 64.0 30.0 62.0 32.0 62.0 32.0 60.0 36.0 60.0 36.0 62.0 38.0 62.0 38.0 64.0 46.0 64.0 46.0 68.0 44.0 68.0 44.0 70.0 42.0 70.0 42.0 72.0 40.0 72.0 40.0 74.0 40.0 76.0 34.0 76.0 34.0 74.0 24.0 74.0" fill="#405567" fill-rule="evenodd" stroke="none"/>
    <path d="M70.0 62.0 L70.0 64.0 66.0 64.0 66.0 62.0 60.0 62.0 60.0 60.0 64.0 60.0 64.0 58.0 66.0 58.0 68.0 58.0 68.0 60.0 70.0 60.0 70.0 62.0" fill="#3f5265" fill-rule="evenodd" stroke="none"/>
    <path d="M54.0 50.0 L56.0 50.0 56.0 54.0 54.0 54.0 54.0 58.0 52.0 58.0 50.0 58.0 50.0 56.0 48.0 56.0 48.0 54.0 50.0 54.0 52.0 54.0 52.0 52.0 54.0 52.0 54.0 50.0" fill="#3a495b" fill-rule="evenodd" stroke="none"/>
  </g>
</svg>
