<?xml version="1.0" encoding="UTF-8" standalone="no"?>
<svg xmlns:xlink="http://www.w3.org/1999/xlink" height="204.3px" width="108.85px" xmlns="http://www.w3.org/2000/svg">
  <g transform="matrix(1.0, 0.0, 0.0, 1.0, 54.45, 102.15)">
    <path d="M48.55 -76.35 L47.45 -75.9 46.7 -77.05 Q45.65 -78.3 45.0 -75.5 L45.0 -71.25 44.5 -62.7 Q44.55 -59.35 43.3 -54.1 L41.25 -45.35 Q40.4 -40.95 37.2 -36.65 33.7 -31.9 28.0 -28.3 L16.9 -22.0 Q8.05 -16.2 8.05 -11.65 L8.1 -10.85 6.3 -9.7 Q-1.75 -22.95 -14.9 -33.4 L-15.2 -33.25 Q-29.05 -26.85 -37.7 -16.2 -35.9 -29.15 -20.75 -40.8 L-19.4 -41.85 Q-2.85 -51.85 6.0 -47.75 L7.9 -46.6 Q8.7 -46.6 9.05 -47.1 L9.3 -47.85 Q9.3 -51.05 1.4 -52.45 L-4.05 -53.4 Q-6.5 -53.95 -6.5 -54.8 -6.5 -58.85 -2.05 -64.65 2.35 -70.4 2.35 -71.55 2.35 -73.0 1.1 -72.35 L0.55 -73.2 Q-33.2 -74.05 0.55 -84.15 -23.15 -104.85 22.5 -84.15 48.45 -122.15 48.15 -77.25 L48.55 -76.35" fill="#d6eefb" fill-rule="evenodd" stroke="none"/>
    <path d="M6.3 -9.7 L8.1 -10.85 8.05 -11.65 Q8.05 -16.2 16.9 -22.0 L28.0 -28.3 Q33.7 -31.9 37.2 -36.65 40.4 -40.95 41.25 -45.35 L43.3 -54.1 Q44.55 -59.35 44.5 -62.7 L45.0 -71.25 45.0 -75.5 Q45.65 -78.3 46.7 -77.05 L47.45 -75.9 48.55 -76.35 Q60.85 -46.85 44.2 -23.1 24.95 -18.3 9.2 -4.55 L7.45 -7.8 7.5 -7.85 Q7.5 -9.7 6.35 -9.65 L6.3 -9.7 M0.55 -73.2 L1.1 -72.35 Q2.35 -73.0 2.35 -71.55 2.35 -70.4 -2.05 -64.65 -6.5 -58.85 -6.5 -54.8 -6.5 -53.95 -4.05 -53.4 L1.4 -52.45 Q9.3 -51.05 9.3 -47.85 L9.05 -47.1 Q8.7 -46.6 7.9 -46.6 L6.0 -47.75 Q-2.85 -51.85 -19.4 -41.85 -10.2 -69.9 0.55 -73.2" fill="#a4c9de" fill-rule="evenodd" stroke="none"/>
    <path d="M-37.7 -16.2 Q-29.05 -26.85 -15.2 -33.25 L-14.9 -33.4 Q-1.75 -22.95 6.3 -9.7 L6.35 -9.65 Q5.0 -9.65 2.2 -7.25 -2.45 -3.2 -9.4 5.7 -16.15 14.35 -21.0 22.35 -26.3 31.05 -26.3 34.05 -26.3 40.9 -21.55 45.85 -18.3 49.25 -11.15 52.95 -2.6 57.4 -0.8 58.75 3.95 62.25 3.95 66.65 3.95 69.6 3.5 70.5 1.95 73.7 -4.0 73.7 -6.35 73.7 -8.3 72.85 L-11.35 71.4 -14.5 71.4 Q-15.4 71.6 -15.65 72.15 L-15.75 72.65 -15.3 73.25 -12.3 76.9 Q-12.95 76.95 -12.95 79.15 -12.95 80.35 -11.35 83.2 -9.75 86.1 -9.75 88.0 -9.75 90.35 -10.45 91.05 -13.0 93.5 -22.55 93.5 L-22.7 93.5 Q-23.3 92.85 -25.05 92.05 -27.6 90.95 -28.6 91.05 L-28.75 92.2 Q-27.35 94.1 -25.85 94.85 L-25.75 95.05 -26.5 95.55 Q-26.7 95.2 -27.05 95.1 L-27.55 95.0 -30.1 95.45 -32.65 95.85 Q-35.1 95.85 -39.75 94.2 L-42.3 94.3 -44.6 92.75 Q-55.45 73.1 -53.2 45.7 -56.25 45.8 -45.45 18.4 -43.1 -8.3 -37.7 -16.2 M-34.45 82.3 Q-32.0 87.95 -28.7 92.75 L-27.05 95.1 -28.7 92.75 Q-32.0 87.95 -34.45 82.3 M-15.75 72.65 L-19.8 66.85 -15.75 72.65" fill="#1e7fae" fill-rule="evenodd" stroke="none"/>
    <path d="M6.35 -9.65 Q7.5 -9.7 7.5 -7.85 L7.45 -7.8 9.2 -4.55 Q-0.8 4.1 -9.35 16.4 -14.45 23.65 -19.05 32.15 -18.5 37.5 -11.2 43.5 L-4.75 48.1 Q20.45 62.75 5.25 75.4 1.45 78.5 -4.75 81.5 -0.2 88.3 -0.35 92.75 -0.7 102.15 -21.85 101.05 -32.25 103.25 -42.6 96.15 L-42.65 96.1 -44.6 92.75 -42.3 94.3 -39.75 94.2 Q-35.1 95.85 -32.65 95.85 L-30.1 95.45 -27.55 95.0 -27.05 95.1 Q-26.7 95.2 -26.5 95.55 L-25.75 95.05 -25.85 94.85 Q-27.35 94.1 -28.75 92.2 L-28.6 91.05 Q-27.6 90.95 -25.05 92.05 -23.3 92.85 -22.7 93.5 L-22.55 93.5 Q-13.0 93.5 -10.45 91.05 -9.75 90.35 -9.75 88.0 -9.75 86.1 -11.35 83.2 -12.95 80.35 -12.95 79.15 -12.95 76.95 -12.3 76.9 L-15.3 73.25 -15.75 72.65 -15.65 72.15 Q-15.4 71.6 -14.5 71.4 L-11.35 71.4 -8.3 72.85 Q-6.35 73.7 -4.0 73.7 1.95 73.7 3.5 70.5 3.95 69.6 3.95 66.65 3.95 62.25 -0.8 58.75 -2.6 57.4 -11.15 52.95 -18.3 49.25 -21.55 45.85 -26.3 40.9 -26.3 34.05 -26.3 31.05 -21.0 22.35 -16.15 14.35 -9.4 5.7 -2.45 -3.2 2.2 -7.25 5.0 -9.65 6.35 -9.65 M-26.3 96.05 L-21.85 101.05 -26.3 96.05 M-10.6 78.7 Q-6.9 82.25 -4.75 81.5 -6.9 82.25 -10.6 78.7" fill="#2e6088" fill-rule="evenodd" stroke="none"/>
    <path d="M48.55 -76.35 L48.15 -77.25 Q48.45 -122.15 22.5 -84.15 -23.15 -104.85 0.55 -84.15 -33.2 -74.05 0.55 -73.2 -10.2 -69.9 -19.4 -41.85 L-20.75 -40.8 Q-35.9 -29.15 -37.7 -16.2 -29.05 -26.85 -15.2 -33.25 L-14.9 -33.4 Q-1.75 -22.95 6.3 -9.7 L6.35 -9.65 M6.0 -47.75 Q-2.85 -51.85 -19.4 -41.85 M7.45 -7.8 L9.2 -4.55 Q24.95 -18.3 44.2 -23.1 60.85 -46.85 48.55 -76.35 M-4.75 81.5 Q1.45 78.5 5.25 75.4 20.45 62.75 -4.75 48.1 L-11.2 43.5 Q-18.5 37.5 -19.05 32.15 -14.45 23.65 -9.35 16.4 -0.8 4.1 9.2 -4.55 M-37.7 -16.2 Q-43.1 -8.3 -45.45 18.4 -56.25 45.8 -53.2 45.7 -55.45 73.1 -44.6 92.75 L-42.65 96.1 -42.6 96.15 Q-32.25 103.25 -21.85 101.05 L-26.3 96.05 M-27.05 95.1 L-28.7 92.75 Q-32.0 87.95 -34.45 82.3 M-15.75 72.65 L-15.3 73.25 -12.3 76.9 M-19.8 66.85 L-15.75 72.65 M-21.85 101.05 Q-0.7 102.15 -0.35 92.75 -0.2 88.3 -4.75 81.5 -6.9 82.25 -10.6 78.7" fill="none" stroke="#4a4f58" stroke-linecap="round" stroke-linejoin="miter-clip" stroke-miterlimit="3.0" stroke-width="1.2000000000000002"/>
  </g>
</svg>
