<?xml version="1.0" encoding="UTF-8" standalone="no"?>
<svg xmlns:xlink="http://www.w3.org/1999/xlink" height="106.0px" width="138.0px" xmlns="http://www.w3.org/2000/svg">
  <g transform="matrix(1.0, 0.0, 0.0, 1.0, -10.0, -2.0)">
    <path d="M122.0 60.0 L122.0 54.0 124.0 54.0 124.0 48.0 128.0 48.0 128.0 46.0 130.0 46.0 130.0 44.0 138.0 44.0 138.0 42.0 142.0 42.0 142.0 40.0 146.0 40.0 146.0 44.0 146.0 48.0 144.0 48.0 144.0 58.0 142.0 58.0 142.0 60.0 140.0 60.0 140.0 64.0 138.0 64.0 138.0 66.0 132.0 66.0 132.0 64.0 130.0 64.0 130.0 66.0 122.0 66.0 122.0 60.0" fill="#3f5566" fill-rule="evenodd" stroke="none"/>
    <path d="M146.0 44.0 L148.0 44.0 148.0 48.0 146.0 48.0 146.0 60.0 142.0 60.0 142.0 66.0 140.0 66.0 140.0 68.0 138.0 68.0 138.0 70.0 134.0 70.0 134.0 72.0 130.0 72.0 130.0 70.0 128.0 70.0 128.0 72.0 122.0 72.0 122.0 70.0 126.0 70.0 128.0 70.0 128.0 68.0 130.0 68.0 130.0 70.0 132.0 70.0 134.0 70.0 134.0 68.0 138.0 68.0 138.0 66.0 140.0 66.0 140.0 64.0 140.0 60.0 142.0 60.0 142.0 58.0 144.0 58.0 144.0 48.0 146.0 48.0 146.0 44.0 M120.0 72.0 L120.0 74.0 116.0 74.0 116.0 72.0 114.0 72.0 114.0 70.0 116.0 70.0 116.0 72.0 120.0 72.0 M112.0 72.0 L112.0 74.0 104.0 74.0 104.0 76.0 102.0 76.0 102.0 72.0 102.0 70.0 104.0 70.0 104.0 72.0 112.0 72.0 M104.0 78.0 L106.0 78.0 106.0 84.0 104.0 84.0 104.0 78.0 M106.0 86.0 L108.0 86.0 108.0 88.0 110.0 88.0 110.0 94.0 108.0 94.0 108.0 88.0 106.0 88.0 106.0 86.0 M108.0 96.0 L108.0 98.0 106.0 98.0 106.0 104.0 104.0 104.0 104.0 108.0 96.0 108.0 96.0 104.0 98.0 104.0 98.0 106.0 102.0 106.0 102.0 104.0 104.0 104.0 104.0 100.0 104.0 98.0 106.0 98.0 106.0 96.0 108.0 96.0 M98.0 102.0 L98.0 92.0 96.0 92.0 96.0 96.0 94.0 96.0 94.0 92.0 96.0 92.0 96.0 90.0 94.0 90.0 94.0 88.0 92.0 88.0 92.0 86.0 90.0 86.0 90.0 84.0 88.0 84.0 88.0 80.0 90.0 80.0 90.0 82.0 90.0 84.0 92.0 84.0 92.0 86.0 94.0 86.0 94.0 88.0 98.0 88.0 98.0 90.0 100.0 90.0 100.0 98.0 100.0 102.0 98.0 102.0 M92.0 100.0 L92.0 102.0 90.0 102.0 90.0 104.0 88.0 104.0 88.0 106.0 82.0 106.0 82.0 100.0 84.0 100.0 84.0 96.0 86.0 96.0 86.0 100.0 84.0 100.0 84.0 104.0 88.0 104.0 88.0 102.0 90.0 102.0 90.0 100.0 92.0 100.0 M72.0 94.0 L72.0 98.0 70.0 98.0 70.0 94.0 72.0 94.0 M70.0 100.0 L70.0 102.0 68.0 102.0 68.0 104.0 64.0 104.0 64.0 106.0 62.0 106.0 62.0 108.0 58.0 108.0 58.0 106.0 56.0 106.0 56.0 102.0 58.0 102.0 58.0 94.0 60.0 94.0 60.0 96.0 60.0 102.0 58.0 102.0 58.0 106.0 62.0 106.0 62.0 104.0 64.0 104.0 64.0 98.0 66.0 98.0 66.0 102.0 68.0 102.0 68.0 100.0 70.0 100.0 M56.0 82.0 L54.0 82.0 54.0 84.0 52.0 84.0 52.0 86.0 50.0 86.0 50.0 88.0 46.0 88.0 46.0 90.0 34.0 90.0 34.0 88.0 46.0 88.0 46.0 86.0 48.0 86.0 48.0 84.0 52.0 84.0 52.0 82.0 54.0 82.0 54.0 80.0 56.0 80.0 56.0 82.0 M42.0 74.0 L42.0 72.0 44.0 72.0 44.0 70.0 50.0 70.0 50.0 68.0 52.0 68.0 54.0 68.0 54.0 70.0 50.0 70.0 50.0 72.0 44.0 72.0 44.0 74.0 42.0 74.0 M46.0 64.0 L42.0 64.0 42.0 62.0 40.0 62.0 40.0 60.0 42.0 60.0 42.0 62.0 44.0 62.0 46.0 62.0 46.0 64.0 M38.0 60.0 L36.0 60.0 36.0 58.0 34.0 58.0 34.0 54.0 36.0 54.0 36.0 58.0 38.0 58.0 38.0 60.0 M26.0 58.0 L24.0 58.0 24.0 60.0 22.0 60.0 22.0 70.0 20.0 70.0 20.0 72.0 18.0 72.0 18.0 74.0 16.0 74.0 16.0 72.0 18.0 72.0 18.0 70.0 20.0 70.0 20.0 66.0 20.0 60.0 22.0 60.0 22.0 58.0 24.0 58.0 24.0 56.0 24.0 54.0 26.0 54.0 26.0 58.0 M16.0 76.0 L16.0 78.0 14.0 78.0 14.0 76.0 16.0 76.0 M34.0 50.0 L34.0 44.0 36.0 44.0 36.0 46.0 36.0 48.0 36.0 50.0 36.0 52.0 34.0 52.0 34.0 50.0 M32.0 42.0 L32.0 38.0 34.0 38.0 34.0 42.0 32.0 42.0 M46.0 8.0 L46.0 6.0 48.0 6.0 48.0 4.0 50.0 4.0 50.0 2.0 54.0 2.0 54.0 4.0 56.0 4.0 56.0 14.0 54.0 14.0 54.0 4.0 52.0 4.0 50.0 4.0 50.0 6.0 48.0 6.0 48.0 8.0 46.0 8.0 M54.0 16.0 L56.0 16.0 56.0 24.0 54.0 24.0 54.0 28.0 50.0 28.0 50.0 30.0 48.0 30.0 48.0 28.0 50.0 28.0 50.0 26.0 52.0 26.0 52.0 24.0 54.0 24.0 54.0 20.0 54.0 16.0 M98.0 38.0 L100.0 38.0 100.0 40.0 98.0 40.0 98.0 42.0 94.0 42.0 94.0 40.0 98.0 40.0 98.0 38.0 M90.0 42.0 L90.0 44.0 88.0 44.0 88.0 46.0 84.0 46.0 84.0 48.0 80.0 48.0 80.0 50.0 70.0 50.0 70.0 48.0 68.0 48.0 68.0 46.0 70.0 46.0 70.0 48.0 80.0 48.0 80.0 46.0 84.0 46.0 84.0 44.0 88.0 44.0 88.0 42.0 90.0 42.0 M68.0 56.0 L68.0 58.0 70.0 58.0 70.0 60.0 74.0 60.0 74.0 62.0 72.0 62.0 70.0 62.0 70.0 60.0 68.0 60.0 68.0 58.0 66.0 58.0 66.0 56.0 68.0 56.0 M102.0 68.0 L102.0 66.0 106.0 66.0 106.0 68.0 110.0 68.0 110.0 66.0 114.0 66.0 114.0 64.0 116.0 64.0 116.0 62.0 118.0 62.0 118.0 60.0 120.0 60.0 120.0 62.0 118.0 62.0 118.0 64.0 116.0 64.0 116.0 66.0 114.0 66.0 114.0 68.0 112.0 68.0 110.0 68.0 110.0 70.0 106.0 70.0 106.0 68.0 102.0 68.0 M60.0 70.0 L60.0 72.0 58.0 72.0 58.0 78.0 56.0 78.0 56.0 72.0 58.0 72.0 58.0 68.0 60.0 68.0 60.0 64.0 62.0 64.0 62.0 68.0 60.0 68.0 60.0 70.0 M52.0 50.0 L54.0 50.0 54.0 52.0 52.0 52.0 52.0 50.0 M58.0 62.0 L56.0 62.0 56.0 64.0 54.0 64.0 54.0 62.0 56.0 62.0 56.0 60.0 58.0 60.0 58.0 58.0 58.0 56.0 60.0 56.0 60.0 60.0 58.0 60.0 58.0 62.0 M48.0 54.0 L48.0 52.0 50.0 52.0 50.0 54.0 48.0 54.0 M66.0 96.0 L66.0 90.0 68.0 90.0 68.0 82.0 70.0 82.0 70.0 90.0 68.0 90.0 68.0 98.0 66.0 98.0 66.0 96.0" fill="#111111" fill-rule="evenodd" stroke="none"/>
    <path d="M52.0 66.0 L46.0 66.0 46.0 64.0 54.0 64.0 54.0 66.0 52.0 66.0 M34.0 54.0 L32.0 54.0 32.0 56.0 28.0 56.0 28.0 58.0 26.0 58.0 26.0 54.0 24.0 54.0 24.0 52.0 30.0 52.0 30.0 50.0 34.0 50.0 34.0 52.0 34.0 54.0 M16.0 58.0 L16.0 56.0 20.0 56.0 20.0 58.0 16.0 58.0 M34.0 38.0 L34.0 36.0 36.0 36.0 36.0 34.0 38.0 34.0 40.0 34.0 40.0 36.0 38.0 36.0 38.0 40.0 38.0 42.0 40.0 42.0 40.0 46.0 44.0 46.0 44.0 42.0 46.0 42.0 46.0 40.0 48.0 40.0 48.0 42.0 48.0 44.0 46.0 44.0 46.0 46.0 44.0 46.0 44.0 48.0 50.0 48.0 50.0 50.0 44.0 50.0 44.0 48.0 40.0 48.0 40.0 46.0 38.0 46.0 38.0 42.0 36.0 42.0 36.0 38.0 34.0 38.0 M66.0 36.0 L66.0 34.0 68.0 34.0 68.0 32.0 70.0 32.0 70.0 30.0 76.0 30.0 76.0 28.0 82.0 28.0 82.0 30.0 88.0 30.0 88.0 32.0 94.0 32.0 94.0 34.0 96.0 34.0 96.0 36.0 98.0 36.0 98.0 38.0 96.0 38.0 96.0 36.0 94.0 36.0 94.0 34.0 88.0 34.0 88.0 32.0 82.0 32.0 82.0 30.0 76.0 30.0 76.0 32.0 70.0 32.0 70.0 34.0 68.0 34.0 68.0 36.0 66.0 36.0 M70.0 50.0 L70.0 54.0 68.0 54.0 68.0 56.0 66.0 56.0 64.0 56.0 64.0 50.0 66.0 50.0 66.0 54.0 68.0 54.0 68.0 48.0 70.0 48.0 70.0 50.0 M72.0 38.0 L74.0 38.0 74.0 36.0 78.0 36.0 78.0 34.0 82.0 34.0 82.0 36.0 86.0 36.0 86.0 38.0 82.0 38.0 82.0 36.0 78.0 36.0 78.0 38.0 74.0 38.0 74.0 40.0 72.0 40.0 72.0 38.0 M88.0 38.0 L90.0 38.0 90.0 40.0 86.0 40.0 86.0 38.0 88.0 38.0 M70.0 40.0 L68.0 40.0 68.0 38.0 70.0 38.0 70.0 40.0 M64.0 44.0 L68.0 44.0 68.0 46.0 64.0 46.0 64.0 44.0 M48.0 20.0 L48.0 22.0 48.0 26.0 46.0 26.0 46.0 30.0 48.0 30.0 48.0 32.0 50.0 32.0 50.0 34.0 54.0 34.0 54.0 36.0 56.0 36.0 56.0 38.0 58.0 38.0 58.0 40.0 56.0 40.0 56.0 38.0 54.0 38.0 54.0 36.0 50.0 36.0 50.0 38.0 48.0 38.0 48.0 32.0 44.0 32.0 44.0 34.0 40.0 34.0 40.0 32.0 42.0 32.0 42.0 30.0 44.0 30.0 44.0 28.0 44.0 26.0 46.0 26.0 46.0 20.0 48.0 20.0 M46.0 14.0 L46.0 16.0 44.0 16.0 44.0 14.0 46.0 14.0 M44.0 16.0 L44.0 18.0 42.0 18.0 42.0 16.0 44.0 16.0 M42.0 20.0 L42.0 22.0 40.0 22.0 40.0 20.0 42.0 20.0 M60.0 42.0 L60.0 44.0 62.0 44.0 62.0 46.0 62.0 48.0 62.0 56.0 60.0 56.0 60.0 50.0 56.0 50.0 56.0 48.0 60.0 48.0 60.0 44.0 58.0 44.0 58.0 42.0 60.0 42.0 M30.0 52.0 L30.0 54.0 32.0 54.0 32.0 52.0 30.0 52.0" fill="#383951" fill-rule="evenodd" stroke="none"/>
    <path d="M40.0 60.0 L38.0 60.0 38.0 58.0 36.0 58.0 36.0 54.0 38.0 54.0 38.0 50.0 44.0 50.0 50.0 50.0 50.0 52.0 48.0 52.0 48.0 54.0 46.0 54.0 46.0 56.0 48.0 56.0 50.0 56.0 50.0 58.0 54.0 58.0 54.0 56.0 56.0 56.0 56.0 50.0 60.0 50.0 60.0 56.0 58.0 56.0 58.0 58.0 54.0 58.0 54.0 60.0 52.0 60.0 52.0 62.0 46.0 62.0 44.0 62.0 44.0 60.0 42.0 60.0 40.0 60.0 M38.0 14.0 L40.0 14.0 42.0 14.0 42.0 12.0 44.0 12.0 44.0 10.0 46.0 10.0 46.0 8.0 48.0 8.0 48.0 6.0 50.0 6.0 52.0 6.0 52.0 4.0 54.0 4.0 54.0 14.0 54.0 16.0 54.0 20.0 50.0 20.0 50.0 22.0 48.0 22.0 48.0 20.0 48.0 14.0 50.0 14.0 50.0 12.0 48.0 12.0 48.0 14.0 46.0 14.0 44.0 14.0 44.0 16.0 42.0 16.0 42.0 18.0 42.0 20.0 40.0 20.0 40.0 22.0 40.0 26.0 38.0 26.0 38.0 24.0 36.0 24.0 36.0 18.0 38.0 18.0 38.0 14.0 M120.0 60.0 L122.0 60.0 122.0 66.0 130.0 66.0 130.0 68.0 128.0 68.0 126.0 68.0 126.0 70.0 122.0 70.0 120.0 70.0 120.0 72.0 116.0 72.0 116.0 70.0 114.0 70.0 112.0 70.0 112.0 68.0 114.0 68.0 114.0 66.0 116.0 66.0 116.0 64.0 118.0 64.0 118.0 62.0 120.0 62.0 120.0 60.0 M132.0 66.0 L138.0 66.0 138.0 68.0 134.0 68.0 132.0 68.0 132.0 66.0 M94.0 34.0 L94.0 36.0 96.0 36.0 96.0 38.0 92.0 38.0 92.0 36.0 88.0 36.0 86.0 36.0 82.0 36.0 82.0 34.0 78.0 34.0 78.0 36.0 74.0 36.0 74.0 38.0 72.0 38.0 72.0 36.0 70.0 36.0 70.0 38.0 68.0 38.0 68.0 40.0 66.0 40.0 66.0 42.0 62.0 42.0 62.0 44.0 64.0 44.0 64.0 46.0 62.0 46.0 62.0 44.0 60.0 44.0 60.0 42.0 60.0 40.0 58.0 40.0 58.0 38.0 56.0 38.0 56.0 36.0 54.0 36.0 54.0 34.0 50.0 34.0 50.0 32.0 56.0 32.0 56.0 34.0 58.0 34.0 60.0 34.0 60.0 36.0 62.0 36.0 64.0 36.0 64.0 38.0 66.0 38.0 66.0 36.0 68.0 36.0 68.0 34.0 70.0 34.0 70.0 32.0 76.0 32.0 76.0 30.0 82.0 30.0 82.0 32.0 88.0 32.0 88.0 34.0 94.0 34.0 M132.0 70.0 L130.0 70.0 130.0 68.0 132.0 68.0 132.0 70.0 M38.0 58.0 L40.0 58.0 40.0 56.0 38.0 56.0 38.0 58.0" fill="#94e7ef" fill-rule="evenodd" stroke="none"/>
    <path d="M20.0 56.0 L20.0 54.0 24.0 54.0 24.0 56.0 20.0 56.0 M86.0 36.0 L88.0 36.0 88.0 38.0 86.0 38.0 86.0 40.0 86.0 42.0 80.0 42.0 80.0 44.0 76.0 44.0 76.0 42.0 80.0 42.0 80.0 40.0 74.0 40.0 74.0 38.0 78.0 38.0 78.0 36.0 82.0 36.0 82.0 38.0 86.0 38.0 86.0 36.0 M72.0 40.0 L72.0 44.0 70.0 44.0 70.0 40.0 72.0 40.0 M68.0 40.0 L68.0 42.0 66.0 42.0 66.0 40.0 68.0 40.0 M46.0 14.0 L48.0 14.0 48.0 12.0 50.0 12.0 50.0 14.0 48.0 14.0 48.0 20.0 46.0 20.0 44.0 20.0 44.0 22.0 42.0 22.0 42.0 20.0 42.0 18.0 44.0 18.0 44.0 16.0 46.0 16.0 46.0 14.0 M58.0 40.0 L60.0 40.0 60.0 42.0 58.0 42.0 56.0 42.0 56.0 40.0 58.0 40.0 M44.0 28.0 L44.0 30.0 42.0 30.0 42.0 28.0 44.0 28.0 M50.0 38.0 L50.0 40.0 48.0 40.0 46.0 40.0 46.0 38.0 48.0 38.0 50.0 38.0 M48.0 42.0 L50.0 42.0 50.0 44.0 58.0 44.0 60.0 44.0 60.0 48.0 56.0 48.0 56.0 50.0 54.0 50.0 52.0 50.0 50.0 50.0 50.0 48.0 44.0 48.0 44.0 46.0 46.0 46.0 46.0 44.0 48.0 44.0 48.0 42.0 M38.0 40.0 L42.0 40.0 42.0 42.0 44.0 42.0 44.0 46.0 40.0 46.0 40.0 42.0 38.0 42.0 38.0 40.0 M62.0 48.0 L66.0 48.0 66.0 50.0 64.0 50.0 64.0 56.0 62.0 56.0 62.0 62.0 58.0 62.0 58.0 60.0 60.0 60.0 60.0 56.0 62.0 56.0 62.0 48.0 M72.0 38.0 L70.0 38.0 70.0 36.0 72.0 36.0 72.0 38.0 M42.0 22.0 L42.0 28.0 40.0 28.0 40.0 26.0 40.0 22.0 42.0 22.0 M34.0 38.0 L36.0 38.0 36.0 42.0 38.0 42.0 38.0 46.0 40.0 46.0 40.0 48.0 38.0 48.0 38.0 46.0 36.0 46.0 36.0 44.0 36.0 42.0 34.0 42.0 34.0 38.0 M30.0 52.0 L32.0 52.0 32.0 54.0 30.0 54.0 30.0 52.0" fill="#52639c" fill-rule="evenodd" stroke="none"/>
    <path d="M92.0 42.0 L90.0 42.0 88.0 42.0 88.0 44.0 84.0 44.0 84.0 46.0 80.0 46.0 80.0 48.0 70.0 48.0 70.0 46.0 68.0 46.0 68.0 44.0 64.0 44.0 62.0 44.0 62.0 42.0 66.0 42.0 68.0 42.0 68.0 40.0 70.0 40.0 70.0 44.0 72.0 44.0 72.0 40.0 74.0 40.0 80.0 40.0 80.0 42.0 76.0 42.0 76.0 44.0 80.0 44.0 80.0 42.0 86.0 42.0 86.0 40.0 90.0 40.0 90.0 38.0 88.0 38.0 88.0 36.0 92.0 36.0 92.0 38.0 96.0 38.0 98.0 38.0 98.0 40.0 94.0 40.0 92.0 40.0 92.0 42.0" fill="#749bba" fill-rule="evenodd" stroke="none"/>
    <path d="M104.0 76.0 L104.0 78.0 102.0 78.0 102.0 76.0 104.0 76.0 M106.0 84.0 L106.0 86.0 104.0 86.0 104.0 84.0 106.0 84.0 M58.0 94.0 L58.0 82.0 56.0 82.0 56.0 80.0 56.0 78.0 58.0 78.0 58.0 82.0 60.0 82.0 60.0 94.0 58.0 94.0 M52.0 68.0 L52.0 66.0 54.0 66.0 54.0 68.0 52.0 68.0 M38.0 34.0 L38.0 32.0 36.0 32.0 36.0 26.0 34.0 26.0 34.0 18.0 36.0 18.0 36.0 14.0 38.0 14.0 38.0 18.0 36.0 18.0 36.0 24.0 38.0 24.0 38.0 26.0 38.0 32.0 40.0 32.0 40.0 34.0 38.0 34.0 M40.0 14.0 L40.0 12.0 42.0 12.0 42.0 10.0 44.0 10.0 44.0 8.0 46.0 8.0 46.0 10.0 44.0 10.0 44.0 12.0 42.0 12.0 42.0 14.0 40.0 14.0 M50.0 30.0 L58.0 30.0 58.0 32.0 62.0 32.0 62.0 34.0 64.0 34.0 64.0 36.0 66.0 36.0 66.0 38.0 64.0 38.0 64.0 36.0 62.0 36.0 62.0 34.0 60.0 34.0 58.0 34.0 58.0 32.0 56.0 32.0 50.0 32.0 48.0 32.0 48.0 30.0 50.0 30.0 M94.0 42.0 L92.0 42.0 92.0 40.0 94.0 40.0 94.0 42.0 M98.0 66.0 L100.0 66.0 100.0 68.0 102.0 68.0 102.0 70.0 100.0 70.0 100.0 68.0 98.0 68.0 98.0 66.0 M70.0 80.0 L70.0 78.0 72.0 78.0 72.0 80.0 70.0 80.0 M86.0 78.0 L86.0 76.0 88.0 76.0 88.0 80.0 86.0 80.0 86.0 78.0 M88.0 84.0 L90.0 84.0 90.0 86.0 92.0 86.0 92.0 88.0 94.0 88.0 94.0 90.0 96.0 90.0 96.0 92.0 94.0 92.0 94.0 96.0 92.0 96.0 92.0 98.0 88.0 98.0 88.0 94.0 90.0 94.0 90.0 92.0 88.0 92.0 88.0 88.0 86.0 88.0 86.0 84.0 88.0 84.0 M68.0 90.0 L70.0 90.0 70.0 82.0 72.0 82.0 72.0 90.0 70.0 90.0 70.0 94.0 70.0 98.0 68.0 98.0 68.0 90.0 M66.0 98.0 L68.0 98.0 68.0 100.0 68.0 102.0 66.0 102.0 66.0 98.0" fill="#525a84" fill-rule="evenodd" stroke="none"/>
    <path d="M122.0 72.0 L120.0 72.0 120.0 70.0 122.0 70.0 122.0 72.0 M114.0 72.0 L112.0 72.0 104.0 72.0 104.0 70.0 102.0 70.0 102.0 72.0 100.0 72.0 100.0 70.0 102.0 70.0 102.0 68.0 106.0 68.0 106.0 70.0 110.0 70.0 110.0 68.0 112.0 68.0 112.0 70.0 114.0 70.0 114.0 72.0 M130.0 66.0 L130.0 64.0 132.0 64.0 132.0 66.0 132.0 68.0 134.0 68.0 134.0 70.0 132.0 70.0 132.0 68.0 130.0 68.0 130.0 66.0 M138.0 66.0 L138.0 64.0 140.0 64.0 140.0 66.0 138.0 66.0 M68.0 46.0 L68.0 48.0 68.0 54.0 66.0 54.0 66.0 50.0 66.0 48.0 62.0 48.0 62.0 46.0 64.0 46.0 68.0 46.0 M126.0 70.0 L126.0 68.0 128.0 68.0 128.0 70.0 126.0 70.0 M88.0 68.0 L88.0 70.0 86.0 70.0 86.0 68.0 88.0 68.0 M70.0 64.0 L70.0 66.0 68.0 66.0 68.0 68.0 64.0 68.0 64.0 70.0 60.0 70.0 60.0 68.0 62.0 68.0 62.0 64.0 64.0 64.0 64.0 62.0 66.0 62.0 66.0 64.0 70.0 64.0 M58.0 78.0 L62.0 78.0 62.0 80.0 70.0 80.0 70.0 82.0 68.0 82.0 68.0 90.0 66.0 90.0 66.0 96.0 64.0 96.0 64.0 98.0 62.0 98.0 62.0 96.0 60.0 96.0 60.0 94.0 60.0 82.0 58.0 82.0 58.0 78.0 M70.0 78.0 L70.0 76.0 72.0 76.0 72.0 78.0 70.0 78.0 M80.0 80.0 L84.0 80.0 84.0 78.0 86.0 78.0 86.0 80.0 86.0 82.0 80.0 82.0 80.0 80.0 M90.0 82.0 L100.0 82.0 100.0 80.0 102.0 80.0 102.0 78.0 104.0 78.0 104.0 84.0 104.0 86.0 106.0 86.0 106.0 88.0 108.0 88.0 108.0 94.0 106.0 94.0 106.0 96.0 106.0 98.0 104.0 98.0 104.0 100.0 102.0 100.0 102.0 98.0 100.0 98.0 100.0 90.0 98.0 90.0 98.0 88.0 94.0 88.0 94.0 86.0 92.0 86.0 92.0 84.0 90.0 84.0 90.0 82.0 M52.0 4.0 L52.0 6.0 50.0 6.0 50.0 4.0 52.0 4.0 M48.0 22.0 L50.0 22.0 50.0 20.0 54.0 20.0 54.0 24.0 52.0 24.0 52.0 26.0 50.0 26.0 50.0 28.0 48.0 28.0 48.0 30.0 46.0 30.0 46.0 26.0 48.0 26.0 48.0 22.0 M58.0 32.0 L58.0 34.0 56.0 34.0 56.0 32.0 58.0 32.0 M60.0 34.0 L62.0 34.0 62.0 36.0 60.0 36.0 60.0 34.0 M42.0 30.0 L42.0 32.0 40.0 32.0 38.0 32.0 38.0 26.0 40.0 26.0 40.0 28.0 42.0 28.0 42.0 30.0 M50.0 50.0 L52.0 50.0 52.0 52.0 50.0 52.0 50.0 50.0 M40.0 48.0 L44.0 48.0 44.0 50.0 38.0 50.0 38.0 48.0 40.0 48.0 M36.0 52.0 L36.0 54.0 34.0 54.0 34.0 52.0 36.0 52.0 M66.0 58.0 L64.0 58.0 64.0 56.0 66.0 56.0 66.0 58.0 M46.0 62.0 L52.0 62.0 52.0 60.0 54.0 60.0 54.0 58.0 58.0 58.0 58.0 60.0 56.0 60.0 56.0 62.0 54.0 62.0 54.0 64.0 46.0 64.0 46.0 62.0 M48.0 56.0 L46.0 56.0 46.0 54.0 48.0 54.0 48.0 56.0 M42.0 60.0 L44.0 60.0 44.0 62.0 42.0 62.0 42.0 60.0" fill="#7b9bb4" fill-rule="evenodd" stroke="none"/>
    <path d="M102.0 72.0 L102.0 76.0 102.0 78.0 102.0 80.0 100.0 80.0 100.0 82.0 90.0 82.0 90.0 80.0 88.0 80.0 88.0 76.0 86.0 76.0 86.0 78.0 84.0 78.0 84.0 80.0 80.0 80.0 72.0 80.0 72.0 78.0 72.0 76.0 70.0 76.0 70.0 78.0 70.0 80.0 62.0 80.0 62.0 78.0 58.0 78.0 58.0 72.0 60.0 72.0 60.0 70.0 64.0 70.0 64.0 68.0 68.0 68.0 68.0 66.0 70.0 66.0 70.0 64.0 70.0 62.0 72.0 62.0 72.0 64.0 74.0 64.0 74.0 66.0 76.0 66.0 76.0 68.0 80.0 68.0 80.0 70.0 86.0 70.0 88.0 70.0 88.0 68.0 92.0 68.0 92.0 66.0 98.0 66.0 98.0 68.0 100.0 68.0 100.0 70.0 100.0 72.0 102.0 72.0" fill="#94e5ed" fill-rule="evenodd" stroke="none"/>
    <path d="M74.0 62.0 L78.0 62.0 78.0 64.0 98.0 64.0 98.0 66.0 92.0 66.0 92.0 68.0 88.0 68.0 86.0 68.0 86.0 70.0 80.0 70.0 80.0 68.0 76.0 68.0 76.0 66.0 74.0 66.0 74.0 64.0 72.0 64.0 72.0 62.0 74.0 62.0" fill="#3d4e61" fill-rule="evenodd" stroke="none"/>
    <path d="M94.0 96.0 L94.0 100.0 92.0 100.0 90.0 100.0 90.0 102.0 88.0 102.0 88.0 104.0 84.0 104.0 84.0 100.0 86.0 100.0 86.0 96.0 86.0 94.0 88.0 94.0 88.0 92.0 86.0 92.0 86.0 88.0 84.0 88.0 84.0 84.0 80.0 84.0 80.0 82.0 74.0 82.0 74.0 90.0 72.0 90.0 72.0 94.0 70.0 94.0 70.0 90.0 72.0 90.0 72.0 82.0 70.0 82.0 70.0 80.0 72.0 80.0 80.0 80.0 80.0 82.0 86.0 82.0 86.0 80.0 88.0 80.0 88.0 84.0 86.0 84.0 86.0 88.0 88.0 88.0 88.0 92.0 90.0 92.0 90.0 94.0 88.0 94.0 88.0 98.0 92.0 98.0 92.0 96.0 94.0 96.0 M70.0 98.0 L70.0 100.0 68.0 100.0 68.0 98.0 70.0 98.0 M34.0 44.0 L32.0 44.0 32.0 42.0 34.0 42.0 36.0 42.0 36.0 44.0 34.0 44.0 M36.0 46.0 L38.0 46.0 38.0 48.0 36.0 48.0 36.0 46.0 M36.0 54.0 L36.0 52.0 36.0 50.0 38.0 50.0 38.0 54.0 36.0 54.0" fill="#313949" fill-rule="evenodd" stroke="none"/>
    <path d="M108.0 94.0 L108.0 96.0 106.0 96.0 106.0 94.0 108.0 94.0 M38.0 58.0 L38.0 56.0 40.0 56.0 40.0 58.0 38.0 58.0 M60.0 96.0 L62.0 96.0 62.0 98.0 64.0 98.0 64.0 96.0 66.0 96.0 66.0 98.0 64.0 98.0 64.0 104.0 62.0 104.0 62.0 106.0 58.0 106.0 58.0 102.0 60.0 102.0 60.0 96.0" fill="#425a6b" fill-rule="evenodd" stroke="none"/>
    <path d="M96.0 104.0 L96.0 102.0 98.0 102.0 100.0 102.0 100.0 98.0 102.0 98.0 102.0 100.0 104.0 100.0 104.0 104.0 102.0 104.0 102.0 106.0 98.0 106.0 98.0 104.0 96.0 104.0" fill="#3e5263" fill-rule="evenodd" stroke="none"/>
    <path d="M42.0 22.0 L44.0 22.0 44.0 20.0 46.0 20.0 46.0 26.0 44.0 26.0 44.0 28.0 42.0 28.0 42.0 22.0 M40.0 34.0 L44.0 34.0 44.0 32.0 48.0 32.0 48.0 38.0 46.0 38.0 46.0 40.0 46.0 42.0 44.0 42.0 42.0 42.0 42.0 40.0 38.0 40.0 38.0 36.0 40.0 36.0 40.0 34.0 M48.0 40.0 L50.0 40.0 50.0 38.0 50.0 36.0 54.0 36.0 54.0 38.0 56.0 38.0 56.0 40.0 56.0 42.0 58.0 42.0 58.0 44.0 50.0 44.0 50.0 42.0 48.0 42.0 48.0 40.0 M70.0 40.0 L70.0 38.0 72.0 38.0 72.0 40.0 70.0 40.0 M24.0 58.0 L22.0 58.0 22.0 60.0 20.0 60.0 20.0 66.0 18.0 66.0 18.0 60.0 16.0 60.0 16.0 58.0 20.0 58.0 20.0 56.0 24.0 56.0 24.0 58.0 M42.0 74.0 L44.0 74.0 44.0 76.0 42.0 76.0 42.0 74.0" fill="#529cde" fill-rule="evenodd" stroke="none"/>
    <path d="M50.0 52.0 L52.0 52.0 52.0 54.0 50.0 54.0 50.0 52.0 M36.0 48.0 L38.0 48.0 38.0 50.0 36.0 50.0 36.0 48.0" fill="#ebfafe" fill-rule="evenodd" stroke="none"/>
    <path d="M16.0 74.0 L16.0 76.0 14.0 76.0 10.0 76.0 10.0 68.0 12.0 68.0 12.0 66.0 10.0 66.0 10.0 62.0 12.0 62.0 12.0 60.0 14.0 60.0 14.0 58.0 16.0 58.0 16.0 60.0 18.0 60.0 18.0 66.0 20.0 66.0 20.0 70.0 18.0 70.0 18.0 72.0 16.0 72.0 16.0 74.0" fill="#3d5061" fill-rule="evenodd" stroke="none"/>
    <path d="M34.0 90.0 L32.0 90.0 32.0 82.0 34.0 82.0 34.0 78.0 36.0 78.0 36.0 74.0 42.0 74.0 42.0 76.0 44.0 76.0 44.0 74.0 50.0 74.0 50.0 76.0 52.0 76.0 52.0 78.0 50.0 78.0 50.0 82.0 48.0 82.0 48.0 84.0 48.0 86.0 46.0 86.0 46.0 88.0 34.0 88.0 34.0 90.0" fill="#405466" fill-rule="evenodd" stroke="none"/>
    <path d="M70.0 62.0 L70.0 64.0 66.0 64.0 66.0 62.0 64.0 62.0 64.0 64.0 62.0 64.0 62.0 62.0 62.0 56.0 64.0 56.0 64.0 58.0 66.0 58.0 68.0 58.0 68.0 60.0 70.0 60.0 70.0 62.0" fill="#3e4e61" fill-rule="evenodd" stroke="none"/>
    <path d="M62.0 62.0 L62.0 64.0 60.0 64.0 60.0 68.0 58.0 68.0 58.0 72.0 56.0 72.0 56.0 78.0 56.0 80.0 54.0 80.0 54.0 82.0 52.0 82.0 52.0 84.0 48.0 84.0 48.0 82.0 50.0 82.0 50.0 78.0 52.0 78.0 52.0 76.0 50.0 76.0 50.0 74.0 44.0 74.0 44.0 72.0 50.0 72.0 50.0 70.0 54.0 70.0 54.0 68.0 54.0 66.0 54.0 64.0 56.0 64.0 56.0 62.0 58.0 62.0 62.0 62.0" fill="#539bdc" fill-rule="evenodd" stroke="none"/>
    <path d="M54.0 50.0 L56.0 50.0 56.0 56.0 54.0 56.0 54.0 58.0 50.0 58.0 50.0 56.0 48.0 56.0 48.0 54.0 50.0 54.0 52.0 54.0 52.0 52.0 54.0 52.0 54.0 50.0" fill="#3b4b5c" fill-rule="evenodd" stroke="none"/>
  </g>
</svg>
