<?xml version="1.0" encoding="UTF-8" standalone="no"?>
<svg xmlns:xlink="http://www.w3.org/1999/xlink" height="113.6px" width="99.15px" xmlns="http://www.w3.org/2000/svg">
  <g transform="matrix(1.0, 0.0, 0.0, 1.0, -25.05, 2.1)">
    <path d="M49.85 -0.05 L45.7 -0.05 45.7 -2.1 49.85 -2.1 49.85 -0.05 M45.7 -0.05 L45.7 2.05 45.7 6.15 43.65 6.15 43.65 -0.05 45.7 -0.05 M72.55 20.6 L72.55 16.5 74.6 16.5 74.6 12.35 76.7 12.35 76.7 10.3 78.75 10.3 78.75 8.25 80.8 8.25 80.8 6.15 82.9 6.15 82.9 4.1 84.95 4.1 84.95 2.05 89.1 2.05 89.1 4.1 84.95 4.1 84.95 6.15 82.9 6.15 82.9 8.25 80.8 8.25 80.8 10.3 78.75 10.3 78.75 12.35 76.7 12.35 76.7 16.5 74.6 16.5 74.6 20.6 72.55 20.6 M115.95 47.45 L118.0 47.45 118.0 51.6 115.95 51.6 115.95 47.45 M115.95 55.7 L115.95 57.8 113.85 57.8 109.75 57.8 109.75 59.85 107.65 59.85 107.65 57.8 109.75 57.8 109.75 55.7 115.95 55.7 M58.1 109.4 L56.05 109.4 56.05 107.35 56.05 103.2 58.1 103.2 58.1 105.3 58.1 109.4 M49.85 107.35 L47.8 107.35 47.8 103.2 49.85 103.2 49.85 97.05 51.9 97.05 51.9 103.2 49.85 103.2 49.85 107.35 M43.65 37.15 L41.6 37.15 41.6 35.05 43.65 35.05 43.65 33.0 45.7 33.0 45.7 35.05 43.65 35.05 43.65 37.15 M43.65 18.55 L43.65 16.5 41.6 16.5 41.6 6.15 43.65 6.15 43.65 16.5 45.7 16.5 45.7 18.55 45.7 20.6 43.65 20.6 43.65 18.55 M87.0 18.55 L87.0 20.6 82.9 20.6 82.9 18.55 84.95 18.55 87.0 18.55 M109.75 43.35 L109.75 51.6 107.65 51.6 107.65 55.7 105.6 55.7 105.6 59.85 103.55 59.85 103.55 55.7 105.6 55.7 105.6 51.6 107.65 51.6 107.65 43.35 109.75 43.35 M101.45 59.85 L103.55 59.85 103.55 61.9 101.45 61.9 101.45 64.0 99.4 64.0 99.4 61.9 101.45 61.9 101.45 59.85 M84.95 101.15 L87.0 101.15 87.0 103.2 84.95 103.2 84.95 101.15 M49.85 30.95 L47.8 30.95 47.8 28.9 45.7 28.9 45.7 26.8 45.7 24.75 47.8 24.75 47.8 26.8 47.8 28.9 49.85 28.9 49.85 30.95 M60.15 99.1 L60.15 101.15 58.1 101.15 58.1 99.1 60.15 99.1 M60.15 109.4 L60.15 107.35 62.25 107.35 62.25 109.4 60.15 109.4 M53.95 107.35 L51.9 107.35 51.9 105.3 53.95 105.3 53.95 107.35 M97.35 107.35 L97.35 105.3 99.4 105.3 99.4 107.35 97.35 107.35" fill="#8b3941" fill-rule="evenodd" stroke="none"/>
    <path d="M49.85 4.1 L49.85 -0.05 51.9 -0.05 51.9 4.1 53.95 4.1 53.95 8.25 56.05 8.25 56.05 14.4 58.1 14.4 58.1 22.7 58.1 26.8 56.05 26.8 56.05 14.4 53.95 14.4 53.95 8.25 51.9 8.25 51.9 4.1 49.85 4.1 M89.1 4.1 L91.15 4.1 91.15 14.4 89.1 14.4 89.1 8.25 89.1 4.1 M107.65 82.55 L107.65 84.65 105.6 84.65 105.6 82.55 107.65 82.55 M107.65 94.95 L107.65 99.1 105.6 99.1 105.6 103.2 103.55 103.2 103.55 107.35 101.45 107.35 101.45 109.4 93.2 109.4 93.2 103.2 95.3 103.2 95.3 101.15 97.35 101.15 97.35 97.05 99.4 97.05 99.4 101.15 97.35 101.15 97.35 103.2 95.3 103.2 95.3 107.35 97.35 107.35 99.4 107.35 101.45 107.35 101.45 103.2 103.55 103.2 103.55 99.1 105.6 99.1 105.6 94.95 107.65 94.95 M53.95 28.9 L53.95 26.8 56.05 26.8 56.05 28.9 53.95 28.9" fill="#000000" fill-rule="evenodd" stroke="none"/>
    <path d="M45.7 -0.05 L49.85 -0.05 49.85 4.1 47.8 4.1 47.8 2.05 45.7 2.05 45.7 -0.05 M43.65 33.0 L41.6 33.0 41.6 30.95 43.65 30.95 45.7 30.95 45.7 33.0 47.8 33.0 47.8 35.05 45.7 35.05 45.7 37.15 47.8 37.15 47.8 39.2 49.85 39.2 49.85 43.35 51.9 43.35 51.9 41.25 53.95 41.25 53.95 39.2 56.05 39.2 56.05 37.15 60.15 37.15 60.15 35.05 62.25 35.05 64.3 35.05 70.5 35.05 70.5 37.15 72.55 37.15 72.55 41.25 70.5 41.25 70.5 39.2 66.35 39.2 66.35 37.15 60.15 37.15 60.15 39.2 56.05 39.2 56.05 41.25 53.95 41.25 53.95 43.35 51.9 43.35 51.9 45.4 49.85 45.4 49.85 43.35 47.8 43.35 47.8 41.25 47.8 39.2 45.7 39.2 45.7 37.15 43.65 37.15 43.65 35.05 45.7 35.05 45.7 33.0 43.65 33.0 M113.85 47.45 L115.95 47.45 115.95 51.6 115.95 55.7 109.75 55.7 109.75 57.8 107.65 57.8 107.65 55.7 109.75 55.7 109.75 53.65 111.8 53.65 111.8 51.6 113.85 51.6 113.85 47.45 M89.1 8.25 L89.1 14.4 87.0 14.4 87.0 18.55 84.95 18.55 84.95 12.35 87.0 12.35 87.0 8.25 89.1 8.25 M87.0 20.6 L87.0 22.7 82.9 22.7 82.9 20.6 87.0 20.6 M105.6 59.85 L105.6 61.9 107.65 61.9 107.65 64.0 105.6 64.0 105.6 66.05 101.45 66.05 99.4 66.05 99.4 64.0 101.45 64.0 101.45 61.9 103.55 61.9 103.55 59.85 105.6 59.85 M101.45 94.95 L103.55 94.95 103.55 92.9 107.65 92.9 107.65 94.95 105.6 94.95 105.6 99.1 103.55 99.1 103.55 103.2 101.45 103.2 101.45 107.35 99.4 107.35 99.4 105.3 97.35 105.3 97.35 107.35 95.3 107.35 95.3 103.2 97.35 103.2 97.35 101.15 99.4 101.15 99.4 97.05 101.45 97.05 101.45 94.95 M89.1 92.9 L91.15 92.9 91.15 90.85 95.3 90.85 95.3 92.9 93.2 92.9 93.2 97.05 91.15 97.05 91.15 101.15 89.1 101.15 89.1 103.2 87.0 103.2 87.0 101.15 84.95 101.15 84.95 99.1 87.0 99.1 87.0 97.05 87.0 94.95 89.1 94.95 89.1 92.9 M68.45 26.8 L70.5 26.8 70.5 28.9 74.6 28.9 74.6 30.95 72.55 30.95 72.55 33.0 70.5 33.0 70.5 30.95 68.45 30.95 68.45 26.8 M51.9 4.1 L51.9 8.25 53.95 8.25 53.95 14.4 56.05 14.4 56.05 26.8 53.95 26.8 53.95 16.5 51.9 16.5 51.9 10.3 49.85 10.3 49.85 4.1 51.9 4.1 M51.9 28.9 L53.95 28.9 53.95 30.95 51.9 30.95 51.9 28.9 M49.85 30.95 L51.9 30.95 51.9 33.0 47.8 33.0 47.8 30.95 49.85 30.95 M45.7 28.9 L47.8 28.9 47.8 30.95 45.7 30.95 45.7 28.9 M74.6 45.4 L72.55 45.4 72.55 41.25 74.6 41.25 74.6 45.4 M49.85 59.85 L51.9 59.85 51.9 61.9 56.05 61.9 56.05 64.0 53.95 64.0 51.9 64.0 49.85 64.0 49.85 59.85 M62.25 107.35 L62.25 105.3 64.3 105.3 64.3 94.95 66.35 94.95 66.35 92.9 68.45 92.9 70.5 92.9 70.5 94.95 68.45 94.95 68.45 99.1 66.35 99.1 66.35 105.3 64.3 105.3 64.3 109.4 62.25 109.4 62.25 107.35 M56.05 97.05 L60.15 97.05 60.15 99.1 58.1 99.1 58.1 101.15 58.1 103.2 56.05 103.2 56.05 107.35 53.95 107.35 53.95 105.3 53.95 99.1 56.05 99.1 56.05 97.05" fill="#de83a4" fill-rule="evenodd" stroke="none"/>
    <path d="M87.0 22.7 L87.0 28.9 84.95 28.9 84.95 24.75 80.8 24.75 80.8 22.7 82.9 22.7 87.0 22.7 M84.95 30.95 L84.95 33.0 82.9 33.0 82.9 35.05 80.8 35.05 80.8 33.0 82.9 33.0 82.9 30.95 84.95 30.95 M105.6 35.05 L109.75 35.05 109.75 37.15 105.6 37.15 105.6 35.05 M115.95 30.95 L118.0 30.95 118.0 33.0 115.95 33.0 115.95 30.95 M120.05 28.9 L122.1 28.9 122.1 30.95 124.2 30.95 124.2 35.05 122.1 35.05 122.1 37.15 120.05 37.15 120.05 39.2 115.95 39.2 115.95 47.45 113.85 47.45 113.85 41.25 111.8 41.25 111.8 39.2 115.95 39.2 115.95 37.15 118.0 37.15 120.05 37.15 120.05 35.05 122.1 35.05 122.1 33.0 122.1 30.95 120.05 30.95 120.05 28.9 M118.0 51.6 L118.0 55.7 115.95 55.7 115.95 51.6 118.0 51.6 M115.95 57.8 L115.95 59.85 113.85 59.85 113.85 61.9 111.8 61.9 111.8 64.0 109.75 64.0 109.75 66.05 105.6 66.05 105.6 68.1 103.55 68.1 101.45 68.1 101.45 66.05 105.6 66.05 105.6 64.0 107.65 64.0 109.75 64.0 109.75 61.9 111.8 61.9 111.8 59.85 113.85 59.85 113.85 57.8 115.95 57.8 M105.6 76.4 L105.6 80.5 103.55 80.5 103.55 76.4 105.6 76.4 M97.35 88.75 L97.35 92.9 95.3 92.9 95.3 97.05 93.2 97.05 93.2 101.15 91.15 101.15 91.15 103.2 89.1 103.2 89.1 105.3 82.9 105.3 82.9 99.1 84.95 99.1 84.95 97.05 87.0 97.05 87.0 99.1 84.95 99.1 84.95 101.15 84.95 103.2 87.0 103.2 89.1 103.2 89.1 101.15 91.15 101.15 91.15 97.05 93.2 97.05 93.2 92.9 95.3 92.9 95.3 90.85 95.3 86.7 97.35 86.7 97.35 88.75 M82.9 82.55 L76.7 82.55 76.7 80.5 82.9 80.5 87.0 80.5 87.0 82.55 84.95 82.55 82.9 82.55 M74.6 82.55 L74.6 86.7 72.55 86.7 72.55 94.95 70.5 94.95 70.5 99.1 68.45 99.1 68.45 105.3 66.35 105.3 66.35 109.4 64.3 109.4 64.3 111.5 58.1 111.5 58.1 109.4 60.15 109.4 62.25 109.4 64.3 109.4 64.3 105.3 66.35 105.3 66.35 99.1 68.45 99.1 68.45 94.95 70.5 94.95 70.5 92.9 70.5 90.85 70.5 86.7 72.55 86.7 72.55 84.65 72.55 82.55 74.6 82.55 M56.05 109.4 L49.85 109.4 49.85 107.35 51.9 107.35 53.95 107.35 56.05 107.35 56.05 109.4 M51.9 88.75 L47.8 88.75 47.8 86.7 43.65 86.7 43.65 84.65 41.6 84.65 41.6 82.55 39.5 82.55 39.5 80.5 41.6 80.5 41.6 82.55 43.65 82.55 43.65 84.65 47.8 84.65 47.8 86.7 51.9 86.7 51.9 88.75 M43.65 68.1 L43.65 66.05 45.7 66.05 45.7 68.1 43.65 68.1 M43.65 55.7 L43.65 53.65 41.6 53.65 41.6 51.6 43.65 51.6 43.65 53.65 45.7 53.65 45.7 55.7 43.65 55.7 M41.6 33.0 L39.5 33.0 39.5 35.05 35.4 35.05 35.4 37.15 29.2 37.15 29.2 35.05 35.4 35.05 35.4 33.0 39.5 33.0 39.5 30.95 41.6 30.95 41.6 33.0 M27.15 33.0 L25.05 33.0 25.05 28.9 27.15 28.9 27.15 33.0 M84.95 39.2 L87.0 39.2 87.0 41.25 95.3 41.25 95.3 43.35 105.6 43.35 105.6 41.25 111.8 41.25 111.8 43.35 109.75 43.35 107.65 43.35 105.6 43.35 105.6 45.4 95.3 45.4 95.3 43.35 87.0 43.35 87.0 41.25 84.95 41.25 84.95 39.2 M78.75 41.25 L78.75 43.35 76.7 43.35 76.7 49.55 74.6 49.55 74.6 53.65 72.55 53.65 72.55 55.7 70.5 55.7 70.5 61.9 74.6 61.9 74.6 64.0 72.55 64.0 70.5 64.0 70.5 61.9 68.45 61.9 68.45 57.8 68.45 55.7 70.5 55.7 70.5 53.65 72.55 53.65 72.55 49.55 74.6 49.55 74.6 45.4 74.6 41.25 72.55 41.25 72.55 37.15 70.5 37.15 70.5 35.05 64.3 35.05 64.3 33.0 66.35 33.0 68.45 33.0 70.5 33.0 70.5 35.05 72.55 35.05 72.55 37.15 74.6 37.15 78.75 37.15 78.75 35.05 80.8 35.05 80.8 37.15 78.75 37.15 78.75 39.2 76.7 39.2 74.6 39.2 74.6 41.25 76.7 41.25 78.75 41.25 M95.3 53.65 L97.35 53.65 97.35 55.7 99.4 55.7 99.4 57.8 101.45 57.8 101.45 59.85 101.45 61.9 99.4 61.9 99.4 57.8 97.35 57.8 97.35 55.7 95.3 55.7 95.3 53.65 M68.45 68.1 L68.45 70.2 76.7 70.2 76.7 68.1 80.8 68.1 80.8 66.05 82.9 66.05 82.9 64.0 84.95 64.0 84.95 61.9 87.0 61.9 87.0 59.85 89.1 59.85 89.1 57.8 91.15 57.8 91.15 55.7 93.2 55.7 93.2 57.8 91.15 57.8 91.15 59.85 89.1 59.85 89.1 61.9 87.0 61.9 87.0 64.0 84.95 64.0 84.95 66.05 82.9 66.05 82.9 68.1 80.8 68.1 80.8 70.2 76.7 70.2 76.7 72.25 68.45 72.25 68.45 70.2 64.3 70.2 64.3 68.1 68.45 68.1 M93.2 59.85 L93.2 57.8 95.3 57.8 95.3 59.85 97.35 59.85 97.35 61.9 95.3 61.9 95.3 59.85 93.2 59.85 M91.15 82.55 L93.2 82.55 93.2 84.65 91.15 84.65 91.15 82.55 M37.45 26.8 L43.65 26.8 43.65 24.75 45.7 24.75 45.7 26.8 43.65 26.8 43.65 28.9 37.45 28.9 37.45 30.95 35.4 30.95 35.4 28.9 37.45 28.9 37.45 26.8 M45.7 28.9 L45.7 30.95 43.65 30.95 43.65 28.9 45.7 28.9 M47.8 55.7 L49.85 55.7 49.85 57.8 51.9 57.8 51.9 59.85 49.85 59.85 49.85 57.8 47.8 57.8 47.8 55.7 M43.65 76.4 L43.65 72.25 45.7 72.25 45.7 70.2 47.8 70.2 47.8 72.25 45.7 72.25 45.7 78.45 43.65 78.45 43.65 76.4 M62.25 64.0 L64.3 64.0 64.3 66.05 64.3 68.1 60.15 68.1 60.15 66.05 62.25 66.05 62.25 64.0 M49.85 68.1 L51.9 68.1 51.9 66.05 53.95 66.05 56.05 66.05 56.05 68.1 51.9 68.1 51.9 70.2 49.85 70.2 49.85 68.1 M49.85 80.5 L51.9 80.5 51.9 82.55 47.8 82.55 47.8 80.5 49.85 80.5 M60.15 68.1 L60.15 70.2 56.05 70.2 56.05 68.1 60.15 68.1 M62.25 97.05 L62.25 99.1 60.15 99.1 60.15 97.05 56.05 97.05 56.05 94.95 53.95 94.95 53.95 92.9 56.05 92.9 56.05 94.95 60.15 94.95 60.15 97.05 62.25 97.05 M60.15 101.15 L60.15 105.3 58.1 105.3 58.1 103.2 58.1 101.15 60.15 101.15 M62.25 86.7 L62.25 88.75 60.15 88.75 60.15 86.7 62.25 86.7" fill="#101010" fill-rule="evenodd" stroke="none"/>
    <path d="M109.75 35.05 L109.75 33.0 113.85 33.0 113.85 30.95 115.95 30.95 115.95 33.0 113.85 33.0 113.85 35.05 109.75 35.05 M118.0 30.95 L118.0 28.9 120.05 28.9 120.05 30.95 118.0 30.95 M37.45 20.6 L37.45 18.55 43.65 18.55 43.65 20.6 45.7 20.6 45.7 24.75 43.65 24.75 41.6 24.75 41.6 22.7 43.65 22.7 43.65 20.6 37.45 20.6 M122.1 30.95 L122.1 33.0 120.05 33.0 120.05 30.95 122.1 30.95 M120.05 35.05 L120.05 37.15 118.0 37.15 118.0 35.05 120.05 35.05 M47.8 41.25 L47.8 43.35 45.7 43.35 45.7 41.25 47.8 41.25 M60.15 45.4 L60.15 47.45 58.1 47.45 58.1 45.4 60.15 45.4 M60.15 49.55 L64.3 49.55 64.3 47.45 66.35 47.45 66.35 45.4 64.3 45.4 64.3 43.35 66.35 43.35 66.35 45.4 68.45 45.4 68.45 49.55 64.3 49.55 64.3 51.6 60.15 51.6 60.15 49.55 M53.95 88.75 L56.05 88.75 56.05 86.7 60.15 86.7 60.15 88.75 56.05 88.75 56.05 90.85 58.1 90.85 58.1 92.9 56.05 92.9 53.95 92.9 53.95 88.75" fill="#7b9cb4" fill-rule="evenodd" stroke="none"/>
    <path d="M122.1 33.0 L122.1 35.05 120.05 35.05 118.0 35.05 118.0 37.15 115.95 37.15 113.85 37.15 113.85 35.05 113.85 33.0 115.95 33.0 118.0 33.0 118.0 30.95 120.05 30.95 120.05 33.0 122.1 33.0 M37.45 20.6 L43.65 20.6 43.65 22.7 41.6 22.7 41.6 24.75 43.65 24.75 43.65 26.8 37.45 26.8 35.4 26.8 35.4 24.75 33.3 24.75 33.3 22.7 37.45 22.7 37.45 20.6 M43.65 47.45 L43.65 45.4 45.7 45.4 45.7 47.45 43.65 47.45 M60.15 47.45 L62.25 47.45 62.25 43.35 64.3 43.35 64.3 45.4 66.35 45.4 66.35 47.45 64.3 47.45 64.3 49.55 60.15 49.55 58.1 49.55 58.1 47.45 60.15 47.45 M62.25 88.75 L62.25 92.9 60.15 92.9 60.15 94.95 56.05 94.95 56.05 92.9 58.1 92.9 58.1 90.85 56.05 90.85 56.05 88.75 60.15 88.75 62.25 88.75" fill="#94e6ee" fill-rule="evenodd" stroke="none"/>
    <path d="M45.7 2.05 L47.8 2.05 47.8 4.1 49.85 4.1 49.85 10.3 51.9 10.3 51.9 16.5 53.95 16.5 53.95 26.8 53.95 28.9 51.9 28.9 51.9 18.55 49.85 18.55 49.85 14.4 47.8 14.4 47.8 12.35 45.7 12.35 45.7 14.4 45.7 16.5 43.65 16.5 43.65 6.15 45.7 6.15 45.7 2.05 M111.8 41.25 L113.85 41.25 113.85 47.45 113.85 51.6 111.8 51.6 111.8 53.65 109.75 53.65 109.75 55.7 107.65 55.7 107.65 51.6 109.75 51.6 109.75 43.35 111.8 43.35 111.8 41.25 M82.9 6.15 L84.95 6.15 84.95 4.1 89.1 4.1 89.1 8.25 87.0 8.25 87.0 12.35 84.95 12.35 84.95 18.55 82.9 18.55 82.9 20.6 82.9 22.7 80.8 22.7 80.8 18.55 80.8 16.5 78.75 16.5 78.75 18.55 76.7 18.55 76.7 20.6 74.6 20.6 74.6 16.5 76.7 16.5 76.7 12.35 78.75 12.35 78.75 10.3 80.8 10.3 80.8 8.25 82.9 8.25 82.9 6.15 M113.85 57.8 L113.85 59.85 111.8 59.85 111.8 61.9 109.75 61.9 109.75 64.0 107.65 64.0 107.65 61.9 105.6 61.9 105.6 59.85 105.6 55.7 107.65 55.7 107.65 57.8 107.65 59.85 109.75 59.85 109.75 57.8 113.85 57.8 M66.35 22.7 L68.45 22.7 68.45 26.8 68.45 30.95 68.45 33.0 66.35 33.0 66.35 30.95 64.3 30.95 64.3 24.75 66.35 24.75 66.35 22.7 M72.55 24.75 L72.55 20.6 74.6 20.6 74.6 24.75 72.55 24.75 M45.7 18.55 L47.8 18.55 47.8 24.75 45.7 24.75 45.7 20.6 45.7 18.55 M49.85 26.8 L49.85 28.9 51.9 28.9 51.9 30.95 53.95 30.95 60.15 30.95 60.15 33.0 62.25 33.0 62.25 35.05 60.15 35.05 60.15 37.15 56.05 37.15 56.05 39.2 53.95 39.2 53.95 41.25 51.9 41.25 51.9 43.35 49.85 43.35 49.85 39.2 47.8 39.2 47.8 37.15 45.7 37.15 45.7 35.05 47.8 35.05 47.8 33.0 45.7 33.0 45.7 30.95 47.8 30.95 47.8 33.0 51.9 33.0 51.9 30.95 49.85 30.95 49.85 28.9 47.8 28.9 47.8 26.8 49.85 26.8 M31.25 30.95 L29.2 30.95 29.2 28.9 27.15 28.9 27.15 26.8 29.2 26.8 29.2 24.75 31.25 24.75 31.25 26.8 33.3 26.8 33.3 28.9 33.3 30.95 31.25 30.95 M47.8 57.8 L49.85 57.8 49.85 59.85 49.85 64.0 47.8 64.0 47.8 57.8 M51.9 66.05 L49.85 66.05 49.85 64.0 51.9 64.0 51.9 66.05 M51.9 97.05 L53.95 97.05 53.95 94.95 56.05 94.95 56.05 97.05 56.05 99.1 53.95 99.1 53.95 105.3 51.9 105.3 51.9 107.35 49.85 107.35 49.85 103.2 51.9 103.2 51.9 97.05" fill="#ffacc5" fill-rule="evenodd" stroke="none"/>
    <path d="M89.1 14.4 L89.1 22.7 87.0 22.7 87.0 20.6 87.0 18.55 87.0 14.4 89.1 14.4" fill="#040404" fill-rule="evenodd" stroke="none"/>
    <path d="M80.8 24.75 L84.95 24.75 84.95 28.9 82.9 28.9 82.9 30.95 82.9 33.0 80.8 33.0 80.8 35.05 78.75 35.05 78.75 37.15 74.6 37.15 74.6 33.0 76.7 33.0 76.7 30.95 78.75 30.95 78.75 24.75 80.8 24.75" fill="#ffecf0" fill-rule="evenodd" stroke="none"/>
    <path d="M60.15 22.7 L60.15 16.5 66.35 16.5 66.35 18.55 68.45 18.55 68.45 22.7 66.35 22.7 66.35 18.55 62.25 18.55 62.25 22.7 60.15 22.7 M84.95 28.9 L84.95 30.95 82.9 30.95 82.9 28.9 84.95 28.9 M84.95 33.0 L87.0 33.0 87.0 35.05 95.3 35.05 95.3 37.15 103.55 37.15 103.55 35.05 105.6 35.05 105.6 37.15 103.55 37.15 103.55 39.2 95.3 39.2 95.3 37.15 87.0 37.15 87.0 35.05 82.9 35.05 82.9 33.0 84.95 33.0 M103.55 68.1 L103.55 72.25 105.6 72.25 105.6 76.4 103.55 76.4 103.55 72.25 101.45 72.25 101.45 68.1 103.55 68.1 M105.6 80.5 L107.65 80.5 107.65 82.55 105.6 82.55 105.6 80.5 M99.4 97.05 L99.4 88.75 97.35 88.75 97.35 86.7 95.3 86.7 95.3 84.65 93.2 84.65 93.2 82.55 95.3 82.55 95.3 84.65 97.35 84.65 97.35 86.7 99.4 86.7 99.4 88.75 101.45 88.75 101.45 94.95 101.45 97.05 99.4 97.05 M84.95 97.05 L84.95 94.95 87.0 94.95 87.0 86.7 84.95 86.7 84.95 84.65 82.9 84.65 82.9 82.55 84.95 82.55 84.95 84.65 87.0 84.65 87.0 82.55 91.15 82.55 91.15 80.5 93.2 80.5 93.2 82.55 91.15 82.55 91.15 84.65 87.0 84.65 87.0 86.7 89.1 86.7 89.1 92.9 89.1 94.95 87.0 94.95 87.0 97.05 84.95 97.05 M76.7 82.55 L74.6 82.55 74.6 80.5 76.7 80.5 76.7 82.55 M51.9 97.05 L51.9 88.75 51.9 86.7 51.9 82.55 51.9 80.5 53.95 80.5 53.95 88.75 53.95 92.9 53.95 94.95 53.95 97.05 51.9 97.05 M39.5 80.5 L37.45 80.5 37.45 74.3 39.5 74.3 39.5 70.2 41.6 70.2 41.6 68.1 43.65 68.1 43.65 70.2 41.6 70.2 41.6 74.3 39.5 74.3 39.5 80.5 M43.65 66.05 L43.65 61.9 41.6 61.9 41.6 55.7 43.65 55.7 45.7 55.7 47.8 55.7 47.8 57.8 43.65 57.8 43.65 61.9 45.7 61.9 45.7 66.05 47.8 66.05 47.8 68.1 49.85 68.1 49.85 70.2 51.9 70.2 51.9 80.5 49.85 80.5 49.85 70.2 47.8 70.2 47.8 68.1 45.7 68.1 45.7 66.05 43.65 66.05 M41.6 51.6 L41.6 45.4 43.65 45.4 43.65 47.45 43.65 49.55 43.65 51.6 41.6 51.6 M29.2 35.05 L27.15 35.05 27.15 33.0 29.2 33.0 29.2 35.05 M25.05 28.9 L25.05 26.8 27.15 26.8 27.15 24.75 29.2 24.75 29.2 22.7 33.3 22.7 33.3 20.6 37.45 20.6 37.45 22.7 33.3 22.7 33.3 24.75 31.25 24.75 29.2 24.75 29.2 26.8 27.15 26.8 27.15 28.9 25.05 28.9 M80.8 22.7 L80.8 24.75 78.75 24.75 76.7 24.75 76.7 26.8 74.6 26.8 74.6 24.75 76.7 24.75 76.7 22.7 80.8 22.7 M82.9 39.2 L84.95 39.2 84.95 41.25 78.75 41.25 78.75 39.2 82.9 39.2 M74.6 61.9 L78.75 61.9 78.75 59.85 80.8 59.85 80.8 57.8 82.9 57.8 82.9 55.7 84.95 55.7 84.95 53.65 87.0 53.65 87.0 51.6 95.3 51.6 95.3 53.65 87.0 53.65 87.0 55.7 84.95 55.7 84.95 57.8 82.9 57.8 82.9 59.85 80.8 59.85 80.8 61.9 78.75 61.9 78.75 64.0 76.7 64.0 76.7 66.05 74.6 66.05 74.6 68.1 68.45 68.1 68.45 66.05 64.3 66.05 64.3 64.0 68.45 64.0 68.45 66.05 72.55 66.05 74.6 66.05 74.6 64.0 74.6 61.9 M101.45 66.05 L101.45 68.1 99.4 68.1 99.4 66.05 97.35 66.05 97.35 64.0 99.4 64.0 99.4 66.05 101.45 66.05 M95.3 55.7 L95.3 57.8 93.2 57.8 93.2 55.7 95.3 55.7 M91.15 59.85 L93.2 59.85 93.2 61.9 95.3 61.9 97.35 61.9 97.35 64.0 93.2 64.0 93.2 61.9 89.1 61.9 89.1 59.85 91.15 59.85 M89.1 78.45 L91.15 78.45 91.15 80.5 89.1 80.5 89.1 78.45 87.0 78.45 87.0 76.4 89.1 76.4 89.1 78.45 M68.45 33.0 L68.45 30.95 70.5 30.95 70.5 33.0 68.45 33.0 M62.25 35.05 L62.25 33.0 64.3 33.0 64.3 35.05 62.25 35.05 M35.4 30.95 L33.3 30.95 33.3 33.0 31.25 33.0 31.25 30.95 33.3 30.95 33.3 28.9 35.4 28.9 35.4 30.95 M49.85 55.7 L49.85 53.65 53.95 53.65 53.95 55.7 49.85 55.7 M51.9 59.85 L56.05 59.85 56.05 57.8 58.1 57.8 58.1 55.7 66.35 55.7 66.35 57.8 66.35 61.9 64.3 61.9 64.3 57.8 60.15 57.8 58.1 57.8 58.1 59.85 56.05 59.85 56.05 61.9 51.9 61.9 51.9 59.85 M62.25 43.35 L60.15 43.35 60.15 45.4 58.1 45.4 58.1 43.35 60.15 43.35 60.15 41.25 64.3 41.25 64.3 43.35 62.25 43.35 M56.05 47.45 L56.05 45.4 58.1 45.4 58.1 47.45 56.05 47.45 M41.6 80.5 L41.6 76.4 43.65 76.4 43.65 78.45 43.65 80.5 41.6 80.5 M64.3 64.0 L62.25 64.0 62.25 61.9 64.3 61.9 64.3 64.0 M51.9 51.6 L49.85 51.6 49.85 49.55 51.9 49.55 51.9 51.6 M51.9 64.0 L53.95 64.0 53.95 66.05 51.9 66.05 51.9 64.0 M60.15 82.55 L58.1 82.55 58.1 80.5 56.05 80.5 56.05 78.45 53.95 78.45 53.95 76.4 56.05 76.4 56.05 78.45 58.1 78.45 58.1 80.5 62.25 80.5 62.25 78.45 64.3 78.45 64.3 92.9 62.25 92.9 62.25 97.05 60.15 97.05 60.15 94.95 60.15 92.9 62.25 92.9 62.25 88.75 62.25 86.7 62.25 82.55 60.15 82.55 M45.7 78.45 L47.8 78.45 47.8 80.5 45.7 80.5 45.7 78.45" fill="#834162" fill-rule="evenodd" stroke="none"/>
    <path d="M111.8 39.2 L111.8 41.25 105.6 41.25 105.6 43.35 95.3 43.35 95.3 41.25 87.0 41.25 87.0 39.2 84.95 39.2 82.9 39.2 82.9 35.05 87.0 35.05 87.0 37.15 95.3 37.15 95.3 39.2 103.55 39.2 103.55 37.15 105.6 37.15 109.75 37.15 109.75 39.2 111.8 39.2" fill="#ffebf0" fill-rule="evenodd" stroke="none"/>
    <path d="M80.8 35.05 L82.9 35.05 82.9 39.2 78.75 39.2 78.75 37.15 80.8 37.15 80.8 35.05 M99.4 61.9 L99.4 64.0 97.35 64.0 97.35 61.9 99.4 61.9 M95.3 57.8 L95.3 55.7 97.35 55.7 97.35 57.8 95.3 57.8 M91.15 80.5 L91.15 82.55 87.0 82.55 87.0 84.65 84.95 84.65 84.95 82.55 87.0 82.55 87.0 80.5 82.9 80.5 82.9 78.45 87.0 78.45 89.1 78.45 89.1 80.5 91.15 80.5 M91.15 84.65 L93.2 84.65 95.3 84.65 95.3 86.7 95.3 90.85 91.15 90.85 91.15 92.9 89.1 92.9 89.1 86.7 87.0 86.7 87.0 84.65 91.15 84.65 M97.35 84.65 L99.4 84.65 99.4 86.7 97.35 86.7 97.35 84.65 M87.0 76.4 L84.95 76.4 84.95 74.3 87.0 74.3 87.0 76.4 M56.05 26.8 L58.1 26.8 58.1 28.9 56.05 28.9 56.05 26.8 M53.95 53.65 L56.05 53.65 56.05 51.6 58.1 51.6 58.1 53.65 56.05 53.65 56.05 55.7 53.95 55.7 53.95 53.65 M66.35 57.8 L68.45 57.8 68.45 61.9 70.5 61.9 70.5 64.0 68.45 64.0 68.45 61.9 66.35 61.9 66.35 57.8 M74.6 41.25 L74.6 39.2 76.7 39.2 76.7 41.25 74.6 41.25 M72.55 64.0 L74.6 64.0 74.6 66.05 72.55 66.05 72.55 64.0 M58.1 78.45 L62.25 78.45 62.25 76.4 64.3 76.4 64.3 74.3 66.35 74.3 66.35 76.4 64.3 76.4 64.3 78.45 62.25 78.45 62.25 80.5 58.1 80.5 58.1 78.45 M68.45 92.9 L68.45 90.85 70.5 90.85 70.5 92.9 68.45 92.9 M70.5 86.7 L70.5 84.65 72.55 84.65 72.55 86.7 70.5 86.7 M72.55 82.55 L72.55 80.5 74.6 80.5 74.6 78.45 76.7 78.45 76.7 80.5 74.6 80.5 74.6 82.55 72.55 82.55 M60.15 86.7 L60.15 82.55 62.25 82.55 62.25 86.7 60.15 86.7 M43.65 82.55 L41.6 82.55 41.6 80.5 43.65 80.5 43.65 82.55" fill="#e6acc5" fill-rule="evenodd" stroke="none"/>
    <path d="M115.95 37.15 L115.95 39.2 111.8 39.2 109.75 39.2 109.75 37.15 109.75 35.05 113.85 35.05 113.85 37.15 115.95 37.15 M78.75 18.55 L80.8 18.55 80.8 22.7 76.7 22.7 76.7 20.6 78.75 20.6 78.75 18.55 M45.7 16.5 L45.7 14.4 47.8 14.4 47.8 18.55 49.85 18.55 49.85 26.8 47.8 26.8 47.8 24.75 47.8 18.55 45.7 18.55 45.7 16.5 M33.3 24.75 L35.4 24.75 35.4 26.8 37.45 26.8 37.45 28.9 35.4 28.9 33.3 28.9 33.3 26.8 31.25 26.8 31.25 24.75 33.3 24.75" fill="#529cde" fill-rule="evenodd" stroke="none"/>
    <path d="M101.45 68.1 L101.45 72.25 103.55 72.25 103.55 76.4 103.55 80.5 105.6 80.5 105.6 82.55 105.6 84.65 107.65 84.65 107.65 92.9 103.55 92.9 103.55 94.95 101.45 94.95 101.45 88.75 99.4 88.75 99.4 86.7 99.4 84.65 97.35 84.65 95.3 84.65 95.3 82.55 93.2 82.55 93.2 80.5 91.15 80.5 91.15 78.45 89.1 78.45 89.1 76.4 87.0 76.4 87.0 74.3 84.95 74.3 84.95 76.4 87.0 76.4 87.0 78.45 82.9 78.45 82.9 80.5 76.7 80.5 76.7 78.45 74.6 78.45 74.6 80.5 72.55 80.5 72.55 82.55 72.55 84.65 70.5 84.65 70.5 86.7 70.5 90.85 68.45 90.85 68.45 92.9 66.35 92.9 66.35 94.95 64.3 94.95 64.3 105.3 62.25 105.3 62.25 107.35 60.15 107.35 60.15 109.4 58.1 109.4 58.1 105.3 60.15 105.3 60.15 101.15 60.15 99.1 62.25 99.1 62.25 97.05 62.25 92.9 64.3 92.9 64.3 78.45 64.3 76.4 66.35 76.4 66.35 74.3 64.3 74.3 64.3 76.4 62.25 76.4 62.25 78.45 58.1 78.45 56.05 78.45 56.05 76.4 53.95 76.4 53.95 78.45 56.05 78.45 56.05 80.5 58.1 80.5 58.1 82.55 60.15 82.55 60.15 86.7 56.05 86.7 56.05 88.75 53.95 88.75 53.95 80.5 51.9 80.5 51.9 70.2 51.9 68.1 56.05 68.1 56.05 70.2 60.15 70.2 60.15 68.1 64.3 68.1 64.3 70.2 68.45 70.2 68.45 72.25 76.7 72.25 76.7 70.2 80.8 70.2 80.8 68.1 82.9 68.1 82.9 66.05 84.95 66.05 84.95 64.0 87.0 64.0 87.0 61.9 89.1 61.9 93.2 61.9 93.2 64.0 97.35 64.0 97.35 66.05 99.4 66.05 99.4 68.1 101.45 68.1" fill="#ffedf2" fill-rule="evenodd" stroke="none"/>
    <path d="M95.3 53.65 L95.3 55.7 93.2 55.7 91.15 55.7 91.15 57.8 89.1 57.8 89.1 59.85 87.0 59.85 87.0 61.9 84.95 61.9 84.95 64.0 82.9 64.0 82.9 66.05 80.8 66.05 80.8 68.1 76.7 68.1 76.7 70.2 68.45 70.2 68.45 68.1 74.6 68.1 74.6 66.05 76.7 66.05 76.7 64.0 78.75 64.0 78.75 61.9 80.8 61.9 80.8 59.85 82.9 59.85 82.9 57.8 84.95 57.8 84.95 55.7 87.0 55.7 87.0 53.65 95.3 53.65 M43.65 61.9 L43.65 57.8 47.8 57.8 47.8 64.0 49.85 64.0 49.85 66.05 51.9 66.05 51.9 68.1 49.85 68.1 47.8 68.1 47.8 66.05 45.7 66.05 45.7 61.9 43.65 61.9" fill="#fff5f7" fill-rule="evenodd" stroke="none"/>
    <path d="M95.3 57.8 L97.35 57.8 99.4 57.8 99.4 61.9 97.35 61.9 97.35 59.85 95.3 59.85 95.3 57.8 M45.7 26.8 L45.7 28.9 43.65 28.9 43.65 26.8 45.7 26.8 M45.7 39.2 L47.8 39.2 47.8 41.25 45.7 41.25 45.7 39.2 M76.7 39.2 L78.75 39.2 78.75 41.25 76.7 41.25 76.7 39.2 M70.5 64.0 L72.55 64.0 72.55 66.05 68.45 66.05 68.45 64.0 70.5 64.0 M68.45 61.9 L68.45 64.0 64.3 64.0 64.3 61.9 66.35 61.9 68.45 61.9 M64.3 68.1 L64.3 66.05 68.45 66.05 68.45 68.1 64.3 68.1 M51.9 82.55 L51.9 86.7 47.8 86.7 47.8 84.65 43.65 84.65 43.65 82.55 43.65 80.5 43.65 78.45 45.7 78.45 45.7 80.5 47.8 80.5 47.8 82.55 51.9 82.55" fill="#ffd5de" fill-rule="evenodd" stroke="none"/>
    <path d="M107.65 84.65 L109.75 84.65 109.75 94.95 107.65 94.95 107.65 92.9 107.65 84.65" fill="#030303" fill-rule="evenodd" stroke="none"/>
    <path d="M68.45 22.7 L70.5 22.7 70.5 20.6 72.55 20.6 72.55 24.75 72.55 26.8 74.6 26.8 74.6 28.9 70.5 28.9 70.5 26.8 68.45 26.8 68.45 22.7" fill="#863d53" fill-rule="evenodd" stroke="none"/>
    <path d="M66.35 18.55 L66.35 22.7 66.35 24.75 64.3 24.75 64.3 30.95 66.35 30.95 66.35 33.0 64.3 33.0 62.25 33.0 62.25 28.9 60.15 28.9 60.15 22.7 62.25 22.7 62.25 18.55 66.35 18.55" fill="#fff6f7" fill-rule="evenodd" stroke="none"/>
    <path d="M74.6 26.8 L72.55 26.8 72.55 24.75 74.6 24.75 74.6 20.6 76.7 20.6 76.7 18.55 78.75 18.55 78.75 16.5 80.8 16.5 80.8 18.55 78.75 18.55 78.75 20.6 76.7 20.6 76.7 22.7 76.7 24.75 74.6 24.75 74.6 26.8 M45.7 14.4 L45.7 12.35 47.8 12.35 47.8 14.4 49.85 14.4 49.85 18.55 51.9 18.55 51.9 28.9 49.85 28.9 49.85 26.8 49.85 18.55 47.8 18.55 47.8 14.4 45.7 14.4" fill="#52629c" fill-rule="evenodd" stroke="none"/>
    <path d="M58.1 22.7 L60.15 22.7 60.15 28.9 62.25 28.9 62.25 33.0 60.15 33.0 60.15 30.95 53.95 30.95 53.95 28.9 56.05 28.9 58.1 28.9 58.1 26.8 58.1 22.7" fill="#863e55" fill-rule="evenodd" stroke="none"/>
    <path d="M43.65 28.9 L43.65 30.95 41.6 30.95 39.5 30.95 39.5 33.0 35.4 33.0 35.4 35.05 29.2 35.05 29.2 33.0 27.15 33.0 27.15 28.9 29.2 28.9 29.2 30.95 31.25 30.95 31.25 33.0 33.3 33.0 33.3 30.95 35.4 30.95 37.45 30.95 37.45 28.9 43.65 28.9" fill="#ffe3e9" fill-rule="evenodd" stroke="none"/>
    <path d="M43.65 45.4 L43.65 37.15 45.7 37.15 45.7 39.2 45.7 41.25 45.7 43.35 45.7 45.4 43.65 45.4" fill="#853f59" fill-rule="evenodd" stroke="none"/>
    <path d="M43.65 47.45 L45.7 47.45 45.7 45.4 47.8 45.4 47.8 49.55 43.65 49.55 43.65 47.45" fill="#83a4bc" fill-rule="evenodd" stroke="none"/>
    <path d="M47.8 43.35 L49.85 43.35 49.85 45.4 51.9 45.4 51.9 43.35 53.95 43.35 53.95 41.25 56.05 41.25 56.05 39.2 60.15 39.2 60.15 37.15 66.35 37.15 66.35 39.2 70.5 39.2 70.5 41.25 72.55 41.25 72.55 45.4 74.6 45.4 74.6 49.55 72.55 49.55 72.55 53.65 70.5 53.65 70.5 55.7 68.45 55.7 68.45 57.8 66.35 57.8 66.35 55.7 58.1 55.7 58.1 57.8 56.05 57.8 56.05 59.85 51.9 59.85 51.9 57.8 49.85 57.8 49.85 55.7 47.8 55.7 45.7 55.7 45.7 53.65 43.65 53.65 43.65 51.6 43.65 49.55 47.8 49.55 47.8 45.4 45.7 45.4 45.7 43.35 47.8 43.35 M53.95 53.65 L49.85 53.65 49.85 55.7 53.95 55.7 56.05 55.7 56.05 53.65 58.1 53.65 58.1 51.6 56.05 51.6 56.05 53.65 53.95 53.65 M64.3 43.35 L64.3 41.25 60.15 41.25 60.15 43.35 58.1 43.35 58.1 45.4 56.05 45.4 56.05 47.45 56.05 49.55 58.1 49.55 60.15 49.55 60.15 51.6 64.3 51.6 64.3 49.55 68.45 49.55 68.45 45.4 66.35 45.4 66.35 43.35 64.3 43.35 M51.9 51.6 L51.9 49.55 49.85 49.55 49.85 51.6 51.9 51.6" fill="#fff2f5" fill-rule="evenodd" stroke="none"/>
    <path d="M60.15 45.4 L60.15 43.35 62.25 43.35 62.25 47.45 60.15 47.45 60.15 45.4 M39.5 80.5 L39.5 74.3 41.6 74.3 41.6 70.2 43.65 70.2 43.65 68.1 45.7 68.1 47.8 68.1 47.8 70.2 45.7 70.2 45.7 72.25 43.65 72.25 43.65 76.4 41.6 76.4 41.6 80.5 39.5 80.5" fill="#ffffff" fill-rule="evenodd" stroke="none"/>
    <path d="M56.05 47.45 L58.1 47.45 58.1 49.55 56.05 49.55 56.05 47.45" fill="#94b4cd" fill-rule="evenodd" stroke="none"/>
    <path d="M74.6 28.9 L74.6 26.8 76.7 26.8 76.7 24.75 78.75 24.75 78.75 30.95 76.7 30.95 76.7 33.0 74.6 33.0 74.6 37.15 72.55 37.15 72.55 35.05 70.5 35.05 70.5 33.0 72.55 33.0 72.55 30.95 74.6 30.95 74.6 28.9" fill="#ffb0c7" fill-rule="evenodd" stroke="none"/>
    <path d="M64.3 61.9 L62.25 61.9 62.25 64.0 62.25 66.05 60.15 66.05 58.1 66.05 58.1 64.0 60.15 64.0 60.15 57.8 64.3 57.8 64.3 61.9" fill="#fff9fa" fill-rule="evenodd" stroke="none"/>
    <path d="M60.15 66.05 L60.15 68.1 56.05 68.1 56.05 66.05 53.95 66.05 53.95 64.0 56.05 64.0 56.05 61.9 56.05 59.85 58.1 59.85 58.1 57.8 60.15 57.8 60.15 64.0 58.1 64.0 58.1 66.05 60.15 66.05" fill="#ffb5ca" fill-rule="evenodd" stroke="none"/>
  </g>
</svg>
