<?xml version="1.0" encoding="UTF-8" standalone="no"?>
<svg xmlns:xlink="http://www.w3.org/1999/xlink" height="109.45px" width="95.0px" xmlns="http://www.w3.org/2000/svg">
  <g transform="matrix(1.0, 0.0, 0.0, 1.0, -25.05, -2.05)">
    <path d="M84.95 6.15 L87.0 6.15 87.0 18.55 84.95 18.55 84.95 6.15 M107.65 84.65 L107.65 86.7 105.6 86.7 105.6 84.65 107.65 84.65 M105.6 101.15 L105.6 105.3 103.55 105.3 103.55 107.35 101.45 107.35 101.45 109.4 93.2 109.4 93.2 103.2 95.3 103.2 95.3 101.15 97.35 101.15 97.35 97.05 99.4 97.05 99.4 101.15 97.35 101.15 97.35 103.2 95.3 103.2 95.3 107.35 97.35 107.35 99.4 107.35 101.45 107.35 101.45 105.3 103.55 105.3 103.55 101.15 105.6 101.15 M45.7 4.1 L47.8 4.1 47.8 8.25 49.85 8.25 49.85 12.35 51.9 12.35 51.9 16.5 53.95 16.5 53.95 20.6 56.05 20.6 56.05 22.7 56.05 30.95 53.95 30.95 53.95 33.0 51.9 33.0 51.9 30.95 53.95 30.95 53.95 20.6 51.9 20.6 51.9 16.5 49.85 16.5 49.85 12.35 47.8 12.35 47.8 8.25 45.7 8.25 45.7 4.1" fill="#000000" fill-rule="evenodd" stroke="none"/>
    <path d="M105.6 37.15 L105.6 35.05 107.65 35.05 107.65 37.15 109.75 37.15 109.75 39.2 107.65 39.2 107.65 37.15 105.6 37.15 M111.8 49.55 L113.85 49.55 113.85 53.65 111.8 53.65 111.8 49.55 M111.8 57.8 L111.8 59.85 109.75 59.85 107.65 59.85 107.65 57.8 111.8 57.8 M58.1 109.4 L56.05 109.4 56.05 107.35 56.05 105.3 58.1 105.3 58.1 109.4 M49.85 107.35 L47.8 107.35 47.8 103.2 49.85 103.2 49.85 97.05 51.9 97.05 51.9 103.2 49.85 103.2 49.85 107.35 M41.6 41.25 L39.5 41.25 39.5 39.2 41.6 39.2 41.6 37.15 43.65 37.15 43.65 39.2 41.6 39.2 41.6 41.25 M39.5 14.4 L39.5 4.1 41.6 4.1 41.6 2.05 45.7 2.05 45.7 4.1 41.6 4.1 41.6 6.15 41.6 16.5 39.5 16.5 39.5 14.4 M70.5 20.6 L70.5 16.5 72.55 16.5 72.55 12.35 74.6 12.35 74.6 10.3 76.7 10.3 76.7 8.25 78.75 8.25 78.75 6.15 80.8 6.15 80.8 4.1 84.95 4.1 84.95 6.15 82.9 6.15 80.8 6.15 80.8 8.25 78.75 8.25 78.75 10.3 76.7 10.3 76.7 12.35 74.6 12.35 74.6 16.5 72.55 16.5 72.55 20.6 70.5 20.6 M82.9 20.6 L82.9 22.7 80.8 22.7 80.8 20.6 82.9 20.6 M103.55 45.4 L105.6 45.4 105.6 47.45 105.6 53.65 103.55 53.65 103.55 45.4 M99.4 64.0 L99.4 59.85 101.45 59.85 101.45 53.65 103.55 53.65 103.55 59.85 101.45 59.85 101.45 61.9 101.45 64.0 99.4 64.0 M103.55 59.85 L105.6 59.85 105.6 61.9 103.55 61.9 103.55 59.85 M60.15 99.1 L60.15 101.15 58.1 101.15 58.1 99.1 60.15 99.1 M60.15 109.4 L60.15 107.35 62.25 107.35 62.25 109.4 60.15 109.4 M84.95 101.15 L87.0 101.15 87.0 103.2 84.95 103.2 84.95 101.15 M53.95 107.35 L51.9 107.35 51.9 105.3 53.95 105.3 53.95 107.35 M97.35 107.35 L97.35 105.3 99.4 105.3 99.4 107.35 97.35 107.35" fill="#8b3941" fill-rule="evenodd" stroke="none"/>
    <path d="M84.95 6.15 L84.95 18.55 82.9 18.55 82.9 20.6 80.8 20.6 80.8 22.7 78.75 22.7 78.75 20.6 80.8 20.6 80.8 14.4 82.9 14.4 82.9 6.15 84.95 6.15 M109.75 49.55 L111.8 49.55 111.8 53.65 111.8 57.8 107.65 57.8 107.65 59.85 105.6 59.85 105.6 55.7 107.65 55.7 107.65 51.6 109.75 51.6 109.75 49.55 M105.6 66.05 L103.55 66.05 103.55 68.1 101.45 68.1 99.4 68.1 99.4 64.0 101.45 64.0 101.45 61.9 103.55 61.9 103.55 64.0 105.6 64.0 105.6 66.05 M62.25 107.35 L62.25 105.3 64.3 105.3 64.3 97.05 66.35 97.05 66.35 94.95 68.45 94.95 68.45 101.15 66.35 101.15 66.35 107.35 64.3 107.35 64.3 109.4 62.25 109.4 62.25 107.35 M101.45 97.05 L103.55 97.05 103.55 94.95 105.6 94.95 105.6 101.15 103.55 101.15 103.55 105.3 101.45 105.3 101.45 107.35 99.4 107.35 99.4 105.3 97.35 105.3 97.35 107.35 95.3 107.35 95.3 103.2 97.35 103.2 97.35 101.15 99.4 101.15 99.4 97.05 101.45 97.05 M89.1 94.95 L91.15 94.95 91.15 92.9 93.2 92.9 93.2 97.05 91.15 97.05 91.15 101.15 89.1 101.15 89.1 103.2 87.0 103.2 87.0 101.15 84.95 101.15 84.95 99.1 87.0 99.1 87.0 97.05 87.0 94.95 89.1 94.95 M45.7 8.25 L43.65 8.25 43.65 6.15 41.6 6.15 41.6 4.1 45.7 4.1 45.7 8.25 47.8 8.25 47.8 12.35 49.85 12.35 49.85 16.5 51.9 16.5 51.9 20.6 53.95 20.6 53.95 30.95 51.9 30.95 51.9 20.6 49.85 20.6 49.85 16.5 47.8 16.5 47.8 12.35 45.7 12.35 45.7 8.25 M49.85 33.0 L51.9 33.0 51.9 35.05 47.8 35.05 47.8 37.15 45.7 37.15 45.7 43.35 43.65 43.35 43.65 41.25 41.6 41.25 41.6 39.2 43.65 39.2 43.65 37.15 41.6 37.15 39.5 37.15 39.5 35.05 41.6 35.05 43.65 35.05 45.7 35.05 45.7 33.0 47.8 33.0 49.85 33.0 M66.35 30.95 L68.45 30.95 68.45 33.0 70.5 33.0 70.5 35.05 68.45 35.05 68.45 33.0 66.35 33.0 66.35 30.95 M45.7 43.35 L47.8 43.35 47.8 47.45 49.85 47.45 49.85 45.4 51.9 45.4 51.9 43.35 53.95 43.35 53.95 41.25 58.1 41.25 58.1 39.2 60.15 39.2 62.25 39.2 62.25 41.25 58.1 41.25 58.1 43.35 53.95 43.35 53.95 45.4 51.9 45.4 51.9 47.45 49.85 47.45 49.85 49.55 47.8 49.55 47.8 47.45 45.7 47.45 45.7 45.4 45.7 43.35 M64.3 39.2 L64.3 35.05 68.45 35.05 68.45 37.15 66.35 37.15 66.35 39.2 70.5 39.2 70.5 43.35 72.55 43.35 72.55 47.45 70.5 47.45 70.5 45.4 68.45 45.4 68.45 43.35 64.3 43.35 64.3 41.25 66.35 41.25 66.35 39.2 64.3 39.2 M53.95 70.2 L51.9 70.2 49.85 70.2 49.85 66.05 51.9 66.05 51.9 68.1 53.95 68.1 53.95 70.2 M53.95 105.3 L53.95 101.15 56.05 101.15 56.05 97.05 58.1 97.05 60.15 97.05 60.15 99.1 58.1 99.1 58.1 101.15 58.1 105.3 56.05 105.3 56.05 107.35 53.95 107.35 53.95 105.3" fill="#de83a4" fill-rule="evenodd" stroke="none"/>
    <path d="M84.95 18.55 L84.95 26.8 82.9 26.8 82.9 30.95 80.8 30.95 80.8 24.75 78.75 24.75 78.75 22.7 80.8 22.7 82.9 22.7 82.9 20.6 82.9 18.55 84.95 18.55 M68.45 101.15 L68.45 107.35 66.35 107.35 66.35 101.15 68.45 101.15" fill="#0a0a0a" fill-rule="evenodd" stroke="none"/>
    <path d="M82.9 6.15 L82.9 14.4 80.8 14.4 80.8 20.6 78.75 20.6 78.75 22.7 76.7 22.7 76.7 20.6 76.7 18.55 74.6 18.55 74.6 20.6 72.55 20.6 72.55 16.5 74.6 16.5 74.6 12.35 76.7 12.35 76.7 10.3 78.75 10.3 78.75 8.25 80.8 8.25 80.8 6.15 82.9 6.15 M105.6 39.2 L105.6 37.15 107.65 37.15 107.65 39.2 105.6 39.2 M105.6 45.4 L105.6 43.35 107.65 43.35 107.65 45.4 105.6 45.4 M105.6 47.45 L109.75 47.45 109.75 49.55 109.75 51.6 107.65 51.6 107.65 55.7 105.6 55.7 105.6 59.85 103.55 59.85 103.55 53.65 105.6 53.65 105.6 47.45 M107.65 59.85 L109.75 59.85 109.75 64.0 107.65 64.0 107.65 66.05 105.6 66.05 105.6 64.0 103.55 64.0 103.55 61.9 101.45 61.9 101.45 59.85 103.55 59.85 103.55 61.9 105.6 61.9 105.6 59.85 107.65 59.85 M70.5 20.6 L72.55 20.6 72.55 24.75 72.55 26.8 70.5 26.8 70.5 20.6 M41.6 6.15 L43.65 6.15 43.65 8.25 45.7 8.25 45.7 12.35 47.8 12.35 47.8 16.5 49.85 16.5 49.85 20.6 51.9 20.6 51.9 30.95 51.9 33.0 49.85 33.0 49.85 22.7 47.8 22.7 47.8 18.55 45.7 18.55 45.7 16.5 43.65 16.5 41.6 16.5 41.6 6.15 M47.8 30.95 L47.8 33.0 45.7 33.0 45.7 30.95 47.8 30.95 M45.7 28.9 L43.65 28.9 43.65 22.7 45.7 22.7 45.7 28.9 M53.95 33.0 L58.1 33.0 58.1 37.15 60.15 37.15 60.15 39.2 58.1 39.2 58.1 41.25 53.95 41.25 53.95 43.35 51.9 43.35 51.9 45.4 49.85 45.4 49.85 47.45 47.8 47.45 47.8 43.35 45.7 43.35 45.7 37.15 47.8 37.15 47.8 35.05 51.9 35.05 51.9 33.0 53.95 33.0 M51.9 70.2 L51.9 72.25 49.85 72.25 49.85 70.2 51.9 70.2 M49.85 64.0 L49.85 66.05 49.85 70.2 47.8 70.2 47.8 61.9 49.85 61.9 49.85 64.0" fill="#ffacc5" fill-rule="evenodd" stroke="none"/>
    <path d="M93.2 33.0 L93.2 35.05 89.1 35.05 89.1 33.0 93.2 33.0 M74.6 41.25 L74.6 43.35 72.55 43.35 72.55 41.25 74.6 41.25 M91.15 59.85 L93.2 59.85 93.2 61.9 91.15 61.9 91.15 59.85 M70.5 70.2 L70.5 72.25 68.45 72.25 68.45 70.2 70.5 70.2 M87.0 57.8 L87.0 55.7 89.1 55.7 89.1 57.8 87.0 57.8 M58.1 80.5 L62.25 80.5 62.25 82.55 58.1 82.55 58.1 80.5 M62.25 78.45 L62.25 76.4 64.3 76.4 64.3 78.45 62.25 78.45 M68.45 94.95 L68.45 90.85 70.5 90.85 70.5 94.95 68.45 94.95 M70.5 86.7 L70.5 84.65 72.55 84.65 72.55 86.7 70.5 86.7 M72.55 82.55 L72.55 80.5 74.6 80.5 74.6 78.45 76.7 78.45 76.7 82.55 74.6 82.55 72.55 82.55 M82.9 82.55 L82.9 80.5 87.0 80.5 89.1 80.5 89.1 82.55 91.15 82.55 91.15 84.65 87.0 84.65 87.0 86.7 84.95 86.7 84.95 84.65 87.0 84.65 87.0 82.55 82.9 82.55 M87.0 78.45 L84.95 78.45 84.95 76.4 87.0 76.4 87.0 78.45 M97.35 86.7 L99.4 86.7 99.4 88.75 97.35 88.75 97.35 86.7 M93.2 86.7 L95.3 86.7 95.3 88.75 95.3 92.9 93.2 92.9 91.15 92.9 91.15 94.95 89.1 94.95 89.1 88.75 87.0 88.75 87.0 86.7 91.15 86.7 93.2 86.7 M39.5 84.65 L41.6 84.65 41.6 82.55 43.65 82.55 43.65 84.65 41.6 84.65 41.6 86.7 39.5 86.7 39.5 84.65 M64.3 59.85 L66.35 59.85 66.35 61.9 68.45 61.9 68.45 64.0 70.5 64.0 70.5 66.05 68.45 66.05 68.45 64.0 64.3 64.0 64.3 59.85 M72.55 66.05 L74.6 66.05 74.6 68.1 72.55 68.1 72.55 66.05 M68.45 68.1 L68.45 70.2 66.35 70.2 66.35 68.1 64.3 68.1 64.3 66.05 66.35 66.05 66.35 68.1 68.45 68.1 M51.9 59.85 L51.9 57.8 53.95 57.8 53.95 59.85 51.9 59.85 M53.95 57.8 L53.95 55.7 56.05 55.7 56.05 57.8 53.95 57.8 M60.15 84.65 L62.25 84.65 62.25 86.7 60.15 86.7 60.15 84.65 M49.85 84.65 L49.85 86.7 51.9 86.7 51.9 88.75 47.8 88.75 47.8 86.7 45.7 86.7 45.7 84.65 49.85 84.65" fill="#e6acc5" fill-rule="evenodd" stroke="none"/>
    <path d="M97.35 33.0 L97.35 35.05 99.4 35.05 99.4 37.15 101.45 37.15 101.45 39.2 105.6 39.2 105.6 41.25 105.6 43.35 101.45 43.35 101.45 41.25 97.35 41.25 97.35 39.2 95.3 39.2 95.3 37.15 89.1 37.15 89.1 39.2 84.95 39.2 84.95 41.25 82.9 41.25 80.8 41.25 80.8 43.35 78.75 43.35 78.75 45.4 76.7 45.4 74.6 45.4 74.6 43.35 74.6 41.25 76.7 41.25 78.75 41.25 78.75 39.2 80.8 39.2 80.8 37.15 82.9 37.15 82.9 35.05 87.0 35.05 87.0 33.0 89.1 33.0 89.1 35.05 93.2 35.05 93.2 33.0 97.35 33.0" fill="#ffe0e8" fill-rule="evenodd" stroke="none"/>
    <path d="M80.8 30.95 L80.8 33.0 78.75 33.0 78.75 30.95 80.8 30.95 M80.8 35.05 L82.9 35.05 82.9 33.0 87.0 33.0 87.0 30.95 97.35 30.95 97.35 33.0 99.4 33.0 99.4 35.05 101.45 35.05 101.45 37.15 105.6 37.15 105.6 39.2 101.45 39.2 101.45 37.15 99.4 37.15 99.4 35.05 97.35 35.05 97.35 33.0 93.2 33.0 89.1 33.0 87.0 33.0 87.0 35.05 82.9 35.05 82.9 37.15 80.8 37.15 80.8 39.2 78.75 39.2 78.75 41.25 76.7 41.25 76.7 39.2 78.75 39.2 78.75 37.15 80.8 37.15 80.8 35.05 M103.55 70.2 L103.55 74.3 105.6 74.3 105.6 78.45 103.55 78.45 103.55 74.3 101.45 74.3 101.45 70.2 99.4 70.2 99.4 68.1 101.45 68.1 101.45 70.2 103.55 70.2 M105.6 82.55 L107.65 82.55 107.65 84.65 105.6 84.65 105.6 82.55 M99.4 97.05 L99.4 90.85 97.35 90.85 97.35 88.75 95.3 88.75 95.3 86.7 93.2 86.7 93.2 84.65 91.15 84.65 91.15 82.55 93.2 82.55 93.2 84.65 95.3 84.65 95.3 86.7 97.35 86.7 97.35 88.75 99.4 88.75 99.4 90.85 101.45 90.85 101.45 97.05 99.4 97.05 M84.95 97.05 L84.95 94.95 87.0 94.95 87.0 88.75 84.95 88.75 84.95 86.7 82.9 86.7 82.9 84.65 84.95 84.65 84.95 86.7 87.0 86.7 87.0 84.65 91.15 84.65 91.15 86.7 87.0 86.7 87.0 88.75 89.1 88.75 89.1 94.95 87.0 94.95 87.0 97.05 84.95 97.05 M76.7 84.65 L74.6 84.65 74.6 82.55 76.7 82.55 76.7 84.65 M51.9 97.05 L51.9 90.85 51.9 88.75 51.9 86.7 49.85 86.7 49.85 84.65 49.85 82.55 49.85 74.3 45.7 74.3 45.7 76.4 43.65 76.4 43.65 74.3 45.7 74.3 45.7 72.25 45.7 70.2 43.65 70.2 43.65 72.25 41.6 72.25 41.6 74.3 39.5 74.3 39.5 78.45 37.45 78.45 37.45 74.3 39.5 74.3 39.5 72.25 41.6 72.25 41.6 70.2 43.65 70.2 43.65 66.05 41.6 66.05 41.6 59.85 43.65 59.85 43.65 61.9 43.65 66.05 45.7 66.05 45.7 70.2 47.8 70.2 47.8 72.25 49.85 72.25 51.9 72.25 51.9 70.2 53.95 70.2 53.95 72.25 51.9 72.25 51.9 84.65 53.95 84.65 53.95 88.75 53.95 90.85 53.95 92.9 53.95 97.05 51.9 97.05 M45.7 88.75 L43.65 88.75 43.65 86.7 45.7 86.7 45.7 88.75 M41.6 88.75 L39.5 88.75 39.5 86.7 41.6 86.7 41.6 88.75 M37.45 84.65 L35.4 84.65 35.4 78.45 37.45 78.45 37.45 84.65 M39.5 53.65 L39.5 45.4 41.6 45.4 41.6 41.25 43.65 41.25 43.65 43.35 43.65 45.4 41.6 45.4 41.6 47.45 41.6 51.6 41.6 53.65 39.5 53.65 M35.4 41.25 L29.2 41.25 29.2 39.2 27.15 39.2 27.15 37.15 25.05 37.15 25.05 26.8 27.15 26.8 27.15 22.7 29.2 22.7 29.2 24.75 29.2 26.8 27.15 26.8 27.15 28.9 27.15 37.15 29.2 37.15 29.2 39.2 31.25 39.2 35.4 39.2 35.4 41.25 M62.25 24.75 L64.3 24.75 64.3 26.8 66.35 26.8 66.35 28.9 64.3 28.9 64.3 26.8 62.25 26.8 62.25 24.75 M78.75 22.7 L78.75 24.75 76.7 24.75 76.7 26.8 74.6 26.8 72.55 26.8 72.55 24.75 74.6 24.75 76.7 24.75 76.7 22.7 78.75 22.7 M74.6 45.4 L76.7 45.4 76.7 47.45 74.6 47.45 74.6 45.4 M80.8 43.35 L80.8 41.25 82.9 41.25 82.9 43.35 80.8 43.35 M74.6 64.0 L76.7 64.0 76.7 59.85 78.75 59.85 78.75 55.7 80.8 55.7 80.8 53.65 82.9 53.65 82.9 51.6 89.1 51.6 89.1 53.65 82.9 53.65 82.9 55.7 80.8 55.7 80.8 59.85 78.75 59.85 78.75 64.0 76.7 64.0 76.7 68.1 74.6 68.1 74.6 70.2 70.5 70.2 70.5 68.1 68.45 68.1 68.45 66.05 66.35 66.05 64.3 66.05 64.3 68.1 66.35 68.1 66.35 70.2 62.25 70.2 62.25 68.1 62.25 61.9 58.1 61.9 56.05 61.9 56.05 64.0 53.95 64.0 53.95 61.9 56.05 61.9 56.05 59.85 64.3 59.85 64.3 64.0 68.45 64.0 68.45 66.05 70.5 66.05 70.5 68.1 72.55 68.1 74.6 68.1 74.6 66.05 74.6 64.0 M80.8 66.05 L80.8 64.0 82.9 64.0 82.9 66.05 80.8 66.05 M82.9 61.9 L82.9 59.85 84.95 59.85 84.95 57.8 87.0 57.8 87.0 59.85 84.95 59.85 84.95 61.9 87.0 61.9 87.0 64.0 84.95 64.0 84.95 61.9 82.9 61.9 M89.1 57.8 L91.15 57.8 91.15 59.85 89.1 59.85 89.1 57.8 M91.15 61.9 L93.2 61.9 93.2 64.0 89.1 64.0 89.1 61.9 91.15 61.9 M70.5 74.3 L68.45 74.3 68.45 72.25 70.5 72.25 70.5 74.3 M58.1 84.65 L58.1 82.55 56.05 82.55 56.05 80.5 53.95 80.5 53.95 78.45 56.05 78.45 56.05 80.5 58.1 80.5 58.1 82.55 62.25 82.55 62.25 80.5 62.25 78.45 64.3 78.45 64.3 92.9 62.25 92.9 62.25 97.05 60.15 97.05 60.15 94.95 60.15 92.9 62.25 92.9 62.25 88.75 62.25 86.7 62.25 84.65 60.15 84.65 58.1 84.65 M87.0 80.5 L87.0 78.45 89.1 78.45 89.1 80.5 91.15 80.5 91.15 82.55 89.1 82.55 89.1 80.5 87.0 80.5 M58.1 33.0 L60.15 33.0 60.15 37.15 62.25 37.15 62.25 39.2 60.15 39.2 60.15 37.15 58.1 37.15 58.1 33.0 M41.6 33.0 L41.6 35.05 39.5 35.05 37.45 35.05 37.45 37.15 33.3 37.15 33.3 35.05 31.25 35.05 31.25 28.9 33.3 28.9 33.3 35.05 37.45 35.05 37.45 33.0 41.6 33.0 M53.95 51.6 L53.95 49.55 56.05 49.55 56.05 47.45 58.1 47.45 58.1 45.4 62.25 45.4 62.25 47.45 60.15 47.45 58.1 47.45 58.1 49.55 56.05 49.55 56.05 51.6 53.95 51.6 M68.45 35.05 L70.5 35.05 70.5 39.2 66.35 39.2 66.35 37.15 68.45 37.15 68.45 35.05 M39.5 84.65 L39.5 80.5 41.6 80.5 41.6 82.55 41.6 84.65 39.5 84.65 M41.6 80.5 L41.6 76.4 43.65 76.4 43.65 80.5 41.6 80.5 M43.65 84.65 L43.65 82.55 45.7 82.55 45.7 84.65 43.65 84.65 M51.9 57.8 L51.9 59.85 49.85 59.85 47.8 59.85 47.8 57.8 51.9 57.8 M49.85 53.65 L49.85 55.7 47.8 55.7 47.8 53.65 49.85 53.65 M51.9 66.05 L51.9 64.0 49.85 64.0 49.85 61.9 51.9 61.9 51.9 64.0 53.95 64.0 53.95 68.1 51.9 68.1 51.9 66.05" fill="#834162" fill-rule="evenodd" stroke="none"/>
    <path d="M80.8 33.0 L80.8 35.05 80.8 37.15 78.75 37.15 78.75 39.2 76.7 39.2 76.7 41.25 74.6 41.25 72.55 41.25 72.55 43.35 74.6 43.35 74.6 45.4 74.6 47.45 74.6 51.6 72.55 51.6 72.55 55.7 70.5 55.7 70.5 59.85 68.45 59.85 68.45 61.9 70.5 61.9 70.5 64.0 74.6 64.0 74.6 66.05 72.55 66.05 70.5 66.05 70.5 64.0 68.45 64.0 68.45 61.9 66.35 61.9 66.35 59.85 68.45 59.85 68.45 55.7 70.5 55.7 70.5 51.6 72.55 51.6 72.55 47.45 72.55 43.35 70.5 43.35 70.5 39.2 72.55 39.2 76.7 39.2 76.7 37.15 78.75 37.15 78.75 33.0 80.8 33.0 M120.05 37.15 L120.05 41.25 118.0 41.25 118.0 43.35 115.95 43.35 115.95 45.4 111.8 45.4 111.8 49.55 109.75 49.55 109.75 47.45 105.6 47.45 105.6 45.4 103.55 45.4 101.45 45.4 101.45 43.35 97.35 43.35 97.35 41.25 95.3 41.25 95.3 39.2 89.1 39.2 89.1 41.25 84.95 41.25 84.95 39.2 89.1 39.2 89.1 37.15 95.3 37.15 95.3 39.2 97.35 39.2 97.35 41.25 101.45 41.25 101.45 43.35 105.6 43.35 105.6 45.4 107.65 45.4 111.8 45.4 111.8 43.35 113.85 43.35 115.95 43.35 115.95 41.25 118.0 41.25 118.0 39.2 118.0 37.15 120.05 37.15 M113.85 53.65 L113.85 57.8 111.8 57.8 111.8 53.65 113.85 53.65 M111.8 59.85 L111.8 64.0 109.75 64.0 109.75 66.05 107.65 66.05 107.65 68.1 103.55 68.1 103.55 70.2 101.45 70.2 101.45 68.1 103.55 68.1 103.55 66.05 105.6 66.05 107.65 66.05 107.65 64.0 109.75 64.0 109.75 59.85 111.8 59.85 M105.6 78.45 L105.6 82.55 103.55 82.55 103.55 78.45 105.6 78.45 M97.35 90.85 L97.35 92.9 95.3 92.9 95.3 97.05 93.2 97.05 93.2 101.15 91.15 101.15 91.15 103.2 89.1 103.2 89.1 105.3 82.9 105.3 82.9 99.1 84.95 99.1 84.95 97.05 87.0 97.05 87.0 99.1 84.95 99.1 84.95 101.15 84.95 103.2 87.0 103.2 89.1 103.2 89.1 101.15 91.15 101.15 91.15 97.05 93.2 97.05 93.2 92.9 95.3 92.9 95.3 88.75 97.35 88.75 97.35 90.85 M82.9 84.65 L76.7 84.65 76.7 82.55 82.9 82.55 87.0 82.55 87.0 84.65 84.95 84.65 82.9 84.65 M74.6 84.65 L74.6 86.7 72.55 86.7 72.55 94.95 70.5 94.95 70.5 101.15 68.45 101.15 68.45 94.95 70.5 94.95 70.5 90.85 70.5 86.7 72.55 86.7 72.55 84.65 72.55 82.55 74.6 82.55 74.6 84.65 M66.35 107.35 L66.35 109.4 64.3 109.4 64.3 111.5 58.1 111.5 58.1 109.4 60.15 109.4 62.25 109.4 64.3 109.4 64.3 107.35 66.35 107.35 M56.05 109.4 L49.85 109.4 49.85 107.35 51.9 107.35 53.95 107.35 56.05 107.35 56.05 109.4 M51.9 90.85 L45.7 90.85 45.7 88.75 47.8 88.75 51.9 88.75 51.9 90.85 M43.65 88.75 L41.6 88.75 41.6 86.7 43.65 86.7 43.65 88.75 M39.5 86.7 L37.45 86.7 37.45 84.65 39.5 84.65 39.5 86.7 M41.6 59.85 L41.6 55.7 39.5 55.7 39.5 53.65 41.6 53.65 41.6 55.7 43.65 55.7 43.65 59.85 47.8 59.85 49.85 59.85 49.85 61.9 47.8 61.9 43.65 61.9 43.65 59.85 41.6 59.85 M39.5 41.25 L35.4 41.25 35.4 39.2 39.5 39.2 39.5 37.15 41.6 37.15 41.6 39.2 39.5 39.2 39.5 41.25 M107.65 39.2 L109.75 39.2 109.75 41.25 105.6 41.25 105.6 39.2 107.65 39.2 M76.7 45.4 L78.75 45.4 78.75 43.35 80.8 43.35 80.8 45.4 78.75 45.4 78.75 47.45 76.7 47.45 76.7 45.4 M82.9 41.25 L84.95 41.25 84.95 43.35 82.9 43.35 82.9 41.25 M89.1 51.6 L91.15 51.6 91.15 53.65 93.2 53.65 93.2 55.7 95.3 55.7 95.3 59.85 97.35 59.85 97.35 64.0 95.3 64.0 95.3 59.85 93.2 59.85 93.2 55.7 91.15 55.7 91.15 53.65 89.1 53.65 89.1 51.6 M70.5 72.25 L76.7 72.25 76.7 70.2 78.75 70.2 78.75 68.1 80.8 68.1 80.8 66.05 82.9 66.05 82.9 68.1 80.8 68.1 80.8 70.2 78.75 70.2 78.75 72.25 76.7 72.25 76.7 74.3 70.5 74.3 70.5 72.25 M82.9 64.0 L82.9 61.9 84.95 61.9 84.95 64.0 82.9 64.0 M91.15 59.85 L91.15 61.9 89.1 61.9 89.1 64.0 87.0 64.0 87.0 61.9 89.1 61.9 89.1 59.85 91.15 59.85 M89.1 59.85 L87.0 59.85 87.0 57.8 89.1 57.8 89.1 59.85 M68.45 72.25 L66.35 72.25 66.35 70.2 68.45 70.2 68.45 72.25 M62.25 70.2 L62.25 72.25 58.1 72.25 58.1 74.3 53.95 74.3 53.95 72.25 58.1 72.25 58.1 70.2 60.15 70.2 60.15 68.1 62.25 68.1 62.25 70.2 M62.25 97.05 L62.25 99.1 60.15 99.1 60.15 97.05 58.1 97.05 58.1 94.95 60.15 94.95 60.15 97.05 62.25 97.05 M60.15 101.15 L60.15 105.3 58.1 105.3 58.1 101.15 60.15 101.15 M91.15 84.65 L93.2 84.65 93.2 86.7 91.15 86.7 91.15 84.65 M41.6 18.55 L43.65 18.55 43.65 20.6 41.6 20.6 41.6 22.7 39.5 22.7 39.5 20.6 41.6 20.6 41.6 18.55 M62.25 41.25 L62.25 39.2 64.3 39.2 66.35 39.2 66.35 41.25 64.3 41.25 62.25 41.25 M35.4 24.75 L37.45 24.75 37.45 22.7 39.5 22.7 39.5 24.75 37.45 24.75 37.45 26.8 35.4 26.8 35.4 28.9 33.3 28.9 33.3 26.8 35.4 26.8 35.4 24.75 M43.65 72.25 L43.65 70.2 45.7 70.2 45.7 72.25 43.65 72.25 M41.6 82.55 L41.6 80.5 43.65 80.5 43.65 82.55 41.6 82.55 M49.85 66.05 L49.85 64.0 51.9 64.0 51.9 66.05 49.85 66.05 M62.25 86.7 L62.25 88.75 60.15 88.75 60.15 86.7 62.25 86.7 M49.85 82.55 L49.85 84.65 45.7 84.65 45.7 82.55 49.85 82.55 M56.05 90.85 L56.05 92.9 58.1 92.9 58.1 94.95 56.05 94.95 56.05 92.9 53.95 92.9 53.95 90.85 56.05 90.85" fill="#101010" fill-rule="evenodd" stroke="none"/>
    <path d="M109.75 37.15 L111.8 37.15 111.8 35.05 113.85 35.05 113.85 33.0 118.0 33.0 118.0 35.05 120.05 35.05 120.05 37.15 118.0 37.15 115.95 37.15 115.95 35.05 113.85 35.05 113.85 37.15 115.95 37.15 115.95 39.2 118.0 39.2 118.0 41.25 115.95 41.25 115.95 43.35 113.85 43.35 113.85 41.25 115.95 41.25 115.95 39.2 113.85 39.2 113.85 37.15 111.8 37.15 111.8 39.2 109.75 39.2 109.75 37.15 M33.3 18.55 L33.3 16.5 35.4 16.5 35.4 14.4 39.5 14.4 39.5 16.5 41.6 16.5 43.65 16.5 43.65 18.55 41.6 18.55 37.45 18.55 37.45 16.5 35.4 16.5 35.4 18.55 33.3 18.55 M53.95 88.75 L56.05 88.75 56.05 86.7 58.1 86.7 58.1 84.65 60.15 84.65 60.15 86.7 58.1 86.7 58.1 88.75 56.05 88.75 56.05 90.85 53.95 90.85 53.95 88.75 M43.65 45.4 L45.7 45.4 45.7 47.45 43.65 47.45 41.6 47.45 41.6 45.4 43.65 45.4 M62.25 47.45 L64.3 47.45 64.3 49.55 66.35 49.55 66.35 53.65 62.25 53.65 62.25 55.7 58.1 55.7 58.1 53.65 62.25 53.65 62.25 51.6 64.3 51.6 64.3 49.55 62.25 49.55 62.25 47.45 M56.05 51.6 L56.05 49.55 58.1 49.55 58.1 51.6 56.05 51.6 M60.15 92.9 L60.15 94.95 58.1 94.95 58.1 92.9 60.15 92.9 M58.1 88.75 L60.15 88.75 60.15 90.85 58.1 90.85 58.1 88.75" fill="#7b9cb4" fill-rule="evenodd" stroke="none"/>
    <path d="M111.8 43.35 L111.8 41.25 109.75 41.25 109.75 39.2 111.8 39.2 111.8 37.15 113.85 37.15 113.85 39.2 115.95 39.2 115.95 41.25 113.85 41.25 113.85 43.35 111.8 43.35 M113.85 35.05 L115.95 35.05 115.95 37.15 118.0 37.15 118.0 39.2 115.95 39.2 115.95 37.15 113.85 37.15 113.85 35.05 M41.6 18.55 L41.6 20.6 39.5 20.6 39.5 22.7 37.45 22.7 37.45 24.75 35.4 24.75 35.4 22.7 33.3 22.7 33.3 20.6 33.3 18.55 35.4 18.55 35.4 16.5 37.45 16.5 37.45 18.55 41.6 18.55 M41.6 47.45 L43.65 47.45 43.65 49.55 43.65 51.6 41.6 51.6 41.6 47.45 M58.1 53.65 L56.05 53.65 56.05 51.6 58.1 51.6 60.15 51.6 60.15 47.45 62.25 47.45 62.25 49.55 64.3 49.55 64.3 51.6 62.25 51.6 62.25 53.65 58.1 53.65 M62.25 88.75 L62.25 92.9 60.15 92.9 58.1 92.9 56.05 92.9 56.05 90.85 56.05 88.75 58.1 88.75 58.1 86.7 60.15 86.7 60.15 88.75 62.25 88.75 M58.1 88.75 L58.1 90.85 60.15 90.85 60.15 88.75 58.1 88.75" fill="#94e6ee" fill-rule="evenodd" stroke="none"/>
    <path d="M76.7 20.6 L76.7 22.7 76.7 24.75 74.6 24.75 74.6 20.6 76.7 20.6 M105.6 43.35 L105.6 41.25 109.75 41.25 111.8 41.25 111.8 43.35 111.8 45.4 107.65 45.4 107.65 43.35 105.6 43.35 M43.65 18.55 L45.7 18.55 45.7 22.7 47.8 22.7 47.8 30.95 45.7 30.95 45.7 28.9 45.7 22.7 43.65 22.7 43.65 20.6 43.65 18.55 M29.2 22.7 L31.25 22.7 31.25 20.6 33.3 20.6 33.3 22.7 35.4 22.7 35.4 24.75 35.4 26.8 33.3 26.8 31.25 26.8 31.25 24.75 29.2 24.75 29.2 22.7" fill="#529cde" fill-rule="evenodd" stroke="none"/>
    <path d="M93.2 61.9 L93.2 59.85 95.3 59.85 95.3 64.0 93.2 64.0 93.2 61.9 M41.6 33.0 L43.65 33.0 43.65 35.05 41.6 35.05 41.6 33.0 M43.65 43.35 L45.7 43.35 45.7 45.4 43.65 45.4 43.65 43.35 M41.6 86.7 L41.6 84.65 43.65 84.65 45.7 84.65 45.7 86.7 47.8 86.7 47.8 88.75 45.7 88.75 45.7 86.7 43.65 86.7 41.6 86.7 M70.5 66.05 L72.55 66.05 72.55 68.1 70.5 68.1 70.5 66.05 M66.35 66.05 L68.45 66.05 68.45 68.1 70.5 68.1 70.5 70.2 68.45 70.2 68.45 68.1 66.35 68.1 66.35 66.05" fill="#ffd5de" fill-rule="evenodd" stroke="none"/>
    <path d="M93.2 59.85 L91.15 59.85 91.15 57.8 89.1 57.8 89.1 55.7 87.0 55.7 87.0 57.8 84.95 57.8 84.95 59.85 82.9 59.85 82.9 61.9 82.9 64.0 80.8 64.0 80.8 66.05 80.8 68.1 78.75 68.1 78.75 70.2 76.7 70.2 76.7 72.25 70.5 72.25 70.5 70.2 74.6 70.2 74.6 68.1 76.7 68.1 76.7 64.0 78.75 64.0 78.75 59.85 80.8 59.85 80.8 55.7 82.9 55.7 82.9 53.65 89.1 53.65 91.15 53.65 91.15 55.7 93.2 55.7 93.2 59.85" fill="#ffecf0" fill-rule="evenodd" stroke="none"/>
    <path d="M89.1 64.0 L93.2 64.0 93.2 66.05 97.35 66.05 97.35 68.1 99.4 68.1 99.4 70.2 101.45 70.2 101.45 74.3 103.55 74.3 103.55 78.45 103.55 82.55 105.6 82.55 105.6 84.65 105.6 86.7 107.65 86.7 107.65 94.95 105.6 94.95 103.55 94.95 103.55 97.05 101.45 97.05 101.45 90.85 99.4 90.85 99.4 88.75 99.4 86.7 97.35 86.7 95.3 86.7 95.3 84.65 93.2 84.65 93.2 82.55 91.15 82.55 91.15 80.5 89.1 80.5 89.1 78.45 87.0 78.45 87.0 80.5 82.9 80.5 82.9 82.55 76.7 82.55 76.7 78.45 74.6 78.45 74.6 80.5 72.55 80.5 72.55 82.55 72.55 84.65 70.5 84.65 70.5 86.7 70.5 90.85 68.45 90.85 68.45 94.95 66.35 94.95 66.35 97.05 64.3 97.05 64.3 105.3 62.25 105.3 62.25 107.35 60.15 107.35 60.15 109.4 58.1 109.4 58.1 105.3 60.15 105.3 60.15 101.15 60.15 99.1 62.25 99.1 62.25 97.05 62.25 92.9 64.3 92.9 64.3 78.45 64.3 76.4 62.25 76.4 62.25 78.45 62.25 80.5 58.1 80.5 56.05 80.5 56.05 78.45 53.95 78.45 53.95 80.5 56.05 80.5 56.05 82.55 58.1 82.55 58.1 84.65 58.1 86.7 56.05 86.7 56.05 88.75 53.95 88.75 53.95 84.65 51.9 84.65 51.9 72.25 53.95 72.25 53.95 74.3 58.1 74.3 58.1 72.25 62.25 72.25 62.25 70.2 66.35 70.2 66.35 72.25 68.45 72.25 68.45 74.3 70.5 74.3 76.7 74.3 76.7 72.25 78.75 72.25 78.75 70.2 80.8 70.2 80.8 68.1 82.9 68.1 82.9 66.05 82.9 64.0 84.95 64.0 87.0 64.0 89.1 64.0 M87.0 78.45 L87.0 76.4 84.95 76.4 84.95 78.45 87.0 78.45" fill="#ffedf1" fill-rule="evenodd" stroke="none"/>
    <path d="M97.35 64.0 L99.4 64.0 99.4 68.1 97.35 68.1 97.35 66.05 93.2 66.05 93.2 64.0 95.3 64.0 97.35 64.0" fill="#853f59" fill-rule="evenodd" stroke="none"/>
    <path d="M107.65 86.7 L109.75 86.7 109.75 94.95 107.65 94.95 107.65 86.7" fill="#040404" fill-rule="evenodd" stroke="none"/>
    <path d="M107.65 94.95 L107.65 101.15 105.6 101.15 105.6 94.95 107.65 94.95" fill="#050505" fill-rule="evenodd" stroke="none"/>
    <path d="M66.35 28.9 L68.45 28.9 68.45 20.6 70.5 20.6 70.5 26.8 72.55 26.8 72.55 28.9 70.5 28.9 70.5 33.0 68.45 33.0 68.45 30.95 66.35 30.95 66.35 28.9" fill="#873d51" fill-rule="evenodd" stroke="none"/>
    <path d="M29.2 22.7 L29.2 20.6 31.25 20.6 31.25 18.55 33.3 18.55 33.3 20.6 31.25 20.6 31.25 22.7 29.2 22.7 M72.55 20.6 L74.6 20.6 74.6 18.55 76.7 18.55 76.7 20.6 74.6 20.6 74.6 24.75 72.55 24.75 72.55 20.6 M43.65 16.5 L45.7 16.5 45.7 18.55 47.8 18.55 47.8 22.7 49.85 22.7 49.85 33.0 47.8 33.0 47.8 30.95 47.8 22.7 45.7 22.7 45.7 18.55 43.65 18.55 43.65 16.5" fill="#52629c" fill-rule="evenodd" stroke="none"/>
    <path d="M41.6 22.7 L41.6 20.6 43.65 20.6 43.65 22.7 43.65 28.9 45.7 28.9 45.7 30.95 45.7 33.0 45.7 35.05 43.65 35.05 43.65 33.0 41.6 33.0 41.6 22.7" fill="#893a48" fill-rule="evenodd" stroke="none"/>
    <path d="M56.05 22.7 L62.25 22.7 62.25 24.75 58.1 24.75 58.1 33.0 53.95 33.0 53.95 30.95 56.05 30.95 56.05 22.7" fill="#84405d" fill-rule="evenodd" stroke="none"/>
    <path d="M58.1 33.0 L58.1 24.75 62.25 24.75 62.25 26.8 64.3 26.8 64.3 28.9 64.3 30.95 62.25 30.95 62.25 37.15 60.15 37.15 60.15 33.0 58.1 33.0" fill="#fff8f9" fill-rule="evenodd" stroke="none"/>
    <path d="M43.65 47.45 L45.7 47.45 47.8 47.45 47.8 49.55 49.85 49.55 49.85 47.45 51.9 47.45 51.9 45.4 53.95 45.4 53.95 43.35 58.1 43.35 58.1 41.25 62.25 41.25 64.3 41.25 64.3 43.35 68.45 43.35 68.45 45.4 70.5 45.4 70.5 47.45 72.55 47.45 72.55 51.6 70.5 51.6 70.5 55.7 68.45 55.7 68.45 59.85 66.35 59.85 64.3 59.85 56.05 59.85 56.05 61.9 53.95 61.9 53.95 64.0 51.9 64.0 51.9 61.9 49.85 61.9 49.85 59.85 51.9 59.85 53.95 59.85 53.95 57.8 51.9 57.8 47.8 57.8 47.8 59.85 43.65 59.85 43.65 55.7 41.6 55.7 41.6 53.65 45.7 53.65 45.7 49.55 43.65 49.55 43.65 47.45 M62.25 47.45 L62.25 45.4 58.1 45.4 58.1 47.45 56.05 47.45 56.05 49.55 53.95 49.55 53.95 51.6 53.95 53.65 56.05 53.65 58.1 53.65 58.1 55.7 62.25 55.7 62.25 53.65 66.35 53.65 66.35 49.55 64.3 49.55 64.3 47.45 62.25 47.45 M53.95 57.8 L56.05 57.8 56.05 55.7 53.95 55.7 53.95 57.8 M49.85 53.65 L47.8 53.65 47.8 55.7 49.85 55.7 49.85 53.65" fill="#fff4f6" fill-rule="evenodd" stroke="none"/>
    <path d="M58.1 49.55 L58.1 47.45 60.15 47.45 60.15 51.6 58.1 51.6 58.1 49.55 M27.15 28.9 L29.2 28.9 29.2 37.15 31.25 37.15 31.25 39.2 29.2 39.2 29.2 37.15 27.15 37.15 27.15 28.9 M37.45 78.45 L39.5 78.45 39.5 74.3 41.6 74.3 41.6 72.25 43.65 72.25 45.7 72.25 45.7 74.3 43.65 74.3 43.65 76.4 41.6 76.4 41.6 80.5 39.5 80.5 39.5 84.65 37.45 84.65 37.45 78.45 M45.7 70.2 L45.7 66.05 43.65 66.05 43.65 61.9 47.8 61.9 47.8 70.2 49.85 70.2 49.85 72.25 47.8 72.25 47.8 70.2 45.7 70.2" fill="#ffffff" fill-rule="evenodd" stroke="none"/>
    <path d="M78.75 24.75 L80.8 24.75 80.8 30.95 78.75 30.95 78.75 33.0 78.75 37.15 76.7 37.15 76.7 39.2 72.55 39.2 72.55 33.0 74.6 33.0 74.6 26.8 76.7 26.8 76.7 24.75 78.75 24.75" fill="#fff3f5" fill-rule="evenodd" stroke="none"/>
    <path d="M70.5 33.0 L70.5 28.9 72.55 28.9 72.55 26.8 74.6 26.8 74.6 33.0 72.55 33.0 72.55 39.2 70.5 39.2 70.5 35.05 70.5 33.0 M58.1 70.2 L58.1 72.25 53.95 72.25 53.95 70.2 53.95 68.1 53.95 64.0 56.05 64.0 56.05 61.9 58.1 61.9 58.1 68.1 56.05 68.1 56.05 70.2 58.1 70.2" fill="#ffb6cb" fill-rule="evenodd" stroke="none"/>
    <path d="M64.3 28.9 L66.35 28.9 66.35 30.95 66.35 33.0 68.45 33.0 68.45 35.05 64.3 35.05 64.3 39.2 62.25 39.2 62.25 37.15 62.25 30.95 64.3 30.95 64.3 28.9" fill="#ffb1c8" fill-rule="evenodd" stroke="none"/>
    <path d="M39.5 35.05 L39.5 37.15 39.5 39.2 35.4 39.2 31.25 39.2 31.25 37.15 29.2 37.15 29.2 28.9 27.15 28.9 27.15 26.8 29.2 26.8 29.2 24.75 31.25 24.75 31.25 26.8 33.3 26.8 33.3 28.9 31.25 28.9 31.25 35.05 33.3 35.05 33.3 37.15 37.45 37.15 37.45 35.05 39.5 35.05" fill="#fbc0d1" fill-rule="evenodd" stroke="none"/>
    <path d="M58.1 61.9 L62.25 61.9 62.25 68.1 60.15 68.1 60.15 70.2 58.1 70.2 56.05 70.2 56.05 68.1 58.1 68.1 58.1 61.9" fill="#fff9fa" fill-rule="evenodd" stroke="none"/>
    <path d="M56.05 53.65 L53.95 53.65 53.95 51.6 56.05 51.6 56.05 53.65" fill="#94b4cd" fill-rule="evenodd" stroke="none"/>
    <path d="M43.65 49.55 L45.7 49.55 45.7 53.65 41.6 53.65 41.6 51.6 43.65 51.6 43.65 49.55" fill="#83a4bc" fill-rule="evenodd" stroke="none"/>
    <path d="M51.9 97.05 L53.95 97.05 53.95 92.9 56.05 92.9 56.05 94.95 58.1 94.95 58.1 97.05 56.05 97.05 56.05 101.15 53.95 101.15 53.95 105.3 51.9 105.3 51.9 107.35 49.85 107.35 49.85 103.2 51.9 103.2 51.9 97.05" fill="#ffb3c9" fill-rule="evenodd" stroke="none"/>
  </g>
</svg>
