<?xml version="1.0" encoding="UTF-8" standalone="no"?>
<svg xmlns:xlink="http://www.w3.org/1999/xlink" height="115.65px" width="97.05px" xmlns="http://www.w3.org/2000/svg">
  <g transform="matrix(1.0, 0.0, 0.0, 1.0, -27.15, 4.15)">
    <path d="M53.95 -2.1 L51.9 -2.1 51.9 -4.15 56.05 -4.15 56.05 -2.1 53.95 -2.1 M51.9 -2.1 L51.9 4.1 49.85 4.1 49.85 14.4 47.8 14.4 47.8 4.1 49.85 4.1 49.85 -2.1 51.9 -2.1 M47.8 22.7 L49.85 22.7 49.85 26.8 47.8 26.8 47.8 24.75 47.8 22.7 M74.6 20.6 L74.6 16.5 76.7 16.5 76.7 14.4 78.75 14.4 78.75 10.3 80.8 10.3 80.8 8.25 82.9 8.25 82.9 6.15 84.95 6.15 84.95 4.1 87.0 4.1 87.0 2.05 89.1 2.05 89.1 -0.05 93.2 -0.05 93.2 2.05 89.1 2.05 89.1 4.1 87.0 4.1 87.0 6.15 84.95 6.15 84.95 8.25 82.9 8.25 82.9 10.3 80.8 10.3 80.8 14.4 78.75 14.4 78.75 16.5 76.7 16.5 76.7 18.55 76.7 20.6 74.6 20.6 M120.05 49.55 L120.05 53.65 118.0 53.65 118.0 49.55 120.05 49.55 M58.1 109.4 L56.05 109.4 56.05 107.35 56.05 105.3 58.1 105.3 58.1 109.4 M49.85 107.35 L47.8 107.35 47.8 103.2 49.85 103.2 49.85 97.05 51.9 97.05 51.9 103.2 49.85 103.2 49.85 107.35 M89.1 16.5 L89.1 18.55 87.0 18.55 87.0 16.5 89.1 16.5 M111.8 41.25 L113.85 41.25 113.85 43.35 113.85 49.55 111.8 49.55 111.8 53.65 109.75 53.65 109.75 57.8 107.65 57.8 107.65 53.65 109.75 53.65 109.75 49.55 111.8 49.55 111.8 41.25 M111.8 59.85 L111.8 57.8 115.95 57.8 115.95 59.85 113.85 59.85 111.8 59.85 M101.45 61.9 L103.55 61.9 103.55 59.85 105.6 59.85 105.6 57.8 107.65 57.8 107.65 59.85 109.75 59.85 109.75 61.9 107.65 61.9 107.65 59.85 105.6 59.85 105.6 61.9 103.55 61.9 103.55 64.0 101.45 64.0 101.45 61.9 M51.9 26.8 L51.9 28.9 49.85 28.9 49.85 26.8 51.9 26.8 M62.25 107.35 L62.25 109.4 60.15 109.4 60.15 107.35 62.25 107.35 M60.15 99.1 L60.15 101.15 58.1 101.15 58.1 99.1 60.15 99.1 M53.95 107.35 L51.9 107.35 51.9 105.3 53.95 105.3 53.95 107.35 M97.35 107.35 L97.35 105.3 99.4 105.3 99.4 107.35 97.35 107.35 M84.95 101.15 L87.0 101.15 87.0 103.2 84.95 103.2 84.95 101.15" fill="#8b3941" fill-rule="evenodd" stroke="none"/>
    <path d="M51.9 -2.1 L53.95 -2.1 53.95 -0.05 56.05 -0.05 56.05 2.05 56.05 6.15 58.1 6.15 58.1 18.55 56.05 18.55 56.05 10.3 53.95 10.3 53.95 8.25 51.9 8.25 51.9 10.3 51.9 18.55 49.85 18.55 49.85 22.7 47.8 22.7 47.8 14.4 49.85 14.4 49.85 4.1 51.9 4.1 51.9 -2.1 M118.0 45.4 L118.0 49.55 115.95 49.55 115.95 53.65 113.85 53.65 113.85 55.7 111.8 55.7 111.8 57.8 109.75 57.8 109.75 53.65 111.8 53.65 111.8 49.55 113.85 49.55 113.85 43.35 115.95 43.35 115.95 45.4 118.0 45.4 M93.2 6.15 L91.15 6.15 91.15 10.3 89.1 10.3 89.1 16.5 87.0 16.5 84.95 16.5 84.95 18.55 87.0 18.55 87.0 22.7 82.9 22.7 82.9 16.5 84.95 16.5 84.95 14.4 80.8 14.4 80.8 16.5 78.75 16.5 78.75 18.55 76.7 18.55 76.7 16.5 78.75 16.5 78.75 14.4 80.8 14.4 80.8 10.3 82.9 10.3 82.9 8.25 84.95 8.25 84.95 6.15 87.0 6.15 87.0 4.1 89.1 4.1 89.1 2.05 93.2 2.05 93.2 6.15 M111.8 59.85 L113.85 59.85 113.85 61.9 111.8 61.9 111.8 64.0 107.65 64.0 105.6 64.0 105.6 61.9 105.6 59.85 107.65 59.85 107.65 61.9 109.75 61.9 109.75 59.85 107.65 59.85 107.65 57.8 109.75 57.8 109.75 59.85 111.8 59.85 M70.5 20.6 L70.5 24.75 70.5 28.9 70.5 30.95 68.45 30.95 68.45 28.9 66.35 28.9 66.35 22.7 68.45 22.7 68.45 20.6 70.5 20.6 M74.6 22.7 L74.6 20.6 76.7 20.6 76.7 22.7 74.6 22.7 M53.95 18.55 L56.05 18.55 56.05 24.75 53.95 24.75 53.95 18.55 M47.8 26.8 L49.85 26.8 49.85 22.7 51.9 22.7 51.9 24.75 53.95 24.75 53.95 26.8 51.9 26.8 49.85 26.8 49.85 28.9 47.8 28.9 47.8 26.8 M56.05 28.9 L62.25 28.9 62.25 30.95 62.25 33.0 58.1 33.0 58.1 35.05 56.05 35.05 56.05 37.15 53.95 37.15 53.95 39.2 51.9 39.2 51.9 35.05 49.85 35.05 49.85 30.95 53.95 30.95 53.95 28.9 56.05 28.9 M29.2 24.75 L31.25 24.75 31.25 22.7 33.3 22.7 35.4 22.7 35.4 24.75 35.4 26.8 33.3 26.8 33.3 28.9 31.25 28.9 31.25 26.8 29.2 26.8 29.2 24.75 M49.85 55.7 L49.85 59.85 51.9 59.85 51.9 61.9 49.85 61.9 49.85 59.85 47.8 59.85 47.8 53.65 49.85 53.65 49.85 55.7 M51.9 97.05 L53.95 97.05 53.95 99.1 53.95 101.15 53.95 105.3 51.9 105.3 51.9 107.35 49.85 107.35 49.85 103.2 51.9 103.2 51.9 97.05 M62.25 97.05 L62.25 92.9 64.3 92.9 64.3 105.3 62.25 105.3 62.25 107.35 60.15 107.35 60.15 109.4 58.1 109.4 58.1 105.3 60.15 105.3 60.15 101.15 60.15 99.1 62.25 99.1 62.25 97.05" fill="#ffacc5" fill-rule="evenodd" stroke="none"/>
    <path d="M53.95 -2.1 L56.05 -2.1 56.05 -0.05 53.95 -0.05 53.95 -2.1 M56.05 18.55 L58.1 18.55 58.1 6.15 56.05 6.15 56.05 2.05 58.1 2.05 58.1 6.15 60.15 6.15 60.15 18.55 58.1 18.55 58.1 24.75 56.05 24.75 56.05 18.55 M93.2 6.15 L93.2 12.35 91.15 12.35 91.15 16.5 89.1 16.5 89.1 10.3 91.15 10.3 91.15 6.15 93.2 6.15 M89.1 18.55 L89.1 22.7 87.0 22.7 87.0 18.55 84.95 18.55 84.95 16.5 87.0 16.5 87.0 18.55 89.1 18.55 M109.75 57.8 L111.8 57.8 111.8 55.7 113.85 55.7 113.85 53.65 115.95 53.65 115.95 49.55 118.0 49.55 118.0 53.65 118.0 57.8 115.95 57.8 111.8 57.8 111.8 59.85 109.75 59.85 109.75 57.8 M105.6 61.9 L105.6 64.0 107.65 64.0 107.65 66.05 103.55 66.05 101.45 66.05 101.45 64.0 103.55 64.0 103.55 61.9 105.6 61.9 M64.3 92.9 L66.35 92.9 66.35 90.85 68.45 90.85 70.5 90.85 70.5 94.95 68.45 94.95 68.45 99.1 66.35 99.1 66.35 105.3 64.3 105.3 64.3 92.9 M101.45 92.9 L103.55 92.9 103.55 90.85 107.65 90.85 107.65 94.95 105.6 94.95 105.6 99.1 103.55 99.1 103.55 103.2 101.45 103.2 101.45 107.35 99.4 107.35 99.4 105.3 97.35 105.3 97.35 107.35 95.3 107.35 95.3 103.2 97.35 103.2 97.35 101.15 99.4 101.15 99.4 97.05 101.45 97.05 101.45 92.9 M89.1 90.85 L91.15 90.85 91.15 88.75 95.3 88.75 95.3 92.9 93.2 92.9 93.2 97.05 91.15 97.05 91.15 101.15 89.1 101.15 89.1 103.2 87.0 103.2 87.0 101.15 84.95 101.15 84.95 99.1 87.0 99.1 87.0 97.05 87.0 94.95 89.1 94.95 89.1 90.85 M70.5 24.75 L72.55 24.75 72.55 26.8 74.6 26.8 76.7 26.8 76.7 28.9 74.6 28.9 74.6 30.95 72.55 30.95 72.55 28.9 70.5 28.9 70.5 24.75 M53.95 24.75 L56.05 24.75 56.05 26.8 56.05 28.9 53.95 28.9 53.95 30.95 49.85 30.95 49.85 35.05 51.9 35.05 51.9 39.2 53.95 39.2 53.95 37.15 56.05 37.15 56.05 35.05 58.1 35.05 58.1 33.0 62.25 33.0 62.25 30.95 64.3 30.95 64.3 33.0 62.25 33.0 62.25 35.05 58.1 35.05 58.1 37.15 56.05 37.15 56.05 39.2 53.95 39.2 53.95 41.25 51.9 41.25 51.9 39.2 49.85 39.2 49.85 37.15 49.85 35.05 47.8 35.05 47.8 33.0 47.8 30.95 47.8 28.9 49.85 28.9 51.9 28.9 51.9 26.8 53.95 26.8 53.95 24.75 M72.55 33.0 L72.55 35.05 74.6 35.05 74.6 39.2 76.7 39.2 76.7 43.35 74.6 43.35 74.6 39.2 72.55 39.2 72.55 37.15 70.5 37.15 70.5 35.05 68.45 35.05 68.45 33.0 72.55 33.0 M51.9 55.7 L51.9 57.8 56.05 57.8 56.05 59.85 53.95 59.85 51.9 59.85 49.85 59.85 49.85 55.7 51.9 55.7 M62.25 107.35 L62.25 105.3 64.3 105.3 64.3 109.4 62.25 109.4 62.25 107.35 M56.05 101.15 L56.05 103.2 56.05 105.3 56.05 107.35 53.95 107.35 53.95 105.3 53.95 101.15 56.05 101.15" fill="#de83a4" fill-rule="evenodd" stroke="none"/>
    <path d="M56.05 2.05 L56.05 -0.05 56.05 -2.1 58.1 -2.1 58.1 2.05 60.15 2.05 60.15 6.15 62.25 6.15 62.25 16.5 62.25 18.55 60.15 18.55 60.15 6.15 58.1 6.15 58.1 2.05 56.05 2.05 M93.2 2.05 L95.3 2.05 95.3 12.35 93.2 12.35 93.2 16.5 91.15 16.5 91.15 12.35 93.2 12.35 93.2 6.15 93.2 2.05 M107.65 80.5 L107.65 82.55 105.6 82.55 105.6 80.5 107.65 80.5 M107.65 94.95 L107.65 99.1 105.6 99.1 105.6 103.2 103.55 103.2 103.55 107.35 101.45 107.35 101.45 109.4 93.2 109.4 93.2 103.2 95.3 103.2 95.3 101.15 97.35 101.15 97.35 97.05 99.4 97.05 99.4 101.15 97.35 101.15 97.35 103.2 95.3 103.2 95.3 107.35 97.35 107.35 99.4 107.35 101.45 107.35 101.45 103.2 103.55 103.2 103.55 99.1 105.6 99.1 105.6 94.95 107.65 94.95 M56.05 24.75 L58.1 24.75 58.1 18.55 60.15 18.55 60.15 20.6 60.15 24.75 58.1 24.75 58.1 26.8 56.05 26.8 56.05 24.75" fill="#000000" fill-rule="evenodd" stroke="none"/>
    <path d="M118.0 35.05 L120.05 35.05 120.05 37.15 122.1 37.15 122.1 39.2 124.2 39.2 124.2 43.35 122.1 43.35 122.1 45.4 120.05 45.4 120.05 43.35 122.1 43.35 122.1 39.2 120.05 39.2 120.05 37.15 118.0 37.15 118.0 35.05 M115.95 37.15 L118.0 37.15 118.0 39.2 115.95 39.2 115.95 41.25 113.85 41.25 113.85 39.2 115.95 39.2 115.95 37.15 M115.95 43.35 L115.95 41.25 120.05 41.25 120.05 43.35 118.0 43.35 115.95 43.35 M53.95 97.05 L56.05 97.05 56.05 94.95 58.1 94.95 58.1 97.05 56.05 97.05 56.05 99.1 58.1 99.1 58.1 101.15 58.1 103.2 56.05 103.2 56.05 101.15 56.05 99.1 53.95 99.1 53.95 97.05 M47.8 28.9 L47.8 30.95 45.7 30.95 43.65 30.95 43.65 28.9 45.7 28.9 45.7 26.8 47.8 26.8 47.8 28.9 M41.6 24.75 L43.65 24.75 43.65 26.8 39.5 26.8 39.5 24.75 41.6 24.75 M39.5 30.95 L41.6 30.95 41.6 33.0 39.5 33.0 39.5 30.95 M47.8 37.15 L49.85 37.15 49.85 39.2 47.8 39.2 47.8 37.15 M60.15 41.25 L62.25 41.25 62.25 43.35 60.15 43.35 60.15 41.25 M66.35 39.2 L68.45 39.2 68.45 41.25 70.5 41.25 70.5 45.4 66.35 45.4 66.35 47.45 62.25 47.45 62.25 45.4 66.35 45.4 66.35 43.35 68.45 43.35 68.45 41.25 66.35 41.25 66.35 39.2" fill="#7b9cb4" fill-rule="evenodd" stroke="none"/>
    <path d="M87.0 28.9 L87.0 30.95 84.95 30.95 84.95 33.0 82.9 33.0 82.9 35.05 80.8 35.05 80.8 37.15 76.7 37.15 76.7 39.2 74.6 39.2 74.6 35.05 72.55 35.05 72.55 33.0 74.6 33.0 74.6 35.05 80.8 35.05 80.8 33.0 82.9 33.0 82.9 30.95 84.95 30.95 84.95 28.9 87.0 28.9 M113.85 33.0 L115.95 33.0 115.95 35.05 118.0 35.05 118.0 37.15 115.95 37.15 115.95 35.05 113.85 35.05 113.85 33.0 M124.2 43.35 L124.2 45.4 122.1 45.4 122.1 47.45 120.05 47.45 120.05 49.55 118.0 49.55 118.0 45.4 120.05 45.4 122.1 45.4 122.1 43.35 124.2 43.35 M120.05 53.65 L120.05 57.8 118.0 57.8 118.0 59.85 115.95 59.85 115.95 61.9 113.85 61.9 113.85 64.0 111.8 64.0 111.8 66.05 107.65 66.05 107.65 68.1 103.55 68.1 103.55 66.05 107.65 66.05 107.65 64.0 111.8 64.0 111.8 61.9 113.85 61.9 113.85 59.85 115.95 59.85 115.95 57.8 118.0 57.8 118.0 53.65 120.05 53.65 M105.6 74.3 L105.6 78.45 103.55 78.45 103.55 74.3 105.6 74.3 M97.35 88.75 L97.35 92.9 95.3 92.9 95.3 97.05 93.2 97.05 93.2 101.15 91.15 101.15 91.15 103.2 89.1 103.2 89.1 105.3 82.9 105.3 82.9 99.1 84.95 99.1 84.95 97.05 87.0 97.05 87.0 99.1 84.95 99.1 84.95 101.15 84.95 103.2 87.0 103.2 89.1 103.2 89.1 101.15 91.15 101.15 91.15 97.05 93.2 97.05 93.2 92.9 95.3 92.9 95.3 88.75 95.3 84.65 97.35 84.65 97.35 88.75 M82.9 80.5 L76.7 80.5 76.7 82.55 74.6 82.55 74.6 86.7 72.55 86.7 72.55 94.95 70.5 94.95 70.5 99.1 68.45 99.1 68.45 105.3 66.35 105.3 66.35 109.4 64.3 109.4 64.3 111.5 58.1 111.5 58.1 109.4 60.15 109.4 62.25 109.4 64.3 109.4 64.3 105.3 66.35 105.3 66.35 99.1 68.45 99.1 68.45 94.95 70.5 94.95 70.5 90.85 70.5 88.75 70.5 86.7 72.55 86.7 72.55 84.65 72.55 82.55 74.6 82.55 74.6 80.5 76.7 80.5 76.7 78.45 82.9 78.45 87.0 78.45 87.0 80.5 84.95 80.5 82.9 80.5 M56.05 109.4 L49.85 109.4 49.85 107.35 51.9 107.35 53.95 107.35 56.05 107.35 56.05 109.4 M51.9 88.75 L49.85 88.75 49.85 86.7 47.8 86.7 47.8 84.65 45.7 84.65 45.7 82.55 43.65 82.55 43.65 78.45 45.7 78.45 45.7 82.55 47.8 82.55 47.8 84.65 49.85 84.65 49.85 86.7 51.9 86.7 51.9 88.75 M47.8 66.05 L47.8 64.0 51.9 64.0 51.9 61.9 53.95 61.9 56.05 61.9 56.05 64.0 58.1 64.0 62.25 64.0 62.25 61.9 64.3 61.9 64.3 64.0 66.35 64.0 66.35 66.05 74.6 66.05 74.6 64.0 78.75 64.0 78.75 61.9 80.8 61.9 80.8 59.85 84.95 59.85 84.95 61.9 80.8 61.9 80.8 64.0 78.75 64.0 78.75 66.05 74.6 66.05 74.6 68.1 66.35 68.1 66.35 66.05 56.05 66.05 56.05 64.0 53.95 64.0 53.95 66.05 51.9 66.05 51.9 68.1 49.85 68.1 49.85 66.05 47.8 66.05 M43.65 51.6 L43.65 49.55 45.7 49.55 45.7 51.6 43.65 51.6 M45.7 35.05 L39.5 35.05 39.5 33.0 35.4 33.0 35.4 30.95 31.25 30.95 31.25 28.9 33.3 28.9 35.4 28.9 35.4 30.95 39.5 30.95 39.5 33.0 41.6 33.0 45.7 33.0 45.7 30.95 47.8 30.95 47.8 33.0 45.7 33.0 45.7 35.05 M29.2 26.8 L27.15 26.8 27.15 24.75 29.2 24.75 29.2 26.8 M35.4 16.5 L37.45 16.5 37.45 18.55 35.4 18.55 35.4 16.5 M91.15 47.45 L91.15 45.4 101.45 45.4 101.45 43.35 105.6 43.35 105.6 41.25 107.65 41.25 107.65 39.2 109.75 39.2 113.85 39.2 113.85 41.25 115.95 41.25 115.95 43.35 113.85 43.35 113.85 41.25 111.8 41.25 107.65 41.25 107.65 43.35 105.6 43.35 105.6 45.4 101.45 45.4 101.45 47.45 91.15 47.45 M118.0 43.35 L118.0 45.4 115.95 45.4 115.95 43.35 118.0 43.35 M93.2 53.65 L97.35 53.65 97.35 55.7 99.4 55.7 99.4 57.8 101.45 57.8 101.45 61.9 99.4 61.9 99.4 59.85 99.4 57.8 97.35 57.8 97.35 55.7 95.3 55.7 93.2 55.7 93.2 53.65 M89.1 59.85 L87.0 59.85 87.0 57.8 89.1 57.8 89.1 59.85 M51.9 78.45 L51.9 80.5 49.85 80.5 49.85 78.45 51.9 78.45 M58.1 94.95 L58.1 92.9 60.15 92.9 60.15 94.95 58.1 94.95 M95.3 59.85 L93.2 59.85 93.2 57.8 95.3 57.8 95.3 59.85 M47.8 53.65 L47.8 51.6 49.85 51.6 49.85 53.65 51.9 53.65 51.9 55.7 49.85 55.7 49.85 53.65 47.8 53.65 M91.15 80.5 L93.2 80.5 93.2 82.55 91.15 82.55 91.15 80.5 M72.55 24.75 L74.6 24.75 74.6 26.8 72.55 26.8 72.55 24.75 M66.35 30.95 L68.45 30.95 70.5 30.95 72.55 30.95 72.55 33.0 68.45 33.0 66.35 33.0 66.35 30.95 M45.7 22.7 L47.8 22.7 47.8 24.75 45.7 24.75 45.7 26.8 43.65 26.8 43.65 24.75 45.7 24.75 45.7 22.7 M76.7 43.35 L76.7 39.2 78.75 39.2 78.75 41.25 78.75 47.45 76.7 47.45 76.7 43.35 M76.7 47.45 L76.7 51.6 74.6 51.6 74.6 53.65 72.55 53.65 72.55 57.8 70.5 57.8 70.5 59.85 74.6 59.85 74.6 61.9 72.55 61.9 70.5 61.9 70.5 59.85 68.45 59.85 68.45 57.8 70.5 57.8 70.5 55.7 70.5 53.65 72.55 53.65 72.55 51.6 74.6 51.6 74.6 47.45 76.7 47.45 M37.45 22.7 L39.5 22.7 39.5 24.75 37.45 24.75 37.45 22.7 M47.8 72.25 L49.85 72.25 49.85 78.45 47.8 78.45 47.8 72.25 M53.95 99.1 L56.05 99.1 56.05 101.15 53.95 101.15 53.95 99.1 M60.15 97.05 L62.25 97.05 62.25 99.1 60.15 99.1 60.15 97.05 M60.15 101.15 L60.15 105.3 58.1 105.3 56.05 105.3 56.05 103.2 58.1 103.2 58.1 101.15 60.15 101.15" fill="#101010" fill-rule="evenodd" stroke="none"/>
    <path d="M120.05 45.4 L118.0 45.4 118.0 43.35 120.05 43.35 120.05 41.25 115.95 41.25 115.95 39.2 118.0 39.2 118.0 37.15 120.05 37.15 120.05 39.2 122.1 39.2 122.1 43.35 120.05 43.35 120.05 45.4 M45.7 26.8 L45.7 28.9 43.65 28.9 43.65 30.95 45.7 30.95 45.7 33.0 41.6 33.0 41.6 30.95 39.5 30.95 35.4 30.95 35.4 28.9 37.45 28.9 37.45 26.8 39.5 26.8 43.65 26.8 45.7 26.8 M45.7 41.25 L47.8 41.25 47.8 43.35 45.7 43.35 45.7 41.25 M62.25 45.4 L60.15 45.4 60.15 43.35 62.25 43.35 64.3 43.35 64.3 39.2 66.35 39.2 66.35 41.25 68.45 41.25 68.45 43.35 66.35 43.35 66.35 45.4 62.25 45.4 M56.05 99.1 L56.05 97.05 58.1 97.05 58.1 94.95 60.15 94.95 60.15 97.05 60.15 99.1 58.1 99.1 56.05 99.1" fill="#94e6ee" fill-rule="evenodd" stroke="none"/>
    <path d="M91.15 16.5 L91.15 24.75 89.1 24.75 89.1 28.9 87.0 28.9 87.0 24.75 82.9 24.75 82.9 22.7 87.0 22.7 89.1 22.7 89.1 18.55 89.1 16.5 91.15 16.5" fill="#0a0a0a" fill-rule="evenodd" stroke="none"/>
    <path d="M51.9 10.3 L51.9 8.25 53.95 8.25 53.95 10.3 56.05 10.3 56.05 18.55 53.95 18.55 53.95 10.3 51.9 10.3 M80.8 16.5 L80.8 14.4 84.95 14.4 84.95 16.5 82.9 16.5 80.8 16.5 80.8 18.55 78.75 18.55 78.75 16.5 80.8 16.5 M78.75 22.7 L76.7 22.7 76.7 24.75 74.6 24.75 74.6 22.7 76.7 22.7 76.7 20.6 76.7 18.55 78.75 18.55 78.75 22.7 M51.9 22.7 L51.9 18.55 53.95 18.55 53.95 24.75 51.9 24.75 51.9 22.7" fill="#52629c" fill-rule="evenodd" stroke="none"/>
    <path d="M49.85 22.7 L49.85 18.55 51.9 18.55 51.9 10.3 53.95 10.3 53.95 18.55 51.9 18.55 51.9 22.7 49.85 22.7 M80.8 16.5 L82.9 16.5 82.9 22.7 78.75 22.7 78.75 18.55 80.8 18.55 80.8 16.5 M111.8 35.05 L113.85 35.05 115.95 35.05 115.95 37.15 115.95 39.2 113.85 39.2 109.75 39.2 109.75 37.15 111.8 37.15 111.8 35.05 M39.5 24.75 L39.5 26.8 37.45 26.8 37.45 28.9 35.4 28.9 33.3 28.9 33.3 26.8 35.4 26.8 35.4 24.75 37.45 24.75 39.5 24.75" fill="#529cde" fill-rule="evenodd" stroke="none"/>
    <path d="M82.9 24.75 L87.0 24.75 87.0 28.9 84.95 28.9 84.95 30.95 82.9 30.95 78.75 30.95 78.75 28.9 80.8 28.9 80.8 24.75 82.9 24.75" fill="#ffecf0" fill-rule="evenodd" stroke="none"/>
    <path d="M82.9 30.95 L82.9 33.0 80.8 33.0 80.8 35.05 74.6 35.05 74.6 33.0 72.55 33.0 72.55 30.95 74.6 30.95 74.6 28.9 76.7 28.9 76.7 26.8 76.7 24.75 80.8 24.75 80.8 28.9 78.75 28.9 78.75 30.95 76.7 30.95 76.7 33.0 78.75 33.0 78.75 30.95 82.9 30.95" fill="#ffbbce" fill-rule="evenodd" stroke="none"/>
    <path d="M62.25 16.5 L64.3 16.5 64.3 14.4 68.45 14.4 68.45 16.5 70.5 16.5 70.5 18.55 68.45 18.55 68.45 16.5 64.3 16.5 64.3 20.6 62.25 20.6 62.25 18.55 62.25 16.5 M84.95 33.0 L87.0 33.0 87.0 35.05 89.1 35.05 89.1 37.15 91.15 37.15 91.15 39.2 101.45 39.2 101.45 37.15 103.55 37.15 103.55 35.05 105.6 35.05 105.6 33.0 113.85 33.0 113.85 35.05 111.8 35.05 105.6 35.05 105.6 37.15 103.55 37.15 103.55 39.2 101.45 39.2 101.45 41.25 91.15 41.25 91.15 39.2 89.1 39.2 89.1 37.15 87.0 37.15 87.0 35.05 82.9 35.05 82.9 33.0 84.95 33.0 M103.55 68.1 L103.55 70.2 105.6 70.2 105.6 74.3 103.55 74.3 103.55 70.2 101.45 70.2 101.45 66.05 99.4 66.05 99.4 64.0 101.45 64.0 101.45 66.05 103.55 66.05 103.55 68.1 M105.6 78.45 L107.65 78.45 107.65 80.5 105.6 80.5 105.6 78.45 M99.4 97.05 L99.4 88.75 97.35 88.75 97.35 84.65 95.3 84.65 95.3 82.55 93.2 82.55 93.2 80.5 91.15 80.5 91.15 82.55 87.0 82.55 87.0 84.65 89.1 84.65 89.1 90.85 89.1 94.95 87.0 94.95 87.0 97.05 84.95 97.05 84.95 94.95 87.0 94.95 87.0 84.65 84.95 84.65 84.95 82.55 82.9 82.55 82.9 80.5 84.95 80.5 84.95 82.55 87.0 82.55 87.0 80.5 91.15 80.5 91.15 78.45 93.2 78.45 93.2 80.5 95.3 80.5 95.3 82.55 97.35 82.55 97.35 84.65 99.4 84.65 99.4 88.75 101.45 88.75 101.45 92.9 101.45 97.05 99.4 97.05 M51.9 97.05 L51.9 88.75 51.9 86.7 51.9 82.55 51.9 80.5 53.95 80.5 53.95 97.05 51.9 97.05 M43.65 78.45 L41.6 78.45 41.6 72.25 43.65 72.25 43.65 68.1 45.7 68.1 45.7 66.05 47.8 66.05 47.8 68.1 45.7 68.1 45.7 72.25 43.65 72.25 43.65 78.45 M47.8 64.0 L45.7 64.0 45.7 61.9 43.65 61.9 43.65 51.6 45.7 51.6 47.8 51.6 47.8 53.65 45.7 53.65 45.7 61.9 47.8 61.9 47.8 64.0 M43.65 49.55 L43.65 41.25 45.7 41.25 45.7 43.35 45.7 45.4 45.7 49.55 43.65 49.55 M31.25 28.9 L29.2 28.9 29.2 26.8 31.25 26.8 31.25 28.9 M27.15 24.75 L27.15 20.6 29.2 20.6 29.2 18.55 31.25 18.55 31.25 16.5 35.4 16.5 35.4 18.55 31.25 18.55 31.25 20.6 29.2 20.6 29.2 24.75 27.15 24.75 M37.45 18.55 L41.6 18.55 41.6 20.6 37.45 20.6 37.45 18.55 M82.9 22.7 L82.9 24.75 80.8 24.75 76.7 24.75 76.7 22.7 78.75 22.7 82.9 22.7 M82.9 39.2 L82.9 41.25 84.95 41.25 87.0 41.25 87.0 43.35 89.1 43.35 89.1 45.4 91.15 45.4 91.15 47.45 89.1 47.45 89.1 45.4 87.0 45.4 87.0 43.35 82.9 43.35 82.9 41.25 78.75 41.25 78.75 39.2 80.8 39.2 82.9 39.2 M99.4 61.9 L99.4 64.0 97.35 64.0 97.35 61.9 93.2 61.9 93.2 59.85 89.1 59.85 89.1 57.8 93.2 57.8 93.2 59.85 95.3 59.85 97.35 59.85 97.35 61.9 99.4 61.9 M87.0 59.85 L84.95 59.85 84.95 57.8 87.0 57.8 87.0 59.85 M51.9 68.1 L51.9 78.45 49.85 78.45 49.85 72.25 49.85 70.2 49.85 68.1 51.9 68.1 M60.15 92.9 L60.15 90.85 62.25 90.85 62.25 80.5 60.15 80.5 58.1 80.5 58.1 78.45 56.05 78.45 56.05 76.4 53.95 76.4 53.95 74.3 56.05 74.3 56.05 76.4 58.1 76.4 58.1 78.45 62.25 78.45 62.25 76.4 64.3 76.4 64.3 92.9 62.25 92.9 62.25 97.05 60.15 97.05 60.15 94.95 60.15 92.9 M87.0 76.4 L87.0 74.3 89.1 74.3 89.1 76.4 91.15 76.4 91.15 78.45 89.1 78.45 89.1 76.4 87.0 76.4 M74.6 59.85 L74.6 57.8 76.7 57.8 76.7 55.7 80.8 55.7 80.8 53.65 84.95 53.65 84.95 51.6 93.2 51.6 93.2 53.65 84.95 53.65 84.95 55.7 80.8 55.7 80.8 57.8 76.7 57.8 76.7 59.85 74.6 59.85 M53.95 61.9 L51.9 61.9 51.9 59.85 53.95 59.85 53.95 61.9 M64.3 30.95 L66.35 30.95 66.35 33.0 64.3 33.0 64.3 30.95 M70.5 30.95 L70.5 28.9 72.55 28.9 72.55 30.95 70.5 30.95 M60.15 41.25 L60.15 39.2 62.25 39.2 62.25 41.25 60.15 41.25 60.15 43.35 58.1 43.35 58.1 41.25 60.15 41.25 M62.25 39.2 L62.25 37.15 66.35 37.15 66.35 39.2 64.3 39.2 62.25 39.2 M53.95 45.4 L53.95 47.45 51.9 47.45 51.9 45.4 53.95 45.4 M56.05 51.6 L51.9 51.6 51.9 49.55 56.05 49.55 56.05 51.6 M76.7 24.75 L76.7 26.8 74.6 26.8 74.6 24.75 76.7 24.75 M33.3 22.7 L33.3 20.6 35.4 20.6 35.4 22.7 37.45 22.7 37.45 24.75 35.4 24.75 35.4 22.7 33.3 22.7 M70.5 61.9 L72.55 61.9 72.55 64.0 66.35 64.0 66.35 61.9 64.3 61.9 64.3 57.8 66.35 57.8 66.35 53.65 62.25 53.65 60.15 53.65 60.15 55.7 56.05 55.7 56.05 57.8 51.9 57.8 51.9 55.7 56.05 55.7 56.05 53.65 60.15 53.65 60.15 51.6 68.45 51.6 68.45 55.7 68.45 57.8 66.35 57.8 66.35 61.9 68.45 61.9 70.5 61.9" fill="#834162" fill-rule="evenodd" stroke="none"/>
    <path d="M82.9 35.05 L87.0 35.05 87.0 37.15 89.1 37.15 89.1 39.2 91.15 39.2 91.15 41.25 101.45 41.25 101.45 39.2 103.55 39.2 103.55 37.15 105.6 37.15 105.6 35.05 111.8 35.05 111.8 37.15 109.75 37.15 109.75 39.2 107.65 39.2 107.65 41.25 105.6 41.25 105.6 43.35 101.45 43.35 101.45 45.4 91.15 45.4 89.1 45.4 89.1 43.35 87.0 43.35 87.0 41.25 84.95 41.25 84.95 39.2 82.9 39.2 82.9 37.15 80.8 37.15 80.8 35.05 82.9 35.05" fill="#ffe4eb" fill-rule="evenodd" stroke="none"/>
    <path d="M84.95 41.25 L82.9 41.25 82.9 39.2 84.95 39.2 84.95 41.25 M80.8 37.15 L82.9 37.15 82.9 39.2 80.8 39.2 80.8 37.15 M101.45 61.9 L101.45 64.0 99.4 64.0 99.4 61.9 101.45 61.9 M60.15 90.85 L60.15 80.5 62.25 80.5 62.25 90.85 60.15 90.85 M58.1 76.4 L62.25 76.4 62.25 74.3 64.3 74.3 64.3 72.25 66.35 72.25 66.35 74.3 64.3 74.3 64.3 76.4 62.25 76.4 62.25 78.45 58.1 78.45 58.1 76.4 M68.45 90.85 L68.45 88.75 70.5 88.75 70.5 90.85 68.45 90.85 M70.5 86.7 L70.5 84.65 72.55 84.65 72.55 86.7 70.5 86.7 M72.55 82.55 L72.55 80.5 74.6 80.5 74.6 76.4 76.7 76.4 76.7 78.45 76.7 80.5 74.6 80.5 74.6 82.55 72.55 82.55 M82.9 78.45 L82.9 76.4 87.0 76.4 89.1 76.4 89.1 78.45 91.15 78.45 91.15 80.5 87.0 80.5 87.0 82.55 84.95 82.55 84.95 80.5 87.0 80.5 87.0 78.45 82.9 78.45 M87.0 74.3 L84.95 74.3 84.95 72.25 87.0 72.25 87.0 74.3 M97.35 82.55 L99.4 82.55 99.4 84.65 97.35 84.65 97.35 82.55 M95.3 55.7 L97.35 55.7 97.35 57.8 95.3 57.8 95.3 55.7 M99.4 59.85 L99.4 61.9 97.35 61.9 97.35 59.85 99.4 59.85 M93.2 57.8 L89.1 57.8 87.0 57.8 87.0 55.7 93.2 55.7 93.2 57.8 M95.3 82.55 L95.3 84.65 95.3 88.75 91.15 88.75 91.15 90.85 89.1 90.85 89.1 84.65 87.0 84.65 87.0 82.55 91.15 82.55 93.2 82.55 95.3 82.55 M41.6 22.7 L45.7 22.7 45.7 24.75 43.65 24.75 41.6 24.75 41.6 22.7 M47.8 24.75 L47.8 26.8 45.7 26.8 45.7 24.75 47.8 24.75 M58.1 26.8 L58.1 24.75 60.15 24.75 60.15 26.8 58.1 26.8 M56.05 49.55 L58.1 49.55 58.1 47.45 60.15 47.45 60.15 49.55 58.1 49.55 58.1 51.6 56.05 51.6 56.05 49.55 M68.45 55.7 L70.5 55.7 70.5 57.8 68.45 57.8 68.45 55.7 M68.45 59.85 L70.5 59.85 70.5 61.9 68.45 61.9 68.45 59.85 M47.8 72.25 L47.8 70.2 49.85 70.2 49.85 72.25 47.8 72.25 M51.9 80.5 L51.9 82.55 49.85 82.55 49.85 80.5 47.8 80.5 47.8 78.45 49.85 78.45 49.85 80.5 51.9 80.5" fill="#e6acc5" fill-rule="evenodd" stroke="none"/>
    <path d="M99.4 64.0 L99.4 66.05 101.45 66.05 101.45 70.2 103.55 70.2 103.55 74.3 103.55 78.45 105.6 78.45 105.6 80.5 105.6 82.55 107.65 82.55 107.65 90.85 103.55 90.85 103.55 92.9 101.45 92.9 101.45 88.75 99.4 88.75 99.4 84.65 99.4 82.55 97.35 82.55 95.3 82.55 95.3 80.5 93.2 80.5 93.2 78.45 91.15 78.45 91.15 76.4 89.1 76.4 89.1 74.3 87.0 74.3 87.0 76.4 82.9 76.4 82.9 78.45 76.7 78.45 76.7 76.4 74.6 76.4 74.6 80.5 72.55 80.5 72.55 82.55 72.55 84.65 70.5 84.65 70.5 86.7 70.5 88.75 68.45 88.75 68.45 90.85 66.35 90.85 66.35 92.9 64.3 92.9 64.3 76.4 64.3 74.3 66.35 74.3 66.35 72.25 64.3 72.25 64.3 74.3 62.25 74.3 62.25 76.4 58.1 76.4 56.05 76.4 56.05 74.3 53.95 74.3 53.95 76.4 56.05 76.4 56.05 78.45 58.1 78.45 58.1 80.5 60.15 80.5 60.15 90.85 60.15 92.9 58.1 92.9 58.1 94.95 56.05 94.95 56.05 97.05 53.95 97.05 53.95 80.5 51.9 80.5 51.9 78.45 51.9 68.1 51.9 66.05 53.95 66.05 53.95 64.0 56.05 64.0 56.05 66.05 66.35 66.05 66.35 68.1 74.6 68.1 74.6 66.05 78.75 66.05 78.75 64.0 80.8 64.0 80.8 61.9 84.95 61.9 84.95 59.85 87.0 59.85 89.1 59.85 93.2 59.85 93.2 61.9 97.35 61.9 97.35 64.0 99.4 64.0 M87.0 74.3 L87.0 72.25 84.95 72.25 84.95 74.3 87.0 74.3" fill="#fff2f4" fill-rule="evenodd" stroke="none"/>
    <path d="M80.8 37.15 L80.8 39.2 78.75 39.2 76.7 39.2 76.7 37.15 80.8 37.15 M93.2 55.7 L95.3 55.7 95.3 57.8 97.35 57.8 99.4 57.8 99.4 59.85 97.35 59.85 95.3 59.85 95.3 57.8 93.2 57.8 93.2 55.7 M66.35 64.0 L64.3 64.0 64.3 61.9 66.35 61.9 66.35 57.8 68.45 57.8 68.45 59.85 68.45 61.9 66.35 61.9 66.35 64.0 M47.8 35.05 L49.85 35.05 49.85 37.15 47.8 37.15 47.8 35.05" fill="#ffd5de" fill-rule="evenodd" stroke="none"/>
    <path d="M93.2 53.65 L93.2 55.7 87.0 55.7 87.0 57.8 84.95 57.8 84.95 59.85 80.8 59.85 80.8 61.9 78.75 61.9 78.75 64.0 74.6 64.0 74.6 66.05 66.35 66.05 66.35 64.0 72.55 64.0 72.55 61.9 74.6 61.9 74.6 59.85 76.7 59.85 76.7 57.8 80.8 57.8 80.8 55.7 84.95 55.7 84.95 53.65 93.2 53.65 M68.45 16.5 L68.45 18.55 70.5 18.55 70.5 20.6 68.45 20.6 68.45 22.7 66.35 22.7 66.35 28.9 68.45 28.9 68.45 30.95 66.35 30.95 64.3 30.95 64.3 26.8 62.25 26.8 62.25 20.6 64.3 20.6 64.3 16.5 68.45 16.5" fill="#fff1f4" fill-rule="evenodd" stroke="none"/>
    <path d="M107.65 82.55 L109.75 82.55 109.75 94.95 107.65 94.95 107.65 90.85 107.65 82.55" fill="#020202" fill-rule="evenodd" stroke="none"/>
    <path d="M70.5 18.55 L72.55 18.55 72.55 20.6 74.6 20.6 74.6 22.7 74.6 24.75 72.55 24.75 70.5 24.75 70.5 20.6 70.5 18.55" fill="#863d54" fill-rule="evenodd" stroke="none"/>
    <path d="M47.8 14.4 L47.8 22.7 45.7 22.7 41.6 22.7 41.6 20.6 45.7 20.6 45.7 14.4 47.8 14.4" fill="#883b4c" fill-rule="evenodd" stroke="none"/>
    <path d="M41.6 20.6 L41.6 22.7 41.6 24.75 39.5 24.75 39.5 22.7 37.45 22.7 35.4 22.7 35.4 20.6 33.3 20.6 33.3 22.7 31.25 22.7 31.25 24.75 29.2 24.75 29.2 20.6 31.25 20.6 31.25 18.55 35.4 18.55 37.45 18.55 37.45 20.6 41.6 20.6 M47.8 66.05 L49.85 66.05 49.85 68.1 49.85 70.2 47.8 70.2 47.8 72.25 47.8 78.45 47.8 80.5 49.85 80.5 49.85 82.55 51.9 82.55 51.9 86.7 49.85 86.7 49.85 84.65 47.8 84.65 47.8 82.55 45.7 82.55 45.7 78.45 43.65 78.45 43.65 72.25 45.7 72.25 45.7 68.1 47.8 68.1 47.8 66.05" fill="#ffeaee" fill-rule="evenodd" stroke="none"/>
    <path d="M60.15 20.6 L62.25 20.6 62.25 26.8 64.3 26.8 64.3 30.95 62.25 30.95 62.25 28.9 56.05 28.9 56.05 26.8 58.1 26.8 60.15 26.8 60.15 24.75 60.15 20.6" fill="#863e55" fill-rule="evenodd" stroke="none"/>
    <path d="M45.7 41.25 L45.7 35.05 45.7 33.0 47.8 33.0 47.8 35.05 47.8 37.15 47.8 39.2 47.8 41.25 45.7 41.25" fill="#873d51" fill-rule="evenodd" stroke="none"/>
    <path d="M47.8 41.25 L49.85 41.25 49.85 45.4 45.7 45.4 45.7 43.35 47.8 43.35 47.8 41.25" fill="#83a4bc" fill-rule="evenodd" stroke="none"/>
    <path d="M51.9 61.9 L51.9 64.0 47.8 64.0 47.8 61.9 45.7 61.9 45.7 53.65 47.8 53.65 47.8 59.85 49.85 59.85 49.85 61.9 51.9 61.9 M47.8 51.6 L45.7 51.6 45.7 49.55 45.7 45.4 49.85 45.4 49.85 41.25 47.8 41.25 47.8 39.2 49.85 39.2 51.9 39.2 51.9 41.25 53.95 41.25 53.95 39.2 56.05 39.2 56.05 37.15 58.1 37.15 58.1 35.05 62.25 35.05 62.25 33.0 64.3 33.0 66.35 33.0 68.45 33.0 68.45 35.05 70.5 35.05 70.5 37.15 72.55 37.15 72.55 39.2 74.6 39.2 74.6 43.35 76.7 43.35 76.7 47.45 74.6 47.45 74.6 51.6 72.55 51.6 72.55 53.65 70.5 53.65 70.5 55.7 68.45 55.7 68.45 51.6 60.15 51.6 60.15 53.65 56.05 53.65 56.05 55.7 51.9 55.7 51.9 53.65 49.85 53.65 49.85 51.6 47.8 51.6 M62.25 39.2 L60.15 39.2 60.15 41.25 58.1 41.25 58.1 43.35 58.1 45.4 60.15 45.4 62.25 45.4 62.25 47.45 66.35 47.45 66.35 45.4 70.5 45.4 70.5 41.25 68.45 41.25 68.45 39.2 66.35 39.2 66.35 37.15 62.25 37.15 62.25 39.2 M53.95 45.4 L51.9 45.4 51.9 47.45 53.95 47.45 53.95 45.4 M56.05 51.6 L58.1 51.6 58.1 49.55 60.15 49.55 60.15 47.45 58.1 47.45 58.1 49.55 56.05 49.55 51.9 49.55 51.9 51.6 56.05 51.6" fill="#fff3f5" fill-rule="evenodd" stroke="none"/>
    <path d="M60.15 45.4 L58.1 45.4 58.1 43.35 60.15 43.35 60.15 45.4" fill="#94b4cd" fill-rule="evenodd" stroke="none"/>
    <path d="M62.25 41.25 L62.25 39.2 64.3 39.2 64.3 43.35 62.25 43.35 62.25 41.25 M78.75 30.95 L78.75 33.0 76.7 33.0 76.7 30.95 78.75 30.95" fill="#ffffff" fill-rule="evenodd" stroke="none"/>
    <path d="M64.3 61.9 L62.25 61.9 62.25 64.0 58.1 64.0 58.1 61.9 60.15 61.9 60.15 57.8 62.25 57.8 62.25 53.65 66.35 53.65 66.35 57.8 64.3 57.8 64.3 61.9" fill="#fff2f5" fill-rule="evenodd" stroke="none"/>
    <path d="M58.1 64.0 L56.05 64.0 56.05 61.9 53.95 61.9 53.95 59.85 56.05 59.85 56.05 57.8 56.05 55.7 60.15 55.7 60.15 53.65 62.25 53.65 62.25 57.8 60.15 57.8 60.15 61.9 58.1 61.9 58.1 64.0" fill="#ffb0c7" fill-rule="evenodd" stroke="none"/>
  </g>
</svg>
