<?xml version="1.0" encoding="UTF-8" standalone="no"?>
<svg xmlns:xlink="http://www.w3.org/1999/xlink" height="166.4px" width="80.95px" xmlns="http://www.w3.org/2000/svg">
  <g transform="matrix(1.0, 0.0, 0.0, 1.0, 40.45, 83.2)">
    <path d="M-19.8 30.85 L-21.55 4.95 Q-24.7 -34.7 -28.55 -41.85 -36.55 -65.7 -24.65 -76.05 L-24.6 -76.1 -24.0 -76.6 Q-19.25 -80.45 -11.6 -82.3 -1.45 -83.85 8.85 -77.65 L8.15 -76.7 Q6.05 -73.3 6.05 -69.5 6.05 -58.85 8.75 -47.85 10.35 -41.4 14.8 -28.7 19.15 -16.15 20.9 -8.95 23.75 2.85 23.95 14.65 L23.95 28.4 Q24.3 30.65 24.3 35.3 L23.75 46.15 Q4.6 46.0 -3.35 35.55 L-3.6 35.45 Q-7.2 33.8 -9.15 33.35 -13.4 32.35 -17.75 32.15 -19.35 32.1 -19.35 30.8 L-19.8 30.85 M39.55 34.85 L39.8 38.6 39.5 38.6 Q39.4 37.5 38.65 37.35 L39.55 34.85" fill="#1e7fae" fill-rule="evenodd" stroke="none"/>
    <path d="M-19.8 30.85 L-19.35 30.8 Q-19.35 32.1 -17.75 32.15 -13.4 32.35 -9.15 33.35 -7.2 33.8 -3.6 35.45 L-3.35 35.55 Q4.6 46.0 23.75 46.15 L24.3 35.3 Q24.3 30.65 23.95 28.4 L23.95 14.65 Q23.75 2.85 20.9 -8.95 19.15 -16.15 14.8 -28.7 10.35 -41.4 8.75 -47.85 6.05 -58.85 6.05 -69.5 6.05 -73.3 8.15 -76.7 L8.85 -77.65 9.55 -78.15 Q10.15 -78.2 10.2 -76.8 14.9 -73.75 19.6 -69.1 L39.55 34.85 38.65 37.35 Q39.4 37.5 39.5 38.6 L39.8 38.6 Q40.95 66.05 28.05 75.7 23.55 71.05 15.95 69.35 7.1 68.55 1.0 72.75 -5.0 76.75 -6.55 82.3 L-13.8 81.5 Q-19.85 73.8 -25.95 73.25 -32.05 72.7 -32.25 74.8 -52.2 56.35 -19.65 33.7 L-19.8 30.85 M-18.9 36.95 L-19.65 33.7 -18.9 36.95" fill="#2e6088" fill-rule="evenodd" stroke="none"/>
    <path d="M28.05 75.7 L25.7 77.2 Q13.1 83.85 -6.55 82.3 -5.0 76.75 1.0 72.75 7.1 68.55 15.95 69.35 23.55 71.05 28.05 75.7 M-13.8 81.5 L-26.9 79.0 -32.25 74.8 Q-32.05 72.7 -25.95 73.25 -19.85 73.8 -13.8 81.5" fill="#66707d" fill-rule="evenodd" stroke="none"/>
    <path d="M8.85 -77.65 Q-1.45 -83.85 -11.6 -82.3 -19.25 -80.45 -24.0 -76.6 L-24.6 -76.1 -24.65 -76.05 Q-36.55 -65.7 -28.55 -41.85 -24.7 -34.7 -21.55 4.95 L-19.8 30.85 -19.65 33.7 -18.9 36.95 M10.2 -76.8 Q14.9 -73.75 19.6 -69.1 L39.55 34.85 39.8 38.6 Q40.95 66.05 28.05 75.7 L25.7 77.2 Q13.1 83.85 -6.55 82.3 L-13.8 81.5 -26.9 79.0 -32.25 74.8 Q-52.2 56.35 -19.65 33.7" fill="none" stroke="#4a4f58" stroke-linecap="round" stroke-linejoin="miter-clip" stroke-miterlimit="3.0" stroke-width="1.2000000000000002"/>
  </g>
</svg>
