<?xml version="1.0" encoding="UTF-8" standalone="no"?>
<svg xmlns:xlink="http://www.w3.org/1999/xlink" height="155.95px" width="88.15px" xmlns="http://www.w3.org/2000/svg">
  <g transform="matrix(1.0, 0.0, 0.0, 1.0, 44.1, 77.95)">
    <path d="M-30.3 29.85 Q-27.75 18.95 -26.35 6.9 -15.5 -55.6 -14.0 -61.85 -6.85 -83.8 30.35 -74.65 L35.55 -73.25 30.5 -73.1 30.2 -74.1 Q29.85 -74.45 29.15 -72.5 28.35 -70.45 26.55 -63.5 26.55 -60.3 25.75 -50.0 L24.4 -36.45 Q23.5 -28.2 23.35 -23.0 22.65 -17.9 22.2 -9.5 L21.35 4.0 20.95 8.1 20.8 9.3 Q19.95 16.5 18.95 19.4 15.35 30.0 5.95 30.0 L-3.65 28.9 -12.75 27.8 -15.5 27.15 -21.7 27.15 -26.55 28.0 Q-29.85 28.65 -29.85 29.95 L-30.3 29.85 M-32.1 68.5 L-43.25 63.7 Q-45.15 51.9 -33.05 40.05 -34.3 43.1 -34.6 46.35 L-34.65 47.4 -34.7 47.5 -34.7 47.65 -34.85 51.5 -35.7 54.0 -36.75 57.85 -37.75 59.7 -38.4 60.95 Q-41.3 64.05 -39.8 64.45 L-39.35 65.0 -37.3 66.0 -33.15 67.5 -33.1 67.5 Q-32.55 68.05 -31.95 68.05 L-32.1 68.5" fill="#1e7fae" fill-rule="evenodd" stroke="none"/>
    <path d="M35.55 -73.25 Q44.35 -69.8 36.1 -24.15 30.95 -7.45 28.95 8.8 L28.75 10.2 Q26.9 25.7 27.95 40.75 51.85 60.45 38.9 72.5 L36.6 74.45 Q34.2 71.1 32.15 70.7 28.15 70.05 25.4 70.75 L24.75 71.05 24.6 71.05 Q20.05 74.05 19.5 76.4 L10.75 76.9 Q7.5 68.3 2.8 65.95 -6.4 61.85 -17.5 64.55 -23.6 66.0 -28.45 70.05 -30.25 69.3 -32.1 68.5 L-31.95 68.05 Q-32.55 68.05 -33.1 67.5 L-33.15 67.5 -37.3 66.0 -39.35 65.0 -39.8 64.45 Q-41.3 64.05 -38.4 60.95 L-37.75 59.7 -36.75 57.85 -35.7 54.0 -34.85 51.5 -34.7 47.65 -34.7 47.5 -34.65 47.4 -34.6 46.35 Q-34.3 43.1 -33.05 40.05 -31.55 35.1 -30.3 29.85 L-29.85 29.95 Q-29.85 28.65 -26.55 28.0 L-21.7 27.15 -15.5 27.15 -12.75 27.8 -3.65 28.9 5.95 30.0 Q15.35 30.0 18.95 19.4 19.95 16.5 20.8 9.3 L20.95 8.1 21.35 4.0 22.2 -9.5 Q22.65 -17.9 23.35 -23.0 23.5 -28.2 24.4 -36.45 L25.75 -50.0 Q26.55 -60.3 26.55 -63.5 28.35 -70.45 29.15 -72.5 29.85 -74.45 30.2 -74.1 L30.5 -73.1 35.55 -73.25 M28.35 47.5 Q28.55 44.25 27.95 40.75 28.55 44.25 28.35 47.5 M-34.7 47.65 L-34.65 47.4 -34.7 47.65" fill="#2e6088" fill-rule="evenodd" stroke="none"/>
    <path d="M36.6 74.45 Q29.85 79.1 19.5 76.4 20.05 74.05 24.6 71.05 L24.75 71.05 25.4 70.75 Q28.15 70.05 32.15 70.7 34.2 71.1 36.6 74.45 M10.75 76.9 Q-22.3 78.3 -28.45 70.05 -23.6 66.0 -17.5 64.55 -6.4 61.85 2.8 65.95 7.5 68.3 10.75 76.9" fill="#66707d" fill-rule="evenodd" stroke="none"/>
    <path d="M-30.3 29.85 Q-27.75 18.95 -26.35 6.9 -15.5 -55.6 -14.0 -61.85 -6.85 -83.8 30.35 -74.65 L35.55 -73.25 Q44.35 -69.8 36.1 -24.15 30.95 -7.45 28.95 8.8 L28.75 10.2 Q26.9 25.7 27.95 40.75 51.85 60.45 38.9 72.5 L36.6 74.45 Q29.85 79.1 19.5 76.4 L10.75 76.9 Q-22.3 78.3 -28.45 70.05 -30.25 69.3 -32.1 68.5 L-43.25 63.7 Q-45.15 51.9 -33.05 40.05 -31.55 35.1 -30.3 29.85 M27.95 40.75 Q28.55 44.25 28.35 47.5 M-34.65 47.4 L-34.6 46.35 Q-34.3 43.1 -33.05 40.05 M-34.65 47.4 L-34.7 47.65" fill="none" stroke="#4a4f58" stroke-linecap="round" stroke-linejoin="miter-clip" stroke-miterlimit="3.0" stroke-width="1.2000000000000002"/>
  </g>
</svg>
