<?xml version="1.0" encoding="UTF-8" standalone="no"?>
<svg xmlns:xlink="http://www.w3.org/1999/xlink" height="112.0px" width="160.0px" xmlns="http://www.w3.org/2000/svg">
  <g transform="matrix(1.0, 0.0, 0.0, 1.0, 4.0, -7.0)">
    <path d="M144.0 13.0 L144.0 15.0 144.0 17.0 146.0 17.0 146.0 19.0 150.0 19.0 150.0 21.0 144.0 21.0 144.0 19.0 138.0 19.0 138.0 21.0 136.0 21.0 136.0 19.0 130.0 19.0 128.0 19.0 126.0 19.0 126.0 21.0 124.0 21.0 122.0 21.0 120.0 21.0 118.0 21.0 118.0 23.0 118.0 25.0 116.0 25.0 114.0 25.0 114.0 27.0 114.0 31.0 114.0 33.0 114.0 35.0 114.0 37.0 116.0 37.0 116.0 39.0 114.0 39.0 114.0 41.0 112.0 41.0 112.0 39.0 112.0 37.0 112.0 29.0 110.0 29.0 110.0 25.0 112.0 25.0 112.0 23.0 114.0 23.0 114.0 19.0 118.0 19.0 122.0 19.0 122.0 17.0 122.0 15.0 120.0 15.0 120.0 13.0 122.0 13.0 124.0 13.0 124.0 15.0 126.0 15.0 126.0 13.0 128.0 13.0 130.0 13.0 130.0 15.0 138.0 15.0 138.0 13.0 144.0 13.0 M0.0 43.0 L0.0 41.0 2.0 41.0 2.0 37.0 0.0 37.0 0.0 35.0 2.0 35.0 2.0 31.0 0.0 31.0 0.0 27.0 -2.0 27.0 -2.0 23.0 0.0 23.0 0.0 13.0 2.0 13.0 2.0 15.0 2.0 17.0 4.0 17.0 6.0 17.0 8.0 17.0 8.0 19.0 10.0 19.0 16.0 19.0 16.0 17.0 18.0 17.0 18.0 19.0 20.0 19.0 20.0 17.0 22.0 17.0 22.0 15.0 26.0 15.0 26.0 13.0 26.0 11.0 30.0 11.0 30.0 9.0 32.0 9.0 32.0 13.0 30.0 13.0 30.0 17.0 28.0 17.0 28.0 15.0 26.0 15.0 26.0 17.0 26.0 19.0 24.0 19.0 24.0 21.0 20.0 21.0 20.0 23.0 18.0 23.0 18.0 25.0 16.0 25.0 16.0 29.0 14.0 29.0 14.0 31.0 12.0 31.0 12.0 33.0 10.0 33.0 10.0 35.0 8.0 35.0 8.0 33.0 6.0 33.0 6.0 37.0 8.0 37.0 10.0 37.0 10.0 39.0 8.0 39.0 8.0 43.0 6.0 43.0 6.0 45.0 4.0 45.0 2.0 45.0 2.0 43.0 0.0 43.0 M138.0 9.0 L138.0 11.0 138.0 13.0 136.0 13.0 136.0 11.0 134.0 11.0 134.0 9.0 138.0 9.0 M126.0 19.0 L126.0 17.0 124.0 17.0 124.0 19.0 126.0 19.0 M90.0 45.0 L90.0 47.0 96.0 47.0 96.0 49.0 98.0 49.0 100.0 49.0 100.0 53.0 102.0 53.0 102.0 55.0 98.0 55.0 98.0 57.0 100.0 57.0 100.0 61.0 102.0 61.0 102.0 57.0 104.0 57.0 104.0 71.0 106.0 71.0 106.0 77.0 104.0 77.0 104.0 79.0 100.0 79.0 100.0 81.0 96.0 81.0 92.0 81.0 92.0 79.0 88.0 79.0 88.0 77.0 86.0 77.0 86.0 75.0 84.0 75.0 84.0 71.0 88.0 71.0 88.0 69.0 90.0 69.0 90.0 67.0 88.0 67.0 88.0 65.0 86.0 65.0 86.0 63.0 84.0 63.0 84.0 65.0 82.0 65.0 82.0 63.0 82.0 61.0 80.0 61.0 80.0 63.0 80.0 67.0 76.0 67.0 76.0 65.0 74.0 65.0 70.0 65.0 70.0 63.0 66.0 63.0 64.0 63.0 64.0 65.0 64.0 67.0 56.0 67.0 54.0 67.0 54.0 69.0 54.0 75.0 52.0 75.0 52.0 71.0 48.0 71.0 48.0 73.0 46.0 73.0 46.0 77.0 48.0 77.0 48.0 79.0 50.0 79.0 50.0 77.0 52.0 77.0 52.0 81.0 50.0 81.0 50.0 83.0 48.0 83.0 48.0 85.0 50.0 85.0 54.0 85.0 54.0 87.0 52.0 87.0 50.0 87.0 50.0 89.0 48.0 89.0 48.0 91.0 46.0 91.0 46.0 93.0 44.0 93.0 44.0 91.0 44.0 89.0 42.0 89.0 42.0 85.0 40.0 85.0 40.0 81.0 38.0 81.0 38.0 75.0 36.0 75.0 36.0 65.0 38.0 65.0 38.0 61.0 38.0 59.0 36.0 59.0 34.0 59.0 34.0 57.0 32.0 57.0 32.0 53.0 32.0 51.0 30.0 51.0 30.0 49.0 32.0 49.0 32.0 45.0 34.0 45.0 34.0 43.0 36.0 43.0 38.0 43.0 38.0 45.0 40.0 45.0 40.0 47.0 44.0 47.0 44.0 49.0 50.0 49.0 50.0 51.0 58.0 51.0 58.0 53.0 60.0 53.0 60.0 51.0 66.0 51.0 70.0 51.0 70.0 53.0 72.0 53.0 72.0 51.0 72.0 49.0 74.0 49.0 74.0 53.0 72.0 53.0 72.0 55.0 74.0 55.0 74.0 53.0 76.0 53.0 76.0 49.0 76.0 47.0 80.0 47.0 80.0 45.0 90.0 45.0 M86.0 53.0 L86.0 55.0 88.0 55.0 88.0 57.0 92.0 57.0 92.0 55.0 94.0 55.0 94.0 51.0 92.0 51.0 92.0 49.0 84.0 49.0 84.0 53.0 86.0 53.0 86.0 51.0 92.0 51.0 92.0 55.0 88.0 55.0 88.0 53.0 86.0 53.0 M100.0 61.0 L96.0 61.0 96.0 59.0 98.0 59.0 98.0 57.0 96.0 57.0 96.0 59.0 94.0 59.0 94.0 61.0 96.0 61.0 96.0 63.0 100.0 63.0 100.0 61.0 M84.0 65.0 L86.0 65.0 86.0 67.0 88.0 67.0 88.0 69.0 84.0 69.0 84.0 71.0 82.0 71.0 82.0 69.0 84.0 69.0 84.0 65.0 M80.0 93.0 L82.0 93.0 82.0 95.0 80.0 95.0 80.0 93.0 M82.0 91.0 L82.0 89.0 84.0 89.0 84.0 91.0 86.0 91.0 86.0 93.0 84.0 93.0 84.0 91.0 82.0 91.0 M92.0 71.0 L92.0 73.0 96.0 73.0 96.0 69.0 94.0 69.0 94.0 71.0 92.0 71.0 M102.0 87.0 L104.0 87.0 104.0 89.0 106.0 89.0 106.0 91.0 104.0 91.0 104.0 89.0 102.0 89.0 102.0 87.0 M106.0 85.0 L106.0 83.0 108.0 83.0 108.0 85.0 110.0 85.0 110.0 87.0 108.0 87.0 108.0 85.0 106.0 85.0 M28.0 19.0 L30.0 19.0 30.0 23.0 28.0 23.0 28.0 27.0 26.0 27.0 26.0 25.0 26.0 23.0 28.0 23.0 28.0 19.0 M8.0 19.0 L6.0 19.0 6.0 23.0 8.0 23.0 8.0 19.0 M8.0 29.0 L8.0 31.0 10.0 31.0 10.0 29.0 8.0 29.0 M26.0 29.0 L28.0 29.0 28.0 33.0 26.0 33.0 26.0 29.0 M42.0 51.0 L42.0 53.0 44.0 53.0 44.0 55.0 42.0 55.0 42.0 57.0 46.0 57.0 46.0 53.0 44.0 53.0 44.0 51.0 42.0 51.0 42.0 49.0 38.0 49.0 38.0 55.0 40.0 55.0 40.0 51.0 42.0 51.0 M34.0 57.0 L36.0 57.0 36.0 55.0 34.0 55.0 34.0 57.0 M32.0 61.0 L34.0 61.0 34.0 63.0 36.0 63.0 36.0 65.0 34.0 65.0 34.0 67.0 32.0 67.0 32.0 63.0 32.0 61.0 M40.0 89.0 L40.0 91.0 38.0 91.0 38.0 89.0 40.0 89.0 M40.0 61.0 L40.0 65.0 44.0 65.0 44.0 63.0 42.0 63.0 42.0 61.0 40.0 61.0 M70.0 59.0 L70.0 61.0 74.0 61.0 74.0 57.0 72.0 57.0 72.0 59.0 70.0 59.0 M54.0 61.0 L54.0 63.0 56.0 63.0 56.0 61.0 58.0 61.0 58.0 59.0 60.0 59.0 60.0 55.0 54.0 55.0 54.0 57.0 52.0 57.0 52.0 61.0 54.0 61.0 54.0 57.0 58.0 57.0 58.0 59.0 56.0 59.0 56.0 61.0 54.0 61.0 M48.0 73.0 L50.0 73.0 50.0 77.0 48.0 77.0 48.0 73.0" fill="#846394" fill-rule="evenodd" stroke="none"/>
    <path d="M144.0 15.0 L146.0 15.0 146.0 17.0 150.0 17.0 150.0 19.0 146.0 19.0 146.0 17.0 144.0 17.0 144.0 15.0 M150.0 23.0 L152.0 23.0 152.0 25.0 154.0 25.0 154.0 27.0 156.0 27.0 156.0 29.0 154.0 29.0 154.0 31.0 156.0 31.0 156.0 35.0 154.0 35.0 154.0 39.0 152.0 39.0 152.0 43.0 150.0 43.0 150.0 39.0 152.0 39.0 152.0 35.0 154.0 35.0 154.0 31.0 152.0 31.0 152.0 29.0 154.0 29.0 154.0 27.0 152.0 27.0 152.0 25.0 150.0 25.0 150.0 23.0 M148.0 43.0 L148.0 45.0 144.0 45.0 144.0 47.0 136.0 47.0 136.0 45.0 138.0 45.0 144.0 45.0 144.0 43.0 148.0 43.0 M122.0 23.0 L120.0 23.0 120.0 25.0 118.0 25.0 118.0 23.0 120.0 23.0 120.0 21.0 122.0 21.0 122.0 23.0 M116.0 27.0 L116.0 31.0 114.0 31.0 114.0 27.0 116.0 27.0 M116.0 33.0 L116.0 35.0 114.0 35.0 114.0 33.0 116.0 33.0 M116.0 45.0 L116.0 47.0 114.0 47.0 114.0 45.0 116.0 45.0 M112.0 47.0 L112.0 49.0 108.0 49.0 108.0 51.0 106.0 51.0 106.0 53.0 104.0 53.0 104.0 57.0 106.0 57.0 106.0 71.0 108.0 71.0 108.0 79.0 110.0 79.0 110.0 81.0 112.0 81.0 112.0 85.0 114.0 85.0 114.0 91.0 112.0 91.0 112.0 85.0 110.0 85.0 110.0 81.0 108.0 81.0 108.0 79.0 106.0 79.0 106.0 77.0 106.0 71.0 104.0 71.0 104.0 57.0 102.0 57.0 102.0 55.0 102.0 53.0 100.0 53.0 100.0 49.0 98.0 49.0 98.0 47.0 100.0 47.0 100.0 49.0 102.0 49.0 104.0 49.0 104.0 51.0 106.0 51.0 106.0 49.0 108.0 49.0 108.0 47.0 112.0 47.0 M112.0 93.0 L112.0 99.0 110.0 99.0 110.0 105.0 108.0 105.0 108.0 111.0 106.0 111.0 106.0 115.0 104.0 115.0 104.0 117.0 102.0 117.0 102.0 119.0 96.0 119.0 96.0 117.0 94.0 117.0 94.0 113.0 96.0 113.0 96.0 115.0 96.0 117.0 98.0 117.0 100.0 117.0 102.0 117.0 102.0 115.0 104.0 115.0 104.0 113.0 104.0 111.0 106.0 111.0 106.0 105.0 108.0 105.0 108.0 99.0 110.0 99.0 110.0 93.0 112.0 93.0 M100.0 95.0 L100.0 89.0 98.0 89.0 98.0 85.0 96.0 85.0 96.0 83.0 92.0 83.0 92.0 81.0 90.0 81.0 88.0 81.0 88.0 79.0 86.0 79.0 86.0 77.0 84.0 77.0 84.0 75.0 82.0 75.0 82.0 71.0 84.0 71.0 84.0 75.0 86.0 75.0 86.0 77.0 88.0 77.0 88.0 79.0 92.0 79.0 92.0 81.0 96.0 81.0 96.0 83.0 98.0 83.0 98.0 85.0 100.0 85.0 100.0 87.0 100.0 89.0 102.0 89.0 102.0 95.0 100.0 95.0 M90.0 91.0 L90.0 93.0 88.0 93.0 88.0 91.0 90.0 91.0 M88.0 95.0 L88.0 97.0 86.0 97.0 86.0 95.0 88.0 95.0 M86.0 99.0 L86.0 101.0 84.0 101.0 84.0 103.0 82.0 103.0 82.0 105.0 80.0 105.0 80.0 107.0 78.0 107.0 78.0 109.0 76.0 109.0 76.0 111.0 70.0 111.0 70.0 109.0 72.0 109.0 76.0 109.0 76.0 107.0 78.0 107.0 78.0 105.0 80.0 105.0 80.0 103.0 82.0 103.0 82.0 101.0 84.0 101.0 84.0 99.0 86.0 99.0 M54.0 79.0 L54.0 81.0 52.0 81.0 52.0 83.0 50.0 83.0 50.0 81.0 52.0 81.0 52.0 77.0 52.0 75.0 54.0 75.0 54.0 69.0 56.0 69.0 56.0 75.0 54.0 75.0 54.0 77.0 54.0 79.0 M50.0 93.0 L50.0 99.0 48.0 99.0 48.0 105.0 46.0 105.0 46.0 99.0 48.0 99.0 48.0 93.0 50.0 93.0 M46.0 113.0 L46.0 115.0 40.0 115.0 40.0 117.0 38.0 117.0 38.0 119.0 34.0 119.0 34.0 117.0 32.0 117.0 32.0 113.0 34.0 113.0 34.0 117.0 36.0 117.0 38.0 117.0 38.0 115.0 40.0 115.0 40.0 113.0 42.0 113.0 42.0 109.0 44.0 109.0 44.0 105.0 46.0 105.0 46.0 107.0 46.0 109.0 44.0 109.0 44.0 113.0 46.0 113.0 M30.0 79.0 L30.0 77.0 28.0 77.0 28.0 75.0 26.0 75.0 26.0 73.0 24.0 73.0 24.0 71.0 22.0 71.0 22.0 67.0 20.0 67.0 20.0 63.0 22.0 63.0 22.0 67.0 24.0 67.0 24.0 69.0 24.0 71.0 26.0 71.0 26.0 73.0 28.0 73.0 28.0 75.0 30.0 75.0 30.0 77.0 32.0 77.0 32.0 79.0 34.0 79.0 36.0 79.0 36.0 81.0 32.0 81.0 32.0 79.0 30.0 79.0 M20.0 49.0 L14.0 49.0 14.0 51.0 12.0 51.0 12.0 53.0 8.0 53.0 8.0 51.0 4.0 51.0 4.0 49.0 2.0 49.0 2.0 47.0 4.0 47.0 4.0 49.0 6.0 49.0 8.0 49.0 8.0 51.0 10.0 51.0 10.0 49.0 12.0 49.0 14.0 49.0 14.0 47.0 20.0 47.0 20.0 49.0 M0.0 47.0 L-2.0 47.0 -2.0 45.0 0.0 45.0 0.0 47.0 M2.0 13.0 L4.0 13.0 4.0 15.0 6.0 15.0 6.0 17.0 4.0 17.0 4.0 15.0 2.0 15.0 2.0 13.0 M8.0 17.0 L10.0 17.0 10.0 19.0 8.0 19.0 8.0 17.0 M34.0 9.0 L34.0 13.0 32.0 13.0 32.0 17.0 30.0 17.0 30.0 13.0 32.0 13.0 32.0 9.0 34.0 9.0 M32.0 19.0 L32.0 23.0 30.0 23.0 30.0 29.0 34.0 29.0 34.0 31.0 32.0 31.0 32.0 33.0 30.0 33.0 30.0 29.0 28.0 29.0 28.0 27.0 28.0 23.0 30.0 23.0 30.0 19.0 32.0 19.0 M40.0 25.0 L40.0 23.0 44.0 23.0 44.0 25.0 42.0 25.0 40.0 25.0 M44.0 27.0 L44.0 29.0 42.0 29.0 42.0 31.0 42.0 33.0 40.0 33.0 40.0 31.0 38.0 31.0 38.0 29.0 42.0 29.0 42.0 27.0 44.0 27.0 M44.0 31.0 L46.0 31.0 46.0 33.0 44.0 33.0 44.0 31.0 M44.0 35.0 L46.0 35.0 46.0 37.0 44.0 37.0 44.0 35.0 M42.0 37.0 L42.0 39.0 38.0 39.0 38.0 37.0 42.0 37.0 M36.0 41.0 L38.0 41.0 38.0 43.0 40.0 43.0 40.0 45.0 38.0 45.0 38.0 43.0 36.0 43.0 36.0 41.0 M132.0 9.0 L132.0 7.0 140.0 7.0 140.0 9.0 138.0 9.0 134.0 9.0 132.0 9.0 M138.0 11.0 L144.0 11.0 144.0 13.0 138.0 13.0 138.0 11.0 M104.0 51.0 L102.0 51.0 102.0 53.0 104.0 53.0 104.0 51.0 M18.0 37.0 L18.0 39.0 16.0 39.0 16.0 37.0 18.0 37.0 M34.0 37.0 L32.0 37.0 32.0 39.0 30.0 39.0 30.0 37.0 32.0 37.0 32.0 35.0 34.0 35.0 34.0 37.0 M34.0 33.0 L38.0 33.0 38.0 35.0 36.0 35.0 34.0 35.0 34.0 33.0" fill="#121212" fill-rule="evenodd" stroke="none"/>
    <path d="M150.0 21.0 L150.0 23.0 150.0 25.0 152.0 25.0 152.0 27.0 154.0 27.0 154.0 29.0 152.0 29.0 152.0 31.0 154.0 31.0 154.0 35.0 152.0 35.0 152.0 39.0 150.0 39.0 150.0 43.0 148.0 43.0 144.0 43.0 144.0 41.0 146.0 41.0 146.0 31.0 144.0 31.0 144.0 27.0 142.0 27.0 142.0 25.0 138.0 25.0 138.0 23.0 136.0 23.0 136.0 21.0 130.0 21.0 130.0 19.0 136.0 19.0 136.0 21.0 138.0 21.0 138.0 19.0 144.0 19.0 144.0 21.0 150.0 21.0 M138.0 43.0 L142.0 43.0 144.0 43.0 144.0 45.0 138.0 45.0 138.0 43.0 M124.0 23.0 L122.0 23.0 122.0 21.0 124.0 21.0 124.0 23.0 M116.0 25.0 L116.0 27.0 114.0 27.0 114.0 25.0 116.0 25.0 M114.0 47.0 L112.0 47.0 108.0 47.0 108.0 49.0 106.0 49.0 106.0 51.0 104.0 51.0 104.0 49.0 102.0 49.0 102.0 47.0 106.0 47.0 108.0 47.0 108.0 45.0 110.0 45.0 110.0 43.0 112.0 43.0 112.0 41.0 114.0 41.0 114.0 45.0 114.0 47.0 M-2.0 33.0 L-2.0 27.0 -4.0 27.0 -4.0 23.0 -2.0 23.0 -2.0 13.0 0.0 13.0 0.0 11.0 2.0 11.0 2.0 13.0 0.0 13.0 0.0 23.0 -2.0 23.0 -2.0 27.0 0.0 27.0 0.0 31.0 0.0 33.0 -2.0 33.0 M26.0 11.0 L26.0 9.0 30.0 9.0 30.0 7.0 34.0 7.0 34.0 9.0 32.0 9.0 30.0 9.0 30.0 11.0 26.0 11.0 M66.0 49.0 L72.0 49.0 72.0 47.0 76.0 47.0 76.0 45.0 80.0 45.0 80.0 43.0 90.0 43.0 90.0 45.0 80.0 45.0 80.0 47.0 76.0 47.0 76.0 49.0 74.0 49.0 72.0 49.0 72.0 51.0 70.0 51.0 66.0 51.0 66.0 49.0 M126.0 19.0 L128.0 19.0 128.0 21.0 126.0 21.0 126.0 19.0 M120.0 21.0 L120.0 23.0 118.0 23.0 118.0 21.0 120.0 21.0 M116.0 33.0 L114.0 33.0 114.0 31.0 116.0 31.0 116.0 33.0 M114.0 35.0 L116.0 35.0 116.0 37.0 114.0 37.0 114.0 35.0 M106.0 77.0 L106.0 79.0 108.0 79.0 108.0 81.0 110.0 81.0 110.0 85.0 108.0 85.0 108.0 83.0 106.0 83.0 106.0 85.0 106.0 89.0 104.0 89.0 104.0 87.0 102.0 87.0 100.0 87.0 100.0 85.0 98.0 85.0 98.0 83.0 96.0 83.0 96.0 81.0 100.0 81.0 100.0 79.0 104.0 79.0 104.0 77.0 106.0 77.0 M82.0 71.0 L82.0 75.0 84.0 75.0 84.0 77.0 86.0 77.0 86.0 79.0 88.0 79.0 88.0 81.0 90.0 81.0 90.0 87.0 88.0 87.0 88.0 91.0 86.0 91.0 84.0 91.0 84.0 89.0 82.0 89.0 82.0 91.0 82.0 93.0 80.0 93.0 80.0 87.0 78.0 87.0 78.0 85.0 76.0 85.0 76.0 79.0 74.0 79.0 74.0 73.0 72.0 73.0 72.0 71.0 80.0 71.0 82.0 71.0 M80.0 63.0 L80.0 61.0 82.0 61.0 82.0 63.0 80.0 63.0 M26.0 15.0 L28.0 15.0 28.0 17.0 30.0 17.0 30.0 19.0 28.0 19.0 28.0 17.0 26.0 17.0 26.0 15.0 M28.0 27.0 L28.0 29.0 30.0 29.0 30.0 33.0 32.0 33.0 32.0 31.0 34.0 31.0 34.0 33.0 32.0 33.0 32.0 35.0 28.0 35.0 28.0 37.0 26.0 37.0 26.0 35.0 24.0 35.0 24.0 33.0 24.0 29.0 26.0 29.0 26.0 27.0 24.0 27.0 24.0 25.0 26.0 25.0 26.0 27.0 28.0 27.0 M26.0 21.0 L26.0 19.0 28.0 19.0 28.0 23.0 26.0 23.0 26.0 21.0 M2.0 15.0 L4.0 15.0 4.0 17.0 2.0 17.0 2.0 15.0 M8.0 19.0 L8.0 23.0 6.0 23.0 6.0 19.0 8.0 19.0 M30.0 49.0 L30.0 47.0 28.0 47.0 28.0 45.0 26.0 45.0 26.0 43.0 28.0 43.0 34.0 43.0 34.0 45.0 32.0 45.0 32.0 49.0 30.0 49.0 M26.0 29.0 L26.0 33.0 28.0 33.0 28.0 29.0 26.0 29.0 M36.0 59.0 L38.0 59.0 38.0 61.0 36.0 61.0 36.0 59.0 M50.0 89.0 L50.0 87.0 52.0 87.0 52.0 89.0 50.0 89.0 M50.0 85.0 L48.0 85.0 48.0 83.0 50.0 83.0 50.0 85.0 M54.0 69.0 L54.0 67.0 56.0 67.0 56.0 69.0 54.0 69.0 M36.0 81.0 L38.0 81.0 38.0 85.0 40.0 85.0 40.0 89.0 38.0 89.0 38.0 91.0 36.0 91.0 36.0 89.0 34.0 89.0 34.0 83.0 32.0 83.0 32.0 81.0 36.0 81.0" fill="#5a4273" fill-rule="evenodd" stroke="none"/>
    <path d="M136.0 45.0 L136.0 43.0 138.0 43.0 138.0 45.0 136.0 45.0 M142.0 43.0 L142.0 41.0 144.0 41.0 144.0 31.0 142.0 31.0 142.0 27.0 138.0 27.0 138.0 25.0 136.0 25.0 136.0 23.0 124.0 23.0 124.0 21.0 126.0 21.0 128.0 21.0 128.0 19.0 130.0 19.0 130.0 21.0 136.0 21.0 136.0 23.0 138.0 23.0 138.0 25.0 142.0 25.0 142.0 27.0 144.0 27.0 144.0 31.0 146.0 31.0 146.0 41.0 144.0 41.0 144.0 43.0 142.0 43.0 M116.0 31.0 L118.0 31.0 118.0 33.0 116.0 33.0 116.0 31.0 M116.0 35.0 L118.0 35.0 118.0 39.0 116.0 39.0 116.0 45.0 114.0 45.0 114.0 41.0 114.0 39.0 116.0 39.0 116.0 37.0 116.0 35.0 M114.0 91.0 L114.0 93.0 112.0 93.0 112.0 91.0 114.0 91.0 M92.0 83.0 L92.0 87.0 90.0 87.0 90.0 91.0 88.0 91.0 88.0 87.0 90.0 87.0 90.0 81.0 92.0 81.0 92.0 83.0 M88.0 93.0 L88.0 95.0 86.0 95.0 86.0 93.0 88.0 93.0 M86.0 97.0 L86.0 99.0 84.0 99.0 84.0 97.0 86.0 97.0 M74.0 103.0 L74.0 101.0 76.0 101.0 76.0 97.0 78.0 97.0 78.0 87.0 76.0 87.0 76.0 85.0 74.0 85.0 74.0 79.0 72.0 79.0 72.0 73.0 70.0 73.0 70.0 71.0 72.0 71.0 72.0 73.0 74.0 73.0 74.0 79.0 76.0 79.0 76.0 85.0 78.0 85.0 78.0 87.0 80.0 87.0 80.0 93.0 80.0 95.0 80.0 97.0 78.0 97.0 78.0 101.0 76.0 101.0 76.0 103.0 74.0 103.0 M52.0 83.0 L56.0 83.0 56.0 87.0 54.0 87.0 54.0 89.0 52.0 89.0 52.0 91.0 50.0 91.0 50.0 93.0 48.0 93.0 48.0 91.0 48.0 89.0 50.0 89.0 52.0 89.0 52.0 87.0 54.0 87.0 54.0 85.0 50.0 85.0 50.0 83.0 52.0 83.0 M38.0 93.0 L36.0 93.0 36.0 91.0 34.0 91.0 34.0 89.0 32.0 89.0 32.0 83.0 30.0 83.0 30.0 79.0 32.0 79.0 32.0 81.0 32.0 83.0 34.0 83.0 34.0 89.0 36.0 89.0 36.0 91.0 38.0 91.0 38.0 93.0 M22.0 61.0 L24.0 61.0 24.0 63.0 22.0 63.0 22.0 61.0 M-2.0 45.0 L-2.0 43.0 0.0 43.0 0.0 45.0 -2.0 45.0 M0.0 41.0 L0.0 37.0 2.0 37.0 2.0 41.0 0.0 41.0 M10.0 17.0 L16.0 17.0 16.0 19.0 10.0 19.0 10.0 17.0 M18.0 17.0 L18.0 15.0 22.0 15.0 22.0 13.0 26.0 13.0 26.0 15.0 22.0 15.0 22.0 17.0 20.0 17.0 20.0 19.0 18.0 19.0 18.0 17.0 M32.0 17.0 L32.0 19.0 30.0 19.0 30.0 17.0 32.0 17.0 M42.0 31.0 L44.0 31.0 44.0 33.0 42.0 33.0 42.0 31.0 M44.0 37.0 L42.0 37.0 42.0 35.0 44.0 35.0 44.0 37.0 M38.0 39.0 L36.0 39.0 36.0 41.0 36.0 43.0 34.0 43.0 28.0 43.0 28.0 41.0 34.0 41.0 34.0 39.0 36.0 39.0 36.0 37.0 38.0 37.0 38.0 39.0 M40.0 45.0 L44.0 45.0 44.0 47.0 50.0 47.0 50.0 49.0 58.0 49.0 58.0 51.0 60.0 51.0 60.0 49.0 66.0 49.0 66.0 51.0 60.0 51.0 60.0 53.0 58.0 53.0 58.0 51.0 50.0 51.0 50.0 49.0 44.0 49.0 44.0 47.0 40.0 47.0 40.0 45.0 M90.0 45.0 L96.0 45.0 96.0 47.0 98.0 47.0 98.0 49.0 96.0 49.0 96.0 47.0 90.0 47.0 90.0 45.0 M100.0 47.0 L102.0 47.0 102.0 49.0 100.0 49.0 100.0 47.0 M106.0 47.0 L106.0 45.0 108.0 45.0 108.0 43.0 110.0 43.0 110.0 39.0 112.0 39.0 112.0 41.0 112.0 43.0 110.0 43.0 110.0 45.0 108.0 45.0 108.0 47.0 106.0 47.0 M112.0 37.0 L110.0 37.0 110.0 29.0 108.0 29.0 108.0 25.0 110.0 25.0 110.0 23.0 112.0 23.0 112.0 19.0 114.0 19.0 114.0 23.0 112.0 23.0 112.0 25.0 110.0 25.0 110.0 29.0 112.0 29.0 112.0 37.0 M118.0 19.0 L118.0 17.0 122.0 17.0 122.0 19.0 118.0 19.0 M120.0 15.0 L118.0 15.0 118.0 13.0 120.0 13.0 120.0 15.0 M122.0 13.0 L122.0 11.0 124.0 11.0 124.0 13.0 126.0 13.0 126.0 15.0 124.0 15.0 124.0 13.0 122.0 13.0 M128.0 13.0 L128.0 11.0 132.0 11.0 132.0 9.0 134.0 9.0 134.0 11.0 136.0 11.0 136.0 13.0 138.0 13.0 138.0 15.0 130.0 15.0 130.0 13.0 128.0 13.0 M134.0 11.0 L132.0 11.0 132.0 13.0 134.0 13.0 134.0 11.0 M126.0 19.0 L124.0 19.0 124.0 17.0 126.0 17.0 126.0 19.0 M82.0 63.0 L82.0 65.0 82.0 69.0 82.0 71.0 80.0 71.0 80.0 69.0 80.0 67.0 80.0 63.0 82.0 63.0 M38.0 61.0 L38.0 65.0 36.0 65.0 36.0 75.0 38.0 75.0 38.0 81.0 40.0 81.0 40.0 85.0 42.0 85.0 42.0 89.0 42.0 91.0 42.0 95.0 40.0 95.0 40.0 93.0 40.0 91.0 40.0 89.0 40.0 85.0 38.0 85.0 38.0 81.0 36.0 81.0 36.0 79.0 36.0 75.0 34.0 75.0 34.0 73.0 34.0 69.0 34.0 67.0 34.0 65.0 36.0 65.0 36.0 63.0 36.0 61.0 38.0 61.0" fill="#312139" fill-rule="evenodd" stroke="none"/>
    <path d="M2.0 47.0 L0.0 47.0 0.0 45.0 2.0 45.0 2.0 47.0 M38.0 29.0 L38.0 27.0 42.0 27.0 42.0 25.0 44.0 25.0 44.0 27.0 42.0 27.0 42.0 29.0 38.0 29.0 M44.0 33.0 L44.0 35.0 42.0 35.0 42.0 37.0 38.0 37.0 36.0 37.0 36.0 39.0 34.0 39.0 34.0 41.0 28.0 41.0 24.0 41.0 24.0 43.0 20.0 43.0 20.0 45.0 20.0 47.0 14.0 47.0 14.0 45.0 10.0 45.0 10.0 49.0 8.0 49.0 8.0 47.0 6.0 47.0 6.0 45.0 10.0 45.0 10.0 43.0 10.0 41.0 12.0 41.0 14.0 41.0 14.0 43.0 18.0 43.0 20.0 43.0 20.0 39.0 22.0 39.0 24.0 39.0 24.0 35.0 26.0 35.0 26.0 37.0 28.0 37.0 28.0 39.0 30.0 39.0 32.0 39.0 32.0 37.0 34.0 37.0 36.0 37.0 36.0 35.0 38.0 35.0 40.0 35.0 40.0 33.0 42.0 33.0 44.0 33.0 M86.0 53.0 L84.0 53.0 84.0 49.0 92.0 49.0 92.0 51.0 94.0 51.0 94.0 55.0 92.0 55.0 92.0 57.0 88.0 57.0 88.0 55.0 86.0 55.0 86.0 53.0 88.0 53.0 88.0 55.0 92.0 55.0 92.0 51.0 86.0 51.0 86.0 53.0 M102.0 55.0 L102.0 57.0 102.0 61.0 100.0 61.0 100.0 57.0 98.0 57.0 98.0 55.0 102.0 55.0 M100.0 61.0 L100.0 63.0 96.0 63.0 96.0 61.0 94.0 61.0 94.0 59.0 96.0 59.0 96.0 57.0 98.0 57.0 98.0 59.0 96.0 59.0 96.0 61.0 100.0 61.0 M82.0 65.0 L84.0 65.0 84.0 63.0 86.0 63.0 86.0 65.0 88.0 65.0 88.0 67.0 90.0 67.0 90.0 69.0 88.0 69.0 88.0 71.0 84.0 71.0 84.0 69.0 88.0 69.0 88.0 67.0 86.0 67.0 86.0 65.0 84.0 65.0 84.0 69.0 82.0 69.0 82.0 65.0 M92.0 71.0 L94.0 71.0 94.0 69.0 96.0 69.0 96.0 73.0 92.0 73.0 92.0 71.0 M80.0 67.0 L80.0 69.0 64.0 69.0 64.0 71.0 60.0 71.0 60.0 69.0 56.0 69.0 56.0 67.0 64.0 67.0 64.0 65.0 66.0 65.0 66.0 63.0 70.0 63.0 70.0 65.0 74.0 65.0 74.0 67.0 76.0 67.0 80.0 67.0 M100.0 109.0 L102.0 109.0 102.0 111.0 104.0 111.0 104.0 113.0 102.0 113.0 102.0 115.0 100.0 115.0 98.0 115.0 96.0 115.0 96.0 113.0 98.0 113.0 98.0 111.0 100.0 111.0 100.0 109.0 M74.0 49.0 L76.0 49.0 76.0 53.0 74.0 53.0 74.0 55.0 72.0 55.0 72.0 53.0 74.0 53.0 74.0 49.0 M12.0 49.0 L12.0 47.0 14.0 47.0 14.0 49.0 12.0 49.0 M24.0 53.0 L28.0 53.0 28.0 51.0 30.0 51.0 30.0 53.0 32.0 53.0 32.0 57.0 34.0 57.0 34.0 59.0 34.0 61.0 36.0 61.0 36.0 63.0 34.0 63.0 34.0 61.0 32.0 61.0 32.0 59.0 30.0 59.0 30.0 63.0 32.0 63.0 32.0 67.0 32.0 69.0 34.0 69.0 34.0 73.0 30.0 73.0 30.0 71.0 26.0 71.0 26.0 69.0 24.0 69.0 24.0 67.0 22.0 67.0 22.0 63.0 24.0 63.0 24.0 65.0 26.0 65.0 26.0 67.0 28.0 67.0 28.0 65.0 28.0 63.0 28.0 61.0 28.0 57.0 26.0 57.0 26.0 55.0 24.0 55.0 24.0 53.0 M34.0 33.0 L34.0 31.0 38.0 31.0 38.0 33.0 34.0 33.0 34.0 35.0 32.0 35.0 32.0 37.0 30.0 37.0 28.0 37.0 28.0 35.0 32.0 35.0 32.0 33.0 34.0 33.0 M42.0 51.0 L40.0 51.0 40.0 55.0 38.0 55.0 38.0 49.0 42.0 49.0 42.0 51.0 44.0 51.0 44.0 53.0 46.0 53.0 46.0 57.0 42.0 57.0 42.0 55.0 44.0 55.0 44.0 53.0 42.0 53.0 42.0 51.0 M44.0 91.0 L44.0 93.0 46.0 93.0 48.0 93.0 48.0 99.0 46.0 99.0 46.0 105.0 44.0 105.0 44.0 109.0 42.0 109.0 42.0 113.0 40.0 113.0 40.0 115.0 38.0 115.0 38.0 113.0 36.0 113.0 36.0 109.0 38.0 109.0 38.0 105.0 40.0 105.0 40.0 99.0 42.0 99.0 42.0 95.0 42.0 91.0 44.0 91.0 M52.0 77.0 L50.0 77.0 50.0 79.0 48.0 79.0 48.0 77.0 46.0 77.0 46.0 73.0 48.0 73.0 48.0 71.0 52.0 71.0 52.0 75.0 52.0 77.0 M40.0 61.0 L42.0 61.0 42.0 63.0 44.0 63.0 44.0 65.0 40.0 65.0 40.0 61.0 M72.0 51.0 L72.0 53.0 70.0 53.0 70.0 51.0 72.0 51.0 M70.0 59.0 L72.0 59.0 72.0 57.0 74.0 57.0 74.0 61.0 70.0 61.0 70.0 59.0 M54.0 61.0 L52.0 61.0 52.0 57.0 54.0 57.0 54.0 55.0 60.0 55.0 60.0 59.0 58.0 59.0 58.0 61.0 56.0 61.0 56.0 63.0 54.0 63.0 54.0 61.0 56.0 61.0 56.0 59.0 58.0 59.0 58.0 57.0 54.0 57.0 54.0 61.0 M48.0 73.0 L48.0 77.0 50.0 77.0 50.0 73.0 48.0 73.0 M36.0 115.0 L36.0 117.0 34.0 117.0 34.0 113.0 36.0 113.0 36.0 115.0" fill="#f7d642" fill-rule="evenodd" stroke="none"/>
    <path d="M64.0 71.0 L64.0 73.0 60.0 73.0 60.0 75.0 56.0 75.0 56.0 77.0 54.0 77.0 54.0 75.0 56.0 75.0 56.0 69.0 60.0 69.0 60.0 71.0 64.0 71.0 M110.0 85.0 L112.0 85.0 112.0 91.0 112.0 93.0 110.0 93.0 110.0 99.0 108.0 99.0 108.0 105.0 106.0 105.0 106.0 111.0 104.0 111.0 102.0 111.0 102.0 109.0 100.0 109.0 100.0 105.0 102.0 105.0 102.0 95.0 102.0 89.0 100.0 89.0 100.0 87.0 102.0 87.0 102.0 89.0 104.0 89.0 104.0 91.0 106.0 91.0 106.0 89.0 106.0 85.0 108.0 85.0 108.0 87.0 110.0 87.0 110.0 85.0 M82.0 93.0 L82.0 91.0 84.0 91.0 84.0 93.0 86.0 93.0 86.0 91.0 88.0 91.0 88.0 93.0 86.0 93.0 86.0 95.0 86.0 97.0 84.0 97.0 84.0 99.0 82.0 99.0 82.0 101.0 82.0 103.0 80.0 103.0 80.0 105.0 78.0 105.0 78.0 107.0 76.0 107.0 76.0 109.0 72.0 109.0 72.0 107.0 74.0 107.0 74.0 105.0 76.0 105.0 76.0 103.0 76.0 101.0 78.0 101.0 78.0 97.0 80.0 97.0 80.0 95.0 82.0 95.0 82.0 93.0 M8.0 29.0 L10.0 29.0 10.0 31.0 8.0 31.0 8.0 29.0 M0.0 35.0 L0.0 33.0 0.0 31.0 2.0 31.0 2.0 35.0 0.0 35.0 M8.0 35.0 L8.0 37.0 6.0 37.0 6.0 33.0 8.0 33.0 8.0 35.0 M4.0 47.0 L6.0 47.0 6.0 49.0 4.0 49.0 4.0 47.0 M8.0 49.0 L10.0 49.0 10.0 45.0 14.0 45.0 14.0 47.0 12.0 47.0 12.0 49.0 10.0 49.0 10.0 51.0 8.0 51.0 8.0 49.0 M20.0 47.0 L20.0 45.0 24.0 45.0 24.0 43.0 24.0 41.0 28.0 41.0 28.0 43.0 26.0 43.0 26.0 45.0 28.0 45.0 28.0 47.0 30.0 47.0 30.0 49.0 30.0 51.0 32.0 51.0 32.0 53.0 30.0 53.0 30.0 51.0 28.0 51.0 28.0 53.0 24.0 53.0 24.0 51.0 22.0 51.0 22.0 49.0 20.0 49.0 20.0 47.0 M34.0 57.0 L34.0 55.0 36.0 55.0 36.0 57.0 34.0 57.0 M34.0 59.0 L36.0 59.0 36.0 61.0 34.0 61.0 34.0 59.0 M42.0 89.0 L44.0 89.0 44.0 91.0 42.0 91.0 42.0 89.0 M46.0 93.0 L46.0 91.0 48.0 91.0 48.0 93.0 46.0 93.0 M64.0 65.0 L64.0 63.0 66.0 63.0 66.0 65.0 64.0 65.0 M74.0 65.0 L76.0 65.0 76.0 67.0 74.0 67.0 74.0 65.0 M32.0 63.0 L30.0 63.0 30.0 59.0 32.0 59.0 32.0 61.0 32.0 63.0 M34.0 67.0 L34.0 69.0 32.0 69.0 32.0 67.0 34.0 67.0 M34.0 73.0 L34.0 75.0 36.0 75.0 36.0 79.0 34.0 79.0 34.0 77.0 32.0 77.0 30.0 77.0 30.0 75.0 28.0 75.0 28.0 73.0 26.0 73.0 26.0 71.0 24.0 71.0 24.0 69.0 26.0 69.0 26.0 71.0 30.0 71.0 30.0 73.0 34.0 73.0 M40.0 91.0 L40.0 93.0 38.0 93.0 38.0 91.0 40.0 91.0 M28.0 63.0 L28.0 65.0 26.0 65.0 26.0 63.0 28.0 63.0 M46.0 105.0 L48.0 105.0 48.0 107.0 46.0 107.0 46.0 105.0 M46.0 109.0 L46.0 113.0 44.0 113.0 44.0 109.0 46.0 109.0 M38.0 115.0 L36.0 115.0 36.0 113.0 38.0 113.0 38.0 115.0 M104.0 115.0 L102.0 115.0 102.0 117.0 100.0 117.0 100.0 115.0 102.0 115.0 102.0 113.0 104.0 113.0 104.0 115.0 M98.0 117.0 L96.0 117.0 96.0 115.0 98.0 115.0 98.0 117.0" fill="#cea518" fill-rule="evenodd" stroke="none"/>
    <path d="M96.0 113.0 L96.0 111.0 98.0 111.0 98.0 105.0 100.0 105.0 100.0 95.0 102.0 95.0 102.0 105.0 100.0 105.0 100.0 109.0 100.0 111.0 98.0 111.0 98.0 113.0 96.0 113.0 M70.0 109.0 L70.0 107.0 72.0 107.0 72.0 103.0 74.0 103.0 74.0 105.0 74.0 107.0 72.0 107.0 72.0 109.0 70.0 109.0 M70.0 71.0 L64.0 71.0 64.0 69.0 80.0 69.0 80.0 71.0 72.0 71.0 70.0 71.0 M64.0 73.0 L64.0 75.0 60.0 75.0 60.0 77.0 56.0 77.0 56.0 79.0 54.0 79.0 54.0 77.0 56.0 77.0 56.0 75.0 60.0 75.0 60.0 73.0 64.0 73.0 M50.0 99.0 L50.0 107.0 48.0 107.0 48.0 113.0 46.0 113.0 46.0 109.0 46.0 107.0 48.0 107.0 48.0 105.0 48.0 99.0 50.0 99.0 M34.0 113.0 L34.0 109.0 36.0 109.0 36.0 105.0 38.0 105.0 38.0 99.0 40.0 99.0 40.0 97.0 38.0 97.0 38.0 93.0 40.0 93.0 40.0 95.0 42.0 95.0 42.0 99.0 40.0 99.0 40.0 105.0 38.0 105.0 38.0 109.0 36.0 109.0 36.0 113.0 34.0 113.0 M20.0 63.0 L20.0 61.0 22.0 61.0 22.0 63.0 20.0 63.0 M24.0 63.0 L26.0 63.0 26.0 65.0 28.0 65.0 28.0 67.0 26.0 67.0 26.0 65.0 24.0 65.0 24.0 63.0 M26.0 61.0 L26.0 57.0 24.0 57.0 24.0 55.0 22.0 55.0 22.0 51.0 20.0 51.0 20.0 49.0 22.0 49.0 22.0 51.0 24.0 51.0 24.0 53.0 24.0 55.0 26.0 55.0 26.0 57.0 28.0 57.0 28.0 61.0 26.0 61.0 M38.0 31.0 L40.0 31.0 40.0 33.0 38.0 33.0 38.0 31.0 M20.0 45.0 L20.0 43.0 24.0 43.0 24.0 45.0 20.0 45.0 M30.0 39.0 L28.0 39.0 28.0 37.0 30.0 37.0 30.0 39.0 M32.0 77.0 L34.0 77.0 34.0 79.0 32.0 79.0 32.0 77.0 M36.0 117.0 L36.0 115.0 38.0 115.0 38.0 117.0 36.0 117.0 M100.0 117.0 L98.0 117.0 98.0 115.0 100.0 115.0 100.0 117.0" fill="#5a5210" fill-rule="evenodd" stroke="none"/>
    <path d="M26.0 63.0 L26.0 61.0 28.0 61.0 28.0 63.0 26.0 63.0 M34.0 29.0 L38.0 29.0 38.0 31.0 34.0 31.0 34.0 29.0 M38.0 27.0 L38.0 25.0 40.0 25.0 42.0 25.0 42.0 27.0 38.0 27.0 M36.0 37.0 L34.0 37.0 34.0 35.0 36.0 35.0 36.0 37.0 M38.0 33.0 L40.0 33.0 40.0 35.0 38.0 35.0 38.0 33.0 M76.0 103.0 L76.0 105.0 74.0 105.0 74.0 103.0 76.0 103.0 M82.0 101.0 L82.0 99.0 84.0 99.0 84.0 101.0 82.0 101.0" fill="#8c7b08" fill-rule="evenodd" stroke="none"/>
    <path d="M26.0 17.0 L28.0 17.0 28.0 19.0 26.0 19.0 26.0 17.0 M20.0 23.0 L24.0 23.0 24.0 21.0 26.0 21.0 26.0 23.0 26.0 25.0 24.0 25.0 24.0 27.0 26.0 27.0 26.0 29.0 24.0 29.0 24.0 33.0 22.0 33.0 22.0 39.0 20.0 39.0 18.0 39.0 18.0 37.0 18.0 35.0 16.0 35.0 14.0 35.0 14.0 37.0 12.0 37.0 10.0 37.0 10.0 35.0 12.0 35.0 12.0 33.0 14.0 33.0 14.0 31.0 16.0 31.0 16.0 29.0 18.0 29.0 18.0 25.0 20.0 25.0 20.0 23.0 M18.0 33.0 L18.0 35.0 20.0 35.0 20.0 33.0 20.0 31.0 18.0 31.0 18.0 33.0 M20.0 31.0 L22.0 31.0 22.0 29.0 20.0 29.0 20.0 31.0 M14.0 41.0 L16.0 41.0 18.0 41.0 18.0 43.0 14.0 43.0 14.0 41.0 M8.0 43.0 L10.0 43.0 10.0 45.0 6.0 45.0 6.0 47.0 4.0 47.0 4.0 45.0 6.0 45.0 6.0 43.0 8.0 43.0 M10.0 41.0 L10.0 39.0 12.0 39.0 12.0 41.0 10.0 41.0" fill="#e77b9c" fill-rule="evenodd" stroke="none"/>
    <path d="M0.0 37.0 L-2.0 37.0 -2.0 33.0 0.0 33.0 0.0 35.0 0.0 37.0 M8.0 35.0 L10.0 35.0 10.0 33.0 12.0 33.0 12.0 31.0 14.0 31.0 14.0 29.0 16.0 29.0 16.0 25.0 18.0 25.0 18.0 23.0 20.0 23.0 20.0 21.0 24.0 21.0 24.0 19.0 26.0 19.0 26.0 21.0 24.0 21.0 24.0 23.0 20.0 23.0 20.0 25.0 18.0 25.0 18.0 29.0 16.0 29.0 16.0 31.0 14.0 31.0 14.0 33.0 12.0 33.0 12.0 35.0 10.0 35.0 10.0 37.0 8.0 37.0 8.0 35.0 M20.0 31.0 L20.0 29.0 22.0 29.0 22.0 31.0 20.0 31.0 M18.0 39.0 L20.0 39.0 20.0 43.0 18.0 43.0 18.0 41.0 18.0 39.0 M22.0 39.0 L22.0 33.0 24.0 33.0 24.0 35.0 24.0 39.0 22.0 39.0 M8.0 43.0 L8.0 39.0 10.0 39.0 10.0 37.0 12.0 37.0 12.0 39.0 14.0 39.0 14.0 41.0 12.0 41.0 12.0 39.0 10.0 39.0 10.0 41.0 10.0 43.0 8.0 43.0 M0.0 43.0 L2.0 43.0 2.0 45.0 4.0 45.0 4.0 47.0 2.0 47.0 2.0 45.0 0.0 45.0 0.0 43.0 M6.0 49.0 L6.0 47.0 8.0 47.0 8.0 49.0 6.0 49.0" fill="#bd3984" fill-rule="evenodd" stroke="none"/>
    <path d="M12.0 37.0 L14.0 37.0 14.0 35.0 16.0 35.0 16.0 37.0 16.0 39.0 16.0 41.0 14.0 41.0 14.0 39.0 12.0 39.0 12.0 37.0 M18.0 33.0 L18.0 31.0 20.0 31.0 20.0 33.0 18.0 33.0" fill="#feffff" fill-rule="evenodd" stroke="none"/>
    <path d="M18.0 35.0 L18.0 33.0 20.0 33.0 20.0 35.0 18.0 35.0" fill="#cecece" fill-rule="evenodd" stroke="none"/>
    <path d="M16.0 35.0 L18.0 35.0 18.0 37.0 16.0 37.0 16.0 35.0" fill="#087b42" fill-rule="evenodd" stroke="none"/>
    <path d="M16.0 41.0 L16.0 39.0 18.0 39.0 18.0 41.0 16.0 41.0" fill="#00c65a" fill-rule="evenodd" stroke="none"/>
  </g>
</svg>
