<?xml version="1.0" encoding="UTF-8" standalone="no"?>
<svg xmlns:xlink="http://www.w3.org/1999/xlink" height="136.0px" width="136.0px" xmlns="http://www.w3.org/2000/svg">
  <g transform="matrix(1.0, 0.0, 0.0, 1.0, -4.0, 17.0)">
    <path d="M96.0 -5.0 L94.0 -5.0 94.0 -7.0 96.0 -7.0 96.0 -9.0 102.0 -9.0 102.0 -11.0 108.0 -11.0 108.0 -13.0 106.0 -13.0 106.0 -15.0 108.0 -15.0 108.0 -13.0 110.0 -13.0 110.0 -11.0 112.0 -11.0 112.0 -9.0 102.0 -9.0 102.0 -7.0 96.0 -7.0 96.0 -5.0 M132.0 5.0 L130.0 5.0 130.0 3.0 132.0 3.0 132.0 5.0 M128.0 3.0 L124.0 3.0 124.0 1.0 128.0 1.0 128.0 3.0 M122.0 1.0 L116.0 1.0 116.0 -1.0 106.0 -1.0 106.0 1.0 102.0 1.0 102.0 -1.0 104.0 -1.0 106.0 -1.0 106.0 -3.0 116.0 -3.0 116.0 -1.0 122.0 -1.0 122.0 1.0 M102.0 25.0 L104.0 25.0 104.0 27.0 102.0 27.0 102.0 25.0 M104.0 29.0 L106.0 29.0 106.0 33.0 108.0 33.0 108.0 41.0 106.0 41.0 106.0 45.0 104.0 45.0 104.0 47.0 102.0 47.0 102.0 45.0 104.0 45.0 104.0 41.0 106.0 41.0 106.0 33.0 104.0 33.0 104.0 31.0 104.0 29.0 M114.0 91.0 L114.0 93.0 112.0 93.0 112.0 91.0 114.0 91.0 M92.0 85.0 L92.0 87.0 90.0 87.0 90.0 91.0 88.0 91.0 88.0 87.0 90.0 87.0 90.0 83.0 92.0 83.0 92.0 85.0 M88.0 93.0 L88.0 95.0 86.0 95.0 86.0 93.0 88.0 93.0 M86.0 97.0 L86.0 99.0 84.0 99.0 84.0 97.0 86.0 97.0 M74.0 103.0 L74.0 101.0 76.0 101.0 76.0 97.0 78.0 97.0 78.0 87.0 76.0 87.0 76.0 85.0 74.0 85.0 74.0 79.0 72.0 79.0 72.0 73.0 74.0 73.0 74.0 79.0 76.0 79.0 76.0 85.0 78.0 85.0 78.0 87.0 80.0 87.0 80.0 93.0 80.0 95.0 80.0 97.0 78.0 97.0 78.0 101.0 76.0 101.0 76.0 103.0 74.0 103.0 M52.0 83.0 L56.0 83.0 56.0 87.0 54.0 87.0 54.0 89.0 52.0 89.0 52.0 91.0 50.0 91.0 50.0 93.0 48.0 93.0 48.0 91.0 48.0 89.0 50.0 89.0 52.0 89.0 52.0 87.0 54.0 87.0 54.0 85.0 50.0 85.0 50.0 83.0 52.0 83.0 M38.0 93.0 L36.0 93.0 36.0 91.0 34.0 91.0 34.0 89.0 32.0 89.0 32.0 83.0 30.0 83.0 30.0 77.0 32.0 77.0 32.0 83.0 34.0 83.0 34.0 89.0 36.0 89.0 36.0 91.0 38.0 91.0 38.0 93.0 M22.0 55.0 L24.0 55.0 24.0 57.0 22.0 57.0 22.0 55.0 M4.0 31.0 L4.0 29.0 6.0 29.0 6.0 25.0 8.0 25.0 8.0 29.0 6.0 29.0 6.0 31.0 4.0 31.0 M22.0 11.0 L30.0 11.0 30.0 13.0 34.0 13.0 34.0 11.0 36.0 11.0 36.0 13.0 38.0 13.0 38.0 15.0 36.0 15.0 36.0 13.0 34.0 13.0 34.0 15.0 30.0 15.0 30.0 13.0 22.0 13.0 22.0 11.0 M48.0 33.0 L48.0 35.0 46.0 35.0 46.0 33.0 48.0 33.0 M46.0 39.0 L44.0 39.0 44.0 37.0 46.0 37.0 46.0 39.0 M44.0 43.0 L46.0 43.0 46.0 45.0 52.0 45.0 52.0 47.0 54.0 47.0 54.0 49.0 60.0 49.0 60.0 51.0 68.0 51.0 68.0 53.0 60.0 53.0 60.0 51.0 54.0 51.0 54.0 49.0 52.0 49.0 52.0 47.0 46.0 47.0 46.0 45.0 42.0 45.0 42.0 43.0 44.0 43.0 M92.0 47.0 L96.0 47.0 96.0 45.0 98.0 45.0 98.0 41.0 100.0 41.0 100.0 33.0 98.0 33.0 98.0 29.0 96.0 29.0 96.0 27.0 94.0 27.0 94.0 23.0 92.0 23.0 92.0 19.0 90.0 19.0 90.0 15.0 88.0 15.0 88.0 5.0 90.0 5.0 90.0 1.0 92.0 1.0 92.0 -1.0 94.0 -1.0 94.0 -3.0 98.0 -3.0 98.0 -5.0 102.0 -5.0 102.0 -3.0 98.0 -3.0 98.0 -1.0 94.0 -1.0 94.0 1.0 92.0 1.0 92.0 5.0 90.0 5.0 90.0 15.0 92.0 15.0 92.0 19.0 94.0 19.0 94.0 23.0 96.0 23.0 96.0 27.0 98.0 27.0 98.0 29.0 100.0 29.0 100.0 33.0 102.0 33.0 102.0 41.0 100.0 41.0 100.0 45.0 98.0 45.0 98.0 47.0 96.0 47.0 96.0 49.0 98.0 49.0 98.0 53.0 96.0 53.0 96.0 51.0 94.0 51.0 94.0 49.0 90.0 49.0 90.0 47.0 92.0 47.0 M82.0 65.0 L82.0 67.0 82.0 71.0 82.0 73.0 80.0 73.0 80.0 71.0 80.0 69.0 80.0 65.0 82.0 65.0 M30.0 37.0 L32.0 37.0 32.0 39.0 38.0 39.0 38.0 37.0 40.0 37.0 40.0 39.0 38.0 39.0 38.0 41.0 36.0 41.0 32.0 41.0 32.0 39.0 30.0 39.0 30.0 37.0 M38.0 59.0 L38.0 63.0 36.0 63.0 36.0 75.0 38.0 75.0 38.0 81.0 40.0 81.0 40.0 85.0 42.0 85.0 42.0 89.0 42.0 91.0 42.0 95.0 40.0 95.0 40.0 93.0 40.0 91.0 40.0 89.0 40.0 85.0 38.0 85.0 38.0 81.0 36.0 81.0 36.0 77.0 36.0 75.0 34.0 75.0 34.0 69.0 34.0 65.0 34.0 63.0 36.0 63.0 36.0 59.0 38.0 59.0" fill="#312139" fill-rule="evenodd" stroke="none"/>
    <path d="M14.0 3.0 L16.0 3.0 16.0 5.0 18.0 5.0 18.0 7.0 20.0 7.0 20.0 9.0 22.0 9.0 22.0 11.0 22.0 13.0 30.0 13.0 30.0 15.0 34.0 15.0 34.0 13.0 36.0 13.0 36.0 15.0 38.0 15.0 38.0 13.0 44.0 13.0 44.0 11.0 46.0 11.0 48.0 11.0 48.0 13.0 46.0 13.0 46.0 17.0 44.0 17.0 44.0 21.0 42.0 21.0 42.0 23.0 40.0 23.0 40.0 25.0 38.0 25.0 38.0 27.0 36.0 27.0 36.0 31.0 34.0 31.0 34.0 27.0 36.0 27.0 36.0 25.0 38.0 25.0 38.0 23.0 40.0 23.0 40.0 19.0 42.0 19.0 42.0 17.0 44.0 17.0 44.0 15.0 42.0 15.0 40.0 15.0 40.0 17.0 32.0 17.0 32.0 19.0 30.0 19.0 30.0 21.0 26.0 21.0 26.0 23.0 24.0 23.0 24.0 25.0 22.0 25.0 18.0 25.0 18.0 23.0 20.0 23.0 20.0 21.0 18.0 21.0 18.0 23.0 16.0 23.0 16.0 25.0 14.0 25.0 14.0 27.0 16.0 27.0 16.0 31.0 14.0 31.0 14.0 33.0 12.0 33.0 12.0 35.0 10.0 35.0 8.0 35.0 8.0 33.0 8.0 31.0 6.0 31.0 6.0 29.0 8.0 29.0 8.0 25.0 10.0 25.0 12.0 25.0 12.0 21.0 10.0 21.0 10.0 13.0 12.0 13.0 12.0 11.0 14.0 11.0 14.0 3.0 M80.0 47.0 L82.0 47.0 90.0 47.0 90.0 49.0 94.0 49.0 94.0 51.0 96.0 51.0 96.0 53.0 98.0 53.0 100.0 53.0 100.0 55.0 102.0 55.0 102.0 57.0 98.0 57.0 98.0 59.0 96.0 59.0 96.0 61.0 94.0 61.0 94.0 63.0 96.0 63.0 96.0 65.0 100.0 65.0 100.0 63.0 102.0 63.0 102.0 59.0 104.0 59.0 104.0 73.0 106.0 73.0 106.0 79.0 98.0 79.0 98.0 81.0 96.0 81.0 96.0 83.0 92.0 83.0 92.0 81.0 88.0 81.0 88.0 79.0 86.0 79.0 86.0 77.0 84.0 77.0 84.0 73.0 88.0 73.0 88.0 71.0 90.0 71.0 90.0 69.0 88.0 69.0 88.0 67.0 86.0 67.0 86.0 65.0 84.0 65.0 84.0 67.0 82.0 67.0 82.0 65.0 82.0 63.0 80.0 63.0 80.0 65.0 80.0 69.0 76.0 69.0 76.0 67.0 74.0 67.0 70.0 67.0 70.0 65.0 66.0 65.0 64.0 65.0 64.0 67.0 56.0 67.0 56.0 65.0 54.0 65.0 54.0 67.0 54.0 75.0 52.0 75.0 52.0 69.0 48.0 69.0 48.0 73.0 46.0 73.0 46.0 77.0 48.0 77.0 48.0 79.0 50.0 79.0 50.0 77.0 52.0 77.0 52.0 81.0 50.0 81.0 50.0 83.0 48.0 83.0 48.0 85.0 50.0 85.0 54.0 85.0 54.0 87.0 52.0 87.0 50.0 87.0 50.0 89.0 48.0 89.0 48.0 91.0 46.0 91.0 46.0 93.0 44.0 93.0 44.0 91.0 44.0 89.0 42.0 89.0 42.0 85.0 40.0 85.0 40.0 81.0 38.0 81.0 38.0 75.0 36.0 75.0 36.0 63.0 38.0 63.0 38.0 59.0 38.0 57.0 36.0 57.0 36.0 55.0 34.0 55.0 34.0 53.0 32.0 53.0 32.0 51.0 34.0 51.0 34.0 53.0 36.0 53.0 36.0 51.0 34.0 51.0 34.0 49.0 34.0 47.0 32.0 47.0 32.0 45.0 34.0 45.0 34.0 43.0 36.0 43.0 36.0 41.0 38.0 41.0 38.0 39.0 40.0 39.0 40.0 41.0 42.0 41.0 42.0 43.0 42.0 45.0 46.0 45.0 46.0 47.0 52.0 47.0 52.0 49.0 54.0 49.0 54.0 51.0 60.0 51.0 60.0 53.0 68.0 53.0 70.0 53.0 70.0 55.0 72.0 55.0 72.0 57.0 74.0 57.0 74.0 55.0 72.0 55.0 72.0 53.0 72.0 51.0 74.0 51.0 74.0 55.0 76.0 55.0 76.0 51.0 76.0 49.0 80.0 49.0 80.0 47.0 M98.0 -5.0 L96.0 -5.0 96.0 -7.0 102.0 -7.0 102.0 -9.0 112.0 -9.0 112.0 -11.0 110.0 -11.0 110.0 -13.0 108.0 -13.0 108.0 -15.0 112.0 -15.0 112.0 -13.0 118.0 -13.0 118.0 -11.0 122.0 -11.0 122.0 -9.0 126.0 -9.0 126.0 -7.0 114.0 -7.0 114.0 -5.0 106.0 -5.0 106.0 -3.0 104.0 -3.0 104.0 -1.0 102.0 -1.0 100.0 -1.0 100.0 1.0 98.0 1.0 96.0 1.0 96.0 3.0 96.0 5.0 94.0 5.0 94.0 7.0 94.0 15.0 96.0 15.0 96.0 19.0 98.0 19.0 98.0 23.0 100.0 23.0 100.0 25.0 100.0 27.0 102.0 27.0 102.0 29.0 102.0 31.0 104.0 31.0 104.0 33.0 104.0 41.0 102.0 41.0 102.0 33.0 100.0 33.0 100.0 29.0 98.0 29.0 98.0 27.0 96.0 27.0 96.0 23.0 94.0 23.0 94.0 19.0 92.0 19.0 92.0 15.0 90.0 15.0 90.0 5.0 92.0 5.0 92.0 1.0 94.0 1.0 94.0 -1.0 98.0 -1.0 98.0 -3.0 102.0 -3.0 102.0 -5.0 98.0 -5.0 M92.0 53.0 L92.0 51.0 84.0 51.0 84.0 55.0 86.0 55.0 86.0 57.0 88.0 57.0 88.0 59.0 92.0 59.0 92.0 57.0 94.0 57.0 94.0 53.0 92.0 53.0 92.0 57.0 88.0 57.0 88.0 55.0 86.0 55.0 86.0 53.0 92.0 53.0 M96.0 61.0 L98.0 61.0 98.0 59.0 100.0 59.0 100.0 63.0 96.0 63.0 96.0 61.0 M84.0 67.0 L86.0 67.0 86.0 69.0 88.0 69.0 88.0 71.0 84.0 71.0 84.0 73.0 82.0 73.0 82.0 71.0 84.0 71.0 84.0 67.0 M92.0 73.0 L92.0 75.0 96.0 75.0 96.0 71.0 94.0 71.0 94.0 73.0 92.0 73.0 M102.0 87.0 L104.0 87.0 104.0 89.0 106.0 89.0 106.0 91.0 104.0 91.0 104.0 89.0 102.0 89.0 102.0 87.0 M106.0 85.0 L106.0 83.0 108.0 83.0 108.0 85.0 110.0 85.0 110.0 87.0 108.0 87.0 108.0 85.0 106.0 85.0 M82.0 91.0 L82.0 89.0 84.0 89.0 84.0 91.0 86.0 91.0 86.0 93.0 84.0 93.0 84.0 91.0 82.0 91.0 M82.0 93.0 L82.0 95.0 80.0 95.0 80.0 93.0 82.0 93.0 M42.0 53.0 L42.0 55.0 46.0 55.0 46.0 53.0 48.0 53.0 48.0 51.0 46.0 51.0 46.0 49.0 44.0 49.0 44.0 47.0 40.0 47.0 40.0 53.0 42.0 53.0 42.0 49.0 44.0 49.0 44.0 51.0 46.0 51.0 46.0 53.0 42.0 53.0 M18.0 11.0 L18.0 13.0 20.0 13.0 20.0 11.0 18.0 11.0 M16.0 27.0 L16.0 25.0 18.0 25.0 18.0 27.0 16.0 27.0 M32.0 59.0 L32.0 57.0 34.0 57.0 34.0 59.0 36.0 59.0 36.0 63.0 34.0 63.0 32.0 63.0 32.0 59.0 M40.0 59.0 L40.0 63.0 44.0 63.0 44.0 61.0 42.0 61.0 42.0 59.0 40.0 59.0 M40.0 89.0 L40.0 91.0 38.0 91.0 38.0 89.0 40.0 89.0 M70.0 61.0 L70.0 63.0 74.0 63.0 74.0 59.0 72.0 59.0 72.0 61.0 70.0 61.0 M58.0 59.0 L56.0 59.0 56.0 61.0 54.0 61.0 54.0 63.0 56.0 63.0 56.0 61.0 58.0 61.0 58.0 59.0 60.0 59.0 60.0 55.0 52.0 55.0 52.0 59.0 54.0 59.0 54.0 57.0 58.0 57.0 58.0 59.0 M48.0 73.0 L50.0 73.0 50.0 77.0 48.0 77.0 48.0 73.0" fill="#846394" fill-rule="evenodd" stroke="none"/>
    <path d="M106.0 -15.0 L106.0 -17.0 112.0 -17.0 112.0 -15.0 118.0 -15.0 118.0 -13.0 122.0 -13.0 122.0 -11.0 126.0 -11.0 126.0 -9.0 128.0 -9.0 128.0 -7.0 130.0 -7.0 130.0 -5.0 128.0 -5.0 128.0 -7.0 126.0 -7.0 126.0 -9.0 122.0 -9.0 122.0 -11.0 118.0 -11.0 118.0 -13.0 112.0 -13.0 112.0 -15.0 108.0 -15.0 106.0 -15.0 M100.0 1.0 L100.0 3.0 98.0 3.0 98.0 5.0 96.0 5.0 96.0 3.0 98.0 3.0 98.0 1.0 100.0 1.0 M96.0 7.0 L96.0 15.0 98.0 15.0 98.0 19.0 100.0 19.0 100.0 23.0 102.0 23.0 102.0 25.0 100.0 25.0 100.0 23.0 98.0 23.0 98.0 19.0 96.0 19.0 96.0 15.0 94.0 15.0 94.0 7.0 96.0 7.0 M104.0 27.0 L104.0 29.0 102.0 29.0 102.0 27.0 104.0 27.0 M102.0 47.0 L102.0 49.0 100.0 49.0 100.0 53.0 102.0 53.0 102.0 55.0 104.0 55.0 104.0 59.0 106.0 59.0 106.0 73.0 108.0 73.0 108.0 81.0 110.0 81.0 110.0 83.0 112.0 83.0 112.0 85.0 114.0 85.0 114.0 91.0 112.0 91.0 112.0 85.0 110.0 85.0 110.0 83.0 108.0 83.0 108.0 81.0 106.0 81.0 106.0 79.0 106.0 73.0 104.0 73.0 104.0 59.0 102.0 59.0 102.0 57.0 102.0 55.0 100.0 55.0 100.0 53.0 98.0 53.0 98.0 49.0 100.0 49.0 100.0 47.0 102.0 47.0 M112.0 93.0 L112.0 99.0 110.0 99.0 110.0 105.0 108.0 105.0 108.0 111.0 106.0 111.0 106.0 115.0 104.0 115.0 104.0 117.0 102.0 117.0 102.0 119.0 96.0 119.0 96.0 117.0 94.0 117.0 94.0 113.0 96.0 113.0 96.0 115.0 96.0 117.0 98.0 117.0 100.0 117.0 102.0 117.0 102.0 115.0 104.0 115.0 104.0 113.0 104.0 111.0 106.0 111.0 106.0 105.0 108.0 105.0 108.0 99.0 110.0 99.0 110.0 93.0 112.0 93.0 M100.0 95.0 L100.0 89.0 98.0 89.0 98.0 87.0 96.0 87.0 96.0 85.0 92.0 85.0 92.0 83.0 90.0 83.0 88.0 83.0 88.0 81.0 86.0 81.0 86.0 79.0 84.0 79.0 84.0 77.0 82.0 77.0 82.0 73.0 84.0 73.0 84.0 77.0 86.0 77.0 86.0 79.0 88.0 79.0 88.0 81.0 92.0 81.0 92.0 83.0 96.0 83.0 98.0 83.0 98.0 85.0 100.0 85.0 100.0 87.0 100.0 89.0 102.0 89.0 102.0 95.0 100.0 95.0 M90.0 91.0 L90.0 93.0 88.0 93.0 88.0 91.0 90.0 91.0 M88.0 95.0 L88.0 97.0 86.0 97.0 86.0 95.0 88.0 95.0 M86.0 99.0 L86.0 101.0 84.0 101.0 84.0 103.0 82.0 103.0 82.0 105.0 80.0 105.0 80.0 107.0 78.0 107.0 78.0 109.0 76.0 109.0 76.0 111.0 70.0 111.0 70.0 109.0 72.0 109.0 76.0 109.0 76.0 107.0 78.0 107.0 78.0 105.0 80.0 105.0 80.0 103.0 82.0 103.0 82.0 101.0 84.0 101.0 84.0 99.0 86.0 99.0 M54.0 77.0 L54.0 81.0 52.0 81.0 52.0 83.0 50.0 83.0 50.0 81.0 52.0 81.0 52.0 77.0 52.0 75.0 54.0 75.0 54.0 67.0 56.0 67.0 56.0 69.0 56.0 75.0 54.0 75.0 54.0 77.0 M50.0 93.0 L50.0 99.0 48.0 99.0 48.0 105.0 46.0 105.0 46.0 99.0 48.0 99.0 48.0 93.0 50.0 93.0 M46.0 113.0 L46.0 115.0 40.0 115.0 40.0 117.0 38.0 117.0 38.0 119.0 34.0 119.0 34.0 117.0 32.0 117.0 32.0 113.0 34.0 113.0 34.0 117.0 36.0 117.0 38.0 117.0 38.0 115.0 40.0 115.0 40.0 113.0 42.0 113.0 42.0 109.0 44.0 109.0 44.0 105.0 46.0 105.0 46.0 107.0 46.0 109.0 44.0 109.0 44.0 113.0 46.0 113.0 M30.0 77.0 L30.0 75.0 28.0 75.0 28.0 73.0 26.0 73.0 26.0 69.0 24.0 69.0 24.0 65.0 22.0 65.0 22.0 61.0 20.0 61.0 20.0 57.0 22.0 57.0 22.0 61.0 24.0 61.0 24.0 63.0 24.0 65.0 26.0 65.0 26.0 67.0 26.0 69.0 28.0 69.0 28.0 73.0 30.0 73.0 30.0 75.0 32.0 75.0 34.0 75.0 36.0 75.0 36.0 77.0 32.0 77.0 30.0 77.0 M22.0 43.0 L20.0 43.0 20.0 41.0 16.0 41.0 16.0 43.0 10.0 43.0 10.0 41.0 6.0 41.0 6.0 37.0 8.0 37.0 8.0 39.0 10.0 39.0 10.0 41.0 14.0 41.0 16.0 41.0 16.0 39.0 20.0 39.0 20.0 41.0 22.0 41.0 22.0 43.0 M6.0 35.0 L4.0 35.0 4.0 31.0 6.0 31.0 6.0 33.0 6.0 35.0 M20.0 7.0 L22.0 7.0 22.0 9.0 20.0 9.0 20.0 7.0 M48.0 13.0 L48.0 17.0 46.0 17.0 46.0 21.0 44.0 21.0 44.0 23.0 42.0 23.0 42.0 25.0 40.0 25.0 40.0 27.0 38.0 27.0 38.0 29.0 38.0 31.0 36.0 31.0 36.0 27.0 38.0 27.0 38.0 25.0 40.0 25.0 40.0 23.0 42.0 23.0 42.0 21.0 44.0 21.0 44.0 17.0 46.0 17.0 46.0 13.0 48.0 13.0 M48.0 29.0 L48.0 27.0 52.0 27.0 52.0 29.0 50.0 29.0 50.0 31.0 48.0 31.0 48.0 33.0 46.0 33.0 46.0 35.0 44.0 35.0 44.0 33.0 42.0 33.0 42.0 31.0 44.0 31.0 44.0 33.0 46.0 33.0 46.0 31.0 48.0 31.0 48.0 29.0 M48.0 35.0 L50.0 35.0 50.0 37.0 48.0 37.0 48.0 39.0 46.0 39.0 46.0 37.0 48.0 37.0 48.0 35.0 M44.0 39.0 L44.0 43.0 42.0 43.0 42.0 41.0 40.0 41.0 40.0 39.0 40.0 37.0 42.0 37.0 42.0 39.0 44.0 39.0 M36.0 33.0 L40.0 33.0 40.0 35.0 38.0 35.0 36.0 35.0 36.0 37.0 32.0 37.0 32.0 35.0 32.0 33.0 34.0 33.0 36.0 33.0 M22.0 33.0 L22.0 31.0 24.0 31.0 24.0 33.0 22.0 33.0" fill="#121212" fill-rule="evenodd" stroke="none"/>
    <path d="M130.0 -5.0 L132.0 -5.0 132.0 -3.0 134.0 -3.0 134.0 -1.0 136.0 -1.0 136.0 3.0 138.0 3.0 138.0 7.0 140.0 7.0 140.0 11.0 138.0 11.0 138.0 9.0 136.0 9.0 136.0 7.0 134.0 7.0 134.0 5.0 132.0 5.0 132.0 3.0 130.0 3.0 128.0 3.0 128.0 1.0 124.0 1.0 122.0 1.0 122.0 -1.0 116.0 -1.0 116.0 -3.0 106.0 -3.0 106.0 -1.0 104.0 -1.0 104.0 -3.0 106.0 -3.0 106.0 -5.0 114.0 -5.0 114.0 -7.0 126.0 -7.0 128.0 -7.0 128.0 -5.0 130.0 -5.0 M102.0 1.0 L100.0 1.0 100.0 -1.0 102.0 -1.0 102.0 1.0 M96.0 5.0 L96.0 7.0 94.0 7.0 94.0 5.0 96.0 5.0 M8.0 23.0 L8.0 13.0 10.0 13.0 10.0 11.0 12.0 11.0 12.0 3.0 14.0 3.0 14.0 11.0 12.0 11.0 12.0 13.0 10.0 13.0 10.0 21.0 10.0 23.0 8.0 23.0 M16.0 3.0 L16.0 1.0 18.0 1.0 18.0 5.0 20.0 5.0 20.0 7.0 18.0 7.0 18.0 5.0 16.0 5.0 16.0 3.0 M38.0 13.0 L38.0 11.0 44.0 11.0 44.0 13.0 38.0 13.0 M46.0 11.0 L46.0 9.0 50.0 9.0 50.0 13.0 48.0 13.0 48.0 11.0 46.0 11.0 M68.0 51.0 L72.0 51.0 72.0 49.0 76.0 49.0 76.0 47.0 80.0 47.0 80.0 49.0 76.0 49.0 76.0 51.0 74.0 51.0 72.0 51.0 72.0 53.0 70.0 53.0 68.0 53.0 68.0 51.0 M82.0 47.0 L82.0 45.0 92.0 45.0 92.0 47.0 90.0 47.0 82.0 47.0 M98.0 1.0 L98.0 3.0 96.0 3.0 96.0 1.0 98.0 1.0 M100.0 25.0 L102.0 25.0 102.0 27.0 100.0 27.0 100.0 25.0 M102.0 41.0 L104.0 41.0 104.0 33.0 106.0 33.0 106.0 41.0 104.0 41.0 104.0 45.0 102.0 45.0 102.0 47.0 100.0 47.0 100.0 49.0 98.0 49.0 96.0 49.0 96.0 47.0 98.0 47.0 98.0 45.0 100.0 45.0 100.0 41.0 102.0 41.0 M104.0 31.0 L102.0 31.0 102.0 29.0 104.0 29.0 104.0 31.0 M106.0 79.0 L106.0 81.0 108.0 81.0 108.0 83.0 110.0 83.0 110.0 85.0 108.0 85.0 108.0 83.0 106.0 83.0 106.0 85.0 106.0 89.0 104.0 89.0 104.0 87.0 102.0 87.0 100.0 87.0 100.0 85.0 98.0 85.0 98.0 83.0 96.0 83.0 96.0 81.0 98.0 81.0 98.0 79.0 106.0 79.0 M82.0 73.0 L82.0 77.0 84.0 77.0 84.0 79.0 86.0 79.0 86.0 81.0 88.0 81.0 88.0 83.0 90.0 83.0 90.0 87.0 88.0 87.0 88.0 91.0 86.0 91.0 84.0 91.0 84.0 89.0 82.0 89.0 82.0 91.0 82.0 93.0 80.0 93.0 80.0 87.0 78.0 87.0 78.0 85.0 76.0 85.0 76.0 79.0 74.0 79.0 74.0 73.0 80.0 73.0 82.0 73.0 M80.0 65.0 L80.0 63.0 82.0 63.0 82.0 65.0 80.0 65.0 M42.0 15.0 L44.0 15.0 44.0 17.0 42.0 17.0 42.0 19.0 40.0 19.0 40.0 23.0 38.0 23.0 38.0 25.0 36.0 25.0 36.0 27.0 34.0 27.0 34.0 31.0 36.0 31.0 36.0 33.0 34.0 33.0 34.0 31.0 30.0 31.0 30.0 29.0 32.0 29.0 32.0 25.0 36.0 25.0 36.0 23.0 38.0 23.0 38.0 19.0 40.0 19.0 40.0 17.0 42.0 17.0 42.0 15.0 M18.0 11.0 L20.0 11.0 20.0 13.0 18.0 13.0 18.0 11.0 M32.0 41.0 L30.0 41.0 30.0 39.0 32.0 39.0 32.0 41.0 36.0 41.0 36.0 43.0 34.0 43.0 34.0 45.0 32.0 45.0 32.0 41.0 M36.0 57.0 L38.0 57.0 38.0 59.0 36.0 59.0 36.0 57.0 M50.0 89.0 L50.0 87.0 52.0 87.0 52.0 89.0 50.0 89.0 M50.0 85.0 L48.0 85.0 48.0 83.0 50.0 83.0 50.0 85.0 M54.0 67.0 L54.0 65.0 56.0 65.0 56.0 67.0 54.0 67.0 M36.0 77.0 L36.0 81.0 38.0 81.0 38.0 85.0 40.0 85.0 40.0 89.0 38.0 89.0 38.0 91.0 36.0 91.0 36.0 89.0 34.0 89.0 34.0 83.0 32.0 83.0 32.0 77.0 36.0 77.0" fill="#5a4273" fill-rule="evenodd" stroke="none"/>
    <path d="M70.0 73.0 L68.0 73.0 68.0 71.0 62.0 71.0 60.0 71.0 60.0 69.0 56.0 69.0 56.0 67.0 64.0 67.0 66.0 67.0 66.0 65.0 70.0 65.0 70.0 67.0 74.0 67.0 74.0 69.0 76.0 69.0 80.0 69.0 80.0 71.0 70.0 71.0 70.0 73.0 M26.0 53.0 L26.0 51.0 26.0 47.0 28.0 47.0 28.0 49.0 30.0 49.0 30.0 47.0 32.0 47.0 32.0 49.0 34.0 49.0 34.0 51.0 32.0 51.0 32.0 53.0 34.0 53.0 34.0 55.0 34.0 57.0 36.0 57.0 36.0 59.0 34.0 59.0 34.0 57.0 32.0 57.0 32.0 55.0 30.0 55.0 30.0 59.0 32.0 59.0 32.0 63.0 32.0 65.0 34.0 65.0 34.0 69.0 30.0 69.0 30.0 67.0 26.0 67.0 26.0 65.0 26.0 63.0 28.0 63.0 28.0 61.0 28.0 59.0 28.0 57.0 28.0 53.0 26.0 53.0 M6.0 37.0 L6.0 35.0 6.0 33.0 8.0 33.0 8.0 35.0 8.0 37.0 6.0 37.0 M42.0 29.0 L44.0 29.0 44.0 31.0 46.0 31.0 46.0 33.0 44.0 33.0 44.0 31.0 42.0 31.0 42.0 33.0 40.0 33.0 36.0 33.0 36.0 31.0 38.0 31.0 42.0 31.0 42.0 29.0 M46.0 29.0 L48.0 29.0 48.0 31.0 46.0 31.0 46.0 29.0 M102.0 57.0 L102.0 59.0 102.0 63.0 100.0 63.0 100.0 65.0 96.0 65.0 96.0 63.0 94.0 63.0 94.0 61.0 96.0 61.0 96.0 59.0 98.0 59.0 98.0 57.0 102.0 57.0 M92.0 53.0 L94.0 53.0 94.0 57.0 92.0 57.0 92.0 59.0 88.0 59.0 88.0 57.0 86.0 57.0 86.0 55.0 84.0 55.0 84.0 51.0 92.0 51.0 92.0 53.0 86.0 53.0 86.0 55.0 88.0 55.0 88.0 57.0 92.0 57.0 92.0 53.0 M96.0 61.0 L96.0 63.0 100.0 63.0 100.0 59.0 98.0 59.0 98.0 61.0 96.0 61.0 M82.0 67.0 L84.0 67.0 84.0 65.0 86.0 65.0 86.0 67.0 88.0 67.0 88.0 69.0 90.0 69.0 90.0 71.0 88.0 71.0 88.0 73.0 84.0 73.0 84.0 71.0 88.0 71.0 88.0 69.0 86.0 69.0 86.0 67.0 84.0 67.0 84.0 71.0 82.0 71.0 82.0 67.0 M92.0 73.0 L94.0 73.0 94.0 71.0 96.0 71.0 96.0 75.0 92.0 75.0 92.0 73.0 M100.0 109.0 L102.0 109.0 102.0 111.0 104.0 111.0 104.0 113.0 102.0 113.0 102.0 115.0 100.0 115.0 98.0 115.0 96.0 115.0 96.0 113.0 98.0 113.0 98.0 111.0 100.0 111.0 100.0 109.0 M30.0 31.0 L34.0 31.0 34.0 33.0 32.0 33.0 30.0 33.0 30.0 31.0 M42.0 35.0 L42.0 37.0 44.0 37.0 44.0 35.0 46.0 35.0 48.0 35.0 48.0 37.0 46.0 37.0 44.0 37.0 44.0 39.0 42.0 39.0 42.0 37.0 40.0 37.0 38.0 37.0 38.0 35.0 40.0 35.0 42.0 35.0 M42.0 53.0 L40.0 53.0 40.0 47.0 44.0 47.0 44.0 49.0 46.0 49.0 46.0 51.0 48.0 51.0 48.0 53.0 46.0 53.0 46.0 55.0 42.0 55.0 42.0 53.0 46.0 53.0 46.0 51.0 44.0 51.0 44.0 49.0 42.0 49.0 42.0 53.0 M26.0 35.0 L28.0 35.0 30.0 35.0 32.0 35.0 32.0 37.0 30.0 37.0 28.0 37.0 28.0 39.0 24.0 39.0 24.0 41.0 22.0 41.0 20.0 41.0 20.0 39.0 20.0 37.0 24.0 37.0 26.0 37.0 26.0 35.0 M20.0 33.0 L20.0 35.0 20.0 37.0 16.0 37.0 16.0 39.0 16.0 41.0 14.0 41.0 14.0 39.0 12.0 39.0 12.0 37.0 12.0 35.0 16.0 35.0 16.0 33.0 18.0 33.0 20.0 33.0 M36.0 37.0 L38.0 37.0 38.0 39.0 32.0 39.0 32.0 37.0 36.0 37.0 M44.0 91.0 L44.0 93.0 46.0 93.0 48.0 93.0 48.0 99.0 46.0 99.0 46.0 105.0 44.0 105.0 44.0 109.0 42.0 109.0 42.0 113.0 40.0 113.0 40.0 115.0 38.0 115.0 38.0 113.0 36.0 113.0 36.0 109.0 38.0 109.0 38.0 105.0 40.0 105.0 40.0 99.0 42.0 99.0 42.0 95.0 42.0 91.0 44.0 91.0 M52.0 77.0 L50.0 77.0 50.0 79.0 48.0 79.0 48.0 77.0 46.0 77.0 46.0 73.0 48.0 73.0 48.0 69.0 52.0 69.0 52.0 75.0 52.0 77.0 M24.0 57.0 L24.0 59.0 26.0 59.0 26.0 61.0 26.0 63.0 24.0 63.0 24.0 61.0 22.0 61.0 22.0 57.0 24.0 57.0 M40.0 59.0 L42.0 59.0 42.0 61.0 44.0 61.0 44.0 63.0 40.0 63.0 40.0 59.0 M76.0 51.0 L76.0 55.0 74.0 55.0 74.0 51.0 76.0 51.0 M72.0 53.0 L72.0 55.0 74.0 55.0 74.0 57.0 72.0 57.0 72.0 55.0 70.0 55.0 70.0 53.0 72.0 53.0 M70.0 61.0 L72.0 61.0 72.0 59.0 74.0 59.0 74.0 63.0 70.0 63.0 70.0 61.0 M58.0 59.0 L58.0 57.0 54.0 57.0 54.0 59.0 52.0 59.0 52.0 55.0 60.0 55.0 60.0 59.0 58.0 59.0 58.0 61.0 56.0 61.0 56.0 63.0 54.0 63.0 54.0 61.0 56.0 61.0 56.0 59.0 58.0 59.0 M48.0 73.0 L48.0 77.0 50.0 77.0 50.0 73.0 48.0 73.0 M36.0 115.0 L36.0 117.0 34.0 117.0 34.0 113.0 36.0 113.0 36.0 115.0" fill="#f7d642" fill-rule="evenodd" stroke="none"/>
    <path d="M110.0 85.0 L112.0 85.0 112.0 91.0 112.0 93.0 110.0 93.0 110.0 99.0 108.0 99.0 108.0 105.0 106.0 105.0 106.0 111.0 104.0 111.0 102.0 111.0 102.0 109.0 100.0 109.0 100.0 105.0 102.0 105.0 102.0 95.0 102.0 89.0 100.0 89.0 100.0 87.0 102.0 87.0 102.0 89.0 104.0 89.0 104.0 91.0 106.0 91.0 106.0 89.0 106.0 85.0 108.0 85.0 108.0 87.0 110.0 87.0 110.0 85.0 M86.0 91.0 L88.0 91.0 88.0 93.0 86.0 93.0 86.0 95.0 86.0 97.0 84.0 97.0 84.0 99.0 82.0 99.0 82.0 101.0 82.0 103.0 80.0 103.0 80.0 105.0 78.0 105.0 78.0 107.0 76.0 107.0 76.0 109.0 72.0 109.0 72.0 107.0 74.0 107.0 74.0 105.0 76.0 105.0 76.0 103.0 76.0 101.0 78.0 101.0 78.0 97.0 80.0 97.0 80.0 95.0 82.0 95.0 82.0 93.0 82.0 91.0 84.0 91.0 84.0 93.0 86.0 93.0 86.0 91.0 M10.0 23.0 L10.0 21.0 12.0 21.0 12.0 25.0 10.0 25.0 10.0 23.0 M16.0 27.0 L14.0 27.0 14.0 25.0 16.0 25.0 16.0 23.0 18.0 23.0 18.0 21.0 20.0 21.0 20.0 23.0 18.0 23.0 18.0 25.0 16.0 25.0 16.0 27.0 M12.0 39.0 L14.0 39.0 14.0 41.0 10.0 41.0 10.0 39.0 8.0 39.0 8.0 37.0 10.0 37.0 10.0 39.0 12.0 39.0 M16.0 39.0 L16.0 37.0 20.0 37.0 20.0 39.0 16.0 39.0 M28.0 39.0 L28.0 37.0 30.0 37.0 30.0 39.0 30.0 41.0 32.0 41.0 32.0 45.0 32.0 47.0 30.0 47.0 30.0 49.0 28.0 49.0 28.0 47.0 26.0 47.0 26.0 45.0 24.0 45.0 24.0 41.0 28.0 41.0 28.0 39.0 M32.0 47.0 L34.0 47.0 34.0 49.0 32.0 49.0 32.0 47.0 M34.0 51.0 L36.0 51.0 36.0 53.0 34.0 53.0 34.0 51.0 M34.0 55.0 L36.0 55.0 36.0 57.0 34.0 57.0 34.0 55.0 M42.0 89.0 L44.0 89.0 44.0 91.0 42.0 91.0 42.0 89.0 M46.0 93.0 L46.0 91.0 48.0 91.0 48.0 93.0 46.0 93.0 M64.0 67.0 L64.0 65.0 66.0 65.0 66.0 67.0 64.0 67.0 M74.0 67.0 L76.0 67.0 76.0 69.0 74.0 69.0 74.0 67.0 M32.0 57.0 L32.0 59.0 30.0 59.0 30.0 55.0 32.0 55.0 32.0 57.0 M32.0 63.0 L34.0 63.0 34.0 65.0 32.0 65.0 32.0 63.0 M28.0 59.0 L28.0 61.0 26.0 61.0 26.0 59.0 28.0 59.0 M26.0 63.0 L26.0 65.0 24.0 65.0 24.0 63.0 26.0 63.0 M26.0 67.0 L30.0 67.0 30.0 69.0 34.0 69.0 34.0 75.0 32.0 75.0 32.0 73.0 30.0 73.0 28.0 73.0 28.0 69.0 26.0 69.0 26.0 67.0 M40.0 91.0 L40.0 93.0 38.0 93.0 38.0 91.0 40.0 91.0 M62.0 71.0 L62.0 73.0 58.0 73.0 58.0 75.0 56.0 75.0 56.0 69.0 60.0 69.0 60.0 71.0 62.0 71.0 M46.0 105.0 L48.0 105.0 48.0 107.0 46.0 107.0 46.0 105.0 M46.0 109.0 L46.0 113.0 44.0 113.0 44.0 109.0 46.0 109.0 M38.0 115.0 L36.0 115.0 36.0 113.0 38.0 113.0 38.0 115.0 M104.0 115.0 L102.0 115.0 102.0 117.0 100.0 117.0 100.0 115.0 102.0 115.0 102.0 113.0 104.0 113.0 104.0 115.0 M98.0 117.0 L96.0 117.0 96.0 115.0 98.0 115.0 98.0 117.0" fill="#cea518" fill-rule="evenodd" stroke="none"/>
    <path d="M96.0 113.0 L96.0 111.0 98.0 111.0 98.0 105.0 100.0 105.0 100.0 95.0 102.0 95.0 102.0 105.0 100.0 105.0 100.0 109.0 100.0 111.0 98.0 111.0 98.0 113.0 96.0 113.0 M70.0 109.0 L70.0 107.0 72.0 107.0 72.0 103.0 74.0 103.0 74.0 105.0 74.0 107.0 72.0 107.0 72.0 109.0 70.0 109.0 M72.0 73.0 L70.0 73.0 70.0 71.0 80.0 71.0 80.0 73.0 74.0 73.0 72.0 73.0 M68.0 73.0 L62.0 73.0 62.0 75.0 58.0 75.0 58.0 77.0 54.0 77.0 54.0 75.0 56.0 75.0 58.0 75.0 58.0 73.0 62.0 73.0 62.0 71.0 68.0 71.0 68.0 73.0 M50.0 99.0 L50.0 107.0 48.0 107.0 48.0 113.0 46.0 113.0 46.0 109.0 46.0 107.0 48.0 107.0 48.0 105.0 48.0 99.0 50.0 99.0 M34.0 113.0 L34.0 109.0 36.0 109.0 36.0 105.0 38.0 105.0 38.0 99.0 40.0 99.0 40.0 97.0 38.0 97.0 38.0 93.0 40.0 93.0 40.0 95.0 42.0 95.0 42.0 99.0 40.0 99.0 40.0 105.0 38.0 105.0 38.0 109.0 36.0 109.0 36.0 113.0 34.0 113.0 M20.0 57.0 L20.0 55.0 22.0 55.0 22.0 57.0 20.0 57.0 M24.0 57.0 L26.0 57.0 26.0 53.0 28.0 53.0 28.0 57.0 26.0 57.0 26.0 59.0 24.0 59.0 24.0 57.0 M26.0 51.0 L24.0 51.0 24.0 45.0 22.0 45.0 22.0 43.0 22.0 41.0 24.0 41.0 24.0 39.0 28.0 39.0 28.0 41.0 24.0 41.0 24.0 45.0 26.0 45.0 26.0 47.0 26.0 51.0 M40.0 33.0 L42.0 33.0 42.0 35.0 40.0 35.0 40.0 33.0 M32.0 35.0 L30.0 35.0 30.0 33.0 32.0 33.0 32.0 35.0 M28.0 61.0 L28.0 63.0 26.0 63.0 26.0 61.0 28.0 61.0 M30.0 73.0 L32.0 73.0 32.0 75.0 30.0 75.0 30.0 73.0 M36.0 117.0 L36.0 115.0 38.0 115.0 38.0 117.0 36.0 117.0 M100.0 117.0 L98.0 117.0 98.0 115.0 100.0 115.0 100.0 117.0" fill="#5a5210" fill-rule="evenodd" stroke="none"/>
    <path d="M8.0 25.0 L8.0 23.0 10.0 23.0 10.0 25.0 8.0 25.0 M42.0 15.0 L42.0 17.0 40.0 17.0 40.0 19.0 38.0 19.0 32.0 19.0 32.0 21.0 30.0 21.0 30.0 23.0 26.0 23.0 26.0 21.0 30.0 21.0 30.0 19.0 32.0 19.0 32.0 17.0 40.0 17.0 40.0 15.0 42.0 15.0 M24.0 25.0 L24.0 23.0 26.0 23.0 26.0 25.0 24.0 25.0 M18.0 25.0 L22.0 25.0 22.0 27.0 18.0 27.0 18.0 25.0 M6.0 31.0 L8.0 31.0 8.0 33.0 6.0 33.0 6.0 31.0 M8.0 35.0 L10.0 35.0 10.0 37.0 8.0 37.0 8.0 35.0 M14.0 33.0 L14.0 31.0 16.0 31.0 16.0 27.0 18.0 27.0 18.0 29.0 18.0 31.0 20.0 31.0 20.0 33.0 18.0 33.0 18.0 31.0 16.0 31.0 16.0 33.0 14.0 33.0 M28.0 27.0 L28.0 25.0 30.0 25.0 30.0 27.0 28.0 27.0 M24.0 35.0 L26.0 35.0 26.0 37.0 24.0 37.0 24.0 35.0 M28.0 35.0 L28.0 33.0 30.0 33.0 30.0 35.0 28.0 35.0 M12.0 37.0 L12.0 39.0 10.0 39.0 10.0 37.0 12.0 37.0" fill="#bd3984" fill-rule="evenodd" stroke="none"/>
    <path d="M38.0 29.0 L42.0 29.0 42.0 31.0 38.0 31.0 38.0 29.0 M44.0 29.0 L46.0 29.0 46.0 31.0 44.0 31.0 44.0 29.0 M76.0 103.0 L76.0 105.0 74.0 105.0 74.0 103.0 76.0 103.0 M82.0 101.0 L82.0 99.0 84.0 99.0 84.0 101.0 82.0 101.0 M44.0 35.0 L44.0 37.0 42.0 37.0 42.0 35.0 44.0 35.0 M36.0 37.0 L36.0 35.0 38.0 35.0 38.0 37.0 36.0 37.0 M28.0 57.0 L28.0 59.0 26.0 59.0 26.0 57.0 28.0 57.0" fill="#8c7b08" fill-rule="evenodd" stroke="none"/>
    <path d="M38.0 19.0 L38.0 23.0 36.0 23.0 36.0 25.0 32.0 25.0 32.0 29.0 30.0 29.0 30.0 31.0 30.0 33.0 28.0 33.0 28.0 35.0 26.0 35.0 24.0 35.0 24.0 33.0 26.0 33.0 26.0 31.0 28.0 31.0 28.0 29.0 28.0 27.0 26.0 27.0 26.0 29.0 24.0 29.0 22.0 29.0 22.0 31.0 20.0 31.0 20.0 29.0 18.0 29.0 18.0 27.0 22.0 27.0 22.0 25.0 24.0 25.0 26.0 25.0 26.0 23.0 30.0 23.0 30.0 21.0 32.0 21.0 32.0 19.0 38.0 19.0 M10.0 35.0 L12.0 35.0 12.0 33.0 14.0 33.0 16.0 33.0 16.0 31.0 18.0 31.0 18.0 33.0 16.0 33.0 16.0 35.0 12.0 35.0 12.0 37.0 10.0 37.0 10.0 35.0 M28.0 27.0 L30.0 27.0 30.0 25.0 28.0 25.0 28.0 27.0 M20.0 35.0 L22.0 35.0 24.0 35.0 24.0 37.0 20.0 37.0 20.0 35.0" fill="#e77b9c" fill-rule="evenodd" stroke="none"/>
    <path d="M18.0 29.0 L20.0 29.0 20.0 31.0 22.0 31.0 22.0 29.0 24.0 29.0 24.0 31.0 22.0 31.0 22.0 33.0 22.0 35.0 20.0 35.0 20.0 33.0 20.0 31.0 18.0 31.0 18.0 29.0 M26.0 29.0 L26.0 27.0 28.0 27.0 28.0 29.0 26.0 29.0" fill="#feffff" fill-rule="evenodd" stroke="none"/>
    <path d="M28.0 29.0 L28.0 31.0 26.0 31.0 26.0 29.0 28.0 29.0" fill="#cecece" fill-rule="evenodd" stroke="none"/>
    <path d="M24.0 33.0 L24.0 35.0 22.0 35.0 22.0 33.0 24.0 33.0" fill="#00c65a" fill-rule="evenodd" stroke="none"/>
    <path d="M24.0 29.0 L26.0 29.0 26.0 31.0 26.0 33.0 24.0 33.0 24.0 31.0 24.0 29.0" fill="#087b42" fill-rule="evenodd" stroke="none"/>
  </g>
</svg>
