<?xml version="1.0" encoding="UTF-8" standalone="no"?>
<svg xmlns:xlink="http://www.w3.org/1999/xlink" height="118.75px" width="340.45px" xmlns="http://www.w3.org/2000/svg">
  <g transform="matrix(1.0, 0.0, 0.0, 1.0, 170.55, 59.35)">
    <path d="M-169.3 -10.55 Q-128.1 -26.65 -90.95 -58.75 L-90.9 -58.75 -54.65 -2.0 -54.7 -2.0 Q-107.2 -19.7 -169.3 -10.55" fill="#1e7fae" fill-rule="evenodd" stroke="none"/>
    <path d="M169.3 13.95 L169.3 14.25 Q60.4 38.05 -15.75 53.85 -60.7 61.7 -90.8 57.1 L-54.7 -2.0 -54.65 -2.0 Q-39.15 3.35 -19.55 7.35 54.4 15.2 169.3 13.95" fill="#a4c9de" fill-rule="evenodd" stroke="none"/>
    <path d="M-90.9 -58.75 Q-62.65 -44.9 -18.7 -34.65 58.5 -13.95 169.3 -8.75 L169.3 13.95 Q54.4 15.2 -19.55 7.35 -39.15 3.35 -54.65 -2.0 L-90.9 -58.75" fill="#d6eefb" fill-rule="evenodd" stroke="none"/>
    <path d="M-90.8 57.1 Q-124.65 18.8 -169.3 -10.55 -107.2 -19.7 -54.7 -2.0 L-90.8 57.1" fill="#2e6088" fill-rule="evenodd" stroke="none"/>
    <path d="M-169.3 -10.55 Q-128.1 -26.65 -90.95 -58.75 L-90.9 -58.75 Q-62.65 -44.9 -18.7 -34.65 58.5 -13.95 169.3 -8.75 M169.3 14.25 Q60.4 38.05 -15.75 53.85 -60.7 61.7 -90.8 57.1 -124.65 18.8 -169.3 -10.55 M-54.7 -2.0 L-54.65 -2.0 -90.9 -58.75 M-54.7 -2.0 L-90.8 57.1" fill="none" stroke="#4a4f58" stroke-linecap="round" stroke-linejoin="miter-clip" stroke-miterlimit="3.0" stroke-width="1.2000000000000002"/>
  </g>
</svg>
