<?xml version="1.0" encoding="UTF-8" standalone="no"?>
<svg xmlns:xlink="http://www.w3.org/1999/xlink" height="120.0px" width="112.0px" xmlns="http://www.w3.org/2000/svg">
  <g transform="matrix(1.0, 0.0, 0.0, 1.0, -14.0, -8.0)">
    <path d="M112.0 32.0 L112.0 30.0 114.0 30.0 114.0 28.0 116.0 28.0 116.0 30.0 118.0 30.0 118.0 28.0 122.0 28.0 122.0 26.0 124.0 26.0 124.0 28.0 126.0 28.0 126.0 30.0 124.0 30.0 124.0 28.0 122.0 28.0 122.0 30.0 118.0 30.0 118.0 32.0 116.0 32.0 116.0 30.0 114.0 30.0 114.0 32.0 112.0 32.0 M110.0 46.0 L110.0 50.0 108.0 50.0 108.0 46.0 110.0 46.0 M102.0 86.0 L102.0 84.0 104.0 84.0 104.0 82.0 106.0 82.0 106.0 84.0 104.0 84.0 104.0 86.0 102.0 86.0 M92.0 108.0 L92.0 104.0 94.0 104.0 94.0 102.0 98.0 102.0 98.0 104.0 94.0 104.0 94.0 108.0 92.0 108.0 M84.0 114.0 L86.0 114.0 86.0 116.0 84.0 116.0 84.0 114.0 M60.0 122.0 L60.0 118.0 62.0 118.0 62.0 114.0 64.0 114.0 64.0 116.0 64.0 118.0 62.0 118.0 62.0 122.0 60.0 122.0 M42.0 96.0 L42.0 98.0 40.0 98.0 38.0 98.0 38.0 96.0 42.0 96.0 M30.0 112.0 L30.0 114.0 28.0 114.0 28.0 112.0 28.0 110.0 26.0 110.0 24.0 110.0 24.0 112.0 24.0 114.0 22.0 114.0 22.0 110.0 24.0 110.0 24.0 108.0 26.0 108.0 28.0 108.0 28.0 110.0 30.0 110.0 30.0 112.0 M16.0 116.0 L14.0 116.0 14.0 112.0 16.0 112.0 16.0 114.0 16.0 116.0 M30.0 48.0 L30.0 46.0 28.0 46.0 28.0 44.0 30.0 44.0 30.0 46.0 32.0 46.0 32.0 48.0 30.0 48.0 M24.0 40.0 L24.0 42.0 22.0 42.0 22.0 40.0 22.0 38.0 24.0 38.0 24.0 40.0 M18.0 32.0 L18.0 28.0 20.0 28.0 20.0 32.0 18.0 32.0 M22.0 28.0 L22.0 22.0 24.0 22.0 24.0 18.0 26.0 18.0 26.0 22.0 24.0 22.0 24.0 28.0 22.0 28.0 M52.0 10.0 L58.0 10.0 58.0 12.0 62.0 12.0 62.0 14.0 58.0 14.0 58.0 12.0 56.0 12.0 54.0 12.0 52.0 12.0 52.0 10.0 M48.0 16.0 L48.0 18.0 46.0 18.0 46.0 16.0 42.0 16.0 42.0 18.0 38.0 18.0 38.0 20.0 36.0 20.0 36.0 18.0 38.0 18.0 38.0 16.0 40.0 16.0 42.0 16.0 42.0 14.0 46.0 14.0 46.0 16.0 48.0 16.0 M90.0 56.0 L92.0 56.0 92.0 58.0 90.0 58.0 90.0 56.0 M96.0 46.0 L96.0 42.0 98.0 42.0 98.0 40.0 100.0 40.0 100.0 38.0 102.0 38.0 102.0 36.0 104.0 36.0 104.0 34.0 108.0 34.0 108.0 32.0 110.0 32.0 110.0 34.0 108.0 34.0 108.0 36.0 104.0 36.0 104.0 38.0 102.0 38.0 102.0 40.0 100.0 40.0 100.0 42.0 98.0 42.0 98.0 48.0 96.0 48.0 96.0 46.0 M108.0 102.0 L110.0 102.0 110.0 104.0 108.0 104.0 108.0 102.0 M102.0 102.0 L104.0 102.0 104.0 104.0 106.0 104.0 106.0 106.0 104.0 106.0 104.0 104.0 102.0 104.0 102.0 102.0 M44.0 50.0 L46.0 50.0 48.0 50.0 48.0 52.0 48.0 54.0 46.0 54.0 46.0 56.0 44.0 56.0 44.0 54.0 42.0 54.0 42.0 52.0 44.0 52.0 44.0 50.0 M48.0 48.0 L52.0 48.0 52.0 50.0 50.0 50.0 48.0 50.0 48.0 48.0 M46.0 38.0 L46.0 42.0 46.0 44.0 44.0 44.0 42.0 44.0 42.0 46.0 38.0 46.0 38.0 44.0 42.0 44.0 42.0 42.0 44.0 42.0 44.0 38.0 46.0 38.0 M40.0 52.0 L38.0 52.0 36.0 52.0 36.0 50.0 42.0 50.0 42.0 52.0 40.0 52.0 M40.0 60.0 L42.0 60.0 42.0 62.0 40.0 62.0 40.0 60.0 M46.0 54.0 L46.0 52.0 44.0 52.0 44.0 54.0 46.0 54.0 M76.0 116.0 L78.0 116.0 78.0 118.0 76.0 118.0 76.0 120.0 76.0 122.0 74.0 122.0 74.0 118.0 76.0 118.0 76.0 116.0 M64.0 124.0 L64.0 122.0 66.0 122.0 66.0 120.0 68.0 120.0 68.0 122.0 66.0 122.0 66.0 124.0 64.0 124.0 M82.0 120.0 L82.0 116.0 84.0 116.0 84.0 118.0 84.0 120.0 82.0 120.0 M78.0 122.0 L80.0 122.0 80.0 126.0 78.0 126.0 78.0 124.0 76.0 124.0 76.0 122.0 78.0 122.0" fill="#293939" fill-rule="evenodd" stroke="none"/>
    <path d="M122.0 32.0 L120.0 32.0 118.0 32.0 118.0 34.0 116.0 34.0 116.0 36.0 114.0 36.0 114.0 38.0 112.0 38.0 112.0 40.0 110.0 40.0 106.0 40.0 106.0 42.0 102.0 42.0 102.0 44.0 100.0 44.0 100.0 48.0 98.0 48.0 98.0 42.0 100.0 42.0 100.0 40.0 102.0 40.0 102.0 38.0 104.0 38.0 104.0 36.0 108.0 36.0 108.0 34.0 110.0 34.0 110.0 32.0 112.0 32.0 114.0 32.0 114.0 30.0 116.0 30.0 116.0 32.0 118.0 32.0 118.0 30.0 122.0 30.0 122.0 28.0 124.0 28.0 124.0 30.0 122.0 30.0 122.0 32.0 M20.0 28.0 L22.0 28.0 22.0 30.0 22.0 32.0 20.0 32.0 20.0 28.0 M42.0 10.0 L44.0 10.0 48.0 10.0 48.0 12.0 52.0 12.0 54.0 12.0 54.0 14.0 48.0 14.0 46.0 14.0 42.0 14.0 40.0 14.0 40.0 16.0 38.0 16.0 38.0 18.0 36.0 18.0 36.0 20.0 34.0 20.0 32.0 20.0 32.0 22.0 30.0 22.0 30.0 24.0 28.0 24.0 28.0 26.0 28.0 28.0 24.0 28.0 24.0 22.0 26.0 22.0 26.0 18.0 30.0 18.0 30.0 16.0 32.0 16.0 32.0 14.0 36.0 14.0 36.0 12.0 42.0 12.0 42.0 10.0 M42.0 32.0 L44.0 32.0 44.0 34.0 44.0 38.0 42.0 38.0 42.0 42.0 38.0 42.0 38.0 40.0 38.0 38.0 38.0 36.0 40.0 36.0 40.0 34.0 42.0 34.0 42.0 32.0 M44.0 46.0 L42.0 46.0 42.0 48.0 38.0 48.0 38.0 46.0 42.0 46.0 42.0 44.0 44.0 44.0 44.0 46.0 M38.0 52.0 L40.0 52.0 40.0 56.0 38.0 56.0 38.0 60.0 36.0 60.0 36.0 58.0 34.0 58.0 34.0 56.0 32.0 56.0 32.0 54.0 34.0 54.0 36.0 54.0 38.0 54.0 38.0 52.0 M50.0 62.0 L48.0 62.0 48.0 60.0 46.0 60.0 46.0 58.0 52.0 58.0 52.0 60.0 52.0 62.0 50.0 62.0 M66.0 120.0 L64.0 120.0 64.0 122.0 62.0 122.0 62.0 118.0 64.0 118.0 66.0 118.0 66.0 120.0 M24.0 114.0 L24.0 112.0 26.0 112.0 26.0 110.0 28.0 110.0 28.0 112.0 26.0 112.0 26.0 114.0 24.0 114.0 M18.0 106.0 L18.0 108.0 16.0 108.0 16.0 106.0 18.0 106.0 M16.0 110.0 L20.0 110.0 20.0 112.0 18.0 112.0 18.0 114.0 16.0 114.0 16.0 112.0 16.0 110.0 M84.0 116.0 L86.0 116.0 88.0 116.0 88.0 120.0 86.0 120.0 86.0 118.0 84.0 118.0 84.0 116.0" fill="#737bad" fill-rule="evenodd" stroke="none"/>
    <path d="M126.0 30.0 L126.0 32.0 122.0 32.0 122.0 30.0 124.0 30.0 126.0 30.0 M120.0 32.0 L120.0 34.0 118.0 34.0 118.0 36.0 116.0 36.0 116.0 40.0 112.0 40.0 112.0 42.0 110.0 42.0 110.0 46.0 108.0 46.0 108.0 42.0 110.0 42.0 110.0 40.0 112.0 40.0 112.0 38.0 114.0 38.0 114.0 36.0 116.0 36.0 116.0 34.0 118.0 34.0 118.0 32.0 120.0 32.0 M110.0 50.0 L110.0 54.0 98.0 54.0 98.0 56.0 96.0 56.0 96.0 58.0 94.0 58.0 94.0 60.0 92.0 60.0 92.0 58.0 92.0 56.0 92.0 48.0 94.0 48.0 94.0 46.0 96.0 46.0 96.0 48.0 94.0 48.0 94.0 50.0 94.0 56.0 96.0 56.0 96.0 54.0 98.0 54.0 98.0 52.0 102.0 52.0 102.0 50.0 104.0 50.0 104.0 52.0 108.0 52.0 108.0 50.0 110.0 50.0 M98.0 68.0 L98.0 74.0 96.0 74.0 96.0 70.0 96.0 68.0 98.0 68.0 M96.0 78.0 L96.0 84.0 100.0 84.0 100.0 86.0 102.0 86.0 102.0 88.0 100.0 88.0 100.0 86.0 96.0 86.0 96.0 84.0 94.0 84.0 94.0 80.0 94.0 78.0 96.0 78.0 M106.0 84.0 L108.0 84.0 108.0 96.0 110.0 96.0 110.0 102.0 112.0 102.0 112.0 104.0 114.0 104.0 114.0 110.0 110.0 110.0 110.0 108.0 106.0 108.0 106.0 110.0 102.0 110.0 102.0 112.0 98.0 112.0 98.0 108.0 96.0 108.0 96.0 110.0 92.0 110.0 92.0 108.0 94.0 108.0 96.0 108.0 96.0 106.0 98.0 106.0 100.0 106.0 100.0 110.0 102.0 110.0 102.0 108.0 104.0 108.0 106.0 108.0 106.0 106.0 108.0 106.0 110.0 106.0 110.0 108.0 112.0 108.0 112.0 104.0 110.0 104.0 110.0 102.0 108.0 102.0 108.0 96.0 106.0 96.0 106.0 90.0 106.0 88.0 106.0 84.0 M98.0 100.0 L98.0 96.0 100.0 96.0 100.0 100.0 98.0 100.0 M96.0 96.0 L92.0 96.0 92.0 94.0 86.0 94.0 86.0 92.0 88.0 92.0 92.0 92.0 92.0 94.0 96.0 94.0 96.0 96.0 M84.0 90.0 L84.0 88.0 82.0 88.0 82.0 84.0 84.0 84.0 84.0 88.0 86.0 88.0 86.0 90.0 84.0 90.0 M78.0 80.0 L78.0 82.0 76.0 82.0 76.0 86.0 78.0 86.0 78.0 92.0 76.0 92.0 76.0 96.0 74.0 96.0 74.0 100.0 72.0 100.0 72.0 98.0 70.0 98.0 70.0 96.0 70.0 94.0 70.0 92.0 72.0 92.0 72.0 96.0 74.0 96.0 74.0 92.0 76.0 92.0 76.0 86.0 74.0 86.0 74.0 82.0 74.0 80.0 78.0 80.0 M86.0 114.0 L88.0 114.0 88.0 116.0 90.0 116.0 90.0 124.0 86.0 124.0 86.0 122.0 82.0 122.0 82.0 126.0 80.0 126.0 80.0 128.0 78.0 128.0 78.0 126.0 76.0 126.0 76.0 124.0 66.0 124.0 66.0 126.0 60.0 126.0 60.0 122.0 62.0 122.0 62.0 124.0 64.0 124.0 66.0 124.0 66.0 122.0 68.0 122.0 74.0 122.0 76.0 122.0 76.0 124.0 78.0 124.0 78.0 126.0 80.0 126.0 80.0 122.0 80.0 120.0 82.0 120.0 84.0 120.0 86.0 120.0 86.0 122.0 88.0 122.0 88.0 120.0 88.0 116.0 86.0 116.0 86.0 114.0 M64.0 114.0 L64.0 106.0 60.0 106.0 60.0 108.0 56.0 108.0 56.0 106.0 54.0 106.0 54.0 108.0 50.0 108.0 50.0 102.0 52.0 102.0 52.0 100.0 54.0 100.0 54.0 98.0 50.0 98.0 50.0 100.0 46.0 100.0 46.0 96.0 42.0 96.0 42.0 90.0 44.0 90.0 44.0 92.0 46.0 92.0 46.0 96.0 48.0 96.0 48.0 98.0 50.0 98.0 50.0 94.0 52.0 94.0 52.0 96.0 54.0 96.0 54.0 98.0 56.0 98.0 58.0 98.0 58.0 94.0 60.0 94.0 60.0 96.0 62.0 96.0 62.0 98.0 62.0 100.0 60.0 100.0 60.0 98.0 58.0 98.0 58.0 100.0 56.0 100.0 56.0 102.0 52.0 102.0 52.0 106.0 54.0 106.0 54.0 104.0 56.0 104.0 56.0 106.0 60.0 106.0 60.0 104.0 62.0 104.0 62.0 100.0 64.0 100.0 64.0 104.0 64.0 106.0 66.0 106.0 66.0 114.0 64.0 114.0 M42.0 98.0 L42.0 100.0 40.0 100.0 40.0 102.0 38.0 102.0 38.0 104.0 36.0 104.0 36.0 110.0 34.0 110.0 34.0 112.0 30.0 112.0 30.0 110.0 34.0 110.0 34.0 108.0 32.0 108.0 32.0 106.0 34.0 106.0 34.0 102.0 36.0 102.0 36.0 100.0 40.0 100.0 40.0 98.0 42.0 98.0 M30.0 114.0 L30.0 116.0 28.0 116.0 28.0 118.0 24.0 118.0 24.0 116.0 20.0 116.0 20.0 118.0 16.0 118.0 16.0 116.0 18.0 116.0 18.0 114.0 22.0 114.0 24.0 114.0 24.0 116.0 26.0 116.0 26.0 114.0 28.0 114.0 30.0 114.0 M16.0 108.0 L14.0 108.0 14.0 106.0 16.0 106.0 16.0 104.0 20.0 104.0 20.0 106.0 18.0 106.0 16.0 106.0 16.0 108.0 M36.0 84.0 L36.0 82.0 34.0 82.0 34.0 78.0 32.0 78.0 32.0 76.0 34.0 76.0 34.0 72.0 32.0 72.0 32.0 68.0 30.0 68.0 30.0 70.0 24.0 70.0 24.0 66.0 20.0 66.0 20.0 64.0 22.0 64.0 26.0 64.0 26.0 66.0 26.0 68.0 28.0 68.0 30.0 68.0 30.0 66.0 32.0 66.0 34.0 66.0 34.0 72.0 36.0 72.0 36.0 76.0 34.0 76.0 34.0 78.0 36.0 78.0 36.0 82.0 38.0 82.0 38.0 84.0 40.0 84.0 40.0 86.0 42.0 86.0 42.0 90.0 40.0 90.0 40.0 86.0 38.0 86.0 38.0 84.0 36.0 84.0 M24.0 60.0 L24.0 58.0 26.0 58.0 28.0 58.0 28.0 60.0 24.0 60.0 M28.0 44.0 L26.0 44.0 26.0 42.0 28.0 42.0 28.0 44.0 M26.0 40.0 L24.0 40.0 24.0 38.0 26.0 38.0 26.0 40.0 M22.0 42.0 L20.0 42.0 20.0 40.0 18.0 40.0 18.0 32.0 20.0 32.0 20.0 34.0 20.0 40.0 22.0 40.0 22.0 42.0 M62.0 14.0 L64.0 14.0 64.0 16.0 48.0 16.0 48.0 14.0 54.0 14.0 56.0 14.0 58.0 14.0 62.0 14.0 M36.0 20.0 L36.0 22.0 34.0 22.0 34.0 26.0 32.0 26.0 32.0 28.0 30.0 28.0 30.0 30.0 28.0 30.0 28.0 36.0 32.0 36.0 32.0 34.0 34.0 34.0 34.0 36.0 32.0 36.0 32.0 44.0 32.0 46.0 30.0 46.0 30.0 44.0 30.0 42.0 30.0 38.0 28.0 38.0 28.0 36.0 26.0 36.0 26.0 30.0 28.0 30.0 28.0 28.0 30.0 28.0 30.0 26.0 32.0 26.0 32.0 24.0 32.0 22.0 34.0 22.0 34.0 20.0 36.0 20.0 M70.0 48.0 L70.0 52.0 70.0 54.0 70.0 56.0 68.0 56.0 68.0 62.0 66.0 62.0 66.0 66.0 64.0 66.0 64.0 62.0 66.0 62.0 66.0 56.0 68.0 56.0 68.0 48.0 70.0 48.0 M88.0 56.0 L90.0 56.0 90.0 58.0 88.0 58.0 88.0 56.0 M34.0 48.0 L32.0 48.0 32.0 46.0 34.0 46.0 34.0 48.0 M38.0 60.0 L40.0 60.0 40.0 62.0 38.0 62.0 38.0 60.0 M40.0 64.0 L42.0 64.0 42.0 66.0 46.0 66.0 46.0 68.0 40.0 68.0 40.0 64.0 M48.0 64.0 L50.0 64.0 52.0 64.0 52.0 62.0 54.0 62.0 54.0 64.0 52.0 64.0 52.0 66.0 48.0 66.0 48.0 64.0 M72.0 68.0 L78.0 68.0 78.0 70.0 72.0 70.0 72.0 68.0 M78.0 60.0 L80.0 60.0 80.0 62.0 78.0 62.0 78.0 60.0 M58.0 66.0 L62.0 66.0 62.0 68.0 58.0 68.0 58.0 70.0 56.0 70.0 56.0 72.0 52.0 72.0 52.0 68.0 54.0 68.0 54.0 70.0 56.0 70.0 56.0 68.0 58.0 68.0 58.0 66.0 M78.0 64.0 L76.0 64.0 76.0 62.0 78.0 62.0 78.0 64.0 M56.0 52.0 L56.0 54.0 54.0 54.0 54.0 52.0 52.0 52.0 52.0 50.0 54.0 50.0 54.0 52.0 56.0 52.0 M58.0 56.0 L58.0 64.0 56.0 64.0 56.0 62.0 54.0 62.0 54.0 60.0 56.0 60.0 56.0 58.0 56.0 56.0 58.0 56.0 M72.0 82.0 L72.0 84.0 70.0 84.0 70.0 82.0 72.0 82.0 M68.0 84.0 L70.0 84.0 70.0 92.0 68.0 92.0 68.0 84.0 M102.0 106.0 L100.0 106.0 100.0 104.0 102.0 104.0 102.0 106.0" fill="#000000" fill-rule="evenodd" stroke="none"/>
    <path d="M96.0 48.0 L98.0 48.0 98.0 50.0 94.0 50.0 94.0 48.0 96.0 48.0 M100.0 48.0 L100.0 44.0 102.0 44.0 102.0 42.0 106.0 42.0 106.0 40.0 110.0 40.0 110.0 42.0 108.0 42.0 106.0 42.0 106.0 44.0 102.0 44.0 102.0 48.0 100.0 48.0 M104.0 108.0 L102.0 108.0 102.0 110.0 100.0 110.0 100.0 106.0 102.0 106.0 104.0 106.0 104.0 108.0 M54.0 12.0 L56.0 12.0 56.0 14.0 54.0 14.0 54.0 12.0 M46.0 14.0 L48.0 14.0 48.0 16.0 46.0 16.0 46.0 14.0 M42.0 14.0 L42.0 16.0 40.0 16.0 40.0 14.0 42.0 14.0 M34.0 20.0 L34.0 22.0 32.0 22.0 32.0 24.0 30.0 24.0 30.0 22.0 32.0 22.0 32.0 20.0 34.0 20.0 M30.0 42.0 L30.0 44.0 28.0 44.0 28.0 42.0 30.0 42.0 M28.0 26.0 L28.0 24.0 30.0 24.0 30.0 26.0 28.0 26.0 M20.0 34.0 L20.0 32.0 22.0 32.0 22.0 34.0 20.0 34.0 M24.0 28.0 L24.0 30.0 22.0 30.0 22.0 28.0 24.0 28.0 M40.0 52.0 L42.0 52.0 42.0 54.0 44.0 54.0 44.0 56.0 46.0 56.0 46.0 58.0 46.0 60.0 48.0 60.0 48.0 62.0 50.0 62.0 50.0 64.0 48.0 64.0 46.0 64.0 46.0 66.0 42.0 66.0 42.0 64.0 40.0 64.0 40.0 62.0 42.0 62.0 42.0 60.0 40.0 60.0 38.0 60.0 38.0 56.0 40.0 56.0 40.0 52.0 M36.0 52.0 L38.0 52.0 38.0 54.0 36.0 54.0 36.0 52.0 M34.0 54.0 L32.0 54.0 32.0 56.0 30.0 56.0 30.0 54.0 32.0 54.0 32.0 52.0 34.0 52.0 34.0 54.0 M34.0 58.0 L36.0 58.0 36.0 60.0 38.0 60.0 38.0 62.0 36.0 62.0 36.0 60.0 34.0 60.0 34.0 58.0 M66.0 116.0 L66.0 118.0 68.0 118.0 68.0 120.0 66.0 120.0 66.0 118.0 64.0 118.0 64.0 116.0 66.0 116.0 M76.0 120.0 L76.0 118.0 78.0 118.0 80.0 118.0 80.0 120.0 80.0 122.0 78.0 122.0 78.0 120.0 76.0 120.0 M20.0 108.0 L22.0 108.0 22.0 110.0 20.0 110.0 20.0 108.0 M24.0 112.0 L24.0 110.0 26.0 110.0 26.0 112.0 24.0 112.0 M28.0 112.0 L28.0 114.0 26.0 114.0 26.0 112.0 28.0 112.0" fill="#525a7b" fill-rule="evenodd" stroke="none"/>
    <path d="M14.0 112.0 L14.0 110.0 16.0 110.0 16.0 108.0 18.0 108.0 18.0 106.0 20.0 106.0 20.0 104.0 20.0 102.0 24.0 102.0 24.0 104.0 22.0 104.0 22.0 106.0 20.0 106.0 20.0 108.0 20.0 110.0 22.0 110.0 22.0 114.0 18.0 114.0 18.0 112.0 20.0 112.0 20.0 110.0 16.0 110.0 16.0 112.0 14.0 112.0 M30.0 52.0 L30.0 48.0 32.0 48.0 32.0 50.0 32.0 52.0 32.0 54.0 30.0 54.0 30.0 52.0 M26.0 42.0 L26.0 40.0 26.0 38.0 24.0 38.0 22.0 38.0 22.0 40.0 20.0 40.0 20.0 34.0 22.0 34.0 22.0 32.0 22.0 30.0 24.0 30.0 24.0 28.0 28.0 28.0 28.0 26.0 30.0 26.0 30.0 24.0 32.0 24.0 32.0 26.0 30.0 26.0 30.0 28.0 28.0 28.0 28.0 30.0 26.0 30.0 26.0 36.0 28.0 36.0 28.0 38.0 30.0 38.0 30.0 42.0 28.0 42.0 26.0 42.0 M26.0 18.0 L26.0 16.0 30.0 16.0 30.0 14.0 32.0 14.0 32.0 12.0 36.0 12.0 36.0 10.0 42.0 10.0 42.0 12.0 36.0 12.0 36.0 14.0 32.0 14.0 32.0 16.0 30.0 16.0 30.0 18.0 26.0 18.0 M44.0 10.0 L44.0 8.0 48.0 8.0 48.0 10.0 52.0 10.0 52.0 12.0 48.0 12.0 48.0 10.0 44.0 10.0 M98.0 48.0 L100.0 48.0 102.0 48.0 102.0 44.0 106.0 44.0 106.0 42.0 108.0 42.0 108.0 46.0 108.0 50.0 108.0 52.0 104.0 52.0 104.0 50.0 102.0 50.0 102.0 52.0 98.0 52.0 98.0 54.0 96.0 54.0 96.0 56.0 94.0 56.0 94.0 50.0 98.0 50.0 98.0 48.0 M102.0 88.0 L102.0 86.0 104.0 86.0 104.0 84.0 106.0 84.0 106.0 88.0 104.0 88.0 102.0 88.0 M110.0 104.0 L112.0 104.0 112.0 108.0 110.0 108.0 110.0 106.0 108.0 106.0 108.0 104.0 110.0 104.0 M106.0 106.0 L106.0 108.0 104.0 108.0 104.0 106.0 106.0 106.0 M98.0 106.0 L96.0 106.0 96.0 108.0 94.0 108.0 94.0 104.0 98.0 104.0 98.0 106.0 M56.0 12.0 L58.0 12.0 58.0 14.0 56.0 14.0 56.0 12.0 M44.0 34.0 L46.0 34.0 46.0 36.0 46.0 38.0 44.0 38.0 44.0 42.0 42.0 42.0 42.0 44.0 38.0 44.0 38.0 42.0 42.0 42.0 42.0 38.0 44.0 38.0 44.0 34.0 M36.0 46.0 L36.0 48.0 36.0 50.0 34.0 50.0 34.0 48.0 34.0 46.0 36.0 46.0 M32.0 56.0 L34.0 56.0 34.0 58.0 34.0 60.0 32.0 60.0 32.0 56.0 M40.0 62.0 L40.0 64.0 38.0 64.0 36.0 64.0 36.0 62.0 34.0 62.0 34.0 60.0 36.0 60.0 36.0 62.0 38.0 62.0 40.0 62.0 M46.0 66.0 L46.0 64.0 48.0 64.0 48.0 66.0 46.0 66.0 M50.0 64.0 L50.0 62.0 52.0 62.0 52.0 60.0 54.0 60.0 54.0 58.0 56.0 58.0 56.0 60.0 54.0 60.0 54.0 62.0 52.0 62.0 52.0 64.0 50.0 64.0 M46.0 58.0 L46.0 56.0 50.0 56.0 52.0 56.0 52.0 54.0 54.0 54.0 54.0 56.0 52.0 56.0 52.0 58.0 46.0 58.0 M38.0 98.0 L40.0 98.0 40.0 100.0 36.0 100.0 36.0 98.0 38.0 98.0 M46.0 54.0 L44.0 54.0 44.0 52.0 46.0 52.0 46.0 54.0 M48.0 52.0 L48.0 50.0 50.0 50.0 50.0 52.0 48.0 52.0 M62.0 122.0 L64.0 122.0 64.0 120.0 66.0 120.0 66.0 122.0 64.0 122.0 64.0 124.0 62.0 124.0 62.0 122.0 M76.0 122.0 L76.0 120.0 78.0 120.0 78.0 122.0 76.0 122.0 M26.0 114.0 L26.0 116.0 24.0 116.0 24.0 114.0 26.0 114.0 M16.0 114.0 L18.0 114.0 18.0 116.0 16.0 116.0 16.0 114.0 M102.0 104.0 L104.0 104.0 104.0 106.0 102.0 106.0 102.0 104.0 M84.0 118.0 L86.0 118.0 86.0 120.0 88.0 120.0 88.0 122.0 86.0 122.0 86.0 120.0 84.0 120.0 84.0 118.0" fill="#424a6b" fill-rule="evenodd" stroke="none"/>
    <path d="M94.0 60.0 L94.0 62.0 96.0 62.0 96.0 66.0 98.0 66.0 98.0 68.0 96.0 68.0 96.0 66.0 94.0 66.0 94.0 64.0 94.0 62.0 92.0 62.0 92.0 60.0 88.0 60.0 88.0 58.0 90.0 58.0 92.0 58.0 92.0 60.0 94.0 60.0 M96.0 74.0 L96.0 78.0 94.0 78.0 94.0 76.0 94.0 74.0 96.0 74.0 M98.0 102.0 L98.0 100.0 100.0 100.0 102.0 100.0 102.0 102.0 98.0 102.0 M98.0 96.0 L96.0 96.0 96.0 94.0 98.0 94.0 98.0 96.0 M86.0 92.0 L84.0 92.0 84.0 90.0 86.0 90.0 88.0 90.0 88.0 92.0 86.0 92.0 M82.0 84.0 L80.0 84.0 80.0 80.0 78.0 80.0 78.0 78.0 80.0 78.0 80.0 80.0 82.0 80.0 82.0 84.0 M74.0 100.0 L74.0 104.0 76.0 104.0 76.0 108.0 78.0 108.0 78.0 110.0 82.0 110.0 82.0 112.0 84.0 112.0 84.0 114.0 82.0 114.0 82.0 112.0 78.0 112.0 78.0 110.0 76.0 110.0 76.0 108.0 74.0 108.0 74.0 104.0 72.0 104.0 72.0 100.0 70.0 100.0 70.0 98.0 72.0 98.0 72.0 100.0 74.0 100.0 M26.0 100.0 L26.0 98.0 28.0 98.0 28.0 96.0 30.0 96.0 30.0 98.0 28.0 98.0 28.0 100.0 26.0 100.0 M32.0 96.0 L32.0 92.0 34.0 92.0 34.0 88.0 36.0 88.0 36.0 84.0 38.0 84.0 38.0 82.0 38.0 80.0 40.0 80.0 40.0 84.0 38.0 84.0 38.0 86.0 38.0 88.0 36.0 88.0 36.0 92.0 34.0 92.0 34.0 94.0 34.0 96.0 32.0 96.0 M20.0 64.0 L20.0 62.0 22.0 62.0 22.0 60.0 24.0 60.0 24.0 62.0 22.0 62.0 22.0 64.0 20.0 64.0 M24.0 58.0 L24.0 56.0 26.0 56.0 26.0 54.0 28.0 54.0 28.0 52.0 30.0 52.0 30.0 54.0 28.0 54.0 28.0 56.0 26.0 56.0 26.0 58.0 24.0 58.0 M32.0 34.0 L32.0 32.0 34.0 32.0 34.0 30.0 36.0 30.0 36.0 28.0 38.0 28.0 38.0 30.0 36.0 30.0 36.0 32.0 34.0 32.0 34.0 34.0 32.0 34.0 M62.0 30.0 L64.0 30.0 64.0 32.0 62.0 32.0 62.0 30.0 M64.0 34.0 L66.0 34.0 66.0 36.0 68.0 36.0 68.0 38.0 66.0 38.0 66.0 36.0 64.0 36.0 64.0 34.0 M70.0 40.0 L70.0 44.0 72.0 44.0 72.0 48.0 70.0 48.0 70.0 44.0 68.0 44.0 68.0 42.0 68.0 40.0 70.0 40.0 M70.0 52.0 L72.0 52.0 72.0 54.0 70.0 54.0 70.0 52.0 M74.0 50.0 L78.0 50.0 78.0 52.0 80.0 52.0 80.0 54.0 78.0 54.0 78.0 56.0 76.0 56.0 76.0 58.0 80.0 58.0 80.0 56.0 88.0 56.0 88.0 58.0 80.0 58.0 80.0 60.0 78.0 60.0 76.0 60.0 74.0 60.0 74.0 58.0 74.0 56.0 76.0 56.0 76.0 54.0 78.0 54.0 78.0 52.0 74.0 52.0 74.0 50.0 M106.0 88.0 L106.0 90.0 104.0 90.0 104.0 88.0 106.0 88.0 M28.0 62.0 L30.0 62.0 30.0 64.0 28.0 64.0 28.0 62.0 M32.0 66.0 L32.0 64.0 34.0 64.0 34.0 66.0 32.0 66.0 M50.0 94.0 L50.0 90.0 52.0 90.0 52.0 92.0 52.0 94.0 50.0 94.0 M56.0 98.0 L56.0 94.0 58.0 94.0 58.0 92.0 58.0 90.0 60.0 90.0 60.0 86.0 62.0 86.0 62.0 84.0 64.0 84.0 64.0 78.0 66.0 78.0 66.0 76.0 68.0 76.0 68.0 72.0 70.0 72.0 70.0 66.0 72.0 66.0 72.0 68.0 72.0 70.0 72.0 72.0 70.0 72.0 70.0 76.0 68.0 76.0 68.0 78.0 66.0 78.0 66.0 84.0 64.0 84.0 64.0 86.0 62.0 86.0 62.0 92.0 60.0 92.0 60.0 94.0 58.0 94.0 58.0 98.0 56.0 98.0 M78.0 68.0 L78.0 66.0 76.0 66.0 76.0 64.0 74.0 64.0 74.0 62.0 76.0 62.0 76.0 64.0 78.0 64.0 78.0 66.0 80.0 66.0 80.0 68.0 80.0 70.0 78.0 70.0 78.0 68.0 M52.0 68.0 L52.0 66.0 54.0 66.0 54.0 68.0 52.0 68.0 M58.0 64.0 L58.0 66.0 56.0 66.0 56.0 64.0 58.0 64.0 M58.0 98.0 L60.0 98.0 60.0 100.0 62.0 100.0 62.0 104.0 60.0 104.0 60.0 106.0 56.0 106.0 56.0 104.0 54.0 104.0 54.0 106.0 52.0 106.0 52.0 102.0 56.0 102.0 56.0 100.0 58.0 100.0 58.0 98.0 M62.0 96.0 L60.0 96.0 60.0 94.0 62.0 94.0 62.0 96.0 M74.0 82.0 L74.0 86.0 76.0 86.0 76.0 92.0 74.0 92.0 74.0 96.0 72.0 96.0 72.0 92.0 70.0 92.0 70.0 84.0 68.0 84.0 68.0 78.0 70.0 78.0 70.0 82.0 70.0 84.0 72.0 84.0 72.0 82.0 74.0 82.0" fill="#636384" fill-rule="evenodd" stroke="none"/>
    <path d="M24.0 102.0 L26.0 102.0 26.0 100.0 28.0 100.0 28.0 98.0 30.0 98.0 30.0 96.0 32.0 96.0 34.0 96.0 34.0 94.0 36.0 94.0 36.0 96.0 36.0 98.0 36.0 100.0 36.0 102.0 34.0 102.0 34.0 106.0 32.0 106.0 30.0 106.0 28.0 106.0 26.0 106.0 24.0 106.0 24.0 104.0 24.0 102.0 M40.0 28.0 L42.0 28.0 56.0 28.0 56.0 30.0 60.0 30.0 60.0 32.0 62.0 32.0 64.0 32.0 64.0 34.0 64.0 36.0 66.0 36.0 66.0 38.0 66.0 40.0 68.0 40.0 68.0 42.0 66.0 42.0 66.0 44.0 66.0 46.0 62.0 46.0 62.0 48.0 58.0 48.0 54.0 48.0 52.0 48.0 48.0 48.0 46.0 48.0 46.0 50.0 44.0 50.0 42.0 50.0 42.0 48.0 42.0 46.0 44.0 46.0 46.0 46.0 46.0 44.0 48.0 44.0 48.0 42.0 48.0 36.0 48.0 34.0 46.0 34.0 44.0 34.0 44.0 32.0 42.0 32.0 40.0 32.0 40.0 34.0 38.0 34.0 38.0 36.0 38.0 38.0 36.0 38.0 36.0 40.0 36.0 44.0 34.0 44.0 32.0 44.0 32.0 36.0 34.0 36.0 34.0 34.0 34.0 32.0 36.0 32.0 36.0 30.0 38.0 30.0 40.0 30.0 40.0 28.0 M88.0 58.0 L88.0 60.0 92.0 60.0 92.0 62.0 92.0 64.0 94.0 64.0 94.0 66.0 94.0 68.0 94.0 70.0 92.0 70.0 92.0 72.0 88.0 72.0 88.0 70.0 86.0 70.0 84.0 70.0 84.0 68.0 82.0 68.0 82.0 66.0 80.0 66.0 80.0 64.0 80.0 62.0 80.0 60.0 80.0 58.0 88.0 58.0 M38.0 46.0 L38.0 48.0 36.0 48.0 36.0 46.0 38.0 46.0 M36.0 50.0 L36.0 52.0 34.0 52.0 34.0 50.0 36.0 50.0 M30.0 54.0 L30.0 56.0 32.0 56.0 32.0 60.0 34.0 60.0 34.0 62.0 36.0 62.0 36.0 64.0 36.0 66.0 38.0 66.0 38.0 70.0 40.0 70.0 40.0 72.0 42.0 72.0 44.0 72.0 44.0 74.0 46.0 74.0 46.0 76.0 44.0 76.0 44.0 84.0 42.0 84.0 42.0 86.0 40.0 86.0 40.0 84.0 40.0 80.0 40.0 78.0 38.0 78.0 38.0 80.0 38.0 82.0 36.0 82.0 36.0 78.0 34.0 78.0 34.0 76.0 36.0 76.0 36.0 72.0 34.0 72.0 34.0 66.0 34.0 64.0 32.0 64.0 32.0 66.0 30.0 66.0 28.0 66.0 28.0 64.0 30.0 64.0 30.0 62.0 28.0 62.0 26.0 62.0 26.0 64.0 22.0 64.0 22.0 62.0 24.0 62.0 24.0 60.0 28.0 60.0 28.0 58.0 30.0 58.0 30.0 56.0 28.0 56.0 28.0 58.0 26.0 58.0 26.0 56.0 28.0 56.0 28.0 54.0 30.0 54.0 M28.0 68.0 L26.0 68.0 26.0 66.0 28.0 66.0 28.0 68.0 M72.0 62.0 L72.0 60.0 70.0 60.0 70.0 58.0 72.0 58.0 74.0 58.0 74.0 60.0 76.0 60.0 76.0 62.0 74.0 62.0 72.0 62.0 M72.0 56.0 L70.0 56.0 70.0 54.0 72.0 54.0 74.0 54.0 74.0 52.0 78.0 52.0 78.0 54.0 76.0 54.0 76.0 56.0 74.0 56.0 72.0 56.0 M54.0 52.0 L54.0 54.0 52.0 54.0 52.0 52.0 54.0 52.0 M48.0 54.0 L48.0 52.0 50.0 52.0 50.0 54.0 48.0 54.0 M70.0 96.0 L70.0 98.0 70.0 100.0 72.0 100.0 72.0 104.0 74.0 104.0 74.0 108.0 76.0 108.0 76.0 110.0 78.0 110.0 78.0 112.0 82.0 112.0 82.0 114.0 82.0 116.0 78.0 116.0 76.0 116.0 74.0 116.0 74.0 118.0 68.0 118.0 66.0 118.0 66.0 116.0 66.0 114.0 66.0 106.0 66.0 104.0 64.0 104.0 64.0 100.0 64.0 98.0 64.0 96.0 66.0 96.0 70.0 96.0" fill="#feffff" fill-rule="evenodd" stroke="none"/>
    <path d="M92.0 62.0 L94.0 62.0 94.0 64.0 92.0 64.0 92.0 62.0 M94.0 66.0 L96.0 66.0 96.0 68.0 94.0 68.0 94.0 66.0 M80.0 66.0 L82.0 66.0 82.0 68.0 84.0 68.0 84.0 70.0 82.0 70.0 82.0 68.0 80.0 68.0 80.0 66.0 M86.0 70.0 L88.0 70.0 88.0 72.0 86.0 72.0 86.0 70.0 M46.0 34.0 L48.0 34.0 48.0 36.0 46.0 36.0 46.0 34.0 M48.0 42.0 L48.0 44.0 46.0 44.0 46.0 46.0 44.0 46.0 44.0 44.0 46.0 44.0 46.0 42.0 48.0 42.0 M42.0 48.0 L42.0 50.0 36.0 50.0 36.0 48.0 38.0 48.0 42.0 48.0 M46.0 50.0 L46.0 48.0 48.0 48.0 48.0 50.0 46.0 50.0 M54.0 48.0 L58.0 48.0 58.0 50.0 56.0 50.0 54.0 50.0 54.0 48.0 M62.0 48.0 L62.0 46.0 66.0 46.0 66.0 48.0 62.0 48.0 M66.0 44.0 L66.0 42.0 68.0 42.0 68.0 44.0 66.0 44.0 M38.0 38.0 L38.0 40.0 36.0 40.0 36.0 38.0 38.0 38.0 M34.0 46.0 L34.0 44.0 36.0 44.0 36.0 46.0 34.0 46.0 M42.0 72.0 L40.0 72.0 40.0 70.0 42.0 70.0 42.0 72.0 M38.0 66.0 L36.0 66.0 36.0 64.0 38.0 64.0 38.0 66.0 M36.0 92.0 L36.0 94.0 38.0 94.0 38.0 96.0 36.0 96.0 36.0 94.0 34.0 94.0 34.0 92.0 36.0 92.0 M76.0 60.0 L78.0 60.0 78.0 62.0 80.0 62.0 80.0 64.0 78.0 64.0 78.0 62.0 76.0 62.0 76.0 60.0 M62.0 100.0 L62.0 98.0 64.0 98.0 64.0 100.0 62.0 100.0 M70.0 94.0 L70.0 96.0 66.0 96.0 66.0 94.0 70.0 94.0 M64.0 104.0 L66.0 104.0 66.0 106.0 64.0 106.0 64.0 104.0 M66.0 114.0 L66.0 116.0 64.0 116.0 64.0 114.0 66.0 114.0 M74.0 118.0 L74.0 116.0 76.0 116.0 76.0 118.0 74.0 118.0 M32.0 106.0 L32.0 108.0 30.0 108.0 30.0 106.0 32.0 106.0 M28.0 106.0 L28.0 108.0 26.0 108.0 26.0 106.0 28.0 106.0 M24.0 104.0 L24.0 106.0 22.0 106.0 22.0 104.0 24.0 104.0" fill="#d5ddee" fill-rule="evenodd" stroke="none"/>
    <path d="M84.0 70.0 L86.0 70.0 86.0 72.0 88.0 72.0 92.0 72.0 92.0 70.0 94.0 70.0 94.0 68.0 96.0 68.0 96.0 70.0 94.0 70.0 94.0 74.0 94.0 76.0 92.0 76.0 92.0 80.0 94.0 80.0 94.0 84.0 94.0 88.0 92.0 88.0 92.0 90.0 88.0 90.0 86.0 90.0 86.0 88.0 84.0 88.0 84.0 84.0 82.0 84.0 82.0 80.0 80.0 80.0 80.0 78.0 78.0 78.0 78.0 80.0 74.0 80.0 74.0 82.0 72.0 82.0 70.0 82.0 70.0 78.0 68.0 78.0 68.0 84.0 68.0 92.0 70.0 92.0 70.0 94.0 66.0 94.0 66.0 96.0 64.0 96.0 64.0 98.0 62.0 98.0 62.0 96.0 62.0 94.0 60.0 94.0 60.0 92.0 62.0 92.0 62.0 86.0 64.0 86.0 64.0 84.0 66.0 84.0 66.0 78.0 68.0 78.0 68.0 76.0 70.0 76.0 70.0 72.0 68.0 72.0 68.0 76.0 66.0 76.0 66.0 78.0 64.0 78.0 64.0 84.0 62.0 84.0 62.0 86.0 60.0 86.0 60.0 90.0 58.0 90.0 58.0 92.0 56.0 92.0 56.0 94.0 56.0 98.0 54.0 98.0 54.0 96.0 54.0 92.0 52.0 92.0 52.0 90.0 52.0 88.0 50.0 88.0 50.0 84.0 48.0 84.0 48.0 88.0 50.0 88.0 50.0 90.0 50.0 94.0 50.0 98.0 48.0 98.0 48.0 96.0 46.0 96.0 46.0 92.0 44.0 92.0 44.0 90.0 42.0 90.0 42.0 96.0 38.0 96.0 38.0 94.0 36.0 94.0 36.0 92.0 36.0 88.0 38.0 88.0 38.0 86.0 40.0 86.0 40.0 90.0 42.0 90.0 42.0 86.0 42.0 84.0 44.0 84.0 44.0 76.0 46.0 76.0 46.0 74.0 44.0 74.0 44.0 72.0 42.0 72.0 42.0 70.0 40.0 70.0 38.0 70.0 38.0 66.0 38.0 64.0 40.0 64.0 40.0 68.0 46.0 68.0 46.0 66.0 48.0 66.0 52.0 66.0 52.0 68.0 52.0 72.0 56.0 72.0 56.0 70.0 58.0 70.0 58.0 68.0 62.0 68.0 62.0 66.0 58.0 66.0 58.0 64.0 58.0 56.0 58.0 54.0 56.0 54.0 56.0 52.0 56.0 50.0 58.0 50.0 58.0 48.0 62.0 48.0 66.0 48.0 66.0 46.0 66.0 44.0 68.0 44.0 70.0 44.0 70.0 48.0 68.0 48.0 68.0 56.0 66.0 56.0 66.0 62.0 64.0 62.0 64.0 66.0 66.0 66.0 66.0 62.0 68.0 62.0 68.0 56.0 70.0 56.0 72.0 56.0 72.0 58.0 70.0 58.0 70.0 60.0 72.0 60.0 72.0 62.0 72.0 64.0 74.0 64.0 76.0 64.0 76.0 66.0 78.0 66.0 78.0 68.0 72.0 68.0 72.0 66.0 70.0 66.0 70.0 72.0 72.0 72.0 72.0 70.0 78.0 70.0 80.0 70.0 80.0 68.0 82.0 68.0 82.0 70.0 84.0 70.0 M32.0 46.0 L32.0 44.0 34.0 44.0 34.0 46.0 32.0 46.0 M48.0 36.0 L48.0 42.0 46.0 42.0 46.0 38.0 46.0 36.0 48.0 36.0 M42.0 50.0 L44.0 50.0 44.0 52.0 42.0 52.0 42.0 50.0 M68.0 40.0 L66.0 40.0 66.0 38.0 68.0 38.0 68.0 40.0 M42.0 32.0 L42.0 34.0 40.0 34.0 40.0 32.0 42.0 32.0 M40.0 34.0 L40.0 36.0 38.0 36.0 38.0 34.0 40.0 34.0 M38.0 40.0 L38.0 42.0 38.0 44.0 38.0 46.0 36.0 46.0 36.0 44.0 36.0 40.0 38.0 40.0 M38.0 96.0 L38.0 98.0 36.0 98.0 36.0 96.0 38.0 96.0 M80.0 64.0 L80.0 66.0 78.0 66.0 78.0 64.0 80.0 64.0 M58.0 66.0 L58.0 68.0 56.0 68.0 56.0 70.0 54.0 70.0 54.0 68.0 54.0 66.0 52.0 66.0 52.0 64.0 54.0 64.0 54.0 62.0 56.0 62.0 56.0 64.0 56.0 66.0 58.0 66.0 M68.0 118.0 L74.0 118.0 74.0 122.0 68.0 122.0 68.0 120.0 68.0 118.0 M78.0 116.0 L82.0 116.0 82.0 114.0 84.0 114.0 84.0 116.0 82.0 116.0 82.0 120.0 80.0 120.0 80.0 118.0 78.0 118.0 78.0 116.0 M32.0 108.0 L34.0 108.0 34.0 110.0 30.0 110.0 28.0 110.0 28.0 108.0 28.0 106.0 30.0 106.0 30.0 108.0 32.0 108.0 M24.0 106.0 L26.0 106.0 26.0 108.0 24.0 108.0 24.0 110.0 22.0 110.0 22.0 108.0 20.0 108.0 20.0 106.0 22.0 106.0 24.0 106.0" fill="#b5b5d6" fill-rule="evenodd" stroke="none"/>
    <path d="M38.0 28.0 L40.0 28.0 40.0 30.0 38.0 30.0 38.0 28.0 M42.0 28.0 L42.0 26.0 58.0 26.0 58.0 28.0 60.0 28.0 60.0 30.0 62.0 30.0 62.0 32.0 60.0 32.0 60.0 30.0 56.0 30.0 56.0 28.0 42.0 28.0 M68.0 38.0 L70.0 38.0 70.0 40.0 68.0 40.0 68.0 38.0 M72.0 52.0 L72.0 50.0 74.0 50.0 74.0 52.0 74.0 54.0 72.0 54.0 72.0 52.0 M96.0 70.0 L96.0 74.0 94.0 74.0 94.0 70.0 96.0 70.0 M94.0 76.0 L94.0 78.0 94.0 80.0 92.0 80.0 92.0 76.0 94.0 76.0 M94.0 84.0 L96.0 84.0 96.0 86.0 100.0 86.0 100.0 88.0 102.0 88.0 104.0 88.0 104.0 90.0 106.0 90.0 106.0 96.0 108.0 96.0 108.0 102.0 108.0 104.0 108.0 106.0 106.0 106.0 106.0 104.0 104.0 104.0 104.0 102.0 102.0 102.0 102.0 100.0 100.0 100.0 100.0 96.0 98.0 96.0 98.0 94.0 96.0 94.0 92.0 94.0 92.0 92.0 88.0 92.0 88.0 90.0 92.0 90.0 92.0 88.0 94.0 88.0 94.0 84.0 M100.0 106.0 L98.0 106.0 98.0 104.0 98.0 102.0 102.0 102.0 102.0 104.0 100.0 104.0 100.0 106.0 M52.0 48.0 L54.0 48.0 54.0 50.0 52.0 50.0 52.0 48.0 M28.0 56.0 L30.0 56.0 30.0 58.0 28.0 58.0 28.0 56.0 M26.0 64.0 L26.0 62.0 28.0 62.0 28.0 64.0 28.0 66.0 30.0 66.0 30.0 68.0 28.0 68.0 28.0 66.0 26.0 66.0 26.0 64.0 M38.0 80.0 L38.0 78.0 40.0 78.0 40.0 80.0 38.0 80.0 M50.0 90.0 L50.0 88.0 48.0 88.0 48.0 84.0 50.0 84.0 50.0 88.0 52.0 88.0 52.0 90.0 50.0 90.0 M52.0 92.0 L54.0 92.0 54.0 96.0 52.0 96.0 52.0 94.0 52.0 92.0 M56.0 94.0 L56.0 92.0 58.0 92.0 58.0 94.0 56.0 94.0 M74.0 64.0 L72.0 64.0 72.0 62.0 74.0 62.0 74.0 64.0 M72.0 58.0 L72.0 56.0 74.0 56.0 74.0 58.0 72.0 58.0 M56.0 50.0 L56.0 52.0 54.0 52.0 54.0 50.0 56.0 50.0" fill="#8b8cac" fill-rule="evenodd" stroke="none"/>
    <path d="M32.0 48.0 L34.0 48.0 34.0 50.0 32.0 50.0 32.0 48.0 M52.0 50.0 L52.0 52.0 50.0 52.0 50.0 50.0 52.0 50.0" fill="#7b2931" fill-rule="evenodd" stroke="none"/>
    <path d="M32.0 50.0 L34.0 50.0 34.0 52.0 32.0 52.0 32.0 50.0 M36.0 54.0 L34.0 54.0 34.0 52.0 36.0 52.0 36.0 54.0 M52.0 52.0 L52.0 54.0 50.0 54.0 50.0 52.0 52.0 52.0 M50.0 56.0 L46.0 56.0 46.0 54.0 48.0 54.0 50.0 54.0 50.0 56.0" fill="#ce2921" fill-rule="evenodd" stroke="none"/>
    <path d="M56.0 54.0 L58.0 54.0 58.0 56.0 56.0 56.0 56.0 58.0 54.0 58.0 54.0 60.0 52.0 60.0 52.0 58.0 52.0 56.0 54.0 56.0 54.0 54.0 56.0 54.0" fill="#555b7c" fill-rule="evenodd" stroke="none"/>
    <path d="M52.0 54.0 L52.0 56.0 50.0 56.0 50.0 54.0 52.0 54.0" fill="#ff7b73" fill-rule="evenodd" stroke="none"/>
  </g>
</svg>
