<?xml version="1.0" encoding="UTF-8" standalone="no"?>
<svg xmlns:xlink="http://www.w3.org/1999/xlink" height="124.0px" width="98.0px" xmlns="http://www.w3.org/2000/svg">
  <g transform="matrix(1.0, 0.0, 0.0, 1.0, -18.0, -4.0)">
    <path d="M90.0 46.0 L90.0 40.0 92.0 40.0 92.0 36.0 94.0 36.0 94.0 34.0 96.0 34.0 96.0 32.0 98.0 32.0 98.0 30.0 100.0 30.0 100.0 28.0 102.0 28.0 102.0 26.0 104.0 26.0 104.0 24.0 108.0 24.0 108.0 22.0 112.0 22.0 112.0 20.0 116.0 20.0 116.0 22.0 114.0 22.0 112.0 22.0 112.0 24.0 108.0 24.0 108.0 26.0 104.0 26.0 104.0 28.0 102.0 28.0 102.0 30.0 100.0 30.0 100.0 32.0 98.0 32.0 98.0 34.0 96.0 34.0 96.0 36.0 94.0 36.0 94.0 40.0 92.0 40.0 92.0 46.0 90.0 46.0 M104.0 42.0 L104.0 44.0 106.0 44.0 106.0 46.0 104.0 46.0 104.0 44.0 102.0 44.0 102.0 42.0 104.0 42.0 M102.0 86.0 L102.0 84.0 104.0 84.0 104.0 82.0 106.0 82.0 106.0 84.0 104.0 84.0 104.0 86.0 102.0 86.0 M92.0 108.0 L92.0 104.0 94.0 104.0 94.0 102.0 98.0 102.0 98.0 104.0 94.0 104.0 94.0 108.0 92.0 108.0 M84.0 114.0 L86.0 114.0 86.0 116.0 84.0 116.0 84.0 114.0 M60.0 122.0 L60.0 118.0 62.0 118.0 62.0 114.0 64.0 114.0 64.0 116.0 64.0 118.0 62.0 118.0 62.0 122.0 60.0 122.0 M24.0 114.0 L22.0 114.0 22.0 112.0 20.0 112.0 20.0 110.0 22.0 110.0 22.0 112.0 24.0 112.0 24.0 114.0 M36.0 40.0 L34.0 40.0 34.0 36.0 36.0 36.0 36.0 38.0 36.0 40.0 M30.0 34.0 L30.0 36.0 28.0 36.0 28.0 34.0 28.0 32.0 30.0 32.0 30.0 34.0 M26.0 24.0 L26.0 22.0 28.0 22.0 28.0 20.0 30.0 20.0 30.0 14.0 34.0 14.0 34.0 12.0 36.0 12.0 36.0 14.0 34.0 14.0 34.0 16.0 32.0 16.0 32.0 20.0 30.0 20.0 30.0 22.0 28.0 22.0 28.0 24.0 26.0 24.0 M64.0 8.0 L70.0 8.0 70.0 12.0 72.0 12.0 72.0 14.0 70.0 14.0 70.0 12.0 68.0 12.0 68.0 10.0 66.0 10.0 64.0 10.0 64.0 8.0 M58.0 12.0 L58.0 14.0 56.0 14.0 56.0 12.0 52.0 12.0 52.0 14.0 46.0 14.0 46.0 12.0 50.0 12.0 52.0 12.0 52.0 10.0 56.0 10.0 56.0 12.0 58.0 12.0 M88.0 58.0 L88.0 56.0 90.0 56.0 90.0 58.0 88.0 58.0 M108.0 102.0 L110.0 102.0 110.0 104.0 108.0 104.0 108.0 102.0 M102.0 102.0 L104.0 102.0 104.0 104.0 106.0 104.0 106.0 106.0 104.0 106.0 104.0 104.0 102.0 104.0 102.0 102.0 M50.0 32.0 L52.0 32.0 52.0 38.0 50.0 38.0 50.0 34.0 50.0 32.0 M46.0 38.0 L48.0 38.0 48.0 40.0 46.0 40.0 46.0 38.0 M50.0 44.0 L52.0 44.0 52.0 46.0 52.0 48.0 52.0 50.0 50.0 50.0 48.0 50.0 48.0 48.0 44.0 48.0 42.0 48.0 42.0 46.0 42.0 44.0 44.0 44.0 44.0 46.0 48.0 46.0 48.0 48.0 50.0 48.0 50.0 46.0 50.0 44.0 M54.0 44.0 L58.0 44.0 58.0 46.0 56.0 46.0 54.0 46.0 54.0 44.0 M46.0 40.0 L46.0 42.0 44.0 42.0 42.0 42.0 42.0 40.0 42.0 38.0 44.0 38.0 44.0 40.0 46.0 40.0 M42.0 56.0 L44.0 56.0 44.0 58.0 42.0 58.0 42.0 56.0 M38.0 92.0 L38.0 90.0 40.0 90.0 40.0 92.0 38.0 92.0 M42.0 88.0 L42.0 90.0 40.0 90.0 40.0 88.0 42.0 88.0 M34.0 104.0 L34.0 106.0 32.0 106.0 32.0 104.0 30.0 104.0 28.0 104.0 28.0 102.0 30.0 102.0 32.0 102.0 34.0 102.0 34.0 104.0 M76.0 116.0 L78.0 116.0 78.0 118.0 76.0 118.0 76.0 120.0 76.0 122.0 74.0 122.0 74.0 118.0 76.0 118.0 76.0 116.0 M64.0 124.0 L64.0 122.0 66.0 122.0 66.0 120.0 68.0 120.0 68.0 122.0 66.0 122.0 66.0 124.0 64.0 124.0 M82.0 120.0 L82.0 116.0 84.0 116.0 84.0 118.0 84.0 120.0 82.0 120.0 M78.0 122.0 L80.0 122.0 80.0 126.0 78.0 126.0 78.0 124.0 76.0 124.0 76.0 122.0 78.0 122.0 M30.0 108.0 L28.0 108.0 28.0 106.0 30.0 106.0 30.0 108.0" fill="#293939" fill-rule="evenodd" stroke="none"/>
    <path d="M46.0 6.0 L48.0 6.0 48.0 8.0 52.0 8.0 52.0 6.0 54.0 6.0 56.0 6.0 56.0 8.0 64.0 8.0 64.0 10.0 58.0 10.0 56.0 10.0 52.0 10.0 50.0 10.0 50.0 12.0 46.0 12.0 46.0 14.0 44.0 14.0 42.0 14.0 38.0 14.0 38.0 16.0 36.0 16.0 36.0 18.0 36.0 20.0 34.0 20.0 34.0 22.0 32.0 22.0 30.0 22.0 30.0 24.0 28.0 24.0 28.0 22.0 30.0 22.0 30.0 20.0 32.0 20.0 32.0 16.0 34.0 16.0 34.0 14.0 36.0 14.0 36.0 12.0 38.0 12.0 38.0 10.0 42.0 10.0 42.0 8.0 46.0 8.0 46.0 6.0 M90.0 46.0 L92.0 46.0 92.0 40.0 94.0 40.0 94.0 36.0 96.0 36.0 96.0 34.0 98.0 34.0 98.0 32.0 100.0 32.0 100.0 30.0 102.0 30.0 102.0 28.0 104.0 28.0 104.0 26.0 108.0 26.0 108.0 24.0 112.0 24.0 112.0 22.0 114.0 22.0 114.0 24.0 112.0 24.0 112.0 26.0 110.0 26.0 110.0 28.0 108.0 28.0 108.0 30.0 106.0 30.0 106.0 34.0 104.0 34.0 104.0 36.0 100.0 36.0 100.0 38.0 98.0 38.0 98.0 40.0 96.0 40.0 96.0 42.0 94.0 42.0 94.0 46.0 92.0 46.0 92.0 48.0 90.0 48.0 90.0 46.0 M52.0 28.0 L52.0 30.0 50.0 30.0 50.0 28.0 52.0 28.0 M46.0 30.0 L48.0 30.0 50.0 30.0 50.0 32.0 50.0 34.0 48.0 34.0 48.0 38.0 46.0 38.0 44.0 38.0 44.0 34.0 44.0 32.0 46.0 32.0 46.0 30.0 M48.0 40.0 L48.0 42.0 46.0 42.0 46.0 44.0 44.0 44.0 44.0 42.0 46.0 42.0 46.0 40.0 48.0 40.0 M42.0 48.0 L44.0 48.0 44.0 52.0 40.0 52.0 40.0 54.0 38.0 54.0 38.0 52.0 38.0 50.0 36.0 50.0 36.0 48.0 38.0 48.0 40.0 48.0 42.0 48.0 M52.0 58.0 L50.0 58.0 50.0 54.0 56.0 54.0 56.0 56.0 54.0 56.0 54.0 58.0 52.0 58.0 M84.0 116.0 L86.0 116.0 88.0 116.0 88.0 120.0 86.0 120.0 86.0 118.0 84.0 118.0 84.0 116.0 M66.0 120.0 L64.0 120.0 64.0 122.0 62.0 122.0 62.0 118.0 64.0 118.0 66.0 118.0 66.0 120.0 M30.0 104.0 L32.0 104.0 32.0 106.0 32.0 108.0 30.0 108.0 30.0 106.0 30.0 104.0 M24.0 106.0 L24.0 108.0 24.0 110.0 24.0 112.0 22.0 112.0 22.0 110.0 22.0 106.0 24.0 106.0" fill="#737bad" fill-rule="evenodd" stroke="none"/>
    <path d="M116.0 22.0 L116.0 24.0 114.0 24.0 114.0 26.0 112.0 26.0 112.0 28.0 110.0 28.0 110.0 30.0 108.0 30.0 108.0 34.0 106.0 34.0 106.0 38.0 104.0 38.0 104.0 42.0 102.0 42.0 102.0 38.0 104.0 38.0 104.0 36.0 104.0 34.0 106.0 34.0 106.0 30.0 108.0 30.0 108.0 28.0 110.0 28.0 110.0 26.0 112.0 26.0 112.0 24.0 114.0 24.0 114.0 22.0 116.0 22.0 M106.0 46.0 L106.0 50.0 98.0 50.0 98.0 52.0 94.0 52.0 94.0 56.0 92.0 56.0 92.0 58.0 90.0 58.0 90.0 56.0 88.0 56.0 88.0 46.0 90.0 46.0 90.0 48.0 90.0 50.0 90.0 56.0 92.0 56.0 92.0 52.0 94.0 52.0 94.0 50.0 98.0 50.0 98.0 48.0 104.0 48.0 104.0 46.0 106.0 46.0 M98.0 68.0 L98.0 74.0 96.0 74.0 96.0 70.0 96.0 68.0 98.0 68.0 M96.0 78.0 L96.0 84.0 100.0 84.0 100.0 86.0 102.0 86.0 102.0 88.0 100.0 88.0 100.0 86.0 96.0 86.0 96.0 84.0 94.0 84.0 94.0 80.0 94.0 78.0 96.0 78.0 M106.0 84.0 L108.0 84.0 108.0 96.0 110.0 96.0 110.0 102.0 112.0 102.0 112.0 104.0 114.0 104.0 114.0 110.0 110.0 110.0 110.0 108.0 106.0 108.0 106.0 110.0 102.0 110.0 102.0 112.0 98.0 112.0 98.0 108.0 96.0 108.0 96.0 110.0 92.0 110.0 92.0 108.0 94.0 108.0 96.0 108.0 96.0 106.0 98.0 106.0 100.0 106.0 100.0 110.0 102.0 110.0 102.0 108.0 104.0 108.0 106.0 108.0 106.0 106.0 108.0 106.0 110.0 106.0 110.0 108.0 112.0 108.0 112.0 104.0 110.0 104.0 110.0 102.0 108.0 102.0 108.0 96.0 106.0 96.0 106.0 90.0 106.0 88.0 106.0 84.0 M98.0 100.0 L98.0 96.0 100.0 96.0 100.0 100.0 98.0 100.0 M96.0 96.0 L92.0 96.0 92.0 94.0 86.0 94.0 86.0 92.0 88.0 92.0 92.0 92.0 92.0 94.0 96.0 94.0 96.0 96.0 M84.0 90.0 L84.0 88.0 82.0 88.0 82.0 84.0 84.0 84.0 84.0 88.0 86.0 88.0 86.0 90.0 84.0 90.0 M78.0 80.0 L78.0 82.0 76.0 82.0 76.0 86.0 78.0 86.0 78.0 92.0 76.0 92.0 76.0 96.0 74.0 96.0 74.0 100.0 72.0 100.0 72.0 98.0 70.0 98.0 70.0 96.0 70.0 94.0 70.0 92.0 68.0 92.0 68.0 84.0 70.0 84.0 70.0 92.0 72.0 92.0 72.0 96.0 74.0 96.0 74.0 92.0 76.0 92.0 76.0 86.0 74.0 86.0 74.0 82.0 74.0 80.0 78.0 80.0 M86.0 114.0 L88.0 114.0 88.0 116.0 90.0 116.0 90.0 124.0 86.0 124.0 86.0 122.0 82.0 122.0 82.0 126.0 80.0 126.0 80.0 128.0 78.0 128.0 78.0 126.0 76.0 126.0 76.0 124.0 66.0 124.0 66.0 126.0 60.0 126.0 60.0 122.0 62.0 122.0 62.0 124.0 64.0 124.0 66.0 124.0 66.0 122.0 68.0 122.0 74.0 122.0 76.0 122.0 76.0 124.0 78.0 124.0 78.0 126.0 80.0 126.0 80.0 122.0 80.0 120.0 82.0 120.0 84.0 120.0 86.0 120.0 86.0 122.0 88.0 122.0 88.0 120.0 88.0 116.0 86.0 116.0 86.0 114.0 M64.0 114.0 L64.0 106.0 60.0 106.0 60.0 108.0 56.0 108.0 56.0 106.0 54.0 106.0 54.0 108.0 50.0 108.0 50.0 102.0 52.0 102.0 52.0 100.0 54.0 100.0 54.0 98.0 56.0 98.0 56.0 96.0 58.0 96.0 58.0 90.0 60.0 90.0 60.0 94.0 60.0 96.0 58.0 96.0 58.0 98.0 56.0 98.0 56.0 102.0 52.0 102.0 52.0 106.0 54.0 106.0 54.0 104.0 56.0 104.0 56.0 106.0 60.0 106.0 60.0 104.0 62.0 104.0 62.0 100.0 60.0 100.0 60.0 96.0 62.0 96.0 62.0 98.0 62.0 100.0 64.0 100.0 64.0 104.0 64.0 106.0 66.0 106.0 66.0 114.0 64.0 114.0 M56.0 90.0 L56.0 94.0 54.0 94.0 54.0 96.0 50.0 96.0 50.0 94.0 46.0 94.0 46.0 96.0 40.0 96.0 40.0 98.0 38.0 98.0 38.0 100.0 40.0 100.0 40.0 104.0 36.0 104.0 36.0 108.0 34.0 108.0 34.0 106.0 34.0 104.0 36.0 104.0 36.0 102.0 38.0 102.0 38.0 100.0 36.0 100.0 36.0 98.0 38.0 98.0 38.0 96.0 36.0 96.0 36.0 94.0 38.0 94.0 40.0 94.0 40.0 92.0 40.0 90.0 38.0 90.0 38.0 86.0 40.0 86.0 40.0 84.0 38.0 84.0 38.0 82.0 40.0 82.0 40.0 84.0 42.0 84.0 42.0 86.0 40.0 86.0 40.0 88.0 40.0 90.0 42.0 90.0 42.0 88.0 44.0 88.0 44.0 90.0 42.0 90.0 42.0 92.0 44.0 92.0 44.0 94.0 46.0 94.0 46.0 90.0 48.0 90.0 48.0 92.0 50.0 92.0 50.0 94.0 52.0 94.0 54.0 94.0 54.0 92.0 54.0 90.0 56.0 90.0 M34.0 110.0 L34.0 112.0 30.0 112.0 30.0 110.0 28.0 110.0 28.0 108.0 30.0 108.0 32.0 108.0 32.0 110.0 34.0 110.0 M26.0 110.0 L26.0 116.0 24.0 116.0 24.0 114.0 24.0 112.0 24.0 110.0 26.0 110.0 M20.0 106.0 L18.0 106.0 18.0 104.0 20.0 104.0 20.0 100.0 22.0 100.0 24.0 100.0 24.0 102.0 22.0 102.0 22.0 104.0 20.0 104.0 20.0 106.0 M34.0 76.0 L34.0 72.0 36.0 72.0 36.0 76.0 38.0 76.0 38.0 78.0 40.0 78.0 40.0 80.0 42.0 80.0 42.0 82.0 40.0 82.0 40.0 80.0 38.0 80.0 38.0 78.0 36.0 78.0 36.0 76.0 34.0 76.0 M34.0 70.0 L34.0 66.0 32.0 66.0 32.0 62.0 32.0 60.0 34.0 60.0 36.0 60.0 36.0 62.0 34.0 62.0 34.0 66.0 36.0 66.0 36.0 70.0 34.0 70.0 M30.0 62.0 L30.0 64.0 26.0 64.0 26.0 58.0 22.0 58.0 22.0 56.0 24.0 56.0 26.0 56.0 26.0 58.0 28.0 58.0 28.0 60.0 28.0 62.0 30.0 62.0 M36.0 42.0 L36.0 40.0 38.0 40.0 38.0 42.0 36.0 42.0 M34.0 36.0 L32.0 36.0 32.0 34.0 30.0 34.0 30.0 32.0 32.0 32.0 32.0 34.0 34.0 34.0 34.0 36.0 M28.0 34.0 L26.0 34.0 26.0 32.0 24.0 32.0 24.0 30.0 26.0 30.0 26.0 24.0 28.0 24.0 28.0 26.0 28.0 30.0 26.0 30.0 26.0 32.0 28.0 32.0 28.0 34.0 M72.0 14.0 L74.0 14.0 74.0 16.0 70.0 16.0 70.0 14.0 64.0 14.0 64.0 12.0 58.0 12.0 58.0 10.0 64.0 10.0 64.0 12.0 66.0 12.0 68.0 12.0 70.0 12.0 70.0 14.0 72.0 14.0 M44.0 14.0 L44.0 16.0 42.0 16.0 42.0 20.0 40.0 20.0 40.0 22.0 38.0 22.0 38.0 20.0 40.0 20.0 40.0 16.0 42.0 16.0 42.0 14.0 44.0 14.0 M36.0 22.0 L36.0 28.0 38.0 28.0 38.0 30.0 38.0 38.0 36.0 38.0 36.0 36.0 36.0 34.0 36.0 28.0 34.0 28.0 34.0 22.0 36.0 22.0 M40.0 30.0 L40.0 28.0 42.0 28.0 42.0 30.0 40.0 30.0 M82.0 60.0 L82.0 62.0 80.0 62.0 80.0 60.0 82.0 60.0 M56.0 46.0 L58.0 46.0 58.0 48.0 56.0 48.0 56.0 46.0 M58.0 50.0 L60.0 50.0 60.0 52.0 58.0 52.0 58.0 50.0 M72.0 56.0 L70.0 56.0 70.0 60.0 68.0 60.0 68.0 64.0 66.0 64.0 66.0 60.0 68.0 60.0 68.0 56.0 70.0 56.0 70.0 54.0 72.0 54.0 72.0 48.0 74.0 48.0 74.0 50.0 74.0 52.0 74.0 54.0 74.0 56.0 72.0 56.0 M40.0 56.0 L40.0 54.0 42.0 54.0 42.0 56.0 42.0 58.0 40.0 58.0 40.0 56.0 M42.0 60.0 L48.0 60.0 48.0 62.0 50.0 62.0 50.0 60.0 52.0 60.0 54.0 60.0 54.0 58.0 58.0 58.0 58.0 56.0 58.0 54.0 62.0 54.0 62.0 56.0 60.0 56.0 60.0 62.0 58.0 62.0 58.0 60.0 54.0 60.0 54.0 62.0 50.0 62.0 50.0 64.0 48.0 64.0 48.0 62.0 40.0 62.0 40.0 60.0 42.0 60.0 M28.0 52.0 L30.0 52.0 30.0 54.0 28.0 54.0 28.0 52.0 M70.0 82.0 L72.0 82.0 72.0 84.0 70.0 84.0 70.0 82.0 M78.0 62.0 L78.0 64.0 76.0 64.0 76.0 62.0 78.0 62.0 M60.0 64.0 L64.0 64.0 64.0 66.0 60.0 66.0 60.0 68.0 58.0 68.0 58.0 70.0 54.0 70.0 54.0 66.0 56.0 66.0 56.0 68.0 58.0 68.0 58.0 66.0 60.0 66.0 60.0 64.0 M72.0 66.0 L76.0 66.0 76.0 68.0 78.0 68.0 78.0 70.0 76.0 70.0 76.0 68.0 72.0 68.0 72.0 66.0 M102.0 106.0 L100.0 106.0 100.0 104.0 102.0 104.0 102.0 106.0" fill="#000000" fill-rule="evenodd" stroke="none"/>
    <path d="M104.0 36.0 L104.0 38.0 102.0 38.0 100.0 38.0 100.0 40.0 98.0 40.0 98.0 38.0 100.0 38.0 100.0 36.0 104.0 36.0 M90.0 48.0 L92.0 48.0 92.0 46.0 94.0 46.0 94.0 42.0 96.0 42.0 96.0 40.0 98.0 40.0 98.0 42.0 96.0 42.0 96.0 46.0 94.0 46.0 94.0 48.0 92.0 48.0 92.0 50.0 90.0 50.0 90.0 48.0 M104.0 108.0 L102.0 108.0 102.0 110.0 100.0 110.0 100.0 106.0 102.0 106.0 104.0 106.0 104.0 108.0 M66.0 12.0 L64.0 12.0 64.0 10.0 66.0 10.0 66.0 12.0 M52.0 10.0 L52.0 12.0 50.0 12.0 50.0 10.0 52.0 10.0 M58.0 12.0 L56.0 12.0 56.0 10.0 58.0 10.0 58.0 12.0 M42.0 14.0 L42.0 16.0 40.0 16.0 38.0 16.0 38.0 18.0 36.0 18.0 36.0 16.0 38.0 16.0 38.0 14.0 42.0 14.0 M42.0 46.0 L42.0 48.0 40.0 48.0 40.0 46.0 42.0 46.0 M44.0 48.0 L48.0 48.0 48.0 50.0 50.0 50.0 50.0 52.0 50.0 54.0 50.0 58.0 52.0 58.0 52.0 60.0 50.0 60.0 48.0 60.0 42.0 60.0 42.0 58.0 44.0 58.0 44.0 56.0 42.0 56.0 42.0 54.0 40.0 54.0 40.0 56.0 38.0 56.0 38.0 54.0 36.0 54.0 36.0 52.0 38.0 52.0 38.0 54.0 40.0 54.0 40.0 52.0 44.0 52.0 44.0 48.0 M28.0 24.0 L30.0 24.0 30.0 22.0 32.0 22.0 32.0 24.0 30.0 24.0 30.0 26.0 28.0 26.0 28.0 24.0 M34.0 22.0 L34.0 20.0 36.0 20.0 36.0 22.0 34.0 22.0 M36.0 34.0 L36.0 36.0 34.0 36.0 34.0 34.0 36.0 34.0 M34.0 106.0 L34.0 108.0 32.0 108.0 32.0 106.0 34.0 106.0 M66.0 116.0 L66.0 118.0 68.0 118.0 68.0 120.0 66.0 120.0 66.0 118.0 64.0 118.0 64.0 116.0 66.0 116.0 M76.0 120.0 L76.0 118.0 78.0 118.0 80.0 118.0 80.0 120.0 80.0 122.0 78.0 122.0 78.0 120.0 76.0 120.0 M28.0 104.0 L30.0 104.0 30.0 106.0 28.0 106.0 28.0 104.0 M26.0 104.0 L26.0 106.0 26.0 108.0 24.0 108.0 24.0 106.0 24.0 104.0 26.0 104.0" fill="#525a7b" fill-rule="evenodd" stroke="none"/>
    <path d="M34.0 108.0 L34.0 110.0 32.0 110.0 32.0 108.0 34.0 108.0 M28.0 110.0 L26.0 110.0 24.0 110.0 24.0 108.0 26.0 108.0 26.0 106.0 28.0 106.0 28.0 108.0 28.0 110.0 M20.0 110.0 L20.0 106.0 20.0 104.0 22.0 104.0 22.0 102.0 24.0 102.0 24.0 100.0 22.0 100.0 22.0 98.0 26.0 98.0 26.0 100.0 26.0 102.0 26.0 104.0 24.0 104.0 22.0 104.0 22.0 106.0 22.0 110.0 20.0 110.0 M34.0 46.0 L34.0 44.0 36.0 44.0 36.0 42.0 38.0 42.0 38.0 44.0 38.0 46.0 34.0 46.0 M36.0 12.0 L36.0 10.0 38.0 10.0 38.0 8.0 42.0 8.0 42.0 6.0 46.0 6.0 46.0 8.0 42.0 8.0 42.0 10.0 38.0 10.0 38.0 12.0 36.0 12.0 M48.0 6.0 L48.0 4.0 50.0 4.0 50.0 6.0 52.0 6.0 52.0 8.0 48.0 8.0 48.0 6.0 M54.0 6.0 L54.0 4.0 56.0 4.0 56.0 6.0 64.0 6.0 64.0 8.0 56.0 8.0 56.0 6.0 54.0 6.0 M38.0 22.0 L36.0 22.0 36.0 20.0 36.0 18.0 38.0 18.0 38.0 16.0 40.0 16.0 40.0 20.0 38.0 20.0 38.0 22.0 M102.0 38.0 L102.0 42.0 102.0 44.0 104.0 44.0 104.0 46.0 104.0 48.0 98.0 48.0 98.0 50.0 94.0 50.0 94.0 52.0 92.0 52.0 92.0 56.0 90.0 56.0 90.0 50.0 92.0 50.0 92.0 48.0 94.0 48.0 94.0 46.0 96.0 46.0 96.0 42.0 98.0 42.0 98.0 40.0 100.0 40.0 100.0 38.0 102.0 38.0 M102.0 88.0 L102.0 86.0 104.0 86.0 104.0 84.0 106.0 84.0 106.0 88.0 104.0 88.0 102.0 88.0 M110.0 104.0 L112.0 104.0 112.0 108.0 110.0 108.0 110.0 106.0 108.0 106.0 108.0 104.0 110.0 104.0 M106.0 106.0 L106.0 108.0 104.0 108.0 104.0 106.0 106.0 106.0 M98.0 106.0 L96.0 106.0 96.0 108.0 94.0 108.0 94.0 104.0 98.0 104.0 98.0 106.0 M66.0 12.0 L66.0 10.0 68.0 10.0 68.0 12.0 66.0 12.0 M52.0 30.0 L52.0 28.0 54.0 28.0 54.0 30.0 52.0 30.0 52.0 32.0 50.0 32.0 50.0 30.0 52.0 30.0 M44.0 38.0 L46.0 38.0 46.0 40.0 44.0 40.0 44.0 38.0 M48.0 38.0 L48.0 34.0 50.0 34.0 50.0 38.0 48.0 38.0 M48.0 48.0 L48.0 46.0 50.0 46.0 50.0 48.0 48.0 48.0 M42.0 42.0 L42.0 44.0 40.0 44.0 40.0 42.0 38.0 42.0 38.0 40.0 40.0 40.0 40.0 42.0 42.0 42.0 M52.0 46.0 L54.0 46.0 54.0 48.0 52.0 48.0 52.0 46.0 M32.0 22.0 L34.0 22.0 34.0 28.0 36.0 28.0 36.0 34.0 34.0 34.0 32.0 34.0 32.0 32.0 30.0 32.0 28.0 32.0 26.0 32.0 26.0 30.0 28.0 30.0 28.0 26.0 30.0 26.0 30.0 24.0 32.0 24.0 32.0 22.0 M36.0 50.0 L38.0 50.0 38.0 52.0 36.0 52.0 36.0 54.0 38.0 54.0 38.0 56.0 40.0 56.0 40.0 58.0 38.0 58.0 38.0 56.0 36.0 56.0 36.0 54.0 34.0 54.0 34.0 52.0 36.0 52.0 36.0 50.0 M42.0 58.0 L42.0 60.0 40.0 60.0 40.0 58.0 42.0 58.0 M48.0 60.0 L50.0 60.0 50.0 62.0 48.0 62.0 48.0 60.0 M52.0 60.0 L52.0 58.0 54.0 58.0 54.0 56.0 56.0 56.0 58.0 56.0 58.0 58.0 54.0 58.0 54.0 60.0 52.0 60.0 M50.0 54.0 L50.0 52.0 54.0 52.0 56.0 52.0 56.0 50.0 58.0 50.0 58.0 52.0 56.0 52.0 56.0 54.0 50.0 54.0 M38.0 92.0 L40.0 92.0 40.0 94.0 38.0 94.0 38.0 92.0 M62.0 122.0 L64.0 122.0 64.0 120.0 66.0 120.0 66.0 122.0 64.0 122.0 64.0 124.0 62.0 124.0 62.0 122.0 M76.0 122.0 L76.0 120.0 78.0 120.0 78.0 122.0 76.0 122.0 M84.0 118.0 L86.0 118.0 86.0 120.0 88.0 120.0 88.0 122.0 86.0 122.0 86.0 120.0 84.0 120.0 84.0 118.0 M102.0 104.0 L104.0 104.0 104.0 106.0 102.0 106.0 102.0 104.0" fill="#424a6b" fill-rule="evenodd" stroke="none"/>
    <path d="M92.0 58.0 L92.0 60.0 94.0 60.0 94.0 62.0 96.0 62.0 96.0 66.0 98.0 66.0 98.0 68.0 96.0 68.0 96.0 66.0 94.0 66.0 94.0 64.0 94.0 62.0 92.0 62.0 92.0 60.0 88.0 60.0 88.0 58.0 90.0 58.0 92.0 58.0 M96.0 74.0 L96.0 78.0 94.0 78.0 94.0 76.0 94.0 74.0 96.0 74.0 M98.0 102.0 L98.0 100.0 100.0 100.0 102.0 100.0 102.0 102.0 98.0 102.0 M98.0 96.0 L96.0 96.0 96.0 94.0 98.0 94.0 98.0 96.0 M86.0 92.0 L84.0 92.0 84.0 90.0 86.0 90.0 88.0 90.0 88.0 92.0 86.0 92.0 M82.0 84.0 L80.0 84.0 80.0 80.0 78.0 80.0 78.0 78.0 80.0 78.0 80.0 80.0 82.0 80.0 82.0 84.0 M74.0 100.0 L74.0 104.0 76.0 104.0 76.0 108.0 78.0 108.0 78.0 110.0 82.0 110.0 82.0 112.0 84.0 112.0 84.0 114.0 82.0 114.0 82.0 112.0 78.0 112.0 78.0 110.0 76.0 110.0 76.0 108.0 74.0 108.0 74.0 104.0 72.0 104.0 72.0 100.0 74.0 100.0 M58.0 90.0 L56.0 90.0 56.0 86.0 58.0 86.0 58.0 82.0 60.0 82.0 60.0 90.0 58.0 90.0 M30.0 94.0 L28.0 94.0 28.0 88.0 30.0 88.0 30.0 84.0 32.0 84.0 32.0 78.0 34.0 78.0 34.0 84.0 32.0 84.0 32.0 88.0 30.0 88.0 30.0 90.0 30.0 94.0 M34.0 72.0 L34.0 70.0 36.0 70.0 36.0 72.0 34.0 72.0 M22.0 56.0 L22.0 54.0 24.0 54.0 24.0 52.0 26.0 52.0 26.0 54.0 24.0 54.0 24.0 56.0 22.0 56.0 M28.0 52.0 L28.0 50.0 30.0 50.0 30.0 48.0 32.0 48.0 32.0 50.0 30.0 50.0 30.0 52.0 28.0 52.0 M40.0 28.0 L40.0 26.0 42.0 26.0 42.0 24.0 44.0 24.0 44.0 22.0 46.0 22.0 46.0 24.0 44.0 24.0 44.0 26.0 42.0 26.0 42.0 28.0 40.0 28.0 M70.0 30.0 L72.0 30.0 72.0 34.0 74.0 34.0 74.0 36.0 72.0 36.0 72.0 34.0 70.0 34.0 70.0 32.0 70.0 30.0 M74.0 40.0 L74.0 42.0 72.0 42.0 72.0 40.0 74.0 40.0 M74.0 44.0 L76.0 44.0 76.0 48.0 74.0 48.0 74.0 44.0 M78.0 50.0 L82.0 50.0 82.0 54.0 80.0 54.0 80.0 56.0 88.0 56.0 88.0 58.0 82.0 58.0 82.0 60.0 80.0 60.0 78.0 60.0 78.0 58.0 76.0 58.0 76.0 56.0 76.0 54.0 80.0 54.0 80.0 52.0 78.0 52.0 78.0 50.0 M80.0 66.0 L80.0 68.0 80.0 70.0 78.0 70.0 78.0 68.0 78.0 66.0 76.0 66.0 76.0 64.0 78.0 64.0 78.0 66.0 80.0 66.0 M106.0 88.0 L106.0 90.0 104.0 90.0 104.0 88.0 106.0 88.0 M76.0 50.0 L76.0 52.0 74.0 52.0 74.0 50.0 76.0 50.0 M30.0 56.0 L32.0 56.0 32.0 58.0 30.0 58.0 30.0 56.0 M34.0 60.0 L34.0 58.0 36.0 58.0 36.0 60.0 34.0 60.0 M38.0 76.0 L38.0 74.0 40.0 74.0 40.0 78.0 38.0 78.0 38.0 76.0 M48.0 90.0 L48.0 86.0 50.0 86.0 50.0 88.0 50.0 90.0 48.0 90.0 M60.0 94.0 L62.0 94.0 62.0 96.0 60.0 96.0 60.0 100.0 62.0 100.0 62.0 104.0 60.0 104.0 60.0 106.0 56.0 106.0 56.0 104.0 54.0 104.0 54.0 106.0 52.0 106.0 52.0 102.0 56.0 102.0 56.0 98.0 58.0 98.0 58.0 96.0 60.0 96.0 60.0 94.0 M68.0 84.0 L68.0 78.0 70.0 78.0 70.0 82.0 70.0 84.0 72.0 84.0 72.0 82.0 74.0 82.0 74.0 86.0 76.0 86.0 76.0 92.0 74.0 92.0 74.0 96.0 72.0 96.0 72.0 92.0 70.0 92.0 70.0 84.0 68.0 84.0 M78.0 58.0 L80.0 58.0 80.0 56.0 78.0 56.0 78.0 58.0 M76.0 60.0 L78.0 60.0 78.0 62.0 76.0 62.0 76.0 60.0 M60.0 62.0 L60.0 64.0 58.0 64.0 58.0 62.0 60.0 62.0 M54.0 66.0 L54.0 64.0 56.0 64.0 56.0 66.0 54.0 66.0 M72.0 68.0 L72.0 70.0 70.0 70.0 70.0 72.0 68.0 72.0 68.0 76.0 66.0 76.0 66.0 82.0 62.0 82.0 62.0 80.0 64.0 80.0 64.0 76.0 66.0 76.0 66.0 72.0 68.0 72.0 68.0 70.0 70.0 70.0 70.0 64.0 72.0 64.0 72.0 66.0 72.0 68.0 M52.0 92.0 L54.0 92.0 54.0 94.0 52.0 94.0 52.0 92.0 M70.0 98.0 L72.0 98.0 72.0 100.0 70.0 100.0 70.0 98.0" fill="#636384" fill-rule="evenodd" stroke="none"/>
    <path d="M26.0 98.0 L26.0 96.0 30.0 96.0 30.0 94.0 30.0 90.0 32.0 90.0 34.0 90.0 34.0 92.0 38.0 92.0 38.0 94.0 36.0 94.0 36.0 96.0 38.0 96.0 38.0 98.0 36.0 98.0 34.0 98.0 34.0 100.0 32.0 100.0 30.0 100.0 28.0 100.0 26.0 100.0 26.0 98.0 M26.0 52.0 L28.0 52.0 28.0 54.0 30.0 54.0 30.0 52.0 30.0 50.0 32.0 50.0 32.0 48.0 34.0 48.0 34.0 50.0 36.0 50.0 36.0 52.0 34.0 52.0 34.0 50.0 32.0 50.0 32.0 52.0 34.0 52.0 34.0 54.0 36.0 54.0 36.0 56.0 38.0 56.0 38.0 58.0 38.0 60.0 40.0 60.0 40.0 62.0 38.0 62.0 38.0 64.0 40.0 64.0 40.0 66.0 42.0 66.0 44.0 66.0 44.0 68.0 46.0 68.0 46.0 72.0 44.0 72.0 44.0 78.0 42.0 78.0 42.0 80.0 40.0 80.0 40.0 78.0 40.0 74.0 40.0 72.0 38.0 72.0 38.0 74.0 38.0 76.0 36.0 76.0 36.0 72.0 36.0 70.0 36.0 66.0 34.0 66.0 34.0 62.0 36.0 62.0 36.0 60.0 36.0 58.0 34.0 58.0 34.0 60.0 32.0 60.0 30.0 60.0 30.0 58.0 32.0 58.0 32.0 56.0 30.0 56.0 28.0 56.0 28.0 58.0 26.0 58.0 26.0 56.0 24.0 56.0 24.0 54.0 26.0 54.0 26.0 52.0 M38.0 30.0 L40.0 30.0 42.0 30.0 42.0 28.0 42.0 26.0 44.0 26.0 44.0 24.0 46.0 24.0 46.0 26.0 48.0 26.0 48.0 24.0 52.0 24.0 52.0 22.0 54.0 22.0 54.0 24.0 62.0 24.0 62.0 26.0 64.0 26.0 64.0 28.0 68.0 28.0 68.0 30.0 68.0 32.0 70.0 32.0 70.0 34.0 72.0 34.0 72.0 36.0 72.0 38.0 74.0 38.0 74.0 40.0 72.0 40.0 70.0 40.0 70.0 42.0 70.0 44.0 68.0 44.0 68.0 46.0 66.0 46.0 64.0 46.0 58.0 46.0 58.0 44.0 54.0 44.0 52.0 44.0 50.0 44.0 48.0 44.0 46.0 44.0 46.0 42.0 48.0 42.0 48.0 40.0 50.0 40.0 50.0 38.0 52.0 38.0 52.0 40.0 54.0 40.0 54.0 38.0 54.0 32.0 56.0 32.0 56.0 30.0 54.0 30.0 54.0 28.0 52.0 28.0 50.0 28.0 48.0 28.0 48.0 30.0 46.0 30.0 44.0 30.0 44.0 32.0 42.0 32.0 42.0 34.0 42.0 38.0 40.0 38.0 38.0 38.0 38.0 30.0 M82.0 60.0 L82.0 58.0 88.0 58.0 88.0 60.0 92.0 60.0 92.0 62.0 92.0 64.0 94.0 64.0 94.0 66.0 94.0 68.0 94.0 70.0 92.0 70.0 92.0 72.0 88.0 72.0 88.0 70.0 86.0 70.0 84.0 70.0 84.0 68.0 82.0 68.0 82.0 66.0 80.0 66.0 80.0 64.0 80.0 62.0 82.0 62.0 82.0 60.0 M42.0 40.0 L42.0 42.0 40.0 42.0 40.0 40.0 42.0 40.0 M42.0 44.0 L42.0 46.0 40.0 46.0 40.0 44.0 42.0 44.0 M52.0 48.0 L54.0 48.0 54.0 50.0 52.0 50.0 52.0 48.0 M56.0 50.0 L56.0 48.0 58.0 48.0 58.0 50.0 56.0 50.0 M76.0 52.0 L78.0 52.0 80.0 52.0 80.0 54.0 76.0 54.0 74.0 54.0 74.0 52.0 76.0 52.0 M28.0 60.0 L30.0 60.0 30.0 62.0 28.0 62.0 28.0 60.0 M64.0 98.0 L64.0 96.0 66.0 96.0 70.0 96.0 70.0 98.0 70.0 100.0 72.0 100.0 72.0 104.0 74.0 104.0 74.0 108.0 76.0 108.0 76.0 110.0 78.0 110.0 78.0 112.0 82.0 112.0 82.0 114.0 82.0 116.0 78.0 116.0 76.0 116.0 74.0 116.0 74.0 118.0 68.0 118.0 66.0 118.0 66.0 116.0 66.0 114.0 66.0 106.0 66.0 104.0 64.0 104.0 64.0 100.0 64.0 98.0 M76.0 56.0 L76.0 58.0 78.0 58.0 78.0 60.0 76.0 60.0 74.0 60.0 74.0 58.0 72.0 58.0 72.0 56.0 74.0 56.0 76.0 56.0" fill="#feffff" fill-rule="evenodd" stroke="none"/>
    <path d="M92.0 62.0 L94.0 62.0 94.0 64.0 92.0 64.0 92.0 62.0 M94.0 66.0 L96.0 66.0 96.0 68.0 94.0 68.0 94.0 66.0 M80.0 66.0 L82.0 66.0 82.0 68.0 84.0 68.0 84.0 70.0 82.0 70.0 82.0 68.0 80.0 68.0 80.0 66.0 M86.0 70.0 L88.0 70.0 88.0 72.0 86.0 72.0 86.0 70.0 M80.0 60.0 L80.0 62.0 80.0 64.0 78.0 64.0 78.0 62.0 78.0 60.0 80.0 60.0 M52.0 30.0 L54.0 30.0 56.0 30.0 56.0 32.0 54.0 32.0 52.0 32.0 52.0 30.0 M52.0 38.0 L54.0 38.0 54.0 40.0 52.0 40.0 52.0 38.0 M44.0 32.0 L44.0 34.0 42.0 34.0 42.0 32.0 44.0 32.0 M50.0 38.0 L50.0 40.0 48.0 40.0 48.0 38.0 50.0 38.0 M46.0 44.0 L48.0 44.0 48.0 46.0 44.0 46.0 44.0 44.0 42.0 44.0 42.0 42.0 44.0 42.0 44.0 44.0 46.0 44.0 M52.0 44.0 L54.0 44.0 54.0 46.0 52.0 46.0 52.0 44.0 M58.0 46.0 L64.0 46.0 64.0 48.0 60.0 48.0 58.0 48.0 58.0 46.0 M66.0 46.0 L68.0 46.0 68.0 44.0 70.0 44.0 70.0 46.0 68.0 46.0 68.0 48.0 66.0 48.0 66.0 46.0 M70.0 42.0 L70.0 40.0 72.0 40.0 72.0 42.0 70.0 42.0 M40.0 38.0 L40.0 40.0 38.0 40.0 38.0 38.0 40.0 38.0 M38.0 58.0 L40.0 58.0 40.0 60.0 38.0 60.0 38.0 58.0 M42.0 66.0 L40.0 66.0 40.0 64.0 42.0 64.0 42.0 66.0 M62.0 98.0 L64.0 98.0 64.0 100.0 62.0 100.0 62.0 98.0 M66.0 96.0 L66.0 94.0 70.0 94.0 70.0 96.0 66.0 96.0 M30.0 90.0 L30.0 88.0 32.0 88.0 32.0 90.0 30.0 90.0 M34.0 100.0 L34.0 98.0 36.0 98.0 36.0 100.0 34.0 100.0 M64.0 104.0 L66.0 104.0 66.0 106.0 64.0 106.0 64.0 104.0 M66.0 114.0 L66.0 116.0 64.0 116.0 64.0 114.0 66.0 114.0 M74.0 118.0 L74.0 116.0 76.0 116.0 76.0 118.0 74.0 118.0 M32.0 100.0 L32.0 102.0 30.0 102.0 30.0 100.0 32.0 100.0 M28.0 100.0 L28.0 102.0 26.0 102.0 26.0 100.0 28.0 100.0" fill="#d5ddee" fill-rule="evenodd" stroke="none"/>
    <path d="M34.0 78.0 L34.0 76.0 36.0 76.0 36.0 78.0 38.0 78.0 38.0 80.0 40.0 80.0 40.0 82.0 42.0 82.0 42.0 80.0 42.0 78.0 44.0 78.0 44.0 72.0 46.0 72.0 46.0 68.0 44.0 68.0 44.0 66.0 42.0 66.0 42.0 64.0 40.0 64.0 38.0 64.0 38.0 62.0 40.0 62.0 48.0 62.0 48.0 64.0 50.0 64.0 50.0 62.0 54.0 62.0 54.0 60.0 58.0 60.0 58.0 62.0 58.0 64.0 60.0 64.0 60.0 62.0 60.0 56.0 62.0 56.0 62.0 54.0 62.0 52.0 60.0 52.0 60.0 50.0 60.0 48.0 64.0 48.0 64.0 46.0 66.0 46.0 66.0 48.0 68.0 48.0 68.0 46.0 70.0 46.0 70.0 44.0 70.0 42.0 72.0 42.0 74.0 42.0 74.0 44.0 74.0 48.0 72.0 48.0 72.0 54.0 70.0 54.0 70.0 56.0 68.0 56.0 68.0 60.0 66.0 60.0 66.0 64.0 68.0 64.0 68.0 60.0 70.0 60.0 70.0 56.0 72.0 56.0 72.0 58.0 74.0 58.0 74.0 60.0 74.0 62.0 76.0 62.0 76.0 64.0 76.0 66.0 72.0 66.0 72.0 64.0 70.0 64.0 70.0 70.0 68.0 70.0 68.0 72.0 66.0 72.0 66.0 76.0 64.0 76.0 64.0 80.0 62.0 80.0 62.0 82.0 66.0 82.0 66.0 76.0 68.0 76.0 68.0 72.0 70.0 72.0 70.0 70.0 72.0 70.0 72.0 68.0 76.0 68.0 76.0 70.0 78.0 70.0 80.0 70.0 80.0 68.0 82.0 68.0 82.0 70.0 84.0 70.0 86.0 70.0 86.0 72.0 88.0 72.0 92.0 72.0 92.0 70.0 94.0 70.0 94.0 68.0 96.0 68.0 96.0 70.0 94.0 70.0 94.0 74.0 94.0 76.0 92.0 76.0 92.0 80.0 94.0 80.0 94.0 84.0 94.0 88.0 92.0 88.0 92.0 90.0 88.0 90.0 86.0 90.0 86.0 88.0 84.0 88.0 84.0 84.0 82.0 84.0 82.0 80.0 80.0 80.0 80.0 78.0 78.0 78.0 78.0 80.0 74.0 80.0 74.0 82.0 72.0 82.0 70.0 82.0 70.0 78.0 68.0 78.0 68.0 84.0 68.0 92.0 70.0 92.0 70.0 94.0 66.0 94.0 66.0 96.0 64.0 96.0 64.0 98.0 62.0 98.0 62.0 96.0 62.0 94.0 60.0 94.0 60.0 90.0 60.0 82.0 58.0 82.0 58.0 86.0 56.0 86.0 56.0 90.0 54.0 90.0 52.0 90.0 52.0 88.0 50.0 88.0 50.0 86.0 50.0 84.0 48.0 84.0 48.0 82.0 50.0 82.0 50.0 80.0 48.0 80.0 48.0 82.0 46.0 82.0 46.0 84.0 48.0 84.0 48.0 86.0 48.0 90.0 46.0 90.0 46.0 94.0 44.0 94.0 44.0 92.0 42.0 92.0 42.0 90.0 44.0 90.0 44.0 88.0 42.0 88.0 42.0 86.0 42.0 84.0 40.0 84.0 40.0 82.0 38.0 82.0 38.0 84.0 40.0 84.0 40.0 86.0 38.0 86.0 38.0 90.0 38.0 92.0 34.0 92.0 34.0 90.0 32.0 90.0 32.0 88.0 32.0 84.0 34.0 84.0 34.0 78.0 M80.0 64.0 L80.0 66.0 78.0 66.0 78.0 64.0 80.0 64.0 M50.0 28.0 L50.0 30.0 48.0 30.0 48.0 28.0 50.0 28.0 M52.0 32.0 L54.0 32.0 54.0 38.0 52.0 38.0 52.0 32.0 M44.0 34.0 L44.0 38.0 42.0 38.0 42.0 40.0 40.0 40.0 40.0 38.0 42.0 38.0 42.0 34.0 44.0 34.0 M44.0 32.0 L44.0 30.0 46.0 30.0 46.0 32.0 44.0 32.0 M48.0 44.0 L50.0 44.0 50.0 46.0 48.0 46.0 48.0 44.0 M74.0 38.0 L72.0 38.0 72.0 36.0 74.0 36.0 74.0 38.0 M36.0 38.0 L38.0 38.0 38.0 40.0 36.0 40.0 36.0 38.0 M36.0 100.0 L38.0 100.0 38.0 102.0 36.0 102.0 36.0 104.0 34.0 104.0 34.0 102.0 32.0 102.0 32.0 100.0 34.0 100.0 36.0 100.0 M54.0 66.0 L54.0 70.0 58.0 70.0 58.0 68.0 60.0 68.0 60.0 66.0 64.0 66.0 64.0 64.0 60.0 64.0 60.0 66.0 58.0 66.0 58.0 68.0 56.0 68.0 56.0 66.0 56.0 64.0 54.0 64.0 54.0 66.0 M78.0 66.0 L78.0 68.0 76.0 68.0 76.0 66.0 78.0 66.0 M50.0 92.0 L50.0 90.0 52.0 90.0 52.0 92.0 52.0 94.0 50.0 94.0 50.0 92.0 M82.0 114.0 L84.0 114.0 84.0 116.0 82.0 116.0 82.0 120.0 80.0 120.0 80.0 118.0 78.0 118.0 78.0 116.0 82.0 116.0 82.0 114.0 M68.0 118.0 L74.0 118.0 74.0 122.0 68.0 122.0 68.0 120.0 68.0 118.0 M30.0 102.0 L28.0 102.0 28.0 104.0 28.0 106.0 26.0 106.0 26.0 104.0 26.0 102.0 28.0 102.0 28.0 100.0 30.0 100.0 30.0 102.0 M22.0 104.0 L24.0 104.0 24.0 106.0 22.0 106.0 22.0 104.0" fill="#b5b5d6" fill-rule="evenodd" stroke="none"/>
    <path d="M32.0 62.0 L30.0 62.0 30.0 60.0 28.0 60.0 28.0 58.0 28.0 56.0 30.0 56.0 30.0 58.0 30.0 60.0 32.0 60.0 32.0 62.0 M46.0 24.0 L48.0 24.0 48.0 22.0 52.0 22.0 52.0 24.0 48.0 24.0 48.0 26.0 46.0 26.0 46.0 24.0 M54.0 22.0 L62.0 22.0 62.0 24.0 66.0 24.0 66.0 26.0 68.0 26.0 68.0 28.0 64.0 28.0 64.0 26.0 62.0 26.0 62.0 24.0 54.0 24.0 54.0 22.0 M68.0 30.0 L70.0 30.0 70.0 32.0 68.0 32.0 68.0 30.0 M74.0 36.0 L76.0 36.0 76.0 40.0 74.0 40.0 74.0 38.0 74.0 36.0 M76.0 48.0 L78.0 48.0 78.0 50.0 78.0 52.0 76.0 52.0 76.0 50.0 76.0 48.0 M96.0 70.0 L96.0 74.0 94.0 74.0 94.0 70.0 96.0 70.0 M94.0 76.0 L94.0 78.0 94.0 80.0 92.0 80.0 92.0 76.0 94.0 76.0 M94.0 84.0 L96.0 84.0 96.0 86.0 100.0 86.0 100.0 88.0 102.0 88.0 104.0 88.0 104.0 90.0 106.0 90.0 106.0 96.0 108.0 96.0 108.0 102.0 108.0 104.0 108.0 106.0 106.0 106.0 106.0 104.0 104.0 104.0 104.0 102.0 102.0 102.0 102.0 100.0 100.0 100.0 100.0 96.0 98.0 96.0 98.0 94.0 96.0 94.0 92.0 94.0 92.0 92.0 88.0 92.0 88.0 90.0 92.0 90.0 92.0 88.0 94.0 88.0 94.0 84.0 M100.0 106.0 L98.0 106.0 98.0 104.0 98.0 102.0 102.0 102.0 102.0 104.0 100.0 104.0 100.0 106.0 M58.0 48.0 L60.0 48.0 60.0 50.0 58.0 50.0 58.0 48.0 M34.0 50.0 L34.0 52.0 32.0 52.0 32.0 50.0 34.0 50.0 M38.0 74.0 L38.0 72.0 40.0 72.0 40.0 74.0 38.0 74.0 M48.0 86.0 L48.0 84.0 46.0 84.0 46.0 82.0 48.0 82.0 48.0 80.0 50.0 80.0 50.0 82.0 48.0 82.0 48.0 84.0 50.0 84.0 50.0 86.0 48.0 86.0 M50.0 88.0 L52.0 88.0 52.0 90.0 54.0 90.0 54.0 92.0 52.0 92.0 52.0 90.0 50.0 90.0 50.0 92.0 48.0 92.0 48.0 90.0 50.0 90.0 50.0 88.0 M74.0 54.0 L76.0 54.0 76.0 56.0 74.0 56.0 74.0 54.0 M74.0 60.0 L76.0 60.0 76.0 62.0 74.0 62.0 74.0 60.0" fill="#8b8cac" fill-rule="evenodd" stroke="none"/>
    <path d="M54.0 46.0 L56.0 46.0 56.0 48.0 54.0 48.0 54.0 46.0 M38.0 42.0 L40.0 42.0 40.0 44.0 38.0 44.0 38.0 42.0" fill="#7b2931" fill-rule="evenodd" stroke="none"/>
    <path d="M40.0 44.0 L40.0 46.0 40.0 48.0 38.0 48.0 38.0 46.0 38.0 44.0 40.0 44.0 M54.0 48.0 L56.0 48.0 56.0 50.0 54.0 50.0 54.0 48.0 M50.0 52.0 L50.0 50.0 52.0 50.0 54.0 50.0 54.0 52.0 50.0 52.0" fill="#ce2921" fill-rule="evenodd" stroke="none"/>
    <path d="M32.0 48.0 L32.0 46.0 34.0 46.0 38.0 46.0 38.0 48.0 36.0 48.0 36.0 50.0 34.0 50.0 34.0 48.0 32.0 48.0 M60.0 52.0 L62.0 52.0 62.0 54.0 58.0 54.0 58.0 56.0 56.0 56.0 56.0 54.0 56.0 52.0 58.0 52.0 60.0 52.0" fill="#565c7d" fill-rule="evenodd" stroke="none"/>
    <path d="M54.0 50.0 L56.0 50.0 56.0 52.0 54.0 52.0 54.0 50.0" fill="#ff7b73" fill-rule="evenodd" stroke="none"/>
  </g>
</svg>
