<?xml version="1.0" encoding="UTF-8" standalone="no"?>
<svg xmlns:xlink="http://www.w3.org/1999/xlink" height="217.35px" width="206.6px" xmlns="http://www.w3.org/2000/svg">
  <g transform="matrix(1.0, 0.0, 0.0, 1.0, 113.75, 6.4)">
    <path d="M17.55 44.15 L56.0 55.4 Q56.75 56.75 58.5 61.25 L60.6 67.2 Q61.05 69.0 63.25 71.95 L65.8 75.35 67.85 78.55 Q73.2 86.0 81.0 87.8 81.85 88.0 85.5 87.8 89.1 88.0 90.75 90.0 L91.8 97.45 92.25 102.95 Q92.25 107.7 91.6 112.9 91.15 116.45 89.2 122.5 86.55 130.7 78.65 152.0 L75.95 159.05 75.7 159.15 74.85 159.3 Q73.55 159.3 71.8 154.25 L67.35 140.85 Q59.1 117.35 45.85 99.9 L39.65 88.75 Q35.25 80.7 32.0 78.9 L31.45 78.55 24.2 73.4 9.15 62.25 Q6.2 62.25 0.05 69.45 -4.55 74.85 -6.75 76.2 -7.5 76.65 -7.95 76.65 -8.55 76.65 -8.8 76.2 L-9.1 75.15 6.6 57.35 Q10.05 54.15 13.25 49.9 L17.55 44.15 M88.95 48.15 L90.5 48.5 90.95 48.85 Q91.1 50.0 87.6 53.2 83.85 56.55 76.75 61.5 L71.95 64.05 Q71.6 65.35 71.05 65.75 69.55 66.95 65.3 66.95 L63.45 66.65 Q63.05 66.4 63.05 65.55 63.05 61.45 72.7 56.25 78.1 53.35 88.95 48.15 M24.75 204.85 Q19.6 207.4 10.5 208.95 2.0 210.35 -6.7 210.35 -17.35 210.35 -23.2 209.1 -29.9 207.7 -35.2 203.8 -40.35 200.0 -46.85 191.95 -51.5 186.2 -62.2 171.2 -60.3 172.5 -56.85 173.7 -53.0 175.05 -50.45 175.05 -48.85 175.05 -45.85 173.5 -42.65 171.8 -41.25 169.95 L-40.6 168.65 Q-41.05 179.25 -35.5 186.7 L-33.55 189.05 Q-26.8 196.25 -18.3 196.25 -17.35 196.25 -16.25 195.7 -13.65 195.15 -9.55 193.6 -5.0 191.85 -3.8 190.7 5.7 197.15 11.25 198.4 L15.15 199.0 Q17.25 199.3 19.05 200.1 21.35 201.1 21.85 201.45 22.9 202.25 24.75 204.85 M-73.7 145.15 L-78.05 129.15 Q-74.65 128.6 -70.5 126.95 -65.9 125.05 -62.8 122.6 L-63.2 126.6 -62.65 132.15 -61.6 139.2 Q-63.45 138.55 -67.05 139.85 -70.4 141.05 -72.1 142.7 L-73.7 145.15" fill="#a4c9de" fill-rule="evenodd" stroke="none"/>
    <path d="M56.0 55.4 L64.7 42.2 65.05 41.65 65.1 41.6 Q70.15 37.45 72.25 35.95 75.25 33.85 76.6 33.85 77.45 33.85 77.8 34.25 78.25 34.75 78.25 36.15 78.25 37.65 76.35 42.8 74.0 49.3 71.0 53.5 77.35 51.1 83.45 49.45 L88.95 48.15 Q78.1 53.35 72.7 56.25 63.05 61.45 63.05 65.55 63.05 66.4 63.45 66.65 L65.3 66.95 Q69.55 66.95 71.05 65.75 71.6 65.35 71.95 64.05 L76.75 61.5 81.65 60.45 86.5 59.85 89.35 60.15 Q91.2 60.75 91.2 62.55 91.2 64.05 89.3 66.4 L83.5 73.2 Q85.2 75.8 86.55 78.55 89.2 83.95 90.75 90.0 89.1 88.0 85.5 87.8 81.85 88.0 81.0 87.8 73.2 86.0 67.85 78.55 L65.8 75.35 63.25 71.95 Q61.05 69.0 60.6 67.2 L58.5 61.25 Q56.75 56.75 56.0 55.4 M78.65 152.0 L75.75 159.65 75.7 159.7 74.8 160.9 63.45 173.1 Q51.8 185.2 47.3 188.35 36.75 195.7 31.2 200.7 28.3 203.35 24.75 204.85 22.9 202.25 21.85 201.45 21.35 201.1 19.05 200.1 17.25 199.3 15.15 199.0 L11.25 198.4 Q5.7 197.15 -3.8 190.7 0.6 187.75 2.45 186.05 6.75 182.0 8.9 176.7 L10.45 170.25 Q11.35 165.45 11.35 163.85 L11.35 162.35 Q11.15 164.8 7.85 169.75 4.2 175.2 1.15 177.2 -4.95 181.9 -9.2 184.05 -11.35 185.15 -12.3 187.35 L-13.5 191.05 -16.25 195.7 Q-17.35 196.25 -18.3 196.25 -26.8 196.25 -33.55 189.05 L-35.5 186.7 Q-41.05 179.25 -40.6 168.65 L-40.0 166.45 -39.7 164.05 Q-39.7 157.55 -46.2 148.95 -53.5 139.35 -61.6 139.2 L-62.65 132.15 -63.2 126.6 -62.8 122.6 -60.05 120.4 -39.45 120.45 Q-38.6 120.4 -37.45 119.6 L-36.35 118.75 -35.4 117.4 -34.55 116.05 Q-33.1 112.65 -31.9 108.0 L-29.6 99.15 -9.1 75.15 -8.8 76.2 Q-8.55 76.65 -7.95 76.65 -7.5 76.65 -6.75 76.2 -4.55 74.85 0.05 69.45 6.2 62.25 9.15 62.25 L24.2 73.4 31.45 78.55 32.0 78.9 Q35.25 80.7 39.65 88.75 L45.85 99.9 Q59.1 117.35 67.35 140.85 L71.8 154.25 Q73.55 159.3 74.85 159.3 L75.7 159.15 75.95 159.05 78.65 152.0 M11.3 161.7 L11.35 162.35 11.3 161.7 M-8.55 83.9 L-8.6 84.35 Q-10.7 86.65 -12.7 90.95 L-14.4 95.3 Q-13.65 92.3 -11.9 88.9 -9.95 85.15 -8.55 83.9 -9.95 85.15 -11.9 88.9 -13.65 92.3 -14.4 95.3 L-14.7 96.85 Q-15.3 101.55 -15.3 104.2 -15.3 113.35 -13.75 118.0 L-13.25 120.25 -13.0 121.3 Q-11.9 125.4 -10.3 127.4 -8.3 129.9 -4.75 129.9 -0.45 129.9 7.1 125.85 L8.65 124.95 Q13.1 122.3 15.55 121.0 L17.4 120.0 17.3 119.7 Q22.5 115.7 25.1 108.25 27.7 100.8 26.55 93.3 L26.35 91.9 26.4 91.85 Q25.3 82.45 21.25 78.55 L20.65 78.05 Q17.35 75.3 11.15 75.3 6.3 75.3 2.6 76.45 0.05 77.25 -2.2 78.55 L-4.0 79.7 Q-6.45 81.45 -8.55 83.9 M-20.5 169.3 Q-23.1 169.3 -27.85 175.15 -32.4 180.7 -32.4 182.85 L-31.85 184.05 -31.6 184.3 -30.9 184.45 Q-23.4 184.45 -22.0 180.25 -19.95 175.2 -19.0 171.3 -19.05 169.3 -20.5 169.3 M67.45 56.4 L69.15 55.1 71.0 53.5 69.15 55.1 67.45 56.4 M26.4 91.85 L26.55 93.3 26.4 91.85 M76.75 77.95 L79.8 76.05 83.5 73.2 79.8 76.05 76.75 77.95 M75.95 159.05 L75.75 159.65 75.95 159.05" fill="#d6eefb" fill-rule="evenodd" stroke="none"/>
    <path d="M-73.25 110.35 L-72.5 110.1 -72.4 109.35 -59.15 103.95 -55.1 100.7 -47.4 94.1 Q-45.45 92.45 -40.55 89.1 L-35.5 85.75 Q-34.9 85.5 -31.85 80.45 L-30.65 78.55 Q-28.8 75.6 -28.25 75.6 -27.7 75.6 -27.6 75.95 L-27.35 76.2 -28.7 72.45 -28.1 71.5 -28.1 70.65 -24.4 67.35 Q-19.2 62.5 -12.85 53.8 -11.0 51.25 -7.1 42.25 -4.65 36.45 0.0 33.65 L5.95 33.65 17.55 44.15 13.25 49.9 Q10.05 54.15 6.6 57.35 L-9.1 75.15 -29.6 99.15 -31.9 108.0 Q-33.1 112.65 -34.55 116.05 L-35.4 117.4 -36.35 118.75 -37.45 119.6 Q-38.6 120.4 -39.45 120.45 L-60.05 120.4 -62.8 122.6 Q-65.9 125.05 -70.5 126.95 -74.65 128.6 -78.05 129.15 L-87.65 129.15 -90.95 121.85 -89.75 121.45 -89.65 120.75 -89.2 120.4 Q-87.8 119.65 -82.15 118.0 -74.3 115.7 -71.1 115.75 -71.6 115.25 -73.25 110.35 M-27.35 76.2 L-26.75 78.55 Q-26.25 82.15 -27.05 88.05 -27.95 94.85 -29.6 99.15 -27.95 94.85 -27.05 88.05 -26.25 82.15 -26.75 78.55 L-27.35 76.2 M-60.05 120.4 Q-62.65 120.95 -66.5 119.05 -69.75 117.4 -71.1 115.75 -69.75 117.4 -66.5 119.05 -62.65 120.95 -60.05 120.4" fill="#4392b9" fill-rule="evenodd" stroke="none"/>
    <path d="M-90.9 38.1 L-96.0 -2.65 Q-96.0 -3.8 -95.55 -4.4 L-94.2 -5.45 -92.65 -5.25 -61.45 26.15 Q-54.55 31.5 -46.15 43.0 L-42.05 48.85 Q-32.65 62.8 -28.7 72.45 -32.65 62.8 -42.05 48.85 L-46.15 43.0 Q-54.55 31.5 -61.45 26.15 L-63.7 12.05 -66.0 -2.8 Q-66.0 -4.65 -65.05 -5.35 L-63.05 -5.8 Q-62.25 -5.8 -60.1 -4.7 L-47.1 2.5 -46.15 3.05 Q-26.6 14.3 0.0 27.6 L0.0 33.65 Q-4.65 36.45 -7.1 42.25 -11.0 51.25 -12.85 53.8 -19.2 62.5 -24.4 67.35 L-28.1 70.65 -28.1 71.5 -28.7 72.45 -27.35 76.2 -27.6 75.95 Q-27.7 75.6 -28.25 75.6 -28.8 75.6 -30.65 78.55 L-31.85 80.45 Q-34.9 85.5 -35.5 85.75 L-40.55 89.1 Q-45.45 92.45 -47.4 94.1 L-55.1 100.7 -59.15 103.95 -72.4 109.35 -72.5 110.1 -73.25 110.35 Q-77.95 97.9 -84.8 67.35 -90.05 43.95 -90.9 38.1 -90.05 43.95 -84.8 67.35 -77.95 97.9 -73.25 110.35 -71.6 115.25 -71.1 115.75 -74.3 115.7 -82.15 118.0 -87.8 119.65 -89.2 120.4 L-89.65 120.75 -89.75 121.45 -90.95 121.85 Q-99.2 102.4 -103.3 87.7 -107.2 73.85 -109.3 57.4 L-109.8 53.35 -111.9 37.2 -113.15 27.05 Q-113.15 24.25 -110.85 24.25 -107.8 24.25 -102.45 27.5 -95.75 31.55 -90.9 38.1" fill="#51b6e7" fill-rule="evenodd" stroke="none"/>
    <path d="M-13.0 121.3 Q-11.95 124.85 -10.25 126.95 -8.15 129.5 -5.5 129.5 -2.65 129.5 3.95 126.95 L8.65 124.95 7.1 125.85 Q-0.45 129.9 -4.75 129.9 -8.3 129.9 -10.3 127.4 -11.9 125.4 -13.0 121.3 M15.55 121.0 L17.3 119.7 17.4 120.0 15.55 121.0" fill="#2e798d" fill-rule="evenodd" stroke="none"/>
    <path d="M-25.3 175.95 L-26.55 174.65 -25.45 173.5 Q-24.15 172.35 -23.0 171.95 -21.2 174.45 -25.3 175.95 M-0.4 183.25 Q-0.5 184.65 -2.5 185.95 L-6.85 188.8 -6.4 187.35 Q-6.05 186.25 -4.45 185.0 -2.8 183.7 -1.05 183.1 L-0.4 183.25" fill="#ffffff" fill-rule="evenodd" stroke="none"/>
    <path d="M-25.3 175.95 Q-21.2 174.45 -23.0 171.95 -24.15 172.35 -25.45 173.5 L-26.55 174.65 -25.3 175.95 M-20.5 169.3 Q-19.05 169.3 -19.0 171.3 -19.95 175.2 -22.0 180.25 -23.4 184.45 -30.9 184.45 L-31.6 184.3 -31.85 184.05 -32.4 182.85 Q-32.4 180.7 -27.85 175.15 -23.1 169.3 -20.5 169.3" fill="#000000" fill-rule="evenodd" stroke="none"/>
    <path d="M-16.25 195.7 L-13.5 191.05 Q-9.2 186.7 -1.3 181.95 5.35 177.9 8.9 176.7 6.75 182.0 2.45 186.05 0.6 187.75 -3.8 190.7 -5.0 191.85 -9.55 193.6 -13.65 195.15 -16.25 195.7 M-0.4 183.25 L-1.05 183.1 Q-2.8 183.7 -4.45 185.0 -6.05 186.25 -6.4 187.35 L-6.85 188.8 -2.5 185.95 Q-0.5 184.65 -0.4 183.25" fill="#a8b6c9" fill-rule="evenodd" stroke="none"/>
    <path d="M-13.5 191.05 L-12.3 187.35 Q-11.35 185.15 -9.2 184.05 -4.95 181.9 1.15 177.2 4.2 175.2 7.85 169.75 11.15 164.8 11.35 162.35 L11.35 163.85 Q11.35 165.45 10.45 170.25 L8.9 176.7 Q5.35 177.9 -1.3 181.95 -9.2 186.7 -13.5 191.05" fill="#8491a2" fill-rule="evenodd" stroke="none"/>
    <path d="M-61.45 26.15 L-92.65 -5.25 -94.2 -5.45 -95.55 -4.4 Q-96.0 -3.8 -96.0 -2.65 L-90.9 38.1 Q-90.05 43.95 -84.8 67.35 -77.95 97.9 -73.25 110.35 -71.6 115.25 -71.1 115.75 -69.75 117.4 -66.5 119.05 -62.65 120.95 -60.05 120.4 L-62.8 122.6 Q-65.9 125.05 -70.5 126.95 -74.65 128.6 -78.05 129.15 L-87.65 129.15 -90.95 121.85 Q-99.2 102.4 -103.3 87.7 -107.2 73.85 -109.3 57.4 L-109.8 53.35 -111.9 37.2 -113.15 27.05 Q-113.15 24.25 -110.85 24.25 -107.8 24.25 -102.45 27.5 -95.75 31.55 -90.9 38.1 M-27.35 76.2 L-28.7 72.45 Q-32.65 62.8 -42.05 48.85 L-46.15 43.0 Q-54.55 31.5 -61.45 26.15 L-63.7 12.05 -66.0 -2.8 Q-66.0 -4.65 -65.05 -5.35 L-63.05 -5.8 Q-62.25 -5.8 -60.1 -4.7 L-47.1 2.5 -46.15 3.05 Q-26.6 14.3 0.0 27.6 M65.1 41.6 Q70.15 37.45 72.25 35.95 75.25 33.85 76.6 33.85 77.45 33.85 77.8 34.25 78.25 34.75 78.25 36.15 78.25 37.65 76.35 42.8 74.0 49.3 71.0 53.5 77.35 51.1 83.45 49.45 L88.95 48.15 90.5 48.5 90.95 48.85 Q91.1 50.0 87.6 53.2 83.85 56.55 76.75 61.5 L81.65 60.45 86.5 59.85 89.35 60.15 Q91.2 60.75 91.2 62.55 91.2 64.05 89.3 66.4 L83.5 73.2 Q85.2 75.8 86.55 78.55 89.2 83.95 90.75 90.0 L91.8 97.45 92.25 102.95 Q92.25 107.7 91.6 112.9 91.15 116.45 89.2 122.5 86.55 130.7 78.65 152.0 L75.75 159.65 75.7 159.7 74.8 160.9 63.45 173.1 Q51.8 185.2 47.3 188.35 36.75 195.7 31.2 200.7 28.3 203.35 24.75 204.85 19.6 207.4 10.5 208.95 2.0 210.35 -6.7 210.35 -17.35 210.35 -23.2 209.1 -29.9 207.7 -35.2 203.8 -40.35 200.0 -46.85 191.95 -51.5 186.2 -62.2 171.2 -63.6 169.95 -66.4 166.05 L-69.55 161.3 -72.6 154.1 Q-73.75 150.35 -73.7 145.15 L-78.05 129.15 M-29.6 99.15 Q-27.95 94.85 -27.05 88.05 -26.25 82.15 -26.75 78.55 L-27.35 76.2 M-9.1 75.15 L-29.6 99.15 -31.9 108.0 Q-33.1 112.65 -34.55 116.05 L-35.4 117.4 -36.35 118.75 -37.45 119.6 Q-38.6 120.4 -39.45 120.45 L-60.05 120.4 M-61.6 139.2 Q-53.5 139.35 -46.2 148.95 -39.7 157.55 -39.7 164.05 L-40.0 166.45 -40.6 168.65 -41.25 169.95 Q-42.65 171.8 -45.85 173.5 -48.85 175.05 -50.45 175.05 -53.0 175.05 -56.85 173.7 -60.3 172.5 -62.2 171.2 M-16.25 195.7 L-13.5 191.05 -12.3 187.35 Q-11.35 185.15 -9.2 184.05 -4.95 181.9 1.15 177.2 4.2 175.2 7.85 169.75 11.15 164.8 11.35 162.35 L11.3 161.7 M-8.55 83.9 Q-9.95 85.15 -11.9 88.9 -13.65 92.3 -14.4 95.3 L-14.7 96.85 Q-15.3 101.55 -15.3 104.2 -15.3 113.35 -13.75 118.0 L-13.25 120.25 -13.0 121.3 Q-11.95 124.85 -10.25 126.95 -8.15 129.5 -5.5 129.5 -2.65 129.5 3.95 126.95 L8.65 124.95 Q13.1 122.3 15.55 121.0 L17.3 119.7 Q22.5 115.7 25.1 108.25 27.7 100.8 26.55 93.3 L26.4 91.85 Q25.3 82.45 21.25 78.55 L20.65 78.05 Q17.35 75.3 11.15 75.3 6.3 75.3 2.6 76.45 0.05 77.25 -2.2 78.55 L-4.0 79.7 Q-6.45 81.45 -8.55 83.9 M-61.6 139.2 Q-63.45 138.55 -67.05 139.85 -70.4 141.05 -72.1 142.7 L-73.7 145.15 M-16.25 195.7 Q-13.65 195.15 -9.55 193.6 -5.0 191.85 -3.8 190.7 0.6 187.75 2.45 186.05 6.75 182.0 8.9 176.7 L10.45 170.25 Q11.35 165.45 11.35 163.85 L11.35 162.35 M71.0 53.5 L69.15 55.1 67.45 56.4 M71.95 64.05 L76.75 61.5 M83.5 73.2 L79.8 76.05 76.75 77.95 M17.3 119.7 L17.4 120.0 M75.95 159.05 L78.65 152.0 M75.75 159.65 L75.95 159.05 M-9.1 75.15 L6.6 57.35" fill="none" stroke="#4a4f58" stroke-linecap="round" stroke-linejoin="miter-clip" stroke-miterlimit="3.0" stroke-width="1.2000000000000002"/>
    <path d="M-20.5 169.3 Q-19.05 169.3 -19.0 171.3 -19.95 175.2 -22.0 180.25 -23.4 184.45 -30.9 184.45 L-31.6 184.3 -31.85 184.05 -32.4 182.85 Q-32.4 180.7 -27.85 175.15 -23.1 169.3 -20.5 169.3" fill="none" stroke="#000000" stroke-linecap="round" stroke-linejoin="miter-clip" stroke-miterlimit="3.0" stroke-width="1.2000000000000002"/>
  </g>
</svg>
