<?xml version="1.0" encoding="UTF-8" standalone="no"?>
<svg xmlns:xlink="http://www.w3.org/1999/xlink" height="114.0px" width="104.0px" xmlns="http://www.w3.org/2000/svg">
  <g transform="matrix(1.0, 0.0, 0.0, 1.0, -8.0, 0.0)">
    <path d="M90.0 4.0 L92.0 4.0 92.0 10.0 90.0 10.0 90.0 14.0 88.0 14.0 88.0 18.0 86.0 18.0 86.0 14.0 88.0 14.0 88.0 10.0 90.0 10.0 90.0 8.0 90.0 6.0 90.0 4.0 M92.0 20.0 L94.0 20.0 94.0 22.0 92.0 22.0 92.0 24.0 84.0 24.0 84.0 26.0 80.0 26.0 80.0 30.0 78.0 30.0 78.0 34.0 76.0 34.0 76.0 38.0 74.0 38.0 74.0 42.0 72.0 42.0 72.0 44.0 70.0 44.0 70.0 46.0 68.0 46.0 68.0 44.0 70.0 44.0 70.0 42.0 72.0 42.0 72.0 40.0 72.0 38.0 74.0 38.0 74.0 34.0 76.0 34.0 76.0 30.0 78.0 30.0 78.0 26.0 80.0 26.0 80.0 24.0 84.0 24.0 84.0 22.0 92.0 22.0 92.0 20.0 M68.0 48.0 L70.0 48.0 70.0 50.0 68.0 50.0 68.0 52.0 62.0 52.0 62.0 54.0 64.0 54.0 64.0 56.0 66.0 56.0 66.0 58.0 68.0 58.0 68.0 62.0 68.0 66.0 68.0 68.0 66.0 68.0 66.0 66.0 66.0 64.0 66.0 62.0 66.0 60.0 66.0 58.0 64.0 58.0 64.0 56.0 62.0 56.0 62.0 54.0 56.0 54.0 56.0 52.0 60.0 52.0 62.0 52.0 62.0 50.0 68.0 50.0 68.0 48.0 M76.0 64.0 L76.0 66.0 74.0 66.0 74.0 68.0 70.0 68.0 70.0 66.0 74.0 66.0 74.0 64.0 76.0 64.0 M78.0 70.0 L82.0 70.0 82.0 72.0 78.0 72.0 78.0 70.0 M100.0 56.0 L100.0 52.0 106.0 52.0 106.0 50.0 108.0 50.0 108.0 46.0 110.0 46.0 110.0 42.0 110.0 40.0 108.0 40.0 108.0 36.0 106.0 36.0 106.0 38.0 104.0 38.0 104.0 36.0 102.0 36.0 102.0 34.0 104.0 34.0 104.0 36.0 106.0 36.0 106.0 34.0 108.0 34.0 108.0 36.0 110.0 36.0 110.0 40.0 112.0 40.0 112.0 46.0 110.0 46.0 110.0 50.0 108.0 50.0 108.0 52.0 106.0 52.0 106.0 62.0 104.0 62.0 104.0 66.0 102.0 66.0 102.0 68.0 100.0 68.0 100.0 70.0 98.0 70.0 98.0 68.0 100.0 68.0 100.0 66.0 102.0 66.0 102.0 64.0 102.0 62.0 104.0 62.0 104.0 54.0 102.0 54.0 102.0 56.0 100.0 56.0 M98.0 52.0 L96.0 52.0 96.0 50.0 94.0 50.0 94.0 48.0 96.0 48.0 96.0 50.0 98.0 50.0 98.0 52.0 M96.0 70.0 L96.0 72.0 94.0 72.0 94.0 74.0 90.0 74.0 90.0 76.0 88.0 76.0 88.0 74.0 84.0 74.0 84.0 76.0 78.0 76.0 78.0 86.0 80.0 86.0 80.0 104.0 78.0 104.0 78.0 108.0 76.0 108.0 76.0 110.0 74.0 110.0 74.0 108.0 72.0 108.0 72.0 100.0 74.0 100.0 74.0 108.0 76.0 108.0 76.0 104.0 78.0 104.0 78.0 86.0 76.0 86.0 76.0 74.0 78.0 74.0 84.0 74.0 84.0 72.0 88.0 72.0 88.0 74.0 90.0 74.0 90.0 72.0 94.0 72.0 94.0 70.0 96.0 70.0 M72.0 98.0 L70.0 98.0 70.0 96.0 72.0 96.0 72.0 98.0 M70.0 92.0 L68.0 92.0 68.0 90.0 70.0 90.0 70.0 92.0 M66.0 88.0 L64.0 88.0 64.0 100.0 62.0 100.0 62.0 106.0 60.0 106.0 60.0 108.0 56.0 108.0 56.0 106.0 58.0 106.0 60.0 106.0 60.0 100.0 62.0 100.0 62.0 90.0 62.0 86.0 66.0 86.0 66.0 84.0 68.0 84.0 68.0 86.0 66.0 86.0 66.0 88.0 M56.0 100.0 L54.0 100.0 54.0 104.0 52.0 104.0 52.0 108.0 50.0 108.0 50.0 104.0 52.0 104.0 52.0 100.0 54.0 100.0 54.0 98.0 56.0 98.0 56.0 96.0 56.0 92.0 58.0 92.0 58.0 88.0 60.0 88.0 60.0 90.0 60.0 92.0 58.0 92.0 58.0 98.0 56.0 98.0 56.0 100.0 M50.0 110.0 L50.0 112.0 48.0 112.0 48.0 114.0 44.0 114.0 44.0 112.0 48.0 112.0 48.0 110.0 50.0 110.0 M42.0 104.0 L40.0 104.0 40.0 98.0 38.0 98.0 38.0 90.0 36.0 90.0 36.0 84.0 34.0 84.0 34.0 78.0 32.0 78.0 32.0 76.0 30.0 76.0 30.0 78.0 28.0 78.0 28.0 80.0 24.0 80.0 24.0 78.0 28.0 78.0 28.0 76.0 30.0 76.0 30.0 74.0 28.0 74.0 28.0 72.0 30.0 72.0 30.0 74.0 32.0 74.0 32.0 76.0 40.0 76.0 42.0 76.0 42.0 78.0 40.0 78.0 38.0 78.0 36.0 78.0 36.0 84.0 38.0 84.0 38.0 90.0 40.0 90.0 40.0 98.0 42.0 98.0 42.0 104.0 M28.0 70.0 L26.0 70.0 26.0 66.0 24.0 66.0 24.0 68.0 20.0 68.0 20.0 66.0 24.0 66.0 24.0 64.0 26.0 64.0 26.0 66.0 28.0 66.0 28.0 68.0 28.0 70.0 M28.0 60.0 L28.0 58.0 30.0 58.0 30.0 56.0 32.0 56.0 32.0 54.0 34.0 54.0 34.0 52.0 32.0 52.0 32.0 50.0 24.0 50.0 24.0 48.0 22.0 48.0 22.0 46.0 24.0 46.0 24.0 48.0 26.0 48.0 32.0 48.0 32.0 50.0 34.0 50.0 34.0 52.0 36.0 52.0 36.0 54.0 38.0 54.0 40.0 54.0 40.0 56.0 42.0 56.0 42.0 58.0 40.0 58.0 40.0 56.0 36.0 56.0 36.0 54.0 34.0 54.0 34.0 56.0 32.0 56.0 32.0 58.0 30.0 58.0 30.0 60.0 28.0 60.0 M26.0 42.0 L24.0 42.0 24.0 38.0 22.0 38.0 22.0 32.0 20.0 32.0 20.0 24.0 16.0 24.0 16.0 22.0 10.0 22.0 10.0 20.0 8.0 20.0 8.0 18.0 10.0 18.0 10.0 20.0 16.0 20.0 16.0 22.0 18.0 22.0 20.0 22.0 20.0 24.0 22.0 24.0 22.0 32.0 24.0 32.0 24.0 38.0 26.0 38.0 26.0 42.0 M14.0 16.0 L14.0 12.0 12.0 12.0 12.0 8.0 10.0 8.0 10.0 4.0 12.0 4.0 12.0 8.0 14.0 8.0 14.0 12.0 16.0 12.0 16.0 16.0 14.0 16.0 M28.0 4.0 L28.0 12.0 30.0 12.0 30.0 14.0 32.0 14.0 32.0 16.0 30.0 16.0 30.0 14.0 28.0 14.0 28.0 12.0 26.0 12.0 26.0 4.0 28.0 4.0 M34.0 16.0 L36.0 16.0 36.0 18.0 34.0 18.0 34.0 16.0 M38.0 18.0 L42.0 18.0 42.0 20.0 38.0 20.0 38.0 18.0 M44.0 20.0 L48.0 20.0 48.0 22.0 44.0 22.0 44.0 20.0 M78.0 4.0 L80.0 4.0 80.0 8.0 82.0 8.0 82.0 10.0 80.0 10.0 78.0 10.0 78.0 4.0 M56.0 34.0 L58.0 34.0 58.0 36.0 56.0 36.0 56.0 34.0 M60.0 32.0 L62.0 32.0 64.0 32.0 64.0 30.0 66.0 30.0 68.0 30.0 68.0 28.0 70.0 28.0 72.0 28.0 72.0 26.0 74.0 26.0 74.0 30.0 74.0 32.0 72.0 32.0 72.0 34.0 72.0 36.0 70.0 36.0 70.0 38.0 70.0 40.0 68.0 40.0 68.0 42.0 66.0 42.0 64.0 42.0 64.0 38.0 62.0 38.0 62.0 34.0 60.0 34.0 60.0 32.0 M52.0 36.0 L54.0 36.0 54.0 38.0 52.0 38.0 52.0 36.0 M50.0 38.0 L50.0 40.0 42.0 40.0 42.0 38.0 50.0 38.0 M52.0 40.0 L56.0 40.0 56.0 42.0 56.0 44.0 56.0 46.0 54.0 46.0 54.0 48.0 48.0 48.0 48.0 44.0 50.0 44.0 50.0 46.0 52.0 46.0 52.0 44.0 52.0 42.0 52.0 40.0 M42.0 52.0 L48.0 52.0 48.0 54.0 42.0 54.0 42.0 52.0 M26.0 28.0 L28.0 28.0 28.0 30.0 30.0 30.0 30.0 32.0 32.0 32.0 32.0 34.0 34.0 34.0 34.0 36.0 32.0 36.0 30.0 36.0 30.0 40.0 28.0 40.0 28.0 38.0 28.0 36.0 26.0 36.0 26.0 32.0 26.0 28.0 M36.0 36.0 L38.0 36.0 38.0 38.0 36.0 38.0 36.0 36.0 M32.0 42.0 L34.0 42.0 34.0 44.0 36.0 44.0 36.0 42.0 38.0 42.0 38.0 48.0 34.0 48.0 34.0 46.0 32.0 46.0 32.0 44.0 32.0 42.0 M48.0 56.0 L52.0 56.0 52.0 54.0 56.0 54.0 56.0 56.0 52.0 56.0 52.0 58.0 50.0 58.0 48.0 58.0 48.0 56.0 M42.0 74.0 L44.0 74.0 44.0 72.0 46.0 72.0 46.0 74.0 44.0 74.0 44.0 76.0 42.0 76.0 42.0 74.0 M46.0 88.0 L44.0 88.0 44.0 86.0 42.0 86.0 42.0 84.0 44.0 84.0 44.0 86.0 46.0 86.0 46.0 88.0 M62.0 74.0 L64.0 74.0 64.0 76.0 64.0 78.0 68.0 78.0 68.0 74.0 70.0 74.0 70.0 78.0 68.0 78.0 68.0 80.0 64.0 80.0 64.0 78.0 60.0 78.0 60.0 80.0 54.0 80.0 52.0 80.0 52.0 78.0 58.0 78.0 60.0 78.0 60.0 76.0 62.0 76.0 62.0 74.0 M64.0 72.0 L64.0 70.0 66.0 70.0 66.0 72.0 64.0 72.0 M50.0 76.0 L50.0 78.0 48.0 78.0 48.0 76.0 50.0 76.0" fill="#000000" fill-rule="evenodd" stroke="none"/>
    <path d="M88.0 18.0 L92.0 18.0 92.0 20.0 88.0 20.0 88.0 18.0 M68.0 62.0 L70.0 62.0 70.0 60.0 74.0 60.0 74.0 62.0 76.0 62.0 76.0 64.0 74.0 64.0 74.0 62.0 72.0 62.0 70.0 62.0 70.0 64.0 70.0 66.0 68.0 66.0 68.0 62.0 M100.0 52.0 L98.0 52.0 98.0 50.0 100.0 50.0 100.0 52.0 M94.0 48.0 L94.0 46.0 96.0 46.0 96.0 48.0 94.0 48.0 M94.0 44.0 L92.0 44.0 92.0 36.0 96.0 36.0 96.0 38.0 98.0 38.0 98.0 40.0 96.0 40.0 96.0 38.0 94.0 38.0 94.0 44.0 M98.0 36.0 L98.0 34.0 100.0 34.0 100.0 32.0 102.0 32.0 102.0 34.0 100.0 34.0 100.0 36.0 98.0 36.0 M24.0 78.0 L22.0 78.0 22.0 76.0 24.0 76.0 24.0 78.0 M26.0 72.0 L28.0 72.0 28.0 70.0 30.0 70.0 30.0 72.0 28.0 72.0 28.0 74.0 26.0 74.0 26.0 72.0 M20.0 66.0 L18.0 66.0 18.0 64.0 20.0 64.0 20.0 66.0 M22.0 60.0 L24.0 60.0 24.0 62.0 22.0 62.0 22.0 60.0 M26.0 62.0 L26.0 60.0 28.0 60.0 28.0 62.0 28.0 64.0 26.0 64.0 26.0 62.0 M12.0 16.0 L14.0 16.0 14.0 18.0 12.0 18.0 12.0 16.0 M10.0 4.0 L10.0 2.0 14.0 2.0 14.0 4.0 12.0 4.0 10.0 4.0 M16.0 4.0 L18.0 4.0 18.0 6.0 16.0 6.0 16.0 4.0 M20.0 6.0 L22.0 6.0 22.0 8.0 20.0 8.0 20.0 6.0 M22.0 4.0 L22.0 2.0 24.0 2.0 24.0 4.0 22.0 4.0 M26.0 2.0 L28.0 2.0 28.0 4.0 26.0 4.0 26.0 2.0 M32.0 16.0 L34.0 16.0 34.0 18.0 32.0 18.0 32.0 16.0 M36.0 18.0 L38.0 18.0 38.0 20.0 36.0 20.0 36.0 18.0 M42.0 20.0 L44.0 20.0 44.0 22.0 42.0 22.0 42.0 20.0 M48.0 20.0 L52.0 20.0 52.0 18.0 60.0 18.0 60.0 16.0 66.0 16.0 66.0 14.0 70.0 14.0 70.0 12.0 72.0 12.0 72.0 8.0 74.0 8.0 74.0 4.0 76.0 4.0 76.0 2.0 78.0 2.0 78.0 4.0 76.0 4.0 76.0 8.0 74.0 8.0 74.0 12.0 72.0 12.0 72.0 16.0 66.0 16.0 66.0 18.0 60.0 18.0 60.0 20.0 54.0 20.0 52.0 20.0 52.0 22.0 48.0 22.0 48.0 20.0 M82.0 8.0 L84.0 8.0 84.0 6.0 88.0 6.0 88.0 4.0 90.0 4.0 90.0 6.0 88.0 6.0 88.0 8.0 84.0 8.0 84.0 10.0 82.0 10.0 82.0 8.0 M72.0 40.0 L72.0 42.0 70.0 42.0 68.0 42.0 68.0 40.0 70.0 40.0 72.0 40.0 M66.0 62.0 L66.0 64.0 64.0 64.0 64.0 62.0 66.0 62.0 M66.0 68.0 L68.0 68.0 68.0 70.0 66.0 70.0 66.0 68.0 M54.0 36.0 L54.0 34.0 56.0 34.0 56.0 36.0 54.0 36.0 M58.0 34.0 L58.0 32.0 60.0 32.0 60.0 34.0 58.0 34.0 M62.0 32.0 L62.0 30.0 64.0 30.0 64.0 32.0 62.0 32.0 M66.0 30.0 L66.0 28.0 68.0 28.0 68.0 30.0 66.0 30.0 M70.0 28.0 L70.0 26.0 72.0 26.0 72.0 28.0 70.0 28.0 M74.0 26.0 L76.0 26.0 76.0 30.0 74.0 30.0 74.0 26.0 M74.0 32.0 L74.0 34.0 72.0 34.0 72.0 32.0 74.0 32.0 M72.0 36.0 L72.0 38.0 70.0 38.0 70.0 36.0 72.0 36.0 M66.0 42.0 L68.0 42.0 68.0 44.0 66.0 44.0 66.0 42.0 M42.0 38.0 L42.0 40.0 40.0 40.0 38.0 40.0 38.0 38.0 42.0 38.0 M50.0 38.0 L50.0 36.0 52.0 36.0 52.0 38.0 50.0 38.0 M24.0 26.0 L26.0 26.0 26.0 28.0 26.0 32.0 24.0 32.0 24.0 26.0 M34.0 36.0 L36.0 36.0 36.0 38.0 34.0 38.0 34.0 36.0 M26.0 36.0 L28.0 36.0 28.0 38.0 26.0 38.0 26.0 36.0 M52.0 60.0 L54.0 60.0 54.0 62.0 52.0 62.0 52.0 60.0 M38.0 60.0 L40.0 60.0 40.0 62.0 38.0 62.0 38.0 60.0 M44.0 68.0 L42.0 68.0 42.0 66.0 40.0 66.0 40.0 64.0 42.0 64.0 42.0 66.0 44.0 66.0 44.0 68.0 M44.0 72.0 L44.0 70.0 46.0 70.0 46.0 72.0 44.0 72.0 M28.0 74.0 L30.0 74.0 30.0 76.0 28.0 76.0 28.0 74.0 M64.0 74.0 L64.0 72.0 66.0 72.0 68.0 72.0 68.0 74.0 66.0 74.0 64.0 74.0 M62.0 70.0 L62.0 72.0 60.0 72.0 60.0 70.0 62.0 70.0 M48.0 64.0 L50.0 64.0 50.0 66.0 48.0 66.0 48.0 64.0 M48.0 66.0 L48.0 68.0 46.0 68.0 46.0 66.0 48.0 66.0 M46.0 74.0 L48.0 74.0 48.0 76.0 46.0 76.0 46.0 74.0" fill="#422963" fill-rule="evenodd" stroke="none"/>
    <path d="M90.0 6.0 L90.0 8.0 88.0 8.0 88.0 10.0 86.0 10.0 86.0 12.0 84.0 12.0 84.0 14.0 80.0 14.0 80.0 12.0 80.0 10.0 82.0 10.0 84.0 10.0 84.0 8.0 88.0 8.0 88.0 6.0 90.0 6.0 M66.0 60.0 L66.0 62.0 64.0 62.0 64.0 64.0 66.0 64.0 66.0 66.0 64.0 66.0 64.0 70.0 62.0 70.0 60.0 70.0 60.0 72.0 60.0 74.0 56.0 74.0 56.0 76.0 50.0 76.0 48.0 76.0 48.0 74.0 46.0 74.0 46.0 72.0 46.0 70.0 46.0 68.0 48.0 68.0 48.0 66.0 50.0 66.0 52.0 66.0 52.0 64.0 54.0 64.0 54.0 62.0 56.0 62.0 56.0 60.0 58.0 60.0 58.0 58.0 64.0 58.0 64.0 60.0 66.0 60.0 M42.0 20.0 L42.0 22.0 44.0 22.0 48.0 22.0 52.0 22.0 52.0 20.0 54.0 20.0 54.0 22.0 52.0 22.0 52.0 26.0 50.0 26.0 50.0 28.0 48.0 28.0 48.0 30.0 44.0 30.0 44.0 32.0 36.0 32.0 36.0 30.0 32.0 30.0 32.0 28.0 28.0 28.0 28.0 26.0 26.0 26.0 26.0 24.0 24.0 24.0 24.0 22.0 20.0 22.0 20.0 20.0 18.0 20.0 16.0 20.0 10.0 20.0 10.0 18.0 12.0 18.0 14.0 18.0 14.0 16.0 16.0 16.0 16.0 12.0 14.0 12.0 14.0 8.0 12.0 8.0 12.0 4.0 14.0 4.0 14.0 6.0 16.0 6.0 18.0 6.0 18.0 8.0 20.0 8.0 20.0 10.0 22.0 10.0 22.0 8.0 22.0 6.0 24.0 6.0 24.0 4.0 24.0 2.0 26.0 2.0 26.0 4.0 26.0 12.0 28.0 12.0 28.0 14.0 30.0 14.0 30.0 16.0 32.0 16.0 32.0 18.0 34.0 18.0 36.0 18.0 36.0 20.0 38.0 20.0 42.0 20.0 M32.0 58.0 L36.0 58.0 36.0 60.0 38.0 60.0 38.0 62.0 38.0 64.0 40.0 64.0 40.0 66.0 42.0 66.0 42.0 68.0 44.0 68.0 44.0 70.0 42.0 70.0 42.0 72.0 40.0 72.0 40.0 74.0 32.0 74.0 32.0 72.0 30.0 72.0 30.0 70.0 30.0 68.0 28.0 68.0 28.0 66.0 28.0 64.0 28.0 62.0 30.0 62.0 30.0 60.0 32.0 60.0 32.0 58.0 M22.0 62.0 L22.0 64.0 20.0 64.0 20.0 62.0 22.0 62.0 M24.0 74.0 L26.0 74.0 26.0 76.0 24.0 76.0 24.0 74.0 M70.0 64.0 L70.0 62.0 72.0 62.0 72.0 64.0 70.0 64.0 M64.0 76.0 L64.0 74.0 66.0 74.0 66.0 76.0 64.0 76.0" fill="#a473c5" fill-rule="evenodd" stroke="none"/>
    <path d="M94.0 46.0 L94.0 44.0 94.0 38.0 96.0 38.0 96.0 40.0 96.0 42.0 98.0 42.0 98.0 40.0 98.0 38.0 100.0 38.0 100.0 36.0 100.0 34.0 102.0 34.0 102.0 36.0 104.0 36.0 104.0 38.0 104.0 46.0 102.0 46.0 102.0 48.0 96.0 48.0 96.0 46.0 94.0 46.0 M90.0 8.0 L90.0 10.0 88.0 10.0 88.0 14.0 86.0 14.0 86.0 18.0 88.0 18.0 88.0 20.0 92.0 20.0 92.0 22.0 84.0 22.0 80.0 22.0 80.0 24.0 76.0 24.0 76.0 26.0 74.0 26.0 72.0 26.0 70.0 26.0 70.0 28.0 68.0 28.0 66.0 28.0 66.0 30.0 64.0 30.0 62.0 30.0 62.0 32.0 60.0 32.0 58.0 32.0 58.0 34.0 56.0 34.0 54.0 34.0 54.0 36.0 52.0 36.0 50.0 36.0 50.0 38.0 42.0 38.0 38.0 38.0 38.0 36.0 36.0 36.0 34.0 36.0 34.0 34.0 32.0 34.0 32.0 32.0 30.0 32.0 30.0 30.0 28.0 30.0 28.0 28.0 26.0 28.0 26.0 26.0 24.0 26.0 24.0 24.0 22.0 24.0 20.0 24.0 20.0 22.0 18.0 22.0 18.0 20.0 20.0 20.0 20.0 22.0 24.0 22.0 24.0 24.0 26.0 24.0 26.0 26.0 28.0 26.0 28.0 28.0 32.0 28.0 32.0 30.0 36.0 30.0 36.0 32.0 44.0 32.0 44.0 30.0 48.0 30.0 48.0 28.0 50.0 28.0 50.0 26.0 52.0 26.0 52.0 22.0 54.0 22.0 54.0 20.0 60.0 20.0 60.0 18.0 66.0 18.0 66.0 16.0 72.0 16.0 72.0 12.0 74.0 12.0 74.0 8.0 76.0 8.0 76.0 4.0 78.0 4.0 78.0 10.0 78.0 12.0 80.0 12.0 80.0 14.0 84.0 14.0 84.0 12.0 86.0 12.0 86.0 10.0 88.0 10.0 88.0 8.0 90.0 8.0 M62.0 56.0 L64.0 56.0 64.0 58.0 58.0 58.0 58.0 60.0 56.0 60.0 56.0 62.0 54.0 62.0 54.0 60.0 56.0 60.0 56.0 58.0 58.0 58.0 58.0 56.0 62.0 56.0 M66.0 66.0 L66.0 68.0 66.0 70.0 64.0 70.0 64.0 66.0 66.0 66.0 M106.0 38.0 L106.0 36.0 108.0 36.0 108.0 40.0 110.0 40.0 110.0 42.0 108.0 42.0 108.0 40.0 106.0 40.0 106.0 38.0 M36.0 58.0 L38.0 58.0 38.0 60.0 36.0 60.0 36.0 58.0 M32.0 58.0 L32.0 60.0 30.0 60.0 30.0 58.0 32.0 58.0 M28.0 68.0 L30.0 68.0 30.0 70.0 28.0 70.0 28.0 68.0 M30.0 72.0 L32.0 72.0 32.0 74.0 40.0 74.0 40.0 72.0 42.0 72.0 42.0 70.0 44.0 70.0 44.0 72.0 44.0 74.0 42.0 74.0 40.0 74.0 40.0 76.0 32.0 76.0 32.0 74.0 30.0 74.0 30.0 72.0 M24.0 62.0 L24.0 64.0 24.0 66.0 20.0 66.0 20.0 64.0 22.0 64.0 22.0 62.0 24.0 62.0 M26.0 74.0 L28.0 74.0 28.0 76.0 28.0 78.0 24.0 78.0 24.0 76.0 26.0 76.0 26.0 74.0 M70.0 64.0 L72.0 64.0 72.0 62.0 74.0 62.0 74.0 64.0 74.0 66.0 70.0 66.0 70.0 64.0 M64.0 72.0 L62.0 72.0 62.0 74.0 62.0 76.0 60.0 76.0 58.0 76.0 58.0 78.0 52.0 78.0 50.0 78.0 50.0 76.0 56.0 76.0 56.0 74.0 60.0 74.0 60.0 72.0 62.0 72.0 62.0 70.0 64.0 70.0 64.0 72.0 M66.0 74.0 L68.0 74.0 68.0 78.0 64.0 78.0 64.0 76.0 66.0 76.0 66.0 74.0" fill="#8452a4" fill-rule="evenodd" stroke="none"/>
    <path d="M98.0 38.0 L98.0 36.0 100.0 36.0 100.0 38.0 98.0 38.0 M22.0 76.0 L22.0 74.0 24.0 74.0 24.0 72.0 26.0 72.0 26.0 74.0 24.0 74.0 24.0 76.0 22.0 76.0 M18.0 64.0 L18.0 62.0 20.0 62.0 20.0 60.0 22.0 60.0 22.0 62.0 20.0 62.0 20.0 64.0 18.0 64.0 M24.0 62.0 L26.0 62.0 26.0 64.0 28.0 64.0 28.0 66.0 26.0 66.0 26.0 64.0 24.0 64.0 24.0 62.0 M10.0 18.0 L10.0 16.0 12.0 16.0 12.0 18.0 10.0 18.0 M14.0 4.0 L16.0 4.0 16.0 6.0 14.0 6.0 14.0 4.0 M18.0 6.0 L20.0 6.0 20.0 8.0 22.0 8.0 22.0 10.0 20.0 10.0 20.0 8.0 18.0 8.0 18.0 6.0 M22.0 6.0 L22.0 4.0 24.0 4.0 24.0 6.0 22.0 6.0 M24.0 2.0 L24.0 0.0 26.0 0.0 26.0 2.0 24.0 2.0 M84.0 22.0 L84.0 24.0 80.0 24.0 80.0 26.0 78.0 26.0 78.0 30.0 76.0 30.0 76.0 34.0 74.0 34.0 74.0 38.0 72.0 38.0 72.0 40.0 70.0 40.0 70.0 38.0 72.0 38.0 72.0 36.0 72.0 34.0 74.0 34.0 74.0 32.0 74.0 30.0 76.0 30.0 76.0 26.0 76.0 24.0 80.0 24.0 80.0 22.0 84.0 22.0 M70.0 42.0 L70.0 44.0 68.0 44.0 68.0 46.0 66.0 46.0 66.0 44.0 68.0 44.0 68.0 42.0 70.0 42.0 M56.0 54.0 L62.0 54.0 62.0 56.0 58.0 56.0 58.0 58.0 56.0 58.0 56.0 60.0 54.0 60.0 52.0 60.0 52.0 58.0 52.0 56.0 56.0 56.0 56.0 54.0 M64.0 58.0 L66.0 58.0 66.0 60.0 64.0 60.0 64.0 58.0 M104.0 38.0 L106.0 38.0 106.0 40.0 108.0 40.0 108.0 42.0 110.0 42.0 110.0 46.0 108.0 46.0 108.0 50.0 106.0 50.0 106.0 52.0 100.0 52.0 100.0 50.0 98.0 50.0 96.0 50.0 96.0 48.0 102.0 48.0 102.0 46.0 104.0 46.0 104.0 38.0 M98.0 40.0 L98.0 42.0 96.0 42.0 96.0 40.0 98.0 40.0 M78.0 10.0 L80.0 10.0 80.0 12.0 78.0 12.0 78.0 10.0 M22.0 24.0 L24.0 24.0 24.0 26.0 24.0 32.0 22.0 32.0 22.0 24.0 M16.0 20.0 L18.0 20.0 18.0 22.0 16.0 22.0 16.0 20.0 M28.0 38.0 L28.0 40.0 28.0 42.0 26.0 42.0 26.0 38.0 24.0 38.0 24.0 32.0 26.0 32.0 26.0 36.0 26.0 38.0 28.0 38.0 M32.0 58.0 L32.0 56.0 34.0 56.0 34.0 54.0 36.0 54.0 36.0 56.0 40.0 56.0 40.0 58.0 40.0 60.0 38.0 60.0 38.0 58.0 36.0 58.0 32.0 58.0 M30.0 60.0 L30.0 62.0 28.0 62.0 28.0 60.0 30.0 60.0 M44.0 70.0 L44.0 68.0 46.0 68.0 46.0 70.0 44.0 70.0 M40.0 64.0 L38.0 64.0 38.0 62.0 40.0 62.0 40.0 64.0 M40.0 76.0 L40.0 74.0 42.0 74.0 42.0 76.0 40.0 76.0 M62.0 74.0 L62.0 72.0 64.0 72.0 64.0 74.0 62.0 74.0 M58.0 78.0 L58.0 76.0 60.0 76.0 60.0 78.0 58.0 78.0 M50.0 64.0 L52.0 64.0 52.0 62.0 54.0 62.0 54.0 64.0 52.0 64.0 52.0 66.0 50.0 66.0 50.0 64.0" fill="#634a7b" fill-rule="evenodd" stroke="none"/>
    <path d="M84.0 70.0 L86.0 70.0 88.0 70.0 88.0 72.0 84.0 72.0 84.0 74.0 78.0 74.0 78.0 72.0 82.0 72.0 84.0 72.0 84.0 70.0 M68.0 68.0 L68.0 66.0 70.0 66.0 70.0 68.0 74.0 68.0 74.0 70.0 76.0 70.0 76.0 74.0 76.0 86.0 78.0 86.0 78.0 104.0 76.0 104.0 76.0 108.0 74.0 108.0 74.0 100.0 74.0 98.0 72.0 98.0 72.0 96.0 72.0 92.0 70.0 92.0 70.0 90.0 70.0 88.0 68.0 88.0 68.0 86.0 68.0 84.0 66.0 84.0 66.0 86.0 62.0 86.0 60.0 86.0 60.0 84.0 58.0 84.0 58.0 82.0 56.0 82.0 54.0 82.0 54.0 80.0 60.0 80.0 60.0 78.0 64.0 78.0 64.0 80.0 68.0 80.0 68.0 78.0 70.0 78.0 70.0 74.0 68.0 74.0 68.0 72.0 66.0 72.0 66.0 70.0 68.0 70.0 68.0 68.0 M102.0 56.0 L102.0 54.0 104.0 54.0 104.0 62.0 102.0 62.0 102.0 64.0 100.0 64.0 100.0 62.0 102.0 62.0 102.0 56.0 M42.0 50.0 L40.0 50.0 40.0 52.0 38.0 52.0 38.0 50.0 40.0 50.0 40.0 48.0 42.0 48.0 42.0 50.0 M54.0 48.0 L54.0 46.0 56.0 46.0 56.0 44.0 58.0 44.0 58.0 46.0 56.0 46.0 56.0 48.0 54.0 48.0 M44.0 56.0 L48.0 56.0 48.0 58.0 50.0 58.0 50.0 60.0 52.0 60.0 52.0 62.0 52.0 64.0 50.0 64.0 48.0 64.0 44.0 64.0 44.0 62.0 42.0 62.0 42.0 60.0 42.0 58.0 44.0 58.0 44.0 56.0 M38.0 78.0 L38.0 80.0 40.0 80.0 40.0 82.0 40.0 84.0 42.0 84.0 42.0 86.0 44.0 86.0 44.0 88.0 46.0 88.0 46.0 96.0 44.0 96.0 44.0 104.0 42.0 104.0 42.0 98.0 40.0 98.0 40.0 90.0 38.0 90.0 38.0 84.0 36.0 84.0 36.0 78.0 38.0 78.0 M68.0 84.0 L70.0 84.0 70.0 82.0 68.0 82.0 68.0 84.0 M58.0 86.0 L60.0 86.0 60.0 88.0 58.0 88.0 58.0 86.0 M60.0 90.0 L62.0 90.0 62.0 100.0 60.0 100.0 60.0 106.0 58.0 106.0 58.0 100.0 56.0 100.0 56.0 98.0 58.0 98.0 58.0 92.0 60.0 92.0 60.0 90.0 M46.0 84.0 L46.0 82.0 48.0 82.0 48.0 84.0 46.0 84.0" fill="#ce944a" fill-rule="evenodd" stroke="none"/>
    <path d="M90.0 70.0 L92.0 70.0 94.0 70.0 94.0 72.0 90.0 72.0 90.0 74.0 88.0 74.0 88.0 72.0 90.0 72.0 90.0 70.0 M98.0 70.0 L96.0 70.0 96.0 68.0 98.0 68.0 98.0 66.0 100.0 66.0 100.0 64.0 102.0 64.0 102.0 66.0 100.0 66.0 100.0 68.0 98.0 68.0 98.0 70.0 M60.0 52.0 L56.0 52.0 56.0 54.0 52.0 54.0 52.0 56.0 48.0 56.0 44.0 56.0 42.0 56.0 40.0 56.0 40.0 54.0 42.0 54.0 48.0 54.0 48.0 52.0 50.0 52.0 56.0 52.0 56.0 50.0 60.0 50.0 60.0 52.0 M54.0 36.0 L56.0 36.0 58.0 36.0 58.0 34.0 60.0 34.0 60.0 38.0 62.0 38.0 62.0 42.0 64.0 42.0 64.0 44.0 62.0 44.0 62.0 42.0 60.0 42.0 60.0 40.0 58.0 40.0 58.0 42.0 56.0 42.0 56.0 40.0 52.0 40.0 50.0 40.0 50.0 42.0 48.0 42.0 42.0 42.0 42.0 40.0 50.0 40.0 50.0 38.0 52.0 38.0 54.0 38.0 54.0 36.0 M32.0 36.0 L34.0 36.0 34.0 38.0 34.0 40.0 32.0 40.0 32.0 36.0 M30.0 42.0 L30.0 40.0 32.0 40.0 32.0 42.0 30.0 42.0 M36.0 42.0 L36.0 40.0 38.0 40.0 38.0 42.0 36.0 42.0 M32.0 48.0 L34.0 48.0 34.0 50.0 36.0 50.0 36.0 52.0 38.0 52.0 38.0 54.0 36.0 54.0 36.0 52.0 34.0 52.0 34.0 50.0 32.0 50.0 32.0 48.0 M46.0 68.0 L44.0 68.0 44.0 66.0 42.0 66.0 42.0 64.0 40.0 64.0 40.0 62.0 40.0 60.0 42.0 60.0 42.0 62.0 44.0 62.0 44.0 64.0 48.0 64.0 48.0 66.0 46.0 66.0 46.0 68.0 M38.0 78.0 L40.0 78.0 40.0 80.0 38.0 80.0 38.0 78.0 M54.0 80.0 L54.0 82.0 52.0 82.0 52.0 80.0 54.0 80.0 M56.0 82.0 L58.0 82.0 58.0 84.0 60.0 84.0 60.0 86.0 58.0 86.0 58.0 84.0 56.0 84.0 56.0 82.0 M56.0 92.0 L56.0 86.0 58.0 86.0 58.0 88.0 58.0 92.0 56.0 92.0 M48.0 96.0 L48.0 98.0 46.0 98.0 46.0 96.0 48.0 96.0 M46.0 104.0 L46.0 106.0 44.0 106.0 44.0 104.0 46.0 104.0 M54.0 98.0 L54.0 96.0 56.0 96.0 56.0 98.0 54.0 98.0" fill="#e6b563" fill-rule="evenodd" stroke="none"/>
    <path d="M68.0 46.0 L68.0 48.0 66.0 48.0 66.0 46.0 68.0 46.0 M74.0 68.0 L76.0 68.0 76.0 70.0 78.0 70.0 78.0 72.0 78.0 74.0 76.0 74.0 76.0 70.0 74.0 70.0 74.0 68.0 M82.0 70.0 L84.0 70.0 84.0 72.0 82.0 72.0 82.0 70.0 M86.0 70.0 L86.0 68.0 90.0 68.0 90.0 70.0 90.0 72.0 88.0 72.0 88.0 70.0 86.0 70.0 M92.0 70.0 L92.0 68.0 96.0 68.0 96.0 66.0 98.0 66.0 98.0 62.0 100.0 62.0 100.0 56.0 102.0 56.0 102.0 62.0 100.0 62.0 100.0 64.0 100.0 66.0 98.0 66.0 98.0 68.0 96.0 68.0 96.0 70.0 94.0 70.0 92.0 70.0 M72.0 100.0 L72.0 98.0 74.0 98.0 74.0 100.0 72.0 100.0 M70.0 96.0 L70.0 92.0 72.0 92.0 72.0 96.0 70.0 96.0 M68.0 90.0 L68.0 88.0 66.0 88.0 66.0 86.0 68.0 86.0 68.0 88.0 70.0 88.0 70.0 90.0 68.0 90.0 M56.0 106.0 L56.0 100.0 58.0 100.0 58.0 106.0 56.0 106.0 M44.0 112.0 L42.0 112.0 42.0 104.0 44.0 104.0 44.0 96.0 46.0 96.0 46.0 88.0 46.0 86.0 46.0 84.0 48.0 84.0 48.0 96.0 46.0 96.0 46.0 98.0 46.0 104.0 44.0 104.0 44.0 106.0 44.0 112.0 M24.0 46.0 L24.0 44.0 26.0 44.0 26.0 42.0 28.0 42.0 28.0 40.0 30.0 40.0 30.0 36.0 32.0 36.0 32.0 40.0 30.0 40.0 30.0 42.0 28.0 42.0 28.0 44.0 26.0 44.0 26.0 46.0 24.0 46.0 M62.0 50.0 L62.0 52.0 60.0 52.0 60.0 50.0 62.0 50.0 M60.0 34.0 L62.0 34.0 62.0 38.0 64.0 38.0 64.0 42.0 66.0 42.0 66.0 44.0 66.0 46.0 64.0 46.0 64.0 44.0 64.0 42.0 62.0 42.0 62.0 38.0 60.0 38.0 60.0 34.0 M56.0 42.0 L58.0 42.0 58.0 44.0 56.0 44.0 56.0 42.0 M42.0 48.0 L44.0 48.0 44.0 50.0 42.0 50.0 42.0 48.0 M40.0 52.0 L42.0 52.0 42.0 54.0 40.0 54.0 40.0 52.0 M48.0 52.0 L48.0 50.0 50.0 50.0 50.0 52.0 48.0 52.0 M42.0 56.0 L44.0 56.0 44.0 58.0 42.0 58.0 42.0 60.0 40.0 60.0 40.0 58.0 42.0 58.0 42.0 56.0 M52.0 58.0 L52.0 60.0 50.0 60.0 50.0 58.0 52.0 58.0 M42.0 84.0 L40.0 84.0 40.0 82.0 42.0 82.0 42.0 84.0 M50.0 78.0 L52.0 78.0 52.0 80.0 50.0 80.0 50.0 78.0 M60.0 86.0 L62.0 86.0 62.0 90.0 60.0 90.0 60.0 88.0 60.0 86.0 M68.0 84.0 L68.0 82.0 70.0 82.0 70.0 84.0 68.0 84.0" fill="#73523a" fill-rule="evenodd" stroke="none"/>
    <path d="M50.0 40.0 L52.0 40.0 52.0 42.0 50.0 42.0 50.0 44.0 48.0 44.0 48.0 42.0 50.0 42.0 50.0 40.0 M32.0 40.0 L34.0 40.0 36.0 40.0 36.0 42.0 34.0 42.0 32.0 42.0 32.0 40.0" fill="#555556" fill-rule="evenodd" stroke="none"/>
    <path d="M50.0 108.0 L50.0 110.0 48.0 110.0 48.0 112.0 44.0 112.0 44.0 106.0 46.0 106.0 46.0 104.0 46.0 98.0 48.0 98.0 48.0 96.0 48.0 84.0 48.0 82.0 46.0 82.0 46.0 84.0 46.0 86.0 44.0 86.0 44.0 84.0 42.0 84.0 42.0 82.0 40.0 82.0 40.0 80.0 40.0 78.0 42.0 78.0 42.0 76.0 44.0 76.0 44.0 74.0 46.0 74.0 46.0 76.0 48.0 76.0 48.0 78.0 50.0 78.0 50.0 80.0 52.0 80.0 52.0 82.0 54.0 82.0 56.0 82.0 56.0 84.0 58.0 84.0 58.0 86.0 56.0 86.0 56.0 92.0 56.0 96.0 54.0 96.0 54.0 98.0 54.0 100.0 52.0 100.0 52.0 104.0 50.0 104.0 50.0 108.0 M66.0 46.0 L66.0 48.0 68.0 48.0 68.0 50.0 62.0 50.0 60.0 50.0 56.0 50.0 56.0 52.0 50.0 52.0 50.0 50.0 48.0 50.0 48.0 52.0 42.0 52.0 40.0 52.0 40.0 50.0 42.0 50.0 44.0 50.0 44.0 48.0 42.0 48.0 42.0 44.0 40.0 44.0 40.0 40.0 42.0 40.0 42.0 42.0 48.0 42.0 48.0 44.0 48.0 48.0 54.0 48.0 56.0 48.0 56.0 46.0 58.0 46.0 58.0 44.0 58.0 42.0 58.0 40.0 60.0 40.0 60.0 42.0 62.0 42.0 62.0 44.0 64.0 44.0 64.0 46.0 66.0 46.0 M26.0 48.0 L26.0 46.0 30.0 46.0 30.0 44.0 32.0 44.0 32.0 46.0 34.0 46.0 34.0 48.0 38.0 48.0 38.0 50.0 38.0 52.0 36.0 52.0 36.0 50.0 34.0 50.0 34.0 48.0 32.0 48.0 26.0 48.0 M38.0 54.0 L38.0 52.0 40.0 52.0 40.0 54.0 38.0 54.0" fill="#ffde8c" fill-rule="evenodd" stroke="none"/>
    <path d="M40.0 40.0 L40.0 44.0 42.0 44.0 42.0 48.0 40.0 48.0 40.0 50.0 38.0 50.0 38.0 48.0 38.0 42.0 38.0 40.0 36.0 40.0 34.0 40.0 34.0 38.0 36.0 38.0 38.0 38.0 38.0 40.0 40.0 40.0 M28.0 42.0 L30.0 42.0 32.0 42.0 32.0 44.0 30.0 44.0 30.0 46.0 26.0 46.0 26.0 44.0 28.0 44.0 28.0 42.0 M26.0 48.0 L24.0 48.0 24.0 46.0 26.0 46.0 26.0 48.0" fill="#fff7bd" fill-rule="evenodd" stroke="none"/>
    <path d="M52.0 44.0 L52.0 46.0 50.0 46.0 50.0 44.0 52.0 44.0" fill="#999999" fill-rule="evenodd" stroke="none"/>
    <path d="M50.0 44.0 L50.0 42.0 52.0 42.0 52.0 44.0 50.0 44.0 M34.0 42.0 L36.0 42.0 36.0 44.0 34.0 44.0 34.0 42.0" fill="#f7f7de" fill-rule="evenodd" stroke="none"/>
  </g>
</svg>
