<?xml version="1.0" encoding="UTF-8" standalone="no"?>
<svg xmlns:xlink="http://www.w3.org/1999/xlink" height="454.75px" width="875.55px" xmlns="http://www.w3.org/2000/svg">
  <g transform="matrix(1.0, 0.0, 0.0, 1.0, -664.9, -59.35)">
    <path d="M1538.6 448.4 L1538.6 448.8 1538.6 514.1 1111.55 514.1 1092.75 448.8 1092.35 448.4 1538.6 448.4 M665.4 185.7 L665.4 176.8 1025.95 176.8 1017.0 185.7 665.4 185.7 M1092.75 448.8 L1538.6 448.8 1092.75 448.8" fill="#d5c498" fill-rule="evenodd" stroke="none"/>
    <path d="M665.4 142.95 L665.4 59.8 738.4 59.8 738.4 59.85 750.45 59.85 750.55 60.3 Q753.75 71.35 759.65 80.4 776.7 106.3 809.85 106.15 843.9 105.95 860.95 83.5 868.7 73.3 871.9 60.8 L872.15 59.85 899.55 59.85 899.55 59.8 1034.55 59.8 1034.55 142.95 665.4 142.95 M1092.65 59.8 L1538.6 59.85 1538.6 250.6 1092.65 250.6 1092.65 59.8 M1091.85 250.35 L1091.85 250.6 1085.65 250.6 1085.5 250.35 1091.85 250.35 M860.35 78.35 Q855.4 84.7 848.95 89.45 843.9 93.15 838.15 95.8 848.05 91.1 855.9 83.25 L860.35 78.35 M810.3 101.85 L801.25 101.5 Q793.6 100.3 786.4 97.25 783.6 96.05 780.95 94.65 778.1 92.95 775.35 90.85 780.5 94.35 786.35 96.85 797.8 101.7 810.3 101.85 M780.95 94.65 Q783.6 96.05 786.4 97.25 793.6 100.3 801.25 101.5 790.4 100.2 780.95 94.65" fill="#c4b79e" fill-rule="evenodd" stroke="none"/>
    <path d="M1035.35 59.8 L1047.6 59.8 1047.6 142.95 1035.35 142.95 1035.35 59.8 M1079.65 59.8 L1091.85 59.8 1091.85 250.35 1085.5 250.35 1085.65 250.6 1079.65 250.6 1079.65 59.8 M1046.85 168.5 L1047.6 168.5 1047.6 448.35 1034.9 448.35 1034.9 176.8 1036.55 175.75 1046.85 168.5 M1079.65 261.1 L1079.65 261.05 1092.05 261.05 1092.15 261.2 1079.65 261.1 M1079.65 261.45 L1080.65 261.45 1079.65 261.45 1079.65 261.2 1080.65 261.45 1092.2 264.25 1092.2 411.25 1092.2 417.85 1092.2 425.2 1092.2 438.4 1092.2 448.35 1079.65 448.35 1079.65 261.45" fill="#6d4e36" fill-rule="evenodd" stroke="none"/>
    <path d="M1110.7 514.1 L665.45 514.1 665.4 449.2 1092.0 449.2 1092.0 448.9 1092.15 448.95 Q1092.35 449.15 1092.0 449.2 L1110.7 514.1 M995.0 448.35 L665.4 448.35 665.4 448.25 994.95 448.25 994.95 447.8 994.95 447.4 994.95 428.1 994.95 428.05 995.0 428.1 995.0 220.55 994.95 220.55 995.0 220.55 995.0 428.1 994.95 428.05 994.95 427.7 994.95 220.55 994.95 220.15 955.9 220.15 687.35 220.15 665.4 220.15 665.4 186.1 665.4 185.7 1017.0 185.7 1025.95 176.8 1026.25 176.8 1026.4 176.8 1034.9 176.8 1034.9 448.35 995.0 448.35 995.0 447.8 995.0 428.1 994.95 428.1 995.0 428.1 995.0 447.8 995.0 448.35 M665.4 167.65 L665.4 143.8 1047.6 143.8 1047.6 167.65 665.4 167.65 M665.4 186.1 L1017.05 186.1 1026.4 176.8 1017.05 186.1 665.4 186.1 M995.0 447.8 L994.95 447.8 995.0 447.8" fill="#ece6d3" fill-rule="evenodd" stroke="none"/>
    <path d="M1399.75 272.15 L1439.05 272.15 1439.1 272.15 1439.1 400.8 1439.1 401.1 1399.75 401.1 1399.75 400.7 1399.75 272.15 M1395.6 267.7 L1395.6 404.8 1395.6 405.2 1442.05 405.2 1442.05 267.7 1442.0 267.7 1395.6 267.7 M1382.55 267.8 L1336.15 267.8 1336.15 404.9 1336.15 405.3 1382.6 405.3 1382.6 267.8 1382.55 267.8 M1340.3 272.25 L1379.6 272.25 1379.65 272.25 1379.65 400.9 1379.65 401.2 1340.3 401.2 1340.3 400.8 1340.3 272.25 M1329.45 261.45 L1329.8 264.25 1388.95 264.25 1389.0 264.25 1389.25 264.2 1389.25 264.15 1448.4 264.15 1448.45 264.15 1448.45 261.7 Q1448.65 261.7 1448.65 264.15 L1507.8 264.15 1507.85 264.2 1538.6 264.2 1538.6 267.75 1514.2 267.75 1514.2 404.85 1514.2 405.25 1538.6 405.25 1538.6 411.25 1507.8 411.25 1507.85 264.2 1507.8 411.25 1448.4 411.25 1388.95 411.25 1329.45 411.25 1329.45 264.25 1329.45 411.25 1270.3 411.25 1270.3 264.25 1329.45 264.25 1329.45 261.45 M1320.1 272.25 L1320.15 272.25 1320.15 400.9 1320.15 401.2 1280.8 401.2 1280.8 400.8 1280.8 272.25 1320.1 272.25 M1276.65 404.9 L1276.65 405.3 1323.1 405.3 1323.1 267.8 1323.05 267.8 1276.65 267.8 1276.65 404.9 M1389.0 264.25 L1388.95 411.25 1389.0 264.25 M1498.45 272.15 L1498.5 272.15 1498.5 400.8 1498.5 401.1 1459.15 401.1 1459.15 400.7 1459.15 272.15 1498.45 272.15 M1518.35 272.2 L1538.6 272.2 1538.6 401.15 1518.35 401.15 1518.35 400.75 1518.35 272.2 M1048.4 59.8 L1078.8 59.8 1078.8 448.4 1048.4 448.4 1048.4 59.8 M1270.25 261.05 L1270.25 261.35 1092.25 261.35 1092.2 261.2 1092.2 261.05 1270.25 261.05 M1455.0 404.8 L1455.0 405.2 1501.45 405.2 1501.45 267.7 1501.4 267.7 1455.0 267.7 1455.0 404.8 M1448.4 411.25 L1448.45 264.15 1448.4 411.25 M1092.2 411.25 L1092.2 264.25 1092.25 264.25 1151.7 264.25 1211.1 264.25 1270.25 264.25 1270.25 411.25 1211.1 411.25 1211.1 264.25 1211.1 411.25 1151.7 411.25 1092.25 411.25 1092.25 264.25 1092.25 411.25 1092.2 411.25 M1142.15 272.45 L1102.85 272.45 1102.8 272.4 1102.85 272.45 1142.15 272.45 1142.15 401.05 1102.85 401.05 1102.8 401.05 1102.8 272.4 1102.8 272.05 1142.15 272.05 1142.15 272.45 M1098.75 405.15 L1099.15 405.15 1098.75 405.55 1098.75 405.15 1098.75 405.55 1099.15 405.15 1144.9 405.15 1145.2 405.55 1145.2 268.05 1145.15 268.15 1145.2 268.05 1145.2 405.55 1144.9 405.15 1145.15 405.15 1145.15 268.15 1145.15 268.05 1145.15 267.65 1098.7 267.65 1098.7 405.15 1098.75 405.15 M1260.9 272.25 L1221.6 272.25 1221.55 272.2 1221.6 272.25 1260.9 272.25 1260.9 400.8 1221.6 400.8 1221.55 400.8 1221.55 272.2 1221.55 271.85 1260.9 271.85 1260.9 272.0 1260.9 272.25 M1217.45 404.9 L1217.85 404.9 1263.85 404.9 1263.85 404.55 1263.85 267.8 1263.85 267.75 1263.85 267.4 1217.4 267.4 1217.4 404.9 1217.45 404.9 1217.45 405.3 1263.9 405.3 1263.9 267.8 1263.85 267.8 1263.9 267.8 1263.9 405.3 1217.45 405.3 1217.45 404.9 M1217.45 405.3 L1217.85 404.9 1217.45 405.3 M1145.2 268.05 L1145.15 268.05 1145.2 268.05 M1201.55 272.6 L1162.3 272.6 1162.25 272.55 1162.3 272.6 1201.55 272.6 1201.55 401.15 1162.3 401.15 1162.25 401.15 1162.25 272.55 1162.25 272.2 1201.55 272.2 1201.55 272.6 M1158.15 405.3 L1158.55 405.3 1204.35 405.3 1204.6 405.3 1204.6 268.3 1204.6 268.2 1204.6 267.8 1158.1 267.8 1158.1 405.3 1158.15 405.3 1158.15 405.7 1204.65 405.7 1204.65 268.2 1204.6 268.2 1204.65 268.2 1204.65 405.7 1158.15 405.7 1158.15 405.3 M1204.65 268.2 L1204.6 268.3 1204.65 268.2 M1151.7 264.25 L1151.7 411.25 1151.7 264.25 M1221.6 272.25 L1221.6 400.8 1221.6 272.25 M1204.35 405.3 L1204.65 405.7 1204.35 405.3 M1158.15 405.7 L1158.55 405.3 1158.15 405.7 M1162.3 272.6 L1162.3 401.15 1162.3 272.6 M1098.75 405.55 L1145.2 405.55 1098.75 405.55 M1102.85 272.45 L1102.85 401.05 1102.85 272.45" fill="#67462f" fill-rule="evenodd" stroke="none"/>
    <path d="M751.8 59.85 L756.05 59.85 756.75 61.7 Q761.25 72.3 769.45 80.4 777.55 88.6 788.15 93.1 799.1 97.7 811.1 97.7 835.5 97.7 852.75 80.4 860.9 72.3 865.4 61.7 L866.15 59.85 865.4 61.7 Q860.9 72.3 852.75 80.4 835.5 97.7 811.1 97.7 799.1 97.7 788.15 93.1 777.55 88.6 769.45 80.4 761.25 72.3 756.75 61.7 L756.05 59.85 756.7 61.3 Q761.2 71.9 769.4 80.0 777.5 88.2 788.1 92.7 799.05 97.3 811.05 97.3 835.45 97.3 852.7 80.0 860.85 71.9 865.35 61.3 L865.95 59.85 866.15 59.85 870.95 59.85 869.6 63.3 Q868.5 64.7 867.9 65.95 864.7 72.75 860.35 78.35 L855.9 83.25 Q848.05 91.1 838.15 95.8 825.9 101.3 810.3 101.85 797.8 101.7 786.35 96.85 780.5 94.35 775.35 90.85 768.8 85.85 763.0 78.6 756.1 69.95 751.8 59.85" fill="#dfc030" fill-rule="evenodd" stroke="none"/>
    <path d="M756.05 59.85 L763.75 59.85 Q767.5 68.1 774.4 75.0 789.6 90.15 811.05 90.15 832.55 90.15 847.65 75.0 854.6 68.1 858.35 59.85 L865.95 59.85 865.35 61.3 Q860.85 71.9 852.7 80.0 835.45 97.3 811.05 97.3 799.05 97.3 788.1 92.7 777.5 88.2 769.4 80.0 761.2 71.9 756.7 61.3 L756.05 59.85" fill="#9f8c2b" fill-rule="evenodd" stroke="none"/>
    <path d="M763.75 59.85 L770.15 59.85 769.25 60.75 Q768.8 61.45 768.8 62.15 768.8 63.0 769.45 63.75 770.3 64.7 771.75 64.7 773.1 64.7 773.95 63.9 774.8 63.15 774.8 62.05 774.8 61.15 774.2 60.4 L773.7 59.85 782.8 59.85 839.3 59.85 845.1 59.85 844.45 60.8 844.45 61.75 848.85 61.75 848.85 64.5 850.1 64.5 850.1 61.75 851.5 61.75 851.5 60.65 850.1 60.65 850.1 59.85 858.35 59.85 Q854.6 68.1 847.65 75.0 832.55 90.15 811.05 90.15 789.6 90.15 774.4 75.0 767.5 68.1 763.75 59.85 M770.9 59.85 L771.6 59.85 773.4 61.7 773.7 62.65 Q773.7 63.35 773.2 63.8 772.7 64.25 771.9 64.25 771.05 64.25 770.5 63.7 769.95 63.1 769.95 62.1 769.95 61.35 770.3 60.75 L770.9 59.85 M845.8 59.85 L848.85 59.85 848.85 60.65 845.2 60.65 845.8 59.85 M837.3 70.6 L833.6 70.6 831.6 74.65 833.85 75.05 Q834.95 75.5 835.55 76.3 836.15 77.15 836.15 78.05 836.15 79.05 835.45 79.7 834.8 80.4 833.9 80.4 833.3 80.4 832.75 80.0 L832.2 79.7 831.85 79.6 831.45 79.8 831.25 80.15 Q831.25 80.55 831.7 80.85 832.1 81.2 833.05 81.2 L834.85 80.75 835.95 79.95 836.8 78.8 837.15 77.25 Q837.15 75.85 836.1 74.8 834.95 73.6 832.9 73.3 L833.6 71.9 836.7 71.9 837.3 70.6 M782.8 59.85 L785.95 63.45 Q796.35 73.85 811.05 73.85 825.75 73.85 836.1 63.45 L839.3 59.85 836.1 63.45 Q825.75 73.85 811.05 73.85 796.35 73.85 785.95 63.45 L782.8 59.85 M808.75 83.25 L809.75 82.75 810.35 82.6 Q811.35 82.6 811.85 83.55 812.35 84.55 812.35 85.85 812.35 87.0 811.85 87.65 811.3 88.25 810.65 88.25 810.1 88.25 809.7 87.9 809.15 87.4 808.9 86.55 L808.65 84.95 808.75 83.25 M813.55 77.9 L813.1 77.9 Q812.25 77.9 811.3 78.25 810.35 78.6 809.35 79.55 808.3 80.5 807.75 81.8 807.15 83.05 807.15 84.45 807.15 86.6 808.65 88.0 809.35 88.7 810.45 88.7 812.0 88.7 812.95 87.4 813.75 86.3 813.75 85.0 813.75 83.65 812.95 82.8 812.15 81.95 811.1 81.95 810.0 81.95 808.9 82.7 809.15 81.65 809.6 80.9 L810.6 79.5 Q811.25 78.9 811.9 78.6 L813.55 78.2 813.55 77.9 M785.45 70.45 L784.45 72.95 784.65 73.0 Q785.05 72.3 785.7 71.95 L786.9 71.7 789.75 71.7 786.65 81.05 787.55 81.05 791.0 70.75 791.0 70.45 785.45 70.45" fill="#f1f2f2" fill-rule="evenodd" stroke="none"/>
    <path d="M665.4 448.25 L665.4 447.8 665.4 447.4 994.95 447.4 994.95 447.8 994.95 448.25 665.4 448.25 M665.4 427.7 L665.4 410.6 665.4 220.55 665.4 220.15 687.35 220.15 687.35 220.55 665.4 220.55 687.35 220.55 687.35 387.55 687.4 387.55 955.9 387.55 955.9 220.55 955.9 220.15 994.95 220.15 994.95 220.55 955.95 220.55 955.9 220.55 955.95 220.55 994.95 220.55 994.95 427.7 994.6 427.7 665.4 427.7 M994.6 427.7 L955.95 387.95 955.95 220.55 955.95 387.95 994.6 427.7 M687.4 387.55 L687.4 387.95 687.4 387.55 M687.4 387.95 L955.95 387.95 687.4 387.95 665.4 410.6 687.4 387.95 M665.4 447.8 L994.95 447.8 665.4 447.8" fill="#606163" fill-rule="evenodd" stroke="none"/>
    <path d="M665.4 447.4 L665.4 428.1 665.4 427.7 994.6 427.7 994.95 428.05 994.6 427.7 994.95 427.7 994.95 428.05 994.95 428.1 994.95 447.4 665.4 447.4 M955.9 220.15 L955.9 220.55 955.9 387.55 687.4 387.55 687.35 387.55 687.35 220.55 687.4 220.55 687.4 387.55 687.4 220.55 687.35 220.55 687.35 220.15 955.9 220.15 M687.4 220.55 L955.9 220.55 687.4 220.55 M994.95 428.1 L665.4 428.1 994.95 428.1" fill="#4c4c4d" fill-rule="evenodd" stroke="none"/>
    <path d="M1538.6 417.85 L1538.6 418.25 1538.6 425.2 1092.25 425.2 1092.2 425.2 1092.2 417.85 1092.25 417.85 1538.6 417.85 M1538.6 438.4 L1538.6 438.8 1538.6 448.4 1092.35 448.4 1092.25 448.4 1092.2 448.4 1092.2 448.35 1092.2 438.4 1092.25 438.4 1092.25 438.8 1092.25 448.4 1092.25 438.8 1092.25 438.4 1538.6 438.4 M1538.6 418.25 L1092.25 418.25 1092.25 417.85 1092.25 418.25 1538.6 418.25 M1092.25 418.25 L1092.25 425.2 1092.25 418.25 M1092.25 438.8 L1538.6 438.8 1092.25 438.8" fill="#e7e8e9" fill-rule="evenodd" stroke="none"/>
    <path d="M1329.45 411.25 L1388.95 411.25 1448.4 411.25 1507.8 411.25 1538.6 411.25 1540.45 411.25 1540.45 411.65 1538.6 411.65 1538.6 417.85 1092.25 417.85 1092.2 417.85 1092.2 411.25 1092.25 411.25 1151.7 411.25 1151.7 411.65 1211.1 411.65 1211.1 411.25 1270.25 411.25 1270.3 411.25 1270.3 411.65 1538.6 411.65 1270.3 411.65 1270.3 411.25 1329.45 411.25 M1211.1 411.25 L1211.1 411.65 1151.7 411.65 1151.7 411.25 1211.1 411.25 M1211.1 411.65 L1270.3 411.65 1211.1 411.65 M1092.25 411.25 L1092.25 411.65 1092.25 417.85 1092.25 411.65 1092.25 411.25 M1092.25 411.65 L1151.7 411.65 1092.25 411.65" fill="#d2d4d5" fill-rule="evenodd" stroke="none"/>
    <path d="M1538.6 425.2 L1538.6 425.6 1538.6 438.4 1092.25 438.4 1092.25 425.6 1092.25 425.2 1092.25 425.6 1092.25 438.4 1092.2 438.4 1092.2 425.2 1092.25 425.2 1538.6 425.2 M1538.6 425.6 L1092.25 425.6 1538.6 425.6" fill="#bec0c2" fill-rule="evenodd" stroke="none"/>
    <path d="M1538.6 250.6 L1538.6 251.0 1538.6 261.05 1270.25 261.05 1092.2 261.05 1092.05 261.05 1079.65 261.05 1079.65 251.0 1079.65 250.6 1085.65 250.6 1091.85 250.6 1091.85 250.75 1091.95 251.0 1091.95 251.05 1092.45 251.05 1092.55 251.0 1092.65 250.75 1092.65 250.6 1538.6 250.6 M1091.95 251.0 L1079.65 251.0 1091.95 251.0 M1538.6 251.0 L1092.55 251.0 1538.6 251.0" fill="#c59d72" fill-rule="evenodd" stroke="none"/>
    <path d="M1439.05 272.15 L1439.05 271.9 1439.05 271.75 1399.7 271.75 1399.7 272.1 1395.6 267.7 1399.7 272.1 1399.7 400.7 1399.75 400.7 1399.75 401.1 1396.0 404.8 1399.75 401.1 1439.1 401.1 1439.1 400.8 1439.1 272.15 1439.05 272.15 M1395.6 404.8 L1395.6 267.7 1442.0 267.7 1442.0 404.45 1439.1 400.8 1442.0 404.45 1442.0 404.8 1396.0 404.8 1395.6 404.8 M1379.6 272.0 L1379.6 271.85 1340.25 271.85 1340.25 272.2 1336.15 267.8 1340.25 272.2 1340.25 400.8 1340.3 400.8 1340.3 401.2 1379.65 401.2 1379.65 400.9 1379.65 272.25 1379.6 272.25 1379.6 272.0 1382.55 267.8 1379.6 272.0 M1336.15 267.8 L1382.55 267.8 1382.55 404.55 1379.65 400.9 1382.55 404.55 1382.55 404.9 1336.55 404.9 1340.3 401.2 1336.55 404.9 1336.15 404.9 1336.15 267.8 M1439.05 271.9 L1442.0 267.7 1439.05 271.9 M1320.1 272.25 L1320.1 272.0 1323.05 267.8 1320.1 272.0 1320.1 271.85 1280.75 271.85 1280.75 272.2 1276.65 267.8 1280.75 272.2 1280.75 400.8 1280.8 400.8 1280.8 401.2 1320.15 401.2 1320.15 400.9 1320.15 272.25 1320.1 272.25 M1323.05 404.55 L1320.15 400.9 1323.05 404.55 1323.05 404.9 1277.05 404.9 1280.8 401.2 1277.05 404.9 1276.65 404.9 1276.65 267.8 1323.05 267.8 1323.05 404.55 M1498.45 272.15 L1498.45 271.9 1501.4 267.7 1498.45 271.9 1498.45 271.75 1459.1 271.75 1459.1 272.1 1455.0 267.7 1459.1 272.1 1459.1 400.7 1459.15 400.7 1459.15 401.1 1498.5 401.1 1498.5 400.8 1498.5 272.15 1498.45 272.15 M1501.4 404.45 L1498.5 400.8 1501.4 404.45 1501.4 404.8 1455.4 404.8 1455.0 404.8 1455.0 267.7 1501.4 267.7 1501.4 404.45 M1538.6 267.75 L1538.6 271.8 1518.3 271.8 1518.3 272.15 1514.2 267.75 1518.3 272.15 1518.3 400.75 1518.35 400.75 1518.35 401.15 1514.6 404.85 1518.35 401.15 1538.6 401.15 1538.6 404.85 1514.6 404.85 1514.2 404.85 1514.2 267.75 1538.6 267.75 M1455.4 404.8 L1459.15 401.1 1455.4 404.8 M1142.15 272.45 L1142.15 272.05 1102.8 272.05 1102.8 272.4 1098.75 268.05 1098.75 405.15 1098.75 268.05 1102.8 272.4 1102.8 401.05 1102.85 401.05 1102.85 401.45 1099.15 405.15 1102.85 401.45 1102.85 401.05 1142.15 401.05 1142.15 272.45 1142.2 272.45 1145.15 268.15 1142.2 272.45 1142.2 401.45 1144.9 405.15 1142.2 401.45 1102.85 401.45 1142.2 401.45 1142.2 272.45 1142.15 272.45 M1099.15 405.15 L1098.75 405.15 1098.7 405.15 1098.7 267.65 1145.15 267.65 1145.15 268.05 1145.15 268.15 1145.15 405.15 1144.9 405.15 1099.15 405.15 M1260.9 272.25 L1260.9 272.0 1260.9 271.85 1221.55 271.85 1221.55 272.2 1217.45 267.8 1217.45 404.9 1217.45 267.8 1221.55 272.2 1221.55 400.8 1221.6 400.8 1221.6 401.2 1217.85 404.9 1221.6 401.2 1221.6 400.8 1260.9 400.8 1260.95 400.9 1260.95 272.25 1260.9 272.25 1260.95 272.25 1260.95 400.9 1263.85 404.55 1263.85 404.9 1217.85 404.9 1217.45 404.9 1217.4 404.9 1217.4 267.4 1263.85 267.4 1263.85 267.75 1263.85 267.8 1263.85 404.55 1260.95 400.9 1260.95 401.2 1221.6 401.2 1260.95 401.2 1260.95 400.9 1260.9 400.8 1260.9 272.25 M1260.9 272.0 L1263.85 267.8 1263.85 267.75 1263.85 267.8 1260.9 272.0 M1263.85 267.8 L1217.45 267.8 1263.85 267.8 M1201.55 272.6 L1201.55 272.2 1162.25 272.2 1162.25 272.55 1158.15 268.2 1158.15 405.3 1158.15 268.2 1162.25 272.55 1162.25 401.15 1162.3 401.15 1162.3 401.55 1158.55 405.3 1162.3 401.55 1162.3 401.15 1201.55 401.15 1201.55 272.6 1201.6 272.6 1204.6 268.3 1201.6 272.6 1201.6 401.55 1204.35 405.3 1201.6 401.55 1201.6 272.6 1201.55 272.6 M1158.55 405.3 L1158.15 405.3 1158.1 405.3 1158.1 267.8 1204.6 267.8 1204.6 268.2 1204.6 268.3 1204.6 405.3 1204.35 405.3 1158.55 405.3 M1204.6 268.2 L1158.15 268.2 1204.6 268.2 M1145.15 268.05 L1098.75 268.05 1145.15 268.05 M1162.3 401.55 L1201.6 401.55 1162.3 401.55" fill="#49382f" fill-rule="evenodd" stroke="none"/>
    <path d="M1111.55 514.1 L1110.7 514.1 1092.0 449.2 Q1092.35 449.15 1092.15 448.95 L1092.0 448.9 1092.0 449.2 665.4 449.2 665.4 448.4 995.0 448.4 1047.6 448.4 1047.6 448.35 1047.6 168.5 1046.85 168.5 1034.7 168.5 1034.2 168.5 665.4 168.5 665.4 167.65 1047.6 167.65 1047.6 143.8 665.4 143.8 665.4 142.95 1034.55 142.95 1034.55 59.8 1035.35 59.8 1035.35 142.95 1047.6 142.95 1047.6 59.8 1048.4 59.8 1048.4 448.4 1078.8 448.4 1078.8 59.8 1079.65 59.8 1079.65 250.6 1079.65 251.0 1079.65 261.05 1079.65 261.1 1079.65 261.2 1079.65 261.45 1079.65 448.35 1079.65 448.4 1092.2 448.4 1092.25 448.4 1092.35 448.4 1092.75 448.8 1111.55 514.1 M770.15 59.85 L770.9 59.85 770.3 60.75 Q769.95 61.35 769.95 62.1 769.95 63.1 770.5 63.7 771.05 64.25 771.9 64.25 772.7 64.25 773.2 63.8 773.7 63.35 773.7 62.65 L773.4 61.7 771.6 59.85 773.7 59.85 774.2 60.4 Q774.8 61.15 774.8 62.05 774.8 63.15 773.95 63.9 773.1 64.7 771.75 64.7 770.3 64.7 769.45 63.75 768.8 63.0 768.8 62.15 768.8 61.45 769.25 60.75 L770.15 59.85 M845.1 59.85 L845.8 59.85 845.2 60.65 848.85 60.65 848.85 59.85 850.1 59.85 850.1 60.65 851.5 60.65 851.5 61.75 850.1 61.75 850.1 64.5 848.85 64.5 848.85 61.75 844.45 61.75 844.45 60.8 845.1 59.85 M1091.85 59.8 L1092.65 59.8 1092.65 250.6 1092.65 250.75 1092.55 251.0 1092.45 251.05 1091.95 251.05 1091.95 251.0 1091.85 250.75 1091.85 250.6 1091.85 250.35 1091.85 59.8 M837.3 70.6 L836.7 71.9 833.6 71.9 832.9 73.3 Q834.95 73.6 836.1 74.8 837.15 75.85 837.15 77.25 L836.8 78.8 835.95 79.95 834.85 80.75 833.05 81.2 Q832.1 81.2 831.7 80.85 831.25 80.55 831.25 80.15 L831.45 79.8 831.85 79.6 832.2 79.7 832.75 80.0 Q833.3 80.4 833.9 80.4 834.8 80.4 835.45 79.7 836.15 79.05 836.15 78.05 836.15 77.15 835.55 76.3 834.95 75.5 833.85 75.05 L831.6 74.65 833.6 70.6 837.3 70.6 M813.55 77.9 L813.55 78.2 811.9 78.6 Q811.25 78.9 810.6 79.5 L809.6 80.9 Q809.15 81.65 808.9 82.7 810.0 81.95 811.1 81.95 812.15 81.95 812.95 82.8 813.75 83.65 813.75 85.0 813.75 86.3 812.95 87.4 812.0 88.7 810.45 88.7 809.35 88.7 808.65 88.0 807.15 86.6 807.15 84.45 807.15 83.05 807.75 81.8 808.3 80.5 809.35 79.55 810.35 78.6 811.3 78.25 812.25 77.9 813.1 77.9 L813.55 77.9 M808.75 83.25 L808.65 84.95 808.9 86.55 Q809.15 87.4 809.7 87.9 810.1 88.25 810.65 88.25 811.3 88.25 811.85 87.65 812.35 87.0 812.35 85.85 812.35 84.55 811.85 83.55 811.35 82.6 810.35 82.6 L809.75 82.75 808.75 83.25 M785.45 70.45 L791.0 70.45 791.0 70.75 787.55 81.05 786.65 81.05 789.75 71.7 786.9 71.7 785.7 71.95 Q785.05 72.3 784.65 73.0 L784.45 72.95 785.45 70.45" fill="#373535" fill-rule="evenodd" stroke="none"/>
    <path d="M1388.95 261.4 L1388.95 264.25 1388.95 261.4 1406.4 261.35 1448.4 261.35 1448.4 264.15 1448.4 261.35 1507.8 261.35 1507.8 264.15 1507.8 261.35 1522.95 261.35 1538.6 261.4 1538.6 264.2 1507.85 264.2 1507.8 264.15 1448.65 264.15 Q1448.65 261.7 1448.45 261.7 L1448.45 264.15 1448.4 264.15 1389.25 264.15 1389.25 264.2 1389.0 264.25 1388.95 264.25 1329.8 264.25 1329.45 261.45 1329.45 264.25 1270.3 264.25 1270.25 264.25 1211.1 264.25 1211.1 261.45 1270.3 261.45 1270.3 264.25 1270.3 261.45 1211.1 261.45 1211.1 264.25 1151.7 264.25 1151.7 261.45 1211.1 261.45 1151.7 261.45 1151.7 264.25 1092.25 264.25 1092.2 264.25 1080.65 261.45 1079.65 261.2 1079.65 261.1 1092.15 261.2 1092.2 261.2 1092.25 261.35 1270.25 261.35 1275.85 261.4 1329.45 261.45 1388.95 261.4 M1080.65 261.45 L1092.25 261.45 1092.25 264.25 1092.25 261.45 1080.65 261.45 M1270.3 261.45 L1275.85 261.4 1270.3 261.45 M1151.7 261.45 L1092.25 261.45 1151.7 261.45" fill="#352922" fill-rule="evenodd" stroke="none"/>
    <path d="M665.4 176.8 L665.4 168.5 1034.2 168.5 1026.25 176.8 1025.95 176.8 665.4 176.8" fill="#b1a37e" fill-rule="evenodd" stroke="none"/>
    <path d="M1034.2 168.5 L1034.7 168.5 1046.85 168.5 1036.55 175.75 1034.9 176.8 1026.4 176.8 1026.25 176.8 1034.2 168.5 M1034.7 168.5 L1026.4 176.8 1034.7 168.5" fill="#aaa598" fill-rule="evenodd" stroke="none"/>
    <path d="M750.45 59.85 L751.25 59.85 751.8 59.85 Q756.1 69.95 763.0 78.6 768.8 85.85 775.35 90.85 778.1 92.95 780.95 94.65 790.4 100.2 801.25 101.5 L810.3 101.85 Q825.9 101.3 838.15 95.8 843.9 93.15 848.95 89.45 855.4 84.7 860.35 78.35 864.7 72.75 867.9 65.95 868.5 64.7 869.6 63.3 L869.55 63.45 Q864.75 74.85 855.95 83.65 847.2 92.4 835.8 97.25 824.0 102.25 811.1 102.25 L801.25 101.5 811.1 102.25 Q824.0 102.25 835.8 97.25 847.2 92.4 855.95 83.65 864.75 74.85 869.55 63.45 L869.6 63.3 870.95 59.85 872.15 59.85 871.9 60.8 Q868.7 73.3 860.95 83.5 843.9 105.95 809.85 106.15 776.7 106.3 759.65 80.4 753.75 71.35 750.55 60.3 L750.45 59.85 M751.25 59.85 L752.65 63.45 Q757.45 74.85 766.2 83.65 772.85 90.25 780.95 94.65 772.85 90.25 766.2 83.65 757.45 74.85 752.65 63.45 L751.25 59.85" fill="#737477" fill-rule="evenodd" stroke="none"/>
    <path d="M1388.95 261.4 L1329.45 261.45 1329.45 264.25 1329.45 411.25 M1406.4 261.35 L1388.95 261.4 M1388.95 411.25 L1389.0 264.25 M995.0 448.4 L995.0 448.35 995.0 447.8 995.0 428.1 995.0 220.55 994.95 220.55 955.95 220.55 955.95 387.95 994.6 427.7 994.95 428.05 995.0 428.1 994.95 428.1 665.4 428.1 M1275.85 261.4 L1329.45 261.45 M1507.85 264.2 L1507.8 411.25 M1448.45 264.15 L1448.4 411.25 M1026.4 176.8 L1017.05 186.1 665.4 186.1 M1026.4 176.8 L1034.7 168.5 M1079.65 251.0 L1091.95 251.0 M1080.65 261.45 L1079.65 261.45 M1092.25 264.25 L1092.25 261.45 1080.65 261.45 M955.9 220.55 L955.95 220.55 M1270.3 411.25 L1270.3 264.25 1270.3 261.45 1211.1 261.45 1211.1 264.25 1211.1 411.25 1211.1 411.65 1151.7 411.65 1092.25 411.65 1092.25 411.25 1092.25 264.25 M1275.85 261.4 L1270.3 261.45 M1211.1 261.45 L1151.7 261.45 1151.7 264.25 1151.7 411.25 1151.7 411.65 M1092.25 261.45 L1151.7 261.45 M839.3 59.85 L836.1 63.45 Q825.75 73.85 811.05 73.85 796.35 73.85 785.95 63.45 L782.8 59.85 M687.35 220.55 L665.4 220.55 M687.4 387.55 L687.4 220.55 687.35 220.55 M955.9 220.55 L687.4 220.55 M687.4 387.95 L687.4 387.55 M955.95 387.95 L687.4 387.95 M1270.3 411.25 L1270.3 411.65 1538.6 411.65 M1270.3 411.65 L1211.1 411.65 M1092.25 417.85 L1092.25 411.65 M1092.25 417.85 L1092.25 418.25 1538.6 418.25 M1092.25 438.4 L1092.25 425.6 1092.25 425.2 1092.25 418.25 M1092.25 448.4 L1092.25 438.8 1092.25 438.4 M994.95 447.8 L995.0 447.8 M994.95 447.8 L665.4 447.8 M1538.6 438.8 L1092.25 438.8 M1538.6 448.8 L1092.75 448.8 M1092.55 251.0 L1538.6 251.0 M1092.25 425.6 L1538.6 425.6" fill="none" stroke="#373535" stroke-linecap="butt" stroke-linejoin="miter-clip" stroke-miterlimit="10.0" stroke-width="1.0"/>
    <path d="M1399.7 272.1 L1399.75 272.15 1439.05 272.15 1439.1 272.15 1439.1 400.8 1442.0 404.45 M1399.7 272.1 L1395.6 267.7 1395.6 404.8 1395.6 405.2 1442.05 405.2 1442.05 267.7 1442.0 267.7 1439.05 271.9 M1396.0 404.8 L1399.75 401.1 1399.75 400.7 1399.75 272.15 M1379.6 272.0 L1382.55 267.8 1336.15 267.8 1340.25 272.2 1340.3 272.25 1379.6 272.25 1379.65 272.25 1379.65 400.9 1382.55 404.55 M1382.55 267.8 L1382.6 267.8 1382.6 405.3 1336.15 405.3 1336.15 404.9 1336.15 267.8 M1388.95 264.25 L1388.95 261.4 M1448.4 264.15 L1448.4 261.35 1406.4 261.35 M1507.8 264.15 L1507.8 261.35 1448.4 261.35 M1395.6 267.7 L1442.0 267.7 M1320.1 272.25 L1320.15 272.25 1320.15 400.9 1323.05 404.55 M1323.05 267.8 L1320.1 272.0 M1280.75 272.2 L1280.8 272.25 1320.1 272.25 M1323.05 267.8 L1323.1 267.8 1323.1 405.3 1276.65 405.3 1276.65 404.9 1276.65 267.8 1323.05 267.8 M1498.45 272.15 L1498.5 272.15 1498.5 400.8 1501.4 404.45 M1501.4 267.7 L1498.45 271.9 M1459.1 272.1 L1459.15 272.15 1498.45 272.15 M1538.6 261.4 L1522.95 261.35 1507.8 261.35 M1538.6 267.75 L1514.2 267.75 1518.3 272.15 1518.35 272.2 1538.6 272.2 M1514.6 404.85 L1514.2 405.25 1538.6 405.25 M1501.4 267.7 L1501.45 267.7 1501.45 405.2 1455.0 405.2 1455.0 404.8 1455.0 267.7 1501.4 267.7 M1455.0 267.7 L1459.1 272.1 M1459.15 400.7 L1459.15 272.15 M1518.35 401.15 L1518.35 400.75 1518.35 272.2 M1514.2 404.85 L1514.2 405.25 M1514.6 404.85 L1518.35 401.15 1538.6 401.15 M1498.5 400.8 L1498.5 401.1 1459.15 401.1 1455.4 404.8 1455.0 405.2 M1459.15 401.1 L1459.15 400.7 M1439.1 400.8 L1439.1 401.1 1399.75 401.1 M1396.0 404.8 L1395.6 405.2 M1379.65 400.9 L1379.65 401.2 1340.3 401.2 1336.55 404.9 1336.15 405.3 M1340.3 401.2 L1340.3 400.8 1340.3 272.25 M1320.15 400.9 L1320.15 401.2 1280.8 401.2 1277.05 404.9 1276.65 405.3 M1514.2 404.85 L1514.2 267.75 M1102.8 272.4 L1102.85 272.45 1142.15 272.45 1142.2 272.45 1142.2 401.45 1102.85 401.45 1102.85 401.05 1102.85 272.45 M1102.8 272.4 L1098.75 268.05 1098.75 405.15 1098.75 405.55 1099.15 405.15 1102.85 401.45 M1221.55 272.2 L1221.6 272.25 1260.9 272.25 1260.95 272.25 1260.95 400.9 1263.85 404.55 M1221.55 272.2 L1217.45 267.8 1217.45 404.9 1217.45 405.3 1263.9 405.3 1263.9 267.8 1263.85 267.8 1260.9 272.0 M1217.85 404.9 L1221.6 401.2 1221.6 400.8 1221.6 272.25 M1276.65 267.8 L1280.75 272.2 M1280.8 400.8 L1280.8 272.25 M1217.85 404.9 L1217.45 405.3 M1263.85 267.75 L1263.85 267.8 1217.45 267.8 M1144.9 405.15 L1145.2 405.55 1145.2 268.05 1145.15 268.15 1142.2 272.45 M1144.9 405.15 L1142.2 401.45 M1145.15 268.05 L1145.2 268.05 M1162.25 272.55 L1162.3 272.6 1201.55 272.6 1201.6 272.6 1201.6 401.55 1204.35 405.3 1204.65 405.7 1158.15 405.7 1158.15 405.3 1158.15 268.2 1204.6 268.2 1204.65 268.2 1204.65 405.7 M1162.25 272.55 L1158.15 268.2 M1158.55 405.3 L1162.3 401.55 1162.3 401.15 1162.3 272.6 M1204.6 268.3 L1204.65 268.2 M1204.6 268.3 L1201.6 272.6 M1098.75 268.05 L1145.15 268.05 M1280.8 401.2 L1280.8 400.8 M1260.95 400.9 L1260.95 401.2 1221.6 401.2 M1260.95 400.9 L1260.9 400.8 M1158.55 405.3 L1158.15 405.7 M1201.6 401.55 L1162.3 401.55 M1145.2 405.55 L1098.75 405.55" fill="none" stroke="#373535" stroke-linecap="round" stroke-linejoin="bevel" stroke-width="1.0"/>
    <path d="M687.4 387.95 L665.4 410.6" fill="none" stroke="#373535" stroke-linecap="round" stroke-linejoin="miter-clip" stroke-miterlimit="10.0" stroke-width="1.0"/>
    <path d="M1034.55 59.8 L1035.35 59.8 M1047.6 59.8 L1048.4 59.8 M1078.8 59.8 L1079.65 59.8 M1091.85 59.8 L1092.65 59.8" fill="none" stroke="#4a4f58" stroke-linecap="round" stroke-linejoin="round" stroke-width="0.1"/>
    <path d="M801.25 101.5 L811.1 102.25 Q824.0 102.25 835.8 97.25 847.2 92.4 855.95 83.65 864.75 74.85 869.55 63.45 L869.6 63.3 870.95 59.85 M866.15 59.85 L865.4 61.7 Q860.9 72.3 852.75 80.4 835.5 97.7 811.1 97.7 799.1 97.7 788.15 93.1 777.55 88.6 769.45 80.4 761.25 72.3 756.75 61.7 L756.05 59.85 M780.95 94.65 Q772.85 90.25 766.2 83.65 757.45 74.85 752.65 63.45 L751.25 59.85 M801.25 101.5 Q793.6 100.3 786.4 97.25 783.6 96.05 780.95 94.65" fill="none" stroke="#373535" stroke-linecap="round" stroke-linejoin="round" stroke-width="1.0"/>
    <path d="M1034.55 168.2 L1034.8 167.9 1035.3 167.9 1035.35 168.2 1035.35 448.35 1091.85 448.35 1091.85 261.45 1092.25 261.3 1092.65 261.7 1092.65 448.75 1092.25 449.15 1034.95 449.15 1034.65 448.9 1034.55 448.75 1034.55 168.2" fill="#373535" fill-rule="evenodd" stroke="none"/>
  </g>
</svg>
