<?xml version="1.0" encoding="UTF-8" standalone="no"?>
<svg xmlns:xlink="http://www.w3.org/1999/xlink" height="118.75px" width="435.1px" xmlns="http://www.w3.org/2000/svg">
  <g transform="matrix(1.0, 0.0, 0.0, 1.0, 261.8, 59.35)">
    <path d="M-260.25 -10.55 Q-208.1 -26.65 -161.1 -58.75 L-161.0 -58.75 -115.15 -2.0 -115.2 -2.0 Q-181.65 -19.7 -260.25 -10.55" fill="#1e7fae" fill-rule="evenodd" stroke="none"/>
    <path d="M170.75 -8.8 Q175.9 5.0 170.75 17.5 30.5 38.05 -65.9 53.85 -122.8 61.7 -160.9 57.1 L-115.2 -2.0 -115.15 -2.0 Q-95.5 3.35 -70.7 7.35 23.85 11.5 170.75 -8.8" fill="#a4c9de" fill-rule="evenodd" stroke="none"/>
    <path d="M-161.0 -58.75 Q-125.25 -44.9 -69.6 -34.65 28.1 -13.95 170.75 -8.8 23.85 11.5 -70.7 7.35 -95.5 3.35 -115.15 -2.0 L-161.0 -58.75" fill="#d6eefb" fill-rule="evenodd" stroke="none"/>
    <path d="M-160.9 57.1 Q-203.75 18.8 -260.25 -10.55 -181.65 -19.7 -115.2 -2.0 L-160.9 57.1" fill="#2e6088" fill-rule="evenodd" stroke="none"/>
    <path d="M-260.25 -10.55 Q-208.1 -26.65 -161.1 -58.75 L-161.0 -58.75 Q-125.25 -44.9 -69.6 -34.65 28.1 -13.95 170.75 -8.8 M170.75 17.5 Q30.5 38.05 -65.9 53.85 -122.8 61.7 -160.9 57.1 -203.75 18.8 -260.25 -10.55 M-115.2 -2.0 L-115.15 -2.0 -161.0 -58.75 M-115.2 -2.0 L-160.9 57.1" fill="none" stroke="#4a4f58" stroke-linecap="round" stroke-linejoin="miter-clip" stroke-miterlimit="3.0" stroke-width="1.2000000000000002"/>
  </g>
</svg>
