<?xml version="1.0" encoding="UTF-8" standalone="no"?>
<svg xmlns:xlink="http://www.w3.org/1999/xlink" height="101.4px" width="890.55px" xmlns="http://www.w3.org/2000/svg">
  <g transform="matrix(1.0, 0.0, 0.0, 1.0, 180.25, 71.95)">
    <path d="M-142.9 7.95 L-142.9 18.2 664.5 18.2 664.5 28.95 -142.95 28.95 -142.95 7.95 -142.9 7.95" fill="#6d4e36" fill-rule="evenodd" stroke="none"/>
    <path d="M-179.55 28.95 L-179.55 -59.6 -156.05 -59.6 -156.05 -59.3 -156.0 -58.55 -156.0 28.95 -179.55 28.95 M-155.3 28.95 L-155.3 -7.05 685.4 -7.05 685.4 28.95 671.05 28.95 671.05 7.85 -142.9 7.85 -142.9 7.95 -142.95 7.95 -142.95 28.95 -155.3 28.95 M686.1 28.95 L686.1 -59.65 709.65 -59.65 709.65 28.95 686.1 28.95 M685.4 -59.95 L685.4 -10.2 683.1 -19.05 683.1 -68.9 685.4 -59.95 M680.15 -14.35 L680.1 -14.4 680.0 -14.75 680.0 -14.85 677.55 -23.2 682.4 -18.85 682.45 -18.75 682.75 -17.6 683.45 -14.3 685.0 -8.85 680.15 -14.35 M-150.6 -13.3 L-151.35 -12.4 -154.95 -8.6 -152.55 -18.0 -152.05 -19.0 -150.75 -20.05 -147.35 -22.7 -150.0 -13.85 -150.6 -13.3" fill="#7a563b" fill-rule="evenodd" stroke="none"/>
    <path d="M685.0 -64.75 L683.7 -69.2 683.2 -71.2 704.5 -71.2 709.45 -60.35 686.0 -60.35 685.8 -61.15 685.0 -64.75 M-146.6 -22.85 L-146.4 -23.35 676.6 -23.95 679.35 -14.55 -149.2 -13.95 -146.6 -22.85 M-155.95 -60.3 L-179.4 -60.3 -174.35 -71.1 -153.1 -71.1 -153.45 -69.75 -155.95 -60.3" fill="#ab8059" fill-rule="evenodd" stroke="none"/>
    <path d="M-151.95 -10.75 L-150.5 -12.1 -149.5 -13.25 679.6 -13.85 Q679.85 -13.3 680.65 -12.5 L682.1 -11.05 685.0 -7.75 -154.8 -7.75 -151.95 -10.75 M-153.05 -21.25 Q-153.05 -18.4 -154.05 -14.35 L-155.3 -9.85 -155.3 -57.65 Q-155.3 -60.5 -154.3 -64.5 L-153.05 -68.8 -153.05 -21.25" fill="#8f6548" fill-rule="evenodd" stroke="none"/>
    <path d="M671.05 28.95 L664.5 28.95 664.5 18.2 -142.9 18.2 -142.9 7.95 -142.9 7.85 671.05 7.85 671.05 28.95" fill="#49382f" fill-rule="evenodd" stroke="none"/>
    <path d="M-179.55 28.95 L-180.25 28.95 -180.25 -59.95 -180.2 -60.1 -180.15 -60.15 -174.9 -71.65 -174.6 -71.8 -152.85 -71.8 -152.6 -71.8 -152.55 -71.75 -152.4 -71.7 -152.35 -71.45 -152.35 -20.3 -152.3 -19.7 -151.2 -20.55 -147.05 -23.8 -146.7 -24.05 676.85 -24.65 677.2 -24.4 681.4 -20.6 682.5 -19.65 682.4 -21.35 682.4 -71.55 682.65 -71.9 682.9 -71.9 704.65 -71.9 Q704.9 -71.9 704.95 -71.7 L710.3 -60.2 710.3 -59.85 710.3 28.95 709.65 28.95 709.65 -59.65 686.1 -59.65 686.1 28.95 685.4 28.95 685.4 -7.05 -155.3 -7.05 -155.3 28.95 -156.0 28.95 -156.0 -58.55 -156.05 -59.3 -156.05 -59.6 -179.55 -59.6 -179.55 28.95 M685.0 -64.75 L685.8 -61.15 686.0 -60.35 709.45 -60.35 704.5 -71.2 683.2 -71.2 683.7 -69.2 685.0 -64.75 M680.15 -14.35 L685.0 -8.85 683.45 -14.3 682.75 -17.6 682.45 -18.75 682.4 -18.85 677.55 -23.2 680.0 -14.85 680.0 -14.75 680.1 -14.4 680.15 -14.35 M685.4 -59.95 L683.1 -68.9 683.1 -19.05 685.4 -10.2 685.4 -59.95 M-151.95 -10.75 L-154.8 -7.75 685.0 -7.75 682.1 -11.05 680.65 -12.5 Q679.85 -13.3 679.6 -13.85 L-149.5 -13.25 -150.5 -12.1 -151.95 -10.75 M-146.6 -22.85 L-149.2 -13.95 679.35 -14.55 676.6 -23.95 -146.4 -23.35 -146.6 -22.85 M-155.95 -60.3 L-153.45 -69.75 -153.1 -71.1 -174.35 -71.1 -179.4 -60.3 -155.95 -60.3 M-153.05 -21.25 L-153.05 -68.8 -154.3 -64.5 Q-155.3 -60.5 -155.3 -57.65 L-155.3 -9.85 -154.05 -14.35 Q-153.05 -18.4 -153.05 -21.25 M-150.6 -13.3 L-150.0 -13.85 -147.35 -22.7 -150.75 -20.05 -152.05 -19.0 -152.55 -18.0 -154.95 -8.6 -151.35 -12.4 -150.6 -13.3" fill="#373535" fill-rule="evenodd" stroke="none"/>
    <path d="M-142.95 28.95 L-142.95 7.95 -142.9 7.95" fill="none" stroke="#373535" stroke-linecap="butt" stroke-linejoin="miter-clip" stroke-miterlimit="10.0" stroke-width="1.0"/>
  </g>
</svg>
