<?xml version="1.0" encoding="UTF-8" standalone="no"?>
<svg xmlns:xlink="http://www.w3.org/1999/xlink" height="141.5px" width="884.15px" xmlns="http://www.w3.org/2000/svg">
  <g transform="matrix(1.0, 0.0, 0.0, 1.0, 398.45, 64.1)">
    <path d="M150.6 -63.2 L138.4 -63.2 116.35 -63.2 -31.9 -63.25 -33.15 -63.25 142.7 -63.3 145.9 -63.3 149.3 -63.25 150.6 -63.2 M-38.45 -63.25 L-101.1 -63.1 Q-112.8 -63.1 -123.75 -63.25 L-118.9 -63.35 -39.7 -63.25 -38.45 -63.25 M-316.55 -60.85 L-329.9 -60.25 -355.2 -59.25 -316.55 -60.85 M-389.7 -55.05 Q-391.7 -53.45 -393.2 -43.9 -393.95 -39.1 -394.3 -34.6 L-391.05 -38.0 Q-387.1 -41.8 -383.95 -43.7 -380.75 -45.6 -222.75 -47.2 -146.7 -47.95 116.35 -48.75 L134.65 -48.9 138.4 -48.9 Q160.75 -49.05 209.3 -48.15 294.7 -46.6 461.2 -41.9 463.95 -41.75 484.95 -42.5 L484.95 71.65 -397.7 71.65 -397.7 -33.85 Q-394.55 -51.35 -389.7 -55.05 M414.6 -59.85 L349.75 -61.0 329.45 -61.45 332.85 -61.5 398.0 -60.4 399.85 -60.35 402.6 -60.3 404.35 -60.25 406.05 -60.25 414.6 -59.85" fill="#a62d2e" fill-rule="evenodd" stroke="none"/>
    <path d="M-31.9 -63.25 L116.35 -63.2 138.4 -63.2 150.6 -63.2 153.85 -63.25 183.0 -63.1 183.05 -63.1 200.4 -63.0 201.55 -63.0 203.0 -62.95 325.5 -61.55 328.3 -61.5 329.45 -61.45 349.75 -61.0 414.6 -59.85 473.2 -58.1 484.95 -57.6 473.2 -58.1 484.95 -57.8 484.95 -57.6 484.95 -42.5 Q463.95 -41.75 461.2 -41.9 294.7 -46.6 209.3 -48.15 160.75 -49.05 138.4 -48.9 L134.65 -48.9 116.35 -48.75 Q-146.7 -47.95 -222.75 -47.2 -380.75 -45.6 -383.95 -43.7 -387.1 -41.8 -391.05 -38.0 L-394.3 -34.6 Q-393.95 -39.1 -393.2 -43.9 -391.7 -53.45 -389.7 -55.05 L-389.7 -55.1 Q-387.4 -56.85 -370.85 -58.25 -387.4 -56.85 -389.7 -55.1 -387.7 -56.7 -380.45 -57.5 L-370.85 -58.25 -370.5 -58.3 -370.45 -58.3 -370.1 -58.3 -369.8 -58.35 -357.7 -59.15 -355.2 -59.25 -329.9 -60.25 -316.55 -60.85 -314.2 -60.95 -269.35 -62.1 -268.45 -62.1 -266.85 -62.1 -266.2 -62.15 -265.35 -62.15 -251.1 -62.4 -249.5 -62.45 -251.1 -62.4 -250.15 -62.45 -249.5 -62.45 -248.9 -62.45 -245.7 -62.5 -244.95 -62.5 -129.95 -63.3 -125.35 -63.25 -123.75 -63.25 Q-112.8 -63.1 -101.1 -63.1 L-38.45 -63.25 -36.0 -63.2 -31.9 -63.25 M200.4 -63.0 L203.0 -62.95 200.4 -63.0" fill="#8f2a2a" fill-rule="evenodd" stroke="none"/>
    <path d="M150.6 -63.2 L149.3 -63.25 M-123.75 -63.25 L-125.35 -63.25 -129.95 -63.3 M-314.2 -60.95 L-316.55 -60.85 -355.2 -59.25 -357.7 -59.15 M-370.1 -58.3 L-370.45 -58.3 M329.45 -61.45 L328.3 -61.5 325.5 -61.55 M183.05 -63.1 L183.0 -63.1 M153.85 -63.25 L150.6 -63.2 M201.55 -63.0 L203.0 -62.95 M329.45 -61.45 L332.85 -61.5 M-123.75 -63.25 L-118.9 -63.35" fill="none" stroke="#373535" stroke-linecap="butt" stroke-linejoin="miter-clip" stroke-miterlimit="10.0" stroke-width="1.0"/>
    <path d="M149.3 -63.25 L145.9 -63.3 142.7 -63.3 -33.15 -63.25 -39.7 -63.25 -118.9 -63.35 -129.95 -63.3 -244.95 -62.5 -245.7 -62.5 -248.9 -62.45 -249.5 -62.45 -251.1 -62.4 -265.35 -62.15 -266.2 -62.15 -266.85 -62.1 -268.45 -62.1 -269.35 -62.1 -314.2 -60.95 -357.7 -59.15 -369.8 -58.35 M-370.45 -58.3 L-370.5 -58.3 -370.85 -58.25 Q-387.4 -56.85 -389.7 -55.1 L-389.7 -55.05 Q-394.55 -51.35 -397.7 -33.85 M484.95 -57.6 L473.2 -58.1 414.6 -59.85 406.05 -60.25 404.35 -60.25 402.6 -60.3 399.85 -60.35 398.0 -60.4 332.85 -61.5 325.5 -61.55 203.0 -62.95 200.4 -63.0 183.05 -63.1 M183.0 -63.1 L153.85 -63.25 149.3 -63.25" fill="none" stroke="#373535" stroke-linecap="butt" stroke-linejoin="miter-clip" stroke-miterlimit="10.0" stroke-width="1.5"/>
    <path d="M43.3 29.3 Q53.9 27.75 65.6 33.4 51.1 38.7 51.65 47.7 L68.6 50.3 Q35.35 56.4 20.85 77.4 L-297.75 67.7 Q-312.95 48.65 -353.85 39.65 -335.3 40.05 -318.2 42.45 -316.9 37.3 -325.1 33.35 -337.1 25.6 -358.85 23.45 -344.75 21.6 -312.75 28.5 L-291.2 33.6 -312.75 28.5 Q-307.8 15.5 -325.2 6.85 -302.6 4.15 -285.2 10.1 L18.0 15.55 Q32.85 9.25 44.8 14.5 37.7 18.55 43.3 29.3 33.3 30.75 24.25 38.65 33.3 30.75 43.3 29.3 M51.65 47.7 Q27.7 44.85 3.05 47.1 27.7 44.85 51.65 47.7 M-296.15 46.45 Q-306.85 44.0 -318.2 42.45 -306.85 44.0 -296.15 46.45" fill="#8f2a2a" fill-rule="evenodd" stroke="none"/>
    <path d="M65.6 33.4 Q68.15 34.65 70.75 36.25 M43.3 29.3 Q53.9 27.75 65.6 33.4 M51.65 47.7 L68.6 50.3 Q77.2 51.95 85.65 54.25 M43.3 29.3 Q33.3 30.75 24.25 38.65 M3.05 47.1 Q27.7 44.85 51.65 47.7 M18.0 15.55 Q32.85 9.25 44.8 14.5 M-291.2 33.6 L-312.75 28.5 Q-344.75 21.6 -358.85 23.45 M-318.2 42.45 Q-306.85 44.0 -296.15 46.45 M-325.2 6.85 Q-330.4 7.4 -336.65 8.9 M-353.85 39.65 Q-367.1 39.35 -381.05 40.05 M-285.2 10.1 Q-302.6 4.15 -325.2 6.85 M-318.2 42.45 Q-335.3 40.05 -353.85 39.65" fill="none" stroke="#373535" stroke-linecap="round" stroke-linejoin="round" stroke-width="1.0"/>
  </g>
</svg>
