<?xml version="1.0" encoding="UTF-8" standalone="no"?>
<svg xmlns:xlink="http://www.w3.org/1999/xlink" height="184.3px" width="256.3px" xmlns="http://www.w3.org/2000/svg">
  <g transform="matrix(1.0, 0.0, 0.0, 1.0, 128.15, 92.15)">
    <path d="M41.7 -70.15 Q46.3 -72.75 57.25 -75.85 68.15 -78.95 63.9 -79.4 59.6 -79.9 66.2 -80.25 L69.25 -80.35 76.1 -79.85 79.45 -79.15 Q79.75 -78.4 80.85 -77.45 L80.9 -77.4 81.0 -77.3 81.1 -77.25 81.2 -77.15 82.7 -76.05 81.3 -77.25 81.2 -77.35 81.15 -77.4 81.0 -77.55 79.35 -79.3 77.8 -81.3 77.6 -81.6 77.0 -82.65 Q81.35 -80.85 83.15 -79.75 86.15 -78.25 88.8 -76.55 93.65 -73.4 97.15 -69.55 100.05 -66.95 103.0 -63.6 L106.65 -59.15 106.7 -59.1 Q108.95 -59.25 111.3 -60.25 119.1 -60.65 117.75 -56.0 122.55 -51.15 125.5 -41.85 130.35 -26.75 123.75 -13.3 117.7 -6.5 110.6 -1.35 L103.15 19.35 Q102.9 11.2 99.6 8.35 99.8 12.55 96.5 14.0 94.1 11.95 94.5 7.65 L88.9 2.95 54.75 -5.6 Q49.55 -6.35 42.3 -10.05 39.7 -11.45 37.25 -13.25 33.1 -16.35 29.35 -20.55 L29.2 -20.7 29.0 -20.95 Q25.2 -25.25 21.85 -30.75 L33.55 -24.6 Q49.75 -21.45 63.65 -11.65 L54.45 -18.85 Q77.9 -17.85 97.4 -11.9 L85.95 -16.15 Q100.45 -18.8 115.5 -16.4 114.6 -22.85 106.55 -27.3 110.5 -30.55 115.6 -28.55 118.35 -37.25 112.75 -49.65 111.9 -54.1 97.15 -53.1 97.1 -54.6 103.6 -55.6 94.1 -60.65 89.45 -68.25 L91.45 -62.8 Q78.3 -68.45 69.35 -77.15 55.55 -71.65 41.7 -70.15 M85.0 -57.75 Q90.55 -56.1 92.9 -51.7 70.85 -56.6 48.75 -66.95 58.35 -68.1 69.9 -64.15 66.3 -67.15 65.3 -70.7 79.25 -59.35 85.0 -57.75 M27.65 -48.05 L38.3 -27.55 Q30.35 -31.3 24.0 -41.65 23.2 -44.9 23.2 -48.15 28.0 -45.35 31.35 -39.15 29.2 -43.65 27.65 -48.05 M39.55 -38.7 Q32.6 -48.0 27.7 -61.3 42.15 -56.1 50.5 -43.45 50.45 -49.45 44.05 -58.3 56.3 -53.85 65.1 -42.95 L74.15 -30.5 Q78.7 -26.8 87.95 -26.55 79.6 -23.25 66.6 -25.8 56.15 -29.5 46.75 -39.7 52.05 -32.35 52.45 -25.05 L39.55 -38.7 M85.65 -73.9 L82.7 -76.05 85.65 -73.9" fill="#d1d16b" fill-rule="evenodd" stroke="none"/>
    <path d="M76.1 -79.85 L73.55 -81.55 Q72.75 -82.1 73.2 -83.35 L73.65 -84.85 Q75.75 -91.75 84.0 -91.55 98.75 -91.75 113.4 -69.8 115.3 -66.85 113.1 -64.5 115.25 -66.2 117.05 -64.2 L116.4 -63.6 Q113.8 -61.4 111.3 -60.25 108.95 -59.25 106.7 -59.1 109.5 -62.15 109.35 -66.55 103.55 -78.75 90.7 -85.35 79.85 -92.25 77.0 -82.65 79.85 -92.25 90.7 -85.35 81.35 -86.6 77.0 -82.65 L77.6 -81.6 77.8 -81.3 79.35 -79.3 79.45 -79.15 76.1 -79.85 M94.5 7.65 Q80.9 13.3 62.5 10.2 L59.75 9.7 46.1 7.25 38.65 6.0 38.4 6.0 30.7 5.25 29.6 5.0 29.55 5.0 27.45 3.05 Q22.7 -0.85 20.05 -1.75 9.9 -10.75 0.95 -11.3 9.9 -10.75 20.05 -1.75 22.7 -0.85 27.45 3.05 L29.55 5.0 29.6 5.0 29.65 5.05 Q31.9 7.55 33.85 10.35 L37.35 16.2 36.65 24.7 36.55 26.7 Q35.8 38.5 30.5 48.65 31.3 45.5 29.2 41.75 26.85 49.0 13.95 50.25 17.1 47.65 16.8 40.0 28.4 37.9 28.35 28.6 28.25 17.45 17.4 6.5 L8.9 -2.15 16.7 -2.6 19.9 -1.8 20.05 -1.75 19.9 -1.8 16.7 -2.6 8.9 -2.15 Q-2.85 2.9 -8.7 1.15 -9.2 -0.3 -8.4 -1.95 -7.8 -3.25 -6.3 -4.7 -21.45 -7.35 -38.05 -1.95 L-41.1 -0.9 Q-50.05 2.7 -55.95 20.8 -58.75 28.95 -33.95 39.25 -33.15 49.1 -39.8 53.95 -41.8 55.35 -42.35 56.75 L-50.65 57.5 Q-48.85 56.85 -47.4 55.5 L-47.35 55.45 -47.25 55.35 -46.25 54.15 -46.45 54.1 -46.65 54.15 -46.8 54.1 -47.7 54.05 -47.9 54.05 -48.2 54.0 -63.5 51.1 Q-78.6 48.15 -83.15 33.8 L-91.1 24.35 Q-97.05 16.95 -118.25 7.15 -126.55 12.55 -127.55 0.35 -128.45 -11.25 -85.15 -40.65 L-80.0 -44.15 -78.8 -44.85 -74.0 -45.6 -70.2 -46.75 Q-66.75 -43.65 -65.05 -40.0 -61.6 -32.8 -65.05 -23.7 -69.15 -13.0 -82.9 0.25 L-82.85 0.3 Q-77.1 10.05 -65.9 14.45 -62.8 15.8 -60.65 14.0 L-60.1 13.45 -59.9 13.0 Q-56.2 4.05 -49.15 -1.95 -47.1 -3.7 -44.75 -5.15 L-40.25 -7.7 Q-30.85 -13.85 -17.35 -14.0 L-16.8 -14.25 -15.8 -14.6 -8.3 -14.95 -5.2 -14.4 -5.0 -14.35 -4.45 -14.25 -2.65 -13.8 -1.6 -13.55 -2.65 -13.2 Q-6.95 -11.75 -8.05 -9.65 -5.4 -10.85 -2.65 -11.2 L0.95 -11.3 Q13.2 -16.1 29.75 -12.95 24.85 -14.0 23.45 -17.1 17.4 -24.1 16.5 -37.7 17.2 -38.4 21.3 -35.75 16.65 -44.3 18.75 -54.05 19.05 -55.6 23.45 -51.75 22.25 -59.7 23.45 -65.95 24.3 -57.9 27.15 -49.5 L27.65 -48.05 Q29.2 -43.65 31.35 -39.15 28.0 -45.35 23.2 -48.15 23.2 -44.9 24.0 -41.65 26.05 -33.25 33.55 -24.6 L21.85 -30.75 Q25.2 -25.25 29.0 -20.95 L29.2 -20.7 29.35 -20.55 Q33.1 -16.35 37.25 -13.25 39.7 -11.45 42.3 -10.05 49.55 -6.35 54.75 -5.6 L88.9 2.95 94.5 7.65 M12.6 51.85 Q13.5 52.05 14.45 52.75 15.35 53.45 16.4 53.65 32.25 56.2 41.9 59.95 L42.85 60.3 Q52.6 64.15 54.2 68.35 62.3 72.95 57.65 82.6 59.75 90.75 47.95 89.85 47.8 91.55 44.9 91.55 42.05 91.5 37.15 90.1 L34.55 89.3 34.4 89.3 Q37.05 88.55 37.45 86.05 37.45 84.95 34.35 83.8 31.2 82.7 28.55 83.8 27.2 84.6 26.5 85.3 L25.5 86.4 -6.2 76.9 Q-33.7 72.45 -37.9 68.5 -37.7 70.95 -39.6 71.5 -42.3 69.3 -41.5 66.6 L-43.9 69.6 Q-45.2 67.6 -44.5 64.2 -43.7 59.9 -42.35 56.75 -43.35 61.4 -40.65 64.05 -17.4 72.45 4.8 74.75 11.75 74.45 15.9 70.8 18.7 68.4 19.15 65.35 19.05 62.5 18.1 61.1 L17.9 60.85 Q15.35 57.4 12.15 56.25 -1.35 51.85 -15.95 50.15 L-0.9 49.75 Q7.95 49.0 12.6 51.85 M88.8 -76.55 Q86.15 -78.25 83.15 -79.75 86.5 -85.1 92.35 -79.6 88.05 -79.25 88.8 -76.55 M113.1 -64.5 L112.3 -63.6 113.1 -64.5 M35.4 77.25 Q37.15 76.2 37.25 74.65 L36.8 72.9 31.75 64.05 31.35 63.7 31.2 63.55 29.8 62.8 28.1 62.45 Q26.15 62.3 25.15 64.1 23.8 66.1 23.15 67.75 L21.45 69.5 Q19.35 72.15 18.8 75.9 19.9 77.95 21.5 79.05 L23.3 79.95 24.85 80.3 25.15 80.25 27.65 79.65 Q34.0 78.05 35.4 77.25 M42.3 66.15 L43.2 65.85 Q44.65 65.05 43.15 63.1 L41.95 61.95 41.25 61.6 Q39.95 61.05 37.95 60.85 36.05 61.1 36.95 63.15 38.75 66.85 42.3 66.15 M51.3 75.9 Q54.7 74.25 51.65 72.1 49.8 70.85 47.85 70.75 L45.25 71.1 44.35 71.45 44.15 71.65 Q42.65 73.15 44.15 74.95 L44.55 75.55 47.3 76.2 49.5 76.3 51.3 75.9 M53.7 81.35 L57.65 82.6 53.7 81.35 M46.5 67.45 L54.2 68.35 46.5 67.45 M48.7 86.15 Q53.1 85.35 50.45 83.0 48.55 81.6 46.55 81.15 L44.0 80.85 Q39.45 83.05 42.1 84.7 44.05 85.8 45.7 86.15 47.35 86.5 48.7 86.15 M47.95 89.85 L42.45 88.55 47.95 89.85 M-40.0 -32.1 L-39.95 -32.1 -34.45 -31.55 Q-38.7 -34.15 -43.75 -35.75 L-47.0 -36.65 -43.35 -36.9 Q-39.3 -36.65 -35.05 -34.1 L-36.85 -35.9 -32.25 -36.05 Q-30.05 -37.9 -27.45 -39.35 L-24.2 -40.9 Q-20.25 -43.15 -15.8 -44.95 L-10.25 -47.0 Q-13.2 -45.65 -15.8 -44.1 -25.4 -38.45 -30.55 -30.1 L-34.6 -29.65 -39.45 -29.85 -49.6 -29.3 Q-47.4 -30.75 -45.1 -31.45 L-40.0 -32.1 M-36.8 -27.45 L-34.85 -27.4 -33.4 -27.45 Q-40.55 -24.1 -46.65 -20.65 -51.05 -18.15 -54.85 -15.65 L-52.5 -19.05 Q-52.55 -19.45 -51.35 -20.75 L-47.8 -23.85 -47.05 -23.85 Q-44.85 -23.85 -44.05 -24.5 L-36.8 -27.45 M-32.25 -36.05 Q-31.5 -35.9 -30.9 -35.45 L-30.25 -35.0 -30.9 -35.45 Q-31.5 -35.9 -32.25 -36.05 M-60.35 14.2 L-60.1 13.45 -60.35 14.2" fill="#cc6f0f" fill-rule="evenodd" stroke="none"/>
    <path d="M62.5 10.2 Q61.0 10.4 59.75 9.7 L62.5 10.2 M30.7 5.25 L29.65 5.05 29.6 5.0 30.7 5.25 M13.95 50.25 L13.35 50.7 12.6 51.85 Q7.95 49.0 -0.9 49.75 L-15.95 50.15 Q-1.35 51.85 12.15 56.25 15.35 57.4 17.9 60.85 L18.1 61.1 Q19.05 62.5 19.15 65.35 18.7 68.4 15.9 70.8 11.75 74.45 4.8 74.75 -17.4 72.45 -40.65 64.05 -43.35 61.4 -42.35 56.75 -41.8 55.35 -39.8 53.95 -33.15 49.1 -33.95 39.25 -58.75 28.95 -55.95 20.8 -50.05 2.7 -41.1 -0.9 L-38.05 -1.95 Q-21.45 -7.35 -6.3 -4.7 -7.8 -3.25 -8.4 -1.95 -9.2 -0.3 -8.7 1.15 -2.85 2.9 8.9 -2.15 L17.4 6.5 Q28.25 17.45 28.35 28.6 28.4 37.9 16.8 40.0 17.1 47.65 13.95 50.25 M-46.95 54.1 L-47.05 54.1 -47.35 54.1 -47.7 54.05 -46.8 54.1 -46.95 54.1 M-70.2 -46.75 Q-67.85 -47.6 -65.05 -48.75 -61.15 -50.4 -56.45 -52.75 -50.5 -55.7 -43.2 -59.8 L-42.7 -60.05 -42.35 -60.25 Q-34.8 -63.6 -26.25 -66.15 L-25.75 -66.3 Q-14.6 -69.2 -2.65 -70.95 L7.55 -72.25 Q23.3 -74.0 41.2 -70.25 L41.7 -70.15 Q40.05 -69.2 45.2 -69.35 43.6 -67.9 41.2 -67.0 35.0 -64.75 23.45 -65.95 22.25 -59.7 23.45 -51.75 19.05 -55.6 18.75 -54.05 16.65 -44.3 21.3 -35.75 17.2 -38.4 16.5 -37.7 17.4 -24.1 23.45 -17.1 24.85 -14.0 29.75 -12.95 13.2 -16.1 0.95 -11.3 L-2.65 -11.2 Q-5.4 -10.85 -8.05 -9.65 -6.95 -11.75 -2.65 -13.2 L-1.6 -13.55 -2.65 -13.8 -4.45 -14.25 -5.0 -14.35 -5.2 -14.4 -8.3 -14.95 -15.8 -14.6 -16.8 -14.25 -17.35 -14.0 Q-30.85 -13.85 -40.25 -7.7 L-44.75 -5.15 Q-47.1 -3.7 -49.15 -1.95 -56.2 4.05 -59.9 13.0 L-60.1 13.45 -60.65 14.0 Q-62.8 15.8 -65.9 14.45 -77.1 10.05 -82.85 0.3 L-82.9 0.25 Q-69.15 -13.0 -65.05 -23.7 -61.6 -32.8 -65.05 -40.0 -66.75 -43.65 -70.2 -46.75 M90.7 -85.35 Q103.55 -78.75 109.35 -66.55 109.5 -62.15 106.7 -59.1 L106.65 -59.15 103.0 -63.6 Q100.05 -66.95 97.15 -69.55 93.65 -73.4 88.8 -76.55 88.05 -79.25 92.35 -79.6 86.5 -85.1 83.15 -79.75 81.35 -80.85 77.0 -82.65 81.35 -86.6 90.7 -85.35 M-40.0 -32.1 Q-42.3 -32.25 -44.55 -33.15 -47.0 -34.15 -49.4 -35.95 L-47.0 -36.65 -49.4 -35.95 Q-47.0 -34.15 -44.55 -33.15 -42.3 -32.25 -40.0 -32.1 L-45.1 -31.45 Q-47.4 -30.75 -49.6 -29.3 -47.85 -28.3 -46.1 -28.0 L-43.3 -28.1 Q-45.05 -27.6 -46.5 -26.6 -48.15 -25.55 -49.4 -23.95 L-47.8 -23.85 -49.4 -23.95 Q-48.15 -25.55 -46.5 -26.6 -45.05 -27.6 -43.3 -28.1 L-46.1 -28.0 Q-47.85 -28.3 -49.6 -29.3 L-39.45 -29.85 -34.6 -29.65 -30.55 -30.1 Q-25.4 -38.45 -15.8 -44.1 -13.2 -45.65 -10.25 -47.0 L-15.8 -44.95 Q-20.25 -43.15 -24.2 -40.9 L-27.45 -39.35 Q-30.05 -37.9 -32.25 -36.05 L-36.85 -35.9 -35.05 -34.1 Q-39.3 -36.65 -43.35 -36.9 L-47.0 -36.65 -43.75 -35.75 Q-38.7 -34.15 -34.45 -31.55 L-39.95 -32.1 -40.0 -32.1 M-36.8 -27.45 Q-37.9 -27.65 -39.0 -28.2 -37.25 -29.4 -34.6 -29.65 -37.25 -29.4 -39.0 -28.2 -37.9 -27.65 -36.8 -27.45 L-44.05 -24.5 Q-44.85 -23.85 -47.05 -23.85 L-47.8 -23.85 -51.35 -20.75 Q-52.55 -19.45 -52.5 -19.05 L-54.85 -15.65 Q-51.05 -18.15 -46.65 -20.65 -40.55 -24.1 -33.4 -27.45 L-34.85 -27.4 -36.8 -27.45 M-42.55 -28.3 L-43.3 -28.1 -42.55 -28.3" fill="#ee830f" fill-rule="evenodd" stroke="none"/>
    <path d="M41.7 -70.15 Q55.55 -71.65 69.35 -77.15 78.3 -68.45 91.45 -62.8 L89.45 -68.25 Q94.1 -60.65 103.6 -55.6 97.1 -54.6 97.15 -53.1 111.9 -54.1 112.75 -49.65 118.35 -37.25 115.6 -28.55 110.5 -30.55 106.55 -27.3 114.6 -22.85 115.5 -16.4 100.45 -18.8 85.95 -16.15 L97.4 -11.9 Q77.9 -17.85 54.45 -18.85 L63.65 -11.65 Q49.75 -21.45 33.55 -24.6 26.05 -33.25 24.0 -41.65 30.35 -31.3 38.3 -27.55 L27.65 -48.05 27.15 -49.5 Q24.3 -57.9 23.45 -65.95 35.0 -64.75 41.2 -67.0 43.6 -67.9 45.2 -69.35 40.05 -69.2 41.7 -70.15 L45.2 -69.35 41.7 -70.15 M85.0 -57.75 Q79.25 -59.35 65.3 -70.7 66.3 -67.15 69.9 -64.15 58.35 -68.1 48.75 -66.95 70.85 -56.6 92.9 -51.7 90.55 -56.1 85.0 -57.75 M39.55 -38.7 L52.45 -25.05 Q52.05 -32.35 46.75 -39.7 56.15 -29.5 66.6 -25.8 79.6 -23.25 87.95 -26.55 78.7 -26.8 74.15 -30.5 L65.1 -42.95 Q56.3 -53.85 44.05 -58.3 50.45 -49.45 50.5 -43.45 42.15 -56.1 27.7 -61.3 32.6 -48.0 39.55 -38.7" fill="#ffff9d" fill-rule="evenodd" stroke="none"/>
    <path d="M37.35 16.2 Q40.85 23.3 39.0 32.05 36.75 29.5 36.55 26.7 L36.65 24.7 37.35 16.2" fill="#bb670b" fill-rule="evenodd" stroke="none"/>
    <path d="M34.55 89.3 Q30.35 89.8 27.1 87.7 L25.5 86.4 26.5 85.3 Q27.2 84.6 28.55 83.8 31.2 82.7 34.35 83.8 37.45 84.95 37.45 86.05 37.05 88.55 34.4 89.3 L34.55 89.3 M42.3 66.15 Q38.75 66.85 36.95 63.15 36.05 61.1 37.95 60.85 39.95 61.05 41.25 61.6 L41.95 61.95 43.15 63.1 Q44.65 65.05 43.2 65.85 L42.3 66.15 M35.4 77.25 Q34.0 78.05 27.65 79.65 L25.15 80.25 24.85 80.3 23.3 79.95 21.5 79.05 Q19.9 77.95 18.8 75.9 19.35 72.15 21.45 69.5 L23.15 67.75 Q23.8 66.1 25.15 64.1 26.15 62.3 28.1 62.45 L29.8 62.8 31.2 63.55 31.35 63.7 31.75 64.05 36.8 72.9 37.25 74.65 Q37.15 76.2 35.4 77.25 M51.3 75.9 L49.5 76.3 47.3 76.2 44.55 75.55 44.15 74.95 Q42.65 73.15 44.15 71.65 L44.35 71.45 45.25 71.1 47.85 70.75 Q49.8 70.85 51.65 72.1 54.7 74.25 51.3 75.9 M48.7 86.15 Q47.35 86.5 45.7 86.15 44.05 85.8 42.1 84.7 39.45 83.05 44.0 80.85 L46.55 81.15 Q48.55 81.6 50.45 83.0 53.1 85.35 48.7 86.15" fill="#aa5c1f" fill-rule="evenodd" stroke="none"/>
    <path d="M41.7 -70.15 Q46.3 -72.75 57.25 -75.85 68.15 -78.95 63.9 -79.4 59.6 -79.9 66.2 -80.25 L69.25 -80.35 76.1 -79.85 73.55 -81.55 Q72.75 -82.1 73.2 -83.35 L73.65 -84.85 Q75.75 -91.75 84.0 -91.55 98.75 -91.75 113.4 -69.8 115.3 -66.85 113.1 -64.5 115.25 -66.2 117.05 -64.2 L116.4 -63.6 Q113.8 -61.4 111.3 -60.25 119.1 -60.65 117.75 -56.0 122.55 -51.15 125.5 -41.85 130.35 -26.75 123.75 -13.3 117.7 -6.5 110.6 -1.35 L103.15 19.35 Q102.9 11.2 99.6 8.35 99.8 12.55 96.5 14.0 94.1 11.95 94.5 7.65 80.9 13.3 62.5 10.2 L59.75 9.7 46.1 7.25 38.65 6.0 38.4 6.0 30.7 5.25 29.6 5.0 29.65 5.05 Q31.9 7.55 33.85 10.35 L37.35 16.2 Q40.85 23.3 39.0 32.05 36.75 29.5 36.55 26.7 35.8 38.5 30.5 48.65 31.3 45.5 29.2 41.75 26.85 49.0 13.95 50.25 L13.35 50.7 12.6 51.85 Q13.5 52.05 14.45 52.75 15.35 53.45 16.4 53.65 32.25 56.2 41.9 59.95 L42.85 60.3 Q52.6 64.15 54.2 68.35 62.3 72.95 57.65 82.6 59.75 90.75 47.95 89.85 47.8 91.55 44.9 91.55 42.05 91.5 37.15 90.1 L34.55 89.3 Q30.35 89.8 27.1 87.7 L25.5 86.4 -6.2 76.9 Q-33.7 72.45 -37.9 68.5 -37.7 70.95 -39.6 71.5 -42.3 69.3 -41.5 66.6 L-43.9 69.6 Q-45.2 67.6 -44.5 64.2 -43.7 59.9 -42.35 56.75 L-50.65 57.5 Q-48.85 56.85 -47.4 55.5 L-47.35 55.45 -47.25 55.35 -46.25 54.15 -46.65 54.15 -46.95 54.1 -47.05 54.1 -47.35 54.1 -47.7 54.05 -47.9 54.05 -48.2 54.0 -63.5 51.1 Q-78.6 48.15 -83.15 33.8 L-91.1 24.35 Q-97.05 16.95 -118.25 7.15 -126.55 12.55 -127.55 0.35 -128.45 -11.25 -85.15 -40.65 L-80.0 -44.15 -78.8 -44.85 -74.0 -45.6 -70.2 -46.75 Q-67.85 -47.6 -65.05 -48.75 -61.15 -50.4 -56.45 -52.75 -50.5 -55.7 -43.2 -59.8 L-42.7 -60.05 -42.35 -60.25 Q-34.8 -63.6 -26.25 -66.15 L-25.75 -66.3 Q-14.6 -69.2 -2.65 -70.95 L7.55 -72.25 Q23.3 -74.0 41.2 -70.25 L41.7 -70.15 45.2 -69.35 Q40.05 -69.2 41.7 -70.15 M33.55 -24.6 L21.85 -30.75 Q25.2 -25.25 29.0 -20.95 L29.2 -20.7 29.35 -20.55 Q33.1 -16.35 37.25 -13.25 39.7 -11.45 42.3 -10.05 49.55 -6.35 54.75 -5.6 L88.9 2.95 94.5 7.65 M79.35 -79.3 L77.8 -81.3 77.6 -81.6 77.0 -82.65 Q79.85 -92.25 90.7 -85.35 M106.7 -59.1 Q108.95 -59.25 111.3 -60.25 M79.45 -79.15 Q79.75 -78.4 80.85 -77.45 L80.9 -77.4 81.0 -77.3 81.1 -77.25 81.2 -77.15 82.7 -76.05 81.3 -77.25 81.2 -77.35 81.15 -77.4 81.0 -77.55 79.35 -79.3 79.45 -79.15 76.1 -79.85 M23.45 -65.95 Q35.0 -64.75 41.2 -67.0 43.6 -67.9 45.2 -69.35 M0.95 -11.3 Q9.9 -10.75 20.05 -1.75 22.7 -0.85 27.45 3.05 L29.55 5.0 29.6 5.0 M27.65 -48.05 Q29.2 -43.65 31.35 -39.15 28.0 -45.35 23.2 -48.15 23.2 -44.9 24.0 -41.65 26.05 -33.25 33.55 -24.6 M27.65 -48.05 L27.15 -49.5 Q24.3 -57.9 23.45 -65.95 M20.05 -1.75 L19.9 -1.8 16.7 -2.6 8.9 -2.15 M16.8 40.0 Q17.1 47.65 13.95 50.25 M83.15 -79.75 Q86.15 -78.25 88.8 -76.55 93.65 -73.4 97.15 -69.55 100.05 -66.95 103.0 -63.6 L106.65 -59.15 106.7 -59.1 M92.35 -79.6 Q86.5 -85.1 83.15 -79.75 81.35 -80.85 77.0 -82.65 M112.3 -63.6 L113.1 -64.5 M82.7 -76.05 L85.65 -73.9 M36.65 24.7 L36.55 26.7 M35.4 77.25 Q37.15 76.2 37.25 74.65 L36.8 72.9 31.75 64.05 31.35 63.7 31.2 63.55 29.8 62.8 28.1 62.45 Q26.15 62.3 25.15 64.1 23.8 66.1 23.15 67.75 L21.45 69.5 Q19.35 72.15 18.8 75.9 19.9 77.95 21.5 79.05 L23.3 79.95 24.85 80.3 25.15 80.25 27.65 79.65 Q34.0 78.05 35.4 77.25 M42.3 66.15 L43.2 65.85 Q44.65 65.05 43.15 63.1 L41.95 61.95 41.25 61.6 Q39.95 61.05 37.95 60.85 36.05 61.1 36.95 63.15 38.75 66.85 42.3 66.15 M-42.35 56.75 Q-41.8 55.35 -39.8 53.95 -33.15 49.1 -33.95 39.25 M34.55 89.3 L34.4 89.3 Q37.05 88.55 37.45 86.05 37.45 84.95 34.35 83.8 31.2 82.7 28.55 83.8 27.2 84.6 26.5 85.3 L25.5 86.4 M51.3 75.9 Q54.7 74.25 51.65 72.1 49.8 70.85 47.85 70.75 L45.25 71.1 44.35 71.45 44.15 71.65 Q42.65 73.15 44.15 74.95 L44.55 75.55 47.3 76.2 49.5 76.3 51.3 75.9 M54.2 68.35 L46.5 67.45 M57.65 82.6 L53.7 81.35 M48.7 86.15 Q53.1 85.35 50.45 83.0 48.55 81.6 46.55 81.15 L44.0 80.85 Q39.45 83.05 42.1 84.7 44.05 85.8 45.7 86.15 47.35 86.5 48.7 86.15 M42.45 88.55 L47.95 89.85 M-60.1 13.45 L-59.9 13.0 Q-56.2 4.05 -49.15 -1.95 -47.1 -3.7 -44.75 -5.15 M-1.6 -13.55 L-2.65 -13.2 Q-6.95 -11.75 -8.05 -9.65 -5.4 -10.85 -2.65 -11.2 L0.95 -11.3 M-60.1 13.45 L-60.35 14.2 M-46.25 54.15 L-46.45 54.1 -46.65 54.15 -46.8 54.1 -46.95 54.1 M-46.8 54.1 L-47.7 54.05 M12.6 51.85 Q7.95 49.0 -0.9 49.75" fill="none" stroke="#4d2b06" stroke-linecap="round" stroke-linejoin="round" stroke-width="1.2000000000000002"/>
    <path d="M-47.0 -36.65 L-49.4 -35.95 Q-47.0 -34.15 -44.55 -33.15 -42.3 -32.25 -40.0 -32.1 L-39.95 -32.1 M-47.0 -36.65 L-43.35 -36.9 Q-39.3 -36.65 -35.05 -34.1 L-36.85 -35.9 -32.25 -36.05 Q-30.05 -37.9 -27.45 -39.35 M-34.6 -29.65 Q-37.25 -29.4 -39.0 -28.2 -37.9 -27.65 -36.8 -27.45 L-34.85 -27.4 M-51.35 -20.75 L-47.8 -23.85 -49.4 -23.95 Q-48.15 -25.55 -46.5 -26.6 -45.05 -27.6 -43.3 -28.1 L-46.1 -28.0 Q-47.85 -28.3 -49.6 -29.3 -47.4 -30.75 -45.1 -31.45 L-40.0 -32.1 M-43.3 -28.1 L-42.55 -28.3 M-5.0 -14.35 L-4.45 -14.25 -2.65 -13.8 -1.6 -13.55 M-47.8 -23.85 L-47.05 -23.85 Q-44.85 -23.85 -44.05 -24.5 M-30.25 -35.0 L-30.9 -35.45 Q-31.5 -35.9 -32.25 -36.05" fill="none" stroke="#4d2b06" stroke-linecap="round" stroke-linejoin="round" stroke-width="1.2000000000000002"/>
    <path d="M-60.9 13.95 L-60.85 13.8 Q-60.5 13.3 -60.0 13.55 -59.5 13.9 -59.75 14.4 L-61.55 17.85 -61.65 17.9 -61.7 17.8 -61.05 14.55 -60.9 14.1 -60.9 13.95 M-17.2 -13.8 L-17.5 -13.85 -17.45 -14.15 -17.4 -14.15 -16.9 -14.4 -16.85 -14.45 -16.8 -14.45 -16.65 -14.5 -16.35 -14.65 -16.0 -14.75 -15.9 -14.8 -15.85 -14.8 -15.8 -14.85 -13.35 -15.4 -10.15 -15.55 -9.85 -15.5 -8.3 -15.45 -8.25 -15.4 -7.95 -15.4 -5.05 -14.95 -5.0 -14.95 Q-4.45 -14.85 -4.55 -14.25 -4.7 -13.65 -5.3 -13.8 L-8.3 -14.45 -8.55 -14.45 -9.9 -14.65 -10.2 -14.65 -10.45 -14.7 -11.3 -14.75 -13.0 -14.75 -13.25 -14.7 -13.55 -14.7 -14.55 -14.55 -14.8 -14.55 -15.65 -14.35 -15.7 -14.35 -15.75 -14.3 -15.85 -14.3 -16.65 -14.05 -16.7 -14.0 -16.75 -14.0 -17.2 -13.8 M-34.95 -26.8 Q-35.55 -26.9 -35.45 -27.45 -35.35 -28.05 -34.8 -27.95 L-34.45 -27.95 -34.1 -27.9 -33.45 -27.9 -33.55 -27.85 -32.65 -28.1 Q-32.3 -28.2 -32.2 -27.9 -32.0 -27.55 -32.4 -27.35 L-33.2 -27.0 -33.25 -26.95 -33.3 -26.95 -34.1 -26.8 -34.95 -26.8 M-29.8 -30.2 Q-29.65 -30.2 -29.65 -30.0 -29.65 -29.75 -29.85 -29.85 L-30.3 -29.85 -30.4 -29.8 -30.95 -29.8 -31.35 -29.75 -31.55 -29.7 -31.75 -29.7 -32.2 -29.6 -32.4 -29.6 -34.0 -29.2 -34.25 -29.1 -34.45 -29.05 -34.55 -29.0 Q-35.1 -28.9 -35.2 -29.5 -35.3 -30.1 -34.7 -30.2 L-34.25 -30.3 -33.95 -30.3 -33.15 -30.4 -31.35 -30.4 -30.95 -30.35 -30.55 -30.35 -30.4 -30.3 -30.25 -30.3 -30.0 -30.25 -29.85 -30.25 -29.8 -30.2 M-27.3 -38.7 Q-27.85 -38.5 -28.05 -39.1 -28.25 -39.65 -27.7 -39.85 L-24.25 -41.0 -24.05 -40.95 -24.1 -40.75 -27.3 -38.7 M-40.25 -7.75 L-40.15 -7.7 -40.2 -7.6 -40.35 -7.45 -42.35 -6.15 -43.75 -5.1 -44.2 -4.75 -44.4 -4.65 -44.4 -4.6 -44.5 -4.55 Q-45.05 -4.3 -45.3 -4.8 -45.55 -5.35 -45.05 -5.6 L-44.85 -5.75 -40.5 -7.7 -40.25 -7.75 M-51.75 -21.15 L-51.65 -21.25 -50.8 -21.15 Q-50.45 -20.7 -50.9 -20.3 L-51.0 -20.25 -51.25 -20.0 -51.45 -19.85 -52.0 -19.3 -52.15 -19.1 -52.15 -19.05 -52.2 -19.1 -52.15 -19.05 -52.0 -19.05 -51.8 -19.1 -51.5 -19.1 -51.35 -19.05 Q-51.25 -18.85 -51.45 -18.85 L-51.55 -18.75 -51.7 -18.7 -52.2 -18.6 -52.5 -18.6 -52.55 -18.65 -52.7 -18.75 -52.7 -18.8 -52.75 -18.85 -52.75 -18.95 -52.8 -19.0 -52.8 -19.2 -52.75 -19.3 -52.65 -19.65 -52.6 -19.75 -52.55 -19.8 -52.5 -19.95 -52.2 -20.5 -52.05 -20.7 -51.95 -20.9 -51.85 -21.0 -51.75 -21.15" fill="#4d2b06" fill-rule="evenodd" stroke="none"/>
  </g>
</svg>
