<?xml version="1.0" encoding="UTF-8" standalone="no"?>
<svg xmlns:xlink="http://www.w3.org/1999/xlink" height="70.35px" width="28.55px" xmlns="http://www.w3.org/2000/svg">
  <g transform="matrix(1.0, 0.0, 0.0, 1.0, 5.0, 24.4)">
    <path d="M21.7 -23.2 L23.4 -24.4 Q23.75 -24.15 23.4 -22.15 22.95 -23.25 22.0 -23.25 L21.7 -23.2 M20.2 -17.4 L15.4 -13.25 Q12.2 -10.6 11.7 -9.85 10.55 -11.0 10.55 -12.05 10.55 -12.6 13.05 -14.5 L16.75 -17.4 18.8 -19.75 18.8 -19.3 Q18.8 -18.55 20.2 -17.4 M11.15 -21.05 Q5.35 -15.75 5.35 -17.35 9.45 -24.0 10.2 -24.0 14.6 -24.0 11.3 -21.3 L11.3 -21.75 Q11.3 -23.35 9.85 -23.35 9.3 -23.35 8.95 -22.65 8.6 -22.05 8.6 -21.6 8.6 -20.2 11.15 -21.05 M0.95 3.4 Q4.4 -0.6 7.6 -2.25 8.75 -2.85 8.75 -5.9 8.75 -6.45 9.1 -6.95 9.5 -7.55 10.05 -7.55 11.0 -7.55 11.55 -5.95 L11.95 -4.0 11.5 -2.15 Q10.85 -0.65 9.7 -0.65 8.85 -0.65 8.45 -1.15 L8.2 -1.75 Q7.2 -1.1 5.0 1.65 2.7 4.55 2.7 5.5 L2.8 6.45 2.65 6.5 Q2.1 6.85 1.65 7.65 1.2 8.15 -0.15 7.65 L-0.1 8.65 Q-0.1 10.5 -1.85 10.7 -1.4 11.8 -1.0 15.8 -0.65 19.55 -0.65 22.35 -0.65 23.4 -0.95 24.4 -1.5 26.1 -2.7 26.1 -3.8 26.1 -4.05 25.25 L-4.2 24.05 -4.05 23.3 -3.7 24.3 Q-3.35 24.8 -2.45 24.8 -1.45 24.8 -1.2 23.0 -1.2 20.4 -1.45 19.4 -1.8 18.05 -2.9 18.05 -3.5 18.05 -3.75 18.4 L-4.05 18.9 -4.95 13.95 -4.95 13.65 -4.9 13.5 -4.9 13.8 Q-4.45 14.65 -3.5 14.65 -2.9 14.65 -2.45 13.75 -2.15 13.1 -2.15 12.7 -2.15 10.6 -3.7 10.6 L-4.35 10.95 -4.55 9.9 Q-4.55 7.05 -4.0 4.7 -3.1 0.6 -0.85 0.6 -0.2 0.6 0.15 0.9 L0.55 1.45 Q-0.25 1.0 -1.4 1.65 -2.65 2.25 -2.65 3.3 L-2.55 4.7 Q-2.2 6.05 -1.05 6.05 -0.15 6.05 0.95 3.4 M-4.05 23.05 Q-4.5 22.05 -4.5 20.6 L-4.35 19.75 -4.2 19.45 -4.05 23.05 M9.5 5.4 L9.1 6.2 9.25 5.75 9.5 5.4 M9.75 21.05 Q9.3 20.6 8.75 19.4 8.2 18.2 8.2 17.75 8.2 17.0 8.6 16.45 9.0 15.95 9.45 15.95 10.8 15.95 12.05 18.55 13.05 20.6 13.05 21.25 13.05 22.15 12.65 23.5 12.15 25.35 11.35 25.35 10.0 25.35 9.55 23.95 L10.0 24.55 11.0 24.8 Q12.1 24.8 12.3 23.15 L12.2 21.65 Q11.9 20.3 10.7 20.3 10.05 20.3 9.85 20.6 L9.75 21.05 M1.75 44.75 L1.2 45.95 -0.15 44.95 -0.95 44.65 -0.45 43.85 0.35 43.3 1.0 43.75 1.75 44.75 M-2.85 39.45 L-2.85 39.4 -3.0 38.9 -3.1 38.1 -2.25 31.7 -2.0 32.55 -1.95 32.65 Q-2.25 37.1 -2.7 39.2 L-2.65 39.4 -2.85 39.45" fill="#ffffff" fill-opacity="0.69803923" fill-rule="evenodd" stroke="none"/>
    <path d="M18.8 -19.75 Q18.85 -21.1 19.25 -21.25 20.15 -21.55 20.95 -22.45 L21.3 -22.9 21.35 -22.95 21.3 -23.1 21.7 -23.2 22.0 -23.25 Q22.95 -23.25 23.4 -22.15 23.4 -20.2 22.5 -18.8 21.55 -17.4 20.2 -17.4 18.8 -18.55 18.8 -19.3 L18.8 -19.75 M11.3 -21.3 L11.2 -21.25 11.15 -21.05 Q8.6 -20.2 8.6 -21.6 8.6 -22.05 8.95 -22.65 9.3 -23.35 9.85 -23.35 11.3 -23.35 11.3 -21.75 L11.3 -21.3 M-4.05 23.3 L-4.05 23.05 -4.2 19.45 -4.05 18.9 -3.75 18.4 Q-3.5 18.05 -2.9 18.05 -1.8 18.05 -1.45 19.4 -1.2 20.4 -1.2 23.0 -1.45 24.8 -2.45 24.8 -3.35 24.8 -3.7 24.3 L-4.05 23.3 M-4.95 13.65 L-5.0 12.6 -4.85 11.6 -4.35 10.95 -3.7 10.6 Q-2.15 10.6 -2.15 12.7 -2.15 13.1 -2.45 13.75 -2.9 14.65 -3.5 14.65 -4.45 14.65 -4.9 13.8 L-4.9 13.5 -4.95 13.65 M0.55 1.45 Q1.15 2.3 0.95 3.4 -0.15 6.05 -1.05 6.05 -2.2 6.05 -2.55 4.7 L-2.65 3.3 Q-2.65 2.25 -1.4 1.65 -0.25 1.0 0.55 1.45 M9.55 23.95 L9.55 23.7 9.5 23.45 9.4 21.8 9.5 21.1 9.75 21.05 9.85 20.6 Q10.05 20.3 10.7 20.3 11.9 20.3 12.2 21.65 L12.3 23.15 Q12.1 24.8 11.0 24.8 L10.0 24.55 9.55 23.95 M-2.85 39.45 L-2.65 39.45 Q-2.05 39.45 -2.1 40.1 L-2.15 41.15 Q-1.85 42.4 -1.4 42.75 L-2.4 42.9 -3.4 42.8 -3.55 40.6 -3.4 39.65 Q-3.25 39.45 -2.9 39.45 L-2.85 39.45" fill="#ffffff" fill-rule="evenodd" stroke="none"/>
  </g>
</svg>
