<?xml version="1.0" encoding="UTF-8" standalone="no"?>
<svg xmlns:xlink="http://www.w3.org/1999/xlink" height="83.3px" width="91.65px" xmlns="http://www.w3.org/2000/svg">
  <g transform="matrix(1.0, 0.0, 0.0, 1.0, 9.8, 37.35)">
    <path d="M22.85 -28.95 L21.55 -29.05 21.35 -29.55 21.15 -30.55 Q21.15 -31.15 24.3 -34.0 28.0 -37.35 30.75 -37.35 L31.5 -37.3 31.8 -37.1 Q32.85 -35.6 28.55 -32.2 24.45 -28.95 22.85 -28.95 M21.7 -23.2 L23.4 -24.4 Q23.7 -23.8 23.4 -22.15 23.4 -22.6 22.9 -22.9 L21.7 -23.2 M20.2 -17.4 Q18.85 -16.25 16.65 -12.4 15.0 -9.5 13.4 -9.5 11.7 -9.5 11.2 -9.85 10.55 -10.35 10.55 -12.05 10.55 -12.6 13.55 -14.65 17.1 -17.1 18.8 -19.75 18.8 -18.8 19.2 -18.1 19.6 -17.4 20.2 -17.4 M11.15 -21.05 L10.8 -20.8 10.4 -20.5 Q5.75 -16.95 5.6 -17.05 L5.35 -17.35 Q10.0 -24.0 10.2 -24.0 L12.45 -23.8 12.6 -23.65 12.75 -22.9 11.35 -21.5 Q11.55 -22.15 10.9 -22.7 L9.85 -23.35 8.6 -21.6 Q8.6 -20.95 8.9 -20.8 L9.65 -20.65 10.8 -20.9 11.0 -21.0 11.15 -21.05 M8.5 -1.1 L8.2 -1.75 6.45 -0.1 Q4.85 1.5 4.3 2.45 L3.45 3.55 5.2 3.65 Q8.1 0.4 8.5 -1.1 M0.95 3.4 L5.55 -0.5 Q8.5 -3.25 9.05 -3.95 6.85 -5.45 6.85 -6.85 L7.2 -7.85 Q7.65 -8.85 8.45 -9.6 9.5 -9.05 10.6 -7.65 11.95 -5.8 11.95 -3.9 11.95 -2.95 10.35 0.6 8.75 4.15 8.75 5.15 8.75 5.7 9.1 6.95 L9.7 9.15 Q10.4 12.7 10.7 16.5 L12.05 18.95 Q13.05 20.65 13.05 21.25 L12.8 24.05 11.95 25.15 11.35 25.35 10.45 24.75 11.0 24.8 11.85 24.6 12.15 24.4 12.35 22.4 Q12.35 20.3 10.7 20.3 L9.9 20.45 9.85 20.6 9.75 21.05 Q6.7 10.8 5.5 9.1 4.85 10.6 4.2 10.8 3.35 10.15 2.85 8.45 2.5 7.2 2.5 6.55 L1.05 7.5 Q0.35 7.75 -0.1 8.65 -1.2 10.8 -1.65 10.9 L-1.85 10.75 Q-1.85 12.15 -1.25 15.8 -0.65 19.45 -0.65 21.6 -0.65 24.15 -1.2 25.2 -1.7 26.1 -2.7 26.1 -4.55 26.1 -4.05 23.3 L-3.15 24.45 Q-2.85 24.8 -2.45 24.8 L-1.65 24.6 -1.45 24.35 -1.2 22.4 Q-0.9 18.05 -2.9 18.05 -3.55 18.05 -3.75 18.3 L-4.05 18.9 -4.95 13.65 Q-4.6 14.65 -3.5 14.65 L-2.65 14.45 -2.45 14.2 -2.15 12.7 -2.35 11.55 -2.5 10.75 -4.35 10.95 Q-4.45 9.4 -4.0 6.65 L-5.35 6.05 -6.75 5.6 Q-6.85 7.45 -7.2 8.1 -7.55 8.8 -8.55 8.8 -9.8 8.8 -9.8 7.2 -9.8 2.1 -8.2 -0.1 -7.2 -1.5 -5.75 -1.5 -4.8 -1.5 -4.7 -0.9 L-4.3 1.1 -0.85 0.6 Q-0.2 0.6 0.15 0.9 L0.55 1.45 Q-0.1 1.55 -1.15 2.15 -2.6 3.0 -2.6 3.95 -2.6 5.3 -1.95 5.85 L-1.05 6.05 Q-0.25 5.45 0.95 3.4 M-4.05 23.05 L-4.5 20.6 -4.4 19.75 -4.2 19.45 -4.05 23.05 M29.6 -1.55 L29.15 -0.35 Q28.65 0.15 27.95 0.15 27.25 0.15 26.8 -0.35 26.3 -0.85 26.3 -1.55 26.3 -2.25 26.8 -2.75 27.25 -3.25 27.95 -3.25 28.65 -3.25 29.15 -2.75 L29.6 -1.55 M33.7 -2.15 L31.55 -1.65 30.75 -1.7 30.7 -1.8 Q30.3 -2.05 30.3 -3.05 30.3 -3.9 31.0 -4.75 31.9 -5.85 33.4 -5.85 L34.75 -5.45 36.05 -5.05 Q36.25 -5.05 37.25 -6.4 38.8 -7.9 41.55 -8.25 L46.45 -8.45 49.15 -7.25 Q56.3 -0.9 56.3 2.95 56.3 5.25 54.8 5.25 52.45 5.25 51.3 3.65 50.65 2.7 50.05 0.05 49.4 -2.5 48.65 -3.5 47.4 -5.15 44.85 -5.15 L40.2 -4.65 36.15 -3.85 35.2 -3.05 35.4 -3.95 Q35.4 -4.7 34.9 -5.2 34.35 -5.75 33.6 -5.75 32.85 -5.75 32.35 -5.2 31.8 -4.7 31.8 -3.95 31.8 -3.2 32.35 -2.65 32.85 -2.15 33.6 -2.15 L33.7 -2.15 M76.15 -15.05 L76.65 -14.7 76.8 -14.1 Q76.8 -13.1 76.3 -12.6 75.9 -12.2 75.4 -12.2 74.1 -12.2 72.75 -12.9 71.05 -13.8 71.05 -15.3 L71.1 -16.0 71.25 -16.3 71.55 -16.7 72.45 -16.9 73.65 -16.65 74.45 -16.15 Q73.15 -15.4 73.15 -14.5 L73.35 -13.6 Q73.8 -12.8 74.95 -12.8 L75.85 -13.45 Q76.3 -14.05 76.25 -14.55 L76.15 -15.05 M81.85 -10.1 Q81.85 -9.5 81.45 -9.05 81.0 -8.6 80.4 -8.6 79.8 -8.6 79.4 -9.05 78.95 -9.5 78.95 -10.1 78.95 -10.7 79.4 -11.15 79.8 -11.6 80.4 -11.6 81.0 -11.6 81.45 -11.15 81.85 -10.7 81.85 -10.1 M55.65 1.85 Q55.65 -0.45 53.2 -1.3 50.7 -2.15 50.7 0.15 50.7 0.65 51.75 2.6 52.9 4.75 53.6 4.75 54.6 4.75 55.2 3.45 L55.65 1.85 M3.15 17.65 Q3.15 18.4 2.75 18.95 2.3 19.5 1.7 19.5 1.1 19.5 0.7 18.95 0.25 18.4 0.25 17.65 0.25 16.9 0.7 16.35 1.1 15.8 1.7 15.8 2.3 15.8 2.75 16.35 3.15 16.9 3.15 17.65 M5.85 29.15 Q6.05 29.0 7.25 28.6 8.1 28.3 8.55 27.5 8.35 31.75 9.2 35.25 L10.15 39.55 9.85 40.6 Q9.4 41.35 8.5 41.35 6.65 41.35 6.4 40.25 L5.8 34.55 Q5.3 32.7 5.3 31.7 5.3 30.7 5.85 29.15 M3.05 43.4 Q2.45 43.4 2.0 42.75 1.55 42.1 1.55 41.15 1.55 39.5 2.85 38.9 L4.3 38.65 Q5.8 38.65 5.8 40.15 5.8 41.1 5.4 41.95 4.7 43.4 3.05 43.4 M1.75 44.75 L1.2 45.95 -0.95 44.65 0.35 43.3 1.75 44.75 M-2.7 39.65 L-2.35 32.95 -2.25 32.45 Q-2.15 32.05 -1.95 32.65 L-2.7 39.65" fill="#ffffff" fill-opacity="0.69803923" fill-rule="evenodd" stroke="none"/>
    <path d="M18.8 -19.75 Q19.0 -21.05 19.75 -21.75 L21.7 -23.2 22.9 -22.9 Q23.4 -22.6 23.4 -22.15 23.4 -20.2 22.5 -18.8 21.55 -17.4 20.2 -17.4 19.6 -17.4 19.2 -18.1 18.8 -18.8 18.8 -19.75 M11.35 -21.5 L10.8 -20.9 9.65 -20.65 8.9 -20.8 Q8.6 -20.95 8.6 -21.6 L9.85 -23.35 10.9 -22.7 Q11.55 -22.15 11.35 -21.5 M11.0 -21.0 L11.3 -21.3 11.15 -21.05 11.0 -21.0 M10.45 24.75 L10.0 24.55 9.55 23.95 9.4 21.8 Q9.45 21.1 9.7 21.15 L9.75 21.05 9.85 20.6 9.9 20.45 10.7 20.3 Q12.35 20.3 12.35 22.4 L12.15 24.4 11.85 24.6 11.0 24.8 10.45 24.75 M-4.05 23.3 L-4.05 23.05 -4.2 19.45 -4.05 18.9 -3.75 18.3 Q-3.55 18.05 -2.9 18.05 -0.9 18.05 -1.2 22.4 L-1.45 24.35 -1.65 24.6 -2.45 24.8 Q-2.85 24.8 -3.15 24.45 L-4.05 23.3 M-4.95 13.65 Q-5.05 11.85 -4.35 10.95 L-2.5 10.75 -2.35 11.55 -2.15 12.7 -2.45 14.2 -2.65 14.45 -3.5 14.65 Q-4.6 14.65 -4.95 13.65 M0.55 1.45 Q1.05 2.6 0.95 3.4 -0.25 5.45 -1.05 6.05 L-1.95 5.85 Q-2.6 5.3 -2.6 3.95 -2.6 3.0 -1.15 2.15 -0.1 1.55 0.55 1.45 M35.2 -3.05 L34.9 -2.65 Q34.4 -2.15 33.7 -2.15 L33.6 -2.15 Q32.85 -2.15 32.35 -2.65 31.8 -3.2 31.8 -3.95 31.8 -4.7 32.35 -5.2 32.85 -5.75 33.6 -5.75 34.35 -5.75 34.9 -5.2 35.4 -4.7 35.4 -3.95 L35.2 -3.05 M74.45 -16.15 L75.65 -15.8 Q76.15 -15.5 76.15 -15.05 L76.25 -14.55 Q76.3 -14.05 75.85 -13.45 L74.95 -12.8 Q73.8 -12.8 73.35 -13.6 L73.15 -14.5 Q73.15 -15.4 74.45 -16.15 M55.65 1.85 L55.2 3.45 Q54.6 4.75 53.6 4.75 52.9 4.75 51.75 2.6 50.7 0.65 50.7 0.15 50.7 -2.15 53.2 -1.3 55.65 -0.45 55.65 1.85 M8.55 27.5 Q8.1 28.3 7.25 28.6 6.05 29.0 5.85 29.15 5.35 28.75 5.0 28.0 L4.7 27.15 Q4.7 26.3 5.35 25.7 6.05 25.05 7.2 25.05 8.3 25.05 8.6 26.0 8.85 26.7 8.55 27.5 M-2.7 39.65 L-2.4 39.55 -2.45 42.4 -2.35 42.9 -3.35 42.95 -3.55 40.6 -2.7 39.65" fill="#ffffff" fill-rule="evenodd" stroke="none"/>
  </g>
</svg>
