<?xml version="1.0" encoding="UTF-8" standalone="no"?>
<svg xmlns:xlink="http://www.w3.org/1999/xlink" height="101.35px" width="91.65px" xmlns="http://www.w3.org/2000/svg">
  <g transform="matrix(1.0, 0.0, 0.0, 1.0, 9.8, 50.3)">
    <path d="M61.95 -49.95 L62.85 -50.3 62.75 -49.65 62.45 -48.95 61.95 -49.95 M54.95 -45.0 Q48.0 -43.4 44.7 -37.85 L42.55 -34.4 Q41.35 -32.9 39.45 -32.9 L38.9 -32.5 38.1 -31.5 36.75 -32.9 37.95 -33.65 39.25 -33.6 Q39.85 -33.6 39.8 -34.35 L39.8 -35.4 40.25 -35.7 41.0 -36.0 Q41.3 -36.05 41.25 -36.5 L41.15 -37.65 Q41.15 -38.7 43.95 -41.0 48.35 -44.7 57.05 -47.8 55.65 -46.95 55.25 -46.05 L54.95 -45.0 M26.35 -35.6 L30.75 -37.35 31.75 -37.3 31.8 -37.3 Q32.05 -37.7 32.05 -36.7 L30.7 -34.7 Q29.3 -35.9 28.9 -35.9 L27.25 -35.75 26.35 -35.6 M27.85 -32.45 L24.3 -30.3 Q22.15 -29.15 21.55 -29.05 L21.35 -29.4 21.15 -30.55 21.75 -31.25 22.9 -32.7 23.3 -31.85 Q23.5 -31.55 24.4 -31.55 25.4 -31.55 27.85 -32.45 M37.5 -31.2 Q37.85 -31.3 37.85 -30.3 L36.6 -27.6 Q35.25 -25.2 34.55 -24.65 33.15 -25.15 33.15 -26.0 L33.8 -28.9 Q34.95 -31.55 37.5 -31.2 M14.05 -47.7 L14.7 -47.45 14.95 -46.95 14.05 -47.7 M16.35 -40.75 Q16.9 -38.05 15.4 -36.3 13.7 -34.3 13.7 -32.25 L13.75 -31.5 12.6 -32.35 11.4 -28.35 10.7 -25.25 Q10.7 -24.2 11.55 -23.9 L12.8 -23.7 Q12.75 -23.5 13.3 -22.85 13.9 -22.15 13.9 -21.6 13.9 -19.9 11.8 -18.9 9.2 -17.65 8.4 -16.2 L8.45 -19.05 7.2 -17.85 Q6.8 -17.5 5.8 -17.15 L5.8 -17.25 7.0 -19.4 9.1 -22.35 8.8 -20.85 9.55 -20.65 Q10.05 -21.45 9.85 -23.35 L9.65 -23.2 9.9 -24.9 9.45 -27.55 9.0 -30.2 Q9.0 -31.4 9.7 -32.25 10.7 -33.45 12.8 -33.1 L11.65 -34.1 Q11.4 -34.2 11.4 -35.85 L12.3 -39.0 Q13.15 -42.3 13.0 -43.5 L13.85 -41.55 14.35 -39.65 14.3 -39.6 14.95 -39.55 16.35 -40.75 M9.25 -22.6 L9.35 -22.7 9.4 -22.85 9.35 -22.1 9.3 -21.8 9.25 -22.25 9.25 -22.6 M21.7 -23.2 L23.4 -24.4 Q23.6 -23.65 23.4 -22.15 23.4 -22.6 22.9 -22.9 L21.7 -23.2 M20.05 -17.15 Q19.4 -12.7 16.4 -10.65 L13.3 -9.5 Q11.25 -9.5 9.05 -13.15 L9.1 -13.15 Q9.9 -12.35 11.3 -13.15 L13.4 -14.8 16.15 -14.75 Q17.1 -15.55 17.1 -16.75 L17.15 -17.2 Q17.65 -17.7 18.8 -19.75 18.9 -18.55 19.2 -18.0 19.4 -17.6 20.05 -17.15 M10.05 -7.55 L11.3 -5.2 11.95 -3.65 Q11.95 -1.7 10.25 0.9 8.5 3.45 8.5 5.45 8.5 5.95 8.95 6.55 L9.4 7.6 8.8 9.95 Q8.45 12.8 9.4 15.25 9.95 16.65 11.8 17.65 13.05 18.35 13.05 22.1 13.05 23.4 12.05 24.6 L11.95 22.5 10.7 20.3 9.75 21.05 Q7.2 14.3 7.1 9.95 7.1 8.9 6.8 8.7 6.6 8.5 4.8 8.15 L4.85 7.2 4.8 6.4 3.45 6.15 Q2.75 6.3 2.55 6.8 L1.9 7.3 -0.35 9.35 Q-1.95 10.75 -1.95 11.6 -1.95 12.6 -1.55 13.45 -0.65 20.3 -0.65 22.2 -0.65 24.55 -1.25 25.45 -1.75 26.1 -2.75 26.1 L-4.0 26.0 -4.05 24.9 -3.5 24.5 -1.15 24.75 -1.1 20.95 Q-1.1 20.55 -1.45 19.75 -1.9 18.75 -2.65 18.1 L-2.85 14.5 Q-2.6 14.0 -2.5 12.65 L-2.5 10.75 -3.25 10.85 -4.05 10.25 -4.0 7.35 Q-4.0 7.1 -4.3 6.8 L-5.2 5.95 -6.75 5.6 -7.0 8.6 -7.35 8.7 -8.35 8.8 -9.65 8.65 -9.8 7.2 Q-9.8 2.85 -8.55 0.55 -7.45 -1.5 -5.75 -1.5 -5.05 -1.5 -4.65 -1.0 -4.05 -0.3 -4.3 1.1 L-3.5 0.95 Q-3.25 1.35 -3.15 1.85 L-2.05 2.15 Q-0.85 2.15 0.25 1.15 L1.0 3.35 5.05 0.2 Q8.45 -2.55 9.05 -3.95 L8.0 -5.15 Q8.85 -5.15 9.45 -5.85 10.05 -6.55 10.05 -7.55 M2.55 10.9 L2.35 12.2 2.2 13.55 Q2.2 16.45 2.65 17.55 3.05 18.5 4.1 18.6 3.65 19.75 2.4 20.45 1.75 20.2 1.25 19.75 0.25 18.95 0.25 17.65 0.25 17.15 0.7 16.55 L1.1 15.4 0.7 12.6 2.55 10.9 M7.45 2.45 Q8.1 1.0 8.2 -1.75 L6.75 -0.15 Q5.15 0.4 4.0 1.6 3.1 2.55 3.1 3.0 L3.3 5.05 4.4 5.15 Q5.0 5.15 5.55 4.55 L7.45 2.45 M21.3 -6.65 Q21.3 -4.9 20.6 -4.1 20.2 -3.65 19.65 -3.65 19.0 -3.65 18.7 -4.1 L18.45 -4.6 Q19.55 -5.8 20.15 -7.2 20.8 -8.8 20.25 -9.45 21.3 -8.8 21.3 -6.65 M35.65 -18.85 L35.3 -17.4 33.25 -17.55 Q32.55 -17.55 29.75 -15.7 L27.05 -13.85 Q25.05 -13.85 25.05 -15.55 L26.6 -18.7 Q28.7 -21.7 31.25 -21.7 L33.35 -20.45 35.65 -18.85 M21.7 2.6 Q21.35 3.8 20.4 4.65 19.35 5.65 18.2 5.35 16.35 5.5 16.35 3.8 16.45 2.55 17.6 0.5 19.85 -3.55 25.1 -7.8 L26.5 -6.6 24.6 -2.75 Q25.75 -2.15 26.7 -2.15 27.3 -2.15 27.45 -2.5 L27.95 -3.25 29.5 -2.75 Q28.2 1.25 27.5 2.55 26.0 1.85 23.9 2.1 L21.9 2.0 Q21.15 1.9 21.7 2.6 M33.7 -2.15 L30.75 -1.7 30.5 -2.05 30.3 -3.05 Q30.3 -3.75 31.0 -4.65 31.95 -5.85 33.4 -5.85 L34.75 -5.45 36.05 -5.05 Q36.55 -5.05 38.5 -6.35 39.7 -7.0 41.55 -7.7 43.75 -8.55 44.6 -8.55 48.75 -8.55 50.35 -6.9 51.6 -5.7 55.05 -0.2 53.2 -1.5 52.15 -1.5 51.55 -1.5 51.05 -0.65 L50.7 0.15 53.6 4.75 Q55.2 4.1 55.55 3.25 L55.75 1.2 Q56.45 2.75 56.35 3.9 56.25 5.25 55.0 5.25 51.4 5.25 49.6 -1.0 48.7 -4.15 47.95 -5.3 46.65 -7.25 44.35 -7.25 42.1 -7.25 40.95 -5.75 39.55 -3.9 35.2 -3.05 L33.6 -5.75 31.8 -3.95 Q32.6 -2.95 33.7 -2.15 M54.0 -13.65 L54.3 -15.3 54.25 -16.55 53.45 -16.8 52.6 -16.9 Q51.85 -16.9 51.3 -16.35 50.85 -15.85 50.85 -15.3 L51.05 -14.35 51.4 -13.95 47.9 -13.3 46.75 -14.85 51.0 -16.5 Q54.5 -17.7 57.05 -17.7 L60.25 -17.3 Q60.85 -16.95 60.85 -15.7 60.85 -13.4 60.15 -12.6 59.75 -12.15 58.75 -12.15 L56.9 -12.6 56.95 -12.6 Q57.65 -12.6 58.2 -13.25 58.7 -13.95 58.7 -14.9 58.7 -15.85 58.2 -16.5 57.65 -17.2 56.95 -17.2 56.25 -17.2 55.75 -16.5 55.2 -15.85 55.2 -14.9 55.2 -13.95 55.75 -13.25 L56.3 -12.75 Q54.8 -13.2 54.0 -13.65 M76.15 -15.05 L76.45 -15.05 76.75 -15.15 76.8 -15.15 76.8 -12.4 75.65 -12.2 Q72.3 -12.6 71.05 -15.3 L72.3 -16.1 74.45 -16.15 73.25 -13.9 73.55 -12.95 74.95 -12.8 75.95 -12.95 76.15 -15.05 M67.0 -14.85 Q67.0 -14.2 66.55 -13.7 66.05 -13.25 65.4 -13.25 64.75 -13.25 64.3 -13.7 63.8 -14.2 63.8 -14.85 63.8 -15.5 64.3 -15.95 64.75 -16.45 65.4 -16.45 66.05 -16.45 66.55 -15.95 L67.0 -14.85 M81.85 -10.1 Q81.85 -9.5 81.45 -9.05 81.0 -8.6 80.4 -8.6 79.8 -8.6 79.4 -9.05 78.95 -9.5 78.95 -10.1 78.95 -10.7 79.4 -11.15 79.8 -11.6 80.4 -11.6 81.0 -11.6 81.45 -11.15 81.85 -10.7 81.85 -10.1 M75.85 -2.05 L75.3 -1.4 73.85 -4.05 71.05 -10.45 72.5 -11.8 Q74.95 -9.35 75.7 -5.8 76.2 -3.45 75.85 -2.05 M76.45 6.9 Q80.0 13.95 80.0 14.55 79.25 17.1 77.8 18.3 L76.55 18.15 76.35 16.75 Q76.35 16.25 76.75 15.7 L77.1 14.6 76.2 13.3 Q75.25 11.75 75.25 8.7 L76.45 6.9 M78.15 21.65 Q78.15 22.25 77.75 22.65 77.35 23.05 76.8 23.05 76.25 23.05 75.85 22.65 75.45 22.25 75.45 21.65 75.45 21.05 75.85 20.65 76.25 20.25 76.8 20.25 77.35 20.25 77.75 20.65 78.15 21.05 78.15 21.65 M26.85 7.0 Q26.85 7.6 26.45 8.0 26.05 8.4 25.5 8.4 24.95 8.4 24.55 8.0 24.15 7.6 24.15 7.0 24.15 6.4 24.55 6.0 24.95 5.6 25.5 5.6 26.05 5.6 26.45 6.0 26.85 6.4 26.85 7.0 M26.7 31.05 Q25.0 30.5 25.0 28.35 L26.2 27.0 Q26.2 26.5 25.8 26.2 25.4 25.9 25.4 25.4 L26.75 21.65 Q26.75 19.75 26.25 18.75 L25.5 17.1 25.05 16.0 24.3 14.95 21.6 12.95 Q19.25 11.3 18.6 11.3 L18.2 11.3 15.55 9.15 17.35 7.8 Q19.9 9.2 23.55 12.5 29.3 17.75 29.3 21.8 28.2 29.25 26.7 31.05 M5.85 29.15 L8.55 27.5 7.85 29.1 Q7.55 29.75 7.55 30.35 7.55 32.0 8.05 34.2 8.65 36.55 8.7 37.95 8.1 37.95 7.7 38.6 7.3 39.25 7.3 40.15 L6.2 36.0 5.3 31.7 5.55 30.2 5.85 29.15 M3.6 39.0 L5.15 39.1 Q5.8 39.25 5.8 40.0 5.8 40.85 3.9 43.2 L4.95 40.6 Q4.95 39.25 4.45 39.1 L3.6 39.0 M3.5 43.7 Q3.5 44.45 4.1 45.0 4.65 45.55 5.5 45.55 L5.05 45.9 Q4.7 46.25 4.7 46.85 L5.2 47.9 6.3 49.6 Q2.6 49.95 0.3 47.7 -1.45 46.0 -1.45 44.25 L1.25 42.2 1.75 43.35 Q2.05 43.7 2.85 43.7 L3.5 43.7 M6.5 45.25 L7.0 43.9 8.25 45.1 6.5 45.25 M9.5 45.3 L9.6 44.65 Q9.75 44.2 10.55 43.9 L12.7 44.7 18.15 45.25 18.3 46.0 18.3 48.25 13.25 48.8 11.5 46.45 Q10.55 45.5 9.5 45.3 M10.05 49.6 L7.45 49.7 7.6 49.1 Q7.75 48.6 8.35 48.6 L9.95 48.8 10.05 49.6 M28.25 34.5 Q28.25 35.55 27.85 36.3 27.4 37.0 26.8 37.0 26.2 37.0 25.8 36.3 25.35 35.55 25.35 34.5 25.35 33.45 25.8 32.75 26.2 32.0 26.8 32.0 27.4 32.0 27.85 32.75 28.25 33.45 28.25 34.5 M25.4 48.0 L25.9 48.25 26.15 49.15 Q26.15 49.95 25.15 50.5 24.2 51.05 23.1 51.05 L20.45 50.65 Q19.65 50.2 19.35 49.15 21.0 47.6 23.45 47.3 L21.75 48.8 Q21.95 50.2 22.5 50.5 L23.35 50.6 Q25.85 50.6 25.45 48.35 L25.4 48.0 M-0.05 -12.55 Q-0.05 -11.2 -0.85 -10.2 -1.7 -9.15 -3.15 -9.15 -3.75 -9.15 -5.05 -10.45 L-4.05 -11.55 Q-3.3 -11.1 -2.15 -12.1 L-0.75 -13.55 -0.35 -13.15 -0.2 -13.1 Q-0.05 -13.55 -0.05 -12.55 M-1.25 6.0 L-1.85 2.65 -2.35 3.3 -2.55 4.3 -1.25 6.0 M-6.15 3.45 Q-6.15 2.85 -6.55 2.4 -7.0 1.95 -7.6 1.95 -8.2 1.95 -8.6 2.4 -9.05 2.85 -9.05 3.45 -9.05 4.05 -8.6 4.5 -8.2 4.95 -7.6 4.95 -7.0 4.95 -6.55 4.5 -6.15 4.05 -6.15 3.45 M-2.7 39.65 L-2.0 32.35 -1.95 33.95 Q-1.95 34.85 -2.7 39.65" fill="#ffffff" fill-opacity="0.69803923" fill-rule="evenodd" stroke="none"/>
    <path d="M62.45 -48.95 Q62.45 -47.3 60.25 -46.15 58.05 -45.0 54.95 -45.0 L55.25 -46.05 Q55.65 -46.95 57.05 -47.8 L59.4 -48.9 61.95 -49.95 62.45 -48.95 M30.7 -34.7 L30.4 -33.0 Q29.8 -31.95 27.85 -32.45 25.4 -31.55 24.4 -31.55 23.5 -31.55 23.3 -31.85 L22.9 -32.7 Q22.9 -33.9 23.9 -34.75 24.9 -35.6 26.35 -35.6 L27.25 -35.75 28.9 -35.9 Q29.3 -35.9 30.7 -34.7 M13.0 -43.5 Q12.0 -45.5 12.0 -46.5 L12.5 -46.95 14.05 -47.7 14.95 -46.95 15.85 -43.85 16.35 -40.75 14.95 -39.55 14.3 -39.6 14.35 -39.65 13.85 -41.55 13.0 -43.5 M13.75 -31.5 L13.45 -29.8 Q13.1 -28.7 13.1 -28.2 13.1 -27.35 13.6 -26.7 14.25 -25.85 15.4 -25.9 L15.4 -24.9 Q15.05 -24.55 12.8 -23.7 L11.55 -23.9 Q10.7 -24.2 10.7 -25.25 L11.4 -28.35 12.6 -32.35 13.75 -31.5 M9.1 -22.35 L9.25 -22.6 9.25 -22.25 9.3 -21.8 9.35 -22.1 9.4 -22.85 9.5 -23.1 9.65 -23.2 9.85 -23.35 Q10.05 -21.45 9.55 -20.65 L8.8 -20.85 9.1 -22.35 M18.8 -19.75 Q19.65 -21.45 20.15 -21.9 L21.7 -23.2 22.9 -22.9 Q23.4 -22.6 23.4 -22.15 23.4 -20.1 22.45 -18.6 21.45 -17.15 20.05 -17.15 19.4 -17.6 19.2 -18.0 18.9 -18.55 18.8 -19.75 M8.0 -5.15 Q7.15 -6.85 5.9 -7.2 4.65 -7.55 4.1 -8.55 4.2 -9.55 4.45 -9.8 4.65 -10.1 5.4 -10.1 7.3 -10.1 8.65 -9.05 L10.05 -7.55 Q10.05 -6.55 9.45 -5.85 8.85 -5.15 8.0 -5.15 M12.05 24.6 L12.15 24.75 9.7 24.65 Q9.4 21.8 9.75 21.05 L10.7 20.3 11.95 22.5 12.05 24.6 M4.8 8.15 Q3.85 8.15 3.2 8.95 2.55 9.75 2.55 10.9 L0.7 12.6 Q-0.2 13.1 -1.55 13.45 -1.95 12.6 -1.95 11.6 -1.95 10.75 -0.35 9.35 L1.9 7.3 2.55 6.8 Q2.75 6.3 3.45 6.15 L4.8 6.4 4.85 7.2 4.8 8.15 M-3.5 24.5 Q-3.1 24.1 -2.75 22.6 L-2.45 20.95 -2.65 18.1 Q-1.9 18.75 -1.45 19.75 -1.1 20.55 -1.1 20.95 L-1.15 24.75 -3.5 24.5 M-2.85 14.5 Q-2.75 11.9 -3.25 10.85 L-2.5 10.75 -2.5 12.65 Q-2.6 14.0 -2.85 14.5 M-3.5 0.95 Q-3.45 -0.4 -2.85 -1.25 -2.3 -2.15 -1.5 -2.05 -0.7 -2.0 -0.15 -1.05 0.35 -0.1 0.25 1.15 -0.85 2.15 -2.05 2.15 L-3.15 1.85 Q-3.25 1.35 -3.5 0.95 M6.75 -0.15 L7.35 1.3 7.45 2.45 5.55 4.55 Q5.0 5.15 4.4 5.15 L3.3 5.05 3.1 3.0 Q3.1 2.55 4.0 1.6 5.15 0.4 6.75 -0.15 M55.05 -0.2 L55.75 1.2 55.55 3.25 Q55.2 4.1 53.6 4.75 L50.7 0.15 51.05 -0.65 Q51.55 -1.5 52.15 -1.5 53.2 -1.5 55.05 -0.2 M35.2 -3.05 L34.75 -2.4 33.7 -2.15 Q32.6 -2.95 31.8 -3.95 L33.6 -5.75 35.2 -3.05 M51.4 -13.95 L51.05 -14.35 50.85 -15.3 Q50.85 -15.85 51.3 -16.35 51.85 -16.9 52.6 -16.9 L53.45 -16.8 54.25 -16.55 54.3 -15.3 54.0 -13.65 51.4 -13.95 M56.3 -12.75 L55.75 -13.25 Q55.2 -13.95 55.2 -14.9 55.2 -15.85 55.75 -16.5 56.25 -17.2 56.95 -17.2 57.65 -17.2 58.2 -16.5 58.7 -15.85 58.7 -14.9 58.7 -13.95 58.2 -13.25 57.65 -12.6 56.95 -12.6 L56.9 -12.6 56.3 -12.75 M74.45 -16.15 L75.65 -15.8 Q76.15 -15.5 76.15 -15.05 L75.95 -12.95 74.95 -12.8 73.55 -12.95 73.25 -13.9 74.45 -16.15 M8.55 27.5 L5.85 29.15 4.7 27.15 7.2 25.05 8.2 25.85 Q8.45 26.1 8.55 27.5 M7.3 40.15 Q7.3 39.25 7.7 38.6 8.1 37.95 8.7 37.95 L9.15 39.35 9.7 39.85 Q10.15 40.15 10.15 40.7 10.15 42.15 8.8 42.5 7.6 41.2 7.3 40.15 M3.9 43.2 L3.5 43.65 3.5 43.7 2.85 43.7 Q2.05 43.7 1.75 43.35 L1.25 42.2 Q1.45 41.45 2.0 40.6 2.7 39.5 3.6 39.0 L4.45 39.1 Q4.95 39.25 4.95 40.6 L3.9 43.2 M5.5 45.55 L6.5 45.25 8.25 45.1 9.5 45.3 Q10.55 45.5 11.5 46.45 L13.25 48.8 13.1 50.3 12.85 50.55 12.05 50.8 Q11.8 50.8 10.05 49.6 L9.95 48.8 8.35 48.6 Q7.75 48.6 7.6 49.1 L7.45 49.7 6.3 49.6 5.2 47.9 4.7 46.85 Q4.7 46.25 5.05 45.9 L5.5 45.55 M23.45 47.3 L23.5 47.2 Q24.95 47.55 25.4 48.0 L25.45 48.35 Q25.85 50.6 23.35 50.6 L22.5 50.5 Q21.95 50.2 21.75 48.8 L23.45 47.3 M-1.25 6.0 L-2.55 4.3 -2.35 3.3 -1.85 2.65 -1.25 6.0 M-6.15 3.45 Q-6.15 4.05 -6.55 4.5 -7.0 4.95 -7.6 4.95 -8.2 4.95 -8.6 4.5 -9.05 4.05 -9.05 3.45 -9.05 2.85 -8.6 2.4 -8.2 1.95 -7.6 1.95 -7.0 1.95 -6.55 2.4 -6.15 2.85 -6.15 3.45 M-2.7 39.65 L-2.35 40.1 -2.35 42.9 -3.35 42.95 -3.55 39.65 -2.7 39.65" fill="#ffffff" fill-rule="evenodd" stroke="none"/>
  </g>
</svg>
