<?xml version="1.0" encoding="UTF-8" standalone="no"?>
<svg xmlns:xlink="http://www.w3.org/1999/xlink" height="144.0px" width="123.2px" xmlns="http://www.w3.org/2000/svg">
  <g transform="matrix(1.0, 0.0, 0.0, 1.0, 18.5, 81.6)">
    <path d="M64.2 -76.55 L65.25 -77.7 65.7 -78.85 Q65.7 -79.4 64.05 -80.1 L65.8 -81.6 Q66.8 -81.6 67.0 -80.9 L67.35 -80.0 Q66.95 -78.85 65.85 -77.75 L64.2 -76.55 M61.7 -78.25 Q59.75 -75.6 57.7 -74.55 56.45 -73.85 56.25 -72.45 53.8 -70.15 51.9 -67.65 L48.05 -62.7 Q45.15 -59.35 44.3 -57.85 L43.2 -54.25 Q42.45 -51.95 40.55 -51.95 39.85 -51.95 39.35 -52.55 38.85 -53.2 38.85 -54.3 38.85 -56.4 45.95 -64.85 54.2 -74.7 61.7 -78.25 M61.95 -49.95 L62.85 -50.3 62.75 -49.6 62.45 -48.95 61.95 -49.95 M55.25 -44.2 Q50.9 -42.4 48.0 -39.85 L38.1 -31.5 36.75 -32.9 Q38.55 -33.6 40.45 -33.6 L40.35 -35.2 Q40.35 -39.0 45.65 -42.25 47.5 -43.45 57.05 -47.8 L55.3 -45.8 54.95 -45.25 55.05 -44.4 55.25 -44.2 M30.7 -34.7 L28.9 -35.9 26.35 -35.6 Q31.9 -37.6 32.05 -36.9 L30.7 -34.7 M22.9 -32.7 L23.65 -31.85 Q23.9 -31.55 24.2 -31.55 25.75 -31.55 27.85 -32.45 26.25 -31.35 21.55 -29.05 L21.35 -29.4 21.15 -30.55 21.65 -31.15 22.9 -32.7 M37.8 -31.15 L37.85 -30.75 Q37.9 -30.25 36.45 -27.65 L34.55 -24.65 33.15 -26.0 Q33.45 -27.05 34.65 -28.55 36.15 -30.6 37.8 -31.15 M14.05 -47.7 L14.7 -47.45 14.95 -46.95 14.05 -47.7 M14.15 -40.6 L14.05 -39.85 14.15 -38.7 Q12.95 -38.1 12.4 -36.95 L12.1 -35.85 Q12.1 -33.85 13.0 -33.25 L14.05 -32.95 Q14.15 -31.3 14.35 -30.65 L13.8 -31.3 12.6 -32.35 Q11.55 -29.2 11.65 -28.65 L10.45 -26.0 9.5 -23.3 8.65 -20.5 Q8.4 -19.5 8.4 -18.0 8.4 -17.05 9.0 -16.1 L8.25 -15.5 8.25 -15.55 Q8.2 -16.25 7.75 -16.85 7.15 -17.55 6.55 -16.4 5.95 -15.25 4.45 -15.5 L1.35 -15.45 Q0.35 -15.15 -0.3 -14.7 -0.65 -12.65 -2.1 -12.55 -3.5 -12.45 -3.9 -12.05 -5.3 -11.65 -6.25 -10.65 -7.2 -9.65 -7.2 -8.5 -7.2 -7.85 -6.55 -7.2 L-5.9 -6.7 -4.4 -7.85 -3.15 -8.95 -1.1 -11.1 Q-0.1 -12.15 0.7 -11.85 L2.25 -13.65 2.85 -12.7 Q3.25 -12.35 4.15 -12.35 L6.2 -12.65 6.0 -11.9 4.8 -9.9 4.2 -9.2 Q1.75 -9.2 0.0 -7.1 -1.75 -5.0 -1.75 -2.0 -2.65 0.7 -3.0 0.7 -3.55 0.7 -3.8 0.25 L-4.5 -0.7 -5.75 3.05 -5.75 3.1 -8.6 4.95 Q-10.25 6.4 -10.4 7.4 -11.2 7.05 -12.45 7.9 L-14.5 9.8 Q-15.2 9.9 -15.35 10.8 L-15.7 11.45 -15.85 12.45 -15.7 13.4 -15.35 14.0 -15.9 14.45 Q-16.5 14.85 -17.1 14.85 -18.1 14.85 -18.3 14.45 L-18.5 12.7 Q-18.5 11.45 -15.0 7.75 -11.2 3.75 -10.35 -1.15 -9.9 2.3 -8.55 2.3 L-7.95 2.25 -8.1 2.2 Q-7.2 0.25 -7.2 -0.75 -7.2 -1.9 -7.7 -2.7 L-8.8 -3.8 -9.5 -3.65 Q-7.65 -12.6 -2.35 -17.7 2.9 -22.85 6.05 -21.5 6.7 -22.0 7.0 -24.0 L7.55 -27.9 Q8.55 -33.1 12.8 -33.1 L11.9 -34.05 Q11.4 -34.8 11.4 -35.85 L13.0 -43.5 14.15 -40.6 M14.75 -30.05 L15.1 -29.75 15.25 -29.0 14.75 -30.05 M10.05 -7.55 L10.6 -8.65 Q11.1 -9.45 12.45 -9.6 L11.4 -10.05 Q10.9 -10.25 10.9 -10.85 10.9 -11.45 13.35 -13.95 L18.8 -19.75 19.35 -18.3 16.0 -15.2 Q14.95 -14.05 14.95 -13.05 14.95 -11.7 15.7 -10.45 14.55 -10.5 13.7 -9.95 12.8 -9.45 12.75 -8.7 12.7 -7.95 13.55 -7.35 14.35 -6.8 15.6 -6.8 L14.6 -5.65 14.55 -5.75 13.05 -5.05 Q12.2 -4.65 12.2 -4.1 12.2 -3.1 13.45 -2.45 14.0 -2.55 14.65 -3.9 L14.65 -3.95 14.95 -4.7 16.25 -6.15 17.3 -7.6 Q18.15 -8.45 18.15 -9.45 L18.0 -10.05 17.6 -10.05 18.05 -10.55 Q18.35 -10.95 18.95 -10.95 23.75 -10.95 25.3 -10.05 26.5 -9.35 26.5 -7.25 26.5 -6.25 25.5 -4.25 L24.0 -4.4 23.4 -4.4 23.35 -4.45 22.95 -5.2 23.4 -5.85 Q24.0 -7.0 23.9 -8.25 23.75 -9.9 21.9 -9.9 19.75 -9.9 17.55 -5.7 15.75 -2.25 15.75 -0.95 15.75 -0.2 16.05 0.45 16.6 1.6 17.9 1.6 L19.95 0.6 Q22.0 -0.6 22.9 -1.7 23.65 -0.75 25.25 -0.75 26.65 -0.75 27.6 -1.35 L29.2 -2.9 29.5 -2.75 28.55 -0.05 27.5 2.55 Q24.0 1.35 21.4 3.2 L21.15 3.5 Q22.5 4.15 24.35 6.3 L24.55 6.0 Q24.95 5.6 25.5 5.6 26.05 5.6 26.45 6.0 26.85 6.4 26.85 7.0 26.85 7.6 26.45 8.0 L25.9 8.35 Q28.85 12.7 29.05 17.25 29.3 22.85 28.4 25.95 L26.6 30.85 24.9 30.65 24.7 30.5 24.5 29.75 25.3 29.05 Q26.05 28.25 26.1 27.3 L25.8 26.6 Q25.4 25.95 25.4 25.4 L26.1 24.5 Q26.75 23.3 26.75 21.7 26.75 20.6 22.85 16.5 L15.55 9.15 Q16.45 7.95 16.15 4.95 15.1 4.85 15.15 1.55 L15.0 -1.1 Q14.65 -2.3 13.1 -2.3 L12.35 -2.05 Q11.6 -1.7 11.1 -1.05 L10.95 -1.0 10.4 -1.5 9.35 -1.8 Q8.9 -1.8 8.55 -1.45 L6.75 -0.15 3.1 3.25 Q5.9 2.95 6.9 3.6 L7.2 2.95 7.85 4.65 Q8.4 5.95 8.9 6.5 L8.1 6.7 7.8 8.2 Q7.75 12.25 8.55 13.6 9.1 14.5 10.5 14.5 11.5 14.5 11.1 14.35 L10.75 11.75 10.6 10.8 Q11.1 11.45 12.35 11.65 L11.7 13.1 11.45 14.25 11.95 21.4 13.3 21.25 14.85 21.4 15.05 24.7 15.0 27.9 Q13.85 28.25 13.45 28.85 13.1 29.3 13.05 30.1 L12.75 28.9 12.05 25.85 12.1 24.75 Q12.45 23.4 11.8 21.9 11.3 20.7 10.7 20.3 L9.75 21.05 8.15 15.3 5.5 9.1 Q3.95 10.3 3.35 12.3 L4.15 16.1 4.15 20.1 2.4 20.45 Q1.85 20.45 1.2 19.9 0.25 19.15 0.25 17.65 0.25 17.1 0.95 16.2 L1.6 15.3 1.4 14.1 0.7 12.6 3.65 9.9 Q4.95 8.5 5.35 6.85 5.05 6.55 4.6 6.5 L2.95 7.05 1.3 7.75 2.35 9.1 Q1.75 10.4 0.45 11.05 -0.7 11.7 -1.95 11.6 L-1.55 13.45 -0.65 19.6 Q-0.4 22.35 -1.15 24.75 -0.9 20.9 -1.35 19.4 -1.75 18.05 -2.9 18.05 L-3.65 18.15 -3.6 15.75 Q-3.8 14.45 -4.8 13.7 -3.6 14.55 -3.0 14.65 L-2.5 13.75 -2.15 12.7 -2.25 11.65 -4.6 12.15 Q-6.2 12.15 -7.3 13.05 -8.45 13.95 -8.45 15.2 L-9.3 14.5 -9.95 14.1 -11.0 14.3 -11.65 14.65 -11.0 12.95 Q-11.5 13.1 -10.35 11.95 -8.8 10.45 -8.8 9.65 L-7.8 9.6 -7.25 10.25 Q-6.65 10.9 -6.0 10.9 -4.4 10.9 -3.7 8.35 L-3.85 7.3 -1.65 4.0 Q-2.05 3.35 -2.6 3.35 -2.9 3.35 -3.15 1.5 L0.25 1.15 1.0 3.35 Q2.7 1.8 5.95 -0.3 8.35 -2.25 8.0 -5.15 8.85 -5.15 9.45 -5.85 10.05 -6.55 10.05 -7.55 M21.7 -23.2 L23.4 -24.4 23.4 -22.15 Q23.4 -22.6 22.9 -22.9 L21.7 -23.2 M26.55 -4.65 L26.5 -4.75 26.45 -5.5 Q26.45 -8.3 30.6 -9.0 L36.65 -10.3 37.9 -12.5 Q39.35 -14.4 42.45 -14.4 44.1 -14.4 45.0 -13.6 45.9 -12.85 47.45 -12.85 L48.3 -13.3 46.75 -14.85 50.95 -16.1 50.95 -14.9 52.65 -14.6 Q53.7 -15.05 53.95 -15.25 L54.45 -15.75 Q54.4 -16.45 53.6 -16.75 57.3 -17.3 60.75 -19.05 62.45 -19.85 63.85 -20.6 L70.95 -22.65 Q62.2 -16.5 61.3 -16.4 L56.7 -15.65 Q54.4 -14.9 53.6 -13.65 52.75 -12.25 51.85 -11.85 L51.4 -12.95 Q50.8 -13.65 49.9 -13.65 L48.85 -13.45 48.7 -12.85 Q48.1 -11.8 42.45 -10.95 36.6 -10.05 35.75 -9.5 L35.3 -7.95 34.8 -7.15 29.15 -4.5 27.9 -4.65 26.6 -4.7 26.55 -4.65 M37.45 -4.75 L41.65 -5.15 42.35 -4.75 38.05 -3.6 35.2 -3.05 33.7 -5.6 34.25 -5.65 34.7 -4.75 Q34.95 -4.4 36.05 -4.4 37.05 -4.4 37.45 -4.75 M45.3 -6.05 Q48.15 -6.1 51.1 -4.1 53.6 -2.45 55.05 -0.2 L52.15 -1.5 51.1 -1.35 50.8 -0.65 50.7 0.15 Q50.7 1.2 53.6 4.75 L55.35 3.65 Q55.7 3.15 55.75 1.2 56.3 2.6 56.3 3.8 56.3 5.25 55.0 5.25 52.15 5.25 51.4 4.25 51.0 3.75 50.9 1.75 50.7 -2.75 44.5 -5.1 L44.95 -5.45 45.3 -6.05 M33.7 -2.15 L30.75 -1.7 30.5 -2.05 30.3 -3.05 Q30.3 -3.35 31.0 -4.05 31.9 -5.0 33.45 -5.6 L31.8 -3.95 33.7 -2.15 M9.55 6.9 L9.6 6.9 9.85 7.15 10.2 8.95 9.55 6.9 M17.3 31.85 Q19.5 36.0 19.5 37.2 L19.0 40.7 Q18.45 43.4 17.0 44.25 15.55 45.1 15.2 37.0 L14.15 33.0 14.85 34.1 15.6 34.25 16.65 34.0 Q17.35 33.55 17.35 32.65 L17.3 31.85 M-1.15 24.8 L-2.1 26.1 -3.85 26.1 -4.05 23.45 -2.6 24.3 -1.15 24.8 M-11.1 20.9 L-12.0 22.3 -12.85 21.2 -12.05 21.35 Q-11.6 21.35 -11.1 20.9 M14.75 -19.55 Q14.25 -19.95 13.55 -19.95 L13.4 -21.6 13.55 -21.9 14.75 -19.55 M35.3 -17.4 Q33.1 -18.65 30.75 -16.45 28.0 -13.85 27.05 -13.85 25.8 -13.85 25.15 -14.85 L25.3 -14.9 Q27.1 -16.25 27.55 -16.8 28.15 -17.5 28.15 -18.55 L27.95 -19.55 27.7 -20.0 29.3 -21.05 29.25 -21.0 29.25 -20.65 Q29.05 -20.25 29.4 -19.2 29.9 -17.9 31.2 -17.9 L33.65 -18.3 35.65 -18.85 35.3 -17.4 M29.2 -22.65 Q29.2 -21.6 28.5 -20.85 27.75 -20.15 26.7 -20.15 25.65 -20.15 24.95 -20.85 24.2 -21.6 24.2 -22.65 24.2 -23.7 24.95 -24.4 25.65 -25.15 26.7 -25.15 27.75 -25.15 28.5 -24.4 29.2 -23.7 29.2 -22.65 M79.25 -25.7 Q77.05 -23.15 78.35 -23.15 79.65 -23.15 76.0 -22.55 72.35 -21.95 71.15 -22.55 69.95 -23.15 69.95 -24.1 69.95 -25.05 71.0 -25.7 72.05 -26.35 73.55 -26.4 75.05 -26.45 78.25 -27.35 81.45 -28.25 79.25 -25.7 M56.95 -17.2 L56.15 -16.75 55.45 -16.0 56.6 -16.75 56.95 -17.2 M54.7 -23.2 Q49.4 -20.65 48.3 -19.95 47.2 -19.3 45.65 -19.3 44.1 -19.3 43.0 -19.95 41.9 -20.65 41.9 -21.6 41.9 -22.55 43.0 -23.2 44.1 -23.9 47.7 -24.5 L55.65 -25.4 Q60.0 -25.75 54.7 -23.2 M73.95 -12.85 L75.65 -12.8 Q76.65 -12.8 76.15 -12.85 L76.15 -15.05 76.75 -15.15 76.8 -15.15 76.8 -12.4 76.7 -12.25 76.05 -12.2 Q75.25 -12.2 73.95 -12.85 M74.45 -16.15 Q72.55 -14.15 72.85 -13.65 L73.85 -12.9 Q72.05 -13.8 71.05 -15.3 72.45 -16.0 74.45 -16.15 M67.0 -14.85 Q67.0 -14.2 66.55 -13.7 66.05 -13.25 65.4 -13.25 64.75 -13.25 64.3 -13.7 63.8 -14.2 63.8 -14.85 63.8 -15.5 64.3 -15.95 64.75 -16.45 65.4 -16.45 66.05 -16.45 66.55 -15.95 L67.0 -14.85 M81.85 -10.1 Q81.85 -9.5 81.45 -9.05 81.0 -8.6 80.4 -8.6 79.8 -8.6 79.4 -9.05 78.95 -9.5 78.95 -10.1 78.95 -10.7 79.4 -11.15 79.8 -11.6 80.4 -11.6 81.0 -11.6 81.45 -11.15 81.85 -10.7 81.85 -10.1 M75.3 -1.4 L73.2 -5.85 71.05 -10.45 72.5 -11.8 Q73.65 -11.0 74.85 -6.8 75.85 -3.25 75.85 -2.05 L75.3 -1.4 M102.95 7.2 L101.85 6.0 Q101.05 4.5 101.05 1.5 102.25 -0.35 102.25 -1.05 102.25 -2.3 100.15 -5.55 L99.15 -7.55 Q97.95 -9.4 96.4 -9.4 L95.05 -8.9 Q94.05 -8.35 93.75 -7.8 89.5 -4.95 88.35 -6.45 87.2 -7.95 89.9 -11.05 L90.75 -12.35 Q91.05 -12.8 91.65 -12.8 98.0 -12.8 101.5 -6.3 104.2 -1.25 104.2 4.85 L103.9 5.75 102.95 7.2 M104.7 9.25 Q104.7 9.95 104.25 10.45 103.75 10.95 103.05 10.95 102.35 10.95 101.9 10.45 101.4 9.95 101.4 9.25 101.4 8.55 101.9 8.05 102.35 7.55 103.05 7.55 103.75 7.55 104.25 8.05 104.7 8.55 104.7 9.25 M76.45 6.9 L79.35 12.45 Q80.0 13.7 80.0 14.55 79.4 16.9 77.8 18.3 L76.55 18.15 76.35 16.75 Q76.35 16.25 76.75 15.7 L77.1 14.6 76.2 13.45 Q75.25 11.75 75.25 8.7 L76.45 6.9 M78.15 21.65 Q78.15 22.25 77.75 22.65 77.35 23.05 76.8 23.05 76.25 23.05 75.85 22.65 75.45 22.25 75.45 21.65 75.45 21.05 75.85 20.65 76.25 20.25 76.8 20.25 77.35 20.25 77.75 20.65 78.15 21.05 78.15 21.65 M46.65 43.85 Q44.85 44.4 43.55 43.45 42.25 42.5 43.6 37.45 L43.85 35.5 Q43.85 31.6 43.0 30.25 42.4 29.25 40.6 28.95 L40.35 29.05 40.5 27.8 Q40.7 27.15 41.35 27.15 41.6 27.15 42.45 27.6 43.7 28.25 44.65 29.3 47.7 32.65 46.65 43.85 M64.35 42.95 L65.2 42.0 67.6 42.55 69.8 43.15 Q70.2 43.85 72.2 45.05 74.55 48.55 75.4 54.45 73.3 56.9 72.05 60.4 72.05 61.4 72.4 62.3 L71.15 61.45 Q70.75 61.2 70.75 60.65 70.75 59.75 71.85 57.3 L72.9 54.15 Q72.9 49.6 71.5 48.9 70.1 48.15 64.35 42.95 M5.85 29.15 L6.6 28.75 Q6.65 30.7 7.45 33.6 L8.7 38.1 Q7.75 39.2 7.3 40.15 L5.3 31.7 5.55 30.15 5.85 29.15 M3.6 39.0 L5.55 39.1 Q5.55 39.2 5.65 39.15 L5.75 39.0 5.8 39.6 5.3 40.75 3.9 43.2 4.8 41.0 4.95 40.1 4.9 39.35 4.7 39.1 3.6 39.0 M3.5 43.7 Q3.5 44.45 4.1 45.0 4.65 45.55 5.5 45.55 L5.05 45.9 Q4.7 46.25 4.7 46.85 L6.3 49.6 Q4.2 49.95 1.65 49.0 -1.25 47.85 -1.25 45.8 -1.25 43.7 1.25 42.2 1.25 42.8 1.9 43.25 2.55 43.7 3.5 43.7 M6.5 45.25 L7.0 43.9 7.6 44.5 7.8 45.15 6.5 45.25 M12.2 47.25 L13.45 47.4 13.3 48.8 13.25 48.8 12.2 47.25 M15.35 48.25 Q16.5 47.6 19.4 47.4 L23.45 47.3 22.35 48.25 Q21.4 49.1 21.4 49.75 21.4 50.4 21.65 50.7 L22.15 51.05 Q18.95 50.7 16.5 49.85 14.9 49.3 14.85 48.85 L15.5 48.85 15.95 48.65 15.35 48.25 M25.4 48.0 L26.1 48.7 Q25.8 48.7 25.6 48.5 L25.4 48.0 M26.1 48.75 L32.2 47.6 33.95 47.8 34.15 48.45 Q32.9 51.1 29.85 51.1 27.45 51.1 26.3 49.5 L26.35 49.5 26.1 48.75 M10.05 49.6 L7.45 49.7 7.55 49.0 Q7.7 48.6 8.35 48.6 L9.95 48.8 10.05 49.6 M28.25 34.5 Q28.25 35.55 27.85 36.3 27.4 37.0 26.8 37.0 26.2 37.0 25.8 36.3 25.35 35.55 25.35 34.5 25.35 33.45 25.8 32.75 26.2 32.0 26.8 32.0 27.4 32.0 27.85 32.75 28.25 33.45 28.25 34.5 M-2.7 39.65 L-2.0 32.35 -1.95 34.6 Q-1.95 35.25 -2.7 39.65" fill="#ffffff" fill-opacity="0.69803923" fill-rule="evenodd" stroke="none"/>
    <path d="M64.05 -80.1 Q65.7 -79.4 65.7 -78.85 L65.25 -77.7 64.2 -76.55 60.15 -74.75 Q56.8 -73.1 56.25 -72.45 56.45 -73.85 57.7 -74.55 59.75 -75.6 61.7 -78.25 L64.05 -80.1 M62.45 -48.95 Q62.45 -47.0 60.35 -45.6 58.25 -44.2 55.25 -44.2 L55.05 -44.4 54.95 -45.25 55.3 -45.8 57.05 -47.8 58.35 -48.1 61.95 -49.95 62.45 -48.95 M26.35 -35.6 L28.9 -35.9 30.7 -34.7 Q30.7 -33.75 29.9 -33.1 29.05 -32.45 27.85 -32.45 25.75 -31.55 24.2 -31.55 23.9 -31.55 23.65 -31.85 L22.9 -32.7 Q22.9 -33.9 23.9 -34.75 24.9 -35.6 26.35 -35.6 M13.0 -43.5 L12.35 -45.0 Q12.0 -45.85 12.0 -46.5 12.0 -46.9 14.05 -47.7 L14.95 -46.95 Q15.15 -44.4 14.8 -42.85 14.3 -41.45 14.15 -40.6 L13.0 -43.5 M14.15 -38.7 Q14.0 -37.35 14.0 -35.5 L14.05 -32.95 13.0 -33.25 Q12.1 -33.85 12.1 -35.85 L12.4 -36.95 Q12.95 -38.1 14.15 -38.7 M14.35 -30.65 L14.75 -30.05 15.25 -29.0 Q15.75 -24.45 15.05 -23.55 L14.2 -23.7 14.25 -23.8 14.95 -25.8 Q15.35 -26.8 15.35 -27.5 L15.0 -28.7 Q14.45 -29.7 13.2 -29.7 12.6 -29.7 11.65 -28.65 11.55 -29.2 12.6 -32.35 L13.8 -31.3 14.35 -30.65 M4.45 -15.5 L2.15 -15.3 2.1 -14.55 2.15 -13.8 2.25 -13.65 0.7 -11.85 0.75 -13.35 Q0.5 -14.3 -0.3 -14.7 0.35 -15.15 1.35 -15.45 L4.45 -15.5 M4.8 -9.9 L7.8 -8.65 Q9.7 -7.8 10.05 -7.55 10.05 -6.55 9.45 -5.85 8.85 -5.15 8.0 -5.15 L6.1 -7.1 4.2 -9.2 4.8 -9.9 M18.8 -19.75 L20.1 -21.45 21.7 -23.2 22.9 -22.9 Q23.4 -22.6 23.4 -22.15 L22.85 -19.4 Q21.3 -20.75 19.35 -18.3 L18.8 -19.75 M15.7 -10.45 Q16.65 -9.9 17.6 -10.05 L18.0 -10.05 18.15 -9.45 Q18.15 -8.45 17.3 -7.6 16.9 -7.2 15.6 -6.8 14.35 -6.8 13.55 -7.35 12.7 -7.95 12.75 -8.7 12.8 -9.45 13.7 -9.95 14.55 -10.5 15.7 -10.45 M25.5 -4.25 L26.55 -4.65 26.6 -4.7 27.9 -4.65 29.15 -4.5 Q29.35 -3.75 29.2 -2.9 L27.6 -1.35 Q26.65 -0.75 25.25 -0.75 23.65 -0.75 22.9 -1.7 23.55 -3.1 23.4 -4.4 L24.0 -4.4 25.5 -4.25 M50.95 -16.1 L52.2 -16.55 53.6 -16.75 Q54.4 -16.45 54.45 -15.75 L53.95 -15.25 Q53.7 -15.05 52.65 -14.6 L50.95 -14.9 50.95 -16.1 M35.3 -7.95 Q35.3 -6.6 35.95 -5.65 36.55 -4.75 37.45 -4.75 37.05 -4.4 36.05 -4.4 34.95 -4.4 34.7 -4.75 L34.25 -5.65 34.8 -7.15 35.3 -7.95 M41.65 -5.15 L44.55 -6.15 45.3 -6.05 44.95 -5.45 44.5 -5.1 42.35 -4.75 41.65 -5.15 M55.05 -0.2 L55.75 1.2 Q55.7 3.15 55.35 3.65 L53.6 4.75 Q50.7 1.2 50.7 0.15 L50.8 -0.65 51.1 -1.35 52.15 -1.5 55.05 -0.2 M35.2 -3.05 L34.75 -2.4 33.7 -2.15 31.8 -3.95 33.45 -5.6 33.7 -5.6 35.2 -3.05 M6.75 -0.15 L7.2 2.95 6.9 3.6 Q5.9 2.95 3.1 3.25 L6.75 -0.15 M8.9 6.5 L9.55 6.9 10.2 8.95 10.2 10.0 10.6 10.8 10.75 11.75 11.1 14.35 Q11.5 14.5 10.5 14.5 9.1 14.5 8.55 13.6 7.75 12.25 7.8 8.2 L8.1 6.7 8.9 6.5 M15.0 27.9 L17.3 31.8 17.3 31.85 17.35 32.65 Q17.35 33.55 16.65 34.0 L15.6 34.25 14.85 34.1 14.15 33.0 14.0 32.85 13.4 31.75 Q13.05 31.05 13.05 30.4 L13.05 30.1 Q13.1 29.3 13.45 28.85 13.85 28.25 15.0 27.9 M12.1 24.75 Q11.15 24.75 10.45 23.7 9.75 22.6 9.75 21.05 L10.7 20.3 Q11.3 20.7 11.8 21.9 12.45 23.4 12.1 24.75 M0.7 12.6 Q0.0 13.0 -1.55 13.45 L-1.95 11.6 Q-0.7 11.7 0.45 11.05 1.75 10.4 2.35 9.1 L1.3 7.75 2.95 7.05 4.6 6.5 Q5.05 6.55 5.35 6.85 4.95 8.5 3.65 9.9 L0.7 12.6 M-1.15 24.75 L-1.15 24.8 -2.6 24.3 -4.05 23.45 -3.65 18.25 -3.65 18.15 -2.9 18.05 Q-1.75 18.05 -1.35 19.4 -0.9 20.9 -1.15 24.75 M-4.8 13.7 L-4.95 13.65 -4.6 12.15 -2.25 11.65 -2.15 12.7 -2.5 13.75 -3.0 14.65 Q-3.6 14.55 -4.8 13.7 M-8.45 15.2 Q-8.55 16.4 -9.25 17.1 L-9.45 17.55 -10.25 19.6 -11.1 20.9 Q-11.6 21.35 -12.05 21.35 L-12.85 21.2 -12.95 21.1 -13.2 20.75 -13.25 20.7 -13.35 20.55 -13.55 20.25 Q-13.65 19.15 -13.4 18.3 -13.05 16.95 -11.65 14.65 L-11.0 14.3 -9.95 14.1 -9.3 14.5 -8.45 15.2 M-3.85 7.3 L-3.9 7.05 Q-3.4 6.1 -3.5 4.75 -3.7 3.05 -5.3 3.05 L-5.75 3.05 -4.5 -0.7 -3.8 0.25 Q-3.55 0.7 -3.0 0.7 -2.65 0.7 -1.75 -2.0 -0.9 -2.0 -0.3 -1.05 0.25 -0.15 0.25 1.15 L-3.15 1.5 Q-2.9 3.35 -2.6 3.35 -2.05 3.35 -1.65 4.0 L-3.85 7.3 M-10.35 -1.15 L-9.5 -3.65 -8.8 -3.8 -7.7 -2.7 Q-7.2 -1.9 -7.2 -0.75 -7.2 0.25 -8.1 2.2 L-7.95 2.25 -8.55 2.3 Q-9.9 2.3 -10.35 -1.15 M14.6 -5.65 L14.55 -5.65 14.6 -5.45 14.95 -4.7 14.65 -3.95 14.65 -3.9 Q14.0 -2.55 13.45 -2.45 12.2 -3.1 12.2 -4.1 12.2 -4.65 13.05 -5.05 L14.55 -5.75 14.6 -5.65 M23.4 -5.85 L22.95 -5.2 22.85 -5.3 23.4 -5.85 M-3.15 -8.95 L-4.4 -7.85 -5.9 -6.7 -6.55 -7.2 Q-7.2 -7.85 -7.2 -8.5 -7.2 -9.65 -6.25 -10.65 -5.3 -11.65 -3.9 -12.05 L-4.1 -11.05 Q-4.0 -9.9 -3.15 -8.95 M56.95 -17.2 L56.6 -16.75 55.45 -16.0 56.15 -16.75 56.95 -17.2 M76.15 -15.05 L76.15 -12.85 Q76.65 -12.8 75.65 -12.8 L73.95 -12.85 73.85 -12.9 72.85 -13.65 Q72.55 -14.15 74.45 -16.15 L75.65 -15.8 Q76.15 -15.5 76.15 -15.05 M64.35 42.95 Q61.55 42.55 60.6 41.7 60.0 41.2 59.85 40.15 L59.9 40.2 Q61.1 40.9 65.2 42.0 L64.35 42.95 M69.8 43.15 Q70.8 43.15 71.5 43.7 72.2 44.25 72.2 45.05 70.2 43.85 69.8 43.15 M75.4 54.45 Q77.15 55.25 77.9 56.75 78.6 58.25 77.95 59.8 77.3 61.3 75.7 61.95 L72.4 62.3 Q72.05 61.4 72.05 60.4 73.3 56.9 75.4 54.45 M5.85 29.15 L4.7 27.15 6.2 25.9 6.2 25.95 6.25 26.3 6.6 28.75 5.85 29.15 M8.7 38.1 Q8.8 38.55 9.25 39.2 L10.15 40.05 Q10.15 41.0 9.2 41.6 8.0 42.35 7.9 42.6 L7.3 40.15 Q7.75 39.2 8.7 38.1 M3.9 43.2 L3.5 43.7 Q2.55 43.7 1.9 43.25 1.25 42.8 1.25 42.2 L3.6 39.0 4.7 39.1 4.9 39.35 4.95 40.1 4.8 41.0 3.9 43.2 M5.5 45.55 L6.5 45.25 7.8 45.15 Q8.2 46.05 9.75 46.6 L12.2 47.25 13.25 48.8 13.1 50.6 12.25 50.8 10.05 49.6 9.95 48.8 8.35 48.6 Q7.7 48.6 7.55 49.0 L7.45 49.7 6.3 49.6 4.7 46.85 Q4.7 46.25 5.05 45.9 L5.5 45.55 M13.45 47.4 Q14.6 47.75 15.35 48.25 L15.95 48.65 15.5 48.85 14.85 48.85 13.3 48.8 13.45 47.4 M23.45 47.3 L23.5 47.2 25.4 48.0 25.6 48.5 Q25.8 48.7 26.1 48.7 L26.1 48.75 26.35 49.5 26.3 49.5 23.7 50.85 22.15 51.05 21.65 50.7 Q21.4 50.4 21.4 49.75 21.4 49.1 22.35 48.25 L23.45 47.3 M-2.7 39.65 L-2.35 40.1 -2.35 42.9 -3.35 42.95 -3.55 39.65 -2.7 39.65" fill="#ffffff" fill-rule="evenodd" stroke="none"/>
  </g>
</svg>
