<?xml version="1.0" encoding="UTF-8" standalone="no"?>
<svg xmlns:xlink="http://www.w3.org/1999/xlink" height="135.3px" width="90.35px" xmlns="http://www.w3.org/2000/svg">
  <g transform="matrix(1.0, 0.0, 0.0, 1.0, 38.75, 29.15)">
    <path d="M42.6 22.1 L40.85 21.75 40.45 21.65 42.6 22.1 M30.2 33.1 L30.55 32.95 31.7 32.6 33.95 31.9 33.35 32.15 32.0 32.55 30.55 32.95 32.0 32.55 31.15 32.85 29.2 33.55 30.2 33.1 M20.3 35.75 L21.1 35.65 12.5 37.7 8.75 38.55 14.55 37.15 14.6 37.15 20.3 35.75" fill="#ef8410" fill-rule="evenodd" stroke="none"/>
    <path d="M40.45 21.65 L35.8 20.95 35.25 20.85 36.65 21.05 37.95 21.2 38.0 21.15 40.45 21.65 M1.55 39.75 L8.6 38.6 6.75 39.05 1.65 39.75 1.55 39.8 1.3 39.8 1.55 39.75 M23.5 35.1 L30.2 33.1 29.2 33.55 28.9 33.6 28.8 33.65 28.35 33.8 27.85 34.0 27.65 34.1 27.3 34.2 27.15 34.2 26.35 34.4 23.5 35.1 M46.55 23.15 L43.5 22.25 44.2 22.4 44.45 22.4 46.55 23.15" fill="#cc6f0f" fill-rule="evenodd" stroke="none"/>
    <path d="M42.6 22.1 L43.5 22.25 46.55 23.15 Q49.45 24.15 51.0 25.45 41.85 29.25 33.35 32.15 L33.95 31.9 31.7 32.6 30.55 32.95 30.2 33.1 23.5 35.1 21.5 35.6 Q14.8 37.45 8.6 38.6 L1.55 39.75 3.2 37.7 5.8 37.25 6.5 37.1 6.9 36.95 8.2 36.7 12.1 35.95 13.9 35.45 14.25 35.35 15.65 35.0 16.7 34.7 21.2 33.55 23.95 32.85 29.75 30.85 35.85 28.65 37.45 27.95 38.4 27.6 38.6 27.5 39.55 27.1 39.8 26.9 Q40.55 26.45 40.45 26.05 40.25 25.75 38.95 25.4 L31.05 24.3 15.15 24.8 16.7 23.95 17.0 23.7 17.1 23.65 17.0 23.55 16.8 23.5 14.6 23.5 17.4 20.1 17.75 20.1 20.6 20.2 21.4 20.15 31.7 20.65 33.5 20.75 34.4 20.8 35.25 20.85 35.8 20.95 40.45 21.65 40.85 21.75 42.6 22.1 M18.3 18.9 Q21.65 18.95 17.6 19.85 L18.3 18.9 M0.75 40.7 Q1.25 41.0 0.45 41.1 L0.75 40.7 M20.3 35.75 L14.6 37.15 14.55 37.15 8.75 38.55 12.5 37.7 21.1 35.65 20.3 35.75" fill="#ee830f" fill-rule="evenodd" stroke="none"/>
    <path d="M39.55 27.1 L38.6 27.5 38.4 27.6 37.45 27.95 35.85 28.65 29.75 30.85 23.95 32.85 21.2 33.55 16.7 34.7 15.65 35.0 14.25 35.35 13.9 35.45 12.1 35.95 8.2 36.7 6.9 36.95 6.5 37.1 5.8 37.25 3.2 37.7 11.45 27.45 Q23.95 26.95 39.35 27.05 L39.55 27.1 M5.8 37.25 L6.9 36.95 5.8 37.25 M38.6 27.5 L39.35 27.05 38.6 27.5 M21.2 33.55 Q29.25 31.05 37.45 27.95 29.25 31.05 21.2 33.55" fill="#424242" fill-rule="evenodd" stroke="none"/>
    <path d="M14.6 23.5 L16.8 23.5 17.0 23.55 17.1 23.65 17.0 23.7 16.7 23.95 15.15 24.8 31.05 24.3 38.95 25.4 Q40.25 25.75 40.45 26.05 40.55 26.45 39.8 26.9 L39.55 27.1 39.35 27.05 Q23.95 26.95 11.45 27.45 L14.4 23.7 14.6 23.5 M39.35 27.05 Q40.85 26.15 39.05 25.7 28.55 23.5 14.3 25.0 15.6 24.65 16.9 23.7 L14.4 23.7 16.9 23.7 Q15.6 24.65 14.3 25.0 28.55 23.5 39.05 25.7 40.85 26.15 39.35 27.05" fill="#2f2f2f" fill-rule="evenodd" stroke="none"/>
    <path d="M43.5 22.25 L42.6 22.1 40.45 21.65 35.8 20.95 35.25 20.85 34.4 20.8 33.5 20.75 31.7 20.65 21.4 20.15 20.6 20.2 17.75 20.1 17.4 20.1 M1.55 39.75 L8.6 38.6 Q14.8 37.45 21.5 35.6 L23.5 35.1 30.2 33.1 30.55 32.95 32.0 32.55 33.35 32.15 Q41.85 29.25 51.0 25.45 49.45 24.15 46.55 23.15 L43.5 22.25 M17.6 19.85 Q21.65 18.95 18.3 18.9 M1.3 39.8 L1.55 39.75 M0.45 41.1 Q1.25 41.0 0.75 40.7" fill="none" stroke="#4d2b06" stroke-linecap="round" stroke-linejoin="round" stroke-width="1.2000000000000002"/>
    <path d="M38.6 27.5 L38.4 27.6 37.45 27.95 Q29.25 31.05 21.2 33.55 L16.7 34.7 15.65 35.0 14.25 35.35 M12.1 35.95 L8.2 36.7 6.9 36.95 5.8 37.25 3.2 37.7 M14.4 23.7 L16.9 23.7 Q15.6 24.65 14.3 25.0 28.55 23.5 39.05 25.7 40.85 26.15 39.35 27.05 L38.6 27.5" fill="none" stroke="#4d2b06" stroke-linecap="round" stroke-linejoin="miter-clip" stroke-miterlimit="3.0" stroke-width="1.2000000000000002"/>
    <path d="M0.35 -16.7 L0.2 -16.5 0.15 -16.4 -0.1 -16.15 -0.35 -16.1 -0.4 -16.3 -0.4 -16.4 -0.35 -16.4 -0.3 -16.5 -0.2 -16.6 -0.15 -16.7 -0.1 -16.75 0.0 -16.95 0.0 -17.15 0.05 -17.25 0.1 -17.4 0.1 -17.5 0.15 -17.65 0.15 -18.25 0.1 -18.35 0.1 -18.55 0.05 -18.75 0.0 -18.85 0.0 -19.05 0.1 -19.35 0.3 -19.5 Q0.75 -19.6 0.75 -19.15 L0.8 -19.05 0.8 -18.7 0.8 -18.65 0.85 -18.55 0.85 -18.25 0.8 -18.15 0.8 -17.85 0.7 -17.5 0.7 -17.35 0.65 -17.2 0.55 -17.1 0.5 -16.95 0.45 -16.9 0.45 -16.8 0.35 -16.7 M24.95 -15.0 L27.15 -12.5 Q27.55 -11.45 27.55 -10.65 L25.9 -7.9 Q22.95 -10.6 24.95 -15.0" fill="#4d2b06" fill-rule="evenodd" stroke="none"/>
    <path d="M0.1 -19.35 L0.0 -19.05 0.0 -18.85 0.05 -18.75 0.1 -18.55 0.1 -18.35 0.15 -18.25 0.15 -17.65 0.1 -17.5 0.1 -17.4 0.05 -17.25 0.0 -17.15 0.0 -16.95 -0.1 -16.75 -0.15 -16.7 -0.2 -16.6 -0.3 -16.5 -0.35 -16.4 -0.4 -16.4 -0.4 -16.3 -0.35 -16.1 -0.1 -16.15 0.15 -16.4 0.2 -16.5 0.35 -16.7 Q1.6 -16.75 2.95 -15.45 L3.95 -14.25 4.0 -14.2 0.3 -11.45 -1.7 -11.5 -4.15 -11.4 -4.15 -13.0 -0.95 -20.25 0.1 -19.35" fill="#d55172" fill-rule="evenodd" stroke="none"/>
    <path d="M0.8 -18.7 L0.8 -19.05 0.75 -19.15 Q0.75 -19.6 0.3 -19.5 L0.1 -19.35 -0.95 -20.25 -1.45 -23.0 Q0.9 -20.0 2.9 -18.7 5.45 -17.1 7.35 -18.5 5.55 -16.55 4.75 -15.25 L4.0 -14.2 3.95 -14.25 3.7 -14.75 2.95 -16.15 1.95 -17.45 0.8 -18.7" fill="#7a0829" fill-rule="evenodd" stroke="none"/>
    <path d="M0.35 -16.7 L0.45 -16.8 0.45 -16.9 0.5 -16.95 0.55 -17.1 0.65 -17.2 0.7 -17.35 0.7 -17.5 0.8 -17.85 0.8 -18.15 0.85 -18.25 0.85 -18.55 0.8 -18.65 0.8 -18.7 1.95 -17.45 2.95 -16.15 3.7 -14.75 3.95 -14.25 2.95 -15.45 Q1.6 -16.75 0.35 -16.7 M-4.15 -11.4 L-1.7 -11.5 0.3 -11.45 -1.2 -10.35 Q-3.75 -9.7 -4.15 -11.4" fill="#d2b6a1" fill-rule="evenodd" stroke="none"/>
    <path d="M4.0 -14.2 L4.75 -15.25 Q5.55 -16.55 7.35 -18.5 10.3 -21.35 14.6 -22.85 17.35 -21.8 20.45 -19.4 L22.05 -18.1 22.75 -17.4 24.95 -15.0 Q22.95 -10.6 25.9 -7.9 L25.95 -7.8 25.25 -6.8 25.15 -6.55 25.1 -6.5 Q23.5 -3.5 22.8 -1.1 L22.45 0.5 Q22.25 1.85 22.3 3.55 L22.4 3.9 22.9 6.75 23.55 12.7 Q25.9 49.15 -16.45 42.75 -24.75 40.5 -28.65 33.7 -29.1 32.9 -27.85 29.6 L-27.7 29.2 Q-25.1 26.0 -25.1 24.6 L-25.15 24.25 Q-25.55 22.9 -29.4 23.85 -30.45 22.45 -32.0 20.9 L-29.65 16.95 Q-27.75 14.0 -32.6 12.75 -28.5 8.75 -28.65 3.9 -25.75 -5.45 -27.65 -4.15 -29.55 -2.9 -30.0 -2.95 -29.85 -4.65 -28.65 -6.75 -25.5 -12.35 -20.8 -18.0 -25.0 -8.6 -25.95 4.45 L-25.95 4.85 Q-26.25 10.55 -19.95 19.1 L-0.6 14.4 5.55 11.1 Q11.2 5.4 11.55 0.6 L11.4 -1.75 11.65 -2.2 11.4 -1.75 Q11.2 -0.3 10.6 0.6 8.75 3.3 2.85 0.8 L-2.4 0.35 Q-0.9 -1.3 2.25 -1.8 L3.05 -1.8 Q5.3 -1.9 6.9 -2.55 L11.45 -3.55 Q13.45 -8.55 15.8 -10.8 14.8 -15.05 12.05 -16.95 7.45 -16.5 4.0 -14.2 M22.3 3.55 L20.4 0.2 22.3 3.55 M2.85 0.8 L0.45 0.05 2.85 0.8" fill="#cc6f0f" fill-rule="evenodd" stroke="none"/>
    <path d="M-0.95 -20.25 L-4.15 -13.0 -4.15 -11.4 Q-3.75 -9.7 -1.2 -10.35 L0.3 -11.45 4.0 -14.2 Q7.45 -16.5 12.05 -16.95 14.8 -15.05 15.8 -10.8 13.45 -8.55 11.45 -3.55 L6.9 -2.55 Q5.3 -1.9 3.05 -1.8 L2.25 -1.8 Q-0.9 -1.3 -2.4 0.35 L2.85 0.8 Q8.75 3.3 10.6 0.6 11.2 -0.3 11.4 -1.75 L11.55 0.6 Q11.2 5.4 5.55 11.1 L-0.6 14.4 -19.95 19.1 Q-26.25 10.55 -25.95 4.85 L-25.95 4.45 Q-25.0 -8.6 -20.8 -18.0 L-19.4 -20.4 -14.55 -24.7 Q-12.3 -26.6 -7.4 -27.9 L-1.5 -27.75 Q-0.5 -26.25 -1.35 -25.9 L-1.45 -23.0 -0.95 -20.25" fill="#ee830f" fill-rule="evenodd" stroke="none"/>
    <path d="M7.35 -18.5 Q5.55 -16.55 4.75 -15.25 L4.0 -14.2 M-1.45 -23.0 Q0.9 -20.0 2.9 -18.7 5.45 -17.1 7.35 -18.5 10.3 -21.35 14.6 -22.85 17.35 -21.8 20.45 -19.4 L22.05 -18.1 22.75 -17.4 24.95 -15.0 27.15 -12.5 Q27.55 -11.45 27.55 -10.65 L27.2 -9.55 27.05 -9.3 25.95 -7.8 25.25 -6.8 25.15 -6.55 25.1 -6.5 Q23.5 -3.5 22.8 -1.1 L22.45 0.5 Q22.25 1.85 22.3 3.55 L22.4 3.9 22.9 6.75 23.55 12.7 Q25.9 49.15 -16.45 42.75 -24.75 40.5 -28.65 33.7 -29.1 32.9 -27.85 29.6 L-27.7 29.2 Q-25.1 26.0 -25.1 24.6 L-25.15 24.25 Q-25.55 22.9 -29.4 23.85 -30.45 22.45 -32.0 20.9 L-29.65 16.95 Q-27.75 14.0 -32.6 12.75 -28.5 8.75 -28.65 3.9 -25.75 -5.45 -27.65 -4.15 -29.55 -2.9 -30.0 -2.95 -29.85 -4.65 -28.65 -6.75 -25.5 -12.35 -20.8 -18.0 L-19.4 -20.4 -14.55 -24.7 Q-12.3 -26.6 -7.4 -27.9 L-1.5 -27.75 Q-0.5 -26.25 -1.35 -25.9 L-1.45 -23.0 -0.95 -20.25 M25.9 -7.9 L25.95 -7.8 M27.55 -10.65 L25.9 -7.9" fill="none" stroke="#4d2b06" stroke-linecap="round" stroke-linejoin="round" stroke-width="1.2000000000000002"/>
    <path d="M0.1 -19.35 L-0.95 -20.25 -4.15 -13.0 -4.15 -11.4 Q-3.75 -9.7 -1.2 -10.35 L0.3 -11.45 4.0 -14.2 3.95 -14.25 3.7 -14.75 2.95 -16.15 1.95 -17.45 0.8 -18.7" fill="none" stroke="#4d2b06" stroke-linecap="round" stroke-linejoin="round" stroke-width="0.8"/>
    <path d="M11.4 -1.75 L11.65 -2.2" fill="none" stroke="#4d2b06" stroke-linecap="round" stroke-linejoin="round" stroke-width="0.05"/>
    <path d="M20.4 0.2 L22.3 3.55 M0.45 0.05 L2.85 0.8 Q8.75 3.3 10.6 0.6 11.2 -0.3 11.4 -1.75" fill="none" stroke="#4d2b06" stroke-linecap="round" stroke-linejoin="round" stroke-width="1.2000000000000002"/>
    <path d="M-0.4 -17.9 L-0.35 -17.95 -0.2 -17.8 -0.2 -17.25 -0.25 -17.05 -0.25 -16.95 -0.3 -16.9 -0.3 -16.85 -0.5 -16.45 -0.55 -16.4 -0.6 -16.3 -0.7 -16.15 -0.8 -16.05 -0.8 -16.0 -0.85 -16.0 -0.9 -15.95 -0.95 -15.85 -1.1 -15.7 -1.2 -15.8 -1.25 -15.9 -1.3 -16.05 -1.3 -16.4 -1.25 -16.6 -1.25 -16.7 -1.2 -16.75 -1.2 -16.8 -1.0 -17.2 -1.0 -17.25 -0.95 -17.25 -0.9 -17.35 -0.7 -17.65 -0.45 -17.9 -0.4 -17.9 M2.3 -14.05 L2.35 -13.9 1.8 -13.35 1.5 -13.15 1.05 -12.75 0.85 -12.65 0.1 -12.15 0.0 -12.1 -0.05 -12.05 -0.2 -11.95 -0.9 -11.65 -1.05 -11.55 -1.2 -11.55 -1.4 -11.45 -1.55 -11.4 -1.7 -11.4 -1.75 -11.55 -1.2 -12.1 -0.9 -12.3 -0.45 -12.7 -0.25 -12.8 0.05 -13.05 0.45 -13.3 0.65 -13.4 0.8 -13.5 1.5 -13.8 1.65 -13.9 1.8 -13.9 2.0 -14.0 2.15 -14.05 2.3 -14.05" fill="#ffffff" fill-rule="evenodd" stroke="none"/>
    <path d="M2.95 -10.95 L2.25 -11.25 Q2.0 -11.5 2.0 -12.15 2.0 -13.35 2.25 -13.4 2.85 -13.5 3.35 -14.15 L4.25 -14.5 4.95 -15.35 5.55 -16.05 Q6.05 -16.6 6.55 -17.8 L6.95 -18.55 7.0 -18.8 7.7 -18.95 8.6 -18.8 8.7 -17.9 8.55 -17.05 8.3 -16.8 7.65 -16.15 6.75 -15.0 6.05 -14.5 Q5.9 -14.3 5.85 -13.0 L5.45 -12.15 4.9 -11.95 2.95 -10.95 M-0.95 -26.6 L-1.7 -23.65 -1.7 -23.55 Q-2.7 -24.4 -2.7 -25.35 L-2.6 -26.7 -0.95 -26.6 M-3.25 -21.25 Q-3.25 -21.8 -3.7 -22.05 L-4.2 -22.6 -3.25 -23.15 -2.3 -22.4 Q-2.15 -21.95 -2.45 -21.6 L-1.75 -21.4 Q-1.35 -21.25 -1.35 -20.4 -1.35 -19.35 -2.05 -19.05 L-4.8 -18.05 Q-5.5 -15.0 -6.55 -13.95 L-6.7 -14.0 -6.95 -13.95 Q-7.65 -17.35 -5.5 -19.6 L-3.25 -21.25" fill="#ffffff" fill-opacity="0.29803923" fill-rule="evenodd" stroke="none"/>
    <path d="M5.65 12.9 Q6.25 11.95 8.3 13.5 L16.15 18.7 Q22.9 23.35 25.25 24.8 L26.7 26.5 Q29.25 29.8 30.2 35.15 L30.45 37.65 29.05 36.15 28.55 35.6 26.15 32.45 Q26.1 33.75 27.45 35.7 30.15 38.5 31.8 42.35 32.7 47.05 30.7 52.45 L30.5 49.65 30.5 49.55 30.45 49.05 30.45 48.85 30.25 46.55 30.1 46.25 Q30.2 44.0 29.45 42.8 27.65 43.8 28.5 46.7 29.85 49.6 29.65 53.3 29.0 54.95 27.75 56.6 L21.5 64.95 Q21.05 64.4 21.35 63.2 L21.25 63.4 Q18.9 66.2 17.7 66.85 16.4 67.5 16.0 68.75 L15.9 69.2 Q15.65 70.25 15.7 71.75 L15.45 69.2 Q15.0 64.15 15.05 61.2 15.1 57.4 13.7 55.55 12.85 54.5 11.05 54.1 L8.7 54.2 Q7.05 55.25 7.8 57.15 L10.3 60.8 11.6 63.5 11.5 63.55 Q9.55 65.6 9.6 67.0 L9.45 67.65 9.45 66.95 9.15 63.85 Q8.7 61.5 7.95 60.5 L0.75 55.05 Q-6.0 49.9 -8.45 46.85 -13.45 27.75 1.9 17.3 4.15 15.4 5.65 12.9 M9.7 28.65 Q11.9 33.05 11.2 35.75 10.85 37.25 8.75 39.25 6.95 41.05 7.0 42.6 7.1 44.85 10.75 48.9 L11.55 49.95 Q11.6 48.35 12.7 46.4 14.2 43.85 14.5 42.8 16.0 37.85 9.7 28.65" fill="#ffff9d" fill-rule="evenodd" stroke="none"/>
    <path d="M25.25 24.8 Q22.9 23.35 16.15 18.7 L8.3 13.5 Q6.25 11.95 5.65 12.9 5.1 11.55 11.7 7.55 9.95 12.4 15.05 14.4 20.1 16.4 22.9 19.0 24.95 23.0 25.25 24.8 M-8.45 46.85 Q-6.0 49.9 0.75 55.05 L7.95 60.5 Q8.7 61.5 9.15 63.85 L9.45 66.95 9.45 67.65 Q8.05 64.7 5.05 62.0 2.55 59.75 1.05 58.9 -3.4 56.2 -8.35 52.3 L-10.6 50.45 -8.45 46.85 M11.6 63.5 L10.3 60.8 7.8 57.15 Q7.05 55.25 8.7 54.2 L11.05 54.1 Q12.85 54.5 13.7 55.55 15.1 57.4 15.05 61.2 15.0 64.15 15.45 69.2 L15.7 71.75 15.55 72.8 15.5 74.3 Q13.35 71.45 12.5 69.2 12.05 68.0 11.95 67.0 L11.6 63.5 M29.65 53.3 Q29.85 49.6 28.5 46.7 27.65 43.8 29.45 42.8 30.2 44.0 30.1 46.25 L30.45 48.85 30.45 49.05 30.5 49.55 30.5 49.65 Q30.55 51.4 29.65 53.3 M31.8 42.35 Q30.15 38.5 27.45 35.7 26.1 33.75 26.15 32.45 L28.55 35.6 29.05 36.15 Q31.2 39.05 31.8 42.35 M11.55 49.95 L10.75 48.9 Q7.1 44.85 7.0 42.6 6.95 41.05 8.75 39.25 10.85 37.25 11.2 35.75 11.9 33.05 9.7 28.65 16.0 37.85 14.5 42.8 14.2 43.85 12.7 46.4 11.6 48.35 11.55 49.95" fill="#d1d16b" fill-rule="evenodd" stroke="none"/>
    <path d="M5.65 12.9 Q4.15 15.4 1.9 17.3 -13.45 27.75 -8.45 46.85 L-10.6 50.45 M11.7 7.55 Q5.1 11.55 5.65 12.9" fill="none" stroke="#4d2b06" stroke-linecap="round" stroke-linejoin="round" stroke-width="1.0"/>
    <path d="M9.45 67.65 L9.6 67.0 Q9.55 65.6 11.5 63.55 L11.6 63.5 11.95 67.0 Q12.05 68.0 12.5 69.2 13.35 71.45 15.5 74.3 L15.55 72.8 15.7 71.75 Q15.65 70.25 15.9 69.2 L16.0 68.75 Q16.4 67.5 17.7 66.85 18.9 66.2 21.25 63.4 L21.35 63.2 Q21.05 64.4 21.5 64.95 L27.75 56.6 Q29.0 54.95 29.65 53.3 30.55 51.4 30.5 49.65 L30.7 52.45 Q32.7 47.05 31.8 42.35 31.2 39.05 29.05 36.15 L30.45 37.65 30.2 35.15 Q29.25 29.8 26.7 26.5 L25.25 24.8 Q24.95 23.0 22.9 19.0 20.1 16.4 15.05 14.4 9.95 12.4 11.7 7.55 M30.1 46.25 L30.25 46.55 30.45 48.85 30.45 49.05 30.5 49.55 30.5 49.65 M30.1 46.25 L30.45 48.85 M9.45 67.65 Q8.05 64.7 5.05 62.0 2.55 59.75 1.05 58.9 -3.4 56.2 -8.35 52.3 L-10.6 50.45" fill="none" stroke="#4d2b06" stroke-linecap="round" stroke-linejoin="miter-clip" stroke-miterlimit="3.0" stroke-width="1.2000000000000002"/>
    <path d="M11.55 49.95 Q11.6 48.35 12.7 46.4 14.2 43.85 14.5 42.8 16.0 37.85 9.7 28.65" fill="none" stroke="#4d2b06" stroke-linecap="round" stroke-linejoin="miter-clip" stroke-miterlimit="3.0" stroke-width="1.2000000000000002"/>
    <path d="M-0.2 20.35 L-0.5 14.95 -0.25 15.1 Q0.05 15.3 -0.1 18.15 L-0.2 19.95 -0.2 20.35 M-9.75 42.35 L-9.75 42.45 -9.55 42.2 -9.7 42.55 -9.9 42.3 -9.75 42.35 M1.65 68.35 L2.4 69.25 2.1 69.15 2.0 69.1 1.7 69.05 1.65 68.35 2.1 69.15 1.65 68.35 M2.3 85.25 L2.0 89.85 2.2 87.0 2.3 85.25 M1.45 92.55 L0.95 95.0 0.65 96.7 Q0.6 96.3 0.7 95.9 L1.25 93.0 1.45 92.55 M-18.45 93.0 L-19.05 92.45 -21.05 90.5 -20.6 90.9 -19.65 91.75 -18.55 92.75 -17.0 94.3 -18.45 93.0 -19.65 91.75 -18.45 93.0 M-35.0 67.95 L-35.25 67.5 -35.25 67.4 -35.3 67.35 -35.2 67.4 -35.15 67.4 Q-34.9 67.45 -34.65 68.35 L-34.55 68.8 -35.0 67.95 -35.15 67.45 -35.25 67.5 -35.15 67.45 -35.0 67.95 M0.95 95.0 L0.7 95.9 0.95 95.0 M-27.75 24.6 L-27.85 24.85 -28.2 25.2 -27.75 24.6 M-29.0 72.5 L-30.55 69.55 -30.85 68.95 -30.5 69.55 -29.15 72.2 -29.0 72.5 M-35.2 67.4 L-35.25 67.4 -35.2 67.4 -35.15 67.45 -35.15 67.4 -35.15 67.45 -35.2 67.4 M-25.4 84.4 L-24.7 85.65 -24.95 85.35 -26.7 82.7 -29.6 78.5 -31.45 75.6 -28.4 80.0 -28.4 80.05 -26.55 82.7 -25.4 84.4" fill="#ef8410" fill-rule="evenodd" stroke="none"/>
    <path d="M-24.85 20.55 L-24.85 20.6 -24.95 20.5 -24.85 20.55 -24.95 20.5 -25.0 20.35 -25.0 20.3 -25.1 20.35 -25.05 20.15 -24.95 20.35 -25.0 20.35 -24.95 20.35 -24.85 20.55 M-33.1 33.05 Q-36.55 39.65 -37.65 45.65 L-37.35 43.65 Q-36.45 39.4 -35.3 37.05 L-33.3 33.35 -33.1 33.05 M-20.45 25.4 L-16.2 28.05 -15.5 28.65 Q-13.05 31.4 -12.6 35.45 L-12.85 35.85 Q-13.25 36.3 -15.1 37.3 L-17.75 38.4 -16.5 36.9 -17.75 38.4 -17.85 38.4 -16.7 37.05 -16.7 37.1 -16.5 36.9 Q-14.55 34.5 -14.95 32.55 -15.15 31.1 -16.3 29.9 -15.15 31.1 -14.95 32.55 L-15.15 32.0 Q-15.65 30.7 -16.3 29.9 -16.8 29.3 -17.4 29.0 L-17.2 30.25 -18.2 32.35 -17.2 30.25 -17.55 31.35 -18.25 32.65 -18.3 32.7 -18.2 32.4 -18.2 32.35 -18.65 32.9 -18.7 33.15 Q-18.95 33.85 -19.1 33.65 L-19.35 32.05 Q-19.1 29.5 -19.75 27.3 -19.1 29.5 -19.35 32.05 L-19.4 30.8 -19.6 28.25 -19.75 27.3 Q-20.0 26.2 -20.45 25.4 M-12.6 30.8 L-12.6 30.6 Q-12.8 28.85 -14.5 27.5 -10.95 29.1 -9.0 32.55 -8.45 33.55 -8.0 34.7 -7.45 36.85 -9.7 42.35 L-9.75 42.35 -9.9 42.3 -9.7 40.0 -9.8 37.8 -10.0 36.8 -11.0 34.15 -12.1 31.8 -12.3 31.2 -12.1 31.8 -12.6 30.8 M2.0 89.85 L1.45 92.55 2.2 87.0 2.0 89.85 M0.65 96.7 L0.55 97.0 Q0.4 97.85 -0.55 99.55 L0.7 95.9 Q0.6 96.3 0.65 96.7 M-21.05 90.5 L-21.4 90.15 -21.6 90.0 -21.8 89.75 -21.85 89.65 -22.35 89.1 -23.85 86.95 -19.65 91.75 -20.6 90.9 -21.05 90.5 M-31.55 75.45 L-32.55 74.05 Q-33.9 72.2 -34.35 69.75 L-34.4 69.6 -34.45 69.3 -34.35 69.6 Q-33.15 72.6 -31.55 75.45 M-27.75 24.6 L-27.7 24.45 -27.1 23.75 -27.05 23.8 -27.85 24.85 -27.75 24.6 M-12.3 31.2 L-11.9 32.05 Q-10.55 33.95 -10.0 36.8 -10.55 33.95 -11.9 32.05 L-12.3 31.2 -12.35 31.15 -12.3 31.2 M-12.6 30.6 L-12.45 30.95 -12.35 31.15 -12.45 30.95 -12.6 30.6 M-9.7 40.0 L-9.75 42.35 -9.7 40.0" fill="#cc6f0f" fill-rule="evenodd" stroke="none"/>
    <path d="M-31.6 48.4 L-30.65 43.35 Q-29.6 38.15 -28.3 34.5 -27.0 30.75 -25.4 28.7 L-25.25 28.55 Q-24.45 27.45 -22.95 26.5 -21.3 25.5 -21.1 25.2 L-20.95 24.75 -21.15 24.6 -20.95 24.6 -20.45 25.4 Q-20.0 26.2 -19.75 27.3 L-20.3 25.95 -20.75 25.1 -20.8 25.5 -20.9 25.55 Q-26.15 27.2 -29.35 38.35 -30.75 43.3 -31.5 48.15 -30.75 43.3 -29.35 38.35 -26.15 27.2 -20.9 25.55 L-20.8 25.5 -20.75 25.1 -20.3 25.95 -19.75 27.3 -19.6 28.25 Q-25.05 29.7 -30.0 43.55 L-31.5 48.15 -31.6 48.4 M-9.55 42.2 L-7.85 39.4 Q-7.1 38.25 -6.85 37.0 -6.5 35.4 -6.85 33.65 L-7.55 31.85 -7.6 31.7 -7.45 31.8 Q-7.2 31.9 -7.1 31.65 L-7.1 31.4 -6.3 33.6 Q-5.5 35.95 -5.3 37.4 -4.85 39.9 -4.55 42.95 -4.35 45.0 -4.3 47.25 L-4.3 51.2 Q-4.45 58.15 -5.95 63.85 -4.6 57.55 -4.45 51.2 -4.3 44.5 -5.55 37.75 -5.8 34.45 -6.95 32.05 L-6.95 32.0 -7.1 31.65 -6.95 32.0 -6.95 32.05 Q-5.8 34.45 -5.55 37.75 -4.3 44.5 -4.45 51.2 -4.6 57.55 -5.95 63.85 L-5.9 63.85 -5.65 63.9 -5.65 63.95 -5.65 64.15 -5.6 64.3 -4.6 69.25 -4.55 69.35 -4.35 71.5 -4.5 71.75 -4.6 71.8 -4.7 71.75 -5.15 71.7 -6.8 70.9 Q-4.65 76.1 -4.3 82.5 L-4.25 85.65 Q-4.45 90.85 -5.3 94.1 -5.7 95.55 -6.3 96.05 L-7.9 96.1 -8.1 96.0 -8.1 95.75 Q-6.35 96.45 -5.85 94.4 -4.45 88.5 -4.75 82.5 -5.1 76.7 -6.95 70.8 -10.4 70.15 -12.15 66.9 L-12.2 66.9 -12.4 64.5 Q-11.1 57.2 -10.55 51.25 -9.55 40.55 -11.0 34.15 L-10.0 36.8 -9.8 37.8 -9.7 40.0 -9.9 42.3 -9.7 42.55 -9.55 42.2 Q-6.2 37.9 -6.35 35.35 -6.4 33.3 -6.95 32.05 -6.4 33.3 -6.35 35.35 -6.2 37.9 -9.55 42.2 M-10.0 36.8 L-9.7 40.0 -10.0 36.8 M-5.9 63.85 L-5.85 64.05 -5.8 64.25 -4.9 69.35 -4.7 71.65 Q-6.4 71.2 -7.15 70.25 L-6.95 70.8 -7.15 70.25 Q-6.4 71.2 -4.7 71.65 L-4.9 69.35 -5.8 64.25 -5.85 64.05 -5.9 63.85 M-6.8 70.9 L-6.95 70.8 -6.8 70.9 M-5.65 63.95 L-5.85 64.05 -5.65 63.95" fill="#2f2f2f" fill-rule="evenodd" stroke="none"/>
    <path d="M-31.95 65.05 L-32.35 61.7 -31.85 50.3 -31.6 48.4 -31.5 48.15 -30.0 43.55 Q-25.05 29.7 -19.6 28.25 L-19.4 30.8 -19.35 32.05 -19.1 33.65 Q-18.95 33.85 -18.7 33.15 L-18.65 32.9 -18.2 32.35 -18.2 32.4 -18.3 32.7 -18.25 32.65 -17.55 31.35 -17.2 30.25 -17.4 29.0 Q-16.8 29.3 -16.3 29.9 L-17.1 29.2 -17.2 30.25 -17.1 29.2 -16.3 29.9 Q-15.65 30.7 -15.15 32.0 L-14.95 32.55 Q-14.55 34.5 -16.5 36.9 L-16.7 37.1 -16.7 37.05 -17.85 38.4 -17.75 38.4 -15.1 37.3 Q-13.25 36.3 -12.85 35.85 L-12.6 35.45 -12.3 33.5 Q-12.25 31.7 -12.6 30.8 L-12.1 31.8 -11.0 34.15 Q-9.55 40.55 -10.55 51.25 -11.1 57.2 -12.4 64.5 L-12.2 66.9 Q-28.2 77.75 -31.95 65.05 M-8.1 96.0 Q-8.8 95.6 -11.2 93.6 L-15.75 89.55 -19.7 85.5 -21.9 82.65 -24.45 79.3 -25.4 78.0 -26.35 76.6 -21.7 82.65 Q-16.2 89.25 -9.05 95.2 L-8.1 95.75 -8.1 96.0 M-17.8 38.4 Q-13.65 37.0 -13.0 36.25 -12.35 35.4 -12.1 33.75 -11.95 32.55 -12.1 31.8 -11.95 32.55 -12.1 33.75 -12.35 35.4 -13.0 36.25 -13.65 37.0 -17.8 38.4 L-17.75 38.4 -17.8 38.4 M-18.2 32.4 L-18.7 33.15 -18.2 32.4 M-19.1 33.65 L-19.8 34.5 -19.35 32.05 -19.8 34.5 -19.1 33.65 M-31.5 48.15 L-31.85 50.3 -31.5 48.15" fill="#424242" fill-rule="evenodd" stroke="none"/>
    <path d="M2.55 62.95 L0.65 63.45 -5.9 63.85 -5.95 63.85 Q-4.45 58.15 -4.3 51.2 L-4.3 47.25 Q-4.35 45.0 -4.55 42.95 -4.85 39.9 -5.3 37.4 -5.5 35.95 -6.3 33.6 L-7.1 31.4 -7.1 31.65 Q-7.2 31.9 -7.45 31.8 L-7.6 31.7 -7.55 31.85 -6.85 33.65 Q-6.5 35.4 -6.85 37.0 -7.1 38.25 -7.85 39.4 L-9.55 42.2 -9.75 42.45 -9.75 42.35 -9.7 42.35 Q-7.45 36.85 -8.0 34.7 -8.45 33.55 -9.0 32.55 -10.95 29.1 -14.5 27.5 -12.8 28.85 -12.6 30.6 L-12.6 30.8 Q-12.25 31.7 -12.3 33.5 L-12.6 35.45 Q-13.05 31.4 -15.5 28.65 L-16.2 28.05 -20.45 25.4 -20.95 24.6 -21.15 24.6 -20.95 24.75 -21.1 25.2 Q-21.3 25.5 -22.95 26.5 -24.45 27.45 -25.25 28.55 L-25.4 28.7 Q-27.0 30.75 -28.3 34.5 -29.6 38.15 -30.65 43.35 L-31.6 48.4 -31.85 50.3 -32.35 61.7 -31.95 65.05 Q-34.3 65.85 -37.4 65.5 L-37.4 65.4 -38.1 53.85 -38.15 51.45 Q-38.15 48.75 -37.65 45.65 -36.55 39.65 -33.1 33.05 L-33.0 32.9 -32.85 32.55 -32.6 32.1 -29.25 26.45 -29.15 26.3 -29.05 26.2 -27.9 24.45 -27.85 24.35 -25.0 20.45 -24.95 20.5 -24.85 20.6 -24.85 20.55 -24.9 20.35 -0.55 14.4 -0.5 14.95 -0.2 20.35 Q0.6 32.25 2.2 40.7 3.55 49.65 3.15 57.0 L2.55 62.95 M-7.95 28.7 L-7.25 31.35 -7.1 31.65 -7.25 31.35 -7.95 28.7 M-27.85 24.85 L-27.05 23.8 -27.1 23.75 -27.7 24.45 -27.75 24.6 -28.2 25.2 -27.85 24.85" fill="#ee830f" fill-rule="evenodd" stroke="none"/>
    <path d="M-5.9 63.85 L0.65 63.45 2.55 62.95 2.55 63.0 Q3.6 67.3 3.85 69.25 4.2 72.5 2.2 69.3 L2.1 69.15 2.4 69.25 1.65 68.35 1.7 69.05 1.75 69.3 1.8 69.65 2.05 72.4 2.1 73.25 Q2.45 78.75 2.3 83.4 L2.3 85.25 2.2 87.0 1.45 92.55 1.25 93.0 0.7 95.9 -0.55 99.55 Q-2.0 103.1 -4.05 105.55 -12.25 99.4 -18.45 93.0 L-17.0 94.3 -18.55 92.75 -19.65 91.75 -23.85 86.95 -25.05 85.4 -27.1 82.7 -31.55 75.45 Q-33.15 72.6 -34.35 69.6 L-34.45 69.3 -34.65 68.85 -35.0 67.95 -34.55 68.8 -34.65 68.35 Q-34.9 67.45 -35.15 67.4 L-35.2 67.4 -35.3 67.35 -35.25 67.4 -36.1 69.6 Q-36.55 70.3 -36.85 69.6 -37.25 68.7 -37.4 65.5 -34.3 65.85 -31.95 65.05 L-31.4 67.4 -31.35 67.5 -31.1 68.25 -31.1 68.35 -30.85 68.95 -30.55 69.55 -29.0 72.5 -28.3 73.6 -26.35 76.6 -25.4 78.0 -24.45 79.3 -21.9 82.65 -19.7 85.5 -15.75 89.55 -11.2 93.6 Q-8.8 95.6 -8.1 96.0 L-7.9 96.1 -6.3 96.05 Q-5.7 95.55 -5.3 94.1 -4.45 90.85 -4.25 85.65 L-4.3 82.5 Q-4.65 76.1 -6.8 70.9 L-5.15 71.7 -4.7 71.75 -4.6 71.8 -4.5 71.75 -4.35 71.5 -4.55 69.35 -4.6 69.25 -5.6 64.3 -5.65 64.15 -5.65 63.95 -5.65 63.9 -5.9 63.85 M-25.4 84.4 L-26.55 82.7 -28.4 80.05 -28.4 80.0 -31.45 75.6 -29.6 78.5 -26.7 82.7 -24.95 85.35 -24.7 85.65 -25.4 84.4" fill="#db780d" fill-rule="evenodd" stroke="none"/>
    <path d="M-26.35 76.6 L-28.3 73.6 -29.0 72.5 -29.15 72.2 -30.5 69.55 -30.85 68.95 -31.1 68.35 -31.1 68.25 -31.35 67.5 -31.4 67.4 -31.95 65.05 Q-28.2 77.75 -12.2 66.9 L-12.15 66.9 Q-10.4 70.15 -6.95 70.8 -5.1 76.7 -4.75 82.5 -4.45 88.5 -5.85 94.4 -6.35 96.45 -8.1 95.75 L-9.05 95.2 Q-16.2 89.25 -21.7 82.65 L-26.35 76.6" fill="#383838" fill-rule="evenodd" stroke="none"/>
    <path d="M-24.95 20.5 L-25.0 20.45 M-24.85 20.55 L-24.95 20.5 M-5.85 64.05 L-5.65 63.95 M-6.95 70.8 L-6.8 70.9" fill="none" stroke="#4d2b06" stroke-linecap="round" stroke-linejoin="round" stroke-width="0.05"/>
    <path d="M-31.95 65.05 L-32.35 61.7 -31.85 50.3 -31.5 48.15 Q-30.75 43.3 -29.35 38.35 -26.15 27.2 -20.9 25.55 L-20.8 25.5 -20.75 25.1 -20.3 25.95 -19.75 27.3 Q-19.1 29.5 -19.35 32.05 L-19.8 34.5 -19.1 33.65 Q-18.95 33.85 -18.7 33.15 L-18.2 32.4 -18.2 32.35 -17.2 30.25 -17.1 29.2 -16.3 29.9 Q-15.15 31.1 -14.95 32.55 -14.55 34.5 -16.5 36.9 L-17.75 38.4 -17.8 38.4 M-9.75 42.35 L-9.75 42.45 -9.55 42.2 Q-6.2 37.9 -6.35 35.35 -6.4 33.3 -6.95 32.05 -5.8 34.45 -5.55 37.75 -4.3 44.5 -4.45 51.2 -4.6 57.55 -5.95 63.85 M-7.1 31.65 L-7.25 31.35 -7.95 28.7 M-7.1 31.65 L-6.95 32.0 -6.95 32.05 M-26.35 76.6 L-28.3 73.6 -29.0 72.5 -30.55 69.55 -30.85 68.95 -31.1 68.35 -31.1 68.25 -31.35 67.5 -31.4 67.4 -31.95 65.05 M-9.7 40.0 L-10.0 36.8 Q-10.55 33.95 -11.9 32.05 L-12.3 31.2 M-12.35 31.15 L-12.45 30.95 -12.6 30.6 M-9.75 42.35 L-9.7 40.0 M-6.95 70.8 L-7.15 70.25 Q-6.4 71.2 -4.7 71.65 L-4.9 69.35 -5.8 64.25 -5.85 64.05 -5.9 63.85 M-8.1 95.75 L-9.05 95.2 Q-16.2 89.25 -21.7 82.65 L-26.35 76.6 M-8.1 95.75 Q-6.35 96.45 -5.85 94.4 -4.45 88.5 -4.75 82.5 -5.1 76.7 -6.95 70.8" fill="none" stroke="#4d2b06" stroke-linecap="round" stroke-linejoin="miter-clip" stroke-miterlimit="3.0" stroke-width="1.2000000000000002"/>
    <path d="M2.55 62.95 L3.15 57.0 Q3.55 49.65 2.2 40.7 0.6 32.25 -0.2 20.35 L-0.5 14.95 -0.55 14.4 M-25.0 20.45 L-27.85 24.35 -27.9 24.45 -29.05 26.2 -29.15 26.3 -29.25 26.45 -32.6 32.1 -32.85 32.55 -33.0 32.9 -33.1 33.05 Q-36.55 39.65 -37.65 45.65 -38.15 48.75 -38.15 51.45 L-38.1 53.85 -37.4 65.4 -37.4 65.5 Q-37.25 68.7 -36.85 69.6 -36.55 70.3 -36.1 69.6 L-35.25 67.4 -35.2 67.4 -35.15 67.4 -35.15 67.45 -35.25 67.5 M2.1 69.15 L2.2 69.3 Q4.2 72.5 3.85 69.25 3.6 67.3 2.55 63.0 L2.55 62.95 M1.7 69.05 L1.75 69.3 1.8 69.65 2.05 72.4 2.1 73.25 Q2.45 78.75 2.3 83.4 L2.3 85.25 2.2 87.0 1.45 92.55 0.95 95.0 0.7 95.9 -0.55 99.55 Q-2.0 103.1 -4.05 105.55 -12.25 99.4 -18.45 93.0 L-19.65 91.75 -23.85 86.95 -25.05 85.4 -27.1 82.7 -31.55 75.45 Q-33.15 72.6 -34.35 69.6 L-34.45 69.3 -34.65 68.85 -35.0 67.95 -35.15 67.45 -35.2 67.4 M1.65 68.35 L2.1 69.15 M1.7 69.05 L1.65 68.35 M-24.95 20.35 L-24.9 20.35 M-25.0 20.35 L-24.95 20.35 M-12.1 31.8 Q-11.95 32.55 -12.1 33.75 -12.35 35.4 -13.0 36.25 -13.65 37.0 -17.8 38.4 M-12.3 31.2 L-12.1 31.8 M-12.3 31.2 L-12.35 31.15" fill="none" stroke="#4d2b06" stroke-linecap="round" stroke-linejoin="round" stroke-width="1.2000000000000002"/>
  </g>
</svg>
