<?xml version="1.0" encoding="UTF-8" standalone="no"?>
<svg xmlns:xlink="http://www.w3.org/1999/xlink" height="29.5px" width="44.3px" xmlns="http://www.w3.org/2000/svg">
  <g transform="matrix(1.0, 0.0, 0.0, 1.0, 22.15, 12.45)">
    <path d="M-8.15 -9.2 L-10.5 -9.85 -12.8 -9.8 Q-13.9 -9.6 -14.8 -8.95 L-16.7 -7.45 Q-20.3 -1.95 -16.95 1.65 -20.3 -1.95 -16.7 -7.45 L-14.8 -8.95 Q-13.9 -9.6 -12.8 -9.8 L-10.5 -9.85 -8.15 -9.2 M-17.5 2.2 L-17.55 2.15 Q-26.3 -3.8 -15.9 -10.5 L-15.85 -10.55 -15.75 -10.6 -14.4 -11.4 -13.1 -11.7 -12.9 -11.7 -10.6 -11.85 -10.35 -11.85 Q-5.4 -11.7 1.0 -8.65 8.05 -3.7 12.55 1.25 14.5 3.95 12.45 9.55 10.75 14.3 6.95 13.7 2.05 11.2 -5.25 5.85 L-11.55 4.65 -14.0 3.85 -16.95 1.65 -17.5 2.2" fill="#ee830f" fill-rule="evenodd" stroke="none"/>
    <path d="M1.0 -8.65 Q3.7 -7.4 6.65 -5.6 10.5 -3.25 14.65 -0.1 L14.7 -0.05 14.95 -2.9 Q19.95 1.1 17.65 4.2 L21.45 2.9 Q22.05 7.7 19.7 11.9 14.55 15.45 6.7 16.45 5.3 15.95 2.2 14.15 0.75 13.3 -0.05 12.95 1.35 11.4 -3.7 9.5 L-12.95 6.15 Q-15.05 5.55 -17.5 2.2 L-16.95 1.65 -14.0 3.85 -11.55 4.65 -5.25 5.85 Q2.05 11.2 6.95 13.7 10.75 14.3 12.45 9.55 14.5 3.95 12.55 1.25 8.05 -3.7 1.0 -8.65" fill="#cc6f0f" fill-rule="evenodd" stroke="none"/>
    <path d="M-16.95 1.65 Q-20.3 -1.95 -16.7 -7.45 L-14.8 -8.95 Q-13.9 -9.6 -12.8 -9.8 L-10.5 -9.85 -8.15 -9.2 M-17.5 2.2 L-17.55 2.15 Q-26.3 -3.8 -15.9 -10.5 L-15.85 -10.55 -15.75 -10.6 -14.4 -11.4 -13.1 -11.7 -12.9 -11.7 -10.6 -11.85 -10.35 -11.85 Q-5.4 -11.7 1.0 -8.65 3.7 -7.4 6.65 -5.6 10.5 -3.25 14.65 -0.1 L14.7 -0.05 14.95 -2.9 Q19.95 1.1 17.65 4.2 L21.45 2.9 Q22.05 7.7 19.7 11.9 14.55 15.45 6.7 16.45 5.3 15.95 2.2 14.15 0.75 13.3 -0.05 12.95 1.35 11.4 -3.7 9.5 L-12.95 6.15 Q-15.05 5.55 -17.5 2.2 M-16.95 1.65 L-14.0 3.85 -11.55 4.65 -5.25 5.85" fill="none" stroke="#4d2b06" stroke-linecap="round" stroke-linejoin="round" stroke-width="1.2000000000000002"/>
  </g>
</svg>
