<?xml version="1.0" encoding="UTF-8" standalone="no"?>
<svg xmlns:xlink="http://www.w3.org/1999/xlink" height="24.5px" width="72.9px" xmlns="http://www.w3.org/2000/svg">
  <g transform="matrix(1.0, 0.0, 0.0, 1.0, 36.25, 5.65)">
    <path d="M-17.3 12.65 Q-21.55 8.85 -23.65 7.35 -25.2 6.3 -26.45 5.95 L-29.95 5.4 Q-31.95 5.4 -34.45 6.2 L-35.4 3.35 -35.8 1.2 Q-35.8 -0.6 -35.0 -1.75 L-32.4 -4.65 -31.45 -5.35 Q-31.05 -4.55 -31.05 -3.55 L-31.25 -2.05 Q-31.4 -1.35 -31.6 -1.35 L-32.0 -0.85 Q-28.5 -2.2 -23.65 -2.75 L-13.45 -3.2 -1.5 -2.4 9.95 -0.15 Q9.95 -0.1 11.2 0.25 L12.95 0.55 13.5 0.55 22.2 2.6 Q21.75 4.95 11.85 7.35 1.75 9.8 -14.1 12.1 L-13.15 12.7 -14.05 12.45 -17.3 12.65" fill="#ee830f" fill-rule="evenodd" stroke="none"/>
    <path d="M22.2 2.6 L29.5 4.55 30.5 4.3 33.6 4.4 Q35.55 4.85 36.05 5.45 23.8 11.15 13.25 13.85 6.1 15.65 -11.0 18.25 L-17.3 12.65 -14.05 12.45 -13.15 12.7 -14.1 12.1 Q1.75 9.8 11.85 7.35 21.75 4.95 22.2 2.6" fill="#cc6f0f" fill-rule="evenodd" stroke="none"/>
    <path d="M-31.6 -1.35 L-32.0 -0.85 M30.5 4.3 L33.6 4.4 Q35.55 4.85 36.05 5.45 23.8 11.15 13.25 13.85 6.1 15.65 -11.0 18.25" fill="none" stroke="#4d2b06" stroke-linecap="round" stroke-linejoin="round" stroke-width="1.2000000000000002"/>
    <path d="M30.35 3.7 L30.45 3.65 Q31.1 3.65 31.1 4.2 L31.0 4.65 30.6 4.85 30.45 4.9 30.35 4.9 30.1 4.95 29.6 5.0 26.35 6.45 26.1 6.4 Q26.0 6.2 26.2 6.1 L29.25 4.1 29.25 4.05 29.35 4.05 30.25 3.7 30.35 3.7 M-31.75 -0.25 Q-32.35 -0.05 -32.55 -0.6 -32.7 -1.15 -32.2 -1.4 L-31.55 -1.55 -31.55 -1.6 -31.5 -1.8 -31.45 -1.9 -31.45 -2.1 -31.4 -2.15 -31.4 -2.3 -31.3 -3.3 -31.3 -4.05 -31.4 -4.5 -31.55 -4.85 -32.2 -4.35 -34.65 -1.45 -34.65 -1.5 -35.05 -0.65 -35.25 0.2 -35.25 0.45 -35.3 0.7 -35.3 1.2 -35.25 1.4 -35.25 1.6 -34.9 3.1 -34.85 3.15 -34.85 3.2 -34.8 3.35 -34.75 3.6 -34.1 5.5 -33.9 5.9 -33.85 5.95 Q-33.65 6.5 -34.15 6.75 -34.8 6.95 -34.95 6.45 L-35.0 6.3 -35.1 6.2 -35.8 3.85 -35.85 3.6 -35.9 3.5 -35.9 3.35 -36.25 1.5 -36.25 0.65 -36.05 -0.4 -35.6 -1.45 -35.3 -1.95 -35.3 -2.0 -32.55 -4.9 -31.6 -5.55 -31.55 -5.6 Q-31.3 -5.7 -31.15 -5.45 L-30.95 -4.95 -30.75 -3.85 -30.75 -3.55 -30.8 -3.4 -30.8 -3.3 Q-30.8 -2.7 -30.95 -2.2 L-31.0 -2.05 -31.0 -1.95 -31.05 -1.8 -31.1 -1.7 -26.5 -2.9 -24.1 -3.2 -23.85 -3.25 -23.75 -3.25 -23.6 -3.3 -22.65 -3.35 -20.7 -3.5 -16.85 -3.65 -1.45 -2.8 -1.4 -2.8 10.0 -0.45 Q10.35 -0.45 10.25 -0.05 10.25 0.25 9.85 0.15 L-1.55 -1.95 -13.25 -2.65 -13.4 -2.7 -16.8 -2.65 -20.65 -2.45 -23.5 -2.2 -23.55 -2.2 -23.6 -2.15 -23.95 -2.15 -24.45 -2.05 -26.3 -1.75 -28.15 -1.4 -31.3 -0.45 -31.75 -0.25" fill="#4d2b06" fill-rule="evenodd" stroke="none"/>
  </g>
</svg>
