<?xml version="1.0" encoding="UTF-8" standalone="no"?>
<svg xmlns:xlink="http://www.w3.org/1999/xlink" height="46.5px" width="41.95px" xmlns="http://www.w3.org/2000/svg">
  <g transform="matrix(1.0, 0.0, 0.0, 1.0, 21.55, 28.35)">
    <path d="M0.75 -16.85 L0.7 -16.9 0.75 -16.85 5.05 -10.7 Q8.55 -4.8 9.4 0.3 11.65 0.2 13.1 -1.05 13.0 3.25 14.45 6.95 -2.9 9.05 -17.85 2.95 L-19.95 -4.6 -20.45 -6.25 Q-20.95 -9.4 -20.0 -10.85 L-17.0 -9.55 Q-20.75 -17.95 -20.95 -27.0 -13.75 -30.4 -5.75 -25.2 2.15 -20.0 0.75 -16.85 M-14.15 -8.3 Q-13.65 -8.7 -15.85 -9.3 L-17.0 -9.55 -15.85 -9.3 Q-13.65 -8.7 -14.15 -8.3" fill="#ee830f" fill-rule="evenodd" stroke="none"/>
    <path d="M0.75 -16.85 Q9.4 -12.3 9.75 -9.8 L10.8 -2.45 Q13.15 -2.25 14.6 -3.65 14.15 0.9 15.8 4.65 L18.15 1.9 19.8 8.4 Q19.15 10.0 17.95 11.45 15.85 13.95 12.0 16.05 2.95 19.35 -5.55 15.4 L-14.15 11.3 -15.45 10.15 Q-16.35 9.2 -17.5 4.5 L-17.85 2.95 Q-2.9 9.05 14.45 6.95 13.0 3.25 13.1 -1.05 11.65 0.2 9.4 0.3 8.55 -4.8 5.05 -10.7 L0.75 -16.85 0.7 -16.9 0.75 -16.85" fill="#cc6f0f" fill-rule="evenodd" stroke="none"/>
    <path d="M-15.45 10.15 L-14.15 11.3 -5.55 15.4 Q2.95 19.35 12.0 16.05 15.85 13.95 17.95 11.45 19.15 10.0 19.8 8.4 L18.15 1.9 15.8 4.65 Q14.15 0.9 14.6 -3.65 13.15 -2.25 10.8 -2.45 L9.75 -9.8 Q9.4 -12.3 0.75 -16.85 L0.7 -16.9 M-20.95 -27.0 Q-20.75 -17.95 -17.0 -9.55 L-15.85 -9.3 Q-13.65 -8.7 -14.15 -8.3 M-17.0 -9.55 L-20.0 -10.85 Q-20.95 -9.4 -20.45 -6.25 L-19.95 -4.6" fill="none" stroke="#4d2b06" stroke-linecap="round" stroke-linejoin="round" stroke-width="1.2000000000000002"/>
    <path d="M-20.5 -4.4 L-20.5 -4.45 Q-20.65 -5.0 -20.05 -5.2 -19.55 -5.3 -19.35 -4.75 L-17.6 2.85 -17.6 2.9 -17.35 4.45 Q-17.2 4.6 -17.45 4.6 L-17.6 4.5 -18.05 2.95 -18.05 3.0 -20.5 -4.4" fill="#4d2b06" fill-rule="evenodd" stroke="none"/>
  </g>
</svg>
