<?xml version="1.0" encoding="UTF-8" standalone="no"?>
<svg xmlns:xlink="http://www.w3.org/1999/xlink" height="84.4px" width="82.55px" xmlns="http://www.w3.org/2000/svg">
  <g transform="matrix(1.0, 0.0, 0.0, 1.0, 40.85, 0.2)">
    <path d="M23.5 16.8 L21.75 15.15 Q20.95 14.35 20.95 12.65 20.95 11.9 22.5 9.85 24.2 7.6 25.3 7.6 L26.2 7.8 26.55 7.95 26.6 9.3 Q26.15 9.45 25.65 10.15 25.25 10.7 25.2 10.95 23.3 12.15 23.3 12.7 L23.5 16.8 M25.95 17.5 Q26.25 19.2 27.0 20.4 L27.65 21.6 Q27.65 21.95 26.25 23.55 25.2 22.65 24.9 22.65 L24.7 18.5 25.95 17.5 M11.8 8.6 Q13.4 9.65 14.25 9.65 16.05 9.65 17.05 8.3 18.0 6.95 18.3 6.95 20.0 6.95 20.75 8.4 21.2 9.25 21.2 10.2 21.2 11.55 19.45 11.55 L16.9 10.0 15.65 10.6 14.55 11.15 Q13.5 11.15 12.45 9.95 L11.8 8.6 M9.55 8.15 L9.1 7.9 9.65 7.55 Q10.0 7.25 10.0 6.6 8.3 3.9 7.05 3.3 L5.25 4.7 3.75 4.65 3.4 2.85 3.8 1.3 Q3.95 0.35 5.65 0.35 6.55 0.35 8.65 3.9 L11.1 8.15 10.2 8.2 9.55 8.15 M6.5 44.05 L6.1 42.1 8.1 44.2 6.5 44.05 M11.05 50.15 Q11.65 51.75 12.4 51.55 12.85 52.3 12.85 60.0 12.85 60.95 12.05 62.0 L10.4 62.55 Q9.2 63.15 9.2 64.45 9.2 65.45 10.0 65.75 L8.5 67.7 7.65 68.45 Q7.3 68.45 6.9 67.75 L6.45 66.9 Q10.3 62.05 10.3 55.8 L9.8 53.85 9.1 51.4 11.05 50.15 M28.2 34.75 Q27.5 33.2 27.5 32.3 L28.75 30.65 26.8 29.45 26.9 28.2 27.55 27.95 28.75 27.7 29.4 27.85 29.65 28.1 29.85 28.35 30.0 29.25 29.7 30.2 29.05 30.55 29.8 30.6 29.6 32.1 Q28.8 33.0 28.2 34.75 M31.0 43.55 Q31.0 44.4 31.4 45.0 31.75 45.55 32.3 45.55 L32.5 45.9 Q32.2 46.25 31.15 46.45 L30.0 45.9 Q29.9 45.55 31.0 43.55 M22.3 69.9 Q22.9 69.2 23.3 69.25 L23.4 68.6 Q23.4 68.0 24.95 65.55 26.5 63.1 26.5 58.4 L25.2 55.1 Q25.2 53.25 27.25 53.25 28.7 53.25 29.35 55.1 29.8 56.4 29.8 58.1 29.8 59.1 28.45 63.55 L29.0 63.4 Q30.0 63.85 30.0 65.0 30.0 65.45 28.4 67.5 L28.7 67.35 29.75 68.4 Q28.5 68.4 27.65 69.4 26.75 70.4 26.75 71.8 26.35 72.55 25.35 72.55 24.2 72.55 20.4 73.95 22.2 72.6 22.3 69.9 M18.8 74.65 Q13.2 78.9 11.45 78.8 L10.5 78.25 10.25 77.25 Q12.3 74.75 14.15 73.95 16.1 73.45 17.15 72.8 17.0 73.3 17.25 74.75 L18.8 74.65 M-2.4 41.45 Q-2.4 42.3 -3.15 42.9 -3.95 43.45 -5.05 43.45 -6.15 43.45 -6.9 42.9 -7.7 42.3 -7.7 41.45 -7.7 40.6 -6.9 40.05 -6.15 39.45 -5.05 39.45 -3.95 39.45 -3.15 40.05 -2.4 40.6 -2.4 41.45 M-35.8 66.9 L-38.85 64.6 Q-40.85 62.9 -40.85 61.45 L-40.6 60.35 -40.4 60.0 -38.8 59.75 Q-37.4 60.15 -37.05 61.15 -36.85 61.7 -36.75 62.7 L-37.9 63.9 Q-37.9 65.0 -35.8 66.9 M-31.75 68.15 L-25.95 70.45 Q-21.55 72.15 -21.55 74.25 -21.55 75.8 -23.95 75.8 L-27.8 72.85 -33.4 68.85 Q-32.45 68.85 -31.75 68.15 M-13.9 83.4 L-15.8 81.2 -15.6 80.1 -15.4 79.75 -13.8 79.55 Q-12.05 79.55 -10.85 80.6 -9.95 81.45 -9.95 82.1 L-10.25 82.7 -11.35 83.55 Q-11.25 82.85 -11.45 82.15 -11.7 81.45 -12.1 81.2 L-12.9 81.1 Q-13.35 81.3 -13.6 81.95 L-13.9 83.4" fill="#ffffff" fill-opacity="0.69803923" fill-rule="evenodd" stroke="none"/>
    <path d="M41.7 5.25 L41.5 5.4 40.75 5.55 Q39.85 5.55 39.95 3.9 37.4 4.25 36.75 0.8 L36.85 0.4 37.15 -0.2 Q38.0 0.25 38.95 1.75 L39.85 3.65 40.5 3.65 41.7 3.75 41.7 5.25" fill="#ebf7fd" fill-rule="evenodd" stroke="none"/>
    <path d="M23.5 16.8 L23.3 12.7 Q23.3 12.15 25.2 10.95 L24.7 12.4 24.45 13.7 Q24.45 14.5 25.05 15.6 L25.95 17.5 24.7 18.5 Q24.2 18.5 23.85 18.0 23.5 17.5 23.5 16.8 M12.45 9.95 L12.5 10.5 Q10.85 10.4 9.95 9.6 L9.15 8.65 9.55 8.15 10.2 8.2 11.1 8.15 11.8 8.6 12.45 9.95 M9.1 7.9 L7.45 6.35 Q6.3 5.05 5.25 4.7 L7.05 3.3 Q8.3 3.9 10.0 6.6 10.0 7.25 9.65 7.55 L9.1 7.9 M6.5 44.05 L8.1 44.2 Q9.2 44.9 10.0 46.05 11.3 47.9 11.05 50.15 L9.1 51.4 8.3 47.85 Q7.75 46.05 6.5 44.05 M12.05 62.0 L12.2 61.85 13.05 62.15 Q13.4 62.35 13.4 63.4 13.4 63.7 11.95 64.65 L10.0 65.75 Q9.2 65.45 9.2 64.45 9.2 63.15 10.4 62.55 L12.05 62.0 M29.6 32.1 L29.45 32.4 29.4 33.15 Q29.4 34.0 29.95 34.85 L31.25 36.7 30.0 37.6 28.1 37.85 28.05 36.05 Q28.05 35.45 28.2 34.75 28.8 33.0 29.6 32.1 M32.3 45.55 Q31.75 45.55 31.4 45.0 31.0 44.4 31.0 43.55 L31.75 43.1 31.8 43.3 32.3 45.55 M29.75 68.4 Q29.75 69.8 28.9 70.8 28.0 71.8 26.75 71.8 26.75 70.4 27.65 69.4 28.5 68.4 29.75 68.4 M20.4 73.95 L19.9 74.1 18.8 74.65 17.25 74.75 Q17.0 73.3 17.15 72.8 L22.3 69.9 Q22.2 72.6 20.4 73.95 M-36.75 62.7 Q-36.35 64.45 -31.75 68.15 -32.45 68.85 -33.4 68.85 L-35.8 66.9 Q-37.9 65.0 -37.9 63.9 L-36.75 62.7 M-11.35 83.55 L-11.8 84.0 -12.8 84.2 -13.65 84.0 -13.9 83.4 -13.6 81.95 Q-13.35 81.3 -12.9 81.1 L-12.1 81.2 Q-11.7 81.45 -11.45 82.15 -11.25 82.85 -11.35 83.55" fill="#ffffff" fill-rule="evenodd" stroke="none"/>
  </g>
</svg>
