<?xml version="1.0" encoding="UTF-8" standalone="no"?>
<svg xmlns:xlink="http://www.w3.org/1999/xlink" height="109.65px" width="107.8px" xmlns="http://www.w3.org/2000/svg">
  <g transform="matrix(1.0, 0.0, 0.0, 1.0, 53.9, 54.8)">
    <path d="M-42.0 4.5 Q-30.3 -15.25 -26.3 -13.0 L-13.6 -13.6 Q-5.7 -19.7 1.0 -21.35 4.7 -25.1 16.1 -23.95 13.95 -28.75 9.25 -32.5 4.1 -39.5 1.7 -38.2 -12.45 -33.8 -34.2 -38.3 -27.55 -33.0 -29.9 -26.3 -37.6 -15.2 -47.1 -15.6 -47.85 -28.1 -43.0 -39.5 -51.8 -46.6 -53.3 -54.2 -45.05 -47.5 -36.35 -46.6 -27.15 -47.95 -18.0 -46.15 L-8.45 -46.35 Q11.35 -43.95 23.35 -23.3 L22.1 -33.25 Q34.1 -26.1 30.7 -13.8 27.2 -16.5 21.65 -17.3 27.2 -16.5 30.7 -13.8 31.0 -12.05 31.65 -11.8 L27.5 -12.95 Q24.1 -13.8 21.65 -17.3 11.25 -18.55 -6.35 -12.9 -12.2 -8.5 -21.0 -9.7 -31.0 -10.3 -29.45 -3.25 -29.3 11.2 -18.6 23.4 -9.1 33.0 -1.3 34.85 -7.0 26.2 -5.15 14.7 L-3.55 4.5 7.85 -4.55 3.95 2.1 Q-2.9 14.85 10.95 32.2 14.35 52.1 -4.25 47.05 -31.05 29.8 -42.0 4.5 M-8.85 -43.6 Q-13.4 -45.3 -18.0 -46.15 -13.4 -45.3 -8.85 -43.6 M41.4 0.15 Q36.2 0.25 24.8 -7.3 24.85 -9.75 30.85 -7.0 32.1 -6.15 34.0 -6.5 41.8 -3.6 49.4 2.2 44.95 2.1 41.4 0.15 M45.5 27.65 Q45.25 33.35 53.3 43.85 46.0 41.6 42.7 33.85 39.25 27.15 40.45 21.25 44.2 22.0 45.5 27.65" fill="#d1d16b" fill-rule="evenodd" stroke="none"/>
    <path d="M-47.1 -15.6 Q-37.6 -15.2 -29.9 -26.3 -27.55 -33.0 -34.2 -38.3 -12.45 -33.8 1.7 -38.2 4.1 -39.5 9.25 -32.5 13.95 -28.75 16.1 -23.95 4.7 -25.1 1.0 -21.35 -5.7 -19.7 -13.6 -13.6 L-26.3 -13.0 Q-30.3 -15.25 -42.0 4.5 -44.35 -0.9 -45.95 -6.7 -46.9 -11.2 -47.1 -15.6 M-4.25 47.05 Q14.35 52.1 10.95 32.2 -2.9 14.85 3.95 2.1 L7.85 -4.55 -3.55 4.5 -5.15 14.7 Q-7.0 26.2 -1.3 34.85 -9.1 33.0 -18.6 23.4 -29.3 11.2 -29.45 -3.25 -31.0 -10.3 -21.0 -9.7 -12.2 -8.5 -6.35 -12.9 11.25 -18.55 21.65 -17.3 24.1 -13.8 27.5 -12.95 L31.65 -11.8 40.9 -8.8 Q36.6 -7.7 34.0 -6.5 32.1 -6.15 30.85 -7.0 24.85 -9.75 24.8 -7.3 36.2 0.25 41.4 0.15 44.7 4.0 46.6 11.1 47.85 15.7 45.5 27.65 44.2 22.0 40.45 21.25 39.25 27.15 42.7 33.85 42.0 42.85 34.5 50.0 19.0 59.8 -4.25 47.05" fill="#ffff9d" fill-rule="evenodd" stroke="none"/>
    <path d="M10.95 32.2 Q-2.9 14.85 3.95 2.1 M-29.45 -3.25 Q-31.0 -10.3 -21.0 -9.7 M-6.35 -12.9 Q11.25 -18.55 21.65 -17.3 27.2 -16.5 30.7 -13.8 34.1 -26.1 22.1 -33.25 L23.35 -23.3 Q11.35 -43.95 -8.45 -46.35 L-18.0 -46.15 Q-13.4 -45.3 -8.85 -43.6 M31.65 -11.8 Q31.0 -12.05 30.7 -13.8 M30.85 -7.0 Q32.1 -6.15 34.0 -6.5 36.6 -7.7 40.9 -8.8 L31.65 -11.8 M-43.0 -39.5 Q-51.8 -46.6 -53.3 -54.2 -45.05 -47.5 -36.35 -46.6 -27.15 -47.95 -18.0 -46.15 M41.4 0.15 Q44.95 2.1 49.4 2.2 41.8 -3.6 34.0 -6.5 M45.5 27.65 Q47.85 15.7 46.6 11.1 44.7 4.0 41.4 0.15 M42.7 33.85 Q46.0 41.6 53.3 43.85 45.25 33.35 45.5 27.65 M42.7 33.85 Q42.0 42.85 34.5 50.0 19.0 59.8 -4.25 47.05" fill="none" stroke="#4d2b06" stroke-linecap="round" stroke-linejoin="round" stroke-width="1.2000000000000002"/>
  </g>
</svg>
