<?xml version="1.0" encoding="UTF-8" standalone="no"?>
<svg xmlns:xlink="http://www.w3.org/1999/xlink" height="173.65px" width="177.25px" xmlns="http://www.w3.org/2000/svg">
  <g transform="matrix(1.0, 0.0, 0.0, 1.0, 88.65, 86.8)">
    <path d="M-38.0 -77.65 Q-28.8 -79.45 -21.3 -59.05 L-28.4 -59.45 Q-31.9 -52.45 -44.0 -55.2 -52.2 -55.8 -58.95 -57.4 -66.3 -59.2 -71.75 -62.2 -66.3 -59.2 -58.95 -57.4 -67.3 -32.15 -54.65 -25.65 -54.2 -28.2 -51.95 -30.35 L-52.5 -11.4 -52.6 -11.8 Q-52.5 -6.95 -50.3 -1.95 -45.2 5.5 -36.25 11.05 -41.35 7.6 -38.8 4.25 -25.4 22.05 -4.4 38.45 -8.5 33.0 -8.9 28.55 7.7 44.1 26.25 54.3 22.1 50.9 21.3 47.25 41.35 63.3 63.05 71.05 L68.8 76.1 71.85 80.6 Q44.15 72.55 12.4 56.0 24.0 67.35 12.25 59.55 L12.1 59.5 Q0.5 51.8 -14.5 40.75 -33.4 28.7 -48.45 14.0 L-48.6 13.9 Q-47.2 22.6 -64.2 -3.4 -93.2 -34.0 -71.75 -62.2 -86.25 -70.05 -88.05 -86.2 -64.2 -72.95 -38.0 -77.65 M36.0 47.05 Q30.65 47.65 22.6 42.8 -9.15 21.6 -15.85 8.65 L-5.5 14.05 Q9.8 32.6 36.0 47.05 M-62.1 -6.2 Q-57.55 3.9 -48.6 13.9 -57.55 3.9 -62.1 -6.2" fill="#d1d16b" fill-rule="evenodd" stroke="none"/>
    <path d="M-58.95 -57.4 Q-52.2 -55.8 -44.0 -55.2 -31.9 -52.45 -28.4 -59.45 L-21.3 -59.05 Q-18.4 -51.25 -15.75 -40.1 -7.9 -27.85 3.65 -23.2 33.2 -15.8 54.25 4.9 66.85 17.6 82.3 46.7 92.45 63.6 84.55 86.15 81.9 87.25 68.8 76.1 65.7 72.1 63.05 71.05 41.35 63.3 21.3 47.25 22.1 50.9 26.25 54.3 7.7 44.1 -8.9 28.55 -8.5 33.0 -4.4 38.45 -25.4 22.05 -38.8 4.25 -41.35 7.6 -36.25 11.05 -45.2 5.5 -50.3 -1.95 -52.5 -6.95 -52.6 -11.8 L-52.5 -11.4 -51.95 -30.35 Q-54.2 -28.2 -54.65 -25.65 -67.3 -32.15 -58.95 -57.4 M-5.5 14.05 L-15.85 8.65 Q-9.15 21.6 22.6 42.8 30.65 47.65 36.0 47.05 9.8 32.6 -5.5 14.05" fill="#ffff9d" fill-rule="evenodd" stroke="none"/>
    <path d="M-38.0 -77.65 Q-64.2 -72.95 -88.05 -86.2 -86.25 -70.05 -71.75 -62.2 -66.3 -59.2 -58.95 -57.4 -52.2 -55.8 -44.0 -55.2 M3.65 -23.2 Q33.2 -15.8 54.25 4.9 66.85 17.6 82.3 46.7 92.45 63.6 84.55 86.15 81.9 87.25 68.8 76.1 L71.85 80.6 Q44.15 72.55 12.4 56.0 24.0 67.35 12.25 59.55 L12.1 59.5 Q0.5 51.8 -14.5 40.75 -33.4 28.7 -48.45 14.0 L-48.6 13.9 Q-47.2 22.6 -64.2 -3.4 -93.2 -34.0 -71.75 -62.2 M63.05 71.05 Q65.7 72.1 68.8 76.1 L63.05 71.05 M-5.5 14.05 Q9.8 32.6 36.0 47.05 M-48.6 13.9 Q-57.55 3.9 -62.1 -6.2" fill="none" stroke="#4d2b06" stroke-linecap="round" stroke-linejoin="round" stroke-width="1.2000000000000002"/>
  </g>
</svg>
