<?xml version="1.0" encoding="UTF-8" standalone="no"?>
<svg xmlns:xlink="http://www.w3.org/1999/xlink" height="104.25px" width="381.95px" xmlns="http://www.w3.org/2000/svg">
  <g transform="matrix(1.0, 0.0, 0.0, 1.0, 190.2, 1.7)">
    <path d="M159.95 41.45 Q145.35 36.55 121.8 34.4 L109.0 31.9 97.1 32.85 Q76.05 37.75 66.15 57.85 L66.0 58.2 Q59.05 71.65 -4.2 91.3 L18.15 90.15 Q34.25 92.2 40.15 102.05 19.5 93.4 -4.2 91.3 -26.35 99.3 -80.8 89.05 L-73.85 82.75 Q-66.75 76.65 -58.85 71.45 L-121.1 47.9 Q-128.35 44.35 -137.25 42.15 -128.35 44.35 -121.1 47.9 L-58.85 71.45 Q-66.75 76.65 -73.85 82.75 -92.65 72.6 -116.05 69.45 -120.9 64.8 -131.95 62.5 -138.65 61.1 -147.55 60.55 -139.75 58.2 -130.9 58.05 -129.8 55.45 -132.35 53.95 -148.35 44.3 -172.95 38.85 -154.05 38.45 -139.4 41.65 L-137.25 42.15 -137.8 40.95 -79.3 14.5 64.2 -1.7 124.45 27.9 135.6 28.05 Q155.6 24.9 168.7 26.25 159.65 31.0 159.95 41.45 M85.3 27.25 L124.45 27.9 85.3 27.25 M-114.5 59.45 L-121.95 58.4 -130.9 58.05 -121.95 58.4 -114.5 59.45 M-131.5 60.5 L-131.1 60.5 -131.4 60.5 -131.5 60.5 M-99.7 63.45 Q-108.4 65.75 -116.05 69.45 -108.4 65.75 -99.7 63.45" fill="#8f2a2a" fill-rule="evenodd" stroke="none"/>
    <path d="M-131.5 60.5 L-131.1 60.5 M-147.55 60.55 Q-138.65 61.1 -131.95 62.5 -120.9 64.8 -116.05 69.45" fill="none" stroke="#373535" stroke-linecap="round" stroke-linejoin="round" stroke-width="0.05"/>
    <path d="M168.7 26.25 Q186.1 27.95 191.25 37.6 M121.8 34.4 Q145.35 36.55 159.95 41.45 172.15 45.5 178.05 51.5 M168.7 26.25 Q155.6 24.9 135.6 28.05 L124.45 27.9 85.3 27.25 M18.15 90.15 Q34.25 92.2 40.15 102.05 M-80.8 89.05 Q-86.0 94.1 -90.75 99.65 M-73.85 82.75 L-80.8 89.05 M-137.25 42.15 Q-128.35 44.35 -121.1 47.9 L-58.85 71.45 Q-66.75 76.65 -73.85 82.75 M-116.05 69.45 Q-129.45 75.9 -139.8 86.55 M-137.25 42.15 L-139.4 41.65 Q-154.05 38.45 -172.95 38.85 L-189.7 39.4 M-130.9 58.05 L-121.95 58.4 -114.5 59.45 M-130.9 58.05 Q-139.75 58.2 -147.55 60.55 L-165.45 69.85 M-116.05 69.45 Q-108.4 65.75 -99.7 63.45" fill="none" stroke="#373535" stroke-linecap="round" stroke-linejoin="round" stroke-width="1.0"/>
  </g>
</svg>
