<?xml version="1.0" encoding="UTF-8" standalone="no"?>
<svg xmlns:xlink="http://www.w3.org/1999/xlink" height="74.8px" width="110.0px" xmlns="http://www.w3.org/2000/svg">
  <g transform="matrix(1.0, 0.0, 0.0, 1.0, 55.0, 37.45)">
    <path d="M-7.6 -36.85 L-6.65 -30.8 Q-5.9 -24.4 -6.7 -22.85 L-14.2 -8.85 Q-20.5 4.05 -19.7 8.15 -15.8 9.9 2.9 8.5 25.35 6.85 35.7 7.85 L39.75 8.6 42.55 9.35 39.75 8.6 35.7 7.85 Q39.6 8.25 42.55 9.35 44.65 10.1 46.25 11.2 48.95 13.15 50.8 16.8 L50.85 16.85 52.05 18.4 53.0 19.4 Q54.15 20.55 54.35 21.5 L54.4 22.0 Q54.25 24.15 50.45 27.3 L47.4 28.5 39.9 29.05 47.4 28.5 48.6 28.5 49.75 28.8 48.6 28.5 47.4 28.5 39.9 29.05 47.4 28.5 50.45 27.3 49.1 28.35 49.75 28.8 50.1 29.25 Q50.25 29.85 49.4 30.95 L48.85 31.5 49.4 30.95 Q50.25 29.85 50.1 29.25 50.45 29.9 49.95 30.55 L48.85 31.5 46.05 32.55 44.9 32.85 38.4 33.6 31.25 33.85 38.4 33.6 44.9 32.85 Q39.35 34.15 31.25 33.85 L26.2 33.5 Q16.45 32.3 -4.7 34.85 L-21.2 36.65 -4.7 34.85 Q16.45 32.3 26.2 33.5 16.65 32.7 -4.75 35.15 L-21.2 36.65 -29.8 36.75 Q-36.9 35.7 -41.3 34.05 -44.85 32.7 -48.15 30.35 -48.05 31.05 -48.1 32.25 L-48.15 35.7 Q-52.6 31.35 -53.9 24.05 -55.1 17.1 -53.5 6.8 L-7.6 -36.85 M40.0 21.85 L45.85 21.65 Q50.65 21.1 51.2 19.15 L51.15 17.85 Q51.15 17.75 52.05 18.4 51.15 17.75 51.15 17.85 L51.2 19.15 Q50.65 21.1 45.85 21.65 L40.0 21.85 M46.05 17.8 Q46.05 16.95 44.1 16.95 L42.75 17.2 Q42.2 17.45 42.2 17.8 42.2 18.15 42.75 18.4 L44.1 18.65 45.5 18.4 46.05 17.8 M50.85 16.85 L50.9 17.2 Q51.6 20.85 45.85 21.65 51.6 20.85 50.9 17.2 L50.85 16.85 M44.8 31.25 L43.5 31.15 42.2 31.25 43.5 31.35 44.8 31.25 M46.75 25.55 Q46.75 25.2 44.8 25.2 42.85 25.2 42.85 25.55 L44.8 25.85 46.75 25.55 M37.8 22.2 Q37.8 20.0 36.5 18.5 35.15 16.95 33.3 16.95 31.45 16.95 30.15 18.5 28.85 20.05 28.85 22.2 28.85 24.35 30.15 25.9 31.45 27.45 33.3 27.45 35.15 27.45 36.5 25.9 37.8 24.4 37.8 22.2" fill="#2e6088" fill-rule="evenodd" stroke="none"/>
    <path d="M46.05 17.8 L45.5 18.4 44.1 18.65 42.75 18.4 Q42.2 18.15 42.2 17.8 42.2 17.45 42.75 17.2 L44.1 16.95 Q46.05 16.95 46.05 17.8 M46.75 25.55 L44.8 25.85 42.85 25.55 Q42.85 25.2 44.8 25.2 46.75 25.2 46.75 25.55 M44.8 31.25 L43.5 31.35 42.2 31.25 43.5 31.15 44.8 31.25 M37.8 22.2 Q37.8 24.4 36.5 25.9 35.15 27.45 33.3 27.45 31.45 27.45 30.15 25.9 28.85 24.35 28.85 22.2 28.85 20.05 30.15 18.5 31.45 16.95 33.3 16.95 35.15 16.95 36.5 18.5 37.8 20.0 37.8 22.2" fill="#808285" fill-rule="evenodd" stroke="none"/>
    <path d="M46.05 17.8 L45.5 18.4 44.1 18.65 42.75 18.4 Q42.2 18.15 42.2 17.8 42.2 17.45 42.75 17.2 L44.1 16.95 Q46.05 16.95 46.05 17.8 M46.75 25.55 L44.8 25.85 42.85 25.55 Q42.85 25.2 44.8 25.2 46.75 25.2 46.75 25.55 M44.8 31.25 L43.5 31.35 42.2 31.25 43.5 31.15 44.8 31.25 M37.8 22.2 Q37.8 24.4 36.5 25.9 35.15 27.45 33.3 27.45 31.45 27.45 30.15 25.9 28.85 24.35 28.85 22.2 28.85 20.05 30.15 18.5 31.45 16.95 33.3 16.95 35.15 16.95 36.5 18.5 37.8 20.0 37.8 22.2" fill="none" stroke="#808285" stroke-linecap="butt" stroke-linejoin="miter-clip" stroke-miterlimit="4.0" stroke-width="1.0"/>
    <path d="M35.7 7.85 Q25.35 6.85 2.9 8.5 -15.8 9.9 -19.7 8.15 -20.5 4.05 -14.2 -8.85 L-6.7 -22.85 Q-5.9 -24.4 -6.65 -30.8 L-7.6 -36.85 M-53.5 6.8 Q-55.1 17.1 -53.9 24.05 -52.6 31.35 -48.15 35.7 L-48.1 32.25 Q-48.05 31.05 -48.15 30.35 -44.85 32.7 -41.3 34.05 -36.9 35.7 -29.8 36.75 L-21.2 36.65 -4.7 34.85 Q16.45 32.3 26.2 33.5 L31.25 33.85 38.4 33.6 44.9 32.85 Q47.65 32.3 48.85 31.5 L49.4 30.95 Q50.25 29.85 50.1 29.25 L49.75 28.8 48.6 28.5 47.4 28.5 39.9 29.05 47.4 28.5 50.45 27.3 Q51.8 26.55 52.8 25.55 54.4 23.9 54.4 22.0 L54.35 21.5 Q54.1 19.95 52.6 18.8 L52.05 18.4 Q51.15 17.75 51.15 17.85 L51.2 19.15 Q50.65 21.1 45.85 21.65 L40.0 21.85 M42.55 9.35 L39.75 8.6 35.7 7.85 M42.55 9.35 Q44.75 9.95 45.85 10.65 49.95 13.2 50.85 16.85 L50.9 17.2 Q51.6 20.85 45.85 21.65" fill="none" stroke="#4a4f58" stroke-linecap="round" stroke-linejoin="miter-clip" stroke-miterlimit="3.0" stroke-width="1.2000000000000002"/>
  </g>
</svg>
