<?xml version="1.0" encoding="UTF-8" standalone="no"?>
<svg xmlns:xlink="http://www.w3.org/1999/xlink" height="168.15px" width="228.65px" xmlns="http://www.w3.org/2000/svg">
  <g transform="matrix(1.0, 0.0, 0.0, 1.0, 114.65, 84.05)">
    <path d="M27.45 -65.65 Q32.15 -64.95 44.4 -65.35 59.0 -65.85 60.7 -65.35 L66.45 -63.6 Q72.6 -61.55 75.55 -60.1 88.9 -51.05 98.8 -38.55 L114.0 -32.65 108.15 1.15 88.0 1.85 Q83.65 -8.05 83.6 -10.05 84.55 -14.65 85.3 -22.55 82.05 -11.8 78.1 -8.1 74.45 -4.7 68.1 -5.45 65.25 -5.8 52.65 -9.15 39.85 -12.55 29.15 -13.8 24.3 -14.35 19.6 -13.15 12.6 -11.25 0.85 -4.75 -18.75 6.1 -40.05 12.0 -51.0 15.1 -61.4 17.05 L-61.6 6.45 Q-61.75 3.35 -62.35 1.15 -65.55 -7.2 -71.15 -23.45 -75.25 -14.65 -76.35 -10.55 L-76.5 -9.75 Q-75.65 -6.9 -87.7 -1.95 L-89.45 2.15 Q-88.7 5.3 -86.85 7.35 -85.05 9.35 -82.15 10.35 L-81.1 11.0 -75.75 18.7 -80.65 15.4 Q-85.95 11.7 -88.25 9.65 L-88.6 9.35 -88.65 9.3 -93.55 5.15 Q-92.2 10.55 -96.5 3.05 L-98.15 -0.2 Q-97.6 2.8 -96.5 3.05 -95.25 7.4 -91.75 11.75 L-91.65 11.9 Q-87.9 16.6 -83.5 20.9 L-70.0 31.7 Q-61.85 43.05 -73.9 41.4 -82.05 41.9 -91.85 36.8 -92.85 38.15 -91.05 41.95 -93.0 41.35 -95.35 39.5 -100.3 35.45 -106.95 25.5 L-107.4 30.0 -107.35 31.7 -107.45 32.85 -107.4 33.05 -107.35 34.7 Q-110.1 31.65 -111.15 28.75 -112.15 26.0 -113.35 18.35 L-113.55 13.45 -113.65 11.3 -113.3 11.3 Q-113.8 4.0 -108.3 -1.35 L-105.0 -6.55 Q-103.9 -8.25 -101.75 -16.3 L-101.65 -16.55 -97.05 -15.75 Q-91.3 -14.4 -91.35 -25.6 L-93.3 -38.15 -92.8 -39.4 -93.55 -39.1 Q-98.2 -37.0 -105.6 -24.7 -110.65 -16.3 -112.35 -11.75 -106.2 -34.5 -89.2 -51.95 -82.6 -58.6 -75.4 -63.4 -69.7 -67.3 -66.15 -68.5 -55.3 -72.0 -16.15 -77.3 L-17.05 -78.1 -18.55 -78.55 -24.8 -80.1 -23.7 -80.25 -15.45 -79.7 -9.55 -78.65 Q11.7 -66.0 36.05 -58.05 29.45 -62.15 27.45 -65.65 M76.8 2.8 L75.8 3.05 75.85 3.0 76.7 2.8 76.8 2.8 M74.7 3.4 L71.6 4.3 68.15 4.95 71.45 4.2 74.7 3.4 M67.9 5.0 L67.65 5.05 67.75 4.95 67.9 5.0 M67.4 5.0 L66.1 5.25 67.15 5.05 67.4 5.0 M51.9 5.8 L51.45 5.85 51.25 5.85 36.1 5.55 20.6 4.15 19.9 4.05 19.45 3.95 19.5 3.95 25.15 4.7 51.75 5.8 51.9 5.8 M4.4 8.15 L-5.15 13.5 0.95 9.85 4.4 8.15 M-21.5 25.2 L-21.7 25.35 Q-24.1 27.3 -27.5 28.5 -31.4 29.85 -33.9 29.25 -30.4 29.1 -26.25 27.6 -23.0 26.35 -21.7 25.35 -23.0 26.35 -26.25 27.6 -30.4 29.1 -33.9 29.25 L-34.2 29.05 Q-27.65 28.05 -24.45 26.75 -23.3 26.35 -20.85 24.65 L-21.5 25.2 M-29.45 43.8 L-29.15 43.8 Q-28.6 43.8 -27.15 44.75 L-20.15 49.95 -28.2 44.8 -29.4 43.85 -29.45 43.8 -29.55 43.8 -36.7 44.0 -36.95 43.95 -29.7 43.6 -29.45 43.8 M51.45 5.85 L51.75 5.8 51.45 5.85 M19.5 3.95 L19.9 4.05 19.5 3.95 M-41.95 29.45 L-39.3 29.45 -39.3 29.55 -41.95 29.45 M-58.3 26.7 L-61.75 25.6 -60.95 25.75 -58.3 26.7 M-75.55 18.8 L-75.7 18.75 -75.75 18.7 -75.55 18.8 M-39.0 44.05 L-38.8 44.1 -41.5 44.2 -39.0 44.05" fill="#d6eefb" fill-rule="evenodd" stroke="none"/>
    <path d="M27.45 -65.65 Q29.45 -62.15 36.05 -58.05 11.7 -66.0 -9.55 -78.65 L-9.75 -79.1 -11.85 -80.75 -15.7 -83.45 -14.75 -83.25 -11.55 -82.55 -8.7 -81.65 Q-1.25 -79.2 10.7 -73.25 21.55 -67.9 24.7 -66.45 L25.95 -65.95 27.45 -65.65 M-112.35 -11.75 Q-110.65 -16.3 -105.6 -24.7 -98.2 -37.0 -93.55 -39.1 L-92.8 -39.4 -93.3 -38.15 -91.35 -25.6 Q-91.3 -14.4 -97.05 -15.75 L-101.65 -16.55 -101.75 -16.3 Q-103.9 -8.25 -105.0 -6.55 L-108.3 -1.35 Q-113.8 4.0 -113.3 11.3 L-113.65 11.3 -114.05 1.25 -113.2 -8.3 Q-113.15 -9.65 -112.35 -11.75 M-107.35 31.7 L-107.4 30.0 -106.95 25.5 Q-100.3 35.45 -95.35 39.5 -93.0 41.35 -91.05 41.95 -92.85 38.15 -91.85 36.8 -82.05 41.9 -73.9 41.4 -61.85 43.05 -70.0 31.7 L-83.5 20.9 Q-87.9 16.6 -91.65 11.9 L-91.75 11.75 Q-95.25 7.4 -96.5 3.05 -97.6 2.8 -98.15 -0.2 L-96.5 3.05 Q-92.2 10.55 -93.55 5.15 L-88.65 9.3 -88.6 9.35 -88.25 9.65 Q-85.95 11.7 -80.65 15.4 L-75.75 18.7 -81.1 11.0 -82.15 10.35 Q-85.05 9.35 -86.85 7.35 -88.7 5.3 -89.45 2.15 L-87.7 -1.95 Q-75.65 -6.9 -76.5 -9.75 L-76.35 -10.55 Q-75.25 -14.65 -71.15 -23.45 -65.55 -7.2 -62.35 1.15 -61.75 3.35 -61.6 6.45 L-61.4 17.05 Q-51.0 15.1 -40.05 12.0 -18.75 6.1 0.85 -4.75 12.6 -11.25 19.6 -13.15 24.3 -14.35 29.15 -13.8 39.85 -12.55 52.65 -9.15 65.25 -5.8 68.1 -5.45 74.45 -4.7 78.1 -8.1 82.05 -11.8 85.3 -22.55 84.55 -14.65 83.6 -10.05 83.65 -8.05 88.0 1.85 L88.25 2.3 88.3 2.4 Q83.75 1.9 80.3 2.2 L79.5 2.35 78.25 2.5 77.55 2.65 76.95 2.75 76.7 2.8 75.85 3.0 75.8 3.05 75.65 3.1 75.5 3.15 75.3 3.2 75.25 3.25 74.7 3.4 71.45 4.2 68.15 4.95 67.9 5.0 67.75 4.95 67.65 5.05 67.5 5.05 67.4 5.0 67.15 5.05 66.1 5.25 65.25 5.4 61.3 5.75 Q56.2 6.1 51.9 5.8 56.65 5.95 61.6 5.6 L65.25 5.4 61.6 5.6 Q56.65 5.95 51.9 5.8 L51.75 5.8 25.15 4.7 19.5 3.95 19.45 3.95 Q15.55 3.35 11.95 4.7 L4.4 8.15 0.95 9.85 -5.15 13.5 -7.15 14.75 -7.4 14.85 -8.5 15.65 -19.35 23.6 -20.85 24.65 Q-23.3 26.35 -24.45 26.75 -27.65 28.05 -34.2 29.05 L-33.9 29.25 -39.3 29.55 Q-32.95 40.45 -29.45 43.8 L-29.4 43.85 -29.55 43.8 -29.45 43.8 -29.7 43.6 -36.95 43.95 -36.7 44.0 -38.8 44.1 -39.0 44.05 -36.95 43.95 -39.0 44.05 -41.5 44.2 -48.05 44.65 -46.3 56.3 -46.35 56.25 -46.2 57.15 -45.5 61.9 -66.9 55.85 -71.05 54.65 -75.35 53.15 -80.2 51.4 -83.8 49.95 Q-85.75 48.95 -86.35 47.6 -86.75 48.45 -85.45 50.45 -84.15 52.5 -82.6 53.2 -89.0 53.0 -94.65 46.8 L-98.0 42.7 -98.6 41.9 -101.15 38.4 Q-104.75 33.05 -104.95 30.6 L-106.95 25.5 -107.35 31.7 M98.8 -38.55 Q88.9 -51.05 75.55 -60.1 L75.6 -60.1 75.55 -60.15 75.15 -60.65 Q73.25 -61.65 70.45 -62.4 67.6 -63.15 64.7 -67.15 69.65 -67.6 75.4 -63.6 L92.25 -52.4 Q103.35 -45.2 106.1 -41.85 L98.8 -38.55 M80.3 2.2 L84.85 2.0 88.25 2.3 84.85 2.0 80.3 2.2 M0.95 9.85 Q10.1 4.9 14.1 3.85 16.65 3.2 19.5 3.95 16.65 3.2 14.1 3.85 10.1 4.9 0.95 9.85 M-39.3 29.55 L-39.3 29.45 -41.95 29.45 -39.3 29.55 M-58.3 26.7 L-57.3 27.0 Q-52.7 28.75 -42.05 29.45 L-41.95 29.45 -42.05 29.45 Q-52.7 28.75 -57.3 27.0 L-58.3 26.7 -60.95 25.75 -61.75 25.6 -58.3 26.7 M-75.55 18.8 Q-70.55 24.85 -71.55 20.85 -68.5 22.8 -66.45 26.0 L-66.2 23.5 Q-63.4 29.05 -63.45 25.5 L-63.0 25.05 -62.85 25.15 -62.8 25.15 -61.75 25.6 -62.8 25.15 -62.85 25.15 -63.0 25.05 -63.45 25.5 Q-63.4 29.05 -66.2 23.5 L-66.45 26.0 Q-68.5 22.8 -71.55 20.85 -70.55 24.85 -75.55 18.8 L-75.75 18.7 -75.7 18.75 -75.55 18.8" fill="#a4c9de" fill-rule="evenodd" stroke="none"/>
    <path d="M-20.15 49.95 L-19.4 50.35 Q-13.4 52.75 -8.5 55.55 -1.1 58.5 25.9 65.25 L26.75 65.35 33.05 66.45 39.45 67.45 Q43.55 68.5 44.8 70.45 45.55 71.75 46.4 74.65 L46.45 75.15 45.15 80.55 44.8 81.1 Q45.35 78.85 44.85 77.1 44.35 75.25 43.1 74.9 40.85 72.3 39.75 71.6 38.55 70.9 34.0 69.7 38.55 70.9 39.75 71.6 40.85 72.3 43.1 74.9 L43.55 77.1 43.55 77.35 43.5 77.6 Q42.6 80.9 37.1 80.25 L19.4 76.65 Q-14.85 70.15 -22.1 68.2 -26.5 67.0 -31.05 64.7 L-46.3 56.3 -48.05 44.65 -41.5 44.2 -38.8 44.1 -36.7 44.0 -29.55 43.8 -29.4 43.85 -28.2 44.8 -20.15 49.95 M44.75 81.2 L44.7 81.3 44.7 81.2 44.75 81.2 M42.85 82.75 L40.9 83.35 39.7 83.5 41.05 83.15 42.85 82.75 M32.75 82.65 L32.1 82.55 32.55 82.6 32.75 82.65 M-44.85 62.85 L-45.1 62.3 -45.35 62.0 -45.5 61.9 -46.2 57.15 -45.25 61.7 -44.85 62.85 M-19.4 50.35 Q-13.35 53.95 -7.2 56.55 -0.35 59.35 9.0 61.85 14.05 63.2 25.9 65.25 14.05 63.2 9.0 61.85 -0.35 59.35 -7.2 56.55 -13.35 53.95 -19.4 50.35 M40.9 83.35 L41.05 83.15 40.9 83.35" fill="#1e7fae" fill-rule="evenodd" stroke="none"/>
    <path d="M44.8 81.1 L44.8 81.15 44.75 81.2 44.7 81.2 44.7 81.3 43.85 82.05 42.85 82.75 41.05 83.15 42.5 81.1 43.45 79.25 43.55 77.35 43.45 79.25 42.5 81.1 41.05 83.15 39.7 83.5 36.25 83.35 33.5 82.75 32.75 82.65 32.55 82.6 33.5 82.75 32.55 82.6 32.1 82.55 29.75 82.2 22.85 81.15 22.65 81.15 22.35 81.1 9.05 79.2 9.0 79.2 -20.0 74.9 -20.4 74.8 -21.0 74.7 -24.2 74.15 -24.35 74.2 -26.8 73.75 -30.75 72.95 -33.45 72.3 Q-37.85 71.15 -40.3 69.65 -44.65 66.95 -44.85 62.85 L-45.25 61.7 -46.2 57.15 -46.35 56.25 -46.3 56.3 -46.2 57.15 -46.3 56.3 -31.05 64.7 Q-26.5 67.0 -22.1 68.2 -14.85 70.15 19.4 76.65 L37.1 80.25 Q42.6 80.9 43.5 77.6 L43.55 77.35 43.55 77.1 43.1 74.9 Q44.35 75.25 44.85 77.1 45.35 78.85 44.8 81.1 L44.8 81.15 44.8 81.1 M-20.4 74.8 L-17.05 75.35 8.85 79.15 9.0 79.2 8.85 79.15 -17.05 75.35 -20.4 74.8 M44.7 81.3 L42.85 82.75 44.7 81.3 M-44.85 62.85 Q-43.85 66.7 -41.35 68.75 -38.9 70.8 -33.65 72.2 L-30.75 72.95 -33.65 72.2 Q-38.9 70.8 -41.35 68.75 -43.85 66.7 -44.85 62.85" fill="#2e6088" fill-rule="evenodd" stroke="none"/>
    <path d="M75.55 -60.1 Q72.6 -61.55 66.45 -63.6 L60.7 -65.35 Q59.0 -65.85 44.4 -65.35 32.15 -64.95 27.45 -65.65 L25.95 -65.95 24.7 -66.45 Q21.55 -67.9 10.7 -73.25 -1.25 -79.2 -8.7 -81.65 L-11.55 -82.55 -14.75 -83.25 -15.7 -83.45 -11.85 -80.75 -9.75 -79.1 -9.55 -78.65 -15.45 -79.7 -23.7 -80.25 -24.8 -80.1 -18.55 -78.55 -17.05 -78.1 -16.15 -77.3 Q-55.3 -72.0 -66.15 -68.5 -69.7 -67.3 -75.4 -63.4 -82.6 -58.6 -89.2 -51.95 -106.2 -34.5 -112.35 -11.75 -113.15 -9.65 -113.2 -8.3 L-114.05 1.25 -113.65 11.3 -113.55 13.45 -113.35 18.35 Q-112.15 26.0 -111.15 28.75 -110.1 31.65 -107.35 34.7 L-107.4 33.05 M-107.45 32.85 L-107.35 31.7 -107.4 30.0 -106.95 25.5 -104.95 30.6 Q-104.75 33.05 -101.15 38.4 L-98.6 41.9 -98.0 42.7 -94.65 46.8 Q-89.0 53.0 -82.6 53.2 -84.15 52.5 -85.45 50.45 -86.75 48.45 -86.35 47.6 -85.75 48.95 -83.8 49.95 L-80.2 51.4 -75.35 53.15 -71.05 54.65 -66.9 55.85 -45.5 61.9 -45.35 62.0 -45.1 62.3 -44.85 62.85 Q-43.85 66.7 -41.35 68.75 -38.9 70.8 -33.65 72.2 L-30.75 72.95 -26.8 73.75 -24.35 74.2 -24.2 74.15 -21.0 74.7 -20.4 74.8 -17.05 75.35 8.85 79.15 9.0 79.2 9.05 79.2 22.35 81.1 M-96.5 3.05 Q-92.2 10.55 -93.55 5.15 L-88.65 9.3 -88.6 9.35 -88.25 9.65 Q-85.95 11.7 -80.65 15.4 L-75.75 18.7 -75.7 18.75 -75.55 18.8 Q-70.55 24.85 -71.55 20.85 -68.5 22.8 -66.45 26.0 L-66.2 23.5 Q-63.4 29.05 -63.45 25.5 L-63.0 25.05 -62.85 25.15 -62.8 25.15 -61.75 25.6 -58.3 26.7 -57.3 27.0 Q-52.7 28.75 -42.05 29.45 L-41.95 29.45 -39.3 29.55 Q-32.95 40.45 -29.45 43.8 L-29.4 43.85 -28.2 44.8 -20.15 49.95 -19.4 50.35 Q-13.35 53.95 -7.2 56.55 -0.35 59.35 9.0 61.85 14.05 63.2 25.9 65.25 L26.75 65.35 33.05 66.45 39.45 67.45 Q43.55 68.5 44.8 70.45 45.55 71.75 46.4 74.65 L46.45 75.15 Q46.45 76.25 46.05 77.95 L45.15 80.55 44.8 81.1 44.8 81.15 44.75 81.2 44.7 81.3 42.85 82.75 40.9 83.35 39.7 83.5 36.25 83.35 33.5 82.75 32.75 82.65 32.1 82.55 29.75 82.2 22.85 81.15 M75.55 -60.1 L75.6 -60.1 75.55 -60.15 75.15 -60.65 Q73.25 -61.65 70.45 -62.4 67.6 -63.15 64.7 -67.15 69.65 -67.6 75.4 -63.6 L92.25 -52.4 Q103.35 -45.2 106.1 -41.85 M88.25 2.3 L96.95 3.1 M80.3 2.2 L79.5 2.35 78.25 2.5 77.55 2.65 76.95 2.75 76.8 2.8 75.8 3.05 75.65 3.1 75.5 3.15 75.3 3.2 75.25 3.25 74.7 3.4 71.6 4.3 68.15 4.95 67.9 5.0 67.75 4.95 67.65 5.05 67.5 5.05 67.4 5.0 66.1 5.25 65.25 5.4 61.6 5.6 Q56.65 5.95 51.9 5.8 L51.75 5.8 51.45 5.85 51.25 5.85 36.1 5.55 20.6 4.15 19.9 4.05 19.5 3.95 Q16.65 3.2 14.1 3.85 10.1 4.9 0.95 9.85 L-5.15 13.5 -7.15 14.75 -7.4 14.85 M-19.35 23.6 L-21.5 25.2 -21.7 25.35 Q-23.0 26.35 -26.25 27.6 -30.4 29.1 -33.9 29.25 L-39.3 29.55 M88.25 2.3 L84.85 2.0 80.3 2.2 M34.0 69.7 Q38.55 70.9 39.75 71.6 40.85 72.3 43.1 74.9 L43.55 77.1 43.55 77.35 43.45 79.25 42.5 81.1 41.05 83.15 40.9 83.35 M32.55 82.6 L33.5 82.75 M32.1 82.55 L32.55 82.6 M45.15 80.55 L46.45 75.15 M-36.95 43.95 L-39.0 44.05 -41.5 44.2 -48.05 44.65 -46.3 56.3 -46.2 57.15 -45.5 61.9 M-36.95 43.95 L-29.7 43.6 -29.45 43.8" fill="none" stroke="#4a4f58" stroke-linecap="round" stroke-linejoin="miter-clip" stroke-miterlimit="3.0" stroke-width="1.2000000000000002"/>
    <path d="M-95.95 2.7 L-95.85 2.85 Q-95.65 3.4 -96.2 3.65 -96.7 3.9 -97.0 3.35 L-97.05 3.15 -98.2 -0.15 -98.2 -0.25 Q-98.05 -0.4 -98.05 -0.2 L-96.3 2.3 -96.05 2.6 -95.95 2.7 M-102.9 -26.35 L-102.8 -26.25 -102.8 -25.25 -102.75 -24.8 -102.75 -24.6 -102.7 -24.35 -102.65 -24.2 -102.65 -24.1 -102.6 -23.95 -102.55 -23.85 -102.4 -23.35 -102.2 -22.9 -102.1 -22.8 -102.05 -22.65 -102.0 -22.55 -101.9 -22.45 -101.65 -22.05 -101.55 -21.95 -101.5 -21.85 -101.35 -21.7 -101.1 -21.35 -100.9 -21.15 -100.75 -20.95 -100.7 -20.9 -100.7 -20.8 Q-100.7 -20.6 -100.85 -20.75 L-100.9 -20.75 -101.1 -20.85 -101.4 -20.95 -102.4 -21.65 -102.5 -21.75 -102.6 -21.9 -102.8 -22.1 -103.0 -22.4 -103.3 -22.95 -103.5 -23.6 -103.55 -23.95 -103.6 -24.1 -103.6 -24.25 -103.55 -24.85 -103.55 -25.0 -103.5 -25.1 -103.45 -25.35 -103.4 -25.45 -103.3 -25.75 -103.15 -26.05 -103.05 -26.15 -103.0 -26.25 -102.9 -26.35 M-100.35 -29.25 L-99.95 -29.6 Q-99.3 -29.7 -99.2 -29.1 L-99.15 -29.05 -99.15 -28.95 -99.1 -28.8 -99.1 -28.6 -99.05 -28.5 -99.05 -28.35 -99.0 -28.25 -99.0 -28.15 -98.95 -27.95 -98.95 -27.85 -98.9 -27.75 -98.8 -27.3 -98.75 -27.2 -98.75 -27.05 -98.5 -26.25 -98.35 -25.95 -98.3 -25.75 -98.1 -25.35 -98.05 -25.15 -97.95 -24.95 -97.95 -24.85 -97.9 -24.8 -97.8 -24.6 -97.75 -24.55 -97.75 -24.45 -97.7 -24.3 -97.55 -24.0 -97.55 -23.95 -97.5 -23.85 -97.5 -23.45 Q-97.7 -22.8 -98.3 -23.0 L-98.6 -23.15 -98.75 -23.2 -98.95 -23.3 -99.35 -23.55 -99.85 -24.05 -100.35 -24.75 -100.55 -25.15 -100.55 -25.25 -100.65 -25.55 -100.9 -26.75 -100.9 -27.1 -100.85 -27.4 -100.85 -27.7 -100.8 -27.85 -100.8 -28.0 -100.75 -28.25 -100.7 -28.35 -100.7 -28.45 -100.6 -28.7 -100.6 -28.8 -100.55 -28.8 -100.55 -28.85 -100.5 -29.0 -100.4 -29.2 -100.35 -29.25 M-98.45 -31.85 L-98.45 -31.95 -98.3 -32.0 -98.2 -31.95 -97.45 -31.45 -97.2 -31.2 -97.05 -31.1 -96.9 -30.95 -95.8 -29.5 -95.4 -28.55 -95.1 -27.5 -94.95 -26.45 -94.9 -26.2 -94.9 -25.45 -95.0 -24.5 -95.05 -24.25 -95.05 -24.05 -95.55 -22.25 -95.65 -22.1 -95.7 -22.0 -95.75 -21.95 -95.85 -22.05 -95.85 -23.05 -95.8 -23.4 -95.8 -25.2 -95.85 -25.45 -95.85 -25.9 -96.05 -27.3 -96.3 -28.25 -96.4 -28.45 -96.4 -28.55 -96.45 -28.65 -96.6 -29.1 -97.3 -30.4 -97.8 -31.1 -98.45 -31.85" fill="#4a4f58" fill-rule="evenodd" stroke="none"/>
  </g>
</svg>
