<?xml version="1.0" encoding="UTF-8" standalone="no"?>
<svg xmlns:xlink="http://www.w3.org/1999/xlink" height="23.5px" width="20.15px" xmlns="http://www.w3.org/2000/svg">
  <g transform="matrix(1.0, 0.0, 0.0, 1.0, 10.1, 11.65)">
    <path d="M-0.75 -11.2 L0.15 -9.45 5.7 -5.2 Q7.35 -2.55 8.35 1.15 9.7 6.2 8.65 8.7 L8.65 8.75 7.85 9.95 7.65 10.1 Q7.25 10.55 6.4 9.9 L3.75 7.4 3.65 6.0 3.75 7.4 -0.65 3.6 -4.95 0.1 Q-5.5 -0.55 -5.8 -2.2 L-4.8 -3.5 Q-5.85 -2.35 -4.25 -2.85 -1.25 -1.9 3.4 3.85 4.2 4.55 4.65 3.85 L4.85 3.85 4.85 3.8 4.85 3.65 Q5.7 3.9 5.0 2.6 3.9 2.3 2.4 0.25 L1.2 -1.65 0.8 -2.05 Q-0.75 -3.6 -1.2 -4.5 L-1.75 -5.25 Q-1.75 -6.65 -0.2 -7.4 0.4 -8.4 -1.45 -8.1 -3.25 -8.25 -3.7 -7.55 -3.7 -5.6 -5.8 -5.05 -6.75 -3.9 -6.65 -3.05 L-7.5 -3.35 -7.5 -3.4 -8.1 -4.0 -9.45 -3.6 -9.45 -4.0 -9.5 -4.25 -9.25 -4.55 Q-8.25 -9.8 -3.4 -10.65 L-2.65 -10.95 -0.75 -11.2 M4.9 6.6 L5.0 6.95 5.0 7.05 5.05 7.1 5.05 7.15 5.2 7.4 5.25 7.55 5.25 7.6 5.3 7.6 5.3 7.7 5.4 7.85 5.5 7.95 5.9 8.5 6.1 8.7 6.2 8.75 6.2 8.8 6.25 8.8 6.35 8.9 6.6 9.1 6.65 9.15 6.7 9.15 6.8 9.2 7.1 9.4 7.25 9.35 7.25 9.25 7.15 8.9 7.15 8.8 7.1 8.75 7.1 8.7 6.95 8.45 6.9 8.3 6.9 8.25 6.85 8.25 6.85 8.15 6.75 8.0 6.65 7.9 6.25 7.35 6.05 7.15 5.95 7.1 5.95 7.05 5.9 7.05 5.8 6.95 5.55 6.75 5.5 6.7 5.45 6.7 5.35 6.65 5.05 6.45 4.9 6.5 4.9 6.6" fill="#a8b6c9" fill-rule="evenodd" stroke="none"/>
    <path d="M-6.65 -3.05 Q-6.75 -3.9 -5.8 -5.05 -3.7 -5.6 -3.7 -7.55 -3.25 -8.25 -1.45 -8.1 0.4 -8.4 -0.2 -7.4 -1.75 -6.65 -1.75 -5.25 L-1.2 -4.5 Q-0.75 -3.6 0.8 -2.05 L1.2 -1.65 2.4 0.25 Q3.9 2.3 5.0 2.6 5.7 3.9 4.85 3.65 L4.85 3.8 4.85 3.85 4.65 3.85 4.6 3.8 Q-0.5 -0.9 -2.35 -3.45 -3.4 -4.3 -4.2 -4.1 L-4.4 -3.9 -4.8 -3.5 -5.8 -2.2 Q-6.6 -1.75 -6.65 -3.05" fill="#4a4f58" fill-rule="evenodd" stroke="none"/>
    <path d="M8.65 8.7 L8.85 8.75 8.6 9.8 8.35 10.25 8.45 10.75 8.3 11.15 Q8.0 11.45 6.95 10.75 5.9 10.1 4.35 8.25 3.65 7.55 2.8 7.3 L1.2 6.45 0.25 5.75 -1.85 4.75 Q-3.1 4.25 -4.75 3.15 L-7.1 1.4 -8.15 -0.1 Q-9.25 -1.95 -9.45 -3.6 L-8.1 -4.0 -7.5 -3.4 -7.5 -3.35 -6.65 -3.05 Q-6.6 -1.75 -5.8 -2.2 -5.5 -0.55 -4.95 0.1 L-0.65 3.6 3.75 7.4 4.35 8.25 3.75 7.4 6.4 9.9 Q7.25 10.55 7.65 10.1 L7.85 9.95 8.65 8.75 8.65 8.7" fill="#8491a2" fill-rule="evenodd" stroke="none"/>
    <path d="M5.7 -5.2 L3.15 -8.8 3.6 -8.35 5.7 -5.2" fill="#d6eefb" fill-rule="evenodd" stroke="none"/>
    <path d="M1.0 -10.45 L0.9 -10.25 0.7 -10.2 0.5 -10.35 0.55 -10.65 1.0 -10.45" fill="#a4c9de" fill-rule="evenodd" stroke="none"/>
    <path d="M0.55 -10.65 L0.5 -10.35 0.7 -10.2 0.9 -10.25 1.0 -10.45 2.0 -9.9 3.15 -8.8 5.7 -5.2 0.15 -9.45 -0.75 -11.2 -0.5 -11.15 0.55 -10.65 M-4.8 -3.5 L-4.4 -3.9 -4.2 -4.1 Q-3.4 -4.3 -2.35 -3.45 -0.5 -0.9 4.6 3.8 L4.65 3.85 Q4.2 4.55 3.4 3.85 -1.25 -1.9 -4.25 -2.85 -5.85 -2.35 -4.8 -3.5" fill="#ffffff" fill-rule="evenodd" stroke="none"/>
    <path d="M4.9 6.6 L4.9 6.5 5.05 6.45 5.35 6.65 5.45 6.7 5.5 6.7 5.55 6.75 5.8 6.95 5.9 7.05 5.95 7.05 5.95 7.1 6.05 7.15 6.25 7.35 6.65 7.9 6.75 8.0 6.85 8.15 6.85 8.25 6.9 8.25 6.9 8.3 6.95 8.45 7.1 8.7 7.1 8.75 7.15 8.8 7.15 8.9 7.25 9.25 7.25 9.35 7.1 9.4 6.8 9.2 6.7 9.15 6.65 9.15 6.6 9.1 6.35 8.9 6.25 8.8 6.2 8.8 6.2 8.75 6.1 8.7 5.9 8.5 5.5 7.95 5.4 7.85 5.3 7.7 5.3 7.6 5.25 7.6 5.25 7.55 5.2 7.4 5.05 7.15 5.05 7.1 5.0 7.05 5.0 6.95 4.9 6.6" fill="#ebf7fd" fill-rule="evenodd" stroke="none"/>
    <path d="M8.85 8.75 Q9.6 8.1 9.4 5.35 L8.8 0.7 M3.75 7.4 L4.35 8.25 Q5.9 10.1 6.95 10.75 8.0 11.45 8.3 11.15 L8.45 10.75 8.35 10.25 8.6 9.8 8.85 8.75 M4.35 8.25 Q3.65 7.55 2.8 7.3 L1.2 6.45 0.25 5.75 -1.85 4.75 Q-3.1 4.25 -4.75 3.15 L-7.1 1.4 -8.15 -0.1 Q-9.25 -1.95 -9.45 -3.6 L-9.45 -4.0 -9.5 -4.25 M3.65 6.0 L3.75 7.4" fill="none" stroke="#4a4f58" stroke-linecap="round" stroke-linejoin="round" stroke-width="1.2000000000000002"/>
    <path d="M0.55 -10.65 L-0.5 -11.15 M5.7 -5.2 L3.15 -8.8 2.0 -9.9 1.0 -10.45 0.55 -10.65" fill="none" stroke="#4a4f58" stroke-linecap="round" stroke-linejoin="round" stroke-width="1.0"/>
  </g>
</svg>
