<?xml version="1.0" encoding="UTF-8" standalone="no"?>
<svg xmlns:xlink="http://www.w3.org/1999/xlink" height="53.3px" width="15.55px" xmlns="http://www.w3.org/2000/svg">
  <g transform="matrix(1.0, 0.0, 0.0, 1.0, -7.05, 2.45)">
    <path d="M13.65 -2.45 Q14.25 -2.45 15.4 -0.5 15.4 0.3 14.65 0.3 14.15 0.3 13.45 -0.65 L12.85 -1.6 Q12.85 -2.45 13.65 -2.45 M22.6 19.65 Q22.6 20.75 22.2 21.55 21.75 22.35 21.15 22.35 20.55 22.35 20.15 21.55 19.7 20.75 19.7 19.65 19.7 18.55 20.15 17.75 20.55 16.95 21.15 16.95 21.75 16.95 22.2 17.75 22.6 18.55 22.6 19.65 M13.95 4.7 Q13.0 3.9 13.0 5.5 L13.65 6.6 14.4 7.7 14.6 8.2 Q14.25 8.8 14.25 10.05 L14.3 10.6 14.45 10.9 14.45 11.0 14.55 11.45 Q14.7 11.85 15.15 11.85 L15.65 11.55 15.85 11.0 15.65 10.3 15.75 9.9 16.1 9.75 16.0 10.35 16.05 11.6 Q15.95 12.7 14.9 12.7 14.05 12.7 13.85 12.05 L13.8 11.35 Q13.8 10.85 14.1 9.9 L14.35 8.45 12.7 6.6 Q11.05 5.0 11.05 3.7 11.05 1.85 12.35 3.0 L13.95 4.7 M14.4 5.1 L16.3 6.5 Q17.0 7.0 17.0 7.85 17.0 8.4 16.5 8.9 L16.3 9.2 16.3 8.95 Q16.3 7.85 15.55 6.65 15.5 6.0 14.65 5.4 L14.4 5.1 M11.45 10.15 Q11.45 11.1 10.75 11.1 10.45 11.1 8.65 8.5 8.65 6.9 10.05 8.0 11.45 9.1 11.45 10.15 M7.5 3.05 L7.45 2.9 7.4 2.35 Q7.4 1.15 8.1 1.05 L7.95 0.5 Q7.95 -0.3 8.8 -0.3 9.7 -0.3 9.7 0.75 L9.5 1.3 9.0 1.6 8.95 1.6 8.95 1.9 8.85 2.5 Q8.7 1.55 8.2 1.6 7.55 1.7 7.5 3.05 M8.9 3.45 Q9.7 3.55 9.6 4.15 9.6 5.1 8.4 5.25 L8.35 5.3 7.75 5.7 Q7.05 5.7 7.05 4.8 L7.05 4.7 7.15 5.05 Q7.3 5.45 7.75 5.45 8.2 5.45 8.45 5.0 L8.5 4.9 8.9 4.25 8.9 3.45 M7.4 3.8 L7.5 3.65 7.5 3.7 7.4 3.8 M15.4 16.0 Q15.4 17.25 14.7 17.25 14.25 17.25 14.0 16.1 L13.8 14.95 Q13.8 13.85 14.6 14.25 15.4 14.65 15.4 16.0 M15.95 21.75 L15.75 22.5 15.2 22.8 14.7 22.5 Q14.45 22.2 14.45 21.75 14.45 21.3 14.7 21.0 L15.2 20.7 15.75 21.0 15.95 21.75 M15.9 35.55 L15.45 36.85 15.05 36.9 Q14.4 35.8 14.65 33.9 L15.05 30.7 14.65 28.7 14.25 26.7 14.55 24.95 Q14.9 23.45 15.3 22.9 16.95 23.8 16.7 25.65 L16.25 27.55 16.1 26.65 16.3 25.4 Q16.3 24.15 15.5 24.75 14.7 25.4 14.7 26.65 L14.7 27.8 Q14.85 28.85 15.55 28.85 L16.05 28.6 16.15 33.15 16.1 34.15 15.6 33.95 Q14.9 34.0 14.9 34.8 L15.0 35.25 Q15.15 35.65 15.6 35.65 L15.9 35.55 M15.75 49.15 L15.55 50.35 15.0 50.85 Q14.7 50.85 14.5 50.35 14.25 49.85 14.25 49.15 14.25 48.45 14.5 47.95 14.7 47.45 15.0 47.45 15.3 47.45 15.55 47.95 L15.75 49.15" fill="#ffffff" fill-opacity="0.69803923" fill-rule="evenodd" stroke="none"/>
    <path d="M15.75 9.9 L15.65 10.3 15.85 11.0 15.65 11.55 15.15 11.85 Q14.7 11.85 14.55 11.45 L14.45 11.0 14.45 10.9 14.3 10.6 14.25 10.05 Q14.25 8.8 14.6 8.2 L14.75 8.95 Q15.05 9.9 15.6 9.9 L15.75 9.9 M7.05 4.7 L7.05 4.6 Q7.05 4.0 7.4 3.8 L7.5 3.7 7.5 4.15 Q7.6 4.95 8.2 4.95 L8.5 4.9 8.45 5.0 Q8.2 5.45 7.75 5.45 7.3 5.45 7.15 5.05 L7.05 4.7" fill="#ebf7fd" fill-rule="evenodd" stroke="none"/>
    <path d="M14.6 8.2 L14.4 7.7 13.65 6.6 13.0 5.5 Q13.0 3.9 13.95 4.7 L14.4 5.1 14.65 5.4 Q15.5 6.0 15.55 6.65 16.3 7.85 16.3 8.95 L16.3 9.2 16.1 9.75 15.75 9.9 15.6 9.9 Q15.05 9.9 14.75 8.95 L14.6 8.2 M8.85 2.5 L8.9 3.35 8.9 3.45 8.9 4.25 8.5 4.9 8.2 4.95 Q7.6 4.95 7.5 4.15 L7.5 3.7 7.5 3.65 7.5 3.3 7.5 3.05 Q7.55 1.7 8.2 1.6 8.7 1.55 8.85 2.5 M16.25 27.55 L16.3 28.0 16.1 28.55 16.05 28.6 15.55 28.85 Q14.85 28.85 14.7 27.8 L14.7 26.65 Q14.7 25.4 15.5 24.75 16.3 24.15 16.3 25.4 L16.1 26.65 16.25 27.55 M16.1 34.15 L16.3 34.85 16.1 35.35 15.9 35.55 15.6 35.65 Q15.15 35.65 15.0 35.25 L14.9 34.8 Q14.9 34.0 15.6 33.95 L16.1 34.15" fill="#ffffff" fill-rule="evenodd" stroke="none"/>
  </g>
</svg>
