<?xml version="1.0" encoding="UTF-8" standalone="no"?>
<svg xmlns:xlink="http://www.w3.org/1999/xlink" height="66.35px" width="32.7px" xmlns="http://www.w3.org/2000/svg">
  <g transform="matrix(1.0, 0.0, 0.0, 1.0, 7.8, 11.15)">
    <path d="M7.55 -9.35 Q7.6 -10.8 7.85 -11.15 8.15 -10.85 10.0 -9.55 L11.95 -8.15 11.9 -8.1 Q11.1 -8.55 8.4 -7.45 L8.45 -8.05 Q8.45 -9.4 7.75 -9.4 L7.55 -9.35 M12.2 -8.0 L12.75 -7.6 Q12.55 -7.35 12.7 -6.05 L12.45 -6.25 12.2 -7.55 12.2 -8.0 M12.8 -3.05 L12.3 -1.35 Q11.75 -1.75 10.95 -1.75 L10.9 -0.6 10.45 -1.4 11.05 -2.45 11.25 -2.7 11.75 -2.45 12.8 -3.05 M12.55 -0.8 L12.95 -0.5 Q12.8 -1.1 14.15 -2.45 L15.5 -1.1 14.6 2.35 14.55 2.5 14.15 2.55 Q12.75 2.0 11.55 0.35 L12.15 0.0 12.55 -0.8 M9.95 -3.0 L9.55 -2.55 Q9.25 -2.2 8.65 -2.2 L8.2 -2.2 8.55 -3.05 8.6 -3.05 9.55 -3.35 9.95 -3.25 9.95 -3.0 M20.05 25.0 Q20.75 25.0 20.95 24.0 L20.95 23.9 Q21.55 23.35 21.55 21.95 21.55 21.3 21.35 21.25 L20.9 21.25 20.8 20.7 21.8 18.3 Q21.8 17.7 21.6 17.6 L21.35 17.5 20.45 17.45 21.15 16.95 22.15 17.95 Q22.6 18.55 22.6 19.5 L21.9 22.4 Q21.3 24.6 21.35 25.0 L21.3 25.15 20.65 25.2 20.05 25.0 M17.75 15.55 Q17.3 14.85 17.05 14.95 16.65 13.7 16.25 13.2 L15.65 12.75 15.65 12.5 15.35 11.8 15.2 11.6 16.05 11.5 17.25 13.1 Q17.95 13.95 17.75 15.55 M15.45 5.7 L15.1 5.55 14.95 5.6 14.7 5.25 Q15.1 5.25 15.45 5.7 M13.95 4.7 L12.25 3.5 11.95 4.3 Q12.2 5.2 13.0 6.25 L14.2 8.0 Q12.4 9.25 9.65 3.7 L9.15 5.05 Q8.5 5.9 7.1 5.5 L7.1 5.45 7.35 5.3 8.45 5.4 8.5 4.9 Q9.7 4.1 9.5 2.3 L10.45 2.5 10.85 2.35 11.95 2.8 13.95 4.7 M11.2 8.7 L11.2 8.9 11.0 9.55 Q11.0 10.1 12.5 11.75 L13.8 13.05 14.35 13.75 13.95 13.15 14.8 13.5 15.05 13.5 Q15.7 15.05 13.45 13.75 L10.3 11.85 9.85 11.95 6.05 7.35 6.2 6.8 7.0 6.6 Q8.75 6.6 9.65 7.35 L11.2 8.7 M14.6 22.4 Q15.0 22.4 14.85 22.05 L14.8 21.8 15.35 22.8 14.6 22.4 M15.35 22.95 L15.25 24.5 15.05 25.25 14.85 25.45 14.45 25.35 Q15.2 22.8 15.35 22.95 M14.25 26.65 L14.9 27.8 Q15.25 28.25 15.25 28.8 L15.15 29.45 14.85 29.6 14.25 26.65 M14.8 37.45 Q14.8 39.4 15.1 42.1 L14.75 42.1 14.75 37.45 14.8 37.45 M15.0 47.45 L14.5 49.25 14.25 49.1 14.55 48.1 15.0 47.45 M17.2 45.8 L17.0 44.7 17.35 42.65 17.3 43.8 Q17.3 45.0 18.0 45.15 L18.85 44.75 19.5 42.6 Q19.5 43.95 18.85 44.9 18.15 45.8 17.2 45.8 M17.5 37.1 L17.1 35.25 17.2 34.65 Q17.55 31.6 17.5 29.5 L18.15 28.75 Q18.55 29.25 18.8 31.4 L19.15 36.45 18.9 36.1 Q17.85 36.75 17.85 38.0 17.85 38.8 18.15 39.9 18.4 41.05 18.7 41.4 19.3 41.3 19.4 40.45 L19.5 42.1 17.45 42.0 17.85 39.1 17.5 37.2 17.5 37.1 M16.1 33.7 Q15.8 32.95 15.9 32.5 L16.1 31.8 16.1 33.7 M18.35 23.9 L18.65 23.45 18.9 24.15 19.05 24.4 18.35 23.9 M9.7 0.8 L9.0 0.6 8.5 0.65 8.3 0.4 8.8 -0.3 9.7 0.8 M4.2 10.55 L2.5 9.8 2.7 9.8 3.45 10.0 4.2 10.55 M-2.3 4.55 L-2.6 3.7 Q-2.9 3.4 -1.9 3.4 L3.65 8.2 2.9 7.85 Q2.45 7.35 1.8 7.2 L0.25 5.9 -0.6 4.95 -1.65 4.1 Q-2.15 4.1 -2.3 4.55 M7.5 22.1 L8.3 22.5 Q8.8 22.55 9.7 21.9 L8.7 19.95 Q8.0 19.0 6.5 18.35 L6.25 18.65 6.2 19.05 Q5.4 18.5 4.15 18.5 L3.45 18.5 3.25 18.55 Q2.85 18.55 2.85 18.75 L2.6 19.05 2.4 19.35 1.95 20.7 Q1.6 21.8 1.55 23.4 1.15 21.2 0.75 13.85 L0.7 13.6 Q0.25 13.4 1.25 13.4 3.95 13.4 7.1 17.65 9.8 21.25 9.8 22.15 9.8 23.15 9.15 24.15 L9.15 23.5 Q9.15 22.85 8.95 22.8 L8.45 22.75 7.85 23.2 7.5 22.1 M8.05 24.55 L8.8 24.6 8.1 25.4 8.05 24.55 M16.7 15.95 Q16.8 15.7 16.85 15.95 L17.05 16.95 16.9 16.7 16.7 15.95 M13.6 17.15 L13.35 16.8 13.8 17.1 13.8 17.15 13.6 17.15" fill="#ffffff" fill-opacity="0.69803923" fill-rule="evenodd" stroke="none"/>
    <path d="M11.95 -8.15 Q12.1 -8.35 12.2 -8.0 L12.2 -7.55 12.45 -6.25 12.7 -6.05 Q13.15 -5.5 13.15 -4.15 13.15 -3.45 12.8 -3.05 L11.75 -2.45 11.25 -2.7 11.0 -2.8 10.7 -2.8 9.95 -3.0 9.95 -3.25 9.55 -3.35 8.6 -3.05 8.55 -3.05 8.2 -2.2 8.1 -2.1 Q7.6 -1.3 6.8 -1.3 5.7 -1.3 6.0 -2.85 5.9 -2.65 5.7 -2.7 L5.65 -2.75 5.15 -2.5 5.1 -2.45 Q4.95 -2.1 4.5 -2.1 3.8 -2.1 3.8 -2.95 L3.85 -3.1 3.6 -3.65 1.9 -4.65 Q-0.9 -5.7 -1.1 -6.6 L-1.5 -6.55 -2.0 -6.65 -2.35 -6.6 -4.4 -7.5 Q-5.7 -7.8 -5.7 -8.65 -5.7 -9.35 -5.15 -9.45 -4.55 -9.6 -3.8 -9.05 L-2.35 -8.4 -2.0 -8.15 -1.8 -8.3 -1.65 -8.35 -1.0 -8.35 Q0.45 -8.35 3.2 -6.0 L4.4 -6.0 5.8 -6.4 6.4 -6.25 6.7 -6.85 6.95 -7.9 7.05 -8.8 Q7.15 -9.3 7.55 -9.35 L7.75 -9.4 Q8.45 -9.4 8.45 -8.05 L8.4 -7.45 Q11.1 -8.55 11.9 -8.1 L11.95 -8.15 M12.3 -1.35 L12.55 -0.8 12.15 0.0 11.55 0.35 11.1 0.1 10.9 -0.6 10.95 -1.75 Q11.75 -1.75 12.3 -1.35 M20.45 17.45 L21.35 17.5 21.6 17.6 Q21.8 17.7 21.8 18.3 L20.8 20.7 20.9 21.25 21.35 21.25 Q21.55 21.3 21.55 21.95 21.55 23.35 20.95 23.9 L20.95 24.0 Q20.75 25.0 20.05 25.0 L20.0 25.0 Q19.45 25.0 19.05 24.4 L18.9 24.15 18.65 23.45 18.35 23.9 Q17.7 24.95 16.85 28.0 16.1 30.85 16.1 31.8 L15.9 32.5 Q15.8 32.95 16.1 33.7 L16.65 33.75 17.2 34.65 17.1 35.25 17.5 37.1 17.4 37.55 Q16.65 41.85 16.65 43.6 16.65 44.2 16.8 44.45 L17.0 44.7 17.2 45.8 16.75 48.25 18.45 54.2 18.4 55.0 17.3 55.2 Q15.4 54.95 14.2 52.95 13.3 51.4 13.3 50.2 13.3 49.55 13.6 49.3 13.75 49.15 14.25 49.1 L14.5 49.25 15.0 47.45 15.1 42.1 Q14.8 39.4 14.8 37.45 L14.3 31.85 14.5 30.8 14.85 29.6 15.15 29.45 15.25 28.8 Q15.25 28.25 14.9 27.8 L14.25 26.65 Q14.05 25.85 14.45 25.35 L14.85 25.45 15.05 25.25 15.25 24.5 15.35 22.95 15.35 22.8 14.8 21.8 14.85 22.05 Q15.0 22.4 14.6 22.4 L14.1 22.65 Q12.95 21.95 11.75 19.7 10.65 17.35 8.0 15.0 9.25 15.2 6.95 12.9 4.7 10.7 10.25 13.2 L10.7 13.35 9.85 11.95 10.3 11.85 13.45 13.75 Q15.7 15.05 15.05 13.5 L14.8 13.5 13.95 13.15 13.8 13.05 12.5 11.75 Q11.0 10.1 11.0 9.55 L11.2 8.9 11.2 8.7 11.4 8.75 11.75 8.65 12.2 8.9 12.6 9.15 13.6 9.05 14.15 9.1 14.15 8.8 14.2 8.0 13.0 6.25 Q12.2 5.2 11.95 4.3 L12.25 3.5 13.95 4.7 14.7 5.25 14.95 5.6 15.1 5.55 15.45 5.7 Q15.9 6.0 16.4 7.25 L16.45 8.2 16.7 9.1 16.45 10.3 16.35 10.65 Q16.45 11.1 16.05 11.5 L15.2 11.6 15.35 11.8 15.65 12.5 15.65 12.75 16.25 13.2 Q16.65 13.7 17.05 14.95 17.3 14.85 17.75 15.55 17.75 16.35 18.55 16.9 19.35 17.45 20.45 17.45 M9.7 0.8 L10.55 1.25 10.85 2.35 10.45 2.5 9.5 2.3 Q9.7 4.1 8.5 4.9 L7.95 4.7 7.35 5.3 7.1 5.45 6.65 5.55 6.3 5.65 6.1 5.8 5.85 6.7 5.35 6.9 Q3.35 6.05 0.4 1.75 L0.6 1.25 1.1 1.1 4.45 2.2 Q5.65 2.2 6.2 1.8 L6.4 1.75 6.6 1.4 Q7.35 0.3 7.95 0.3 L8.3 0.4 8.5 0.65 9.0 0.6 9.7 0.8 M3.65 8.2 L4.65 8.65 Q6.4 9.6 6.4 10.5 L6.25 11.05 5.7 11.4 4.2 10.55 3.45 10.0 2.7 9.8 2.5 9.8 2.1 9.55 Q1.4 9.25 0.75 8.75 L0.45 8.45 -0.85 7.1 Q-2.4 5.45 -2.4 5.0 L-2.3 4.55 Q-2.15 4.1 -1.65 4.1 L-0.6 4.95 0.25 5.9 1.8 7.2 Q2.45 7.35 2.9 7.85 L3.65 8.2 M1.55 23.4 Q1.6 21.8 1.95 20.7 L2.4 19.35 2.6 19.05 2.85 18.75 Q2.85 18.55 3.25 18.55 L3.45 18.5 4.15 18.5 Q5.4 18.5 6.2 19.05 L6.25 18.65 6.5 18.35 Q8.0 19.0 8.7 19.95 L9.7 21.9 Q8.8 22.55 8.3 22.5 L7.5 22.1 7.05 21.3 Q6.85 21.6 6.5 21.6 6.0 21.6 5.65 21.0 L5.25 20.25 3.7 20.2 3.55 20.35 3.75 20.7 3.85 21.1 3.25 23.0 3.05 23.9 Q2.8 24.65 2.25 24.65 1.55 24.65 1.55 23.75 L1.55 23.4 M7.85 23.2 L8.45 22.75 8.95 22.8 Q9.15 22.85 9.15 23.5 L9.15 24.15 9.0 24.6 8.8 24.6 8.05 24.55 Q7.7 24.0 7.85 23.2 M16.7 15.95 L16.9 16.7 17.05 16.95 16.85 15.95 Q16.8 15.7 16.7 15.95 M13.6 17.15 L13.8 17.15 13.8 17.1 13.35 16.8 13.6 17.15 M19.15 36.45 L19.4 40.45 Q19.3 41.3 18.7 41.4 18.4 41.05 18.15 39.9 17.85 38.8 17.85 38.0 17.85 36.75 18.9 36.1 L19.15 36.45 M19.5 42.1 L19.5 42.6 18.85 44.75 18.0 45.15 Q17.3 45.0 17.3 43.8 L17.35 42.65 17.45 42.0 19.5 42.1 M8.85 31.5 Q8.85 32.4 8.15 32.4 7.6 32.4 7.35 31.3 L7.2 30.15 Q7.2 29.5 7.55 28.65 8.05 27.5 8.7 28.65 L8.85 31.5 M24.9 36.95 L24.85 37.8 Q24.75 38.3 24.2 38.3 23.65 38.3 23.55 37.55 L23.55 36.95 Q23.55 35.65 24.25 35.7 24.9 35.75 24.9 36.95 M-3.3 5.75 L-3.65 6.5 -3.5 7.45 -3.5 8.65 Q-3.65 9.45 -4.2 9.45 -5.05 9.45 -5.1 8.3 L-5.1 8.25 -5.25 8.25 Q-5.9 8.25 -6.0 7.4 L-5.9 6.9 Q-6.65 6.8 -6.45 5.9 -6.45 4.35 -4.95 5.15 L-4.6 5.35 Q-3.3 4.25 -3.3 5.75 M-3.5 3.35 L-3.65 3.95 -4.2 4.35 Q-5.45 4.35 -6.0 1.7 -6.0 -0.5 -4.75 1.2 L-3.5 3.35 M-7.05 15.6 Q-7.85 15.6 -7.8 14.8 -7.8 13.95 -6.35 12.8 L-6.15 12.65 Q-6.05 11.55 -5.3 11.3 -4.5 11.05 -4.5 12.15 -4.5 13.8 -5.35 13.8 L-7.05 15.6" fill="#ffffff" fill-rule="evenodd" stroke="none"/>
    <path d="M8.5 4.9 L8.45 5.4 7.35 5.3 7.95 4.7 8.5 4.9" fill="#ebf7fd" fill-rule="evenodd" stroke="none"/>
  </g>
</svg>
