<?xml version="1.0" encoding="UTF-8" standalone="no"?>
<svg xmlns:xlink="http://www.w3.org/1999/xlink" height="140.8px" width="208.25px" xmlns="http://www.w3.org/2000/svg">
  <g transform="matrix(1.0, 0.0, 0.0, 1.0, 20.7, 69.05)">
    <path d="M47.45 -54.25 L48.15 -53.4 Q48.15 -52.85 44.35 -52.6 39.6 -52.3 36.6 -50.25 L34.15 -47.85 Q32.6 -46.25 31.65 -46.25 31.4 -46.25 30.35 -45.15 29.8 -45.15 29.5 -45.8 L29.3 -46.55 Q29.3 -48.6 34.75 -51.6 41.05 -55.1 47.45 -54.25 M7.25 -34.9 Q7.25 -33.15 6.1 -31.9 4.7 -30.3 4.05 -27.7 L3.7 -23.35 Q3.55 -20.4 2.9 -20.4 1.75 -20.4 2.05 -23.35 2.05 -24.7 2.4 -26.5 L2.7 -30.3 Q3.5 -32.1 3.5 -33.75 7.25 -37.2 7.25 -34.9 M7.55 -9.35 Q7.6 -10.8 7.85 -11.15 8.15 -10.85 10.0 -9.55 L11.95 -8.15 11.9 -8.1 Q11.2 -8.5 8.95 -7.65 L8.45 -8.2 Q8.4 -9.4 7.75 -9.4 L7.55 -9.35 M12.2 -8.0 L12.75 -7.6 Q12.55 -7.35 12.7 -6.05 L12.45 -6.25 12.2 -7.55 12.2 -8.0 M12.8 -3.05 L12.3 -1.35 Q11.75 -1.75 10.95 -1.75 L10.9 -0.6 10.45 -1.4 11.05 -2.45 11.25 -2.7 11.75 -2.45 12.8 -3.05 M12.55 -0.8 L12.95 -0.5 Q12.8 -1.1 14.15 -2.45 L15.5 -1.1 15.35 -0.3 Q17.05 0.95 17.65 2.6 18.05 3.7 18.15 5.75 18.2 6.75 19.4 8.6 L20.45 10.65 20.55 11.2 20.55 12.45 21.15 13.4 21.65 14.3 21.6 15.0 21.55 15.15 21.0 15.3 Q20.65 15.3 20.55 15.1 L19.25 14.9 Q18.85 14.9 17.85 13.45 L16.85 11.95 16.9 11.45 16.95 11.55 17.05 11.3 17.4 11.15 16.9 9.7 Q16.65 8.25 16.85 6.7 L16.35 6.75 16.2 6.75 Q15.4 6.65 15.1 5.55 L14.95 5.6 14.7 5.25 15.05 5.35 14.85 4.3 Q14.85 3.6 15.4 3.45 L15.45 3.2 15.6 3.2 14.8 1.75 14.6 2.35 14.55 2.5 14.15 2.55 Q12.75 2.0 11.55 0.35 L12.15 0.0 12.55 -0.8 M16.05 11.5 L17.25 13.1 Q17.95 13.95 17.75 15.55 17.3 14.85 17.05 14.95 16.65 13.7 16.25 13.2 L15.65 12.75 15.65 12.5 15.35 11.8 15.2 11.6 16.05 11.5 M19.9 17.4 L20.1 17.25 20.35 17.45 21.8 18.35 21.8 18.3 Q21.8 17.7 21.6 17.6 L21.35 17.5 20.45 17.45 21.15 16.95 22.15 17.95 22.55 18.8 24.6 20.4 24.45 20.9 24.35 21.15 23.75 21.3 22.35 20.95 21.9 22.4 21.4 24.65 20.9 24.2 20.95 24.0 20.95 23.9 Q21.55 23.35 21.55 21.95 21.55 21.3 21.35 21.25 L20.9 21.25 20.8 20.7 21.15 20.05 20.9 19.8 Q19.8 18.55 19.8 18.0 L19.9 17.4 M16.1 31.8 L16.1 33.7 Q15.8 32.95 15.9 32.5 L16.1 31.8 M17.2 34.65 Q17.55 31.6 17.5 29.5 L18.15 28.75 Q18.55 29.25 18.8 31.4 L19.15 36.45 18.9 36.1 Q17.85 36.75 17.85 38.0 17.85 38.8 18.15 39.9 18.4 41.05 18.7 41.4 19.3 41.3 19.4 40.45 L19.5 42.1 17.45 42.0 17.85 39.1 17.5 37.2 17.5 37.1 17.1 35.25 17.2 34.65 M19.5 42.6 Q19.5 43.95 18.85 44.9 18.15 45.8 17.2 45.8 L17.0 44.7 17.35 42.65 17.3 43.8 Q17.3 45.0 18.0 45.15 L18.85 44.75 19.5 42.6 M14.25 49.1 L14.55 48.1 15.0 47.45 14.5 49.25 14.25 49.1 M15.1 42.1 L14.75 42.1 14.75 37.45 14.8 37.45 Q14.8 39.4 15.1 42.1 M14.85 29.6 L14.25 26.65 14.9 27.8 Q15.25 28.25 15.25 28.8 L15.15 29.45 14.85 29.6 M14.45 25.35 Q15.2 22.8 15.35 22.95 L15.25 24.5 15.05 25.25 14.85 25.45 14.45 25.35 M15.35 22.8 L14.6 22.4 Q15.0 22.4 14.85 22.05 L14.8 21.8 15.35 22.8 M9.85 11.95 L6.05 7.35 6.2 6.8 7.0 6.6 Q8.75 6.6 9.65 7.35 L11.2 8.7 11.2 8.9 11.0 9.55 Q11.0 10.1 12.5 11.75 L13.8 13.05 14.35 13.75 13.95 13.15 14.8 13.5 15.05 13.5 Q15.7 15.05 13.45 13.75 L10.3 11.85 9.85 11.95 M14.2 8.0 Q12.4 9.25 9.65 3.7 L9.15 5.05 Q8.5 5.9 7.1 5.5 L7.1 5.45 7.35 5.3 8.45 5.4 8.5 4.9 Q9.7 4.1 9.5 2.3 L10.45 2.5 10.85 2.35 11.95 2.8 13.95 4.7 12.25 3.5 11.95 4.3 Q12.2 5.2 13.0 6.25 L14.2 8.0 M8.3 0.4 L8.8 -0.3 9.7 0.8 9.0 0.6 8.5 0.65 8.3 0.4 M9.95 -3.0 L9.55 -2.55 Q9.25 -2.2 8.65 -2.2 L8.2 -2.2 8.55 -3.05 8.6 -3.05 9.55 -3.35 9.95 -3.25 9.95 -3.0 M-6.65 -9.2 L-8.15 -9.45 -8.7 -10.0 -8.8 -10.25 Q-8.15 -9.9 -7.85 -9.9 L-7.45 -10.0 -7.3 -10.1 -7.2 -10.75 -8.6 -11.95 -8.55 -12.0 -6.95 -12.6 -10.7 -15.75 Q-13.5 -17.95 -13.5 -18.5 L-13.4 -19.35 Q-11.55 -19.35 -8.1 -17.45 L-6.0 -16.15 -5.9 -15.5 -5.05 -15.3 Q-4.55 -14.75 -4.55 -14.25 -4.55 -13.75 -4.75 -13.55 L-5.3 -13.2 -3.45 -10.1 -3.65 -9.25 -3.9 -9.1 -4.95 -9.05 -5.3 -9.05 -5.3 -9.2 -5.45 -9.85 -6.4 -9.75 -6.65 -9.2 M-3.7 -18.0 L-3.25 -18.7 -2.4 -20.0 -3.0 -21.05 -3.6 -22.15 -3.45 -22.95 Q-2.3 -23.5 -1.45 -21.9 -0.75 -20.65 -0.75 -19.45 -0.75 -19.1 -1.3 -17.95 -1.85 -16.85 -2.25 -16.45 L-2.15 -16.35 Q-1.4 -17.6 -0.95 -17.45 -0.5 -17.3 -0.5 -16.35 L-0.75 -15.65 -1.05 -14.85 Q0.95 -11.5 0.95 -10.75 0.95 -9.75 0.25 -9.75 -0.15 -9.75 -1.85 -12.7 L-3.1 -14.25 -3.45 -14.65 -3.3 -14.75 -3.15 -14.85 -3.05 -15.5 Q-3.05 -16.2 -3.5 -16.55 L-3.95 -17.1 -3.7 -18.0 M120.35 -10.15 Q120.35 -9.6 119.55 -9.25 L117.9 -8.95 Q117.2 -8.95 117.05 -9.15 L116.95 -9.55 Q112.75 -9.7 112.35 -10.25 112.1 -10.55 112.85 -11.3 L108.05 -10.5 105.2 -9.4 Q101.5 -7.1 100.8 -7.1 99.95 -7.1 99.95 -7.95 99.95 -8.85 108.25 -12.4 L116.05 -12.6 Q120.35 -11.55 120.35 -10.15 M101.45 -0.9 L101.95 -1.9 Q103.65 -5.0 106.35 -3.7 L107.05 -2.85 Q107.05 -2.25 106.6 -2.0 L104.0 -1.6 Q103.55 -1.2 102.85 1.1 102.25 3.15 101.5 3.15 100.9 3.15 100.75 2.55 L102.2 0.95 101.8 0.35 101.85 0.35 101.95 -0.3 101.45 -0.9 M100.95 0.55 L101.05 0.3 101.15 0.4 100.95 0.55 M140.25 -42.55 L140.1 -41.95 139.3 -41.3 137.55 -41.3 Q136.85 -41.75 136.85 -42.15 L136.9 -42.65 Q137.0 -43.0 137.55 -43.15 L132.6 -44.5 130.5 -45.2 130.05 -44.75 127.3 -45.35 123.0 -45.9 122.55 -46.05 Q122.4 -46.2 122.4 -46.7 122.4 -47.3 123.0 -47.4 L126.6 -47.25 128.6 -47.1 Q129.25 -47.75 134.35 -46.25 140.25 -44.5 140.25 -42.55 M84.4 1.0 Q84.4 1.45 82.8 2.3 81.25 3.15 80.5 3.15 80.0 3.15 79.85 2.75 L79.8 2.3 Q79.8 1.7 82.1 0.7 84.4 -0.3 84.4 1.0 M48.05 22.05 Q48.05 22.95 47.35 22.95 46.85 22.95 46.7 22.55 L46.65 22.1 Q46.65 21.35 47.35 21.25 48.05 21.2 48.05 22.05 M24.2 17.55 L24.9 18.3 24.65 18.95 24.2 19.1 23.7 18.95 Q23.55 18.8 23.55 18.3 23.55 17.8 23.75 17.65 L24.2 17.55 M26.1 26.55 Q24.95 26.55 24.15 24.95 L23.55 23.25 Q23.55 21.4 25.35 23.3 L26.95 25.2 27.0 25.15 Q25.35 23.25 25.35 22.2 L25.4 21.6 Q27.1 21.55 28.15 23.3 28.95 24.65 28.95 25.6 L28.85 26.15 28.65 26.4 28.4 26.55 28.65 27.4 28.65 27.8 28.6 28.15 28.05 28.35 Q27.4 28.35 26.8 27.5 L26.25 26.55 26.1 26.55 M4.2 10.55 L2.5 9.8 2.7 9.8 3.45 10.0 4.2 10.55 M-2.6 3.5 L-1.9 3.4 3.65 8.2 2.9 7.85 Q2.45 7.35 1.8 7.2 L0.25 5.9 -0.6 4.95 -1.65 4.1 Q-2.05 4.1 -2.25 4.4 -2.3 3.85 -2.6 3.5 M7.5 22.1 L8.3 22.5 Q8.8 22.55 9.7 21.9 L8.7 19.95 Q8.0 19.0 6.5 18.35 L6.25 18.65 6.2 19.05 Q5.4 18.5 4.15 18.5 L3.45 18.5 3.25 18.55 Q2.85 18.55 2.85 18.75 L2.6 19.05 2.4 19.35 1.95 20.7 Q1.6 21.8 1.55 23.4 1.15 21.2 0.75 13.85 L0.7 13.6 Q0.25 13.4 1.25 13.4 3.95 13.4 7.1 17.65 9.8 21.25 9.8 22.15 9.8 23.15 9.15 24.15 L9.15 23.5 Q9.15 22.85 8.95 22.8 L8.45 22.75 7.85 23.2 7.5 22.1 M8.05 24.55 L8.8 24.6 8.1 25.4 8.05 24.55 M16.7 15.95 Q16.8 15.7 16.85 15.95 L17.05 16.95 16.9 16.7 16.7 15.95 M13.6 17.15 L13.35 16.8 13.8 17.1 13.8 17.15 13.6 17.15 M40.15 43.45 Q40.15 44.3 39.4 44.3 38.25 44.3 37.7 43.5 37.3 42.95 37.3 42.4 37.3 40.0 38.75 41.45 40.15 42.85 40.15 43.45 M35.9 55.25 L35.55 56.0 Q35.2 56.35 34.6 56.35 34.2 56.35 33.45 55.2 32.65 54.0 31.4 53.75 29.85 53.35 28.3 52.75 26.3 51.9 26.3 51.25 26.3 50.2 31.1 51.7 35.9 53.25 35.9 55.25 M-6.45 -11.0 L-5.45 -10.8 -6.0 -10.95 -6.45 -11.0 M-14.15 28.05 L-14.95 31.45 -14.25 34.05 Q-14.25 35.3 -15.0 35.3 -16.55 35.3 -17.65 30.0 -17.65 29.2 -16.95 29.2 -16.45 29.2 -16.3 29.45 L-16.15 29.9 Q-15.8 29.05 -15.6 27.2 -15.45 25.8 -14.7 25.7 L-14.55 25.7 -14.55 26.8 -14.15 28.05 M-5.05 30.4 L-5.0 30.45 Q-4.0 31.9 -4.0 33.0 -4.0 33.5 -4.6 33.95 L-5.75 34.4 Q-6.7 34.4 -6.5 33.6 L-6.3 32.7 -6.1 31.8 -7.2 29.45 Q-8.3 26.9 -8.3 25.2 -8.3 22.25 -7.6 23.9 L-6.5 27.05 -6.55 28.15 Q-6.4 30.5 -5.5 30.5 L-5.05 30.4 M-0.65 43.45 Q-0.35 45.75 -1.5 45.75 -2.45 45.75 -2.2 44.35 -2.2 42.0 -1.4 41.55 -0.65 41.1 -0.65 43.45" fill="#ffffff" fill-opacity="0.69803923" fill-rule="evenodd" stroke="none"/>
    <path d="M11.95 -8.15 Q12.1 -8.35 12.2 -8.0 L12.2 -7.55 12.45 -6.25 12.7 -6.05 Q13.15 -5.5 13.15 -4.15 13.15 -3.45 12.8 -3.05 L11.75 -2.45 11.25 -2.7 11.0 -2.8 10.7 -2.8 9.95 -3.0 9.95 -3.25 9.55 -3.35 8.6 -3.05 8.55 -3.05 8.2 -2.2 8.1 -2.1 Q7.6 -1.3 6.8 -1.3 5.7 -1.3 6.0 -2.85 5.9 -2.65 5.7 -2.7 L5.65 -2.75 5.15 -2.5 5.1 -2.45 Q4.95 -2.1 4.5 -2.1 3.8 -2.1 3.8 -2.95 L3.85 -3.1 3.6 -3.65 1.9 -4.65 Q-0.9 -5.7 -1.1 -6.6 L-1.5 -6.55 -2.0 -6.65 -2.35 -6.6 -4.4 -7.5 Q-5.55 -7.75 -5.65 -8.45 L-5.4 -8.55 -5.3 -9.05 -4.95 -9.05 -3.9 -9.1 -3.8 -9.05 -2.35 -8.4 -2.0 -8.15 -1.8 -8.3 -1.65 -8.35 -1.0 -8.35 Q0.45 -8.35 3.2 -6.0 L4.4 -6.0 5.8 -6.4 6.4 -6.25 6.7 -6.85 6.95 -7.9 7.05 -8.8 Q7.15 -9.3 7.55 -9.35 L7.75 -9.4 Q8.4 -9.4 8.45 -8.2 7.4 -9.15 7.4 -7.6 L7.95 -6.65 Q8.6 -5.6 9.2 -5.6 L9.6 -5.7 Q9.95 -5.9 9.95 -6.35 L8.95 -7.65 Q11.2 -8.5 11.9 -8.1 L11.95 -8.15 M12.3 -1.35 L12.55 -0.8 12.15 0.0 11.55 0.35 11.1 0.1 10.9 -0.6 10.95 -1.75 Q11.75 -1.75 12.3 -1.35 M16.2 6.75 L16.4 7.25 16.45 8.2 16.7 9.1 16.45 10.3 16.35 10.65 Q16.45 11.1 16.05 11.5 L15.2 11.6 15.35 11.8 15.65 12.5 15.65 12.75 16.25 13.2 Q16.65 13.7 17.05 14.95 17.3 14.85 17.75 15.55 17.75 16.35 18.55 16.9 L19.9 17.4 19.8 18.0 Q19.8 18.55 20.9 19.8 L21.15 20.05 20.8 20.7 20.9 21.25 21.35 21.25 Q21.55 21.3 21.55 21.95 21.55 23.35 20.95 23.9 L20.95 24.0 20.9 24.2 20.3 23.6 Q18.25 21.8 18.25 24.0 L18.3 24.05 Q17.65 25.15 16.85 28.0 16.1 30.85 16.1 31.8 L15.9 32.5 Q15.8 32.95 16.1 33.7 L16.65 33.75 17.2 34.65 17.1 35.25 17.5 37.1 17.4 37.55 Q16.65 41.85 16.65 43.6 16.65 44.2 16.8 44.45 L17.0 44.7 17.2 45.8 16.75 48.25 Q17.15 50.05 18.3 53.65 L18.2 53.6 15.9 53.3 Q15.35 52.8 13.9 52.45 13.3 51.2 13.3 50.2 13.3 49.55 13.6 49.3 13.75 49.15 14.25 49.1 L14.5 49.25 15.0 47.45 15.1 42.1 Q14.8 39.4 14.8 37.45 L14.3 31.85 14.5 30.8 14.85 29.6 15.15 29.45 15.25 28.8 Q15.25 28.25 14.9 27.8 L14.25 26.65 Q14.05 25.85 14.45 25.35 L14.85 25.45 15.05 25.25 15.25 24.5 15.35 22.95 15.35 22.8 14.8 21.8 14.85 22.05 Q15.0 22.4 14.6 22.4 L14.1 22.65 Q12.95 21.95 11.75 19.7 10.65 17.35 8.0 15.0 9.25 15.2 6.95 12.9 4.7 10.7 10.25 13.2 L10.7 13.35 9.85 11.95 10.3 11.85 13.45 13.75 Q15.7 15.05 15.05 13.5 L14.8 13.5 13.95 13.15 13.8 13.05 12.5 11.75 Q11.0 10.1 11.0 9.55 L11.2 8.9 11.2 8.7 11.4 8.75 11.75 8.65 12.2 8.9 12.6 9.15 13.6 9.05 14.15 9.1 14.15 8.8 14.2 8.0 13.0 6.25 Q12.2 5.2 11.95 4.3 L12.25 3.5 13.95 4.7 14.7 5.25 14.95 5.6 15.1 5.55 Q15.4 6.65 16.2 6.75 M20.35 17.45 L20.45 17.45 21.35 17.5 21.6 17.6 Q21.8 17.7 21.8 18.3 L21.8 18.35 20.35 17.45 M19.15 36.45 L19.4 40.45 Q19.3 41.3 18.7 41.4 18.4 41.05 18.15 39.9 17.85 38.8 17.85 38.0 17.85 36.75 18.9 36.1 L19.15 36.45 M19.5 42.1 L19.5 42.6 18.85 44.75 18.0 45.15 Q17.3 45.0 17.3 43.8 L17.35 42.65 17.45 42.0 19.5 42.1 M7.1 5.45 L6.65 5.55 6.3 5.65 6.1 5.8 5.85 6.7 5.35 6.9 Q3.35 6.05 0.4 1.75 L0.6 1.25 1.1 1.1 3.0 1.75 3.05 1.95 3.7 2.05 3.85 2.05 4.45 2.2 Q5.65 2.2 6.2 1.8 L6.4 1.75 6.6 1.4 Q7.35 0.3 7.95 0.3 L8.3 0.4 8.5 0.65 9.0 0.6 9.7 0.8 10.55 1.25 10.85 2.35 10.45 2.5 9.5 2.3 Q9.7 4.1 8.5 4.9 L7.95 4.7 7.35 5.3 7.1 5.45 M3.65 8.2 L4.65 8.65 Q6.4 9.6 6.4 10.5 L6.25 11.05 5.7 11.4 4.2 10.55 3.45 10.0 2.7 9.8 2.5 9.8 2.1 9.55 Q1.4 9.25 0.75 8.75 L0.45 8.45 -0.85 7.1 -2.4 5.1 -2.3 5.0 -2.25 4.55 -2.25 4.4 Q-2.05 4.1 -1.65 4.1 L-0.6 4.95 0.25 5.9 1.8 7.2 Q2.45 7.35 2.9 7.85 L3.65 8.2 M-3.35 5.2 L-3.3 5.75 -3.65 6.5 -3.5 7.45 -3.5 8.65 Q-3.65 9.45 -4.2 9.45 -5.05 9.45 -5.1 8.3 L-5.1 8.25 -5.25 8.25 Q-5.9 8.25 -6.0 7.4 L-5.9 6.9 Q-5.55 6.5 -5.55 6.2 L-5.7 5.55 -6.4 5.65 -6.4 5.55 -5.8 5.1 -5.7 4.9 -4.95 5.15 -4.6 5.35 -4.05 4.95 -3.95 5.0 -3.35 5.2 M-5.8 2.45 L-6.0 1.7 Q-6.0 -0.5 -4.75 1.2 L-3.85 2.65 -5.8 2.45 M1.55 23.4 Q1.6 21.8 1.95 20.7 L2.4 19.35 2.6 19.05 2.85 18.75 Q2.85 18.55 3.25 18.55 L3.45 18.5 4.15 18.5 Q5.4 18.5 6.2 19.05 L6.25 18.65 6.5 18.35 Q8.0 19.0 8.7 19.95 L9.7 21.9 Q8.8 22.55 8.3 22.5 L7.5 22.1 7.05 21.3 Q6.85 21.6 6.5 21.6 6.0 21.6 5.65 21.0 L5.25 20.25 3.7 20.2 3.55 20.35 3.75 20.7 3.85 21.1 3.25 23.0 3.05 23.9 Q2.8 24.65 2.25 24.65 1.55 24.65 1.55 23.75 L1.55 23.4 M7.85 23.2 L8.45 22.75 8.95 22.8 Q9.15 22.85 9.15 23.5 L9.15 24.15 9.0 24.6 8.8 24.6 8.05 24.55 Q7.7 24.0 7.85 23.2 M16.7 15.95 L16.9 16.7 17.05 16.95 16.85 15.95 Q16.8 15.7 16.7 15.95 M13.6 17.15 L13.8 17.15 13.8 17.1 13.35 16.8 13.6 17.15 M8.85 31.5 Q8.85 32.4 8.15 32.4 7.6 32.4 7.35 31.3 L7.2 30.15 Q7.2 29.5 7.55 28.65 8.05 27.5 8.7 28.65 L8.85 31.5 M24.9 36.95 L24.85 37.8 Q24.75 38.3 24.2 38.3 23.65 38.3 23.55 37.55 L23.55 36.95 Q23.55 35.65 24.25 35.7 24.9 35.75 24.9 36.95 M-7.05 15.6 Q-7.85 15.6 -7.8 14.8 -7.8 13.95 -6.35 12.8 L-6.15 12.65 Q-6.05 11.55 -5.3 11.3 -4.5 11.05 -4.5 12.15 -4.5 13.8 -5.35 13.8 L-7.05 15.6" fill="#ffffff" fill-rule="evenodd" stroke="none"/>
    <path d="M18.6 -52.15 L12.65 -47.85 Q6.55 -43.6 5.65 -43.6 L5.05 -43.7 4.9 -44.45 Q4.9 -44.6 8.05 -46.7 L12.1 -49.45 16.5 -52.9 Q18.6 -54.3 18.6 -52.15 M2.3 -41.6 Q2.3 -42.25 0.4 -39.25 -1.55 -36.15 -1.9 -33.05 L-2.05 -32.9 -2.5 -32.8 Q-3.35 -32.8 -3.55 -36.1 -3.55 -36.85 -3.25 -36.85 L-2.4 -36.7 Q-2.2 -36.7 -1.65 -38.45 L-1.1 -40.35 Q2.3 -43.8 2.3 -41.6 M6.8 -15.7 L7.1 -14.65 7.05 -14.2 Q6.9 -13.9 6.4 -13.9 5.35 -13.9 5.15 -15.25 L5.15 -16.65 5.2 -17.85 5.45 -18.5 5.6 -19.0 Q6.3 -20.9 7.4 -20.4 L7.55 -19.7 7.05 -17.85 6.55 -16.3 6.8 -15.7 M6.45 -10.85 L6.35 -9.85 5.6 -9.65 Q4.45 -9.65 2.75 -11.65 L1.25 -13.5 Q1.25 -14.95 3.85 -13.7 6.45 -12.45 6.45 -10.85 M21.4 24.65 L23.8 27.0 Q27.2 31.15 27.25 32.7 27.3 34.45 28.3 39.3 L29.35 44.1 Q29.35 46.05 27.85 46.05 26.8 46.05 25.95 40.6 L26.25 38.7 26.5 37.0 Q26.5 33.35 22.4 28.75 L18.3 24.05 18.25 24.0 Q18.25 21.8 20.3 23.6 L20.9 24.2 21.4 24.65 M18.3 53.65 Q20.2 54.05 21.05 54.55 L20.3 53.7 19.8 52.95 Q19.8 51.7 22.6 53.55 24.4 54.7 25.1 55.55 26.6 56.0 26.7 56.55 L30.75 58.0 30.7 57.85 Q30.7 57.05 32.75 57.05 34.75 57.1 34.75 58.2 L34.5 58.95 34.05 59.2 33.55 59.0 31.75 58.75 31.85 58.85 31.6 59.5 30.55 59.7 Q28.4 59.7 26.2 58.7 24.7 58.0 24.3 57.35 L23.7 57.15 22.75 56.6 22.7 56.5 21.45 56.45 21.0 56.2 20.95 56.2 17.95 55.55 Q17.8 55.95 17.25 55.95 16.0 55.95 15.6 55.4 L15.5 55.0 15.35 54.95 14.95 54.55 14.25 54.35 13.45 54.45 Q12.85 54.45 11.85 53.7 L11.15 53.6 Q10.9 53.6 10.8 54.05 L10.2 54.45 Q9.45 54.45 8.3 53.55 7.2 52.7 7.2 52.4 7.2 51.5 9.9 51.75 L9.9 51.7 Q9.9 50.05 11.95 51.4 L13.1 52.25 13.9 52.45 Q15.35 52.8 15.9 53.3 L18.2 53.6 18.3 53.65 M3.0 1.75 L2.9 1.2 Q2.9 0.85 3.45 0.3 4.1 -0.35 4.85 -0.4 L5.0 0.25 4.55 1.45 3.85 2.05 3.7 2.05 3.05 1.95 3.0 1.75 M-5.65 -8.45 L-6.0 -8.35 -6.65 -9.2 -6.4 -9.75 -5.45 -9.85 -5.3 -9.2 -5.3 -9.05 -5.4 -8.55 -5.65 -8.45 M-8.8 -10.25 L-9.65 -10.8 -13.1 -10.8 Q-13.75 -9.05 -15.8 -1.15 -16.7 -1.15 -17.15 -2.55 L-17.4 -4.0 Q-17.4 -6.9 -15.0 -10.5 -12.2 -14.55 -8.6 -11.95 L-7.2 -10.75 -7.3 -10.1 -7.45 -10.0 -7.85 -9.9 Q-8.15 -9.9 -8.8 -10.25 M-6.0 -16.15 L-6.05 -16.25 Q-6.05 -16.75 -5.5 -17.25 -5.0 -17.8 -5.0 -18.4 -5.0 -18.85 -6.85 -19.45 -8.7 -20.0 -8.7 -20.85 -8.7 -21.9 -7.75 -21.55 -5.75 -20.8 -4.55 -20.75 -3.3 -19.25 -3.5 -18.75 L-3.7 -18.0 -3.95 -17.1 -3.5 -16.55 Q-3.05 -16.2 -3.05 -15.5 L-3.15 -14.85 -3.3 -14.75 -3.45 -14.65 -3.7 -14.65 Q-4.15 -14.65 -4.4 -14.9 L-5.05 -15.3 -5.9 -15.5 -6.0 -16.15 M8.45 -8.2 L8.95 -7.65 9.95 -6.35 Q9.95 -5.9 9.6 -5.7 L9.2 -5.6 Q8.6 -5.6 7.95 -6.65 L7.4 -7.6 Q7.4 -9.15 8.45 -8.2 M145.9 -55.95 L145.75 -55.3 Q145.6 -55.1 145.1 -55.1 L141.45 -56.8 138.8 -56.7 138.85 -56.45 138.2 -55.6 136.35 -55.6 132.0 -55.85 130.55 -55.85 Q129.9 -56.4 129.9 -56.7 129.9 -57.4 131.45 -57.65 L136.95 -58.35 Q142.45 -58.45 144.35 -57.45 145.35 -56.9 145.9 -55.95 M116.75 -61.65 L116.65 -61.1 Q116.55 -60.85 116.05 -60.85 L111.9 -61.9 107.3 -63.25 100.85 -63.35 98.85 -64.15 Q98.1 -64.55 98.1 -65.2 L98.35 -65.7 94.6 -66.65 Q90.85 -67.65 90.85 -68.0 90.85 -69.6 95.05 -68.75 L98.7 -67.6 Q99.0 -67.8 99.35 -67.6 L99.9 -67.0 99.85 -66.75 100.1 -66.4 100.05 -65.95 109.45 -64.5 114.45 -63.25 Q116.55 -62.65 116.75 -61.65 M87.35 -68.9 L87.5 -68.25 Q87.5 -67.4 86.6 -67.4 L85.85 -67.5 85.7 -68.25 Q85.7 -69.25 87.35 -68.9 M120.05 -60.35 L119.95 -59.6 Q119.85 -59.35 119.35 -59.35 118.9 -59.35 118.75 -59.8 L118.7 -60.3 Q118.7 -61.2 119.4 -61.2 120.05 -61.2 120.05 -60.35 M101.05 0.3 L100.65 -0.3 101.0 -0.75 101.3 -1.1 101.45 -0.9 101.95 -0.3 101.85 0.35 101.8 0.35 102.2 0.95 100.75 2.55 Q97.7 5.7 96.55 5.7 L95.95 5.25 95.95 5.2 94.8 5.65 Q94.75 5.65 93.8 6.6 L92.5 7.45 Q92.0 7.45 91.85 7.0 L91.8 6.5 Q91.8 5.6 94.85 3.85 96.85 2.7 97.5 3.1 L98.1 2.65 Q99.15 1.85 100.95 0.55 L101.15 0.4 101.05 0.3 M153.15 -47.0 L152.9 -46.45 152.45 -46.2 Q151.3 -46.2 150.9 -46.75 L150.75 -47.3 Q150.75 -48.15 151.95 -48.1 153.15 -48.05 153.15 -47.0 M137.05 -49.55 L137.75 -48.95 138.05 -48.1 137.95 -47.35 Q137.9 -47.2 137.4 -47.2 137.2 -47.2 137.0 -47.45 L136.6 -47.85 134.3 -47.95 Q133.65 -48.5 133.65 -48.8 L134.05 -49.4 137.05 -49.55 M187.55 -45.65 Q187.55 -44.7 186.8 -44.7 186.15 -44.7 183.8 -45.8 181.5 -46.85 181.5 -47.05 181.5 -48.2 184.55 -47.45 187.55 -46.7 187.55 -45.65 M95.65 7.7 L95.8 8.3 97.05 8.2 98.0 7.3 Q98.65 6.65 99.35 6.95 99.95 6.75 99.95 7.7 99.95 8.3 98.15 10.05 96.95 11.2 96.65 11.85 97.25 13.0 97.25 14.35 L97.2 14.95 Q97.05 15.25 96.55 15.25 95.55 15.25 95.55 14.15 L95.6 12.5 95.5 12.25 95.45 12.2 95.05 11.9 94.4 12.15 93.9 12.5 92.5 12.5 91.8 11.65 Q91.8 11.0 93.3 10.5 L93.2 10.2 92.75 10.1 Q92.6 9.8 92.6 9.3 92.6 8.7 93.65 8.0 94.75 7.3 95.65 7.7 M102.95 66.35 Q102.95 67.2 102.0 67.2 L98.15 66.3 Q94.85 65.35 91.5 65.2 90.85 64.65 90.85 64.3 90.85 62.85 96.9 64.0 102.95 65.15 102.95 66.35 M82.95 63.4 L82.9 64.65 82.7 64.9 82.75 65.15 82.65 65.7 Q82.6 65.95 82.1 65.95 81.7 65.95 81.4 65.45 L81.2 64.85 Q81.2 64.1 81.8 64.1 L80.4 61.45 Q80.4 59.85 81.7 60.95 82.95 62.05 82.95 63.4 M82.8 66.25 L82.95 66.9 82.85 67.55 82.45 67.75 82.5 67.8 Q83.4 68.9 83.4 69.65 L83.25 70.3 83.1 70.45 83.05 70.8 82.5 71.0 Q81.95 71.0 81.85 70.3 L81.85 69.75 81.85 69.65 81.8 69.45 81.6 68.5 Q81.6 67.75 81.8 67.55 L81.6 66.85 Q81.6 66.55 81.9 66.35 L82.8 66.25 M100.4 69.25 L99.85 69.5 99.1 69.0 98.9 68.45 Q98.9 67.6 99.6 67.6 99.75 66.95 100.95 67.25 L101.1 67.9 Q101.1 68.7 100.5 68.75 L100.4 69.25 M129.05 70.15 L129.75 70.9 129.05 71.75 126.85 71.75 Q126.2 71.2 126.2 70.85 126.2 70.45 126.55 70.3 L129.05 70.15 M71.85 60.95 L71.85 62.85 Q71.65 64.45 70.65 64.45 70.0 64.45 69.85 63.8 L69.85 63.1 Q69.85 62.7 70.2 61.5 L70.5 60.0 Q70.5 54.75 65.35 51.55 L62.4 49.95 61.7 50.25 Q61.3 50.25 61.05 49.85 L60.65 50.0 Q59.95 49.45 59.95 49.1 59.95 48.85 60.1 48.7 L59.35 47.35 Q58.45 45.45 58.35 44.3 57.7 44.3 57.1 43.4 L56.65 42.4 56.75 41.85 57.5 42.0 56.65 40.55 56.05 39.5 55.9 39.5 55.5 39.1 55.45 39.25 Q55.35 39.5 54.85 39.5 54.45 39.5 54.2 38.65 L54.0 37.7 54.05 37.4 52.45 35.55 52.35 36.0 Q52.25 36.25 51.75 36.25 50.05 36.25 48.85 34.15 L47.8 33.85 45.1 32.9 44.95 33.0 44.55 33.0 44.5 33.1 43.95 33.25 43.65 33.0 42.9 33.0 Q40.3 32.95 36.8 31.8 33.35 30.65 33.35 29.9 33.35 28.65 36.1 29.45 41.3 31.05 44.95 31.4 L45.0 31.45 47.5 31.4 47.8 31.4 Q47.8 29.15 50.15 31.95 L50.25 32.05 51.75 32.15 Q53.65 32.65 53.65 33.7 L53.6 34.2 53.55 34.3 54.15 34.2 Q54.9 34.45 54.9 35.45 L54.9 35.65 56.2 37.3 57.1 38.4 59.45 42.2 Q60.25 45.2 61.65 47.0 L62.4 48.15 64.6 49.25 Q68.7 51.55 69.7 52.55 71.85 57.8 71.85 60.95 M45.05 46.0 L45.2 46.65 45.1 47.3 44.55 47.5 Q43.9 46.95 43.9 46.6 43.9 46.1 45.05 46.0 M8.5 4.9 L8.45 5.4 7.35 5.3 7.95 4.7 8.5 4.9 M-2.4 5.1 L-2.45 5.15 -2.9 5.3 -3.35 5.2 -3.95 5.0 -4.05 4.95 -5.2 4.7 -5.7 4.9 -5.8 5.1 -6.4 5.55 -8.35 5.7 -8.65 6.35 Q-7.55 5.8 -6.4 5.65 L-5.7 5.55 -5.55 6.2 Q-5.55 6.5 -5.9 6.9 L-6.35 7.25 Q-6.4 8.05 -7.3 8.05 L-7.55 8.05 -9.9 9.3 -10.1 9.25 -10.9 10.85 Q-12.55 14.1 -14.05 15.55 -14.7 14.9 -14.7 14.2 -14.7 12.8 -13.5 10.65 L-11.4 7.0 Q-11.4 4.35 -9.95 3.7 -7.55 2.55 -5.8 2.45 L-3.85 2.65 Q-3.0 2.95 -2.6 3.5 -2.3 3.85 -2.25 4.4 L-2.25 4.55 -2.3 5.0 -2.4 5.1 M33.1 28.5 L33.25 29.15 33.15 29.85 32.45 30.0 31.8 29.9 Q31.65 29.65 31.65 29.15 31.65 28.15 33.1 28.5 M46.3 62.15 L46.05 62.7 45.6 62.95 Q43.35 62.95 40.2 62.15 37.1 61.35 37.1 60.9 37.1 59.95 41.7 60.5 46.3 61.0 46.3 62.15 M49.15 60.85 L49.05 61.5 48.45 61.7 Q47.9 61.7 47.6 60.65 L47.4 59.6 Q46.9 58.6 46.3 56.15 L45.9 53.95 Q45.35 53.15 44.5 50.05 44.5 47.8 45.7 49.9 L46.75 52.45 47.15 53.6 48.5 58.4 Q49.3 59.2 49.15 60.85 M-8.0 -19.55 L-8.1 -18.8 -8.25 -18.7 -8.65 -18.65 -10.5 -20.2 Q-12.3 -21.75 -13.3 -21.75 -13.9 -21.75 -14.45 -21.25 L-15.0 -20.3 -15.05 -20.2 Q-14.2 -20.05 -14.05 -19.1 L-14.0 -17.85 Q-14.0 -16.75 -15.0 -14.15 -16.25 -10.95 -17.6 -10.9 L-18.15 -8.15 Q-18.55 -6.6 -19.4 -5.6 L-20.05 -6.55 Q-20.05 -8.15 -18.9 -11.85 L-18.35 -13.35 Q-18.25 -17.85 -16.8 -20.6 -14.15 -25.8 -8.0 -19.55 M-15.25 -19.75 Q-16.05 -18.85 -16.35 -17.0 L-16.35 -16.85 -15.6 -17.4 -15.55 -17.35 -15.25 -19.75 M-7.75 11.8 L-7.6 12.45 -7.7 13.1 -8.25 13.3 Q-8.95 12.75 -8.95 12.4 L-8.7 11.9 -7.75 11.8 M-18.3 4.2 Q-18.3 5.55 -18.8 6.45 L-19.15 7.3 Q-18.75 7.4 -18.75 8.05 -18.75 8.95 -19.35 9.05 L-19.35 9.2 -18.5 17.0 -18.55 18.55 -18.75 18.7 -19.2 18.85 Q-20.0 18.85 -20.7 6.55 L-20.7 2.05 Q-19.9 0.6 -19.05 1.75 -18.3 2.8 -18.3 4.2 M-14.55 25.7 L-14.55 25.0 -14.45 22.25 Q-14.1 20.25 -12.9 20.8 L-12.75 21.45 Q-12.75 22.25 -13.2 23.6 L-13.2 26.4 -13.15 26.45 -12.75 26.05 -12.3 25.9 -11.7 26.05 -11.55 26.7 Q-11.55 27.25 -12.25 27.9 -12.9 28.5 -13.4 28.5 -13.9 28.5 -14.15 28.05 L-14.55 26.8 -14.55 25.7 M-6.5 27.05 L-6.65 25.15 -7.35 22.2 -7.5 19.9 Q-7.5 18.1 -7.3 17.6 -6.8 16.3 -4.75 16.1 -4.6 15.15 -4.05 15.2 -3.3 15.2 -3.3 16.35 L-3.5 17.5 Q-3.7 18.35 -4.15 18.6 L-4.7 17.5 -4.75 17.25 -5.3 18.15 Q-6.15 19.45 -6.15 20.05 -6.15 21.65 -5.4 24.65 -4.7 27.65 -4.7 29.05 L-4.8 30.1 -5.05 30.4 -5.5 30.5 Q-6.4 30.5 -6.55 28.15 L-6.5 27.05" fill="#ebf7fd" fill-rule="evenodd" stroke="none"/>
  </g>
</svg>
