<?xml version="1.0" encoding="UTF-8" standalone="no"?>
<svg xmlns:xlink="http://www.w3.org/1999/xlink" height="162.5px" width="162.85px" xmlns="http://www.w3.org/2000/svg">
  <g transform="matrix(1.0, 0.0, 0.0, 1.0, 81.25, 80.9)">
    <path d="M-30.65 -80.8 L-25.4 -77.2 -25.4 -77.15 -25.35 -77.15 -25.3 -77.1 Q-9.1 -76.7 18.55 -63.0 L25.0 -57.3 Q23.5 -56.1 23.1 -56.2 28.2 -52.65 31.45 -47.25 21.2 -32.5 5.5 -26.15 L7.45 -11.2 Q11.15 9.45 16.55 13.7 12.8 12.5 8.0 10.7 L6.6 10.2 6.5 10.15 Q-1.15 0.8 -5.25 -14.85 -9.05 -26.0 -8.7 -43.2 -6.5 -44.4 -1.0 -39.9 -9.25 -47.25 -16.55 -60.55 L-10.25 -60.55 Q-18.75 -61.85 -30.65 -80.8 M-5.2 33.45 Q-6.3 32.25 -7.75 31.6 L-7.6 31.65 Q-6.25 32.15 -5.2 33.45 M-19.0 30.1 L-20.3 30.0 -20.45 30.0 -19.0 30.1 M-69.35 -4.35 L-69.65 -4.95 -69.65 -5.0 -69.35 -4.35 M-71.95 -2.7 L-71.75 -2.35 -71.9 -2.5 -72.05 -2.7 -72.05 -2.8 -72.15 -3.35 -71.95 -2.7 -72.05 -2.8 -71.95 -2.7 M5.5 -26.15 L4.3 -36.15 5.65 -31.85 Q5.85 -31.25 7.85 -29.45 7.55 -35.65 6.55 -39.6 5.5 -43.55 3.45 -46.2 L-0.35 -51.65 Q1.55 -49.55 4.35 -49.1 1.15 -58.95 -6.95 -64.9 L-7.0 -64.9 -7.05 -64.95 -12.1 -68.5 Q-13.75 -69.7 -25.3 -77.1 -13.75 -69.7 -12.1 -68.5 L-7.05 -64.95 -7.0 -64.9 -6.95 -64.9 Q1.15 -58.95 4.35 -49.1 1.55 -49.55 -0.35 -51.65 L3.45 -46.2 Q5.5 -43.55 6.55 -39.6 7.55 -35.65 7.85 -29.45 5.85 -31.25 5.65 -31.85 L4.3 -36.15 5.5 -26.15 M-0.35 -51.65 L-2.2 -54.5 -0.35 -51.65" fill="#a4c9de" fill-rule="evenodd" stroke="none"/>
    <path d="M-3.8 35.9 Q-4.1 34.8 -5.1 33.6 L-5.2 33.5 -5.2 33.45 Q-6.25 32.15 -7.6 31.65 L-7.75 31.6 -11.5 30.8 -19.0 30.1 -20.45 30.0 -20.7 30.0 -20.85 29.95 -21.1 29.95 Q-31.0 29.45 -39.9 25.1 -42.8 23.7 -44.95 22.3 L-49.7 18.15 -44.95 22.3 Q-48.15 20.25 -49.7 18.15 L-49.35 21.05 -48.6 23.5 -47.3 25.45 Q-50.3 25.7 -59.9 11.85 -64.45 5.25 -67.2 0.05 L-67.3 -0.05 -68.45 -2.35 -69.35 -4.35 -69.65 -5.0 -69.65 -4.95 -69.85 -5.55 -71.05 -9.2 -71.15 -9.7 -71.35 -9.2 Q-67.7 1.5 -71.95 -2.7 L-72.15 -3.35 -72.05 -2.8 -74.7 -5.6 Q-79.95 -13.1 -80.55 -24.6 L-80.65 -28.45 -80.65 -28.85 -80.8 -34.3 -81.0 -35.8 -80.95 -38.75 -80.9 -38.9 -80.9 -39.0 -80.8 -39.55 Q-77.4 -47.35 -71.85 -54.2 -69.75 -56.85 -66.05 -60.55 -65.4 -61.15 -69.4 -49.7 L-70.4 -45.25 -36.7 -75.85 -30.65 -80.8 Q-18.75 -61.85 -10.25 -60.55 L-16.55 -60.55 Q-9.25 -47.25 -1.0 -39.9 -6.5 -44.4 -8.7 -43.2 -9.05 -26.0 -5.25 -14.85 -1.15 0.8 6.5 10.15 -2.1 6.8 -6.95 3.85 -5.25 12.7 -4.35 25.2 L-4.35 25.3 -4.4 25.05 -4.2 28.0 -4.15 29.1 -3.9 32.25 -3.8 35.9 M-20.3 30.0 L-20.7 30.0 -20.45 30.0 -20.3 30.0 M-69.85 -5.55 L-69.65 -5.0 -69.85 -5.55" fill="#d6eefb" fill-rule="evenodd" stroke="none"/>
    <path d="M-3.6 36.3 L-3.8 35.9 -3.9 32.25 -4.35 25.3 -4.35 25.2 Q-5.25 12.7 -6.95 3.85 -2.1 6.8 6.5 10.15 L6.6 10.2 Q10.45 19.75 15.65 26.3 41.25 48.1 71.2 58.85 L72.65 59.85 Q74.3 61.45 73.2 63.85 L73.15 63.85 72.95 63.75 72.8 63.7 69.9 62.9 63.9 62.7 69.9 62.9 Q75.3 67.3 73.1 74.4 68.7 79.1 64.1 79.55 58.05 77.65 49.8 73.15 24.3 59.2 9.5 48.3 -1.55 40.2 -3.6 36.3 M73.25 63.9 Q76.2 65.15 78.05 67.55 L73.25 63.9" fill="#1e7fae" fill-rule="evenodd" stroke="none"/>
    <path d="M16.55 13.7 Q20.9 17.1 51.45 39.0 66.4 50.0 73.6 56.0 L73.7 56.1 74.95 57.15 75.0 57.2 Q80.05 61.55 80.2 62.7 L80.45 65.0 80.9 68.35 Q81.35 73.95 79.6 77.25 78.15 80.0 74.5 80.7 77.7 80.0 79.35 77.4 L79.6 77.05 Q80.25 75.8 80.6 74.2 80.25 75.8 79.6 77.05 L79.35 77.4 Q77.7 80.0 74.5 80.7 L71.6 80.95 70.55 80.9 70.35 80.9 Q62.5 80.45 51.8 74.45 31.7 63.25 20.5 56.1 -0.05 43.05 -3.6 36.55 L-3.6 36.3 Q-1.55 40.2 9.5 48.3 24.3 59.2 49.8 73.15 58.05 77.65 64.1 79.55 68.7 79.1 73.1 74.4 75.3 67.3 69.9 62.9 L72.8 63.7 72.95 63.75 73.15 63.85 73.2 63.85 Q74.3 61.45 72.65 59.85 L71.2 58.85 Q41.25 48.1 15.65 26.3 10.45 19.75 6.6 10.2 L8.0 10.7 Q12.8 12.5 16.55 13.7 M73.25 63.9 L73.2 63.85 73.25 63.9 78.05 67.55 Q76.2 65.15 73.25 63.9 M80.45 65.0 L80.95 69.2 80.95 69.3 81.0 70.9 80.7 73.85 80.6 74.2 Q80.1 70.7 78.55 68.25 L78.5 68.2 78.45 68.15 78.05 67.55 78.45 68.15 78.5 68.2 78.55 68.25 Q80.1 70.7 80.6 74.2 L80.7 73.85 81.0 70.9 80.95 69.3 80.95 69.2 80.45 65.0 M64.1 79.55 Q67.6 80.65 70.35 80.9 67.6 80.65 64.1 79.55 M-3.9 32.25 L-4.15 29.1 -4.2 28.0 -4.4 25.05 -4.35 25.3 -3.9 32.25" fill="#2e6088" fill-rule="evenodd" stroke="none"/>
    <path d="M5.5 -26.15 L7.45 -11.2 Q11.15 9.45 16.55 13.7 20.9 17.1 51.45 39.0 66.4 50.0 73.6 56.0 L73.7 56.1 74.95 57.15 75.0 57.2 Q80.05 61.55 80.2 62.7 L80.45 65.0 80.95 69.2 80.95 69.3 81.0 70.9 80.7 73.85 80.6 74.2 Q80.25 75.8 79.6 77.05 L79.35 77.4 Q77.7 80.0 74.5 80.7 L71.6 80.95 70.8 80.95 70.55 80.95 70.35 80.9 Q67.6 80.65 64.1 79.55 58.05 77.65 49.8 73.15 24.3 59.2 9.5 48.3 -1.55 40.2 -3.6 36.3 L-3.8 35.9 Q-4.1 34.8 -5.1 33.6 L-5.2 33.5 -5.2 33.45 Q-6.25 32.15 -7.6 31.65 L-7.75 31.6 -11.5 30.8 -19.0 30.1 -20.45 30.0 -20.7 30.0 -20.85 29.95 -21.1 29.95 Q-31.0 29.45 -39.9 25.1 -42.8 23.7 -44.95 22.3 -39.95 26.85 -42.3 26.1 -45.6 25.0 -48.6 23.5 L-47.3 25.45 Q-50.3 25.7 -59.9 11.85 -64.45 5.25 -67.2 0.05 L-67.3 -0.05 -68.45 -2.35 -69.35 -4.35 -69.65 -5.0 -69.85 -5.55 -71.05 -9.2 M74.5 80.7 L70.8 80.95 M-80.55 -24.6 L-80.65 -28.45 M6.5 10.15 L6.6 10.2 8.0 10.7 Q12.8 12.5 16.55 13.7 M-25.3 -77.1 Q-13.75 -69.7 -12.1 -68.5 L-7.05 -64.95 -7.0 -64.9 -6.95 -64.9 Q1.15 -58.95 4.35 -49.1 1.55 -49.55 -0.35 -51.65 L3.45 -46.2 Q5.5 -43.55 6.55 -39.6 7.55 -35.65 7.85 -29.45 5.85 -31.25 5.65 -31.85 L4.3 -36.15 5.5 -26.15 M63.9 62.7 L69.9 62.9 72.8 63.7 72.95 63.75 73.15 63.85 73.2 63.85 73.25 63.9 Q76.2 65.15 78.05 67.55 L78.45 68.15 78.5 68.2 78.55 68.25 Q80.1 70.7 80.6 74.2 M73.25 63.9 L78.05 67.55 M-2.2 -54.5 L-0.35 -51.65 M-3.9 32.25 L-4.35 25.3 -4.35 25.2 Q-5.25 12.7 -6.95 3.85 -2.1 6.8 6.5 10.15 M-3.9 32.25 L-3.8 35.9 M-49.7 18.15 L-44.95 22.3" fill="none" stroke="#4a4f58" stroke-linecap="round" stroke-linejoin="miter-clip" stroke-miterlimit="3.0" stroke-width="1.2000000000000002"/>
    <path d="M-71.05 -9.2 L-71.35 -9.2 Q-67.7 1.5 -71.95 -2.7 L-72.05 -2.8 -74.7 -5.6 Q-79.95 -13.1 -80.55 -24.6" fill="none" stroke="#4a4f58" stroke-linecap="round" stroke-linejoin="round" stroke-width="1.2000000000000002"/>
    <path d="M-25.05 -77.65 L-24.95 -77.6 Q-24.5 -77.25 -24.85 -76.75 L-25.7 -76.7 -30.7 -80.7 -30.7 -80.8 -30.55 -80.85 -25.05 -77.65 M-80.05 -28.85 L-80.0 -28.75 Q-80.1 -28.2 -80.65 -28.2 -80.9 -28.2 -81.05 -28.4 L-81.2 -28.8 -81.05 -38.75 -80.95 -39.0 -80.85 -39.05 -80.8 -38.95 -80.8 -38.75 -80.45 -34.4 -80.45 -34.25 -80.4 -34.1 -80.4 -33.8 -80.05 -28.85" fill="#4a4f58" fill-rule="evenodd" stroke="none"/>
  </g>
</svg>
