<?xml version="1.0" encoding="UTF-8" standalone="no"?>
<svg xmlns:xlink="http://www.w3.org/1999/xlink" height="98.75px" width="91.0px" xmlns="http://www.w3.org/2000/svg">
  <g transform="matrix(1.0, 0.0, 0.0, 1.0, 44.35, 58.2)">
    <path d="M33.45 -47.15 L33.45 -46.95 33.4 -46.55 32.7 -46.4 29.4 -46.85 Q28.4 -46.85 26.65 -48.55 24.55 -50.7 22.2 -51.6 L17.85 -54.6 Q16.8 -55.25 15.0 -57.2 L15.1 -57.55 15.45 -58.2 Q17.55 -57.65 24.35 -53.3 24.05 -53.1 24.05 -52.55 L26.55 -50.5 28.2 -49.35 Q28.2 -48.7 29.25 -47.8 30.45 -46.85 31.8 -46.85 L33.45 -47.15 M31.85 -37.5 L29.4 -40.35 29.9 -41.6 Q31.65 -41.55 32.2 -40.45 32.75 -39.35 33.6 -38.3 L32.5 -38.35 Q31.85 -38.3 31.85 -37.5 M35.4 -36.35 L35.55 -36.2 35.4 -36.05 35.4 -36.2 35.4 -36.35 M34.35 -35.4 L33.95 -35.45 33.15 -36.15 33.5 -36.15 34.35 -35.4 M23.4 -44.85 L21.6 -46.7 21.75 -47.4 23.75 -46.3 24.5 -45.6 24.25 -45.65 Q23.45 -45.7 23.4 -44.85 M25.05 -44.75 L25.25 -44.2 Q25.8 -44.0 24.85 -44.0 25.05 -44.2 25.05 -44.7 L25.05 -44.75 M44.35 -18.5 L42.45 -23.15 Q40.5 -27.05 38.45 -29.45 L38.55 -30.35 Q38.65 -30.55 39.3 -30.55 42.05 -30.55 44.45 -22.9 L45.55 -19.2 45.4 -19.4 Q44.25 -20.9 44.25 -19.15 L44.35 -18.5 M45.85 -13.65 L45.45 -13.55 Q44.2 -13.2 44.4 -14.05 L44.7 -15.05 44.75 -14.85 Q45.2 -13.65 45.8 -13.65 L45.85 -13.65 M41.6 5.1 Q44.4 9.6 44.55 11.4 44.35 11.8 43.8 11.85 43.8 9.5 41.2 6.45 39.45 4.4 37.45 2.95 35.4 1.45 32.35 -11.4 L33.15 -11.85 Q33.7 -11.4 34.8 -8.55 L36.35 -3.75 Q36.7 -2.35 40.55 3.5 39.75 3.3 39.75 4.3 L39.9 4.9 Q40.2 5.55 40.85 5.55 41.4 5.55 41.6 5.1 M39.95 2.9 L38.35 0.65 Q36.75 -1.15 36.75 0.8 36.75 1.55 37.35 2.55 38.15 3.9 39.45 3.9 39.95 3.9 39.95 2.9 M-42.45 -18.6 Q-42.45 -16.8 -40.9 -14.65 L-39.35 -12.35 -39.55 -11.2 -39.65 -9.15 -40.5 -8.7 Q-40.5 -9.2 -42.05 -12.0 -43.7 -15.9 -44.3 -21.9 -44.5 -23.35 -43.9 -23.65 -43.2 -23.8 -43.1 -24.05 -42.05 -23.0 -42.15 -21.1 L-42.45 -18.6 M-40.05 -12.5 Q-40.05 -13.35 -40.95 -13.5 -41.9 -13.65 -41.9 -12.65 -41.85 -11.55 -41.0 -11.55 -40.05 -11.55 -40.05 -12.5 M-33.65 14.05 Q-34.7 12.55 -35.4 10.65 -36.3 8.0 -36.3 5.1 -36.3 4.45 -36.05 4.35 L-35.5 4.25 Q-34.1 5.65 -32.75 9.75 L-32.7 9.85 -32.9 9.75 Q-33.95 9.75 -33.95 11.55 L-33.65 14.05 M-32.25 11.25 Q-31.5 13.8 -31.5 15.2 -31.75 15.7 -32.25 15.75 L-32.65 15.3 Q-31.95 15.2 -31.95 14.35 L-32.15 12.05 -32.25 11.25 M-10.65 38.75 L-11.65 37.8 Q-14.9 34.7 -14.9 32.5 L-14.85 31.85 -14.7 31.65 -14.4 31.5 Q-11.95 33.6 -9.6 36.5 -7.65 38.85 -7.4 39.6 L-7.5 40.2 Q-7.65 40.5 -8.3 40.5 L-8.5 40.45 -8.3 40.2 -8.15 39.8 Q-8.15 38.65 -9.55 37.45 -10.95 36.3 -10.95 37.95 L-10.65 38.75" fill="#ffffff" fill-opacity="0.69803923" fill-rule="evenodd" stroke="none"/>
    <path d="M24.35 -53.3 Q25.05 -53.7 27.25 -52.3 L27.45 -52.15 Q27.75 -52.35 28.35 -51.95 L29.45 -50.75 Q30.45 -49.9 30.45 -49.55 L30.45 -49.5 33.0 -49.05 Q33.8 -49.05 33.8 -47.95 33.8 -47.4 33.45 -47.15 L31.8 -46.85 Q30.45 -46.85 29.25 -47.8 28.2 -48.7 28.2 -49.35 L26.55 -50.5 24.05 -52.55 Q24.05 -53.1 24.35 -53.3 M33.6 -38.3 L33.85 -38.15 Q35.3 -37.3 35.4 -36.35 L35.4 -36.2 35.4 -36.05 Q35.35 -35.3 34.65 -35.3 L34.35 -35.4 33.5 -36.15 33.15 -36.15 Q32.5 -36.15 32.1 -36.75 L31.85 -37.5 Q31.85 -38.3 32.5 -38.35 L33.6 -38.3 M24.5 -45.6 L25.05 -44.75 25.05 -44.7 Q25.05 -44.2 24.85 -44.0 L24.3 -43.8 Q23.7 -43.8 23.5 -44.25 L23.4 -44.75 23.4 -44.85 Q23.45 -45.7 24.25 -45.65 L24.5 -45.6 M45.55 -19.2 Q46.5 -17.85 46.5 -16.25 L46.45 -15.7 46.65 -14.6 46.45 -14.0 45.85 -13.65 45.8 -13.65 Q45.2 -13.65 44.75 -14.85 L44.7 -15.05 44.45 -16.2 Q44.45 -16.85 44.7 -17.0 L44.65 -17.2 44.35 -18.5 44.25 -19.15 Q44.25 -20.9 45.4 -19.4 L45.55 -19.2 M40.55 3.5 L40.75 3.55 Q41.7 3.95 41.7 4.5 L41.6 5.1 Q41.4 5.55 40.85 5.55 40.2 5.55 39.9 4.9 L39.75 4.3 Q39.75 3.3 40.55 3.5 M39.95 2.9 Q39.95 3.9 39.45 3.9 38.15 3.9 37.35 2.55 36.75 1.55 36.75 0.8 36.75 -1.15 38.35 0.65 L39.95 2.9 M-40.05 -12.5 Q-40.05 -11.55 -41.0 -11.55 -41.85 -11.55 -41.9 -12.65 -41.9 -13.65 -40.95 -13.5 -40.05 -13.35 -40.05 -12.5 M-32.7 9.85 L-32.25 11.25 -32.15 12.05 -31.95 14.35 Q-31.95 15.2 -32.65 15.3 L-32.85 15.3 Q-33.4 15.3 -33.65 14.05 L-33.95 11.55 Q-33.95 9.75 -32.9 9.75 L-32.7 9.85 M-8.5 40.45 L-8.9 40.55 Q-9.85 40.55 -10.65 38.75 L-10.95 37.95 Q-10.95 36.3 -9.55 37.45 -8.15 38.65 -8.15 39.8 L-8.3 40.2 -8.5 40.45" fill="#ebf7fd" fill-rule="evenodd" stroke="none"/>
  </g>
</svg>
