<?xml version="1.0" encoding="UTF-8" standalone="no"?>
<svg xmlns:xlink="http://www.w3.org/1999/xlink" height="121.25px" width="111.1px" xmlns="http://www.w3.org/2000/svg">
  <g transform="matrix(1.0, 0.0, 0.0, 1.0, 44.35, 58.2)">
    <path d="M25.85 -49.35 L20.05 -53.2 Q15.8 -55.95 15.0 -57.2 L15.45 -58.2 20.05 -55.35 Q23.0 -53.35 24.85 -53.35 26.25 -53.35 28.1 -51.9 L30.45 -49.6 Q29.25 -49.7 27.75 -50.45 L26.05 -51.15 25.45 -51.1 25.6 -51.1 25.35 -50.55 Q25.45 -49.9 25.85 -49.35 M32.15 -49.15 L33.35 -48.95 Q33.8 -48.75 33.8 -47.95 L33.75 -46.8 Q33.6 -46.4 32.95 -46.4 28.95 -46.4 27.8 -47.15 27.1 -47.65 25.95 -49.25 L27.1 -48.15 Q28.2 -47.25 30.05 -47.25 L31.6 -47.3 Q32.4 -47.5 32.4 -48.15 L32.35 -48.9 32.15 -49.15 M32.75 -36.2 L32.4 -37.35 Q32.05 -37.85 31.55 -37.85 L29.4 -40.35 29.9 -41.6 Q32.0 -40.9 35.55 -36.2 L35.45 -35.65 35.35 -35.45 Q35.8 -35.3 34.8 -35.3 34.15 -35.3 33.75 -35.55 L32.75 -36.2 M23.75 -46.3 L23.3 -45.75 23.15 -45.45 23.4 -44.85 21.6 -46.7 Q21.8 -47.65 23.75 -46.3 M23.4 -44.85 L24.05 -43.8 23.6 -44.1 23.4 -44.85 M27.75 -33.4 Q27.3 -33.4 27.0 -32.85 26.65 -32.3 26.65 -31.55 L22.6 -35.4 Q19.45 -38.2 19.25 -40.4 L19.3 -40.95 Q19.4 -41.25 20.05 -41.25 25.3 -37.85 27.75 -33.4 M28.25 -29.35 Q30.3 -28.45 31.55 -28.8 L31.5 -28.15 Q31.35 -27.75 30.7 -27.75 30.0 -27.75 29.35 -28.3 L28.25 -29.35 M29.2 -31.1 L28.4 -31.65 28.65 -32.05 29.2 -31.1 M43.35 -19.45 Q43.0 -20.15 42.2 -22.75 41.75 -24.2 38.45 -29.45 L38.55 -30.35 38.55 -30.45 39.3 -30.55 Q41.25 -30.55 43.25 -26.4 45.05 -22.8 46.45 -17.0 L44.95 -18.65 43.7 -19.85 43.35 -19.45 M46.55 -14.6 Q46.15 -14.6 46.15 -13.75 L47.15 -10.7 49.75 -3.0 49.0 -4.8 Q48.65 -5.9 47.45 -6.15 L47.3 -6.05 47.25 -5.4 Q47.25 -3.05 47.9 -1.65 48.45 -0.45 49.2 -0.45 L49.95 -0.6 50.05 -0.75 50.05 -0.2 49.7 0.0 48.75 0.2 Q48.2 0.2 46.35 -5.65 44.35 -11.9 44.3 -15.15 L44.45 -14.55 Q44.45 -14.4 45.0 -14.4 L45.75 -14.55 45.75 -15.2 46.55 -14.6 M6.65 -5.75 Q7.1 -5.55 6.1 -5.55 3.75 -7.25 4.05 -10.25 L4.15 -10.95 4.4 -11.2 Q4.9 -10.85 5.75 -8.8 6.7 -6.7 6.65 -5.75 M40.15 -18.8 L40.25 -19.8 39.95 -20.7 Q39.45 -21.8 39.0 -23.4 L39.15 -24.0 Q39.3 -24.3 39.95 -24.3 43.6 -19.5 41.35 -16.9 L40.15 -18.8 M41.4 -16.7 Q43.45 -13.1 44.1 -8.15 L43.8 -7.4 43.0 -6.05 Q43.7 -5.7 44.25 -4.7 L43.35 -4.05 42.3 -3.6 Q42.05 -3.6 41.65 -4.15 41.1 -4.85 41.1 -5.75 L42.25 -8.9 40.8 -15.45 Q41.4 -16.05 41.4 -16.7 M38.5 3.75 Q36.35 1.85 35.65 0.1 35.15 -1.2 32.35 -11.4 32.9 -11.55 33.15 -11.85 33.85 -10.95 37.15 -2.0 L39.65 1.85 41.65 5.0 39.95 3.4 39.05 3.0 38.5 3.75 M42.2 6.05 L43.8 8.9 Q44.7 10.9 44.55 11.4 L43.8 11.85 43.15 9.8 Q42.45 7.85 41.4 6.65 L42.0 6.5 42.2 6.05 M44.45 -22.65 L44.15 -23.7 Q43.85 -24.15 43.4 -24.15 L42.65 -23.7 Q42.35 -23.25 42.35 -22.65 42.35 -22.05 42.65 -21.6 42.95 -21.15 43.4 -21.15 43.85 -21.15 44.15 -21.6 44.45 -22.05 44.45 -22.65 M44.4 -1.85 L44.15 -0.95 Q43.85 -0.6 43.45 -0.6 43.05 -0.6 42.8 -0.95 42.5 -1.35 42.5 -1.85 42.5 -2.35 42.8 -2.7 43.05 -3.1 43.45 -3.1 43.85 -3.1 44.15 -2.7 L44.4 -1.85 M44.8 14.35 L44.55 15.3 Q44.25 15.65 43.85 15.65 43.45 15.65 43.2 15.3 42.9 14.9 42.9 14.35 42.9 13.8 43.2 13.45 43.45 13.05 43.85 13.05 44.25 13.05 44.55 13.45 L44.8 14.35 M43.95 17.4 Q44.05 16.9 44.3 16.75 L45.8 18.4 Q46.85 19.9 46.65 20.75 45.7 21.95 44.6 20.35 43.45 18.75 43.95 17.4 M49.8 27.35 L48.7 25.8 48.0 24.35 48.15 23.7 47.95 23.6 48.5 23.5 50.2 24.7 51.45 26.35 Q51.25 26.05 50.95 26.0 50.55 25.9 50.25 26.3 49.9 26.65 49.8 27.35 M50.6 28.55 Q50.3 28.55 50.1 28.35 L49.9 27.75 50.6 28.55 M66.05 40.85 L66.55 40.9 Q66.75 40.95 66.75 41.55 L66.7 42.2 66.6 42.6 65.85 42.75 Q63.65 42.75 58.05 37.85 52.4 32.85 51.45 29.9 L51.65 29.35 52.15 29.2 Q53.8 29.8 57.0 33.45 60.4 37.35 60.9 37.65 L60.6 37.75 60.5 38.4 Q60.5 38.75 62.55 40.45 64.7 42.2 65.5 42.2 66.15 42.2 66.25 41.9 L66.3 41.3 66.05 40.85 M48.95 56.6 L48.25 54.6 Q45.8 47.1 45.8 45.0 45.8 43.9 46.7 42.5 47.65 41.05 48.8 40.4 L49.1 40.55 49.2 41.3 Q49.2 42.0 48.4 43.3 47.55 44.6 47.55 45.05 L48.4 49.2 49.7 54.55 48.9 54.05 Q48.6 54.5 48.6 55.2 L48.95 56.6 M52.5 62.45 L51.65 63.05 51.05 62.1 Q51.45 62.45 51.85 62.45 L52.5 62.45 M26.9 14.4 Q27.4 15.7 27.1 16.95 L26.75 16.8 26.35 17.55 26.25 18.5 Q26.25 20.1 26.75 22.3 27.15 24.25 27.4 24.6 L27.6 24.95 27.9 25.9 Q27.65 26.35 27.0 26.4 26.35 26.2 26.35 25.05 25.65 22.75 24.9 18.8 L25.45 16.05 Q25.9 16.45 26.45 16.5 L27.0 16.45 26.9 14.4 M25.3 15.5 Q19.5 10.6 18.8 9.15 L18.95 8.55 19.25 8.25 24.15 12.25 25.3 15.5 M11.85 44.1 Q9.7 43.1 8.4 41.5 L7.5 40.1 7.6 39.4 7.95 39.25 8.8 39.6 Q9.6 40.0 10.35 40.8 9.45 40.8 8.6 41.4 8.85 42.05 11.85 44.1 M14.4 42.95 L16.05 43.4 16.25 44.65 16.75 45.2 17.25 44.75 17.4 43.45 19.9 43.35 20.65 43.5 20.8 43.9 20.9 44.3 19.5 45.15 15.25 45.05 Q15.25 44.1 14.85 43.45 L14.4 42.95 M-42.1 -12.1 L-43.5 -17.25 Q-44.2 -20.4 -44.35 -22.5 L-44.15 -23.65 Q-43.5 -23.65 -43.1 -24.05 -41.8 -22.8 -41.85 -19.75 -41.9 -16.3 -40.7 -14.35 L-41.4 -14.3 -42.15 -13.4 -42.05 -12.55 -42.1 -12.1 M-40.05 -13.45 Q-39.3 -12.3 -39.55 -11.2 L-40.05 -11.7 -40.2 -12.5 -40.05 -13.45 M-27.9 -17.9 L-26.55 -13.95 -25.5 -10.2 -26.0 -8.95 Q-26.6 -7.75 -27.3 -7.1 L-28.0 -7.4 -28.25 -8.4 -27.75 -9.6 Q-27.3 -10.35 -27.3 -10.85 -27.3 -12.15 -28.4 -13.65 L-30.75 -16.6 Q-34.2 -21.2 -34.2 -27.45 L-33.45 -30.3 Q-32.3 -33.25 -30.6 -33.9 -30.2 -33.25 -30.1 -32.15 -30.0 -30.95 -30.35 -29.85 -30.5 -31.1 -31.0 -31.25 L-32.0 -29.65 -32.3 -28.85 Q-32.3 -26.85 -31.65 -24.7 -30.8 -21.75 -28.4 -16.8 L-28.05 -16.85 Q-27.9 -17.0 -27.9 -17.65 L-27.9 -17.9 M-31.95 12.4 Q-31.5 13.95 -31.5 15.2 L-31.55 15.65 -32.15 15.75 Q-33.1 15.75 -33.9 13.8 -34.9 11.55 -36.3 5.1 L-36.05 4.35 Q-36.5 4.25 -35.5 4.25 -34.9 4.25 -34.6 4.95 L-33.95 6.7 -33.85 6.8 -34.05 7.5 -31.95 12.4 M-8.2 31.8 L-5.5 32.75 Q-3.65 33.65 -3.55 33.7 -5.1 33.5 -8.2 31.8 M-1.45 35.6 L-3.7 35.7 -1.45 35.6 M-9.65 33.65 Q-11.45 33.65 -12.75 32.8 -14.05 31.9 -14.05 30.65 L-9.65 33.65 M-2.4 37.2 Q-2.4 37.7 -2.75 38.05 -3.1 38.4 -3.6 38.4 L-4.45 38.05 -4.8 37.2 Q-4.8 36.7 -4.45 36.35 -4.1 36.0 -3.6 36.0 -3.1 36.0 -2.75 36.35 -2.4 36.7 -2.4 37.2 M-12.7 33.05 L-12.95 33.5 -13.05 34.35 Q-13.05 36.6 -11.05 38.3 -9.55 39.6 -8.95 39.6 L-8.3 39.45 -8.25 39.15 Q-8.25 38.85 -8.75 37.9 L-9.25 36.95 -8.2 38.45 Q-7.4 39.6 -7.4 40.05 -7.65 40.55 -8.9 40.55 -9.4 40.55 -11.95 37.8 -14.9 34.7 -14.9 32.5 L-14.85 31.8 -14.85 31.85 -14.7 31.65 -14.35 31.75 -12.7 33.05" fill="#ffffff" fill-opacity="0.69803923" fill-rule="evenodd" stroke="none"/>
    <path d="M30.45 -49.6 L32.15 -49.15 32.35 -48.9 32.4 -48.15 Q32.4 -47.5 31.6 -47.3 L30.05 -47.25 Q28.2 -47.25 27.1 -48.15 L25.95 -49.25 25.85 -49.35 Q25.45 -49.9 25.35 -50.55 L25.6 -51.1 25.45 -51.1 26.05 -51.15 27.75 -50.45 Q29.25 -49.7 30.45 -49.6 M31.55 -37.85 Q32.05 -37.85 32.4 -37.35 L32.75 -36.2 31.5 -36.25 31.45 -36.35 31.35 -37.25 31.4 -37.85 31.55 -37.85 M23.4 -44.85 L23.15 -45.45 23.3 -45.75 23.75 -46.3 Q24.6 -46.0 25.15 -45.15 L25.7 -43.75 25.75 -43.0 Q25.75 -42.75 25.1 -42.75 L24.05 -43.8 23.4 -44.85 M26.65 -31.55 Q26.65 -32.3 27.0 -32.85 27.3 -33.4 27.75 -33.4 L28.4 -33.0 28.65 -32.05 28.4 -31.65 29.2 -31.1 Q30.15 -31.1 30.85 -30.4 31.55 -29.75 31.55 -28.8 30.3 -28.45 28.25 -29.35 27.25 -30.15 26.65 -31.55 M46.45 -17.0 L46.95 -15.7 46.9 -14.65 46.65 -14.6 46.55 -14.6 45.75 -15.2 45.75 -14.55 45.0 -14.4 Q44.45 -14.4 44.45 -14.55 L44.3 -15.15 43.6 -17.25 43.25 -18.7 43.35 -19.45 43.7 -19.85 44.95 -18.65 46.45 -17.0 M49.75 -3.0 Q50.1 -2.65 50.1 -1.65 L50.05 -0.75 49.95 -0.6 49.2 -0.45 Q48.45 -0.45 47.9 -1.65 47.25 -3.05 47.25 -5.4 L47.3 -6.05 47.45 -6.15 Q48.65 -5.9 49.0 -4.8 L49.75 -3.0 M41.35 -16.9 L41.4 -16.7 Q41.4 -16.05 40.8 -15.45 L39.95 -16.25 Q39.15 -17.25 39.15 -18.3 L39.2 -19.0 39.4 -19.1 40.15 -18.8 41.35 -16.9 M41.65 5.0 L41.95 5.4 42.2 6.05 42.0 6.5 41.4 6.65 Q40.5 6.3 39.7 5.5 38.8 4.65 38.5 3.75 L39.05 3.0 39.95 3.4 41.65 5.0 M44.45 -22.65 Q44.45 -22.05 44.15 -21.6 43.85 -21.15 43.4 -21.15 42.95 -21.15 42.65 -21.6 42.35 -22.05 42.35 -22.65 42.35 -23.25 42.65 -23.7 L43.4 -24.15 Q43.85 -24.15 44.15 -23.7 L44.45 -22.65 M63.6 -15.5 L63.55 -15.0 Q63.4 -14.55 62.7 -14.55 62.25 -14.55 62.05 -15.1 L61.95 -15.55 Q61.95 -16.5 62.8 -16.4 63.6 -16.3 63.6 -15.5 M51.45 26.35 L51.6 26.6 Q51.85 27.1 51.75 27.65 L51.45 28.3 50.6 28.55 49.9 27.75 49.8 27.35 Q49.9 26.65 50.25 26.3 50.55 25.9 50.95 26.0 51.25 26.05 51.45 26.35 M60.9 37.65 L63.65 39.15 66.05 40.85 66.3 41.3 66.25 41.9 Q66.15 42.2 65.5 42.2 64.7 42.2 62.55 40.45 60.5 38.75 60.5 38.4 L60.6 37.75 60.9 37.65 M49.7 54.55 L51.55 57.55 52.3 59.25 52.3 60.2 52.6 61.25 Q52.85 61.75 52.7 62.15 L52.5 62.4 52.5 62.45 51.85 62.45 Q51.45 62.45 51.05 62.1 50.2 61.35 49.45 58.85 L48.95 56.6 48.6 55.2 Q48.6 54.5 48.9 54.05 L49.7 54.55 M24.15 12.25 Q24.05 11.7 24.1 10.95 L24.45 10.7 25.2 11.15 Q25.65 11.7 26.9 14.4 L27.0 16.45 26.45 16.5 Q25.9 16.45 25.45 16.05 L25.3 15.5 24.15 12.25 M27.1 16.95 L27.9 18.6 Q28.5 20.25 28.5 23.15 L28.45 23.95 28.25 24.55 27.4 24.6 Q27.15 24.25 26.75 22.3 26.25 20.1 26.25 18.5 L26.35 17.55 26.75 16.8 27.1 16.95 M10.35 40.8 L13.8 42.75 14.4 42.95 14.85 43.45 Q15.25 44.1 15.25 45.05 14.2 45.25 11.85 44.1 8.85 42.05 8.6 41.4 9.45 40.8 10.35 40.8 M16.05 43.4 L17.4 43.45 17.25 44.75 16.75 45.2 16.25 44.65 16.05 43.4 M-40.7 -14.35 Q-40.45 -14.35 -40.25 -14.05 L-40.05 -13.45 -40.2 -12.5 -40.05 -11.7 -39.55 -11.2 Q-38.85 -10.3 -38.85 -9.3 -38.85 -8.4 -39.2 -8.3 L-40.05 -8.4 Q-39.35 -5.7 -38.45 -0.4 -38.45 0.55 -38.65 0.45 -38.85 0.35 -38.85 1.85 L-39.6 2.4 -40.85 1.1 Q-41.9 -0.2 -41.9 -1.05 L-41.8 -1.95 -41.5 -2.3 Q-40.75 -2.15 -40.75 -1.8 L-40.45 -1.4 -42.1 -12.1 -42.05 -12.55 -42.15 -13.4 -41.4 -14.3 -40.7 -14.35 M-30.35 -29.85 Q-30.4 -27.45 -29.8 -24.15 -29.15 -20.5 -28.15 -18.45 -27.95 -18.6 -27.9 -17.9 L-27.9 -17.65 Q-27.9 -17.0 -28.05 -16.85 L-28.4 -16.8 Q-30.8 -21.75 -31.65 -24.7 -32.3 -26.85 -32.3 -28.85 L-32.0 -29.65 -31.0 -31.25 Q-30.5 -31.1 -30.35 -29.85 M-33.95 6.7 L-33.25 6.6 Q-32.65 6.6 -31.85 8.75 -30.95 11.4 -29.3 12.55 L-29.1 12.3 Q-27.8 13.0 -27.2 14.4 L-27.25 15.0 -28.0 15.2 -29.9 14.75 Q-30.9 14.15 -31.95 12.4 L-34.05 7.5 -33.85 6.8 -33.95 6.7 M-3.55 33.7 Q-1.95 34.05 -1.6 34.55 -1.45 34.75 -1.45 35.55 L-1.45 35.6 -3.7 35.7 Q-5.15 35.9 -6.95 35.05 L-9.65 33.65 -14.05 30.65 -18.2 27.0 -18.3 26.35 Q-18.25 26.1 -17.65 26.1 -17.15 26.1 -15.45 27.25 L-8.2 31.8 Q-5.1 33.5 -3.55 33.7 M-9.25 36.95 L-8.75 37.9 Q-8.25 38.85 -8.25 39.15 L-8.3 39.45 -8.95 39.6 Q-9.55 39.6 -11.05 38.3 -13.05 36.6 -13.05 34.35 L-12.95 33.5 -12.7 33.05 -11.65 33.5 -9.25 36.95" fill="#ebf7fd" fill-rule="evenodd" stroke="none"/>
  </g>
</svg>
