<?xml version="1.0" encoding="UTF-8" standalone="no"?>
<svg xmlns:xlink="http://www.w3.org/1999/xlink" height="164.35px" width="80.9px" xmlns="http://www.w3.org/2000/svg">
  <g transform="matrix(1.0, 0.0, 0.0, 1.0, 36.6, 81.65)">
    <path d="M20.65 -81.6 L20.7 -81.6 Q30.8 -78.95 40.05 -66.55 47.05 -55.65 42.5 -45.3 L30.95 -42.7 30.7 -48.1 30.85 -42.7 30.85 -42.45 Q30.8 -35.1 29.65 -31.5 29.35 -33.6 27.9 -35.9 27.25 -37.2 26.5 -37.75 L19.3 -21.8 19.1 -21.45 Q11.15 -5.8 10.15 -1.7 L5.7 -8.0 5.2 -8.65 5.7 -8.0 10.15 -1.7 Q11.15 -5.8 19.1 -21.45 L19.3 -21.8 19.2 -21.55 10.15 -1.7 9.85 -2.1 8.5 -4.05 5.2 -8.65 13.25 -24.5 Q21.7 -41.7 23.75 -48.25 25.85 -54.85 25.45 -60.2 L24.2 -68.6 Q22.35 -74.85 20.65 -81.6 M26.9 -71.4 L29.25 -66.1 Q35.55 -52.1 36.05 -47.45 35.85 -52.25 29.5 -66.0 L26.9 -71.4 M30.7 -48.1 L30.55 -49.75 29.85 -53.55 29.65 -54.3 31.5 -52.35 32.35 -51.35 36.05 -47.45 32.35 -51.35 31.5 -52.35 29.65 -54.3 29.85 -53.55 30.55 -49.75 30.7 -48.1" fill="#a4c9de" fill-rule="evenodd" stroke="none"/>
    <path d="M30.95 -42.7 L30.95 -41.7 Q30.9 -34.35 29.65 -31.5 L28.3 -35.05 27.9 -35.9 Q29.35 -33.6 29.65 -31.5 30.8 -35.1 30.85 -42.45 L30.85 -42.7 30.7 -48.1 30.95 -42.7 M26.5 -37.75 L26.5 -37.7 19.75 -22.65 19.2 -21.55 19.3 -21.8 26.5 -37.75 M-25.8 4.2 L-27.15 -3.55 Q-28.35 -1.15 -28.35 0.7 -29.4 -1.3 -29.95 -7.4 -30.4 -13.1 -30.0 -15.3 -31.1 -14.8 -31.45 -14.2 -31.95 -13.5 -31.9 -11.95 -33.55 -14.25 -32.6 -26.85 -31.65 -39.15 -29.8 -42.5 -34.95 -37.75 -34.95 -35.4 -36.95 -36.85 -35.2 -43.0 L-32.45 -50.65 -25.1 -66.25 -25.0 -66.45 Q-22.95 -71.15 -19.0 -75.1 L20.65 -81.6 Q22.35 -74.85 24.2 -68.6 L25.45 -60.2 Q25.85 -54.85 23.75 -48.25 21.7 -41.7 13.25 -24.5 L5.2 -8.65 Q0.45 -14.9 -2.8 -17.1 -5.9 -15.95 -16.2 -5.75 L-25.8 4.2 M36.05 -47.45 Q35.55 -52.1 29.25 -66.1 L26.9 -71.4 29.5 -66.0 Q35.85 -52.25 36.05 -47.45 M19.3 -21.8 L19.75 -22.65 19.3 -21.8" fill="#d6eefb" fill-rule="evenodd" stroke="none"/>
    <path d="M9.7 0.65 Q8.7 17.3 9.3 29.95 L10.2 39.6 10.3 40.4 11.3 46.95 Q12.5 53.05 14.45 57.85 L17.25 63.75 17.3 63.85 17.3 63.9 17.5 64.45 17.6 64.75 17.5 64.45 17.3 63.9 17.35 63.9 17.5 64.45 17.6 64.7 17.6 64.75 18.1 70.25 17.2 73.3 15.65 76.3 Q17.15 72.75 15.5 69.25 13.85 65.75 10.45 64.05 13.85 65.75 15.5 69.25 17.15 72.75 15.65 76.3 13.7 79.3 10.5 81.35 L10.2 81.55 Q7.15 83.3 3.6 81.7 L3.45 81.65 3.4 81.6 5.0 82.1 3.4 81.6 1.05 80.15 Q-1.05 78.6 -2.55 76.85 L-2.65 76.7 -2.8 76.5 -3.2 75.9 -4.95 72.8 -5.25 72.15 Q1.9 76.65 8.35 72.75 11.0 71.15 11.65 68.8 12.4 66.25 10.45 64.05 L10.4 64.0 Q6.35 59.4 4.5 31.5 2.7 4.15 5.2 -7.85 L6.5 -6.5 8.5 -4.05 9.85 -2.1 9.7 0.65 Q8.25 9.2 9.1 26.7 9.45 33.7 10.2 39.6 9.45 33.7 9.1 26.7 8.25 9.2 9.7 0.65 M3.6 81.7 L5.0 82.1 9.3 81.85 9.4 81.85 9.5 81.8 9.7 81.75 10.2 81.55 9.7 81.75 9.5 81.8 9.4 81.85 9.3 81.85 5.0 82.1 3.6 81.7 M-3.2 75.9 L-2.55 76.85 -3.2 75.9" fill="#2e6088" fill-rule="evenodd" stroke="none"/>
    <path d="M10.15 -1.7 L9.7 0.65 9.85 -2.1 10.15 -1.7 M10.55 42.0 L15.35 59.65 15.4 59.8 16.1 61.15 16.2 61.35 17.1 63.25 17.35 63.9 17.3 63.9 17.3 63.85 17.25 63.75 14.45 57.85 Q12.5 53.05 11.3 46.95 L10.3 40.4 10.5 41.9 10.55 42.0 Q12.15 53.05 15.35 59.65 12.15 53.05 10.55 42.0 M18.1 70.25 L17.6 72.75 Q16.55 76.45 14.2 78.9 L11.7 80.8 10.2 81.55 10.5 81.35 Q13.7 79.3 15.65 76.3 L17.2 73.3 18.1 70.25 M3.45 81.65 L2.9 81.4 2.4 81.15 Q-0.35 79.75 -2.55 76.85 -1.05 78.6 1.05 80.15 L3.4 81.6 3.45 81.65 M-5.25 72.15 L-6.25 69.7 Q-12.6 52.5 -17.8 36.2 -22.2 22.25 -23.4 16.75 L-24.4 11.85 -24.55 11.0 -24.75 9.95 -25.05 8.55 -25.65 5.4 -25.65 5.25 -25.8 4.5 -25.85 4.2 -25.8 4.2 -16.2 -5.75 Q-5.9 -15.95 -2.8 -17.1 0.45 -14.9 5.2 -8.65 L8.5 -4.05 6.5 -6.5 5.2 -7.85 Q2.7 4.15 4.5 31.5 6.35 59.4 10.4 64.0 L10.45 64.05 Q12.4 66.25 11.65 68.8 11.0 71.15 8.35 72.75 1.9 76.65 -5.25 72.15 M-24.4 11.85 L-25.65 5.1 -25.8 4.2 -25.65 5.1 -24.4 11.85 M17.3 63.85 L17.1 63.25 17.3 63.85 M10.45 64.05 L9.85 63.75 10.45 64.05 M14.2 78.9 L15.65 76.3 14.2 78.9 M2.9 81.4 L3.4 81.6 2.9 81.4" fill="#1e7fae" fill-rule="evenodd" stroke="none"/>
    <path d="M30.95 -42.7 L30.95 -41.7 Q30.9 -34.35 29.65 -31.5 L28.3 -35.05 27.9 -35.9 Q27.25 -37.2 26.5 -37.75 L26.5 -37.7 19.75 -22.65 19.3 -21.8 19.1 -21.45 Q11.15 -5.8 10.15 -1.7 L9.7 0.65 Q8.25 9.2 9.1 26.7 9.45 33.7 10.2 39.6 L10.45 41.45 10.55 42.0 15.35 59.65 15.4 59.8 16.1 61.15 16.2 61.35 17.1 63.25 17.35 63.9 17.5 64.45 17.3 63.9 17.3 63.85 17.1 63.25 M17.6 64.7 L17.6 64.75 Q18.35 67.45 18.1 70.25 L17.6 72.75 Q16.55 76.45 14.2 78.9 L11.7 80.8 10.2 81.55 9.7 81.75 9.5 81.8 9.4 81.85 9.3 81.85 5.0 82.1 3.6 81.7 3.45 81.65 2.9 81.4 2.4 81.15 Q-0.35 79.75 -2.55 76.85 L-2.65 76.7 -2.8 76.5 -3.2 75.9 -4.95 72.8 -5.25 72.15 -6.25 69.7 Q-12.6 52.5 -17.8 36.2 -22.2 22.25 -23.4 16.75 L-24.4 11.85 -24.55 11.0 -25.05 8.55 -25.65 5.4 -25.65 5.25 -25.8 4.5 -25.85 4.2 -25.8 4.2 -27.15 -3.55 Q-28.35 -1.15 -28.35 0.7 -29.4 -1.3 -29.95 -7.4 -30.4 -13.1 -30.0 -15.3 -31.1 -14.8 -31.45 -14.2 -31.95 -13.5 -31.9 -11.95 -33.55 -14.25 -32.6 -26.85 -31.65 -39.15 -29.8 -42.5 -34.95 -37.75 -34.95 -35.4 -36.95 -36.85 -35.2 -43.0 L-32.45 -50.65 -25.1 -66.25 M5.2 -8.65 L5.7 -8.0 10.15 -1.7 M26.9 -71.4 L29.5 -66.0 Q35.85 -52.25 36.05 -47.45 L32.35 -51.35 31.5 -52.35 29.65 -54.3 29.85 -53.55 30.55 -49.75 30.7 -48.1 30.95 -42.7 M10.45 64.05 Q13.85 65.75 15.5 69.25 17.15 72.75 15.65 76.3 L14.2 78.9 M18.1 70.25 L17.6 64.75 17.5 64.45 M5.2 -8.65 Q0.45 -14.9 -2.8 -17.1 -5.9 -15.95 -16.2 -5.75 L-25.8 4.2 -25.65 5.1 -24.4 11.85 M10.45 41.45 L10.5 41.9 10.55 42.0 Q12.15 53.05 15.35 59.65 M9.85 63.75 L10.45 64.05 M5.0 82.1 L3.4 81.6 2.9 81.4 M-2.55 76.85 L-3.2 75.9" fill="none" stroke="#4a4f58" stroke-linecap="round" stroke-linejoin="miter-clip" stroke-miterlimit="3.0" stroke-width="1.2000000000000002"/>
    <path d="M-24.45 -66.2 L-24.45 -66.15 Q-24.75 -65.6 -25.25 -65.85 L-25.55 -66.2 -25.5 -66.65 -24.75 -68.15 -23.55 -70.05 -20.25 -74.0 -19.55 -74.65 -19.4 -74.85 -19.05 -75.15 -18.9 -75.15 -18.9 -75.0 -20.0 -73.75 -20.2 -73.45 -20.5 -73.15 -21.0 -72.4 -21.3 -72.05 -21.4 -71.85 -22.1 -70.85 -22.35 -70.4 -22.5 -70.2 -22.6 -70.0 -22.85 -69.6 -23.8 -67.7 -24.45 -66.2 M27.4 -71.6 L27.45 -71.6 Q27.65 -70.95 27.1 -70.8 26.55 -70.5 26.35 -71.15 L25.9 -72.15 25.8 -72.5 25.6 -72.85 25.15 -73.9 21.9 -79.65 20.6 -81.5 20.6 -81.65 20.75 -81.65 22.55 -79.5 24.4 -76.85 25.0 -75.9 26.35 -73.7 27.05 -72.3 27.2 -72.1 27.4 -71.6" fill="#4a4f58" fill-rule="evenodd" stroke="none"/>
  </g>
</svg>
