<?xml version="1.0" encoding="UTF-8" standalone="no"?>
<svg xmlns:xlink="http://www.w3.org/1999/xlink" height="249.75px" width="254.85px" xmlns="http://www.w3.org/2000/svg">
  <g transform="matrix(1.0, 0.0, 0.0, 1.0, 159.8, 110.9)">
    <path d="M30.55 -25.2 L30.4 -25.25 21.7 -29.3 16.3 -31.1 10.1 -31.45 16.3 -31.1 13.25 -31.4 10.1 -31.45 1.9 -29.85 Q-1.6 -29.05 -12.1 -24.45 L-12.65 -24.6 -12.9 -25.05 -12.8 -25.95 -9.35 -34.6 -12.8 -25.95 Q-12.05 -28.4 -12.1 -29.75 -11.9 -30.75 -9.35 -34.6 -4.2 -38.35 -1.4 -39.9 L-1.3 -39.9 -1.25 -39.3 -1.7 -36.55 -2.2 -33.8 Q-2.2 -32.0 -1.35 -31.4 -0.85 -31.1 0.3 -31.1 L11.75 -32.55 Q14.5 -32.55 22.15 -29.8 29.95 -27.0 33.6 -24.6 L32.85 -24.4 33.6 -24.6 33.1 -24.3 Q33.4 -24.45 32.85 -24.4 L32.75 -24.35 Q31.6 -24.7 30.55 -25.2 M39.95 -1.15 L37.8 -0.1 Q33.65 2.1 29.55 4.35 L26.65 5.8 Q15.75 12.85 10.1 12.85 8.1 12.85 4.5 11.1 -2.4 7.75 -6.15 6.2 L-7.3 8.85 Q-7.3 14.4 0.7 18.3 7.6 21.65 14.6 21.65 L32.8 20.65 Q34.05 20.35 35.8 19.3 L34.6 21.65 Q29.7 23.7 24.6 24.05 L22.05 24.15 11.7 24.95 Q9.5 25.15 7.8 24.95 L7.3 24.9 3.4 24.4 -3.25 22.1 3.4 24.4 3.0 24.35 0.7 23.75 0.65 23.75 -0.4 31.3 -0.6 33.0 -0.9 34.6 -1.65 38.75 -1.6 38.55 Q8.55 45.8 36.3 57.4 64.25 69.1 71.8 69.1 L72.8 68.95 73.25 68.35 Q73.95 70.45 73.65 71.4 L73.65 71.45 72.7 71.65 68.65 71.55 34.35 61.5 33.9 61.35 13.4 53.8 12.85 53.55 10.5 52.55 Q6.15 50.7 -0.5 47.3 L-3.1 45.5 -3.15 45.75 -3.25 46.15 -3.85 48.85 -5.05 53.5 -5.05 53.6 -5.1 53.7 -5.45 55.0 -6.35 58.4 -8.85 67.2 -13.6 82.9 -20.95 105.4 -21.85 108.0 -22.15 108.85 -22.65 110.1 -28.25 123.1 -28.4 123.35 -28.95 120.45 -29.4 117.45 Q-30.0 113.9 -30.95 110.05 L-31.05 109.5 -30.95 110.05 -31.1 109.5 -31.05 109.5 -20.55 85.15 Q-15.15 72.55 -12.35 64.8 -5.0 44.35 -3.25 22.1 -3.25 22.0 -6.6 19.9 L-10.25 17.25 -12.0 15.0 -13.5 12.9 -14.3 10.05 -13.5 12.9 -13.55 12.75 -14.3 10.05 -14.3 6.2 -14.2 1.25 -14.3 1.7 -14.2 1.25 -13.6 -0.35 Q-0.45 7.25 4.1 9.05 6.7 10.05 8.9 10.25 6.7 10.05 4.1 9.05 -0.45 7.25 -13.6 -0.35 L-13.7 -0.4 -13.9 -0.55 -14.55 -1.0 -16.05 -2.15 -21.35 -8.75 -21.7 -11.3 -21.5 -14.15 Q-9.9 -6.75 -3.05 -3.5 5.05 0.35 10.25 0.35 18.1 0.35 28.7 -2.6 32.9 -3.8 53.5 -10.6 L51.95 -8.85 50.4 -7.4 49.9 -7.05 44.05 -3.5 40.8 -1.55 39.95 -1.15 44.05 -3.5 39.95 -1.15 M11.15 10.4 L15.25 9.9 16.75 9.45 9.2 10.25 8.4 10.15 8.9 10.25 10.2 10.35 11.0 10.4 11.15 10.4 15.95 9.9 Q20.5 8.7 29.55 4.35 20.5 8.7 15.95 9.9 L11.15 10.4 M11.7 24.95 L7.3 24.9 11.7 24.95 M72.7 71.65 L73.65 71.4 72.7 71.65 M-3.1 45.5 L-2.3 42.0 -1.7 39.0 -1.65 38.75 -1.7 39.0 -2.3 42.0 -3.1 45.5 M-21.85 108.0 L-22.65 110.1 -21.85 108.0" fill="#4392b9" fill-rule="evenodd" stroke="none"/>
    <path d="M16.3 -31.1 L21.7 -29.3 30.4 -25.25 30.55 -25.2 Q31.6 -24.7 32.75 -24.35 L32.45 -24.3 32.35 -24.3 30.55 -25.2 32.35 -24.3 Q34.4 -23.1 44.5 -18.0 53.65 -12.95 53.65 -10.7 L52.75 -9.4 Q51.65 -8.1 50.4 -7.4 L51.95 -8.85 53.5 -10.6 Q32.9 -3.8 28.7 -2.6 18.1 0.35 10.25 0.35 5.05 0.35 -3.05 -3.5 -9.9 -6.75 -21.5 -14.15 -21.5 -18.35 -18.9 -21.3 L-17.65 -22.55 Q-15.6 -24.2 -13.0 -24.3 L-12.9 -25.05 -12.65 -24.6 -12.1 -24.45 Q-1.6 -29.05 1.9 -29.85 L10.1 -31.45 13.25 -31.4 16.3 -31.1 M33.6 -24.6 Q29.95 -27.0 22.15 -29.8 14.5 -32.55 11.75 -32.55 L0.3 -31.1 Q-0.85 -31.1 -1.35 -31.4 -2.2 -32.0 -2.2 -33.8 L-1.7 -36.55 -1.25 -39.3 -1.3 -39.9 -1.4 -39.9 Q-4.2 -38.35 -9.35 -34.6 -9.0 -35.35 -5.5 -37.85 -3.35 -38.45 -1.15 -41.2 2.15 -43.65 11.05 -43.65 24.65 -43.65 35.5 -37.3 40.95 -34.1 43.7 -30.85 43.7 -29.3 42.05 -27.8 39.45 -25.3 33.6 -24.6 M26.65 5.8 L32.35 11.95 Q35.95 16.3 35.95 19.1 L34.6 21.65 35.8 19.3 Q34.05 20.35 32.8 20.65 L14.6 21.65 Q7.6 21.65 0.7 18.3 -7.3 14.4 -7.3 8.85 L-6.15 6.2 Q-2.4 7.75 4.5 11.1 8.1 12.85 10.1 12.85 15.75 12.85 26.65 5.8 M-70.6 97.95 Q-49.85 88.1 -40.3 78.05 -29.85 66.95 -17.75 40.7 L-17.15 39.1 -16.2 36.4 -15.3 33.75 -12.2 22.35 -11.15 16.6 -13.3 13.3 -13.55 12.75 -13.5 12.9 -12.0 15.0 -10.25 17.25 -6.6 19.9 Q-3.25 22.0 -3.25 22.1 -5.0 44.35 -12.35 64.8 -15.15 72.55 -20.55 85.15 L-31.05 109.5 -31.35 108.1 -31.05 109.5 -31.1 109.5 -31.35 108.1 -34.65 90.1 -70.6 97.95 M-5.1 53.7 L-5.25 54.35 -5.35 54.65 -5.25 54.35 -5.35 54.65 -5.45 55.0 -5.1 53.7 M9.2 10.25 L16.75 9.45 15.25 9.9 11.15 10.4 11.0 10.4 10.2 10.35 9.2 10.25 10.2 10.35 8.9 10.25 8.4 10.15 9.2 10.25 8.9 10.25 9.2 10.25 M-13.6 -0.35 L-14.2 1.25 -14.3 6.2 -14.35 2.35 -14.3 1.7 -14.2 1.25 -14.35 2.35 -14.2 1.25 -13.9 -0.55 -13.7 -0.4 -13.6 -0.35 M0.55 24.95 L0.65 23.75 0.7 23.75 0.55 24.95 M-0.6 33.0 L-0.85 34.6 11.45 32.75 8.0 34.85 12.85 34.6 Q23.2 34.6 42.85 47.6 L58.8 58.75 Q68.25 65.4 73.25 68.35 L73.8 69.95 73.85 71.25 73.65 71.45 73.65 71.4 Q73.95 70.45 73.25 68.35 L72.8 68.95 71.8 69.1 Q64.25 69.1 36.3 57.4 8.55 45.8 -1.6 38.55 L-1.65 38.75 -0.9 34.6 -0.6 33.0 M33.9 61.35 L33.65 61.3 24.45 58.2 15.65 54.8 13.95 54.05 13.4 53.8 33.9 61.35 M-0.5 47.3 L-3.15 45.75 -3.1 45.5 -0.5 47.3 M73.85 71.25 L73.65 71.4 73.85 71.25 M-16.05 -2.15 Q-19.55 -5.1 -19.95 -5.9 L-21.35 -8.75 -16.05 -2.15 M-12.1 -24.45 L-13.0 -24.3 -12.1 -24.45 M-13.5 12.9 L-13.3 13.3 -13.5 12.9 M-11.15 16.6 L-10.25 17.25 -11.15 16.6 M-0.85 34.6 L-1.6 38.55 -0.85 34.6 M-8.85 67.2 L-10.7 74.4 -13.6 82.9 -8.85 67.2 M-21.55 107.25 L-22.15 108.85 -21.85 108.0 -21.55 107.25 M-28.25 123.1 L-28.5 123.55 -28.7 122.5 -28.9 121.3 -28.95 120.45 -28.4 123.35 -28.25 123.1" fill="#51b6e7" fill-rule="evenodd" stroke="none"/>
    <path d="M-12.8 -25.95 L-12.9 -25.05 -13.0 -24.3 Q-15.6 -24.2 -17.65 -22.55 -15.45 -26.45 -17.45 -33.7 -21.25 -43.65 -27.05 -52.25 L-27.05 -54.85 -28.55 -54.3 -34.3 -66.5 -34.0 -66.55 Q-32.2 -66.55 -23.7 -58.65 L-21.3 -57.25 -18.6 -57.1 -12.75 -55.85 -5.35 -53.9 -5.5 -37.85 Q-9.0 -35.35 -9.35 -34.6 -11.9 -30.75 -12.1 -29.75 -12.05 -28.4 -12.8 -25.95 M89.55 79.8 L89.4 79.9 88.7 80.2 86.9 80.75 84.55 81.3 84.5 81.3 83.1 81.35 81.25 81.2 Q65.1 77.9 55.9 75.6 L33.8 70.05 33.45 69.95 24.5 67.65 23.95 67.5 23.45 67.35 Q23.1 67.25 23.55 68.0 L24.05 68.75 23.55 68.0 Q23.1 67.25 23.45 67.35 L24.0 68.7 24.05 68.75 24.85 70.85 13.35 64.65 2.95 59.0 13.35 64.65 Q11.5 63.85 4.0 59.6 L2.95 59.0 2.0 58.45 -4.1 55.0 -4.4 54.85 -5.25 54.35 -5.1 53.7 -5.05 53.6 -5.05 53.5 -3.85 48.85 Q5.25 56.4 13.95 60.4 21.2 63.75 32.45 66.4 55.2 71.75 75.4 76.75 L88.35 79.85 89.55 79.8 M-17.75 40.7 Q-26.95 51.55 -23.2 40.0 -24.05 39.9 -27.45 43.75 -30.9 47.55 -30.45 43.8 -30.0 40.0 -30.6 39.7 -31.25 39.3 -34.7 40.25 -38.15 41.15 -37.15 39.8 -36.15 38.35 -36.9 38.3 L-37.8 38.15 -39.0 38.0 -54.85 36.0 -61.05 35.2 -60.35 35.3 -61.05 35.2 Q-62.9 34.9 -63.35 35.65 L-64.4 37.1 Q-65.1 37.85 -64.7 36.2 L-64.4 34.55 -64.6 34.45 -66.35 35.15 Q-68.05 35.8 -68.55 35.55 -69.05 35.3 -67.25 32.65 -68.1 32.2 -69.15 30.65 L-70.35 28.7 Q-74.9 20.15 -78.95 10.9 -83.3 1.15 -82.4 -9.4 L-81.5 -17.45 -81.05 -20.35 Q-80.0 -15.9 -77.8 -11.6 -75.25 -6.6 -70.7 -1.75 L-70.6 -1.65 -68.45 5.75 Q-69.45 9.4 -68.5 12.5 -67.35 15.8 -64.75 16.1 L-63.45 18.8 -62.8 19.75 -61.5 21.5 Q-60.85 22.5 -58.15 23.55 -50.45 29.8 -37.25 32.85 L-37.25 32.9 -28.65 31.95 Q-23.0 30.8 -20.4 27.9 -17.8 25.0 -17.35 18.45 L-16.9 10.05 Q-17.0 1.6 -17.35 0.15 -18.55 -1.5 -20.1 -4.75 L-20.3 -5.35 Q-19.25 -3.35 -14.55 -1.0 L-13.9 -0.55 -14.2 1.25 -14.3 1.7 -14.35 2.35 -14.3 6.2 -14.3 10.05 -13.55 12.75 -13.3 13.3 -11.15 16.6 -12.2 22.35 -15.3 33.75 -17.85 35.1 -16.2 36.4 -17.15 39.1 -17.75 40.7 M-40.3 -66.25 Q-40.8 -68.65 -38.25 -65.55 L-32.65 -59.15 -32.3 -53.55 -40.3 -66.25 M-23.7 -58.65 L-22.8 -57.8 -21.3 -57.25 -22.8 -57.8 -23.7 -58.65 M-17.15 39.1 L-17.15 39.05 -18.8 35.8 -17.15 39.05 -17.15 39.1" fill="#a4c9de" fill-rule="evenodd" stroke="none"/>
    <path d="M7.8 24.95 L5.3 26.9 7.3 26.7 20.1 25.3 22.1 25.3 Q19.25 26.25 18.1 26.9 L16.2 28.0 37.65 27.25 40.15 27.45 41.35 27.55 32.45 30.15 Q44.05 31.0 67.65 51.35 77.15 59.55 83.65 67.0 90.4 74.65 90.4 77.6 90.4 78.75 89.55 79.8 L88.35 79.85 75.4 76.75 Q55.2 71.75 32.45 66.4 21.2 63.75 13.95 60.4 5.25 56.4 -3.85 48.85 L-3.25 46.15 -3.15 45.75 -0.5 47.3 Q6.15 50.7 10.5 52.55 L12.85 53.55 13.95 54.05 12.85 53.55 13.4 53.8 13.95 54.05 15.65 54.8 24.45 58.2 33.65 61.3 33.9 61.35 34.35 61.5 68.65 71.55 72.7 71.65 73.65 71.45 73.85 71.25 73.8 69.95 73.25 68.35 Q68.25 65.4 58.8 58.75 L42.85 47.6 Q23.2 34.6 12.85 34.6 L8.0 34.85 11.45 32.75 -0.85 34.6 -0.6 33.0 -0.4 31.3 0.65 23.75 0.55 24.95 0.55 25.3 1.45 24.8 3.0 24.35 3.4 24.4 7.3 24.9 7.8 24.95 M88.7 80.2 Q85.65 81.5 84.5 81.3 L84.55 81.3 86.9 80.75 88.7 80.2 M-81.05 -20.35 L-81.05 -20.4 Q-80.1 -25.65 -77.95 -31.1 L-74.15 -40.35 -71.95 -45.3 Q-78.6 -47.3 -66.2 -49.3 -69.65 -52.65 -61.85 -50.85 -55.55 -54.4 -50.65 -55.15 L-43.55 -56.35 -43.35 -56.4 -41.0 -57.1 -42.5 -59.0 Q-44.15 -60.9 -43.75 -60.95 -43.4 -61.05 -41.05 -59.35 -38.7 -57.65 -38.2 -57.7 -37.4 -57.9 -39.55 -63.8 L-40.3 -66.25 -32.3 -53.55 -32.65 -59.15 -32.25 -58.75 Q-35.7 -65.95 -34.3 -66.5 L-28.55 -54.3 -27.05 -54.85 -27.05 -52.25 Q-21.25 -43.65 -17.45 -33.7 -15.45 -26.45 -17.65 -22.55 L-18.9 -21.3 Q-21.5 -18.35 -21.5 -14.15 L-21.7 -11.3 -21.35 -8.75 -19.95 -5.9 Q-19.55 -5.1 -16.05 -2.15 L-14.55 -1.0 Q-19.25 -3.35 -20.3 -5.35 L-20.1 -4.75 Q-18.55 -1.5 -17.35 0.15 -17.0 1.6 -16.9 10.05 L-17.35 18.45 Q-17.8 25.0 -20.4 27.9 -23.0 30.8 -28.65 31.95 L-37.25 32.9 -37.25 32.85 Q-50.45 29.8 -58.15 23.55 -60.85 22.5 -61.5 21.5 L-62.8 19.75 -63.45 18.8 -64.75 16.1 Q-61.55 16.7 -61.2 15.2 -60.6 12.95 -61.2 10.55 -61.8 3.2 -65.4 -3.35 -68.0 -6.45 -70.65 -1.8 L-70.6 -1.65 -70.7 -1.75 Q-75.25 -6.6 -77.8 -11.6 -80.0 -15.9 -81.05 -20.35 M-5.25 54.35 L-4.4 54.85 -5.25 54.35 M24.85 70.85 L24.05 68.75 24.25 69.05 24.85 70.85 M33.8 70.05 L55.9 75.6 Q65.1 77.9 81.25 81.2 67.8 79.0 57.45 76.35 L34.15 70.15 33.8 70.05 M24.25 69.05 L24.05 68.75 24.0 68.7 24.25 69.05 M-42.25 -56.35 L-43.3 -56.15 -42.75 -55.95 -42.25 -56.35 M-70.7 -1.75 L-70.65 -1.8 -70.7 -1.75 M-40.3 12.15 Q-39.95 17.8 -36.9 19.45 L-36.75 19.6 -34.25 20.1 -36.75 19.6 -36.9 19.45 Q-39.95 17.8 -40.3 12.15 M-34.25 20.1 L-32.5 20.1 Q-30.8 19.75 -29.55 17.95 -29.35 13.3 -33.65 12.75 -29.35 13.3 -29.55 17.95 -30.8 19.75 -32.5 20.1 L-34.25 20.1 M-15.3 33.75 L-16.2 36.4 -17.85 35.1 -15.3 33.75 M-53.75 5.45 Q-53.35 3.05 -54.45 0.65 -56.25 1.65 -56.05 3.25 -55.5 5.75 -53.75 5.45" fill="#d6eefb" fill-rule="evenodd" stroke="none"/>
    <path d="M-70.65 -1.8 Q-68.0 -6.45 -65.4 -3.35 -61.8 3.2 -61.2 10.55 -62.45 7.7 -65.35 6.1 -67.35 1.85 -70.6 -1.65 L-70.65 -1.8" fill="#8491a2" fill-rule="evenodd" stroke="none"/>
    <path d="M-53.75 5.45 Q-55.5 5.75 -56.05 3.25 -56.25 1.65 -54.45 0.65 -53.35 3.05 -53.75 5.45" fill="#4a4f58" fill-rule="evenodd" stroke="none"/>
    <path d="M-61.2 10.55 Q-60.6 12.95 -61.2 15.2 -61.55 16.7 -64.75 16.1 -67.35 15.8 -68.5 12.5 -69.45 9.4 -68.45 5.75 L-70.6 -1.65 Q-67.35 1.85 -65.35 6.1 -62.45 7.7 -61.2 10.55" fill="#a8b6c9" fill-rule="evenodd" stroke="none"/>
    <path d="M-55.6 135.9 L-60.75 138.1 -61.25 138.25 -61.05 138.2 -44.1 130.4 Q-49.7 133.25 -55.6 135.9 M-65.15 123.35 L-71.2 98.45 -71.25 98.25 -70.6 97.95 -34.65 90.1 -31.35 108.1 -31.1 109.5 -44.05 115.05 Q-57.5 120.7 -65.15 123.35 M-28.5 123.55 L-28.85 124.2 -29.35 124.35 -30.2 124.6 -29.5 123.8 Q-28.9 122.8 -28.9 121.4 L-28.7 122.5 -28.9 121.4 -28.9 121.3 -28.7 122.5 -28.5 123.55" fill="#1e7fae" fill-rule="evenodd" stroke="none"/>
    <path d="M81.25 81.2 L81.25 81.45 Q66.4 85.7 44.9 83.15 L18.4 75.65 Q4.45 71.6 -1.15 76.5 L3.6 94.0 Q3.25 106.8 -6.6 116.85 -11.7 126.35 -20.65 127.45 -36.45 133.8 -55.4 136.7 L-55.6 135.9 Q-49.7 133.25 -44.1 130.4 L-30.95 124.8 -30.2 124.6 -29.35 124.35 -28.85 124.2 -28.5 123.55 -28.25 123.1 -22.65 110.1 -22.15 108.85 -21.55 107.25 -20.95 105.4 -13.6 82.9 -10.7 74.4 -8.85 67.2 -6.35 58.4 -5.45 55.0 -5.35 54.65 -5.25 54.35 -4.4 54.85 -4.1 55.0 2.0 58.45 2.95 59.0 4.0 59.6 Q11.5 63.85 13.35 64.65 L24.85 70.85 24.25 69.05 24.0 68.7 23.45 67.35 23.95 67.5 24.5 67.65 33.45 69.95 34.15 70.15 57.45 76.35 Q67.8 79.0 81.25 81.2" fill="#8f2a2a" fill-rule="evenodd" stroke="none"/>
    <path d="M-61.25 138.25 L-65.15 123.35 Q-57.5 120.7 -44.05 115.05 L-31.1 109.5 -30.95 110.05 Q-30.0 113.9 -29.4 117.45 L-28.95 120.45 -28.9 121.3 -28.9 121.4 -30.95 110.05 -28.9 121.4 Q-28.9 122.8 -29.5 123.8 L-30.2 124.6 -30.95 124.8 -44.1 130.4 -61.05 138.2 -61.25 138.25" fill="#2e6088" fill-rule="evenodd" stroke="none"/>
    <path d="M16.3 -31.1 L21.7 -29.3 30.4 -25.25 30.55 -25.2 32.35 -24.3 Q34.4 -23.1 44.5 -18.0 53.65 -12.95 53.65 -10.7 L52.75 -9.4 Q51.65 -8.1 50.4 -7.4 L49.9 -7.05 44.05 -3.5 39.95 -1.15 37.8 -0.1 Q33.65 2.1 29.55 4.35 20.5 8.7 15.95 9.9 L11.15 10.4 11.0 10.4 10.2 10.35 9.2 10.25 8.9 10.25 Q6.7 10.05 4.1 9.05 -0.45 7.25 -13.6 -0.35 L-13.7 -0.4 M-12.1 -24.45 Q-1.6 -29.05 1.9 -29.85 L10.1 -31.45 16.3 -31.1 M-14.55 -1.0 L-16.05 -2.15 Q-19.55 -5.1 -19.95 -5.9 L-21.35 -8.75 -21.7 -11.3 -21.5 -14.15 Q-21.5 -18.35 -18.9 -21.3 L-17.65 -22.55 Q-15.6 -24.2 -13.0 -24.3 L-12.1 -24.45 M-13.9 -0.55 L-14.55 -1.0 M-14.2 1.25 L-13.9 -0.55" fill="none" stroke="#4a4f58" stroke-linecap="butt" stroke-linejoin="miter-clip" stroke-miterlimit="4.0" stroke-width="1.2000000000000002"/>
    <path d="M32.75 -24.35 L32.85 -24.4 33.6 -24.6 Q39.45 -25.3 42.05 -27.8 43.7 -29.3 43.7 -30.85 40.95 -34.1 35.5 -37.3 24.65 -43.65 11.05 -43.65 2.15 -43.65 -1.15 -41.2 -3.35 -38.45 -5.5 -37.85 -9.0 -35.35 -9.35 -34.6 L-12.8 -25.95 -12.9 -25.05 -13.0 -24.3 M26.65 5.8 L32.35 11.95 Q35.95 16.3 35.95 19.1 L34.6 21.65 Q29.7 23.7 24.6 24.05 L22.05 24.15 11.7 24.95 7.3 24.9 3.4 24.4 -3.25 22.1 Q-3.25 22.0 -6.6 19.9 L-10.25 17.25 -11.15 16.6 -13.3 13.3 -13.5 12.9 -14.3 10.05 -14.3 6.2 -14.35 2.35 -14.2 1.25 M7.8 24.95 L5.3 26.9 7.3 26.7 20.1 25.3 22.1 25.3 Q19.25 26.25 18.1 26.9 L16.2 28.0 37.65 27.25 40.15 27.45 41.35 27.55 32.45 30.15 Q44.05 31.0 67.65 51.35 77.15 59.55 83.65 67.0 90.4 74.65 90.4 77.6 90.4 78.75 89.55 79.8 L89.4 79.9 88.7 80.2 Q85.65 81.5 84.5 81.3 M83.1 81.35 L81.25 81.2 Q67.8 79.0 57.45 76.35 L34.15 70.15 33.45 69.95 24.5 67.65 M-55.6 135.9 L-60.75 138.1 -61.25 138.25 -65.15 123.35 -71.2 98.45 M-71.25 98.25 L-70.6 97.95 Q-49.85 88.1 -40.3 78.05 -29.85 66.95 -17.75 40.7 -26.95 51.55 -23.2 40.0 -24.05 39.9 -27.45 43.75 -30.9 47.55 -30.45 43.8 -30.0 40.0 -30.6 39.7 -31.25 39.3 -34.7 40.25 -38.15 41.15 -37.15 39.8 -36.15 38.35 -36.9 38.3 L-37.8 38.15 -39.0 38.0 -54.85 36.0 -61.05 35.2 Q-62.9 34.9 -63.35 35.65 L-64.4 37.1 M-70.35 28.7 Q-74.9 20.15 -78.95 10.9 -83.3 1.15 -82.4 -9.4 L-81.5 -17.45 -81.05 -20.35 M-81.05 -20.4 Q-80.1 -25.65 -77.95 -31.1 L-74.15 -40.35 -71.95 -45.3 M-66.2 -49.3 Q-69.65 -52.65 -61.85 -50.85 -55.55 -54.4 -50.65 -55.15 L-43.55 -56.35 -43.35 -56.4 -41.0 -57.1 -42.5 -59.0 Q-44.15 -60.9 -43.75 -60.95 -43.4 -61.05 -41.05 -59.35 -38.7 -57.65 -38.2 -57.7 -37.4 -57.9 -39.55 -63.8 L-40.3 -66.25 Q-40.8 -68.65 -38.25 -65.55 L-32.65 -59.15 -32.25 -58.75 Q-35.7 -65.95 -34.3 -66.5 L-34.0 -66.55 Q-32.2 -66.55 -23.7 -58.65 L-22.8 -57.8 -21.3 -57.25 -18.6 -57.1 -12.75 -55.85 -5.35 -53.9 M32.45 -24.3 L32.75 -24.35 M-3.85 48.85 L-5.05 53.5 M-5.05 53.6 L-5.1 53.7 -5.25 54.35 -5.35 54.65 -5.45 55.0 -6.35 58.4 -8.85 67.2 -10.7 74.4 -13.6 82.9 -20.95 105.4 -21.55 107.25 -21.85 108.0 -22.65 110.1 -28.25 123.1 -28.5 123.55 -28.85 124.2 M-4.4 54.85 L-4.1 55.0 2.0 58.45 2.95 59.0 13.35 64.65 24.85 70.85 24.25 69.05 24.05 68.75 23.55 68.0 Q23.1 67.25 23.45 67.35 L23.95 67.5 M0.65 23.75 L-0.4 31.3 -0.6 33.0 -0.85 34.6 11.45 32.75 8.0 34.85 12.85 34.6 Q23.2 34.6 42.85 47.6 L58.8 58.75 Q68.25 65.4 73.25 68.35 L73.8 69.95 73.85 71.25 73.65 71.4 72.7 71.65 68.65 71.55 34.35 61.5 M33.65 61.3 L24.45 58.2 15.65 54.8 13.95 54.05 12.85 53.55 10.5 52.55 Q6.15 50.7 -0.5 47.3 L-3.15 45.75 -3.1 45.5 -2.3 42.0 -1.7 39.0 -1.65 38.75 -1.6 38.55 -0.85 34.6 M-3.25 46.15 L-3.85 48.85 M-61.2 10.55 Q-60.6 12.95 -61.2 15.2 -61.55 16.7 -64.75 16.1 -67.35 15.8 -68.5 12.5 -69.45 9.4 -68.45 5.75 M-15.3 33.75 L-12.2 22.35 -11.15 16.6 M-15.3 33.75 L-16.2 36.4 -17.15 39.1 -17.75 40.7 M-18.8 35.8 L-17.15 39.05 -17.15 39.1 M-29.35 124.35 L-30.2 124.6 -30.95 124.8 -44.1 130.4 Q-49.7 133.25 -55.6 135.9 M-4.4 54.85 L-5.25 54.35 M-70.6 97.95 L-34.65 90.1 -31.35 108.1 -31.05 109.5 -30.95 110.05 -28.9 121.4 -28.7 122.5 -28.5 123.55" fill="none" stroke="#4a4f58" stroke-linecap="round" stroke-linejoin="miter-clip" stroke-miterlimit="3.0" stroke-width="1.2000000000000002"/>
    <path d="M-64.4 37.1 Q-65.1 37.85 -64.7 36.2 L-64.4 34.55 -64.6 34.45 -66.35 35.15 Q-68.05 35.8 -68.55 35.55 -69.05 35.3 -67.25 32.65 -68.1 32.2 -69.15 30.65 L-70.35 28.7 M-71.95 -45.3 Q-78.6 -47.3 -66.2 -49.3 M-70.65 -1.8 Q-68.0 -6.45 -65.4 -3.35 -61.8 3.2 -61.2 10.55 M-70.65 -1.8 L-70.6 -1.65 -68.45 5.75 M-70.65 -1.8 L-70.7 -1.75" fill="none" stroke="#4a4f58" stroke-linecap="round" stroke-linejoin="round" stroke-width="1.2000000000000002"/>
    <path d="M-34.25 20.1 L-36.75 19.6 -36.9 19.45 Q-39.95 17.8 -40.3 12.15" fill="none" stroke="#4a4f58" stroke-linecap="round" stroke-linejoin="miter-clip" stroke-miterlimit="3.0" stroke-width="2.0"/>
    <path d="M-33.65 12.75 Q-29.35 13.3 -29.55 17.95 -30.8 19.75 -32.5 20.1 L-34.25 20.1" fill="none" stroke="#4a4f58" stroke-linecap="round" stroke-linejoin="round" stroke-width="2.0"/>
    <path d="M-53.75 5.45 Q-55.5 5.75 -56.05 3.25 -56.25 1.65 -54.45 0.65 -53.35 3.05 -53.75 5.45" fill="none" stroke="#4a4f58" stroke-linecap="round" stroke-linejoin="miter-clip" stroke-miterlimit="3.0" stroke-width="1.0"/>
    <path d="M-70.6 -1.65 Q-67.35 1.85 -65.35 6.1 -62.45 7.7 -61.2 10.55" fill="none" stroke="#4a4f58" stroke-linecap="round" stroke-linejoin="miter-clip" stroke-miterlimit="3.0" stroke-width="0.05"/>
    <path d="M3.0 24.35 L1.45 24.8" fill="none" stroke="#231f20" stroke-linecap="butt" stroke-linejoin="miter-clip" stroke-miterlimit="4.0" stroke-width="1.0"/>
    <path d="M-62.1 14.65 L-62.0 14.7 -62.05 14.8 -62.15 14.9 -62.55 15.1 -63.1 15.3 -63.3 15.35 -63.45 15.35 -63.65 15.4 -64.2 15.4 -64.55 15.3 -64.7 15.3 -65.0 15.2 -65.1 15.1 -65.25 15.05 -65.35 15.0 -65.4 14.95 -65.5 14.9 -65.6 14.8 -65.65 14.7 -65.55 14.65 -65.4 14.7 -65.2 14.7 -64.85 14.8 -64.75 14.85 -64.45 14.85 -64.3 14.9 -63.5 14.9 -63.35 14.85 -63.05 14.85 -62.9 14.8 -62.65 14.75 -62.55 14.75 -62.45 14.7 -62.35 14.7 -62.25 14.65 -62.1 14.65 M-67.25 6.4 L-67.15 6.5 -67.15 7.05 -67.2 7.2 -67.2 7.4 -67.25 8.35 -67.3 10.55 -67.25 10.65 -67.25 11.25 -67.2 11.35 -67.2 11.7 -67.15 12.0 -67.15 12.25 -67.2 12.35 -67.3 12.3 -67.35 12.25 -67.45 12.1 -67.55 11.8 -67.65 11.65 -67.8 11.0 -67.9 10.75 -67.9 10.5 -68.0 9.95 -68.0 9.1 -67.95 8.8 -67.95 8.55 -67.75 7.55 -67.55 6.95 -67.35 6.5 -67.25 6.4 M-68.55 1.7 L-68.4 1.7 -68.3 1.75 -68.15 1.9 -68.1 2.0 -68.0 2.1 -67.7 2.7 -67.7 2.85 -67.65 3.0 -67.65 3.35 -67.8 3.35 -67.9 3.3 -68.05 3.15 -68.1 3.05 -68.2 2.95 -68.5 2.35 -68.5 2.2 -68.55 2.05 -68.55 1.7" fill="#ffffff" fill-rule="evenodd" stroke="none"/>
    <path d="M-45.9 -14.15 L-45.25 -13.8 -45.1 -13.7 -44.55 -13.4 -44.15 -13.25 -43.8 -13.05 -41.5 -12.35 -41.2 -12.35 -41.15 -12.3 -40.0 -12.3 -39.9 -12.35 -39.65 -12.3 -39.4 -12.35 -39.15 -12.35 -38.9 -12.4 -38.65 -12.4 -38.55 -12.45 -38.45 -12.45 -38.3 -12.5 -38.2 -12.5 -37.35 -12.9 -37.3 -12.9 -37.25 -12.95 -37.15 -13.0 -37.0 -13.15 -36.8 -13.3 -36.65 -13.45 -36.45 -13.6 -36.3 -13.75 -35.85 -14.05 -35.65 -14.25 -35.45 -14.4 -35.25 -14.6 -35.2 -14.7 -35.0 -14.9 -35.0 -14.95 -34.95 -15.0 -34.5 -15.7 -34.3 -16.2 -34.25 -16.3 -34.25 -16.4 -34.2 -16.45 -34.1 -16.7 -34.0 -17.1 -34.0 -16.95 -34.0 -17.25 -34.0 -17.1 -34.45 -19.05 -34.6 -19.45 -34.65 -19.55 -34.7 -19.8 -35.0 -20.55 -35.5 -21.5 -36.25 -22.55 -36.3 -22.6 -36.4 -22.8 -37.05 -23.5 -37.85 -24.1 -38.7 -24.55 -39.15 -24.7 -39.65 -24.8 -39.8 -24.85 -39.9 -24.85 -40.0 -24.9 -40.15 -24.9 -40.4 -24.95 -40.65 -24.95 -41.6 -24.95 -41.75 -24.95 -41.85 -24.9 -42.5 -24.75 -43.3 -24.35 -44.05 -23.75 -44.35 -23.35 -44.45 -23.3 -44.5 -23.2 -44.5 -23.5 -44.65 -23.0 -44.5 -23.2 -44.5 -22.95 -44.45 -22.85 -44.45 -22.6 -44.4 -22.2 -44.15 -21.2 -44.05 -21.0 -44.0 -20.8 -43.8 -20.5 -43.7 -20.3 -43.45 -20.05 -43.4 -19.95 -43.3 -19.9 -43.05 -19.65 -42.9 -19.55 -42.7 -19.45 -42.55 -19.35 -42.4 -19.3 -42.2 -19.2 -41.4 -19.0 -41.3 -18.95 -41.2 -18.95 -40.95 -18.9 Q-40.55 -18.8 -40.3 -18.5 -40.05 -18.15 -40.15 -17.75 -40.2 -17.35 -40.55 -17.1 L-41.3 -16.95 -41.5 -17.0 -41.65 -17.0 -41.8 -17.05 -42.1 -17.1 -42.35 -17.2 -42.9 -17.35 -43.95 -17.9 -44.7 -18.5 -44.8 -18.6 -44.9 -18.75 -45.1 -18.95 -45.25 -19.2 -45.45 -19.45 -45.6 -19.7 -45.7 -20.0 -45.85 -20.25 -46.05 -20.8 -46.35 -22.45 -46.35 -23.55 -46.2 -24.05 -45.9 -24.45 -45.35 -25.05 -44.3 -25.85 -43.1 -26.45 -42.45 -26.65 -42.15 -26.7 -41.95 -26.7 -41.8 -26.75 -40.5 -26.75 -40.35 -26.7 -40.2 -26.7 -39.9 -26.65 -39.75 -26.65 -39.4 -26.55 -39.25 -26.55 -38.05 -26.15 -36.9 -25.55 -35.9 -24.75 -35.05 -23.8 -35.0 -23.65 -34.9 -23.55 -34.05 -22.3 -33.55 -21.2 -33.4 -20.95 -33.0 -19.8 -32.95 -19.5 -32.45 -17.2 -32.45 -16.9 -32.75 -15.95 -32.8 -15.85 -32.8 -15.75 -32.85 -15.6 -33.15 -15.0 -33.35 -14.7 -33.5 -14.4 -33.7 -14.1 -33.8 -14.05 -33.85 -13.95 -33.95 -13.85 -34.05 -13.7 -34.95 -12.85 -35.25 -12.65 -35.5 -12.5 -35.4 -12.65 -35.55 -12.5 -35.5 -12.5 -35.6 -12.4 -35.85 -12.2 -36.1 -12.0 -36.5 -11.7 -36.55 -11.65 -36.65 -11.65 -36.9 -11.5 -37.2 -11.35 -38.1 -11.05 -38.25 -11.05 -38.75 -10.95 -39.05 -10.95 -39.2 -10.9 -39.95 -10.9 -39.85 -10.95 -40.1 -10.9 -41.05 -10.9 -41.3 -10.95 -41.4 -10.95 -41.5 -11.0 -41.75 -11.0 -42.65 -11.2 -44.35 -11.85 -45.55 -12.45 -45.7 -12.55 -45.9 -12.65 -46.65 -13.15 -46.7 -13.15 -46.75 -13.2 -47.1 -13.5 -47.25 -13.7 -47.45 -13.85 -48.7 -15.25 -49.25 -16.05 -50.2 -17.65 -50.8 -18.95 -50.85 -19.15 -51.05 -19.6 -51.35 -20.75 -51.4 -20.85 -51.4 -21.0 -51.75 -23.1 -51.55 -25.05 -50.85 -26.9 -49.65 -28.4 -48.7 -29.3 -48.6 -29.35 -48.2 -29.65 -47.0 -30.4 -45.7 -31.0 -44.8 -31.3 -42.95 -31.65 -41.1 -31.75 -37.4 -31.4 Q-37.0 -31.4 -37.1 -30.95 -37.1 -30.55 -37.55 -30.65 L-41.1 -30.9 -42.85 -30.75 -44.55 -30.4 -45.75 -29.95 -46.9 -29.35 -47.8 -28.75 -47.95 -28.6 -48.05 -28.55 -48.1 -28.45 -48.3 -28.3 -48.9 -27.7 -49.95 -26.35 -50.5 -24.8 -50.6 -23.15 -50.6 -22.75 -50.3 -21.25 -50.25 -21.15 -50.25 -21.05 -50.15 -20.6 -50.0 -20.2 -49.95 -20.0 -49.75 -19.6 -49.7 -19.4 -49.5 -19.0 -49.45 -18.8 -49.15 -18.2 -48.25 -16.75 -46.4 -14.6 -46.2 -14.45 -45.9 -14.15 -46.0 -14.2 -45.9 -14.15 M-39.3 12.1 L-39.25 12.1 Q-39.25 12.5 -39.55 12.85 -39.85 13.15 -40.25 13.15 -41.25 13.15 -41.25 12.15 L-41.3 11.9 -41.3 11.55 -41.25 11.2 -41.25 10.9 -41.2 10.7 -41.2 10.55 -40.85 9.35 -40.65 9.05 -40.6 8.9 -40.5 8.7 -40.4 8.55 -40.15 8.3 -40.1 8.2 -39.9 8.0 -39.75 7.9 -39.65 7.75 -39.0 7.3 -38.75 7.05 -38.35 6.8 -38.3 6.75 -37.65 6.4 -36.6 6.05 -36.45 6.05 -36.3 6.0 -36.15 6.0 -36.0 5.95 -33.85 5.95 -33.4 6.0 -33.15 6.0 -30.85 6.7 -28.15 8.15 -26.55 9.9 -25.85 10.85 -25.7 11.1 -25.5 11.35 -25.2 11.85 -24.95 12.4 -24.8 12.65 -24.45 13.45 -24.15 14.3 -24.1 14.6 -24.0 14.85 -23.95 15.15 -23.85 15.45 -23.55 17.15 -23.55 17.6 -23.5 17.75 -23.5 18.1 -23.55 18.4 -23.55 18.7 -23.8 19.9 -23.9 20.2 -24.05 20.45 -24.1 20.6 -24.6 21.4 -24.65 21.5 -25.05 21.95 -25.15 22.1 -26.15 23.0 -26.8 23.5 -27.75 24.2 -27.8 24.2 -28.45 24.45 -28.75 24.6 -29.05 24.7 -29.15 24.75 -29.25 24.75 -29.4 24.8 -29.7 24.95 -30.4 25.15 -30.75 25.2 -31.05 25.3 -32.45 25.5 -33.1 25.5 Q-33.3 25.6 -33.3 25.35 L-33.15 25.15 -31.5 24.9 -30.85 24.7 -30.55 24.65 -30.05 24.5 -29.9 24.4 -29.45 24.25 -29.35 24.2 -29.3 24.2 -29.2 24.15 -29.15 24.15 -29.15 24.1 -29.1 24.1 -28.95 24.05 -28.05 23.65 -28.1 23.65 -26.35 22.25 -25.7 21.6 -25.65 21.5 -25.3 21.05 -25.25 20.95 -25.15 20.85 -25.05 20.6 -24.85 20.25 -24.8 20.1 -24.7 19.9 -24.65 19.65 -24.45 18.6 -24.45 17.7 -24.5 17.55 -24.5 17.3 -24.55 17.05 -24.65 16.75 -24.85 15.7 -24.95 15.4 -25.0 15.15 -25.7 13.4 -25.85 13.15 -25.95 12.9 -26.7 11.75 -28.25 9.9 -29.1 9.2 -29.0 9.25 -29.3 9.05 -29.85 8.8 -30.0 8.7 -31.75 7.95 -32.85 7.65 -33.2 7.6 -33.4 7.6 -33.55 7.55 -34.4 7.55 -34.55 7.6 -35.45 7.6 -35.65 7.65 -35.9 7.65 -36.0 7.7 -36.1 7.7 -36.2 7.75 -36.3 7.75 -36.4 7.8 -36.55 7.8 -36.85 7.95 -36.9 8.0 -37.3 8.2 -37.35 8.2 -37.35 8.25 -37.45 8.3 -37.9 8.75 -38.05 8.85 -38.1 8.9 -38.45 9.15 -38.5 9.25 -38.6 9.3 -38.65 9.4 -38.7 9.45 -38.85 9.65 -38.9 9.7 -39.1 10.1 -39.1 10.2 -39.2 10.4 -39.2 10.5 -39.25 10.65 -39.25 10.85 -39.3 10.95 -39.3 12.1" fill="#4a4f58" fill-rule="evenodd" stroke="none"/>
    <path d="M93.3 -104.7 Q91.8 -101.9 90.9 -100.95 L88.55 -98.45 93.3 -104.7 M63.0 -71.5 Q54.7 -62.8 52.2 -61.55 L63.0 -71.5 M52.15 -60.6 L54.95 -60.5 54.35 -59.75 Q54.05 -60.3 51.75 -60.55 L52.15 -60.6 M48.95 -52.8 L49.95 -52.65 49.05 -52.25 48.95 -52.8 M47.85 -51.6 Q45.05 -50.35 42.05 -49.3 38.25 -48.0 29.0 -45.45 35.5 -47.45 47.85 -51.6 M-6.6 -36.0 L-7.2 -35.9 -7.65 -35.9 -7.85 -36.05 -6.6 -36.0 M-10.4 -72.9 Q18.0 -97.4 21.75 -99.45 L19.35 -93.45 Q20.1 -93.5 22.7 -95.9 24.15 -97.15 27.4 -100.3 L25.35 -96.0 Q35.15 -102.0 61.9 -106.95 87.65 -111.75 93.05 -109.65 93.85 -109.3 94.25 -108.45 94.85 -106.9 93.45 -104.9 91.0 -102.25 43.05 -56.95 43.7 -56.8 48.0 -57.9 L47.4 -57.35 41.2 -54.75 34.55 -52.2 39.3 -52.1 Q28.95 -47.6 15.1 -45.1 2.85 -42.8 0.1 -43.9 -6.25 -46.4 -9.9 -55.0 -14.05 -64.4 -10.4 -72.9 M76.7 -99.5 L76.65 -99.65 Q76.1 -100.1 74.8 -100.6 L75.0 -100.45 Q58.2 -99.25 41.5 -93.4 26.15 -88.25 23.4 -83.6 L25.65 -88.25 19.95 -82.9 15.0 -77.95 15.85 -79.8 6.65 -69.45 6.2 -68.95 -0.65 -61.75 -1.5 -59.95 -1.85 -57.75 Q-1.15 -55.35 0.85 -54.15 1.05 -54.0 1.75 -53.75 L2.7 -53.5 Q5.75 -53.35 25.3 -56.05 L29.95 -57.7 30.3 -57.85 30.85 -58.1 31.1 -58.25 33.65 -59.2 36.4 -60.45 41.3 -62.5 Q44.0 -63.6 45.1 -64.55 L45.45 -64.75 43.2 -65.25 42.55 -65.4 41.1 -65.55 54.9 -76.25 55.45 -76.65 55.65 -76.8 56.65 -77.6 66.5 -85.6 71.4 -90.3 71.4 -90.35 71.45 -90.35 73.95 -92.8 74.9 -93.85 76.3 -95.95 76.95 -97.2 Q77.15 -98.4 76.7 -99.5 77.05 -99.4 77.15 -98.75 77.25 -98.05 76.95 -97.2 77.25 -98.05 77.15 -98.75 77.05 -99.4 76.7 -99.5" fill="#d6eefb" fill-rule="evenodd" stroke="none"/>
    <path d="M74.9 -93.85 L73.95 -92.8 71.45 -90.35 74.9 -93.85 M56.65 -77.6 L55.65 -76.8 55.45 -76.65 54.9 -76.25 55.15 -76.45 56.65 -77.6 M45.1 -64.55 Q44.0 -63.6 41.3 -62.5 L36.4 -60.45 38.8 -61.55 Q44.3 -64.0 45.1 -64.55 M0.85 -54.15 Q-1.15 -55.35 -1.85 -57.75 L-0.55 -56.0 0.85 -54.15 M15.0 -77.95 L19.95 -82.9 25.65 -88.25 23.4 -83.6 Q26.15 -88.25 41.5 -93.4 58.2 -99.25 75.0 -100.45 L75.4 -98.6 75.4 -97.7 Q74.1 -94.3 66.75 -87.75 59.35 -81.05 50.05 -74.95 26.35 -59.15 16.85 -62.85 12.45 -64.55 12.1 -67.25 11.7 -70.3 15.0 -77.95 M55.45 -76.65 L55.15 -76.45 55.45 -76.65 M23.4 -83.6 L23.0 -82.85 23.4 -83.6" fill="#51b6e7" fill-rule="evenodd" stroke="none"/>
    <path d="M76.65 -99.65 L76.7 -99.5 Q77.15 -98.4 76.95 -97.2 L76.3 -95.95 74.9 -93.85 71.45 -90.35 71.4 -90.35 71.4 -90.3 66.5 -85.6 56.65 -77.6 55.15 -76.45 54.9 -76.25 41.1 -65.55 42.55 -65.4 43.2 -65.25 45.45 -64.75 45.1 -64.55 Q44.3 -64.0 38.8 -61.55 L36.4 -60.45 33.65 -59.2 31.1 -58.25 30.85 -58.1 30.3 -57.85 29.95 -57.7 25.3 -56.05 Q5.75 -53.35 2.7 -53.5 L1.75 -53.75 Q1.05 -54.0 0.85 -54.15 L2.7 -53.5 0.85 -54.15 -0.55 -56.0 -1.85 -57.75 -1.5 -59.95 -0.65 -61.75 6.2 -68.95 6.65 -69.45 15.85 -79.8 15.0 -77.95 Q11.7 -70.3 12.1 -67.25 12.45 -64.55 16.85 -62.85 26.35 -59.15 50.05 -74.95 59.35 -81.05 66.75 -87.75 74.1 -94.3 75.4 -97.7 L75.4 -98.6 75.0 -100.45 74.8 -100.6 Q76.1 -100.1 76.65 -99.65 L75.0 -100.45 76.65 -99.65 M6.2 -68.95 L15.0 -77.95 6.2 -68.95 M25.3 -56.05 L30.3 -57.85 25.3 -56.05" fill="#4392b9" fill-rule="evenodd" stroke="none"/>
    <path d="M88.55 -98.45 L87.5 -97.25 86.85 -96.6 81.55 -90.55 74.2 -82.6 73.65 -82.1 63.0 -71.5 52.2 -61.55 51.7 -60.6 51.75 -60.55 Q54.05 -60.3 54.35 -59.75 53.05 -58.55 47.85 -54.95 L45.95 -53.75 46.65 -53.5 46.85 -53.45 48.95 -52.8 49.05 -52.25 48.75 -52.0 47.85 -51.6 Q35.5 -47.45 29.0 -45.45 L26.35 -44.6 24.55 -44.2 19.35 -42.65 -6.5 -36.05 -6.6 -36.0 -7.85 -36.05 Q-17.35 -39.8 -22.6 -46.2 -27.85 -52.65 -25.75 -58.0 L-21.95 -62.15 -16.55 -67.35 -9.55 -74.65 -10.4 -72.9 Q-14.05 -64.4 -9.9 -55.0 -6.25 -46.4 0.1 -43.9 2.85 -42.8 15.1 -45.1 28.95 -47.6 39.3 -52.1 L34.55 -52.2 41.2 -54.75 47.4 -57.35 48.0 -57.9 Q43.7 -56.8 43.05 -56.95 91.0 -102.25 93.45 -104.9 L93.3 -104.7 88.55 -98.45 M47.85 -54.95 L45.7 -53.9 45.95 -53.75 45.7 -53.9 47.85 -54.95 M52.2 -61.55 L50.85 -60.65 51.7 -60.6 50.85 -60.65 52.2 -61.55 M-10.4 -72.9 L-16.55 -67.35 -10.4 -72.9" fill="#a4c9de" fill-rule="evenodd" stroke="none"/>
    <path d="M93.3 -104.7 Q91.8 -101.9 90.9 -100.95 L88.55 -98.45 87.5 -97.25 86.85 -96.6 81.55 -90.55 74.2 -82.6 M73.65 -82.1 L63.0 -71.5 Q54.7 -62.8 52.2 -61.55 L50.85 -60.65 51.7 -60.6 52.15 -60.6 54.95 -60.5 54.35 -59.75 Q53.05 -58.55 47.85 -54.95 L45.7 -53.9 45.95 -53.75 46.65 -53.5 46.85 -53.45 48.95 -52.8 49.95 -52.65 49.05 -52.25 48.75 -52.0 47.85 -51.6 Q45.05 -50.35 42.05 -49.3 38.25 -48.0 29.0 -45.45 L26.35 -44.6 24.55 -44.2 19.35 -42.65 Q11.25 -40.2 2.1 -37.95 -4.8 -36.25 -6.5 -36.05 L-6.6 -36.0 -7.2 -35.9 -7.65 -35.9 M-25.75 -58.0 L-21.95 -62.15 -16.55 -67.35 -10.4 -72.9 Q18.0 -97.4 21.75 -99.45 L19.35 -93.45 Q20.1 -93.5 22.7 -95.9 24.15 -97.15 27.4 -100.3 L25.35 -96.0 Q35.15 -102.0 61.9 -106.95 87.65 -111.75 93.05 -109.65 93.85 -109.3 94.25 -108.45 94.85 -106.9 93.45 -104.9 L93.3 -104.7 M76.65 -99.65 L76.7 -99.5 Q77.05 -99.4 77.15 -98.75 77.25 -98.05 76.95 -97.2 L76.3 -95.95 74.9 -93.85 73.95 -92.8 71.45 -90.35 71.4 -90.35 71.4 -90.3 66.5 -85.6 56.65 -77.6 55.65 -76.8 M54.9 -76.25 L41.1 -65.55 42.55 -65.4 43.2 -65.25 45.45 -64.75 45.1 -64.55 Q44.0 -63.6 41.3 -62.5 L36.4 -60.45 33.65 -59.2 31.1 -58.25 30.85 -58.1 30.3 -57.85 25.3 -56.05 Q5.75 -53.35 2.7 -53.5 L0.85 -54.15 Q-1.15 -55.35 -1.85 -57.75 L-1.5 -59.95 -0.65 -61.75 6.2 -68.95 15.0 -77.95 19.95 -82.9 25.65 -88.25 23.4 -83.6 Q26.15 -88.25 41.5 -93.4 58.2 -99.25 75.0 -100.45 L76.65 -99.65 M55.15 -76.45 L55.45 -76.65 M55.15 -76.45 L54.9 -76.25 M23.0 -82.85 L23.4 -83.6" fill="none" stroke="#4a4f58" stroke-linecap="round" stroke-linejoin="miter-clip" stroke-miterlimit="3.0" stroke-width="1.2000000000000002"/>
    <path d="M-130.9 -34.6 Q-128.85 -35.9 -122.35 -38.4 -115.8 -40.9 -110.65 -42.35 -91.8 -47.85 -72.35 -48.5 L-36.35 -49.75 Q-0.45 -53.0 2.7 -42.25 2.95 -41.3 2.3 -40.65 L-0.75 -37.8 -7.3 -36.75 -7.35 -36.75 -15.0 -37.2 -48.6 -34.5 Q-63.05 -33.3 -66.95 -32.15 -68.55 -31.7 -78.1 -27.85 L-114.05 -12.85 -113.25 -13.65 -114.05 -12.85 -114.15 -12.85 -113.25 -13.65 -113.2 -13.7 -97.85 -28.1 -130.9 -34.6 M-145.0 -22.05 L-145.3 -21.75 -159.2 -7.4 -154.65 -13.05 -145.0 -22.05" fill="#51b6e7" fill-rule="evenodd" stroke="none"/>
    <path d="M-130.9 -34.6 L-97.85 -28.1 -113.2 -13.7 -113.25 -13.65 Q-117.9 -12.95 -128.9 -15.0 -142.05 -17.45 -145.3 -21.75 L-145.0 -22.05 Q-136.2 -30.35 -130.9 -34.6" fill="#1e7fae" fill-rule="evenodd" stroke="none"/>
    <path d="M-145.3 -21.75 Q-142.05 -17.45 -128.9 -15.0 -117.9 -12.95 -113.25 -13.65 L-114.15 -12.85 -114.3 -12.65 -114.45 -12.5 -115.2 -11.8 -124.2 -3.4 -128.55 0.6 -159.2 -7.4 -145.3 -21.75 M-115.2 -11.8 L-114.3 -12.65 -115.2 -11.8" fill="#2e6088" fill-rule="evenodd" stroke="none"/>
    <path d="M-114.05 -12.85 L-78.1 -27.85 Q-68.55 -31.7 -66.95 -32.15 -63.05 -33.3 -48.6 -34.5 L-15.0 -37.2 -7.35 -36.75 -7.55 -36.7 -7.6 -36.7 -7.75 -36.7 -8.75 -36.55 -10.05 -36.35 -10.25 -36.35 -36.05 -33.2 -59.25 -30.55 Q-66.55 -28.4 -113.1 -7.6 L-128.45 0.6 -124.2 -3.4 -128.45 0.6 -128.55 0.6 -124.2 -3.4 -115.2 -11.8 -114.45 -12.5 -114.3 -12.65 -114.15 -12.85 -114.05 -12.85 -114.3 -12.65 -114.05 -12.85 M-128.45 0.6 L-128.55 0.65 -128.7 0.7 -128.65 0.65 -128.45 0.6" fill="#4392b9" fill-rule="evenodd" stroke="none"/>
    <path d="M-0.75 -37.8 L2.3 -40.65 Q2.95 -41.3 2.7 -42.25 -0.45 -53.0 -36.35 -49.75 L-72.35 -48.5 Q-91.8 -47.85 -110.65 -42.35 -115.8 -40.9 -122.35 -38.4 -128.85 -35.9 -130.9 -34.6 L-97.85 -28.1 -113.2 -13.7 M-130.9 -34.6 Q-136.2 -30.35 -145.0 -22.05 L-145.3 -21.75 -159.2 -7.4 -128.55 0.6 -128.45 0.6 -113.1 -7.6 Q-66.55 -28.4 -59.25 -30.55 L-36.05 -33.2 -10.25 -36.35 -10.05 -36.35 -8.75 -36.55 -7.75 -36.7 M-7.6 -36.7 L-7.55 -36.7 -7.3 -36.75" fill="none" stroke="#4a4f58" stroke-linecap="round" stroke-linejoin="round" stroke-width="1.2000000000000002"/>
    <path d="M-113.2 -13.7 L-113.25 -13.65 -114.05 -12.85 -114.3 -12.65 -115.2 -11.8 -124.2 -3.4 -128.45 0.6" fill="none" stroke="#4a4f58" stroke-linecap="round" stroke-linejoin="miter-clip" stroke-miterlimit="3.0" stroke-width="1.2000000000000002"/>
  </g>
</svg>
