<?xml version="1.0" encoding="UTF-8" standalone="no"?>
<svg xmlns:xlink="http://www.w3.org/1999/xlink" height="138.65px" width="466.15px" xmlns="http://www.w3.org/2000/svg">
  <g transform="matrix(1.0, 0.0, 0.0, 1.0, 166.75, -7.75)">
    <path d="M269.0 29.2 Q258.2 36.35 260.0 49.5 240.95 45.2 211.05 45.6 L194.55 44.15 Q187.0 45.2 179.7 46.95 153.85 55.85 144.0 82.45 L141.25 92.3 Q138.55 101.9 84.1 116.5 45.5 126.8 0.95 134.1 L-36.6 139.5 -30.6 131.15 Q-27.6 124.65 -15.3 110.65 -9.15 103.6 -0.6 94.65 -9.15 103.6 -15.3 110.65 -27.6 124.65 -30.6 131.15 -36.75 128.75 -43.4 126.9 -61.9 121.75 -83.9 121.1 -87.3 118.45 -93.9 116.45 -97.8 115.15 -104.85 114.45 -113.4 113.55 -114.1 110.8 -112.9 106.6 -119.3 105.0 -125.95 100.85 -133.0 94.75 -147.0 91.5 -159.6 90.05 L-138.85 88.4 Q-145.15 77.3 -157.5 73.2 -141.05 66.95 -123.85 67.45 L-44.85 47.0 -4.25 52.75 15.6 51.95 40.8 50.4 59.25 49.6 Q130.95 46.15 133.75 7.75 L213.5 37.1 227.6 35.8 Q252.35 29.2 269.0 29.2 M213.5 37.1 L164.1 41.45 213.5 37.1 M-104.3 80.65 Q-114.65 83.9 -123.05 88.65 -128.2 90.95 -133.0 94.75 -128.2 90.95 -123.05 88.65 -114.65 83.9 -104.3 80.65 M18.7 121.05 Q20.95 108.55 30.1 100.7 20.95 108.55 18.7 121.05 M-68.3 94.35 Q-82.9 103.7 -93.9 116.45 -82.9 103.7 -68.3 94.35 M-50.5 108.7 Q-45.2 94.55 -30.2 91.15 -45.2 94.55 -50.5 108.7" fill="#8f2a2a" fill-rule="evenodd" stroke="none"/>
    <path d="M260.0 49.5 Q275.95 52.95 284.1 59.7 M260.0 49.5 Q240.95 45.2 211.05 45.6 M-36.6 139.5 Q-38.9 142.7 -40.35 145.9 M269.0 29.2 Q291.15 29.05 298.9 40.45 M213.5 37.1 L227.6 35.8 Q252.35 29.2 269.0 29.2 M164.1 41.45 L213.5 37.1 M-30.6 131.15 L-36.6 139.5 M-0.6 94.65 Q-9.15 103.6 -15.3 110.65 -27.6 124.65 -30.6 131.15" fill="none" stroke="#373535" stroke-linecap="round" stroke-linejoin="round" stroke-width="1.0"/>
    <path d="M-133.0 94.75 Q-128.2 90.95 -123.05 88.65 -114.65 83.9 -104.3 80.65 M-93.9 116.45 Q-103.1 126.8 -109.35 138.85 M-133.0 94.75 Q-145.75 107.75 -153.15 119.6 M-93.9 116.45 Q-82.9 103.7 -68.3 94.35" fill="none" stroke="#373535" stroke-linecap="round" stroke-linejoin="miter-clip" stroke-miterlimit="3.0" stroke-width="1.0"/>
    <path d="M-123.85 67.45 Q-141.05 66.95 -157.5 73.2 -161.9 74.85 -166.25 77.0 M30.1 100.7 Q20.95 108.55 18.7 121.05 M-30.2 91.15 Q-45.2 94.55 -50.5 108.7" fill="none" stroke="#373535" stroke-linecap="round" stroke-linejoin="round" stroke-width="1.0"/>
  </g>
</svg>
