<?xml version="1.0" encoding="UTF-8" standalone="no"?>
<svg xmlns:xlink="http://www.w3.org/1999/xlink" height="155.25px" width="266.25px" xmlns="http://www.w3.org/2000/svg">
  <g transform="matrix(1.0, 0.0, 0.0, 1.0, 133.15, 77.7)">
    <path d="M85.65 -35.2 L85.6 -35.2 79.75 -39.95 79.7 -40.0 78.35 -41.0 Q60.85 -53.8 43.05 -58.55 32.3 -61.5 21.55 -61.6 L18.4 -61.55 18.05 -61.6 Q13.15 -61.35 -8.4 -57.3 L-47.2 -49.6 -50.95 -61.0 Q-24.55 -67.85 -8.4 -71.75 10.4 -76.35 15.25 -77.0 57.2 -78.35 86.8 -58.85 L93.15 -54.35 93.25 -54.45 100.6 -49.4 100.6 -49.35 100.95 -49.0 100.2 -48.2 Q99.6 -47.1 95.85 -42.95 91.75 -38.6 88.95 -36.55 L86.35 -34.65 86.2 -34.75 85.65 -35.2 86.2 -34.75 86.35 -34.65 85.85 -34.4 85.65 -35.2 M93.15 -54.35 L100.6 -49.35 93.15 -54.35 M-57.6 -9.75 Q-48.25 -3.5 -41.9 -2.45 -43.95 3.1 -46.4 8.25 L-62.55 0.0 Q-59.75 -4.75 -57.6 -9.75 M-70.55 11.15 Q-60.6 13.55 -53.35 20.6 -62.3 34.3 -74.9 44.15 L-81.3 48.8 -88.55 54.25 -81.3 48.8 -81.25 48.95 -88.4 54.4 -88.55 54.25 -88.95 54.5 -89.55 53.5 Q-90.6 52.55 -93.85 47.45 -97.35 41.95 -98.65 38.45 L-99.95 35.25 -100.1 34.7 -99.2 34.8 -99.2 34.75 -92.7 30.75 -92.65 30.7 -91.2 29.75 Q-79.0 21.15 -70.55 11.15 M-99.95 35.25 L-99.8 35.15 -99.2 34.8 -99.8 35.15 -99.95 35.25" fill="#f7f8fa" fill-rule="evenodd" stroke="none"/>
    <path d="M86.35 -34.65 L88.95 -36.55 Q91.75 -38.6 95.85 -42.95 99.6 -47.1 100.2 -48.2 L100.95 -49.0 100.6 -49.35 100.6 -49.4 105.65 -46.0 111.25 -42.6 111.05 -42.5 104.0 -34.9 95.75 -26.9 95.4 -27.1 86.35 -34.65 95.4 -27.1 85.85 -34.4 86.35 -34.65 M100.95 -49.0 Q103.4 -47.15 105.65 -45.85 L111.05 -42.5 105.65 -45.85 Q103.4 -47.15 100.95 -49.0 M-99.95 35.25 L-98.65 38.45 Q-97.35 41.95 -93.85 47.45 -90.6 52.55 -89.55 53.5 L-88.95 54.5 -88.55 54.25 -88.4 54.4 -93.35 58.05 -98.35 62.3 -98.5 62.1 -104.45 52.55 -110.55 41.7 -110.25 41.45 -100.1 34.7 -99.95 35.25 -110.25 41.45 -99.95 35.25 M-88.95 54.5 L-93.5 58.0 -98.5 62.1 -93.5 58.0 -88.95 54.5" fill="#eb9baa" fill-rule="evenodd" stroke="none"/>
    <path d="M111.05 -42.5 L111.25 -42.6 122.6 -35.45 122.55 -35.2 112.25 -24.8 105.85 -18.7 95.75 -26.9 104.0 -34.9 111.05 -42.5 122.55 -35.2 111.05 -42.5 M-110.55 41.7 L-104.45 52.55 -98.5 62.1 -109.1 70.7 -98.5 62.1 -98.35 62.3 -108.9 70.85 -109.1 70.7 -117.15 57.05 Q-121.2 50.2 -121.75 48.7 L-110.55 41.7" fill="#6393cf" fill-rule="evenodd" stroke="none"/>
    <path d="M122.6 -35.45 L126.7 -32.9 Q129.05 -31.35 130.7 -29.25 133.05 -26.3 132.4 -23.5 L132.25 -22.85 131.5 -21.25 131.35 -21.05 130.8 -20.4 130.4 -19.9 130.2 -19.75 Q128.65 -18.6 126.95 -18.95 125.4 -19.15 120.6 -21.75 L120.75 -21.55 120.55 -21.7 Q122.1 -18.8 122.45 -16.65 122.1 -18.8 120.55 -21.7 L120.75 -21.55 Q122.15 -18.8 122.45 -16.65 L122.55 -16.05 122.55 -15.5 122.55 -15.45 122.55 -15.1 122.45 -14.35 122.45 -14.15 Q122.05 -12.95 120.8 -12.35 119.05 -11.55 114.6 -12.95 113.55 -13.3 112.45 -13.8 L105.95 -18.6 105.85 -18.7 112.25 -24.8 122.55 -35.2 122.6 -35.45 M132.25 -22.85 L131.35 -21.05 132.25 -22.85 M132.4 -23.5 L132.45 -25.0 Q132.25 -27.0 130.55 -29.1 128.9 -31.1 126.4 -32.75 L124.0 -34.3 122.55 -35.2 124.0 -34.3 126.4 -32.75 Q128.9 -31.1 130.55 -29.1 132.25 -27.0 132.45 -25.0 L132.4 -23.5 M-130.95 63.25 Q-132.1 62.4 -132.4 61.0 -132.8 59.0 -130.1 55.15 -127.5 51.45 -121.75 48.7 -121.2 50.2 -117.15 57.05 L-109.1 70.7 -110.4 71.8 -112.7 73.65 Q-115.05 75.45 -117.6 76.35 -120.25 77.25 -122.35 76.8 -123.55 76.5 -124.5 75.8 L-126.15 74.3 -124.5 75.8 Q-123.55 76.5 -122.35 76.8 -120.25 77.25 -117.6 76.35 -115.05 75.45 -112.7 73.65 L-110.4 71.8 -109.1 70.7 -108.9 70.85 -112.55 73.9 Q-114.85 75.7 -117.45 76.5 -121.5 77.95 -124.35 75.95 L-126.0 74.55 -126.15 74.3 -126.75 73.55 -127.2 72.75 Q-128.0 70.9 -127.2 69.35 -126.55 67.85 -122.55 64.1 L-122.8 64.2 -122.6 64.0 -128.35 64.15 -122.6 64.0 -122.8 64.2 Q-126.05 64.6 -128.35 64.15 L-129.05 64.0 -129.55 63.8 -129.65 63.75 -130.0 63.65 -130.75 63.35 -130.95 63.25" fill="#86cef4" fill-rule="evenodd" stroke="none"/>
    <path d="M-41.9 -2.45 Q-48.25 -3.5 -57.6 -9.75 -55.85 -13.95 -54.6 -18.35 L-53.8 -21.4 -53.7 -21.75 Q-51.8 -30.05 -50.55 -38.65 L-35.55 -37.95 Q-35.7 -28.3 -36.9 -19.1 -39.0 -10.35 -41.9 -2.45 M-62.55 0.0 L-46.4 8.25 Q-49.55 14.75 -53.35 20.6 -60.6 13.55 -70.55 11.15 -66.6 6.5 -63.5 1.5 L-62.55 0.0" fill="#f5e9eb" fill-rule="evenodd" stroke="none"/>
    <path d="M-47.2 -49.6 L-8.4 -57.3 Q13.15 -61.35 18.05 -61.6 L18.4 -61.55 21.55 -61.6 Q32.3 -61.5 43.05 -58.55 60.85 -53.8 78.35 -41.0 L79.7 -40.0 79.75 -39.95 85.6 -35.2 85.65 -35.2 86.2 -34.75 86.35 -34.65 95.4 -27.1 96.1 -26.5 105.95 -18.6 112.45 -13.8 114.65 -12.9 Q119.1 -11.35 120.85 -12.3 122.1 -12.85 122.45 -14.15 L122.45 -14.35 122.55 -15.1 122.55 -15.45 122.55 -15.5 122.55 -16.05 122.45 -16.65 Q122.1 -18.8 120.55 -21.7 L120.75 -21.55 Q125.35 -19.0 127.0 -18.8 128.7 -18.45 130.05 -19.6 L130.4 -19.9 130.8 -20.4 131.35 -21.05 132.25 -22.85 132.4 -23.5 132.45 -25.0 Q132.25 -27.0 130.55 -29.1 128.9 -31.1 126.4 -32.75 L124.0 -34.3 122.55 -35.2 111.05 -42.5 105.65 -45.85 Q103.4 -47.15 100.95 -49.0 L100.6 -49.35 93.15 -54.35 86.8 -58.85 Q57.2 -78.35 15.25 -77.0 10.4 -76.35 -8.4 -71.75 -24.55 -67.85 -50.95 -61.0 M-41.9 -2.45 Q-39.0 -10.35 -36.9 -19.1 -35.7 -28.3 -35.55 -37.95 L-50.55 -38.65 Q-51.8 -30.05 -53.7 -21.75 L-53.8 -21.4 -54.6 -18.35 Q-55.85 -13.95 -57.6 -9.75 -59.75 -4.75 -62.55 0.0 L-63.5 1.5 Q-66.6 6.5 -70.55 11.15 -79.0 21.15 -91.2 29.75 L-92.65 30.7 -92.7 30.75 -99.2 34.75 -99.2 34.8 -99.8 35.15 -99.95 35.25 -110.25 41.45 -111.05 41.95 -121.9 48.7 Q-127.6 51.45 -130.2 55.2 -132.95 59.0 -132.45 61.0 -132.25 62.45 -130.95 63.25 L-130.75 63.35 -130.0 63.65 -129.65 63.75 -129.55 63.8 -129.05 64.0 -128.35 64.15 -122.6 64.0 -122.8 64.2 Q-126.7 67.75 -127.35 69.25 -128.15 70.85 -127.3 72.55 L-126.75 73.55 -126.15 74.3 -124.5 75.8 Q-123.55 76.5 -122.35 76.8 -120.25 77.25 -117.6 76.35 -115.05 75.45 -112.7 73.65 L-110.4 71.8 -109.1 70.7 -98.5 62.1 -93.5 58.0 -88.95 54.5 -88.55 54.25 -81.3 48.8 -74.9 44.15 Q-62.3 34.3 -53.35 20.6 -49.55 14.75 -46.4 8.25 -43.95 3.1 -41.9 -2.45" fill="none" stroke="#666666" stroke-linecap="round" stroke-linejoin="round" stroke-width="1.2000000000000002"/>
  </g>
</svg>
