<?xml version="1.0" encoding="UTF-8" standalone="no"?>
<svg xmlns:xlink="http://www.w3.org/1999/xlink" height="85.55px" width="163.65px" xmlns="http://www.w3.org/2000/svg">
  <g transform="matrix(1.0, 0.0, 0.0, 1.0, 81.8, 42.9)">
    <path d="M-69.95 -18.65 Q-57.3 -17.5 -45.35 -20.55 -41.1 -21.4 -41.6 -25.1 -35.5 -23.9 -28.4 -24.15 -16.7 -22.75 -10.55 -17.4 8.25 4.95 27.45 13.3 L30.4 14.5 38.05 14.7 38.15 14.75 38.8 14.75 38.9 14.8 38.8 14.75 38.15 14.75 38.8 14.2 38.9 14.8 39.45 18.2 Q40.0 21.85 39.65 28.4 39.45 34.45 38.95 35.8 L38.9 36.95 38.5 36.9 29.5 35.75 38.5 36.9 38.4 37.15 29.5 35.95 29.5 35.75 25.15 35.35 Q10.75 31.1 1.15 19.55 -4.5 14.9 -16.15 2.7 -24.25 -6.35 -30.25 -8.15 L-35.2 -6.3 Q-55.55 -8.6 -69.95 -18.65" fill="#f7f8fa" fill-rule="evenodd" stroke="none"/>
    <path d="M-41.6 -25.1 Q-41.1 -21.4 -45.35 -20.55 -57.3 -17.5 -69.95 -18.65 -76.15 -23.0 -81.2 -28.75 -81.45 -41.2 -66.95 -42.3 -58.9 -29.45 -44.1 -25.65 L-41.6 -25.1 M-35.2 -6.3 L-30.25 -8.15 Q-24.25 -6.35 -16.15 2.7 -24.05 -4.2 -35.2 -6.3" fill="#f5e9eb" fill-rule="evenodd" stroke="none"/>
    <path d="M81.0 35.8 L81.0 36.05 80.3 38.1 Q78.8 41.2 74.6 41.95 L69.05 42.15 64.35 41.3 64.4 41.05 Q64.7 33.8 64.65 25.25 64.85 17.3 64.55 15.65 70.9 15.25 75.0 17.15 79.25 19.15 79.85 21.1 80.35 22.5 79.7 23.75 L79.6 23.95 79.1 24.55 78.9 24.85 78.85 24.95 78.45 25.35 77.5 26.2 Q75.7 27.45 72.9 28.5 L73.15 28.6 72.9 28.5 Q75.7 27.45 77.5 26.2 75.75 27.5 73.15 28.6 L72.85 28.65 Q78.2 29.95 79.5 30.9 81.0 31.9 81.2 33.9 L81.2 34.8 81.0 35.8 80.4 37.85 Q79.85 39.0 78.95 39.8 77.4 41.25 74.65 41.8 71.95 42.25 69.05 41.9 L66.15 41.35 64.4 41.05 66.15 41.35 69.05 41.9 Q71.95 42.25 74.65 41.8 77.4 41.25 78.95 39.8 79.85 39.0 80.4 37.85 L81.0 35.8" fill="#86cef4" fill-rule="evenodd" stroke="none"/>
    <path d="M38.5 36.9 L38.9 36.95 38.95 35.8 Q39.45 34.45 39.65 28.4 40.0 21.85 39.45 18.2 L38.9 14.8 38.8 14.2 50.95 15.1 51.4 15.15 51.4 27.55 51.0 38.85 50.95 39.1 44.5 37.85 38.4 37.15 38.5 36.9 M38.9 36.95 L44.6 37.75 51.0 38.85 44.6 37.75 38.9 36.95 M38.9 14.8 L50.95 15.1 38.9 14.8" fill="#eb9baa" fill-rule="evenodd" stroke="none"/>
    <path d="M64.35 41.3 L50.95 39.1 51.0 38.85 51.4 27.55 51.4 15.15 64.55 15.65 Q64.85 17.3 64.65 25.25 64.7 33.8 64.4 41.05 L51.0 38.85 64.4 41.05 64.35 41.3" fill="#6393cf" fill-rule="evenodd" stroke="none"/>
    <path d="M-69.95 -18.65 Q-55.55 -8.6 -35.2 -6.3 -24.05 -4.2 -16.15 2.7 -4.5 14.9 1.15 19.55 10.75 31.1 25.15 35.35 L29.5 35.75 38.5 36.9 38.9 36.95 44.6 37.75 51.0 38.85 64.4 41.05 66.15 41.35 69.05 41.9 Q71.95 42.25 74.65 41.8 77.4 41.25 78.95 39.8 79.85 39.0 80.4 37.85 L81.0 35.8 81.2 34.8 81.2 33.65 Q81.1 31.75 79.6 30.75 78.3 29.8 73.15 28.6 L72.9 28.5 Q75.7 27.45 77.5 26.2 L78.45 25.35 78.85 24.95 78.9 24.85 79.1 24.55 79.6 23.95 79.7 23.75 Q80.45 22.45 79.9 21.05 79.4 19.1 75.1 17.1 71.0 15.2 64.7 15.6 L51.9 15.1 50.95 15.1 38.9 14.8 38.8 14.75 38.15 14.75 38.05 14.7 30.4 14.5 27.45 13.3 Q8.25 4.95 -10.55 -17.4 -16.7 -22.75 -28.4 -24.15 -35.5 -23.9 -41.6 -25.1 L-44.1 -25.65 Q-58.9 -29.45 -66.95 -42.3 -81.45 -41.2 -81.2 -28.75 -76.15 -23.0 -69.95 -18.65 M-30.25 -8.15 Q-24.25 -6.35 -16.15 2.7" fill="none" stroke="#666666" stroke-linecap="round" stroke-linejoin="round" stroke-width="1.2000000000000002"/>
  </g>
</svg>
