<?xml version="1.0" encoding="UTF-8" standalone="no"?>
<svg xmlns:xlink="http://www.w3.org/1999/xlink" height="15.6px" width="18.5px" xmlns="http://www.w3.org/2000/svg">
  <g transform="matrix(1.0, 0.0, 0.0, 1.0, 9.0, 10.65)">
    <path d="M-4.05 -10.05 L-4.05 -10.5 -2.95 -9.75 Q-2.6 -9.4 -2.9 -8.85 L-2.9 -8.65 Q-3.05 -6.25 -2.15 -4.1 L-0.3 -2.4 Q2.3 -0.65 8.6 2.25 9.1 2.95 9.0 4.0 L8.9 4.35 Q8.5 4.85 7.45 4.85 L6.5 4.75 4.55 3.8 Q1.6 2.15 -2.55 0.7 -4.6 -0.65 -4.9 -1.9 -3.8 -3.4 -4.3 -3.95 L-4.15 -4.35 Q-4.9 -6.35 -4.35 -8.65 L-4.35 -8.7 -4.05 -10.05 M8.9 4.35 Q5.1 1.95 2.45 1.1 -0.25 0.25 -1.9 -1.2 -3.2 -2.3 -3.9 -3.75 L-4.15 -4.35 -3.9 -3.75 Q-3.2 -2.3 -1.9 -1.2 -0.25 0.25 2.45 1.1 5.1 1.95 8.9 4.35 M-3.9 -3.75 L-4.3 -3.95 -3.9 -3.75" fill="#e79e98" fill-rule="evenodd" stroke="none"/>
    <path d="M-8.4 -3.75 Q-5.7 -6.05 -4.35 -8.65 -4.9 -6.35 -4.15 -4.35 L-4.3 -3.95 Q-3.8 -3.4 -4.9 -1.9 -7.5 -2.1 -8.4 -3.75 L-4.3 -3.95 -8.4 -3.75" fill="#be5250" fill-rule="evenodd" stroke="none"/>
    <path d="M-4.9 -1.9 Q-6.55 -1.95 -8.75 -0.25 L-8.7 -1.05 -8.4 -3.75 Q-7.5 -2.1 -4.9 -1.9" fill="#f5e9eb" fill-rule="evenodd" stroke="none"/>
    <path d="M-4.35 -8.65 L-4.35 -8.7 -4.05 -10.05 M-4.15 -4.35 L-3.9 -3.75 Q-3.2 -2.3 -1.9 -1.2 -0.25 0.25 2.45 1.1 5.1 1.95 8.9 4.35 M-4.3 -3.95 L-8.4 -3.75 M-4.15 -4.35 Q-4.9 -6.35 -4.35 -8.65 M-4.3 -3.95 L-3.9 -3.75" fill="none" stroke="#666666" stroke-linecap="round" stroke-linejoin="miter-clip" stroke-miterlimit="3.0" stroke-width="1.2000000000000002"/>
    <path d="M-4.3 -3.95 L-4.15 -4.35" fill="none" stroke="#666666" stroke-linecap="round" stroke-linejoin="miter-clip" stroke-miterlimit="3.0" stroke-width="0.05"/>
  </g>
</svg>
