<?xml version="1.0" encoding="UTF-8" standalone="no"?>
<svg xmlns:xlink="http://www.w3.org/1999/xlink" height="15.55px" width="80.4px" xmlns="http://www.w3.org/2000/svg">
  <g transform="matrix(1.0, 0.0, 0.0, 1.0, -11.9, -56.05)">
    <path d="M66.9 71.1 Q73.3 64.05 81.45 59.95 85.8 58.55 90.5 64.2 91.8 66.3 91.8 69.1 L66.9 71.1 M12.4 61.2 Q17.1 57.25 26.45 56.55 33.95 56.6 42.7 61.2 25.15 66.6 12.4 61.2" fill="#8f2a2a" fill-rule="evenodd" stroke="none"/>
    <path d="M66.9 71.1 Q73.3 64.05 81.45 59.95 85.8 58.55 90.5 64.2 91.8 66.3 91.8 69.1 M42.7 61.2 Q33.95 56.6 26.45 56.55 17.1 57.25 12.4 61.2" fill="none" stroke="#373535" stroke-linecap="round" stroke-linejoin="round" stroke-width="1.0"/>
  </g>
</svg>
