<?xml version="1.0" encoding="UTF-8" standalone="no"?>
<svg xmlns:xlink="http://www.w3.org/1999/xlink" height="324.0px" width="301.45px" xmlns="http://www.w3.org/2000/svg">
  <g transform="matrix(1.0, 0.0, 0.0, 1.0, 60.15, 149.0)">
    <path d="M-21.8 -119.2 L-21.2 -119.45 -22.6 -117.7 -22.95 -117.2 -23.1 -116.95 Q-49.9 -59.2 11.6 -55.05 L15.3 -54.8 15.25 -54.9 19.35 -54.6 21.7 -54.45 Q27.65 -54.2 34.1 -54.35 92.65 -57.75 150.05 -76.3 L150.05 -55.05 149.5 -54.85 122.95 -46.0 Q85.35 -35.25 44.6 -30.45 L30.65 -29.0 17.65 -28.3 17.65 -28.6 4.25 -28.05 Q-14.0 -27.7 -31.45 -33.75 -48.85 -39.8 -54.65 -59.25 -68.3 -95.85 -44.1 -134.15 L-44.3 -134.3 -38.65 -142.35 -38.3 -142.8 -38.3 -141.65 -39.45 -140.2 -39.15 -139.15 -38.3 -138.45 -38.3 -114.05 Q-32.25 -115.15 -26.65 -117.2 -26.2 -116.25 -24.9 -116.25 -24.05 -116.25 -22.45 -118.35 L-21.8 -119.2 M152.55 174.4 L145.95 155.3 Q271.75 35.25 165.7 -50.55 L165.7 -72.75 Q322.05 20.0 152.55 174.4" fill="#f7f8fa" fill-rule="evenodd" stroke="none"/>
    <path d="M-21.8 -119.2 L-22.45 -118.35 Q-24.05 -116.25 -24.9 -116.25 -26.2 -116.25 -26.65 -117.2 -32.25 -115.15 -38.3 -114.05 L-38.3 -138.45 -39.15 -139.15 -39.45 -140.2 -38.3 -141.65 -34.95 -145.85 -33.0 -145.7 -30.95 -145.7 -30.4 -145.55 -29.15 -145.55 -30.15 -133.95 -28.95 -122.4 -24.2 -122.7 Q-22.0 -122.7 -21.25 -121.75 L-21.0 -120.75 Q-21.0 -120.4 -21.8 -119.2 M-30.0 -149.0 L-29.9 -148.95 -30.05 -148.95 -30.0 -149.0 M-33.75 -146.5 L-33.55 -146.6 -33.45 -146.5 -33.75 -146.5" fill="#f5e9eb" fill-rule="evenodd" stroke="none"/>
    <path d="M-8.8 -58.6 Q-60.7 -67.95 -57.45 -103.55 -52.9 -122.65 -38.65 -142.15 L-38.3 -142.65 -38.3 -114.05 Q-29.7 -115.65 -21.95 -119.15 L-21.3 -119.4 -22.95 -117.2 -23.1 -116.95 Q-44.7 -70.3 -8.8 -58.6" fill="#f5e9eb" fill-rule="evenodd" stroke="none"/>
    <path d="M150.05 -76.3 Q92.65 -57.75 34.1 -54.35 L11.6 -55.05 Q-0.25 -55.85 -8.8 -58.6 -60.7 -67.95 -57.45 -103.55 -62.8 -81.1 -54.65 -59.25 -48.85 -39.8 -31.45 -33.75 -14.0 -27.7 4.25 -28.05 22.45 -28.45 58.35 -31.6 94.2 -34.8 150.05 -55.05 M165.7 -50.3 Q271.7 35.3 145.95 155.3 M165.7 -72.85 Q322.05 19.95 152.55 174.4 M-21.3 -119.4 L-22.95 -117.2 -23.1 -116.95 Q-44.7 -70.3 -8.8 -58.6 M-38.3 -142.65 L-38.65 -142.15 Q-52.9 -122.65 -57.45 -103.55 M-35.1 -145.85 L-38.3 -142.65" fill="none" stroke="#666666" stroke-linecap="round" stroke-linejoin="round" stroke-width="1.2000000000000002"/>
  </g>
</svg>
