<?xml version="1.0" encoding="UTF-8" standalone="no"?>
<svg xmlns:xlink="http://www.w3.org/1999/xlink" height="132.35px" width="135.8px" xmlns="http://www.w3.org/2000/svg">
  <g transform="matrix(1.0, 0.0, 0.0, 1.0, 67.7, 66.5)">
    <path d="M53.2 -62.6 L53.25 -62.4 53.45 -60.65 Q53.5 -56.8 51.1 -51.6 L50.95 -51.3 Q57.45 -55.2 59.8 -55.65 62.15 -56.15 64.15 -54.45 L65.9 -52.45 66.1 -52.15 67.25 -49.5 Q68.75 -45.1 65.2 -40.25 63.0 -37.15 59.7 -34.7 L54.2 -31.05 54.0 -31.3 39.45 -46.65 Q32.05 -54.35 30.35 -55.6 36.35 -62.2 42.3 -64.35 48.45 -66.55 50.85 -65.35 52.6 -64.45 53.2 -62.6 M65.9 -52.45 L67.1 -49.8 Q67.6 -48.25 67.5 -46.6 67.3 -43.7 65.0 -40.5 62.75 -37.4 59.5 -35.0 L56.1 -32.65 54.0 -31.3 56.1 -32.65 59.5 -35.0 Q62.75 -37.4 65.0 -40.5 67.3 -43.7 67.5 -46.6 67.6 -48.25 67.1 -49.8 L65.9 -52.45 M53.25 -62.4 L53.4 -60.8 Q53.4 -56.9 50.85 -51.45 L51.1 -51.6 50.85 -51.45 Q53.4 -56.9 53.4 -60.8 L53.25 -62.4" fill="#86cef4" fill-rule="evenodd" stroke="none"/>
    <path d="M38.65 -20.1 L31.05 -14.9 Q27.75 -12.75 24.15 -9.7 L24.05 -9.95 24.6 -10.4 Q27.9 -13.15 30.95 -15.15 L38.5 -20.25 30.95 -15.15 Q27.9 -13.15 24.6 -10.4 L23.45 -11.5 Q22.6 -13.25 17.25 -19.3 11.45 -25.85 7.4 -28.8 L3.65 -31.55 3.05 -32.0 16.1 -42.9 16.55 -43.3 Q23.45 -36.7 28.25 -31.5 L38.5 -20.25 38.65 -20.1 M16.1 -42.9 L3.65 -31.55 16.1 -42.9" fill="#eb9baa" fill-rule="evenodd" stroke="none"/>
    <path d="M24.15 -9.7 L14.0 -2.2 10.95 0.0 10.35 0.45 10.25 0.35 6.75 2.85 5.4 3.9 1.95 6.55 Q-17.7 21.8 -35.05 39.1 -20.7 23.4 1.9 6.5 L5.35 3.9 10.25 0.3 Q10.6 0.0 10.85 -0.15 L13.85 -2.35 14.0 -2.2 13.85 -2.35 24.05 -9.95 24.15 -9.7 M-63.55 30.0 L-63.5 29.7 -63.25 29.3 -60.05 25.05 -55.75 19.85 -55.6 19.7 -59.2 24.1 -59.45 24.4 -63.2 29.55 -63.55 30.0 M-13.9 -16.15 L-13.65 -16.5 -7.8 -21.3 -13.9 -16.15 M2.85 -30.8 Q3.3 -31.6 3.05 -32.0 L3.65 -31.55 3.5 -31.4 3.65 -31.55 7.4 -28.8 Q11.45 -25.85 17.25 -19.3 22.6 -13.25 23.45 -11.5 L3.5 -31.4 2.85 -30.8" fill="#f7f8fa" fill-rule="evenodd" stroke="none"/>
    <path d="M-35.05 39.1 L-35.15 39.25 -35.6 39.7 -35.8 39.95 -36.15 40.3 -36.7 40.9 -37.25 41.5 -38.35 42.75 -39.95 44.65 -45.75 52.0 -46.1 52.5 -46.25 52.75 -47.15 54.75 Q-57.55 60.05 -67.7 65.85 L-63.55 30.0 -63.2 29.55 -59.45 24.4 -59.2 24.1 -55.6 19.7 Q-43.35 5.15 -27.6 -6.7 L-18.4 -13.2 -17.85 -13.6 -14.2 -15.95 -13.95 -16.15 -13.9 -16.15 -7.8 -21.3 -5.25 -23.5 2.8 -30.75 2.85 -30.8 3.5 -31.4 23.45 -11.5 24.6 -10.4 24.05 -9.95 13.85 -2.35 10.85 -0.15 Q10.6 0.0 10.25 0.3 L5.35 3.9 1.9 6.5 Q-20.7 23.4 -35.05 39.1 M-5.25 -23.5 L13.85 -2.35 -5.25 -23.5" fill="#f5e9eb" fill-rule="evenodd" stroke="none"/>
    <path d="M54.2 -31.05 L38.65 -20.1 38.5 -20.25 28.25 -31.5 Q23.45 -36.7 16.55 -43.3 L30.35 -55.6 Q32.05 -54.35 39.45 -46.65 L54.0 -31.3 38.5 -20.3 38.5 -20.25 38.5 -20.3 54.0 -31.3 54.2 -31.05" fill="#6393cf" fill-rule="evenodd" stroke="none"/>
    <path d="M53.2 -62.6 L53.25 -62.4 53.4 -60.8 Q53.4 -56.9 50.85 -51.45 L51.1 -51.6 Q57.4 -55.45 59.7 -55.9 62.1 -56.3 64.0 -54.65 L65.9 -52.45 67.1 -49.8 Q67.6 -48.25 67.5 -46.6 67.3 -43.7 65.0 -40.5 62.75 -37.4 59.5 -35.0 L56.1 -32.65 54.0 -31.3 38.5 -20.3 38.5 -20.25 30.95 -15.15 Q27.9 -13.15 24.6 -10.4 L24.05 -9.95 13.85 -2.35 10.85 -0.15 Q10.6 0.0 10.25 0.3 L5.35 3.9 1.9 6.5 Q-20.7 23.4 -35.05 39.1 M-35.15 39.25 L-35.8 39.95 M-36.15 40.3 L-36.7 40.9 -37.25 41.5 -38.35 42.75 -39.95 44.65 -45.75 52.0 -46.1 52.5 -46.25 52.75 -47.15 54.75 M-55.6 19.7 Q-43.35 5.15 -27.6 -6.7 L-18.4 -13.2 -17.85 -13.6 -14.2 -15.95 -13.95 -16.15 -13.9 -16.15 -7.8 -21.3 -5.25 -23.5 2.8 -30.75 2.85 -30.8 3.5 -31.4 3.65 -31.55 16.1 -42.9 17.05 -43.8 30.4 -55.75 Q36.4 -62.35 42.3 -64.45 48.5 -66.75 50.9 -65.45 52.65 -64.6 53.2 -62.6 M-63.55 30.0 L-63.2 29.55 -59.45 24.4 -59.2 24.1 -55.6 19.7" fill="none" stroke="#666666" stroke-linecap="round" stroke-linejoin="round" stroke-width="1.2000000000000002"/>
  </g>
</svg>
