<?xml version="1.0" encoding="UTF-8" standalone="no"?>
<svg xmlns:xlink="http://www.w3.org/1999/xlink" height="114.3px" width="188.05px" xmlns="http://www.w3.org/2000/svg">
  <g transform="matrix(1.0, 0.0, 0.0, 1.0, 44.9, 62.6)">
    <path d="M110.15 13.5 Q117.05 16.0 123.6 18.85 L134.85 24.0 141.6 28.05 Q142.45 28.7 142.55 30.2 142.6 31.55 142.2 32.05 141.3 33.15 136.9 35.15 136.3 35.35 135.75 35.7 136.3 35.35 136.9 35.15 141.3 33.15 142.2 32.05 142.6 31.55 142.55 30.2 142.45 28.7 141.6 28.05 L134.85 24.0 138.35 25.6 141.8 27.8 Q142.3 28.15 142.65 29.7 143.25 31.3 142.45 32.2 L141.95 32.6 139.0 34.35 136.0 35.75 135.75 35.7 127.8 31.25 Q119.5 26.65 113.45 22.4 108.6 19.05 105.45 16.2 L98.8 10.15 Q101.9 10.85 105.95 12.1 101.9 10.85 98.8 10.15 L98.45 9.8 99.7 10.05 105.95 12.1 109.7 13.35 110.15 13.5" fill="#f7bec4" fill-rule="evenodd" stroke="none"/>
    <path d="M98.8 10.15 L105.45 16.2 Q108.6 19.05 113.45 22.4 119.5 26.65 127.8 31.25 L135.75 35.7 136.0 35.75 129.6 38.05 122.3 40.0 121.4 39.95 120.55 40.0 Q126.1 39.15 131.75 37.2 L135.75 35.7 131.75 37.2 Q126.1 39.15 120.55 40.0 L118.05 40.2 118.3 40.25 121.3 41.25 116.85 40.4 118.3 40.25 116.85 40.4 121.3 41.25 121.75 41.4 122.3 41.55 122.45 42.2 122.35 42.7 122.0 42.85 122.1 42.25 121.75 41.4 122.1 42.25 122.0 42.85 118.65 43.9 117.15 44.4 115.25 45.0 112.25 45.5 95.7 46.8 94.95 46.7 94.7 46.45 107.35 46.1 116.7 44.45 117.15 44.4 116.7 44.45 107.35 46.1 94.7 46.45 86.75 40.1 Q83.7 37.55 78.7 32.45 L79.0 32.45 89.05 32.1 Q94.1 31.45 98.4 30.05 L101.2 29.15 101.65 29.0 102.6 28.55 102.65 28.3 Q93.9 22.55 85.7 20.5 80.8 19.25 71.55 18.7 L68.4 8.25 Q70.9 8.05 73.4 8.15 L87.05 8.7 87.25 8.7 87.7 8.75 88.7 8.85 93.0 9.25 95.6 9.55 96.6 9.6 97.0 9.45 98.45 9.8 98.8 10.15 95.6 9.55 98.8 10.15 M116.85 40.4 L112.7 40.65 116.85 40.4" fill="#ed99ac" fill-rule="evenodd" stroke="none"/>
    <path d="M71.55 18.7 Q80.8 19.25 85.7 20.5 93.9 22.55 102.65 28.3 L102.6 28.55 101.65 29.0 101.2 29.15 98.4 30.05 98.05 30.0 102.4 28.45 Q81.3 13.75 47.95 21.9 L47.05 22.4 46.3 22.95 Q45.8 23.45 46.45 24.0 L49.15 25.0 48.85 25.0 47.65 24.8 46.2 24.15 Q45.8 23.95 45.8 23.55 45.7 23.15 46.0 22.95 L47.4 21.95 Q48.3 21.45 50.4 21.05 L53.7 20.35 61.75 19.2 71.55 18.7 M49.15 25.0 L46.45 24.0 Q45.8 23.45 46.3 22.95 L47.05 22.4 47.95 21.9 Q81.3 13.75 102.4 28.45 L98.05 30.0 Q85.1 25.35 71.0 24.55 65.75 24.3 59.35 24.5 L49.15 25.0" fill="#486491" fill-rule="evenodd" stroke="none"/>
    <path d="M98.4 30.05 Q94.1 31.45 89.05 32.1 L79.0 32.45 78.7 32.45 77.95 32.4 Q66.0 31.75 52.45 26.5 L48.85 25.0 49.15 25.0 59.35 24.5 Q65.75 24.3 71.0 24.55 85.1 25.35 98.05 30.0 L98.4 30.05 M49.15 25.0 L57.8 28.15 Q65.95 30.9 73.7 31.75 86.75 33.3 98.05 30.0 86.75 33.3 73.7 31.75 65.95 30.9 57.8 28.15 L49.15 25.0" fill="#5d7caf" fill-rule="evenodd" stroke="none"/>
    <path d="M94.95 46.7 L94.6 46.65 83.9 45.65 Q76.3 44.25 68.0 41.25 58.15 37.7 50.6 33.15 L49.2 32.0 Q56.1 36.25 65.15 39.9 76.8 44.55 86.3 45.75 L94.7 46.45 86.3 45.75 Q76.8 44.55 65.15 39.9 56.1 36.25 49.2 32.0 L49.05 31.85 49.05 31.9 49.1 32.15 Q48.8 31.7 48.4 31.75 L48.2 31.75 47.15 30.7 Q45.4 28.85 44.8 28.65 L43.65 28.2 Q42.5 27.65 40.4 26.05 L40.2 25.85 45.25 12.05 45.3 11.85 51.25 10.4 51.3 10.55 53.4 10.25 66.5 8.45 68.4 8.25 71.55 18.7 61.75 19.2 53.7 20.35 50.4 21.05 Q48.3 21.45 47.4 21.95 L46.0 22.95 Q45.7 23.15 45.8 23.55 45.8 23.95 46.2 24.15 L47.65 24.8 48.85 25.0 52.45 26.5 Q66.0 31.75 77.95 32.4 L78.7 32.45 Q83.7 37.55 86.75 40.1 L94.7 46.45 94.95 46.7 M47.15 30.7 L47.45 30.9 49.05 31.9 47.45 30.9 47.15 30.7 M45.25 12.05 L53.4 10.25 45.25 12.05" fill="#dd7e8f" fill-rule="evenodd" stroke="none"/>
    <path d="M134.85 24.0 Q127.25 19.8 116.35 15.7 L110.15 13.5 M109.7 13.35 L105.95 12.1 Q101.9 10.85 98.8 10.15 L95.6 9.55 94.4 9.35 93.0 9.25 88.7 8.85 87.25 8.7 87.05 8.7 84.0 8.45 Q75.3 7.85 70.15 8.1 L59.6 9.15 53.4 10.25 45.25 12.05 M135.75 35.7 Q136.3 35.35 136.9 35.15 141.3 33.15 142.2 32.05 142.6 31.55 142.55 30.2 142.45 28.7 141.6 28.05 L134.85 24.0 M120.55 40.0 L118.3 40.25 116.85 40.4 121.3 41.25 121.7 41.35 121.75 41.4 122.1 42.25 122.0 42.85 121.95 42.9 121.6 43.25 117.15 44.4 116.7 44.45 107.35 46.1 94.7 46.45 86.3 45.75 Q76.8 44.55 65.15 39.9 56.1 36.25 49.2 32.0 L49.05 31.9 47.45 30.9 47.15 30.7 M135.75 35.7 L131.75 37.2 Q126.1 39.15 120.55 40.0 M98.05 30.0 Q86.75 33.3 73.7 31.75 65.95 30.9 57.8 28.15 L49.15 25.0 46.45 24.0 Q45.8 23.45 46.3 22.95 L47.05 22.4 47.95 21.9 Q81.3 13.75 102.4 28.45 L98.05 30.0 M112.7 40.65 L116.85 40.4" fill="none" stroke="#666666" stroke-linecap="round" stroke-linejoin="round" stroke-width="1.2000000000000002"/>
    <path d="M5.3 -48.9 L4.0 -50.1 3.65 -50.4 4.0 -50.4 9.95 -50.75 10.15 -50.75 13.6 -50.65 15.65 -50.45 16.9 -50.35 17.65 -50.45 17.85 -50.45 22.5 -49.75 Q21.7 -51.6 21.35 -53.05 L21.3 -53.7 Q20.85 -57.65 21.95 -61.95 L23.95 -61.4 25.1 -60.6 26.8 -59.25 Q27.9 -58.05 28.75 -56.2 L28.85 -55.55 29.2 -54.25 30.55 -47.6 30.6 -46.55 30.6 -45.9 33.05 -43.4 Q34.85 -41.25 36.25 -38.95 L39.6 -34.15 40.55 -32.5 41.65 -29.65 Q47.9 -16.8 48.1 -3.6 L47.75 -3.6 46.65 -3.65 41.65 -3.55 40.3 -3.45 37.2 -3.1 31.55 -1.95 Q31.2 -10.0 28.55 -17.5 L22.45 -29.6 19.55 -33.6 Q16.8 -39.1 12.3 -43.15 L5.3 -48.9 M30.4 -42.95 L30.6 -45.3 30.6 -45.9 30.6 -45.3 30.4 -42.95 M22.5 -49.75 L24.55 -45.65 Q22.9 -47.5 20.65 -48.8 18.6 -49.85 16.7 -50.15 L13.8 -50.25 16.7 -50.15 Q18.6 -49.85 20.65 -48.8 22.9 -47.5 24.55 -45.65 L22.5 -49.75 M19.0 -40.6 L18.35 -41.15 17.55 -41.9 15.7 -44.3 Q14.3 -46.35 13.65 -48.25 L13.35 -50.1 13.65 -48.25 Q14.3 -46.35 15.7 -44.3 L17.55 -41.9 18.35 -41.15 19.0 -40.6" fill="#dd7e8f" fill-rule="evenodd" stroke="none"/>
    <path d="M-24.1 -41.75 Q-32.75 -44.0 -18.45 -46.25 -11.75 -49.45 -2.95 -50.2 L1.35 -50.4 3.3 -50.4 4.05 -49.85 5.3 -48.9 8.05 -46.55 9.45 -45.3 12.15 -42.65 14.75 -39.9 17.1 -37.0 19.3 -33.95 19.55 -33.6 19.55 -33.55 19.55 -33.6 19.6 -33.5 19.55 -33.6 19.9 -32.85 19.7 -33.3 19.6 -33.5 Q23.75 -20.0 7.8 -7.95 L7.5 -7.75 4.8 -6.05 4.75 -6.0 3.3 -5.15 3.15 -5.15 5.95 -4.4 10.4 -3.0 Q16.5 -1.05 20.9 2.85 L21.5 3.4 21.9 3.85 22.05 4.0 22.35 4.35 Q23.9 6.2 24.5 8.55 L24.6 9.9 Q24.75 15.25 21.3 20.1 10.7 27.25 6.95 24.85 8.8 12.9 2.4 9.3 L-3.85 5.7 Q-0.9 28.0 -22.1 12.25 L-23.65 9.55 Q-31.1 7.6 -36.55 -0.3 L-36.6 -0.55 -36.65 -0.9 -36.75 -4.05 -35.7 -11.2 Q-35.05 -15.8 -39.3 -20.8 L-39.5 -21.0 -39.55 -21.05 -39.75 -21.3 -37.8 -24.5 -36.35 -26.7 -35.4 -28.0 -34.05 -29.8 -33.7 -30.2 -32.6 -31.45 -32.45 -31.7 -32.4 -31.75 -26.8 -38.45 Q-33.95 -39.25 -29.0 -40.35 L-24.25 -41.55 -23.9 -41.7 -24.1 -41.75 M31.55 -1.95 L37.2 -3.1 40.3 -3.45 41.65 -3.55 46.65 -3.65 47.75 -3.6 48.1 -3.6 48.8 -3.55 59.65 -1.8 64.35 -0.35 66.4 0.4 66.9 0.6 67.15 0.7 67.7 1.0 67.95 1.1 Q71.7 3.2 69.95 6.8 L64.5 12.65 62.35 14.55 Q60.3 13.35 58.25 12.4 L57.75 12.2 52.95 10.45 52.6 10.35 51.2 9.9 45.65 8.9 45.6 8.9 44.5 8.75 Q41.65 8.55 38.8 8.7 L37.2 8.85 31.35 9.9 29.35 10.5 29.35 10.9 28.95 11.3 28.5 9.9 Q27.55 6.95 27.25 3.85 L27.3 3.4 Q27.55 0.15 31.6 -1.75 L31.55 -1.95 31.6 -1.75 37.2 -2.95 40.3 -3.35 41.65 -3.45 46.65 -3.65 41.65 -3.45 40.3 -3.35 37.2 -2.95 31.6 -1.75 Q27.55 0.15 27.3 3.4 L27.25 3.85 Q27.55 6.95 28.5 9.9 L28.95 11.3 28.95 11.55 28.7 11.4 28.25 9.9 27.5 7.05 27.0 3.8 27.05 3.4 Q27.3 0.0 31.3 -1.9 L31.55 -1.95 M19.6 -33.5 L19.55 -33.55 19.6 -33.5 M11.5 30.4 L12.05 30.15 11.45 30.55 11.5 30.75 11.5 30.8 7.65 31.4 9.15 31.1 11.0 30.8 11.5 30.4 M17.15 29.95 Q17.45 29.0 18.15 28.15 L19.8 26.55 Q22.05 24.5 24.65 22.8 L24.9 22.85 24.85 22.95 24.8 23.0 24.85 23.5 24.55 23.8 27.0 26.55 28.15 27.7 31.05 30.0 35.7 32.85 Q39.45 34.75 43.8 35.8 L48.8 36.65 52.6 37.05 54.15 37.1 54.65 39.75 55.2 47.2 Q54.0 51.55 48.55 50.75 L46.0 50.3 41.9 49.3 28.65 43.75 Q22.5 40.15 17.85 34.95 16.4 32.3 17.1 30.1 L17.15 29.95 M5.95 -4.4 L12.1 -2.25 Q17.6 -0.3 21.45 3.4 L21.9 3.85 21.45 3.4 Q17.6 -0.3 12.1 -2.25 L5.95 -4.4 M47.75 -3.6 L48.8 -3.55 47.75 -3.6 M-15.8 29.55 L-16.45 29.2 -19.7 27.05 Q-23.3 24.65 -26.75 22.4 L-28.1 21.5 Q-32.0 18.8 -35.35 15.75 L-35.2 15.85 Q-31.2 19.35 -26.55 22.4 L-25.65 23.0 -19.7 26.95 Q-18.05 28.05 -16.3 29.25 L-15.8 29.55 M28.65 43.75 Q22.7 40.1 18.15 35.0 16.0 31.1 18.4 28.2 L20.2 26.55 Q22.4 24.6 24.85 22.95 22.4 24.6 20.2 26.55 L18.4 28.2 Q16.0 31.1 18.15 35.0 22.7 40.1 28.65 43.75 M11.0 30.8 L11.5 30.75 11.0 30.8 M-27.2 -3.15 L-28.15 -0.35 -29.1 2.45 Q-27.15 8.5 -23.65 9.55 -23.15 7.0 -23.1 4.65 -23.0 1.5 -23.75 -1.35 L-24.4 -3.4 -26.0 -6.7 -27.2 -3.15 M-14.0 -1.7 L-13.95 -1.65 -13.9 -1.55 Q-13.0 -0.7 -12.15 -0.55 -11.75 -0.45 -11.5 -1.0 L-11.45 -1.45 -11.45 -1.55 -11.45 -1.6 Q-11.4 -2.65 -11.9 -3.65 L-11.95 -3.7 -12.25 -3.85 -12.65 -3.75 Q-13.8 -2.8 -14.0 -1.7" fill="#f7f8fa" fill-rule="evenodd" stroke="none"/>
    <path d="M19.55 -33.6 L22.45 -29.6 28.55 -17.5 Q31.2 -10.0 31.55 -1.95 L31.3 -1.9 Q27.3 0.0 27.05 3.4 L27.0 3.8 27.5 7.05 28.25 9.9 28.7 11.4 28.95 11.55 29.1 11.6 29.05 11.6 29.45 12.4 29.05 11.6 29.1 11.6 29.45 12.4 29.4 12.65 Q29.4 13.1 29.85 13.45 L29.85 13.5 30.1 13.95 30.05 14.25 29.95 14.45 30.45 15.05 Q31.8 16.7 31.2 17.0 L31.7 17.4 32.1 17.65 32.15 17.65 32.15 17.7 32.15 17.65 32.2 17.7 32.15 17.7 31.7 17.65 31.65 17.65 32.6 18.65 33.0 18.8 33.05 18.9 33.0 18.8 33.05 18.8 33.05 18.9 32.7 18.8 31.2 19.15 31.3 19.2 31.65 19.35 31.15 19.35 30.4 19.5 Q30.55 19.8 29.95 20.15 L29.6 20.35 28.5 20.7 27.7 20.9 27.65 21.15 27.5 21.4 27.4 21.5 27.05 21.6 27.0 21.65 27.05 21.6 27.4 21.5 27.0 21.65 26.95 21.65 Q26.4 21.75 26.05 22.15 L25.95 22.3 25.9 22.3 25.9 22.35 25.1 22.75 25.0 22.85 25.1 22.75 25.9 22.35 25.0 22.85 24.9 22.85 24.65 22.8 Q22.05 24.5 19.8 26.55 L18.15 28.15 Q17.45 29.0 17.15 29.95 L11.5 30.75 17.15 29.95 17.1 30.1 11.5 30.8 11.5 30.75 11.45 30.55 12.05 30.15 11.5 30.4 15.8 26.55 19.7 22.6 21.85 19.95 Q24.3 16.25 24.9 12.0 L24.95 9.9 24.5 7.8 Q23.85 5.95 22.35 4.35 23.85 5.95 24.5 7.8 L24.95 9.9 24.9 12.0 Q24.3 16.25 21.85 19.95 L19.7 22.6 15.8 26.55 11.5 30.4 11.25 30.5 15.75 26.55 Q18.9 23.45 21.3 20.1 24.75 15.25 24.6 9.9 L24.5 8.55 Q23.9 6.2 22.35 4.35 L22.05 4.0 21.9 3.85 21.5 3.4 20.9 2.85 Q16.5 -1.05 10.4 -3.0 L5.95 -4.4 3.15 -5.15 3.3 -5.15 4.75 -6.0 4.8 -6.0 5.5 -6.1 7.95 -7.6 7.8 -7.95 Q23.75 -20.0 19.6 -33.5 L19.7 -33.3 19.9 -32.85 19.55 -33.6 M-32.65 -31.5 L-32.5 -31.75 -32.45 -31.7 -32.6 -31.45 -32.65 -31.5 M21.85 19.95 L21.3 20.1 21.85 19.95" fill="#ed99ac" fill-rule="evenodd" stroke="none"/>
    <path d="M24.9 22.85 L25.0 22.85 24.85 22.95 24.9 22.85 M25.9 22.35 L25.9 22.3 25.95 22.3 26.05 22.15 Q26.4 21.75 26.95 21.65 L27.0 21.65 27.4 21.5 27.5 21.4 27.65 21.15 27.7 20.9 28.5 20.7 29.6 20.35 29.95 20.15 Q30.55 19.8 30.4 19.5 L31.15 19.35 31.65 19.35 31.3 19.2 31.2 19.15 32.7 18.8 33.05 18.9 33.05 18.8 33.0 18.8 32.6 18.65 31.65 17.65 31.7 17.65 32.15 17.7 32.2 17.7 32.15 17.65 32.1 17.65 31.7 17.4 31.2 17.0 Q31.8 16.7 30.45 15.05 L29.95 14.45 30.05 14.25 30.1 13.95 29.85 13.5 29.85 13.45 Q29.4 13.1 29.4 12.65 L29.45 12.4 29.1 11.6 28.95 11.55 28.95 11.3 29.35 10.9 29.35 10.5 31.35 9.9 37.2 8.85 38.8 8.7 Q41.65 8.55 44.5 8.75 L45.6 8.9 45.65 8.9 51.2 9.9 52.6 10.35 52.95 10.45 57.75 12.2 58.25 12.4 Q60.3 13.35 62.35 14.55 L62.55 14.6 62.6 14.65 62.5 14.85 62.45 15.0 62.05 15.3 62.0 15.3 58.25 17.6 Q55.6 19.0 52.6 19.85 47.85 21.2 42.35 21.35 L41.2 21.05 40.85 20.95 40.8 21.0 41.3 21.15 42.5 21.45 Q46.3 23.75 48.95 26.55 51.15 28.85 52.6 31.6 L53.0 32.35 54.4 36.2 54.45 36.35 54.5 36.75 54.45 36.9 54.45 37.05 Q53.8 34.6 52.65 32.35 L52.6 32.3 Q51.0 29.2 48.45 26.55 45.5 23.55 41.3 21.15 45.5 23.55 48.45 26.55 51.0 29.2 52.6 32.3 L52.65 32.35 Q53.8 34.6 54.45 37.05 L54.4 37.2 54.15 37.1 52.6 37.05 48.8 36.65 43.8 35.8 Q39.45 34.75 35.7 32.85 L31.05 30.0 28.15 27.7 27.0 26.55 24.55 23.8 24.85 23.5 24.8 23.0 24.85 22.95 25.0 22.85 25.9 22.35 M29.1 11.6 L28.95 11.3 29.1 11.6 M29.85 13.45 L29.45 12.4 29.85 13.45 M62.55 14.6 L58.25 17.35 Q55.6 18.7 52.6 19.6 47.4 21.1 41.2 21.05 47.4 21.1 52.6 19.6 55.6 18.7 58.25 17.35 L62.55 14.6 M27.5 21.4 L29.6 20.35 27.5 21.4 M25.95 22.3 L27.0 21.65 25.95 22.3 M33.0 18.8 L32.15 17.7 33.0 18.8 M32.1 17.65 L30.1 13.95 32.1 17.65 M29.95 20.15 L31.65 19.35 33.05 18.9 31.65 19.35 29.95 20.15" fill="#f7bec4" fill-rule="evenodd" stroke="none"/>
    <path d="M-15.05 30.0 L-15.7 29.6 -15.8 29.55 -16.3 29.25 Q-18.05 28.05 -19.7 26.95 L-25.65 23.0 -26.55 22.4 Q-31.2 19.35 -35.2 15.85 L-35.35 15.75 -35.65 15.45 -36.6 14.55 -36.8 14.9 -37.3 14.25 -37.15 14.1 -38.1 13.05 -41.45 8.6 -38.1 12.95 Q-48.9 -3.05 -40.9 -19.05 L-40.1 -20.6 -40.35 -20.8 -40.05 -21.05 -39.9 -21.0 -39.75 -21.3 -39.55 -21.05 -39.5 -21.0 -39.3 -20.8 Q-35.05 -15.8 -35.7 -11.2 L-36.75 -4.05 -36.65 -0.9 -36.6 -0.55 -36.55 -0.3 Q-31.1 7.6 -23.65 9.55 L-22.1 12.25 Q-0.9 28.0 -3.85 5.7 L2.4 9.3 Q8.8 12.9 6.95 24.85 10.7 27.25 21.3 20.1 18.9 23.45 15.75 26.55 L11.25 30.5 11.5 30.4 11.0 30.8 9.15 31.1 7.65 31.4 -2.65 32.85 -7.0 33.05 Q-9.9 33.1 -15.05 30.0 M-39.9 -21.0 L-40.0 -20.8 -40.1 -20.6 -40.0 -20.8 -39.9 -21.0 M-38.1 12.95 L-36.6 14.55 -38.1 12.95 -38.1 13.05 -38.1 12.95" fill="#f5e9eb" fill-rule="evenodd" stroke="none"/>
    <path d="M-24.4 -3.4 L-23.75 -1.35 -25.65 -2.3 -24.4 -3.4" fill="#fefefe" fill-rule="evenodd" stroke="none"/>
    <path d="M-27.2 -3.15 L-26.0 -6.7 -24.4 -3.4 -25.65 -2.3 -23.75 -1.35 Q-23.0 1.5 -23.1 4.65 -24.2 -0.75 -27.2 -3.15" fill="#522a2a" fill-rule="evenodd" stroke="none"/>
    <path d="M-28.15 -0.35 L-27.2 -3.15 Q-24.2 -0.75 -23.1 4.65 -26.1 -1.15 -28.15 -0.35" fill="#be5250" fill-rule="evenodd" stroke="none"/>
    <path d="M-14.0 -1.7 Q-13.8 -2.8 -12.65 -3.75 L-12.25 -3.85 -11.95 -3.7 -11.9 -3.65 Q-11.4 -2.65 -11.45 -1.6 L-11.45 -1.55 -11.45 -1.45 -11.5 -1.0 Q-11.75 -0.45 -12.15 -0.55 -13.0 -0.7 -13.9 -1.55 L-13.95 -1.65 -14.0 -1.7" fill="#666666" fill-rule="evenodd" stroke="none"/>
    <path d="M-23.1 4.65 Q-23.15 7.0 -23.65 9.55 -27.15 8.5 -29.1 2.45 L-28.15 -0.35 Q-26.1 -1.15 -23.1 4.65" fill="#e79e98" fill-rule="evenodd" stroke="none"/>
    <path d="M4.0 -50.4 L9.95 -50.75 M10.15 -50.75 L13.15 -50.8 M22.5 -49.75 Q21.7 -51.6 21.35 -53.05 L21.3 -53.4 Q20.45 -57.15 21.6 -62.0 M-24.1 -41.75 Q-32.75 -44.0 -18.45 -46.25 -11.75 -49.45 -2.95 -50.2 L1.35 -50.4 3.3 -50.4 4.05 -49.85 5.3 -48.9 12.3 -43.15 Q16.8 -39.1 19.55 -33.6 L19.55 -33.55 M48.1 -3.6 Q47.9 -16.8 41.65 -29.65 M30.6 -45.9 L30.6 -45.3 30.4 -42.95 M13.8 -50.25 L16.7 -50.15 Q18.6 -49.85 20.65 -48.8 22.9 -47.5 24.55 -45.65 L22.5 -49.75 M26.8 -59.25 Q27.9 -58.05 28.75 -56.2 L29.85 -52.7 Q30.4 -50.35 30.55 -47.6 L30.6 -46.55 30.6 -45.9 M23.95 -61.4 L21.95 -61.95 M23.95 -61.4 Q25.55 -60.65 26.8 -59.25 M13.35 -50.1 L13.65 -48.25 Q14.3 -46.35 15.7 -44.3 L17.55 -41.9 18.35 -41.15 19.0 -40.6 M19.6 -33.5 L19.55 -33.6 M19.6 -33.5 Q23.75 -20.0 7.8 -7.95 L7.5 -7.75 4.8 -6.05 4.8 -6.0 M4.75 -6.0 L3.3 -5.15 M3.15 -5.15 L5.95 -4.4 12.1 -2.25 Q17.6 -0.3 21.45 3.4 L21.9 3.85 22.05 4.0 22.35 4.35 Q23.85 5.95 24.5 7.8 L24.95 9.9 24.9 12.0 Q24.3 16.25 21.85 19.95 L19.7 22.6 15.8 26.55 11.5 30.4 11.0 30.8 9.15 31.1 7.65 31.4 0.1 32.7 -7.65 33.1 Q-10.95 32.65 -15.05 30.0 L-15.7 29.6 -15.8 29.55 -16.3 29.25 Q-18.05 28.05 -19.7 26.95 L-25.65 23.0 -26.55 22.4 Q-31.2 19.35 -35.2 15.85 L-35.35 15.75 -35.65 15.45 -36.6 14.55 -38.1 12.95 Q-48.9 -3.05 -40.9 -19.05 L-40.1 -20.6 -40.0 -20.8 -39.9 -21.0 -39.75 -21.3 -37.8 -24.5 -36.35 -26.7 -35.4 -28.0 -34.05 -29.8 -33.7 -30.2 -32.65 -31.5 -32.5 -31.75 -28.35 -36.7 -27.6 -37.55 -26.8 -38.45 Q-33.95 -39.25 -29.0 -40.35 L-24.25 -41.55 M11.5 30.75 L17.15 29.95 M11.5 30.75 L11.0 30.8 M-28.15 -0.35 L-27.2 -3.15 -26.0 -6.7 -24.4 -3.4 -23.75 -1.35 Q-23.0 1.5 -23.1 4.65 -23.15 7.0 -23.65 9.55 -27.15 8.5 -29.1 2.45 L-28.15 -0.35" fill="none" stroke="#666666" stroke-linecap="round" stroke-linejoin="round" stroke-width="1.2000000000000002"/>
    <path d="M13.15 -50.8 L17.85 -50.45 22.5 -49.75" fill="none" stroke="#666666" stroke-linecap="round" stroke-linejoin="miter-clip" stroke-miterlimit="3.0" stroke-width="1.2000000000000002"/>
    <path d="M19.55 -33.55 L19.6 -33.5 19.7 -33.3 19.9 -32.85 19.55 -33.6 M31.55 -1.95 L31.6 -1.75" fill="none" stroke="#666666" stroke-linecap="round" stroke-linejoin="miter-clip" stroke-miterlimit="3.0" stroke-width="0.05"/>
    <path d="M46.65 -3.65 L47.75 -3.6 48.8 -3.55 59.65 -1.8 64.35 -0.35 66.4 0.4 66.9 0.6 67.15 0.7 67.7 1.0 67.95 1.1 Q72.05 3.15 70.25 6.9 L64.75 12.75 62.55 14.6 58.25 17.35 Q55.6 18.7 52.6 19.6 47.4 21.1 41.2 21.05 L41.15 21.05 41.3 21.15 Q45.5 23.55 48.45 26.55 51.0 29.2 52.6 32.3 L52.65 32.35 Q53.8 34.6 54.45 37.05 L54.95 39.75 55.5 47.3 Q54.3 51.55 48.8 50.85 L46.0 50.3 41.9 49.3 28.65 43.75 Q22.7 40.1 18.15 35.0 16.0 31.1 18.4 28.2 L20.2 26.55 Q22.4 24.6 24.85 22.95 L25.0 22.85 25.1 22.75 25.9 22.35 25.9 22.3 25.95 22.3 27.0 21.65 27.05 21.6 27.4 21.5 27.5 21.4 29.6 20.35 29.95 20.15 31.65 19.35 33.05 18.9 33.0 18.8 32.15 17.7 32.15 17.65 32.1 17.65 30.1 13.95 29.85 13.5 29.85 13.45 29.45 12.4 29.05 11.6 29.1 11.6 28.95 11.3 28.5 9.9 Q27.55 6.95 27.25 3.85 L27.3 3.4 Q27.55 0.15 31.6 -1.75 L37.2 -2.95 40.3 -3.35 41.65 -3.45 46.65 -3.65" fill="none" stroke="#666666" stroke-linecap="round" stroke-linejoin="round" stroke-width="1.5"/>
    <path d="M21.3 20.1 L21.85 19.95 M-38.1 12.95 L-38.1 13.05" fill="none" stroke="#666666" stroke-linecap="round" stroke-linejoin="round" stroke-width="0.05"/>
    <path d="M-3.7 5.1 Q-3.5 5.15 -3.4 5.3 L-3.35 5.35 -3.4 5.3 -3.4 5.25 -3.45 5.2 -3.3 5.3 -3.0 5.45 -2.8 5.5 -2.6 5.65 -0.1 6.85 0.65 7.25 1.05 7.5 2.85 8.4 3.1 8.55 3.2 8.65 3.3 8.65 3.35 8.7 3.6 8.9 3.75 8.95 3.85 9.05 4.1 9.25 4.35 9.4 4.85 9.8 4.95 9.95 5.15 10.15 5.3 10.25 6.2 11.4 6.25 11.5 6.75 12.35 7.7 14.65 8.0 15.8 8.25 18.6 8.25 20.15 7.6 24.65 7.5 24.9 Q7.4 25.4 6.9 25.4 6.25 25.3 6.35 24.75 L6.45 20.1 6.4 19.65 6.4 19.2 6.25 17.75 5.85 15.75 5.7 15.25 Q5.4 14.1 4.9 13.3 L4.55 12.65 4.45 12.55 4.4 12.45 3.75 11.65 3.7 11.55 3.6 11.5 3.5 11.4 3.45 11.3 2.9 10.8 2.7 10.65 2.6 10.6 2.5 10.5 2.3 10.4 2.2 10.3 2.0 10.2 1.95 10.15 1.9 10.15 1.9 10.1 -3.3 6.8 -3.95 6.35 -4.1 6.2 -4.15 6.2 -4.35 6.0 -4.35 5.95 -4.4 5.8 -4.45 5.7 -4.4 5.45 -4.25 5.25 -4.15 5.2 -4.0 5.1 -3.9 5.1 -3.85 5.05 -3.75 5.1 -3.7 5.1 M-5.5 -13.05 L-6.3 -13.15 Q-6.65 -13.6 -6.25 -14.0 L-5.75 -14.45 -3.25 -17.05 -1.65 -19.05 -0.45 -21.0 -0.2 -21.5 0.0 -22.05 0.15 -22.3 0.65 -23.7 0.9 -24.9 0.95 -27.2 0.8 -28.35 0.55 -29.45 -0.2 -31.5 -0.8 -32.6 -0.95 -32.8 -1.45 -33.6 -3.75 -36.6 Q-4.05 -37.0 -3.75 -37.4 L-2.9 -37.45 -1.75 -36.45 0.2 -34.25 1.4 -32.4 2.0 -31.3 2.85 -28.75 3.1 -25.95 3.05 -25.6 3.05 -25.25 2.95 -24.55 2.15 -21.8 1.25 -20.0 0.9 -19.45 -0.55 -17.45 -2.75 -15.2 -5.5 -13.05" fill="#666666" fill-rule="evenodd" stroke="none"/>
  </g>
</svg>
