<?xml version="1.0" encoding="UTF-8" standalone="no"?>
<svg xmlns:xlink="http://www.w3.org/1999/xlink" height="238.05px" width="193.25px" xmlns="http://www.w3.org/2000/svg">
  <g transform="matrix(1.0, 0.0, 0.0, 1.0, 96.65, 119.05)">
    <path d="M23.2 -89.95 Q38.1 -77.65 60.6 -75.55 L91.65 -74.35 Q99.8 -68.1 92.7 -60.35 L61.55 -54.5 Q47.7 -51.75 32.3 -55.9 18.9 -58.85 -9.8 -75.8 L-28.1 -88.1 -39.15 -95.5 Q-58.3 -106.05 -77.2 -89.65 -67.2 -102.9 -53.95 -112.65 -36.4 -124.2 -13.4 -112.65 L23.2 -89.95 M-76.45 64.85 Q-79.9 33.7 -66.95 -22.15 L-57.6 -35.6 -45.45 -26.15 Q-36.1 -21.55 -26.7 -10.1 -19.8 1.5 -13.15 7.95 L-10.15 15.3 Q-3.85 23.85 4.15 24.25 10.8 30.3 19.2 32.95 19.8 24.45 16.55 21.55 14.8 18.65 10.9 16.35 17.25 13.45 15.85 10.2 21.45 7.9 27.6 8.25 25.7 7.9 27.2 2.15 L27.2 2.05 27.6 0.6 28.8 1.2 28.25 2.3 Q34.2 7.25 36.05 18.0 L39.0 13.25 Q42.3 25.6 47.7 34.5 L56.6 44.95 Q67.5 50.1 80.2 45.5 74.0 72.85 54.45 90.25 14.75 112.95 -0.6 107.6 3.35 105.6 1.2 104.75 -4.9 108.55 -11.55 107.6 -8.65 107.9 -8.7 105.1 -16.3 107.85 -27.85 105.25 -24.4 105.0 -24.0 102.4 -52.5 93.25 -76.45 64.85" fill="#f7f8fa" fill-rule="evenodd" stroke="none"/>
    <path d="M-77.2 -89.65 Q-58.3 -106.05 -39.15 -95.5 L-28.1 -88.1 Q-48.15 -82.85 -74.2 -52.25 -82.65 -40.05 -96.0 -54.6 -88.7 -74.45 -77.2 -89.65 M-13.15 7.95 L-11.25 9.65 Q-17.0 0.25 -4.05 14.35 -1.05 15.65 1.9 15.8 -1.55 9.8 8.05 14.9 11.8 11.85 15.85 10.2 17.25 13.45 10.9 16.35 14.8 18.65 16.55 21.55 19.8 24.45 19.2 32.95 10.8 30.3 4.15 24.25 -3.85 23.85 -10.15 15.3 L-13.15 7.95 M28.8 1.2 Q31.35 2.65 34.3 6.3 32.25 0.4 34.3 -1.35 40.2 2.15 41.95 7.75 78.75 28.05 80.2 45.5 67.5 50.1 56.6 44.95 L47.7 34.5 Q42.3 25.6 39.0 13.25 L36.05 18.0 Q34.2 7.25 28.25 2.3 L28.8 1.2 M54.45 90.25 Q43.05 100.4 27.15 107.15 0.65 123.85 -25.9 115.75 -43.9 112.35 -57.05 100.9 -73.35 92.8 -76.45 64.85 -52.5 93.25 -24.0 102.4 -24.4 105.0 -27.85 105.25 -16.3 107.85 -8.7 105.1 -8.65 107.9 -11.55 107.6 -4.9 108.55 1.2 104.75 3.35 105.6 -0.6 107.6 14.75 112.95 54.45 90.25 M4.15 24.25 Q1.0 18.0 -4.05 14.35 1.0 18.0 4.15 24.25 M10.9 16.35 L8.05 14.9 10.9 16.35" fill="#f5e9eb" fill-rule="evenodd" stroke="none"/>
    <path d="M-9.8 -75.8 Q18.9 -58.85 32.3 -55.9 47.7 -51.75 61.55 -54.5 L92.7 -60.35 Q99.8 -68.1 91.65 -74.35 L60.6 -75.55 Q38.1 -77.65 23.2 -89.95" fill="none" stroke="#666666" stroke-linecap="round" stroke-linejoin="round" stroke-width="1.2000000000000002"/>
    <path d="M23.2 -89.95 L-13.4 -112.65 Q-36.4 -124.2 -53.95 -112.65 -67.2 -102.9 -77.2 -89.65 -58.3 -106.05 -39.15 -95.5 L-28.1 -88.1 -9.8 -75.8 M-76.45 64.85 Q-79.9 33.7 -66.95 -22.15 L-57.6 -35.6 -45.45 -26.15 Q-36.1 -21.55 -26.7 -10.1 -19.8 1.5 -13.15 7.95 L-11.25 9.65 Q-17.0 0.25 -4.05 14.35 -1.05 15.65 1.9 15.8 -1.55 9.8 8.05 14.9 11.8 11.85 15.85 10.2 21.45 7.9 27.6 8.25 25.7 7.9 27.2 2.15 L27.2 2.05 27.6 0.6 28.8 1.2 Q31.35 2.65 34.3 6.3 32.25 0.4 34.3 -1.35 40.2 2.15 41.95 7.75 78.75 28.05 80.2 45.5 74.0 72.85 54.45 90.25 43.05 100.4 27.15 107.15 0.65 123.85 -25.9 115.75 -43.9 112.35 -57.05 100.9 -73.35 92.8 -76.45 64.85 M-77.2 -89.65 Q-88.7 -74.45 -96.0 -54.6 -82.65 -40.05 -74.2 -52.25 -48.15 -82.85 -28.1 -88.1 M8.05 14.9 L10.9 16.35 M-4.05 14.35 Q1.0 18.0 4.15 24.25" fill="none" stroke="#666666" stroke-linecap="round" stroke-linejoin="miter-clip" stroke-miterlimit="3.0" stroke-width="1.2000000000000002"/>
  </g>
</svg>
