<?xml version="1.0" encoding="UTF-8" standalone="no"?>
<svg xmlns:xlink="http://www.w3.org/1999/xlink" height="95.15px" width="92.95px" xmlns="http://www.w3.org/2000/svg">
  <g transform="matrix(1.0, 0.0, 0.0, 1.0, 46.45, 47.55)">
    <path d="M14.0 -29.35 Q13.15 -26.1 7.55 -16.7 1.95 -7.3 -4.55 0.95 2.05 4.05 7.85 7.95 L8.0 13.0 Q-3.1 7.05 -12.45 -2.65 L-9.6 -1.8 Q-6.75 -0.75 -4.55 0.95 -6.75 -0.75 -9.6 -1.8 -4.2 -20.15 7.6 -34.35 6.7 -39.7 2.65 -45.1 L7.7 -40.3 Q7.75 -44.8 10.7 -40.15 L12.45 -37.15 12.65 -36.85 Q14.25 -35.3 13.95 -34.2 14.8 -32.6 14.0 -29.35" fill="#f5e9eb" fill-rule="evenodd" stroke="none"/>
    <path d="M-3.85 26.4 Q-29.5 16.75 -38.7 5.25 L-41.8 3.5 Q-49.95 12.25 -41.65 -3.4 -34.3 -21.95 -15.3 -35.35 L-12.95 -37.1 Q-18.9 -37.65 -7.7 -40.15 -19.6 -46.85 0.9 -42.3 -1.6 -47.15 -0.15 -46.95 L2.65 -45.1 Q6.7 -39.7 7.6 -34.35 -4.2 -20.15 -9.6 -1.8 L-12.45 -2.65 Q-3.1 7.05 8.0 13.0 L8.0 13.05 Q7.95 15.2 7.35 17.2 L7.3 17.2 Q2.95 22.7 -4.1 26.0 L-4.15 26.0 -3.85 26.35 -4.15 26.0 -4.1 26.0 -3.85 26.35 -3.85 26.4" fill="#f7f8fa" fill-rule="evenodd" stroke="none"/>
    <path d="M7.85 7.95 L34.55 26.2 Q36.5 27.4 38.1 28.65 L38.15 28.65 38.35 28.8 Q51.05 38.45 42.45 46.75 L42.35 46.85 Q40.85 47.15 39.8 46.85 L31.8 43.65 Q36.05 41.9 36.3 37.5 38.2 38.2 39.65 38.95 42.7 35.7 36.3 31.2 17.25 15.1 8.0 13.05 L8.0 13.0 7.85 7.95 M42.35 46.85 L42.45 46.75 42.35 46.85 M42.45 46.75 Q46.4 42.5 39.65 38.95 46.4 42.5 42.45 46.75" fill="#dd7e8f" fill-rule="evenodd" stroke="none"/>
    <path d="M31.8 43.65 Q17.75 37.5 -3.85 26.4 L-3.85 26.35 -4.1 26.0 Q2.95 22.7 7.3 17.2 L7.35 17.2 Q7.95 15.2 8.0 13.05 17.25 15.1 36.3 31.2 42.7 35.7 39.65 38.95 38.2 38.2 36.3 37.5 36.05 41.9 31.8 43.65" fill="#ed99ac" fill-rule="evenodd" stroke="none"/>
    <path d="M14.0 -29.35 Q13.15 -26.1 7.55 -16.7 1.95 -7.3 -4.55 0.95 2.05 4.05 7.85 7.95 L34.55 26.2 Q36.5 27.4 38.1 28.65 L38.15 28.65 38.35 28.8 Q51.05 38.45 42.45 46.75 L42.35 46.85 42.3 46.9 42.35 46.85 Q40.85 47.15 39.8 46.85 L31.8 43.65 Q17.75 37.5 -3.85 26.4 -29.5 16.75 -38.7 5.25 -44.85 12.45 -41.8 3.5 -49.95 12.25 -41.65 -3.4 -34.3 -21.95 -15.3 -35.35 L-12.95 -37.1 Q-18.9 -37.65 -7.7 -40.15 -19.6 -46.85 0.9 -42.3 -1.6 -47.15 -0.15 -46.95 L2.65 -45.1 7.7 -40.3 Q7.75 -44.8 10.7 -40.15 L12.45 -37.15 12.65 -36.85 M-9.6 -1.8 L-12.45 -2.65 M8.0 13.0 L7.85 7.95 M-3.85 26.35 L-4.15 26.0 -4.1 26.0 Q2.95 22.7 7.3 17.2 L7.35 17.2 Q7.95 15.2 8.0 13.05 L8.0 13.0 M-3.85 26.35 L-4.1 26.0 M-3.85 26.4 L-3.85 26.35 M42.45 46.75 L42.35 46.85 M36.3 37.5 Q38.2 38.2 39.65 38.95 46.4 42.5 42.45 46.75 M-4.55 0.95 Q-6.75 -0.75 -9.6 -1.8" fill="none" stroke="#666666" stroke-linecap="round" stroke-linejoin="round" stroke-width="1.2000000000000002"/>
    <path d="M12.65 -36.85 Q14.25 -35.3 13.95 -34.2 14.8 -32.6 14.0 -29.35 Z" fill="none" stroke="#666666" stroke-linecap="round" stroke-linejoin="miter-clip" stroke-miterlimit="3.0" stroke-width="1.2000000000000002"/>
  </g>
</svg>
