<?xml version="1.0" encoding="UTF-8" standalone="no"?>
<svg xmlns:xlink="http://www.w3.org/1999/xlink" height="153.0px" width="137.3px" xmlns="http://www.w3.org/2000/svg">
  <g transform="matrix(1.0, 0.0, 0.0, 1.0, 68.25, 76.5)">
    <path d="M-37.2 -62.4 Q-30.4 -60.0 -31.9 -63.15 -29.65 -62.1 -28.45 -61.65 -25.9 -60.8 -28.3 -62.65 -11.0 -63.9 -16.2 -57.15 L-19.95 -52.7 Q-25.4 -45.7 -29.75 -36.3 -39.7 -16.4 -34.6 7.65 -20.25 35.25 1.25 46.7 32.05 60.65 45.5 60.95 49.45 61.85 67.6 49.3 47.25 80.1 5.75 75.25 -22.35 68.35 -35.6 52.75 -36.0 47.15 -39.5 41.1 L-41.55 62.0 -43.05 61.5 Q-46.1 60.05 -50.2 54.1 -63.05 36.35 -57.55 16.7 -54.85 9.7 -58.8 2.6 -59.25 13.1 -63.5 22.3 -64.05 20.8 -63.85 17.1 -66.75 17.5 -67.45 10.15 L-67.65 6.4 Q-67.65 -30.6 -46.6 -54.5 -41.4 -61.3 -37.2 -62.4 M-63.5 12.55 L-63.85 17.1 -63.5 12.55" fill="#ed99ac" fill-rule="evenodd" stroke="none"/>
    <path d="M67.6 49.3 Q49.45 61.85 45.5 60.95 32.05 60.65 1.25 46.7 -20.25 35.25 -34.6 7.65 -39.7 -16.4 -29.75 -36.3 -25.4 -45.7 -19.95 -52.7 L-16.2 -57.15 Q-11.0 -63.9 -28.3 -62.65 -25.9 -60.8 -28.45 -61.65 -29.65 -62.1 -31.9 -63.15 -30.4 -60.0 -37.2 -62.4 L-41.15 -62.25 Q-38.4 -67.2 -28.45 -69.5 L-25.85 -70.05 Q-27.65 -70.45 -28.45 -70.95 -29.75 -71.75 -28.45 -72.75 L-28.05 -73.05 -24.95 -74.45 Q-12.85 -78.4 -4.75 -71.7 -13.3 -64.55 -1.7 -68.25 -4.75 -65.1 -3.75 -65.2 L0.0 -65.1 Q-3.8 -62.6 -3.05 -61.9 -2.35 -61.25 0.6 -61.2 1.7 -58.6 -3.1 -55.6 -5.35 -54.9 -7.35 -53.7 L-8.9 -52.7 Q-14.95 -48.35 -18.3 -39.1 -36.6 29.8 27.7 49.2 52.2 55.8 67.6 49.3 M-35.6 52.75 Q-37.4 62.45 -41.55 62.0 L-39.5 41.1 Q-36.0 47.15 -35.6 52.75 M-57.55 16.7 Q-62.4 25.6 -63.5 22.3 -59.25 13.1 -58.8 2.6 -54.85 9.7 -57.55 16.7" fill="#dd7e8f" fill-rule="evenodd" stroke="none"/>
    <path d="M-4.75 -71.7 L-1.7 -68.25 Q-13.3 -64.55 -4.75 -71.7" fill="#f7f8fa" fill-rule="evenodd" stroke="none"/>
    <path d="M-37.2 -62.4 Q-41.4 -61.3 -46.6 -54.5 -67.65 -30.6 -67.65 6.4 L-67.45 10.15 Q-66.75 17.5 -63.85 17.1 L-63.5 12.55 M-4.75 -71.7 Q-12.85 -78.4 -24.95 -74.45 L-28.05 -73.05 -28.45 -72.75 Q-29.75 -71.75 -28.45 -70.95 -27.65 -70.45 -25.85 -70.05 L-28.45 -69.5 Q-38.4 -67.2 -41.15 -62.25 L-37.2 -62.4 M-1.7 -68.25 Q-4.75 -65.1 -3.75 -65.2 L0.0 -65.1 Q-3.8 -62.6 -3.05 -61.9 -2.35 -61.25 0.6 -61.2 1.7 -58.6 -3.1 -55.6 -5.35 -54.9 -7.35 -53.7 L-8.9 -52.7 Q-14.95 -48.35 -18.3 -39.1 -36.6 29.8 27.7 49.2 52.2 55.8 67.6 49.3 47.25 80.1 5.75 75.25 -22.35 68.35 -35.6 52.75 -37.4 62.45 -41.55 62.0 L-43.05 61.5 Q-46.1 60.05 -50.2 54.1 -63.05 36.35 -57.55 16.7 -62.4 25.6 -63.5 22.3 -64.05 20.8 -63.85 17.1 M-1.7 -68.25 Q-13.3 -64.55 -4.75 -71.7" fill="none" stroke="#666666" stroke-linecap="round" stroke-linejoin="miter-clip" stroke-miterlimit="3.0" stroke-width="1.2000000000000002"/>
  </g>
</svg>
