<?xml version="1.0" encoding="UTF-8" standalone="no"?>
<svg xmlns:xlink="http://www.w3.org/1999/xlink" height="335.85px" width="156.0px" xmlns="http://www.w3.org/2000/svg">
  <g transform="matrix(1.0, 0.0, 0.0, 1.0, 77.75, 168.15)">
    <path d="M3.5 -89.75 L16.1 -74.8 18.15 -72.45 19.95 -70.45 47.15 -43.2 52.95 -38.1 Q54.6 -32.85 48.25 -14.0 41.85 4.9 31.4 25.65 11.0 66.05 4.2 78.0 1.4 82.95 -3.15 88.8 -17.2 106.9 -44.8 140.1 -65.5 165.05 -65.5 166.2 L-65.25 166.9 -65.05 166.95 -64.05 167.0 Q-71.25 167.05 -74.4 164.7 L-75.6 163.55 -75.9 163.1 Q-77.15 161.2 -77.15 158.45 -77.15 156.55 -75.5 154.1 -74.3 152.3 -69.5 146.45 -53.5 127.0 -37.55 105.15 -10.35 67.85 2.75 25.05 12.95 -8.3 12.95 -37.95 L10.85 -61.15 10.2 -64.4 9.35 -68.05 3.5 -89.75" fill="#d6eefb" fill-rule="evenodd" stroke="none"/>
    <path d="M24.35 -167.2 Q32.45 -160.15 38.85 -152.05 L44.7 -143.75 49.0 -137.1 44.7 -143.75 38.85 -152.05 43.65 -145.5 49.0 -137.1 Q57.3 -123.2 65.45 -104.4 L65.65 -103.95 67.15 -100.35 Q72.2 -88.3 77.2 -74.3 L52.95 -38.1 Q52.45 -43.2 51.55 -63.0 50.8 -79.8 49.15 -91.7 44.0 -128.9 24.35 -167.2 M77.2 -74.3 L64.25 -55.95 Q57.8 -46.8 52.95 -38.1 57.8 -46.8 64.25 -55.95 L77.2 -74.3" fill="#2e6088" fill-rule="evenodd" stroke="none"/>
    <path d="M-64.05 167.0 L-65.05 166.95 -65.25 166.9 -65.5 166.2 Q-65.5 165.05 -44.8 140.1 -17.2 106.9 -3.15 88.8 1.4 82.95 4.2 78.0 11.0 66.05 31.4 25.65 41.85 4.9 48.25 -14.0 54.6 -32.85 52.95 -38.1 L77.2 -74.3 64.75 -29.0 64.45 -28.1 64.15 -27.15 59.55 -13.35 53.45 3.0 50.5 10.4 35.3 40.65 Q23.3 64.4 3.5 93.35 L1.3 96.55 0.6 97.6 Q-7.25 109.45 -14.45 119.4 L-16.05 121.55 -18.8 125.4 -20.95 128.05 Q-26.2 134.85 -31.1 140.65 L-33.85 143.6 -45.35 155.75 Q-50.15 160.15 -54.25 162.85 L-58.3 165.15 -64.05 167.0 M-45.35 155.75 L-48.9 159.2 Q-50.75 160.7 -54.25 162.85 -50.15 160.15 -45.35 155.75 M35.3 40.65 Q23.8 61.4 7.0 87.7 L1.3 96.55 7.0 87.7 Q23.8 61.4 35.3 40.65 M-16.05 121.55 L-20.95 128.05 -16.05 121.55" fill="#a4c9de" fill-rule="evenodd" stroke="none"/>
    <path d="M24.35 -167.2 Q44.0 -128.9 49.15 -91.7 50.8 -79.8 51.55 -63.0 52.45 -43.2 52.95 -38.1 L47.15 -43.2 19.95 -70.45 18.15 -72.45 16.1 -74.8 3.5 -89.75 15.8 -133.35 Q18.15 -141.95 24.35 -167.2 M19.95 -70.45 L18.2 -72.45 16.1 -74.8 18.2 -72.45 19.95 -70.45" fill="#1e7fae" fill-rule="evenodd" stroke="none"/>
    <path d="M38.85 -152.05 Q30.35 -163.45 24.35 -167.2 18.15 -141.95 15.8 -133.35 L3.5 -89.75 9.35 -68.05 10.15 -64.4 10.85 -61.15 12.95 -37.95 Q12.95 -8.3 2.75 25.05 -10.35 67.85 -37.55 105.15 -53.5 127.0 -69.5 146.45 -74.3 152.3 -75.5 154.1 -77.15 156.55 -77.15 158.45 -77.15 161.2 -75.9 163.1 L-75.6 163.55 -74.4 164.75 Q-71.5 167.1 -65.7 167.1 -62.4 167.1 -58.3 165.15 L-54.25 162.85 Q-50.15 160.15 -45.35 155.75 -39.7 150.55 -33.1 142.95 L-31.1 140.65 Q-26.2 134.85 -20.95 128.05 L-16.05 121.55 -14.45 119.4 Q-7.25 109.45 0.6 97.6 L1.3 96.55 7.0 87.7 Q23.8 61.4 35.3 40.65 L50.5 10.4 51.45 8.15 Q55.65 -1.8 59.55 -13.35 L64.15 -27.15 64.45 -28.1 64.75 -29.0 77.2 -74.3 Q72.2 -88.3 67.15 -100.35 L65.65 -103.95 M52.95 -38.1 Q57.8 -46.8 64.25 -55.95 L77.2 -74.3 M49.0 -137.1 L44.7 -143.75 38.85 -152.05 M49.0 -137.1 Q59.1 -120.9 65.45 -104.4 M16.1 -74.8 L3.5 -89.75 M52.95 -38.1 L47.15 -43.2 19.95 -70.45 18.2 -72.45 16.1 -74.8" fill="none" stroke="#4a4f58" stroke-linecap="round" stroke-linejoin="miter-clip" stroke-miterlimit="3.0" stroke-width="1.2000000000000002"/>
  </g>
</svg>
