<?xml version="1.0" encoding="UTF-8" standalone="no"?>
<svg xmlns:xlink="http://www.w3.org/1999/xlink" height="243.05px" width="136.05px" xmlns="http://www.w3.org/2000/svg">
  <g transform="matrix(1.0, 0.0, 0.0, 1.0, 100.85, 82.6)">
    <path d="M-30.1 145.1 Q-23.8 143.9 -18.05 142.3 L-21.25 143.6 -18.05 142.3 Q-16.8 141.8 -15.4 141.45 L-15.05 141.5 -21.25 143.6 Q-25.4 144.75 -30.1 145.1" fill="#a87292" fill-rule="evenodd" stroke="none"/>
    <path d="M-1.55 -52.2 L2.1 -44.35 Q5.5 -37.0 8.25 -29.8 L9.45 -25.9 Q19.2 2.4 19.95 28.65 20.05 32.75 19.35 41.25 19.2 42.1 19.2 43.1 19.2 42.1 19.35 41.25 20.05 32.75 19.95 28.65 19.2 2.4 9.45 -25.9 L8.25 -29.8 Q19.6 -0.15 20.1 26.25 20.6 36.8 19.5 42.35 L19.2 43.1 Q17.4 47.8 14.8 53.3 12.8 57.65 12.95 58.0 13.0 59.1 13.2 59.4 L13.55 59.6 Q21.2 53.6 22.25 50.95 L25.1 38.9 25.1 38.75 25.15 38.6 28.25 33.25 25.15 38.6 Q25.6 36.8 26.6 35.4 L27.9 33.3 28.25 33.25 33.7 32.15 34.1 32.05 Q34.1 42.55 31.5 56.6 29.55 66.8 26.4 75.2 L23.45 82.1 Q10.6 109.4 -15.25 121.7 L-15.0 121.75 -16.15 122.15 -16.1 122.15 -16.15 122.15 -15.0 121.75 -14.25 121.85 -16.0 122.1 -16.1 122.15 -19.4 123.7 Q-17.5 124.85 -11.2 124.8 -3.4 124.45 0.55 121.3 L5.95 120.05 0.55 121.3 0.55 121.25 0.6 121.2 Q3.2 120.55 5.95 120.05 L6.85 119.9 Q5.15 122.5 -3.6 131.1 -8.5 135.65 -11.4 138.55 L-18.05 142.3 -11.4 138.55 Q-14.1 140.8 -15.4 141.45 -16.8 141.8 -18.05 142.3 -23.8 143.9 -30.1 145.1 -35.55 146.25 -41.35 145.85 L-41.9 145.8 -44.4 145.55 -46.3 145.25 Q-55.05 142.85 -63.75 140.85 L-61.65 142.95 Q-53.45 149.95 -45.2 158.1 -61.3 161.25 -66.65 158.05 -68.75 157.85 -71.6 156.9 L-76.4 155.0 -81.6 152.45 Q-83.4 148.9 -84.4 147.85 -85.85 145.7 -86.65 139.9 -87.15 135.6 -74.05 128.7 L-44.8 113.1 Q-3.4 91.75 -4.6 69.8 L-4.3 66.9 -7.15 72.3 -8.4 74.5 -8.35 74.65 -8.6 73.15 Q-6.45 61.95 -3.9 50.3 1.1 26.3 0.9 18.3 0.65 14.95 -2.2 -0.2 -4.8 -13.95 -8.2 -29.35 L-10.25 12.2 Q-13.25 -17.95 -21.45 -44.95 -29.55 -70.3 -42.45 -81.05 -38.1 -82.15 -34.15 -81.55 L-33.05 -81.35 -32.6 -81.25 Q-27.1 -79.3 -22.4 -75.9 -11.6 -67.6 -1.55 -52.2 M33.7 32.15 Q33.5 33.15 33.45 34.35 32.05 47.15 30.4 58.3 L27.75 70.75 26.4 75.2 27.75 70.75 30.4 58.3 Q32.05 47.15 33.45 34.35 33.5 33.15 33.7 32.15" fill="#ed99ac" fill-rule="evenodd" stroke="none"/>
    <path d="M-42.45 -81.05 Q-29.55 -70.3 -21.45 -44.95 -13.25 -17.95 -10.25 12.2 L-8.2 -29.35 Q-4.8 -13.95 -2.2 -0.2 0.65 14.95 0.9 18.3 1.1 26.3 -3.9 50.3 -6.45 61.95 -8.6 73.15 L-8.35 74.65 -8.4 74.5 -7.15 72.3 -4.3 66.9 -4.6 69.8 Q-3.4 91.75 -44.8 113.1 L-74.05 128.7 Q-87.15 135.6 -86.65 139.9 -85.85 145.7 -84.4 147.85 -83.4 148.9 -81.6 152.45 -81.95 152.2 -82.3 152.65 L-82.4 152.55 -82.3 152.65 Q-82.4 153.05 -82.65 153.25 L-82.4 152.55 -82.25 152.35 -82.5 151.8 -84.9 147.05 Q-88.65 139.05 -92.35 131.4 L-99.45 114.1 -95.8 112.35 -99.45 114.1 -99.65 113.65 -95.8 112.35 -95.3 112.1 -56.5 78.45 Q-53.35 74.0 -50.3 69.0 -40.55 53.25 -35.6 37.65 -31.4 25.2 -31.0 15.95 L-30.6 13.8 -31.0 15.95 Q-30.8 13.35 -31.0 11.35 L-30.9 11.05 -30.6 13.8 -30.5 14.95 Q-29.7 11.4 -29.25 4.25 -27.25 -11.15 -28.05 -27.4 -27.25 -11.15 -29.25 4.25 L-28.65 -7.5 Q-28.1 -22.3 -28.55 -26.9 L-28.05 -27.4 Q-27.7 -27.5 -27.7 -27.75 L-27.6 -27.7 -26.75 -25.75 Q-25.65 -23.5 -23.9 -17.85 -23.55 -17.1 -23.35 -16.2 L-21.4 -9.95 Q-16.45 6.95 -16.3 9.6 L-16.05 8.8 Q-15.75 7.35 -15.9 5.1 -17.2 -8.0 -21.9 -26.55 -24.1 -35.45 -27.95 -44.25 L-29.95 -49.6 Q-34.65 -60.4 -47.0 -75.15 L-50.65 -79.5 -50.95 -79.8 -50.9 -79.9 Q-50.85 -79.85 -50.8 -79.95 L-46.85 -80.75 -42.45 -81.05 M-45.2 158.1 Q-53.45 149.95 -61.65 142.95 L-63.75 140.85 Q-55.05 142.85 -46.3 145.25 L-46.95 145.25 -57.9 143.5 Q-56.85 143.95 -55.8 144.6 -56.85 143.95 -57.9 143.5 L-46.95 145.25 -55.6 144.7 -55.8 144.6 -55.9 144.65 Q-52.4 146.85 -51.65 147.65 L-50.1 148.25 Q-48.4 149.55 -46.85 151.2 L-45.4 152.7 Q-44.0 154.7 -42.65 157.45 L-45.2 158.1 M0.55 121.3 Q-3.4 124.45 -11.2 124.8 -17.5 124.85 -19.4 123.7 L-16.1 122.15 -16.0 122.1 -14.25 121.85 0.55 121.25 0.55 121.3 -4.2 122.05 Q-12.3 123.2 -16.0 122.1 -12.3 123.2 -4.2 122.05 L0.55 121.3 M33.7 32.15 L28.25 33.25 27.9 33.3 34.6 23.2 34.6 23.15 34.6 23.2 34.1 23.9 34.6 23.15 35.15 22.25 Q34.95 27.35 34.1 32.05 L33.7 32.15 34.6 23.2 33.7 32.15 M25.1 38.9 L22.25 50.95 Q21.2 53.6 13.55 59.6 L13.2 59.4 Q13.0 59.1 12.95 58.0 12.8 57.65 14.8 53.3 17.4 47.8 19.2 43.1 L19.5 42.35 19.1 49.05 Q21.65 43.75 24.75 38.45 L25.05 38.85 25.1 38.9 M34.6 23.2 L28.25 33.25 34.6 23.2 M19.2 43.1 Q18.75 49.05 18.35 51.2 L18.3 51.3 18.1 51.8 18.3 51.3 18.35 51.2 Q18.75 49.05 19.2 43.1 M18.35 51.2 Q18.7 50.0 25.05 38.85 18.7 50.0 18.35 51.2" fill="#dd7e8f" fill-rule="evenodd" stroke="none"/>
    <path d="M8.25 -29.8 Q4.2 -42.35 -1.55 -52.2 -10.1 -66.9 -22.4 -75.9 -27.1 -79.3 -32.6 -81.25 L-33.05 -81.35 -34.15 -81.55 Q-41.7 -82.95 -50.8 -79.95 -50.85 -79.85 -50.9 -79.9 L-50.95 -79.8 M-76.4 155.0 L-71.6 156.9 -67.35 158.6 Q-58.65 160.95 -46.75 158.85 L-42.1 157.8 Q-42.5 155.85 -45.4 152.7 L-46.85 151.2 Q-48.4 149.55 -50.1 148.25 -52.7 146.15 -55.6 144.7 L-55.8 144.6 Q-56.85 143.95 -57.9 143.5 L-46.95 145.25 -44.4 145.55 -41.9 145.8 -41.35 145.85 -39.9 146.0 Q-33.35 146.35 -26.4 145.05 -23.65 144.45 -21.25 143.6 L-18.05 142.3 -11.4 138.55 -6.4 134.7 Q-0.35 129.15 8.05 119.55 L5.95 120.05 0.55 121.3 -4.2 122.05 Q-12.3 123.2 -16.0 122.1 L-16.1 122.15 -16.15 122.15 -15.0 121.75 Q-0.85 115.05 8.85 104.55 15.45 97.65 20.2 89.3 23.9 82.75 26.4 75.2 L27.75 70.75 30.4 58.3 Q32.05 47.15 33.45 34.35 33.5 33.15 33.7 32.15 L34.6 23.2 34.6 23.15 M28.25 33.25 L25.15 38.6 25.1 38.75 25.05 38.85 Q18.7 50.0 18.35 51.2 18.75 49.05 19.2 43.1 19.2 42.1 19.35 41.25 20.05 32.75 19.95 28.65 19.2 2.4 9.45 -25.9 L8.25 -29.8 M28.25 33.25 L34.6 23.2 M18.1 51.8 L18.3 51.3 18.35 51.2 M-50.65 -79.5 L-47.0 -75.15 Q-34.65 -60.4 -29.95 -49.6 L-27.95 -44.25 Q-17.45 -14.85 -16.15 7.65 -16.5 5.6 -21.5 -10.5 -22.45 -13.75 -23.35 -16.2 -23.55 -17.1 -23.9 -17.85 -25.65 -23.5 -26.75 -25.75 L-27.6 -27.7 M-28.05 -27.4 Q-27.25 -11.15 -29.25 4.25 -29.75 8.95 -30.6 13.8 L-31.0 15.95 Q-35.05 39.25 -45.45 60.1 -47.75 64.7 -50.3 69.0 -53.35 74.0 -56.5 78.45 L-95.3 112.1 -95.8 112.35 -99.45 114.1 -99.85 114.2 -92.35 131.4 Q-88.65 139.05 -84.9 147.05 L-82.5 151.8 M-82.25 152.35 L-82.4 152.55 -82.3 152.65 -76.4 155.0 M-16.05 8.8 L-16.15 7.65" fill="none" stroke="#666666" stroke-linecap="round" stroke-linejoin="miter-clip" stroke-miterlimit="3.0" stroke-width="1.2000000000000002"/>
  </g>
</svg>
