<?xml version="1.0" encoding="UTF-8" standalone="no"?>
<svg xmlns:xlink="http://www.w3.org/1999/xlink" height="25.9px" width="128.7px" xmlns="http://www.w3.org/2000/svg">
  <g transform="matrix(1.0, 0.0, 0.0, 1.0, 19.95, -33.3)">
    <path d="M108.4 53.05 Q106.95 57.5 99.8 58.6 92.7 59.7 84.1 56.85 75.45 53.95 70.45 48.75 65.4 43.65 66.85 39.2 68.35 34.7 75.5 33.6 82.6 32.5 91.25 35.4 99.85 38.25 104.85 43.45 109.9 48.55 108.4 53.05 M-19.6 53.35 Q-21.1 48.85 -16.05 43.75 -11.05 38.55 -2.45 35.7 6.2 32.8 13.3 33.9 20.45 35.0 21.95 39.5 23.4 43.95 18.35 49.05 13.35 54.25 4.7 57.15 -3.9 60.0 -11.0 58.9 -18.15 57.8 -19.6 53.35" fill="#a4c9de" fill-rule="evenodd" stroke="none"/>
  </g>
</svg>
