<?xml version="1.0" encoding="UTF-8" standalone="no"?>
<svg xmlns:xlink="http://www.w3.org/1999/xlink" height="426.4px" width="301.8px" xmlns="http://www.w3.org/2000/svg">
  <g transform="matrix(1.0, 0.0, 0.0, 1.0, 150.65, 213.2)">
    <path d="M147.4 93.6 Q149.35 95.25 149.9 98.65 L150.25 101.0 149.35 97.45 Q148.6 94.9 147.4 93.6" fill="#ffd9a9" fill-rule="evenodd" stroke="none"/>
    <path d="M142.5 92.35 L142.5 92.4 141.65 92.35 140.55 92.3 142.5 92.35" fill="#d4b68f" fill-rule="evenodd" stroke="none"/>
    <path d="M-96.0 36.8 L-93.95 33.4 Q-90.9 28.05 -88.3 22.85 -85.75 17.65 -83.35 12.0 L-74.25 -10.15 -56.5 -54.4 Q-46.25 -79.6 -37.9 -98.35 -26.95 -123.0 -17.2 -141.3 -10.9 -153.05 -5.35 -161.95 1.85 -173.35 8.55 -181.15 12.3 -185.5 16.85 -189.5 21.35 -193.45 26.2 -196.75 36.15 -203.5 47.2 -207.3 59.0 -211.25 70.25 -211.2 82.55 -211.2 93.05 -206.4 101.75 -202.5 108.5 -195.5 86.85 -203.15 61.95 -204.4 24.0 -198.3 9.15 -172.2 -32.65 -113.9 -94.15 39.85 L-96.0 36.8 M118.85 144.15 L117.45 147.45 Q116.1 150.45 114.65 152.65 113.5 154.5 110.8 157.2 113.45 154.65 114.7 152.7 116.25 150.4 117.6 147.5 L119.0 144.2 123.3 144.4 Q127.2 143.9 131.05 141.2 134.45 138.85 135.35 136.75 L141.6 125.05 141.85 124.55 Q146.25 116.05 146.15 112.2 146.05 108.15 143.85 99.7 L142.9 92.45 143.3 92.4 143.8 92.1 143.85 92.05 144.0 92.05 Q146.05 92.4 147.4 93.6 148.6 94.9 149.35 97.45 L150.25 101.0 Q151.05 104.9 150.55 107.0 L150.55 107.1 150.65 110.8 150.65 110.9 150.4 117.7 150.3 118.75 149.3 124.55 Q147.5 132.45 143.4 137.35 139.15 142.45 127.3 169.15 116.05 194.4 112.3 197.35 107.4 201.15 96.8 202.4 L78.25 203.1 Q70.25 203.1 59.7 188.7 L57.4 185.4 49.7 167.35 49.7 167.25 47.25 144.3 47.1 143.25 44.7 127.45 Q49.55 119.95 54.1 111.7 62.55 96.25 69.85 78.1 76.2 62.1 81.65 42.95 91.1 9.25 96.4 -29.65 98.95 -48.4 100.25 -66.45 101.05 -77.05 101.3 -86.3 L99.85 -66.5 Q98.25 -48.45 95.55 -29.75 89.85 8.9 79.95 42.45 74.65 60.25 67.95 77.35 60.8 95.25 52.35 110.75 42.9 127.95 32.15 141.5 22.1 154.25 10.65 164.25 L-8.0 178.15 -8.45 178.4 Q-15.3 182.7 -24.65 187.15 -43.05 195.95 -58.65 201.45 L-59.05 201.6 Q-72.75 204.95 -82.85 203.5 -102.65 200.65 -105.3 180.5 -107.8 161.85 -95.25 135.9 -82.5 109.6 -60.45 88.65 -47.7 93.15 -29.95 93.7 -23.35 93.95 -16.35 93.55 -0.7 92.8 12.6 89.6 25.55 86.5 29.6 82.75 56.3 58.05 76.7 -1.9 82.75 -19.65 87.6 -38.5 97.7 -95.05 100.55 -115.15 102.95 -131.55 105.1 -149.45 L106.75 -164.1 117.65 -113.15 Q128.65 -60.4 128.65 -51.7 128.65 -44.15 120.35 19.7 112.1 83.6 112.1 87.9 112.1 90.75 111.0 94.8 L108.9 102.6 Q106.35 113.95 109.25 129.3 111.65 142.15 118.85 144.15" fill="#deaea9" fill-rule="evenodd" stroke="none"/>
    <path d="M-96.0 36.8 L-94.15 39.85 Q-32.65 -113.9 9.15 -172.2 24.0 -198.3 61.95 -204.4 86.85 -203.15 108.5 -195.5 L111.4 -192.25 Q118.45 -183.6 122.3 -171.6 123.7 -167.15 125.15 -160.1 L129.85 -136.75 131.8 -125.05 Q135.55 -101.3 136.45 -77.65 137.35 -54.3 135.8 -30.05 134.35 -6.75 131.5 17.45 L128.4 41.1 125.45 64.8 Q124.0 77.35 123.1 88.6 122.05 101.45 121.9 112.4 L122.05 124.35 122.15 130.3 Q122.05 133.65 121.4 136.2 L119.65 141.9 118.85 144.15 Q111.65 142.15 109.25 129.3 106.35 113.95 108.9 102.6 L111.0 94.8 Q112.1 90.75 112.1 87.9 112.1 83.6 120.35 19.7 128.65 -44.15 128.65 -51.7 128.65 -60.4 117.65 -113.15 L106.75 -164.1 105.1 -149.45 Q102.95 -131.55 100.55 -115.15 97.7 -95.05 87.6 -38.5 82.75 -19.65 76.7 -1.9 56.3 58.05 29.6 82.75 25.55 86.5 12.6 89.6 -0.7 92.8 -16.35 93.55 -23.35 93.95 -29.95 93.7 -47.7 93.15 -60.45 88.65 -82.5 109.6 -95.25 135.9 -107.8 161.85 -105.3 180.5 -102.65 200.65 -82.85 203.5 -72.75 204.95 -59.05 201.6 -78.75 208.5 -94.25 210.45 -104.25 211.7 -112.45 210.8 -122.5 209.65 -129.65 205.45 -133.4 203.25 -136.65 199.95 -139.9 196.5 -141.95 192.7 -146.05 185.45 -147.6 175.55 -148.95 167.4 -148.6 157.3 -148.25 148.6 -146.75 139.0 -144.05 122.2 -138.15 103.15 -132.8 85.6 -125.6 68.85 -123.35 67.5 -120.9 65.55 L-116.3 61.65 Q-112.6 58.3 -107.9 53.0 -101.65 45.7 -96.0 36.8 M119.0 144.2 L119.85 141.95 121.65 136.25 Q122.35 133.65 122.5 130.3 L122.45 124.35 Q122.3 118.4 122.45 112.4 122.65 102.95 123.9 88.65 L123.95 86.95 Q126.3 86.5 129.2 88.25 L130.75 89.25 130.8 89.25 134.6 89.1 Q139.45 89.3 142.2 91.7 L142.35 91.8 142.3 91.95 142.3 92.05 142.5 92.35 140.55 92.3 141.65 92.35 142.5 92.4 142.85 92.45 142.9 92.45 143.85 99.7 Q146.05 108.15 146.15 112.2 146.25 116.05 141.85 124.55 L141.6 125.05 135.35 136.75 Q134.45 138.85 131.05 141.2 127.2 143.9 123.3 144.4 L119.0 144.2" fill="#f4ccc1" fill-rule="evenodd" stroke="none"/>
    <path d="M123.95 86.95 L123.9 88.65 Q122.65 102.95 122.45 112.4 122.3 118.4 122.45 124.35 L122.5 130.3 Q122.35 133.65 121.65 136.25 L119.85 141.95 119.0 144.2 117.6 147.5 Q116.25 150.4 114.7 152.7 113.45 154.65 110.8 157.2 113.5 154.5 114.65 152.65 116.1 150.45 117.45 147.45 L118.85 144.15 119.65 141.9 121.4 136.2 Q122.05 133.65 122.15 130.3 L122.05 124.35 121.9 112.4 Q122.05 101.45 123.1 88.6 124.0 77.35 125.45 64.8 L128.4 41.1 131.5 17.45 Q134.35 -6.75 135.8 -30.05 137.35 -54.3 136.45 -77.65 135.55 -101.3 131.8 -125.05 L129.85 -136.75 125.15 -160.1 Q123.7 -167.15 122.3 -171.6 118.45 -183.6 111.4 -192.25 103.7 -201.6 93.05 -206.4 82.55 -211.2 70.25 -211.2 59.0 -211.25 47.2 -207.3 36.15 -203.5 26.2 -196.75 21.35 -193.45 16.85 -189.5 12.3 -185.5 8.55 -181.15 1.85 -173.35 -5.35 -161.95 -10.9 -153.05 -17.2 -141.3 -26.95 -123.0 -37.9 -98.35 -46.25 -79.6 -56.5 -54.4 L-74.25 -10.15 -83.35 12.0 Q-85.75 17.65 -88.3 22.85 -90.9 28.05 -93.95 33.4 -100.45 44.35 -107.9 53.0 -112.6 58.3 -116.3 61.65 L-120.9 65.55 Q-123.35 67.5 -125.6 68.85 -132.8 85.6 -138.15 103.15 -144.05 122.2 -146.75 139.0 -148.25 148.6 -148.6 157.3 -148.95 167.4 -147.6 175.55 -146.05 185.45 -141.95 192.7 -139.9 196.5 -136.65 199.95 -133.4 203.25 -129.65 205.45 -122.5 209.65 -112.45 210.8 -104.25 211.7 -94.25 210.45 -78.75 208.5 -59.05 201.6 L-58.65 201.45 Q-43.05 195.95 -24.65 187.15 -15.3 182.7 -8.45 178.4 L-8.0 178.15 Q-0.75 173.6 6.45 167.75 L10.65 164.25 Q22.1 154.25 32.15 141.5 42.9 127.95 52.35 110.75 60.8 95.25 67.95 77.35 74.65 60.25 79.95 42.45 89.85 8.9 95.55 -29.75 98.25 -48.45 99.85 -66.5 L101.3 -86.3 Q101.05 -77.05 100.25 -66.45 98.95 -48.4 96.4 -29.65 91.1 9.25 81.65 42.95 76.2 62.1 69.85 78.1 62.55 96.25 54.1 111.7 49.55 119.95 44.7 127.45 39.4 135.55 33.7 142.75 21.9 157.8 7.75 169.3 0.2 175.45 -7.4 180.1 -14.35 184.5 -23.75 188.9 -42.75 197.95 -58.0 203.35 -78.2 210.5 -94.0 212.45 -104.45 213.75 -112.7 212.8 -123.05 211.65 -130.65 207.2 -134.65 204.85 -138.05 201.3 -141.4 197.8 -143.7 193.7 -147.95 186.15 -149.6 175.85 -150.95 167.5 -150.6 157.25 -150.25 148.8 -148.7 138.7 -146.1 122.25 -140.1 102.55 -134.2 83.85 -127.35 67.75 L-127.2 67.45 -126.9 67.3 -122.15 64.0 -117.65 60.15 Q-113.55 56.4 -109.4 51.7 -101.95 43.0 -95.7 32.4 -92.65 27.15 -90.1 21.95 -88.15 18.05 -85.15 11.2 -81.25 2.0 -76.1 -10.9 L-58.35 -55.15 Q-48.2 -80.15 -39.7 -99.15 -28.85 -123.65 -18.95 -142.25 -12.9 -153.65 -7.05 -163.0 0.3 -174.7 7.05 -182.45 10.9 -186.95 15.55 -191.0 20.15 -195.05 25.05 -198.4 35.35 -205.4 46.55 -209.2 58.5 -213.25 70.25 -213.2 82.9 -213.2 93.85 -208.25 105.1 -203.15 112.95 -193.5 120.2 -184.45 124.2 -172.2 125.35 -168.7 127.15 -160.55 L131.85 -137.1 133.8 -125.35 Q137.55 -101.45 138.45 -77.7 139.35 -55.25 137.85 -29.9 136.6 -9.95 133.1 17.65 L129.75 41.25 Q127.65 55.6 126.5 64.9 L123.95 86.95" fill="#574a3a" fill-rule="evenodd" stroke="none"/>
    <path d="M44.7 127.45 L47.1 143.15 Q49.7 161.5 49.7 167.25 L49.7 167.35 Q49.8 174.1 57.35 185.3 L59.7 188.6 Q70.25 203.0 78.25 203.0 L96.8 202.3 Q107.4 201.05 112.3 197.25 116.05 194.3 127.3 169.05 139.15 142.35 143.4 137.25 147.45 132.35 149.3 124.55 L150.3 118.65 150.4 117.55 150.65 110.9 150.65 110.8 150.55 107.1 150.55 107.0 Q150.85 105.55 150.25 101.0 L149.75 97.55 Q149.35 95.2 147.9 93.6 146.4 91.95 142.2 91.95 137.0 97.9 139.1 107.5 M123.95 86.95 Q126.3 86.55 129.2 88.25 L130.6 89.15 130.8 89.25 134.6 89.1 Q138.5 89.45 142.05 91.95 L142.2 91.95 M130.6 89.15 L129.2 91.85 Q125.95 97.45 127.9 103.4" fill="none" stroke="#574a3a" stroke-linecap="round" stroke-linejoin="miter-clip" stroke-miterlimit="3.0" stroke-width="1.0"/>
  </g>
</svg>
