<?xml version="1.0" encoding="UTF-8" standalone="no"?>
<svg xmlns:xlink="http://www.w3.org/1999/xlink" height="60.35px" width="86.0px" xmlns="http://www.w3.org/2000/svg">
  <g transform="matrix(1.0, 0.0, 0.0, 1.0, 43.3, 30.2)">
    <path d="M-5.05 19.0 Q-3.45 7.85 -1.9 -0.35 L1.65 -18.1 10.25 -14.35 Q13.9 -12.65 18.45 -11.3 L14.15 8.05 Q13.15 12.5 11.95 24.2 L-5.05 19.0" fill="#eb9baa" fill-rule="evenodd" stroke="none"/>
    <path d="M34.6 -5.1 L34.6 -4.5 42.7 5.55 34.75 29.55 34.6 29.5 33.25 29.15 11.95 24.2 Q13.15 12.5 14.15 8.05 L18.45 -11.3 33.95 -5.35 34.6 -5.1" fill="#f7f8fa" fill-rule="evenodd" stroke="none"/>
    <path d="M-16.15 -25.4 Q-18.45 -14.2 -20.75 -0.6 -22.9 11.8 -23.05 14.25 -31.85 13.05 -37.0 8.8 -42.3 4.45 -42.65 1.25 -43.0 -2.0 -40.25 -4.4 -37.0 -7.1 -31.05 -8.4 -38.0 -11.9 -39.7 -13.85 -41.4 -15.8 -41.1 -18.9 -40.85 -22.0 -38.8 -25.2 -36.0 -29.6 -29.95 -29.6 -26.15 -29.6 -22.3 -28.1 L-16.15 -25.4" fill="#86cef4" fill-rule="evenodd" stroke="none"/>
    <path d="M-23.05 14.25 Q-22.9 11.8 -20.75 -0.6 -18.45 -14.2 -16.15 -25.4 L1.65 -18.1 -1.9 -0.35 Q-3.45 7.85 -5.05 19.0 L-23.05 14.25" fill="#6393cf" fill-rule="evenodd" stroke="none"/>
    <path d="M-23.05 14.25 L-5.05 19.0 11.95 24.2 33.25 29.15 34.6 29.5 34.75 29.55 M1.65 -18.1 L-16.15 -25.4 -22.3 -28.1 Q-26.15 -29.6 -29.95 -29.6 -36.0 -29.6 -38.8 -25.2 -40.85 -22.0 -41.1 -18.9 -41.4 -15.8 -39.7 -13.85 -38.0 -11.9 -31.05 -8.4 -37.0 -7.1 -40.25 -4.4 -43.0 -2.0 -42.65 1.25 -42.3 4.45 -37.0 8.8 -31.85 13.05 -23.05 14.25 M18.45 -11.3 L33.95 -5.35 34.6 -5.1 M1.65 -18.1 L10.25 -14.35 Q13.9 -12.65 18.45 -11.3" fill="none" stroke="#666666" stroke-linecap="round" stroke-linejoin="round" stroke-width="1.2000000000000002"/>
  </g>
</svg>
