<?xml version="1.0" encoding="UTF-8" standalone="no"?>
<svg xmlns:xlink="http://www.w3.org/1999/xlink" height="378.25px" width="93.65px" xmlns="http://www.w3.org/2000/svg">
  <g transform="matrix(1.0, 0.0, 0.0, 1.0, 131.75, 174.9)">
    <path d="M-128.65 97.95 L-128.3 96.2 Q-127.75 93.55 -126.45 92.45 -127.5 93.4 -128.05 95.65 L-128.65 97.95" fill="#ffd9a9" fill-rule="evenodd" stroke="none"/>
    <path d="M-103.65 143.95 L-105.85 136.05 Q-106.4 133.55 -106.5 130.35 L-106.45 124.55 -106.3 112.95 Q-106.45 95.1 -109.15 66.7 -110.4 53.9 -111.6 43.65 L-114.25 20.65 Q-117.0 -5.9 -118.1 -25.45 -118.9 -38.1 -119.1 -50.6 L-119.15 -52.1 Q-119.3 -61.95 -119.1 -71.7 -118.6 -94.55 -115.8 -117.8 L-113.15 -136.65 Q-111.15 -149.45 -108.45 -163.45 -107.3 -169.45 -105.55 -174.7 L-94.2 -173.65 -93.45 -162.3 -98.6 -135.05 -102.7 -112.95 Q-111.95 -61.85 -112.25 -52.1 L-112.25 -51.55 -112.2 -49.8 Q-111.6 -38.55 -105.0 19.75 -97.8 83.55 -97.8 87.75 -97.8 90.6 -96.85 94.7 L-95.0 102.5 Q-92.8 113.85 -95.3 129.15 -97.4 141.95 -103.65 143.95 M-125.95 92.1 L-125.4 91.85 -121.65 91.55 Q-117.8 88.3 -115.4 88.45 L-112.15 88.7 Q-110.1 88.2 -108.2 86.35 -107.05 102.5 -106.8 112.95 L-106.85 124.55 -106.85 130.35 Q-106.75 133.6 -106.1 136.15 -105.15 140.15 -103.8 144.0 L-107.55 144.2 Q-111.0 143.7 -114.35 141.0 -117.3 138.65 -118.1 136.55 L-123.55 124.95 Q-127.6 116.05 -127.5 112.1 -127.4 108.1 -125.5 99.65 L-123.6 92.05 -125.95 92.1" fill="#f4ccc1" fill-rule="evenodd" stroke="none"/>
    <path d="M-103.65 143.95 Q-97.4 141.95 -95.3 129.15 -92.8 113.85 -95.0 102.5 L-96.85 94.7 Q-97.8 90.6 -97.8 87.75 -97.8 83.55 -105.0 19.75 -111.6 -38.55 -112.2 -49.8 L-112.25 -51.55 -112.25 -52.1 Q-111.95 -61.85 -102.7 -112.95 L-98.6 -135.05 -93.45 -162.3 -88.55 -88.9 Q-88.3 -79.15 -87.65 -67.8 L-86.45 -52.1 -86.0 -46.95 -84.55 -32.4 Q-80.2 5.55 -72.75 37.6 -68.25 56.45 -63.25 71.85 -57.55 89.25 -50.45 105.1 -45.15 117.05 -39.1 127.55 L-41.15 143.1 -41.2 143.65 -43.45 167.1 -43.45 167.2 Q-45.85 177.75 -51.05 186.85 L-51.05 186.9 -52.1 188.55 Q-61.35 202.9 -68.3 202.9 L-84.4 202.2 Q-93.7 200.9 -97.9 197.1 -101.25 194.1 -111.0 168.95 -121.4 142.2 -125.05 137.2 L-126.15 135.5 -126.15 135.45 -131.0 118.65 -131.0 118.6 -131.25 107.05 -131.25 107.0 -129.55 101.15 -129.55 101.05 -129.1 99.95 -128.65 97.95 -128.05 95.65 Q-127.5 93.4 -126.45 92.45 L-126.3 92.35 -125.95 92.1 -123.6 92.05 -125.5 99.65 Q-127.4 108.1 -127.5 112.1 -127.6 116.05 -123.55 124.95 L-118.1 136.55 Q-117.3 138.65 -114.35 141.0 -111.0 143.7 -107.55 144.2 L-103.8 144.0 -102.65 147.15 Q-101.4 150.3 -100.15 152.4 L-98.2 155.2 -100.1 152.35 Q-101.25 150.45 -102.5 147.1 L-103.65 143.95" fill="#deaea9" fill-rule="evenodd" stroke="none"/>
    <path d="M-108.2 86.35 L-110.2 66.8 Q-111.6 54.35 -112.95 43.8 L-115.85 20.85 -117.15 9.3 -118.35 -2.2 -120.15 -25.3 -121.1 -50.8 Q-121.3 -61.65 -121.1 -71.75 -120.55 -95.05 -117.75 -118.0 L-115.15 -136.9 Q-113.2 -149.5 -110.4 -163.8 L-109.9 -166.25 -107.6 -174.9 -105.55 -174.75 -107.7 -166.95 -108.45 -163.45 Q-111.15 -149.45 -113.15 -136.65 L-115.8 -117.8 Q-118.6 -94.55 -119.1 -71.7 -119.3 -61.2 -119.1 -50.55 -118.9 -38.1 -118.1 -25.45 -117.0 -5.9 -114.25 20.65 L-111.6 43.65 Q-110.4 53.9 -109.15 66.7 -106.45 95.1 -106.3 112.95 L-106.45 124.55 -106.5 130.35 Q-106.4 133.55 -105.85 136.05 L-103.65 143.95 -102.5 147.1 Q-101.25 150.45 -100.1 152.35 L-98.2 155.2 -100.15 152.4 Q-101.4 150.3 -102.65 147.15 L-103.8 144.0 Q-105.15 140.15 -106.1 136.15 -106.75 133.6 -106.85 130.35 L-106.85 124.55 -106.8 112.95 Q-107.05 102.5 -108.2 86.35 M-39.1 127.55 L-39.6 126.65 -39.55 126.65 -38.1 129.05 -38.1 129.25 -39.1 127.55" fill="#574a3a" fill-rule="evenodd" stroke="none"/>
    <path d="M-108.2 86.35 Q-110.1 88.2 -112.15 88.7 -109.8 90.9 -109.95 99.75 M-118.9 104.05 Q-117.15 96.05 -121.65 91.55 L-125.4 91.85 -125.95 92.1 -126.3 92.35 -126.45 92.45 Q-127.75 93.55 -128.3 96.2 L-128.65 97.95 -129.1 99.95 -129.55 101.05 -129.55 101.15 Q-131.25 105.4 -131.25 107.0 L-131.25 107.05 -131.0 118.6 -131.0 118.65 Q-130.0 129.15 -126.15 135.45 L-125.05 137.15 Q-121.4 142.15 -111.0 168.9 -101.25 194.05 -97.9 197.05 -93.7 200.85 -84.4 202.15 L-68.3 202.85 Q-61.35 202.85 -52.1 188.5 L-51.05 186.9 -51.05 186.85 Q-43.5 174.45 -43.45 167.2 L-43.45 167.1 Q-43.45 161.4 -41.2 143.65 L-41.15 143.05 -39.1 127.55 M-112.15 88.7 L-115.4 88.45 Q-117.8 88.3 -121.65 91.55" fill="none" stroke="#574a3a" stroke-linecap="round" stroke-linejoin="miter-clip" stroke-miterlimit="3.0" stroke-width="1.0"/>
  </g>
</svg>
