<?xml version="1.0" encoding="UTF-8" standalone="no"?>
<svg xmlns:xlink="http://www.w3.org/1999/xlink" height="104.6px" width="98.6px" xmlns="http://www.w3.org/2000/svg">
  <g transform="matrix(1.0, 0.0, 0.0, 1.0, 129.5, 26.85)">
    <path d="M-92.3 58.7 L-103.0 55.05 -103.9 54.75 -104.9 54.4 -109.05 52.9 Q-109.0 52.85 -115.95 49.9 -122.95 46.95 -124.75 43.25 -126.6 39.55 -127.7 32.4 -128.8 25.2 -128.7 21.6 -128.6 18.0 -127.7 9.95 -125.95 -6.1 -121.15 -23.65 L-120.05 -24.6 -119.9 -24.7 -117.05 4.7 -116.95 4.65 -116.9 5.5 Q-116.5 9.05 -111.35 13.9 -106.2 18.65 -105.2 18.3 L-103.6 18.2 -102.9 18.4 -102.5 18.4 -101.9 18.6 -85.8 23.2 -86.55 31.3 Q-86.05 36.45 -88.25 45.75 -90.1 53.7 -92.3 58.7" fill="#f5e9eb" fill-rule="evenodd" stroke="none"/>
    <path d="M-31.55 49.25 Q-31.9 53.1 -39.25 55.5 L-42.8 55.8 -41.65 56.65 Q-39.5 57.75 -37.3 62.65 -36.0 65.55 -35.3 67.9 -34.8 69.95 -35.8 72.25 -37.4 75.35 -41.85 76.75 L-46.55 76.9 -47.0 77.15 -57.7 72.8 Q-56.7 69.15 -54.15 56.35 -51.75 44.2 -51.7 42.85 L-31.55 49.25" fill="#86cef4" fill-rule="evenodd" stroke="none"/>
    <path d="M-57.7 72.8 L-75.5 65.5 Q-73.95 60.65 -69.55 37.05 L-51.7 42.85 Q-51.75 44.2 -54.15 56.35 -56.7 69.15 -57.7 72.8" fill="#6393cf" fill-rule="evenodd" stroke="none"/>
    <path d="M-85.8 23.2 L-69.25 28.2 -69.8 36.8 -86.55 31.3 -85.8 23.2" fill="#f7a3b3" fill-rule="evenodd" stroke="none"/>
    <path d="M-51.0 33.7 L-39.7 37.1 -39.55 37.4 Q-37.4 37.8 -34.6 40.75 -32.2 43.4 -31.7 45.2 -31.45 48.45 -31.55 49.25 L-51.7 42.85 Q-51.3 40.1 -51.0 33.7" fill="#8cd7ff" fill-rule="evenodd" stroke="none"/>
    <path d="M-68.8 28.4 L-51.0 33.7 Q-51.3 40.1 -51.7 42.85 L-69.55 37.05 -68.8 28.4" fill="#6a9dde" fill-rule="evenodd" stroke="none"/>
    <path d="M-69.25 28.2 L-68.8 28.4 -69.55 37.05 Q-73.95 60.65 -75.5 65.5 L-92.3 58.7 Q-90.1 53.7 -88.25 45.75 -86.05 36.45 -86.55 31.3 L-69.8 36.8 -69.25 28.2" fill="#eb9baa" fill-rule="evenodd" stroke="none"/>
    <path d="M-114.15 50.95 L-104.9 54.2 -103.9 54.55 -92.3 58.7 -47.0 77.15 -46.55 76.9 -41.85 76.75 Q-37.4 75.35 -35.8 72.25 -34.8 69.95 -35.3 67.9 -36.0 65.55 -37.3 62.65 -39.5 57.75 -41.65 56.65 L-42.8 55.8 -39.25 55.5 Q-31.9 53.1 -31.55 49.25 -31.45 48.45 -31.7 45.2 -32.2 43.4 -34.6 40.75 -37.4 37.8 -39.55 37.4 L-39.7 37.1 -68.8 28.4 -69.25 28.2 -85.8 23.2 Q-93.4 20.15 -101.9 18.55 L-102.5 18.4 -102.9 18.35 -104.4 18.1 -104.85 18.0" fill="none" stroke="#666666" stroke-linecap="round" stroke-linejoin="round" stroke-width="1.2000000000000002"/>
    <path d="M-114.15 50.95 Q-140.3 44.7 -120.05 -26.25" fill="none" stroke="#666666" stroke-linecap="round" stroke-linejoin="miter-clip" stroke-miterlimit="3.0" stroke-width="1.2000000000000002"/>
    <path d="M-104.6 17.4 L-104.6 17.45 Q-104.05 17.6 -104.25 18.2 -104.5 18.75 -105.05 18.55 L-105.5 18.35 -105.65 18.3 -105.8 18.2 -107.8 17.2 -108.1 17.0 Q-108.25 16.95 -108.45 16.85 L-109.45 16.2 -110.45 15.45 -113.05 12.95 -114.15 11.5 -115.1 10.0 -115.4 9.4 -115.5 9.25 -116.3 7.5 -116.35 7.3 -116.45 7.15 -117.2 4.7 -117.3 4.25 -117.25 4.15 Q-117.15 4.05 -117.15 4.2 L-117.05 4.4 -117.0 4.65 -116.9 5.0 -116.05 7.15 -115.65 8.0 -115.45 8.3 -115.0 9.2 -112.55 12.45 -111.25 13.7 -108.6 15.6 -107.65 16.1 -107.35 16.3 -105.4 17.15 -105.2 17.2 -104.8 17.35 -104.6 17.4" fill="#666666" fill-rule="evenodd" stroke="none"/>
  </g>
</svg>
