<?xml version="1.0" encoding="UTF-8" standalone="no"?>
<svg xmlns:xlink="http://www.w3.org/1999/xlink" height="16.5px" width="82.4px" xmlns="http://www.w3.org/2000/svg">
  <g transform="matrix(1.0, 0.0, 0.0, 1.0, 42.6, 7.45)">
    <path d="M35.9 -4.05 L36.25 -3.8 Q38.6 -2.15 39.75 1.25 40.85 4.65 25.15 4.35 L11.45 3.25 10.85 3.8 Q8.6 5.95 8.25 6.75 8.4 6.4 6.9 6.4 4.85 6.4 3.85 5.05 2.9 3.85 -0.85 4.15 -2.0 4.25 -2.8 3.2 L-4.15 1.55 Q-6.4 0.1 -11.45 0.25 L-16.5 0.65 Q-18.8 1.0 -20.9 1.85 -23.05 2.7 -29.5 1.1 L-37.45 -0.8 Q-39.75 -1.15 -39.75 -3.15 -39.75 -4.75 -35.6 -5.75 -31.6 -6.75 -25.7 -6.75 -24.1 -6.75 -17.0 -4.4 -9.95 -2.05 -9.25 -2.05 3.5 -2.05 8.25 -0.85 L10.25 -0.1 15.9 -0.6 Q24.95 -0.75 26.55 -1.5 L29.55 -3.85 30.7 -4.65 31.3 -3.4 32.05 -2.25 31.7 -1.8 30.2 -0.5 Q30.35 0.1 29.95 0.2 L24.0 0.5 Q22.7 0.55 22.7 1.75 22.7 2.85 24.0 3.0 L28.35 3.0 31.2 3.2 Q33.6 3.15 34.7 1.7 L34.8 1.6 35.35 1.65 Q36.75 1.65 36.75 0.2 36.75 -2.2 35.9 -3.8 L35.9 -4.0 35.9 -4.05 M-23.25 -4.85 Q-23.25 -5.5 -23.95 -5.9 -24.8 -6.35 -25.95 -5.4 -26.5 -4.95 -26.6 -4.2 -26.75 -3.95 -27.35 -3.8 L-29.85 -3.6 -30.0 -3.75 -31.25 -3.95 Q-33.05 -3.95 -33.05 -2.75 -33.05 -0.9 -29.1 -0.9 L-28.05 -0.95 Q-26.4 -0.15 -24.3 -0.15 -23.65 -0.15 -23.2 -0.6 L-23.15 -0.65 -22.55 -0.65 Q-21.9 -0.65 -21.5 -1.1 -21.2 -1.5 -21.2 -1.85 -21.2 -3.3 -23.7 -3.45 -23.25 -4.2 -23.25 -4.85 M9.0 2.1 Q9.0 1.05 7.25 0.55 6.25 -0.15 3.85 -0.5 -0.3 -1.1 -0.3 0.6 L-0.3 0.65 -0.45 1.25 Q-0.45 2.9 2.4 2.9 3.5 2.9 3.7 2.1 L4.6 2.4 5.9 2.85 Q6.45 3.35 7.55 3.35 8.25 3.35 8.65 2.9 L9.0 2.1 M-1.05 0.1 Q-1.05 -1.05 -2.5 -1.05 -3.95 -1.05 -3.95 0.15 -4.05 1.4 -2.5 1.4 -1.05 1.4 -1.05 0.1" fill="#ffffff" fill-opacity="0.8" fill-rule="evenodd" stroke="none"/>
    <path d="M30.7 -4.65 L30.3 -5.45 Q30.3 -8.35 32.5 -7.0 L33.55 -6.15 34.45 -6.35 Q35.9 -5.95 35.9 -4.05 L35.9 -4.0 35.9 -3.8 Q36.75 -2.2 36.75 0.2 36.75 1.65 35.35 1.65 L34.8 1.6 34.7 1.7 Q33.6 3.15 31.2 3.2 L28.35 3.0 24.0 3.0 Q22.7 2.85 22.7 1.75 22.7 0.55 24.0 0.5 L29.95 0.2 Q30.35 0.1 30.2 -0.5 L31.7 -1.8 32.05 -2.25 31.3 -3.4 30.7 -4.65 M38.8 6.1 L39.3 8.3 Q39.55 9.4 34.8 8.85 30.0 8.3 32.4 7.45 34.8 6.55 35.4 5.8 36.0 5.0 37.3 5.05 38.6 5.05 38.8 6.1 M9.0 2.1 L8.65 2.9 Q8.25 3.35 7.55 3.35 6.45 3.35 5.9 2.85 L4.6 2.4 3.7 2.1 Q3.5 2.9 2.4 2.9 -0.45 2.9 -0.45 1.25 L-0.3 0.65 -0.3 0.6 Q-0.3 -1.1 3.85 -0.5 6.25 -0.15 7.25 0.55 9.0 1.05 9.0 2.1 M-23.25 -4.85 Q-23.25 -4.2 -23.7 -3.45 -21.2 -3.3 -21.2 -1.85 -21.2 -1.5 -21.5 -1.1 -21.9 -0.65 -22.55 -0.65 L-23.15 -0.65 -23.2 -0.6 Q-23.65 -0.15 -24.3 -0.15 -26.4 -0.15 -28.05 -0.95 L-29.1 -0.9 Q-33.05 -0.9 -33.05 -2.75 -33.05 -3.95 -31.25 -3.95 L-30.0 -3.75 -29.85 -3.6 -27.35 -3.8 Q-26.75 -3.95 -26.6 -4.2 -26.5 -4.95 -25.95 -5.4 -24.8 -6.35 -23.95 -5.9 -23.25 -5.5 -23.25 -4.85 M-6.9 2.7 Q-7.4 3.5 -9.25 3.8 L-11.7 4.05 Q-12.95 4.05 -13.05 2.7 -13.05 1.55 -9.7 1.7 -6.4 1.85 -6.9 2.7 M-1.05 0.1 Q-1.05 1.4 -2.5 1.4 -4.05 1.4 -3.95 0.15 -3.95 -1.05 -2.5 -1.05 -1.05 -1.05 -1.05 0.1 M-37.85 1.7 Q-35.65 3.2 -36.95 3.3 L-40.4 3.05 Q-42.55 2.7 -42.6 1.4 -42.6 0.3 -41.3 0.25 -40.05 0.2 -37.85 1.7" fill="#ffffff" fill-rule="evenodd" stroke="none"/>
  </g>
</svg>
