<?xml version="1.0" encoding="UTF-8" standalone="no"?>
<svg xmlns:xlink="http://www.w3.org/1999/xlink" height="25.35px" width="146.6px" xmlns="http://www.w3.org/2000/svg">
  <g transform="matrix(1.0, 0.0, 0.0, 1.0, 73.3, 12.7)">
    <path d="M64.75 -7.35 Q64.75 -3.45 52.65 -0.95 42.85 1.1 33.35 1.1 L31.35 0.95 29.75 0.5 29.6 -0.15 Q30.25 -0.85 31.95 -1.45 L34.75 -2.65 33.15 -3.25 30.8 -3.8 30.65 -5.8 Q30.65 -8.4 35.1 -9.55 39.25 -10.6 51.35 -11.2 54.5 -10.4 61.55 -10.05 64.75 -9.9 64.75 -7.35 M29.5 -2.9 Q29.5 0.35 26.2 2.1 20.65 5.05 18.7 7.0 L16.35 10.7 Q15.0 12.65 11.75 12.65 11.0 12.65 8.0 11.05 L3.05 8.1 Q2.1 7.45 1.3 7.55 L-2.1 7.9 Q-6.05 7.9 -9.65 6.4 L-12.8 4.85 -18.65 6.1 -25.85 7.5 Q-31.65 7.95 -33.95 10.3 -36.15 12.5 -39.05 12.5 -43.45 12.5 -45.45 10.55 -46.75 9.3 -46.75 8.0 -46.75 4.85 -38.75 -0.95 L-30.6 -6.15 -22.25 -5.05 Q-14.95 -4.15 -12.6 -4.9 7.1 -4.15 24.75 -4.35 L29.05 -4.15 Q29.5 -4.0 29.5 -2.9 M66.2 3.85 L65.6 3.85 65.25 3.7 65.05 3.45 64.85 2.6 Q64.85 2.0 67.7 1.05 70.65 0.05 72.7 0.05 73.7 0.05 73.1 0.2 72.45 1.05 69.8 2.45 67.15 3.85 66.2 3.85 M-33.0 -11.65 L-22.7 -11.35 Q-22.45 -11.45 -22.45 -10.45 -22.45 -8.85 -25.35 -8.4 L-35.1 -7.45 Q-34.75 -6.2 -34.8 -5.35 L-35.2 -5.1 -36.15 -4.9 -41.55 -5.85 -58.8 -6.85 -65.2 -5.95 -71.1 -5.05 -72.8 -5.2 -73.05 -5.45 -73.3 -6.3 Q-73.3 -7.55 -67.7 -8.65 L-59.8 -10.0 Q-58.3 -10.3 -56.8 -11.6 -55.5 -12.7 -54.1 -12.7 L-46.25 -12.15 -33.0 -11.65 M-48.75 -2.0 Q-50.1 -0.75 -57.75 0.05 L-58.8 0.0 -59.0 -0.35 -59.2 -1.25 Q-59.2 -2.35 -56.3 -2.6 L-48.75 -2.0 M-54.25 -10.0 L-52.85 -10.05 -51.85 -10.15 -52.9 -10.15 -54.25 -10.0" fill="#ffffff" fill-opacity="0.69803923" fill-rule="evenodd" stroke="none"/>
  </g>
</svg>
