<?xml version="1.0" encoding="UTF-8" standalone="no"?>
<svg xmlns:xlink="http://www.w3.org/1999/xlink" height="97.45px" width="88.3px" xmlns="http://www.w3.org/2000/svg">
  <g transform="matrix(1.0, 0.0, 0.0, 1.0, 15.65, -28.45)">
    <path d="M32.45 34.95 L26.6 39.3 29.25 37.0 32.45 34.95 29.25 37.0 26.6 39.3 25.7 39.95 Q29.05 36.7 32.95 34.6 L32.45 34.95 M25.6 40.2 Q32.9 52.7 37.05 59.15 L40.75 63.85 43.5 67.35 Q43.5 69.25 38.4 77.8 28.85 93.65 24.55 101.45 21.65 106.7 18.3 117.0 16.5 122.6 13.45 122.6 8.85 122.6 8.0 119.3 7.8 118.7 7.65 111.75 L7.55 111.5 8.35 108.65 9.6 104.35 Q9.25 104.8 8.4 107.75 L7.5 111.4 8.4 107.75 Q9.25 104.8 9.6 104.35 L8.35 108.65 7.55 111.5 7.5 111.4 7.35 110.95 7.25 109.45 Q5.75 113.55 5.6 118.05 5.55 119.5 5.15 119.9 4.7 120.4 3.05 120.4 -2.3 120.4 -4.55 117.4 -6.95 114.25 -7.4 107.25 -7.65 103.85 -7.45 99.55 L-7.25 97.6 Q-7.6 98.35 -8.2 101.75 L-8.8 105.7 -9.3 106.3 -11.7 103.7 -14.75 99.45 -14.95 98.9 Q-15.25 96.25 -14.65 93.15 -15.25 96.25 -14.95 98.9 L-15.05 98.7 -14.9 99.25 -13.7 103.1 -12.75 105.35 -14.15 102.85 Q-15.3 100.5 -15.3 97.3 -15.3 95.45 -14.65 93.15 -13.25 88.2 -8.8 81.15 L-5.8 76.9 Q-0.2 69.4 12.9 53.95 20.55 44.95 25.6 40.2 20.55 44.95 12.9 53.95 -0.2 69.4 -5.8 76.9 L-8.8 81.15 Q-4.45 74.15 2.8 65.15 16.35 48.3 25.55 40.1 L25.6 40.2 M-6.45 97.6 L-5.85 95.25 -4.9 91.8 -5.95 95.35 -6.45 97.6 -6.6 98.25 -7.1 100.65 -7.25 101.85 -7.4 107.25 -7.25 101.85 -7.1 100.65 -6.6 98.25 -6.45 97.6 -5.95 95.35 -4.9 91.8 -5.85 95.25 -6.45 97.6 M-14.9 99.25 L-14.75 100.15 -13.7 103.1 -14.75 100.15 -14.9 99.25 M-1.25 121.1 Q-2.95 120.55 -4.55 119.1 L-3.25 119.9 -2.6 120.25 -1.25 121.1 M-7.9 110.75 L-8.95 110.15 -10.75 108.25 -7.9 110.75" fill="#1e7fae" fill-rule="evenodd" stroke="none"/>
    <path d="M43.85 29.05 L44.05 29.1 71.75 38.85 Q71.9 39.45 70.9 41.85 L69.3 45.25 68.75 46.35 67.5 48.75 67.25 49.35 65.35 52.2 65.2 52.45 Q59.05 62.9 55.6 66.85 L48.45 75.15 48.05 75.6 47.85 75.85 45.25 79.4 41.6 83.9 Q40.45 85.2 38.4 88.55 40.45 85.2 41.6 83.9 L45.25 79.4 38.4 88.55 37.15 90.15 35.25 93.7 33.6 96.45 Q28.35 105.45 25.65 110.8 L22.25 117.95 25.65 110.8 Q28.35 105.45 33.6 96.45 L35.25 93.7 22.25 117.95 20.3 121.55 20.2 122.35 19.85 123.05 18.55 124.25 Q17.2 125.1 15.5 125.3 L12.35 125.0 Q11.05 124.85 9.75 123.45 8.65 122.2 8.05 120.55 L7.8 119.6 7.3 116.5 7.2 113.85 7.2 113.65 7.25 112.75 7.55 111.5 7.25 112.75 7.2 113.65 7.2 113.85 7.3 116.5 7.8 119.6 8.05 120.55 Q8.65 122.2 9.75 123.45 11.05 124.85 12.35 125.0 L15.5 125.3 14.35 125.35 12.7 125.3 11.1 124.85 9.65 123.4 8.3 121.9 Q8.3 121.6 7.9 121.4 L7.0 121.2 6.9 121.2 5.5 121.7 1.15 121.55 Q-1.15 121.05 -2.6 120.25 -1.15 121.05 1.15 121.55 L5.5 121.7 4.0 121.95 Q1.15 122.05 -1.25 121.1 L-2.6 120.25 -3.25 119.9 -4.55 119.1 Q-5.45 118.2 -6.75 114.4 L-7.9 110.75 -10.75 108.25 -12.75 105.35 -13.7 103.1 -14.9 99.25 -15.05 98.7 -14.95 98.9 -14.75 99.45 -11.7 103.7 -9.3 106.3 -8.8 105.7 -8.2 101.75 Q-7.6 98.35 -7.25 97.6 L-7.45 99.55 Q-7.65 103.85 -7.4 107.25 L-7.4 110.7 Q-9.2 110.45 -12.65 105.0 L-13.7 103.1 -12.65 105.0 Q-9.2 110.45 -7.4 110.7 L-7.4 107.25 Q-6.95 114.25 -4.55 117.4 -2.3 120.4 3.05 120.4 4.7 120.4 5.15 119.9 5.55 119.5 5.6 118.05 5.75 113.55 7.25 109.45 L7.35 110.95 7.5 111.4 7.55 111.5 7.65 111.75 Q7.8 118.7 8.0 119.3 8.85 122.6 13.45 122.6 16.5 122.6 18.3 117.0 21.65 106.7 24.55 101.45 28.85 93.65 38.4 77.8 43.5 69.25 43.5 67.35 L40.75 63.85 37.05 59.15 Q32.9 52.7 25.6 40.2 L26.6 39.3 25.6 40.2 25.55 40.1 25.7 39.95 26.6 39.3 32.45 34.95 Q36.45 32.55 43.85 29.05 36.45 32.55 32.45 34.95 L32.95 34.6 Q36.5 31.85 39.6 30.2 42.05 28.9 42.8 28.9 43.8 28.9 43.25 29.3 L43.8 29.0 43.85 29.05 M-14.9 99.25 L-14.95 98.9 -14.9 99.25 M7.25 112.75 L7.5 111.4 7.25 112.75 M8.05 120.55 L7.0 121.2 8.05 120.55 M7.2 113.85 Q7.05 116.75 7.8 119.6 7.05 116.75 7.2 113.85 M-7.4 110.7 Q-7.35 112.3 -6.1 115.35 -4.85 118.5 -3.85 119.4 L-3.25 119.9 -3.85 119.4 Q-4.85 118.5 -6.1 115.35 -7.35 112.3 -7.4 110.7" fill="#2e6088" fill-rule="evenodd" stroke="none"/>
    <path d="M44.05 29.1 L43.85 29.05 Q36.45 32.55 32.45 34.95 L29.25 37.0 26.6 39.3 25.6 40.2 Q20.55 44.95 12.9 53.95 -0.2 69.4 -5.8 76.9 L-8.8 81.15 Q-13.3 87.75 -14.3 91.65 L-14.65 93.15 Q-15.25 96.25 -14.95 98.9 L-14.9 99.25 -14.75 100.15 -13.7 103.1 -12.65 105.0 Q-9.2 110.45 -7.4 110.7 L-7.4 107.25 -7.25 101.85 -7.1 100.65 -6.6 98.25 -6.45 97.6 -5.95 95.35 -4.9 91.8 -5.85 95.25 -6.45 97.6 M7.55 111.5 L7.25 112.75 7.2 113.65 7.2 113.85 7.3 116.5 7.8 119.6 8.05 120.55 Q8.65 122.2 9.75 123.45 11.05 124.85 12.35 125.0 L15.5 125.3 16.2 125.25 Q18.75 125.1 19.65 123.4 L19.85 123.05 20.2 122.35 22.0 118.45 22.25 117.95 25.65 110.8 Q28.35 105.45 33.6 96.45 L35.25 93.7 38.4 88.55 Q40.45 85.2 41.6 83.9 L45.25 79.4 48.4 75.45 Q53.5 69.1 56.05 66.5 57.95 64.55 64.55 53.85 71.9 41.95 72.05 38.75 M7.5 111.4 L8.4 107.75 Q9.25 104.8 9.6 104.35 L8.35 108.65 7.55 111.5 M7.5 111.4 L7.25 112.75 M7.0 121.2 L8.05 120.55 M5.5 121.7 L7.0 121.2 M7.8 119.6 Q7.05 116.75 7.2 113.85 M-2.6 120.25 Q-1.15 121.05 1.15 121.55 L5.5 121.7 M-3.25 119.9 L-3.85 119.4 Q-4.85 118.5 -6.1 115.35 -7.35 112.3 -7.4 110.7 M-3.25 119.9 L-2.6 120.25" fill="none" stroke="#4a4f58" stroke-linecap="round" stroke-linejoin="miter-clip" stroke-miterlimit="3.0" stroke-width="1.2000000000000002"/>
  </g>
</svg>
