<?xml version="1.0" encoding="UTF-8" standalone="no"?>
<svg xmlns:xlink="http://www.w3.org/1999/xlink" height="95.85px" width="96.5px" xmlns="http://www.w3.org/2000/svg">
  <g transform="matrix(1.0, 0.0, 0.0, 1.0, -6.65, -18.25)">
    <path d="M58.25 24.55 Q59.8 28.5 67.3 39.55 74.75 50.6 83.1 58.65 91.45 66.65 97.9 70.65 99.6 72.2 100.85 74.8 102.05 77.35 101.6 83.45 101.25 86.15 99.1 88.1 L95.45 90.95 94.9 91.25 Q94.35 91.55 94.0 92.15 93.35 93.1 92.75 94.95 L92.1 96.45 92.05 96.65 92.0 96.6 91.75 97.2 91.5 97.7 91.1 98.8 89.55 101.9 Q87.9 104.5 85.45 104.5 83.35 104.5 81.8 103.3 L81.25 102.9 Q81.0 101.95 79.95 101.5 L79.1 101.25 78.05 101.2 Q77.3 101.3 77.05 101.85 L75.05 103.8 Q73.65 105.3 72.35 105.3 71.25 105.05 69.95 103.9 67.4 101.7 66.0 97.45 L62.15 87.75 Q59.45 81.35 59.45 80.8 L58.6 77.7 57.75 75.35 56.15 69.05 55.05 62.0 54.6 60.6 50.25 54.0 Q47.8 50.4 47.8 45.95 47.8 42.0 50.95 40.3 54.75 38.25 55.15 37.3 55.7 36.05 58.25 24.55" fill="#ef8410" fill-rule="evenodd" stroke="none"/>
    <path d="M101.6 83.45 L101.6 83.5 101.75 83.9 Q101.0 90.8 99.9 93.95 98.75 97.1 97.3 97.7 95.8 98.3 95.25 97.5 94.65 96.7 94.3 97.65 94.15 96.4 94.0 96.8 L93.1 99.7 Q92.35 101.6 91.7 101.65 91.0 105.6 89.3 108.4 87.0 112.15 84.1 112.15 81.5 112.15 79.95 111.45 78.35 110.7 78.75 109.6 78.95 109.2 78.7 109.1 L77.2 108.8 76.75 110.6 Q75.9 113.0 73.85 113.0 70.45 113.0 68.35 111.65 66.2 110.25 61.45 105.4 L54.05 97.65 Q51.35 94.75 48.55 86.35 45.7 77.9 43.8 75.35 41.9 72.8 41.1 70.65 40.3 68.5 36.4 65.2 25.6 58.75 17.0 50.65 8.35 42.55 8.05 37.8 7.75 33.0 10.35 31.75 L18.0 28.05 Q36.4 19.2 37.6 19.1 L39.35 19.05 41.55 19.2 49.35 19.45 Q52.9 20.45 55.6 21.8 L58.55 23.3 58.25 24.55 Q55.7 36.05 55.15 37.3 54.75 38.25 50.95 40.3 47.8 42.0 47.8 45.95 47.8 50.4 50.25 54.0 L54.6 60.6 55.05 62.0 56.15 69.05 57.75 75.35 58.6 77.7 59.45 80.8 Q59.45 81.35 62.15 87.75 L66.0 97.45 Q67.4 101.7 69.95 103.9 71.25 105.05 72.35 105.3 73.65 105.3 75.05 103.8 L77.05 101.85 Q77.3 101.3 78.05 101.2 L79.1 101.25 79.95 101.5 Q81.0 101.95 81.25 102.9 L81.8 103.3 Q83.35 104.5 85.45 104.5 87.9 104.5 89.55 101.9 L91.1 98.8 91.5 97.7 91.75 97.2 92.0 96.6 92.05 96.65 92.1 96.45 92.75 94.95 Q93.35 93.1 94.0 92.15 94.35 91.55 94.9 91.25 L95.45 90.95 99.1 88.1 Q101.25 86.15 101.6 83.45" fill="#cb6e0e" fill-rule="evenodd" stroke="none"/>
    <path d="M79.25 90.05 Q81.1 98.75 77.3 109.8 L77.9 109.4 Q81.3 113.45 85.75 111.5 92.6 106.25 93.0 96.95 95.5 87.9 91.75 78.85 M58.35 23.0 Q66.0 43.55 80.75 55.4 L100.2 73.1 Q105.4 80.55 99.05 96.75 96.75 99.5 93.1 96.75 L93.0 96.95 M77.3 109.8 Q76.75 113.75 71.3 113.5 61.45 108.6 51.9 94.1 50.1 84.9 38.15 66.9 36.65 65.45 29.15 61.05 21.6 56.6 8.1 39.25 5.55 33.85 10.6 31.05 L37.1 19.35" fill="none" stroke="#000000" stroke-linecap="round" stroke-linejoin="miter-clip" stroke-miterlimit="3.0" stroke-width="1.2000000000000002"/>
    <path d="M37.1 19.35 Q48.55 17.35 58.35 23.0" fill="none" stroke="#000000" stroke-linecap="round" stroke-linejoin="round" stroke-width="1.2000000000000002"/>
  </g>
</svg>
