<?xml version="1.0" encoding="UTF-8" standalone="no"?>
<svg xmlns:xlink="http://www.w3.org/1999/xlink" height="94.05px" width="77.15px" xmlns="http://www.w3.org/2000/svg">
  <g transform="matrix(1.0, 0.0, 0.0, 1.0, -27.15, -26.45)">
    <path d="M103.45 95.2 L103.55 94.85 103.5 95.05 103.35 95.8 102.95 96.65 101.65 100.75 100.15 102.7 99.0 104.2 97.55 105.9 97.35 106.1 94.35 108.45 Q94.25 109.6 93.35 111.1 L91.25 114.1 88.7 115.4 Q85.9 116.7 82.8 117.5 L82.25 117.65 82.2 117.65 Q82.55 117.5 82.75 116.85 83.1 115.65 83.35 109.55 84.2 114.4 85.15 114.4 87.6 113.85 90.0 111.9 94.85 108.0 95.15 101.1 95.2 102.4 95.5 103.3 95.75 104.05 96.05 104.1 L99.6 100.65 102.95 96.65 103.45 95.2 M79.75 119.2 L79.6 119.25 74.35 119.85 72.25 119.5 Q71.05 119.1 70.45 118.5 L70.05 116.3 Q68.1 108.2 66.0 102.45 63.9 96.65 58.5 85.55 53.1 74.45 29.2 52.8 L28.8 51.9 28.2 49.05 Q27.65 45.5 27.75 41.2 L55.85 27.05 58.15 29.45 60.25 32.6 65.7 38.95 51.75 53.8 Q47.55 58.35 47.55 58.95 47.55 59.35 52.7 66.4 58.85 74.85 62.35 81.85 L64.4 87.15 Q66.25 92.2 68.85 98.05 71.2 103.3 72.4 107.65 L73.65 112.6 Q74.2 114.25 75.65 115.25 76.95 116.2 81.3 118.1 L79.75 119.2" fill="#2e6088" fill-rule="evenodd" stroke="none"/>
    <path d="M65.7 38.95 Q68.5 42.5 72.25 46.2 L88.65 62.15 Q97.55 71.3 101.1 78.2 105.65 87.0 103.45 95.2 L102.95 96.65 99.6 100.65 96.05 104.1 Q95.75 104.05 95.5 103.3 95.2 102.4 95.15 101.1 94.85 108.0 90.0 111.9 87.6 113.85 85.15 114.4 84.2 114.4 83.35 109.55 83.1 115.65 82.75 116.85 82.55 117.5 82.2 117.65 L82.25 117.65 79.75 119.2 81.3 118.1 Q76.95 116.2 75.65 115.25 74.2 114.25 73.65 112.6 L72.4 107.65 Q71.2 103.3 68.85 98.05 66.25 92.2 64.4 87.15 L62.35 81.85 Q58.85 74.85 52.7 66.4 47.55 59.35 47.55 58.95 47.55 58.35 51.75 53.8 L65.7 38.95 M103.35 95.8 Q102.65 98.75 101.65 100.75 L102.95 96.65 103.35 95.8 M91.25 114.1 Q90.2 115.45 87.1 116.6 84.25 117.65 82.8 117.5 85.9 116.7 88.7 115.4 L91.25 114.1 M79.6 119.25 L74.35 119.85 79.6 119.25" fill="#1e7fae" fill-rule="evenodd" stroke="none"/>
    <path d="M92.75 92.9 L93.8 95.1 Q94.65 97.35 94.8 98.65 L94.85 100.75 94.85 101.35 Q94.85 105.15 94.4 108.45 101.3 103.65 103.0 97.55 104.25 93.05 103.25 84.05 102.5 77.4 92.3 66.15 L77.85 51.6 66.4 38.75 55.9 27.05 M94.4 108.45 Q94.2 109.7 93.1 111.6 91.9 113.6 90.55 114.8 89.15 115.95 86.55 116.8 84.05 117.6 82.4 117.45 82.05 118.3 80.1 119.05 L76.8 119.9 72.8 119.55 Q70.2 119.0 70.15 117.6 70.15 115.3 69.45 111.45 68.55 106.35 66.95 102.2 65.0 97.4 60.25 89.05 55.3 80.4 51.15 74.75 45.05 66.4 35.95 58.9 L30.25 54.45 Q28.9 53.5 28.25 48.95 27.65 44.95 27.8 41.2 M94.4 108.45 L94.75 103.65 94.85 101.35 M82.4 117.45 L82.65 116.9 83.1 115.2 83.3 113.1 83.35 112.25 83.4 110.5 83.4 108.1 83.1 104.85 82.35 101.55 82.25 101.25 82.2 101.1 82.2 101.05 81.1 98.05" fill="none" stroke="#4a4f58" stroke-linecap="round" stroke-linejoin="miter-clip" stroke-miterlimit="3.0" stroke-width="1.2000000000000002"/>
  </g>
</svg>
