<?xml version="1.0" encoding="UTF-8" standalone="no"?>
<svg xmlns:xlink="http://www.w3.org/1999/xlink" height="60.95px" width="70.95px" xmlns="http://www.w3.org/2000/svg">
  <g transform="matrix(1.0, 0.0, 0.0, 1.0, -2.3, 0.6)">
    <path d="M2.9 11.05 Q15.65 -0.1 32.7 0.0 40.95 -0.3 42.35 10.4 40.05 25.95 33.1 33.95 18.85 29.95 2.9 11.05 M54.25 50.9 Q57.95 43.3 66.0 38.85 74.35 34.45 72.25 45.0 71.1 54.75 67.1 59.75 60.0 59.5 54.25 50.9" fill="#f5e9eb" fill-rule="evenodd" stroke="none"/>
    <path d="M54.25 50.9 Q60.0 59.5 67.1 59.75 71.1 54.75 72.25 45.0 74.35 34.45 66.0 38.85 57.95 43.3 54.25 50.9 M2.9 11.05 Q18.85 29.95 33.1 33.95 40.05 25.95 42.35 10.4 40.95 -0.3 32.7 0.0 15.65 -0.1 2.9 11.05" fill="none" stroke="#666666" stroke-linecap="round" stroke-linejoin="round" stroke-width="1.2000000000000002"/>
  </g>
</svg>
