<?xml version="1.0" encoding="UTF-8" standalone="no"?>
<svg xmlns:xlink="http://www.w3.org/1999/xlink" height="83.3px" width="75.25px" xmlns="http://www.w3.org/2000/svg">
  <g transform="matrix(1.0, 0.0, 0.0, 1.0, -23.6, -29.8)">
    <path d="M87.9 85.35 L88.0 85.3 Q92.25 89.85 92.8 91.2 93.45 92.65 95.7 92.25 96.25 92.9 97.35 88.05 97.9 90.7 98.15 90.3 L97.6 94.25 Q98.0 100.0 95.55 99.55 93.1 99.05 91.6 102.2 88.25 109.2 82.5 107.9 L83.1 108.05 Q80.35 108.15 78.85 111.45 77.1 112.85 74.2 112.85 L67.1 102.65 Q57.05 88.5 42.65 70.2 33.0 57.95 28.85 50.25 26.95 46.65 24.2 39.0 L55.5 30.4 62.1 34.75 Q66.25 37.5 72.15 43.25 73.15 67.35 65.05 67.85 56.9 68.3 55.3 71.1 54.15 75.0 64.75 92.5 75.4 109.95 76.75 108.95 78.1 107.95 79.75 107.15 81.4 106.35 82.15 100.65 L82.5 101.8 82.15 100.2 82.15 99.25 83.1 101.3 84.05 103.4 84.85 104.3 Q85.45 105.0 87.55 101.8 89.6 98.6 92.25 96.65 92.2 93.3 89.95 88.85 88.9 86.75 87.9 85.35" fill="#dd7e8f" fill-rule="evenodd" stroke="none"/>
    <path d="M87.9 85.35 L87.8 85.45 Q88.95 87.25 90.2 90.15 91.85 94.2 92.25 96.65 89.6 98.6 87.55 101.8 85.45 105.0 84.85 104.3 L84.05 103.4 83.1 101.3 82.15 99.25 82.15 100.2 82.5 101.8 82.15 100.65 Q81.4 106.35 79.75 107.15 78.1 107.95 76.75 108.95 75.4 109.95 64.75 92.5 54.15 75.0 55.3 71.1 56.9 68.3 65.05 67.85 73.15 67.35 72.15 43.25 86.4 61.8 91.55 72.95 96.7 84.1 97.2 86.5 97.7 88.9 97.35 88.05 96.25 92.9 95.7 92.25 93.45 92.65 92.8 91.2 92.25 89.85 88.0 85.3 L87.9 85.35" fill="#ed99ac" fill-rule="evenodd" stroke="none"/>
    <path d="M55.5 30.4 Q71.1 40.15 82.55 56.7 92.5 70.95 98.1 88.25 99.2 101.05 92.55 100.05 92.25 103.1 89.65 105.7 87.05 108.3 81.9 107.7 M87.65 85.0 Q88.2 85.05 90.6 90.05 93.0 95.0 92.65 98.6 L92.55 100.05 M76.05 88.7 Q82.6 98.3 82.6 103.0 82.6 106.3 80.25 109.4 77.95 112.5 75.85 112.5 73.8 112.5 72.3 110.9 70.8 109.3 64.85 99.1 58.9 88.9 46.25 74.6 33.6 60.3 28.95 51.05 27.6 48.3 26.35 44.55 L24.2 39.0" fill="none" stroke="#666666" stroke-linecap="round" stroke-linejoin="miter-clip" stroke-miterlimit="3.0" stroke-width="1.2000000000000002"/>
  </g>
</svg>
