<?xml version="1.0" encoding="UTF-8" standalone="no"?>
<svg xmlns:xlink="http://www.w3.org/1999/xlink" height="130.55px" width="139.45px" xmlns="http://www.w3.org/2000/svg">
  <g transform="matrix(1.0, 0.0, 0.0, 1.0, 21.0, -23.65)">
    <path d="M118.45 65.8 L116.85 65.75 Q110.6 65.75 107.3 67.9 101.6 71.65 94.95 84.1 94.55 84.25 94.25 85.0 L93.8 86.3 86.25 101.2 Q84.75 104.3 84.15 104.9 56.05 127.45 55.5 127.45 54.7 127.45 53.85 128.45 L51.05 131.7 Q44.95 138.3 31.7 146.85 24.8 151.3 22.0 152.7 19.05 154.2 16.85 154.2 14.3 154.2 -13.3 123.35 L-14.6 125.25 Q-17.25 125.25 -17.25 123.35 -17.25 122.85 -16.75 122.6 -16.3 122.3 -16.3 121.8 -16.3 121.3 -17.0 120.55 -17.7 119.8 -17.7 119.3 -17.7 117.5 -16.95 116.5 -16.25 115.5 -16.25 114.95 -16.25 113.95 -16.75 112.95 -18.15 113.9 -18.85 114.8 L-19.95 113.25 -20.55 112.2 Q-20.55 108.2 -19.2 105.35 L-17.15 101.0 Q-16.45 99.5 -14.95 97.75 L-12.9 95.1 -13.65 95.05 -19.55 97.85 Q-18.9 95.25 -12.3 89.55 L-5.15 83.85 -5.05 83.8 -5.7 83.7 -8.15 84.0 -11.85 84.45 Q-3.8 78.65 6.8 67.85 15.2 59.25 16.45 59.25 L17.2 59.0 17.35 58.4 16.45 57.75 15.7 56.95 Q17.5 54.65 18.45 53.85 19.4 53.05 21.85 52.15 24.3 51.2 29.4 46.7 31.0 46.7 32.4 44.05 32.25 43.2 31.65 43.2 31.0 43.2 30.7 43.7 L30.1 43.85 Q30.0 43.8 30.05 43.45 L30.1 43.0 25.7 44.05 Q53.75 30.2 53.95 30.9 L53.75 29.0 50.95 28.65 62.7 26.15 Q70.95 24.55 74.85 24.55 93.15 24.55 104.1 39.35 107.8 44.3 111.95 52.8 L118.45 65.8" fill="#ef8410" fill-rule="evenodd" stroke="none"/>
    <path d="M99.95 73.95 L101.95 74.0 Q99.6 75.6 95.3 84.1 94.65 83.95 94.25 85.0 93.95 85.6 93.6 86.95 L91.5 90.9 91.6 91.35 91.6 91.4 85.7 102.15 Q84.05 104.8 78.65 109.7 73.85 114.0 70.15 116.65 L62.85 122.7 Q57.0 127.45 55.5 127.45 L49.45 132.7 Q41.15 140.1 32.45 147.1 31.4 147.95 27.35 149.9 L25.75 150.65 20.95 153.35 19.15 153.95 Q14.45 153.95 4.45 144.95 -6.5 135.2 -13.3 123.35 -13.35 124.25 -14.0 124.8 -14.5 125.25 -14.9 125.25 -16.2 125.25 -16.8 124.55 -17.25 124.05 -17.25 123.35 -17.25 122.85 -16.75 122.5 -16.3 122.15 -16.3 121.65 L-17.0 120.45 -17.7 119.3 Q-17.7 118.55 -16.95 116.85 L-16.25 115.1 -16.35 113.95 -16.75 112.95 -18.85 114.8 -20.55 112.2 Q-20.55 107.8 -19.15 105.2 -17.75 102.55 -17.5 101.05 -17.3 99.55 -16.3 99.2 -15.35 98.85 -14.85 97.55 -14.35 96.2 -13.45 95.55 L-12.9 95.15 Q-12.9 94.55 -13.25 94.75 L-13.65 95.05 Q-13.95 95.35 -15.1 95.85 L-19.55 97.85 Q-20.35 94.75 -13.05 89.2 L-5.15 83.85 -5.05 83.8 -5.7 83.7 -7.1 84.2 -8.75 84.65 Q-9.3 84.65 -9.35 84.45 L-9.55 84.2 -11.65 84.3 Q-12.65 84.35 -12.75 83.95 L-9.2 80.15 Q-7.55 78.55 -4.2 77.35 -0.7 73.05 5.6 68.55 11.9 64.05 11.6 63.9 L11.0 63.35 15.25 62.1 Q19.0 60.75 22.3 58.75 16.1 63.8 10.95 82.85 5.9 101.4 5.9 113.5 5.9 120.85 8.85 125.45 11.9 130.25 17.6 131.2 30.65 133.45 51.8 116.05 L66.65 100.4 Q76.75 89.55 79.1 86.5 81.55 83.3 87.05 79.35 94.5 73.95 99.95 73.95 M51.2 29.05 L50.95 28.65 58.6 26.6 Q66.0 24.75 68.55 24.85 L70.05 24.9 59.45 28.75 Q52.95 31.0 51.2 29.05" fill="#cc6f0f" fill-rule="evenodd" stroke="none"/>
    <path d="M78.65 24.5 Q64.8 23.2 50.0 29.15 L56.95 30.35 Q41.85 34.55 26.75 43.3 L33.7 43.05 Q27.7 50.1 13.3 57.4 L18.7 57.2 -14.15 84.9 Q-10.3 83.25 -5.55 84.25 -16.45 89.0 -19.2 97.4 L-12.95 95.3 Q-22.2 104.15 -19.95 115.8 L-16.15 110.85 Q-18.0 116.9 -15.65 127.9 L-14.1 122.35 Q-5.45 135.6 12.25 151.8 17.2 154.9 21.0 152.55 40.55 143.15 53.3 128.65 90.55 104.6 91.2 90.25 96.95 77.6 107.85 67.95" fill="none" stroke="#000000" stroke-linecap="round" stroke-linejoin="miter-clip" stroke-miterlimit="3.0" stroke-width="1.2000000000000002"/>
  </g>
</svg>
