<?xml version="1.0" encoding="UTF-8" standalone="no"?>
<svg xmlns:xlink="http://www.w3.org/1999/xlink" height="25.85px" width="30.75px" xmlns="http://www.w3.org/2000/svg">
  <g transform="matrix(1.0, 0.0, 0.0, 1.0, 15.35, 12.9)">
    <path d="M3.9 -1.8 Q3.9 -3.35 2.0 -3.95 0.05 -4.6 0.05 -2.75 L0.4 -1.7 Q0.85 -0.65 1.65 -0.65 3.9 -0.65 3.9 -1.8 M13.25 3.85 Q15.4 7.75 15.4 10.05 L15.4 11.8 Q15.15 12.95 13.9 12.95 12.6 12.95 11.85 9.8 L11.05 6.4 10.5 4.45 Q9.65 2.6 7.4 0.05 L3.75 -3.95 4.15 -2.45 4.4 -0.9 4.25 0.1 Q3.9 0.5 2.7 0.5 -0.65 0.5 -0.35 -2.8 -0.25 -4.6 -1.4 -5.0 -2.95 -5.2 -3.7 -5.7 -5.85 -7.65 -7.55 -8.5 L-11.9 -8.7 Q-15.35 -8.8 -15.35 -10.4 -15.35 -11.45 -13.15 -12.35 -11.0 -13.25 -10.1 -12.65 L-9.3 -11.75 Q-10.2 -11.75 -10.2 -10.9 L-9.35 -10.05 Q-8.35 -9.2 -7.8 -9.2 -6.85 -9.2 -6.85 -10.0 L-6.95 -10.5 -5.95 -10.2 Q-6.25 -10.05 -6.25 -9.25 L-5.75 -8.3 Q-5.15 -7.4 -4.45 -7.4 -3.8 -7.4 -3.7 -7.7 L-3.55 -8.25 Q-4.0 -9.25 -5.0 -9.95 L-4.35 -9.8 Q0.3 -8.65 3.15 -7.0 L7.45 -3.75 9.35 -1.9 Q8.7 -2.1 8.7 -0.65 L10.25 1.95 Q11.9 4.75 12.4 4.75 13.2 4.75 13.25 3.85 M11.05 6.4 Q13.3 12.7 13.75 12.7 14.65 12.7 14.65 11.45 14.65 8.95 12.85 6.4 11.05 3.85 11.05 6.4" fill="#ffffff" fill-opacity="0.6" fill-rule="evenodd" stroke="none"/>
    <path d="M3.9 -1.8 Q3.9 -0.65 1.65 -0.65 0.85 -0.65 0.4 -1.7 L0.05 -2.75 Q0.05 -4.6 2.0 -3.95 3.9 -3.35 3.9 -1.8 M-9.3 -11.75 L-8.5 -11.65 Q-7.25 -11.25 -6.95 -10.5 L-6.85 -10.0 Q-6.85 -9.2 -7.8 -9.2 -8.35 -9.2 -9.35 -10.05 L-10.2 -10.9 Q-10.2 -11.75 -9.3 -11.75 M-5.95 -10.2 L-5.05 -10.0 -5.0 -9.95 Q-4.0 -9.25 -3.55 -8.25 L-3.7 -7.7 Q-3.8 -7.4 -4.45 -7.4 -5.15 -7.4 -5.75 -8.3 L-6.25 -9.25 Q-6.25 -10.05 -5.95 -10.2 M9.35 -1.9 Q9.95 -1.75 11.0 -0.3 13.25 2.8 13.25 3.7 L13.25 3.85 Q13.2 4.75 12.4 4.75 11.9 4.75 10.25 1.95 L8.7 -0.65 Q8.7 -2.1 9.35 -1.9 M11.05 6.4 Q11.05 3.85 12.85 6.4 14.65 8.95 14.65 11.45 14.65 12.7 13.75 12.7 13.3 12.7 11.05 6.4" fill="#ffffff" fill-opacity="0.8" fill-rule="evenodd" stroke="none"/>
  </g>
</svg>
