<?xml version="1.0" encoding="UTF-8" standalone="no"?>
<svg xmlns:xlink="http://www.w3.org/1999/xlink" height="25.8px" width="30.75px" xmlns="http://www.w3.org/2000/svg">
  <g transform="matrix(1.0, 0.0, 0.0, 1.0, 15.35, 12.85)">
    <path d="M3.85 -2.4 Q3.85 -3.15 3.3 -3.7 2.75 -4.25 2.0 -4.25 1.25 -4.25 0.7 -3.7 0.15 -3.15 0.15 -2.4 0.15 -1.65 0.7 -1.1 1.25 -0.55 2.0 -0.55 2.75 -0.55 3.3 -1.1 3.85 -1.65 3.85 -2.4 M-5.0 -9.95 Q1.95 -7.75 3.25 -6.9 L9.35 -1.9 Q9.35 0.5 10.5 2.2 11.65 3.85 13.25 3.85 14.65 6.0 15.1 7.8 L15.4 10.9 15.25 12.7 13.9 12.95 Q12.95 12.95 12.3 11.3 L11.9 10.0 13.75 12.7 Q14.65 12.6 14.65 11.45 14.65 9.5 13.3 7.35 12.35 5.8 11.05 6.4 10.85 5.45 8.4 2.0 L3.75 -3.95 Q4.5 -1.6 4.25 0.3 L2.95 0.5 Q1.05 0.45 0.5 -0.6 L-0.35 -3.6 Q-0.7 -4.95 -2.05 -5.35 -4.15 -5.95 -5.7 -7.35 -6.8 -8.3 -11.45 -8.55 -15.35 -8.8 -15.35 -10.4 -15.35 -11.6 -13.15 -12.35 L-10.95 -12.85 -10.05 -12.65 -9.3 -11.75 -10.2 -10.9 -8.4 -9.35 -7.8 -9.2 -6.9 -9.4 -6.95 -10.5 -5.95 -10.2 Q-4.05 -8.9 -5.5 -9.65 -6.95 -10.4 -6.25 -9.25 L-5.8 -8.05 -5.75 -7.6 -4.3 -7.4 Q-3.65 -7.4 -3.6 -7.6 L-5.0 -9.95" fill="#ffffff" fill-opacity="0.6" fill-rule="evenodd" stroke="none"/>
    <path d="M3.85 -2.4 Q3.85 -1.65 3.3 -1.1 2.75 -0.55 2.0 -0.55 1.25 -0.55 0.7 -1.1 0.15 -1.65 0.15 -2.4 0.15 -3.15 0.7 -3.7 1.25 -4.25 2.0 -4.25 2.75 -4.25 3.3 -3.7 3.85 -3.15 3.85 -2.4 M9.35 -1.9 L11.55 0.5 Q13.25 2.8 13.25 3.85 11.65 3.85 10.5 2.2 9.35 0.5 9.35 -1.9 M11.9 10.0 L11.5 9.35 Q10.4 7.3 11.05 6.4 12.35 5.8 13.3 7.35 14.65 9.5 14.65 11.45 14.65 12.6 13.75 12.7 L11.9 10.0 M-9.3 -11.75 Q-8.35 -11.75 -7.65 -11.35 -6.95 -11.0 -6.95 -10.5 L-6.9 -9.4 -7.8 -9.2 -8.4 -9.35 -10.2 -10.9 -9.3 -11.75 M-5.95 -10.2 L-5.0 -9.95 -3.6 -7.6 Q-3.65 -7.4 -4.3 -7.4 L-5.75 -7.6 -5.8 -8.05 -6.25 -9.25 Q-6.95 -10.4 -5.5 -9.65 -4.05 -8.9 -5.95 -10.2" fill="#ffffff" fill-opacity="0.8" fill-rule="evenodd" stroke="none"/>
  </g>
</svg>
