<?xml version="1.0" encoding="UTF-8" standalone="no"?>
<svg xmlns:xlink="http://www.w3.org/1999/xlink" height="68.8px" width="45.35px" xmlns="http://www.w3.org/2000/svg">
  <g transform="matrix(1.0, 0.0, 0.0, 1.0, 32.1, 34.4)">
    <path d="M11.45 -29.4 Q11.45 -28.75 11.25 -28.8 11.15 -28.55 10.5 -28.55 9.8 -28.55 7.8 -30.85 5.95 -33.0 5.95 -33.25 5.95 -35.75 8.7 -32.85 L11.45 -29.4 M-6.45 -5.25 L-10.5 -7.8 Q-12.3 -9.05 -12.3 -10.4 -12.3 -11.75 -11.9 -12.15 -10.65 -13.45 -6.05 -13.4 L-2.05 -13.55 -0.1 -11.35 Q0.7 -10.2 0.7 -9.15 0.7 -8.6 0.1 -7.0 L-0.5 -4.9 Q-0.5 -4.35 3.95 3.95 8.35 12.3 8.35 19.05 8.35 21.8 7.8 26.2 L7.5 28.45 Q7.5 25.3 5.95 25.15 4.35 25.0 4.35 27.9 4.35 29.6 3.55 30.2 3.05 30.5 2.85 31.1 L2.85 30.5 Q2.85 28.35 3.7 22.35 L4.5 15.0 Q4.5 13.7 2.8 11.75 L-0.25 8.4 Q-1.0 7.45 -1.45 5.15 -1.85 2.75 -2.4 1.95 -2.9 1.2 -3.3 -1.4 -3.6 -3.05 -4.65 -4.05 -3.6 -4.15 -3.6 -5.2 -3.6 -5.95 -3.8 -5.85 L-4.65 -7.05 -3.0 -7.5 Q-1.55 -8.1 -1.55 -9.0 -1.55 -10.55 -4.6 -10.2 -7.65 -9.9 -7.65 -7.5 L-6.45 -5.25 M7.35 29.45 Q6.65 33.15 5.6 34.4 L3.95 34.4 3.7 34.15 4.25 34.25 Q4.85 34.25 6.15 31.95 L7.35 29.45 M3.6 -0.95 L3.35 -1.35 Q3.35 -1.85 3.7 -2.0 L5.85 -2.25 Q6.7 -2.1 6.7 -1.35 6.7 -0.65 5.85 -0.55 L4.2 -0.55 3.6 -0.95 M13.2 -2.15 Q13.05 -1.9 12.45 -1.9 11.55 -1.9 11.2 -2.55 L11.05 -3.05 Q11.05 -3.75 12.0 -3.75 12.95 -3.75 13.25 -2.85 L13.2 -2.15 M5.55 20.75 Q6.8 20.75 6.8 19.8 6.8 18.25 5.55 18.2 4.25 18.15 4.25 19.2 4.25 19.9 4.85 20.4 5.25 20.75 5.55 20.75 M-12.3 -4.4 L-12.85 -4.45 -13.2 -4.65 -13.25 -5.65 Q-13.25 -6.65 -12.35 -6.9 -11.5 -7.15 -11.5 -5.65 L-11.55 -4.65 Q-11.7 -4.4 -12.3 -4.4 M-3.05 5.95 Q-3.25 5.3 -4.15 5.2 -5.15 5.1 -5.25 5.95 L-5.8 4.15 Q-5.8 3.45 -5.45 3.2 L-4.4 3.0 Q-3.25 3.0 -3.05 4.45 L-3.05 5.95 M-4.75 7.5 L-4.35 7.5 Q-3.25 7.5 -3.05 6.75 L-3.05 7.7 Q-3.2 8.9 -3.95 8.9 -4.25 8.9 -4.75 7.5" fill="#ffffff" fill-opacity="0.6" fill-rule="evenodd" stroke="none"/>
    <path d="M1.5 -19.1 L1.45 -19.15 Q0.55 -19.45 0.3 -20.75 0.0 -22.5 -1.1 -22.5 L-2.5 -22.95 -4.4 -23.4 Q-6.5 -23.4 -6.5 -24.75 L-5.85 -25.7 -4.95 -26.4 -0.4 -26.0 Q4.05 -25.2 4.05 -23.0 L3.9 -21.95 3.4 -20.45 3.6 -19.7 Q3.6 -18.75 2.25 -18.75 1.95 -18.75 1.5 -19.1 M7.5 28.45 L7.5 28.5 7.35 29.45 6.15 31.95 Q4.85 34.25 4.25 34.25 L3.7 34.15 Q2.7 33.8 2.7 32.15 2.7 31.55 2.85 31.1 3.05 30.5 3.55 30.2 4.35 29.6 4.35 27.9 4.35 25.0 5.95 25.15 7.5 25.3 7.5 28.45 M-4.65 -4.05 L-4.85 -4.05 Q-5.6 -4.05 -6.45 -5.25 L-7.65 -7.5 Q-7.65 -9.9 -4.6 -10.2 -1.55 -10.55 -1.55 -9.0 -1.55 -8.1 -3.0 -7.5 L-4.65 -7.05 -3.8 -5.85 Q-3.6 -5.95 -3.6 -5.2 -3.6 -4.15 -4.65 -4.05 M5.55 20.75 Q5.25 20.75 4.85 20.4 4.25 19.9 4.25 19.2 4.25 18.15 5.55 18.2 6.8 18.25 6.8 19.8 6.8 20.75 5.55 20.75 M-31.8 -1.15 Q-31.5 -1.5 -31.1 -1.5 -26.9 0.35 -26.4 1.5 -26.15 1.65 -26.15 2.4 -26.15 3.3 -27.45 3.3 -28.15 3.3 -30.15 1.6 -32.1 -0.05 -32.1 -0.4 L-31.8 -1.15 M-5.25 5.95 Q-5.15 5.1 -4.15 5.2 -3.25 5.3 -3.05 5.95 L-3.0 6.3 -3.05 6.75 Q-3.25 7.5 -4.35 7.5 L-4.75 7.5 -5.1 7.35 -5.3 6.2 -5.25 5.95 M-7.05 32.6 Q-7.3 34.35 -8.4 34.35 -9.55 34.35 -9.85 32.75 L-9.95 31.05 Q-9.95 28.25 -8.4 27.75 -6.9 27.25 -6.9 28.95 -6.9 31.8 -7.05 32.6" fill="#ffffff" fill-opacity="0.8980392" fill-rule="evenodd" stroke="none"/>
  </g>
</svg>
