<?xml version="1.0" encoding="UTF-8" standalone="no"?>
<svg xmlns:xlink="http://www.w3.org/1999/xlink" height="68.8px" width="26.5px" xmlns="http://www.w3.org/2000/svg">
  <g transform="matrix(1.0, 0.0, 0.0, 1.0, 13.25, 34.4)">
    <path d="M11.25 -28.8 Q11.15 -28.55 10.5 -28.55 9.8 -28.55 7.8 -30.85 5.95 -33.0 5.95 -33.25 5.95 -35.75 8.7 -32.85 L11.45 -29.4 Q11.45 -28.75 11.25 -28.8 M3.35 -1.35 Q3.35 -1.85 3.7 -2.0 L5.85 -2.25 Q6.7 -2.1 6.7 -1.35 6.7 -0.65 5.85 -0.55 L4.2 -0.55 3.6 -0.95 3.35 -1.35 M-12.3 -10.4 Q-12.3 -11.75 -11.9 -12.15 -10.65 -13.45 -6.05 -13.4 L-2.05 -13.55 -0.1 -11.35 Q0.7 -10.2 0.7 -9.15 0.7 -8.6 0.1 -7.0 L-0.5 -4.9 Q-0.5 -4.35 3.95 3.95 8.35 12.3 8.35 19.05 8.35 21.8 7.8 26.2 7.05 32.7 5.6 34.4 L3.95 34.4 Q2.85 33.65 2.85 30.5 2.85 28.35 3.7 22.35 L4.5 15.0 Q4.5 13.7 2.8 11.75 L-0.25 8.4 Q-1.0 7.45 -1.45 5.15 -1.85 2.75 -2.4 1.95 -2.9 1.2 -3.3 -1.4 -3.65 -3.45 -5.3 -4.55 L-10.5 -7.8 Q-12.3 -9.05 -12.3 -10.4 M13.2 -2.15 Q13.05 -1.9 12.45 -1.9 11.55 -1.9 11.2 -2.55 L11.05 -3.05 Q11.05 -3.75 12.0 -3.75 12.95 -3.75 13.25 -2.85 L13.2 -2.15 M-11.55 -4.65 Q-11.7 -4.4 -12.3 -4.4 L-12.85 -4.45 -13.2 -4.65 -13.25 -5.65 Q-13.25 -6.65 -12.35 -6.9 -11.5 -7.15 -11.5 -5.65 L-11.55 -4.65 M-5.45 3.2 L-4.4 3.0 Q-3.25 3.0 -3.05 4.45 L-3.05 6.0 -3.05 7.7 Q-3.2 8.9 -3.95 8.9 -4.5 8.9 -5.8 4.15 -5.8 3.45 -5.45 3.2" fill="#ffffff" fill-opacity="0.6" fill-rule="evenodd" stroke="none"/>
  </g>
</svg>
