<?xml version="1.0" encoding="UTF-8" standalone="no"?>
<svg xmlns:xlink="http://www.w3.org/1999/xlink" height="109.95px" width="79.25px" xmlns="http://www.w3.org/2000/svg">
  <g transform="matrix(1.0, 0.0, 0.0, 1.0, 39.6, 54.95)">
    <path d="M-5.05 -50.35 Q-3.6 -49.55 -0.65 -48.5 1.0 -47.9 1.3 -47.0 L0.9 -46.75 1.35 -45.45 1.3 -44.65 0.4 -44.45 Q-0.6 -44.55 -1.9 -45.3 L-5.9 -48.6 Q-8.4 -50.65 -10.65 -50.85 L-12.7 -51.0 Q-14.35 -51.25 -15.8 -52.25 -15.25 -53.05 -13.85 -53.05 -11.25 -53.05 -8.85 -52.15 L-5.05 -50.35 M-17.75 -52.25 L-17.8 -51.65 -18.2 -51.55 -19.2 -51.45 Q-20.6 -51.45 -21.4 -52.25 L-21.6 -52.7 Q-21.3 -53.55 -20.05 -53.55 L-18.25 -53.05 Q-17.35 -52.55 -17.75 -52.25 M15.35 -3.2 L15.75 -3.7 16.7 -3.9 Q18.7 -3.9 20.1 -2.0 20.55 -1.25 22.4 0.05 L24.7 1.65 24.65 2.3 23.9 2.45 Q22.2 2.45 19.35 0.85 15.9 -1.0 15.35 -3.2 M20.55 -15.25 Q21.45 -15.85 22.6 -15.85 L24.85 -15.2 27.65 -14.1 33.65 -10.0 34.5 -8.7 34.4 -8.05 Q34.2 -7.7 33.55 -7.7 32.65 -7.7 28.95 -10.5 25.2 -13.35 24.45 -13.35 22.6 -11.0 21.4 -11.0 L20.65 -11.6 Q19.95 -12.4 19.95 -13.3 19.95 -13.95 20.1 -14.35 L20.55 -15.25 M17.75 9.65 L15.75 10.65 13.0 12.15 10.15 13.5 Q6.55 14.9 4.6 14.9 2.9 14.9 2.3 13.85 1.95 13.2 1.95 11.7 1.95 10.65 3.3 8.75 4.85 6.65 6.25 6.65 6.65 6.65 7.85 8.1 9.0 9.5 9.9 9.5 L13.0 7.7 Q16.65 5.65 19.95 4.8 L25.25 3.65 34.15 2.7 Q34.5 0.9 35.9 0.4 L38.65 0.15 38.8 0.15 38.95 0.8 Q38.95 2.2 30.15 4.5 L18.15 7.3 18.6 7.6 19.1 8.2 17.75 9.65 M-32.0 49.75 Q-32.7 50.9 -34.6 52.6 -37.0 54.75 -38.45 54.9 -38.9 55.2 -38.9 54.2 -38.9 53.55 -37.05 51.6 L-34.6 49.25 -32.85 48.1 Q-32.1 48.3 -32.0 49.75 M33.1 5.65 L32.4 6.25 30.6 6.5 28.85 6.25 Q28.1 6.0 28.1 5.65 28.1 5.3 28.85 5.05 L30.6 4.8 32.4 5.05 Q33.1 5.3 33.1 5.65" fill="#ffffff" fill-opacity="0.8980392" fill-rule="evenodd" stroke="none"/>
    <path d="M-1.9 -45.3 L-5.45 -47.4 -10.65 -50.85 Q-8.4 -50.65 -5.9 -48.6 L-1.9 -45.3 M-15.8 -52.25 L-17.75 -52.25 Q-17.35 -52.55 -18.25 -53.05 L-20.05 -53.55 Q-21.3 -53.55 -21.6 -52.7 L-21.4 -52.25 -26.25 -51.45 -31.25 -50.3 -31.9 -50.35 -32.15 -51.1 Q-32.15 -51.85 -29.7 -53.1 -26.05 -54.95 -19.85 -54.95 -15.05 -54.95 -11.1 -53.95 -6.2 -52.7 -5.05 -50.35 L-8.85 -52.15 Q-11.25 -53.05 -13.85 -53.05 -15.25 -53.05 -15.8 -52.25 M10.15 13.5 L7.05 14.8 3.15 16.2 Q1.65 16.2 1.15 15.2 0.85 14.65 0.85 13.4 0.85 9.85 2.6 7.9 4.4 5.85 11.45 1.45 L20.1 1.45 16.4 0.0 Q14.35 -0.85 14.35 -2.2 14.35 -2.85 14.7 -3.0 L15.35 -3.2 Q15.9 -1.0 19.35 0.85 22.2 2.45 23.9 2.45 L24.65 2.3 24.7 1.65 22.4 0.05 Q20.55 -1.25 20.1 -2.0 L24.65 0.95 30.15 0.15 Q33.25 -0.75 33.25 -1.85 33.25 -6.5 26.15 -8.25 22.4 -9.2 21.25 -9.85 19.0 -11.1 19.0 -13.5 L19.35 -14.1 20.55 -15.25 20.1 -14.35 Q19.95 -13.95 19.95 -13.3 19.95 -12.4 20.65 -11.6 L21.4 -11.0 Q22.6 -11.0 24.45 -13.35 25.2 -13.35 28.95 -10.5 32.65 -7.7 33.55 -7.7 34.2 -7.7 34.4 -8.05 L34.5 -8.7 33.65 -10.0 27.65 -14.1 Q32.15 -13.15 36.25 -6.35 39.65 -0.75 39.65 1.75 39.65 3.4 38.15 4.0 36.15 4.6 35.1 5.25 34.1 5.9 32.65 7.5 L31.3 8.9 29.75 8.7 28.2 8.4 22.2 8.65 22.4 8.85 18.9 9.2 Q18.65 9.2 17.75 9.65 L19.1 8.2 18.6 7.6 18.15 7.3 30.15 4.5 Q38.95 2.2 38.95 0.8 L38.8 0.15 38.65 0.15 35.9 0.4 Q34.5 0.9 34.15 2.7 L25.25 3.65 19.95 4.8 Q16.65 5.65 13.0 7.7 L9.9 9.5 Q9.0 9.5 7.85 8.1 6.65 6.65 6.25 6.65 4.85 6.65 3.3 8.75 1.95 10.65 1.95 11.7 1.95 13.2 2.3 13.85 2.9 14.9 4.6 14.9 6.55 14.9 10.15 13.5 M-38.45 54.9 L-38.6 55.0 -39.55 54.9 -39.6 54.15 Q-39.6 50.85 -35.4 47.85 -28.6 43.0 -28.05 42.4 L-27.75 42.55 Q-27.6 42.7 -27.6 43.35 -27.6 44.4 -28.6 45.55 -29.65 46.75 -29.65 47.45 L-30.3 48.25 -32.0 49.75 Q-32.1 48.3 -32.85 48.1 L-34.6 49.25 -37.05 51.6 Q-38.9 53.55 -38.9 54.2 -38.9 55.2 -38.45 54.9 M33.1 5.65 Q33.1 5.3 32.4 5.05 L30.6 4.8 28.85 5.05 Q28.1 5.3 28.1 5.65 28.1 6.0 28.85 6.25 L30.6 6.5 32.4 6.25 33.1 5.65" fill="#ffffff" fill-opacity="0.6" fill-rule="evenodd" stroke="none"/>
  </g>
</svg>
