<?xml version="1.0" encoding="UTF-8" standalone="no"?>
<svg xmlns:xlink="http://www.w3.org/1999/xlink" height="142.0px" width="133.95px" xmlns="http://www.w3.org/2000/svg">
  <g transform="matrix(1.0, 0.0, 0.0, 1.0, 12.75, -17.4)">
    <path d="M81.55 106.0 Q79.8 107.85 77.15 109.55 L75.05 110.8 Q75.0 110.1 75.6 109.75 L81.55 106.0 M64.65 118.25 L64.0 119.0 61.35 121.95 56.0 128.05 49.85 134.75 49.15 135.4 49.1 135.5 48.25 136.25 48.5 136.0 58.35 125.35 59.9 123.55 63.3 119.75 63.6 119.35 64.65 118.25 M30.75 151.7 L25.8 155.05 23.05 156.55 Q16.1 159.95 11.75 158.2 4.0 153.1 -2.8 141.85 L1.7 147.85 Q7.3 154.7 11.75 158.2 18.5 159.65 28.7 153.1 L30.75 151.7 M-7.25 133.65 Q-10.75 126.25 -11.7 120.1 L-11.75 119.55 -11.8 119.35 -11.95 117.85 -12.0 116.95 Q-11.15 123.65 -7.25 133.65 M-11.15 100.4 L-10.9 98.65 Q-10.35 94.95 -7.25 89.55 L-7.55 90.15 Q-9.95 95.3 -11.15 100.4 M41.55 34.8 Q46.05 30.6 50.2 27.15 L50.6 26.8 51.3 26.2 52.1 25.55 52.3 25.4 52.85 25.0 58.55 20.85 59.15 20.5 59.15 20.55 58.55 20.85 59.15 20.55 56.15 22.7 Q51.4 26.35 44.15 32.5 L41.55 34.8 M59.75 20.25 L60.45 19.95 Q62.5 19.3 71.0 18.0 L78.85 71.7 Q76.65 75.65 74.6 80.1 L70.9 90.7 Q68.75 97.0 65.6 100.8 61.25 106.05 54.75 112.35 L51.15 114.75 Q32.9 126.25 27.15 126.25 L21.35 125.9 Q18.8 125.3 17.2 123.4 14.0 119.55 11.4 103.7 9.1 89.45 19.7 74.35 23.0 69.65 28.6 63.55 L35.6 55.65 Q39.7 50.4 53.75 39.0 L67.0 28.65 70.3 19.15 59.75 20.25 M63.3 119.75 L64.0 119.0 63.3 119.75 M48.5 136.0 L49.1 135.5 48.5 136.0 M56.0 128.05 L58.35 125.35 56.0 128.05 M25.8 155.05 L28.7 153.1 25.8 155.05" fill="#d6eefb" fill-rule="evenodd" stroke="none"/>
    <path d="M78.85 71.7 Q82.65 64.75 86.8 59.2 95.9 47.1 108.05 39.5 116.25 39.25 119.45 47.25 121.2 51.65 121.2 57.8 121.2 61.65 113.15 72.5 105.6 82.65 101.3 85.8 98.3 88.0 95.0 91.95 L89.4 98.95 Q85.85 103.1 81.55 106.0 L75.6 109.75 Q75.0 110.1 75.05 110.8 L74.95 111.4 71.1 113.6 Q67.4 115.55 64.8 118.15 L64.65 118.25 63.6 119.35 63.3 119.75 60.65 122.65 59.9 123.55 60.65 122.65 63.3 119.75 59.9 123.55 58.35 125.35 48.5 136.0 Q33.15 149.85 30.6 151.7 L28.7 153.1 30.6 151.7 Q33.15 149.85 48.5 136.0 L48.25 136.25 41.65 142.8 Q35.8 148.15 30.75 151.7 L28.7 153.1 Q18.5 159.65 11.75 158.2 7.3 154.7 1.7 147.85 L-2.8 141.85 Q-5.7 137.5 -7.1 134.0 L-7.25 133.65 Q-11.15 123.65 -12.0 116.95 L-12.05 116.85 -12.1 116.4 Q-13.05 108.4 -11.15 100.4 -9.95 95.3 -7.55 90.15 L-7.25 89.55 Q-4.4 83.85 6.6 70.5 22.05 51.7 41.55 34.8 L44.15 32.5 Q51.4 26.35 56.15 22.7 L59.15 20.55 59.75 20.25 59.15 20.55 59.15 20.5 59.5 20.25 59.75 20.25 70.3 19.15 67.0 28.65 53.75 39.0 Q39.7 50.4 35.6 55.65 L28.6 63.55 Q23.0 69.65 19.7 74.35 9.1 89.45 11.4 103.7 14.0 119.55 17.2 123.4 18.8 125.3 21.35 125.9 L27.15 126.25 Q32.9 126.25 51.15 114.75 L54.75 112.35 Q61.25 106.05 65.6 100.8 68.75 97.0 70.9 90.7 L74.6 80.1 Q76.65 75.65 78.85 71.7 M-7.25 89.55 Q-0.7 78.05 17.3 58.95 30.55 44.85 41.55 34.8 30.55 44.85 17.3 58.95 -0.7 78.05 -7.25 89.55 M-12.05 116.85 Q-12.5 110.1 -11.15 100.4 -12.5 110.1 -12.05 116.85 M-2.8 141.85 L-5.0 138.0 -7.25 133.65 -5.0 138.0 -2.8 141.85 M64.8 118.15 Q69.2 113.5 71.2 112.65 L75.05 110.8 71.2 112.65 Q69.2 113.5 64.8 118.15 M81.55 106.0 L83.45 103.55 81.55 106.0" fill="#a4c9de" fill-rule="evenodd" stroke="none"/>
    <path d="M81.55 106.0 Q79.8 107.85 77.15 109.55 L75.05 110.8 71.2 112.65 Q69.2 113.5 64.8 118.15 L64.65 118.25 64.0 119.0 63.3 119.75 60.65 122.65 59.9 123.55 58.35 125.35 56.0 128.05 49.85 134.75 49.15 135.4 49.1 135.5 48.5 136.0 Q33.15 149.85 30.6 151.7 L28.7 153.1 25.8 155.05 23.05 156.55 Q16.1 159.95 11.75 158.2 4.0 153.1 -2.8 141.85 L-5.0 138.0 -7.25 133.65 Q-10.75 126.25 -11.7 120.1 L-11.75 119.55 -11.8 119.35 -11.95 117.85 -12.05 116.85 Q-12.5 110.1 -11.15 100.4 L-10.9 98.65 Q-10.35 94.95 -7.25 89.55 -0.7 78.05 17.3 58.95 30.55 44.85 41.55 34.8 46.05 30.6 50.2 27.15 L50.6 26.8 51.3 26.2 52.1 25.55 52.3 25.4 52.85 25.0 58.55 20.85 59.15 20.55 59.75 20.25 60.45 19.95 Q62.5 19.3 71.0 18.0 M83.45 103.55 L81.55 106.0 Z" fill="none" stroke="#4a4f58" stroke-linecap="round" stroke-linejoin="miter-clip" stroke-miterlimit="3.0" stroke-width="1.2000000000000002"/>
  </g>
</svg>
