<?xml version="1.0" encoding="UTF-8" standalone="no"?>
<svg xmlns:xlink="http://www.w3.org/1999/xlink" height="135.05px" width="130.9px" xmlns="http://www.w3.org/2000/svg">
  <g transform="matrix(1.0, 0.0, 0.0, 1.0, 9.7, -24.4)">
    <path d="M61.45 118.25 L60.75 119.0 58.05 122.0 52.55 128.1 46.2 134.9 45.55 135.55 45.45 135.6 44.65 136.4 44.9 136.1 53.65 126.8 56.55 123.6 57.35 122.75 57.55 122.5 60.0 119.75 60.25 119.45 60.35 119.4 60.55 119.15 61.45 118.25 M27.1 151.85 L22.25 155.1 19.6 156.6 Q15.25 158.75 12.05 158.85 10.4 158.8 9.1 158.25 2.45 153.3 -2.8 142.75 L0.75 148.4 Q5.3 154.9 9.1 158.25 L11.45 158.5 Q16.95 158.45 25.1 153.15 L27.1 151.85 M-6.15 135.2 Q-8.7 128.5 -9.0 123.0 L-9.05 122.5 -9.05 122.25 -9.05 120.95 -9.05 120.75 Q-8.7 126.6 -6.15 135.2 M-7.15 105.25 L-6.85 103.7 Q-6.2 100.45 -3.3 95.7 L-3.45 96.0 Q-5.8 100.6 -7.15 105.25 M42.7 43.25 Q46.95 39.1 50.9 35.65 L51.3 35.25 52.0 34.65 52.8 34.0 52.95 33.85 53.45 33.4 58.9 29.1 Q59.15 28.9 59.45 28.75 L56.65 31.0 Q52.1 34.75 45.2 41.0 L42.7 43.25" fill="#d6eefb" fill-rule="evenodd" stroke="none"/>
    <path d="M60.05 28.4 Q60.4 28.15 60.75 28.1 62.65 27.25 70.75 25.0 L76.95 72.8 Q74.7 76.7 72.55 81.05 L68.55 91.35 Q66.2 97.5 63.0 101.35 58.5 106.6 51.95 113.0 50.2 114.15 48.35 115.5 30.45 127.15 25.15 127.35 21.25 127.5 19.8 127.25 17.5 126.75 16.2 125.0 13.5 121.55 12.15 107.1 10.95 94.35 21.2 80.1 24.35 75.65 29.7 69.8 L36.4 62.15 Q40.35 57.1 53.8 45.6 L66.65 34.9 70.05 26.1 60.05 28.4" fill="#f7f8fa" fill-rule="evenodd" stroke="none"/>
    <path d="M76.95 72.8 Q80.9 65.85 85.25 60.35 94.7 48.1 107.3 39.6 115.9 38.35 119.35 45.5 121.2 49.45 121.2 55.35 121.2 59.05 112.5 70.4 104.35 80.95 99.75 84.35 96.55 86.75 93.05 90.85 L87.1 98.05 Q83.3 102.35 78.8 105.45 L76.85 107.25 74.3 109.15 72.05 110.5 72.05 110.9 Q71.25 111.15 69.7 112.15 67.75 113.2 67.35 113.75 L67.1 113.8 66.35 113.75 Q66.1 113.75 66.1 114.3 L66.15 114.55 Q63.55 116.15 61.55 118.1 L61.45 118.25 60.55 119.15 60.35 119.4 60.25 119.45 60.0 119.75 57.55 122.5 57.35 122.75 56.55 123.6 53.65 126.8 44.9 136.1 44.65 136.4 37.95 143.0 Q32.1 148.3 27.1 151.85 L25.1 153.15 Q16.95 158.45 11.45 158.5 L9.1 158.25 Q5.3 154.9 0.75 148.4 L-2.8 142.75 Q-5.1 138.8 -6.0 135.6 L-6.15 135.2 Q-8.7 126.6 -9.05 120.75 L-9.1 120.45 -9.1 120.1 -9.1 120.0 -9.1 119.65 -9.0 114.85 Q-8.65 110.05 -7.15 105.25 -5.8 100.6 -3.45 96.0 L-3.3 95.7 -3.15 95.4 Q-0.4 90.2 9.95 77.75 24.45 60.0 42.7 43.25 L45.2 41.0 Q52.1 34.75 56.65 31.0 L59.45 28.75 59.5 28.75 59.85 28.45 60.05 28.4 70.05 26.1 66.65 34.9 53.8 45.6 Q40.35 57.1 36.4 62.15 L29.7 69.8 Q24.35 75.65 21.2 80.1 10.95 94.35 12.15 107.1 13.5 121.55 16.2 125.0 17.5 126.75 19.8 127.25 21.25 127.5 25.15 127.35 30.45 127.15 48.35 115.5 50.2 114.15 51.95 113.0 58.5 106.6 63.0 101.35 66.2 97.5 68.55 91.35 L72.55 81.05 Q74.7 76.7 76.95 72.8" fill="#f5e9eb" fill-rule="evenodd" stroke="none"/>
    <path d="M103.95 79.65 Q78.6 106.8 71.9 111.0 63.6 116.2 62.7 117.05 61.25 118.4 59.55 121.2 56.0 125.7 45.45 135.6 L29.9 150.0 Q19.1 158.85 12.45 158.85 8.95 158.85 4.6 154.45 -0.7 149.05 -4.45 139.25 -6.95 132.7 -7.95 128.75 -9.1 124.25 -9.1 120.2 -9.1 106.85 -4.35 97.65 1.2 86.9 19.9 66.75 46.45 38.15 54.1 32.0 58.5 28.5 62.35 27.05 64.65 26.2 70.75 25.0" fill="none" stroke="#666666" stroke-linecap="round" stroke-linejoin="miter-clip" stroke-miterlimit="3.0" stroke-width="1.2000000000000002"/>
  </g>
</svg>
