<?xml version="1.0" encoding="UTF-8" standalone="no"?>
<svg xmlns:xlink="http://www.w3.org/1999/xlink" height="130.2px" width="143.65px" xmlns="http://www.w3.org/2000/svg">
  <g transform="matrix(1.0, 0.0, 0.0, 1.0, 24.4, -17.95)">
    <path d="M-17.25 48.35 Q-10.2 35.5 -4.8 29.25 4.9 18.05 19.3 18.05 26.05 18.05 32.5 19.75 36.25 20.7 43.1 23.1 L40.3 23.0 40.15 24.3 45.6 26.35 Q49.05 27.55 49.05 29.85 L57.0 31.25 59.55 32.15 Q59.05 32.3 58.8 32.5 L58.5 33.1 57.55 33.1 Q56.8 33.2 56.5 33.45 L56.55 33.75 Q58.5 34.85 63.45 36.6 L68.85 38.65 68.0 38.5 Q67.15 39.15 66.55 39.25 66.0 39.35 65.8 39.5 75.15 48.0 78.55 51.45 L110.8 80.95 109.5 80.3 Q107.75 79.6 105.55 79.05 L103.3 78.65 103.05 78.8 103.0 78.95 Q103.45 79.4 110.4 83.3 116.9 87.6 117.2 91.25 L116.6 91.15 Q116.0 91.15 115.8 91.45 L114.15 90.45 Q112.85 89.7 111.9 89.7 110.75 89.7 110.65 90.0 L112.1 91.2 113.45 92.1 115.85 99.75 115.55 103.25 Q115.1 105.45 113.75 106.95 112.6 105.45 111.15 105.0 L110.95 105.3 111.35 106.85 111.75 108.7 110.75 110.5 107.65 116.4 107.2 115.5 107.15 115.3 107.2 114.55 106.0 114.4 Q96.8 129.75 85.95 140.45 80.5 145.85 76.8 148.15 68.15 148.15 48.2 132.2 L22.15 110.0 10.4 100.25 Q8.95 99.05 5.45 91.1 L2.05 82.95 Q0.0 78.2 -6.1 71.05 L-8.75 68.15 Q-15.8 61.1 -21.6 61.1 L-24.3 61.45 -23.65 60.4 -22.2 58.2 -21.5 56.95 Q-21.5 55.65 -20.05 52.9 -18.8 50.45 -17.25 48.35" fill="#ef8410" fill-rule="evenodd" stroke="none"/>
    <path d="M106.0 114.4 Q104.3 117.25 102.55 121.85 100.7 125.7 97.0 128.45 L88.05 138.6 Q79.85 148.05 79.1 148.05 71.05 148.05 51.35 135.7 L37.3 122.85 Q26.85 113.35 22.2 109.75 20.5 108.4 19.6 107.85 11.6 103.1 6.5 92.5 1.35 81.85 0.15 77.85 -1.1 73.85 -7.7 68.95 L-6.05 68.15 -1.8 67.7 2.4 68.15 Q7.4 69.2 13.7 72.55 18.3 75.0 22.2 78.1 26.7 81.6 30.3 85.95 34.1 90.55 36.9 98.9 L41.4 112.3 Q44.5 119.4 49.8 122.8 56.4 127.05 68.0 127.05 74.85 127.05 80.55 125.45 85.75 123.95 86.5 122.3 L88.3 123.65 92.25 119.85 Q93.2 118.65 93.2 116.4 L92.8 111.65 97.45 115.25 97.85 113.15 98.05 110.7 Q98.05 100.1 93.75 95.6 L100.85 97.0 93.05 89.7 Q85.65 83.2 84.45 82.65 L94.25 85.25 69.1 62.4 39.2 36.55 46.05 35.15 31.4 30.9 27.55 29.6 34.2 28.8 11.0 19.4 19.3 18.05 Q26.3 18.05 33.45 20.05 L43.1 23.1 Q41.35 23.05 40.6 23.65 L40.15 24.3 40.65 24.55 Q44.05 25.8 59.55 32.15 58.85 32.45 58.5 33.1 L56.5 33.45 Q57.75 34.65 62.6 36.35 L68.85 38.65 68.0 38.5 Q66.3 38.75 65.8 39.5 L88.1 59.6 Q109.0 78.5 110.8 80.95 109.15 80.15 106.15 79.3 L103.3 78.65 Q102.7 78.65 102.8 78.8 L103.0 78.95 110.75 84.15 Q116.55 88.45 116.85 90.2 L116.55 91.15 Q115.95 91.15 115.75 91.5 L114.35 91.15 Q113.0 90.95 112.05 90.4 111.1 89.85 110.65 90.0 111.85 91.2 113.45 92.1 L115.85 99.75 Q115.45 105.5 113.75 106.95 L111.15 105.0 110.95 105.3 111.7 108.75 Q111.3 109.6 111.5 111.45 111.1 113.6 107.65 116.4 107.6 115.65 106.85 115.0 L106.0 114.4" fill="#cc6f0f" fill-rule="evenodd" stroke="none"/>
    <path d="M11.95 18.85 Q27.2 17.5 42.4 22.75 L38.8 23.75 60.0 32.3 54.25 33.0 Q61.25 36.35 70.3 37.85 L64.35 39.05 Q88.95 59.7 112.1 81.3 L102.85 78.85 Q110.35 81.85 117.85 91.5 L111.65 90.3 113.3 93.0 114.5 95.95 114.6 96.4 114.85 97.3 Q115.8 101.75 115.0 107.4 L110.85 104.2 Q112.05 112.15 108.25 116.4 106.85 114.05 105.4 113.45 103.6 120.1 100.0 124.95 L81.15 146.15 Q79.3 148.4 72.4 146.95 51.95 138.2 39.95 125.45 L39.5 125.0 23.25 111.05 Q8.15 101.8 -0.2 77.1 -4.05 72.4 -7.8 69.05 -16.0 61.6 -23.8 60.3" fill="none" stroke="#000000" stroke-linecap="round" stroke-linejoin="miter-clip" stroke-miterlimit="3.0" stroke-width="1.2000000000000002"/>
  </g>
</svg>
