<?xml version="1.0" encoding="UTF-8" standalone="no"?>
<svg xmlns:xlink="http://www.w3.org/1999/xlink" height="66.15px" width="86.0px" xmlns="http://www.w3.org/2000/svg">
  <g transform="matrix(1.0, 0.0, 0.0, 1.0, 43.0, 33.05)">
    <path d="M39.85 -23.85 L39.6 -24.5 Q39.45 -24.95 39.45 -25.55 39.45 -26.55 39.65 -26.0 L39.9 -26.05 39.9 -25.65 Q39.9 -25.05 40.05 -25.0 L40.45 -25.1 41.5 -25.5 41.55 -27.0 41.45 -27.45 42.2 -27.45 42.25 -26.55 Q42.25 -25.5 41.85 -24.85 L41.15 -23.7 39.85 -23.85 M2.0 -25.4 L2.85 -25.45 3.7 -25.65 4.15 -25.15 2.95 -24.75 2.7 -25.2 2.0 -25.4 M0.6 -24.3 L0.25 -24.4 0.65 -24.85 0.6 -24.55 0.6 -24.3 M10.5 -25.65 L10.4 -26.3 9.85 -26.1 10.1 -26.45 10.35 -26.5 Q10.25 -26.85 10.35 -26.55 L10.4 -26.5 11.45 -26.55 Q10.5 -26.05 10.5 -25.65 M13.7 -25.55 L11.95 -25.6 12.7 -25.85 13.0 -26.5 Q14.05 -26.45 14.2 -26.0 14.15 -25.65 13.7 -25.55 M39.35 -6.7 L39.35 -6.65 38.8 -6.65 37.35 -6.85 35.65 -7.05 Q34.9 -7.8 35.85 -8.95 36.35 -8.55 36.35 -7.65 L37.05 -7.55 Q37.65 -7.6 37.95 -7.9 38.4 -8.4 38.65 -9.8 L38.55 -10.25 Q37.25 -13.6 36.4 -14.0 L36.5 -14.5 36.8 -14.6 Q37.95 -13.95 38.8 -12.2 39.6 -10.65 39.6 -9.55 L39.45 -8.1 39.25 -6.85 39.35 -6.7 M16.1 -15.8 Q14.0 -15.8 13.5 -16.3 13.3 -16.5 13.3 -17.6 L14.0 -18.15 Q14.95 -18.7 16.15 -18.7 L20.65 -18.2 Q20.6 -18.0 20.0 -17.9 L18.5 -17.45 Q17.4 -16.95 17.1 -16.25 16.9 -15.8 16.1 -15.8 M11.95 1.9 Q12.6 2.95 12.15 3.4 11.0 2.45 7.65 0.25 L1.6 -4.15 1.95 -4.55 Q2.75 -4.5 8.95 -0.7 8.95 0.4 9.85 1.15 10.7 1.9 11.95 1.9 M14.8 -0.7 L14.65 -0.3 13.8 -0.2 Q11.6 -0.2 10.5 -0.75 L7.6 -2.1 7.5 -2.35 Q7.55 -2.65 8.15 -2.65 L11.65 -2.1 14.8 -0.7 M25.95 -18.95 Q26.1 -19.45 27.25 -19.45 L29.1 -19.4 Q31.1 -19.1 32.25 -17.7 L32.05 -17.4 28.9 -17.75 26.55 -18.15 Q25.95 -18.15 25.9 -18.4 L25.95 -18.95 M26.85 -16.8 L26.55 -16.4 25.85 -16.25 25.15 -16.4 Q24.85 -16.55 24.85 -16.8 L25.15 -17.2 25.85 -17.35 26.55 -17.2 26.85 -16.8 M26.65 2.8 Q24.95 0.9 23.4 0.75 L22.3 0.0 22.45 -0.3 22.45 -0.35 23.15 -0.45 26.15 0.1 29.3 1.2 29.55 0.75 Q29.9 0.3 30.55 0.3 31.2 0.3 31.45 0.65 L31.65 1.15 29.3 1.2 28.75 1.75 Q28.6 2.0 28.6 2.65 28.6 3.65 28.75 3.55 L28.8 3.65 29.55 3.7 Q31.0 3.7 31.8 1.5 L32.5 2.15 32.4 3.0 Q32.2 3.7 31.55 3.7 31.05 3.7 30.55 4.05 L29.5 4.35 Q29.15 4.35 26.65 2.8 M30.7 2.15 Q30.35 2.65 30.75 1.8 L30.7 2.15 M20.35 10.75 L19.3 9.4 19.5 8.85 Q20.55 9.9 20.7 10.65 L20.35 10.75 M19.35 1.15 Q17.8 2.5 18.3 5.6 L17.95 6.1 Q17.05 5.6 17.05 4.1 L17.3 2.85 Q17.8 1.5 19.1 0.65 L19.35 1.15 M18.75 32.2 L17.9 30.85 17.5 29.95 18.4 19.95 Q18.4 18.1 16.15 13.6 13.5 8.4 13.15 7.0 L13.35 6.65 Q14.4 9.15 17.9 13.25 20.8 18.45 20.25 28.95 L19.1 28.7 18.8 28.8 18.5 29.2 18.3 30.15 Q18.3 30.95 18.75 32.2 M20.35 29.05 L20.85 28.65 Q21.25 28.35 21.5 28.3 L22.15 28.2 Q22.4 28.2 22.4 28.8 L21.85 30.35 Q21.1 31.7 19.95 32.3 L20.8 30.35 20.8 30.0 20.35 29.05 M-37.55 -17.65 L-42.35 -16.8 -43.0 -17.0 Q-41.55 -18.05 -36.9 -18.7 L-36.25 -18.75 -31.55 -19.05 -31.1 -18.6 Q-32.1 -18.15 -37.55 -17.65 M-16.2 -19.05 L-15.7 -18.8 -15.5 -18.25 -16.45 -18.05 Q-18.25 -19.05 -19.0 -19.05 -20.55 -19.05 -20.65 -18.55 L-22.1 -19.25 -22.05 -19.8 -20.9 -20.0 -16.2 -19.05 M-11.8 -28.2 L-12.5 -28.45 -13.55 -29.0 Q-13.45 -29.25 -12.8 -29.3 L-12.1 -29.15 -11.8 -28.4 -11.8 -28.2 M-11.0 -9.35 Q-11.55 -10.1 -10.55 -10.1 L-8.75 -9.85 -7.25 -9.2 -7.25 -8.95 -8.9 -8.8 -9.5 -9.05 -10.05 -9.05 -4.7 -5.55 -3.5 -4.3 -3.35 -4.1 -3.85 -4.05 -5.4 -4.85 -7.7 -6.75 Q-10.5 -8.65 -11.0 -9.35" fill="#ffffff" fill-opacity="0.84705883" fill-rule="evenodd" stroke="none"/>
    <path d="M26.1 -32.2 L25.85 -31.6 25.2 -31.35 Q24.85 -31.35 24.6 -31.6 24.3 -31.85 24.3 -32.2 L24.6 -32.8 25.2 -33.05 25.85 -32.8 26.1 -32.2 M39.85 -23.85 L37.95 -25.3 Q37.3 -25.95 37.3 -26.15 37.3 -27.15 37.65 -28.7 L42.45 -28.05 Q43.0 -27.75 43.0 -26.05 L42.75 -24.75 Q42.4 -24.2 41.15 -23.7 L41.85 -24.85 Q42.25 -25.5 42.25 -26.55 L42.2 -27.45 41.45 -27.45 Q40.85 -27.45 40.4 -27.05 39.95 -26.65 39.95 -26.05 39.9 -26.5 39.9 -26.05 L39.65 -26.0 Q39.45 -26.55 39.45 -25.55 39.45 -24.95 39.6 -24.5 L39.85 -23.85 M2.0 -25.4 L1.25 -25.25 1.15 -25.2 0.65 -24.9 0.65 -24.85 0.25 -24.4 0.6 -24.3 Q0.65 -23.9 0.75 -24.0 L0.9 -24.2 2.95 -24.05 2.95 -24.75 4.15 -25.15 3.7 -25.65 2.85 -25.45 2.0 -25.4 M10.1 -26.45 L9.85 -26.1 10.4 -26.3 10.5 -25.65 Q10.6 -25.45 11.1 -25.45 L11.95 -25.6 13.7 -25.55 13.0 -24.9 4.15 -24.75 2.8 -23.4 -0.6 -23.4 -0.7 -23.7 -0.8 -24.35 Q-0.9 -24.95 0.4 -25.5 3.0 -26.6 10.1 -26.45 M39.35 -6.65 Q38.7 -6.2 37.25 -6.2 35.1 -6.2 34.55 -7.55 34.3 -8.2 34.45 -9.0 L35.65 -11.95 Q35.65 -13.4 33.25 -14.15 30.95 -14.9 26.85 -14.9 L24.35 -15.15 Q23.4 -15.55 23.25 -16.95 L22.45 -17.1 Q19.9 -16.6 18.7 -15.7 17.8 -15.05 16.1 -15.05 13.55 -15.05 12.95 -16.35 12.65 -17.05 12.85 -17.8 12.85 -18.6 15.45 -19.75 18.55 -21.1 22.5 -21.1 29.15 -21.1 34.25 -17.85 39.75 -14.4 39.75 -9.25 L39.65 -7.1 39.35 -6.7 39.25 -6.85 39.45 -8.1 39.6 -9.55 Q39.6 -10.65 38.8 -12.2 37.95 -13.95 36.8 -14.6 L36.5 -14.5 36.4 -14.0 Q37.25 -13.6 38.55 -10.25 L36.95 -10.15 Q36.15 -9.85 35.65 -9.15 L35.85 -8.95 Q34.9 -7.8 35.65 -7.05 L37.35 -6.85 38.8 -6.65 39.35 -6.65 M16.1 -15.8 Q16.9 -15.8 17.1 -16.25 17.4 -16.95 18.5 -17.45 L20.0 -17.9 Q20.6 -18.0 20.65 -18.2 L16.15 -18.7 Q14.95 -18.7 14.0 -18.15 L13.3 -17.6 Q13.3 -16.5 13.5 -16.3 14.0 -15.8 16.1 -15.8 M8.95 -0.7 Q2.75 -4.5 1.95 -4.55 L1.6 -4.15 7.65 0.25 Q11.0 2.45 12.15 3.4 12.6 2.95 11.95 1.9 L11.95 1.65 12.4 1.75 12.85 1.75 12.85 1.4 11.3 0.3 Q9.9 -0.5 8.95 -0.7 M25.95 -18.95 L25.9 -18.4 Q25.95 -18.15 26.55 -18.15 L28.9 -17.75 32.05 -17.4 32.25 -17.7 Q31.1 -19.1 29.1 -19.4 L27.25 -19.45 Q26.1 -19.45 25.95 -18.95 M14.8 -0.7 L11.65 -2.1 8.15 -2.65 Q7.55 -2.65 7.5 -2.35 L7.6 -2.1 10.5 -0.75 Q11.6 -0.2 13.8 -0.2 L14.65 -0.3 14.8 -0.7 M31.35 -16.6 L31.1 -17.0 30.5 -17.15 29.9 -17.0 29.65 -16.6 Q29.65 -16.35 29.9 -16.2 30.15 -16.05 30.5 -16.05 L31.1 -16.2 31.35 -16.6 M26.85 -16.8 L26.55 -17.2 25.85 -17.35 25.15 -17.2 24.85 -16.8 Q24.85 -16.55 25.15 -16.4 L25.85 -16.25 26.55 -16.4 26.85 -16.8 M23.4 0.75 L23.1 0.7 Q20.85 0.7 19.65 1.75 18.8 2.5 18.8 3.35 18.8 3.9 20.9 8.45 L22.95 13.2 Q22.95 27.7 22.15 30.85 21.75 32.45 20.9 32.85 L18.8 33.1 Q17.6 33.1 16.8 31.75 16.6 31.95 16.6 30.95 L17.1 27.45 17.55 23.95 Q17.55 15.6 10.05 5.8 2.85 -3.6 -2.3 -3.6 -3.3 -3.6 -3.5 -3.05 -3.7 -2.55 -4.3 -2.55 -6.4 -2.55 -10.2 -5.55 -13.85 -8.4 -13.85 -9.5 -13.85 -11.55 -6.75 -11.55 -2.05 -11.55 8.0 -7.1 17.35 -2.95 21.95 -3.7 27.05 -3.65 30.3 -1.35 33.1 0.6 33.1 2.85 33.1 4.0 32.25 4.45 L29.25 4.9 Q28.45 4.9 26.65 2.8 29.15 4.35 29.5 4.35 L30.55 4.05 Q31.05 3.7 31.55 3.7 32.2 3.7 32.4 3.0 L32.5 2.15 31.8 1.5 31.65 1.15 31.45 0.65 Q31.2 0.3 30.55 0.3 29.9 0.3 29.55 0.75 L29.3 1.2 26.15 0.1 23.15 -0.45 22.45 -0.35 22.45 -0.3 22.3 0.0 23.4 0.75 M20.35 10.75 L20.7 10.65 Q20.55 9.9 19.5 8.85 L19.3 9.4 20.35 10.75 M38.8 15.1 L38.6 15.65 38.05 15.85 Q37.75 15.85 37.55 15.65 L37.3 15.1 37.55 14.6 Q37.75 14.35 38.05 14.35 38.35 14.35 38.6 14.6 L38.8 15.1 M20.25 28.95 Q20.8 18.45 17.9 13.25 14.4 9.15 13.35 6.65 L13.15 7.0 Q13.5 8.4 16.15 13.6 18.4 18.1 18.4 19.95 L17.5 29.95 17.9 30.85 18.75 32.2 19.95 32.3 Q21.1 31.7 21.85 30.35 L22.4 28.8 Q22.4 28.2 22.15 28.2 L21.5 28.3 Q21.25 28.35 20.85 28.65 L20.35 29.05 20.25 28.95 M19.35 1.15 L19.1 0.65 Q17.8 1.5 17.3 2.85 L17.05 4.1 Q17.05 5.6 17.95 6.1 L18.3 5.6 Q17.8 2.5 19.35 1.15 M-36.25 -18.75 L-27.45 -20.1 -20.5 -21.25 Q-18.5 -21.25 -17.85 -20.75 L-16.2 -19.05 -20.9 -20.0 -22.05 -19.8 -22.1 -19.25 -20.65 -18.55 Q-20.2 -18.0 -18.85 -17.35 L-17.25 -16.8 -16.45 -16.9 -16.3 -17.05 Q-16.25 -17.85 -16.45 -18.05 L-15.5 -18.25 -14.85 -17.0 -14.9 -16.5 Q-14.95 -16.25 -15.6 -16.25 -17.5 -16.25 -20.4 -17.4 -23.35 -18.6 -24.05 -18.6 L-29.35 -17.6 -34.65 -16.65 -36.3 -16.95 -37.55 -17.65 Q-32.1 -18.15 -31.1 -18.6 L-31.55 -19.05 -36.25 -18.75 M-11.8 -28.2 L-11.8 -28.15 -12.05 -28.0 -14.9 -28.35 Q-16.75 -28.8 -17.75 -29.55 L-16.8 -29.95 Q-16.15 -30.1 -12.8 -29.3 -13.45 -29.25 -13.55 -29.0 L-12.5 -28.45 -11.8 -28.2 M-12.1 -29.15 L-12.15 -29.35 -12.2 -29.9 -11.95 -29.35 -11.9 -29.1 Q-11.45 -28.75 -11.5 -28.35 L-11.75 -28.2 -11.8 -28.4 -12.1 -29.15 M-11.0 -9.35 Q-10.5 -8.65 -7.7 -6.75 L-5.4 -4.85 -3.85 -4.05 -3.35 -4.1 -3.5 -4.3 -4.7 -5.55 -10.05 -9.05 -9.5 -9.05 -8.9 -8.8 -7.25 -8.95 -7.25 -9.2 -8.75 -9.85 -10.55 -10.1 Q-11.55 -10.1 -11.0 -9.35" fill="#ffffff" fill-opacity="0.6" fill-rule="evenodd" stroke="none"/>
    <path d="M39.9 -26.05 Q39.9 -26.5 39.95 -26.05 39.95 -26.65 40.4 -27.05 40.85 -27.45 41.45 -27.45 L41.55 -27.0 41.5 -25.5 40.45 -25.1 40.05 -25.0 Q39.9 -25.05 39.9 -25.65 L39.9 -26.05 M0.65 -24.85 L0.65 -24.9 1.15 -25.2 1.25 -25.25 2.0 -25.4 2.7 -25.2 2.95 -24.75 2.95 -24.05 0.9 -24.2 0.75 -24.0 Q0.65 -23.9 0.6 -24.3 L0.6 -24.55 0.65 -24.85 M10.5 -25.65 Q10.5 -26.05 11.45 -26.55 L13.0 -26.5 12.7 -25.85 11.95 -25.6 11.1 -25.45 Q10.6 -25.45 10.5 -25.65 M35.85 -8.95 L35.65 -9.15 Q36.15 -9.85 36.95 -10.15 L38.55 -10.25 38.65 -9.8 Q38.4 -8.4 37.95 -7.9 37.65 -7.6 37.05 -7.55 L36.35 -7.65 Q36.35 -8.55 35.85 -8.95 M11.95 1.9 Q10.7 1.9 9.85 1.15 8.95 0.4 8.95 -0.7 9.9 -0.5 11.3 0.3 L12.85 1.4 12.85 1.75 12.4 1.75 11.95 1.65 11.95 1.9 M31.35 -16.6 L31.1 -16.2 30.5 -16.05 Q30.15 -16.05 29.9 -16.2 29.65 -16.35 29.65 -16.6 L29.9 -17.0 30.5 -17.15 31.1 -17.0 31.35 -16.6 M31.65 1.15 L31.8 1.5 Q31.0 3.7 29.55 3.7 L28.8 3.65 28.75 3.55 Q28.6 3.65 28.6 2.65 28.6 2.0 28.75 1.75 L29.3 1.2 31.65 1.15 M30.7 2.15 L30.75 1.8 Q30.35 2.65 30.7 2.15 M20.25 28.95 L20.35 29.05 20.8 30.0 20.8 30.35 19.95 32.3 18.75 32.2 Q18.3 30.95 18.3 30.15 L18.5 29.2 18.8 28.8 19.1 28.7 20.25 28.95 M-16.45 -18.05 Q-16.25 -17.85 -16.3 -17.05 L-16.45 -16.9 -17.25 -16.8 -18.85 -17.35 Q-20.2 -18.0 -20.65 -18.55 -20.55 -19.05 -19.0 -19.05 -18.25 -19.05 -16.45 -18.05" fill="#ffffff" fill-rule="evenodd" stroke="none"/>
  </g>
</svg>
