<?xml version="1.0" encoding="UTF-8" standalone="no"?>
<svg xmlns:xlink="http://www.w3.org/1999/xlink" height="140.05px" width="128.7px" xmlns="http://www.w3.org/2000/svg">
  <g transform="matrix(1.0, 0.0, 0.0, 1.0, 15.3, -8.1)">
    <path d="M79.45 54.8 Q86.3 59.75 95.05 68.95 L96.25 70.2 96.5 70.5 Q89.6 63.5 79.45 54.8 89.6 63.5 96.5 70.5 L98.0 72.05 98.25 72.35 103.5 78.25 104.0 78.85 106.3 81.55 106.4 81.65 106.9 82.25 108.55 84.85 106.4 81.65 108.55 84.85 Q110.7 88.9 111.85 95.75 L111.85 95.8 112.8 107.75 112.75 108.2 112.75 108.3 112.7 108.75 112.55 110.05 112.5 110.2 Q111.85 113.05 109.6 117.25 L107.25 121.35 106.5 122.45 105.75 123.2 79.65 147.45 73.0 146.25 69.6 145.45 67.05 144.65 Q65.15 143.95 64.3 143.3 L64.2 143.2 64.0 143.05 Q62.2 141.55 55.9 137.2 L45.55 129.95 45.2 129.7 44.4 129.05 45.55 129.95 44.4 129.05 34.45 121.15 30.95 118.55 25.35 114.15 Q20.45 110.35 17.25 108.2 14.9 106.65 13.45 105.95 L13.35 103.0 Q10.4 99.85 7.05 95.55 5.2 93.1 -5.5 84.95 -15.3 77.5 -15.3 76.4 L-10.8 74.2 Q-5.75 71.85 -3.9 69.75 -2.95 68.65 -2.9 67.15 L-2.9 64.9 Q-2.7 63.25 0.5 62.5 2.95 62.95 8.05 65.1 L13.8 67.25 14.2 67.2 15.95 68.75 23.25 77.55 Q27.9 83.15 35.35 94.7 42.8 104.6 53.1 109.65 L52.95 109.9 53.75 110.25 Q73.95 119.6 78.75 117.8 84.6 115.55 88.8 105.7 92.75 96.35 91.8 88.6 91.0 82.05 76.45 65.85 64.1 52.0 54.5 44.45 47.35 38.85 31.15 30.05 16.2 21.95 9.7 19.85 L9.2 19.7 Q6.35 16.85 4.9 14.0 2.05 8.5 9.2 8.9 L10.55 9.05 10.6 9.05 Q14.3 9.5 18.85 11.25 22.7 12.75 27.15 15.2 32.25 18.05 36.05 20.8 L43.25 26.2 45.4 27.9 54.25 34.8 79.15 54.55 79.45 54.8 M30.75 118.45 Q27.7 116.25 25.25 114.9 L25.25 114.75 Q25.25 114.25 22.4 112.25 19.75 110.4 18.95 110.25 18.6 109.85 18.25 109.8 L17.7 108.95 17.25 108.2 Q20.45 110.35 25.35 114.15 L30.95 118.55 30.75 118.45 M10.6 9.05 L18.85 11.25 10.6 9.05 M67.05 144.65 L64.2 143.2 67.05 144.65 M107.25 121.35 L105.75 123.2 107.25 121.35 M112.7 108.75 L112.75 108.2 112.7 108.75" fill="#a4c9de" fill-rule="evenodd" stroke="none"/>
    <path d="M96.25 70.2 L97.2 71.2 98.0 72.05 96.5 70.5 96.25 70.2 M104.0 78.85 L105.55 80.55 106.3 81.55 104.0 78.85 M108.55 84.85 Q110.55 88.05 111.05 90.5 L111.35 91.85 111.55 92.85 111.6 93.2 111.7 93.65 111.85 95.75 Q110.7 88.9 108.55 84.85 M112.8 107.75 L112.8 107.85 112.75 108.3 112.75 108.2 112.8 107.75 M112.5 110.2 L112.2 111.6 Q111.0 116.45 107.25 121.35 L109.6 117.25 Q111.85 113.05 112.5 110.2 M105.75 123.2 Q103.45 125.8 100.4 128.45 93.2 134.75 86.8 140.95 L79.65 147.45 105.75 123.2 M62.85 142.45 L57.85 139.45 48.85 132.75 41.55 126.85 40.8 126.3 39.4 125.2 31.4 118.9 30.75 118.45 30.95 118.55 34.45 121.15 44.4 129.05 45.2 129.7 45.55 129.95 49.4 133.0 Q55.15 137.55 59.3 140.25 L62.85 142.45 59.3 140.25 Q55.15 137.55 49.4 133.0 L45.55 129.95 55.9 137.2 Q62.2 141.55 64.0 143.05 L62.85 142.45 M0.5 62.5 L0.15 62.4 0.15 59.4 Q0.15 54.65 6.0 45.7 8.2 42.35 10.55 39.3 L9.7 19.85 Q16.2 21.95 31.15 30.05 47.35 38.85 54.5 44.45 64.1 52.0 76.45 65.85 91.0 82.05 91.8 88.6 92.75 96.35 88.8 105.7 84.6 115.55 78.75 117.8 73.95 119.6 53.75 110.25 L52.95 109.9 53.1 109.65 Q42.8 104.6 35.35 94.7 27.9 83.15 23.25 77.55 L15.95 68.75 14.2 67.2 13.8 67.25 8.05 65.1 Q2.95 62.95 0.5 62.5 M9.2 8.9 L9.2 8.7 10.05 8.9 10.55 9.05 9.2 8.9 M18.85 11.25 Q21.9 12.2 23.95 13.1 28.55 15.2 35.65 20.5 L36.05 20.8 Q32.25 18.05 27.15 15.2 22.7 12.75 18.85 11.25 M47.65 29.55 L75.05 51.1 75.55 51.5 79.15 54.55 54.25 34.8 45.4 27.9 47.65 29.55 M97.2 71.2 L96.5 70.5 97.2 71.2 M41.55 126.85 L44.4 129.05 41.55 126.85 M31.4 118.9 L30.95 118.55 31.4 118.9 M69.6 145.45 L73.0 146.25 79.65 147.45 Q74.7 147.2 69.6 145.45 M112.75 108.2 L112.8 107.85 112.75 108.2" fill="#d6eefb" fill-rule="evenodd" stroke="none"/>
    <path d="M97.2 71.2 L98.0 72.05 98.25 72.35 103.5 78.25 104.0 78.85 105.55 80.55 106.4 81.65 108.55 84.85 Q110.55 88.05 111.05 90.5 L111.35 91.85 111.55 92.85 111.6 93.2 111.7 93.65 111.85 95.75 M111.85 95.8 L112.8 107.75 112.8 107.85 112.75 108.2 112.7 108.75 112.55 110.05 112.5 110.2 112.2 111.6 Q111.0 116.45 107.25 121.35 L105.75 123.2 Q103.45 125.8 100.4 128.45 93.2 134.75 86.8 140.95 L79.65 147.45 Q74.2 148.0 67.05 144.65 L64.2 143.2 62.85 142.45 59.3 140.25 Q55.15 137.55 49.4 133.0 L45.55 129.95 44.4 129.05 41.55 126.85 40.8 126.3 39.4 125.2 31.4 118.9 30.95 118.55 25.35 114.15 Q20.45 110.35 17.25 108.2 14.9 106.65 13.45 105.95 M9.2 8.7 L10.05 8.9 10.6 9.05 18.85 11.25 Q21.9 12.2 23.95 13.1 28.55 15.2 35.65 20.5 L36.05 20.8 43.25 26.2 47.65 29.55 75.05 51.1 75.55 51.5 79.15 54.55 79.45 54.8 Q89.6 63.5 96.5 70.5 L97.2 71.2 Z" fill="none" stroke="#4a4f58" stroke-linecap="round" stroke-linejoin="miter-clip" stroke-miterlimit="3.0" stroke-width="1.2000000000000002"/>
  </g>
</svg>
