<?xml version="1.0" encoding="UTF-8" standalone="no"?>
<svg xmlns:xlink="http://www.w3.org/1999/xlink" height="131.15px" width="124.95px" xmlns="http://www.w3.org/2000/svg">
  <g transform="matrix(1.0, 0.0, 0.0, 1.0, 15.15, -15.1)">
    <path d="M93.85 78.8 L93.6 78.55 93.2 78.1 93.85 78.8 M76.7 62.6 L55.4 44.8 47.0 37.75 47.95 38.5 74.65 60.7 75.1 61.15 76.7 62.6 M37.6 30.1 Q33.9 27.3 29.2 24.3 24.7 21.35 20.9 19.55 23.95 20.85 26.0 22.0 30.55 24.5 37.6 30.1 M12.5 16.2 L11.1 15.9 11.1 15.7 12.5 16.2 M34.8 117.95 L35.2 118.2 35.3 118.35 34.8 117.95 M35.4 118.4 L35.5 118.45 Q37.15 119.5 39.0 120.9 L48.35 127.9 49.2 128.55 49.6 128.8 50.0 129.2 50.3 129.35 50.35 129.45 50.75 129.75 60.65 136.25 68.55 141.7 68.2 141.55 67.7 141.3 Q65.15 139.95 62.55 138.35 58.9 136.05 53.7 132.05 L46.25 126.4 45.55 125.9 44.05 124.8 35.8 118.75 35.4 118.4 M73.85 143.8 L77.0 144.55 83.1 145.55 104.35 123.8 100.2 128.4 Q94.35 133.9 89.1 139.55 L83.1 145.55 Q78.55 145.35 73.85 143.8 M105.45 122.35 L107.2 118.8 Q108.7 115.2 109.1 112.9 L108.95 114.1 Q108.25 118.15 105.45 122.35 M107.8 100.65 Q106.4 94.9 104.45 91.45 106.2 94.2 106.8 96.3 L107.1 97.45 107.35 98.25 107.45 98.55 107.5 98.9 107.8 100.65 M95.15 80.2 L93.9 78.85 94.15 79.05 95.15 80.2" fill="#d6eefb" fill-rule="evenodd" stroke="none"/>
    <path d="M11.75 25.6 Q18.3 28.45 33.45 37.7 49.15 47.35 56.0 53.0 64.95 60.4 76.55 73.35 89.75 88.1 90.8 93.7 92.0 100.35 89.1 108.3 85.9 116.8 80.9 118.7 76.65 120.15 57.55 111.2 L56.8 110.85 56.95 110.65 Q46.8 105.6 39.2 96.15 31.4 84.9 26.65 79.45 L18.95 70.7 17.05 69.1 16.7 69.1 10.6 66.55 Q5.0 63.95 2.4 63.25 L2.0 63.2 2.0 60.35 Q1.95 55.85 8.15 48.35 10.35 45.5 12.9 43.1 L11.75 25.6" fill="#f7f8fa" fill-rule="evenodd" stroke="none"/>
    <path d="M93.2 78.1 L93.6 78.55 93.85 78.8 93.9 78.85 95.15 80.2 95.35 80.45 100.05 85.7 101.3 87.15 101.35 87.2 101.8 87.75 102.0 87.9 102.15 88.15 102.35 88.4 102.5 88.6 102.6 88.7 103.05 89.25 104.45 91.45 Q106.4 94.9 107.8 100.65 L107.8 100.75 109.15 110.8 109.15 110.9 109.2 111.2 109.2 111.25 109.2 111.45 109.2 111.65 109.1 112.75 109.1 112.9 Q108.7 115.2 107.2 118.8 L105.45 122.35 104.9 123.25 104.35 123.8 83.1 145.55 77.0 144.55 73.85 143.8 71.5 143.15 Q69.6 142.45 68.85 141.9 L68.75 141.85 68.7 141.8 68.55 141.7 60.65 136.25 50.75 129.75 50.35 129.45 50.3 129.35 50.0 129.2 49.6 128.8 49.2 128.55 48.35 127.9 39.0 120.9 Q37.15 119.5 35.5 118.45 L35.4 118.4 35.35 118.35 35.3 118.35 35.2 118.2 34.8 117.95 32.1 116.25 13.75 99.75 9.55 95.95 -3.9 85.1 Q-15.15 76.1 -15.15 75.1 -15.2 74.95 -10.05 73.35 -4.45 71.55 -2.35 69.75 -1.3 68.75 -1.25 67.4 L-1.25 65.25 Q-1.1 63.55 2.4 63.25 5.0 63.95 10.6 66.55 L16.7 69.1 17.05 69.1 18.95 70.7 26.65 79.45 Q31.4 84.9 39.2 96.15 46.8 105.6 56.95 110.65 L56.8 110.85 57.55 111.2 Q76.65 120.15 80.9 118.7 85.9 116.8 89.1 108.3 92.0 100.35 90.8 93.7 89.75 88.1 76.55 73.35 64.95 60.4 56.0 53.0 49.15 47.35 33.45 37.7 18.3 28.45 11.75 25.6 L11.2 25.4 Q8.2 22.45 6.7 19.7 3.65 14.3 11.1 15.9 L12.5 16.2 Q16.25 17.2 20.9 19.55 24.7 21.35 29.2 24.3 33.9 27.3 37.6 30.1 L38.0 30.45 45.4 36.45 47.0 37.75 55.4 44.8 76.7 62.6 78.4 64.05 78.6 64.3 Q84.7 69.0 92.55 77.4 L92.75 77.65 93.0 77.9 93.2 78.1" fill="#f5e9eb" fill-rule="evenodd" stroke="none"/>
    <path d="M109.2 111.2 Q109.2 98.75 104.0 90.65 101.7 87.05 89.7 74.65 83.45 68.25 61.4 49.65 41.1 32.55 34.25 27.5 28.05 22.9 24.25 21.0 21.45 19.6 11.1 15.7 M109.2 111.65 Q109.6 119.35 95.85 133.25 88.95 140.2 81.9 145.65 75.8 145.65 65.7 140.15 56.25 135.05 49.2 128.55 45.65 125.25 41.95 122.8 L33.3 116.85 Q31.2 115.35 25.25 109.85 19.3 104.3 -14.2 76.1" fill="none" stroke="#666666" stroke-linecap="round" stroke-linejoin="miter-clip" stroke-miterlimit="3.0" stroke-width="1.2000000000000002"/>
  </g>
</svg>
