<?xml version="1.0" encoding="UTF-8" standalone="no"?>
<svg xmlns:xlink="http://www.w3.org/1999/xlink" height="165.7px" width="486.65px" xmlns="http://www.w3.org/2000/svg">
  <g transform="matrix(1.0, 0.0, 0.0, 1.0, 240.2, 91.95)">
    <path d="M81.8 -89.05 L85.85 -88.85 Q113.0 -87.6 123.25 -85.45 136.8 -82.65 150.35 -78.1 166.2 -72.8 172.85 -67.9 193.25 -53.0 204.85 -42.75 231.2 -19.4 235.1 -3.9 241.2 20.5 245.95 73.25 M-239.7 56.7 L-232.2 0.05 Q-228.95 -16.2 -216.25 -34.35 -202.15 -54.7 -183.1 -66.05 -163.45 -77.8 -131.2 -84.65 -107.05 -89.8 -82.25 -90.75 L-81.9 -90.7" fill="none" stroke="#231f20" stroke-linecap="round" stroke-linejoin="miter-clip" stroke-miterlimit="3.0" stroke-width="1.0"/>
    <path d="M-81.6 -90.2 Q-82.05 -90.1 -82.15 -90.65 -82.15 -91.15 -81.65 -91.15 L-68.85 -91.75 -55.65 -91.95 -32.95 -90.85 -25.55 -89.85 -18.75 -88.4 Q-15.65 -87.6 -12.85 -86.5 -10.05 -85.35 -8.1 -84.1 L-6.3 -82.85 -3.9 -80.5 -3.8 -80.35 -3.7 -80.25 -2.9 -79.0 -2.8 -78.75 -2.8 -78.65 -2.95 -78.65 -2.95 -78.7 -3.1 -78.9 -3.2 -79.15 -3.45 -79.45 -3.7 -79.85 -3.9 -80.1 -4.0 -80.2 -4.1 -80.35 -5.1 -81.45 -6.45 -82.65 -8.25 -83.9 Q-10.65 -85.3 -12.95 -86.15 L-18.85 -88.0 -25.65 -89.4 -33.0 -90.3 -55.65 -91.2 -68.8 -90.9 -78.1 -90.4 -80.65 -90.25 -81.6 -90.2 M81.8 -89.5 Q82.3 -89.5 82.3 -89.0 82.2 -88.45 81.75 -88.55 L49.5 -90.05 42.05 -90.0 34.7 -89.65 27.55 -89.0 20.95 -87.9 Q17.9 -87.3 15.15 -86.3 12.75 -85.5 10.6 -84.15 L8.95 -82.9 7.75 -81.6 6.95 -80.4 6.95 -80.3 6.9 -80.25 6.85 -80.1 6.8 -80.0 6.65 -79.6 6.55 -79.4 6.3 -78.55 Q6.3 -78.4 6.2 -78.5 6.05 -78.5 6.15 -78.6 L6.2 -78.8 6.2 -78.95 6.35 -79.45 6.6 -80.05 6.7 -80.35 6.75 -80.4 6.75 -80.45 7.55 -81.7 8.8 -83.05 10.45 -84.35 Q12.25 -85.55 15.05 -86.65 L20.85 -88.3 27.5 -89.45 34.65 -90.2 42.05 -90.6 78.4 -89.75 80.9 -89.6 81.8 -89.5" fill="#231f20" fill-rule="evenodd" stroke="none"/>
  </g>
</svg>
