<?xml version="1.0" encoding="UTF-8" standalone="no"?>
<svg xmlns:xlink="http://www.w3.org/1999/xlink" height="99.2px" width="123.25px" xmlns="http://www.w3.org/2000/svg">
  <g transform="matrix(1.0, 0.0, 0.0, 1.0, 16.3, 50.45)">
    <path d="M70.4 43.7 Q69.3 42.4 65.6 40.75 L61.3 38.95 Q59.25 37.85 55.2 37.95 51.25 38.05 49.65 37.1 47.85 36.05 46.75 33.45 45.8 31.3 44.85 31.3 43.15 31.3 42.15 31.85 L41.75 32.1 Q41.4 32.35 40.4 33.9 38.6 36.7 32.8 37.35 L27.65 38.25 24.85 39.0 Q23.4 39.3 22.05 40.05 L19.95 41.1 Q13.15 43.15 10.65 43.6 L-7.15 44.75 Q-8.75 44.75 -11.55 41.4 -13.85 38.6 -14.3 37.45 -15.75 33.95 -16.1 30.55 L-16.3 23.45 -15.65 -5.0 -15.45 -10.45 Q-14.65 -13.3 -13.15 -14.85 -11.35 -16.7 -11.75 -23.9 -11.9 -27.45 -12.45 -30.7 -12.45 -45.15 -8.9 -48.4 -7.2 -49.95 -3.85 -50.3 L3.85 -50.45 15.75 -49.65 Q19.6 -48.8 21.55 -46.35 23.05 -44.45 24.85 -39.25 28.05 -30.1 29.35 -26.85 28.45 -25.05 28.45 -23.6 28.45 -21.0 29.65 -17.6 L31.55 -13.0 31.35 -16.75 31.55 -14.75 Q32.3 -9.35 33.25 -5.0 34.15 -0.75 35.3 2.5 L39.3 13.7 Q39.9 12.6 40.3 12.6 L40.65 8.7 41.55 18.0 42.5 17.95 Q43.3 17.45 47.2 11.45 51.0 5.6 51.85 3.75 L55.9 -5.0 55.9 -5.05 Q58.65 -11.25 58.5 -12.3 58.3 -14.15 59.05 -15.85 59.85 -17.85 59.85 -19.75 59.85 -23.4 58.7 -25.5 56.9 -28.9 52.2 -29.5 53.7 -31.6 55.25 -35.8 56.8 -40.05 58.0 -41.8 62.35 -48.0 76.65 -48.0 81.5 -48.0 85.6 -46.45 90.4 -44.6 91.95 -41.25 95.0 -34.65 96.5 -26.8 97.95 -18.95 97.2 -13.4 L105.75 -13.4 Q106.5 -11.25 106.8 -5.0 L106.95 3.15 106.5 18.85 105.85 29.4 Q104.5 25.55 103.35 24.25 101.1 21.65 96.4 21.65 90.1 21.65 86.1 29.45 L83.25 35.4 Q81.75 38.45 80.25 39.35 L75.35 40.35 Q71.3 41.25 70.4 43.7" fill="#ee830f" fill-rule="evenodd" stroke="none"/>
    <path d="M29.35 -26.85 L30.6 -28.05 36.4 -28.3 42.15 -29.0 42.25 -29.0 52.2 -29.5 Q56.9 -28.9 58.7 -25.5 59.85 -23.4 59.85 -19.75 59.85 -17.85 59.05 -15.85 58.3 -14.15 58.5 -12.3 58.65 -11.25 55.9 -5.05 L55.9 -5.0 51.85 3.75 Q51.0 5.6 47.2 11.45 43.3 17.45 42.5 17.95 L41.55 18.0 40.65 8.7 40.3 12.6 Q39.9 12.6 39.3 13.7 L35.3 2.5 Q34.15 -0.75 33.25 -5.0 32.3 -9.35 31.55 -14.75 L31.35 -16.75 31.55 -13.0 29.65 -17.6 Q28.45 -21.0 28.45 -23.6 28.45 -25.05 29.35 -26.85 M105.85 29.4 Q106.5 31.7 104.7 35.8 103.0 39.6 101.2 40.8 90.85 47.7 89.6 47.7 87.3 47.7 79.15 45.8 L71.1 43.7 71.05 43.8 70.4 43.7 Q71.3 41.25 75.35 40.35 L80.25 39.35 Q81.75 38.45 83.25 35.4 L86.1 29.45 Q90.1 21.65 96.4 21.65 101.1 21.65 103.35 24.25 104.5 25.55 105.85 29.4" fill="#cc6f0f" fill-rule="evenodd" stroke="none"/>
    <path d="M41.75 24.7 L39.15 27.65 37.8 29.3 34.3 31.15 35.4 30.15 39.25 26.75 Q40.85 25.3 41.75 24.7 M37.9 29.35 L38.25 29.4 Q39.1 29.2 40.5 28.4 39.8 28.95 40.3 29.85 40.55 30.2 41.3 30.25 L42.05 30.1 42.15 30.0 42.35 29.25 42.15 28.55 Q41.8 28.05 40.85 28.05 L42.15 26.8 Q43.65 25.25 43.9 24.35 L46.55 25.5 Q46.4 25.95 46.4 27.15 46.4 27.6 47.85 29.35 48.1 29.65 47.75 29.4 L48.15 29.7 Q48.5 30.1 52.9 32.25 L52.85 32.15 61.65 36.35 Q68.5 39.9 70.0 43.5 L68.3 44.3 53.75 36.25 Q46.4 32.1 45.15 32.1 44.0 32.1 42.15 33.3 41.35 33.75 40.45 34.45 36.2 37.7 30.8 39.95 L25.05 42.5 Q21.55 43.95 19.7 43.95 19.05 42.95 17.45 42.6 L20.75 38.65 Q21.2 38.1 23.5 37.1 L26.75 35.75 Q29.7 34.4 33.05 32.1 L35.85 30.55 37.9 29.35 M47.05 37.65 L42.7 37.85 43.4 37.3 43.95 36.35 43.55 36.15 42.15 36.25 41.75 36.45 Q40.65 37.05 40.7 37.5 L41.3 37.9 38.0 38.0 38.15 37.95 41.3 36.05 42.15 35.5 44.5 33.55 Q46.3 36.5 48.1 37.6 L47.05 37.65 M66.65 42.3 Q66.75 40.8 64.35 39.5 L61.9 38.5 61.3 38.65 61.4 38.75 61.5 38.85 64.05 40.35 Q65.95 41.55 66.65 42.3 M34.45 33.7 Q21.4 38.95 20.65 40.1 L22.45 39.9 Q24.55 39.0 28.55 37.55 32.55 36.05 34.45 33.7" fill="#d2b6a1" fill-rule="evenodd" stroke="none"/>
    <path d="M41.75 24.7 L42.15 24.95 42.95 24.9 Q43.5 24.95 43.9 24.2 L43.9 24.35 Q43.65 25.25 42.15 26.8 L40.85 28.05 Q41.8 28.05 42.15 28.55 L42.35 29.25 42.15 30.0 42.05 30.1 41.3 30.25 Q40.55 30.2 40.3 29.85 39.8 28.95 40.5 28.4 39.1 29.2 38.25 29.4 L37.9 29.35 37.8 29.3 39.15 27.65 41.75 24.7 M42.7 37.85 L41.3 37.9 40.7 37.5 Q40.65 37.05 41.75 36.45 L42.15 36.25 43.55 36.15 43.95 36.35 43.4 37.3 42.7 37.85 M66.65 42.3 Q65.95 41.55 64.05 40.35 L61.5 38.85 61.4 38.75 61.3 38.65 61.9 38.5 64.35 39.5 Q66.75 40.8 66.65 42.3 M34.45 33.7 Q32.55 36.05 28.55 37.55 24.55 39.0 22.45 39.9 L20.65 40.1 Q21.4 38.95 34.45 33.7" fill="#ffcccc" fill-rule="evenodd" stroke="none"/>
    <path d="M46.55 25.5 L49.75 28.85 52.85 32.15 52.9 32.25 Q48.5 30.1 48.15 29.7 L47.85 29.35 Q46.4 27.6 46.4 27.15 46.4 25.95 46.55 25.5 M68.3 44.3 L67.85 44.85 64.0 43.8 Q60.85 42.8 57.65 41.25 L52.15 38.55 Q50.2 37.6 47.05 37.65 L48.1 37.6 Q46.3 36.5 44.5 33.55 L42.15 35.5 41.3 36.05 38.15 37.95 35.25 38.45 Q34.05 38.75 30.8 39.95 36.2 37.7 40.45 34.45 41.35 33.75 42.15 33.3 44.0 32.1 45.15 32.1 46.4 32.1 53.75 36.25 L68.3 44.3" fill="#c4b6a1" fill-rule="evenodd" stroke="none"/>
    <path d="M90.2 48.15 Q80.15 47.2 70.3 44.0 M-7.35 44.95 Q5.75 45.55 18.05 42.15" fill="none" stroke="#4d2b06" stroke-linecap="round" stroke-linejoin="round" stroke-width="1.2000000000000002"/>
    <path d="M54.4 33.0 L54.75 33.2 Q59.55 36.4 66.25 38.95 69.25 41.0 70.05 43.75 69.65 44.75 67.3 44.7 60.65 43.3 53.5 39.15 L51.7 38.3 51.8 38.35 42.15 37.75 35.7 38.3 35.35 38.35 20.9 43.55 Q17.95 43.75 18.7 41.7 19.1 39.85 22.05 37.85 27.85 35.65 33.1 32.15 L34.25 31.35 40.45 26.4 Q41.3 25.55 42.15 25.15 44.5 24.05 47.15 26.35 49.95 29.95 54.4 33.0 L47.45 29.35 M35.7 38.3 L42.15 34.85 Q44.6 33.75 46.3 35.2 L51.7 38.3 51.25 38.05 51.8 38.35 M39.35 29.0 L34.25 31.35" fill="none" stroke="#4d2b06" stroke-linecap="round" stroke-linejoin="round" stroke-width="1.0"/>
  </g>
</svg>
