<?xml version="1.0" encoding="UTF-8" standalone="no"?>
<svg xmlns:xlink="http://www.w3.org/1999/xlink" height="31.55px" width="74.3px" xmlns="http://www.w3.org/2000/svg">
  <g transform="matrix(1.0, 0.0, 0.0, 1.0, 1.4, 23.15)">
    <path d="M11.6 -16.0 L11.15 -16.4 10.95 -17.4 Q11.55 -18.2 12.5 -18.4 L12.65 -18.4 18.5 -18.2 Q21.35 -17.85 22.95 -15.3 L24.05 -13.75 24.5 -13.05 25.85 -10.5 26.45 -8.8 Q25.25 -8.8 24.4 -9.6 23.55 -10.45 23.55 -11.6 22.0 -13.2 20.25 -14.3 L20.0 -14.45 17.5 -15.75 16.2 -16.05 14.95 -15.95 14.9 -15.0 14.85 -14.9 Q14.25 -14.6 13.65 -15.05 L12.95 -15.5 11.6 -16.0 M23.5 -20.35 L23.0 -20.4 22.6 -20.75 Q22.45 -20.95 22.55 -21.2 L22.85 -21.6 23.35 -21.75 25.9 -21.8 Q26.6 -21.55 26.6 -20.75 L26.65 -20.2 23.5 -20.35 M65.1 -5.95 L65.25 -5.7 66.1 -2.5 65.75 -2.25 64.1 -2.35 63.6 -3.05 63.5 -5.05 64.25 -6.9 65.1 -5.95 M60.8 -8.4 L59.8 -7.9 58.1 -7.45 Q55.3 -7.3 52.8 -8.25 L51.55 -8.55 51.2 -8.65 51.25 -9.65 53.65 -9.45 54.85 -9.15 57.45 -8.65 59.35 -9.05 61.65 -10.15 Q61.6 -9.1 60.8 -8.4 M62.5 -7.85 L63.05 -7.6 63.25 -7.1 63.05 -6.55 62.5 -6.35 62.0 -6.55 Q61.75 -6.8 61.75 -7.1 L62.0 -7.6 62.5 -7.85" fill="#ffffff" fill-opacity="0.8980392" fill-rule="evenodd" stroke="none"/>
    <path d="M33.75 -19.1 Q35.3 -18.25 36.15 -16.65 L36.75 -15.6 36.6 -14.75 Q36.3 -14.6 36.15 -14.75 35.1 -15.25 34.2 -16.0 31.5 -18.0 28.55 -19.5 L26.65 -20.2 26.6 -20.75 Q26.6 -21.55 25.9 -21.8 28.35 -21.6 30.55 -20.65 L33.75 -19.1 M40.0 -15.35 L41.1 -15.45 43.1 -15.4 43.35 -14.95 44.45 -15.0 45.35 -14.25 45.35 -12.6 Q42.85 -12.05 41.3 -13.7 L40.0 -15.35 M50.75 -18.8 Q51.05 -17.05 50.8 -15.4 L50.6 -14.3 50.4 -13.2 Q51.2 -12.6 51.2 -11.5 L51.05 -10.55 Q49.25 -10.45 49.05 -12.45 48.9 -14.4 49.5 -16.35 L49.55 -17.05 Q49.3 -18.35 48.7 -19.45 48.35 -20.15 48.6 -20.9 L48.85 -21.7 Q49.6 -21.55 49.85 -20.8 L50.75 -18.8 M67.65 -11.35 L67.25 -10.6 66.4 -9.75 64.95 -8.55 Q64.4 -8.45 64.25 -9.1 L64.2 -9.45 65.5 -10.85 64.5 -11.85 62.7 -11.9 62.6 -12.9 Q63.2 -13.9 64.1 -14.75 65.9 -15.0 66.8 -13.55 L67.3 -12.5 67.65 -11.35 M6.45 5.95 L5.45 6.5 3.3 6.4 4.4 4.35 11.3 4.1 11.4 4.75 9.5 5.25 7.1 5.3 6.45 5.95 M13.35 -6.15 L15.6 -6.15 Q16.95 -4.95 17.25 -3.25 L17.25 -3.1 15.9 -3.15 Q14.1 -2.85 13.25 -4.35 11.7 -3.35 10.0 -3.15 L8.0 -3.2 8.25 -2.95 8.5 -2.4 8.5 -1.85 8.3 -1.7 Q6.65 -1.55 5.0 -2.2 4.25 -2.55 3.95 -3.45 L2.15 -3.4 2.1 -4.25 Q3.45 -5.5 5.4 -5.35 L11.45 -5.85 13.35 -6.15 M12.95 -15.5 L13.65 -15.05 Q14.25 -14.6 14.85 -14.9 L15.9 -14.65 Q16.35 -14.15 16.3 -13.5 16.3 -13.1 16.1 -13.25 L15.5 -13.35 Q13.5 -13.6 12.95 -15.5 M14.9 -15.0 L14.95 -15.95 16.2 -16.05 16.25 -15.95 17.5 -15.75 20.0 -14.45 19.65 -13.2 Q18.25 -13.2 17.15 -14.2 L16.05 -15.05 14.9 -15.0 M23.55 -11.6 Q23.55 -10.45 24.4 -9.6 25.25 -8.8 26.45 -8.8 L26.8 -10.25 25.85 -10.5 24.5 -13.05 32.25 -13.25 32.3 -12.55 32.25 -12.25 31.6 -12.4 31.35 -12.45 31.15 -12.4 31.05 -12.0 Q31.1 -9.6 29.55 -7.55 28.5 -6.15 26.7 -5.5 L24.6 -5.55 24.45 -5.7 24.35 -6.5 25.35 -7.3 24.65 -8.1 23.2 -9.6 Q22.5 -10.3 22.8 -11.35 22.95 -11.9 23.55 -11.6 M63.6 -3.05 Q62.85 -4.0 63.4 -4.9 L63.5 -5.05 63.6 -3.05 M64.1 -2.35 L65.75 -2.25 66.1 -2.5 Q66.95 -1.65 67.0 -0.55 67.05 0.85 65.7 1.35 L65.05 0.4 64.6 -1.15 64.1 -2.35 M48.65 -11.1 L49.15 -10.9 49.35 -10.4 Q49.35 -10.1 49.15 -9.9 L48.65 -9.7 Q48.35 -9.7 48.15 -9.9 L47.95 -10.4 48.15 -10.9 48.65 -11.1 M59.75 1.35 L60.45 1.6 60.7 2.1 60.45 2.65 59.75 2.85 Q59.35 2.85 59.1 2.65 L58.8 2.1 Q58.8 1.8 59.1 1.6 59.35 1.35 59.75 1.35 M46.5 -5.0 L46.25 -4.5 45.6 -4.3 45.0 -4.5 Q44.7 -4.7 44.7 -5.0 L45.0 -5.5 45.6 -5.7 46.25 -5.5 46.5 -5.0 M28.25 -9.05 L29.0 -9.5 28.2 -9.15 28.25 -9.05 M29.5 -1.55 L27.75 -1.5 27.0 -1.9 Q26.85 -2.6 27.5 -3.0 L29.65 -4.3 31.6 -5.2 34.0 -5.9 35.0 -5.8 Q34.7 -4.15 33.5 -2.85 32.95 -2.25 32.1 -1.95 L29.5 -1.55 M36.6 -5.4 Q36.3 -5.4 36.1 -5.6 L35.85 -6.15 36.1 -6.65 36.6 -6.9 37.15 -6.65 37.35 -6.15 37.15 -5.6 36.6 -5.4 M21.0 0.35 L21.1 1.7 Q19.35 3.15 17.1 2.7 L17.0 1.8 Q17.7 0.55 18.85 -0.15 20.7 -1.3 22.75 -1.65 24.0 -1.7 24.35 -0.8 23.3 0.05 21.85 0.25 L21.0 0.35" fill="#ffffff" fill-opacity="0.6" fill-rule="evenodd" stroke="none"/>
    <path d="M10.95 -17.4 L11.05 -18.25 12.65 -18.4 12.5 -18.4 Q11.55 -18.2 10.95 -17.4 M24.05 -13.75 Q27.05 -13.7 29.95 -14.55 L30.8 -14.8 Q31.1 -15.5 30.5 -16.1 29.3 -17.2 27.8 -17.85 25.55 -18.75 23.5 -20.35 L26.65 -20.2 28.55 -19.5 Q31.5 -18.0 34.2 -16.0 35.1 -15.25 36.15 -14.75 36.3 -14.6 36.6 -14.75 L36.75 -15.6 40.0 -15.35 41.3 -13.7 Q42.85 -12.05 45.35 -12.6 L45.35 -14.25 44.45 -15.0 43.35 -14.95 43.1 -15.4 41.1 -15.45 Q44.15 -15.6 45.5 -18.1 L45.95 -19.45 46.2 -21.5 Q47.5 -22.95 49.5 -22.05 50.35 -21.7 50.55 -20.95 L50.75 -18.8 49.85 -20.8 Q49.6 -21.55 48.85 -21.7 L48.6 -20.9 Q48.35 -20.15 48.7 -19.45 49.3 -18.35 49.55 -17.05 L49.5 -16.35 Q48.9 -14.4 49.05 -12.45 49.25 -10.45 51.05 -10.55 L51.2 -11.5 Q51.2 -12.6 50.4 -13.2 L50.6 -14.3 Q50.95 -12.75 51.7 -11.25 52.15 -10.35 53.3 -10.0 L59.05 -10.25 Q59.85 -10.4 60.5 -10.9 L61.15 -11.75 61.5 -13.05 61.6 -14.2 Q62.65 -15.15 64.2 -15.0 L66.9 -14.65 Q68.45 -14.25 68.5 -12.85 L68.5 -12.25 67.65 -11.35 67.3 -12.5 66.8 -13.55 Q65.9 -15.0 64.1 -14.75 63.2 -13.9 62.6 -12.9 L62.7 -11.9 64.5 -11.85 65.5 -10.85 64.2 -9.45 64.25 -9.1 Q64.4 -8.45 64.95 -8.55 L64.95 -6.8 65.1 -5.95 64.25 -6.9 63.5 -5.05 63.4 -4.9 Q62.85 -4.0 63.6 -3.05 L64.1 -2.35 64.6 -1.15 65.05 0.4 65.7 1.35 Q67.05 0.85 67.0 -0.55 66.95 -1.65 66.1 -2.5 L65.25 -5.7 Q67.0 -3.65 68.1 -1.3 L70.0 2.55 71.95 6.55 72.9 8.25 Q69.85 8.6 66.75 8.25 L61.2 7.55 55.25 6.45 47.2 4.45 42.9 3.3 40.5 2.7 38.45 2.15 36.85 1.8 34.7 1.3 Q34.15 1.1 33.5 1.3 L29.9 2.05 Q26.25 3.15 22.3 4.6 17.9 6.35 13.4 7.6 L12.2 7.45 11.05 6.6 10.45 5.75 10.3 5.5 6.45 5.95 7.1 5.3 9.5 5.25 11.4 4.75 11.3 4.1 4.4 4.35 3.3 6.4 5.45 6.5 Q2.7 8.1 -0.15 6.7 -1.45 6.1 -1.4 4.8 -0.55 3.4 0.7 3.0 3.35 2.0 5.95 1.25 L7.95 0.6 Q6.0 -0.6 3.9 -1.55 2.5 -2.2 1.85 -3.7 1.6 -4.3 1.75 -4.9 L2.2 -5.9 Q2.85 -6.6 3.95 -6.75 L9.85 -6.45 13.35 -6.15 11.45 -5.85 5.4 -5.35 Q3.45 -5.5 2.1 -4.25 L2.15 -3.4 3.95 -3.45 Q4.25 -2.55 5.0 -2.2 6.65 -1.55 8.3 -1.7 L8.5 -1.85 8.5 -2.4 8.25 -2.95 8.0 -3.2 10.0 -3.15 Q11.7 -3.35 13.25 -4.35 14.1 -2.85 15.9 -3.15 L17.25 -3.1 17.25 -3.25 Q16.95 -4.95 15.6 -6.15 17.1 -6.15 18.35 -6.7 L19.05 -7.0 Q18.25 -9.95 15.85 -12.0 L11.6 -16.0 12.95 -15.5 Q13.5 -13.6 15.5 -13.35 L16.1 -13.25 Q16.3 -13.1 16.3 -13.5 16.35 -14.15 15.9 -14.65 L14.85 -14.9 14.9 -15.0 16.05 -15.05 17.15 -14.2 Q18.25 -13.2 19.65 -13.2 L20.0 -14.45 20.25 -14.3 Q22.0 -13.2 23.55 -11.6 22.95 -11.9 22.8 -11.35 22.5 -10.3 23.2 -9.6 L24.65 -8.1 25.35 -7.3 24.35 -6.5 24.45 -5.7 24.6 -5.55 26.7 -5.5 Q28.5 -6.15 29.55 -7.55 31.1 -9.6 31.05 -12.0 L31.15 -12.4 31.35 -12.45 31.6 -12.4 32.25 -12.25 32.3 -12.55 32.25 -13.25 24.5 -13.05 24.05 -13.75 M23.35 -21.75 L25.5 -23.15 Q27.5 -22.9 29.3 -22.1 31.8 -21.1 33.75 -19.1 L30.55 -20.65 Q28.35 -21.6 25.9 -21.8 L23.35 -21.75 M16.2 -16.05 L17.5 -15.75 16.25 -15.95 16.2 -16.05 M26.45 -8.8 L25.85 -10.5 26.8 -10.25 26.45 -8.8 M62.5 -7.85 L62.0 -7.6 61.75 -7.1 Q61.75 -6.8 62.0 -6.55 L62.5 -6.35 63.05 -6.55 63.25 -7.1 63.05 -7.6 62.5 -7.85 M60.8 -8.4 Q61.6 -9.1 61.65 -10.15 L59.35 -9.05 57.45 -8.65 54.85 -9.15 53.65 -9.45 51.25 -9.65 51.2 -8.65 51.55 -8.55 52.8 -8.25 Q55.3 -7.3 58.1 -7.45 L59.8 -7.9 60.8 -8.4 M48.65 -11.1 L48.15 -10.9 47.95 -10.4 48.15 -9.9 Q48.35 -9.7 48.65 -9.7 L49.15 -9.9 Q49.35 -10.1 49.35 -10.4 L49.15 -10.9 48.65 -11.1 M21.0 0.35 L21.85 0.25 Q23.3 0.05 24.35 -0.8 24.0 -1.7 22.75 -1.65 20.7 -1.3 18.85 -0.15 17.7 0.55 17.0 1.8 L17.1 2.7 Q19.35 3.15 21.1 1.7 L21.0 0.35 M36.6 -5.4 L37.15 -5.6 37.35 -6.15 37.15 -6.65 36.6 -6.9 36.1 -6.65 35.85 -6.15 36.1 -5.6 Q36.3 -5.4 36.6 -5.4 M29.5 -1.55 L32.1 -1.95 Q32.95 -2.25 33.5 -2.85 34.7 -4.15 35.0 -5.8 L34.0 -5.9 31.6 -5.2 29.65 -4.3 27.5 -3.0 Q26.85 -2.6 27.0 -1.9 L27.75 -1.5 29.5 -1.55 M28.25 -9.05 L28.2 -9.15 29.0 -9.5 28.25 -9.05 M46.5 -5.0 L46.25 -5.5 45.6 -5.7 45.0 -5.5 44.7 -5.0 Q44.7 -4.7 45.0 -4.5 L45.6 -4.3 46.25 -4.5 46.5 -5.0 M59.75 1.35 Q59.35 1.35 59.1 1.6 58.8 1.8 58.8 2.1 L59.1 2.65 Q59.35 2.85 59.75 2.85 L60.45 2.65 60.7 2.1 60.45 1.6 59.75 1.35" fill="#ffffff" fill-opacity="0.2" fill-rule="evenodd" stroke="none"/>
  </g>
</svg>
