<?xml version="1.0" encoding="UTF-8" standalone="no"?>
<svg xmlns:xlink="http://www.w3.org/1999/xlink" height="117.15px" width="202.15px" xmlns="http://www.w3.org/2000/svg">
  <g transform="matrix(1.0, 0.0, 0.0, 1.0, 100.75, 58.5)">
    <path d="M35.55 -14.65 L36.1 -13.7 Q54.35 -31.35 51.25 -5.8 47.45 7.75 39.85 15.6 33.9 14.3 27.95 12.3 L32.6 -6.1 27.95 12.3 Q33.9 14.3 39.85 15.6 29.25 16.2 22.2 31.9 22.6 15.9 27.4 0.15 12.2 5.55 -4.45 5.5 -11.15 7.0 -12.05 16.1 -9.3 31.45 -9.95 41.95 -4.45 37.3 -2.7 42.15 L-4.85 49.8 Q-1.95 43.8 0.25 44.1 35.3 45.4 45.6 38.7 43.25 43.8 39.3 49.85 L-4.15 53.4 -9.8 57.7 Q-11.95 53.3 -11.05 50.1 -13.0 52.95 -16.5 53.85 -14.25 33.2 -15.15 10.2 L-15.3 6.1 Q-65.7 7.8 -100.75 -24.25 L-97.25 -26.35 Q-63.85 0.75 -15.5 3.05 L-15.3 6.1 -15.5 3.05 Q20.3 0.75 32.6 -6.1 35.75 -7.35 35.55 -14.65 M22.2 31.9 L27.95 12.3 22.2 31.9 M-11.05 50.1 L-9.8 47.65 -11.05 50.1" fill="#f5e9eb" fill-rule="evenodd" stroke="none"/>
    <path d="M35.55 -14.65 Q35.75 -7.35 32.6 -6.1 20.3 0.75 -15.5 3.05 -63.85 0.75 -97.25 -26.35 -98.6 -46.2 -82.75 -57.65 -62.2 -30.05 -15.35 -19.45 -11.55 -34.6 4.55 -44.1 28.75 -45.9 32.95 -22.35 36.4 -23.7 35.55 -14.65 M45.65 16.75 Q52.15 24.15 45.6 38.7 35.3 45.4 0.25 44.1 -1.95 43.8 -4.85 49.8 L-2.7 42.15 Q-4.45 37.3 -9.95 41.95 -9.3 31.45 -12.05 16.1 -11.15 7.0 -4.45 5.5 12.2 5.55 27.4 0.15 22.6 15.9 22.2 31.9 29.25 16.2 39.85 15.6 L45.65 16.75 M-15.35 -19.45 Q13.05 -12.75 32.95 -22.35 13.05 -12.75 -15.35 -19.45" fill="#f7f8fa" fill-rule="evenodd" stroke="none"/>
    <path d="M81.65 16.3 L86.6 15.2 Q90.15 14.6 92.2 15.7 93.9 16.55 94.2 18.35 100.25 20.75 98.1 24.1 102.25 27.1 100.0 32.2 L99.35 32.8 Q94.85 36.4 88.85 38.7 73.25 47.2 39.3 49.85 43.25 43.8 45.6 38.7 73.45 37.2 96.3 28.55 98.5 28.15 95.3 22.6 L95.25 22.6 Q94.3 22.75 93.8 22.1 90.0 20.35 90.5 18.4 L89.7 18.65 Q87.1 18.9 81.65 16.3 M94.2 18.35 Q92.75 17.75 90.5 18.4 92.75 17.75 94.2 18.35 M95.3 22.6 Q96.95 23.25 98.1 24.1 96.95 23.25 95.3 22.6" fill="#dd7e8f" fill-rule="evenodd" stroke="none"/>
    <path d="M89.7 18.65 L90.5 18.4 Q90.0 20.35 93.8 22.1 94.3 22.75 95.25 22.6 L95.3 22.6 Q98.5 28.15 96.3 28.55 73.45 37.2 45.6 38.7 52.15 24.15 45.65 16.75 63.9 19.8 81.65 16.3 87.1 18.9 89.7 18.65" fill="#ed99ac" fill-rule="evenodd" stroke="none"/>
    <path d="M35.55 -14.65 Q35.75 -7.35 32.6 -6.1 L27.95 12.3 Q33.9 14.3 39.85 15.6 47.45 7.75 51.25 -5.8 54.35 -31.35 36.1 -13.7 M4.55 -44.1 Q28.75 -45.9 32.95 -22.35 36.4 -23.7 35.55 -14.65 M81.65 16.3 L86.6 15.2 M88.85 38.7 Q73.25 47.2 39.3 49.85 L-4.15 53.4 -9.8 57.7 Q-11.95 53.3 -11.05 50.1 -13.0 52.95 -16.5 53.85 -14.25 33.2 -15.15 10.2 L-15.3 6.1 -15.5 3.05 Q-63.85 0.75 -97.25 -26.35 -98.6 -46.2 -82.75 -57.65 -62.2 -30.05 -15.35 -19.45 13.05 -12.75 32.95 -22.35 M81.65 16.3 Q63.9 19.8 45.65 16.75 L39.85 15.6 M27.95 12.3 L22.2 31.9 M-9.8 47.65 L-11.05 50.1 M32.6 -6.1 Q20.3 0.75 -15.5 3.05" fill="none" stroke="#666666" stroke-linecap="round" stroke-linejoin="miter-clip" stroke-miterlimit="3.0" stroke-width="1.2000000000000002"/>
    <path d="M86.6 15.2 Q90.15 14.6 92.2 15.7 93.9 16.55 94.2 18.35 100.25 20.75 98.1 24.1 102.25 27.1 100.0 32.2 L99.35 32.8 Q94.85 36.4 88.85 38.7 M89.7 18.65 L90.5 18.4 Q92.75 17.75 94.2 18.35 M95.3 22.6 L95.25 22.6 M98.1 24.1 Q96.95 23.25 95.3 22.6" fill="none" stroke="#666666" stroke-linecap="round" stroke-linejoin="round" stroke-width="1.2000000000000002"/>
  </g>
</svg>
