<?xml version="1.0" encoding="UTF-8" standalone="no"?>
<svg xmlns:xlink="http://www.w3.org/1999/xlink" height="45.45px" width="104.3px" xmlns="http://www.w3.org/2000/svg">
  <g transform="matrix(1.0, 0.0, 0.0, 1.0, -5.7, 26.9)">
    <path d="M32.45 -22.15 Q32.15 -23.6 31.1 -24.95 30.3 -25.85 29.2 -25.85 27.6 -25.5 27.05 -23.85 26.5 -22.4 27.6 -21.3 28.75 -20.15 30.2 -20.85 L31.95 -17.35 33.55 -13.9 33.95 -12.7 Q35.6 -8.15 37.9 -4.05 39.15 -1.75 40.95 0.25 41.8 1.2 43.25 1.15 L43.2 0.9 43.15 0.55 42.2 -1.65 41.7 -2.45 42.65 -2.9 Q42.75 -4.05 42.05 -4.95 L38.85 -9.5 43.55 -5.6 44.25 -3.65 Q45.7 -4.25 47.15 -4.9 L48.55 -5.0 48.6 -5.0 48.7 -5.0 50.35 -5.15 Q51.75 -5.35 52.85 -6.0 L53.05 -6.2 53.0 -6.85 51.9 -10.5 Q51.1 -12.8 50.65 -15.3 50.3 -17.2 50.85 -19.15 51.25 -20.5 52.35 -21.35 L54.1 -22.65 Q53.75 -21.05 52.8 -19.75 L52.35 -19.6 Q51.4 -19.6 50.85 -18.65 L51.85 -17.35 Q52.25 -16.7 52.25 -15.9 52.3 -14.5 53.05 -13.35 L53.35 -13.85 Q53.8 -14.75 54.8 -15.05 L55.5 -13.95 55.25 -13.3 55.7 -6.6 55.85 -5.2 56.65 -4.8 Q57.55 -5.6 57.7 -6.75 58.05 -9.95 56.75 -12.8 L57.4 -13.1 57.95 -15.0 Q57.95 -12.75 58.75 -10.4 59.75 -7.45 62.7 -6.75 L61.85 -5.6 61.6 -4.7 Q61.65 -4.15 62.05 -3.75 63.05 -2.65 63.55 -1.25 64.65 2.05 64.75 5.7 L65.4 4.55 65.8 3.5 65.85 3.65 66.45 6.35 67.2 7.15 68.4 4.8 68.75 4.85 Q69.45 4.65 69.65 4.05 L69.45 3.85 68.8 3.45 Q69.35 1.7 70.9 0.8 L71.05 0.0 70.85 -0.5 73.15 -0.6 73.35 -3.2 Q75.2 -3.1 76.95 -4.0 L78.05 -4.55 77.7 -1.05 78.4 -0.8 80.6 -3.3 83.45 -6.65 86.1 -10.4 88.4 -14.5 89.35 -15.25 90.35 -16.35 Q90.85 -17.2 90.25 -18.1 89.5 -19.05 88.1 -18.95 L86.5 -18.55 85.5 -17.9 Q85.0 -17.4 84.95 -16.65 L85.1 -15.95 86.7 -16.15 86.05 -15.1 82.8 -11.2 Q83.7 -13.8 84.2 -16.3 84.45 -17.45 85.05 -18.5 85.7 -19.65 86.85 -19.95 88.8 -20.45 90.1 -19.15 L90.65 -18.25 90.85 -17.3 Q90.9 -16.05 90.4 -14.95 89.35 -12.7 87.85 -10.75 L84.75 -7.0 82.8 -4.75 79.35 -0.6 75.85 3.6 Q73.65 6.3 75.8 8.9 L107.8 10.0 107.95 11.65 106.35 11.2 100.6 10.25 98.45 10.2 97.15 10.7 97.1 11.25 86.15 11.4 85.9 12.2 86.5 12.85 87.85 13.95 Q89.5 14.8 91.4 15.05 L94.75 15.15 99.3 15.25 104.9 14.8 107.15 15.1 Q105.05 16.7 102.55 17.35 L97.5 17.65 92.3 16.95 86.55 16.3 83.25 16.05 83.05 18.1 80.9 18.55 76.85 18.05 75.9 17.45 75.55 16.8 75.15 15.05 Q74.65 12.85 72.6 11.55 70.15 10.0 67.3 9.0 L56.9 5.3 55.15 4.7 56.8 3.4 56.0 2.5 54.0 2.5 54.95 2.0 54.95 1.4 52.8 1.8 52.8 1.6 52.75 1.3 52.55 1.1 52.15 0.95 51.3 1.4 Q50.05 1.95 49.25 2.85 L48.2 3.6 Q47.1 4.25 45.7 4.7 L45.7 3.45 46.45 3.0 46.9 2.55 47.35 1.95 43.95 1.45 Q43.65 2.6 42.75 3.25 41.45 4.2 39.65 4.4 L37.5 5.0 36.7 2.95 37.65 3.15 38.7 2.9 39.15 2.2 Q39.15 1.8 38.7 1.55 38.25 1.25 37.65 1.25 L36.6 1.55 Q36.15 1.8 36.15 2.2 36.15 2.6 36.6 2.9 L36.7 2.95 36.3 2.9 Q36.05 2.9 35.9 3.05 L35.65 3.25 35.6 4.2 34.55 2.85 32.2 0.6 Q33.2 0.2 34.05 -0.9 34.7 -1.8 34.35 -2.9 L32.5 -7.95 30.2 -13.4 28.05 -18.3 25.9 -23.2 Q25.75 -25.0 26.8 -26.4 L27.45 -26.9 Q29.45 -26.8 31.15 -25.7 L32.3 -24.95 32.65 -24.65 32.45 -22.15 M34.7 -14.2 L34.75 -14.0 34.15 -14.95 34.7 -14.2 M35.35 -13.65 L35.5 -13.65 35.65 -13.4 35.35 -13.65 M31.8 0.65 L31.45 1.85 25.95 0.75 22.85 0.3 19.5 -0.05 15.5 -0.4 10.75 -0.8 14.05 -0.7 19.65 -0.55 24.05 -0.35 29.75 0.4 30.6 0.7 31.8 0.65 M6.55 4.1 L8.5 4.4 9.45 4.45 Q10.45 3.95 10.7 3.0 L11.1 4.65 Q9.65 5.55 8.0 6.0 L7.4 5.9 7.05 5.45 6.55 4.1 M12.5 4.3 Q12.35 3.4 12.9 2.65 14.7 1.95 16.8 1.95 25.25 1.35 33.0 4.45 L33.7 5.5 31.75 4.85 32.75 6.6 Q33.2 7.25 34.05 7.1 L34.3 6.45 34.45 6.4 Q35.0 6.35 35.65 6.8 36.05 7.8 37.1 8.25 L36.35 8.55 Q33.45 9.65 33.05 12.65 32.95 13.2 33.25 13.45 L33.45 14.1 31.45 15.55 32.3 16.5 Q29.9 18.75 26.9 17.4 L26.35 17.05 25.8 15.2 29.3 15.4 29.35 15.2 29.7 14.5 Q28.7 14.25 28.15 13.6 L28.05 13.35 28.05 12.1 25.65 12.55 Q25.65 9.15 21.8 6.75 17.95 4.3 12.5 4.3 M37.05 10.0 L41.0 7.6 45.2 7.9 45.4 7.7 Q47.4 5.7 49.8 4.6 47.6 6.05 45.8 7.9 L44.05 9.7 44.4 8.8 Q41.15 8.8 38.95 11.4 L36.45 14.4 36.45 12.85 Q37.9 11.95 37.95 10.65 L37.95 10.2 37.75 10.0 37.05 10.0 M41.45 6.45 L39.1 7.35 38.35 6.9 41.05 6.1 42.15 5.7 41.8 6.15 41.45 6.45 M55.95 -19.7 L55.85 -19.7 54.7 -20.0 55.5 -21.85 55.95 -19.7 M57.4 -18.55 L57.25 -21.2 57.95 -17.15 57.4 -18.45 57.4 -18.55 M70.6 -2.1 L71.9 -2.3 71.7 -2.15 70.6 -2.1 M65.75 2.9 L65.6 2.5 65.5 1.8 65.6 1.85 65.8 1.9 65.9 1.8 65.75 2.9 M55.25 7.3 L51.2 8.15 54.4 5.35 54.85 6.75 55.25 7.3 M26.15 4.55 L26.15 3.7 Q24.85 2.7 23.35 2.75 L21.8 2.3 Q21.0 2.05 20.6 2.5 L20.55 2.95 21.1 4.1 21.5 4.2 26.15 4.55 M34.85 13.55 L34.85 13.7 Q34.55 14.3 34.85 13.55" fill="#ffffff" fill-opacity="0.2" fill-rule="evenodd" stroke="none"/>
    <path d="M32.2 0.6 L34.55 2.85 35.6 4.2 35.65 3.25 35.9 3.05 Q36.05 2.9 36.3 2.9 L36.7 2.95 36.6 2.9 Q36.15 2.6 36.15 2.2 36.15 1.8 36.6 1.55 L37.65 1.25 Q38.25 1.25 38.7 1.55 39.15 1.8 39.15 2.2 L38.7 2.9 37.65 3.15 36.7 2.95 37.5 5.0 39.65 4.4 Q41.45 4.2 42.75 3.25 43.65 2.6 43.95 1.45 L47.35 1.95 46.9 2.55 46.45 3.0 45.7 3.45 45.65 2.6 44.1 2.5 44.35 2.85 Q44.65 3.95 43.85 4.55 42.95 5.25 42.2 6.0 41.65 6.6 41.8 6.15 L42.15 5.7 41.05 6.1 38.35 6.9 39.1 7.35 41.45 6.45 40.6 7.15 41.0 7.6 37.05 10.0 33.25 13.45 Q32.95 13.2 33.05 12.65 33.45 9.65 36.35 8.55 L37.1 8.25 Q36.05 7.8 35.65 6.8 35.0 6.35 34.45 6.4 L34.3 6.45 34.05 7.1 Q33.2 7.25 32.75 6.6 L31.75 4.85 33.7 5.5 33.0 4.45 Q25.25 1.35 16.8 1.95 14.7 1.95 12.9 2.65 12.35 3.4 12.5 4.3 L12.6 5.85 11.95 6.25 11.1 4.65 10.7 3.0 Q10.45 3.95 9.45 4.45 L8.5 4.4 6.55 4.1 Q5.35 2.0 5.8 -0.3 L5.9 -0.85 10.75 -0.8 15.5 -0.4 19.5 -0.05 22.85 0.3 25.95 0.75 31.45 1.85 31.8 0.65 32.2 0.6 M49.25 2.85 Q50.05 1.95 51.3 1.4 L52.15 0.95 52.55 1.1 52.75 1.3 52.8 1.6 52.8 1.8 51.85 1.9 Q50.45 2.0 49.25 2.85 M104.9 14.8 L99.3 15.25 94.75 15.15 91.4 15.05 Q89.5 14.8 87.85 13.95 L86.5 12.85 85.9 12.2 86.15 11.4 97.1 11.25 Q98.35 11.95 100.2 11.85 101.95 11.85 103.25 13.05 L104.9 14.8 M82.8 -11.2 L86.05 -15.1 86.7 -16.15 87.85 -16.25 87.4 -15.3 88.25 -14.55 88.4 -14.5 86.1 -10.4 83.45 -6.65 80.6 -3.3 78.4 -0.8 77.7 -1.05 78.05 -4.55 Q79.8 -5.75 80.8 -7.55 L82.8 -11.2 M70.85 -0.5 L71.05 0.0 70.9 0.8 Q69.35 1.7 68.8 3.45 L68.1 3.4 68.0 3.6 Q67.65 4.6 68.4 4.8 L67.2 7.15 66.45 6.35 65.85 3.65 65.8 3.5 65.4 4.55 64.75 5.7 Q64.65 2.05 63.55 -1.25 63.05 -2.65 62.05 -3.75 61.65 -4.15 61.6 -4.7 L61.85 -5.6 62.7 -6.75 64.9 -6.3 64.15 -5.7 Q66.3 -4.4 67.85 -2.55 L69.05 -1.35 Q69.8 -0.55 70.85 -0.5 M57.4 -13.1 L56.75 -12.8 Q58.05 -9.95 57.7 -6.75 57.55 -5.6 56.65 -4.8 L55.85 -5.2 55.7 -6.6 55.25 -13.3 55.5 -13.95 Q55.5 -13.6 56.05 -13.35 L57.4 -13.1 M54.8 -15.05 Q53.8 -14.75 53.35 -13.85 L53.05 -13.35 Q52.3 -14.5 52.25 -15.9 52.25 -16.7 51.85 -17.35 L50.85 -18.65 Q51.4 -19.6 52.35 -19.6 L52.8 -19.75 Q53.75 -21.05 54.1 -22.65 L54.65 -23.8 55.15 -24.45 55.75 -24.6 56.35 -24.4 Q57.25 -23.45 57.3 -21.9 L57.25 -21.2 57.4 -18.55 57.0 -19.3 Q56.55 -19.7 55.95 -19.7 L55.5 -21.85 54.7 -20.0 55.85 -19.7 55.45 -19.0 Q54.35 -17.2 54.8 -15.05 M50.35 -5.15 L48.7 -5.0 48.6 -5.05 48.6 -5.0 48.55 -5.0 48.7 -5.5 50.05 -6.85 47.35 -7.8 47.1 -8.95 Q47.55 -9.5 48.25 -9.3 L50.0 -9.15 50.75 -8.55 Q51.05 -8.05 51.0 -7.35 L50.8 -6.4 50.35 -5.15 M47.15 -4.9 Q45.7 -4.25 44.25 -3.65 L43.55 -5.6 47.65 -5.7 47.15 -4.9 M38.85 -9.5 L42.05 -4.95 Q42.75 -4.05 42.65 -2.9 L41.7 -2.45 42.2 -1.65 43.15 0.55 43.2 0.9 43.25 1.15 Q41.8 1.2 40.95 0.25 39.15 -1.75 37.9 -4.05 35.6 -8.15 33.95 -12.7 L33.55 -13.9 31.95 -17.35 30.2 -20.85 30.55 -21.95 32.5 -17.0 33.25 -17.6 33.6 -17.15 Q34.6 -15.85 34.7 -14.2 L34.15 -14.95 34.75 -14.0 35.35 -13.65 35.65 -13.4 36.4 -12.65 35.55 -11.95 36.3 -11.1 37.05 -11.45 37.05 -11.9 38.85 -9.5 M70.15 -5.05 L72.4 -4.35 71.55 -4.4 Q70.5 -4.45 70.15 -5.05 M70.6 -2.1 L70.6 -2.85 72.15 -2.85 71.9 -2.3 70.6 -2.1 M108.85 13.35 L110.0 13.45 109.95 14.75 108.1 14.8 Q108.4 14.8 108.65 14.4 L108.85 13.35 M65.75 2.9 L65.9 1.8 65.8 1.9 65.6 1.85 65.5 1.8 65.6 2.5 65.75 2.9 M26.15 4.55 L21.5 4.2 21.1 4.1 20.55 2.95 20.6 2.5 Q21.0 2.05 21.8 2.3 L23.35 2.75 Q24.85 2.7 26.15 3.7 L26.15 4.55" fill="#ffffff" fill-opacity="0.49803922" fill-rule="evenodd" stroke="none"/>
    <path d="M30.2 -20.85 Q28.75 -20.15 27.6 -21.3 26.5 -22.4 27.05 -23.85 27.6 -25.5 29.2 -25.85 30.3 -25.85 31.1 -24.95 32.15 -23.6 32.45 -22.15 L35.85 -15.7 37.35 -15.55 Q38.05 -14.6 37.9 -13.4 L37.85 -12.8 36.8 -13.7 35.5 -13.65 35.35 -13.65 34.75 -14.0 34.7 -14.2 Q34.6 -15.85 33.6 -17.15 L33.25 -17.6 32.5 -17.0 30.55 -21.95 30.2 -20.85 M45.7 3.45 L45.7 4.7 Q47.1 4.25 48.2 3.6 L49.25 2.85 Q50.45 2.0 51.85 1.9 L52.8 1.8 54.95 1.4 54.95 2.0 54.0 2.5 49.8 4.6 Q47.4 5.7 45.4 7.7 L45.2 7.9 41.0 7.6 40.6 7.15 41.45 6.45 41.8 6.15 Q41.65 6.6 42.2 6.0 42.95 5.25 43.85 4.55 44.65 3.95 44.35 2.85 L44.1 2.5 45.65 2.6 45.7 3.45 M107.15 15.1 L104.9 14.8 103.25 13.05 Q101.95 11.85 100.2 11.85 98.35 11.95 97.1 11.25 L97.15 10.7 98.45 10.2 100.6 10.25 106.35 11.2 107.95 11.65 Q108.3 11.65 108.6 12.15 L108.85 13.35 108.65 14.4 Q108.4 14.8 108.1 14.8 L108.05 14.8 107.15 15.1 M86.7 -16.15 L85.1 -15.95 84.95 -16.65 Q85.0 -17.4 85.5 -17.9 L86.5 -18.55 88.1 -18.95 Q89.5 -19.05 90.25 -18.1 90.85 -17.2 90.35 -16.35 L89.35 -15.25 88.4 -14.5 88.25 -14.55 87.4 -15.3 87.85 -16.25 86.7 -16.15 M73.35 -3.2 L73.15 -0.6 70.85 -0.5 Q69.8 -0.55 69.05 -1.35 L67.85 -2.55 Q66.3 -4.4 64.15 -5.7 L64.9 -6.3 Q66.25 -5.75 67.8 -5.4 L68.2 -5.5 68.35 -6.1 Q69.45 -6.4 69.9 -5.5 L70.15 -5.05 Q70.5 -4.45 71.55 -4.4 L72.4 -4.35 Q72.8 -4.35 73.1 -4.0 L73.35 -3.2 M68.8 3.45 L69.45 3.85 69.65 4.05 Q69.45 4.65 68.75 4.85 L68.4 4.8 Q67.65 4.6 68.0 3.6 L68.1 3.4 68.8 3.45 M57.95 -15.0 L57.4 -13.1 56.05 -13.35 Q55.5 -13.6 55.5 -13.95 L54.8 -15.05 Q54.35 -17.2 55.45 -19.0 L55.85 -19.7 55.95 -19.7 Q56.55 -19.7 57.0 -19.3 L57.4 -18.55 57.4 -18.45 57.95 -17.15 Q58.25 -16.3 58.05 -15.45 L57.95 -15.0 M36.4 -12.65 L36.85 -12.5 37.05 -11.9 37.05 -11.45 36.3 -11.1 35.55 -11.95 36.4 -12.65 M71.9 -2.3 L72.15 -2.85 70.6 -2.85 70.6 -2.1 71.7 -2.15 71.9 -2.3 M25.65 12.55 L28.05 12.1 28.05 13.35 28.15 13.6 Q28.7 14.25 29.7 14.5 L29.35 15.2 29.3 15.4 25.8 15.2 17.05 15.9 16.75 15.15 Q19.0 13.95 21.75 13.5 L25.65 12.55" fill="#ffffff" fill-opacity="0.8980392" fill-rule="evenodd" stroke="none"/>
  </g>
</svg>
