<?xml version="1.0" encoding="UTF-8" standalone="no"?>
<svg xmlns:xlink="http://www.w3.org/1999/xlink" height="38.55px" width="87.95px" xmlns="http://www.w3.org/2000/svg">
  <g transform="matrix(1.0, 0.0, 0.0, 1.0, 29.65, 34.4)">
    <path d="M-2.6 -16.2 L1.5 -18.6 3.85 -20.1 4.9 -21.15 5.25 -22.15 5.2 -23.0 4.6 -25.55 Q3.8 -28.5 4.6 -31.25 5.0 -32.75 6.15 -33.55 8.2 -34.8 10.6 -34.2 10.5 -30.75 11.45 -27.55 11.95 -25.95 13.25 -25.1 16.3 -23.3 19.95 -23.75 21.35 -23.75 22.3 -25.05 22.7 -25.55 23.45 -25.55 L25.65 -25.85 Q27.75 -25.8 29.1 -24.35 30.1 -23.35 30.15 -22.05 L30.35 -19.35 Q30.45 -18.5 31.3 -18.45 L32.95 -18.15 Q34.7 -18.25 36.25 -19.1 L37.15 -19.85 37.75 -20.8 Q38.25 -21.6 39.05 -21.95 L43.8 -22.55 45.8 -22.4 46.0 -20.85 Q43.9 -20.2 41.95 -18.95 38.8 -16.85 37.05 -13.55 L35.7 -11.85 35.8 -11.15 35.95 -10.95 36.85 -11.0 Q37.0 -11.65 37.65 -11.65 L37.85 -11.6 37.95 -11.45 38.3 -10.75 Q39.1 -9.35 40.55 -9.9 L40.75 -11.75 40.5 -12.9 39.5 -13.95 42.1 -16.35 Q42.15 -15.85 42.35 -15.4 L42.55 -15.3 43.3 -15.15 43.65 -16.5 Q43.9 -17.65 43.75 -18.7 L45.35 -18.85 44.3 -16.05 Q44.45 -15.15 45.25 -14.4 49.05 -10.7 53.0 -7.15 L55.6 -4.3 57.35 -2.0 Q58.2 -0.8 58.3 0.75 L58.3 1.1 Q57.9 1.65 57.15 1.65 L51.6 1.45 48.65 0.65 44.9 -0.5 42.5 -0.95 31.1 -12.35 27.15 -15.85 23.45 -18.25 22.05 -19.05 23.6 -15.15 Q22.4 -16.3 20.7 -16.8 L20.6 -18.0 20.2 -18.8 19.75 -18.85 Q19.5 -18.65 19.35 -18.1 19.2 -17.55 19.2 -16.85 L17.85 -16.85 16.25 -18.15 15.15 -18.8 Q14.15 -18.0 14.0 -16.3 13.8 -14.3 14.35 -12.45 13.05 -12.4 11.9 -11.55 L10.1 -10.15 8.6 -9.2 8.9 -10.7 10.4 -10.9 Q11.2 -11.15 11.4 -11.55 11.6 -12.0 11.05 -12.35 L9.3 -12.8 10.75 -15.3 Q11.85 -17.3 14.1 -17.95 L15.95 -20.95 16.0 -21.1 15.5 -21.7 15.35 -21.85 Q11.65 -22.65 8.5 -20.25 6.35 -18.65 5.2 -16.25 L3.65 -12.85 1.75 -15.7 Q0.8 -15.0 -0.2 -14.7 -1.75 -14.15 -3.05 -13.2 L-4.25 -12.2 -3.6 -11.6 -1.45 -10.0 -2.55 -9.55 -5.9 -8.55 -11.2 -8.9 Q-13.05 -9.05 -14.6 -9.8 -15.95 -10.6 -16.25 -12.05 -16.5 -13.35 -16.05 -14.55 L-14.55 -15.45 -12.1 -16.0 Q-9.5 -15.95 -6.75 -15.1 L-5.4 -15.1 -4.0 -15.6 -3.3 -14.85 -2.55 -14.9 -2.6 -16.2 M2.6 -6.85 L5.9 -9.25 7.05 -8.5 4.1 -7.25 2.6 -6.85 M5.1 -7.1 Q7.95 -7.6 10.75 -8.45 L11.05 -8.4 12.3 -6.85 11.35 -4.35 11.35 -3.65 Q11.75 -2.0 11.4 -0.45 L11.1 0.4 10.9 0.75 Q9.6 1.5 8.55 0.35 8.05 -0.2 7.95 -0.95 L7.65 -3.2 7.6 -3.85 4.75 -4.2 Q4.2 -3.05 3.1 -2.6 L1.8 -2.0 Q-1.75 -0.5 -5.6 -0.45 -8.2 -0.45 -10.5 0.35 -12.2 0.85 -13.1 2.45 -14.2 4.55 -16.55 4.05 L-17.35 0.5 -14.7 0.6 Q-13.3 0.6 -12.55 -0.45 L-12.65 -1.1 -20.15 -0.85 -19.9 -0.25 -22.1 0.3 Q-24.9 0.35 -27.8 -0.55 -29.85 -1.15 -29.6 -2.9 -29.45 -3.8 -28.45 -3.95 L-23.9 -4.45 -20.05 -4.7 -15.15 -5.0 -16.35 -3.1 -16.25 -2.5 -14.2 -2.55 -14.0 -2.7 Q-12.15 -3.75 -10.1 -4.0 L-10.0 -1.55 -1.4 -1.5 -0.8 -2.35 0.25 -2.65 Q2.0 -3.3 3.9 -4.3 L5.95 -5.2 Q6.7 -5.5 6.85 -6.25 L5.7 -6.35 5.05 -6.6 5.1 -7.1 M34.95 -3.8 L37.6 -1.3 Q36.45 -1.25 34.85 -1.75 29.75 -3.55 24.7 -5.95 23.15 -6.65 21.7 -7.5 L21.25 -7.75 Q21.45 -8.35 21.9 -8.55 L22.2 -8.9 21.9 -9.5 20.85 -9.6 21.05 -11.0 21.75 -10.75 24.4 -8.9 Q25.25 -8.25 26.4 -7.75 L23.7 -7.95 23.45 -7.75 Q23.4 -7.55 23.5 -7.5 24.0 -6.95 24.75 -6.65 27.2 -5.6 29.9 -5.1 L34.95 -3.8" fill="#ffffff" fill-opacity="0.4" fill-rule="evenodd" stroke="none"/>
    <path d="M46.0 -20.85 L51.15 -21.75 51.1 -20.35 49.85 -19.8 Q47.7 -18.9 45.35 -18.85 L43.75 -18.7 Q43.9 -17.65 43.65 -16.5 L43.3 -15.15 42.55 -15.3 42.35 -15.4 Q42.15 -15.85 42.1 -16.35 L39.5 -13.95 40.5 -12.9 40.75 -11.75 40.55 -9.9 Q39.1 -9.35 38.3 -10.75 L37.95 -11.45 37.85 -11.6 37.65 -11.65 Q37.0 -11.65 36.85 -11.0 L35.95 -10.95 35.8 -11.15 35.7 -11.85 37.05 -13.55 Q38.8 -16.85 41.95 -18.95 43.9 -20.2 46.0 -20.85 M20.7 -16.8 L19.2 -16.85 Q19.2 -17.55 19.35 -18.1 19.5 -18.65 19.75 -18.85 L20.2 -18.8 20.6 -18.0 20.7 -16.8 M8.9 -10.7 L9.3 -12.8 11.05 -12.35 Q11.6 -12.0 11.4 -11.55 11.2 -11.15 10.4 -10.9 L8.9 -10.7 M3.65 -12.85 Q2.95 -11.75 1.7 -11.45 L1.25 -11.25 -1.3 -9.9 -1.45 -10.0 -3.6 -11.6 -4.25 -12.2 -3.05 -13.2 Q-1.75 -14.15 -0.2 -14.7 0.8 -15.0 1.75 -15.7 L3.65 -12.85 M-4.0 -15.6 L-4.15 -16.75 -2.7 -16.65 -2.6 -16.2 -2.55 -14.9 -3.3 -14.85 -4.0 -15.6 M4.1 -7.25 L3.7 -7.1 5.1 -7.1 5.05 -6.6 5.7 -6.35 6.85 -6.25 Q6.7 -5.5 5.95 -5.2 L3.9 -4.3 Q2.0 -3.3 0.25 -2.65 L-0.8 -2.35 -0.65 -2.45 -4.15 -4.1 0.0 -5.65 Q1.1 -6.05 2.1 -6.6 L2.6 -6.85 4.1 -7.25 M-17.35 0.5 L-19.45 -0.05 -19.9 -0.25 -20.15 -0.85 -12.65 -1.1 -12.55 -0.45 Q-13.3 0.6 -14.7 0.6 L-17.35 0.5 M-15.15 -5.0 L-14.05 -6.15 -10.1 -6.3 -10.1 -4.0 Q-12.15 -3.75 -14.0 -2.7 L-14.2 -2.55 -16.25 -2.5 -16.35 -3.1 -15.15 -5.0 M26.4 -7.75 L31.8 -5.85 Q33.6 -5.3 34.95 -3.8 L29.9 -5.1 Q27.2 -5.6 24.75 -6.65 24.0 -6.95 23.5 -7.5 23.4 -7.55 23.45 -7.75 L23.7 -7.95 26.4 -7.75" fill="#ffffff" fill-opacity="0.7490196" fill-rule="evenodd" stroke="none"/>
  </g>
</svg>
