<?xml version="1.0" encoding="UTF-8" standalone="no"?>
<svg xmlns:xlink="http://www.w3.org/1999/xlink" height="98.8px" width="123.25px" xmlns="http://www.w3.org/2000/svg">
  <g transform="matrix(1.0, 0.0, 0.0, 1.0, 16.3, 50.45)">
    <path d="M70.4 43.7 L70.45 43.55 Q71.45 41.1 75.35 40.4 L80.25 39.35 Q82.2 37.55 84.25 34.15 L87.65 28.35 Q91.7 21.65 96.4 21.65 101.1 21.65 103.35 24.25 104.5 25.55 105.85 29.4 106.5 31.7 104.65 35.8 102.95 39.6 101.2 40.8 99.5 41.95 97.15 42.9 L94.9 43.8 90.55 47.7 90.25 47.75 87.2 47.4 79.95 45.95 72.45 44.15 71.2 43.85 71.1 43.7 71.05 43.8 70.4 43.7 M52.2 -29.5 Q56.05 -28.95 57.85 -26.8 59.85 -24.45 59.85 -19.75 59.85 -18.8 59.15 -16.5 L58.4 -13.95 Q58.4 -8.4 51.55 4.45 44.7 17.25 41.55 18.0 L40.65 8.7 40.6 9.25 Q40.2 11.65 39.3 13.7 L38.75 12.95 Q37.75 10.5 34.8 -0.6 31.65 -12.45 31.4 -16.45 L31.55 -13.0 Q28.45 -16.1 28.45 -23.6 28.45 -25.05 29.35 -26.85 31.55 -28.15 41.3 -28.95 L52.2 -29.5 M71.1 43.7 L72.45 44.15 71.1 43.7 70.45 43.55 71.1 43.7" fill="#f5e9eb" fill-rule="evenodd" stroke="none"/>
    <path d="M-6.65 44.75 L-7.15 44.75 Q-13.25 41.1 -15.0 36.3 -16.3 32.7 -16.3 23.45 -16.3 -9.3 -14.45 -12.65 -13.95 -13.5 -13.05 -14.0 -12.4 -15.3 -12.25 -21.6 -11.75 -43.95 -9.3 -47.7 -7.9 -49.9 -4.6 -50.35 L3.85 -50.45 15.75 -49.65 Q19.6 -48.8 21.55 -46.35 23.05 -44.45 24.85 -39.25 28.05 -30.1 29.35 -26.85 28.45 -25.05 28.45 -23.6 28.45 -16.1 31.55 -13.0 L31.4 -16.45 Q31.65 -12.45 34.8 -0.6 37.75 10.5 38.75 12.95 L39.3 13.7 Q40.2 11.65 40.6 9.25 L40.65 8.7 41.55 18.0 Q44.7 17.25 51.55 4.45 58.4 -8.4 58.4 -13.95 L59.15 -16.5 Q59.85 -18.8 59.85 -19.75 59.85 -24.45 57.85 -26.8 56.05 -28.95 52.2 -29.5 53.7 -31.6 55.25 -35.8 56.8 -40.05 58.0 -41.8 62.35 -48.0 76.65 -48.0 L84.6 -47.35 Q88.9 -46.5 89.8 -44.8 94.95 -35.2 96.35 -29.9 97.5 -25.65 97.5 -17.9 L97.2 -13.4 105.95 -13.4 106.6 -4.15 106.95 3.15 106.5 18.85 105.85 29.4 Q104.5 25.55 103.35 24.25 101.1 21.65 96.4 21.65 91.7 21.65 87.65 28.35 L84.25 34.15 Q82.2 37.55 80.25 39.35 L75.35 40.4 Q71.45 41.1 70.45 43.55 L70.4 43.7 70.25 43.7 Q69.25 41.45 66.2 40.4 L61.3 38.95 59.0 37.9 54.6 37.5 50.35 37.1 Q48.3 36.05 46.9 33.45 45.7 31.3 44.85 31.3 42.3 31.3 40.85 34.15 L40.15 35.3 34.9 35.3 34.9 37.5 34.9 35.3 40.15 35.3 Q38.7 37.15 36.55 37.35 L34.9 37.5 29.05 38.35 25.55 38.9 Q23.2 38.9 21.8 40.2 L20.45 41.45 20.15 41.15 Q20.05 41.1 18.3 42.1 L18.15 42.2 17.6 42.3 6.1 44.1 -5.65 44.75 -6.65 44.75 M18.3 42.1 L17.6 42.3 18.3 42.1" fill="#f7f8fa" fill-rule="evenodd" stroke="none"/>
    <path d="M71.1 43.7 L70.45 43.55" fill="none" stroke="#666666" stroke-linecap="round" stroke-linejoin="miter-clip" stroke-miterlimit="3.0" stroke-width="1.0"/>
    <path d="M-6.65 44.75 L-5.65 44.75 Q5.4 45.15 17.6 42.3 L18.3 42.1 M90.25 47.75 L87.2 47.4 Q79.8 46.5 72.45 44.15 L71.1 43.7 Z" fill="none" stroke="#666666" stroke-linecap="round" stroke-linejoin="miter-clip" stroke-miterlimit="3.0" stroke-width="1.2000000000000002"/>
    <path d="M45.2 30.05 L44.9 30.05 49.65 32.75 50.1 32.65 Q49.45 30.2 45.2 30.05 M36.75 31.2 Q38.2 30.45 39.65 29.15 41.05 27.8 43.35 26.5 44.15 26.5 45.25 27.1 46.35 27.7 54.4 34.45 L65.3 39.2 Q70.95 42.0 70.0 44.0 L69.85 43.1 Q66.9 43.6 54.75 38.85 48.45 35.6 43.5 34.1 42.15 34.75 40.9 35.3 L34.9 35.3 34.9 37.85 34.9 35.3 40.9 35.3 34.9 37.85 Q29.45 40.0 25.65 40.8 19.1 42.2 18.95 41.65 L18.95 41.05 18.65 42.0 18.5 42.0 18.3 42.05 18.0 41.2 Q17.75 40.05 24.6 36.8 31.35 33.55 32.8 33.6 34.2 33.6 35.6 32.05 L36.1 32.45 36.95 32.7 41.1 30.05 40.7 30.15 36.75 31.2 M68.1 44.35 Q65.3 44.05 58.65 41.6 52.0 39.1 52.0 38.85 L51.95 38.7 Q58.8 41.6 62.8 42.8 L68.1 44.35 M51.3 38.75 L51.15 39.05 51.15 38.75 51.3 38.75 M49.2 38.4 L48.8 38.4 44.85 38.6 42.15 38.75 38.95 38.95 Q39.75 38.65 42.1 36.7 L42.15 36.8 Q42.95 38.15 44.25 38.25 45.55 38.3 46.55 36.6 47.05 37.65 49.2 38.4 M38.25 39.0 L36.9 39.1 37.75 38.6 38.35 38.65 38.25 39.0 M46.15 36.3 Q46.15 37.15 44.35 37.15 L43.4 36.85 42.8 36.2 Q43.7 35.75 44.45 35.6 45.0 35.65 46.15 36.3 M42.15 38.75 L42.15 36.8 42.15 38.75" fill="#e79e98" fill-rule="evenodd" stroke="none"/>
    <path d="M45.2 30.05 Q49.45 30.2 50.1 32.65 L49.65 32.75 44.9 30.05 45.2 30.05 M70.0 44.0 L69.3 44.3 68.1 44.35 62.8 42.8 Q58.8 41.6 51.95 38.7 L51.55 38.55 51.35 38.65 51.35 38.75 51.3 38.75 51.15 38.75 50.9 38.45 50.85 38.45 49.7 38.4 49.7 38.75 49.2 38.4 Q47.05 37.65 46.55 36.6 45.55 38.3 44.25 38.25 42.95 38.15 42.15 36.8 L42.1 36.7 Q39.75 38.65 38.95 38.95 L38.25 39.0 38.35 38.65 37.75 38.6 36.9 39.1 34.9 39.85 27.0 42.2 Q20.3 44.05 19.5 43.95 L19.45 43.9 19.45 43.85 19.65 43.5 18.9 43.2 Q18.15 42.95 18.5 42.5 18.85 42.0 18.65 42.0 L18.95 41.05 18.95 41.65 Q19.1 42.2 25.65 40.8 29.45 40.0 34.9 37.85 L40.9 35.3 42.15 35.3 42.15 36.8 42.15 35.3 40.9 35.3 Q42.15 34.75 43.5 34.1 48.45 35.6 54.75 38.85 66.9 43.6 69.85 43.1 L70.0 44.0 M35.6 32.05 L35.65 31.8 36.75 31.2 40.7 30.15 41.1 30.05 36.95 32.7 36.1 32.45 35.6 32.05 M46.15 36.3 Q45.0 35.65 44.45 35.6 43.7 35.75 42.8 36.2 L43.4 36.85 44.35 37.15 Q46.15 37.15 46.15 36.3 M34.9 39.85 L34.9 37.85 34.9 39.85" fill="#be5250" fill-rule="evenodd" stroke="none"/>
    <path d="M36.75 31.2 Q38.2 30.45 39.65 29.15 41.05 27.8 43.35 26.5 44.15 26.5 45.25 27.1 46.35 27.7 54.4 34.45 L65.3 39.2 Q70.95 42.0 70.0 44.0 M18.3 42.05 L18.0 41.2 Q17.75 40.05 24.6 36.8 31.35 33.55 32.8 33.6 34.2 33.6 35.6 32.05" fill="none" stroke="#f5e9eb" stroke-linecap="round" stroke-linejoin="miter-clip" stroke-miterlimit="3.0" stroke-width="0.7000000000000001"/>
    <path d="M50.75 39.15 L50.55 38.75 Q50.55 38.2 50.95 37.95 L51.6 37.8 52.05 37.95 52.35 38.3 52.7 39.2 Q52.75 39.45 52.15 39.4 L52.3 39.4 52.3 39.45 52.0 39.35 51.1 39.2 50.75 39.15 51.1 39.2 52.0 39.35 52.3 39.45 51.55 39.7 Q50.8 39.7 50.6 39.15 L50.8 39.2 50.75 39.15" fill="#be5250" fill-rule="evenodd" stroke="none"/>
    <path d="M50.6 39.15 L50.55 39.15 50.4 39.15 50.55 39.15 44.8 38.45 42.15 38.5 Q38.6 38.65 34.9 39.55 32.35 40.15 29.75 41.15 22.0 44.05 20.0 44.05 19.45 44.05 18.9 43.55 18.25 43.0 18.25 42.25 18.25 41.9 18.5 41.5 M52.3 39.45 Q56.5 40.35 59.65 41.55 67.25 44.35 68.25 44.35 69.25 44.35 69.8 43.9 L70.5 43.25 70.2 42.9 M52.3 39.45 L52.0 39.35 51.1 39.2 50.75 39.15 50.6 39.15 50.8 39.2" fill="none" stroke="#666666" stroke-linecap="round" stroke-linejoin="miter-clip" stroke-miterlimit="3.0" stroke-width="1.0"/>
  </g>
</svg>
