<?xml version="1.0" encoding="UTF-8" standalone="no"?>
<svg xmlns:xlink="http://www.w3.org/1999/xlink" height="33.6px" width="75.1px" xmlns="http://www.w3.org/2000/svg">
  <g transform="matrix(1.0, 0.0, 0.0, 1.0, 0.1, -2.15)">
    <path d="M71.25 7.8 Q71.25 8.5 70.85 9.35 L70.85 15.05 70.2 20.55 70.0 24.7 Q70.0 28.65 70.4 29.4 L72.45 31.65 Q73.85 33.05 73.85 33.95 L73.75 35.0 Q73.4 35.75 72.2 35.75 69.35 35.75 67.55 34.8 66.15 34.05 66.15 33.35 L66.2 33.1 Q67.55 33.4 68.4 33.9 L69.6 34.15 70.9 34.5 71.4 35.1 Q71.85 35.65 72.25 35.65 72.85 35.65 72.85 35.2 72.85 34.85 72.25 34.3 71.65 33.75 71.6 33.4 L72.15 33.35 72.35 33.0 Q72.35 32.6 71.25 32.15 L70.0 31.7 70.0 31.05 69.85 30.05 69.85 18.4 69.75 18.25 69.75 7.15 70.7 7.15 70.65 7.25 70.7 7.55 71.15 7.8 71.25 7.8 M65.55 32.9 L65.05 32.9 64.2 33.05 63.7 33.0 Q63.35 33.55 62.4 33.55 L61.2 33.35 61.15 33.1 Q61.15 32.05 61.65 30.1 L62.15 27.05 62.15 22.85 62.35 20.75 62.1 17.1 62.05 16.15 Q62.0 15.6 62.25 15.3 L62.1 11.95 61.7 9.05 Q61.4 7.45 61.4 6.5 L61.45 6.25 63.25 8.45 63.35 8.55 63.35 17.1 63.3 17.25 63.35 20.15 63.6 27.75 63.6 30.75 63.65 30.95 65.85 30.85 67.6 31.05 Q67.6 31.5 68.05 31.6 L67.95 31.65 66.1 31.45 Q65.4 31.45 65.2 31.7 L65.1 32.2 Q65.1 32.7 65.55 32.9 M61.4 5.9 L60.45 5.7 60.35 5.4 Q60.35 4.5 63.0 5.65 L63.5 5.2 Q64.25 4.7 64.25 5.85 L64.25 6.0 63.55 5.85 61.4 5.9 M65.4 6.35 Q65.65 6.1 66.25 5.9 L66.3 5.9 67.1 6.1 67.1 6.65 Q67.15 6.95 67.8 7.15 L68.65 7.15 68.85 8.15 68.85 18.55 68.9 18.65 68.9 30.4 69.0 31.0 Q68.2 30.55 67.85 30.65 L67.9 29.3 67.85 21.5 Q67.65 20.95 67.6 19.65 L67.35 17.85 67.35 12.25 Q67.1 11.8 67.1 10.9 L67.05 10.3 67.1 10.0 Q67.1 9.55 66.55 9.25 L66.85 9.25 66.7 9.0 65.6 7.95 65.5 7.75 65.45 7.7 65.45 7.75 65.85 9.0 64.75 8.6 64.5 8.4 64.4 7.95 Q64.3 7.4 63.4 6.9 L63.35 6.9 63.15 6.75 63.55 6.7 64.35 7.0 65.15 7.15 Q65.75 7.15 65.75 6.7 L65.4 6.35 M67.75 32.6 L67.5 32.6 67.35 32.5 67.75 32.6 Q67.6 32.45 69.35 32.6 L70.25 33.25 68.25 32.8 67.75 32.6 M4.8 5.9 L4.85 6.0 Q4.85 6.45 4.0 6.45 L3.0 6.35 3.0 6.45 3.25 6.85 3.25 8.15 3.35 9.4 4.45 12.55 Q5.25 14.3 6.2 14.3 L7.25 14.25 Q8.1 14.05 8.65 12.15 L9.1 10.95 8.9 8.15 Q8.85 6.7 8.0 5.95 7.15 5.2 7.15 4.6 7.15 4.25 7.65 4.05 L12.05 4.05 Q13.75 4.3 13.75 5.25 L12.95 6.6 Q12.1 8.0 12.1 9.0 L12.1 12.6 12.1 13.05 12.25 13.05 Q13.15 13.05 13.25 13.45 L13.3 14.35 13.7 15.05 13.8 15.15 Q14.85 14.9 15.75 13.8 16.85 12.15 17.4 11.75 L19.25 10.05 20.85 8.15 Q21.7 6.55 22.1 4.45 22.45 2.3 22.85 2.15 23.25 2.05 23.25 3.45 23.25 4.85 22.4 6.95 21.5 9.05 20.5 10.0 L16.05 14.9 Q14.95 16.2 12.95 16.2 L12.15 16.15 12.35 19.35 12.35 24.6 Q12.75 25.85 13.0 28.35 13.05 28.9 14.4 30.15 15.75 31.4 15.75 32.1 L15.6 32.55 13.15 32.65 12.1 32.85 10.55 33.05 8.05 33.1 6.9 33.3 5.0 33.75 4.95 33.8 5.0 33.5 5.0 32.8 5.0 32.25 5.25 32.25 6.95 31.75 7.2 31.35 Q8.6 29.35 8.9 26.1 L9.25 24.4 9.6 22.6 9.6 19.2 9.4 15.75 9.3 14.65 Q8.5 15.35 6.95 15.35 L5.6 15.1 Q4.45 15.35 3.95 14.55 L3.45 14.75 3.0 14.35 3.0 19.5 3.3 22.1 Q2.6 20.65 2.45 22.25 L2.4 24.75 2.1 33.1 Q1.95 34.15 2.55 34.15 3.05 34.15 3.3 33.2 L3.65 32.05 3.75 32.15 3.7 32.3 3.8 32.3 4.05 33.2 Q4.1 33.8 4.4 33.9 L3.4 34.15 3.05 34.4 2.8 34.35 2.55 34.4 2.4 34.4 1.55 34.55 Q0.25 34.55 -0.05 34.2 L-0.1 33.8 Q-0.1 33.2 0.65 32.9 L1.6 32.6 1.6 31.2 1.9 25.45 1.65 22.05 1.65 17.65 Q1.95 18.4 2.4 18.4 L2.7 18.25 2.85 17.95 Q2.85 16.85 2.1 15.05 L2.1 12.1 Q2.5 12.65 3.05 12.65 3.5 12.65 3.5 12.0 L2.35 9.25 Q2.05 8.15 2.0 6.85 L2.05 6.9 2.0 6.55 2.0 6.5 2.0 6.3 4.8 5.9 M1.0 7.15 L0.9 6.9 0.85 6.35 0.95 5.9 1.0 7.15 M2.05 5.4 L2.75 5.3 3.55 5.35 2.85 5.5 2.05 5.4 M9.3 5.5 Q8.9 5.3 8.9 6.25 8.9 7.35 10.1 13.45 L10.1 20.65 10.1 25.55 9.75 28.2 9.35 30.5 9.35 30.6 Q8.6 30.9 8.6 31.3 L8.6 31.55 9.9 31.75 11.55 31.45 Q12.4 31.0 12.9 30.9 14.0 30.75 14.0 30.4 14.0 29.6 11.3 30.1 L10.5 30.25 Q10.9 29.0 11.0 25.95 L11.0 20.75 10.85 12.6 9.85 6.45 Q9.75 5.7 9.3 5.5 M3.35 22.55 L3.6 24.65 3.75 28.85 3.75 31.1 3.35 30.95 3.35 22.55 M12.4 15.2 L12.15 14.85 12.15 15.15 12.4 15.2 M1.75 33.55 L1.7 33.55 1.65 33.6 1.75 33.6 1.75 33.55" fill="#ffffff" fill-opacity="0.8" fill-rule="evenodd" stroke="none"/>
    <path d="M66.3 5.9 L66.15 5.6 Q66.15 4.5 67.7 4.85 L71.45 6.0 74.55 6.05 Q75.0 6.1 75.0 6.5 75.0 6.9 74.35 6.95 L74.0 7.0 74.0 7.1 Q74.0 7.8 71.25 7.8 L71.15 7.8 70.7 7.55 70.65 7.25 70.7 7.15 69.75 7.15 69.75 18.25 69.85 18.4 69.85 30.05 70.0 31.05 70.0 31.7 71.25 32.15 Q72.35 32.6 72.35 33.0 L72.15 33.35 71.6 33.4 Q71.65 33.75 72.25 34.3 72.85 34.85 72.85 35.2 72.85 35.65 72.25 35.65 71.85 35.65 71.4 35.1 L70.9 34.5 69.6 34.15 68.4 33.9 Q67.55 33.4 66.2 33.1 L65.9 33.0 65.55 32.9 Q65.1 32.7 65.1 32.2 L65.2 31.7 Q65.4 31.45 66.1 31.45 L67.95 31.65 68.05 31.6 Q67.6 31.5 67.6 31.05 67.6 30.7 67.85 30.65 68.2 30.55 69.0 31.0 L68.9 30.4 68.9 18.65 68.85 18.55 68.85 8.15 68.65 7.15 67.8 7.15 Q67.15 6.95 67.1 6.65 L67.1 6.1 66.3 5.9 M61.45 6.25 L61.35 5.95 61.4 5.9 63.55 5.85 64.25 6.0 65.4 6.35 65.75 6.7 Q65.75 7.15 65.15 7.15 L64.35 7.0 63.55 6.7 63.15 6.75 63.35 6.9 63.4 6.9 63.9 7.6 64.5 8.4 64.75 8.6 65.85 9.0 66.3 9.15 66.55 9.25 Q67.1 9.55 67.1 10.0 L67.05 10.3 66.65 10.6 Q65.4 10.6 63.35 8.55 L63.25 8.45 61.45 6.25 M67.75 32.6 L68.25 32.8 70.25 33.25 69.35 32.6 Q67.6 32.45 67.75 32.6 L67.35 32.5 67.5 32.6 67.75 32.6 M4.95 33.8 L4.55 33.95 4.4 33.9 Q4.1 33.8 4.05 33.2 L3.8 32.3 3.75 32.15 3.65 32.05 3.3 33.2 Q3.05 34.15 2.55 34.15 1.95 34.15 2.1 33.1 L2.4 24.75 2.45 22.25 Q2.6 20.65 3.3 22.1 L3.35 22.2 3.35 22.55 3.35 30.95 3.75 31.1 Q4.65 31.4 4.9 31.85 L5.0 32.25 5.0 32.8 5.0 33.5 4.95 33.8 M1.65 17.65 Q1.15 16.35 1.15 12.85 1.1 11.7 1.2 10.85 L1.35 10.2 1.15 9.2 1.0 7.15 0.95 5.9 0.9 5.7 Q0.9 5.3 1.75 5.3 L2.05 5.4 2.85 5.5 3.55 5.35 5.25 4.85 7.0 4.9 Q7.0 5.25 4.9 5.85 L4.8 5.9 2.0 6.3 2.0 6.5 2.0 6.55 2.0 6.85 Q2.05 8.15 2.35 9.25 L3.5 12.0 Q3.5 12.65 3.05 12.65 2.5 12.65 2.1 12.1 L2.1 15.05 Q2.85 16.85 2.85 17.95 L2.7 18.25 2.4 18.4 Q1.95 18.4 1.65 17.65 M9.3 5.5 Q9.75 5.7 9.85 6.45 L10.85 12.6 11.0 20.75 11.0 25.95 Q10.9 29.0 10.5 30.25 L11.3 30.1 Q14.0 29.6 14.0 30.4 14.0 30.75 12.9 30.9 12.4 31.0 11.55 31.45 L9.9 31.75 8.6 31.55 8.6 31.3 Q8.6 30.9 9.35 30.6 L9.35 30.5 9.75 28.2 10.1 25.55 10.1 20.65 10.1 13.45 Q8.9 7.35 8.9 6.25 8.9 5.3 9.3 5.5" fill="#ffffff" fill-rule="evenodd" stroke="none"/>
  </g>
</svg>
