<?xml version="1.0" encoding="UTF-8" standalone="no"?>
<svg xmlns:xlink="http://www.w3.org/1999/xlink" height="90.1px" width="130.5px" xmlns="http://www.w3.org/2000/svg">
  <g transform="matrix(1.0, 0.0, 0.0, 1.0, 19.5, 34.85)">
    <path d="M110.4 -14.85 L108.75 -7.05 Q106.05 4.2 102.7 11.9 L102.45 12.45 101.45 13.2 101.3 13.15 101.2 14.15 Q101.2 16.05 102.75 22.4 L106.05 35.95 104.65 36.0 Q103.75 36.15 104.1 35.25 L103.7 36.15 Q90.9 39.0 87.5 36.05 86.15 34.9 84.45 35.1 81.7 35.45 74.55 38.45 L66.9 41.5 65.35 41.95 62.1 43.05 62.05 43.7 61.8 43.75 60.65 44.25 57.6 44.6 56.8 44.75 58.55 42.4 59.15 41.5 Q57.2 44.05 52.2 46.2 L46.2 48.4 46.45 49.5 44.75 51.2 43.7 51.9 43.55 51.8 Q43.65 49.55 43.1 46.25 42.55 42.9 41.75 41.7 L41.25 41.0 40.4 46.5 Q39.75 51.2 39.75 53.65 L39.75 53.9 Q39.1 53.4 38.2 51.8 37.25 49.85 36.85 48.35 L35.9 49.9 35.05 50.95 Q34.35 50.95 31.4 46.85 L29.3 43.75 29.0 44.2 28.3 43.0 27.5 42.2 26.9 40.95 26.2 39.7 25.35 39.7 Q23.55 36.75 21.25 36.35 L14.1 35.85 -3.15 35.15 -7.9 34.25 -11.8 33.55 -10.0 28.1 -10.0 24.4 -10.75 24.95 -11.25 25.45 -10.1 23.1 -9.1 20.65 -9.3 19.45 -11.9 22.2 -11.9 21.85 Q-11.4 21.05 -10.8 19.25 L-10.3 17.45 -11.55 16.0 Q-12.85 14.75 -12.85 12.8 -14.05 5.85 -14.15 3.5 L-14.65 3.7 Q-15.35 4.05 -16.35 5.5 -17.55 0.8 -17.8 -3.65 L-17.95 -12.45 -18.15 -12.25 -18.5 -11.35 Q-18.7 -10.8 -18.9 -10.8 L-18.9 -11.8 8.2 -34.85 89.95 -34.85 110.4 -14.85 M58.35 45.7 L58.25 45.8 58.2 45.7 58.35 45.7 M47.2 52.3 L47.15 52.3 47.15 52.25 47.2 52.3" fill="#d6eefb" fill-rule="evenodd" stroke="none"/>
    <path d="M39.75 53.9 L39.75 53.65 Q39.75 51.2 40.4 46.5 L41.25 41.0 41.75 41.7 Q42.55 42.9 43.1 46.25 43.65 49.55 43.55 51.8 L43.5 51.95 Q43.05 51.25 42.5 51.25 L40.4 54.0 40.5 54.1 40.45 54.2 39.9 54.0 39.9 53.95 39.75 53.9 M46.45 49.5 L46.2 48.4 52.2 46.2 Q57.2 44.05 59.15 41.5 L58.55 42.4 56.8 44.75 54.4 46.05 54.2 46.2 Q48.65 51.6 47.2 52.35 L47.2 52.3 47.15 52.25 46.45 49.5 M50.0 50.95 L49.55 51.45 49.5 51.35 50.0 50.95" fill="#a4c9de" fill-rule="evenodd" stroke="none"/>
    <path d="M103.7 36.15 L104.1 35.25 Q103.75 36.15 104.65 36.0" fill="none" stroke="#000000" stroke-linecap="round" stroke-linejoin="round" stroke-width="1.0"/>
    <path d="M102.45 12.45 L102.7 11.9 Q106.05 4.2 108.75 -7.05 L110.4 -14.85 M-18.9 -11.8 L-18.9 -10.8 Q-18.7 -10.8 -18.5 -11.35 L-18.15 -12.25 -17.95 -12.45 -17.8 -3.65 Q-17.55 0.8 -16.35 5.5 -15.35 4.05 -14.65 3.7 L-14.15 3.5 Q-14.05 5.85 -12.85 12.8 -12.85 14.75 -11.55 16.0 L-10.3 17.45 -10.8 19.25 Q-11.4 21.05 -11.9 21.85 L-11.9 22.2 -9.3 19.45 -9.1 20.65 -10.1 23.1 -11.25 25.45 -10.75 24.95 -10.0 24.4 -10.0 28.1 -11.8 33.55 M106.05 35.95 L102.75 22.4 Q101.2 16.05 101.2 14.15 L101.3 13.15 101.45 13.2 103.7 17.1 Q103.7 15.85 102.7 11.9" fill="none" stroke="#4a4f58" stroke-linecap="round" stroke-linejoin="round" stroke-width="1.2000000000000002"/>
    <path d="M55.15 44.7 L53.7 46.65 52.85 47.55 51.05 49.3 Q48.15 52.2 46.9 52.8 L46.9 51.2 Q46.85 50.0 46.15 48.65 L45.05 50.5 43.45 52.2 43.2 51.45 42.65 49.65 Q42.65 50.8 40.3 54.45 39.1 53.65 37.75 51.15 36.8 49.55 36.25 47.95 36.1 48.15 35.9 49.2 35.55 50.35 34.6 51.3 L32.05 47.95 Q29.9 45.0 28.4 42.2" fill="none" stroke="#4a4f58" stroke-linecap="round" stroke-linejoin="miter-clip" stroke-miterlimit="3.0" stroke-width="1.2000000000000002"/>
  </g>
</svg>
