<?xml version="1.0" encoding="UTF-8" standalone="no"?>
<svg xmlns:xlink="http://www.w3.org/1999/xlink" height="84.0px" width="139.85px" xmlns="http://www.w3.org/2000/svg">
  <g transform="matrix(1.0, 0.0, 0.0, 1.0, 71.9, 54.5)">
    <path d="M-55.25 -10.55 L-55.2 -10.55 -55.3 -10.5 -55.25 -10.55 M-38.25 -28.65 Q-37.75 -29.65 -37.5 -32.15 L44.65 -32.15 Q46.35 -26.55 48.95 -19.2 L49.7 -17.15 51.0 -17.15 Q50.9 -16.2 52.0 -14.4 53.05 -12.65 56.0 -10.1 L56.85 -10.0 62.0 2.45 64.25 7.6 65.35 10.15 65.45 10.05 Q66.4 11.95 66.7 14.85 L67.2 19.6 67.2 21.9 67.3 23.05 Q67.3 26.95 66.55 28.25 L66.0 28.9 -61.35 28.9 -61.45 28.85 -64.75 28.85 -65.1 28.8 -65.15 28.9 -68.7 28.9 -69.65 25.15 -70.5 19.4 -70.45 17.85 -70.8 17.75 -66.05 7.75 -60.7 -1.3 -62.2 -0.6 -62.45 -0.6 -62.5 -0.75 -61.55 -2.6 -60.95 -3.65 -60.9 -3.65 Q-60.25 -3.65 -59.75 -4.2 L-59.1 -5.1 Q-58.7 -5.5 -57.9 -5.9 L-56.65 -6.6 -54.35 -8.35 Q-53.15 -9.45 -53.15 -10.1 L-53.15 -10.55 -52.85 -10.55 -50.1 -15.3 -48.8 -15.85 -48.7 -16.1 -51.5 -15.4 -50.85 -16.3 -50.25 -17.15 -45.9 -17.15 -45.65 -17.55 -45.6 -17.6 -44.4 -18.7 -42.85 -19.25 -42.25 -20.45 Q-41.7 -20.7 -41.25 -22.0 L-40.95 -23.1 -38.25 -28.65" fill="#d6eefb" fill-rule="evenodd" stroke="none"/>
    <path d="M-50.1 -15.3 Q-50.65 -15.1 -51.05 -15.05 -51.5 -14.3 -51.5 -15.3 L-50.45 -17.15 -49.3 -18.3 Q-47.55 -20.2 -44.8 -22.35 -42.05 -24.55 -40.4 -26.4 -38.8 -28.3 -38.8 -28.65 L-37.45 -36.0 Q-36.7 -36.55 -36.65 -38.25 L-36.5 -42.0 Q-35.6 -43.0 -35.3 -46.15 L-35.1 -49.75 Q-34.4 -52.9 -34.25 -54.1 L-28.55 -54.25 -28.55 -54.3 -13.0 -54.5 19.65 -53.35 Q34.55 -52.05 38.35 -49.7 41.05 -48.0 41.9 -42.2 42.7 -36.95 43.6 -36.95 L46.25 -26.8 50.15 -17.15 51.0 -17.15 Q50.9 -15.3 52.35 -13.75 L56.0 -10.1 57.2 -9.95 Q57.4 -8.65 58.55 -8.3 61.35 -7.5 64.25 -4.65 L63.95 -3.9 59.45 -4.65 64.65 6.15 Q67.5 11.95 67.1 14.8 66.75 17.3 67.3 21.95 L67.9 26.75 Q67.9 27.95 67.1 28.9 L60.05 28.9 60.05 28.5 Q60.6 25.05 60.6 22.85 L58.9 15.15 58.4 17.05 58.0 18.0 57.4 18.8 Q51.55 2.1 48.2 -4.85 44.25 -13.1 40.5 -17.15 L37.25 -17.15 Q34.0 -21.0 30.9 -21.0 L22.35 -17.15 24.3 -17.15 22.1 -16.25 14.3 -13.4 7.35 -11.45 Q3.95 -10.55 2.3 -10.55 -3.0 -10.55 -15.15 -14.45 L-23.85 -17.15 -21.85 -17.15 -28.55 -19.2 -28.55 -19.8 -30.25 -20.2 -34.5 -22.0 Q-38.8 -19.05 -42.2 -17.15 L-48.7 -16.1 Q-48.3 -16.05 -50.1 -15.3 M8.45 -0.55 L5.05 -1.0 Q4.65 -1.0 2.7 -2.2 0.8 -3.4 0.8 -3.55 L1.45 -3.8 2.35 -3.7 5.2 -3.7 Q10.2 -3.45 12.9 -2.45 15.4 -1.55 15.4 -0.3 15.4 0.15 14.85 0.15 L14.25 -0.05 11.8 -0.25 8.95 -0.35 8.45 -0.55 M-60.0 -2.5 L-61.85 -1.7 -62.05 -1.75 -62.1 -1.95 -60.75 -3.35 -60.25 -3.8 -59.75 -4.2 -59.65 -4.3 -58.95 -4.9 -58.45 -5.1 -51.8 -6.75 -51.75 -6.55 Q-51.75 -6.3 -60.0 -2.5 M-11.8 -8.15 Q-11.1 -11.45 -9.8 -8.4 -8.95 -7.5 -7.65 -4.65 -6.25 -1.65 -6.25 -0.3 L-7.05 1.4 Q-7.9 3.35 -8.05 4.9 L-8.6 8.1 Q-9.1 10.2 -9.5 10.2 -10.25 10.2 -10.55 7.65 -10.95 4.2 -11.2 3.5 -12.25 0.8 -12.25 -3.25 -12.25 -5.95 -11.8 -8.15 M0.75 0.5 L4.65 3.45 Q8.6 4.4 11.9 9.25 13.65 11.8 15.1 15.0 L15.1 15.1 14.9 15.15 Q8.95 11.65 6.05 9.3 L3.1 6.25 0.7 3.1 Q-0.25 4.95 -1.9 7.1 -3.8 9.55 -4.6 9.55 -4.95 9.55 -5.1 8.0 L-5.2 6.45 Q-5.2 5.55 -3.8 3.2 L-2.1 0.5 Q-1.2 -1.1 0.75 0.5" fill="#a4c9de" fill-rule="evenodd" stroke="none"/>
    <path d="M4.15 -1.2 L6.45 -0.8 16.25 0.8 17.55 1.2 13.6 -1.8 12.4 -5.8 M62.0 -0.8 L58.95 -0.8 M62.6 -0.8 L58.8 -4.55 66.2 -3.5 55.25 -10.95 Q52.8 -12.6 50.2 -17.15 L49.4 -19.25 Q41.95 -40.05 41.4 -46.8 41.3 -47.8 40.35 -48.65 M61.4 -0.3 L65.35 8.45 Q66.3 10.65 66.35 11.75 L66.35 12.2 67.25 28.1 M-2.35 -2.9 L-0.65 -1.35 9.45 7.7 11.2 9.75 6.45 -0.8 M-34.05 -53.25 L-36.3 -39.7 Q-37.75 -31.15 -38.6 -29.45 -39.5 -27.8 -43.4 -23.45 L-55.2 -13.15 -48.85 -15.9 -52.8 -10.55 -62.05 -1.75 -63.65 -0.8 -60.65 -1.75 -60.15 -1.95 M-12.05 -4.4 L-10.85 6.8 -9.3 11.45 -6.15 -0.15 -4.7 5.55 -0.65 -1.35 M-60.65 -1.75 L-66.75 8.95 Q-68.4 11.6 -70.55 16.5 L-70.8 17.05 -71.3 20.05 -69.3 28.9" fill="none" stroke="#4a4f58" stroke-linecap="round" stroke-linejoin="miter-clip" stroke-miterlimit="3.0" stroke-width="1.2000000000000002"/>
  </g>
</svg>
