<?xml version="1.0" encoding="UTF-8" standalone="no"?>
<svg xmlns:xlink="http://www.w3.org/1999/xlink" height="110.15px" width="130.75px" xmlns="http://www.w3.org/2000/svg">
  <g transform="matrix(1.0, 0.0, 0.0, 1.0, 65.0, 46.0)">
    <path d="M-50.3 -16.6 Q-50.65 -18.9 -49.05 -20.85 -46.15 -24.4 -43.5 -32.15 L47.5 -30.7 Q55.1 -13.8 59.0 -1.8 62.9 10.15 61.75 10.15 60.6 10.15 60.2 15.25 59.8 20.35 61.95 23.25 64.1 26.1 64.3 27.2 L65.25 49.6 -63.9 48.0 Q-65.1 27.05 -62.05 17.6 -60.3 8.5 -57.6 -0.05 -59.0 -0.05 -56.95 -1.8 L-55.45 -6.15 -51.1 -16.1 -52.2 -15.6 -50.3 -16.6" fill="#f7f8fa" fill-rule="evenodd" stroke="none"/>
    <path d="M-51.7 -15.2 L-50.3 -17.4 Q-44.95 -24.0 -43.85 -32.3 -42.8 -40.6 -43.15 -45.4 L43.15 -45.0 43.2 -44.8 Q42.15 -41.7 42.85 -38.8 43.55 -35.95 48.7 -27.5 53.85 -19.05 54.3 -15.45 54.7 -11.85 57.05 -9.35 L57.25 -9.2 Q57.2 -7.55 58.15 -6.8 59.1 -6.05 58.05 -3.95 L58.8 -3.3 61.95 9.4 Q61.05 14.1 63.1 20.95 65.15 27.8 64.75 28.45 L60.05 28.9 60.6 23.45 Q60.6 22.45 58.9 15.15 L58.55 16.7 57.4 18.8 Q53.55 4.1 47.05 -7.7 39.7 -21.0 33.6 -21.0 28.3 -21.0 24.35 -19.35 22.0 -18.4 18.25 -15.75 14.5 -13.2 12.0 -12.2 7.9 -10.55 2.3 -10.55 -38.05 -22.0 -40.25 -22.0 -42.85 -22.0 -45.25 -19.6 -48.45 -16.45 -51.7 -15.2" fill="#f5e9eb" fill-rule="evenodd" stroke="none"/>
    <path d="M43.35 -45.0 Q43.5 -38.1 44.4 -36.1 L52.5 -19.55 Q60.6 -3.1 64.4 29.55 66.4 46.75 62.95 63.55 M-43.95 -45.4 L-43.9 -42.85 Q-43.8 -31.4 -45.0 -28.75 L-53.1 -12.2 Q-61.2 4.3 -64.0 29.55 -65.55 48.4 -61.4 62.55" fill="none" stroke="#666666" stroke-linecap="round" stroke-linejoin="miter-clip" stroke-miterlimit="3.0" stroke-width="1.2000000000000002"/>
  </g>
</svg>
