<?xml version="1.0" encoding="UTF-8" standalone="no"?>
<svg xmlns:xlink="http://www.w3.org/1999/xlink" height="177.15px" width="83.2px" xmlns="http://www.w3.org/2000/svg">
  <g transform="matrix(1.0, 0.0, 0.0, 1.0, 0.0, 0.0)">
    <path d="M23.05 39.8 L22.75 40.05 22.55 39.8 23.05 39.8 M25.6 60.35 L25.6 60.5 25.4 60.35 25.6 60.35" fill="#1e0404" fill-rule="evenodd" stroke="none"/>
    <path d="M50.35 17.4 L54.9 30.65 Q57.8 39.05 60.35 44.0 66.3 55.7 69.45 70.55 L73.75 96.9 Q74.35 100.8 75.05 109.9 75.8 118.95 76.5 123.55 77.95 132.9 80.6 138.75 82.5 143.0 82.5 149.75 82.5 153.45 83.2 157.55 83.1 160.85 78.85 166.3 77.65 167.85 70.95 169.6 62.7 171.7 61.75 172.15 59.3 173.55 55.1 174.75 46.8 177.15 35.75 177.15 19.1 177.15 10.8 173.15 5.5 170.6 5.5 168.4 7.25 156.5 7.25 154.95 7.25 142.3 3.65 107.95 0.0 73.55 0.0 58.9 0.0 43.85 4.05 32.65 8.95 19.0 21.0 6.65 32.1 -4.8 41.55 3.4 47.25 8.35 50.35 17.4 M23.05 39.8 Q27.05 39.8 33.35 35.95 L40.2 31.65 40.0 31.3 Q37.6 31.3 33.1 33.75 28.55 36.15 23.05 36.15 L12.25 34.5 Q9.8 34.5 7.3 35.3 9.0 36.3 13.1 37.75 L17.85 39.15 Q17.85 40.3 19.5 42.0 21.95 44.5 26.25 44.5 36.2 44.5 42.85 40.2 45.95 38.2 48.0 35.3 L48.25 36.0 49.0 36.15 48.8 34.65 Q47.3 34.65 45.45 35.65 L41.5 37.85 Q35.15 41.05 24.75 41.05 23.65 41.05 22.8 40.1 L22.75 40.05 23.05 39.8 M43.2 16.85 L43.0 16.75 Q39.95 16.45 29.65 20.5 22.6 23.3 16.3 26.3 16.7 26.3 17.55 26.75 L19.5 27.15 Q21.35 27.15 32.05 23.4 43.4 19.5 43.4 18.0 43.4 16.9 43.2 16.85 M25.6 60.35 L36.75 59.7 Q38.75 59.4 40.0 58.1 L15.45 59.3 Q15.45 59.65 17.35 60.0 L25.2 60.35 25.3 60.65 25.85 61.95 27.8 64.0 39.0 64.0 Q43.8 63.2 50.3 60.55 56.4 58.0 58.55 57.8 L57.75 55.75 Q56.15 55.55 54.25 56.25 L49.85 58.05 Q44.7 59.8 36.85 60.45 L36.8 60.45 27.05 60.8 25.6 60.5 25.6 60.35 M10.75 30.65 Q11.4 31.45 14.55 32.45 18.5 33.8 22.65 33.8 30.0 33.8 36.45 29.35 41.45 25.9 42.35 23.25 39.7 22.85 37.65 23.85 36.65 24.3 34.15 26.25 29.25 30.15 22.55 30.15 L13.1 28.5 Q11.75 28.5 10.75 30.65 M46.65 46.5 Q42.6 48.25 40.85 48.25 39.3 48.25 36.25 47.1 33.2 45.9 28.65 45.9 21.35 45.9 21.25 47.3 L21.15 48.65 20.55 49.35 Q21.35 48.9 22.3 48.9 30.5 48.9 34.45 50.4 L35.4 50.75 34.1 51.15 Q30.6 52.3 27.05 52.3 23.25 52.3 20.05 50.9 L19.15 50.4 20.25 49.5 18.75 50.05 19.0 50.3 15.85 48.55 Q13.85 47.5 12.25 48.1 10.25 48.9 7.3 52.55 L7.55 53.05 Q10.95 52.45 16.05 54.05 22.1 55.95 27.05 55.95 29.35 55.95 37.0 54.25 L44.8 52.5 44.6 51.9 43.9 51.65 Q46.75 51.05 48.9 49.3 L52.95 45.45 52.75 44.7 Q50.75 44.7 46.65 46.5 M64.95 96.55 L64.1 96.05 Q61.1 94.1 53.75 97.3 45.55 101.55 42.55 102.75 L48.55 103.1 Q51.6 103.1 57.6 100.25 L64.95 96.55 M14.3 97.75 L14.1 97.1 Q13.85 96.7 13.85 97.85 13.85 100.1 15.95 101.9 18.55 104.15 23.5 104.6 L22.65 104.35 Q22.1 104.25 22.1 103.1 22.1 101.4 20.55 100.05 18.5 98.35 14.3 97.55 L14.3 97.75 M18.45 80.7 L13.7 76.95 Q11.6 75.35 9.9 75.9 L9.85 75.8 9.75 77.15 Q9.75 79.3 13.9 82.5 L16.65 84.25 13.7 83.25 12.25 82.95 Q10.75 84.65 10.75 85.85 13.75 88.3 20.25 90.1 28.05 92.25 37.4 92.25 45.55 92.25 51.85 88.85 55.05 87.15 57.0 85.3 L56.25 84.95 55.75 84.8 Q53.15 86.15 50.45 86.95 45.45 88.5 37.4 88.5 L32.2 88.25 32.15 88.25 Q28.05 87.8 23.95 86.75 L32.25 87.45 37.6 87.2 43.4 84.0 Q43.3 83.75 42.35 83.6 L41.4 83.5 Q26.75 86.15 18.45 80.7 M20.95 70.1 Q28.3 72.05 33.45 72.05 38.15 72.05 43.75 69.05 47.55 67.05 49.75 64.95 L49.55 64.2 Q47.55 63.85 42.75 66.0 37.45 68.4 33.75 68.4 28.8 68.4 20.2 66.2 L12.25 64.0 11.05 64.65 Q9.95 65.35 9.15 66.05 L17.7 69.15 20.95 70.1 M24.3 73.1 Q21.85 71.0 20.85 70.55 L20.3 70.4 Q20.5 70.85 20.05 71.3 19.5 71.8 19.5 72.8 19.5 74.15 23.1 76.95 28.0 80.8 35.05 80.8 48.0 80.8 54.85 74.95 58.45 71.9 60.55 67.65 L60.0 66.15 Q57.35 67.65 55.95 69.85 54.25 72.4 53.55 72.95 49.7 76.1 30.25 77.3 28.2 76.4 24.3 73.1" fill="#835947" fill-rule="evenodd" stroke="none"/>
    <path d="M43.2 16.85 Q43.4 16.9 43.4 18.0 43.4 19.5 32.05 23.4 21.35 27.15 19.5 27.15 L17.55 26.75 Q16.7 26.3 16.3 26.3 22.6 23.3 29.65 20.5 39.95 16.45 43.0 16.75 L43.2 16.85 M22.75 40.05 L22.8 40.1 Q23.65 41.05 24.75 41.05 35.15 41.05 41.5 37.85 L45.45 35.65 Q47.3 34.65 48.8 34.65 L49.0 36.15 48.25 36.0 48.0 35.3 Q45.95 38.2 42.85 40.2 36.2 44.5 26.25 44.5 21.95 44.5 19.5 42.0 17.85 40.3 17.85 39.15 L13.1 37.75 Q9.0 36.3 7.3 35.3 9.8 34.5 12.25 34.5 L23.05 36.15 Q28.55 36.15 33.1 33.75 37.6 31.3 40.0 31.3 L40.2 31.65 33.35 35.95 Q27.05 39.8 23.05 39.8 L22.55 39.8 22.75 40.05 M46.65 46.5 Q50.75 44.7 52.75 44.7 L52.95 45.45 48.9 49.3 Q46.75 51.05 43.9 51.65 L44.6 51.9 44.8 52.5 37.0 54.25 Q29.35 55.95 27.05 55.95 22.1 55.95 16.05 54.05 10.95 52.45 7.55 53.05 L7.3 52.55 Q10.25 48.9 12.25 48.1 13.85 47.5 15.85 48.55 L19.0 50.3 18.75 50.05 20.25 49.5 19.15 50.4 20.05 50.9 Q23.25 52.3 27.05 52.3 30.6 52.3 34.1 51.15 L35.4 50.75 34.45 50.4 Q30.5 48.9 22.3 48.9 21.35 48.9 20.55 49.35 L21.15 48.65 21.25 47.3 Q21.35 45.9 28.65 45.9 33.2 45.9 36.25 47.1 39.3 48.25 40.85 48.25 42.6 48.25 46.65 46.5 M10.75 30.65 Q11.75 28.5 13.1 28.5 L22.55 30.15 Q29.25 30.15 34.15 26.25 36.65 24.3 37.65 23.85 39.7 22.85 42.35 23.25 41.45 25.9 36.45 29.35 30.0 33.8 22.65 33.8 18.5 33.8 14.55 32.45 11.4 31.45 10.75 30.65 M25.6 60.5 L27.05 60.8 36.8 60.45 36.85 60.45 Q44.7 59.8 49.85 58.05 L54.25 56.25 Q56.15 55.55 57.75 55.75 L58.55 57.8 Q56.4 58.0 50.3 60.55 43.8 63.2 39.0 64.0 L27.8 64.0 25.85 61.95 25.3 60.65 25.2 60.35 17.35 60.0 Q15.45 59.65 15.45 59.3 L40.0 58.1 Q38.75 59.4 36.75 59.7 L25.6 60.35 25.4 60.35 25.6 60.5 M24.3 73.1 Q28.2 76.4 30.25 77.3 49.7 76.1 53.55 72.95 54.25 72.4 55.95 69.85 57.35 67.65 60.0 66.15 L60.55 67.65 Q58.45 71.9 54.85 74.95 48.0 80.8 35.05 80.8 28.0 80.8 23.1 76.95 19.5 74.15 19.5 72.8 19.5 71.8 20.05 71.3 20.5 70.85 20.3 70.4 L20.85 70.55 Q21.85 71.0 24.3 73.1 M20.95 70.1 L17.7 69.15 9.15 66.05 Q9.95 65.35 11.05 64.65 L12.25 64.0 20.2 66.2 Q28.8 68.4 33.75 68.4 37.45 68.4 42.75 66.0 47.55 63.85 49.55 64.2 L49.75 64.95 Q47.55 67.05 43.75 69.05 38.15 72.05 33.45 72.05 28.3 72.05 20.95 70.1 M18.45 80.7 Q26.75 86.15 41.4 83.5 L42.35 83.6 Q43.3 83.75 43.4 84.0 L37.6 87.2 32.25 87.45 23.95 86.75 Q28.05 87.8 32.15 88.25 L32.2 88.25 37.4 88.5 Q45.45 88.5 50.45 86.95 53.15 86.15 55.75 84.8 L56.25 84.95 57.0 85.3 Q55.05 87.15 51.85 88.85 45.55 92.25 37.4 92.25 28.05 92.25 20.25 90.1 13.75 88.3 10.75 85.85 10.75 84.65 12.25 82.95 L13.7 83.25 16.65 84.25 13.9 82.5 Q9.75 79.3 9.75 77.15 L9.85 75.8 9.9 75.9 Q11.6 75.35 13.7 76.95 L18.45 80.7 M14.3 97.75 L14.3 97.55 Q18.5 98.35 20.55 100.05 22.1 101.4 22.1 103.1 22.1 104.25 22.65 104.35 L23.5 104.6 Q18.55 104.15 15.95 101.9 13.85 100.1 13.85 97.85 13.85 96.7 14.1 97.1 L14.3 97.75 M64.95 96.55 L57.6 100.25 Q51.6 103.1 48.55 103.1 L42.55 102.75 Q45.55 101.55 53.75 97.3 61.1 94.1 64.1 96.05 L64.95 96.55" fill="#70312c" fill-rule="evenodd" stroke="none"/>
  </g>
</svg>
