<?xml version="1.0" encoding="UTF-8" standalone="no"?>
<svg xmlns:xlink="http://www.w3.org/1999/xlink" height="52.25px" width="31.1px" xmlns="http://www.w3.org/2000/svg">
  <g transform="matrix(1.0, 0.0, 0.0, 1.0, 30.65, -103.85)">
    <path d="M-8.4 109.95 L-8.7 110.0 -8.4 109.9 -8.4 109.95" fill="#be785a" fill-rule="evenodd" stroke="none"/>
    <path d="M-30.45 107.3 L-30.5 107.25 -30.45 107.1 -30.45 107.3" fill="url(#gradient0)" fill-rule="evenodd" stroke="none"/>
    <path d="M-27.25 108.75 L-27.65 108.55 -27.4 108.65 -27.25 108.75" fill="#000000" fill-rule="evenodd" stroke="none"/>
    <path d="M-29.6 113.3 L-29.7 113.3 -29.75 113.3 -29.8 113.25 -29.9 113.2 -29.6 113.3 M-2.1 106.7 L-2.2 106.7 -2.1 106.65 -2.1 106.7 M-2.1 106.6 L-1.8 106.4 -2.05 106.65 -2.1 106.6" fill="#d8bca6" fill-rule="evenodd" stroke="none"/>
    <path d="M0.0 117.7 L0.2 120.75 Q0.65 132.1 0.35 142.75 0.0 145.85 0.0 148.9 0.0 152.35 -0.4 156.1 L-9.85 156.1 -10.05 156.05 -18.55 156.1 -26.95 156.05 Q-27.6 149.55 -27.55 142.95 -28.25 128.15 -29.6 113.3 L-29.9 113.2 -29.95 113.15 -29.95 113.1 -30.0 113.05 -30.0 113.0 -30.05 112.95 -30.1 112.9 -30.1 112.75 -30.15 112.7 -30.15 112.1 -30.2 112.05 -30.2 111.95 -30.25 111.9 -30.25 111.45 -30.25 111.35 -30.25 111.25 -30.25 111.15 -30.25 111.05 -30.25 110.95 -30.25 110.85 -30.25 110.75 -30.25 110.65 -30.25 110.35 -30.3 110.3 -30.3 109.75 -30.35 109.7 -30.35 109.6 -30.35 109.5 -30.35 109.45 -30.35 109.35 -30.35 109.25 -30.35 109.15 -30.35 109.05 -30.35 108.95 -30.35 108.8 -30.35 108.75 -30.35 108.65 -30.35 108.5 -30.35 108.25 -30.35 108.15 -30.35 108.05 -30.35 107.95 -30.4 107.9 -30.4 107.75 -30.45 107.7 -30.45 107.3 -30.45 107.1 -30.45 107.05 -30.5 107.0 -30.5 106.8 -30.55 106.75 -30.55 106.65 -30.6 106.6 -30.6 106.45 -30.65 106.4 -30.65 105.95 -30.6 105.9 -30.6 105.8 -30.55 105.75 -30.55 105.7 -30.5 105.65 -30.45 105.6 -30.4 105.55 -30.35 105.5 -30.3 105.45 -30.25 105.45 -30.15 105.45 -29.95 105.4 -29.9 105.4 -29.8 105.4 -29.25 105.4 -29.15 105.35 -29.1 105.35 -28.75 105.3 -28.7 105.3 -28.65 105.25 -28.55 105.25 -27.95 105.2 -27.9 105.2 -27.8 105.15 -27.75 105.15 -27.0 105.1 -26.95 105.1 -26.9 105.05 -26.8 105.05 -26.55 105.05 -26.05 105.05 -26.0 105.05 -25.95 105.0 -25.85 105.0 -25.75 104.95 -24.15 104.95 -24.0 104.9 -23.9 104.9 -23.85 104.9 -23.8 104.85 -23.7 104.85 -23.7 104.8 -23.6 104.8 -23.5 104.75 -23.45 104.75 -22.85 104.75 -22.05 104.75 -21.95 104.75 -21.85 104.7 -21.45 104.7 -21.3 104.65 -21.25 104.6 -21.2 104.6 -21.1 104.55 -20.55 104.55 -20.5 104.55 -20.45 104.5 -20.35 104.5 -20.0 104.45 -19.9 104.4 -19.8 104.35 -19.75 104.35 -19.65 104.35 -19.6 104.35 -19.55 104.3 -19.45 104.3 -19.25 104.25 -19.2 104.2 -19.1 104.2 -19.05 104.2 -18.95 104.15 -18.85 104.15 -18.75 104.1 -18.65 104.1 -17.95 104.05 -17.85 104.0 -17.8 104.0 -17.75 103.95 -17.65 103.95 -16.85 103.95 -16.8 103.9 -16.7 103.9 -16.5 103.9 -16.45 103.85 -16.35 103.85 -15.9 103.85 -13.65 103.85 -13.6 103.85 -13.5 103.9 -12.3 103.9 -12.25 103.9 -12.2 103.95 -12.1 103.95 -12.0 104.0 -11.9 104.05 -11.85 104.1 -11.8 104.1 -11.5 104.1 -11.45 104.1 -11.4 104.15 -11.3 104.15 -11.25 104.2 -11.05 104.2 -11.0 104.2 -10.9 104.25 -10.85 104.25 -10.8 104.3 -10.6 104.3 -10.5 104.3 -10.45 104.35 -9.0 104.35 -7.85 104.35 -7.8 104.35 -7.7 104.4 -7.65 104.4 -7.55 104.45 -7.3 104.5 -7.25 104.5 -7.2 104.55 -7.15 104.55 -6.55 104.55 -6.5 104.6 -6.45 104.6 -6.35 104.6 -6.3 104.65 -6.15 104.7 -6.05 104.7 -6.0 104.75 -5.45 104.75 -5.4 104.75 -5.3 104.8 -5.25 104.8 -5.15 104.85 -5.15 104.9 -4.35 104.9 -4.25 104.9 -4.1 104.95 -3.65 104.95 -3.6 104.95 -3.5 105.0 -3.45 105.0 -3.35 105.05 -3.3 105.1 -3.15 105.15 -3.1 105.15 -3.0 105.2 -2.95 105.2 -2.8 105.35 -2.7 105.35 -2.6 105.4 -2.55 105.4 -2.35 105.6 -2.25 105.65 -2.2 105.7 -2.15 105.75 -2.15 105.8 -2.1 105.85 -2.1 105.9 -2.05 105.95 -2.05 106.0 -2.0 106.05 -1.9 106.15 -1.9 106.2 -1.85 106.25 -1.85 106.3 -1.8 106.35 -1.8 106.4 -1.6 106.2 -0.6 111.6 Q-0.1 113.95 -0.05 116.35 L0.0 116.5 -1.7 116.55 -3.4 116.35 -4.7 115.55 -4.6 113.85 -5.25 115.85 -5.9 116.35 -7.4 114.35 -7.5 115.6 Q-5.9 117.1 -4.55 118.8 L-4.9 120.5 -4.15 118.55 -3.05 118.55 -3.1 120.2 -2.85 118.25 -1.4 117.75 0.0 117.7 M-8.7 110.0 L-8.75 110.05 -8.85 110.05 -9.2 110.2 -9.25 110.2 -9.35 110.25 -9.4 110.25 -9.45 110.25 -9.85 110.4 -10.25 110.55 -10.3 110.55 -10.4 110.6 -10.55 110.65 -10.65 110.7 -11.2 110.85 -16.2 111.3 -19.8 110.75 -22.3 110.25 -24.9 109.6 -26.2 109.5 Q-27.15 109.45 -27.15 108.85 L-27.2 108.5 -27.25 108.75 -27.3 108.85 Q-27.3 109.45 -26.8 109.5 L-25.85 109.8 -24.7 110.45 -21.85 111.1 -18.05 111.85 -13.9 112.6 -12.1 112.3 -9.8 111.75 -7.2 110.9 -5.9 110.15 -4.4 109.4 -3.3 108.75 -2.75 108.4 Q-2.3 108.0 -2.3 107.4 L-2.2 106.7 -2.4 106.75 -2.4 106.85 -2.45 106.9 -2.45 107.0 -2.5 107.05 -2.5 107.1 -2.55 107.15 -2.55 107.2 -2.6 107.25 -2.7 107.35 -2.7 107.4 -2.75 107.45 -2.95 107.65 -2.95 107.7 -3.0 107.75 -3.05 107.8 -3.1 107.8 -3.2 107.85 -3.3 107.9 -3.35 107.95 -3.4 108.0 -3.45 108.05 -3.5 108.05 -3.6 108.1 -3.6 108.15 -3.65 108.2 -3.7 108.25 -3.75 108.25 -3.8 108.3 -3.9 108.3 -3.95 108.35 -4.0 108.4 -4.1 108.45 -4.15 108.5 -4.25 108.5 -4.3 108.55 -4.4 108.55 -4.45 108.6 -4.5 108.65 -4.55 108.7 -4.6 108.75 -4.65 108.8 -4.7 108.85 -4.75 108.85 -4.75 108.9 -4.85 108.9 -4.9 108.95 -5.0 108.95 -5.05 108.95 -5.25 109.0 -5.3 109.0 -6.45 109.05 -6.5 109.1 -6.6 109.1 -6.65 109.1 -6.7 109.15 -8.4 109.95 -8.4 109.9 -8.7 110.0 M-2.1 106.65 L-2.2 106.7 -2.1 106.7 -2.05 106.75 -2.05 106.9 -2.0 106.95 -2.0 107.05 -1.95 107.1 -2.05 106.65 -1.8 106.4 -2.1 106.6 -2.1 106.65 M-27.25 108.75 L-27.4 108.65 -27.65 108.55 -27.25 108.75 M-25.15 123.8 L-25.9 124.5 -24.45 127.7 -24.9 125.05 -25.15 123.8 M-23.25 126.95 L-20.55 128.05 -18.9 128.8 Q-19.85 127.7 -21.5 127.2 L-22.75 126.4 -23.35 125.75 -23.0 123.5 Q-23.8 123.85 -23.8 124.85 L-23.25 126.95 M-20.95 131.9 L-20.7 129.6 -19.6 130.0 Q-20.3 129.35 -21.0 128.95 L-21.3 131.55 -20.95 131.9" fill="#f4ccc1" fill-rule="evenodd" stroke="none"/>
    <path d="M0.0 116.5 L0.0 117.6 0.0 117.7 -1.4 117.75 -2.85 118.25 -3.1 120.2 -3.05 118.55 -4.15 118.55 -4.9 120.5 -4.55 118.8 Q-5.9 117.1 -7.5 115.6 L-7.4 114.35 -5.9 116.35 -5.25 115.85 -4.6 113.85 -4.7 115.55 -3.4 116.35 -1.7 116.55 0.0 116.5 M-8.4 109.95 L-6.7 109.15 -6.65 109.1 -6.6 109.1 -6.5 109.1 -6.45 109.05 -5.3 109.0 -5.25 109.0 -5.05 108.95 -5.0 108.95 -4.9 108.95 -4.85 108.9 -4.75 108.9 -4.75 108.85 -4.7 108.85 -4.65 108.8 -4.6 108.75 -4.55 108.7 -4.5 108.65 -4.45 108.6 -4.4 108.55 -4.3 108.55 -4.25 108.5 -4.15 108.5 -4.1 108.45 -4.0 108.4 -3.95 108.35 -3.9 108.3 -3.8 108.3 -3.75 108.25 -3.7 108.25 -3.65 108.2 -3.6 108.15 -3.6 108.1 -3.5 108.05 -3.45 108.05 -3.4 108.0 -3.35 107.95 -3.3 107.9 -3.2 107.85 -3.1 107.8 -3.05 107.8 -3.0 107.75 -2.95 107.7 -2.95 107.65 -2.75 107.45 -2.7 107.4 -2.7 107.35 -2.6 107.25 -2.55 107.2 -2.55 107.15 -2.5 107.1 -2.5 107.05 -2.45 107.0 -2.45 106.9 -2.4 106.85 -2.4 106.75 -2.2 106.7 -2.3 107.4 Q-2.3 108.0 -2.75 108.4 L-3.3 108.75 -4.4 109.4 -5.9 110.15 -7.2 110.9 -9.8 111.75 -12.1 112.3 -13.9 112.6 -18.05 111.85 -21.85 111.1 -24.7 110.45 -25.85 109.8 -26.8 109.5 Q-27.3 109.45 -27.3 108.85 L-27.25 108.75 -27.2 108.5 -27.15 108.85 Q-27.15 109.45 -26.2 109.5 L-24.9 109.6 -22.3 110.25 -19.8 110.75 -16.2 111.3 -11.2 110.85 -10.65 110.7 -10.55 110.65 -10.4 110.6 -10.3 110.55 -10.25 110.55 -9.85 110.4 -9.45 110.25 -9.4 110.25 -9.35 110.25 -9.25 110.2 -9.2 110.2 -8.85 110.05 -8.75 110.05 -8.7 110.0 -8.4 109.95 M-20.95 131.9 L-21.3 131.55 -21.0 128.95 Q-20.3 129.35 -19.6 130.0 L-20.7 129.6 -20.95 131.9 M-23.25 126.95 L-23.8 124.85 Q-23.8 123.85 -23.0 123.5 L-23.35 125.75 -22.75 126.4 -21.5 127.2 Q-19.85 127.7 -18.9 128.8 L-20.55 128.05 -23.25 126.95 M-25.15 123.8 L-24.9 125.05 -24.45 127.7 -25.9 124.5 -25.15 123.8" fill="#deaea9" fill-rule="evenodd" stroke="none"/>
  </g>
  <defs>
    <radialGradient cx="0" cy="0" gradientTransform="matrix(0.0231, 0.0, 0.0, 0.0372, -14.5, 112.0)" gradientUnits="userSpaceOnUse" id="gradient0" r="819.2" spreadMethod="pad">
      <stop offset="0.0" stop-color="#d9b49c"/>
      <stop offset="1.0" stop-color="#d9bb9d"/>
    </radialGradient>
  </defs>
</svg>
