<?xml version="1.0" encoding="UTF-8" standalone="no"?>
<svg xmlns:xlink="http://www.w3.org/1999/xlink" height="28.75px" width="35.7px" xmlns="http://www.w3.org/2000/svg">
  <g transform="matrix(1.0, 0.0, 0.0, 1.0, 0.0, -6.75)">
    <path d="M3.4 31.45 L3.05 31.3 2.5 31.0 2.45 30.55 Q2.05 29.85 1.25 29.5 0.0 27.35 0.05 25.55 -0.2 23.0 1.55 20.85 L2.55 19.65 Q4.05 15.95 6.55 12.95 8.0 11.3 9.35 10.4 10.3 9.55 11.1 9.25 13.1 8.25 14.95 7.7 L18.7 6.75 21.4 6.8 Q23.15 7.0 24.35 7.8 26.2 8.4 27.9 9.65 29.35 10.2 30.15 11.5 L33.25 16.45 33.8 18.5 34.5 19.65 Q37.05 23.5 34.15 29.25 L34.05 29.35 34.0 29.45 33.9 29.45 33.05 30.05 32.3 30.2 32.2 30.25 30.8 31.5 Q30.3 31.6 30.05 32.0 L29.55 32.05 30.15 31.4 Q30.55 31.0 30.8 30.95 L31.6 30.6 32.1 30.2 32.8 29.7 Q33.1 29.35 33.4 29.3 L33.6 29.1 33.75 28.85 33.75 28.8 Q36.95 23.3 33.2 20.25 32.9 17.0 30.75 14.0 L30.0 13.0 29.95 12.95 28.55 11.55 26.05 9.55 Q24.6 8.55 22.75 8.2 L18.95 7.65 Q17.05 7.95 15.2 8.65 13.35 9.0 12.0 10.1 L9.4 11.95 6.6 14.4 Q4.4 17.1 3.0 20.2 L2.95 20.55 2.85 20.7 2.8 20.75 Q0.7 22.8 0.9 25.5 0.95 27.0 1.85 28.8 L1.85 28.85 2.65 30.0 2.65 30.05 3.9 30.9 3.95 31.0 4.05 31.1 7.05 32.85 6.2 32.6 6.15 32.6 5.65 32.4 5.6 32.35 5.55 32.3 5.3 32.25 5.15 32.15 3.95 31.55 3.75 31.45 3.45 31.25 3.4 31.45" fill="#000000" fill-rule="evenodd" stroke="none"/>
    <path d="M3.0 20.2 Q4.4 17.1 6.6 14.4 L9.4 11.95 12.0 10.1 Q13.35 9.0 15.2 8.65 17.05 7.95 18.95 7.65 L22.75 8.2 Q24.6 8.55 26.05 9.55 L28.55 11.55 29.95 12.95 30.0 13.0 32.05 18.5 Q32.9 21.1 31.4 25.5 30.8 28.0 27.2 30.0 L26.95 30.15 Q26.25 30.35 25.4 30.95 L25.1 31.05 23.55 31.5 Q23.0 31.55 22.35 32.0 L21.05 32.3 Q17.9 32.6 14.35 32.3 L12.15 31.75 11.15 31.4 10.8 31.2 Q7.45 30.05 5.0 28.15 3.55 27.05 2.85 26.15 2.0 24.15 2.6 22.95 L2.85 22.1 3.2 20.7 3.2 20.4 3.0 20.2 M26.25 15.4 Q26.55 13.7 25.5 12.4 24.7 10.3 23.1 9.9 20.25 8.05 15.9 9.65 13.4 10.65 11.6 12.2 3.9 17.4 4.5 23.1 4.45 24.8 5.15 25.8 6.55 27.6 11.85 28.8 16.9 29.65 20.4 26.0 25.55 21.45 26.25 15.4" fill="#d9ac9a" fill-rule="evenodd" stroke="none"/>
    <path d="M21.35 13.05 L21.35 12.9 21.3 12.85 21.3 12.7 Q21.35 12.55 21.25 12.7 L21.2 12.65 21.15 12.6 21.1 12.45 21.1 12.35 21.05 12.3 21.05 12.25 21.0 12.25 21.0 12.2 20.95 12.2 Q20.9 12.0 21.0 12.0 L20.95 11.95 20.95 11.9 20.9 11.8 20.9 11.75 20.8 11.7 20.8 11.65 20.75 11.65 20.75 11.55 20.7 11.5 20.7 11.45 20.55 11.35 20.5 11.3 20.5 11.25 20.45 11.2 20.45 11.15 20.15 10.95 20.1 11.0 20.1 10.9 20.05 10.9 20.0 10.85 19.95 10.8 19.85 10.8 19.8 10.75 19.8 10.7 19.75 10.65 19.7 10.55 19.65 10.5 19.6 10.55 19.55 10.5 Q19.6 10.35 19.5 10.5 L19.45 10.5 19.3 10.45 19.2 10.45 18.95 10.45 18.8 10.45 18.7 10.55 18.6 10.55 Q18.5 10.3 18.45 10.5 L18.4 10.5 Q18.45 10.3 18.35 10.5 L18.2 10.5 18.15 10.45 17.5 10.5 17.4 10.5 17.35 10.55 17.3 10.55 17.3 10.6 17.2 10.7 17.05 10.7 16.9 10.75 16.85 10.75 16.8 10.85 16.8 10.9 16.75 10.9 16.75 11.0 16.7 11.05 16.7 11.1 16.65 11.15 16.6 11.15 16.55 11.25 Q16.4 11.3 16.4 11.35 L16.35 11.45 16.3 11.55 16.3 11.6 16.25 11.65 16.2 11.65 16.0 11.65 Q15.95 11.6 15.9 11.7 L15.9 11.75 15.75 11.75 15.75 11.8 15.65 11.9 15.65 12.0 15.6 12.0 15.6 12.2 15.6 12.35 15.6 12.45 15.6 12.55 15.6 12.75 15.65 12.85 15.6 13.05 15.55 13.05 15.5 13.6 15.6 13.7 Q15.5 13.7 15.55 13.85 L15.65 13.9 15.75 13.95 15.75 14.1 15.8 14.1 15.65 14.25 15.65 14.35 15.6 14.35 15.6 14.55 15.65 14.55 15.65 15.0 15.7 15.05 15.7 15.1 15.75 15.15 15.75 15.4 Q15.85 15.25 15.8 15.4 L15.75 15.75 15.8 15.8 15.8 15.85 Q15.9 15.8 15.9 15.9 L15.9 16.05 15.95 16.1 15.9 16.35 15.95 16.4 15.95 16.45 16.0 16.5 16.0 16.6 16.05 16.55 16.05 16.8 16.1 16.75 16.15 16.9 16.2 16.95 16.2 17.0 16.25 17.1 16.25 17.25 Q16.35 17.1 16.3 17.25 L16.35 17.35 16.35 17.4 16.35 17.45 16.4 17.5 16.45 17.5 16.45 17.55 16.55 17.5 16.55 17.55 16.65 17.7 16.65 17.75 16.7 17.75 16.7 17.8 16.8 17.75 16.8 17.8 16.75 17.85 16.85 17.8 16.85 17.9 16.9 17.95 16.95 17.95 17.1 17.95 17.2 17.95 17.2 18.0 17.25 18.0 17.35 18.05 17.4 18.05 17.95 18.0 18.25 18.0 18.4 18.0 18.45 18.0 18.7 18.0 18.75 17.95 18.85 17.95 Q18.9 17.85 19.0 17.9 L19.05 17.9 Q19.05 17.8 19.15 17.85 L19.15 17.8 19.35 17.75 19.4 17.7 19.45 17.7 19.45 17.65 19.5 17.6 19.55 17.6 19.55 17.55 19.65 17.45 19.7 17.45 19.7 17.4 19.85 17.35 20.0 17.35 20.1 17.25 20.1 17.2 20.25 17.1 20.35 17.05 20.4 17.0 20.5 16.9 20.55 16.9 20.7 16.85 20.7 16.8 20.75 16.8 20.75 16.75 20.8 16.7 20.8 16.65 20.85 16.5 20.85 16.45 20.9 16.45 20.95 16.4 20.95 16.3 21.1 16.15 Q21.05 15.95 21.15 15.9 L21.2 15.9 21.2 15.85 21.25 15.8 21.25 15.7 21.3 15.6 21.3 15.55 21.35 15.5 21.4 15.2 21.45 15.15 21.5 14.8 21.55 14.8 21.6 14.35 21.55 14.3 21.55 13.6 21.45 13.55 21.45 13.5 21.4 13.5 21.4 13.45 21.4 13.4 21.4 13.35 21.35 13.3 21.35 13.2 21.35 13.05 M26.25 15.4 Q25.55 21.45 20.4 26.0 16.9 29.65 11.85 28.8 6.55 27.6 5.15 25.8 4.45 24.8 4.5 23.1 3.9 17.4 11.6 12.2 13.4 10.65 15.9 9.65 20.25 8.05 23.1 9.9 24.7 10.3 25.5 12.4 26.55 13.7 26.25 15.4" fill="#dcb4a3" fill-rule="evenodd" stroke="none"/>
    <path d="M16.25 11.65 L16.3 11.6 16.3 11.55 16.35 11.45 16.4 11.35 Q16.4 11.3 16.55 11.25 L16.6 11.15 16.65 11.15 16.7 11.1 16.7 11.05 16.75 11.0 16.75 10.9 16.8 10.9 16.8 10.85 16.85 10.75 16.9 10.75 17.05 10.7 17.2 10.7 17.3 10.6 17.3 10.55 17.35 10.55 17.4 10.5 17.5 10.5 18.15 10.45 18.2 10.5 18.35 10.5 Q18.45 10.3 18.4 10.5 L18.45 10.5 Q18.5 10.3 18.6 10.55 L18.7 10.55 18.8 10.45 18.95 10.45 19.2 10.45 19.3 10.45 19.45 10.5 19.5 10.5 Q19.6 10.35 19.55 10.5 L19.6 10.55 19.65 10.5 19.7 10.55 19.75 10.65 19.8 10.7 19.8 10.75 19.85 10.8 19.95 10.8 20.0 10.85 20.05 10.9 20.1 10.9 20.1 11.0 20.15 10.95 20.45 11.15 20.45 11.2 20.5 11.25 20.5 11.3 20.55 11.35 20.7 11.45 20.7 11.5 20.75 11.55 20.75 11.65 20.8 11.65 20.8 11.7 20.9 11.75 20.9 11.8 20.95 11.9 20.95 11.95 21.0 12.0 Q20.9 12.0 20.95 12.2 L21.0 12.2 21.0 12.25 21.05 12.25 21.05 12.3 21.1 12.35 21.1 12.45 21.15 12.6 21.2 12.65 21.25 12.7 Q21.35 12.55 21.3 12.7 L21.3 12.85 21.35 12.9 21.35 13.05 21.2 13.05 21.05 13.0 21.0 13.05 20.95 13.0 20.9 13.0 20.75 12.9 20.7 13.0 Q20.7 12.85 20.55 13.0 L20.4 12.95 20.3 12.95 20.25 12.9 20.0 12.95 19.85 12.95 19.8 13.0 19.7 13.0 19.65 13.0 19.6 13.05 19.5 13.2 19.5 13.25 19.45 13.25 19.45 13.35 19.35 13.45 19.35 13.4 19.3 13.3 19.25 13.25 19.2 13.15 19.15 13.05 19.1 12.95 19.05 12.85 19.0 12.8 19.0 12.7 19.0 12.6 19.0 12.5 19.0 12.45 19.0 12.35 19.0 12.25 19.0 12.15 19.0 12.1 18.95 12.0 18.95 11.9 18.9 11.8 18.85 11.75 18.8 11.65 18.7 11.55 18.6 11.45 18.45 11.4 18.3 11.4 18.2 11.4 18.15 11.4 18.05 11.45 17.95 11.5 17.85 11.6 17.8 11.7 17.7 11.75 17.65 11.85 17.65 11.95 17.6 12.05 17.6 12.1 17.6 12.2 17.6 12.3 17.6 12.4 17.6 12.45 17.6 12.55 17.6 12.65 17.6 12.75 17.6 12.85 17.6 12.9 17.6 13.0 17.6 13.1 17.6 13.2 17.65 13.25 17.65 13.35 17.65 13.45 17.7 13.55 17.75 13.6 17.75 13.7 17.8 13.8 17.85 13.9 17.9 13.95 17.9 14.05 17.95 14.15 17.95 14.25 18.0 14.3 18.0 14.4 18.0 14.5 18.0 14.6 18.05 14.65 18.05 14.75 18.1 14.85 18.1 14.95 18.1 15.0 18.1 15.1 18.1 15.2 18.1 15.3 18.1 15.35 18.1 15.45 18.1 15.55 18.1 15.65 18.1 15.75 18.1 15.8 18.1 15.9 18.1 16.0 18.05 16.1 18.05 16.15 17.95 16.25 17.9 16.35 17.85 16.45 17.8 16.5 17.8 16.6 17.75 16.7 17.7 16.7 17.65 16.65 17.6 16.6 17.55 16.55 17.45 16.5 17.4 16.5 17.4 16.45 17.35 16.45 17.35 16.35 17.3 16.25 17.25 16.25 17.25 16.2 17.2 16.15 17.2 16.1 17.15 16.05 17.15 15.95 17.05 15.9 17.1 15.65 17.05 15.6 17.0 15.55 17.0 15.5 16.95 15.45 16.95 15.4 16.9 15.4 16.95 15.3 16.9 15.25 16.9 15.0 16.85 15.0 16.8 14.8 Q16.85 14.65 16.7 14.75 L16.75 14.45 16.7 14.35 16.65 14.3 16.65 14.15 16.6 14.15 16.65 14.05 16.6 14.0 16.55 13.75 16.5 13.65 16.5 13.6 16.45 13.6 16.45 13.45 16.4 13.45 16.4 12.35 16.45 12.25 16.45 12.2 16.5 12.1 16.5 11.9 16.45 11.95 16.45 11.8 16.4 11.75 16.35 11.7 16.25 11.7 16.25 11.65 M19.65 17.45 L19.55 17.55 19.55 17.6 19.5 17.6 19.45 17.65 19.45 17.7 19.4 17.7 19.35 17.75 19.15 17.8 19.15 17.85 Q19.05 17.8 19.05 17.9 L19.0 17.9 Q18.9 17.85 18.85 17.95 L18.75 17.95 18.7 18.0 18.45 18.0 18.4 18.0 18.25 18.0 17.95 18.0 17.4 18.05 17.35 18.05 17.25 18.0 17.2 18.0 17.2 17.95 17.35 17.95 17.55 17.95 17.75 17.95 17.85 17.95 Q17.85 17.85 17.95 17.9 L18.0 17.9 18.2 17.75 18.25 17.8 18.2 17.85 18.2 17.9 18.25 17.95 18.4 17.95 18.55 17.95 18.65 17.95 18.7 17.95 18.8 17.85 18.85 17.8 18.95 17.75 19.0 17.75 19.15 17.65 19.15 17.6 19.35 17.55 19.35 17.45 19.45 17.5 19.5 17.5 19.55 17.45 19.65 17.45 M16.85 17.8 L16.75 17.85 16.8 17.8 16.85 17.8 M16.8 17.75 L16.7 17.8 16.7 17.75 16.8 17.75 M16.05 16.55 L16.0 16.6 16.0 16.5 15.95 16.45 15.95 16.4 15.9 16.35 15.95 16.1 16.0 16.1 16.0 16.25 16.05 16.3 16.05 16.55 M7.05 32.85 L4.05 31.1 3.95 31.0 3.9 30.9 2.65 30.05 2.65 30.0 1.85 28.85 1.85 28.8 Q0.95 27.0 0.9 25.5 0.7 22.8 2.8 20.75 L2.85 20.7 2.95 20.55 3.0 20.2 3.2 20.4 3.2 20.7 2.85 22.1 2.6 22.95 Q2.0 24.15 2.85 26.15 3.55 27.05 5.0 28.15 7.45 30.05 10.8 31.2 L11.15 31.4 12.15 31.75 14.35 32.3 Q17.9 32.6 21.05 32.3 L22.35 32.0 Q23.0 31.55 23.55 31.5 L25.1 31.05 25.4 30.95 Q26.25 30.35 26.95 30.15 L27.2 30.0 Q30.8 28.0 31.4 25.5 32.9 21.1 32.05 18.5 L30.0 13.0 30.75 14.0 Q32.9 17.0 33.2 20.25 36.95 23.3 33.75 28.8 L33.75 28.85 33.6 29.1 33.4 29.3 Q33.1 29.35 32.8 29.7 L32.1 30.2 31.6 30.6 30.8 30.95 Q30.55 31.0 30.15 31.4 L29.55 32.05 Q28.5 32.3 27.65 32.75 L26.7 33.2 26.3 33.5 25.25 33.8 23.2 34.35 Q17.9 35.6 11.8 34.45 L14.1 35.5 13.55 35.45 9.85 34.1 9.2 33.8 7.95 33.3 7.9 33.3 7.5 33.15 7.05 32.85" fill="#d5a591" fill-rule="evenodd" stroke="none"/>
    <path d="M21.35 13.05 L21.35 13.2 21.35 13.3 21.4 13.35 21.4 13.4 21.4 13.45 21.4 13.5 21.45 13.5 21.45 13.55 21.55 13.6 21.55 14.3 21.6 14.35 21.55 14.8 21.5 14.8 21.45 15.15 21.4 15.2 21.35 15.5 21.3 15.55 21.3 15.6 21.25 15.7 21.25 15.8 21.2 15.85 21.2 15.9 21.15 15.9 Q21.05 15.95 21.1 16.15 L20.95 16.3 20.95 16.4 20.9 16.45 20.85 16.45 20.85 16.5 20.8 16.65 20.8 16.7 20.75 16.75 20.75 16.8 20.7 16.8 20.7 16.85 20.55 16.9 20.5 16.9 20.4 17.0 20.35 17.05 20.25 17.1 20.1 17.2 20.1 17.25 20.0 17.35 19.85 17.35 19.7 17.4 19.7 17.45 19.65 17.45 19.55 17.45 19.5 17.5 19.45 17.5 19.35 17.45 19.35 17.55 19.15 17.6 19.15 17.65 19.0 17.75 18.95 17.75 18.85 17.8 18.8 17.85 18.7 17.95 18.65 17.95 18.55 17.95 18.4 17.95 18.25 17.95 18.2 17.9 18.2 17.85 18.25 17.8 18.35 17.8 18.5 17.85 18.65 17.8 18.75 17.8 18.8 17.7 19.0 17.65 19.1 17.55 19.2 17.45 19.25 17.35 19.3 17.25 19.35 17.2 19.35 17.1 19.4 17.0 19.4 16.9 19.4 16.85 19.45 16.75 19.45 16.65 19.5 16.55 19.5 16.5 19.5 16.4 19.5 16.3 19.5 16.15 19.5 16.05 19.5 15.85 19.5 15.7 19.5 15.5 19.5 15.35 19.5 15.15 19.5 15.0 19.5 14.8 19.5 14.7 19.5 14.65 19.5 14.55 19.5 14.45 19.5 14.35 19.5 14.3 19.45 14.2 19.45 14.1 19.4 14.0 19.4 13.95 19.4 13.85 19.4 13.75 19.4 13.65 19.4 13.6 19.35 13.5 19.35 13.45 19.45 13.35 19.45 13.25 19.5 13.25 19.5 13.2 19.6 13.05 19.65 13.0 19.7 13.0 19.8 13.0 19.85 12.95 20.0 12.95 20.25 12.9 20.3 12.95 20.4 12.95 20.55 13.0 Q20.7 12.85 20.7 13.0 L20.75 12.9 20.9 13.0 20.95 13.0 21.0 13.05 21.05 13.0 21.2 13.05 21.35 13.05 M18.2 17.75 L18.15 17.75 18.15 17.7 18.2 17.75" fill="#c2a591" fill-rule="evenodd" stroke="none"/>
    <path d="M17.2 17.95 L17.1 17.95 16.95 17.95 16.9 17.95 16.85 17.9 16.85 17.8 16.8 17.8 16.8 17.75 16.7 17.75 16.65 17.75 16.65 17.7 16.55 17.55 16.55 17.5 16.45 17.5 16.4 17.5 16.35 17.45 16.35 17.4 16.35 17.35 16.3 17.25 Q16.35 17.1 16.25 17.25 L16.25 17.1 16.2 17.0 16.2 16.95 16.15 16.9 16.1 16.75 16.05 16.8 16.05 16.55 16.05 16.3 16.0 16.25 16.0 16.1 15.95 16.1 15.9 16.05 15.9 15.9 Q15.9 15.8 15.8 15.85 L15.8 15.8 15.75 15.75 15.8 15.4 Q15.85 15.25 15.75 15.4 L15.75 15.15 15.7 15.1 15.7 15.05 15.65 15.0 15.65 14.55 15.6 14.55 15.6 14.35 15.65 14.35 15.65 14.25 15.8 14.1 15.75 14.1 15.75 13.95 15.65 13.9 15.55 13.85 Q15.5 13.7 15.6 13.7 L15.5 13.6 15.55 13.05 15.6 13.05 15.65 12.85 15.6 12.75 15.6 12.55 15.6 12.45 15.6 12.35 15.6 12.2 15.6 12.0 15.65 12.0 15.65 11.9 15.75 11.8 15.75 11.75 15.9 11.75 15.9 11.7 Q15.95 11.6 16.0 11.65 L16.2 11.65 16.25 11.65 16.25 11.7 16.35 11.7 16.4 11.75 16.45 11.8 16.45 11.95 16.5 11.9 16.5 12.1 16.45 12.2 16.45 12.25 16.4 12.35 16.4 13.45 16.45 13.45 16.45 13.6 16.5 13.6 16.5 13.65 16.55 13.75 16.6 14.0 16.65 14.05 16.6 14.15 16.65 14.15 16.65 14.3 16.7 14.35 16.75 14.45 16.7 14.75 Q16.85 14.65 16.8 14.8 L16.85 15.0 16.9 15.0 16.9 15.25 16.95 15.3 16.9 15.4 16.95 15.4 16.95 15.45 17.0 15.5 17.0 15.55 17.05 15.6 17.1 15.65 17.05 15.9 17.15 15.95 17.15 16.05 17.2 16.1 17.2 16.15 17.25 16.2 17.25 16.25 17.3 16.25 17.35 16.35 17.35 16.45 17.4 16.45 17.4 16.5 17.45 16.5 17.55 16.55 17.6 16.6 17.65 16.65 17.7 16.7 17.75 16.7 17.75 16.8 17.8 16.85 17.8 16.95 17.8 17.05 17.8 17.15 17.8 17.25 17.85 17.3 17.85 17.4 17.9 17.5 18.0 17.6 18.05 17.65 18.15 17.7 18.15 17.75 18.2 17.75 18.0 17.9 17.95 17.9 Q17.85 17.85 17.85 17.95 L17.75 17.95 17.55 17.95 17.35 17.95 17.2 17.95" fill="#f0b4a3" fill-rule="evenodd" stroke="none"/>
    <path d="M16.55 17.5 L16.45 17.55 16.45 17.5 16.55 17.5 M3.95 31.55 L5.15 32.15 5.0 32.1 4.2 31.85 4.1 31.85 3.9 31.65 3.95 31.55 M5.65 32.4 L6.15 32.6 5.85 32.5 5.65 32.4" fill="#d8bca6" fill-rule="evenodd" stroke="none"/>
    <path d="M3.4 31.45 L3.45 31.25 3.75 31.45 3.95 31.55 3.9 31.65 3.4 31.45" fill="url(#gradient0)" fill-rule="evenodd" stroke="none"/>
    <path d="M17.75 16.7 L17.8 16.6 17.8 16.5 17.85 16.45 17.9 16.35 17.95 16.25 18.05 16.15 18.05 16.1 18.1 16.0 18.1 15.9 18.1 15.8 18.1 15.75 18.1 15.65 18.1 15.55 18.1 15.45 18.1 15.35 18.1 15.3 18.1 15.2 18.1 15.1 18.1 15.0 18.1 14.95 18.1 14.85 18.05 14.75 18.05 14.65 18.0 14.6 18.0 14.5 18.0 14.4 18.0 14.3 17.95 14.25 17.95 14.15 17.9 14.05 17.9 13.95 17.85 13.9 17.8 13.8 17.75 13.7 17.75 13.6 17.7 13.55 17.65 13.45 17.65 13.35 17.65 13.25 17.6 13.2 17.6 13.1 17.6 13.0 17.6 12.9 17.6 12.85 17.6 12.75 17.6 12.65 17.6 12.55 17.6 12.45 17.6 12.4 17.6 12.3 17.6 12.2 17.6 12.1 17.6 12.05 17.65 11.95 17.65 11.85 17.7 11.75 17.8 11.7 17.85 11.6 17.95 11.5 18.05 11.45 18.15 11.4 18.2 11.4 18.3 11.4 18.45 11.4 18.6 11.45 18.7 11.55 18.8 11.65 18.85 11.75 18.9 11.8 18.95 11.9 18.95 12.0 19.0 12.1 19.0 12.15 19.0 12.25 19.0 12.35 19.0 12.45 19.0 12.5 19.0 12.6 19.0 12.7 19.0 12.8 19.05 12.85 19.1 12.95 19.15 13.05 19.2 13.15 19.25 13.25 19.3 13.3 19.35 13.4 19.35 13.45 19.35 13.5 19.4 13.6 19.4 13.65 19.4 13.75 19.4 13.85 19.4 13.95 19.4 14.0 19.45 14.1 19.45 14.2 19.5 14.3 19.5 14.35 19.5 14.45 19.5 14.55 19.5 14.65 19.5 14.7 19.5 14.8 19.5 15.0 19.5 15.15 19.5 15.35 19.5 15.5 19.5 15.7 19.5 15.85 19.5 16.05 19.5 16.15 19.5 16.3 19.5 16.4 19.5 16.5 19.5 16.55 19.45 16.65 19.45 16.75 19.4 16.85 19.4 16.9 19.4 17.0 19.35 17.1 19.35 17.2 19.3 17.25 19.25 17.35 19.2 17.45 19.1 17.55 19.0 17.65 18.8 17.7 18.75 17.8 18.65 17.8 18.5 17.85 18.35 17.8 18.25 17.8 18.2 17.75 18.15 17.7 18.05 17.65 18.0 17.6 17.9 17.5 17.85 17.4 17.85 17.3 17.8 17.25 17.8 17.15 17.8 17.05 17.8 16.95 17.8 16.85 17.75 16.8 17.75 16.7" fill="#9a666d" fill-rule="evenodd" stroke="none"/>
  </g>
  <defs>
    <radialGradient cx="0" cy="0" gradientTransform="matrix(0.0231, 0.0, 0.0, 0.0302, 19.35, 35.4)" gradientUnits="userSpaceOnUse" id="gradient0" r="819.2" spreadMethod="pad">
      <stop offset="0.0" stop-color="#d9b49c"/>
      <stop offset="1.0" stop-color="#d9bb9d"/>
    </radialGradient>
  </defs>
</svg>
