<?xml version="1.0" encoding="UTF-8" standalone="no"?>
<svg xmlns:xlink="http://www.w3.org/1999/xlink" height="99.05px" width="48.0px" xmlns="http://www.w3.org/2000/svg">
  <g transform="matrix(1.0, 0.0, 0.0, 1.0, -0.55, -1.35)">
    <path d="M2.5 22.65 Q2.5 20.2 3.05 15.9 L3.25 15.9 3.05 17.5 Q3.05 20.85 4.35 24.1 L4.8 25.15 6.5 29.25 6.35 29.8 6.05 30.05 Q5.55 29.85 4.05 26.8 2.5 23.7 2.5 22.65 M5.9 23.5 Q5.9 22.8 6.05 22.85 L6.2 23.05 Q10.1 27.15 13.8 34.55 L19.15 46.0 20.0 40.95 Q20.0 39.45 19.5 38.5 L18.2 36.45 18.65 36.25 Q20.85 39.5 23.3 46.95 L25.3 53.55 Q25.3 55.1 24.35 55.05 23.45 55.0 22.25 53.7 19.5 50.75 19.2 47.0 L19.05 46.85 19.05 47.0 19.05 47.25 18.8 47.3 18.6 46.9 18.55 46.85 Q17.6 45.45 13.85 43.8 L12.3 43.15 Q8.05 41.25 7.5 39.65 6.9 37.8 7.15 33.85 L7.5 29.8 7.3 29.05 6.05 24.75 6.25 24.6 6.4 24.8 5.9 23.5 M19.9 55.35 L20.8 56.7 Q21.85 59.95 21.85 67.35 21.85 68.6 20.85 68.45 L20.4 65.55 20.25 69.35 20.05 69.35 Q20.05 65.5 19.5 62.7 L18.5 59.6 15.15 55.15 Q12.4 51.6 12.4 50.25 L12.75 48.15 12.75 48.1 13.75 50.5 14.0 48.9 17.4 48.6 17.4 48.8 Q16.6 50.5 18.3 53.0 L19.9 55.35 M19.2 75.05 L19.95 75.95 Q23.6 80.0 24.5 82.9 L24.8 84.7 Q24.8 85.8 23.95 87.15 L24.15 87.9 23.85 88.1 21.4 84.25 21.3 85.5 21.05 85.55 Q21.0 82.65 17.35 77.95 13.8 73.3 13.8 70.55 13.8 69.0 14.7 67.0 L16.05 63.15 16.25 63.15 16.4 64.5 15.45 68.55 Q15.65 70.0 16.9 71.95 L19.2 75.05 M24.9 90.35 L25.75 90.0 26.3 89.8 26.45 90.45 25.65 96.65 Q24.35 97.15 23.7 96.05 23.25 95.3 23.25 94.05 23.25 92.35 23.9 91.35 24.25 90.7 24.9 90.35 M10.15 10.85 L10.9 11.0 10.95 11.05 11.1 11.15 11.3 11.2 11.55 11.4 Q12.25 12.05 12.25 13.05 12.25 14.2 10.8 15.7 L9.35 17.3 Q9.35 17.9 11.85 22.25 11.0 22.25 8.55 20.1 5.95 17.8 5.95 16.5 L5.95 16.15 Q6.0 14.35 6.65 13.05 7.7 10.85 10.15 10.85 M8.45 30.5 L8.45 30.55 8.7 29.9 8.15 28.65 8.45 30.5 M19.15 46.0 L19.15 46.05 19.15 46.0 M23.85 73.5 Q24.3 71.2 25.95 69.95 26.3 71.9 28.25 76.75 29.95 80.85 29.95 83.9 L29.8 84.65 28.5 85.95 Q27.6 84.6 26.65 82.1 L25.4 78.75 Q23.85 74.3 23.85 73.5 M16.75 84.65 L17.1 89.85 Q17.2 93.1 18.8 95.0 16.6 95.05 16.0 92.65 L15.8 89.3 15.9 87.35 16.55 84.65 16.75 84.65" fill="#d78080" fill-rule="evenodd" stroke="none"/>
    <path d="M36.05 3.7 L36.2 4.45 35.8 3.65 35.65 3.35 35.75 3.5 35.9 3.6 36.05 3.65 36.05 3.7 M28.6 100.05 L28.1 100.0 28.25 99.95 28.6 100.05 M9.05 7.25 L8.75 7.15 9.05 7.15 9.05 7.25 M16.3 82.7 L16.1 82.8 16.1 82.35 16.3 82.7 M40.05 24.05 L40.1 23.5 40.5 25.95 40.05 24.05 M19.05 47.0 L19.05 46.85 19.2 47.0 19.05 47.0 M8.45 30.5 L8.15 28.65 8.7 29.9 8.45 30.55 8.45 30.5 M19.15 46.0 L19.15 46.05 19.15 46.0" fill="#b45947" fill-rule="evenodd" stroke="none"/>
    <path d="M17.15 98.9 Q14.9 96.7 14.15 95.15 13.35 93.5 13.35 90.3 13.35 88.35 14.45 85.3 L15.5 82.05 15.4 81.3 15.35 81.2 15.3 81.15 14.5 80.9 14.9 80.45 Q11.1 74.25 11.1 72.65 11.1 71.0 13.3 65.05 15.0 60.35 13.5 57.3 L13.7 57.2 Q11.45 55.25 10.9 53.6 10.6 52.7 10.6 49.3 L10.6 49.1 9.4 44.95 Q5.3 41.5 3.0 32.95 0.85 24.95 0.55 13.85 L0.8 12.95 1.05 13.95 Q1.25 12.25 2.0 10.9 L2.3 10.35 Q4.15 7.65 8.5 7.1 L9.05 7.25 Q3.85 8.75 2.25 12.4 1.35 14.5 1.55 18.5 L1.35 18.5 1.35 19.55 1.55 22.85 Q2.05 26.85 3.85 29.15 5.65 31.6 6.15 34.75 L6.8 39.55 6.9 39.95 Q8.4 44.7 18.5 46.9 14.65 47.75 11.6 46.35 L12.1 51.6 Q12.35 53.3 13.0 54.6 L17.6 59.8 Q18.45 61.0 18.85 62.9 19.15 64.8 19.05 67.35 L19.0 69.55 Q18.9 73.15 19.2 75.05 L16.9 71.95 Q16.55 70.3 16.85 68.2 L17.05 66.4 17.15 64.45 Q17.1 61.3 16.0 59.8 L14.75 58.05 14.1 57.55 14.85 59.6 Q15.35 61.35 15.35 62.4 L14.3 66.2 Q13.25 69.25 13.25 69.9 L13.3 70.6 Q13.55 74.6 17.15 79.2 19.6 82.3 20.7 85.7 21.4 87.85 21.5 90.15 L21.25 90.4 16.3 82.7 16.1 82.35 16.1 82.8 15.1 90.45 Q15.1 93.65 15.55 95.15 L16.4 97.0 16.75 98.1 17.15 98.9 M10.35 45.65 L10.7 46.65 10.75 45.9 10.35 45.65" fill="#000000" fill-rule="evenodd" stroke="none"/>
    <path d="M0.8 12.95 L1.1 12.1 1.65 11.3 2.0 10.9 Q1.25 12.25 1.05 13.95 L0.8 12.95" fill="#460f0f" fill-rule="evenodd" stroke="none"/>
    <path d="M18.55 46.85 L18.6 46.9 18.5 46.9 18.55 46.85" fill="#d2b6a1" fill-rule="evenodd" stroke="none"/>
    <path d="M1.55 22.85 L2.5 22.65 Q2.5 23.7 4.05 26.8 5.55 29.85 6.05 30.05 L6.35 29.8 6.5 29.25 7.3 29.05 7.5 29.8 7.15 33.85 Q6.9 37.8 7.5 39.65 8.05 41.25 12.3 43.15 L13.85 43.8 Q17.6 45.45 18.55 46.85 L18.5 46.9 Q8.4 44.7 6.9 39.95 L6.8 39.55 6.15 34.75 Q5.65 31.6 3.85 29.15 2.05 26.85 1.55 22.85 M23.85 88.1 L24.9 90.35 Q24.25 90.7 23.9 91.35 L21.5 90.15 Q21.4 87.85 20.7 85.7 19.6 82.3 17.15 79.2 13.55 74.6 13.3 70.6 L13.25 69.9 Q13.25 69.25 14.3 66.2 L15.35 62.4 Q15.35 61.35 14.85 59.6 L14.1 57.55 14.75 58.05 16.0 59.8 Q17.1 61.3 17.15 64.45 L17.05 66.4 16.85 68.2 Q16.55 70.3 16.9 71.95 15.65 70.0 15.45 68.55 L16.4 64.5 16.25 63.15 16.05 63.15 14.7 67.0 Q13.8 69.0 13.8 70.55 13.8 73.3 17.35 77.95 21.0 82.65 21.05 85.55 L21.3 85.5 21.4 84.25 23.85 88.1 M17.4 48.6 L14.0 48.9 13.75 50.5 12.75 48.1 12.75 48.15 12.4 50.25 Q12.4 51.6 15.15 55.15 L18.5 59.6 19.5 62.7 18.85 62.9 Q18.45 61.0 17.6 59.8 L13.0 54.6 Q12.35 53.3 12.1 51.6 L11.6 46.35 Q14.65 47.75 18.5 46.9 L17.4 48.6" fill="#c4b6a1" fill-rule="evenodd" stroke="none"/>
    <path d="M4.35 24.1 L5.9 23.5 6.4 24.8 6.25 24.6 6.05 24.75 7.3 29.05 6.5 29.25 4.8 25.15 4.35 24.1 M22.25 53.7 L19.9 55.35 18.3 53.0 Q16.6 50.5 17.4 48.8 L17.4 48.6 18.5 46.9 18.6 46.9 18.8 47.3 19.05 47.25 19.05 47.0 19.2 47.0 Q19.5 50.75 22.25 53.7 M20.05 69.35 L19.0 69.55 19.05 67.35 Q19.15 64.8 18.85 62.9 L19.5 62.7 Q20.05 65.5 20.05 69.35" fill="#7a0829" fill-rule="evenodd" stroke="none"/>
    <path d="M9.05 7.15 L10.5 7.05 12.35 7.3 12.4 7.25 12.55 7.15 13.2 6.65 13.55 6.35 13.85 6.1 14.15 5.85 14.45 5.7 14.8 5.55 16.55 4.2 16.85 4.0 16.9 4.0 17.1 3.75 17.35 3.6 17.7 3.45 18.1 3.25 18.35 3.15 18.45 3.1 18.65 3.0 18.95 2.85 19.3 2.7 19.45 2.7 19.6 2.65 19.95 2.55 20.25 2.5 20.4 2.5 20.5 2.45 20.75 2.35 20.9 2.25 21.2 2.1 21.55 1.95 21.75 1.95 22.05 1.8 22.25 1.8 22.35 1.8 22.55 1.7 22.65 1.65 22.9 1.55 23.25 1.4 23.45 1.35 26.6 4.6 Q33.55 11.75 33.55 16.95 33.55 30.15 37.45 37.9 L40.15 43.25 Q41.35 46.3 41.35 50.15 41.35 61.35 44.95 67.05 L47.45 71.2 Q48.55 73.85 48.55 77.9 L47.8 83.55 Q47.55 85.5 48.3 88.15 48.15 88.85 48.15 89.65 L48.25 92.9 48.15 92.95 47.8 93.2 47.35 93.6 47.15 93.7 46.9 93.85 46.55 94.0 46.3 94.05 46.1 94.05 45.7 94.3 45.4 94.45 45.2 94.6 45.05 94.6 44.6 94.95 44.3 95.1 43.95 95.25 43.55 95.35 43.2 95.45 42.9 95.55 42.6 95.7 42.25 95.85 42.05 95.9 41.85 96.0 41.5 96.15 41.25 96.15 40.9 96.2 40.65 96.3 40.4 96.5 40.3 96.6 40.0 96.75 39.8 96.85 39.6 96.95 39.2 97.2 38.9 97.4 38.55 97.5 37.9 97.95 37.6 98.1 37.35 98.2 37.25 98.25 37.0 98.4 36.65 98.55 36.3 98.6 36.05 98.65 35.8 98.6 35.5 98.65 35.3 98.65 35.0 98.65 34.7 98.7 34.5 98.65 34.3 98.6 34.15 98.55 32.45 99.5 28.6 100.05 28.25 99.95 Q24.25 100.75 19.5 100.05 L18.8 100.0 18.1 99.75 17.15 98.9 16.75 98.1 16.4 97.0 15.55 95.15 Q15.1 93.65 15.1 90.45 L16.1 82.8 16.3 82.7 21.25 90.4 21.5 90.15 23.9 91.35 Q23.25 92.35 23.25 94.05 23.25 95.3 23.7 96.05 24.35 97.15 25.65 96.65 L26.45 90.45 26.3 89.8 25.75 90.0 24.9 90.35 23.85 88.1 24.15 87.9 23.95 87.15 Q24.8 85.8 24.8 84.7 L24.5 82.9 Q23.6 80.0 19.95 75.95 L19.2 75.05 Q18.9 73.15 19.0 69.55 L20.05 69.35 20.25 69.35 20.4 65.55 20.85 68.45 Q21.85 68.6 21.85 67.35 21.85 59.95 20.8 56.7 L19.9 55.35 22.25 53.7 Q23.45 55.0 24.35 55.05 25.3 55.1 25.3 53.55 L23.3 46.95 Q20.85 39.5 18.65 36.25 L18.2 36.45 19.5 38.5 Q20.0 39.45 20.0 40.95 L19.15 46.0 13.8 34.55 Q10.1 27.15 6.2 23.05 L6.05 22.85 Q5.9 22.8 5.9 23.5 L4.35 24.1 Q3.05 20.85 3.05 17.5 L3.25 15.9 3.05 15.9 Q2.5 20.2 2.5 22.65 L1.55 22.85 1.35 19.55 1.35 18.5 1.55 18.5 Q1.35 14.5 2.25 12.4 3.85 8.75 9.05 7.25 L9.05 7.15 M10.15 10.85 Q7.7 10.85 6.65 13.05 6.0 14.35 5.95 16.15 L5.95 16.5 Q5.95 17.8 8.55 20.1 11.0 22.25 11.85 22.25 9.35 17.9 9.35 17.3 L10.8 15.7 Q12.25 14.2 12.25 13.05 12.25 12.05 11.55 11.4 L11.3 11.2 11.1 11.15 10.95 11.05 10.9 11.0 10.15 10.85 M23.85 73.5 Q23.85 74.3 25.4 78.75 L26.65 82.1 Q27.6 84.6 28.5 85.95 L29.8 84.65 29.95 83.9 Q29.95 80.85 28.25 76.75 26.3 71.9 25.95 69.95 24.3 71.2 23.85 73.5 M16.75 84.65 L16.55 84.65 15.9 87.35 15.8 89.3 16.0 92.65 Q16.6 95.05 18.8 95.0 17.2 93.1 17.1 89.85 L16.75 84.65" fill="#d55172" fill-rule="evenodd" stroke="none"/>
  </g>
</svg>
