<?xml version="1.0" encoding="UTF-8" standalone="no"?>
<svg xmlns:xlink="http://www.w3.org/1999/xlink" height="124.8px" width="64.45px" xmlns="http://www.w3.org/2000/svg">
  <g transform="matrix(1.0, 0.0, 0.0, 1.0, -2.95, 20.4)">
    <path d="M45.0 101.3 L34.5 99.5 33.5 99.75 33.0 99.8 31.75 98.5 Q31.3 98.05 30.35 98.05 29.6 98.05 29.3 98.75 29.05 99.25 28.85 100.8 L27.15 97.45 25.55 95.5 25.1 96.35 Q26.15 98.0 25.05 98.05 22.95 96.85 22.75 85.45 22.55 74.0 21.15 65.05 19.7 56.1 19.5 53.75 19.3 51.4 16.35 36.2 L16.0 36.95 13.9 41.4 Q13.2 41.3 12.8 35.9 L12.05 29.7 11.55 30.0 11.4 30.2 9.95 35.35 9.9 34.2 Q9.45 31.4 9.4 27.3 9.35 23.2 8.55 21.45 8.65 22.7 7.2 24.4 5.7 26.1 6.15 24.1 L8.05 17.3 9.6 11.65 Q9.7 10.8 9.45 10.9 9.25 12.05 5.15 16.15 8.7 7.7 11.15 3.65 13.55 -0.45 14.5 -3.55 15.45 -6.65 19.45 -13.4 23.45 -20.15 23.85 -19.6 L27.9 -14.7 Q31.5 -10.4 33.1 -10.6 38.7 -10.6 42.1 -4.4 45.05 0.9 47.5 13.2 44.4 15.55 42.2 19.5 40.6 22.35 40.6 23.1 40.6 24.1 40.8 23.75 L41.15 23.65 40.4 32.4 Q40.4 34.6 42.35 37.5 L46.7 44.0 Q53.0 55.15 53.0 75.1 L52.8 81.85 Q52.5 84.9 51.45 87.8 L48.0 94.5 Q45.0 100.15 45.0 101.3" fill="#ef8410" fill-rule="evenodd" stroke="none"/>
    <path d="M45.0 101.3 Q45.0 100.15 48.0 94.5 L51.45 87.8 Q52.5 84.9 52.8 81.85 L53.0 75.1 Q53.0 55.15 46.7 44.0 L42.35 37.5 Q40.4 34.6 40.4 32.4 L41.15 23.65 42.75 23.05 Q43.9 22.5 44.45 22.5 61.75 27.6 61.4 33.85 61.05 33.6 60.5 33.5 L60.0 33.4 59.9 34.1 Q60.45 38.35 59.95 42.65 59.45 40.6 58.85 39.6 L57.95 38.55 56.95 45.65 Q56.2 51.45 56.6 54.65 L57.55 68.3 Q58.1 78.7 58.0 82.65 57.85 86.6 54.45 92.85 50.25 100.5 45.0 101.3 M63.1 34.7 L62.65 35.8 62.1 35.1 61.9 34.65 63.1 34.7" fill="#ca700f" fill-rule="evenodd" stroke="none"/>
    <path d="M41.15 23.65 L40.8 23.75 Q40.6 24.1 40.6 23.1 40.6 22.35 42.2 19.5 44.4 15.55 47.5 13.2 L50.35 12.5 52.8 12.2 Q57.85 12.2 62.45 16.65 67.4 21.45 67.4 27.6 67.4 29.05 66.8 30.45 66.2 31.75 65.2 32.9 L63.65 34.7 Q63.45 34.45 63.25 34.55 L63.1 34.7 61.9 34.65 61.4 33.85 Q61.75 27.6 44.45 22.5 43.9 22.5 42.75 23.05 L41.15 23.65" fill="#cc6f0f" fill-rule="evenodd" stroke="none"/>
    <path d="M23.95 -19.9 Q13.05 -2.4 4.0 17.2 6.75 15.4 9.3 12.05 6.1 20.35 5.6 27.3 L8.9 22.15 Q8.6 30.95 9.95 36.1 L11.85 30.35 13.2 42.55 Q15.9 39.45 16.25 36.15 L21.75 72.75 23.25 95.15 24.2 100.2 Q25.8 97.85 25.9 95.15 L29.4 102.9 29.85 97.05 34.85 102.85 33.6 99.75 Q41.15 102.1 47.4 100.95 56.25 93.5 58.2 84.3 58.05 68.95 56.8 54.85 56.4 46.45 58.0 37.3 58.75 41.15 60.5 44.85 61.35 39.5 60.5 33.6 L62.5 36.75 Q65.35 33.05 66.65 29.15" fill="none" stroke="#4d2b06" stroke-linecap="round" stroke-linejoin="miter-clip" stroke-miterlimit="3.0" stroke-width="1.0"/>
  </g>
</svg>
