<?xml version="1.0" encoding="UTF-8" standalone="no"?>
<svg xmlns:xlink="http://www.w3.org/1999/xlink" height="116.95px" width="63.1px" xmlns="http://www.w3.org/2000/svg">
  <g transform="matrix(1.0, 0.0, 0.0, 1.0, -15.35, 14.55)">
    <path d="M45.0 101.3 Q44.05 102.5 39.2 101.2 34.3 99.85 32.55 98.95 30.75 98.05 30.35 98.05 29.65 98.05 29.25 98.75 28.8 99.45 28.8 100.65 27.15 97.3 25.55 95.5 L25.0 96.1 24.55 97.15 Q22.0 94.2 22.15 85.95 L22.3 71.35 22.7 69.75 Q23.1 68.1 23.1 66.45 L22.05 57.7 Q22.05 56.8 22.55 55.8 L23.3 54.15 23.2 53.7 22.15 55.2 20.55 57.1 20.25 57.0 Q19.85 55.85 19.85 48.05 20.5 41.05 20.25 38.85 L19.35 41.65 19.2 40.95 18.95 40.35 18.8 35.3 Q18.8 29.25 19.45 23.4 L20.9 12.85 15.9 18.75 15.85 18.75 Q16.25 16.25 19.1 8.75 22.1 1.0 23.65 -1.25 L26.35 -5.45 27.3 -7.45 Q27.6 -7.5 29.55 -9.8 L31.55 -12.1 Q39.95 -11.55 41.5 -13.0 41.9 -13.35 42.3 -14.05 42.85 -14.55 44.35 -14.55 45.55 -14.55 45.65 -13.55 L45.45 -12.85 66.3 -14.0 Q65.5 -12.5 66.05 -4.2 66.5 2.4 67.1 5.9 68.25 12.45 73.1 15.25 L76.25 17.3 Q77.7 18.7 77.9 21.1 72.55 21.55 66.2 26.2 60.15 30.55 60.15 33.0 L60.25 33.7 60.5 33.8 62.4 33.35 65.2 32.6 65.1 32.7 Q56.95 39.9 56.95 40.95 56.95 41.95 57.5 41.65 L60.1 41.25 Q56.1 46.75 53.25 54.0 51.05 59.5 51.05 60.85 51.05 65.15 52.0 65.15 52.6 65.15 52.8 67.5 53.0 69.6 53.0 75.65 L52.8 81.8 Q52.5 85.1 51.45 87.8 L48.65 92.85 Q46.35 96.85 45.0 101.3" fill="#d6eefb" fill-rule="evenodd" stroke="none"/>
    <path d="M45.0 101.3 Q46.35 96.85 48.65 92.85 L51.45 87.8 Q52.5 85.1 52.8 81.8 L53.0 75.65 Q53.0 69.6 52.8 67.5 52.6 65.15 52.0 65.15 51.05 65.15 51.05 60.85 51.05 59.5 53.25 54.0 56.1 46.75 60.1 41.25 L57.5 41.65 Q56.95 41.95 56.95 40.95 56.95 39.9 65.1 32.7 L65.2 32.6 62.4 33.35 60.5 33.8 60.25 33.7 60.15 33.0 Q60.15 30.55 66.2 26.2 72.55 21.55 77.9 21.1 L78.35 21.1 78.4 21.2 78.45 21.4 Q77.95 22.8 77.15 27.6 L75.4 37.25 75.25 37.6 Q74.45 39.45 74.6 34.6 L73.7 32.15 73.7 33.3 72.9 33.05 Q71.5 33.5 71.1 38.8 70.7 44.05 67.3 45.2 63.9 46.35 62.15 52.85 59.4 56.75 58.15 61.55 57.55 61.55 57.0 61.15 L56.7 60.85 Q57.2 61.8 57.55 68.65 L57.95 81.95 Q57.95 87.45 53.35 93.95 48.7 100.45 45.0 101.3 M74.65 32.8 L74.6 32.55 74.65 33.45 74.65 32.8" fill="#a4c9de" fill-rule="evenodd" stroke="none"/>
    <path d="M26.95 -6.8 L25.2 -3.7 22.7 0.45 22.2 1.25 21.75 2.1 20.6 4.35 20.45 4.6 Q19.0 7.6 18.0 10.25 L17.1 12.85 16.6 14.85 16.1 17.3 16.05 17.5 15.95 18.7 17.65 16.65 19.5 14.45 20.9 12.75 20.65 14.15 19.8 19.9 19.55 21.8 19.15 26.65 19.1 27.0 18.85 31.3 Q18.6 37.15 19.1 40.35 L19.15 40.6 19.15 40.7 19.2 40.95 19.25 41.25 20.9 37.7 Q19.95 48.2 20.35 58.15 L22.55 53.35 22.5 93.45 Q23.35 96.7 25.1 97.7 L26.0 95.15 Q26.5 98.9 28.85 101.0 30.45 98.4 30.35 97.1 L34.6 100.2 Q41.0 103.0 46.7 100.9 55.9 95.6 57.9 83.75 58.4 73.6 57.5 61.25 L59.8 56.75 Q60.45 54.9 61.45 52.95 L63.7 47.9 66.9 43.95 66.8 49.6 70.0 41.25 73.5 28.65 74.35 41.7 75.4 37.25 75.5 36.85 76.3 32.65 76.35 32.5 76.4 32.2 76.5 31.4 76.6 30.9 76.65 30.6 76.65 30.45 76.85 29.15 76.85 28.95 76.9 28.7 77.15 26.35 77.15 26.25 77.3 25.45 77.35 24.75 77.4 24.2 77.55 22.8 77.7 21.0 M19.25 41.25 L19.35 41.65" fill="none" stroke="#4a4f58" stroke-linecap="round" stroke-linejoin="miter-clip" stroke-miterlimit="3.0" stroke-width="1.2000000000000002"/>
  </g>
</svg>
