<?xml version="1.0" encoding="UTF-8" standalone="no"?>
<svg xmlns:xlink="http://www.w3.org/1999/xlink" height="98.0px" width="56.5px" xmlns="http://www.w3.org/2000/svg">
  <g transform="matrix(1.0, 0.0, 0.0, 1.0, -21.5, -4.4)">
    <path d="M45.0 101.3 Q43.75 102.15 39.05 100.95 34.3 99.7 32.55 98.9 L30.35 98.05 Q29.65 98.05 29.25 98.75 28.8 99.45 28.8 100.65 27.15 97.3 25.55 95.5 L25.0 96.1 24.55 97.15 Q22.75 93.85 22.55 85.75 L22.3 71.35 22.2 69.9 Q22.1 68.75 22.5 66.25 22.85 63.75 22.7 61.15 22.55 58.55 22.95 54.2 L23.2 53.7 Q23.9 38.8 26.0 23.35 L28.2 8.85 66.8 4.4 Q69.0 12.35 73.5 16.5 76.0 18.75 78.0 19.25 L77.9 21.0 77.75 21.0 Q72.5 21.55 66.15 26.2 60.15 30.6 60.15 33.0 L60.25 33.7 60.5 33.8 62.4 33.35 65.2 32.6 65.1 32.7 Q56.95 39.9 56.95 40.95 56.95 41.95 57.5 41.65 L60.1 41.25 Q56.1 46.75 53.25 54.0 51.05 59.5 51.05 60.85 51.05 65.15 52.0 65.15 52.6 65.15 52.8 67.5 53.0 69.6 53.0 75.65 53.0 80.8 50.45 87.15 46.0 98.05 45.0 101.3" fill="#f7f8fa" fill-rule="evenodd" stroke="none"/>
    <path d="M45.0 101.3 Q46.0 98.05 50.45 87.15 53.0 80.8 53.0 75.65 53.0 69.6 52.8 67.5 52.6 65.15 52.0 65.15 51.05 65.15 51.05 60.85 51.05 59.5 53.25 54.0 56.1 46.75 60.1 41.25 L57.5 41.65 Q56.95 41.95 56.95 40.95 56.95 39.9 65.1 32.7 L65.2 32.6 62.4 33.35 60.5 33.8 60.25 33.7 60.15 33.0 Q60.15 30.6 66.15 26.2 72.5 21.55 77.75 21.0 70.75 22.25 67.75 32.6 66.95 35.3 65.85 41.2 64.85 46.45 64.15 48.4 L63.25 50.95 Q61.45 57.65 60.7 62.4 L60.2 63.6 Q59.7 64.25 59.7 64.75 L58.85 71.7 Q57.9 79.3 58.2 82.55 58.5 85.8 54.0 93.25 49.5 100.7 45.0 101.3" fill="#f5e9eb" fill-rule="evenodd" stroke="none"/>
    <path d="M72.4 22.15 Q59.0 56.5 58.1 83.75 L57.8 85.05 Q55.4 95.9 46.7 100.9 41.0 103.0 34.6 100.2 L30.35 97.1 Q30.45 98.4 28.85 101.0 26.5 98.9 26.0 95.15 L25.1 97.7 Q23.35 96.7 22.95 93.1 L22.5 87.25 Q20.65 47.7 27.85 8.9" fill="none" stroke="#666666" stroke-linecap="round" stroke-linejoin="miter-clip" stroke-miterlimit="3.0" stroke-width="1.2000000000000002"/>
  </g>
</svg>
