<?xml version="1.0" encoding="UTF-8" standalone="no"?>
<svg xmlns:xlink="http://www.w3.org/1999/xlink" height="78.95px" width="41.3px" xmlns="http://www.w3.org/2000/svg">
  <g transform="matrix(1.0, 0.0, 0.0, 1.0, -20.4, -70.75)">
    <path d="M53.05 148.55 L52.7 148.75 Q52.15 148.55 51.8 148.75 L50.9 149.7 49.3 147.75 Q48.65 146.8 45.4 145.2 41.25 142.75 38.3 143.1 L35.5 145.95 Q32.15 148.35 29.8 148.5 23.5 147.95 21.55 144.2 20.75 143.1 20.9 141.6 20.7 140.65 20.9 140.3 L21.1 138.35 Q21.2 136.9 21.45 136.4 21.45 135.8 21.85 135.6 L21.95 135.45 Q21.9 135.35 22.0 135.2 L21.95 135.05 22.05 135.05 22.3 134.95 22.35 134.95 23.15 132.95 Q24.8 126.45 24.95 122.55 25.1 118.65 23.45 112.8 21.8 106.95 22.1 93.4 L22.05 92.55 Q22.6 89.2 25.65 87.25 26.7 86.6 27.9 86.2 L27.9 86.1 29.3 86.15 30.0 86.25 Q34.5 86.4 39.4 83.55 43.3 80.95 44.75 78.55 49.3 70.95 49.8 70.75 L50.55 71.3 50.1 71.3 49.95 71.05 Q49.55 70.65 49.9 71.65 L51.2 75.55 Q52.3 79.35 52.55 81.7 51.85 106.15 52.5 110.75 53.2 126.2 53.9 129.4 53.8 129.8 54.25 130.15 54.4 129.85 54.35 131.15 54.5 136.0 48.85 138.8 47.9 139.05 44.15 140.65 41.2 141.5 40.25 142.5 L40.25 142.6 Q47.3 144.55 48.75 145.25 51.35 146.65 53.05 148.55" fill="#ef8410" fill-rule="evenodd" stroke="none"/>
    <path d="M50.55 71.3 Q51.55 71.9 54.3 76.05 56.75 79.65 57.35 81.65 56.85 103.9 57.7 111.95 59.15 114.8 61.05 148.3 L60.7 148.45 60.2 148.75 58.9 148.55 Q58.2 148.55 57.65 149.0 56.45 148.85 55.1 148.15 53.9 148.05 53.05 148.55 51.35 146.65 48.75 145.25 47.3 144.55 40.25 142.6 L40.25 142.5 Q41.2 141.5 44.15 140.65 47.9 139.05 48.85 138.8 54.5 136.0 54.35 131.15 54.4 129.85 54.25 130.15 53.8 129.8 53.9 129.4 53.2 126.2 52.5 110.75 51.85 106.15 52.55 81.7 52.3 79.35 51.2 75.55 L49.9 71.65 Q49.55 70.65 49.95 71.05 L50.1 71.3 50.55 71.3" fill="#ca700f" fill-rule="evenodd" stroke="none"/>
    <path d="M55.0 77.55 Q58.6 80.95 58.2 83.15 57.2 103.05 58.45 118.95 60.85 132.65 61.1 147.9 M23.15 146.7 Q20.5 142.85 21.1 137.35 24.75 128.0 24.45 118.45 20.7 104.65 22.25 90.25" fill="none" stroke="#4d2b06" stroke-linecap="round" stroke-linejoin="miter-clip" stroke-miterlimit="3.0" stroke-width="1.2000000000000002"/>
  </g>
</svg>
