<?xml version="1.0" encoding="UTF-8" standalone="no"?>
<svg xmlns:xlink="http://www.w3.org/1999/xlink" height="78.6px" width="38.1px" xmlns="http://www.w3.org/2000/svg">
  <g transform="matrix(1.0, 0.0, 0.0, 1.0, -20.35, -70.75)">
    <path d="M23.1 110.5 L22.95 109.65 Q22.0 103.1 22.1 94.65 L22.1 94.6 22.6 91.6 Q23.0 88.9 24.7 87.65 26.4 86.4 27.1 86.7 L27.85 87.0 29.2 87.1 29.9 87.2 Q34.35 87.35 39.25 84.35 43.15 81.6 44.65 79.1 49.35 70.95 49.85 70.75 L50.6 71.35 50.15 71.35 50.0 71.1 Q49.75 70.8 49.75 71.05 L49.95 71.75 51.1 75.9 Q52.1 79.9 52.25 82.4 51.15 101.9 51.2 108.95 L51.3 111.4 39.7 118.3 23.1 110.5" fill="#f7f8fa" fill-rule="evenodd" stroke="none"/>
    <path d="M50.6 71.35 Q51.55 72.0 54.15 76.4 56.45 80.2 57.0 82.3 56.0 99.7 56.1 108.55 L51.3 111.4 51.2 108.95 Q51.15 101.9 52.25 82.4 52.1 79.9 51.1 75.9 L49.95 71.75 49.75 71.05 Q49.75 70.8 50.0 71.1 L50.15 71.35 50.6 71.35" fill="#f5e9eb" fill-rule="evenodd" stroke="none"/>
    <path d="M50.75 148.3 L50.5 148.5 Q49.95 148.3 49.65 148.5 L48.8 149.35 47.35 147.6 Q46.75 146.7 43.8 145.25 39.95 143.0 37.2 143.35 L34.55 146.05 Q31.4 148.3 29.2 148.5 23.3 148.05 21.5 144.6 20.75 143.55 20.9 142.15 20.7 141.25 20.9 140.9 L21.1 139.05 Q21.2 137.7 21.45 137.2 21.4 136.65 21.8 136.45 L21.9 136.3 21.95 136.05 21.85 135.95 22.0 135.95 22.25 135.85 22.3 135.85 23.05 133.9 Q24.6 127.65 25.05 123.8 25.35 120.1 24.5 116.95 23.6 114.0 23.1 110.5 L39.7 118.3 51.3 111.4 51.35 112.05 Q51.55 127.15 52.15 130.25 52.0 130.6 52.45 130.95 L52.5 131.9 Q52.5 136.5 47.15 139.2 L42.7 141.0 Q39.95 141.85 39.05 142.8 L39.05 142.9 Q45.55 144.6 46.9 145.25 49.25 146.55 50.75 148.3" fill="#ed99ac" fill-rule="evenodd" stroke="none"/>
    <path d="M56.1 108.55 L56.2 111.95 56.3 113.2 Q56.15 116.4 57.2 133.3 L53.8 148.35 52.7 147.9 Q51.55 147.8 50.75 148.3 49.25 146.55 46.9 145.25 45.55 144.6 39.05 142.9 L39.05 142.8 Q39.95 141.85 42.7 141.0 L47.15 139.2 Q52.5 136.5 52.5 131.9 L52.45 130.95 Q52.0 130.6 52.15 130.25 51.55 127.15 51.35 112.05 L51.3 111.4 56.1 108.55" fill="#dd7e8f" fill-rule="evenodd" stroke="none"/>
    <path d="M54.8 78.0 Q58.2 81.5 57.8 83.9 56.05 104.25 56.75 120.1 58.55 133.45 54.0 147.95 M23.1 110.5 L39.7 118.3 56.1 108.55 M23.0 146.9 Q20.45 143.25 21.1 138.1 24.5 129.05 24.3 119.85 20.7 106.05 22.25 91.4" fill="none" stroke="#666666" stroke-linecap="round" stroke-linejoin="miter-clip" stroke-miterlimit="3.0" stroke-width="1.2000000000000002"/>
  </g>
</svg>
