<?xml version="1.0" encoding="UTF-8" standalone="no"?>
<svg xmlns:xlink="http://www.w3.org/1999/xlink" height="52.7px" width="49.8px" xmlns="http://www.w3.org/2000/svg">
  <g transform="matrix(1.0, 0.0, 0.0, 1.0, -3.45, -135.75)">
    <path d="M51.6 157.25 L51.1 158.3 51.45 157.5 51.55 157.1 51.65 157.15 51.6 157.25" fill="#000000" fill-rule="evenodd" stroke="none"/>
    <path d="M3.65 172.4 L3.65 171.25 Q3.65 167.5 5.85 162.45 L8.8 156.25 Q10.4 152.9 14.25 147.1 19.05 139.85 20.4 139.85 L21.65 138.65 22.95 136.95 Q23.45 136.45 24.25 136.3 L25.4 135.75 Q24.9 141.5 27.2 145.15 29.0 147.75 30.75 147.8 31.25 147.75 33.95 145.85 36.95 143.75 37.9 142.1 L37.9 142.4 Q38.5 144.35 39.55 144.75 42.3 145.8 44.5 147.4 47.1 149.2 47.45 151.35 47.7 152.4 47.45 153.1 47.8 153.05 47.45 154.05 47.05 154.95 47.45 155.0 47.9 154.9 47.85 155.3 L47.5 156.35 Q47.1 158.3 45.6 160.7 43.25 164.25 41.1 169.3 39.95 171.85 34.7 177.5 33.1 179.3 31.1 180.4 L29.45 181.1 Q27.5 181.25 25.75 178.0 23.9 174.55 23.45 174.65 22.75 174.65 22.4 175.75 22.15 176.3 21.8 177.95 20.8 181.15 17.75 181.35 14.35 181.55 12.85 178.3 L11.75 175.8 Q11.2 174.5 10.6 174.2 L9.55 175.15 8.45 175.5 Q7.2 175.5 5.85 174.85 L4.85 173.8 3.65 172.4" fill="#ed99ac" fill-rule="evenodd" stroke="none"/>
    <path d="M37.9 142.4 Q38.65 141.55 39.7 140.85 41.15 140.05 42.45 140.05 44.45 140.05 48.35 144.0 52.25 147.7 52.6 150.15 L52.35 153.45 51.85 157.0 51.8 157.05 51.6 157.25 51.65 157.15 51.55 157.1 51.45 157.5 Q49.4 160.3 47.05 164.95 45.1 168.65 44.0 171.45 43.55 172.55 41.9 174.7 L34.7 183.4 Q32.7 185.75 30.95 186.6 29.6 187.25 27.4 187.4 26.85 187.4 25.85 186.05 L24.7 184.65 Q23.9 184.65 22.8 185.55 21.7 186.3 19.45 186.45 16.1 186.65 13.55 184.4 10.6 181.85 9.4 181.8 5.85 181.5 4.35 178.1 3.35 176.1 3.45 173.95 L3.65 172.4 4.85 173.8 5.85 174.85 Q7.2 175.5 8.45 175.5 L9.55 175.15 10.6 174.2 Q11.2 174.5 11.75 175.8 L12.85 178.3 Q14.35 181.55 17.75 181.35 20.8 181.15 21.8 177.95 22.15 176.3 22.4 175.75 22.75 174.65 23.45 174.65 23.9 174.55 25.75 178.0 27.5 181.25 29.45 181.1 L31.1 180.4 Q33.1 179.3 34.7 177.5 39.95 171.85 41.1 169.3 43.25 164.25 45.6 160.7 47.1 158.3 47.5 156.35 L47.85 155.3 Q47.9 154.9 47.45 155.0 47.05 154.95 47.45 154.05 47.8 153.05 47.45 153.1 47.7 152.4 47.45 151.35 47.1 149.2 44.5 147.4 42.3 145.8 39.55 144.75 38.5 144.35 37.9 142.4 M52.45 151.35 L52.4 150.0 52.35 149.7 52.25 149.55 52.45 151.35" fill="#dd7e8f" fill-rule="evenodd" stroke="none"/>
    <path d="M10.8 182.0 L8.3 181.7 Q5.8 180.85 4.7 177.6 L4.4 176.7 Q4.2 174.25 4.35 172.0 4.65 159.15 11.4 151.65 17.25 142.3 24.15 136.5 M51.95 148.85 Q52.9 150.45 52.35 153.5 51.6 157.05 48.8 162.45 46.85 165.0 44.1 172.45 40.65 177.65 31.6 186.5 29.7 187.7 28.15 187.85 L26.45 187.65 M26.25 187.4 Q24.8 186.05 24.25 184.3 19.15 188.75 11.1 181.9 7.5 172.35 16.8 162.55 M24.25 184.3 Q20.55 170.25 30.2 162.55" fill="none" stroke="#666666" stroke-linecap="round" stroke-linejoin="miter-clip" stroke-miterlimit="3.0" stroke-width="1.2000000000000002"/>
  </g>
</svg>
