<?xml version="1.0" encoding="UTF-8" standalone="no"?>
<svg xmlns:xlink="http://www.w3.org/1999/xlink" height="111.0px" width="98.65px" xmlns="http://www.w3.org/2000/svg">
  <g transform="matrix(1.0, 0.0, 0.0, 1.0, 45.6, 55.5)">
    <path d="M45.0 -38.5 Q52.45 -35.85 52.45 -30.5 44.65 -10.95 20.2 -5.5 L9.45 -9.7 -1.05 -13.65 Q-4.9 -20.0 -7.9 -27.25 -13.6 -38.9 -10.75 -46.3 L-9.55 -48.7 -7.9 -50.85 -7.5 -54.8 4.75 -53.25 Q15.3 -51.75 45.0 -38.5" fill="#f5e9eb" fill-rule="evenodd" stroke="none"/>
    <path d="M3.4 -6.95 Q16.75 11.2 38.2 20.8 44.45 25.6 38.2 29.65 27.85 33.9 14.35 32.5 L17.6 49.15 Q19.95 56.65 11.8 54.35 -5.7 47.55 -18.2 36.45 -18.1 13.45 3.4 -6.95" fill="#86cef4" fill-rule="evenodd" stroke="none"/>
    <path d="M-7.5 -54.8 L-7.9 -50.85 -9.55 -48.7 -10.75 -46.3 Q-21.7 -44.85 -43.05 -19.15 L-44.25 -20.05 Q-29.2 -46.8 -17.0 -54.55 L-10.45 -54.9 -7.65 -54.8 -7.5 -54.8" fill="#f7f8fa" fill-rule="evenodd" stroke="none"/>
    <path d="M-10.75 -46.3 Q-13.6 -38.9 -7.9 -27.25 -27.15 -18.85 -36.55 13.1 -41.1 4.65 -44.0 -5.15 -45.55 -10.9 -44.75 -17.1 L-43.05 -19.15 Q-21.7 -44.85 -10.75 -46.3" fill="#ed99ac" fill-rule="evenodd" stroke="none"/>
    <path d="M-7.9 -27.25 Q-4.9 -20.0 -1.05 -13.65 1.05 -10.2 3.4 -6.95 -18.1 13.45 -18.2 36.45 -29.4 26.5 -36.55 13.1 -27.15 -18.85 -7.9 -27.25" fill="#6393cf" fill-rule="evenodd" stroke="none"/>
    <path d="M45.0 -38.5 Q15.3 -51.75 4.75 -53.25 L-7.5 -54.8 -7.65 -54.8 -10.45 -54.9 -17.0 -54.55 Q-29.2 -46.8 -44.25 -20.05 L-44.75 -17.1 Q-45.55 -10.9 -44.0 -5.15 -41.1 4.65 -36.55 13.1 -29.4 26.5 -18.2 36.45 -5.7 47.55 11.8 54.35 19.95 56.65 17.6 49.15 L14.35 32.5 Q27.85 33.9 38.2 29.65 44.45 25.6 38.2 20.8 16.75 11.2 3.4 -6.95 1.05 -10.2 -1.05 -13.65 L9.45 -9.7 M-7.9 -50.85 L-9.55 -48.7 -10.75 -46.3 Q-13.6 -38.9 -7.9 -27.25 -4.9 -20.0 -1.05 -13.65" fill="none" stroke="#666666" stroke-linecap="round" stroke-linejoin="round" stroke-width="1.2000000000000002"/>
    <path d="M9.45 -9.7 L20.2 -5.5 Q44.65 -10.95 52.45 -30.5 52.45 -35.85 45.0 -38.5 Z" fill="none" stroke="#666666" stroke-linecap="round" stroke-linejoin="miter-clip" stroke-miterlimit="3.0" stroke-width="1.2000000000000002"/>
  </g>
</svg>
