<?xml version="1.0" encoding="UTF-8" standalone="no"?>
<svg xmlns:xlink="http://www.w3.org/1999/xlink" height="83.9px" width="37.5px" xmlns="http://www.w3.org/2000/svg">
  <g transform="matrix(1.0, 0.0, 0.0, 1.0, -20.05, -70.75)">
    <path d="M28.4 118.15 Q27.4 114.6 27.3 113.15 L26.8 110.9 26.4 108.25 Q26.05 107.0 26.15 105.3 L27.55 97.4 Q29.4 88.8 30.0 81.0 38.55 83.55 42.9 80.0 47.25 76.4 50.05 70.75 L53.35 75.85 Q54.9 78.25 55.5 80.6 56.15 83.7 55.75 90.45 54.3 103.2 54.35 110.45 L38.75 123.3 28.4 118.15" fill="#f7f8fa" fill-rule="evenodd" stroke="none"/>
    <path d="M23.4 115.65 L23.2 114.35 22.6 111.7 Q22.2 109.9 22.0 106.7 L21.8 98.45 Q21.8 93.4 22.6 83.35 L23.2 81.65 23.35 81.05 24.15 79.85 27.25 79.65 Q29.55 79.5 30.0 81.0 29.4 88.8 27.55 97.4 L26.15 105.3 Q26.05 107.0 26.4 108.25 L26.8 110.9 27.3 113.15 Q27.4 114.6 28.4 118.15 L23.4 115.65" fill="#f5e9eb" fill-rule="evenodd" stroke="none"/>
    <path d="M54.35 110.45 L54.35 110.75 54.3 112.25 54.15 114.95 54.05 115.95 54.1 116.55 Q54.55 123.05 54.55 149.15 L52.85 151.3 Q50.95 153.45 50.45 154.65 48.45 152.7 47.05 150.6 L45.1 148.0 Q43.25 145.95 35.85 144.4 31.55 149.1 28.5 149.4 25.2 149.4 22.75 147.65 21.05 146.2 20.75 144.9 L24.15 139.55 25.9 136.35 28.1 129.65 29.85 123.0 28.4 118.15 38.75 123.3 54.35 110.45" fill="#ed99ac" fill-rule="evenodd" stroke="none"/>
    <path d="M23.4 115.65 L28.4 118.15 29.85 123.0 28.1 129.65 25.9 136.35 24.15 139.55 20.75 144.9 20.65 144.45 Q20.5 143.8 20.9 142.55 L21.8 139.65 22.2 137.95 22.9 136.1 Q24.4 130.05 24.6 126.5 24.75 122.95 24.15 120.4 23.55 117.85 23.4 115.65" fill="#dd7e8f" fill-rule="evenodd" stroke="none"/>
    <path d="M23.6 79.3 Q21.2 89.1 21.2 98.3 21.15 106.85 22.65 115.25 L38.75 123.3 54.35 110.45 M54.3 78.5 Q57.55 82.25 56.8 84.75 54.4 101.8 54.65 114.25 L54.85 148.35 M22.65 115.25 L23.05 117.5 Q26.8 130.75 20.65 143.15 20.45 147.05 23.0 148.5" fill="none" stroke="#666666" stroke-linecap="round" stroke-linejoin="miter-clip" stroke-miterlimit="3.0" stroke-width="1.2000000000000002"/>
  </g>
</svg>
