<?xml version="1.0" encoding="UTF-8" standalone="no"?>
<svg xmlns:xlink="http://www.w3.org/1999/xlink" height="60.75px" width="61.0px" xmlns="http://www.w3.org/2000/svg">
  <g transform="matrix(1.0, 0.0, 0.0, 1.0, -0.25, -135.5)">
    <path d="M25.95 142.95 Q27.55 146.0 29.65 147.25 31.15 148.15 32.3 147.9 34.75 147.9 39.8 143.55 39.8 142.65 40.65 141.9 42.05 140.65 45.1 140.65 49.55 140.65 59.4 150.0 L59.45 150.25 59.3 150.25 59.45 150.35 59.55 150.55 Q60.05 151.7 60.35 157.9 L60.15 158.75 58.0 162.9 56.3 165.75 56.2 165.7 55.5 165.65 54.95 166.05 Q41.9 185.9 37.3 186.1 33.05 186.1 30.95 184.25 L30.95 184.3 Q30.2 183.6 29.55 182.35 L29.25 182.0 28.8 181.85 28.55 181.8 27.95 181.85 27.85 181.4 27.85 181.35 27.55 180.0 27.4 179.6 26.6 178.6 26.1 178.3 25.5 178.35 Q25.2 178.5 25.05 178.8 L23.8 181.0 Q22.25 182.95 20.15 183.0 16.55 183.0 14.55 180.6 13.3 178.95 12.3 175.5 L12.0 175.05 Q11.8 174.85 11.55 174.8 L11.0 174.85 10.7 174.95 Q10.35 175.0 10.15 175.3 10.0 175.45 10.0 175.65 L9.95 175.85 9.9 176.2 9.7 176.25 9.55 176.3 9.5 176.05 Q8.25 175.5 7.2 176.3 L7.1 176.35 Q6.2 175.3 5.2 174.9 L5.1 174.65 4.45 173.6 4.35 173.5 Q4.1 173.05 4.1 172.4 4.2 164.9 16.35 149.3 L16.75 148.75 17.05 148.55 Q20.8 144.65 25.95 142.95" fill="#ef8410" fill-rule="evenodd" stroke="none"/>
    <path d="M4.35 173.5 L4.45 173.6 5.1 174.65 5.2 174.9 Q6.2 175.3 7.1 176.35 L7.2 176.3 Q8.25 175.5 9.5 176.05 L9.55 176.3 9.9 177.7 9.9 176.2 9.95 175.85 10.0 175.65 Q10.0 175.45 10.15 175.3 10.35 175.0 10.7 174.95 L11.0 174.85 11.55 174.8 Q11.8 174.85 12.0 175.05 L12.3 175.5 Q13.3 178.95 14.55 180.6 16.55 183.0 20.15 183.0 22.25 182.95 23.8 181.0 L25.05 178.8 Q25.2 178.5 25.5 178.35 L26.1 178.3 26.6 178.6 27.4 179.6 27.55 180.0 27.85 181.35 27.85 181.4 27.95 181.85 27.9 181.9 27.55 182.15 27.4 182.35 27.35 183.05 Q28.05 185.8 28.9 187.95 L29.0 188.2 29.0 189.05 28.9 189.45 28.4 189.75 26.65 190.05 21.45 189.9 Q17.65 189.45 13.75 187.1 L13.8 187.1 Q12.4 185.6 11.55 183.95 L11.4 183.65 11.15 183.9 Q9.05 185.9 6.0 183.95 3.45 182.3 2.4 179.6 L2.35 179.35 2.8 179.8 2.8 179.7 3.1 178.6 3.35 176.1 3.3 175.55 2.8 174.75 Q2.55 174.45 2.6 174.1 L2.9 173.5 3.2 173.25 3.5 173.2 4.15 173.35 4.35 173.5 M11.0 184.3 L11.0 184.35 10.95 184.35 11.0 184.3" fill="#ca700f" fill-rule="evenodd" stroke="none"/>
    <path d="M27.95 181.85 L28.55 181.8 28.8 181.85 29.25 182.0 29.55 182.35 Q30.2 183.6 30.95 184.3 L30.95 184.25 Q33.05 186.1 37.3 186.1 41.9 185.9 54.95 166.05 L55.5 165.65 56.2 165.7 56.3 165.75 56.7 166.2 56.7 166.9 55.75 169.85 55.6 169.8 Q55.4 169.8 55.05 170.2 54.6 170.65 54.6 171.15 L54.25 172.35 Q53.95 172.9 53.95 173.65 L49.2 181.05 Q44.95 187.35 42.05 190.15 39.1 192.95 33.3 193.25 31.0 193.45 29.0 188.2 L28.9 187.95 Q28.05 185.8 27.35 183.05 L27.4 182.35 27.55 182.15 27.9 181.9 27.95 181.85" fill="#cb7110" fill-rule="evenodd" stroke="none"/>
    <path d="M25.95 142.95 Q20.8 144.65 17.05 148.55 L16.75 148.75 16.35 149.3 Q4.2 164.9 4.1 172.4 4.1 173.05 4.35 173.5 L4.15 173.35 3.5 173.2 3.2 173.25 2.9 173.5 2.6 174.1 Q2.55 174.45 2.8 174.75 L3.3 175.55 3.35 176.1 3.1 178.6 2.8 179.7 2.8 179.8 2.35 179.35 1.3 176.7 Q0.95 175.45 0.95 173.65 0.95 166.95 1.9 164.35 L1.9 164.4 6.45 155.3 Q8.1 152.1 12.25 146.4 L12.25 146.35 Q16.95 139.95 19.0 139.35 L20.7 137.75 20.75 137.75 Q23.35 135.6 25.15 136.25 L25.75 136.75 Q25.9 137.05 26.0 136.55 30.85 136.85 35.95 138.7 36.5 139.15 36.65 139.9 37.25 142.2 34.4 141.9 L28.25 142.25 25.95 142.95" fill="#cc6f0f" fill-rule="evenodd" stroke="none"/>
    <path d="M26.9 136.1 Q22.0 135.8 18.1 139.75 7.55 152.35 1.95 165.0 -0.2 172.95 1.8 178.7 6.9 186.4 11.3 183.55 7.05 171.4 17.6 162.05 M11.3 183.55 Q18.65 192.9 29.55 189.0 27.15 184.1 26.7 174.65 28.85 166.5 34.0 162.95 M58.15 149.55 Q62.0 152.6 59.95 159.8 55.2 168.35 52.85 175.4 45.55 187.15 39.95 191.1 34.35 195.05 30.85 191.0 L29.55 189.0" fill="none" stroke="#4d2b06" stroke-linecap="round" stroke-linejoin="miter-clip" stroke-miterlimit="3.0" stroke-width="1.2000000000000002"/>
    <path d="M8.9 185.8 L7.55 184.95 6.75 184.0 6.15 183.3 5.55 182.0 5.05 180.3 4.8 178.45 4.75 177.5 4.7 176.45 4.65 175.4 Q4.6 174.3 4.7 173.45 L4.8 172.95 Q6.1 172.5 7.45 173.2 L7.3 174.05 7.1 176.0 7.05 177.1 6.95 178.75 7.05 180.15 7.35 182.1 7.6 183.1 8.3 184.7 8.9 185.8 M18.85 179.25 L18.5 182.15 Q18.5 185.05 19.75 189.25 21.0 193.4 22.15 194.55 20.05 193.95 18.35 191.9 15.45 188.45 15.45 182.3 15.45 180.45 17.25 178.8 L18.85 179.25 M36.6 196.25 Q34.9 195.65 33.15 193.3 30.65 189.9 30.65 185.1 30.65 179.15 32.15 179.15 33.1 179.15 34.7 179.9 L33.85 184.6 33.55 187.95 Q33.55 190.2 34.65 192.85 35.55 194.95 36.6 196.25" fill="#333333" fill-rule="evenodd" stroke="none"/>
    <path d="M7.45 173.2 L7.95 174.1 8.45 175.15 8.6 175.45 8.6 175.6 Q8.1 177.75 8.55 179.9 L9.0 182.1 9.15 182.5 9.45 183.05 9.45 183.45 Q9.45 184.8 8.9 185.8 L8.3 184.7 7.6 183.1 7.35 182.1 7.05 180.15 6.95 178.75 7.05 177.1 7.1 176.0 7.3 174.05 7.45 173.2 M22.15 194.55 Q21.0 193.4 19.75 189.25 18.5 185.05 18.5 182.15 L18.85 179.25 Q20.25 180.75 21.6 186.85 L22.65 192.8 Q22.65 194.25 22.15 194.55 M36.6 196.25 Q35.55 194.95 34.65 192.85 33.55 190.2 33.55 187.95 L33.85 184.6 34.7 179.9 35.45 181.35 Q36.0 182.85 36.0 184.25 36.05 188.75 36.8 192.05 L37.5 195.35 Q37.5 196.4 36.6 196.25" fill="#666666" fill-rule="evenodd" stroke="none"/>
  </g>
</svg>
