<?xml version="1.0" encoding="UTF-8" standalone="no"?>
<svg xmlns:xlink="http://www.w3.org/1999/xlink" height="57.1px" width="50.85px" xmlns="http://www.w3.org/2000/svg">
  <g transform="matrix(1.0, 0.0, 0.0, 1.0, -1.8, -135.35)">
    <path d="M24.15 145.45 Q25.15 149.35 26.9 150.95 28.0 151.95 29.1 151.7 31.25 151.6 36.7 146.2 36.9 145.0 37.95 144.1 39.55 142.3 42.35 142.35 46.5 142.35 52.2 154.15 L52.05 154.45 52.0 154.45 52.1 154.55 52.1 154.7 Q52.1 155.9 50.35 162.8 L49.95 163.6 46.95 167.8 44.8 170.5 44.75 170.45 44.25 170.4 43.7 170.8 Q30.55 186.85 27.45 187.05 24.5 187.0 23.25 185.7 22.8 185.2 22.55 184.35 L22.35 184.1 22.1 183.95 21.9 183.95 21.85 183.95 21.45 184.0 21.4 183.65 21.4 182.55 21.3 182.3 20.85 181.5 20.45 181.3 Q20.2 181.15 20.05 181.3 19.8 181.35 19.7 181.65 L18.65 183.3 Q17.4 184.8 16.0 184.85 13.5 184.85 12.25 183.1 11.35 181.8 10.75 179.1 L10.55 178.7 10.2 178.5 9.8 178.55 9.6 178.6 Q9.35 178.7 9.25 178.95 9.1 179.0 9.1 179.2 L9.05 179.35 9.1 179.65 8.9 179.7 8.8 179.7 8.75 179.55 Q7.8 179.05 7.1 179.75 L7.05 179.8 Q6.35 178.85 5.65 178.55 L5.6 178.4 5.1 177.55 5.05 177.45 Q4.8 177.0 4.8 176.55 4.65 169.8 15.0 153.4 L14.95 153.4 15.4 152.8 15.65 152.55 Q19.25 147.7 24.15 145.45" fill="#1e7fae" fill-rule="evenodd" stroke="none"/>
    <path d="M44.8 170.5 L45.0 170.85 44.85 171.5 42.25 176.35 39.3 180.6 31.1 189.3 Q27.9 191.9 23.95 191.95 22.45 192.05 21.6 188.55 L21.6 189.1 21.45 189.4 21.25 189.65 20.1 190.25 17.45 190.65 Q13.95 190.7 11.5 187.8 10.6 186.7 10.05 185.6 L10.0 185.35 9.8 185.6 Q8.35 186.95 6.3 185.65 4.5 184.35 3.75 182.35 L3.7 182.15 Q3.05 180.8 2.9 180.1 L2.85 180.1 Q2.55 179.1 2.6 177.6 2.25 171.7 2.95 169.4 2.95 168.85 6.45 160.2 7.75 156.6 11.5 149.9 16.05 141.35 18.2 140.7 L19.9 138.45 19.9 138.35 Q22.7 135.2 24.35 136.2 24.7 136.35 24.85 136.85 L24.85 138.0 Q29.75 137.0 34.3 139.7 34.7 140.2 34.7 141.35 34.7 144.4 32.15 144.1 29.35 143.6 26.45 144.55 25.2 144.85 24.15 145.45 19.25 147.7 15.65 152.55 L15.4 152.8 14.95 153.4 15.0 153.4 Q4.65 169.8 4.8 176.55 4.8 177.0 5.05 177.45 L5.1 177.55 5.6 178.4 5.65 178.55 Q6.35 178.85 7.05 179.8 L7.1 179.75 Q7.8 179.05 8.75 179.55 L8.8 179.7 9.1 180.8 9.1 179.65 9.05 179.35 9.1 179.2 Q9.1 179.0 9.25 178.95 9.35 178.7 9.6 178.6 L9.8 178.55 10.2 178.5 10.55 178.7 10.75 179.1 Q11.35 181.8 12.25 183.1 13.5 184.85 16.0 184.85 17.4 184.8 18.65 183.3 L19.7 181.65 Q19.8 181.35 20.05 181.3 20.2 181.15 20.45 181.3 L20.85 181.5 21.3 182.3 21.4 182.55 21.4 183.65 21.45 184.0 21.85 183.95 21.9 183.95 22.1 183.95 22.35 184.1 22.55 184.35 Q22.8 185.2 23.25 185.7 24.5 187.0 27.45 187.05 30.55 186.85 43.7 170.8 L44.25 170.4 44.75 170.45 44.8 170.5" fill="#2e6088" fill-rule="evenodd" stroke="none"/>
    <path d="M26.15 136.0 Q21.3 135.45 17.25 141.2 7.25 156.95 3.0 170.0 2.25 173.75 2.45 176.8 2.5 179.4 3.3 181.65 6.9 187.3 9.9 185.35 6.9 175.7 15.3 167.15 M9.9 185.35 L9.95 185.35 Q14.45 191.7 21.95 189.05 20.7 185.6 21.25 178.35 23.55 171.25 28.15 167.95 M51.25 153.55 Q52.7 155.75 51.5 159.95 L49.4 164.75 Q43.35 172.85 40.0 178.9 32.85 187.7 28.55 190.45 26.5 191.7 25.05 191.85 23.55 191.75 22.55 190.45 L21.95 189.05" fill="none" stroke="#4a4f58" stroke-linecap="round" stroke-linejoin="miter-clip" stroke-miterlimit="3.0" stroke-width="1.2000000000000002"/>
  </g>
</svg>
