<?xml version="1.0" encoding="UTF-8" standalone="no"?>
<svg xmlns:xlink="http://www.w3.org/1999/xlink" height="54.4px" width="48.8px" xmlns="http://www.w3.org/2000/svg">
  <g transform="matrix(1.0, 0.0, 0.0, 1.0, -4.9, -135.5)">
    <path d="M24.45 143.95 Q25.95 147.9 28.95 149.1 31.45 148.8 34.75 144.55 38.15 140.0 41.25 139.75 42.7 139.6 47.8 143.4 52.95 147.4 52.65 149.55 L52.65 152.35 52.25 157.8 51.05 160.0 47.45 165.85 46.85 165.75 36.6 178.9 Q32.6 183.9 30.65 183.9 29.35 183.9 27.8 183.25 L26.2 182.55 24.1 180.25 23.85 178.95 Q23.65 178.05 23.05 177.7 22.55 177.8 21.4 179.85 20.35 181.5 18.45 181.6 16.45 181.5 14.6 178.35 L12.85 175.0 Q12.1 175.0 11.75 176.25 L11.45 176.25 11.45 176.15 10.75 176.2 9.8 176.35 Q8.5 176.35 7.75 173.15 7.55 169.0 11.25 160.55 16.45 148.35 24.45 143.95" fill="#ed99ac" fill-rule="evenodd" stroke="none"/>
    <path d="M47.45 165.85 Q47.3 167.35 45.6 171.3 43.6 175.7 41.15 179.6 34.35 189.45 27.25 189.4 26.6 189.4 25.8 188.45 24.7 187.3 24.7 185.55 L24.65 186.25 23.0 187.45 20.85 188.0 17.2 187.15 Q14.3 186.1 14.3 184.75 L12.8 182.1 Q12.1 182.75 11.05 183.1 8.8 183.1 7.15 180.1 5.7 177.25 5.65 174.25 5.35 167.45 6.75 163.8 8.75 159.5 10.2 155.2 12.85 147.1 17.75 141.3 19.3 139.2 20.65 138.1 L21.8 137.4 22.2 136.9 Q22.8 136.45 23.45 136.35 L24.4 136.35 Q24.65 136.5 24.6 137.35 24.55 137.65 29.4 137.35 34.05 137.4 33.8 140.25 L33.6 141.35 33.35 141.85 Q26.2 143.1 24.45 143.95 16.45 148.35 11.25 160.55 7.55 169.0 7.75 173.15 8.5 176.35 9.8 176.35 L10.75 176.2 11.45 176.15 11.45 176.25 11.75 177.45 11.75 176.25 Q12.1 175.0 12.85 175.0 L14.6 178.35 Q16.45 181.5 18.45 181.6 20.35 181.5 21.4 179.85 22.55 177.8 23.05 177.7 23.65 178.05 23.85 178.95 L24.1 180.25 26.2 182.55 27.8 183.25 Q29.35 183.9 30.65 183.9 32.6 183.9 36.6 178.9 L46.85 165.75 47.45 165.85" fill="#dd7e8f" fill-rule="evenodd" stroke="none"/>
    <path d="M25.65 136.1 Q21.4 136.15 18.05 141.05 9.7 154.9 6.05 166.9 5.35 170.45 5.55 173.4 5.6 176.05 6.3 178.35 9.75 184.15 12.65 182.05 9.65 172.25 17.3 163.8 M12.65 182.05 L12.7 182.05 Q17.45 189.0 25.0 186.15 23.5 182.3 23.6 174.65 25.45 167.35 29.7 163.9 M51.7 148.9 Q53.6 150.85 52.95 154.95 L51.5 159.75 Q46.15 168.3 43.4 174.9 36.5 184.65 32.2 187.85 30.05 189.2 28.55 189.3 26.95 189.2 25.85 187.65 L25.0 186.15" fill="none" stroke="#666666" stroke-linecap="round" stroke-linejoin="miter-clip" stroke-miterlimit="3.0" stroke-width="1.2000000000000002"/>
  </g>
</svg>
