<?xml version="1.0" encoding="UTF-8" standalone="no"?>
<svg xmlns:xlink="http://www.w3.org/1999/xlink" height="123.35px" width="184.9px" xmlns="http://www.w3.org/2000/svg">
  <g transform="matrix(1.0, 0.0, 0.0, 1.0, 4.05, 31.1)">
    <path d="M98.75 91.65 Q97.6 79.6 94.2 70.5 91.75 63.9 88.1 58.95 82.85 51.7 75.15 47.75 71.6 40.1 76.05 30.45 68.8 32.15 69.5 43.85 64.1 31.25 55.85 28.65 51.5 31.9 50.95 42.9 52.85 57.85 58.3 72.0 45.8 60.0 42.3 37.95 35.95 31.65 39.15 24.3 L30.3 23.15 Q19.2 31.1 5.85 31.85 -0.6 30.5 -3.45 26.35 11.3 20.15 18.6 3.5 21.75 1.0 20.65 -3.1 14.2 -0.1 9.3 6.35 15.4 -7.45 31.3 -14.25 L34.9 -14.7 36.05 -15.4 Q38.85 -16.25 43.0 -18.1 48.5 -9.15 77.15 -2.0 73.2 0.5 76.65 4.05 83.3 2.15 88.1 0.15 91.65 -1.3 94.2 -2.85 97.6 -4.9 99.1 -7.05 104.8 5.3 114.25 4.8 121.35 7.5 115.4 -0.85 123.1 4.45 116.15 -4.65 125.75 -3.7 117.1 -9.3 123.55 -11.4 131.6 -7.85 127.3 -13.85 134.6 -14.65 144.2 -8.4 145.75 -0.95 154.1 7.85 169.25 9.65 175.65 15.05 173.0 32.25 163.05 26.1 159.65 26.3 162.55 29.8 161.4 33.9 156.4 35.35 150.55 26.95 154.9 34.65 151.05 44.95 143.4 37.55 138.1 24.95 129.4 32.8 128.05 40.8 L125.6 35.75 Q117.85 37.2 114.7 43.6 111.35 51.15 108.3 59.35 L107.9 60.45 107.45 61.75 Q102.7 75.4 98.75 91.65 M88.1 58.95 L88.1 0.15 88.1 58.95 M114.7 43.6 Q119.6 31.1 118.5 23.2 119.6 31.1 114.7 43.6 M108.3 59.35 Q114.9 40.05 114.3 22.05 114.9 40.05 108.3 59.35" fill="#ffff9d" fill-rule="evenodd" stroke="none"/>
    <path d="M31.3 -14.25 L29.65 -14.3 29.6 -14.35 Q25.75 -14.85 23.45 -18.15 37.05 -27.95 46.85 -29.15 L88.1 -31.1 94.2 -31.1 Q122.45 -30.9 143.75 -26.85 163.75 -14.95 168.7 -2.6 172.15 3.15 179.75 3.85 177.45 9.0 173.7 9.95 181.05 23.55 180.15 39.7 178.3 36.25 176.65 34.2 L176.5 34.15 Q176.05 43.35 171.55 50.1 169.6 40.65 163.45 36.95 165.0 45.45 162.15 52.3 159.25 48.8 158.35 44.9 152.9 67.8 142.85 75.05 143.75 51.1 136.85 37.1 125.0 62.8 109.9 77.65 103.25 87.95 98.75 91.65 102.7 75.4 107.45 61.75 L107.9 60.45 108.3 59.35 Q111.35 51.15 114.7 43.6 117.85 37.2 125.6 35.75 L128.05 40.8 Q129.4 32.8 138.1 24.95 143.4 37.55 151.05 44.95 154.9 34.65 150.55 26.95 156.4 35.35 161.4 33.9 162.55 29.8 159.65 26.3 163.05 26.1 173.0 32.25 175.65 15.05 169.25 9.65 154.1 7.85 145.75 -0.95 144.2 -8.4 134.6 -14.65 127.3 -13.85 131.6 -7.85 123.55 -11.4 117.1 -9.3 125.75 -3.7 116.15 -4.65 123.1 4.45 115.4 -0.85 121.35 7.5 114.25 4.8 104.8 5.3 99.1 -7.05 97.6 -4.9 94.2 -2.85 91.65 -1.3 88.1 0.15 83.3 2.15 76.65 4.05 73.2 0.5 77.15 -2.0 48.5 -9.15 43.0 -18.1 38.85 -16.25 36.05 -15.4 L34.9 -14.7 31.3 -14.25 M75.15 47.75 Q72.6 52.2 79.25 70.85 64.1 60.3 59.95 38.5 54.65 45.15 58.3 72.0 52.85 57.85 50.95 42.9 51.5 31.9 55.85 28.65 64.1 31.25 69.5 43.85 68.8 32.15 76.05 30.45 71.6 40.1 75.15 47.75 M42.3 37.95 Q38.5 47.2 35.45 47.4 33.0 39.95 36.9 36.05 26.45 40.9 16.2 56.15 12.35 39.2 22.05 31.05 4.5 42.0 -3.45 26.35 -0.6 30.5 5.85 31.85 19.2 31.1 30.3 23.15 L39.15 24.3 Q35.95 31.65 42.3 37.95 M18.6 3.5 Q16.35 6.75 9.3 6.35 14.2 -0.1 20.65 -3.1 21.75 1.0 18.6 3.5 M88.1 -31.1 L88.1 0.15 88.1 -31.1 M173.7 9.95 L169.25 9.65 173.7 9.95 M158.05 40.45 Q158.0 42.7 158.35 44.9 158.0 42.7 158.05 40.45 M176.5 34.15 Q174.55 32.0 173.0 32.25 174.55 32.0 176.5 34.15 M127.55 47.0 Q117.35 65.55 109.9 77.65 117.35 65.55 127.55 47.0 M22.05 31.05 L26.9 27.5 22.05 31.05" fill="#d1d16b" fill-rule="evenodd" stroke="none"/>
    <path d="M31.3 -14.25 L29.65 -14.3 29.6 -14.35 Q25.75 -14.85 23.45 -18.15 37.05 -27.95 46.85 -29.15 M143.75 -26.85 Q163.75 -14.95 168.7 -2.6 172.15 3.15 179.75 3.85 177.45 9.0 173.7 9.95 181.05 23.55 180.15 39.7 178.3 36.25 176.65 34.2 L176.5 34.15 Q176.05 43.35 171.55 50.1 169.6 40.65 163.45 36.95 165.0 45.45 162.15 52.3 159.25 48.8 158.35 44.9 152.9 67.8 142.85 75.05 143.75 51.1 136.85 37.1 125.0 62.8 109.9 77.65 103.25 87.95 98.75 91.65 97.6 79.6 94.2 70.5 91.75 63.9 88.1 58.95 82.85 51.7 75.15 47.75 72.6 52.2 79.25 70.85 64.1 60.3 59.95 38.5 54.65 45.15 58.3 72.0 45.8 60.0 42.3 37.95 38.5 47.2 35.45 47.4 33.0 39.95 36.9 36.05 26.45 40.9 16.2 56.15 12.35 39.2 22.05 31.05 4.5 42.0 -3.45 26.35 11.3 20.15 18.6 3.5 16.35 6.75 9.3 6.35 15.4 -7.45 31.3 -14.25 M117.1 -9.3 Q125.75 -3.7 116.15 -4.65 123.1 4.45 115.4 -0.85 121.35 7.5 114.25 4.8 M134.6 -14.65 Q144.2 -8.4 145.75 -0.95 M169.25 9.65 L173.7 9.95 M173.0 32.25 Q174.55 32.0 176.5 34.15 M158.35 44.9 Q158.0 42.7 158.05 40.45 M108.3 59.35 L107.9 60.45 107.45 61.75 M118.5 23.2 Q119.6 31.1 114.7 43.6 M109.9 77.65 Q117.35 65.55 127.55 47.0 M114.3 22.05 Q114.9 40.05 108.3 59.35 M26.9 27.5 L22.05 31.05" fill="none" stroke="#4d2b06" stroke-linecap="round" stroke-linejoin="round" stroke-width="1.2000000000000002"/>
  </g>
</svg>
