<?xml version="1.0" encoding="UTF-8" standalone="no"?>
<svg xmlns:xlink="http://www.w3.org/1999/xlink" height="152.2px" width="172.2px" xmlns="http://www.w3.org/2000/svg">
  <g transform="matrix(1.0, 0.0, 0.0, 1.0, 107.1, 104.75)">
    <path d="M64.5 10.15 L58.55 46.85 15.55 30.65 Q-29.0 14.65 -37.05 9.3 -41.45 6.35 -44.45 1.75 L-51.5 -9.7 -90.35 -69.9 Q-106.4 -94.65 -106.45 -99.4 -106.5 -104.15 -100.95 -104.15 -97.5 -104.15 -74.65 -97.25 -33.3 -84.85 -11.95 -78.8 L-12.4 -79.75 -13.4 -80.75 -7.3 -76.35 -9.2 -81.9 -2.7 -74.8 -0.5 -71.95 64.5 10.15 M48.25 13.75 L-10.6 -63.6 -13.15 -66.1 Q-12.4 -64.35 -12.15 -63.1 L-12.15 -63.05 -32.5 -70.8 Q-38.1 -72.85 -59.65 -81.65 -79.25 -89.35 -83.5 -89.35 -85.35 -89.35 -86.45 -87.95 -87.25 -86.95 -87.25 -86.2 L-87.1 -83.25 Q-86.45 -83.4 -85.9 -82.25 L-65.8 -51.45 Q-53.9 -34.0 -45.4 -20.85 -42.1 -15.95 -38.1 -13.4 L-36.9 -12.65 -41.05 -13.25 Q-20.3 -2.05 7.15 10.9 25.9 20.25 37.05 23.95 L48.25 13.75" fill="#d6eefb" fill-rule="evenodd" stroke="none"/>
    <path d="M48.25 13.75 L37.05 23.95 Q25.9 20.25 7.15 10.9 -20.3 -2.05 -41.05 -13.25 L-36.9 -12.65 -38.1 -13.4 Q-42.1 -15.95 -45.4 -20.85 -53.9 -34.0 -65.8 -51.45 L-85.9 -82.25 Q-86.45 -83.4 -87.1 -83.25 L-87.25 -86.2 Q-87.25 -86.95 -86.45 -87.95 -85.35 -89.35 -83.5 -89.35 -79.25 -89.35 -59.65 -81.65 -38.1 -72.85 -32.5 -70.8 L-12.15 -63.05 -12.15 -63.1 Q-12.4 -64.35 -13.15 -66.1 L-10.6 -63.6 48.25 13.75" fill="#51b6e7" fill-rule="evenodd" stroke="none"/>
    <path d="M-39.35 8.45 L-78.75 -52.6 -86.05 -64.3 Q-91.4 -71.15 -95.9 -80.05 -101.75 -87.3 -104.05 -92.7 -106.35 -98.1 -106.35 -98.65 -106.35 -102.3 -105.85 -102.75 -104.9 -102.75 -104.05 -103.3 L-102.9 -103.95 -103.35 -101.6 Q-103.35 -96.35 -72.55 -49.85 -43.65 -6.2 -34.25 5.15 L-34.05 5.35 -36.1 5.05 -36.4 4.95 Q-24.65 12.05 -11.7 16.1 5.75 22.8 21.65 28.0 27.7 29.95 28.8 31.95 L29.25 33.45 Q29.4 34.25 29.85 34.7 31.5 38.45 -39.35 8.45" fill="#a4c9de" fill-rule="evenodd" stroke="none"/>
    <path d="M37.0 9.45 Q37.0 5.55 31.1 -3.65 23.25 -16.0 9.45 -28.1 5.0 -32.0 1.35 -35.9 L-3.5 -41.15 Q-8.0 -45.7 -17.2 -49.95 -23.6 -52.9 -56.9 -66.1 -82.65 -77.25 -86.35 -83.7 L-87.25 -84.45 Q-87.8 -85.2 -87.8 -86.0 -87.8 -88.15 -85.9 -88.4 L-85.85 -88.45 Q-84.7 -89.15 -83.65 -89.15 -79.2 -89.15 -45.75 -76.25 L-13.05 -63.4 Q-12.45 -63.4 -12.35 -63.8 L-12.2 -64.5 Q-11.1 -64.35 -10.4 -63.3 L-8.95 -61.8 Q-8.25 -61.35 1.6 -50.25 11.4 -39.2 27.25 -17.9 L44.6 5.65 Q46.9 9.1 47.65 11.4 48.45 12.1 48.45 13.75 48.45 15.45 47.8 17.05 L46.75 18.7 45.4 21.05 Q42.65 25.25 39.3 25.25 32.7 25.25 19.0 18.55 8.9 13.55 3.15 9.55 L-3.2 6.0 Q8.75 10.9 18.3 12.5 L31.15 14.05 34.9 13.6 Q37.0 12.65 37.0 9.45" fill="#4392b9" fill-rule="evenodd" stroke="none"/>
    <path d="M64.5 10.2 L-0.5 -71.95 -2.7 -74.8 -9.2 -81.9 -7.3 -76.35 -13.4 -80.75 -12.4 -79.75 -11.9 -78.8 Q-33.95 -85.0 -74.65 -97.25 -97.55 -104.15 -100.95 -104.15 -106.5 -104.15 -106.5 -99.85 -106.5 -95.15 -95.3 -77.5 L-62.2 -26.4 Q-41.25 6.35 -39.95 7.9 L-39.65 8.35 -43.25 7.85 Q-39.65 9.5 15.55 30.65 L58.5 46.85 M48.8 12.85 Q31.4 -14.35 19.0 -29.65 6.6 -44.95 -13.15 -66.1 -12.4 -64.35 -12.15 -63.1 L-12.15 -63.05 -32.5 -70.8 Q-38.1 -72.85 -59.65 -81.65 -79.25 -89.35 -83.5 -89.35 -85.35 -89.35 -86.45 -87.95 -87.25 -86.95 -87.25 -86.2 -87.25 -84.9 -86.35 -83.1 M-86.1 -82.65 L-65.8 -51.45 Q-52.85 -32.4 -45.0 -20.15 -43.05 -17.35 -41.6 -16.05 L-37.0 -12.65 -36.9 -12.6 -41.05 -13.25 Q-37.25 -10.55 -1.3 7.65 34.6 25.8 37.55 25.05" fill="none" stroke="#4a4f58" stroke-linecap="round" stroke-linejoin="miter-clip" stroke-miterlimit="3.0" stroke-width="1.2000000000000002"/>
  </g>
</svg>
