<?xml version="1.0" encoding="UTF-8" standalone="no"?>
<svg xmlns:xlink="http://www.w3.org/1999/xlink" height="225.45px" width="91.1px" xmlns="http://www.w3.org/2000/svg">
  <g transform="matrix(1.0, 0.0, 0.0, 1.0, 11.9, 186.8)">
    <path d="M70.25 -41.8 Q69.15 -8.95 68.0 -1.2 67.15 0.75 66.8 3.95 66.35 3.8 66.2 4.4 L64.7 4.75 Q57.5 6.55 47.9 6.55 L39.8 6.05 36.6 6.0 31.0 5.05 Q27.7 2.55 24.3 -1.05 L26.2 0.45 25.45 -0.6 26.25 -0.45 Q12.8 -18.25 4.35 -36.95 -3.45 -54.15 -7.55 -73.0 -9.3 -81.2 -10.4 -89.75 L1.5 -76.55 5.15 -73.0 20.45 -59.2 Q21.1 -51.25 24.8 -38.15 30.35 -18.45 39.95 -0.95 40.6 1.65 41.0 2.65 42.0 5.05 43.3 5.05 46.2 5.05 47.9 -6.55 49.5 -17.2 49.5 -32.95 L49.05 -46.75 70.25 -41.8" fill="#dd7e8f" fill-rule="evenodd" stroke="none"/>
    <path d="M22.05 -98.55 Q27.75 -86.1 31.6 -73.0 35.55 -59.35 37.45 -44.95 38.75 -34.45 39.25 -21.7 L39.95 -0.95 Q30.35 -18.45 24.8 -38.15 21.1 -51.25 20.45 -59.2 L20.35 -59.7 Q19.55 -66.25 19.5 -73.0 L19.6 -79.85 Q20.1 -89.9 22.05 -98.55" fill="#5d7caf" fill-rule="evenodd" stroke="none"/>
    <path d="M4.9 -172.45 Q8.2 -166.8 15.15 -156.8 25.8 -140.95 35.1 -129.35 42.5 -120.2 48.8 -114.25 L62.45 -101.3 63.45 -98.4 63.1 -97.45 Q64.85 -88.7 66.15 -79.85 L67.2 -73.0 Q68.7 -62.45 69.7 -51.75 70.3 -46.8 70.25 -41.8 L49.05 -46.75 Q46.55 -63.55 43.65 -73.0 L43.1 -74.65 Q37.65 -90.6 24.95 -107.35 L24.55 -107.15 Q24.25 -106.8 23.8 -105.1 L23.5 -104.25 22.05 -98.55 Q20.1 -89.9 19.6 -79.85 L19.5 -73.0 Q19.55 -66.25 20.35 -59.7 L20.45 -59.2 5.15 -73.0 1.5 -76.55 -10.4 -89.75 -10.7 -91.05 Q-12.15 -105.8 -10.75 -124.25 L-10.3 -130.2 -8.5 -136.95 -6.7 -144.65 -5.85 -144.75 -4.4 -144.45 -1.0 -136.4 -1.05 -142.95 -1.4 -144.7 Q-0.75 -150.7 1.5 -159.4 3.65 -168.7 4.9 -172.45 M66.2 4.4 L66.1 5.3 Q66.1 6.0 67.9 9.1 L68.05 9.55 67.8 9.6 Q70.15 19.15 70.15 25.75 70.15 29.95 64.9 33.85 59.4 37.95 52.85 37.95 48.4 37.95 36.3 31.05 24.15 24.15 21.7 24.15 13.05 26.0 8.95 26.0 6.3 26.0 3.4 24.95 1.4 24.2 -2.2 22.25 -1.1 17.8 3.45 14.7 6.8 12.35 13.85 9.85 7.55 9.0 1.5 5.4 -5.55 1.3 -11.3 -6.0 -9.75 -7.35 -5.0 -8.9 -0.4 -10.35 1.75 -10.35 L5.05 -10.15 Q5.05 -9.9 7.55 -8.85 L10.05 -7.9 24.3 -1.05 Q27.7 2.55 31.0 5.05 L36.6 6.0 39.8 6.05 47.9 6.55 Q57.5 6.55 64.7 4.75 L66.2 4.4" fill="#ed99ac" fill-rule="evenodd" stroke="none"/>
    <path d="M4.9 -172.45 L7.4 -178.65 10.4 -184.6 10.45 -184.55 Q10.2 -184.85 11.1 -185.75 12.75 -187.3 16.25 -186.5 19.15 -185.85 19.8 -184.85 L24.85 -178.35 Q32.9 -164.4 40.55 -150.1 47.4 -137.3 53.2 -124.05 L61.85 -103.8 62.45 -101.3 48.8 -114.25 Q42.5 -120.2 35.1 -129.35 25.8 -140.95 15.15 -156.8 8.2 -166.8 4.9 -172.45" fill="#f7bec4" fill-rule="evenodd" stroke="none"/>
    <path d="M22.05 -98.55 L23.5 -104.25 23.8 -105.1 Q24.25 -106.8 24.55 -107.15 L24.95 -107.35 Q37.65 -90.6 43.1 -74.65 L43.65 -73.0 Q46.55 -63.55 49.05 -46.75 L49.5 -32.95 Q49.5 -17.2 47.9 -6.55 46.2 5.05 43.3 5.05 42.0 5.05 41.0 2.65 40.6 1.65 39.95 -0.95 L39.25 -21.7 Q38.75 -34.45 37.45 -44.95 35.55 -59.35 31.6 -73.0 27.75 -86.1 22.05 -98.55" fill="#486491" fill-rule="evenodd" stroke="none"/>
    <path d="M66.3 4.15 Q67.2 3.6 68.7 3.6 71.6 3.6 73.4 5.65 L75.55 6.95 Q77.0 8.1 77.55 9.25 78.85 12.05 79.1 14.05 L79.2 18.5 78.95 24.0 Q78.5 26.3 76.25 30.1 75.4 31.45 73.4 33.2 L69.95 35.95 Q68.45 37.1 63.85 37.7 L54.8 38.65 51.75 38.65 Q46.0 37.75 41.4 34.9 39.25 33.55 35.2 30.0 34.2 29.15 33.1 27.6 L31.2 25.0 29.05 22.6 Q27.8 21.0 27.8 20.15 27.8 19.4 28.25 18.7 28.9 17.65 30.3 17.65 31.6 17.65 33.3 19.45 L35.1 21.65 38.25 25.9 42.9 29.85 Q48.35 33.6 53.25 33.6 L61.8 32.8 Q61.4 32.15 61.4 31.45 61.4 29.95 63.25 29.0 L63.0 27.95 Q63.0 27.6 64.8 24.55 L67.2 20.3 67.45 18.45 66.7 14.75 65.5 10.95 Q64.9 8.8 64.9 7.2 64.9 5.0 66.3 4.15" fill="#ed99ac" fill-rule="evenodd" stroke="none"/>
    <path d="M19.5 24.4 Q16.45 25.7 9.8 25.45 2.15 25.1 -2.6 22.25 -0.15 18.75 1.7 16.85 4.4 14.2 8.55 12.2 13.2 10.15 18.2 9.7 7.7 8.45 2.0 5.75 -5.0 2.55 -11.3 -5.05 -2.65 -14.0 13.2 -7.05 18.55 -4.8 23.9 -0.9 27.8 1.9 29.35 3.7 17.9 -10.95 7.75 -31.5 -3.4 -53.95 -7.2 -72.6 -11.9 -95.75 -11.2 -114.3 L-9.5 -133.15 -7.7 -142.95 -7.15 -143.6 Q-6.8 -144.05 -5.8 -144.15 -4.6 -144.2 -3.8 -143.3 L-1.25 -134.0 Q-1.35 -148.75 2.8 -163.95 4.1 -168.3 6.25 -174.35 9.45 -183.3 11.35 -185.1 12.4 -186.1 15.1 -186.2 18.1 -186.15 19.5 -184.55 33.25 -167.4 48.15 -135.8 61.6 -107.0 63.9 -93.2 L67.45 -72.75 Q70.05 -55.7 70.35 -45.4 70.55 -38.05 69.6 -24.2 68.55 -7.0 66.3 4.15 M24.8 -106.65 Q57.3 -66.65 46.2 0.5 L45.35 2.25 44.3 3.9 Q43.25 4.95 42.25 3.7 35.9 -9.55 32.3 -18.25 25.55 -34.2 22.55 -49.4 16.5 -80.15 24.8 -106.65 M-1.2 -125.5 L-1.25 -134.0" fill="none" stroke="#666666" stroke-linecap="round" stroke-linejoin="round" stroke-width="1.2000000000000002"/>
  </g>
</svg>
