<?xml version="1.0" encoding="UTF-8" standalone="no"?>
<svg xmlns:xlink="http://www.w3.org/1999/xlink" height="97.1px" width="181.7px" xmlns="http://www.w3.org/2000/svg">
  <g transform="matrix(1.0, 0.0, 0.0, 1.0, 105.45, 71.45)">
    <path d="M-48.15 -23.75 L-47.95 -24.35 Q-49.25 -24.1 -55.1 -24.45 -57.8 -24.55 -60.2 -23.8 -63.25 -22.8 -65.9 -20.4 L-68.55 -17.3 Q-68.45 -18.4 -69.4 -17.8 L-66.45 -21.35 -61.05 -26.85 -52.25 -33.55 -45.2 -38.15 Q-28.95 -48.15 -14.25 -52.05 L-3.5 -54.95 1.15 -55.85 1.8 -55.6 1.9 -55.45 1.95 -55.3 1.9 -54.45 1.3 -51.3 Q13.9 -57.45 32.15 -58.85 43.6 -59.65 51.1 -58.75 54.7 -58.3 56.1 -57.25 57.4 -56.2 57.15 -54.25 L57.1 -54.0 Q-34.4 -38.3 -60.95 -13.85 -57.9 -18.05 -55.95 -19.5 -52.9 -21.8 -48.15 -23.75 M-16.4 7.2 L-25.9 10.6 Q-46.1 17.35 -56.05 16.05 -58.9 15.7 -62.25 13.95 -65.55 12.2 -66.3 12.1 L-67.1 12.3 -67.3 12.8 -67.4 12.5 -66.55 10.8 Q-65.3 8.7 -62.55 6.55 -54.8 14.45 -26.2 9.25 L-16.4 7.2" fill="#2f2f2f" fill-rule="evenodd" stroke="none"/>
    <path d="M-71.05 23.85 L-71.5 23.9 -71.7 23.85 -72.2 23.75 -75.5 23.4 Q-77.9 23.05 -77.85 22.5 -77.8 22.15 -80.25 21.4 L-83.15 20.65 -83.45 20.15 -84.9 15.9 Q-86.55 11.05 -87.25 10.35 -91.45 6.9 -92.7 4.9 -93.2 3.95 -101.25 -7.7 -104.2 -12.1 -104.0 -13.45 -103.9 -14.2 -98.95 -16.75 L-95.75 -18.3 -92.7 -19.9 -91.5 -20.55 -77.6 -30.75 -67.9 -38.25 Q-55.8 -47.95 -40.95 -57.5 -26.2 -67.15 -6.35 -69.85 -7.8 -67.75 -7.8 -66.95 L-7.7 -66.2 Q-5.15 -67.25 0.35 -67.8 L9.85 -68.75 23.25 -70.35 Q35.45 -71.55 42.7 -70.65 L54.8 -69.8 Q57.85 -69.35 63.9 -67.2 69.4 -65.25 75.1 -62.7 69.35 -52.9 65.25 -47.2 60.2 -40.15 58.65 -37.5 L55.8 -33.4 51.45 -27.6 Q50.5 -26.5 43.75 -21.25 L31.6 -11.5 Q26.6 -7.4 23.4 -5.35 20.15 -3.4 16.2 -1.8 12.3 -0.2 9.4 1.9 7.25 3.5 1.7 4.0 1.85 4.15 1.6 4.25 4.0 4.25 7.8 5.6 -0.45 14.7 -16.65 20.5 -28.9 24.95 -35.55 24.8 -42.2 24.65 -47.95 24.85 L-60.15 23.95 -60.4 23.9 -60.25 23.95 -62.85 23.65 -62.85 23.8 -70.45 23.1 -70.5 23.1 -71.05 23.85 M-60.25 23.95 L-59.35 24.3 -60.75 24.1 -61.1 24.05 -60.25 23.95 M57.1 -54.0 L57.15 -54.25 Q57.4 -56.2 56.1 -57.25 54.7 -58.3 51.1 -58.75 43.6 -59.65 32.15 -58.85 13.9 -57.45 1.3 -51.3 L1.9 -54.45 1.95 -55.3 1.9 -55.45 1.8 -55.6 1.15 -55.85 -3.5 -54.95 -14.25 -52.05 Q-28.95 -48.15 -45.2 -38.15 L-52.25 -33.55 -61.05 -26.85 -66.45 -21.35 -69.4 -17.8 Q-68.45 -18.4 -68.55 -17.3 L-65.9 -20.4 Q-63.25 -22.8 -60.2 -23.8 -57.8 -24.55 -55.1 -24.45 -49.25 -24.1 -47.95 -24.35 L-48.15 -23.75 -48.3 -24.2 Q-59.85 -22.6 -62.9 -19.55 -69.8 -11.3 -68.85 -1.4 -68.3 -5.85 -65.15 -7.85 -64.0 -9.35 -60.8 -11.0 -58.45 -12.3 -57.15 -12.45 -63.65 -7.7 -65.85 -0.85 -65.9 -0.05 -66.25 1.0 L-66.55 10.8 -67.4 12.5 -67.3 12.8 -67.1 12.3 -66.3 12.1 Q-65.55 12.2 -62.25 13.95 -58.9 15.7 -56.05 16.05 -46.1 17.35 -25.9 10.6 L-16.4 7.2 Q-3.9 2.25 5.1 -3.25 L17.45 -11.05 Q24.85 -16.0 30.3 -20.95 L41.0 -30.75 Q43.3 -33.1 47.55 -38.7 50.3 -42.4 53.7 -47.8 56.65 -52.6 57.1 -54.0" fill="#ef8410" fill-rule="evenodd" stroke="none"/>
    <path d="M-60.95 -13.85 Q-34.4 -38.3 57.1 -54.0 56.65 -52.6 53.7 -47.8 50.3 -42.4 47.55 -38.7 43.3 -33.1 41.0 -30.75 L30.3 -20.95 Q24.85 -16.0 17.45 -11.05 L5.1 -3.25 Q-3.9 2.25 -16.4 7.2 L-26.2 9.25 Q-54.8 14.45 -62.55 6.55 L-58.45 3.75 Q-51.0 -0.75 -55.5 0.3 L-56.9 0.1 -56.2 -0.05 -56.4 -0.05 -59.25 -0.05 Q-61.45 -0.05 -63.35 2.1 -63.5 -1.0 -60.5 -4.75 -57.55 -8.55 -50.35 -7.05 L-50.4 -7.05 -47.05 -6.4 -51.55 -10.0 Q-55.1 -12.15 -56.25 -12.4 L-57.15 -12.45 Q-58.45 -12.3 -60.8 -11.0 -64.0 -9.35 -65.15 -7.85 L-60.95 -13.85" fill="#424242" fill-rule="evenodd" stroke="none"/>
    <path d="M-71.05 23.85 L-70.5 23.1 -70.45 23.1 -70.45 23.15 -70.5 23.3 -70.8 23.65 -70.45 23.8 -71.05 23.85 M-62.85 23.8 L-62.85 23.65 -60.25 23.95 -61.1 24.05 -62.85 23.8 M-48.15 -23.75 Q-52.9 -21.8 -55.95 -19.5 -57.9 -18.05 -60.95 -13.85 L-65.15 -7.85 Q-68.3 -5.85 -68.85 -1.4 -69.8 -11.3 -62.9 -19.55 -59.85 -22.6 -48.3 -24.2 L-48.15 -23.75 M-66.55 10.8 L-66.25 1.0 Q-65.9 -0.05 -65.85 -0.85 -63.65 -7.7 -57.15 -12.45 L-56.25 -12.4 Q-55.1 -12.15 -51.55 -10.0 L-47.05 -6.4 -50.4 -7.05 -50.35 -7.05 Q-57.55 -8.55 -60.5 -4.75 -63.5 -1.0 -63.35 2.1 -61.45 -0.05 -59.25 -0.05 L-56.4 -0.05 -56.2 -0.05 -56.9 0.1 -55.5 0.3 Q-51.0 -0.75 -58.45 3.75 L-62.55 6.55 Q-65.3 8.7 -66.55 10.8 M-70.5 23.1 L-70.5 23.3 -70.5 23.1" fill="#cc6f0f" fill-rule="evenodd" stroke="none"/>
    <path d="M-70.5 23.3 L-70.5 23.1 M-70.5 23.3 L-70.45 23.8" fill="none" stroke="#4d2b06" stroke-linecap="round" stroke-linejoin="round" stroke-width="0.05"/>
    <path d="M-40.4 24.85 L-42.1 24.9 Q-13.2 22.2 1.4 5.85 L-4.3 4.5 Q41.3 -10.8 69.25 -62.75 53.7 -70.6 28.35 -70.45 39.25 -71.65 45.1 -70.3 L54.15 -69.85 Q58.6 -69.8 75.1 -62.7 64.85 -45.85 62.7 -43.4 60.5 -40.95 58.65 -37.5 56.8 -35.35 53.4 -30.2 50.0 -25.05 41.9 -20.2 L23.55 -5.15 Q20.2 -2.3 15.25 -0.95 10.35 0.25 10.5 0.95 10.7 1.65 8.95 2.25 7.35 3.0 1.7 4.0 L1.85 4.15 1.6 4.25 Q3.1 3.8 7.8 5.6 1.45 11.25 -4.75 15.15 -11.0 19.0 -18.9 21.65 -26.9 24.35 -32.1 24.6 L-40.4 24.85" fill="#cc6f0f" fill-rule="evenodd" stroke="none"/>
    <path d="M-73.3 -13.75 Q-70.1 -16.6 -69.45 -17.5 L-68.65 -18.6 -68.55 -18.75 Q-65.5 -23.1 -60.2 -26.7 -33.75 -49.2 1.75 -55.3 1.75 -52.2 0.2 -50.4 24.75 -60.4 52.4 -57.75 58.2 -57.2 55.85 -52.05 24.7 -2.35 -35.8 13.25 -57.9 18.7 -65.85 11.45 L-66.05 11.4 -66.85 11.7 -65.8 9.95 Q-61.2 3.4 -51.7 0.85 -59.65 -0.85 -63.35 1.4 -61.8 -10.05 -47.0 -6.45 M-64.75 -8.6 L-65.0 -8.3 -65.45 -7.75 M-68.55 -18.75 Q-66.95 -20.9 -63.55 -23.0 -59.2 -25.8 -48.1 -24.25 -60.1 -18.15 -63.6 -10.3 L-64.65 -8.7" fill="none" stroke="#4d2b06" stroke-linecap="round" stroke-linejoin="miter-clip" stroke-miterlimit="3.0" stroke-width="1.2000000000000002"/>
    <path d="M-47.0 -6.45 Q-53.5 -12.15 -55.45 -12.5 -57.5 -12.85 -60.55 -11.55 -63.55 -10.3 -64.65 -8.7 L-64.75 -8.6 M-70.2 23.5 Q-14.55 30.55 7.85 5.45 L2.2 4.15 Q47.75 -11.2 75.65 -63.15 48.45 -76.85 -9.3 -66.1 L-5.05 -69.95 Q-31.45 -67.7 -62.85 -42.85 -78.65 -29.1 -104.85 -12.25" fill="none" stroke="#4d2b06" stroke-linecap="round" stroke-linejoin="round" stroke-width="1.2000000000000002"/>
  </g>
</svg>
