<?xml version="1.0" encoding="UTF-8" standalone="no"?>
<svg xmlns:xlink="http://www.w3.org/1999/xlink" height="140.6px" width="188.15px" xmlns="http://www.w3.org/2000/svg">
  <g transform="matrix(1.0, 0.0, 0.0, 1.0, 107.35, 124.3)">
    <path d="M57.75 -103.5 Q60.2 -106.9 57.9 -108.95 55.75 -110.95 52.45 -109.8 -18.2 -91.15 -20.6 -90.15 L-20.25 -91.15 -19.25 -93.2 -22.15 -90.95 -90.4 -17.25 -79.9 -5.7 Q-74.7 -6.85 -36.1 -21.05 -7.5 -31.65 4.2 -36.2 L2.75 -36.2 -0.1 -36.05 Q1.05 -36.55 2.85 -37.65 L5.9 -39.75 Q7.2 -40.6 30.8 -69.7 54.4 -98.7 57.75 -103.5 M-106.75 -22.55 L-68.3 -62.5 -67.65 -63.2 -26.9 -105.4 -21.75 -109.85 -24.25 -104.35 Q-18.85 -107.85 -17.6 -108.25 L-18.85 -107.05 -19.25 -106.4 21.15 -114.3 67.95 -123.15 Q76.25 -124.6 79.0 -122.1 81.9 -119.5 77.9 -113.7 72.05 -105.05 37.25 -60.4 3.1 -16.6 0.65 -14.2 L4.4 -14.4 5.0 -14.4 4.15 -14.15 4.05 -14.1 2.15 -13.45 1.55 -13.2 0.05 -13.05 -3.05 -12.2 -4.9 -11.7 -35.1 -3.0 -58.9 3.45 -104.25 15.7 -106.75 -22.55" fill="#d6eefb" fill-rule="evenodd" stroke="none"/>
    <path d="M57.75 -103.5 Q54.4 -98.7 30.8 -69.7 7.2 -40.6 5.9 -39.75 L2.85 -37.65 Q1.05 -36.55 -0.1 -36.05 L2.75 -36.2 4.2 -36.2 Q-7.5 -31.65 -36.1 -21.05 -74.7 -6.85 -79.9 -5.7 L-90.4 -17.25 -22.15 -90.95 -19.25 -93.2 -20.25 -91.15 -20.6 -90.15 Q-18.2 -91.15 52.45 -109.8 55.75 -110.95 57.9 -108.95 60.2 -106.9 57.75 -103.5" fill="#51b6e7" fill-rule="evenodd" stroke="none"/>
    <path d="M-70.3 6.6 L-72.85 7.1 -73.4 6.3 Q-73.7 5.7 -72.65 4.2 L-70.7 1.45 Q-18.95 -11.3 -13.7 -13.25 -5.7 -16.3 -2.4 -18.0 L-4.85 -17.8 Q-0.85 -20.75 35.8 -65.6 71.9 -109.75 74.35 -114.15 76.5 -118.1 77.0 -119.9 77.45 -121.6 76.85 -123.25 79.55 -121.65 79.8 -120.95 L79.9 -117.45 Q80.0 -115.0 40.15 -64.3 20.25 -38.95 0.35 -14.15 L5.4 -14.5 4.15 -14.15 2.2 -13.35 0.05 -13.05 -3.05 -12.2 -4.9 -11.7 Q-67.35 6.1 -70.3 6.6" fill="#a4c9de" fill-rule="evenodd" stroke="none"/>
    <path d="M58.2 -108.5 Q59.4 -107.05 58.9 -104.9 57.8 -99.75 50.5 -97.45 24.45 -89.3 1.85 -82.65 L-13.7 -78.05 Q-19.6 -76.15 -23.3 -74.0 -28.3 -71.2 -46.55 -54.9 -56.85 -45.8 -60.8 -41.75 -73.1 -29.1 -73.1 -22.9 -73.1 -20.3 -71.35 -19.5 -69.6 -18.65 -63.9 -18.65 L-53.25 -19.65 -40.3 -20.65 -39.35 -20.6 -39.6 -20.35 Q-41.65 -19.65 -59.25 -12.55 -76.85 -5.45 -80.95 -5.95 -85.05 -6.45 -87.8 -8.7 -90.55 -10.95 -91.05 -14.35 -91.55 -17.7 -57.3 -54.1 -23.1 -90.55 -20.4 -91.7 L-20.2 -90.9 Q-20.0 -90.45 -19.4 -90.45 -16.8 -90.45 16.65 -100.2 50.05 -110.0 54.2 -110.0 56.9 -110.0 58.2 -108.5" fill="#4392b9" fill-rule="evenodd" stroke="none"/>
    <path d="M-106.75 -22.55 L-68.3 -62.5 -67.65 -63.2 -26.9 -105.4 -21.75 -109.85 -24.25 -104.35 Q-18.85 -107.85 -17.6 -108.25 L-18.85 -107.05 -19.25 -106.4 21.15 -114.3 67.95 -123.15 Q76.25 -124.6 79.0 -122.1 81.9 -119.5 77.9 -113.7 72.05 -105.05 37.25 -60.4 3.1 -16.6 0.65 -14.2 L4.4 -14.4 Q4.2 -14.1 -58.9 3.45 L-104.25 15.7" fill="none" stroke="#4a4f58" stroke-linecap="round" stroke-linejoin="miter-clip" stroke-miterlimit="3.0" stroke-width="1.2000000000000002"/>
    <path d="M-90.4 -17.25 L-22.15 -90.95 -19.25 -93.2 -20.25 -91.15 -20.6 -90.15 Q-18.2 -91.15 52.45 -109.8 55.75 -110.95 57.9 -108.95 60.2 -106.9 57.75 -103.5 54.4 -98.7 30.8 -69.7 7.2 -40.6 5.9 -39.75 L2.85 -37.65 Q1.05 -36.55 -0.1 -36.05 L2.75 -36.2 4.2 -36.2 Q-7.5 -31.65 -36.1 -21.05 -74.7 -6.85 -79.9 -5.7" fill="none" stroke="#4a4f58" stroke-linecap="butt" stroke-linejoin="miter-clip" stroke-miterlimit="3.0" stroke-width="1.5"/>
  </g>
</svg>
