<?xml version="1.0" encoding="UTF-8" standalone="no"?>
<svg xmlns:xlink="http://www.w3.org/1999/xlink" height="190.7px" width="224.65px" xmlns="http://www.w3.org/2000/svg">
  <g transform="matrix(1.0, 0.0, 0.0, 1.0, 112.35, 95.45)">
    <path d="M-106.35 58.15 Q-96.3 60.9 -100.65 63.4 -89.55 65.45 -96.0 65.85 -76.4 81.75 -76.9 69.35 -79.3 53.0 -75.8 33.2 -71.0 1.2 -44.9 -23.25 -4.8 -44.2 30.4 -39.95 78.7 -30.9 95.0 -20.05 100.4 -17.8 111.65 12.35 98.65 -8.3 63.95 -20.85 -28.85 -51.3 -64.45 46.05 -69.7 66.05 -60.05 78.45 L-60.65 79.05 Q-62.25 79.4 -61.85 80.3 L-63.65 82.05 Q-69.25 82.3 -60.55 86.7 -63.4 87.4 -62.3 89.75 -64.05 92.0 -67.05 93.3 -72.85 94.75 -78.05 94.65 -91.95 94.3 -101.75 82.65 -103.6 80.1 -104.3 78.45 -106.3 73.9 -99.15 76.7 -111.85 63.9 -111.0 54.65 L-106.35 58.15 M-8.55 -77.85 Q-13.7 -71.5 -22.85 -67.2 L-7.9 -93.75 Q-2.6 -90.85 -8.55 -77.85 M-64.75 -53.1 Q-67.35 -42.55 -77.95 -37.35 -69.75 -50.25 -67.2 -64.75 -63.05 -67.8 -64.75 -53.1" fill="#dd7e8f" fill-rule="evenodd" stroke="none"/>
    <path d="M111.65 12.35 Q100.4 -17.8 95.0 -20.05 78.7 -30.9 30.4 -39.95 -4.8 -44.2 -44.9 -23.25 -71.0 1.2 -75.8 33.2 -79.3 53.0 -76.9 69.35 -76.4 81.75 -96.0 65.85 -89.55 65.45 -100.65 63.4 -96.3 60.9 -106.35 58.15 -110.45 53.35 -111.0 40.9 -116.1 -5.15 -85.35 -49.25 L-81.95 -53.6 Q-75.05 -61.75 -71.9 -58.85 -69.0 -63.45 -67.2 -64.75 -69.75 -50.25 -77.95 -37.35 -67.35 -42.55 -64.75 -53.1 -54.9 -81.1 -24.8 -91.55 -15.0 -95.25 -10.15 -94.5 -8.85 -94.3 -7.9 -93.75 L-22.85 -67.2 Q-13.7 -71.5 -8.55 -77.85 20.25 -85.35 59.55 -70.15 113.0 -41.4 111.65 12.35 M-63.65 82.05 L-61.85 80.3 Q-61.55 81.05 -59.65 82.2 L-63.65 82.05 M-60.65 79.05 L-60.05 78.45 -59.7 78.9 -60.65 79.05 M-75.3 -53.1 L-71.9 -58.85 -75.3 -53.1" fill="#ed99ac" fill-rule="evenodd" stroke="none"/>
    <path d="M-106.35 58.15 L-111.0 54.65 Q-111.85 63.9 -99.15 76.7 -106.3 73.9 -104.3 78.45 -103.6 80.1 -101.75 82.65 -91.95 94.3 -78.05 94.65 M-67.05 93.3 Q-64.05 92.0 -62.3 89.75 -63.4 87.4 -60.55 86.7 -69.25 82.3 -63.65 82.05 L-59.65 82.2 Q-61.55 81.05 -61.85 80.3 -62.25 79.4 -60.65 79.05 L-59.7 78.9 -60.05 78.45 Q-69.7 66.05 -64.45 46.05 -28.85 -51.3 63.95 -20.85 98.65 -8.3 111.65 12.35 113.0 -41.4 59.55 -70.15 20.25 -85.35 -8.55 -77.85 -2.6 -90.85 -7.9 -93.75 -8.85 -94.3 -10.15 -94.5 -15.0 -95.25 -24.8 -91.55 -54.9 -81.1 -64.75 -53.1 -63.05 -67.8 -67.2 -64.75 -69.0 -63.45 -71.9 -58.85 L-75.3 -53.1 M-106.35 58.15 Q-110.45 53.35 -111.0 40.9 -116.1 -5.15 -85.35 -49.25 L-81.95 -53.6 Q-75.05 -61.75 -71.9 -58.85" fill="none" stroke="#666666" stroke-linecap="round" stroke-linejoin="miter-clip" stroke-miterlimit="3.0" stroke-width="1.2000000000000002"/>
  </g>
</svg>
