<?xml version="1.0" encoding="UTF-8" standalone="no"?>
<svg xmlns:xlink="http://www.w3.org/1999/xlink" height="13.95px" width="21.3px" xmlns="http://www.w3.org/2000/svg">
  <g transform="matrix(1.0, 0.0, 0.0, 1.0, -0.8, 14.65)">
    <path d="M3.2 -9.25 L3.45 -9.15 6.1 -9.15 7.7 -8.85 8.7 -8.5 10.2 -8.5 10.5 -8.45 11.7 -8.45 12.05 -8.3 18.9 -8.3 19.7 -8.45 21.4 -8.45 21.6 -8.15 20.7 -5.85 19.5 -3.95 Q16.6 -1.55 11.85 -0.7 L10.3 -0.7 Q8.5 -0.55 6.15 -2.2 L3.3 -4.5 Q2.1 -5.55 1.55 -6.65 0.85 -8.3 0.85 -8.85 L1.2 -9.25 3.2 -9.25" fill="#cb7110" fill-rule="evenodd" stroke="none"/>
    <path d="M7.85 -10.95 L5.05 -10.25 Q3.2 -10.25 3.0 -11.0 4.05 -12.4 6.75 -13.25 L9.35 -13.75 Q10.4 -13.75 10.95 -13.35 L11.8 -12.6 Q10.5 -11.8 7.85 -10.95" fill="#ffffff" fill-rule="evenodd" stroke="none"/>
    <path d="M7.85 -10.95 Q10.5 -11.8 11.8 -12.6 L10.95 -13.35 Q10.4 -13.75 9.35 -13.75 L6.75 -13.25 Q4.05 -12.4 3.0 -11.0 3.2 -10.25 5.05 -10.25 L7.85 -10.95 M3.55 -13.35 Q6.4 -14.65 11.4 -14.65 18.5 -14.65 20.4 -13.55 L21.15 -12.75 Q22.1 -11.55 22.1 -10.7 L22.0 -9.45 Q21.95 -8.65 21.5 -8.3 L21.25 -8.1 20.65 -7.6 20.65 -7.45 Q19.85 -6.45 17.95 -5.4 14.85 -3.8 10.95 -3.8 L10.5 -3.8 10.15 -3.85 7.25 -4.15 Q2.4 -6.05 1.1 -8.0 L1.1 -8.25 Q0.8 -8.9 0.8 -9.95 0.8 -12.1 3.55 -13.35" fill="#361e04" fill-rule="evenodd" stroke="none"/>
  </g>
</svg>
