<?xml version="1.0" encoding="UTF-8" standalone="no"?>
<svg xmlns:xlink="http://www.w3.org/1999/xlink" height="5.95px" width="11.45px" xmlns="http://www.w3.org/2000/svg">
  <g transform="matrix(1.0, 0.0, 0.0, 1.0, -6.0, 16.25)">
    <path d="M15.75 -14.0 Q15.4 -13.35 15.4 -12.85 15.4 -11.9 14.55 -11.2 13.5 -10.3 11.7 -10.3 9.35 -10.3 8.25 -12.0 7.85 -12.65 7.5 -14.15 L15.7 -14.1 15.75 -14.0" fill="#eccdd2" fill-rule="evenodd" stroke="none"/>
    <path d="M6.2 -16.05 L11.7 -16.25 16.15 -16.05 Q17.2 -15.9 17.4 -15.65 L17.35 -14.95 Q12.9 -10.8 11.65 -10.8 L10.65 -11.2 Q9.6 -11.8 8.45 -13.15 L6.3 -14.8 Q5.75 -15.5 6.2 -16.05" fill="#545454" fill-rule="evenodd" stroke="none"/>
  </g>
</svg>
