<?xml version="1.0" encoding="UTF-8" standalone="no"?>
<svg xmlns:xlink="http://www.w3.org/1999/xlink" height="72.45px" width="98.15px" xmlns="http://www.w3.org/2000/svg">
  <g transform="matrix(1.0, 0.0, 0.0, 1.0, 49.05, 36.2)">
    <path d="M16.4 2.85 Q47.75 -47.5 48.95 -32.9 50.15 -18.35 41.0 -6.05 31.8 6.25 24.4 8.4 16.95 10.55 15.15 14.1 13.35 17.65 8.85 22.95 2.35 31.85 -3.2 36.25 -2.55 31.65 -2.4 28.65 -2.3 25.6 -4.0 21.1 -5.7 16.55 -8.2 11.75 -10.5 16.85 -12.6 19.45 -14.85 22.3 -19.1 25.05 L-20.1 25.4 Q-18.7 24.05 -17.35 18.35 -16.0 12.65 -29.9 5.85 L-38.95 -1.3 Q-44.35 -5.75 -49.05 -14.45 -32.85 -15.4 -28.95 -6.3 -25.1 2.75 -24.55 3.0 -23.2 3.6 -18.3 4.0 L-5.45 4.75 16.1 6.1 Q15.9 4.25 17.25 2.7 L16.9 2.35 16.4 2.85" fill="#ca700f" fill-rule="evenodd" stroke="none"/>
  </g>
</svg>
