<?xml version="1.0" encoding="UTF-8" standalone="no"?>
<svg xmlns:xlink="http://www.w3.org/1999/xlink" height="47.8px" width="172.25px" xmlns="http://www.w3.org/2000/svg">
  <g transform="matrix(1.0, 0.0, 0.0, 1.0, 86.1, 23.9)">
    <path d="M76.7 -12.2 Q60.0 -4.4 21.8 11.7 L14.35 19.15 Q10.6 22.65 8.6 23.4 L3.5 23.9 Q0.2 23.9 -2.55 22.9 -8.55 20.8 -15.1 14.25 L-17.3 12.3 -31.85 5.9 Q-50.9 -3.4 -72.05 -11.75 -81.2 -15.15 -84.25 -17.55 -86.15 -19.15 -86.1 -21.7 -86.2 -22.05 -85.15 -23.9 L86.0 -23.9 86.15 -20.2 85.75 -18.3 85.45 -16.55 Q82.25 -14.55 76.7 -12.2" fill="#a4c9de" fill-rule="evenodd" stroke="none"/>
  </g>
</svg>
