<?xml version="1.0" encoding="UTF-8" standalone="no"?>
<svg xmlns:xlink="http://www.w3.org/1999/xlink" height="145.55px" width="180.5px" xmlns="http://www.w3.org/2000/svg">
  <g transform="matrix(1.0, 0.0, 0.0, 1.0, 35.25, -7.65)">
    <path d="M-25.05 90.45 Q-10.0 71.25 20.6 23.15 24.45 16.85 25.8 15.65 26.15 15.2 28.95 15.2 30.2 15.25 32.1 16.95 35.45 20.1 42.8 29.8 L53.65 43.7 67.35 30.2 78.4 18.4 Q80.65 15.6 81.6 15.55 83.7 15.75 85.95 18.25 89.4 23.4 93.6 28.1 99.1 34.7 111.65 55.25 128.8 83.35 137.3 93.4 L138.9 98.7 Q138.9 101.65 137.2 103.65 135.25 105.8 130.4 107.95 L91.15 123.95 97.55 116.95 102.2 111.2 Q105.3 107.25 104.9 107.35 L104.9 107.3 104.85 107.35 Q57.4 116.6 9.55 108.45 L6.8 108.15 5.85 108.0 16.8 121.25 Q-7.2 112.4 -17.7 105.65 -25.5 100.65 -25.55 95.75 L-25.05 90.45" fill="#51b6e7" fill-rule="evenodd" stroke="none"/>
    <path d="M-25.05 90.45 L-25.55 95.75 Q-25.5 100.65 -17.7 105.65 -7.2 112.4 16.8 121.25 L5.85 108.0 6.8 108.15 9.55 108.45 Q57.4 116.6 104.85 107.35 L104.9 107.3 104.9 107.35 Q105.3 107.25 102.2 111.2 L97.55 116.95 91.15 123.95 130.4 107.95 Q135.25 105.8 137.2 103.65 138.9 101.65 138.9 98.7 L137.3 93.4 Q144.8 100.8 144.65 107.2 144.55 111.0 131.3 116.5 112.1 125.3 65.0 144.65 55.25 145.3 45.75 144.8 36.85 141.9 20.65 134.6 1.2 125.3 -20.35 116.95 -29.65 113.55 -32.75 111.15 -34.7 109.55 -34.65 107.0 -34.8 106.4 -31.35 100.75 -27.95 94.75 -25.05 90.45" fill="#4392b9" fill-rule="evenodd" stroke="none"/>
    <path d="M137.3 93.4 Q128.8 83.35 111.65 55.25 99.1 34.7 93.6 28.1 89.4 23.4 85.95 18.25 83.7 15.75 81.6 15.55 80.65 15.6 78.4 18.4 L67.35 30.2 53.65 43.7 42.8 29.8 Q35.45 20.1 32.1 16.95 30.2 15.25 28.95 15.2 26.15 15.2 25.8 15.65 24.45 16.85 20.6 23.15 -10.0 71.25 -25.05 90.45 -27.95 94.75 -31.35 100.75 -34.8 106.4 -34.65 107.0 -34.7 109.55 -32.75 111.15 -29.65 113.55 -20.35 116.95 1.2 125.3 20.65 134.6 36.85 141.9 45.75 144.8 55.25 145.3 65.0 144.65 112.1 125.3 131.3 116.5 144.55 111.0 144.65 107.2 144.8 100.8 137.3 93.4 Z" fill="none" stroke="#4a4f58" stroke-linecap="round" stroke-linejoin="round" stroke-width="1.2000000000000002"/>
    <path d="M9.95 99.3 Q25.9 67.0 47.95 20.05 51.85 11.6 53.15 9.8 54.3 8.25 56.05 8.25 57.4 8.25 60.55 13.35 63.55 18.1 65.0 22.15 69.35 34.25 85.5 68.05 L101.0 99.85 100.2 98.55 Q86.05 118.45 77.35 124.25 70.95 128.55 60.15 128.55 42.6 128.55 30.95 121.6 19.65 114.9 9.95 99.3" fill="#51b6e7" fill-rule="evenodd" stroke="none"/>
    <path d="M9.95 99.3 Q19.65 114.9 30.95 121.6 42.6 128.55 60.15 128.55 70.95 128.55 77.35 124.25 86.05 118.45 100.2 98.55 L101.0 99.85 105.25 111.75 Q83.1 132.65 67.75 147.85 63.9 151.35 61.85 152.1 L56.7 152.6 Q53.3 152.6 50.5 151.6 44.4 149.5 37.7 142.95 L29.85 136.15 Q21.5 128.7 17.15 124.05 L7.05 113.6 Q6.25 112.8 6.25 111.8 6.25 111.05 7.45 107.1 L9.95 99.3" fill="#4392b9" fill-rule="evenodd" stroke="none"/>
    <path d="M101.0 99.85 L85.5 68.05 Q69.35 34.25 65.0 22.15 63.55 18.1 60.55 13.35 57.4 8.25 56.05 8.25 54.3 8.25 53.15 9.8 51.85 11.6 47.95 20.05 25.9 67.0 9.95 99.3 L7.45 107.1 Q6.25 111.05 6.25 111.8 6.25 112.8 7.05 113.6 L17.15 124.05 Q21.5 128.7 29.85 136.15 L37.7 142.95 Q44.4 149.5 50.5 151.6 53.3 152.6 56.7 152.6 L61.85 152.1 Q63.9 151.35 67.75 147.85 83.1 132.65 105.25 111.75 L101.0 99.85 100.2 98.55" fill="none" stroke="#4a4f58" stroke-linecap="round" stroke-linejoin="round" stroke-width="1.2000000000000002"/>
  </g>
</svg>
