<?xml version="1.0" encoding="UTF-8" standalone="no"?>
<svg xmlns:xlink="http://www.w3.org/1999/xlink" height="34.4px" width="120.2px" xmlns="http://www.w3.org/2000/svg">
  <g transform="matrix(1.0, 0.0, 0.0, 1.0, -1.55, 0.8)">
    <path d="M15.6 -0.7 L15.85 -0.7 Q25.2 -1.3 31.4 2.2 39.5 6.8 42.25 18.35 44.05 25.6 39.1 28.9 27.05 35.45 15.0 32.9 7.05 29.45 3.55 17.15 2.25 12.6 1.55 6.65 1.2 2.7 6.2 1.1 11.25 -0.3 15.6 -0.7 M107.7 -0.6 Q112.05 -0.2 117.1 1.3 122.1 3.0 121.7 6.95 120.95 12.8 119.55 17.4 115.95 29.65 107.95 32.95 95.9 35.35 83.9 28.7 79.0 25.15 80.75 18.05 86.0 -2.45 107.45 -0.6 L107.7 -0.6" fill="#ffffff" fill-rule="evenodd" stroke="none"/>
  </g>
</svg>
