<?xml version="1.0" encoding="UTF-8" standalone="no"?>
<svg xmlns:xlink="http://www.w3.org/1999/xlink" height="44.15px" width="128.9px" xmlns="http://www.w3.org/2000/svg">
  <g transform="matrix(1.0, 0.0, 0.0, 1.0, 5.4, 6.25)">
    <path d="M16.4 -6.05 Q19.3 -5.7 22.6 -3.95 35.0 7.7 37.0 26.3 L37.0 26.45 37.25 29.15 35.5 30.5 33.85 31.65 Q14.9 44.15 -2.15 30.9 L-2.15 30.85 -4.9 28.4 -5.4 27.95 -5.25 25.9 Q-3.8 8.75 7.3 -2.25 L9.1 -4.0 11.05 -5.2 16.4 -6.05 M110.75 -2.35 Q121.85 8.65 123.35 25.8 L123.5 27.9 123.0 28.35 120.2 30.75 120.2 30.85 120.3 31.0 120.1 31.25 120.1 31.2 118.35 32.5 Q106.8 40.5 94.45 36.65 91.8 35.85 89.15 34.5 L87.05 33.35 84.95 32.1 84.8 32.0 84.45 31.75 84.4 31.7 84.35 31.7 84.25 31.6 82.45 30.35 80.7 29.05 80.75 28.4 80.9 27.4 80.9 27.1 80.95 26.3 Q82.95 7.55 95.35 -4.1 104.8 -9.15 110.75 -2.35" fill="#000000" fill-rule="evenodd" stroke="none"/>
  </g>
</svg>
