<?xml version="1.0" encoding="UTF-8" standalone="no"?>
<svg xmlns:xlink="http://www.w3.org/1999/xlink" height="38.05px" width="130.4px" xmlns="http://www.w3.org/2000/svg">
  <g transform="matrix(1.0, 0.0, 0.0, 1.0, 24.55, 4.4)">
    <path d="M63.05 6.15 Q86.35 -5.45 101.85 6.65 101.65 14.05 97.9 20.15 78.1 35.25 58.85 20.0 59.25 11.6 63.05 6.15 M18.1 6.15 Q21.9 11.6 22.3 20.0 3.05 35.25 -16.75 20.15 -20.5 14.05 -20.7 6.65 -5.2 -5.45 18.1 6.15" fill="#ef8410" fill-rule="evenodd" stroke="none"/>
    <path d="M63.05 6.15 Q65.95 -0.7 79.95 -3.45 93.9 -6.2 105.85 5.35 104.9 6.3 101.85 6.65 86.35 -5.45 63.05 6.15 M97.9 20.15 Q88.95 39.5 65.8 28.9 59.0 25.75 58.85 20.0 78.1 35.25 97.9 20.15 M22.3 20.0 Q22.15 25.75 15.35 28.9 -7.8 39.5 -16.75 20.15 3.05 35.25 22.3 20.0 M-20.7 6.65 L-24.55 3.45 Q-11.0 -6.75 1.2 -3.65 13.4 -0.6 18.1 6.15 -5.2 -5.45 -20.7 6.65" fill="#cb7110" fill-rule="evenodd" stroke="none"/>
    <path d="M-17.25 20.4 Q-17.5 19.9 -17.0 19.6 -16.45 19.35 -16.2 19.85 L-15.9 20.35 -15.8 20.65 -15.15 21.7 -13.85 23.75 -13.45 24.3 -10.65 27.35 -9.6 28.25 -9.2 28.5 Q-7.8 29.55 -5.75 30.45 L-3.75 31.05 -1.6 31.45 Q0.35 31.65 2.75 31.5 L7.2 30.7 7.75 30.6 8.8 30.3 13.4 28.65 13.85 28.45 14.35 28.3 14.9 28.05 14.95 28.0 15.0 28.0 15.25 27.9 15.35 27.8 Q16.05 27.5 16.7 27.15 L18.45 25.95 19.2 25.3 19.3 25.15 19.45 25.0 20.3 23.95 21.3 21.9 21.6 20.5 21.65 20.25 21.65 20.1 21.7 19.95 Q21.7 19.4 22.3 19.4 22.95 19.4 22.85 20.0 L22.85 21.1 22.8 21.3 22.65 22.3 22.25 23.45 21.65 24.75 20.65 26.1 19.4 27.4 17.85 28.55 16.05 29.55 Q15.95 29.65 15.8 29.7 L15.75 29.7 15.7 29.75 15.6 29.8 13.65 30.7 12.1 31.3 7.7 32.75 2.95 33.55 0.5 33.65 -1.9 33.5 Q-4.15 33.2 -6.5 32.25 -8.4 31.55 -10.35 30.0 L-11.9 28.65 -13.5 26.9 -13.75 26.55 -13.9 26.4 -14.25 25.9 -14.7 25.2 -15.15 24.6 -17.25 20.4 M97.35 19.85 Q97.65 19.35 98.1 19.6 L98.4 19.95 98.4 20.4 97.9 21.55 97.5 22.35 96.25 24.55 94.3 27.25 92.65 29.0 91.45 30.0 89.65 31.2 87.6 32.2 Q85.35 33.15 83.0 33.45 L80.6 33.6 78.15 33.5 75.75 33.2 71.15 32.05 66.0 30.0 65.55 29.75 65.4 29.7 65.35 29.7 65.3 29.65 65.05 29.55 61.7 27.35 61.55 27.2 61.35 27.05 60.45 26.1 59.5 24.75 58.85 23.45 58.45 22.3 58.3 21.3 58.25 21.1 58.25 20.0 58.35 19.6 58.75 19.4 Q59.4 19.3 59.4 19.95 L59.45 20.1 59.45 20.25 59.5 20.5 59.8 21.9 60.15 22.9 60.75 23.95 61.65 25.0 61.75 25.15 62.45 25.8 62.8 26.05 64.2 27.05 65.85 27.9 66.15 28.05 66.2 28.05 71.75 30.15 73.9 30.75 78.35 31.55 Q80.75 31.7 82.8 31.5 84.95 31.3 86.9 30.45 L88.75 29.6 90.4 28.55 93.1 26.15 93.65 25.55 93.75 25.4 93.9 25.25 95.0 23.75 96.3 21.7 96.95 20.65 97.05 20.35 97.35 19.85" fill="#4d2b06" fill-rule="evenodd" stroke="none"/>
  </g>
</svg>
