<?xml version="1.0" encoding="UTF-8" standalone="no"?>
<svg xmlns:xlink="http://www.w3.org/1999/xlink" height="18.0px" width="129.8px" xmlns="http://www.w3.org/2000/svg">
  <g transform="matrix(1.0, 0.0, 0.0, 1.0, 24.3, 5.25)">
    <path d="M90.0 5.2 L90.0 5.3 Q90.25 7.05 89.85 8.0 89.45 8.95 88.25 9.4 L87.5 9.6 87.45 9.6 86.6 9.8 84.6 9.8 Q83.5 9.75 82.75 9.1 L82.25 8.5 Q81.65 7.55 81.65 6.6 81.65 4.65 82.85 4.35 L82.9 4.3 Q83.5 3.85 84.05 3.6 84.95 3.25 84.95 3.4 L87.95 3.3 Q89.4 3.9 90.0 5.2 M6.45 4.15 Q7.0 4.45 7.5 5.0 L7.7 5.2 Q8.35 5.4 8.35 6.65 8.35 7.45 7.5 8.4 L6.4 9.2 6.0 9.5 5.45 9.7 5.0 9.8 4.6 9.75 4.0 9.7 2.85 9.7 1.5 9.3 Q0.35 8.65 0.1 7.7 -0.2 6.7 0.35 4.95 1.1 3.65 2.6 3.3 4.2 2.95 5.65 3.8 5.65 3.65 6.45 4.15" fill="#ede6de" fill-rule="evenodd" stroke="none"/>
    <path d="M91.65 11.3 L91.05 11.75 90.2 11.9 Q89.35 11.9 89.05 11.3 L88.9 10.7 Q88.9 9.6 89.8 9.55 L90.6 9.35 Q91.9 9.35 91.9 10.55 L91.65 11.3 M9.4 11.95 Q8.85 12.75 8.05 12.75 7.15 12.75 6.8 12.15 L6.65 11.5 Q6.65 10.9 6.95 10.45 7.45 9.7 8.5 9.7 9.9 9.7 9.85 10.9 L9.4 11.95" fill="#ffffff" fill-rule="evenodd" stroke="none"/>
    <path d="M60.95 7.55 L60.6 7.65 60.45 7.7 Q63.5 -1.6 74.3 -4.0 85.1 -6.45 97.25 -4.15 109.35 -1.85 103.75 10.0 102.65 6.3 96.5 3.5 86.05 -1.35 78.9 0.3 65.65 1.0 60.95 7.55 M20.85 7.6 Q16.15 1.05 2.9 0.35 -4.25 -1.3 -14.7 3.55 -20.85 6.35 -21.95 10.05 -28.7 0.05 -16.0 -3.15 -3.3 -6.4 7.5 -3.95 18.3 -1.55 21.35 7.75 L21.2 7.7 20.85 7.6" fill="#ef8410" fill-rule="evenodd" stroke="none"/>
    <path d="M103.75 10.0 L103.75 10.5 Q87.05 -1.45 60.95 7.55 65.65 1.0 78.9 0.3 86.05 -1.35 96.5 3.5 102.65 6.3 103.75 10.0 M-21.95 10.05 Q-20.85 6.35 -14.7 3.55 -4.25 -1.3 2.9 0.35 16.15 1.05 20.85 7.6 -5.25 -1.4 -21.95 10.55 L-21.95 10.05" fill="#cb7110" fill-rule="evenodd" stroke="none"/>
    <path d="M-21.6 11.0 Q-22.0 11.35 -22.4 10.85 -22.75 10.4 -22.25 10.05 L-21.85 9.7 -19.35 7.95 -18.8 7.65 -17.95 7.1 -17.6 6.95 -16.6 6.4 -15.7 5.95 -15.5 5.9 -14.35 5.35 -13.5 5.05 -13.3 4.95 -13.05 4.9 -9.35 3.75 -5.3 3.0 -1.05 2.7 0.0 2.65 1.05 2.7 3.15 2.8 7.25 3.25 10.1 3.75 19.2 6.3 21.0 7.0 Q21.5 7.15 21.4 7.75 21.2 8.35 20.65 8.15 L7.95 5.3 7.0 5.2 3.05 4.85 1.5 4.75 -2.5 4.85 -2.75 4.85 -3.0 4.9 -6.0 5.2 -6.5 5.3 -6.75 5.3 -9.15 5.75 -9.35 5.85 -11.4 6.35 -11.5 6.4 -11.6 6.4 -12.45 6.7 Q-13.95 7.2 -15.55 7.85 L-16.2 8.1 -16.85 8.45 -17.2 8.55 -20.5 10.35 -21.6 11.0 M104.05 10.0 Q104.55 10.3 104.2 10.8 L103.85 11.05 103.4 10.95 102.1 10.2 101.75 9.95 100.15 9.05 99.9 8.95 96.8 7.5 95.85 7.15 95.7 7.05 94.25 6.6 93.4 6.3 93.3 6.3 93.2 6.25 92.55 6.05 91.2 5.75 90.95 5.65 88.55 5.2 88.45 5.2 88.3 5.15 86.85 4.95 82.8 4.7 82.25 4.65 79.2 4.7 76.7 4.9 76.45 4.9 76.2 4.95 75.25 5.05 75.0 5.05 67.45 6.4 61.1 8.1 Q60.6 8.3 60.4 7.75 60.15 7.2 60.75 6.95 L61.75 6.55 68.2 4.5 74.75 3.15 75.0 3.15 76.0 3.0 76.25 3.0 76.5 2.95 80.7 2.7 81.75 2.65 84.45 2.75 84.7 2.75 84.95 2.8 91.15 3.75 94.85 4.9 95.05 4.95 97.3 5.9 97.5 5.95 97.65 6.05 99.7 7.1 100.05 7.25 102.5 8.85 102.85 9.1 103.05 9.2 103.2 9.3 104.05 10.0" fill="#4d2b06" fill-rule="evenodd" stroke="none"/>
  </g>
</svg>
