<?xml version="1.0" encoding="UTF-8" standalone="no"?>
<svg xmlns:xlink="http://www.w3.org/1999/xlink" height="37.6px" width="130.35px" xmlns="http://www.w3.org/2000/svg">
  <g transform="matrix(1.0, 0.0, 0.0, 1.0, 24.5, 4.0)">
    <path d="M63.05 6.15 Q86.35 -5.45 101.85 6.65 101.65 14.05 97.9 20.15 78.1 35.25 58.85 20.0 59.25 11.6 63.05 6.15 M17.1 4.3 L18.75 6.15 Q21.9 10.6 22.65 13.85 15.85 11.65 -1.5 11.9 -19.5 12.2 -20.3 15.8 -23.15 12.15 -24.5 4.1 -3.0 -6.05 17.1 4.3" fill="#ef8410" fill-rule="evenodd" stroke="none"/>
    <path d="M63.05 6.15 Q65.95 -0.7 79.95 -3.45 93.9 -6.2 105.85 5.35 104.9 6.3 101.85 6.65 86.35 -5.45 63.05 6.15 M97.9 20.15 Q88.95 39.5 65.8 28.9 59.0 25.75 58.85 20.0 78.1 35.25 97.9 20.15 M17.1 4.3 Q-3.0 -6.05 -24.5 4.1 -22.75 1.35 -21.4 1.0 2.5 -9.85 17.1 4.3 M-20.3 15.8 Q-19.5 12.2 -1.5 11.9 15.85 11.65 22.65 13.85 15.55 15.95 8.2 16.85 L0.05 17.45 Q-9.9 17.7 -20.3 15.8" fill="#cb7110" fill-rule="evenodd" stroke="none"/>
    <path d="M8.2 16.85 L8.35 17.85 Q8.35 18.65 7.5 19.6 L6.4 20.4 6.0 20.7 5.45 20.9 5.0 21.0 4.6 20.95 4.0 20.9 2.85 20.9 1.5 20.5 Q0.35 19.85 0.1 18.9 -0.1 18.3 0.05 17.45 L8.2 16.85" fill="#ede6de" fill-rule="evenodd" stroke="none"/>
    <path d="M9.4 23.15 Q8.85 23.95 8.05 23.95 7.15 23.95 6.8 23.35 L6.65 22.7 Q6.65 22.1 6.95 21.65 7.45 20.9 8.5 20.9 9.9 20.9 9.85 22.1 L9.4 23.15" fill="#ffffff" fill-rule="evenodd" stroke="none"/>
    <path d="M22.65 13.85 Q15.55 15.95 8.2 16.85 L0.05 17.45 Q-9.9 17.7 -20.3 15.8" fill="none" stroke="#4d2b06" stroke-linecap="round" stroke-linejoin="round" stroke-width="1.2000000000000002"/>
    <path d="M97.35 19.85 Q97.65 19.35 98.1 19.6 L98.4 19.95 98.4 20.4 97.9 21.55 97.5 22.35 96.25 24.55 94.3 27.25 92.65 29.0 91.45 30.0 89.65 31.2 87.6 32.2 Q85.35 33.15 83.0 33.45 L80.6 33.6 78.15 33.5 75.75 33.2 71.15 32.05 66.0 30.0 65.55 29.75 65.4 29.7 65.35 29.7 65.3 29.65 65.05 29.55 61.7 27.35 61.55 27.2 61.35 27.05 60.45 26.1 59.5 24.75 58.85 23.45 58.45 22.3 58.3 21.3 58.25 21.1 58.25 20.0 58.35 19.6 58.75 19.4 Q59.4 19.3 59.4 19.95 L59.45 20.1 59.45 20.25 59.5 20.5 59.8 21.9 60.15 22.9 60.75 23.95 61.65 25.0 61.75 25.15 62.45 25.8 62.8 26.05 64.2 27.05 65.85 27.9 66.15 28.05 66.2 28.05 71.75 30.15 73.9 30.75 78.35 31.55 Q80.75 31.7 82.8 31.5 84.95 31.3 86.9 30.45 L88.75 29.6 90.4 28.55 93.1 26.15 93.65 25.55 93.75 25.4 93.9 25.25 95.0 23.75 96.3 21.7 96.95 20.65 97.05 20.35 97.35 19.85" fill="#4d2b06" fill-rule="evenodd" stroke="none"/>
  </g>
</svg>
