<?xml version="1.0" encoding="UTF-8" standalone="no"?>
<svg xmlns:xlink="http://www.w3.org/1999/xlink" height="37.7px" width="129.6px" xmlns="http://www.w3.org/2000/svg">
  <g transform="matrix(1.0, 0.0, 0.0, 1.0, 24.5, 4.0)">
    <path d="M91.2 13.9 L91.2 14.0 Q91.55 15.75 91.2 16.7 90.85 17.7 89.7 18.2 L88.95 18.45 88.9 18.45 88.05 18.7 86.05 18.8 Q84.95 18.8 84.2 18.2 L83.65 17.65 Q83.0 16.7 82.95 15.75 82.85 13.8 84.0 13.45 L84.05 13.4 85.15 12.65 Q86.05 12.25 86.05 12.4 87.5 11.65 89.05 12.1 90.55 12.65 91.2 13.9 M7.65 14.9 Q8.2 15.15 8.75 15.7 L8.95 15.85 Q9.6 16.05 9.7 17.3 9.75 18.1 8.95 19.1 L7.9 19.95 7.5 20.25 6.95 20.5 6.5 20.6 6.1 20.6 5.5 20.6 4.35 20.65 4.25 20.65 Q3.5 20.65 3.0 20.3 1.8 19.75 1.5 18.8 1.15 17.8 1.6 16.05 2.3 14.7 3.75 14.25 L3.9 14.25 Q5.4 13.85 6.85 14.6 6.85 14.45 7.65 14.9" fill="#ede6de" fill-rule="evenodd" stroke="none"/>
    <path d="M93.2 19.9 L92.65 20.4 91.8 20.6 Q90.95 20.65 90.6 20.05 L90.4 19.45 Q90.35 18.35 91.25 18.25 L92.05 18.0 Q93.35 17.95 93.4 19.15 L93.2 19.9 M11.05 22.5 Q10.55 23.35 9.75 23.4 8.85 23.45 8.45 22.85 L8.25 22.25 Q8.25 21.65 8.5 21.15 8.95 20.4 10.0 20.3 11.4 20.25 11.45 21.45 L11.05 22.5" fill="#ffffff" fill-rule="evenodd" stroke="none"/>
    <path d="M104.85 3.9 Q80.95 10.6 59.05 14.1 63.65 -0.95 78.8 -4.0 100.05 -4.15 104.85 3.9 M96.4 25.25 Q94.15 28.5 91.35 30.45 78.25 33.95 59.55 26.85 84.7 23.5 96.4 25.25 M-24.5 4.0 Q-18.85 -4.15 2.4 -4.0 17.55 -0.95 22.15 14.1 0.9 10.7 -24.5 4.0 M-15.2 25.25 Q-3.5 23.5 21.65 26.85 2.95 33.95 -10.15 30.45 -12.95 28.5 -15.2 25.25" fill="#ef8410" fill-rule="evenodd" stroke="none"/>
    <path d="M104.85 3.9 Q105.85 6.75 102.95 7.25 L87.3 11.0 Q76.5 13.8 59.05 14.1 80.95 10.6 104.85 3.9 M99.15 20.6 L96.4 25.25 Q84.7 23.5 59.55 26.85 78.25 33.95 91.35 30.45 88.3 32.55 84.7 33.1 74.25 35.7 59.55 26.85 77.2 22.8 86.15 21.95 L99.15 20.6 M22.15 14.1 Q4.7 13.8 -6.1 11.0 L-21.65 6.8 Q-23.85 6.2 -24.5 4.0 0.9 10.7 22.15 14.1 M-17.95 20.6 L-4.95 21.95 Q4.0 22.8 21.65 26.85 -3.5 23.5 -15.2 25.25 -16.7 23.2 -17.95 20.6 M21.65 26.85 Q6.95 35.7 -3.5 33.1 -7.1 32.55 -10.15 30.45 2.95 33.95 21.65 26.85" fill="#cb7110" fill-rule="evenodd" stroke="none"/>
    <path d="M59.05 14.1 Q76.5 13.8 87.3 11.0 L102.95 7.25 M59.55 26.85 Q77.2 22.8 86.15 21.95 L99.15 20.6 M22.15 14.1 Q4.7 13.8 -6.1 11.0 L-21.65 6.8 M21.65 26.85 Q4.0 22.8 -4.95 21.95 L-17.95 20.6" fill="none" stroke="#4d2b06" stroke-linecap="round" stroke-linejoin="round" stroke-width="1.0"/>
  </g>
</svg>
