<?xml version="1.0" encoding="UTF-8" standalone="no"?>
<svg xmlns:xlink="http://www.w3.org/1999/xlink" height="27.35px" width="132.5px" xmlns="http://www.w3.org/2000/svg">
  <g transform="matrix(1.0, 0.0, 0.0, 1.0, 26.1, 3.85)">
    <path d="M58.8 22.45 L61.8 16.6 Q64.45 11.9 67.85 7.85 70.75 4.45 74.55 2.15 77.95 0.1 81.75 -0.9 L90.7 -1.8 97.65 -1.2 101.9 0.2 104.75 4.15 106.15 6.35 106.1 6.4 105.65 6.6 103.0 4.65 Q101.1 3.3 97.7 2.95 L91.1 2.95 Q73.65 6.35 68.1 12.0 67.05 13.05 62.95 18.25 L59.05 23.0 58.8 22.45 M21.5 22.45 L21.25 23.0 17.35 18.25 12.2 12.0 Q6.65 6.35 -10.8 2.95 L-17.4 2.95 Q-20.8 3.3 -22.7 4.65 L-25.35 6.6 -25.8 6.4 -25.85 6.35 -24.45 4.15 -21.6 0.2 -17.35 -1.2 -10.4 -1.8 -1.45 -0.9 Q2.35 0.1 5.75 2.15 9.55 4.45 12.45 7.85 15.85 11.9 18.5 16.6 L21.5 22.45" fill="#d6eefb" fill-rule="evenodd" stroke="none"/>
    <path d="M58.8 22.45 L58.8 21.65 Q58.8 21.0 61.1 15.4 63.5 9.6 64.65 7.8 L67.15 4.3 Q68.8 2.35 70.8 1.2 L76.25 -1.7 Q79.8 -3.05 86.3 -3.85 L95.9 -3.85 Q102.25 -2.45 104.2 0.75 105.3 2.55 106.4 6.0 L106.15 6.35 104.75 4.15 101.9 0.2 97.65 -1.2 90.7 -1.8 81.75 -0.9 Q77.95 0.1 74.55 2.15 70.75 4.45 67.85 7.85 64.45 11.9 61.8 16.6 L58.8 22.45 M-25.85 6.35 L-26.1 6.0 Q-25.0 2.55 -23.9 0.75 -21.95 -2.45 -15.6 -3.85 L-6.0 -3.85 Q0.5 -3.05 4.05 -1.7 L9.5 1.2 Q11.5 2.35 13.15 4.3 L15.65 7.8 Q16.8 9.6 19.2 15.4 21.5 21.0 21.5 21.65 L21.5 22.45 18.5 16.6 Q15.85 11.9 12.45 7.85 9.55 4.45 5.75 2.15 2.35 0.1 -1.45 -0.9 L-10.4 -1.8 -17.35 -1.2 -21.6 0.2 -24.45 4.15 -25.85 6.35" fill="#a4c9de" fill-rule="evenodd" stroke="none"/>
    <path d="M59.3 22.75 L62.95 18.25 Q67.05 13.05 68.1 12.0 73.65 6.35 91.1 2.95 94.2 2.3 97.7 2.95 101.1 3.3 103.0 4.65 L105.65 6.6 M21.1 22.9 L17.35 18.25 12.2 12.0 Q6.65 6.35 -10.8 2.95 -14.3 2.05 -17.4 2.95 -20.8 3.3 -22.7 4.65 L-25.35 6.6" fill="none" stroke="#4a4f58" stroke-linecap="round" stroke-linejoin="round" stroke-width="1.2000000000000002"/>
  </g>
</svg>
