<?xml version="1.0" encoding="UTF-8" standalone="no"?>
<svg xmlns:xlink="http://www.w3.org/1999/xlink" height="37.45px" width="130.15px" xmlns="http://www.w3.org/2000/svg">
  <g transform="matrix(1.0, 0.0, 0.0, 1.0, 24.4, 5.4)">
    <path d="M61.2 14.25 Q63.9 7.85 73.45 2.35 82.3 -2.8 88.45 -2.8 95.95 -2.8 99.6 -1.35 101.65 -0.5 104.8 1.3 L105.6 3.05 105.65 3.25 105.75 4.45 Q105.75 7.65 104.8 11.55 L104.25 13.55 Q103.4 16.3 102.15 18.6 L96.35 23.9 Q94.0 26.05 91.1 27.3 88.05 28.65 84.65 29.2 L78.4 29.65 74.25 29.15 Q70.4 28.4 66.9 26.65 64.05 25.3 61.6 23.25 L60.55 22.4 60.5 22.25 60.3 21.3 60.1 19.35 60.05 19.4 60.1 19.0 60.1 18.4 60.1 17.0 Q60.25 16.0 60.75 15.7 L61.2 14.25 M20.15 14.25 L20.6 15.7 Q21.1 16.0 21.25 17.0 L21.25 18.4 21.25 19.0 21.3 19.4 21.25 19.35 21.05 21.3 20.85 22.25 20.8 22.4 19.75 23.25 Q17.3 25.3 14.45 26.65 10.95 28.4 7.1 29.15 L2.95 29.65 -3.3 29.2 Q-6.7 28.65 -9.75 27.3 -12.65 26.05 -15.0 23.9 L-20.8 18.6 Q-22.05 16.3 -22.9 13.55 L-23.45 11.55 Q-24.4 7.65 -24.4 4.45 L-24.3 3.25 -24.25 3.05 -23.45 1.3 -18.25 -1.35 Q-14.6 -2.8 -7.1 -2.8 -0.95 -2.8 7.9 2.35 17.45 7.85 20.15 14.25" fill="#d6eefb" fill-rule="evenodd" stroke="none"/>
    <path d="M104.8 1.3 Q101.65 -0.5 99.6 -1.35 95.95 -2.8 88.45 -2.8 82.3 -2.8 73.45 2.35 63.9 7.85 61.2 14.25 65.1 3.8 76.8 -1.75 84.6 -5.4 89.9 -5.4 93.55 -5.4 96.35 -4.45 101.1 -2.9 104.8 1.3 M60.55 22.4 L61.6 23.25 Q64.05 25.3 66.9 26.65 70.4 28.4 74.25 29.15 L78.4 29.65 84.65 29.2 Q88.05 28.65 91.1 27.3 94.0 26.05 96.35 23.9 L102.15 18.6 100.75 21.2 100.25 22.15 Q99.05 24.3 97.85 25.6 95.95 27.6 93.05 28.75 89.0 30.3 81.15 31.25 L80.85 31.45 76.85 31.45 Q66.0 29.65 62.4 25.9 61.1 24.55 60.55 22.4 M20.15 14.25 Q17.45 7.85 7.9 2.35 -0.95 -2.8 -7.1 -2.8 -14.6 -2.8 -18.25 -1.35 L-23.45 1.3 Q-19.75 -2.9 -15.0 -4.45 -12.2 -5.4 -8.55 -5.4 -3.25 -5.4 4.55 -1.75 16.25 3.8 20.15 14.25 M-20.8 18.6 L-15.0 23.9 Q-12.65 26.05 -9.75 27.3 -6.7 28.65 -3.3 29.2 L2.95 29.65 7.1 29.15 Q10.95 28.4 14.45 26.65 17.3 25.3 19.75 23.25 L20.8 22.4 Q20.25 24.55 18.95 25.9 15.35 29.65 4.5 31.45 L0.5 31.45 0.2 31.25 Q-7.65 30.3 -11.7 28.75 -14.6 27.6 -16.5 25.6 -17.7 24.3 -18.9 22.15 L-19.4 21.2 -20.8 18.6" fill="#a4c9de" fill-rule="evenodd" stroke="none"/>
    <path d="M60.55 22.4 Q61.1 24.55 62.4 25.9 66.0 29.65 76.85 31.45 L80.85 31.45 81.15 31.25 Q89.0 30.3 93.05 28.75 95.95 27.6 97.85 25.6 99.05 24.3 100.25 22.15 L100.75 21.2 102.15 18.6 M20.8 22.4 Q20.25 24.55 18.95 25.9 15.35 29.65 4.5 31.45 L0.5 31.45 0.2 31.25 Q-7.65 30.3 -11.7 28.75 -14.6 27.6 -16.5 25.6 -17.7 24.3 -18.9 22.15 L-19.4 21.2 -20.8 18.6" fill="none" stroke="#231f20" stroke-linecap="round" stroke-linejoin="round" stroke-width="1.2000000000000002"/>
  </g>
</svg>
