<?xml version="1.0" encoding="UTF-8" standalone="no"?>
<svg xmlns:xlink="http://www.w3.org/1999/xlink" height="29.75px" width="130.25px" xmlns="http://www.w3.org/2000/svg">
  <g transform="matrix(1.0, 0.0, 0.0, 1.0, 24.45, 5.4)">
    <path d="M104.8 1.3 Q105.75 2.8 105.8 4.4 L105.65 4.4 105.25 4.5 101.4 3.95 93.55 4.15 89.9 4.8 84.85 6.05 Q80.65 7.25 76.8 9.55 L73.6 11.55 Q72.7 11.8 72.0 12.55 68.85 14.65 65.8 16.95 63.2 18.9 61.3 21.45 60.55 22.45 59.9 23.6 L59.85 22.85 Q59.85 20.7 60.15 18.7 60.5 16.4 61.2 14.25 63.9 7.85 73.45 2.35 77.95 -0.25 81.75 -1.55 85.4 -2.8 88.45 -2.8 95.95 -2.8 99.6 -1.35 101.65 -0.5 104.8 1.3 M21.45 23.6 L20.05 21.45 Q18.15 18.9 15.55 16.95 10.25 12.95 4.55 9.55 0.7 7.25 -3.5 6.05 -7.75 4.75 -12.2 4.15 L-20.05 3.95 -23.9 4.5 -24.3 4.4 -24.45 4.4 -24.25 3.2 -23.45 1.3 -18.25 -1.35 Q-14.6 -2.8 -7.1 -2.8 -0.95 -2.8 7.9 2.35 17.45 7.85 20.15 14.25 20.85 16.4 21.2 18.7 L21.3 19.4 21.5 22.85 21.45 23.6" fill="#d6eefb" fill-rule="evenodd" stroke="none"/>
    <path d="M61.2 14.25 Q65.05 4.0 76.4 -1.55 L76.8 -1.75 Q84.6 -5.4 89.9 -5.4 93.55 -5.4 96.35 -4.45 101.1 -2.9 104.8 1.3 101.65 -0.5 99.6 -1.35 95.95 -2.8 88.45 -2.8 85.4 -2.8 81.75 -1.55 77.95 -0.25 73.45 2.35 63.9 7.85 61.2 14.25 M105.25 4.5 Q104.9 4.65 104.9 5.1 L104.95 5.35 Q104.5 5.45 104.5 6.05 L104.5 6.15 103.0 6.3 94.5 6.55 89.9 7.35 Q83.65 8.75 77.05 12.15 73.9 13.75 70.7 15.85 L70.6 15.9 70.45 16.0 70.3 16.1 Q65.25 19.35 60.0 23.75 L59.9 23.6 Q60.55 22.45 61.3 21.45 63.2 18.9 65.8 16.95 68.85 14.65 72.0 12.55 72.7 11.8 73.6 11.55 L76.8 9.55 Q80.65 7.25 84.85 6.05 L89.9 4.8 93.55 4.15 101.4 3.95 105.25 4.5 M21.45 23.6 L21.35 23.75 Q2.95 8.35 -13.15 6.55 L-21.65 6.3 -23.15 6.15 -23.15 6.05 Q-23.15 5.45 -23.6 5.35 L-23.55 5.1 Q-23.55 4.65 -23.9 4.5 L-20.05 3.95 -12.2 4.15 Q-7.75 4.75 -3.5 6.05 0.7 7.25 4.55 9.55 10.25 12.95 15.55 16.95 18.15 18.9 20.05 21.45 L21.45 23.6 M-23.45 1.3 Q-19.75 -2.9 -15.0 -4.45 -12.2 -5.4 -8.55 -5.4 -3.25 -5.4 4.55 -1.75 16.25 3.8 20.15 14.25 17.45 7.85 7.9 2.35 -0.95 -2.8 -7.1 -2.8 -14.6 -2.8 -18.25 -1.35 L-23.45 1.3" fill="#a4c9de" fill-rule="evenodd" stroke="none"/>
    <path d="M104.5 6.15 L103.0 6.3 94.5 6.55 89.9 7.35 Q83.65 8.75 77.05 12.15 73.9 13.75 70.7 15.85 L70.6 15.9 70.45 16.0 70.3 16.1 Q65.25 19.35 60.0 23.75 M-23.15 6.15 L-21.65 6.3 -13.15 6.55 Q2.95 8.35 21.35 23.75" fill="none" stroke="#231f20" stroke-linecap="round" stroke-linejoin="round" stroke-width="1.2000000000000002"/>
  </g>
</svg>
