<?xml version="1.0" encoding="UTF-8" standalone="no"?>
<svg xmlns:xlink="http://www.w3.org/1999/xlink" height="47.15px" width="139.25px" xmlns="http://www.w3.org/2000/svg">
  <g transform="matrix(1.0, 0.0, 0.0, 1.0, 32.75, 8.6)">
    <path d="M61.55 9.25 Q66.5 3.65 70.4 1.6 74.65 -0.65 80.95 -0.65 86.25 -0.65 90.55 0.75 94.5 2.05 96.9 3.5 98.65 6.05 99.55 8.3 100.1 9.25 102.85 17.0 L104.85 22.3 Q95.2 27.15 88.25 31.1 85.05 32.75 80.25 32.75 72.9 32.75 67.9 30.45 64.65 28.9 55.7 22.5 L54.45 25.1 Q60.05 11.3 61.55 9.25 M-31.0 22.3 L-29.0 17.0 Q-26.25 9.25 -25.7 8.3 -24.8 6.05 -23.05 3.5 -20.65 2.05 -16.7 0.75 -12.4 -0.65 -7.1 -0.65 -0.8 -0.65 3.45 1.6 7.35 3.65 12.3 9.25 13.8 11.3 19.4 25.1 L18.15 22.5 Q9.2 28.9 5.95 30.45 0.95 32.75 -6.4 32.75 -11.2 32.75 -14.4 31.1 -21.35 27.15 -31.0 22.3" fill="#f7f8fa" fill-rule="evenodd" stroke="none"/>
    <path d="M61.55 9.25 Q65.3 1.5 68.8 -3.05 72.3 -7.65 78.45 -8.45 84.6 -9.3 89.7 -4.65 92.7 -1.95 96.9 3.5 94.5 2.05 90.55 0.75 86.25 -0.65 80.95 -0.65 74.65 -0.65 70.4 1.6 66.5 3.65 61.55 9.25 M104.85 22.3 L104.95 22.3 105.65 25.15 105.75 25.5 Q93.9 35.4 90.05 36.6 86.2 37.8 79.55 37.8 71.15 37.8 61.4 32.9 56.45 30.45 53.05 27.8 L54.45 25.1 55.7 22.5 Q64.65 28.9 67.9 30.45 72.9 32.75 80.25 32.75 85.05 32.75 88.25 31.1 95.2 27.15 104.85 22.3 M19.4 25.1 L20.8 27.8 Q17.4 30.45 12.45 32.9 2.7 37.8 -5.7 37.8 -12.35 37.8 -16.2 36.6 -20.05 35.4 -31.9 25.5 L-31.8 25.15 -31.1 22.3 -31.0 22.3 Q-21.35 27.15 -14.4 31.1 -11.2 32.75 -6.4 32.75 0.95 32.75 5.95 30.45 9.2 28.9 18.15 22.5 L19.4 25.1 M-23.05 3.5 Q-18.85 -1.95 -15.85 -4.65 -10.75 -9.3 -4.6 -8.45 1.55 -7.65 5.05 -3.05 8.55 1.5 12.3 9.25 7.35 3.65 3.45 1.6 -0.8 -0.65 -7.1 -0.65 -12.4 -0.65 -16.7 0.75 -20.65 2.05 -23.05 3.5" fill="#f5e9eb" fill-rule="evenodd" stroke="none"/>
    <path d="M105.75 25.5 Q82.35 49.1 52.35 27.5 M-32.0 25.5 Q-8.6 49.1 21.4 27.5" fill="none" stroke="#666666" stroke-linecap="round" stroke-linejoin="round" stroke-width="1.5"/>
  </g>
</svg>
