<?xml version="1.0" encoding="UTF-8" standalone="no"?>
<svg xmlns:xlink="http://www.w3.org/1999/xlink" height="15.4px" width="126.25px" xmlns="http://www.w3.org/2000/svg">
  <g transform="matrix(1.0, 0.0, 0.0, 1.0, 26.05, 10.3)">
    <path d="M-19.55 -3.4 L-19.1 -3.85 -15.85 -6.7 -14.35 -7.85 -12.25 -9.05 -10.5 -9.85 -5.55 -10.3 Q-0.8 -10.3 1.95 -8.35 L7.1 -3.3 10.95 1.55 11.05 1.65 11.95 3.1 6.3 -0.2 Q2.65 -2.3 -1.3 -3.5 L-3.6 -4.1 Q-6.4 -6.15 -9.9 -4.15 L-13.05 -3.1 Q-16.9 -1.65 -20.3 0.75 L-25.1 4.25 -25.25 4.2 -23.75 1.65 -22.2 -0.45 -19.55 -3.4 M93.75 -3.4 L96.4 -0.45 97.95 1.65 99.45 4.2 99.3 4.25 94.5 0.75 Q91.1 -1.65 87.25 -3.1 L84.1 -4.15 Q80.6 -6.15 77.8 -4.1 L75.5 -3.5 Q71.55 -2.3 67.9 -0.2 L62.25 3.1 63.15 1.65 63.25 1.55 Q64.9 -0.8 67.1 -3.3 L72.25 -8.35 Q75.0 -10.3 79.75 -10.3 L84.7 -9.85 86.45 -9.05 88.55 -7.85 90.05 -6.7 93.3 -3.85 93.75 -3.4" fill="#f5e9eb" fill-rule="evenodd" stroke="none"/>
    <path d="M99.45 4.35 Q89.2 -4.95 81.5 -4.85 73.85 -4.75 68.55 -0.9 L60.95 4.15 M-25.3 4.35 Q-15.05 -4.95 -7.35 -4.85 0.3 -4.75 5.6 -0.9 L13.2 4.15" fill="none" stroke="#666666" stroke-linecap="round" stroke-linejoin="round" stroke-width="1.5"/>
  </g>
</svg>
