<?xml version="1.0" encoding="UTF-8" standalone="no"?>
<svg xmlns:xlink="http://www.w3.org/1999/xlink" height="50.05px" width="141.1px" xmlns="http://www.w3.org/2000/svg">
  <g transform="matrix(1.0, 0.0, 0.0, 1.0, 33.45, 10.3)">
    <path d="M-5.3 -10.25 Q-1.95 -9.9 1.85 -7.85 L1.7 -7.95 2.3 -7.6 2.45 -7.45 Q12.4 1.85 16.05 15.45 L16.55 17.55 17.55 23.3 21.75 25.75 Q22.4 26.15 22.65 26.9 22.85 27.7 22.5 28.4 22.1 29.1 21.35 29.35 L14.65 31.55 13.5 32.35 13.35 32.45 Q-2.95 43.2 -17.95 36.45 -21.9 34.65 -25.7 31.7 L-25.9 31.55 -26.85 30.8 -28.7 29.2 -32.4 27.1 Q-33.1 26.7 -33.35 26.0 -33.6 25.25 -33.25 24.55 -32.95 23.8 -32.2 23.5 L-29.95 22.55 Q-28.1 5.65 -17.05 -5.35 L-16.95 -5.5 Q-15.85 -6.8 -14.6 -7.7 L-14.55 -7.75 -14.4 -7.8 -14.35 -7.85 -12.4 -9.05 -11.4 -9.4 -6.05 -10.25 -6.0 -10.25 -5.3 -10.25 M79.5 -9.55 L80.2 -9.55 80.25 -9.55 85.6 -8.7 86.6 -8.35 88.55 -7.15 88.6 -7.1 88.75 -7.05 88.8 -7.0 91.15 -4.8 91.25 -4.65 Q102.3 6.35 104.15 23.25 L106.4 24.2 Q107.15 24.5 107.45 25.25 107.8 25.95 107.55 26.7 L106.6 27.8 102.9 29.9 100.1 32.25 99.9 32.4 Q81.4 46.7 60.85 33.15 L60.7 33.05 59.55 32.25 52.85 30.05 Q52.1 29.8 51.7 29.1 51.35 28.4 51.55 27.6 51.8 26.85 52.45 26.45 L56.65 24.0 Q59.0 5.15 71.75 -6.75 L71.9 -6.9 72.5 -7.25 72.35 -7.15 Q76.15 -9.2 79.5 -9.55 M-31.8 24.9 Q-4.15 17.0 18.1 25.35 14.75 21.85 10.95 19.0 5.65 15.0 -0.1 11.65 -6.95 12.7 -13.6 14.5 -18.4 15.8 -22.7 18.25 -25.25 19.6 -27.5 21.45 L-31.8 24.9 M56.05 25.25 Q79.3 15.15 106.3 25.0 102.3 21.8 97.9 19.4 90.7 15.35 82.75 14.0 L69.85 13.4 60.9 19.95 56.05 25.25" fill="#f7f8fa" fill-rule="evenodd" stroke="none"/>
    <path d="M56.05 25.25 L60.9 19.95 69.85 13.4 82.75 14.0 Q90.7 15.35 97.9 19.4 102.3 21.8 106.3 25.0 79.3 15.15 56.05 25.25 M-31.8 24.9 L-27.5 21.45 Q-25.25 19.6 -22.7 18.25 -18.4 15.8 -13.6 14.5 -6.95 12.7 -0.1 11.65 5.65 15.0 10.95 19.0 14.75 21.85 18.1 25.35 -4.15 17.0 -31.8 24.9" fill="#f5e9eb" fill-rule="evenodd" stroke="none"/>
    <path d="M-31.9 25.4 L-32.05 25.4 -32.05 25.25 -31.35 24.5 -31.1 24.15 -28.0 21.0 -20.8 15.4 -17.4 13.5 -14.95 12.45 -13.65 11.95 -13.45 11.9 -12.95 11.7 -12.3 11.5 -6.6 10.5 -3.7 10.5 -3.35 10.5 -1.9 10.7 -1.7 10.7 -1.55 10.75 -0.85 10.85 1.85 11.55 4.45 12.55 4.75 12.65 6.25 13.4 8.95 15.1 Q11.0 16.6 12.45 18.05 L12.65 18.2 12.8 18.4 13.2 18.75 15.05 20.85 16.85 23.15 17.2 23.6 18.25 25.25 18.25 25.4 18.1 25.4 17.6 24.95 17.35 24.65 14.15 21.7 8.65 17.6 8.15 17.35 7.7 17.05 3.45 15.0 1.7 14.4 1.4 14.35 0.8 14.15 0.45 14.1 0.15 14.0 0.0 14.0 -0.1 13.95 -1.35 13.7 -1.95 13.65 -2.1 13.6 -2.25 13.6 -2.6 13.55 -3.55 13.5 -3.85 13.45 -6.45 13.5 -9.0 13.8 -10.9 14.15 -11.5 14.35 -11.8 14.4 -13.95 15.05 -16.3 15.95 -18.0 16.7 -18.25 16.85 -18.55 16.95 -27.15 22.05 -27.5 22.25 -31.9 25.4 M106.4 25.25 L106.4 25.4 106.25 25.4 102.8 22.95 101.5 22.0 95.0 18.0 90.65 15.9 86.15 14.35 85.85 14.3 85.25 14.1 83.35 13.75 80.75 13.45 78.2 13.4 77.9 13.45 76.95 13.5 76.6 13.55 76.45 13.55 76.3 13.6 75.65 13.65 74.45 13.9 74.3 13.95 74.1 13.95 73.8 14.05 73.5 14.1 72.9 14.3 72.6 14.35 70.85 14.95 66.1 17.3 60.15 21.7 56.2 25.4 56.1 25.4 56.05 25.25 57.1 23.6 61.85 18.0 65.35 15.1 65.85 14.7 66.4 14.4 66.65 14.2 68.65 13.1 68.9 12.9 69.55 12.65 69.7 12.55 69.85 12.5 Q70.75 12.05 72.4 11.5 L75.15 10.8 75.9 10.7 76.05 10.65 76.25 10.65 77.7 10.45 78.05 10.45 80.95 10.45 Q83.75 10.65 86.65 11.45 L87.0 11.55 87.3 11.7 91.75 13.5 95.65 15.7 100.6 19.4 103.8 22.4 105.1 23.75 105.7 24.5 106.4 25.25" fill="#666666" fill-rule="evenodd" stroke="none"/>
  </g>
</svg>
