<?xml version="1.0" encoding="UTF-8" standalone="no"?>
<svg xmlns:xlink="http://www.w3.org/1999/xlink" height="62.65px" width="50.15px" xmlns="http://www.w3.org/2000/svg">
  <g transform="matrix(1.0, 0.0, 0.0, 1.0, 14.8, 41.05)">
    <path d="M8.55 -2.95 L10.6 -1.15 Q11.55 0.1 11.55 2.95 L11.35 4.9 11.3 5.15 11.0 7.2 11.0 7.7 10.85 8.6 Q10.65 8.9 9.95 8.9 9.15 8.9 8.7 8.1 L8.55 7.8 9.7 5.25 Q11.0 2.6 11.0 1.95 11.0 1.6 10.4 1.15 10.15 0.95 9.85 0.85 L9.15 -0.45 Q8.1 -1.65 3.45 -4.1 1.1 -5.35 -4.8 -11.55 L-4.8 -12.0 Q-3.0 -11.6 -0.25 -9.15 L4.35 -5.25 8.55 -2.95 M-12.85 -16.9 L-13.2 -17.7 Q-14.05 -20.05 -14.2 -23.0 L-14.25 -24.25 -13.65 -31.5 Q-13.55 -32.4 -13.75 -35.25 -13.6 -36.35 -13.0 -36.95 L-13.05 -37.2 -13.05 -38.0 -11.15 -37.8 -11.0 -37.85 -10.85 -37.95 Q-10.25 -37.75 -10.1 -37.25 L-10.1 -36.3 -10.85 -35.9 -11.1 -36.15 -11.55 -34.75 Q-12.15 -33.25 -12.15 -30.75 -12.15 -29.45 -12.45 -27.05 L-12.75 -24.45 Q-12.75 -21.1 -11.4 -18.35 -10.2 -15.95 -6.9 -12.0 L-7.35 -11.3 Q-7.5 -11.1 -7.8 -11.1 L-10.2 -13.45 Q-12.1 -15.5 -12.85 -16.9 M27.15 2.55 Q27.15 3.15 26.4 3.5 L25.4 3.8 Q24.65 3.8 24.3 3.45 24.2 3.8 24.2 3.05 24.2 2.6 25.15 2.15 L27.0 2.1 Q27.15 1.8 27.15 2.55 M28.35 3.3 Q28.35 3.85 27.6 4.2 L26.85 3.6 Q26.85 3.0 27.6 2.75 L28.35 3.3 M29.9 20.95 Q28.8 20.45 27.85 19.55 L27.45 18.75 27.45 15.75 Q27.45 13.35 28.65 11.0 29.85 8.6 29.85 11.95 L29.8 12.9 28.95 13.8 28.95 17.85 29.95 17.05 Q30.4 16.65 31.0 16.65 33.4 16.65 34.35 18.35 34.8 19.15 34.8 20.0 L34.8 20.85 Q34.6 21.45 33.45 21.45 L29.9 20.95 M30.75 17.3 L30.75 18.4 31.05 20.7 31.15 20.8 31.85 20.85 Q34.2 20.85 34.2 19.3 34.2 18.9 33.05 18.15 31.8 17.25 30.75 17.3 M7.8 3.55 L7.8 0.05 8.55 -0.05 9.1 0.65 8.6 0.6 7.8 3.55" fill="#ffffff" fill-opacity="0.8" fill-rule="evenodd" stroke="none"/>
    <path d="M11.35 4.9 L11.3 6.6 11.0 7.2 11.3 5.15 11.35 4.9 M8.7 8.1 L8.55 8.1 8.45 8.1 8.55 7.8 8.7 8.1 M7.0 7.75 Q5.15 6.85 4.7 3.7 3.85 -1.7 3.35 -2.2 1.45 -4.0 -3.0 -7.0 -8.1 -10.45 -9.65 -11.7 -11.65 -13.35 -12.85 -16.9 -12.1 -15.5 -10.2 -13.45 L-7.8 -11.1 Q-7.5 -11.1 -7.35 -11.3 L-6.9 -12.0 Q-10.2 -15.95 -11.4 -18.35 -12.75 -21.1 -12.75 -24.45 L-12.45 -27.05 Q-12.15 -29.45 -12.15 -30.75 -12.15 -33.25 -11.55 -34.75 L-11.1 -36.15 -10.85 -35.9 -10.1 -36.3 -10.1 -37.25 Q-10.25 -37.75 -10.85 -37.95 L-11.0 -37.85 -11.15 -37.8 -13.05 -38.0 -13.05 -37.2 -13.0 -36.95 Q-13.6 -36.35 -13.75 -35.25 -13.55 -32.4 -13.65 -31.5 L-14.25 -24.25 -14.2 -23.0 Q-14.8 -27.05 -14.8 -31.95 -14.8 -35.7 -12.2 -39.55 -9.65 -43.4 -9.65 -37.45 -9.65 -37.1 -10.4 -34.8 L-10.7 -33.8 -10.65 -33.1 Q-10.65 -32.3 -11.15 -31.8 -11.05 -23.15 -7.65 -17.4 -5.15 -13.2 0.1 -9.45 L7.85 -3.7 8.55 -2.95 4.35 -5.25 -0.25 -9.15 Q-3.0 -11.6 -4.8 -12.0 L-4.8 -11.55 Q1.1 -5.35 3.45 -4.1 8.1 -1.65 9.15 -0.45 L9.85 0.85 9.1 0.65 8.55 -0.05 7.8 0.05 7.8 3.55 7.75 3.7 Q6.9 6.6 6.9 7.4 L7.0 7.75 M28.35 3.3 L27.6 2.75 Q26.85 3.0 26.85 3.6 L27.6 4.2 Q28.35 3.85 28.35 3.3 M27.15 2.55 Q27.15 1.8 27.0 2.1 L25.15 2.15 Q24.2 2.6 24.2 3.05 24.2 3.8 24.3 3.45 24.65 3.8 25.4 3.8 L26.4 3.5 Q27.15 3.15 27.15 2.55 M27.85 19.55 L27.35 19.0 25.6 16.3 Q25.6 15.5 26.6 13.7 27.6 11.9 27.6 11.05 27.6 8.85 25.85 6.6 L24.1 4.15 Q24.1 1.8 25.25 0.75 26.3 -0.2 27.75 0.5 31.35 2.25 31.35 9.8 31.35 12.75 33.35 15.65 35.35 18.6 35.35 19.65 35.35 21.6 32.8 21.6 31.25 21.6 29.9 20.95 L33.45 21.45 Q34.6 21.45 34.8 20.85 L34.8 20.0 Q34.8 19.15 34.35 18.35 33.4 16.65 31.0 16.65 30.4 16.65 29.95 17.05 L28.95 17.85 28.95 13.8 29.8 12.9 29.85 11.95 Q29.85 8.6 28.65 11.0 27.45 13.35 27.45 15.75 L27.45 18.75 27.85 19.55" fill="#ffffff" fill-opacity="0.4" fill-rule="evenodd" stroke="none"/>
    <path d="M8.45 8.1 L8.4 8.4 7.65 8.7 Q7.1 8.2 7.0 7.75 L6.9 7.4 Q6.9 6.6 7.75 3.7 L7.8 3.55 8.6 0.6 9.1 0.65 9.85 0.85 Q10.15 0.95 10.4 1.15 11.0 1.6 11.0 1.95 11.0 2.6 9.7 5.25 L8.55 7.8 8.45 8.1 M30.75 17.3 Q31.8 17.25 33.05 18.15 34.2 18.9 34.2 19.3 34.2 20.85 31.85 20.85 L31.15 20.8 31.05 20.7 30.75 18.4 30.75 17.3" fill="#feeee0" fill-opacity="0.8980392" fill-rule="evenodd" stroke="none"/>
  </g>
</svg>
