<?xml version="1.0" encoding="UTF-8" standalone="no"?>
<svg xmlns:xlink="http://www.w3.org/1999/xlink" height="60.5px" width="89.65px" xmlns="http://www.w3.org/2000/svg">
  <g transform="matrix(1.0, 0.0, 0.0, 1.0, 44.8, 30.25)">
    <path d="M38.2 6.35 L38.85 6.55 Q39.75 6.55 39.9 5.45 L39.9 4.05 39.9 3.25 39.9 2.75 39.6 1.05 39.9 0.25 39.55 -0.55 Q39.05 -1.35 38.1 -1.4 L37.45 -2.1 Q34.95 -4.5 34.95 -2.0 34.95 -1.5 35.95 -0.4 37.0 0.7 37.05 1.1 L37.45 2.95 37.7 3.45 37.65 4.0 37.6 4.8 36.7 2.2 Q33.1 -2.55 25.95 -2.95 L21.8 -3.3 Q20.1 -3.7 20.1 -5.25 20.1 -6.7 22.1 -8.0 23.95 -9.2 26.4 -9.5 32.7 -10.25 32.5 -4.95 L32.4 -4.95 33.05 -4.7 Q33.8 -6.05 36.35 -4.7 39.6 -2.95 39.9 -1.1 41.55 -0.15 41.55 2.2 L41.35 3.35 44.85 8.7 Q44.85 9.4 44.1 10.1 43.3 10.8 42.35 10.8 39.95 10.8 38.45 7.0 L38.2 6.35 M30.0 -5.5 Q30.0 -7.35 25.75 -6.9 21.45 -6.5 21.45 -5.35 L21.55 -4.7 Q21.75 -4.1 22.55 -4.1 L26.3 -4.35 Q30.0 -4.8 30.0 -5.5 M-9.35 3.85 Q-11.8 -2.7 -20.85 -11.9 L-21.15 -12.2 Q-21.2 -11.3 -22.0 -10.8 L-22.25 -10.65 Q-21.15 -9.6 -21.15 -8.75 -21.15 -8.3 -21.45 -7.85 L-22.05 -8.35 Q-22.85 -8.75 -23.1 -7.8 -24.2 -9.1 -24.8 -9.1 -26.15 -9.1 -26.15 -8.05 L-25.8 -7.1 Q-27.5 -7.6 -28.3 -8.95 -28.95 -9.95 -28.85 -10.8 -28.85 -13.3 -27.2 -13.25 L-27.3 -12.8 -26.95 -11.45 -26.9 -11.3 -27.0 -10.85 Q-26.95 -9.85 -25.85 -9.85 L-25.1 -10.1 Q-23.75 -10.1 -23.75 -11.15 -23.75 -11.55 -24.35 -12.25 L-25.2 -13.4 Q-25.6 -14.35 -26.05 -14.4 -25.35 -15.0 -23.9 -14.7 L-23.6 -14.6 -29.4 -20.1 Q-33.25 -23.85 -33.25 -24.85 -33.25 -26.7 -28.7 -24.5 -24.0 -22.3 -18.65 -17.7 -4.1 -5.1 -4.1 7.75 -4.1 8.85 -5.0 11.85 -5.3 10.9 -6.25 10.5 -7.65 9.9 -7.65 11.3 L-7.05 12.75 Q-6.4 14.2 -6.0 14.2 L-5.8 14.2 -6.85 17.2 -6.85 17.4 -7.15 18.1 -7.75 19.6 Q-11.8 30.25 -14.0 30.25 -15.5 30.25 -15.95 29.15 -17.1 27.65 -18.4 22.35 -18.4 16.2 -12.6 15.35 L-10.75 15.25 Q-8.5 11.45 -8.5 8.25 L-8.7 6.25 -8.6 6.5 Q-7.6 8.95 -6.85 8.95 -5.7 8.95 -5.7 7.6 -5.7 7.15 -6.3 5.95 L-7.05 4.55 Q-7.7 2.7 -8.6 2.85 -9.3 2.95 -9.35 3.85 M-21.0 -7.05 Q-20.05 -6.45 -20.05 -4.6 -20.05 -1.8 -22.25 -1.8 -23.9 -1.8 -24.3 -3.2 -24.55 -3.85 -24.45 -4.6 -23.35 -3.2 -22.05 -3.2 -21.55 -3.2 -21.15 -3.55 -20.85 -3.9 -20.85 -4.25 L-21.05 -4.65 -20.85 -5.6 Q-20.85 -6.45 -21.0 -7.05 M-9.05 20.7 Q-9.05 19.65 -9.4 19.25 -9.05 18.35 -9.05 17.65 -9.05 14.7 -12.35 16.7 -15.65 18.7 -15.65 20.15 L-15.4 21.25 -14.7 21.9 Q-15.65 23.25 -15.65 24.85 L-15.5 26.4 Q-15.1 27.75 -13.45 27.75 -12.85 27.75 -10.95 24.65 -9.05 21.6 -9.05 20.7 M-8.85 -3.7 Q-8.85 -4.0 -10.55 -5.95 L-12.6 -8.45 -15.2 -11.3 Q-16.95 -12.8 -16.95 -10.6 -16.95 -10.2 -14.15 -6.55 -11.1 -2.65 -10.0 -2.65 -9.5 -2.65 -9.15 -3.0 -8.85 -3.35 -8.85 -3.7 M-41.65 -25.3 Q-43.6 -25.35 -44.4 -26.7 -44.8 -27.4 -44.8 -28.05 -44.8 -30.65 -42.05 -30.2 -39.3 -29.75 -39.3 -27.5 -39.3 -27.05 -39.7 -26.35 -40.35 -25.3 -41.5 -25.3 -40.4 -25.35 -40.4 -26.5 -40.4 -27.55 -41.3 -27.6 L-41.35 -27.9 Q-41.65 -28.45 -42.35 -28.45 -43.65 -28.45 -43.65 -27.5 L-43.45 -26.75 Q-43.15 -26.3 -42.6 -26.2 L-42.6 -25.9 Q-42.4 -25.35 -41.65 -25.3 M-23.45 -17.8 L-26.7 -21.75 Q-30.0 -25.05 -30.0 -22.15 L-27.6 -19.5 Q-25.05 -16.85 -24.6 -16.85 -24.0 -16.85 -23.65 -17.25 L-23.45 -17.8" fill="#ffffff" fill-opacity="0.7490196" fill-rule="evenodd" stroke="none"/>
    <path d="M37.6 4.8 L37.65 4.0 37.7 3.45 37.45 2.95 37.05 1.1 Q37.0 0.7 35.95 -0.4 34.95 -1.5 34.95 -2.0 34.95 -4.5 37.45 -2.1 L38.1 -1.4 Q39.05 -1.35 39.55 -0.55 L39.9 0.25 39.6 1.05 39.9 2.75 39.9 3.25 39.9 4.05 39.9 5.45 Q39.75 6.55 38.85 6.55 L38.2 6.35 Q37.8 6.0 37.65 5.25 L37.6 4.8 M30.0 -5.5 Q30.0 -4.8 26.3 -4.35 L22.55 -4.1 Q21.75 -4.1 21.55 -4.7 L21.45 -5.35 Q21.45 -6.5 25.75 -6.9 30.0 -7.35 30.0 -5.5 M-8.7 6.25 L-9.4 4.1 -9.35 3.85 Q-9.3 2.95 -8.6 2.85 -7.7 2.7 -7.05 4.55 L-6.3 5.95 Q-5.7 7.15 -5.7 7.6 -5.7 8.95 -6.85 8.95 -7.6 8.95 -8.6 6.5 L-8.7 6.25 M-21.45 -7.85 L-21.0 -7.05 Q-20.85 -6.45 -20.85 -5.6 L-21.05 -4.65 -20.85 -4.25 Q-20.85 -3.9 -21.15 -3.55 -21.55 -3.2 -22.05 -3.2 -23.35 -3.2 -24.45 -4.6 L-25.8 -7.1 -26.15 -8.05 Q-26.15 -9.1 -24.8 -9.1 -24.2 -9.1 -23.1 -7.8 -22.85 -8.75 -22.05 -8.35 L-21.45 -7.85 M-27.2 -13.25 Q-27.1 -13.8 -26.6 -14.2 L-26.05 -14.4 Q-25.6 -14.35 -25.2 -13.4 L-24.35 -12.25 Q-23.75 -11.55 -23.75 -11.15 -23.75 -10.1 -25.1 -10.1 L-25.85 -9.85 Q-26.95 -9.85 -27.0 -10.85 L-26.9 -11.3 -26.95 -11.45 -27.3 -12.8 -27.2 -13.25 M-5.0 11.85 L-4.9 12.75 Q-4.9 14.05 -5.8 14.2 L-6.0 14.2 Q-6.4 14.2 -7.05 12.75 L-7.65 11.3 Q-7.65 9.9 -6.25 10.5 -5.3 10.9 -5.0 11.85 M-8.85 -3.7 Q-8.85 -3.35 -9.15 -3.0 -9.5 -2.65 -10.0 -2.65 -11.1 -2.65 -14.15 -6.55 -16.95 -10.2 -16.95 -10.6 -16.95 -12.8 -15.2 -11.3 L-12.6 -8.45 -10.55 -5.95 Q-8.85 -4.0 -8.85 -3.7 M-9.05 20.7 Q-9.05 21.6 -10.95 24.65 -12.85 27.75 -13.45 27.75 -15.1 27.75 -15.5 26.4 L-15.65 24.85 Q-15.65 23.25 -14.7 21.9 L-15.4 21.25 -15.65 20.15 Q-15.65 18.7 -12.35 16.7 -9.05 14.7 -9.05 17.65 -9.05 18.35 -9.4 19.25 -9.05 19.65 -9.05 20.7 M-41.5 -25.3 L-41.55 -25.3 -41.6 -25.3 -41.65 -25.3 Q-42.4 -25.35 -42.6 -25.9 L-42.6 -26.2 Q-43.15 -26.3 -43.45 -26.75 L-43.65 -27.5 Q-43.65 -28.45 -42.35 -28.45 -41.65 -28.45 -41.35 -27.9 L-41.3 -27.6 Q-40.4 -27.55 -40.4 -26.5 -40.4 -25.35 -41.5 -25.3 M-23.45 -17.8 L-23.65 -17.25 Q-24.0 -16.85 -24.6 -16.85 -25.05 -16.85 -27.6 -19.5 L-30.0 -22.15 Q-30.0 -25.05 -26.7 -21.75 L-23.45 -17.8" fill="#ffffff" fill-opacity="0.8980392" fill-rule="evenodd" stroke="none"/>
  </g>
</svg>
