<?xml version="1.0" encoding="UTF-8" standalone="no"?>
<svg xmlns:xlink="http://www.w3.org/1999/xlink" height="41.65px" width="88.4px" xmlns="http://www.w3.org/2000/svg">
  <g transform="matrix(1.0, 0.0, 0.0, 1.0, 78.45, 51.55)">
    <path d="M9.95 -43.65 L9.9 -43.5 9.15 -43.35 Q8.35 -43.35 7.0 -45.05 5.85 -46.45 5.1 -48.05 L5.25 -49.1 Q4.7 -49.5 5.7 -49.5 7.1 -49.5 8.6 -47.45 10.1 -45.4 9.95 -43.65 M-43.45 -48.3 Q-42.8 -48.7 -42.8 -49.4 -42.8 -50.95 -44.95 -50.75 L-45.65 -50.6 -43.2 -51.35 Q-39.6 -52.1 -39.6 -50.3 -39.6 -49.7 -41.1 -49.0 L-43.45 -48.3 M-62.25 -38.1 L-65.7 -33.9 Q-67.2 -31.9 -69.15 -26.75 -70.3 -23.8 -71.3 -23.15 L-72.25 -20.85 -72.5 -18.9 Q-73.3 -14.25 -75.65 -14.25 L-75.85 -14.25 Q-76.2 -13.95 -76.5 -13.95 -77.4 -13.95 -77.65 -14.7 -78.6 -14.95 -78.45 -16.1 -78.45 -16.9 -75.45 -24.05 -72.25 -31.6 -70.65 -34.05 -67.45 -39.0 -63.0 -43.05 L-60.05 -44.8 -58.65 -45.95 Q-57.5 -46.75 -56.85 -46.65 -49.25 -50.7 -49.25 -48.15 -49.25 -47.1 -53.4 -45.55 L-56.9 -44.0 -58.8 -41.95 Q-58.85 -44.3 -61.65 -42.35 -64.5 -40.35 -64.5 -38.8 -64.6 -37.5 -63.2 -37.5 L-62.25 -38.1 M-63.45 -28.0 Q-63.35 -29.75 -61.65 -30.8 -59.85 -31.95 -59.85 -29.85 -59.85 -29.45 -60.75 -28.05 L-61.1 -27.5 Q-61.25 -28.35 -62.35 -28.45 -63.15 -28.5 -63.45 -28.0 M-70.05 -26.2 Q-70.05 -30.6 -73.55 -25.1 -77.1 -19.65 -77.1 -16.95 -77.15 -15.45 -75.9 -15.45 L-75.5 -15.55 Q-75.2 -15.3 -74.6 -15.3 -73.35 -15.3 -73.35 -16.7 L-73.35 -16.9 -73.35 -17.2 Q-73.35 -17.95 -73.8 -18.25 L-73.1 -20.6 -71.45 -23.2 Q-70.05 -25.25 -70.05 -26.2 M-13.95 -26.95 Q-13.95 -26.35 -14.35 -25.9 -14.8 -25.45 -15.4 -25.45 -16.0 -25.45 -16.4 -25.9 -16.85 -26.35 -16.85 -26.95 -16.85 -27.55 -16.4 -28.0 -16.0 -28.45 -15.4 -28.45 -14.8 -28.45 -14.35 -28.0 -13.95 -27.55 -13.95 -26.95 M-9.2 -10.2 L-9.35 -10.05 -10.15 -9.9 -11.4 -9.95 Q-11.4 -12.55 -13.2 -14.7 -15.0 -16.85 -15.0 -20.6 -15.0 -22.2 -14.45 -22.55 -11.2 -20.25 -9.8 -15.75 -8.7 -12.2 -9.2 -10.2" fill="#ffffff" fill-opacity="0.7490196" fill-rule="evenodd" stroke="none"/>
    <path d="M-45.65 -50.6 L-44.95 -50.75 Q-42.8 -50.95 -42.8 -49.4 -42.8 -48.7 -43.45 -48.3 L-45.9 -47.9 Q-47.05 -47.9 -47.15 -49.1 -47.15 -50.25 -45.65 -50.6 M-58.8 -41.95 L-58.8 -41.85 -60.7 -39.65 -62.25 -38.1 -63.2 -37.5 Q-64.6 -37.5 -64.5 -38.8 -64.5 -40.35 -61.65 -42.35 -58.85 -44.3 -58.8 -41.95 M-61.1 -27.5 L-61.1 -27.25 -61.35 -26.6 Q-61.7 -26.1 -62.4 -26.1 -63.45 -26.1 -63.6 -27.25 L-63.45 -28.0 Q-63.15 -28.5 -62.35 -28.45 -61.25 -28.35 -61.1 -27.5 M-70.05 -26.2 Q-70.05 -25.25 -71.45 -23.2 L-73.1 -20.6 -73.8 -18.25 Q-73.35 -17.95 -73.35 -17.2 L-73.35 -16.9 -73.35 -16.7 Q-73.35 -15.3 -74.6 -15.3 -75.2 -15.3 -75.5 -15.55 L-75.9 -15.45 Q-77.15 -15.45 -77.1 -16.95 -77.1 -19.65 -73.55 -25.1 -70.05 -30.6 -70.05 -26.2" fill="#ffffff" fill-opacity="0.8980392" fill-rule="evenodd" stroke="none"/>
  </g>
</svg>
