<?xml version="1.0" encoding="UTF-8" standalone="no"?>
<svg xmlns:xlink="http://www.w3.org/1999/xlink" height="13.35px" width="46.4px" xmlns="http://www.w3.org/2000/svg">
  <g transform="matrix(1.0, 0.0, 0.0, 1.0, -2.35, -2.3)">
    <path d="M10.05 9.5 Q6.65 7.1 4.95 4.1 12.75 8.5 26.0 6.45 39.55 7.85 45.15 5.55 43.55 7.75 40.75 9.65 L40.0 10.15 27.7 9.2 24.9 9.15 22.4 9.15 14.15 9.3 10.05 9.5" fill="#7a0829" fill-rule="evenodd" stroke="none"/>
    <path d="M40.0 10.15 L39.05 10.65 Q28.8 13.8 22.4 13.1 15.75 11.65 14.15 9.3 L22.4 9.15 24.9 9.15 Q25.0 11.3 26.7 11.8 28.1 12.75 28.55 11.9 L27.7 9.2 40.0 10.15" fill="#d55172" fill-rule="evenodd" stroke="none"/>
    <path d="M39.05 10.65 Q35.4 12.65 30.15 14.15 26.3 15.5 22.4 14.9 L18.95 13.95 Q13.6 12.05 10.05 9.5 L14.15 9.3 Q15.75 11.65 22.4 13.1 28.8 13.8 39.05 10.65 M24.9 9.15 L27.7 9.2 28.55 11.9 Q28.1 12.75 26.7 11.8 25.0 11.3 24.9 9.15" fill="#d2b6a1" fill-rule="evenodd" stroke="none"/>
    <path d="M10.05 9.5 Q6.65 7.1 4.95 4.1 12.75 8.5 26.0 6.45 39.55 7.85 45.15 5.55 43.55 7.75 40.75 9.65 L40.0 10.15 39.05 10.65 Q35.4 12.65 30.15 14.15 26.3 15.5 22.4 14.9 L18.95 13.95 Q13.6 12.05 10.05 9.5 Z" fill="none" stroke="#4d2b06" stroke-linecap="round" stroke-linejoin="miter-clip" stroke-miterlimit="3.0" stroke-width="1.2000000000000002"/>
    <path d="M5.25 3.6 L5.3 3.6 5.45 3.7 Q5.9 4.15 5.45 4.55 5.0 5.0 4.6 4.55 L4.5 4.5 4.1 4.1 4.0 4.05 4.0 4.0 3.95 4.0 3.9 3.95 2.35 2.45 2.35 2.35 Q2.45 2.25 2.5 2.3 L2.6 2.35 2.9 2.55 4.35 3.2 4.45 3.2 4.45 3.25 4.6 3.25 5.15 3.5 5.25 3.6 M45.35 6.05 L45.25 6.15 Q44.7 6.3 44.5 5.75 44.35 5.15 44.9 5.0 L45.9 4.65 45.9 4.6 45.95 4.6 46.05 4.55 48.55 3.5 48.7 3.5 48.7 3.65 46.5 5.35 46.4 5.4 46.35 5.4 46.35 5.45 46.2 5.55 45.9 5.7 45.55 6.0 45.35 6.05" fill="#4d2b06" fill-rule="evenodd" stroke="none"/>
  </g>
</svg>
