<?xml version="1.0" encoding="UTF-8" standalone="no"?>
<svg xmlns:xlink="http://www.w3.org/1999/xlink" height="16.45px" width="52.35px" xmlns="http://www.w3.org/2000/svg">
  <g transform="matrix(1.0, 0.0, 0.0, 1.0, -0.85, -1.1)">
    <path d="M26.0 6.45 Q38.45 7.75 51.5 4.1 45.2 9.3 41.3 11.1 37.35 12.9 36.8 13.3 36.25 13.7 30.45 15.9 24.6 18.05 19.85 15.9 15.05 13.7 11.6 11.45 8.1 9.2 2.45 2.4 L4.35 3.45 Q13.95 8.3 26.0 6.45" fill="#7a0829" fill-rule="evenodd" stroke="none"/>
    <path d="M26.0 6.45 Q38.45 7.75 51.5 4.1 45.2 9.3 41.3 11.1 37.35 12.9 36.8 13.3 36.25 13.7 30.45 15.9 24.6 18.05 19.85 15.9 15.05 13.7 11.6 11.45 8.1 9.2 2.45 2.4 L4.35 3.45 Q13.95 8.3 26.0 6.45 Z" fill="none" stroke="#4d2b06" stroke-linecap="round" stroke-linejoin="miter-clip" stroke-miterlimit="3.0" stroke-width="1.2000000000000002"/>
  </g>
</svg>
