<?xml version="1.0" encoding="UTF-8" standalone="no"?>
<svg xmlns:xlink="http://www.w3.org/1999/xlink" height="2.65px" width="38.15px" xmlns="http://www.w3.org/2000/svg">
  <g transform="matrix(1.0, 0.0, 0.0, 1.0, -7.8, -4.9)">
    <path d="M45.3 5.35 Q45.85 5.25 45.95 5.85 46.05 6.4 45.45 6.5 L41.8 7.05 40.55 7.2 38.1 7.45 30.9 7.45 30.6 7.45 28.7 7.25 28.55 7.2 28.4 7.2 26.85 6.95 26.55 6.85 26.2 6.8 25.85 6.7 25.5 6.8 22.15 7.4 20.45 7.5 20.15 7.55 17.6 7.55 15.65 7.4 15.4 7.35 14.55 7.3 10.4 6.6 8.25 6.05 Q7.7 5.95 7.8 5.4 7.9 4.8 8.5 4.9 L10.1 5.15 14.45 5.7 14.7 5.7 14.95 5.75 15.5 5.75 15.8 5.8 20.35 5.8 22.45 5.55 23.0 5.5 25.6 4.9 26.05 4.9 26.6 5.05 28.65 5.45 28.8 5.45 28.95 5.5 30.15 5.65 31.05 5.7 31.35 5.75 40.45 5.75 43.75 5.45 45.3 5.35" fill="#4a4f58" fill-rule="evenodd" stroke="none"/>
  </g>
</svg>
