<?xml version="1.0" encoding="UTF-8" standalone="no"?>
<svg xmlns:xlink="http://www.w3.org/1999/xlink" height="10.5px" width="34.95px" xmlns="http://www.w3.org/2000/svg">
  <g transform="matrix(1.0, 0.0, 0.0, 1.0, -9.7, -6.15)">
    <path d="M13.45 10.5 L11.7 8.9 Q8.45 6.45 12.75 6.8 27.9 9.2 41.1 7.15 46.15 5.95 42.5 8.95 L38.4 11.95 Q39.15 10.35 27.6 10.35 19.7 9.3 13.45 10.5" fill="url(#gradient0)" fill-rule="evenodd" stroke="none"/>
    <path d="M13.45 10.5 Q19.7 9.3 27.6 10.35 39.15 10.35 38.4 11.95 35.65 14.0 32.65 14.95 26.65 16.75 22.8 15.55 17.0 13.65 13.45 10.5" fill="#a8b6c9" fill-rule="evenodd" stroke="none"/>
    <path d="M38.4 11.95 L42.5 8.95 Q46.15 5.95 41.1 7.15 27.9 9.2 12.75 6.8 8.45 6.45 11.7 8.9 L13.45 10.5 Q17.0 13.65 22.8 15.55 26.65 16.75 32.65 14.95 35.65 14.0 38.4 11.95 Z" fill="none" stroke="#4a4f58" stroke-linecap="round" stroke-linejoin="round" stroke-width="1.2000000000000002"/>
    <path d="M24.35 11.65 L24.35 11.85 24.25 11.95 24.25 12.05 24.2 12.05 24.15 12.1 24.15 12.15 24.1 12.15 24.0 12.25 23.85 12.15 23.8 12.15 23.8 12.1 23.75 12.05 23.7 12.05 23.7 11.95 23.65 11.9 23.65 11.85 23.65 11.65 23.65 11.55 23.7 11.5 23.7 11.4 23.75 11.4 23.8 11.35 23.8 11.3 23.85 11.3 24.0 11.25 24.1 11.3 24.15 11.3 24.15 11.35 24.2 11.4 24.25 11.4 24.25 11.5 24.3 11.55 24.35 11.65 M18.25 10.75 L18.15 10.7 18.2 10.6 18.4 10.5 18.9 10.35 19.05 10.25 19.2 10.25 19.4 10.2 19.5 10.15 19.55 10.15 20.95 9.95 22.2 9.95 22.35 10.0 22.7 10.05 22.9 10.05 23.05 10.1 23.4 10.15 23.75 10.25 23.85 10.3 24.0 10.3 24.25 10.4 24.45 10.45 24.55 10.5 24.6 10.5 24.75 10.65 24.65 10.75 24.55 10.8 24.45 10.8 24.25 10.85 23.95 10.85 23.85 10.9 23.0 10.9 22.85 10.95 19.95 10.95 19.65 10.9 19.1 10.9 18.95 10.85 18.6 10.8 18.4 10.8 18.25 10.75 M34.85 11.7 L34.85 11.85 34.75 12.05 34.6 12.2 34.45 12.3 34.3 12.45 33.65 12.9 33.45 13.0 33.3 13.1 33.1 13.2 32.95 13.25 32.75 13.35 32.6 13.4 32.4 13.5 32.2 13.55 32.05 13.55 32.0 13.6 31.75 13.5 31.55 13.5 31.5 13.45 31.25 13.4 31.2 13.35 31.15 13.35 31.05 13.3 30.95 13.2 31.05 13.1 31.15 13.0 31.2 13.0 31.25 12.95 31.5 12.9 31.55 12.85 31.75 12.85 32.0 12.75 31.85 12.8 32.15 12.6 32.35 12.5 32.5 12.4 32.7 12.3 32.75 12.25 32.85 12.2 33.05 12.15 33.2 12.05 34.35 11.7 34.85 11.7" fill="#ffffff" fill-rule="evenodd" stroke="none"/>
  </g>
  <defs>
    <linearGradient gradientTransform="matrix(1.0, 0.0, 0.0, 1.0, 1.8, 0.0)" gradientUnits="userSpaceOnUse" id="gradient0" spreadMethod="pad" x1="-819.2" x2="819.2">
      <stop offset="0.5176470588235295" stop-color="#8491a2"/>
      <stop offset="1.0" stop-color="#40474f"/>
    </linearGradient>
  </defs>
</svg>
