<?xml version="1.0" encoding="UTF-8" standalone="no"?>
<svg xmlns:xlink="http://www.w3.org/1999/xlink" height="11.9px" width="31.6px" xmlns="http://www.w3.org/2000/svg">
  <g transform="matrix(1.0, 0.0, 0.0, 1.0, -15.0, 0.7)">
    <path d="M24.15 9.4 L32.45 8.95 32.75 8.95 31.55 9.4 31.5 9.4 27.1 9.5 24.15 9.4" fill="#8491a2" fill-rule="evenodd" stroke="none"/>
    <path d="M31.5 9.4 L31.55 9.4 32.75 8.95 32.45 8.95 24.15 9.4 27.1 9.5 31.5 9.4 M45.45 -0.6 L46.1 -0.6 46.55 -0.15 46.55 0.5 Q45.25 3.7 39.95 6.45 L37.15 7.75 37.1 8.0 36.8 8.6 36.5 8.75 36.35 8.85 Q33.25 10.75 31.9 11.05 L27.1 11.2 21.55 10.8 19.05 10.05 19.05 10.1 16.75 9.55 16.7 9.55 15.85 9.55 15.25 9.3 15.0 8.7 15.25 8.1 Q15.5 7.85 15.85 7.85 L16.7 7.85 16.8 7.85 23.3 7.7 32.3 7.25 36.0 6.35 36.05 6.3 36.1 6.3 39.2 4.95 39.15 4.95 Q43.75 2.6 45.0 -0.15 L45.45 -0.6" fill="#4a4f58" fill-rule="evenodd" stroke="none"/>
  </g>
</svg>
