<?xml version="1.0" encoding="UTF-8" standalone="no"?>
<svg xmlns:xlink="http://www.w3.org/1999/xlink" height="20.7px" width="44.05px" xmlns="http://www.w3.org/2000/svg">
  <g transform="matrix(1.0, 0.0, 0.0, 1.0, -1.6, 0.7)">
    <path d="M44.2 1.2 Q41.95 11.25 31.8 17.85 28.15 19.35 24.45 19.4 19.95 19.4 15.4 17.15 5.2 10.55 2.95 0.65 L4.05 1.3 Q24.3 5.35 42.85 2.15 L44.2 1.2" fill="#522a2a" fill-rule="evenodd" stroke="none"/>
    <path d="M12.8 15.25 L15.6 17.2 Q19.9 19.3 24.2 19.35 28.3 19.3 32.35 17.4 L34.7 15.8 31.8 17.85 Q28.15 19.35 24.45 19.4 19.95 19.4 15.4 17.15 L12.8 15.25 M37.65 13.1 Q24.3 6.3 10.8 13.6 L6.7 9.15 Q25.5 4.8 40.75 9.3 L37.65 13.1" fill="#be5250" fill-rule="evenodd" stroke="none"/>
    <path d="M34.7 15.8 L32.35 17.4 Q28.3 19.3 24.2 19.35 19.9 19.3 15.6 17.2 L12.8 15.25 11.55 14.2 10.8 13.6 Q24.3 6.3 37.65 13.1 L37.7 13.15 35.4 15.2 34.7 15.8" fill="#e79e98" fill-rule="evenodd" stroke="none"/>
    <path d="M37.75 3.55 L40.75 2.7 39.5 5.15 37.75 3.55 M7.15 4.25 L6.1 2.2 8.9 2.7 7.15 4.25" fill="#fefefe" fill-rule="evenodd" stroke="none"/>
    <path d="M2.2 0.1 L2.95 0.65 4.05 1.3 9.1 2.45 Q23.9 4.0 37.35 3.2 L41.0 2.5 42.85 2.15 44.2 1.2 45.05 0.65 M2.95 0.65 Q5.2 10.55 15.4 17.15 19.95 19.4 24.45 19.4 28.15 19.35 31.8 17.85 39.05 13.05 42.3 6.5 43.55 4.0 44.2 1.2" fill="none" stroke="#666666" stroke-linecap="round" stroke-linejoin="miter-clip" stroke-miterlimit="3.0" stroke-width="1.2000000000000002"/>
    <path d="M41.0 2.5 L39.5 5.15 37.35 3.2 M5.8 2.0 L7.15 4.25 9.1 2.45" fill="none" stroke="#666666" stroke-linecap="round" stroke-linejoin="miter-clip" stroke-miterlimit="3.0" stroke-width="0.8"/>
  </g>
</svg>
