<?xml version="1.0" encoding="UTF-8" standalone="no"?>
<svg xmlns:xlink="http://www.w3.org/1999/xlink" height="16.9px" width="39.65px" xmlns="http://www.w3.org/2000/svg">
  <g transform="matrix(1.0, 0.0, 0.0, 1.0, 20.0, 8.25)">
    <path d="M7.9 -7.6 L0.05 -7.6 7.9 -7.6 13.55 -7.0 14.9 -6.8 13.65 -6.85 14.95 -5.25 16.4 -6.55 14.85 -5.0 13.55 -7.0 14.85 -5.0 16.4 -6.55 18.4 -6.2 18.65 -6.3 18.8 -6.4 18.95 -6.3 19.4 -5.95 Q18.8 -4.1 17.8 -2.45 L16.35 -0.35 16.15 -0.4 16.7 -1.05 Q18.75 -3.6 19.05 -5.35 L19.0 -5.8 18.65 -6.3 19.0 -5.8 19.05 -5.35 Q18.75 -3.6 16.7 -1.05 L16.15 -0.4 Q1.7 -3.95 -16.3 -0.55 L-17.9 -2.85 Q-18.8 -4.25 -19.35 -5.75 L-19.35 -5.8 -19.3 -5.95 -19.35 -5.8 -19.35 -5.75 -19.4 -5.85 -19.3 -5.95 -18.6 -6.4 -17.95 -6.8 -17.5 -7.1 -15.4 -7.35 -14.65 -7.4 -14.0 -7.5 -13.95 -7.5 -13.85 -7.5 -7.7 -7.9 Q0.35 -8.3 7.9 -7.6 M-0.4 -7.6 L-7.7 -7.65 -13.85 -7.5 -7.7 -7.65 -0.4 -7.6 M7.8 6.5 Q5.15 7.5 2.45 7.75 L2.9 7.65 2.45 7.75 Q-2.65 8.2 -8.05 6.0 -12.9 3.35 -15.85 0.0 L-12.4 3.05 -11.7 3.55 -10.85 4.2 -8.05 6.0 -7.9 6.0 -7.85 6.0 Q-2.4 8.3 2.9 7.65 5.2 7.35 7.5 6.5 L7.8 6.5 M-17.7 -6.45 L-15.4 -4.8 -13.95 -7.5 -15.4 -4.8 -17.7 -6.45 M-17.95 -6.8 L-17.7 -6.9 -15.4 -7.35 -17.7 -6.9 -17.95 -6.8 M-15.55 -5.2 L-14.4 -7.0 -17.1 -6.4 -15.55 -5.2" fill="#522a2a" fill-rule="evenodd" stroke="none"/>
    <path d="M14.9 -6.8 L16.6 -6.75 16.4 -6.55 14.95 -5.25 13.65 -6.85 14.9 -6.8 M-15.55 -5.2 L-17.1 -6.4 -14.4 -7.0 -15.55 -5.2" fill="#fefefe" fill-rule="evenodd" stroke="none"/>
    <path d="M13.45 2.7 L13.5 2.7 11.3 4.4 10.6 4.9 9.4 5.6 8.3 6.15 7.5 6.5 Q5.2 7.35 2.9 7.65 -2.4 8.3 -7.85 6.0 L-7.9 6.0 -10.85 4.2 -11.7 3.55 -12.4 3.05 Q0.55 -2.8 13.3 2.65 11.35 4.15 7.6 6.2 L2.9 7.65 7.6 6.2 Q11.35 4.15 13.3 2.65 L13.45 2.7" fill="#e79e98" fill-rule="evenodd" stroke="none"/>
    <path d="M16.15 -0.4 L16.35 -0.35 16.4 -0.35 13.45 2.7 13.3 2.65 14.8 1.2 16.15 -0.4 14.8 1.2 13.3 2.65 Q0.55 -2.8 -12.4 3.05 L-15.85 0.0 -16.35 -0.55 -16.3 -0.55 Q1.7 -3.95 16.15 -0.4 M10.6 4.9 L8.6 6.05 7.8 6.5 7.5 6.5 8.3 6.15 9.4 5.6 10.6 4.9 M-10.85 4.2 L-7.9 6.0 -8.05 6.0 -10.85 4.2" fill="#be5250" fill-rule="evenodd" stroke="none"/>
    <path d="M0.05 -7.6 L7.9 -7.6 13.2 -7.5 13.65 -7.5 16.85 -7.0 17.35 -6.9 Q18.2 -6.65 18.65 -6.3 L19.0 -5.8 19.05 -5.35 Q18.75 -3.6 16.7 -1.05 L16.15 -0.4 14.8 1.2 13.3 2.65 Q11.35 4.15 7.6 6.2 L2.9 7.65 2.45 7.75 0.05 8.05 M-13.85 -7.5 L-7.7 -7.65 -0.4 -7.6 M-19.35 -5.75 L-19.4 -5.35 Q-19.1 -3.6 -17.05 -1.05 L-15.15 1.2 Q-13.65 3.1 -7.95 6.2 -4.1 7.75 -0.4 8.05 M-13.85 -7.5 L-13.95 -7.5 -14.0 -7.5 -14.65 -7.4 -15.4 -7.35 -17.7 -6.9 -17.95 -6.8 -19.3 -5.95 -19.35 -5.8 -19.35 -5.75" fill="none" stroke="#666666" stroke-linecap="round" stroke-linejoin="miter-clip" stroke-miterlimit="3.0" stroke-width="1.2000000000000002"/>
    <path d="M16.6 -6.75 L16.85 -7.0 M13.2 -7.5 L13.55 -7.0 14.85 -5.0 16.4 -6.55 16.6 -6.75 M-13.95 -7.5 L-15.4 -4.8 -17.7 -6.45" fill="none" stroke="#666666" stroke-linecap="round" stroke-linejoin="miter-clip" stroke-miterlimit="3.0" stroke-width="0.8"/>
  </g>
</svg>
