<?xml version="1.0" encoding="UTF-8" standalone="no"?>
<svg xmlns:xlink="http://www.w3.org/1999/xlink" height="21.65px" width="48.9px" xmlns="http://www.w3.org/2000/svg">
  <g transform="matrix(1.0, 0.0, 0.0, 1.0, 1.25, 1.75)">
    <path d="M6.85 3.55 Q8.0 3.75 8.65 4.2 8.8 3.9 9.45 4.2 10.3 4.75 10.3 5.25 L10.25 5.65 9.5 5.95 9.35 5.95 9.15 6.25 9.45 6.35 9.15 6.6 6.95 6.9 Q6.55 7.2 6.3 7.6 L6.45 8.5 6.45 11.05 6.9 13.0 7.0 15.7 6.85 17.75 Q6.55 18.5 5.0 19.7 3.95 19.7 3.7 16.85 L3.65 13.65 3.7 10.95 Q3.8 10.0 4.15 9.35 3.55 8.2 3.85 7.45 L4.1 6.1 Q2.85 6.1 2.45 7.7 2.25 8.5 2.3 9.35 L2.0 9.4 Q1.15 9.4 0.9 8.25 L1.1 5.85 1.05 4.65 0.95 4.2 0.95 4.05 0.8 3.15 0.05 1.6 -0.5 0.45 -0.4 0.25 -1.2 -0.9 -1.25 -1.0 Q-1.25 -1.65 -0.55 -1.45 L0.45 -0.9 1.0 -0.8 1.8 -0.55 2.05 -0.45 Q3.3 -0.05 3.5 0.6 L3.5 0.75 3.65 0.9 3.8 1.25 3.8 1.3 3.95 1.5 5.0 2.45 Q4.85 2.2 5.05 2.25 5.15 2.05 5.25 2.2 5.75 2.3 6.35 2.85 L6.85 3.55 M47.65 -1.25 Q45.85 0.95 45.15 3.15 44.45 5.35 46.45 8.5 44.3 24.75 43.5 17.8 42.7 10.85 40.85 9.5 39.0 8.1 37.9 6.75 36.75 5.35 35.75 6.1 34.1 5.95 34.8 5.85 30.95 5.6 33.0 4.4 L41.05 2.55 Q44.75 1.0 43.5 0.2 L45.15 -0.55 Q46.55 -1.15 47.35 -1.75 L47.5 -1.65 47.65 -1.25" fill="#ffffff" fill-opacity="0.6" fill-rule="evenodd" stroke="none"/>
  </g>
</svg>
