<?xml version="1.0" encoding="UTF-8" standalone="no"?>
<svg xmlns:xlink="http://www.w3.org/1999/xlink" height="154.3px" width="178.55px" xmlns="http://www.w3.org/2000/svg">
  <g transform="matrix(1.0, 0.0, 0.0, 1.0, 0.7, -87.45)">
    <path d="M168.4 127.4 L168.4 127.45 168.9 130.4 Q169.2 132.65 173.45 135.3 177.6 137.55 172.7 138.8 167.65 139.85 168.0 141.3 186.95 154.9 167.05 150.5 174.7 157.9 173.5 158.85 171.65 159.4 166.15 158.95 175.15 171.05 170.95 169.1 166.9 166.9 166.45 168.25 165.8 169.35 166.35 176.05 166.4 183.55 165.2 187.2 164.35 189.5 164.5 192.0 165.45 205.8 160.2 199.55 159.55 204.95 158.85 206.7 158.05 208.35 156.65 205.95 151.65 212.9 143.05 219.4 L125.8 231.0 117.6 234.3 111.2 236.55 Q104.85 238.6 99.5 239.85 93.4 241.0 88.45 241.15 L87.05 241.15 81.3 240.55 91.35 239.4 Q96.8 238.3 103.25 236.15 L109.35 233.85 Q112.35 232.5 115.55 231.5 126.15 224.6 134.3 218.5 144.3 210.45 148.9 202.0 152.45 194.1 155.55 185.4 156.45 181.7 156.55 173.95 L155.8 163.25 Q155.6 160.45 156.75 151.6 158.15 136.8 158.35 136.35 L158.7 131.4 158.6 124.35 Q158.55 124.15 158.65 124.1 L158.65 124.05 Q156.65 115.6 150.0 110.7 137.25 100.6 124.85 94.45 142.15 100.9 159.4 114.35 166.3 119.1 168.4 127.4" fill="#a4c9de" fill-rule="evenodd" stroke="none"/>
    <path d="M81.3 240.55 L81.25 240.55 Q73.55 239.35 63.0 235.5 L59.55 234.25 51.05 230.8 Q39.2 223.6 32.55 218.2 23.65 210.65 17.9 203.3 17.7 203.2 17.7 204.9 17.35 206.5 15.95 204.65 14.35 202.75 14.3 197.05 10.8 202.35 10.9 189.4 10.3 187.2 10.05 185.6 9.45 182.8 10.0 174.15 L10.2 163.75 10.1 163.0 Q2.8 171.65 9.3 153.3 3.8 156.6 3.7 154.1 3.5 151.55 8.5 143.6 -2.3 145.25 2.1 140.3 6.1 135.1 8.1 133.9 7.9 132.9 3.25 131.45 -1.6 129.75 0.6 127.85 2.65 125.8 8.25 126.7 9.7 120.8 14.55 117.65 70.8 74.25 124.85 94.45 137.25 100.6 150.0 110.7 156.65 115.6 158.65 124.05 L158.65 124.1 Q158.55 124.15 158.6 124.35 L158.7 131.4 158.35 136.35 Q158.15 136.8 156.75 151.6 155.6 160.45 155.8 163.25 L156.55 173.95 Q156.45 181.7 155.55 185.4 152.45 194.1 148.9 202.0 144.3 210.45 134.3 218.5 126.15 224.6 115.55 231.5 112.35 232.5 109.35 233.85 L103.25 236.15 Q96.8 238.3 91.35 239.4 L81.3 240.55 M12.0 130.95 Q9.95 132.15 8.1 133.9 9.95 132.15 12.0 130.95" fill="#d6eefb" fill-rule="evenodd" stroke="none"/>
    <path d="M168.4 127.4 L168.4 127.45 168.9 130.4 Q169.2 132.65 173.45 135.3 177.6 137.55 172.7 138.8 167.65 139.85 168.0 141.3 186.95 154.9 167.05 150.5 174.7 157.9 173.5 158.85 171.65 159.4 166.15 158.95 175.15 171.05 170.95 169.1 166.9 166.9 166.45 168.25 165.8 169.35 166.35 176.05 166.4 183.55 165.2 187.2 164.35 189.5 164.5 192.0 165.45 205.8 160.2 199.55 159.55 204.95 158.85 206.7 158.05 208.35 156.65 205.95 151.65 212.9 143.05 219.4 L125.8 231.0 117.6 234.3 111.2 236.55 Q104.85 238.6 99.5 239.85 93.4 241.0 88.45 241.15 L87.05 241.15 81.3 240.55 81.25 240.55 Q73.55 239.35 63.0 235.5 L59.55 234.25 51.05 230.8 Q39.2 223.6 32.55 218.2 23.65 210.65 17.9 203.3 17.7 203.2 17.7 204.9 17.35 206.5 15.95 204.65 14.35 202.75 14.3 197.05 10.8 202.35 10.9 189.4 10.3 187.2 10.05 185.6 9.45 182.8 10.0 174.15 L10.2 163.75 10.1 163.0 Q2.8 171.65 9.3 153.3 3.8 156.6 3.7 154.1 3.5 151.55 8.5 143.6 -2.3 145.25 2.1 140.3 6.1 135.1 8.1 133.9 7.9 132.9 3.25 131.45 -1.6 129.75 0.6 127.85 2.65 125.8 8.25 126.7" fill="none" stroke="#4a4f58" stroke-linecap="round" stroke-linejoin="miter-clip" stroke-miterlimit="3.0" stroke-width="1.2000000000000002"/>
    <path d="M8.25 126.7 Q9.7 120.8 14.55 117.65 70.8 74.25 124.85 94.45 142.15 100.9 159.4 114.35 166.3 119.1 168.4 127.4 M8.1 133.9 Q9.95 132.15 12.0 130.95" fill="none" stroke="#4a4f58" stroke-linecap="round" stroke-linejoin="round" stroke-width="1.2000000000000002"/>
  </g>
</svg>
