<?xml version="1.0" encoding="UTF-8" standalone="no"?>
<svg xmlns:xlink="http://www.w3.org/1999/xlink" height="171.95px" width="162.05px" xmlns="http://www.w3.org/2000/svg">
  <g transform="matrix(1.0, 0.0, 0.0, 1.0, -4.85, -87.2)">
    <path d="M163.7 161.3 L165.7 187.35 Q165.85 189.2 165.45 195.25 165.05 201.25 155.8 211.65 L137.75 231.4 Q130.5 239.15 121.9 245.55 115.5 242.3 108.3 241.35 104.8 240.8 101.55 241.3 83.15 242.75 79.3 241.9 L67.35 239.0 Q59.2 237.0 49.35 244.85 40.5 238.2 33.05 229.95 L21.9 218.05 15.1 210.9 Q12.0 207.5 8.9 202.4 7.45 200.1 6.75 198.1 5.95 196.1 5.8 193.55 5.65 190.95 5.9 189.4 6.1 187.8 5.25 186.8 L7.05 161.7 7.65 161.1 14.35 154.3 16.7 151.9 21.6 147.45 Q24.05 145.25 26.65 143.2 29.25 141.2 31.95 139.35 L37.4 135.8 39.8 134.45 Q47.5 130.3 56.75 134.15 66.0 137.95 73.5 148.75 80.95 159.55 85.6 172.85 88.7 164.85 92.45 157.05 97.6 146.4 106.5 139.05 111.95 134.5 118.95 133.6 131.85 133.35 142.85 141.5 153.8 149.65 163.0 161.6 L162.35 160.15 163.15 161.3 163.7 161.3" fill="#f7f8fa" fill-rule="evenodd" stroke="none"/>
    <path d="M7.05 161.7 L7.05 161.1 7.2 154.3 Q7.3 152.05 7.55 149.85 L8.25 143.65 Q8.5 140.9 8.8 139.85 L9.2 137.65 9.25 136.3 Q9.25 131.65 11.75 125.25 14.3 118.8 17.65 114.9 19.8 112.35 23.65 109.45 27.55 106.45 31.7 104.2 37.4 100.6 40.4 98.95 44.45 96.65 48.35 95.85 L49.55 95.05 Q52.3 94.0 55.15 93.05 63.55 90.25 72.5 88.9 L76.0 88.5 Q86.65 87.25 97.35 88.45 109.0 89.9 119.4 93.8 130.25 97.95 139.3 104.2 143.35 107.05 146.7 110.4 L147.0 110.7 147.65 110.7 149.85 113.85 151.3 113.85 Q155.65 121.05 159.05 128.9 L159.15 129.2 159.8 130.75 Q162.95 138.85 163.05 147.65 163.15 154.35 163.7 161.3 L163.15 161.3 162.35 160.15 163.0 161.6 Q153.8 149.65 142.85 141.5 131.85 133.35 118.95 133.6 111.95 134.5 106.5 139.05 97.6 146.4 92.45 157.05 88.7 164.85 85.6 172.85 80.95 159.55 73.5 148.75 66.0 137.95 56.75 134.15 47.5 130.3 39.8 134.45 L37.4 135.8 31.95 139.35 Q29.25 141.2 26.65 143.2 24.05 145.25 21.6 147.45 L16.7 151.9 14.35 154.3 7.65 161.1 7.05 161.7" fill="#ed99ac" fill-rule="evenodd" stroke="none"/>
    <path d="M121.9 245.55 L122.5 245.95 121.2 246.75 120.8 246.5 Q107.8 255.5 92.35 257.9 82.1 259.65 72.1 256.65 60.1 252.9 50.1 245.4 L49.35 244.85 Q59.2 237.0 67.35 239.0 L79.3 241.9 Q83.15 242.75 101.55 241.3 104.8 240.8 108.3 241.35 115.5 242.3 121.9 245.55" fill="#f5e9eb" fill-rule="evenodd" stroke="none"/>
    <path d="M7.95 144.45 Q9.25 132.55 12.45 124.2" fill="none" stroke="#666666" stroke-linecap="round" stroke-linejoin="miter-clip" stroke-miterlimit="3.0" stroke-width="1.2000000000000002"/>
    <path d="M162.3 143.2 L163.55 162.2 Q164.75 174.75 165.85 182.25 166.95 189.75 165.4 196.45 163.8 203.1 155.9 211.4 148.0 219.7 141.35 227.3 133.7 236.0 124.8 243.25 116.05 250.35 105.55 254.7 94.7 259.2 83.0 258.45 70.95 257.5 60.4 251.7 49.8 245.85 40.95 237.8 31.8 229.4 23.95 220.3 L18.2 213.75 10.2 205.0 Q4.3 198.8 5.7 184.8 7.05 170.8 6.95 162.4 L7.05 161.7 7.05 161.4 7.05 161.1 Q7.15 152.75 7.95 144.45 M48.45 95.4 L51.7 94.15 Q61.7 90.45 72.5 88.9 84.95 86.95 97.35 88.45 109.0 89.9 119.35 93.9 129.1 97.55 137.8 102.75 L145.3 107.25 M6.95 162.4 L8.0 161.1 Q14.15 153.75 20.8 147.1 29.0 138.85 39.8 134.65 52.4 129.75 62.8 138.05 72.55 145.8 78.05 156.95 81.95 164.85 85.05 172.95 M163.55 162.2 Q156.2 153.0 147.75 144.9 138.5 136.0 126.2 133.5 117.3 131.65 109.8 136.7 99.95 143.35 94.3 154.0 89.4 163.15 85.7 172.95" fill="none" stroke="#666666" stroke-linecap="round" stroke-linejoin="round" stroke-width="1.2000000000000002"/>
  </g>
</svg>
