<?xml version="1.0" encoding="UTF-8" standalone="no"?>
<svg xmlns:xlink="http://www.w3.org/1999/xlink" height="329.1px" width="104.45px" xmlns="http://www.w3.org/2000/svg">
  <g transform="matrix(1.0, 0.0, 0.0, 1.0, 52.35, 164.55)">
    <path d="M38.5 -163.85 L38.9 -163.95 39.45 -163.75 40.75 -163.75 Q42.55 -162.9 44.2 -162.6 L47.75 -161.5 49.05 -160.2 50.45 -157.6 50.4 -156.95 50.5 -156.0 Q50.65 -155.4 51.1 -155.2 L51.35 -155.0 51.5 -154.95 51.75 -154.85 Q51.7 -152.55 51.25 -149.7 L51.5 -154.95 51.25 -149.7 51.15 -149.3 51.15 -148.15 51.15 -142.1 Q50.9 -141.55 50.9 -140.85 L50.9 -139.65 50.85 -138.45 50.7 -137.55 50.7 -137.5 50.65 -137.45 50.6 -135.35 48.95 -105.05 48.95 -104.75 45.3 -59.3 44.45 -48.5 43.15 -37.9 37.5 5.75 33.55 32.3 33.05 35.5 29.65 56.25 21.85 96.65 10.7 82.75 8.55 79.9 10.7 82.75 8.5 80.05 8.55 79.9 8.65 79.65 Q19.85 46.15 32.95 -49.5 36.9 -78.5 40.05 -105.05 39.0 -114.05 35.85 -145.6 L35.9 -146.85 Q35.95 -147.25 36.15 -147.45 L36.1 -148.6 Q36.1 -150.85 36.35 -151.8 L37.0 -156.35 37.2 -158.85 37.35 -160.95 Q37.6 -162.75 38.1 -163.45 L38.5 -163.85 M37.2 -158.85 L38.1 -163.45 37.2 -158.85 M50.7 -137.55 L51.15 -148.15 50.7 -137.55 M45.3 -59.3 L43.15 -37.9 45.3 -59.3" fill="#4392b9" fill-rule="evenodd" stroke="none"/>
    <path d="M50.7 -137.5 L50.6 -135.35 50.65 -137.45 50.7 -137.5 M21.75 97.1 L21.65 97.5 21.55 97.35 21.75 97.1 M-51.75 71.1 Q-36.7 56.35 -5.4 -18.85 6.05 -46.4 15.85 -72.9 24.85 -97.3 26.2 -103.75 L33.45 -139.8 37.2 -158.85 37.0 -156.35 36.35 -151.8 Q36.1 -150.85 36.1 -148.6 L36.15 -147.45 Q35.95 -147.25 35.9 -146.85 L35.85 -145.6 Q39.0 -114.05 40.05 -105.05 36.9 -78.5 32.95 -49.5 19.85 46.15 8.65 79.65 L8.55 79.9 -15.05 48.4 Q-22.45 54.2 -32.25 60.5 -44.8 68.65 -51.75 71.1 M38.1 -163.45 L38.2 -163.95 38.5 -163.85 38.1 -163.45" fill="#51b6e7" fill-rule="evenodd" stroke="none"/>
    <path d="M21.65 97.5 L15.85 104.45 15.95 104.3 21.55 97.35 21.65 97.5 M-2.6 123.75 L-3.9 125.05 -3.25 124.35 -2.6 123.75 M-44.1 163.95 Q-43.6 151.9 -46.65 118.0 -49.25 89.75 -51.75 71.1 -44.8 68.65 -32.25 60.5 -22.45 54.2 -15.05 48.4 L8.55 79.9 8.5 80.05 Q0.95 95.7 -20.25 128.25 -31.25 145.05 -44.1 163.95" fill="#1e7fae" fill-rule="evenodd" stroke="none"/>
    <path d="M21.85 96.65 L21.75 97.05 21.75 97.1 21.55 97.35 10.7 82.75 21.85 96.65 M15.85 104.45 L-2.6 123.75 -3.25 124.35 -3.9 125.05 -44.1 163.95 Q-31.25 145.05 -20.25 128.25 0.95 95.7 8.5 80.05 L10.7 82.75 21.55 97.35 15.95 104.3 15.85 104.45" fill="#15597c" fill-rule="evenodd" stroke="none"/>
    <path d="M51.25 -149.7 L51.15 -148.15 50.7 -137.55 50.7 -137.5 50.6 -135.35 48.95 -105.05 M51.5 -154.95 L51.25 -149.7" fill="none" stroke="#4a4f58" stroke-linecap="butt" stroke-linejoin="round" stroke-width="1.2000000000000002"/>
    <path d="M48.95 -104.75 L45.3 -59.3 43.15 -37.9 37.5 5.75 37.05 9.15 33.05 35.5 29.65 56.25 21.85 96.65 21.75 97.05 21.75 97.1 21.65 97.5 15.85 104.45 -2.6 123.75 -3.9 125.05 -44.1 163.95 Q-43.6 151.9 -46.65 118.0 -49.25 89.75 -51.75 71.1 -36.7 56.35 -5.4 -18.85 6.05 -46.4 15.85 -72.9 24.85 -97.3 26.2 -103.75 L33.45 -139.8 37.2 -158.85 38.1 -163.45 38.2 -163.95 M8.55 79.9 L10.7 82.75 21.55 97.35 21.65 97.5 M8.55 79.9 L-15.05 48.4 Q-22.45 54.2 -32.25 60.5 -44.8 68.65 -51.75 71.1" fill="none" stroke="#4a4f58" stroke-linecap="round" stroke-linejoin="round" stroke-width="1.2000000000000002"/>
  </g>
</svg>
