<?xml version="1.0" encoding="UTF-8" standalone="no"?>
<svg xmlns:xlink="http://www.w3.org/1999/xlink" height="329.15px" width="104.15px" xmlns="http://www.w3.org/2000/svg">
  <g transform="matrix(1.0, 0.0, 0.0, 1.0, 51.7, 164.55)">
    <path d="M-36.65 -156.5 L-38.1 -163.95 -36.65 -156.5 -33.35 -139.75 -26.1 -103.7 Q-24.75 -97.3 -15.75 -72.85 -6.0 -46.35 5.5 -18.8 36.75 56.4 51.85 71.15 44.85 68.7 32.3 60.55 L30.45 59.35 Q25.8 52.85 22.05 45.95 11.2 25.85 2.7 4.65 -7.9 -21.9 -16.9 -49.0 -24.9 -73.2 -31.75 -97.75 -38.45 -121.6 -44.6 -145.55 L-51.0 -149.65 -51.05 -150.6 -51.15 -150.6 Q-51.6 -150.65 -51.6 -151.15 L-51.4 -152.85 -51.5 -154.85 -51.7 -156.55 -51.7 -156.65 -51.7 -156.85 Q-47.3 -159.25 -43.1 -161.95 L-41.55 -162.95 -39.1 -163.95 -38.1 -163.95 -37.95 -163.95 -37.4 -161.25 -36.9 -158.65 Q-36.05 -156.05 -35.65 -153.7 L-35.8 -153.6 -36.65 -156.5 M-51.05 -150.85 L-51.05 -150.6 -51.05 -150.85 -51.05 -151.35 -51.1 -152.0 -51.1 -152.6 -51.1 -152.5 -51.1 -152.45 -51.3 -151.55 -51.3 -150.9 -51.05 -150.85" fill="#4392b9" fill-rule="evenodd" stroke="none"/>
    <path d="M-51.1 -152.45 L-51.1 -152.5 -51.1 -152.6 -51.1 -152.0 -51.1 -152.45 M-51.05 -151.35 L-51.05 -150.85 -51.05 -151.35 M-51.05 -150.6 L-51.0 -149.65 -44.6 -145.55 Q-38.45 -121.6 -31.75 -97.75 -24.9 -73.2 -16.9 -49.0 -7.9 -21.9 2.7 4.65 11.2 25.85 22.05 45.95 25.8 52.85 30.45 59.35 21.9 53.75 15.15 48.45 L-21.55 97.55 Q-29.95 58.4 -36.95 9.2 -48.65 -73.05 -51.05 -150.6" fill="#51b6e7" fill-rule="evenodd" stroke="none"/>
    <path d="M30.45 59.35 L32.3 60.55 Q44.85 68.7 51.85 71.15 49.35 89.3 46.75 118.05 L44.1 162.6 43.25 162.85 32.65 62.35 30.45 59.35" fill="#15597c" fill-rule="evenodd" stroke="none"/>
    <path d="M30.45 59.35 L32.65 62.35 43.25 162.85 44.1 162.6 44.15 164.0 Q-10.65 112.0 -21.55 97.55 L15.15 48.45 Q21.9 53.75 30.45 59.35" fill="#1e7fae" fill-rule="evenodd" stroke="none"/>
    <path d="M44.1 162.6 L44.15 164.0" fill="none" stroke="#231f20" stroke-linecap="butt" stroke-linejoin="miter-clip" stroke-miterlimit="10.0" stroke-width="1.0"/>
    <path d="M-38.1 -163.95 L-36.65 -156.5 -33.35 -139.75 -26.1 -103.7 Q-24.75 -97.3 -15.75 -72.85 -6.0 -46.35 5.5 -18.8 36.75 56.4 51.85 71.15 44.85 68.7 32.3 60.55 L30.45 59.35 Q21.9 53.75 15.15 48.45 L-21.55 97.55 Q-29.95 58.4 -36.95 9.2 -48.65 -73.05 -51.05 -150.6 L-51.05 -150.85 -51.1 -152.45 -51.1 -152.5 M44.1 162.6 L46.75 118.05 Q49.35 89.3 51.85 71.15 M44.15 164.0 Q-10.65 112.0 -21.55 97.55" fill="none" stroke="#4a4f58" stroke-linecap="round" stroke-linejoin="round" stroke-width="1.2000000000000002"/>
  </g>
</svg>
