<?xml version="1.0" encoding="UTF-8" standalone="no"?>
<svg xmlns:xlink="http://www.w3.org/1999/xlink" height="4.25px" width="4.4px" xmlns="http://www.w3.org/2000/svg">
  <g transform="matrix(1.0, 0.0, 0.0, 1.0, -1.05, 3.35)">
    <path d="M1.45 -1.5 Q1.45 -3.2 3.45 -3.35 5.45 -3.55 5.45 -1.25 5.45 0.0 3.3 0.0 2.5 0.0 1.95 -0.5 1.45 -0.95 1.45 -1.5" fill="#ffeacc" fill-opacity="0.72156864" fill-rule="evenodd" stroke="none"/>
    <path d="M1.45 -1.5 Q1.45 -3.2 3.45 -3.35 5.45 -3.55 5.45 -1.25 5.45 0.0 3.3 0.0 2.5 0.0 1.95 -0.5 1.45 -0.95 1.45 -1.5 Z" fill="none" stroke="#ca7e60" stroke-linecap="butt" stroke-linejoin="miter-clip" stroke-miterlimit="3.0" stroke-opacity="0.5921569" stroke-width="0.05"/>
    <path d="M1.05 -1.55 Q1.05 -3.2 2.35 -2.7 3.6 -2.2 3.6 -0.6 L3.3 0.3 2.55 0.9 Q1.6 0.9 1.2 -0.35 L1.05 -1.55" fill="#ffeacc" fill-opacity="0.72156864" fill-rule="evenodd" stroke="none"/>
    <path d="M2.9 -1.65 L2.7 -1.25 2.25 -0.75 Q1.5 -1.15 1.5 -1.75 L1.75 -2.25 2.0 -2.35 2.9 -1.65" fill="#ffffff" fill-rule="evenodd" stroke="none"/>
  </g>
</svg>
