<?xml version="1.0" encoding="UTF-8" standalone="no"?>
<svg xmlns:xlink="http://www.w3.org/1999/xlink" height="23.15px" width="12.55px" xmlns="http://www.w3.org/2000/svg">
  <g transform="matrix(1.0, 0.0, 0.0, 1.0, 2.7, 23.0)">
    <path d="M9.5 -11.65 Q9.85 -11.35 9.85 -10.8 9.9 -10.4 8.85 -8.6 8.05 -6.9 6.1 -4.75 L4.75 -2.9 4.4 -2.15 3.75 -0.6 3.5 -0.5 2.55 -0.45 Q2.05 -0.55 1.8 -1.05 L1.65 -1.55 1.65 -1.6 Q1.65 -2.55 4.95 -7.75 L5.85 -8.9 7.15 -10.4 Q8.05 -11.55 8.25 -11.5 9.05 -12.05 9.5 -11.65" fill="#ffeacc" fill-opacity="0.72156864" fill-rule="evenodd" stroke="none"/>
    <path d="M9.5 -11.65 Q9.85 -11.35 9.85 -10.8 9.9 -10.4 8.85 -8.6 8.05 -6.9 6.1 -4.75 L4.75 -2.9 4.4 -2.15 3.75 -0.6 3.5 -0.5 2.55 -0.45 Q2.05 -0.55 1.8 -1.05 L1.65 -1.55 1.65 -1.6 Q1.65 -2.55 4.95 -7.75 L5.85 -8.9 7.15 -10.4 Q8.05 -11.55 8.25 -11.5 9.05 -12.05 9.5 -11.65 Z" fill="none" stroke="#ca7e60" stroke-linecap="butt" stroke-linejoin="miter-clip" stroke-miterlimit="3.0" stroke-opacity="0.5921569" stroke-width="0.05"/>
    <path d="M3.35 -1.3 L3.05 -0.25 2.3 0.15 Q1.1 0.15 0.6 -1.95 0.3 -3.2 0.3 -4.7 L-0.1 -7.0 -0.55 -9.5 Q-0.9 -13.0 -1.9 -15.25 -2.7 -17.15 -2.7 -19.3 L-2.45 -23.0 Q-0.8 -23.15 0.4 -19.35 1.3 -16.35 1.3 -14.25 L1.05 -13.75 0.8 -13.25 Q0.8 -12.9 1.55 -10.4 L2.45 -7.25 Q3.35 -3.4 3.35 -1.3" fill="#ffeacc" fill-opacity="0.72156864" fill-rule="evenodd" stroke="none"/>
    <path d="M3.35 -1.3 L3.05 -0.25 2.3 0.15 Q1.1 0.15 0.6 -1.95 0.3 -3.2 0.3 -4.7 L-0.1 -7.0 -0.55 -9.5 Q-0.9 -13.0 -1.9 -15.25 -2.7 -17.15 -2.7 -19.3 L-2.45 -23.0 Q-0.8 -23.15 0.4 -19.35 1.3 -16.35 1.3 -14.25 L1.05 -13.75 0.8 -13.25 Q0.8 -12.9 1.55 -10.4 L2.45 -7.25 Q3.35 -3.4 3.35 -1.3 Z" fill="none" stroke="#ca7e60" stroke-linecap="butt" stroke-linejoin="miter-clip" stroke-miterlimit="3.0" stroke-opacity="0.5921569" stroke-width="0.05"/>
    <path d="M-1.4 -17.3 Q-2.0 -18.75 -2.0 -19.4 L-1.9 -20.0 Q-0.75 -20.0 -0.5 -18.2 L-0.35 -15.5 Q-0.75 -15.8 -1.4 -17.3" fill="#ffffff" fill-rule="evenodd" stroke="none"/>
    <path d="M1.8 -5.0 L1.55 -4.9 0.95 -7.2 Q0.5 -8.75 0.5 -9.4 L0.55 -9.75 Q1.7 -9.05 1.9 -5.5 L1.8 -5.0" fill="#ffffff" fill-rule="evenodd" stroke="none"/>
  </g>
</svg>
