<?xml version="1.0" encoding="UTF-8" standalone="no"?>
<svg xmlns:xlink="http://www.w3.org/1999/xlink" height="31.95px" width="18.75px" xmlns="http://www.w3.org/2000/svg">
  <g transform="matrix(1.0, 0.0, 0.0, 1.0, 4.45, 31.8)">
    <path d="M13.7 -20.9 Q14.3 -20.45 14.3 -19.5 14.3 -18.75 7.8 -9.45 6.55 -7.4 5.8 -4.35 5.35 -2.6 5.25 -0.95 5.05 -0.1 3.4 -0.1 2.5 -0.1 2.05 -0.9 L1.8 -1.75 Q1.8 -2.2 7.05 -12.25 L10.05 -17.5 11.6 -20.1 Q12.9 -21.4 13.7 -20.9" fill="#ffeacc" fill-opacity="0.72156864" fill-rule="evenodd" stroke="none"/>
    <path d="M13.7 -20.9 Q14.3 -20.45 14.3 -19.5 14.3 -18.75 7.8 -9.45 6.55 -7.4 5.8 -4.35 5.35 -2.6 5.25 -0.95 5.05 -0.1 3.4 -0.1 2.5 -0.1 2.05 -0.9 L1.8 -1.75 Q1.8 -2.2 7.05 -12.25 L10.05 -17.5 11.6 -20.1 Q12.9 -21.4 13.7 -20.9 Z" fill="none" stroke="#ca7e60" stroke-linecap="butt" stroke-linejoin="miter-clip" stroke-miterlimit="3.0" stroke-opacity="0.5921569" stroke-width="0.05"/>
    <path d="M13.3 -20.1 L13.4 -19.65 12.05 -17.65 10.05 -15.4 11.05 -18.05 Q11.9 -19.8 13.0 -20.15 L13.3 -20.1" fill="#ffffff" fill-rule="evenodd" stroke="none"/>
    <path d="M1.6 -4.25 L2.2 -3.7 2.8 -3.2 2.95 -2.85 3.05 -2.25 Q3.05 0.15 1.3 0.15 -0.45 0.15 -0.65 -2.0 -0.5 -4.25 -0.65 -4.5 L-1.55 -7.25 Q-1.3 -7.95 -1.3 -9.1 L-1.8 -13.9 -2.45 -20.0 Q-2.7 -23.3 -3.6 -26.35 -4.45 -29.1 -4.45 -30.75 -4.45 -32.1 -3.2 -31.75 -2.0 -31.4 -1.45 -30.2 -0.45 -28.55 -0.45 -26.6 -0.35 -24.35 -0.55 -19.5 L-0.3 -15.6 0.8 -10.85 1.45 -6.5 1.6 -4.25" fill="#ffeacc" fill-opacity="0.72156864" fill-rule="evenodd" stroke="none"/>
    <path d="M1.6 -4.25 L2.2 -3.7 2.8 -3.2 2.95 -2.85 3.05 -2.25 Q3.05 0.15 1.3 0.15 -0.45 0.15 -0.65 -2.0 -0.5 -4.25 -0.65 -4.5 L-1.55 -7.25 Q-1.3 -7.95 -1.3 -9.1 L-1.8 -13.9 -2.45 -20.0 Q-2.7 -23.3 -3.6 -26.35 -4.45 -29.1 -4.45 -30.75 -4.45 -32.1 -3.2 -31.75 -2.0 -31.4 -1.45 -30.2 -0.45 -28.55 -0.45 -26.6 -0.35 -24.35 -0.55 -19.5 L-0.3 -15.6 0.8 -10.85 1.45 -6.5 1.6 -4.25 Z" fill="none" stroke="#ca7e60" stroke-linecap="butt" stroke-linejoin="miter-clip" stroke-miterlimit="3.0" stroke-opacity="0.5921569" stroke-width="0.05"/>
    <path d="M-2.0 -25.85 L-2.25 -25.5 Q-3.9 -29.2 -4.0 -30.15 -1.9 -30.8 -1.9 -27.75 -2.25 -26.4 -2.0 -25.85" fill="#ffffff" fill-rule="evenodd" stroke="none"/>
  </g>
</svg>
