<?xml version="1.0" encoding="UTF-8" standalone="no"?>
<svg xmlns:xlink="http://www.w3.org/1999/xlink" height="45.05px" width="39.3px" xmlns="http://www.w3.org/2000/svg">
  <g transform="matrix(1.0, 0.0, 0.0, 1.0, 8.95, 44.55)">
    <path d="M26.75 -25.35 L27.5 -25.05 Q29.35 -24.2 30.0 -22.95 L30.35 -21.8 30.2 -20.65 Q29.9 -20.05 29.0 -19.8 L27.55 -19.95 26.85 -20.5 25.25 -21.5 Q24.35 -22.2 23.65 -22.2 L20.65 -21.7 Q18.3 -20.5 16.35 -19.0 14.55 -17.65 13.25 -16.05 L9.95 -11.25 9.55 -10.6 Q8.05 -8.6 6.8 -5.75 L6.5 -5.1 5.05 -2.55 4.95 -2.4 Q4.15 -0.95 3.4 -1.0 L3.2 -1.0 Q2.5 -1.1 2.3 -1.55 L2.25 -2.0 2.25 -2.1 Q2.25 -3.25 6.95 -10.2 11.3 -16.1 11.85 -17.15 L13.15 -18.7 Q16.9 -22.85 20.8 -24.85 L21.7 -25.25 Q24.65 -26.6 26.75 -25.35" fill="#ffeacc" fill-opacity="0.72156864" fill-rule="evenodd" stroke="none"/>
    <path d="M26.75 -25.35 L27.5 -25.05 Q29.35 -24.2 30.0 -22.95 L30.35 -21.8 30.2 -20.65 Q29.9 -20.05 29.0 -19.8 L27.55 -19.95 26.85 -20.5 25.25 -21.5 Q24.35 -22.2 23.65 -22.2 L20.65 -21.7 Q18.3 -20.5 16.35 -19.0 14.55 -17.65 13.25 -16.05 L9.95 -11.25 9.55 -10.6 Q8.05 -8.6 6.8 -5.75 L6.5 -5.1 5.05 -2.55 4.95 -2.4 Q4.15 -0.95 3.4 -1.0 L3.2 -1.0 Q2.5 -1.1 2.3 -1.55 L2.25 -2.0 2.25 -2.1 Q2.25 -3.25 6.95 -10.2 11.3 -16.1 11.85 -17.15 L13.15 -18.7 Q16.9 -22.85 20.8 -24.85 L21.7 -25.25 Q24.65 -26.6 26.75 -25.35 Z" fill="none" stroke="#ca7e60" stroke-linecap="butt" stroke-linejoin="miter-clip" stroke-miterlimit="3.0" stroke-opacity="0.5921569" stroke-width="0.05"/>
    <path d="M28.75 -22.25 L28.1 -22.15 26.6 -23.15 Q24.9 -24.1 23.55 -23.9 24.15 -25.25 26.4 -24.5 28.5 -23.8 28.9 -22.75 L28.75 -22.25" fill="#ffffff" fill-rule="evenodd" stroke="none"/>
    <path d="M1.7 -12.85 L2.2 -6.85 2.95 -4.15 3.6 -1.05 Q3.6 -0.55 3.2 -0.05 2.75 0.5 2.05 0.5 1.05 0.5 0.55 -0.35 L0.2 -1.25 Q0.2 -2.3 1.0 -2.75 1.8 -3.2 1.8 -4.15 L0.15 -12.95 -1.95 -23.2 -2.6 -27.95 Q-3.0 -30.75 -3.95 -32.75 L-6.05 -37.45 Q-6.7 -38.7 -7.35 -39.1 -8.05 -39.55 -8.2 -39.75 L-8.85 -40.95 -8.95 -41.9 Q-8.95 -43.8 -6.9 -44.4 -4.7 -45.1 -3.3 -42.25 -2.25 -38.35 -1.95 -36.5 L-0.8 -30.55 Q-0.1 -26.95 0.1 -24.7 L0.95 -18.75 1.7 -12.85" fill="#ffeacc" fill-opacity="0.72156864" fill-rule="evenodd" stroke="none"/>
    <path d="M1.7 -12.85 L2.2 -6.85 2.95 -4.15 3.6 -1.05 Q3.6 -0.55 3.2 -0.05 2.75 0.5 2.05 0.5 1.05 0.5 0.55 -0.35 L0.2 -1.25 Q0.2 -2.3 1.0 -2.75 1.8 -3.2 1.8 -4.15 L0.15 -12.95 -1.95 -23.2 -2.6 -27.95 Q-3.0 -30.75 -3.95 -32.75 L-6.05 -37.45 Q-6.7 -38.7 -7.35 -39.1 -8.05 -39.55 -8.2 -39.75 L-8.85 -40.95 -8.95 -41.9 Q-8.95 -43.8 -6.9 -44.4 -4.7 -45.1 -3.3 -42.25 -2.25 -38.35 -1.95 -36.5 L-0.8 -30.55 Q-0.1 -26.95 0.1 -24.7 L0.95 -18.75 1.7 -12.85 Z" fill="none" stroke="#ca7e60" stroke-linecap="butt" stroke-linejoin="miter-clip" stroke-miterlimit="3.0" stroke-opacity="0.5921569" stroke-width="0.05"/>
    <path d="M-4.65 -38.9 L-6.2 -40.6 -7.4 -42.3 Q-7.4 -43.9 -5.7 -42.55 -4.0 -41.2 -4.0 -39.75 L-4.65 -38.9" fill="#ffffff" fill-rule="evenodd" stroke="none"/>
  </g>
</svg>
