<?xml version="1.0" encoding="UTF-8" standalone="no"?>
<svg xmlns:xlink="http://www.w3.org/1999/xlink" height="43.75px" width="48.85px" xmlns="http://www.w3.org/2000/svg">
  <g transform="matrix(1.0, 0.0, 0.0, 1.0, 10.4, 43.35)">
    <path d="M25.1 -26.0 L26.55 -26.65 Q20.1 -24.25 16.5 -20.4 L11.45 -13.95 Q9.2 -11.45 7.2 -7.35 L5.8 -3.55 Q4.8 -1.0 3.8 -1.0 2.85 -1.0 2.55 -1.6 L2.45 -2.3 Q2.45 -3.85 8.35 -12.0 L14.6 -20.25 Q20.45 -26.8 26.3 -28.75 31.35 -30.45 35.3 -27.35 38.45 -24.85 38.45 -22.55 38.45 -20.45 36.55 -20.45 35.35 -20.45 34.7 -21.15 L33.85 -22.25 31.8 -24.35 Q30.6 -25.65 29.75 -25.95 28.4 -26.45 25.8 -25.95 L25.1 -26.0" fill="#ffeacc" fill-opacity="0.72156864" fill-rule="evenodd" stroke="none"/>
    <path d="M25.1 -26.0 L26.55 -26.65 Q20.1 -24.25 16.5 -20.4 L11.45 -13.95 Q9.2 -11.45 7.2 -7.35 L5.8 -3.55 Q4.8 -1.0 3.8 -1.0 2.85 -1.0 2.55 -1.6 L2.45 -2.3 Q2.45 -3.85 8.35 -12.0 L14.6 -20.25 Q20.45 -26.8 26.3 -28.75 31.35 -30.45 35.3 -27.35 38.45 -24.85 38.45 -22.55 38.45 -20.45 36.55 -20.45 35.35 -20.45 34.7 -21.15 L33.85 -22.25 31.8 -24.35 Q30.6 -25.65 29.75 -25.95 28.4 -26.45 25.8 -25.95 L25.1 -26.0 Z" fill="none" stroke="#ca7e60" stroke-linecap="butt" stroke-linejoin="miter-clip" stroke-miterlimit="3.0" stroke-opacity="0.5921569" stroke-width="0.05"/>
    <path d="M34.45 -26.25 Q35.85 -25.1 36.0 -24.0 L35.75 -23.5 34.4 -24.65 33.25 -25.9 31.4 -26.65 Q29.9 -27.15 29.3 -27.75 L30.2 -27.75 Q32.65 -27.75 34.45 -26.25" fill="#ffffff" fill-rule="evenodd" stroke="none"/>
    <path d="M0.05 -26.5 Q-1.9 -41.35 -4.95 -41.35 -7.0 -41.35 -7.65 -32.7 L-7.9 -23.95 Q-7.9 -22.4 -7.3 -19.55 L-6.7 -16.35 Q-6.7 -15.55 -6.95 -14.8 -7.3 -13.75 -8.1 -13.75 -9.5 -13.75 -9.7 -16.2 L-9.65 -19.1 Q-9.65 -20.9 -10.0 -23.05 -10.4 -25.2 -10.4 -27.95 L-9.85 -31.4 Q-9.3 -33.8 -9.4 -35.1 -9.65 -40.35 -7.95 -42.0 -4.25 -45.65 -1.5 -39.55 0.6 -34.95 0.6 -31.85 L1.7 -17.75 2.7 -10.15 Q3.05 -7.45 3.05 -3.75 L3.05 -2.9 3.1 -1.25 Q3.1 -0.55 2.7 -0.35 L2.45 0.25 Q2.65 0.4 2.05 0.4 1.1 0.4 1.1 -0.9 0.8 -1.4 0.8 -2.15 L1.05 -4.35 0.95 -8.4 0.5 -14.45 Q0.05 -20.65 0.05 -26.0 L0.05 -26.5" fill="#ffeacc" fill-opacity="0.72156864" fill-rule="evenodd" stroke="none"/>
    <path d="M0.05 -26.5 Q-1.9 -41.35 -4.95 -41.35 -7.0 -41.35 -7.65 -32.7 L-7.9 -23.95 Q-7.9 -22.4 -7.3 -19.55 L-6.7 -16.35 Q-6.7 -15.55 -6.95 -14.8 -7.3 -13.75 -8.1 -13.75 -9.5 -13.75 -9.7 -16.2 L-9.65 -19.1 Q-9.65 -20.9 -10.0 -23.05 -10.4 -25.2 -10.4 -27.95 L-9.85 -31.4 Q-9.3 -33.8 -9.4 -35.1 -9.65 -40.35 -7.95 -42.0 -4.25 -45.65 -1.5 -39.55 0.6 -34.95 0.6 -31.85 L1.7 -17.75 2.7 -10.15 Q3.05 -7.45 3.05 -3.75 L3.05 -2.9 3.1 -1.25 Q3.1 -0.55 2.7 -0.35 L2.45 0.25 Q2.65 0.4 2.05 0.4 1.1 0.4 1.1 -0.9 0.8 -1.4 0.8 -2.15 L1.05 -4.35 0.95 -8.4 0.5 -14.45 Q0.05 -20.65 0.05 -26.0 L0.05 -26.5 Z" fill="none" stroke="#ca7e60" stroke-linecap="butt" stroke-linejoin="miter-clip" stroke-miterlimit="3.0" stroke-opacity="0.5921569" stroke-width="0.05"/>
    <path d="M-7.75 -16.75 L-7.9 -16.45 -8.25 -16.25 Q-9.25 -17.15 -9.25 -19.5 L-9.1 -24.25 -8.9 -24.25 -7.75 -16.75" fill="#ffffff" fill-rule="evenodd" stroke="none"/>
  </g>
</svg>
