<?xml version="1.0" encoding="UTF-8" standalone="no"?>
<svg xmlns:xlink="http://www.w3.org/1999/xlink" height="51.6px" width="54.35px" xmlns="http://www.w3.org/2000/svg">
  <g transform="matrix(1.0, 0.0, 0.0, 1.0, 8.7, 42.55)">
    <path d="M23.8 -25.2 L25.85 -25.25 Q27.3 -25.5 29.6 -24.8 L32.25 -24.25 33.3 -23.95 Q34.75 -23.55 36.6 -22.45 L39.55 -20.35 41.05 -18.9 Q43.05 -16.9 44.3 -15.0 L45.0 -14.05 45.45 -13.5 45.55 -13.25 Q45.75 -12.6 45.6 -11.95 45.4 -10.9 44.05 -10.8 L43.35 -10.8 Q42.3 -10.85 41.8 -11.65 L41.65 -11.95 41.25 -13.1 41.2 -13.15 39.4 -15.65 39.15 -15.95 37.35 -18.2 37.2 -18.3 Q36.05 -19.5 34.65 -19.9 L33.6 -20.4 32.95 -20.75 Q33.15 -21.4 32.95 -21.85 L30.1 -22.75 Q25.95 -24.0 22.7 -22.9 L21.05 -22.2 Q18.25 -20.9 15.15 -17.55 L13.95 -16.25 Q12.05 -14.25 9.9 -11.25 L8.4 -9.1 6.55 -5.65 6.2 -5.0 Q4.9 -2.5 3.95 -1.8 3.15 -1.35 2.85 -1.45 L2.85 -1.5 Q2.75 -1.45 2.75 -1.95 L2.75 -2.0 Q2.75 -3.2 5.85 -8.25 L9.0 -13.25 9.15 -13.45 13.95 -19.05 Q16.1 -21.5 17.5 -22.35 19.6 -23.9 22.0 -25.05 L23.8 -25.2" fill="#ffeacc" fill-opacity="0.72156864" fill-rule="evenodd" stroke="none"/>
    <path d="M23.8 -25.2 L25.85 -25.25 Q27.3 -25.5 29.6 -24.8 L32.25 -24.25 33.3 -23.95 Q34.75 -23.55 36.6 -22.45 L39.55 -20.35 41.05 -18.9 Q43.05 -16.9 44.3 -15.0 L45.0 -14.05 45.45 -13.5 45.55 -13.25 Q45.75 -12.6 45.6 -11.95 45.4 -10.9 44.05 -10.8 L43.35 -10.8 Q42.3 -10.85 41.8 -11.65 L41.65 -11.95 41.25 -13.1 41.2 -13.15 39.4 -15.65 39.15 -15.95 37.35 -18.2 37.2 -18.3 Q36.05 -19.5 34.65 -19.9 L33.6 -20.4 32.95 -20.75 Q33.15 -21.4 32.95 -21.85 L30.1 -22.75 Q25.95 -24.0 22.7 -22.9 L21.05 -22.2 Q18.25 -20.9 15.15 -17.55 L13.95 -16.25 Q12.05 -14.25 9.9 -11.25 L8.4 -9.1 6.55 -5.65 6.2 -5.0 Q4.9 -2.5 3.95 -1.8 3.15 -1.35 2.85 -1.45 L2.85 -1.5 Q2.75 -1.45 2.75 -1.95 L2.75 -2.0 Q2.75 -3.2 5.85 -8.25 L9.0 -13.25 9.15 -13.45 13.95 -19.05 Q16.1 -21.5 17.5 -22.35 19.6 -23.9 22.0 -25.05 L23.8 -25.2 Z" fill="none" stroke="#ca7e60" stroke-linecap="butt" stroke-linejoin="miter-clip" stroke-miterlimit="3.0" stroke-opacity="0.5921569" stroke-width="0.05"/>
    <path d="M43.8 -13.6 L43.65 -13.5 Q43.85 -13.25 43.25 -13.25 42.35 -13.25 40.7 -16.1 L38.05 -20.5 41.45 -17.2 Q43.9 -14.65 43.9 -14.05 L43.8 -13.6" fill="#ffffff" fill-rule="evenodd" stroke="none"/>
    <path d="M2.35 -3.25 L2.3 -2.25 2.1 -2.25 1.65 -8.15 0.95 -14.0 -0.25 -19.75 Q-1.2 -23.55 -1.2 -25.6 L-1.85 -29.0 -2.65 -33.35 Q-2.85 -37.75 -4.95 -41.0 -6.25 -38.85 -6.7 -35.0 L-6.95 -28.75 -6.2 -10.75 -5.75 -6.25 -5.15 -1.75 -4.05 2.65 Q-3.4 5.2 -3.4 7.0 -3.4 7.55 -3.9 8.25 -4.5 9.05 -5.35 9.05 -7.25 9.05 -7.4 7.55 L-7.15 5.55 -6.95 2.0 -7.8 -6.85 Q-8.7 -14.55 -8.7 -20.5 L-8.35 -24.2 Q-8.05 -26.75 -8.05 -28.2 L-7.7 -35.85 Q-7.65 -38.2 -6.75 -40.65 -5.55 -43.8 -4.05 -41.75 -3.1 -40.15 -2.5 -37.85 -1.9 -35.65 -1.9 -33.95 -1.9 -31.3 0.25 -20.1 2.35 -8.95 2.35 -3.25" fill="#ffeacc" fill-opacity="0.72156864" fill-rule="evenodd" stroke="none"/>
    <path d="M2.35 -3.25 L2.3 -2.25 2.1 -2.25 1.65 -8.15 0.95 -14.0 -0.25 -19.75 Q-1.2 -23.55 -1.2 -25.6 L-1.85 -29.0 -2.65 -33.35 Q-2.85 -37.75 -4.95 -41.0 -6.25 -38.85 -6.7 -35.0 L-6.95 -28.75 -6.2 -10.75 -5.75 -6.25 -5.15 -1.75 -4.05 2.65 Q-3.4 5.2 -3.4 7.0 -3.4 7.55 -3.9 8.25 -4.5 9.05 -5.35 9.05 -7.25 9.05 -7.4 7.55 L-7.15 5.55 -6.95 2.0 -7.8 -6.85 Q-8.7 -14.55 -8.7 -20.5 L-8.35 -24.2 Q-8.05 -26.75 -8.05 -28.2 L-7.7 -35.85 Q-7.65 -38.2 -6.75 -40.65 -5.55 -43.8 -4.05 -41.75 -3.1 -40.15 -2.5 -37.85 -1.9 -35.65 -1.9 -33.95 -1.9 -31.3 0.25 -20.1 2.35 -8.95 2.35 -3.25 Z" fill="none" stroke="#ca7e60" stroke-linecap="butt" stroke-linejoin="miter-clip" stroke-miterlimit="3.0" stroke-opacity="0.5921569" stroke-width="0.05"/>
    <path d="M-5.65 -2.75 L-4.95 0.65 -4.75 3.45 -5.0 6.0 -5.15 6.15 -5.75 6.25 -6.2 6.2 -6.5 6.0 -6.65 3.45 Q-6.65 1.9 -6.25 0.55 -5.85 -0.8 -5.85 -2.75 L-5.65 -2.75" fill="#ffffff" fill-rule="evenodd" stroke="none"/>
  </g>
</svg>
