<?xml version="1.0" encoding="UTF-8" standalone="no"?>
<svg xmlns:xlink="http://www.w3.org/1999/xlink" height="64.4px" width="62.3px" xmlns="http://www.w3.org/2000/svg">
  <g transform="matrix(1.0, 0.0, 0.0, 1.0, 9.2, 43.35)">
    <path d="M28.6 -25.85 L31.05 -24.75 Q32.4 -24.1 35.45 -21.95 L39.2 -18.85 42.55 -15.6 45.3 -12.35 50.45 -5.85 51.55 -5.05 52.6 -4.25 Q53.1 -3.65 53.1 -2.8 53.1 -1.1 50.65 -1.1 49.2 -1.1 48.75 -2.55 L48.55 -4.1 46.7 -7.25 44.7 -10.6 42.35 -13.7 36.35 -20.0 Q31.65 -24.25 27.7 -24.25 22.8 -24.25 17.9 -19.9 15.25 -17.55 11.55 -13.2 9.75 -11.35 7.05 -7.2 L3.1 -1.35 3.05 -1.75 Q3.05 -3.0 6.35 -8.9 9.45 -14.4 9.8 -14.7 L15.65 -21.0 Q19.55 -24.95 26.3 -26.7 26.55 -26.75 28.6 -25.85" fill="#ffeacc" fill-opacity="0.72156864" fill-rule="evenodd" stroke="none"/>
    <path d="M28.6 -25.85 L31.05 -24.75 Q32.4 -24.1 35.45 -21.95 L39.2 -18.85 42.55 -15.6 45.3 -12.35 50.45 -5.85 51.55 -5.05 52.6 -4.25 Q53.1 -3.65 53.1 -2.8 53.1 -1.1 50.65 -1.1 49.2 -1.1 48.75 -2.55 L48.55 -4.1 46.7 -7.25 44.7 -10.6 42.35 -13.7 36.35 -20.0 Q31.65 -24.25 27.7 -24.25 22.8 -24.25 17.9 -19.9 15.25 -17.55 11.55 -13.2 9.75 -11.35 7.05 -7.2 L3.1 -1.35 3.05 -1.75 Q3.05 -3.0 6.35 -8.9 9.45 -14.4 9.8 -14.7 L15.65 -21.0 Q19.55 -24.95 26.3 -26.7 26.55 -26.75 28.6 -25.85 Z" fill="none" stroke="#ca7e60" stroke-linecap="butt" stroke-linejoin="miter-clip" stroke-miterlimit="3.0" stroke-opacity="0.5921569" stroke-width="0.05"/>
    <path d="M50.55 -5.75 Q51.7 -4.35 51.5 -3.4 L51.0 -2.9 Q50.35 -3.4 49.65 -5.15 48.95 -6.8 47.55 -7.75 L47.8 -7.75 Q49.35 -7.3 50.55 -5.75" fill="#ffffff" fill-rule="evenodd" stroke="none"/>
    <path d="M24.25 -25.0 L26.5 -25.25 Q25.15 -24.15 23.05 -24.15 23.65 -24.35 24.25 -25.0" fill="#ffffff" fill-rule="evenodd" stroke="none"/>
    <path d="M1.65 -12.9 L2.1 -8.85 3.15 -4.9 Q3.85 -2.4 3.85 -1.1 3.85 -0.3 3.35 0.15 2.95 0.55 2.4 0.55 1.5 0.55 1.2 0.0 L1.1 -0.65 1.8 -6.7 1.3 -11.6 0.7 -15.85 Q0.15 -18.8 -0.65 -25.0 L-1.1 -29.65 Q-1.4 -32.6 -1.8 -34.25 L-2.7 -39.2 Q-3.4 -42.25 -4.65 -42.95 -6.45 -40.8 -6.45 -36.55 -6.45 -31.75 -4.7 -14.0 L-4.25 -8.35 Q-4.0 -5.1 -3.55 -2.75 -3.3 -1.7 -2.8 2.2 -2.2 6.55 -2.2 8.25 -2.2 8.8 -3.1 10.85 -3.95 12.75 -4.3 13.15 -5.0 14.25 -4.8 15.6 L-4.45 17.9 Q-4.45 19.0 -5.05 19.9 -5.8 21.05 -7.2 21.05 -8.85 21.05 -9.15 19.6 L-9.2 18.0 Q-9.2 15.35 -7.3 11.5 -5.45 7.6 -5.45 4.5 L-6.3 -7.05 Q-7.2 -17.95 -7.2 -23.35 -7.05 -33.85 -6.7 -39.1 -6.55 -41.5 -5.3 -42.85 -3.85 -44.5 -2.45 -40.95 L-1.5 -36.9 -0.65 -32.85 Q-0.3 -30.7 0.1 -24.9 0.4 -19.7 1.05 -16.95 L1.65 -12.9" fill="#ffeacc" fill-opacity="0.72156864" fill-rule="evenodd" stroke="none"/>
    <path d="M1.65 -12.9 L2.1 -8.85 3.15 -4.9 Q3.85 -2.4 3.85 -1.1 3.85 -0.3 3.35 0.15 2.95 0.55 2.4 0.55 1.5 0.55 1.2 0.0 L1.1 -0.65 1.8 -6.7 1.3 -11.6 0.7 -15.85 Q0.15 -18.8 -0.65 -25.0 L-1.1 -29.65 Q-1.4 -32.6 -1.8 -34.25 L-2.7 -39.2 Q-3.4 -42.25 -4.65 -42.95 -6.45 -40.8 -6.45 -36.55 -6.45 -31.75 -4.7 -14.0 L-4.25 -8.35 Q-4.0 -5.1 -3.55 -2.75 -3.3 -1.7 -2.8 2.2 -2.2 6.55 -2.2 8.25 -2.2 8.8 -3.1 10.85 -3.95 12.75 -4.3 13.15 -5.0 14.25 -4.8 15.6 L-4.45 17.9 Q-4.45 19.0 -5.05 19.9 -5.8 21.05 -7.2 21.05 -8.85 21.05 -9.15 19.6 L-9.2 18.0 Q-9.2 15.35 -7.3 11.5 -5.45 7.6 -5.45 4.5 L-6.3 -7.05 Q-7.2 -17.95 -7.2 -23.35 -7.05 -33.85 -6.7 -39.1 -6.55 -41.5 -5.3 -42.85 -3.85 -44.5 -2.45 -40.95 L-1.5 -36.9 -0.65 -32.85 Q-0.3 -30.7 0.1 -24.9 0.4 -19.7 1.05 -16.95 L1.65 -12.9 Z" fill="none" stroke="#ca7e60" stroke-linecap="butt" stroke-linejoin="miter-clip" stroke-miterlimit="3.0" stroke-opacity="0.5921569" stroke-width="0.05"/>
    <path d="M-3.35 7.7 Q-3.35 9.4 -5.75 19.3 L-5.95 19.4 -6.5 19.5 Q-7.25 19.5 -7.15 18.35 -7.15 16.1 -5.8 13.05 -4.05 9.0 -3.6 7.15 L-3.4 7.15 -3.35 7.7" fill="#ffffff" fill-rule="evenodd" stroke="none"/>
  </g>
</svg>
