<?xml version="1.0" encoding="UTF-8" standalone="no"?>
<svg xmlns:xlink="http://www.w3.org/1999/xlink" height="57.15px" width="66.85px" xmlns="http://www.w3.org/2000/svg">
  <g transform="matrix(1.0, 0.0, 0.0, 1.0, 10.45, 30.35)">
    <path d="M30.75 -27.8 L31.25 -27.7 33.4 -26.75 34.0 -26.35 35.4 -24.75 Q35.8 -23.95 36.9 -22.85 L38.35 -21.6 40.7 -19.0 41.0 -18.6 43.7 -15.3 43.95 -15.0 46.5 -11.85 46.9 -11.35 Q48.65 -9.3 50.5 -7.55 50.95 -7.0 52.35 -5.6 L52.6 -5.4 53.8 -4.5 54.85 -3.8 55.95 -2.8 56.0 -2.75 56.4 -2.0 56.4 -1.25 56.25 -0.8 55.75 -0.5 55.45 -0.4 54.45 -0.4 Q53.9 -0.6 53.35 -1.15 L52.45 -2.3 52.25 -2.5 50.5 -4.45 49.9 -5.25 49.1 -6.3 47.8 -8.0 47.55 -8.4 45.15 -11.5 45.0 -11.7 42.3 -14.85 38.75 -18.05 38.35 -18.35 34.5 -21.35 31.3 -23.8 30.9 -24.25 30.35 -24.4 28.25 -24.8 25.1 -24.3 Q22.55 -23.15 19.7 -20.8 L18.9 -20.15 Q16.05 -17.65 12.8 -14.05 L12.55 -13.85 Q10.45 -11.9 7.6 -7.7 L7.5 -7.55 Q4.45 -3.15 2.9 -1.65 L2.7 -1.5 Q2.55 -1.35 2.55 -1.8 L2.55 -1.85 6.55 -9.1 6.65 -9.3 Q8.9 -13.45 10.7 -15.4 L11.6 -16.4 17.0 -22.05 19.05 -23.9 Q23.1 -27.05 28.15 -28.1 L30.75 -27.8" fill="#ffeacc" fill-opacity="0.72156864" fill-rule="evenodd" stroke="none"/>
    <path d="M30.75 -27.8 L31.25 -27.7 33.4 -26.75 34.0 -26.35 35.4 -24.75 Q35.8 -23.95 36.9 -22.85 L38.35 -21.6 40.7 -19.0 41.0 -18.6 43.7 -15.3 43.95 -15.0 46.5 -11.85 46.9 -11.35 Q48.65 -9.3 50.5 -7.55 50.95 -7.0 52.35 -5.6 L52.6 -5.4 53.8 -4.5 54.85 -3.8 55.95 -2.8 56.0 -2.75 56.4 -2.0 56.4 -1.25 56.25 -0.8 55.75 -0.5 55.45 -0.4 54.45 -0.4 Q53.9 -0.6 53.35 -1.15 L52.45 -2.3 52.25 -2.5 50.5 -4.45 49.9 -5.25 49.1 -6.3 47.8 -8.0 47.55 -8.4 45.15 -11.5 45.0 -11.7 42.3 -14.85 38.75 -18.05 38.35 -18.35 34.5 -21.35 31.3 -23.8 30.9 -24.25 30.35 -24.4 28.25 -24.8 25.1 -24.3 Q22.55 -23.15 19.7 -20.8 L18.9 -20.15 Q16.05 -17.65 12.8 -14.05 L12.55 -13.85 Q10.45 -11.9 7.6 -7.7 L7.5 -7.55 Q4.45 -3.15 2.9 -1.65 L2.7 -1.5 Q2.55 -1.35 2.55 -1.8 L2.55 -1.85 6.55 -9.1 6.65 -9.3 Q8.9 -13.45 10.7 -15.4 L11.6 -16.4 17.0 -22.05 19.05 -23.9 Q23.1 -27.05 28.15 -28.1 L30.75 -27.8 Z" fill="none" stroke="#ca7e60" stroke-linecap="butt" stroke-linejoin="miter-clip" stroke-miterlimit="3.0" stroke-opacity="0.5921569" stroke-width="0.05"/>
    <path d="M53.75 -2.75 Q52.8 -2.75 52.15 -4.0 L51.25 -6.0 51.3 -6.1 53.0 -4.9 Q54.4 -4.05 54.55 -3.5 54.35 -2.75 53.75 -2.75" fill="#ffffff" fill-rule="evenodd" stroke="none"/>
    <path d="M31.75 -25.25 L30.3 -25.65 26.25 -26.0 Q24.0 -26.0 21.95 -25.2 L20.25 -24.4 20.05 -24.5 Q21.9 -27.4 26.4 -27.35 30.45 -27.3 32.0 -25.5 L31.75 -25.25" fill="#ffffff" fill-rule="evenodd" stroke="none"/>
    <path d="M2.35 -4.9 Q2.75 -3.65 2.6 -3.1 L2.55 -3.0 -0.4 -16.45 -1.2 -23.0 Q-1.75 -27.0 -3.65 -29.7 -4.5 -29.4 -5.05 -27.6 -5.45 -26.25 -5.45 -25.25 L-5.15 -18.25 Q-5.0 -16.0 -5.15 -11.4 -5.15 -5.9 -4.45 1.1 L-3.8 8.0 Q-3.8 9.95 -4.55 11.6 L-5.1 13.7 -6.2 17.55 -5.8 20.65 -5.4 24.05 Q-5.4 24.8 -6.05 25.7 -6.85 26.8 -7.95 26.8 -9.6 26.8 -10.2 24.85 L-10.45 22.85 Q-10.45 22.0 -9.45 18.4 L-8.3 14.75 -6.6 10.65 -5.85 9.0 -5.7 7.8 -6.7 -6.25 -6.7 -23.5 Q-6.65 -25.95 -5.65 -28.5 L-4.8 -29.8 Q-3.8 -30.85 -2.95 -29.95 -2.15 -28.9 -1.7 -27.25 -0.75 -23.9 0.6 -15.4 L1.85 -6.7 2.35 -4.9" fill="#ffeacc" fill-opacity="0.72156864" fill-rule="evenodd" stroke="none"/>
    <path d="M2.35 -4.9 Q2.75 -3.65 2.6 -3.1 L2.55 -3.0 -0.4 -16.45 -1.2 -23.0 Q-1.75 -27.0 -3.65 -29.7 -4.5 -29.4 -5.05 -27.6 -5.45 -26.25 -5.45 -25.25 L-5.15 -18.25 Q-5.0 -16.0 -5.15 -11.4 -5.15 -5.9 -4.45 1.1 L-3.8 8.0 Q-3.8 9.95 -4.55 11.6 L-5.1 13.7 -6.2 17.55 -5.8 20.65 -5.4 24.05 Q-5.4 24.8 -6.05 25.7 -6.85 26.8 -7.95 26.8 -9.6 26.8 -10.2 24.85 L-10.45 22.85 Q-10.45 22.0 -9.45 18.4 L-8.3 14.75 -6.6 10.65 -5.85 9.0 -5.7 7.8 -6.7 -6.25 -6.7 -23.5 Q-6.65 -25.95 -5.65 -28.5 L-4.8 -29.8 Q-3.8 -30.85 -2.95 -29.95 -2.15 -28.9 -1.7 -27.25 -0.75 -23.9 0.6 -15.4 L1.85 -6.7 2.35 -4.9 Z" fill="none" stroke="#ca7e60" stroke-linecap="butt" stroke-linejoin="miter-clip" stroke-miterlimit="3.0" stroke-opacity="0.5921569" stroke-width="0.05"/>
    <path d="M-6.8 19.2 L-6.6 22.75 -6.75 23.25 -6.95 23.35 -7.5 23.4 Q-8.8 23.4 -8.5 20.35 L-8.3 17.95 -6.9 15.3 -6.8 19.2" fill="#ffffff" fill-rule="evenodd" stroke="none"/>
  </g>
</svg>
