<?xml version="1.0" encoding="UTF-8" standalone="no"?>
<svg xmlns:xlink="http://www.w3.org/1999/xlink" height="70.9px" width="70.4px" xmlns="http://www.w3.org/2000/svg">
  <g transform="matrix(1.0, 0.0, 0.0, 1.0, 9.2, 29.75)">
    <path d="M33.35 -29.75 Q35.15 -29.45 36.3 -28.3 37.25 -27.25 37.2 -26.25 37.15 -24.8 39.8 -22.35 41.05 -21.15 42.45 -18.75 44.05 -15.95 45.05 -14.7 L48.1 -10.9 Q50.0 -8.7 52.2 -7.1 L54.45 -5.2 Q56.05 -3.85 57.05 -3.35 57.55 -3.1 58.75 -2.75 59.8 -2.5 60.05 -2.25 L60.8 -1.3 61.2 -0.5 Q61.2 0.0 60.55 0.3 L59.4 0.55 Q58.05 0.55 56.0 -0.75 54.35 -1.8 53.8 -2.5 L52.15 -4.3 50.55 -6.0 47.7 -9.55 44.8 -13.2 40.75 -16.45 Q37.5 -18.7 36.3 -20.0 34.25 -22.2 33.55 -23.5 L33.5 -24.25 32.95 -24.55 30.85 -25.6 27.4 -25.5 Q24.4 -24.15 20.6 -21.05 L13.8 -14.75 Q11.25 -12.6 8.0 -8.15 4.65 -3.6 2.55 -1.75 2.05 -1.4 2.05 -2.0 5.75 -7.1 6.85 -9.5 8.55 -12.95 12.55 -17.2 18.75 -23.8 20.4 -25.1 26.55 -29.95 33.35 -29.75" fill="#ffeacc" fill-opacity="0.72156864" fill-rule="evenodd" stroke="none"/>
    <path d="M33.35 -29.75 Q35.15 -29.45 36.3 -28.3 37.25 -27.25 37.2 -26.25 37.15 -24.8 39.8 -22.35 41.05 -21.15 42.45 -18.75 44.05 -15.95 45.05 -14.7 L48.1 -10.9 Q50.0 -8.7 52.2 -7.1 L54.45 -5.2 Q56.05 -3.85 57.05 -3.35 57.55 -3.1 58.75 -2.75 59.8 -2.5 60.05 -2.25 L60.8 -1.3 61.2 -0.5 Q61.2 0.0 60.55 0.3 L59.4 0.55 Q58.05 0.55 56.0 -0.75 54.35 -1.8 53.8 -2.5 L52.15 -4.3 50.55 -6.0 47.7 -9.55 44.8 -13.2 40.75 -16.45 Q37.5 -18.7 36.3 -20.0 34.25 -22.2 33.55 -23.5 L33.5 -24.25 32.95 -24.55 30.85 -25.6 27.4 -25.5 Q24.4 -24.15 20.6 -21.05 L13.8 -14.75 Q11.25 -12.6 8.0 -8.15 4.65 -3.6 2.55 -1.75 2.05 -1.4 2.05 -2.0 5.75 -7.1 6.85 -9.5 8.55 -12.95 12.55 -17.2 18.75 -23.8 20.4 -25.1 26.55 -29.95 33.35 -29.75 Z" fill="none" stroke="#ca7e60" stroke-linecap="butt" stroke-linejoin="miter-clip" stroke-miterlimit="3.0" stroke-opacity="0.5921569" stroke-width="0.05"/>
    <path d="M31.7 -26.45 L27.25 -26.0 21.55 -24.65 Q26.3 -27.55 28.5 -28.3 32.3 -29.5 34.75 -27.5 34.1 -26.7 31.7 -26.45" fill="#ffffff" fill-rule="evenodd" stroke="none"/>
    <path d="M39.5 -19.65 Q38.65 -20.0 37.55 -21.25 L36.05 -23.0 Q36.85 -23.6 38.25 -22.25 39.35 -21.2 39.75 -20.25 L39.5 -19.65" fill="#ffffff" fill-rule="evenodd" stroke="none"/>
    <path d="M59.0 -1.15 L58.5 -1.0 Q57.8 -1.0 55.8 -3.0 56.5 -3.25 57.6 -2.7 58.75 -2.15 59.05 -1.4 L59.0 -1.15" fill="#ffffff" fill-rule="evenodd" stroke="none"/>
    <path d="M0.05 -16.35 L-0.4 -16.95 -0.65 -17.45 -0.45 -17.7 -0.4 -17.7 Q-0.05 -17.4 0.1 -16.5 L0.05 -16.35 M-4.9 -23.2 L-4.95 -20.9 -4.8 -17.9 -4.7 -13.6 -4.7 1.0 -3.95 8.35 -4.05 9.2 -4.05 9.3 -4.5 12.4 Q-4.95 14.95 -4.95 17.65 L-5.55 31.25 -5.3 34.8 -4.7 36.5 Q-4.15 38.05 -4.15 38.4 -4.15 39.1 -4.55 39.9 -5.1 41.15 -6.2 41.15 -8.2 41.15 -8.65 38.35 L-8.7 35.0 Q-9.2 32.15 -9.2 28.85 -9.2 20.35 -6.1 11.85 L-6.35 10.55 Q-5.95 9.6 -5.95 8.45 -5.95 7.65 -6.3 4.55 L-6.7 1.4 -6.7 -5.25 Q-6.7 -14.05 -6.5 -16.65 -5.95 -24.75 -3.7 -25.6 -3.8 -25.1 -4.35 -24.3 L-4.9 -23.2 M-0.9 -21.5 L-0.7 -21.25 -1.2 -20.75 -1.55 -20.95 -1.55 -21.5 -0.9 -21.5" fill="#ffeacc" fill-opacity="0.72156864" fill-rule="evenodd" stroke="none"/>
    <path d="M0.05 -16.35 L-0.4 -16.95 -0.65 -17.45 -0.45 -17.7 -0.4 -17.7 Q-0.05 -17.4 0.1 -16.5 L0.05 -16.35 M-4.9 -23.2 L-4.95 -20.9 -4.8 -17.9 -4.7 -13.6 -4.7 1.0 -3.95 8.35 -4.05 9.2 -4.05 9.3 -4.5 12.4 Q-4.95 14.95 -4.95 17.65 L-5.55 31.25 -5.3 34.8 -4.7 36.5 Q-4.15 38.05 -4.15 38.4 -4.15 39.1 -4.55 39.9 -5.1 41.15 -6.2 41.15 -8.2 41.15 -8.65 38.35 L-8.7 35.0 Q-9.2 32.15 -9.2 28.85 -9.2 20.35 -6.1 11.85 L-6.35 10.55 Q-5.95 9.6 -5.95 8.45 -5.95 7.65 -6.3 4.55 L-6.7 1.4 -6.7 -5.25 Q-6.7 -14.05 -6.5 -16.65 -5.95 -24.75 -3.7 -25.6 -3.8 -25.1 -4.35 -24.3 L-4.9 -23.2 M-0.9 -21.5 L-0.7 -21.25 -1.2 -20.75 -1.55 -20.95 -1.55 -21.5 -0.9 -21.5" fill="none" stroke="#ca7e60" stroke-linecap="butt" stroke-linejoin="miter-clip" stroke-miterlimit="3.0" stroke-opacity="0.5921569" stroke-width="0.05"/>
    <path d="M-5.75 36.05 L-5.85 36.65 -6.0 36.8 -6.5 36.9 Q-7.4 36.9 -7.65 32.2 L-7.35 29.1 -6.85 25.4 -6.65 25.4 Q-5.75 34.4 -5.75 36.05" fill="#ffffff" fill-rule="evenodd" stroke="none"/>
  </g>
</svg>
