<?xml version="1.0" encoding="UTF-8" standalone="no"?>
<svg xmlns:xlink="http://www.w3.org/1999/xlink" height="80.95px" width="79.1px" xmlns="http://www.w3.org/2000/svg">
  <g transform="matrix(1.0, 0.0, 0.0, 1.0, 9.4, 27.8)">
    <path d="M40.2 -26.4 L41.65 -24.8 42.35 -23.5 42.85 -22.5 Q43.4 -20.9 45.6 -18.05 L46.2 -17.3 48.35 -14.05 50.25 -10.95 51.3 -9.5 52.3 -8.3 Q53.85 -6.75 55.45 -6.15 57.8 -4.75 60.9 -3.95 L61.0 -3.9 63.9 -3.1 66.45 -2.45 67.25 -2.2 68.8 -1.3 68.85 -1.25 Q69.45 -0.75 69.55 -0.25 L69.7 0.75 69.65 1.2 69.5 1.45 Q69.15 1.9 68.4 2.05 L68.25 2.1 67.15 2.1 64.25 1.15 63.5 0.8 60.65 -0.45 59.25 -1.0 58.15 -1.45 55.9 -2.7 55.8 -2.75 Q53.8 -3.85 52.6 -5.0 L52.0 -5.4 Q49.75 -7.15 48.65 -8.7 L48.5 -8.95 Q47.55 -10.6 45.9 -12.05 L44.9 -13.05 43.25 -14.9 40.85 -17.9 40.7 -18.1 Q38.95 -20.15 38.35 -21.4 L38.15 -22.0 37.95 -22.9 37.8 -23.0 37.55 -23.25 Q36.5 -24.05 35.45 -24.15 L35.2 -24.2 31.45 -23.65 Q28.85 -22.6 25.6 -20.45 L23.85 -19.2 Q20.3 -16.7 17.35 -13.95 L16.1 -12.7 14.5 -11.1 11.3 -7.85 9.3 -5.85 Q5.65 -2.4 3.7 -1.45 L2.15 -1.15 2.05 -1.2 1.75 -1.7 1.75 -1.75 Q2.05 -2.7 2.85 -3.4 3.8 -4.4 5.8 -5.5 7.25 -6.45 7.95 -7.35 L8.55 -8.2 9.4 -9.3 12.3 -12.65 15.5 -15.95 23.75 -22.9 24.95 -23.7 28.75 -26.0 Q31.65 -27.45 35.7 -27.8 37.6 -27.75 39.15 -27.1 L40.2 -26.4" fill="#ffeacc" fill-opacity="0.72156864" fill-rule="evenodd" stroke="none"/>
    <path d="M40.2 -26.4 L41.65 -24.8 42.35 -23.5 42.85 -22.5 Q43.4 -20.9 45.6 -18.05 L46.2 -17.3 48.35 -14.05 50.25 -10.95 51.3 -9.5 52.3 -8.3 Q53.85 -6.75 55.45 -6.15 57.8 -4.75 60.9 -3.95 L61.0 -3.9 63.9 -3.1 66.45 -2.45 67.25 -2.2 68.8 -1.3 68.85 -1.25 Q69.45 -0.75 69.55 -0.25 L69.7 0.75 69.65 1.2 69.5 1.45 Q69.15 1.9 68.4 2.05 L68.25 2.1 67.15 2.1 64.25 1.15 63.5 0.8 60.65 -0.45 59.25 -1.0 58.15 -1.45 55.9 -2.7 55.8 -2.75 Q53.8 -3.85 52.6 -5.0 L52.0 -5.4 Q49.75 -7.15 48.65 -8.7 L48.5 -8.95 Q47.55 -10.6 45.9 -12.05 L44.9 -13.05 43.25 -14.9 40.85 -17.9 40.7 -18.1 Q38.95 -20.15 38.35 -21.4 L38.15 -22.0 37.95 -22.9 37.8 -23.0 37.55 -23.25 Q36.5 -24.05 35.45 -24.15 L35.2 -24.2 31.45 -23.65 Q28.85 -22.6 25.6 -20.45 L23.85 -19.2 Q20.3 -16.7 17.35 -13.95 L16.1 -12.7 14.5 -11.1 11.3 -7.85 9.3 -5.85 Q5.65 -2.4 3.7 -1.45 L2.15 -1.15 2.05 -1.2 1.75 -1.7 1.75 -1.75 Q2.05 -2.7 2.85 -3.4 3.8 -4.4 5.8 -5.5 7.25 -6.45 7.95 -7.35 L8.55 -8.2 9.4 -9.3 12.3 -12.65 15.5 -15.95 23.75 -22.9 24.95 -23.7 28.75 -26.0 Q31.65 -27.45 35.7 -27.8 37.6 -27.75 39.15 -27.1 L40.2 -26.4 Z" fill="none" stroke="#ca7e60" stroke-linecap="butt" stroke-linejoin="miter-clip" stroke-miterlimit="3.0" stroke-opacity="0.5921569" stroke-width="0.05"/>
    <path d="M66.05 -0.6 Q66.1 -0.25 65.5 -0.25 64.9 -0.25 61.8 -2.7 L58.3 -5.5 Q66.15 -2.35 66.15 -1.15 L66.05 -0.6" fill="#ffffff" fill-rule="evenodd" stroke="none"/>
    <path d="M40.0 -24.05 Q39.9 -23.9 39.5 -23.9 L37.85 -24.45 35.0 -25.0 29.4 -24.25 25.05 -23.4 Q28.7 -25.7 32.3 -26.55 37.65 -27.75 40.0 -24.5 L40.0 -24.05" fill="#ffffff" fill-rule="evenodd" stroke="none"/>
    <path d="M-2.3 -10.35 L-2.7 -10.1 -3.25 -10.15 -3.4 -10.5 Q-3.4 -11.05 -2.7 -11.6 L-2.45 -11.65 Q-2.2 -11.65 -2.2 -11.25 L-2.3 -10.35 M-4.4 -8.5 L-4.55 -7.2 -5.2 -7.0 Q-5.8 -7.15 -5.8 -7.85 -5.8 -8.4 -4.95 -9.0 L-4.55 -8.9 Q-4.4 -8.85 -4.4 -8.5 M-6.7 -4.85 L-7.45 -4.75 -7.4 -6.1 -7.2 -6.1 -6.95 -5.55 -6.7 -4.85 M-6.2 -1.6 Q-5.2 -0.95 -5.2 0.05 L-5.3 0.5 Q-5.2 0.75 -5.85 0.75 -6.4 0.75 -6.6 0.1 L-6.7 -0.65 Q-6.7 -1.4 -6.2 -1.6 M-6.2 6.8 L-6.1 5.6 Q-5.8 4.95 -4.8 5.15 -4.2 6.05 -4.2 7.4 -4.2 9.25 -4.35 9.6 L-5.15 11.05 Q-5.15 12.35 -6.1 18.65 -7.05 25.1 -7.05 28.9 L-6.8 31.1 -6.3 34.3 -6.2 39.75 Q-6.05 42.2 -4.45 50.65 -4.45 51.4 -4.8 52.15 -5.2 53.15 -5.95 53.15 -8.25 53.15 -9.05 45.6 L-9.4 38.0 -9.05 30.55 -8.45 24.0 -7.4 16.8 Q-6.95 14.45 -6.3 12.65 -6.9 12.0 -6.9 11.4 L-6.55 9.3 Q-6.2 8.25 -6.2 6.8" fill="#ffeacc" fill-opacity="0.72156864" fill-rule="evenodd" stroke="none"/>
    <path d="M-2.3 -10.35 L-2.7 -10.1 -3.25 -10.15 -3.4 -10.5 Q-3.4 -11.05 -2.7 -11.6 L-2.45 -11.65 Q-2.2 -11.65 -2.2 -11.25 L-2.3 -10.35 M-4.4 -8.5 L-4.55 -7.2 -5.2 -7.0 Q-5.8 -7.15 -5.8 -7.85 -5.8 -8.4 -4.95 -9.0 L-4.55 -8.9 Q-4.4 -8.85 -4.4 -8.5 M-6.7 -4.85 L-7.45 -4.75 -7.4 -6.1 -7.2 -6.1 -6.95 -5.55 -6.7 -4.85 M-6.2 -1.6 Q-5.2 -0.95 -5.2 0.05 L-5.3 0.5 Q-5.2 0.75 -5.85 0.75 -6.4 0.75 -6.6 0.1 L-6.7 -0.65 Q-6.7 -1.4 -6.2 -1.6 M-6.2 6.8 L-6.1 5.6 Q-5.8 4.95 -4.8 5.15 -4.2 6.05 -4.2 7.4 -4.2 9.25 -4.35 9.6 L-5.15 11.05 Q-5.15 12.35 -6.1 18.65 -7.05 25.1 -7.05 28.9 L-6.8 31.1 -6.3 34.3 -6.2 39.75 Q-6.05 42.2 -4.45 50.65 -4.45 51.4 -4.8 52.15 -5.2 53.15 -5.95 53.15 -8.25 53.15 -9.05 45.6 L-9.4 38.0 -9.05 30.55 -8.45 24.0 -7.4 16.8 Q-6.95 14.45 -6.3 12.65 -6.9 12.0 -6.9 11.4 L-6.55 9.3 Q-6.2 8.25 -6.2 6.8" fill="none" stroke="#ca7e60" stroke-linecap="butt" stroke-linejoin="miter-clip" stroke-miterlimit="3.0" stroke-opacity="0.5921569" stroke-width="0.05"/>
    <path d="M-5.75 47.95 L-6.0 48.6 -6.5 49.25 Q-7.35 48.3 -7.5 46.65 L-7.6 43.8 -8.0 38.7 -7.85 36.4 -7.65 36.4 Q-5.75 46.65 -5.75 47.95" fill="#ffffff" fill-rule="evenodd" stroke="none"/>
  </g>
</svg>
