<?xml version="1.0" encoding="UTF-8" standalone="no"?>
<svg xmlns:xlink="http://www.w3.org/1999/xlink" height="98.85px" width="87.2px" xmlns="http://www.w3.org/2000/svg">
  <g transform="matrix(1.0, 0.0, 0.0, 1.0, 8.15, 26.1)">
    <path d="M9.4 -6.05 L11.3 -7.95 14.8 -11.35 18.45 -14.7 Q25.3 -20.0 28.05 -21.6 L33.6 -24.65 Q36.45 -25.85 41.35 -26.1 44.25 -25.65 45.8 -23.4 L47.7 -19.85 Q49.05 -18.0 51.85 -12.95 L56.35 -6.0 Q58.05 -3.5 58.6 -3.1 61.9 -0.75 69.7 -0.75 L76.4 -1.25 Q78.2 -1.25 78.8 0.2 79.1 0.95 79.05 1.75 79.05 2.55 78.15 3.15 77.2 3.8 76.05 3.8 74.85 3.8 71.8 2.6 68.75 1.45 65.55 1.5 63.9 1.55 61.1 0.6 L57.1 -0.95 Q53.75 -2.15 52.3 -4.45 51.1 -7.1 49.95 -8.45 48.9 -9.65 47.5 -12.1 L45.2 -16.1 Q43.2 -18.55 42.8 -19.85 42.65 -21.05 42.3 -21.7 41.65 -22.85 39.8 -22.85 36.0 -22.85 29.0 -18.6 23.45 -15.3 19.8 -12.0 L16.6 -8.85 Q14.6 -6.75 13.05 -5.5 6.2 0.05 3.55 0.05 2.1 0.05 1.6 -0.75 L1.45 -1.55 Q1.45 -2.65 2.5 -3.25 3.35 -3.75 6.55 -4.7 8.5 -5.25 9.4 -6.05" fill="#ffeacc" fill-opacity="0.72156864" fill-rule="evenodd" stroke="none"/>
    <path d="M9.4 -6.05 L11.3 -7.95 14.8 -11.35 18.45 -14.7 Q25.3 -20.0 28.05 -21.6 L33.6 -24.65 Q36.45 -25.85 41.35 -26.1 44.25 -25.65 45.8 -23.4 L47.7 -19.85 Q49.05 -18.0 51.85 -12.95 L56.35 -6.0 Q58.05 -3.5 58.6 -3.1 61.9 -0.75 69.7 -0.75 L76.4 -1.25 Q78.2 -1.25 78.8 0.2 79.1 0.95 79.05 1.75 79.05 2.55 78.15 3.15 77.2 3.8 76.05 3.8 74.85 3.8 71.8 2.6 68.75 1.45 65.55 1.5 63.9 1.55 61.1 0.6 L57.1 -0.95 Q53.75 -2.15 52.3 -4.45 51.1 -7.1 49.95 -8.45 48.9 -9.65 47.5 -12.1 L45.2 -16.1 Q43.2 -18.55 42.8 -19.85 42.65 -21.05 42.3 -21.7 41.65 -22.85 39.8 -22.85 36.0 -22.85 29.0 -18.6 23.45 -15.3 19.8 -12.0 L16.6 -8.85 Q14.6 -6.75 13.05 -5.5 6.2 0.05 3.55 0.05 2.1 0.05 1.6 -0.75 L1.45 -1.55 Q1.45 -2.65 2.5 -3.25 3.35 -3.75 6.55 -4.7 8.5 -5.25 9.4 -6.05 Z" fill="none" stroke="#ca7e60" stroke-linecap="butt" stroke-linejoin="miter-clip" stroke-miterlimit="3.0" stroke-opacity="0.5921569" stroke-width="0.05"/>
    <path d="M36.3 -24.15 L41.35 -25.25 Q42.9 -25.3 43.75 -23.4 43.55 -22.75 43.0 -22.75 L41.35 -23.6 Q39.95 -24.35 37.0 -24.0 L36.3 -24.15" fill="#ffffff" fill-rule="evenodd" stroke="none"/>
    <path d="M75.25 -0.25 Q76.25 0.2 76.25 0.5 76.25 1.4 74.25 1.4 72.8 1.4 71.45 0.4 L70.3 -0.75 72.5 -0.85 Q74.0 -0.85 75.25 -0.25" fill="#ffffff" fill-rule="evenodd" stroke="none"/>
    <path d="M-0.45 -1.6 Q-0.45 -1.25 -0.95 -0.75 -1.45 -0.25 -1.7 -0.25 -3.45 -0.25 -3.45 -1.7 -3.45 -3.8 -1.95 -3.05 -0.45 -2.3 -0.45 -1.6 M-3.05 0.7 L-2.95 1.05 -3.05 1.65 -3.45 2.0 Q-3.8 2.25 -3.8 1.65 -3.8 0.95 -3.15 0.75 L-3.05 0.7 M-4.15 5.6 Q-4.35 6.15 -4.7 6.4 L-5.5 5.35 -5.7 4.6 Q-5.7 3.5 -4.8 3.75 -3.95 4.05 -3.95 4.85 L-4.15 5.6 M-5.9 9.3 Q-5.9 8.75 -5.55 8.4 L-4.55 8.25 -4.5 8.25 -4.45 8.65 -4.55 9.25 -4.65 9.75 -5.2 10.05 -5.9 9.3 M-6.45 19.8 L-6.05 26.9 Q-5.1 35.95 -4.7 41.15 L-3.95 48.25 -3.3 55.4 Q-3.15 58.2 -1.95 63.15 -0.8 67.9 -0.8 69.65 -0.8 70.6 -1.3 71.55 -1.95 72.75 -3.1 72.75 -5.15 72.75 -5.6 70.55 L-5.65 68.0 -6.15 63.15 -6.4 53.55 -7.15 46.25 -7.45 39.15 -7.9 32.0 -8.15 24.8 -7.65 18.2 -7.15 12.75 -6.95 12.65 Q-6.65 15.0 -6.45 19.8" fill="#ffeacc" fill-opacity="0.72156864" fill-rule="evenodd" stroke="none"/>
    <path d="M-0.45 -1.6 Q-0.45 -1.25 -0.95 -0.75 -1.45 -0.25 -1.7 -0.25 -3.45 -0.25 -3.45 -1.7 -3.45 -3.8 -1.95 -3.05 -0.45 -2.3 -0.45 -1.6 M-3.05 0.7 L-2.95 1.05 -3.05 1.65 -3.45 2.0 Q-3.8 2.25 -3.8 1.65 -3.8 0.95 -3.15 0.75 L-3.05 0.7 M-4.15 5.6 Q-4.35 6.15 -4.7 6.4 L-5.5 5.35 -5.7 4.6 Q-5.7 3.5 -4.8 3.75 -3.95 4.05 -3.95 4.85 L-4.15 5.6 M-5.9 9.3 Q-5.9 8.75 -5.55 8.4 L-4.55 8.25 -4.5 8.25 -4.45 8.65 -4.55 9.25 -4.65 9.75 -5.2 10.05 -5.9 9.3 M-6.45 19.8 L-6.05 26.9 Q-5.1 35.95 -4.7 41.15 L-3.95 48.25 -3.3 55.4 Q-3.15 58.2 -1.95 63.15 -0.8 67.9 -0.8 69.65 -0.8 70.6 -1.3 71.55 -1.95 72.75 -3.1 72.75 -5.15 72.75 -5.6 70.55 L-5.65 68.0 -6.15 63.15 -6.4 53.55 -7.15 46.25 -7.45 39.15 -7.9 32.0 -8.15 24.8 -7.65 18.2 -7.15 12.75 -6.95 12.65 Q-6.65 15.0 -6.45 19.8" fill="none" stroke="#ca7e60" stroke-linecap="butt" stroke-linejoin="miter-clip" stroke-miterlimit="3.0" stroke-opacity="0.5921569" stroke-width="0.05"/>
    <path d="M-3.6 62.75 L-2.6 68.25 Q-2.6 69.5 -3.5 69.5 -4.55 69.5 -4.85 65.65 L-4.9 57.55 -4.65 57.55 -3.6 62.75" fill="#ffffff" fill-rule="evenodd" stroke="none"/>
  </g>
</svg>
