<?xml version="1.0" encoding="UTF-8" standalone="no"?>
<svg xmlns:xlink="http://www.w3.org/1999/xlink" height="96.9px" width="96.2px" xmlns="http://www.w3.org/2000/svg">
  <g transform="matrix(1.0, 0.0, 0.0, 1.0, 8.65, 20.65)">
    <path d="M4.0 -0.6 Q2.65 -0.7 1.75 -1.3 L1.55 -1.55 1.5 -1.95 1.5 -2.0 1.8 -2.1 3.35 -2.85 7.55 -4.1 Q9.35 -4.65 10.65 -5.4 L11.5 -6.0 13.0 -7.0 17.0 -9.9 18.65 -11.1 21.3 -12.85 24.75 -15.1 Q28.25 -17.3 32.75 -18.45 L36.6 -19.75 Q38.2 -20.45 39.2 -20.45 L47.1 -19.8 48.05 -19.4 Q49.8 -18.65 51.75 -16.7 L54.45 -13.5 55.15 -12.75 58.4 -9.55 60.2 -7.8 62.1 -6.0 65.2 -3.1 66.1 -2.3 Q67.75 -0.95 68.95 -0.65 L69.3 -0.55 75.8 0.2 80.9 0.0 81.85 -0.05 85.95 0.45 Q86.55 0.65 86.95 1.15 L87.05 1.25 87.5 2.0 Q87.65 2.5 87.1 2.95 L87.0 3.1 86.4 3.65 Q85.95 4.05 85.0 4.3 L82.9 4.55 82.55 4.55 78.4 4.0 74.05 3.55 71.9 3.45 Q69.85 3.35 67.3 2.5 64.65 1.5 63.05 1.1 L60.85 0.55 Q58.75 -0.05 57.4 -0.85 L54.85 -2.55 Q54.2 -2.95 53.8 -3.4 53.5 -3.75 53.35 -4.2 53.05 -5.05 53.3 -6.25 L53.35 -7.25 53.4 -7.75 Q52.85 -9.2 51.6 -10.8 L51.15 -11.35 48.9 -13.8 48.2 -14.8 47.15 -16.45 46.85 -16.7 Q45.95 -17.55 44.45 -17.8 L38.95 -17.65 Q36.05 -17.1 32.75 -15.8 27.2 -13.6 22.3 -10.45 L19.85 -8.7 18.6 -7.8 14.5 -4.9 12.4 -3.55 Q8.0 -0.95 4.9 -0.65 L4.0 -0.6" fill="#ffeacc" fill-opacity="0.72156864" fill-rule="evenodd" stroke="none"/>
    <path d="M4.0 -0.6 Q2.65 -0.7 1.75 -1.3 L1.55 -1.55 1.5 -1.95 1.5 -2.0 1.8 -2.1 3.35 -2.85 7.55 -4.1 Q9.35 -4.65 10.65 -5.4 L11.5 -6.0 13.0 -7.0 17.0 -9.9 18.65 -11.1 21.3 -12.85 24.75 -15.1 Q28.25 -17.3 32.75 -18.45 L36.6 -19.75 Q38.2 -20.45 39.2 -20.45 L47.1 -19.8 48.05 -19.4 Q49.8 -18.65 51.75 -16.7 L54.45 -13.5 55.15 -12.75 58.4 -9.55 60.2 -7.8 62.1 -6.0 65.2 -3.1 66.1 -2.3 Q67.75 -0.95 68.95 -0.65 L69.3 -0.55 75.8 0.2 80.9 0.0 81.85 -0.05 85.95 0.45 Q86.55 0.65 86.95 1.15 L87.05 1.25 87.5 2.0 Q87.65 2.5 87.1 2.95 L87.0 3.1 86.4 3.65 Q85.95 4.05 85.0 4.3 L82.9 4.55 82.55 4.55 78.4 4.0 74.05 3.55 71.9 3.45 Q69.85 3.35 67.3 2.5 64.65 1.5 63.05 1.1 L60.85 0.55 Q58.75 -0.05 57.4 -0.85 L54.85 -2.55 Q54.2 -2.95 53.8 -3.4 53.5 -3.75 53.35 -4.2 53.05 -5.05 53.3 -6.25 L53.35 -7.25 53.4 -7.75 Q52.85 -9.2 51.6 -10.8 L51.15 -11.35 48.9 -13.8 48.2 -14.8 47.15 -16.45 46.85 -16.7 Q45.95 -17.55 44.45 -17.8 L38.95 -17.65 Q36.05 -17.1 32.75 -15.8 27.2 -13.6 22.3 -10.45 L19.85 -8.7 18.6 -7.8 14.5 -4.9 12.4 -3.55 Q8.0 -0.95 4.9 -0.65 L4.0 -0.6 Z" fill="none" stroke="#ca7e60" stroke-linecap="butt" stroke-linejoin="miter-clip" stroke-miterlimit="3.0" stroke-opacity="0.5921569" stroke-width="0.05"/>
    <path d="M48.75 -19.55 L50.0 -18.25 Q50.0 -17.75 49.25 -17.75 L44.3 -20.6 46.25 -20.65 Q47.4 -20.65 48.75 -19.55" fill="#ffffff" fill-rule="evenodd" stroke="none"/>
    <path d="M58.5 -5.1 Q59.05 -5.3 61.0 -4.35 L63.9 -2.85 Q67.05 -1.2 67.4 -0.85 L68.45 0.0 71.0 1.15 Q67.1 0.9 63.4 -1.0 59.85 -2.85 58.5 -5.1" fill="#ffffff" fill-rule="evenodd" stroke="none"/>
    <path d="M82.5 2.0 Q79.7 2.0 78.4 1.35 L76.05 0.4 77.5 0.35 78.75 0.0 81.1 -0.15 Q82.4 -0.1 83.5 1.15 83.2 2.0 82.5 2.0" fill="#ffffff" fill-rule="evenodd" stroke="none"/>
    <path d="M-1.45 -1.25 L-1.2 -0.75 -2.15 0.3 -2.3 0.75 -2.8 2.0 -3.7 3.25 Q-4.45 3.1 -4.45 2.25 -4.45 1.15 -3.75 -0.05 -2.85 -1.7 -1.45 -1.25 M-5.95 11.0 Q-6.1 5.75 -4.95 4.55 -4.4 5.55 -4.3 7.75 L-3.95 9.6 -3.7 10.85 Q-3.7 12.5 -4.85 12.5 -5.75 12.5 -5.9 11.75 L-5.95 11.0 M-7.65 18.2 Q-7.65 23.4 -7.0 32.55 L-5.95 45.65 Q-5.65 50.05 -3.0 61.9 L-0.45 73.4 Q-0.45 74.3 -0.75 75.05 -1.3 76.25 -2.45 76.25 -4.2 76.25 -4.7 71.9 L-4.9 67.5 -6.75 52.5 Q-8.65 35.75 -8.65 26.55 L-8.1 21.2 -7.65 18.2" fill="#ffeacc" fill-opacity="0.72156864" fill-rule="evenodd" stroke="none"/>
    <path d="M-1.45 -1.25 L-1.2 -0.75 -2.15 0.3 -2.3 0.75 -2.8 2.0 -3.7 3.25 Q-4.45 3.1 -4.45 2.25 -4.45 1.15 -3.75 -0.05 -2.85 -1.7 -1.45 -1.25 M-5.95 11.0 Q-6.1 5.75 -4.95 4.55 -4.4 5.55 -4.3 7.75 L-3.95 9.6 -3.7 10.85 Q-3.7 12.5 -4.85 12.5 -5.75 12.5 -5.9 11.75 L-5.95 11.0 M-7.65 18.2 Q-7.65 23.4 -7.0 32.55 L-5.95 45.65 Q-5.65 50.05 -3.0 61.9 L-0.45 73.4 Q-0.45 74.3 -0.75 75.05 -1.3 76.25 -2.45 76.25 -4.2 76.25 -4.7 71.9 L-4.9 67.5 -6.75 52.5 Q-8.65 35.75 -8.65 26.55 L-8.1 21.2 -7.65 18.2" fill="none" stroke="#ca7e60" stroke-linecap="butt" stroke-linejoin="miter-clip" stroke-miterlimit="3.0" stroke-opacity="0.5921569" stroke-width="0.05"/>
    <path d="M-1.75 72.75 L-1.85 73.5 -2.0 73.65 -2.5 73.8 Q-3.4 73.8 -3.75 69.95 L-4.35 64.15 -4.15 64.15 Q-1.75 70.65 -1.75 72.75" fill="#ffffff" fill-rule="evenodd" stroke="none"/>
    <path d="M-4.6 11.0 L-4.7 11.15 -5.15 11.25 -5.45 11.0 -5.6 10.45 -5.4 9.75 -4.9 9.15 Q-5.05 10.1 -4.6 11.0" fill="#ffffff" fill-rule="evenodd" stroke="none"/>
  </g>
</svg>
