<?xml version="1.0" encoding="UTF-8" standalone="no"?>
<svg xmlns:xlink="http://www.w3.org/1999/xlink" height="19.8px" width="97.3px" xmlns="http://www.w3.org/2000/svg">
  <g transform="matrix(1.0, 0.0, 0.0, 1.0, -2.55, 13.95)">
    <path d="M2.85 -2.1 L6.5 -2.55 Q8.1 -2.7 11.85 -3.75 L14.4 -4.65 16.1 -5.35 21.2 -7.75 23.15 -8.65 30.55 -11.9 31.15 -12.1 Q36.0 -13.5 43.6 -13.95 L44.75 -13.95 Q49.95 -13.95 54.4 -12.15 L57.5 -10.8 Q60.2 -9.55 63.7 -6.95 L66.6 -4.95 Q68.5 -3.75 71.0 -2.65 L75.3 -0.85 76.4 -0.4 Q79.0 0.75 80.8 1.2 L84.65 1.85 86.05 1.85 91.1 1.65 93.65 1.3 94.95 1.1 Q97.05 0.95 98.35 1.55 L99.25 2.3 99.35 2.5 99.45 2.85 99.55 3.35 Q100.25 3.5 99.2 4.0 L98.5 4.75 Q98.05 5.25 97.4 5.45 L97.3 5.5 94.95 5.85 91.2 5.7 88.9 5.55 83.25 5.1 79.4 5.1 79.35 5.1 75.85 4.55 75.75 4.55 72.05 4.4 70.55 4.2 64.9 3.55 64.4 3.55 Q61.2 3.55 59.55 2.3 L59.2 2.05 Q57.8 1.75 57.8 0.85 57.8 0.3 58.3 -0.35 58.85 -0.95 59.55 -1.35 L61.45 -1.8 64.6 -2.7 62.6 -4.8 62.35 -4.85 62.35 -5.05 Q60.75 -6.45 59.1 -7.15 L55.65 -9.3 53.6 -10.25 Q50.45 -11.5 47.0 -11.85 42.5 -12.5 38.4 -11.95 32.8 -11.2 24.25 -7.35 L21.2 -5.95 Q17.3 -4.05 15.2 -3.25 10.2 -1.25 6.55 -1.0 5.3 -0.85 4.15 -1.0 L2.65 -1.4 2.55 -1.55 2.55 -1.9 2.85 -2.1" fill="#ffeacc" fill-opacity="0.72156864" fill-rule="evenodd" stroke="none"/>
    <path d="M2.85 -2.1 L6.5 -2.55 Q8.1 -2.7 11.85 -3.75 L14.4 -4.65 16.1 -5.35 21.2 -7.75 23.15 -8.65 30.55 -11.9 31.15 -12.1 Q36.0 -13.5 43.6 -13.95 L44.75 -13.95 Q49.95 -13.95 54.4 -12.15 L57.5 -10.8 Q60.2 -9.55 63.7 -6.95 L66.6 -4.95 Q68.5 -3.75 71.0 -2.65 L75.3 -0.85 76.4 -0.4 Q79.0 0.75 80.8 1.2 L84.65 1.85 86.05 1.85 91.1 1.65 93.65 1.3 94.95 1.1 Q97.05 0.95 98.35 1.55 L99.25 2.3 99.35 2.5 99.45 2.85 99.55 3.35 Q100.25 3.5 99.2 4.0 L98.5 4.75 Q98.05 5.25 97.4 5.45 L97.3 5.5 94.95 5.85 91.2 5.7 88.9 5.55 83.25 5.1 79.4 5.1 79.35 5.1 75.85 4.55 75.75 4.55 72.05 4.4 70.55 4.2 64.9 3.55 64.4 3.55 Q61.2 3.55 59.55 2.3 L59.2 2.05 Q57.8 1.75 57.8 0.85 57.8 0.3 58.3 -0.35 58.85 -0.95 59.55 -1.35 L61.45 -1.8 64.6 -2.7 62.6 -4.8 62.35 -4.85 62.35 -5.05 Q60.75 -6.45 59.1 -7.15 L55.65 -9.3 53.6 -10.25 Q50.45 -11.5 47.0 -11.85 42.5 -12.5 38.4 -11.95 32.8 -11.2 24.25 -7.35 L21.2 -5.95 Q17.3 -4.05 15.2 -3.25 10.2 -1.25 6.55 -1.0 5.3 -0.85 4.15 -1.0 L2.65 -1.4 2.55 -1.55 2.55 -1.9 2.85 -2.1 Z" fill="none" stroke="#ca7e60" stroke-linecap="butt" stroke-linejoin="miter-clip" stroke-miterlimit="3.0" stroke-opacity="0.5921569" stroke-width="0.05"/>
    <path d="M48.75 -12.4 L47.4 -12.85 43.05 -13.35 45.45 -13.6 Q47.85 -13.65 48.8 -12.65 L48.75 -12.4" fill="#ffffff" fill-rule="evenodd" stroke="none"/>
    <path d="M62.3 -1.35 L64.5 -1.0 Q65.65 -0.7 66.2 -0.25 L66.75 0.25 Q67.8 0.95 68.95 1.15 L72.75 1.9 72.8 2.0 71.5 2.05 69.1 1.75 65.5 1.5 Q63.75 1.55 62.85 0.6 62.25 -0.1 62.25 -0.8 L62.3 -1.35" fill="#ffffff" fill-rule="evenodd" stroke="none"/>
    <path d="M94.55 3.2 L94.0 3.4 89.95 3.25 Q85.6 3.0 83.8 2.3 L90.15 1.9 Q94.35 1.9 95.4 2.65 L94.55 3.2" fill="#ffffff" fill-rule="evenodd" stroke="none"/>
  </g>
</svg>
