<?xml version="1.0" encoding="UTF-8" standalone="no"?>
<svg xmlns:xlink="http://www.w3.org/1999/xlink" height="6.7px" width="7.5px" xmlns="http://www.w3.org/2000/svg">
  <g transform="matrix(1.0, 0.0, 0.0, 1.0, 1.05, 2.85)">
    <path d="M1.95 3.85 Q-0.15 3.85 -0.8 3.0 L-1.05 1.85 Q-1.05 -1.2 2.7 -2.55 6.45 -3.85 6.45 0.35 6.45 1.35 4.75 2.65 3.1 3.85 1.95 3.85" fill="#ffeacc" fill-opacity="0.72156864" fill-rule="evenodd" stroke="none"/>
    <path d="M1.95 3.85 Q-0.15 3.85 -0.8 3.0 L-1.05 1.85 Q-1.05 -1.2 2.7 -2.55 6.45 -3.85 6.45 0.35 6.45 1.35 4.75 2.65 3.1 3.85 1.95 3.85 Z" fill="none" stroke="#ca7e60" stroke-linecap="butt" stroke-linejoin="miter-clip" stroke-miterlimit="3.0" stroke-opacity="0.5921569" stroke-width="0.05"/>
    <path d="M4.5 -0.6 Q4.5 -0.05 3.7 0.85 2.8 1.8 2.0 1.8 0.7 1.8 0.8 0.7 0.8 -0.4 2.65 -1.2 4.5 -1.95 4.5 -0.6" fill="#ffffff" fill-rule="evenodd" stroke="none"/>
  </g>
</svg>
