<?xml version="1.0" encoding="UTF-8" standalone="no"?>
<svg xmlns:xlink="http://www.w3.org/1999/xlink" height="25.2px" width="32.65px" xmlns="http://www.w3.org/2000/svg">
  <g transform="matrix(1.0, 0.0, 0.0, 1.0, 0.2, 20.1)">
    <path d="M5.05 -2.15 Q5.8 -3.05 7.6 -3.9 L9.55 -4.75 Q10.25 -5.25 10.95 -6.35 11.7 -7.55 12.45 -8.15 19.9 -14.55 22.95 -16.65 29.1 -20.9 32.05 -19.9 L32.25 -19.55 32.45 -18.6 Q32.45 -17.1 30.35 -15.65 28.9 -14.65 25.05 -12.9 21.25 -11.2 16.2 -7.15 L4.3 2.4 4.3 2.45 0.95 5.1 0.2 5.0 1.45 4.0 Q0.4 3.9 0.0 3.2 L-0.2 2.25 Q-0.2 1.75 1.65 0.05 3.3 -1.5 4.75 -1.7 L5.05 -2.15" fill="#ffeacc" fill-opacity="0.72156864" fill-rule="evenodd" stroke="none"/>
    <path d="M5.05 -2.15 Q5.8 -3.05 7.6 -3.9 L9.55 -4.75 Q10.25 -5.25 10.95 -6.35 11.7 -7.55 12.45 -8.15 19.9 -14.55 22.95 -16.65 29.1 -20.9 32.05 -19.9 L32.25 -19.55 32.45 -18.6 Q32.45 -17.1 30.35 -15.65 28.9 -14.65 25.05 -12.9 21.25 -11.2 16.2 -7.15 L4.3 2.4 4.3 2.45 0.95 5.1 0.2 5.0 1.45 4.0 Q0.4 3.9 0.0 3.2 L-0.2 2.25 Q-0.2 1.75 1.65 0.05 3.3 -1.5 4.75 -1.7 L5.05 -2.15 Z" fill="none" stroke="#ca7e60" stroke-linecap="butt" stroke-linejoin="miter-clip" stroke-miterlimit="3.0" stroke-opacity="0.5921569" stroke-width="0.05"/>
    <path d="M26.9 -17.0 Q26.9 -16.25 22.0 -12.6 L15.3 -7.65 Q4.0 1.5 3.6 1.5 2.7 1.5 2.4 0.45 L8.2 -4.1 14.55 -8.65 21.15 -13.5 23.85 -16.0 Q25.5 -17.55 26.75 -17.75 L26.9 -17.0" fill="#ffffff" fill-rule="evenodd" stroke="none"/>
  </g>
</svg>
