<?xml version="1.0" encoding="UTF-8" standalone="no"?>
<svg xmlns:xlink="http://www.w3.org/1999/xlink" height="37.65px" width="61.35px" xmlns="http://www.w3.org/2000/svg">
  <g transform="matrix(1.0, 0.0, 0.0, 1.0, 2.55, 34.4)">
    <path d="M3.45 -0.25 L4.0 0.6 4.3 1.8 4.2 2.65 3.95 3.0 2.45 3.25 Q-1.05 3.25 -1.05 1.5 -1.05 0.55 10.4 -7.85 20.65 -15.4 24.8 -18.0 L32.55 -22.9 36.7 -24.5 Q36.7 -26.15 37.45 -26.75 40.95 -29.15 46.55 -31.7 52.65 -34.4 55.2 -34.4 58.8 -34.4 58.8 -31.7 58.8 -30.05 57.6 -29.5 L52.2 -28.5 Q50.1 -28.25 47.95 -27.4 L43.8 -25.75 Q40.7 -24.7 37.15 -22.15 L30.2 -17.4 Q25.95 -14.85 16.85 -8.85 7.55 -2.7 3.45 -0.25" fill="#ffeacc" fill-opacity="0.72156864" fill-rule="evenodd" stroke="none"/>
    <path d="M3.45 -0.25 L4.0 0.6 4.3 1.8 4.2 2.65 3.95 3.0 2.45 3.25 Q-1.05 3.25 -1.05 1.5 -1.05 0.55 10.4 -7.85 20.65 -15.4 24.8 -18.0 L32.55 -22.9 36.7 -24.5 Q36.7 -26.15 37.45 -26.75 40.95 -29.15 46.55 -31.7 52.65 -34.4 55.2 -34.4 58.8 -34.4 58.8 -31.7 58.8 -30.05 57.6 -29.5 L52.2 -28.5 Q50.1 -28.25 47.95 -27.4 L43.8 -25.75 Q40.7 -24.7 37.15 -22.15 L30.2 -17.4 Q25.95 -14.85 16.85 -8.85 7.55 -2.7 3.45 -0.25 Z" fill="none" stroke="#ca7e60" stroke-linecap="butt" stroke-linejoin="miter-clip" stroke-miterlimit="3.0" stroke-opacity="0.5921569" stroke-width="0.05"/>
    <path d="M2.3 -3.7 Q0.95 -1.25 0.25 -1.25 -0.65 -1.25 -0.65 -2.15 -0.65 -3.1 1.2 -5.2 3.05 -7.3 4.0 -7.5 3.5 -5.85 2.3 -3.7" fill="#ffffff" fill-rule="evenodd" stroke="none"/>
    <path d="M3.5 -0.75 L3.25 0.6 Q3.0 1.45 1.55 1.5 L1.5 1.25 Q1.5 0.45 2.2 -0.1 L3.5 -0.75" fill="#ffffff" fill-rule="evenodd" stroke="none"/>
    <path d="M43.5 -27.9 L43.3 -28.0 Q44.85 -28.6 46.25 -29.75 47.6 -30.85 49.25 -31.4 L53.25 -32.9 55.25 -33.4 56.3 -33.25 Q56.5 -33.35 56.5 -32.75 56.5 -31.55 50.25 -29.7 L43.5 -27.9" fill="#ffffff" fill-rule="evenodd" stroke="none"/>
    <path d="M5.45 -8.95 Q5.4 -8.4 4.6 -7.1 L3.35 -5.05 3.3 -5.0 2.55 -3.2 1.9 -1.65 0.8 0.1 Q-0.6 2.0 -1.35 1.9 -1.65 2.15 -1.95 1.9 L-2.3 1.65 -2.5 1.4 -2.55 0.75 Q-2.55 -0.5 -1.2 -3.45 -0.05 -6.1 0.65 -6.65 L0.8 -6.9 Q1.95 -8.75 2.8 -9.65 3.55 -10.5 4.5 -10.2 L5.2 -9.95 Q5.5 -9.65 5.45 -8.95" fill="#ffeacc" fill-opacity="0.72156864" fill-rule="evenodd" stroke="none"/>
    <path d="M5.45 -8.95 Q5.4 -8.4 4.6 -7.1 L3.35 -5.05 3.3 -5.0 2.55 -3.2 1.9 -1.65 0.8 0.1 Q-0.6 2.0 -1.35 1.9 -1.65 2.15 -1.95 1.9 L-2.3 1.65 -2.5 1.4 -2.55 0.75 Q-2.55 -0.5 -1.2 -3.45 -0.05 -6.1 0.65 -6.65 L0.8 -6.9 Q1.95 -8.75 2.8 -9.65 3.55 -10.5 4.5 -10.2 L5.2 -9.95 Q5.5 -9.65 5.45 -8.95 Z" fill="none" stroke="#ca7e60" stroke-linecap="butt" stroke-linejoin="miter-clip" stroke-miterlimit="3.0" stroke-opacity="0.5921569" stroke-width="0.05"/>
    <path d="M3.9 -7.65 L4.0 -7.2 Q4.0 -6.45 2.5 -5.15 L0.75 -3.9 0.55 -4.0 0.5 -4.5 Q0.5 -5.4 1.55 -6.75 2.75 -8.2 3.75 -7.85 L3.9 -7.65" fill="#ffffff" fill-rule="evenodd" stroke="none"/>
  </g>
</svg>
