<?xml version="1.0" encoding="UTF-8" standalone="no"?>
<svg xmlns:xlink="http://www.w3.org/1999/xlink" height="44.35px" width="79.9px" xmlns="http://www.w3.org/2000/svg">
  <g transform="matrix(1.0, 0.0, 0.0, 1.0, 2.45, 41.75)">
    <path d="M13.55 -11.9 L23.25 -18.25 Q28.35 -21.4 33.95 -24.25 37.7 -26.1 44.7 -30.35 L55.3 -36.5 Q62.4 -40.35 69.3 -41.45 77.45 -42.75 77.45 -38.1 77.45 -35.7 75.55 -35.75 L69.15 -36.25 Q61.45 -36.25 46.0 -27.8 38.0 -23.45 28.7 -17.65 25.1 -15.8 20.5 -12.6 16.15 -9.55 13.55 -7.15 L8.6 -2.0 Q4.1 2.6 2.95 2.6 L1.95 2.45 1.3 2.0 1.2 0.65 Q1.2 -0.5 6.15 -5.4 10.9 -10.15 13.55 -11.9" fill="#ffeacc" fill-opacity="0.72156864" fill-rule="evenodd" stroke="none"/>
    <path d="M13.55 -11.9 L23.25 -18.25 Q28.35 -21.4 33.95 -24.25 37.7 -26.1 44.7 -30.35 L55.3 -36.5 Q62.4 -40.35 69.3 -41.45 77.45 -42.75 77.45 -38.1 77.45 -35.7 75.55 -35.75 L69.15 -36.25 Q61.45 -36.25 46.0 -27.8 38.0 -23.45 28.7 -17.65 25.1 -15.8 20.5 -12.6 16.15 -9.55 13.55 -7.15 L8.6 -2.0 Q4.1 2.6 2.95 2.6 L1.95 2.45 1.3 2.0 1.2 0.65 Q1.2 -0.5 6.15 -5.4 10.9 -10.15 13.55 -11.9 Z" fill="none" stroke="#ca7e60" stroke-linecap="butt" stroke-linejoin="miter-clip" stroke-miterlimit="3.0" stroke-opacity="0.5921569" stroke-width="0.05"/>
    <path d="M74.25 -39.7 Q74.25 -38.3 70.85 -38.15 65.8 -37.95 62.9 -36.75 62.1 -36.4 58.9 -35.75 L54.65 -34.65 58.95 -36.7 62.9 -38.5 68.05 -40.6 72.9 -40.8 Q74.25 -40.45 74.25 -39.7" fill="#ffffff" fill-rule="evenodd" stroke="none"/>
    <path d="M6.4 -18.6 L7.7 -18.65 Q8.25 -18.35 8.25 -17.25 8.25 -16.75 6.8 -14.7 L4.85 -11.8 4.8 -11.6 3.85 -8.95 3.15 -6.4 2.2 -3.35 Q0.8 0.55 -0.15 1.6 -0.75 2.4 -1.25 2.25 L-1.9 2.05 -2.35 1.7 -2.45 0.75 -2.45 0.7 Q-2.45 -0.75 -0.65 -5.65 L1.45 -10.8 1.6 -11.15 3.65 -16.2 Q4.5 -18.15 6.4 -18.6" fill="#ffeacc" fill-opacity="0.72156864" fill-rule="evenodd" stroke="none"/>
    <path d="M6.4 -18.6 L7.7 -18.65 Q8.25 -18.35 8.25 -17.25 8.25 -16.75 6.8 -14.7 L4.85 -11.8 4.8 -11.6 3.85 -8.95 3.15 -6.4 2.2 -3.35 Q0.8 0.55 -0.15 1.6 -0.75 2.4 -1.25 2.25 L-1.9 2.05 -2.35 1.7 -2.45 0.75 -2.45 0.7 Q-2.45 -0.75 -0.65 -5.65 L1.45 -10.8 1.6 -11.15 3.65 -16.2 Q4.5 -18.15 6.4 -18.6 Z" fill="none" stroke="#ca7e60" stroke-linecap="butt" stroke-linejoin="miter-clip" stroke-miterlimit="3.0" stroke-opacity="0.5921569" stroke-width="0.05"/>
    <path d="M6.3 -16.5 L4.85 -13.6 Q3.4 -10.95 2.75 -10.25 L2.35 -10.3 2.25 -10.7 Q2.25 -12.15 3.3 -14.15 L4.2 -16.2 Q4.75 -17.1 6.25 -17.0 L6.3 -16.5" fill="#ffffff" fill-rule="evenodd" stroke="none"/>
  </g>
</svg>
