<?xml version="1.0" encoding="UTF-8" standalone="no"?>
<svg xmlns:xlink="http://www.w3.org/1999/xlink" height="43.8px" width="94.1px" xmlns="http://www.w3.org/2000/svg">
  <g transform="matrix(1.0, 0.0, 0.0, 1.0, 2.3, 41.2)">
    <path d="M17.8 -11.15 Q20.7 -13.1 27.05 -16.15 34.75 -19.9 36.55 -20.9 46.3 -26.3 63.95 -33.75 72.1 -37.3 79.45 -39.45 91.8 -43.1 91.8 -39.2 91.8 -36.95 80.95 -34.4 L64.45 -31.0 Q57.0 -29.3 50.0 -25.85 46.15 -23.9 40.2 -20.4 L30.1 -14.95 Q25.3 -12.35 21.3 -9.5 L12.65 -2.8 Q5.75 2.35 3.95 2.35 L0.2 0.35 Q4.35 -0.7 9.85 -4.9 L17.8 -11.15" fill="#ffeacc" fill-opacity="0.72156864" fill-rule="evenodd" stroke="none"/>
    <path d="M17.8 -11.15 Q20.7 -13.1 27.05 -16.15 34.75 -19.9 36.55 -20.9 46.3 -26.3 63.95 -33.75 72.1 -37.3 79.45 -39.45 91.8 -43.1 91.8 -39.2 91.8 -36.95 80.95 -34.4 L64.45 -31.0 Q57.0 -29.3 50.0 -25.85 46.15 -23.9 40.2 -20.4 L30.1 -14.95 Q25.3 -12.35 21.3 -9.5 L12.65 -2.8 Q5.75 2.35 3.95 2.35 L0.2 0.35 Q4.35 -0.7 9.85 -4.9 L17.8 -11.15 Z" fill="none" stroke="#ca7e60" stroke-linecap="butt" stroke-linejoin="miter-clip" stroke-miterlimit="3.0" stroke-opacity="0.5921569" stroke-width="0.05"/>
    <path d="M71.4 -35.4 L70.8 -35.4 Q74.0 -36.45 80.8 -39.05 86.0 -40.8 86.0 -39.0 86.0 -36.95 78.8 -36.0 L71.4 -35.4" fill="#ffffff" fill-rule="evenodd" stroke="none"/>
    <path d="M11.05 -25.6 Q11.05 -25.05 9.0 -22.3 L6.3 -18.25 5.2 -14.65 4.45 -11.15 Q1.9 2.6 -0.55 2.6 L-1.55 2.45 -2.2 2.0 -2.3 0.65 Q-2.3 -0.95 -0.05 -7.85 L2.3 -14.9 4.55 -22.75 Q5.5 -25.75 8.25 -27.05 11.05 -28.35 11.05 -25.6" fill="#ffeacc" fill-opacity="0.72156864" fill-rule="evenodd" stroke="none"/>
    <path d="M11.05 -25.6 Q11.05 -25.05 9.0 -22.3 L6.3 -18.25 5.2 -14.65 4.45 -11.15 Q1.9 2.6 -0.55 2.6 L-1.55 2.45 -2.2 2.0 -2.3 0.65 Q-2.3 -0.95 -0.05 -7.85 L2.3 -14.9 4.55 -22.75 Q5.5 -25.75 8.25 -27.05 11.05 -28.35 11.05 -25.6 Z" fill="none" stroke="#ca7e60" stroke-linecap="butt" stroke-linejoin="miter-clip" stroke-miterlimit="3.0" stroke-opacity="0.5921569" stroke-width="0.05"/>
    <path d="M6.75 -22.0 L5.0 -20.25 4.25 -21.0 Q4.25 -22.55 6.25 -24.25 8.25 -25.95 8.25 -24.1 8.25 -23.45 6.75 -22.0" fill="#ffffff" fill-rule="evenodd" stroke="none"/>
  </g>
</svg>
