<?xml version="1.0" encoding="UTF-8" standalone="no"?>
<svg xmlns:xlink="http://www.w3.org/1999/xlink" height="46.25px" width="123.3px" xmlns="http://www.w3.org/2000/svg">
  <g transform="matrix(1.0, 0.0, 0.0, 1.0, 2.65, 43.9)">
    <path d="M16.55 -14.0 Q20.65 -16.85 27.45 -20.5 33.75 -23.85 39.05 -26.15 L53.3 -32.45 Q63.95 -37.1 70.2 -38.9 L81.15 -41.15 93.7 -43.4 109.4 -43.9 115.8 -42.35 117.9 -42.25 Q119.6 -42.25 120.3 -40.8 L120.65 -39.2 Q120.65 -38.05 119.15 -37.15 117.95 -36.4 117.15 -36.4 116.25 -36.4 114.7 -37.15 L112.8 -37.9 101.8 -38.75 93.55 -39.35 87.45 -39.65 Q75.15 -39.65 68.65 -37.5 60.9 -34.15 54.05 -31.65 47.5 -29.3 42.15 -26.2 L32.7 -20.5 24.25 -15.55 Q19.2 -12.35 16.55 -9.65 13.9 -7.0 2.45 1.6 L1.55 1.55 0.3 1.35 0.15 1.15 -0.05 0.15 Q-0.05 -0.7 6.4 -6.1 12.4 -11.15 16.55 -14.0" fill="#ffeacc" fill-opacity="0.72156864" fill-rule="evenodd" stroke="none"/>
    <path d="M16.55 -14.0 Q20.65 -16.85 27.45 -20.5 33.75 -23.85 39.05 -26.15 L53.3 -32.45 Q63.95 -37.1 70.2 -38.9 L81.15 -41.15 93.7 -43.4 109.4 -43.9 115.8 -42.35 117.9 -42.25 Q119.6 -42.25 120.3 -40.8 L120.65 -39.2 Q120.65 -38.05 119.15 -37.15 117.95 -36.4 117.15 -36.4 116.25 -36.4 114.7 -37.15 L112.8 -37.9 101.8 -38.75 93.55 -39.35 87.45 -39.65 Q75.15 -39.65 68.65 -37.5 60.9 -34.15 54.05 -31.65 47.5 -29.3 42.15 -26.2 L32.7 -20.5 24.25 -15.55 Q19.2 -12.35 16.55 -9.65 13.9 -7.0 2.45 1.6 L1.55 1.55 0.3 1.35 0.15 1.15 -0.05 0.15 Q-0.05 -0.7 6.4 -6.1 12.4 -11.15 16.55 -14.0 Z" fill="none" stroke="#ca7e60" stroke-linecap="butt" stroke-linejoin="miter-clip" stroke-miterlimit="3.0" stroke-opacity="0.5921569" stroke-width="0.05"/>
    <path d="M115.35 -38.85 L110.9 -39.8 103.75 -40.9 91.05 -41.35 100.3 -42.2 108.15 -42.65 114.2 -41.75 Q116.55 -41.25 116.55 -39.95 116.55 -38.85 115.35 -38.85" fill="#ffffff" fill-rule="evenodd" stroke="none"/>
    <path d="M17.45 -25.2 Q18.05 -25.7 21.15 -23.35 L21.5 -23.0 Q24.35 -21.25 24.6 -20.15 24.65 -19.45 24.3 -18.85 L24.1 -18.6 23.25 -18.05 Q21.75 -17.7 20.9 -18.35 L20.4 -19.05 20.05 -19.45 18.9 -20.3 Q17.75 -21.25 17.5 -21.1 17.0 -21.15 16.3 -21.55 L14.4 -22.05 12.7 -22.35 Q11.2 -22.8 10.05 -22.05 L8.8 -21.25 Q7.1 -19.7 5.85 -16.35 4.95 -13.75 4.4 -11.0 1.5 -1.75 0.85 -0.55 0.7 -0.05 0.8 0.45 L0.85 1.25 0.8 1.65 Q0.2 2.3 -0.75 2.35 L-1.6 2.2 Q-2.2 2.15 -2.5 1.3 L-2.65 0.45 Q-2.65 -0.15 -1.95 -1.0 -1.25 -1.9 -0.95 -3.55 L-0.45 -5.55 0.0 -7.35 Q0.2 -9.1 1.35 -12.9 L2.2 -15.7 Q4.45 -22.45 5.85 -23.95 L6.75 -24.9 Q7.85 -26.0 10.7 -26.55 L11.65 -26.3 Q12.2 -26.0 12.6 -26.0 L14.95 -25.8 15.1 -25.75 17.45 -25.2" fill="#ffeacc" fill-opacity="0.72156864" fill-rule="evenodd" stroke="none"/>
    <path d="M17.45 -25.2 Q18.05 -25.7 21.15 -23.35 L21.5 -23.0 Q24.35 -21.25 24.6 -20.15 24.65 -19.45 24.3 -18.85 L24.1 -18.6 23.25 -18.05 Q21.75 -17.7 20.9 -18.35 L20.4 -19.05 20.05 -19.45 18.9 -20.3 Q17.75 -21.25 17.5 -21.1 17.0 -21.15 16.3 -21.55 L14.4 -22.05 12.7 -22.35 Q11.2 -22.8 10.05 -22.05 L8.8 -21.25 Q7.1 -19.7 5.85 -16.35 4.95 -13.75 4.4 -11.0 1.5 -1.75 0.85 -0.55 0.7 -0.05 0.8 0.45 L0.85 1.25 0.8 1.65 Q0.2 2.3 -0.75 2.35 L-1.6 2.2 Q-2.2 2.15 -2.5 1.3 L-2.65 0.45 Q-2.65 -0.15 -1.95 -1.0 -1.25 -1.9 -0.95 -3.55 L-0.45 -5.55 0.0 -7.35 Q0.2 -9.1 1.35 -12.9 L2.2 -15.7 Q4.45 -22.45 5.85 -23.95 L6.75 -24.9 Q7.85 -26.0 10.7 -26.55 L11.65 -26.3 Q12.2 -26.0 12.6 -26.0 L14.95 -25.8 15.1 -25.75 17.45 -25.2 Z" fill="none" stroke="#ca7e60" stroke-linecap="butt" stroke-linejoin="miter-clip" stroke-miterlimit="3.0" stroke-opacity="0.5921569" stroke-width="0.05"/>
    <path d="M19.55 -20.6 Q19.1 -20.6 16.75 -21.9 L13.8 -23.4 18.0 -23.55 Q20.5 -22.7 20.5 -21.55 20.5 -20.6 19.55 -20.6" fill="#ffffff" fill-rule="evenodd" stroke="none"/>
  </g>
</svg>
