<?xml version="1.0" encoding="UTF-8" standalone="no"?>
<svg xmlns:xlink="http://www.w3.org/1999/xlink" height="50.05px" width="134.9px" xmlns="http://www.w3.org/2000/svg">
  <g transform="matrix(1.0, 0.0, 0.0, 1.0, 2.85, 47.75)">
    <path d="M77.65 -34.65 L83.1 -38.0 Q86.4 -39.9 89.95 -41.15 L96.6 -43.8 Q101.8 -45.8 104.8 -46.4 106.05 -46.65 106.5 -47.05 106.95 -47.5 107.65 -47.6 110.25 -48.05 126.4 -47.25 132.05 -46.35 132.05 -43.15 132.05 -40.4 127.9 -40.4 126.1 -40.4 125.7 -40.75 L125.15 -41.55 Q123.55 -42.75 111.9 -42.75 L107.4 -42.25 102.9 -41.75 Q96.3 -41.75 90.0 -38.35 87.0 -36.75 80.2 -31.65 75.6 -28.15 69.7 -26.7 L50.45 -22.0 Q39.95 -19.05 21.75 -9.55 4.9 -0.3 2.45 0.6 1.55 0.35 1.3 0.0 6.55 -6.55 24.95 -15.8 43.85 -25.35 57.7 -28.0 70.45 -30.45 77.65 -34.65" fill="#ffeacc" fill-opacity="0.72156864" fill-rule="evenodd" stroke="none"/>
    <path d="M77.65 -34.65 L83.1 -38.0 Q86.4 -39.9 89.95 -41.15 L96.6 -43.8 Q101.8 -45.8 104.8 -46.4 106.05 -46.65 106.5 -47.05 106.95 -47.5 107.65 -47.6 110.25 -48.05 126.4 -47.25 132.05 -46.35 132.05 -43.15 132.05 -40.4 127.9 -40.4 126.1 -40.4 125.7 -40.75 L125.15 -41.55 Q123.55 -42.75 111.9 -42.75 L107.4 -42.25 102.9 -41.75 Q96.3 -41.75 90.0 -38.35 87.0 -36.75 80.2 -31.65 75.6 -28.15 69.7 -26.7 L50.45 -22.0 Q39.95 -19.05 21.75 -9.55 4.9 -0.3 2.45 0.6 1.55 0.35 1.3 0.0 6.55 -6.55 24.95 -15.8 43.85 -25.35 57.7 -28.0 70.45 -30.45 77.65 -34.65 Z" fill="none" stroke="#ca7e60" stroke-linecap="butt" stroke-linejoin="miter-clip" stroke-miterlimit="3.0" stroke-opacity="0.5921569" stroke-width="0.05"/>
    <path d="M109.1 -46.0 L104.25 -45.35 103.9 -45.2 Q103.55 -45.1 103.55 -45.5 L107.7 -46.25 112.5 -46.65 124.25 -46.6 Q125.9 -46.6 127.3 -45.75 128.65 -45.0 128.65 -44.2 128.65 -43.15 126.75 -43.15 125.15 -43.15 124.0 -44.1 L123.0 -45.1 113.75 -45.65 109.1 -46.0" fill="#ffffff" fill-rule="evenodd" stroke="none"/>
    <path d="M80.55 -34.15 Q80.55 -32.85 75.8 -31.05 71.4 -29.4 67.55 -28.9 74.3 -32.5 80.3 -34.5 80.55 -34.8 80.55 -34.15" fill="#ffffff" fill-rule="evenodd" stroke="none"/>
    <path d="M23.4 -25.35 Q23.75 -25.45 27.6 -21.55 L28.1 -20.95 Q31.3 -17.9 31.45 -16.85 31.5 -16.0 30.95 -15.4 L30.65 -15.1 Q30.2 -14.8 29.45 -14.65 27.4 -14.5 26.5 -16.0 L26.1 -17.45 25.75 -18.3 24.45 -20.1 22.8 -21.9 21.3 -23.25 18.8 -24.95 16.4 -26.25 Q14.3 -27.35 12.75 -27.0 11.85 -26.85 11.0 -26.35 8.6 -24.9 6.9 -20.7 5.75 -17.65 5.05 -14.25 L1.05 -1.8 Q0.95 -1.25 1.25 -0.55 L1.5 0.6 1.45 1.2 Q0.95 2.15 -0.35 2.3 L-1.35 2.25 Q-2.2 2.25 -2.6 1.35 L-2.85 0.35 Q-2.85 -0.4 -1.9 -1.25 -0.85 -2.25 -0.6 -4.3 L0.05 -6.65 0.5 -8.8 Q0.65 -10.7 2.0 -15.4 L3.05 -18.8 Q5.55 -26.4 7.6 -28.45 L8.85 -29.45 Q10.3 -30.3 14.4 -30.35 L15.6 -29.45 16.9 -28.6 20.1 -27.35 20.35 -27.25 Q22.75 -26.15 23.4 -25.35" fill="#ffeacc" fill-opacity="0.72156864" fill-rule="evenodd" stroke="none"/>
    <path d="M23.4 -25.35 Q23.75 -25.45 27.6 -21.55 L28.1 -20.95 Q31.3 -17.9 31.45 -16.85 31.5 -16.0 30.95 -15.4 L30.65 -15.1 Q30.2 -14.8 29.45 -14.65 27.4 -14.5 26.5 -16.0 L26.1 -17.45 25.75 -18.3 24.45 -20.1 22.8 -21.9 21.3 -23.25 18.8 -24.95 16.4 -26.25 Q14.3 -27.35 12.75 -27.0 11.85 -26.85 11.0 -26.35 8.6 -24.9 6.9 -20.7 5.75 -17.65 5.05 -14.25 L1.05 -1.8 Q0.95 -1.25 1.25 -0.55 L1.5 0.6 1.45 1.2 Q0.95 2.15 -0.35 2.3 L-1.35 2.25 Q-2.2 2.25 -2.6 1.35 L-2.85 0.35 Q-2.85 -0.4 -1.9 -1.25 -0.85 -2.25 -0.6 -4.3 L0.05 -6.65 0.5 -8.8 Q0.65 -10.7 2.0 -15.4 L3.05 -18.8 Q5.55 -26.4 7.6 -28.45 L8.85 -29.45 Q10.3 -30.3 14.4 -30.35 L15.6 -29.45 16.9 -28.6 20.1 -27.35 20.35 -27.25 Q22.75 -26.15 23.4 -25.35 Z" fill="none" stroke="#ca7e60" stroke-linecap="butt" stroke-linejoin="miter-clip" stroke-miterlimit="3.0" stroke-opacity="0.5921569" stroke-width="0.05"/>
    <path d="M27.75 -16.5 Q26.8 -17.45 25.7 -19.1 L24.05 -21.75 Q25.55 -21.15 26.9 -20.05 28.5 -18.75 28.5 -17.6 28.5 -17.0 27.75 -16.5" fill="#ffffff" fill-rule="evenodd" stroke="none"/>
    <path d="M13.9 -28.4 L11.25 -27.05 Q9.2 -25.9 8.4 -25.9 L7.75 -25.65 7.25 -25.5 Q11.05 -29.3 13.75 -28.75 L13.9 -28.4" fill="#ffffff" fill-rule="evenodd" stroke="none"/>
    <path d="M0.75 -4.65 L-0.1 0.0 -0.5 0.0 -0.9 -0.05 -1.0 -0.6 Q-1.0 -1.7 -0.45 -3.7 L0.3 -6.5 0.5 -6.5 0.75 -4.65" fill="#ffffff" fill-rule="evenodd" stroke="none"/>
  </g>
</svg>
