<?xml version="1.0" encoding="UTF-8" standalone="no"?>
<svg xmlns:xlink="http://www.w3.org/1999/xlink" height="49.0px" width="144.1px" xmlns="http://www.w3.org/2000/svg">
  <g transform="matrix(1.0, 0.0, 0.0, 1.0, 3.05, 46.65)">
    <path d="M24.8 -12.5 Q18.55 -9.65 12.2 -5.6 4.45 -0.7 2.95 0.1 L2.2 0.0 Q7.25 -6.9 23.9 -16.4 38.8 -24.95 50.7 -29.0 L58.25 -31.2 Q62.55 -32.45 64.7 -33.4 71.6 -36.4 78.55 -38.15 L93.8 -42.55 Q110.55 -46.65 124.15 -46.65 132.25 -46.65 137.2 -43.9 141.05 -41.75 141.05 -39.6 141.05 -38.45 140.15 -37.5 139.2 -36.5 137.9 -36.5 136.2 -36.5 134.85 -37.65 L133.55 -39.0 130.8 -39.95 128.8 -40.4 116.9 -43.15 Q103.85 -43.15 90.3 -39.7 L74.45 -34.75 Q69.25 -33.1 62.25 -29.9 55.9 -27.0 50.95 -24.15 46.45 -21.55 37.6 -17.85 L24.8 -12.5" fill="#ffeacc" fill-opacity="0.72156864" fill-rule="evenodd" stroke="none"/>
    <path d="M24.8 -12.5 Q18.55 -9.65 12.2 -5.6 4.45 -0.7 2.95 0.1 L2.2 0.0 Q7.25 -6.9 23.9 -16.4 38.8 -24.95 50.7 -29.0 L58.25 -31.2 Q62.55 -32.45 64.7 -33.4 71.6 -36.4 78.55 -38.15 L93.8 -42.55 Q110.55 -46.65 124.15 -46.65 132.25 -46.65 137.2 -43.9 141.05 -41.75 141.05 -39.6 141.05 -38.45 140.15 -37.5 139.2 -36.5 137.9 -36.5 136.2 -36.5 134.85 -37.65 L133.55 -39.0 130.8 -39.95 128.8 -40.4 116.9 -43.15 Q103.85 -43.15 90.3 -39.7 L74.45 -34.75 Q69.25 -33.1 62.25 -29.9 55.9 -27.0 50.95 -24.15 46.45 -21.55 37.6 -17.85 L24.8 -12.5 Z" fill="none" stroke="#ca7e60" stroke-linecap="butt" stroke-linejoin="miter-clip" stroke-miterlimit="3.0" stroke-opacity="0.5921569" stroke-width="0.05"/>
    <path d="M35.55 -20.65 L40.6 -24.15 Q45.5 -27.15 45.5 -25.0 45.5 -24.25 44.2 -23.55 L41.15 -22.15 Q40.15 -21.7 38.55 -21.4 L35.55 -20.65" fill="#ffffff" fill-rule="evenodd" stroke="none"/>
    <path d="M137.5 -40.35 L136.75 -40.1 130.15 -42.5 127.65 -43.4 Q126.45 -43.85 125.3 -44.5 L132.0 -44.15 Q137.55 -43.55 137.55 -41.3 L137.5 -40.35" fill="#ffffff" fill-rule="evenodd" stroke="none"/>
    <path d="M29.3 -25.5 L34.05 -19.7 Q38.3 -14.65 38.3 -13.6 38.3 -12.55 37.55 -11.9 36.8 -11.25 35.7 -11.25 33.05 -11.25 32.15 -13.65 L31.45 -17.15 Q31.1 -18.2 29.95 -19.9 L28.05 -22.75 Q26.95 -24.55 23.2 -27.8 18.4 -31.9 15.45 -31.9 10.9 -31.9 7.95 -25.05 6.5 -21.55 5.7 -17.5 1.2 -4.0 1.2 -3.1 1.2 -2.45 1.7 -1.6 L2.2 -0.1 Q2.2 2.35 -1.05 2.35 -2.2 2.35 -2.7 1.35 L-3.05 0.25 Q-3.05 -0.6 -1.8 -1.55 -0.5 -2.65 -0.2 -5.0 L0.5 -7.75 1.05 -10.25 Q1.05 -12.95 3.9 -21.9 7.45 -32.8 10.95 -34.0 12.75 -34.6 18.05 -34.15 L19.6 -32.65 21.2 -31.15 Q22.15 -30.55 25.6 -28.7 28.7 -26.85 29.3 -25.5" fill="#ffeacc" fill-opacity="0.72156864" fill-rule="evenodd" stroke="none"/>
    <path d="M29.3 -25.5 L34.05 -19.7 Q38.3 -14.65 38.3 -13.6 38.3 -12.55 37.55 -11.9 36.8 -11.25 35.7 -11.25 33.05 -11.25 32.15 -13.65 L31.45 -17.15 Q31.1 -18.2 29.95 -19.9 L28.05 -22.75 Q26.95 -24.55 23.2 -27.8 18.4 -31.9 15.45 -31.9 10.9 -31.9 7.95 -25.05 6.5 -21.55 5.7 -17.5 1.2 -4.0 1.2 -3.1 1.2 -2.45 1.7 -1.6 L2.2 -0.1 Q2.2 2.35 -1.05 2.35 -2.2 2.35 -2.7 1.35 L-3.05 0.25 Q-3.05 -0.6 -1.8 -1.55 -0.5 -2.65 -0.2 -5.0 L0.5 -7.75 1.05 -10.25 Q1.05 -12.95 3.9 -21.9 7.45 -32.8 10.95 -34.0 12.75 -34.6 18.05 -34.15 L19.6 -32.65 21.2 -31.15 Q22.15 -30.55 25.6 -28.7 28.7 -26.85 29.3 -25.5 Z" fill="none" stroke="#ca7e60" stroke-linecap="butt" stroke-linejoin="miter-clip" stroke-miterlimit="3.0" stroke-opacity="0.5921569" stroke-width="0.05"/>
    <path d="M35.75 -14.25 L35.25 -14.1 Q34.15 -14.1 33.55 -16.0 32.6 -19.35 31.8 -20.75 L34.35 -18.0 Q36.1 -15.9 35.8 -14.6 L35.75 -14.25" fill="#ffffff" fill-rule="evenodd" stroke="none"/>
    <path d="M16.55 -32.65 L13.05 -31.65 Q10.85 -31.1 10.0 -30.1 8.1 -28.0 7.55 -26.75 L7.3 -26.65 Q7.45 -31.0 10.2 -32.35 12.3 -33.4 16.5 -32.85 L16.55 -32.65" fill="#ffffff" fill-rule="evenodd" stroke="none"/>
    <path d="M1.55 -7.75 Q1.55 -5.85 0.9 -3.4 0.25 -1.0 -0.75 0.65 L-1.1 0.5 -1.25 0.0 Q-1.25 -1.7 -0.3 -4.8 0.7 -8.2 1.5 -8.25 L1.55 -7.75" fill="#ffffff" fill-rule="evenodd" stroke="none"/>
  </g>
</svg>
