<?xml version="1.0" encoding="UTF-8" standalone="no"?>
<svg xmlns:xlink="http://www.w3.org/1999/xlink" height="67.75px" width="131.35px" xmlns="http://www.w3.org/2000/svg">
  <g transform="matrix(1.0, 0.0, 0.0, 1.0, 1.05, 44.25)">
    <path d="M8.45 -1.9 L7.2 -2.0 36.1 -13.4 Q47.4 -17.25 76.2 -24.0 L87.45 -26.35 Q95.45 -28.15 99.65 -29.65 102.3 -30.6 105.1 -32.5 L111.55 -36.5 116.05 -39.4 120.9 -42.65 123.6 -43.8 126.65 -44.25 Q128.7 -43.7 129.55 -42.8 130.3 -42.0 130.3 -40.7 130.3 -38.45 127.25 -37.9 120.6 -36.7 116.55 -35.15 114.0 -34.15 110.5 -32.2 L104.4 -29.0 Q102.3 -28.05 88.05 -24.3 73.9 -20.6 66.45 -19.0 45.65 -14.5 34.55 -10.95 L8.45 -1.9 M60.85 -33.05 Q60.4 -32.5 58.95 -32.5 L57.45 -32.75 Q57.2 -34.0 57.2 -35.25 L58.85 -35.4 Q60.3 -35.3 61.55 -34.65 L60.85 -33.05" fill="#ffeacc" fill-opacity="0.72156864" fill-rule="evenodd" stroke="none"/>
    <path d="M8.45 -1.9 L7.2 -2.0 36.1 -13.4 Q47.4 -17.25 76.2 -24.0 L87.45 -26.35 Q95.45 -28.15 99.65 -29.65 102.3 -30.6 105.1 -32.5 L111.55 -36.5 116.05 -39.4 120.9 -42.65 123.6 -43.8 126.65 -44.25 Q128.7 -43.7 129.55 -42.8 130.3 -42.0 130.3 -40.7 130.3 -38.45 127.25 -37.9 120.6 -36.7 116.55 -35.15 114.0 -34.15 110.5 -32.2 L104.4 -29.0 Q102.3 -28.05 88.05 -24.3 73.9 -20.6 66.45 -19.0 45.65 -14.5 34.55 -10.95 L8.45 -1.9 M60.85 -33.05 Q60.4 -32.5 58.95 -32.5 L57.45 -32.75 Q57.2 -34.0 57.2 -35.25 L58.85 -35.4 Q60.3 -35.3 61.55 -34.65 L60.85 -33.05" fill="none" stroke="#ca7e60" stroke-linecap="butt" stroke-linejoin="miter-clip" stroke-miterlimit="3.0" stroke-opacity="0.5921569" stroke-width="0.05"/>
    <path d="M111.25 -34.9 L111.05 -35.0 115.8 -37.4 Q118.85 -39.0 119.8 -39.9 121.2 -41.2 123.7 -42.3 127.0 -43.75 127.0 -41.5 127.0 -40.85 126.5 -40.7 L125.45 -40.65 Q123.85 -40.65 117.55 -37.85 L111.25 -34.9" fill="#ffffff" fill-rule="evenodd" stroke="none"/>
    <path d="M48.0 -16.0 Q47.4 -16.0 47.05 -16.35 48.2 -17.65 52.5 -17.65 L57.5 -18.75 Q50.65 -16.0 48.0 -16.0" fill="#ffffff" fill-rule="evenodd" stroke="none"/>
    <path d="M10.0 -27.75 Q7.45 -23.55 7.45 -21.0 7.45 -20.0 6.2 -17.5 4.85 -14.75 4.45 -10.9 4.35 -9.35 3.3 -5.65 L3.35 -3.0 Q3.05 -1.35 0.45 -1.65 L-1.05 -3.0 1.4 -11.0 Q3.85 -18.4 4.8 -20.65 8.8 -30.2 11.7 -33.3 14.6 -36.4 19.45 -36.4 26.2 -36.4 30.85 -30.2 33.2 -27.05 34.45 -23.4 L38.6 -16.05 Q40.95 -11.95 42.2 -8.75 46.45 1.55 47.95 6.25 48.8 8.9 53.95 20.65 53.95 21.95 53.25 22.75 52.6 23.5 51.45 23.5 47.85 23.5 47.45 20.75 L47.8 17.9 Q47.8 13.7 43.65 3.4 40.6 -4.25 38.3 -8.5 32.8 -20.1 29.95 -25.1 24.95 -33.75 19.55 -33.75 13.6 -33.75 10.0 -27.75" fill="#ffeacc" fill-opacity="0.72156864" fill-rule="evenodd" stroke="none"/>
    <path d="M10.0 -27.75 Q7.45 -23.55 7.45 -21.0 7.45 -20.0 6.2 -17.5 4.85 -14.75 4.45 -10.9 4.35 -9.35 3.3 -5.65 L3.35 -3.0 Q3.05 -1.35 0.45 -1.65 L-1.05 -3.0 1.4 -11.0 Q3.85 -18.4 4.8 -20.65 8.8 -30.2 11.7 -33.3 14.6 -36.4 19.45 -36.4 26.2 -36.4 30.85 -30.2 33.2 -27.05 34.45 -23.4 L38.6 -16.05 Q40.95 -11.95 42.2 -8.75 46.45 1.55 47.95 6.25 48.8 8.9 53.95 20.65 53.95 21.95 53.25 22.75 52.6 23.5 51.45 23.5 47.85 23.5 47.45 20.75 L47.8 17.9 Q47.8 13.7 43.65 3.4 40.6 -4.25 38.3 -8.5 32.8 -20.1 29.95 -25.1 24.95 -33.75 19.55 -33.75 13.6 -33.75 10.0 -27.75 Z" fill="none" stroke="#ca7e60" stroke-linecap="butt" stroke-linejoin="miter-clip" stroke-miterlimit="3.0" stroke-opacity="0.5921569" stroke-width="0.05"/>
    <path d="M51.4 16.6 Q52.0 18.35 52.0 20.0 52.0 20.8 51.25 20.8 50.0 20.8 49.65 17.65 L49.5 12.8 49.8 12.75 51.4 16.6" fill="#ffffff" fill-rule="evenodd" stroke="none"/>
    <path d="M1.85 -6.6 Q0.95 -3.5 -0.1 -2.65 L-0.15 -3.3 Q-0.15 -5.15 0.95 -8.05 1.8 -10.35 2.75 -12.0 2.75 -9.6 1.85 -6.6" fill="#ffffff" fill-rule="evenodd" stroke="none"/>
  </g>
</svg>
