<?xml version="1.0" encoding="UTF-8" standalone="no"?>
<svg xmlns:xlink="http://www.w3.org/1999/xlink" height="63.15px" width="150.95px" xmlns="http://www.w3.org/2000/svg">
  <g transform="matrix(1.0, 0.0, 0.0, 1.0, -0.1, 29.25)">
    <path d="M14.95 -5.0 L34.95 -4.9 43.2 -5.65 57.2 -4.5 Q62.75 -4.5 70.2 -6.55 L82.45 -10.0 Q88.65 -11.45 94.6 -11.35 L104.65 -10.9 107.55 -10.75 107.65 -10.4 104.75 -10.15 102.55 -10.25 80.45 -6.9 Q70.8 -4.4 68.5 -4.15 66.7 -4.0 52.05 -4.0 L33.3 -2.95 10.45 -1.9 Q8.15 -1.9 7.7 -2.4 7.9 -3.1 8.75 -3.6 10.25 -4.5 14.95 -5.0 M88.95 -27.65 Q89.65 -27.35 89.95 -26.65 L89.35 -26.0 Q88.8 -25.65 88.45 -25.65 87.8 -25.9 87.45 -26.25 88.3 -27.65 88.95 -27.65 M108.8 -8.0 L108.7 -8.25 Q108.55 -8.4 108.55 -9.15 L108.65 -10.25 110.55 -10.3 112.55 -9.75 112.7 -9.85 112.8 -9.0 Q112.8 -8.15 112.05 -7.9 L110.4 -7.75 108.8 -8.0 M118.45 -8.5 L118.3 -8.25 115.65 -8.0 115.5 -8.2 115.3 -9.2 115.4 -10.0 Q116.3 -10.25 118.3 -10.0 L118.45 -10.1 118.55 -9.25 118.45 -8.5 M151.05 -26.7 Q151.05 -23.65 143.15 -23.65 137.15 -23.65 137.15 -26.15 137.15 -28.45 144.1 -29.1 151.05 -29.8 151.05 -26.7 M134.9 -21.9 Q134.05 -22.0 133.4 -22.4 L134.4 -23.3 Q135.05 -23.65 135.65 -23.65 L136.05 -23.25 Q135.65 -22.25 134.9 -21.9" fill="#ffeacc" fill-opacity="0.72156864" fill-rule="evenodd" stroke="none"/>
    <path d="M14.95 -5.0 L34.95 -4.9 43.2 -5.65 57.2 -4.5 Q62.75 -4.5 70.2 -6.55 L82.45 -10.0 Q88.65 -11.45 94.6 -11.35 L104.65 -10.9 107.55 -10.75 107.65 -10.4 104.75 -10.15 102.55 -10.25 80.45 -6.9 Q70.8 -4.4 68.5 -4.15 66.7 -4.0 52.05 -4.0 L33.3 -2.95 10.45 -1.9 Q8.15 -1.9 7.7 -2.4 7.9 -3.1 8.75 -3.6 10.25 -4.5 14.95 -5.0 M88.95 -27.65 Q89.65 -27.35 89.95 -26.65 L89.35 -26.0 Q88.8 -25.65 88.45 -25.65 87.8 -25.9 87.45 -26.25 88.3 -27.65 88.95 -27.65 M108.8 -8.0 L108.7 -8.25 Q108.55 -8.4 108.55 -9.15 L108.65 -10.25 110.55 -10.3 112.55 -9.75 112.7 -9.85 112.8 -9.0 Q112.8 -8.15 112.05 -7.9 L110.4 -7.75 108.8 -8.0 M151.05 -26.7 Q151.05 -23.65 143.15 -23.65 137.15 -23.65 137.15 -26.15 137.15 -28.45 144.1 -29.1 151.05 -29.8 151.05 -26.7" fill="none" stroke="#ca7e60" stroke-linecap="butt" stroke-linejoin="miter-clip" stroke-miterlimit="3.0" stroke-opacity="0.5921569" stroke-width="0.05"/>
    <path d="M146.3 -26.4 Q145.15 -25.9 143.1 -25.9 L141.95 -26.05 140.55 -26.15 141.55 -27.4 142.75 -28.25 Q145.2 -29.1 146.4 -28.65 147.3 -28.3 147.3 -27.5 147.3 -26.85 146.3 -26.4" fill="#ffffff" fill-rule="evenodd" stroke="none"/>
    <path d="M16.25 -21.8 Q13.95 -20.75 12.35 -19.35 L10.05 -17.05 Q8.25 -15.1 6.8 -12.25 L6.5 -11.55 4.45 -7.15 4.05 -6.1 3.6 -4.85 Q2.7 -3.0 1.5 -2.7 L1.4 -2.7 0.55 -2.95 Q0.1 -3.2 0.1 -3.75 0.1 -5.7 2.7 -10.95 L5.4 -15.45 Q6.8 -17.75 7.95 -19.15 11.45 -23.5 14.2 -24.5 16.4 -25.85 18.5 -26.15 21.9 -26.85 25.9 -25.15 28.2 -24.25 30.3 -22.55 33.3 -20.15 35.45 -17.1 37.55 -14.0 38.6 -10.75 L38.7 -10.55 42.4 -3.7 44.1 -0.15 45.7 3.5 48.55 10.3 Q50.25 14.35 52.05 17.85 L53.65 20.95 Q54.6 22.8 57.7 26.9 59.05 28.6 59.75 30.2 60.0 31.15 59.85 31.9 L59.8 32.25 Q59.5 33.15 58.8 33.55 L56.15 33.9 Q55.4 33.7 54.6 32.3 L53.65 29.85 50.0 21.15 48.1 16.7 42.95 5.2 41.6 2.05 35.4 -10.9 Q32.35 -16.7 29.8 -19.15 28.6 -20.3 27.3 -21.0 22.6 -23.85 17.85 -22.3 L16.25 -21.8" fill="#ffeacc" fill-opacity="0.72156864" fill-rule="evenodd" stroke="none"/>
    <path d="M16.25 -21.8 Q13.95 -20.75 12.35 -19.35 L10.05 -17.05 Q8.25 -15.1 6.8 -12.25 L6.5 -11.55 4.45 -7.15 4.05 -6.1 3.6 -4.85 Q2.7 -3.0 1.5 -2.7 L1.4 -2.7 0.55 -2.95 Q0.1 -3.2 0.1 -3.75 0.1 -5.7 2.7 -10.95 L5.4 -15.45 Q6.8 -17.75 7.95 -19.15 11.45 -23.5 14.2 -24.5 16.4 -25.85 18.5 -26.15 21.9 -26.85 25.9 -25.15 28.2 -24.25 30.3 -22.55 33.3 -20.15 35.45 -17.1 37.55 -14.0 38.6 -10.75 L38.7 -10.55 42.4 -3.7 44.1 -0.15 45.7 3.5 48.55 10.3 Q50.25 14.35 52.05 17.85 L53.65 20.95 Q54.6 22.8 57.7 26.9 59.05 28.6 59.75 30.2 60.0 31.15 59.85 31.9 L59.8 32.25 Q59.5 33.15 58.8 33.55 L56.15 33.9 Q55.4 33.7 54.6 32.3 L53.65 29.85 50.0 21.15 48.1 16.7 42.95 5.2 41.6 2.05 35.4 -10.9 Q32.35 -16.7 29.8 -19.15 28.6 -20.3 27.3 -21.0 22.6 -23.85 17.85 -22.3 L16.25 -21.8 Z" fill="none" stroke="#ca7e60" stroke-linecap="butt" stroke-linejoin="miter-clip" stroke-miterlimit="3.0" stroke-opacity="0.5921569" stroke-width="0.05"/>
    <path d="M53.0 20.9 L55.5 24.7 Q58.0 28.5 58.0 29.3 L57.9 30.05 Q57.6 30.4 57.0 30.4 56.1 30.4 55.1 28.25 L54.0 25.55 Q53.5 24.75 53.25 23.25 L52.8 20.9 53.0 20.9" fill="#ffffff" fill-rule="evenodd" stroke="none"/>
    <path d="M2.4 -5.85 L2.05 -5.75 1.9 -6.1 Q1.75 -6.35 1.75 -6.75 1.75 -7.6 4.0 -11.75 L6.75 -16.5 Q4.15 -9.25 2.4 -5.85" fill="#ffffff" fill-rule="evenodd" stroke="none"/>
  </g>
</svg>
