<?xml version="1.0" encoding="UTF-8" standalone="no"?>
<svg xmlns:xlink="http://www.w3.org/1999/xlink" height="64.5px" width="150.85px" xmlns="http://www.w3.org/2000/svg">
  <g transform="matrix(1.0, 0.0, 0.0, 1.0, -0.7, 25.0)">
    <path d="M14.7 -3.5 L21.65 -5.45 34.45 -6.9 Q45.0 -7.75 58.85 -7.45 L76.3 -8.4 83.3 -9.8 95.55 -10.9 108.9 -10.75 114.05 -9.4 114.15 -9.0 111.2 -7.55 Q110.15 -7.0 108.9 -7.0 107.3 -7.0 107.05 -8.05 106.85 -9.15 103.4 -9.15 L71.7 -5.15 Q62.05 -4.25 43.45 -4.5 L15.45 -3.4 14.7 -3.5 M99.05 -21.0 Q99.45 -21.4 101.15 -21.4 L101.35 -21.55 Q101.55 -21.55 101.55 -20.75 L101.45 -20.0 101.3 -19.65 Q100.9 -19.4 100.4 -19.25 99.2 -20.25 99.05 -21.0 M118.5 -6.9 L116.65 -6.75 115.4 -7.0 114.8 -7.5 Q114.65 -7.0 114.65 -8.25 114.65 -9.5 117.05 -10.1 119.4 -10.7 119.4 -8.0 119.4 -7.15 118.5 -6.9 M140.55 -18.75 L140.7 -18.85 140.8 -18.0 Q140.8 -17.3 140.05 -16.85 139.4 -16.5 138.4 -16.5 L137.15 -16.75 136.9 -16.9 136.8 -17.7 Q136.8 -18.55 138.1 -18.9 L140.55 -18.75 M144.65 -18.25 Q143.1 -18.25 142.55 -18.9 142.05 -19.4 142.05 -20.6 142.05 -24.9 146.8 -25.0 148.65 -25.05 150.05 -24.25 151.55 -23.4 151.55 -22.1 151.55 -20.5 149.55 -19.35 147.5 -18.25 144.65 -18.25" fill="#ffeacc" fill-opacity="0.72156864" fill-rule="evenodd" stroke="none"/>
    <path d="M14.7 -3.5 L21.65 -5.45 34.45 -6.9 Q45.0 -7.75 58.85 -7.45 L76.3 -8.4 83.3 -9.8 95.55 -10.9 108.9 -10.75 114.05 -9.4 114.15 -9.0 111.2 -7.55 Q110.15 -7.0 108.9 -7.0 107.3 -7.0 107.05 -8.05 106.85 -9.15 103.4 -9.15 L71.7 -5.15 Q62.05 -4.25 43.45 -4.5 L15.45 -3.4 14.7 -3.5 M144.65 -18.25 Q143.1 -18.25 142.55 -18.9 142.05 -19.4 142.05 -20.6 142.05 -24.9 146.8 -25.0 148.65 -25.05 150.05 -24.25 151.55 -23.4 151.55 -22.1 151.55 -20.5 149.55 -19.35 147.5 -18.25 144.65 -18.25" fill="none" stroke="#ca7e60" stroke-linecap="butt" stroke-linejoin="miter-clip" stroke-miterlimit="3.0" stroke-opacity="0.5921569" stroke-width="0.05"/>
    <path d="M146.35 -20.25 Q144.5 -20.25 144.5 -21.75 144.5 -23.25 146.6 -23.25 148.5 -23.25 148.5 -22.0 148.5 -21.4 147.9 -20.85 147.25 -20.25 146.35 -20.25" fill="#ffffff" fill-rule="evenodd" stroke="none"/>
    <path d="M6.5 -15.1 Q12.55 -22.4 16.95 -22.25 25.2 -24.2 33.1 -16.2 39.0 -10.2 40.8 -4.25 43.15 -0.4 45.9 6.0 L50.3 16.35 Q52.4 21.1 55.8 26.5 L60.45 31.95 Q63.05 34.7 63.05 36.6 63.05 39.5 59.95 39.5 57.95 39.5 52.25 27.65 L43.95 8.85 Q37.1 -7.1 33.25 -12.25 27.75 -19.65 19.85 -19.65 13.2 -19.65 7.95 -12.5 L4.45 -6.95 Q2.7 -3.95 1.95 -3.25 L1.0 -3.3 Q0.7 -3.35 0.7 -4.1 0.7 -8.1 6.5 -15.1" fill="#ffeacc" fill-opacity="0.72156864" fill-rule="evenodd" stroke="none"/>
    <path d="M6.5 -15.1 Q12.55 -22.4 16.95 -22.25 25.2 -24.2 33.1 -16.2 39.0 -10.2 40.8 -4.25 43.15 -0.4 45.9 6.0 L50.3 16.35 Q52.4 21.1 55.8 26.5 L60.45 31.95 Q63.05 34.7 63.05 36.6 63.05 39.5 59.95 39.5 57.95 39.5 52.25 27.65 L43.95 8.85 Q37.1 -7.1 33.25 -12.25 27.75 -19.65 19.85 -19.65 13.2 -19.65 7.95 -12.5 L4.45 -6.95 Q2.7 -3.95 1.95 -3.25 L1.0 -3.3 Q0.7 -3.35 0.7 -4.1 0.7 -8.1 6.5 -15.1 Z" fill="none" stroke="#ca7e60" stroke-linecap="butt" stroke-linejoin="miter-clip" stroke-miterlimit="3.0" stroke-opacity="0.5921569" stroke-width="0.05"/>
    <path d="M59.75 35.65 L58.5 34.9 57.75 34.0 57.2 33.1 57.05 32.25 57.05 32.15 58.8 33.4 Q60.05 34.5 60.15 35.25 L59.75 35.65" fill="#ffffff" fill-rule="evenodd" stroke="none"/>
    <path d="M10.65 -17.1 Q8.85 -14.8 7.75 -13.1 L4.9 -9.15 3.7 -7.35 Q2.9 -6.15 2.0 -5.75 L1.95 -5.65 1.9 -6.0 Q1.9 -7.15 3.85 -10.05 L6.5 -13.75 9.7 -17.75 Q11.7 -19.95 13.5 -20.75 L10.65 -17.1" fill="#ffffff" fill-rule="evenodd" stroke="none"/>
  </g>
</svg>
