<?xml version="1.0" encoding="UTF-8" standalone="no"?>
<svg xmlns:xlink="http://www.w3.org/1999/xlink" height="52.65px" width="165.0px" xmlns="http://www.w3.org/2000/svg">
  <g transform="matrix(1.0, 0.0, 0.0, 1.0, 82.5, 26.3)">
    <path d="M-35.95 -22.55 Q-33.1 -20.4 -29.7 -18.25 -10.2 -6.5 29.4 4.05 51.2 2.35 70.85 4.2 L70.9 4.2 Q73.55 3.8 75.25 5.4 81.65 13.3 71.55 10.2 L75.3 12.8 Q53.75 20.15 29.05 13.75 7.6 9.55 -11.95 1.65 -20.55 -2.05 -27.35 -7.75 -29.95 -10.55 -28.1 -13.55 -35.6 -12.6 -42.95 -16.15 L-35.95 -22.55" fill="#f4d05f" fill-opacity="0.99607843" fill-rule="evenodd" stroke="none"/>
    <path d="M75.25 5.4 Q81.4 10.55 81.4 13.35 L81.35 13.8 Q82.8 18.75 80.45 20.95 L75.85 22.4 74.2 22.95 64.9 24.85 50.3 25.7 Q43.85 26.1 35.25 23.7 10.4 19.2 -12.0 9.75 -25.5 4.6 -59.9 0.65 -50.8 -1.65 -35.1 -0.25 -37.55 -1.45 -38.1 -3.95 -24.6 -2.0 -11.95 1.65 7.6 9.55 29.05 13.75 53.75 20.15 75.3 12.8 L71.55 10.2 Q81.65 13.3 75.25 5.4 M75.85 22.4 Q81.8 20.2 78.7 16.05 81.05 15.3 81.35 13.8 81.05 15.3 78.7 16.05 81.8 20.2 75.85 22.4" fill="#ba9848" fill-opacity="0.99607843" fill-rule="evenodd" stroke="none"/>
    <path d="M-59.9 0.65 L-81.9 -1.6 Q-64.5 -31.15 -38.25 -24.45 L-35.95 -22.55 -42.95 -16.15 Q-35.6 -12.6 -28.1 -13.55 -29.95 -10.55 -27.35 -7.75 -20.55 -2.05 -11.95 1.65 -24.6 -2.0 -38.1 -3.95 -37.55 -1.45 -35.1 -0.25 -50.8 -1.65 -59.9 0.65" fill="#55405d" fill-rule="evenodd" stroke="none"/>
    <path d="M-59.9 0.65 L-81.9 -1.6 Q-64.5 -31.15 -38.25 -24.45 L-35.95 -22.55 Q-33.1 -20.4 -29.7 -18.25 -10.2 -6.5 29.4 4.05 51.2 2.35 70.85 4.2 L70.9 4.2 Q73.55 3.8 75.25 5.4 81.4 10.55 81.4 13.35 L81.35 13.8 Q82.8 18.75 80.45 20.95 L75.85 22.4 74.2 22.95 64.9 24.85 50.3 25.7 Q43.85 26.1 35.25 23.7 10.4 19.2 -12.0 9.75 -25.5 4.6 -59.9 0.65 -50.8 -1.65 -35.1 -0.25 -37.55 -1.45 -38.1 -3.95 -24.6 -2.0 -11.95 1.65 -20.55 -2.05 -27.35 -7.75 -29.95 -10.55 -28.1 -13.55 -35.6 -12.6 -42.95 -16.15 L-35.95 -22.55 M81.35 13.8 Q81.05 15.3 78.7 16.05 81.8 20.2 75.85 22.4" fill="none" stroke="#3f274c" stroke-linecap="round" stroke-linejoin="miter-clip" stroke-miterlimit="3.0" stroke-width="1.2000000000000002"/>
    <path d="M51.6 5.9 L51.5 5.85 51.55 5.75 70.55 3.6 70.8 3.6 Q71.35 3.5 71.45 4.1 71.55 4.65 70.95 4.75 L70.85 4.8 70.7 4.8 64.8 5.25 63.05 5.35 61.25 5.45 57.7 5.65 54.6 5.8 51.6 5.9 M68.3 8.3 L68.3 8.2 Q68.3 8.0 68.45 8.15 L75.05 12.1 75.3 12.3 75.45 12.35 75.5 12.4 75.5 12.45 75.55 12.45 75.8 12.65 76.05 12.8 77.7 14.15 78.8 15.2 79.05 15.55 79.2 15.7 Q79.5 16.2 79.05 16.55 78.6 16.85 78.2 16.4 L78.1 16.25 78.0 16.15 77.9 15.95 75.05 13.1 75.0 13.1 74.95 13.05 74.8 12.95 74.6 12.75 68.3 8.3" fill="#3f274c" fill-rule="evenodd" stroke="none"/>
  </g>
</svg>
