<?xml version="1.0" encoding="UTF-8" standalone="no"?>
<svg xmlns:xlink="http://www.w3.org/1999/xlink" height="85.1px" width="150.05px" xmlns="http://www.w3.org/2000/svg">
  <g transform="matrix(1.0, 0.0, 0.0, 1.0, -1.5, 25.0)">
    <path d="M5.8 -7.8 L1.95 -5.4 1.55 -5.65 Q7.65 -14.15 20.1 -10.65 28.3 -8.3 34.2 -3.4 38.7 0.65 42.6 6.1 46.35 11.3 48.55 16.25 50.2 20.1 54.15 26.0 L61.05 36.0 Q62.4 37.9 63.3 40.75 L64.55 45.75 64.7 48.2 Q64.75 49.9 64.95 50.6 L66.1 53.3 Q66.7 54.6 66.7 55.3 66.7 57.0 65.75 58.5 64.7 60.1 63.2 60.1 60.75 60.1 60.3 56.3 L60.2 50.85 Q59.85 46.6 58.7 41.85 57.95 38.7 54.05 32.6 L48.45 23.5 Q43.15 12.55 37.8 5.1 35.2 1.45 29.05 -3.05 20.0 -9.65 11.95 -9.65 9.15 -9.65 5.8 -7.8" fill="#ffeacc" fill-opacity="0.72156864" fill-rule="evenodd" stroke="none"/>
    <path d="M5.8 -7.8 L1.95 -5.4 1.55 -5.65 Q7.65 -14.15 20.1 -10.65 28.3 -8.3 34.2 -3.4 38.7 0.65 42.6 6.1 46.35 11.3 48.55 16.25 50.2 20.1 54.15 26.0 L61.05 36.0 Q62.4 37.9 63.3 40.75 L64.55 45.75 64.7 48.2 Q64.75 49.9 64.95 50.6 L66.1 53.3 Q66.7 54.6 66.7 55.3 66.7 57.0 65.75 58.5 64.7 60.1 63.2 60.1 60.75 60.1 60.3 56.3 L60.2 50.85 Q59.85 46.6 58.7 41.85 57.95 38.7 54.05 32.6 L48.45 23.5 Q43.15 12.55 37.8 5.1 35.2 1.45 29.05 -3.05 20.0 -9.65 11.95 -9.65 9.15 -9.65 5.8 -7.8 Z" fill="none" stroke="#ca7e60" stroke-linecap="butt" stroke-linejoin="miter-clip" stroke-miterlimit="3.0" stroke-opacity="0.5921569" stroke-width="0.05"/>
    <path d="M21.65 -5.45 L34.45 -6.9 Q45.0 -7.75 58.85 -7.45 L76.3 -8.4 83.3 -9.8 95.55 -10.9 108.9 -10.75 114.05 -9.4 114.15 -9.0 111.2 -7.55 Q110.15 -7.0 108.9 -7.0 107.3 -7.0 107.05 -8.05 106.85 -9.15 103.4 -9.15 L71.7 -5.15 Q62.05 -4.25 43.45 -4.5 L15.45 -3.4 14.7 -3.5 21.65 -5.45 M99.05 -21.0 Q99.45 -21.4 101.15 -21.4 L101.35 -21.55 Q101.55 -21.55 101.55 -20.75 L101.45 -20.0 101.3 -19.65 Q100.9 -19.4 100.4 -19.25 99.2 -20.25 99.05 -21.0 M119.4 -8.0 Q119.4 -7.15 118.5 -6.9 L116.65 -6.75 115.4 -7.0 114.8 -7.5 Q114.65 -7.0 114.65 -8.25 114.65 -9.5 117.05 -10.1 119.4 -10.7 119.4 -8.0 M140.7 -18.85 L140.8 -18.0 Q140.8 -17.3 140.05 -16.85 139.4 -16.5 138.4 -16.5 L137.15 -16.75 136.9 -16.9 136.8 -17.7 Q136.8 -18.55 138.1 -18.9 L140.55 -18.75 140.7 -18.85 M142.55 -18.9 Q142.05 -19.4 142.05 -20.6 142.05 -24.9 146.8 -25.0 148.65 -25.05 150.05 -24.25 151.55 -23.4 151.55 -22.1 151.55 -20.5 149.55 -19.35 147.5 -18.25 144.65 -18.25 143.1 -18.25 142.55 -18.9" fill="#ffeacc" fill-opacity="0.72156864" fill-rule="evenodd" stroke="none"/>
    <path d="M21.65 -5.45 L34.45 -6.9 Q45.0 -7.75 58.85 -7.45 L76.3 -8.4 83.3 -9.8 95.55 -10.9 108.9 -10.75 114.05 -9.4 114.15 -9.0 111.2 -7.55 Q110.15 -7.0 108.9 -7.0 107.3 -7.0 107.05 -8.05 106.85 -9.15 103.4 -9.15 L71.7 -5.15 Q62.05 -4.25 43.45 -4.5 L15.45 -3.4 14.7 -3.5 21.65 -5.45 M142.55 -18.9 Q142.05 -19.4 142.05 -20.6 142.05 -24.9 146.8 -25.0 148.65 -25.05 150.05 -24.25 151.55 -23.4 151.55 -22.1 151.55 -20.5 149.55 -19.35 147.5 -18.25 144.65 -18.25 143.1 -18.25 142.55 -18.9" fill="none" stroke="#ca7e60" stroke-linecap="butt" stroke-linejoin="miter-clip" stroke-miterlimit="3.0" stroke-opacity="0.5921569" stroke-width="0.05"/>
    <path d="M147.9 -20.85 Q147.25 -20.25 146.35 -20.25 144.5 -20.25 144.5 -21.75 144.5 -23.25 146.6 -23.25 148.5 -23.25 148.5 -22.0 148.5 -21.4 147.9 -20.85" fill="#ffffff" fill-rule="evenodd" stroke="none"/>
    <path d="M60.0 44.4 Q64.0 52.25 64.0 56.25 64.0 56.85 63.8 56.75 L63.25 57.0 Q61.9 57.0 61.55 53.85 60.8 47.85 59.8 44.5 L60.0 44.4" fill="#ffffff" fill-rule="evenodd" stroke="none"/>
    <path d="M60.5 40.5 L60.05 40.9 Q59.45 40.05 59.0 38.9 L58.3 37.0 58.5 36.9 Q59.95 38.85 60.5 40.5" fill="#ffffff" fill-rule="evenodd" stroke="none"/>
    <path d="M10.15 -9.85 L7.2 -9.05 5.9 -8.75 5.5 -8.9 Q6.65 -10.0 10.1 -10.75 13.9 -11.6 15.8 -10.65 L10.15 -9.85" fill="#ffffff" fill-rule="evenodd" stroke="none"/>
  </g>
</svg>
