<?xml version="1.0" encoding="UTF-8" standalone="no"?>
<svg xmlns:xlink="http://www.w3.org/1999/xlink" height="25.65px" width="13.2px" xmlns="http://www.w3.org/2000/svg">
  <g transform="matrix(1.0, 0.0, 0.0, 1.0, 3.7, 23.15)">
    <path d="M5.6 -0.9 L6.5 0.4 Q6.5 1.55 5.3 2.0 L1.1 2.5 Q-1.35 2.5 -1.6 0.2 -1.6 -0.5 -0.75 -1.05 0.25 -1.75 2.0 -1.9 4.2 -2.1 5.6 -0.9" fill="#d3c2b4" fill-rule="evenodd" stroke="none"/>
    <path d="M5.75 -1.5 L8.75 -1.6 Q9.5 -1.2 9.5 -0.2 9.5 0.55 7.6 1.5 5.65 2.4 4.0 2.4 3.15 2.4 2.2 1.75 L1.3 0.9 Q1.3 -0.7 3.05 -1.1 L5.75 -1.5" fill="#d3c2b4" fill-rule="evenodd" stroke="none"/>
    <path d="M2.55 -1.5 Q0.05 -1.5 0.05 -4.0 0.05 -6.65 4.0 -7.05 7.95 -7.5 7.95 -5.0 7.95 -4.05 6.3 -2.8 4.45 -1.5 2.55 -1.5" fill="#ffeacc" fill-opacity="0.72156864" fill-rule="evenodd" stroke="none"/>
    <path d="M2.55 -1.5 Q0.05 -1.5 0.05 -4.0 0.05 -6.65 4.0 -7.05 7.95 -7.5 7.95 -5.0 7.95 -4.05 6.3 -2.8 4.45 -1.5 2.55 -1.5 Z" fill="none" stroke="#ca7e60" stroke-linecap="butt" stroke-linejoin="miter-clip" stroke-miterlimit="3.0" stroke-opacity="0.5921569" stroke-width="0.05"/>
    <path d="M3.15 -16.65 L3.7 -20.0 Q4.05 -23.2 6.55 -23.15 9.05 -23.15 9.05 -20.65 L6.35 -17.3 Q3.55 -13.35 3.05 -9.0 L2.05 -3.0 Q2.05 2.0 -1.55 2.0 -3.05 2.0 -3.5 0.65 L-3.7 -0.9 Q-3.7 -3.1 -1.35 -7.3 1.4 -11.8 2.2 -13.65 L3.15 -16.65" fill="#ffeacc" fill-opacity="0.72156864" fill-rule="evenodd" stroke="none"/>
    <path d="M3.15 -16.65 L3.7 -20.0 Q4.05 -23.2 6.55 -23.15 9.05 -23.15 9.05 -20.65 L6.35 -17.3 Q3.55 -13.35 3.05 -9.0 L2.05 -3.0 Q2.05 2.0 -1.55 2.0 -3.05 2.0 -3.5 0.65 L-3.7 -0.9 Q-3.7 -3.1 -1.35 -7.3 1.4 -11.8 2.2 -13.65 L3.15 -16.65 Z" fill="none" stroke="#ca7e60" stroke-linecap="butt" stroke-linejoin="miter-clip" stroke-miterlimit="3.0" stroke-opacity="0.5921569" stroke-width="0.05"/>
    <path d="M0.6 -4.3 Q0.4 -1.75 -1.0 -1.75 -1.85 -1.75 -1.85 -2.65 L-0.95 -5.25 Q0.0 -7.3 0.55 -7.65 L0.6 -4.3" fill="#ffffff" fill-rule="evenodd" stroke="none"/>
    <path d="M6.25 -20.9 Q6.35 -20.75 5.75 -20.75 4.45 -20.75 4.55 -21.65 4.55 -22.6 5.45 -22.55 6.3 -22.45 6.3 -21.65 L6.25 -20.9" fill="#ffffff" fill-rule="evenodd" stroke="none"/>
  </g>
</svg>
