<?xml version="1.0" encoding="UTF-8" standalone="no"?>
<svg xmlns:xlink="http://www.w3.org/1999/xlink" height="36.5px" width="21.7px" xmlns="http://www.w3.org/2000/svg">
  <g transform="matrix(1.0, 0.0, 0.0, 1.0, 4.45, 33.0)">
    <path d="M5.65 2.7 Q3.6 3.5 1.5 3.5 -0.4 3.5 -1.0 2.55 L-1.25 1.4 Q-1.25 -0.95 3.35 -1.05 7.9 -1.15 7.9 0.75 7.9 1.8 5.65 2.7" fill="#d3c2b4" fill-rule="evenodd" stroke="none"/>
    <path d="M16.4 2.2 L15.25 2.05 9.5 2.5 4.35 2.95 -0.1 3.4 Q-1.9 3.4 -1.9 1.7 -1.9 0.45 -0.3 0.0 L6.25 -0.25 13.45 0.4 Q16.8 0.85 17.25 1.75 16.95 2.25 16.4 2.2" fill="#d3c2b4" fill-rule="evenodd" stroke="none"/>
    <path d="M8.25 -1.9 L11.9 -1.55 Q14.05 -0.85 14.05 -0.25 14.05 0.6 11.0 1.6 8.1 2.5 6.25 2.5 4.9 2.5 4.45 1.6 L4.25 0.6 Q4.25 -0.35 5.0 -0.8 L8.25 -1.9" fill="#d3c2b4" fill-rule="evenodd" stroke="none"/>
    <path d="M12.05 -7.6 L12.0 -7.05 12.05 -6.3 Q12.05 -5.7 11.25 -4.2 10.3 -2.45 9.3 -2.0 L5.3 0.3 1.8 0.75 Q1.5 0.75 1.2 1.0 L0.55 1.25 Q-0.1 1.25 -0.5 0.75 L-0.8 -0.3 Q-0.8 -2.0 6.1 -6.9 12.95 -11.85 12.95 -9.0 12.95 -8.6 12.05 -7.6" fill="#ffeacc" fill-opacity="0.72156864" fill-rule="evenodd" stroke="none"/>
    <path d="M12.05 -7.6 L12.0 -7.05 12.05 -6.3 Q12.05 -5.7 11.25 -4.2 10.3 -2.45 9.3 -2.0 L5.3 0.3 1.8 0.75 Q1.5 0.75 1.2 1.0 L0.55 1.25 Q-0.1 1.25 -0.5 0.75 L-0.8 -0.3 Q-0.8 -2.0 6.1 -6.9 12.95 -11.85 12.95 -9.0 12.95 -8.6 12.05 -7.6 Z" fill="none" stroke="#ca7e60" stroke-linecap="butt" stroke-linejoin="miter-clip" stroke-miterlimit="3.0" stroke-opacity="0.5921569" stroke-width="0.05"/>
    <path d="M7.25 -29.4 L8.45 -31.65 Q9.1 -32.65 10.8 -32.95 12.7 -33.3 12.7 -31.5 12.7 -30.65 8.7 -23.3 L3.45 -13.5 Q1.35 -8.85 0.7 -4.5 0.5 -2.85 0.65 0.5 0.35 3.1 -2.3 3.1 -3.7 3.1 -4.2 2.1 L-4.45 1.0 -1.45 -6.95 Q1.6 -15.15 1.95 -17.75 2.3 -20.05 3.2 -22.45 4.35 -25.5 5.8 -27.15 L7.25 -29.4" fill="#ffeacc" fill-opacity="0.72156864" fill-rule="evenodd" stroke="none"/>
    <path d="M7.25 -29.4 L8.45 -31.65 Q9.1 -32.65 10.8 -32.95 12.7 -33.3 12.7 -31.5 12.7 -30.65 8.7 -23.3 L3.45 -13.5 Q1.35 -8.85 0.7 -4.5 0.5 -2.85 0.65 0.5 0.35 3.1 -2.3 3.1 -3.7 3.1 -4.2 2.1 L-4.45 1.0 -1.45 -6.95 Q1.6 -15.15 1.95 -17.75 2.3 -20.05 3.2 -22.45 4.35 -25.5 5.8 -27.15 L7.25 -29.4 Z" fill="none" stroke="#ca7e60" stroke-linecap="butt" stroke-linejoin="miter-clip" stroke-miterlimit="3.0" stroke-opacity="0.5921569" stroke-width="0.05"/>
    <path d="M10.9 -31.25 Q10.9 -29.65 9.5 -28.05 7.4 -25.75 6.75 -24.5 L6.65 -24.4 Q6.5 -24.35 6.5 -24.75 L7.5 -28.25 Q8.85 -31.6 10.75 -31.75 L10.9 -31.25" fill="#ffffff" fill-rule="evenodd" stroke="none"/>
  </g>
</svg>
