<?xml version="1.0" encoding="UTF-8" standalone="no"?>
<svg xmlns:xlink="http://www.w3.org/1999/xlink" height="65.9px" width="62.95px" xmlns="http://www.w3.org/2000/svg">
  <g transform="matrix(1.0, 0.0, 0.0, 1.0, 4.55, 61.1)">
    <path d="M5.25 2.35 L2.0 2.9 Q-0.15 2.9 -0.85 2.0 L-1.15 0.95 Q-1.15 -1.45 2.7 -1.4 6.55 -1.4 6.55 0.6 6.55 1.7 5.25 2.35" fill="#d3c2b4" fill-rule="evenodd" stroke="none"/>
    <path d="M19.0 -1.1 L35.85 0.5 Q41.5 1.4 41.5 3.3 41.5 4.8 40.0 4.8 38.75 4.8 37.05 3.7 35.35 2.6 33.75 2.55 L22.0 2.0 18.25 1.55 10.75 1.3 2.5 1.55 Q1.1 1.55 1.05 0.25 1.05 -1.65 6.0 -2.05 11.0 -2.45 19.0 -1.1" fill="#d3c2b4" fill-rule="evenodd" stroke="none"/>
    <path d="M30.55 -1.25 L22.0 -1.95 13.25 -3.0 26.6 -4.05 Q35.0 -4.65 40.4 -4.4 L47.35 -4.3 51.8 -3.85 Q52.85 -3.5 53.1 -2.95 L53.25 -2.15 Q53.5 -1.35 58.25 -1.85 58.4 -2.2 58.4 -1.55 L58.3 -1.25 54.0 -1.5 Q53.7 -1.5 53.0 -0.75 52.3 0.0 48.75 0.0 L38.1 -0.5 30.55 -1.25" fill="#d3c2b4" fill-rule="evenodd" stroke="none"/>
    <path d="M25.8 -3.55 L33.4 -4.25 39.15 -4.15 Q42.95 -3.95 44.5 -3.1 L44.55 -2.9 42.75 -2.85 41.5 -3.0 33.75 -2.3 25.65 -1.35 25.65 -0.95 Q25.65 0.0 23.75 0.3 L19.9 0.75 15.35 1.05 10.65 1.3 6.75 1.9 Q5.55 1.9 4.95 0.95 L4.65 0.0 Q4.65 -1.7 6.75 -2.15 L9.5 -2.4 14.05 -3.05 19.9 -2.9 25.8 -3.55" fill="#d3c2b4" fill-rule="evenodd" stroke="none"/>
    <path d="M5.05 -4.0 L7.85 -5.65 10.7 -7.75 24.85 -16.75 Q34.4 -22.55 41.05 -25.2 L44.8 -26.7 47.75 -27.2 52.95 -27.5 Q56.05 -26.75 56.05 -24.2 56.05 -21.7 52.35 -21.05 L41.6 -19.75 36.05 -18.3 35.4 -18.05 34.05 -17.45 Q28.5 -14.75 23.35 -10.95 21.9 -9.85 17.55 -7.4 13.6 -5.1 12.3 -4.0 L7.85 -0.35 Q4.4 2.3 3.55 2.3 1.35 2.3 0.15 1.1 -0.7 0.25 -0.7 -0.3 -0.7 -1.0 0.0 -1.55 0.7 -2.15 1.8 -2.35 2.75 -2.5 5.05 -4.0" fill="#ffeacc" fill-opacity="0.72156864" fill-rule="evenodd" stroke="none"/>
    <path d="M5.05 -4.0 L7.85 -5.65 10.7 -7.75 24.85 -16.75 Q34.4 -22.55 41.05 -25.2 L44.8 -26.7 47.75 -27.2 52.95 -27.5 Q56.05 -26.75 56.05 -24.2 56.05 -21.7 52.35 -21.05 L41.6 -19.75 36.05 -18.3 35.4 -18.05 34.05 -17.45 Q28.5 -14.75 23.35 -10.95 21.9 -9.85 17.55 -7.4 13.6 -5.1 12.3 -4.0 L7.85 -0.35 Q4.4 2.3 3.55 2.3 1.35 2.3 0.15 1.1 -0.7 0.25 -0.7 -0.3 -0.7 -1.0 0.0 -1.55 0.7 -2.15 1.8 -2.35 2.75 -2.5 5.05 -4.0 Z" fill="none" stroke="#ca7e60" stroke-linecap="butt" stroke-linejoin="miter-clip" stroke-miterlimit="3.0" stroke-opacity="0.5921569" stroke-width="0.05"/>
    <path d="M39.8 -61.0 L39.95 -60.8 40.05 -59.9 Q40.05 -58.2 36.85 -56.8 32.35 -54.9 31.2 -53.9 L27.4 -50.4 Q24.65 -47.75 24.2 -46.75 22.6 -43.7 19.8 -39.15 L15.55 -32.15 6.95 -16.05 Q0.8 -4.1 0.8 -2.9 0.8 -2.25 1.45 -1.3 2.05 -0.3 2.05 0.3 2.05 1.75 1.0 2.25 L-0.8 2.5 Q-3.05 2.5 -4.0 0.85 -4.55 -0.05 -4.55 -0.95 -4.55 -1.9 -0.35 -8.35 L5.05 -16.9 9.25 -24.55 Q11.8 -29.1 13.05 -32.65 16.3 -42.25 25.05 -51.95 34.2 -62.05 39.8 -61.0" fill="#ffeacc" fill-opacity="0.72156864" fill-rule="evenodd" stroke="none"/>
    <path d="M39.8 -61.0 L39.95 -60.8 40.05 -59.9 Q40.05 -58.2 36.85 -56.8 32.35 -54.9 31.2 -53.9 L27.4 -50.4 Q24.65 -47.75 24.2 -46.75 22.6 -43.7 19.8 -39.15 L15.55 -32.15 6.95 -16.05 Q0.8 -4.1 0.8 -2.9 0.8 -2.25 1.45 -1.3 2.05 -0.3 2.05 0.3 2.05 1.75 1.0 2.25 L-0.8 2.5 Q-3.05 2.5 -4.0 0.85 -4.55 -0.05 -4.55 -0.95 -4.55 -1.9 -0.35 -8.35 L5.05 -16.9 9.25 -24.55 Q11.8 -29.1 13.05 -32.65 16.3 -42.25 25.05 -51.95 34.2 -62.05 39.8 -61.0 Z" fill="none" stroke="#ca7e60" stroke-linecap="butt" stroke-linejoin="miter-clip" stroke-miterlimit="3.0" stroke-opacity="0.5921569" stroke-width="0.05"/>
    <path d="M37.75 -59.7 Q37.75 -59.35 35.45 -57.9 33.1 -56.5 32.5 -56.5 L31.75 -56.65 31.55 -56.75 Q31.55 -57.75 33.8 -59.25 35.85 -60.65 36.75 -60.65 37.75 -60.65 37.75 -59.7" fill="#ffffff" fill-rule="evenodd" stroke="none"/>
    <path d="M50.75 -24.05 L47.0 -23.4 Q43.25 -22.5 42.05 -22.5 39.55 -21.65 38.55 -21.65 42.9 -23.9 45.7 -25.0 51.9 -27.4 51.9 -25.0 51.9 -24.2 50.75 -24.05" fill="#ffffff" fill-rule="evenodd" stroke="none"/>
  </g>
</svg>
