<?xml version="1.0" encoding="UTF-8" standalone="no"?>
<svg xmlns:xlink="http://www.w3.org/1999/xlink" height="77.15px" width="83.35px" xmlns="http://www.w3.org/2000/svg">
  <g transform="matrix(1.0, 0.0, 0.0, 1.0, 5.95, 68.0)">
    <path d="M4.85 2.15 Q3.3 3.15 1.5 3.15 -0.05 3.15 -1.0 2.25 -1.75 1.5 -1.75 0.7 -1.75 -1.75 2.25 -2.05 6.25 -2.4 6.25 0.45 6.25 1.25 4.85 2.15" fill="#d3c2b4" fill-rule="evenodd" stroke="none"/>
    <path d="M55.25 8.5 Q54.65 9.15 53.75 9.15 52.85 9.15 51.25 8.35 49.55 7.5 48.55 6.5 L48.3 5.9 47.25 5.25 44.5 4.3 36.85 2.9 19.75 1.65 Q5.6 1.65 3.05 2.7 2.4 2.95 2.0 3.4 L-0.35 3.75 Q-1.6 3.75 -2.15 2.75 L-2.5 1.75 Q-2.5 -1.05 5.75 -0.85 L36.5 0.8 Q42.6 1.55 47.95 2.95 55.75 5.0 55.75 7.25 55.75 7.9 55.25 8.5" fill="#d3c2b4" fill-rule="evenodd" stroke="none"/>
    <path d="M13.2 -0.7 Q4.5 2.3 3.75 2.3 L1.05 2.0 Q1.65 0.45 5.65 -0.55 L13.5 -2.35 Q19.65 -4.15 22.35 -4.6 L37.25 -6.1 Q43.3 -6.6 51.0 -6.3 L63.05 -5.25 73.05 -4.25 Q77.4 -3.9 77.4 -1.75 77.4 -0.95 76.9 -0.45 76.35 0.15 75.35 0.15 L57.1 -1.8 29.65 -3.75 Q21.9 -3.75 13.2 -0.7" fill="#d3c2b4" fill-rule="evenodd" stroke="none"/>
    <path d="M24.55 -16.85 Q34.0 -22.7 46.45 -26.45 58.9 -30.2 65.8 -29.2 71.25 -28.65 74.15 -27.05 77.1 -25.5 77.1 -23.0 77.1 -22.1 76.55 -21.25 75.7 -19.95 73.9 -19.95 72.25 -19.95 67.2 -22.1 62.1 -24.25 54.55 -24.25 42.9 -24.25 23.45 -13.55 13.35 -8.0 1.3 -0.5 4.0 -4.0 11.4 -8.8 L24.55 -16.85" fill="#ffeacc" fill-opacity="0.72156864" fill-rule="evenodd" stroke="none"/>
    <path d="M24.55 -16.85 Q34.0 -22.7 46.45 -26.45 58.9 -30.2 65.8 -29.2 71.25 -28.65 74.15 -27.05 77.1 -25.5 77.1 -23.0 77.1 -22.1 76.55 -21.25 75.7 -19.95 73.9 -19.95 72.25 -19.95 67.2 -22.1 62.1 -24.25 54.55 -24.25 42.9 -24.25 23.45 -13.55 13.35 -8.0 1.3 -0.5 4.0 -4.0 11.4 -8.8 L24.55 -16.85 Z" fill="none" stroke="#ca7e60" stroke-linecap="butt" stroke-linejoin="miter-clip" stroke-miterlimit="3.0" stroke-opacity="0.5921569" stroke-width="0.05"/>
    <path d="M52.2 -65.0 Q52.2 -63.15 50.95 -62.75 L48.3 -62.65 Q46.15 -62.65 37.45 -56.8 30.1 -51.95 26.55 -48.9 22.85 -45.8 20.45 -41.05 L16.45 -33.15 7.35 -19.2 Q-0.55 -6.4 -0.55 -2.0 -0.55 -1.75 0.95 -0.75 2.45 0.25 2.45 0.85 2.45 1.8 1.0 2.75 -0.5 3.75 -2.3 3.75 -5.35 3.75 -5.95 2.3 L-5.95 0.65 Q-5.95 -2.9 3.75 -18.35 L14.2 -34.4 17.9 -43.0 Q20.4 -48.5 25.05 -52.0 L36.75 -60.7 Q46.85 -68.0 47.95 -68.0 49.95 -68.0 51.2 -66.85 52.2 -65.95 52.2 -65.0" fill="#ffeacc" fill-opacity="0.72156864" fill-rule="evenodd" stroke="none"/>
    <path d="M52.2 -65.0 Q52.2 -63.15 50.95 -62.75 L48.3 -62.65 Q46.15 -62.65 37.45 -56.8 30.1 -51.95 26.55 -48.9 22.85 -45.8 20.45 -41.05 L16.45 -33.15 7.35 -19.2 Q-0.55 -6.4 -0.55 -2.0 -0.55 -1.75 0.95 -0.75 2.45 0.25 2.45 0.85 2.45 1.8 1.0 2.75 -0.5 3.75 -2.3 3.75 -5.35 3.75 -5.95 2.3 L-5.95 0.65 Q-5.95 -2.9 3.75 -18.35 L14.2 -34.4 17.9 -43.0 Q20.4 -48.5 25.05 -52.0 L36.75 -60.7 Q46.85 -68.0 47.95 -68.0 49.95 -68.0 51.2 -66.85 52.2 -65.95 52.2 -65.0 Z" fill="none" stroke="#ca7e60" stroke-linecap="butt" stroke-linejoin="miter-clip" stroke-miterlimit="3.0" stroke-opacity="0.5921569" stroke-width="0.05"/>
    <path d="M72.5 -26.1 Q73.05 -25.45 73.05 -25.0 L73.0 -24.5 72.25 -24.25 Q67.6 -26.0 66.5 -26.15 L58.05 -27.35 64.95 -27.3 70.0 -27.15 Q71.6 -27.15 72.5 -26.1" fill="#ffffff" fill-rule="evenodd" stroke="none"/>
    <path d="M47.4 -66.15 L47.5 -65.75 Q47.5 -65.25 46.2 -64.25 44.8 -63.1 43.55 -63.0 43.95 -63.35 44.95 -65.0 46.0 -66.45 47.25 -66.25 L47.4 -66.15" fill="#ffffff" fill-rule="evenodd" stroke="none"/>
  </g>
</svg>
