<?xml version="1.0" encoding="UTF-8" standalone="no"?>
<svg xmlns:xlink="http://www.w3.org/1999/xlink" height="77.65px" width="104.35px" xmlns="http://www.w3.org/2000/svg">
  <g transform="matrix(1.0, 0.0, 0.0, 1.0, -18.7, 14.4)">
    <path d="M23.55 -3.4 Q23.55 -4.8 26.9 -3.95 30.15 -3.15 32.05 -1.5 33.8 -0.75 37.2 1.15 40.6 2.75 44.75 3.0 46.5 3.05 56.65 5.45 66.55 7.75 68.5 7.75 70.05 7.75 70.15 9.7 70.15 10.4 69.5 11.0 68.8 11.65 67.75 11.65 L58.0 9.65 Q47.6 7.5 42.55 6.9 35.8 6.15 31.3 2.3 L26.9 -0.7 Q23.55 -2.95 23.55 -3.4" fill="#d3c2b4" fill-rule="evenodd" stroke="none"/>
    <path d="M51.75 -1.1 Q54.9 0.35 54.9 1.25 54.9 1.65 54.55 1.9 L54.0 2.15 Q52.0 2.15 50.25 1.2 48.55 0.35 48.55 -0.5 48.55 -2.55 51.75 -1.1" fill="#d3c2b4" fill-rule="evenodd" stroke="none"/>
    <path d="M68.05 -1.7 Q67.55 -1.25 66.75 -1.25 64.85 -1.25 63.25 -2.25 61.75 -3.2 61.75 -4.0 61.75 -6.05 65.15 -5.45 68.55 -4.85 68.55 -2.95 68.55 -2.2 68.05 -1.7" fill="#d3c2b4" fill-rule="evenodd" stroke="none"/>
    <path d="M73.5 4.95 L71.25 5.4 Q69.6 5.4 69.0 4.5 L68.75 3.6 Q68.75 1.75 71.4 2.0 74.0 2.25 74.0 3.9 74.0 4.65 73.5 4.95" fill="#d3c2b4" fill-rule="evenodd" stroke="none"/>
    <path d="M79.8 -2.2 Q79.8 -3.65 81.3 -3.5 82.75 -3.3 82.75 -2.25 82.75 -1.7 82.35 -1.25 81.95 -0.85 81.5 -0.85 80.55 -0.85 80.05 -1.5 L79.8 -2.2" fill="#d3c2b4" fill-rule="evenodd" stroke="none"/>
    <path d="M70.4 21.9 L72.25 25.65 Q73.5 28.7 73.5 29.95 73.5 30.65 73.0 31.25 72.35 32.0 71.25 32.0 69.55 32.0 69.05 30.45 L68.75 28.5 67.25 24.75 64.95 20.45 63.25 17.2 Q63.25 15.6 64.35 15.9 65.4 16.15 67.15 18.0 L68.8 19.95 70.4 21.9" fill="#d3c2b4" fill-rule="evenodd" stroke="none"/>
    <path d="M65.5 -3.05 Q65.2 -3.35 65.2 -4.05 65.2 -5.35 67.75 -5.05 70.3 -4.8 70.3 -3.85 70.3 -3.05 69.85 -2.75 L68.65 -2.5 Q66.2 -2.5 65.5 -3.05 M80.1 -3.45 Q80.1 -4.2 80.95 -4.15 81.85 -4.1 82.6 -3.1 82.75 -2.85 82.5 -2.65 L81.8 -2.45 Q80.55 -2.45 80.2 -3.0 L80.1 -3.45 M86.15 -7.0 Q83.85 -7.0 83.2 -8.1 L83.05 -9.3 Q83.05 -13.15 92.1 -14.2 L102.25 -14.4 Q112.05 -13.85 112.05 -9.95 112.05 -9.05 111.45 -8.15 110.5 -6.85 108.55 -6.85 107.0 -6.85 104.35 -7.9 101.65 -9.0 98.65 -9.0 93.75 -9.0 90.7 -8.0 87.65 -7.0 86.15 -7.0 M121.35 -9.35 Q121.35 -9.95 121.95 -9.9 L123.05 -9.35 Q122.65 -8.7 122.15 -8.7 L121.6 -8.75 121.4 -8.9 121.35 -9.35 M115.55 -4.05 Q115.55 -5.3 118.05 -6.65 120.55 -8.0 120.55 -5.7 120.55 -4.75 119.75 -3.75 119.25 -3.1 118.65 -2.8 L118.0 -2.25 Q116.95 -1.5 116.55 -1.5 115.8 -1.5 115.55 -2.05 115.4 -2.3 115.4 -2.7 115.4 -3.15 115.7 -3.5 115.55 -3.75 115.55 -4.05" fill="#ffeacc" fill-opacity="0.72156864" fill-rule="evenodd" stroke="none"/>
    <path d="M65.5 -3.05 Q65.2 -3.35 65.2 -4.05 65.2 -5.35 67.75 -5.05 70.3 -4.8 70.3 -3.85 70.3 -3.05 69.85 -2.75 L68.65 -2.5 Q66.2 -2.5 65.5 -3.05 M80.1 -3.45 Q80.1 -4.2 80.95 -4.15 81.85 -4.1 82.6 -3.1 82.75 -2.85 82.5 -2.65 L81.8 -2.45 Q80.55 -2.45 80.2 -3.0 L80.1 -3.45 M86.15 -7.0 Q83.85 -7.0 83.2 -8.1 L83.05 -9.3 Q83.05 -13.15 92.1 -14.2 L102.25 -14.4 Q112.05 -13.85 112.05 -9.95 112.05 -9.05 111.45 -8.15 110.5 -6.85 108.55 -6.85 107.0 -6.85 104.35 -7.9 101.65 -9.0 98.65 -9.0 93.75 -9.0 90.7 -8.0 87.65 -7.0 86.15 -7.0 M121.35 -9.35 Q121.35 -9.95 121.95 -9.9 L123.05 -9.35 Q122.65 -8.7 122.15 -8.7 L121.6 -8.75 121.4 -8.9 121.35 -9.35 M115.55 -4.05 Q115.55 -5.3 118.05 -6.65 120.55 -8.0 120.55 -5.7 120.55 -4.75 119.75 -3.75 119.25 -3.1 118.65 -2.8 L118.0 -2.25 Q116.95 -1.5 116.55 -1.5 115.8 -1.5 115.55 -2.05 115.4 -2.3 115.4 -2.7 115.4 -3.15 115.7 -3.5 115.55 -3.75 115.55 -4.05" fill="none" stroke="#ca7e60" stroke-linecap="butt" stroke-linejoin="miter-clip" stroke-miterlimit="3.0" stroke-opacity="0.5921569" stroke-width="0.05"/>
    <path d="M30.2 -5.35 Q33.25 -5.1 34.45 -4.15 L34.3 -3.9 35.45 -3.75 47.7 0.75 Q48.7 1.1 52.5 2.8 57.0 4.45 62.45 5.0 71.3 5.45 71.3 8.3 71.3 9.85 69.15 9.85 67.65 9.85 66.45 9.05 65.15 8.2 63.45 8.1 56.4 7.25 53.95 6.5 L50.95 5.3 50.1 5.35 44.05 4.6 32.95 2.35 Q31.3 1.95 31.05 0.85 30.8 -0.3 29.95 -0.5 29.45 -0.6 27.35 -1.65 25.9 -2.35 25.2 -2.8 L23.3 -3.2 Q18.85 -4.4 18.7 -6.65 L23.05 -5.95 25.75 -5.35 27.2 -5.4 30.2 -5.35 M52.4 -1.9 Q55.15 -0.9 57.05 0.25 L57.05 1.0 Q57.1 1.35 55.85 1.35 54.35 1.35 51.4 0.15 48.45 -1.05 47.95 -1.75 L47.95 -2.9 Q49.45 -2.95 52.4 -1.9 M55.2 -4.5 L57.2 -5.25 63.95 -5.9 68.55 -5.25 68.8 -4.5 68.35 -3.65 Q67.9 -3.15 66.9 -3.15 66.1 -3.15 65.45 -3.75 L64.05 -4.5 59.25 -4.7 55.2 -4.5 M59.95 -1.15 Q59.95 0.1 59.55 0.0 L59.2 0.2 58.2 0.35 57.3 0.1 Q56.95 0.6 56.95 -0.65 56.95 -1.6 58.45 -2.15 59.95 -2.65 59.95 -1.15 M73.3 2.35 Q73.3 2.95 72.7 3.5 71.95 4.1 70.9 4.1 68.05 4.1 68.05 2.35 68.05 1.2 68.8 0.85 69.85 0.35 72.9 0.85 L73.1 1.3 73.3 2.35 M63.35 15.95 Q61.8 14.15 61.8 12.9 61.8 9.1 66.6 13.85 69.7 16.95 73.9 22.6 75.55 25.05 75.9 28.95 L76.05 35.75 Q76.05 38.35 76.65 41.95 L77.8 48.1 79.05 54.3 Q79.65 57.65 79.65 59.9 79.65 61.0 78.8 62.0 77.7 63.25 75.9 63.25 73.55 63.25 73.05 57.2 L73.05 51.0 72.45 43.35 Q71.8 35.7 71.8 31.85 71.8 25.35 66.8 19.7 L63.35 15.95" fill="#ffeacc" fill-opacity="0.72156864" fill-rule="evenodd" stroke="none"/>
    <path d="M30.2 -5.35 Q33.25 -5.1 34.45 -4.15 L34.3 -3.9 35.45 -3.75 47.7 0.75 Q48.7 1.1 52.5 2.8 57.0 4.45 62.45 5.0 71.3 5.45 71.3 8.3 71.3 9.85 69.15 9.85 67.65 9.85 66.45 9.05 65.15 8.2 63.45 8.1 56.4 7.25 53.95 6.5 L50.95 5.3 50.1 5.35 44.05 4.6 32.95 2.35 Q31.3 1.95 31.05 0.85 30.8 -0.3 29.95 -0.5 29.45 -0.6 27.35 -1.65 25.9 -2.35 25.2 -2.8 L23.3 -3.2 Q18.85 -4.4 18.7 -6.65 L23.05 -5.95 25.75 -5.35 27.2 -5.4 30.2 -5.35 M52.4 -1.9 Q55.15 -0.9 57.05 0.25 L57.05 1.0 Q57.1 1.35 55.85 1.35 54.35 1.35 51.4 0.15 48.45 -1.05 47.95 -1.75 L47.95 -2.9 Q49.45 -2.95 52.4 -1.9 M55.2 -4.5 L57.2 -5.25 63.95 -5.9 68.55 -5.25 68.8 -4.5 68.35 -3.65 Q67.9 -3.15 66.9 -3.15 66.1 -3.15 65.45 -3.75 L64.05 -4.5 59.25 -4.7 55.2 -4.5 M73.3 2.35 Q73.3 2.95 72.7 3.5 71.95 4.1 70.9 4.1 68.05 4.1 68.05 2.35 68.05 1.2 68.8 0.85 69.85 0.35 72.9 0.85 L73.1 1.3 73.3 2.35 M63.35 15.95 Q61.8 14.15 61.8 12.9 61.8 9.1 66.6 13.85 69.7 16.95 73.9 22.6 75.55 25.05 75.9 28.95 L76.05 35.75 Q76.05 38.35 76.65 41.95 L77.8 48.1 79.05 54.3 Q79.65 57.65 79.65 59.9 79.65 61.0 78.8 62.0 77.7 63.25 75.9 63.25 73.55 63.25 73.05 57.2 L73.05 51.0 72.45 43.35 Q71.8 35.7 71.8 31.85 71.8 25.35 66.8 19.7 L63.35 15.95" fill="none" stroke="#ca7e60" stroke-linecap="butt" stroke-linejoin="miter-clip" stroke-miterlimit="3.0" stroke-opacity="0.5921569" stroke-width="0.05"/>
    <path d="M119.05 -4.6 L118.85 -3.6 Q118.6 -3.35 118.0 -3.35 117.25 -3.35 117.1 -3.9 117.0 -4.15 117.05 -4.5 117.05 -5.55 118.15 -6.1 119.25 -6.65 119.25 -5.5 L119.05 -4.6" fill="#ffffff" fill-rule="evenodd" stroke="none"/>
    <path d="M32.9 -2.85 Q36.15 -1.2 43.5 3.05 L43.5 3.25 Q39.45 2.05 35.1 0.45 27.3 -2.5 27.3 -3.9 27.3 -5.75 32.9 -2.85" fill="#ffffff" fill-rule="evenodd" stroke="none"/>
    <path d="M65.95 6.5 Q67.9 7.1 68.05 8.05 L68.0 8.4 67.5 8.55 Q66.9 8.55 65.2 7.3 L63.5 5.9 63.75 5.8 65.95 6.5" fill="#ffffff" fill-rule="evenodd" stroke="none"/>
    <path d="M53.75 -0.4 L52.75 -0.65 Q51.8 -0.95 51.4 -1.35 52.0 -2.2 52.95 -1.75 53.85 -1.3 53.75 -0.5 L53.75 -0.4" fill="#ffffff" fill-rule="evenodd" stroke="none"/>
    <path d="M67.0 17.95 L65.15 15.25 65.25 14.8 65.25 14.75 Q72.4 19.9 73.3 28.25 73.55 30.4 73.45 35.35 73.4 39.9 73.8 42.3 L73.8 43.65 73.75 43.75 71.5 29.4 71.0 25.7 Q70.65 23.6 69.9 22.25 69.15 20.85 67.0 17.95" fill="#ffffff" fill-rule="evenodd" stroke="none"/>
    <path d="M75.8 53.8 L76.5 57.1 Q76.5 58.5 75.5 58.5 74.7 58.5 74.15 56.05 L73.8 53.5 74.1 52.0 Q74.45 50.75 74.8 50.5 L75.8 53.8" fill="#ffffff" fill-rule="evenodd" stroke="none"/>
    <path d="M76.25 59.15 L76.1 59.8 75.8 60.25 75.5 60.3 74.8 59.55 Q74.8 58.7 76.15 58.55 L76.25 59.15" fill="#ffffff" fill-rule="evenodd" stroke="none"/>
    <path d="M66.5 -4.75 Q65.65 -4.75 64.8 -5.6 65.25 -6.2 65.85 -6.05 66.45 -5.9 67.0 -5.0 67.1 -4.75 66.5 -4.75" fill="#ffffff" fill-rule="evenodd" stroke="none"/>
    <path d="M89.65 -10.85 Q88.15 -9.5 87.1 -9.5 86.15 -9.5 85.85 -10.0 L85.75 -10.55 Q85.75 -13.1 95.3 -11.65 91.0 -12.05 89.65 -10.85" fill="#ffffff" fill-rule="evenodd" stroke="none"/>
    <path d="M105.95 -10.75 L104.6 -10.5 Q103.9 -10.5 103.55 -10.8 L103.25 -11.15 Q103.4 -12.4 105.1 -12.15 106.7 -11.9 107.25 -10.9 L105.95 -10.75" fill="#ffffff" fill-rule="evenodd" stroke="none"/>
  </g>
</svg>
