<?xml version="1.0" encoding="UTF-8" standalone="no"?>
<svg xmlns:xlink="http://www.w3.org/1999/xlink" height="84.5px" width="105.4px" xmlns="http://www.w3.org/2000/svg">
  <g transform="matrix(1.0, 0.0, 0.0, 1.0, -18.2, 14.4)">
    <path d="M51.55 -3.0 Q51.55 -4.9 55.05 -3.4 58.5 -1.85 58.5 -0.7 L58.05 0.1 57.0 0.65 Q56.3 0.65 53.3 -0.85 51.55 -1.85 51.55 -3.0" fill="#d3c2b4" fill-rule="evenodd" stroke="none"/>
    <path d="M65.65 -2.75 Q65.65 -5.05 69.85 -3.8 74.0 -2.6 74.0 -0.5 73.5 0.5 72.25 0.5 69.95 0.5 67.85 -0.5 65.65 -1.55 65.65 -2.75" fill="#d3c2b4" fill-rule="evenodd" stroke="none"/>
    <path d="M75.5 2.85 Q74.9 3.4 74.0 3.4 72.15 3.4 71.2 2.2 70.5 1.4 70.5 0.7 70.5 -1.7 73.3 -1.05 76.05 -0.35 76.05 1.5 76.05 2.25 75.5 2.85" fill="#d3c2b4" fill-rule="evenodd" stroke="none"/>
    <path d="M69.6 -3.9 Q69.0 -3.9 68.4 -4.25 L67.25 -4.85 63.5 -5.4 Q61.95 -5.75 61.55 -6.15 61.25 -6.45 61.25 -7.3 61.25 -8.7 66.0 -7.5 70.75 -6.25 70.75 -5.0 70.75 -3.9 69.6 -3.9" fill="#d3c2b4" fill-rule="evenodd" stroke="none"/>
    <path d="M85.1 -0.75 Q80.9 -0.75 80.9 -2.5 80.9 -4.25 83.5 -3.35 86.0 -2.5 86.75 -1.25 L85.1 -0.75" fill="#d3c2b4" fill-rule="evenodd" stroke="none"/>
    <path d="M120.35 -1.6 Q119.15 0.0 117.5 0.0 116.35 0.0 116.1 -0.8 L116.0 -1.65 Q116.0 -3.3 118.65 -4.55 121.25 -5.75 121.25 -3.75 121.25 -2.85 120.35 -1.6" fill="#d3c2b4" fill-rule="evenodd" stroke="none"/>
    <path d="M121.15 -7.8 Q121.15 -9.05 122.4 -9.8 123.6 -10.6 123.6 -8.75 123.6 -8.2 123.25 -7.6 122.75 -6.9 122.1 -6.9 L121.3 -7.0 121.15 -7.8" fill="#d3c2b4" fill-rule="evenodd" stroke="none"/>
    <path d="M71.55 24.65 Q73.0 28.6 73.0 29.7 L72.5 31.05 Q71.85 31.75 70.85 31.75 69.05 31.75 68.5 30.2 L68.25 28.0 Q67.95 25.85 67.0 24.0 66.4 22.75 64.05 19.55 L61.9 16.45 Q61.9 14.8 63.2 14.45 64.65 14.05 66.55 16.0 L68.55 18.25 69.8 20.5 71.55 24.65" fill="#d3c2b4" fill-rule="evenodd" stroke="none"/>
    <path d="M35.85 -4.15 L45.0 -2.0 Q49.4 -1.2 57.5 2.15 L63.65 4.6 Q66.75 5.75 69.75 7.15 L76.75 8.85 Q80.75 9.8 80.75 12.15 80.75 13.15 79.95 13.85 78.85 14.75 76.75 14.75 74.4 14.75 70.85 13.25 L67.15 11.5 62.6 9.35 58.55 7.75 Q46.3 3.7 45.2 3.5 L36.6 3.25 Q34.9 3.25 32.15 1.55 29.8 0.1 29.0 -0.85 L27.25 -3.15 Q26.25 -4.65 26.25 -5.75 26.25 -6.2 26.75 -6.4 27.2 -6.6 27.55 -6.4 L28.75 -5.5 29.5 -5.5 30.5 -5.65 35.85 -4.15" fill="#d3c2b4" fill-rule="evenodd" stroke="none"/>
    <path d="M85.25 17.25 Q84.5 17.9 82.85 17.9 80.95 17.9 80.3 17.1 L80.05 16.2 Q80.05 13.75 82.9 14.25 85.75 14.75 85.75 16.15 85.75 16.75 85.25 17.25" fill="#d3c2b4" fill-rule="evenodd" stroke="none"/>
    <path d="M65.5 -3.05 Q65.2 -3.35 65.2 -4.05 65.2 -5.35 67.75 -5.05 L69.4 -4.7 71.5 -4.7 Q75.8 -4.4 75.8 -3.35 75.8 -2.55 75.2 -2.25 L73.55 -2.0 68.65 -2.5 Q66.2 -2.5 65.5 -3.05 M80.95 -4.15 L81.6 -4.0 82.05 -4.0 83.9 -3.9 84.3 -3.1 83.45 -2.5 82.15 -2.25 Q80.85 -2.25 80.5 -2.7 L80.2 -3.0 80.1 -3.45 Q80.1 -4.2 80.95 -4.15 M86.15 -7.0 Q83.85 -7.0 83.2 -8.1 L83.05 -9.3 Q83.05 -13.15 92.1 -14.2 L102.25 -14.4 Q112.05 -13.85 112.05 -9.95 112.05 -9.05 111.45 -8.15 110.5 -6.85 108.55 -6.85 107.0 -6.85 104.35 -7.9 101.65 -9.0 98.65 -9.0 93.75 -9.0 90.7 -8.0 87.65 -7.0 86.15 -7.0 M121.35 -9.35 Q121.35 -9.95 121.95 -9.9 L123.05 -9.35 Q122.65 -8.7 122.15 -8.7 L121.6 -8.75 121.4 -8.9 121.35 -9.35 M115.55 -4.05 Q115.55 -5.3 118.05 -6.65 120.55 -8.0 120.55 -5.7 120.55 -4.75 119.75 -3.75 119.25 -3.1 118.65 -2.8 L118.0 -2.25 Q116.95 -1.5 116.55 -1.5 115.8 -1.5 115.55 -2.05 115.4 -2.3 115.4 -2.7 115.4 -3.15 115.7 -3.5 115.55 -3.75 115.55 -4.05" fill="#ffeacc" fill-opacity="0.72156864" fill-rule="evenodd" stroke="none"/>
    <path d="M65.5 -3.05 Q65.2 -3.35 65.2 -4.05 65.2 -5.35 67.75 -5.05 L69.4 -4.7 71.5 -4.7 Q75.8 -4.4 75.8 -3.35 75.8 -2.55 75.2 -2.25 L73.55 -2.0 68.65 -2.5 Q66.2 -2.5 65.5 -3.05 M80.95 -4.15 L81.6 -4.0 82.05 -4.0 83.9 -3.9 84.3 -3.1 83.45 -2.5 82.15 -2.25 Q80.85 -2.25 80.5 -2.7 L80.2 -3.0 80.1 -3.45 Q80.1 -4.2 80.95 -4.15 M86.15 -7.0 Q83.85 -7.0 83.2 -8.1 L83.05 -9.3 Q83.05 -13.15 92.1 -14.2 L102.25 -14.4 Q112.05 -13.85 112.05 -9.95 112.05 -9.05 111.45 -8.15 110.5 -6.85 108.55 -6.85 107.0 -6.85 104.35 -7.9 101.65 -9.0 98.65 -9.0 93.75 -9.0 90.7 -8.0 87.65 -7.0 86.15 -7.0 M121.35 -9.35 Q121.35 -9.95 121.95 -9.9 L123.05 -9.35 Q122.65 -8.7 122.15 -8.7 L121.6 -8.75 121.4 -8.9 121.35 -9.35 M115.55 -4.05 Q115.55 -5.3 118.05 -6.65 120.55 -8.0 120.55 -5.7 120.55 -4.75 119.75 -3.75 119.25 -3.1 118.65 -2.8 L118.0 -2.25 Q116.95 -1.5 116.55 -1.5 115.8 -1.5 115.55 -2.05 115.4 -2.3 115.4 -2.7 115.4 -3.15 115.7 -3.5 115.55 -3.75 115.55 -4.05" fill="none" stroke="#ca7e60" stroke-linecap="butt" stroke-linejoin="miter-clip" stroke-miterlimit="3.0" stroke-opacity="0.5921569" stroke-width="0.05"/>
    <path d="M18.45 -9.9 L21.1 -9.3 22.0 -9.15 22.15 -9.15 22.3 -9.1 23.25 -9.0 23.85 -9.0 23.95 -9.0 Q25.2 -9.0 29.05 -7.85 L30.2 -7.9 33.2 -7.85 Q36.25 -7.6 37.45 -6.65 L37.3 -6.4 38.45 -6.25 50.7 -1.75 55.5 0.3 Q60.0 1.95 65.45 2.5 L71.05 3.25 71.65 3.4 Q74.3 4.25 74.3 5.8 74.3 6.65 73.65 7.05 L78.65 7.6 Q79.75 7.65 80.0 8.05 80.3 8.45 80.3 9.9 80.3 11.05 79.15 11.6 L77.4 12.0 77.25 12.0 Q71.3 11.95 59.9 7.65 L56.35 6.25 Q42.15 0.5 35.95 0.5 33.7 0.5 29.95 -1.95 L26.55 -4.5 25.55 -5.4 25.5 -5.4 25.4 -5.5 Q24.55 -6.2 23.7 -6.5 L20.75 -7.15 Q18.75 -7.7 20.95 -8.0 L18.2 -9.65 18.45 -9.9 M60.2 -7.75 L66.95 -8.4 71.55 -7.75 71.8 -7.0 71.35 -6.15 Q70.9 -5.65 69.9 -5.65 69.1 -5.65 68.45 -6.25 L67.05 -7.0 62.25 -7.2 58.2 -7.0 60.2 -7.75 M50.95 -5.4 Q52.45 -5.45 55.4 -4.4 58.15 -3.4 60.05 -2.25 L60.05 -1.5 Q60.1 -1.15 58.85 -1.15 L58.0 -1.2 Q56.6 -1.45 54.4 -2.35 52.5 -3.15 51.6 -3.7 L50.95 -4.25 50.95 -5.4 M59.95 -3.15 Q59.95 -4.1 61.45 -4.65 62.95 -5.15 62.95 -3.65 62.95 -2.4 62.55 -2.5 L62.2 -2.3 61.2 -2.15 60.3 -2.4 Q59.95 -1.9 59.95 -3.15 M75.9 -1.65 L76.1 -1.2 76.3 -0.15 Q76.3 0.45 75.7 1.0 74.95 1.6 73.9 1.6 71.05 1.6 71.05 -0.15 71.05 -1.3 71.8 -1.65 72.85 -2.15 75.9 -1.65 M85.75 12.45 L85.9 13.4 Q85.9 14.55 84.0 15.35 L81.65 16.0 Q79.9 16.0 79.45 15.2 79.3 14.95 79.3 14.25 79.3 12.8 80.75 12.35 L85.55 12.1 85.75 12.45 M64.75 12.2 Q70.1 15.75 72.8 21.1 L73.9 22.6 Q75.55 25.05 75.9 28.95 L76.05 35.75 76.15 38.0 76.25 38.9 76.25 39.15 76.65 41.95 77.8 48.1 79.05 54.3 Q79.65 57.65 79.65 59.9 L79.3 61.35 80.0 64.85 80.0 65.0 80.05 65.4 80.05 65.55 Q80.05 66.9 79.2 68.35 78.15 70.1 76.65 70.1 72.95 70.1 72.45 62.6 72.55 53.65 72.15 50.75 71.6 46.8 71.4 39.3 L71.3 31.6 71.3 31.35 71.3 31.15 71.0 27.15 70.8 26.25 Q69.55 22.85 66.8 19.7 L63.35 15.95 Q61.8 14.15 61.8 12.9 61.8 11.05 62.95 11.25 L62.95 11.1 63.25 11.3 63.4 11.35 64.1 11.8 64.75 12.2" fill="#ffeacc" fill-opacity="0.72156864" fill-rule="evenodd" stroke="none"/>
    <path d="M18.45 -9.9 L21.1 -9.3 22.0 -9.15 22.15 -9.15 22.3 -9.1 23.25 -9.0 23.85 -9.0 23.95 -9.0 Q25.2 -9.0 29.05 -7.85 L30.2 -7.9 33.2 -7.85 Q36.25 -7.6 37.45 -6.65 L37.3 -6.4 38.45 -6.25 50.7 -1.75 55.5 0.3 Q60.0 1.95 65.45 2.5 L71.05 3.25 71.65 3.4 Q74.3 4.25 74.3 5.8 74.3 6.65 73.65 7.05 L78.65 7.6 Q79.75 7.65 80.0 8.05 80.3 8.45 80.3 9.9 80.3 11.05 79.15 11.6 L77.4 12.0 77.25 12.0 Q71.3 11.95 59.9 7.65 L56.35 6.25 Q42.15 0.5 35.95 0.5 33.7 0.5 29.95 -1.95 L26.55 -4.5 25.55 -5.4 25.5 -5.4 25.4 -5.5 Q24.55 -6.2 23.7 -6.5 L20.75 -7.15 Q18.75 -7.7 20.95 -8.0 L18.2 -9.65 18.45 -9.9 M60.2 -7.75 L66.95 -8.4 71.55 -7.75 71.8 -7.0 71.35 -6.15 Q70.9 -5.65 69.9 -5.65 69.1 -5.65 68.45 -6.25 L67.05 -7.0 62.25 -7.2 58.2 -7.0 60.2 -7.75 M50.95 -5.4 Q52.45 -5.45 55.4 -4.4 58.15 -3.4 60.05 -2.25 L60.05 -1.5 Q60.1 -1.15 58.85 -1.15 L58.0 -1.2 Q56.6 -1.45 54.4 -2.35 52.5 -3.15 51.6 -3.7 L50.95 -4.25 50.95 -5.4 M59.95 -3.15 Q59.95 -4.1 61.45 -4.65 62.95 -5.15 62.95 -3.65 62.95 -2.4 62.55 -2.5 L62.2 -2.3 61.2 -2.15 60.3 -2.4 Q59.95 -1.9 59.95 -3.15 M75.9 -1.65 L76.1 -1.2 76.3 -0.15 Q76.3 0.45 75.7 1.0 74.95 1.6 73.9 1.6 71.05 1.6 71.05 -0.15 71.05 -1.3 71.8 -1.65 72.85 -2.15 75.9 -1.65 M85.75 12.45 L85.9 13.4 Q85.9 14.55 84.0 15.35 L81.65 16.0 Q79.9 16.0 79.45 15.2 79.3 14.95 79.3 14.25 79.3 12.8 80.75 12.35 L85.55 12.1 85.75 12.45 M64.75 12.2 Q70.1 15.75 72.8 21.1 L73.9 22.6 Q75.55 25.05 75.9 28.95 L76.05 35.75 76.15 38.0 76.25 38.9 76.25 39.15 76.65 41.95 77.8 48.1 79.05 54.3 Q79.65 57.65 79.65 59.9 L79.3 61.35 80.0 64.85 80.0 65.0 80.05 65.4 80.05 65.55 Q80.05 66.9 79.2 68.35 78.15 70.1 76.65 70.1 72.95 70.1 72.45 62.6 72.55 53.65 72.15 50.75 71.6 46.8 71.4 39.3 L71.3 31.6 71.3 31.35 71.3 31.15 71.0 27.15 70.8 26.25 Q69.55 22.85 66.8 19.7 L63.35 15.95 Q61.8 14.15 61.8 12.9 61.8 11.05 62.95 11.25 L62.95 11.1 63.25 11.3 63.4 11.35 64.1 11.8 64.75 12.2" fill="none" stroke="#ca7e60" stroke-linecap="butt" stroke-linejoin="miter-clip" stroke-miterlimit="3.0" stroke-opacity="0.5921569" stroke-width="0.05"/>
    <path d="M27.55 -6.5 Q28.25 -8.55 31.25 -7.05 L36.5 -4.1 41.8 -1.55 46.8 0.75 36.05 -2.15 Q30.1 -3.9 27.55 -6.5" fill="#ffffff" fill-rule="evenodd" stroke="none"/>
    <path d="M66.25 7.5 Q64.15 7.5 63.35 6.85 L62.25 6.0 60.0 5.2 Q59.65 5.0 59.65 4.65 L59.75 4.25 65.4 4.5 Q68.3 4.95 68.3 6.25 68.3 7.5 66.25 7.5" fill="#ffffff" fill-rule="evenodd" stroke="none"/>
    <path d="M72.35 10.0 L71.6 10.25 Q70.45 10.25 69.9 9.7 69.55 9.3 69.55 8.9 69.55 7.85 71.15 7.9 72.75 8.0 72.75 9.25 72.75 9.7 72.35 10.0" fill="#ffffff" fill-rule="evenodd" stroke="none"/>
    <path d="M70.8 24.75 L70.55 24.75 68.5 20.15 Q66.95 17.45 64.75 15.4 L64.75 14.8 Q66.75 14.55 68.65 17.85 70.25 20.7 70.25 22.5 70.25 23.1 70.8 24.75" fill="#ffffff" fill-rule="evenodd" stroke="none"/>
    <path d="M73.15 37.3 Q72.8 40.9 72.8 41.9 L72.75 42.0 72.15 35.4 72.55 28.5 Q73.65 28.55 73.7 30.25 L73.5 32.4 73.15 37.3" fill="#ffffff" fill-rule="evenodd" stroke="none"/>
    <path d="M89.65 -10.85 Q88.15 -9.5 87.1 -9.5 86.15 -9.5 85.85 -10.0 L85.75 -10.55 Q85.75 -13.1 95.3 -11.65 91.0 -12.05 89.65 -10.85" fill="#ffffff" fill-rule="evenodd" stroke="none"/>
    <path d="M105.95 -10.75 L104.6 -10.5 Q103.9 -10.5 103.55 -10.8 L103.25 -11.15 Q103.4 -12.4 105.1 -12.15 106.7 -11.9 107.25 -10.9 L105.95 -10.75" fill="#ffffff" fill-rule="evenodd" stroke="none"/>
    <path d="M76.15 59.95 L76.05 60.55 Q76.05 61.65 76.6 63.4 L77.15 65.2 76.8 66.4 Q76.45 67.15 76.0 67.15 75.2 67.15 75.05 66.55 L75.0 65.9 Q75.0 65.2 75.55 62.5 L76.25 59.65 76.15 59.95" fill="#ffffff" fill-rule="evenodd" stroke="none"/>
    <path d="M76.25 55.05 L76.15 55.5 75.75 55.75 75.35 55.6 75.25 55.1 Q75.25 54.15 75.75 53.8 L76.25 55.05" fill="#ffffff" fill-rule="evenodd" stroke="none"/>
    <path d="M77.5 68.5 L76.75 69.0 76.3 68.9 Q76.15 68.85 76.15 68.4 L76.25 68.0 77.25 67.9 77.5 68.5" fill="#ffffff" fill-rule="evenodd" stroke="none"/>
  </g>
</svg>
