<?xml version="1.0" encoding="UTF-8" standalone="no"?>
<svg xmlns:xlink="http://www.w3.org/1999/xlink" height="1013.3px" width="1550.1px" xmlns="http://www.w3.org/2000/svg">
  <g transform="matrix(1.0, 0.0, 0.0, 1.0, 775.05, 506.65)">
    <path d="M-775.05 506.65 L-775.05 -506.65 775.05 -506.65 775.05 506.65 -775.05 506.65" fill="url(#gradient0)" fill-rule="evenodd" stroke="none"/>
    <path d="M-430.65 -161.55 L-430.6 -161.55 Q-397.15 -160.85 -366.3 -153.05 -344.45 -147.55 -323.85 -138.5 -309.9 -132.3 -296.45 -124.5 L-295.95 -125.35 Q-309.35 -133.15 -323.3 -139.35 -317.55 -145.85 -310.85 -150.7 -300.45 -159.05 -330.15 -183.4 -307.3 -177.4 -287.4 -161.7 L-286.8 -162.5 -287.15 -162.75 Q-288.6 -183.25 -316.1 -205.55 -326.65 -242.45 -242.2 -280.65 -107.55 -299.1 -114.25 -203.5 L-112.7 -201.75 Q-124.15 -194.4 -134.6 -185.6 L-133.95 -184.85 Q-123.5 -193.6 -112.05 -200.95 -92.75 -213.5 -70.7 -222.1 -100.65 -194.95 -76.9 -151.65 -86.6 -149.2 -96.4 -145.2 L-96.0 -144.25 Q-86.25 -148.25 -76.5 -150.7 -55.9 -155.85 -35.65 -153.85 -65.8 -141.45 -41.15 -98.9 -46.6 -95.9 -50.75 -91.9 -55.2 -87.65 -58.15 -82.3 L-57.3 -81.8 Q-54.45 -86.95 -50.2 -91.0 L-50.1 -90.65 Q-18.25 -22.9 -34.3 19.9 L-34.45 19.85 Q-58.4 17.5 -80.65 33.4 L-80.05 34.2 Q-58.1 18.5 -34.55 20.85 -23.55 21.95 -12.15 27.0 -32.75 28.6 -50.75 52.25 -65.85 65.15 -94.6 78.05 -103.0 85.75 -107.9 92.9 L-108.7 93.35 Q-124.35 101.7 -137.85 114.05 L-137.2 114.8 Q-123.75 102.5 -108.25 94.25 -99.15 89.35 -89.25 85.85 -115.05 107.65 -101.85 134.95 -88.05 148.3 -75.65 158.95 -80.7 164.0 -85.5 170.75 L-84.7 171.35 Q-79.9 164.65 -74.95 159.6 -68.8 153.35 -62.25 149.65 -71.0 166.3 -55.6 175.0 -17.6 203.1 3.75 199.15 L73.1 186.7 77.35 187.05 Q70.0 196.4 65.25 207.35 L66.15 207.75 Q70.95 196.8 78.3 187.45 97.6 162.85 134.6 148.9 77.5 180.95 96.9 196.45 108.4 207.35 114.35 230.45 L114.2 230.55 Q103.8 236.5 93.95 244.45 L94.6 245.25 Q104.4 237.3 114.7 231.4 139.15 217.35 166.2 214.85 107.05 242.35 120.85 267.25 174.7 322.85 167.25 337.95 L167.1 337.9 Q144.4 334.45 122.0 337.4 110.8 338.85 99.7 342.0 L99.95 342.95 Q111.0 339.85 122.15 338.4 144.4 335.45 166.95 338.9 178.35 340.65 189.8 344.05 157.4 349.2 153.2 377.95 162.8 395.95 132.05 395.95 L129.75 395.4 Q119.7 393.2 109.45 393.7 91.75 394.45 73.45 403.1 L73.9 404.0 Q91.45 395.7 108.45 394.75 82.55 409.15 95.85 425.0 L-650.15 425.0 -650.15 222.95 Q-626.7 205.3 -606.9 193.05 -589.95 171.6 -601.6 152.45 -575.6 158.05 -564.75 171.65 -559.45 178.35 -557.8 187.05 L-556.8 186.85 Q-558.45 178.0 -563.85 171.2 -525.5 156.95 -509.65 176.35 -500.85 194.6 -482.45 202.85 L-469.35 196.1 Q-467.6 199.6 -466.3 203.1 -464.35 208.25 -463.35 213.2 L-462.35 213.0 Q-463.35 207.95 -465.35 202.75 L-465.4 202.65 Q-385.25 158.25 -357.9 102.85 -332.2 90.75 -373.35 73.15 -361.25 75.35 -349.05 79.9 -342.15 82.45 -335.25 85.8 L-334.8 84.9 Q-341.75 81.55 -348.7 78.95 L-348.8 78.9 Q-344.75 59.95 -361.5 51.3 -370.6 40.5 -392.15 34.1 -412.85 20.8 -443.25 22.1 -420.15 17.65 -398.75 19.3 -377.6 21.0 -358.25 28.75 L-357.9 27.8 Q-377.4 20.0 -398.65 18.3 -398.45 15.95 -397.6 13.55 -399.5 -35.15 -377.4 -44.2 -394.4 -75.6 -468.65 -83.75 -411.05 -98.8 -366.05 -68.65 L-365.5 -69.5 -365.55 -69.55 Q-357.05 -87.9 -396.35 -117.75 -431.35 -150.4 -430.65 -161.55" fill="url(#gradient1)" fill-rule="evenodd" stroke="none"/>
    <path d="M112.9 394.6 Q119.7 394.6 126.45 395.8 L112.9 394.6" fill="#8f2a2a" fill-rule="evenodd" stroke="none"/>
    <path d="M-563.85 171.2 Q-558.45 178.0 -556.8 186.85 L-557.8 187.05 Q-559.45 178.35 -564.75 171.65 -575.6 158.05 -601.6 152.45 L-602.1 152.35 -622.3 148.35 Q-611.15 149.35 -601.9 151.35 -575.1 157.05 -563.95 171.05 L-563.85 171.2 M-465.4 202.65 L-465.35 202.75 Q-463.35 207.95 -462.35 213.0 L-463.35 213.2 Q-464.35 208.25 -466.3 203.1 -467.6 199.6 -469.35 196.1 -474.2 186.1 -481.5 174.75 -473.3 185.6 -468.45 195.65 -466.7 199.15 -465.4 202.65 M-348.8 78.9 L-348.7 78.95 Q-341.75 81.55 -334.8 84.9 L-335.25 85.8 Q-342.15 82.45 -349.05 79.9 -361.25 75.35 -373.35 73.15 L-375.5 72.75 Q-395.35 69.45 -415.3 71.4 -395.35 68.45 -375.35 71.75 -362.1 73.95 -348.8 78.9 M-443.25 22.1 L-446.75 22.8 Q-464.15 26.45 -482.85 32.55 -464.45 25.45 -446.95 21.8 -421.8 16.5 -398.65 18.3 -377.4 20.0 -357.9 27.8 L-358.25 28.75 Q-377.6 21.0 -398.75 19.3 -420.15 17.65 -443.25 22.1 M-75.65 158.95 L-75.65 158.9 Q-69.05 152.2 -62.05 148.35 -49.6 141.55 -35.8 143.6 -49.4 142.65 -61.55 149.25 L-62.25 149.65 Q-68.8 153.35 -74.95 159.6 -79.9 164.65 -84.7 171.35 L-85.5 170.75 Q-80.7 164.0 -75.65 158.95 M-107.9 92.9 Q-98.5 87.95 -88.3 84.45 -40.55 67.85 23.9 83.0 -40.45 68.85 -87.95 85.4 L-89.25 85.85 Q-99.15 89.35 -108.25 94.25 -123.75 102.5 -137.2 114.8 L-137.85 114.05 Q-124.35 101.7 -108.7 93.35 L-107.9 92.9 M-34.3 19.9 Q-22.8 21.05 -10.9 26.45 0.4 31.55 12.05 40.55 -0.1 32.45 -11.3 27.35 L-12.15 27.0 Q-23.55 21.95 -34.55 20.85 -58.1 18.5 -80.05 34.2 L-80.65 33.4 Q-58.4 17.5 -34.45 19.85 L-34.3 19.9 M-50.2 -91.0 Q-54.45 -86.95 -57.3 -81.8 L-58.15 -82.3 Q-55.2 -87.65 -50.75 -91.9 -46.6 -95.9 -41.15 -98.9 L-41.15 -98.85 Q-20.65 -110.3 18.2 -107.2 -20.35 -109.25 -40.65 -98.0 -46.0 -95.1 -50.05 -91.2 L-50.2 -91.0 M-35.65 -153.85 Q-55.9 -155.85 -76.5 -150.7 -86.25 -148.25 -96.0 -144.25 L-96.4 -145.2 Q-86.6 -149.2 -76.9 -151.65 L-76.75 -151.65 Q-55.5 -157.0 -34.6 -154.75 -17.5 -152.95 -0.75 -146.0 -17.8 -151.95 -34.7 -153.75 L-35.65 -153.85 M-70.7 -222.1 Q-92.75 -213.5 -112.05 -200.95 -123.5 -193.6 -133.95 -184.85 L-134.6 -185.6 Q-124.15 -194.4 -112.7 -201.75 L-112.6 -201.8 Q-92.7 -214.75 -69.8 -223.5 -31.2 -238.35 15.7 -241.3 -31.0 -237.35 -69.45 -222.55 L-70.7 -222.1 M-430.65 -161.55 Q-449.5 -162.0 -469.25 -161.15 L-430.6 -162.55 Q-397.05 -161.85 -366.05 -154.0 -344.15 -148.45 -323.45 -139.4 L-323.3 -139.35 Q-309.35 -133.15 -295.95 -125.35 L-296.45 -124.5 Q-309.9 -132.3 -323.85 -138.5 -344.45 -147.55 -366.3 -153.05 -397.15 -160.85 -430.6 -161.55 L-430.65 -161.55 M-287.15 -162.75 L-286.8 -162.5 -287.4 -161.7 Q-307.3 -177.4 -330.15 -183.4 L-331.15 -183.65 Q-351.4 -188.75 -374.0 -187.35 -351.3 -189.75 -330.9 -184.6 -307.55 -178.7 -287.15 -162.75 M-365.55 -69.55 L-365.5 -69.5 -366.05 -68.65 Q-411.05 -98.8 -468.65 -83.75 L-469.9 -83.4 -492.35 -76.95 Q-481.05 -81.5 -470.15 -84.35 -411.4 -100.2 -365.55 -69.55 M134.6 148.9 Q97.6 162.85 78.3 187.45 70.95 196.8 66.15 207.75 L65.25 207.35 Q70.0 196.4 77.35 187.05 L77.5 186.85 Q97.7 161.05 137.3 146.85 143.25 144.65 149.65 142.85 143.55 145.65 137.65 147.8 L134.6 148.9 M112.9 394.6 L109.5 394.7 108.45 394.75 Q91.45 395.7 73.9 404.0 L73.45 403.1 Q91.75 394.45 109.45 393.7 119.7 393.2 129.75 395.4 L132.05 395.95 Q143.2 398.7 154.05 404.75 141.7 399.0 129.55 396.4 L126.45 395.8 Q119.7 394.6 112.9 394.6 M167.25 337.95 Q179.15 339.8 191.1 343.4 216.45 351.0 242.15 366.65 216.05 351.9 190.8 344.35 L189.8 344.05 Q178.35 340.65 166.95 338.9 144.4 335.45 122.15 338.4 111.0 339.85 99.95 342.95 L99.7 342.0 Q110.8 338.85 122.0 337.4 144.4 334.45 167.1 337.9 L167.25 337.95 M114.35 230.45 Q139.5 216.0 167.5 213.7 194.7 211.4 224.55 220.6 194.6 212.4 167.6 214.7 L166.2 214.85 Q139.15 217.35 114.7 231.4 104.4 237.3 94.6 245.25 L93.95 244.45 Q103.8 236.5 114.2 230.55 L114.35 230.45" fill="#373535" fill-rule="evenodd" stroke="none"/>
  </g>
  <defs>
    <radialGradient cx="0" cy="0" gradientTransform="matrix(0.0, -1.3401, 1.3248, 0.0, -215.2, 36.5)" gradientUnits="userSpaceOnUse" id="gradient0" r="819.2" spreadMethod="pad">
      <stop offset="0.10588235294117647" stop-color="#8f2a2a"/>
      <stop offset="0.4" stop-color="#832324"/>
      <stop offset="0.7058823529411765" stop-color="#5d1919"/>
      <stop offset="0.8941176470588236" stop-color="#772323"/>
    </radialGradient>
    <radialGradient cx="0" cy="0" gradientTransform="matrix(0.1759, 0.0, 0.0, 0.6713, -229.6, 70.7)" gradientUnits="userSpaceOnUse" id="gradient1" r="819.2" spreadMethod="pad">
      <stop offset="0.0" stop-color="#641a1b"/>
      <stop offset="1.0" stop-color="#792323"/>
    </radialGradient>
  </defs>
</svg>
