<?xml version="1.0" encoding="UTF-8" standalone="no"?>
<svg xmlns:xlink="http://www.w3.org/1999/xlink" height="57.3px" width="80.45px" xmlns="http://www.w3.org/2000/svg">
  <g transform="matrix(1.0, 0.0, 0.0, 1.0, 40.25, 28.65)">
    <path d="M26.45 -24.9 Q34.1 -20.15 38.95 -12.3 40.85 -9.25 39.85 -6.0 36.65 -12.25 32.5 -18.25 29.9 -22.0 25.4 -23.75 L17.25 -23.65 Q15.9 -23.65 14.2 -24.6 13.5 -24.95 12.9 -25.55 L12.95 -25.95 13.25 -27.65 Q13.35 -28.6 14.25 -28.65 L18.3 -27.85 15.9 -27.8 13.25 -27.25 Q13.15 -25.4 15.45 -25.35 18.1 -23.4 20.45 -23.95 L20.45 -24.25 21.0 -24.4 20.75 -24.95 19.7 -25.4 Q23.9 -25.3 26.95 -24.15 L26.45 -24.9 M-9.85 -22.9 L-9.85 -23.6 -11.45 -23.45 Q-13.05 -22.85 -13.85 -21.4 L-13.4 -21.2 -13.45 -21.2 Q-15.2 -20.55 -15.9 -22.0 -12.8 -24.3 -9.05 -25.55 L-6.45 -25.85 Q-7.65 -24.25 -9.85 -22.9 M-2.4 -26.15 Q0.05 -23.9 -4.3 -24.4 -5.1 -24.5 -5.9 -25.0 -5.0 -26.05 -3.3 -26.15 L-2.4 -26.15 M10.2 12.05 L10.25 11.75 10.45 11.8 10.2 12.05 M7.75 10.65 Q8.7 11.3 9.7 11.6 L9.85 12.25 Q8.75 12.95 7.2 12.95 L5.55 13.0 Q4.6 14.05 4.4 15.4 4.0 17.95 3.2 20.4 L2.9 20.8 Q1.7 18.6 2.65 15.0 3.65 11.3 6.75 10.5 8.6 12.35 7.75 10.65 M1.35 23.85 Q2.1 28.5 0.8 25.05 0.35 24.0 1.35 23.85 M3.35 21.45 Q3.1 24.4 2.7 21.6 2.65 21.1 3.35 21.45 M-26.1 -16.2 L-25.95 -17.65 -26.4 -17.75 Q-26.35 -18.8 -25.65 -20.05 -25.1 -21.0 -24.15 -20.65 L-24.85 -16.85 Q-25.0 -16.0 -25.75 -15.7 L-26.1 -16.2 M3.5 15.05 Q2.5 14.6 2.65 15.65 3.15 19.45 3.5 15.05 M-30.15 -13.7 Q-36.2 -10.1 -37.25 -2.0 -37.6 0.5 -39.2 1.85 -39.9 -5.15 -35.2 -11.0 -33.2 -13.5 -30.15 -13.7 M-38.05 -2.0 Q-39.1 -2.45 -38.95 -1.45 -38.35 2.4 -38.05 -2.0 -37.95 0.1 -37.05 -3.4 -38.0 -3.6 -38.05 -2.75 L-38.05 -2.0 M-39.4 4.15 Q-39.65 8.6 -40.25 4.75 -40.4 3.7 -39.4 4.15 M1.55 27.7 Q1.2 29.65 1.1 27.65 L1.55 27.7" fill="#ffffff" fill-opacity="0.4" fill-rule="evenodd" stroke="none"/>
    <path d="M20.45 -24.25 Q18.55 -23.85 16.95 -25.45 16.15 -26.2 17.3 -26.2 L19.7 -25.4 20.75 -24.95 21.0 -24.4 20.45 -24.25 M10.45 11.8 L10.25 11.75 10.2 12.05 Q10.05 12.65 9.85 12.25 L9.7 11.6 Q8.7 11.3 7.75 10.65 L7.2 10.25 6.85 9.85 Q6.6 9.4 7.55 9.3 9.65 9.05 10.65 10.0 11.45 10.8 11.25 11.85 L10.45 11.8 M-38.05 -2.0 Q-38.35 2.4 -38.95 -1.45 -39.1 -2.45 -38.05 -2.0" fill="#ffffff" fill-rule="evenodd" stroke="none"/>
    <path d="M18.3 -27.85 L21.15 -27.75 Q24.55 -28.2 26.0 -25.6 L26.45 -24.9 26.95 -24.15 Q23.9 -25.3 19.7 -25.4 L17.3 -26.2 Q16.15 -26.2 16.95 -25.45 18.55 -23.85 20.45 -24.25 L20.45 -23.95 Q18.1 -23.4 15.45 -25.35 13.15 -25.4 13.25 -27.25 L15.9 -27.8 18.3 -27.85 M-13.4 -21.2 L-13.85 -21.4 Q-13.05 -22.85 -11.45 -23.45 L-9.85 -23.6 -9.85 -22.9 Q-10.05 -21.45 -12.45 -21.1 L-13.4 -21.2 M6.85 9.85 L7.2 10.25 7.75 10.65 Q8.6 12.35 6.75 10.5 L6.2 9.9 6.85 9.85 M3.5 15.05 Q3.15 19.45 2.65 15.65 2.5 14.6 3.5 15.05 M-26.4 -17.75 L-25.95 -17.65 -26.1 -16.2 Q-26.45 -14.05 -26.85 -17.05 -26.9 -17.8 -26.4 -17.75 M-38.05 -2.0 L-38.05 -2.75 Q-38.0 -3.6 -37.05 -3.4 -37.95 0.1 -38.05 -2.0" fill="#ffffff" fill-opacity="0.69803923" fill-rule="evenodd" stroke="none"/>
  </g>
</svg>
