<?xml version="1.0" encoding="UTF-8" standalone="no"?>
<svg xmlns:xlink="http://www.w3.org/1999/xlink" height="125.25px" width="93.05px" xmlns="http://www.w3.org/2000/svg">
  <g transform="matrix(1.0, 0.0, 0.0, 1.0, 46.5, 62.6)">
    <path d="M41.7 -49.2 Q40.35 -47.25 39.35 -44.95 L38.2 -43.1 37.6 -43.6 37.0 -44.05 Q36.5 -43.25 36.3 -36.2 L37.2 -36.85 Q37.6 -36.8 38.2 -34.4 L39.15 -31.5 38.8 -30.8 36.2 -32.65 Q35.55 -33.35 35.55 -35.25 L34.4 -39.7 Q34.4 -42.6 35.95 -46.3 38.4 -52.0 43.05 -52.3 L39.6 -49.0 41.7 -49.2 M44.2 -51.95 Q45.85 -51.15 46.55 -50.2 46.0 -49.1 45.05 -48.55 44.5 -48.2 44.15 -48.2 L43.05 -48.45 41.95 -49.3 Q42.9 -49.3 43.55 -50.05 44.2 -50.85 44.2 -51.95 M26.4 -9.8 L26.45 -8.65 26.3 -8.25 25.8 -9.7 26.4 -9.8 M4.15 -6.9 L-0.75 -7.85 -6.55 -8.65 -16.1 -7.8 Q-20.6 -6.85 -25.0 -4.7 -24.9 -7.7 -6.95 -11.75 L-3.0 -10.95 Q-7.4 -12.35 -13.6 -15.6 -19.0 -17.9 -24.75 -17.0 -24.35 -18.45 -23.3 -19.15 L-22.15 -19.65 Q-16.0 -19.65 -3.95 -14.6 7.25 -9.9 10.4 -6.85 L10.55 -7.5 10.5 -8.6 10.9 -9.1 11.65 -9.4 Q12.45 -8.0 13.3 -7.5 13.9 -7.15 14.8 -7.15 L18.4 -7.2 18.35 -8.35 Q18.35 -9.45 18.5 -9.9 18.75 -10.5 19.55 -10.7 14.55 -13.75 9.25 -15.9 5.4 -17.5 4.95 -18.1 L6.45 -19.45 Q8.75 -19.45 14.65 -14.85 L20.2 -10.3 Q21.15 -10.3 21.15 -7.35 L20.9 -5.45 20.35 -3.95 19.1 -4.3 19.2 -4.45 Q18.7 -5.65 17.6 -5.5 19.15 -6.2 17.25 -6.75 L14.95 -7.1 Q13.8 -7.1 12.75 -4.7 L4.4 -7.0 4.15 -6.9 M19.15 -0.95 Q19.9 -0.2 20.25 0.75 L20.35 1.4 16.95 -0.35 14.7 -1.6 14.6 -1.35 14.55 -1.1 Q9.95 -3.45 8.9 -4.05 L13.6 -2.2 14.5 -1.8 14.65 -1.7 15.3 -1.45 16.5 -1.5 19.15 -0.95 M34.3 7.95 L32.85 10.95 Q32.1 9.75 31.2 5.45 30.45 1.7 30.45 0.8 30.45 0.15 30.75 0.05 L32.15 -0.45 Q31.7 -2.5 29.8 -5.3 28.2 -7.55 28.5 -8.45 L28.95 -8.75 29.95 -7.9 Q30.65 -7.1 30.85 -7.25 36.15 2.7 36.35 3.85 36.4 4.25 35.95 4.2 35.35 4.15 35.2 4.55 34.8 3.75 33.45 2.7 32.7 3.0 32.4 3.7 L32.85 6.1 34.3 7.95 M0.4 16.3 L5.2 17.05 10.75 18.45 Q16.05 20.05 17.35 21.9 16.5 21.75 8.65 19.2 L0.4 16.45 0.2 16.35 0.4 16.3 M25.75 29.15 L24.8 29.75 Q24.45 30.0 24.45 30.6 24.45 31.25 24.6 31.5 L24.9 31.75 22.2 32.3 Q19.9 32.85 19.55 33.6 L19.05 35.3 18.65 36.5 18.3 36.65 Q17.45 35.95 17.45 34.8 17.45 31.7 20.5 31.0 23.55 30.25 23.55 29.0 L23.55 28.95 23.7 28.95 Q24.3 28.95 24.25 29.1 L23.9 29.7 25.75 29.15 M23.25 48.1 Q23.95 48.85 24.15 49.95 L24.1 50.8 Q23.15 50.2 16.1 47.9 L8.85 45.45 Q8.6 44.95 8.6 44.25 L14.25 43.85 21.15 46.55 23.25 48.1 M-1.3 46.1 L-3.65 45.7 Q-5.2 45.45 -6.15 45.7 L-6.55 45.45 -6.7 44.55 -3.25 43.4 Q-3.95 44.1 -2.95 44.1 L-1.55 43.65 -0.15 43.2 4.45 43.7 4.25 44.2 Q2.05 43.45 0.65 43.85 0.0 44.0 -2.2 45.35 L-1.3 46.1 M-13.75 -62.5 Q-13.0 -62.45 -10.95 -61.35 -8.85 -60.2 -8.5 -59.65 L-8.15 -58.85 -7.95 -58.05 -11.25 -60.3 -14.4 -62.6 -13.75 -62.5 M-8.4 -55.95 L-8.3 -54.65 -8.3 -54.0 -8.4 -54.05 Q-8.65 -54.05 -9.2 -55.7 L-8.4 -55.95 M-24.7 -16.55 Q-24.7 -16.05 -25.6 -15.7 L-27.9 -15.35 -30.15 -15.7 Q-31.1 -16.05 -31.1 -16.55 -31.1 -17.05 -30.15 -17.4 L-27.9 -17.75 -25.6 -17.4 Q-24.7 -17.05 -24.7 -16.55 M-21.7 -19.7 L-34.0 -20.65 -40.2 -19.2 Q-41.3 -19.2 -42.4 -20.15 L-42.75 -20.7 Q-38.25 -22.55 -34.8 -22.75 -28.6 -23.15 -21.7 -19.7 M-31.95 0.45 L-30.75 -1.45 -29.5 -3.25 -28.55 -3.7 -27.6 -3.65 -30.45 1.6 Q-30.25 0.9 -30.2 0.05 L-30.15 -0.65 -30.45 -0.65 -31.95 0.45 M-43.5 14.7 L-43.55 14.7 Q-42.8 13.0 -40.6 10.55 -38.45 8.2 -37.15 7.55 L-36.0 7.5 Q-35.95 9.45 -37.85 11.65 -39.45 13.5 -40.95 14.1 L-42.3 14.3 -43.5 14.7 M-36.0 58.35 L-35.95 59.0 -38.6 57.15 -36.3 60.0 -36.6 60.2 -37.65 60.4 Q-38.45 60.4 -39.15 59.65 -40.0 58.8 -40.0 57.35 -40.0 56.7 -39.7 56.7 L-39.1 56.75 Q-41.5 55.5 -43.3 53.9 -45.85 51.65 -46.3 49.35 -45.85 48.5 -45.3 48.5 -44.35 48.6 -42.4 52.45 L-39.35 54.5 Q-36.6 56.5 -36.0 58.35 M-34.35 62.6 L-34.35 62.65 -35.9 61.55 Q-34.8 62.0 -34.35 62.6" fill="#ffffff" fill-opacity="0.4" fill-rule="evenodd" stroke="none"/>
    <path d="M43.05 -52.3 L44.25 -52.4 44.2 -51.95 Q44.2 -50.85 43.55 -50.05 42.9 -49.3 41.95 -49.3 L41.7 -49.2 39.6 -49.0 43.05 -52.3 M20.35 -3.95 Q21.1 -2.55 20.95 -2.35 L20.65 -2.25 22.9 -0.25 19.15 -0.95 16.5 -1.5 15.3 -1.45 14.65 -1.7 14.5 -1.8 13.6 -2.2 8.9 -4.05 Q4.05 -6.1 3.7 -6.5 L4.15 -6.9 4.4 -7.0 12.75 -4.7 Q13.8 -7.1 14.95 -7.1 L17.25 -6.75 Q19.15 -6.2 17.6 -5.5 L17.55 -4.65 17.7 -4.55 19.1 -4.3 20.35 -3.95 M35.2 4.55 L35.45 5.1 35.5 5.95 Q35.5 7.25 34.65 8.1 L34.3 7.95 32.85 6.1 32.4 3.7 Q32.7 3.0 33.45 2.7 34.8 3.75 35.2 4.55 M5.2 17.05 L0.4 16.3 0.2 15.8 Q-0.3 15.15 -4.75 14.95 L-4.05 15.5 -3.95 15.65 -5.95 14.45 Q-5.6 14.4 -3.95 13.55 5.25 15.3 6.35 15.85 7.05 16.2 7.2 16.75 L7.55 17.45 5.2 17.05 M24.9 31.75 L24.6 31.5 Q24.45 31.25 24.45 30.6 24.45 30.0 24.8 29.75 L25.75 29.15 Q27.4 28.5 28.45 28.5 L30.9 28.6 Q30.4 29.4 28.05 30.6 25.75 31.75 24.9 31.75 M21.15 46.55 L21.15 46.0 21.25 45.75 Q21.4 45.5 22.0 45.5 L23.9 45.9 24.3 47.0 23.9 48.05 23.25 48.1 21.15 46.55 M4.25 44.2 Q4.55 44.35 4.55 45.3 4.55 47.65 -1.3 46.1 L-2.2 45.35 Q0.0 44.0 0.65 43.85 2.05 43.45 4.25 44.2 M-30.45 1.6 L-31.75 3.6 -32.4 3.7 -32.75 3.25 -32.95 2.25 Q-32.95 1.65 -32.6 1.15 L-31.95 0.45 -30.45 -0.65 -30.15 -0.65 -30.2 0.05 Q-30.25 0.9 -30.45 1.6 M-40.95 14.1 L-40.75 14.3 -40.55 15.2 Q-40.55 16.1 -42.1 18.0 -43.65 19.9 -44.45 19.9 L-45.3 19.85 -46.5 19.55 -46.5 17.85 -45.1 16.1 -43.5 14.7 -42.3 14.3 -40.95 14.1 M-6.9 44.75 Q-6.9 45.3 -7.65 45.7 L-9.5 46.05 -11.35 45.7 Q-12.1 45.3 -12.1 44.75 -12.1 44.2 -11.35 43.85 -10.6 43.45 -9.5 43.45 -8.4 43.45 -7.65 43.85 -6.9 44.2 -6.9 44.75" fill="#ffffff" fill-opacity="0.69803923" fill-rule="evenodd" stroke="none"/>
  </g>
</svg>
