<?xml version="1.0" encoding="UTF-8" standalone="no"?>
<svg xmlns:xlink="http://www.w3.org/1999/xlink" height="475.1px" width="190.85px" xmlns="http://www.w3.org/2000/svg">
  <g transform="matrix(1.0, 0.0, 0.0, 1.0, 93.6, 202.75)">
    <path d="M-53.55 -184.2 L84.85 -166.35 93.7 -165.5 Q97.8 -163.4 96.2 -156.75 94.1 -148.9 93.0 -145.95 L92.1 -143.85 Q76.55 -107.95 64.75 -91.3 61.3 -86.6 58.1 -80.95 42.95 -54.1 33.7 -5.4 29.1 13.0 27.35 29.95 25.45 66.85 20.65 82.5 L21.3 90.3 21.3 97.2 21.3 97.95 18.15 106.45 Q14.6 111.05 10.95 114.9 -37.55 137.45 -81.85 104.9 -87.3 92.45 -89.9 76.4 L-88.4 69.9 Q-86.55 33.5 -73.8 5.65 -57.5 -10.15 -44.4 -29.05 -27.0 -55.0 -22.45 -93.75 -20.1 -119.55 -21.4 -134.8 -30.9 -173.25 -40.35 -174.65 -49.75 -176.1 -49.75 -178.9 L-53.55 -184.2" fill="#f4d05f" fill-opacity="0.99607843" fill-rule="evenodd" stroke="none"/>
    <path d="M-73.8 5.65 Q-86.55 33.5 -88.4 69.9 -93.4 58.65 -86.2 19.0 L-85.9 18.25 -73.8 5.65 M21.3 90.3 L20.65 82.5 Q25.45 66.85 27.35 29.95 29.1 13.0 33.7 -5.4 42.95 -54.1 58.1 -80.95 61.3 -86.6 64.75 -91.3 76.55 -107.95 92.1 -143.85 L93.0 -145.95 Q83.4 -101.2 77.25 -80.95 L76.15 -77.3 Q71.45 -66.35 68.95 -52.9 L68.7 -51.4 68.25 -48.75 Q61.8 -14.65 54.45 -5.85 46.6 8.75 54.05 12.85 L65.0 18.8 Q67.5 23.85 66.35 29.4 78.0 35.5 90.6 33.55 85.55 70.4 55.2 103.95 51.05 99.75 45.6 103.85 29.35 112.45 21.3 90.3" fill="#72567e" fill-opacity="0.99607843" fill-rule="evenodd" stroke="none"/>
    <path d="M21.3 97.95 L21.3 97.2 21.3 90.3 Q29.35 112.45 45.6 103.85 51.05 99.75 55.2 103.95 48.8 111.0 41.3 117.9 33.6 137.75 18.0 153.2 14.9 158.5 -24.3 151.25 L-24.25 151.2 -24.65 151.15 -24.7 151.15 Q-21.1 149.45 -1.0 136.05 2.9 133.9 6.15 131.2 15.3 123.5 18.95 111.6 20.85 105.35 21.3 97.95 M68.25 -48.75 Q65.1 -28.75 66.65 -3.55 67.65 12.45 71.3 22.25 74.25 29.7 90.6 33.55 78.0 35.5 66.35 29.4 67.5 23.85 65.0 18.8 L54.05 12.85 Q46.6 8.75 54.45 -5.85 61.8 -14.65 68.25 -48.75 M-85.9 18.25 Q-87.05 6.75 -85.5 -3.2 L-85.0 -5.95 Q-81.9 -21.55 -71.85 -33.25 -54.15 -52.5 -52.65 -80.95 L-52.55 -86.55 Q-53.25 -109.45 -57.3 -148.0 -45.8 -106.1 -45.8 -83.2 L-45.75 -80.95 Q-44.95 -40.65 -63.9 -12.25 -69.5 -3.8 -73.8 5.65 L-85.9 18.25 M-59.9 145.4 L-57.95 146.0 -57.8 146.05 -56.95 146.25 Q-40.5 153.55 -28.95 151.7 L-25.15 151.2 -24.7 151.15 Q-27.35 215.7 -4.3 266.6 L-54.7 271.75 Q-72.6 218.45 -59.9 145.4" fill="#634b6c" fill-rule="evenodd" stroke="none"/>
    <path d="M-53.55 -184.2 L-49.75 -178.9 Q-49.75 -176.1 -40.35 -174.65 -30.9 -173.25 -21.4 -134.8 -20.1 -119.55 -22.45 -93.75 -27.0 -55.0 -44.4 -29.05 -57.5 -10.15 -73.8 5.65 -69.5 -3.8 -63.9 -12.25 -44.95 -40.65 -45.75 -80.95 L-45.8 -83.2 Q-45.8 -106.1 -57.3 -148.0 -58.15 -156.05 -61.05 -163.85 -64.0 -175.75 -60.45 -202.15 L-53.55 -184.2 M-89.9 76.4 Q-87.3 92.45 -81.85 104.9 -37.55 137.45 10.95 114.9 14.6 111.05 18.15 106.45 L21.3 97.95 Q20.85 105.35 18.95 111.6 15.3 123.5 6.15 131.2 2.9 133.9 -1.0 136.05 -21.1 149.45 -24.7 151.15 L-25.15 151.2 -28.95 151.7 Q-40.5 153.55 -56.95 146.25 L-57.8 146.05 -57.95 146.0 -59.9 145.4 Q-72.45 141.25 -76.9 129.8 -91.65 125.45 -92.85 104.95 L-92.95 102.1 Q-93.1 95.4 -91.85 87.15 -91.15 82.05 -89.9 76.4" fill="#c3a04b" fill-rule="evenodd" stroke="none"/>
    <path d="M-24.65 151.15 L-24.25 151.2 -24.3 151.25 -24.65 151.15" fill="#ead852" fill-rule="evenodd" stroke="none"/>
    <path d="M92.1 -143.85 L93.0 -145.95 Q94.1 -148.9 96.2 -156.75 97.8 -163.4 93.7 -165.5 M71.3 22.25 Q67.65 12.45 66.65 -3.55 M-57.3 -148.0 Q-58.15 -156.05 -61.05 -163.85 -64.0 -175.75 -60.45 -202.15 M-24.7 151.15 Q-27.35 215.7 -4.3 266.6 M-54.7 271.75 Q-72.6 218.45 -59.9 145.4" fill="none" stroke="#3f274c" stroke-linecap="round" stroke-linejoin="round" stroke-width="1.2000000000000002"/>
    <path d="M-73.8 5.65 Q-86.55 33.5 -88.4 69.9 L-89.9 76.4 Q-91.15 82.05 -91.85 87.15 -93.1 95.4 -92.95 102.1 L-92.85 104.95 Q-91.65 125.45 -76.9 129.8 -72.45 141.25 -59.9 145.4 L-57.95 146.0 -57.8 146.05 -56.95 146.25 Q-40.5 153.55 -28.95 151.7 L-25.15 151.2 -24.7 151.15 -24.65 151.15 -24.3 151.25 Q14.9 158.5 18.0 153.2 M21.3 97.95 L21.3 97.2 21.3 90.3 20.65 82.5 Q25.45 66.85 27.35 29.95 29.1 13.0 33.7 -5.4 42.95 -54.1 58.1 -80.95 61.3 -86.6 64.75 -91.3 76.55 -107.95 92.1 -143.85 M68.25 -48.75 L68.7 -51.4 68.95 -52.9 Q71.45 -66.35 76.15 -77.3 L77.25 -80.95 Q83.4 -101.2 93.0 -145.95 M66.65 -3.55 Q65.1 -28.75 68.25 -48.75 M21.3 97.95 Q20.85 105.35 18.95 111.6 15.3 123.5 6.15 131.2 2.9 133.9 -1.0 136.05 -21.1 149.45 -24.7 151.15 M-85.0 -5.95 Q-81.9 -21.55 -71.85 -33.25 -54.15 -52.5 -52.65 -80.95 L-52.55 -86.55 Q-53.25 -109.45 -57.3 -148.0 -45.8 -106.1 -45.8 -83.2 L-45.75 -80.95 Q-44.95 -40.65 -63.9 -12.25 -69.5 -3.8 -73.8 5.65" fill="none" stroke="#3f274c" stroke-linecap="round" stroke-linejoin="miter-clip" stroke-miterlimit="3.0" stroke-width="1.2000000000000002"/>
    <path d="M90.6 33.55 Q74.25 29.7 71.3 22.25" fill="none" stroke="#373535" stroke-linecap="round" stroke-linejoin="round" stroke-width="1.0"/>
    <path d="M21.2 82.4 L21.25 82.5 Q21.25 83.1 20.65 83.1 20.05 83.1 20.05 82.55 L19.3 71.55 19.35 71.45 19.45 71.5 21.2 82.4 M-77.1 130.35 L-77.25 130.3 Q-77.8 129.95 -77.45 129.45 -77.2 128.95 -76.65 129.2 L-73.1 131.2 -73.05 131.3 Q-73.05 131.45 -73.15 131.35 L-77.1 130.35 M-11.7 139.3 L-11.8 139.25 -11.75 139.15 -11.25 139.1 -11.1 139.1 -11.0 139.05 -10.7 139.05 -10.55 139.0 -10.35 139.0 -9.6 138.85 -8.7 138.7 -8.25 138.55 -7.75 138.45 -7.4 138.3 -7.25 138.3 -6.25 137.95 -6.05 137.85 -5.3 137.55 -1.25 135.5 -1.2 135.45 Q-0.7 135.2 -0.4 135.75 -0.15 136.25 -0.7 136.55 L-3.15 137.65 -5.3 138.4 -5.55 138.45 -5.8 138.55 -7.1 138.85 -7.25 138.9 -7.35 138.95 -7.85 139.05 -8.1 139.05 -9.95 139.3 -10.3 139.3 -10.5 139.35 -11.25 139.35 -11.7 139.3 M-87.8 70.1 L-87.85 70.15 Q-88.0 70.65 -88.6 70.45 -89.15 70.2 -88.95 69.65 L-88.6 68.9 -88.55 68.7 -88.2 68.05 -88.1 67.8 -87.65 66.95 -87.6 66.8 -87.5 66.65 -87.35 66.3 -87.05 65.85 -86.95 65.65 -84.7 62.1 -84.4 61.75 -83.1 59.95 -77.95 54.2 -77.8 54.2 -77.8 54.35 -80.4 57.4 -80.6 57.7 -83.85 62.15 -86.2 66.3 -86.25 66.45 -86.6 67.1 -86.7 67.4 -87.0 67.95 -87.4 68.95 -87.45 69.15 -87.55 69.35 -87.8 70.1 M-85.8 18.2 L-85.85 18.3 -85.95 18.25 -86.4 14.0 -86.7 7.2 -86.45 0.55 -85.55 -6.05 -85.55 -6.1 -85.3 -6.45 -84.85 -6.5 Q-84.6 -6.45 -84.45 -6.25 L-84.4 -5.8 -85.8 3.3 -86.05 13.55 -85.8 18.2" fill="#3f274c" fill-rule="evenodd" stroke="none"/>
    <path d="M-48.4 140.4 L-48.4 140.3 -48.25 140.25 -48.15 140.3 -48.05 140.4 -47.85 140.5 -47.45 140.75 -47.2 140.95 -46.9 141.1 -46.6 141.35 -45.15 142.3 -45.0 142.45 -44.8 142.6 -44.7 142.65 -44.65 142.65 -44.65 142.7 -44.45 142.8 -43.7 143.0 -43.35 142.95 -43.15 142.95 -43.05 142.9 -42.9 142.9 -42.85 142.85 -42.75 142.8 -39.7 142.25 -39.25 142.25 -39.15 142.3 -39.2 142.4 -39.3 142.45 -39.45 142.5 -39.5 142.55 -39.6 142.6 -42.55 143.75 -42.6 143.75 -42.65 143.8 -42.8 143.85 -42.9 143.85 -43.2 143.95 -43.7 143.95 -43.6 144.1 -43.6 144.2 -43.5 144.35 -43.45 144.45 -43.4 144.6 -43.3 144.7 -43.25 144.8 -42.85 145.2 -42.75 145.25 -42.7 145.3 -42.4 145.5 -42.3 145.6 -42.15 145.7 -41.9 145.8 -41.7 145.95 -41.5 146.0 -41.35 146.1 -41.3 146.2 -41.4 146.25 -41.55 146.25 -41.75 146.2 -42.0 146.1 -42.3 146.05 -42.45 145.95 -42.8 145.85 -43.0 145.75 -43.05 145.7 -43.15 145.65 -43.3 145.55 -43.5 145.45 -43.65 145.35 -43.95 145.05 -44.1 144.95 -44.5 144.3 -44.6 144.35 -44.85 144.4 -45.1 144.5 -45.25 144.5 -45.4 144.55 -45.6 144.55 -45.75 144.6 -47.1 144.6 -47.25 144.55 -48.15 144.4 -48.5 144.3 -48.55 144.2 -48.45 144.15 -47.55 144.15 -47.25 144.1 -47.1 144.1 -46.9 144.05 -46.75 144.05 -46.55 144.0 -46.4 144.0 -45.6 143.75 -45.5 143.7 -45.35 143.65 -45.2 143.55 -45.15 143.55 -45.35 143.35 -45.45 143.3 -45.5 143.25 -45.55 143.25 -46.75 142.2 -48.1 140.75 -48.15 140.65 -48.25 140.6 -48.3 140.5 -48.4 140.4" fill="#3f274c" fill-rule="evenodd" stroke="none"/>
  </g>
</svg>
