<?xml version="1.0" encoding="UTF-8" standalone="no"?>
<svg xmlns:xlink="http://www.w3.org/1999/xlink" height="72.35px" width="86.5px" xmlns="http://www.w3.org/2000/svg">
  <g transform="matrix(1.0, 0.0, 0.0, 1.0, 16.25, 21.4)">
    <path d="M54.75 22.1 Q54.75 16.45 52.1 15.5 L48.1 14.85 46.4 13.8 43.6 12.7 41.85 12.05 Q44.0 11.95 43.85 11.45 L44.2 11.05 44.65 10.45 Q44.25 10.2 42.85 10.95 42.15 10.85 41.85 9.8 L43.0 9.5 Q43.5 9.3 43.5 8.7 43.5 8.3 44.2 7.75 L48.65 3.05 50.55 1.1 54.0 -2.25 53.7 -0.5 54.45 -1.15 Q55.35 -1.8 55.95 -1.8 L58.95 -1.65 59.15 -1.5 Q59.35 -1.45 59.35 -0.85 59.35 0.1 55.2 3.4 51.05 6.7 51.05 8.0 51.05 8.7 53.0 9.4 L56.5 10.1 57.15 11.1 53.9 12.35 53.9 12.3 53.35 12.45 Q53.1 12.6 53.1 13.25 53.1 14.55 56.8 20.7 57.25 20.2 57.25 19.35 L57.05 18.8 59.1 23.1 Q59.0 19.35 57.85 17.65 57.15 16.65 55.85 16.2 L55.15 14.75 56.4 14.85 Q56.6 14.85 57.2 14.2 58.05 13.25 60.15 12.3 L60.25 14.2 60.2 14.25 60.85 14.3 Q62.95 14.3 65.75 13.15 L66.45 13.45 67.7 14.85 60.0 15.9 60.55 26.2 Q60.55 29.15 59.75 32.6 58.95 36.05 58.95 38.0 58.95 40.0 60.0 42.65 61.0 45.3 61.0 46.45 L60.25 46.55 58.9 45.25 57.95 43.95 55.8 47.75 Q54.25 50.5 52.75 50.95 53.95 48.3 55.25 43.85 L52.75 49.25 Q53.55 44.5 54.25 36.3 L55.0 26.2 55.7 26.85 Q56.6 25.8 56.6 24.3 56.6 23.25 55.4 21.7 L54.75 22.1 M70.25 2.8 L70.2 3.8 69.8 2.85 70.25 2.8 M50.5 6.6 L55.1 2.45 Q56.75 0.7 56.85 0.15 55.15 0.15 54.1 1.25 53.3 2.1 50.5 6.6 M50.95 11.6 L47.2 10.95 46.4 11.8 50.95 11.6 M59.15 25.6 Q59.15 25.15 58.8 24.65 L57.65 22.6 56.8 21.25 57.5 27.25 57.7 31.5 57.55 34.85 Q59.15 27.7 59.15 25.6 M55.7 29.65 Q55.25 29.55 55.15 29.8 55.6 31.2 55.8 31.2 L55.85 30.8 55.7 29.65 M-2.65 8.45 Q-3.8 10.5 -3.8 12.1 L-3.6 16.9 Q-2.75 15.2 3.2 6.8 L4.75 5.6 Q3.6 8.15 2.6 10.8 0.65 16.0 1.3 17.9 L1.1 18.9 0.05 16.85 -0.2 15.95 Q-0.55 17.3 -1.3 17.8 -1.7 18.1 -2.65 18.45 -4.35 19.45 -4.65 25.3 -4.8 28.4 -5.35 31.3 L-5.85 33.75 -4.65 43.85 Q-4.65 44.45 -4.8 44.65 L-5.35 45.35 -7.05 38.6 Q-7.35 41.0 -9.95 44.9 L-10.4 45.35 -11.35 46.05 -7.1 28.1 -6.75 31.9 -6.1 30.95 Q-5.85 30.25 -5.55 27.6 L-5.35 24.3 -5.4 14.95 Q-5.25 13.05 -5.4 12.65 L-5.35 10.3 -5.15 9.15 Q-3.75 9.15 -2.65 8.45 M-6.25 10.2 L-8.95 2.65 Q-9.15 1.8 -8.15 3.35 L-7.9 2.95 -7.65 1.85 Q-7.75 0.85 -8.15 0.0 L-8.7 0.05 -9.15 2.15 Q-12.05 -4.6 -12.55 -7.35 L-12.85 -11.0 -12.8 -11.2 Q-12.8 -10.6 -12.65 -10.75 L-12.35 -11.0 -10.5 -9.45 -9.4 -8.25 Q-9.4 -7.75 -9.85 -8.1 -10.35 -8.5 -10.35 -8.0 -10.35 -7.3 -9.4 -5.75 -8.45 -4.2 -8.5 -4.65 -8.4 -5.4 -7.55 -5.6 L-6.0 -2.85 Q-5.35 -3.35 -4.85 -3.1 L-4.95 -4.0 Q-14.2 -15.6 -15.2 -17.4 -16.0 -18.9 -16.25 -21.4 L-5.75 -8.75 Q-4.95 -8.75 -4.5 -10.2 -3.6 -9.8 -2.75 -8.4 -1.95 -7.0 -1.7 -5.45 -1.45 -3.95 -0.55 -2.4 L0.15 -1.1 Q1.25 0.55 4.55 1.35 7.95 2.15 9.0 3.6 L9.65 4.5 2.45 2.8 3.05 5.6 0.0 2.05 -0.75 -0.5 -1.7 -2.95 -2.45 -1.85 Q-1.8 1.65 -2.35 4.15 -2.95 6.9 -5.1 9.05 L-4.75 -0.05 -4.8 -0.45 -5.0 -1.0 -4.85 -0.2 -4.9 0.7 Q-6.65 -0.5 -7.2 -1.3 L-7.7 -2.05 Q-6.8 -0.35 -5.85 5.15 -5.1 9.25 -5.7 9.35 L-6.25 10.2 M-4.55 -2.95 L-3.85 -2.6 Q-4.55 -3.5 -4.55 -2.95 M-4.1 5.35 Q-3.45 3.4 -3.55 -0.15 L-4.4 -0.65 -4.15 5.35 -4.1 5.35 M-7.3 44.1 L-6.75 44.55 -6.25 45.05 -7.7 44.2 -7.3 44.1" fill="#ffffff" fill-opacity="0.4" fill-rule="evenodd" stroke="none"/>
    <path d="M53.9 12.35 L55.15 14.75 55.85 16.2 57.05 18.8 57.25 19.35 Q57.25 20.2 56.8 20.7 53.1 14.55 53.1 13.25 53.1 12.6 53.35 12.45 L53.9 12.3 53.9 12.35 M55.0 26.2 Q54.4 25.1 54.4 23.55 L54.5 22.6 54.75 22.1 55.4 21.7 Q56.6 23.25 56.6 24.3 56.6 25.8 55.7 26.85 L55.0 26.2 M55.7 29.65 L55.85 30.8 55.8 31.2 Q55.6 31.2 55.15 29.8 55.25 29.55 55.7 29.65 M-7.1 28.1 L-7.3 20.8 -6.85 15.0 -6.25 10.2 -5.7 9.35 -5.35 10.3 -5.4 12.65 Q-5.25 13.05 -5.4 14.95 L-5.35 24.3 -5.55 27.6 Q-5.85 30.25 -6.1 30.95 L-6.75 31.9 -7.1 28.1 M-8.95 2.65 L-9.15 2.15 -8.7 0.05 -8.15 0.0 Q-7.75 0.85 -7.65 1.85 L-7.9 2.95 -8.15 3.35 Q-9.15 1.8 -8.95 2.65 M0.0 2.05 Q-0.2 3.5 -0.7 4.95 L-2.45 8.1 -2.65 8.45 Q-3.75 9.15 -5.15 9.15 L-5.1 9.05 Q-2.95 6.9 -2.35 4.15 -1.8 1.65 -2.45 -1.85 L-1.7 -2.95 -0.75 -0.5 0.0 2.05" fill="#ffffff" fill-opacity="0.69803923" fill-rule="evenodd" stroke="none"/>
  </g>
</svg>
