<?xml version="1.0" encoding="UTF-8" standalone="no"?>
<svg xmlns:xlink="http://www.w3.org/1999/xlink" height="72.9px" width="67.2px" xmlns="http://www.w3.org/2000/svg">
  <g transform="matrix(1.0, 0.0, 0.0, 1.0, 33.7, 36.45)">
    <path d="M-0.2 -28.15 Q-0.2 -26.65 -0.95 -26.35 L-2.5 -28.1 -3.45 -30.95 -3.35 -31.55 -2.5 -31.7 -1.85 -31.3 -0.95 -29.8 -0.2 -28.15 M-6.25 -10.05 Q-7.4 -5.8 -7.75 -6.7 -7.5 -7.25 -7.5 -8.2 -7.5 -9.45 -8.05 -10.35 L-8.4 -10.15 Q-8.9 -9.55 -9.0 -7.95 L-9.15 -8.95 Q-9.15 -10.8 -8.3 -11.55 L-7.3 -12.25 Q-6.65 -11.3 -6.25 -10.05 M10.2 -21.05 L9.85 -21.6 9.85 -21.95 11.0 -22.05 Q12.35 -22.05 14.65 -20.9 L14.85 -20.55 15.1 -19.8 14.0 -19.45 13.35 -19.45 11.85 -19.75 10.2 -21.05 M15.85 -1.85 Q16.45 -1.05 16.65 0.0 L16.7 1.0 Q15.5 2.0 15.5 2.55 15.5 3.2 15.65 3.25 L15.95 3.25 17.2 2.7 17.4 4.1 17.15 4.5 15.9 4.4 14.8 2.8 13.9 1.3 Q13.4 -0.8 13.4 -1.8 L13.5 -2.6 13.7 -3.05 Q14.95 -3.05 15.85 -1.85 M3.2 15.5 Q1.5 18.55 3.3 23.35 L3.6 23.95 Q3.85 26.9 5.6 28.55 L5.85 30.7 5.85 30.75 6.05 34.4 Q6.05 34.9 4.2 35.45 L1.6 35.85 2.6 35.4 3.4 34.6 5.15 30.65 Q5.15 30.0 4.8 29.3 L4.0 28.05 3.6 28.2 Q3.3 28.45 3.1 28.85 L3.1 29.25 2.85 26.25 Q2.3 23.0 0.4 18.75 L-0.35 16.85 -0.8 15.65 -1.0 15.1 -1.55 13.5 -1.35 12.6 -0.85 11.8 -0.6 13.15 Q-0.25 13.8 0.45 14.0 1.1 14.2 1.7 13.8 2.25 13.35 2.4 12.55 L3.2 15.5 M-29.8 -19.6 Q-29.6 -18.75 -29.65 -17.2 -29.65 -15.65 -29.9 -14.7 L-31.2 -11.2 -31.25 -11.15 -32.0 -10.85 -32.3 -11.3 Q-32.6 -12.1 -32.35 -14.0 L-31.1 -13.75 Q-30.75 -13.8 -30.8 -15.25 L-31.75 -16.9 -31.95 -17.2 -31.45 -19.85 Q-31.15 -20.55 -30.3 -20.9 L-29.8 -19.6 M29.25 -8.6 Q30.5 -5.9 30.9 -2.45 L31.1 -1.25 30.7 -1.45 30.35 -1.35 Q30.35 -0.5 30.5 0.15 L29.9 -0.4 Q29.25 -1.5 28.7 -3.9 L28.25 -6.25 Q28.25 -7.0 28.6 -8.05 L29.25 -8.6 M0.95 32.75 L2.9 32.2 2.65 32.95 0.95 32.75 M18.15 16.85 L18.3 16.75 Q19.15 18.55 19.15 20.3 L18.95 22.2 18.6 22.45 17.95 22.8 16.85 20.9 Q16.65 20.05 17.15 18.7 17.6 17.45 18.15 16.85" fill="#ffffff" fill-opacity="0.69803923" fill-rule="evenodd" stroke="none"/>
    <path d="M-31.25 -11.15 Q-32.1 -10.5 -33.5 -10.55 -34.1 -14.85 -32.85 -18.85 -27.35 -27.35 -18.85 -32.55 L-14.15 -35.1 Q-13.4 -35.45 -12.85 -35.75 L-5.3 -36.45 -3.35 -36.1 -3.15 -35.7 Q-2.45 -34.25 -1.05 -34.6 -0.45 -33.9 -0.15 -32.9 L0.85 -30.25 1.95 -29.35 Q1.1 -28.15 -0.2 -28.15 L-0.95 -29.8 -1.85 -31.3 Q-2.15 -33.4 -4.8 -34.05 L-6.45 -34.3 Q-6.0 -34.2 -4.5 -33.2 L-2.5 -31.7 -3.35 -31.55 -3.45 -30.95 -2.5 -28.1 -0.95 -26.35 Q-1.1 -21.2 -1.6 -19.35 -2.45 -16.3 -6.25 -10.05 -6.65 -11.3 -7.3 -12.25 L-8.3 -11.55 Q-9.15 -10.8 -9.15 -8.95 L-9.0 -7.95 -8.05 -6.6 Q-9.3 -4.15 -8.1 -0.25 -6.95 3.45 -4.4 6.1 -2.3 5.9 -2.1 7.8 L-2.05 10.05 Q-1.1 9.35 0.6 6.25 L2.15 5.75 Q3.55 5.25 5.0 1.15 L5.1 -2.05 Q5.2 -5.0 6.2 -7.15 7.6 -9.95 7.7 -11.5 L7.65 -16.5 7.8 -20.9 Q8.25 -20.9 8.9 -22.8 L9.7 -19.5 10.2 -21.05 11.85 -19.75 13.1 -17.0 Q14.2 -9.6 15.85 -1.85 14.95 -3.05 13.7 -3.05 L13.6 -4.3 13.3 -5.55 Q13.3 0.0 12.45 1.4 L11.9 1.7 10.35 -11.5 Q9.35 -4.45 8.35 0.5 7.9 2.85 7.95 4.15 L6.95 2.85 Q7.2 4.3 5.5 6.6 3.95 8.7 2.95 8.95 L1.2 8.7 0.9 10.3 1.05 11.2 -0.15 10.0 -0.8 10.6 -0.85 11.8 -1.35 12.6 -1.55 13.5 -1.0 15.1 Q-2.05 12.85 -3.6 12.05 L-6.3 10.75 Q-6.05 10.25 -6.05 8.8 -8.05 4.7 -8.85 2.2 -9.5 0.3 -9.9 -3.2 -10.3 -6.65 -10.3 -10.0 -10.3 -12.1 -9.55 -14.15 -8.15 -18.05 -7.15 -21.95 L-3.55 -27.3 Q-3.55 -30.95 -7.3 -32.55 -9.2 -33.35 -11.35 -33.4 -16.2 -33.4 -22.5 -28.35 -28.45 -23.65 -29.8 -19.6 L-30.3 -20.9 Q-31.15 -20.55 -31.45 -19.85 L-31.95 -17.2 -31.95 -17.1 Q-33.1 -16.25 -33.1 -15.05 L-32.95 -14.3 -32.35 -14.0 Q-32.6 -12.1 -32.3 -11.3 L-32.0 -10.85 -31.25 -11.15 M14.65 -20.9 L15.0 -20.9 20.3 -17.2 Q15.45 -18.4 14.0 -19.45 L15.1 -19.8 14.85 -20.55 14.65 -20.9 M16.65 0.0 L16.75 0.15 16.7 1.0 16.65 0.0 M15.9 4.4 L14.15 6.2 13.9 1.3 14.8 2.8 15.9 4.4 M2.95 10.95 L3.8 14.55 3.7 14.7 3.2 15.5 2.4 12.55 2.4 12.0 2.3 11.7 2.95 10.95 M5.85 30.75 L5.9 30.85 Q6.1 31.35 7.4 31.55 9.0 31.8 10.05 32.75 L10.85 33.65 Q9.55 34.85 6.05 35.75 2.05 36.85 -0.8 36.2 L1.6 35.85 4.2 35.45 Q6.05 34.9 6.05 34.4 L5.85 30.75 M-3.4 35.7 L-9.4 33.15 Q-7.95 32.45 -5.2 32.4 L-2.7 32.5 Q-1.3 32.5 -0.2 27.8 L0.6 23.05 Q0.55 20.75 0.0 18.25 L-0.35 16.85 0.4 18.75 Q2.3 23.0 2.85 26.25 L3.1 29.25 3.15 29.9 2.9 32.2 0.95 32.75 -1.55 33.4 Q-3.65 34.0 -4.1 34.3 L-3.4 35.7 M-29.9 -14.7 Q-30.0 -12.25 -31.2 -11.2 L-29.9 -14.7 M28.6 -8.05 Q28.0 -10.4 26.9 -12.2 28.3 -10.6 29.25 -8.6 L28.6 -8.05 M31.2 2.45 L30.75 2.8 29.9 -0.4 30.5 0.15 31.2 2.45 M16.85 20.9 Q16.45 20.1 15.95 17.7 L15.5 15.15 15.55 12.8 16.8 11.85 17.55 14.4 18.15 16.85 Q17.6 17.45 17.15 18.7 16.65 20.05 16.85 20.9 M1.75 29.1 L1.3 30.45 1.35 30.5 Q2.0 29.5 1.75 29.1" fill="#ffffff" fill-opacity="0.4" fill-rule="evenodd" stroke="none"/>
    <path d="M-7.75 -6.7 L-8.05 -6.6 -9.0 -7.95 Q-8.9 -9.55 -8.4 -10.15 L-8.05 -10.35 Q-7.5 -9.45 -7.5 -8.2 -7.5 -7.25 -7.75 -6.7 M16.7 1.0 L16.8 0.95 Q17.65 1.4 17.55 2.0 L17.2 2.7 15.95 3.25 15.65 3.25 Q15.5 3.2 15.5 2.55 15.5 2.0 16.7 1.0 M2.95 8.95 L3.2 9.9 2.95 10.95 2.3 11.7 2.4 12.0 2.4 12.55 Q2.25 13.35 1.7 13.8 1.1 14.2 0.45 14.0 -0.25 13.8 -0.6 13.15 L-0.85 11.8 -0.8 10.6 -0.15 10.0 1.05 11.2 0.9 10.3 1.2 8.7 2.95 8.95 M-0.8 36.2 L-2.15 36.15 Q-3.0 36.0 -3.4 35.7 L-4.1 34.3 Q-3.65 34.0 -1.55 33.4 L0.95 32.75 2.65 32.95 2.9 32.2 3.15 29.9 3.1 29.25 3.1 28.85 Q3.3 28.45 3.6 28.2 L4.0 28.05 4.8 29.3 Q5.15 30.0 5.15 30.65 L3.4 34.6 2.6 35.4 1.6 35.85 -0.8 36.2 M-32.35 -14.0 L-32.95 -14.3 -33.1 -15.05 Q-33.1 -16.25 -31.95 -17.1 L-31.95 -17.2 -31.75 -16.9 -30.8 -15.25 Q-30.75 -13.8 -31.1 -13.75 L-32.35 -14.0 M31.1 -1.25 Q31.7 1.95 33.5 4.45 L33.0 5.0 Q31.85 3.7 31.2 2.45 L30.5 0.15 Q30.35 -0.5 30.35 -1.35 L30.7 -1.45 31.1 -1.25 M-11.0 2.2 Q-11.0 2.9 -11.4 3.4 -11.8 3.9 -12.4 3.9 -13.0 3.9 -13.4 3.4 -13.8 2.9 -13.8 2.2 -13.8 1.5 -13.4 1.0 -13.0 0.5 -12.4 0.5 -11.8 0.5 -11.4 1.0 -11.0 1.5 -11.0 2.2" fill="#ffffff" fill-rule="evenodd" stroke="none"/>
  </g>
</svg>
