<?xml version="1.0" encoding="UTF-8" standalone="no"?>
<svg xmlns:xlink="http://www.w3.org/1999/xlink" height="62.75px" width="115.35px" xmlns="http://www.w3.org/2000/svg">
  <g transform="matrix(1.0, 0.0, 0.0, 1.0, 48.75, 30.8)">
    <path d="M36.3 -27.25 L36.1 -28.8 36.9 -28.9 Q38.35 -28.5 39.0 -28.1 L40.65 -27.05 Q43.95 -26.2 45.0 -24.45 L46.6 -21.9 46.9 -20.9 Q44.5 -21.0 42.95 -21.55 L39.4 -23.8 39.35 -23.9 Q40.4 -23.2 42.35 -23.3 44.1 -23.4 45.0 -24.0 L44.3 -24.75 Q43.65 -25.25 40.2 -26.3 L36.3 -27.25 M15.55 -25.85 L16.55 -26.3 17.0 -25.05 17.15 -23.75 14.85 -20.5 13.95 -20.25 13.55 -20.9 Q13.1 -21.7 13.1 -22.35 L13.5 -23.2 15.15 -25.6 15.55 -25.85 M9.65 -25.8 Q8.15 -26.6 6.85 -27.8 L9.65 -28.1 11.8 -27.75 Q12.65 -27.45 12.65 -26.95 12.65 -26.45 11.8 -26.1 L9.65 -25.8 M3.75 -24.95 L4.0 -22.35 Q3.8 -22.45 3.3 -23.3 L2.7 -24.4 Q3.1 -24.85 3.75 -24.95 M32.7 25.15 L32.4 25.6 31.55 25.75 Q30.55 24.65 30.55 23.5 30.55 22.9 30.85 21.85 L31.25 21.6 Q32.7 24.35 32.7 25.15 M62.8 4.45 L63.75 4.85 66.55 8.35 66.6 9.0 Q65.55 8.5 64.6 7.8 L63.4 6.4 Q62.65 5.15 62.8 4.45 M56.8 19.45 L57.15 19.25 59.05 22.6 Q59.8 23.95 59.8 24.95 L58.3 24.9 58.15 24.55 57.15 21.9 Q56.6 20.55 56.6 20.0 L56.65 19.45 56.8 19.45 M43.4 12.6 Q42.25 12.6 41.7 12.15 L42.25 11.3 43.4 12.6 M38.75 11.3 L39.7 12.9 39.45 13.1 38.55 13.15 37.0 12.85 35.5 11.15 34.95 9.25 Q34.55 8.25 32.45 6.85 30.9 5.8 31.25 3.7 L31.35 3.2 31.35 3.1 32.1 2.95 33.5 3.6 36.0 5.0 37.1 7.9 Q38.1 10.3 38.45 10.7 L38.75 11.3 M33.4 26.0 L32.35 27.2 Q31.35 28.05 30.55 27.85 L30.1 27.75 Q30.35 27.4 31.25 26.8 32.45 25.95 33.4 26.0 M-45.75 -26.4 L-46.95 -26.5 -46.0 -25.8 Q-46.3 -23.55 -47.25 -23.15 L-48.6 -23.1 -48.7 -23.1 -48.75 -23.75 Q-48.75 -27.2 -45.95 -28.75 -44.05 -29.8 -41.95 -29.75 L-41.8 -29.1 Q-43.45 -29.1 -44.6 -28.3 -45.75 -27.5 -45.75 -26.4 M-6.2 -25.55 Q-3.55 -28.6 -0.65 -27.85 L-0.2 -26.75 Q-2.45 -25.65 -5.05 -24.6 L-5.4 -24.8 -6.2 -25.45 -6.25 -25.5 -6.2 -25.55 M-3.5 -24.6 L-2.7 -25.15 -1.85 -24.65 Q-1.5 -24.35 -1.5 -23.7 L-2.0 -22.6 -3.15 -20.75 -3.35 -20.65 -3.5 -24.6 M-25.35 -2.85 L-22.95 -5.65 -21.5 -7.45 -21.1 -7.0 -20.9 -6.15 Q-20.9 -4.15 -22.7 -2.55 -24.5 -1.05 -26.45 -1.2 L-25.35 -2.85 M-26.7 -0.9 L-26.65 -0.7 -26.85 -0.75 -26.7 -0.9 M-31.7 2.55 L-32.65 4.3 -35.55 7.25 -35.75 7.45 -37.1 9.7 -38.05 9.95 Q-38.85 8.25 -38.75 7.4 L-31.7 2.55 M-7.05 5.35 L-6.4 5.0 Q-5.65 5.5 -5.25 6.7 L-5.0 8.05 -5.35 9.25 Q-5.8 10.35 -6.35 11.05 L-6.95 9.15 -7.3 7.4 -7.05 5.35 M-11.1 22.95 L-10.55 23.3 Q-10.3 23.55 -10.3 24.2 L-10.85 25.1 -11.4 26.6 Q-10.75 27.25 -10.75 28.3 -10.75 29.2 -11.45 29.8 -12.0 30.25 -12.45 30.25 L-13.65 29.85 -15.45 29.1 -13.55 25.45 -11.8 21.7 -11.1 22.95 M-37.25 17.75 Q-38.1 17.9 -39.75 17.15 -41.4 16.45 -42.05 15.65 L-41.95 14.5 -41.25 14.2 -39.2 15.2 -37.75 17.25 -37.35 16.25 Q-36.9 16.75 -37.25 17.75 M-37.1 12.15 Q-36.9 12.65 -37.4 13.4 -37.85 12.85 -38.55 12.75 L-39.1 14.1 -38.7 12.55 -38.1 11.55 -37.3 13.0 -37.1 12.15" fill="#ffffff" fill-opacity="0.69803923" fill-rule="evenodd" stroke="none"/>
    <path d="M35.8 -26.85 L36.3 -27.25 40.2 -26.3 Q43.65 -25.25 44.3 -24.75 L45.0 -24.0 Q44.1 -23.4 42.35 -23.3 40.4 -23.2 39.35 -23.9 L35.8 -26.85 M16.05 -6.3 Q15.9 -6.05 15.7 -6.05 L15.9 -6.15 15.5 -6.35 15.15 -7.5 14.95 -8.9 15.15 -9.0 15.8 -9.15 15.85 -7.5 Q15.8 -6.3 16.05 -6.3 M11.95 11.45 L11.75 12.35 11.2 12.7 9.8 11.2 Q9.0 8.4 9.0 7.05 9.0 6.4 9.5 6.2 L10.95 6.45 10.9 7.05 11.45 9.0 11.95 11.45 M45.7 11.65 L47.95 11.55 48.75 11.8 Q48.35 11.9 47.4 12.8 46.55 13.55 45.4 13.55 44.75 13.55 44.2 13.2 L43.4 12.6 42.25 11.3 42.2 11.2 45.7 11.65 M36.0 5.0 L36.0 3.5 37.65 2.95 39.6 9.1 40.5 11.4 Q39.45 11.15 38.45 10.7 38.1 10.3 37.1 7.9 L36.0 5.0 M23.7 30.65 L23.7 31.95 Q22.45 31.55 20.3 29.3 17.75 26.65 17.75 24.55 19.15 23.85 21.15 25.35 23.45 27.15 23.7 30.65 M-45.75 -26.4 L-46.0 -25.8 -46.95 -26.5 -45.75 -26.4 M-38.1 11.55 Q-38.25 10.5 -38.05 9.95 L-37.1 9.7 -37.0 9.7 -37.1 12.15 -37.3 13.0 -38.1 11.55 M-37.4 13.4 Q-37.05 14.6 -37.35 16.25 L-37.75 17.25 -39.2 15.2 -39.1 14.1 -38.55 12.75 Q-37.85 12.85 -37.4 13.4" fill="#ffffff" fill-opacity="0.09803922" fill-rule="evenodd" stroke="none"/>
    <path d="M35.8 -26.85 Q33.3 -28.15 29.45 -28.15 25.0 -28.15 21.05 -26.25 L17.15 -23.75 17.0 -25.05 16.55 -26.3 15.55 -25.85 Q17.1 -27.4 20.25 -28.45 24.6 -29.85 30.95 -29.85 37.55 -29.85 38.8 -29.0 39.6 -28.5 40.65 -27.05 L39.0 -28.1 Q38.35 -28.5 36.9 -28.9 L36.1 -28.8 36.3 -27.25 35.8 -26.85 M14.85 -20.5 Q14.3 -18.75 14.3 -17.75 14.3 -13.15 16.65 -11.1 L18.25 -9.95 Q19.0 -9.4 19.0 -8.9 19.0 -8.1 18.6 -6.95 18.2 -5.75 17.6 -4.9 L16.05 -6.3 Q15.8 -6.3 15.85 -7.5 L15.8 -9.15 15.15 -9.0 14.95 -8.9 15.15 -7.5 15.5 -6.35 Q14.75 -7.25 13.65 -10.0 11.55 -15.4 9.65 -25.8 L11.8 -26.1 Q12.65 -26.45 12.65 -26.95 12.65 -27.45 11.8 -27.75 L9.65 -28.1 9.7 -29.15 9.8 -29.5 10.55 -29.65 Q13.55 -28.0 15.15 -25.6 L13.5 -23.2 13.1 -22.35 Q13.1 -21.7 13.55 -20.9 L13.95 -20.25 14.85 -20.5 M32.6 -28.75 L34.35 -28.55 34.5 -28.7 32.6 -28.75 M39.4 -23.8 L42.95 -21.55 42.95 -20.7 40.9 -22.3 39.4 -23.8 M11.95 -19.9 Q12.05 -21.45 12.5 -23.1 12.85 -24.65 13.15 -24.95 L12.3 -25.5 Q12.15 -24.75 11.45 -24.75 12.1 -24.35 11.95 -19.9 M10.95 6.45 L10.95 6.4 10.9 -0.25 12.05 -1.4 13.05 1.85 13.7 5.05 Q12.6 10.25 11.95 11.45 L11.45 9.0 10.9 7.05 10.95 6.45 M11.2 12.7 L9.6 13.6 8.45 13.85 9.8 11.2 11.2 12.7 M31.55 25.75 L28.55 25.75 29.5 21.2 29.85 18.85 26.25 12.6 Q22.3 5.5 20.85 -2.2 21.1 -2.8 20.95 -2.85 L23.55 -2.9 23.45 1.85 Q23.45 6.65 27.7 12.8 31.95 19.0 31.95 19.4 31.95 19.9 31.55 20.25 31.1 20.6 31.1 21.1 L31.45 21.7 33.7 23.75 Q33.6 24.6 32.7 25.15 32.7 24.35 31.25 21.6 L30.85 21.85 Q30.55 22.9 30.55 23.5 30.55 24.65 31.55 25.75 M63.75 4.85 L62.8 4.45 Q57.85 1.7 56.05 2.25 L55.65 2.0 56.75 1.3 60.5 1.65 Q62.9 2.0 63.75 4.85 M58.15 24.55 L57.55 24.8 Q55.8 19.5 53.8 18.0 51.5 16.3 51.0 15.2 L50.2 15.8 47.45 16.5 47.15 16.25 50.3 12.1 Q50.95 12.1 51.9 10.3 L52.95 8.2 53.45 8.0 51.65 13.2 53.6 15.75 56.8 19.45 56.65 19.45 56.6 20.0 Q56.6 20.55 57.15 21.9 L58.15 24.55 M59.05 22.6 L60.65 24.8 Q60.45 25.45 59.65 25.7 L58.35 25.35 58.3 24.9 59.8 24.95 Q59.8 23.95 59.05 22.6 M41.7 12.15 L38.75 11.3 38.45 10.7 Q39.45 11.15 40.5 11.4 L39.6 9.1 44.75 9.75 46.55 11.3 45.7 11.65 42.2 11.2 42.25 11.3 41.7 12.15 M35.5 11.15 Q34.5 10.25 33.85 9.25 L34.95 9.25 35.5 11.15 M60.25 23.85 L60.2 24.0 60.0 23.5 Q60.2 23.3 60.25 23.85 M-41.95 -29.75 Q-41.2 -29.7 -39.9 -30.3 L-38.6 -30.8 Q-34.8 -30.8 -32.75 -28.9 L-33.4 -28.45 Q-33.7 -28.75 -34.5 -29.1 L-36.05 -29.45 -38.5 -29.25 -41.8 -29.1 -41.95 -29.75 M-46.7 -22.65 L-46.35 -21.8 -47.65 -22.95 Q-47.15 -23.25 -46.7 -22.65 M-3.15 -20.75 L-2.75 -14.0 Q-2.75 -11.9 -4.65 -10.55 -6.9 -8.95 -7.8 -5.4 -9.5 1.3 -11.35 3.15 -12.35 4.2 -14.9 4.2 L-15.95 4.15 Q-16.45 1.45 -15.2 0.3 L-13.0 -1.15 -12.8 -1.95 Q-12.15 -4.5 -9.55 -7.25 -4.65 -12.45 -4.65 -16.25 L-6.25 -20.55 Q-10.25 -21.25 -13.25 -16.95 L-15.5 -13.6 Q-16.75 -11.85 -17.9 -11.4 L-17.95 -13.1 Q-17.95 -15.5 -17.2 -17.1 -16.55 -18.45 -15.9 -18.45 -13.4 -18.45 -11.3 -21.35 -10.3 -22.75 -8.5 -26.55 L-6.7 -27.05 -6.4 -26.75 -6.2 -25.8 -6.2 -25.55 -6.25 -25.5 -6.2 -25.45 Q-6.35 -24.9 -7.0 -24.55 L-8.3 -24.0 -3.5 -24.6 -3.35 -20.65 -3.15 -20.75 M-26.45 -1.2 Q-24.5 -1.05 -22.7 -2.55 -20.9 -4.15 -20.9 -6.15 L-21.1 -7.0 -21.5 -7.45 -22.95 -5.65 -25.35 -2.85 -23.65 -8.05 Q-22.2 -12.5 -20.35 -13.85 L-19.5 -11.3 -19.25 -10.15 -19.65 -8.05 -20.2 -6.0 -18.55 -6.15 Q-18.3 -6.65 -18.3 -5.65 -18.3 -2.15 -21.5 -0.35 L-32.65 4.3 -31.7 2.55 Q-30.65 2.25 -28.75 0.85 L-26.85 -0.75 -26.65 -0.7 -26.7 -0.9 -26.45 -1.2 M-15.1 -16.1 L-16.45 -14.65 -16.1 -14.3 Q-15.45 -14.8 -15.1 -16.1 M-6.35 11.05 L-6.05 13.15 Q-5.75 15.6 -5.8 17.05 L-6.4 18.1 Q-7.9 17.4 -8.3 16.3 -8.65 15.3 -8.5 12.65 L-11.1 22.95 -11.8 21.7 Q-10.75 18.05 -10.75 14.55 L-11.15 12.65 -11.6 10.75 Q-11.6 8.7 -10.4 4.75 -9.05 0.1 -7.15 -2.9 L-7.05 5.35 -7.3 7.4 -6.95 9.15 -6.35 11.05 M-35.75 7.45 L-36.3 8.95 -36.65 10.55 -34.7 13.3 Q-32.65 16.2 -32.2 17.25 L-33.4 17.1 Q-34.2 17.15 -35.2 18.6 L-34.95 18.7 -35.45 18.75 Q-36.45 18.75 -37.25 17.75 -36.9 16.75 -37.35 16.25 -37.05 14.6 -37.4 13.4 -36.9 12.65 -37.1 12.15 L-37.0 9.7 -37.1 9.7 -35.75 7.45 M-42.05 15.65 L-44.1 14.05 -44.9 13.15 Q-44.9 12.55 -44.55 12.2 L-44.25 11.95 -42.35 11.7 -40.7 12.05 -40.05 9.6 Q-39.6 8.3 -38.75 7.4 -38.85 8.25 -38.05 9.95 -38.25 10.5 -38.1 11.55 L-38.7 12.55 -39.1 14.1 -39.2 15.2 -41.25 14.2 -41.95 14.5 -42.05 15.65" fill="#ffffff" fill-opacity="0.4" fill-rule="evenodd" stroke="none"/>
  </g>
</svg>
