<?xml version="1.0" encoding="UTF-8" standalone="no"?>
<svg xmlns:xlink="http://www.w3.org/1999/xlink" height="95.1px" width="84.05px" xmlns="http://www.w3.org/2000/svg">
  <g transform="matrix(1.0, 0.0, 0.0, 1.0, 42.05, 47.55)">
    <path d="M-37.0 -26.7 L-36.8 -26.5 Q-36.65 -26.15 -36.65 -25.55 -36.65 -24.4 -37.55 -23.55 -38.5 -22.6 -39.95 -22.6 L-41.75 -22.85 Q-42.05 -23.15 -42.05 -24.05 -42.05 -24.65 -40.6 -24.95 L-39.2 -25.15 Q-37.7 -26.7 -37.0 -26.7 M-31.4 -44.25 L-31.45 -44.05 Q-32.2 -44.3 -33.2 -45.6 L-34.4 -47.55 Q-32.95 -47.55 -32.05 -46.1 -31.55 -45.3 -31.4 -44.25 M-35.45 -35.0 L-35.45 -33.7 -35.55 -33.65 -36.1 -34.95 -35.45 -35.0 M-26.25 -31.65 Q-26.25 -30.2 -26.6 -29.2 -27.0 -28.2 -27.55 -28.2 -28.1 -28.2 -28.45 -29.2 -28.85 -30.2 -28.85 -31.65 -28.85 -33.1 -28.45 -34.1 -28.1 -35.1 -27.55 -35.1 -27.0 -35.1 -26.6 -34.1 -26.25 -33.1 -26.25 -31.65 M-37.0 -16.15 L-36.95 -15.15 -37.1 -14.8 -37.6 -16.1 -37.0 -16.15 M-17.05 34.85 L-16.8 31.85 Q-16.8 32.2 -16.95 32.0 -17.2 31.7 -17.4 32.1 -18.7 30.9 -18.7 29.85 L-18.45 27.85 -19.8 19.05 -19.3 16.1 -18.8 13.15 Q-18.45 10.6 -17.7 7.95 -16.2 2.65 -14.0 1.55 -13.85 3.55 -12.85 3.55 -11.7 3.55 -10.0 2.5 L-6.6 0.1 -6.25 -0.65 -8.2 -1.95 Q-7.6 -1.1 -7.55 -0.15 L-7.95 0.25 -9.15 0.6 Q-11.25 0.6 -13.4 -0.75 -16.45 -2.7 -16.8 -6.4 -16.6 -7.5 -15.5 -7.5 -14.85 -7.5 -14.3 -7.05 L-13.85 -6.6 Q-15.0 -9.35 -19.8 -9.8 -24.8 -10.25 -25.95 -12.5 L-25.1 -13.4 Q-23.7 -14.15 -20.75 -13.8 -18.65 -12.35 -16.45 -11.35 -15.6 -7.75 -11.3 -7.85 L-10.95 -7.0 -10.05 -5.7 -10.0 -5.65 -9.1 -5.05 -7.15 -4.9 -6.55 -5.0 -6.65 -4.35 -6.35 -3.15 -5.5 -1.7 Q-3.95 -3.0 -2.3 -3.6 L-4.1 -4.9 -5.15 -5.5 -3.3 -6.6 -2.55 -7.2 -0.65 -5.6 Q2.6 -2.5 2.6 -0.7 L2.6 -0.45 3.35 -0.9 3.7 2.85 Q2.15 2.4 1.5 5.95 0.8 9.45 -1.05 10.85 -2.9 12.25 -2.85 17.55 -2.85 22.8 -4.0 22.85 -5.2 22.85 -5.1 20.95 -7.5 25.5 -8.3 31.1 -8.3 32.8 -7.65 33.2 -6.1 34.1 -4.75 36.0 -3.35 37.95 -2.6 38.5 -2.25 38.75 -2.1 39.25 5.95 33.75 9.15 28.3 12.9 22.0 12.9 11.8 12.9 7.5 11.75 6.45 8.9 3.8 7.95 2.25 L5.25 -1.5 Q3.55 -3.85 3.55 -4.65 3.55 -6.05 4.65 -6.95 5.5 -7.65 6.35 -7.65 9.2 -7.65 12.5 -5.8 16.7 -3.45 17.55 0.25 19.7 -1.5 23.65 -1.5 27.7 -1.5 30.5 -0.4 33.0 0.6 33.9 2.15 L28.65 3.35 Q27.1 2.6 24.6 2.25 22.75 2.45 21.65 4.1 L21.3 4.7 20.7 3.85 Q19.8 4.0 19.65 4.35 L20.8 5.65 Q19.3 9.05 23.3 10.85 25.3 11.7 27.45 11.75 L28.2 11.65 29.3 11.9 Q32.1 12.5 32.2 14.25 L29.05 14.0 27.45 14.5 25.65 13.9 25.75 15.15 Q24.6 15.6 23.45 16.2 21.45 17.2 22.35 19.45 20.5 21.35 21.75 23.65 L22.15 24.3 21.75 24.45 Q21.2 24.45 20.85 25.35 L19.85 27.25 21.8 27.4 Q23.15 27.8 23.15 28.5 L23.05 29.4 Q17.35 31.95 15.0 37.35 13.2 41.7 8.7 44.2 L7.8 44.45 4.8 44.65 Q3.95 44.65 1.9 43.0 -0.1 41.3 -2.05 41.3 -2.7 41.3 -2.95 40.9 L-3.25 39.95 -5.15 40.7 -6.55 41.1 Q-8.05 41.1 -8.8 40.1 L-9.85 37.9 -11.4 37.2 Q-11.5 39.85 -12.25 43.1 -12.0 41.6 -13.25 37.85 -14.55 34.0 -15.5 34.0 L-16.4 34.2 -17.05 34.85 M-14.45 46.95 L-15.5 47.55 -16.45 44.2 -15.75 45.2 -14.45 46.95 M41.8 -11.9 L42.0 -11.45 15.95 -5.85 14.85 -6.0 Q14.65 -6.1 14.1 -6.35 14.95 -8.9 16.8 -10.25 19.05 -8.4 23.55 -9.85 L29.8 -11.85 30.25 -11.85 Q32.5 -11.85 35.8 -13.6 37.55 -14.55 41.8 -11.9 M39.15 6.45 L39.15 7.75 39.05 7.8 38.55 6.5 39.15 6.45 M16.5 20.1 L17.25 17.35 16.0 16.65 16.45 20.2 16.5 20.1 M-5.05 5.3 L-2.9 3.4 -4.65 3.6 -5.05 5.3 M-13.1 21.25 L-12.95 23.2 -10.95 27.2 Q-10.6 26.15 -10.8 22.9 -11.0 19.65 -10.35 17.8 -9.75 15.95 -10.2 15.15 L-10.95 15.4 -11.9 16.75 -12.75 18.45 -12.35 16.5 Q-13.2 16.9 -13.3 17.55 L-13.1 21.25 M-4.4 11.0 L-5.65 9.55 Q-7.1 8.25 -8.35 8.7 L-8.4 8.95 -5.9 10.5 -4.5 11.1 -4.4 11.0" fill="#ffffff" fill-opacity="0.4" fill-rule="evenodd" stroke="none"/>
    <path d="M21.3 4.7 L20.8 5.65 19.65 4.35 Q19.8 4.0 20.7 3.85 L21.3 4.7 M-12.25 43.1 Q-12.25 44.7 -12.9 45.85 -13.55 46.95 -14.45 46.95 L-15.75 45.2 -16.45 44.2 -17.6 43.0 Q-18.2 42.35 -18.2 41.75 L-17.85 41.3 Q-17.55 40.95 -17.55 36.4 L-17.4 35.5 -17.05 34.85 -16.4 34.2 -15.5 34.0 Q-14.55 34.0 -13.25 37.85 -12.0 41.6 -12.25 43.1 M41.4 -1.65 L38.55 -0.25 36.15 0.35 Q34.25 0.35 31.85 -0.45 28.45 -1.65 27.6 -3.85 L30.1 -4.4 31.75 -4.55 Q32.0 -4.35 32.4 -4.1 36.9 -1.4 41.45 -2.0 L41.4 -1.65 M-4.4 11.0 L-4.5 11.1 -5.9 10.5 -8.4 8.95 -8.35 8.7 Q-7.1 8.25 -5.65 9.55 L-4.4 11.0 M-12.75 18.45 L-11.9 16.75 -10.95 15.4 -10.2 15.15 Q-9.75 15.95 -10.35 17.8 -11.0 19.65 -10.8 22.9 -10.6 26.15 -10.95 27.2 L-12.95 23.2 -13.1 21.25 -12.75 18.45" fill="#ffffff" fill-opacity="0.69803923" fill-rule="evenodd" stroke="none"/>
  </g>
</svg>
