<?xml version="1.0" encoding="UTF-8" standalone="no"?>
<svg xmlns:xlink="http://www.w3.org/1999/xlink" height="6.35px" width="27.35px" xmlns="http://www.w3.org/2000/svg">
  <g transform="matrix(1.0, 0.0, 0.0, 1.0, -13.5, -4.25)">
    <path d="M37.45 5.75 L39.9 5.85 Q41.45 6.4 38.7 8.35 L35.35 9.25 Q24.5 11.65 15.25 7.95 13.0 5.6 14.55 5.0 L16.5 4.9 Q19.9 7.4 22.45 7.8 L28.3 7.95 30.6 7.75 Q34.75 7.0 37.45 5.75" fill="#e46473" fill-rule="evenodd" stroke="none"/>
    <path d="M16.5 4.9 L37.45 5.75 Q34.75 7.0 30.6 7.75 L28.3 7.95 22.45 7.8 Q19.9 7.4 16.5 4.9" fill="#bb525e" fill-rule="evenodd" stroke="none"/>
    <path d="M37.45 5.75 L39.9 5.85 Q41.45 6.4 38.7 8.35 L35.35 9.25 Q24.5 11.65 15.25 7.95 13.0 5.6 14.55 5.0 L16.5 4.9 37.45 5.75" fill="none" stroke="#3f274c" stroke-linecap="round" stroke-linejoin="round" stroke-width="0.8"/>
    <path d="M37.45 5.75 Q34.75 7.0 30.6 7.75 L28.3 7.95 22.45 7.8 Q19.9 7.4 16.5 4.9" fill="none" stroke="#3f274c" stroke-linecap="round" stroke-linejoin="round" stroke-width="0.6000000000000001"/>
  </g>
</svg>
