<?xml version="1.0" encoding="UTF-8" standalone="no"?>
<svg xmlns:xlink="http://www.w3.org/1999/xlink" height="128.6px" width="123.3px" xmlns="http://www.w3.org/2000/svg">
  <g transform="matrix(1.0, 0.0, 0.0, 1.0, 61.65, 65.25)">
    <path d="M15.9 -46.3 L15.9 -46.2 15.8 -45.5 Q15.4 -44.6 13.65 -44.6 L14.0 -45.6 Q14.4 -46.65 14.75 -46.95 L15.1 -47.1 15.65 -46.9 15.8 -46.75 15.9 -46.3 M9.6 -39.25 L10.15 -40.7 Q10.85 -42.2 11.8 -42.75 12.55 -43.1 12.8 -42.05 12.45 -38.95 9.65 -37.85 L9.6 -39.25 M35.0 -29.3 L35.2 -29.4 37.9 -25.65 38.1 -25.4 39.5 -23.1 39.2 -22.35 Q38.15 -22.95 37.2 -23.8 35.85 -25.35 35.05 -26.75 L34.6 -27.6 Q34.45 -27.85 34.45 -28.45 34.45 -29.05 34.6 -29.15 L35.0 -29.3 M-6.5 -17.45 L-5.05 -16.5 -2.8 -18.0 0.0 -19.4 0.15 -18.0 Q-0.1 -16.95 -0.5 -16.55 L-0.6 -16.5 -0.85 -16.4 -1.1 -16.05 -2.15 -15.4 Q-4.05 -14.5 -5.0 -14.5 -6.0 -14.5 -6.5 -15.45 L-6.35 -15.55 -7.65 -16.2 -8.35 -16.55 -11.6 -18.55 Q-12.5 -18.55 -13.15 -19.4 -13.8 -20.3 -13.8 -21.5 L-13.45 -21.85 -10.75 -20.1 -6.5 -17.45 M59.55 -32.25 L59.75 -31.55 60.2 -30.75 59.7 -27.8 58.85 -29.75 58.15 -31.75 58.4 -32.3 58.3 -32.3 58.95 -32.35 59.55 -32.25 M45.55 4.6 Q45.2 7.55 44.6 9.3 44.25 9.05 44.25 7.65 44.25 5.5 45.55 4.6 M44.05 15.9 L44.5 18.15 Q44.6 19.5 42.95 20.45 41.35 21.35 43.4 26.05 L42.55 27.2 41.9 24.85 Q41.55 23.1 41.55 22.35 41.55 19.75 42.0 18.35 42.55 16.6 44.05 15.9 M40.3 46.3 L40.25 47.35 40.15 47.35 40.2 46.85 Q40.3 46.55 39.9 46.9 L39.65 46.1 40.3 46.05 40.3 46.3 M17.65 55.85 L17.65 57.15 17.55 57.2 17.05 55.9 17.65 55.85 M-55.7 -49.75 Q-55.95 -51.15 -55.65 -51.85 -54.35 -51.85 -53.4 -50.7 -52.5 -49.6 -52.5 -48.05 L-52.5 -47.1 -52.8 -46.3 Q-55.35 -47.55 -55.7 -49.75 M-42.6 -38.6 Q-41.2 -39.35 -40.85 -38.95 L-40.7 -39.0 -40.6 -38.25 Q-40.6 -38.05 -41.15 -37.6 -41.9 -37.0 -43.15 -36.45 L-43.7 -36.8 -42.6 -38.6 M-21.1 -24.55 L-20.35 -24.25 -19.2 -23.3 -18.15 -22.25 Q-16.95 -20.7 -16.95 -19.95 -18.95 -19.95 -20.35 -21.05 L-21.0 -21.7 -21.1 -21.85 -21.1 -21.8 Q-21.75 -22.65 -21.75 -23.7 L-21.55 -24.3 -21.1 -24.55 M-40.85 -29.45 L-42.55 -29.8 -42.65 -30.15 -41.7 -30.7 -40.0 -31.15 -35.85 -30.95 Q-36.1 -30.6 -35.65 -30.4 L-35.85 -30.3 -38.25 -29.65 -40.85 -29.45" fill="#ffffff" fill-rule="evenodd" stroke="none"/>
    <path d="M45.2 -56.1 L43.4 -50.6 42.65 -50.05 42.0 -50.05 41.6 -50.25 42.1 -52.7 43.15 -55.75 Q44.4 -59.0 45.35 -60.05 L46.1 -60.8 45.2 -56.1 M15.8 -45.5 L15.15 -43.2 Q14.35 -40.85 13.7 -40.3 L13.3 -41.9 13.65 -44.6 Q15.4 -44.6 15.8 -45.5 M37.9 -25.65 L35.2 -29.4 35.0 -29.3 34.85 -30.45 35.05 -31.0 Q35.4 -31.6 36.5 -31.6 37.0 -31.6 37.5 -29.0 L37.9 -25.65 M35.05 -26.75 Q35.85 -25.35 37.2 -23.8 L37.1 -23.1 37.05 -22.1 36.7 -22.05 Q36.35 -22.1 35.95 -22.4 L35.75 -22.15 35.7 -21.2 35.4 -21.65 34.9 -22.15 Q34.45 -22.5 34.45 -23.1 34.45 -24.65 35.05 -26.75 M30.7 -15.5 Q27.9 -14.65 25.55 -14.65 L23.0 -14.9 Q21.15 -15.2 20.2 -15.6 L19.85 -16.4 20.3 -17.45 22.05 -17.15 24.5 -16.9 28.9 -17.45 32.15 -17.2 32.35 -16.1 30.7 -15.5 M15.8 -46.75 L15.65 -46.9 15.1 -47.1 14.75 -46.95 15.65 -47.65 15.8 -46.75 M61.2 -35.8 L61.5 -31.65 60.95 -30.35 60.2 -30.75 59.75 -31.55 59.55 -32.25 58.9 -34.85 Q58.25 -37.85 58.45 -38.55 L59.0 -38.8 59.9 -39.1 61.2 -35.8 M59.9 -27.05 L59.95 -26.05 59.8 -25.7 59.25 -27.0 59.9 -27.05 M49.35 15.9 L49.35 17.2 49.25 17.25 48.7 15.95 49.35 15.9 M22.8 54.2 Q22.8 52.9 22.95 52.4 L24.45 52.1 24.2 52.75 23.15 54.9 22.8 54.2 M-55.65 -51.85 Q-56.2 -54.2 -55.3 -55.05 L-53.9 -55.55 -52.85 -52.2 Q-52.15 -49.75 -52.5 -48.05 -52.5 -49.6 -53.4 -50.7 -54.35 -51.85 -55.65 -51.85 M-40.7 -39.0 L-39.15 -39.85 -37.75 -40.65 -35.9 -40.5 -34.6 -40.2 -34.5 -40.05 Q-34.55 -39.9 -35.85 -39.2 L-36.4 -38.95 -38.95 -37.85 Q-43.85 -35.95 -44.85 -35.75 L-47.5 -35.75 -48.25 -36.0 -48.45 -36.05 -48.5 -36.1 -45.55 -37.4 -42.6 -38.6 -43.7 -36.8 -43.15 -36.45 Q-41.9 -37.0 -41.15 -37.6 -40.6 -38.05 -40.6 -38.25 L-40.7 -39.0 M-31.15 -31.15 L-33.95 -30.6 -35.85 -30.3 -35.65 -30.4 Q-36.1 -30.6 -35.85 -30.95 L-40.0 -31.15 -41.7 -30.7 -42.65 -30.15 -42.55 -29.8 -40.85 -29.45 -42.6 -29.2 -43.75 -29.15 -45.3 -29.65 -45.4 -29.75 -45.05 -30.3 -43.75 -31.3 Q-41.9 -32.15 -37.5 -32.55 L-31.95 -32.2 Q-30.9 -31.65 -31.15 -31.15 M-26.95 -26.7 Q-27.3 -27.45 -26.3 -27.45 L-23.9 -26.25 -21.1 -24.55 -21.55 -24.3 -21.75 -23.7 -25.45 -25.7 Q-26.85 -26.35 -26.95 -26.7" fill="#ffffff" fill-opacity="0.69803923" fill-rule="evenodd" stroke="none"/>
    <path d="M42.1 -52.7 Q40.15 -51.3 38.15 -49.2 L39.25 -48.5 38.4 -46.15 37.95 -45.05 Q37.95 -44.45 37.4 -44.2 L36.25 -43.8 Q36.2 -43.1 35.2 -43.1 34.65 -43.1 34.6 -43.25 L34.35 -43.45 33.95 -44.0 Q34.95 -46.2 40.25 -54.7 41.6 -56.8 43.95 -59.1 45.45 -60.95 44.7 -63.6 L45.55 -65.25 Q46.5 -62.5 46.5 -60.95 L46.05 -58.5 45.2 -56.1 46.1 -60.8 45.35 -60.05 Q44.4 -59.0 43.15 -55.75 L42.1 -52.7 M11.8 -42.75 Q13.55 -46.05 15.4 -48.1 16.65 -49.45 17.35 -49.8 L18.45 -50.4 15.9 -46.3 15.8 -46.75 15.65 -47.65 14.75 -46.95 Q14.4 -46.65 14.0 -45.6 L13.65 -44.6 13.3 -41.9 Q11.45 -37.75 8.05 -33.4 4.9 -29.4 3.55 -28.95 L9.6 -39.25 9.65 -37.85 Q12.45 -38.95 12.8 -42.05 12.55 -43.1 11.8 -42.75 M37.2 -23.8 Q38.15 -22.95 39.2 -22.35 L39.5 -23.1 38.1 -25.4 39.55 -25.55 Q40.25 -24.8 40.25 -23.8 L40.1 -22.85 39.5 -22.05 38.95 -21.0 Q39.55 -21.5 41.65 -22.0 L44.45 -22.35 Q42.4 -20.55 38.05 -18.15 33.0 -15.45 30.7 -15.5 L32.35 -16.1 32.15 -17.2 35.4 -21.65 35.7 -21.2 35.75 -22.15 35.95 -22.4 Q36.35 -22.1 36.7 -22.05 L37.05 -22.1 37.1 -23.1 37.2 -23.8 M0.15 -18.0 L0.0 -19.4 -2.8 -18.0 -5.05 -16.5 -6.5 -17.45 -3.55 -18.6 -2.45 -18.6 -2.45 -22.8 -1.6 -23.55 Q-1.2 -23.95 -0.4 -24.05 L-0.45 -20.35 -0.15 -20.9 0.7 -21.2 3.1 -20.85 5.05 -20.3 5.25 -19.9 0.15 -18.0 M-10.75 -20.1 L-13.45 -21.85 -13.8 -21.5 -15.75 -28.7 Q-15.75 -30.4 -14.85 -31.3 L-14.0 -31.6 Q-14.0 -29.8 -13.15 -26.4 -12.15 -22.3 -10.75 -20.1 M-11.6 -18.55 L-8.35 -16.55 -8.15 -16.3 Q-9.55 -16.9 -11.6 -18.55 M-7.65 -16.2 L-6.35 -15.55 -6.5 -15.45 -7.3 -15.65 Q-7.65 -15.9 -7.65 -16.2 M-2.15 -15.4 L-1.1 -16.05 -1.15 -15.75 -1.3 -14.1 -1.6 -13.1 -2.15 -15.4 M-4.4 11.55 Q-5.95 10.85 -5.75 9.35 -5.2 7.5 -5.2 6.5 -5.2 5.85 -6.1 5.6 -7.05 5.4 -7.05 3.95 -7.05 2.4 -5.95 1.2 L-6.6 -2.15 Q-6.6 -2.65 -6.25 -2.55 -5.95 -2.5 -5.95 -3.0 -5.95 -5.0 -4.25 -6.65 -2.55 -8.3 -2.6 -9.0 L-2.0 -8.85 -1.05 -8.55 Q-0.6 -8.55 0.4 -9.15 L1.2 -9.2 Q1.4 -8.05 -0.1 -6.25 -1.8 -4.15 -2.15 -0.75 L-3.1 5.7 Q-4.0 10.65 -4.4 11.55 M60.95 -30.35 L61.25 -28.55 61.65 -26.75 Q61.65 -22.95 59.75 -20.35 57.45 -17.9 56.65 -16.45 L53.3 -11.45 Q51.1 -8.35 50.7 -6.9 L50.3 -4.9 Q49.95 -3.5 49.35 -2.95 48.85 -4.65 48.6 -4.55 L47.55 -4.65 46.6 0.05 46.35 2.5 Q46.35 4.1 47.35 5.9 48.3 7.65 49.6 8.5 L49.65 8.55 Q50.25 5.85 50.6 5.45 L51.6 5.35 51.75 6.05 51.9 7.45 51.4 10.2 Q50.8 12.05 50.1 12.95 L48.5 14.6 Q47.25 16.05 46.7 17.8 45.45 15.3 44.5 12.5 42.5 6.75 42.5 2.05 42.5 0.3 43.15 -0.5 44.3 -1.9 45.25 -4.8 47.7 -8.65 47.75 -6.7 48.05 -7.55 48.6 -13.3 L49.55 -13.75 50.85 -14.25 51.0 -11.2 Q51.6 -11.2 51.6 -10.25 L54.0 -14.55 56.35 -19.0 54.8 -18.85 56.9 -23.05 Q57.9 -25.55 57.9 -28.3 L57.65 -31.4 57.0 -34.2 Q56.95 -34.15 56.85 -34.25 56.7 -34.4 56.7 -35.05 56.7 -36.95 57.4 -38.15 58.0 -39.25 59.35 -40.05 L60.25 -40.8 61.25 -37.2 61.2 -35.8 59.9 -39.1 59.0 -38.8 58.45 -38.55 Q58.25 -37.85 58.9 -34.85 L59.55 -32.25 58.95 -32.35 58.3 -32.3 58.4 -32.3 58.15 -31.75 58.85 -29.75 59.7 -27.8 60.2 -30.75 60.95 -30.35 M43.7 -40.05 L45.35 -37.4 Q46.05 -35.75 46.05 -34.65 46.05 -33.35 45.5 -32.35 L44.45 -31.6 42.35 -38.0 Q42.35 -38.7 43.7 -40.05 M59.9 -27.05 L59.25 -27.0 59.8 -25.7 59.95 -26.05 59.9 -27.05 M45.55 4.6 Q44.25 5.5 44.25 7.65 44.25 9.05 44.6 9.3 45.2 7.55 45.55 4.6 M48.1 8.1 L47.45 12.7 46.9 11.75 47.05 13.5 Q48.7 12.45 49.45 9.35 L49.65 8.55 48.1 8.1 M39.9 46.9 L39.15 47.55 38.6 36.45 Q38.6 35.35 39.55 34.85 L40.3 34.75 Q41.1 36.95 41.0 41.2 40.85 45.8 40.3 46.3 L40.3 46.05 39.65 46.1 39.9 46.9 M24.2 52.75 Q25.5 51.3 26.75 48.75 27.95 46.3 27.95 45.2 27.95 43.0 27.1 41.4 L26.1 39.5 Q26.6 38.9 27.45 38.55 L28.7 41.6 29.95 45.0 30.8 43.65 31.3 43.0 32.35 42.1 Q32.1 47.75 27.65 52.1 24.2 55.55 22.35 55.55 L21.65 55.45 21.65 55.3 22.8 54.2 23.15 54.9 24.2 52.75 M36.6 48.9 L36.55 48.9 36.3 47.4 Q36.35 47.0 36.55 46.9 L37.25 46.8 Q36.95 48.65 36.6 48.9 M21.35 52.75 Q21.35 54.65 20.9 56.0 20.4 57.35 19.75 57.35 19.1 57.35 18.65 56.0 18.15 54.65 18.15 52.75 18.15 50.85 18.65 49.5 19.1 48.15 19.75 48.15 20.4 48.15 20.9 49.5 21.35 50.85 21.35 52.75 M19.2 58.15 L19.2 59.4 19.1 59.45 Q18.95 59.3 18.55 58.15 L18.95 58.1 19.2 58.15 M-53.9 -55.55 Q-52.9 -57.4 -51.75 -58.7 L-50.9 -59.45 Q-53.35 -38.0 -53.35 -34.65 -53.35 -31.4 -55.45 -29.0 -57.15 -27.05 -58.4 -27.05 L-59.3 -27.15 -59.8 -27.45 Q-56.85 -31.55 -56.65 -34.15 -56.5 -35.85 -56.95 -40.45 L-56.4 -45.25 -55.7 -49.75 Q-55.35 -47.55 -52.8 -46.3 L-52.5 -47.1 -52.5 -48.05 Q-52.15 -49.75 -52.85 -52.2 L-53.9 -55.55 M-40.7 -39.0 L-40.85 -38.95 Q-41.2 -39.35 -42.6 -38.6 L-45.55 -37.4 -48.5 -36.1 -48.45 -36.05 -48.95 -35.5 -48.75 -35.7 -48.25 -36.0 -47.5 -35.75 Q-48.55 -33.3 -50.25 -32.3 -51.2 -31.7 -52.1 -31.7 L-52.8 -31.75 -53.25 -32.0 Q-51.0 -33.25 -50.45 -34.35 L-50.35 -35.65 Q-50.35 -36.45 -49.25 -37.05 -47.85 -37.8 -43.8 -38.9 -42.35 -39.25 -40.15 -40.8 -38.35 -42.05 -36.65 -42.05 -31.65 -42.05 -25.8 -35.4 -25.3 -34.9 -23.45 -31.15 -21.4 -27.05 -20.35 -24.25 L-21.1 -24.55 -23.9 -26.25 -26.3 -27.45 Q-27.3 -27.45 -26.95 -26.7 L-33.95 -30.6 -31.15 -31.15 -27.55 -30.0 Q-25.05 -28.9 -24.15 -27.8 -25.3 -33.25 -30.0 -36.6 -33.25 -38.9 -35.85 -39.2 -34.55 -39.9 -34.5 -40.05 L-34.6 -40.2 -35.9 -40.5 -37.75 -40.65 -39.15 -39.85 -40.7 -39.0 M-42.6 -29.2 Q-42.15 -29.0 -41.8 -28.65 -42.25 -27.8 -43.25 -27.35 -44.4 -26.9 -45.15 -25.95 L-46.25 -25.75 -47.1 -26.4 Q-45.9 -28.1 -45.3 -29.65 L-43.75 -29.15 -42.6 -29.2 M-45.05 -30.3 L-44.85 -31.25 Q-44.1 -32.2 -37.5 -32.55 -41.9 -32.15 -43.75 -31.3 L-45.05 -30.3 M-59.15 -22.85 L-59.2 -22.8 Q-61.2 -23.6 -61.65 -23.95 L-61.65 -24.05 -60.4 -24.0 -59.15 -22.85 M-36.4 -38.95 L-35.15 -37.45 -36.4 -37.4 -38.95 -37.85 -36.4 -38.95 M-21.1 -21.8 L-21.3 -20.65 -23.3 -23.15 Q-25.0 -25.4 -25.45 -25.7 L-21.75 -23.7 Q-21.75 -22.65 -21.1 -21.8 M-21.0 -21.7 L-20.35 -21.05 Q-18.95 -19.95 -16.95 -19.95 -16.65 -17.45 -15.5 -17.25 L-13.3 -16.7 -13.9 -16.35 Q-14.6 -15.95 -15.25 -15.75 L-14.4 -11.1 -13.7 -6.65 Q-13.7 -5.95 -14.0 -5.25 L-14.6 -4.35 -15.5 -3.9 Q-14.6 -6.7 -14.6 -8.25 -14.6 -10.8 -15.0 -12.7 -15.6 -15.45 -16.9 -15.55 L-17.75 -16.35 Q-18.95 -17.9 -21.0 -21.7 M-18.15 -22.25 L-19.2 -23.3 -19.0 -23.6 -18.15 -22.25 M-6.05 -14.45 L-4.85 -12.95 -4.95 -12.8 -6.65 -14.0 -6.05 -14.45 M-4.7 -2.65 Q-4.3 -2.35 -4.5 -1.2 L-4.6 -0.4 Q-3.75 -1.3 -3.0 -2.75 L-2.7 -3.7 Q-3.8 -2.9 -4.85 -2.7 L-4.7 -2.65 M-41.5 46.0 Q-41.65 46.55 -42.95 47.75 -44.1 49.3 -43.9 52.1 L-43.9 52.25 -44.7 52.4 Q-46.35 52.4 -46.75 51.6 L-46.85 50.55 -46.5 49.85 Q-46.15 49.5 -46.15 46.3 L-45.8 44.45 -43.25 44.8 Q-41.95 45.25 -41.5 46.0 M-44.45 45.75 L-44.6 46.65 -44.6 46.7 -44.15 45.75 -44.45 45.75 M-35.45 62.45 L-35.55 62.85 -35.95 63.35 -38.8 61.05 -41.0 59.35 -41.0 59.0 Q-39.85 59.1 -38.0 60.2 -36.0 61.35 -35.45 62.45" fill="#ffffff" fill-opacity="0.4" fill-rule="evenodd" stroke="none"/>
  </g>
</svg>
