<?xml version="1.0" encoding="UTF-8" standalone="no"?>
<svg xmlns:xlink="http://www.w3.org/1999/xlink" height="80.1px" width="33.6px" xmlns="http://www.w3.org/2000/svg">
  <g transform="matrix(1.0, 0.0, 0.0, 1.0, 34.85, -64.5)">
    <path d="M-10.05 77.3 Q-8.3 72.8 -8.3 67.8 L-8.65 67.5 -9.5 67.0 Q-10.4 67.15 -10.95 68.1 -12.35 70.35 -11.3 72.5 L-11.2 73.2 -11.7 74.9 -12.0 75.4 Q-13.35 76.6 -14.3 78.15 L-15.05 79.45 Q-13.55 74.35 -12.6 69.05 -12.05 65.9 -9.5 64.5 -3.55 68.05 -8.45 75.8 -8.2 78.1 -9.55 80.7 -10.3 82.1 -11.55 81.1 L-11.15 80.15 Q-12.65 82.9 -13.75 85.95 -13.6 88.35 -14.5 90.7 -14.8 91.5 -15.45 91.8 -17.35 98.95 -19.75 105.05 -22.5 98.05 -18.75 89.35 L-18.6 89.05 Q-19.25 93.05 -18.6 97.05 -17.4 94.85 -16.4 92.25 L-12.8 82.2 Q-12.05 81.45 -11.45 80.35 L-11.25 80.05 -11.15 80.15 -11.0 80.2 Q-10.35 81.05 -10.55 80.25 -10.15 79.95 -10.05 79.45 -9.8 78.25 -10.05 77.3 M-2.0 65.4 Q-0.3 68.75 -2.45 66.0 -2.85 65.45 -2.0 65.4 M-24.85 90.35 L-23.65 88.15 Q-22.95 86.85 -21.75 86.35 -20.75 91.05 -24.85 96.25 L-25.35 96.8 Q-24.0 94.85 -24.1 93.15 L-24.15 92.7 Q-20.3 90.85 -23.35 89.5 L-24.65 90.2 -24.85 90.35 M-27.5 97.35 L-27.9 97.25 -27.45 96.05 -27.5 97.35 M-6.35 77.25 Q-4.5 79.95 -7.45 83.05 L-9.2 83.1 Q-8.75 80.65 -7.65 78.2 -7.3 77.35 -6.35 77.25 M-11.05 84.4 Q-9.55 87.3 -10.5 91.4 -10.8 92.55 -11.75 93.1 -10.5 94.3 -12.75 95.15 -13.45 95.4 -13.65 94.65 L-13.1 93.25 Q-12.7 92.75 -12.25 92.7 L-11.9 92.95 Q-13.3 90.0 -12.4 85.7 -12.2 84.55 -11.05 84.4 M-18.6 97.8 Q-19.4 97.9 -19.05 98.25 -16.9 100.55 -18.6 97.8 M-25.8 108.1 L-26.05 108.7 Q-31.1 121.4 -29.4 134.25 -30.0 134.3 -29.75 134.6 L-29.3 135.1 -29.25 135.35 -29.2 135.15 Q-27.85 136.45 -29.1 134.45 -27.8 127.0 -25.3 119.65 -24.5 119.05 -24.9 118.4 L-23.75 115.2 Q-22.8 112.65 -22.45 110.35 -21.65 110.35 -21.1 110.9 L-20.75 111.45 Q-21.7 114.05 -23.95 116.3 -26.35 128.2 -29.3 139.35 L-28.85 139.25 Q-26.45 140.55 -28.25 143.35 L-28.25 143.4 Q-28.3 144.0 -29.8 144.5 -30.75 144.85 -31.15 143.85 L-31.0 142.95 Q-31.75 141.6 -30.05 139.85 L-29.9 139.7 -30.65 135.85 Q-31.2 136.85 -32.2 136.35 L-32.1 133.65 -32.55 133.85 Q-33.2 134.1 -33.4 133.4 -33.6 132.6 -33.05 132.05 L-33.2 132.1 Q-35.25 131.55 -34.75 128.7 L-34.5 127.55 -33.6 126.8 -33.2 126.7 Q-31.95 128.25 -32.45 131.05 L-32.7 131.75 -32.05 131.4 -32.0 131.45 -31.95 130.7 Q-31.85 129.6 -30.9 129.45 L-30.4 124.3 Q-29.05 115.35 -26.2 107.65 -26.3 103.55 -23.8 100.4 -23.55 100.15 -23.2 100.0 L-22.55 99.7 Q-19.75 105.25 -22.25 107.8 -22.25 104.5 -23.7 101.75 L-24.05 102.05 -24.65 104.55 -25.4 106.15 -25.8 108.1" fill="#ffffff" fill-opacity="0.4" fill-rule="evenodd" stroke="none"/>
    <path d="M-10.05 77.3 Q-10.25 76.55 -10.75 75.95 -10.35 75.8 -10.0 75.25 L-9.55 74.55 -9.25 74.0 -9.15 73.75 Q-7.65 70.3 -9.9 67.4 -11.0 67.55 -10.9 68.75 L-10.85 69.0 -10.9 69.05 Q-11.4 71.0 -11.3 72.5 -12.35 70.35 -10.95 68.1 -10.4 67.15 -9.5 67.0 L-8.65 67.5 -8.3 67.8 Q-8.3 72.8 -10.05 77.3 M-11.7 74.9 L-11.95 75.6 -11.55 75.9 -11.9 76.45 Q-12.65 79.0 -11.25 80.05 L-11.45 80.35 Q-12.05 81.45 -12.8 82.2 L-16.4 92.25 Q-17.4 94.85 -18.6 97.05 -19.25 93.05 -18.6 89.05 -17.85 84.2 -15.05 79.45 L-14.3 78.15 Q-13.35 76.6 -12.0 75.4 L-11.7 74.9 M-25.9 97.3 Q-26.55 97.95 -27.5 97.6 L-27.5 97.35 -27.45 96.05 Q-27.3 94.35 -26.5 92.55 L-26.1 91.9 -26.2 92.05 Q-27.3 94.8 -27.1 97.25 L-25.9 97.3 M-18.6 97.8 Q-16.9 100.55 -19.05 98.25 -19.4 97.9 -18.6 97.8 M-25.8 108.1 Q-26.65 112.85 -25.7 116.8 -24.1 116.15 -23.75 114.45 -22.4 108.35 -23.7 103.75 L-24.65 104.55 -24.05 102.05 -23.7 101.75 Q-22.25 104.5 -22.25 107.8 L-22.45 110.35 Q-22.8 112.65 -23.75 115.2 L-24.9 118.4 -25.7 117.6 Q-26.15 117.65 -26.6 118.05 -27.3 118.65 -27.1 119.55 L-27.1 119.6 Q-27.8 119.7 -27.4 120.3 -25.35 123.15 -26.65 120.1 L-26.2 120.05 -25.3 119.65 Q-27.8 127.0 -29.1 134.45 -27.85 136.45 -29.2 135.15 L-29.25 135.35 -29.3 135.1 -29.75 134.6 Q-30.0 134.3 -29.4 134.25 -31.1 121.4 -26.05 108.7 L-25.8 108.1" fill="#ffffff" fill-opacity="0.69803923" fill-rule="evenodd" stroke="none"/>
    <path d="M-11.3 72.5 Q-11.4 71.0 -10.9 69.05 L-10.85 69.0 -10.9 68.75 Q-11.0 67.55 -9.9 67.4 -7.65 70.3 -9.15 73.75 L-9.25 74.0 -9.55 74.55 -10.0 75.25 Q-10.35 75.8 -10.75 75.95 -10.25 76.55 -10.05 77.3 -9.8 78.25 -10.05 79.45 -10.15 79.95 -10.55 80.25 -10.35 81.05 -11.0 80.2 L-11.15 80.15 -11.25 80.05 Q-12.65 79.0 -11.9 76.45 L-11.55 75.9 -11.95 75.6 -11.7 74.9 -11.2 73.2 -11.3 72.5 M-25.35 96.8 L-25.4 96.85 -25.9 97.3 -27.1 97.25 Q-27.3 94.8 -26.2 92.05 L-26.1 91.9 -25.95 91.65 Q-25.65 90.9 -24.85 90.35 L-24.65 90.2 -23.35 89.5 Q-20.3 90.85 -24.15 92.7 L-24.1 93.15 Q-24.0 94.85 -25.35 96.8 M-24.65 104.55 L-23.7 103.75 Q-22.4 108.35 -23.75 114.45 -24.1 116.15 -25.7 116.8 -26.65 112.85 -25.8 108.1 L-25.4 106.15 -24.65 104.55 M-25.3 119.65 L-26.2 120.05 -26.65 120.1 Q-25.35 123.15 -27.4 120.3 -27.8 119.7 -27.1 119.6 L-27.1 119.55 Q-27.3 118.65 -26.6 118.05 -26.15 117.65 -25.7 117.6 L-24.9 118.4 Q-24.5 119.05 -25.3 119.65" fill="#ffffff" fill-rule="evenodd" stroke="none"/>
  </g>
</svg>
