<?xml version="1.0" encoding="UTF-8" standalone="no"?>
<svg xmlns:xlink="http://www.w3.org/1999/xlink" height="153.5px" width="58.9px" xmlns="http://www.w3.org/2000/svg">
  <g transform="matrix(1.0, 0.0, 0.0, 1.0, 42.05, 8.9)">
    <path d="M9.1 -4.6 Q10.65 -6.5 9.9 -8.15 8.25 -7.45 6.7 -6.4 4.15 -4.7 2.8 -1.8 L2.65 -1.9 Q2.85 -5.05 5.5 -6.85 L6.4 -7.35 6.35 -7.5 Q6.15 -8.45 7.1 -8.5 L7.6 -7.95 Q9.6 -8.8 11.85 -8.9 L12.1 -8.3 12.65 -8.5 Q14.35 -5.8 12.15 -8.1 L12.1 -8.15 Q12.25 -6.85 10.2 -5.5 L10.3 -5.4 Q10.9 -4.9 10.85 -4.15 L8.95 -3.95 9.1 -4.6 M14.25 -8.5 Q16.15 -8.2 16.75 -6.25 17.0 -5.6 16.6 -5.05 14.45 -4.9 13.65 -7.75 13.45 -8.45 14.25 -8.5 M4.3 0.4 L4.25 0.45 4.3 0.5 Q4.8 3.45 1.0 6.1 1.1 4.15 0.4 2.55 -0.75 2.75 -1.25 3.7 -2.6 6.45 -2.4 8.85 -4.05 10.6 -4.95 12.65 -4.35 13.8 -5.4 15.85 L-5.95 16.45 Q-6.15 18.65 -5.65 21.15 -4.9 25.0 -3.75 28.9 -2.45 33.3 -4.85 35.35 L-4.65 33.6 Q-4.8 27.0 -6.35 21.5 -7.8 22.2 -7.9 24.25 L-7.85 28.1 Q-8.8 21.95 -7.4 16.05 -8.35 14.6 -7.25 12.6 -6.85 11.85 -6.1 11.7 L-4.7 8.45 -4.35 7.8 -4.95 7.3 -1.8 3.95 Q0.0 1.6 2.35 -0.2 L2.6 0.1 3.95 -0.6 4.3 0.4 M0.1 9.95 L0.05 9.85 Q0.75 8.1 0.95 6.55 L1.2 6.5 Q3.75 7.85 0.3 9.85 L0.1 9.95 M-2.0 -4.55 Q-1.15 -1.45 -6.4 1.1 -7.75 1.75 -8.8 0.85 -7.85 -2.05 -4.55 -3.65 L-2.0 -4.55 M-0.25 11.1 Q1.1 13.3 -0.5 16.65 L-1.6 17.85 Q-3.75 16.35 -2.75 13.55 L-3.15 13.6 Q-4.7 12.75 -3.7 10.75 L-2.75 10.05 -2.35 10.2 Q-2.75 11.0 -2.2 11.85 L-1.65 12.05 Q0.4 14.25 -1.05 11.9 L-0.9 11.75 -0.25 11.1 M-13.95 18.65 Q-13.65 17.55 -12.95 16.35 -12.4 15.4 -11.45 15.2 L-11.4 15.3 -11.05 15.2 Q-9.15 17.1 -10.75 19.75 -11.15 20.4 -11.7 20.3 L-12.2 21.45 Q-12.45 22.0 -12.95 22.2 L-11.85 16.8 Q-13.1 17.5 -13.95 18.65 M-13.05 22.95 L-13.15 24.8 Q-12.7 25.7 -12.5 26.75 L-12.25 26.65 Q-10.85 27.45 -11.2 29.25 -11.35 29.85 -11.85 30.1 L-12.15 30.0 Q-12.2 32.95 -14.65 36.1 -15.45 37.15 -16.6 37.75 -17.4 35.35 -16.35 32.5 -15.85 34.1 -14.85 35.55 -14.5 33.9 -14.3 32.1 L-13.75 32.4 Q-12.85 31.75 -12.95 30.85 -13.15 28.8 -13.7 27.15 L-13.05 22.95 M-16.8 30.6 L-17.0 30.6 Q-18.35 27.65 -16.4 24.3 -17.3 27.65 -16.8 30.6 M-16.6 43.25 Q-14.8 46.9 -17.55 51.2 -18.4 52.5 -19.45 51.45 L-18.15 44.8 Q-17.85 43.55 -16.6 43.25 M-4.55 40.1 L-5.15 38.5 Q-6.35 39.0 -6.65 40.45 -6.95 39.3 -6.4 37.7 -6.15 37.0 -5.55 36.95 -4.05 38.2 -4.55 40.1 M-6.65 40.45 L-6.7 40.75 -6.95 43.35 -7.25 44.3 Q-8.3 49.65 -7.1 53.55 -5.9 53.45 -5.25 52.65 L-6.2 55.8 -6.3 56.1 Q-6.4 57.7 -7.05 59.5 -7.45 60.55 -8.3 61.35 -10.3 59.05 -9.2 55.15 -9.65 51.6 -8.15 47.45 -8.3 44.9 -7.4 41.85 L-6.65 40.45 M-10.05 77.3 Q-8.3 72.8 -8.3 67.8 L-8.65 67.5 -9.5 67.0 Q-10.4 67.15 -10.95 68.1 -12.35 70.35 -11.3 72.5 L-11.2 73.2 -11.7 74.9 -12.0 75.4 Q-13.35 76.6 -14.3 78.15 L-15.05 79.45 Q-13.55 74.35 -12.6 69.05 -12.05 65.9 -9.5 64.5 -3.55 68.05 -8.45 75.8 -8.2 78.1 -9.55 80.7 -10.3 82.1 -11.55 81.1 L-11.15 80.15 Q-12.65 82.9 -13.75 85.95 -13.6 88.35 -14.5 90.7 -14.8 91.5 -15.45 91.8 -17.35 98.95 -19.75 105.05 -22.5 98.05 -18.75 89.35 L-18.6 89.05 Q-19.25 93.05 -18.6 97.05 -17.4 94.85 -16.4 92.25 L-12.8 82.2 Q-12.05 81.45 -11.45 80.35 L-11.25 80.05 -11.15 80.15 -11.0 80.2 Q-10.35 81.05 -10.55 80.25 -10.15 79.95 -10.05 79.45 -9.8 78.25 -10.05 77.3 M-2.0 65.4 Q-0.3 68.75 -2.45 66.0 -2.85 65.45 -2.0 65.4 M-31.25 69.25 L-31.3 69.25 Q-31.1 70.3 -31.55 71.65 -31.0 71.7 -30.95 70.35 -30.95 69.55 -31.25 69.25 M-37.45 77.25 L-38.0 78.7 Q-39.85 84.2 -36.55 86.1 L-36.8 89.35 -37.1 89.7 Q-38.25 91.4 -36.85 92.45 L-36.8 94.95 -36.95 94.8 Q-37.75 94.85 -38.15 95.6 -38.95 97.0 -38.8 98.6 -38.15 99.4 -37.4 98.8 L-37.0 98.5 Q-37.3 101.0 -37.95 103.35 L-38.0 102.95 -38.1 103.2 -38.25 103.0 Q-39.05 103.05 -39.25 103.85 -39.95 106.7 -38.45 108.4 L-38.75 110.35 Q-38.95 111.45 -39.75 112.65 -43.85 109.75 -40.65 103.6 -40.05 102.4 -39.25 101.7 -38.95 98.9 -38.8 95.85 -39.55 88.6 -39.85 80.95 -40.2 72.25 -35.6 66.2 L-31.55 66.55 Q-30.45 66.7 -29.55 67.5 -28.95 68.1 -28.85 68.95 -28.8 70.0 -28.35 71.0 -28.1 71.6 -28.35 72.2 -29.05 73.4 -30.45 73.6 L-32.7 73.7 Q-33.1 74.45 -32.45 75.25 L-33.5 77.45 Q-31.95 71.3 -33.95 66.45 -35.05 66.65 -35.6 67.75 -37.05 70.95 -38.05 74.3 -38.15 74.9 -37.55 75.05 L-37.2 75.2 -37.45 77.25 M-35.8 83.95 L-35.2 82.3 -34.15 79.6 -34.45 82.05 Q-34.55 83.5 -35.8 83.95 M-27.1 74.6 Q-25.25 77.55 -27.6 75.05 -27.95 74.7 -27.1 74.6 M-28.8 75.9 Q-27.2 77.15 -28.5 79.25 -28.9 79.9 -29.65 79.75 -31.9 78.3 -29.65 76.3 -29.25 75.95 -28.8 75.9 M-31.4 81.5 Q-29.4 82.65 -30.5 85.95 -30.8 86.85 -31.8 87.05 -33.7 85.5 -32.7 82.65 -32.35 81.65 -31.4 81.5 M-24.85 90.35 L-23.65 88.15 Q-22.95 86.85 -21.75 86.35 -20.75 91.05 -24.85 96.25 L-25.35 96.8 Q-24.0 94.85 -24.1 93.15 L-24.15 92.7 Q-20.3 90.85 -23.35 89.5 L-24.65 90.2 -24.85 90.35 M-27.5 97.35 L-27.9 97.25 -27.45 96.05 -27.5 97.35 M-6.35 77.25 Q-4.5 79.95 -7.45 83.05 L-9.2 83.1 Q-8.75 80.65 -7.65 78.2 -7.3 77.35 -6.35 77.25 M-11.05 84.4 Q-9.55 87.3 -10.5 91.4 -10.8 92.55 -11.75 93.1 -10.5 94.3 -12.75 95.15 -13.45 95.4 -13.65 94.65 L-13.1 93.25 Q-12.7 92.75 -12.25 92.7 L-11.9 92.95 Q-13.3 90.0 -12.4 85.7 -12.2 84.55 -11.05 84.4 M-18.6 97.8 Q-19.4 97.9 -19.05 98.25 -16.9 100.55 -18.6 97.8 M-25.8 108.1 L-26.05 108.7 Q-31.1 121.4 -29.4 134.25 -30.0 134.3 -29.75 134.6 L-29.3 135.1 -29.25 135.35 -29.2 135.15 Q-27.85 136.45 -29.1 134.45 -27.8 127.0 -25.3 119.65 -24.5 119.05 -24.9 118.4 L-23.75 115.2 Q-22.8 112.65 -22.45 110.35 -21.65 110.35 -21.1 110.9 L-20.75 111.45 Q-21.7 114.05 -23.95 116.3 -26.35 128.2 -29.3 139.35 L-28.85 139.25 Q-26.45 140.55 -28.25 143.35 L-28.25 143.4 Q-28.3 144.0 -29.8 144.5 -30.75 144.85 -31.15 143.85 L-31.0 142.95 Q-31.75 141.6 -30.05 139.85 L-29.9 139.7 -30.65 135.85 Q-31.2 136.85 -32.2 136.35 L-32.1 133.65 -32.55 133.85 Q-33.2 134.1 -33.4 133.4 -33.6 132.6 -33.05 132.05 L-33.2 132.1 Q-35.25 131.55 -34.75 128.7 L-34.5 127.55 -33.6 126.8 -33.2 126.7 Q-31.95 128.25 -32.45 131.05 L-32.7 131.75 -32.05 131.4 -32.0 131.45 -31.95 130.7 Q-31.85 129.6 -30.9 129.45 L-30.4 124.3 Q-29.05 115.35 -26.2 107.65 -26.3 103.55 -23.8 100.4 -23.55 100.15 -23.2 100.0 L-22.55 99.7 Q-19.75 105.25 -22.25 107.8 -22.25 104.5 -23.7 101.75 L-24.05 102.05 -24.65 104.55 -25.4 106.15 -25.8 108.1 M-33.1 100.4 Q-31.25 103.35 -33.6 100.85 -33.95 100.5 -33.1 100.4 M-33.55 107.3 Q-31.65 108.65 -32.55 111.15 -32.8 111.95 -33.55 112.35 -36.1 111.35 -34.55 108.05 -34.2 107.35 -33.55 107.3 M-39.1 122.75 Q-37.8 123.55 -37.75 125.25 -37.75 125.85 -38.25 126.1 -40.8 126.25 -39.9 123.5 -39.7 122.85 -39.1 122.75 M-39.55 112.9 Q-38.0 113.7 -38.4 115.7 -38.55 116.35 -39.1 116.65 -41.5 116.1 -40.2 113.4 -40.0 112.9 -39.55 112.9 M-37.4 133.95 Q-35.85 134.8 -36.25 136.75 -36.4 137.45 -36.95 137.7 -39.35 137.15 -38.05 134.45 -37.85 134.0 -37.4 133.95" fill="#ffffff" fill-opacity="0.4" fill-rule="evenodd" stroke="none"/>
    <path d="M2.8 -1.8 Q4.15 -4.7 6.7 -6.4 8.25 -7.45 9.9 -8.15 10.65 -6.5 9.1 -4.6 9.4 -5.85 9.1 -6.95 8.0 -6.7 7.3 -5.65 5.75 -3.45 4.85 -1.15 3.65 -0.7 2.65 -1.5 L2.8 -1.8 M-7.85 28.1 L-7.9 24.25 Q-7.8 22.2 -6.35 21.5 -4.8 27.0 -4.65 33.6 L-4.85 35.35 Q-5.05 36.15 -5.55 36.85 L-5.8 36.35 Q-5.05 35.45 -4.95 34.1 -4.55 28.85 -6.35 25.85 -7.7 26.3 -7.8 28.0 L-7.8 28.4 -7.85 28.1 M-2.4 8.85 Q-2.6 6.45 -1.25 3.7 -0.75 2.75 0.4 2.55 1.1 4.15 1.0 6.1 L0.95 6.55 Q0.75 8.1 0.05 9.85 L0.1 9.95 -0.25 11.1 -0.9 11.75 -1.05 11.9 Q0.4 14.25 -1.65 12.05 L-2.2 11.85 Q-2.75 11.0 -2.35 10.2 L-2.25 10.0 -2.4 8.85 M-12.95 22.2 L-13.05 22.95 -13.7 27.15 Q-14.1 26.05 -14.65 25.1 -15.5 25.2 -15.75 26.15 -16.85 30.3 -14.3 32.1 -14.5 33.9 -14.85 35.55 -15.85 34.1 -16.35 32.5 L-16.8 30.6 Q-17.3 27.65 -16.4 24.3 -15.9 22.3 -14.9 20.2 L-13.95 18.65 Q-13.1 17.5 -11.85 16.8 L-12.95 22.2 M-6.65 40.45 Q-6.35 39.0 -5.15 38.5 L-4.55 40.1 Q-3.7 42.95 -4.1 46.2 -4.4 44.1 -5.55 42.1 -6.5 42.45 -6.95 43.35 L-6.7 40.75 -6.65 40.45 M-10.05 77.3 Q-10.25 76.55 -10.75 75.95 -10.35 75.8 -10.0 75.25 L-9.55 74.55 -9.25 74.0 -9.15 73.75 Q-7.65 70.3 -9.9 67.4 -11.0 67.55 -10.9 68.75 L-10.85 69.0 -10.9 69.05 Q-11.4 71.0 -11.3 72.5 -12.35 70.35 -10.95 68.1 -10.4 67.15 -9.5 67.0 L-8.65 67.5 -8.3 67.8 Q-8.3 72.8 -10.05 77.3 M-11.7 74.9 L-11.95 75.6 -11.55 75.9 -11.9 76.45 Q-12.65 79.0 -11.25 80.05 L-11.45 80.35 Q-12.05 81.45 -12.8 82.2 L-16.4 92.25 Q-17.4 94.85 -18.6 97.05 -19.25 93.05 -18.6 89.05 -17.85 84.2 -15.05 79.45 L-14.3 78.15 Q-13.35 76.6 -12.0 75.4 L-11.7 74.9 M-37.45 77.25 Q-37.5 79.9 -35.7 81.8 -34.7 80.65 -34.75 78.9 -34.9 74.9 -33.0 71.5 L-33.5 70.9 Q-33.9 70.55 -34.4 70.3 -35.7 71.05 -36.45 72.9 L-37.2 75.2 -37.55 75.05 Q-38.15 74.9 -38.05 74.3 -37.05 70.95 -35.6 67.75 -35.05 66.65 -33.95 66.45 -31.95 71.3 -33.5 77.45 L-34.15 79.6 -35.2 82.3 -35.8 83.95 -36.2 86.3 -36.55 86.1 Q-39.85 84.2 -38.0 78.7 L-37.45 77.25 M-36.85 92.45 Q-38.25 91.4 -37.1 89.7 L-36.8 89.35 -36.55 89.2 Q-34.9 90.1 -35.65 92.0 -35.85 92.6 -36.55 92.65 L-36.85 92.45 M-36.8 94.95 Q-35.0 96.55 -37.0 98.5 L-37.4 98.8 Q-38.15 99.4 -38.8 98.6 -38.95 97.0 -38.15 95.6 -37.75 94.85 -36.95 94.8 L-36.8 94.95 M-37.95 103.35 Q-36.65 105.0 -37.35 107.7 -37.5 108.4 -38.25 108.6 L-38.45 108.4 Q-39.95 106.7 -39.25 103.85 -39.05 103.05 -38.25 103.0 L-38.1 103.2 -37.95 103.35 M-25.9 97.3 Q-26.55 97.95 -27.5 97.6 L-27.5 97.35 -27.45 96.05 Q-27.3 94.35 -26.5 92.55 L-26.1 91.9 -26.2 92.05 Q-27.3 94.8 -27.1 97.25 L-25.9 97.3 M-18.6 97.8 Q-16.9 100.55 -19.05 98.25 -19.4 97.9 -18.6 97.8 M-25.8 108.1 Q-26.65 112.85 -25.7 116.8 -24.1 116.15 -23.75 114.45 -22.4 108.35 -23.7 103.75 L-24.65 104.55 -24.05 102.05 -23.7 101.75 Q-22.25 104.5 -22.25 107.8 L-22.45 110.35 Q-22.8 112.65 -23.75 115.2 L-24.9 118.4 -25.7 117.6 Q-26.15 117.65 -26.6 118.05 -27.3 118.65 -27.1 119.55 L-27.1 119.6 Q-27.8 119.7 -27.4 120.3 -25.35 123.15 -26.65 120.1 L-26.2 120.05 -25.3 119.65 Q-27.8 127.0 -29.1 134.45 -27.85 136.45 -29.2 135.15 L-29.25 135.35 -29.3 135.1 -29.75 134.6 Q-30.0 134.3 -29.4 134.25 -31.1 121.4 -26.05 108.7 L-25.8 108.1" fill="#ffffff" fill-opacity="0.69803923" fill-rule="evenodd" stroke="none"/>
    <path d="M9.1 -4.6 L8.95 -3.95 Q8.35 -2.1 6.65 0.1 5.55 1.5 4.3 0.5 L4.25 0.45 4.3 0.4 4.85 -1.15 Q5.75 -3.45 7.3 -5.65 8.0 -6.7 9.1 -6.95 9.4 -5.85 9.1 -4.6 M-7.8 28.4 L-7.8 28.0 Q-7.7 26.3 -6.35 25.85 -4.55 28.85 -4.95 34.1 -5.05 35.45 -5.8 36.35 L-5.95 36.45 Q-8.15 33.6 -7.8 28.4 M-13.7 27.15 Q-13.15 28.8 -12.95 30.85 -12.85 31.75 -13.75 32.4 L-14.3 32.1 Q-16.85 30.3 -15.75 26.15 -15.5 25.2 -14.65 25.1 -14.1 26.05 -13.7 27.15 M-6.95 43.35 Q-6.5 42.45 -5.55 42.1 -4.4 44.1 -4.1 46.2 -3.7 48.9 -4.8 51.8 L-5.25 52.65 Q-5.9 53.45 -7.1 53.55 -8.3 49.65 -7.25 44.3 L-6.95 43.35 M-11.3 72.5 Q-11.4 71.0 -10.9 69.05 L-10.85 69.0 -10.9 68.75 Q-11.0 67.55 -9.9 67.4 -7.65 70.3 -9.15 73.75 L-9.25 74.0 -9.55 74.55 -10.0 75.25 Q-10.35 75.8 -10.75 75.95 -10.25 76.55 -10.05 77.3 -9.8 78.25 -10.05 79.45 -10.15 79.95 -10.55 80.25 -10.35 81.05 -11.0 80.2 L-11.15 80.15 -11.25 80.05 Q-12.65 79.0 -11.9 76.45 L-11.55 75.9 -11.95 75.6 -11.7 74.9 -11.2 73.2 -11.3 72.5 M-37.2 75.2 L-36.45 72.9 Q-35.7 71.05 -34.4 70.3 -33.9 70.55 -33.5 70.9 L-33.0 71.5 Q-34.9 74.9 -34.75 78.9 -34.7 80.65 -35.7 81.8 -37.5 79.9 -37.45 77.25 L-37.2 75.2 M-25.35 96.8 L-25.4 96.85 -25.9 97.3 -27.1 97.25 Q-27.3 94.8 -26.2 92.05 L-26.1 91.9 -25.95 91.65 Q-25.65 90.9 -24.85 90.35 L-24.65 90.2 -23.35 89.5 Q-20.3 90.85 -24.15 92.7 L-24.1 93.15 Q-24.0 94.85 -25.35 96.8 M-24.65 104.55 L-23.7 103.75 Q-22.4 108.35 -23.75 114.45 -24.1 116.15 -25.7 116.8 -26.65 112.85 -25.8 108.1 L-25.4 106.15 -24.65 104.55 M-25.3 119.65 L-26.2 120.05 -26.65 120.1 Q-25.35 123.15 -27.4 120.3 -27.8 119.7 -27.1 119.6 L-27.1 119.55 Q-27.3 118.65 -26.6 118.05 -26.15 117.65 -25.7 117.6 L-24.9 118.4 Q-24.5 119.05 -25.3 119.65" fill="#ffffff" fill-rule="evenodd" stroke="none"/>
  </g>
</svg>
