<?xml version="1.0" encoding="UTF-8" standalone="no"?>
<svg xmlns:xlink="http://www.w3.org/1999/xlink" height="88.8px" width="69.55px" xmlns="http://www.w3.org/2000/svg">
  <g transform="matrix(1.0, 0.0, 0.0, 1.0, 34.75, 44.4)">
    <path d="M11.4 -44.4 L12.15 -43.4 12.1 -43.35 10.8 -44.15 11.4 -44.4 M6.75 -20.95 L6.65 -20.9 5.85 -21.25 5.3 -21.35 5.35 -20.35 Q4.05 -21.3 1.9 -22.1 -1.15 -23.25 -4.0 -23.2 -3.7 -23.4 -3.7 -23.8 L-3.75 -24.25 -8.85 -23.5 -8.65 -22.85 -11.75 -22.45 -13.25 -22.6 -14.1 -22.95 -12.15 -24.4 -6.45 -24.85 Q-1.6 -24.85 1.65 -23.7 3.5 -23.0 6.75 -20.95 M7.4 -19.75 L7.35 -20.45 Q8.7 -19.55 10.5 -16.35 12.6 -12.55 12.95 -9.15 12.75 -9.05 12.45 -9.35 12.15 -9.7 11.6 -9.7 L11.15 -9.2 10.5 -8.25 Q10.35 -7.05 11.15 -4.6 11.9 -2.15 12.95 -0.75 L12.5 1.25 Q11.35 -0.2 9.95 -7.8 8.45 -15.9 7.5 -17.8 7.8 -18.3 7.4 -19.75 M12.55 -3.1 L12.5 -2.9 12.3 -3.8 12.55 -3.1 M32.65 -11.0 L33.5 -10.05 34.75 -8.35 Q35.05 -8.0 34.05 -8.0 33.35 -8.0 32.65 -8.6 31.8 -9.35 32.0 -10.55 32.1 -10.95 32.65 -11.0 M12.5 18.35 L12.05 16.15 11.6 16.15 Q11.55 15.05 10.75 12.1 L10.0 9.0 10.5 8.15 Q11.85 10.15 12.55 12.45 13.6 15.85 12.5 18.35 M10.95 18.5 L11.55 20.5 12.3 22.55 11.9 24.6 11.6 24.95 10.85 21.95 10.45 19.65 Q10.45 19.05 10.6 18.85 L10.95 18.5 M-19.35 -22.4 L-19.25 -22.15 -19.65 -21.85 Q-20.15 -21.55 -20.8 -21.55 L-22.65 -21.7 Q-24.15 -22.05 -23.0 -22.8 L-19.35 -22.4 M-26.05 -20.9 L-24.95 -21.2 Q-24.35 -20.6 -24.3 -20.2 -25.9 -18.8 -27.2 -18.65 -27.75 -18.75 -28.15 -19.2 L-27.2 -20.1 -26.4 -21.5 Q-26.05 -21.65 -26.05 -20.9 M-14.9 -22.95 L-13.75 -22.1 -13.9 -22.0 -15.55 -22.75 -14.9 -22.95 M-17.6 -21.85 L-17.6 -21.8 -19.1 -22.8 -19.1 -22.85 -18.45 -22.55 -17.6 -21.85 M-20.25 17.4 L-19.8 21.15 Q-19.5 23.2 -19.5 24.25 -19.6 24.85 -19.7 23.95 L-20.05 24.2 -19.6 24.85 Q-19.7 25.25 -20.25 24.45 L-20.8 23.45 Q-20.55 24.95 -20.85 26.35 L-20.9 28.1 -21.35 28.25 -22.55 28.4 -24.2 28.35 Q-23.65 23.05 -22.5 22.2 -21.55 21.5 -21.55 18.65 -21.55 17.4 -23.85 13.3 -25.9 9.6 -26.85 8.55 -27.15 8.2 -29.95 7.15 -32.75 6.1 -33.25 5.55 -33.85 4.65 -32.85 4.65 -31.65 4.65 -27.6 6.15 L-26.5 6.55 -26.6 7.05 -26.65 7.45 Q-26.35 7.45 -26.25 8.2 L-26.2 8.9 -24.35 8.45 -22.65 10.25 -20.9 12.35 -22.0 12.1 Q-22.45 12.15 -21.95 12.3 L-21.55 13.5 -21.9 13.5 -22.05 14.1 -21.6 15.2 -20.25 17.35 -20.25 17.4 M-26.3 6.65 Q-23.8 7.6 -25.05 7.65 L-25.15 8.4 Q-25.1 7.65 -26.05 6.95 L-26.3 6.65 M-33.25 43.0 L-33.45 44.0 -34.0 44.4 -34.5 44.0 -34.75 43.0 -34.5 42.0 -34.0 41.6 -33.45 42.0 -33.25 43.0" fill="#ffffff" fill-opacity="0.4" fill-rule="evenodd" stroke="none"/>
    <path d="M6.65 -20.9 L6.75 -20.95 7.35 -20.45 7.4 -19.75 7.35 -19.5 7.3 -19.45 Q6.65 -20.4 6.65 -20.9 M12.3 -3.8 L12.35 -7.4 12.95 -7.5 Q13.6 -6.3 13.75 -4.55 L13.5 -3.15 12.7 -2.65 12.55 -3.1 12.3 -3.8 M12.5 19.25 L12.65 20.8 Q12.65 21.8 12.55 21.1 11.9 20.7 11.9 19.7 L11.95 19.15 11.95 19.3 12.5 19.25 M-19.7 15.2 L-19.15 15.95 Q-18.6 16.8 -18.6 17.4 L-18.8 18.15 -19.4 17.95 -20.25 17.35 -21.6 15.2 -22.05 14.1 -21.9 13.5 -21.55 13.5 -20.9 14.0 -19.7 15.2" fill="#ffffff" fill-rule="evenodd" stroke="none"/>
    <path d="M-8.65 -22.85 L-8.85 -23.5 -3.75 -24.25 -3.7 -23.8 Q-3.7 -23.4 -4.0 -23.2 -6.75 -22.0 -7.4 -22.0 -8.05 -22.0 -8.3 -22.25 L-8.65 -22.85 M5.35 -20.35 L5.3 -21.35 5.85 -21.25 6.65 -20.9 Q6.65 -20.4 7.3 -19.45 L7.35 -19.5 7.4 -19.75 Q7.8 -18.3 7.5 -17.8 L7.25 -17.55 6.25 -18.95 5.35 -20.35 M12.95 -0.75 Q11.9 -2.15 11.15 -4.6 10.35 -7.05 10.5 -8.25 L11.15 -9.2 11.6 -9.7 Q12.15 -9.7 12.45 -9.35 12.75 -9.05 12.95 -9.15 L13.5 -7.05 13.9 -4.35 13.6 -0.15 12.95 -0.75 M12.55 -3.1 L12.7 -2.65 13.5 -3.15 13.75 -4.55 Q13.6 -6.3 12.95 -7.5 L12.35 -7.4 12.3 -3.8 12.5 -2.9 12.55 -3.1 M11.6 16.15 L12.05 16.15 12.5 18.35 12.95 21.95 12.3 22.55 11.55 20.5 10.95 18.5 Q11.1 16.55 11.6 16.15 M12.5 19.25 L11.95 19.3 11.95 19.15 11.9 19.7 Q11.9 20.7 12.55 21.1 12.65 21.8 12.65 20.8 L12.5 19.25 M-19.4 17.95 L-19.65 18.1 Q-19.6 17.9 -20.25 17.4 L-20.25 17.35 -19.4 17.95 M-19.5 24.25 L-19.0 25.2 -19.0 25.25 -19.6 24.85 -20.05 24.2 -19.7 23.95 Q-19.6 24.85 -19.5 24.25 M-26.5 6.55 L-26.4 6.55 -26.3 6.65 -26.05 6.95 Q-25.1 7.65 -25.15 8.4 L-25.05 7.65 -24.35 8.45 -26.2 8.9 -26.25 8.2 Q-26.35 7.45 -26.65 7.45 L-26.6 7.05 -26.5 6.55 M-20.9 12.35 L-19.7 15.2 -20.9 14.0 -21.55 13.5 -21.95 12.3 Q-22.45 12.15 -22.0 12.1 L-20.9 12.35" fill="#ffffff" fill-opacity="0.69803923" fill-rule="evenodd" stroke="none"/>
  </g>
</svg>
