<?xml version="1.0" encoding="UTF-8" standalone="no"?>
<svg xmlns:xlink="http://www.w3.org/1999/xlink" height="158.6px" width="82.1px" xmlns="http://www.w3.org/2000/svg">
  <g transform="matrix(1.0, 0.0, 0.0, 1.0, 41.05, 79.3)">
    <path d="M23.2 -77.25 L23.9 -76.6 24.6 -75.85 Q23.85 -75.4 17.6 -74.2 L11.3 -73.1 Q10.05 -73.1 8.35 -70.5 6.75 -68.05 4.45 -68.25 5.3 -69.45 9.8 -73.05 14.8 -77.05 16.9 -77.6 16.9 -77.05 17.6 -76.65 18.3 -76.3 19.3 -76.3 17.45 -75.7 15.2 -75.65 L16.9 -75.15 18.5 -75.0 17.25 -74.95 16.95 -74.8 19.15 -75.0 18.75 -75.0 Q20.25 -75.25 21.65 -75.85 L22.9 -76.6 23.2 -77.25 M16.65 -76.6 L16.7 -76.65 16.25 -76.45 16.65 -76.6 M0.65 -55.75 L0.75 -55.0 1.05 -54.9 6.4 -56.05 6.3 -56.2 Q5.5 -56.65 4.0 -56.7 10.85 -58.35 19.4 -58.35 26.4 -58.35 27.9 -51.45 28.25 -49.95 29.2 -48.5 28.45 -48.65 27.5 -47.95 26.7 -50.75 24.95 -52.55 23.05 -54.45 19.7 -55.7 L21.5 -55.95 22.2 -56.45 22.2 -56.7 21.6 -57.7 Q21.2 -58.15 19.75 -58.15 L15.6 -57.65 15.7 -57.35 14.55 -57.4 Q14.45 -56.9 16.25 -56.3 L18.25 -55.8 15.65 -55.55 16.85 -55.35 16.95 -55.1 10.6 -53.55 Q9.9 -53.65 9.55 -54.1 10.2 -54.65 12.05 -55.25 10.8 -55.65 11.3 -56.4 8.3 -56.3 2.5 -54.7 -4.05 -52.85 -7.65 -50.6 -5.25 -53.75 0.65 -55.75 M9.3 -53.55 Q9.3 -53.2 8.75 -52.95 L7.45 -52.7 6.15 -52.95 Q5.6 -53.2 5.6 -53.55 5.6 -53.9 6.15 -54.15 L7.45 -54.4 8.75 -54.15 9.3 -53.55 M24.55 -56.05 L24.3 -55.95 25.2 -55.3 25.3 -55.35 24.55 -56.05 M31.75 -45.65 Q34.3 -43.4 34.95 -43.4 36.0 -43.4 37.05 -41.6 38.4 -39.2 39.1 -38.6 L39.4 -36.9 36.4 -41.05 38.3 -37.9 39.65 -34.8 39.6 -34.15 Q38.9 -36.5 36.6 -39.4 L32.5 -43.95 31.3 -46.1 31.75 -45.65 M39.9 -30.85 L39.8 -30.15 39.45 -29.85 Q39.25 -29.85 39.15 -30.15 39.0 -30.45 39.0 -30.85 L39.15 -31.55 39.45 -31.85 39.8 -31.55 39.9 -30.85 M41.05 -25.55 L40.95 -24.85 40.6 -24.55 Q40.4 -24.55 40.3 -24.85 40.15 -25.15 40.15 -25.55 L40.3 -26.25 40.6 -26.55 40.95 -26.25 41.05 -25.55 M-13.2 -29.3 L-8.55 -30.25 -9.35 -29.05 -0.9 -30.8 3.6 -31.4 Q9.75 -31.4 12.05 -24.8 8.45 -26.05 7.6 -28.35 6.9 -30.2 5.4 -30.2 L-1.05 -28.8 -0.1 -29.55 -9.45 -29.0 -12.05 -27.4 -14.8 -26.3 Q-16.35 -25.55 -17.2 -24.2 -16.4 -25.55 -14.95 -26.7 L-12.55 -28.65 -13.2 -29.3 M-19.9 -21.35 L-20.95 -20.65 Q-21.6 -20.35 -21.9 -19.85 L-22.5 -19.4 -22.8 -18.3 Q-24.25 -11.8 -19.9 -11.8 L-16.9 -11.75 -15.65 -11.65 Q-16.7 -10.25 -19.65 -9.55 L-22.35 -9.1 Q-22.35 -8.35 -23.6 -7.75 -24.65 -7.25 -25.25 -7.25 L-26.0 -7.3 -26.45 -7.6 -26.5 -7.75 -26.05 -8.0 -25.4 -8.25 Q-25.2 -8.65 -25.9 -9.35 L-24.6 -9.4 -25.85 -9.9 Q-24.5 -10.8 -22.25 -11.55 L-24.05 -13.8 -24.6 -14.75 -27.1 -8.35 Q-27.75 -9.85 -27.75 -11.0 L-26.8 -14.95 -25.85 -18.75 -25.5 -18.75 -24.95 -18.05 -24.25 -18.65 -23.85 -18.7 -23.35 -19.55 Q-24.05 -19.95 -24.65 -20.0 L-25.85 -20.2 -19.9 -25.05 Q-19.9 -26.65 -18.65 -28.0 -17.3 -29.5 -15.35 -29.5 L-15.45 -28.55 Q-17.3 -28.55 -18.6 -26.45 -19.9 -24.35 -19.9 -21.35 M8.4 -28.85 Q8.25 -28.0 8.95 -27.35 9.2 -27.1 10.2 -26.55 9.65 -27.75 8.4 -28.85 M0.65 -7.0 L-4.1 -10.4 -6.6 -12.35 -7.55 -13.05 Q-3.45 -11.9 1.9 -7.65 L6.5 -3.65 Q7.15 -3.65 7.5 -2.35 L8.0 0.0 8.05 1.35 3.25 -3.8 Q4.0 -3.95 4.15 -4.4 L2.6 -6.4 1.05 -7.45 0.65 -7.0 M-15.35 -69.45 L-16.2 -66.05 Q-16.8 -64.35 -18.9 -62.8 L-19.35 -62.75 -20.2 -63.2 Q-17.05 -68.55 -16.55 -68.95 L-15.35 -69.45 M-18.2 -63.9 Q-18.25 -64.35 -18.45 -64.5 L-18.65 -64.45 -18.3 -63.7 -18.25 -63.7 -18.2 -63.9 M-11.55 -49.35 Q-11.55 -49.95 -10.2 -50.1 L-8.05 -50.35 Q-8.5 -49.35 -10.95 -48.05 -13.5 -46.7 -15.05 -47.1 L-15.0 -46.4 Q-15.0 -45.65 -16.35 -44.65 -17.9 -43.5 -19.8 -43.7 L-20.3 -43.95 Q-20.65 -44.15 -20.65 -44.8 -20.65 -47.25 -16.1 -47.15 L-15.15 -47.15 -15.05 -47.15 Q-11.55 -47.35 -11.55 -49.35 M-22.45 -43.85 L-21.6 -43.2 Q-21.8 -43.1 -22.8 -43.7 L-22.45 -43.85 M-24.6 -16.85 L-25.05 -16.7 -24.55 -15.95 -24.45 -16.05 -24.6 -16.85 M-6.9 -12.05 L-14.3 -11.45 -15.6 -11.6 Q-13.15 -12.6 -12.05 -12.65 L-6.9 -12.05 M-8.7 -8.7 L-5.7 -7.55 -5.55 -7.05 -6.05 -6.75 -7.35 -7.0 Q-8.6 -7.4 -9.05 -8.5 -9.0 -8.7 -8.7 -8.7 M-10.9 0.45 L-10.5 0.7 -9.8 1.35 -13.15 1.55 Q-15.05 1.2 -15.8 -0.3 L-10.9 0.45 M-13.65 7.1 L-13.85 8.45 -18.9 4.7 Q-20.6 3.35 -21.3 3.35 -29.15 3.35 -30.45 5.45 -31.1 6.6 -30.25 8.4 L-30.7 8.85 -31.05 6.95 Q-31.05 4.15 -30.4 3.55 -29.1 2.35 -23.25 2.05 -23.2 1.9 -22.95 1.9 L-22.9 2.35 Q-19.85 2.05 -16.75 3.85 -13.8 5.55 -13.65 7.1 M-20.45 13.4 Q-19.9 13.45 -19.2 13.75 L-18.4 14.2 Q-18.8 14.75 -21.2 14.75 L-31.05 16.0 -32.7 15.95 -32.8 15.8 Q-32.95 15.65 -33.4 15.45 L-34.1 14.95 -31.25 14.35 -28.7 14.1 -26.35 13.8 -20.45 13.4 M-29.4 5.15 L-28.7 5.9 -28.75 6.0 -29.6 5.25 -29.4 5.15 M-25.0 62.35 L-26.4 68.05 Q-26.8 62.8 -23.75 51.45 -20.85 40.75 -21.35 38.6 -21.1 38.15 -21.0 39.0 L-20.0 34.1 Q-23.6 25.65 -23.6 24.1 -23.6 23.25 -22.95 22.4 -22.55 23.25 -21.65 27.1 -20.8 30.65 -20.1 31.75 L-19.9 32.0 Q-19.55 30.35 -19.65 25.4 L-18.85 29.2 Q-18.5 30.9 -18.5 31.5 L-19.7 40.6 Q-21.05 50.25 -21.7 53.45 L-21.6 48.2 -22.5 49.25 Q-22.9 50.1 -22.9 53.45 L-22.65 56.65 -23.1 57.9 Q-24.1 58.7 -25.0 62.35 M-24.45 65.55 Q-24.15 69.35 -24.55 70.4 L-24.9 70.55 -25.05 70.95 -25.25 71.05 -25.45 70.65 Q-25.7 70.45 -26.05 70.45 L-25.45 65.9 -25.1 66.0 -24.45 65.55 M-37.5 45.9 L-38.6 48.0 Q-39.2 48.8 -40.5 48.95 L-41.05 48.65 -39.65 47.3 -37.5 45.9" fill="#ffffff" fill-opacity="0.4" fill-rule="evenodd" stroke="none"/>
    <path d="M16.9 -77.6 L16.85 -77.65 19.55 -77.55 20.1 -77.6 22.4 -78.1 Q23.2 -78.05 23.2 -77.25 L22.9 -76.6 Q22.55 -76.35 21.5 -76.25 L19.3 -76.3 Q18.3 -76.3 17.6 -76.65 16.9 -77.05 16.9 -77.6 M20.35 -78.45 Q20.35 -78.1 19.85 -77.85 L18.6 -77.6 17.4 -77.85 Q16.85 -78.1 16.85 -78.45 16.85 -78.8 17.4 -79.05 L18.6 -79.3 19.85 -79.05 20.35 -78.45 M15.7 -57.35 L15.6 -57.65 19.75 -58.15 Q21.2 -58.15 21.6 -57.7 L22.2 -56.7 22.2 -56.45 21.5 -55.95 18.3 -56.3 Q16.55 -56.75 15.7 -57.35 M13.75 4.85 L13.65 5.8 13.3 6.2 Q13.1 6.2 13.0 5.8 12.85 5.4 12.85 4.85 12.85 4.3 13.0 3.9 13.1 3.5 13.3 3.5 L13.65 3.9 13.75 4.85 M-18.2 -63.9 L-18.25 -63.7 -18.3 -63.7 -18.65 -64.45 -18.45 -64.5 Q-18.25 -64.35 -18.2 -63.9 M-23.1 57.9 L-22.95 57.8 Q-23.25 62.65 -24.45 65.55 L-25.1 66.0 -25.45 65.9 -25.0 62.35 Q-24.1 58.7 -23.1 57.9 M-25.15 73.3 L-25.3 73.3 -25.1 77.9 Q-25.1 78.9 -25.25 78.65 L-25.75 79.3 -26.2 75.55 -26.5 72.2 -26.05 70.45 Q-25.7 70.45 -25.45 70.65 L-25.25 71.05 -25.15 71.3 Q-25.0 71.8 -25.0 72.45 -25.0 73.1 -25.15 73.3" fill="#ffffff" fill-rule="evenodd" stroke="none"/>
    <path d="M22.9 -76.6 L21.65 -75.85 Q20.25 -75.25 18.75 -75.0 L18.5 -75.0 16.9 -75.15 15.2 -75.65 Q17.45 -75.7 19.3 -76.3 L21.5 -76.25 Q22.55 -76.35 22.9 -76.6 M4.0 -56.7 Q5.5 -56.65 6.3 -56.2 L6.4 -56.05 1.05 -54.9 0.75 -55.0 0.65 -55.75 0.65 -55.8 Q0.65 -56.65 3.05 -56.7 L4.0 -56.7 M18.25 -55.8 L16.25 -56.3 Q14.45 -56.9 14.55 -57.4 L15.7 -57.35 Q16.55 -56.75 18.3 -56.3 L21.5 -55.95 19.7 -55.7 18.25 -55.8 M24.55 -56.05 L25.3 -55.35 25.2 -55.3 24.3 -55.95 24.55 -56.05 M-17.2 -24.2 L-17.35 -24.05 -18.5 -22.3 -19.8 -20.5 -19.9 -21.35 Q-19.9 -24.35 -18.6 -26.45 -17.3 -28.55 -15.45 -28.55 -14.75 -28.65 -13.2 -29.3 L-12.55 -28.65 -14.95 -26.7 Q-16.4 -25.55 -17.2 -24.2 M-21.9 -19.85 L-21.15 -19.8 -21.0 -19.6 Q-21.6 -18.9 -22.8 -18.3 L-22.5 -19.4 -21.9 -19.85 M3.25 -3.8 Q2.15 -3.8 1.4 -4.7 0.65 -5.65 0.65 -7.0 L1.05 -7.45 2.6 -6.4 4.15 -4.4 Q4.0 -3.95 3.25 -3.8 M-24.6 -16.85 L-24.45 -16.05 -24.55 -15.95 -25.05 -16.7 -24.6 -16.85 M-21.7 53.45 Q-21.75 56.8 -22.45 57.8 L-22.65 56.65 -22.9 53.45 Q-22.9 50.1 -22.5 49.25 L-21.6 48.2 -21.7 53.45 M-24.55 70.4 L-24.35 70.6 Q-24.15 70.95 -24.05 71.85 L-24.15 73.95 -24.6 74.35 -25.15 73.3 Q-25.0 73.1 -25.0 72.45 -25.0 71.8 -25.15 71.3 L-25.05 70.95 -24.9 70.55 -24.55 70.4 M-22.3 59.9 L-21.9 63.2 Q-21.9 64.45 -22.25 66.9 L-23.0 67.6 -23.45 67.75 -23.05 61.95 Q-22.9 60.45 -22.3 59.9" fill="#ffffff" fill-opacity="0.69803923" fill-rule="evenodd" stroke="none"/>
  </g>
</svg>
