<?xml version="1.0" encoding="UTF-8" standalone="no"?>
<svg xmlns:xlink="http://www.w3.org/1999/xlink" height="219.75px" width="307.4px" xmlns="http://www.w3.org/2000/svg">
  <g transform="matrix(1.0, 0.0, 0.0, 1.0, 158.75, 109.85)">
    <path d="M82.0 -99.2 Q123.65 -112.5 126.25 -69.05 119.05 24.6 9.45 76.3 -26.85 87.15 -121.3 7.6 -91.45 -13.25 -66.2 -21.5 -25.0 -35.05 -21.4 -44.05 L-11.15 -48.35 Q-6.45 -50.95 -4.2 -54.05 24.9 -93.6 82.0 -99.2 M-21.4 -44.05 Q-15.3 -46.0 -11.15 -48.35 -15.3 -46.0 -21.4 -44.05" fill="#f4ccc1" fill-rule="evenodd" stroke="none"/>
    <path d="M82.0 -99.2 Q117.35 -124.0 141.5 -87.55 155.65 -66.95 139.25 -39.75 L129.55 -15.9 Q106.1 38.75 54.5 80.5 31.7 99.2 3.1 109.3 -120.05 110.25 -158.05 24.7 -118.9 -23.75 -36.55 -40.3 -27.9 -41.95 -21.4 -44.05 -25.0 -35.05 -66.2 -21.5 -91.45 -13.25 -121.3 7.6 -26.85 87.15 9.45 76.3 119.05 24.6 126.25 -69.05 123.65 -112.5 82.0 -99.2" fill="#deaea9" fill-rule="evenodd" stroke="none"/>
    <path d="M-21.4 -44.05 Q-27.9 -41.95 -36.55 -40.3 -118.9 -23.75 -158.05 24.7 -120.05 110.25 3.1 109.3 31.7 99.2 54.5 80.5 106.1 38.75 129.55 -15.9 L139.25 -39.75 Q155.65 -66.95 141.5 -87.55 117.35 -124.0 82.0 -99.2 24.9 -93.6 -4.2 -54.05 -6.45 -50.95 -11.15 -48.35 -15.3 -46.0 -21.4 -44.05 Z" fill="none" stroke="#574a3a" stroke-linecap="round" stroke-linejoin="miter-clip" stroke-miterlimit="3.0" stroke-width="1.2000000000000002"/>
  </g>
</svg>
