<?xml version="1.0" encoding="UTF-8" standalone="no"?>
<svg xmlns:xlink="http://www.w3.org/1999/xlink" height="270.3px" width="145.35px" xmlns="http://www.w3.org/2000/svg">
  <g transform="matrix(1.0, 0.0, 0.0, 1.0, 72.65, 135.15)">
    <path d="M-55.0 -134.55 Q-46.6 -125.0 -40.65 -120.25 -34.7 -115.5 -29.45 -112.75 -24.3 -110.0 -22.0 -105.7 -19.7 -101.35 -19.65 -95.9 -11.3 -68.75 21.75 -17.2 54.75 34.3 72.1 120.35 L24.45 127.45 Q-4.65 75.45 -39.35 -84.05 -44.15 -92.9 -67.7 -92.5 L-55.0 -134.55" fill="#f4ccc1" fill-rule="evenodd" stroke="none"/>
    <path d="M-67.7 -92.5 Q-44.15 -92.9 -39.35 -84.05 -4.65 75.45 24.45 127.45 L-23.15 134.55 Q-47.45 20.4 -51.55 -25.6 -55.2 -66.0 -72.05 -78.2 L-67.7 -92.5" fill="#deaea9" fill-rule="evenodd" stroke="none"/>
    <path d="M24.45 127.45 L72.1 120.35 Q54.75 34.3 21.75 -17.2 -11.3 -68.75 -19.65 -95.9 -19.7 -101.35 -22.0 -105.7 -24.3 -110.0 -29.45 -112.75 -34.7 -115.5 -40.65 -120.25 -46.6 -125.0 -55.0 -134.55 M24.45 127.45 L-23.15 134.55 Q-47.45 20.4 -51.55 -25.6 -55.2 -66.0 -72.05 -78.2" fill="none" stroke="#574a3a" stroke-linecap="round" stroke-linejoin="round" stroke-width="1.2000000000000002"/>
  </g>
</svg>
