<?xml version="1.0" encoding="UTF-8" standalone="no"?>
<svg xmlns:xlink="http://www.w3.org/1999/xlink" height="200.45px" width="179.8px" xmlns="http://www.w3.org/2000/svg">
  <g transform="matrix(1.0, 0.0, 0.0, 1.0, 94.75, 95.4)">
    <path d="M33.65 73.4 L-44.45 104.45 Q-98.0 37.45 -93.85 -82.35 L-58.75 -90.1 Q-49.75 -93.55 -40.7 -94.45 -23.2 -91.1 -2.05 -44.3 41.9 50.15 33.65 73.4" fill="#f4ccc1" fill-rule="evenodd" stroke="none"/>
    <path d="M-40.7 -94.45 Q-22.45 -96.4 -4.05 -88.15 15.0 -72.25 27.45 -46.35 L27.55 -46.25 Q67.8 -5.2 84.45 53.15 L33.65 73.4 Q41.9 50.15 -2.05 -44.3 -23.2 -91.1 -40.7 -94.45 M27.45 -46.35 Q14.75 -59.3 11.15 -61.6 14.75 -59.3 27.45 -46.35" fill="#deaea9" fill-rule="evenodd" stroke="none"/>
    <path d="M-40.7 -94.45 Q-22.45 -96.4 -4.05 -88.15 15.0 -72.25 27.45 -46.35 L27.55 -46.25 Q67.8 -5.2 84.45 53.15 M-44.45 104.45 Q-98.0 37.45 -93.85 -82.35 M-58.75 -90.1 Q-49.75 -93.55 -40.7 -94.45 M11.15 -61.6 Q14.75 -59.3 27.45 -46.35" fill="none" stroke="#574a3a" stroke-linecap="round" stroke-linejoin="miter-clip" stroke-miterlimit="3.0" stroke-width="1.2000000000000002"/>
  </g>
</svg>
