<?xml version="1.0" encoding="UTF-8" standalone="no"?>
<svg xmlns:xlink="http://www.w3.org/1999/xlink" height="186.05px" width="83.85px" xmlns="http://www.w3.org/2000/svg">
  <g transform="matrix(1.0, 0.0, 0.0, 1.0, 41.95, 93.35)">
    <path d="M2.65 -50.8 Q17.15 -67.7 39.75 -80.35 34.35 -43.05 20.75 -15.25 L24.1 24.45 Q21.75 48.9 9.5 65.0 -28.8 77.8 -29.3 77.0 -34.55 76.2 -27.65 62.35 -24.8 50.4 -24.7 36.1 -24.8 30.3 -24.35 24.35 L-15.15 14.75 -20.85 1.3 Q-19.1 -6.7 -16.4 -14.95 L-15.15 -14.65 Q-10.95 -15.2 -13.05 -21.0 L-14.0 -22.05 -9.95 -32.55 Q-6.25 -39.35 -1.5 -45.6 L3.35 -48.3 2.65 -50.8 M-5.85 -58.2 L-3.8 -51.7 -19.35 -42.0 -19.75 -42.2 -19.7 -42.25 -19.35 -42.85 Q-14.0 -50.35 -5.85 -58.2" fill="#72567e" fill-opacity="0.99607843" fill-rule="evenodd" stroke="none"/>
    <path d="M2.65 -50.8 L3.35 -48.3 -1.5 -45.6 2.65 -50.8 M-14.0 -22.05 L-13.05 -21.0 Q-10.95 -15.2 -15.15 -14.65 L-16.4 -14.95 -14.0 -22.05 M-20.85 1.3 L-15.15 14.75 -24.35 24.35 Q-23.55 13.1 -20.85 1.3" fill="#f4d05f" fill-opacity="0.99607843" fill-rule="evenodd" stroke="none"/>
    <path d="M39.75 -80.35 Q17.15 -67.7 2.65 -50.8 L-0.7 -62.95 -0.5 -63.1 Q15.75 -77.4 41.3 -92.75 L40.1 -82.85 39.75 -80.35 M-1.5 -45.6 Q-6.25 -39.35 -9.95 -32.55 L-14.0 -22.05 Q-15.35 -23.45 -16.65 -23.8 -19.4 -24.6 -21.9 -21.0 -22.75 -17.75 -18.85 -15.9 L-16.4 -14.95 Q-19.1 -6.7 -20.85 1.3 L-29.45 -18.9 -29.85 -19.1 Q-27.35 -27.05 -24.4 -33.4 L-24.0 -33.15 -1.5 -45.6 M-24.35 24.35 Q-24.8 30.3 -24.7 36.1 -24.8 50.4 -27.65 62.35 -34.55 76.2 -29.3 77.0 -28.8 77.8 9.5 65.0 -20.8 101.95 -41.35 88.5 L-39.4 40.0 -24.35 24.35 M-34.9 0.35 L-26.9 15.2 -38.8 24.9 -38.7 21.5 Q-37.0 10.15 -34.9 0.35" fill="#634b6c" fill-rule="evenodd" stroke="none"/>
    <path d="M-0.7 -62.95 L2.65 -50.8 -1.5 -45.6 -24.0 -33.15 -24.4 -33.4 Q-22.2 -38.3 -19.75 -42.2 L-19.35 -42.0 -3.8 -51.7 -5.85 -58.2 -0.7 -62.95 M-29.45 -18.9 L-20.85 1.3 Q-23.55 13.1 -24.35 24.35 L-39.4 40.0 -38.8 24.9 -26.9 15.2 -34.9 0.35 Q-32.65 -10.3 -29.85 -19.0 L-29.45 -18.9 M-16.4 -14.95 L-18.85 -15.9 Q-22.75 -17.75 -21.9 -21.0 -19.4 -24.6 -16.65 -23.8 -15.35 -23.45 -14.0 -22.05 L-16.4 -14.95" fill="#c3a04b" fill-rule="evenodd" stroke="none"/>
    <path d="M2.65 -50.8 L3.35 -48.3 -1.5 -45.6 -24.0 -33.15 M-14.0 -22.05 L-13.05 -21.0 Q-10.95 -15.2 -15.15 -14.65 L-16.4 -14.95 -18.85 -15.9 Q-22.75 -17.75 -21.9 -21.0 -19.4 -24.6 -16.65 -23.8 -15.35 -23.45 -14.0 -22.05 M-20.85 1.3 L-15.15 14.75 -24.35 24.35 -39.4 40.0 -38.8 24.9 -26.9 15.2 -34.9 0.35 Q-37.0 10.15 -38.7 21.5 L-38.8 24.9 M41.3 -92.75 Q15.75 -77.4 -0.5 -63.1 L-0.7 -62.95 2.65 -50.8 M-24.4 -33.4 Q-27.35 -27.05 -29.85 -19.1 L-29.85 -19.0 Q-32.65 -10.3 -34.9 0.35 M-29.45 -18.9 L-20.85 1.3 M-41.35 88.5 Q-20.8 101.95 9.5 65.0 M-19.35 -42.0 L-3.8 -51.7 -5.85 -58.2 Q-14.0 -50.35 -19.35 -42.85 L-19.7 -42.25 -19.75 -42.2 Q-22.2 -38.3 -24.4 -33.4 M-0.7 -62.95 L-5.85 -58.2" fill="none" stroke="#3f274c" stroke-linecap="round" stroke-linejoin="miter-clip" stroke-miterlimit="3.0" stroke-width="1.2000000000000002"/>
    <path d="M9.5 65.0 Q21.75 48.9 24.1 24.45 L20.75 -15.25" fill="none" stroke="#3f274c" stroke-linecap="round" stroke-linejoin="round" stroke-width="1.2000000000000002"/>
  </g>
</svg>
