<?xml version="1.0" encoding="UTF-8" standalone="no"?>
<svg xmlns:xlink="http://www.w3.org/1999/xlink" height="179.2px" width="173.4px" xmlns="http://www.w3.org/2000/svg">
  <g transform="matrix(1.0, 0.0, 0.0, 1.0, 86.7, 89.55)">
    <path d="M9.7 -87.8 L12.35 -88.25 14.85 -88.6 21.75 -88.95 Q41.0 -88.55 44.65 -70.25 46.9 -58.8 43.0 -40.3 42.05 -34.2 38.6 -29.35 19.35 -13.15 -2.65 -0.25 -21.9 11.65 -42.55 17.05 -33.3 20.7 -23.25 20.8 -9.2 21.15 2.3 17.2 18.75 26.35 37.8 33.35 11.2 24.5 7.3 27.95 15.55 31.95 17.65 37.7 9.5 35.1 0.55 37.7 -38.3 29.45 -70.15 14.05 -72.1 12.55 -74.25 11.45 -77.0 9.3 -77.8 7.15 -46.5 -6.3 -40.05 -13.2 -37.85 -15.55 -38.5 -17.15 -27.75 -42.35 -18.75 -58.45 -7.45 -75.7 9.65 -87.8 L9.7 -87.8 M16.6 -47.6 L19.5 -48.0 Q22.55 -48.55 25.35 -49.4 33.1 -51.85 39.0 -56.95 L39.6 -57.45 39.3 -57.9 Q35.9 -62.85 31.65 -66.5 L28.8 -68.7 28.45 -68.95 Q24.45 -71.65 19.75 -73.4 L17.4 -74.2 16.9 -73.15 Q12.35 -62.5 14.65 -53.05 15.4 -50.3 16.6 -47.6 M30.7 -57.1 Q28.9 -55.2 26.35 -54.35 24.65 -53.8 22.55 -53.7 19.75 -59.0 20.1 -66.2 24.25 -64.45 27.35 -61.25 L30.7 -57.1 M-11.7 -25.45 Q-5.6 -24.4 1.7 -30.95 3.2 -34.1 0.55 -35.15 -3.75 -36.95 -10.4 -32.25 -12.6 -30.45 -11.7 -25.45 M-26.1 3.95 L-26.8 3.85 Q-28.45 2.7 -31.6 -6.05 L-26.75 -12.6 -26.0 -12.15 Q-21.95 -9.6 -18.05 -4.65 -20.6 -0.25 -26.1 3.95 M-28.0 8.1 Q-16.7 5.55 -13.8 -4.1 -17.45 -12.45 -25.9 -16.9 L-28.2 -14.9 Q-32.25 -10.8 -34.1 -4.65 -33.6 1.75 -30.55 5.65 L-28.0 8.1" fill="#72567e" fill-opacity="0.99607843" fill-rule="evenodd" stroke="none"/>
    <path d="M-18.75 -58.45 Q-4.2 -84.6 5.7 -86.95 L6.7 -87.2 8.95 -87.65 9.7 -87.8 9.65 -87.8 Q-7.45 -75.7 -18.75 -58.45" fill="#8a6f90" fill-rule="evenodd" stroke="none"/>
    <path d="M30.7 -57.1 L27.35 -61.25 Q24.25 -64.45 20.1 -66.2 19.75 -59.0 22.55 -53.7 24.65 -53.8 26.35 -54.35 28.9 -55.2 30.7 -57.1 M16.6 -47.6 Q15.4 -50.3 14.65 -53.05 12.35 -62.5 16.9 -73.15 L17.4 -74.2 19.75 -73.4 Q24.45 -71.65 28.45 -68.95 L28.8 -68.7 31.65 -66.5 Q35.9 -62.85 39.3 -57.9 L39.6 -57.45 39.0 -56.95 Q33.1 -51.85 25.35 -49.4 22.55 -48.55 19.5 -48.0 L16.6 -47.6 M-11.7 -25.45 Q-12.6 -30.45 -10.4 -32.25 -3.75 -36.95 0.55 -35.15 3.2 -34.1 1.7 -30.95 -5.6 -24.4 -11.7 -25.45 M-26.1 3.95 Q-20.6 -0.25 -18.05 -4.65 -21.95 -9.6 -26.0 -12.15 L-26.75 -12.6 -31.6 -6.05 Q-28.45 2.7 -26.8 3.85 L-26.1 3.95 M-28.0 8.1 L-30.55 5.65 Q-33.6 1.75 -34.1 -4.65 -32.25 -10.8 -28.2 -14.9 L-25.9 -16.9 Q-17.45 -12.45 -13.8 -4.1 -16.7 5.55 -28.0 8.1" fill="#ead852" fill-rule="evenodd" stroke="none"/>
    <path d="M38.6 -29.35 L35.5 -25.8 Q23.35 -13.05 -9.0 10.5 L2.3 17.2 Q-9.2 21.15 -23.25 20.8 -33.3 20.7 -42.55 17.05 -21.9 11.65 -2.65 -0.25 19.35 -13.15 38.6 -29.35 M11.9 49.9 Q1.05 43.85 -80.1 21.45 -76.65 18.7 -72.8 20.6 L-86.1 8.5 Q-79.7 8.65 -74.25 11.45 -72.1 12.55 -70.15 14.05 -38.3 29.45 0.55 37.7 L11.9 49.9" fill="#634b6c" fill-rule="evenodd" stroke="none"/>
    <path d="M37.8 33.35 L41.4 34.6 42.8 35.3 Q75.5 45.5 78.5 52.45 81.8 60.8 83.7 66.9 83.8 76.45 81.3 76.05 81.85 79.35 81.55 82.0 72.9 87.15 66.95 81.95 68.4 80.45 69.65 77.9 65.85 80.0 62.05 77.65 53.8 69.4 48.05 56.65 44.0 50.3 38.75 48.2 L0.55 37.7 Q9.5 35.1 17.65 37.7 15.55 31.95 7.3 27.95 11.2 24.5 37.8 33.35" fill="#f4d05f" fill-opacity="0.99607843" fill-rule="evenodd" stroke="none"/>
    <path d="M83.7 66.9 Q87.7 80.15 85.0 82.95 82.25 86.2 79.1 87.75 70.55 91.85 59.1 82.95 53.2 78.6 44.05 58.2 46.2 54.05 11.9 49.9 L0.55 37.7 38.75 48.2 Q44.0 50.3 48.05 56.65 53.8 69.4 62.05 77.65 65.85 80.0 69.65 77.9 68.4 80.45 66.95 81.95 72.9 87.15 81.55 82.0 81.85 79.35 81.3 76.05 83.8 76.45 83.7 66.9" fill="#ba9848" fill-opacity="0.99607843" fill-rule="evenodd" stroke="none"/>
    <path d="M16.6 -47.6 L19.5 -48.0 Q22.55 -48.55 25.35 -49.4 33.1 -51.85 39.0 -56.95 L39.6 -57.45 39.3 -57.9 Q35.9 -62.85 31.65 -66.5 L28.8 -68.7 28.45 -68.95 Q24.45 -71.65 19.75 -73.4 L17.4 -74.2 16.9 -73.15 Q12.35 -62.5 14.65 -53.05 15.4 -50.3 16.6 -47.6 M30.7 -57.1 Q28.9 -55.2 26.35 -54.35 24.65 -53.8 22.55 -53.7 19.75 -59.0 20.1 -66.2 24.25 -64.45 27.35 -61.25 L30.7 -57.1 M-11.7 -25.45 Q-12.6 -30.45 -10.4 -32.25 -3.75 -36.95 0.55 -35.15 3.2 -34.1 1.7 -30.95 -5.6 -24.4 -11.7 -25.45 M-26.1 3.95 L-26.8 3.85 Q-28.45 2.7 -31.6 -6.05 L-26.75 -12.6 -26.0 -12.15 Q-21.95 -9.6 -18.05 -4.65 -20.6 -0.25 -26.1 3.95 M-28.0 8.1 L-30.55 5.65 Q-33.6 1.75 -34.1 -4.65 -32.25 -10.8 -28.2 -14.9 L-25.9 -16.9 Q-17.45 -12.45 -13.8 -4.1 -16.7 5.55 -28.0 8.1" fill="none" stroke="#756c29" stroke-linecap="round" stroke-linejoin="miter-clip" stroke-miterlimit="3.0" stroke-width="1.2000000000000002"/>
    <path d="M21.75 -88.95 Q41.0 -88.55 44.65 -70.25 46.9 -58.8 43.0 -40.3 42.05 -34.2 38.6 -29.35 L35.5 -25.8 Q23.35 -13.05 -9.0 10.5 L2.3 17.2 Q18.75 26.35 37.8 33.35 L41.4 34.6 42.8 35.3 Q75.5 45.5 78.5 52.45 81.8 60.8 83.7 66.9 87.7 80.15 85.0 82.95 82.25 86.2 79.1 87.75 70.55 91.85 59.1 82.95 53.2 78.6 44.05 58.2 46.2 54.05 11.9 49.9 1.05 43.85 -80.1 21.45 -76.65 18.7 -72.8 20.6 L-86.1 8.5 Q-79.7 8.65 -74.25 11.45 -77.0 9.3 -77.8 7.15 -46.5 -6.3 -40.05 -13.2 M0.55 37.7 L11.9 49.9 M0.55 37.7 Q9.5 35.1 17.65 37.7 15.55 31.95 7.3 27.95 11.2 24.5 37.8 33.35" fill="none" stroke="#3f274c" stroke-linecap="round" stroke-linejoin="miter-clip" stroke-miterlimit="4.0" stroke-width="1.2000000000000002"/>
    <path d="M-9.25 9.95 Q-8.7 9.7 -8.45 10.2 -8.2 10.75 -8.7 11.0 L-12.3 12.55 -20.65 14.55 -32.9 15.95 -33.0 15.9 -32.95 15.8 -27.25 15.05 -20.75 13.85 -11.25 11.0 -9.25 9.95 M-38.55 -17.1 L-38.5 -17.2 -38.4 -17.15 -38.3 -17.0 -38.3 -16.95 -38.25 -16.9 -38.2 -16.75 -38.2 -16.6 -38.15 -16.45 -38.15 -15.65 -38.2 -15.55 -38.2 -15.45 -38.55 -14.4 -38.75 -14.0 -38.85 -13.85 -38.95 -13.65 -39.6 -12.75 -39.7 -12.65 -40.55 -12.7 Q-40.85 -13.2 -40.45 -13.6 L-40.3 -13.7 -39.35 -14.65 -38.8 -15.45 -38.75 -15.65 -38.7 -15.7 -38.65 -15.8 -38.65 -15.9 -38.6 -15.95 -38.5 -16.3 -38.5 -16.9 -38.55 -16.9 -38.55 -17.1 M67.3 67.75 L67.3 67.6 67.45 67.6 68.65 69.55 69.35 70.95 70.05 72.7 70.3 73.65 70.45 74.75 Q70.55 76.1 70.3 77.0 L70.0 77.85 69.9 78.0 69.85 78.15 69.35 79.15 68.1 81.15 67.4 82.05 66.55 82.85 64.7 84.0 62.75 84.4 61.85 84.4 61.45 84.35 59.8 83.9 59.6 83.8 59.35 83.75 58.8 83.45 58.75 83.45 58.5 83.1 Q58.4 82.85 58.55 82.65 58.8 82.15 59.35 82.4 L59.6 82.5 60.25 82.85 61.45 83.25 61.6 83.25 62.7 83.35 64.35 83.1 66.0 82.15 66.4 81.85 66.7 81.55 66.75 81.45 67.5 80.65 68.75 78.85 69.3 77.85 69.35 77.7 69.7 76.85 69.95 74.8 69.65 72.8 68.4 69.65 67.45 67.95 67.3 67.75 M74.25 57.6 L74.25 57.45 74.4 57.45 75.0 58.05 75.3 58.55 75.5 58.75 75.6 59.0 76.75 61.3 78.1 65.0 78.25 65.55 80.6 71.65 81.2 73.8 81.25 74.15 81.6 75.55 81.65 75.95 81.75 76.3 82.0 78.1 82.1 81.1 82.05 81.85 82.0 82.0 82.0 82.4 81.95 82.5 81.95 82.6 81.75 83.7 81.15 85.5 Q80.55 86.95 79.55 88.1 L79.5 88.15 78.65 88.2 Q78.25 87.8 78.6 87.35 79.6 86.3 80.1 85.05 L80.7 83.45 80.8 83.1 80.85 82.75 80.95 82.4 80.95 82.25 81.05 81.9 81.1 78.2 80.95 76.8 80.1 72.55 77.3 64.1 77.0 63.0 75.55 59.4 74.95 58.45 74.9 58.3 74.8 58.2 74.75 58.1 74.25 57.6 M5.7 -86.85 Q5.6 -86.75 5.6 -86.9 L5.65 -87.0 5.9 -87.1 6.15 -87.15 8.9 -87.8 8.85 -87.8 9.6 -88.0 9.65 -88.0 11.1 -88.35 14.85 -88.95 15.25 -89.05 18.3 -89.4 18.65 -89.4 19.45 -89.45 21.8 -89.5 Q22.35 -89.5 22.35 -88.9 22.35 -88.3 21.7 -88.3 L21.7 -88.35 16.45 -88.35 15.7 -88.25 15.35 -88.25 12.7 -87.95 12.45 -87.95 12.4 -87.9 11.95 -87.9 9.7 -87.55 9.65 -87.55 9.0 -87.45 8.95 -87.45 6.2 -86.95 5.95 -86.85 5.7 -86.85" fill="#3f274c" fill-rule="evenodd" stroke="none"/>
  </g>
</svg>
