<?xml version="1.0" encoding="UTF-8" standalone="no"?>
<svg xmlns:xlink="http://www.w3.org/1999/xlink" height="118.1px" width="77.45px" xmlns="http://www.w3.org/2000/svg">
  <g transform="matrix(1.0, 0.0, 0.0, 1.0, 38.45, 59.05)">
    <path d="M27.3 -58.4 Q28.0 -56.3 24.5 -56.4 21.2 -56.45 17.25 -51.8 0.45 -26.15 -23.75 -7.05 -23.0 -9.75 -21.9 -12.1 -0.95 -33.0 13.45 -50.8 20.4 -59.05 27.3 -58.4 M18.0 -0.95 Q20.65 -7.95 25.45 -19.65 L37.65 -42.0 Q41.15 -29.45 28.0 -13.4 L27.55 -12.9 Q22.65 -7.15 18.0 -0.95" fill="#c3a04b" fill-rule="evenodd" stroke="none"/>
    <path d="M-23.75 -7.05 Q0.45 -26.15 17.25 -51.8 21.2 -56.45 24.5 -56.4 28.0 -56.3 27.3 -58.4 35.45 -50.55 37.65 -42.0 L25.45 -19.65 Q20.65 -7.95 18.0 -0.95 10.1 9.45 2.9 21.1 -4.85 24.6 -13.9 26.55 L-14.3 26.5 Q-12.7 11.3 -7.6 -0.35 -17.7 1.5 -25.7 8.05 -25.75 -0.4 -23.75 -7.05" fill="#f4d05f" fill-opacity="0.99607843" fill-rule="evenodd" stroke="none"/>
    <path d="M-21.9 -12.1 Q-23.0 -9.75 -23.75 -7.05 -25.75 -0.4 -25.7 8.05 -17.7 1.5 -7.6 -0.35 -12.7 11.3 -14.3 26.5 L-13.9 26.55 Q-4.85 24.6 2.9 21.1 -2.55 30.85 -7.1 38.1 -26.55 49.6 -37.7 42.75 -39.85 31.15 -35.75 11.45 L-35.6 10.9 -31.05 -0.8 -29.25 -4.05 -29.2 -4.05 Q-26.05 -9.05 -21.9 -12.1" fill="#72567e" fill-opacity="0.99607843" fill-rule="evenodd" stroke="none"/>
    <path d="M-37.7 42.75 Q-26.55 49.6 -7.1 38.1 -21.6 61.2 -26.5 58.1 -35.45 54.8 -37.7 42.75" fill="#634b6c" fill-rule="evenodd" stroke="none"/>
    <path d="M27.3 -58.4 Q20.4 -59.05 13.45 -50.8 -0.95 -33.0 -21.9 -12.1 -23.0 -9.75 -23.75 -7.05 -25.75 -0.4 -25.7 8.05 -17.7 1.5 -7.6 -0.35 -12.7 11.3 -14.3 26.5 M-13.9 26.55 Q-4.85 24.6 2.9 21.1 10.1 9.45 18.0 -0.95 22.65 -7.15 27.55 -12.9 M-29.2 -4.05 Q-26.05 -9.05 -21.9 -12.1 M-26.5 58.1 Q-21.6 61.2 -7.1 38.1 -2.55 30.85 2.9 21.1" fill="none" stroke="#3f274c" stroke-linecap="round" stroke-linejoin="miter-clip" stroke-miterlimit="3.0" stroke-width="1.2000000000000002"/>
    <path d="M37.65 -42.0 Q41.15 -29.45 28.0 -13.4" fill="none" stroke="#3f274c" stroke-linecap="round" stroke-linejoin="round" stroke-width="1.2000000000000002"/>
    <path d="M-35.65 11.45 Q-35.65 11.6 -35.75 11.5 L-35.8 11.4 -35.8 11.25 -35.75 11.1 -35.7 10.85 -31.5 -0.95 -31.45 -1.0 -29.75 -4.35 -29.7 -4.4 Q-29.4 -4.85 -28.9 -4.55 -28.45 -4.25 -28.7 -3.7 L-30.6 -0.55 -30.55 -0.6 -35.45 10.9 -35.55 11.2 -35.6 11.3 -35.65 11.45" fill="#3f274c" fill-rule="evenodd" stroke="none"/>
  </g>
</svg>
