<?xml version="1.0" encoding="UTF-8" standalone="no"?>
<svg xmlns:xlink="http://www.w3.org/1999/xlink" height="146.0px" width="287.1px" xmlns="http://www.w3.org/2000/svg">
  <g transform="matrix(1.0, 0.0, 0.0, 1.0, 145.15, 72.35)">
    <path d="M-92.3 -52.45 Q-99.85 -45.1 -102.75 -35.45 -104.8 -28.5 -104.4 -20.4 -75.2 -30.3 -69.2 -48.65 -74.75 -53.1 -82.55 -53.4 -87.05 -53.65 -92.3 -52.45 M-90.5 -48.2 Q-81.6 -50.15 -77.8 -47.25 L-76.65 -46.15 Q-86.85 -30.55 -100.4 -25.9 -99.9 -31.25 -97.85 -36.3 -95.35 -42.5 -90.5 -48.2 M-52.9 -66.8 Q-41.25 -61.9 -29.6 -54.9 L-28.25 -54.05 Q-22.8 -50.8 -18.05 -47.35 L-15.3 -45.35 -8.0 -39.4 -3.0 -34.65 Q13.0 -18.3 15.6 0.65 L19.1 23.65 Q14.9 53.9 -5.65 30.9 -10.35 23.9 -18.8 22.75 -23.65 33.95 -36.25 42.1 -33.55 36.65 -36.25 30.5 -41.05 28.6 -45.0 36.65 -62.8 21.9 -76.7 4.95 -86.75 -8.45 -109.35 -10.0 -123.55 -5.85 -142.6 6.35 -139.75 4.05 -140.0 1.1 -134.7 -66.05 -86.6 -72.3 L-79.65 -72.25 Q-61.9 -67.55 -40.85 -55.1 -44.15 -61.85 -52.9 -66.8 M-45.55 -26.5 Q-45.1 -30.35 -48.15 -30.75 -54.6 -27.9 -59.75 -20.15 -58.0 -15.05 -52.2 -12.75 -47.4 -18.05 -45.55 -26.5" fill="#72567e" fill-opacity="0.99607843" fill-rule="evenodd" stroke="none"/>
    <path d="M-92.3 -52.45 Q-87.05 -53.65 -82.55 -53.4 -74.75 -53.1 -69.2 -48.65 -75.2 -30.3 -104.4 -20.4 -104.8 -28.5 -102.75 -35.45 -99.85 -45.1 -92.3 -52.45 M-90.5 -48.2 Q-95.35 -42.5 -97.85 -36.3 -99.9 -31.25 -100.4 -25.9 -86.85 -30.55 -76.65 -46.15 L-77.8 -47.25 Q-81.6 -50.15 -90.5 -48.2 M-45.55 -26.5 Q-47.4 -18.05 -52.2 -12.75 -58.0 -15.05 -59.75 -20.15 -54.6 -27.9 -48.15 -30.75 -45.1 -30.35 -45.55 -26.5" fill="#ead852" fill-rule="evenodd" stroke="none"/>
    <path d="M-79.65 -72.25 Q-67.5 -71.55 -52.9 -66.8 -44.15 -61.85 -40.85 -55.1 -61.9 -67.55 -79.65 -72.25" fill="#8a6f90" fill-rule="evenodd" stroke="none"/>
    <path d="M19.1 23.65 Q22.4 30.75 23.35 34.85 24.55 37.4 27.5 37.3 69.0 37.95 94.6 40.8 L97.6 41.05 109.35 42.55 Q121.5 44.55 130.35 48.3 132.65 50.15 128.2 51.25 133.9 52.95 138.35 56.4 139.85 62.15 130.2 63.6 L125.2 62.8 93.5 61.95 Q73.95 62.85 46.5 55.05 2.4 58.15 -36.25 42.1 -23.65 33.95 -18.8 22.75 -10.35 23.9 -5.65 30.9 14.9 53.9 19.1 23.65 M-45.0 36.65 Q-41.05 28.6 -36.25 30.5 -33.55 36.65 -36.25 42.1 L-45.0 36.65" fill="#f4d05f" fill-opacity="0.99607843" fill-rule="evenodd" stroke="none"/>
    <path d="M-48.25 45.2 Q-60.9 36.85 -69.3 27.45 -79.2 17.8 -92.85 11.85 -118.5 3.2 -144.55 7.1 -143.6 6.95 -142.6 6.35 -123.55 -5.85 -109.35 -10.0 -86.75 -8.45 -76.7 4.95 -62.8 21.9 -45.0 36.65 -46.7 40.05 -48.25 45.2" fill="#634b6c" fill-rule="evenodd" stroke="none"/>
    <path d="M130.35 48.3 Q132.35 49.15 134.2 50.1 139.6 52.9 138.35 56.4 L140.15 57.4 Q141.9 58.4 141.1 62.75 140.25 67.05 136.0 68.1 133.9 70.25 130.65 71.55 L125.15 72.1 100.5 71.0 100.0 70.9 94.6 69.9 Q69.2 72.2 46.8 64.75 -24.9 63.3 -48.25 45.2 -46.7 40.05 -45.0 36.65 L-36.25 42.1 Q2.4 58.15 46.5 55.05 73.95 62.85 93.5 61.95 L125.2 62.8 130.2 63.6 Q139.85 62.15 138.35 56.4 133.9 52.95 128.2 51.25 132.65 50.15 130.35 48.3" fill="#ba9848" fill-opacity="0.99607843" fill-rule="evenodd" stroke="none"/>
    <path d="M125.15 72.1 Q113.05 74.4 100.5 71.0 L125.15 72.1" fill="#e46473" fill-rule="evenodd" stroke="none"/>
    <path d="M-92.3 -52.45 Q-87.05 -53.65 -82.55 -53.4 -74.75 -53.1 -69.2 -48.65 -75.2 -30.3 -104.4 -20.4 -104.8 -28.5 -102.75 -35.45 -99.85 -45.1 -92.3 -52.45 M-90.5 -48.2 Q-81.6 -50.15 -77.8 -47.25 L-76.65 -46.15 Q-86.85 -30.55 -100.4 -25.9 -99.9 -31.25 -97.85 -36.3 -95.35 -42.5 -90.5 -48.2 M-45.55 -26.5 Q-45.1 -30.35 -48.15 -30.75 -54.6 -27.9 -59.75 -20.15 -58.0 -15.05 -52.2 -12.75 -47.4 -18.05 -45.55 -26.5" fill="none" stroke="#756c29" stroke-linecap="round" stroke-linejoin="round" stroke-width="1.2000000000000002"/>
    <path d="M-28.25 -54.05 Q-22.8 -50.8 -18.05 -47.35 L-15.3 -45.35 -8.0 -39.4 -3.0 -34.65 Q13.0 -18.3 15.6 0.65 L19.1 23.65 Q22.4 30.75 23.35 34.85 24.55 37.4 27.5 37.3 69.0 37.95 94.6 40.8 L97.6 41.05 109.35 42.55 Q121.5 44.55 130.35 48.3 132.35 49.15 134.2 50.1 M136.0 68.1 Q133.9 70.25 130.65 71.55 L125.15 72.1 Q113.05 74.4 100.5 71.0 M100.0 70.9 L94.6 69.9 Q69.2 72.2 46.8 64.75 -24.9 63.3 -48.25 45.2 -60.9 36.85 -69.3 27.45 -79.2 17.8 -92.85 11.85 -118.5 3.2 -144.55 7.1 M19.1 23.65 Q14.9 53.9 -5.65 30.9 -10.35 23.9 -18.8 22.75 -23.65 33.95 -36.25 42.1 -33.55 36.65 -36.25 30.5 -41.05 28.6 -45.0 36.65 -46.7 40.05 -48.25 45.2" fill="none" stroke="#3f274c" stroke-linecap="round" stroke-linejoin="miter-clip" stroke-miterlimit="3.0" stroke-width="1.2000000000000002"/>
    <path d="M134.2 50.1 Q139.6 52.9 138.35 56.4 L140.15 57.4 Q141.9 58.4 141.1 62.75 140.25 67.05 136.0 68.1 M100.5 71.0 L100.0 70.9 M125.15 72.1 L100.5 71.0" fill="none" stroke="#3f274c" stroke-linecap="round" stroke-linejoin="round" stroke-width="1.2000000000000002"/>
    <path d="M136.55 67.85 L136.55 67.9 Q136.75 68.45 136.2 68.65 135.65 68.8 135.4 68.3 L135.3 68.0 135.3 67.9 135.0 67.3 134.95 67.25 134.9 67.15 134.6 66.7 134.55 66.6 134.45 66.55 134.3 66.35 134.0 66.05 133.85 65.85 133.45 65.55 133.35 65.45 133.25 65.4 132.1 64.7 132.05 64.65 131.65 64.5 131.55 64.4 130.2 63.9 126.35 63.0 125.3 62.9 125.15 62.85 125.1 62.75 Q125.1 62.6 125.2 62.7 L126.35 62.75 127.15 62.8 130.35 63.3 130.65 63.4 130.95 63.45 132.4 63.95 132.5 64.05 132.95 64.2 133.7 64.65 133.85 64.7 133.95 64.8 134.2 64.95 134.65 65.3 134.85 65.5 134.95 65.55 135.25 65.85 135.3 65.95 135.7 66.4 135.8 66.55 135.9 66.65 135.95 66.75 136.15 67.05 136.4 67.55 136.45 67.7 136.55 67.85 M138.7 55.9 Q139.2 56.3 138.8 56.75 L137.95 56.85 137.8 56.7 135.1 54.75 134.75 54.6 134.45 54.4 128.4 51.6 128.15 51.55 127.95 51.45 120.95 49.95 120.9 49.85 Q120.9 49.7 121.0 49.8 L121.2 49.8 123.9 50.05 128.15 50.9 128.25 50.95 128.35 50.95 129.4 51.25 134.95 53.55 135.25 53.75 135.6 53.9 138.3 55.65 138.5 55.75 138.7 55.9 M-52.9 -66.7 L-52.95 -66.8 -52.85 -66.85 -41.3 -61.75 -29.5 -55.5 -29.35 -55.4 -29.3 -55.35 -29.25 -55.35 -29.2 -55.3 -27.9 -54.55 -27.9 -54.5 Q-27.4 -54.25 -27.7 -53.7 -28.0 -53.25 -28.55 -53.5 L-29.55 -54.15 -29.8 -54.35 -29.85 -54.4 -29.9 -54.4 -42.75 -61.8 -52.9 -66.7" fill="#3f274c" fill-rule="evenodd" stroke="none"/>
    <path d="M-16.75 -45.95 L-16.0 -45.35 -17.7 -41.65 Q-20.05 -36.5 -20.15 -33.6 -15.9 -34.0 -12.3 -37.2 L-9.45 -39.8 -8.75 -39.2 Q-11.15 -36.45 -14.7 -34.5 -18.3 -32.5 -21.55 -32.1 -20.45 -37.85 -19.7 -39.65 L-16.75 -45.95 M-4.4 -35.2 L-3.9 -34.75 Q-6.65 -32.05 -12.1 -29.8 -18.45 -27.15 -23.4 -27.15 -24.7 -27.15 -25.6 -28.45 -26.6 -29.85 -26.6 -32.2 -26.6 -37.2 -24.85 -41.05 -23.15 -44.7 -19.5 -48.05 L-18.8 -47.5 Q-21.3 -45.8 -23.0 -42.85 -25.4 -38.75 -25.4 -33.5 -25.4 -30.35 -24.75 -29.25 -24.2 -28.35 -22.85 -28.35 -18.2 -28.35 -12.45 -30.8 -5.75 -33.6 -4.4 -35.2" fill="#756c29" fill-rule="evenodd" stroke="none"/>
    <path d="M-16.75 -45.95 L-19.7 -39.65 Q-20.45 -37.85 -21.55 -32.1 -18.3 -32.5 -14.7 -34.5 -11.15 -36.45 -8.75 -39.2 L-4.4 -35.2 Q-5.75 -33.6 -12.45 -30.8 -18.2 -28.35 -22.85 -28.35 -24.2 -28.35 -24.75 -29.25 -25.4 -30.35 -25.4 -33.5 -25.4 -38.75 -23.0 -42.85 -21.3 -45.8 -18.8 -47.5 L-16.75 -45.95" fill="#ead852" fill-rule="evenodd" stroke="none"/>
  </g>
</svg>
