<?xml version="1.0" encoding="UTF-8" standalone="no"?>
<svg xmlns:xlink="http://www.w3.org/1999/xlink" height="245.5px" width="112.1px" xmlns="http://www.w3.org/2000/svg">
  <g transform="matrix(1.0, 0.0, 0.0, 1.0, 56.35, 123.0)">
    <path d="M-45.25 -106.05 Q-45.4 -111.55 -48.8 -108.7 -52.25 -105.85 -52.3 -100.8 -52.35 -95.75 -50.25 -95.6 -48.2 -95.45 -46.65 -98.0 -45.1 -100.55 -45.25 -106.05 M-52.85 -99.15 Q-52.85 -103.85 -51.55 -106.4 -50.3 -108.95 -48.4 -109.85 -46.55 -110.75 -45.25 -109.0 -44.0 -107.25 -44.1 -104.4 -44.2 -101.55 -45.35 -98.25 -46.5 -94.95 -49.95 -94.95 -51.15 -94.95 -52.0 -96.15 -52.85 -97.35 -52.85 -99.15 M-24.7 -112.05 L-23.3 -113.55 Q-22.55 -114.6 -16.65 -118.6 L-15.8 -118.6 Q-15.4 -118.45 -15.35 -118.3 -15.8 -117.8 -17.95 -116.75 -20.1 -115.75 -21.65 -114.15 L-24.35 -111.2 Q-25.55 -109.9 -25.9 -107.2 L-27.05 -101.55 Q-27.85 -97.65 -27.85 -96.2 -27.85 -92.8 -25.65 -92.1 L-18.35 -91.1 -15.7 -91.25 Q-11.75 -90.85 -13.15 -90.55 -16.0 -91.05 -15.55 -90.1 L-15.2 -89.95 -15.0 -89.8 Q-14.6 -89.75 -13.95 -88.85 L-13.7 -88.5 -14.0 -88.6 -15.3 -89.45 Q-16.05 -90.0 -21.2 -90.85 L-27.9 -91.25 -32.15 -90.35 -35.35 -89.85 Q-39.05 -89.85 -41.05 -91.85 -43.1 -93.9 -42.95 -98.0 -42.8 -102.15 -41.5 -107.25 -40.25 -112.4 -38.8 -115.5 L-38.15 -115.55 Q-38.0 -115.3 -40.0 -109.05 -42.2 -102.15 -42.05 -96.35 -41.9 -90.6 -36.25 -90.45 -30.65 -90.35 -27.95 -92.1 L-28.65 -94.15 -29.05 -96.1 Q-29.0 -98.5 -27.8 -103.85 -26.85 -108.35 -26.2 -109.75 -25.35 -111.55 -24.7 -112.05 M-34.25 -98.25 Q-35.8 -97.85 -37.9 -99.05 -40.1 -100.3 -40.1 -101.7 -40.1 -108.3 -37.7 -111.75 -36.0 -114.25 -32.75 -115.4 L-32.4 -115.35 Q-30.75 -113.75 -30.4 -111.55 -30.05 -109.4 -30.05 -108.2 L-30.05 -106.5 Q-30.05 -103.6 -31.0 -101.65 -32.0 -99.65 -34.25 -98.25 M-34.95 -99.3 Q-32.85 -100.0 -31.95 -102.05 -31.05 -104.15 -31.05 -107.75 -31.05 -111.4 -31.4 -112.15 -31.8 -112.95 -32.95 -114.2 -35.85 -113.7 -37.45 -110.1 -38.9 -106.8 -39.25 -103.55 -39.1 -100.0 -37.1 -99.55 L-34.95 -99.2 -34.95 -99.3 M-20.4 -98.15 Q-22.6 -98.05 -23.85 -98.85 -24.95 -99.6 -24.95 -100.9 -24.95 -105.2 -22.9 -108.85 -20.8 -112.55 -18.3 -112.55 -16.95 -112.55 -16.2 -111.6 -15.85 -110.95 -15.5 -108.95 L-15.25 -106.25 Q-15.25 -103.9 -17.2 -101.2 -18.9 -98.85 -20.4 -98.15 M-16.9 -110.35 L-17.2 -111.0 -18.35 -111.8 Q-19.25 -112.3 -21.85 -109.1 -24.45 -105.95 -24.25 -102.4 -24.05 -98.85 -22.4 -98.95 -20.8 -99.1 -20.05 -99.65 -18.6 -100.7 -17.35 -102.45 -16.1 -104.2 -16.15 -106.55 -16.25 -108.95 -16.9 -110.35 M-51.65 -87.35 Q-52.6 -87.6 -49.2 -89.3 -45.8 -91.05 -42.8 -91.05 -42.15 -91.05 -42.15 -90.7 -42.55 -91.35 -46.15 -89.85 -49.8 -88.4 -51.2 -87.0 L-51.5 -87.1 -51.65 -87.35 M-40.8 -72.9 L-43.8 -72.25 -46.45 -71.8 Q-48.1 -71.8 -49.25 -72.75 -50.75 -73.9 -50.75 -76.2 -50.75 -82.4 -45.5 -85.55 -40.25 -88.7 -33.6 -88.7 L-24.6 -88.5 -21.8 -87.85 Q-17.4 -85.8 -15.8 -83.05 -14.85 -81.4 -14.85 -79.15 -14.85 -75.9 -17.2 -74.25 -19.3 -72.8 -23.05 -72.8 L-27.5 -73.45 -32.1 -74.2 -34.75 -74.35 Q-36.2 -74.4 -40.8 -72.9 M-13.4 -87.8 L-13.4 -88.1 -13.4 -88.05 -13.4 -87.8 M-35.7 -75.2 L-28.25 -74.6 -22.7 -73.35 Q-16.05 -74.0 -15.75 -78.35 -15.45 -82.7 -18.45 -85.15 -21.5 -87.6 -33.35 -87.95 L-36.55 -87.85 -39.65 -87.45 Q-40.45 -87.6 -42.5 -86.4 -46.25 -84.3 -47.85 -82.55 -49.45 -80.85 -49.55 -79.25 L-49.7 -76.1 Q-49.75 -74.5 -48.95 -73.6 -48.2 -72.75 -46.35 -72.85 -44.5 -72.95 -42.3 -73.8 -39.7 -74.8 -35.7 -75.2" fill="#3f274c" fill-rule="evenodd" stroke="none"/>
    <path d="M-52.85 -99.15 Q-52.85 -97.35 -52.0 -96.15 -51.15 -94.95 -49.95 -94.95 -46.5 -94.95 -45.35 -98.25 -44.2 -101.55 -44.1 -104.4 -44.0 -107.25 -45.25 -109.0 -46.55 -110.75 -48.4 -109.85 -50.3 -108.95 -51.55 -106.4 -52.85 -103.85 -52.85 -99.15 M-29.05 -96.1 L-28.65 -94.15 -27.95 -92.1 Q-30.65 -90.35 -36.25 -90.45 -41.9 -90.6 -42.05 -96.35 -42.2 -102.15 -40.0 -109.05 -38.0 -115.3 -38.15 -115.55 -33.7 -123.5 -25.6 -122.2 -30.55 -119.0 -32.4 -115.35 L-32.75 -115.4 Q-36.0 -114.25 -37.7 -111.75 -40.1 -108.3 -40.1 -101.7 -40.1 -100.3 -37.9 -99.05 -35.8 -97.85 -34.25 -98.25 -32.05 -95.55 -29.05 -96.1 M-38.8 -115.5 Q-40.25 -112.4 -41.5 -107.25 -42.8 -102.15 -42.95 -98.0 -43.1 -93.9 -41.05 -91.85 -39.05 -89.85 -35.35 -89.85 L-32.15 -90.35 -27.9 -91.25 -21.2 -90.85 Q-16.05 -90.0 -15.3 -89.45 -16.7 -88.05 -21.8 -87.85 L-24.6 -88.5 -33.6 -88.7 Q-40.25 -88.7 -45.5 -85.55 -50.75 -82.4 -50.75 -76.2 -50.75 -73.9 -49.25 -72.75 -48.1 -71.8 -46.45 -71.8 L-43.8 -72.25 -40.8 -72.9 Q-45.5 -70.25 -42.75 -66.9 L-41.6 -67.75 Q-35.35 -71.55 -29.15 -68.4 -46.25 -23.3 -35.25 16.25 -34.15 68.75 -24.55 80.5 -15.8 91.15 -6.3 95.35 -4.7 103.9 -0.4 111.4 -47.2 100.35 -47.7 18.1 -51.75 0.6 -47.3 -65.1 -55.35 -69.5 -51.2 -87.0 -49.8 -88.4 -46.15 -89.85 -42.55 -91.35 -42.15 -90.7 -42.15 -91.05 -42.8 -91.05 -45.8 -91.05 -49.2 -89.3 -52.6 -87.6 -51.65 -87.35 -58.9 -84.4 -53.35 -105.6 -43.85 -121.75 -38.8 -115.5 M-18.35 -91.1 L-25.65 -92.1 Q-27.85 -92.8 -27.85 -96.2 -27.85 -97.65 -27.05 -101.55 L-25.9 -107.2 Q-25.55 -109.9 -24.35 -111.2 L-21.65 -114.15 Q-20.1 -115.75 -17.95 -116.75 -15.8 -117.8 -15.35 -118.3 -12.55 -118.7 -9.5 -116.8 -13.55 -115.8 -16.2 -111.6 -16.95 -112.55 -18.3 -112.55 -20.8 -112.55 -22.9 -108.85 -24.95 -105.2 -24.95 -100.9 -24.95 -99.6 -23.85 -98.85 -22.6 -98.05 -20.4 -98.15 -21.65 -94.45 -18.35 -91.1" fill="#c3a04b" fill-rule="evenodd" stroke="none"/>
    <path d="M-45.25 -106.05 Q-45.1 -100.55 -46.65 -98.0 -48.2 -95.45 -50.25 -95.6 -52.35 -95.75 -52.3 -100.8 -52.25 -105.85 -48.8 -108.7 -45.4 -111.55 -45.25 -106.05 M-34.95 -99.3 L-34.95 -99.2 -37.1 -99.55 Q-39.1 -100.0 -39.25 -103.55 -38.9 -106.8 -37.45 -110.1 -35.85 -113.7 -32.95 -114.2 -37.05 -104.75 -34.95 -99.3 M-20.05 -99.65 Q-20.8 -99.1 -22.4 -98.95 -24.05 -98.85 -24.25 -102.4 -24.45 -105.95 -21.85 -109.1 -19.25 -112.3 -18.35 -111.8 L-17.2 -111.0 -16.9 -110.35 Q-19.3 -105.4 -20.05 -99.65 M-35.7 -75.2 Q-39.7 -74.8 -42.3 -73.8 -44.5 -72.95 -46.35 -72.85 -48.2 -72.75 -48.95 -73.6 -49.75 -74.5 -49.7 -76.1 L-49.55 -79.25 Q-49.45 -80.85 -47.85 -82.55 -46.25 -84.3 -42.5 -86.4 -40.45 -87.6 -39.65 -87.45 L-36.55 -87.85 Q-40.8 -79.45 -35.7 -75.2" fill="#cd6c7a" fill-rule="evenodd" stroke="none"/>
    <path d="M-23.3 -113.55 L-24.7 -112.05 Q-25.35 -111.55 -26.2 -109.75 -26.85 -108.35 -27.8 -103.85 -29.0 -98.5 -29.05 -96.1 -32.05 -95.55 -34.25 -98.25 -32.0 -99.65 -31.0 -101.65 -30.05 -103.6 -30.05 -106.5 L-30.05 -108.2 Q-30.05 -109.4 -30.4 -111.55 -30.75 -113.75 -32.4 -115.35 -30.55 -119.0 -25.6 -122.2 -21.55 -121.55 -16.65 -118.6 -22.55 -114.6 -23.3 -113.55 M-15.3 -89.45 L-14.0 -88.6 -13.7 -88.5 -13.95 -88.85 Q-14.6 -89.75 -15.0 -89.8 L-15.2 -89.95 -15.55 -90.1 Q-16.0 -91.05 -13.15 -90.55 -11.75 -90.85 -15.7 -91.25 L-18.35 -91.1 Q-21.65 -94.45 -20.4 -98.15 -18.9 -98.85 -17.2 -101.2 -15.25 -103.9 -15.25 -106.25 L-15.5 -108.95 Q-15.85 -110.95 -16.2 -111.6 -13.55 -115.8 -9.5 -116.8 -6.1 -114.7 -2.5 -109.8 1.25 -102.5 -2.5 -79.1 -0.05 -39.5 19.85 25.2 20.9 28.65 23.25 31.75 24.55 41.05 29.45 55.5 21.7 53.05 14.35 47.5 18.05 58.75 24.45 71.9 15.9 72.65 5.9 66.4 9.0 80.7 17.3 94.2 12.35 97.9 -7.1 89.55 L-6.3 95.35 Q-15.8 91.15 -24.55 80.5 -34.15 68.75 -35.25 16.25 -46.25 -23.3 -29.15 -68.4 -35.35 -71.55 -41.6 -67.75 L-42.75 -66.9 Q-45.5 -70.25 -40.8 -72.9 -36.2 -74.4 -34.75 -74.35 L-32.1 -74.2 -27.5 -73.45 -23.05 -72.8 Q-19.3 -72.8 -17.2 -74.25 -14.85 -75.9 -14.85 -79.15 -14.85 -81.4 -15.8 -83.05 -17.4 -85.8 -21.8 -87.85 -16.7 -88.05 -15.3 -89.45 M-13.4 -87.8 L-13.4 -88.05 -13.4 -88.1 -13.4 -87.8" fill="#f4d05f" fill-opacity="0.99607843" fill-rule="evenodd" stroke="none"/>
    <path d="M-32.95 -114.2 Q-31.8 -112.95 -31.4 -112.15 -31.05 -111.4 -31.05 -107.75 -31.05 -104.15 -31.95 -102.05 -32.85 -100.0 -34.95 -99.3 -37.05 -104.75 -32.95 -114.2 M-16.9 -110.35 Q-16.25 -108.95 -16.15 -106.55 -16.1 -104.2 -17.35 -102.45 -18.6 -100.7 -20.05 -99.65 -19.3 -105.4 -16.9 -110.35 M-36.55 -87.85 L-33.35 -87.95 Q-21.5 -87.6 -18.45 -85.15 -15.45 -82.7 -15.75 -78.35 -16.05 -74.0 -22.7 -73.35 L-28.25 -74.6 -35.7 -75.2 Q-40.8 -79.45 -36.55 -87.85" fill="#ef7e8e" fill-rule="evenodd" stroke="none"/>
    <path d="M-6.3 95.35 L-7.1 89.55 Q12.35 97.9 17.3 94.2 9.0 80.7 5.9 66.4 15.9 72.65 24.45 71.9 18.05 58.75 14.35 47.5 21.7 53.05 29.45 55.5 24.55 41.05 23.25 31.75 L24.9 33.75 Q27.8 36.95 33.1 40.9 L33.15 40.95 Q38.45 44.85 45.85 46.65 68.45 78.75 39.55 116.45 36.2 114.15 31.5 113.25 L30.1 113.0 29.8 112.95 Q3.0 97.7 -6.3 95.35" fill="#72567e" fill-opacity="0.99607843" fill-rule="evenodd" stroke="none"/>
    <path d="M-0.4 111.4 Q-4.7 103.9 -6.3 95.35 3.0 97.7 29.8 112.95 L30.1 113.0 31.5 113.25 Q36.2 114.15 39.55 116.45 L30.75 122.4 Q21.55 119.75 17.55 112.9 L17.35 112.9 Q8.15 113.65 -0.4 111.4 M29.8 112.95 Q25.2 112.25 19.4 112.7 L17.55 112.9 19.4 112.7 Q25.2 112.25 29.8 112.95" fill="#634b6c" fill-rule="evenodd" stroke="none"/>
    <path d="M-23.3 -113.55 L-24.7 -112.05" fill="none" stroke="#3f274c" stroke-linecap="round" stroke-linejoin="round" stroke-width="0.05"/>
    <path d="M-25.6 -122.2 Q-33.7 -123.5 -38.15 -115.55 M-9.5 -116.8 Q-12.55 -118.7 -15.35 -118.3 M23.25 31.75 Q20.9 28.65 19.85 25.2 -0.05 -39.5 -2.5 -79.1 1.25 -102.5 -2.5 -109.8 -6.1 -114.7 -9.5 -116.8 M-16.65 -118.6 Q-21.55 -121.55 -25.6 -122.2 M-38.8 -115.5 Q-43.85 -121.75 -53.35 -105.6 -58.9 -84.4 -51.65 -87.35 M-51.2 -87.0 Q-55.35 -69.5 -47.3 -65.1 -51.75 0.6 -47.7 18.1 -47.2 100.35 -0.4 111.4 -4.7 103.9 -6.3 95.35 L-7.1 89.55 Q12.35 97.9 17.3 94.2 9.0 80.7 5.9 66.4 15.9 72.65 24.45 71.9 18.05 58.75 14.35 47.5 21.7 53.05 29.45 55.5 24.55 41.05 23.25 31.75 L24.9 33.75 Q27.8 36.95 33.1 40.9 L33.15 40.95 M17.55 112.9 L17.35 112.9 Q8.15 113.65 -0.4 111.4 M17.55 112.9 L19.4 112.7 Q25.2 112.25 29.8 112.95 L30.1 113.0" fill="none" stroke="#3f274c" stroke-linecap="round" stroke-linejoin="miter-clip" stroke-miterlimit="3.0" stroke-width="1.2000000000000002"/>
    <path d="M17.0 113.2 L17.0 113.15 Q16.75 112.65 17.2 112.35 17.7 112.0 18.05 112.55 L18.4 113.2 18.5 113.35 18.55 113.4 18.8 113.85 20.15 115.65 20.4 115.9 21.6 117.2 22.75 118.15 24.8 119.6 26.55 120.6 27.45 121.0 27.6 121.1 27.75 121.15 29.3 121.75 29.7 121.95 30.1 122.05 30.75 122.3 30.8 122.4 30.7 122.45 29.65 122.2 29.45 122.1 29.2 122.05 27.3 121.4 27.0 121.25 26.35 121.0 24.5 120.1 23.5 119.5 23.3 119.4 22.0 118.55 21.05 117.8 20.8 117.55 19.7 116.55 19.55 116.45 19.45 116.3 18.2 114.9 17.65 114.1 17.5 113.95 17.0 113.2 M30.0 113.55 L29.95 113.55 Q29.35 113.45 29.45 112.85 29.5 112.6 29.7 112.5 L30.15 112.4 30.25 112.4 30.6 112.45 31.1 112.6 31.4 112.65 34.65 113.65 36.85 114.6 37.4 114.95 37.6 115.05 38.55 115.6 39.6 116.35 39.6 116.45 39.45 116.5 37.4 115.4 37.2 115.35 37.0 115.25 34.9 114.5 34.65 114.45 34.45 114.35 31.9 113.8 30.4 113.6 30.1 113.6 30.0 113.55 M45.85 46.55 L45.9 46.65 45.8 46.7 44.9 46.55 40.3 45.2 38.75 44.6 36.1 43.4 32.75 41.4 32.5 41.0 Q32.45 40.75 32.65 40.55 33.0 40.1 33.45 40.45 L33.5 40.45 38.2 43.5 43.3 45.7 43.75 45.9 45.85 46.55 M-47.65 -64.6 L-47.7 -64.65 Q-48.15 -65.1 -47.75 -65.5 L-46.9 -65.55 -46.9 -65.5 -46.45 -65.5 -45.5 -65.75 -42.9 -67.0 -42.85 -67.05 -42.8 -67.05 -42.7 -67.15 -42.5 -67.25 -41.65 -67.8 -41.5 -67.8 -41.5 -67.65 -42.3 -67.0 -42.45 -66.8 -42.55 -66.75 -42.65 -66.65 -45.15 -64.95 -46.15 -64.5 -46.7 -64.35 -47.15 -64.4 -47.3 -64.4 -47.4 -64.45 -47.45 -64.45 -47.55 -64.55 -47.65 -64.6" fill="#3f274c" fill-rule="evenodd" stroke="none"/>
  </g>
</svg>
