<?xml version="1.0" encoding="UTF-8" standalone="no"?>
<svg xmlns:xlink="http://www.w3.org/1999/xlink" height="98.3px" width="96.3px" xmlns="http://www.w3.org/2000/svg">
  <g transform="matrix(1.0, 0.0, 0.0, 1.0, 48.15, 49.35)">
    <path d="M20.8 -48.85 L34.85 -48.75 Q30.4 7.8 47.55 38.9 39.65 57.65 25.6 24.6 20.65 -0.45 23.85 -18.15 25.65 -25.45 24.7 -32.05 27.15 -47.35 20.8 -48.85" fill="#72567e" fill-opacity="0.99607843" fill-rule="evenodd" stroke="none"/>
    <path d="M20.8 -48.85 Q27.15 -47.35 24.7 -32.05 -34.1 7.05 -32.6 19.35 -31.1 31.6 -38.15 45.35 L-38.55 45.2 Q-43.0 43.35 -47.55 40.7 -40.15 25.7 -44.35 5.1 L-34.55 -5.5 -32.8 -7.35 Q9.05 -51.6 20.8 -48.85" fill="#c3a04b" fill-rule="evenodd" stroke="none"/>
    <path d="M24.7 -32.05 Q25.65 -25.45 23.85 -18.15 20.65 -0.45 25.6 24.6 -5.45 58.3 -38.15 45.35 -31.1 31.6 -32.6 19.35 -34.1 7.05 24.7 -32.05" fill="#f4d05f" fill-rule="evenodd" stroke="none"/>
    <path d="M24.7 -32.05 Q25.65 -25.45 23.85 -18.15" fill="none" stroke="#3f274c" stroke-linecap="round" stroke-linejoin="round" stroke-width="1.0"/>
    <path d="M23.85 -18.15 Q20.65 -0.45 25.6 24.6 M47.55 38.9 Q30.4 7.8 34.85 -48.75 M-47.55 40.7 Q-40.15 25.7 -44.35 5.1" fill="none" stroke="#3f274c" stroke-linecap="round" stroke-linejoin="round" stroke-width="1.2000000000000002"/>
  </g>
</svg>
