<?xml version="1.0" encoding="UTF-8" standalone="no"?>
<svg xmlns:xlink="http://www.w3.org/1999/xlink" height="237.95px" width="185.0px" xmlns="http://www.w3.org/2000/svg">
  <g transform="matrix(1.0, 0.0, 0.0, 1.0, 92.5, 123.2)">
    <path d="M59.15 -73.1 L59.25 -72.95 59.15 -73.1 M60.75 -70.55 L68.8 -57.7 Q75.15 -46.45 79.75 -35.65 90.1 -11.25 91.35 11.05 89.0 -3.8 52.4 -43.4 60.3 -42.0 70.05 -36.7 56.7 -62.3 39.55 -78.95 51.7 -76.3 60.75 -70.55 M-90.6 21.4 Q-92.15 7.2 -85.95 -16.1 -82.25 -31.85 -75.0 -45.95 L-63.95 -65.4 Q-53.6 -73.4 -41.8 -77.9 -63.85 -57.15 -79.65 -29.55 -69.55 -36.6 -59.45 -39.2 L-67.7 -26.35 Q-87.8 5.75 -90.6 21.4" fill="#72567e" fill-opacity="0.99607843" fill-rule="evenodd" stroke="none"/>
    <path d="M59.15 -73.1 L59.25 -72.95 60.75 -70.55 Q51.7 -76.3 39.55 -78.95 56.7 -62.3 70.05 -36.7 60.3 -42.0 52.4 -43.4 89.0 -3.8 91.35 11.05 L91.5 12.95 Q94.85 40.9 71.1 95.8 L60.35 91.8 58.25 96.05 58.2 96.05 49.5 111.3 49.45 111.3 49.15 111.25 -56.0 78.1 Q-64.3 36.05 -57.6 10.95 L-57.2 9.6 -55.9 5.5 Q-47.85 -9.5 -48.4 -17.6 -50.15 -48.75 -24.15 -89.2 L-24.15 -89.25 -24.15 -90.75 -25.75 -89.2 Q-30.75 -84.35 -34.9 -78.95 -34.0 -96.5 -26.9 -112.0 -22.7 -114.85 -17.7 -117.9 0.65 -129.1 28.85 -116.6 L59.15 -73.1 M-20.35 -50.15 L-21.6 -55.75 Q-24.55 -71.4 -24.15 -89.2 -24.55 -71.4 -21.6 -55.75 L-20.35 -50.15" fill="#f4d05f" fill-opacity="0.99607843" fill-rule="evenodd" stroke="none"/>
    <path d="M-56.0 78.1 Q-54.2 87.15 -51.7 97.0 L-48.5 109.05 -46.85 114.75 Q-63.4 108.65 -75.1 97.3 L-77.2 82.95 -84.75 81.95 -88.05 66.35 -88.05 66.3 -88.1 65.95 -88.55 63.6 -88.65 63.05 Q-93.6 35.9 -91.0 24.7 L-90.6 21.4 Q-87.8 5.75 -67.7 -26.35 L-59.45 -39.2 Q-69.55 -36.6 -79.65 -29.55 -63.85 -57.15 -41.8 -77.9 -53.6 -73.4 -63.95 -65.4 L-62.7 -67.75 Q-51.55 -89.2 -43.8 -97.95 L-43.6 -98.2 -40.9 -101.0 -40.65 -101.25 -39.55 -102.2 -37.75 -103.8 -37.55 -104.0 -37.5 -104.05 Q-33.05 -107.85 -26.9 -112.0 -34.0 -96.5 -34.9 -78.95 -30.75 -84.35 -25.75 -89.2 L-24.15 -89.2 Q-50.15 -48.75 -48.4 -17.6 -47.85 -9.5 -55.9 5.5 L-57.2 9.6 -57.6 10.95 Q-64.3 36.05 -56.0 78.1 M-34.9 -78.95 Q-51.45 -57.45 -54.55 -27.4 -51.45 -57.45 -34.9 -78.95 M-88.5 63.6 L-88.1 65.95 -88.5 63.6 -88.55 63.6 -88.5 63.6 -88.65 63.05 -88.5 63.6" fill="#c3a04b" fill-rule="evenodd" stroke="none"/>
    <path d="M-63.95 -65.4 L-64.1 -65.3 -62.7 -67.75 -63.95 -65.4" fill="#ead852" fill-rule="evenodd" stroke="none"/>
    <path d="M59.15 -73.1 L59.25 -72.95 60.75 -70.55 Q51.7 -76.3 39.55 -78.95 56.7 -62.3 70.05 -36.7 60.3 -42.0 52.4 -43.4 89.0 -3.8 91.35 11.05 L91.5 12.95 Q94.85 40.9 71.1 95.8 M79.75 -35.65 Q90.1 -11.25 91.35 11.05 M-88.55 63.6 L-88.65 63.05 Q-93.6 35.9 -91.0 24.7 L-90.6 21.4 Q-92.15 7.2 -85.95 -16.1 M-63.95 -65.4 L-64.1 -65.3 -62.7 -67.75 Q-51.55 -89.2 -43.8 -97.95 M28.85 -116.6 L59.15 -73.1 M-25.75 -89.2 L-24.15 -90.75 -24.15 -89.25 -24.15 -89.2 Q-24.55 -71.4 -21.6 -55.75 L-20.35 -50.15 M-34.9 -78.95 Q-30.75 -84.35 -25.75 -89.2 M-24.15 -89.2 L-24.15 -89.25 M-63.95 -65.4 Q-53.6 -73.4 -41.8 -77.9 -63.85 -57.15 -79.65 -29.55 -69.55 -36.6 -59.45 -39.2 L-67.7 -26.35 Q-87.8 5.75 -90.6 21.4 M-62.7 -67.75 L-63.95 -65.4 M-54.55 -27.4 Q-51.45 -57.45 -34.9 -78.95" fill="none" stroke="#3f274c" stroke-linecap="round" stroke-linejoin="miter-clip" stroke-miterlimit="3.0" stroke-width="1.2000000000000002"/>
    <path d="M-88.05 66.35 L-88.1 65.95 -88.5 63.6 -88.65 63.05 M-43.8 -97.95 L-43.6 -98.2 -40.9 -101.0 M-88.55 63.6 L-88.5 63.6" fill="none" stroke="#3f274c" stroke-linecap="round" stroke-linejoin="round" stroke-width="1.2000000000000002"/>
    <path d="M-88.65 66.3 L-88.65 66.25 Q-88.55 65.65 -88.0 65.65 -87.4 65.65 -87.45 66.2 L-87.45 66.25 -84.65 81.9 -84.7 82.0 -84.8 81.95 Q-87.2 72.85 -88.6 66.45 L-88.6 66.3 -88.65 66.3 M-55.15 -14.8 L-55.2 -14.75 -55.3 -14.85 -55.35 -15.35 -55.4 -17.75 -55.1 -27.45 -55.1 -27.5 Q-55.0 -28.1 -54.45 -28.0 -53.85 -27.9 -53.95 -27.3 L-55.15 -14.8 M-20.9 -50.0 Q-21.05 -50.55 -20.45 -50.75 -19.85 -50.85 -19.75 -50.25 L-16.4 -37.1 -14.35 -31.1 Q-14.25 -31.0 -14.4 -31.0 -14.5 -30.9 -14.5 -31.05 L-17.8 -39.5 -20.1 -46.95 -20.45 -48.2 -20.9 -50.0 M-75.05 -45.95 L-74.95 -46.0 -74.9 -45.9 -77.25 -40.85 -79.5 -35.35 -79.65 -35.05 -79.75 -34.7 -81.5 -29.8 -81.65 -29.45 -85.35 -15.95 -85.35 -15.9 Q-85.55 -15.35 -86.1 -15.5 L-86.45 -15.75 -86.5 -16.2 -85.5 -20.0 -80.85 -33.55 -75.05 -45.95 M-37.55 -104.1 L-37.4 -104.1 -37.4 -103.95 -37.45 -103.9 -37.45 -103.85 -37.85 -103.45 -38.3 -102.95 -38.55 -102.65 -38.65 -102.5 -38.65 -102.45 -38.7 -102.45 -40.25 -100.75 -40.35 -100.7 Q-40.85 -100.3 -41.2 -100.85 -41.5 -101.35 -41.0 -101.7 L-39.25 -102.85 -39.15 -102.9 -39.15 -102.95 -39.1 -102.95 -38.95 -103.1 -37.7 -104.0 -37.6 -104.05 -37.55 -104.1 M80.3 -35.85 Q80.5 -35.3 79.95 -35.05 79.4 -34.85 79.15 -35.4 L78.05 -38.2 77.7 -38.95 76.15 -42.55 68.7 -57.65 68.75 -57.75 68.85 -57.7 80.3 -35.85" fill="#3f274c" fill-rule="evenodd" stroke="none"/>
    <path d="M-21.1 -53.75 Q-20.5 -53.6 -19.55 -50.75 -18.1 -46.25 -15.9 -43.25 L-12.35 -38.85 Q-11.0 -37.45 -10.75 -37.6 L-10.9 -37.4 Q-14.95 -38.65 -20.35 -50.0 L-21.6 -53.25 -21.35 -53.55 -21.1 -53.75" fill="#3f274c" fill-rule="evenodd" stroke="none"/>
  </g>
</svg>
