<?xml version="1.0" encoding="UTF-8" standalone="no"?>
<svg xmlns:xlink="http://www.w3.org/1999/xlink" height="185.75px" width="127.25px" xmlns="http://www.w3.org/2000/svg">
  <g transform="matrix(1.0, 0.0, 0.0, 1.0, 85.45, 64.5)">
    <path d="M1.45 -62.8 L1.6 -63.25 1.6 -63.55 Q1.6 -64.45 2.45 -64.5 L2.6 -64.35 2.8 -64.5 3.4 -63.55 Q4.5 -62.25 5.2 -60.5 L5.3 -60.25 Q7.4 -56.25 8.9 -51.85 9.6 -49.9 9.05 -47.95 5.15 -50.6 3.0 -55.55 4.05 -54.85 5.35 -54.45 5.9 -55.7 5.35 -57.05 3.95 -60.45 1.45 -62.8 M24.15 -35.65 Q26.6 -33.75 24.25 -30.9 23.65 -30.2 22.8 -30.7 21.7 -32.6 22.8 -34.75 23.2 -35.6 24.15 -35.65 M16.9 -21.95 L17.4 -21.05 Q17.65 -22.6 18.6 -24.15 19.95 -26.4 21.7 -27.65 24.8 -25.95 20.9 -22.3 20.0 -21.45 19.7 -20.3 22.9 -20.9 25.25 -17.7 25.75 -17.05 25.4 -16.3 23.55 -15.2 21.7 -16.7 L21.4 -16.2 20.95 -14.5 Q20.45 -13.6 19.5 -14.15 18.05 -15.95 17.55 -17.75 17.2 -15.95 16.15 -13.7 15.65 -12.7 16.1 -11.05 19.15 0.65 14.95 10.85 11.95 6.35 14.0 -2.5 15.25 -7.75 13.45 -12.65 11.35 -18.3 16.9 -21.95 M-11.2 -20.45 L-9.3 -20.05 -8.6 -19.6 Q-8.3 -18.0 -8.45 -16.65 L-8.6 -15.8 -11.2 -20.45 M-9.3 -14.5 Q-9.9 -13.85 -10.8 -13.45 -12.05 -13.6 -11.85 -14.75 L-11.75 -15.35 Q-10.95 -14.35 -9.3 -14.5 M-12.5 -17.5 Q-16.7 -15.5 -18.3 -11.15 -19.05 -9.1 -20.65 -10.25 -20.2 -15.25 -15.8 -18.5 -14.0 -19.8 -12.2 -20.55 L-11.55 -20.5 Q-12.45 -20.25 -12.55 -19.15 L-12.5 -17.5 M-18.9 1.7 Q-19.05 2.4 -19.15 2.1 -19.25 1.85 -19.4 1.9 L-19.0 2.45 Q-18.95 2.15 -18.9 2.5 L-18.85 5.0 -17.55 4.85 -16.65 3.3 Q-16.1 2.25 -16.1 2.05 -16.1 0.95 -17.5 -0.7 -18.1 -0.4 -18.9 1.7 M-14.95 -4.45 Q-14.15 -2.4 -16.05 2.1 -17.75 6.25 -19.25 7.2 L-20.4 7.1 -20.55 4.65 Q-20.55 -1.35 -14.95 -4.45 M-56.4 69.3 L-56.75 65.5 Q-56.75 63.15 -55.8 59.3 -54.05 52.25 -53.05 47.25 L-52.0 39.05 Q-51.8 34.75 -51.35 34.55 L-50.05 34.45 Q-49.3 34.15 -48.35 31.45 -46.9 27.4 -41.1 22.1 -34.5 16.05 -33.6 14.65 L-32.7 13.0 -35.85 12.5 Q-34.5 9.75 -33.5 6.4 -33.0 4.6 -31.4 4.0 -28.95 5.8 -31.5 8.5 -31.8 8.85 -31.75 9.55 L-31.4 10.2 -31.0 9.2 Q-29.8 6.4 -28.9 6.4 -28.25 6.4 -27.65 7.0 L-26.35 8.35 Q-26.5 4.5 -25.25 11.45 -25.25 12.45 -25.95 14.25 -26.7 16.25 -27.5 17.0 L-28.35 17.45 -29.9 18.35 -28.65 16.15 -28.4 15.65 -28.4 15.55 Q-27.75 14.8 -27.3 13.4 L-26.95 11.95 -27.3 10.95 -28.25 9.25 -29.1 9.7 -30.2 12.35 -31.8 15.2 -32.3 15.9 -35.1 19.15 Q-37.9 22.05 -39.95 23.4 L-38.65 24.15 -38.05 24.4 -36.6 24.15 -35.95 23.9 -36.8 24.75 Q-37.6 25.65 -37.65 26.25 L-37.55 26.25 Q-36.9 26.25 -36.7 27.0 L-36.6 28.45 Q-36.6 29.75 -37.45 31.45 L-38.15 30.95 -39.35 31.7 Q-40.15 32.2 -40.15 32.85 -40.15 33.85 -39.5 34.3 L-40.3 34.75 Q-41.25 33.35 -41.25 31.85 -41.25 30.3 -40.15 28.5 -39.1 26.8 -38.15 26.5 L-39.5 25.0 Q-40.65 26.6 -42.4 27.8 -44.05 28.9 -44.85 30.25 -47.55 34.55 -51.2 54.55 L-51.75 53.45 Q-52.2 52.7 -52.85 52.7 -53.45 52.7 -53.75 53.05 L-54.0 53.4 -54.15 55.6 -53.75 57.6 -52.85 59.8 -52.0 59.45 -52.45 62.8 -53.25 61.2 -54.5 62.3 Q-55.2 63.3 -55.2 66.05 -55.2 67.1 -55.5 67.75 L-56.4 69.3 M-56.25 80.5 L-56.2 81.85 -56.7 81.05 Q-56.9 81.45 -57.9 82.05 -58.8 83.0 -58.8 85.35 L-58.75 86.75 -59.25 81.95 -58.9 78.7 -58.2 75.15 -57.15 81.05 -56.25 80.5 M-55.85 90.35 L-56.45 91.8 -57.3 90.3 -56.65 90.5 -55.85 90.35 M-32.55 0.7 Q-32.9 5.45 -40.95 9.75 -48.85 14.0 -49.2 21.6 -51.3 23.75 -54.85 23.5 -54.2 26.9 -54.75 30.25 -55.2 32.8 -57.2 32.6 -57.15 28.2 -56.6 23.15 -56.2 19.8 -52.0 20.3 -49.55 10.25 -38.9 4.25 L-32.55 0.7 M-27.85 35.45 L-28.3 35.55 Q-27.3 38.9 -27.6 43.15 -27.7 44.8 -28.7 45.95 -32.3 42.15 -31.0 35.4 L-30.85 34.85 Q-31.7 31.0 -29.55 27.5 L-29.0 26.8 Q-29.0 31.7 -27.85 35.45 M-26.25 27.4 Q-25.5 28.85 -25.9 30.9 -26.0 29.05 -26.25 27.4 M-37.65 26.25 Q-37.65 25.55 -37.95 25.9 -38.3 26.25 -37.65 26.25 M-62.7 46.55 Q-60.45 50.55 -63.2 47.2 -63.7 46.6 -62.7 46.55 M-58.25 35.2 Q-57.3 39.15 -59.65 44.65 -60.35 46.3 -61.9 45.85 -62.3 41.7 -60.4 37.3 -59.65 35.65 -58.25 35.2 M-48.2 56.5 L-46.9 57.55 Q-46.35 58.25 -46.35 59.25 L-46.55 61.5 -46.75 61.8 Q-46.9 62.05 -47.5 62.05 -48.25 62.05 -48.85 61.15 -49.45 60.3 -49.45 59.35 -49.45 58.0 -49.1 57.4 L-48.2 56.5 M-82.9 59.4 L-82.7 58.95 Q-79.7 57.45 -77.6 53.15 -76.9 51.7 -75.75 51.25 -75.35 56.8 -80.5 63.9 -81.9 65.75 -84.0 66.4 -86.65 64.35 -84.4 61.6 -84.8 62.8 -84.5 64.25 -82.95 65.0 -81.75 64.05 -77.35 60.5 -79.0 57.4 L-80.65 58.0 Q-82.0 58.6 -82.9 59.4 M-11.25 61.6 L-12.7 60.25 Q-13.9 60.4 -13.15 60.9 L-11.4 62.0 -12.95 65.25 Q-13.65 66.35 -14.95 65.7 -15.55 62.3 -13.65 58.6 -13.15 57.55 -11.9 57.4 -11.1 57.6 -10.75 58.4 L-10.5 59.05 -11.25 61.6 M-38.2 55.9 L-38.0 54.7 Q-37.65 53.15 -36.3 52.7 -34.85 56.6 -35.7 62.15 -35.95 63.8 -37.45 64.5 -38.5 62.1 -38.5 59.2 -38.1 60.55 -36.7 61.05 -36.15 60.7 -36.05 60.0 -35.7 57.1 -37.55 55.5 -38.0 55.55 -38.2 55.9 M-40.15 66.4 Q-38.85 68.2 -37.15 67.75 L-36.3 67.9 Q-35.7 69.3 -36.15 70.8 -36.35 71.4 -36.85 71.8 -40.75 71.65 -40.85 67.2 -40.85 66.45 -40.15 66.4 M-13.15 82.0 Q-10.75 83.4 -12.7 87.25 -13.2 88.3 -14.3 88.6 -16.55 86.4 -14.55 83.15 -14.0 82.2 -13.15 82.0 M-55.65 106.2 L-56.6 104.7 -57.15 104.85 -57.2 105.0 -55.8 106.35 Q-57.95 105.3 -57.95 103.5 L-57.75 101.45 -56.8 100.9 Q-56.05 101.5 -55.65 103.1 -55.2 104.95 -55.65 106.2 M10.3 37.05 L9.9 44.05 9.2 45.6 10.2 47.9 Q10.15 48.8 9.4 47.65 8.6 46.45 8.6 45.85 L7.1 34.1 Q7.1 28.85 9.35 23.05 11.3 17.85 13.2 16.3 L13.3 18.2 Q13.35 18.7 13.95 18.7 15.25 18.7 15.95 21.35 L16.4 24.25 Q16.4 27.3 13.9 28.5 L13.55 25.9 13.35 25.0 13.2 24.3 12.15 20.1 Q10.4 21.05 9.85 22.3 9.25 23.65 9.25 27.05 L9.55 31.25 Q9.85 34.95 10.3 37.05 M19.35 32.6 Q19.35 33.5 18.9 34.15 18.4 34.75 17.7 34.75 17.0 34.75 16.55 34.15 16.05 33.5 16.05 32.6 16.05 31.7 16.55 31.1 17.0 30.45 17.7 30.45 18.4 30.45 18.9 31.1 19.35 31.7 19.35 32.6 M4.85 49.1 Q4.85 50.15 4.45 50.9 4.05 51.65 3.45 51.65 2.85 51.65 2.45 50.9 2.05 50.15 2.05 49.1 2.05 48.05 2.45 47.3 2.85 46.55 3.45 46.55 4.05 46.55 4.45 47.3 4.85 48.05 4.85 49.1 M36.65 31.25 L34.35 29.55 Q32.9 29.8 33.55 31.4 36.3 38.05 40.35 40.3 40.85 38.8 40.4 37.3 39.3 33.7 36.8 31.4 L37.4 30.5 Q44.15 41.3 40.5 52.5 L38.7 58.7 Q35.35 55.35 36.9 47.7 37.75 43.3 36.4 39.0 L35.95 37.15 Q32.6 36.4 32.25 31.4 32.1 29.2 33.95 28.6 36.05 28.2 36.95 29.9 37.25 30.4 36.95 30.95 L36.65 31.25 M40.1 43.25 Q39.25 43.3 38.9 44.15 38.3 45.8 38.35 47.35 39.05 48.3 39.95 47.6 42.9 45.3 40.1 43.25 M6.0 84.05 L5.1 92.15 Q3.3 90.65 2.5 87.3 1.95 85.0 1.95 82.45 1.95 78.7 3.4 69.9 L5.05 60.35 Q6.2 53.1 6.3 52.95 L6.75 52.9 7.75 53.25 Q8.3 53.25 8.65 52.75 L9.45 51.75 10.15 52.15 Q10.8 52.6 10.9 53.4 L9.35 55.55 9.8 57.5 10.15 59.8 9.85 61.7 9.25 63.0 9.65 62.05 9.6 61.05 9.1 59.25 8.4 57.45 Q7.05 58.45 6.1 60.9 5.35 62.85 5.35 63.85 L6.0 65.3 7.15 67.25 7.6 66.65 7.8 68.35 7.55 69.85 Q7.15 71.6 6.45 79.6 L4.9 75.85 3.3 77.05 Q3.5 80.0 4.0 81.55 4.55 82.65 5.25 83.45 L6.0 84.05 M3.35 60.7 Q3.35 61.7 3.0 62.4 2.6 63.1 2.1 63.1 1.6 63.1 1.25 62.4 0.85 61.7 0.85 60.7 0.85 59.7 1.25 59.0 1.6 58.3 2.1 58.3 2.6 58.3 3.0 59.0 3.35 59.7 3.35 60.7 M17.6 60.7 Q20.15 63.95 17.8 68.3 17.2 69.4 15.75 69.2 13.9 66.35 15.85 61.95 16.35 60.85 17.6 60.7 M19.7 76.45 Q22.25 79.9 23.55 84.25 24.05 85.95 23.05 87.05 19.9 82.85 17.2 76.6 16.55 75.2 17.5 74.65 17.8 76.3 19.7 76.45 M9.1 96.6 Q8.2 95.6 7.25 93.9 L6.4 92.4 Q6.4 91.8 6.65 91.65 L7.3 91.45 Q8.55 92.15 10.55 94.1 12.85 96.35 13.65 98.05 L11.9 97.9 10.1 97.35 Q11.35 97.5 11.5 96.75 L9.9 94.75 9.15 95.2 9.1 96.6 M23.85 91.9 Q26.4 93.65 22.95 94.75 21.9 95.05 21.85 93.9 21.6 92.95 22.5 92.5 L23.85 91.9 M9.15 105.6 L8.45 105.95 10.35 107.75 10.45 107.7 9.15 105.6 M8.45 101.85 L9.95 105.1 Q11.0 107.2 11.0 110.05 L10.75 113.05 10.6 113.15 10.15 113.75 Q8.5 112.95 7.45 111.35 6.35 109.6 6.35 107.4 6.35 104.05 7.0 103.05 L8.45 101.85 M10.2 119.35 L9.75 120.7 Q9.3 121.25 8.65 121.25 8.0 121.25 7.55 120.7 7.1 120.15 7.1 119.35 7.1 118.55 7.55 118.0 8.0 117.45 8.65 117.45 9.3 117.45 9.75 118.0 10.2 118.55 10.2 119.35" fill="#ffffff" fill-opacity="0.4" fill-rule="evenodd" stroke="none"/>
    <path d="M3.0 -55.55 Q0.3 -57.5 -0.4 -61.8 -0.65 -63.3 0.6 -63.55 L1.45 -62.8 Q3.95 -60.45 5.35 -57.05 5.9 -55.7 5.35 -54.45 4.05 -54.85 3.0 -55.55 M7.95 -45.1 Q10.2 -41.9 7.4 -44.65 7.0 -45.05 7.95 -45.1 M-8.6 -15.8 Q-8.2 -15.0 -9.0 -14.55 L-9.3 -14.5 Q-10.95 -14.35 -11.75 -15.35 -12.4 -16.1 -12.5 -17.5 L-12.55 -19.15 Q-12.45 -20.25 -11.55 -20.5 L-11.25 -20.55 -11.2 -20.45 -8.6 -15.8 M-18.9 1.7 Q-18.1 -0.4 -17.5 -0.7 -16.1 0.95 -16.1 2.05 -16.1 2.25 -16.65 3.3 L-17.55 4.85 -18.85 5.0 -18.9 2.5 -17.8 3.45 -17.75 3.4 Q-18.45 2.1 -18.9 1.7 M-29.9 18.35 L-32.7 21.05 -35.95 23.9 -36.6 24.15 -38.05 24.4 -38.65 24.15 -39.95 23.4 Q-37.9 22.05 -35.1 19.15 L-32.3 15.9 -32.55 17.15 Q-32.55 17.75 -32.15 17.75 L-31.45 17.65 Q-30.75 17.6 -29.75 17.0 L-28.65 16.15 -29.9 18.35 M-37.45 31.45 Q-36.8 32.2 -36.75 33.25 L-37.05 35.0 -37.9 35.1 -38.9 34.85 -39.5 34.3 Q-40.15 33.85 -40.15 32.85 -40.15 32.2 -39.35 31.7 L-38.15 30.95 -37.45 31.45 M-51.2 54.55 L-51.0 55.1 -50.8 56.35 -51.15 57.55 Q-51.6 58.8 -52.0 59.45 L-52.85 59.8 -53.75 57.6 -54.15 55.6 -54.0 53.4 -53.75 53.05 Q-53.45 52.7 -52.85 52.7 -52.2 52.7 -51.75 53.45 L-51.2 54.55 M-52.45 62.8 L-52.2 63.95 -51.95 65.85 Q-51.95 69.0 -52.95 69.8 -53.8 70.5 -53.65 73.45 L-54.05 75.45 -55.1 79.1 -56.25 80.5 -57.15 81.05 -58.2 75.15 -56.4 69.3 -55.5 67.75 Q-55.2 67.1 -55.2 66.05 -55.2 63.3 -54.5 62.3 L-53.25 61.2 -52.45 62.8 M-56.2 81.85 Q-55.5 83.6 -55.15 85.7 -54.7 88.75 -55.75 90.1 L-55.8 90.3 -55.85 90.35 -56.65 90.5 -57.3 90.3 -57.55 89.95 -57.7 89.5 -58.15 88.6 -58.75 86.75 -58.8 85.35 Q-58.8 83.0 -57.9 82.05 -56.9 81.45 -56.7 81.05 L-56.2 81.85 M-30.2 12.35 Q-30.45 14.35 -31.55 15.0 L-31.8 15.2 -30.2 12.35 M-29.0 26.8 L-29.0 25.4 Q-28.9 23.45 -27.35 22.9 -26.65 25.0 -26.25 27.4 -26.0 29.05 -25.9 30.9 -25.8 32.45 -25.85 34.15 -25.9 35.95 -27.45 36.6 L-27.85 35.45 Q-29.0 31.7 -29.0 26.8 M-54.4 65.0 L-54.9 65.65 -55.15 66.9 Q-55.15 67.65 -54.6 68.35 -54.0 69.1 -53.2 69.1 -52.55 69.1 -52.45 68.65 L-52.4 67.45 -53.25 66.05 Q-53.85 65.3 -54.4 65.0 M-84.4 61.6 Q-84.05 60.35 -82.9 59.4 -82.0 58.6 -80.65 58.0 L-79.0 57.4 Q-77.35 60.5 -81.75 64.05 -82.95 65.0 -84.5 64.25 -84.8 62.8 -84.4 61.6 M-11.4 62.0 L-13.15 60.9 Q-13.9 60.4 -12.7 60.25 L-11.25 61.6 Q-10.2 62.65 -11.4 62.0 M-38.5 59.2 Q-38.85 58.1 -38.45 56.4 L-38.2 55.9 Q-38.0 55.55 -37.55 55.5 -35.7 57.1 -36.05 60.0 -36.15 60.7 -36.7 61.05 -38.1 60.55 -38.5 59.2 M-55.8 106.35 L-57.2 105.0 -57.15 104.85 -56.6 104.7 -55.65 106.2 -55.8 106.35 M13.9 28.5 L13.15 32.55 Q12.15 36.25 10.3 37.05 9.85 34.95 9.55 31.25 L9.25 27.05 Q9.25 23.65 9.85 22.3 10.4 21.05 12.15 20.1 L13.2 24.3 13.35 25.0 13.2 24.5 Q12.75 23.35 12.15 23.35 11.55 23.35 11.15 24.5 10.7 25.6 10.7 27.15 10.7 28.7 11.15 29.85 11.55 30.95 12.15 30.95 12.75 30.95 13.2 29.85 13.6 28.7 13.6 27.15 L13.55 25.9 13.9 28.5 M36.8 31.4 Q39.3 33.7 40.4 37.3 40.85 38.8 40.35 40.3 36.3 38.05 33.55 31.4 32.9 29.8 34.35 29.55 L36.65 31.25 36.8 31.4 M40.1 43.25 Q42.9 45.3 39.95 47.6 39.05 48.3 38.35 47.35 38.3 45.8 38.9 44.15 39.25 43.3 40.1 43.25 M9.25 63.0 L7.6 66.65 7.15 67.25 6.0 65.3 5.35 63.85 Q5.35 62.85 6.1 60.9 7.05 58.45 8.4 57.45 L9.1 59.25 9.6 61.05 8.55 59.8 Q7.8 60.1 6.95 61.5 6.25 62.65 6.1 63.4 6.2 64.8 7.65 64.1 L9.25 63.0 M6.45 79.6 L6.55 79.95 Q5.9 78.8 5.05 78.2 L4.15 78.75 4.0 81.55 Q3.5 80.0 3.3 77.05 L4.9 75.85 6.45 79.6 M6.8 81.1 L7.05 82.8 Q6.9 83.7 6.35 84.25 L6.0 84.05 5.25 83.45 Q5.9 83.45 6.35 82.75 6.8 82.05 6.8 81.1 M17.5 74.65 Q17.3 73.75 17.55 72.4 17.7 71.65 18.3 71.6 19.9 72.7 20.25 75.0 20.35 75.8 19.9 76.45 L19.7 76.45 Q17.8 76.3 17.5 74.65 M10.1 97.35 L9.1 96.6 9.15 95.2 9.9 94.75 11.5 96.75 Q11.35 97.5 10.1 97.35 M9.15 105.6 L10.45 107.7 10.35 107.75 8.45 105.95 9.15 105.6" fill="#ffffff" fill-opacity="0.69803923" fill-rule="evenodd" stroke="none"/>
    <path d="M-18.9 2.5 Q-18.95 2.15 -19.0 2.45 L-19.4 1.9 Q-19.25 1.85 -19.15 2.1 -19.05 2.4 -18.9 1.7 -18.45 2.1 -17.75 3.4 L-17.8 3.45 -18.9 2.5 M-30.2 12.35 L-29.1 9.7 -28.25 9.25 -27.3 10.95 -26.95 11.95 -27.3 13.4 Q-27.75 14.8 -28.4 15.55 L-28.4 15.65 -28.65 16.15 -29.75 17.0 Q-30.75 17.6 -31.45 17.65 L-32.15 17.75 Q-32.55 17.75 -32.55 17.15 L-32.3 15.9 -31.8 15.2 -31.55 15.0 Q-30.45 14.35 -30.2 12.35 M-54.4 65.0 Q-53.85 65.3 -53.25 66.05 L-52.4 67.45 -52.45 68.65 Q-52.55 69.1 -53.2 69.1 -54.0 69.1 -54.6 68.35 -55.15 67.65 -55.15 66.9 L-54.9 65.65 -54.4 65.0 M13.35 25.0 L13.55 25.9 13.6 27.15 Q13.6 28.7 13.2 29.85 12.75 30.95 12.15 30.95 11.55 30.95 11.15 29.85 10.7 28.7 10.7 27.15 10.7 25.6 11.15 24.5 11.55 23.35 12.15 23.35 12.75 23.35 13.2 24.5 L13.35 25.0 M6.55 79.95 L6.8 81.1 Q6.8 82.05 6.35 82.75 5.9 83.45 5.25 83.45 4.55 82.65 4.0 81.55 L4.15 78.75 5.05 78.2 Q5.9 78.8 6.55 79.95 M9.6 61.05 L9.65 62.05 9.25 63.0 7.65 64.1 Q6.2 64.8 6.1 63.4 6.25 62.65 6.95 61.5 7.8 60.1 8.55 59.8 L9.6 61.05" fill="#ffffff" fill-rule="evenodd" stroke="none"/>
  </g>
</svg>
