<?xml version="1.0" encoding="UTF-8" standalone="no"?>
<svg xmlns:xlink="http://www.w3.org/1999/xlink" height="42.45px" width="169.85px" xmlns="http://www.w3.org/2000/svg">
  <g transform="matrix(1.0, 0.0, 0.0, 1.0, 84.95, 21.2)">
    <path d="M73.95 -8.15 Q76.0 -6.6 76.25 -3.6 89.1 2.5 81.4 9.5 82.5 15.6 75.1 16.7 L50.5 19.2 Q17.65 23.2 -15.85 16.25 -54.65 13.05 -66.9 8.75 -79.2 4.4 -82.0 -0.05 -83.9 -1.75 -84.25 -5.65 -84.65 -9.95 -83.65 -14.0 -82.65 -18.05 -71.4 -19.35 -44.65 -22.4 -25.55 -17.85 -70.3 -5.75 -34.3 2.75 L2.8 4.6 Q23.0 3.4 42.15 -0.85 56.95 -1.85 72.55 -4.1 74.95 -4.85 73.95 -8.15" fill="#ba9848" fill-opacity="0.99607843" fill-rule="evenodd" stroke="none"/>
    <path d="M73.95 -8.15 Q74.95 -4.85 72.55 -4.1 56.95 -1.85 42.15 -0.85 23.0 3.4 2.8 4.6 L-34.3 2.75 Q-70.3 -5.75 -25.55 -17.85 19.55 -8.75 67.4 -9.95 71.7 -9.85 73.95 -8.15" fill="#f4d05f" fill-opacity="0.99607843" fill-rule="evenodd" stroke="none"/>
    <path d="M-66.9 8.75 Q-54.65 13.05 -15.85 16.25 17.65 23.2 50.5 19.2 L75.1 16.7 Q82.5 15.6 81.4 9.5 89.1 2.5 76.25 -3.6 76.0 -6.6 73.95 -8.15 71.7 -9.85 67.4 -9.95 19.55 -8.75 -25.55 -17.85 -44.65 -22.4 -71.4 -19.35 M-83.65 -14.0 Q-84.65 -9.95 -84.25 -5.65 -83.9 -1.75 -82.0 -0.05" fill="none" stroke="#3f274c" stroke-linecap="round" stroke-linejoin="miter-clip" stroke-miterlimit="3.0" stroke-width="1.2000000000000002"/>
    <path d="M-71.4 -19.35 Q-82.65 -18.05 -83.65 -14.0 M-82.0 -0.05 Q-79.2 4.4 -66.9 8.75 Z" fill="none" stroke="#3f274c" stroke-linecap="round" stroke-linejoin="round" stroke-width="1.2000000000000002"/>
    <path d="M81.15 8.95 L81.2 8.9 Q81.75 8.7 81.95 9.25 82.25 9.8 81.6 10.0 L81.0 10.3 79.05 10.9 78.95 10.9 78.8 10.95 78.35 11.05 78.25 11.1 78.1 11.1 77.9 11.15 76.9 11.3 76.4 11.3 76.25 11.35 74.4 11.3 74.15 11.3 73.95 11.25 73.1 11.15 73.0 11.1 72.9 11.1 72.7 11.05 72.35 11.0 72.05 10.9 71.75 10.85 71.55 10.75 71.1 10.6 71.05 10.5 Q71.05 10.35 71.15 10.45 L72.75 10.7 72.95 10.75 73.55 10.75 73.95 10.8 74.9 10.8 75.6 10.7 75.85 10.7 76.05 10.65 76.2 10.65 76.3 10.6 76.8 10.55 77.9 10.25 78.05 10.25 78.15 10.2 78.55 10.05 78.65 10.05 78.95 9.9 79.7 9.65 81.15 8.95 M75.75 -3.9 L75.75 -3.95 76.6 -4.05 Q77.05 -3.7 76.7 -3.25 L76.65 -3.1 76.45 -2.9 76.4 -2.8 76.3 -2.7 76.2 -2.55 75.8 -2.15 75.65 -2.05 75.35 -1.75 75.15 -1.6 75.0 -1.4 74.15 -0.8 72.6 0.0 71.5 0.35 70.35 0.65 70.2 0.7 70.1 0.75 69.25 0.9 69.0 0.9 65.85 1.15 65.35 1.1 65.25 1.05 Q65.15 0.95 65.3 0.95 L67.25 0.75 67.65 0.65 68.15 0.6 69.15 0.4 69.95 0.15 70.05 0.1 70.2 0.1 71.25 -0.25 72.75 -1.0 74.0 -1.9 74.3 -2.2 74.5 -2.35 74.6 -2.5 74.75 -2.65 74.9 -2.75 75.3 -3.3 75.4 -3.4 75.5 -3.6 75.55 -3.65 75.65 -3.8 75.75 -3.9" fill="#3f274c" fill-rule="evenodd" stroke="none"/>
    <path d="M62.65 7.65 Q62.65 6.75 62.2 6.1 61.7 5.45 61.05 5.45 60.4 5.45 59.95 6.1 59.45 6.75 59.35 7.75 59.25 8.75 59.85 9.3 60.4 9.85 61.05 9.85 L62.2 9.2 62.65 7.65 M56.0 5.25 Q53.8 5.25 52.65 4.05 51.35 2.65 52.25 0.4 56.0 0.1 57.5 2.1 58.3 3.05 58.3 4.2 58.3 5.2 56.9 5.15 L56.0 5.25 M64.0 13.1 Q63.75 15.1 62.4 16.0 61.05 16.9 60.4 16.85 L59.65 16.75 59.7 16.65 59.6 14.85 Q59.6 12.55 62.5 12.55 L63.4 12.7 64.0 13.1 M63.4 7.65 Q63.4 8.85 62.7 9.75 62.0 10.6 61.0 10.6 60.0 10.6 59.3 9.75 58.6 8.85 58.6 7.65 58.6 6.45 59.3 5.6 60.0 4.7 61.0 4.7 62.0 4.7 62.7 5.6 63.4 6.45 63.4 7.65 M44.9 16.9 Q48.6 17.0 51.15 14.95 53.7 12.9 53.5 11.5 53.3 10.1 51.85 8.5 50.35 6.85 46.35 7.05 42.35 7.2 39.3 9.4 36.25 11.55 36.65 13.35 37.0 15.15 39.0 15.9 41.15 16.75 44.9 16.9 M57.55 4.05 Q57.75 2.6 55.75 1.55 53.7 0.5 52.85 1.25 L52.85 2.15 Q52.6 4.6 55.75 4.45 L56.75 4.35 57.55 4.05 M54.35 11.4 Q54.35 14.5 49.9 16.35 46.55 17.75 43.45 17.75 40.75 17.75 38.3 16.3 35.95 14.85 35.95 13.45 35.95 9.3 41.05 7.4 44.1 6.3 47.25 6.3 50.1 6.3 52.15 7.65 54.35 9.1 54.35 11.4 M60.7 15.95 Q62.65 15.6 63.2 13.6 L60.6 13.7 Q60.05 15.1 60.7 15.95" fill="#843a42" fill-rule="evenodd" stroke="none"/>
    <path d="M62.65 7.65 L62.2 9.2 61.05 9.85 Q60.4 9.85 59.85 9.3 59.25 8.75 59.35 7.75 59.45 6.75 59.95 6.1 60.4 5.45 61.05 5.45 61.7 5.45 62.2 6.1 62.65 6.75 62.65 7.65 M57.55 4.05 L56.75 4.35 55.75 4.45 Q52.6 4.6 52.85 2.15 L52.85 1.25 Q53.7 0.5 55.75 1.55 57.75 2.6 57.55 4.05 M44.9 16.9 Q41.15 16.75 39.0 15.9 37.0 15.15 36.65 13.35 36.25 11.55 39.3 9.4 42.35 7.2 46.35 7.05 50.35 6.85 51.85 8.5 53.3 10.1 53.5 11.5 53.7 12.9 51.15 14.95 48.6 17.0 44.9 16.9 M60.7 15.95 Q60.05 15.1 60.6 13.7 L63.2 13.6 Q62.65 15.6 60.7 15.95" fill="#e46473" fill-rule="evenodd" stroke="none"/>
  </g>
</svg>
