<?xml version="1.0" encoding="UTF-8" standalone="no"?>
<svg xmlns:xlink="http://www.w3.org/1999/xlink" height="34.6px" width="30.55px" xmlns="http://www.w3.org/2000/svg">
  <g transform="matrix(1.0, 0.0, 0.0, 1.0, 15.25, 17.3)">
    <path d="M2.1 -16.45 Q4.75 -15.6 6.85 -14.4 11.95 -11.5 13.85 -6.7 L14.6 -3.9 Q15.45 5.3 8.8 12.05 2.1 18.75 -3.75 15.75 L-5.8 13.85 Q-9.45 10.3 -11.95 6.3 L-13.8 2.9 Q-16.55 -1.6 -10.55 -10.95 -4.65 -17.85 2.1 -16.45" fill="url(#gradient0)" fill-rule="evenodd" stroke="none"/>
    <path d="M2.1 -16.45 Q4.75 -15.6 6.85 -14.4 11.95 -11.5 13.85 -6.7 L14.6 -3.9 Q15.45 5.3 8.8 12.05 2.1 18.75 -3.75 15.75 L-5.8 13.85 Q-9.45 10.3 -11.95 6.3 L-13.8 2.9 Q-16.55 -1.6 -10.55 -10.95 -4.65 -17.85 2.1 -16.45 Z" fill="none" stroke="#3f274c" stroke-linecap="round" stroke-linejoin="miter-clip" stroke-miterlimit="3.0" stroke-width="1.2000000000000002"/>
  </g>
  <defs>
    <linearGradient gradientTransform="matrix(0.006, 0.0069, -0.0088, 0.0098, 3.45, 2.2)" gradientUnits="userSpaceOnUse" id="gradient0" spreadMethod="pad" x1="-819.2" x2="819.2">
      <stop offset="0.0" stop-color="#30733f"/>
      <stop offset="1.0" stop-color="#8cae77"/>
    </linearGradient>
  </defs>
</svg>
