<?xml version="1.0" encoding="UTF-8" standalone="no"?>
<svg xmlns:xlink="http://www.w3.org/1999/xlink" height="31.35px" width="47.4px" xmlns="http://www.w3.org/2000/svg">
  <g transform="matrix(1.0, 0.0, 0.0, 1.0, 42.3, -15.05)">
    <path d="M5.1 40.55 Q1.55 44.6 -3.05 45.85 L-6.8 46.4 -9.05 46.35 -12.35 45.8 -16.4 44.6 -16.75 44.5 -20.65 42.75 Q-23.3 40.9 -25.55 38.7 L-27.05 37.15 -28.15 35.85 -28.25 35.75 Q-33.6 29.45 -37.0 20.4 -37.65 18.75 -42.3 15.05 -30.2 20.4 -21.7 24.8 -17.35 27.05 -13.0 29.45 L-12.95 29.5 -12.7 29.65 -12.25 29.9 -12.15 30.0 -9.8 31.35 Q-9.5 31.5 -9.45 31.6 L-8.15 32.35 -7.15 32.9 -5.5 33.85 5.1 40.55" fill="#fcfcfc" fill-rule="evenodd" stroke="none"/>
  </g>
</svg>
