<?xml version="1.0" encoding="UTF-8" standalone="no"?>
<svg xmlns:xlink="http://www.w3.org/1999/xlink" height="44.2px" width="81.05px" xmlns="http://www.w3.org/2000/svg">
  <g transform="matrix(1.0, 0.0, 0.0, 1.0, 40.55, 21.8)">
    <path d="M-25.9 -1.65 L-21.3 -1.1 -17.05 3.5 -16.15 -1.2 Q-15.0 -0.95 -10.0 -2.15 -5.15 -3.35 -4.15 -3.95 -1.45 -5.75 1.4 -6.9 3.5 -7.8 3.95 -7.8 L4.7 -7.7 4.75 -7.7 Q5.6 -7.4 6.1 -6.6 L6.55 -5.8 Q6.9 -4.75 6.9 -3.15 6.9 -1.25 5.55 1.25 4.55 3.1 2.35 5.95 L-5.3 4.8 -10.5 4.3 -18.75 4.75 Q-27.35 5.7 -31.85 8.5 L-29.35 2.6 -25.9 -1.65" fill="#a04250" fill-opacity="0.99607843" fill-rule="evenodd" stroke="none"/>
    <path d="M-34.25 -2.15 L-33.0 -3.25 -25.9 -1.65 -29.35 2.6 Q-29.75 1.5 -30.75 0.3 -32.2 -1.35 -34.25 -2.15" fill="#3f274c" fill-rule="evenodd" stroke="none"/>
    <path d="M-31.85 8.5 Q-31.55 4.35 -34.6 2.3 -37.25 0.55 -39.95 1.3 -37.7 0.2 -35.8 -1.05 L-34.25 -2.15 Q-32.2 -1.35 -30.75 0.3 -29.75 1.5 -29.35 2.6 L-31.85 8.5" fill="#ba9848" fill-opacity="0.99607843" fill-rule="evenodd" stroke="none"/>
    <path d="M4.75 -7.7 L10.3 -12.05 Q13.3 -13.4 16.1 -14.85 19.15 -16.4 31.9 -20.45 L36.15 -21.8 39.95 -16.75 39.9 -16.75 3.3 13.5 Q1.8 14.0 -6.25 18.0 -14.8 21.8 -20.55 21.8 -22.05 21.8 -24.65 20.75 -26.95 19.8 -27.75 19.05 -22.05 21.35 -12.3 16.75 -3.15 12.45 2.35 5.95 4.55 3.1 5.55 1.25 6.9 -1.25 6.9 -3.15 6.9 -4.75 6.55 -5.8 L6.1 -6.6 Q5.6 -7.4 4.75 -7.7" fill="#c3a04b" fill-rule="evenodd" stroke="none"/>
    <path d="M-27.75 19.05 Q-29.85 18.2 -31.8 16.25 -33.5 14.5 -33.5 13.7 L-33.25 12.3 -31.85 8.5 Q-27.35 5.7 -18.75 4.75 L-10.5 4.3 -5.3 4.8 2.35 5.95 Q-3.15 12.45 -12.3 16.75 -22.05 21.35 -27.75 19.05" fill="#d57880" fill-opacity="0.99607843" fill-rule="evenodd" stroke="none"/>
    <path d="M4.7 -7.7 L4.75 -7.7 Q5.6 -7.4 6.1 -6.6 L6.55 -5.8 Q6.9 -4.75 6.9 -3.15 6.9 -1.25 5.55 1.25 4.55 3.1 2.35 5.95 -3.15 12.45 -12.3 16.75 -22.05 21.35 -27.75 19.05 -29.85 18.2 -31.8 16.25 -33.5 14.5 -33.5 13.7 L-33.25 12.3 -31.85 8.5 Q-31.55 4.35 -34.6 2.3 -37.25 0.55 -39.95 1.3 M39.9 -16.75 L3.3 13.5 Q1.8 14.0 -6.25 18.0 -14.8 21.8 -20.55 21.8 -22.05 21.8 -24.65 20.75 -26.95 19.8 -27.75 19.05 M-25.9 -1.65 L-29.35 2.6 -31.85 8.5 M-29.35 2.6 Q-29.75 1.5 -30.75 0.3 -32.2 -1.35 -34.25 -2.15" fill="none" stroke="#3f274c" stroke-linecap="round" stroke-linejoin="round" stroke-width="1.2000000000000002"/>
  </g>
</svg>
