<?xml version="1.0" encoding="UTF-8" standalone="no"?>
<svg xmlns:xlink="http://www.w3.org/1999/xlink" height="225.55px" width="212.3px" xmlns="http://www.w3.org/2000/svg">
  <g transform="matrix(1.0, 0.0, 0.0, 1.0, 106.05, 113.05)">
    <path d="M100.2 -110.8 L105.45 -112.25 Q85.25 -89.5 65.5 -68.6 54.0 -56.4 52.65 -53.9 L53.1 -53.6 Q54.85 -54.4 63.1 -60.1 73.4 -67.25 81.25 -73.85 L80.75 -73.15 68.25 -55.85 67.8 -55.25 57.8 -42.8 42.75 -29.7 42.65 -29.55 41.35 -28.45 41.15 -28.25 27.45 -15.2 Q15.2 3.5 9.25 15.25 3.8 26.05 0.1 38.15 -1.8 44.45 -7.4 52.25 -13.7 61.0 -20.95 66.0 -34.05 57.8 -46.0 57.8 -51.2 57.8 -55.15 59.3 -57.55 60.2 -63.85 62.85 L-59.1 59.3 -54.35 55.95 Q-60.6 53.1 -69.85 42.35 -76.05 35.15 -79.6 29.5 L-80.85 27.4 -81.25 26.7 -81.1 27.0 Q-87.6 14.7 -92.95 3.15 L-103.65 -21.05 Q-105.45 -34.45 -105.45 -51.15 -105.45 -63.45 -102.9 -75.3 -101.55 -81.85 -98.9 -91.1 -90.4 -78.7 -74.9 -66.6 -58.0 -53.45 -48.05 -53.45 -47.5 -53.45 -32.3 -62.25 -48.8 -51.55 -56.75 -37.5 -62.3 -27.55 -62.3 -19.4 -62.3 -16.15 -60.95 -10.05 -59.35 -2.6 -56.65 3.75 -49.0 21.7 -36.9 21.7 L-30.35 21.0 -25.3 19.8 Q-25.4 21.4 -24.55 29.8 -23.75 38.2 -22.15 37.3 L-19.6 18.05 Q-14.25 17.55 -13.65 15.2 L-12.8 3.75 Q-12.2 -2.1 -4.7 -13.1 3.05 -24.4 10.4 -29.65 13.35 -31.7 15.35 -34.65 L19.35 -40.25 Q38.75 -62.5 40.75 -70.5 L48.15 -76.6 48.7 -77.0 48.95 -77.25 49.2 -77.45 Q62.15 -88.35 78.8 -99.15 95.15 -109.8 100.25 -110.8 L100.2 -110.8 M100.5 -95.95 Q89.25 -58.3 84.9 -26.7 81.85 -4.9 81.85 17.4 82.45 36.85 82.95 44.55 83.8 50.65 83.8 52.95 L83.65 55.25 Q83.95 56.75 82.5 60.3 80.8 64.45 78.05 67.3 L72.45 72.25 71.65 72.55 Q73.0 71.1 73.8 68.9 74.55 66.95 74.55 65.35 74.55 58.0 70.65 50.45 66.35 42.05 59.95 39.3 69.4 17.1 74.9 -8.6 82.6 -49.0 90.7 -87.2 93.85 -88.75 97.1 -91.9 99.75 -94.45 100.5 -95.95 M-65.7 65.25 L-65.45 62.75 -65.45 62.7 -63.85 62.85 -65.7 65.25 M27.45 -15.2 Q29.3 -18.0 41.15 -28.25 29.3 -18.0 27.45 -15.2 M-69.9 -6.25 Q-70.6 17.55 -64.45 31.95 -60.3 41.7 -55.45 43.75 L-55.1 43.7 -54.9 42.95 Q-55.85 35.45 -58.2 25.8 -62.9 6.6 -69.9 -6.25" fill="#72567e" fill-opacity="0.99607843" fill-rule="evenodd" stroke="none"/>
    <path d="M105.45 -112.25 L100.55 -96.2 100.5 -95.95 Q99.75 -94.45 97.1 -91.9 93.85 -88.75 90.7 -87.2 L81.25 -73.85 Q73.4 -67.25 63.1 -60.1 54.85 -54.4 53.1 -53.6 L52.65 -53.9 Q54.0 -56.4 65.5 -68.6 85.25 -89.5 105.45 -112.25 M-68.25 73.2 L-67.65 69.95 -65.7 65.25 -63.85 62.85 Q-57.55 60.2 -55.15 59.3 -51.2 57.8 -46.0 57.8 -34.05 57.8 -20.95 66.0 -34.2 74.65 -38.55 76.6 L-40.3 77.3 -40.45 77.35 -43.4 78.05 -43.55 78.1 -44.9 78.3 -49.4 78.55 -49.7 78.55 -58.0 77.7 Q-63.55 76.45 -68.25 73.2 M-32.3 -62.25 L-26.6 -64.85 Q-22.2 -66.75 -17.55 -68.1 -3.6 -72.05 16.8 -72.05 33.35 -72.05 40.75 -70.5 38.75 -62.5 19.35 -40.25 L15.35 -34.65 Q13.35 -31.7 10.4 -29.65 3.05 -24.4 -4.7 -13.1 -12.2 -2.1 -12.8 3.75 L-13.65 15.2 Q-14.25 17.55 -19.6 18.05 L-14.8 -10.9 -14.4 -14.15 Q-14.3 -16.1 -14.5 -16.55 L-14.8 -16.4 Q-18.2 -10.95 -21.35 -0.1 -24.9 11.85 -25.3 19.8 L-30.35 21.0 -36.9 21.7 Q-49.0 21.7 -56.65 3.75 -59.35 -2.6 -60.95 -10.05 -62.3 -16.15 -62.3 -19.4 -62.3 -27.55 -56.75 -37.5 -48.8 -51.55 -32.3 -62.25 M-44.9 78.3 L-43.4 78.05 -44.9 78.3" fill="#8a6f90" fill-rule="evenodd" stroke="none"/>
    <path d="M-67.75 78.3 Q-68.5 75.7 -68.25 73.2 -63.55 76.45 -58.0 77.7 L-49.7 78.55 -49.4 78.55 -44.9 78.3 -43.55 78.1 -43.4 78.05 -40.45 77.35 -40.3 77.3 -38.55 76.6 Q-34.2 74.65 -20.95 66.0 -13.7 61.0 -7.4 52.25 -1.8 44.45 0.1 38.15 3.8 26.05 9.25 15.25 15.2 3.5 27.45 -15.2 L41.15 -28.25 41.35 -28.45 42.65 -29.55 42.75 -29.7 57.8 -42.8 67.8 -55.25 68.25 -55.85 80.75 -73.15 81.25 -73.85 90.7 -87.2 Q82.6 -49.0 74.9 -8.6 69.4 17.1 59.95 39.3 56.95 48.35 42.45 58.45 26.9 69.25 13.65 69.25 L6.7 68.4 -3.55 67.55 Q-15.25 67.55 -24.5 73.65 -33.4 79.5 -39.2 90.45 -44.15 89.3 -54.25 84.5 -62.7 80.45 -67.0 80.45 L-67.75 78.3 M-67.05 58.05 Q-84.8 46.15 -94.05 22.7 -100.9 5.25 -103.65 -21.05 L-92.95 3.15 Q-87.6 14.7 -81.1 27.0 L-80.85 27.4 -79.6 29.5 Q-72.3 41.75 -69.55 48.2 -67.3 53.5 -67.05 58.05 M47.3 10.8 L47.5 10.2 Q41.45 9.0 36.2 9.4 19.4 10.65 10.7 27.8 5.7 42.05 4.75 50.35 4.2 54.7 4.8 57.35 6.25 58.15 8.15 58.8 11.8 60.15 15.1 60.15 30.4 60.15 40.05 43.05 42.6 38.6 44.25 34.05 51.45 17.2 49.45 7.3 L47.3 10.8 M6.2 32.7 Q6.05 31.1 7.4 27.5 8.9 23.25 11.25 20.45 8.9 23.25 7.4 27.5 6.05 31.1 6.2 32.7" fill="#f17e8f" fill-rule="evenodd" stroke="none"/>
    <path d="M44.25 34.05 Q48.35 22.8 47.3 10.8 L49.45 7.3 Q51.45 17.2 44.25 34.05" fill="#3f274c" fill-rule="evenodd" stroke="none"/>
    <path d="M38.85 86.95 L34.6 88.3 Q21.85 92.35 18.8 93.9 L13.0 96.7 Q5.3 100.1 -3.4 102.5 -18.9 106.8 -30.3 105.5 -33.1 104.95 -36.05 101.1 -39.5 96.6 -39.0 91.6 L-39.2 91.6 -39.2 90.45 Q-30.35 77.4 -22.1 72.4 -14.15 67.6 -2.05 67.6 L2.8 68.0 10.0 69.0 13.65 69.25 Q26.9 69.25 42.45 58.45 56.95 48.35 59.95 39.3 66.35 42.05 70.65 50.45 74.55 58.0 74.55 65.35 74.55 66.95 73.8 68.9 73.0 71.1 71.65 72.55 62.95 75.15 51.95 81.5 47.8 83.9 38.85 86.95 M-19.6 18.05 L-22.15 37.3 Q-23.75 38.2 -24.55 29.8 -25.4 21.4 -25.3 19.8 -24.9 11.85 -21.35 -0.1 -18.2 -10.95 -14.8 -16.4 L-14.5 -16.55 Q-14.3 -16.1 -14.4 -14.15 L-14.8 -10.9 -19.6 18.05 M-69.9 -6.25 Q-62.9 6.6 -58.2 25.8 -55.85 35.45 -54.9 42.95 L-55.1 43.7 -55.45 43.75 Q-60.3 41.7 -64.45 31.95 -70.6 17.55 -69.9 -6.25" fill="#f4d05f" fill-opacity="0.99607843" fill-rule="evenodd" stroke="none"/>
    <path d="M72.45 72.25 L69.4 74.95 71.65 72.55 72.45 72.25" fill="#804f9a" fill-rule="evenodd" stroke="none"/>
    <path d="M69.4 74.95 L66.25 77.75 57.55 83.65 Q49.7 88.5 42.65 92.0 37.95 91.15 38.85 86.95 47.8 83.9 51.95 81.5 62.95 75.15 71.65 72.55 L69.4 74.95 M13.0 96.7 Q11.9 100.05 7.45 101.05 L8.1 101.3 6.65 100.95 Q6.2 100.95 4.1 101.85 1.25 103.0 -1.45 104.8 -2.45 105.4 -7.3 106.6 -12.3 107.8 -13.45 107.55 L-18.6 107.65 -23.2 107.1 -30.3 105.5 -31.55 106.6 -33.1 107.7 Q-35.0 108.95 -37.25 110.05 L-37.25 110.0 -39.7 110.45 -40.9 110.45 Q-52.95 110.35 -60.0 103.9 -65.7 98.65 -66.4 91.6 L-66.35 91.6 -66.85 87.9 -67.0 80.45 Q-62.7 80.45 -54.25 84.5 -44.15 89.3 -39.2 90.45 L-39.2 91.6 -39.0 91.6 Q-39.5 96.6 -36.05 101.1 -33.1 104.95 -30.3 105.5 -18.9 106.8 -3.4 102.5 5.3 100.1 13.0 96.7" fill="#c3a04b" fill-rule="evenodd" stroke="none"/>
    <path d="M-65.45 62.7 L-66.15 60.35 -67.05 58.05 Q-67.3 53.5 -69.55 48.2 -72.3 41.75 -79.6 29.5 -76.05 35.15 -69.85 42.35 -60.6 53.1 -54.35 55.95 L-59.1 59.3 -63.85 62.85 -65.45 62.7 M-80.85 27.4 L-81.1 27.0 -81.25 26.7 -80.85 27.4" fill="#634b6c" fill-rule="evenodd" stroke="none"/>
    <path d="M-13.45 107.55 L-14.35 112.25 -18.6 107.65 -13.45 107.55" fill="#ffffff" fill-rule="evenodd" stroke="none"/>
    <path d="M100.2 -110.8 L105.45 -112.25 100.55 -96.2 M100.5 -95.95 Q89.25 -58.3 84.9 -26.7 81.85 -4.9 81.85 17.4 82.45 36.85 82.95 44.55 M83.65 55.25 Q83.95 56.75 82.5 60.3 80.8 64.45 78.05 67.3 M66.25 77.75 L57.55 83.65 Q49.7 88.5 42.65 92.0 M-39.7 110.45 L-40.9 110.45 Q-52.95 110.35 -60.0 103.9 -65.7 98.65 -66.4 91.6 M-66.35 91.6 L-66.85 87.9 -67.0 80.45 -67.6 79.1 -67.75 78.3 Q-68.5 75.7 -68.25 73.2 L-67.65 69.95 -65.7 65.25 -65.45 62.75 -65.45 62.7 -66.15 60.35 -67.05 58.05 Q-84.8 46.15 -94.05 22.7 -100.9 5.25 -103.65 -21.05 -105.45 -34.45 -105.45 -51.15 -105.45 -63.45 -102.9 -75.3 -101.55 -81.85 -98.9 -91.1 -90.4 -78.7 -74.9 -66.6 -58.0 -53.45 -48.05 -53.45 -47.5 -53.45 -32.3 -62.25 L-26.6 -64.85 Q-22.2 -66.75 -17.55 -68.1 -3.6 -72.05 16.8 -72.05 33.35 -72.05 40.75 -70.5 L48.15 -76.6 48.95 -77.25 M49.2 -77.45 Q62.15 -88.35 78.8 -99.15 95.15 -109.8 100.25 -110.8 M48.15 -76.6 L48.7 -77.0 M49.45 7.3 Q51.45 17.2 44.25 34.05 M-67.0 80.45 L-67.75 78.3 M-54.35 55.95 L-59.1 59.3 -63.85 62.85 -65.7 65.25" fill="none" stroke="#3f274c" stroke-linecap="round" stroke-linejoin="miter-clip" stroke-miterlimit="3.0" stroke-width="1.2000000000000002"/>
    <path d="M82.95 44.55 Q83.8 50.65 83.8 52.95 L83.65 55.25 M78.05 67.3 L72.45 72.25 69.4 74.95 66.25 77.75 M8.1 101.3 L6.65 100.95 Q6.2 100.95 4.1 101.85 1.25 103.0 -1.45 104.8 -2.45 105.4 -7.3 106.6 -12.3 107.8 -13.45 107.55 L-18.6 107.65 -23.2 107.1 -30.3 105.5 -31.55 106.6 -33.1 107.7 Q-35.0 108.95 -37.25 110.05 L-37.25 110.0 -39.7 110.45 M81.25 -73.85 L80.75 -73.15 68.25 -55.85 67.8 -55.25 57.8 -42.8 42.75 -29.7 42.65 -29.55 41.35 -28.45 41.15 -28.25 Q29.3 -18.0 27.45 -15.2 15.2 3.5 9.25 15.25 3.8 26.05 0.1 38.15 -1.8 44.45 -7.4 52.25 -13.7 61.0 -20.95 66.0 -34.2 74.65 -38.55 76.6 L-40.3 77.3 -40.45 77.35 -43.4 78.05 -44.9 78.3 -49.4 78.55 -49.7 78.55 -58.0 77.7 Q-63.55 76.45 -68.25 73.2 M-43.55 78.1 L-44.9 78.3 M90.7 -87.2 L81.25 -73.85 M59.95 39.3 Q69.4 17.1 74.9 -8.6 82.6 -49.0 90.7 -87.2 M11.25 20.45 Q8.9 23.25 7.4 27.5 6.05 31.1 6.2 32.7 M-39.2 90.45 Q-30.35 77.4 -22.1 72.4 -14.15 67.6 -2.05 67.6 L2.8 68.0 10.0 69.0 13.65 69.25 Q26.9 69.25 42.45 58.45 56.95 48.35 59.95 39.3 M-39.2 90.45 Q-44.15 89.3 -54.25 84.5 -62.7 80.45 -67.0 80.45 M-79.6 29.5 L-80.85 27.4 -81.1 27.0 Q-87.6 14.7 -92.95 3.15 L-103.65 -21.05 M-67.05 58.05 Q-67.3 53.5 -69.55 48.2 -72.3 41.75 -79.6 29.5 M-39.2 90.45 L-39.2 91.6 M-39.0 91.6 Q-39.5 96.6 -36.05 101.1 -33.1 104.95 -30.3 105.5" fill="none" stroke="#3f274c" stroke-linecap="round" stroke-linejoin="round" stroke-width="1.2000000000000002"/>
    <path d="M4.8 57.35 Q6.25 58.15 8.15 58.8 11.8 60.15 15.1 60.15 30.4 60.15 40.05 43.05 42.6 38.6 44.25 34.05 48.35 22.8 47.3 10.8" fill="none" stroke="#3f274c" stroke-linecap="round" stroke-linejoin="miter-clip" stroke-miterlimit="3.0" stroke-width="1.5"/>
    <path d="M71.65 72.55 L72.45 72.25" fill="none" stroke="#3f274c" stroke-linecap="round" stroke-linejoin="round" stroke-width="0.05"/>
    <path d="M-13.45 107.55 L-14.35 112.25 -18.6 107.65" fill="none" stroke="#3f274c" stroke-linecap="round" stroke-linejoin="round" stroke-width="0.5"/>
  </g>
</svg>
