<?xml version="1.0" encoding="UTF-8" standalone="no"?>
<svg xmlns:xlink="http://www.w3.org/1999/xlink" height="256.3px" width="200.7px" xmlns="http://www.w3.org/2000/svg">
  <g transform="matrix(1.0, 0.0, 0.0, 1.0, 104.75, 120.9)">
    <path d="M95.35 -120.3 Q92.35 -115.4 90.6 -111.85 L83.1 -96.3 82.0 -93.85 Q75.95 -81.5 68.05 -66.85 59.65 -51.2 49.1 -33.0 47.55 -29.6 44.65 -26.6 42.9 -41.85 70.35 -88.1 83.2 -108.05 95.35 -120.3 M-64.1 88.05 L-64.1 88.0 Q-47.0 101.25 -1.7 77.7 L-1.7 77.75 Q-7.35 88.25 -14.65 94.2 -28.85 105.8 -49.3 100.2 -63.5 97.2 -64.1 88.05 M-91.15 -107.35 Q-88.1 -109.05 -85.3 -102.9 -79.85 -74.95 -60.05 -62.45 -69.9 -60.1 -80.45 -77.5 -90.95 -94.8 -91.15 -107.35 M-52.0 -68.0 L-47.75 -70.25 Q-33.95 -76.95 -15.45 -77.3 2.45 -77.7 24.75 -72.2 3.2 -73.7 1.6 -45.95 0.0 -18.2 -9.3 -2.6 -13.55 6.7 -12.85 29.55 -13.0 38.05 -19.6 38.45 -18.25 13.6 -19.7 -10.1 -30.35 23.3 -23.8 43.45 -35.0 57.0 -49.55 44.6 -61.5 29.1 -61.4 7.55 L-62.0 -1.05 Q-79.8 -51.15 -52.0 -68.0" fill="#8a6f90" fill-rule="evenodd" stroke="none"/>
    <path d="M95.35 -120.3 Q83.2 -108.05 70.35 -88.1 42.9 -41.85 44.65 -26.6 L42.4 -24.55 Q25.3 -10.45 15.65 3.15 -6.4 28.35 -1.7 77.7 -47.0 101.25 -64.1 88.0 L-64.0 85.7 Q-63.45 80.4 -58.95 73.25 L-61.35 70.2 -63.65 67.2 Q-89.0 32.95 -99.2 -15.7 -110.75 -70.5 -95.3 -101.6 -93.15 -106.2 -91.15 -107.35 -90.95 -94.8 -80.45 -77.5 -69.9 -60.1 -60.05 -62.45 L-60.0 -62.4 Q-56.25 -65.55 -52.0 -68.0 -79.8 -51.15 -62.0 -1.05 L-61.4 7.55 Q-61.5 29.1 -49.55 44.6 -35.0 57.0 -23.8 43.45 -22.5 47.5 -20.45 51.05 L-19.6 38.45 Q-13.0 38.05 -12.85 29.55 -13.55 6.7 -9.3 -2.6 0.0 -18.2 1.6 -45.95 3.2 -73.7 24.75 -72.2 30.3 -70.85 36.1 -69.1 43.2 -79.45 50.3 -87.75 57.75 -96.4 65.15 -102.85 80.2 -116.05 95.35 -120.3 M83.1 -96.3 L90.6 -111.85 Q85.65 -90.05 82.2 -66.2 L82.0 -64.8 Q75.15 -26.15 76.2 8.7 77.3 33.15 81.2 42.3 82.55 50.05 77.85 79.45 L77.45 82.0 66.15 84.65 Q76.15 56.95 70.35 35.85 68.4 28.85 61.75 24.95 68.15 6.6 69.75 -10.3 72.35 -37.6 77.2 -65.5 79.85 -80.8 83.1 -96.3 M26.75 -54.6 Q31.4 -62.3 36.1 -69.1 31.4 -62.3 26.75 -54.6 M-79.2 -35.1 Q-77.15 -40.2 -74.6 -44.65 -68.6 -55.25 -60.0 -62.4 -68.6 -55.25 -74.6 -44.65 -77.15 -40.2 -79.2 -35.1 M-73.3 3.65 Q-76.85 39.9 -58.85 60.3 -57.15 60.4 -65.05 44.8 -71.4 25.15 -71.1 5.1 -72.2 1.85 -73.3 3.65" fill="#72567e" fill-opacity="0.99607843" fill-rule="evenodd" stroke="none"/>
    <path d="M44.65 -26.6 Q47.55 -29.6 49.1 -33.0 59.65 -51.2 68.05 -66.85 75.95 -81.5 82.0 -93.85 L83.1 -96.3 Q79.85 -80.8 77.2 -65.5 72.35 -37.6 69.75 -10.3 68.15 6.6 61.75 24.95 44.25 75.1 9.05 78.7 4.1 79.95 -6.7 93.0 -20.0 104.15 -23.7 118.1 -36.85 108.05 -65.7 99.3 -67.05 92.15 -64.1 88.05 -63.5 97.2 -49.3 100.2 -28.85 105.8 -14.65 94.2 -7.35 88.25 -1.7 77.75 L-1.7 77.7 Q-6.4 28.35 15.65 3.15 25.3 -10.45 42.4 -24.55 L44.65 -26.6 M-77.9 57.7 Q-86.7 51.0 -89.9 46.7 -97.65 31.65 -99.2 -15.7 -89.0 32.95 -63.65 67.2 L-66.4 65.55 -67.8 64.7 -71.05 62.6 -71.8 62.1 -76.8 58.55 -77.9 57.7 M44.65 5.6 L43.5 9.2 43.45 9.1 42.9 8.7 Q41.8 8.1 30.1 10.75 18.35 13.4 12.9 28.25 7.45 43.1 6.9 50.15 6.35 57.15 7.95 61.25 8.4 62.45 9.3 63.35 11.35 65.45 15.7 65.9 21.9 66.5 29.35 61.3 38.15 55.15 42.3 43.9 L43.55 40.0 Q53.1 11.05 44.65 5.6" fill="#f17e8f" fill-rule="evenodd" stroke="none"/>
    <path d="M43.5 9.2 L44.65 5.6 Q53.1 11.05 43.55 40.0 46.95 27.65 44.45 11.4 44.2 9.9 43.5 9.2 M-66.4 65.55 L-63.65 67.2 -61.35 70.2 -61.5 73.05 -65.4 72.25 Q-67.55 69.2 -66.4 65.55" fill="#3f274c" fill-rule="evenodd" stroke="none"/>
    <path d="M66.15 84.65 L44.15 90.1 44.1 90.15 Q34.65 92.1 28.65 100.95 L28.2 103.95 Q25.6 116.2 13.2 123.9 -5.9 128.95 -20.95 122.85 -23.25 120.55 -23.7 118.1 -20.0 104.15 -6.7 93.0 4.1 79.95 9.05 78.7 44.25 75.1 61.75 24.95 68.4 28.85 70.35 35.85 76.15 56.95 66.15 84.65 M-23.8 43.45 Q-30.35 23.3 -19.7 -10.1 -18.25 13.6 -19.6 38.45 L-20.45 51.05 Q-22.5 47.5 -23.8 43.45 M-73.3 3.65 Q-72.2 1.85 -71.1 5.1 -71.4 25.15 -65.05 44.8 -57.15 60.4 -58.85 60.3 -76.85 39.9 -73.3 3.65" fill="#f4d05f" fill-opacity="0.99607843" fill-rule="evenodd" stroke="none"/>
    <path d="M13.2 123.9 Q10.3 127.7 6.95 130.2 -7.05 140.85 -28.75 126.95 -38.65 130.15 -50.35 124.95 -67.6 115.8 -65.7 99.3 -36.85 108.05 -23.7 118.1 -23.25 120.55 -20.95 122.85 -5.9 128.95 13.2 123.9 M-64.0 85.7 Q-75.6 81.5 -77.9 57.7 L-76.8 58.55 Q-76.2 65.2 -72.05 68.85 -69.45 71.15 -65.4 72.25 L-61.5 73.05 -58.95 73.25 Q-63.45 80.4 -64.0 85.7 M-20.95 122.85 Q-24.75 125.6 -28.75 126.95 -24.75 125.6 -20.95 122.85" fill="#c3a04b" fill-rule="evenodd" stroke="none"/>
    <path d="M-71.8 62.1 L-71.05 62.6 Q-71.55 67.0 -70.4 66.85 -68.75 67.05 -67.8 64.7 L-66.4 65.55 Q-67.55 69.2 -65.4 72.25 -69.45 71.15 -72.05 68.85 -73.25 65.05 -71.8 62.1 M-61.5 73.05 L-61.35 70.2 -58.95 73.25 -61.5 73.05" fill="url(#gradient0)" fill-rule="evenodd" stroke="none"/>
    <path d="M-76.8 58.55 L-71.8 62.1 Q-73.25 65.05 -72.05 68.85 -76.2 65.2 -76.8 58.55 M-71.05 62.6 L-67.8 64.7 Q-68.75 67.05 -70.4 66.85 -71.55 67.0 -71.05 62.6" fill="#ffffff" fill-rule="evenodd" stroke="none"/>
    <path d="M90.6 -111.85 Q92.35 -115.4 95.35 -120.3 80.2 -116.05 65.15 -102.85 57.75 -96.4 50.3 -87.75 43.2 -79.45 36.1 -69.1 31.4 -62.3 26.75 -54.6 M44.65 -26.6 Q47.55 -29.6 49.1 -33.0 59.65 -51.2 68.05 -66.85 75.95 -81.5 82.0 -93.85 L83.1 -96.3 90.6 -111.85 Q85.65 -90.05 82.2 -66.2 L82.0 -64.8 Q75.15 -26.15 76.2 8.7 77.3 33.15 81.2 42.3 82.55 50.05 77.85 79.45 L77.45 82.0 M28.65 100.95 L28.2 103.95 Q25.6 116.2 13.2 123.9 10.3 127.7 6.95 130.2 -7.05 140.85 -28.75 126.95 -38.65 130.15 -50.35 124.95 -67.6 115.8 -65.7 99.3 -67.05 92.15 -64.1 88.05 L-64.1 88.0 -64.0 85.7 Q-75.6 81.5 -77.9 57.7 -86.7 51.0 -89.9 46.7 -97.65 31.65 -99.2 -15.7 -110.75 -70.5 -95.3 -101.6 -93.15 -106.2 -91.15 -107.35 -88.1 -109.05 -85.3 -102.9 -79.85 -74.95 -60.05 -62.45 L-60.0 -62.4 Q-56.25 -65.55 -52.0 -68.0 L-47.75 -70.25 Q-33.95 -76.95 -15.45 -77.3 2.45 -77.7 24.75 -72.2 30.3 -70.85 36.1 -69.1 M44.65 -26.6 L42.4 -24.55 Q25.3 -10.45 15.65 3.15 -6.4 28.35 -1.7 77.7 L-1.7 77.75 Q-7.35 88.25 -14.65 94.2 -28.85 105.8 -49.3 100.2 -63.5 97.2 -64.1 88.05 M83.1 -96.3 Q79.85 -80.8 77.2 -65.5 72.35 -37.6 69.75 -10.3 68.15 6.6 61.75 24.95 44.25 75.1 9.05 78.7 4.1 79.95 -6.7 93.0 -20.0 104.15 -23.7 118.1 -23.25 120.55 -20.95 122.85 -5.9 128.95 13.2 123.9 M43.5 9.2 Q44.2 9.9 44.45 11.4 46.95 27.65 43.55 40.0 L42.3 43.9 Q38.15 55.15 29.35 61.3 21.9 66.5 15.7 65.9 11.35 65.45 9.3 63.35 M43.5 9.2 L43.45 9.1 M-60.0 -62.4 Q-68.6 -55.25 -74.6 -44.65 -77.15 -40.2 -79.2 -35.1 M-77.9 57.7 L-76.8 58.55 -71.8 62.1 -71.05 62.6 -67.8 64.7 -66.4 65.55 -63.65 67.2 Q-89.0 32.95 -99.2 -15.7 M-71.8 62.1 Q-73.25 65.05 -72.05 68.85 -69.45 71.15 -65.4 72.25 L-61.5 73.05 -58.95 73.25 Q-63.45 80.4 -64.0 85.7 M-61.35 70.2 L-63.65 67.2 M-72.05 68.85 Q-76.2 65.2 -76.8 58.55 M-61.35 70.2 L-58.95 73.25 M-28.75 126.95 Q-24.75 125.6 -20.95 122.85 M-23.7 118.1 Q-36.85 108.05 -65.7 99.3" fill="none" stroke="#3f274c" stroke-linecap="round" stroke-linejoin="round" stroke-width="1.2000000000000002"/>
    <path d="M43.55 40.0 Q53.1 11.05 44.65 5.6" fill="none" stroke="#3f274c" stroke-linecap="round" stroke-linejoin="miter-clip" stroke-miterlimit="3.0" stroke-width="1.2000000000000002"/>
    <path d="M29.25 96.1 L29.25 99.2 32.55 95.6 35.45 93.4 36.6 92.7 38.6 91.7 40.05 91.1 40.4 91.0 40.6 90.9 40.75 90.85 43.85 90.05 44.05 90.05 44.15 90.1 44.1 90.2 41.85 90.85 40.75 91.25 39.15 91.95 36.55 93.45 35.85 94.0 35.45 94.25 33.45 95.95 31.75 97.75 30.85 98.85 29.8 100.2 29.25 101.1 29.2 101.15 Q29.1 101.65 28.55 101.55 L28.5 101.55 28.35 101.5 28.25 101.45 28.2 101.4 28.1 101.3 Q27.9 101.0 28.1 100.75 L28.2 99.5 28.2 99.25 28.25 99.05 28.25 98.55 28.3 98.25 28.3 93.75 28.2 93.0 28.2 92.65 27.4 87.25 27.2 86.55 27.1 85.9 27.15 85.8 27.25 85.85 28.35 89.9 28.45 90.55 28.55 90.85 29.2 95.4 29.2 95.75 29.25 96.1" fill="#3f274c" fill-rule="evenodd" stroke="none"/>
  </g>
  <defs>
    <linearGradient gradientTransform="matrix(0.0083, 0.0, 0.0, 0.0068, -65.8, 67.65)" gradientUnits="userSpaceOnUse" id="gradient0" spreadMethod="pad" x1="-819.2" x2="819.2">
      <stop offset="0.0" stop-color="#30733f"/>
      <stop offset="1.0" stop-color="#8cae77"/>
    </linearGradient>
  </defs>
</svg>
