<?xml version="1.0" encoding="UTF-8" standalone="no"?>
<svg xmlns:xlink="http://www.w3.org/1999/xlink" height="55.5px" width="33.8px" xmlns="http://www.w3.org/2000/svg">
  <g transform="matrix(1.0, 0.0, 0.0, 1.0, 31.8, -23.2)">
    <path d="M-1.5 24.05 Q1.4 34.8 1.95 48.45 2.4 62.15 -3.4 70.85 -9.25 79.45 -14.45 78.6 L-14.5 78.6 -20.7 77.25 -23.25 76.3 Q-26.5 74.75 -29.4 66.45 -34.5 52.95 -28.75 39.65 -25.75 30.75 -11.35 23.8 -20.0 28.3 -25.0 37.4 -32.95 55.85 -23.0 67.65 -21.4 69.9 -19.55 71.35 -17.0 69.25 -18.0 57.1 L-1.5 24.05" fill="#c3a04b" fill-rule="evenodd" stroke="none"/>
    <path d="M-12.65 45.25 Q-10.85 35.05 -9.45 31.7 -8.0 28.4 -5.75 29.55 -3.55 30.85 -3.75 38.5 -4.0 44.45 -6.85 59.8 -9.7 75.35 -12.65 73.6 -15.75 73.1 -15.05 64.2 -14.4 55.3 -12.65 45.25" fill="url(#gradient0)" fill-rule="evenodd" stroke="none"/>
    <path d="M-1.5 24.05 L-1.3 24.4 Q-0.5 26.9 -2.25 28.2 -2.75 30.55 -4.2 31.95 -3.25 36.2 -1.65 36.9 -1.3 46.35 -2.15 54.4 -3.3 60.0 -7.45 68.0 -4.7 56.25 -4.05 40.2 -4.45 37.45 -6.0 37.45 L-6.1 37.35 -7.65 39.55 -8.05 40.15 Q-8.55 39.3 -11.35 43.6 -13.65 50.4 -14.4 55.0 L-16.4 68.15 Q-18.75 58.6 -17.7 54.45 -14.55 43.9 -11.4 36.95 -1.25 24.95 -1.5 24.05 M-7.25 33.8 Q-10.9 37.3 -13.9 46.4 L-7.75 37.45 Q-3.9 33.4 -7.25 33.8" fill="#ee6878" fill-rule="evenodd" stroke="none"/>
    <path d="M-1.5 24.05 Q-1.25 24.95 -11.4 36.95 -9.35 32.5 -7.35 29.6 -2.6 22.55 -1.5 24.05 M-16.4 68.15 L-14.4 55.0 Q-13.65 50.4 -11.35 43.6 -8.55 39.3 -8.05 40.15 -11.85 46.35 -13.3 56.7 L-14.7 68.5 Q-14.95 71.25 -14.35 72.65 L-15.55 71.5 -16.4 68.15 M-6.0 37.45 Q-4.45 37.45 -4.05 40.2 -4.7 56.25 -7.45 68.0 L-9.7 72.1 -11.4 73.2 Q-10.4 71.45 -10.1 70.05 L-6.85 54.8 Q-4.05 41.0 -6.0 37.45 M-1.65 36.9 Q-3.25 36.2 -4.2 31.95 -2.75 30.55 -2.25 28.2 L-1.65 36.9" fill="#d75e6c" fill-rule="evenodd" stroke="none"/>
    <path d="M-7.25 33.8 Q-3.9 33.4 -7.75 37.45 L-13.9 46.4 Q-10.9 37.3 -7.25 33.8" fill="#fa8686" fill-rule="evenodd" stroke="none"/>
    <path d="M-2.25 28.2 Q-0.5 26.9 -1.3 24.4 L-1.5 24.05 Q-2.6 22.55 -7.35 29.6 -9.35 32.5 -11.4 36.95 -14.55 43.9 -17.7 54.45 -18.75 58.6 -16.4 68.15 L-15.55 71.5 -14.35 72.65 Q-12.65 74.15 -11.4 73.2 L-9.7 72.1 -7.45 68.0 Q-3.3 60.0 -2.15 54.4 -1.3 46.35 -1.65 36.9 L-2.25 28.2 Q-2.75 30.55 -4.2 31.95" fill="none" stroke="#3f274c" stroke-linecap="round" stroke-linejoin="round" stroke-width="1.2000000000000002"/>
  </g>
  <defs>
    <radialGradient cx="0" cy="0" gradientTransform="matrix(-0.004, 0.026, 0.0048, 7.0E-4, -10.55, 59.35)" gradientUnits="userSpaceOnUse" id="gradient0" r="819.2" spreadMethod="pad">
      <stop offset="0.5019607843137255" stop-color="#6c2f37"/>
      <stop offset="1.0" stop-color="#d75e6c"/>
    </radialGradient>
  </defs>
</svg>
