<?xml version="1.0" encoding="UTF-8" standalone="no"?>
<svg xmlns:xlink="http://www.w3.org/1999/xlink" height="27.65px" width="41.7px" xmlns="http://www.w3.org/2000/svg">
  <g transform="matrix(1.0, 0.0, 0.0, 1.0, 20.85, 13.85)">
    <path d="M1.9 -13.45 L1.75 -13.6 1.7 -13.8 2.1 -13.85 2.3 -13.35 1.9 -13.45 M4.55 -10.95 L5.2 -10.6 5.3 -10.55 5.7 -10.05 5.65 -9.85 5.15 -10.15 Q4.6 -10.5 5.1 -10.0 L4.75 -10.3 Q4.5 -10.75 4.55 -10.95 M9.35 -3.8 L9.65 -3.1 9.3 -3.35 9.35 -3.8 M10.9 1.05 L11.3 3.05 11.1 3.3 Q10.5 2.45 10.4 1.05 L10.5 0.85 10.75 0.6 10.9 1.05 M11.1 7.2 L11.4 8.75 11.4 8.95 10.75 11.2 Q10.45 11.5 10.3 10.2 10.45 7.95 10.7 7.65 L11.1 7.2 M-3.2 12.55 L-4.1 12.35 Q-5.05 11.2 -8.15 10.3 -11.8 9.3 -13.25 8.25 L-13.35 7.75 -13.25 7.4 Q-12.5 7.9 -10.5 8.15 -8.85 8.35 -8.85 8.7 -8.85 9.3 -9.3 9.2 L-10.3 8.95 -8.35 10.0 Q-7.0 10.7 -7.0 10.2 L-7.0 9.85 -6.9 9.85 Q-2.3 11.6 -0.35 12.0 L0.05 12.2 0.2 12.3 -3.2 12.55 M-3.85 -8.9 L-3.95 -8.75 -4.0 -9.2 -4.0 -9.0 -3.85 -8.9 M-4.4 -7.7 L-4.35 -7.75 -4.2 -6.9 Q-4.65 -5.2 -5.05 -4.65 L-5.6 -5.8 -5.45 -6.25 Q-5.25 -6.45 -5.15 -6.25 L-4.75 -7.3 -5.35 -7.0 -5.45 -7.15 -5.3 -7.65 -4.95 -7.65 -4.65 -7.5 -4.4 -7.7 M-3.05 2.0 L-3.05 1.85 -3.0 1.85 -2.75 1.5 Q-2.2 2.0 -2.2 3.0 L-2.2 3.35 Q-3.5 4.95 -3.5 7.55 L-3.5 7.8 -4.25 8.8 -4.6 8.8 Q-4.45 6.8 -3.05 2.0 M1.5 -10.3 L1.8 -11.1 Q2.25 -12.1 2.6 -12.3 2.9 -11.55 2.0 -10.2 L1.7 -10.15 1.5 -10.3 M5.9 11.95 L6.45 12.45 Q3.65 12.75 1.45 12.35 L1.3 12.3 0.9 11.75 3.0 11.7 5.9 11.95 M-0.3 -5.35 L-0.6 -3.05 -0.65 -3.6 -0.3 -5.35 M-1.2 0.35 L-1.25 0.6 -1.4 1.4 -1.3 0.4 -1.2 0.35 M10.15 12.45 L10.15 12.55 Q10.1 13.0 9.1 13.0 L8.4 12.95 Q8.25 12.85 7.95 12.7 L7.95 12.45 Q8.8 12.2 10.15 12.45 M15.95 12.2 L16.0 12.4 Q15.75 12.65 15.0 12.75 L14.75 12.5 Q15.4 11.85 15.95 12.2 M-4.6 9.5 L-4.75 9.85 -5.15 9.95 -5.55 9.85 -5.7 9.5 -5.55 9.2 -5.15 9.05 Q-4.9 9.05 -4.75 9.2 -4.6 9.3 -4.6 9.5" fill="#ffffff" fill-rule="evenodd" stroke="none"/>
    <path d="M2.3 -13.35 Q3.05 -11.9 4.55 -10.95 4.5 -10.75 4.75 -10.3 3.8 -8.45 4.45 -6.75 L4.15 -5.3 3.75 -4.95 3.4 -7.3 Q3.05 -8.7 3.05 -9.15 L3.3 -9.95 3.9 -10.7 3.85 -10.95 3.1 -11.1 Q2.35 -11.1 2.2 -9.95 2.1 -8.8 1.6 -8.8 1.5 -8.8 1.15 -7.4 L0.9 -7.35 0.9 -7.45 0.85 -8.45 0.8 -7.3 Q-0.2 -6.9 -0.3 -5.65 L-0.3 -5.35 -0.65 -3.6 -0.6 -3.05 -1.2 0.35 -1.3 0.4 -1.4 1.4 -1.65 2.75 -2.2 3.35 -2.2 3.0 Q-2.2 2.0 -2.75 1.5 L-3.0 1.85 -2.4 0.1 Q-1.3 -3.1 0.2 -8.6 1.05 -9.4 1.5 -10.3 L1.7 -10.15 2.0 -10.2 Q2.9 -11.55 2.6 -12.3 2.25 -12.1 1.8 -11.1 2.05 -12.1 1.85 -13.3 L1.9 -13.45 2.3 -13.35 M5.3 -10.55 L5.45 -10.5 Q7.85 -7.4 9.35 -3.8 L9.3 -3.35 9.65 -3.1 10.9 1.05 10.75 0.6 10.5 0.85 10.4 1.05 Q10.5 2.45 11.1 3.3 L11.3 3.05 11.4 3.7 Q10.85 4.75 11.0 6.4 L11.1 7.2 10.7 7.65 Q10.45 7.95 10.3 10.2 10.45 11.5 10.75 11.2 L11.4 8.95 11.4 8.75 11.95 10.5 Q12.2 11.15 12.6 11.15 L12.4 11.55 13.85 11.1 Q14.85 10.75 15.4 10.75 L17.9 11.25 20.55 12.05 20.85 12.25 Q19.8 13.8 12.0 13.8 L-3.2 12.55 0.2 12.3 0.05 12.2 1.45 12.35 Q3.65 12.75 6.45 12.45 L5.9 11.95 6.65 11.9 Q7.0 12.5 8.05 11.6 9.6 10.35 9.95 8.35 10.4 5.6 9.3 3.75 L9.45 2.55 Q9.45 -3.8 8.6 -5.15 L5.1 -10.0 Q4.6 -10.5 5.15 -10.15 L5.65 -9.85 5.7 -10.05 5.3 -10.55 M-4.1 12.35 Q-13.5 9.0 -15.95 7.1 -17.65 5.7 -16.0 5.7 L-17.85 5.35 -19.1 4.95 -19.1 5.05 -18.15 5.65 -16.95 6.65 -17.55 6.55 -19.0 5.65 -19.15 5.9 -19.3 5.35 -19.25 4.9 -20.85 3.95 Q-19.1 3.1 -17.3 3.9 L-14.25 5.7 -12.05 -0.05 Q-10.7 -2.1 -9.95 -4.7 L-9.7 -5.4 -9.2 -6.5 Q-6.95 -10.85 -4.55 -13.0 -4.15 -13.35 -3.7 -13.65 L-3.35 -13.25 -3.0 -12.85 -3.15 -11.25 -3.5 -10.65 -3.95 -9.6 Q-3.75 -9.2 -3.85 -8.9 L-4.0 -9.0 -4.0 -9.2 -3.95 -8.75 -4.4 -7.7 -4.65 -7.5 -4.95 -7.65 -5.3 -7.65 -3.65 -12.4 -6.15 -9.85 Q-7.85 -7.85 -7.85 -6.85 L-8.25 -4.7 -9.2 -2.85 Q-10.7 -0.95 -11.45 1.75 -11.9 3.35 -11.0 4.6 L-11.6 6.3 Q-11.6 7.5 -9.1 7.8 -5.5 7.8 -3.05 2.0 -4.45 6.8 -4.6 8.8 L-4.25 8.8 -3.5 7.8 Q-3.4 9.75 -1.9 9.6 L-1.55 10.1 Q-0.8 11.1 0.9 11.75 L1.3 12.3 -0.35 12.0 Q-2.3 11.6 -6.9 9.85 L-7.0 9.85 -7.0 10.2 Q-7.0 10.7 -8.35 10.0 L-10.3 8.95 -9.3 9.2 Q-8.85 9.3 -8.85 8.7 -8.85 8.35 -10.5 8.15 -12.5 7.9 -13.25 7.4 L-13.35 7.75 -13.25 8.25 Q-11.8 9.3 -8.15 10.3 -5.05 11.2 -4.1 12.35 M-5.6 -5.8 L-5.65 -6.0 -5.45 -7.15 -5.35 -7.0 -4.75 -7.3 -5.15 -6.25 Q-5.25 -6.45 -5.45 -6.25 L-5.6 -5.8 M5.05 -1.35 Q5.35 -1.15 5.35 -0.15 L5.25 0.65 4.95 1.1 4.6 1.75 4.35 0.65 4.6 -0.5 5.05 -1.35 M4.15 7.8 L4.1 8.25 3.8 8.25 3.65 8.05 Q3.75 7.5 4.15 7.8 M15.95 12.2 Q15.4 11.85 14.75 12.5 L15.0 12.75 Q15.75 12.65 16.0 12.4 L15.95 12.2 M10.15 12.45 Q8.8 12.2 7.95 12.45 L7.95 12.7 Q8.25 12.85 8.4 12.95 L9.1 13.0 Q10.1 13.0 10.15 12.55 L10.15 12.45 M-7.85 4.45 L-7.75 5.55 -8.25 6.15 -8.4 6.05 -8.55 5.45 Q-8.3 4.7 -7.85 4.45 M-4.6 9.5 Q-4.6 9.3 -4.75 9.2 -4.9 9.05 -5.15 9.05 L-5.55 9.2 -5.7 9.5 -5.55 9.85 -5.15 9.95 -4.75 9.85 -4.6 9.5" fill="#ffffff" fill-opacity="0.69803923" fill-rule="evenodd" stroke="none"/>
  </g>
</svg>
