<?xml version="1.0" encoding="UTF-8" standalone="no"?>
<svg xmlns:xlink="http://www.w3.org/1999/xlink" height="42.65px" width="31.1px" xmlns="http://www.w3.org/2000/svg">
  <g transform="matrix(1.0, 0.0, 0.0, 1.0, 15.55, 21.3)">
    <path d="M12.2 -20.45 L13.3 -17.35 13.45 -16.45 Q11.85 -17.3 11.75 -19.75 11.75 -20.3 12.2 -20.45 M1.7 -8.0 L3.6 -9.4 5.55 -10.75 6.3 -11.0 Q6.8 -11.05 6.8 -10.05 L6.2 -9.2 Q5.55 -8.5 5.55 -6.8 5.55 -5.0 4.45 -0.95 3.75 1.6 3.4 4.6 L3.4 4.65 3.35 4.75 Q3.1 6.8 3.0 9.1 L2.3 7.3 2.35 6.75 2.25 7.15 1.95 8.7 1.6 9.6 1.45 9.75 Q1.35 7.55 0.35 5.35 L0.2 4.9 -0.4 4.75 -0.35 4.65 Q-0.65 3.9 -0.55 2.95 L-0.45 2.2 -0.1 1.8 0.1 0.95 0.65 -1.95 0.65 -4.1 Q1.95 -4.95 3.05 -7.05 L4.0 -9.4 1.7 -8.0 M3.05 12.95 L3.1 14.45 3.5 14.5 Q5.3 13.1 6.6 11.1 L6.9 10.75 Q6.5 9.7 7.4 8.45 7.6 8.2 7.9 8.2 8.3 8.35 8.2 8.8 L8.1 9.05 8.25 9.25 Q8.85 7.05 9.1 3.4 9.35 -0.15 9.75 -1.0 L9.85 -1.6 9.95 -2.4 10.15 -2.55 10.45 -2.7 10.95 -5.85 11.05 -7.65 Q11.1 -8.5 11.6 -8.85 L11.7 -8.5 12.2 -9.05 11.95 -6.9 Q12.0 -5.35 11.65 -3.65 L11.2 -2.3 11.2 -2.45 10.95 -1.25 10.7 -0.45 11.0 1.8 10.6 3.65 Q10.75 4.5 10.1 5.65 L9.9 5.9 Q8.95 8.85 8.95 11.65 8.95 12.25 9.65 13.1 10.2 14.2 9.45 16.35 L9.35 14.45 Q8.95 14.7 8.45 15.3 L7.85 16.1 6.9 16.45 6.55 16.05 4.75 17.55 3.55 18.75 3.05 18.55 2.35 18.65 2.55 19.55 Q1.05 18.9 0.25 17.15 -0.45 15.65 -0.4 13.8 L-0.6 13.2 -2.5 16.95 Q-2.55 15.95 -2.95 15.35 L-2.55 14.75 Q-1.4 11.1 -1.05 10.55 -1.25 10.9 -0.25 10.9 L1.05 10.6 1.65 10.1 Q1.95 11.9 2.4 13.5 L3.05 12.95 M-1.65 -0.8 L-2.15 -0.25 -2.4 -1.9 -1.9 -5.35 Q-1.3 -8.0 0.0 -8.9 L0.35 -9.15 0.35 -7.2 0.6 -7.2 -0.2 -5.45 -0.25 -5.4 Q-0.75 -4.75 -1.05 -2.9 L-1.1 -2.45 -1.2 -1.5 -1.65 -0.8 M12.1 8.0 L11.55 8.7 Q12.55 4.7 12.7 0.85 L12.65 -2.8 12.8 -4.75 13.1 -6.2 13.7 -6.65 Q14.35 -5.1 14.5 -1.0 L13.85 -2.25 13.35 -1.8 Q13.05 -1.45 13.05 -0.8 13.05 -0.1 13.4 1.7 L14.05 4.2 12.65 7.15 12.1 8.0 M2.2 4.45 Q2.55 3.3 2.3 2.2 L2.1 2.15 Q0.85 3.4 0.85 3.95 L0.85 4.3 1.15 4.85 1.5 5.6 1.75 6.25 2.35 5.15 2.2 4.45 M8.2 10.9 L8.0 10.35 7.3 11.6 Q7.75 12.2 7.35 13.15 L6.95 13.45 6.8 13.4 Q6.7 14.7 7.1 15.1 L7.65 15.55 8.0 14.15 8.45 12.3 8.2 10.9 M5.15 14.1 L5.6 13.85 5.55 13.75 5.15 14.1 M0.75 12.65 L1.1 13.35 1.1 12.95 Q1.05 12.55 0.75 12.65 M-12.25 -7.2 L-10.2 -15.45 Q-8.95 -20.45 -6.3 -20.45 L-5.05 -20.85 -4.25 -21.3 -3.55 -20.95 -3.4 -20.65 Q-5.0 -19.0 -7.9 -17.15 -9.9 -15.2 -10.35 -10.7 L-11.0 -9.7 -12.25 -7.2 M-15.3 -0.05 L-15.55 -0.05 -15.35 -3.4 Q-14.8 -5.8 -12.5 -6.9 -13.95 -5.25 -14.7 -3.5 -15.5 -1.6 -15.3 -0.05" fill="#ffffff" fill-opacity="0.4" fill-rule="evenodd" stroke="none"/>
    <path d="M3.0 9.1 L3.2 11.05 3.05 12.95 2.4 13.5 Q1.95 11.9 1.65 10.1 L1.6 9.6 1.95 8.7 2.25 7.15 2.3 7.3 3.0 9.1 M9.45 16.35 Q8.55 18.7 6.0 19.5 3.9 20.15 2.55 19.55 L2.35 18.65 3.05 18.55 3.55 18.75 4.75 17.55 3.95 18.6 4.65 19.3 Q6.05 19.45 6.85 18.8 7.45 18.3 7.45 17.7 L7.3 16.85 6.9 16.45 7.85 16.1 8.45 15.3 Q8.95 14.7 9.35 14.45 L9.45 16.35 M-2.5 16.95 L-2.7 17.45 -3.35 18.45 -3.55 18.05 Q-4.75 18.6 -5.45 19.4 L-5.95 19.0 -4.9 17.9 -3.0 15.3 -2.95 15.35 Q-2.55 15.95 -2.5 16.95 M0.6 -7.2 L0.65 -7.2 1.7 -8.0 4.0 -9.4 3.05 -7.05 Q1.95 -4.95 0.65 -4.1 L0.35 -5.95 -0.2 -5.45 0.6 -7.2 M14.5 -1.0 Q15.3 1.2 15.35 2.6 L14.9 2.5 14.15 3.4 Q14.25 4.25 14.75 4.55 L15.3 4.2 14.75 5.45 14.05 4.2 13.4 1.7 Q13.05 -0.1 13.05 -0.8 13.05 -1.45 13.35 -1.8 L13.85 -2.25 14.5 -1.0 M12.65 7.15 Q12.95 7.1 13.25 7.35 L13.65 7.95 13.45 8.5 12.35 9.2 11.95 8.9 12.35 8.0 Q12.75 7.15 12.1 8.0 L12.65 7.15 M1.15 4.85 L0.85 4.3 0.85 3.95 Q0.85 3.4 2.1 2.15 L2.3 2.2 Q2.55 3.3 2.2 4.45 1.5 4.95 1.2 4.85 L1.15 4.85 M8.2 10.9 L8.45 12.3 8.0 14.15 7.65 15.55 7.1 15.1 Q6.7 14.7 6.8 13.4 L6.95 13.45 7.35 13.15 Q7.75 12.2 7.3 11.6 L8.0 10.35 8.2 10.9 M-10.35 -10.7 L-10.35 -10.35 Q-10.25 -9.25 -10.55 -7.55 -10.8 -5.85 -11.25 -4.9 L-10.6 -5.25 -10.35 -5.0 -10.25 -4.3 Q-10.25 -3.3 -12.75 -2.6 -14.1 -0.5 -14.8 -0.15 L-15.3 -0.05 Q-15.5 -1.6 -14.7 -3.5 -13.95 -5.25 -12.5 -6.9 L-12.25 -7.2 -11.0 -9.7 -10.35 -10.7" fill="#ffffff" fill-opacity="0.69803923" fill-rule="evenodd" stroke="none"/>
    <path d="M-3.35 18.45 Q-3.6 19.3 -4.45 20.15 L-5.55 21.1 Q-5.85 21.75 -5.85 20.75 L-5.75 19.95 -5.45 19.4 Q-4.75 18.6 -3.55 18.05 L-3.35 18.45 M-0.55 2.95 L-0.8 3.2 -1.45 1.75 -1.7 0.0 -1.65 -0.8 -1.2 -1.5 -1.1 -2.45 -1.05 -2.9 Q-0.75 -4.75 -0.25 -5.4 L-0.2 -5.45 0.35 -5.95 0.65 -4.1 0.65 -1.95 0.1 0.95 -0.1 1.8 -0.45 2.2 -0.55 2.95 M15.35 2.6 Q15.75 3.3 15.3 4.2 L14.75 4.55 Q14.25 4.25 14.15 3.4 L14.9 2.5 15.35 2.6 M6.9 16.45 L7.3 16.85 7.45 17.7 Q7.45 18.3 6.85 18.8 6.05 19.45 4.65 19.3 L3.95 18.6 4.75 17.55 6.55 16.05 6.9 16.45" fill="#ffffff" fill-rule="evenodd" stroke="none"/>
  </g>
</svg>
