<?xml version="1.0" encoding="UTF-8" standalone="no"?>
<svg xmlns:xlink="http://www.w3.org/1999/xlink" height="46.25px" width="76.3px" xmlns="http://www.w3.org/2000/svg">
  <g transform="matrix(1.0, 0.0, 0.0, 1.0, 38.15, 28.55)">
    <path d="M33.6 -4.9 L32.0 -6.7 Q31.3 -8.0 31.55 -8.45 31.8 -8.6 33.25 -6.85 34.75 -5.05 34.8 -4.25 L34.25 -4.5 33.6 -4.9 M13.85 -23.25 Q13.4 -23.25 13.1 -23.6 12.8 -24.0 12.8 -24.5 L13.65 -24.45 14.6 -24.1 14.3 -23.55 13.85 -23.25 M18.85 -18.65 L18.4 -19.7 Q18.0 -20.2 19.65 -19.5 L21.65 -17.05 21.9 -16.35 20.75 -16.4 18.85 -18.65 M-3.4 -23.25 L-3.35 -23.85 -1.7 -24.6 Q-1.1 -24.0 -1.7 -23.1 L-2.55 -22.85 -3.4 -22.95 -3.4 -23.25 M-23.05 -9.8 L-23.5 -9.65 -23.75 -9.6 -24.2 -9.9 -24.35 -10.7 -24.3 -11.25 -24.2 -11.4 -22.65 -12.7 -22.2 -12.85 Q-21.9 -12.35 -21.9 -11.8 -22.2 -11.05 -23.05 -9.8 M-6.95 -22.1 Q-7.3 -21.4 -8.0 -20.75 L-9.15 -20.15 -10.9 -19.4 -11.8 -19.75 -11.3 -20.95 Q-10.4 -22.05 -7.1 -23.15 L-6.95 -22.1" fill="#ffffff" fill-rule="evenodd" stroke="none"/>
    <path d="M12.8 -24.5 Q12.2 -24.65 10.7 -24.0 L10.4 -24.35 11.0 -25.35 Q11.6 -25.95 12.95 -25.95 L14.45 -25.6 Q16.15 -24.85 16.85 -23.15 L15.25 -23.05 15.15 -23.05 14.3 -23.55 14.6 -24.1 13.65 -24.45 12.8 -24.5 M15.75 -22.05 L16.05 -22.0 17.25 -20.25 18.85 -18.65 20.75 -16.4 Q21.05 -15.75 23.15 -13.7 L25.5 -11.45 Q25.5 -12.8 24.15 -14.6 23.0 -16.1 21.65 -17.05 L19.65 -19.5 17.1 -21.75 Q19.05 -21.1 20.35 -21.4 L22.05 -20.85 24.95 -19.7 25.35 -19.05 22.55 -18.95 24.0 -17.5 26.1 -15.5 25.75 -15.6 25.65 -14.8 Q25.65 -13.75 27.5 -12.1 27.5 -11.25 28.25 -10.6 29.0 -10.0 30.05 -10.0 L31.55 -8.45 Q31.3 -8.0 32.0 -6.7 L31.9 -6.1 30.5 -7.4 29.55 -8.1 Q29.9 -8.0 29.8 -7.5 L29.55 -6.1 27.7 -8.7 27.6 -8.8 27.8 -6.4 Q28.15 -4.0 28.75 -4.0 29.3 -4.0 29.3 -4.55 L29.4 -5.75 30.8 2.8 Q30.05 0.1 27.6 -2.2 L26.9 -5.45 Q26.3 -8.5 26.25 -9.3 L25.75 -9.3 Q22.1 -9.3 20.65 -12.55 19.9 -14.2 19.9 -15.95 L17.85 -17.6 Q15.65 -19.65 15.1 -21.8 L15.75 -22.05 M27.6 -14.6 L27.25 -16.25 27.45 -16.65 27.7 -16.75 28.55 -15.15 29.35 -13.35 27.6 -14.6 M34.4 -7.7 Q38.15 -4.75 38.15 0.6 L38.05 2.4 Q37.85 2.4 37.5 3.25 L36.7 1.4 Q37.25 -0.35 36.1 -3.95 35.1 -7.0 34.4 -7.7 M35.7 -0.95 L34.6 -3.0 33.6 -4.9 34.25 -4.5 35.7 -0.95 M30.95 7.35 Q31.25 13.25 28.75 14.55 L28.1 14.3 Q29.05 13.15 29.35 8.45 L29.5 3.75 Q30.15 5.8 30.45 7.95 L30.95 7.35 M15.0 -21.8 L14.6 -21.75 Q12.6 -21.65 11.6 -22.4 L11.6 -22.6 Q11.6 -23.25 12.0 -23.1 L13.15 -22.6 14.3 -22.1 14.2 -22.25 15.0 -21.8 M5.15 -24.8 Q6.15 -24.8 7.3 -24.15 L7.75 -23.4 4.45 -22.8 0.8 -22.0 Q0.15 -22.05 -0.35 -22.65 0.45 -23.75 2.2 -24.35 L5.15 -24.8 M25.0 -22.15 L25.55 -21.05 25.5 -21.0 24.65 -21.9 25.0 -22.15 M-34.85 -14.45 Q-34.15 -22.6 -30.6 -26.3 -28.8 -28.15 -26.85 -28.55 L-26.0 -27.9 -30.65 -23.75 Q-33.1 -21.15 -32.95 -17.95 L-34.85 -14.45 M-37.9 -7.3 L-38.15 -7.3 Q-38.25 -10.3 -37.5 -11.75 -36.9 -13.0 -35.1 -14.15 -37.3 -11.15 -37.7 -9.7 L-37.9 -7.3 M-22.6 -13.25 L-26.85 -9.05 Q-27.05 -8.85 -28.5 -8.55 -27.3 -10.3 -23.55 -13.6 -19.5 -17.2 -17.75 -17.6 L-12.35 -20.8 Q-8.0 -23.6 -6.35 -23.6 L-5.3 -23.35 Q-5.05 -23.1 -4.75 -22.05 L-4.35 -22.5 -3.4 -23.25 -3.4 -22.95 -2.55 -22.85 -1.7 -23.1 -1.1 -21.65 Q-1.3 -21.4 -2.05 -21.4 -2.85 -21.4 -3.3 -21.7 -3.8 -20.4 -3.8 -18.9 -3.8 -18.3 -6.6 -16.95 -11.55 -14.55 -16.75 -11.15 L-17.15 -11.6 Q-18.4 -11.0 -18.65 -9.65 -20.95 -7.7 -22.15 -5.05 L-22.1 -5.85 Q-22.1 -6.85 -22.5 -7.7 L-23.8 -6.0 -23.9 -5.8 -24.25 -4.55 -24.1 -3.65 -23.75 -3.05 -22.75 -3.65 -23.75 -0.35 Q-24.45 0.35 -25.35 0.5 L-25.5 -1.2 -25.1 -3.25 -24.15 -5.55 -24.35 -5.6 -23.05 -9.8 Q-22.2 -11.05 -21.9 -11.8 L-20.1 -13.0 Q-19.3 -13.75 -19.3 -14.1 L-19.4 -14.8 -19.75 -15.05 -22.6 -13.25 M-8.0 -20.75 L-6.5 -22.3 -6.95 -22.1 -7.1 -23.15 Q-10.4 -22.05 -11.3 -20.95 L-11.8 -19.75 -10.9 -19.4 -9.15 -20.15 -8.0 -20.75 M-7.75 -19.45 Q-10.35 -18.05 -13.65 -16.5 -15.65 -15.45 -15.65 -14.4 -15.65 -13.75 -16.15 -13.15 L-16.7 -12.65 -15.5 -12.75 Q-13.5 -13.25 -11.1 -15.1 -8.25 -17.25 -7.75 -19.45 M-24.35 10.55 L-24.25 9.9 -24.15 10.0 -23.75 9.7 -21.65 12.7 Q-19.85 15.65 -20.05 16.8 L-20.05 17.7 Q-22.3 15.3 -23.45 13.2 -24.35 11.55 -24.35 10.55" fill="#ffffff" fill-opacity="0.4" fill-rule="evenodd" stroke="none"/>
    <path d="M15.25 -23.05 L15.6 -22.75 15.75 -22.05 15.1 -21.8 15.0 -21.8 14.2 -22.25 13.85 -23.25 14.3 -23.55 15.15 -23.05 15.25 -23.05 M16.05 -22.0 L17.1 -21.75 19.65 -19.5 Q18.0 -20.2 18.4 -19.7 L18.85 -18.65 17.25 -20.25 16.05 -22.0 M26.1 -15.5 L27.6 -14.6 29.35 -13.35 31.9 -10.6 34.4 -7.7 Q35.1 -7.0 36.1 -3.95 37.25 -0.35 36.7 1.4 L36.5 2.35 35.7 -0.95 34.25 -4.5 34.8 -4.25 Q34.75 -5.05 33.25 -6.85 31.8 -8.6 31.55 -8.45 L30.05 -10.0 27.5 -12.1 Q25.65 -13.75 25.65 -14.8 L25.75 -15.6 26.1 -15.5 M30.8 2.8 Q31.5 5.65 30.95 7.35 L30.45 7.95 Q30.15 5.8 29.5 3.75 26.65 -0.65 26.65 -1.55 26.65 -2.25 27.0 -2.4 L27.6 -2.2 Q30.05 0.1 30.8 2.8 M21.65 -17.05 Q23.0 -16.1 24.15 -14.6 25.5 -12.8 25.5 -11.45 L23.15 -13.7 Q21.05 -15.75 20.75 -16.4 L21.9 -16.35 21.65 -17.05 M-32.95 -17.95 L-33.15 -15.6 Q-33.45 -13.3 -33.85 -12.15 L-33.0 -12.05 -32.85 -11.8 Q-32.85 -10.85 -34.85 -9.3 -35.7 -8.65 -37.9 -7.3 L-37.7 -9.7 Q-37.3 -11.15 -35.1 -14.15 L-34.85 -14.45 -32.95 -17.95 M-22.65 -12.7 L-22.6 -13.25 -19.75 -15.05 -19.4 -14.8 -19.3 -14.1 Q-19.3 -13.75 -20.1 -13.0 L-21.9 -11.8 Q-21.9 -12.35 -22.2 -12.85 L-22.65 -12.7 M-16.75 -11.15 Q-16.75 -10.55 -17.3 -10.1 -17.85 -9.65 -18.65 -9.65 -18.4 -11.0 -17.15 -11.6 L-16.75 -11.15 M-22.15 -5.05 L-22.3 -3.75 -22.75 -3.65 -23.75 -3.05 -24.1 -3.65 -24.25 -4.55 -23.9 -5.8 -23.8 -6.0 -22.5 -7.7 Q-22.1 -6.85 -22.1 -5.85 L-22.15 -5.05 M-23.5 -9.65 Q-23.85 -9.05 -24.4 -8.95 L-24.9 -9.3 -25.05 -10.0 Q-25.05 -10.6 -24.7 -11.0 L-24.3 -11.25 -24.35 -10.7 -24.2 -9.9 -23.75 -9.6 -23.5 -9.65 M-37.2 -2.3 Q-34.8 0.8 -35.1 2.15 L-35.35 2.7 Q-36.6 2.0 -37.3 0.3 L-37.75 -1.55 -37.7 -2.2 Q-37.55 -2.15 -37.45 -2.3 L-37.2 -2.3 M-7.75 -19.45 Q-8.25 -17.25 -11.1 -15.1 -13.5 -13.25 -15.5 -12.75 L-16.7 -12.65 -16.15 -13.15 Q-15.65 -13.75 -15.65 -14.4 -15.65 -15.45 -13.65 -16.5 -10.35 -18.05 -7.75 -19.45" fill="#ffffff" fill-opacity="0.69803923" fill-rule="evenodd" stroke="none"/>
  </g>
</svg>
