<?xml version="1.0" encoding="UTF-8" standalone="no"?>
<svg xmlns:xlink="http://www.w3.org/1999/xlink" height="56.3px" width="41.55px" xmlns="http://www.w3.org/2000/svg">
  <g transform="matrix(1.0, 0.0, 0.0, 1.0, 35.9, -22.15)">
    <path d="M-2.3 22.95 Q1.8 31.4 4.1 41.85 L5.05 46.95 Q5.55 49.9 5.65 52.6 5.95 62.5 0.8 69.7 -5.75 78.85 -12.7 78.45 L-17.65 78.1 -17.85 77.65 -20.35 76.9 Q-21.0 76.6 -21.6 76.25 L-24.25 75.4 Q-28.45 74.1 -33.05 67.05 -37.7 54.5 -34.8 40.3 -32.65 31.2 -18.95 22.95 -25.85 30.15 -30.1 42.95 -34.45 55.7 -27.45 64.5 -23.35 69.65 -20.8 71.85 -17.35 68.55 -19.95 57.35 L-2.3 22.95" fill="#c3a04b" fill-rule="evenodd" stroke="none"/>
    <path d="M-14.35 45.05 L-14.15 43.25 -13.95 41.85 Q-13.0 34.2 -11.8 31.3 -10.3 27.85 -7.2 28.8 -4.2 29.85 -3.55 37.5 -3.45 39.25 -3.5 41.85 -3.65 46.1 -4.3 52.6 L-5.05 59.05 Q-6.9 74.75 -11.0 73.3 -15.1 73.05 -15.2 64.15 -15.4 55.25 -14.35 45.05" fill="url(#gradient0)" fill-rule="evenodd" stroke="none"/>
    <path d="M-1.0 35.75 L-0.1 41.85 Q0.5 47.5 0.45 52.6 L0.45 53.2 Q-0.4 58.9 -4.85 67.25 -3.6 60.55 -3.4 52.6 -3.25 47.5 -3.55 41.85 L-3.75 39.25 Q-4.5 36.55 -6.55 36.7 L-6.7 36.6 -8.45 38.9 -8.9 39.55 Q-9.55 38.9 -11.8 41.85 L-12.85 43.3 -14.15 47.75 Q-15.2 51.85 -15.45 54.95 L-16.5 68.2 Q-20.7 58.9 -19.8 54.7 -17.0 43.9 -13.7 36.7 -1.9 23.8 -2.3 22.95 L-2.05 23.25 Q-0.65 25.65 -2.8 27.1 -3.15 29.5 -4.85 31.05 -3.15 35.2 -1.0 35.75 M-8.65 33.2 Q-13.05 37.0 -15.85 46.35 L-8.85 36.85 Q-4.35 32.5 -8.65 33.2" fill="#ee6878" fill-rule="evenodd" stroke="none"/>
    <path d="M-1.0 35.75 Q-3.15 35.2 -4.85 31.05 -3.15 29.5 -2.8 27.1 -1.75 31.55 -1.0 35.75 M-2.3 22.95 Q-1.9 23.8 -13.7 36.7 -11.6 32.1 -9.3 28.95 -3.95 21.55 -2.3 22.95 M-16.5 68.2 L-15.45 54.95 Q-15.2 51.85 -14.15 47.75 L-12.85 43.3 -11.8 41.85 Q-9.55 38.9 -8.9 39.55 L-10.2 41.85 Q-12.6 46.45 -13.45 52.6 L-13.85 56.55 -14.3 68.4 Q-14.3 71.15 -13.3 72.5 L-15.0 71.45 -16.5 68.2 M-6.55 36.7 Q-4.5 36.55 -3.75 39.25 L-3.55 41.85 Q-3.25 47.5 -3.4 52.6 -3.6 60.55 -4.85 67.25 L-7.3 71.55 -9.4 72.8 Q-8.25 70.95 -8.0 69.55 L-5.65 54.0 -5.45 52.6 Q-4.55 45.9 -4.9 41.85 -5.2 38.2 -6.55 36.7" fill="#d75e6c" fill-rule="evenodd" stroke="none"/>
    <path d="M-8.65 33.2 Q-4.35 32.5 -8.85 36.85 L-15.85 46.35 Q-13.05 37.0 -8.65 33.2" fill="#fa8686" fill-rule="evenodd" stroke="none"/>
    <path d="M-4.85 67.25 Q-0.4 58.9 0.45 53.2 L0.45 52.6 Q0.5 47.5 -0.1 41.85 L-1.0 35.75 Q-1.75 31.55 -2.8 27.1 -0.65 25.65 -2.05 23.25 L-2.3 22.95 Q-3.95 21.55 -9.3 28.95 -11.6 32.1 -13.7 36.7 -17.0 43.9 -19.8 54.7 -20.7 58.9 -16.5 68.2 L-15.0 71.45 -13.3 72.5 Q-10.95 73.85 -9.4 72.8 L-7.3 71.55 -4.85 67.25 M-4.85 31.05 Q-3.15 29.5 -2.8 27.1" fill="none" stroke="#3f274c" stroke-linecap="round" stroke-linejoin="round" stroke-width="1.2000000000000002"/>
  </g>
  <defs>
    <radialGradient cx="0" cy="0" gradientTransform="matrix(-0.0021, 0.0263, 0.0064, 3.0E-4, -9.95, 58.9)" gradientUnits="userSpaceOnUse" id="gradient0" r="819.2" spreadMethod="pad">
      <stop offset="0.5019607843137255" stop-color="#6c2f37"/>
      <stop offset="1.0" stop-color="#d75e6c"/>
    </radialGradient>
  </defs>
</svg>
