<?xml version="1.0" encoding="UTF-8" standalone="no"?>
<svg xmlns:xlink="http://www.w3.org/1999/xlink" height="64.25px" width="77.35px" xmlns="http://www.w3.org/2000/svg">
  <g transform="matrix(1.0, 0.0, 0.0, 1.0, 51.8, -20.45)">
    <path d="M13.3 58.9 L19.55 56.75 19.3 54.25 19.1 51.45 18.35 47.4 Q16.15 37.1 6.1 32.45 3.6 31.05 1.5 28.85 L0.35 27.6 -1.0 25.85 Q14.25 28.1 21.5 39.7 24.5 47.55 24.55 57.3 L25.4 63.2 Q26.35 72.25 21.2 79.55 L18.35 80.6 17.5 80.95 Q13.6 82.65 9.1 83.7 -13.0 87.35 -35.1 77.9 -44.4 73.45 -49.9 62.7 -53.5 49.75 -50.2 39.35 -48.3 34.3 -43.95 28.05 -36.65 17.4 -33.95 21.7 -45.45 34.45 -45.55 51.85 -44.9 59.8 -39.0 66.65 -26.1 74.1 -8.1 73.05 -0.85 56.95 13.25 58.85 L13.3 58.9" fill="#c3a04b" fill-rule="evenodd" stroke="none"/>
    <path d="M-7.5 74.35 Q-21.85 74.75 -27.6 69.0 -33.4 63.2 -33.2 57.15 -33.0 51.05 -31.05 47.2 L-27.45 40.8 Q-25.85 38.3 -16.5 34.1 -7.2 29.9 -2.15 30.05 2.9 30.15 10.3 37.25 17.7 44.35 18.15 54.8 18.55 65.2 12.7 69.6 6.8 73.95 -7.5 74.35" fill="url(#gradient0)" fill-rule="evenodd" stroke="none"/>
    <path d="M0.35 27.6 L1.5 28.85 Q3.6 31.05 6.1 32.45 16.15 37.1 18.35 47.4 L19.1 51.45 19.3 54.25 Q19.35 55.65 19.9 59.2 20.45 78.05 -10.75 77.45 -33.5 77.0 -35.4 57.05 L-35.4 55.1 -35.4 57.05 -35.6 55.3 -35.4 55.1 -34.65 54.5 Q-32.45 44.85 -24.1 35.35 -19.9 31.75 -15.45 29.7 -13.4 28.95 -11.45 28.0 L-7.45 25.75 Q-3.6 27.5 0.35 27.6 M16.05 48.95 Q12.65 35.45 -2.55 31.25 -1.2 30.8 0.15 29.75 -4.85 30.4 -9.85 29.1 -8.45 30.3 -7.05 30.9 L-10.65 32.25 Q-9.7 31.55 -10.85 31.0 -15.4 30.95 -19.0 32.95 -15.95 33.7 -11.15 32.45 L-14.5 33.9 -16.8 34.3 Q-21.95 37.05 -25.1 40.05 L-25.6 40.8 Q-31.55 46.05 -32.45 52.5 L-32.6 53.5 -32.65 55.55 Q-32.5 73.1 -9.95 73.85 16.45 72.95 17.0 59.4 L17.05 59.2 Q17.4 58.1 18.1 58.1 17.45 53.15 16.05 48.95" fill="#ee6878" fill-rule="evenodd" stroke="none"/>
    <path d="M-15.45 29.7 Q-19.9 31.75 -24.1 35.35 -32.45 44.85 -34.65 54.5 L-35.4 55.1 -35.35 52.8 -35.4 55.1 -35.6 55.3 -35.85 55.55 -35.65 54.6 -35.85 55.3 -35.65 54.3 -35.35 52.8 Q-31.75 34.8 -18.75 30.7 L-15.45 29.7 M17.05 59.2 L17.0 59.2 Q17.2 53.55 16.05 48.95 17.45 53.15 18.1 58.1 17.4 58.1 17.05 59.2 M-2.55 31.25 L-5.8 30.45 -7.05 30.9 Q-8.45 30.3 -9.85 29.1 -4.85 30.4 0.15 29.75 -1.2 30.8 -2.55 31.25" fill="#d75e6c" fill-rule="evenodd" stroke="none"/>
    <path d="M0.35 27.6 Q-3.6 27.5 -7.45 25.75 -3.8 23.0 -1.0 25.85 L0.35 27.6 M-10.65 32.25 L-11.15 32.45 Q-15.95 33.7 -19.0 32.95 -15.4 30.95 -10.85 31.0 -9.7 31.55 -10.65 32.25" fill="#fa8686" fill-rule="evenodd" stroke="none"/>
    <path d="M-14.5 33.9 Q-21.35 37.05 -25.6 40.8 L-25.1 40.05 Q-21.95 37.05 -16.8 34.3 L-14.5 33.9" fill="#a35858" fill-rule="evenodd" stroke="none"/>
    <path d="M-35.4 57.05 Q-33.5 77.0 -10.75 77.45 20.45 78.05 19.9 59.2 19.35 55.65 19.3 54.25 L19.1 51.45 18.35 47.4 Q16.15 37.1 6.1 32.45 3.6 31.05 1.5 28.85 L0.35 27.6 -1.0 25.85 Q-3.8 23.0 -7.45 25.75 L-11.45 28.0 Q-13.4 28.95 -15.45 29.7 L-18.75 30.7 Q-31.75 34.8 -35.35 52.8 L-35.4 55.1 -35.4 57.05 Z" fill="none" stroke="#3f274c" stroke-linecap="round" stroke-linejoin="round" stroke-width="1.2000000000000002"/>
  </g>
  <defs>
    <radialGradient cx="0" cy="0" gradientTransform="matrix(0.0, -0.0253, 0.0303, 0.0, -7.05, 58.2)" gradientUnits="userSpaceOnUse" id="gradient0" r="819.2" spreadMethod="pad">
      <stop offset="0.0" stop-color="#38181b"/>
      <stop offset="0.10588235294117647" stop-color="#56252a"/>
      <stop offset="0.3333333333333333" stop-color="#56252a"/>
      <stop offset="0.5019607843137255" stop-color="#6c2f37"/>
      <stop offset="1.0" stop-color="#d75e6c"/>
    </radialGradient>
  </defs>
</svg>
