<?xml version="1.0" encoding="UTF-8" standalone="no"?>
<svg xmlns:xlink="http://www.w3.org/1999/xlink" height="347.15px" width="330.4px" xmlns="http://www.w3.org/2000/svg">
  <g transform="matrix(1.0, 0.0, 0.0, 1.0, 165.2, 173.55)">
    <path d="M-24.9 134.6 Q-50.3 156.95 -77.7 167.2 L-84.3 169.5 Q-90.95 171.6 -97.9 173.05 -128.1 174.55 -148.15 144.1 -152.4 137.45 -156.35 129.25 L-157.05 127.3 Q-167.25 99.7 -163.85 66.0 -162.55 54.25 -159.9 41.85 -156.05 24.6 -149.15 6.1 L-148.25 3.7 Q-119.35 -45.7 -59.25 -80.4 L-47.85 -86.6 -31.65 -94.65 -18.5 -100.6 -11.1 -103.75 -9.15 -104.4 19.8 -114.05 32.85 -118.4 Q38.8 -131.8 33.4 -143.05 30.7 -148.5 25.35 -153.65 19.6 -158.95 10.7 -163.8 L6.3 -165.95 3.65 -167.15 Q-1.8 -169.75 -8.65 -172.15 L6.5 -172.95 8.1 -173.0 17.7 -173.05 27.95 -172.55 43.45 -170.95 63.05 -167.3 77.8 -163.2 Q104.65 -154.65 129.15 -138.65 L125.65 -150.85 Q155.9 -132.7 163.35 -72.75 164.7 -64.85 164.7 -57.25 164.55 -40.5 157.5 -24.75 151.95 -12.3 142.05 -0.5 144.45 -12.05 144.65 -22.0 144.95 -34.35 141.85 -44.1 131.3 -77.25 81.35 -79.35 L72.15 -80.0 Q56.8 -80.8 42.35 -80.0 27.95 -79.15 14.5 -76.8 -2.65 -73.7 -18.35 -67.95 -36.5 -61.35 -52.85 -51.2 L-62.85 -44.6 -65.9 -42.3 Q-119.75 -6.35 -133.25 36.25 -137.5 50.15 -137.65 64.75 -137.65 86.05 -131.3 109.5 L-130.6 112.0 -128.95 117.35 Q-116.85 151.8 -90.35 140.7 -85.3 137.65 -80.75 134.05 -71.9 126.95 -65.3 118.1 -60.05 111.0 -56.2 102.75 -26.1 96.4 -24.9 134.6" fill="#72567e" fill-opacity="0.99607843" fill-rule="evenodd" stroke="none"/>
    <path d="M-24.9 134.6 Q-50.3 156.95 -77.7 167.2 L-84.3 169.5 Q-90.95 171.6 -97.9 173.05 -128.1 174.55 -148.15 144.1 -152.4 137.45 -156.35 129.25 L-157.05 127.3 Q-167.25 99.7 -163.85 66.0 -162.55 54.25 -159.9 41.85 -156.05 24.6 -149.15 6.1 L-148.25 3.7 Q-119.35 -45.7 -59.25 -80.4 L-47.85 -86.6 -31.65 -94.65 -18.5 -100.6 -11.1 -103.75 -9.15 -104.4 19.8 -114.05 32.85 -118.4 Q38.8 -131.8 33.4 -143.05 30.7 -148.5 25.35 -153.65 19.6 -158.95 10.7 -163.8 L6.3 -165.95 3.65 -167.15 Q-1.8 -169.75 -8.65 -172.15 L6.5 -172.95 8.1 -173.0 17.7 -173.05 27.95 -172.55 43.45 -170.95 63.05 -167.3 77.8 -163.2 Q104.65 -154.65 129.15 -138.65 L125.65 -150.85 Q155.9 -132.7 163.35 -72.75 164.7 -64.85 164.7 -57.25 164.55 -40.5 157.5 -24.75 151.95 -12.3 142.05 -0.5 144.45 -12.05 144.65 -22.0 144.95 -34.35 141.85 -44.1 131.3 -77.25 81.35 -79.35 L72.15 -80.0 Q56.8 -80.8 42.35 -80.0 27.95 -79.15 14.5 -76.8 -2.65 -73.7 -18.35 -67.95 -36.5 -61.35 -52.85 -51.2 L-62.85 -44.6 -65.9 -42.3 Q-119.75 -6.35 -133.25 36.25 -137.5 50.15 -137.65 64.75 -137.65 86.05 -131.3 109.5 L-130.6 112.0 -128.95 117.35 Q-116.85 151.8 -90.35 140.7 -85.3 137.65 -80.75 134.05 -71.9 126.95 -65.3 118.1 -60.05 111.0 -56.2 102.75 -26.1 96.4 -24.9 134.6 Z" fill="none" stroke="#3f274c" stroke-linecap="round" stroke-linejoin="round" stroke-width="1.0"/>
  </g>
</svg>
