<?xml version="1.0" encoding="UTF-8" standalone="no"?>
<svg xmlns:xlink="http://www.w3.org/1999/xlink" height="64.25px" width="68.4px" xmlns="http://www.w3.org/2000/svg">
  <g transform="matrix(1.0, 0.0, 0.0, 1.0, 47.6, -20.45)">
    <path d="M9.95 58.9 L15.5 56.75 15.25 54.25 15.1 51.45 14.45 47.4 Q12.5 37.1 3.6 32.45 1.4 31.05 -0.45 28.85 L-1.5 27.6 -2.7 25.85 Q10.8 28.1 17.2 39.7 19.85 47.55 19.9 57.3 L20.65 63.2 Q21.5 72.25 16.95 79.55 L14.45 80.6 13.7 80.95 Q10.25 82.65 6.25 83.7 -13.3 87.35 -32.85 77.9 -41.05 73.45 -45.95 62.7 -49.1 49.75 -46.2 39.35 -44.5 34.3 -40.65 28.05 -34.2 17.4 -31.8 21.7 -42.0 34.45 -42.1 51.85 -41.5 59.8 -36.3 66.65 -24.9 74.1 -8.95 73.05 -2.55 56.95 9.9 58.85 L9.95 58.9" fill="#c3a04b" fill-rule="evenodd" stroke="none"/>
    <path d="M-8.45 74.35 Q-21.1 74.75 -26.2 69.0 -31.35 63.2 -31.15 57.15 -31.0 51.05 -29.25 47.2 -27.55 43.3 -26.05 40.8 -24.65 38.3 -16.4 34.1 -8.15 29.9 -3.7 30.05 0.75 30.15 7.3 37.25 13.85 44.35 14.25 54.8 14.6 65.2 9.45 69.6 4.2 73.95 -8.45 74.35" fill="url(#gradient0)" fill-rule="evenodd" stroke="none"/>
    <path d="M-1.5 27.6 L-0.45 28.85 Q1.4 31.05 3.6 32.45 12.5 37.1 14.45 47.4 L15.1 51.45 15.25 54.25 15.8 59.2 Q16.3 78.05 -11.3 77.45 -31.4 77.0 -33.1 57.05 L-33.1 55.1 -33.1 57.05 -33.3 55.3 -33.1 55.1 -32.45 54.5 Q-30.5 44.85 -23.1 35.35 -19.4 31.75 -15.45 29.7 -13.65 28.95 -11.95 28.0 L-8.4 25.75 Q-5.0 27.5 -1.5 27.6 M-24.45 40.8 Q-29.7 46.05 -30.5 52.5 L-30.65 53.5 -30.65 55.55 Q-30.55 73.1 -10.6 73.85 12.75 72.95 13.25 59.4 L13.3 59.2 Q13.6 58.1 14.2 58.1 13.65 53.15 12.4 48.95 9.4 35.45 -4.05 31.25 -2.85 30.8 -1.65 29.75 -6.1 30.4 -10.5 29.1 -9.25 30.3 -8.05 30.9 L-11.2 32.25 Q-10.4 31.55 -11.4 31.0 -15.4 30.95 -18.6 32.95 -15.9 33.7 -11.65 32.45 L-14.6 33.9 -16.65 34.3 Q-21.2 37.05 -24.0 40.05 L-24.45 40.8" fill="#ee6878" fill-rule="evenodd" stroke="none"/>
    <path d="M-15.45 29.7 Q-19.4 31.75 -23.1 35.35 -30.5 44.85 -32.45 54.5 L-33.1 55.1 -33.3 55.3 -33.5 55.55 -33.4 55.0 -33.4 54.95 -33.4 54.8 -33.35 54.75 -33.35 54.3 -33.05 52.8 Q-29.9 34.8 -18.4 30.7 L-15.45 29.7 M13.3 59.2 L13.25 59.2 Q13.4 53.55 12.4 48.95 13.65 53.15 14.2 58.1 13.6 58.1 13.3 59.2 M-4.05 31.25 L-6.95 30.45 -8.05 30.9 Q-9.25 30.3 -10.5 29.1 -6.1 30.4 -1.65 29.75 -2.85 30.8 -4.05 31.25 M-33.1 55.1 L-33.05 52.8 -33.1 55.1" fill="#d75e6c" fill-rule="evenodd" stroke="none"/>
    <path d="M-14.6 33.9 Q-20.7 37.05 -24.45 40.8 L-24.0 40.05 Q-21.2 37.05 -16.65 34.3 L-14.6 33.9" fill="#a35858" fill-rule="evenodd" stroke="none"/>
    <path d="M-1.5 27.6 Q-5.0 27.5 -8.4 25.75 -5.15 23.0 -2.7 25.85 L-1.5 27.6 M-11.2 32.25 L-11.65 32.45 Q-15.9 33.7 -18.6 32.95 -15.4 30.95 -11.4 31.0 -10.4 31.55 -11.2 32.25" fill="#fa8686" fill-rule="evenodd" stroke="none"/>
    <path d="M-33.1 57.05 Q-31.4 77.0 -11.3 77.45 16.3 78.05 15.8 59.2 L15.25 54.25 15.1 51.45 14.45 47.4 Q12.5 37.1 3.6 32.45 1.4 31.05 -0.45 28.85 L-1.5 27.6 -2.7 25.85 Q-5.15 23.0 -8.4 25.75 L-11.95 28.0 Q-13.65 28.95 -15.45 29.7 L-18.4 30.7 Q-29.9 34.8 -33.05 52.8 L-33.1 55.1 -33.1 57.05 Z" fill="none" stroke="#3f274c" stroke-linecap="round" stroke-linejoin="round" stroke-width="1.2000000000000002"/>
  </g>
  <defs>
    <radialGradient cx="0" cy="0" gradientTransform="matrix(0.0, -0.0253, 0.0268, 0.0, -8.05, 58.2)" gradientUnits="userSpaceOnUse" id="gradient0" r="819.2" spreadMethod="pad">
      <stop offset="0.0" stop-color="#38181b"/>
      <stop offset="0.10588235294117647" stop-color="#56252a"/>
      <stop offset="0.3333333333333333" stop-color="#56252a"/>
      <stop offset="0.5019607843137255" stop-color="#6c2f37"/>
      <stop offset="1.0" stop-color="#d75e6c"/>
    </radialGradient>
  </defs>
</svg>
