<?xml version="1.0" encoding="UTF-8" standalone="no"?>
<svg xmlns:xlink="http://www.w3.org/1999/xlink" height="65.6px" width="58.55px" xmlns="http://www.w3.org/2000/svg">
  <g transform="matrix(1.0, 0.0, 0.0, 1.0, 42.7, -19.55)">
    <path d="M6.8 59.9 L11.75 58.0 11.6 55.55 11.65 52.75 11.35 48.65 Q10.15 38.25 2.65 33.2 0.85 31.7 -0.65 29.45 L-1.5 28.15 -2.45 26.35 Q9.2 29.2 14.1 41.1 15.95 49.05 15.5 58.75 L15.85 64.7 Q16.1 73.8 11.8 80.85 L9.6 81.8 8.95 82.15 Q5.85 83.65 2.3 84.55 -14.8 87.3 -31.3 76.95 -38.2 72.15 -41.85 61.15 -43.95 48.15 -40.85 37.85 -39.15 32.9 -35.45 26.8 -29.3 16.5 -27.5 20.85 -37.0 33.15 -38.0 50.55 -37.85 58.5 -33.7 65.55 -24.2 73.55 -10.35 73.2 -3.95 57.4 6.75 59.85 L6.8 59.9" fill="#c3a04b" fill-rule="evenodd" stroke="none"/>
    <path d="M-9.95 74.5 Q-20.95 74.35 -25.1 68.35 -29.25 62.35 -28.75 56.3 -28.3 50.25 -26.55 46.5 -24.9 42.65 -23.45 40.25 -22.15 37.8 -14.8 33.95 -7.35 30.15 -3.5 30.5 0.35 30.8 5.65 38.2 10.95 45.6 10.75 56.0 10.5 66.4 5.8 70.6 1.05 74.7 -9.95 74.5" fill="url(#gradient0)" fill-rule="evenodd" stroke="none"/>
    <path d="M-1.5 28.15 L-0.65 29.45 Q0.85 31.7 2.65 33.2 10.15 38.25 11.35 48.65 L11.65 52.75 11.6 55.55 11.85 60.45 Q11.3 79.35 -12.6 77.5 -30.0 76.15 -30.4 56.1 L-30.3 54.15 -30.4 56.1 -30.55 54.35 -30.3 54.15 -29.75 53.65 Q-27.55 44.05 -20.65 34.9 -17.25 31.5 -13.7 29.6 L-10.55 28.05 -7.4 25.95 Q-4.55 27.9 -1.5 28.15 M9.45 50.1 Q7.55 36.5 -3.95 31.65 -2.8 31.3 -1.75 30.3 -5.65 30.75 -9.35 29.25 -8.4 30.5 -7.3 31.15 L-10.2 32.35 Q-9.45 31.7 -10.2 31.1 -13.7 30.85 -16.55 32.7 L-10.55 32.55 -13.2 33.85 -15.0 34.15 Q-19.1 36.7 -21.65 39.55 L-22.05 40.3 Q-26.9 45.3 -27.95 51.7 L-28.1 52.7 -28.2 54.7 Q-29.05 72.25 -11.8 73.95 8.5 74.1 9.6 60.55 L9.65 60.35 Q10.0 59.25 10.5 59.3 10.35 54.35 9.45 50.1" fill="#ee6878" fill-rule="evenodd" stroke="none"/>
    <path d="M-13.7 29.6 Q-17.25 31.5 -20.65 34.9 -27.55 44.05 -29.75 53.65 L-30.3 54.15 -30.2 51.9 -30.3 54.15 -30.55 54.35 -30.75 54.6 -30.6 54.05 -30.6 54.0 -30.6 53.85 -30.55 53.8 -30.55 53.4 -30.2 51.9 Q-26.5 34.05 -16.3 30.45 L-13.7 29.6 M9.65 60.35 L9.6 60.35 Q10.05 54.75 9.45 50.1 10.35 54.35 10.5 59.3 10.0 59.25 9.65 60.35 M-3.95 31.65 Q-5.1 31.15 -6.4 30.75 L-7.3 31.15 Q-8.4 30.5 -9.35 29.25 -5.65 30.75 -1.75 30.3 -2.8 31.3 -3.95 31.65" fill="#d75e6c" fill-rule="evenodd" stroke="none"/>
    <path d="M-13.2 33.85 Q-18.65 36.7 -22.05 40.3 L-21.65 39.55 Q-19.1 36.7 -15.0 34.15 L-13.2 33.85" fill="#a35858" fill-rule="evenodd" stroke="none"/>
    <path d="M-1.5 28.15 Q-4.55 27.9 -7.4 25.95 -4.4 23.35 -2.45 26.35 L-1.5 28.15 M-10.2 32.35 L-10.55 32.55 -16.55 32.7 Q-13.7 30.85 -10.2 31.1 -9.45 31.7 -10.2 32.35" fill="#fa8686" fill-rule="evenodd" stroke="none"/>
    <path d="M-30.4 56.1 Q-30.0 76.15 -12.6 77.5 11.3 79.35 11.85 60.45 L11.6 55.55 11.65 52.75 11.35 48.65 Q10.15 38.25 2.65 33.2 0.85 31.7 -0.65 29.45 L-1.5 28.15 -2.45 26.35 Q-4.4 23.35 -7.4 25.95 L-10.55 28.05 -13.7 29.6 -16.3 30.45 Q-26.5 34.05 -30.2 51.9 L-30.3 54.15 -30.4 56.1 Z" fill="none" stroke="#3f274c" stroke-linecap="round" stroke-linejoin="round" stroke-width="1.2000000000000002"/>
  </g>
  <defs>
    <radialGradient cx="0" cy="0" gradientTransform="matrix(0.0013, -0.0253, 0.0233, 0.0012, -8.75, 58.4)" gradientUnits="userSpaceOnUse" id="gradient0" r="819.2" spreadMethod="pad">
      <stop offset="0.0" stop-color="#38181b"/>
      <stop offset="0.10588235294117647" stop-color="#56252a"/>
      <stop offset="0.3333333333333333" stop-color="#56252a"/>
      <stop offset="0.5019607843137255" stop-color="#6c2f37"/>
      <stop offset="1.0" stop-color="#d75e6c"/>
    </radialGradient>
  </defs>
</svg>
