<?xml version="1.0" encoding="UTF-8" standalone="no"?>
<svg xmlns:xlink="http://www.w3.org/1999/xlink" height="201.65px" width="79.0px" xmlns="http://www.w3.org/2000/svg">
  <g transform="matrix(1.0, 0.0, 0.0, 1.0, 39.5, 101.15)">
    <path d="M1.15 -100.35 Q7.0 -101.1 12.95 -99.1 19.35 -100.95 26.1 -96.95 32.35 -85.25 30.4 -78.6 30.15 -75.6 31.6 -74.05 35.3 -70.25 33.6 -69.15 20.75 -68.55 19.95 -65.75 L19.75 -65.75 17.6 -66.3 17.9 -66.1 12.5 -66.85 12.7 -67.0 11.0 -66.95 7.75 -66.95 4.65 -66.4 1.95 -65.9 Q-13.85 -66.8 -11.6 -71.65 -12.45 -75.0 -9.4 -76.15 L19.35 -77.2 Q18.6 -81.6 14.95 -84.9 6.2 -90.3 -2.1 -88.15 -7.4 -88.65 -6.55 -93.2 L1.15 -100.35 M19.4 -95.25 Q16.45 -96.85 15.6 -94.65 17.7 -92.1 21.2 -92.15 22.65 -94.45 19.4 -95.25 M1.1 -71.3 Q6.15 -73.05 13.3 -71.35 10.65 -73.1 6.15 -73.95 1.05 -73.25 1.1 -71.3 M14.6 -97.7 L12.95 -99.1 14.6 -97.7" fill="#dcb4a3" fill-rule="evenodd" stroke="none"/>
    <path d="M26.1 -96.95 Q27.85 -96.35 29.45 -95.2 35.5 -90.55 37.1 -74.85 38.9 -72.6 38.9 -67.85 38.2 -64.55 35.9 -63.3 31.25 -62.25 27.35 -63.9 L19.95 -65.75 Q20.75 -68.55 33.6 -69.15 35.3 -70.25 31.6 -74.05 30.15 -75.6 30.4 -78.6 32.35 -85.25 26.1 -96.95 M-19.3 -64.9 Q-20.35 -66.85 -20.6 -69.6 -20.9 -72.35 -18.3 -77.3 -16.9 -88.05 -9.7 -96.5 -6.35 -99.85 1.15 -100.35 L-6.55 -93.2 Q-7.4 -88.65 -2.1 -88.15 6.2 -90.3 14.95 -84.9 18.6 -81.6 19.35 -77.2 L-9.4 -76.15 Q-12.45 -75.0 -11.6 -71.65 -13.85 -66.8 1.95 -65.9 -6.55 -64.45 -19.3 -64.9" fill="#d9ac9a" fill-rule="evenodd" stroke="none"/>
    <path d="M8.3 100.5 L-0.5 100.4 Q-14.15 96.05 -17.15 90.45 -22.5 70.95 -21.95 48.95 -24.0 17.4 -19.75 -19.6 L-17.3 -45.75 Q-9.9 -52.65 -7.6 -60.95 3.6 -61.7 12.5 -66.85 L17.9 -66.1 Q28.35 -63.5 32.75 -58.35 34.5 -38.9 32.5 -19.75 27.85 -4.2 30.9 12.65 22.75 43.4 20.8 74.2 L19.25 94.25 Q18.4 96.55 8.3 100.5 M19.75 -65.75 L19.95 -65.75 27.35 -63.9 19.75 -65.75 M7.3 -51.75 L10.9 -51.55 Q10.6 -53.0 7.35 -52.75 L7.3 -51.75 M13.55 -53.65 Q11.8 -55.95 8.3 -55.7 4.1 -55.6 3.25 -53.9 8.45 -54.6 13.55 -53.65 M4.1 -42.4 L11.55 -41.9 Q11.35 -43.75 8.0 -44.3 4.45 -45.0 4.1 -42.4 M4.65 -40.65 Q5.0 -37.25 6.85 -35.0 L1.9 -31.55 Q3.9 -30.2 5.55 -31.4 5.2 -27.3 2.15 -26.4 L6.1 -25.0 Q4.35 -25.1 2.65 -24.25 3.65 -22.8 6.0 -22.8 5.55 -17.8 8.15 -15.5 L10.05 -22.85 Q8.8 -22.75 7.95 -24.0 10.0 -23.25 10.75 -24.45 L8.85 -30.3 11.85 -34.5 Q12.4 -37.85 11.15 -40.4 8.05 -42.05 4.65 -40.65 M6.2 -13.05 Q8.7 -14.25 11.1 -12.7 11.35 -13.95 8.8 -14.6 6.15 -14.55 6.2 -13.05 M-4.65 12.9 L-5.35 11.55 -5.35 11.5 -5.8 9.35 -5.85 9.25 -5.65 5.35 -5.6 5.15 -5.55 4.5 -5.45 4.4 -5.45 4.3 -4.8 2.3 -4.65 1.95 -4.7 1.9 Q-4.75 1.75 -4.75 1.9 L-5.2 2.75 -5.75 4.3 -5.75 4.4 -5.8 4.45 -5.9 4.9 -5.9 5.1 -6.25 6.75 -6.3 9.0 -6.35 9.15 -6.35 9.25 -6.3 9.35 -6.15 11.2 -5.9 11.7 -5.85 11.85 -5.2 13.1 -5.15 13.1 Q0.2 20.5 3.15 29.85 L3.15 29.8 Q3.7 32.05 2.75 34.65 0.5 40.4 -2.7 45.05 -4.25 46.95 -3.55 49.45 L-3.55 49.4 -3.2 50.9 -2.85 52.1 -2.85 52.2 -0.7 56.75 -0.6 56.75 Q-0.45 56.75 -0.6 56.65 L-2.2 52.2 -2.2 52.1 -2.6 50.85 -2.9 49.35 Q-3.45 47.05 -2.2 45.3 L-2.2 45.25 Q1.15 40.5 3.4 34.75 4.35 32.05 3.75 29.7 0.75 20.3 -4.65 12.85 L-4.65 12.9 M-10.7 1.45 L-10.7 1.4 -10.9 1.45 -12.05 3.65 -12.1 4.0 -12.25 4.15 -12.85 6.7 -12.9 6.8 -12.95 8.3 -12.9 8.5 -12.9 8.9 -12.85 9.05 -12.85 9.55 -12.75 9.9 -12.65 9.95 -12.5 10.45 -12.25 11.2 -12.25 11.25 -5.15 25.05 Q-3.6 28.2 -4.35 30.9 -5.2 39.1 -10.15 45.0 L-10.15 45.05 -10.3 45.55 -10.5 46.75 -10.4 46.8 -10.5 46.9 -10.4 46.9 -10.25 48.85 -9.85 50.45 -9.7 50.65 -9.45 51.45 -9.3 51.65 -9.25 51.85 -8.6 53.3 -8.55 53.5 -7.2 55.8 -7.1 55.85 -7.05 55.8 -7.2 55.55 Q-8.5 51.1 -8.45 46.9 -4.75 40.35 -2.1 33.0 -1.7 29.8 -2.35 26.2 -5.85 18.0 -10.9 9.6 -11.4 8.7 -10.35 3.7 -9.85 2.05 -10.7 1.45" fill="#f4ccc1" fill-rule="evenodd" stroke="none"/>
    <path d="M35.9 -63.3 Q35.35 -62.5 36.2 -60.85 L32.6 91.65 Q33.8 98.65 36.8 99.05 L8.3 100.5 Q18.4 96.55 19.25 94.25 L20.8 74.2 Q22.75 43.4 30.9 12.65 27.85 -4.2 32.5 -19.75 34.5 -38.9 32.75 -58.35 28.35 -63.5 17.9 -66.1 L17.6 -66.3 19.75 -65.75 27.35 -63.9 Q31.25 -62.25 35.9 -63.3 M-0.5 100.4 L-29.1 99.85 -38.9 98.7 Q-33.4 96.85 -33.4 92.5 L-32.5 37.75 -30.55 -5.4 Q-30.95 -39.1 -19.3 -64.9 -6.55 -64.45 1.95 -65.9 L4.65 -66.4 7.75 -66.95 11.0 -66.95 12.7 -67.0 12.5 -66.85 Q3.6 -61.7 -7.6 -60.95 -9.9 -52.65 -17.3 -45.75 L-19.75 -19.6 Q-24.0 17.4 -21.95 48.95 -22.5 70.95 -17.15 90.45 -14.15 96.05 -0.5 100.4 M-7.2 55.55 L-9.4 50.4 -9.4 50.15 -9.5 49.8 -9.85 47.0 -9.8 46.85 -9.85 46.8 -9.65 45.6 -9.5 45.2 Q-4.55 39.25 -3.65 31.0 L-3.65 30.95 Q-2.95 28.15 -4.55 24.9 L-12.0 10.35 -12.1 9.85 -12.15 9.7 -12.35 8.9 -12.35 8.75 -12.4 8.3 -12.25 5.6 -10.7 1.45 Q-9.85 2.05 -10.35 3.7 -11.4 8.7 -10.9 9.6 -5.85 18.0 -2.35 26.2 -1.7 29.8 -2.1 33.0 -4.75 40.35 -8.45 46.9 -8.5 51.1 -7.2 55.55" fill="#deaea9" fill-rule="evenodd" stroke="none"/>
    <path d="M19.4 -95.25 Q22.65 -94.45 21.2 -92.15 17.7 -92.1 15.6 -94.65 16.45 -96.85 19.4 -95.25 M1.1 -71.3 Q1.05 -73.25 6.15 -73.95 10.65 -73.1 13.3 -71.35 6.15 -73.05 1.1 -71.3 M13.55 -53.65 Q8.45 -54.6 3.25 -53.9 4.1 -55.6 8.3 -55.7 11.8 -55.95 13.55 -53.65 M7.3 -51.75 L7.35 -52.75 Q10.6 -53.0 10.9 -51.55 L7.3 -51.75 M6.2 -13.05 Q6.15 -14.55 8.8 -14.6 11.35 -13.95 11.1 -12.7 8.7 -14.25 6.2 -13.05 M4.65 -40.65 Q8.05 -42.05 11.15 -40.4 12.4 -37.85 11.85 -34.5 L8.85 -30.3 10.75 -24.45 Q10.0 -23.25 7.95 -24.0 8.8 -22.75 10.05 -22.85 L8.15 -15.5 Q5.55 -17.8 6.0 -22.8 3.65 -22.8 2.65 -24.25 4.35 -25.1 6.1 -25.0 L2.15 -26.4 Q5.2 -27.3 5.55 -31.4 3.9 -30.2 1.9 -31.55 L6.85 -35.0 Q5.0 -37.25 4.65 -40.65 M4.1 -42.4 Q4.45 -45.0 8.0 -44.3 11.35 -43.75 11.55 -41.9 L4.1 -42.4" fill="#f4e8e2" fill-rule="evenodd" stroke="none"/>
    <path d="M-7.2 55.55 L-7.05 55.8 -7.1 55.85 -7.2 55.8 -8.55 53.5 -8.6 53.3 -9.25 51.85 -9.3 51.65 -9.45 51.45 -9.7 50.65 -9.85 50.45 -10.25 48.85 -10.4 46.9 -10.5 46.9 -10.4 46.8 -10.5 46.75 -10.3 45.55 -10.15 45.05 -10.15 45.0 Q-5.2 39.1 -4.35 30.9 -3.6 28.2 -5.15 25.05 L-12.25 11.25 -12.25 11.2 -12.5 10.45 -12.65 9.95 -12.75 9.9 -12.85 9.55 -12.85 9.05 -12.9 8.9 -12.9 8.5 -12.95 8.3 -12.9 6.8 -12.85 6.7 -12.25 4.15 -12.1 4.0 -12.05 3.65 -10.9 1.45 -10.7 1.4 -10.7 1.45 -12.25 5.6 -12.4 8.3 -12.35 8.75 -12.35 8.9 -12.15 9.7 -12.1 9.85 -12.0 10.35 -4.55 24.9 Q-2.95 28.15 -3.65 30.95 L-3.65 31.0 Q-4.55 39.25 -9.5 45.2 L-9.65 45.6 -9.85 46.8 -9.8 46.85 -9.85 47.0 -9.5 49.8 -9.4 50.15 -9.4 50.4 -7.2 55.55 M-4.65 12.9 L-4.65 12.85 Q0.75 20.3 3.75 29.7 4.35 32.05 3.4 34.75 1.15 40.5 -2.2 45.25 L-2.2 45.3 Q-3.45 47.05 -2.9 49.35 L-2.6 50.85 -2.2 52.1 -2.2 52.2 -0.6 56.65 Q-0.45 56.75 -0.6 56.75 L-0.7 56.75 -2.85 52.2 -2.85 52.1 -3.2 50.9 -3.55 49.4 -3.55 49.45 Q-4.25 46.95 -2.7 45.05 0.5 40.4 2.75 34.65 3.7 32.05 3.15 29.8 L3.15 29.85 Q0.2 20.5 -5.15 13.1 L-5.2 13.1 -5.85 11.85 -5.9 11.7 -6.15 11.2 -6.3 9.35 -6.35 9.25 -6.35 9.15 -6.3 9.0 -6.25 6.75 -5.9 5.1 -5.9 4.9 -5.8 4.45 -5.75 4.4 -5.75 4.3 -5.2 2.75 -4.75 1.9 Q-4.75 1.75 -4.7 1.9 L-4.65 1.95 -4.8 2.3 -5.45 4.3 -5.45 4.4 -5.55 4.5 -5.6 5.15 -5.65 5.35 -5.85 9.25 -5.8 9.35 -5.35 11.5 -5.35 11.55 -4.65 12.9" fill="#d0a39e" fill-rule="evenodd" stroke="none"/>
    <path d="M1.15 -100.35 Q7.0 -101.1 12.95 -99.1 19.35 -100.95 26.1 -96.95 27.85 -96.35 29.45 -95.2 35.5 -90.55 37.1 -74.85 38.9 -72.6 38.9 -67.85 38.2 -64.55 35.9 -63.3 35.35 -62.5 36.2 -60.85 L32.6 91.65 Q33.8 98.65 36.8 99.05 M-38.9 98.7 Q-33.4 96.85 -33.4 92.5 L-32.5 37.75 -30.55 -5.4 Q-30.95 -39.1 -19.3 -64.9 -20.35 -66.85 -20.6 -69.6 -20.9 -72.35 -18.3 -77.3 -16.9 -88.05 -9.7 -96.5 -6.35 -99.85 1.15 -100.35 M12.95 -99.1 L14.6 -97.7" fill="none" stroke="#574a3a" stroke-linecap="round" stroke-linejoin="round" stroke-width="1.2000000000000002"/>
    <path d="M-19.3 -64.3 Q-19.9 -64.3 -19.9 -64.9 -19.8 -65.55 -19.25 -65.45 L-10.25 -65.25 1.65 -66.05 1.8 -66.05 1.85 -66.1 2.0 -66.1 4.6 -66.55 4.95 -66.65 6.15 -66.85 7.7 -67.0 7.8 -66.95 7.75 -66.85 5.4 -66.45 4.65 -66.2 2.1 -65.7 2.0 -65.65 1.9 -65.65 1.7 -65.6 -7.6 -64.5 -19.3 -64.3 M19.9 -65.65 Q19.75 -65.65 19.85 -65.75 L19.95 -65.8 27.4 -64.2 27.45 -64.2 28.95 -63.7 30.25 -63.45 30.55 -63.45 30.8 -63.4 31.05 -63.4 31.3 -63.35 32.65 -63.35 32.9 -63.4 33.15 -63.4 33.4 -63.45 33.7 -63.45 35.75 -63.85 35.8 -63.85 36.25 -63.75 36.5 -63.4 Q36.6 -62.8 36.0 -62.7 L34.05 -62.4 33.2 -62.4 33.05 -62.35 32.5 -62.35 32.35 -62.4 31.8 -62.4 31.5 -62.45 31.25 -62.45 30.95 -62.5 30.8 -62.5 30.7 -62.55 30.4 -62.55 30.15 -62.65 29.3 -62.8 29.05 -62.9 28.75 -62.95 27.2 -63.55 27.25 -63.55 19.9 -65.65" fill="#574a3a" fill-rule="evenodd" stroke="none"/>
  </g>
</svg>
