<?xml version="1.0" encoding="UTF-8" standalone="no"?>
<svg xmlns:xlink="http://www.w3.org/1999/xlink" height="183.4px" width="72.3px" xmlns="http://www.w3.org/2000/svg">
  <g transform="matrix(1.0, 0.0, 0.0, 1.0, 36.0, 102.8)">
    <path d="M-27.05 -51.5 Q-28.75 -53.15 -28.7 -53.8 -28.65 -54.3 -26.3 -56.7 L-25.1 -57.9 -24.45 -58.0 Q-24.25 -57.95 -24.25 -57.4 -24.25 -56.9 -24.9 -54.55 L-25.6 -51.75 Q-25.6 -51.2 -25.15 -50.85 L-24.55 -50.45 Q-24.65 -49.9 -25.1 -49.75 L-27.05 -51.5 M22.9 -76.45 Q21.7 -71.85 19.7 -70.45 17.7 -69.05 15.75 -70.45 13.75 -71.8 12.9 -75.1 12.05 -78.4 12.5 -80.45 12.3 -86.4 13.3 -88.2 13.7 -88.95 14.65 -88.95 16.7 -88.95 19.9 -85.35 23.7 -81.05 22.9 -76.45 M23.5 -67.4 Q23.5 -66.0 22.8 -65.05 22.1 -64.1 21.1 -64.1 20.1 -64.1 19.4 -65.05 18.7 -66.0 18.7 -67.4 18.7 -68.75 19.4 -69.7 20.1 -70.65 21.1 -70.65 22.1 -70.65 22.8 -69.7 23.5 -68.75 23.5 -67.4 M18.35 -50.05 Q5.8 -51.1 0.45 -55.4 -2.6 -57.85 -5.65 -62.65 L-4.5 -61.75 1.75 -56.1 Q4.95 -53.3 9.8 -53.5 15.85 -53.7 21.0 -51.3 L21.85 -49.85 18.35 -50.05 M27.25 -50.45 L26.7 -51.4 30.2 -52.55 30.85 -52.55 Q31.05 -52.55 31.05 -52.0 31.05 -51.35 30.5 -50.8 29.5 -49.85 27.25 -50.45 M16.25 -19.55 Q14.5 -21.8 15.15 -23.9 L17.25 -27.45 Q17.65 -26.7 17.85 -27.05 L16.8 -20.0 Q16.65 -19.7 16.25 -19.55 M18.45 7.85 Q18.45 8.8 18.15 8.0 17.5 7.6 17.0 5.55 L16.35 3.15 15.55 -1.55 14.7 -6.95 15.05 -11.05 15.6 -11.35 Q15.9 -10.95 16.0 -7.75 L16.15 -1.6 Q16.35 1.55 17.45 2.95 18.45 4.3 18.45 7.85 M-11.85 -63.6 Q-12.85 -64.25 -13.7 -65.85 -14.6 -67.45 -14.7 -69.05 L-14.4 -69.75 -13.85 -69.95 Q-13.25 -69.55 -12.55 -67.0 -11.85 -64.6 -11.85 -63.6 M-17.75 -65.35 L-17.6 -67.0 Q-14.85 -64.2 -10.85 -54.45 -7.55 -46.3 -4.3 -45.5 L-5.55 -45.75 Q-6.45 -46.0 -7.0 -46.7 L-9.65 -49.95 Q-12.05 -53.7 -17.75 -65.35 M-0.25 -43.25 L3.25 -39.55 Q0.9 -39.65 -0.3 -41.0 -1.1 -41.9 -1.1 -42.5 L-0.9 -43.2 -0.25 -43.2 -0.25 -43.25 M-12.7 7.4 Q-12.95 0.7 -12.55 -5.25 -12.15 -10.9 -11.4 -12.85 L-10.55 -12.7 -11.3 0.65 -11.95 8.0 -12.7 7.4 M-7.2 29.15 Q-4.9 30.55 -7.0 31.5 -16.5 27.0 -16.5 26.35 L-16.3 26.2 -15.55 26.05 Q-12.2 26.9 -9.5 28.05 L-8.65 28.4 -8.6 28.4 Q-7.75 28.8 -7.2 29.15 M-30.55 48.95 Q-31.95 48.05 -32.75 46.4 -33.4 44.9 -33.4 43.45 L-32.8 41.65 -31.8 39.45 -31.55 39.5 -31.35 40.2 Q-31.35 40.65 -31.85 41.85 L-32.35 43.55 Q-32.35 44.55 -31.4 46.45 -30.5 48.3 -30.55 48.95 M-26.65 49.9 Q-26.65 50.3 -27.0 50.6 L-27.95 50.9 -28.85 50.6 -29.25 49.9 Q-29.25 49.45 -28.85 49.2 -28.5 48.9 -27.95 48.9 -27.4 48.9 -27.0 49.2 -26.65 49.45 -26.65 49.9 M-3.8 73.3 Q-3.8 72.05 -1.8 68.95 L-1.25 69.15 Q-1.0 69.3 -1.0 69.9 -1.0 70.35 -1.55 71.6 L-2.15 73.25 -1.9 74.8 Q-1.85 74.85 -1.25 74.5 -0.1 73.8 0.65 77.45 -1.2 77.3 -2.6 75.65 -3.8 74.3 -3.8 73.3 M13.25 16.65 L10.15 22.15 9.65 23.05 Q9.05 21.9 9.05 20.95 9.05 19.85 9.8 18.6 10.95 16.55 13.25 16.65 M32.95 49.25 L30.7 47.45 30.05 46.95 Q24.65 43.0 18.7 43.0 L15.85 43.6 7.4 46.4 Q13.1 44.15 16.25 42.55 17.55 41.85 18.7 41.85 L23.6 42.45 Q27.35 43.35 29.65 45.35 L30.7 46.25 32.95 48.0 33.9 49.05 35.2 50.05 35.3 50.35 Q35.05 50.85 34.4 50.85 L33.2 49.6 32.95 49.25 M4.45 76.1 L4.2 76.75 3.55 77.0 Q3.2 77.0 2.95 76.75 2.65 76.45 2.65 76.1 2.65 75.7 2.95 75.45 3.2 75.2 3.55 75.2 3.9 75.2 4.2 75.45 L4.45 76.1" fill="#ffffff" fill-rule="evenodd" stroke="none"/>
    <path d="M-26.3 -56.7 Q-24.95 -65.1 -23.55 -68.35 -22.45 -71.0 -20.45 -73.3 -19.5 -75.2 -19.05 -77.5 -18.2 -81.5 -16.6 -86.75 L-15.35 -90.5 Q-13.95 -94.35 -13.0 -95.45 -10.7 -97.95 -6.85 -99.25 L1.5 -101.3 8.85 -102.8 Q12.05 -102.8 18.3 -98.45 26.05 -92.95 27.95 -85.9 30.35 -76.9 31.2 -70.8 L31.95 -65.9 34.3 -62.7 Q35.5 -61.05 35.5 -57.7 35.5 -55.85 34.3 -52.55 33.55 -50.5 29.65 -14.45 L32.95 15.15 32.95 48.0 30.7 46.25 29.65 45.35 Q27.35 43.35 23.6 42.45 L18.7 41.85 Q17.55 41.85 16.25 42.55 13.1 44.15 7.4 46.4 L15.85 43.6 18.7 43.0 Q24.65 43.0 30.05 46.95 L30.7 47.45 32.95 49.25 32.95 54.9 32.9 57.1 31.75 56.45 30.65 55.7 22.7 50.3 Q18.5 47.5 17.2 47.5 10.55 47.5 7.95 52.65 6.1 56.35 5.85 64.05 5.55 74.05 5.3 75.45 4.4 80.6 0.65 80.6 -3.25 80.6 -3.85 76.65 L-3.95 63.25 Q-3.95 57.6 -5.55 54.95 -7.1 52.4 -10.35 52.4 L-13.25 51.9 -16.15 51.45 Q-19.25 51.45 -22.85 52.5 L-28.15 53.45 Q-30.05 53.45 -32.35 52.3 -36.0 50.45 -36.0 46.75 -36.0 42.45 -33.05 35.2 -30.1 28.05 -30.1 22.4 L-30.9 20.75 Q-31.7 18.9 -31.7 15.35 L-30.25 8.8 Q-28.65 2.15 -28.35 0.05 -27.45 -1.4 -27.45 -2.35 L-25.3 -8.15 -25.7 -9.45 -26.1 -10.85 Q-25.0 -20.0 -23.6 -37.35 L-23.5 -39.45 Q-23.5 -41.3 -23.85 -41.8 -25.3 -44.05 -27.4 -49.0 L-27.05 -51.5 -25.1 -49.75 Q-24.65 -49.9 -24.55 -50.45 L-25.15 -50.85 Q-25.6 -51.2 -25.6 -51.75 L-24.9 -54.55 Q-24.25 -56.9 -24.25 -57.4 -24.25 -57.95 -24.45 -58.0 L-25.1 -57.9 -26.3 -56.7 M12.5 -80.45 Q10.6 -79.45 9.6 -77.15 8.65 -75.1 8.65 -72.65 8.65 -67.75 12.05 -65.15 15.15 -62.85 20.25 -62.85 22.5 -62.85 23.65 -64.55 24.45 -65.8 24.45 -66.95 24.45 -71.7 23.7 -74.4 L22.9 -76.45 Q23.7 -81.05 19.9 -85.35 16.7 -88.95 14.65 -88.95 13.7 -88.95 13.3 -88.2 12.3 -86.4 12.5 -80.45 M7.3 -90.8 Q7.3 -93.15 4.85 -94.2 2.4 -95.35 -0.5 -94.25 -8.3 -91.3 -8.3 -77.9 -8.3 -76.35 -7.0 -75.25 -5.15 -73.7 -1.0 -73.7 1.0 -73.7 2.35 -77.35 L3.55 -81.85 Q4.05 -83.6 5.75 -87.3 L7.3 -90.8 M14.25 -59.0 Q14.25 -61.2 12.95 -62.75 11.65 -64.35 9.85 -64.35 8.05 -64.35 6.75 -62.75 5.45 -61.2 5.45 -59.0 5.45 -56.75 6.75 -55.2 8.05 -53.65 9.85 -53.65 11.65 -53.65 12.95 -55.2 14.25 -56.75 14.25 -59.0 M18.45 7.85 Q18.45 4.3 17.45 2.95 16.35 1.55 16.15 -1.6 L16.0 -7.75 Q15.9 -10.95 15.6 -11.35 L15.05 -11.05 14.7 -6.95 15.55 -1.55 16.35 3.15 17.0 5.55 Q17.5 7.6 18.15 8.0 18.45 8.8 18.45 7.85 M16.25 -19.55 Q16.65 -19.7 16.8 -20.0 L17.85 -27.05 Q17.65 -26.7 17.25 -27.45 L15.15 -23.9 Q14.5 -21.8 16.25 -19.55 M27.25 -50.45 Q29.5 -49.85 30.5 -50.8 31.05 -51.35 31.05 -52.0 31.05 -52.55 30.85 -52.55 L30.2 -52.55 26.7 -51.4 27.25 -50.45 M18.35 -50.05 L21.85 -49.85 21.0 -51.3 Q15.85 -53.7 9.8 -53.5 4.95 -53.3 1.75 -56.1 L-4.5 -61.75 -5.65 -62.65 Q-2.6 -57.85 0.45 -55.4 5.8 -51.1 18.35 -50.05 M21.9 -27.7 Q20.75 -27.7 19.8 -26.3 18.9 -25.0 17.1 -20.85 17.05 1.15 17.75 3.1 17.85 3.3 18.25 3.1 L18.4 5.25 Q18.35 9.3 20.15 11.55 22.05 14.0 25.85 14.0 30.5 14.0 30.5 1.15 30.5 -8.7 28.35 -17.45 25.85 -27.7 21.9 -27.7 M-0.25 -43.25 L-0.25 -43.2 -0.9 -43.2 -1.1 -42.5 Q-1.1 -41.9 -0.3 -41.0 0.9 -39.65 3.25 -39.55 L-0.25 -43.25 M-17.75 -65.35 Q-12.05 -53.7 -9.65 -49.95 L-7.0 -46.7 Q-6.45 -46.0 -5.55 -45.75 L-4.3 -45.5 Q-7.55 -46.3 -10.85 -54.45 -14.85 -64.2 -17.6 -67.0 L-17.75 -65.35 M-11.85 -63.6 Q-11.85 -64.6 -12.55 -67.0 -13.25 -69.55 -13.85 -69.95 L-14.4 -69.75 -14.7 -69.05 Q-14.6 -67.45 -13.7 -65.85 -12.85 -64.25 -11.85 -63.6 M-16.15 -25.1 Q-16.15 -16.35 -11.9 -16.25 -10.25 -16.25 -9.0 -17.9 -7.65 -19.6 -7.65 -22.15 -7.65 -29.25 -6.45 -34.1 L-5.25 -38.1 Q-5.25 -39.45 -6.1 -40.65 -7.4 -42.45 -10.15 -42.45 -13.25 -42.45 -14.3 -40.5 -16.15 -37.0 -16.15 -25.1 M-12.7 7.4 L-11.95 8.0 -11.3 0.65 -10.55 -12.7 -11.4 -12.85 Q-12.15 -10.9 -12.55 -5.25 -12.95 0.7 -12.7 7.4 M-7.2 29.15 L-3.15 30.9 Q-1.3 30.9 -0.65 29.1 -0.15 27.75 -0.15 24.4 -0.15 17.9 -2.85 13.45 -5.35 9.3 -8.55 9.3 -14.65 9.3 -16.85 11.9 -18.4 13.65 -18.4 17.8 -18.4 19.7 -17.65 20.8 -14.9 24.95 -8.8 28.3 L-8.65 28.4 -9.5 28.05 Q-12.2 26.9 -15.55 26.05 L-16.3 26.2 -16.5 26.35 Q-16.5 27.0 -7.0 31.5 -4.9 30.55 -7.2 29.15 M-26.65 49.9 Q-26.65 49.45 -27.0 49.2 -27.4 48.9 -27.95 48.9 -28.5 48.9 -28.85 49.2 -29.25 49.45 -29.25 49.9 L-28.85 50.6 -27.95 50.9 -27.0 50.6 Q-26.65 50.3 -26.65 49.9 M-30.55 48.95 Q-30.5 48.3 -31.4 46.45 -32.35 44.55 -32.35 43.55 L-31.85 41.85 Q-31.35 40.65 -31.35 40.2 L-31.55 39.5 -31.8 39.45 -32.8 41.65 -33.4 43.45 Q-33.4 44.9 -32.75 46.4 -31.95 48.05 -30.55 48.95 M-7.85 41.2 Q-7.85 39.0 -9.05 37.45 -10.3 35.85 -12.05 35.85 -13.8 35.85 -15.0 37.45 -16.25 39.0 -16.25 41.2 -16.25 43.4 -15.0 45.0 -13.8 46.55 -12.05 46.55 -10.3 46.55 -9.05 45.0 -7.85 43.4 -7.85 41.2 M-3.8 73.3 Q-3.8 74.3 -2.6 75.65 -1.2 77.3 0.65 77.45 -0.1 73.8 -1.25 74.5 -1.85 74.85 -1.9 74.8 L-2.15 73.25 -1.55 71.6 Q-1.0 70.35 -1.0 69.9 -1.0 69.3 -1.25 69.15 L-1.8 68.95 Q-3.8 72.05 -3.8 73.3 M14.1 9.5 Q14.1 7.65 13.0 6.4 11.9 5.15 10.35 5.15 8.8 5.15 7.7 6.4 6.6 7.65 6.6 9.5 6.6 11.3 7.7 12.6 8.8 13.85 10.35 13.85 11.9 13.85 13.0 12.6 14.1 11.3 14.1 9.5 M13.25 16.65 Q10.95 16.55 9.8 18.6 9.05 19.85 9.05 20.95 9.05 21.9 9.65 23.05 L10.15 22.15 13.25 16.65 M25.65 25.1 Q25.65 21.2 23.1 18.95 20.7 16.85 17.45 17.2 14.05 17.5 11.8 20.35 9.25 23.55 9.25 28.9 9.25 32.0 9.85 33.6 10.95 36.65 14.15 36.65 18.7 36.65 22.1 33.4 25.65 30.0 25.65 25.1 M4.45 76.1 L4.2 75.45 Q3.9 75.2 3.55 75.2 3.2 75.2 2.95 75.45 2.65 75.7 2.65 76.1 2.65 76.45 2.95 76.75 3.2 77.0 3.55 77.0 L4.2 76.75 4.45 76.1" fill="url(#gradient0)" fill-rule="evenodd" stroke="none"/>
    <path d="M32.95 15.15 L33.6 25.3 33.95 27.55 34.0 27.85 Q34.65 32.3 35.9 37.75 36.65 41.05 36.05 48.0 35.15 58.25 32.95 57.1 L32.95 54.9 32.95 49.25 33.2 49.6 34.4 50.85 Q35.05 50.85 35.3 50.35 L35.2 50.05 33.9 49.05 32.95 48.0 32.95 15.15" fill="url(#gradient1)" fill-rule="evenodd" stroke="none"/>
  </g>
  <defs>
    <linearGradient gradientTransform="matrix(-0.009, 0.1117, -0.0478, -0.0034, 7.9, -10.9)" gradientUnits="userSpaceOnUse" id="gradient0" spreadMethod="pad" x1="-819.2" x2="819.2">
      <stop offset="0.0" stop-color="#cccccc" stop-opacity="0.4509804"/>
      <stop offset="1.0" stop-color="#cccccc" stop-opacity="0.14901961"/>
    </linearGradient>
    <linearGradient gradientTransform="matrix(-0.0051, 0.1117, -0.0271, -0.0034, 18.75, -10.9)" gradientUnits="userSpaceOnUse" id="gradient1" spreadMethod="pad" x1="-819.2" x2="819.2">
      <stop offset="0.0" stop-color="#cccccc" stop-opacity="0.4509804"/>
      <stop offset="1.0" stop-color="#cccccc" stop-opacity="0.14901961"/>
    </linearGradient>
  </defs>
</svg>
