<?xml version="1.0" encoding="UTF-8" standalone="no"?>
<svg xmlns:xlink="http://www.w3.org/1999/xlink" height="280.15px" width="583.1px" xmlns="http://www.w3.org/2000/svg">
  <g transform="matrix(1.0, 0.0, 0.0, 1.0, 260.85, 88.3)">
    <path d="M-24.35 -86.5 L-6.35 -87.6 3.95 -87.75 11.45 -87.35 17.15 -86.8 30.0 -85.2 26.55 -86.1 Q38.55 -84.55 50.6 -81.3 66.35 -80.1 81.9 -77.3 92.25 -75.4 97.85 -73.9 L98.15 -73.85 100.3 -73.45 103.6 -72.85 108.15 -72.0 108.3 -71.95 Q118.35 -70.1 125.4 -68.0 L125.6 -67.95 127.75 -67.3 137.4 -64.1 137.65 -64.0 Q142.8 -62.15 179.55 -41.85 255.5 -12.25 307.1 51.25 385.05 149.5 62.1 189.05 -288.75 207.5 -258.45 104.1 -246.2 44.5 -190.9 -4.45 -159.1 -41.25 -119.75 -60.0 L-119.55 -60.1 -118.7 -60.55 -117.9 -60.9 -117.85 -60.9 Q-108.35 -65.35 -98.4 -68.7 -74.75 -76.7 -48.7 -78.8 L-40.6 -81.2 Q-30.15 -86.2 -24.35 -86.5 M5.25 -82.7 L7.35 -83.1 7.7 -83.25 7.7 -83.3 7.9 -83.4 8.0 -83.5 8.15 -83.5 8.3 -83.65 8.4 -83.7 8.7 -83.85 8.75 -83.9 8.85 -84.0 9.65 -84.55 9.65 -84.65 9.8 -84.7 9.75 -85.0 Q9.5 -85.5 8.1 -85.65 L4.4 -86.0 4.15 -86.0 3.65 -86.0 0.2 -85.55 Q-0.95 -85.35 -1.05 -85.0 -1.3 -84.8 -0.95 -84.6 L-0.5 -84.4 Q-0.7 -84.4 -0.5 -84.35 0.0 -84.0 0.85 -83.65 L1.05 -83.5 1.85 -83.25 4.3 -82.8 4.65 -82.8 4.9 -82.7 4.95 -82.7 5.25 -82.7 M6.45 -69.25 L7.35 -65.85 Q7.45 -65.1 7.1 -64.6 7.3 -62.6 7.6 -61.35 L7.65 -61.3 7.85 -61.3 Q7.75 -60.95 7.95 -60.5 L8.25 -59.3 8.25 -58.4 Q8.35 -57.1 8.8 -55.65 9.85 -50.7 11.9 -49.3 L12.65 -52.4 Q12.9 -54.15 12.3 -58.35 L12.0 -59.25 11.3 -61.05 Q10.95 -62.35 10.95 -64.2 10.2 -65.3 10.75 -65.75 10.4 -66.75 10.15 -68.2 L9.65 -70.0 Q9.0 -70.5 8.6 -71.65 8.0 -72.7 7.75 -73.75 7.5 -74.85 7.55 -75.45 L6.8 -76.5 Q6.65 -77.35 5.95 -76.8 5.45 -76.6 5.55 -75.6 L5.7 -75.2 5.85 -73.0 6.05 -70.6 6.45 -69.25 M12.85 -47.35 L12.7 -48.05 12.65 -48.05 Q12.6 -47.7 12.85 -47.35" fill="#f4ccc1" fill-rule="evenodd" stroke="none"/>
    <path d="M26.55 -86.1 L30.0 -85.2 17.15 -86.8 11.45 -87.35 3.95 -87.75 -6.35 -87.6 -24.35 -86.5 -9.95 -88.0 -2.1 -88.3 14.15 -87.6 Q21.8 -87.05 26.55 -86.1 M4.4 -86.0 L8.1 -85.65 Q9.5 -85.5 9.75 -85.0 L9.8 -84.7 9.65 -84.65 9.65 -84.55 8.85 -84.0 8.75 -83.9 8.7 -83.85 8.4 -83.7 8.3 -83.65 8.15 -83.5 8.0 -83.5 7.9 -83.4 7.7 -83.3 7.7 -83.25 7.35 -83.1 5.25 -82.7 5.15 -82.85 4.4 -86.0 M6.45 -69.25 L6.05 -70.6 5.85 -73.0 5.7 -75.2 5.55 -75.6 Q5.45 -76.6 5.95 -76.8 6.65 -77.35 6.8 -76.5 L7.55 -75.45 Q7.5 -74.85 7.75 -73.75 8.0 -72.7 8.6 -71.65 9.0 -70.5 9.65 -70.0 L10.15 -68.2 Q10.4 -66.75 10.75 -65.75 10.2 -65.3 10.95 -64.2 10.95 -62.35 11.3 -61.05 L12.0 -59.25 12.3 -58.35 Q12.9 -54.15 12.65 -52.4 L11.9 -49.3 Q9.85 -50.7 8.8 -55.65 8.35 -57.1 8.25 -58.4 L8.25 -59.3 7.95 -60.5 Q7.75 -60.95 7.85 -61.3 L7.65 -61.3 7.6 -61.35 Q7.3 -62.6 7.1 -64.6 7.45 -65.1 7.35 -65.85 L6.45 -69.25" fill="#deaea9" fill-rule="evenodd" stroke="none"/>
    <path d="M4.4 -86.0 L5.15 -82.85 5.25 -82.7 4.95 -82.7 4.9 -82.7 4.65 -82.8 4.3 -82.8 1.85 -83.25 1.05 -83.5 0.85 -83.65 Q0.0 -84.0 -0.5 -84.35 -0.7 -84.4 -0.5 -84.4 L-0.95 -84.6 Q-1.3 -84.8 -1.05 -85.0 -0.95 -85.35 0.2 -85.55 L3.65 -86.0 4.15 -86.0 4.4 -86.0" fill="#e9aea9" fill-rule="evenodd" stroke="none"/>
    <path d="M12.85 -47.35 Q12.6 -47.7 12.65 -48.05 L12.7 -48.05 12.85 -47.35" fill="#d4b68f" fill-rule="evenodd" stroke="none"/>
    <path d="M-117.85 -60.9 L-117.9 -60.9 -118.7 -60.55 -119.55 -60.1 -119.75 -60.0 M137.4 -64.1 L127.75 -67.3 125.6 -67.95 M125.4 -68.0 Q118.35 -70.1 108.3 -71.95 L108.15 -72.0 103.6 -72.85 100.3 -73.45 98.15 -73.85" fill="none" stroke="#574a3a" stroke-linecap="round" stroke-linejoin="miter-clip" stroke-miterlimit="3.0" stroke-width="1.0"/>
    <path d="M-119.75 -60.0 Q-159.1 -41.25 -190.9 -4.45 -246.2 44.5 -258.45 104.1 M307.1 51.25 Q255.5 -12.25 179.55 -41.85 142.8 -62.15 137.65 -64.0" fill="none" stroke="#574a3a" stroke-linecap="round" stroke-linejoin="round" stroke-width="1.2000000000000002"/>
    <path d="M-98.4 -68.75 L-98.3 -68.7 Q-98.2 -68.6 -98.35 -68.6 L-100.75 -67.7 -117.6 -60.4 -117.65 -60.4 Q-118.1 -60.2 -118.3 -60.65 -118.5 -61.1 -118.05 -61.35 L-100.25 -68.2 -98.4 -68.75 M97.95 -74.35 L98.0 -74.35 98.3 -74.1 98.3 -73.75 Q98.2 -73.2 97.7 -73.4 L81.85 -77.2 Q81.7 -77.2 81.8 -77.3 L81.9 -77.35 97.95 -74.35 M8.2 -83.45 L8.05 -83.5 7.95 -83.6 7.9 -83.6 7.9 -83.65 7.85 -83.65 7.85 -83.9 8.1 -83.9 8.1 -83.85 8.15 -83.85 8.2 -83.75 8.25 -83.7 8.3 -83.55 8.35 -83.45 8.4 -83.4 8.4 -83.35 8.35 -83.35 8.3 -83.4 8.2 -83.45" fill="#574a3a" fill-rule="evenodd" stroke="none"/>
  </g>
</svg>
