<?xml version="1.0" encoding="UTF-8" standalone="no"?>
<svg xmlns:xlink="http://www.w3.org/1999/xlink" height="213.2px" width="175.45px" xmlns="http://www.w3.org/2000/svg">
  <g transform="matrix(1.0, 0.0, 0.0, 1.0, 79.4, 97.5)">
    <path d="M-17.15 -90.35 L-17.05 -90.3 Q-14.55 -89.45 -6.3 -84.65 11.4 -70.7 27.45 -46.35 L27.55 -46.25 Q67.8 -5.2 95.45 62.25 L2.7 95.75 Q-71.4 -63.3 -17.15 -90.35 L-17.05 -90.3 -17.15 -90.35 M27.45 -46.35 Q14.75 -59.3 -0.85 -70.85 14.75 -59.3 27.45 -46.35" fill="#f4ccc1" fill-rule="evenodd" stroke="none"/>
    <path d="M2.7 95.75 L-51.0 115.1 Q-79.35 2.9 -78.8 -90.1 L-58.65 -95.2 Q-49.55 -96.95 -43.95 -96.9 L-32.45 -95.8 Q-26.9 -94.75 -18.15 -90.85 -19.25 -91.35 -17.2 -90.4 L-17.15 -90.35 -17.2 -90.4 -17.15 -90.35 Q-71.4 -63.3 2.7 95.75" fill="#deaea9" fill-rule="evenodd" stroke="none"/>
    <path d="M-17.15 -90.35 L-17.05 -90.3 Q-14.55 -89.45 -6.3 -84.65 11.4 -70.7 27.45 -46.35 L27.55 -46.25 Q67.8 -5.2 95.45 62.25 M-51.0 115.1 Q-79.35 2.9 -78.8 -90.1 M-32.45 -95.8 Q-26.9 -94.75 -18.15 -90.85 L-17.2 -90.4 -17.15 -90.35 -17.05 -90.3 M-17.15 -90.35 L-17.2 -90.4 M-0.85 -70.85 Q14.75 -59.3 27.45 -46.35" fill="none" stroke="#574a3a" stroke-linecap="round" stroke-linejoin="miter-clip" stroke-miterlimit="3.0" stroke-width="1.2000000000000002"/>
    <path d="M-43.95 -96.9 L-32.45 -95.8" fill="none" stroke="#574a3a" stroke-linecap="round" stroke-linejoin="round" stroke-width="1.2000000000000002"/>
    <path d="M-43.95 -97.45 L-43.9 -97.5 Q-43.3 -97.4 -43.3 -96.85 L-43.5 -96.4 -43.9 -96.3 -53.95 -95.75 -58.0 -95.15 -58.6 -95.1 Q-58.7 -95.0 -58.7 -95.15 L-58.65 -95.25 -52.7 -96.5 -45.75 -97.4 -43.95 -97.45" fill="#574a3a" fill-rule="evenodd" stroke="none"/>
  </g>
</svg>
