<?xml version="1.0" encoding="UTF-8" standalone="no"?>
<svg xmlns:xlink="http://www.w3.org/1999/xlink" height="173.8px" width="136.35px" xmlns="http://www.w3.org/2000/svg">
  <g transform="matrix(1.0, 0.0, 0.0, 1.0, 64.75, 86.9)">
    <path d="M44.8 -82.2 Q46.15 -83.3 47.5 -79.5 L48.45 -76.15 Q48.15 -71.15 51.85 -67.55 54.85 -65.55 56.35 -62.35 56.35 -59.5 55.65 -57.7 56.35 -59.5 56.35 -62.35 70.95 -54.8 64.05 -37.3 71.6 -33.45 70.95 -29.3 70.55 -22.1 65.4 -17.5 L65.35 -17.5 65.25 -17.35 65.5 -17.4 Q70.55 -12.8 70.8 -7.05 67.75 -0.65 61.15 2.75 55.9 -1.15 58.35 -10.95 61.7 -12.5 64.2 -15.75 48.0 -10.0 50.95 -24.75 53.1 -28.55 57.05 -30.25 58.95 -30.65 60.45 -31.8 62.65 -33.65 64.05 -37.3 62.65 -33.65 60.45 -31.8 61.8 -51.65 54.55 -55.8 55.25 -56.55 55.65 -57.7 49.6 -58.95 46.35 -67.55 44.6 -73.5 44.8 -82.2 M34.1 -85.5 Q35.5 -84.65 35.75 -82.85 39.55 -68.95 29.3 -60.15 22.2 -56.5 10.0 -56.5 8.5 -54.45 10.0 -52.75 L9.35 -50.8 Q8.4 -46.65 4.6 -45.4 0.0 -39.55 -0.15 -31.15 -1.05 -24.55 1.85 -20.95 13.3 9.6 2.5 37.6 L1.25 40.75 Q6.55 60.15 -7.85 79.6 -13.45 83.65 -20.55 86.3 L-28.65 55.6 Q-36.35 36.75 -51.45 34.4 -41.45 21.25 -37.3 5.8 -33.15 -6.75 -32.65 -29.7 -32.8 -33.1 -23.8 -43.25 -18.6 -49.2 -10.25 -57.45 L-6.85 -65.6 Q-5.55 -70.8 -0.15 -71.95 L14.85 -75.05 Q26.35 -77.8 34.1 -85.5 M65.25 -17.35 L64.2 -15.75 65.25 -17.35" fill="#f4ccc1" fill-rule="evenodd" stroke="none"/>
    <path d="M44.8 -82.2 Q44.6 -73.5 46.35 -67.55 49.6 -58.95 55.65 -57.7 55.25 -56.55 54.55 -55.8 51.6 -52.55 43.7 -56.5 51.6 -52.55 54.55 -55.8 61.8 -51.65 60.45 -31.8 58.95 -30.65 57.05 -30.25 53.1 -28.55 50.95 -24.75 48.0 -10.0 64.2 -15.75 61.7 -12.5 58.35 -10.95 55.9 -1.15 61.15 2.75 57.75 4.5 53.45 5.45 38.95 9.15 47.8 -9.9 41.05 -14.5 50.25 -29.45 48.95 -30.8 48.8 -33.65 L49.2 -34.0 48.85 -34.35 Q49.2 -48.75 43.7 -56.5 40.4 -58.0 40.2 -64.95 40.2 -71.15 43.5 -80.1 44.15 -81.7 44.8 -82.2 M34.1 -85.5 Q26.35 -77.8 14.85 -75.05 L-0.15 -71.95 Q-5.55 -70.8 -6.85 -65.6 L-10.25 -57.45 Q-18.6 -49.2 -23.8 -43.25 -32.8 -33.1 -32.65 -29.7 -33.15 -6.75 -37.3 5.8 -41.45 21.25 -51.45 34.4 -57.3 33.5 -64.3 35.1 L-64.15 34.9 Q-50.45 7.1 -49.75 4.15 -47.2 -7.0 -48.3 -18.9 -46.75 -32.1 -42.95 -43.7 -33.65 -63.25 -13.75 -63.05 L-12.85 -62.75 -11.7 -66.45 Q-8.9 -75.0 -1.55 -76.6 7.8 -76.6 10.7 -77.9 19.55 -84.95 30.85 -86.3 32.9 -86.3 34.1 -85.5 M-7.85 79.6 Q6.55 60.15 1.25 40.75 L2.5 37.6 Q8.0 56.65 1.95 69.7 -2.1 75.4 -7.85 79.6 M9.35 -50.8 L10.0 -52.75 Q8.5 -54.45 10.0 -56.5 22.2 -56.5 29.3 -60.15 22.45 -54.35 9.35 -50.8 M-26.3 -46.25 L-23.25 -48.8 Q-15.75 -55.5 -12.85 -62.75 -15.75 -55.5 -23.25 -48.8 L-26.3 -46.25 M49.2 -34.0 Q53.6 -29.95 57.05 -30.25 53.6 -29.95 49.2 -34.0 M48.5 -9.85 Q54.1 -9.05 58.35 -10.95 54.1 -9.05 48.5 -9.85" fill="#deaea9" fill-rule="evenodd" stroke="none"/>
    <path d="M47.5 -79.5 Q46.15 -83.3 44.8 -82.2 44.15 -81.7 43.5 -80.1" fill="none" stroke="#574a3a" stroke-linecap="round" stroke-linejoin="round" stroke-width="1.2000000000000002"/>
    <path d="M55.65 -57.7 Q56.35 -59.5 56.35 -62.35 54.85 -65.55 51.85 -67.55 48.15 -71.15 48.45 -76.15 L47.5 -79.5 M43.5 -80.1 Q40.2 -71.15 40.2 -64.95 40.4 -58.0 43.7 -56.5 51.6 -52.55 54.55 -55.8 55.25 -56.55 55.65 -57.7 M29.3 -60.15 Q39.55 -68.95 35.75 -82.85 35.5 -84.65 34.1 -85.5 32.9 -86.3 30.85 -86.3 19.55 -84.95 10.7 -77.9 7.8 -76.6 -1.55 -76.6 -8.9 -75.0 -11.7 -66.45 L-12.85 -62.75 Q-15.75 -55.5 -23.25 -48.8 L-26.3 -46.25 M-20.55 86.3 Q-13.45 83.65 -7.85 79.6 -2.1 75.4 1.95 69.7 8.0 56.65 2.5 37.6 13.3 9.6 1.85 -20.95 -1.05 -24.55 -0.15 -31.15 0.0 -39.55 4.6 -45.4 8.4 -46.65 9.35 -50.8 22.45 -54.35 29.3 -60.15 M56.35 -62.35 Q70.95 -54.8 64.05 -37.3 71.6 -33.45 70.95 -29.3 70.55 -22.1 65.4 -17.5 L65.35 -17.5 65.25 -17.35 65.5 -17.4 Q70.55 -12.8 70.8 -7.05 67.75 -0.65 61.15 2.75 57.75 4.5 53.45 5.45 38.95 9.15 47.8 -9.9 41.05 -14.5 50.25 -29.45 48.95 -30.8 48.8 -33.65 M49.2 -34.0 L48.85 -34.35 Q49.2 -48.75 43.7 -56.5 M57.05 -30.25 Q53.6 -29.95 49.2 -34.0 M60.45 -31.8 Q58.95 -30.65 57.05 -30.25 M64.2 -15.75 L65.25 -17.35 M58.35 -10.95 Q54.1 -9.05 48.5 -9.85 M64.05 -37.3 Q62.65 -33.65 60.45 -31.8 M64.2 -15.75 Q61.7 -12.5 58.35 -10.95 M-13.75 -63.05 Q-33.65 -63.25 -42.95 -43.7 -46.75 -32.1 -48.3 -18.9 -47.2 -7.0 -49.75 4.15 -50.45 7.1 -64.15 34.9" fill="none" stroke="#574a3a" stroke-linecap="round" stroke-linejoin="miter-clip" stroke-miterlimit="3.0" stroke-width="1.2000000000000002"/>
    <path d="M-26.65 -46.65 L-26.65 -46.7 -25.8 -46.6 Q-25.4 -46.1 -25.9 -45.8 L-26.8 -45.0 -27.15 -44.75 -34.0 -38.05 -35.35 -36.45 -35.5 -36.45 -35.5 -36.6 -34.55 -37.9 -28.9 -44.5 -28.5 -44.85 -28.2 -45.2 -27.3 -46.05 -27.1 -46.3 -26.65 -46.65 M1.9 37.35 L1.95 37.3 2.3 37.0 2.75 37.0 Q3.25 37.25 3.05 37.8 L2.8 38.25 1.6 40.9 Q1.4 41.2 1.1 41.1 0.75 40.95 0.85 40.55 L1.9 37.35 M9.9 -50.6 L9.85 -50.4 Q9.5 -49.9 9.0 -50.15 8.5 -50.4 8.75 -50.95 L9.75 -52.8 10.0 -52.95 10.2 -52.65 9.9 -50.6" fill="#574a3a" fill-rule="evenodd" stroke="none"/>
  </g>
</svg>
