<?xml version="1.0" encoding="UTF-8" standalone="no"?>
<svg xmlns:xlink="http://www.w3.org/1999/xlink" height="344.2px" width="331.95px" xmlns="http://www.w3.org/2000/svg">
  <g transform="matrix(1.0, 0.0, 0.0, 1.0, 164.75, 171.05)">
    <path d="M-25.05 134.65 Q-50.6 156.85 -78.05 166.95 L-84.7 169.15 Q-91.35 171.25 -98.3 172.6 -128.5 173.95 -148.35 143.25 -152.6 136.6 -156.45 128.35 L-157.1 126.4 Q-167.0 98.65 -163.2 65.0 -161.85 53.3 -158.95 40.9 -154.95 23.75 -147.8 5.3 L-146.9 2.9 Q-117.4 -46.2 -56.4 -79.65 L-44.85 -85.6 -28.5 -93.3 -15.15 -99.0 -7.6 -101.95 -5.6 -102.5 23.65 -111.25 36.8 -115.2 Q43.2 -128.4 38.15 -139.8 35.6 -145.35 30.4 -150.65 24.85 -156.1 16.1 -161.2 L11.8 -163.5 9.2 -164.85 Q3.75 -167.55 -2.95 -170.25 L12.2 -170.55 13.8 -170.5 23.4 -170.25 33.65 -169.4 49.1 -167.35 68.55 -163.1 83.15 -158.55 Q109.7 -149.1 133.7 -132.4 L130.6 -144.7 Q160.25 -125.55 165.8 -65.4 166.85 -57.45 166.65 -49.85 166.0 -33.1 158.4 -17.6 152.5 -5.35 142.2 6.05 145.0 -5.35 145.5 -15.3 146.2 -27.65 143.4 -37.5 133.9 -70.95 84.05 -74.65 L74.9 -75.55 45.1 -76.5 Q30.65 -76.1 17.2 -74.2 -0.1 -71.65 -15.75 -66.35 -34.05 -60.05 -50.6 -50.3 -55.75 -47.3 -60.75 -43.9 L-63.85 -41.7 Q-118.45 -6.9 -132.25 35.6 -136.75 49.5 -137.0 64.1 -137.3 85.4 -131.15 108.85 L-130.5 111.4 -128.95 116.7 Q-117.1 151.2 -90.5 140.35 -85.45 137.3 -80.85 133.75 -72.0 126.7 -65.35 117.9 -60.0 110.8 -56.15 102.6 -26.0 96.4 -25.05 134.65" fill="#72567e" fill-opacity="0.99607843" fill-rule="evenodd" stroke="none"/>
    <path d="M-25.05 134.65 Q-50.6 156.85 -78.05 166.95 L-84.7 169.15 Q-91.35 171.25 -98.3 172.6 -128.5 173.95 -148.35 143.25 -152.6 136.6 -156.45 128.35 L-157.1 126.4 Q-167.0 98.65 -163.2 65.0 -161.85 53.3 -158.95 40.9 -154.95 23.75 -147.8 5.3 L-146.9 2.9 Q-117.4 -46.2 -56.4 -79.65 L-44.85 -85.6 -28.5 -93.3 -15.15 -99.0 -7.6 -101.95 -5.6 -102.5 23.65 -111.25 36.8 -115.2 Q43.2 -128.4 38.15 -139.8 35.6 -145.35 30.4 -150.65 24.85 -156.1 16.1 -161.2 L11.8 -163.5 9.2 -164.85 Q3.75 -167.55 -2.95 -170.25 L12.2 -170.55 13.8 -170.5 23.4 -170.25 33.65 -169.4 49.1 -167.35 68.55 -163.1 83.15 -158.55 Q109.7 -149.1 133.7 -132.4 L130.6 -144.7 Q160.25 -125.55 165.8 -65.4 166.85 -57.45 166.65 -49.85 166.0 -33.1 158.4 -17.6 152.5 -5.35 142.2 6.05 145.0 -5.35 145.5 -15.3 146.2 -27.65 143.4 -37.5 133.9 -70.95 84.05 -74.65 L74.9 -75.55 45.1 -76.5 Q30.65 -76.1 17.2 -74.2 -0.1 -71.65 -15.75 -66.35 -34.05 -60.05 -50.6 -50.3 -55.75 -47.3 -60.75 -43.9 L-63.85 -41.7 Q-118.45 -6.9 -132.25 35.6 -136.75 49.5 -137.0 64.1 -137.3 85.4 -131.15 108.85 L-130.5 111.4 -128.95 116.7 Q-117.1 151.2 -90.5 140.35 -85.45 137.3 -80.85 133.75 -72.0 126.7 -65.35 117.9 -60.0 110.8 -56.15 102.6 -26.0 96.4 -25.05 134.65 Z" fill="none" stroke="#3f274c" stroke-linecap="round" stroke-linejoin="round" stroke-width="1.0"/>
  </g>
</svg>
