<?xml version="1.0" encoding="UTF-8" standalone="no"?>
<svg xmlns:xlink="http://www.w3.org/1999/xlink" height="98.65px" width="95.7px" xmlns="http://www.w3.org/2000/svg">
  <g transform="matrix(1.0, 0.0, 0.0, 1.0, 47.85, 49.3)">
    <path d="M-31.2 -7.95 L-34.6 -8.8 Q-34.9 -7.35 -35.75 -6.7 -36.3 -6.3 -36.8 -6.3 L-38.0 -6.35 -38.1 -8.55 Q-38.1 -14.0 -34.75 -17.85 -32.3 -20.75 -26.35 -24.2 -27.65 -26.35 -27.65 -27.6 -27.65 -29.35 -26.8 -30.3 -26.15 -31.0 -25.5 -31.0 L-18.35 -29.25 Q-10.9 -27.4 -7.35 -26.9 L0.65 -25.8 Q3.1 -25.0 3.75 -22.55 2.9 -22.55 4.1 -21.8 4.85 -21.3 7.15 -19.95 10.95 -17.55 13.35 -14.9 14.95 -13.15 16.7 -12.75 17.4 -12.6 18.9 -12.75 L19.9 -12.6 18.5 -9.95 Q28.0 -2.65 28.95 -1.1 29.15 -0.7 28.95 -0.2 28.75 0.25 29.3 1.0 L29.0 2.55 Q25.15 1.55 17.45 -5.0 12.55 -9.2 9.85 -12.05 L5.4 -16.85 2.55 -18.45 -5.25 -20.0 Q-12.95 -21.4 -14.1 -21.0 L-14.6 -20.9 -15.25 -20.65 -22.5 -18.45 -25.6 -18.4 Q-24.4 -16.85 -24.5 -15.2 -24.5 -13.8 -25.55 -13.4 L-26.75 -13.25 Q-28.75 -13.25 -29.55 -16.95 L-31.7 -13.9 Q-26.6 -11.8 -22.75 -11.25 L-10.2 -9.15 Q-9.55 -9.0 -8.25 -7.75 L-6.75 -5.9 -11.6 -5.25 -16.8 -5.1 -22.95 -6.5 Q-27.8 -7.55 -29.2 -10.75 L-30.55 -9.5 -31.2 -7.95 M-16.7 -4.95 Q-8.0 -1.7 -6.7 -0.6 -6.05 -0.1 -5.9 0.7 L-5.5 2.7 -4.15 2.45 Q-1.75 2.45 -0.5 3.65 0.15 4.25 0.3 4.9 -1.35 6.65 -2.9 6.65 -5.3 6.65 -6.0 5.25 -6.35 4.4 -6.1 3.15 -12.55 3.1 -21.95 -2.05 -19.8 -2.05 -18.25 -2.9 -16.7 -3.75 -16.7 -4.95 M-26.65 -3.6 Q-27.65 -3.6 -28.35 -4.05 -29.05 -4.55 -29.05 -5.25 L-26.65 -3.6 M-22.6 -49.3 Q-21.55 -47.8 -21.55 -46.7 -21.55 -44.65 -23.5 -42.75 -25.15 -41.05 -26.15 -41.05 L-27.6 -41.3 -27.75 -42.45 -27.9 -43.75 Q-27.9 -44.9 -26.8 -46.5 -25.3 -48.8 -22.6 -49.3 M-32.95 -32.85 Q-31.2 -31.0 -31.2 -29.4 -31.2 -26.0 -34.55 -25.05 L-35.9 -25.15 Q-36.5 -25.35 -36.5 -26.0 L-35.65 -29.1 -34.55 -31.85 Q-34.05 -32.5 -32.95 -32.85 M-41.75 6.1 Q-43.15 6.85 -43.9 6.85 L-43.65 6.95 -43.95 7.75 Q-43.95 8.6 -44.65 9.05 L-45.85 9.4 Q-46.5 9.4 -46.9 9.0 L-47.85 7.8 Q-47.7 7.25 -44.9 4.25 L-39.55 -1.8 -38.3 -1.1 Q-38.0 -0.8 -38.0 -0.1 -38.0 1.65 -38.6 2.75 L-39.7 4.4 Q-40.55 4.4 -41.15 4.9 -41.75 5.4 -41.75 6.1 M-28.6 11.5 Q-19.15 12.6 -14.65 14.4 -10.9 15.9 -9.9 18.2 L-9.8 19.0 -25.55 16.6 Q-36.95 14.5 -40.1 12.2 -38.75 10.75 -36.2 10.9 L-33.4 11.3 -33.05 11.35 Q-31.2 14.15 -29.1 11.95 L-28.9 11.55 -28.6 11.5 M-2.65 22.35 Q-2.65 23.05 -3.1 23.55 -3.6 24.0 -4.3 24.0 -5.0 24.0 -5.45 23.55 -5.95 23.05 -5.95 22.35 -5.95 21.65 -5.45 21.2 -5.0 20.7 -4.3 20.7 -3.6 20.7 -3.1 21.2 -2.65 21.65 -2.65 22.35 M45.85 12.8 L45.85 12.85 Q47.8 15.7 47.8 17.2 48.0 18.3 47.0 18.3 44.2 18.3 41.95 14.45 40.15 11.45 40.15 9.85 40.15 9.2 40.55 8.9 40.7 8.75 41.35 8.55 42.75 9.25 44.05 10.6 43.8 10.75 43.5 10.95 42.7 11.6 42.9 12.65 43.35 13.8 44.45 13.45 L45.85 12.8 M27.6 7.25 Q27.6 8.25 26.9 8.95 26.2 9.65 25.25 9.65 24.3 9.65 23.6 8.95 22.9 8.25 22.9 7.25 22.9 6.25 23.6 5.55 24.3 4.85 25.25 4.85 26.2 4.85 26.9 5.55 27.6 6.25 27.6 7.25 M5.95 23.85 Q5.95 24.65 4.95 25.3 4.15 25.8 3.75 25.8 2.35 25.8 1.15 24.45 0.15 23.35 0.15 22.55 0.15 21.4 3.05 20.8 5.95 20.15 5.95 23.85 M17.7 37.25 Q19.45 37.25 21.85 39.95 24.25 42.65 24.25 44.65 24.4 45.25 23.4 45.25 L21.1 44.75 Q23.75 43.6 20.65 41.95 20.1 42.0 19.5 42.5 L19.0 43.25 Q18.2 42.45 17.55 41.5 L18.6 41.5 19.0 40.4 Q19.15 39.75 18.45 38.45 L17.7 37.25 M22.75 47.75 L22.3 48.9 Q21.8 49.35 21.1 49.35 20.4 49.35 19.95 48.9 19.45 48.4 19.45 47.75 19.45 47.1 19.95 46.65 20.4 46.15 21.1 46.15 21.8 46.15 22.3 46.65 22.75 47.1 22.75 47.75" fill="#fcffed" fill-opacity="0.6" fill-rule="evenodd" stroke="none"/>
    <path d="M-14.1 -21.0 Q-10.35 -16.4 -4.05 -15.0 L0.1 -14.1 Q1.95 -13.5 2.65 -12.35 -0.4 -11.25 -2.0 -11.25 -5.65 -11.25 -10.25 -13.45 -15.9 -16.1 -15.9 -19.8 L-15.7 -20.45 Q-15.3 -20.6 -15.25 -20.65 L-14.6 -20.9 -14.1 -21.0 M-16.8 -5.1 L-16.7 -4.95 Q-16.7 -3.75 -18.25 -2.9 -19.8 -2.05 -21.95 -2.05 L-24.35 -2.8 -26.65 -3.6 -29.05 -5.25 -31.2 -7.95 -30.55 -9.5 -29.2 -10.75 Q-27.8 -7.55 -22.95 -6.5 L-16.8 -5.1 M-39.7 4.4 Q-35.2 5.4 -32.95 6.25 -28.45 7.9 -27.05 10.3 L-27.3 10.75 -28.6 11.5 -28.9 11.55 Q-28.85 11.2 -28.95 10.9 -29.6 9.05 -31.55 8.55 -32.3 8.6 -32.95 9.3 -33.45 9.9 -33.3 10.65 L-33.1 11.3 -33.05 11.35 -33.4 11.3 Q-35.0 10.9 -37.55 9.4 -40.35 7.75 -41.8 6.2 L-41.75 6.1 Q-41.75 5.4 -41.15 4.9 -40.55 4.4 -39.7 4.4 M17.55 41.5 Q16.55 41.25 14.8 39.9 12.8 38.4 12.3 37.25 L12.6 35.8 13.1 35.6 14.05 35.35 15.7 36.15 17.7 37.25 18.45 38.45 Q19.15 39.75 19.0 40.4 L18.6 41.5 17.55 41.5" fill="#fcffed" fill-opacity="0.8" fill-rule="evenodd" stroke="none"/>
    <path d="M-28.9 11.55 L-29.1 11.95 Q-31.2 14.15 -33.05 11.35 L-33.1 11.3 -33.3 10.65 Q-33.45 9.9 -32.95 9.3 -32.3 8.6 -31.55 8.55 -29.6 9.05 -28.95 10.9 -28.85 11.2 -28.9 11.55 M44.05 10.6 L44.65 10.45 Q47.2 11.8 45.85 12.8 L44.45 13.45 Q43.35 13.8 42.9 12.65 42.7 11.6 43.5 10.95 43.8 10.75 44.05 10.6 M21.1 44.75 L20.5 44.95 Q19.35 45.35 18.9 44.2 18.8 43.65 19.0 43.25 L19.5 42.5 Q20.1 42.0 20.65 41.95 23.75 43.6 21.1 44.75" fill="#ffffff" fill-rule="evenodd" stroke="none"/>
  </g>
</svg>
