<?xml version="1.0" encoding="UTF-8" standalone="no"?>
<svg xmlns:xlink="http://www.w3.org/1999/xlink" height="196.7px" width="94.8px" xmlns="http://www.w3.org/2000/svg">
  <g transform="matrix(1.0, 0.0, 0.0, 1.0, 47.4, 98.35)">
    <path d="M35.2 -98.35 Q38.65 -98.2 41.8 -96.9 43.35 -96.25 42.95 -94.7 39.4 -93.05 34.25 -94.25 32.95 -94.5 32.5 -95.65 L32.6 -96.75 Q32.85 -97.5 33.65 -97.85 L35.2 -98.35 M26.25 -83.3 Q29.65 -81.5 26.1 -80.3 24.95 -79.95 24.5 -81.1 24.35 -82.15 25.15 -82.8 25.7 -83.25 26.25 -83.3 M-3.45 -52.5 Q-3.6 -59.3 -1.75 -66.75 -0.95 -69.85 1.35 -71.1 2.8 -65.3 1.65 -56.9 L1.05 -54.3 0.4 -55.0 Q-0.55 -54.9 -0.9 -54.0 -1.45 -52.7 -1.45 -51.5 L-2.4 -53.1 Q-3.1 -53.05 -3.45 -52.5 M32.4 -36.3 Q35.7 -35.8 38.85 -36.15 44.3 -36.75 45.45 -32.85 39.05 -29.5 31.8 -34.15 29.65 -35.55 32.4 -36.3 M0.45 -32.65 Q3.35 -34.6 2.75 -37.1 L-1.95 -35.65 Q-8.9 -33.6 -12.3 -28.65 L-15.4 -29.0 Q-16.1 -29.2 -15.95 -30.05 -13.3 -33.4 -8.35 -34.8 -1.4 -36.8 5.6 -38.15 8.55 -38.75 11.25 -37.65 12.5 -37.1 12.5 -35.8 6.6 -34.6 0.45 -32.65 M18.75 -37.2 Q22.15 -35.4 18.55 -34.2 17.45 -33.85 17.0 -35.0 16.85 -36.05 17.6 -36.7 18.2 -37.2 18.75 -37.2 M45.55 -8.4 Q49.5 -4.85 44.95 -7.9 44.35 -8.3 45.55 -8.4 M15.95 46.15 Q19.8 48.2 23.8 49.8 25.55 50.55 26.05 52.15 21.05 52.95 15.8 48.6 13.8 46.95 15.95 46.15 M-0.05 25.45 L10.4 29.75 Q12.2 30.5 12.4 32.5 6.2 31.8 -0.5 26.9 -1.85 25.95 -0.05 25.45 M37.1 57.45 L41.0 60.0 Q41.8 60.55 41.45 61.45 37.3 62.95 36.4 58.3 36.25 57.5 37.1 57.45 M31.45 51.8 Q33.45 55.75 30.9 52.45 30.45 51.85 31.45 51.8 M-17.95 -27.35 Q-16.3 -21.75 -21.15 -14.05 L-22.8 -11.15 Q-20.35 -8.7 -24.55 -6.3 -24.9 -6.1 -25.2 -6.05 L-25.45 -5.95 -25.5 -6.05 Q-25.9 -6.15 -26.3 -6.55 -27.0 -8.0 -26.45 -9.35 -27.65 -16.15 -22.3 -23.45 -20.45 -26.0 -17.95 -27.35 M-23.1 12.3 Q-19.45 13.85 -16.6 16.45 -15.5 17.5 -16.05 18.85 -20.5 18.1 -23.7 13.4 -24.35 12.4 -23.1 12.3 M-41.35 48.95 L-41.2 47.55 -40.55 46.95 -39.55 46.5 Q-34.75 51.75 -27.6 54.75 -25.65 55.6 -25.7 57.1 L-24.2 57.8 Q-21.2 59.15 -18.65 60.6 -29.5 58.65 -42.3 53.6 -48.25 51.25 -46.15 48.0 L-43.6 49.1 Q-43.25 52.45 -40.4 51.1 -40.05 50.5 -40.45 50.0 L-41.35 48.95 M-33.0 67.65 Q-28.85 70.4 -29.45 75.65 -29.6 77.1 -31.1 77.3 -33.7 74.2 -34.35 69.25 -34.55 67.8 -33.0 67.65 M-24.05 86.1 L-27.4 80.3 Q-28.65 77.8 -25.95 77.05 -19.8 82.65 -16.0 90.45 -15.35 91.8 -15.55 93.0 L-19.25 89.2 Q-19.45 88.95 -19.8 88.75 L-21.25 87.55 -21.5 87.7 -24.05 86.1" fill="#fcffed" fill-opacity="0.6" fill-rule="evenodd" stroke="none"/>
    <path d="M1.05 -54.3 Q2.45 -52.45 0.25 -50.2 -0.25 -49.7 -0.9 -49.9 -0.7 -48.85 -0.65 -47.6 -0.6 -46.65 -1.5 -46.15 -4.7 -47.15 -3.65 -51.95 L-3.45 -52.5 Q-3.1 -53.05 -2.4 -53.1 L-1.45 -51.5 Q-1.45 -52.7 -0.9 -54.0 -0.55 -54.9 0.4 -55.0 L1.05 -54.3 M-12.3 -28.65 Q-8.9 -33.6 -1.95 -35.65 L2.75 -37.1 Q3.35 -34.6 0.45 -32.65 -1.45 -31.4 -4.8 -30.35 -4.75 -28.7 -6.55 -26.8 -7.3 -25.95 -8.3 -26.5 -8.8 -27.8 -8.5 -29.1 L-12.05 -27.65 -12.9 -27.8 -12.3 -28.65 M24.0 67.25 L23.8 67.9 19.25 65.05 20.4 64.5 Q20.45 63.9 20.1 63.4 19.2 62.2 17.8 62.15 16.85 62.2 17.1 63.05 L17.3 63.6 13.55 60.55 Q11.2 58.55 13.6 57.45 18.8 60.65 23.1 65.05 L23.9 66.25 24.0 67.25 M-16.55 -7.95 L-11.8 -7.55 Q-10.7 -7.25 -10.65 -6.2 -13.8 -3.55 -17.1 -7.1 -17.75 -7.8 -16.55 -7.95 M-37.2 42.4 Q-34.45 43.3 -32.25 45.95 -31.45 46.9 -32.05 47.9 -35.55 47.5 -37.85 43.5 -38.4 42.5 -37.2 42.4 M-45.85 59.5 Q-45.5 59.05 -44.75 58.85 L-42.1 61.85 -42.35 61.7 Q-44.45 61.15 -45.85 59.5 M-41.75 62.2 L-40.0 64.0 Q-39.0 65.1 -39.45 66.5 -42.7 66.75 -44.75 63.45 -43.5 63.8 -41.7 62.85 -41.65 62.45 -41.75 62.2 M0.4 1.45 Q4.45 4.1 -0.25 1.85 -0.8 1.6 0.4 1.45" fill="#fcffed" fill-opacity="0.8" fill-rule="evenodd" stroke="none"/>
    <path d="M23.9 66.25 L24.2 65.05 Q24.4 64.55 24.85 64.5 27.1 64.95 26.6 67.55 26.45 68.3 25.8 68.6 24.35 68.25 24.0 67.25 L23.9 66.25 M-15.55 93.0 L-13.5 95.55 Q-12.55 96.75 -12.55 98.35 -17.75 97.35 -22.05 90.8 L-22.45 90.05 Q-23.05 88.55 -21.5 87.7 L-21.25 87.55 -19.8 88.75 Q-19.45 88.95 -19.25 89.2 L-15.55 93.0 M-9.45 90.8 Q-7.45 94.05 -10.05 91.3 -10.4 90.9 -9.45 90.8" fill="#ffffff" fill-rule="evenodd" stroke="none"/>
    <path d="M19.25 65.05 Q17.95 65.3 17.3 63.6 L17.1 63.05 Q16.85 62.2 17.8 62.15 19.2 62.2 20.1 63.4 20.45 63.9 20.4 64.5 L19.25 65.05 M-22.15 19.35 Q-20.15 22.55 -22.75 19.8 -23.1 19.4 -22.15 19.35 M-32.5 31.55 Q-28.0 38.25 -19.7 39.95 -17.25 40.45 -16.3 42.25 -26.1 43.4 -32.8 34.55 -34.4 32.4 -32.5 31.55 M-38.65 34.4 Q-36.9 35.25 -35.4 36.45 -34.9 36.85 -35.2 37.45 -38.4 39.1 -39.35 35.35 -39.6 34.45 -38.65 34.4 M-43.6 49.1 L-43.65 48.95 Q-43.7 48.1 -42.85 48.0 L-41.35 48.95 -40.45 50.0 Q-40.05 50.5 -40.4 51.1 -43.25 52.45 -43.6 49.1 M-44.75 63.45 Q-46.7 62.9 -47.4 59.35 -47.55 58.45 -46.65 58.35 L-45.85 59.5 Q-44.45 61.15 -42.35 61.7 L-42.1 61.85 -41.75 62.2 Q-41.65 62.45 -41.7 62.85 -43.5 63.8 -44.75 63.45 M-22.45 90.05 Q-23.7 89.15 -24.65 86.85 -24.9 86.2 -24.05 86.1 L-21.5 87.7 Q-23.05 88.55 -22.45 90.05" fill="#fcffed" fill-rule="evenodd" stroke="none"/>
  </g>
</svg>
