<?xml version="1.0" encoding="UTF-8" standalone="no"?>
<svg xmlns:xlink="http://www.w3.org/1999/xlink" height="76.15px" width="104.05px" xmlns="http://www.w3.org/2000/svg">
  <g transform="matrix(1.0, 0.0, 0.0, 1.0, 33.75, 25.2)">
    <path d="M51.9 15.5 Q48.45 15.3 47.0 14.55 43.5 12.65 41.85 12.05 L43.55 11.8 44.65 10.45 42.55 10.9 41.85 9.8 Q42.5 9.55 54.0 -2.25 L53.7 -0.5 Q54.95 -1.8 55.95 -1.8 L59.15 -1.65 Q59.35 -1.85 59.35 -0.85 59.35 0.0 56.2 2.7 52.4 5.9 51.05 8.0 51.4 8.75 52.05 9.05 53.25 9.65 56.5 10.1 L57.15 11.1 53.9 12.35 53.9 12.3 53.2 12.65 48.95 7.85 48.55 8.3 47.9 9.15 Q48.05 10.2 48.7 11.2 L47.2 10.95 46.4 11.8 47.25 11.75 Q48.25 11.6 49.1 11.75 L51.9 15.5 M55.15 14.75 L56.45 14.85 57.55 14.0 Q58.9 12.95 60.15 12.3 L60.3 14.2 60.2 14.25 60.6 14.3 65.75 13.15 66.25 13.5 67.7 14.85 60.0 15.85 60.3 21.05 60.55 26.2 59.75 31.75 58.95 38.0 59.95 41.95 61.0 46.45 Q59.35 45.95 57.95 43.95 L53.55 50.6 52.75 50.95 55.25 43.85 53.55 47.8 52.75 49.25 53.6 43.05 54.75 30.8 52.4 31.25 Q50.05 31.25 48.25 28.35 46.35 25.35 46.35 21.15 46.35 20.55 46.5 20.05 L46.6 19.7 47.1 19.0 47.85 18.45 Q48.05 22.6 49.3 25.0 50.95 28.1 54.75 29.0 55.05 30.9 55.7 31.9 L56.3 31.2 Q56.9 29.5 56.9 28.55 56.9 27.1 56.4 25.6 56.7 24.45 56.5 23.75 L55.4 21.7 54.75 22.1 54.5 19.1 56.55 22.1 56.45 20.15 56.8 20.7 57.15 20.45 57.15 19.2 57.05 18.8 59.1 23.1 Q59.25 21.0 58.1 18.85 57.1 16.95 55.85 16.2 L55.15 14.75 M70.3 3.25 L70.3 3.75 70.2 3.8 Q69.95 3.15 70.1 3.0 70.25 2.8 70.3 3.25 M50.5 6.6 L54.0 3.45 56.75 0.55 56.85 0.15 Q54.2 0.85 53.4 2.0 52.3 4.2 50.5 6.6 M57.65 22.6 L56.8 21.25 58.35 28.95 58.05 29.65 Q57.7 30.65 57.7 33.2 L57.55 34.85 59.0 28.2 Q59.55 24.8 57.65 22.6 M51.2 28.55 L50.75 28.6 51.15 29.55 51.25 29.5 51.2 28.55 M47.3 30.8 Q47.4 39.9 46.75 44.4 L46.5 45.2 46.15 45.9 45.45 40.3 45.15 36.0 Q45.15 33.1 45.4 32.35 45.75 31.05 47.3 30.8 M55.15 39.2 L54.65 39.2 55.1 40.2 55.2 40.15 55.15 39.2 M-9.15 2.15 L-11.7 -4.35 Q-12.9 -8.0 -12.85 -11.0 L-12.75 -10.75 -12.4 -10.8 -11.65 -10.5 Q-11.95 -11.95 -13.95 -15.7 -15.9 -19.3 -16.25 -21.4 L-5.75 -8.75 Q-5.0 -9.3 -4.5 -10.2 -2.5 -8.4 0.15 -1.1 0.15 -0.3 3.55 1.0 L8.35 2.95 9.0 3.6 9.65 4.5 2.65 2.9 2.45 2.8 3.05 5.6 0.0 2.05 Q-1.25 -2.15 -1.7 -2.95 L-1.85 -2.7 -1.95 -3.35 -3.2 -2.8 -4.2 -8.95 Q-5.8 -6.9 -5.2 -4.35 L-8.95 -9.05 -9.95 -8.9 Q-9.4 -8.35 -9.4 -8.0 L-10.2 -8.25 -10.35 -8.0 -9.7 -6.35 -8.65 -4.65 -8.05 -2.75 -7.25 -0.95 Q-5.1 7.7 -5.7 9.35 L-6.25 10.2 -9.1 2.35 Q-8.3 2.85 -8.15 3.35 L-7.8 2.85 Q-7.65 2.5 -7.65 1.85 -7.65 0.85 -9.15 2.15 M-2.65 8.45 L-3.7 11.3 Q-4.15 11.6 -4.7 13.8 -5.25 15.85 -5.25 16.85 L-5.0 18.55 -4.35 20.25 -3.95 20.15 Q-3.75 19.8 -3.2 16.25 L-0.5 12.1 Q1.95 8.45 4.75 5.6 2.15 11.7 1.6 13.9 1.25 15.2 1.25 17.45 L1.3 17.9 1.1 18.9 0.05 16.85 -0.2 15.95 Q-0.7 16.95 -2.0 18.0 -3.25 18.95 -3.7 19.95 -4.3 21.35 -5.05 25.9 -5.85 30.75 -5.85 33.75 L-5.25 38.85 -4.65 43.95 Q-4.65 44.6 -4.95 44.95 L-5.35 45.35 -7.05 38.6 -8.25 42.0 Q-9.45 44.8 -10.4 45.35 L-11.35 46.05 Q-10.75 44.75 -8.45 33.85 L-7.75 31.9 Q-7.3 30.15 -7.3 29.05 L-7.1 28.1 -6.75 31.9 Q-5.5 28.5 -5.4 27.4 L-5.4 13.8 -5.35 10.3 -5.15 9.15 Q-3.75 9.15 -2.65 8.45 M-21.65 -1.4 L-24.9 6.6 -24.35 6.7 Q-23.8 6.7 -23.75 11.3 -23.75 17.6 -23.55 19.15 L-23.5 20.55 Q-25.55 18.75 -26.2 14.6 -26.75 11.05 -26.1 8.65 -26.95 10.5 -32.3 16.1 L-33.75 17.1 Q-28.6 6.95 -25.3 -2.1 -22.3 -10.5 -22.3 -13.85 L-24.3 -22.25 -24.2 -24.2 -23.4 -24.8 -22.7 -25.2 Q-23.1 -23.8 -22.3 -20.55 -21.55 -17.35 -21.0 -17.35 L-20.1 -15.9 Q-18.95 -14.1 -17.4 -12.6 L-15.1 -14.7 -14.45 -14.25 Q-14.15 -13.9 -14.15 -13.25 -14.15 -12.75 -14.6 -12.0 L-15.05 -10.8 -14.8 -10.5 Q-14.25 -10.35 -13.35 -9.0 -13.4 -8.8 -14.4 -9.0 L-16.15 -9.25 -17.55 -7.55 -19.45 -4.9 Q-18.9 -9.2 -18.75 -13.45 L-20.4 -11.6 -20.4 -11.55 -22.0 -1.55 -21.65 -1.4 M-6.75 -2.4 Q-6.4 -1.9 -6.0 -1.95 -5.55 -2.0 -5.05 -3.15 L-4.3 1.1 -4.2 3.65 -4.15 5.35 -3.95 4.9 -3.2 6.55 -3.5 7.0 -3.65 6.55 -3.65 6.15 -4.4 6.6 -3.9 7.65 -5.1 9.05 -4.8 -0.45 -5.0 -1.0 -4.85 -0.2 -4.9 0.7 -6.7 -0.75 -6.75 -2.4 M-13.05 28.25 Q-13.05 30.6 -13.65 31.25 L-14.8 32.0 Q-15.65 32.2 -15.65 31.2 L-14.15 29.15 -15.45 26.6 -17.75 22.7 -17.8 22.45 Q-16.0 22.85 -14.6 24.5 -13.05 26.25 -13.05 28.25 M-7.3 44.1 L-6.3 44.95 -6.2 45.05 -7.7 44.2 -7.3 44.1" fill="#ffffff" fill-opacity="0.4" fill-rule="evenodd" stroke="none"/>
    <path d="M53.9 12.35 L55.15 14.75 55.85 16.2 57.05 18.8 57.15 19.2 57.15 20.45 56.8 20.7 56.45 20.15 Q56.2 18.35 54.85 15.45 53.6 12.9 53.2 12.65 L53.9 12.3 53.9 12.35 M55.0 26.2 Q54.4 24.6 54.4 23.55 L54.5 22.65 54.75 22.1 55.4 21.7 56.5 23.75 Q56.7 24.45 56.4 25.6 L56.25 25.2 Q55.7 25.25 55.3 25.65 55.0 26.0 55.0 26.2 M51.2 28.55 L51.25 29.5 51.15 29.55 50.75 28.6 51.2 28.55 M0.0 2.05 L-0.85 5.45 -2.65 8.45 Q-3.75 9.15 -5.15 9.15 L-5.1 9.05 -3.9 7.65 -3.5 8.1 -3.45 8.05 Q-3.3 7.8 -3.5 7.0 L-3.2 6.55 Q-2.5 6.35 -1.9 2.9 -1.35 -0.6 -1.85 -2.7 L-1.7 -2.95 Q-1.25 -2.15 0.0 2.05 M-7.1 28.1 Q-7.35 18.1 -6.25 10.2 L-5.7 9.35 -5.35 10.3 -5.4 13.8 -5.4 27.4 Q-5.5 28.5 -6.75 31.9 L-7.1 28.1 M-9.1 2.35 L-9.15 2.15 Q-7.65 0.85 -7.65 1.85 -7.65 2.5 -7.8 2.85 L-8.15 3.35 Q-8.3 2.85 -9.1 2.35 M-19.45 -4.9 Q-19.45 -3.45 -20.1 -2.4 -20.75 -1.4 -21.65 -1.4 L-22.0 -1.55 -20.4 -11.55 -20.4 -11.6 -18.75 -13.45 Q-18.9 -9.2 -19.45 -4.9" fill="#ffffff" fill-opacity="0.69803923" fill-rule="evenodd" stroke="none"/>
    <path d="M54.75 29.0 L55.0 26.2 Q55.0 26.0 55.3 25.65 55.7 25.25 56.25 25.2 L56.4 25.6 Q56.9 27.1 56.9 28.55 56.9 29.5 56.3 31.2 L55.7 31.9 Q55.05 30.9 54.75 29.0 M54.5 19.1 L51.9 15.5 49.1 11.75 48.7 11.2 Q48.05 10.2 47.9 9.15 L48.55 8.3 48.95 7.85 53.2 12.65 Q53.6 12.9 54.85 15.45 56.2 18.35 56.45 20.15 L56.55 22.1 54.5 19.1 M55.15 39.2 L55.2 40.15 55.1 40.2 54.65 39.2 55.15 39.2 M-3.7 11.3 L-3.1 11.2 -3.05 12.75 Q-3.05 14.65 -3.2 16.25 -3.75 19.8 -3.95 20.15 L-4.35 20.25 -5.0 18.55 -5.25 16.85 Q-5.25 15.85 -4.7 13.8 -4.15 11.6 -3.7 11.3 M-8.45 33.85 L-8.95 34.15 -9.35 31.7 -8.9 28.35 -7.55 28.0 -7.3 29.05 Q-7.3 30.15 -7.75 31.9 L-8.45 33.85 M-8.65 -4.65 L-8.6 -5.35 -8.3 -6.1 Q-8.1 -6.4 -7.85 -6.35 L-7.4 -5.95 -7.2 -5.0 -7.2 -3.9 -6.8 -2.45 -6.75 -2.4 -6.7 -0.75 -7.25 -0.95 -8.05 -2.75 -8.65 -4.65 M-5.05 -3.15 L-5.2 -4.35 Q-5.8 -6.9 -4.2 -8.95 L-3.2 -2.8 -1.95 -3.35 -1.85 -2.7 Q-1.35 -0.6 -1.9 2.9 -2.5 6.35 -3.2 6.55 L-3.95 4.9 -4.2 3.65 -4.3 1.1 -5.05 -3.15 M-3.9 7.65 L-4.4 6.6 -3.65 6.15 -3.65 6.55 -3.5 7.0 Q-3.3 7.8 -3.45 8.05 L-3.5 8.1 -3.9 7.65" fill="#ffffff" fill-rule="evenodd" stroke="none"/>
  </g>
</svg>
