<?xml version="1.0" encoding="UTF-8" standalone="no"?>
<svg xmlns:xlink="http://www.w3.org/1999/xlink" height="65.25px" width="38.9px" xmlns="http://www.w3.org/2000/svg">
  <g transform="matrix(1.0, 0.0, 0.0, 1.0, 19.45, 32.6)">
    <path d="M10.85 -23.0 L9.85 -26.9 Q9.6 -28.15 10.75 -28.35 L10.9 -28.4 Q13.55 -25.4 13.55 -22.45 13.55 -20.5 12.4 -18.6 L12.25 -18.4 12.15 -18.25 Q11.9 -18.1 11.45 -18.5 10.2 -19.65 10.85 -20.8 L11.0 -21.0 11.35 -21.45 10.85 -23.0 M-2.05 15.25 L-1.55 17.95 -0.75 23.65 Q-0.45 26.65 -3.05 26.4 L-3.0 24.85 Q-3.05 18.1 -5.55 11.0 -6.5 8.2 -4.25 7.1 -2.95 11.0 -2.05 15.25 M7.25 6.0 L7.75 5.6 Q9.35 6.0 8.9 7.45 L8.55 8.15 Q9.15 12.6 5.5 11.55 L4.55 11.2 Q4.0 10.95 4.3 10.1 L4.75 9.15 4.95 8.75 Q5.85 7.1 7.25 6.0" fill="#fcffed" fill-rule="evenodd" stroke="none"/>
    <path d="M10.75 -28.35 Q9.6 -28.15 9.85 -26.9 L10.85 -23.0 Q10.7 -22.05 11.0 -21.0 L10.85 -20.8 9.95 -22.55 Q9.7 -23.0 9.85 -23.25 8.8 -24.9 9.3 -27.8 9.45 -28.8 10.4 -28.9 L10.75 -28.35 M9.4 -32.6 Q12.65 -29.45 8.8 -30.1 8.05 -30.2 8.15 -31.25 8.2 -32.5 9.4 -32.6 M14.55 -18.55 L15.9 -16.55 17.35 -14.45 Q21.65 -13.45 17.15 -10.05 16.0 -9.2 15.35 -10.85 L12.15 -18.25 12.25 -18.4 12.4 -18.6 13.65 -17.3 14.4 -17.25 14.55 -18.55 M-1.55 17.95 L-0.75 19.45 Q0.9 22.05 0.05 24.95 -0.5 26.75 -2.0 27.55 -4.0 28.6 -5.35 26.7 -7.6 23.6 -5.25 20.65 -4.85 20.2 -5.2 19.4 -7.8 12.95 -7.35 6.5 -8.75 3.1 -5.2 2.95 L-4.8 2.2 Q-4.4 1.9 -4.0 1.9 -2.6 2.4 -1.9 3.1 L1.45 -4.9 Q2.9 -8.2 2.45 -12.0 2.1 -14.85 3.95 -16.0 6.4 -10.8 4.15 -4.35 1.5 3.25 -1.5 10.65 L-2.05 12.5 Q-2.3 6.85 -4.75 2.9 L-5.1 3.15 Q-6.35 4.55 -6.3 6.65 -6.15 14.3 -3.65 21.2 -4.6 21.9 -4.75 23.05 -4.85 24.15 -4.1 24.45 L-3.0 24.85 -3.05 26.4 Q-0.45 26.65 -0.75 23.65 L-1.55 17.95 M4.95 8.75 Q4.95 7.8 5.5 6.85 6.0 5.95 6.95 5.85 L7.25 6.0 Q5.85 7.1 4.95 8.75 M5.5 11.55 Q5.0 12.4 2.65 12.45 1.95 12.45 2.45 11.45 3.2 9.75 4.7 9.1 L4.75 9.15 4.3 10.1 Q4.0 10.95 4.55 11.2 L5.5 11.55 M-16.05 -9.45 Q-15.65 -11.9 -16.0 -14.3 L-15.45 -14.8 -14.9 -15.0 Q-11.9 -11.45 -13.0 -6.25 L-12.95 -5.55 Q-12.95 -5.0 -13.3 -4.65 -13.45 -7.75 -14.9 -10.05 -15.65 -9.9 -16.05 -9.45 M-14.65 0.55 Q-15.1 3.2 -15.15 6.0 -15.2 8.6 -16.35 11.0 -17.15 11.6 -17.95 11.0 -18.05 2.0 -16.5 -6.85 L-15.95 0.35 Q-15.3 0.85 -14.65 0.55 M-16.4 13.8 Q-13.5 18.6 -18.4 19.95 -18.8 20.05 -19.05 19.35 -20.55 14.85 -16.4 13.8 M-9.2 14.55 Q-5.65 18.2 -9.95 17.55 -10.25 17.5 -10.45 16.75 -10.95 14.95 -9.2 14.55 M-2.5 30.2 Q0.4 31.4 -2.6 32.4 -3.25 32.6 -3.55 32.05 L-5.2 32.55 Q-6.2 32.85 -6.75 32.0 -7.2 30.5 -5.7 30.05 L-4.25 29.7 -2.95 30.35 -2.5 30.2" fill="#fcffed" fill-opacity="0.6" fill-rule="evenodd" stroke="none"/>
    <path d="M11.0 -21.0 Q10.7 -22.05 10.85 -23.0 L11.35 -21.45 11.0 -21.0 M13.55 -22.45 Q14.55 -20.6 14.55 -18.55 L14.4 -17.25 13.65 -17.3 12.4 -18.6 Q13.55 -20.5 13.55 -22.45 M-2.05 12.5 L-2.05 14.35 -2.05 15.25 Q-2.95 11.0 -4.25 7.1 -6.5 8.2 -5.55 11.0 -3.05 18.1 -3.0 24.85 L-4.1 24.45 Q-4.85 24.15 -4.75 23.05 -4.6 21.9 -3.65 21.2 -6.15 14.3 -6.3 6.65 -6.35 4.55 -5.1 3.15 L-4.75 2.9 Q-2.3 6.85 -2.05 12.5 M-13.3 -4.65 L-13.5 -1.85 Q-13.7 -0.65 -14.35 0.35 L-14.65 0.55 Q-15.3 0.85 -15.95 0.35 L-16.5 -6.85 -16.55 -7.85 Q-16.6 -8.85 -16.05 -9.45 -15.65 -9.9 -14.9 -10.05 -13.45 -7.75 -13.3 -4.65" fill="#fcffed" fill-opacity="0.8" fill-rule="evenodd" stroke="none"/>
  </g>
</svg>
