<?xml version="1.0" encoding="UTF-8" standalone="no"?>
<svg xmlns:xlink="http://www.w3.org/1999/xlink" height="84.85px" width="109.9px" xmlns="http://www.w3.org/2000/svg">
  <g transform="matrix(1.0, 0.0, 0.0, 1.0, 54.95, 42.45)">
    <path d="M26.8 -42.45 Q27.15 -40.2 22.5 -36.25 21.35 -35.3 19.8 -35.8 20.35 -38.95 23.85 -41.15 25.25 -42.05 26.8 -42.45 M17.3 -32.8 Q17.6 -33.65 17.05 -34.65 16.55 -34.6 16.1 -34.15 L13.3 -31.1 Q13.7 -30.2 14.7 -30.65 L15.15 -30.85 13.75 -30.05 Q12.3 -29.3 11.35 -30.45 13.1 -32.8 15.95 -34.65 L17.4 -35.3 Q18.1 -34.05 17.3 -32.8 M-1.45 -8.35 L-2.6 -7.2 Q-1.8 -13.95 2.65 -19.75 L5.7 -23.25 Q4.6 -18.95 1.8 -13.35 L1.55 -12.85 1.45 -13.2 Q0.55 -12.9 -0.05 -11.9 -1.1 -10.1 -1.45 -8.35 M3.7 1.5 L3.75 1.25 Q4.7 -1.65 7.5 -2.6 L9.05 -3.15 3.7 1.5 M14.2 -6.7 L14.4 -7.05 14.55 -6.95 14.2 -6.7 M16.25 -7.95 L15.8 -8.35 14.15 -8.65 Q13.5 -8.6 13.7 -8.05 L13.8 -7.85 9.05 -5.6 Q15.7 -11.05 24.75 -14.5 30.75 -16.8 36.25 -19.7 36.45 -16.75 32.6 -14.9 34.45 -14.0 31.35 -13.0 30.5 -12.7 30.25 -13.5 L30.35 -14.0 30.25 -14.0 Q22.7 -11.65 16.25 -7.95 M0.75 3.15 L0.35 5.0 -0.5 5.95 Q0.55 7.2 1.2 8.85 1.5 9.5 1.15 10.2 -1.6 10.35 -1.65 6.8 L-1.65 6.7 Q-1.65 5.85 -0.95 5.7 L0.75 3.15 M3.0 3.0 L3.25 2.5 Q4.0 1.3 5.35 0.8 6.4 2.45 4.65 6.25 3.2 9.35 3.3 12.95 3.35 13.85 2.45 14.1 0.6 9.05 2.8 3.4 L3.0 3.0 M45.0 -20.35 Q46.3 -17.1 38.85 -16.75 37.45 -16.7 36.75 -17.75 38.3 -20.05 41.95 -20.05 L45.0 -20.35 M50.85 -19.7 Q52.25 -17.45 50.5 -19.35 50.2 -19.65 50.85 -19.7 M52.5 -18.7 L54.5 -17.85 54.95 -17.2 Q53.05 -15.5 52.05 -18.05 51.8 -18.65 52.5 -18.7 M23.55 4.7 Q25.3 5.9 23.15 6.7 22.6 6.9 22.4 6.3 22.45 5.7 22.9 5.15 23.2 4.75 23.55 4.7 M29.9 19.35 Q32.0 20.75 32.35 24.0 32.45 24.75 32.2 25.35 31.5 22.05 29.9 19.35 M32.5 27.05 Q33.45 28.45 33.65 30.4 33.75 31.15 33.15 31.85 34.05 35.45 34.2 39.7 34.25 41.15 33.3 42.3 31.55 39.45 31.3 35.35 29.75 32.1 28.95 27.7 28.45 25.05 27.45 22.6 L28.05 22.7 Q30.05 29.25 33.0 32.55 L32.65 28.65 32.5 27.05 M24.85 21.3 L20.9 21.7 20.8 21.6 Q22.5 19.6 25.65 18.85 L25.0 17.85 19.5 9.0 19.65 8.9 Q23.75 12.2 26.6 16.3 26.85 18.3 27.55 20.95 L24.85 20.3 Q23.85 20.45 24.55 21.05 L24.85 21.3 M29.4 14.1 Q30.65 14.5 30.6 15.75 L30.3 16.45 Q28.55 16.75 28.9 14.65 29.0 14.15 29.4 14.1 M7.65 15.4 L8.65 15.65 9.0 15.8 Q10.55 18.95 10.95 22.4 11.15 24.1 9.9 24.85 8.85 21.25 6.8 17.65 6.0 16.2 7.65 15.4 M11.2 24.5 Q13.1 26.35 10.15 27.6 9.15 28.0 8.75 27.1 9.5 26.0 10.6 24.85 L11.2 24.5 M-3.4 -35.95 L-2.7 -35.5 -2.45 -35.3 Q-2.7 -31.3 -2.35 -27.05 -2.2 -25.3 -3.4 -24.55 -4.8 -28.6 -4.65 -33.75 -4.6 -35.45 -3.4 -35.95 M-17.85 -6.35 L-17.9 -5.55 Q-21.85 -11.65 -25.1 -19.25 -26.7 -22.95 -30.2 -25.3 -30.45 -25.5 -29.75 -25.55 -18.3 -19.95 -14.05 -6.95 -13.2 -4.3 -13.5 -1.8 L-13.75 -2.85 Q-15.35 -9.85 -20.35 -15.15 L-20.45 -15.1 -20.5 -15.25 -20.5 -15.05 -20.45 -14.3 Q-20.35 -11.45 -18.75 -8.15 L-17.85 -6.35 M-21.45 -17.1 Q-20.25 -14.95 -21.0 -16.75 -21.2 -17.3 -21.45 -17.1 M-17.8 0.05 Q-17.8 -0.95 -17.15 -1.35 -17.0 -2.0 -16.45 -2.45 -14.7 2.5 -14.05 7.9 L-13.05 6.25 -12.2 5.65 -7.95 5.95 Q-7.2 6.15 -7.15 6.9 -7.25 7.35 -7.65 7.35 L-12.3 7.7 -13.1 10.45 -13.45 11.85 -13.2 11.55 Q-12.45 10.8 -11.55 10.55 -10.45 13.95 -15.05 16.45 -16.45 17.2 -17.25 16.05 L-15.9 14.55 Q-16.35 13.6 -15.95 12.25 L-14.85 9.5 Q-15.05 7.85 -15.4 6.1 -17.8 4.35 -17.8 0.05 M-3.4 -2.45 Q-1.45 1.7 -3.9 6.15 -4.55 7.25 -4.65 8.65 -0.7 10.65 0.4 13.85 L-8.45 9.25 Q-4.05 5.85 -4.5 -0.35 -4.6 -1.95 -3.4 -2.45 M-35.0 21.35 L-34.95 21.35 Q-32.45 21.2 -30.4 20.3 L-30.4 21.35 -30.1 21.25 Q-28.4 23.8 -30.5 21.65 -31.45 23.85 -38.15 24.65 -35.65 22.95 -35.0 21.35 M-41.1 24.95 L-48.15 25.15 Q-44.1 22.55 -38.4 21.7 -40.05 23.25 -41.1 24.95 M-22.95 18.35 Q-20.85 19.9 -24.6 21.45 -25.6 21.85 -26.0 20.95 -25.4 19.4 -23.65 18.55 L-22.95 18.35 M-26.2 24.2 L-22.3 24.3 Q-21.5 24.35 -21.45 25.1 -24.3 26.9 -28.25 25.8 L-28.6 25.5 -28.55 25.3 Q-27.9 24.1 -26.2 24.2 M-42.75 6.0 Q-33.95 4.8 -28.7 11.5 -27.3 13.25 -26.45 14.95 -30.35 14.05 -34.3 10.05 -38.05 6.3 -43.55 6.1 L-42.75 6.0 M-51.5 35.95 Q-52.15 38.35 -52.45 40.85 -52.65 42.85 -54.65 42.25 -55.5 38.05 -54.0 33.95 -53.3 31.95 -53.25 29.8 -51.05 29.2 -49.4 27.35 L-48.6 26.8 -48.95 28.3 -49.95 29.1 Q-54.05 32.95 -52.5 36.85 -51.95 36.5 -51.5 35.95" fill="#fcffed" fill-opacity="0.6" fill-rule="evenodd" stroke="none"/>
    <path d="M15.15 -30.85 L14.7 -30.65 Q13.7 -30.2 13.3 -31.1 L16.1 -34.15 Q16.55 -34.6 17.05 -34.65 17.6 -33.65 17.3 -32.8 16.65 -31.85 15.15 -30.85 M1.55 -12.85 Q2.15 -10.4 0.2 -7.2 -0.45 -6.15 -1.65 -6.55 L-1.45 -8.35 Q-1.1 -10.1 -0.05 -11.9 0.55 -12.9 1.45 -13.2 L1.55 -12.85 M9.05 -3.15 L7.5 -2.6 Q4.7 -1.65 3.75 1.25 L3.7 1.5 3.25 2.5 3.0 3.0 Q1.95 4.75 0.3 5.15 L0.35 5.0 0.75 3.15 Q2.25 -1.85 7.4 -4.75 L9.05 -5.6 13.8 -7.85 13.7 -8.05 Q13.5 -8.6 14.15 -8.65 L15.8 -8.35 16.25 -7.95 16.25 -7.75 Q15.25 -6.65 14.55 -6.95 L14.4 -7.05 14.2 -6.7 Q12.85 -4.7 9.05 -3.15 M26.6 16.3 L26.5 15.1 Q28.55 17.0 29.9 19.35 31.5 22.05 32.2 25.35 L32.5 27.05 32.65 28.65 33.0 32.55 Q30.05 29.25 28.05 22.7 L27.45 22.6 Q26.2 22.3 24.85 21.3 L24.55 21.05 Q23.85 20.45 24.85 20.3 L27.55 20.95 Q26.85 18.3 26.6 16.3 M17.4 19.95 Q19.35 22.15 16.95 20.2 16.75 20.0 17.4 19.95 M-13.5 -1.8 L-13.25 0.85 Q-15.65 -2.0 -17.85 -6.35 L-18.75 -8.15 Q-20.35 -11.45 -20.45 -14.3 L-20.5 -15.05 -20.45 -15.1 -20.35 -15.15 Q-15.35 -9.85 -13.75 -2.85 L-13.5 -1.8 M-13.5 1.45 Q-12.35 2.05 -12.65 3.55 -12.75 4.05 -13.2 4.3 -14.95 3.85 -14.0 1.85 -13.8 1.45 -13.5 1.45 M-38.4 21.7 L-36.85 20.4 Q-35.95 19.65 -34.95 19.3 -34.55 20.3 -35.0 21.35 -35.65 22.95 -38.15 24.65 L-38.9 25.1 Q-40.15 25.85 -41.2 25.1 L-41.1 24.95 Q-40.05 23.25 -38.4 21.7 M-29.75 17.7 Q-28.1 19.2 -31.05 20.2 -31.9 20.45 -32.2 19.65 -31.85 18.45 -30.4 17.9 L-29.75 17.7 M-48.95 28.3 Q-48.2 27.75 -47.3 27.45 -47.95 30.55 -50.7 34.9 L-51.5 35.95 Q-51.95 36.5 -52.5 36.85 -54.05 32.95 -49.95 29.1 L-48.95 28.3" fill="#fcffed" fill-rule="evenodd" stroke="none"/>
  </g>
</svg>
