<?xml version="1.0" encoding="UTF-8" standalone="no"?>
<svg xmlns:xlink="http://www.w3.org/1999/xlink" height="338.75px" width="334.75px" xmlns="http://www.w3.org/2000/svg">
  <g transform="matrix(1.0, 0.0, 0.0, 1.0, 163.95, 166.45)">
    <path d="M-25.35 134.75 Q-51.15 156.65 -78.75 166.4 L-85.4 168.55 Q-92.05 170.5 -99.1 171.8 -129.4 172.65 -148.75 141.65 -152.85 134.85 -156.55 126.55 L-157.2 124.6 Q-166.55 96.7 -161.9 63.0 -160.25 51.4 -157.1 39.0 -152.65 22.0 -145.15 3.7 L-144.15 1.3 Q-113.6 -47.15 -50.75 -78.0 L-38.95 -83.4 -22.25 -90.4 -8.55 -95.55 -0.65 -98.1 1.3 -98.5 31.1 -105.4 44.45 -108.5 Q51.65 -121.3 47.35 -133.0 45.2 -138.7 40.35 -144.25 35.1 -150.1 26.75 -155.75 L22.6 -158.3 20.05 -159.8 Q14.75 -162.85 8.25 -165.95 L23.45 -165.3 25.05 -165.15 34.6 -164.3 44.75 -162.8 Q52.5 -161.6 60.05 -159.75 69.75 -157.4 79.15 -154.3 86.45 -151.8 93.5 -148.8 119.4 -137.75 142.25 -119.55 L139.95 -132.0 Q168.3 -111.05 170.05 -50.65 170.65 -42.6 169.9 -35.05 168.2 -18.45 159.65 -3.4 153.0 8.3 142.0 19.15 145.45 7.9 146.6 -1.95 148.1 -14.25 145.95 -24.2 138.55 -58.15 89.05 -65.05 L79.95 -66.5 Q64.75 -68.8 50.3 -69.35 35.85 -69.95 22.3 -68.8 4.9 -67.35 -10.7 -62.95 -29.2 -57.45 -46.15 -48.45 L-56.6 -42.45 -59.8 -40.4 Q-115.75 -7.85 -130.3 34.35 -135.1 48.1 -135.7 62.7 -136.45 84.0 -130.9 107.55 L-130.3 110.1 -128.85 115.4 Q-117.5 150.05 -90.8 139.65 -85.7 136.65 -81.15 133.15 -72.15 126.25 -65.45 117.5 -60.05 110.45 -56.05 102.3 -25.9 96.45 -25.35 134.75" fill="#72567e" fill-opacity="0.99607843" fill-rule="evenodd" stroke="none"/>
    <path d="M-25.35 134.75 Q-51.15 156.65 -78.75 166.4 L-85.4 168.55 Q-92.05 170.5 -99.1 171.8 -129.4 172.65 -148.75 141.65 -152.85 134.85 -156.55 126.55 L-157.2 124.6 Q-166.55 96.7 -161.9 63.0 -160.25 51.4 -157.1 39.0 -152.65 22.0 -145.15 3.7 L-144.15 1.3 Q-113.6 -47.15 -50.75 -78.0 L-38.95 -83.4 -22.25 -90.4 -8.55 -95.55 -0.65 -98.1 1.3 -98.5 31.1 -105.4 44.45 -108.5 Q51.65 -121.3 47.35 -133.0 45.2 -138.7 40.35 -144.25 35.1 -150.1 26.75 -155.75 L22.6 -158.3 20.05 -159.8 Q14.75 -162.85 8.25 -165.95 L23.45 -165.3 25.05 -165.15 34.6 -164.3 44.75 -162.8 Q52.5 -161.6 60.05 -159.75 69.75 -157.4 79.15 -154.3 86.45 -151.8 93.5 -148.8 119.4 -137.75 142.25 -119.55 L139.95 -132.0 Q168.3 -111.05 170.05 -50.65 170.65 -42.6 169.9 -35.05 168.2 -18.45 159.65 -3.4 153.0 8.3 142.0 19.15 145.45 7.9 146.6 -1.95 148.1 -14.25 145.95 -24.2 138.55 -58.15 89.05 -65.05 L79.95 -66.5 Q64.75 -68.8 50.3 -69.35 35.85 -69.95 22.3 -68.8 4.9 -67.35 -10.7 -62.95 -29.2 -57.45 -46.15 -48.45 L-56.6 -42.45 -59.8 -40.4 Q-115.75 -7.85 -130.3 34.35 -135.1 48.1 -135.7 62.7 -136.45 84.0 -130.9 107.55 L-130.3 110.1 -128.85 115.4 Q-117.5 150.05 -90.8 139.65 -85.7 136.65 -81.15 133.15 -72.15 126.25 -65.45 117.5 -60.05 110.45 -56.05 102.3 -25.9 96.45 -25.35 134.75 Z" fill="none" stroke="#3f274c" stroke-linecap="round" stroke-linejoin="round" stroke-width="1.0"/>
  </g>
</svg>
