<?xml version="1.0" encoding="UTF-8" standalone="no"?>
<svg xmlns:xlink="http://www.w3.org/1999/xlink" height="82.35px" width="24.4px" xmlns="http://www.w3.org/2000/svg">
  <g transform="matrix(1.0, 0.0, 0.0, 1.0, -0.15, 1.25)">
    <path d="M23.5 -1.25 Q25.7 1.8 23.2 -0.65 22.7 -1.1 23.5 -1.25 M20.9 11.05 Q23.15 13.5 20.7 16.95 19.9 18.05 18.95 17.25 19.05 14.75 19.8 12.2 20.0 11.3 20.9 11.05 M4.45 26.65 L5.35 24.35 Q5.85 22.95 6.95 22.25 8.6 26.75 5.3 32.5 L4.9 33.15 4.85 33.2 4.4 33.7 Q3.85 34.45 2.9 34.25 L2.85 34.0 2.45 33.95 2.75 32.7 Q2.65 31.0 3.15 29.1 L3.35 28.55 3.45 28.4 3.55 28.1 Q3.75 27.3 4.45 26.65 M12.6 14.5 Q13.4 9.25 13.6 3.85 13.65 0.6 16.0 -1.1 22.4 1.55 18.65 9.9 19.2 12.15 18.25 14.9 17.7 16.4 16.3 15.6 L16.55 14.65 Q15.5 17.55 14.85 20.7 15.35 23.1 14.75 25.5 14.6 26.35 14.0 26.75 13.15 34.15 11.65 40.45 7.9 33.95 10.4 24.85 L10.5 24.5 Q10.55 19.6 12.6 14.5 M17.25 18.85 Q19.2 21.45 18.8 25.65 18.7 26.85 17.8 27.55 19.25 28.55 17.15 29.65 16.5 30.0 16.2 29.35 16.15 28.6 16.55 27.85 16.85 27.3 17.3 27.2 L17.65 27.4 Q15.85 24.65 16.15 20.25 16.2 19.15 17.25 18.85 M9.75 46.1 Q10.5 46.0 11.1 46.45 L11.55 46.95 Q10.95 49.7 9.1 52.25 8.4 64.35 7.1 75.8 7.25 75.65 7.5 75.65 10.05 76.6 8.7 79.65 L8.7 79.7 Q8.75 80.25 7.3 80.95 6.4 81.45 5.9 80.5 5.75 80.05 5.9 79.65 5.0 78.4 6.4 76.4 L6.55 76.25 Q5.75 74.5 5.25 72.55 4.8 73.6 3.8 73.25 L3.5 70.6 3.1 70.8 Q2.5 71.15 2.2 70.55 1.85 69.75 2.35 69.15 L2.2 69.2 Q0.05 68.95 0.15 66.05 L0.25 64.9 1.05 64.0 1.4 63.85 Q2.9 65.2 2.8 68.05 L2.65 68.8 Q2.9 68.5 3.25 68.35 L3.3 68.4 3.25 67.6 Q3.2 66.5 4.05 66.2 3.8 63.75 3.85 61.05 3.9 52.0 5.6 44.0 4.9 39.95 6.95 36.45 L7.5 35.95 8.1 35.6 Q11.65 40.65 9.55 43.6 L9.75 46.1" fill="#faffea" fill-rule="evenodd" stroke="none"/>
  </g>
</svg>
