<?xml version="1.0" encoding="UTF-8" standalone="no"?>
<svg xmlns:xlink="http://www.w3.org/1999/xlink" height="157.9px" width="31.9px" xmlns="http://www.w3.org/2000/svg">
  <g transform="matrix(1.0, 0.0, 0.0, 1.0, -0.15, 76.8)">
    <path d="M18.65 -68.5 L18.5 -68.6 Q18.25 -71.7 20.6 -73.9 21.05 -74.25 21.45 -74.45 L21.4 -74.6 Q21.05 -75.55 22.0 -75.7 L22.5 -75.25 Q24.4 -76.35 26.65 -76.8 L26.95 -76.25 27.45 -76.5 Q29.5 -74.1 27.05 -76.05 L27.0 -76.1 Q27.25 -74.85 25.45 -73.2 L25.6 -73.1 Q26.25 -72.7 26.3 -71.95 25.3 -71.45 24.45 -71.5 24.1 -69.6 22.75 -67.15 21.85 -65.6 20.45 -66.4 21.4 -63.6 18.0 -60.4 L18.05 -59.95 18.3 -60.0 Q20.95 -59.1 17.85 -56.6 L17.65 -56.45 17.5 -55.25 Q19.15 -53.3 18.05 -49.75 L17.1 -48.4 Q14.8 -49.55 15.4 -52.5 L15.0 -52.4 Q13.3 -53.05 14.05 -55.1 14.3 -55.8 14.9 -55.95 L15.25 -55.85 15.35 -56.1 15.0 -57.2 Q13.65 -55.2 13.05 -53.1 13.8 -52.05 13.05 -49.85 L12.6 -49.15 Q12.7 -46.95 13.6 -44.55 14.9 -40.85 16.6 -37.15 18.5 -33.0 16.4 -30.6 L15.9 -29.05 15.6 -29.45 15.45 -29.35 Q12.9 -31.9 12.5 -37.1 L12.4 -37.4 Q10.6 -43.35 11.15 -49.35 10.0 -50.65 10.75 -52.8 11.05 -53.55 11.75 -53.85 L12.7 -57.3 12.95 -58.0 12.3 -58.4 14.9 -62.15 Q16.4 -64.7 18.45 -66.85 L18.7 -66.55 19.95 -67.45 20.45 -66.5 20.8 -68.15 18.55 -68.2 18.65 -68.5 M29.05 -76.75 Q31.0 -76.7 31.85 -74.9 32.2 -74.3 31.9 -73.65 29.75 -73.2 28.55 -75.9 28.25 -76.55 29.05 -76.75 M13.5 -70.5 Q14.8 -67.6 9.95 -64.3 L7.55 -64.2 Q8.1 -67.25 11.15 -69.25 12.35 -70.05 13.5 -70.5 M5.0 -45.85 Q5.15 -47.0 5.7 -48.25 6.1 -49.3 6.95 -49.6 L7.05 -49.5 7.35 -49.65 Q9.55 -48.1 8.3 -45.2 8.0 -44.5 7.45 -44.55 L7.15 -43.3 Q7.0 -42.75 6.55 -42.5 L6.55 -41.75 6.7 -39.85 7.65 -38.05 7.85 -38.15 Q9.35 -37.6 9.25 -35.75 L8.7 -34.8 8.4 -34.85 Q8.8 -31.95 6.8 -28.45 6.15 -27.35 5.1 -26.6 4.0 -28.8 4.6 -31.8 L3.9 -33.6 3.7 -33.55 Q1.95 -36.35 3.4 -39.9 3.6 -42.0 4.3 -44.15 L5.0 -45.85 M15.35 -25.3 Q14.85 -26.4 15.2 -28.1 15.35 -28.8 15.95 -28.95 17.6 -27.9 17.4 -25.95 18.65 -23.25 18.7 -20.0 19.5 -17.35 18.8 -14.35 L18.5 -13.45 18.0 -10.15 17.9 -9.9 Q18.05 -8.3 17.65 -6.4 17.45 -5.3 16.75 -4.4 14.4 -6.4 14.95 -10.4 14.0 -13.85 14.9 -18.2 14.35 -20.65 14.85 -23.85 14.9 -24.7 15.35 -25.3 M5.9 -21.15 Q8.2 -17.8 6.1 -13.15 5.45 -11.7 4.25 -12.6 L4.6 -19.35 Q4.75 -20.65 5.9 -21.15 M23.5 -1.25 Q25.7 1.8 23.2 -0.65 22.7 -1.1 23.5 -1.25 M20.9 11.05 Q23.15 13.5 20.7 16.95 19.9 18.05 18.95 17.25 19.05 14.75 19.8 12.2 20.0 11.3 20.9 11.05 M4.45 26.65 L5.35 24.35 Q5.85 22.95 6.95 22.25 8.6 26.75 5.3 32.5 L4.9 33.15 4.85 33.2 4.4 33.7 Q3.85 34.45 2.9 34.25 L2.85 34.0 2.45 33.95 2.75 32.7 Q2.65 31.0 3.15 29.1 L3.35 28.55 3.45 28.4 3.55 28.1 Q3.75 27.3 4.45 26.65 M12.6 14.5 Q13.4 9.25 13.6 3.85 13.65 0.6 16.0 -1.1 22.4 1.55 18.65 9.9 19.2 12.15 18.25 14.9 17.7 16.4 16.3 15.6 L16.55 14.65 Q15.5 17.55 14.85 20.7 15.35 23.1 14.75 25.5 14.6 26.35 14.0 26.75 13.15 34.15 11.65 40.45 7.9 33.95 10.4 24.85 L10.5 24.5 Q10.55 19.6 12.6 14.5 M17.25 18.85 Q19.2 21.45 18.8 25.65 18.7 26.85 17.8 27.55 19.25 28.55 17.15 29.65 16.5 30.0 16.2 29.35 16.15 28.6 16.55 27.85 16.85 27.3 17.3 27.2 L17.65 27.4 Q15.85 24.65 16.15 20.25 16.2 19.15 17.25 18.85 M9.75 46.1 Q10.5 46.0 11.1 46.45 L11.55 46.95 Q10.95 49.7 9.1 52.25 8.4 64.35 7.1 75.8 7.25 75.65 7.5 75.65 10.05 76.6 8.7 79.65 L8.7 79.7 Q8.75 80.25 7.3 80.95 6.4 81.45 5.9 80.5 5.75 80.05 5.9 79.65 5.0 78.4 6.4 76.4 L6.55 76.25 Q5.75 74.5 5.25 72.55 4.8 73.6 3.8 73.25 L3.5 70.6 3.1 70.8 Q2.5 71.15 2.2 70.55 1.85 69.75 2.35 69.15 L2.2 69.2 Q0.05 68.95 0.15 66.05 L0.25 64.9 1.05 64.0 1.4 63.85 Q2.9 65.2 2.8 68.05 L2.65 68.8 Q2.9 68.5 3.25 68.35 L3.3 68.4 3.25 67.6 Q3.2 66.5 4.05 66.2 3.8 63.75 3.85 61.05 3.9 52.0 5.6 44.0 4.9 39.95 6.95 36.45 L7.5 35.95 8.1 35.6 Q11.65 40.65 9.55 43.6 L9.75 46.1" fill="#faffea" fill-rule="evenodd" stroke="none"/>
  </g>
</svg>
