<?xml version="1.0" encoding="UTF-8" standalone="no"?>
<svg xmlns:xlink="http://www.w3.org/1999/xlink" height="239.9px" width="91.9px" xmlns="http://www.w3.org/2000/svg">
  <g transform="matrix(1.0, 0.0, 0.0, 1.0, 40.05, 158.8)">
    <path d="M26.1 -96.85 Q26.25 -94.0 24.5 -90.5 23.95 -89.45 22.95 -89.3 L21.8 -87.35 21.0 -93.05 20.6 -92.8 Q19.05 -93.05 19.15 -94.75 L19.1 -95.7 Q19.3 -96.3 19.8 -96.75 L20.35 -97.15 20.75 -96.9 Q20.45 -103.25 21.25 -110.15 21.5 -112.85 22.65 -114.7 21.8 -119.6 23.4 -126.3 L23.9 -129.15 23.25 -129.7 23.3 -128.45 Q23.25 -127.6 22.6 -127.1 20.2 -127.5 20.4 -130.8 L20.3 -132.1 21.15 -132.95 21.65 -133.35 21.85 -133.15 21.75 -134.15 Q19.7 -138.6 18.15 -143.45 L16.0 -149.7 Q12.0 -150.15 11.65 -154.75 11.45 -157.45 13.65 -158.7 L15.0 -158.8 15.5 -158.75 15.85 -158.45 Q16.25 -158.1 16.25 -157.55 L16.25 -157.0 19.35 -156.15 Q20.0 -155.95 20.0 -155.35 19.75 -154.0 18.3 -154.35 L18.1 -154.4 18.6 -153.05 Q19.15 -152.0 19.15 -150.9 L18.0 -150.95 18.3 -149.95 19.6 -147.9 Q19.85 -148.85 20.4 -149.8 20.85 -150.55 21.75 -150.7 24.9 -149.7 24.3 -145.65 L24.05 -144.5 Q28.4 -133.5 25.75 -121.45 L26.1 -120.5 26.45 -121.0 Q27.8 -112.85 29.0 -102.9 29.25 -100.15 28.55 -97.95 27.2 -100.35 26.35 -103.2 26.6 -100.2 26.1 -96.85 M25.95 -151.8 Q29.4 -151.6 28.75 -148.4 28.55 -147.6 27.6 -147.8 L28.5 -146.25 Q28.75 -145.6 28.2 -145.3 24.6 -145.65 24.85 -150.1 24.95 -151.4 25.95 -151.8 M9.75 -140.75 Q11.95 -136.45 6.85 -129.35 5.5 -127.5 3.6 -128.25 4.3 -133.4 7.75 -138.1 L9.75 -140.75 M2.0 -122.25 Q3.8 -118.35 1.3 -113.05 0.55 -111.45 -1.05 -111.6 -1.45 -116.15 0.3 -120.7 0.75 -121.85 2.0 -122.25 M5.6 -108.1 Q6.2 -109.35 7.35 -110.55 L10.25 -113.0 Q12.0 -112.15 11.0 -110.1 10.85 -109.1 10.35 -108.05 10.7 -106.0 8.95 -102.7 L8.95 -102.35 8.75 -102.3 Q8.2 -101.4 7.25 -100.9 L6.8 -101.55 4.85 -100.1 3.2 -99.0 2.3 -99.65 Q1.35 -98.8 -0.2 -98.05 -1.4 -97.4 -2.2 -98.6 -1.15 -100.75 1.0 -102.65 1.05 -103.6 2.05 -103.95 L2.0 -104.0 2.5 -103.8 3.0 -104.05 3.55 -105.25 3.3 -105.55 4.55 -107.0 5.1 -107.5 5.6 -108.1 M37.1 -112.7 L35.7 -111.3 34.3 -111.4 Q35.85 -119.85 39.75 -127.65 L42.7 -133.8 42.0 -134.6 Q41.35 -135.6 41.4 -136.8 43.05 -138.35 45.4 -138.9 L45.75 -139.15 Q44.4 -141.85 46.2 -144.6 47.15 -146.1 48.4 -146.8 54.7 -143.75 49.5 -136.15 48.5 -134.75 47.5 -134.6 47.1 -132.8 46.1 -130.75 L45.35 -129.7 43.3 -126.65 Q44.6 -123.55 40.6 -118.6 L38.7 -115.6 37.95 -113.9 37.35 -112.15 37.1 -112.7 M25.35 -106.85 Q24.45 -111.15 24.55 -116.15 L24.6 -116.7 23.85 -113.15 24.0 -111.85 Q24.85 -110.8 24.25 -109.0 L24.45 -106.05 25.35 -106.85 M34.45 -110.85 Q35.65 -105.85 35.55 -98.95 35.55 -96.75 34.05 -95.65 31.15 -100.8 32.45 -107.8 32.85 -109.85 34.45 -110.85 M48.95 -144.45 Q48.35 -143.4 48.3 -142.25 L48.85 -142.25 Q50.35 -143.4 49.35 -144.5 L48.95 -144.45 M34.55 -95.25 Q36.95 -93.7 34.7 -91.25 34.05 -90.55 33.3 -91.25 32.8 -92.8 33.5 -94.35 33.85 -95.1 34.55 -95.25 M18.65 -68.5 L18.5 -68.6 Q18.25 -71.7 20.6 -73.9 21.05 -74.25 21.45 -74.45 L21.4 -74.6 Q21.05 -75.55 22.0 -75.7 L22.5 -75.25 Q24.4 -76.35 26.65 -76.8 L26.95 -76.25 27.45 -76.5 Q29.5 -74.1 27.05 -76.05 L27.0 -76.1 Q27.25 -74.85 25.45 -73.2 L25.6 -73.1 Q26.25 -72.7 26.3 -71.95 25.3 -71.45 24.45 -71.5 24.1 -69.6 22.75 -67.15 21.85 -65.6 20.45 -66.4 21.4 -63.6 18.0 -60.4 L18.05 -59.95 18.3 -60.0 Q20.95 -59.1 17.85 -56.6 L17.65 -56.45 17.5 -55.25 Q19.15 -53.3 18.05 -49.75 L17.1 -48.4 Q14.8 -49.55 15.4 -52.5 L15.0 -52.4 Q13.3 -53.05 14.05 -55.1 14.3 -55.8 14.9 -55.95 L15.25 -55.85 15.35 -56.1 15.0 -57.2 Q13.65 -55.2 13.05 -53.1 13.8 -52.05 13.05 -49.85 L12.6 -49.15 Q12.7 -46.95 13.6 -44.55 14.9 -40.85 16.6 -37.15 18.5 -33.0 16.4 -30.6 L15.9 -29.05 15.6 -29.45 15.45 -29.35 Q12.9 -31.9 12.5 -37.1 L12.4 -37.4 Q10.6 -43.35 11.15 -49.35 10.0 -50.65 10.75 -52.8 11.05 -53.55 11.75 -53.85 L12.7 -57.3 12.95 -58.0 12.3 -58.4 14.9 -62.15 Q16.4 -64.7 18.45 -66.85 L18.7 -66.55 19.95 -67.45 20.45 -66.5 20.8 -68.15 18.55 -68.2 18.65 -68.5 M29.05 -76.75 Q31.0 -76.7 31.85 -74.9 32.2 -74.3 31.9 -73.65 29.75 -73.2 28.55 -75.9 28.25 -76.55 29.05 -76.75 M20.55 -85.1 L20.05 -84.3 Q19.75 -83.7 18.9 -83.45 16.6 -85.6 17.8 -89.3 18.15 -90.5 19.15 -90.8 L20.1 -88.9 Q21.25 -87.5 20.55 -85.1 M6.3 -92.45 Q8.3 -89.05 5.7 -91.85 5.45 -92.15 6.3 -92.45 M-3.55 -77.0 L-3.55 -77.1 Q-4.05 -78.35 -3.95 -80.3 -3.85 -81.5 -5.3 -81.0 -5.75 -86.5 -2.15 -91.15 L-1.9 -95.25 -1.1 -92.45 Q-0.15 -93.4 0.9 -93.85 4.3 -91.1 1.75 -86.4 L0.85 -85.15 0.5 -84.45 Q1.0 -83.0 0.95 -81.3 L0.9 -79.55 0.6 -78.35 0.2 -77.05 0.15 -76.8 -0.45 -73.0 Q0.0 -71.3 -0.6 -69.15 -0.75 -68.35 -1.4 -68.0 -1.0 -66.95 -2.25 -65.5 L-2.5 -65.2 -3.75 -62.1 Q-3.15 -59.3 -5.4 -55.45 L-5.9 -54.9 Q-6.1 -52.1 -5.3 -49.2 -4.75 -47.0 -5.55 -45.25 -7.25 -48.05 -7.85 -51.3 L-7.9 -51.6 -8.2 -55.25 Q-9.55 -57.6 -7.6 -60.2 L-6.6 -63.95 -5.25 -68.5 -4.9 -69.75 -4.85 -69.9 Q-4.05 -73.4 -3.55 -77.0 M18.75 -81.7 Q20.4 -81.05 20.3 -79.05 20.25 -78.35 19.65 -78.0 17.25 -78.2 18.15 -81.05 18.3 -81.55 18.75 -81.7 M13.5 -70.5 Q14.8 -67.6 9.95 -64.3 L7.55 -64.2 Q8.1 -67.25 11.15 -69.25 12.35 -70.05 13.5 -70.5 M5.0 -45.85 Q5.15 -47.0 5.7 -48.25 6.1 -49.3 6.95 -49.6 L7.05 -49.5 7.35 -49.65 Q9.55 -48.1 8.3 -45.2 8.0 -44.5 7.45 -44.55 L7.15 -43.3 Q7.0 -42.75 6.55 -42.5 L6.55 -41.75 6.7 -39.85 7.65 -38.05 7.85 -38.15 Q9.35 -37.6 9.25 -35.75 L8.7 -34.8 8.4 -34.85 Q8.8 -31.95 6.8 -28.45 6.15 -27.35 5.1 -26.6 4.0 -28.8 4.6 -31.8 L3.9 -33.6 3.7 -33.55 Q1.95 -36.35 3.4 -39.9 3.6 -42.0 4.3 -44.15 L5.0 -45.85 M15.35 -25.3 Q14.85 -26.4 15.2 -28.1 15.35 -28.8 15.95 -28.95 17.6 -27.9 17.4 -25.95 18.65 -23.25 18.7 -20.0 19.5 -17.35 18.8 -14.35 L18.5 -13.45 18.0 -10.15 17.9 -9.9 Q18.05 -8.3 17.65 -6.4 17.45 -5.3 16.75 -4.4 14.4 -6.4 14.95 -10.4 14.0 -13.85 14.9 -18.2 14.35 -20.65 14.85 -23.85 14.9 -24.7 15.35 -25.3 M5.9 -21.15 Q8.2 -17.8 6.1 -13.15 5.45 -11.7 4.25 -12.6 L4.6 -19.35 Q4.75 -20.65 5.9 -21.15 M33.4 -4.25 Q35.9 -3.0 33.15 -1.6 32.55 -1.2 32.2 -1.95 32.15 -2.75 32.55 -3.55 32.85 -4.1 33.4 -4.25 M39.95 -10.0 Q41.5 -9.2 41.2 -8.15 L40.95 -7.6 Q40.4 -6.7 38.65 -5.6 37.7 -5.0 37.0 -5.75 36.8 -7.8 38.65 -9.3 L39.95 -10.0 M23.5 -1.25 Q25.7 1.8 23.2 -0.65 22.7 -1.1 23.5 -1.25 M38.85 24.9 Q32.75 20.45 37.95 10.6 39.0 8.65 40.25 7.3 L40.1 10.0 40.2 9.95 Q41.85 11.0 41.45 13.6 L41.1 14.3 41.7 15.5 Q41.3 13.85 42.5 11.25 43.1 10.2 44.15 9.85 46.6 11.45 44.6 15.85 44.25 16.8 43.5 17.6 42.25 16.95 41.85 15.95 42.4 17.95 41.65 20.65 41.35 21.65 40.25 22.1 L39.75 21.3 39.7 21.85 Q39.65 23.6 39.9 25.55 L38.85 24.9 39.0 26.95 39.2 27.4 Q39.5 27.05 40.1 26.85 42.25 28.85 40.55 32.3 40.25 32.95 39.75 33.05 L39.7 33.25 Q39.5 34.15 38.6 34.55 L37.9 35.95 Q37.3 37.0 36.5 37.5 L35.45 39.5 Q34.25 41.8 32.05 42.15 33.6 35.7 36.45 28.6 L35.95 26.45 Q35.4 24.65 37.0 23.9 L38.25 25.55 38.85 24.9 M30.4 4.95 L30.35 4.85 Q30.55 4.25 31.0 4.05 L31.75 3.0 Q32.65 1.85 33.75 1.35 33.9 5.35 31.25 10.2 L31.15 10.65 30.75 11.85 29.95 13.8 Q30.0 16.55 28.45 20.2 27.65 21.9 26.05 21.8 25.9 21.05 25.9 20.3 L25.75 20.5 25.35 23.5 25.6 23.05 Q26.65 24.8 26.8 26.65 L28.1 25.6 30.55 25.45 Q30.4 24.5 30.95 23.1 31.3 22.25 31.9 22.0 33.65 23.35 33.5 26.05 L33.4 26.65 Q33.7 29.0 32.6 32.15 32.2 33.3 31.1 33.85 28.8 31.1 30.7 27.1 L29.25 27.8 Q30.3 29.7 27.0 32.05 L25.5 32.0 25.4 32.2 24.2 37.6 23.1 41.9 22.6 40.4 22.5 40.55 Q20.3 44.2 17.2 44.7 L15.2 49.15 Q14.2 50.9 12.4 51.15 L12.25 51.25 12.2 51.15 12.05 51.15 12.05 51.0 11.05 48.8 Q10.35 50.5 9.1 52.25 8.4 64.35 7.1 75.8 7.25 75.65 7.5 75.65 10.05 76.6 8.7 79.65 L8.7 79.7 Q8.75 80.25 7.3 80.95 6.4 81.45 5.9 80.5 5.75 80.05 5.9 79.65 5.0 78.4 6.4 76.4 L6.55 76.25 Q5.75 74.5 5.25 72.55 4.8 73.6 3.8 73.25 L3.5 70.6 3.1 70.8 Q2.5 71.15 2.2 70.55 1.85 69.75 2.35 69.15 L2.2 69.2 Q0.05 68.95 0.15 66.05 L0.25 64.9 1.05 64.0 1.4 63.85 Q2.9 65.2 2.8 68.05 L2.65 68.8 Q2.9 68.5 3.25 68.35 L3.3 68.4 3.25 67.6 Q3.2 66.5 4.05 66.2 3.8 63.75 3.85 61.05 3.9 52.0 5.6 44.0 4.9 39.95 6.95 36.45 L7.5 35.95 8.1 35.6 Q11.65 40.65 9.55 43.6 L9.75 46.1 10.5 46.15 Q10.3 43.4 11.55 40.3 7.95 33.85 10.4 24.85 L10.5 24.5 Q10.55 19.6 12.6 14.5 13.4 9.25 13.6 3.85 13.65 0.6 16.0 -1.1 22.4 1.55 18.65 9.9 19.2 12.15 18.25 14.9 17.7 16.4 16.3 15.6 L16.55 14.65 Q15.5 17.55 14.85 20.7 15.35 23.1 14.75 25.5 14.6 26.35 14.0 26.75 13.2 33.55 11.85 39.55 L13.25 36.85 Q14.65 34.4 16.1 32.6 L16.5 34.8 17.85 32.25 Q17.6 31.1 17.65 29.9 L17.45 29.55 17.15 29.65 Q16.5 30.0 16.2 29.35 16.15 28.6 16.55 27.85 L16.65 27.7 Q16.25 26.15 16.45 24.55 16.0 22.7 16.15 20.25 16.2 19.15 17.25 18.85 L18.1 20.25 19.45 18.35 Q20.4 17.2 21.6 16.5 L21.65 16.55 25.45 7.3 25.3 12.8 25.45 12.65 25.6 11.2 27.3 9.85 Q28.7 7.35 30.4 4.95 M39.9 14.5 L39.95 14.45 39.9 14.45 39.9 14.5 M20.9 11.05 Q23.15 13.5 20.7 16.95 19.9 18.05 18.95 17.25 19.05 14.75 19.8 12.2 20.0 11.3 20.9 11.05 M4.45 26.65 L5.35 24.35 Q5.85 22.95 6.95 22.25 8.6 26.75 5.3 32.5 L4.9 33.15 4.85 33.2 4.4 33.7 Q3.85 34.45 2.9 34.25 L2.85 34.0 2.45 33.95 2.75 32.7 Q2.65 31.0 3.15 29.1 L3.35 28.55 3.45 28.4 3.55 28.1 Q3.75 27.3 4.45 26.65 M27.2 49.2 Q28.85 53.35 27.2 60.8 26.9 62.65 25.4 63.8 22.65 59.4 25.5 53.7 26.15 52.15 25.85 50.45 L26.65 49.6 27.2 49.2 M-9.2 -85.45 Q-5.35 -80.1 -7.1 -73.45 -7.7 -71.2 -9.55 -72.05 -7.9 -77.25 -9.95 -83.05 -10.55 -84.8 -9.2 -85.45 M-25.7 -67.45 Q-22.35 -64.05 -26.05 -66.55 -26.9 -67.05 -25.7 -67.45 M-10.6 -70.9 Q-8.5 -69.8 -9.6 -67.1 -9.9 -66.3 -10.75 -66.1 -12.85 -67.35 -11.45 -70.05 L-10.6 -70.9 M-7.8 -42.6 Q-5.55 -40.25 -6.0 -36.15 -6.15 -35.05 -7.0 -34.5 -8.9 -36.8 -8.95 -41.0 -8.95 -42.25 -7.8 -42.6 M-9.85 -29.75 Q-7.65 -28.6 -7.15 -25.35 -7.0 -24.5 -7.45 -23.8 -10.35 -24.4 -10.65 -28.55 -10.7 -29.55 -9.85 -29.75 M-22.0 -40.5 Q-22.2 -38.95 -23.65 -38.2 -25.25 -42.4 -24.7 -48.4 L-24.65 -48.9 -24.65 -49.5 Q-24.75 -51.15 -23.45 -51.7 -20.6 -48.3 -21.75 -43.6 L-22.0 -40.5 M-25.95 -41.8 Q-23.1 -38.3 -26.35 -41.0 -26.95 -41.55 -25.95 -41.8 M-23.95 -30.7 L-23.9 -30.75 Q-22.0 -26.15 -22.45 -19.8 -22.65 -17.85 -24.0 -16.85 L-24.65 -18.1 Q-25.3 -16.25 -26.9 -15.1 L-27.2 -28.75 Q-27.2 -30.55 -26.25 -31.45 -26.7 -32.85 -26.15 -34.7 -25.9 -35.6 -25.05 -35.8 -22.9 -34.05 -23.95 -30.75 L-23.95 -30.7 M-36.95 -7.4 L-37.4 -6.7 Q-37.6 -6.2 -38.15 -6.15 -39.5 -6.4 -39.85 -7.65 L-40.05 -8.65 -38.45 -10.4 Q-38.7 -11.35 -38.55 -12.25 -38.45 -12.85 -37.8 -13.05 L-36.8 -13.05 -37.2 -14.5 -36.2 -13.35 Q-35.45 -14.0 -35.5 -15.7 -35.5 -16.45 -34.85 -16.6 -33.3 -11.4 -30.45 -4.6 L-30.35 -4.25 -30.05 -3.55 -29.9 -3.25 Q-28.6 0.1 -28.05 3.6 -26.25 5.0 -25.65 7.55 -25.4 8.5 -26.25 9.35 L-27.75 8.55 Q-27.75 10.6 -28.05 12.6 -28.5 17.1 -27.75 21.2 L-26.95 20.5 Q-24.9 24.15 -23.5 28.95 -23.1 30.2 -23.7 31.4 L-23.55 31.6 -23.75 31.5 -23.8 31.55 -24.6 31.1 -24.65 31.1 Q-27.65 31.1 -27.85 27.25 -30.75 22.2 -28.85 14.0 -28.15 10.95 -28.35 7.9 -29.45 6.6 -29.85 4.3 -30.0 3.45 -29.3 3.1 L-30.1 1.1 -30.5 1.85 Q-34.15 -1.7 -36.85 -7.35 L-36.95 -7.4 M-20.95 -25.5 Q-18.55 -21.4 -17.7 -15.7 -17.45 -14.15 -18.1 -12.7 -22.0 -15.8 -22.25 -23.25 -22.35 -24.9 -20.95 -25.5 M-6.6 41.45 Q-5.1 42.85 -5.4 45.65 -5.45 46.35 -6.15 46.65 L-6.4 46.5 -6.4 48.45 Q-6.45 49.55 -7.1 50.9 -11.55 48.55 -9.3 42.05 L-8.15 39.95 -8.55 34.1 Q-10.35 27.05 -11.7 19.5 -13.3 10.95 -9.65 4.3 L-5.6 4.05 Q-4.45 4.05 -3.45 4.75 -2.75 5.25 -2.55 6.1 -2.35 7.1 -1.75 8.0 -1.4 8.55 -1.55 9.2 -2.1 10.5 -3.45 10.9 L-5.65 11.35 Q-5.95 12.15 -5.2 12.85 L-5.9 15.15 -6.25 17.4 -6.2 19.85 Q-6.1 21.3 -7.3 21.9 L-7.35 24.3 -7.7 24.15 -7.45 27.4 -7.25 27.25 Q-5.5 27.85 -6.0 29.85 -6.1 30.5 -6.75 30.65 L-7.1 30.45 -6.65 32.9 Q-4.7 34.25 -6.35 36.5 -6.3 39.0 -6.6 41.45 L-6.7 41.05 -6.8 41.3 -6.6 41.45 M-4.9 6.7 L-4.95 6.75 Q-4.6 7.75 -4.85 9.1 -4.3 9.1 -4.45 7.8 -4.55 7.0 -4.9 6.7 M-1.5 12.9 Q0.3 13.95 -0.7 16.25 -1.0 16.95 -1.8 16.9 -4.2 15.75 -2.3 13.45 L-1.5 12.9 M-3.3 18.85 Q-1.15 19.7 -1.75 23.1 -1.95 24.05 -2.85 24.4 -4.95 23.1 -4.4 20.2 -4.15 19.15 -3.3 18.85 M-20.75 35.65 Q-18.85 36.5 -18.05 38.5 -17.8 39.15 -18.15 39.75 -20.75 40.0 -21.45 36.75 -21.65 35.9 -20.75 35.65 M-22.75 37.25 Q-20.6 39.7 -20.45 43.75 -20.4 44.85 -21.55 45.35 -23.75 43.1 -23.85 38.95 -23.95 37.65 -22.75 37.25 M-19.9 29.9 Q-17.1 32.2 -16.05 36.05 -15.75 37.25 -16.3 38.35 -19.7 37.0 -20.9 31.85 -21.25 30.35 -19.9 29.9 M-13.25 45.9 Q-11.1 47.3 -9.6 49.35 -8.95 50.2 -9.55 51.15 -13.15 51.1 -13.95 46.95 -14.1 46.15 -13.25 45.9 M-2.25 37.8 Q0.0 40.45 -2.65 38.3 -3.05 38.0 -2.25 37.8 M-1.7 44.7 Q0.4 45.8 -0.15 48.35 -0.3 49.2 -1.0 49.7 -3.65 49.05 -2.6 45.6 -2.35 44.85 -1.7 44.7 M-6.85 51.1 Q-5.2 51.7 -5.3 53.7 -5.35 54.35 -5.85 54.75 -8.3 54.55 -7.45 51.7 -7.3 51.15 -6.85 51.1 M-8.45 54.75 Q-6.55 56.25 -6.9 59.3 -7.0 60.05 -7.65 60.3 -9.65 58.9 -9.35 55.8 -9.25 54.95 -8.45 54.75 M-5.0 60.8 Q-3.6 61.4 -3.3 63.05 -3.2 63.65 -3.65 63.95 -6.2 64.5 -5.7 61.65 -5.6 61.0 -5.0 60.8 M-1.7 71.6 Q-0.05 72.25 -0.2 74.25 -0.25 74.95 -0.7 75.3 -3.2 75.1 -2.25 72.2 -2.15 71.7 -1.7 71.6 M-22.1 54.15 Q-19.6 55.55 -19.85 58.95 -19.9 59.8 -20.75 60.0 -22.5 58.35 -22.8 55.2 -22.9 54.35 -22.1 54.15 M0.0 11.45 Q2.25 14.05 -0.4 11.95 -0.8 11.65 0.0 11.45" fill="#faffea" fill-rule="evenodd" stroke="none"/>
  </g>
</svg>
