<?xml version="1.0" encoding="UTF-8" standalone="no"?>
<svg xmlns:xlink="http://www.w3.org/1999/xlink" height="249.55px" width="138.1px" xmlns="http://www.w3.org/2000/svg">
  <g transform="matrix(1.0, 0.0, 0.0, 1.0, 68.75, 124.75)">
    <path d="M28.05 -83.6 Q38.9 -72.0 42.95 -64.05 46.0 -56.65 52.8 -49.6 48.55 -50.45 43.1 -56.45 10.95 -98.85 -21.45 -122.25 -8.75 -118.05 6.5 -104.4 19.4 -92.85 28.05 -83.6 M36.1 79.95 Q40.3 96.15 48.2 106.7 56.45 117.7 68.75 122.45 20.05 132.05 -16.85 88.5 -58.9 49.35 -64.4 -6.4 -70.45 -33.05 -68.05 -57.0 -52.2 -48.2 -41.35 -39.45 L-40.45 -38.7 -39.7 -38.1 -38.95 -37.45 Q-23.45 -40.7 -6.05 -9.75 -17.5 3.65 -17.6 29.5 -13.1 51.35 -2.4 63.6 8.3 75.8 14.05 75.0 26.65 75.25 36.1 79.95" fill="#dde2ed" fill-rule="evenodd" stroke="none"/>
    <path d="M43.1 -56.45 Q26.6 20.0 33.25 65.65 34.35 73.3 36.1 79.95 26.65 75.25 14.05 75.0 8.3 75.8 -2.4 63.6 -13.1 51.35 -17.6 29.5 -17.5 3.65 -6.05 -9.75 -23.45 -40.7 -38.95 -37.45 L-39.7 -38.1 -40.45 -38.7 -41.35 -39.45 Q-52.2 -48.2 -68.05 -57.0 -64.5 -92.45 -42.45 -122.05 -33.0 -126.1 -21.45 -122.25 10.95 -98.85 43.1 -56.45" fill="#f6f7f8" fill-rule="evenodd" stroke="none"/>
    <path d="M68.75 122.45 Q20.05 132.05 -16.85 88.5 -58.9 49.35 -64.4 -6.4 M-42.45 -122.05 Q-33.0 -126.1 -21.45 -122.25 -8.75 -118.05 6.5 -104.4 19.4 -92.85 28.05 -83.6" fill="none" stroke="#333333" stroke-linecap="round" stroke-linejoin="round" stroke-width="1.2000000000000002"/>
    <path d="M43.0 -64.05 L42.95 -63.95 Q42.85 -63.85 42.85 -64.0 L40.35 -68.05 39.8 -68.8 39.55 -69.25 34.35 -75.8 27.55 -83.2 Q27.2 -83.65 27.6 -84.05 L28.45 -84.0 35.3 -75.85 35.5 -75.65 35.65 -75.4 39.35 -70.35 42.55 -65.0 43.0 -64.05" fill="#333333" fill-rule="evenodd" stroke="none"/>
  </g>
</svg>
