<?xml version="1.0" encoding="UTF-8" standalone="no"?>
<svg xmlns:xlink="http://www.w3.org/1999/xlink" height="68.5px" width="59.2px" xmlns="http://www.w3.org/2000/svg">
  <g transform="matrix(1.0, 0.0, 0.0, 1.0, 29.6, 34.25)">
    <path d="M19.65 -22.75 Q24.4 -22.05 27.55 -24.9 27.55 -25.6 27.0 -26.0 24.9 -27.55 22.1 -26.7 L20.0 -26.35 17.55 -26.65 Q18.1 -27.5 19.1 -27.55 22.3 -28.6 25.05 -28.0 25.55 -28.8 26.35 -28.85 28.0 -28.15 28.1 -26.75 L28.6 -26.4 Q30.1 -25.3 29.35 -23.8 28.6 -22.7 27.25 -23.05 L26.65 -23.2 Q24.6 -22.1 22.35 -21.25 20.5 -17.5 14.7 -18.85 L12.85 -19.25 9.0 -19.05 Q10.05 -19.65 10.85 -20.9 L10.6 -21.5 Q10.0 -22.45 8.95 -22.45 L9.05 -22.55 8.65 -23.1 Q8.05 -23.8 7.1 -23.7 L7.1 -23.65 3.15 -24.0 5.4 -24.55 Q9.65 -24.4 13.85 -24.5 L13.65 -24.15 Q15.1 -20.95 19.65 -22.75 M3.7 -33.95 Q6.3 -34.75 8.2 -33.3 8.75 -32.85 8.7 -32.15 L8.0 -31.9 9.8 -31.25 Q11.1 -30.65 10.75 -29.35 7.85 -27.45 3.2 -28.8 2.0 -29.15 1.75 -30.15 L-8.95 -28.0 Q-10.75 -27.7 -11.6 -29.35 -8.45 -33.75 -1.55 -33.65 L3.7 -33.95 M7.75 -18.55 Q4.8 -16.95 1.3 -18.8 L0.45 -18.9 3.55 -19.5 3.5 -19.2 Q5.9 -18.15 7.75 -18.55 M-1.4 -18.75 L-3.35 -18.25 -5.75 -17.4 -5.9 -17.55 Q-6.85 -18.45 -8.25 -18.15 L-9.15 -17.85 -9.55 -18.55 -11.45 -18.0 Q-16.65 -16.15 -16.3 -12.05 -15.55 -11.45 -14.7 -11.4 L-14.9 -11.25 Q-17.6 -8.45 -19.4 -4.7 L-19.5 -4.8 Q-20.5 -3.0 -22.7 -3.95 -24.25 -8.5 -20.45 -11.65 L-19.1 -12.65 Q-15.8 -17.4 -10.05 -19.75 L-4.4 -21.8 -6.45 -19.95 Q-6.05 -18.9 -4.85 -18.85 L-1.4 -18.75 M20.55 1.4 Q19.4 3.6 15.3 5.7 11.35 7.75 7.8 7.5 L6.8 8.8 Q6.6 11.2 2.9 13.45 1.45 14.35 -0.05 13.15 0.1 9.45 3.35 6.3 L3.8 5.95 Q4.85 4.4 6.55 2.85 8.2 1.4 10.1 0.65 11.05 0.55 11.65 1.25 L11.95 1.65 12.65 1.2 Q10.75 3.05 9.9 5.6 10.7 6.65 11.75 6.0 L18.0 1.95 18.85 1.85 20.55 1.4 M14.6 -0.4 Q15.4 -1.65 17.45 -2.1 L18.1 -2.25 16.4 -1.45 14.6 -0.4 M-14.7 -30.55 Q-11.6 -28.9 -14.85 -27.8 -15.85 -27.45 -16.3 -28.5 -16.4 -29.45 -15.7 -30.05 -15.2 -30.5 -14.7 -30.55 M-1.45 17.75 Q0.55 20.9 -3.8 25.4 -5.05 26.65 -6.45 25.55 -7.15 22.1 -4.25 19.45 -2.9 18.2 -1.45 17.75 M-26.65 0.65 L-25.5 1.25 -25.3 1.45 Q-25.35 0.55 -24.75 0.0 -24.25 -0.55 -23.65 -0.6 -22.1 -0.35 -22.05 1.2 L-22.25 2.15 -25.1 2.1 -25.15 2.05 Q-24.95 4.25 -27.05 5.75 L-28.7 5.8 Q-30.35 3.85 -28.3 1.6 -27.55 0.75 -26.65 0.65 M-27.95 8.35 Q-24.85 10.0 -28.1 11.1 -29.1 11.45 -29.55 10.4 -29.7 9.45 -28.95 8.85 -28.45 8.4 -27.95 8.35 M-8.7 31.45 Q-5.6 33.1 -8.85 34.2 -9.9 34.5 -10.3 33.5 -10.45 32.5 -9.7 31.9 -9.2 31.5 -8.7 31.45" fill="#fcffed" fill-opacity="0.6" fill-rule="evenodd" stroke="none"/>
    <path d="M19.65 -22.75 Q15.1 -20.95 13.65 -24.15 L13.85 -24.5 Q14.9 -26.65 17.55 -26.65 L20.0 -26.35 Q18.4 -25.9 17.0 -24.9 16.6 -24.65 16.65 -24.15 16.55 -23.5 17.1 -23.35 L19.65 -22.75 M3.15 -24.0 L7.1 -23.65 7.1 -23.7 Q8.05 -23.8 8.65 -23.1 L9.05 -22.55 8.95 -22.45 8.4 -22.4 Q3.85 -22.95 3.55 -19.5 L0.45 -18.9 -1.4 -18.75 -4.85 -18.85 Q-6.05 -18.9 -6.45 -19.95 L-4.4 -21.8 Q-1.4 -24.0 3.15 -24.0 M-10.15 -13.8 Q-11.3 -12.75 -13.35 -11.75 -14.05 -11.4 -14.7 -11.4 -15.55 -11.45 -16.3 -12.05 -16.65 -16.15 -11.45 -18.0 L-9.55 -18.55 -9.15 -17.85 -10.0 -17.75 Q-12.9 -17.35 -13.3 -14.85 -12.85 -13.8 -11.7 -13.75 L-10.15 -13.8 M18.1 -2.25 L19.5 -2.75 19.8 -2.75 17.15 -1.55 Q15.9 -0.9 16.2 0.55 16.85 1.8 18.0 1.95 L11.75 6.0 Q10.7 6.65 9.9 5.6 10.75 3.05 12.65 1.2 13.5 0.35 14.6 -0.4 L16.4 -1.45 18.1 -2.25" fill="#fcffed" fill-opacity="0.8" fill-rule="evenodd" stroke="none"/>
    <path d="M20.0 -26.35 L22.1 -26.7 Q24.9 -27.55 27.0 -26.0 27.55 -25.6 27.55 -24.9 24.4 -22.05 19.65 -22.75 L17.1 -23.35 Q16.55 -23.5 16.65 -24.15 16.6 -24.65 17.0 -24.9 18.4 -25.9 20.0 -26.35 M8.95 -22.45 Q10.0 -22.45 10.6 -21.5 L10.85 -20.9 Q10.05 -19.65 9.0 -19.05 L7.75 -18.55 Q5.9 -18.15 3.5 -19.2 L3.55 -19.5 Q3.85 -22.95 8.4 -22.4 L8.95 -22.45 M-5.75 -17.4 L-5.4 -16.65 Q-7.0 -14.25 -10.15 -13.8 L-11.7 -13.75 Q-12.85 -13.8 -13.3 -14.85 -12.9 -17.35 -10.0 -17.75 L-9.15 -17.85 -8.25 -18.15 Q-6.85 -18.45 -5.9 -17.55 L-5.75 -17.4 M19.8 -2.75 L20.8 -3.2 Q22.9 -3.75 24.45 -2.55 L24.95 -1.7 Q23.4 0.35 20.55 1.4 L18.85 1.85 18.0 1.95 Q16.85 1.8 16.2 0.55 15.9 -0.9 17.15 -1.55 L19.8 -2.75" fill="#fcffed" fill-rule="evenodd" stroke="none"/>
  </g>
</svg>
