<?xml version="1.0" encoding="UTF-8" standalone="no"?>
<svg xmlns:xlink="http://www.w3.org/1999/xlink" height="128.65px" width="91.45px" xmlns="http://www.w3.org/2000/svg">
  <g transform="matrix(1.0, 0.0, 0.0, 1.0, -41.9, 64.3)">
    <path d="M73.55 -46.9 L72.15 -46.55 70.95 -46.15 Q68.95 -46.05 68.05 -44.85 L65.8 -43.45 Q65.0 -42.85 64.65 -42.05 L63.4 -42.3 Q62.45 -42.45 62.5 -43.35 66.55 -47.45 73.55 -46.9 M79.85 -46.9 Q81.15 -48.0 83.3 -48.0 L83.3 -48.05 86.2 -48.4 86.25 -48.55 86.85 -49.1 87.05 -49.2 87.6 -49.25 87.6 -49.35 Q98.05 -50.0 107.65 -46.6 110.2 -45.7 111.7 -43.5 112.0 -43.1 111.75 -42.6 L108.45 -42.3 Q106.9 -42.95 105.15 -42.9 L105.15 -42.85 Q104.55 -42.9 104.15 -42.55 L98.8 -43.55 Q93.8 -44.8 89.6 -46.25 L89.5 -45.6 88.55 -45.15 Q87.8 -46.05 86.3 -46.25 L79.85 -46.9 M72.0 -38.55 Q66.45 -36.8 60.05 -35.85 57.25 -35.45 54.8 -33.3 52.0 -30.85 49.65 -33.2 55.0 -40.65 64.55 -41.9 L64.3 -41.2 63.95 -41.15 Q62.9 -40.85 62.25 -40.25 L61.5 -40.35 Q60.85 -40.3 60.15 -39.8 59.0 -38.9 59.05 -37.45 L59.25 -37.2 Q61.45 -35.55 63.25 -37.2 67.65 -37.3 72.0 -38.55 M50.85 -42.9 Q51.75 -43.0 52.35 -42.3 L52.75 -41.75 Q52.5 -38.9 49.55 -38.65 48.35 -38.55 47.95 -39.6 48.2 -41.35 49.75 -42.5 50.35 -42.9 50.85 -42.9 M43.55 -30.1 Q46.65 -28.45 43.4 -27.35 42.4 -27.0 41.95 -28.05 41.8 -29.0 42.55 -29.6 43.05 -30.05 43.55 -30.1 M54.7 -37.35 Q54.2 -37.3 53.65 -36.9 52.95 -36.3 53.1 -35.35 53.5 -34.3 54.5 -34.65 57.75 -35.7 54.7 -37.35 M85.9 -64.3 Q86.8 -64.4 87.4 -63.7 L87.8 -63.1 Q87.85 -60.5 85.2 -61.1 84.75 -61.2 84.4 -61.5 84.15 -62.5 84.6 -63.35 85.05 -64.2 85.9 -64.3 M100.0 -61.3 Q104.45 -58.95 109.4 -58.6 111.0 -58.5 111.0 -56.9 106.8 -54.2 101.25 -56.75 99.15 -57.7 98.4 -59.6 98.4 -60.1 98.7 -60.5 L99.25 -61.05 99.45 -61.15 100.0 -61.3 M115.4 -39.6 L113.8 -41.2 113.95 -41.8 114.35 -42.45 Q114.75 -42.9 115.4 -42.85 L115.4 -42.9 Q120.1 -41.2 125.0 -40.65 128.05 -40.25 128.55 -37.7 L128.3 -37.55 Q127.9 -38.4 126.95 -39.05 L126.05 -38.65 125.45 -38.1 125.05 -36.6 125.0 -36.45 Q122.05 -36.1 118.55 -37.65 L116.65 -40.35 115.75 -39.95 115.4 -39.6 M120.5 -33.4 L121.1 -34.0 120.65 -31.95 Q119.55 -28.5 119.8 -25.5 L118.3 -25.85 Q118.1 -28.45 119.4 -31.4 L119.75 -31.25 Q121.0 -31.95 120.55 -33.3 L120.5 -33.4 M121.4 -18.85 Q121.0 -14.75 113.65 -13.95 112.05 -13.75 111.75 -15.75 111.6 -17.05 111.6 -18.35 L112.5 -18.45 113.45 -19.25 Q114.05 -20.15 114.0 -20.85 L114.9 -20.7 114.85 -17.35 115.15 -16.1 Q117.6 -16.05 118.4 -19.3 117.65 -21.15 116.0 -21.25 L118.25 -22.4 119.2 -21.65 Q118.1 -20.85 118.6 -19.2 118.95 -18.85 119.4 -18.8 L121.4 -18.85 M111.95 -22.3 L112.5 -24.45 115.3 -24.6 114.8 -24.3 Q113.4 -23.35 113.4 -21.85 113.05 -22.2 112.4 -22.4 L111.95 -22.3 M113.7 -38.2 Q116.85 -36.3 113.8 -33.75 L112.05 -33.85 Q111.2 -35.5 112.3 -37.25 112.85 -38.1 113.7 -38.2 M102.55 -47.2 Q100.2 -47.15 99.05 -45.2 98.7 -44.65 98.95 -44.0 L99.3 -43.8 Q104.1 -42.55 107.9 -44.3 108.2 -45.2 107.4 -45.75 105.2 -47.3 102.55 -47.2 M103.0 -32.65 Q104.4 -32.95 105.35 -32.05 L105.85 -31.15 Q104.5 -28.4 100.85 -28.65 99.65 -28.75 99.25 -29.75 99.15 -31.5 100.95 -32.05 L103.0 -32.65 M88.9 -35.65 Q90.95 -31.0 81.4 -29.2 79.35 -28.85 78.3 -30.65 81.0 -34.35 86.75 -35.15 L88.9 -35.65 M107.7 -22.8 Q111.05 -17.85 100.1 -16.85 99.05 -16.75 97.6 -17.4 L96.8 -17.9 Q96.75 -20.85 99.9 -21.8 103.75 -22.95 107.7 -22.8 M121.35 -14.25 Q123.85 -12.85 122.75 -9.6 122.45 -8.6 121.35 -8.5 119.1 -9.45 119.6 -12.3 L120.0 -13.55 120.65 -13.95 121.35 -14.25 M122.65 -6.15 Q125.75 -4.0 124.9 0.15 124.7 1.25 123.5 1.35 121.35 -0.15 121.05 -3.35 L121.05 -5.0 Q121.25 -5.6 121.9 -5.9 L122.65 -6.15 M128.15 61.75 Q127.6 60.55 127.35 58.8 127.2 57.7 127.55 56.5 L128.05 55.9 Q128.55 55.45 129.05 55.4 131.5 58.0 133.1 61.75 133.65 63.05 132.9 64.3 130.0 64.6 128.55 62.45 L129.4 62.65 Q130.05 63.3 131.55 63.1 L132.15 62.2 Q132.7 59.7 130.35 58.85 L129.65 59.15 Q129.5 59.2 129.35 59.35 L129.05 59.25 Q128.25 59.35 128.15 60.2 128.0 61.15 128.15 61.75" fill="#fcffed" fill-opacity="0.6" fill-rule="evenodd" stroke="none"/>
    <path d="M70.95 -46.15 L72.15 -46.55 73.55 -46.9 74.35 -47.2 79.85 -46.9 86.3 -46.25 Q87.8 -46.05 88.55 -45.15 89.05 -44.55 89.2 -43.65 L82.85 -42.95 79.05 -43.35 78.5 -43.2 Q76.25 -42.6 76.2 -40.45 L76.25 -40.15 76.3 -40.1 75.45 -39.75 74.7 -39.45 72.6 -38.75 72.0 -38.55 Q67.65 -37.3 63.25 -37.2 L63.55 -37.5 Q65.45 -37.8 66.3 -38.35 68.75 -37.1 69.55 -39.7 L69.25 -40.3 Q68.55 -41.45 67.1 -41.2 L67.1 -41.15 66.35 -41.0 65.8 -41.65 64.3 -41.2 64.55 -41.9 64.65 -42.05 Q65.0 -42.85 65.8 -43.45 L68.05 -44.85 Q67.35 -44.0 67.2 -42.6 70.15 -39.9 75.2 -41.8 79.4 -43.35 76.05 -45.5 L75.35 -45.45 70.95 -46.15 M111.6 -18.35 Q110.75 -18.45 110.1 -19.25 L109.95 -19.5 Q109.85 -20.95 111.05 -21.85 L111.95 -22.3 112.4 -22.4 Q113.05 -22.2 113.4 -21.85 113.4 -23.35 114.8 -24.3 L115.3 -24.6 Q116.45 -25.35 117.5 -25.8 L118.3 -25.85 119.8 -25.5 Q119.9 -23.8 120.5 -22.3 L119.95 -22.1 119.2 -21.65 118.25 -22.4 116.0 -21.25 115.3 -20.9 114.9 -20.7 114.0 -20.85 Q114.05 -20.15 113.45 -19.25 L112.5 -18.45 111.6 -18.35 M102.55 -47.2 Q105.2 -47.3 107.4 -45.75 108.2 -45.2 107.9 -44.3 104.1 -42.55 99.3 -43.8 L98.95 -44.0 Q98.7 -44.65 99.05 -45.2 100.2 -47.15 102.55 -47.2 M128.55 62.45 L128.15 61.75 Q128.0 61.15 128.15 60.2 128.25 59.35 129.05 59.25 L129.35 59.35 128.95 59.6 128.75 60.55 Q128.7 61.95 129.4 62.65 L128.55 62.45" fill="#fcffed" fill-opacity="0.8" fill-rule="evenodd" stroke="none"/>
    <path d="M82.85 -42.95 L83.6 -42.85 Q84.35 -42.7 84.5 -41.85 83.2 -38.75 78.75 -38.8 77.35 -38.85 76.3 -40.1 L76.25 -40.15 76.2 -40.45 Q76.25 -42.6 78.5 -43.2 L79.05 -43.35 82.85 -42.95 M66.35 -41.0 L67.1 -41.15 67.1 -41.2 Q68.55 -41.45 69.25 -40.3 L69.55 -39.7 Q68.75 -37.1 66.3 -38.35 67.55 -39.3 66.35 -41.0 M127.35 -54.9 Q128.7 -54.6 129.3 -53.4 129.5 -52.9 129.3 -52.45 127.9 -50.25 125.9 -52.15 L125.75 -52.45 Q125.7 -53.25 126.05 -53.95 126.55 -54.8 127.35 -54.9 M128.3 -37.55 Q129.05 -36.05 128.15 -33.8 127.85 -33.0 127.05 -32.55 125.3 -32.35 124.6 -33.95 L124.45 -34.25 125.0 -36.45 125.05 -36.6 125.45 -38.1 126.05 -38.65 126.95 -39.05 Q127.9 -38.4 128.3 -37.55 M118.55 -37.65 Q119.7 -35.75 120.5 -33.4 L120.55 -33.3 Q121.0 -31.95 119.75 -31.25 L119.4 -31.4 Q115.9 -33.05 115.15 -37.5 115.0 -38.45 115.15 -39.4 L115.4 -39.6 115.75 -39.95 116.65 -40.35 118.55 -37.65 M121.1 -34.0 L121.15 -35.1 121.75 -35.65 122.65 -36.1 Q125.2 -30.7 123.8 -23.2 123.5 -21.75 122.45 -21.0 L122.45 -21.2 122.05 -21.75 120.95 -22.4 120.5 -22.3 Q119.9 -23.8 119.8 -25.5 119.55 -28.5 120.65 -31.95 L121.1 -34.0" fill="#fcffed" fill-rule="evenodd" stroke="none"/>
    <path d="M68.05 -44.85 Q68.95 -46.05 70.95 -46.15 L75.35 -45.45 76.05 -45.5 Q79.4 -43.35 75.2 -41.8 70.15 -39.9 67.2 -42.6 67.35 -44.0 68.05 -44.85 M108.45 -42.3 L109.6 -41.75 Q110.15 -41.4 110.15 -40.65 108.55 -38.1 105.0 -39.4 103.65 -39.9 103.5 -41.2 L103.65 -41.85 103.75 -42.15 104.15 -42.55 Q104.55 -42.9 105.15 -42.85 L105.15 -42.9 Q106.9 -42.95 108.45 -42.3 M66.3 -38.35 Q65.45 -37.8 63.55 -37.5 L63.25 -37.2 Q61.45 -35.55 59.25 -37.2 L59.05 -37.45 Q59.0 -38.9 60.15 -39.8 60.85 -40.3 61.5 -40.35 L62.25 -40.25 Q62.9 -40.85 63.95 -41.15 L64.3 -41.2 65.8 -41.65 66.35 -41.0 Q67.55 -39.3 66.3 -38.35 M54.7 -37.35 Q57.75 -35.7 54.5 -34.65 53.5 -34.3 53.1 -35.35 52.95 -36.3 53.65 -36.9 54.2 -37.3 54.7 -37.35 M122.45 -21.0 Q122.5 -19.3 121.4 -18.85 L119.4 -18.8 Q118.95 -18.85 118.6 -19.2 118.1 -20.85 119.2 -21.65 L119.95 -22.1 120.5 -22.3 120.95 -22.4 122.05 -21.75 122.45 -21.2 122.45 -21.0 M112.8 -41.65 Q115.9 -40.0 112.65 -38.9 111.65 -38.55 111.2 -39.6 111.1 -40.55 111.8 -41.15 112.3 -41.6 112.8 -41.65 M90.6 -5.7 Q93.65 -4.05 90.45 -3.0 89.4 -2.65 89.0 -3.7 88.85 -4.65 89.55 -5.25 90.1 -5.7 90.6 -5.7 M116.25 -1.9 Q118.65 -0.95 117.35 1.45 117.0 2.1 116.25 2.2 114.4 1.85 114.55 0.05 L114.75 -0.9 115.35 -1.45 116.25 -1.9 M111.55 3.25 Q114.6 4.9 111.4 6.0 110.35 6.35 109.95 5.3 109.8 4.3 110.5 3.75 111.05 3.3 111.55 3.25 M98.3 1.55 L102.45 2.0 Q103.05 2.05 103.2 2.7 101.55 7.75 97.45 2.7 96.65 1.75 98.3 1.55 M94.0 4.1 Q97.25 6.0 93.45 7.35 92.65 7.6 92.1 6.9 91.65 5.5 92.85 4.65 93.45 4.2 94.0 4.1 M100.0 29.75 Q101.6 29.75 102.35 31.25 102.6 31.75 102.35 32.2 100.15 34.5 97.1 34.7 L96.7 34.55 Q95.8 32.45 98.0 30.75 99.0 29.95 100.0 29.75 M106.85 25.9 Q107.75 25.8 108.35 26.5 L108.75 27.1 Q108.55 29.4 106.45 30.95 L104.8 31.05 Q102.95 29.0 105.15 26.7 105.95 25.95 106.85 25.9 M129.35 59.35 Q129.5 59.2 129.65 59.15 L130.35 58.85 Q132.7 59.7 132.15 62.2 L131.55 63.1 Q130.05 63.3 129.4 62.65 128.7 61.95 128.75 60.55 L128.95 59.6 129.35 59.35 M76.05 10.95 Q77.0 10.85 77.6 11.55 L78.0 12.1 Q77.7 15.4 74.55 13.85 L74.05 13.4 Q73.9 12.2 74.9 11.45 75.5 11.05 76.05 10.95" fill="#ffffff" fill-rule="evenodd" stroke="none"/>
  </g>
</svg>
