<?xml version="1.0" encoding="UTF-8" standalone="no"?>
<svg xmlns:xlink="http://www.w3.org/1999/xlink" height="206.05px" width="90.65px" xmlns="http://www.w3.org/2000/svg">
  <g transform="matrix(1.0, 0.0, 0.0, 1.0, 45.35, 103.0)">
    <path d="M25.75 -76.05 Q28.55 -74.15 29.35 -70.7 29.65 -69.55 28.75 -68.9 26.4 -70.95 25.0 -74.9 24.65 -75.95 25.75 -76.05 M-3.3 -91.05 Q2.45 -91.8 6.5 -88.05 7.95 -86.7 7.15 -85.25 3.5 -87.9 -1.5 -88.5 -5.9 -89.05 -3.3 -91.05 M15.9 43.65 L17.65 44.05 18.25 44.5 Q16.05 46.8 12.95 48.9 11.6 49.8 10.25 48.65 10.25 45.65 13.3 44.65 L15.9 43.65 M20.6 41.5 Q22.85 43.55 19.25 44.6 18.45 44.85 18.25 44.05 18.0 42.6 19.3 41.95 20.0 41.6 20.6 41.5 M34.3 59.9 Q37.05 61.5 33.1 63.9 32.25 64.45 31.65 63.6 31.3 61.85 32.9 60.55 33.6 60.05 34.3 59.9 M3.1 63.75 Q4.9 67.85 2.55 64.55 2.05 63.85 3.1 63.75 M-9.55 70.3 L-9.75 70.9 Q-11.9 70.7 -13.35 68.6 L-14.25 66.95 Q-14.65 66.0 -13.6 65.85 -11.05 66.7 -9.75 69.2 -9.45 69.75 -9.55 70.3" fill="#fcffed" fill-opacity="0.8" fill-rule="evenodd" stroke="none"/>
    <path d="M0.1 -99.15 Q7.8 -97.0 14.1 -91.9 16.1 -90.25 16.55 -88.05 L13.8 -89.35 Q16.3 -87.0 18.6 -84.25 20.4 -82.15 22.7 -80.55 25.15 -78.8 26.3 -76.4 18.85 -77.85 12.5 -84.85 4.25 -93.9 -6.95 -97.7 -13.2 -99.8 -19.8 -101.3 -22.2 -101.85 -20.0 -103.0 -9.3 -102.65 -0.3 -98.7 L0.1 -99.15 M-1.2 -64.5 L10.1 -60.25 20.2 -60.05 Q21.2 -60.0 21.25 -59.05 21.15 -58.5 20.6 -58.25 18.9 -57.55 17.35 -57.2 28.05 -52.5 38.65 -46.8 44.3 -43.75 45.3 -38.35 32.9 -49.7 16.35 -57.0 10.85 -56.05 6.55 -58.9 6.25 -59.1 6.45 -59.5 6.8 -60.15 7.35 -60.25 L7.7 -60.25 2.45 -60.9 -6.7 -61.05 Q-8.0 -58.8 -11.35 -59.3 -12.45 -59.45 -12.95 -60.65 L-12.8 -61.25 Q-12.4 -61.9 -11.65 -62.15 L-11.0 -62.4 -7.6 -62.15 -7.5 -62.15 -6.85 -62.65 Q-4.0 -63.85 -1.2 -64.5 M42.0 -50.85 Q44.0 -48.45 44.5 -44.9 44.65 -43.85 43.7 -43.25 40.8 -44.75 40.85 -49.45 40.9 -50.7 42.0 -50.85 M36.45 4.75 Q39.7 8.25 39.65 13.6 39.6 14.8 38.85 15.45 41.0 21.1 41.25 28.0 41.35 30.15 40.4 31.9 38.5 31.95 38.05 29.6 L37.95 28.65 Q37.3 29.65 35.95 30.15 L34.75 30.4 Q33.55 29.95 33.2 28.6 L32.8 27.6 Q25.75 30.1 19.55 28.35 27.0 22.65 35.8 21.1 35.4 18.35 37.9 18.75 L37.95 18.2 Q33.9 17.8 27.35 20.75 20.6 23.8 17.0 20.25 28.15 19.7 37.65 14.0 L35.5 6.2 Q35.2 5.0 36.45 4.75 M23.2 4.75 L27.9 4.9 Q28.9 4.95 28.95 5.9 19.7 6.9 10.4 10.35 L3.15 12.8 Q4.0 14.35 2.65 12.95 L1.7 13.2 2.05 12.3 2.15 12.15 Q3.7 8.8 8.2 7.65 15.7 5.75 23.2 4.75 M5.25 29.55 Q6.55 29.15 7.3 30.15 L7.6 30.7 Q3.85 32.75 0.45 35.85 L-1.1 36.8 -1.15 36.85 -2.7 37.0 -2.8 36.8 -3.0 36.7 -2.9 36.45 Q-3.55 34.55 -1.85 32.85 -1.2 32.15 -0.35 32.1 L-0.1 32.4 0.75 31.75 Q2.85 30.35 5.25 29.55 M31.5 24.6 L27.9 25.9 27.45 26.05 Q30.6 25.25 34.6 26.0 35.1 26.1 34.95 26.95 L35.1 27.2 Q35.45 26.7 35.4 25.9 L35.35 25.25 Q35.15 22.9 31.5 24.6 M38.15 53.45 Q40.15 55.75 38.95 59.15 38.65 60.05 37.7 60.3 36.15 58.2 36.9 54.6 37.1 53.55 38.15 53.45 M35.6 51.35 Q35.8 56.55 29.6 61.5 27.8 62.95 26.05 61.9 29.05 57.4 33.35 52.95 L35.6 51.35 M42.4 62.85 Q43.85 65.9 38.1 70.1 L35.05 70.05 Q35.6 66.0 39.7 64.2 L42.4 62.85 M14.65 73.55 Q16.3 74.95 14.7 77.45 14.25 78.15 13.35 78.25 11.05 76.5 13.55 74.15 14.1 73.65 14.65 73.55 M18.5 91.1 Q20.05 91.45 21.1 92.85 21.45 93.35 21.15 93.85 18.55 95.25 17.8 91.95 17.6 91.15 18.5 91.1 M6.1 79.55 Q7.9 83.7 5.55 80.35 5.05 79.65 6.1 79.55 M24.9 97.1 L32.7 101.15 Q33.9 101.8 34.1 103.05 28.9 103.3 24.45 98.25 23.65 97.3 24.9 97.1 M-26.85 -95.3 L-24.7 -95.5 Q-19.6 -96.9 -18.05 -93.7 -22.0 -91.0 -27.1 -94.0 -28.55 -94.85 -26.85 -95.3 M-34.55 -95.3 L-30.25 -95.15 Q-29.25 -95.05 -29.2 -94.15 L-36.5 -91.1 Q-39.65 -89.85 -42.0 -91.45 -41.8 -92.9 -40.1 -93.3 -38.5 -93.65 -37.05 -94.3 L-34.55 -95.3 M-23.85 -59.8 Q-22.75 -58.75 -22.9 -57.9 -21.75 -58.3 -20.85 -58.95 -19.55 -59.3 -18.8 -58.35 L-18.5 -57.8 Q-22.5 -55.75 -26.15 -53.45 -28.2 -52.2 -29.6 -53.85 L-28.3 -55.5 Q-29.35 -55.65 -30.05 -56.85 -28.4 -60.05 -23.85 -59.75 L-23.85 -59.8 M-43.1 -91.05 Q-41.0 -89.4 -44.0 -87.8 -44.75 -87.4 -45.3 -88.15 -45.6 -89.55 -44.25 -90.5 -43.65 -90.95 -43.1 -91.05 M-20.85 53.05 Q-19.35 55.05 -18.9 58.05 -18.75 58.9 -19.55 59.35 -22.7 58.45 -21.95 54.1 -21.75 53.1 -20.85 53.05 M-13.35 68.6 Q-15.3 67.35 -17.25 65.5 -19.25 63.65 -17.0 62.45 L-8.8 68.05 Q-7.25 69.1 -7.5 70.7 L-9.55 70.3 Q-9.45 69.75 -9.75 69.2 -11.05 66.7 -13.6 65.85 -14.65 66.0 -14.25 66.95 L-13.35 68.6 M-5.9 71.85 Q-4.5 72.7 -4.05 74.35 -3.95 74.8 -4.15 75.25 L-5.95 75.35 -6.85 74.75 -6.9 72.85 Q-6.75 71.9 -5.9 71.85" fill="#fcffed" fill-opacity="0.6" fill-rule="evenodd" stroke="none"/>
  </g>
</svg>
