<?xml version="1.0" encoding="UTF-8" standalone="no"?>
<svg xmlns:xlink="http://www.w3.org/1999/xlink" height="155.4px" width="76.85px" xmlns="http://www.w3.org/2000/svg">
  <g transform="matrix(1.0, 0.0, 0.0, 1.0, 38.7, 77.7)">
    <path d="M13.75 -77.1 L38.05 -54.9 38.05 18.15 25.45 27.8 25.45 27.75 25.4 27.8 24.95 27.55 Q24.55 27.45 23.45 28.3 L22.8 28.85 Q22.25 28.8 17.9 31.85 13.5 34.85 8.45 43.35 L8.55 43.5 Q8.1 60.55 -16.35 7.15 -21.15 -9.95 -16.5 -26.1 -9.35 -39.65 -5.15 -52.55 2.0 -70.45 13.75 -77.1" fill="#f6f7f8" fill-rule="evenodd" stroke="none"/>
    <path d="M8.55 43.5 L8.45 43.35 Q13.5 34.85 17.9 31.85 22.25 28.8 22.8 28.85 18.3 31.75 8.6 43.5 L8.55 43.5 M25.4 27.8 L25.45 27.75 25.45 27.8 25.5 27.9 25.4 27.8" fill="#333333" fill-rule="evenodd" stroke="none"/>
    <path d="M13.75 -77.1 Q2.0 -70.45 -5.15 -52.55 -9.35 -39.65 -16.5 -26.1 -20.25 -19.05 -24.8 -11.8 -30.8 -2.4 -38.1 7.3 M7.55 77.1 Q15.6 66.25 21.65 58.9" fill="none" stroke="#333333" stroke-linecap="round" stroke-linejoin="round" stroke-width="1.2000000000000002"/>
    <path d="M22.1 59.25 L22.05 59.3 21.2 59.35 Q20.8 58.95 21.15 58.5 L21.7 57.9 21.7 57.95 27.25 51.8 28.2 50.8 29.15 49.8 32.15 46.9 35.45 44.35 36.65 43.65 38.0 43.3 Q38.1 43.2 38.1 43.35 L38.05 43.45 36.75 43.9 35.6 44.6 32.0 47.75 22.55 58.7 22.55 58.75 22.2 59.1 22.1 59.25" fill="#333333" fill-rule="evenodd" stroke="none"/>
  </g>
</svg>
