<?xml version="1.0" encoding="UTF-8" standalone="no"?>
<svg xmlns:xlink="http://www.w3.org/1999/xlink" height="333.1px" width="337.25px" xmlns="http://www.w3.org/2000/svg">
  <g transform="matrix(1.0, 0.0, 0.0, 1.0, 163.2, 161.65)">
    <path d="M-25.65 134.8 Q-51.75 156.4 -79.4 165.9 L-86.1 167.95 Q-92.85 169.85 -99.9 170.95 -130.2 171.25 -149.15 140.0 -153.1 133.1 -156.65 124.75 L-157.25 122.8 Q-166.1 94.75 -160.55 61.1 -158.65 49.5 -155.2 37.2 -150.4 20.25 -142.45 2.15 L-141.4 -0.15 Q-109.75 -47.9 -45.15 -76.15 L-33.15 -81.1 -16.2 -87.35 -2.1 -91.95 6.0 -94.0 8.05 -94.25 38.2 -99.25 51.75 -101.5 Q59.7 -113.85 56.2 -125.75 54.4 -131.6 49.9 -137.45 45.05 -143.6 37.05 -149.8 L33.05 -152.6 30.65 -154.25 19.2 -161.15 34.35 -159.55 35.95 -159.3 45.4 -157.8 55.45 -155.7 Q63.1 -153.95 70.55 -151.7 80.0 -148.7 89.3 -145.05 96.35 -142.1 103.25 -138.65 128.4 -125.95 150.05 -106.35 L148.5 -118.95 Q175.5 -96.2 173.4 -35.8 173.55 -27.85 172.3 -20.3 169.55 -3.8 160.05 10.6 152.65 21.95 141.0 32.05 145.2 21.05 146.95 11.25 149.2 -0.9 147.7 -10.95 142.45 -45.35 93.5 -55.3 L84.5 -57.35 Q69.5 -60.65 55.1 -62.1 L27.1 -63.3 Q9.65 -63.0 -5.8 -59.4 -24.55 -54.75 -41.85 -46.4 -47.25 -43.85 -52.5 -40.9 L-55.8 -39.0 Q-113.1 -8.85 -128.3 33.15 -133.4 46.8 -134.35 61.4 -135.6 82.65 -130.65 106.25 L-130.05 108.8 -128.75 114.1 Q-118.0 149.0 -91.1 138.95 -85.9 136.05 -81.4 132.6 -72.4 125.8 -65.55 117.1 -60.05 110.15 -56.0 102.0 -25.7 96.55 -25.65 134.8" fill="#72567e" fill-opacity="0.99607843" fill-rule="evenodd" stroke="none"/>
    <path d="M-25.65 134.8 Q-51.75 156.4 -79.4 165.9 L-86.1 167.95 Q-92.85 169.85 -99.9 170.95 -130.2 171.25 -149.15 140.0 -153.1 133.1 -156.65 124.75 L-157.25 122.8 Q-166.1 94.75 -160.55 61.1 -158.65 49.5 -155.2 37.2 -150.4 20.25 -142.45 2.15 L-141.4 -0.15 Q-109.75 -47.9 -45.15 -76.15 L-33.15 -81.1 -16.2 -87.35 -2.1 -91.95 6.0 -94.0 8.05 -94.25 38.2 -99.25 51.75 -101.5 Q59.7 -113.85 56.2 -125.75 54.4 -131.6 49.9 -137.45 45.05 -143.6 37.05 -149.8 L33.05 -152.6 30.65 -154.25 19.2 -161.15 34.35 -159.55 35.95 -159.3 45.4 -157.8 55.45 -155.7 Q63.1 -153.95 70.55 -151.7 80.0 -148.7 89.3 -145.05 96.35 -142.1 103.25 -138.65 128.4 -125.95 150.05 -106.35 L148.5 -118.95 Q175.5 -96.2 173.4 -35.8 173.55 -27.85 172.3 -20.3 169.55 -3.8 160.05 10.6 152.65 21.95 141.0 32.05 145.2 21.05 146.95 11.25 149.2 -0.9 147.7 -10.95 142.45 -45.35 93.5 -55.3 L84.5 -57.35 Q69.5 -60.65 55.1 -62.1 L27.1 -63.3 Q9.65 -63.0 -5.8 -59.4 -24.55 -54.75 -41.85 -46.4 -47.25 -43.85 -52.5 -40.9 L-55.8 -39.0 Q-113.1 -8.85 -128.3 33.15 -133.4 46.8 -134.35 61.4 -135.6 82.65 -130.65 106.25 L-130.05 108.8 -128.75 114.1 Q-118.0 149.0 -91.1 138.95 -85.9 136.05 -81.4 132.6 -72.4 125.8 -65.55 117.1 -60.05 110.15 -56.0 102.0 -25.7 96.55 -25.65 134.8 Z" fill="none" stroke="#3f274c" stroke-linecap="round" stroke-linejoin="round" stroke-width="1.0"/>
  </g>
</svg>
