<?xml version="1.0" encoding="UTF-8" standalone="no"?>
<svg xmlns:xlink="http://www.w3.org/1999/xlink" height="119.8px" width="106.75px" xmlns="http://www.w3.org/2000/svg">
  <g transform="matrix(1.0, 0.0, 0.0, 1.0, 47.65, 57.75)">
    <path d="M-15.5 -35.75 L-14.7 -57.15 Q10.8 -13.4 58.5 -8.05 L49.15 1.5 Q41.7 -5.15 37.0 -3.9 21.55 1.7 -15.5 -35.75 M-35.2 15.4 L-28.55 17.4 -15.05 22.6 -14.35 23.0 -13.95 23.15 -7.25 27.05 -5.6 28.25 -5.35 28.4 -4.6 29.0 -4.3 29.3 -4.15 29.4 -4.0 29.55 -2.85 30.5 Q-9.55 30.7 -21.85 25.3 -32.5 20.35 -35.2 15.4" fill="#dde2ed" fill-rule="evenodd" stroke="none"/>
    <path d="M-2.85 30.5 L-4.0 29.55 -4.15 29.4 -4.3 29.3 -4.6 29.0 -5.35 28.4 -5.6 28.25 -7.25 27.05 -13.95 23.15 -14.35 23.0 -15.05 22.6 -28.55 17.4 -35.2 15.4 -35.25 15.35 -35.3 15.25 Q-35.3 15.1 -35.2 15.2 L-32.4 15.65 -20.85 18.9 -17.65 20.15 -9.0 24.8 -6.8 26.45 -5.4 27.6 -2.65 30.4 -2.65 30.55 -2.8 30.55 -2.85 30.5" fill="#333333" fill-rule="evenodd" stroke="none"/>
    <path d="M-15.5 -35.75 Q21.55 1.7 37.0 -3.9 41.7 -5.15 49.15 1.5 L42.15 13.5 Q32.6 10.4 38.75 19.25 20.9 74.95 -4.7 57.15 -12.5 45.85 -26.35 39.5 -35.55 35.3 -47.4 33.25 L-15.5 -35.75 M-2.85 30.5 L-2.8 30.55 -2.65 30.55 -2.65 30.4 -5.4 27.6 -6.8 26.45 -9.0 24.8 -17.65 20.15 -20.85 18.9 -32.4 15.65 -35.2 15.2 Q-35.3 15.1 -35.3 15.25 L-35.25 15.35 -35.2 15.4 Q-32.5 20.35 -21.85 25.3 -9.55 30.7 -2.85 30.5" fill="#f6f7f8" fill-rule="evenodd" stroke="none"/>
    <path d="M58.5 -8.05 Q10.8 -13.4 -14.7 -57.15 M-26.35 39.5 Q-12.5 45.85 -4.7 57.15 20.9 74.95 38.75 19.25" fill="none" stroke="#333333" stroke-linecap="round" stroke-linejoin="round" stroke-width="1.2000000000000002"/>
    <path d="M-47.45 33.5 Q-47.75 33.5 -47.65 33.2 -47.65 32.85 -47.3 32.95 L-35.55 35.55 -34.55 35.8 -30.05 37.35 -29.65 37.45 -26.1 38.95 -26.05 38.95 Q-25.55 39.1 -25.75 39.75 -26.0 40.25 -26.55 40.05 L-26.55 40.0 -34.85 36.75 -35.3 36.55 -38.75 35.55 -39.0 35.45 -47.45 33.5" fill="#333333" fill-rule="evenodd" stroke="none"/>
  </g>
</svg>
