<?xml version="1.0" encoding="UTF-8" standalone="no"?>
<svg xmlns:xlink="http://www.w3.org/1999/xlink" height="197.5px" width="67.6px" xmlns="http://www.w3.org/2000/svg">
  <g transform="matrix(1.0, 0.0, 0.0, 1.0, 33.8, 98.45)">
    <path d="M-12.75 -90.45 Q4.55 -69.55 11.0 -35.75 16.15 40.75 3.65 67.25 -6.4 63.25 -17.2 69.4 L-23.95 66.7 Q-25.4 60.85 -26.75 52.35 L-16.55 26.4 Q-12.15 7.65 -28.3 -41.3 -26.0 -51.0 -22.65 -61.85 -18.5 -75.25 -12.75 -90.45" fill="#f6f7f8" fill-rule="evenodd" stroke="none"/>
    <path d="M29.5 -71.4 L30.95 -61.85 Q36.55 -19.4 28.35 23.95 19.1 72.15 16.4 74.0 13.7 75.9 9.8 76.6 L-2.1 71.15 Q-9.55 67.8 -16.4 79.65 -20.3 82.05 -23.95 66.7 L-17.2 69.4 Q-6.4 63.25 3.65 67.25 16.15 40.75 11.0 -35.75 4.55 -69.55 -12.75 -90.45 5.7 -113.15 29.5 -71.4 M-28.3 -41.3 Q-12.15 7.65 -16.55 26.4 L-26.75 52.35 Q-30.1 32.1 -33.2 -3.0 -33.55 -19.1 -28.3 -41.3" fill="#dde2ed" fill-rule="evenodd" stroke="none"/>
    <path d="M-16.4 79.65 Q-9.55 67.8 -2.1 71.15 L9.8 76.6 Q0.3 85.7 -1.6 98.45 L-2.3 97.9 Q-5.4 87.95 -3.5 81.6 -1.45 74.95 -16.4 79.65" fill="#4d6084" fill-rule="evenodd" stroke="none"/>
    <path d="M-2.3 97.9 Q-11.95 90.1 -16.4 79.65 -1.45 74.95 -3.5 81.6 -5.4 87.95 -2.3 97.9" fill="#7886ab" fill-rule="evenodd" stroke="none"/>
    <path d="M9.8 76.6 Q13.7 75.9 16.4 74.0 19.1 72.15 28.35 23.95 36.55 -19.4 30.95 -61.85 L29.5 -71.4 M-23.95 66.7 Q-20.3 82.05 -16.4 79.65 -9.55 67.8 -2.1 71.15 L9.8 76.6 Q0.3 85.7 -1.6 98.45 L-2.3 97.9 Q-11.95 90.1 -16.4 79.65 M-12.75 -90.45 Q-18.5 -75.25 -22.65 -61.85 -26.0 -51.0 -28.3 -41.3 -33.55 -19.1 -33.2 -3.0 -30.1 32.1 -26.75 52.35 -25.4 60.85 -23.95 66.7" fill="none" stroke="#333333" stroke-linecap="round" stroke-linejoin="round" stroke-width="1.2000000000000002"/>
  </g>
</svg>
