<?xml version="1.0" encoding="UTF-8" standalone="no"?>
<svg xmlns:xlink="http://www.w3.org/1999/xlink" height="129.85px" width="99.8px" xmlns="http://www.w3.org/2000/svg">
  <g transform="matrix(1.0, 0.0, 0.0, 1.0, 50.15, 64.95)">
    <path d="M9.45 -30.25 L28.8 -15.6 Q42.9 -4.9 49.5 10.15 L48.85 53.15 Q47.5 58.55 41.4 53.15 -7.35 11.3 -18.95 -37.9 L-49.6 -49.75 -49.5 -58.35 Q-50.3 -64.75 -31.1 -64.35 -15.45 -64.6 4.35 -33.7 6.4 -32.05 9.45 -30.25" fill="#f6f7f8" fill-rule="evenodd" stroke="none"/>
    <path d="M9.45 -30.25 Q17.6 -25.3 32.85 -19.25 38.7 -16.4 42.75 -11.15 L43.85 -9.6 Q48.2 -2.65 49.55 4.0 L49.5 10.15 Q42.9 -4.9 28.8 -15.6 L9.45 -30.25 M-49.6 -49.75 L-18.95 -37.9 Q-7.35 11.3 41.4 53.15 47.5 58.55 48.85 53.15 L48.7 63.7 Q43.25 66.1 34.7 59.15 1.8 27.4 -31.1 11.2 -49.55 3.7 -49.6 -49.75" fill="#dde2ed" fill-rule="evenodd" stroke="none"/>
    <path d="M42.75 -11.15 Q38.7 -16.4 32.85 -19.25 17.6 -25.3 9.45 -30.25 6.4 -32.05 4.35 -33.7 -15.45 -64.6 -31.1 -64.35 -50.3 -64.75 -49.5 -58.35 M-31.1 11.2 Q1.8 27.4 34.7 59.15 43.25 66.1 48.7 63.7" fill="none" stroke="#333333" stroke-linecap="round" stroke-linejoin="round" stroke-width="1.2000000000000002"/>
    <path d="M49.6 3.95 L49.55 4.05 Q49.45 4.15 49.45 4.0 L48.35 0.3 46.6 -3.75 45.15 -6.45 44.95 -6.75 44.8 -7.05 44.1 -8.2 43.9 -8.45 43.45 -9.15 43.35 -9.25 43.35 -9.3 43.3 -9.35 42.25 -10.8 42.2 -10.8 Q41.95 -11.35 42.4 -11.65 L42.85 -11.7 43.2 -11.45 44.2 -10.0 44.25 -9.95 44.25 -9.9 44.3 -9.85 44.35 -9.75 46.6 -5.5 48.75 0.15 49.5 3.25 49.6 3.95" fill="#333333" fill-rule="evenodd" stroke="none"/>
  </g>
</svg>
