<?xml version="1.0" encoding="UTF-8" standalone="no"?>
<svg xmlns:xlink="http://www.w3.org/1999/xlink" height="302.7px" width="235.15px" xmlns="http://www.w3.org/2000/svg">
  <g transform="matrix(1.0, 0.0, 0.0, 1.0, 117.6, 151.35)">
    <path d="M13.45 -109.5 L20.9 -105.7 Q21.95 -109.9 25.6 -112.3 28.3 -107.9 26.7 -99.9 31.8 -102.5 34.35 -109.0 38.25 -92.5 35.95 -77.8 72.9 -11.05 89.9 27.35 95.1 39.1 98.5 48.2 112.75 87.0 106.6 77.65 114.4 97.5 116.95 109.05 115.2 114.8 104.65 117.45 99.95 109.4 93.45 106.3 89.05 104.2 83.75 104.4 70.85 107.9 72.05 116.45 72.4 118.95 73.95 121.9 40.2 91.15 28.5 50.3 3.2 -10.1 -3.45 -10.9 -8.3 -12.3 -13.4 -18.2 13.1 -19.55 5.7 -43.3 13.75 -54.15 13.2 -61.2 12.3 -72.9 -12.05 -74.25 11.1 -75.25 9.85 -83.1 L9.35 -84.8 Q7.65 -90.25 5.2 -95.6 -0.95 -107.9 -19.1 -107.45 -22.8 -111.4 -22.8 -116.95 -10.1 -120.9 13.45 -109.5 M-19.7 -67.5 Q-21.8 -79.15 -36.25 -80.1 L-41.6 -80.0 -41.95 -80.0 Q-53.5 -79.45 -59.3 -85.4 -56.2 -99.35 -34.9 -105.4 -37.7 -97.15 -32.75 -90.65 -27.8 -85.3 -22.7 -81.15 L-22.35 -80.9 Q-19.9 -78.95 -12.05 -74.25 -16.95 -72.35 -19.7 -67.5 M-35.15 -54.65 Q-40.3 -48.3 -34.9 -40.05 -35.55 -38.85 -36.55 -38.05 -37.9 -37.0 -39.9 -36.65 -38.65 -41.75 -41.2 -45.95 -46.05 -53.3 -57.55 -52.7 L-59.2 -52.55 Q-68.15 -55.5 -77.45 -52.05 -80.15 -66.0 -62.3 -71.25 L-58.7 -72.2 -58.7 -72.1 Q-57.8 -68.85 -53.95 -66.55 -49.7 -59.15 -35.15 -54.65" fill="#dde2ed" fill-rule="evenodd" stroke="none"/>
    <path d="M-22.8 -116.95 Q-22.8 -111.4 -19.1 -107.45 -33.55 -102.6 -32.75 -90.65 -37.7 -97.15 -34.9 -105.4 -33.4 -108.9 -31.1 -111.5 -27.8 -115.4 -22.8 -116.95 M5.2 -95.6 Q7.65 -90.25 9.35 -84.8 L9.85 -83.1 Q11.1 -75.25 -12.05 -74.25 -19.9 -78.95 -22.35 -80.9 -19.85 -79.25 -8.45 -80.1 3.8 -81.1 5.2 -95.6 M-13.4 -18.2 Q-8.3 -12.3 -3.45 -10.9 3.2 -10.1 28.5 50.3 40.2 91.15 73.95 121.9 76.55 126.75 82.4 132.8 48.1 136.2 13.3 56.85 1.8 38.8 -27.5 1.0 -40.75 -10.0 -52.05 -14.65 -59.85 -15.0 -66.45 -20.05 -53.75 -19.8 -46.65 -21.7 -56.2 -23.1 -57.6 -29.85 -51.15 -28.35 -43.5 -29.9 -32.0 -1.7 -13.4 -18.2 M-69.85 -36.9 L-70.05 -37.1 -70.15 -37.2 -70.25 -37.25 -71.5 -38.65 Q-76.35 -46.15 -77.45 -52.05 -68.15 -55.5 -59.2 -52.55 -72.1 -51.15 -69.85 -36.9 M-59.3 -85.4 Q-53.5 -79.45 -41.95 -80.0 L-44.85 -79.65 Q-56.25 -77.65 -54.7 -67.75 L-53.95 -66.55 Q-57.8 -68.85 -58.7 -72.1 L-58.7 -72.2 Q-60.65 -79.5 -59.3 -85.4" fill="#f6f7f8" fill-rule="evenodd" stroke="none"/>
    <path d="M-19.1 -107.45 Q-0.95 -107.9 5.2 -95.6 -6.5 -103.95 -19.1 -107.45 M-12.05 -74.25 Q12.3 -72.9 13.2 -61.2 13.75 -54.15 5.7 -43.3 12.15 -66.45 -12.05 -74.25 M-41.95 -80.0 L-41.6 -80.0 -36.25 -80.1 Q-21.8 -79.15 -19.7 -67.5 -29.3 -77.95 -44.85 -79.65 L-41.95 -80.0 M-34.9 -40.05 Q-32.3 -35.6 -27.3 -35.35 -24.1 -33.4 -21.65 -24.45 -29.55 -27.4 -36.55 -38.05 -35.55 -38.85 -34.9 -40.05 M-14.8 -60.7 Q-10.6 -63.2 -4.85 -55.8 -0.1 -49.3 -1.9 -42.15 -5.95 -52.15 -14.8 -60.7 M-59.2 -52.55 L-57.55 -52.7 Q-46.05 -53.3 -41.2 -45.95 -38.65 -41.75 -39.9 -36.65 -45.05 -49.5 -59.2 -52.55" fill="#727287" fill-rule="evenodd" stroke="none"/>
    <path d="M13.45 -109.5 Q-10.1 -120.9 -22.8 -116.95 -17.25 -134.8 -32.9 -150.75 3.25 -133.2 13.45 -109.5 M73.95 121.9 Q72.4 118.95 72.05 116.45 70.85 107.9 83.75 104.4 89.05 104.2 93.45 106.3 99.95 109.4 104.65 117.45 L109.3 134.75 Q111.7 144.8 112.2 150.75 100.45 142.6 93.35 135.85 83.8 126.65 82.55 119.9 L82.5 119.55 Q82.2 117.8 82.5 116.2 82.05 114.2 80.2 113.6 73.5 112.95 73.95 121.9 M-115.7 -62.05 Q-107.25 -75.35 -62.75 -72.35 L-62.3 -71.25 Q-80.15 -66.0 -77.45 -52.05 -89.9 -65.2 -115.7 -62.05 M-117.0 -132.55 Q-81.5 -142.4 -34.9 -105.4 -56.2 -99.35 -59.3 -85.4 -79.7 -125.6 -117.0 -132.55" fill="#4d6084" fill-rule="evenodd" stroke="none"/>
    <path d="M73.95 121.9 Q73.5 112.95 80.2 113.6 82.05 114.2 82.5 116.2 82.2 117.8 82.5 119.55 L82.55 119.9 Q83.8 126.65 93.35 135.85 100.45 142.6 112.2 150.75 104.15 150.1 93.35 142.1 88.2 138.3 82.4 132.8 76.55 126.75 73.95 121.9 M-70.25 -37.25 Q-99.35 -62.95 -115.7 -62.05 -89.9 -65.2 -77.45 -52.05 -76.35 -46.15 -71.5 -38.65 L-70.25 -37.25 M-62.75 -72.35 Q-91.2 -119.4 -117.0 -132.55 -79.7 -125.6 -59.3 -85.4 -60.65 -79.5 -58.7 -72.2 L-62.3 -71.25 -62.75 -72.35 M-31.1 -111.5 Q-23.7 -131.15 -32.9 -150.75 -17.25 -134.8 -22.8 -116.95 -27.8 -115.4 -31.1 -111.5" fill="#7886ab" fill-rule="evenodd" stroke="none"/>
    <path d="M5.7 -43.3 Q13.1 -19.55 -13.4 -18.2 -32.0 -1.7 -43.5 -29.9 -42.95 -33.4 -39.9 -36.65 -42.95 -33.4 -43.5 -29.9 -51.15 -28.35 -57.6 -29.85 -64.45 -31.55 -69.85 -36.9 -72.1 -51.15 -59.2 -52.55 -45.05 -49.5 -39.9 -36.65 -37.9 -37.0 -36.55 -38.05 -29.55 -27.4 -21.65 -24.45 -24.1 -33.4 -27.3 -35.35 -32.3 -35.6 -34.9 -40.05 -40.3 -48.3 -35.15 -54.65 -24.15 -55.7 -19.7 -67.5 -24.15 -55.7 -35.15 -54.65 -49.7 -59.15 -53.95 -66.55 L-54.7 -67.75 Q-56.25 -77.65 -44.85 -79.65 -29.3 -77.95 -19.7 -67.5 -16.95 -72.35 -12.05 -74.25 12.15 -66.45 5.7 -43.3 M-22.35 -80.9 L-22.7 -81.15 Q-27.8 -85.3 -32.75 -90.65 -33.55 -102.6 -19.1 -107.45 -6.5 -103.95 5.2 -95.6 3.8 -81.1 -8.45 -80.1 -19.85 -79.25 -22.35 -80.9 M-14.8 -60.7 Q-5.95 -52.15 -1.9 -42.15 -0.1 -49.3 -4.85 -55.8 -10.6 -63.2 -14.8 -60.7" fill="#84849c" fill-rule="evenodd" stroke="none"/>
    <path d="M89.9 27.35 Q72.9 -11.05 35.95 -77.8 38.25 -92.5 34.35 -109.0 31.8 -102.5 26.7 -99.9 28.3 -107.9 25.6 -112.3 21.95 -109.9 20.9 -105.7 L13.45 -109.5 Q-10.1 -120.9 -22.8 -116.95 -27.8 -115.4 -31.1 -111.5 -23.7 -131.15 -32.9 -150.75 3.25 -133.2 13.45 -109.5 M-19.1 -107.45 Q-0.95 -107.9 5.2 -95.6 3.8 -81.1 -8.45 -80.1 -19.85 -79.25 -22.35 -80.9 L-22.7 -81.15 Q-27.8 -85.3 -32.75 -90.65 -37.7 -97.15 -34.9 -105.4 -56.2 -99.35 -59.3 -85.4 -60.65 -79.5 -58.7 -72.2 L-58.7 -72.1 Q-57.8 -68.85 -53.95 -66.55 L-54.7 -67.75 Q-56.25 -77.65 -44.85 -79.65 L-41.95 -80.0 -41.6 -80.0 -36.25 -80.1 Q-21.8 -79.15 -19.7 -67.5 -16.95 -72.35 -12.05 -74.25 -19.9 -78.95 -22.35 -80.9 M-12.05 -74.25 Q12.3 -72.9 13.2 -61.2 13.75 -54.15 5.7 -43.3 13.1 -19.55 -13.4 -18.2 -32.0 -1.7 -43.5 -29.9 -42.95 -33.4 -39.9 -36.65 -37.9 -37.0 -36.55 -38.05 -35.55 -38.85 -34.9 -40.05 -40.3 -48.3 -35.15 -54.65 -49.7 -59.15 -53.95 -66.55 M73.95 121.9 Q72.4 118.95 72.05 116.45 70.85 107.9 83.75 104.4 89.05 104.2 93.45 106.3 99.95 109.4 104.65 117.45 115.2 114.8 116.95 109.05 M112.2 150.75 Q111.7 144.8 109.3 134.75 L104.65 117.45 M82.4 132.8 Q88.2 138.3 93.35 142.1 104.15 150.1 112.2 150.75 M73.95 121.9 Q76.55 126.75 82.4 132.8 48.1 136.2 13.3 56.85 1.8 38.8 -27.5 1.0 -40.75 -10.0 -52.05 -14.65 -59.85 -15.0 -66.45 -20.05 -53.75 -19.8 -46.65 -21.7 -56.2 -23.1 -57.6 -29.85 -64.45 -31.55 -69.85 -36.9 L-70.05 -37.1 -70.15 -37.2 -70.25 -37.25 Q-99.35 -62.95 -115.7 -62.05 -107.25 -75.35 -62.75 -72.35 -91.2 -119.4 -117.0 -132.55 -81.5 -142.4 -34.9 -105.4 -33.4 -108.9 -31.1 -111.5 M-19.7 -67.5 Q-24.15 -55.7 -35.15 -54.65 M-62.3 -71.25 Q-80.15 -66.0 -77.45 -52.05 -76.35 -46.15 -71.5 -38.65 L-70.25 -37.25 M-59.2 -52.55 L-57.55 -52.7 Q-46.05 -53.3 -41.2 -45.95 -38.65 -41.75 -39.9 -36.65 M-59.2 -52.55 Q-72.1 -51.15 -69.85 -36.9 M-62.75 -72.35 L-62.3 -71.25 -58.7 -72.2 M-57.6 -29.85 Q-51.15 -28.35 -43.5 -29.9 M-32.75 -90.65 Q-33.55 -102.6 -19.1 -107.45" fill="none" stroke="#333333" stroke-linecap="round" stroke-linejoin="round" stroke-width="1.2000000000000002"/>
    <path d="M-21.7 -24.4 L-21.65 -24.5 -21.55 -24.45 -21.3 -24.05 -21.2 -23.85 -20.55 -22.9 -20.0 -22.3 -19.85 -22.1 -18.85 -21.15 -18.65 -21.0 -18.45 -20.9 -18.25 -20.75 -18.15 -20.65 -18.05 -20.6 -16.4 -19.7 -15.95 -19.5 -15.75 -19.45 -15.55 -19.35 -15.35 -19.3 -15.3 -19.25 -15.2 -19.25 -14.65 -19.05 -14.5 -19.05 -14.2 -18.95 -13.25 -18.75 -13.15 -18.75 Q-12.55 -18.55 -12.75 -18.0 -12.95 -17.4 -13.5 -17.6 L-13.95 -17.7 -15.0 -18.05 -15.15 -18.15 -15.55 -18.3 -15.65 -18.35 -15.75 -18.35 -16.35 -18.65 -16.75 -18.9 -16.9 -18.95 -17.0 -19.0 -17.2 -19.15 -17.65 -19.4 -18.05 -19.7 -18.45 -20.05 -18.55 -20.1 -18.65 -20.2 -18.85 -20.35 -19.05 -20.55 -19.25 -20.7 -19.4 -20.9 -19.6 -21.1 -20.05 -21.65 -20.2 -21.8 -20.95 -22.85 -21.1 -23.2 -21.3 -23.5 -21.7 -24.4 M-35.4 -39.7 L-35.4 -39.75 Q-35.7 -40.2 -35.2 -40.6 -34.6 -40.9 -34.35 -40.35 L-33.95 -39.6 -33.45 -38.85 -33.35 -38.75 -33.15 -38.45 -33.0 -38.3 -32.75 -38.0 -32.6 -37.9 -32.5 -37.75 -32.2 -37.45 -32.0 -37.35 -31.85 -37.2 -30.8 -36.5 -30.1 -36.15 -29.7 -36.0 -29.55 -35.9 -28.7 -35.65 -28.55 -35.65 -28.45 -35.6 -28.4 -35.6 -27.85 -35.5 -27.65 -35.5 -27.25 -35.4 -27.2 -35.3 Q-27.2 -35.2 -27.3 -35.25 L-28.15 -35.25 -28.45 -35.3 -28.75 -35.3 -29.1 -35.35 -30.25 -35.65 -31.1 -35.95 -31.9 -36.35 -32.3 -36.6 -32.5 -36.7 -32.65 -36.85 -32.85 -36.95 -33.0 -37.1 -33.2 -37.25 -33.35 -37.4 -33.7 -37.65 -33.75 -37.75 -33.85 -37.8 -33.95 -37.95 -34.1 -38.1 -34.25 -38.2 -34.45 -38.5 -34.85 -39.0 -35.05 -39.2 -35.15 -39.4 -35.4 -39.7 M98.55 48.15 L98.5 48.25 98.4 48.2 89.35 27.55 89.3 27.55 Q89.1 27.0 89.65 26.75 90.2 26.55 90.4 27.1 L98.55 48.15 M20.35 -106.0 L20.45 -106.15 21.3 -106.2 Q21.8 -105.8 21.4 -105.35 L19.0 -102.6 18.9 -102.6 Q18.7 -102.6 18.85 -102.75 L20.35 -106.0" fill="#333333" fill-rule="evenodd" stroke="none"/>
  </g>
</svg>
