<?xml version="1.0" encoding="UTF-8" standalone="no"?>
<svg xmlns:xlink="http://www.w3.org/1999/xlink" height="211.95px" width="355.7px" xmlns="http://www.w3.org/2000/svg">
  <g transform="matrix(1.0, 0.0, 0.0, 1.0, 177.85, 106.0)">
    <path d="M135.7 -57.85 L131.5 -58.65 108.3 -56.15 Q123.25 -53.1 140.95 -38.75 143.4 -37.25 145.7 -35.55 166.15 -21.1 174.5 2.95 161.6 -5.2 149.25 -9.75 L123.1 -28.35 Q161.2 9.4 176.25 37.1 163.25 27.5 152.5 22.8 L150.15 19.45 Q134.35 4.15 111.25 3.15 147.75 31.5 165.35 66.55 154.25 58.85 130.2 58.85 L-84.05 74.0 -90.0 78.65 Q-113.15 96.4 -130.35 105.35 -109.25 71.25 -79.85 43.0 L26.75 43.0 4.8 -11.25 Q-88.35 -0.25 -96.85 -11.25 -109.8 -24.15 -128.1 -30.65 L-135.05 -29.25 -155.55 -40.95 Q-139.3 -40.05 -128.6 -44.7 -117.85 -50.8 -105.35 -51.8 L73.65 -72.6 118.75 -73.25 126.2 -74.8 Q143.1 -77.5 161.65 -73.5 146.95 -66.75 135.7 -57.85 M-140.8 -5.55 Q-158.05 -11.25 -177.25 -13.65 L-173.3 -15.65 Q-151.95 -15.75 -134.85 -8.4 L-140.8 -5.55 M-174.4 21.25 Q-144.9 9.05 -116.55 4.1 L-137.1 20.25 -141.5 23.55 Q-156.95 20.8 -174.4 21.25 M-166.0 51.8 Q-146.1 34.5 -120.0 20.9 L-135.95 36.55 -139.3 40.75 Q-153.0 50.75 -167.5 54.25 L-166.0 51.8 M-150.95 61.8 Q-134.55 56.5 -111.55 34.1 -117.65 40.8 -122.7 47.35 -129.9 56.75 -134.9 65.9 -145.5 69.3 -155.0 78.15 -153.9 69.75 -150.95 61.8 M-141.5 79.2 Q-125.9 64.1 -111.45 55.05 -114.8 61.25 -118.0 68.95 -127.9 75.95 -139.0 78.65 L-141.5 79.2" fill="#dde2ed" fill-rule="evenodd" stroke="none"/>
    <path d="M145.7 -35.55 Q143.4 -37.25 140.95 -38.75 123.25 -53.1 108.3 -56.15 L131.5 -58.65 135.7 -57.85 Q165.55 -51.6 177.25 -29.25 160.55 -34.8 145.7 -35.55 M126.2 -74.8 L118.75 -73.25 73.65 -72.6 Q97.5 -80.15 118.95 -92.75 137.25 -104.6 155.55 -105.4 135.25 -87.6 126.2 -74.8 M165.35 66.55 Q147.75 31.5 111.25 3.15 134.35 4.15 150.15 19.45 L152.5 22.8 Q164.55 41.6 165.35 66.55 M176.25 37.1 Q161.2 9.4 123.1 -28.35 L149.25 -9.75 Q170.35 11.15 176.25 37.1" fill="#bbc1da" fill-rule="evenodd" stroke="none"/>
    <path d="M-135.05 -29.25 L-128.1 -30.65 Q-109.8 -24.15 -96.85 -11.25 -88.35 -0.25 4.8 -11.25 L26.75 43.0 -79.85 43.0 Q-109.25 71.25 -130.35 105.35 -126.2 90.55 -121.8 78.65 L-118.0 68.95 Q-114.8 61.25 -111.45 55.05 -125.9 64.1 -141.5 79.2 L-141.25 78.65 Q-138.2 71.9 -134.9 65.9 -129.9 56.75 -122.7 47.35 -117.65 40.8 -111.55 34.1 -134.55 56.5 -150.95 61.8 -146.9 50.85 -139.3 40.75 L-135.95 36.55 -120.0 20.9 Q-146.1 34.5 -166.0 51.8 -155.2 34.35 -141.5 23.55 L-137.1 20.25 -116.55 4.1 Q-144.9 9.05 -174.4 21.25 -161.65 5.0 -140.8 -5.55 L-134.85 -8.4 Q-151.95 -15.75 -173.3 -15.65 -155.15 -24.85 -135.05 -29.25" fill="#f6f7f8" fill-rule="evenodd" stroke="none"/>
    <path d="M135.7 -57.85 Q146.95 -66.75 161.65 -73.5 143.1 -77.5 126.2 -74.8 135.25 -87.6 155.55 -105.4 137.25 -104.6 118.95 -92.75 97.5 -80.15 73.65 -72.6 M-105.35 -51.8 Q-117.85 -50.8 -128.6 -44.7 -139.3 -40.05 -155.55 -40.95 L-135.05 -29.25 Q-155.15 -24.85 -173.3 -15.65 L-177.25 -13.65 Q-158.05 -11.25 -140.8 -5.55 -161.65 5.0 -174.4 21.25 -156.95 20.8 -141.5 23.55 -155.2 34.35 -166.0 51.8 L-167.5 54.25 Q-153.0 50.75 -139.3 40.75 -146.9 50.85 -150.95 61.8 -153.9 69.75 -155.0 78.15 -145.5 69.3 -134.9 65.9 -138.2 71.9 -141.25 78.65 L-141.5 79.2 -139.0 78.65 Q-127.9 75.95 -118.0 68.95 L-121.8 78.65 Q-126.2 90.55 -130.35 105.35 -113.15 96.4 -90.0 78.65 L-84.05 74.0 M130.2 58.85 Q154.25 58.85 165.35 66.55 164.55 41.6 152.5 22.8 163.25 27.5 176.25 37.1 170.35 11.15 149.25 -9.75 161.6 -5.2 174.5 2.95 166.15 -21.1 145.7 -35.55 160.55 -34.8 177.25 -29.25 165.55 -51.6 135.7 -57.85 M-122.7 47.35 Q-129.9 56.75 -134.9 65.9" fill="none" stroke="#333333" stroke-linecap="round" stroke-linejoin="miter-clip" stroke-miterlimit="5.0" stroke-width="1.2000000000000002"/>
    <path d="M-111.5 55.0 Q-111.5 54.85 -111.4 54.95 -111.25 54.95 -111.35 55.05 L-117.2 68.55 -117.4 69.15 -117.45 69.2 Q-117.75 69.75 -118.25 69.5 -118.75 69.25 -118.55 68.7 L-117.95 67.4 -111.5 55.0 M-137.15 20.15 L-137.0 20.15 -137.0 20.3 -141.1 24.0 -141.2 24.05 -141.65 24.15 -142.0 23.9 Q-142.35 23.4 -141.85 23.05 L-137.15 20.15 M-111.6 34.0 L-111.45 34.0 -111.45 34.15 -122.2 47.7 Q-122.6 48.15 -123.05 47.8 -123.5 47.4 -123.15 46.95 L-122.15 45.7 -111.6 34.0 M-134.85 -8.45 L-134.75 -8.4 Q-134.65 -8.3 -134.8 -8.3 L-140.6 -4.95 Q-141.15 -4.65 -141.35 -5.25 L-141.35 -5.7 -141.05 -6.05 -134.85 -8.45 M-128.1 -30.7 L-128.0 -30.65 Q-127.9 -30.55 -128.05 -30.55 L-134.9 -28.65 -135.0 -28.6 Q-135.55 -28.5 -135.65 -29.15 -135.75 -29.7 -135.15 -29.8 L-128.1 -30.7 M150.05 19.5 L150.05 19.35 150.2 19.35 153.0 22.45 153.05 22.6 Q153.3 23.15 152.8 23.4 152.25 23.7 151.95 23.1 L150.05 19.5 M146.4 -12.3 L146.4 -12.4 146.55 -12.45 149.65 -10.15 149.75 -10.05 Q150.1 -9.55 149.65 -9.2 149.2 -8.8 148.8 -9.3 L146.4 -12.3 M140.85 -38.65 L140.85 -38.75 Q140.85 -38.95 141.0 -38.8 L146.05 -36.0 146.1 -35.95 Q146.6 -35.55 146.15 -35.1 L145.3 -35.05 140.85 -38.65 M131.45 -58.55 L131.4 -58.65 131.5 -58.7 135.15 -58.5 135.8 -58.4 135.85 -58.4 135.95 -58.35 136.3 -58.05 136.3 -57.6 136.0 -57.25 135.55 -57.25 131.45 -58.55 M118.75 -73.15 Q118.65 -73.05 118.65 -73.2 L118.7 -73.3 126.1 -75.35 126.15 -75.4 Q126.8 -75.4 126.8 -74.85 126.9 -74.2 126.25 -74.2 L118.75 -73.15" fill="#333333" fill-rule="evenodd" stroke="none"/>
  </g>
</svg>
