<?xml version="1.0" encoding="UTF-8" standalone="no"?>
<svg xmlns:xlink="http://www.w3.org/1999/xlink" height="330.05px" width="338.6px" xmlns="http://www.w3.org/2000/svg">
  <g transform="matrix(1.0, 0.0, 0.0, 1.0, 162.8, 159.05)">
    <path d="M-25.8 134.85 Q-51.95 156.3 -79.75 165.6 L-86.45 167.6 Q-93.2 169.5 -100.3 170.5 -130.5 170.65 -149.35 139.15 -153.25 132.25 -156.7 123.85 L-157.3 121.9 Q-165.75 93.7 -159.9 60.15 -157.85 48.55 -154.25 36.3 -149.3 19.45 -141.1 1.4 L-140.05 -0.85 Q-107.8 -48.3 -42.4 -75.15 L-30.3 -79.85 -13.2 -85.75 1.0 -90.05 9.25 -91.85 11.3 -92.05 41.6 -96.1 55.25 -97.9 Q63.6 -109.95 60.45 -122.05 58.8 -127.9 54.55 -133.9 49.9 -140.2 42.05 -146.65 L38.2 -149.6 35.8 -151.3 Q30.8 -154.9 24.6 -158.55 L39.7 -156.45 41.25 -156.2 50.7 -154.4 60.65 -151.95 Q68.25 -150.0 75.6 -147.5 85.0 -144.2 94.15 -140.25 101.05 -137.1 107.85 -133.4 132.6 -119.9 153.65 -99.65 L152.5 -112.25 Q178.75 -88.75 174.75 -28.4 174.6 -20.45 173.15 -12.95 169.85 3.5 159.95 17.55 152.15 28.75 140.2 38.4 144.8 27.55 146.85 17.8 149.5 5.75 148.25 -4.4 144.15 -38.9 95.5 -50.4 L86.6 -52.75 Q71.7 -56.5 57.3 -58.4 43.05 -60.35 29.4 -60.55 11.95 -60.75 -3.45 -57.55 -22.25 -53.35 -39.75 -45.35 -45.2 -42.95 -50.5 -40.1 L-53.85 -38.25 Q-111.75 -9.3 -127.3 32.6 -132.55 46.1 -133.7 60.75 -135.2 82.0 -130.5 105.6 L-129.95 108.2 -128.7 113.45 Q-118.2 148.4 -91.25 138.6 -86.0 135.7 -81.55 132.3 -72.45 125.5 -65.6 116.95 -60.05 110.0 -55.95 101.9 -25.65 96.6 -25.8 134.85" fill="#72567e" fill-opacity="0.99607843" fill-rule="evenodd" stroke="none"/>
    <path d="M-25.8 134.85 Q-51.95 156.3 -79.75 165.6 L-86.45 167.6 Q-93.2 169.5 -100.3 170.5 -130.5 170.65 -149.35 139.15 -153.25 132.25 -156.7 123.85 L-157.3 121.9 Q-165.75 93.7 -159.9 60.15 -157.85 48.55 -154.25 36.3 -149.3 19.45 -141.1 1.4 L-140.05 -0.85 Q-107.8 -48.3 -42.4 -75.15 L-30.3 -79.85 -13.2 -85.75 1.0 -90.05 9.25 -91.85 11.3 -92.05 41.6 -96.1 55.25 -97.9 Q63.6 -109.95 60.45 -122.05 58.8 -127.9 54.55 -133.9 49.9 -140.2 42.05 -146.65 L38.2 -149.6 35.8 -151.3 Q30.8 -154.9 24.6 -158.55 L39.7 -156.45 41.25 -156.2 50.7 -154.4 60.65 -151.95 Q68.25 -150.0 75.6 -147.5 85.0 -144.2 94.15 -140.25 101.05 -137.1 107.85 -133.4 132.6 -119.9 153.65 -99.65 L152.5 -112.25 Q178.75 -88.75 174.75 -28.4 174.6 -20.45 173.15 -12.95 169.85 3.5 159.95 17.55 152.15 28.75 140.2 38.4 144.8 27.55 146.85 17.8 149.5 5.75 148.25 -4.4 144.15 -38.9 95.5 -50.4 L86.6 -52.75 Q71.7 -56.5 57.3 -58.4 43.05 -60.35 29.4 -60.55 11.95 -60.75 -3.45 -57.55 -22.25 -53.35 -39.75 -45.35 -45.2 -42.95 -50.5 -40.1 L-53.85 -38.25 Q-111.75 -9.3 -127.3 32.6 -132.55 46.1 -133.7 60.75 -135.2 82.0 -130.5 105.6 L-129.95 108.2 -128.7 113.45 Q-118.2 148.4 -91.25 138.6 -86.0 135.7 -81.55 132.3 -72.45 125.5 -65.6 116.95 -60.05 110.0 -55.95 101.9 -25.65 96.6 -25.8 134.85 Z" fill="none" stroke="#3f274c" stroke-linecap="round" stroke-linejoin="round" stroke-width="1.0"/>
  </g>
</svg>
