<?xml version="1.0" encoding="UTF-8" standalone="no"?>
<svg xmlns:xlink="http://www.w3.org/1999/xlink" height="110.8px" width="44.55px" xmlns="http://www.w3.org/2000/svg">
  <g transform="matrix(1.0, 0.0, 0.0, 1.0, 59.25, -14.0)">
    <path d="M-14.95 14.0 Q-14.15 16.05 -16.05 20.55 -17.75 24.7 -19.25 25.65 L-20.4 25.55 -20.55 23.1 Q-20.55 17.1 -14.95 14.0 M-37.65 44.7 L-37.55 44.7 Q-36.9 44.7 -36.7 45.45 L-36.6 46.9 Q-36.6 48.2 -37.45 49.9 -36.8 50.65 -36.75 51.7 L-37.05 53.45 -37.9 53.55 -38.9 53.3 -39.5 52.75 -40.3 53.2 Q-41.25 51.8 -41.25 50.3 -41.25 48.75 -40.15 46.95 -39.1 45.25 -38.15 44.95 L-39.5 43.45 Q-40.65 45.05 -42.4 46.25 -44.05 47.35 -44.85 48.7 -47.55 53.0 -51.2 73.0 L-51.0 73.55 -50.8 74.8 -51.15 76.0 -51.8 77.65 -52.95 73.9 -53.15 73.0 Q-53.1 72.05 -53.2 71.2 -53.35 70.05 -53.75 69.15 L-53.05 65.7 -52.0 57.5 Q-51.8 53.2 -51.35 53.0 L-50.05 52.9 Q-49.3 52.6 -48.35 49.9 -46.9 45.85 -41.1 40.55 -34.5 34.5 -33.6 33.1 -32.8 31.85 -31.0 27.65 -29.8 24.85 -28.9 24.85 -28.25 24.85 -27.65 25.45 L-26.35 26.8 Q-26.5 22.95 -25.25 29.9 -25.25 30.9 -25.95 32.7 -26.7 34.7 -27.5 35.45 L-28.35 35.9 -29.9 36.8 -32.7 39.5 -35.95 42.35 -36.8 43.2 Q-37.6 44.1 -37.65 44.7 -37.65 44.0 -37.95 44.35 -38.3 44.7 -37.65 44.7 M-48.2 74.95 L-46.9 76.0 Q-46.35 76.7 -46.35 77.7 L-46.55 79.95 -46.75 80.25 Q-46.9 80.5 -47.5 80.5 -48.25 80.5 -48.85 79.6 -49.45 78.75 -49.45 77.8 -49.45 76.45 -49.1 75.85 L-48.2 74.95 M-58.75 105.2 L-59.25 100.4 -58.9 97.15 -58.2 93.6 -57.8 92.4 -56.7 91.9 -56.4 91.8 -55.55 93.25 Q-55.35 95.45 -55.6 97.7 L-55.65 98.3 -56.25 98.95 -56.2 100.3 Q-55.5 102.05 -55.15 104.15 -54.7 107.2 -55.75 108.55 L-55.8 108.75 -55.85 108.8 -56.45 110.25 -57.3 108.75 -57.55 108.4 -57.7 107.95 -58.15 107.05 -58.75 105.2 M-55.8 124.8 Q-57.95 123.75 -57.95 121.95 L-57.75 119.9 -56.8 119.35 Q-56.05 119.95 -55.65 121.55 -55.2 123.4 -55.65 124.65 L-55.8 124.8" fill="#faffea" fill-rule="evenodd" stroke="none"/>
  </g>
</svg>
