<?xml version="1.0" encoding="UTF-8" standalone="no"?>
<svg xmlns:xlink="http://www.w3.org/1999/xlink" height="125.7px" width="78.6px" xmlns="http://www.w3.org/2000/svg">
  <g transform="matrix(1.0, 0.0, 0.0, 1.0, 59.25, -14.0)">
    <path d="M10.3 55.5 L9.9 62.5 9.2 64.05 10.2 66.35 Q10.15 67.25 9.4 66.1 8.6 64.9 8.6 64.3 L7.1 52.55 Q7.1 47.3 9.35 41.5 11.3 36.3 13.2 34.75 L13.3 36.65 Q13.35 37.15 13.95 37.15 15.25 37.15 15.95 39.8 L16.4 42.7 Q16.4 45.75 13.9 46.95 L13.15 51.0 Q12.15 54.7 10.3 55.5 M19.35 51.05 Q19.35 51.95 18.9 52.6 18.4 53.2 17.7 53.2 17.0 53.2 16.55 52.6 16.05 51.95 16.05 51.05 16.05 50.15 16.55 49.55 17.0 48.9 17.7 48.9 18.4 48.9 18.9 49.55 19.35 50.15 19.35 51.05 M4.85 67.55 Q4.85 68.6 4.45 69.35 4.05 70.1 3.45 70.1 2.85 70.1 2.45 69.35 2.05 68.6 2.05 67.55 2.05 66.5 2.45 65.75 2.85 65.0 3.45 65.0 4.05 65.0 4.45 65.75 4.85 66.5 4.85 67.55 M6.0 102.5 L5.6 106.45 Q4.45 107.8 4.2 109.7 3.1 108.2 2.5 105.75 1.95 103.45 1.95 100.9 1.95 97.15 3.4 88.35 L5.05 78.8 Q6.2 71.55 6.3 71.4 L6.75 71.35 7.75 71.7 Q8.3 71.7 8.65 71.2 L9.45 70.2 10.15 70.6 Q10.8 71.05 10.9 71.85 L9.35 74.0 9.8 75.95 10.15 78.25 9.85 80.15 9.25 81.45 7.6 85.1 7.8 86.8 7.55 88.3 Q7.15 90.05 6.45 98.05 L7.05 101.25 Q6.9 102.15 6.35 102.7 L6.0 102.5 M3.35 79.15 Q3.35 80.15 3.0 80.85 2.6 81.55 2.1 81.55 1.6 81.55 1.25 80.85 0.85 80.15 0.85 79.15 0.85 78.15 1.25 77.45 1.6 76.75 2.1 76.75 2.6 76.75 3.0 77.45 3.35 78.15 3.35 79.15 M10.55 112.55 Q12.85 114.8 13.65 116.5 L11.9 116.35 10.1 115.8 9.3 115.2 9.5 114.75 10.05 113.3 10.2 112.25 10.55 112.55 M8.45 120.3 L9.95 123.55 Q11.0 125.65 11.0 128.5 L10.75 131.5 10.6 131.6 10.15 132.2 Q8.5 131.4 7.45 129.8 6.35 128.05 6.35 125.85 6.35 122.5 7.0 121.5 L8.45 120.3 M10.2 137.8 L9.75 139.15 Q9.3 139.7 8.65 139.7 8.0 139.7 7.55 139.15 7.1 138.6 7.1 137.8 7.1 137.0 7.55 136.45 8.0 135.9 8.65 135.9 9.3 135.9 9.75 136.45 10.2 137.0 10.2 137.8 M-14.95 14.0 Q-14.15 16.05 -16.05 20.55 -17.75 24.7 -19.25 25.65 L-20.4 25.55 -20.55 23.1 Q-20.55 17.1 -14.95 14.0 M-37.65 44.7 L-37.55 44.7 Q-36.9 44.7 -36.7 45.45 L-36.6 46.9 Q-36.6 48.2 -37.45 49.9 -36.8 50.65 -36.75 51.7 L-37.05 53.45 -37.9 53.55 -38.9 53.3 -39.5 52.75 -40.3 53.2 Q-41.25 51.8 -41.25 50.3 -41.25 48.75 -40.15 46.95 -39.1 45.25 -38.15 44.95 L-39.5 43.45 Q-40.65 45.05 -42.4 46.25 -44.05 47.35 -44.85 48.7 -47.55 53.0 -51.2 73.0 L-51.0 73.55 -50.8 74.8 -51.15 76.0 -51.8 77.65 -52.95 73.9 -53.15 73.0 Q-53.1 72.05 -53.2 71.2 -53.35 70.05 -53.75 69.15 L-53.05 65.7 -52.0 57.5 Q-51.8 53.2 -51.35 53.0 L-50.05 52.9 Q-49.3 52.6 -48.35 49.9 -46.9 45.85 -41.1 40.55 -34.5 34.5 -33.6 33.1 -32.8 31.85 -31.0 27.65 -29.8 24.85 -28.9 24.85 -28.25 24.85 -27.65 25.45 L-26.35 26.8 Q-26.5 22.95 -25.25 29.9 -25.25 30.9 -25.95 32.7 -26.7 34.7 -27.5 35.45 L-28.35 35.9 -29.9 36.8 -32.7 39.5 -35.95 42.35 -36.8 43.2 Q-37.6 44.1 -37.65 44.7 -37.65 44.0 -37.95 44.35 -38.3 44.7 -37.65 44.7 M-48.2 74.95 L-46.9 76.0 Q-46.35 76.7 -46.35 77.7 L-46.55 79.95 -46.75 80.25 Q-46.9 80.5 -47.5 80.5 -48.25 80.5 -48.85 79.6 -49.45 78.75 -49.45 77.8 -49.45 76.45 -49.1 75.85 L-48.2 74.95 M-58.75 105.2 L-59.25 100.4 -58.9 97.15 -58.2 93.6 -57.8 92.4 -56.7 91.9 -56.4 91.8 -55.55 93.25 Q-55.35 95.45 -55.6 97.7 L-55.65 98.3 -56.25 98.95 -56.2 100.3 Q-55.5 102.05 -55.15 104.15 -54.7 107.2 -55.75 108.55 L-55.8 108.75 -55.85 108.8 -56.45 110.25 -57.3 108.75 -57.55 108.4 -57.7 107.95 -58.15 107.05 -58.75 105.2 M-55.8 124.8 Q-57.95 123.75 -57.95 121.95 L-57.75 119.9 -56.8 119.35 Q-56.05 119.95 -55.65 121.55 -55.2 123.4 -55.65 124.65 L-55.8 124.8" fill="#faffea" fill-rule="evenodd" stroke="none"/>
  </g>
</svg>
