<?xml version="1.0" encoding="UTF-8" standalone="no"?>
<svg xmlns:xlink="http://www.w3.org/1999/xlink" height="217.95px" width="164.7px" xmlns="http://www.w3.org/2000/svg">
  <g transform="matrix(1.0, 0.0, 0.0, 1.0, 85.45, 77.05)">
    <path d="M10.4 -77.05 Q13.3 -73.55 15.4 -69.25 16.05 -67.85 15.65 -66.55 11.2 -68.7 9.3 -74.7 8.75 -76.5 10.4 -77.05 M3.0 -37.1 Q2.0 -37.85 1.3 -38.9 -0.95 -38.75 -2.15 -41.8 -2.5 -42.8 -1.45 -42.95 L-0.2 -42.3 -0.4 -43.35 Q-0.65 -44.85 0.6 -45.1 L1.45 -44.35 1.6 -44.8 1.6 -45.1 Q1.6 -46.0 2.45 -46.05 L2.6 -45.9 2.8 -46.05 3.4 -45.1 Q4.5 -43.8 5.2 -42.05 L5.3 -41.8 Q7.4 -37.8 8.9 -33.4 9.6 -31.45 9.05 -29.5 5.15 -32.15 3.0 -37.1 M7.95 -26.65 Q10.2 -23.45 7.4 -26.2 7.0 -26.6 7.95 -26.65 M16.9 -3.5 L17.4 -2.6 Q17.65 -4.15 18.6 -5.7 19.95 -7.95 21.7 -9.2 24.8 -7.5 20.9 -3.85 20.0 -3.0 19.7 -1.85 22.9 -2.45 25.25 0.75 25.75 1.4 25.4 2.15 23.55 3.25 21.7 1.75 21.55 1.65 21.4 2.25 L20.95 3.95 Q20.45 4.85 19.5 4.3 18.05 2.5 17.55 0.7 17.2 2.5 16.15 4.75 15.65 5.75 16.1 7.4 19.15 19.1 14.95 29.3 11.95 24.8 14.0 15.95 15.25 10.7 13.45 5.8 11.35 0.15 16.9 -3.5 M24.15 -17.2 Q26.6 -15.3 24.25 -12.45 23.65 -11.75 22.8 -12.25 21.7 -14.15 22.8 -16.3 23.2 -17.15 24.15 -17.2 M62.05 44.7 L62.1 45.15 Q62.2 46.25 61.35 46.75 L61.3 46.85 61.3 46.8 60.9 46.95 Q58.95 43.85 57.95 39.65 57.6 38.15 59.05 37.8 L54.9 21.1 Q54.45 19.25 54.55 17.75 L54.4 16.65 Q54.3 15.6 54.95 15.15 52.3 10.65 50.15 5.5 L49.95 5.65 48.85 4.4 48.8 8.3 Q48.65 9.6 47.55 10.2 48.8 12.9 49.2 16.2 L49.35 16.15 Q51.05 19.25 51.5 23.5 51.65 24.85 50.35 25.3 48.55 23.05 48.15 19.8 L47.95 19.9 Q46.6 15.7 45.45 10.3 45.05 8.75 46.35 8.3 45.45 5.9 45.55 2.9 45.6 2.1 46.2 1.65 L46.2 1.6 Q46.35 0.8 47.1 0.75 L47.5 0.9 Q47.2 -0.55 47.25 -2.25 47.3 -3.6 48.5 -3.85 L49.7 -1.2 49.9 -1.35 Q53.95 4.8 56.6 11.55 L58.3 13.5 Q58.8 14.25 58.55 15.1 L57.75 15.1 57.8 15.55 59.8 17.85 59.85 17.8 60.95 19.1 Q63.8 20.35 65.9 22.45 L65.85 21.95 Q77.6 33.55 77.65 49.4 78.45 51.25 78.5 53.7 78.5 54.9 77.7 55.55 L77.3 55.05 Q76.7 59.3 74.45 62.4 L73.75 62.55 Q74.4 59.55 74.65 56.65 L73.4 55.2 Q72.85 54.55 73.85 54.45 L74.7 56.2 Q75.15 49.75 73.85 43.45 70.95 41.85 70.15 37.0 L69.85 35.5 Q65.85 34.6 65.15 30.4 61.5 25.75 57.9 20.4 61.1 29.5 61.95 39.95 L62.0 42.5 62.2 43.4 62.05 44.7 M66.4 24.55 L66.2 24.5 66.3 24.6 66.4 24.55 M68.6 30.95 L68.8 31.4 Q68.95 31.9 68.7 32.35 L68.6 32.4 68.55 32.95 68.75 33.1 Q69.05 32.25 69.75 32.0 L69.15 30.85 69.05 30.7 69.05 31.1 68.6 30.95 M10.3 55.5 L9.9 62.5 9.2 64.05 10.2 66.35 Q10.15 67.25 9.4 66.1 8.6 64.9 8.6 64.3 L7.1 52.55 Q7.1 47.3 9.35 41.5 11.3 36.3 13.2 34.75 L13.3 36.65 Q13.35 37.15 13.95 37.15 15.25 37.15 15.95 39.8 L16.4 42.7 Q16.4 45.75 13.9 46.95 L13.15 51.0 Q12.15 54.7 10.3 55.5 M40.5 70.95 L38.7 77.15 Q35.7 74.15 36.65 67.65 37.0 67.55 37.2 66.85 38.6 62.6 39.3 58.1 L39.4 57.35 Q39.8 54.55 38.9 52.6 L38.95 52.5 39.1 52.1 39.15 52.05 Q43.65 61.35 40.5 70.95 M32.8 54.2 Q31.7 54.7 30.85 53.85 30.55 53.55 30.8 54.2 30.9 62.45 29.6 71.5 28.9 76.25 25.25 76.4 27.4 67.35 28.1 57.6 28.35 54.0 29.55 50.55 L29.9 50.25 Q31.35 50.9 32.3 52.0 L32.35 52.4 Q32.5 53.35 32.8 54.2 M19.35 51.05 Q19.35 51.95 18.9 52.6 18.4 53.2 17.7 53.2 17.0 53.2 16.55 52.6 16.05 51.95 16.05 51.05 16.05 50.15 16.55 49.55 17.0 48.9 17.7 48.9 18.4 48.9 18.9 49.55 19.35 50.15 19.35 51.05 M4.85 67.55 Q4.85 68.6 4.45 69.35 4.05 70.1 3.45 70.1 2.85 70.1 2.45 69.35 2.05 68.6 2.05 67.55 2.05 66.5 2.45 65.75 2.85 65.0 3.45 65.0 4.05 65.0 4.45 65.75 4.85 66.5 4.85 67.55 M6.0 102.5 L5.6 106.45 Q4.45 107.8 4.2 109.7 3.1 108.2 2.5 105.75 1.95 103.45 1.95 100.9 L2.0 99.85 Q1.2 103.45 -1.1 106.8 -2.4 108.65 -4.1 110.2 -7.1 105.9 -2.8 102.05 L-0.85 100.95 -0.1 94.8 Q-0.8 97.45 -3.05 97.5 -3.1 90.4 -0.95 83.1 -0.3 80.9 0.9 79.65 L0.85 79.15 Q0.85 78.15 1.25 77.45 1.6 76.75 2.1 76.75 2.6 76.75 3.0 77.45 3.35 78.15 3.35 79.15 L3.15 80.45 3.55 80.2 Q4.15 81.75 4.3 83.4 L5.05 78.8 Q6.2 71.55 6.3 71.4 L6.75 71.35 7.75 71.7 Q8.3 71.7 8.65 71.2 L9.45 70.2 10.15 70.6 Q10.8 71.05 10.9 71.85 L9.35 74.0 9.8 75.95 10.15 78.25 9.85 80.15 9.25 81.45 7.6 85.1 7.8 86.8 7.55 88.3 Q7.15 90.05 6.45 98.05 L7.05 101.25 Q6.9 102.15 6.35 102.7 L6.0 102.5 M17.6 79.15 Q20.15 82.4 17.8 86.75 17.2 87.85 15.75 87.65 13.9 84.8 15.85 80.4 16.35 79.3 17.6 79.15 M1.25 80.9 L1.35 83.0 1.6 82.35 2.05 81.55 Q1.6 81.5 1.25 80.9 M2.4 95.45 L3.1 90.15 2.85 90.8 2.55 91.5 2.1 92.75 2.4 95.45 M17.5 93.1 Q17.3 92.2 17.55 90.85 17.7 90.1 18.3 90.05 19.9 91.15 20.25 93.45 20.35 94.25 19.9 94.9 L19.7 94.9 Q22.25 98.35 23.55 102.7 24.05 104.4 23.05 105.5 L22.6 104.85 Q23.15 107.65 23.15 110.65 L23.85 110.35 Q26.35 112.1 23.05 113.2 L22.1 118.95 Q21.25 122.6 18.15 122.9 L18.95 114.2 18.85 114.15 19.45 107.9 19.65 107.15 Q19.3 105.9 19.1 104.55 18.9 103.3 20.0 103.1 L20.2 103.3 20.2 102.9 Q18.15 101.35 18.15 98.1 18.15 97.7 18.3 97.45 L17.2 95.05 Q16.55 93.65 17.5 93.1 M38.7 78.55 Q39.1 83.0 39.15 89.05 39.2 90.1 38.75 91.1 40.35 96.2 40.0 101.8 40.2 103.1 40.05 104.6 39.95 105.3 39.45 105.7 L39.4 105.95 Q38.95 108.45 37.4 110.05 L37.7 110.75 Q38.15 109.4 39.05 108.5 41.25 116.7 40.55 125.95 L40.35 126.25 38.65 130.1 Q38.6 129.95 38.7 129.9 36.85 122.6 37.25 113.3 L37.3 113.0 36.5 113.5 Q35.05 113.05 35.25 111.4 L35.25 110.5 Q35.6 109.95 36.1 109.65 36.35 109.45 36.65 109.35 L36.9 109.55 Q37.4 105.75 37.3 101.9 L37.2 99.95 Q36.85 95.25 35.6 90.45 35.1 88.5 35.5 87.15 35.15 84.35 36.55 80.95 37.25 79.25 38.7 78.55 M76.25 76.35 L76.25 76.15 77.9 73.15 78.6 71.75 Q79.65 75.0 78.95 78.75 L78.9 82.3 Q78.75 83.45 78.2 84.6 74.5 83.0 75.5 77.95 75.65 76.95 76.25 76.35 M76.65 86.45 Q78.65 89.05 77.85 93.0 77.6 94.0 76.8 94.7 74.2 92.6 75.25 87.95 75.55 86.7 76.65 86.45 M10.55 112.55 Q12.85 114.8 13.65 116.5 L11.9 116.35 11.1 116.2 10.9 117.1 10.15 118.0 Q8.75 117.8 8.6 116.65 L9.5 114.75 9.65 114.4 10.0 113.3 10.2 112.25 10.55 112.55 M8.45 120.3 L9.95 123.55 Q11.0 125.65 11.0 128.5 L10.75 131.5 10.6 131.6 10.15 132.2 Q8.5 131.4 7.45 129.8 6.35 128.05 6.35 125.85 6.35 122.5 7.0 121.5 L8.45 120.3 M10.2 137.8 L9.75 139.15 Q9.3 139.7 8.65 139.7 8.0 139.7 7.55 139.15 7.1 138.6 7.1 137.8 7.1 137.0 7.55 136.45 8.0 135.9 8.65 135.9 9.3 135.9 9.75 136.45 10.2 137.0 10.2 137.8 M35.95 130.55 L37.25 133.0 33.05 140.9 Q32.4 137.3 34.2 132.65 L34.65 131.85 Q34.95 130.95 35.95 130.55 M-26.55 -64.15 Q-24.6 -61.3 -27.0 -63.75 -27.4 -64.1 -26.55 -64.15 M-28.85 -41.9 Q-29.15 -41.2 -29.6 -40.55 L-30.0 -43.0 -30.55 -42.5 Q-32.3 -44.15 -32.05 -47.1 L-32.1 -48.65 Q-32.4 -49.3 -33.4 -49.5 L-33.75 -49.7 Q-34.0 -53.15 -33.2 -56.6 L-32.3 -59.4 -30.45 -59.95 -30.45 -60.0 -29.65 -59.05 -28.5 -60.4 -27.7 -59.8 -27.3 -59.25 -27.5 -53.25 Q-26.0 -49.6 -26.3 -44.6 -24.15 -32.05 -23.85 -18.6 -23.7 -13.05 -26.5 -10.05 L-26.3 -15.85 -27.4 -16.1 Q-27.1 -20.1 -27.45 -24.8 -27.55 -26.05 -26.7 -26.5 L-27.15 -31.2 Q-29.2 -34.1 -29.0 -39.2 -28.95 -40.1 -28.55 -40.6 L-28.75 -41.65 -28.85 -41.9 M-30.55 -51.65 L-30.55 -51.8 -30.7 -52.05 -30.55 -51.65 M-13.2 -67.2 Q-11.1 -66.55 -11.1 -64.45 -10.35 -65.2 -9.15 -65.4 -8.95 -61.1 -9.65 -54.85 -9.85 -53.1 -10.8 -51.8 -13.15 -54.8 -12.9 -58.8 L-13.75 -60.3 -14.15 -60.45 -15.75 -61.05 Q-16.65 -62.55 -17.0 -64.4 -17.3 -66.15 -16.45 -67.05 L-16.5 -67.15 Q-17.15 -69.45 -15.4 -70.4 L-13.2 -67.2 M-64.95 -21.3 L-62.5 -21.7 Q-61.25 -22.05 -60.5 -21.15 L-60.15 -20.6 Q-63.75 -19.45 -66.05 -16.5 -66.95 -15.4 -68.3 -14.65 -70.6 -16.5 -68.45 -19.0 L-67.15 -20.2 -66.9 -21.6 Q-66.75 -22.5 -65.9 -22.55 L-64.95 -21.3 M-69.45 -13.4 Q-67.65 -12.25 -68.3 -10.0 -68.5 -9.3 -69.2 -8.9 -71.8 -9.75 -70.3 -12.7 -70.0 -13.35 -69.45 -13.4 M-56.35 -7.45 Q-56.2 -9.6 -54.7 -10.5 -52.15 -4.25 -53.8 3.15 L-53.9 3.7 Q-53.2 4.95 -54.55 6.6 L-54.85 6.9 -55.9 6.8 Q-56.8 5.3 -55.85 3.55 L-55.75 3.4 Q-56.6 -1.15 -56.35 -7.15 -56.55 -7.35 -56.35 -7.45 M-14.1 -40.3 L-14.35 -41.65 Q-14.65 -41.4 -15.1 -41.3 -17.25 -43.9 -16.15 -47.75 -15.8 -48.9 -14.75 -49.2 -13.95 -47.6 -13.8 -45.4 -13.5 -45.7 -13.0 -45.85 L-12.65 -45.3 -12.5 -46.9 Q-12.35 -47.85 -11.45 -47.95 -9.25 -45.95 -10.2 -42.65 -10.4 -41.9 -11.15 -41.75 L-10.55 -38.55 Q-10.45 -37.45 -10.7 -36.3 L-10.95 -36.4 -11.0 -35.85 -8.8 -25.75 -7.75 -22.4 Q-7.3 -20.8 -7.85 -19.55 L-7.75 -15.45 Q-6.8 -14.6 -7.45 -13.1 L-8.0 -12.4 Q-8.2 -11.05 -8.65 -9.95 -8.4 -9.3 -8.8 -9.6 L-9.25 -8.8 -9.5 -10.4 -9.95 -10.95 Q-10.35 -11.55 -9.75 -11.7 L-12.1 -26.65 -12.15 -27.05 -13.55 -31.8 Q-13.95 -33.55 -13.05 -34.3 L-13.25 -36.25 Q-14.05 -38.0 -14.1 -40.3 M-33.1 -49.2 Q-31.1 -45.45 -33.65 -48.75 -33.85 -49.0 -33.1 -49.2 M-37.8 -44.6 Q-36.0 -42.9 -37.55 -40.05 -37.9 -39.4 -38.65 -38.9 -41.7 -40.35 -39.1 -43.7 -38.5 -44.45 -37.8 -44.6 M-31.35 -41.7 Q-31.05 -37.45 -35.2 -32.2 -36.5 -30.6 -38.35 -31.1 -38.1 -33.9 -36.5 -36.4 -36.5 -37.6 -36.0 -38.8 -35.7 -39.55 -34.95 -39.6 L-34.35 -39.05 -34.2 -39.25 -31.35 -41.7 M-22.8 -12.55 Q-20.85 -8.45 -24.4 -4.15 -25.2 -3.2 -26.4 -3.4 L-26.75 -2.95 Q-24.9 -1.4 -27.4 0.8 -28.1 1.45 -28.75 0.65 -29.35 -1.0 -28.15 -2.2 L-27.6 -2.6 Q-29.85 -4.45 -28.2 -7.45 -27.9 -7.95 -27.75 -8.7 -27.35 -9.2 -26.75 -9.5 L-26.35 -9.65 Q-25.8 -8.95 -25.55 -8.15 L-24.5 -10.9 Q-23.95 -12.2 -22.8 -12.55 M-8.6 2.65 Q-8.2 3.45 -9.0 3.9 L-9.3 3.95 Q-9.9 4.6 -10.8 5.0 -12.05 4.85 -11.85 3.7 L-11.75 3.1 Q-12.4 2.35 -12.5 0.95 -16.7 2.95 -18.3 7.3 -19.05 9.35 -20.65 8.2 -20.2 3.2 -15.8 -0.05 -14.0 -1.35 -12.2 -2.1 L-11.55 -2.05 -11.25 -2.1 -11.2 -2.0 -9.3 -1.6 -8.6 -1.15 Q-8.3 0.45 -8.45 1.8 L-8.6 2.65 M-14.95 14.0 Q-14.15 16.05 -16.05 20.55 -17.75 24.7 -19.25 25.65 L-20.4 25.55 -20.55 23.1 Q-20.55 17.1 -14.95 14.0 M-28.15 1.15 Q-26.55 5.1 -26.75 10.45 -26.85 12.1 -28.25 12.8 -30.3 8.75 -29.65 3.25 -29.45 1.65 -28.15 1.15 M-32.55 19.15 Q-32.9 23.9 -40.95 28.2 -48.85 32.45 -49.2 40.05 -51.3 42.2 -54.85 41.95 -54.2 45.35 -54.75 48.7 -55.2 51.25 -57.2 51.05 -57.15 46.65 -56.6 41.6 -56.2 38.25 -52.0 38.75 -49.55 28.7 -38.9 22.7 L-32.55 19.15 M-37.65 44.7 L-37.55 44.7 Q-36.9 44.7 -36.7 45.45 L-36.6 46.9 Q-36.6 48.2 -37.45 49.9 -36.8 50.65 -36.75 51.7 L-37.05 53.45 -37.9 53.55 -38.9 53.3 -39.5 52.75 -40.3 53.2 Q-41.25 51.8 -41.25 50.3 -41.25 48.75 -40.15 46.95 -39.1 45.25 -38.15 44.95 L-39.5 43.45 Q-40.65 45.05 -42.4 46.25 -44.05 47.35 -44.85 48.7 -47.55 53.0 -51.2 73.0 L-51.0 73.55 -50.8 74.8 -51.15 76.0 -51.8 77.65 -52.95 73.9 -53.15 73.0 Q-53.1 72.05 -53.2 71.2 -53.35 70.05 -53.75 69.15 L-53.05 65.7 -52.0 57.5 Q-51.8 53.2 -51.35 53.0 L-50.05 52.9 Q-49.3 52.6 -48.35 49.9 -46.9 45.85 -41.1 40.55 -34.5 34.5 -33.6 33.1 L-32.7 31.45 -35.85 30.95 Q-34.5 28.2 -33.5 24.85 -33.0 23.05 -31.4 22.45 -28.95 24.25 -31.5 26.95 -31.8 27.3 -31.75 28.0 L-31.4 28.65 -31.0 27.65 Q-29.8 24.85 -28.9 24.85 -28.25 24.85 -27.65 25.45 L-26.35 26.8 Q-26.5 22.95 -25.25 29.9 -25.25 30.9 -25.95 32.7 -26.7 34.7 -27.5 35.45 L-28.35 35.9 -29.9 36.8 -32.7 39.5 -35.95 42.35 -36.8 43.2 Q-37.6 44.1 -37.65 44.7 -37.65 44.0 -37.95 44.35 -38.3 44.7 -37.65 44.7 M-28.3 54.0 L-28.1 54.65 -28.05 57.6 Q-28.0 58.6 -27.5 59.3 L-27.6 61.6 Q-27.7 63.25 -28.7 64.4 -32.3 60.6 -31.0 53.85 L-30.85 53.3 Q-31.7 49.45 -29.55 45.95 L-29.0 45.25 -29.0 43.85 Q-28.9 41.9 -27.35 41.35 L-27.05 42.3 Q-28.0 47.55 -28.1 53.0 L-28.1 53.95 -28.3 54.0 M-55.65 7.95 L-54.8 7.4 Q-53.4 13.45 -56.25 20.75 -57.05 22.7 -58.85 23.65 L-58.85 23.5 -59.15 23.85 -59.45 24.2 -59.45 24.3 -59.15 24.05 -59.4 25.4 Q-58.8 31.3 -63.1 36.8 -64.65 38.8 -66.6 39.2 L-66.35 37.1 -66.2 35.15 Q-66.0 32.75 -66.8 31.0 L-67.2 30.2 -66.4 28.95 -65.6 27.85 -65.4 27.35 Q-64.9 26.15 -63.8 25.75 L-63.65 25.6 -62.35 22.45 Q-61.5 20.3 -59.95 19.0 L-58.7 16.3 -58.65 16.2 Q-58.2 13.25 -57.1 10.0 -56.75 9.0 -56.05 8.3 L-56.55 7.85 Q-56.9 7.5 -56.05 7.4 L-55.65 7.95 M-59.65 63.1 Q-60.35 64.75 -61.9 64.3 -62.25 60.5 -60.65 56.45 L-59.75 55.8 -59.4 55.5 -58.9 57.35 Q-59.75 58.35 -59.4 60.1 L-59.1 61.85 -59.65 63.1 M-73.3 50.25 Q-71.85 52.5 -73.7 55.95 -74.25 57.0 -75.3 57.35 -77.45 55.5 -75.7 52.55 L-74.8 50.9 -73.7 50.4 -73.3 50.25 M-82.9 77.85 L-82.7 77.4 Q-79.7 75.9 -77.6 71.6 -76.9 70.15 -75.75 69.7 -75.35 75.25 -80.5 82.35 -81.9 84.2 -84.0 84.85 -86.65 82.8 -84.4 80.05 -84.05 78.8 -82.9 77.85 M-67.8 71.05 Q-67.35 75.2 -69.2 81.05 -69.75 82.85 -71.4 82.5 -72.1 77.75 -69.55 73.25 -68.75 71.9 -67.8 71.05 M-62.7 65.0 Q-60.45 69.0 -63.2 65.65 -63.7 65.05 -62.7 65.0 M-72.6 86.45 Q-71.9 86.65 -71.55 87.3 L-71.4 87.9 Q-72.85 94.65 -76.8 99.85 -77.9 100.4 -78.9 101.1 -78.6 100.2 -78.6 99.45 -75.85 94.4 -74.4 88.95 -73.9 87.15 -72.6 86.45 M-48.2 74.95 L-46.9 76.0 Q-46.35 76.7 -46.35 77.7 L-46.55 79.95 -46.75 80.25 Q-46.9 80.5 -47.5 80.5 -48.25 80.5 -48.85 79.6 -49.45 78.75 -49.45 77.8 -49.45 76.45 -49.1 75.85 L-48.2 74.95 M-58.75 105.2 L-59.25 100.4 -58.9 97.15 -58.2 93.6 -57.8 92.4 -56.7 91.9 -56.4 91.8 -55.55 93.25 Q-55.35 95.45 -55.6 97.7 L-55.65 98.3 -56.25 98.95 -56.2 100.3 Q-55.5 102.05 -55.15 104.15 -54.7 107.2 -55.75 108.55 L-55.8 108.75 -55.85 108.8 -56.45 110.25 -57.3 108.75 -57.55 108.4 -57.7 107.95 -58.15 107.05 -58.75 105.2 M-25.85 52.6 L-25.9 53.05 -25.85 50.85 -25.85 52.6 M-38.5 77.65 Q-38.85 76.55 -38.45 74.85 L-38.2 74.35 -38.0 73.15 Q-37.65 71.6 -36.3 71.15 -34.85 75.05 -35.7 80.6 -35.95 82.25 -37.45 82.95 -38.5 80.55 -38.5 77.65 M-40.15 84.85 Q-38.85 86.65 -37.15 86.2 L-36.3 86.35 Q-35.7 87.75 -36.15 89.25 -36.35 89.85 -36.85 90.25 -40.75 90.1 -40.85 85.65 -40.85 84.9 -40.15 84.85 M-11.4 80.45 L-12.95 83.7 Q-13.65 84.8 -14.95 84.15 -15.55 80.75 -13.65 77.05 -13.15 76.0 -11.9 75.85 -11.1 76.05 -10.75 76.85 L-10.5 77.5 -11.25 80.05 Q-10.2 81.1 -11.4 80.45 M-13.15 100.45 L-12.85 100.65 Q-13.55 98.05 -13.8 94.8 -13.9 93.35 -12.65 93.1 -10.5 96.45 -10.7 101.15 -10.75 102.5 -11.8 103.05 L-12.4 105.15 Q-13.05 103.95 -13.95 103.0 L-14.75 102.0 -14.55 101.6 Q-14.0 100.65 -13.15 100.45 M-14.5 106.75 L-14.5 106.85 Q-15.45 105.8 -15.45 104.6 L-14.5 106.75 M-55.8 124.8 Q-57.95 123.75 -57.95 121.95 L-57.75 119.9 -56.8 119.35 Q-56.05 119.95 -55.65 121.55 -55.2 123.4 -55.65 124.65 L-55.8 124.8" fill="#faffea" fill-rule="evenodd" stroke="none"/>
  </g>
</svg>
