<?xml version="1.0" encoding="UTF-8" standalone="no"?>
<svg xmlns:xlink="http://www.w3.org/1999/xlink" height="326.95px" width="339.95px" xmlns="http://www.w3.org/2000/svg">
  <g transform="matrix(1.0, 0.0, 0.0, 1.0, 162.45, 156.35)">
    <path d="M-25.95 134.9 Q-52.25 156.2 -80.1 165.35 L-86.8 167.3 Q-93.55 169.1 -100.65 170.1 -130.95 169.95 -149.55 138.35 -153.35 131.4 -156.75 122.95 L-157.3 121.0 Q-165.55 92.75 -159.2 59.2 -157.0 47.6 -153.3 35.45 -148.1 18.6 -139.75 0.7 L-138.65 -1.6 Q-105.85 -48.6 -39.7 -74.15 L-27.5 -78.55 -10.25 -84.1 4.1 -88.1 12.5 -89.65 14.55 -89.8 44.95 -92.9 58.65 -94.25 Q67.35 -106.1 64.6 -118.2 63.2 -124.1 59.05 -130.25 54.65 -136.7 47.0 -143.35 L43.2 -146.45 40.9 -148.25 Q36.05 -151.9 29.95 -155.85 L44.95 -153.25 46.5 -152.95 55.9 -150.85 65.75 -148.1 Q73.25 -145.9 80.55 -143.15 89.85 -139.6 98.85 -135.35 105.7 -131.9 112.35 -128.05 136.65 -113.8 157.05 -92.85 L156.3 -105.55 Q181.8 -81.15 175.9 -21.0 175.55 -13.05 173.8 -5.6 170.0 10.6 159.65 24.5 151.5 35.3 139.25 44.7 144.15 34.0 146.5 24.3 149.5 12.3 148.65 2.1 145.6 -32.45 97.35 -45.5 L88.55 -48.15 Q73.7 -52.25 59.45 -54.7 45.3 -57.1 31.65 -57.7 14.2 -58.5 -1.1 -55.7 -20.05 -51.85 -37.65 -44.3 -43.2 -41.95 -48.55 -39.25 L-51.9 -37.45 Q-110.4 -9.75 -126.3 32.0 -131.7 45.5 -133.0 60.1 -134.7 81.35 -130.35 105.0 L-129.85 107.55 -128.6 112.8 Q-118.4 147.85 -91.35 138.25 -86.15 135.4 -81.7 132.05 -72.55 125.25 -65.65 116.75 -60.0 109.8 -55.9 101.75 -25.6 96.6 -25.95 134.9" fill="#72567e" fill-opacity="0.99607843" fill-rule="evenodd" stroke="none"/>
    <path d="M-25.95 134.9 Q-52.25 156.2 -80.1 165.35 L-86.8 167.3 Q-93.55 169.1 -100.65 170.1 -130.95 169.95 -149.55 138.35 -153.35 131.4 -156.75 122.95 L-157.3 121.0 Q-165.55 92.75 -159.2 59.2 -157.0 47.6 -153.3 35.45 -148.1 18.6 -139.75 0.7 L-138.65 -1.6 Q-105.85 -48.6 -39.7 -74.15 L-27.5 -78.55 -10.25 -84.1 4.1 -88.1 12.5 -89.65 14.55 -89.8 44.95 -92.9 58.65 -94.25 Q67.35 -106.1 64.6 -118.2 63.2 -124.1 59.05 -130.25 54.65 -136.7 47.0 -143.35 L43.2 -146.45 40.9 -148.25 Q36.05 -151.9 29.95 -155.85 L44.95 -153.25 46.5 -152.95 55.9 -150.85 65.75 -148.1 Q73.25 -145.9 80.55 -143.15 89.85 -139.6 98.85 -135.35 105.7 -131.9 112.35 -128.05 136.65 -113.8 157.05 -92.85 L156.3 -105.55 Q181.8 -81.15 175.9 -21.0 175.55 -13.05 173.8 -5.6 170.0 10.6 159.65 24.5 151.5 35.3 139.25 44.7 144.15 34.0 146.5 24.3 149.5 12.3 148.65 2.1 145.6 -32.45 97.35 -45.5 L88.55 -48.15 Q73.7 -52.25 59.45 -54.7 45.3 -57.1 31.65 -57.7 14.2 -58.5 -1.1 -55.7 -20.05 -51.85 -37.65 -44.3 -43.2 -41.95 -48.55 -39.25 L-51.9 -37.45 Q-110.4 -9.75 -126.3 32.0 -131.7 45.5 -133.0 60.1 -134.7 81.35 -130.35 105.0 L-129.85 107.55 -128.6 112.8 Q-118.4 147.85 -91.35 138.25 -86.15 135.4 -81.7 132.05 -72.55 125.25 -65.65 116.75 -60.0 109.8 -55.9 101.75 -25.6 96.6 -25.95 134.9 Z" fill="none" stroke="#3f274c" stroke-linecap="round" stroke-linejoin="round" stroke-width="1.0"/>
  </g>
</svg>
