<?xml version="1.0" encoding="UTF-8" standalone="no"?>
<svg xmlns:xlink="http://www.w3.org/1999/xlink" height="72.65px" width="141.8px" xmlns="http://www.w3.org/2000/svg">
  <g transform="matrix(1.0, 0.0, 0.0, 1.0, 70.9, 36.3)">
    <path d="M22.4 23.75 L22.35 23.75 Q19.2 -1.3 34.05 -24.4 49.35 -38.9 67.1 -35.75 32.65 -22.15 22.4 23.75 M-68.1 3.95 Q-63.2 6.85 -57.35 8.9 -49.1 11.85 -38.95 13.1 -33.8 17.3 -30.45 20.6 -26.25 24.7 -24.75 27.45 L-22.0 32.2 Q-59.15 15.15 -68.1 3.95" fill="#e3e4e5" fill-rule="evenodd" stroke="none"/>
    <path d="M22.4 23.75 Q32.65 -22.15 67.1 -35.75 78.4 -9.45 56.1 13.05 40.95 23.5 29.3 24.2 L27.9 24.25 22.4 23.75 M-68.1 3.95 Q-59.15 15.15 -22.0 32.2 -33.6 38.35 -46.75 35.35 -66.95 30.4 -70.9 2.25 L-70.9 2.2 -70.0 2.8 -69.75 2.95 -68.1 3.95 M-70.9 2.25 L-70.0 2.8 -70.9 2.25" fill="#f6f7f8" fill-rule="evenodd" stroke="none"/>
    <path d="M-70.0 2.8 L-69.75 2.95 -68.1 3.95 M-70.0 2.8 L-70.9 2.25" fill="none" stroke="#333333" stroke-linecap="round" stroke-linejoin="miter-clip" stroke-miterlimit="5.0" stroke-width="0.05"/>
  </g>
</svg>
