<?xml version="1.0" encoding="UTF-8" standalone="no"?>
<svg xmlns:xlink="http://www.w3.org/1999/xlink" height="35.45px" width="38.0px" xmlns="http://www.w3.org/2000/svg">
  <g transform="matrix(1.0, 0.0, 0.0, 1.0, 19.0, 17.7)">
    <path d="M18.8 0.05 Q19.95 7.35 15.2 12.55 10.55 17.75 2.7 17.75 -5.1 17.75 -11.4 12.55 -17.65 7.35 -18.8 0.05 -19.9 -7.3 -15.2 -12.5 -10.5 -17.7 -2.7 -17.7 5.15 -17.7 11.4 -12.5 17.7 -7.3 18.8 0.05" fill="url(#gradient0)" fill-rule="evenodd" stroke="none"/>
    <path d="M5.35 -1.2 Q5.35 2.8 3.15 4.9 0.95 7.2 -2.15 6.35 -5.25 5.5 -7.45 2.05 -9.65 -1.3 -9.65 -5.3 -9.65 -9.3 -7.45 -11.5 -5.25 -13.65 -2.15 -12.8 0.95 -11.95 3.15 -8.65 5.35 -5.2 5.35 -1.2" fill="#f7f7f7" fill-rule="evenodd" stroke="none"/>
  </g>
  <defs>
    <radialGradient cx="0" cy="0" gradientTransform="matrix(0.0024, -0.0251, 0.0313, 0.003, -3.75, 10.4)" gradientUnits="userSpaceOnUse" id="gradient0" r="819.2" spreadMethod="pad">
      <stop offset="0.3843137254901961" stop-color="#c2514e"/>
      <stop offset="0.615686274509804" stop-color="#9e392d"/>
    </radialGradient>
  </defs>
</svg>
