<?xml version="1.0" encoding="UTF-8" standalone="no"?>
<svg xmlns:xlink="http://www.w3.org/1999/xlink" height="38.9px" width="36.5px" xmlns="http://www.w3.org/2000/svg">
  <g transform="matrix(1.0, 0.0, 0.0, 1.0, 18.25, 19.45)">
    <path d="M18.25 -4.55 Q18.25 3.3 12.9 10.1 7.55 17.0 0.0 18.9 -7.55 20.75 -12.9 16.5 -18.25 12.35 -18.25 4.5 -18.25 -3.3 -12.9 -10.2 -7.55 -17.0 0.0 -18.85 7.55 -20.75 12.9 -16.55 18.25 -12.35 18.25 -4.55" fill="url(#gradient0)" fill-rule="evenodd" stroke="none"/>
    <path d="M5.85 -1.1 Q6.05 3.05 4.1 5.65 2.25 8.3 -0.65 7.85 -3.55 7.4 -5.75 4.1 -7.9 0.85 -8.15 -3.35 -8.35 -7.55 -6.45 -10.15 -4.6 -12.75 -1.65 -12.3 1.2 -11.8 3.4 -8.55 5.6 -5.3 5.85 -1.1" fill="#f7f7f7" fill-rule="evenodd" stroke="none"/>
  </g>
  <defs>
    <radialGradient cx="0" cy="0" gradientTransform="matrix(0.0235, 0.0136, -0.0231, 0.04, 2.6, 10.35)" gradientUnits="userSpaceOnUse" id="gradient0" r="819.2" spreadMethod="pad">
      <stop offset="0.3843137254901961" stop-color="#c2514e"/>
      <stop offset="0.615686274509804" stop-color="#9e392d"/>
    </radialGradient>
  </defs>
</svg>
