<?xml version="1.0" encoding="UTF-8" standalone="no"?>
<svg xmlns:xlink="http://www.w3.org/1999/xlink" height="65.85px" width="148.8px" xmlns="http://www.w3.org/2000/svg">
  <g transform="matrix(1.0, 0.0, 0.0, 1.0, 69.8, 16.85)">
    <path d="M75.35 -11.0 Q81.25 -1.6 77.6 10.65 73.8 22.8 57.7 35.3 40.85 44.15 28.85 43.3 L27.35 43.2 21.8 42.05 Q45.25 -5.05 75.35 -11.0 M-69.8 8.15 Q-41.05 13.15 -29.15 48.25 L-39.0 48.85 Q-46.05 48.2 -51.4 46.55 -56.8 44.8 -63.15 36.55 -69.45 28.3 -69.8 8.15" fill="#f6f7f8" fill-rule="evenodd" stroke="none"/>
    <path d="M75.35 -11.0 Q45.25 -5.05 21.8 42.05 L21.75 42.05 Q19.7 14.0 42.75 -9.95 56.3 -23.25 75.35 -11.0 M-69.8 8.15 Q-53.85 -8.45 -33.5 19.3 -30.6 23.3 -28.7 29.85 L-26.0 38.45 -24.75 41.75 -22.85 46.65 -29.15 48.25 Q-41.05 13.15 -69.8 8.15" fill="#e3e4e5" fill-rule="evenodd" stroke="none"/>
  </g>
</svg>
