<?xml version="1.0" encoding="UTF-8" standalone="no"?>
<svg xmlns:xlink="http://www.w3.org/1999/xlink" height="356.25px" width="314.6px" xmlns="http://www.w3.org/2000/svg">
  <g transform="matrix(1.0, 0.0, 0.0, 1.0, 155.6, 166.45)">
    <path d="M158.4 -151.7 Q134.0 -151.55 110.35 -147.05 55.3 -136.65 3.5 -102.75 -16.7 -89.5 -35.6 -70.75 L-36.1 -70.3 Q-51.15 -60.35 -65.85 -45.05 -73.05 -34.0 -76.95 -18.55 -80.05 -9.1 -81.9 -0.4 -86.1 18.3 -84.95 33.55 -87.05 37.55 -93.25 37.75 -88.8 39.25 -84.2 40.0 L-65.15 39.45 Q-71.25 61.45 -60.85 77.35 L-60.35 78.1 -58.8 80.25 -58.55 80.15 -54.7 85.15 -64.6 83.0 -64.8 83.0 -67.5 82.5 Q-73.45 78.65 -85.15 76.7 L-97.95 76.85 -98.3 76.9 -108.7 78.3 -117.8 79.8 Q-127.1 92.05 -138.3 97.2 L-138.35 97.2 Q-155.4 77.6 -155.0 33.55 -120.7 -82.9 6.45 -137.95 61.25 -161.5 158.4 -151.7 M-49.35 27.75 Q-40.4 21.45 -31.85 16.3 37.8 -25.7 80.75 7.65 92.1 16.4 100.6 25.0 L47.45 84.0 Q43.9 85.9 42.5 89.3 41.0 92.65 38.9 99.7 35.3 113.9 31.9 117.2 31.15 123.15 43.95 120.55 56.65 120.25 66.5 116.4 77.05 111.3 85.75 104.25 91.0 123.1 84.75 134.0 67.0 156.35 34.65 133.15 29.95 131.25 28.25 136.9 L25.6 142.9 Q14.65 141.8 8.45 144.35 L7.65 144.7 Q11.05 132.35 14.7 125.4 20.45 113.2 16.55 104.55 L12.85 96.95 -49.35 27.75 M38.05 187.0 Q27.7 189.7 16.9 189.05 5.3 177.2 19.0 168.75 13.5 165.85 13.3 157.8 L17.2 158.0 Q20.2 157.65 22.55 155.55 28.8 171.55 38.05 187.0" fill="#58698e" fill-rule="evenodd" stroke="none"/>
    <path d="M-36.1 -70.3 L-44.35 -61.65 Q-61.4 -43.3 -76.95 -18.55 -73.05 -34.0 -65.85 -45.05 -51.15 -60.35 -36.1 -70.3 M-84.95 33.55 L-84.2 40.0 Q-88.8 39.25 -93.25 37.75 -87.05 37.55 -84.95 33.55 M125.55 74.4 Q125.35 79.05 124.1 83.5 L117.1 114.95 Q114.1 131.65 105.7 140.1 L92.05 152.05 91.65 152.4 85.7 157.25 Q48.75 177.3 51.8 177.6 L44.2 185.0 38.05 187.0 Q28.8 171.55 22.55 155.55 L22.8 155.3 Q30.3 147.55 29.2 143.35 L25.6 142.9 28.25 136.9 Q29.95 131.25 34.65 133.15 67.0 156.35 84.75 134.0 91.0 123.1 85.75 104.25 77.05 111.3 66.5 116.4 56.65 120.25 43.95 120.55 L43.9 119.3 Q46.55 117.5 49.55 116.95 59.4 117.6 73.1 110.45 78.3 106.4 81.05 101.35 83.85 96.25 84.75 88.65 85.4 82.65 85.3 77.85 L125.55 74.4 M-98.3 76.9 Q-103.8 77.75 -108.95 80.3 -115.55 83.4 -121.75 89.1 -126.95 94.3 -138.3 97.2 -127.1 92.05 -117.8 79.8 L-108.7 78.3 -98.3 76.9" fill="#465a7d" fill-rule="evenodd" stroke="none"/>
    <path d="M-65.15 39.45 Q-57.1 33.2 -49.35 27.75 L12.85 96.95 16.55 104.55 Q20.45 113.2 14.7 125.4 11.05 132.35 7.65 144.7 L-2.4 148.75 Q-2.1 150.5 0.25 152.25 L0.3 152.3 Q2.3 153.7 5.85 155.2 L12.1 157.45 13.3 157.8 Q13.5 165.85 19.0 168.75 5.3 177.2 16.9 189.05 7.4 188.45 -2.4 185.15 -9.75 182.0 -16.15 178.9 -21.95 159.55 -23.65 142.15 -23.4 136.0 -29.85 134.0 -42.5 128.0 -49.75 118.25 -56.35 109.0 -60.8 93.6 L-61.0 92.9 -61.1 92.5 -62.25 89.1 Q-63.4 86.05 -66.05 83.55 L-67.5 82.5 -64.8 83.0 -64.6 83.0 -54.7 85.15 -58.55 80.15 -58.8 80.25 -60.35 78.1 -60.85 77.35 Q-71.25 61.45 -65.15 39.45 M-155.0 33.55 Q-154.75 20.55 -153.1 5.4 -148.95 -32.3 -118.45 -69.55 -98.4 -94.1 -65.1 -119.35 -29.0 -139.95 4.7 -151.45 90.25 -170.25 158.4 -151.7 61.25 -161.5 6.45 -137.95 -120.7 -82.9 -155.0 33.55 M-8.4 123.7 L-10.1 119.3 -11.25 116.35 -13.65 108.6 Q-15.4 102.7 -18.0 99.1 -23.35 91.75 -28.35 87.9 -40.45 78.5 -50.65 89.05 -50.35 107.15 -44.65 114.6 -40.45 120.05 -36.75 122.35 L-34.1 123.6 Q-29.25 125.1 -22.95 125.75 -16.65 126.3 -8.4 123.7 L-6.7 126.75 -8.4 123.7" fill="#7886ab" fill-rule="evenodd" stroke="none"/>
    <path d="M4.7 -151.45 Q34.25 -161.5 62.0 -164.55 107.85 -169.55 148.8 -155.35 L158.4 -151.7 Q90.25 -170.25 4.7 -151.45 M-16.15 178.9 Q-26.45 173.8 -34.4 168.7 L-36.75 166.8 Q-50.4 155.55 -55.5 146.7 -56.9 144.4 -57.8 132.75 L-57.85 122.25 -58.5 110.35 Q-59.0 103.9 -59.8 98.7 L-60.8 93.6 Q-56.35 109.0 -49.75 118.25 -42.5 128.0 -29.85 134.0 -23.4 136.0 -23.65 142.15 -21.95 159.55 -16.15 178.9" fill="#8d9ec0" fill-rule="evenodd" stroke="none"/>
    <path d="M100.6 25.0 L104.0 28.55 Q112.15 37.3 117.25 45.85 126.05 60.55 125.55 74.4 L85.3 77.85 85.2 75.35 Q84.85 70.9 82.3 69.85 70.1 64.5 60.95 73.45 54.2 80.45 50.15 87.9 48.45 90.85 47.25 93.85 42.95 104.45 43.8 115.9 L43.9 119.25 43.9 119.3 43.95 120.55 Q31.15 123.15 31.9 117.2 35.3 113.9 38.9 99.7 41.0 92.65 42.5 89.3 43.9 85.9 47.45 84.0 L100.6 25.0 M85.7 157.25 L81.9 160.2 Q72.7 167.3 63.55 173.45 L54.75 179.1 Q50.3 181.85 45.8 184.4 L44.2 185.0 51.8 177.6 Q48.75 177.3 85.7 157.25" fill="#415474" fill-rule="evenodd" stroke="none"/>
    <path d="M43.8 115.9 L48.4 116.85 49.55 116.95 Q46.55 117.5 43.9 119.3 L43.9 119.25 43.8 115.9 M25.6 142.9 L29.2 143.35 Q30.3 147.55 22.8 155.3 L22.55 155.55 Q20.2 157.65 17.2 158.0 L13.3 157.8 12.1 157.45 5.85 155.2 Q2.3 153.7 0.3 152.3 L0.25 152.25 Q-2.1 150.5 -2.4 148.75 L7.65 144.7 8.45 144.35 Q14.65 141.8 25.6 142.9" fill="#333333" fill-rule="evenodd" stroke="none"/>
    <path d="M4.7 -151.45 Q34.25 -161.5 62.0 -164.55 107.85 -169.55 148.8 -155.35 L158.4 -151.7 Q134.0 -151.55 110.35 -147.05 55.3 -136.65 3.5 -102.75 -16.7 -89.5 -35.6 -70.75 M-36.1 -70.3 L-44.35 -61.65 Q-61.4 -43.3 -76.95 -18.55 -80.05 -9.1 -81.9 -0.4 -86.1 18.3 -84.95 33.55 L-84.2 40.0 -65.15 39.45 Q-57.1 33.2 -49.35 27.75 -40.4 21.45 -31.85 16.3 37.8 -25.7 80.75 7.65 92.1 16.4 100.6 25.0 L104.0 28.55 Q112.15 37.3 117.25 45.85 126.05 60.55 125.55 74.4 125.35 79.05 124.1 83.5 L117.1 114.95 Q114.1 131.65 105.7 140.1 L92.05 152.05 M91.65 152.4 L85.7 157.25 81.9 160.2 Q72.7 167.3 63.55 173.45 L54.75 179.1 Q50.3 181.85 45.8 184.4 M-2.4 185.15 Q-9.75 182.0 -16.15 178.9 -26.45 173.8 -34.4 168.7 L-36.75 166.8 Q-50.4 155.55 -55.5 146.7 -56.9 144.4 -57.8 132.75 L-57.85 122.25 -58.5 110.35 Q-59.0 103.9 -59.8 98.7 L-60.8 93.6 -61.0 92.9 -61.1 92.5 -62.25 89.1 Q-63.4 86.05 -66.05 83.55 L-67.5 82.5 Q-73.45 78.65 -85.15 76.7 L-97.95 76.85 -98.3 76.9 Q-103.8 77.75 -108.95 80.3 -115.55 83.4 -121.75 89.1 -126.95 94.3 -138.3 97.2 L-138.35 97.2 Q-155.4 77.6 -155.0 33.55 -154.75 20.55 -153.1 5.4 -148.95 -32.3 -118.45 -69.55 -98.4 -94.1 -65.1 -119.35 -29.0 -139.95 4.7 -151.45 M-8.4 123.7 L-10.1 119.3 -11.25 116.35 -13.65 108.6 Q-15.4 102.7 -18.0 99.1 -23.35 91.75 -28.35 87.9 -40.45 78.5 -50.65 89.05 -50.35 107.15 -44.65 114.6 -40.45 120.05 -36.75 122.35 L-34.1 123.6 Q-29.25 125.1 -22.95 125.75 -16.65 126.3 -8.4 123.7 L-6.7 126.75 M-93.25 37.75 Q-88.8 39.25 -84.2 40.0 M-98.3 76.9 L-108.7 78.3 -117.8 79.8 M49.55 116.95 Q59.4 117.6 73.1 110.45 78.3 106.4 81.05 101.35 83.85 96.25 84.75 88.65 85.4 82.65 85.3 77.85 L85.2 75.35 Q84.85 70.9 82.3 69.85 70.1 64.5 60.95 73.45 54.2 80.45 50.15 87.9 48.45 90.85 47.25 93.85 42.95 104.45 43.8 115.9 L48.4 116.85 49.55 116.95 M47.45 84.0 Q43.9 85.9 42.5 89.3 41.0 92.65 38.9 99.7" fill="none" stroke="#333333" stroke-linecap="round" stroke-linejoin="miter-clip" stroke-miterlimit="5.0" stroke-width="1.2000000000000002"/>
    <path d="M45.8 184.4 L44.2 185.0 38.05 187.0 Q27.7 189.7 16.9 189.05 7.4 188.45 -2.4 185.15" fill="none" stroke="#333333" stroke-linecap="round" stroke-linejoin="round" stroke-width="1.2000000000000002"/>
    <path d="M43.2 115.9 L43.15 115.8 Q43.25 115.25 43.8 115.25 L44.25 115.45 44.35 115.85 44.35 119.25 44.3 119.45 44.3 120.5 Q44.4 120.9 43.95 120.9 43.55 121.0 43.55 120.55 L43.5 120.35 43.45 119.45 43.4 119.25 43.2 115.9 M-7.2 127.0 L-7.25 126.95 Q-7.45 126.4 -6.95 126.15 L-6.45 126.15 -6.15 126.45 -5.7 127.5 -5.65 127.65 -5.65 127.8 -5.1 130.05 -4.9 131.75 -4.9 131.95 -4.85 132.15 -4.75 135.35 -4.8 135.45 -4.9 135.4 -5.05 134.55 -5.1 134.0 -5.45 132.2 -5.45 132.0 -6.1 129.45 -6.7 127.9 -6.85 127.7 -7.2 127.0 M-65.95 -45.1 L-65.75 -45.15 -65.7 -44.95 -67.05 -42.65 -67.3 -42.3 -70.05 -36.95 -73.9 -27.15 -74.8 -24.25 -74.85 -24.0 -74.95 -23.75 -76.35 -18.4 -76.35 -18.35 Q-76.55 -17.8 -77.1 -17.95 L-77.45 -18.2 -77.5 -18.65 -77.0 -20.5 -75.9 -24.05 -75.85 -24.3 -74.1 -29.25 -70.85 -36.65 -67.85 -42.1 -67.75 -42.3 -67.6 -42.5 -65.95 -45.1" fill="#333333" fill-rule="evenodd" stroke="none"/>
  </g>
</svg>
