<?xml version="1.0" encoding="UTF-8" standalone="no"?>
<svg xmlns:xlink="http://www.w3.org/1999/xlink" height="323.65px" width="341.25px" xmlns="http://www.w3.org/2000/svg">
  <g transform="matrix(1.0, 0.0, 0.0, 1.0, 162.1, 153.5)">
    <path d="M-26.1 134.9 Q-52.55 156.05 -80.4 165.05 L-87.15 166.95 Q-93.95 168.75 -101.05 169.65 -131.35 169.3 -149.7 137.5 -153.45 130.55 -156.75 122.1 L-157.3 120.1 Q-165.25 91.75 -158.5 58.25 -156.25 46.7 -152.35 34.55 -146.95 17.85 -138.4 0.0 L-137.25 -2.3 Q-104.0 -48.95 -37.0 -73.1 L-24.7 -77.2 Q-16.2 -79.95 -7.35 -82.4 L7.15 -86.1 15.65 -87.4 17.7 -87.5 48.2 -89.6 61.95 -90.55 Q71.05 -102.0 68.65 -114.25 67.4 -120.25 63.5 -126.5 59.25 -133.1 51.85 -140.0 L48.15 -143.2 45.9 -145.05 Q41.2 -148.95 35.2 -153.0 L50.1 -149.95 51.65 -149.55 60.95 -147.2 70.75 -144.15 Q78.2 -141.65 85.4 -138.7 94.55 -134.85 103.4 -130.3 L116.7 -122.65 Q140.5 -107.55 160.25 -86.0 L159.9 -98.7 Q184.6 -73.55 176.8 -13.6 176.15 -5.65 174.25 1.7 169.9 17.85 159.1 31.35 150.7 41.95 138.1 50.9 143.35 40.35 146.0 30.75 149.4 18.85 148.85 8.65 146.9 -26.0 99.1 -40.6 L90.35 -43.5 Q75.65 -48.15 61.5 -51.0 47.35 -53.75 33.75 -54.85 16.35 -56.2 1.15 -53.8 -17.8 -50.4 -35.6 -43.2 -41.15 -40.95 -46.6 -38.35 L-50.0 -36.65 Q-109.1 -10.15 -125.3 31.45 -130.85 44.9 -132.35 59.45 -134.3 80.7 -130.25 104.35 L-129.7 106.9 -128.55 112.15 Q-118.65 147.25 -91.5 137.9 -86.25 135.05 -81.8 131.75 -72.65 125.0 -65.7 116.55 -60.05 109.65 -55.85 101.6 -25.55 96.65 -26.1 134.9" fill="#72567e" fill-opacity="0.99607843" fill-rule="evenodd" stroke="none"/>
    <path d="M-26.1 134.9 Q-52.55 156.05 -80.4 165.05 L-87.15 166.95 Q-93.95 168.75 -101.05 169.65 -131.35 169.3 -149.7 137.5 -153.45 130.55 -156.75 122.1 L-157.3 120.1 Q-165.25 91.75 -158.5 58.25 -156.25 46.7 -152.35 34.55 -146.95 17.85 -138.4 0.0 L-137.25 -2.3 Q-104.0 -48.95 -37.0 -73.1 L-24.7 -77.2 Q-16.2 -79.95 -7.35 -82.4 L7.15 -86.1 15.65 -87.4 17.7 -87.5 48.2 -89.6 61.95 -90.55 Q71.05 -102.0 68.65 -114.25 67.4 -120.25 63.5 -126.5 59.25 -133.1 51.85 -140.0 L48.15 -143.2 45.9 -145.05 Q41.2 -148.95 35.2 -153.0 L50.1 -149.95 51.65 -149.55 60.95 -147.2 70.75 -144.15 Q78.2 -141.65 85.4 -138.7 94.55 -134.85 103.4 -130.3 L116.7 -122.65 Q140.5 -107.55 160.25 -86.0 L159.9 -98.7 Q184.6 -73.55 176.8 -13.6 176.15 -5.65 174.25 1.7 169.9 17.85 159.1 31.35 150.7 41.95 138.1 50.9 143.35 40.35 146.0 30.75 149.4 18.85 148.85 8.65 146.9 -26.0 99.1 -40.6 L90.35 -43.5 Q75.65 -48.15 61.5 -51.0 47.35 -53.75 33.75 -54.85 16.35 -56.2 1.15 -53.8 -17.8 -50.4 -35.6 -43.2 -41.15 -40.95 -46.6 -38.35 L-50.0 -36.65 Q-109.1 -10.15 -125.3 31.45 -130.85 44.9 -132.35 59.45 -134.3 80.7 -130.25 104.35 L-129.7 106.9 -128.55 112.15 Q-118.65 147.25 -91.5 137.9 -86.25 135.05 -81.8 131.75 -72.65 125.0 -65.7 116.55 -60.05 109.65 -55.85 101.6 -25.55 96.65 -26.1 134.9 Z" fill="none" stroke="#3f274c" stroke-linecap="round" stroke-linejoin="round" stroke-width="1.0"/>
  </g>
</svg>
