<?xml version="1.0" encoding="UTF-8" standalone="no"?>
<svg xmlns:xlink="http://www.w3.org/1999/xlink" height="239.6px" width="241.55px" xmlns="http://www.w3.org/2000/svg">
  <g transform="matrix(1.0, 0.0, 0.0, 1.0, 77.95, 49.9)">
    <path d="M25.75 -43.95 Q73.3 -42.65 105.2 -21.5 118.7 -13.1 129.1 -2.25 132.45 1.4 139.8 5.05 137.2 6.5 132.45 3.05 145.5 17.05 152.2 34.3 159.5 53.05 161.45 75.85 162.55 83.1 162.9 89.95 158.8 124.2 152.5 127.6 148.35 130.85 149.05 137.5 150.5 133.45 152.4 132.4 151.65 138.6 147.6 147.75 L143.45 153.35 Q131.85 170.85 114.6 177.55 109.5 179.0 101.85 187.7 102.4 184.45 105.6 179.9 L105.3 180.15 Q103.9 181.4 98.35 182.2 L99.8 180.95 Q89.15 182.15 80.2 181.0 107.6 169.05 117.35 153.7 124.65 141.05 104.75 111.15 109.4 109.75 112.85 113.7 107.75 100.1 90.9 93.0 83.9 84.85 75.15 85.25 66.4 85.6 48.25 88.65 49.7 90.35 48.0 90.5 46.25 90.6 41.6 93.7 36.9 96.8 31.4 97.35 25.9 97.85 21.45 98.9 17.0 99.9 18.3 100.6 L13.05 100.8 6.3 100.4 Q10.8 102.7 9.85 103.8 3.1 102.3 -1.45 102.5 L-7.8 103.1 Q-9.6 103.45 -17.0 103.2 -10.55 104.25 -10.35 107.4 -21.35 106.9 -27.75 102.7 -25.3 104.65 -26.85 105.75 -31.65 102.1 -35.45 101.2 L-35.45 101.1 Q-44.55 98.25 -51.6 94.25 -57.7 90.8 -62.4 86.6 L-62.8 86.15 -66.55 82.25 Q-69.65 78.5 -71.75 74.4 L-72.2 73.5 Q-62.55 68.2 -59.0 60.85 -46.2 51.6 -40.05 33.0 -49.25 41.35 -52.65 37.0 -40.4 27.5 -35.95 9.6 -41.5 11.6 -39.0 9.2 L-25.15 -4.55 Q-19.7 -10.1 -13.15 -11.25 L-18.05 -3.45 -20.3 0.7 Q-27.6 14.9 -28.0 28.95 L-28.0 33.85 Q-27.4 47.15 -20.75 60.3 L-17.9 65.3 -16.55 67.15 Q-11.75 72.95 -7.0 67.2 L-5.55 65.1 Q-3.45 59.15 -2.0 53.05 0.15 43.85 1.15 34.25 1.65 28.35 1.65 22.3 10.15 88.45 45.75 75.0 60.4 68.1 69.4 65.5 67.8 58.85 58.65 54.3 38.55 50.35 82.75 53.2 84.35 50.2 72.4 45.6 105.2 49.75 118.2 41.7 119.7 32.75 98.9 19.45 90.45 12.3 126.25 23.15 127.6 12.7 103.65 -5.35 108.5 -8.25 121.6 -1.85 81.4 -37.5 10.85 -37.15 16.15 -41.0 25.75 -43.95 M0.85 98.1 L6.0 100.25 6.3 100.4 6.0 100.25 0.85 98.1" fill="#dde2ed" fill-rule="evenodd" stroke="none"/>
    <path d="M-72.2 73.5 Q-81.5 55.55 -73.95 32.25 -69.4 10.2 -57.15 -6.15 -43.2 -24.85 -31.2 -30.95 -19.25 -37.05 -7.35 -45.25 -6.65 -41.5 -9.6 -38.85 12.15 -54.2 3.35 -41.9 19.2 -48.75 29.3 -49.3 31.5 -46.6 25.75 -43.95 16.15 -41.0 10.85 -37.15 81.4 -37.5 121.6 -1.85 108.5 -8.25 103.65 -5.35 127.6 12.7 126.25 23.15 90.45 12.3 98.9 19.45 119.7 32.75 118.2 41.7 105.2 49.75 72.4 45.6 84.35 50.2 82.75 53.2 38.55 50.35 58.65 54.3 67.8 58.85 69.4 65.5 60.4 68.1 45.75 75.0 10.15 88.45 1.65 22.3 1.65 13.05 0.5 3.45 -0.5 -5.1 -2.55 -13.75 -4.3 -21.15 -9.45 -15.9 L-11.5 -13.55 -13.15 -11.25 Q-19.7 -10.1 -25.15 -4.55 L-39.0 9.2 Q-41.5 11.6 -35.95 9.6 -40.4 27.5 -52.65 37.0 -49.25 41.35 -40.05 33.0 -46.2 51.6 -59.0 60.85 -62.55 68.2 -72.2 73.5 M80.2 181.0 L87.1 174.2 Q85.05 175.65 83.55 175.95 L96.85 161.65 Q109.05 142.25 102.8 123.3 98.65 103.7 90.9 93.0 107.75 100.1 112.85 113.7 109.4 109.75 104.75 111.15 124.65 141.05 117.35 153.7 107.6 169.05 80.2 181.0" fill="#f6f7f8" fill-rule="evenodd" stroke="none"/>
    <path d="M-13.15 -11.25 L-11.5 -13.55 -9.45 -15.9 Q-4.3 -21.15 -2.55 -13.75 -0.5 -5.1 0.5 3.45 1.65 13.05 1.65 22.3 1.65 28.35 1.15 34.25 -4.4 56.45 -10.95 58.35 L-13.2 58.4 Q-20.1 56.7 -28.0 33.85 L-28.0 28.95 Q-27.6 14.9 -20.3 0.7 L-18.05 -3.45 -13.15 -11.25 M-17.5 12.55 Q-14.5 44.65 -12.45 35.7 -12.5 13.75 -8.7 -9.15 -16.75 3.9 -17.5 12.55" fill="#7886ab" fill-rule="evenodd" stroke="none"/>
    <path d="M162.9 89.95 Q164.05 116.65 153.35 138.0 L153.2 138.15 Q150.5 145.1 148.85 153.3 145.5 152.05 147.6 147.8 L147.6 147.75 Q151.65 138.6 152.4 132.4 150.5 133.45 149.05 137.5 148.35 130.85 152.5 127.6 158.8 124.2 162.9 89.95" fill="#bbc1da" fill-rule="evenodd" stroke="none"/>
    <path d="M-17.5 12.55 Q-16.75 3.9 -8.7 -9.15 -12.5 13.75 -12.45 35.7 -14.5 44.65 -17.5 12.55" fill="#8d9ec0" fill-rule="evenodd" stroke="none"/>
    <path d="M-28.0 33.85 Q-20.1 56.7 -13.2 58.4 L-10.95 58.35 Q-4.4 56.45 1.15 34.25 0.15 43.85 -2.0 53.05 -3.45 59.15 -5.55 65.1 L-7.0 67.2 Q-11.75 72.95 -16.55 67.15 L-17.9 65.3 -20.75 60.3 Q-27.4 47.15 -28.0 33.85" fill="#58698e" fill-rule="evenodd" stroke="none"/>
    <path d="M-72.2 73.5 Q-81.5 55.55 -73.95 32.25 -69.4 10.2 -57.15 -6.15 -43.2 -24.85 -31.2 -30.95 -19.25 -37.05 -7.35 -45.25 -6.65 -41.5 -9.6 -38.85 12.15 -54.2 3.35 -41.9 19.2 -48.75 29.3 -49.3 31.5 -46.6 25.75 -43.95 73.3 -42.65 105.2 -21.5 118.7 -13.1 129.1 -2.25 M132.45 3.05 Q145.5 17.05 152.2 34.3 159.5 53.05 161.45 75.85 162.55 83.1 162.9 89.95 164.05 116.65 153.35 138.0 M147.6 147.75 L143.45 153.35 Q131.85 170.85 114.6 177.55 M96.85 161.65 Q109.05 142.25 102.8 123.3 98.65 103.7 90.9 93.0 83.9 84.85 75.15 85.25 66.4 85.6 48.25 88.65 49.7 90.35 48.0 90.5 46.25 90.6 41.6 93.7 36.9 96.8 31.4 97.35 25.9 97.85 21.45 98.9 17.0 99.9 18.3 100.6 L13.05 100.8 6.3 100.4 M-1.45 102.5 L-7.8 103.1 Q-9.6 103.45 -17.0 103.2 M-35.45 101.2 L-35.45 101.1 Q-44.55 98.25 -51.6 94.25 -57.7 90.8 -62.4 86.6 L-62.8 86.15 -66.55 82.25 Q-69.65 78.5 -71.75 74.4 L-72.2 73.5 M-13.15 -11.25 L-11.5 -13.55 -9.45 -15.9 Q-4.3 -21.15 -2.55 -13.75 -0.5 -5.1 0.5 3.45 1.65 13.05 1.65 22.3 1.65 28.35 1.15 34.25 0.15 43.85 -2.0 53.05 -3.45 59.15 -5.55 65.1 L-7.0 67.2 Q-11.75 72.95 -16.55 67.15 L-17.9 65.3 -20.75 60.3 Q-27.4 47.15 -28.0 33.85 L-28.0 28.95 Q-27.6 14.9 -20.3 0.7 L-18.05 -3.45 -13.15 -11.25" fill="none" stroke="#333333" stroke-linecap="round" stroke-linejoin="miter-clip" stroke-miterlimit="5.0" stroke-width="1.2000000000000002"/>
    <path d="M129.1 -2.25 Q132.45 1.4 139.8 5.05 137.2 6.5 132.45 3.05 M153.35 138.0 L153.2 138.15 Q150.5 145.1 148.85 153.3 145.5 152.05 147.6 147.8" fill="none" stroke="#333333" stroke-linecap="round" stroke-linejoin="round" stroke-width="1.2000000000000002"/>
    <path d="M114.6 177.55 Q109.5 179.0 101.85 187.7 102.4 184.45 105.6 179.9 L105.3 180.15 Q103.9 181.4 98.35 182.2 L99.8 180.95 Q89.15 182.15 80.2 181.0 L87.1 174.2 Q85.05 175.65 83.55 175.95 L96.85 161.65 M6.3 100.4 Q10.8 102.7 9.85 103.8 3.1 102.3 -1.45 102.5 M-17.0 103.2 Q-10.55 104.25 -10.35 107.4 -21.35 106.9 -27.75 102.7 -25.3 104.65 -26.85 105.75 -31.65 102.1 -35.45 101.2 M6.3 100.4 L6.0 100.25 0.85 98.1" fill="none" stroke="#333333" stroke-linecap="round" stroke-linejoin="miter-clip" stroke-miterlimit="6.0" stroke-width="1.2000000000000002"/>
  </g>
</svg>
