<?xml version="1.0" encoding="UTF-8" standalone="no"?>
<svg xmlns:xlink="http://www.w3.org/1999/xlink" height="24.55px" width="54.95px" xmlns="http://www.w3.org/2000/svg">
  <g transform="matrix(1.0, 0.0, 0.0, 1.0, 27.45, 11.95)">
    <path d="M-15.25 0.4 L-14.9 0.7 Q-13.4 2.05 -11.45 2.35 L-11.45 2.3 -11.4 2.35 -10.85 3.55 -10.75 3.55 -10.6 3.75 -9.65 5.3 Q-6.5 10.1 -2.65 11.8 L-3.9 11.95 -5.95 11.75 Q-11.55 11.1 -17.15 9.05 L-26.45 5.6 -26.85 5.45 -26.55 2.4 Q-25.5 -6.1 -20.45 -6.7 L-17.0 -6.3 -16.9 -6.3 Q-18.45 -5.35 -18.65 -4.25 L-18.65 -4.2 -18.4 -2.85 Q-18.15 -1.85 -17.3 -1.45 L-16.8 -1.2 -15.25 0.4 M12.3 -11.45 L11.45 -11.15 11.35 -11.2 12.3 -11.45 M-18.65 -4.25 Q-19.15 -5.45 -17.0 -6.3 -19.15 -5.45 -18.65 -4.25 M-11.4 2.35 L-11.45 2.35 -11.4 2.35" fill="#7886ab" fill-rule="evenodd" stroke="none"/>
    <path d="M15.0 -6.95 L14.2 -8.7 13.5 -10.3 12.2 -10.05 Q8.1 -9.25 11.45 -11.15 L12.3 -11.45 Q22.2 -13.8 25.85 -4.85 L25.4 -4.65 25.85 -4.85 26.9 -1.1 21.2 4.75 Q16.0 8.85 9.3 10.55 7.05 10.4 5.55 4.75 L5.5 4.5 5.5 4.45 5.45 4.5 5.0 2.5 Q7.7 1.4 10.65 -0.45 13.6 -2.35 14.35 -3.15 15.05 -3.95 15.05 -6.8 L15.0 -6.95 Q15.05 -8.0 14.2 -8.7 15.05 -8.0 15.0 -6.95" fill="#465a7d" fill-rule="evenodd" stroke="none"/>
    <path d="M11.25 -9.85 L11.35 -9.8 Q13.3 -9.45 14.2 -8.7 L15.0 -6.95 14.95 -6.7 Q14.95 -4.65 14.1 -3.4 13.25 -2.2 8.35 0.85 L5.8 2.15 Q1.95 3.8 -2.3 3.65 L-9.75 2.9 -11.4 2.35 -11.45 2.3 -11.45 2.35 Q-13.75 1.5 -14.9 0.7 L-15.25 0.4 -15.25 0.3 Q-15.4 -2.05 -11.85 -6.85 L-11.8 -7.0 Q-9.05 -7.5 -6.45 -8.4 -4.35 -9.45 -1.85 -9.0 L11.25 -9.85 M0.15 2.35 L0.0 2.5 0.85 2.4 1.9 2.2 2.35 1.75 2.3 1.6 1.9 1.75 1.0 2.05 0.15 2.35 M-0.1 -8.0 L-1.3 -7.2 -1.95 -5.1 Q-2.55 -3.1 -3.8 -2.2 -2.65 -2.8 -1.7 -4.05 -0.6 -5.55 -0.1 -8.0 M-13.0 0.65 Q-10.4 2.75 -4.9 2.7 L-2.1 2.4 -2.05 2.35 -7.35 2.05 Q-11.15 1.55 -13.0 0.65" fill="url(#gradient0)" fill-rule="evenodd" stroke="none"/>
    <path d="M-11.45 2.3 L-11.4 2.35 Q-9.3 3.55 -6.45 3.9 L-4.9 4.0 -3.35 4.0 Q1.5 3.85 5.0 2.5 L5.45 4.5 5.5 4.45 5.5 4.5 5.55 4.75 Q7.05 10.4 9.3 10.55 L8.95 10.6 -2.65 11.8 Q-6.5 10.1 -9.65 5.3 L-10.6 3.75 -10.75 3.55 -10.85 3.55 -11.4 2.35 -11.45 2.3" fill="#58698e" fill-rule="evenodd" stroke="none"/>
    <path d="M0.15 2.35 L1.0 2.05 1.9 1.75 2.3 1.6 2.35 1.75 1.9 2.2 0.85 2.4 0.0 2.5 0.15 2.35 M-13.0 0.65 Q-11.15 1.55 -7.35 2.05 L-2.05 2.35 -2.1 2.4 -4.9 2.7 Q-10.4 2.75 -13.0 0.65" fill="#f9d0c1" fill-rule="evenodd" stroke="none"/>
    <path d="M-11.85 -6.85 Q-15.4 -2.05 -15.25 0.3 L-15.25 0.4 -16.8 -1.2 -17.3 -1.45 Q-18.15 -1.85 -18.4 -2.85 L-18.65 -4.2 -18.65 -4.25 Q-18.45 -5.35 -16.9 -6.3 L-16.55 -6.5 -16.1 -6.7 -11.7 -7.25 -11.8 -7.0 -11.85 -6.85 M-16.55 -6.5 L-16.2 -6.6 -11.8 -7.0 -16.2 -6.6 -16.55 -6.5 M-17.4 -1.9 L-18.65 -4.2 -17.4 -1.9 -16.8 -1.2 -17.4 -1.9" fill="#873a44" fill-rule="evenodd" stroke="none"/>
    <path d="M-0.1 -8.0 Q-0.6 -5.55 -1.7 -4.05 -2.65 -2.8 -3.8 -2.2 -2.55 -3.1 -1.95 -5.1 L-1.3 -7.2 -0.1 -8.0" fill="#ad4b56" fill-rule="evenodd" stroke="none"/>
    <path d="M11.25 -9.85 L-1.85 -9.0 Q-4.35 -9.45 -6.45 -8.4 -9.05 -7.5 -11.8 -7.0 L-11.85 -6.85 Q-15.4 -2.05 -15.25 0.3 L-15.25 0.4 M14.95 -6.7 L15.0 -6.95 Q15.05 -8.0 14.2 -8.7 13.3 -9.45 11.35 -9.8 M-17.0 -6.3 L-17.0 -6.35 -16.55 -6.5 -16.2 -6.6 -11.8 -7.0 M-18.65 -4.25 L-18.65 -4.2 -17.4 -1.9 M-17.0 -6.3 Q-19.15 -5.45 -18.65 -4.25" fill="none" stroke="#333333" stroke-linecap="round" stroke-linejoin="round" stroke-width="1.2000000000000002"/>
    <path d="M-15.25 0.4 L-14.9 0.7 Q-13.75 1.5 -11.45 2.35 L-11.4 2.35 -9.75 2.9 -2.3 3.65 Q1.95 3.8 5.8 2.15 L8.35 0.85 Q13.25 -2.2 14.1 -3.4 14.95 -4.65 14.95 -6.7 M9.3 10.55 Q16.0 8.85 21.2 4.75 L26.9 -1.1 M-3.9 11.95 L-2.3 12.0 7.5 10.95 8.95 10.6 9.3 10.55 M-3.9 11.95 L-5.95 11.75 Q-11.55 11.1 -17.15 9.05 L-26.45 5.6 -26.85 5.45 M-17.4 -1.9 L-16.8 -1.2 -15.25 0.4" fill="none" stroke="#333333" stroke-linecap="round" stroke-linejoin="miter-clip" stroke-miterlimit="5.0" stroke-width="1.2000000000000002"/>
    <path d="M12.15 -9.4 L11.85 -9.45 11.75 -9.35 Q11.35 -8.9 10.9 -9.35 L10.95 -9.4 11.1 -9.5 11.2 -9.65 11.25 -9.75 11.2 -9.85 11.25 -9.95 11.25 -10.0 11.45 -10.1 11.55 -10.1 Q11.6 -10.6 12.05 -10.6 L12.85 -10.7 13.25 -10.7 13.35 -10.75 13.65 -10.75 17.1 -11.2 17.2 -11.15 17.15 -11.05 13.85 -9.9 13.65 -9.85 13.6 -9.8 13.5 -9.8 13.4 -9.75 12.15 -9.4" fill="#333333" fill-rule="evenodd" stroke="none"/>
  </g>
  <defs>
    <linearGradient gradientTransform="matrix(0.0011, -0.0075, 0.0114, 9.0E-4, -1.75, -1.7)" gradientUnits="userSpaceOnUse" id="gradient0" spreadMethod="pad" x1="-819.2" x2="819.2">
      <stop offset="0.5450980392156862" stop-color="#ee6878"/>
      <stop offset="1.0" stop-color="#b64f5b"/>
    </linearGradient>
  </defs>
</svg>
