<?xml version="1.0" encoding="UTF-8" standalone="no"?>
<svg xmlns:xlink="http://www.w3.org/1999/xlink" height="63.05px" width="144.3px" xmlns="http://www.w3.org/2000/svg">
  <g transform="matrix(1.0, 0.0, 0.0, 1.0, 72.55, 30.75)">
    <path d="M24.55 24.0 Q23.5 20.6 22.95 17.75 22.05 12.2 23.75 4.05 24.4 0.65 25.45 -2.35 26.55 -5.6 28.05 -8.45 L28.9 -9.9 Q31.1 -13.55 33.95 -16.55 37.55 -21.0 44.75 -27.95 49.4 -32.45 58.8 -29.75 62.15 -28.8 68.2 -25.8 74.2 -22.85 70.0 -7.85 67.9 2.3 59.25 9.7 55.3 0.05 44.3 -1.55 36.65 1.55 32.15 5.8 26.05 11.6 24.6 24.25 L24.55 24.0" fill="#415474" fill-rule="evenodd" stroke="none"/>
    <path d="M24.6 24.25 Q26.05 11.6 32.15 5.8 36.65 1.55 44.3 -1.55 55.3 0.05 59.25 9.7 47.75 19.5 24.6 24.25 M-52.35 -13.25 Q-45.95 -10.6 -37.55 -4.45 -23.65 5.6 -25.7 30.8 -66.9 37.2 -71.95 -3.0 -57.85 25.9 -40.55 27.4 -30.65 13.85 -52.35 -13.25" fill="#58698e" fill-rule="evenodd" stroke="none"/>
    <path d="M-71.95 -3.0 Q-69.15 -20.3 -52.35 -13.25 -30.65 13.85 -40.55 27.4 -57.85 25.9 -71.95 -3.0" fill="#7886ab" fill-rule="evenodd" stroke="none"/>
    <path d="M24.55 24.0 L24.6 24.25 Q47.75 19.5 59.25 9.7 67.9 2.3 70.0 -7.85 M-25.7 30.8 Q-66.9 37.2 -71.95 -3.0" fill="none" stroke="#333333" stroke-linecap="round" stroke-linejoin="round" stroke-width="1.2000000000000002"/>
  </g>
</svg>
