<?xml version="1.0" encoding="UTF-8" standalone="no"?>
<svg xmlns:xlink="http://www.w3.org/1999/xlink" height="26.75px" width="54.95px" xmlns="http://www.w3.org/2000/svg">
  <g transform="matrix(1.0, 0.0, 0.0, 1.0, 27.45, 13.1)">
    <path d="M11.45 -11.15 L11.35 -11.2 12.3 -11.45 11.45 -11.15 M-15.15 3.05 Q-13.7 4.8 -9.65 6.55 -7.45 10.75 -2.3 13.05 L-5.95 12.8 Q-11.55 12.1 -17.15 9.8 L-26.85 5.85 Q-26.45 -5.95 -20.45 -6.7 L-16.9 -6.3 Q-19.05 -5.05 -18.55 -3.4 L-17.3 -0.15 -15.15 3.05" fill="#7886ab" fill-rule="evenodd" stroke="none"/>
    <path d="M5.9 5.5 L8.45 3.65 Q13.35 -0.55 14.2 -2.25 15.05 -3.95 15.05 -6.8 15.45 -10.15 11.45 -11.15 L12.3 -11.45 Q23.9 -14.2 26.9 -1.4 L21.2 5.1 Q16.0 9.6 9.3 11.45 6.65 11.3 5.9 5.5" fill="#465a7d" fill-rule="evenodd" stroke="none"/>
    <path d="M15.05 -6.8 Q15.05 -3.95 14.2 -2.25 13.35 -0.55 8.45 3.65 L5.9 5.5 Q2.05 7.8 -2.2 7.6 -7.95 7.3 -9.65 6.55 -13.7 4.8 -15.15 3.05 -15.4 -0.2 -11.7 -7.25 -8.95 -7.9 -6.35 -9.15 -4.25 -10.65 -1.75 -10.0 5.6 -9.85 11.35 -11.2 L11.45 -11.15 Q15.45 -10.15 15.05 -6.8 M0.25 5.75 Q-0.1 6.05 0.1 6.0 L0.95 5.85 Q1.7 5.8 2.0 5.55 L2.45 4.95 2.4 4.75 Q2.3 4.65 2.0 4.95 L1.1 5.35 Q0.5 5.45 0.25 5.75 M0.0 -8.6 L-1.2 -7.5 -1.85 -4.6 Q-2.45 -1.8 -3.7 -0.55 -2.55 -1.4 -1.6 -3.15 -0.5 -5.2 0.0 -8.6 M-12.9 3.4 Q-10.3 6.35 -4.8 6.25 L-2.0 5.85 -1.95 5.75 -7.25 5.35 Q-11.05 4.65 -12.9 3.4" fill="url(#gradient0)" fill-rule="evenodd" stroke="none"/>
    <path d="M-11.7 -7.25 Q-15.4 -0.2 -15.15 3.05 L-17.3 -0.15 -18.55 -3.4 Q-19.05 -5.05 -16.9 -6.3 L-16.1 -6.7 -11.7 -7.25" fill="#873a44" fill-rule="evenodd" stroke="none"/>
    <path d="M0.0 -8.6 Q-0.5 -5.2 -1.6 -3.15 -2.55 -1.4 -3.7 -0.55 -2.45 -1.8 -1.85 -4.6 L-1.2 -7.5 0.0 -8.6" fill="#ad4b56" fill-rule="evenodd" stroke="none"/>
    <path d="M0.25 5.75 Q0.5 5.45 1.1 5.35 L2.0 4.95 Q2.3 4.65 2.4 4.75 L2.45 4.95 2.0 5.55 Q1.7 5.8 0.95 5.85 L0.1 6.0 Q-0.1 6.05 0.25 5.75 M-12.9 3.4 Q-11.05 4.65 -7.25 5.35 L-1.95 5.75 -2.0 5.85 -4.8 6.25 Q-10.3 6.35 -12.9 3.4" fill="#f9d0c1" fill-rule="evenodd" stroke="none"/>
    <path d="M-9.65 6.55 Q-7.95 7.3 -2.2 7.6 2.05 7.8 5.9 5.5 6.65 11.3 9.3 11.45 L7.5 11.9 Q2.05 13.05 -2.3 13.05 -7.45 10.75 -9.65 6.55" fill="#58698e" fill-rule="evenodd" stroke="none"/>
    <path d="M15.05 -6.8 Q15.45 -10.15 11.45 -11.15 L12.3 -11.45 M11.35 -11.2 Q5.6 -9.85 -1.75 -10.0 -4.25 -10.65 -6.35 -9.15 -8.95 -7.9 -11.7 -7.25 -15.4 -0.2 -15.15 3.05 M-11.7 -7.25 L-16.1 -6.7 -16.9 -6.3 Q-19.05 -5.05 -18.55 -3.4 L-17.3 -0.15" fill="none" stroke="#333333" stroke-linecap="round" stroke-linejoin="round" stroke-width="1.2000000000000002"/>
    <path d="M5.9 5.5 L8.45 3.65 Q13.35 -0.55 14.2 -2.25 15.05 -3.95 15.05 -6.8 M-15.15 3.05 Q-13.7 4.8 -9.65 6.55 -7.95 7.3 -2.2 7.6 2.05 7.8 5.9 5.5 M9.3 11.45 Q16.0 9.6 21.2 5.1 L26.9 -1.4 M-2.3 13.05 Q2.05 13.05 7.5 11.9 L9.3 11.45 M-17.3 -0.15 L-15.15 3.05 M-26.85 5.85 L-17.15 9.8 Q-11.55 12.1 -5.95 12.8 L-2.3 13.05" fill="none" stroke="#333333" stroke-linecap="round" stroke-linejoin="miter-clip" stroke-miterlimit="5.0" stroke-width="1.2000000000000002"/>
    <path d="M11.35 -11.35 L11.65 -11.5 11.7 -11.75 12.1 -12.0 17.2 -13.05 17.3 -13.0 17.25 -12.9 12.45 -10.85 12.35 -10.8 11.95 -10.8 11.85 -10.7 Q11.45 -10.25 11.0 -10.7 L11.05 -10.75 11.2 -10.85 11.3 -11.0 11.35 -11.1 11.3 -11.2 11.35 -11.3 11.35 -11.35" fill="#333333" fill-rule="evenodd" stroke="none"/>
  </g>
  <defs>
    <linearGradient gradientTransform="matrix(0.0011, -0.0104, 0.0114, 0.0012, -1.65, 0.15)" gradientUnits="userSpaceOnUse" id="gradient0" spreadMethod="pad" x1="-819.2" x2="819.2">
      <stop offset="0.5450980392156862" stop-color="#ee6878"/>
      <stop offset="1.0" stop-color="#b64f5b"/>
    </linearGradient>
  </defs>
</svg>
