<?xml version="1.0" encoding="UTF-8" standalone="no"?>
<svg xmlns:xlink="http://www.w3.org/1999/xlink" height="320.2px" width="342.6px" xmlns="http://www.w3.org/2000/svg">
  <g transform="matrix(1.0, 0.0, 0.0, 1.0, 161.8, 150.5)">
    <path d="M-26.25 134.95 Q-52.8 155.95 -80.75 164.8 L-87.5 166.65 Q-94.3 168.3 -101.45 169.2 -131.65 168.6 -149.85 136.7 -153.6 129.65 -156.8 121.2 L-157.3 119.2 Q-165.0 90.8 -157.8 57.3 -155.4 45.85 -151.35 33.7 -145.8 17.05 -137.0 -0.7 L-135.85 -2.95 Q-102.1 -49.3 -34.35 -71.95 L-22.0 -75.85 -4.5 -80.65 10.15 -84.05 18.75 -85.1 20.85 -85.1 51.4 -86.25 65.1 -86.75 Q74.55 -98.0 72.55 -110.25 71.5 -116.3 67.8 -122.65 63.85 -129.4 56.6 -136.5 L53.0 -139.8 50.8 -141.75 Q46.25 -145.8 40.35 -150.0 L55.2 -146.5 56.75 -146.1 65.95 -143.4 75.65 -140.05 Q83.0 -137.35 90.1 -134.15 99.1 -130.0 107.85 -125.2 114.45 -121.35 120.85 -117.1 144.2 -101.35 163.25 -79.15 L163.3 -91.8 Q187.25 -65.9 177.5 -6.25 176.6 1.7 174.45 9.0 169.6 25.0 158.4 38.15 149.65 48.45 136.75 57.0 142.3 46.65 145.3 37.1 149.05 25.35 148.85 15.1 148.05 -19.55 100.7 -35.65 L92.05 -38.85 Q77.5 -43.95 63.45 -47.25 49.35 -50.45 35.85 -52.0 18.45 -53.85 3.35 -51.9 -15.6 -48.9 -33.6 -42.05 L-44.65 -37.45 -48.1 -35.85 Q-107.7 -10.65 -124.3 30.9 -130.0 44.25 -131.65 58.8 -133.8 80.05 -130.05 103.7 L-129.6 106.3 -128.5 111.5 Q-118.8 146.7 -91.65 137.5 -86.3 134.75 -81.95 131.45 -72.7 124.8 -65.75 116.35 -60.05 109.45 -55.8 101.45 -25.4 96.65 -26.25 134.95" fill="#72567e" fill-opacity="0.99607843" fill-rule="evenodd" stroke="none"/>
    <path d="M-26.25 134.95 Q-52.8 155.95 -80.75 164.8 L-87.5 166.65 Q-94.3 168.3 -101.45 169.2 -131.65 168.6 -149.85 136.7 -153.6 129.65 -156.8 121.2 L-157.3 119.2 Q-165.0 90.8 -157.8 57.3 -155.4 45.85 -151.35 33.7 -145.8 17.05 -137.0 -0.7 L-135.85 -2.95 Q-102.1 -49.3 -34.35 -71.95 L-22.0 -75.85 -4.5 -80.65 10.15 -84.05 18.75 -85.1 20.85 -85.1 51.4 -86.25 65.1 -86.75 Q74.55 -98.0 72.55 -110.25 71.5 -116.3 67.8 -122.65 63.85 -129.4 56.6 -136.5 L53.0 -139.8 50.8 -141.75 Q46.25 -145.8 40.35 -150.0 L55.2 -146.5 56.75 -146.1 65.95 -143.4 75.65 -140.05 Q83.0 -137.35 90.1 -134.15 99.1 -130.0 107.85 -125.2 114.45 -121.35 120.85 -117.1 144.2 -101.35 163.25 -79.15 L163.3 -91.8 Q187.25 -65.9 177.5 -6.25 176.6 1.7 174.45 9.0 169.6 25.0 158.4 38.15 149.65 48.45 136.75 57.0 142.3 46.65 145.3 37.1 149.05 25.35 148.85 15.1 148.05 -19.55 100.7 -35.65 L92.05 -38.85 Q77.5 -43.95 63.45 -47.25 49.35 -50.45 35.85 -52.0 18.45 -53.85 3.35 -51.9 -15.6 -48.9 -33.6 -42.05 L-44.65 -37.45 -48.1 -35.85 Q-107.7 -10.65 -124.3 30.9 -130.0 44.25 -131.65 58.8 -133.8 80.05 -130.05 103.7 L-129.6 106.3 -128.5 111.5 Q-118.8 146.7 -91.65 137.5 -86.3 134.75 -81.95 131.45 -72.7 124.8 -65.75 116.35 -60.05 109.45 -55.8 101.45 -25.4 96.65 -26.25 134.95 Z" fill="none" stroke="#3f274c" stroke-linecap="round" stroke-linejoin="round" stroke-width="1.0"/>
  </g>
</svg>
