<?xml version="1.0" encoding="UTF-8" standalone="no"?>
<svg xmlns:xlink="http://www.w3.org/1999/xlink" height="88.0px" width="114.1px" xmlns="http://www.w3.org/2000/svg">
  <g transform="matrix(1.0, 0.0, 0.0, 1.0, 61.2, 40.95)">
    <path d="M43.45 -28.8 L43.45 -28.75 43.45 -28.7 43.65 -28.45 46.55 -23.5 48.85 -17.9 50.35 -11.15 50.45 -10.2 50.45 -9.85 50.55 -7.35 50.5 -5.1 50.2 -2.45 50.2 -2.3 49.9 -0.9 49.8 -0.55 49.7 -0.5 Q49.55 -0.5 49.65 -0.6 L49.3 -9.75 47.2 -18.85 46.8 -20.05 45.9 -22.35 43.25 -28.65 43.25 -28.75 43.45 -28.8 M-51.7 -0.35 L-51.9 -1.65 -52.15 -7.45 -51.45 -12.8 -50.75 -15.6 -48.5 -20.85 -45.55 -24.95 -44.8 -25.7 -44.65 -25.9 -41.9 -28.3 -41.75 -28.3 -41.75 -28.15 -42.4 -27.5 -42.45 -27.4 -43.9 -25.65 -44.05 -25.5 -47.0 -21.2 -47.05 -21.05 -47.15 -20.9 -49.55 -15.25 -50.2 -12.9 -50.25 -12.55 -50.75 -9.9 -51.4 -4.1 -51.4 -3.6 -51.45 -3.2 -51.55 -0.4 -51.6 -0.3 -51.7 -0.35" fill="#333333" fill-rule="evenodd" stroke="none"/>
    <path d="M-42.4 -27.5 L-29.85 -34.05 -24.45 -28.55 Q-39.5 -23.3 -42.6 -7.45 -42.75 5.8 -38.6 19.0 -27.1 27.1 -17.35 22.05 -18.55 10.3 -16.4 6.9 L7.7 -26.85 Q10.75 -26.25 15.8 -15.85 20.8 -5.55 18.0 12.0 16.7 20.05 14.35 25.45 13.0 37.55 35.5 24.0 50.6 -1.75 35.25 -40.95 L43.45 -28.8 43.25 -28.75 43.25 -28.65 45.9 -22.35 46.8 -20.05 47.2 -18.85 49.3 -9.75 49.65 -0.6 Q49.55 -0.5 49.7 -0.5 L49.8 -0.55 49.9 -0.9 Q52.05 11.95 51.2 21.75 L51.2 22.05 Q50.2 29.35 52.9 37.3 48.5 44.25 39.9 45.85 -4.85 52.85 -51.7 19.15 L-61.2 11.1 Q-51.25 10.0 -51.7 -0.15 L-51.7 -0.35 -51.6 -0.3 -51.55 -0.4 -51.45 -3.2 -51.4 -3.6 -51.4 -4.1 -50.75 -9.9 -50.25 -12.55 -50.2 -12.9 -49.55 -15.25 -47.15 -20.9 -47.05 -21.05 -47.0 -21.2 -44.05 -25.5 -43.9 -25.65 -42.45 -27.4 -42.4 -27.5 M43.45 -28.75 L43.65 -28.45 43.45 -28.7 43.45 -28.75" fill="#dde2ed" fill-rule="evenodd" stroke="none"/>
    <path d="M1.8 -14.35 Q6.1 -10.2 3.75 7.25 L0.75 26.7 Q0.4 28.55 -1.1 30.85 -3.1 32.15 -6.6 30.5 -7.9 28.85 -8.15 25.4 L-7.8 10.55 Q-7.3 -2.55 -1.45 -10.7 L-0.85 -11.55 Q0.15 -13.1 1.6 -14.5 L1.8 -14.35" fill="url(#gradient0)" fill-rule="evenodd" stroke="none"/>
    <path d="M5.5 -12.1 Q3.7 -12.65 2.2 -17.1 3.2 -18.35 3.5 -19.25 L4.3 -17.35 Q4.95 -15.75 5.5 -12.1 M-6.8 23.55 L-6.15 9.05 Q-5.85 3.95 -4.25 -3.7 -1.65 -8.65 -1.0 -7.75 -4.4 -0.65 -4.7 10.75 L-4.9 23.7 Q-4.75 26.7 -4.0 28.15 L-5.45 27.1 -6.8 23.55 M0.9 -10.95 Q2.55 -11.1 3.3 -8.2 4.5 9.3 2.95 22.3 L0.95 27.05 -0.8 28.45 Q0.1 26.45 0.3 24.85 L2.05 7.9 Q3.4 -7.3 0.9 -10.95" fill="#d75e6c" fill-rule="evenodd" stroke="none"/>
    <path d="M3.5 -19.25 Q3.2 -18.35 2.2 -17.1 3.7 -12.65 5.5 -12.1 7.05 -1.9 7.1 6.95 6.45 13.15 2.95 22.3 4.5 9.3 3.3 -8.2 2.55 -11.1 0.9 -10.95 L0.8 -11.05 -0.65 -8.5 -1.0 -7.75 Q-1.65 -8.65 -4.25 -3.7 -5.85 3.95 -6.15 9.05 L-6.8 23.55 Q-10.45 13.45 -9.75 8.85 -7.6 -3.0 -5.05 -10.9 L1.3 -20.55 Q2.8 -20.95 3.5 -19.25 M-0.85 -14.75 Q-4.4 -10.5 -6.6 -0.35 L-1.0 -10.75 Q2.65 -15.6 -0.85 -14.75" fill="#ee6878" fill-rule="evenodd" stroke="none"/>
    <path d="M-0.85 -14.75 Q2.65 -15.6 -1.0 -10.75 L-6.6 -0.35 Q-4.4 -10.5 -0.85 -14.75" fill="#fa8686" fill-rule="evenodd" stroke="none"/>
    <path d="M2.7 -22.2 L1.3 -20.55" fill="none" stroke="#3f274c" stroke-linecap="round" stroke-linejoin="round" stroke-width="1.0"/>
    <path d="M4.75 -17.5 Q4.95 -17.05 4.45 -16.85 3.95 -16.65 3.8 -17.15 L3.1 -19.0 3.05 -19.05 3.05 -19.1 3.0 -19.2 3.0 -19.25 2.95 -19.25 2.9 -19.35 2.85 -19.5 2.85 -19.55 2.7 -19.7 2.65 -19.8 2.5 -19.95 2.3 -20.1 2.2 -20.15 2.1 -20.15 2.0 -20.2 1.55 -20.2 1.6 -20.3 1.35 -20.15 1.5 -20.2 1.55 -20.2 -4.95 -10.8 -5.1 -10.8 -5.1 -10.95 0.95 -20.75 1.15 -20.9 1.2 -20.9 1.35 -20.95 1.55 -20.95 1.6 -21.0 2.1 -21.0 2.45 -20.9 3.15 -20.5 3.25 -20.35 3.4 -20.25 3.5 -20.1 3.55 -20.0 3.6 -19.95 3.8 -19.65 3.8 -19.55 3.85 -19.5 3.9 -19.4 3.9 -19.35 4.0 -19.2 4.75 -17.5 M2.7 -24.25 L2.85 -24.2 3.0 -24.05 3.15 -23.75 3.25 -23.35 3.25 -22.5 3.2 -22.35 3.2 -22.2 3.15 -22.05 3.15 -21.95 3.05 -21.8 Q2.8 -21.4 2.35 -21.65 1.95 -21.95 2.2 -22.4 L2.4 -22.6 2.45 -22.75 2.55 -22.9 2.75 -23.55 2.75 -23.95 2.7 -24.05 2.7 -24.25" fill="#3f274c" fill-rule="evenodd" stroke="none"/>
    <path d="M-5.2 28.15 Q-2.3 29.6 -3.3 28.25 9.4 4.2 4.1 -15.8 L3.75 -17.95 Q3.05 -18.75 2.3 -20.55 L-0.2 -17.8 Q-5.25 -5.65 -6.0 0.3 L-7.45 12.05 Q-8.2 17.75 -5.2 28.15 M10.25 -26.85 Q17.55 -13.65 19.35 6.8 16.9 20.95 7.4 29.35 1.85 31.35 -3.0 31.8 -8.55 32.4 -13.5 30.15 -21.0 21.65 -21.5 6.9 -19.45 -1.4 -15.65 -9.3 -4.25 -28.55 -0.55 -28.0 4.25 -28.75 10.25 -26.85" fill="url(#gradient1)" fill-rule="evenodd" stroke="none"/>
    <path d="M10.25 -26.85 Q4.25 -28.75 -0.55 -28.0 -4.25 -28.55 -15.65 -9.3 -19.45 -1.4 -21.5 6.9 -21.0 21.65 -13.5 30.15 -8.55 32.4 -3.0 31.8 1.85 31.35 7.4 29.35 16.9 20.95 19.35 6.8 17.55 -13.65 10.25 -26.85 Z" fill="none" stroke="#3f274c" stroke-linecap="round" stroke-linejoin="round" stroke-width="1.2000000000000002"/>
  </g>
  <defs>
    <radialGradient cx="0" cy="0" gradientTransform="matrix(-0.0021, 0.0329, 0.0091, 3.0E-4, -2.25, 13.45)" gradientUnits="userSpaceOnUse" id="gradient0" r="819.2" spreadMethod="pad">
      <stop offset="0.5019607843137255" stop-color="#6c2f37"/>
      <stop offset="1.0" stop-color="#d75e6c"/>
    </radialGradient>
    <radialGradient cx="0" cy="0" gradientTransform="matrix(0.0256, 0.0015, -0.005, 0.0436, 0.1, 6.8)" gradientUnits="userSpaceOnUse" id="gradient1" r="819.2" spreadMethod="pad">
      <stop offset="0.3607843137254902" stop-color="#ee6878"/>
      <stop offset="0.6470588235294118" stop-color="#4d6084"/>
      <stop offset="0.9411764705882353" stop-color="#7886ab"/>
    </radialGradient>
  </defs>
</svg>
