<?xml version="1.0" encoding="UTF-8" standalone="no"?>
<svg xmlns:xlink="http://www.w3.org/1999/xlink" height="94.2px" width="112.1px" xmlns="http://www.w3.org/2000/svg">
  <g transform="matrix(1.0, 0.0, 0.0, 1.0, 55.8, 40.95)">
    <path d="M10.35 -26.85 Q13.1 -26.25 17.5 -15.85 21.95 -5.55 19.5 12.0 17.0 29.5 9.85 34.55 7.45 36.55 4.9 37.4 L0.45 37.35 9.1 -24.85 10.35 -26.85 M50.2 -28.45 L50.0 -28.7 Q50.0 -28.9 49.85 -28.75 L49.85 -28.65 52.25 -22.35 53.0 -20.05 53.35 -18.85 55.2 -9.75 55.55 -0.6 Q55.45 -0.5 55.6 -0.5 L55.65 -0.55 55.75 -0.9 Q54.35 26.8 46.9 53.25 L46.9 52.15 37.9 31.9 37.9 30.55 Q59.0 5.85 42.8 -40.95 L50.2 -28.45 M-55.45 -0.35 L-55.35 -0.3 -55.3 -0.4 -55.2 -3.2 -55.15 -3.6 -55.15 -4.1 -54.6 -9.9 -54.1 -12.55 -54.05 -12.9 -53.95 -13.2 -53.95 -13.55 -52.05 -19.45 -51.4 -20.9 -51.3 -21.05 -51.25 -21.2 -48.7 -25.5 -48.55 -25.65 -47.2 -27.4 -47.15 -27.5 -36.1 -34.05 -31.3 -28.55 Q-44.6 -23.3 -47.35 -7.45 -47.55 10.35 -43.0 19.15 L-55.45 19.15 -55.45 -0.35 M-18.05 33.0 Q-21.2 11.65 -18.5 6.9 L1.55 -24.85 -6.85 36.15 -3.15 36.55 -3.3 37.35 1.15 37.4 Q-3.8 39.0 -9.25 36.3 L-14.1 35.7 -18.05 33.0" fill="#dde2ed" fill-rule="evenodd" stroke="none"/>
    <path d="M50.2 -28.45 L51.0 -27.1 52.6 -23.75 52.75 -23.5 54.8 -17.9 56.1 -11.15 56.2 -10.2 56.2 -9.85 56.3 -7.35 56.25 -5.1 56.0 -2.45 56.0 -2.3 55.95 -2.1 55.75 -0.9 55.65 -0.55 55.6 -0.5 Q55.45 -0.5 55.55 -0.6 L55.2 -9.75 53.35 -18.85 53.0 -20.05 52.25 -22.35 49.85 -28.65 49.85 -28.75 Q50.0 -28.9 50.0 -28.7 L50.2 -28.45 M-47.15 -27.5 L-47.2 -27.4 -48.55 -25.65 -48.7 -25.5 -51.25 -21.2 -51.3 -21.05 -51.4 -20.9 -52.05 -19.45 -53.95 -13.55 -53.95 -13.2 -54.05 -12.9 -54.1 -12.55 -54.6 -9.9 -55.15 -4.1 -55.15 -3.6 -55.2 -3.2 -55.3 -0.4 -55.35 -0.3 -55.45 -0.35 -55.6 -1.65 -55.8 -7.45 -55.2 -12.8 -54.6 -15.6 -52.55 -20.85 -49.95 -24.95 -48.75 -26.4 -46.75 -28.3 -46.6 -28.3 -46.6 -28.15 -47.15 -27.5" fill="#333333" fill-rule="evenodd" stroke="none"/>
    <path d="M-0.7 32.1 Q-13.35 31.9 -18.1 25.05 -22.9 18.15 -22.3 11.2 -21.8 4.25 -19.8 -0.05 -17.9 -4.5 -16.2 -7.25 -14.75 -10.05 -6.3 -14.45 2.25 -18.85 6.7 -18.45 11.1 -18.1 17.2 -9.6 23.25 -1.1 23.05 10.85 22.75 22.8 17.35 27.6 11.9 32.3 -0.7 32.1" fill="url(#gradient0)" fill-rule="evenodd" stroke="none"/>
    <path d="M16.75 -24.5 Q24.05 -11.3 25.85 9.15 23.4 23.3 13.9 31.7 8.35 33.7 3.5 34.15 L2.2 34.25 Q-12.25 32.8 -16.6 30.8 -24.1 22.3 -24.6 7.55 -22.55 -0.75 -18.75 -8.65 -7.35 -27.9 -3.6 -27.9 L10.25 -27.3 Q12.9 -26.85 16.75 -24.5 M-8.3 27.0 L3.7 29.6 3.75 29.65 Q15.8 6.15 10.6 -13.45 L10.25 -15.6 Q9.9 -17.2 8.7 -17.55 L6.95 -18.2 Q3.9 -18.25 2.35 -17.55 0.7 -16.85 -0.1 -16.75 -0.9 -16.7 -2.1 -15.9 -8.35 -5.0 -9.1 0.95 L-10.55 12.7 Q-11.3 18.4 -8.3 27.0" fill="url(#gradient1)" fill-rule="evenodd" stroke="none"/>
    <path d="M16.75 -24.5 Q12.9 -26.85 10.25 -27.3 L-3.6 -27.9 Q-7.35 -27.9 -18.75 -8.65 -22.55 -0.75 -24.6 7.55 -24.1 22.3 -16.6 30.8 -12.25 32.8 2.2 34.25 L3.5 34.15 Q8.35 33.7 13.9 31.7 23.4 23.3 25.85 9.15 24.05 -11.3 16.75 -24.5 Z" fill="none" stroke="#3f274c" stroke-linecap="round" stroke-linejoin="round" stroke-width="1.2000000000000002"/>
  </g>
  <defs>
    <radialGradient cx="0" cy="0" gradientTransform="matrix(0.0015, -0.0291, 0.0267, 0.0014, 0.65, 13.6)" gradientUnits="userSpaceOnUse" id="gradient0" r="819.2" spreadMethod="pad">
      <stop offset="0.0" stop-color="#38181b"/>
      <stop offset="0.10588235294117647" stop-color="#56252a"/>
      <stop offset="0.3333333333333333" stop-color="#56252a"/>
      <stop offset="0.5019607843137255" stop-color="#6c2f37"/>
      <stop offset="1.0" stop-color="#d75e6c"/>
    </radialGradient>
    <radialGradient cx="0" cy="0" gradientTransform="matrix(0.0299, 0.0018, -0.005, 0.0436, 1.25, 6.35)" gradientUnits="userSpaceOnUse" id="gradient1" r="819.2" spreadMethod="pad">
      <stop offset="0.3607843137254902" stop-color="#ee6878"/>
      <stop offset="0.6470588235294118" stop-color="#4d6084"/>
      <stop offset="0.9411764705882353" stop-color="#7886ab"/>
    </radialGradient>
  </defs>
</svg>
