<?xml version="1.0" encoding="UTF-8" standalone="no"?>
<svg xmlns:xlink="http://www.w3.org/1999/xlink" height="94.2px" width="118.7px" xmlns="http://www.w3.org/2000/svg">
  <g transform="matrix(1.0, 0.0, 0.0, 1.0, 59.1, 40.95)">
    <path d="M10.95 -26.85 Q13.85 -26.25 18.55 -15.85 23.25 -5.55 20.65 12.0 18.0 29.5 10.45 34.55 7.9 36.55 5.2 37.4 L0.5 37.35 9.65 -24.85 10.95 -26.85 M53.15 -28.45 L52.95 -28.7 52.8 -28.75 52.8 -28.65 55.3 -22.35 56.1 -20.05 56.5 -18.85 58.45 -9.75 58.8 -0.6 Q58.7 -0.5 58.85 -0.5 L58.95 -0.55 59.05 -0.9 Q57.55 26.8 49.65 53.25 L49.65 52.15 40.15 31.9 40.15 30.55 Q62.45 5.85 45.3 -40.95 L53.15 -28.45 M-58.7 -0.35 L-58.6 -0.3 -58.55 -0.4 -58.45 -3.2 -58.4 -3.6 -58.4 -4.1 -57.8 -9.9 -57.3 -12.55 -57.25 -12.9 -57.15 -13.2 -57.1 -13.55 -56.65 -15.25 -55.1 -19.45 -54.4 -20.9 -54.3 -21.05 -54.25 -21.2 -51.55 -25.5 -51.4 -25.65 -50.0 -27.4 -49.95 -27.5 -38.2 -34.05 -33.15 -28.55 Q-47.25 -23.3 -50.15 -7.45 -50.35 10.35 -45.55 19.15 -54.85 9.6 -56.4 10.5 -59.0 7.65 -58.7 -0.35 M-19.1 33.0 Q-22.45 11.65 -19.6 6.9 L1.65 -24.85 -7.25 36.15 -3.35 36.55 -3.5 37.35 1.2 37.4 Q-4.0 39.0 -9.8 36.3 L-14.95 35.7 -19.1 33.0" fill="#dde2ed" fill-rule="evenodd" stroke="none"/>
    <path d="M59.05 -0.9 L58.95 -0.55 58.85 -0.5 Q58.7 -0.5 58.8 -0.6 L58.45 -9.75 56.5 -18.85 56.1 -20.05 55.3 -22.35 52.8 -28.65 52.8 -28.75 52.95 -28.7 53.15 -28.45 54.0 -27.1 55.7 -23.75 55.85 -23.5 58.0 -17.9 59.4 -11.15 59.5 -10.2 59.5 -9.85 59.6 -7.35 59.55 -5.1 59.3 -2.45 59.3 -2.3 59.25 -2.1 59.05 -0.9 M-58.7 -0.35 L-58.9 -1.65 -59.1 -7.45 -58.45 -12.8 -57.8 -15.6 -55.65 -20.85 -52.9 -24.95 -52.2 -25.7 -52.05 -25.9 -51.6 -26.4 -49.5 -28.3 -49.35 -28.3 -49.35 -28.15 -49.95 -27.5 -50.0 -27.4 -51.4 -25.65 -51.55 -25.5 -54.25 -21.2 -54.3 -21.05 -54.4 -20.9 -55.1 -19.45 -56.65 -15.25 -57.1 -13.55 -57.15 -13.2 -57.25 -12.9 -57.3 -12.55 -57.8 -9.9 -58.4 -4.1 -58.4 -3.6 -58.45 -3.2 -58.55 -0.4 -58.6 -0.3 -58.7 -0.35" fill="#333333" fill-rule="evenodd" stroke="none"/>
    <path d="M0.65 33.05 Q-14.0 32.85 -19.5 24.9 -25.05 16.95 -24.35 8.9 -23.75 0.85 -21.45 -4.1 -19.25 -9.25 -17.3 -12.45 -15.6 -15.65 -5.85 -20.75 4.05 -25.85 9.2 -25.4 14.3 -25.0 21.35 -15.15 28.35 -5.3 28.1 8.5 27.75 22.3 21.5 27.85 15.2 33.3 0.65 33.05" fill="url(#gradient0)" fill-rule="evenodd" stroke="none"/>
    <path d="M26.3 9.25 Q27.4 -1.9 21.25 -14.4 16.05 -20.95 6.05 -21.3 -1.45 -21.6 -7.5 -18.4 -11.55 -16.0 -18.4 -3.2 -24.25 5.35 -20.9 19.8 -17.7 27.3 -6.15 28.75 7.8 31.2 16.9 26.15 23.8 19.95 26.3 9.25 M26.75 -19.05 Q33.8 -10.6 31.8 9.15 31.15 24.6 18.95 31.7 15.7 33.45 11.35 33.85 L6.3 34.25 -6.95 33.7 Q-18.1 32.45 -21.95 30.8 -32.85 19.6 -30.55 7.55 -28.35 -0.75 -27.05 -4.5 -25.75 -8.3 -24.0 -11.3 -22.3 -14.3 -16.85 -20.95 -11.45 -27.6 -6.05 -30.05 -0.65 -32.5 7.05 -31.15 14.7 -29.85 17.2 -28.65 19.7 -27.5 26.75 -19.05" fill="url(#gradient1)" fill-rule="evenodd" stroke="none"/>
    <path d="M26.75 -19.05 Q19.7 -27.5 17.2 -28.65 14.7 -29.85 7.05 -31.15 -0.65 -32.5 -6.05 -30.05 -11.45 -27.6 -16.85 -20.95 -22.3 -14.3 -24.0 -11.3 -25.75 -8.3 -27.05 -4.5 -28.35 -0.75 -30.55 7.55 -32.85 19.6 -21.95 30.8 -18.1 32.45 -6.95 33.7 L6.3 34.25 11.35 33.85 Q15.7 33.45 18.95 31.7 31.15 24.6 31.8 9.15 33.8 -10.6 26.75 -19.05 Z" fill="none" stroke="#3f274c" stroke-linecap="round" stroke-linejoin="round" stroke-width="1.2000000000000002"/>
  </g>
  <defs>
    <radialGradient cx="0" cy="0" gradientTransform="matrix(0.0017, -0.0336, 0.0309, 0.0016, 2.2, 11.65)" gradientUnits="userSpaceOnUse" id="gradient0" r="819.2" spreadMethod="pad">
      <stop offset="0.0" stop-color="#38181b"/>
      <stop offset="0.10588235294117647" stop-color="#56252a"/>
      <stop offset="0.3333333333333333" stop-color="#56252a"/>
      <stop offset="0.5019607843137255" stop-color="#6c2f37"/>
      <stop offset="1.0" stop-color="#d75e6c"/>
    </radialGradient>
    <radialGradient cx="0" cy="0" gradientTransform="matrix(0.0459, 0.0025, -0.0054, 0.0436, 3.05, 2.0)" gradientUnits="userSpaceOnUse" id="gradient1" r="819.2" spreadMethod="pad">
      <stop offset="0.5882352941176471" stop-color="#ee6878"/>
      <stop offset="0.7490196078431373" stop-color="#4d6084"/>
      <stop offset="0.9411764705882353" stop-color="#7886ab"/>
    </radialGradient>
  </defs>
</svg>
