<?xml version="1.0" encoding="UTF-8" standalone="no"?>
<svg xmlns:xlink="http://www.w3.org/1999/xlink" height="94.2px" width="116.5px" xmlns="http://www.w3.org/2000/svg">
  <g transform="matrix(1.0, 0.0, 0.0, 1.0, 58.0, 40.95)">
    <path d="M10.75 -26.85 Q13.6 -26.25 18.2 -15.85 22.8 -5.55 20.25 12.0 17.65 29.5 10.25 34.55 7.75 36.55 5.1 37.4 L0.5 37.35 9.45 -24.85 10.75 -26.85 M52.15 -28.45 L51.95 -28.7 Q51.95 -28.9 51.8 -28.75 L51.8 -28.65 54.25 -22.35 55.05 -20.05 55.45 -18.85 57.35 -9.75 57.7 -0.6 Q57.6 -0.5 57.75 -0.5 L57.85 -0.55 57.95 -0.9 Q56.5 26.8 48.75 53.25 L48.75 52.15 39.4 31.9 39.4 30.55 Q61.3 5.85 44.45 -40.95 L52.15 -28.45 M-57.6 -0.35 L-57.5 -0.3 -57.45 -0.4 -57.35 -3.2 -57.3 -3.6 -57.3 -4.1 -56.75 -9.9 -56.25 -12.55 -56.2 -12.9 -56.1 -13.2 -56.05 -13.55 -54.1 -19.45 -53.4 -20.9 -53.3 -21.05 -53.25 -21.2 -50.6 -25.5 -50.45 -25.65 -49.05 -27.4 -49.0 -27.5 -37.5 -34.05 -32.55 -28.55 Q-46.35 -23.3 -49.2 -7.45 -49.4 10.35 -44.7 19.15 L-55.3 15.0 -57.6 -0.35 M-18.75 33.0 Q-22.05 11.65 -19.25 6.9 L1.6 -24.85 -7.1 36.15 -3.3 36.55 -3.45 37.35 1.2 37.4 Q-3.95 39.0 -9.6 36.3 L-14.65 35.7 -18.75 33.0" fill="#dde2ed" fill-rule="evenodd" stroke="none"/>
    <path d="M57.95 -0.9 L57.85 -0.55 57.75 -0.5 Q57.6 -0.5 57.7 -0.6 L57.35 -9.75 55.45 -18.85 55.05 -20.05 54.25 -22.35 51.8 -28.65 51.8 -28.75 Q51.95 -28.9 51.95 -28.7 L52.15 -28.45 53.0 -27.1 54.65 -23.75 54.8 -23.5 56.9 -17.9 58.3 -11.15 58.4 -10.2 58.4 -9.85 58.5 -7.35 58.45 -5.1 58.2 -2.45 58.2 -2.3 58.15 -2.1 57.95 -0.9 M-57.6 -0.35 L-57.8 -1.65 -58.0 -7.45 -57.35 -12.8 -56.75 -15.6 -54.6 -20.85 -51.9 -24.95 -50.65 -26.4 -48.6 -28.3 -48.45 -28.3 -48.45 -28.15 -49.0 -27.5 -49.05 -27.4 -50.45 -25.65 -50.6 -25.5 -53.25 -21.2 -53.3 -21.05 -53.4 -20.9 -54.1 -19.45 -56.05 -13.55 -56.1 -13.2 -56.2 -12.9 -56.25 -12.55 -56.75 -9.9 -57.3 -4.1 -57.3 -3.6 -57.35 -3.2 -57.45 -0.4 -57.5 -0.3 -57.6 -0.35" fill="#333333" fill-rule="evenodd" stroke="none"/>
    <path d="M-0.7 32.1 Q-13.35 31.9 -18.1 25.05 -22.9 18.15 -22.3 11.2 -21.8 4.25 -19.8 -0.05 -17.9 -4.5 -16.2 -7.25 -14.75 -10.05 -6.3 -14.45 2.25 -18.85 6.7 -18.45 11.1 -18.1 17.2 -9.6 23.25 -1.1 23.05 10.85 22.75 22.8 17.35 27.6 11.9 32.3 -0.7 32.1" fill="url(#gradient0)" fill-rule="evenodd" stroke="none"/>
    <path d="M-9.0 27.0 L3.95 29.6 4.0 29.65 Q16.95 6.15 11.35 -13.45 L11.0 -15.6 Q10.6 -17.2 9.3 -17.55 L7.45 -18.2 Q4.15 -18.25 2.5 -17.55 L-0.15 -16.75 Q-1.0 -16.7 -2.3 -15.9 -9.05 -5.0 -9.85 0.95 L-11.4 12.7 Q-12.2 18.4 -9.0 27.0 M18.0 -24.5 Q25.85 -11.3 27.8 9.15 25.15 23.3 14.95 31.7 8.95 33.7 3.7 34.15 L2.3 34.25 Q-13.25 32.8 -17.95 30.8 -26.0 22.3 -26.55 7.55 -24.35 -0.75 -20.25 -8.65 -7.95 -27.9 -3.95 -27.9 L11.0 -27.3 Q13.85 -26.85 18.0 -24.5" fill="url(#gradient1)" fill-rule="evenodd" stroke="none"/>
    <path d="M18.0 -24.5 Q13.85 -26.85 11.0 -27.3 L-3.95 -27.9 Q-7.95 -27.9 -20.25 -8.65 -24.35 -0.75 -26.55 7.55 -26.0 22.3 -17.95 30.8 -13.25 32.8 2.3 34.25 L3.7 34.15 Q8.95 33.7 14.95 31.7 25.15 23.3 27.8 9.15 25.85 -11.3 18.0 -24.5 Z" fill="none" stroke="#3f274c" stroke-linecap="round" stroke-linejoin="round" stroke-width="1.2000000000000002"/>
  </g>
  <defs>
    <radialGradient cx="0" cy="0" gradientTransform="matrix(0.0015, -0.0291, 0.0267, 0.0014, 0.65, 13.6)" gradientUnits="userSpaceOnUse" id="gradient0" r="819.2" spreadMethod="pad">
      <stop offset="0.0" stop-color="#38181b"/>
      <stop offset="0.10588235294117647" stop-color="#56252a"/>
      <stop offset="0.3333333333333333" stop-color="#56252a"/>
      <stop offset="0.5019607843137255" stop-color="#6c2f37"/>
      <stop offset="1.0" stop-color="#d75e6c"/>
    </radialGradient>
    <radialGradient cx="0" cy="0" gradientTransform="matrix(0.0372, 0.002, -0.0054, 0.0436, 1.4, 5.65)" gradientUnits="userSpaceOnUse" id="gradient1" r="819.2" spreadMethod="pad">
      <stop offset="0.3607843137254902" stop-color="#ee6878"/>
      <stop offset="0.6470588235294118" stop-color="#4d6084"/>
      <stop offset="0.9411764705882353" stop-color="#7886ab"/>
    </radialGradient>
  </defs>
</svg>
