<?xml version="1.0" encoding="UTF-8" standalone="no"?>
<svg xmlns:xlink="http://www.w3.org/1999/xlink" height="88.0px" width="108.9px" xmlns="http://www.w3.org/2000/svg">
  <g transform="matrix(1.0, 0.0, 0.0, 1.0, 58.6, 40.95)">
    <path d="M41.3 -28.8 L41.3 -28.75 41.3 -28.7 41.5 -28.45 42.4 -27.1 44.1 -23.75 44.25 -23.5 46.45 -17.9 47.9 -11.15 48.0 -10.2 48.0 -9.85 48.1 -7.35 48.05 -5.1 47.8 -2.45 47.8 -2.3 47.7 -2.1 47.5 -0.9 47.4 -0.55 47.3 -0.5 Q47.15 -0.5 47.25 -0.6 L46.9 -9.75 44.9 -18.85 44.5 -20.05 43.7 -22.35 41.15 -28.65 41.15 -28.75 41.3 -28.8 M-49.5 -0.35 L-49.7 -1.65 -49.9 -7.45 -49.25 -12.8 -48.6 -15.6 -46.4 -20.85 -43.6 -24.95 -42.9 -25.7 -42.75 -25.9 -42.3 -26.4 -40.15 -28.3 -40.0 -28.3 -40.0 -28.15 -40.6 -27.5 -40.65 -27.4 -42.05 -25.65 -42.25 -25.5 -45.0 -21.2 -45.05 -21.05 -45.15 -20.9 -45.85 -19.45 -47.9 -13.55 -47.95 -13.2 -48.05 -12.9 -48.1 -12.55 -48.6 -9.9 -49.2 -4.1 -49.2 -3.6 -49.25 -3.2 -49.35 -0.4 -49.4 -0.3 -49.5 -0.35" fill="#333333" fill-rule="evenodd" stroke="none"/>
    <path d="M-40.6 -27.5 L-28.65 -34.05 -23.5 -28.55 Q-37.85 -23.3 -40.8 -7.45 -40.95 5.8 -37.0 19.0 -26.0 27.1 -16.7 22.05 -17.9 10.3 -15.8 6.9 L7.2 -26.85 Q10.15 -26.25 14.9 -15.85 19.7 -5.55 17.05 12.0 15.85 20.05 13.55 25.45 12.2 37.55 33.7 24.0 48.15 -1.75 33.5 -40.95 L41.3 -28.8 41.15 -28.75 41.15 -28.65 43.7 -22.35 44.5 -20.05 44.9 -18.85 46.9 -9.75 47.25 -0.6 Q47.15 -0.5 47.3 -0.5 L47.4 -0.55 47.5 -0.9 Q49.55 11.95 48.75 21.75 L48.75 22.05 Q47.8 29.35 50.3 37.3 46.15 44.25 37.95 45.85 -4.75 52.85 -49.5 19.15 L-58.6 11.1 Q-49.05 10.0 -49.5 -0.15 L-49.5 -0.35 -49.4 -0.3 -49.35 -0.4 -49.25 -3.2 -49.2 -3.6 -49.2 -4.1 -48.6 -9.9 -48.1 -12.55 -48.05 -12.9 -47.95 -13.2 -47.9 -13.55 -45.85 -19.45 -45.15 -20.9 -45.05 -21.05 -45.0 -21.2 -42.25 -25.5 -42.05 -25.65 -40.65 -27.4 -40.6 -27.5 M41.3 -28.75 L41.5 -28.45 41.3 -28.7 41.3 -28.75" fill="#dde2ed" fill-rule="evenodd" stroke="none"/>
    <path d="M1.2 -14.35 Q4.6 -10.2 2.75 7.25 L0.35 26.7 Q0.1 28.55 -1.15 30.85 -2.7 32.15 -5.5 30.5 -6.55 28.85 -6.75 25.4 L-6.45 10.55 Q-6.05 -2.55 -1.4 -10.7 L-0.95 -11.55 1.05 -14.5 1.2 -14.35" fill="url(#gradient0)" fill-rule="evenodd" stroke="none"/>
    <path d="M3.5 -19.25 Q3.2 -18.35 2.2 -17.1 3.7 -12.65 5.5 -12.1 7.05 -1.9 7.1 6.95 6.45 13.15 2.95 22.3 4.5 9.3 3.3 -8.2 2.55 -11.1 0.9 -10.95 L0.8 -11.05 -0.65 -8.5 -1.0 -7.75 Q-1.65 -8.65 -4.25 -3.7 -5.85 3.95 -6.15 9.05 L-6.8 23.55 Q-10.45 13.45 -9.75 8.85 -7.6 -3.0 -5.05 -10.9 L1.3 -20.55 Q2.8 -20.95 3.5 -19.25 M-0.85 -14.75 Q-4.4 -10.5 -6.6 -0.35 L-1.0 -10.75 Q2.65 -15.6 -0.85 -14.75" fill="#ee6878" fill-rule="evenodd" stroke="none"/>
    <path d="M5.5 -12.1 Q3.7 -12.65 2.2 -17.1 3.2 -18.35 3.5 -19.25 L4.3 -17.35 Q4.95 -15.75 5.5 -12.1 M-6.8 23.55 L-6.15 9.05 Q-5.85 3.95 -4.25 -3.7 -1.65 -8.65 -1.0 -7.75 -4.4 -0.65 -4.7 10.75 L-4.9 23.7 Q-4.75 26.7 -4.0 28.15 L-5.45 27.1 -6.8 23.55 M0.9 -10.95 Q2.55 -11.1 3.3 -8.2 4.5 9.3 2.95 22.3 L0.95 27.05 -0.8 28.45 Q0.1 26.45 0.3 24.85 L2.05 7.9 Q3.4 -7.3 0.9 -10.95" fill="#d75e6c" fill-rule="evenodd" stroke="none"/>
    <path d="M-0.85 -14.75 Q2.65 -15.6 -1.0 -10.75 L-6.6 -0.35 Q-4.4 -10.5 -0.85 -14.75" fill="#fa8686" fill-rule="evenodd" stroke="none"/>
    <path d="M2.7 -22.2 L1.3 -20.55" fill="none" stroke="#3f274c" stroke-linecap="round" stroke-linejoin="round" stroke-width="1.0"/>
    <path d="M4.75 -17.5 Q4.95 -17.05 4.45 -16.85 3.95 -16.65 3.8 -17.15 L3.1 -19.0 3.05 -19.05 3.05 -19.1 3.0 -19.2 3.0 -19.25 2.95 -19.25 2.9 -19.35 2.85 -19.5 2.85 -19.55 2.7 -19.7 2.65 -19.8 2.5 -19.95 2.3 -20.1 2.2 -20.15 2.1 -20.15 2.0 -20.2 1.55 -20.2 1.6 -20.3 1.35 -20.15 1.5 -20.2 1.55 -20.2 -4.95 -10.8 -5.1 -10.8 -5.1 -10.95 0.95 -20.75 1.15 -20.9 1.2 -20.9 1.35 -20.95 1.55 -20.95 1.6 -21.0 2.1 -21.0 2.45 -20.9 3.15 -20.5 3.25 -20.35 3.4 -20.25 3.5 -20.1 3.55 -20.0 3.6 -19.95 3.8 -19.65 3.8 -19.55 3.85 -19.5 3.9 -19.4 3.9 -19.35 4.0 -19.2 4.75 -17.5 M2.7 -24.25 L2.85 -24.2 3.0 -24.05 3.15 -23.75 3.25 -23.35 3.25 -22.5 3.2 -22.35 3.2 -22.2 3.15 -22.05 3.15 -21.95 3.05 -21.8 Q2.8 -21.4 2.35 -21.65 1.95 -21.95 2.2 -22.4 L2.4 -22.6 2.45 -22.75 2.55 -22.9 2.75 -23.55 2.75 -23.95 2.7 -24.05 2.7 -24.25" fill="#3f274c" fill-rule="evenodd" stroke="none"/>
    <path d="M-4.6 28.15 Q-2.15 29.6 -2.95 28.25 7.8 4.2 3.3 -15.8 L3.0 -17.95 Q2.4 -18.75 1.75 -20.55 L-0.35 -17.8 Q-4.65 -5.65 -5.3 0.3 L-6.5 12.05 Q-7.15 17.75 -4.6 28.15 M8.5 -26.85 Q14.7 -13.65 16.25 6.8 14.2 20.95 6.1 29.35 1.4 31.35 -2.75 31.8 -7.45 32.4 -11.65 30.15 -18.0 21.65 -18.45 6.9 -16.7 -1.4 -13.5 -9.3 -3.8 -28.55 -0.65 -28.0 3.45 -28.75 8.5 -26.85" fill="url(#gradient1)" fill-rule="evenodd" stroke="none"/>
    <path d="M8.5 -26.85 Q3.45 -28.75 -0.65 -28.0 -3.8 -28.55 -13.5 -9.3 -16.7 -1.4 -18.45 6.9 -18.0 21.65 -11.65 30.15 -7.45 32.4 -2.75 31.8 1.4 31.35 6.1 29.35 14.2 20.95 16.25 6.8 14.7 -13.65 8.5 -26.85 Z" fill="none" stroke="#3f274c" stroke-linecap="round" stroke-linejoin="round" stroke-width="1.2000000000000002"/>
  </g>
  <defs>
    <radialGradient cx="0" cy="0" gradientTransform="matrix(-0.0017, 0.0329, 0.0072, 3.0E-4, -2.05, 13.45)" gradientUnits="userSpaceOnUse" id="gradient0" r="819.2" spreadMethod="pad">
      <stop offset="0.5019607843137255" stop-color="#6c2f37"/>
      <stop offset="1.0" stop-color="#d75e6c"/>
    </radialGradient>
    <radialGradient cx="0" cy="0" gradientTransform="matrix(0.0218, 0.0015, -0.0043, 0.0436, -0.1, 6.8)" gradientUnits="userSpaceOnUse" id="gradient1" r="819.2" spreadMethod="pad">
      <stop offset="0.3607843137254902" stop-color="#ee6878"/>
      <stop offset="0.6470588235294118" stop-color="#4d6084"/>
      <stop offset="0.9411764705882353" stop-color="#7886ab"/>
    </radialGradient>
  </defs>
</svg>
