<?xml version="1.0" encoding="UTF-8" standalone="no"?>
<svg xmlns:xlink="http://www.w3.org/1999/xlink" height="316.75px" width="343.8px" xmlns="http://www.w3.org/2000/svg">
  <g transform="matrix(1.0, 0.0, 0.0, 1.0, 161.45, 147.45)">
    <path d="M-26.4 135.0 Q-53.1 155.85 -81.1 164.5 L-87.85 166.3 Q-94.65 167.95 -101.8 168.8 -132.1 167.9 -150.05 135.85 -153.65 128.8 -156.8 120.3 L-157.3 118.3 Q-164.7 89.9 -157.1 56.4 -154.55 44.95 -150.4 32.85 -144.6 16.2 -135.65 -1.35 L-134.45 -3.65 Q-100.15 -49.55 -31.7 -70.8 L-19.25 -74.45 -1.7 -78.85 13.1 -81.95 21.8 -82.7 23.9 -82.65 54.45 -82.85 68.2 -82.95 Q78.05 -93.8 76.4 -106.2 75.5 -112.2 72.05 -118.75 68.25 -125.55 61.3 -132.9 L57.8 -136.35 55.65 -138.35 Q51.15 -142.45 45.45 -146.95 53.05 -145.05 60.15 -142.95 L61.7 -142.5 70.85 -139.55 80.4 -135.85 Q87.7 -132.9 94.65 -129.5 103.6 -125.05 112.1 -120.0 L124.9 -111.5 Q147.7 -95.0 166.0 -72.2 L166.5 -84.9 Q189.55 -58.2 178.0 1.05 176.8 9.0 174.45 16.2 169.15 32.1 157.5 44.85 148.35 54.9 135.25 63.05 141.2 52.85 144.45 43.45 148.6 31.75 148.65 21.55 148.95 -13.15 102.15 -30.7 L93.6 -34.15 Q79.2 -39.75 65.25 -43.5 51.4 -47.15 37.85 -49.1 20.55 -51.5 5.55 -49.95 -13.5 -47.3 -31.6 -40.9 L-42.75 -36.55 -46.2 -35.0 Q-106.4 -11.0 -123.3 30.35 -129.15 43.7 -130.95 58.2 -133.4 79.35 -129.9 103.1 L-129.45 105.65 -128.4 110.85 Q-119.0 146.1 -91.75 137.15 -86.5 134.45 -82.1 131.15 -72.8 124.55 -65.75 116.15 -60.05 109.35 -55.75 101.35 -25.35 96.7 -26.4 135.0" fill="#72567e" fill-opacity="0.99607843" fill-rule="evenodd" stroke="none"/>
    <path d="M-26.4 135.0 Q-53.1 155.85 -81.1 164.5 L-87.85 166.3 Q-94.65 167.95 -101.8 168.8 -132.1 167.9 -150.05 135.85 -153.65 128.8 -156.8 120.3 L-157.3 118.3 Q-164.7 89.9 -157.1 56.4 -154.55 44.95 -150.4 32.85 -144.6 16.2 -135.65 -1.35 L-134.45 -3.65 Q-100.15 -49.55 -31.7 -70.8 L-19.25 -74.45 -1.7 -78.85 13.1 -81.95 21.8 -82.7 23.9 -82.65 54.45 -82.85 68.2 -82.95 Q78.05 -93.8 76.4 -106.2 75.5 -112.2 72.05 -118.75 68.25 -125.55 61.3 -132.9 L57.8 -136.35 55.65 -138.35 Q51.15 -142.45 45.45 -146.95 53.05 -145.05 60.15 -142.95 L61.7 -142.5 70.85 -139.55 80.4 -135.85 Q87.7 -132.9 94.65 -129.5 103.6 -125.05 112.1 -120.0 L124.9 -111.5 Q147.7 -95.0 166.0 -72.2 L166.5 -84.9 Q189.55 -58.2 178.0 1.05 176.8 9.0 174.45 16.2 169.15 32.1 157.5 44.85 148.35 54.9 135.25 63.05 141.2 52.85 144.45 43.45 148.6 31.75 148.65 21.55 148.95 -13.15 102.15 -30.7 L93.6 -34.15 Q79.2 -39.75 65.25 -43.5 51.4 -47.15 37.85 -49.1 20.55 -51.5 5.55 -49.95 -13.5 -47.3 -31.6 -40.9 L-42.75 -36.55 -46.2 -35.0 Q-106.4 -11.0 -123.3 30.35 -129.15 43.7 -130.95 58.2 -133.4 79.35 -129.9 103.1 L-129.45 105.65 -128.4 110.85 Q-119.0 146.1 -91.75 137.15 -86.5 134.45 -82.1 131.15 -72.8 124.55 -65.75 116.15 -60.05 109.35 -55.75 101.35 -25.35 96.7 -26.4 135.0 Z" fill="none" stroke="#3f274c" stroke-linecap="round" stroke-linejoin="round" stroke-width="1.0"/>
  </g>
</svg>
