<?xml version="1.0" encoding="UTF-8" standalone="no"?>
<svg xmlns:xlink="http://www.w3.org/1999/xlink" height="175.5px" width="163.6px" xmlns="http://www.w3.org/2000/svg">
  <g transform="matrix(1.0, 0.0, 0.0, 1.0, 64.75, 86.9)">
    <path d="M34.1 -85.5 Q35.5 -84.65 35.75 -82.85 39.55 -68.95 29.3 -60.15 22.2 -56.5 10.0 -56.5 8.5 -54.45 10.0 -52.75 L9.35 -50.8 Q8.4 -46.65 4.6 -45.4 0.0 -39.55 -0.15 -31.15 -1.05 -24.55 1.85 -20.95 13.3 9.6 2.5 37.6 L1.25 40.75 Q6.55 60.15 -7.85 79.6 -13.45 83.65 -24.0 88.0 L-28.65 55.6 Q-36.35 36.75 -51.35 36.2 -41.45 21.25 -37.3 5.8 -33.15 -6.75 -32.65 -29.7 -32.9 -35.1 -10.25 -57.45 L-6.85 -65.6 Q-5.55 -70.8 -0.15 -71.95 L14.85 -75.05 Q26.35 -77.8 34.1 -85.5 M75.35 -1.6 Q76.5 -1.6 78.0 -2.7 L78.05 -2.7 Q82.95 3.75 78.6 9.9 77.2 10.95 76.0 11.6 73.85 8.1 75.35 -1.6 M79.4 -4.45 Q76.7 -8.95 78.5 -16.15 79.9 -15.9 81.65 -16.6 L84.15 -18.95 Q87.1 -14.7 79.4 -4.45 M84.25 -19.05 Q83.8 -25.45 90.0 -36.15 L87.25 -35.8 Q86.2 -41.6 95.0 -56.5 98.4 -53.1 98.25 -48.25 98.15 -41.65 91.9 -36.9 95.55 -30.1 84.25 -19.05 M90.0 -36.15 L91.9 -36.9 90.0 -36.15" fill="#f4ccc1" fill-rule="evenodd" stroke="none"/>
    <path d="M34.1 -85.5 Q26.35 -77.8 14.85 -75.05 L-0.15 -71.95 Q-5.55 -70.8 -6.85 -65.6 L-10.25 -57.45 Q-32.9 -35.1 -32.65 -29.7 -33.15 -6.75 -37.3 5.8 -41.45 21.25 -51.35 36.2 -57.3 33.5 -64.3 35.1 L-64.15 34.9 Q-50.45 7.1 -49.75 4.15 -47.2 -7.0 -48.3 -18.9 -46.75 -32.1 -42.95 -43.7 -33.65 -63.25 -13.75 -63.05 L-12.85 -62.75 -11.7 -66.45 Q-8.9 -75.0 -1.55 -76.6 7.8 -76.6 10.7 -77.9 19.55 -84.95 30.85 -86.3 32.9 -86.3 34.1 -85.5 M-7.85 79.6 Q6.55 60.15 1.25 40.75 L2.5 37.6 Q8.0 56.65 1.95 69.7 -2.1 75.4 -7.85 79.6 M9.35 -50.8 L10.0 -52.75 Q8.5 -54.45 10.0 -56.5 22.2 -56.5 29.3 -60.15 22.45 -54.35 9.35 -50.8 M-35.45 -36.55 Q-30.05 -43.4 -23.25 -48.8 -15.75 -55.5 -12.85 -62.75 -15.75 -55.5 -23.25 -48.8 -30.05 -43.4 -35.45 -36.55 M76.1 -17.5 Q77.15 -16.4 78.5 -16.15 77.15 -16.4 76.1 -17.5 75.25 -18.45 74.65 -19.9 77.1 -28.8 83.6 -36.9 83.0 -45.8 87.05 -50.6 91.25 -55.6 94.95 -56.6 L95.0 -56.5 Q86.2 -41.6 87.25 -35.8 L90.0 -36.15 Q83.8 -25.45 84.25 -19.05 L84.15 -18.95 81.65 -16.6 Q79.9 -15.9 78.5 -16.15 76.7 -8.95 79.4 -4.45 L78.05 -2.7 78.0 -2.7 Q76.5 -1.6 75.35 -1.6 74.2 -1.6 73.4 -2.7 L73.15 -4.25 73.4 -2.7 Q74.2 -1.6 75.35 -1.6 73.85 8.1 76.0 11.6 71.15 14.3 70.1 10.9 70.65 2.65 73.15 -4.25 L73.1 -4.75 Q72.65 -10.45 76.1 -17.5 M83.6 -36.9 Q85.4 -35.9 87.25 -35.8 85.4 -35.9 83.6 -36.9" fill="#deaea9" fill-rule="evenodd" stroke="none"/>
    <path d="M29.3 -60.15 Q39.55 -68.95 35.75 -82.85 35.5 -84.65 34.1 -85.5 32.9 -86.3 30.85 -86.3 19.55 -84.95 10.7 -77.9 7.8 -76.6 -1.55 -76.6 -8.9 -75.0 -11.7 -66.45 L-12.85 -62.75 Q-15.75 -55.5 -23.25 -48.8 -30.05 -43.4 -35.45 -36.55 M-24.0 88.0 Q-13.45 83.65 -7.85 79.6 -2.1 75.4 1.95 69.7 8.0 56.65 2.5 37.6 13.3 9.6 1.85 -20.95 -1.05 -24.55 -0.15 -31.15 0.0 -39.55 4.6 -45.4 8.4 -46.65 9.35 -50.8 L10.0 -52.75 M1.25 40.75 L2.5 37.6 M29.3 -60.15 Q22.45 -54.35 9.35 -50.8 M-13.75 -63.05 Q-33.65 -63.25 -42.95 -43.7 -46.75 -32.1 -48.3 -18.9 -47.2 -7.0 -49.75 4.15 -50.45 7.1 -64.15 34.9" fill="none" stroke="#574a3a" stroke-linecap="round" stroke-linejoin="miter-clip" stroke-miterlimit="3.0" stroke-width="1.2000000000000002"/>
    <path d="M78.5 -16.15 Q77.15 -16.4 76.1 -17.5 72.65 -10.45 73.1 -4.75 L73.15 -4.25 73.4 -2.7 Q74.2 -1.6 75.35 -1.6 76.5 -1.6 78.0 -2.7 L78.05 -2.7 79.4 -4.45 Q87.1 -14.7 84.15 -18.95 L84.25 -19.05 Q95.55 -30.1 91.9 -36.9 L90.0 -36.15 87.25 -35.8 Q85.4 -35.9 83.6 -36.9 77.1 -28.8 74.65 -19.9 75.25 -18.45 76.1 -17.5 M78.5 -16.15 Q79.9 -15.9 81.65 -16.6 L84.15 -18.95 M83.6 -36.9 Q83.0 -45.8 87.05 -50.6 91.25 -55.6 94.95 -56.6 L95.0 -56.5 Q98.4 -53.1 98.25 -48.25 98.15 -41.65 91.9 -36.9 M76.0 11.6 Q71.15 14.3 70.1 10.9 70.65 2.65 73.15 -4.25 M78.05 -2.7 Q82.95 3.75 78.6 9.9 77.2 10.95 76.0 11.6" fill="none" stroke="#574a3a" stroke-linecap="round" stroke-linejoin="round" stroke-width="1.2000000000000002"/>
  </g>
</svg>
