<?xml version="1.0" encoding="UTF-8" standalone="no"?>
<svg xmlns:xlink="http://www.w3.org/1999/xlink" height="202.6px" width="85.2px" xmlns="http://www.w3.org/2000/svg">
  <g transform="matrix(1.0, 0.0, 0.0, 1.0, -1385.8, 37.95)">
    <path d="M1470.4 109.0 Q1459.85 110.35 1458.85 118.5 1458.8 138.8 1456.75 157.2 1436.4 181.1 1399.4 121.8 1384.05 47.65 1386.85 -0.05 1389.35 -42.9 1416.45 -36.5 1441.8 -26.55 1442.6 -5.7 L1456.75 72.9 1470.4 109.0" fill="#faefb9" fill-opacity="0.99607843" fill-rule="evenodd" stroke="none"/>
    <path d="M1416.45 -36.5 Q1389.35 -42.9 1386.85 -0.05 1384.05 47.65 1399.4 121.8 1436.4 181.1 1456.75 157.2 1458.8 138.8 1458.85 118.5 1459.85 110.35 1470.4 109.0" fill="none" stroke="#1d1a14" stroke-linecap="round" stroke-linejoin="round" stroke-width="1.2000000000000002"/>
  </g>
</svg>
