<?xml version="1.0" encoding="UTF-8" standalone="no"?>
<svg xmlns:xlink="http://www.w3.org/1999/xlink" height="313.1px" width="344.95px" xmlns="http://www.w3.org/2000/svg">
  <g transform="matrix(1.0, 0.0, 0.0, 1.0, 161.15, 144.25)">
    <path d="M-26.55 135.0 Q-53.3 155.7 -81.4 164.2 L-88.2 166.0 Q-95.0 167.6 -102.2 168.35 -132.4 167.25 -150.2 135.05 -153.7 127.95 -156.8 119.4 L-157.3 117.4 Q-164.4 88.9 -156.4 55.5 -153.7 44.05 -149.4 32.05 -143.45 15.5 -134.25 -2.0 L-133.05 -4.3 Q-98.25 -49.8 -29.1 -69.65 L-16.6 -73.0 1.0 -77.05 16.0 -79.8 24.8 -80.3 26.85 -80.2 57.45 -79.4 71.2 -79.05 Q81.35 -89.6 80.1 -102.05 79.45 -108.05 76.15 -114.7 72.55 -121.65 65.85 -129.25 L62.45 -132.75 60.4 -134.8 Q56.05 -139.15 50.5 -143.75 L65.05 -139.3 66.55 -138.75 75.6 -135.55 85.05 -131.55 Q92.2 -128.4 99.1 -124.75 107.9 -120.1 116.25 -114.7 122.65 -110.5 128.75 -105.8 151.05 -88.55 168.6 -65.2 L169.5 -77.9 Q191.7 -50.5 178.25 8.4 176.85 16.3 174.25 23.45 168.4 39.05 156.35 51.5 147.0 61.25 133.6 69.0 139.75 58.95 143.35 49.65 147.85 38.2 148.3 27.95 149.65 -6.85 103.45 -25.8 L95.0 -29.5 Q80.85 -35.5 67.0 -39.7 53.2 -43.8 39.75 -46.2 22.6 -49.2 7.7 -47.95 -11.4 -45.75 -29.65 -39.7 L-40.9 -35.6 -44.4 -34.1 Q-105.0 -11.45 -122.25 29.85 -128.3 43.05 -130.25 57.6 -132.95 78.7 -129.75 102.45 L-129.3 105.05 -128.3 110.2 Q-119.2 145.55 -91.9 136.8 -86.55 134.1 -82.2 130.85 -72.9 124.35 -65.8 115.95 -60.1 109.15 -55.7 101.2 -25.3 96.7 -26.55 135.0" fill="#72567e" fill-opacity="0.99607843" fill-rule="evenodd" stroke="none"/>
    <path d="M-26.55 135.0 Q-53.3 155.7 -81.4 164.2 L-88.2 166.0 Q-95.0 167.6 -102.2 168.35 -132.4 167.25 -150.2 135.05 -153.7 127.95 -156.8 119.4 L-157.3 117.4 Q-164.4 88.9 -156.4 55.5 -153.7 44.05 -149.4 32.05 -143.45 15.5 -134.25 -2.0 L-133.05 -4.3 Q-98.25 -49.8 -29.1 -69.65 L-16.6 -73.0 1.0 -77.05 16.0 -79.8 24.8 -80.3 26.85 -80.2 57.45 -79.4 71.2 -79.05 Q81.35 -89.6 80.1 -102.05 79.45 -108.05 76.15 -114.7 72.55 -121.65 65.85 -129.25 L62.45 -132.75 60.4 -134.8 Q56.05 -139.15 50.5 -143.75 L65.05 -139.3 66.55 -138.75 75.6 -135.55 85.05 -131.55 Q92.2 -128.4 99.1 -124.75 107.9 -120.1 116.25 -114.7 122.65 -110.5 128.75 -105.8 151.05 -88.55 168.6 -65.2 L169.5 -77.9 Q191.7 -50.5 178.25 8.4 176.85 16.3 174.25 23.45 168.4 39.05 156.35 51.5 147.0 61.25 133.6 69.0 139.75 58.95 143.35 49.65 147.85 38.2 148.3 27.95 149.65 -6.85 103.45 -25.8 L95.0 -29.5 Q80.85 -35.5 67.0 -39.7 53.2 -43.8 39.75 -46.2 22.6 -49.2 7.7 -47.95 -11.4 -45.75 -29.65 -39.7 L-40.9 -35.6 -44.4 -34.1 Q-105.0 -11.45 -122.25 29.85 -128.3 43.05 -130.25 57.6 -132.95 78.7 -129.75 102.45 L-129.3 105.05 -128.3 110.2 Q-119.2 145.55 -91.9 136.8 -86.55 134.1 -82.2 130.85 -72.9 124.35 -65.8 115.95 -60.1 109.15 -55.7 101.2 -25.3 96.7 -26.55 135.0 Z" fill="none" stroke="#3f274c" stroke-linecap="round" stroke-linejoin="round" stroke-width="1.0"/>
  </g>
</svg>
