<?xml version="1.0" encoding="UTF-8" standalone="no"?>
<svg xmlns:xlink="http://www.w3.org/1999/xlink" height="309.3px" width="346.05px" xmlns="http://www.w3.org/2000/svg">
  <g transform="matrix(1.0, 0.0, 0.0, 1.0, 160.85, 140.9)">
    <path d="M-26.7 135.05 Q-53.6 155.6 -81.75 163.95 L-88.55 165.65 Q-95.35 167.25 -102.55 167.9 -132.85 166.55 -150.35 134.2 -153.85 127.1 -156.8 118.5 L-157.25 116.5 Q-164.15 87.95 -155.65 54.6 -152.85 43.15 -148.4 31.2 -142.25 14.7 -132.9 -2.65 L-131.65 -4.9 Q-96.3 -50.05 -26.55 -68.4 L-13.95 -71.5 3.75 -75.15 18.85 -77.6 Q22.85 -77.95 27.75 -77.8 L29.8 -77.65 60.3 -75.9 74.05 -75.1 Q84.55 -85.35 83.7 -97.8 83.25 -103.85 80.15 -110.6 76.8 -117.65 70.3 -125.45 L67.05 -129.05 65.05 -131.2 Q60.8 -135.6 55.4 -140.4 L69.85 -135.55 71.3 -134.95 Q75.8 -133.15 80.25 -131.4 84.95 -129.25 89.6 -127.15 96.65 -123.75 103.4 -119.9 112.05 -114.95 120.25 -109.3 126.5 -104.85 132.45 -100.0 154.15 -82.05 171.0 -58.2 L172.25 -70.85 Q193.65 -42.7 178.3 15.7 176.65 23.5 173.8 30.6 167.45 46.05 155.05 58.1 145.3 67.55 131.75 74.85 138.3 65.05 142.15 55.85 146.95 44.45 147.7 34.25 150.2 -0.4 104.6 -20.85 L96.3 -24.85 Q82.35 -31.3 68.65 -35.9 54.95 -40.45 41.6 -43.25 24.5 -46.75 9.8 -45.95 -9.4 -44.2 -27.7 -38.5 -33.4 -36.75 -39.05 -34.6 L-42.55 -33.2 Q-103.65 -11.8 -121.25 29.35 -127.45 42.5 -129.6 57.0 -132.5 78.1 -129.6 101.8 L-129.2 104.4 -128.25 109.55 Q-119.4 144.95 -92.0 136.45 -86.65 133.75 -82.35 130.6 -72.95 124.1 -65.85 115.75 -60.05 109.0 -55.65 101.05 -25.2 96.8 -26.7 135.05" fill="#72567e" fill-opacity="0.99607843" fill-rule="evenodd" stroke="none"/>
    <path d="M-26.7 135.05 Q-53.6 155.6 -81.75 163.95 L-88.55 165.65 Q-95.35 167.25 -102.55 167.9 -132.85 166.55 -150.35 134.2 -153.85 127.1 -156.8 118.5 L-157.25 116.5 Q-164.15 87.95 -155.65 54.6 -152.85 43.15 -148.4 31.2 -142.25 14.7 -132.9 -2.65 L-131.65 -4.9 Q-96.3 -50.05 -26.55 -68.4 L-13.95 -71.5 3.75 -75.15 18.85 -77.6 Q22.85 -77.95 27.75 -77.8 L29.8 -77.65 60.3 -75.9 74.05 -75.1 Q84.55 -85.35 83.7 -97.8 83.25 -103.85 80.15 -110.6 76.8 -117.65 70.3 -125.45 L67.05 -129.05 65.05 -131.2 Q60.8 -135.6 55.4 -140.4 L69.85 -135.55 71.3 -134.95 Q75.8 -133.15 80.25 -131.4 84.95 -129.25 89.6 -127.15 96.65 -123.75 103.4 -119.9 112.05 -114.95 120.25 -109.3 126.5 -104.85 132.45 -100.0 154.15 -82.05 171.0 -58.2 L172.25 -70.85 Q193.65 -42.7 178.3 15.7 176.65 23.5 173.8 30.6 167.45 46.05 155.05 58.1 145.3 67.55 131.75 74.85 138.3 65.05 142.15 55.85 146.95 44.45 147.7 34.25 150.2 -0.4 104.6 -20.85 L96.3 -24.85 Q82.35 -31.3 68.65 -35.9 54.95 -40.45 41.6 -43.25 24.5 -46.75 9.8 -45.95 -9.4 -44.2 -27.7 -38.5 -33.4 -36.75 -39.05 -34.6 L-42.55 -33.2 Q-103.65 -11.8 -121.25 29.35 -127.45 42.5 -129.6 57.0 -132.5 78.1 -129.6 101.8 L-129.2 104.4 -128.25 109.55 Q-119.4 144.95 -92.0 136.45 -86.65 133.75 -82.35 130.6 -72.95 124.1 -65.85 115.75 -60.05 109.0 -55.65 101.05 -25.2 96.8 -26.7 135.05 Z" fill="none" stroke="#3f274c" stroke-linecap="round" stroke-linejoin="round" stroke-width="1.0"/>
  </g>
</svg>
