<?xml version="1.0" encoding="UTF-8" standalone="no"?>
<svg xmlns:xlink="http://www.w3.org/1999/xlink" height="297.35px" width="348.6px" xmlns="http://www.w3.org/2000/svg">
  <g transform="matrix(1.0, 0.0, 0.0, 1.0, 159.95, 130.3)">
    <path d="M-27.15 135.1 Q-54.35 155.2 -82.75 163.1 L-89.55 164.65 Q-96.35 166.1 -103.65 166.55 -133.85 164.55 -150.75 131.7 -154.05 124.5 -156.75 115.85 L-157.15 113.8 Q-163.2 85.1 -153.45 51.9 -150.2 40.6 -145.4 28.8 -138.7 12.55 -128.75 -4.5 L-127.45 -6.7 Q-90.55 -50.65 -19.05 -64.5 L-6.3 -66.75 11.65 -69.3 27.05 -70.7 36.2 -70.1 38.2 -69.75 68.4 -65.1 82.0 -63.0 Q93.4 -72.2 93.75 -84.7 93.9 -90.75 91.45 -97.75 88.75 -105.1 83.05 -113.45 L80.15 -117.4 78.35 -119.7 Q74.6 -124.5 69.65 -129.8 76.85 -126.8 83.55 -123.55 L84.95 -122.85 93.5 -118.5 102.4 -113.35 Q109.1 -109.3 115.5 -104.85 123.6 -99.05 131.2 -92.7 L142.5 -82.25 Q162.4 -62.35 176.9 -37.0 L179.4 -49.45 Q197.95 -19.45 177.15 37.25 174.75 44.9 171.3 51.65 163.5 66.5 150.0 77.25 139.45 85.75 125.2 91.75 132.65 82.55 137.35 73.8 143.3 62.95 145.0 52.85 150.7 18.6 107.3 -6.1 L99.4 -10.85 Q86.15 -18.65 72.9 -24.5 59.7 -30.35 46.7 -34.4 30.0 -39.5 15.8 -39.75 -3.55 -39.2 -22.1 -34.75 L-33.65 -31.55 -37.25 -30.4 Q-99.55 -12.9 -118.2 27.85 -124.85 40.85 -127.45 55.2 -131.1 76.2 -129.1 99.95 L-128.75 102.55 -127.95 107.6 Q-120.0 143.25 -92.4 135.35 -86.9 132.8 -82.7 129.7 -73.25 123.4 -65.95 115.15 -60.0 108.5 -55.55 100.65 -25.0 96.9 -27.15 135.1" fill="#72567e" fill-opacity="0.99607843" fill-rule="evenodd" stroke="none"/>
    <path d="M-27.15 135.1 Q-54.35 155.2 -82.75 163.1 L-89.55 164.65 Q-96.35 166.1 -103.65 166.55 -133.85 164.55 -150.75 131.7 -154.05 124.5 -156.75 115.85 L-157.15 113.8 Q-163.2 85.1 -153.45 51.9 -150.2 40.6 -145.4 28.8 -138.7 12.55 -128.75 -4.5 L-127.45 -6.7 Q-90.55 -50.65 -19.05 -64.5 L-6.3 -66.75 11.65 -69.3 27.05 -70.7 36.2 -70.1 38.2 -69.75 68.4 -65.1 82.0 -63.0 Q93.4 -72.2 93.75 -84.7 93.9 -90.75 91.45 -97.75 88.75 -105.1 83.05 -113.45 L80.15 -117.4 78.35 -119.7 Q74.6 -124.5 69.65 -129.8 76.85 -126.8 83.55 -123.55 L84.95 -122.85 93.5 -118.5 102.4 -113.35 Q109.1 -109.3 115.5 -104.85 123.6 -99.05 131.2 -92.7 L142.5 -82.25 Q162.4 -62.35 176.9 -37.0 L179.4 -49.45 Q197.95 -19.45 177.15 37.25 174.75 44.9 171.3 51.65 163.5 66.5 150.0 77.25 139.45 85.75 125.2 91.75 132.65 82.55 137.35 73.8 143.3 62.95 145.0 52.85 150.7 18.6 107.3 -6.1 L99.4 -10.85 Q86.15 -18.65 72.9 -24.5 59.7 -30.35 46.7 -34.4 30.0 -39.5 15.8 -39.75 -3.55 -39.2 -22.1 -34.75 L-33.65 -31.55 -37.25 -30.4 Q-99.55 -12.9 -118.2 27.85 -124.85 40.85 -127.45 55.2 -131.1 76.2 -129.1 99.95 L-128.75 102.55 -127.95 107.6 Q-120.0 143.25 -92.4 135.35 -86.9 132.8 -82.7 129.7 -73.25 123.4 -65.95 115.15 -60.0 108.5 -55.55 100.65 -25.0 96.9 -27.15 135.1 Z" fill="none" stroke="#3f274c" stroke-linecap="round" stroke-linejoin="round" stroke-width="1.0"/>
  </g>
</svg>
