<?xml version="1.0" encoding="UTF-8" standalone="no"?>
<svg xmlns:xlink="http://www.w3.org/1999/xlink" height="293.15px" width="349.3px" xmlns="http://www.w3.org/2000/svg">
  <g transform="matrix(1.0, 0.0, 0.0, 1.0, 159.7, 126.55)">
    <path d="M-27.3 135.15 Q-54.65 155.05 -83.05 162.8 L-89.9 164.35 Q-96.7 165.7 -104.05 166.1 -134.2 163.85 -150.9 130.9 -154.1 123.65 -156.7 114.95 L-157.1 112.9 Q-162.85 84.1 -152.7 51.05 -149.4 39.75 -144.4 28.05 -137.5 11.85 -127.35 -5.1 L-126.0 -7.3 Q-88.55 -50.7 -16.6 -63.1 L-3.8 -65.1 14.15 -67.25 29.7 -68.3 38.85 -67.45 40.85 -67.0 70.95 -61.4 84.45 -58.9 Q96.15 -67.75 96.9 -80.2 97.2 -86.25 94.95 -93.35 92.55 -100.75 87.1 -109.3 L84.3 -113.3 82.6 -115.7 74.2 -126.05 Q81.35 -122.8 87.9 -119.35 L89.3 -118.6 97.7 -114.0 106.45 -108.55 Q113.0 -104.35 119.25 -99.65 127.15 -93.65 134.55 -87.0 L145.5 -76.25 Q164.8 -55.7 178.45 -29.9 L181.35 -42.25 Q199.0 -11.7 176.4 44.35 173.7 51.85 170.05 58.55 161.8 73.1 148.0 83.45 137.15 91.65 122.75 97.15 130.4 88.15 135.45 79.6 141.7 68.9 143.7 58.9 150.55 24.8 107.9 -1.2 L100.2 -6.2 Q87.15 -14.35 74.1 -20.7 61.15 -27.0 48.25 -31.4 31.7 -37.0 17.65 -37.65 -1.6 -37.5 -20.3 -33.4 L-31.9 -30.5 -35.55 -29.4 Q-98.25 -13.2 -117.2 27.4 -123.95 40.3 -126.75 54.65 -130.65 75.6 -128.9 99.35 L-128.6 101.95 -127.85 106.95 Q-120.1 142.65 -92.5 135.0 -87.1 132.55 -82.8 129.4 -73.35 123.1 -66.0 114.95 -60.05 108.35 -55.5 100.5 -24.9 96.9 -27.3 135.15" fill="#72567e" fill-opacity="0.99607843" fill-rule="evenodd" stroke="none"/>
    <path d="M-27.3 135.15 Q-54.65 155.05 -83.05 162.8 L-89.9 164.35 Q-96.7 165.7 -104.05 166.1 -134.2 163.85 -150.9 130.9 -154.1 123.65 -156.7 114.95 L-157.1 112.9 Q-162.85 84.1 -152.7 51.05 -149.4 39.75 -144.4 28.05 -137.5 11.85 -127.35 -5.1 L-126.0 -7.3 Q-88.55 -50.7 -16.6 -63.1 L-3.8 -65.1 14.15 -67.25 29.7 -68.3 38.85 -67.45 40.85 -67.0 70.95 -61.4 84.45 -58.9 Q96.15 -67.75 96.9 -80.2 97.2 -86.25 94.95 -93.35 92.55 -100.75 87.1 -109.3 L84.3 -113.3 82.6 -115.7 74.2 -126.05 Q81.35 -122.8 87.9 -119.35 L89.3 -118.6 97.7 -114.0 106.45 -108.55 Q113.0 -104.35 119.25 -99.65 127.15 -93.65 134.55 -87.0 L145.5 -76.25 Q164.8 -55.7 178.45 -29.9 L181.35 -42.25 Q199.0 -11.7 176.4 44.35 173.7 51.85 170.05 58.55 161.8 73.1 148.0 83.45 137.15 91.65 122.75 97.15 130.4 88.15 135.45 79.6 141.7 68.9 143.7 58.9 150.55 24.8 107.9 -1.2 L100.2 -6.2 Q87.15 -14.35 74.1 -20.7 61.15 -27.0 48.25 -31.4 31.7 -37.0 17.65 -37.65 -1.6 -37.5 -20.3 -33.4 L-31.9 -30.5 -35.55 -29.4 Q-98.25 -13.2 -117.2 27.4 -123.95 40.3 -126.75 54.65 -130.65 75.6 -128.9 99.35 L-128.6 101.95 -127.85 106.95 Q-120.1 142.65 -92.5 135.0 -87.1 132.55 -82.8 129.4 -73.35 123.1 -66.0 114.95 -60.05 108.35 -55.5 100.5 -24.9 96.9 -27.3 135.15 Z" fill="none" stroke="#3f274c" stroke-linecap="round" stroke-linejoin="round" stroke-width="1.0"/>
  </g>
</svg>
