<?xml version="1.0" encoding="UTF-8" standalone="no"?>
<svg xmlns:xlink="http://www.w3.org/1999/xlink" height="288.85px" width="349.75px" xmlns="http://www.w3.org/2000/svg">
  <g transform="matrix(1.0, 0.0, 0.0, 1.0, 159.4, 122.7)">
    <path d="M-27.45 135.15 Q-54.95 154.95 -83.35 162.5 L-90.2 164.0 Q-97.1 165.3 -104.4 165.65 -134.55 163.1 -151.0 130.05 -154.15 122.8 -156.7 114.05 L-157.05 112.0 Q-162.5 83.15 -151.95 50.2 -148.5 38.95 -143.35 27.25 -136.3 11.15 -125.95 -5.65 L-124.6 -7.85 Q-86.65 -50.8 -14.2 -61.7 L-1.35 -63.45 16.65 -65.2 32.3 -65.9 41.5 -64.7 43.45 -64.25 73.35 -57.7 86.75 -54.75 Q98.75 -63.2 99.85 -75.65 100.4 -81.7 98.4 -88.8 96.15 -96.35 91.0 -105.05 L88.35 -109.15 86.7 -111.55 Q83.25 -116.55 78.65 -122.2 85.65 -118.65 92.1 -115.1 L93.5 -114.25 101.75 -109.4 110.3 -103.7 122.8 -94.35 Q130.55 -88.1 137.75 -81.25 143.25 -75.9 148.35 -70.15 166.95 -49.0 179.85 -22.75 L183.1 -35.05 Q199.75 -3.9 175.4 51.35 172.5 58.8 168.6 65.35 159.9 79.6 145.75 89.55 134.65 97.35 120.1 102.4 128.05 93.7 133.35 85.3 139.95 74.8 142.25 64.85 150.2 31.05 108.4 3.6 L100.85 -1.6 Q88.05 -10.15 75.25 -16.9 62.45 -23.55 49.7 -28.4 33.35 -34.6 19.5 -35.5 0.25 -35.8 -18.5 -32.1 L-30.2 -29.45 -33.85 -28.4 Q-96.85 -13.55 -116.15 26.95 -123.1 39.8 -126.05 54.1 -130.15 74.95 -128.7 98.7 L-128.45 101.3 -127.75 106.35 Q-120.3 142.05 -92.6 134.65 -87.2 132.2 -82.9 129.1 -73.45 122.9 -66.0 114.75 -60.05 108.15 -55.45 100.35 -24.85 97.0 -27.45 135.15" fill="#72567e" fill-opacity="0.99607843" fill-rule="evenodd" stroke="none"/>
    <path d="M-27.45 135.15 Q-54.95 154.95 -83.35 162.5 L-90.2 164.0 Q-97.1 165.3 -104.4 165.65 -134.55 163.1 -151.0 130.05 -154.15 122.8 -156.7 114.05 L-157.05 112.0 Q-162.5 83.15 -151.95 50.2 -148.5 38.95 -143.35 27.25 -136.3 11.15 -125.95 -5.65 L-124.6 -7.85 Q-86.65 -50.8 -14.2 -61.7 L-1.35 -63.45 16.65 -65.2 32.3 -65.9 41.5 -64.7 43.45 -64.25 73.35 -57.7 86.75 -54.75 Q98.75 -63.2 99.85 -75.65 100.4 -81.7 98.4 -88.8 96.15 -96.35 91.0 -105.05 L88.35 -109.15 86.7 -111.55 Q83.25 -116.55 78.65 -122.2 85.65 -118.65 92.1 -115.1 L93.5 -114.25 101.75 -109.4 110.3 -103.7 122.8 -94.35 Q130.55 -88.1 137.75 -81.25 143.25 -75.9 148.35 -70.15 166.95 -49.0 179.85 -22.75 L183.1 -35.05 Q199.75 -3.9 175.4 51.35 172.5 58.8 168.6 65.35 159.9 79.6 145.75 89.55 134.65 97.35 120.1 102.4 128.05 93.7 133.35 85.3 139.95 74.8 142.25 64.85 150.2 31.05 108.4 3.6 L100.85 -1.6 Q88.05 -10.15 75.25 -16.9 62.45 -23.55 49.7 -28.4 33.35 -34.6 19.5 -35.5 0.25 -35.8 -18.5 -32.1 L-30.2 -29.45 -33.85 -28.4 Q-96.85 -13.55 -116.15 26.95 -123.1 39.8 -126.05 54.1 -130.15 74.95 -128.7 98.7 L-128.45 101.3 -127.75 106.35 Q-120.3 142.05 -92.6 134.65 -87.2 132.2 -82.9 129.1 -73.45 122.9 -66.0 114.75 -60.05 108.15 -55.45 100.35 -24.85 97.0 -27.45 135.15 Z" fill="none" stroke="#3f274c" stroke-linecap="round" stroke-linejoin="round" stroke-width="1.0"/>
  </g>
</svg>
