<?xml version="1.0" encoding="UTF-8" standalone="no"?>
<svg xmlns:xlink="http://www.w3.org/1999/xlink" height="288.45px" width="349.85px" xmlns="http://www.w3.org/2000/svg">
  <g transform="matrix(1.0, 0.0, 0.0, 1.0, 159.4, 122.35)">
    <path d="M-27.45 135.2 Q-54.95 154.95 -83.4 162.45 L-90.25 163.95 Q-97.05 165.3 -104.45 165.6 -134.6 163.05 -151.0 129.95 -154.15 122.7 -156.7 113.95 L-157.05 111.95 Q-162.5 83.1 -151.85 50.1 -148.4 38.85 -143.25 27.2 -136.1 11.1 -125.8 -5.7 L-124.45 -7.9 Q-86.5 -50.85 -13.95 -61.55 L-1.1 -63.3 16.9 -65.0 32.55 -65.7 41.75 -64.45 43.75 -64.0 73.6 -57.35 87.0 -54.4 Q99.0 -62.85 100.15 -75.25 100.7 -81.3 98.7 -88.45 96.55 -95.95 91.35 -104.65 L88.7 -108.75 87.1 -111.2 79.05 -121.85 92.5 -114.7 93.9 -113.9 102.15 -109.0 110.65 -103.3 Q117.1 -98.8 123.15 -93.95 130.9 -87.65 138.05 -80.75 143.55 -75.4 148.6 -69.65 167.2 -48.4 180.0 -22.15 L183.25 -34.45 Q199.85 -3.3 175.35 51.95 172.45 59.4 168.5 65.9 159.8 80.15 145.6 90.05 134.5 97.85 119.9 102.85 127.95 94.25 133.2 85.75 139.9 75.35 142.2 65.4 150.25 31.5 108.5 4.0 L100.95 -1.2 Q88.15 -9.8 75.4 -16.55 62.6 -23.3 49.9 -28.15 33.55 -34.35 19.7 -35.3 0.45 -35.65 -18.35 -31.95 L-30.0 -29.35 -33.65 -28.3 Q-96.7 -13.6 -116.05 26.9 -122.95 39.75 -125.95 54.05 -130.15 74.9 -128.7 98.65 L-128.4 101.25 -127.75 106.25 Q-120.3 142.05 -92.6 134.6 -87.2 132.15 -82.95 129.1 -73.4 122.9 -66.0 114.75 -60.05 108.15 -55.4 100.35 -24.85 97.0 -27.45 135.2" fill="#72567e" fill-opacity="0.99607843" fill-rule="evenodd" stroke="none"/>
    <path d="M-27.45 135.2 Q-54.95 154.95 -83.4 162.45 L-90.25 163.95 Q-97.05 165.3 -104.45 165.6 -134.6 163.05 -151.0 129.95 -154.15 122.7 -156.7 113.95 L-157.05 111.95 Q-162.5 83.1 -151.85 50.1 -148.4 38.85 -143.25 27.2 -136.1 11.1 -125.8 -5.7 L-124.45 -7.9 Q-86.5 -50.85 -13.95 -61.55 L-1.1 -63.3 16.9 -65.0 32.55 -65.7 41.75 -64.45 43.75 -64.0 73.6 -57.35 87.0 -54.4 Q99.0 -62.85 100.15 -75.25 100.7 -81.3 98.7 -88.45 96.55 -95.95 91.35 -104.65 L88.7 -108.75 87.1 -111.2 79.05 -121.85 92.5 -114.7 93.9 -113.9 102.15 -109.0 110.65 -103.3 Q117.1 -98.8 123.15 -93.95 130.9 -87.65 138.05 -80.75 143.55 -75.4 148.6 -69.65 167.2 -48.4 180.0 -22.15 L183.25 -34.45 Q199.85 -3.3 175.35 51.95 172.45 59.4 168.5 65.9 159.8 80.15 145.6 90.05 134.5 97.85 119.9 102.85 127.95 94.25 133.2 85.75 139.9 75.35 142.2 65.4 150.25 31.5 108.5 4.0 L100.95 -1.2 Q88.15 -9.8 75.4 -16.55 62.6 -23.3 49.9 -28.15 33.55 -34.35 19.7 -35.3 0.45 -35.65 -18.35 -31.95 L-30.0 -29.35 -33.65 -28.3 Q-96.7 -13.6 -116.05 26.9 -122.95 39.75 -125.95 54.05 -130.15 74.9 -128.7 98.65 L-128.4 101.25 -127.75 106.25 Q-120.3 142.05 -92.6 134.6 -87.2 132.15 -82.95 129.1 -73.4 122.9 -66.0 114.75 -60.05 108.15 -55.4 100.35 -24.85 97.0 -27.45 135.2 Z" fill="none" stroke="#3f274c" stroke-linecap="round" stroke-linejoin="round" stroke-width="1.0"/>
  </g>
</svg>
