<?xml version="1.0" encoding="UTF-8" standalone="no"?>
<svg xmlns:xlink="http://www.w3.org/1999/xlink" height="296.6px" width="348.8px" xmlns="http://www.w3.org/2000/svg">
  <g transform="matrix(1.0, 0.0, 0.0, 1.0, 159.9, 129.65)">
    <path d="M-27.2 135.15 Q-54.4 155.2 -82.8 163.0 L-89.6 164.6 Q-96.5 166.05 -103.75 166.45 -133.9 164.35 -150.8 131.55 -154.0 124.3 -156.75 115.65 L-157.15 113.6 Q-163.15 84.9 -153.3 51.75 -150.0 40.45 -145.15 28.65 -138.4 12.4 -128.4 -4.65 L-127.1 -6.85 Q-90.1 -50.65 -18.55 -64.25 L-5.75 -66.45 12.15 -68.9 27.6 -70.25 36.7 -69.6 38.75 -69.25 68.95 -64.45 82.5 -62.3 Q94.0 -71.5 94.35 -83.9 94.5 -90.05 92.1 -97.0 89.5 -104.35 83.8 -112.75 L80.9 -116.7 79.15 -119.0 Q75.4 -123.85 70.5 -129.15 L84.35 -122.85 85.75 -122.1 94.3 -117.7 103.15 -112.55 116.2 -104.0 Q124.25 -98.15 131.9 -91.75 137.6 -86.7 143.1 -81.25 162.9 -61.3 177.3 -35.8 L179.85 -48.2 Q198.25 -18.2 177.15 38.45 174.7 46.1 171.2 52.85 163.35 67.55 149.8 78.3 139.15 86.8 124.9 92.65 132.4 83.5 137.15 74.8 143.15 63.95 144.85 53.9 150.85 19.65 107.5 -5.3 L99.65 -10.05 Q86.4 -17.9 73.2 -23.85 60.1 -29.75 47.05 -33.85 30.4 -39.1 16.2 -39.35 -3.15 -38.95 -21.7 -34.5 -27.55 -33.15 -33.25 -31.4 L-36.85 -30.2 Q-99.3 -12.95 -117.95 27.8 -124.6 40.7 -127.3 55.1 -130.95 76.1 -129.05 99.8 L-128.7 102.4 -127.95 107.5 Q-120.0 143.05 -92.4 135.3 -87.0 132.75 -82.7 129.65 -73.25 123.35 -65.95 115.1 -60.0 108.5 -55.5 100.6 -24.95 96.95 -27.2 135.15" fill="#72567e" fill-opacity="0.99607843" fill-rule="evenodd" stroke="none"/>
    <path d="M-27.2 135.15 Q-54.4 155.2 -82.8 163.0 L-89.6 164.6 Q-96.5 166.05 -103.75 166.45 -133.9 164.35 -150.8 131.55 -154.0 124.3 -156.75 115.65 L-157.15 113.6 Q-163.15 84.9 -153.3 51.75 -150.0 40.45 -145.15 28.65 -138.4 12.4 -128.4 -4.65 L-127.1 -6.85 Q-90.1 -50.65 -18.55 -64.25 L-5.75 -66.45 12.15 -68.9 27.6 -70.25 36.7 -69.6 38.75 -69.25 68.95 -64.45 82.5 -62.3 Q94.0 -71.5 94.35 -83.9 94.5 -90.05 92.1 -97.0 89.5 -104.35 83.8 -112.75 L80.9 -116.7 79.15 -119.0 Q75.4 -123.85 70.5 -129.15 L84.35 -122.85 85.75 -122.1 94.3 -117.7 103.15 -112.55 116.2 -104.0 Q124.25 -98.15 131.9 -91.75 137.6 -86.7 143.1 -81.25 162.9 -61.3 177.3 -35.8 L179.85 -48.2 Q198.25 -18.2 177.15 38.45 174.7 46.1 171.2 52.85 163.35 67.55 149.8 78.3 139.15 86.8 124.9 92.65 132.4 83.5 137.15 74.8 143.15 63.95 144.85 53.9 150.85 19.65 107.5 -5.3 L99.65 -10.05 Q86.4 -17.9 73.2 -23.85 60.1 -29.75 47.05 -33.85 30.4 -39.1 16.2 -39.35 -3.15 -38.95 -21.7 -34.5 -27.55 -33.15 -33.25 -31.4 L-36.85 -30.2 Q-99.3 -12.95 -117.95 27.8 -124.6 40.7 -127.3 55.1 -130.95 76.1 -129.05 99.8 L-128.7 102.4 -127.95 107.5 Q-120.0 143.05 -92.4 135.3 -87.0 132.75 -82.7 129.65 -73.25 123.35 -65.95 115.1 -60.0 108.5 -55.5 100.6 -24.95 96.95 -27.2 135.15 Z" fill="none" stroke="#3f274c" stroke-linecap="round" stroke-linejoin="round" stroke-width="1.0"/>
  </g>
</svg>
