<?xml version="1.0" encoding="UTF-8" standalone="no"?>
<svg xmlns:xlink="http://www.w3.org/1999/xlink" height="18.8px" width="52.75px" xmlns="http://www.w3.org/2000/svg">
  <g transform="matrix(1.0, 0.0, 0.0, 1.0, -97.45, 59.05)">
    <path d="M97.85 -59.05 L100.7 -58.05 Q101.2 -57.8 101.25 -57.35 99.35 -56.65 97.65 -58.4 97.2 -58.9 97.85 -59.05 M111.35 -56.15 Q128.75 -52.25 137.05 -48.3 145.35 -44.35 149.35 -41.3 153.35 -38.3 139.05 -43.95 124.7 -49.6 112.7 -53.9 110.4 -54.75 111.35 -56.15 M104.75 -56.65 L108.05 -55.9 Q108.7 -55.85 108.6 -55.25 107.3 -54.1 104.75 -55.55 103.7 -56.15 104.75 -56.65" fill="#ffffff" fill-opacity="0.0" fill-rule="evenodd" stroke="none"/>
  </g>
</svg>
