<?xml version="1.0" encoding="UTF-8" standalone="no"?>
<svg xmlns:xlink="http://www.w3.org/1999/xlink" height="300.55px" width="348.1px" xmlns="http://www.w3.org/2000/svg">
  <g transform="matrix(1.0, 0.0, 0.0, 1.0, 160.15, 133.15)">
    <path d="M-27.05 135.1 Q-54.2 155.3 -82.5 163.3 L-89.3 164.9 Q-96.1 166.4 -103.4 166.9 -133.6 165.05 -150.65 132.35 -154.0 125.15 -156.75 116.5 L-157.2 114.45 Q-163.4 85.75 -154.0 52.55 -150.85 41.25 -146.1 29.4 -139.55 13.05 -129.75 -4.05 L-128.45 -6.3 Q-91.9 -50.45 -20.9 -65.55 L-8.15 -68.0 9.7 -70.85 25.05 -72.5 34.15 -72.15 36.15 -71.8 66.5 -67.95 80.1 -66.2 Q91.3 -75.7 91.3 -88.2 91.3 -94.25 88.65 -101.2 85.8 -108.45 79.9 -116.65 L76.85 -120.5 75.0 -122.8 66.05 -132.65 Q73.35 -129.8 80.1 -126.8 L81.55 -126.1 90.2 -121.95 99.25 -117.05 112.5 -108.9 Q120.75 -103.35 128.55 -97.15 L140.1 -87.0 Q160.5 -67.65 175.65 -42.6 L177.8 -55.1 Q197.15 -25.6 177.75 31.65 175.6 39.3 172.25 46.15 164.85 61.15 151.6 72.3 141.25 81.1 127.2 87.4 134.4 78.05 138.9 69.15 144.55 58.15 145.95 48.05 150.9 13.55 106.85 -10.0 L98.85 -14.55 Q85.35 -21.9 72.0 -27.5 58.65 -33.05 45.55 -36.7 28.7 -41.4 14.35 -41.35 -4.9 -40.5 -23.45 -35.7 L-34.95 -32.35 -38.5 -31.15 Q-100.6 -12.6 -118.9 28.25 -125.5 41.25 -127.95 55.65 -131.45 76.65 -129.2 100.4 L-128.85 103.0 -128.05 108.1 Q-119.8 143.65 -92.3 135.65 -86.9 133.05 -82.6 129.9 -73.2 123.55 -65.95 115.3 -60.0 108.65 -55.55 100.75 -25.1 96.85 -27.05 135.1" fill="#72567e" fill-opacity="0.99607843" fill-rule="evenodd" stroke="none"/>
    <path d="M-27.05 135.1 Q-54.2 155.3 -82.5 163.3 L-89.3 164.9 Q-96.1 166.4 -103.4 166.9 -133.6 165.05 -150.65 132.35 -154.0 125.15 -156.75 116.5 L-157.2 114.45 Q-163.4 85.75 -154.0 52.55 -150.85 41.25 -146.1 29.4 -139.55 13.05 -129.75 -4.05 L-128.45 -6.3 Q-91.9 -50.45 -20.9 -65.55 L-8.15 -68.0 9.7 -70.85 25.05 -72.5 34.15 -72.15 36.15 -71.8 66.5 -67.95 80.1 -66.2 Q91.3 -75.7 91.3 -88.2 91.3 -94.25 88.65 -101.2 85.8 -108.45 79.9 -116.65 L76.85 -120.5 75.0 -122.8 66.05 -132.65 Q73.35 -129.8 80.1 -126.8 L81.55 -126.1 90.2 -121.95 99.25 -117.05 112.5 -108.9 Q120.75 -103.35 128.55 -97.15 L140.1 -87.0 Q160.5 -67.65 175.65 -42.6 L177.8 -55.1 Q197.15 -25.6 177.75 31.65 175.6 39.3 172.25 46.15 164.85 61.15 151.6 72.3 141.25 81.1 127.2 87.4 134.4 78.05 138.9 69.15 144.55 58.15 145.95 48.05 150.9 13.55 106.85 -10.0 L98.85 -14.55 Q85.35 -21.9 72.0 -27.5 58.65 -33.05 45.55 -36.7 28.7 -41.4 14.35 -41.35 -4.9 -40.5 -23.45 -35.7 L-34.95 -32.35 -38.5 -31.15 Q-100.6 -12.6 -118.9 28.25 -125.5 41.25 -127.95 55.65 -131.45 76.65 -129.2 100.4 L-128.85 103.0 -128.05 108.1 Q-119.8 143.65 -92.3 135.65 -86.9 133.05 -82.6 129.9 -73.2 123.55 -65.95 115.3 -60.0 108.65 -55.55 100.75 -25.1 96.85 -27.05 135.1 Z" fill="none" stroke="#3f274c" stroke-linecap="round" stroke-linejoin="round" stroke-width="1.0"/>
  </g>
</svg>
