<?xml version="1.0" encoding="UTF-8" standalone="no"?>
<svg xmlns:xlink="http://www.w3.org/1999/xlink" height="304.35px" width="347.35px" xmlns="http://www.w3.org/2000/svg">
  <g transform="matrix(1.0, 0.0, 0.0, 1.0, 160.45, 136.55)">
    <path d="M-26.9 135.1 Q-53.95 155.45 -82.2 163.55 L-88.95 165.25 Q-95.85 166.75 -103.05 167.3 -133.25 165.65 -150.55 133.1 -153.9 126.0 -156.8 117.35 L-157.2 115.3 Q-163.7 86.65 -154.7 53.4 -151.7 42.0 -147.05 30.15 -140.65 13.75 -131.05 -3.5 L-129.8 -5.7 Q-93.7 -50.3 -23.25 -66.8 L-10.55 -69.55 7.25 -72.7 22.5 -74.7 Q26.5 -75.0 31.5 -74.6 L33.5 -74.35 63.95 -71.4 77.6 -70.1 Q88.5 -79.9 88.15 -92.4 87.95 -98.45 85.1 -105.3 82.05 -112.5 75.85 -120.5 L72.75 -124.25 70.8 -126.5 Q66.75 -131.05 61.55 -136.05 68.9 -133.5 75.75 -130.6 L77.25 -130.0 86.0 -126.1 95.2 -121.5 Q102.1 -117.8 108.7 -113.75 117.1 -108.4 125.1 -102.5 L136.95 -92.7 Q157.95 -73.95 173.85 -49.35 L175.6 -61.95 Q195.85 -33.0 178.2 24.75 176.25 32.5 173.1 39.45 166.2 54.7 153.3 66.2 143.2 75.3 129.35 82.0 136.25 72.4 140.45 63.45 145.8 52.3 146.9 42.1 150.8 7.55 106.05 -14.7 L97.9 -19.0 Q84.2 -25.95 70.7 -31.15 57.2 -36.25 43.95 -39.55 27.0 -43.75 12.5 -43.35 -6.75 -42.15 -25.2 -36.95 L-36.65 -33.35 -40.2 -32.05 Q-101.85 -12.3 -119.9 28.7 -126.25 41.75 -128.65 56.2 -131.85 77.3 -129.35 101.0 L-129.0 103.6 -128.1 108.7 Q-119.7 144.2 -92.15 135.95 -86.8 133.4 -82.5 130.2 -73.1 123.75 -65.9 115.5 -60.05 108.75 -55.6 100.85 -25.15 96.8 -26.9 135.1" fill="#72567e" fill-opacity="0.99607843" fill-rule="evenodd" stroke="none"/>
    <path d="M-26.9 135.1 Q-53.95 155.45 -82.2 163.55 L-88.95 165.25 Q-95.85 166.75 -103.05 167.3 -133.25 165.65 -150.55 133.1 -153.9 126.0 -156.8 117.35 L-157.2 115.3 Q-163.7 86.65 -154.7 53.4 -151.7 42.0 -147.05 30.15 -140.65 13.75 -131.05 -3.5 L-129.8 -5.7 Q-93.7 -50.3 -23.25 -66.8 L-10.55 -69.55 7.25 -72.7 22.5 -74.7 Q26.5 -75.0 31.5 -74.6 L33.5 -74.35 63.95 -71.4 77.6 -70.1 Q88.5 -79.9 88.15 -92.4 87.95 -98.45 85.1 -105.3 82.05 -112.5 75.85 -120.5 L72.75 -124.25 70.8 -126.5 Q66.75 -131.05 61.55 -136.05 68.9 -133.5 75.75 -130.6 L77.25 -130.0 86.0 -126.1 95.2 -121.5 Q102.1 -117.8 108.7 -113.75 117.1 -108.4 125.1 -102.5 L136.95 -92.7 Q157.95 -73.95 173.85 -49.35 L175.6 -61.95 Q195.85 -33.0 178.2 24.75 176.25 32.5 173.1 39.45 166.2 54.7 153.3 66.2 143.2 75.3 129.35 82.0 136.25 72.4 140.45 63.45 145.8 52.3 146.9 42.1 150.8 7.55 106.05 -14.7 L97.9 -19.0 Q84.2 -25.95 70.7 -31.15 57.2 -36.25 43.95 -39.55 27.0 -43.75 12.5 -43.35 -6.75 -42.15 -25.2 -36.95 L-36.65 -33.35 -40.2 -32.05 Q-101.85 -12.3 -119.9 28.7 -126.25 41.75 -128.65 56.2 -131.85 77.3 -129.35 101.0 L-129.0 103.6 -128.1 108.7 Q-119.7 144.2 -92.15 135.95 -86.8 133.4 -82.5 130.2 -73.1 123.75 -65.9 115.5 -60.05 108.75 -55.6 100.85 -25.15 96.8 -26.9 135.1 Z" fill="none" stroke="#3f274c" stroke-linecap="round" stroke-linejoin="round" stroke-width="1.0"/>
  </g>
</svg>
