<?xml version="1.0" encoding="UTF-8" standalone="no"?>
<svg xmlns:xlink="http://www.w3.org/1999/xlink" height="308.15px" width="346.5px" xmlns="http://www.w3.org/2000/svg">
  <g transform="matrix(1.0, 0.0, 0.0, 1.0, 160.7, 139.9)">
    <path d="M-26.75 135.05 Q-53.65 155.55 -81.85 163.85 L-88.65 165.55 Q-95.45 167.05 -102.7 167.75 -132.9 166.35 -150.4 133.9 -153.85 126.8 -156.8 118.2 L-157.25 116.15 Q-164.0 87.6 -155.35 54.25 -152.5 42.85 -148.0 30.9 -141.75 14.5 -132.35 -2.9 L-131.1 -5.15 Q-95.55 -50.15 -25.65 -68.0 L-13.0 -71.0 4.7 -74.55 19.85 -76.85 Q23.85 -77.2 28.75 -77.05 L30.8 -76.85 61.3 -74.8 75.0 -73.9 Q85.6 -84.1 84.85 -96.55 84.5 -102.6 81.45 -109.35 78.1 -116.4 71.7 -124.25 L68.5 -127.9 66.5 -130.1 56.95 -139.4 Q64.4 -137.0 71.35 -134.35 L72.8 -133.75 81.7 -130.15 91.0 -125.85 Q98.05 -122.4 104.75 -118.5 113.3 -113.4 121.5 -107.75 L133.65 -98.35 Q155.2 -80.2 171.85 -56.1 L173.25 -68.75 Q194.35 -40.45 178.45 17.85 176.75 25.6 173.8 32.7 167.35 48.1 154.8 60.0 145.0 69.4 131.3 76.55 138.0 66.75 141.9 57.65 146.85 46.25 147.7 36.1 150.5 1.45 105.1 -19.4 L96.85 -23.45 Q82.9 -30.05 69.3 -34.8 55.65 -39.45 42.3 -42.35 25.2 -46.0 10.55 -45.3 -8.65 -43.65 -27.0 -38.1 L-38.35 -34.3 -41.9 -32.9 Q-103.15 -11.95 -120.85 29.15 -127.05 42.3 -129.3 56.75 -132.3 77.9 -129.55 101.6 L-129.15 104.2 -128.2 109.3 Q-119.5 144.8 -92.05 136.3 -86.7 133.7 -82.35 130.5 -73.05 124.0 -65.85 115.7 -60.05 108.95 -55.65 101.0 -25.2 96.8 -26.75 135.05" fill="#72567e" fill-opacity="0.99607843" fill-rule="evenodd" stroke="none"/>
    <path d="M-26.75 135.05 Q-53.65 155.55 -81.85 163.85 L-88.65 165.55 Q-95.45 167.05 -102.7 167.75 -132.9 166.35 -150.4 133.9 -153.85 126.8 -156.8 118.2 L-157.25 116.15 Q-164.0 87.6 -155.35 54.25 -152.5 42.85 -148.0 30.9 -141.75 14.5 -132.35 -2.9 L-131.1 -5.15 Q-95.55 -50.15 -25.65 -68.0 L-13.0 -71.0 4.7 -74.55 19.85 -76.85 Q23.85 -77.2 28.75 -77.05 L30.8 -76.85 61.3 -74.8 75.0 -73.9 Q85.6 -84.1 84.85 -96.55 84.5 -102.6 81.45 -109.35 78.1 -116.4 71.7 -124.25 L68.5 -127.9 66.5 -130.1 56.95 -139.4 Q64.4 -137.0 71.35 -134.35 L72.8 -133.75 81.7 -130.15 91.0 -125.85 Q98.05 -122.4 104.75 -118.5 113.3 -113.4 121.5 -107.75 L133.65 -98.35 Q155.2 -80.2 171.85 -56.1 L173.25 -68.75 Q194.35 -40.45 178.45 17.85 176.75 25.6 173.8 32.7 167.35 48.1 154.8 60.0 145.0 69.4 131.3 76.55 138.0 66.75 141.9 57.65 146.85 46.25 147.7 36.1 150.5 1.45 105.1 -19.4 L96.85 -23.45 Q82.9 -30.05 69.3 -34.8 55.65 -39.45 42.3 -42.35 25.2 -46.0 10.55 -45.3 -8.65 -43.65 -27.0 -38.1 L-38.35 -34.3 -41.9 -32.9 Q-103.15 -11.95 -120.85 29.15 -127.05 42.3 -129.3 56.75 -132.3 77.9 -129.55 101.6 L-129.15 104.2 -128.2 109.3 Q-119.5 144.8 -92.05 136.3 -86.7 133.7 -82.35 130.5 -73.05 124.0 -65.85 115.7 -60.05 108.95 -55.65 101.0 -25.2 96.8 -26.75 135.05 Z" fill="none" stroke="#3f274c" stroke-linecap="round" stroke-linejoin="round" stroke-width="1.0"/>
  </g>
</svg>
