<?xml version="1.0" encoding="UTF-8" standalone="no"?>
<svg xmlns:xlink="http://www.w3.org/1999/xlink" height="315.3px" width="344.45px" xmlns="http://www.w3.org/2000/svg">
  <g transform="matrix(1.0, 0.0, 0.0, 1.0, 161.3, 146.2)">
    <path d="M-26.45 135.0 Q-53.2 155.8 -81.25 164.4 L-88.0 166.2 Q-94.8 167.8 -102.0 168.6 -132.2 167.65 -150.1 135.5 -153.7 128.4 -156.8 119.9 L-157.3 117.85 Q-164.55 89.45 -156.75 55.95 -154.05 44.5 -149.85 32.5 -144.0 15.85 -134.95 -1.65 L-133.75 -3.95 Q-99.25 -49.7 -30.5 -70.35 L-18.05 -73.85 -0.4 -78.15 14.4 -81.05 23.2 -81.75 25.25 -81.7 55.8 -81.5 69.5 -81.45 Q79.5 -92.25 78.0 -104.6 77.2 -110.65 73.75 -117.2 70.1 -124.1 63.2 -131.5 L59.7 -134.95 57.6 -137.0 Q53.2 -141.2 47.5 -145.7 L62.15 -141.55 63.7 -141.05 72.8 -138.0 82.35 -134.25 Q89.55 -131.25 96.5 -127.75 105.35 -123.25 113.85 -118.05 L126.55 -109.4 Q149.2 -92.6 167.25 -69.55 L167.9 -82.25 Q190.65 -55.25 178.35 3.85 177.1 11.75 174.6 18.95 169.05 34.8 157.3 47.4 148.0 57.3 134.85 65.3 140.85 55.2 144.25 45.8 148.55 34.2 148.75 24.0 149.45 -10.8 102.85 -28.85 L94.4 -32.4 Q80.1 -38.15 66.2 -42.05 52.25 -45.85 38.8 -47.95 21.55 -50.55 6.6 -49.15 -12.5 -46.75 -30.65 -40.4 L-41.85 -36.15 -45.35 -34.6 Q-105.7 -11.25 -122.75 30.15 -128.75 43.45 -130.6 57.95 -133.15 79.05 -129.85 102.8 L-129.4 105.4 -128.35 110.55 Q-119.1 145.8 -91.8 137.0 -86.55 134.3 -82.15 131.05 -72.85 124.45 -65.8 116.05 -60.0 109.25 -55.75 101.25 -25.3 96.75 -26.45 135.0" fill="#72567e" fill-opacity="0.99607843" fill-rule="evenodd" stroke="none"/>
    <path d="M-26.45 135.0 Q-53.2 155.8 -81.25 164.4 L-88.0 166.2 Q-94.8 167.8 -102.0 168.6 -132.2 167.65 -150.1 135.5 -153.7 128.4 -156.8 119.9 L-157.3 117.85 Q-164.55 89.45 -156.75 55.95 -154.05 44.5 -149.85 32.5 -144.0 15.85 -134.95 -1.65 L-133.75 -3.95 Q-99.25 -49.7 -30.5 -70.35 L-18.05 -73.85 -0.4 -78.15 14.4 -81.05 23.2 -81.75 25.25 -81.7 55.8 -81.5 69.5 -81.45 Q79.5 -92.25 78.0 -104.6 77.2 -110.65 73.75 -117.2 70.1 -124.1 63.2 -131.5 L59.7 -134.95 57.6 -137.0 Q53.2 -141.2 47.5 -145.7 L62.15 -141.55 63.7 -141.05 72.8 -138.0 82.35 -134.25 Q89.55 -131.25 96.5 -127.75 105.35 -123.25 113.85 -118.05 L126.55 -109.4 Q149.2 -92.6 167.25 -69.55 L167.9 -82.25 Q190.65 -55.25 178.35 3.85 177.1 11.75 174.6 18.95 169.05 34.8 157.3 47.4 148.0 57.3 134.85 65.3 140.85 55.2 144.25 45.8 148.55 34.2 148.75 24.0 149.45 -10.8 102.85 -28.85 L94.4 -32.4 Q80.1 -38.15 66.2 -42.05 52.25 -45.85 38.8 -47.95 21.55 -50.55 6.6 -49.15 -12.5 -46.75 -30.65 -40.4 L-41.85 -36.15 -45.35 -34.6 Q-105.7 -11.25 -122.75 30.15 -128.75 43.45 -130.6 57.95 -133.15 79.05 -129.85 102.8 L-129.4 105.4 -128.35 110.55 Q-119.1 145.8 -91.8 137.0 -86.55 134.3 -82.15 131.05 -72.85 124.45 -65.8 116.05 -60.0 109.25 -55.75 101.25 -25.3 96.75 -26.45 135.0 Z" fill="none" stroke="#3f274c" stroke-linecap="round" stroke-linejoin="round" stroke-width="1.0"/>
  </g>
</svg>
