<?xml version="1.0" encoding="UTF-8" standalone="no"?>
<svg xmlns:xlink="http://www.w3.org/1999/xlink" height="318.7px" width="343.35px" xmlns="http://www.w3.org/2000/svg">
  <g transform="matrix(1.0, 0.0, 0.0, 1.0, 161.6, 149.2)">
    <path d="M-26.35 134.95 Q-52.9 155.9 -80.95 164.65 L-87.7 166.5 Q-94.45 168.15 -101.65 169.0 -131.85 168.25 -149.95 136.25 -153.6 129.2 -156.8 120.75 L-157.3 118.7 Q-164.85 90.35 -157.4 56.85 -154.85 45.3 -150.8 33.3 -145.1 16.6 -136.25 -1.0 L-135.1 -3.3 Q-101.05 -49.4 -33.0 -71.45 L-20.6 -75.2 -3.05 -79.85 11.65 -83.1 20.3 -84.05 22.35 -84.05 52.9 -84.8 66.65 -85.15 Q76.2 -96.25 74.4 -108.55 73.45 -114.6 69.8 -121.0 65.85 -127.75 58.75 -135.0 L55.2 -138.3 53.05 -140.3 Q48.5 -144.35 42.7 -148.7 L57.45 -145.0 59.0 -144.55 68.2 -141.75 77.85 -138.3 Q85.15 -135.5 92.2 -132.25 101.15 -127.95 109.85 -123.05 116.45 -119.15 122.8 -114.8 145.9 -98.75 164.7 -76.2 L164.95 -88.9 Q188.5 -62.65 178.0 -3.15 176.95 4.75 174.7 12.05 169.7 27.95 158.25 40.95 149.35 51.15 136.4 59.55 142.1 49.2 145.2 39.8 149.1 28.05 149.0 17.85 148.7 -16.85 101.55 -33.6 L93.0 -36.9 Q78.55 -42.2 64.5 -45.65 50.5 -49.1 36.95 -50.7 19.55 -52.85 4.55 -51.05 -14.5 -48.2 -32.5 -41.55 L-43.65 -37.05 -47.1 -35.45 Q-107.0 -10.85 -123.7 30.65 -129.55 43.95 -131.25 58.5 -133.55 79.75 -130.0 103.4 L-129.5 106.0 -128.45 111.15 Q-118.9 146.4 -91.7 137.35 -86.35 134.6 -82.0 131.3 -72.75 124.7 -65.75 116.25 -60.05 109.45 -55.8 101.4 -25.4 96.7 -26.35 134.95" fill="#72567e" fill-opacity="0.99607843" fill-rule="evenodd" stroke="none"/>
    <path d="M-26.35 134.95 Q-52.9 155.9 -80.95 164.65 L-87.7 166.5 Q-94.45 168.15 -101.65 169.0 -131.85 168.25 -149.95 136.25 -153.6 129.2 -156.8 120.75 L-157.3 118.7 Q-164.85 90.35 -157.4 56.85 -154.85 45.3 -150.8 33.3 -145.1 16.6 -136.25 -1.0 L-135.1 -3.3 Q-101.05 -49.4 -33.0 -71.45 L-20.6 -75.2 -3.05 -79.85 11.65 -83.1 20.3 -84.05 22.35 -84.05 52.9 -84.8 66.65 -85.15 Q76.2 -96.25 74.4 -108.55 73.45 -114.6 69.8 -121.0 65.85 -127.75 58.75 -135.0 L55.2 -138.3 53.05 -140.3 Q48.5 -144.35 42.7 -148.7 L57.45 -145.0 59.0 -144.55 68.2 -141.75 77.85 -138.3 Q85.15 -135.5 92.2 -132.25 101.15 -127.95 109.85 -123.05 116.45 -119.15 122.8 -114.8 145.9 -98.75 164.7 -76.2 L164.95 -88.9 Q188.5 -62.65 178.0 -3.15 176.95 4.75 174.7 12.05 169.7 27.95 158.25 40.95 149.35 51.15 136.4 59.55 142.1 49.2 145.2 39.8 149.1 28.05 149.0 17.85 148.7 -16.85 101.55 -33.6 L93.0 -36.9 Q78.55 -42.2 64.5 -45.65 50.5 -49.1 36.95 -50.7 19.55 -52.85 4.55 -51.05 -14.5 -48.2 -32.5 -41.55 L-43.65 -37.05 -47.1 -35.45 Q-107.0 -10.85 -123.7 30.65 -129.55 43.95 -131.25 58.5 -133.55 79.75 -130.0 103.4 L-129.5 106.0 -128.45 111.15 Q-118.9 146.4 -91.7 137.35 -86.35 134.6 -82.0 131.3 -72.75 124.7 -65.75 116.25 -60.05 109.45 -55.8 101.4 -25.4 96.7 -26.35 134.95 Z" fill="none" stroke="#3f274c" stroke-linecap="round" stroke-linejoin="round" stroke-width="1.0"/>
  </g>
</svg>
