<?xml version="1.0" encoding="UTF-8" standalone="no"?>
<svg xmlns:xlink="http://www.w3.org/1999/xlink" height="321.95px" width="342.1px" xmlns="http://www.w3.org/2000/svg">
  <g transform="matrix(1.0, 0.0, 0.0, 1.0, 161.9, 152.05)">
    <path d="M-26.2 134.95 Q-52.65 156.05 -80.6 164.9 L-87.35 166.8 Q-94.1 168.55 -101.25 169.4 -131.55 168.9 -149.8 137.05 -153.55 130.1 -156.75 121.55 L-157.3 119.55 Q-165.1 91.3 -158.05 57.7 -155.65 46.25 -151.7 34.1 -146.2 17.4 -137.55 -0.35 L-136.4 -2.65 Q-102.85 -49.15 -35.5 -72.55 L-23.15 -76.55 -5.75 -81.55 8.8 -85.1 17.35 -86.25 19.45 -86.35 49.95 -88.0 63.65 -88.8 Q72.9 -100.2 70.65 -112.45 69.55 -118.45 65.7 -124.75 61.6 -131.35 54.25 -138.35 L50.6 -141.6 48.35 -143.5 37.8 -151.55 52.65 -148.35 54.2 -147.95 63.45 -145.45 73.2 -142.25 Q80.65 -139.7 87.75 -136.65 96.85 -132.65 105.7 -128.0 L118.9 -120.15 Q142.45 -104.75 161.95 -82.85 L161.8 -95.55 Q186.1 -70.05 177.45 -10.2 176.65 -2.25 174.6 5.05 170.05 21.2 159.05 34.5 150.45 44.95 137.75 53.75 143.15 43.25 145.95 33.7 149.55 21.85 149.1 11.65 147.75 -23.05 100.15 -38.35 L91.45 -41.35 Q76.85 -46.2 62.7 -49.25 48.6 -52.25 35.0 -53.5 17.6 -55.05 2.45 -52.9 -16.5 -49.65 -34.4 -42.65 L-45.45 -37.9 -48.85 -36.25 Q-108.25 -10.45 -124.65 31.15 -130.35 44.6 -131.9 59.1 -134.0 80.35 -130.15 104.0 L-129.65 106.55 -128.5 111.75 Q-118.75 146.95 -91.55 137.7 -86.3 134.85 -81.9 131.6 -72.65 124.95 -65.7 116.45 -60.05 109.55 -55.85 101.55 -25.45 96.6 -26.2 134.95" fill="#72567e" fill-opacity="0.99607843" fill-rule="evenodd" stroke="none"/>
    <path d="M-26.2 134.95 Q-52.65 156.05 -80.6 164.9 L-87.35 166.8 Q-94.1 168.55 -101.25 169.4 -131.55 168.9 -149.8 137.05 -153.55 130.1 -156.75 121.55 L-157.3 119.55 Q-165.1 91.3 -158.05 57.7 -155.65 46.25 -151.7 34.1 -146.2 17.4 -137.55 -0.35 L-136.4 -2.65 Q-102.85 -49.15 -35.5 -72.55 L-23.15 -76.55 -5.75 -81.55 8.8 -85.1 17.35 -86.25 19.45 -86.35 49.95 -88.0 63.65 -88.8 Q72.9 -100.2 70.65 -112.45 69.55 -118.45 65.7 -124.75 61.6 -131.35 54.25 -138.35 L50.6 -141.6 48.35 -143.5 37.8 -151.55 52.65 -148.35 54.2 -147.95 63.45 -145.45 73.2 -142.25 Q80.65 -139.7 87.75 -136.65 96.85 -132.65 105.7 -128.0 L118.9 -120.15 Q142.45 -104.75 161.95 -82.85 L161.8 -95.55 Q186.1 -70.05 177.45 -10.2 176.65 -2.25 174.6 5.05 170.05 21.2 159.05 34.5 150.45 44.95 137.75 53.75 143.15 43.25 145.95 33.7 149.55 21.85 149.1 11.65 147.75 -23.05 100.15 -38.35 L91.45 -41.35 Q76.85 -46.2 62.7 -49.25 48.6 -52.25 35.0 -53.5 17.6 -55.05 2.45 -52.9 -16.5 -49.65 -34.4 -42.65 L-45.45 -37.9 -48.85 -36.25 Q-108.25 -10.45 -124.65 31.15 -130.35 44.6 -131.9 59.1 -134.0 80.35 -130.15 104.0 L-129.65 106.55 -128.5 111.75 Q-118.75 146.95 -91.55 137.7 -86.3 134.85 -81.9 131.6 -72.65 124.95 -65.7 116.45 -60.05 109.55 -55.85 101.55 -25.45 96.6 -26.2 134.95 Z" fill="none" stroke="#3f274c" stroke-linecap="round" stroke-linejoin="round" stroke-width="1.0"/>
  </g>
</svg>
