<?xml version="1.0" encoding="UTF-8" standalone="no"?>
<svg xmlns:xlink="http://www.w3.org/1999/xlink" height="325.15px" width="340.95px" xmlns="http://www.w3.org/2000/svg">
  <g transform="matrix(1.0, 0.0, 0.0, 1.0, 162.25, 154.85)">
    <path d="M-26.05 134.9 Q-52.45 156.15 -80.3 165.15 L-87.0 167.1 Q-93.8 168.85 -100.9 169.8 -131.2 169.6 -149.65 137.85 -153.45 130.9 -156.75 122.4 L-157.3 120.45 Q-165.4 92.2 -158.7 58.6 -156.45 47.05 -152.65 34.9 -147.3 18.1 -138.85 0.25 L-137.75 -2.0 Q-104.65 -48.85 -38.05 -73.6 L-25.8 -77.85 -8.5 -83.2 5.9 -87.0 14.4 -88.45 16.45 -88.6 46.9 -91.2 60.55 -92.4 Q69.5 -104.0 66.85 -116.25 65.5 -122.15 61.55 -128.35 57.2 -134.85 49.7 -141.65 L45.95 -144.75 43.65 -146.6 32.8 -154.35 47.75 -151.55 49.35 -151.2 58.65 -149.0 68.5 -146.1 Q76.0 -143.75 83.2 -140.95 92.45 -137.25 101.4 -132.85 108.25 -129.4 114.8 -125.4 138.9 -110.75 159.0 -89.4 L158.45 -102.1 Q183.6 -77.35 176.7 -17.25 176.1 -9.3 174.35 -1.9 170.25 14.25 159.7 27.95 151.4 38.7 138.95 47.8 144.05 37.15 146.55 27.55 149.8 15.55 149.05 5.4 146.6 -29.25 98.55 -43.05 L89.8 -45.85 Q75.05 -50.2 60.85 -52.85 46.6 -55.4 33.0 -56.2 15.6 -57.25 0.3 -54.7 -18.6 -51.1 -36.35 -43.7 L-47.3 -38.75 -50.65 -37.0 Q-109.5 -10.05 -125.6 31.65 -131.15 45.15 -132.55 59.7 -134.4 80.95 -130.25 104.6 L-129.75 107.15 -128.6 112.4 Q-118.55 147.45 -91.45 138.0 -86.2 135.25 -81.75 131.85 -72.6 125.1 -65.65 116.6 -60.1 109.7 -55.85 101.65 -25.55 96.65 -26.05 134.9" fill="#72567e" fill-opacity="0.99607843" fill-rule="evenodd" stroke="none"/>
    <path d="M-26.05 134.9 Q-52.45 156.15 -80.3 165.15 L-87.0 167.1 Q-93.8 168.85 -100.9 169.8 -131.2 169.6 -149.65 137.85 -153.45 130.9 -156.75 122.4 L-157.3 120.45 Q-165.4 92.2 -158.7 58.6 -156.45 47.05 -152.65 34.9 -147.3 18.1 -138.85 0.25 L-137.75 -2.0 Q-104.65 -48.85 -38.05 -73.6 L-25.8 -77.85 -8.5 -83.2 5.9 -87.0 14.4 -88.45 16.45 -88.6 46.9 -91.2 60.55 -92.4 Q69.5 -104.0 66.85 -116.25 65.5 -122.15 61.55 -128.35 57.2 -134.85 49.7 -141.65 L45.95 -144.75 43.65 -146.6 32.8 -154.35 47.75 -151.55 49.35 -151.2 58.65 -149.0 68.5 -146.1 Q76.0 -143.75 83.2 -140.95 92.45 -137.25 101.4 -132.85 108.25 -129.4 114.8 -125.4 138.9 -110.75 159.0 -89.4 L158.45 -102.1 Q183.6 -77.35 176.7 -17.25 176.1 -9.3 174.35 -1.9 170.25 14.25 159.7 27.95 151.4 38.7 138.95 47.8 144.05 37.15 146.55 27.55 149.8 15.55 149.05 5.4 146.6 -29.25 98.55 -43.05 L89.8 -45.85 Q75.05 -50.2 60.85 -52.85 46.6 -55.4 33.0 -56.2 15.6 -57.25 0.3 -54.7 -18.6 -51.1 -36.35 -43.7 L-47.3 -38.75 -50.65 -37.0 Q-109.5 -10.05 -125.6 31.65 -131.15 45.15 -132.55 59.7 -134.4 80.95 -130.25 104.6 L-129.75 107.15 -128.6 112.4 Q-118.55 147.45 -91.45 138.0 -86.2 135.25 -81.75 131.85 -72.6 125.1 -65.65 116.6 -60.1 109.7 -55.85 101.65 -25.55 96.65 -26.05 134.9 Z" fill="none" stroke="#3f274c" stroke-linecap="round" stroke-linejoin="round" stroke-width="1.0"/>
  </g>
</svg>
