<?xml version="1.0" encoding="UTF-8" standalone="no"?>
<svg xmlns:xlink="http://www.w3.org/1999/xlink" height="331.2px" width="338.35px" xmlns="http://www.w3.org/2000/svg">
  <g transform="matrix(1.0, 0.0, 0.0, 1.0, 162.9, 160.05)">
    <path d="M-25.75 134.85 Q-51.9 156.3 -79.65 165.7 L-86.35 167.7 Q-93.1 169.6 -100.15 170.65 -130.45 170.8 -149.3 139.4 -153.2 132.5 -156.7 124.1 L-157.3 122.15 Q-165.85 94.05 -160.0 60.4 -157.95 48.8 -154.45 36.55 -149.5 19.7 -141.4 1.6 L-140.35 -0.65 Q-108.3 -48.25 -43.2 -75.55 L-31.15 -80.3 Q-22.75 -83.45 -14.05 -86.35 L0.05 -90.75 8.25 -92.65 10.3 -92.9 40.55 -97.35 54.1 -99.4 Q62.3 -111.6 58.95 -123.6 57.25 -129.45 52.9 -135.35 48.2 -141.65 40.25 -147.9 L36.35 -150.8 33.9 -152.5 22.65 -159.55 37.75 -157.7 39.3 -157.45 48.8 -155.8 58.8 -153.5 Q66.4 -151.6 73.75 -149.25 83.2 -146.15 92.4 -142.3 99.45 -139.2 106.25 -135.65 131.15 -122.5 152.55 -102.4 L151.25 -115.05 Q177.8 -91.85 174.6 -31.45 174.55 -23.5 173.15 -15.95 170.1 0.5 160.35 14.7 152.7 25.9 140.85 35.8 145.3 24.85 147.25 15.1 149.75 2.95 148.35 -7.1 143.85 -41.6 95.05 -52.5 L86.15 -54.7 Q71.15 -58.2 56.8 -59.95 L28.8 -61.65 Q11.35 -61.55 -4.05 -58.25 -22.85 -53.9 -40.3 -45.75 L-51.05 -40.4 -54.35 -38.5 Q-112.1 -9.15 -127.5 32.75 -132.65 46.35 -133.8 60.95 -135.2 82.2 -130.55 105.8 L-129.95 108.4 -128.7 113.6 Q-118.1 148.55 -91.2 138.7 -85.95 135.8 -81.5 132.4 -72.4 125.6 -65.6 117.0 -60.05 110.05 -55.95 101.95 -25.65 96.55 -25.75 134.85" fill="#72567e" fill-opacity="0.99607843" fill-rule="evenodd" stroke="none"/>
    <path d="M-25.75 134.85 Q-51.9 156.3 -79.65 165.7 L-86.35 167.7 Q-93.1 169.6 -100.15 170.65 -130.45 170.8 -149.3 139.4 -153.2 132.5 -156.7 124.1 L-157.3 122.15 Q-165.85 94.05 -160.0 60.4 -157.95 48.8 -154.45 36.55 -149.5 19.7 -141.4 1.6 L-140.35 -0.65 Q-108.3 -48.25 -43.2 -75.55 L-31.15 -80.3 Q-22.75 -83.45 -14.05 -86.35 L0.05 -90.75 8.25 -92.65 10.3 -92.9 40.55 -97.35 54.1 -99.4 Q62.3 -111.6 58.95 -123.6 57.25 -129.45 52.9 -135.35 48.2 -141.65 40.25 -147.9 L36.35 -150.8 33.9 -152.5 22.65 -159.55 37.75 -157.7 39.3 -157.45 48.8 -155.8 58.8 -153.5 Q66.4 -151.6 73.75 -149.25 83.2 -146.15 92.4 -142.3 99.45 -139.2 106.25 -135.65 131.15 -122.5 152.55 -102.4 L151.25 -115.05 Q177.8 -91.85 174.6 -31.45 174.55 -23.5 173.15 -15.95 170.1 0.5 160.35 14.7 152.7 25.9 140.85 35.8 145.3 24.85 147.25 15.1 149.75 2.95 148.35 -7.1 143.85 -41.6 95.05 -52.5 L86.15 -54.7 Q71.15 -58.2 56.8 -59.95 L28.8 -61.65 Q11.35 -61.55 -4.05 -58.25 -22.85 -53.9 -40.3 -45.75 L-51.05 -40.4 -54.35 -38.5 Q-112.1 -9.15 -127.5 32.75 -132.65 46.35 -133.8 60.95 -135.2 82.2 -130.55 105.8 L-129.95 108.4 -128.7 113.6 Q-118.1 148.55 -91.2 138.7 -85.95 135.8 -81.5 132.4 -72.4 125.6 -65.6 117.0 -60.05 110.05 -55.95 101.95 -25.65 96.55 -25.75 134.85 Z" fill="none" stroke="#3f274c" stroke-linecap="round" stroke-linejoin="round" stroke-width="1.0"/>
  </g>
</svg>
