<?xml version="1.0" encoding="UTF-8" standalone="no"?>
<svg xmlns:xlink="http://www.w3.org/1999/xlink" height="334.05px" width="337.0px" xmlns="http://www.w3.org/2000/svg">
  <g transform="matrix(1.0, 0.0, 0.0, 1.0, 163.25, 162.5)">
    <path d="M-25.6 134.8 Q-51.7 156.5 -79.35 165.95 L-86.0 168.0 Q-92.75 169.9 -99.8 171.05 -130.1 171.45 -149.1 140.2 -153.15 133.3 -156.65 124.95 L-157.25 123.0 Q-166.1 94.95 -160.65 61.3 -158.75 49.7 -155.35 37.4 -150.55 20.45 -142.7 2.3 L-141.65 0.0 Q-110.15 -47.85 -45.8 -76.5 L-33.85 -81.5 -16.9 -87.9 -2.9 -92.55 5.15 -94.7 7.15 -95.0 37.25 -100.35 50.75 -102.85 Q58.55 -115.2 54.85 -127.15 53.0 -132.9 48.45 -138.75 43.5 -144.8 35.45 -150.9 L31.4 -153.65 28.95 -155.25 Q23.85 -158.6 17.45 -162.0 L32.6 -160.6 34.2 -160.35 43.7 -159.0 53.8 -157.05 68.85 -153.25 Q78.4 -150.4 87.75 -146.85 94.8 -144.0 101.8 -140.65 127.1 -128.25 149.05 -108.85 L147.4 -121.4 Q174.65 -99.05 173.2 -38.6 173.45 -30.55 172.3 -23.05 169.7 -6.55 160.4 8.0 153.15 19.4 141.55 29.65 145.7 18.65 147.3 8.8 149.4 -3.4 147.75 -13.45 142.2 -47.8 93.1 -57.15 L84.1 -59.15 Q69.05 -62.15 54.65 -63.45 L26.6 -64.3 Q9.15 -63.75 -6.35 -60.0 -25.0 -55.2 -42.3 -46.75 -47.7 -44.1 -52.95 -41.15 L-56.2 -39.25 Q-113.35 -8.7 -128.4 33.3 -133.5 46.95 -134.45 61.55 -135.65 82.85 -130.65 106.45 L-130.1 109.0 -128.75 114.25 Q-117.95 149.05 -91.05 139.05 -85.85 136.05 -81.4 132.65 -72.3 125.85 -65.55 117.15 -60.05 110.2 -56.0 102.05 -25.75 96.5 -25.6 134.8" fill="#72567e" fill-opacity="0.99607843" fill-rule="evenodd" stroke="none"/>
    <path d="M-25.6 134.8 Q-51.7 156.5 -79.35 165.95 L-86.0 168.0 Q-92.75 169.9 -99.8 171.05 -130.1 171.45 -149.1 140.2 -153.15 133.3 -156.65 124.95 L-157.25 123.0 Q-166.1 94.95 -160.65 61.3 -158.75 49.7 -155.35 37.4 -150.55 20.45 -142.7 2.3 L-141.65 0.0 Q-110.15 -47.85 -45.8 -76.5 L-33.85 -81.5 -16.9 -87.9 -2.9 -92.55 5.15 -94.7 7.15 -95.0 37.25 -100.35 50.75 -102.85 Q58.55 -115.2 54.85 -127.15 53.0 -132.9 48.45 -138.75 43.5 -144.8 35.45 -150.9 L31.4 -153.65 28.95 -155.25 Q23.85 -158.6 17.45 -162.0 L32.6 -160.6 34.2 -160.35 43.7 -159.0 53.8 -157.05 68.85 -153.25 Q78.4 -150.4 87.75 -146.85 94.8 -144.0 101.8 -140.65 127.1 -128.25 149.05 -108.85 L147.4 -121.4 Q174.65 -99.05 173.2 -38.6 173.45 -30.55 172.3 -23.05 169.7 -6.55 160.4 8.0 153.15 19.4 141.55 29.65 145.7 18.65 147.3 8.8 149.4 -3.4 147.75 -13.45 142.2 -47.8 93.1 -57.15 L84.1 -59.15 Q69.05 -62.15 54.65 -63.45 L26.6 -64.3 Q9.15 -63.75 -6.35 -60.0 -25.0 -55.2 -42.3 -46.75 -47.7 -44.1 -52.95 -41.15 L-56.2 -39.25 Q-113.35 -8.7 -128.4 33.3 -133.5 46.95 -134.45 61.55 -135.65 82.85 -130.65 106.45 L-130.1 109.0 -128.75 114.25 Q-117.95 149.05 -91.05 139.05 -85.85 136.05 -81.4 132.65 -72.3 125.85 -65.55 117.15 -60.05 110.2 -56.0 102.05 -25.75 96.5 -25.6 134.8 Z" fill="none" stroke="#3f274c" stroke-linecap="round" stroke-linejoin="round" stroke-width="1.0"/>
  </g>
</svg>
