<?xml version="1.0" encoding="UTF-8" standalone="no"?>
<svg xmlns:xlink="http://www.w3.org/1999/xlink" height="339.35px" width="334.7px" xmlns="http://www.w3.org/2000/svg">
  <g transform="matrix(1.0, 0.0, 0.0, 1.0, 163.95, 167.0)">
    <path d="M-25.35 134.75 Q-51.15 156.65 -78.7 166.45 L-85.35 168.6 Q-92.0 170.55 -99.05 171.85 -129.35 172.7 -148.75 141.75 -152.85 134.95 -156.55 126.65 L-157.2 124.7 Q-166.55 96.8 -161.9 63.15 -160.25 51.45 -157.1 39.15 -152.65 22.05 -145.2 3.8 L-144.25 1.4 Q-113.8 -47.05 -51.1 -78.2 L-39.35 -83.7 -22.7 -90.8 -9.05 -96.0 -1.2 -98.6 0.75 -99.05 30.45 -106.2 43.75 -109.5 Q50.8 -122.3 46.4 -134.0 44.15 -139.7 39.3 -145.2 34.0 -150.95 25.55 -156.5 L21.35 -159.0 18.8 -160.5 Q13.5 -163.5 6.95 -166.5 L22.15 -166.0 23.75 -165.9 33.3 -165.15 43.5 -163.8 58.75 -160.9 Q68.45 -158.65 78.0 -155.65 85.2 -153.25 92.4 -150.35 118.45 -139.55 141.55 -121.45 L139.1 -133.9 Q167.7 -113.2 169.9 -52.75 170.6 -44.8 169.9 -37.2 168.35 -20.55 159.95 -5.45 153.35 6.35 142.45 17.25 145.85 6.0 146.9 -3.9 148.25 -16.2 146.0 -26.15 138.35 -60.05 88.8 -66.5 L79.7 -67.9 Q64.5 -70.0 50.05 -70.4 L22.0 -69.55 Q4.6 -67.95 -11.0 -63.35 -29.45 -57.8 -46.4 -48.65 -51.65 -45.85 -56.8 -42.65 L-60.0 -40.6 Q-115.85 -7.8 -130.3 34.45 -135.1 48.2 -135.7 62.8 -136.45 84.1 -130.9 107.65 L-130.3 110.2 -128.85 115.5 Q-117.5 150.15 -90.8 139.7 -85.6 136.7 -81.15 133.2 -72.15 126.25 -65.45 117.55 -60.05 110.5 -56.05 102.3 -25.9 96.45 -25.35 134.75" fill="#72567e" fill-opacity="0.99607843" fill-rule="evenodd" stroke="none"/>
    <path d="M-25.35 134.75 Q-51.15 156.65 -78.7 166.45 L-85.35 168.6 Q-92.0 170.55 -99.05 171.85 -129.35 172.7 -148.75 141.75 -152.85 134.95 -156.55 126.65 L-157.2 124.7 Q-166.55 96.8 -161.9 63.15 -160.25 51.45 -157.1 39.15 -152.65 22.05 -145.2 3.8 L-144.25 1.4 Q-113.8 -47.05 -51.1 -78.2 L-39.35 -83.7 -22.7 -90.8 -9.05 -96.0 -1.2 -98.6 0.75 -99.05 30.45 -106.2 43.75 -109.5 Q50.8 -122.3 46.4 -134.0 44.15 -139.7 39.3 -145.2 34.0 -150.95 25.55 -156.5 L21.35 -159.0 18.8 -160.5 Q13.5 -163.5 6.95 -166.5 L22.15 -166.0 23.75 -165.9 33.3 -165.15 43.5 -163.8 58.75 -160.9 Q68.45 -158.65 78.0 -155.65 85.2 -153.25 92.4 -150.35 118.45 -139.55 141.55 -121.45 L139.1 -133.9 Q167.7 -113.2 169.9 -52.75 170.6 -44.8 169.9 -37.2 168.35 -20.55 159.95 -5.45 153.35 6.35 142.45 17.25 145.85 6.0 146.9 -3.9 148.25 -16.2 146.0 -26.15 138.35 -60.05 88.8 -66.5 L79.7 -67.9 Q64.5 -70.0 50.05 -70.4 L22.0 -69.55 Q4.6 -67.95 -11.0 -63.35 -29.45 -57.8 -46.4 -48.65 -51.65 -45.85 -56.8 -42.65 L-60.0 -40.6 Q-115.85 -7.8 -130.3 34.45 -135.1 48.2 -135.7 62.8 -136.45 84.1 -130.9 107.65 L-130.3 110.2 -128.85 115.5 Q-117.5 150.15 -90.8 139.7 -85.6 136.7 -81.15 133.2 -72.15 126.25 -65.45 117.55 -60.05 110.5 -56.05 102.3 -25.9 96.45 -25.35 134.75 Z" fill="none" stroke="#3f274c" stroke-linecap="round" stroke-linejoin="round" stroke-width="1.0"/>
  </g>
</svg>
