<?xml version="1.0" encoding="UTF-8" standalone="no"?>
<svg xmlns:xlink="http://www.w3.org/1999/xlink" height="341.95px" width="333.35px" xmlns="http://www.w3.org/2000/svg">
  <g transform="matrix(1.0, 0.0, 0.0, 1.0, 164.3, 169.15)">
    <path d="M-25.2 134.7 Q-50.85 156.75 -78.35 166.7 L-85.0 168.9 Q-91.65 170.95 -98.7 172.25 -128.9 173.3 -148.55 142.5 -152.75 135.75 -156.5 127.5 L-157.15 125.55 Q-166.75 97.75 -162.5 64.05 -161.0 52.35 -158.0 40.0 -153.7 22.9 -146.5 4.55 L-145.5 2.15 Q-115.65 -46.65 -53.8 -79.05 L-42.15 -84.75 -25.65 -92.2 -12.2 -97.65 -4.5 -100.45 -2.5 -100.95 26.9 -109.0 40.1 -112.7 Q46.8 -125.8 42.0 -137.3 39.6 -142.9 34.55 -148.25 29.15 -153.85 20.5 -159.15 L16.25 -161.55 13.65 -162.95 Q8.25 -165.8 1.6 -168.6 9.4 -168.75 16.8 -168.55 L18.4 -168.5 28.0 -168.0 38.2 -167.0 53.55 -164.6 Q63.3 -162.65 72.95 -159.9 L87.5 -155.05 Q113.85 -145.0 137.5 -127.6 L134.7 -140.0 Q163.9 -120.2 167.95 -59.85 168.85 -51.9 168.4 -44.3 167.35 -27.55 159.4 -12.25 153.2 -0.25 142.6 11.0 145.7 -0.4 146.4 -10.3 147.45 -22.6 144.85 -32.5 136.15 -66.15 86.45 -71.1 L77.35 -72.25 47.6 -73.85 19.6 -72.15 Q2.3 -69.95 -13.35 -65.0 -31.8 -59.05 -48.5 -49.6 L-58.75 -43.35 -61.9 -41.2 Q-117.1 -7.35 -131.2 35.05 -135.85 48.8 -136.35 63.45 -136.8 84.75 -131.05 108.25 L-130.4 110.8 -128.9 116.1 Q-117.25 150.7 -90.65 140.05 -85.55 137.0 -81.0 133.5 -72.05 126.45 -65.4 117.75 -60.0 110.65 -56.1 102.45 -25.95 96.45 -25.2 134.7" fill="#72567e" fill-opacity="0.99607843" fill-rule="evenodd" stroke="none"/>
    <path d="M-25.2 134.7 Q-50.85 156.75 -78.35 166.7 L-85.0 168.9 Q-91.65 170.95 -98.7 172.25 -128.9 173.3 -148.55 142.5 -152.75 135.75 -156.5 127.5 L-157.15 125.55 Q-166.75 97.75 -162.5 64.05 -161.0 52.35 -158.0 40.0 -153.7 22.9 -146.5 4.55 L-145.5 2.15 Q-115.65 -46.65 -53.8 -79.05 L-42.15 -84.75 -25.65 -92.2 -12.2 -97.65 -4.5 -100.45 -2.5 -100.95 26.9 -109.0 40.1 -112.7 Q46.8 -125.8 42.0 -137.3 39.6 -142.9 34.55 -148.25 29.15 -153.85 20.5 -159.15 L16.25 -161.55 13.65 -162.95 Q8.25 -165.8 1.6 -168.6 9.4 -168.75 16.8 -168.55 L18.4 -168.5 28.0 -168.0 38.2 -167.0 53.55 -164.6 Q63.3 -162.65 72.95 -159.9 L87.5 -155.05 Q113.85 -145.0 137.5 -127.6 L134.7 -140.0 Q163.9 -120.2 167.95 -59.85 168.85 -51.9 168.4 -44.3 167.35 -27.55 159.4 -12.25 153.2 -0.25 142.6 11.0 145.7 -0.4 146.4 -10.3 147.45 -22.6 144.85 -32.5 136.15 -66.15 86.45 -71.1 L77.35 -72.25 47.6 -73.85 19.6 -72.15 Q2.3 -69.95 -13.35 -65.0 -31.8 -59.05 -48.5 -49.6 L-58.75 -43.35 -61.9 -41.2 Q-117.1 -7.35 -131.2 35.05 -135.85 48.8 -136.35 63.45 -136.8 84.75 -131.05 108.25 L-130.4 110.8 -128.9 116.1 Q-117.25 150.7 -90.65 140.05 -85.55 137.0 -81.0 133.5 -72.05 126.45 -65.4 117.75 -60.0 110.65 -56.1 102.45 -25.95 96.45 -25.2 134.7 Z" fill="none" stroke="#3f274c" stroke-linecap="round" stroke-linejoin="round" stroke-width="1.0"/>
  </g>
</svg>
