<?xml version="1.0" encoding="UTF-8" standalone="no"?>
<svg xmlns:xlink="http://www.w3.org/1999/xlink" height="344.7px" width="332.0px" xmlns="http://www.w3.org/2000/svg">
  <g transform="matrix(1.0, 0.0, 0.0, 1.0, 164.75, 171.5)">
    <path d="M-25.05 134.65 Q-50.6 156.85 -78.05 166.95 L-84.65 169.2 Q-91.3 171.25 -98.3 172.65 -128.5 173.95 -148.35 143.3 -152.6 136.55 -156.45 128.35 L-157.1 126.4 Q-167.0 98.75 -163.15 65.0 -161.7 53.3 -158.85 40.9 -154.8 23.8 -147.75 5.3 L-146.8 2.9 Q-117.4 -46.2 -56.5 -79.8 L-44.95 -85.75 Q-37.0 -89.7 -28.65 -93.55 L-15.35 -99.25 -7.8 -102.25 -5.85 -102.8 23.3 -111.8 36.4 -115.85 Q42.65 -129.1 37.55 -140.5 34.95 -146.05 29.75 -151.25 24.15 -156.65 15.4 -161.7 L11.05 -163.95 8.4 -165.25 Q2.95 -167.95 -3.75 -170.55 L11.4 -171.0 13.0 -170.95 22.6 -170.8 32.85 -170.05 48.25 -168.15 Q58.1 -166.4 67.8 -164.05 75.15 -162.1 82.5 -159.6 109.05 -150.35 133.3 -133.7 L130.1 -146.0 Q159.9 -127.1 165.75 -66.9 166.95 -59.0 166.7 -51.4 166.2 -34.65 158.7 -19.1 152.8 -6.85 142.6 4.65 145.3 -6.75 145.75 -16.7 146.45 -29.05 143.55 -38.9 133.8 -72.25 84.0 -75.7 L74.85 -76.55 Q59.5 -77.75 45.05 -77.25 30.65 -76.8 17.15 -74.7 -0.15 -72.0 -15.8 -66.6 -34.0 -60.3 -50.6 -50.45 L-60.75 -44.0 -63.85 -41.85 Q-118.35 -6.9 -132.15 35.65 -136.65 49.45 -136.95 64.1 -137.15 85.4 -131.15 108.9 L-130.45 111.4 -128.95 116.75 Q-117.1 151.25 -90.5 140.4 -85.4 137.25 -80.85 133.75 -72.0 126.7 -65.35 117.9 -60.0 110.8 -56.15 102.6 -26.0 96.4 -25.05 134.65" fill="#72567e" fill-opacity="0.99607843" fill-rule="evenodd" stroke="none"/>
    <path d="M-25.05 134.65 Q-50.6 156.85 -78.05 166.95 L-84.65 169.2 Q-91.3 171.25 -98.3 172.65 -128.5 173.95 -148.35 143.3 -152.6 136.55 -156.45 128.35 L-157.1 126.4 Q-167.0 98.75 -163.15 65.0 -161.7 53.3 -158.85 40.9 -154.8 23.8 -147.75 5.3 L-146.8 2.9 Q-117.4 -46.2 -56.5 -79.8 L-44.95 -85.75 Q-37.0 -89.7 -28.65 -93.55 L-15.35 -99.25 -7.8 -102.25 -5.85 -102.8 23.3 -111.8 36.4 -115.85 Q42.65 -129.1 37.55 -140.5 34.95 -146.05 29.75 -151.25 24.15 -156.65 15.4 -161.7 L11.05 -163.95 8.4 -165.25 Q2.95 -167.95 -3.75 -170.55 L11.4 -171.0 13.0 -170.95 22.6 -170.8 32.85 -170.05 48.25 -168.15 Q58.1 -166.4 67.8 -164.05 75.15 -162.1 82.5 -159.6 109.05 -150.35 133.3 -133.7 L130.1 -146.0 Q159.9 -127.1 165.75 -66.9 166.95 -59.0 166.7 -51.4 166.2 -34.65 158.7 -19.1 152.8 -6.85 142.6 4.65 145.3 -6.75 145.75 -16.7 146.45 -29.05 143.55 -38.9 133.8 -72.25 84.0 -75.7 L74.85 -76.55 Q59.5 -77.75 45.05 -77.25 30.65 -76.8 17.15 -74.7 -0.15 -72.0 -15.8 -66.6 -34.0 -60.3 -50.6 -50.45 L-60.75 -44.0 -63.85 -41.85 Q-118.35 -6.9 -132.15 35.65 -136.65 49.45 -136.95 64.1 -137.15 85.4 -131.15 108.9 L-130.45 111.4 -128.95 116.75 Q-117.1 151.25 -90.5 140.4 -85.4 137.25 -80.85 133.75 -72.0 126.7 -65.35 117.9 -60.0 110.8 -56.15 102.6 -26.0 96.4 -25.05 134.65 Z" fill="none" stroke="#3f274c" stroke-linecap="round" stroke-linejoin="round" stroke-width="1.0"/>
  </g>
</svg>
