<?xml version="1.0" encoding="UTF-8" standalone="no"?>
<svg xmlns:xlink="http://www.w3.org/1999/xlink" height="350.95px" width="329.2px" xmlns="http://www.w3.org/2000/svg">
  <g transform="matrix(1.0, 0.0, 0.0, 1.0, 165.1, 177.25)">
    <path d="M-24.9 134.6 Q-50.25 157.05 -77.6 167.25 L-84.25 169.55 Q-90.9 171.65 -97.8 173.15 -128.0 174.65 -148.1 144.2 -152.45 137.55 -156.35 129.4 L-157.05 127.45 Q-167.15 99.85 -163.75 66.1 -162.55 54.4 -159.8 42.0 -155.95 24.75 -149.1 6.25 L-148.2 3.85 Q-119.4 -45.65 -60.95 -81.85 L-49.7 -88.35 -33.75 -96.9 -20.8 -103.2 -13.55 -106.6 -11.6 -107.25 17.0 -117.85 29.85 -122.7 Q35.25 -136.35 29.55 -147.35 26.7 -152.75 21.2 -157.65 15.3 -162.75 6.25 -167.25 L1.8 -169.25 -0.85 -170.4 Q-6.55 -172.8 -13.35 -175.0 L1.75 -176.3 3.35 -176.4 12.95 -176.75 23.2 -176.6 38.7 -175.55 58.4 -172.6 Q65.9 -171.0 73.35 -169.0 100.45 -161.25 125.55 -146.05 L121.7 -158.1 Q152.45 -140.9 161.75 -81.15 163.4 -73.35 163.6 -65.7 164.0 -48.95 157.4 -33.0 152.25 -20.45 142.7 -8.35 144.75 -19.95 144.65 -29.9 144.6 -42.25 141.15 -51.9 129.6 -84.75 79.6 -85.3 L70.45 -85.6 40.65 -84.65 Q26.35 -83.3 12.95 -80.5 -4.15 -76.8 -19.65 -70.6 -37.65 -63.4 -53.65 -52.85 L-63.55 -45.9 -66.5 -43.6 Q-119.35 -6.15 -133.15 36.4 -137.4 50.3 -137.6 64.95 -137.6 86.25 -131.25 109.65 L-130.55 112.15 -128.95 117.5 Q-116.8 151.85 -90.3 140.8 -85.25 137.65 -80.7 134.1 -71.85 127.0 -65.3 118.15 -59.95 110.95 -56.2 102.75 -26.1 96.4 -24.9 134.6" fill="#72567e" fill-opacity="0.99607843" fill-rule="evenodd" stroke="none"/>
    <path d="M-24.9 134.6 Q-50.25 157.05 -77.6 167.25 L-84.25 169.55 Q-90.9 171.65 -97.8 173.15 -128.0 174.65 -148.1 144.2 -152.45 137.55 -156.35 129.4 L-157.05 127.45 Q-167.15 99.85 -163.75 66.1 -162.55 54.4 -159.8 42.0 -155.95 24.75 -149.1 6.25 L-148.2 3.85 Q-119.4 -45.65 -60.95 -81.85 L-49.7 -88.35 -33.75 -96.9 -20.8 -103.2 -13.55 -106.6 -11.6 -107.25 17.0 -117.85 29.85 -122.7 Q35.25 -136.35 29.55 -147.35 26.7 -152.75 21.2 -157.65 15.3 -162.75 6.25 -167.25 L1.8 -169.25 -0.85 -170.4 Q-6.55 -172.8 -13.35 -175.0 L1.75 -176.3 3.35 -176.4 12.95 -176.75 23.2 -176.6 38.7 -175.55 58.4 -172.6 Q65.9 -171.0 73.35 -169.0 100.45 -161.25 125.55 -146.05 L121.7 -158.1 Q152.45 -140.9 161.75 -81.15 163.4 -73.35 163.6 -65.7 164.0 -48.95 157.4 -33.0 152.25 -20.45 142.7 -8.35 144.75 -19.95 144.65 -29.9 144.6 -42.25 141.15 -51.9 129.6 -84.75 79.6 -85.3 L70.45 -85.6 40.65 -84.65 Q26.35 -83.3 12.95 -80.5 -4.15 -76.8 -19.65 -70.6 -37.65 -63.4 -53.65 -52.85 L-63.55 -45.9 -66.5 -43.6 Q-119.35 -6.15 -133.15 36.4 -137.4 50.3 -137.6 64.95 -137.6 86.25 -131.25 109.65 L-130.55 112.15 -128.95 117.5 Q-116.8 151.85 -90.3 140.8 -85.25 137.65 -80.7 134.1 -71.85 127.0 -65.3 118.15 -59.95 110.95 -56.2 102.75 -26.1 96.4 -24.9 134.6 Z" fill="none" stroke="#3f274c" stroke-linecap="round" stroke-linejoin="round" stroke-width="1.0"/>
  </g>
</svg>
