<?xml version="1.0" encoding="UTF-8" standalone="no"?>
<svg xmlns:xlink="http://www.w3.org/1999/xlink" height="354.4px" width="327.95px" xmlns="http://www.w3.org/2000/svg">
  <g transform="matrix(1.0, 0.0, 0.0, 1.0, 165.15, 180.55)">
    <path d="M-24.85 134.6 Q-50.2 157.05 -77.55 167.35 L-84.15 169.65 Q-90.8 171.75 -97.75 173.25 -127.95 174.85 -148.05 144.4 -152.4 137.75 -156.3 129.55 L-157.0 127.6 Q-167.2 100.0 -163.8 66.3 -162.6 54.6 -159.85 42.15 -156.0 25.0 -149.2 6.4 L-148.3 4.0 Q-119.55 -45.5 -62.7 -83.15 L-51.65 -89.95 -35.95 -98.9 -23.15 -105.55 -15.95 -109.15 -14.05 -109.85 14.25 -121.2 26.95 -126.35 Q32.05 -140.15 26.05 -151.0 23.05 -156.3 17.4 -161.05 11.4 -166.0 2.2 -170.3 L-2.25 -172.2 -5.0 -173.25 Q-10.7 -175.5 -17.6 -177.5 L-2.5 -179.2 -0.9 -179.35 8.65 -179.95 18.9 -180.05 34.45 -179.45 Q44.35 -178.6 54.25 -177.0 61.75 -175.65 69.25 -173.8 96.55 -166.8 122.05 -152.2 L117.85 -164.2 Q149.05 -147.75 159.95 -88.35 161.75 -80.55 162.2 -72.95 162.95 -56.2 156.85 -40.1 152.05 -27.4 142.8 -15.05 144.55 -26.65 144.2 -36.65 143.75 -49.0 140.15 -58.55 127.7 -91.0 77.7 -90.3 L68.55 -90.4 38.8 -88.65 Q24.5 -86.9 11.2 -83.75 -5.75 -79.6 -21.15 -73.0 -38.9 -65.35 -54.65 -54.35 -59.6 -50.9 -64.35 -47.15 L-67.25 -44.75 Q-119.15 -5.9 -133.2 36.55 -137.55 50.45 -137.65 65.1 -137.65 86.4 -131.25 109.8 L-130.55 112.3 -128.95 117.65 Q-116.7 152.0 -90.25 140.9 -85.2 137.75 -80.65 134.15 -71.8 127.05 -65.3 118.2 -59.95 111.0 -56.2 102.8 -26.1 96.35 -24.85 134.6" fill="#72567e" fill-opacity="0.99607843" fill-rule="evenodd" stroke="none"/>
    <path d="M-24.85 134.6 Q-50.2 157.05 -77.55 167.35 L-84.15 169.65 Q-90.8 171.75 -97.75 173.25 -127.95 174.85 -148.05 144.4 -152.4 137.75 -156.3 129.55 L-157.0 127.6 Q-167.2 100.0 -163.8 66.3 -162.6 54.6 -159.85 42.15 -156.0 25.0 -149.2 6.4 L-148.3 4.0 Q-119.55 -45.5 -62.7 -83.15 L-51.65 -89.95 -35.95 -98.9 -23.15 -105.55 -15.95 -109.15 -14.05 -109.85 14.25 -121.2 26.95 -126.35 Q32.05 -140.15 26.05 -151.0 23.05 -156.3 17.4 -161.05 11.4 -166.0 2.2 -170.3 L-2.25 -172.2 -5.0 -173.25 Q-10.7 -175.5 -17.6 -177.5 L-2.5 -179.2 -0.9 -179.35 8.65 -179.95 18.9 -180.05 34.45 -179.45 Q44.35 -178.6 54.25 -177.0 61.75 -175.65 69.25 -173.8 96.55 -166.8 122.05 -152.2 L117.85 -164.2 Q149.05 -147.75 159.95 -88.35 161.75 -80.55 162.2 -72.95 162.95 -56.2 156.85 -40.1 152.05 -27.4 142.8 -15.05 144.55 -26.65 144.2 -36.65 143.75 -49.0 140.15 -58.55 127.7 -91.0 77.7 -90.3 L68.55 -90.4 38.8 -88.65 Q24.5 -86.9 11.2 -83.75 -5.75 -79.6 -21.15 -73.0 -38.9 -65.35 -54.65 -54.35 -59.6 -50.9 -64.35 -47.15 L-67.25 -44.75 Q-119.15 -5.9 -133.2 36.55 -137.55 50.45 -137.65 65.1 -137.65 86.4 -131.25 109.8 L-130.55 112.3 -128.95 117.65 Q-116.7 152.0 -90.25 140.9 -85.2 137.75 -80.65 134.15 -71.8 127.05 -65.3 118.2 -59.95 111.0 -56.2 102.8 -26.1 96.35 -24.85 134.6 Z" fill="none" stroke="#3f274c" stroke-linecap="round" stroke-linejoin="round" stroke-width="1.0"/>
  </g>
</svg>
