<?xml version="1.0" encoding="UTF-8" standalone="no"?>
<svg xmlns:xlink="http://www.w3.org/1999/xlink" height="356.15px" width="327.25px" xmlns="http://www.w3.org/2000/svg">
  <g transform="matrix(1.0, 0.0, 0.0, 1.0, 165.2, 182.25)">
    <path d="M-24.85 134.6 Q-50.1 157.05 -77.5 167.4 L-84.1 169.65 Q-90.75 171.85 -97.7 173.3 -127.9 174.9 -148.0 144.45 -152.35 137.85 -156.3 129.65 L-157.0 127.7 Q-167.2 100.1 -163.85 66.4 -162.55 54.7 -159.9 42.25 -156.05 25.1 -149.25 6.5 L-148.35 4.1 Q-119.6 -45.45 -63.6 -83.8 L-52.65 -90.7 -37.05 -99.85 -24.35 -106.7 -17.2 -110.4 -15.3 -111.1 12.85 -122.85 25.5 -128.2 Q30.4 -142.0 24.25 -152.8 21.2 -158.05 15.5 -162.75 9.35 -167.6 0.15 -171.75 L-4.3 -173.6 -7.05 -174.65 Q-12.8 -176.75 -19.75 -178.75 L-4.65 -180.65 -3.05 -180.8 6.45 -181.5 16.75 -181.75 Q24.55 -181.8 32.25 -181.35 L52.1 -179.15 67.15 -176.15 Q94.55 -169.55 120.2 -155.3 L115.85 -167.2 Q147.3 -151.2 158.95 -91.9 160.9 -84.15 161.4 -76.55 162.45 -59.8 156.5 -43.6 151.85 -30.85 142.8 -18.4 144.4 -30.1 143.9 -40.0 143.3 -52.35 139.55 -61.85 126.65 -94.15 76.7 -92.75 L67.55 -92.75 Q52.1 -92.45 37.85 -90.6 23.55 -88.7 10.3 -85.35 -6.55 -81.0 -21.9 -74.15 -39.6 -66.25 -55.2 -55.1 L-64.75 -47.75 -67.65 -45.3 Q-118.95 -5.85 -133.25 36.6 -137.5 50.5 -137.65 65.15 -137.65 86.45 -131.25 109.85 L-130.55 112.4 -128.9 117.7 Q-116.65 152.05 -90.25 140.95 -85.15 137.8 -80.65 134.2 -71.8 127.1 -65.25 118.2 -60.0 111.1 -56.2 102.8 -26.1 96.35 -24.85 134.6" fill="#72567e" fill-opacity="0.99607843" fill-rule="evenodd" stroke="none"/>
    <path d="M-24.85 134.6 Q-50.1 157.05 -77.5 167.4 L-84.1 169.65 Q-90.75 171.85 -97.7 173.3 -127.9 174.9 -148.0 144.45 -152.35 137.85 -156.3 129.65 L-157.0 127.7 Q-167.2 100.1 -163.85 66.4 -162.55 54.7 -159.9 42.25 -156.05 25.1 -149.25 6.5 L-148.35 4.1 Q-119.6 -45.45 -63.6 -83.8 L-52.65 -90.7 -37.05 -99.85 -24.35 -106.7 -17.2 -110.4 -15.3 -111.1 12.85 -122.85 25.5 -128.2 Q30.4 -142.0 24.25 -152.8 21.2 -158.05 15.5 -162.75 9.35 -167.6 0.15 -171.75 L-4.3 -173.6 -7.05 -174.65 Q-12.8 -176.75 -19.75 -178.75 L-4.65 -180.65 -3.05 -180.8 6.45 -181.5 16.75 -181.75 Q24.55 -181.8 32.25 -181.35 L52.1 -179.15 67.15 -176.15 Q94.55 -169.55 120.2 -155.3 L115.85 -167.2 Q147.3 -151.2 158.95 -91.9 160.9 -84.15 161.4 -76.55 162.45 -59.8 156.5 -43.6 151.85 -30.85 142.8 -18.4 144.4 -30.1 143.9 -40.0 143.3 -52.35 139.55 -61.85 126.65 -94.15 76.7 -92.75 L67.55 -92.75 Q52.1 -92.45 37.85 -90.6 23.55 -88.7 10.3 -85.35 -6.55 -81.0 -21.9 -74.15 -39.6 -66.25 -55.2 -55.1 L-64.75 -47.75 -67.65 -45.3 Q-118.95 -5.85 -133.25 36.6 -137.5 50.5 -137.65 65.15 -137.65 86.45 -131.25 109.85 L-130.55 112.4 -128.9 117.7 Q-116.65 152.05 -90.25 140.95 -85.15 137.8 -80.65 134.2 -71.8 127.1 -65.25 118.2 -60.0 111.1 -56.2 102.8 -26.1 96.35 -24.85 134.6 Z" fill="none" stroke="#3f274c" stroke-linecap="round" stroke-linejoin="round" stroke-width="1.0"/>
  </g>
</svg>
