<?xml version="1.0" encoding="UTF-8" standalone="no"?>
<svg xmlns:xlink="http://www.w3.org/1999/xlink" height="359.7px" width="325.7px" xmlns="http://www.w3.org/2000/svg">
  <g transform="matrix(1.0, 0.0, 0.0, 1.0, 165.2, 185.7)">
    <path d="M-24.8 134.6 Q-50.05 157.1 -77.4 167.45 L-84.0 169.75 Q-90.65 171.95 -97.6 173.4 -127.8 175.05 -147.95 144.65 -152.3 138.0 -156.25 129.8 L-156.95 127.85 Q-167.2 100.35 -163.9 66.55 -162.6 54.85 -159.95 42.4 -156.2 25.25 -149.35 6.65 L-148.45 4.25 Q-119.8 -45.3 -65.4 -85.0 L-54.65 -92.25 -39.3 -101.8 -26.8 -108.95 -19.75 -112.85 -17.85 -113.6 10.0 -126.1 22.5 -131.75 Q27.0 -145.7 20.6 -156.35 17.4 -161.5 11.55 -166.05 5.35 -170.7 -3.95 -174.65 L-8.5 -176.35 -11.3 -177.35 Q-17.05 -179.3 -24.1 -181.1 L-9.05 -183.4 -7.45 -183.55 2.05 -184.55 12.3 -185.1 27.85 -185.05 47.7 -183.4 62.85 -180.8 Q90.4 -174.95 116.45 -161.35 L111.8 -173.15 Q143.6 -158.0 156.85 -99.0 158.95 -91.25 159.7 -83.7 161.2 -67.05 155.7 -50.65 151.35 -37.8 142.65 -25.1 143.95 -36.8 143.15 -46.75 142.25 -59.05 138.25 -68.45 124.55 -100.45 74.6 -97.7 L65.45 -97.45 Q50.1 -96.7 35.8 -94.5 21.55 -92.25 8.4 -88.5 -8.3 -83.75 -23.5 -76.5 -40.9 -68.15 -56.25 -56.55 -61.05 -52.95 -65.6 -49.0 L-68.45 -46.45 Q-118.7 -5.55 -133.35 36.75 -137.6 50.65 -137.7 65.3 -137.7 86.6 -131.25 110.0 L-130.5 112.5 -128.9 117.85 Q-116.6 152.2 -90.2 141.05 -85.1 137.85 -80.6 134.3 -71.75 127.1 -65.25 118.25 -60.0 111.15 -56.2 102.85 -26.2 96.35 -24.8 134.6" fill="#72567e" fill-opacity="0.99607843" fill-rule="evenodd" stroke="none"/>
    <path d="M-24.8 134.6 Q-50.05 157.1 -77.4 167.45 L-84.0 169.75 Q-90.65 171.95 -97.6 173.4 -127.8 175.05 -147.95 144.65 -152.3 138.0 -156.25 129.8 L-156.95 127.85 Q-167.2 100.35 -163.9 66.55 -162.6 54.85 -159.95 42.4 -156.2 25.25 -149.35 6.65 L-148.45 4.25 Q-119.8 -45.3 -65.4 -85.0 L-54.65 -92.25 -39.3 -101.8 -26.8 -108.95 -19.75 -112.85 -17.85 -113.6 10.0 -126.1 22.5 -131.75 Q27.0 -145.7 20.6 -156.35 17.4 -161.5 11.55 -166.05 5.35 -170.7 -3.95 -174.65 L-8.5 -176.35 -11.3 -177.35 Q-17.05 -179.3 -24.1 -181.1 L-9.05 -183.4 -7.45 -183.55 2.05 -184.55 12.3 -185.1 27.85 -185.05 47.7 -183.4 62.85 -180.8 Q90.4 -174.95 116.45 -161.35 L111.8 -173.15 Q143.6 -158.0 156.85 -99.0 158.95 -91.25 159.7 -83.7 161.2 -67.05 155.7 -50.65 151.35 -37.8 142.65 -25.1 143.95 -36.8 143.15 -46.75 142.25 -59.05 138.25 -68.45 124.55 -100.45 74.6 -97.7 L65.45 -97.45 Q50.1 -96.7 35.8 -94.5 21.55 -92.25 8.4 -88.5 -8.3 -83.75 -23.5 -76.5 -40.9 -68.15 -56.25 -56.55 -61.05 -52.95 -65.6 -49.0 L-68.45 -46.45 Q-118.7 -5.55 -133.35 36.75 -137.6 50.65 -137.7 65.3 -137.7 86.6 -131.25 110.0 L-130.5 112.5 -128.9 117.85 Q-116.6 152.2 -90.2 141.05 -85.1 137.85 -80.6 134.3 -71.75 127.1 -65.25 118.25 -60.0 111.15 -56.2 102.85 -26.2 96.35 -24.8 134.6 Z" fill="none" stroke="#3f274c" stroke-linecap="round" stroke-linejoin="round" stroke-width="1.0"/>
  </g>
</svg>
