<?xml version="1.0" encoding="UTF-8" standalone="no"?>
<svg xmlns:xlink="http://www.w3.org/1999/xlink" height="361.45px" width="324.9px" xmlns="http://www.w3.org/2000/svg">
  <g transform="matrix(1.0, 0.0, 0.0, 1.0, 165.2, 187.45)">
    <path d="M-24.75 134.6 Q-50.1 157.1 -77.35 167.5 L-83.95 169.8 Q-90.6 171.9 -97.55 173.4 -127.75 175.15 -147.95 144.7 -152.3 138.1 -156.25 129.9 L-156.95 127.95 Q-167.15 100.45 -163.9 66.65 -162.7 54.95 -160.0 42.5 -156.25 25.35 -149.4 6.75 L-148.5 4.35 Q-119.9 -45.2 -66.35 -85.6 L-55.65 -92.95 -40.45 -102.75 -28.0 -110.05 -21.05 -114.0 -19.15 -114.85 8.5 -127.7 20.95 -133.5 Q25.3 -147.5 18.7 -158.05 15.4 -163.2 9.55 -167.65 3.25 -172.2 -6.05 -176.05 L-10.65 -177.7 -13.45 -178.65 Q-19.2 -180.5 -26.25 -182.2 L-11.25 -184.7 -9.65 -184.9 -0.15 -186.05 10.05 -186.7 Q17.85 -187.05 25.6 -186.9 L45.5 -185.5 60.65 -183.1 Q88.25 -177.55 114.5 -164.35 L109.7 -176.05 Q141.75 -161.35 155.75 -102.55 157.95 -94.8 158.8 -87.3 160.45 -70.65 155.2 -54.2 151.1 -41.3 142.5 -28.45 143.65 -40.15 142.7 -50.1 141.65 -62.4 137.5 -71.75 123.4 -103.55 73.5 -100.15 L64.35 -99.75 Q49.0 -98.85 34.75 -96.45 20.5 -93.95 7.45 -90.1 -9.25 -85.05 -24.3 -77.65 -41.6 -69.1 -56.8 -57.25 L-66.05 -49.6 -68.85 -47.0 Q-118.55 -5.5 -133.35 36.85 -137.6 50.75 -137.75 65.4 -137.65 86.7 -131.25 110.05 L-130.5 112.6 -128.9 117.9 Q-116.6 152.25 -90.15 141.05 -85.1 137.9 -80.55 134.3 -71.75 127.2 -65.25 118.3 -60.0 111.1 -56.2 102.85 -26.2 96.35 -24.75 134.6" fill="#72567e" fill-opacity="0.99607843" fill-rule="evenodd" stroke="none"/>
    <path d="M-24.75 134.6 Q-50.1 157.1 -77.35 167.5 L-83.95 169.8 Q-90.6 171.9 -97.55 173.4 -127.75 175.15 -147.95 144.7 -152.3 138.1 -156.25 129.9 L-156.95 127.95 Q-167.15 100.45 -163.9 66.65 -162.7 54.95 -160.0 42.5 -156.25 25.35 -149.4 6.75 L-148.5 4.35 Q-119.9 -45.2 -66.35 -85.6 L-55.65 -92.95 -40.45 -102.75 -28.0 -110.05 -21.05 -114.0 -19.15 -114.85 8.5 -127.7 20.95 -133.5 Q25.3 -147.5 18.7 -158.05 15.4 -163.2 9.55 -167.65 3.25 -172.2 -6.05 -176.05 L-10.65 -177.7 -13.45 -178.65 Q-19.2 -180.5 -26.25 -182.2 L-11.25 -184.7 -9.65 -184.9 -0.15 -186.05 10.05 -186.7 Q17.85 -187.05 25.6 -186.9 L45.5 -185.5 60.65 -183.1 Q88.25 -177.55 114.5 -164.35 L109.7 -176.05 Q141.75 -161.35 155.75 -102.55 157.95 -94.8 158.8 -87.3 160.45 -70.65 155.2 -54.2 151.1 -41.3 142.5 -28.45 143.65 -40.15 142.7 -50.1 141.65 -62.4 137.5 -71.75 123.4 -103.55 73.5 -100.15 L64.35 -99.75 Q49.0 -98.85 34.75 -96.45 20.5 -93.95 7.45 -90.1 -9.25 -85.05 -24.3 -77.65 -41.6 -69.1 -56.8 -57.25 L-66.05 -49.6 -68.85 -47.0 Q-118.55 -5.5 -133.35 36.85 -137.6 50.75 -137.75 65.4 -137.65 86.7 -131.25 110.05 L-130.5 112.6 -128.9 117.9 Q-116.6 152.25 -90.15 141.05 -85.1 137.9 -80.55 134.3 -71.75 127.2 -65.25 118.3 -60.0 111.1 -56.2 102.85 -26.2 96.35 -24.75 134.6 Z" fill="none" stroke="#3f274c" stroke-linecap="round" stroke-linejoin="round" stroke-width="1.0"/>
  </g>
</svg>
