<?xml version="1.0" encoding="UTF-8" standalone="no"?>
<svg xmlns:xlink="http://www.w3.org/1999/xlink" height="363.25px" width="324.05px" xmlns="http://www.w3.org/2000/svg">
  <g transform="matrix(1.0, 0.0, 0.0, 1.0, 165.2, 189.2)">
    <path d="M-24.75 134.6 Q-50.0 157.1 -77.3 167.5 L-83.9 169.85 Q-90.55 171.95 -97.5 173.45 -127.7 175.2 -147.9 144.8 -152.25 138.15 -156.2 130.0 L-156.9 128.05 Q-167.15 100.55 -163.9 66.75 -162.7 55.05 -160.05 42.6 -156.3 25.45 -149.45 6.85 L-148.6 4.45 Q-119.95 -45.2 -67.25 -86.2 L-56.7 -93.7 -41.6 -103.65 -29.25 -111.15 -22.35 -115.2 -20.45 -116.05 7.05 -129.25 19.35 -135.25 Q23.55 -149.25 16.8 -159.75 13.45 -164.85 7.55 -169.2 1.2 -173.75 -8.2 -177.45 L-12.8 -179.0 -15.6 -179.9 -28.5 -183.3 -13.5 -186.05 -11.9 -186.25 -2.4 -187.5 7.8 -188.3 Q15.6 -188.75 23.3 -188.7 L43.25 -187.55 58.45 -185.35 Q86.15 -180.15 112.55 -167.3 L107.55 -179.0 Q139.8 -164.65 154.55 -106.05 156.9 -98.4 157.8 -90.85 159.75 -74.2 154.65 -57.7 150.7 -44.7 142.3 -31.8 143.3 -43.5 142.25 -53.45 141.05 -65.75 136.75 -75.05 122.2 -106.6 72.4 -102.55 L63.2 -102.05 Q47.85 -101.0 33.65 -98.35 19.5 -95.7 6.45 -91.65 -10.2 -86.45 -25.1 -78.8 -42.35 -70.0 -57.35 -57.95 L-66.5 -50.15 -69.3 -47.55 Q-118.4 -5.4 -133.4 36.9 -137.65 50.85 -137.75 65.45 -137.65 86.75 -131.2 110.15 L-130.5 112.65 -128.9 118.0 Q-116.5 152.3 -90.15 141.1 -85.05 137.95 -80.55 134.35 -71.75 127.15 -65.25 118.3 -60.0 111.2 -56.2 102.9 -26.2 96.3 -24.75 134.6" fill="#72567e" fill-opacity="0.99607843" fill-rule="evenodd" stroke="none"/>
    <path d="M-24.75 134.6 Q-50.0 157.1 -77.3 167.5 L-83.9 169.85 Q-90.55 171.95 -97.5 173.45 -127.7 175.2 -147.9 144.8 -152.25 138.15 -156.2 130.0 L-156.9 128.05 Q-167.15 100.55 -163.9 66.75 -162.7 55.05 -160.05 42.6 -156.3 25.45 -149.45 6.85 L-148.6 4.45 Q-119.95 -45.2 -67.25 -86.2 L-56.7 -93.7 -41.6 -103.65 -29.25 -111.15 -22.35 -115.2 -20.45 -116.05 7.05 -129.25 19.35 -135.25 Q23.55 -149.25 16.8 -159.75 13.45 -164.85 7.55 -169.2 1.2 -173.75 -8.2 -177.45 L-12.8 -179.0 -15.6 -179.9 -28.5 -183.3 -13.5 -186.05 -11.9 -186.25 -2.4 -187.5 7.8 -188.3 Q15.6 -188.75 23.3 -188.7 L43.25 -187.55 58.45 -185.35 Q86.15 -180.15 112.55 -167.3 L107.55 -179.0 Q139.8 -164.65 154.55 -106.05 156.9 -98.4 157.8 -90.85 159.75 -74.2 154.65 -57.7 150.7 -44.7 142.3 -31.8 143.3 -43.5 142.25 -53.45 141.05 -65.75 136.75 -75.05 122.2 -106.6 72.4 -102.55 L63.2 -102.05 Q47.85 -101.0 33.65 -98.35 19.5 -95.7 6.45 -91.65 -10.2 -86.45 -25.1 -78.8 -42.35 -70.0 -57.35 -57.95 L-66.5 -50.15 -69.3 -47.55 Q-118.4 -5.4 -133.4 36.9 -137.65 50.85 -137.75 65.45 -137.65 86.75 -131.2 110.15 L-130.5 112.65 -128.9 118.0 Q-116.5 152.3 -90.15 141.1 -85.05 137.95 -80.55 134.35 -71.75 127.15 -65.25 118.3 -60.0 111.2 -56.2 102.9 -26.2 96.3 -24.75 134.6 Z" fill="none" stroke="#3f274c" stroke-linecap="round" stroke-linejoin="round" stroke-width="1.0"/>
  </g>
</svg>
