<?xml version="1.0" encoding="UTF-8" standalone="no"?>
<svg xmlns:xlink="http://www.w3.org/1999/xlink" height="365.05px" width="323.15px" xmlns="http://www.w3.org/2000/svg">
  <g transform="matrix(1.0, 0.0, 0.0, 1.0, 165.2, 190.95)">
    <path d="M-24.75 134.55 Q-49.95 157.15 -77.25 167.55 L-83.85 169.85 Q-90.5 172.05 -97.45 173.5 -127.65 175.25 -147.9 144.9 -152.25 138.25 -156.2 130.1 L-156.9 128.15 Q-167.15 100.55 -163.95 66.85 -162.75 55.15 -160.05 42.7 -156.3 25.45 -149.5 6.9 L-148.65 4.5 Q-120.0 -45.15 -68.2 -86.75 L-57.7 -94.4 Q-50.4 -99.55 -42.75 -104.55 L-30.55 -112.2 -23.65 -116.35 -21.8 -117.25 5.5 -130.8 17.8 -136.95 Q21.8 -151.05 14.9 -161.45 11.45 -166.45 5.5 -170.75 -0.95 -175.25 -10.35 -178.75 L-14.95 -180.3 -17.8 -181.15 Q-23.65 -182.95 -30.7 -184.4 L-15.75 -187.3 -14.15 -187.55 -4.65 -188.9 5.5 -189.85 21.0 -190.45 40.95 -189.6 56.15 -187.55 Q83.9 -182.8 110.5 -170.25 L105.4 -181.85 Q137.8 -167.95 153.35 -109.55 155.75 -101.9 156.8 -94.4 158.9 -77.75 154.1 -61.2 150.3 -48.2 142.05 -35.15 142.9 -46.85 141.7 -56.8 140.35 -69.1 135.95 -78.3 120.95 -109.7 71.2 -105.0 L62.05 -104.35 Q46.75 -103.05 32.55 -100.25 18.45 -97.4 5.4 -93.2 -11.1 -87.8 -25.95 -79.9 -43.05 -70.9 -57.9 -58.7 L-67.0 -50.75 -69.7 -48.1 Q-118.3 -5.35 -133.45 37.0 -137.7 50.9 -137.75 65.55 -137.65 86.85 -131.2 110.2 L-130.5 112.75 -128.85 118.05 Q-116.55 152.4 -90.1 141.15 -85.05 138.0 -80.55 134.4 -71.7 127.2 -65.25 118.35 -60.0 111.15 -56.2 102.9 -26.2 96.3 -24.75 134.55" fill="#72567e" fill-opacity="0.99607843" fill-rule="evenodd" stroke="none"/>
    <path d="M-24.75 134.55 Q-49.95 157.15 -77.25 167.55 L-83.85 169.85 Q-90.5 172.05 -97.45 173.5 -127.65 175.25 -147.9 144.9 -152.25 138.25 -156.2 130.1 L-156.9 128.15 Q-167.15 100.55 -163.95 66.85 -162.75 55.15 -160.05 42.7 -156.3 25.45 -149.5 6.9 L-148.65 4.5 Q-120.0 -45.15 -68.2 -86.75 L-57.7 -94.4 Q-50.4 -99.55 -42.75 -104.55 L-30.55 -112.2 -23.65 -116.35 -21.8 -117.25 5.5 -130.8 17.8 -136.95 Q21.8 -151.05 14.9 -161.45 11.45 -166.45 5.5 -170.75 -0.95 -175.25 -10.35 -178.75 L-14.95 -180.3 -17.8 -181.15 Q-23.65 -182.95 -30.7 -184.4 L-15.75 -187.3 -14.15 -187.55 -4.65 -188.9 5.5 -189.85 21.0 -190.45 40.95 -189.6 56.15 -187.55 Q83.9 -182.8 110.5 -170.25 L105.4 -181.85 Q137.8 -167.95 153.35 -109.55 155.75 -101.9 156.8 -94.4 158.9 -77.75 154.1 -61.2 150.3 -48.2 142.05 -35.15 142.9 -46.85 141.7 -56.8 140.35 -69.1 135.95 -78.3 120.95 -109.7 71.2 -105.0 L62.05 -104.35 Q46.75 -103.05 32.55 -100.25 18.45 -97.4 5.4 -93.2 -11.1 -87.8 -25.95 -79.9 -43.05 -70.9 -57.9 -58.7 L-67.0 -50.75 -69.7 -48.1 Q-118.3 -5.35 -133.45 37.0 -137.7 50.9 -137.75 65.55 -137.65 86.85 -131.2 110.2 L-130.5 112.75 -128.85 118.05 Q-116.55 152.4 -90.1 141.15 -85.05 138.0 -80.55 134.4 -71.7 127.2 -65.25 118.35 -60.0 111.15 -56.2 102.9 -26.2 96.3 -24.75 134.55 Z" fill="none" stroke="#3f274c" stroke-linecap="round" stroke-linejoin="round" stroke-width="1.0"/>
  </g>
</svg>
