<?xml version="1.0" encoding="UTF-8" standalone="no"?>
<svg xmlns:xlink="http://www.w3.org/1999/xlink" height="366.8px" width="322.25px" xmlns="http://www.w3.org/2000/svg">
  <g transform="matrix(1.0, 0.0, 0.0, 1.0, 165.2, 192.65)">
    <path d="M-24.7 134.55 Q-49.95 157.15 -77.2 167.6 L-83.8 169.9 Q-90.45 172.1 -97.4 173.55 -127.6 175.35 -147.85 144.95 -152.2 138.35 -156.2 130.15 L-156.9 128.2 Q-167.15 100.7 -163.95 66.95 -162.75 55.25 -160.1 42.8 -156.35 25.55 -149.6 7.0 L-148.7 4.6 Q-120.1 -45.05 -69.15 -87.35 L-58.75 -95.1 -43.95 -105.45 -31.85 -113.3 -25.0 -117.5 -23.15 -118.4 4.0 -132.35 Q10.85 -135.8 16.15 -138.65 20.0 -152.8 12.95 -163.1 9.5 -168.1 3.45 -172.3 -3.0 -176.65 -12.5 -180.1 L-17.15 -181.55 -20.0 -182.4 -32.95 -185.45 -18.05 -188.55 -16.45 -188.8 -6.95 -190.3 3.2 -191.35 18.7 -192.15 Q28.6 -192.2 38.65 -191.6 L53.9 -189.75 Q81.65 -185.3 108.45 -173.15 L103.15 -184.7 Q135.8 -171.25 152.1 -113.05 154.6 -105.45 155.75 -97.9 158.1 -81.3 153.45 -64.7 149.85 -51.65 141.8 -38.45 142.4 -50.2 141.15 -60.1 139.6 -72.4 135.1 -81.55 119.75 -112.75 70.0 -107.4 L60.85 -106.65 Q45.55 -105.15 31.4 -102.15 17.3 -99.15 4.4 -94.7 -12.1 -89.05 -26.85 -81.05 -43.8 -71.8 -58.5 -59.4 L-67.45 -51.35 -70.15 -48.65 Q-118.15 -5.2 -133.5 37.05 -137.7 51.0 -137.8 65.6 -137.7 86.9 -131.2 110.3 L-130.5 112.8 -128.85 118.1 Q-116.45 152.45 -90.1 141.2 -85.05 138.05 -80.5 134.45 -71.7 127.25 -65.25 118.35 -60.0 111.15 -56.25 102.95 -26.15 96.3 -24.7 134.55" fill="#72567e" fill-opacity="0.99607843" fill-rule="evenodd" stroke="none"/>
    <path d="M-24.7 134.55 Q-49.95 157.15 -77.2 167.6 L-83.8 169.9 Q-90.45 172.1 -97.4 173.55 -127.6 175.35 -147.85 144.95 -152.2 138.35 -156.2 130.15 L-156.9 128.2 Q-167.15 100.7 -163.95 66.95 -162.75 55.25 -160.1 42.8 -156.35 25.55 -149.6 7.0 L-148.7 4.6 Q-120.1 -45.05 -69.15 -87.35 L-58.75 -95.1 -43.95 -105.45 -31.85 -113.3 -25.0 -117.5 -23.15 -118.4 4.0 -132.35 Q10.85 -135.8 16.15 -138.65 20.0 -152.8 12.95 -163.1 9.5 -168.1 3.45 -172.3 -3.0 -176.65 -12.5 -180.1 L-17.15 -181.55 -20.0 -182.4 -32.95 -185.45 -18.05 -188.55 -16.45 -188.8 -6.95 -190.3 3.2 -191.35 18.7 -192.15 Q28.6 -192.2 38.65 -191.6 L53.9 -189.75 Q81.65 -185.3 108.45 -173.15 L103.15 -184.7 Q135.8 -171.25 152.1 -113.05 154.6 -105.45 155.75 -97.9 158.1 -81.3 153.45 -64.7 149.85 -51.65 141.8 -38.45 142.4 -50.2 141.15 -60.1 139.6 -72.4 135.1 -81.55 119.75 -112.75 70.0 -107.4 L60.85 -106.65 Q45.55 -105.15 31.4 -102.15 17.3 -99.15 4.4 -94.7 -12.1 -89.05 -26.85 -81.05 -43.8 -71.8 -58.5 -59.4 L-67.45 -51.35 -70.15 -48.65 Q-118.15 -5.2 -133.5 37.05 -137.7 51.0 -137.8 65.6 -137.7 86.9 -131.2 110.3 L-130.5 112.8 -128.85 118.1 Q-116.45 152.45 -90.1 141.2 -85.05 138.05 -80.5 134.45 -71.7 127.25 -65.25 118.35 -60.0 111.15 -56.25 102.95 -26.15 96.3 -24.7 134.55 Z" fill="none" stroke="#3f274c" stroke-linecap="round" stroke-linejoin="round" stroke-width="1.0"/>
  </g>
</svg>
