<?xml version="1.0" encoding="UTF-8" standalone="no"?>
<svg xmlns:xlink="http://www.w3.org/1999/xlink" height="368.6px" width="321.35px" xmlns="http://www.w3.org/2000/svg">
  <g transform="matrix(1.0, 0.0, 0.0, 1.0, 165.25, 194.4)">
    <path d="M-24.7 134.55 Q-49.9 157.15 -77.2 167.6 L-83.8 169.95 Q-90.4 172.15 -97.35 173.6 -127.55 175.4 -147.85 145.05 -152.2 138.4 -156.15 130.25 L-156.9 128.3 Q-167.15 100.8 -164.0 67.05 -162.8 55.3 -160.15 42.85 -156.4 25.7 -149.65 7.1 L-148.75 4.7 Q-120.15 -45.0 -70.1 -87.9 L-59.8 -95.8 -45.15 -106.35 -33.15 -114.3 -26.35 -118.65 -24.5 -119.55 2.45 -133.85 14.5 -140.3 Q18.2 -154.55 11.0 -164.7 7.4 -169.7 1.35 -173.8 -5.1 -178.05 -14.7 -181.4 L-19.35 -182.8 -22.2 -183.55 Q-28.1 -185.2 -35.2 -186.45 L-20.35 -189.75 -18.75 -190.05 -9.3 -191.65 0.85 -192.85 16.35 -193.85 Q26.25 -194.05 36.3 -193.55 L51.55 -191.95 Q79.45 -187.9 106.35 -176.05 L100.9 -187.5 Q133.7 -174.5 150.75 -116.5 153.4 -108.9 154.6 -101.45 157.25 -84.85 152.8 -68.2 149.3 -55.05 141.45 -41.8 142.0 -53.55 140.55 -63.45 138.85 -75.65 134.2 -84.8 118.4 -115.75 68.8 -109.8 L59.65 -108.9 Q44.35 -107.15 30.25 -104.05 16.25 -100.8 3.3 -96.25 -13.05 -90.4 -27.7 -82.15 -44.55 -72.7 -59.05 -60.05 L-67.95 -51.9 -70.6 -49.2 Q-118.0 -5.1 -133.5 37.15 -137.75 51.05 -137.8 65.7 -137.7 87.0 -131.2 110.35 L-130.5 112.85 -128.85 118.2 Q-116.45 152.5 -90.05 141.25 -85.0 138.05 -80.5 134.45 -71.7 127.25 -65.25 118.4 -60.0 111.2 -56.25 102.95 -26.15 96.3 -24.7 134.55" fill="#72567e" fill-opacity="0.99607843" fill-rule="evenodd" stroke="none"/>
    <path d="M-24.7 134.55 Q-49.9 157.15 -77.2 167.6 L-83.8 169.95 Q-90.4 172.15 -97.35 173.6 -127.55 175.4 -147.85 145.05 -152.2 138.4 -156.15 130.25 L-156.9 128.3 Q-167.15 100.8 -164.0 67.05 -162.8 55.3 -160.15 42.85 -156.4 25.7 -149.65 7.1 L-148.75 4.7 Q-120.15 -45.0 -70.1 -87.9 L-59.8 -95.8 -45.15 -106.35 -33.15 -114.3 -26.35 -118.65 -24.5 -119.55 2.45 -133.85 14.5 -140.3 Q18.2 -154.55 11.0 -164.7 7.4 -169.7 1.35 -173.8 -5.1 -178.05 -14.7 -181.4 L-19.35 -182.8 -22.2 -183.55 Q-28.1 -185.2 -35.2 -186.45 L-20.35 -189.75 -18.75 -190.05 -9.3 -191.65 0.85 -192.85 16.35 -193.85 Q26.25 -194.05 36.3 -193.55 L51.55 -191.95 Q79.45 -187.9 106.35 -176.05 L100.9 -187.5 Q133.7 -174.5 150.75 -116.5 153.4 -108.9 154.6 -101.45 157.25 -84.85 152.8 -68.2 149.3 -55.05 141.45 -41.8 142.0 -53.55 140.55 -63.45 138.85 -75.65 134.2 -84.8 118.4 -115.75 68.8 -109.8 L59.65 -108.9 Q44.35 -107.15 30.25 -104.05 16.25 -100.8 3.3 -96.25 -13.05 -90.4 -27.7 -82.15 -44.55 -72.7 -59.05 -60.05 L-67.95 -51.9 -70.6 -49.2 Q-118.0 -5.1 -133.5 37.15 -137.75 51.05 -137.8 65.7 -137.7 87.0 -131.2 110.35 L-130.5 112.85 -128.85 118.2 Q-116.45 152.5 -90.05 141.25 -85.0 138.05 -80.5 134.45 -71.7 127.25 -65.25 118.4 -60.0 111.2 -56.25 102.95 -26.15 96.3 -24.7 134.55 Z" fill="none" stroke="#3f274c" stroke-linecap="round" stroke-linejoin="round" stroke-width="1.0"/>
  </g>
</svg>
