<?xml version="1.0" encoding="UTF-8" standalone="no"?>
<svg xmlns:xlink="http://www.w3.org/1999/xlink" height="370.45px" width="320.3px" xmlns="http://www.w3.org/2000/svg">
  <g transform="matrix(1.0, 0.0, 0.0, 1.0, 165.25, 196.2)">
    <path d="M-24.7 134.55 Q-49.9 157.15 -77.15 167.65 L-83.75 170.0 Q-90.35 172.2 -97.3 173.65 -127.5 175.45 -147.8 145.15 -152.15 138.5 -156.15 130.35 L-156.85 128.4 Q-167.2 100.9 -164.0 67.15 -162.85 55.4 -160.15 42.95 -156.45 25.8 -149.7 7.15 L-148.8 4.75 Q-120.3 -44.9 -71.05 -88.4 L-60.9 -96.45 -46.35 -107.2 -34.45 -115.35 -27.75 -119.75 -25.9 -120.7 0.85 -135.35 12.85 -141.95 Q16.3 -156.25 9.0 -166.35 5.4 -171.2 -0.7 -175.3 -7.3 -179.5 -16.9 -182.65 L-21.6 -184.0 -24.4 -184.75 -37.45 -187.45 -22.65 -190.95 -21.05 -191.25 -11.65 -193.0 -1.45 -194.35 14.0 -195.55 Q23.9 -195.85 33.9 -195.5 L49.2 -194.05 Q77.2 -190.35 104.2 -178.9 L98.6 -190.3 Q131.55 -177.7 149.4 -119.95 152.1 -112.45 153.45 -104.95 156.25 -88.45 152.05 -71.7 148.75 -58.5 141.1 -45.15 141.4 -56.9 139.9 -66.75 138.05 -79.05 133.25 -88.05 117.05 -118.8 67.55 -112.15 L58.4 -111.15 Q43.1 -109.25 29.1 -105.9 15.1 -102.5 2.25 -97.75 -14.1 -91.65 -28.6 -83.25 -45.3 -73.55 -59.65 -60.75 L-68.4 -52.5 -71.05 -49.75 Q-117.9 -5.05 -133.55 37.2 -137.8 51.15 -137.85 65.75 -137.7 87.05 -131.2 110.45 L-130.45 112.95 -128.85 118.25 Q-116.4 152.6 -90.05 141.3 -85.0 138.1 -80.5 134.5 -71.7 127.3 -65.2 118.4 -60.0 111.2 -56.25 102.95 -26.25 96.3 -24.7 134.55" fill="#72567e" fill-opacity="0.99607843" fill-rule="evenodd" stroke="none"/>
    <path d="M-24.7 134.55 Q-49.9 157.15 -77.15 167.65 L-83.75 170.0 Q-90.35 172.2 -97.3 173.65 -127.5 175.45 -147.8 145.15 -152.15 138.5 -156.15 130.35 L-156.85 128.4 Q-167.2 100.9 -164.0 67.15 -162.85 55.4 -160.15 42.95 -156.45 25.8 -149.7 7.15 L-148.8 4.75 Q-120.3 -44.9 -71.05 -88.4 L-60.9 -96.45 -46.35 -107.2 -34.45 -115.35 -27.75 -119.75 -25.9 -120.7 0.85 -135.35 12.85 -141.95 Q16.3 -156.25 9.0 -166.35 5.4 -171.2 -0.7 -175.3 -7.3 -179.5 -16.9 -182.65 L-21.6 -184.0 -24.4 -184.75 -37.45 -187.45 -22.65 -190.95 -21.05 -191.25 -11.65 -193.0 -1.45 -194.35 14.0 -195.55 Q23.9 -195.85 33.9 -195.5 L49.2 -194.05 Q77.2 -190.35 104.2 -178.9 L98.6 -190.3 Q131.55 -177.7 149.4 -119.95 152.1 -112.45 153.45 -104.95 156.25 -88.45 152.05 -71.7 148.75 -58.5 141.1 -45.15 141.4 -56.9 139.9 -66.75 138.05 -79.05 133.25 -88.05 117.05 -118.8 67.55 -112.15 L58.4 -111.15 Q43.1 -109.25 29.1 -105.9 15.1 -102.5 2.25 -97.75 -14.1 -91.65 -28.6 -83.25 -45.3 -73.55 -59.65 -60.75 L-68.4 -52.5 -71.05 -49.75 Q-117.9 -5.05 -133.55 37.2 -137.8 51.15 -137.85 65.75 -137.7 87.05 -131.2 110.45 L-130.45 112.95 -128.85 118.25 Q-116.4 152.6 -90.05 141.3 -85.0 138.1 -80.5 134.5 -71.7 127.3 -65.2 118.4 -60.0 111.2 -56.25 102.95 -26.25 96.3 -24.7 134.55 Z" fill="none" stroke="#3f274c" stroke-linecap="round" stroke-linejoin="round" stroke-width="1.0"/>
  </g>
</svg>
