<?xml version="1.0" encoding="UTF-8" standalone="no"?>
<svg xmlns:xlink="http://www.w3.org/1999/xlink" height="372.3px" width="319.3px" xmlns="http://www.w3.org/2000/svg">
  <g transform="matrix(1.0, 0.0, 0.0, 1.0, 165.25, 198.0)">
    <path d="M-24.65 134.55 Q-49.85 157.2 -77.1 167.7 L-83.7 170.05 Q-90.3 172.15 -97.25 173.7 -127.45 175.5 -147.8 145.2 -152.15 138.6 -156.15 130.45 L-156.85 128.5 Q-167.2 101.0 -164.0 67.2 -162.85 55.5 -160.2 43.05 -156.5 25.9 -149.75 7.25 L-148.85 4.85 Q-120.35 -44.85 -72.05 -88.95 L-61.95 -97.15 -47.55 -108.05 -35.75 -116.35 -29.1 -120.85 -27.3 -121.8 -0.7 -136.8 11.2 -143.6 Q14.45 -157.9 7.0 -167.9 3.35 -172.75 -2.8 -176.75 -9.45 -180.8 -19.1 -183.9 L-23.8 -185.15 -26.65 -185.85 -39.75 -188.4 -24.95 -192.1 -23.4 -192.45 -14.0 -194.3 -3.85 -195.75 11.6 -197.2 Q21.5 -197.65 31.55 -197.4 L46.85 -196.2 Q74.85 -192.8 102.0 -181.75 L96.3 -193.05 Q129.4 -180.9 148.0 -123.4 150.85 -115.9 152.25 -108.45 155.25 -91.95 151.3 -75.15 148.15 -61.95 140.65 -48.5 140.9 -60.25 139.2 -70.1 137.2 -82.25 132.3 -91.25 115.65 -121.85 66.25 -114.5 L57.1 -113.4 Q41.9 -111.3 27.85 -107.75 13.9 -104.15 1.15 -99.25 -15.1 -92.95 -29.5 -84.35 -46.05 -74.45 -60.25 -61.45 L-68.9 -53.05 -71.5 -50.25 Q-117.75 -4.95 -133.6 37.3 -137.8 51.2 -137.85 65.85 -137.7 87.15 -131.2 110.5 L-130.45 113.0 -128.85 118.3 Q-116.4 152.65 -90.0 141.35 -84.95 138.15 -80.45 134.55 -71.65 127.35 -65.2 118.45 -60.0 111.25 -56.25 103.0 -26.25 96.25 -24.65 134.55" fill="#72567e" fill-opacity="0.99607843" fill-rule="evenodd" stroke="none"/>
    <path d="M-24.65 134.55 Q-49.85 157.2 -77.1 167.7 L-83.7 170.05 Q-90.3 172.15 -97.25 173.7 -127.45 175.5 -147.8 145.2 -152.15 138.6 -156.15 130.45 L-156.85 128.5 Q-167.2 101.0 -164.0 67.2 -162.85 55.5 -160.2 43.05 -156.5 25.9 -149.75 7.25 L-148.85 4.85 Q-120.35 -44.85 -72.05 -88.95 L-61.95 -97.15 -47.55 -108.05 -35.75 -116.35 -29.1 -120.85 -27.3 -121.8 -0.7 -136.8 11.2 -143.6 Q14.45 -157.9 7.0 -167.9 3.35 -172.75 -2.8 -176.75 -9.45 -180.8 -19.1 -183.9 L-23.8 -185.15 -26.65 -185.85 -39.75 -188.4 -24.95 -192.1 -23.4 -192.45 -14.0 -194.3 -3.85 -195.75 11.6 -197.2 Q21.5 -197.65 31.55 -197.4 L46.85 -196.2 Q74.85 -192.8 102.0 -181.75 L96.3 -193.05 Q129.4 -180.9 148.0 -123.4 150.85 -115.9 152.25 -108.45 155.25 -91.95 151.3 -75.15 148.15 -61.95 140.65 -48.5 140.9 -60.25 139.2 -70.1 137.2 -82.25 132.3 -91.25 115.65 -121.85 66.25 -114.5 L57.1 -113.4 Q41.9 -111.3 27.85 -107.75 13.9 -104.15 1.15 -99.25 -15.1 -92.95 -29.5 -84.35 -46.05 -74.45 -60.25 -61.45 L-68.9 -53.05 -71.5 -50.25 Q-117.75 -4.95 -133.6 37.3 -137.8 51.2 -137.85 65.85 -137.7 87.15 -131.2 110.5 L-130.45 113.0 -128.85 118.3 Q-116.4 152.65 -90.0 141.35 -84.95 138.15 -80.45 134.55 -71.65 127.35 -65.2 118.45 -60.0 111.25 -56.25 103.0 -26.25 96.25 -24.65 134.55 Z" fill="none" stroke="#3f274c" stroke-linecap="round" stroke-linejoin="round" stroke-width="1.0"/>
  </g>
</svg>
