<?xml version="1.0" encoding="UTF-8" standalone="no"?>
<svg xmlns:xlink="http://www.w3.org/1999/xlink" height="374.15px" width="318.3px" xmlns="http://www.w3.org/2000/svg">
  <g transform="matrix(1.0, 0.0, 0.0, 1.0, 165.3, 199.8)">
    <path d="M-24.65 134.55 Q-49.75 157.2 -77.05 167.7 L-83.65 170.05 Q-90.3 172.25 -97.2 173.75 -127.4 175.65 -147.75 145.3 -152.1 138.65 -156.1 130.5 L-156.85 128.55 Q-167.2 101.1 -164.05 67.3 -162.85 55.6 -160.25 43.15 -156.55 25.9 -149.8 7.35 L-148.9 4.95 Q-120.45 -44.75 -73.0 -89.45 L-63.05 -97.8 -48.8 -108.9 -37.1 -117.35 -30.5 -121.95 -28.7 -122.9 -2.3 -138.25 9.45 -145.2 Q12.55 -159.5 5.0 -169.45 1.25 -174.25 -4.95 -178.15 -11.6 -182.2 -21.35 -185.1 L-26.05 -186.3 -28.9 -186.95 Q-34.9 -188.35 -42.05 -189.35 -34.55 -191.5 -27.3 -193.25 L-25.75 -193.6 -16.35 -195.55 -6.25 -197.2 9.2 -198.8 Q19.1 -199.4 29.1 -199.25 L44.45 -198.25 Q72.45 -195.3 99.8 -184.55 L93.9 -195.8 Q127.2 -184.1 146.55 -126.8 149.5 -119.35 151.0 -111.9 154.25 -95.45 150.5 -78.6 147.5 -65.4 140.2 -51.8 140.3 -63.55 138.45 -73.4 136.2 -85.55 131.25 -94.45 114.25 -124.8 64.9 -116.85 L55.8 -115.6 Q40.6 -113.25 26.65 -109.55 12.7 -105.8 0.05 -100.75 -16.15 -94.2 -30.4 -85.4 -46.9 -75.25 -60.9 -62.1 L-69.4 -53.6 -71.95 -50.8 Q-117.6 -4.9 -133.65 37.35 -137.85 51.3 -137.9 65.9 -137.75 87.2 -131.2 110.55 L-130.45 113.1 -128.8 118.4 Q-116.35 152.7 -90.0 141.4 -84.95 138.2 -80.45 134.6 -71.65 127.35 -65.2 118.5 -60.0 111.25 -56.25 103.0 -26.25 96.35 -24.65 134.55" fill="#72567e" fill-opacity="0.99607843" fill-rule="evenodd" stroke="none"/>
    <path d="M-24.65 134.55 Q-49.75 157.2 -77.05 167.7 L-83.65 170.05 Q-90.3 172.25 -97.2 173.75 -127.4 175.65 -147.75 145.3 -152.1 138.65 -156.1 130.5 L-156.85 128.55 Q-167.2 101.1 -164.05 67.3 -162.85 55.6 -160.25 43.15 -156.55 25.9 -149.8 7.35 L-148.9 4.95 Q-120.45 -44.75 -73.0 -89.45 L-63.05 -97.8 -48.8 -108.9 -37.1 -117.35 -30.5 -121.95 -28.7 -122.9 -2.3 -138.25 9.45 -145.2 Q12.55 -159.5 5.0 -169.45 1.25 -174.25 -4.95 -178.15 -11.6 -182.2 -21.35 -185.1 L-26.05 -186.3 -28.9 -186.95 Q-34.9 -188.35 -42.05 -189.35 -34.55 -191.5 -27.3 -193.25 L-25.75 -193.6 -16.35 -195.55 -6.25 -197.2 9.2 -198.8 Q19.1 -199.4 29.1 -199.25 L44.45 -198.25 Q72.45 -195.3 99.8 -184.55 L93.9 -195.8 Q127.2 -184.1 146.55 -126.8 149.5 -119.35 151.0 -111.9 154.25 -95.45 150.5 -78.6 147.5 -65.4 140.2 -51.8 140.3 -63.55 138.45 -73.4 136.2 -85.55 131.25 -94.45 114.25 -124.8 64.9 -116.85 L55.8 -115.6 Q40.6 -113.25 26.65 -109.55 12.7 -105.8 0.05 -100.75 -16.15 -94.2 -30.4 -85.4 -46.9 -75.25 -60.9 -62.1 L-69.4 -53.6 -71.95 -50.8 Q-117.6 -4.9 -133.65 37.35 -137.85 51.3 -137.9 65.9 -137.75 87.2 -131.2 110.55 L-130.45 113.1 -128.8 118.4 Q-116.35 152.7 -90.0 141.4 -84.95 138.2 -80.45 134.6 -71.65 127.35 -65.2 118.5 -60.0 111.25 -56.25 103.0 -26.25 96.35 -24.65 134.55 Z" fill="none" stroke="#3f274c" stroke-linecap="round" stroke-linejoin="round" stroke-width="1.0"/>
  </g>
</svg>
