<?xml version="1.0" encoding="UTF-8" standalone="no"?>
<svg xmlns:xlink="http://www.w3.org/1999/xlink" height="376.0px" width="317.2px" xmlns="http://www.w3.org/2000/svg">
  <g transform="matrix(1.0, 0.0, 0.0, 1.0, 165.3, 201.6)">
    <path d="M-24.6 134.55 Q-49.8 157.2 -77.0 167.75 L-83.6 170.1 Q-90.25 172.3 -97.15 173.8 -127.35 175.7 -147.75 145.4 -152.1 138.75 -156.1 130.6 L-156.8 128.65 Q-167.2 101.2 -164.05 67.4 -162.9 55.7 -160.25 43.25 -156.55 26.0 -149.85 7.4 L-148.95 5.0 Q-120.5 -44.7 -74.0 -89.95 L-64.15 -98.4 -50.05 -109.7 -38.45 -118.3 -31.95 -123.0 -30.15 -124.0 -3.95 -139.7 7.75 -146.8 Q10.6 -161.2 2.95 -171.0 -0.85 -175.7 -7.1 -179.55 -13.85 -183.45 -23.6 -186.25 L-28.35 -187.4 -31.2 -188.05 -44.35 -190.25 -29.65 -194.35 -28.1 -194.7 -18.75 -196.8 -8.65 -198.55 6.75 -200.35 26.65 -201.1 42.0 -200.3 Q70.05 -197.75 97.55 -187.3 L91.5 -198.5 Q124.95 -187.25 145.05 -130.2 148.05 -122.75 149.7 -115.35 153.15 -99.0 149.6 -82.05 146.85 -68.75 139.7 -55.15 139.55 -66.9 137.65 -76.7 135.25 -88.85 130.2 -97.65 112.75 -127.8 63.55 -119.15 L54.45 -117.8 Q39.3 -115.3 25.4 -111.4 11.55 -107.4 -1.05 -102.2 -17.15 -95.5 -31.35 -86.45 -47.7 -76.15 -61.5 -62.75 L-69.9 -54.15 -72.45 -51.3 Q-117.5 -4.8 -133.65 37.45 -137.9 51.35 -137.9 66.0 -137.75 87.3 -131.2 110.65 L-130.45 113.15 -128.8 118.45 Q-116.35 152.75 -89.95 141.4 -84.9 138.25 -80.4 134.6 -71.7 127.4 -65.2 118.5 -59.95 111.3 -56.25 103.0 -26.25 96.35 -24.6 134.55" fill="#72567e" fill-opacity="0.99607843" fill-rule="evenodd" stroke="none"/>
    <path d="M-24.6 134.55 Q-49.8 157.2 -77.0 167.75 L-83.6 170.1 Q-90.25 172.3 -97.15 173.8 -127.35 175.7 -147.75 145.4 -152.1 138.75 -156.1 130.6 L-156.8 128.65 Q-167.2 101.2 -164.05 67.4 -162.9 55.7 -160.25 43.25 -156.55 26.0 -149.85 7.4 L-148.95 5.0 Q-120.5 -44.7 -74.0 -89.95 L-64.15 -98.4 -50.05 -109.7 -38.45 -118.3 -31.95 -123.0 -30.15 -124.0 -3.95 -139.7 7.75 -146.8 Q10.6 -161.2 2.95 -171.0 -0.85 -175.7 -7.1 -179.55 -13.85 -183.45 -23.6 -186.25 L-28.35 -187.4 -31.2 -188.05 -44.35 -190.25 -29.65 -194.35 -28.1 -194.7 -18.75 -196.8 -8.65 -198.55 6.75 -200.35 26.65 -201.1 42.0 -200.3 Q70.05 -197.75 97.55 -187.3 L91.5 -198.5 Q124.95 -187.25 145.05 -130.2 148.05 -122.75 149.7 -115.35 153.15 -99.0 149.6 -82.05 146.85 -68.75 139.7 -55.15 139.55 -66.9 137.65 -76.7 135.25 -88.85 130.2 -97.65 112.75 -127.8 63.55 -119.15 L54.45 -117.8 Q39.3 -115.3 25.4 -111.4 11.55 -107.4 -1.05 -102.2 -17.15 -95.5 -31.35 -86.45 -47.7 -76.15 -61.5 -62.75 L-69.9 -54.15 -72.45 -51.3 Q-117.5 -4.8 -133.65 37.45 -137.9 51.35 -137.9 66.0 -137.75 87.3 -131.2 110.65 L-130.45 113.15 -128.8 118.45 Q-116.35 152.75 -89.95 141.4 -84.9 138.25 -80.4 134.6 -71.7 127.4 -65.2 118.5 -59.95 111.3 -56.25 103.0 -26.25 96.35 -24.6 134.55 Z" fill="none" stroke="#3f274c" stroke-linecap="round" stroke-linejoin="round" stroke-width="1.0"/>
  </g>
</svg>
