<?xml version="1.0" encoding="UTF-8" standalone="no"?>
<svg xmlns:xlink="http://www.w3.org/1999/xlink" height="377.85px" width="316.1px" xmlns="http://www.w3.org/2000/svg">
  <g transform="matrix(1.0, 0.0, 0.0, 1.0, 165.3, 203.4)">
    <path d="M-24.6 134.55 Q-49.7 157.2 -76.95 167.8 L-83.55 170.15 Q-90.2 172.35 -97.1 173.85 -127.3 175.75 -147.7 145.45 -152.05 138.85 -156.05 130.7 L-156.8 128.75 Q-167.2 101.25 -164.1 67.5 -162.9 55.8 -160.3 43.3 -156.6 26.15 -149.9 7.5 L-149.0 5.1 Q-120.65 -44.6 -75.0 -90.45 L-65.25 -99.05 -51.3 -110.5 -39.85 -119.25 -33.35 -124.05 -31.6 -125.05 -5.6 -141.1 6.0 -148.35 Q8.65 -162.8 0.85 -172.5 -2.9 -177.15 -9.3 -180.9 -16.1 -184.7 -25.85 -187.4 L-30.6 -188.5 -33.5 -189.1 -46.65 -191.15 -32.05 -195.4 -30.5 -195.8 -21.15 -198.0 -11.05 -199.9 4.3 -201.9 24.2 -202.9 39.55 -202.3 Q67.6 -200.1 95.25 -190.05 L89.1 -201.15 Q122.65 -190.35 143.5 -133.6 146.65 -126.25 148.35 -118.8 152.05 -102.45 148.7 -85.5 146.15 -72.2 139.15 -58.45 138.85 -70.2 136.8 -79.95 134.35 -92.1 129.05 -100.85 111.3 -130.75 62.15 -121.45 L53.1 -120.0 Q37.95 -117.3 24.1 -113.2 10.3 -109.05 -2.2 -103.65 -18.25 -96.75 -32.3 -87.55 -48.5 -76.95 -62.15 -63.45 L-70.45 -54.7 -72.9 -51.85 Q-117.35 -4.75 -133.7 37.5 -137.9 51.45 -137.9 66.05 -137.75 87.35 -131.2 110.7 L-130.45 113.25 -128.8 118.55 Q-116.25 152.85 -89.95 141.45 -84.9 138.3 -80.4 134.65 -71.6 127.45 -65.2 118.55 -59.95 111.3 -56.25 103.05 -26.25 96.3 -24.6 134.55" fill="#72567e" fill-opacity="0.99607843" fill-rule="evenodd" stroke="none"/>
    <path d="M-24.6 134.55 Q-49.7 157.2 -76.95 167.8 L-83.55 170.15 Q-90.2 172.35 -97.1 173.85 -127.3 175.75 -147.7 145.45 -152.05 138.85 -156.05 130.7 L-156.8 128.75 Q-167.2 101.25 -164.1 67.5 -162.9 55.8 -160.3 43.3 -156.6 26.15 -149.9 7.5 L-149.0 5.1 Q-120.65 -44.6 -75.0 -90.45 L-65.25 -99.05 -51.3 -110.5 -39.85 -119.25 -33.35 -124.05 -31.6 -125.05 -5.6 -141.1 6.0 -148.35 Q8.65 -162.8 0.85 -172.5 -2.9 -177.15 -9.3 -180.9 -16.1 -184.7 -25.85 -187.4 L-30.6 -188.5 -33.5 -189.1 -46.65 -191.15 -32.05 -195.4 -30.5 -195.8 -21.15 -198.0 -11.05 -199.9 4.3 -201.9 24.2 -202.9 39.55 -202.3 Q67.6 -200.1 95.25 -190.05 L89.1 -201.15 Q122.65 -190.35 143.5 -133.6 146.65 -126.25 148.35 -118.8 152.05 -102.45 148.7 -85.5 146.15 -72.2 139.15 -58.45 138.85 -70.2 136.8 -79.95 134.35 -92.1 129.05 -100.85 111.3 -130.75 62.15 -121.45 L53.1 -120.0 Q37.95 -117.3 24.1 -113.2 10.3 -109.05 -2.2 -103.65 -18.25 -96.75 -32.3 -87.55 -48.5 -76.95 -62.15 -63.45 L-70.45 -54.7 -72.9 -51.85 Q-117.35 -4.75 -133.7 37.5 -137.9 51.45 -137.9 66.05 -137.75 87.35 -131.2 110.7 L-130.45 113.25 -128.8 118.55 Q-116.25 152.85 -89.95 141.45 -84.9 138.3 -80.4 134.65 -71.6 127.45 -65.2 118.55 -59.95 111.3 -56.25 103.05 -26.25 96.3 -24.6 134.55 Z" fill="none" stroke="#3f274c" stroke-linecap="round" stroke-linejoin="round" stroke-width="1.0"/>
  </g>
</svg>
