<?xml version="1.0" encoding="UTF-8" standalone="no"?>
<svg xmlns:xlink="http://www.w3.org/1999/xlink" height="379.7px" width="314.9px" xmlns="http://www.w3.org/2000/svg">
  <g transform="matrix(1.0, 0.0, 0.0, 1.0, 165.3, 205.2)">
    <path d="M-24.6 134.55 Q-49.65 157.2 -76.9 167.85 L-83.5 170.2 Q-90.15 172.4 -97.05 173.9 -127.25 175.8 -147.65 145.55 -152.05 138.9 -156.05 130.8 L-156.8 128.85 Q-167.2 101.35 -164.1 67.6 -162.95 55.85 -160.35 43.4 -156.65 26.25 -149.95 7.6 L-149.05 5.15 Q-120.7 -44.55 -76.0 -90.95 L-66.35 -99.65 -52.55 -111.3 -41.2 -120.2 -34.8 -125.05 -33.05 -126.1 -7.25 -142.5 Q-0.75 -146.6 4.2 -149.9 6.7 -164.35 -1.15 -173.95 -5.1 -178.6 -11.5 -182.25 -18.3 -186.0 -28.15 -188.5 L-32.9 -189.55 -35.8 -190.1 -49.0 -191.95 -34.45 -196.45 -32.9 -196.85 -23.6 -199.2 -13.5 -201.2 1.8 -203.45 21.7 -204.7 Q29.35 -204.7 37.05 -204.3 65.2 -202.4 92.95 -192.8 L86.6 -203.8 Q120.3 -193.35 141.95 -136.95 145.1 -129.6 146.95 -122.25 150.85 -105.95 147.75 -88.95 145.35 -75.6 138.55 -61.75 138.1 -73.5 135.95 -83.25 133.25 -95.3 127.9 -104.05 109.7 -133.65 60.75 -123.75 L51.7 -122.15 Q36.55 -119.2 22.8 -114.95 9.0 -110.65 -3.4 -105.1 -19.35 -97.95 -33.25 -88.55 -49.3 -77.8 -62.8 -64.1 L-70.95 -55.25 -73.4 -52.35 Q-117.2 -4.65 -133.75 37.6 -137.95 51.5 -137.95 66.15 -137.7 87.45 -131.2 110.8 L-130.45 113.3 -128.8 118.6 Q-116.25 152.9 -89.9 141.5 -84.85 138.3 -80.4 134.7 -71.6 127.45 -65.2 118.55 -59.95 111.35 -56.25 103.05 -26.25 96.3 -24.6 134.55" fill="#72567e" fill-opacity="0.99607843" fill-rule="evenodd" stroke="none"/>
    <path d="M-24.6 134.55 Q-49.65 157.2 -76.9 167.85 L-83.5 170.2 Q-90.15 172.4 -97.05 173.9 -127.25 175.8 -147.65 145.55 -152.05 138.9 -156.05 130.8 L-156.8 128.85 Q-167.2 101.35 -164.1 67.6 -162.95 55.85 -160.35 43.4 -156.65 26.25 -149.95 7.6 L-149.05 5.15 Q-120.7 -44.55 -76.0 -90.95 L-66.35 -99.65 -52.55 -111.3 -41.2 -120.2 -34.8 -125.05 -33.05 -126.1 -7.25 -142.5 Q-0.75 -146.6 4.2 -149.9 6.7 -164.35 -1.15 -173.95 -5.1 -178.6 -11.5 -182.25 -18.3 -186.0 -28.15 -188.5 L-32.9 -189.55 -35.8 -190.1 -49.0 -191.95 -34.45 -196.45 -32.9 -196.85 -23.6 -199.2 -13.5 -201.2 1.8 -203.45 21.7 -204.7 Q29.35 -204.7 37.05 -204.3 65.2 -202.4 92.95 -192.8 L86.6 -203.8 Q120.3 -193.35 141.95 -136.95 145.1 -129.6 146.95 -122.25 150.85 -105.95 147.75 -88.95 145.35 -75.6 138.55 -61.75 138.1 -73.5 135.95 -83.25 133.25 -95.3 127.9 -104.05 109.7 -133.65 60.75 -123.75 L51.7 -122.15 Q36.55 -119.2 22.8 -114.95 9.0 -110.65 -3.4 -105.1 -19.35 -97.95 -33.25 -88.55 -49.3 -77.8 -62.8 -64.1 L-70.95 -55.25 -73.4 -52.35 Q-117.2 -4.65 -133.75 37.6 -137.95 51.5 -137.95 66.15 -137.7 87.45 -131.2 110.8 L-130.45 113.3 -128.8 118.6 Q-116.25 152.9 -89.9 141.5 -84.85 138.3 -80.4 134.7 -71.6 127.45 -65.2 118.55 -59.95 111.35 -56.25 103.05 -26.25 96.3 -24.6 134.55 Z" fill="none" stroke="#3f274c" stroke-linecap="round" stroke-linejoin="round" stroke-width="1.0"/>
  </g>
</svg>
