<?xml version="1.0" encoding="UTF-8" standalone="no"?>
<svg xmlns:xlink="http://www.w3.org/1999/xlink" height="381.55px" width="313.75px" xmlns="http://www.w3.org/2000/svg">
  <g transform="matrix(1.0, 0.0, 0.0, 1.0, 165.3, 207.0)">
    <path d="M-24.55 134.5 Q-49.65 157.25 -76.85 167.85 L-83.45 170.2 Q-90.1 172.45 -97.0 173.95 -127.2 175.9 -147.65 145.65 -152.0 139.0 -156.05 130.85 L-156.75 128.95 Q-167.15 101.45 -164.1 67.7 -162.95 55.95 -160.4 43.5 -156.7 26.25 -150.0 7.65 L-149.15 5.25 Q-120.7 -44.45 -77.0 -91.4 L-67.5 -100.25 -53.85 -112.1 -42.6 -121.15 -36.3 -126.05 -34.55 -127.15 -8.95 -143.85 Q-2.5 -148.05 2.45 -151.4 4.7 -165.95 -3.25 -175.4 -7.3 -179.95 -13.7 -183.55 -20.6 -187.2 -30.45 -189.6 L-35.2 -190.6 -38.1 -191.1 -51.35 -192.8 -36.85 -197.45 -35.3 -197.85 -26.0 -200.35 -16.0 -202.5 -0.65 -204.9 19.2 -206.45 Q26.85 -206.6 34.55 -206.25 62.7 -204.75 90.55 -195.45 L84.1 -206.4 Q117.95 -196.4 140.3 -140.3 143.6 -133.0 145.5 -125.65 149.65 -109.35 146.75 -92.35 144.5 -79.0 137.9 -65.05 137.3 -76.8 135.0 -86.5 132.15 -98.55 126.7 -107.2 108.1 -136.6 59.3 -126.0 L50.25 -124.3 Q35.2 -121.2 21.45 -116.75 7.75 -112.25 -4.6 -106.5 -20.5 -99.15 -34.25 -89.6 -50.15 -78.65 -63.45 -64.75 L-71.5 -55.8 -73.9 -52.85 Q-117.1 -4.55 -133.8 37.65 -138.0 51.6 -137.95 66.2 -137.8 87.5 -131.15 110.85 L-130.45 113.35 -128.8 118.65 Q-116.2 152.95 -89.9 141.55 -84.85 138.35 -80.35 134.75 -71.65 127.5 -65.2 118.6 -59.95 111.35 -56.25 103.1 -26.3 96.3 -24.55 134.5" fill="#72567e" fill-opacity="0.99607843" fill-rule="evenodd" stroke="none"/>
    <path d="M-24.55 134.5 Q-49.65 157.25 -76.85 167.85 L-83.45 170.2 Q-90.1 172.45 -97.0 173.95 -127.2 175.9 -147.65 145.65 -152.0 139.0 -156.05 130.85 L-156.75 128.95 Q-167.15 101.45 -164.1 67.7 -162.95 55.95 -160.4 43.5 -156.7 26.25 -150.0 7.65 L-149.15 5.25 Q-120.7 -44.45 -77.0 -91.4 L-67.5 -100.25 -53.85 -112.1 -42.6 -121.15 -36.3 -126.05 -34.55 -127.15 -8.95 -143.85 Q-2.5 -148.05 2.45 -151.4 4.7 -165.95 -3.25 -175.4 -7.3 -179.95 -13.7 -183.55 -20.6 -187.2 -30.45 -189.6 L-35.2 -190.6 -38.1 -191.1 -51.35 -192.8 -36.85 -197.45 -35.3 -197.85 -26.0 -200.35 -16.0 -202.5 -0.65 -204.9 19.2 -206.45 Q26.85 -206.6 34.55 -206.25 62.7 -204.75 90.55 -195.45 L84.1 -206.4 Q117.95 -196.4 140.3 -140.3 143.6 -133.0 145.5 -125.65 149.65 -109.35 146.75 -92.35 144.5 -79.0 137.9 -65.05 137.3 -76.8 135.0 -86.5 132.15 -98.55 126.7 -107.2 108.1 -136.6 59.3 -126.0 L50.25 -124.3 Q35.2 -121.2 21.45 -116.75 7.75 -112.25 -4.6 -106.5 -20.5 -99.15 -34.25 -89.6 -50.15 -78.65 -63.45 -64.75 L-71.5 -55.8 -73.9 -52.85 Q-117.1 -4.55 -133.8 37.65 -138.0 51.6 -137.95 66.2 -137.8 87.5 -131.15 110.85 L-130.45 113.35 -128.8 118.65 Q-116.2 152.95 -89.9 141.55 -84.85 138.35 -80.35 134.75 -71.65 127.5 -65.2 118.6 -59.95 111.35 -56.25 103.1 -26.3 96.3 -24.55 134.5 Z" fill="none" stroke="#3f274c" stroke-linecap="round" stroke-linejoin="round" stroke-width="1.0"/>
  </g>
</svg>
