<?xml version="1.0" encoding="UTF-8" standalone="no"?>
<svg xmlns:xlink="http://www.w3.org/1999/xlink" height="384.05px" width="312.5px" xmlns="http://www.w3.org/2000/svg">
  <g transform="matrix(1.0, 0.0, 0.0, 1.0, 165.3, 209.45)">
    <path d="M-24.55 134.5 Q-49.6 157.25 -76.85 167.9 L-83.4 170.25 Q-90.05 172.5 -96.95 174.0 -127.15 175.95 -147.6 145.7 -152.0 139.1 -156.0 130.95 L-156.75 129.0 Q-167.15 101.55 -164.15 67.75 -163.0 56.05 -160.4 43.6 -156.8 26.35 -150.05 7.75 L-149.2 5.35 Q-120.85 -44.45 -78.0 -91.85 L-68.6 -100.8 -55.1 -112.85 -44.0 -122.05 -37.75 -127.05 -36.0 -128.15 -10.7 -145.2 Q-4.3 -149.5 0.6 -152.9 2.7 -167.45 -5.4 -176.8 -9.45 -181.35 -15.95 -184.85 -22.9 -188.35 -32.75 -190.65 L-37.55 -191.55 -40.45 -192.05 -53.7 -193.55 Q-46.35 -196.25 -39.25 -198.4 L-37.7 -198.85 -28.5 -201.45 -18.45 -203.75 -3.15 -206.35 16.65 -208.15 Q24.3 -208.35 32.0 -208.15 60.15 -207.1 88.15 -198.15 L81.55 -208.95 Q115.55 -199.5 138.6 -143.6 142.05 -136.4 144.05 -129.0 148.35 -112.85 145.7 -95.75 143.7 -82.4 137.25 -68.35 136.5 -80.1 134.05 -89.75 131.05 -101.75 125.5 -110.35 106.45 -139.45 57.8 -128.25 L48.8 -126.45 Q33.8 -123.15 20.1 -118.5 6.45 -113.85 -5.8 -107.9 -21.6 -100.4 -35.25 -90.6 -51.0 -79.4 -64.1 -65.35 L-72.05 -56.3 -74.4 -53.35 Q-116.9 -4.5 -133.8 37.75 -138.0 51.65 -138.0 66.3 -137.75 87.6 -131.15 110.95 L-130.45 113.45 -128.75 118.75 Q-116.2 153.05 -89.85 141.6 -84.8 138.4 -80.35 134.75 -71.55 127.5 -65.15 118.6 -59.95 111.4 -56.25 103.1 -26.3 96.3 -24.55 134.5" fill="#72567e" fill-opacity="0.99607843" fill-rule="evenodd" stroke="none"/>
    <path d="M-24.55 134.5 Q-49.6 157.25 -76.85 167.9 L-83.4 170.25 Q-90.05 172.5 -96.95 174.0 -127.15 175.95 -147.6 145.7 -152.0 139.1 -156.0 130.95 L-156.75 129.0 Q-167.15 101.55 -164.15 67.75 -163.0 56.05 -160.4 43.6 -156.8 26.35 -150.05 7.75 L-149.2 5.35 Q-120.85 -44.45 -78.0 -91.85 L-68.6 -100.8 -55.1 -112.85 -44.0 -122.05 -37.75 -127.05 -36.0 -128.15 -10.7 -145.2 Q-4.3 -149.5 0.6 -152.9 2.7 -167.45 -5.4 -176.8 -9.45 -181.35 -15.95 -184.85 -22.9 -188.35 -32.75 -190.65 L-37.55 -191.55 -40.45 -192.05 -53.7 -193.55 Q-46.35 -196.25 -39.25 -198.4 L-37.7 -198.85 -28.5 -201.45 -18.45 -203.75 -3.15 -206.35 16.65 -208.15 Q24.3 -208.35 32.0 -208.15 60.15 -207.1 88.15 -198.15 L81.55 -208.95 Q115.55 -199.5 138.6 -143.6 142.05 -136.4 144.05 -129.0 148.35 -112.85 145.7 -95.75 143.7 -82.4 137.25 -68.35 136.5 -80.1 134.05 -89.75 131.05 -101.75 125.5 -110.35 106.45 -139.45 57.8 -128.25 L48.8 -126.45 Q33.8 -123.15 20.1 -118.5 6.45 -113.85 -5.8 -107.9 -21.6 -100.4 -35.25 -90.6 -51.0 -79.4 -64.1 -65.35 L-72.05 -56.3 -74.4 -53.35 Q-116.9 -4.5 -133.8 37.75 -138.0 51.65 -138.0 66.3 -137.75 87.6 -131.15 110.95 L-130.45 113.45 -128.75 118.75 Q-116.2 153.05 -89.85 141.6 -84.8 138.4 -80.35 134.75 -71.55 127.5 -65.15 118.6 -59.95 111.4 -56.25 103.1 -26.3 96.3 -24.55 134.5 Z" fill="none" stroke="#3f274c" stroke-linecap="round" stroke-linejoin="round" stroke-width="1.0"/>
  </g>
</svg>
