<?xml version="1.0" encoding="UTF-8" standalone="no"?>
<svg xmlns:xlink="http://www.w3.org/1999/xlink" height="5.0px" width="8.65px" xmlns="http://www.w3.org/2000/svg">
  <g transform="matrix(1.0, 0.0, 0.0, 1.0, 3.3, 2.8)">
    <path d="M-1.15 -2.45 L-1.2 -2.45 -1.3 -2.4 -1.35 -2.4 -1.45 -2.4 -1.5 -2.4 -1.55 -2.35 -1.65 -2.35 -1.7 -2.3 -1.8 -2.25 -1.85 -2.25 -1.9 -2.2 -2.0 -2.1 -2.05 -2.1 -2.1 -2.05 -2.25 -1.9 -2.3 -1.85 -2.4 -1.75 -2.4 -1.7 -2.45 -1.65 -2.5 -1.6 -2.55 -1.55 -2.6 -1.5 -2.65 -1.45 -2.65 -1.4 -2.7 -1.35 -2.7 -1.3 -2.75 -1.25 -2.75 -1.2 -2.8 -1.15 -2.8 -1.0 -2.85 -0.95 -2.85 -0.75 -2.9 -0.7 -2.9 -0.15 -2.85 -0.1 -2.85 0.15 -2.8 0.2 -2.8 0.35 -2.75 0.4 -2.75 0.45 -2.7 0.5 -2.7 0.6 -2.65 0.6 -2.65 0.7 -2.6 0.75 -2.55 0.8 -2.55 0.9 -2.5 0.9 -2.5 1.0 -2.45 1.05 -2.4 1.1 -2.4 1.15 -2.3 1.25 -2.3 1.3 -2.25 1.35 -2.2 1.4 -2.2 1.45 -2.05 1.6 -2.05 1.65 -2.0 1.65 -1.95 1.7 -1.85 1.8 -1.8 1.8 -1.75 1.85 -1.65 1.9 -1.6 1.95 -1.5 1.95 -1.4 2.0 -1.35 2.0 -1.25 2.0 -1.2 2.05 -1.1 2.05 -1.0 2.05 -0.9 2.05 -0.85 2.0 -0.75 2.0 -0.7 2.0 -0.6 2.0 -0.55 1.95 -0.5 1.9 -0.4 1.9 -0.35 1.85 -0.3 1.8 -0.25 1.75 -0.2 1.75 -0.15 1.7 -0.15 1.65 -0.1 1.6 -0.05 1.6 -0.05 1.55 0.0 1.5 0.0 1.45 0.05 1.45 0.05 1.35 0.1 1.3 0.1 1.25 0.15 1.2 0.15 1.1 0.2 1.05 0.2 0.55 0.15 0.5 0.15 0.35 0.1 0.3 0.1 0.25 0.05 0.2 0.05 0.1 0.0 0.1 0.0 0.05 -0.1 -0.05 -0.15 -0.1 -0.15 -0.2 -0.2 -0.2 -0.15 -0.25 -0.15 -0.3 -0.1 -0.35 -0.05 -0.35 -0.05 -0.4 0.05 -0.5 0.1 -0.55 0.1 -0.65 0.15 -0.65 0.15 -0.75 0.2 -0.8 0.2 -0.95 0.25 -0.95 0.25 -1.4 0.2 -1.45 0.2 -1.6 0.15 -1.65 0.15 -1.7 0.1 -1.75 0.1 -1.85 0.05 -1.85 0.05 -1.9 -0.1 -2.05 -0.15 -2.1 -0.15 -2.15 -0.2 -2.15 -0.25 -2.2 -0.35 -2.25 -0.4 -2.3 -0.45 -2.3 -0.55 -2.35 -0.65 -2.4 -0.7 -2.4 -0.8 -2.4 -0.85 -2.45 -0.95 -2.45 -1.0 -2.45 -1.15 -2.45 M5.35 -0.15 Q5.2 0.9 2.75 1.55 L-0.8 2.2 Q-1.85 2.2 -2.55 1.5 -3.3 0.75 -3.3 -0.3 -3.3 -1.35 -2.55 -2.05 -1.85 -2.8 -0.8 -2.8 L2.9 -2.0 Q5.5 -1.2 5.35 -0.15" fill="#ebf7fd" fill-opacity="0.6" fill-rule="evenodd" stroke="none"/>
    <path d="M-1.15 -2.45 L-1.0 -2.45 -0.95 -2.45 -0.85 -2.45 -0.8 -2.4 -0.7 -2.4 -0.65 -2.4 -0.55 -2.35 -0.45 -2.3 -0.4 -2.3 -0.35 -2.25 -0.25 -2.2 -0.2 -2.15 -0.15 -2.15 -0.15 -2.1 -0.1 -2.05 0.05 -1.9 0.05 -1.85 0.1 -1.85 0.1 -1.75 0.15 -1.7 0.15 -1.65 0.2 -1.6 0.2 -1.45 0.25 -1.4 0.25 -0.95 0.2 -0.95 0.2 -0.8 0.15 -0.75 0.15 -0.65 0.1 -0.65 0.1 -0.55 0.05 -0.5 -0.05 -0.4 -0.05 -0.35 -0.1 -0.35 -0.15 -0.3 -0.15 -0.25 -0.2 -0.2 -0.15 -0.2 -0.15 -0.1 -0.1 -0.05 0.0 0.05 0.0 0.1 0.05 0.1 0.05 0.2 0.1 0.25 0.1 0.3 0.15 0.35 0.15 0.5 0.2 0.55 0.2 1.05 0.15 1.1 0.15 1.2 0.1 1.25 0.1 1.3 0.05 1.35 0.05 1.45 0.0 1.45 0.0 1.5 -0.05 1.55 -0.05 1.6 -0.1 1.6 -0.15 1.65 -0.15 1.7 -0.2 1.75 -0.25 1.75 -0.3 1.8 -0.35 1.85 -0.4 1.9 -0.5 1.9 -0.55 1.95 -0.6 2.0 -0.7 2.0 -0.75 2.0 -0.85 2.0 -0.9 2.05 -1.0 2.05 -1.1 2.05 -1.2 2.05 -1.25 2.0 -1.35 2.0 -1.4 2.0 -1.5 1.95 -1.6 1.95 -1.65 1.9 -1.75 1.85 -1.8 1.8 -1.85 1.8 -1.95 1.7 -2.0 1.65 -2.05 1.65 -2.05 1.6 -2.2 1.45 -2.2 1.4 -2.25 1.35 -2.3 1.3 -2.3 1.25 -2.4 1.15 -2.4 1.1 -2.45 1.05 -2.5 1.0 -2.5 0.9 -2.55 0.9 -2.55 0.8 -2.6 0.75 -2.65 0.7 -2.65 0.6 -2.7 0.6 -2.7 0.5 -2.75 0.45 -2.75 0.4 -2.8 0.35 -2.8 0.2 -2.85 0.15 -2.85 -0.1 -2.9 -0.15 -2.9 -0.7 -2.85 -0.75 -2.85 -0.95 -2.8 -1.0 -2.8 -1.15 -2.75 -1.2 -2.75 -1.25 -2.7 -1.3 -2.7 -1.35 -2.65 -1.4 -2.65 -1.45 -2.6 -1.5 -2.55 -1.55 -2.5 -1.6 -2.45 -1.65 -2.4 -1.7 -2.4 -1.75 -2.3 -1.85 -2.25 -1.9 -2.1 -2.05 -2.05 -2.1 -2.0 -2.1 -1.9 -2.2 -1.85 -2.25 -1.8 -2.25 -1.7 -2.3 -1.65 -2.35 -1.55 -2.35 -1.5 -2.4 -1.45 -2.4 -1.35 -2.4 -1.3 -2.4 -1.2 -2.45 -1.15 -2.45" fill="#ffffff" fill-opacity="0.69803923" fill-rule="evenodd" stroke="none"/>
  </g>
</svg>
