<?xml version="1.0" encoding="UTF-8" standalone="no"?>
<svg xmlns:xlink="http://www.w3.org/1999/xlink" height="233.7px" width="418.15px" xmlns="http://www.w3.org/2000/svg">
  <g transform="matrix(1.0, 0.0, 0.0, 1.0, 204.55, 108.65)">
    <path d="M-45.25 -68.3 L-45.15 -68.35 -42.85 -68.3 -45.25 -68.3" fill="#ead852" fill-rule="evenodd" stroke="none"/>
    <path d="M153.3 -88.0 Q160.15 -98.15 171.0 -107.8 163.05 -90.25 157.75 -72.75 153.0 -78.95 153.3 -88.0 M212.25 -58.25 Q205.85 -46.1 202.0 -24.85 202.15 -16.95 201.05 -9.6 L189.5 -3.85 Q197.9 -17.75 198.1 -33.85 202.8 -50.35 212.25 -58.25 M199.65 2.0 L197.75 9.25 Q191.05 30.6 173.25 43.5 160.2 49.6 142.65 47.25 157.4 39.4 168.8 32.15 180.55 25.85 188.75 15.5 L191.55 11.65 199.65 2.0 M-59.3 82.1 Q-54.75 85.6 -53.3 90.75 -52.5 93.75 -52.7 97.25 -52.9 100.55 -54.0 104.35 L-57.7 108.55 Q-84.7 136.05 -143.6 116.0 -168.1 116.1 -179.4 104.5 -190.7 92.9 -190.55 89.55 L-190.25 84.4 -190.8 83.8 -191.95 82.55 -192.3 82.2 -193.25 81.15 Q-196.65 77.15 -199.05 73.05 L-200.8 69.65 Q-202.35 66.35 -203.25 63.0 L-164.75 92.5 -169.55 83.35 Q-154.2 93.45 -143.45 96.7 -113.1 107.65 -77.1 103.55 -46.25 95.55 -79.6 79.9 -94.15 78.3 -131.7 72.25 -189.5 65.3 -181.95 45.9 -182.75 49.1 -176.85 52.55 -159.0 63.0 -131.7 67.2 -117.5 72.45 -95.45 74.65 -92.4 74.6 -89.55 74.7 L-87.2 74.75 Q-67.85 75.55 -59.3 82.1 M-190.25 84.4 L-186.4 87.85 -185.8 87.85 -186.4 87.85 -190.25 84.4" fill="#634b6c" fill-rule="evenodd" stroke="none"/>
    <path d="M135.45 -70.15 L135.7 -70.25 Q143.95 -73.25 149.6 -81.95 L153.3 -88.0 Q153.0 -78.95 157.75 -72.75 L155.3 -64.25 Q148.75 -48.8 141.95 -36.85 137.0 -13.8 126.7 -5.1 95.4 25.3 35.5 12.75 -0.2 0.95 -49.95 -4.45 -68.6 -6.5 -85.25 0.85 -99.55 6.2 -109.4 10.75 -116.6 14.05 -121.45 17.0 -133.0 23.85 -140.25 27.15 -147.3 30.4 -155.5 33.3 L-176.85 41.2 Q-181.3 43.5 -181.95 45.9 -189.5 65.3 -131.7 72.25 -94.15 78.3 -79.6 79.9 -46.25 95.55 -77.1 103.55 -113.1 107.65 -143.45 96.7 -154.2 93.45 -169.55 83.35 L-164.75 92.5 -203.25 63.0 -203.55 61.7 -203.6 61.65 Q-206.85 47.35 -199.05 31.15 L-196.55 26.4 -193.7 21.15 Q-188.85 12.4 -183.0 4.45 L-175.25 -5.3 Q-170.4 -10.9 -165.05 -16.05 L-154.9 -25.0 Q-146.25 -32.05 -136.4 -38.05 L-135.6 -38.55 Q-122.05 -46.85 -108.9 -52.8 -83.35 -60.7 -57.3 -62.45 L-57.05 -62.45 -56.7 -62.5 -56.7 -62.45 -45.85 -61.45 -45.95 -61.45 -45.2 -61.45 Q-44.0 -61.3 -43.85 -61.65 L-25.15 -60.9 2.1 -54.5 Q20.35 -48.45 53.65 -45.2 L77.95 -44.2 78.45 -44.25 Q86.8 -44.75 93.75 -47.05 L96.05 -48.15 Q100.15 -52.45 112.25 -57.15 L135.45 -70.15 M11.95 -40.25 Q-0.2 -34.15 5.0 -23.9 6.25 -21.5 9.05 -22.1 12.8 -24.0 15.05 -32.55 15.8 -38.5 11.95 -40.25" fill="#72567e" fill-opacity="0.99607843" fill-rule="evenodd" stroke="none"/>
    <path d="M86.3 -51.3 L99.1 -55.9 99.1 -55.85 Q95.15 -53.8 87.65 -51.5 L86.3 -51.3 M201.05 -9.6 L210.8 -14.35 Q201.5 -2.8 190.65 4.3 L190.5 4.4 Q186.75 6.85 182.85 8.75 174.15 13.0 162.35 15.45 L162.3 15.45 161.8 14.15 Q152.75 22.35 145.35 23.55 L128.8 25.45 Q101.5 24.25 76.1 31.05 51.1 38.6 33.3 38.65 L-38.85 55.2 Q-140.9 68.4 -109.4 10.75 -99.55 6.2 -85.25 0.85 -68.6 -6.5 -49.95 -4.45 -0.2 0.95 35.5 12.75 95.4 25.3 126.7 -5.1 137.0 -13.8 141.95 -36.85 148.75 -48.8 155.3 -64.25 L157.75 -72.75 Q164.45 -53.95 177.05 -43.0 196.0 -26.25 198.1 -33.85 197.9 -17.75 189.5 -3.85 L201.05 -9.6 M-55.95 -67.65 L-55.95 -67.7 -54.25 -67.8 -55.95 -67.65 M11.95 -40.25 Q15.8 -38.5 15.05 -32.55 12.8 -24.0 9.05 -22.1 6.25 -21.5 5.0 -23.9 -0.2 -34.15 11.95 -40.25" fill="#f4d05f" fill-opacity="0.99607843" fill-rule="evenodd" stroke="none"/>
    <path d="M171.0 -107.8 Q202.2 -91.7 212.25 -58.25 202.8 -50.35 198.1 -33.85 196.0 -26.25 177.05 -43.0 164.45 -53.95 157.75 -72.75 163.05 -90.25 171.0 -107.8 M210.8 -14.35 L199.65 2.0 191.55 11.65 188.75 15.5 Q180.55 25.85 168.8 32.15 157.4 39.4 142.65 47.25 128.95 50.5 107.75 50.6 L73.05 49.0 55.5 47.25 Q38.7 47.45 28.15 54.2 21.25 58.6 12.6 61.05 L-7.65 64.45 Q-27.35 67.65 -59.3 82.1 -67.85 75.55 -87.2 74.75 L-89.55 74.7 Q-92.4 74.6 -95.45 74.65 -117.5 72.45 -131.7 67.2 -159.0 63.0 -176.85 52.55 -182.75 49.1 -181.95 45.9 -181.3 43.5 -176.85 41.2 L-155.5 33.3 Q-147.3 30.4 -140.25 27.15 -133.0 23.85 -121.45 17.0 -116.6 14.05 -109.4 10.75 -140.9 68.4 -38.85 55.2 L33.3 38.65 Q51.1 38.6 76.1 31.05 101.5 24.25 128.8 25.45 L145.35 23.55 Q152.75 22.35 161.8 14.15 L162.3 15.45 162.35 15.45 Q174.15 13.0 182.85 8.75 186.75 6.85 190.5 4.4 L190.65 4.3 Q201.5 -2.8 210.8 -14.35" fill="#ba9848" fill-opacity="0.99607843" fill-rule="evenodd" stroke="none"/>
    <path d="M-42.85 -68.3 L-39.2 -68.35 -28.25 -67.35 2.25 -60.5 Q43.3 -51.6 74.2 -50.55 L76.25 -50.55 86.3 -51.3 87.65 -51.5 Q95.15 -53.8 99.1 -55.85 100.4 -56.55 115.3 -62.45 130.15 -68.35 131.25 -68.45 132.3 -68.55 135.45 -70.15 L112.25 -57.15 Q100.15 -52.45 96.05 -48.15 L93.75 -47.05 Q86.8 -44.75 78.45 -44.25 L77.95 -44.2 53.65 -45.2 Q20.35 -48.45 2.1 -54.5 L-25.15 -60.9 -43.85 -61.65 Q-44.0 -61.3 -45.2 -61.45 L-45.95 -61.45 -45.85 -61.45 -56.7 -62.45 -56.7 -62.5 -57.05 -62.45 -57.3 -62.45 Q-83.35 -60.7 -108.9 -52.8 -81.5 -65.3 -55.95 -67.65 L-54.25 -67.8 -46.7 -68.25 -45.25 -68.3 -42.85 -68.3" fill="#8a6f90" fill-rule="evenodd" stroke="none"/>
    <path d="M-42.85 -68.3 L-39.2 -68.35 -28.25 -67.35 2.25 -60.5 Q43.3 -51.6 74.2 -50.55 L76.25 -50.55 86.3 -51.3 87.65 -51.5 Q95.15 -53.8 99.1 -55.85 100.4 -56.55 115.3 -62.45 130.15 -68.35 131.25 -68.45 132.3 -68.55 135.45 -70.15 L135.7 -70.25 Q143.95 -73.25 149.6 -81.95 L153.3 -88.0 Q160.15 -98.15 171.0 -107.8 202.2 -91.7 212.25 -58.25 205.85 -46.1 202.0 -24.85 M99.1 -55.9 L99.1 -55.85 M201.05 -9.6 L210.8 -14.35 199.65 2.0 197.75 9.25 Q191.05 30.6 173.25 43.5 160.2 49.6 142.65 47.25 128.95 50.5 107.75 50.6 L73.05 49.0 55.5 47.25 Q38.7 47.45 28.15 54.2 21.25 58.6 12.6 61.05 L-7.65 64.45 M-190.25 84.4 L-190.8 83.8 M-191.95 82.55 L-192.3 82.2 M-193.25 81.15 Q-196.65 77.15 -199.05 73.05 L-200.8 69.65 Q-202.35 66.35 -203.25 63.0 L-203.55 61.7 M-193.7 21.15 Q-188.85 12.4 -183.0 4.45 L-175.25 -5.3 Q-170.4 -10.9 -165.05 -16.05 L-154.9 -25.0 Q-146.25 -32.05 -136.4 -38.05 L-135.6 -38.55 Q-122.05 -46.85 -108.9 -52.8 -81.5 -65.3 -55.95 -67.65 L-55.95 -67.7 M-54.25 -67.8 L-46.7 -68.25 -45.25 -68.3 -45.15 -68.35 -42.85 -68.3 M35.5 12.75 Q95.4 25.3 126.7 -5.1 137.0 -13.8 141.95 -36.85 148.75 -48.8 155.3 -64.25 L157.75 -72.75 Q163.05 -90.25 171.0 -107.8 M198.1 -33.85 Q197.9 -17.75 189.5 -3.85 L201.05 -9.6 M212.25 -58.25 Q202.8 -50.35 198.1 -33.85 M-55.95 -67.65 L-54.25 -67.8 M-185.8 87.85 L-186.4 87.85 -190.25 84.4 M199.65 2.0 L191.55 11.65 188.75 15.5 Q180.55 25.85 168.8 32.15 157.4 39.4 142.65 47.25" fill="none" stroke="#3f274c" stroke-linecap="round" stroke-linejoin="miter-clip" stroke-miterlimit="3.0" stroke-width="1.2000000000000002"/>
    <path d="M-7.65 64.45 Q-27.35 67.65 -59.3 82.1 -54.75 85.6 -53.3 90.75 -52.5 93.75 -52.7 97.25 -52.9 100.55 -54.0 104.35 L-57.7 108.55 Q-84.7 136.05 -143.6 116.0 -168.1 116.1 -179.4 104.5 -190.7 92.9 -190.55 89.55 L-190.25 84.4 M-109.4 10.75 Q-99.55 6.2 -85.25 0.85 -68.6 -6.5 -49.95 -4.45 -0.2 0.95 35.5 12.75 M-181.95 45.9 Q-181.3 43.5 -176.85 41.2 L-155.5 33.3 Q-147.3 30.4 -140.25 27.15 -133.0 23.85 -121.45 17.0 -116.6 14.05 -109.4 10.75 M-59.3 82.1 Q-67.85 75.55 -87.2 74.75 L-89.55 74.7 Q-92.4 74.6 -95.45 74.65 -117.5 72.45 -131.7 67.2 -159.0 63.0 -176.85 52.55 -182.75 49.1 -181.95 45.9" fill="none" stroke="#3f274c" stroke-linecap="round" stroke-linejoin="round" stroke-width="1.2000000000000002"/>
    <path d="M202.0 -24.85 Q202.15 -16.95 201.05 -9.6" fill="none" stroke="#391a4b" stroke-linecap="round" stroke-linejoin="round" stroke-width="1.0"/>
    <path d="M-190.8 83.8 L-191.95 82.55 M-192.3 82.2 L-193.25 81.15" fill="none" stroke="#3f274c" stroke-linecap="round" stroke-linejoin="round" stroke-width="1.0"/>
    <path d="M11.95 -40.25 Q15.8 -38.5 15.05 -32.55 12.8 -24.0 9.05 -22.1 6.25 -21.5 5.0 -23.9 -0.2 -34.15 11.95 -40.25" fill="none" stroke="#756c29" stroke-linecap="round" stroke-linejoin="round" stroke-width="1.2000000000000002"/>
    <path d="M-47.3 -67.7 L-46.25 -67.75 -45.85 -64.4 Q-45.6 -62.1 -44.75 -62.1 -41.45 -62.1 -37.75 -64.65 -36.65 -65.35 -34.2 -67.55 L-33.05 -67.35 -37.2 -63.8 Q-41.25 -60.9 -44.8 -60.9 -45.95 -60.9 -46.6 -62.25 -47.45 -64.0 -47.3 -67.7 M-20.9 -65.25 L-19.5 -65.0 Q-26.75 -58.25 -35.75 -54.65 -44.75 -51.05 -54.3 -51.05 -55.6 -51.05 -56.55 -52.8 -57.6 -54.75 -57.6 -58.15 L-57.2 -62.65 Q-56.85 -65.5 -56.35 -67.1 L-55.45 -67.15 -56.45 -58.75 Q-56.45 -54.6 -55.65 -53.5 -54.85 -52.4 -51.9 -52.4 -45.1 -52.4 -36.35 -55.7 -26.4 -59.4 -20.9 -65.25" fill="#756c29" fill-rule="evenodd" stroke="none"/>
    <path d="M-47.3 -67.7 Q-47.45 -64.0 -46.6 -62.25 -45.95 -60.9 -44.8 -60.9 -41.25 -60.9 -37.2 -63.8 L-33.05 -67.35 Q-27.3 -67.2 -20.9 -65.25 -26.4 -59.4 -36.35 -55.7 -45.1 -52.4 -51.9 -52.4 -54.85 -52.4 -55.65 -53.5 -56.45 -54.6 -56.45 -58.75 L-55.45 -67.15 -47.3 -67.7" fill="#f4d05f" fill-opacity="0.99607843" fill-rule="evenodd" stroke="none"/>
    <path d="M98.1 -55.05 L99.45 -55.6 Q97.15 -50.3 91.75 -44.3 86.05 -38.0 83.15 -38.0 79.35 -38.0 75.9 -49.95 L76.85 -50.05 Q79.1 -43.55 80.65 -41.2 81.95 -39.1 83.55 -39.1 85.15 -39.1 90.8 -44.95 96.6 -50.9 98.1 -55.05" fill="#756c29" fill-rule="evenodd" stroke="none"/>
    <path d="M98.1 -55.05 Q96.6 -50.9 90.8 -44.95 85.15 -39.1 83.55 -39.1 81.95 -39.1 80.65 -41.2 79.1 -43.55 76.85 -50.05 82.25 -49.75 87.85 -51.15 93.4 -52.55 98.1 -55.05" fill="#f4d05f" fill-opacity="0.99607843" fill-rule="evenodd" stroke="none"/>
  </g>
</svg>
