<?xml version="1.0" encoding="UTF-8" standalone="no"?>
<svg xmlns:xlink="http://www.w3.org/1999/xlink" height="196.45px" width="228.95px" xmlns="http://www.w3.org/2000/svg">
  <g transform="matrix(1.0, 0.0, 0.0, 1.0, 77.55, 126.3)">
    <path d="M-66.65 8.75 Q-35.55 -71.5 56.35 -69.6 L57.7 -69.55 0.35 -27.9 2.1 -25.5 Q10.1 -13.45 7.7 1.8 0.8 28.1 -18.0 40.9 -41.4 52.65 -51.6 69.55 L-51.6 69.6 -76.95 57.9 Q-76.65 31.2 -66.65 8.75" fill="#72567e" fill-opacity="0.99607843" fill-rule="evenodd" stroke="none"/>
    <path d="M57.7 -69.55 Q84.35 -68.2 72.8 -40.35 43.05 46.05 -51.6 69.65 L-51.65 69.65 -51.6 69.6 -51.6 69.55 Q-41.4 52.65 -18.0 40.9 0.8 28.1 7.7 1.8 10.1 -13.45 2.1 -25.5 L0.35 -27.9 57.7 -69.55 M-51.6 69.65 L-51.6 69.6 -51.6 69.65" fill="#634b6c" fill-rule="evenodd" stroke="none"/>
    <path d="M-66.65 8.75 Q-35.55 -71.5 56.35 -69.6 L57.7 -69.55 Q84.35 -68.2 72.8 -40.35 43.05 46.05 -51.6 69.65 L-51.65 69.65" fill="none" stroke="#3f274c" stroke-linecap="round" stroke-linejoin="round" stroke-width="1.0"/>
    <path d="M-51.6 69.6 L-51.6 69.65" fill="none" stroke="#3f274c" stroke-linecap="round" stroke-linejoin="miter-clip" stroke-miterlimit="5.0" stroke-width="0.05"/>
    <path d="M-76.95 57.9 Q-76.65 31.2 -66.65 8.75 Z" fill="none" stroke="#3f274c" stroke-linecap="round" stroke-linejoin="miter-clip" stroke-miterlimit="5.0" stroke-width="1.2000000000000002"/>
    <path d="M4.45 -54.4 L6.85 -56.95 Q16.35 -66.6 51.2 -86.35 79.4 -107.8 112.0 -117.45 L136.1 -125.25 Q141.95 -123.6 141.25 -120.15 151.35 -113.2 139.9 -106.25 L142.85 -106.05 Q144.05 -103.35 139.8 -102.0 127.6 -98.15 113.3 -92.95 L110.3 -92.35 Q74.65 -76.85 44.25 -54.35 L44.1 -54.4 34.2 -43.9 Q32.25 -41.75 28.35 -39.85 7.6 -32.75 4.45 -54.4" fill="#f4d05f" fill-opacity="0.99607843" fill-rule="evenodd" stroke="none"/>
    <path d="M136.1 -125.25 Q143.55 -127.25 145.3 -120.35 155.65 -116.25 146.45 -104.5 147.55 -101.25 146.35 -98.75 145.05 -96.05 141.0 -94.1 95.75 -75.15 57.65 -46.55 L56.95 -45.95 Q53.1 -42.95 48.7 -40.2 L42.85 -36.8 40.8 -35.7 40.4 -35.5 40.35 -35.5 Q29.4 -29.9 15.45 -25.65 5.25 -22.55 2.1 -25.5 L1.55 -26.1 0.6 -27.5 0.45 -27.75 0.35 -27.9 -0.15 -28.7 Q-1.75 -31.45 -2.85 -34.55 -3.55 -36.65 -3.65 -38.3 -3.8 -40.05 -3.3 -41.35 -2.75 -46.4 4.45 -54.4 7.6 -32.75 28.35 -39.85 31.45 -39.9 33.25 -41.45 L35.55 -43.6 36.6 -45.1 Q37.1 -46.05 40.25 -48.6 43.4 -51.15 44.25 -54.35 74.65 -76.85 110.3 -92.35 L113.3 -92.95 Q127.6 -98.15 139.8 -102.0 144.05 -103.35 142.85 -106.05 L139.9 -106.25 Q151.35 -113.2 141.25 -120.15 141.95 -123.6 136.1 -125.25" fill="#ba9848" fill-opacity="0.99607843" fill-rule="evenodd" stroke="none"/>
    <path d="M44.25 -54.35 Q43.4 -51.15 40.25 -48.6 37.1 -46.05 36.6 -45.1 L35.55 -43.6 33.25 -41.45 Q31.45 -39.9 28.35 -39.85 32.25 -41.75 34.2 -43.9 L44.1 -54.4 44.25 -54.35" fill="#3f274c" fill-rule="evenodd" stroke="none"/>
    <path d="M136.1 -125.25 Q143.55 -127.25 145.3 -120.35 155.65 -116.25 146.45 -104.5 147.55 -101.25 146.35 -98.75 145.05 -96.05 141.0 -94.1 95.75 -75.15 57.65 -46.55 L56.95 -45.95 M-3.65 -38.3 Q-3.8 -40.05 -3.3 -41.35 M6.85 -56.95 Q16.35 -66.6 51.2 -86.35 79.4 -107.8 112.0 -117.45 L136.1 -125.25" fill="none" stroke="#3f274c" stroke-linecap="round" stroke-linejoin="miter-clip" stroke-miterlimit="3.0" stroke-width="1.2000000000000002"/>
    <path d="M-3.3 -41.35 Q-2.75 -46.4 4.45 -54.4 L6.85 -56.95" fill="none" stroke="#3f274c" stroke-linecap="round" stroke-linejoin="round" stroke-width="1.2000000000000002"/>
    <path d="M0.65 -27.55 L0.65 -27.4 Q0.5 -27.25 0.5 -27.4 L0.4 -27.5 0.35 -27.6 0.35 -27.65 0.3 -27.7 0.25 -27.8 0.2 -27.8 -0.1 -28.4 -0.2 -28.55 -0.25 -28.55 -0.25 -28.6 -0.3 -28.6 -0.3 -28.7 -1.4 -30.5 -1.55 -30.85 -1.9 -31.45 -3.25 -34.35 -3.6 -35.4 -4.2 -38.25 -4.25 -38.3 -4.05 -38.7 -3.65 -38.9 Q-3.05 -38.9 -3.05 -38.3 L-2.65 -35.65 -2.1 -33.65 -1.95 -33.35 -1.1 -31.05 0.0 -28.75 0.0 -28.7 0.45 -27.95 0.4 -27.95 0.5 -27.85 0.5 -27.8 0.55 -27.75 0.65 -27.55 M56.55 -46.4 L56.6 -46.4 57.4 -46.3 Q57.75 -45.8 57.3 -45.45 L49.1 -40.0 48.95 -39.95 48.85 -39.85 48.8 -39.85 42.9 -36.6 42.6 -36.5 41.0 -35.65 40.85 -35.6 40.7 -35.5 40.4 -35.4 40.4 -35.35 40.35 -35.35 40.35 -35.4 40.25 -35.45 40.35 -35.6 40.35 -35.55 40.75 -35.8 42.75 -36.9 43.0 -37.1 48.45 -40.45 48.5 -40.45 48.5 -40.5 48.7 -40.6 55.15 -45.25 56.55 -46.4 M146.75 -104.95 L146.8 -104.95 Q147.25 -104.6 146.95 -104.1 146.55 -103.6 146.1 -104.0 L145.95 -104.05 145.65 -104.3 145.15 -104.6 143.6 -105.35 143.1 -105.5 142.85 -105.55 142.75 -105.6 142.6 -105.6 142.35 -105.7 142.05 -105.75 139.75 -105.9 139.45 -105.85 139.15 -105.85 136.95 -105.5 134.65 -104.8 134.1 -104.65 Q134.0 -104.55 134.0 -104.7 L134.05 -104.8 134.15 -104.9 135.9 -105.6 139.4 -106.5 139.7 -106.55 140.0 -106.55 140.3 -106.6 142.45 -106.55 142.75 -106.5 142.9 -106.45 143.05 -106.45 143.35 -106.4 144.85 -105.95 146.65 -105.05 146.75 -104.95 M145.3 -120.9 L145.35 -120.9 Q146.0 -120.9 145.9 -120.25 145.8 -119.65 145.25 -119.75 L144.8 -119.75 143.6 -119.85 141.9 -119.8 141.45 -119.75 141.3 -119.7 141.2 -119.7 140.7 -119.6 140.5 -119.6 139.55 -119.35 139.3 -119.25 139.05 -119.2 138.15 -118.85 136.65 -118.05 135.95 -117.55 135.85 -117.5 135.4 -117.15 135.3 -117.05 135.15 -117.05 135.15 -117.2 135.25 -117.3 135.5 -117.5 135.9 -117.9 136.45 -118.35 136.8 -118.55 137.5 -119.05 139.3 -119.95 140.3 -120.3 140.55 -120.35 140.8 -120.45 141.05 -120.5 141.1 -120.5 141.15 -120.55 141.3 -120.55 141.8 -120.65 143.55 -120.9 144.85 -120.95 145.2 -120.95 145.3 -120.9" fill="#3f274c" fill-rule="evenodd" stroke="none"/>
    <path d="M118.65 -109.05 Q118.65 -111.35 115.4 -112.5 L111.4 -113.65 Q109.55 -114.05 105.55 -111.95 101.5 -109.85 101.5 -107.5 101.5 -105.2 103.85 -103.55 106.35 -101.8 109.55 -101.8 113.55 -101.8 116.35 -104.6 118.65 -106.9 118.65 -109.05 M126.65 -115.45 L123.4 -115.6 Q122.2 -116.25 122.2 -117.8 122.2 -118.8 123.7 -119.15 125.55 -118.5 127.35 -117.1 127.45 -116.0 126.65 -115.45 M120.95 -102.55 Q120.95 -104.45 123.7 -105.2 126.45 -105.9 126.45 -104.3 126.45 -103.2 125.05 -101.05 123.5 -98.65 122.2 -98.65 L121.85 -98.65 121.75 -98.65 121.65 -98.7 121.7 -98.75 121.45 -99.4 Q120.95 -100.65 120.95 -102.55 M119.45 -108.35 Q119.45 -105.55 115.9 -103.15 112.6 -100.95 109.6 -100.95 105.8 -100.95 103.1 -103.05 100.8 -104.9 100.65 -106.8 100.5 -108.75 103.75 -111.55 106.95 -114.35 111.25 -114.15 115.55 -114.0 117.55 -112.45 119.45 -111.0 119.45 -108.35 M126.45 -116.9 Q125.05 -118.6 123.0 -118.35 122.55 -117.05 123.1 -116.45 123.65 -115.85 124.0 -115.9 L125.0 -115.8 Q125.65 -115.7 125.85 -116.0 L126.45 -116.9 M127.5 -106.3 Q126.2 -106.3 125.3 -107.8 124.45 -109.25 124.45 -111.25 124.45 -112.25 124.7 -112.45 127.35 -113.4 128.85 -111.45 129.9 -110.1 129.9 -108.75 129.9 -108.05 129.1 -107.2 128.25 -106.3 127.5 -106.3 M121.8 -100.9 L122.4 -99.6 Q124.0 -100.55 124.8 -102.0 125.6 -103.45 125.6 -104.15 125.6 -104.9 125.35 -104.6 124.2 -104.85 122.8 -103.95 121.4 -103.1 121.8 -100.9 M129.05 -108.45 Q128.65 -110.4 128.1 -111.4 127.5 -112.45 125.3 -111.8 124.85 -111.0 125.4 -108.95 125.95 -106.95 127.0 -106.9 128.05 -106.9 129.05 -108.45" fill="#756c29" fill-rule="evenodd" stroke="none"/>
    <path d="M118.65 -109.05 Q118.65 -106.9 116.35 -104.6 113.55 -101.8 109.55 -101.8 106.35 -101.8 103.85 -103.55 101.5 -105.2 101.5 -107.5 101.5 -109.85 105.55 -111.95 109.55 -114.05 111.4 -113.65 L115.4 -112.5 Q118.65 -111.35 118.65 -109.05 M126.45 -116.9 L125.85 -116.0 Q125.65 -115.7 125.0 -115.8 L124.0 -115.9 Q123.65 -115.85 123.1 -116.45 122.55 -117.05 123.0 -118.35 125.05 -118.6 126.45 -116.9 M129.05 -108.45 Q128.05 -106.9 127.0 -106.9 125.95 -106.95 125.4 -108.95 124.85 -111.0 125.3 -111.8 127.5 -112.45 128.1 -111.4 128.65 -110.4 129.05 -108.45 M121.8 -100.9 Q121.4 -103.1 122.8 -103.95 124.2 -104.85 125.35 -104.6 125.6 -104.9 125.6 -104.15 125.6 -103.45 124.8 -102.0 124.0 -100.55 122.4 -99.6 L121.8 -100.9" fill="#e46473" fill-rule="evenodd" stroke="none"/>
  </g>
</svg>
