<?xml version="1.0" encoding="UTF-8" standalone="no"?>
<svg xmlns:xlink="http://www.w3.org/1999/xlink" height="31.35px" width="47.4px" xmlns="http://www.w3.org/2000/svg">
  <g transform="matrix(1.0, 0.0, 0.0, 1.0, 42.3, -15.05)">
    <path d="M5.1 40.55 Q1.55 44.6 -3.05 45.85 L-6.8 46.4 -9.05 46.35 -12.35 45.8 -16.4 44.6 -16.75 44.5 -20.65 42.75 Q-23.3 40.9 -25.55 38.7 L-27.05 37.15 -28.15 35.85 -28.25 35.75 Q-33.6 29.45 -37.0 20.4 -37.65 18.75 -42.3 15.05 -38.05 16.9 -34.25 18.7 L-27.05 22.15 -25.55 22.9 -24.5 23.4 -24.1 23.55 -20.15 25.8 -5.5 34.15 2.05 38.75 5.1 40.55" fill="#ffffff" fill-rule="evenodd" stroke="none"/>
  </g>
</svg>
