<?xml version="1.0" encoding="UTF-8" standalone="no"?>
<svg xmlns:xlink="http://www.w3.org/1999/xlink" height="168.0px" width="218.1px" xmlns="http://www.w3.org/2000/svg">
  <g transform="matrix(1.0, 0.0, 0.0, 1.0, 109.1, 82.05)">
    <path d="M15.1 11.45 Q32.0 8.75 30.45 -5.8 29.8 -11.8 29.45 -18.1 29.1 -24.4 26.1 -39.0 17.6 -46.25 6.4 -49.05 24.8 -59.8 40.15 -81.45 45.05 -71.6 54.25 -41.15 54.5 -27.25 54.1 -15.35 47.2 23.55 44.2 23.75 49.55 23.85 54.35 26.85 33.9 27.8 25.8 39.9 10.0 36.0 0.1 23.95 -13.9 8.85 -27.4 1.05 -32.85 -3.6 -57.7 -10.7 L-97.5 -28.7 -83.35 -12.0 Q-68.9 5.1 -58.05 19.4 -49.7 32.5 -36.95 44.05 -39.95 48.95 -40.15 51.9 L-40.45 52.0 -50.75 53.75 Q-58.05 32.25 -69.4 12.35 -84.55 -6.7 -94.35 -17.4 -104.15 -28.2 -108.5 -35.1 L-103.6 -35.05 Q-90.45 -28.45 -72.9 -24.45 -66.0 -27.55 -70.35 -34.05 L-56.45 -34.75 Q-42.8 -42.1 -30.1 -45.85 -41.85 -33.15 -30.3 -21.15 -18.75 -9.2 -11.05 -8.4 -3.4 -7.65 11.4 10.8 14.35 15.95 17.15 20.1 16.6 15.7 15.1 11.45 M36.15 -22.1 Q34.9 -6.1 40.3 13.7 40.85 16.85 42.35 13.75 46.45 2.2 36.15 -22.1 M-40.75 67.6 Q-46.2 64.85 -48.0 61.05 L-40.45 60.15 Q-39.8 63.95 -38.2 66.8 L-40.7 67.6 -40.75 67.6" fill="#72567e" fill-opacity="0.99607843" fill-rule="evenodd" stroke="none"/>
    <path d="M6.4 -49.05 Q17.6 -46.25 26.1 -39.0 29.1 -24.4 29.45 -18.1 29.8 -11.8 30.45 -5.8 32.0 8.75 15.1 11.45 10.45 -1.8 -3.1 -13.5 -5.1 -14.75 -1.95 -10.1 2.8 -4.45 7.4 3.4 L11.4 10.8 Q-3.4 -7.65 -11.05 -8.4 -18.75 -9.2 -30.3 -21.15 -41.85 -33.15 -30.1 -45.85 -10.75 -51.6 6.4 -49.05 M-70.35 -34.05 Q-66.0 -27.55 -72.9 -24.45 -90.45 -28.45 -103.6 -35.05 L-92.15 -34.2 Q-85.45 -33.45 -70.35 -34.05 M25.8 39.9 Q33.9 27.8 54.35 26.85 56.2 27.95 58.25 31.2 L58.4 31.6 Q53.7 40.35 42.35 41.75 33.4 41.75 25.8 39.9" fill="#8a6f90" fill-rule="evenodd" stroke="none"/>
    <path d="M-36.95 44.05 Q-49.7 32.5 -58.05 19.4 -68.9 5.1 -83.35 -12.0 L-97.5 -28.7 -57.7 -10.7 Q-32.85 -3.6 -27.4 1.05 -13.9 8.85 0.1 23.95 10.0 36.0 25.8 39.9 33.4 41.75 42.35 41.75 53.7 40.35 58.4 31.6 59.5 34.15 59.65 35.6 L59.65 36.7 59.65 36.75 Q54.35 40.0 50.7 44.55 47.75 49.05 44.1 51.05 25.55 35.95 5.05 50.15 -3.85 55.15 -19.0 52.0 -27.85 51.05 -36.5 44.3 -36.65 44.2 -36.95 44.05 M54.1 -15.35 Q54.5 -27.25 54.25 -41.15 L55.0 -38.5 Q67.4 0.15 53.15 21.65 51.25 16.65 52.25 8.05 53.55 -2.5 54.1 -15.35 M-3.8 45.85 Q0.85 44.6 4.35 40.55 L4.6 40.05 4.5 39.5 4.15 39.05 1.3 37.35 -5.75 33.05 -5.8 33.05 -19.55 25.25 -23.25 23.15 -23.4 23.05 -23.65 22.95 -24.65 22.45 -26.05 21.75 -32.8 18.55 Q-36.4 16.85 -40.4 15.1 L-41.1 15.05 -41.65 15.5 -41.75 16.2 -41.4 16.8 Q-37.4 20.0 -36.75 21.4 -33.5 30.05 -28.4 36.05 L-28.35 36.1 -28.25 36.2 -28.3 36.15 -27.25 37.35 -27.2 37.4 -25.8 38.85 -25.75 38.9 Q-23.6 41.05 -21.05 42.8 L-20.95 42.85 -17.2 44.55 -17.15 44.55 -16.85 44.65 -13.0 45.8 -9.75 46.35 -7.5 46.4 -3.75 45.8 -3.8 45.85 M-10.1 18.0 Q-9.15 19.3 -7.0 21.05 -4.4 23.1 -2.15 26.55 -3.1 22.6 -6.25 20.0 -9.15 17.6 -10.1 18.0" fill="#d27a8b" fill-rule="evenodd" stroke="none"/>
    <path d="M54.35 26.85 Q49.55 23.85 44.2 23.75 47.2 23.55 54.1 -15.35 53.55 -2.5 52.25 8.05 51.25 16.65 53.15 21.65 52.55 23.35 53.4 25.4 L54.35 26.85" fill="#634b6c" fill-rule="evenodd" stroke="none"/>
    <path d="M15.1 11.45 Q16.6 15.7 17.15 20.1 14.35 15.95 11.4 10.8 L7.4 3.4 Q2.8 -4.45 -1.95 -10.1 -5.1 -14.75 -3.1 -13.5 10.45 -1.8 15.1 11.45 M-50.75 53.75 L-40.45 52.0 -40.15 51.9 Q-39.95 48.95 -36.95 44.05 -36.65 44.2 -36.5 44.3 -27.85 51.05 -19.0 52.0 -3.85 55.15 5.05 50.15 25.55 35.95 44.1 51.05 47.75 49.05 50.7 44.55 54.35 40.0 59.65 36.75 L59.6 36.95 Q61.55 40.5 62.45 43.8 61.55 40.5 59.6 36.95 L59.65 36.75 59.65 36.7 59.65 35.6 Q87.3 33.4 108.5 22.85 99.45 36.65 62.45 43.8 65.95 57.45 50.4 64.35 L48.5 64.8 43.9 64.15 42.8 63.75 Q47.9 58.45 44.1 51.05 47.9 58.45 42.8 63.75 34.0 68.05 22.6 69.75 17.75 70.25 11.25 69.75 -4.6 70.3 -18.15 65.05 L-18.2 65.0 Q-22.8 68.55 -29.85 71.35 L-30.1 71.55 Q-65.6 85.45 -83.7 79.7 -62.0 77.1 -40.75 67.6 L-40.7 67.6 -38.2 66.8 Q-32.5 64.75 -27.1 61.65 L-34.8 58.6 -40.45 60.15 -48.0 61.05 Q-87.4 65.0 -102.65 53.2 -75.2 57.9 -50.75 53.75 M58.25 31.2 Q56.2 27.95 54.35 26.85 L53.4 25.4 Q81.25 7.5 95.9 -9.45 89.4 12.1 58.25 31.2 M36.15 -22.1 Q46.45 2.2 42.35 13.75 40.85 16.85 40.3 13.7 34.9 -6.1 36.15 -22.1" fill="#f4d05f" fill-opacity="0.99607843" fill-rule="evenodd" stroke="none"/>
    <path d="M42.8 63.75 L43.9 64.15 Q42.0 66.05 42.0 68.6 L38.55 66.8 Q40.7 65.5 42.8 63.75 M-3.8 45.85 L-3.75 45.8 -7.5 46.4 -9.75 46.35 -13.0 45.8 -16.85 44.65 -17.15 44.55 -17.2 44.55 -20.95 42.85 -21.05 42.8 Q-23.6 41.05 -25.75 38.9 L-25.8 38.85 -27.2 37.4 -27.25 37.35 -28.3 36.15 -28.25 36.2 -28.35 36.1 -28.4 36.05 Q-33.5 30.05 -36.75 21.4 -37.4 20.0 -41.4 16.8 L-41.75 16.2 -41.65 15.5 -41.1 15.05 -40.4 15.1 Q-36.4 16.85 -32.8 18.55 L-26.05 21.75 -24.65 22.45 -23.65 22.95 -23.4 23.05 -23.25 23.15 -19.55 25.25 -5.8 33.05 -5.75 33.05 1.3 37.35 4.15 39.05 4.5 39.5 4.6 40.05 4.35 40.55 Q0.85 44.6 -3.8 45.85 M-4.3 43.9 Q-0.75 42.95 2.05 40.15 L0.25 39.05 -6.8 34.75 -6.8 34.8 -20.55 27.0 -24.25 24.9 -24.4 24.8 -24.55 24.75 -25.55 24.25 -26.95 23.55 -26.9 23.55 -33.65 20.35 -35.7 19.4 -34.9 20.7 Q-31.8 28.95 -26.85 34.75 L-26.95 34.7 -26.85 34.8 -26.75 34.85 -25.75 36.05 -24.4 37.45 -20.05 41.05 -16.5 42.65 -16.2 42.75 -12.5 43.85 -9.55 44.35 -7.6 44.4 -7.55 44.4 -4.3 43.9 M-10.1 18.0 Q-9.15 17.6 -6.25 20.0 -3.1 22.6 -2.15 26.55 -4.4 23.1 -7.0 21.05 -9.15 19.3 -10.1 18.0" fill="#3f274c" fill-rule="evenodd" stroke="none"/>
    <path d="M35.7 68.4 L34.2 72.65 32.3 69.8 Q34.0 69.2 35.7 68.4" fill="#ffffff" fill-rule="evenodd" stroke="none"/>
    <path d="M32.3 69.8 L34.2 72.65 35.7 68.4 38.55 66.8 42.0 68.6 44.55 71.05 45.3 71.8 Q32.2 71.95 22.15 79.65 16.6 76.95 16.05 73.0 16.35 70.55 18.75 70.9 25.7 72.1 32.3 69.8" fill="#a04250" fill-opacity="0.99607843" fill-rule="evenodd" stroke="none"/>
    <path d="M43.9 64.15 L48.5 64.8 48.6 64.8 Q43.3 66.35 45.3 71.8 L44.55 71.05 42.0 68.6 Q42.0 66.05 43.9 64.15 M35.7 68.4 Q34.0 69.2 32.3 69.8 25.7 72.1 18.75 70.9 16.35 70.55 16.05 73.0 16.6 76.95 22.15 79.65 23.55 80.3 25.3 80.95 29.1 82.45 33.8 82.4 41.6 83.25 45.55 79.85 45.55 81.3 41.6 83.7 32.35 86.2 23.6 84.9 L-10.85 74.6 -14.95 73.9 -15.35 73.85 Q-23.6 72.9 -29.85 71.35 -22.8 68.55 -18.2 65.0 L-18.15 65.05 Q-4.6 70.3 11.25 69.75 17.75 70.25 22.6 69.75 34.0 68.05 42.8 63.75 40.7 65.5 38.55 66.8 L35.7 68.4 M45.25 71.7 L45.3 71.8 45.25 71.7 44.55 71.05 45.25 71.7 M-38.2 66.8 Q-39.8 63.95 -40.45 60.15 L-34.8 58.6 -27.1 61.65 Q-32.5 64.75 -38.2 66.8" fill="#ba9848" fill-opacity="0.99607843" fill-rule="evenodd" stroke="none"/>
    <path d="M22.15 79.65 Q32.2 71.95 45.3 71.8 L47.45 74.1 Q48.5 75.2 47.5 77.2 46.45 79.2 45.55 79.85 41.6 83.25 33.8 82.4 29.1 82.45 25.3 80.95 23.55 80.3 22.15 79.65 M45.3 71.8 L45.25 71.7 45.3 71.8" fill="#d57880" fill-opacity="0.99607843" fill-rule="evenodd" stroke="none"/>
    <path d="M-30.1 -45.85 Q-42.8 -42.1 -56.45 -34.75 L-70.35 -34.05 Q-85.45 -33.45 -92.15 -34.2 L-103.6 -35.05 -108.5 -35.1 Q-104.15 -28.2 -94.35 -17.4 -84.55 -6.7 -69.4 12.35 -58.05 32.25 -50.75 53.75 M54.25 -41.15 Q45.05 -71.6 40.15 -81.45 24.8 -59.8 6.4 -49.05 -10.75 -51.6 -30.1 -45.85 M53.15 21.65 Q67.4 0.15 55.0 -38.5 L54.25 -41.15 M62.45 43.8 Q61.55 40.5 59.6 36.95 L59.65 36.75 59.65 36.7 59.65 35.6 Q59.5 34.15 58.4 31.6 L58.25 31.2 Q56.2 27.95 54.35 26.85 L53.4 25.4 Q52.55 23.35 53.15 21.65 M50.4 64.35 Q65.95 57.45 62.45 43.8 M-29.85 71.35 Q-23.6 72.9 -15.35 73.85 M-48.0 61.05 Q-46.2 64.85 -40.75 67.6 L-40.7 67.6" fill="none" stroke="#3f274c" stroke-linecap="round" stroke-linejoin="miter-clip" stroke-miterlimit="3.0" stroke-width="1.2000000000000002"/>
    <path d="M15.1 11.45 Q16.6 15.7 17.15 20.1 14.35 15.95 11.4 10.8 L7.4 3.4 Q2.8 -4.45 -1.95 -10.1 -5.1 -14.75 -3.1 -13.5 10.45 -1.8 15.1 11.45 M-50.75 53.75 L-40.45 52.0 M-40.15 51.9 Q-39.95 48.95 -36.95 44.05 -49.7 32.5 -58.05 19.4 -68.9 5.1 -83.35 -12.0 L-97.5 -28.7 -57.7 -10.7 Q-32.85 -3.6 -27.4 1.05 -13.9 8.85 0.1 23.95 10.0 36.0 25.8 39.9 33.4 41.75 42.35 41.75 53.7 40.35 58.4 31.6 M54.1 -15.35 Q54.5 -27.25 54.25 -41.15 M53.15 21.65 Q51.25 16.65 52.25 8.05 53.55 -2.5 54.1 -15.35 M59.65 36.75 Q54.35 40.0 50.7 44.55 47.75 49.05 44.1 51.05 47.9 58.45 42.8 63.75 L43.9 64.15 48.5 64.8 50.4 64.35 M35.7 68.4 Q34.0 69.2 32.3 69.8 25.7 72.1 18.75 70.9 16.35 70.55 16.05 73.0 16.6 76.95 22.15 79.65 23.55 80.3 25.3 80.95 29.1 82.45 33.8 82.4 41.6 83.25 45.55 79.85 46.45 79.2 47.5 77.2 48.5 75.2 47.45 74.1 L45.3 71.8 45.25 71.7 44.55 71.05 42.0 68.6 38.55 66.8 35.7 68.4 M45.3 71.8 L44.55 71.05 M-18.2 65.0 Q-22.8 68.55 -29.85 71.35 L-30.1 71.55 Q-65.6 85.45 -83.7 79.7 -62.0 77.1 -40.75 67.6 M-15.35 73.85 L-14.95 73.9 -10.85 74.6 23.6 84.9 Q32.35 86.2 41.6 83.7 45.55 81.3 45.55 79.85 M45.3 71.8 Q43.3 66.35 48.6 64.8 L48.5 64.8 M45.3 71.8 L45.25 71.7 M42.0 68.6 Q42.0 66.05 43.9 64.15 M44.1 51.05 Q25.55 35.95 5.05 50.15 -3.85 55.15 -19.0 52.0 -27.85 51.05 -36.5 44.3 -36.65 44.2 -36.95 44.05 M36.15 -22.1 Q46.45 2.2 42.35 13.75 40.85 16.85 40.3 13.7 34.9 -6.1 36.15 -22.1 M38.55 66.8 Q40.7 65.5 42.8 63.75 M-40.7 67.6 L-38.2 66.8 Q-39.8 63.95 -40.45 60.15 L-48.0 61.05 Q-87.4 65.0 -102.65 53.2 -75.2 57.9 -50.75 53.75 M-34.8 58.6 L-40.45 60.15 M-38.2 66.8 Q-32.5 64.75 -27.1 61.65" fill="none" stroke="#3f274c" stroke-linecap="round" stroke-linejoin="round" stroke-width="1.2000000000000002"/>
    <path d="M32.3 69.8 L34.2 72.65 35.7 68.4" fill="none" stroke="#3f274c" stroke-linecap="round" stroke-linejoin="round" stroke-width="0.5"/>
    <path d="M62.45 43.8 Q99.45 36.65 108.5 22.85 87.3 33.4 59.65 35.6 M53.4 25.4 Q81.25 7.5 95.9 -9.45 89.4 12.1 58.25 31.2" fill="none" stroke="#3f274c" stroke-linecap="round" stroke-linejoin="round" stroke-width="1.0"/>
    <path d="M-34.6 59.15 L-34.65 59.15 Q-35.2 59.3 -35.4 58.75 -35.55 58.2 -34.95 58.0 L-34.0 57.75 -29.7 56.3 -29.35 56.1 -29.05 56.0 -28.75 55.9 -28.65 55.95 -28.7 56.05 -32.1 58.0 -34.3 59.05 -34.6 59.15 M-17.8 65.55 L-18.65 65.4 Q-18.95 64.95 -18.5 64.55 L-17.95 64.2 -15.5 62.25 -14.4 61.15 -13.3 59.95 -13.2 59.95 Q-13.0 59.95 -13.15 60.1 L-14.25 61.7 -14.4 61.95 -14.6 62.2 -15.45 63.2 -15.9 63.7 -16.15 63.9 -17.4 65.2 -17.55 65.3 -17.8 65.55 M-26.75 62.15 L-26.85 62.2 -27.3 62.2 -27.65 61.9 Q-27.9 61.4 -27.4 61.1 L-27.05 60.95 -19.6 56.55 -19.45 56.55 -19.45 56.7 -26.75 62.15 M-34.5 50.4 Q-34.4 50.3 -34.4 50.45 L-34.45 50.55 -40.0 52.45 -39.95 52.4 -40.35 52.6 Q-40.95 52.7 -41.05 52.15 -41.2 51.6 -40.6 51.4 L-40.3 51.35 -40.25 51.3 -34.5 50.4 M44.15 23.8 L44.1 23.75 44.2 23.65 44.65 23.6 44.9 23.6 45.15 23.65 45.85 23.65 46.25 23.7 47.15 23.75 47.6 23.85 48.1 23.9 49.05 24.1 50.55 24.5 51.0 24.7 51.5 24.85 52.75 25.35 54.65 26.3 54.7 26.35 Q55.15 26.75 54.85 27.2 54.5 27.65 54.0 27.35 L53.45 26.95 50.5 25.35 48.65 24.65 48.2 24.55 47.95 24.45 46.2 24.05 45.15 23.9 44.85 23.9 44.65 23.85 44.15 23.8" fill="#3f274c" fill-rule="evenodd" stroke="none"/>
  </g>
</svg>
