<?xml version="1.0" encoding="UTF-8" standalone="no"?>
<svg xmlns:xlink="http://www.w3.org/1999/xlink" height="184.2px" width="108.3px" xmlns="http://www.w3.org/2000/svg">
  <g transform="matrix(1.0, 0.0, 0.0, 1.0, 53.85, 92.1)">
    <path d="M-2.4 -91.5 L6.4 -88.45 Q14.85 -85.8 24.3 -82.55 26.55 -80.7 28.95 -79.15 L29.15 -79.0 Q29.35 -74.1 39.65 -67.65 46.45 -64.75 44.95 -57.1 L40.4 -59.8 Q44.2 -56.85 43.25 -47.8 38.9 -48.55 37.5 -53.9 L37.0 -55.75 Q33.1 -61.75 30.7 -61.6 34.5 -54.4 33.35 -46.8 L36.45 -45.45 39.15 -44.0 27.4 -42.9 Q32.9 -42.1 32.65 -38.05 32.25 -36.3 27.25 -38.05 30.95 -36.45 34.3 -29.5 31.3 -27.7 27.55 -29.85 36.0 -21.55 34.15 -7.45 34.7 2.0 36.9 1.2 42.55 13.3 36.05 37.7 40.2 27.3 42.6 28.1 38.3 44.1 38.35 54.1 L38.15 54.8 38.05 55.55 Q36.1 67.85 42.45 80.75 32.3 66.85 27.5 57.35 26.5 64.45 29.8 72.1 27.6 81.2 29.35 91.5 L29.25 91.45 Q10.7 60.75 5.85 29.05 L5.85 28.8 Q5.75 10.3 8.95 -13.2 L-53.85 -32.35 -2.4 -91.5" fill="#dde2ed" fill-rule="evenodd" stroke="none"/>
    <path d="M38.35 54.1 Q38.3 44.1 42.6 28.1 40.2 27.3 36.05 37.7 42.55 13.3 36.9 1.2 34.7 2.0 34.15 -7.45 36.0 -21.55 27.55 -29.85 31.3 -27.7 34.3 -29.5 30.95 -36.45 27.25 -38.05 32.25 -36.3 32.65 -38.05 32.9 -42.1 27.4 -42.9 L39.15 -44.0 Q55.05 -34.4 53.75 -10.55 49.9 -18.15 46.35 -17.75 50.2 -12.2 47.5 -2.05 55.4 13.25 47.4 26.65 47.55 18.7 44.8 10.35 47.55 18.7 47.4 26.65 47.15 39.8 38.75 51.9 L38.35 54.1 M36.45 -45.45 L33.35 -46.8 Q34.5 -54.4 30.7 -61.6 33.1 -61.75 37.0 -55.75 L37.5 -53.9 Q38.75 -47.2 36.45 -45.45 M39.65 -67.65 Q29.35 -74.1 29.15 -79.0 39.3 -72.4 51.7 -71.85 47.0 -65.4 39.65 -67.65" fill="#bbc1da" fill-rule="evenodd" stroke="none"/>
    <path d="M5.85 29.05 Q10.7 60.75 29.25 91.45 11.0 81.0 7.0 48.25 5.9 39.45 5.85 29.05 M29.8 72.1 Q26.5 64.45 27.5 57.35 32.3 66.85 42.45 80.75 L42.45 80.8 Q33.8 79.65 30.75 68.65 L29.8 72.1" fill="#f6f7f8" fill-rule="evenodd" stroke="none"/>
    <path d="M28.95 -79.15 Q26.55 -80.7 24.3 -82.55 14.85 -85.8 6.4 -88.45 L-2.4 -91.5 M29.25 91.45 L29.35 91.5 Q27.6 81.2 29.8 72.1 L30.75 68.65 Q33.8 79.65 42.45 80.8 L42.45 80.75 Q36.1 67.85 38.05 55.55 M38.15 54.8 L38.35 54.1 38.75 51.9 Q47.15 39.8 47.4 26.65 55.4 13.25 47.5 -2.05 50.2 -12.2 46.35 -17.75 49.9 -18.15 53.75 -10.55 55.05 -34.4 39.15 -44.0 L36.45 -45.45 33.35 -46.8 M37.0 -55.75 L37.5 -53.9 Q38.9 -48.55 43.25 -47.8 44.2 -56.85 40.4 -59.8 L44.95 -57.1 Q46.45 -64.75 39.65 -67.65 47.0 -65.4 51.7 -71.85 39.3 -72.4 29.15 -79.0 M36.45 -45.45 Q38.75 -47.2 37.5 -53.9 M47.4 26.65 Q47.55 18.7 44.8 10.35 M7.0 48.25 Q11.0 81.0 29.25 91.45" fill="none" stroke="#333333" stroke-linecap="round" stroke-linejoin="round" stroke-width="1.2000000000000002"/>
    <path d="M5.85 28.8 L5.85 29.05" fill="none" stroke="#333333" stroke-linecap="round" stroke-linejoin="round" stroke-width="0.05"/>
    <path d="M38.05 55.55 L38.15 54.8" fill="none" stroke="#333333" stroke-linecap="round" stroke-linejoin="round" stroke-width="0.05"/>
    <path d="M48.05 -2.2 Q48.3 -1.65 47.7 -1.4 47.15 -1.2 46.95 -1.75 L44.6 -6.85 44.6 -7.0 44.75 -7.0 47.75 -2.75 48.05 -2.2 M43.55 -20.55 L43.55 -20.65 43.7 -20.7 44.05 -20.5 44.35 -20.25 45.05 -19.8 46.3 -18.75 46.35 -18.7 46.95 -17.85 Q47.15 -17.3 46.55 -17.1 L46.1 -17.1 Q45.9 -17.2 45.8 -17.45 L45.5 -18.15 45.55 -18.1 45.35 -18.45 43.55 -20.55 M34.05 -7.4 L34.1 -7.5 34.2 -7.45 34.35 -6.85 34.95 -3.25 35.35 -1.5 35.75 -0.4 35.95 0.05 36.35 0.6 36.45 0.65 36.55 0.65 36.95 0.05 37.05 -0.05 37.3 -0.35 37.9 -1.3 38.55 -2.6 38.65 -2.75 38.7 -2.95 38.8 -3.1 38.9 -3.45 39.0 -3.6 39.3 -4.65 39.35 -5.05 39.4 -5.1 39.4 -5.4 39.45 -5.75 39.5 -5.95 39.5 -7.4 39.45 -7.6 39.45 -7.75 39.4 -7.95 39.4 -8.15 39.05 -9.4 38.9 -9.75 38.8 -10.15 38.8 -10.25 38.95 -10.2 39.2 -9.9 39.55 -9.2 39.65 -9.05 39.9 -8.5 40.35 -6.5 40.35 -5.0 40.3 -4.9 40.2 -4.1 39.85 -2.7 39.75 -2.55 39.7 -2.35 39.3 -1.4 38.5 0.0 37.95 0.75 37.8 0.9 37.35 1.55 37.1 1.75 36.6 1.85 36.1 1.75 35.65 1.5 35.35 1.2 34.95 0.6 34.7 0.0 34.15 -2.5 34.05 -7.4" fill="#333333" fill-rule="evenodd" stroke="none"/>
  </g>
</svg>
