<?xml version="1.0" encoding="UTF-8" standalone="no"?>
<svg xmlns:xlink="http://www.w3.org/1999/xlink" height="41.85px" width="72.15px" xmlns="http://www.w3.org/2000/svg">
  <g transform="matrix(1.0, 0.0, 0.0, 1.0, 0.6, 0.6)">
    <path d="M49.1 29.75 Q20.9 51.1 0.0 30.7 3.15 21.05 22.4 19.0 36.4 19.0 49.1 29.75 M66.7 1.25 Q77.3 23.6 61.6 23.8 59.3 16.75 60.3 9.1 60.4 3.15 61.6 1.1 64.15 -1.2 66.7 1.25" fill="#4d6084" fill-rule="evenodd" stroke="none"/>
    <path d="M66.7 1.25 Q64.15 -1.2 61.6 1.1 60.4 3.15 60.3 9.1 59.3 16.75 61.6 23.8 77.3 23.6 66.7 1.25 M49.1 29.75 Q36.4 19.0 22.4 19.0 3.15 21.05 0.0 30.7 20.9 51.1 49.1 29.75" fill="none" stroke="#333333" stroke-linecap="round" stroke-linejoin="round" stroke-width="1.2000000000000002"/>
  </g>
</svg>
