<?xml version="1.0" encoding="UTF-8" standalone="no"?>
<svg xmlns:xlink="http://www.w3.org/1999/xlink" height="164.0px" width="257.7px" xmlns="http://www.w3.org/2000/svg">
  <g transform="matrix(1.0, 0.0, 0.0, 1.0, 0.6, 0.6)">
    <path d="M183.1 58.3 Q179.7 53.75 174.5 50.85 172.6 49.8 170.45 48.95 168.6 48.2 166.55 47.6 L165.55 47.35 Q161.3 46.35 161.95 50.15 162.6 53.95 163.85 56.95 164.85 59.4 166.45 62.1 L167.7 64.0 167.8 64.15 Q164.3 69.9 175.45 78.3 114.05 87.05 99.9 54.65 L103.5 50.5 Q116.85 38.3 132.6 35.1 150.75 30.4 172.05 30.45 193.3 30.45 178.3 36.55 195.2 37.8 183.8 41.05 191.85 43.35 188.7 45.05 L194.55 49.9 Q212.25 64.6 215.45 86.1 211.25 83.9 205.95 77.9 204.9 75.75 201.8 72.95 L201.3 72.25 Q196.15 75.1 188.6 72.15 187.65 66.4 185.35 61.9 L183.1 58.3 M170.7 36.55 Q175.35 37.55 178.3 36.55 175.35 37.55 170.7 36.55 M220.0 121.6 Q231.4 136.3 256.5 134.05 251.65 142.4 245.8 147.95 229.55 153.05 217.4 149.4 222.45 135.95 218.85 124.75 L220.0 121.6" fill="#f6f7f8" fill-rule="evenodd" stroke="none"/>
    <path d="M163.85 56.95 Q162.6 53.95 161.95 50.15 161.3 46.35 165.55 47.35 L166.55 47.6 Q168.6 48.2 170.45 48.95 172.6 49.8 174.5 50.85 179.7 53.75 183.1 58.3 191.8 78.75 170.45 67.35 168.95 65.85 167.8 64.15 L167.8 64.1 167.7 64.0 166.45 62.1 Q165.75 60.8 165.2 59.35 L163.85 56.95 M182.45 104.8 Q195.2 97.0 201.35 79.6 L200.55 83.9 Q199.35 90.5 201.1 98.65 L201.5 99.95 Q202.1 101.5 203.4 101.8 L205.85 104.15 Q209.5 106.45 214.05 108.2 L217.75 109.8 Q210.95 111.25 206.6 115.75 L206.55 115.75 Q205.1 117.35 205.7 118.6 206.1 119.7 208.3 120.45 211.8 122.1 216.35 121.05 215.95 124.6 213.2 128.05 L208.4 133.7 211.45 133.4 214.55 132.75 Q207.1 143.65 192.35 151.4 166.95 153.35 145.8 142.6 125.95 122.85 154.4 117.8 L155.1 118.0 Q162.35 120.15 169.7 118.25 177.05 116.35 184.75 110.35 186.15 109.5 186.4 108.7 186.75 107.5 184.65 106.3 L182.45 104.8 M1.9 34.6 Q3.2 27.8 5.35 20.6 4.15 27.85 5.35 33.95 7.6 48.5 13.65 49.6 26.35 88.7 84.3 99.85 92.35 101.4 95.9 97.9 102.85 90.15 119.05 103.85 123.25 109.4 121.45 113.3 118.3 114.25 115.95 114.5 110.8 114.9 109.4 111.85 106.5 113.7 104.25 115.7 97.75 112.6 92.35 120.25 82.1 120.25 72.5 118.3 38.65 111.6 13.0 81.25 0.5 59.8 1.9 34.6 M206.85 111.45 Q200.6 110.25 195.65 105.6 195.2 110.7 199.3 114.6 204.7 115.65 206.85 111.45 M201.65 137.15 Q206.9 136.85 208.4 133.7 206.9 136.85 201.65 137.15" fill="#7886ab" fill-rule="evenodd" stroke="none"/>
    <path d="M188.6 72.15 Q196.15 75.1 201.3 72.25 199.5 79.45 193.0 84.6 194.2 85.45 194.0 85.95 190.15 85.8 186.65 84.75 188.0 85.9 190.1 86.6 193.7 88.05 193.8 88.95 182.95 89.15 172.45 85.65 175.75 89.1 180.15 90.35 L182.95 90.2 Q185.95 92.3 181.65 93.0 L181.4 93.05 Q173.55 92.2 164.95 90.05 168.65 92.45 172.8 93.45 L171.9 93.65 170.45 93.95 Q162.55 95.65 152.6 96.5 L151.4 96.6 144.15 96.45 Q125.55 95.75 103.7 92.3 93.9 86.55 85.85 79.35 86.05 75.9 90.7 68.25 95.35 60.55 98.25 56.7 L98.55 56.35 99.9 54.65 Q114.05 87.05 175.45 78.3 164.3 69.9 167.8 64.15 168.95 65.85 170.45 67.35 175.7 72.75 184.9 75.6 L188.35 75.45 188.6 75.2 Q189.3 74.3 188.6 72.15 M205.95 77.9 Q211.25 83.9 215.45 86.1 216.55 93.8 215.9 102.45 213.15 99.9 211.4 95.8 210.9 90.5 209.15 85.6 L207.4 81.45 206.45 79.75 205.95 77.9 M245.8 147.95 Q224.85 167.5 190.25 152.45 L192.35 151.4 Q207.1 143.65 214.55 132.75 217.15 128.95 218.85 124.75 222.45 135.95 217.4 149.4 229.55 153.05 245.8 147.95" fill="#dde2ed" fill-rule="evenodd" stroke="none"/>
    <path d="M183.1 58.3 L185.35 61.9 Q187.65 66.4 188.6 72.15 189.3 74.3 188.6 75.2 L188.35 75.45 184.9 75.6 Q175.7 72.75 170.45 67.35 191.8 78.75 183.1 58.3 M201.3 72.25 L201.8 72.95 Q204.9 75.75 205.95 77.9 L206.45 79.75 Q203.3 77.55 201.35 79.6 195.2 97.0 182.45 104.8 177.65 101.75 173.15 100.1 L170.85 99.3 166.75 98.35 166.25 98.3 Q159.55 97.45 153.35 99.5 L152.75 99.7 Q150.0 100.7 147.3 102.4 L146.6 102.85 Q144.25 104.3 142.0 106.25 140.75 107.2 141.25 109.2 L141.6 110.3 Q146.85 114.8 152.2 116.95 L154.4 117.8 Q125.95 122.85 145.8 142.6 166.95 153.35 192.35 151.4 L190.25 152.45 189.95 152.6 Q154.35 169.2 132.8 158.8 128.8 156.7 124.05 153.65 113.5 146.75 99.15 135.05 101.6 139.9 107.5 145.0 69.75 137.45 45.2 123.95 -9.3 93.95 1.9 34.6 0.5 59.8 13.0 81.25 38.65 111.6 72.5 118.3 82.1 120.25 92.35 120.25 97.75 112.6 104.25 115.7 109.6 118.0 116.45 117.05 L118.3 116.7 Q120.5 115.2 121.45 113.3 120.5 115.2 118.3 116.7 L116.45 117.05 Q109.6 118.0 104.25 115.7 94.0 124.95 99.15 135.05 94.0 124.95 104.25 115.7 106.5 113.7 109.4 111.85 110.8 114.9 115.95 114.5 118.3 114.25 121.45 113.3 123.25 109.4 119.05 103.85 102.85 90.15 95.9 97.9 92.35 101.4 84.3 99.85 90.15 89.4 93.65 90.65 L103.7 92.3 Q125.55 95.75 144.15 96.45 L151.4 96.6 152.6 96.5 Q162.55 95.65 170.45 93.95 L171.9 93.65 172.8 93.45 172.85 93.4 181.4 93.05 181.65 93.0 Q185.95 92.3 182.95 90.2 193.95 90.5 193.8 88.95 193.7 88.05 190.1 86.6 193.65 86.7 194.0 85.95 194.2 85.45 193.0 84.6 199.5 79.45 201.3 72.25 M201.8 72.95 L205.95 77.9 201.8 72.95 M203.4 101.8 L205.1 101.7 206.5 101.15 Q209.85 99.9 211.4 95.8 213.15 99.9 215.9 102.45 L222.1 110.3 Q221.7 116.25 220.0 121.6 L218.85 124.75 Q217.15 128.95 214.55 132.75 L211.45 133.4 208.4 133.7 213.2 128.05 Q215.95 124.6 216.35 121.05 L216.55 121.0 216.85 120.85 Q219.8 117.9 220.35 113.2 220.85 111.75 220.5 110.9 220.15 109.85 218.8 109.6 L218.6 109.6 217.75 109.8 214.05 108.2 Q209.5 106.45 205.85 104.15 L203.4 101.8 M206.85 111.45 Q204.7 115.65 199.3 114.6 195.2 110.7 195.65 105.6 200.6 110.25 206.85 111.45" fill="#4d6084" fill-rule="evenodd" stroke="none"/>
    <path d="M172.8 93.45 Q168.65 92.45 164.95 90.05 173.55 92.2 181.4 93.05 L172.85 93.4 172.8 93.45 M182.95 90.2 L180.15 90.35 Q175.75 89.1 172.45 85.65 182.95 89.15 193.8 88.95 193.95 90.5 182.95 90.2 M190.1 86.6 Q188.0 85.9 186.65 84.75 190.15 85.8 194.0 85.95 193.65 86.7 190.1 86.6 M84.3 99.85 Q83.45 88.2 85.85 79.35 93.9 86.55 103.7 92.3 L93.65 90.65 Q90.15 89.4 84.3 99.85" fill="#bbc1da" fill-rule="evenodd" stroke="none"/>
    <path d="M217.75 109.8 L218.6 109.6 218.8 109.6 Q220.15 109.85 220.5 110.9 220.85 111.75 220.35 113.2 219.8 117.9 216.85 120.85 L216.55 121.0 216.35 121.05 Q211.8 122.1 208.3 120.45 206.1 119.7 205.7 118.6 205.1 117.35 206.55 115.75 L206.6 115.75 Q210.95 111.25 217.75 109.8 M212.05 114.05 L211.75 114.05 211.7 114.1 211.2 114.2 211.1 114.25 211.0 114.25 210.35 114.55 210.3 114.55 210.25 114.6 209.8 114.85 208.8 115.75 208.75 115.85 208.55 116.05 208.5 116.15 208.4 116.25 208.25 116.55 208.15 116.65 208.0 116.95 208.0 117.05 207.9 117.2 207.8 117.5 207.75 117.55 207.75 117.7 207.7 117.8 207.8 117.95 208.15 117.95 208.65 117.85 208.75 117.8 208.85 117.8 209.5 117.5 209.6 117.5 209.65 117.45 209.75 117.4 209.95 117.25 210.1 117.2 211.1 116.3 211.15 116.2 211.3 116.0 211.45 115.85 211.45 115.8 211.6 115.6 211.9 115.0 211.95 114.8 212.1 114.5 212.1 114.35 212.15 114.3 212.15 114.2 212.05 114.05" fill="#333333" fill-rule="evenodd" stroke="none"/>
    <path d="M212.05 114.05 L212.15 114.2 212.15 114.3 212.1 114.35 212.1 114.5 211.95 114.8 211.9 115.0 211.6 115.6 211.45 115.8 211.45 115.85 211.3 116.0 211.15 116.2 211.1 116.3 210.1 117.2 209.95 117.25 209.75 117.4 209.65 117.45 209.6 117.5 209.5 117.5 208.85 117.8 208.75 117.8 208.65 117.85 208.15 117.95 207.8 117.95 207.7 117.8 207.75 117.7 207.75 117.55 207.8 117.5 207.9 117.2 208.0 117.05 208.0 116.95 208.15 116.65 208.25 116.55 208.4 116.25 208.5 116.15 208.55 116.05 208.75 115.85 208.8 115.75 209.8 114.85 210.25 114.6 210.3 114.55 210.35 114.55 211.0 114.25 211.1 114.25 211.2 114.2 211.7 114.1 211.75 114.05 212.05 114.05" fill="#cccccc" fill-rule="evenodd" stroke="none"/>
    <path d="M5.35 20.6 Q8.3 10.65 12.9 0.0 6.85 28.75 13.65 49.6 7.6 48.5 5.35 33.95 4.15 27.85 5.35 20.6" fill="#9ea6c2" fill-rule="evenodd" stroke="none"/>
    <path d="M163.85 56.95 Q162.6 53.95 161.95 50.15 161.3 46.35 165.55 47.35 L166.55 47.6 Q168.6 48.2 170.45 48.95 172.6 49.8 174.5 50.85 179.7 53.75 183.1 58.3 L185.35 61.9 Q187.65 66.4 188.6 72.15 189.3 74.3 188.6 75.2 L188.35 75.45 184.9 75.6 Q175.7 72.75 170.45 67.35 168.95 65.85 167.8 64.15 L167.7 64.0 166.45 62.1 Q164.85 59.4 163.85 56.95 M201.3 72.25 L201.8 72.95 Q204.9 75.75 205.95 77.9 L206.45 79.75 Q203.3 77.55 201.35 79.6 L200.55 83.9 Q199.35 90.5 201.1 98.65 L201.5 99.95 Q202.1 101.5 203.4 101.8 L205.1 101.7 206.5 101.15 Q209.85 99.9 211.4 95.8 210.9 90.5 209.15 85.6 L207.4 81.45 206.45 79.75 M215.45 86.1 Q212.25 64.6 194.55 49.9 L188.7 45.05 Q191.85 43.35 183.8 41.05 195.2 37.8 178.3 36.55 175.35 37.55 170.7 36.55 M178.3 36.55 Q193.3 30.45 172.05 30.45 150.75 30.4 132.6 35.1 116.85 38.3 103.5 50.5 L99.9 54.65 98.55 56.35 98.25 56.7 Q95.35 60.55 90.7 68.25 86.05 75.9 85.85 79.35 83.45 88.2 84.3 99.85 90.15 89.4 93.65 90.65 L103.7 92.3 Q125.55 95.75 144.15 96.45 L151.4 96.6 152.6 96.5 Q162.55 95.65 170.45 93.95 L171.9 93.65 172.8 93.45 172.85 93.4 181.4 93.05 M167.8 64.1 L167.8 64.15 M154.4 117.8 L152.2 116.95 Q146.85 114.8 141.6 110.3 L141.25 109.2 Q140.75 107.2 142.0 106.25 144.25 104.3 146.6 102.85 L147.3 102.4 Q150.0 100.7 152.75 99.7 L153.35 99.5 Q159.55 97.45 166.25 98.3 L166.75 98.35 170.85 99.3 173.15 100.1 Q177.65 101.75 182.45 104.8 L184.65 106.3 Q186.75 107.5 186.4 108.7 186.15 109.5 184.75 110.35 177.05 116.35 169.7 118.25 162.35 120.15 155.1 118.0 L154.4 117.8 M181.65 93.0 Q185.95 92.3 182.95 90.2 L180.15 90.35 M193.8 88.95 Q193.7 88.05 190.1 86.6 193.65 86.7 194.0 85.95 194.2 85.45 193.0 84.6 199.5 79.45 201.3 72.25 M182.95 90.2 Q193.95 90.5 193.8 88.95 M215.9 102.45 L222.1 110.3 Q221.7 116.25 220.0 121.6 231.4 136.3 256.5 134.05 251.65 142.4 245.8 147.95 224.85 167.5 190.25 152.45 L189.95 152.6 Q154.35 169.2 132.8 158.8 128.8 156.7 124.05 153.65 113.5 146.75 99.15 135.05 101.6 139.9 107.5 145.0 69.75 137.45 45.2 123.95 -9.3 93.95 1.9 34.6 3.2 27.8 5.35 20.6 8.3 10.65 12.9 0.0 6.85 28.75 13.65 49.6 26.35 88.7 84.3 99.85 92.35 101.4 95.9 97.9 M208.4 133.7 L211.45 133.4 M214.55 132.75 Q217.15 128.95 218.85 124.75 L220.0 121.6 M192.35 151.4 Q207.1 143.65 214.55 132.75 M192.35 151.4 L190.25 152.45 M208.4 133.7 Q206.9 136.85 201.65 137.15 M215.9 102.45 Q216.55 93.8 215.45 86.1 M215.9 102.45 Q213.15 99.9 211.4 95.8 M121.45 113.3 Q120.5 115.2 118.3 116.7 L116.45 117.05 Q109.6 118.0 104.25 115.7 94.0 124.95 99.15 135.05 M104.25 115.7 Q106.5 113.7 109.4 111.85 M121.45 113.3 Q123.25 109.4 119.05 103.85" fill="none" stroke="#333333" stroke-linecap="round" stroke-linejoin="round" stroke-width="1.2000000000000002"/>
    <path d="M205.95 77.9 L201.8 72.95" fill="none" stroke="#333333" stroke-linecap="round" stroke-linejoin="round" stroke-width="0.05"/>
    <path d="M167.1 51.65 L167.1 51.55 167.25 51.5 167.4 51.6 167.6 51.65 167.7 51.7 167.85 51.75 168.85 52.3 169.25 52.6 169.7 52.85 170.6 53.5 170.7 53.6 170.85 53.7 171.05 53.9 171.75 54.45 172.2 54.9 172.35 55.0 173.45 56.1 173.55 56.25 174.0 56.7 174.75 57.65 174.95 57.85 175.25 58.35 175.45 58.55 175.85 59.25 176.0 59.45 176.6 60.7 176.65 60.85 176.8 61.15 176.85 61.3 176.85 61.35 176.7 61.45 176.2 61.3 174.8 60.65 173.7 60.0 173.2 59.7 173.1 59.6 172.95 59.5 171.5 58.35 171.35 58.25 171.25 58.1 170.35 57.2 170.2 57.1 169.1 55.7 168.95 55.45 168.85 55.35 168.45 54.7 168.3 54.5 167.7 53.35 167.3 52.25 167.25 52.15 167.1 51.65" fill="#9ea6c2" fill-rule="evenodd" stroke="none"/>
  </g>
</svg>
