<?xml version="1.0" encoding="UTF-8" standalone="no"?>
<svg xmlns:xlink="http://www.w3.org/1999/xlink" height="182.0px" width="66.3px" xmlns="http://www.w3.org/2000/svg">
  <g transform="matrix(1.0, 0.0, 0.0, 1.0, 33.15, 91.0)">
    <path d="M-30.6 -34.6 L-31.95 -41.0 Q-32.4 -46.05 -32.45 -50.7 L-32.55 -53.95 Q-32.75 -63.2 -17.9 -78.15 -12.25 -83.85 -4.4 -90.4 L10.4 -79.2 Q8.1 -60.1 5.2 -50.2 3.8 -45.75 2.4 -43.2 4.2 -33.85 4.6 -23.95 L3.3 0.15 3.1 1.55 1.8 9.2 3.4 36.0 Q3.0 44.45 4.0 51.25 L4.6 54.55 Q-1.9 44.8 -4.5 47.85 -17.3 61.15 -11.6 77.55 -12.4 78.55 -11.95 81.6 -14.85 78.35 -16.7 78.35 -18.6 78.85 -19.45 81.0 -20.45 78.35 -22.95 78.15 -21.9 79.55 -23.2 80.1 -24.4 77.0 -26.3 75.9 -26.85 71.35 -28.2 63.75 -28.65 59.05 -28.6 53.15 -18.2 46.3 -20.4 42.75 L-23.6 30.45 -20.1 -11.2 Q-17.45 -9.55 -12.25 -11.95 -11.55 -12.3 -11.0 -12.7 -7.4 -15.4 -9.3 -21.9 -11.5 -29.4 -17.75 -34.1 -21.65 -31.2 -22.0 -28.5 -27.4 -32.0 -30.6 -34.6" fill="#dde2ed" fill-rule="evenodd" stroke="none"/>
    <path d="M-28.6 53.15 Q-28.5 46.6 -27.8 38.65 L-26.35 25.2 Q-26.75 24.35 -26.95 20.3 -26.55 10.9 -26.3 1.15 -26.25 -3.15 -26.95 -15.4 L-30.6 -34.6 Q-27.4 -32.0 -22.0 -28.5 -23.75 -23.75 -24.0 -20.15 -24.4 -13.8 -20.1 -11.2 L-23.6 30.45 -20.4 42.75 Q-18.2 46.3 -28.6 53.15" fill="#f6f7f8" fill-rule="evenodd" stroke="none"/>
    <path d="M20.75 74.7 Q31.75 75.9 32.55 88.75 L27.15 88.6 Q26.15 88.65 25.75 89.3 L25.3 90.0 21.4 90.4 Q18.8 90.45 15.3 89.4 L10.7 89.85 Q2.3 90.2 -2.25 87.85 -10.9 89.75 -23.2 83.65 -25.5 81.85 -26.3 75.9 -24.4 77.0 -23.2 80.1 -21.9 79.55 -22.95 78.15 -20.45 78.35 -19.45 81.0 -18.6 78.85 -16.7 78.35 -14.85 78.35 -11.95 81.6 -12.4 78.55 -11.6 77.55 -10.2 80.5 -6.95 81.35 -5.0 81.3 -3.3 83.35 -1.35 82.55 -0.7 80.45 -0.65 82.3 1.7 83.35 3.5 83.0 3.95 81.3 4.05 83.2 6.6 83.75 7.7 81.95 9.3 82.1 8.65 83.4 11.6 85.05 L13.1 83.85 Q13.1 85.8 14.7 85.85 15.0 83.35 16.75 83.45 17.7 88.9 15.55 89.4 L15.3 89.4 15.55 89.4 Q17.7 88.9 16.75 83.45 18.4 82.75 20.65 86.45 19.75 83.55 23.7 83.4 22.3 85.3 25.25 84.25 26.35 85.25 26.95 83.0 20.55 78.1 20.75 74.7 M-17.75 -34.1 Q-11.5 -29.4 -9.3 -21.9 -7.4 -15.4 -11.0 -12.7 -11.55 -12.3 -12.25 -11.95 -17.45 -9.55 -20.1 -11.2 -24.4 -13.8 -24.0 -20.15 -21.45 -15.95 -17.75 -16.85 -19.85 -19.4 -17.75 -34.1 M-2.25 87.85 Q-6.1 85.65 -6.95 81.35 -6.1 85.65 -2.25 87.85 M25.75 89.3 Q27.1 86.4 26.95 83.0 27.1 86.4 25.75 89.3" fill="#4d6084" fill-rule="evenodd" stroke="none"/>
    <path d="M-22.0 -28.5 Q-21.65 -31.2 -17.75 -34.1 -19.85 -19.4 -17.75 -16.85 -21.45 -15.95 -24.0 -20.15 -23.75 -23.75 -22.0 -28.5" fill="#7886ab" fill-rule="evenodd" stroke="none"/>
    <path d="M4.6 54.55 Q6.6 63.55 11.55 69.55 13.3 69.7 20.75 74.7 20.55 78.1 26.95 83.0 26.35 85.25 25.25 84.25 22.3 85.3 23.7 83.4 19.75 83.55 20.65 86.45 18.4 82.75 16.75 83.45 15.0 83.35 14.7 85.85 13.1 85.8 13.1 83.85 L11.6 85.05 Q8.65 83.4 9.3 82.1 7.7 81.95 6.6 83.75 4.05 83.2 3.95 81.3 3.5 83.0 1.7 83.35 -0.65 82.3 -0.7 80.45 -1.35 82.55 -3.3 83.35 -5.0 81.3 -6.95 81.35 -10.2 80.5 -11.6 77.55 -17.3 61.15 -4.5 47.85 -1.9 44.8 4.6 54.55" fill="#bbc1da" fill-rule="evenodd" stroke="none"/>
    <path d="M-30.6 -34.6 L-31.95 -41.0 Q-32.4 -46.05 -32.45 -50.7 L-32.55 -53.95 Q-32.75 -63.2 -17.9 -78.15 -12.25 -83.85 -4.4 -90.4 L10.4 -79.2 Q8.1 -60.1 5.2 -50.2 3.8 -45.75 2.4 -43.2 4.2 -33.85 4.6 -23.95 L3.3 0.15 3.1 1.55 1.8 9.2 3.4 36.0 Q3.0 44.45 4.0 51.25 L4.6 54.55 Q6.6 63.55 11.55 69.55 13.3 69.7 20.75 74.7 31.75 75.9 32.55 88.75 L27.15 88.6 Q26.15 88.65 25.75 89.3 L25.3 90.0 21.4 90.4 Q18.8 90.45 15.3 89.4 L10.7 89.85 Q2.3 90.2 -2.25 87.85 -10.9 89.75 -23.2 83.65 -25.5 81.85 -26.3 75.9 -26.85 71.35 -28.2 63.75 -28.65 59.05 -28.6 53.15 -28.5 46.6 -27.8 38.65 L-26.35 25.2 Q-26.75 24.35 -26.95 20.3 -26.55 10.9 -26.3 1.15 -26.25 -3.15 -26.95 -15.4 M-22.0 -28.5 Q-21.65 -31.2 -17.75 -34.1 -11.5 -29.4 -9.3 -21.9 -7.4 -15.4 -11.0 -12.7 -11.55 -12.3 -12.25 -11.95 -17.45 -9.55 -20.1 -11.2 M16.75 83.45 Q15.0 83.35 14.7 85.85 13.1 85.8 13.1 83.85 L11.6 85.05 Q8.65 83.4 9.3 82.1 7.7 81.95 6.6 83.75 4.05 83.2 3.95 81.3 3.5 83.0 1.7 83.35 -0.65 82.3 -0.7 80.45 -1.35 82.55 -3.3 83.35 -5.0 81.3 -6.95 81.35 -6.1 85.65 -2.25 87.85 M15.3 89.4 L15.55 89.4 Q17.7 88.9 16.75 83.45 18.4 82.75 20.65 86.45 19.75 83.55 23.7 83.4 22.3 85.3 25.25 84.25 26.35 85.25 26.95 83.0 20.55 78.1 20.75 74.7 M26.95 83.0 Q27.1 86.4 25.75 89.3 M-11.6 77.55 Q-12.4 78.55 -11.95 81.6 -14.85 78.35 -16.7 78.35 -18.6 78.85 -19.45 81.0 -20.45 78.35 -22.95 78.15 -21.9 79.55 -23.2 80.1 -24.4 77.0 -26.3 75.9 M-6.95 81.35 Q-10.2 80.5 -11.6 77.55" fill="none" stroke="#333333" stroke-linecap="round" stroke-linejoin="round" stroke-width="1.2000000000000002"/>
    <path d="M-26.95 -15.4 L-30.6 -34.6 M-24.0 -20.15 Q-24.4 -13.8 -20.1 -11.2 M-24.0 -20.15 Q-23.75 -23.75 -22.0 -28.5" fill="none" stroke="#333333" stroke-linecap="round" stroke-linejoin="miter-clip" stroke-miterlimit="3.0" stroke-width="1.2000000000000002"/>
    <path d="M-26.85 25.45 L-26.9 25.35 -26.9 24.9 -26.6 24.6 -26.1 24.6 -25.8 24.9 -23.5 30.4 -23.55 30.5 -23.65 30.45 -26.85 25.45" fill="#333333" fill-rule="evenodd" stroke="none"/>
  </g>
</svg>
