<?xml version="1.0" encoding="UTF-8" standalone="no"?>
<svg xmlns:xlink="http://www.w3.org/1999/xlink" height="194.0px" width="216.8px" xmlns="http://www.w3.org/2000/svg">
  <g transform="matrix(1.0, 0.0, 0.0, 1.0, 108.4, 97.0)">
    <path d="M59.3 -53.0 Q62.05 -53.75 66.65 -59.75 L75.65 -49.15 68.6 -47.8 Q72.95 -45.6 74.0 -35.9 77.25 -39.6 83.0 -38.15 L80.65 -35.7 Q85.4 -35.3 89.2 -30.55 87.15 -27.9 84.1 -30.9 L84.3 -30.15 Q85.5 -25.85 88.5 -23.8 L89.9 -23.0 Q95.65 -20.65 99.8 -23.3 L100.7 -23.35 Q102.2 -22.9 103.7 -20.5 101.4 -16.75 105.15 -9.95 L104.3 -10.25 Q94.55 -10.8 89.45 -16.25 88.55 -17.2 87.8 -18.3 L86.65 -18.5 Q79.05 -19.65 76.9 -15.4 78.75 -9.35 90.65 -8.15 96.5 -7.55 104.9 -8.15 98.6 -4.4 91.45 -4.6 100.75 -0.7 102.4 6.4 L93.65 1.45 88.1 -1.4 Q77.75 -4.75 74.0 -7.75 75.8 -2.9 83.7 5.4 L97.4 19.95 Q98.55 23.1 98.75 26.0 93.7 24.35 91.1 21.25 84.4 13.1 79.1 7.35 72.6 0.5 70.05 -3.95 L72.95 5.3 69.75 4.15 Q58.05 -0.65 52.1 -10.85 50.7 -13.2 49.65 -15.8 L48.95 -17.9 47.05 -30.65 Q43.6 -27.05 38.0 -28.8 46.3 -32.5 43.3 -38.55 46.3 -32.5 38.0 -28.8 43.6 -27.05 47.05 -30.65 L48.95 -17.9 49.65 -15.8 Q50.7 -13.2 52.1 -10.85 49.1 -8.65 56.35 1.95 71.35 7.65 71.9 14.1 73.95 30.25 64.85 37.75 -17.8 67.2 -80.3 -38.55 L-85.55 -47.8 Q-58.1 -66.8 -23.35 -53.35 -6.75 -52.0 13.9 -42.9 L14.7 -43.9 Q21.2 -45.9 24.6 -49.6 30.2 -55.65 28.35 -62.4 L28.35 -62.45 24.8 -59.15 22.2 -71.8 25.8 -68.55 26.5 -67.95 27.05 -67.45 Q40.1 -56.45 59.3 -53.0 56.7 -52.4 54.3 -51.4 56.7 -52.4 59.3 -53.0 M18.0 -40.8 L13.9 -42.9 18.0 -40.8 Q36.35 -32.15 43.3 -38.55 42.85 -43.65 31.55 -47.05 29.55 -39.8 18.0 -40.8" fill="#f6f7f8" fill-rule="evenodd" stroke="none"/>
    <path d="M66.65 -59.75 Q62.05 -53.75 59.3 -53.0 40.1 -56.45 27.05 -67.45 L26.5 -67.95 25.8 -68.55 22.2 -71.8 Q10.2 -84.15 20.9 -96.4 33.25 -63.25 66.65 -59.75 73.65 -59.25 84.3 -62.6 96.0 -72.15 98.5 -70.6 100.9 -69.15 94.95 -57.55 104.5 -56.35 104.85 -42.55 L98.5 -49.1 Q103.3 -42.45 97.8 -35.2 99.9 -31.8 101.5 -27.9 110.8 -14.2 103.7 -20.5 102.2 -22.9 100.7 -23.35 L99.8 -23.3 Q95.65 -20.65 89.9 -23.0 L88.5 -23.8 Q85.5 -25.85 84.3 -30.15 L84.1 -30.9 Q87.15 -27.9 89.2 -30.55 85.4 -35.3 80.65 -35.7 L83.0 -38.15 Q77.25 -39.6 74.0 -35.9 72.95 -45.6 68.6 -47.8 L75.65 -49.15 66.65 -59.75 M105.15 -9.95 L107.8 -10.2 105.3 -8.35 104.95 -8.15 104.9 -8.15 Q96.5 -7.55 90.65 -8.15 78.75 -9.35 76.9 -15.4 79.05 -19.65 86.65 -18.5 L87.8 -18.3 Q88.55 -17.2 89.45 -16.25 94.55 -10.8 104.3 -10.25 L105.15 -9.95 M93.65 1.45 Q96.95 10.55 106.85 21.5 99.05 21.9 95.6 15.75 L97.4 19.95 83.7 5.4 Q75.8 -2.9 74.0 -7.75 77.75 -4.75 88.1 -1.4 L93.65 1.45 M91.2 25.0 Q91.15 33.0 88.8 42.15 L88.6 42.6 87.15 45.95 71.7 35.1 Q60.9 59.1 47.35 71.3 31.95 84.45 15.65 91.85 14.6 95.1 13.2 96.4 9.3 95.2 5.3 89.35 1.15 83.5 0.4 89.95 -2.2 82.85 -5.1 82.2 -18.8 81.9 -32.0 77.75 -71.1 48.0 -74.9 15.7 L-80.3 -38.55 Q-17.8 67.2 64.85 37.75 73.95 30.25 71.9 14.1 71.35 7.65 56.35 1.95 49.1 -8.65 52.1 -10.85 58.05 -0.65 69.75 4.15 L72.95 5.3 91.2 25.0 M13.9 -42.9 L13.5 -43.55 14.7 -43.9 13.9 -42.9 M95.1 14.8 L95.6 15.75 95.1 14.8" fill="#dde2ed" fill-rule="evenodd" stroke="none"/>
    <path d="M91.1 21.25 L91.2 25.0 72.95 5.3 70.05 -3.95 Q72.6 0.5 79.1 7.35 84.4 13.1 91.1 21.25 M87.15 45.95 Q77.1 66.85 56.3 74.1 24.8 95.25 15.65 91.85 31.95 84.45 47.35 71.3 60.9 59.1 71.7 35.1 L87.15 45.95 M-32.0 77.75 Q-52.7 71.1 -72.15 54.75 -123.0 2.25 -101.3 -33.5 -93.7 -42.1 -85.55 -47.8 L-80.3 -38.55 -74.9 15.7 Q-71.1 48.0 -32.0 77.75 M18.0 -40.8 Q29.55 -39.8 31.55 -47.05 42.85 -43.65 43.3 -38.55 36.35 -32.15 18.0 -40.8" fill="#bbc1da" fill-rule="evenodd" stroke="none"/>
    <path d="M66.65 -59.75 Q62.05 -53.75 59.3 -53.0 56.7 -52.4 54.3 -51.4 M28.35 -62.45 L24.8 -59.15 22.2 -71.8 Q10.2 -84.15 20.9 -96.4 33.25 -63.25 66.65 -59.75 73.65 -59.25 84.3 -62.6 96.0 -72.15 98.5 -70.6 M97.8 -35.2 Q99.9 -31.8 101.5 -27.9 110.8 -14.2 103.7 -20.5 102.2 -22.9 100.7 -23.35 L99.8 -23.3 M105.15 -9.95 L107.8 -10.2 105.3 -8.35 104.95 -8.15 104.9 -8.15 Q98.6 -4.4 91.45 -4.6 100.75 -0.7 102.4 6.4 L93.65 1.45 Q96.95 10.55 106.85 21.5 99.05 21.9 95.6 15.75 L97.4 19.95 Q98.55 23.1 98.75 26.0 93.7 24.35 91.1 21.25 L91.2 25.0 Q91.15 33.0 88.8 42.15 L88.6 42.6 87.15 45.95 Q77.1 66.85 56.3 74.1 24.8 95.25 15.65 91.85 14.6 95.1 13.2 96.4 9.3 95.2 5.3 89.35 1.15 83.5 0.4 89.95 -2.2 82.85 -5.1 82.2 -18.8 81.9 -32.0 77.75 -52.7 71.1 -72.15 54.75 -123.0 2.25 -101.3 -33.5 -93.7 -42.1 -85.55 -47.8 -58.1 -66.8 -23.35 -53.35 -6.75 -52.0 13.9 -42.9 L13.5 -43.55 M14.7 -43.9 Q21.2 -45.9 24.6 -49.6 30.2 -55.65 28.35 -62.4 M14.7 -43.9 L13.9 -42.9 18.0 -40.8 Q36.35 -32.15 43.3 -38.55 46.3 -32.5 38.0 -28.8 43.6 -27.05 47.05 -30.65 L48.95 -17.9 49.65 -15.8 Q50.7 -13.2 52.1 -10.85 58.05 -0.65 69.75 4.15 L72.95 5.3 70.05 -3.95 Q72.6 0.5 79.1 7.35 84.4 13.1 91.1 21.25 M95.6 15.75 L95.1 14.8" fill="none" stroke="#333333" stroke-linecap="round" stroke-linejoin="round" stroke-width="1.2000000000000002"/>
    <path d="M28.35 -62.4 L28.35 -62.45" fill="none" stroke="#333333" stroke-linecap="round" stroke-linejoin="round" stroke-width="0.05"/>
    <path d="M105.45 -10.45 L105.5 -10.4 Q105.95 -10.05 105.65 -9.6 105.3 -9.1 104.8 -9.4 L104.7 -9.5 104.65 -9.5 104.3 -9.65 104.05 -9.65 103.85 -9.7 102.0 -9.9 101.85 -9.95 101.65 -9.95 100.9 -10.1 100.7 -10.1 96.5 -11.3 96.4 -11.3 94.65 -12.1 93.2 -12.9 92.9 -13.05 92.85 -13.1 92.1 -13.6 90.45 -14.95 90.15 -15.25 90.0 -15.35 89.95 -15.4 89.9 -15.5 89.65 -15.75 87.8 -18.05 87.7 -18.2 87.7 -18.35 87.85 -18.35 88.35 -17.65 90.2 -15.7 90.3 -15.65 91.0 -15.0 93.1 -13.6 93.5 -13.4 94.3 -12.95 94.75 -12.8 95.15 -12.6 95.6 -12.45 96.0 -12.25 96.65 -12.05 96.75 -12.0 97.75 -11.7 99.45 -11.3 99.65 -11.3 100.65 -11.1 100.85 -11.1 101.05 -11.05 101.8 -10.95 102.15 -10.95 103.1 -10.85 104.25 -10.8 104.35 -10.8 104.9 -10.7 105.4 -10.45 105.45 -10.45 M98.3 -35.5 L98.3 -35.45 98.4 -34.95 98.1 -34.6 Q97.6 -34.35 97.25 -34.85 L96.65 -35.9 96.35 -36.4 95.25 -38.15 92.85 -41.25 92.85 -41.4 93.0 -41.4 93.55 -40.9 95.8 -38.6 98.3 -35.5 M95.0 -57.5 Q95.0 -57.35 94.9 -57.45 94.75 -57.45 94.85 -57.55 L98.3 -66.5 98.65 -68.6 98.55 -69.4 98.4 -69.85 98.2 -70.05 98.15 -70.05 98.1 -70.1 Q97.65 -70.45 97.95 -70.95 98.35 -71.4 98.8 -71.1 L98.9 -71.0 99.0 -70.95 99.2 -70.75 99.4 -70.45 99.65 -69.6 99.7 -68.55 99.15 -66.25 98.2 -63.8 95.0 -57.5 M43.85 -38.6 L43.9 -38.55 Q43.9 -38.0 43.35 -37.9 42.7 -37.9 42.7 -38.45 L42.65 -38.6 42.65 -38.8 42.55 -39.35 42.5 -39.5 42.45 -39.6 42.45 -39.7 42.05 -40.5 41.45 -41.35 40.6 -42.25 39.3 -43.3 38.7 -43.7 38.4 -43.85 38.1 -44.05 36.6 -44.85 35.95 -45.15 31.5 -46.95 Q31.35 -46.95 31.45 -47.05 L31.55 -47.1 33.35 -46.6 33.6 -46.55 37.15 -45.25 38.45 -44.65 38.75 -44.45 39.1 -44.3 39.4 -44.1 39.55 -44.05 40.0 -43.75 41.2 -42.9 42.2 -42.0 42.95 -41.05 43.45 -40.1 43.55 -39.9 43.6 -39.65 43.75 -39.3 43.8 -39.0 43.8 -38.9 43.85 -38.85 43.85 -38.6 M21.75 -71.35 L21.65 -71.4 Q21.3 -71.85 21.75 -72.25 L22.6 -72.2 25.85 -68.6 25.85 -68.45 25.7 -68.45 21.75 -71.35 M61.05 -46.6 L60.2 -46.55 Q59.8 -46.95 60.15 -47.4 L60.35 -47.6 60.75 -48.25 60.85 -48.65 60.8 -49.0 60.5 -49.4 60.05 -49.7 59.05 -50.2 57.9 -50.55 54.3 -51.25 54.05 -51.2 Q53.95 -51.1 53.95 -51.25 L54.0 -51.35 54.2 -51.5 54.3 -51.5 58.0 -51.15 59.25 -50.9 60.5 -50.45 61.05 -50.05 61.6 -49.5 61.8 -49.1 61.9 -48.7 61.8 -47.9 61.5 -47.2 61.2 -46.75 61.05 -46.6" fill="#333333" fill-rule="evenodd" stroke="none"/>
  </g>
</svg>
