<?xml version="1.0" encoding="UTF-8" standalone="no"?>
<svg xmlns:xlink="http://www.w3.org/1999/xlink" height="184.5px" width="82.25px" xmlns="http://www.w3.org/2000/svg">
  <g transform="matrix(1.0, 0.0, 0.0, 1.0, 41.1, 91.95)">
    <path d="M-17.9 -79.2 L-16.9 -82.2 -17.2 -80.9 Q-19.45 -71.45 -19.25 -70.1 L-20.85 -60.2 Q-22.6 -45.45 -21.9 -31.35 -25.85 -30.5 -30.85 -33.8 L-32.3 -34.75 -34.9 -36.9 -33.2 -27.8 -33.0 -26.65 Q-31.6 -18.85 -23.85 -10.25 -32.65 -9.5 -37.35 -23.35 L-39.4 -39.25 -40.5 -51.05 Q-31.05 -57.6 -25.0 -65.75 -20.5 -72.0 -17.9 -79.2 M10.75 59.35 Q0.55 53.9 -9.65 39.55 L-8.7 32.05 Q-0.05 46.15 8.4 56.65 L10.75 59.35" fill="#bbc1da" fill-rule="evenodd" stroke="none"/>
    <path d="M-21.9 -31.35 Q-22.6 -45.45 -20.85 -60.2 L-19.25 -70.1 Q-19.45 -71.45 -17.2 -80.9 L-16.9 -82.2 -17.9 -79.2 Q-17.85 -104.5 0.35 -79.65 -0.75 -51.8 -4.85 -43.1 1.8 -19.3 -5.95 8.85 L-8.7 32.05 -9.65 39.55 Q0.55 53.9 10.75 59.35 L17.1 66.85 Q17.5 66.9 18.35 70.15 21.9 66.65 30.25 70.4 29.9 74.75 34.05 80.4 33.85 82.7 32.6 81.95 29.8 83.55 31.0 81.45 27.0 82.25 28.45 84.9 25.55 81.75 24.05 82.7 22.45 82.95 22.55 85.4 20.9 85.6 20.6 83.65 L19.25 85.15 Q16.1 84.05 16.55 82.7 14.9 82.8 14.25 84.75 11.6 84.65 11.15 82.85 11.0 84.55 9.25 85.3 6.85 84.65 6.35 82.9 6.15 85.0 4.35 86.15 2.25 84.35 0.4 84.8 -2.95 84.6 -4.8 81.9 -5.35 83.0 -4.55 85.85 -7.9 83.25 -9.75 83.6 -11.5 84.35 -12.0 86.65 -13.45 84.3 -15.9 84.5 -14.6 85.65 -15.8 86.5 -17.55 83.6 -19.55 82.85 -20.95 78.5 -23.6 71.3 L-28.65 43.0 -29.2 39.4 Q-23.9 47.5 -19.2 44.5 -14.45 41.65 -16.1 32.4 L-23.85 -10.25 Q-19.55 -14.65 -18.4 -20.5 -17.85 -22.95 -17.8 -24.85 -17.6 -30.65 -21.9 -31.35" fill="#dde2ed" fill-rule="evenodd" stroke="none"/>
    <path d="M-21.9 -31.35 Q-17.6 -30.65 -17.8 -24.85 -23.6 -25.15 -29.05 -28.45 -33.5 -31.2 -34.9 -36.9 L-32.3 -34.75 -30.85 -33.8 Q-25.85 -30.5 -21.9 -31.35" fill="#7886ab" fill-rule="evenodd" stroke="none"/>
    <path d="M-17.8 -24.85 Q-17.85 -22.95 -18.4 -20.5 -19.55 -14.65 -23.85 -10.25 -31.6 -18.85 -33.0 -26.65 L-33.2 -27.8 -34.9 -36.9 Q-33.5 -31.2 -29.05 -28.45 -23.6 -25.15 -17.8 -24.85 M-19.55 82.85 Q-17.55 83.6 -15.8 86.5 -14.6 85.65 -15.9 84.5 -13.45 84.3 -12.0 86.65 -11.5 84.35 -9.75 83.6 -7.9 83.25 -4.55 85.85 -5.35 83.0 -4.8 81.9 -2.95 84.6 0.4 84.8 2.25 84.35 4.35 86.15 6.15 85.0 6.35 82.9 6.85 84.65 9.25 85.3 11.0 84.55 11.15 82.85 11.6 84.65 14.25 84.75 14.9 82.8 16.55 82.7 16.1 84.05 19.25 85.15 L20.6 83.65 Q20.9 85.6 22.55 85.4 22.45 82.95 24.05 82.7 25.55 81.75 28.45 84.9 27.0 82.25 31.0 81.45 29.8 83.55 32.6 81.95 33.85 82.7 34.05 80.4 29.9 74.75 30.25 70.4 37.55 72.55 40.55 85.1 38.55 83.85 35.3 85.85 34.25 86.15 33.9 86.75 L33.65 87.6 Q32.25 88.15 29.8 88.7 27.3 89.15 23.75 88.8 L19.3 90.05 Q11.15 91.95 6.2 90.3 -2.0 93.8 -15.2 89.85 -17.85 88.6 -19.55 82.85 M33.9 86.75 Q34.75 83.75 34.05 80.4 34.75 83.75 33.9 86.75 M24.05 82.7 Q26.05 87.85 24.0 88.75 L23.75 88.8 24.0 88.75 Q26.05 87.85 24.05 82.7 M6.2 90.3 Q1.9 88.9 0.4 84.8 1.9 88.9 6.2 90.3" fill="#4d6084" fill-rule="evenodd" stroke="none"/>
    <path d="M-23.85 -10.25 L-16.1 32.4 Q-14.45 41.65 -19.2 44.5 -23.9 47.5 -29.2 39.4 L-29.35 38.45 Q-34.1 10.55 -33.6 -3.55 -35.55 -11.6 -37.15 -21.95 L-37.35 -23.35 Q-32.65 -9.5 -23.85 -10.25 M30.25 70.4 Q21.9 66.65 18.35 70.15 17.5 66.9 17.1 66.85 27.4 61.75 30.25 70.4" fill="#f6f7f8" fill-rule="evenodd" stroke="none"/>
    <path d="M-21.9 -31.35 Q-17.6 -30.65 -17.8 -24.85 -17.85 -22.95 -18.4 -20.5 -19.55 -14.65 -23.85 -10.25 -31.6 -18.85 -33.0 -26.65 L-33.2 -27.8 -34.9 -36.9 -32.3 -34.75 -30.85 -33.8 Q-25.85 -30.5 -21.9 -31.35 M-29.2 39.4 L-28.65 43.0 -23.6 71.3 Q-20.95 78.5 -19.55 82.85 -17.55 83.6 -15.8 86.5 -14.6 85.65 -15.9 84.5 -13.45 84.3 -12.0 86.65 -11.5 84.35 -9.75 83.6 -7.9 83.25 -4.55 85.85 -5.35 83.0 -4.8 81.9 -2.95 84.6 0.4 84.8 2.25 84.35 4.35 86.15 6.15 85.0 6.35 82.9 6.85 84.65 9.25 85.3 11.0 84.55 11.15 82.85 11.6 84.65 14.25 84.75 14.9 82.8 16.55 82.7 16.1 84.05 19.25 85.15 L20.6 83.65 Q20.9 85.6 22.55 85.4 22.45 82.95 24.05 82.7 25.55 81.75 28.45 84.9 27.0 82.25 31.0 81.45 29.8 83.55 32.6 81.95 33.85 82.7 34.05 80.4 29.9 74.75 30.25 70.4 37.55 72.55 40.55 85.1 38.55 83.85 35.3 85.85 34.25 86.15 33.9 86.75 L33.65 87.6 Q32.25 88.15 29.8 88.7 27.3 89.15 23.75 88.8 L19.3 90.05 Q11.15 91.95 6.2 90.3 -2.0 93.8 -15.2 89.85 -17.85 88.6 -19.55 82.85 M17.1 66.85 L10.75 59.35 8.4 56.65 Q-0.05 46.15 -8.7 32.05 L-5.95 8.85 Q1.8 -19.3 -4.85 -43.1 -0.75 -51.8 0.35 -79.65 M-17.9 -79.2 Q-20.5 -72.0 -25.0 -65.75 -31.05 -57.6 -40.5 -51.05 L-39.4 -39.25 -37.35 -23.35 -37.15 -21.95 Q-35.55 -11.6 -33.6 -3.55 -34.1 10.55 -29.35 38.45 L-29.2 39.4 M0.4 84.8 Q1.9 88.9 6.2 90.3 M23.75 88.8 L24.0 88.75 Q26.05 87.85 24.05 82.7 M34.05 80.4 Q34.75 83.75 33.9 86.75 M17.1 66.85 Q27.4 61.75 30.25 70.4" fill="none" stroke="#333333" stroke-linecap="round" stroke-linejoin="round" stroke-width="1.2000000000000002"/>
    <path d="M16.85 67.35 L16.8 67.35 16.85 67.4 Q16.25 67.2 16.45 66.65 16.6 66.05 17.2 66.25 L17.3 66.25 17.35 66.3 17.4 66.3 17.5 66.4 17.55 66.4 17.65 66.5 17.65 66.55 17.75 66.65 17.75 66.7 17.8 66.7 18.1 67.6 18.65 70.0 18.65 70.1 18.7 70.2 18.7 70.35 19.2 73.55 19.15 73.65 Q19.05 73.75 19.05 73.6 L17.55 68.95 16.95 67.55 16.85 67.4 16.85 67.35 M-9.25 31.85 Q-9.15 31.3 -8.55 31.4 -7.95 31.5 -8.1 32.1 L-9.55 39.55 -9.65 39.6 -9.7 39.5 -9.25 31.85 M-17.35 -78.9 L-17.35 -78.85 Q-17.65 -78.35 -18.15 -78.6 -18.7 -78.85 -18.4 -79.45 L-17.7 -80.9 -17.6 -81.25 -17.2 -82.3 -17.2 -82.4 -17.15 -82.5 -16.85 -83.4 -15.25 -89.6 -15.15 -89.65 -15.1 -89.55 -15.1 -89.1 -16.3 -82.25 -16.3 -82.15 -16.35 -82.1 -16.35 -82.0 -16.65 -80.75 -16.7 -80.75 -16.7 -80.65 -16.75 -80.55 -17.15 -79.35 -17.3 -79.05 -17.35 -78.9" fill="#333333" fill-rule="evenodd" stroke="none"/>
  </g>
</svg>
