<?xml version="1.0" encoding="UTF-8" standalone="no"?>
<svg xmlns:xlink="http://www.w3.org/1999/xlink" height="197.7px" width="119.05px" xmlns="http://www.w3.org/2000/svg">
  <g transform="matrix(1.0, 0.0, 0.0, 1.0, 59.5, 98.8)">
    <path d="M-37.65 -23.05 Q-41.0 -32.8 -40.25 -41.1 -42.8 -56.15 -41.0 -71.7 -45.85 -79.75 -56.5 -85.4 -57.5 -111.05 -27.55 -85.4 -22.1 -64.15 -22.1 -38.2 -19.3 -24.1 -19.4 -14.15 -19.45 -10.65 -20.5 -7.55 -16.55 4.3 -11.25 10.6 L-11.1 10.9 Q-1.55 35.05 13.2 54.9 L17.95 61.05 Q31.85 54.7 39.55 69.8 41.15 76.15 47.15 84.85 46.6 88.2 43.8 88.85 40.1 88.95 38.85 86.25 35.85 86.8 36.0 89.95 33.6 85.95 31.2 87.15 28.55 87.35 28.55 91.0 25.8 91.15 25.55 88.35 L23.4 90.35 Q18.45 88.45 19.25 86.55 16.75 86.5 15.45 89.3 11.25 88.9 10.65 86.25 10.3 88.75 7.5 89.6 3.75 88.4 3.2 85.75 2.6 88.9 -0.3 90.35 -3.3 87.65 -6.35 88.1 -11.55 87.45 -14.25 83.3 -15.3 84.85 -14.25 89.15 -19.25 85.0 -22.2 85.3 -25.05 86.3 -26.0 89.6 -28.05 86.05 -32.0 86.1 -30.1 87.9 -32.0 89.0 -34.5 84.7 -37.65 83.35 -39.35 76.85 -40.05 66.55 -39.4 60.8 -39.25 54.9 -38.75 34.35 -44.1 11.55 -40.8 19.8 -34.95 26.25 L-34.95 20.0 Q-32.25 29.45 -29.6 30.45 -31.55 14.9 -29.6 11.15 L-29.6 11.1 -29.4 10.85 Q-26.9 7.25 -27.4 1.65 L-30.95 -14.7 -31.05 -15.35 Q-31.8 -18.95 -35.35 -22.9 L-37.65 -23.05" fill="#dde2ed" fill-rule="evenodd" stroke="none"/>
    <path d="M-56.5 -85.4 Q-45.85 -79.75 -41.0 -71.7 -42.8 -56.15 -40.25 -41.1 -41.0 -32.8 -37.65 -23.05 -43.35 -23.8 -49.0 -27.2 -48.15 -29.85 -48.6 -34.1 L-49.05 -37.1 Q-63.8 -61.85 -56.5 -85.4 M-30.95 -14.7 L-27.4 1.65 Q-26.9 7.25 -29.4 10.85 L-29.6 11.1 -29.6 11.15 Q-31.55 14.9 -29.6 30.45 -32.25 29.45 -34.95 20.0 L-34.95 26.25 Q-40.8 19.8 -44.1 11.55 -49.95 2.0 -50.65 -5.55 L-51.3 -7.55 Q-42.35 4.9 -38.0 5.85 -36.4 -1.95 -32.35 -8.55 -30.55 -11.5 -30.95 -14.7" fill="#f6f7f8" fill-rule="evenodd" stroke="none"/>
    <path d="M-37.65 -23.05 L-35.35 -22.9 Q-31.8 -18.95 -31.05 -15.35 L-30.95 -14.7 Q-40.5 -13.95 -48.3 -21.05 -52.55 -24.25 -52.9 -29.9 -50.95 -28.4 -49.0 -27.2 -43.35 -23.8 -37.65 -23.05" fill="#7886ab" fill-rule="evenodd" stroke="none"/>
    <path d="M-37.65 83.35 Q-34.5 84.7 -32.0 89.0 -30.1 87.9 -32.0 86.1 -28.05 86.05 -26.0 89.6 -25.05 86.3 -22.2 85.3 -19.25 85.0 -14.25 89.15 -15.3 84.85 -14.25 83.3 -11.55 87.45 -6.35 88.1 -3.3 87.65 -0.3 90.35 2.6 88.9 3.2 85.75 3.75 88.4 7.5 89.6 10.3 88.75 10.65 86.25 11.25 88.9 15.45 89.3 16.75 86.5 19.25 86.55 18.45 88.45 23.4 90.35 L25.55 88.35 Q25.8 91.15 28.55 91.0 28.55 87.35 31.2 87.15 33.6 85.95 36.0 89.95 35.85 86.8 38.85 86.25 40.1 88.95 43.8 88.85 46.6 88.2 47.15 84.85 41.15 76.15 39.55 69.8 53.35 73.65 58.95 92.45 53.9 90.2 47.1 92.45 L44.75 94.0 Q42.15 95.4 38.9 95.95 34.95 96.65 30.05 96.05 L22.8 97.5 Q9.8 99.5 2.2 96.6 -11.05 101.0 -31.45 94.0 -35.45 92.0 -37.65 83.35 M-52.9 -29.9 Q-52.55 -24.25 -48.3 -21.05 -40.5 -13.95 -30.95 -14.7 -30.55 -11.5 -32.35 -8.55 -36.4 -1.95 -38.0 5.85 -42.35 4.9 -51.3 -7.55 -54.55 -18.45 -52.9 -29.9 M44.75 94.0 Q48.0 90.5 47.15 84.85 48.0 90.5 44.75 94.0 M31.2 87.15 Q33.65 94.9 30.4 95.95 L30.05 96.05 30.4 95.95 Q33.65 94.9 31.2 87.15 M2.2 96.6 Q-4.3 94.15 -6.35 88.1 -4.3 94.15 2.2 96.6" fill="#4d6084" fill-rule="evenodd" stroke="none"/>
    <path d="M-11.25 10.6 Q-16.55 4.3 -20.5 -7.55 -19.45 -10.65 -19.4 -14.15 -15.95 -1.25 -11.25 10.6" fill="#bbc1da" fill-rule="evenodd" stroke="none"/>
    <path d="M-37.65 -23.05 L-35.35 -22.9 Q-31.8 -18.95 -31.05 -15.35 M-29.6 11.1 L-29.6 11.15 Q-31.55 14.9 -29.6 30.45 -32.25 29.45 -34.95 20.0 L-34.95 26.25 Q-40.8 19.8 -44.1 11.55 -38.75 34.35 -39.25 54.9 -39.4 60.8 -40.05 66.55 -39.35 76.85 -37.65 83.35 -34.5 84.7 -32.0 89.0 -30.1 87.9 -32.0 86.1 -28.05 86.05 -26.0 89.6 -25.05 86.3 -22.2 85.3 -19.25 85.0 -14.25 89.15 -15.3 84.85 -14.25 83.3 -11.55 87.45 -6.35 88.1 -3.3 87.65 -0.3 90.35 2.6 88.9 3.2 85.75 3.75 88.4 7.5 89.6 10.3 88.75 10.65 86.25 11.25 88.9 15.45 89.3 16.75 86.5 19.25 86.55 18.45 88.45 23.4 90.35 L25.55 88.35 Q25.8 91.15 28.55 91.0 28.55 87.35 31.2 87.15 33.6 85.95 36.0 89.95 35.85 86.8 38.85 86.25 40.1 88.95 43.8 88.85 46.6 88.2 47.15 84.85 41.15 76.15 39.55 69.8 31.85 54.7 17.95 61.05 L13.2 54.9 Q-1.55 35.05 -11.1 10.9 M-19.4 -14.15 Q-19.3 -24.1 -22.1 -38.2 -22.1 -64.15 -27.55 -85.4 -57.5 -111.05 -56.5 -85.4 -63.8 -61.85 -49.05 -37.1 L-48.6 -34.1 Q-48.15 -29.85 -49.0 -27.2 -43.35 -23.8 -37.65 -23.05 M-30.95 -14.7 Q-30.55 -11.5 -32.35 -8.55 -36.4 -1.95 -38.0 5.85 -42.35 4.9 -51.3 -7.55 L-50.65 -5.55 Q-49.95 2.0 -44.1 11.55 M-51.3 -7.55 Q-54.55 -18.45 -52.9 -29.9 -50.95 -28.4 -49.0 -27.2 M39.55 69.8 Q53.35 73.65 58.95 92.45 53.9 90.2 47.1 92.45 L44.75 94.0 Q42.15 95.4 38.9 95.95 34.95 96.65 30.05 96.05 L22.8 97.5 Q9.8 99.5 2.2 96.6 -11.05 101.0 -31.45 94.0 -35.45 92.0 -37.65 83.35 M30.05 96.05 L30.4 95.95 Q33.65 94.9 31.2 87.15 M47.15 84.85 Q48.0 90.5 44.75 94.0 M-19.4 -14.15 Q-15.95 -1.25 -11.25 10.6 M-6.35 88.1 Q-4.3 94.15 2.2 96.6" fill="none" stroke="#333333" stroke-linecap="round" stroke-linejoin="round" stroke-width="1.2000000000000002"/>
    <path d="M-11.1 10.9 L-11.25 10.6" fill="none" stroke="#333333" stroke-linecap="round" stroke-linejoin="round" stroke-width="0.05"/>
    <path d="M17.65 61.55 L17.6 61.55 Q17.05 61.2 17.4 60.7 L17.75 60.45 18.2 60.5 18.35 60.6 18.8 60.85 18.9 60.95 19.05 61.05 19.4 61.3 20.5 62.4 21.6 63.95 22.8 66.4 24.05 70.75 24.45 72.9 24.5 73.5 24.45 73.6 Q24.35 73.7 24.35 73.55 L23.95 71.8 22.7 67.9 21.55 65.5 20.85 64.4 19.75 63.1 19.4 62.75 18.4 62.0 18.3 61.9 18.15 61.85 17.8 61.6 17.65 61.55 M-29.1 11.45 L-29.1 11.5 Q-29.5 12.0 -29.95 11.65 -30.4 11.25 -30.05 10.8 L-29.4 9.8 -29.2 9.55 -29.05 9.25 -29.0 9.2 -28.95 9.1 -28.85 8.95 -28.75 8.75 -28.7 8.55 -28.5 8.2 -28.35 7.8 -28.25 7.6 -28.15 7.15 -28.05 6.95 -27.5 3.95 -27.45 1.65 -27.4 1.55 Q-27.3 1.45 -27.3 1.6 L-27.2 2.05 -27.2 2.25 -27.15 2.55 -27.15 3.0 -27.1 3.2 -27.15 5.7 -27.35 7.15 -27.55 8.05 -27.8 8.95 -28.0 9.35 -28.05 9.5 -28.85 11.1 -29.1 11.45 M-19.95 -14.15 L-19.95 -14.25 Q-19.95 -14.85 -19.3 -14.75 -19.05 -14.75 -18.9 -14.55 L-18.8 -14.1 -18.8 -13.65 -18.85 -13.5 -18.95 -12.8 -18.95 -12.55 -19.1 -11.65 -19.2 -11.35 -19.3 -10.7 -19.5 -10.1 -19.55 -9.8 -19.75 -9.25 -19.8 -8.95 -20.0 -8.5 -20.05 -8.25 -20.15 -8.05 -20.25 -7.75 -20.4 -7.5 Q-20.4 -7.35 -20.5 -7.45 L-20.55 -7.55 -20.05 -10.2 -20.05 -10.55 -20.0 -10.85 -20.0 -11.15 -19.95 -11.45 -19.95 -14.15 M-40.3 -41.1 L-40.2 -41.15 -40.15 -41.05 -40.2 -38.2 -40.15 -37.9 -40.15 -36.85 -40.05 -36.05 -40.05 -35.7 -39.95 -34.9 -39.95 -34.7 -39.9 -34.5 -39.55 -31.95 -37.9 -25.6 -37.05 -23.2 Q-36.9 -22.65 -37.45 -22.45 -38.05 -22.25 -38.2 -22.85 L-38.4 -23.6 -38.85 -25.0 -38.9 -25.3 -39.0 -25.6 -40.15 -31.2 -40.15 -31.45 -40.45 -34.45 -40.5 -34.65 -40.5 -35.25 -40.55 -35.65 -40.5 -39.4 -40.3 -41.1" fill="#333333" fill-rule="evenodd" stroke="none"/>
  </g>
</svg>
