<?xml version="1.0" encoding="UTF-8" standalone="no"?>
<svg xmlns:xlink="http://www.w3.org/1999/xlink" height="192.0px" width="198.15px" xmlns="http://www.w3.org/2000/svg">
  <g transform="matrix(1.0, 0.0, 0.0, 1.0, 99.05, 94.1)">
    <path d="M39.6 -82.35 Q35.35 -87.1 54.65 -80.5 L55.7 -80.25 Q91.25 -70.7 90.35 -18.15 88.0 30.4 14.4 8.0 41.45 17.3 45.25 26.7 55.1 51.05 73.75 88.75 66.15 87.45 57.15 80.6 L48.85 67.1 10.35 28.65 9.45 27.65 Q2.6 20.1 -2.2 12.8 L-3.75 15.95 Q-6.55 12.6 -6.4 9.95 -6.3 7.3 -6.55 6.3 -6.8 5.25 -6.15 0.6 L-10.0 7.4 -10.0 1.65 Q-11.1 -13.9 -8.75 -29.8 -12.35 -35.25 -7.65 -43.85 -9.65 -43.6 -12.4 -41.75 L-12.45 -44.15 -13.7 -43.95 Q-11.2 -48.95 -6.25 -52.9 -8.35 -54.25 -10.8 -54.05 -11.65 -53.9 -12.45 -54.55 -8.25 -58.15 -1.95 -61.1 -4.9 -62.4 -8.9 -61.85 L-14.25 -61.1 -4.1 -70.0 Q2.2 -75.2 8.5 -77.7 L9.45 -78.05 Q13.25 -79.5 17.75 -80.4 L18.7 -80.6 17.75 -81.2 Q14.1 -83.6 17.75 -83.45 L24.15 -82.4 27.05 -81.75 Q26.4 -83.8 23.55 -86.2 33.3 -82.0 39.6 -82.35 M-27.55 -68.2 L-23.95 -56.7 Q-22.9 -55.2 -21.75 -54.7 -23.1 -45.8 -21.55 -41.7 -28.65 -23.75 -22.55 -5.55 -37.9 15.75 -59.95 5.4 L-60.95 5.05 Q-70.65 2.7 -79.35 -2.3 -66.65 6.1 -64.6 17.85 -64.45 31.6 -59.95 60.0 -64.0 73.6 -85.7 84.95 -88.15 78.5 -90.2 68.8 -102.1 29.35 -96.85 6.45 -100.3 -64.4 -42.5 -78.3 L-40.0 -78.9 -27.55 -68.2" fill="#f6f7f8" fill-rule="evenodd" stroke="none"/>
    <path d="M18.7 -80.6 L17.75 -80.4 Q13.25 -79.5 9.45 -78.05 L8.5 -77.7 Q2.2 -75.2 -4.1 -70.0 L-14.25 -61.1 -8.9 -61.85 Q-4.9 -62.4 -1.95 -61.1 -8.25 -58.15 -12.45 -54.55 L-16.15 -54.5 -16.7 -54.45 -19.3 -54.8 -21.75 -54.7 Q-22.9 -55.2 -23.95 -56.7 L-27.55 -68.2 -26.65 -67.2 Q-19.25 -60.4 -7.65 -67.95 -4.2 -71.0 -0.85 -73.3 L0.1 -73.95 Q10.05 -80.7 18.7 -80.6" fill="#bbc1da" fill-rule="evenodd" stroke="none"/>
    <path d="M18.7 -80.6 Q10.05 -80.7 0.1 -73.95 -3.2 -78.65 -5.1 -82.75 -7.0 -86.85 -27.15 -92.3 -16.5 -96.35 -8.05 -91.15 0.4 -85.7 18.7 -80.6" fill="#7886ab" fill-rule="evenodd" stroke="none"/>
    <path d="M-12.45 -54.55 Q-11.65 -53.9 -10.8 -54.05 -8.35 -54.25 -6.25 -52.9 -11.2 -48.95 -13.7 -43.95 L-12.45 -44.15 -12.4 -41.75 Q-9.65 -43.6 -7.65 -43.85 -12.35 -35.25 -8.75 -29.8 -11.1 -13.9 -10.0 1.65 L-10.6 2.6 Q-14.1 7.15 -20.25 2.05 -20.8 5.95 -21.7 9.5 L-21.75 9.65 -21.8 9.95 Q-15.25 6.0 -23.1 14.1 -19.25 14.65 -24.45 17.6 -26.7 22.95 -30.05 27.4 -26.45 46.1 -46.8 68.5 -57.25 94.75 -70.7 97.05 -79.5 101.25 -85.7 84.95 -64.0 73.6 -59.95 60.0 -64.45 31.6 -64.6 17.85 -66.65 6.1 -79.35 -2.3 -70.65 2.7 -60.95 5.05 L-59.95 5.4 Q-37.9 15.75 -22.55 -5.55 -28.65 -23.75 -21.55 -41.7 -23.1 -45.8 -21.75 -54.7 L-19.3 -54.8 -16.7 -54.45 -16.15 -54.5 -12.45 -54.55 -14.45 -52.9 -10.8 -54.05 -14.45 -52.9 -12.45 -54.55 M73.75 88.75 Q55.1 51.05 45.25 26.7 41.45 17.3 14.4 8.0 88.0 30.4 90.35 -18.15 L92.65 -9.3 92.95 -8.15 93.5 -6.1 93.75 -5.05 93.95 -4.3 94.0 -4.0 Q102.6 30.8 94.75 65.05 93.0 73.2 89.05 84.45 82.3 90.15 73.75 88.75 M-12.4 -41.75 L-15.5 -40.4 -13.7 -43.95 -15.5 -40.4 -12.4 -41.75" fill="#dde2ed" fill-rule="evenodd" stroke="none"/>
    <path d="M-27.15 -92.3 Q-7.0 -86.85 -5.1 -82.75 -3.2 -78.65 0.1 -73.95 L-0.85 -73.3 Q-4.2 -71.0 -7.65 -67.95 -19.25 -60.4 -26.65 -67.2 L-27.55 -68.2 -40.0 -78.9 -43.9 -82.25 -44.0 -82.35 -44.05 -82.35 Q-48.6 -85.75 -47.15 -89.95 L-27.15 -92.3" fill="#4d6084" fill-rule="evenodd" stroke="none"/>
    <path d="M90.35 -18.15 Q91.25 -70.7 55.7 -80.25 L54.65 -80.5 Q35.35 -87.1 39.6 -82.35 M27.05 -81.75 L24.15 -82.4 17.75 -83.45 Q14.1 -83.6 17.75 -81.2 L18.7 -80.6 Q0.4 -85.7 -8.05 -91.15 M90.35 -18.15 L92.65 -9.3 92.95 -8.15 93.5 -6.1 93.75 -5.05 93.95 -4.3 94.0 -4.0 Q102.6 30.8 94.75 65.05 93.0 73.2 89.05 84.45 M-26.65 -67.2 L-27.55 -68.2 -23.95 -56.7 Q-22.9 -55.2 -21.75 -54.7 M-40.0 -78.9 L-27.55 -68.2 M-43.9 -82.25 L-40.0 -78.9 -42.5 -78.3 Q-100.3 -64.4 -96.85 6.45 -102.1 29.35 -90.2 68.8 M-21.75 9.65 L-21.8 9.95 Q-15.25 6.0 -23.1 14.1 -19.25 14.65 -24.45 17.6 -26.7 22.95 -30.05 27.4 -26.45 46.1 -46.8 68.5 -57.25 94.75 -70.7 97.05" fill="none" stroke="#333333" stroke-linecap="round" stroke-linejoin="round" stroke-width="1.2000000000000002"/>
    <path d="M39.6 -82.35 Q33.3 -82.0 23.55 -86.2 26.4 -83.8 27.05 -81.75 M-4.1 -70.0 L-14.25 -61.1 -8.9 -61.85 Q-4.9 -62.4 -1.95 -61.1 -8.25 -58.15 -12.45 -54.55 L-14.45 -52.9 -10.8 -54.05 Q-8.35 -54.25 -6.25 -52.9 -11.2 -48.95 -13.7 -43.95 L-15.5 -40.4 -12.4 -41.75 Q-9.65 -43.6 -7.65 -43.85 -12.35 -35.25 -8.75 -29.8 M-10.0 7.4 L-6.15 0.6 Q-6.8 5.25 -6.55 6.3 -6.3 7.3 -6.4 9.95 -6.55 12.6 -3.75 15.95 L-2.2 12.8 Q2.6 20.1 9.45 27.65 L10.35 28.65 48.85 67.1 57.15 80.6 M-21.55 -41.7 Q-23.1 -45.8 -21.75 -54.7" fill="none" stroke="#333333" stroke-linecap="round" stroke-linejoin="miter-clip" stroke-miterlimit="3.0" stroke-width="1.2000000000000002"/>
    <path d="M-30.5 27.0 Q-30.4 26.8 -30.15 26.75 L-29.7 26.8 Q-29.15 27.15 -29.5 27.65 L-29.6 27.85 -29.7 27.95 -29.8 28.1 -29.9 28.3 -30.05 28.45 -30.35 28.8 -30.35 28.85 -30.7 29.2 -31.5 29.8 -31.6 29.85 -32.1 30.15 -32.35 30.25 -32.5 30.35 -32.6 30.4 -32.85 30.45 -33.05 30.55 -33.5 30.7 -33.6 30.7 -33.7 30.75 -33.85 30.75 -34.15 30.85 -34.4 30.85 -34.5 30.8 -34.45 30.7 -33.95 30.5 -33.8 30.4 -33.7 30.4 -33.05 30.05 -32.85 29.9 -32.65 29.8 -32.2 29.5 -32.05 29.3 -31.95 29.25 -31.65 28.95 -31.5 28.75 -31.35 28.6 -31.2 28.4 -31.15 28.3 -31.15 28.25 -31.1 28.2 -30.8 27.7 -30.75 27.6 -30.7 27.45 -30.7 27.4 -30.65 27.35 -30.5 27.0 M-10.1 1.65 L-10.0 1.55 -9.9 1.65 -9.4 7.4 -9.4 7.5 Q-9.4 8.05 -10.05 8.05 -10.6 7.95 -10.6 7.4 L-10.1 1.65 M-22.6 -5.55 L-22.55 -5.6 -22.45 -5.5 -22.35 -5.25 -22.35 -5.15 -22.3 -5.0 -21.6 -1.3 -21.5 -1.1 -21.4 -0.6 -20.6 1.0 -20.35 1.4 -19.9 1.9 -19.9 2.55 -19.95 2.7 -19.95 2.85 -20.0 3.15 -20.05 3.25 -20.15 3.2 -20.3 2.9 -20.3 2.85 -20.4 2.65 -20.5 2.3 -20.55 2.25 -20.65 2.15 -20.8 2.1 -21.0 1.9 -21.15 1.8 -21.65 1.3 -21.7 1.2 -22.05 0.7 -22.1 0.6 -22.15 0.45 -22.25 0.35 -22.3 0.2 -22.5 -0.25 -22.75 -1.05 -22.9 -1.85 -22.95 -2.9 -22.7 -5.25 -22.6 -5.55 M-8.4 -29.25 L-8.5 -29.2 Q-9.05 -28.95 -9.3 -29.45 -9.6 -30.05 -9.05 -30.3 L-8.85 -30.35 -8.7 -30.45 -8.6 -30.55 -8.45 -30.6 -8.35 -30.7 -8.2 -30.8 -7.65 -31.3 -7.1 -32.0 -6.8 -32.5 -6.75 -32.7 -6.7 -32.75 -6.65 -32.85 -6.6 -33.0 -6.45 -33.3 -6.4 -33.5 -6.3 -33.7 -6.2 -33.75 -6.15 -33.65 -6.15 -33.45 -6.25 -32.9 -6.3 -32.75 -6.3 -32.55 -6.4 -32.35 -6.45 -32.15 -6.75 -31.3 -7.5 -30.1 -8.05 -29.55 -8.25 -29.4 -8.4 -29.25 M-19.85 -39.45 L-19.85 -39.35 -20.0 -39.3 -20.1 -39.35 -20.2 -39.45 -20.75 -39.85 -21.35 -40.45 -21.8 -41.05 -21.95 -41.2 -22.0 -41.35 -22.1 -41.45 -22.15 -41.65 -22.1 -42.1 -21.7 -42.35 Q-21.1 -42.5 -20.95 -41.9 L-20.95 -41.8 -20.75 -41.1 -20.25 -40.0 -20.0 -39.65 -19.95 -39.55 -19.85 -39.45 M-46.85 -90.0 L-46.75 -90.05 -46.7 -89.95 -46.9 -88.9 -46.9 -87.6 -46.85 -87.45 -46.85 -87.2 -46.8 -87.05 -46.75 -86.8 -46.6 -86.3 -46.4 -85.85 -46.0 -85.15 -45.4 -84.35 -45.2 -84.15 -45.05 -83.95 -44.85 -83.8 -44.45 -83.4 -43.75 -82.85 -43.6 -82.75 -43.55 -82.75 -43.2 -82.4 Q-42.85 -81.95 -43.25 -81.55 L-44.1 -81.6 -45.2 -82.7 -46.1 -83.8 -46.55 -84.55 -46.65 -84.8 -46.8 -85.05 -47.1 -85.85 -47.15 -86.15 -47.3 -86.7 -47.3 -87.0 -47.35 -87.1 -47.35 -87.85 -47.15 -89.2 -46.85 -90.0 M-19.3 -54.85 L-19.2 -54.8 -19.25 -54.7 -19.35 -54.6 -19.45 -54.55 -19.6 -54.45 -19.75 -54.4 -19.85 -54.35 -20.0 -54.3 -20.2 -54.2 -20.35 -54.15 -20.45 -54.15 -20.6 -54.1 -20.75 -54.1 -20.85 -54.05 -21.65 -54.05 -21.8 -54.1 -21.95 -54.1 -22.2 -54.2 Q-22.7 -54.6 -22.35 -55.05 -22.05 -55.5 -21.5 -55.25 L-21.45 -55.2 -21.35 -55.15 -21.25 -55.05 -21.1 -55.0 -21.0 -54.95 -20.9 -54.95 -20.7 -54.85 -20.5 -54.85 -20.4 -54.8 -19.7 -54.8 -19.55 -54.85 -19.3 -54.85 M9.4 -78.1 L9.5 -78.05 9.45 -77.95 9.3 -77.85 8.85 -77.7 8.65 -77.6 8.5 -77.55 7.2 -76.95 6.95 -76.8 6.7 -76.7 4.95 -75.8 4.65 -75.6 4.35 -75.45 2.2 -74.1 1.9 -73.85 0.1 -72.65 -3.7 -69.5 -3.75 -69.5 Q-4.2 -69.15 -4.55 -69.6 -4.9 -70.05 -4.45 -70.45 L-3.6 -71.05 -3.3 -71.35 0.35 -73.85 0.55 -73.95 0.85 -74.15 3.45 -75.6 3.6 -75.7 4.1 -75.9 4.4 -76.1 8.0 -77.65 9.2 -78.05 9.4 -78.1 M39.4 -81.75 L39.3 -81.8 Q38.75 -82.0 38.95 -82.55 39.2 -83.1 39.75 -82.9 L45.4 -80.65 45.45 -80.55 Q45.45 -80.4 45.35 -80.5 L39.4 -81.75" fill="#333333" fill-rule="evenodd" stroke="none"/>
  </g>
</svg>
