<?xml version="1.0" encoding="UTF-8" standalone="no"?>
<svg xmlns:xlink="http://www.w3.org/1999/xlink" height="25.65px" width="13.4px" xmlns="http://www.w3.org/2000/svg">
  <g transform="matrix(1.0, 0.0, 0.0, 1.0, 1.25, 0.35)">
    <path d="M1.25 1.6 L2.6 -0.1 3.05 -0.3 5.2 -0.25 7.55 -0.1 Q8.65 0.1 9.55 0.6 10.9 2.05 11.7 3.6 9.0 6.75 8.95 14.45 L11.6 12.95 Q10.05 16.3 9.45 21.05 10.35 21.0 11.65 19.45 L10.2 23.0 10.2 23.05 8.9 24.7 Q8.5 25.25 6.8 25.1 L7.1 25.3 6.05 24.5 5.9 24.4 5.85 24.2 5.8 24.15 5.8 24.05 5.75 23.8 Q4.65 12.6 7.4 2.55 L7.35 2.5 6.0 3.8 4.2 4.0 3.15 2.6 2.95 2.6 2.95 2.75 2.85 2.75 2.95 2.85 3.05 3.1 3.1 3.1 Q3.7 8.1 2.75 13.25 2.45 14.0 2.45 16.75 L1.65 20.65 1.55 20.95 1.2 21.65 0.65 20.2 Q-0.2 10.5 1.25 1.6" fill="url(#gradient0)" fill-rule="evenodd" stroke="none"/>
    <path d="M5.9 24.4 L5.95 24.55 6.25 24.8 5.9 24.55 5.8 24.45 5.45 24.15 Q5.45 23.15 3.8 20.8 2.25 18.55 2.45 16.75 2.45 14.0 2.75 13.25 3.3 10.9 4.1 8.65 L4.65 6.5 4.35 5.5 3.55 4.1 3.1 3.1 3.05 3.1 2.95 2.85 2.85 2.75 2.95 2.75 2.95 2.6 3.15 2.6 4.2 4.0 4.15 4.05 5.0 5.5 5.0 5.4 6.0 3.8 7.35 2.5 7.4 2.55 Q6.4 3.8 5.4 8.65 4.4 13.45 4.4 17.25 4.4 21.05 5.8 24.15 L5.85 24.2 5.9 24.4 M3.15 24.55 Q-1.25 24.8 -1.25 10.0 -1.25 5.9 -0.45 3.85 0.05 2.5 1.25 1.6 0.45 2.45 0.0 4.4 -0.5 6.35 -0.55 9.1 L-0.3 15.4 Q-0.05 18.05 0.65 20.2 L1.2 21.65 Q1.75 23.45 2.3 23.85 L3.15 24.55 M5.5 6.0 Q3.3 12.05 2.95 15.35 2.6 18.65 4.0 19.75 3.4 15.8 5.5 6.0" fill="#333333" fill-rule="evenodd" stroke="none"/>
    <path d="M5.9 24.55 Q4.4 25.05 3.15 24.55 L2.3 23.85 Q1.75 23.45 1.2 21.65 L1.55 20.95 1.65 20.65 2.45 16.75 Q2.25 18.55 3.8 20.8 5.45 23.15 5.45 24.15 L5.8 24.45 5.9 24.55 M2.75 13.25 Q3.7 8.1 3.1 3.1 L3.55 4.1 4.35 5.5 4.65 6.5 4.1 8.65 Q3.3 10.9 2.75 13.25 M4.2 4.0 L6.0 3.8 5.0 5.4 5.0 5.5 4.15 4.05 4.2 4.0" fill="#6c789a" fill-rule="evenodd" stroke="none"/>
    <path d="M1.25 1.6 Q-0.2 10.5 0.65 20.2 -0.05 18.05 -0.3 15.4 L-0.55 9.1 Q-0.5 6.35 0.0 4.4 0.45 2.45 1.25 1.6 M7.4 2.55 Q4.65 12.6 5.75 23.8 L5.8 24.05 5.8 24.15 Q4.4 21.05 4.4 17.25 4.4 13.45 5.4 8.65 6.4 3.8 7.4 2.55" fill="#93a4d2" fill-rule="evenodd" stroke="none"/>
    <path d="M5.5 6.0 Q3.4 15.8 4.0 19.75 2.6 18.65 2.95 15.35 3.3 12.05 5.5 6.0" fill="url(#gradient1)" fill-rule="evenodd" stroke="none"/>
    <path d="M8.95 14.45 L11.6 12.95 Q10.05 16.3 9.45 21.05 10.35 21.0 11.65 19.45" fill="none" stroke="#333333" stroke-linecap="round" stroke-linejoin="miter-clip" stroke-miterlimit="3.0" stroke-width="1.0"/>
    <path d="M11.15 19.25 L11.2 19.15 Q11.5 18.7 11.9 18.95 12.3 19.1 12.1 19.6 L10.25 23.0 10.15 23.05 10.1 22.95 11.15 19.25 M11.6 3.5 L11.75 3.5 11.75 3.65 11.15 4.5 11.0 4.8 10.9 4.95 10.85 5.15 10.65 5.5 10.05 7.3 9.95 7.8 9.9 7.9 9.9 8.05 9.65 9.35 9.6 9.85 9.55 10.1 9.55 10.35 9.4 14.45 Q9.4 14.95 8.9 14.95 8.35 14.95 8.45 14.4 L8.45 13.95 8.85 10.25 8.85 10.0 9.35 7.9 9.4 7.8 9.4 7.65 9.75 6.65 10.65 4.8 11.6 3.5" fill="#333333" fill-rule="evenodd" stroke="none"/>
  </g>
  <defs>
    <radialGradient cx="0" cy="0" gradientTransform="matrix(0.0468, 0.0062, -0.0062, 0.0468, 3.55, 12.6)" gradientUnits="userSpaceOnUse" id="gradient0" r="819.2" spreadMethod="pad">
      <stop offset="0.2980392156862745" stop-color="#7886ab"/>
      <stop offset="0.34901960784313724" stop-color="#dde2ed"/>
    </radialGradient>
    <radialGradient cx="0" cy="0" gradientTransform="matrix(0.0024, 3.0E-4, -0.0013, 0.0088, 4.65, 14.1)" gradientUnits="userSpaceOnUse" id="gradient1" r="819.2" spreadMethod="pad">
      <stop offset="0.2980392156862745" stop-color="#db7878"/>
      <stop offset="0.6313725490196078" stop-color="#794242"/>
    </radialGradient>
  </defs>
</svg>
