<?xml version="1.0" encoding="UTF-8" standalone="no"?>
<svg xmlns:xlink="http://www.w3.org/1999/xlink" height="28.8px" width="11.3px" xmlns="http://www.w3.org/2000/svg">
  <g transform="matrix(1.0, 0.0, 0.0, 1.0, 1.65, 0.4)">
    <path d="M7.95 0.45 Q9.75 0.5 9.05 2.7 L8.45 8.0 Q8.15 10.6 8.1 19.0 L8.5 22.6 8.45 24.5 Q9.4 28.25 7.35 28.0 3.45 25.8 2.65 21.7 L1.7 18.25 Q-0.5 8.75 -0.55 6.8 L-0.7 2.55 Q-2.1 -0.1 0.0 0.0 0.75 0.3 1.55 0.9 L1.95 1.2 1.9 1.25 2.25 1.4 3.0 1.7 3.25 1.9 1.65 1.6 1.7 2.05 3.55 5.45 3.4 5.75 3.1 7.5 3.05 7.7 3.05 7.9 2.95 8.8 2.9 11.6 2.95 11.8 3.4 16.55 3.9 19.1 3.95 19.2 4.05 19.55 4.2 19.85 4.95 21.7 Q5.25 22.25 5.75 22.0 6.2 21.8 6.1 21.35 L5.7 19.05 5.6 18.75 5.65 18.85 5.45 16.3 5.45 15.9 4.75 5.5 5.1 4.45 Q5.5 3.25 6.1 2.65 L6.25 2.2 6.15 1.9 5.85 2.1 6.05 1.8 5.95 1.7 7.9 0.55 7.95 0.45 M1.1 1.95 L1.05 1.85 1.05 1.8 1.0 1.7 1.0 1.65 0.9 1.55 0.9 1.5 0.85 1.5 0.85 1.45 0.65 1.3 0.35 1.15 0.1 1.15 0.05 1.15 -0.15 1.15 -0.2 1.2 -0.3 1.35 -0.25 1.35 -0.25 1.4 -0.2 1.45 -0.2 1.5 -0.15 1.55 -0.15 1.6 -0.1 1.7 -0.05 1.75 0.0 1.75 0.0 1.8 0.2 1.95 0.45 2.05 0.45 2.1 0.7 2.1 0.75 2.15 0.8 2.1 0.95 2.1 1.1 1.95 M7.15 20.75 L6.15 8.2 5.8 6.95 Q5.8 6.8 5.7 6.9 5.55 6.9 5.65 7.0 L6.05 15.2 6.1 15.5 6.1 15.85 6.85 20.2 6.85 20.35 6.9 20.45 7.0 20.8 7.1 20.85 7.15 20.75 M4.55 23.1 L4.55 23.25 4.65 23.35 4.85 23.75 5.05 24.0 5.2 24.3 5.3 24.45 5.35 24.55 5.4 24.6 5.85 25.2 5.9 25.25 5.9 25.3 5.95 25.3 5.95 25.35 6.1 25.5 6.3 25.75 6.75 26.15 7.05 26.3 7.1 26.35 7.25 26.3 7.25 26.15 7.15 26.05 7.1 25.85 7.05 25.75 6.95 25.65 6.85 25.35 6.55 24.9 6.55 24.85 6.5 24.75 6.25 24.45 6.05 24.1 5.95 24.05 5.15 23.3 4.75 23.1 4.7 23.05 4.55 23.1" fill="#7886ab" fill-rule="evenodd" stroke="none"/>
    <path d="M5.95 1.7 L6.05 1.8 5.85 2.1 6.15 1.9 6.25 2.2 6.1 2.65 Q5.5 3.25 5.1 4.45 L4.75 5.5 5.45 15.9 5.45 16.3 5.65 18.85 5.6 18.75 5.7 19.05 6.1 21.35 Q6.2 21.8 5.75 22.0 5.25 22.25 4.95 21.7 L4.2 19.85 4.05 19.55 3.95 19.2 3.9 19.1 3.4 16.55 2.95 11.8 2.9 11.6 2.95 8.8 3.05 7.9 3.05 7.7 3.1 7.5 3.4 5.75 3.55 5.45 1.7 2.05 1.65 1.6 3.25 1.9 4.2 2.1 4.25 2.1 4.9 2.3 5.2 2.35 5.95 1.7 M4.5 3.1 L5.2 2.4 5.2 2.35 5.2 2.4 4.5 3.1" fill="url(#gradient0)" fill-rule="evenodd" stroke="none"/>
    <path d="M2.25 1.4 L1.9 1.25 1.95 1.2 2.4 1.2 2.75 1.45 2.75 1.55 2.85 1.6 2.25 1.4 1.95 1.2 2.25 1.4 M5.2 1.8 L5.25 1.8 5.65 1.6 5.95 1.7 5.2 2.35 4.9 2.3 4.9 2.25 5.2 1.8" fill="#be5250" fill-rule="evenodd" stroke="none"/>
    <path d="M3.25 1.9 L3.0 1.7 2.25 1.4 2.85 1.6 4.35 2.1 4.4 2.1 5.2 1.8 4.9 2.25 4.9 2.3 4.25 2.1 4.2 2.1 3.25 1.9" fill="#e79e98" fill-rule="evenodd" stroke="none"/>
    <path d="M1.1 1.95 L0.95 2.1 0.8 2.1 0.75 2.15 0.7 2.1 0.45 2.1 0.45 2.05 0.2 1.95 0.0 1.8 0.0 1.75 -0.05 1.75 -0.1 1.7 -0.15 1.6 -0.15 1.55 -0.2 1.5 -0.2 1.45 -0.25 1.4 -0.25 1.35 -0.3 1.35 -0.2 1.2 -0.15 1.15 0.05 1.15 0.1 1.15 0.35 1.15 0.65 1.3 0.85 1.45 0.85 1.5 0.9 1.5 0.9 1.55 1.0 1.65 1.0 1.7 1.05 1.8 1.05 1.85 1.1 1.95 M4.55 23.1 L4.7 23.05 4.75 23.1 5.15 23.3 5.95 24.05 6.05 24.1 6.25 24.45 6.5 24.75 6.55 24.85 6.55 24.9 6.85 25.35 6.95 25.65 7.05 25.75 7.1 25.85 7.15 26.05 7.25 26.15 7.25 26.3 7.1 26.35 7.05 26.3 6.75 26.15 6.3 25.75 6.1 25.5 5.95 25.35 5.95 25.3 5.9 25.3 5.9 25.25 5.85 25.2 5.4 24.6 5.35 24.55 5.3 24.45 5.2 24.3 5.05 24.0 4.85 23.75 4.65 23.35 4.55 23.25 4.55 23.1 M7.15 20.75 L7.1 20.85 7.0 20.8 6.9 20.45 6.85 20.35 6.85 20.2 6.1 15.85 6.1 15.5 6.05 15.2 5.65 7.0 Q5.55 6.9 5.7 6.9 5.8 6.8 5.8 6.95 L6.15 8.2 7.15 20.75" fill="#93a4d2" fill-rule="evenodd" stroke="none"/>
    <path d="M1.95 1.2 L1.55 0.9 Q0.75 0.3 0.0 0.0 -2.1 -0.1 -0.7 2.55 L-0.55 6.8 Q-0.5 8.75 1.7 18.25 L2.65 21.7 Q3.45 25.8 7.35 28.0 9.4 28.25 8.45 24.5 L8.5 22.6 8.1 19.0 Q8.15 10.6 8.45 8.0 L9.05 2.7 Q9.75 0.5 7.95 0.45 M7.9 0.55 L5.95 1.7 5.2 2.35 5.2 2.4 4.5 3.1 M3.25 1.9 L3.0 1.7 2.25 1.4 1.95 1.2 M4.9 2.3 L4.25 2.1 4.2 2.1 3.25 1.9 M4.9 2.3 L5.2 2.35" fill="none" stroke="#333333" stroke-linecap="round" stroke-linejoin="miter-clip" stroke-miterlimit="3.0" stroke-width="0.8"/>
    <path d="M8.75 24.3 L8.8 24.35 Q8.95 24.65 8.6 24.85 8.2 25.05 8.1 24.65 L6.9 22.2 6.95 21.95 Q7.15 21.85 7.25 22.05 L8.75 24.3" fill="#333333" fill-rule="evenodd" stroke="none"/>
  </g>
  <defs>
    <radialGradient cx="0" cy="0" gradientTransform="matrix(0.0024, -2.0E-4, 0.0011, 0.0135, 4.2, 12.45)" gradientUnits="userSpaceOnUse" id="gradient0" r="819.2" spreadMethod="pad">
      <stop offset="0.0" stop-color="#4d6084"/>
      <stop offset="1.0" stop-color="#7886ab"/>
    </radialGradient>
  </defs>
</svg>
