<?xml version="1.0" encoding="UTF-8" standalone="no"?>
<svg xmlns:xlink="http://www.w3.org/1999/xlink" height="160.8px" width="122.95px" xmlns="http://www.w3.org/2000/svg">
  <g transform="matrix(1.0, 0.0, 0.0, 1.0, 122.05, 106.45)">
    <path d="M-87.1 -57.6 L-85.6 -60.45 -87.1 -57.6 M-108.4 -35.05 L-113.15 -39.55 -114.4 -41.1 Q-121.3 -62.45 -121.35 -66.15 L-121.45 -69.4 Q-121.65 -78.65 -106.8 -93.6 -101.15 -99.3 -93.3 -105.85 L-78.5 -94.65 Q-80.8 -75.55 -83.7 -65.65 -84.6 -62.85 -85.45 -60.8 L-85.6 -60.45 Q-79.15 -54.0 -73.45 -46.55 L-60.65 -26.05 -60.0 -24.75 -56.7 -17.75 -40.0 3.3 Q-35.55 10.45 -30.8 15.45 L-28.45 17.8 Q-39.35 13.55 -39.75 17.55 -40.8 24.1 -45.55 29.6 -45.9 35.05 -43.85 40.9 -44.4 41.6 -44.35 43.25 L-44.2 44.95 -45.25 43.85 Q-47.45 41.7 -48.95 41.7 -50.15 42.0 -50.95 43.05 L-51.7 44.35 Q-52.7 41.7 -55.2 41.5 -54.15 42.9 -55.45 43.45 -56.65 40.35 -58.55 39.25 -58.95 35.75 -59.85 30.45 L-60.1 30.05 -54.4 29.6 Q-52.95 23.65 -55.65 22.45 L-65.35 14.25 -86.3 -21.95 Q-83.25 -22.1 -80.35 -27.05 L-79.75 -28.35 Q-78.35 -32.65 -83.6 -36.85 -89.7 -41.75 -97.55 -42.05 -99.1 -37.45 -97.85 -35.0 -104.25 -34.8 -108.4 -35.05" fill="#dde2ed" fill-rule="evenodd" stroke="none"/>
    <path d="M-28.45 17.8 Q-23.35 22.45 -23.05 29.6 L-20.7 32.9 Q-18.95 33.05 -11.5 38.05 -11.7 41.45 -5.3 46.35 -5.9 48.6 -7.0 47.6 -9.95 48.65 -8.55 46.75 -12.5 46.9 -11.6 49.8 -13.85 46.1 -15.5 46.8 -17.25 46.7 -17.55 49.2 -19.15 49.15 -19.15 47.2 L-20.65 48.4 Q-23.6 46.75 -22.95 45.45 -24.55 45.3 -25.65 47.1 -28.2 46.55 -28.3 44.65 -28.75 46.35 -30.55 46.7 -32.9 45.65 -32.95 43.8 -33.6 45.9 -35.55 46.7 -37.25 44.65 -39.2 44.7 -41.6 44.05 -43.0 42.3 L-43.85 40.9 Q-45.9 35.05 -45.55 29.6 -40.8 24.1 -39.75 17.55 -39.35 13.55 -28.45 17.8" fill="#bbc1da" fill-rule="evenodd" stroke="none"/>
    <path d="M-11.5 38.05 Q-0.5 39.25 0.3 52.1 L-5.1 51.95 Q-6.1 52.0 -6.5 52.65 L-6.95 53.35 -10.85 53.75 Q-13.45 53.8 -16.95 52.75 L-21.55 53.2 Q-29.95 53.55 -34.5 51.2 -43.15 53.1 -55.45 47.0 -57.75 45.2 -58.55 39.25 -56.65 40.35 -55.45 43.45 -54.15 42.9 -55.2 41.5 -52.7 41.7 -51.7 44.35 L-50.95 43.05 Q-50.15 42.0 -48.95 41.7 -47.45 41.7 -45.25 43.85 L-44.2 44.95 -44.35 43.25 Q-44.4 41.6 -43.85 40.9 L-43.0 42.3 Q-41.6 44.05 -39.2 44.7 -37.25 44.65 -35.55 46.7 -33.6 45.9 -32.95 43.8 -32.9 45.65 -30.55 46.7 -28.75 46.35 -28.3 44.65 -28.2 46.55 -25.65 47.1 -24.55 45.3 -22.95 45.45 -23.6 46.75 -20.65 48.4 L-19.15 47.2 Q-19.15 49.15 -17.55 49.2 -17.25 46.7 -15.5 46.8 -13.85 46.1 -11.6 49.8 -12.5 46.9 -8.55 46.75 -9.95 48.65 -7.0 47.6 -5.9 48.6 -5.3 46.35 -11.7 41.45 -11.5 38.05 M-97.55 -42.05 Q-89.7 -41.75 -83.6 -36.85 -78.35 -32.65 -79.75 -28.35 L-80.35 -27.05 Q-83.25 -22.1 -86.3 -21.95 -91.35 -21.55 -94.65 -27.0 -90.2 -25.05 -87.65 -27.9 -90.8 -28.75 -97.55 -42.05 M-34.5 51.2 Q-38.35 49.0 -39.2 44.7 -38.35 49.0 -34.5 51.2 M-6.5 52.65 Q-5.15 49.75 -5.3 46.35 -5.15 49.75 -6.5 52.65 M-15.5 46.8 Q-14.55 52.25 -16.7 52.75 L-16.95 52.75 -16.7 52.75 Q-14.55 52.25 -15.5 46.8" fill="#4d6084" fill-rule="evenodd" stroke="none"/>
    <path d="M-60.1 30.05 L-64.1 23.35 -70.6 11.5 Q-71.4 11.05 -73.9 7.8 L-84.35 -8.2 Q-86.75 -11.8 -94.4 -21.45 L-108.4 -35.05 Q-104.25 -34.8 -97.85 -35.0 -96.5 -30.1 -94.65 -27.0 -91.35 -21.55 -86.3 -21.95 L-65.35 14.25 -55.65 22.45 Q-52.95 23.65 -54.4 29.6 L-60.1 30.05 M-65.35 14.25 L-70.6 11.5 -65.35 14.25" fill="#f6f7f8" fill-rule="evenodd" stroke="none"/>
    <path d="M-97.85 -35.0 Q-99.1 -37.45 -97.55 -42.05 -90.8 -28.75 -87.65 -27.9 -90.2 -25.05 -94.65 -27.0 -96.5 -30.1 -97.85 -35.0" fill="#7886ab" fill-rule="evenodd" stroke="none"/>
    <path d="M-85.6 -60.45 L-87.1 -57.6 M-108.4 -35.05 L-113.15 -39.55 -114.4 -41.1 Q-121.3 -62.45 -121.35 -66.15 L-121.45 -69.4 Q-121.65 -78.65 -106.8 -93.6 -101.15 -99.3 -93.3 -105.85 L-78.5 -94.65 Q-80.8 -75.55 -83.7 -65.65 -84.6 -62.85 -85.45 -60.8 L-85.6 -60.45 Q-79.15 -54.0 -73.45 -46.55 L-60.65 -26.05 -60.0 -24.75 -56.7 -17.75 -40.0 3.3 Q-35.55 10.45 -30.8 15.45 L-28.45 17.8 Q-23.35 22.45 -23.05 29.6 L-20.7 32.9 Q-18.95 33.05 -11.5 38.05 -0.5 39.25 0.3 52.1 L-5.1 51.95 Q-6.1 52.0 -6.5 52.65 L-6.95 53.35 -10.85 53.75 Q-13.45 53.8 -16.95 52.75 L-21.55 53.2 Q-29.95 53.55 -34.5 51.2 -43.15 53.1 -55.45 47.0 -57.75 45.2 -58.55 39.25 -58.95 35.75 -59.85 30.45 L-60.1 30.05 -64.1 23.35 -70.6 11.5 Q-71.4 11.05 -73.9 7.8 L-84.35 -8.2 Q-86.75 -11.8 -94.4 -21.45 M-97.85 -35.0 Q-99.1 -37.45 -97.55 -42.05 -89.7 -41.75 -83.6 -36.85 -78.35 -32.65 -79.75 -28.35 L-80.35 -27.05 Q-83.25 -22.1 -86.3 -21.95 M-43.85 40.9 L-43.0 42.3 Q-41.6 44.05 -39.2 44.7 -37.25 44.65 -35.55 46.7 -33.6 45.9 -32.95 43.8 -32.9 45.65 -30.55 46.7 -28.75 46.35 -28.3 44.65 -28.2 46.55 -25.65 47.1 -24.55 45.3 -22.95 45.45 -23.6 46.75 -20.65 48.4 L-19.15 47.2 Q-19.15 49.15 -17.55 49.2 -17.25 46.7 -15.5 46.8 -13.85 46.1 -11.6 49.8 -12.5 46.9 -8.55 46.75 -9.95 48.65 -7.0 47.6 -5.9 48.6 -5.3 46.35 -11.7 41.45 -11.5 38.05 M-70.6 11.5 L-65.35 14.25 M-43.85 40.9 Q-44.4 41.6 -44.35 43.25 L-44.2 44.95 -45.25 43.85 Q-47.45 41.7 -48.95 41.7 -50.15 42.0 -50.95 43.05 L-51.7 44.35 Q-52.7 41.7 -55.2 41.5 -54.15 42.9 -55.45 43.45 -56.65 40.35 -58.55 39.25 M-16.95 52.75 L-16.7 52.75 Q-14.55 52.25 -15.5 46.8 M-5.3 46.35 Q-5.15 49.75 -6.5 52.65 M-39.2 44.7 Q-38.35 49.0 -34.5 51.2" fill="none" stroke="#333333" stroke-linecap="round" stroke-linejoin="round" stroke-width="1.2000000000000002"/>
    <path d="M-94.4 -21.45 L-108.4 -35.05 M-94.65 -27.0 Q-91.35 -21.55 -86.3 -21.95 M-94.65 -27.0 Q-96.5 -30.1 -97.85 -35.0" fill="none" stroke="#333333" stroke-linecap="round" stroke-linejoin="miter-clip" stroke-miterlimit="3.0" stroke-width="1.2000000000000002"/>
  </g>
</svg>
