<?xml version="1.0" encoding="UTF-8" standalone="no"?>
<svg xmlns:xlink="http://www.w3.org/1999/xlink" height="156.5px" width="238.85px" xmlns="http://www.w3.org/2000/svg">
  <g transform="matrix(1.0, 0.0, 0.0, 1.0, 108.4, 59.5)">
    <path d="M-80.3 -38.55 Q-18.35 66.25 57.75 41.7 L64.0 41.55 64.85 41.7 66.85 41.25 Q77.05 38.45 82.75 24.75 85.55 18.9 75.4 6.45 74.35 -6.35 78.05 -6.75 86.0 -11.4 83.05 -31.45 L82.45 -34.9 Q81.45 -40.4 79.75 -46.85 L78.5 -51.3 95.9 -49.1 108.45 -34.3 Q91.1 -11.1 90.15 8.2 L88.1 17.65 94.05 43.85 Q90.0 50.75 83.4 57.5 L83.0 57.8 80.05 59.95 72.1 42.85 69.75 44.55 65.55 47.45 65.2 47.65 65.25 47.95 Q57.0 62.6 47.35 71.3 31.95 84.45 15.65 91.85 14.6 95.1 13.2 96.4 9.3 95.2 5.3 89.35 1.15 83.5 0.4 89.95 -2.2 82.85 -5.1 82.2 -18.8 81.9 -32.0 77.75 -71.1 48.0 -78.85 17.05 -85.2 -8.2 -80.3 -38.55 M61.05 -53.6 Q60.95 -54.0 61.0 -54.35 L62.25 -54.05 61.05 -53.6" fill="#dde2ed" fill-rule="evenodd" stroke="none"/>
    <path d="M-85.55 -47.8 L-80.3 -38.55 Q-85.2 -8.2 -78.85 17.05 -71.1 48.0 -32.0 77.75 -52.7 71.1 -72.15 54.75 -123.0 2.25 -101.3 -33.5 -93.7 -42.1 -85.55 -47.8 M108.45 -34.3 L112.4 -16.15 95.85 40.55 94.05 43.85 88.1 17.65 90.15 8.2 Q91.1 -11.1 108.45 -34.3 M80.05 59.95 L74.55 63.35 Q66.75 70.45 56.3 74.1 24.8 95.25 15.65 91.85 31.95 84.45 47.35 71.3 57.0 62.6 65.25 47.95 L65.2 47.65 65.55 47.45 69.75 44.55 72.1 42.85 80.05 59.95 M74.55 63.35 L69.25 65.9 74.55 63.35" fill="#bbc1da" fill-rule="evenodd" stroke="none"/>
    <path d="M-85.55 -47.8 Q-58.1 -66.8 -23.35 -53.35 -8.65 -52.15 58.1 -53.5 L61.05 -53.6 61.1 -53.55 78.5 -51.3 79.75 -46.85 Q81.45 -40.4 82.45 -34.9 L83.05 -31.45 Q86.0 -11.4 78.05 -6.75 74.35 -6.35 75.4 6.45 85.55 18.9 82.75 24.75 77.05 38.45 66.85 41.25 L64.85 41.7 64.0 41.55 57.75 41.7 Q-18.35 66.25 -80.3 -38.55 L-85.55 -47.8" fill="#f6f7f8" fill-rule="evenodd" stroke="none"/>
    <path d="M61.05 -53.6 L58.1 -53.5 Q-8.65 -52.15 -23.35 -53.35 -58.1 -66.8 -85.55 -47.8 -93.7 -42.1 -101.3 -33.5 -123.0 2.25 -72.15 54.75 -52.7 71.1 -32.0 77.75 -18.8 81.9 -5.1 82.2 -2.2 82.85 0.4 89.95 1.15 83.5 5.3 89.35 9.3 95.2 13.2 96.4 14.6 95.1 15.65 91.85 24.8 95.25 56.3 74.1 66.75 70.45 74.55 63.35 L80.05 59.95 83.0 57.8 83.4 57.5 Q90.0 50.75 94.05 43.85 L95.85 40.55 112.4 -16.15 108.45 -34.3 95.9 -49.1 78.5 -51.3 61.1 -53.55 M125.65 6.3 L126.4 6.75 Q127.5 7.85 127.6 10.7 130.6 19.7 129.4 3.2 129.95 -1.0 129.85 -5.0 129.7 -8.6 128.7 -12.75 M69.25 65.9 L74.55 63.35" fill="none" stroke="#333333" stroke-linecap="round" stroke-linejoin="round" stroke-width="1.2000000000000002"/>
  </g>
</svg>
