<?xml version="1.0" encoding="UTF-8" standalone="no"?>
<svg xmlns:xlink="http://www.w3.org/1999/xlink" height="166.25px" width="128.5px" xmlns="http://www.w3.org/2000/svg">
  <g transform="matrix(1.0, 0.0, 0.0, 1.0, 33.85, 99.05)">
    <path d="M2.45 -93.05 Q13.25 -67.35 13.2 -57.7 29.3 -38.95 34.15 -10.2 L41.45 12.0 43.75 19.2 Q56.05 26.2 63.6 25.6 L63.7 25.65 Q71.55 31.3 75.5 39.3 75.85 39.45 75.95 42.8 80.2 40.2 87.5 45.8 86.1 49.95 88.85 56.4 88.1 58.6 87.0 57.6 83.95 58.5 85.65 56.75 81.55 56.6 82.35 59.5 80.25 55.7 78.6 56.3 76.95 56.2 76.5 58.6 74.85 58.45 74.95 56.45 L73.35 57.55 Q70.5 55.8 71.25 54.55 69.65 54.3 68.55 56.05 66.0 55.3 66.0 53.45 65.45 55.05 63.6 55.35 61.4 54.2 61.3 52.4 60.6 54.4 58.65 55.1 57.3 53.3 55.85 52.95 L55.1 52.85 Q51.85 51.9 50.65 48.85 49.95 49.8 50.05 52.7 47.35 49.45 45.5 49.3 43.75 49.65 42.75 51.5 L42.6 51.75 Q41.7 49.15 39.3 48.75 40.25 50.15 38.95 50.7 37.95 47.55 36.2 46.3 L35.7 41.45 32.35 36.7 28.0 30.4 26.0 27.35 Q34.2 32.45 37.2 27.75 40.3 23.15 34.9 15.45 L9.85 -19.95 Q11.9 -25.75 10.45 -31.55 9.9 -33.95 9.15 -35.75 6.9 -41.05 2.7 -39.85 -3.9 -52.35 -8.5 -66.45 L-11.25 -76.1 Q-12.05 -77.35 -14.2 -88.05 -14.0 -86.5 -20.7 -86.0 -24.5 -107.9 2.45 -93.05 M35.55 40.2 L35.7 41.45 35.55 40.2" fill="#dde2ed" fill-rule="evenodd" stroke="none"/>
    <path d="M9.15 -35.75 Q3.8 -33.55 -2.55 -34.25 -7.7 -34.85 -11.45 -39.4 L-8.15 -38.55 -6.4 -38.3 Q-0.55 -37.45 2.7 -39.85 6.9 -41.05 9.15 -35.75" fill="#7886ab" fill-rule="evenodd" stroke="none"/>
    <path d="M87.5 45.8 Q94.1 49.6 94.05 62.5 92.45 60.8 88.8 62.0 87.7 62.1 87.2 62.65 L86.8 63.35 82.75 63.5 Q80.25 63.3 76.9 62.2 L72.2 62.4 Q63.85 62.35 59.45 59.55 50.65 61.05 38.75 54.15 37.95 53.5 37.4 52.35 L36.95 51.35 Q36.3 49.35 36.2 46.3 37.95 47.55 38.95 50.7 40.25 50.15 39.3 48.75 41.7 49.15 42.6 51.75 L42.75 51.5 Q43.75 49.65 45.5 49.3 47.35 49.45 50.05 52.7 49.95 49.8 50.65 48.85 51.85 51.9 55.1 52.85 L55.85 52.95 Q57.3 53.3 58.65 55.1 60.6 54.4 61.3 52.4 61.4 54.2 63.6 55.35 65.45 55.05 66.0 53.45 66.0 55.3 68.55 56.05 69.65 54.3 71.25 54.55 70.5 55.8 73.35 57.55 L74.95 56.45 Q74.85 58.45 76.5 58.6 76.95 56.2 78.6 56.3 80.25 55.7 82.35 59.5 81.55 56.6 85.65 56.75 83.95 58.5 87.0 57.6 88.1 58.6 88.85 56.4 88.75 59.85 87.2 62.65 88.75 59.85 88.85 56.4 86.1 49.95 87.5 45.8 M9.15 -35.75 Q9.9 -33.95 10.45 -31.55 11.9 -25.75 9.85 -19.95 -0.8 -24.45 -5.35 -30.9 L-6.05 -31.9 -11.45 -39.4 Q-7.7 -34.85 -2.55 -34.25 3.8 -33.55 9.15 -35.75 M76.9 62.2 L77.1 62.2 Q79.3 61.8 78.6 56.3 79.3 61.8 77.1 62.2 L76.9 62.2 M59.45 59.55 Q55.8 57.35 55.2 53.45 L55.1 52.85 55.2 53.45 Q55.8 57.35 59.45 59.55" fill="#4d6084" fill-rule="evenodd" stroke="none"/>
    <path d="M41.45 12.0 Q55.25 21.15 59.5 23.45 L63.6 25.6 Q56.05 26.2 43.75 19.2 L41.45 12.0 M-7.9 -26.1 Q-12.05 -32.3 -16.45 -39.65 -19.45 -44.55 -32.0 -57.8 -35.9 -64.05 -27.7 -71.5 -19.5 -78.95 -20.7 -86.0 -14.0 -86.5 -14.2 -88.05 -12.05 -77.35 -11.25 -76.1 L-8.5 -66.45 Q-3.9 -52.35 2.7 -39.85 -0.55 -37.45 -6.4 -38.3 L-8.15 -38.55 -11.45 -39.4 -6.05 -31.9 -5.35 -30.9 Q-0.8 -24.45 9.85 -19.95 2.2 -15.5 -7.9 -26.1" fill="#bbc1da" fill-rule="evenodd" stroke="none"/>
    <path d="M75.5 39.3 Q86.7 36.75 87.5 45.8 80.2 40.2 75.95 42.8 75.85 39.45 75.5 39.3 M26.0 27.35 L25.45 26.55 Q9.35 3.25 3.85 -9.7 -1.35 -16.2 -7.15 -24.9 L-7.9 -26.1 Q2.2 -15.5 9.85 -19.95 L34.9 15.45 Q40.3 23.15 37.2 27.75 34.2 32.45 26.0 27.35" fill="#f6f7f8" fill-rule="evenodd" stroke="none"/>
    <path d="M2.45 -93.05 Q13.25 -67.35 13.2 -57.7 29.3 -38.95 34.15 -10.2 L41.45 12.0 Q55.25 21.15 59.5 23.45 L63.6 25.6 63.7 25.65 Q71.55 31.3 75.5 39.3 86.7 36.75 87.5 45.8 94.1 49.6 94.05 62.5 92.45 60.8 88.8 62.0 87.7 62.1 87.2 62.65 L86.8 63.35 82.75 63.5 Q80.25 63.3 76.9 62.2 L72.2 62.4 Q63.85 62.35 59.45 59.55 50.65 61.05 38.75 54.15 37.95 53.5 37.4 52.35 M36.95 51.35 Q36.3 49.35 36.2 46.3 L35.7 41.45 32.35 36.7 28.0 30.4 26.0 27.35 25.45 26.55 Q9.35 3.25 3.85 -9.7 -1.35 -16.2 -7.15 -24.9 L-7.9 -26.1 Q-12.05 -32.3 -16.45 -39.65 -19.45 -44.55 -32.0 -57.8 -35.9 -64.05 -27.7 -71.5 -19.5 -78.95 -20.7 -86.0 M9.85 -19.95 Q11.9 -25.75 10.45 -31.55 9.9 -33.95 9.15 -35.75 6.9 -41.05 2.7 -39.85 -0.55 -37.45 -6.4 -38.3 L-8.15 -38.55 -11.45 -39.4 -6.05 -31.9 -5.35 -30.9 Q-0.8 -24.45 9.85 -19.95 M88.85 56.4 Q88.1 58.6 87.0 57.6 83.95 58.5 85.65 56.75 81.55 56.6 82.35 59.5 80.25 55.7 78.6 56.3 79.3 61.8 77.1 62.2 L76.9 62.2 M88.85 56.4 Q88.75 59.85 87.2 62.65 M87.5 45.8 Q86.1 49.95 88.85 56.4 M35.7 41.45 L35.55 40.2 M78.6 56.3 Q76.95 56.2 76.5 58.6 74.85 58.45 74.95 56.45 L73.35 57.55 Q70.5 55.8 71.25 54.55 69.65 54.3 68.55 56.05 66.0 55.3 66.0 53.45 65.45 55.05 63.6 55.35 61.4 54.2 61.3 52.4 60.6 54.4 58.65 55.1 57.3 53.3 55.85 52.95 L55.1 52.85 55.2 53.45 Q55.8 57.35 59.45 59.55 M55.1 52.85 Q51.85 51.9 50.65 48.85 49.95 49.8 50.05 52.7 47.35 49.45 45.5 49.3 43.75 49.65 42.75 51.5 L42.6 51.75 Q41.7 49.15 39.3 48.75 40.25 50.15 38.95 50.7 37.95 47.55 36.2 46.3 M57.8 66.6 L56.85 66.1" fill="none" stroke="#333333" stroke-linecap="round" stroke-linejoin="round" stroke-width="1.2000000000000002"/>
    <path d="M75.1 39.75 Q74.6 39.4 74.95 38.9 75.05 38.7 75.3 38.65 L75.75 38.75 75.8 38.75 76.05 39.0 76.05 39.05 76.1 39.1 76.1 39.15 76.15 39.25 76.15 39.3 76.2 39.35 76.3 40.25 76.25 42.75 76.05 46.3 76.0 46.4 75.9 46.35 75.45 41.5 75.15 39.8 75.1 39.75 M40.85 12.15 L40.85 12.1 Q40.7 11.55 41.25 11.35 41.85 11.2 42.0 11.8 L43.8 19.15 43.75 19.25 Q43.65 19.35 43.65 19.2 L40.85 12.15" fill="#333333" fill-rule="evenodd" stroke="none"/>
  </g>
</svg>
