<?xml version="1.0" encoding="UTF-8" standalone="no"?>
<svg xmlns:xlink="http://www.w3.org/1999/xlink" height="146.05px" width="77.35px" xmlns="http://www.w3.org/2000/svg">
  <g transform="matrix(1.0, 0.0, 0.0, 1.0, -71.45, 97.0)">
    <path d="M77.8 -48.45 L78.35 -48.35 78.35 -48.4 Q86.45 -39.8 84.3 -35.15 84.0 -30.05 78.8 -29.35 83.1 -36.4 77.8 -48.45 M74.85 -29.35 Q78.8 -25.05 83.6 -26.45 L78.9 -14.45 78.45 -12.3 78.25 -10.5 Q75.75 -15.45 78.3 -22.25 74.55 -23.5 71.45 -28.35 L74.85 -29.35 M78.7 -0.3 L78.85 0.35 78.55 -0.25 78.7 -0.3 M84.45 13.1 L85.9 15.05 87.8 17.35 Q86.05 15.6 84.45 13.1 M88.7 14.85 L90.15 8.2 90.2 9.85 88.7 14.85 M101.95 42.6 L97.35 23.15 Q94.65 12.0 95.5 6.9 97.25 11.35 104.55 19.45 L107.95 24.65 Q106.25 34.2 109.35 48.6 102.4 45.05 102.5 38.05 L101.95 42.6 M122.45 22.0 Q114.85 18.3 110.1 14.85 100.4 7.85 101.85 1.7 105.8 -0.9 111.85 3.9 L112.75 4.65 113.1 7.25 Q114.85 14.5 123.0 19.85 L123.55 20.55 Q124.8 20.95 126.0 21.65 L122.9 22.0 122.5 22.0 122.45 22.0 M127.6 10.7 Q127.5 7.85 126.4 6.75 L125.65 6.3 Q120.7 6.5 116.9 1.65 L116.1 0.25 Q114.5 -3.05 115.6 -7.35 L115.85 -8.1 Q116.95 -4.0 120.05 -5.25 119.15 -11.25 115.25 -14.0 L118.5 -14.95 Q114.25 -19.1 109.6 -17.5 113.55 -26.45 110.85 -30.5 L117.6 -28.15 115.1 -41.85 Q108.15 -38.95 105.4 -39.65 90.5 -52.25 84.7 -68.3 L84.45 -69.0 84.15 -69.85 82.7 -74.5 Q78.45 -91.2 93.85 -96.45 87.95 -61.6 115.1 -41.85 120.95 -37.9 131.85 -35.45 160.95 -40.2 138.55 -25.8 146.2 -19.95 139.6 -7.85 L137.4 -16.65 Q138.2 -8.5 129.85 -5.0 129.95 -1.0 129.4 3.2 130.6 19.65 127.65 10.75 L127.6 10.7" fill="#dde2ed" fill-rule="evenodd" stroke="none"/>
    <path d="M78.8 -29.35 Q84.0 -30.05 84.3 -35.15 86.45 -39.8 78.35 -48.4 L78.35 -48.35 77.8 -48.45 Q73.9 -49.5 79.35 -57.05 82.95 -62.0 83.3 -63.3 L83.3 -63.35 78.6 -62.25 82.7 -74.5 84.15 -69.85 84.45 -69.0 84.7 -68.3 Q90.5 -52.25 105.4 -39.65 108.15 -38.95 115.1 -41.85 L117.6 -28.15 110.85 -30.5 Q113.55 -26.45 109.6 -17.5 114.25 -19.1 118.5 -14.95 L115.25 -14.0 Q119.15 -11.25 120.05 -5.25 116.95 -4.0 115.85 -8.1 L115.6 -7.35 Q114.5 -3.05 116.1 0.25 L116.9 1.65 Q120.7 6.5 125.65 6.3 L126.4 6.75 Q127.5 7.85 127.6 10.7 L127.4 10.85 Q126.05 11.6 125.2 13.15 124.7 13.95 124.3 15.2 123.8 16.85 123.6 19.05 L123.55 20.55 123.0 19.85 Q114.85 14.5 113.1 7.25 L112.75 4.65 111.85 3.9 Q105.8 -0.9 101.85 1.7 100.4 7.85 110.1 14.85 114.85 18.3 122.45 22.0 115.15 22.1 109.05 18.3 115.15 26.35 113.05 33.35 L107.95 24.65 104.55 19.45 Q97.25 11.35 95.5 6.9 94.65 12.0 97.35 23.15 L101.95 42.6 Q101.35 45.85 100.05 48.45 97.85 46.0 96.75 43.55 L96.4 42.7 96.25 42.2 95.85 40.55 Q94.1 30.15 92.4 22.5 90.5 14.75 90.2 9.85 L90.15 8.2 88.7 14.85 88.1 17.65 87.95 17.5 87.8 17.35 85.9 15.05 84.45 13.1 Q80.25 7.0 78.85 0.35 L78.7 -0.3 78.2 -4.05 Q78.05 -5.4 78.05 -6.75 L78.25 -10.5 78.45 -12.3 78.9 -14.45 83.6 -26.45 Q78.8 -25.05 74.85 -29.35 77.1 -29.1 78.8 -29.35" fill="#f6f7f8" fill-rule="evenodd" stroke="none"/>
    <path d="M83.3 -63.35 L83.3 -63.3" fill="none" stroke="#333333" stroke-linecap="round" stroke-linejoin="round" stroke-width="0.05"/>
    <path d="M99.95 49.05 Q97.75 46.65 96.45 44.25 95.85 42.8 94.9 38.25 L89.85 12.45 88.45 18.15 Q86.05 16.5 82.55 10.6 77.55 2.1 77.55 -6.3 L77.9 -12.4 Q78.4 -14.5 82.65 -25.6 L78.4 -25.9 74.4 -28.95 Q75.35 -29.85 77.95 -29.9 80.6 -29.95 81.85 -30.7 83.1 -31.45 84.0 -33.95 84.9 -36.5 84.6 -38.0 L83.7 -40.2 82.55 -42.15 80.35 -44.7 Q79.1 -45.9 77.8 -48.55 78.35 -47.55 81.95 -44.7 83.8 -42.8 84.65 -40.6 85.3 -38.85 85.3 -36.9 85.3 -32.15 82.05 -30.05 79.8 -28.6 76.5 -28.6 79.45 -26.8 81.05 -26.7 L83.25 -26.75 84.1 -26.85 81.6 -19.65 79.1 -12.2 Q78.7 -9.3 78.7 -6.25 78.7 -0.55 81.3 5.65 83.7 11.25 87.8 16.35 L89.8 7.7 92.05 17.9 94.2 27.95 Q96.65 40.65 97.25 42.55 97.5 43.35 99.9 47.35 L100.75 45.0 101.1 43.85 101.85 38.95 Q102.25 36.6 102.75 36.4 L103.2 36.65 Q103.45 41.45 103.9 42.5 104.65 44.45 108.5 47.45 L107.3 38.0 106.85 32.7 Q106.85 31.25 107.2 28.2 107.65 24.4 108.2 24.1 111.1 28.9 112.3 30.05 112.9 30.65 113.25 29.7 113.55 28.7 112.3 24.7 111.0 20.65 108.45 18.3 108.55 18.05 109.0 17.9 L109.4 17.8 Q111.65 19.95 115.65 20.9 L121.15 21.75 123.55 21.4 123.9 21.3 123.15 21.0 Q119.4 19.0 115.9 14.2 112.05 8.85 112.25 4.7 112.3 4.4 112.45 4.55 L112.45 5.5 Q112.3 6.4 115.15 11.8 117.9 17.0 122.65 18.9 L123.0 19.0 Q123.2 13.45 125.25 11.55 L126.65 10.55 Q127.3 10.1 127.3 9.45 127.3 8.3 126.75 7.3 126.1 6.2 125.15 6.0 L125.75 5.75 Q127.1 6.5 127.7 8.7 L128.95 12.75 129.75 11.95 Q130.15 8.9 129.7 3.9 129.25 -1.15 129.4 -3.6 L129.65 -7.15 129.4 -10.25 129.0 -13.25 129.5 -11.65 Q129.9 -9.85 130.25 0.15 L130.5 10.25 Q130.45 12.15 130.0 12.75 L129.2 13.9 Q128.75 14.4 128.6 13.75 L127.1 11.0 126.4 11.6 Q124.6 12.65 124.0 15.75 123.4 18.85 123.75 20.0 124.05 21.15 126.45 22.1 L123.95 22.5 122.95 22.55 119.55 22.5 Q115.15 21.85 111.0 20.1 112.7 21.7 113.55 25.35 L114.05 28.75 113.75 31.55 113.15 34.0 108.3 26.45 108.1 32.4 Q108.1 35.55 108.25 37.5 108.6 42.25 109.9 48.9 108.4 48.8 105.65 46.2 103.35 44.0 102.55 42.7 101.45 46.85 100.6 48.35 L99.95 49.05 M93.1 -95.5 Q88.3 -94.75 85.1 -89.7 82.5 -85.55 82.5 -82.0 82.5 -75.4 83.3 -72.0 L84.35 -69.25 Q84.0 -69.35 83.3 -70.9 L82.7 -72.45 79.55 -63.05 83.2 -63.9 83.85 -63.6 82.7 -60.85 Q81.6 -58.5 80.5 -57.25 L79.45 -56.45 Q78.85 -56.45 78.75 -56.7 L78.75 -56.95 82.3 -62.5 Q79.65 -61.65 78.65 -61.65 78.05 -61.65 78.15 -61.8 L79.9 -66.9 Q81.55 -71.85 81.7 -79.2 81.8 -86.6 82.4 -87.7 82.95 -88.85 86.5 -92.55 90.75 -97.0 93.85 -97.0 94.85 -97.0 94.45 -96.35 93.1 -89.35 93.3 -80.85 93.5 -72.4 97.85 -63.4 101.95 -54.9 111.2 -45.75 120.45 -36.65 131.35 -36.6 L145.55 -36.2 Q148.8 -35.85 148.8 -34.85 148.8 -33.1 146.1 -30.35 143.2 -27.3 139.25 -25.55 L140.2 -26.5 Q141.3 -27.0 144.4 -30.05 147.45 -33.15 147.75 -34.5 L145.9 -35.6 Q145.0 -36.0 139.85 -35.6 L134.65 -35.45 131.95 -35.5 125.9 -35.75 Q122.5 -36.2 119.2 -38.2 L115.3 -40.7 Q114.7 -41.15 111.25 -40.0 107.7 -38.9 106.05 -38.85 L102.4 -39.8 103.5 -38.85 Q104.75 -38.25 105.3 -36.9 L105.6 -35.4 Q105.6 -34.25 104.2 -33.6 L103.15 -33.2 104.1 -33.9 104.7 -34.55 105.1 -35.25 Q105.1 -36.8 102.95 -38.55 L102.3 -39.05 99.45 -40.5 Q99.65 -41.35 100.05 -41.45 100.05 -40.85 101.8 -40.5 L103.2 -40.3 107.05 -40.05 110.05 -40.8 113.9 -42.0 Q111.4 -43.4 104.7 -51.55 98.2 -59.5 97.35 -61.9 94.0 -71.8 93.55 -73.8 92.4 -78.7 92.4 -87.2 L93.1 -95.5" fill="#333333" fill-rule="evenodd" stroke="none"/>
  </g>
</svg>
