<?xml version="1.0" encoding="UTF-8" standalone="no"?>
<svg xmlns:xlink="http://www.w3.org/1999/xlink" height="205.0px" width="198.15px" xmlns="http://www.w3.org/2000/svg">
  <g transform="matrix(1.0, 0.0, 0.0, 1.0, 99.05, 107.1)">
    <path d="M39.6 -82.35 Q35.35 -87.1 54.65 -80.5 L55.7 -80.25 Q91.25 -70.7 90.35 -18.15 88.0 30.4 14.4 8.0 41.45 17.3 45.25 26.7 55.1 51.05 73.75 88.75 66.15 87.45 57.15 80.6 L48.85 67.1 10.35 28.65 9.45 27.65 Q2.6 20.1 -2.2 12.8 L-3.75 15.95 Q-6.55 12.6 -6.4 9.95 -6.3 7.3 -6.55 6.3 -6.8 5.25 -6.15 0.6 L-10.0 7.4 -10.0 1.65 Q-10.85 -10.1 -9.7 -22.05 L-9.15 -27.0 -8.75 -29.8 Q-12.35 -35.25 -7.65 -43.85 -9.65 -43.6 -12.4 -41.75 L-12.45 -44.15 -13.7 -43.95 Q-11.2 -48.95 -6.25 -52.9 -8.35 -54.25 -10.8 -54.05 -11.65 -53.9 -12.45 -54.55 -8.25 -58.15 -1.95 -61.1 -4.9 -62.4 -8.9 -61.85 L-14.25 -61.1 -4.1 -70.0 Q2.2 -75.2 8.5 -77.7 L9.45 -78.05 Q13.25 -79.5 17.75 -80.4 L18.7 -80.6 17.75 -81.2 Q14.1 -83.6 17.75 -83.45 L24.15 -82.4 27.05 -81.75 Q26.4 -83.8 23.55 -86.2 33.3 -82.0 39.6 -82.35 L45.4 -80.75 39.6 -82.35 M-27.55 -68.2 L-23.95 -56.7 Q-22.9 -55.2 -21.75 -54.7 -23.1 -45.8 -21.55 -41.7 -28.65 -23.75 -22.55 -5.55 -37.9 15.75 -59.95 5.4 L-60.95 5.05 Q-70.65 2.7 -79.35 -2.3 -66.65 6.1 -64.6 17.85 -64.45 31.6 -59.95 60.0 -64.0 73.6 -85.7 84.95 -88.15 78.5 -90.2 68.8 -102.1 29.35 -96.85 6.45 -100.3 -64.4 -42.5 -78.3 L-33.25 -80.5 Q-33.2 -74.5 -27.55 -68.2" fill="#f6f7f8" fill-rule="evenodd" stroke="none"/>
    <path d="M18.7 -80.6 L17.75 -80.4 Q13.25 -79.5 9.45 -78.05 L8.5 -77.7 Q2.2 -75.2 -4.1 -70.0 L-14.25 -61.1 -8.9 -61.85 Q-4.9 -62.4 -1.95 -61.1 -8.25 -58.15 -12.45 -54.55 L-16.15 -54.5 -16.7 -54.45 -19.3 -54.8 -21.75 -54.7 Q-22.9 -55.2 -23.95 -56.7 L-27.55 -68.2 -26.65 -67.2 Q-19.25 -60.4 -7.65 -67.95 -4.2 -71.0 -0.85 -73.3 L0.1 -73.95 Q10.05 -80.7 18.7 -80.6" fill="#bbc1da" fill-rule="evenodd" stroke="none"/>
    <path d="M18.7 -80.6 Q10.05 -80.7 0.1 -73.95 -3.2 -78.65 -5.1 -82.75 -7.0 -86.85 -15.6 -94.25 L-5.5 -96.2 Q0.4 -85.7 18.7 -80.6" fill="#7886ab" fill-rule="evenodd" stroke="none"/>
    <path d="M-12.45 -54.55 Q-11.65 -53.9 -10.8 -54.05 -8.35 -54.25 -6.25 -52.9 -11.2 -48.95 -13.7 -43.95 L-12.45 -44.15 -12.4 -41.75 Q-9.65 -43.6 -7.65 -43.85 -12.35 -35.25 -8.75 -29.8 L-9.15 -27.0 -9.7 -22.05 Q-10.85 -10.1 -10.0 1.65 L-10.6 2.6 Q-14.1 7.15 -20.25 2.05 -20.8 5.95 -21.7 9.5 L-21.75 9.65 -21.8 9.95 Q-15.25 6.0 -23.1 14.1 -19.25 14.65 -24.45 17.6 -26.7 22.95 -30.05 27.4 -26.45 46.1 -46.8 68.5 -57.25 94.75 -70.7 97.05 -79.5 101.25 -85.7 84.95 -64.0 73.6 -59.95 60.0 -64.45 31.6 -64.6 17.85 -66.65 6.1 -79.35 -2.3 -70.65 2.7 -60.95 5.05 L-59.95 5.4 Q-37.9 15.75 -22.55 -5.55 -28.65 -23.75 -21.55 -41.7 -23.1 -45.8 -21.75 -54.7 L-19.3 -54.8 -16.7 -54.45 -16.15 -54.5 -12.45 -54.55 -14.45 -52.9 -10.8 -54.05 -14.45 -52.9 -12.45 -54.55 M73.75 88.75 Q55.1 51.05 45.25 26.7 41.45 17.3 14.4 8.0 88.0 30.4 90.35 -18.15 L92.65 -9.3 92.95 -8.15 93.5 -6.1 93.75 -5.05 93.95 -4.3 94.0 -4.0 Q102.6 30.8 94.75 65.05 93.0 73.2 89.05 84.45 82.3 90.15 73.75 88.75 M-12.4 -41.75 L-15.5 -40.4 -13.7 -43.95 -15.5 -40.4 -12.4 -41.75 M-34.45 30.8 Q-31.25 30.0 -30.05 27.4 -31.25 30.0 -34.45 30.8" fill="#dde2ed" fill-rule="evenodd" stroke="none"/>
    <path d="M-15.6 -94.25 Q-7.0 -86.85 -5.1 -82.75 -3.2 -78.65 0.1 -73.95 L-0.85 -73.3 Q-4.2 -71.0 -7.65 -67.95 -19.25 -60.4 -26.65 -67.2 L-27.55 -68.2 Q-33.2 -74.5 -33.25 -80.5 L-36.5 -94.25 -38.6 -106.5 -15.6 -94.25" fill="#4d6084" fill-rule="evenodd" stroke="none"/>
    <path d="M90.35 -18.15 Q91.25 -70.7 55.7 -80.25 L54.65 -80.5 Q35.35 -87.1 39.6 -82.35 M27.05 -81.75 L24.15 -82.4 17.75 -83.45 Q14.1 -83.6 17.75 -81.2 L18.7 -80.6 Q0.4 -85.7 -5.5 -96.2 M90.35 -18.15 L92.65 -9.3 92.95 -8.15 93.5 -6.1 93.75 -5.05 93.95 -4.3 94.0 -4.0 Q102.6 30.8 94.75 65.05 93.0 73.2 89.05 84.45 M-26.65 -67.2 L-27.55 -68.2 -23.95 -56.7 Q-22.9 -55.2 -21.75 -54.7 L-19.3 -54.8 M-38.6 -106.5 L-36.5 -94.25 -33.25 -80.5 Q-33.2 -74.5 -27.55 -68.2 M-33.25 -80.5 L-42.5 -78.3 Q-100.3 -64.4 -96.85 6.45 -102.1 29.35 -90.2 68.8 M-70.7 97.05 Q-57.25 94.75 -46.8 68.5 -26.45 46.1 -30.05 27.4 -31.25 30.0 -34.45 30.8 M-21.75 9.65 L-21.8 9.95 Q-15.25 6.0 -23.1 14.1 -19.25 14.65 -24.45 17.6 -26.7 22.95 -30.05 27.4" fill="none" stroke="#333333" stroke-linecap="round" stroke-linejoin="round" stroke-width="1.2000000000000002"/>
    <path d="M39.6 -82.35 L45.4 -80.75 M9.45 -78.05 L8.5 -77.7 Q2.2 -75.2 -4.1 -70.0 L-14.25 -61.1 -8.9 -61.85 Q-4.9 -62.4 -1.95 -61.1 -8.25 -58.15 -12.45 -54.55 L-14.45 -52.9 -10.8 -54.05 Q-8.35 -54.25 -6.25 -52.9 -11.2 -48.95 -13.7 -43.95 L-15.5 -40.4 -12.4 -41.75 Q-9.65 -43.6 -7.65 -43.85 -12.35 -35.25 -8.75 -29.8 M-10.0 7.4 L-6.15 0.6 Q-6.8 5.25 -6.55 6.3 -6.3 7.3 -6.4 9.95 -6.55 12.6 -3.75 15.95 L-2.2 12.8 Q2.6 20.1 9.45 27.65 L10.35 28.65 48.85 67.1 57.15 80.6 M27.05 -81.75 Q26.4 -83.8 23.55 -86.2 33.3 -82.0 39.6 -82.35" fill="none" stroke="#333333" stroke-linecap="round" stroke-linejoin="miter-clip" stroke-miterlimit="3.0" stroke-width="1.2000000000000002"/>
    <path d="M-10.1 1.65 L-10.0 1.55 -9.9 1.65 -9.4 7.4 -9.4 7.5 Q-9.4 8.05 -10.05 8.05 -10.6 7.95 -10.6 7.4 L-10.1 1.65 M-22.6 -5.55 L-22.55 -5.6 -22.45 -5.5 -22.35 -5.25 -22.35 -5.15 -22.3 -5.0 -21.6 -1.3 -21.5 -1.1 -21.4 -0.6 -20.6 1.0 -20.35 1.4 -19.9 1.9 -19.9 2.55 -19.95 2.7 -19.95 2.85 -20.0 3.15 -20.05 3.25 -20.15 3.2 -20.3 2.9 -20.3 2.85 -20.4 2.65 -20.5 2.3 -20.55 2.25 -20.65 2.15 -20.8 2.1 -21.0 1.9 -21.15 1.8 -21.65 1.3 -21.7 1.2 -22.05 0.7 -22.1 0.6 -22.15 0.45 -22.25 0.35 -22.3 0.2 -22.5 -0.25 -22.75 -1.05 -22.9 -1.85 -22.95 -2.9 -22.7 -5.25 -22.6 -5.55 M-8.2 -29.45 L-8.3 -29.35 Q-8.7 -28.85 -9.15 -29.25 -9.6 -29.65 -9.25 -30.1 L-6.3 -33.75 -6.2 -33.75 Q-6.0 -33.75 -6.15 -33.6 L-8.2 -29.45 M-19.75 -39.25 L-19.75 -39.1 -19.9 -39.1 -20.05 -39.2 -20.15 -39.35 -20.3 -39.45 -20.4 -39.6 -20.55 -39.7 -20.65 -39.85 -20.9 -40.15 -21.2 -40.6 -21.25 -40.75 -21.35 -40.9 -21.7 -41.6 -22.0 -42.4 -22.4 -44.0 -22.45 -44.45 -22.5 -44.65 -22.5 -44.85 -22.7 -46.5 -22.7 -47.35 -22.75 -47.75 -22.75 -49.6 -22.7 -49.8 -22.7 -50.65 -22.3 -54.75 -22.3 -54.8 Q-22.2 -55.4 -21.6 -55.3 L-21.2 -55.05 -21.15 -54.6 -21.8 -49.75 -21.85 -49.55 -22.0 -46.1 -21.95 -44.9 -21.9 -44.7 -21.9 -44.5 -21.75 -43.3 -21.35 -41.75 -21.1 -41.25 -21.0 -40.9 -20.8 -40.6 -20.75 -40.45 -20.45 -40.0 -20.35 -39.9 -20.25 -39.75 -20.0 -39.5 -19.9 -39.35 -19.75 -39.25" fill="#333333" fill-rule="evenodd" stroke="none"/>
  </g>
</svg>
