<?xml version="1.0" encoding="UTF-8" standalone="no"?>
<svg xmlns:xlink="http://www.w3.org/1999/xlink" height="42.25px" width="68.0px" xmlns="http://www.w3.org/2000/svg">
  <g transform="matrix(1.0, 0.0, 0.0, 1.0, 34.0, 21.1)">
    <path d="M-9.5 6.5 Q0.6 2.35 9.75 -20.5 L19.65 -12.8 Q18.5 3.35 -0.25 11.55 -6.5 14.1 -33.2 13.7 -32.6 12.2 -29.85 10.55 -20.85 5.25 -9.5 6.5 -5.25 8.1 -2.85 4.6 -5.25 8.1 -9.5 6.5" fill="#faefb9" fill-opacity="0.99607843" fill-rule="evenodd" stroke="none"/>
    <path d="M19.65 -12.8 L33.4 -2.15 Q24.4 13.95 3.4 20.55 -14.0 20.2 -31.2 17.4 -34.1 15.7 -33.2 13.7 -6.5 14.1 -0.25 11.55 18.5 3.35 19.65 -12.8" fill="#efcd9a" fill-rule="evenodd" stroke="none"/>
    <path d="M19.65 -12.8 L9.75 -20.5 Q0.6 2.35 -9.5 6.5 -5.25 8.1 -2.85 4.6 M-33.2 13.7 Q-34.1 15.7 -31.2 17.4 -14.0 20.2 3.4 20.55 24.4 13.95 33.4 -2.15 L19.65 -12.8 M-33.2 13.7 Q-32.6 12.2 -29.85 10.55 -20.85 5.25 -9.5 6.5" fill="none" stroke="#1d1a14" stroke-linecap="round" stroke-linejoin="round" stroke-width="1.2000000000000002"/>
  </g>
</svg>
