<?xml version="1.0" encoding="UTF-8" standalone="no"?>
<svg xmlns:xlink="http://www.w3.org/1999/xlink" height="64.7px" width="54.3px" xmlns="http://www.w3.org/2000/svg">
  <g transform="matrix(1.0, 0.0, 0.0, 1.0, 29.25, 29.95)">
    <path d="M-3.8 -17.3 Q10.75 -13.75 1.45 4.1 L0.8 5.25 -0.8 8.0 Q-8.95 21.6 -20.3 34.15 -34.55 26.8 -24.45 14.5 -13.6 -1.05 -3.8 -17.3" fill="#faefb9" fill-opacity="0.99607843" fill-rule="evenodd" stroke="none"/>
    <path d="M3.25 -29.35 L24.45 -20.9 Q21.75 -14.75 18.65 -8.55 9.1 10.3 -4.45 29.05 -10.4 34.15 -20.3 34.15 -8.95 21.6 -0.8 8.0 L0.8 5.25 1.45 4.1 Q10.75 -13.75 -3.8 -17.3 L-2.15 -20.05 -0.05 -23.6 3.25 -29.35" fill="#efcd9a" fill-rule="evenodd" stroke="none"/>
    <path d="M3.25 -29.35 L-0.05 -23.6 -2.15 -20.05 -3.8 -17.3 Q-13.6 -1.05 -24.45 14.5 -34.55 26.8 -20.3 34.15 -10.4 34.15 -4.45 29.05 9.1 10.3 18.65 -8.55 21.75 -14.75 24.45 -20.9" fill="none" stroke="#1d1a14" stroke-linecap="round" stroke-linejoin="round" stroke-width="1.2000000000000002"/>
  </g>
</svg>
