<?xml version="1.0" encoding="UTF-8" standalone="no"?>
<svg xmlns:xlink="http://www.w3.org/1999/xlink" height="68.0px" width="63.15px" xmlns="http://www.w3.org/2000/svg">
  <g transform="matrix(1.0, 0.0, 0.0, 1.0, 34.05, 32.2)">
    <path d="M7.65 -31.6 Q17.25 -28.0 22.65 -24.1 -5.8 21.2 -33.1 34.7 -34.8 20.4 -28.5 14.75 -9.15 -7.55 7.65 -31.6" fill="#faefb9" fill-opacity="0.99607843" fill-rule="evenodd" stroke="none"/>
    <path d="M-33.1 34.7 Q-5.8 21.2 22.65 -24.1 26.95 -21.0 28.5 -17.7 24.55 -8.2 5.65 11.35 L-14.05 31.55 Q-22.15 36.6 -33.1 34.7" fill="#efcd9a" fill-rule="evenodd" stroke="none"/>
    <path d="M7.65 -31.6 Q-9.15 -7.55 -28.5 14.75 -34.8 20.4 -33.1 34.7 -22.15 36.6 -14.05 31.55 L5.65 11.35 Q24.55 -8.2 28.5 -17.7" fill="none" stroke="#1d1a14" stroke-linecap="round" stroke-linejoin="round" stroke-width="1.2000000000000002"/>
  </g>
</svg>
