<?xml version="1.0" encoding="UTF-8" standalone="no"?>
<svg xmlns:xlink="http://www.w3.org/1999/xlink" height="36.9px" width="133.25px" xmlns="http://www.w3.org/2000/svg">
  <g transform="matrix(1.0, 0.0, 0.0, 1.0, 66.3, 18.45)">
    <path d="M51.9 -17.85 Q57.2 -13.9 61.75 -7.9 27.0 16.65 -66.05 10.15 -67.1 5.85 -63.3 0.8 17.75 0.35 44.3 -12.85 L45.55 -13.5 Q47.8 -14.75 49.65 -16.05 L50.0 -16.3 51.9 -17.85" fill="#faefb9" fill-opacity="0.99607843" fill-rule="evenodd" stroke="none"/>
    <path d="M-66.05 10.15 Q27.0 16.65 61.75 -7.9 64.15 -4.75 66.35 -1.05 L61.9 2.4 61.35 2.8 59.45 4.0 Q56.2 5.95 52.35 7.65 18.0 22.8 -62.6 15.5 -65.35 13.0 -66.05 10.15" fill="#efcd9a" fill-rule="evenodd" stroke="none"/>
    <path d="M51.9 -17.85 L50.0 -16.3 49.65 -16.05 Q47.8 -14.75 45.55 -13.5 L44.3 -12.85 Q17.75 0.35 -63.3 0.8 M66.35 -1.05 L61.9 2.4 61.35 2.8 59.45 4.0 Q56.2 5.95 52.35 7.65 18.0 22.8 -62.6 15.5" fill="none" stroke="#1d1a14" stroke-linecap="round" stroke-linejoin="round" stroke-width="1.2000000000000002"/>
  </g>
</svg>
