<?xml version="1.0" encoding="UTF-8" standalone="no"?>
<svg xmlns:xlink="http://www.w3.org/1999/xlink" height="95.95px" width="62.0px" xmlns="http://www.w3.org/2000/svg">
  <g transform="matrix(1.0, 0.0, 0.0, 1.0, 31.0, 47.95)">
    <path d="M-25.65 40.5 Q-28.45 36.6 -30.4 30.55 -28.8 12.7 -11.25 -5.0 -1.25 -16.35 1.35 -46.75 13.35 -48.75 21.5 -44.15 4.1 27.85 -9.35 38.45 -14.4 42.65 -25.65 40.5" fill="#faefb9" fill-opacity="0.99607843" fill-rule="evenodd" stroke="none"/>
    <path d="M-25.65 40.5 Q-14.4 42.65 -9.35 38.45 4.1 27.85 21.5 -44.15 26.75 -41.2 30.4 -35.55 27.85 3.55 -6.5 46.25 -18.7 50.2 -25.65 40.5" fill="#efcd9a" fill-rule="evenodd" stroke="none"/>
    <path d="M21.5 -44.15 Q13.35 -48.75 1.35 -46.75 -1.25 -16.35 -11.25 -5.0 -28.8 12.7 -30.4 30.55 -28.45 36.6 -25.65 40.5 -18.7 50.2 -6.5 46.25 27.85 3.55 30.4 -35.55 26.75 -41.2 21.5 -44.15 Z" fill="none" stroke="#1d1a14" stroke-linecap="round" stroke-linejoin="round" stroke-width="1.2000000000000002"/>
  </g>
</svg>
