<?xml version="1.0" encoding="UTF-8" standalone="no"?>
<svg xmlns:xlink="http://www.w3.org/1999/xlink" height="33.15px" width="97.5px" xmlns="http://www.w3.org/2000/svg">
  <g transform="matrix(1.0, 0.0, 0.0, 1.0, 48.75, 16.55)">
    <path d="M-46.9 -9.3 Q-44.55 -12.65 -37.6 -15.95 -23.15 -12.2 -3.0 -11.05 13.9 -10.25 27.9 -8.0 39.45 -0.75 44.4 4.3 20.55 8.5 -40.05 -3.95 -45.1 -4.2 -46.9 -9.3" fill="#faefb9" fill-opacity="0.99607843" fill-rule="evenodd" stroke="none"/>
    <path d="M-46.9 -9.3 Q-45.1 -4.2 -40.05 -3.95 20.55 8.5 44.4 4.3 47.1 7.05 47.85 9.15 49.5 13.9 42.75 16.0 24.65 16.0 9.65 13.2 L-10.55 9.2 -43.0 1.1 Q-50.65 -4.1 -46.9 -9.3" fill="#efcd9a" fill-rule="evenodd" stroke="none"/>
    <path d="M27.9 -8.0 Q13.9 -10.25 -3.0 -11.05 -23.15 -12.2 -37.6 -15.95 -44.55 -12.65 -46.9 -9.3 -50.65 -4.1 -43.0 1.1 L-10.55 9.2 9.65 13.2 Q24.65 16.0 42.75 16.0 49.5 13.9 47.85 9.15" fill="none" stroke="#1d1a14" stroke-linecap="round" stroke-linejoin="round" stroke-width="1.2000000000000002"/>
  </g>
</svg>
