<?xml version="1.0" encoding="UTF-8" standalone="no"?>
<svg xmlns:xlink="http://www.w3.org/1999/xlink" height="190.6px" width="100.1px" xmlns="http://www.w3.org/2000/svg">
  <g transform="matrix(1.0, 0.0, 0.0, 1.0, 50.05, 95.3)">
    <path d="M-26.9 71.35 L-30.0 67.0 Q-28.25 65.4 -20.75 71.4 -29.55 62.55 -33.65 48.65 -37.75 34.75 -42.55 19.3 -47.35 3.85 -49.45 -15.5 -43.7 -67.35 -12.55 -94.7 -6.5 -94.7 2.8 -88.3 18.75 -54.9 1.9 -41.75 -20.25 -61.9 -35.2 -1.2 -29.9 15.85 -27.7 21.45 -22.4 34.65 -16.65 44.25 -15.45 46.25 -8.95 63.35 -2.45 80.45 -13.9 77.6 -20.8 76.9 -26.9 71.35 M-20.75 71.4 L-19.75 72.25 -20.75 71.4" fill="#faefb9" fill-opacity="0.99607843" fill-rule="evenodd" stroke="none"/>
    <path d="M2.8 -88.3 L10.7 -82.25 Q42.25 -27.85 49.45 21.75 48.55 27.9 40.85 39.85 L40.85 33.75 Q36.7 39.05 37.55 43.45 L34.25 38.2 Q30.95 47.4 34.25 53.15 30.25 51.6 28.4 53.15 34.65 56.65 32.55 66.45 25.9 86.0 -5.1 94.7 L-14.5 88.05 Q-13.95 85.8 -8.15 88.05 -18.8 81.95 -26.9 71.35 -20.8 76.9 -13.9 77.6 -2.45 80.45 -8.95 63.35 -15.45 46.25 -16.65 44.25 -22.4 34.65 -27.7 21.45 -4.05 37.9 2.3 19.9 8.65 1.85 1.9 -41.75 18.75 -54.9 2.8 -88.3" fill="#efcd9a" fill-rule="evenodd" stroke="none"/>
    <path d="M-27.7 21.45 Q-29.9 15.85 -35.2 -1.2 -20.25 -61.9 1.9 -41.75 8.65 1.85 2.3 19.9 -4.05 37.9 -27.7 21.45" fill="#dbbc8e" fill-rule="evenodd" stroke="none"/>
    <path d="M40.85 39.85 L40.85 33.75 Q36.7 39.05 37.55 43.45 L34.25 38.2 Q30.95 47.4 34.25 53.15 30.25 51.6 28.4 53.15 34.65 56.65 32.55 66.45" fill="none" stroke="#1d1a14" stroke-linecap="round" stroke-linejoin="round" stroke-width="1.2000000000000002"/>
    <path d="M-26.9 71.35 L-30.0 67.0 Q-28.25 65.4 -20.75 71.4 -29.55 62.55 -33.65 48.65 -37.75 34.75 -42.55 19.3 -47.35 3.85 -49.45 -15.5 -43.7 -67.35 -12.55 -94.7 -6.5 -94.7 2.8 -88.3 L10.7 -82.25 Q42.25 -27.85 49.45 21.75 M-5.1 94.7 L-14.5 88.05 Q-13.95 85.8 -8.15 88.05 -18.8 81.95 -26.9 71.35 M-19.75 72.25 L-20.75 71.4" fill="none" stroke="#1d1a14" stroke-linecap="round" stroke-linejoin="miter-clip" stroke-miterlimit="3.0" stroke-width="1.2000000000000002"/>
  </g>
</svg>
