<?xml version="1.0" encoding="UTF-8" standalone="no"?>
<svg xmlns:xlink="http://www.w3.org/1999/xlink" height="129.85px" width="83.55px" xmlns="http://www.w3.org/2000/svg">
  <g transform="matrix(1.0, 0.0, 0.0, 1.0, 41.8, 64.95)">
    <path d="M26.7 -45.0 L37.9 -4.3 Q43.25 -10.5 39.85 1.1 30.6 3.75 25.55 12.35 19.35 28.7 19.5 34.3 20.5 52.5 -3.8 52.2 -7.25 44.0 -11.8 29.25 -17.05 12.05 -35.1 -20.05 L-39.5 -32.25 Q-42.75 -48.3 -39.8 -57.15 -37.8 -63.1 -34.8 -64.15 -23.85 -23.55 -14.25 -8.65 7.15 22.6 11.8 19.8 18.6 15.65 11.65 10.3 L0.35 -4.85 Q-2.85 -33.15 12.6 -45.0 20.2 -48.55 26.7 -45.0" fill="#faefb9" fill-opacity="0.99607843" fill-rule="evenodd" stroke="none"/>
    <path d="M0.35 -4.85 L11.65 10.3 Q18.6 15.65 11.8 19.8 7.15 22.6 -14.25 -8.65 -23.85 -23.55 -34.8 -64.15 L-31.65 -64.0 Q-26.5 -62.1 -19.4 -40.1 -15.05 -26.6 0.35 -4.85 M-3.8 52.2 Q20.5 52.5 19.5 34.3 19.35 28.7 25.55 12.35 30.6 3.75 39.85 1.1 34.5 6.75 34.65 9.6 36.75 5.95 41.15 7.95 34.3 18.7 31.55 42.55 32.25 52.45 22.3 59.95 9.95 68.65 0.15 59.95 -1.6 57.4 -3.8 52.2 M30.6 34.55 Q31.6 37.6 31.55 42.55 31.6 37.6 30.6 34.55" fill="#efcd9a" fill-rule="evenodd" stroke="none"/>
    <path d="M26.7 -45.0 Q20.2 -48.55 12.6 -45.0 -2.85 -33.15 0.35 -4.85 L11.65 10.3 M-34.8 -64.15 Q-37.8 -63.1 -39.8 -57.15 -42.75 -48.3 -39.5 -32.25 L-35.1 -20.05 Q-17.05 12.05 -11.8 29.25 -7.25 44.0 -3.8 52.2 -1.6 57.4 0.15 59.95 9.95 68.65 22.3 59.95 32.25 52.45 31.55 42.55 31.6 37.6 30.6 34.55 M39.85 1.1 Q34.5 6.75 34.65 9.6 36.75 5.95 41.15 7.95 34.3 18.7 31.55 42.55 M0.35 -4.85 Q-15.05 -26.6 -19.4 -40.1 -26.5 -62.1 -31.65 -64.0 L-34.8 -64.15" fill="none" stroke="#1d1a14" stroke-linecap="round" stroke-linejoin="round" stroke-width="1.2000000000000002"/>
  </g>
</svg>
