<?xml version="1.0" encoding="UTF-8" standalone="no"?>
<svg xmlns:xlink="http://www.w3.org/1999/xlink" height="80.7px" width="137.3px" xmlns="http://www.w3.org/2000/svg">
  <g transform="matrix(1.0, 0.0, 0.0, 1.0, 68.65, 40.05)">
    <path d="M-1.85 -30.45 Q18.7 -35.15 22.75 -40.05 22.6 -37.2 23.4 -35.4 39.5 -30.0 40.15 -20.6 19.3 -3.5 -11.75 4.65 L-2.75 7.45 1.45 8.9 14.65 13.2 Q31.15 18.05 40.7 18.4 61.7 19.15 66.3 22.85 46.2 29.5 21.95 25.8 -23.85 23.65 -64.85 1.2 -62.9 -2.15 -59.7 -5.4 L-54.5 -10.05 Q-52.45 -11.15 -50.9 -10.95 -44.35 -17.4 -33.7 -23.0 -23.0 -28.6 2.6 -34.05 2.85 -31.8 -1.85 -30.45 M-49.95 -10.7 L-50.9 -10.95 -49.95 -10.7" fill="#faefb9" fill-opacity="0.99607843" fill-rule="evenodd" stroke="none"/>
    <path d="M40.15 -20.6 Q60.95 -6.0 53.35 1.85 L51.85 3.2 Q10.4 10.4 -2.75 7.45 L-11.75 4.65 Q19.3 -3.5 40.15 -20.6 M66.3 22.85 L67.05 23.65 Q70.4 28.1 62.7 33.35 54.95 38.6 38.65 39.8 30.95 40.6 25.75 38.95 -9.65 27.95 -31.45 28.6 -53.25 29.25 -62.0 23.7 -70.75 18.1 -66.85 5.45 -66.1 3.3 -64.85 1.2 -23.85 23.65 21.95 25.8 46.2 29.5 66.3 22.85" fill="#efcd9a" fill-rule="evenodd" stroke="none"/>
    <path d="M51.85 3.2 Q43.0 10.0 14.65 13.2 L1.45 8.9 -2.75 7.45 Q10.4 10.4 51.85 3.2" fill="#dbbc8e" fill-rule="evenodd" stroke="none"/>
    <path d="M53.35 1.85 L51.85 3.2 Q43.0 10.0 14.65 13.2 31.15 18.05 40.7 18.4 61.7 19.15 66.3 22.85 L67.05 23.65 Q70.4 28.1 62.7 33.35 54.95 38.6 38.65 39.8 30.95 40.6 25.75 38.95 -9.65 27.95 -31.45 28.6 -53.25 29.25 -62.0 23.7 -70.75 18.1 -66.85 5.45 -66.1 3.3 -64.85 1.2 -62.9 -2.15 -59.7 -5.4 L-54.5 -10.05 Q-52.45 -11.15 -50.9 -10.95 -44.35 -17.4 -33.7 -23.0 -23.0 -28.6 2.6 -34.05 2.85 -31.8 -1.85 -30.45 M-50.9 -10.95 L-49.95 -10.7 M-11.75 4.65 L-2.75 7.45 1.45 8.9 14.65 13.2" fill="none" stroke="#1d1a14" stroke-linecap="round" stroke-linejoin="round" stroke-width="1.2000000000000002"/>
  </g>
</svg>
