<?xml version="1.0" encoding="UTF-8" standalone="no"?>
<svg xmlns:xlink="http://www.w3.org/1999/xlink" height="38.4px" width="69.85px" xmlns="http://www.w3.org/2000/svg">
  <g transform="matrix(1.0, 0.0, 0.0, 1.0, 34.95, 19.2)">
    <path d="M34.9 3.0 Q35.1 9.6 32.6 14.4 30.05 19.25 26.25 19.2 22.45 19.25 19.45 14.45 16.6 9.65 16.4 3.0 16.15 -3.7 18.6 -8.55 21.25 -13.3 25.05 -13.35 28.8 -13.45 31.7 -8.55 34.6 -3.8 34.9 3.0 M31.4 2.95 Q31.3 -1.45 29.4 -4.65 27.5 -7.7 24.95 -7.75 22.4 -7.65 20.8 -4.6 19.2 -1.5 19.4 2.9 19.55 7.35 21.2 10.45 23.25 13.6 25.85 13.55 28.45 13.55 29.85 10.35 31.65 7.4 31.4 2.95" fill="url(#gradient0)" fill-rule="evenodd" stroke="none"/>
    <path d="M31.4 2.95 Q31.65 7.4 29.85 10.35 28.45 13.55 25.85 13.55 23.25 13.6 21.2 10.45 19.55 7.35 19.4 2.9 19.2 -1.5 20.8 -4.6 22.4 -7.65 24.95 -7.75 27.5 -7.7 29.4 -4.65 31.3 -1.45 31.4 2.95 M-23.0 -4.5 Q-23.5 -0.7 -25.25 1.75 -26.85 4.3 -28.8 4.0 -30.8 3.75 -31.9 0.8 -32.9 -2.05 -32.4 -5.85 -31.95 -9.65 -30.4 -12.1 -28.6 -14.6 -26.65 -14.35 -24.7 -14.05 -23.65 -11.2 -22.55 -8.3 -23.0 -4.5" fill="#ffffff" fill-rule="evenodd" stroke="none"/>
    <path d="M-20.35 -4.1 Q-21.1 1.6 -23.7 5.55 -26.25 9.35 -29.2 8.9 -32.15 8.5 -33.85 4.05 -35.45 -0.35 -34.7 -6.1 -34.05 -11.9 -31.5 -15.75 -30.05 -17.85 -28.45 -18.65 -27.25 -19.35 -25.9 -19.15 -23.7 -18.85 -22.25 -16.3 L-21.35 -14.35 Q-19.7 -9.9 -20.35 -4.1 M-23.0 -4.5 Q-22.55 -8.3 -23.65 -11.2 -24.7 -14.05 -26.65 -14.35 -28.6 -14.6 -30.4 -12.1 -31.95 -9.65 -32.4 -5.85 -32.9 -2.05 -31.9 0.8 -30.8 3.75 -28.8 4.0 -26.85 4.3 -25.25 1.75 -23.5 -0.7 -23.0 -4.5" fill="url(#gradient1)" fill-rule="evenodd" stroke="none"/>
  </g>
  <defs>
    <linearGradient gradientTransform="matrix(4.0E-4, 0.0184, -0.0219, 2.0E-4, 25.6, 2.9)" gradientUnits="userSpaceOnUse" id="gradient0" spreadMethod="pad" x1="-819.2" x2="819.2">
      <stop offset="0.0" stop-color="#332727"/>
      <stop offset="1.0" stop-color="#6d5b5c"/>
    </linearGradient>
    <linearGradient gradientTransform="matrix(-0.0021, 0.0158, -0.017, -0.0022, -27.6, -5.1)" gradientUnits="userSpaceOnUse" id="gradient1" spreadMethod="pad" x1="-819.2" x2="819.2">
      <stop offset="0.0" stop-color="#332727"/>
      <stop offset="1.0" stop-color="#6d5b5c"/>
    </linearGradient>
  </defs>
</svg>
