<?xml version="1.0" encoding="UTF-8" standalone="no"?>
<svg xmlns:xlink="http://www.w3.org/1999/xlink" height="30.05px" width="92.1px" xmlns="http://www.w3.org/2000/svg">
  <g transform="matrix(1.0, 0.0, 0.0, 1.0, 85.15, -3.85)">
    <path d="M-4.4 25.15 Q-8.3 23.1 -16.5 23.6 -24.7 24.15 -39.35 29.6 -36.25 18.8 -30.8 11.25 -25.4 3.65 -12.45 3.85 L-8.05 4.25 Q-5.55 10.55 -4.4 25.15 M-76.45 30.85 Q-80.55 27.75 -84.55 22.0 -83.9 9.0 -73.95 4.95 -69.8 4.3 -66.95 7.2 -64.65 14.9 -76.45 30.85" fill="#faefb9" fill-opacity="0.99607843" fill-rule="evenodd" stroke="none"/>
    <path d="M-8.05 4.25 Q6.15 6.15 6.0 14.75 8.1 20.9 5.6 33.1 1.05 27.95 -4.4 25.15 -5.55 10.55 -8.05 4.25 M-69.15 33.3 Q-72.8 33.05 -76.45 30.85 -64.65 14.9 -66.95 7.2 -65.9 8.3 -65.0 9.9 -62.2 16.45 -69.15 33.3" fill="#efcd9a" fill-rule="evenodd" stroke="none"/>
    <path d="M5.6 33.1 Q1.05 27.95 -4.4 25.15 -8.3 23.1 -16.5 23.6 -24.7 24.15 -39.35 29.6 M-69.15 33.3 Q-72.8 33.05 -76.45 30.85 -80.55 27.75 -84.55 22.0" fill="none" stroke="#1d1a14" stroke-linecap="round" stroke-linejoin="round" stroke-width="1.2000000000000002"/>
  </g>
</svg>
