<?xml version="1.0" encoding="UTF-8" standalone="no"?>
<svg xmlns:xlink="http://www.w3.org/1999/xlink" height="18.1px" width="17.55px" xmlns="http://www.w3.org/2000/svg">
  <g transform="matrix(1.0, 0.0, 0.0, 1.0, 8.75, 9.05)">
    <path d="M-8.75 -8.9 L-8.75 -9.0 -8.6 -9.05 -7.2 -8.15 -7.1 -8.05 -6.95 -7.95 -4.35 -5.95 -4.0 -5.6 -3.0 -4.8 0.15 -1.65 3.05 -4.6 4.05 -5.4 4.4 -5.75 7.0 -7.75 7.15 -7.85 7.25 -7.95 8.65 -8.85 8.8 -8.8 8.8 -8.7 8.4 -7.95 8.25 -7.75 8.0 -7.25 7.9 -7.15 3.3 -1.0 2.05 0.3 7.0 6.7 7.3 7.15 7.4 7.25 7.65 7.75 7.8 7.95 8.2 8.7 8.2 8.8 8.05 8.85 6.65 7.95 6.55 7.85 6.4 7.75 3.8 5.75 3.45 5.4 2.45 4.6 0.15 2.25 -2.4 4.8 -3.4 5.6 -3.75 5.95 -6.35 7.95 -6.5 8.05 -6.6 8.15 -8.0 9.05 -8.15 9.0 -8.15 8.9 -7.75 8.15 -7.6 7.95 -7.35 7.45 -7.25 7.35 -6.95 6.9 -1.9 0.35 -1.8 0.3 -3.25 -1.2 -7.85 -7.35 -7.95 -7.45 -8.2 -7.95 -8.35 -8.15 -8.75 -8.9" fill="#ffffff" fill-rule="evenodd" stroke="none"/>
  </g>
</svg>
