<?xml version="1.0" encoding="UTF-8" standalone="no"?>
<svg xmlns:xlink="http://www.w3.org/1999/xlink" height="41.55px" width="25.7px" xmlns="http://www.w3.org/2000/svg">
  <g transform="matrix(1.0, 0.0, 0.0, 1.0, 12.85, 17.75)">
    <path d="M7.6 -5.15 Q8.6 -2.1 12.25 -0.7 L-0.8 12.9 Q-3.65 15.9 -8.45 17.1 -9.35 17.35 -10.05 17.1 5.7 4.05 7.6 -5.15" fill="#efcd9a" fill-rule="evenodd" stroke="none"/>
    <path d="M-10.05 17.1 Q-11.25 16.6 -11.75 14.45 -12.7 10.2 -11.75 5.95 -9.1 -5.25 -1.75 -11.5 2.6 -15.2 10.05 -17.15 6.2 -9.5 7.6 -5.15 5.7 4.05 -10.05 17.1" fill="#faefb9" fill-opacity="0.99607843" fill-rule="evenodd" stroke="none"/>
    <path d="M12.25 -0.7 L-0.8 12.9 Q-3.65 15.9 -8.45 17.1 -9.35 17.35 -10.05 17.1 -11.25 16.6 -11.75 14.45 -12.7 10.2 -11.75 5.95 -9.1 -5.25 -1.75 -11.5 2.6 -15.2 10.05 -17.15" fill="none" stroke="#1d1a14" stroke-linecap="round" stroke-linejoin="round" stroke-width="1.2000000000000002"/>
    <path d="M-11.45 16.15 L-11.85 14.65 -12.15 13.15 -12.75 10.25 Q-12.75 8.8 -11.45 7.3 L-11.45 4.75 Q-11.3 3.2 -10.1 3.2 L-9.25 3.45 -9.0 3.95 Q-8.5 2.55 -8.4 -2.25 -8.35 -5.6 -6.95 -5.6 -5.3 -5.6 -5.55 -3.5 L-6.1 0.2 Q-5.4 -0.7 -3.35 -1.9 -1.4 -3.1 -0.75 -3.1 2.7 -3.1 2.7 -1.7 2.7 -1.15 1.75 -0.25 0.65 0.8 -0.4 0.8 L-1.3 0.5 -1.55 0.0 Q-3.65 0.85 -5.55 3.95 -7.15 6.5 -8.9 6.3 L-9.15 5.7 Q-9.5 5.1 -10.1 5.1 -11.45 5.1 -11.45 8.4 -11.45 9.3 -10.1 9.85 L-10.2 10.45 -10.15 10.75 -10.1 10.9 Q-11.4 11.75 -11.3 13.1 -11.15 15.3 -11.45 16.15 M-8.45 15.25 L-6.65 14.6 -4.85 14.05 Q-5.05 13.3 -4.6 12.55 -5.4 12.05 -5.4 10.5 -5.4 9.55 -5.0 8.7 -4.55 7.65 -3.7 7.65 -2.75 7.65 -2.6 8.55 L-2.65 9.7 -3.25 10.2 -3.5 11.15 -3.3 12.1 -3.15 12.65 -3.3 13.75 Q-3.2 14.5 -2.1 14.5 L-1.3 14.35 Q-1.75 14.95 -3.7 15.85 -6.5 17.1 -7.6 18.25 -8.2 18.9 -8.1 20.05 L-7.85 21.6 -7.85 23.0 Q-8.05 23.8 -9.2 23.8 -10.15 23.8 -10.7 21.3 -11.1 19.5 -11.1 18.05 -10.0 18.05 -9.2 17.25 -8.45 16.4 -8.45 15.25 M-1.85 8.9 L-1.2 7.75 Q-1.1 8.45 -0.65 8.8 L-1.85 8.9 M0.8 11.5 L0.5 12.3 Q0.2 12.6 -0.25 12.6 L0.8 11.5 M-0.05 -8.45 Q-1.8 -4.25 -2.95 -4.25 -3.9 -4.25 -4.1 -4.9 L-4.15 -5.65 Q-4.15 -6.15 -2.65 -8.5 -2.0 -9.85 -1.0 -9.65 -0.05 -9.45 -0.05 -8.45 M12.25 4.95 L11.85 6.95 Q11.3 8.6 10.35 8.6 8.8 8.6 9.05 7.1 9.25 6.15 9.85 5.15 L9.85 4.8 8.95 4.8 Q7.95 4.8 7.6 4.2 L7.45 3.6 Q7.45 2.6 8.9 1.25 10.4 -0.3 11.35 0.85 L11.9 3.05 12.25 4.95" fill="#ffffff" fill-opacity="0.49803922" fill-rule="evenodd" stroke="none"/>
    <path d="M-8.9 6.3 L-8.95 8.3 Q-9.1 9.6 -10.1 9.85 -11.45 9.3 -11.45 8.4 -11.45 5.1 -10.1 5.1 -9.5 5.1 -9.15 5.7 L-8.9 6.3 M-10.1 10.9 L-9.7 10.8 -8.45 11.7 -8.45 15.25 Q-8.45 16.4 -9.2 17.25 -10.0 18.05 -11.1 18.05 -11.45 17.2 -11.45 16.15 -11.15 15.3 -11.3 13.1 -11.4 11.75 -10.1 10.9 M-2.65 9.7 L-1.85 8.9 -0.65 8.8 Q-1.1 8.45 -1.2 7.75 -1.15 6.95 -0.7 6.35 0.0 5.35 1.4 5.35 2.4 5.35 2.65 5.95 L2.7 6.7 3.45 5.05 Q4.0 3.85 4.85 3.85 5.75 3.85 6.0 4.6 L6.1 5.35 Q6.1 6.85 4.45 8.3 L0.8 11.5 -0.25 12.6 -1.15 14.05 -1.25 14.3 -1.3 14.35 -2.1 14.5 Q-3.2 14.5 -3.3 13.75 L-3.15 12.65 -3.3 12.1 -3.5 11.15 -3.25 10.2 -2.65 9.7" fill="#ffffff" fill-opacity="0.69803923" fill-rule="evenodd" stroke="none"/>
  </g>
</svg>
