<?xml version="1.0" encoding="UTF-8" standalone="no"?>
<svg xmlns:xlink="http://www.w3.org/1999/xlink" height="28.15px" width="14.8px" xmlns="http://www.w3.org/2000/svg">
  <g transform="matrix(1.0, 0.0, 0.0, 1.0, 0.0, 0.0)">
    <path d="M14.6 15.1 Q13.85 20.8 11.25 24.75 8.7 28.55 5.75 28.1 2.8 27.7 1.1 23.25 -0.5 18.85 0.25 13.1 0.9 7.3 3.45 3.45 6.05 -0.35 9.05 0.05 12.0 0.45 13.6 4.85 15.25 9.3 14.6 15.1 M11.95 14.7 Q12.4 10.9 11.3 8.0 10.25 5.15 8.3 4.85 6.35 4.6 4.55 7.1 3.0 9.55 2.55 13.35 2.05 17.15 3.05 20.0 4.15 22.95 6.15 23.2 8.1 23.5 9.7 20.95 11.45 18.5 11.95 14.7" fill="url(#gradient0)" fill-rule="evenodd" stroke="none"/>
    <path d="M11.95 14.7 Q11.45 18.5 9.7 20.95 8.1 23.5 6.15 23.2 4.15 22.95 3.05 20.0 2.05 17.15 2.55 13.35 3.0 9.55 4.55 7.1 6.35 4.6 8.3 4.85 10.25 5.15 11.3 8.0 12.4 10.9 11.95 14.7" fill="#ffffff" fill-rule="evenodd" stroke="none"/>
  </g>
  <defs>
    <linearGradient gradientTransform="matrix(-0.0021, 0.0158, -0.017, -0.0022, 7.35, 14.1)" gradientUnits="userSpaceOnUse" id="gradient0" spreadMethod="pad" x1="-819.2" x2="819.2">
      <stop offset="0.0" stop-color="#332727"/>
      <stop offset="1.0" stop-color="#6d5b5c"/>
    </linearGradient>
  </defs>
</svg>
