<?xml version="1.0" encoding="UTF-8" standalone="no"?>
<svg xmlns:xlink="http://www.w3.org/1999/xlink" height="32.55px" width="18.5px" xmlns="http://www.w3.org/2000/svg">
  <g transform="matrix(1.0, 0.0, 0.0, 1.0, 0.0, 0.0)">
    <path d="M15.0 16.3 Q14.9 11.9 13.0 8.7 11.1 5.65 8.55 5.6 6.0 5.7 4.4 8.75 2.8 11.85 3.0 16.25 3.15 20.7 4.8 23.8 6.85 26.95 9.45 26.9 12.05 26.9 13.45 23.7 15.25 20.75 15.0 16.3 M18.5 16.35 Q18.7 22.95 16.2 27.75 13.65 32.6 9.85 32.55 6.05 32.6 3.05 27.8 0.2 23.0 0.0 16.35 -0.25 9.65 2.2 4.8 4.85 0.05 8.65 0.0 12.4 -0.1 15.3 4.8 18.2 9.55 18.5 16.35" fill="url(#gradient0)" fill-rule="evenodd" stroke="none"/>
    <path d="M15.0 16.3 Q15.25 20.75 13.45 23.7 12.05 26.9 9.45 26.9 6.85 26.95 4.8 23.8 3.15 20.7 3.0 16.25 2.8 11.85 4.4 8.75 6.0 5.7 8.55 5.6 11.1 5.65 13.0 8.7 14.9 11.9 15.0 16.3" fill="#ffffff" fill-rule="evenodd" stroke="none"/>
  </g>
  <defs>
    <linearGradient gradientTransform="matrix(4.0E-4, 0.0184, -0.0219, 2.0E-4, 9.2, 16.25)" gradientUnits="userSpaceOnUse" id="gradient0" spreadMethod="pad" x1="-819.2" x2="819.2">
      <stop offset="0.0" stop-color="#332727"/>
      <stop offset="1.0" stop-color="#6d5b5c"/>
    </linearGradient>
  </defs>
</svg>
