<?xml version="1.0" encoding="UTF-8" standalone="no"?>
<svg xmlns:xlink="http://www.w3.org/1999/xlink" height="183.45px" width="223.1px" xmlns="http://www.w3.org/2000/svg">
  <g transform="matrix(1.0, 0.0, 0.0, 1.0, 111.55, 91.75)">
    <path d="M40.65 -4.4 Q31.45 -2.85 21.3 -4.65 L18.1 -5.3 19.8 -4.7 Q13.25 -5.2 4.45 -9.1 L18.25 0.45 Q13.15 -1.15 7.75 -3.5 3.4 -5.4 -2.05 -4.1 -42.9 9.05 -65.5 -2.55 -50.2 -18.1 3.25 -30.95 33.85 -33.35 61.4 -39.0 64.5 -40.5 67.25 -41.95 73.75 -44.65 76.95 -45.2 73.0 -40.9 66.9 -35.65 72.05 -37.85 74.65 -40.5 L78.95 -41.35 Q95.85 -44.8 110.65 -51.75 96.95 -38.5 77.95 -27.15 76.25 -27.3 73.35 -25.65 56.9 -15.2 35.3 -9.7 27.95 -8.95 19.85 -9.9 30.5 -5.35 40.65 -4.4 M68.0 -40.4 L61.4 -39.0 68.0 -40.4 M-110.45 -72.95 Q-107.15 -67.9 -102.65 -65.9 -101.0 -59.1 -98.9 -52.5 -103.85 -57.1 -107.05 -63.85 -109.1 -68.0 -110.45 -72.95 M-106.25 -86.4 L-106.8 -91.15 Q-101.75 -81.5 -96.4 -73.7 L-91.55 -67.0 Q-92.5 -60.7 -88.4 -49.0 -95.65 -59.5 -101.15 -72.65 L-101.4 -73.25 -101.6 -73.7 Q-104.1 -79.75 -106.25 -86.4 M-87.75 -75.7 L-87.3 -76.75 -81.9 -56.65 Q-68.5 -42.75 -50.3 -33.0 -56.25 -31.65 -61.05 -28.25 -78.45 -42.35 -86.8 -62.0 -89.1 -63.5 -88.0 -73.7 L-87.75 -75.7 M-86.8 -62.0 L-81.9 -56.65 -86.8 -62.0" fill="#af7eaa" fill-rule="evenodd" stroke="none"/>
    <path d="M35.3 -9.7 L32.7 -9.1 44.0 -5.1 40.65 -4.4 Q30.5 -5.35 19.85 -9.9 27.95 -8.95 35.3 -9.7 M19.8 -4.7 Q26.95 -2.1 33.05 3.55 25.95 2.85 18.25 0.45 L4.45 -9.1 Q13.25 -5.2 19.8 -4.7 M38.95 46.4 Q46.4 41.65 53.15 33.7 68.45 15.6 80.0 -19.05 81.4 -26.85 77.95 -27.15 96.95 -38.5 110.65 -51.75 L110.95 -51.9 Q105.35 -42.05 96.1 -34.2 100.35 -36.45 103.8 -35.55 97.55 -23.75 86.75 -19.65 74.35 28.25 41.0 55.75 L38.95 46.4 M78.95 -41.35 L74.65 -40.5 Q72.05 -37.85 66.9 -35.65 73.0 -40.9 76.95 -45.2 79.95 -48.55 81.75 -51.3 L84.05 -53.4 Q83.55 -45.75 78.95 -41.35 M88.7 -27.95 L86.75 -19.65 88.7 -27.95 M91.1 -30.65 Q93.7 -32.95 96.1 -34.2 93.7 -32.95 91.1 -30.65" fill="#9a658e" fill-rule="evenodd" stroke="none"/>
    <path d="M40.65 -4.4 L44.0 -5.1 32.7 -9.1 35.3 -9.7 Q56.9 -15.2 73.35 -25.65 76.25 -27.3 77.95 -27.15 81.4 -26.85 80.0 -19.05 68.45 15.6 53.15 33.7 46.4 41.65 38.95 46.4 37.0 36.8 35.95 27.4 36.05 24.4 38.6 22.5 L35.05 22.05 Q39.95 19.85 40.05 16.4 37.8 18.3 33.1 18.55 38.2 13.8 38.6 7.05 35.8 10.95 32.85 11.3 36.35 7.8 36.3 3.8 L33.05 3.55 Q26.95 -2.1 19.8 -4.7 L18.1 -5.3 21.3 -4.65 Q31.45 -2.85 40.65 -4.4" fill="url(#gradient0)" fill-rule="evenodd" stroke="none"/>
    <path d="M76.95 -45.2 Q73.75 -44.65 67.25 -41.95 76.5 -46.85 81.75 -51.3 79.95 -48.55 76.95 -45.2 M-88.45 23.0 Q-104.55 -13.7 -100.15 -45.2 L-98.85 -23.8 Q-98.4 -17.1 -96.1 -7.1 -92.1 8.75 -86.05 18.45 L-88.45 23.0 M-105.65 -53.95 Q-111.5 -64.85 -110.9 -73.65 L-110.85 -73.6 -110.45 -72.95 Q-109.1 -68.0 -107.05 -63.85 -104.0 -56.4 -105.65 -53.95 M-102.65 -65.9 L-104.3 -73.7 Q-105.5 -79.95 -106.25 -86.4 -104.1 -79.75 -101.6 -73.7 L-101.4 -73.25 -101.15 -72.65 Q-98.05 -61.25 -98.9 -52.5 -101.0 -59.1 -102.65 -65.9" fill="#d1bcd3" fill-rule="evenodd" stroke="none"/>
    <path d="M33.05 3.55 L36.3 3.8 Q36.35 7.8 32.85 11.3 35.8 10.95 38.6 7.05 38.2 13.8 33.1 18.55 37.8 18.3 40.05 16.4 39.95 19.85 35.05 22.05 L38.6 22.5 Q36.05 24.4 35.95 27.4 37.0 36.8 38.95 46.4 L41.0 55.75 Q43.2 64.55 46.1 73.65 41.75 71.35 36.05 71.25 24.25 70.6 16.4 75.15 13.65 77.6 10.5 79.7 4.05 84.15 -4.05 86.85 L-34.8 90.35 Q-52.45 92.0 -57.35 90.0 -59.75 84.25 -58.35 80.15 -55.35 80.7 -51.0 80.15 -42.15 78.9 -35.45 69.3 L-33.1 65.55 Q-30.15 60.35 -27.65 53.3 3.4 54.4 9.3 33.55 L5.6 33.1 6.1 30.8 Q10.4 9.45 -3.65 7.15 L-6.55 7.0 Q-8.95 0.25 -29.15 5.0 -39.55 7.75 -54.55 8.4 -61.8 9.4 -75.2 -3.25 -69.9 -4.6 -65.5 -2.55 -42.9 9.05 -2.05 -4.1 3.4 -5.4 7.75 -3.5 13.15 -1.15 18.25 0.45 25.95 2.85 33.05 3.55 M-74.75 70.85 Q-88.4 54.7 -105.2 43.0 -94.45 47.0 -85.05 53.15 -80.8 62.4 -74.75 70.85 M-69.0 8.2 Q-68.3 7.15 -66.95 7.2 -64.35 8.3 -62.05 16.0 -62.5 23.95 -64.25 31.7 -66.3 33.8 -69.15 33.3 -61.0 14.3 -69.0 8.2 M-53.3 35.7 Q-49.2 32.05 -43.4 32.3 -45.1 34.95 -44.5 38.95 -50.55 39.9 -53.3 35.7" fill="#efcd9a" fill-rule="evenodd" stroke="none"/>
    <path d="M-57.35 90.0 L-58.8 89.05 Q-67.95 80.4 -74.75 70.85 -80.8 62.4 -85.05 53.15 -94.45 47.0 -105.2 43.0 -94.35 33.3 -88.45 23.0 L-86.05 18.45 Q-84.15 14.25 -83.05 10.05 -79.35 7.75 -82.85 1.7 L-77.2 5.0 Q-79.25 1.5 -79.75 -3.85 L-75.2 -3.25 Q-61.8 9.4 -54.55 8.4 -39.55 7.75 -29.15 5.0 -8.95 0.25 -6.55 7.0 -37.4 6.0 -39.95 33.8 L-40.15 37.1 Q-16.7 45.35 4.95 35.45 L9.3 33.55 Q3.4 54.4 -27.65 53.3 -36.55 53.8 -44.8 52.85 L-49.35 52.2 Q-56.1 51.0 -62.4 48.75 L-67.25 49.15 -72.15 49.6 -74.2 49.75 Q-67.4 61.3 -64.6 71.75 -64.75 74.05 -64.05 75.8 -62.75 79.25 -58.35 80.15 -59.75 84.25 -57.35 90.0 M-69.15 33.3 Q-66.3 33.8 -64.25 31.7 -62.5 23.95 -62.05 16.0 -64.35 8.3 -66.95 7.2 -68.3 7.15 -69.0 8.2 L-69.45 7.85 Q-82.75 5.2 -84.55 22.0 L-86.0 21.9 -84.65 23.25 Q-78.3 31.95 -69.15 33.3 M-54.55 38.6 Q-61.75 35.75 -68.9 36.7 -70.35 37.55 -69.15 38.65 -67.65 41.3 -62.2 42.8 -57.8 42.95 -55.1 41.25 -52.8 40.2 -54.55 38.6 M-53.3 35.7 Q-50.55 39.9 -44.5 38.95 -45.1 34.95 -43.4 32.3 -49.2 32.05 -53.3 35.7" fill="#faefb9" fill-opacity="0.99607843" fill-rule="evenodd" stroke="none"/>
    <path d="M46.1 73.65 Q28.3 74.2 10.5 79.7 13.65 77.6 16.4 75.15 24.25 70.6 36.05 71.25 41.75 71.35 46.1 73.65" fill="#dbbc8e" fill-rule="evenodd" stroke="none"/>
    <path d="M3.25 -30.95 Q-50.2 -18.1 -65.5 -2.55 -69.9 -4.6 -75.2 -3.25 L-79.75 -3.85 -82.6 -5.2 Q-77.55 -4.6 -73.65 -7.0 -80.15 -8.15 -85.4 -11.75 L-75.85 -10.5 Q-89.25 -18.75 -92.7 -34.3 -96.85 -48.05 -97.8 -32.4 -94.7 -8.85 -90.25 1.65 -87.0 9.25 -83.05 10.05 -84.15 14.25 -86.05 18.45 -92.1 8.75 -96.1 -7.1 -98.4 -17.1 -98.85 -23.8 L-100.15 -45.2 -98.9 -52.5 -100.15 -45.2 Q-103.4 -49.75 -105.65 -53.95 -104.0 -56.4 -107.05 -63.85 -103.85 -57.1 -98.9 -52.5 -98.05 -61.25 -101.15 -72.65 -95.65 -59.5 -88.4 -49.0 -92.5 -60.7 -91.55 -67.0 L-87.75 -75.7 -88.0 -73.7 Q-89.1 -63.5 -86.8 -62.0 -78.45 -42.35 -61.05 -28.25 -56.25 -31.65 -50.3 -33.0 -44.6 -34.35 -37.85 -33.85 -14.55 -29.8 3.25 -30.95" fill="#b889b4" fill-rule="evenodd" stroke="none"/>
    <path d="M-79.75 -3.85 Q-79.25 1.5 -77.2 5.0 L-82.85 1.7 Q-79.35 7.75 -83.05 10.05 -87.0 9.25 -90.25 1.65 -94.7 -8.85 -97.8 -32.4 -96.85 -48.05 -92.7 -34.3 -89.25 -18.75 -75.85 -10.5 L-85.4 -11.75 Q-80.15 -8.15 -73.65 -7.0 -77.55 -4.6 -82.6 -5.2 L-79.75 -3.85" fill="url(#gradient1)" fill-rule="evenodd" stroke="none"/>
    <path d="M-54.55 38.6 Q-52.8 40.2 -55.1 41.25 -57.8 42.95 -62.2 42.8 -67.65 41.3 -69.15 38.65 -70.35 37.55 -68.9 36.7 -61.75 35.75 -54.55 38.6" fill="#333333" fill-rule="evenodd" stroke="none"/>
    <path d="M-27.65 53.3 Q-30.15 60.35 -33.1 65.55 -34.7 64.3 -36.8 63.7 -43.85 61.6 -56.35 66.7 -60.95 69.2 -64.05 75.8 -64.75 74.05 -64.6 71.75 -67.4 61.3 -74.2 49.75 L-72.15 49.6 -69.0 54.2 -67.25 49.15 -62.4 48.75 Q-56.1 51.0 -49.35 52.2 L-47.6 57.0 -44.8 52.85 Q-36.55 53.8 -27.65 53.3" fill="url(#gradient2)" fill-rule="evenodd" stroke="none"/>
    <path d="M-49.35 52.2 L-44.8 52.85 -47.6 57.0 -49.35 52.2 M-67.25 49.15 L-69.0 54.2 -72.15 49.6 -67.25 49.15" fill="#ffffff" fill-rule="evenodd" stroke="none"/>
    <path d="M-33.1 65.55 L-35.45 69.3 Q-38.2 67.35 -44.0 66.4 -45.3 67.05 -46.35 67.95 -45.35 65.2 -53.9 66.45 L-56.35 66.7 Q-43.85 61.6 -36.8 63.7 -34.7 64.3 -33.1 65.55" fill="#b3444b" fill-rule="evenodd" stroke="none"/>
    <path d="M-35.45 69.3 Q-42.15 78.9 -51.0 80.15 -55.35 80.7 -58.35 80.15 -62.75 79.25 -64.05 75.8 -60.95 69.2 -56.35 66.7 L-53.9 66.45 Q-45.35 65.2 -46.35 67.95 -45.3 67.05 -44.0 66.4 -38.2 67.35 -35.45 69.3" fill="#e5807c" fill-rule="evenodd" stroke="none"/>
    <path d="M35.3 -9.7 L32.7 -9.1 44.0 -5.1 40.65 -4.4 Q31.45 -2.85 21.3 -4.65 L18.1 -5.3 19.8 -4.7 Q26.95 -2.1 33.05 3.55 L36.3 3.8 Q36.35 7.8 32.85 11.3 35.8 10.95 38.6 7.05 38.2 13.8 33.1 18.55 37.8 18.3 40.05 16.4 39.95 19.85 35.05 22.05 L38.6 22.5 Q36.05 24.4 35.95 27.4 37.0 36.8 38.95 46.4 46.4 41.65 53.15 33.7 68.45 15.6 80.0 -19.05 81.4 -26.85 77.95 -27.15 76.25 -27.3 73.35 -25.65 56.9 -15.2 35.3 -9.7 M-65.5 -2.55 Q-42.9 9.05 -2.05 -4.1 3.4 -5.4 7.75 -3.5 13.15 -1.15 18.25 0.45 25.95 2.85 33.05 3.55 M110.95 -51.9 Q105.35 -42.05 96.1 -34.2 100.35 -36.45 103.8 -35.55 97.55 -23.75 86.75 -19.65 74.35 28.25 41.0 55.75 43.2 64.55 46.1 73.65 28.3 74.2 10.5 79.7 4.05 84.15 -4.05 86.85 L-34.8 90.35 Q-52.45 92.0 -57.35 90.0 L-58.8 89.05 Q-67.95 80.4 -74.75 70.85 -88.4 54.7 -105.2 43.0 -94.35 33.3 -88.45 23.0 -104.55 -13.7 -100.15 -45.2 -103.4 -49.75 -105.65 -53.95 -111.5 -64.85 -110.9 -73.65 L-110.85 -73.6 M-110.45 -72.95 Q-107.15 -67.9 -102.65 -65.9 L-104.3 -73.7 Q-105.5 -79.95 -106.25 -86.4 L-106.8 -91.15 Q-101.75 -81.5 -96.4 -73.7 L-91.55 -67.0 M96.1 -34.2 Q93.7 -32.95 91.1 -30.65 M86.75 -19.65 L88.7 -27.95 M-75.2 -3.25 L-79.75 -3.85 Q-79.25 1.5 -77.2 5.0 L-82.85 1.7 Q-79.35 7.75 -83.05 10.05 -84.15 14.25 -86.05 18.45 L-88.45 23.0 M10.5 79.7 Q13.65 77.6 16.4 75.15 M41.0 55.75 L38.95 46.4 M-98.9 -52.5 Q-101.0 -59.1 -102.65 -65.9 M-83.05 10.05 Q-87.0 9.25 -90.25 1.65 -94.7 -8.85 -97.8 -32.4 -96.85 -48.05 -92.7 -34.3 -89.25 -18.75 -75.85 -10.5 L-85.4 -11.75 Q-80.15 -8.15 -73.65 -7.0 -77.55 -4.6 -82.6 -5.2 L-79.75 -3.85 M-98.9 -52.5 L-100.15 -45.2 M-65.5 -2.55 Q-69.9 -4.6 -75.2 -3.25 M-74.75 70.85 Q-80.8 62.4 -85.05 53.15" fill="none" stroke="#1d1a14" stroke-linecap="round" stroke-linejoin="miter-clip" stroke-miterlimit="3.0" stroke-width="1.2000000000000002"/>
    <path d="M78.95 -41.35 L74.65 -40.5 M67.25 -41.95 Q64.5 -40.5 61.4 -39.0 L68.0 -40.4 M61.4 -39.0 Q33.85 -33.35 3.25 -30.95 -14.55 -29.8 -37.85 -33.85 -44.6 -34.35 -50.3 -33.0 -68.5 -42.75 -81.9 -56.65 L-86.8 -62.0 M81.75 -51.3 L84.05 -53.4 Q83.55 -45.75 78.95 -41.35 95.85 -44.8 110.65 -51.75 M-91.55 -67.0 L-87.75 -75.7 -87.3 -76.75 -81.9 -56.65 M67.25 -41.95 Q76.5 -46.85 81.75 -51.3 M-6.55 7.0 L-3.65 7.15 Q10.4 9.45 6.1 30.8 L5.6 33.1 9.3 33.55 4.95 35.45 Q-16.7 45.35 -40.15 37.1 L-39.95 33.8 Q-37.4 6.0 -6.55 7.0 M-27.65 53.3 Q-30.15 60.35 -33.1 65.55 L-35.45 69.3 Q-42.15 78.9 -51.0 80.15 -55.35 80.7 -58.35 80.15 -62.75 79.25 -64.05 75.8 -60.95 69.2 -56.35 66.7 -43.85 61.6 -36.8 63.7 -34.7 64.3 -33.1 65.55 M-61.05 -28.25 Q-56.25 -31.65 -50.3 -33.0 M-69.0 8.2 Q-61.0 14.3 -69.15 33.3 -78.3 31.95 -84.65 23.25 L-86.0 21.9 -84.55 22.0 Q-82.75 5.2 -69.45 7.85 L-69.0 8.2 M-67.25 49.15 L-62.4 48.75 Q-56.1 51.0 -49.35 52.2 L-44.8 52.85 Q-36.55 53.8 -27.65 53.3 M-49.35 52.2 L-47.6 57.0 -44.8 52.85 M-72.15 49.6 L-69.0 54.2 -67.25 49.15 -72.15 49.6 -74.2 49.75 Q-67.4 61.3 -64.6 71.75 -64.75 74.05 -64.05 75.8" fill="none" stroke="#1d1a14" stroke-linecap="round" stroke-linejoin="round" stroke-width="1.2000000000000002"/>
    <path d="M110.65 -51.75 L110.95 -51.9 M-110.85 -73.6 L-110.45 -72.95" fill="none" stroke="#1d1a14" stroke-linecap="round" stroke-linejoin="round" stroke-width="0.05"/>
    <path d="M-36.9 63.1 Q-36.35 62.95 -36.15 63.55 -36.05 64.15 -36.65 64.25 L-37.2 64.35 -37.5 64.45 -37.85 64.5 -40.65 65.35 -40.9 65.4 -43.4 66.5 -43.8 66.75 -43.95 66.8 -44.95 67.35 Q-45.55 67.7 -45.85 68.0 L-46.05 68.15 -46.15 68.2 -46.2 68.2 -46.65 68.6 -47.75 69.6 -48.15 70.0 Q-48.3 70.2 -48.5 70.0 -48.75 69.9 -48.5 69.65 L-48.4 69.55 -48.15 69.2 -47.05 68.15 -46.55 67.65 -46.5 67.65 -46.3 67.45 -44.3 66.1 -44.15 66.05 -44.05 65.95 -41.55 64.65 -41.25 64.55 -41.0 64.4 -37.45 63.25 -36.9 63.1" fill="#1d1a14" fill-rule="evenodd" stroke="none"/>
  </g>
  <defs>
    <linearGradient gradientTransform="matrix(-0.0229, 0.0479, -0.0405, -0.0194, 69.45, 14.0)" gradientUnits="userSpaceOnUse" id="gradient0" spreadMethod="pad" x1="-819.2" x2="819.2">
      <stop offset="0.6274509803921569" stop-color="#1c1817"/>
      <stop offset="1.0" stop-color="#664f4f"/>
    </linearGradient>
    <linearGradient gradientTransform="matrix(0.0038, 0.0142, -0.03, 0.008, -84.75, -7.8)" gradientUnits="userSpaceOnUse" id="gradient1" spreadMethod="pad" x1="-819.2" x2="819.2">
      <stop offset="0.6274509803921569" stop-color="#1c1817"/>
      <stop offset="1.0" stop-color="#664f4f"/>
    </linearGradient>
    <linearGradient gradientTransform="matrix(0.0219, -0.0059, 0.0043, 0.0159, -50.95, 62.25)" gradientUnits="userSpaceOnUse" id="gradient2" spreadMethod="pad" x1="-819.2" x2="819.2">
      <stop offset="0.0" stop-color="#af386a"/>
      <stop offset="0.4196078431372549" stop-color="#842b50"/>
      <stop offset="1.0" stop-color="#000000"/>
    </linearGradient>
  </defs>
</svg>
