<?xml version="1.0" encoding="UTF-8" standalone="no"?>
<svg xmlns:xlink="http://www.w3.org/1999/xlink" height="19.05px" width="88.7px" xmlns="http://www.w3.org/2000/svg">
  <g transform="matrix(1.0, 0.0, 0.0, 1.0, 0.6, 0.0)">
    <path d="M72.35 0.4 Q86.55 2.3 86.4 10.9 L87.5 16.8 Q81.6 13.3 74.0 12.15 74.85 6.7 72.35 0.4 M11.7 11.6 Q15.75 11.05 13.45 3.35 14.5 4.45 15.4 6.05 18.2 12.6 15.15 16.1 13.65 13.5 11.7 11.6" fill="#efcd9a" fill-rule="evenodd" stroke="none"/>
    <path d="M74.0 12.15 L66.75 11.55 Q52.7 11.95 43.25 18.45 44.15 14.95 49.6 7.4 55.0 -0.2 67.95 0.0 L72.35 0.4 Q74.85 6.7 74.0 12.15 M13.45 3.35 Q15.75 11.05 11.7 11.6 7.1 7.2 0.0 6.75 1.45 2.7 6.45 1.1 10.6 0.45 13.45 3.35" fill="#faefb9" fill-opacity="0.99607843" fill-rule="evenodd" stroke="none"/>
    <path d="M87.5 16.8 Q81.6 13.3 74.0 12.15 L66.75 11.55 Q52.7 11.95 43.25 18.45 M11.7 11.6 Q13.65 13.5 15.15 16.1 M0.0 6.75 Q7.1 7.2 11.7 11.6" fill="none" stroke="#1d1a14" stroke-linecap="round" stroke-linejoin="round" stroke-width="1.2000000000000002"/>
  </g>
</svg>
