<?xml version="1.0" encoding="UTF-8" standalone="no"?>
<svg xmlns:xlink="http://www.w3.org/1999/xlink" height="12.95px" width="9.1px" xmlns="http://www.w3.org/2000/svg">
  <g transform="matrix(1.0, 0.0, 0.0, 1.0, 51.35, -77.0)">
    <path d="M-44.05 79.8 Q-44.05 79.05 -44.9 78.55 -45.75 78.0 -46.95 78.0 -48.15 78.0 -49.0 78.55 -49.85 79.05 -49.85 79.8 -49.85 80.55 -49.0 81.1 -48.15 81.6 -46.95 81.6 -45.75 81.6 -44.9 81.1 -44.05 80.55 -44.05 79.8 M-45.2 89.95 L-45.25 89.95 -45.3 89.95 Q-47.05 90.1 -47.05 88.4 -46.75 87.6 -46.75 86.6 L-46.95 85.6 -47.25 84.9 -47.75 84.15 -48.4 83.3 Q-49.0 82.25 -50.15 81.65 -51.35 81.0 -51.35 80.25 L-51.15 79.35 -50.65 78.95 Q-49.8 78.35 -48.6 78.15 L-46.55 77.5 Q-45.35 77.0 -44.35 77.0 -42.25 77.0 -42.25 78.4 L-42.35 79.25 -42.6 79.6 -43.35 80.75 -44.35 81.9 -44.6 82.15 -44.75 82.95 -44.4 84.1 -43.95 85.0 Q-43.65 86.5 -43.95 88.35 -43.95 87.65 -44.1 87.1 -44.25 86.05 -45.35 86.05 L-46.25 86.3 -46.45 86.8 -46.55 87.9 -46.5 89.0 Q-46.35 89.6 -45.3 89.95 L-45.2 89.95" fill="#ffffff" fill-opacity="0.49803922" fill-rule="evenodd" stroke="none"/>
    <path d="M-44.05 79.8 Q-44.05 80.55 -44.9 81.1 -45.75 81.6 -46.95 81.6 -48.15 81.6 -49.0 81.1 -49.85 80.55 -49.85 79.8 -49.85 79.05 -49.0 78.55 -48.15 78.0 -46.95 78.0 -45.75 78.0 -44.9 78.55 -44.05 79.05 -44.05 79.8 M-43.95 88.35 Q-43.95 89.0 -44.25 89.45 -44.6 89.9 -45.1 89.9 L-45.2 89.95 -45.3 89.95 Q-46.35 89.6 -46.5 89.0 L-46.55 87.9 -46.45 86.8 -46.25 86.3 -45.35 86.05 Q-44.25 86.05 -44.1 87.1 -43.95 87.65 -43.95 88.35" fill="#ffffff" fill-opacity="0.69803923" fill-rule="evenodd" stroke="none"/>
  </g>
</svg>
