<?xml version="1.0" encoding="UTF-8" standalone="no"?>
<svg xmlns:xlink="http://www.w3.org/1999/xlink" height="24.6px" width="90.75px" xmlns="http://www.w3.org/2000/svg">
  <g transform="matrix(1.0, 0.0, 0.0, 1.0, 2.65, 0.0)">
    <path d="M72.35 0.4 Q86.55 2.3 86.4 10.9 L87.5 17.9 Q79.45 21.45 70.5 23.05 L70.45 23.1 70.45 23.05 Q74.85 6.7 72.35 0.4 M70.5 23.05 L70.45 23.05 70.5 23.05 M13.45 3.35 Q14.5 4.45 15.4 6.05 18.2 12.6 15.25 17.2 10.95 19.75 5.25 17.95 15.75 11.05 13.45 3.35" fill="#efcd9a" fill-rule="evenodd" stroke="none"/>
    <path d="M70.45 23.05 L64.55 23.9 Q52.2 24.85 43.3 18.45 L43.25 18.45 Q44.15 14.95 49.6 7.4 55.0 -0.2 67.95 0.0 L72.35 0.4 Q74.85 6.7 70.45 23.05 M5.25 17.95 Q-0.35 14.05 -2.05 9.6 1.45 2.7 6.45 1.1 10.6 0.45 13.45 3.35 15.75 11.05 5.25 17.95" fill="#faefb9" fill-opacity="0.99607843" fill-rule="evenodd" stroke="none"/>
    <path d="M87.5 17.9 Q79.45 21.45 70.5 23.05 L70.45 23.05 64.55 23.9 Q52.2 24.85 43.3 18.45 L43.25 18.45 M15.25 17.2 Q10.95 19.75 5.25 17.95 -0.35 14.05 -2.05 9.6" fill="none" stroke="#1d1a14" stroke-linecap="round" stroke-linejoin="round" stroke-width="1.2000000000000002"/>
  </g>
</svg>
