<?xml version="1.0" encoding="UTF-8" standalone="no"?>
<svg xmlns:xlink="http://www.w3.org/1999/xlink" height="38.45px" width="93.7px" xmlns="http://www.w3.org/2000/svg">
  <g transform="matrix(1.0, 0.0, 0.0, 1.0, 5.2, 0.0)">
    <path d="M72.35 0.4 Q86.55 2.3 86.4 10.9 L87.5 17.9 Q90.95 36.95 63.6 37.8 82.4 28.7 72.35 0.4 M13.85 22.3 Q13.4 23.95 10.45 29.15 6.25 29.9 -0.15 23.7 L-0.2 23.65 -0.15 23.7 -0.25 23.7 -0.2 23.65 Q14.8 24.15 13.45 3.35 14.5 4.45 15.4 6.05 18.2 12.6 15.25 17.2 L13.85 22.3" fill="#efcd9a" fill-rule="evenodd" stroke="none"/>
    <path d="M63.6 37.8 L60.8 37.85 Q47.85 37.8 40.35 33.55 40.45 26.25 41.25 24.05 L43.25 18.45 Q44.15 14.95 49.6 7.4 55.0 -0.2 67.95 0.0 L72.35 0.4 Q82.4 28.7 63.6 37.8 M13.45 3.35 Q14.8 24.15 -0.2 23.65 L-4.6 18.9 Q-3.85 16.7 -4.1 16.45 -4.4 16.2 -2.45 11.05 -0.55 5.9 6.45 1.1 10.6 0.45 13.45 3.35" fill="#faefb9" fill-opacity="0.99607843" fill-rule="evenodd" stroke="none"/>
    <path d="M87.5 17.9 Q90.95 36.95 63.6 37.8 L60.8 37.85 Q47.85 37.8 40.35 33.55 40.45 26.25 41.25 24.05 M-0.15 23.7 Q6.25 29.9 10.45 29.15 13.4 23.95 13.85 22.3 M-0.2 23.65 L-0.15 23.7 M-0.2 23.65 L-4.6 18.9 Q-3.85 16.7 -4.1 16.45 -4.4 16.2 -2.45 11.05" fill="none" stroke="#1d1a14" stroke-linecap="round" stroke-linejoin="round" stroke-width="1.2000000000000002"/>
  </g>
</svg>
