<?xml version="1.0" encoding="UTF-8" standalone="no"?>
<svg xmlns:xlink="http://www.w3.org/1999/xlink" height="65.0px" width="90.0px" xmlns="http://www.w3.org/2000/svg">
  <g transform="matrix(1.0, 0.0, 0.0, 1.0, 45.0, 32.5)">
    <path d="M-37.85 31.75 Q-46.9 30.1 -43.4 13.4 -41.8 1.15 -32.55 -21.0 -23.85 -26.9 -17.05 -29.6 -41.8 6.65 -37.85 31.75" fill="#78cbdf" fill-rule="evenodd" stroke="none"/>
    <path d="M-37.85 31.75 Q-41.8 6.65 -17.05 -29.6 0.25 -36.55 4.5 -22.45 2.0 -6.05 -9.45 3.7 9.0 -2.5 28.35 1.35 60.45 10.9 28.35 23.65 -1.9 31.0 -32.9 31.65 -35.7 32.1 -37.85 31.75 M-13.2 7.15 L-9.45 3.7 -13.2 7.15" fill="#66a2af" fill-rule="evenodd" stroke="none"/>
    <path d="M-17.05 -29.6 Q-23.85 -26.9 -32.55 -21.0 -41.8 1.15 -43.4 13.4 -46.9 30.1 -37.85 31.75 -35.7 32.1 -32.9 31.65 -1.9 31.0 28.35 23.65 60.45 10.9 28.35 1.35 9.0 -2.5 -9.45 3.7 2.0 -6.05 4.5 -22.45 0.25 -36.55 -17.05 -29.6" fill="none" stroke="#22383d" stroke-linecap="round" stroke-linejoin="miter-clip" stroke-miterlimit="3.0" stroke-width="1.2000000000000002"/>
    <path d="M-9.45 3.7 L-13.2 7.15" fill="none" stroke="#22383d" stroke-linecap="round" stroke-linejoin="round" stroke-width="1.2000000000000002"/>
  </g>
</svg>
