<?xml version="1.0" encoding="UTF-8" standalone="no"?>
<svg xmlns:xlink="http://www.w3.org/1999/xlink" height="146.05px" width="84.6px" xmlns="http://www.w3.org/2000/svg">
  <g transform="matrix(1.0, 0.0, 0.0, 1.0, 42.3, 73.05)">
    <path d="M28.4 -63.45 Q9.75 -57.55 -0.85 -41.5 -8.75 -31.95 -11.0 -21.8 -12.0 -17.4 -11.9 -12.85 -11.2 21.15 -0.85 45.7 1.1 61.25 -25.5 61.9 -37.85 50.85 -41.7 30.4 -41.85 -0.25 -37.7 -21.8 -28.1 -71.15 4.3 -72.45 19.35 -70.3 28.4 -63.45" fill="#78cbdf" fill-rule="evenodd" stroke="none"/>
    <path d="M-25.5 61.9 Q1.1 61.25 -0.85 45.7 -11.2 21.15 -11.9 -12.85 -12.0 -17.4 -11.0 -21.8 -8.75 -31.95 -0.85 -41.5 9.75 -57.55 28.4 -63.45 45.1 -50.75 40.85 -21.8 40.25 -17.85 39.25 -13.55 20.6 19.7 6.05 60.1 L2.95 68.85 Q0.5 73.45 -6.65 72.05 -17.75 68.85 -25.5 61.9" fill="#66a2af" fill-rule="evenodd" stroke="none"/>
    <path d="M28.4 -63.45 Q19.35 -70.3 4.3 -72.45 -28.1 -71.15 -37.7 -21.8 -41.85 -0.25 -41.7 30.4 -37.85 50.85 -25.5 61.9 -17.75 68.85 -6.65 72.05 M2.95 68.85 L6.05 60.1 Q20.6 19.7 39.25 -13.55 40.25 -17.85 40.85 -21.8 45.1 -50.75 28.4 -63.45" fill="none" stroke="#22383d" stroke-linecap="round" stroke-linejoin="miter-clip" stroke-miterlimit="3.0" stroke-width="1.2000000000000002"/>
    <path d="M-6.65 72.05 Q0.5 73.45 2.95 68.85" fill="none" stroke="#22383d" stroke-linecap="round" stroke-linejoin="round" stroke-width="1.2000000000000002"/>
  </g>
</svg>
