<?xml version="1.0" encoding="UTF-8" standalone="no"?>
<svg xmlns:xlink="http://www.w3.org/1999/xlink" height="124.45px" width="71.35px" xmlns="http://www.w3.org/2000/svg">
  <g transform="matrix(1.0, 0.0, 0.0, 1.0, 35.7, 61.9)">
    <path d="M34.55 -13.05 Q35.85 -9.2 33.65 -5.3 25.7 8.75 -4.5 19.3 -14.15 27.15 -19.1 46.0 -31.7 81.85 -34.35 37.1 -24.15 34.7 -21.15 23.55 -16.7 7.85 -10.75 5.6 13.3 -6.45 26.3 -25.05 L28.05 -27.55 Q29.4 -31.35 28.1 -39.15 L30.45 -31.6 Q32.7 -23.45 34.55 -13.05" fill="#66a2af" fill-rule="evenodd" stroke="none"/>
    <path d="M-34.35 37.1 Q-35.1 25.2 -35.1 7.65 -13.95 -12.9 -9.55 -53.2 15.15 -76.0 28.1 -39.15 29.4 -31.35 28.05 -27.55 L26.3 -25.05 Q13.3 -6.45 -10.75 5.6 -16.7 7.85 -21.15 23.55 -24.15 34.7 -34.35 37.1" fill="#78cbdf" fill-rule="evenodd" stroke="none"/>
    <path d="M34.55 -13.05 Q35.85 -9.2 33.65 -5.3" fill="none" stroke="#22383d" stroke-linecap="round" stroke-linejoin="round" stroke-width="1.2000000000000002"/>
    <path d="M33.65 -5.3 Q25.7 8.75 -4.5 19.3 -14.15 27.15 -19.1 46.0 -31.7 81.85 -34.35 37.1 -35.1 25.2 -35.1 7.65 -13.95 -12.9 -9.55 -53.2" fill="none" stroke="#22383d" stroke-linecap="round" stroke-linejoin="miter-clip" stroke-miterlimit="3.0" stroke-width="1.2000000000000002"/>
  </g>
</svg>
