<?xml version="1.0" encoding="UTF-8" standalone="no"?>
<svg xmlns:xlink="http://www.w3.org/1999/xlink" height="146.95px" width="93.55px" xmlns="http://www.w3.org/2000/svg">
  <g transform="matrix(1.0, 0.0, 0.0, 1.0, 48.25, 73.2)">
    <path d="M-26.75 -53.15 Q-27.65 -52.8 -26.95 -50.0 -25.8 -45.55 -23.8 -45.65 L-22.05 -44.1 Q-21.2 -43.55 -20.15 -43.15 L-19.05 -42.8 Q-20.1 -42.5 -20.9 -39.45 -20.2 -29.95 -18.75 -30.55 -17.35 -25.7 -13.3 -24.25 L-11.5 -23.8 -10.0 -23.65 Q-10.85 -22.65 -11.3 -19.3 -11.75 -16.0 -10.2 -11.05 -8.25 -8.9 -8.55 -10.0 -6.9 -6.7 -3.4 -6.8 L-3.35 -6.8 -2.95 -6.8 -1.25 -7.15 Q-2.9 -6.1 -2.95 0.75 -1.45 7.95 0.3 6.65 2.5 9.55 7.0 9.9 L8.8 9.95 10.45 9.85 Q7.9 27.5 20.35 28.55 L21.9 28.6 Q23.55 45.5 37.45 45.6 35.65 55.0 39.35 61.6 42.9 68.0 44.8 73.25 44.15 71.8 41.1 68.95 36.5 64.65 26.6 57.05 9.0 43.6 -16.3 11.8 -17.6 -4.35 -22.15 -20.05 -23.85 -25.85 -26.0 -31.6 -32.7 -49.4 -43.7 -66.65 L-47.75 -72.7 Q-43.2 -67.35 -37.85 -65.0 L-36.85 -64.6 Q-37.25 -63.15 -35.55 -60.55 -32.8 -56.25 -30.65 -56.3 L-29.55 -55.25 -27.4 -53.55 -26.75 -53.15" fill="#335f74" fill-rule="evenodd" stroke="none"/>
    <path d="M-23.8 -45.65 Q-25.8 -45.55 -26.95 -50.0 -27.65 -52.8 -26.75 -53.15 -26.2 -48.35 -23.8 -45.65 M-30.65 -56.3 Q-32.8 -56.25 -35.55 -60.55 -37.25 -63.15 -36.85 -64.6 -34.1 -59.6 -30.65 -56.3 M0.3 6.65 Q-1.45 7.95 -2.95 0.75 -2.9 -6.1 -1.25 -7.15 L-1.35 -6.6 Q-2.8 2.55 0.3 6.65 M-8.55 -10.0 Q-8.25 -8.9 -10.2 -11.05 -11.75 -16.0 -11.3 -19.3 -10.85 -22.65 -10.0 -23.65 L-10.15 -20.05 Q-10.25 -14.25 -9.0 -11.0 L-8.55 -10.0 M-18.75 -30.55 Q-20.2 -29.95 -20.9 -39.45 -20.1 -42.5 -19.05 -42.8 -19.95 -36.0 -19.0 -31.6 L-18.75 -30.55" fill="#919c9e" fill-rule="evenodd" stroke="none"/>
    <path d="M-23.8 -45.65 Q-26.2 -48.35 -26.75 -53.15 L-27.4 -53.55 -29.55 -55.25 -30.65 -56.3 Q-34.1 -59.6 -36.85 -64.6 L-37.85 -65.0 Q-43.2 -67.35 -47.75 -72.7 M44.8 73.25 Q42.9 68.0 39.35 61.6 35.65 55.0 37.45 45.6 23.55 45.5 21.9 28.6 L20.35 28.55 Q7.9 27.5 10.45 9.85 L8.8 9.95 7.0 9.9 Q2.5 9.55 0.3 6.65 -2.8 2.55 -1.35 -6.6 L-1.25 -7.15 -2.95 -6.8 -3.35 -6.8 -3.4 -6.8 Q-6.9 -6.7 -8.55 -10.0 L-9.0 -11.0 Q-10.25 -14.25 -10.15 -20.05 L-10.0 -23.65 -11.5 -23.8 -13.3 -24.25 Q-17.35 -25.7 -18.75 -30.55 L-19.0 -31.6 Q-19.95 -36.0 -19.05 -42.8 L-20.15 -43.15 Q-21.2 -43.55 -22.05 -44.1 L-23.8 -45.65 Z" fill="none" stroke="#22383d" stroke-linecap="round" stroke-linejoin="round" stroke-width="1.0"/>
  </g>
</svg>
