<?xml version="1.0" encoding="UTF-8" standalone="no"?>
<svg xmlns:xlink="http://www.w3.org/1999/xlink" height="212.55px" width="183.2px" xmlns="http://www.w3.org/2000/svg">
  <g transform="matrix(1.0, 0.0, 0.0, 1.0, 91.65, 104.9)">
    <path d="M25.55 -6.2 L25.55 -12.95 Q34.6 -3.7 43.95 5.45 33.1 -2.6 25.55 -6.2 M-88.2 -75.95 Q-88.6 -68.05 -88.5 -61.55 L-88.35 -56.35 Q-87.65 -41.7 -84.15 -35.85 -82.55 -33.15 -80.35 -32.3 -73.4 -29.6 -71.35 -34.65 -73.85 -35.25 -76.6 -45.15 -78.35 -51.45 -78.15 -56.35 -78.05 -59.25 -77.3 -61.65 -75.2 -68.15 -72.6 -70.3 L-72.6 -65.55 -72.7 -65.55 Q-73.25 -65.55 -73.4 -65.1 L-73.95 -63.1 -74.55 -58.65 -74.55 -58.4 -74.6 -58.15 -74.4 -51.1 -74.3 -50.5 -74.3 -50.2 -73.25 -45.45 -72.35 -43.1 -71.7 -41.2 -71.65 -41.1 -71.55 -40.8 -71.2 -40.1 -71.1 -39.8 Q-70.85 -39.35 -70.45 -39.45 L-70.3 -39.4 Q-68.2 -33.85 -65.65 -32.65 L-66.25 -32.5 -64.7 -32.3 Q-62.25 -31.95 -59.45 -35.75 -56.5 -39.85 -53.2 -48.7 -50.3 -53.4 -47.05 -56.35 -36.9 -65.55 -23.05 -58.1 L-23.05 -56.35 Q-23.25 -32.4 -19.4 -10.65 5.7 -2.45 2.8 14.85 -2.5 39.8 6.95 58.85 10.05 62.05 13.65 64.65 19.3 66.55 21.5 55.2 L90.95 69.7 Q90.25 85.7 79.8 107.05 L67.95 105.6 Q57.4 106.3 44.35 105.7 27.85 106.85 13.15 102.95 L44.35 105.7 13.15 102.95 Q-41.3 88.35 -71.15 4.4 -70.6 9.6 -68.8 16.05 -77.25 1.2 -82.5 -12.55 L-82.8 -13.35 Q-89.8 -25.35 -91.05 -51.95 L-91.05 -56.35 Q-90.85 -66.6 -88.2 -75.95" fill="#66a2af" fill-rule="evenodd" stroke="none"/>
    <path d="M25.55 -12.95 L25.55 -6.2 Q33.1 -2.6 43.95 5.45 L52.7 17.1 Q59.7 25.65 70.4 32.5 81.1 39.35 86.05 45.5 90.95 51.65 90.95 69.7 L21.5 55.2 Q19.3 66.55 13.65 64.65 10.05 62.05 6.95 58.85 -2.5 39.8 2.8 14.85 5.7 -2.45 -19.4 -10.65 -23.25 -32.4 -23.05 -56.35 L-23.05 -58.1 Q-36.9 -65.55 -47.05 -56.35 -50.3 -53.4 -53.2 -48.7 -56.5 -39.85 -59.45 -35.75 -62.25 -31.95 -64.7 -32.3 -62.65 -32.65 -60.5 -35.75 -56.85 -46.55 -58.3 -56.35 -59.55 -64.45 -64.3 -71.95 L-65.15 -73.2 Q-67.8 -73.0 -67.5 -69.0 -64.55 -62.75 -63.0 -56.35 -61.3 -49.1 -61.45 -41.65 -62.45 -33.75 -65.65 -32.65 -68.2 -33.85 -70.3 -39.4 L-70.0 -39.45 -69.95 -39.5 Q-69.4 -39.7 -69.5 -40.15 L-69.7 -41.2 -69.7 -41.5 -69.75 -41.65 -69.75 -41.8 -71.95 -64.7 -72.0 -64.95 -72.0 -65.0 Q-72.0 -65.55 -72.6 -65.55 L-72.6 -70.3 Q-75.2 -68.15 -77.3 -61.65 -78.05 -59.25 -78.15 -56.35 -78.35 -51.45 -76.6 -45.15 -73.85 -35.25 -71.35 -34.65 -73.4 -29.6 -80.35 -32.3 -82.55 -33.15 -84.15 -35.85 -86.95 -47.0 -86.6 -56.35 -86.35 -63.25 -84.35 -69.15 -86.75 -68.85 -88.5 -61.55 -88.6 -68.05 -88.2 -75.95 -86.5 -82.1 -83.75 -87.9 L-81.75 -89.65 Q-56.95 -111.1 -21.3 -102.4 -13.85 -100.6 -5.9 -97.45 8.0 -77.3 15.85 -56.35 L19.7 -44.8 Q24.25 -29.1 25.55 -12.95 M24.15 2.15 Q23.95 13.35 21.45 23.0 22.3 27.85 25.1 15.45 26.55 6.55 24.15 2.15" fill="#78cbdf" fill-rule="evenodd" stroke="none"/>
    <path d="M-88.5 -61.55 Q-86.75 -68.85 -84.35 -69.15 -86.35 -63.25 -86.6 -56.35 -86.95 -47.0 -84.15 -35.85 -87.65 -41.7 -88.35 -56.35 L-88.5 -61.55 M-65.65 -32.65 Q-62.45 -33.75 -61.45 -41.65 -61.3 -49.1 -63.0 -56.35 -64.55 -62.75 -67.5 -69.0 -67.8 -73.0 -65.15 -73.2 L-64.3 -71.95 Q-59.55 -64.45 -58.3 -56.35 -56.85 -46.55 -60.5 -35.75 -62.65 -32.65 -64.7 -32.3 L-66.25 -32.5 -65.65 -32.65 M24.15 2.15 Q26.55 6.55 25.1 15.45 22.3 27.85 21.45 23.0 23.95 13.35 24.15 2.15" fill="#9bd7e6" fill-rule="evenodd" stroke="none"/>
    <path d="M-72.6 -65.55 Q-72.0 -65.55 -72.0 -65.0 L-72.0 -64.95 -71.95 -64.7 -69.75 -41.8 -69.75 -41.65 -69.7 -41.5 -69.7 -41.2 -69.5 -40.15 Q-69.4 -39.7 -69.95 -39.5 L-70.0 -39.45 -70.3 -39.4 -70.45 -39.45 -70.9 -39.8 -71.0 -40.1 -71.45 -40.8 -71.55 -41.1 -71.65 -41.2 -72.35 -43.1 -73.25 -45.45 -74.3 -50.2 -74.3 -50.5 -74.4 -51.1 -74.6 -58.15 -74.55 -58.4 -74.55 -58.65 -73.95 -63.1 -73.4 -65.1 Q-73.25 -65.55 -72.7 -65.55 L-72.6 -65.55" fill="url(#gradient0)" fill-rule="evenodd" stroke="none"/>
    <path d="M13.15 102.95 L-6.2 100.15 Q-51.0 92.9 -68.8 16.05 -70.6 9.6 -71.15 4.4 -41.3 88.35 13.15 102.95" fill="#5b8c9f" fill-rule="evenodd" stroke="none"/>
    <path d="M25.55 -12.95 L25.55 -6.2 M43.95 5.45 Q34.6 -3.7 25.55 -12.95 24.25 -29.1 19.7 -44.8 L15.85 -56.35 Q8.0 -77.3 -5.9 -97.45 M90.95 69.7 Q90.95 51.65 86.05 45.5 81.1 39.35 70.4 32.5 59.7 25.65 52.7 17.1 L43.95 5.45 M44.35 105.7 Q57.4 106.3 67.95 105.6 L79.8 107.05 Q90.25 85.7 90.95 69.7 M44.35 105.7 L13.15 102.95 -6.2 100.15 Q-51.0 92.9 -68.8 16.05 -77.25 1.2 -82.5 -12.55 M-82.8 -13.35 Q-89.8 -25.35 -91.05 -51.95 M-68.8 16.05 Q-70.6 9.6 -71.15 4.4" fill="none" stroke="#22383d" stroke-linecap="round" stroke-linejoin="miter-clip" stroke-miterlimit="3.0" stroke-width="1.2000000000000002"/>
    <path d="M13.15 102.95 Q27.85 106.85 44.35 105.7" fill="none" stroke="#22383d" stroke-linecap="round" stroke-linejoin="round" stroke-width="0.05"/>
  </g>
  <defs>
    <radialGradient cx="0" cy="0" gradientTransform="matrix(0.0029, -3.0E-4, 0.0022, 0.0167, -70.6, -51.6)" gradientUnits="userSpaceOnUse" id="gradient0" r="819.2" spreadMethod="pad">
      <stop offset="0.2784313725490196" stop-color="#22383d"/>
      <stop offset="1.0" stop-color="#8c5757"/>
    </radialGradient>
  </defs>
</svg>
