<?xml version="1.0" encoding="UTF-8" standalone="no"?>
<svg xmlns:xlink="http://www.w3.org/1999/xlink" height="27.5px" width="10.65px" xmlns="http://www.w3.org/2000/svg">
  <g transform="matrix(1.0, 0.0, 0.0, 1.0, 74.45, 55.35)">
    <path d="M-69.6 -49.65 L-70.1 -50.35 -70.3 -50.7 -70.5 -51.7 -70.4 -52.85 -70.15 -53.0 -69.3 -53.15 Q-68.5 -53.15 -68.1 -52.5 L-67.7 -51.55 Q-68.7 -52.15 -69.3 -51.3 -69.85 -50.55 -69.6 -49.65 M-70.35 -47.45 Q-68.75 -45.75 -68.85 -42.75 L-70.75 -42.8 -70.9 -41.4 -70.85 -40.35 Q-70.65 -39.8 -69.75 -39.55 -68.8 -40.15 -68.55 -40.7 L-68.2 -38.45 -68.35 -38.85 Q-68.65 -39.3 -69.3 -39.3 -69.7 -39.3 -70.5 -38.0 L-71.25 -41.35 -71.8 -45.35 -71.7 -46.95 Q-71.45 -47.7 -70.35 -47.45 M-63.9 -31.6 Q-63.65 -31.1 -64.2 -30.3 -65.4 -30.3 -66.2 -30.8 -67.05 -31.3 -67.05 -32.0 -65.55 -30.85 -64.95 -30.85 -64.35 -30.85 -64.1 -31.2 L-63.9 -31.6 M-68.1 -33.05 Q-68.8 -33.05 -69.25 -33.75 -69.75 -34.5 -69.75 -35.5 L-68.1 -33.05 M-73.5 -31.85 L-73.05 -32.4 -72.35 -32.8 -71.5 -32.0 Q-71.15 -31.6 -71.15 -31.3 -71.15 -30.65 -71.4 -30.4 -71.55 -30.25 -72.0 -30.05 -72.6 -30.05 -73.05 -30.55 L-73.5 -31.85" fill="#ffffff" fill-opacity="0.69803923" fill-rule="evenodd" stroke="none"/>
    <path d="M-70.1 -50.35 L-70.65 -50.65 -71.35 -51.2 -71.35 -54.8 -71.05 -55.05 -70.15 -55.35 Q-69.4 -55.35 -68.15 -53.65 -66.8 -51.8 -66.8 -50.05 L-67.7 -51.55 -68.1 -52.5 Q-68.5 -53.15 -69.3 -53.15 L-70.15 -53.0 -70.4 -52.85 -70.5 -51.7 -70.3 -50.7 -70.1 -50.35 M-64.2 -30.3 Q-64.4 -29.15 -64.55 -28.95 L-65.85 -28.7 Q-68.25 -28.7 -70.15 -32.4 -71.6 -35.2 -71.9 -37.6 -72.65 -43.4 -72.65 -45.85 L-72.55 -48.1 -72.3 -48.25 -71.45 -48.4 Q-70.8 -48.4 -70.55 -47.95 L-70.35 -47.45 Q-71.45 -47.7 -71.7 -46.95 L-71.8 -45.35 -71.25 -41.35 -70.5 -38.0 Q-70.35 -36.25 -69.75 -35.5 -69.75 -34.5 -69.25 -33.75 -68.8 -33.05 -68.1 -33.05 L-67.05 -32.0 Q-67.05 -31.3 -66.2 -30.8 -65.4 -30.3 -64.2 -30.3 M-72.0 -30.05 Q-72.0 -28.8 -72.45 -28.15 L-72.45 -28.0 -73.2 -27.85 Q-74.2 -27.85 -74.4 -28.8 L-74.4 -29.85 Q-74.4 -31.1 -73.5 -31.85 L-73.05 -30.55 Q-72.6 -30.05 -72.0 -30.05" fill="#ffffff" fill-opacity="0.4" fill-rule="evenodd" stroke="none"/>
    <path d="M-66.8 -50.05 L-66.95 -49.3 -67.15 -49.05 -67.4 -48.75 -68.25 -48.6 Q-69.05 -48.6 -69.35 -49.1 L-69.6 -49.65 Q-69.85 -50.55 -69.3 -51.3 -68.7 -52.15 -67.7 -51.55 L-66.8 -50.05 M-68.85 -42.75 L-68.7 -42.55 -68.55 -42.0 -68.55 -40.7 Q-68.8 -40.15 -69.75 -39.55 -70.65 -39.8 -70.85 -40.35 L-70.9 -41.4 -70.75 -42.8 -68.85 -42.75 M-68.2 -38.45 L-68.15 -38.35 Q-68.0 -37.7 -65.85 -35.25 -63.85 -32.95 -63.9 -31.6 L-64.1 -31.2 Q-64.35 -30.85 -64.95 -30.85 -65.55 -30.85 -67.05 -32.0 L-68.1 -33.05 -69.75 -35.5 Q-70.35 -36.25 -70.5 -38.0 -69.7 -39.3 -69.3 -39.3 -68.65 -39.3 -68.35 -38.85 L-68.2 -38.45" fill="#ffffff" fill-rule="evenodd" stroke="none"/>
  </g>
</svg>
