<?xml version="1.0" encoding="UTF-8" standalone="no"?>
<svg xmlns:xlink="http://www.w3.org/1999/xlink" height="61.7px" width="34.95px" xmlns="http://www.w3.org/2000/svg">
  <g transform="matrix(1.0, 0.0, 0.0, 1.0, 83.45, 61.2)">
    <path d="M-81.05 -44.2 L-80.75 -44.75 -79.4 -48.75 Q-78.3 -51.7 -77.15 -52.6 -76.5 -52.15 -75.95 -51.05 L-75.95 -50.75 -75.95 -50.7 -76.75 -47.85 -77.75 -44.9 -77.95 -45.45 Q-78.2 -45.75 -78.85 -45.75 -79.7 -45.75 -80.4 -43.6 -81.05 -41.75 -81.05 -40.5 L-79.85 -38.9 Q-80.9 -39.15 -81.15 -39.45 L-81.4 -41.3 -81.05 -44.2 M-71.15 -57.65 L-71.1 -60.75 -70.7 -60.9 -69.8 -61.2 -65.6 -52.3 -65.45 -50.9 Q-65.55 -51.35 -65.95 -51.65 -66.45 -52.05 -67.15 -52.05 L-70.0 -55.15 -70.3 -55.5 -70.95 -57.05 -71.15 -57.65 M-70.45 -50.15 L-69.15 -46.7 Q-68.4 -44.3 -68.8 -42.9 L-68.95 -42.6 -69.35 -42.15 -69.8 -44.95 Q-70.15 -46.8 -71.5 -46.8 -72.5 -46.8 -72.75 -46.0 L-72.85 -44.5 Q-72.85 -43.1 -72.1 -41.6 L-71.4 -39.85 -71.6 -38.8 -71.8 -38.25 -72.7 -38.85 -73.7 -44.95 Q-74.35 -48.45 -74.45 -50.9 -74.55 -53.4 -74.2 -53.85 -73.85 -54.3 -72.5 -54.3 L-71.45 -53.65 Q-70.2 -52.5 -70.45 -50.15 M-64.9 -34.25 Q-62.5 -31.5 -60.95 -29.05 L-59.8 -27.1 -60.7 -25.8 -61.45 -25.45 -62.15 -25.0 -64.35 -29.0 -66.6 -33.3 -66.1 -33.95 -64.9 -34.25 M-68.1 -33.65 Q-68.8 -33.65 -69.25 -34.35 -69.75 -35.05 -69.75 -36.0 L-68.1 -33.65" fill="#ffffff" fill-opacity="0.69803923" fill-rule="evenodd" stroke="none"/>
    <path d="M-63.6 -40.95 L-63.95 -42.0 -61.7 -43.15 -61.0 -43.05 Q-60.65 -42.7 -60.5 -41.3 L-60.5 -39.25 -60.65 -39.05 -61.45 -38.9 Q-62.3 -38.9 -63.6 -40.95 M-66.75 -49.95 Q-68.5 -48.4 -68.95 -48.65 L-69.5 -49.55 -68.3 -50.8 -67.45 -50.8 -67.15 -52.05 Q-66.45 -52.05 -65.95 -51.65 -65.55 -51.35 -65.45 -50.9 L-65.45 -50.65 Q-65.45 -50.35 -65.8 -50.15 L-66.75 -49.95 M-68.8 -42.9 L-68.55 -41.05 -68.45 -40.5 Q-67.9 -40.0 -67.65 -39.25 -67.25 -37.85 -64.9 -34.25 L-66.1 -33.95 -66.6 -33.3 -68.1 -33.65 -69.75 -36.0 -70.05 -36.9 -70.45 -36.85 -70.8 -32.3 Q-70.85 -31.1 -71.0 -30.85 L-71.1 -30.5 -71.85 -30.35 -72.8 -30.4 -73.0 -30.7 -73.2 -31.6 -72.65 -34.1 Q-72.25 -36.9 -72.7 -38.85 L-71.8 -38.25 -71.6 -38.8 -71.4 -39.85 -72.1 -41.6 Q-72.85 -43.1 -72.85 -44.5 L-72.75 -46.0 Q-72.5 -46.8 -71.5 -46.8 -70.15 -46.8 -69.8 -44.95 L-69.35 -42.15 -68.95 -42.6 -68.8 -42.9 M-59.8 -27.1 L-59.3 -27.25 -58.4 -25.2 Q-57.75 -23.45 -57.75 -22.85 -57.75 -21.1 -58.5 -19.8 -58.5 -20.75 -59.3 -22.85 -60.05 -24.9 -60.7 -25.8 L-59.8 -27.1 M-78.1 -42.25 Q-77.8 -40.15 -79.7 -38.9 L-79.85 -38.9 -81.05 -40.5 Q-81.05 -41.75 -80.4 -43.6 -79.7 -45.75 -78.85 -45.75 -78.2 -45.75 -77.95 -45.45 L-77.75 -44.9 -78.1 -42.25 M-79.5 -32.7 Q-79.5 -31.35 -80.05 -30.4 -80.6 -29.45 -81.4 -29.45 -82.1 -30.15 -82.1 -31.05 L-81.95 -32.95 -81.15 -33.05 -79.5 -32.7" fill="#ffffff" fill-rule="evenodd" stroke="none"/>
    <path d="M-81.4 -29.45 Q-83.45 -30.1 -83.45 -30.9 -83.45 -32.3 -82.75 -34.7 L-82.1 -37.5 Q-82.1 -38.3 -82.45 -40.15 L-82.8 -42.45 Q-82.8 -43.65 -82.6 -43.8 L-81.05 -44.2 -81.4 -41.3 -81.15 -39.45 Q-80.9 -39.15 -79.85 -38.9 L-79.7 -38.9 -79.35 -36.15 Q-79.25 -33.7 -79.5 -32.7 L-81.15 -33.05 -81.95 -32.95 -82.1 -31.05 Q-82.1 -30.15 -81.4 -29.45 M-80.75 -44.75 L-81.05 -46.0 Q-81.05 -46.5 -80.65 -46.7 -80.25 -46.9 -80.25 -47.4 L-80.1 -48.65 -79.05 -51.45 Q-78.1 -53.55 -77.3 -54.45 -76.5 -55.35 -76.8 -55.85 L-76.25 -56.15 Q-73.0 -58.2 -71.2 -57.2 L-71.15 -57.65 -70.95 -57.05 -70.3 -55.5 -70.0 -55.15 -67.15 -52.05 -67.45 -50.8 -68.3 -50.8 -69.5 -49.55 -70.45 -50.15 Q-70.2 -52.5 -71.45 -53.65 L-72.5 -54.3 Q-73.85 -54.3 -74.2 -53.85 -74.55 -53.4 -74.45 -50.9 -74.35 -48.45 -73.7 -44.95 L-72.7 -38.85 Q-72.25 -36.9 -72.65 -34.1 L-73.2 -31.6 Q-73.0 -33.45 -73.1 -36.05 -73.25 -39.45 -74.35 -45.15 -75.4 -50.85 -76.85 -44.5 L-78.1 -42.25 -77.75 -44.9 -76.75 -47.85 -75.95 -50.7 -75.95 -50.75 -75.95 -51.05 Q-76.5 -52.15 -77.15 -52.6 -78.3 -51.7 -79.4 -48.75 L-80.75 -44.75 M-65.6 -52.3 Q-65.15 -48.15 -62.45 -45.55 -59.8 -42.95 -59.8 -41.6 -59.8 -39.7 -60.4 -39.0 -60.8 -38.55 -61.55 -38.55 -63.2 -38.55 -63.6 -40.95 -62.3 -38.9 -61.45 -38.9 L-60.65 -39.05 -60.5 -39.25 -60.5 -41.3 Q-60.65 -42.7 -61.0 -43.05 L-61.7 -43.15 -63.95 -42.0 -64.4 -43.45 Q-65.2 -45.9 -66.75 -49.95 L-65.8 -50.15 Q-65.45 -50.35 -65.45 -50.65 L-65.45 -50.9 -65.6 -52.3 M-58.5 -19.8 Q-58.6 -16.45 -56.9 -13.2 L-54.7 -9.4 -50.05 -4.45 Q-48.5 -2.85 -48.5 -2.1 -48.5 -1.3 -49.25 -0.4 -50.0 0.5 -50.6 0.5 -56.1 -5.95 -57.75 -11.65 -59.4 -17.35 -63.2 -25.7 -65.7 -31.1 -70.8 -32.3 L-70.45 -36.85 -70.05 -36.9 -69.75 -36.0 Q-69.75 -35.05 -69.25 -34.35 -68.8 -33.65 -68.1 -33.65 L-66.6 -33.3 -64.35 -29.0 -62.15 -25.0 -61.45 -25.45 -60.7 -25.8 Q-60.05 -24.9 -59.3 -22.85 -58.5 -20.75 -58.5 -19.8 M-71.1 -30.5 L-72.05 -25.3 Q-72.1 -25.05 -72.65 -25.05 -73.55 -25.05 -73.65 -26.75 -73.75 -28.45 -73.35 -30.55 L-73.2 -31.6 -73.0 -30.7 -72.8 -30.4 -71.85 -30.35 -71.1 -30.5" fill="#ffffff" fill-opacity="0.4" fill-rule="evenodd" stroke="none"/>
  </g>
</svg>
