<?xml version="1.0" encoding="UTF-8" standalone="no"?>
<svg xmlns:xlink="http://www.w3.org/1999/xlink" height="76.45px" width="39.85px" xmlns="http://www.w3.org/2000/svg">
  <g transform="matrix(1.0, 0.0, 0.0, 1.0, 85.4, 70.5)">
    <path d="M-82.9 -53.7 L-83.6 -53.65 Q-84.85 -53.65 -84.85 -55.3 -84.85 -56.2 -84.25 -56.95 -83.4 -58.0 -81.85 -57.6 L-81.45 -57.4 -81.25 -56.6 Q-81.25 -56.1 -82.8 -53.95 L-82.8 -53.8 -82.9 -53.7 M-79.1 -61.15 L-78.75 -62.7 Q-78.45 -63.35 -78.0 -63.35 -77.0 -63.1 -76.45 -62.6 L-76.05 -61.85 Q-76.05 -60.3 -76.95 -55.8 -76.95 -55.4 -77.35 -55.1 -77.75 -54.8 -78.3 -54.8 -79.1 -55.1 -79.3 -55.7 L-79.35 -56.65 -79.2 -58.45 -79.1 -61.15 M-79.85 -38.9 L-81.05 -39.95 Q-81.4 -40.45 -81.4 -41.3 L-81.05 -44.2 -80.75 -44.75 Q-77.85 -51.8 -77.15 -52.6 L-76.5 -51.95 -75.95 -51.05 Q-75.95 -48.8 -77.75 -44.9 -77.95 -45.6 -78.85 -45.75 -79.65 -44.9 -81.05 -40.5 L-79.85 -38.9 M-50.1 -62.9 L-50.1 -63.2 -50.1 -63.65 -50.05 -63.75 -50.15 -63.9 -50.35 -64.4 -50.35 -64.6 -49.95 -65.6 -49.15 -65.75 Q-47.65 -65.75 -47.05 -64.9 -46.75 -64.45 -46.75 -63.9 -46.75 -63.4 -47.25 -62.6 -47.85 -61.7 -48.55 -61.7 -49.75 -61.7 -50.1 -62.9 M-71.15 -57.65 L-71.1 -60.75 -69.8 -61.2 Q-68.3 -59.2 -66.2 -55.3 -64.2 -51.5 -64.15 -50.75 L-65.45 -50.65 Q-65.45 -51.25 -65.95 -51.65 -66.45 -52.05 -67.15 -52.05 L-69.65 -54.65 Q-70.8 -56.0 -71.15 -57.65 M-70.45 -50.15 L-69.15 -46.9 Q-68.35 -44.4 -68.8 -42.9 -68.8 -42.75 -69.35 -42.15 L-69.55 -42.55 Q-69.7 -44.85 -70.05 -45.7 -70.45 -46.8 -71.5 -46.8 L-72.4 -46.55 -72.75 -46.35 -72.85 -44.5 Q-72.85 -42.0 -72.1 -40.85 L-71.4 -39.95 -71.6 -38.8 -71.8 -38.25 -72.7 -38.85 -73.7 -45.8 -74.45 -51.45 -74.3 -53.85 -72.5 -54.3 Q-71.85 -54.3 -71.2 -53.0 -70.55 -51.7 -70.45 -50.15 M-64.9 -34.25 L-60.9 -29.0 -59.8 -27.1 Q-59.95 -25.95 -59.45 -24.25 L-59.5 -23.3 -59.7 -22.15 -59.5 -20.85 -59.15 -19.6 -57.05 -12.3 Q-57.7 -12.5 -57.9 -13.1 L-58.3 -14.1 -59.75 -17.75 -60.3 -19.45 Q-60.55 -20.35 -61.1 -21.3 L-61.9 -23.15 -62.35 -24.95 -63.2 -26.45 -66.6 -33.3 -66.1 -33.95 -64.9 -34.25 M-55.2 -10.55 L-54.85 -9.4 -54.55 -8.4 -55.25 -10.55 -55.2 -10.55 M-68.1 -33.65 Q-68.8 -33.65 -69.25 -34.35 -69.75 -35.05 -69.75 -36.0 L-68.1 -33.65" fill="#ffffff" fill-opacity="0.69803923" fill-rule="evenodd" stroke="none"/>
    <path d="M-83.0 -30.15 L-82.8 -31.9 Q-82.15 -33.15 -79.5 -32.7 L-79.5 -31.35 -79.45 -30.5 Q-79.45 -29.9 -79.6 -29.6 L-79.9 -29.15 Q-80.35 -28.05 -81.45 -28.05 -82.7 -28.05 -82.95 -28.9 L-83.0 -30.15 M-79.7 -38.9 L-79.85 -38.9 -81.05 -40.5 Q-79.65 -44.9 -78.85 -45.75 -77.95 -45.6 -77.75 -44.9 -77.65 -44.4 -78.1 -42.25 -78.1 -40.85 -78.55 -39.85 -79.05 -38.9 -79.7 -38.9 M-63.6 -40.95 L-63.95 -42.0 -61.7 -43.15 -60.85 -42.45 Q-60.55 -42.1 -60.5 -41.3 L-60.5 -39.25 -60.5 -39.05 -61.2 -38.9 -62.05 -39.3 -63.6 -40.95 M-66.75 -49.95 L-68.6 -48.6 Q-69.1 -48.65 -69.5 -49.55 L-68.05 -50.65 Q-67.7 -50.85 -67.15 -52.05 -66.45 -52.05 -65.95 -51.65 -65.45 -51.25 -65.45 -50.65 -65.45 -50.35 -65.8 -50.15 L-66.75 -49.95 M-68.8 -42.9 Q-68.75 -40.85 -68.0 -39.55 L-64.9 -34.25 -66.1 -33.95 -66.6 -33.3 -68.1 -33.65 -69.75 -36.0 -69.95 -36.45 -70.45 -36.85 -70.8 -32.3 -70.55 -31.55 Q-70.4 -31.25 -70.4 -30.7 L-70.65 -26.85 Q-70.65 -25.7 -70.8 -25.35 -70.95 -24.95 -71.5 -24.7 -72.2 -24.35 -72.85 -25.05 -73.2 -25.9 -73.2 -28.65 L-72.7 -38.85 -71.8 -38.25 -71.6 -38.8 -71.4 -39.95 -72.1 -40.85 Q-72.85 -42.0 -72.85 -44.5 L-72.75 -46.35 -72.4 -46.55 -71.5 -46.8 Q-70.45 -46.8 -70.05 -45.7 -69.7 -44.85 -69.55 -42.55 L-69.35 -42.15 Q-68.8 -42.75 -68.8 -42.9 M-59.8 -27.1 L-59.3 -27.25 -57.1 -22.35 -56.75 -20.95 -56.0 -17.95 -55.5 -16.4 -54.75 -15.0 Q-54.35 -13.75 -54.35 -12.05 L-54.55 -11.1 -55.25 -10.6 -55.15 -10.55 -55.2 -10.55 -55.25 -10.55 -55.75 -10.55 Q-56.95 -10.55 -57.1 -11.95 L-57.05 -12.3 -59.15 -19.6 -59.5 -20.85 -59.7 -22.15 -59.5 -23.3 -59.45 -24.25 Q-59.95 -25.95 -59.8 -27.1" fill="#ffffff" fill-rule="evenodd" stroke="none"/>
    <path d="M-81.85 -57.6 Q-83.4 -58.0 -84.25 -56.95 -84.85 -56.2 -84.85 -55.3 -84.85 -53.65 -83.6 -53.65 L-82.9 -53.7 -83.15 -53.2 -83.35 -52.85 -84.15 -52.65 Q-85.4 -52.65 -85.4 -54.1 L-85.15 -56.85 Q-85.15 -57.75 -84.8 -58.25 -84.15 -59.1 -84.05 -59.55 -83.9 -60.2 -83.15 -60.95 -81.85 -61.75 -81.6 -62.25 L-80.25 -63.55 Q-78.9 -64.3 -78.0 -63.35 -78.45 -63.35 -78.75 -62.7 L-79.1 -61.15 -80.95 -59.45 Q-81.55 -58.95 -81.85 -57.6 M-81.05 -44.2 L-81.4 -41.3 Q-81.4 -40.45 -81.05 -39.95 L-79.85 -38.9 -79.7 -38.9 -79.45 -36.3 Q-79.35 -34.25 -79.5 -32.7 -82.15 -33.15 -82.8 -31.9 L-83.0 -30.15 -83.2 -30.15 -83.45 -30.9 -82.75 -33.95 -82.1 -37.5 Q-82.1 -38.05 -82.45 -40.0 L-82.8 -42.45 -82.6 -43.55 -81.05 -44.2 M-77.75 -44.9 Q-75.95 -48.8 -75.95 -51.05 L-76.5 -51.95 -77.15 -52.6 Q-77.85 -51.8 -80.75 -44.75 L-80.9 -45.0 -81.05 -46.0 Q-81.05 -46.5 -80.65 -46.7 -80.25 -46.9 -80.25 -47.4 -80.25 -47.9 -80.65 -48.1 -81.05 -48.35 -81.05 -48.85 -81.05 -50.15 -80.4 -51.65 -79.65 -53.4 -78.3 -54.8 -77.75 -54.8 -77.35 -55.1 -76.95 -55.4 -76.95 -55.8 -72.3 -57.4 -71.2 -57.2 L-71.15 -57.65 Q-70.8 -56.0 -69.65 -54.65 L-67.15 -52.05 Q-67.7 -50.85 -68.05 -50.65 L-69.5 -49.55 -70.45 -50.15 Q-70.55 -51.7 -71.2 -53.0 -71.85 -54.3 -72.5 -54.3 L-74.3 -53.85 -74.45 -51.45 -73.7 -45.8 -72.7 -38.85 -73.2 -28.65 Q-73.2 -25.9 -72.85 -25.05 -73.65 -25.95 -73.95 -28.7 L-74.2 -31.9 -75.3 -36.55 Q-76.5 -41.6 -76.85 -44.5 L-78.1 -42.25 Q-77.65 -44.4 -77.75 -44.9 M-50.35 -64.6 Q-50.9 -66.0 -52.75 -66.4 -53.3 -66.5 -51.35 -64.85 -58.55 -66.55 -60.0 -66.55 -61.4 -66.6 -61.95 -67.0 L-62.75 -67.8 -63.0 -68.85 -62.9 -69.7 -62.45 -70.0 -61.5 -70.1 -60.7 -69.65 -56.05 -70.5 Q-53.7 -70.5 -48.85 -66.7 L-46.7 -64.7 Q-46.3 -64.2 -46.3 -62.85 -46.3 -61.9 -46.45 -61.6 -46.8 -60.8 -47.95 -60.8 -49.1 -60.8 -49.8 -61.9 L-50.0 -62.3 -50.1 -62.9 Q-49.75 -61.7 -48.55 -61.7 -47.85 -61.7 -47.25 -62.6 -46.75 -63.4 -46.75 -63.9 -46.75 -64.45 -47.05 -64.9 -47.65 -65.75 -49.15 -65.75 L-49.95 -65.6 -50.35 -64.6 M-50.1 -63.65 L-50.15 -63.8 -50.05 -63.75 -50.1 -63.65 M-64.15 -50.75 Q-59.8 -44.85 -59.8 -41.15 -59.8 -39.3 -60.6 -38.75 L-61.75 -38.55 Q-62.65 -38.55 -63.6 -40.95 L-62.05 -39.3 -61.2 -38.9 -60.5 -39.05 -60.5 -39.25 -60.5 -41.3 Q-60.55 -42.1 -60.85 -42.45 L-61.7 -43.15 -63.95 -42.0 -66.75 -49.95 -65.8 -50.15 Q-65.45 -50.35 -65.45 -50.65 L-64.15 -50.75 M-54.85 -9.4 L-54.8 -9.5 Q-44.25 1.55 -45.75 5.65 L-45.9 5.95 -48.25 3.9 -58.25 -10.15 Q-58.75 -10.85 -60.2 -15.45 L-63.2 -25.7 Q-63.6 -27.3 -65.75 -29.45 -68.25 -31.95 -70.8 -32.3 L-70.45 -36.85 -69.95 -36.45 -69.75 -36.0 Q-69.75 -35.05 -69.25 -34.35 -68.8 -33.65 -68.1 -33.65 L-66.6 -33.3 -63.2 -26.45 -62.35 -24.95 -61.9 -23.15 -61.1 -21.3 Q-60.55 -20.35 -60.3 -19.45 L-59.75 -17.75 -58.3 -14.1 -57.9 -13.1 Q-57.7 -12.5 -57.05 -12.3 L-57.1 -11.95 Q-56.95 -10.55 -55.75 -10.55 L-55.25 -10.55 -54.55 -8.4 -54.85 -9.4" fill="#ffffff" fill-opacity="0.4" fill-rule="evenodd" stroke="none"/>
  </g>
</svg>
