<?xml version="1.0" encoding="UTF-8" standalone="no"?>
<svg xmlns:xlink="http://www.w3.org/1999/xlink" height="131.95px" width="70.95px" xmlns="http://www.w3.org/2000/svg">
  <g transform="matrix(1.0, 0.0, 0.0, 1.0, 35.5, 66.0)">
    <path d="M-30.6 25.4 Q-22.35 38.95 -17.75 37.75 12.85 50.55 21.65 36.8 29.45 16.9 26.7 -7.8 26.05 -13.45 24.9 -19.35 20.9 -39.1 10.8 -61.6 21.0 -54.6 30.5 -34.6 32.25 -26.95 33.35 -19.35 L34.5 -7.8 Q36.9 28.4 22.85 63.55 -1.35 71.35 -22.2 45.7 -27.5 36.25 -30.6 25.4" fill="#66a2af" fill-rule="evenodd" stroke="none"/>
    <path d="M10.8 -61.6 Q20.9 -39.1 24.9 -19.35 26.05 -13.45 26.7 -7.8 29.45 16.9 21.65 36.8 12.85 50.55 -17.75 37.75 -22.35 38.95 -30.6 25.4 L-30.65 25.3 -30.65 25.2 Q-33.05 16.8 -34.2 7.6 L-34.9 -11.7 -34.75 -14.95 -34.3 -19.35 Q-31.65 -41.75 -22.15 -52.6 -12.45 -63.65 -3.3 -65.15 L-3.0 -65.2 Q4.05 -66.25 10.8 -61.6 M12.3 9.95 Q14.5 19.85 16.3 13.95 17.4 -3.55 13.75 -19.35 11.0 -31.35 5.5 -42.35 -3.25 -49.95 0.0 -38.7 3.35 -28.55 5.9 -19.35 10.35 -3.2 12.3 9.95" fill="#78cbdf" fill-rule="evenodd" stroke="none"/>
    <path d="M12.3 9.95 Q10.35 -3.2 5.9 -19.35 3.35 -28.55 0.0 -38.7 -3.25 -49.95 5.5 -42.35 11.0 -31.35 13.75 -19.35 17.4 -3.55 16.3 13.95 14.5 19.85 12.3 9.95" fill="#9bd7e6" fill-rule="evenodd" stroke="none"/>
    <path d="M-30.6 25.4 Q-27.5 36.25 -22.2 45.7 -1.35 71.35 22.85 63.55 36.9 28.4 34.5 -7.8 L33.35 -19.35 Q32.25 -26.95 30.5 -34.6 21.0 -54.6 10.8 -61.6 4.05 -66.25 -3.0 -65.2 L-3.3 -65.15 M-34.9 -11.7 L-34.2 7.6 Q-33.25 17.35 -30.65 25.3 L-30.6 25.4 M-30.65 25.2 L-30.65 25.3" fill="none" stroke="#22383d" stroke-linecap="round" stroke-linejoin="miter-clip" stroke-miterlimit="3.0" stroke-width="1.2000000000000002"/>
  </g>
</svg>
