<?xml version="1.0" encoding="UTF-8" standalone="no"?>
<svg xmlns:xlink="http://www.w3.org/1999/xlink" height="115.5px" width="79.2px" xmlns="http://www.w3.org/2000/svg">
  <g transform="matrix(1.0, 0.0, 0.0, 1.0, 39.6, 57.45)">
    <path d="M39.0 -25.35 Q39.1 -14.95 32.45 -6.25 20.75 10.45 -10.3 34.05 -31.85 78.15 -37.4 39.2 L-24.85 19.9 Q-14.25 10.8 3.5 1.55 21.25 -7.75 35.7 -40.8 38.15 -34.3 39.0 -25.35" fill="#66a2af" fill-rule="evenodd" stroke="none"/>
    <path d="M35.7 -40.8 Q21.25 -7.75 3.5 1.55 -14.25 10.8 -24.85 19.9 L-37.4 39.2 Q-38.55 31.3 -39.0 19.95 -6.35 -8.55 -5.8 -53.55 26.4 -65.5 35.7 -40.8" fill="#78cbdf" fill-rule="evenodd" stroke="none"/>
    <path d="M-37.4 39.2 Q-31.85 78.15 -10.3 34.05 20.75 10.45 32.45 -6.25 39.1 -14.95 39.0 -25.35 M-37.4 39.2 Q-38.55 31.3 -39.0 19.95 -6.35 -8.55 -5.8 -53.55" fill="none" stroke="#22383d" stroke-linecap="round" stroke-linejoin="miter-clip" stroke-miterlimit="3.0" stroke-width="1.2000000000000002"/>
  </g>
</svg>
