<?xml version="1.0" encoding="UTF-8" standalone="no"?>
<svg xmlns:xlink="http://www.w3.org/1999/xlink" height="100.05px" width="53.05px" xmlns="http://www.w3.org/2000/svg">
  <g transform="matrix(1.0, 0.0, 0.0, 1.0, 26.55, 50.0)">
    <path d="M-8.85 -48.8 Q-3.6 -46.65 -2.05 -45.65 L-1.45 -45.2 Q-11.15 -6.2 -9.6 2.95 L-9.6 26.2 Q-11.0 41.3 -25.0 32.3 -29.1 7.0 -15.6 -45.15 -14.1 -50.95 -8.85 -48.8" fill="#78cbdf" fill-rule="evenodd" stroke="none"/>
    <path d="M-25.0 32.3 Q-11.0 41.3 -9.6 26.2 L-9.6 2.95 Q-11.15 -6.2 -1.45 -45.2 4.5 -40.7 4.45 -25.1 4.35 -12.7 0.4 6.8 1.3 10.7 2.2 20.1 L2.65 25.1 Q9.85 23.8 13.8 27.35 22.1 35.75 21.85 40.8 21.55 45.5 13.8 47.25 -14.7 53.45 -22.35 42.2 -24.1 37.9 -25.0 32.3 M3.05 30.7 L2.65 25.1 3.05 30.7" fill="#66a2af" fill-rule="evenodd" stroke="none"/>
    <path d="M2.2 20.1 Q7.05 15.5 17.2 20.15 31.8 32.1 21.85 40.8 22.1 35.75 13.8 27.35 9.85 23.8 2.65 25.1 L2.2 20.1" fill="#5b8c9f" fill-rule="evenodd" stroke="none"/>
    <path d="M-8.85 -48.8 Q-14.1 -50.95 -15.6 -45.15 -29.1 7.0 -25.0 32.3 -24.1 37.9 -22.35 42.2 -14.7 53.45 13.8 47.25 21.55 45.5 21.85 40.8 31.8 32.1 17.2 20.15 7.05 15.5 2.2 20.1 1.3 10.7 0.4 6.8 4.35 -12.7 4.45 -25.1 M2.65 25.1 L3.05 30.7 M2.65 25.1 L2.2 20.1 M13.8 27.35 Q22.1 35.75 21.85 40.8" fill="none" stroke="#22383d" stroke-linecap="round" stroke-linejoin="miter-clip" stroke-miterlimit="3.0" stroke-width="1.2000000000000002"/>
  </g>
</svg>
