<?xml version="1.0" encoding="UTF-8" standalone="no"?>
<svg xmlns:xlink="http://www.w3.org/1999/xlink" height="100.7px" width="97.35px" xmlns="http://www.w3.org/2000/svg">
  <g transform="matrix(1.0, 0.0, 0.0, 1.0, 48.7, 54.75)">
    <path d="M24.9 -45.4 Q34.4 -41.6 32.0 -24.3 30.1 17.8 48.05 37.6 46.25 38.7 46.4 38.3 32.7 37.0 26.2 0.55 23.2 -11.75 24.9 -45.4 M-26.0 37.75 Q-25.75 35.55 -23.95 34.6 L-24.45 36.85 -24.4 37.75 Q-24.3 40.6 -23.3 43.75 -23.4 44.75 -22.55 45.95 -25.75 44.05 -26.05 39.25 L-26.0 37.75" fill="#66a2af" fill-rule="evenodd" stroke="none"/>
    <path d="M24.9 -45.4 Q23.2 -11.75 26.2 0.55 32.7 37.0 46.4 38.3 L-24.4 37.75 -24.45 36.85 -23.95 34.6 Q-25.75 35.55 -26.0 37.75 L-42.85 37.6 Q-55.95 10.1 -36.3 -31.55 -27.95 -60.2 2.25 -52.5 17.15 -50.25 24.9 -45.4 M-26.7 -28.25 Q-40.3 0.65 -35.9 19.05 -31.5 37.4 -32.6 15.75 -33.7 -5.9 -18.45 -35.15 -20.2 -39.6 -26.7 -28.25" fill="#78cbdf" fill-rule="evenodd" stroke="none"/>
    <path d="M-26.7 -28.25 Q-20.2 -39.6 -18.45 -35.15 -33.7 -5.9 -32.6 15.75 -31.5 37.4 -35.9 19.05 -40.3 0.65 -26.7 -28.25" fill="#9bd7e6" fill-rule="evenodd" stroke="none"/>
    <path d="M48.05 37.6 Q30.1 17.8 32.0 -24.3 34.4 -41.6 24.9 -45.4 17.15 -50.25 2.25 -52.5 -27.95 -60.2 -36.3 -31.55 -55.95 10.1 -42.85 37.6" fill="none" stroke="#22383d" stroke-linecap="round" stroke-linejoin="round" stroke-width="1.2000000000000002"/>
    <path d="M-24.5 36.85 L-24.5 36.8 -24.45 36.75 -24.35 36.8 -24.25 37.05 -24.1 37.7 -24.05 37.7 -23.95 38.45 -23.45 41.4 -23.25 42.55 -23.25 42.9 -23.2 43.3 -23.2 43.7 -23.25 43.8 -23.35 43.75 -23.5 43.6 -23.55 43.4 -23.9 42.7 -24.05 42.35 -24.25 41.9 -24.25 41.8 -24.3 41.6 -24.45 41.25 -24.6 40.45 -24.6 40.3 -24.65 40.1 -24.7 39.7 -24.7 39.3 -24.75 38.9 -24.75 38.5 -24.7 38.15 -24.7 37.75 -24.65 37.75 -24.6 37.3 -24.6 37.05 -24.5 36.85" fill="#22383d" fill-rule="evenodd" stroke="none"/>
  </g>
</svg>
