<?xml version="1.0" encoding="UTF-8" standalone="no"?>
<svg xmlns:xlink="http://www.w3.org/1999/xlink" height="82.2px" width="92.8px" xmlns="http://www.w3.org/2000/svg">
  <g transform="matrix(1.0, 0.0, 0.0, 1.0, 46.4, 41.1)">
    <path d="M-45.8 24.15 Q-29.25 -8.75 -2.25 -31.2 9.5 -44.0 25.6 -39.2 32.8 -35.05 37.45 -31.0 20.2 -9.2 14.5 12.55 11.2 26.05 11.35 35.0 -12.3 19.7 -45.8 24.15" fill="#78cbdf" fill-rule="evenodd" stroke="none"/>
    <path d="M11.35 35.0 Q11.2 26.05 14.5 12.55 20.2 -9.2 37.45 -31.0 42.5 -26.6 44.5 -22.25 47.35 -16.15 43.95 -10.2 24.7 8.5 18.75 40.5 15.15 37.5 11.35 35.0" fill="#66a2af" fill-rule="evenodd" stroke="none"/>
    <path d="M37.45 -31.0 Q32.8 -35.05 25.6 -39.2 9.5 -44.0 -2.25 -31.2 -29.25 -8.75 -45.8 24.15 M37.45 -31.0 Q42.5 -26.6 44.5 -22.25 47.35 -16.15 43.95 -10.2 24.7 8.5 18.75 40.5" fill="none" stroke="#22383d" stroke-linecap="round" stroke-linejoin="round" stroke-width="1.2000000000000002"/>
  </g>
</svg>
