<?xml version="1.0" encoding="UTF-8" standalone="no"?>
<svg xmlns:xlink="http://www.w3.org/1999/xlink" height="58.5px" width="69.65px" xmlns="http://www.w3.org/2000/svg">
  <g transform="matrix(1.0, 0.0, 0.0, 1.0, 32.0, 29.25)">
    <path d="M29.05 21.35 Q21.35 33.95 17.65 25.15 15.1 22.45 10.3 20.85 6.85 9.05 -2.9 10.7 -12.85 -0.85 -21.85 5.0 -25.7 1.55 -29.55 1.4 -31.4 -4.0 -31.3 -6.45 -0.4 -5.95 21.85 17.2 25.8 20.85 29.05 21.35" fill="#335f74" fill-rule="evenodd" stroke="none"/>
    <path d="M-5.05 -23.1 Q18.35 -14.75 33.05 4.0 40.15 13.7 34.95 19.1 33.8 20.3 32.5 20.9 30.9 21.6 29.05 21.35 25.8 20.85 21.85 17.2 -0.4 -5.95 -31.3 -6.45 L-31.5 -6.45 Q-30.2 -9.05 -29.75 -14.15 -29.4 -18.85 -29.65 -25.6 -17.8 -26.1 -5.05 -23.1" fill="#66a2af" fill-rule="evenodd" stroke="none"/>
    <path d="M-29.65 -25.6 L-29.85 -28.75 Q-16.4 -27.15 -5.05 -23.1 -17.8 -26.1 -29.65 -25.6" fill="#78cbdf" fill-rule="evenodd" stroke="none"/>
    <path d="M-29.85 -28.75 Q-16.4 -27.15 -5.05 -23.1 18.35 -14.75 33.05 4.0 40.15 13.7 34.95 19.1 33.8 20.3 32.5 20.9 30.9 21.6 29.05 21.35 21.35 33.95 17.65 25.15 15.1 22.45 10.3 20.85 6.85 9.05 -2.9 10.7 -12.85 -0.85 -21.85 5.0 -25.7 1.55 -29.55 1.4 M-31.3 -6.45 L-31.5 -6.45 M29.05 21.35 Q25.8 20.85 21.85 17.2 -0.4 -5.95 -31.3 -6.45" fill="none" stroke="#22383d" stroke-linecap="round" stroke-linejoin="round" stroke-width="1.0"/>
    <path d="M-29.55 1.4 L-29.5 1.8" fill="none" stroke="#22383d" stroke-linecap="round" stroke-linejoin="round" stroke-width="0.05"/>
  </g>
</svg>
