<?xml version="1.0" encoding="UTF-8" standalone="no"?>
<svg xmlns:xlink="http://www.w3.org/1999/xlink" height="147.3px" width="133.75px" xmlns="http://www.w3.org/2000/svg">
  <g transform="matrix(1.0, 0.0, 0.0, 1.0, 66.85, 73.65)">
    <path d="M10.4 -31.8 L9.3 -36.9 Q24.7 -34.4 37.75 -20.6 L39.2 -19.0 Q22.15 -30.9 10.4 -31.8 M-16.4 -35.65 Q-15.45 -32.55 -16.6 -27.5 L-8.95 -17.6 Q-33.5 -12.95 -52.95 10.95 -61.5 21.4 -66.35 47.85 -65.8 -22.75 -16.4 -35.65" fill="#9bd7e6" fill-rule="evenodd" stroke="none"/>
    <path d="M9.3 -36.9 L10.4 -31.8 Q22.15 -30.9 39.2 -19.0 77.15 23.05 62.15 69.15 L61.95 69.75 Q62.85 59.7 60.15 47.75 58.85 41.8 55.6 38.4 L47.75 30.75 Q39.45 22.25 31.6 16.4 23.65 10.5 16.25 9.0 -1.6 6.45 -3.95 -11.1 L-3.75 -15.65 Q2.25 -24.9 1.95 -40.4 2.7 -51.1 -0.85 -62.7 5.65 -52.15 9.3 -36.9 M-8.95 -17.6 L-3.95 -11.1 Q-4.75 -9.6 -4.7 -8.25 -5.25 -5.65 -5.25 -3.25 -5.45 -0.85 -4.65 1.4 L-4.6 1.5 Q-16.55 11.9 -29.85 19.65 -52.4 26.2 -66.35 47.85 -61.5 21.4 -52.95 10.95 -33.5 -12.95 -8.95 -17.6" fill="#78cbdf" fill-rule="evenodd" stroke="none"/>
    <path d="M-0.85 -62.7 Q2.7 -51.1 1.95 -40.4 2.25 -24.9 -3.75 -15.65 -3.3 -44.8 -17.85 -57.9 -9.55 -60.95 -9.15 -73.15 -4.55 -68.7 -0.85 -62.7 M-3.95 -11.1 Q-1.6 6.45 16.25 9.0 23.65 10.5 31.6 16.4 39.45 22.25 47.75 30.75 L55.6 38.4 Q58.85 41.8 60.15 47.75 62.85 59.7 61.95 69.75 L60.75 73.15 Q63.1 57.1 52.65 42.5 46.45 33.85 35.75 25.7 20.75 15.65 10.4 12.2 0.25 9.6 -3.1 5.0 L-4.55 1.65 -3.1 5.0 Q-7.0 7.6 -21.7 15.7 L-29.85 19.65 Q-16.55 11.9 -4.6 1.5 L-4.65 1.4 Q-5.45 -0.85 -5.25 -3.25 -5.25 -5.65 -4.7 -8.25 -4.75 -9.6 -3.95 -11.1 M-4.55 1.65 L-4.6 1.5 -4.55 1.65" fill="#66a2af" fill-rule="evenodd" stroke="none"/>
    <path d="M-3.75 -15.65 L-3.95 -11.1 -8.95 -17.6 -16.6 -27.5 Q-15.45 -32.55 -16.4 -35.65 -17.65 -39.65 -22.3 -40.5 -20.45 -46.25 -24.6 -52.0 L-17.85 -57.9 Q-3.3 -44.8 -3.75 -15.65" fill="#335f74" fill-rule="evenodd" stroke="none"/>
    <path d="M9.3 -36.9 L10.4 -31.8 M39.2 -19.0 L37.75 -20.6 Q24.7 -34.4 9.3 -36.9 5.65 -52.15 -0.85 -62.7 -4.55 -68.7 -9.15 -73.15 M-3.75 -15.65 L-3.95 -11.1 -8.95 -17.6 -16.6 -27.5 Q-15.45 -32.55 -16.4 -35.65 -65.8 -22.75 -66.35 47.85 -52.4 26.2 -29.85 19.65 L-21.7 15.7 Q-7.0 7.6 -3.1 5.0 0.25 9.6 10.4 12.2 20.75 15.65 35.75 25.7 46.45 33.85 52.65 42.5 63.1 57.1 60.75 73.15 L61.95 69.75 62.15 69.15 Q77.15 23.05 39.2 -19.0 M-24.6 -52.0 Q-20.45 -46.25 -22.3 -40.5 -17.65 -39.65 -16.4 -35.65 M-17.85 -57.9 Q-3.3 -44.8 -3.75 -15.65" fill="none" stroke="#22383d" stroke-linecap="round" stroke-linejoin="round" stroke-width="1.0"/>
    <path d="M-4.7 -8.25 Q-5.25 -5.65 -5.25 -3.25 M-4.55 1.65 L-3.1 5.0" fill="none" stroke="#22383d" stroke-linecap="round" stroke-linejoin="round" stroke-width="1.2000000000000002"/>
    <path d="M-4.65 1.4 L-4.6 1.5 -4.55 1.65" fill="none" stroke="#22383d" stroke-linecap="round" stroke-linejoin="round" stroke-width="0.05"/>
  </g>
</svg>
