<?xml version="1.0" encoding="UTF-8" standalone="no"?>
<svg xmlns:xlink="http://www.w3.org/1999/xlink" height="75.9px" width="94.6px" xmlns="http://www.w3.org/2000/svg">
  <g transform="matrix(1.0, 0.0, 0.0, 1.0, 47.6, 37.95)">
    <path d="M-31.7 -36.3 Q-16.8 -34.85 -4.7 -31.65 6.7 -28.65 16.9 -24.3 28.55 -19.5 38.6 -12.95 L47.0 1.65 Q25.2 -24.3 -31.7 -36.3" fill="#325e74" fill-rule="evenodd" stroke="none"/>
    <path d="M38.05 8.05 Q37.05 16.8 32.2 20.8 30.9 21.9 29.35 22.65 L27.7 23.35 Q19.1 25.05 12.6 30.15 9.5 34.0 8.6 37.35 L5.9 33.8 Q13.25 24.35 23.1 18.25 7.85 19.5 -2.65 27.3 -4.3 26.5 -6.0 25.75 L-6.3 23.25 Q8.6 16.0 25.25 12.05 7.65 5.65 -11.35 10.8 -12.75 8.95 -14.45 7.4 1.35 2.25 23.1 5.8 29.65 4.35 23.55 -1.05 11.05 -13.8 -28.05 -24.6 -34.55 -30.65 -44.75 -36.7 -26.4 -32.0 -11.75 -26.2 21.85 -12.9 36.05 6.25 L38.05 8.05" fill="#bcb79a" fill-rule="evenodd" stroke="none"/>
    <path d="M47.0 1.65 L38.05 8.05 36.05 6.25 Q21.85 -12.9 -11.75 -26.2 -20.0 -32.35 -31.7 -36.3 25.2 -24.3 47.0 1.65 M-44.75 -36.7 L-47.0 -37.35 -44.7 -37.25 -44.75 -36.7" fill="#336d89" fill-rule="evenodd" stroke="none"/>
    <path d="M5.9 33.8 Q2.35 29.75 -2.65 27.3 7.85 19.5 23.1 18.25 13.25 24.35 5.9 33.8 M-6.3 23.25 Q-7.55 15.85 -11.35 10.8 7.65 5.65 25.25 12.05 8.6 16.0 -6.3 23.25 M-14.45 7.4 Q-16.1 5.95 -18.05 4.75 -11.95 -9.7 -28.05 -24.6 11.05 -13.8 23.55 -1.05 29.65 4.35 23.1 5.8 1.35 2.25 -14.45 7.4" fill="#f0ebc3" fill-rule="evenodd" stroke="none"/>
    <path d="M-44.7 -37.25 L-32.15 -36.35 -31.75 -36.3 -31.7 -36.3 Q-20.0 -32.35 -11.75 -26.2 -26.4 -32.0 -44.75 -36.7 L-44.7 -37.25" fill="#6e96aa" fill-rule="evenodd" stroke="none"/>
    <path d="M-31.7 -36.3 Q-16.8 -34.85 -4.7 -31.65 6.7 -28.65 16.9 -24.3 28.55 -19.5 38.6 -12.95 M38.05 8.05 Q37.05 16.8 32.2 20.8 30.9 21.9 29.35 22.65 L27.7 23.35 Q19.1 25.05 12.6 30.15 9.5 34.0 8.6 37.35 L5.9 33.8 Q2.35 29.75 -2.65 27.3 -4.3 26.5 -6.0 25.75 L-6.3 23.25 Q-7.55 15.85 -11.35 10.8 -12.75 8.95 -14.45 7.4 -16.1 5.95 -18.05 4.75 -11.95 -9.7 -28.05 -24.6 -34.55 -30.65 -44.75 -36.7 L-47.0 -37.35 -44.7 -37.25 -32.15 -36.35 M-44.75 -36.7 Q-26.4 -32.0 -11.75 -26.2 21.85 -12.9 36.05 6.25 L38.05 8.05" fill="none" stroke="#22383d" stroke-linecap="round" stroke-linejoin="round" stroke-width="1.2000000000000002"/>
    <path d="M-32.15 -36.35 L-31.75 -36.3 -31.7 -36.3 Z" fill="none" stroke="#22383d" stroke-linecap="round" stroke-linejoin="round" stroke-width="0.05"/>
  </g>
</svg>
