<?xml version="1.0" encoding="UTF-8" standalone="no"?>
<svg xmlns:xlink="http://www.w3.org/1999/xlink" height="150.1px" width="87.8px" xmlns="http://www.w3.org/2000/svg">
  <g transform="matrix(1.0, 0.0, 0.0, 1.0, 20.1, 84.0)">
    <path d="M-1.45 -79.55 L9.85 -74.6 12.2 -73.3 Q16.9 -70.5 20.25 -66.6 7.05 -74.65 -14.35 -82.1 -8.8 -81.55 -3.15 -80.05 L-1.45 -79.55 M58.0 -15.95 L58.0 -16.0 58.4 -16.0 58.0 -15.95 M53.5 -48.0 L53.2 -47.55 53.1 -47.65 53.5 -48.0" fill="#6e96aa" fill-rule="evenodd" stroke="none"/>
    <path d="M20.25 -66.6 Q16.9 -70.5 12.2 -73.3 L9.85 -74.6 -1.45 -79.55 Q4.25 -77.9 10.1 -75.25 L12.65 -74.1 Q18.6 -72.25 24.25 -69.1 L24.35 -69.05 24.4 -69.05 30.3 -65.4 Q44.55 -58.15 53.1 -47.65 L53.2 -47.55 53.5 -48.0 54.0 -46.95 Q56.7 -40.85 58.45 -34.9 60.3 -28.5 59.0 -19.75 L58.4 -16.0 58.0 -16.0 58.0 -15.95 57.9 -13.35 58.0 -15.95 58.4 -16.0 57.9 -13.35 56.95 -9.5 56.9 -9.2 Q56.6 -8.0 57.45 -6.9 L57.45 -6.85 Q62.7 5.8 57.45 15.9 43.6 -0.7 24.95 4.95 L24.45 5.1 24.35 5.15 24.25 5.2 24.05 5.25 Q22.2 5.85 20.3 6.7 13.1 8.35 8.8 5.25 L7.7 3.9 11.55 -3.65 Q9.35 -18.95 21.95 -19.25 34.4 -19.8 48.45 -15.4 L48.5 -15.35 48.55 -15.3 48.55 -15.35 50.45 -18.1 51.55 -20.5 Q53.7 -26.45 51.4 -33.5 L49.55 -37.6 Q47.7 -41.25 46.3 -44.85 L46.15 -45.15 44.9 -47.7 41.95 -52.4 Q39.1 -54.1 38.25 -53.55 32.6 -59.45 22.3 -65.3 L22.05 -65.45 20.25 -66.6 M34.65 -12.4 Q26.75 -15.35 22.4 -11.35 21.55 -7.55 26.85 -7.1 L35.15 -6.25 Q43.45 -4.4 38.5 -10.45 37.4 -12.4 34.65 -12.4" fill="#336d89" fill-rule="evenodd" stroke="none"/>
    <path d="M-5.9 -72.65 Q10.35 -69.15 20.15 -62.2 L20.25 -62.15 20.05 -62.3 Q29.1 -56.3 33.45 -48.65 L33.65 -48.2 33.65 -48.15 34.8 -45.5 34.85 -45.35 38.25 -37.45 39.85 -33.4 Q36.85 -32.5 29.35 -34.4 L23.7 -35.25 Q11.2 -35.8 2.25 -32.0 0.95 -35.45 -2.35 -38.05 L-4.3 -40.0 Q1.55 -41.45 7.6 -41.3 L8.75 -41.25 8.75 -41.2 Q16.9 -40.7 25.45 -38.0 19.9 -41.45 12.2 -42.9 L12.25 -42.9 11.9 -42.95 11.55 -43.0 10.0 -43.35 8.95 -43.45 Q3.0 -44.15 -4.85 -43.45 -0.35 -49.4 -6.45 -53.4 5.1 -54.05 13.6 -51.45 L13.7 -51.45 13.75 -51.4 Q21.25 -48.95 26.2 -45.5 L27.85 -43.75 28.4 -43.35 Q40.8 -35.9 31.9 -44.0 L31.65 -44.25 29.1 -46.85 Q23.6 -51.55 16.95 -54.35 L17.6 -54.1 15.85 -55.05 Q3.3 -60.55 -14.4 -57.55 -0.5 -63.0 -5.9 -72.65" fill="#f0ebc3" fill-rule="evenodd" stroke="none"/>
    <path d="M-14.35 -82.1 Q7.05 -74.65 20.25 -66.6 L22.05 -65.45 22.3 -65.3 Q32.6 -59.45 38.25 -53.55 41.25 -49.8 43.35 -45.4 45.35 -41.15 46.4 -37.6 48.2 -31.0 45.55 -23.95 L44.05 -23.25 44.0 -23.25 40.55 -24.85 Q31.55 -28.6 21.0 -28.95 L14.6 -28.95 Q8.55 -28.4 3.05 -26.35 3.2 -29.4 2.25 -32.0 11.2 -35.8 23.7 -35.25 L29.35 -34.4 Q36.85 -32.5 39.85 -33.4 L38.25 -37.45 34.85 -45.35 34.8 -45.5 33.65 -48.15 33.65 -48.2 33.45 -48.65 Q29.1 -56.3 20.05 -62.3 L20.25 -62.15 20.15 -62.2 Q10.35 -69.15 -5.9 -72.65 -8.5 -77.05 -14.65 -82.2 L-14.7 -82.25 -14.35 -82.1 M-14.4 -57.55 Q3.3 -60.55 15.85 -55.05 L17.6 -54.1 16.95 -54.35 Q23.6 -51.55 29.1 -46.85 L31.65 -44.25 31.9 -44.0 Q40.8 -35.9 28.4 -43.35 L27.85 -43.75 26.2 -45.5 Q21.25 -48.95 13.75 -51.4 L13.7 -51.45 13.6 -51.45 Q5.1 -54.05 -6.45 -53.4 L-6.6 -53.5 Q-9.9 -55.5 -16.0 -56.95 L-14.4 -57.55 M-4.85 -43.45 Q3.0 -44.15 8.95 -43.45 L10.0 -43.35 11.55 -43.0 11.9 -42.95 12.25 -42.9 12.2 -42.9 Q19.9 -41.45 25.45 -38.0 16.9 -40.7 8.75 -41.2 L8.75 -41.25 7.6 -41.3 Q1.55 -41.45 -4.3 -40.0 -5.0 -41.05 -6.45 -41.85 L-6.1 -41.85 -4.85 -43.45" fill="#bcb79a" fill-rule="evenodd" stroke="none"/>
    <path d="M-1.45 -79.55 L-3.15 -80.05 Q-8.8 -81.55 -14.35 -82.1 L-14.7 -82.25 -14.75 -82.25 -14.9 -82.3 -18.2 -83.4 -14.75 -83.1 -14.2 -83.05 Q1.4 -81.55 15.05 -75.65 20.15 -73.4 25.05 -70.55 L25.2 -70.45 25.2 -70.35 Q28.65 -68.65 32.0 -66.65 38.25 -63.4 42.65 -60.25 50.45 -54.7 53.5 -48.0 L53.1 -47.65 Q44.55 -58.15 30.3 -65.4 L24.4 -69.05 24.35 -69.05 24.25 -69.1 Q18.6 -72.25 12.65 -74.1 L10.1 -75.25 Q4.25 -77.9 -1.45 -79.55 M38.25 -53.55 Q39.1 -54.1 41.95 -52.4 L44.9 -47.7 46.15 -45.15 46.3 -44.85 Q47.7 -41.25 49.55 -37.6 L51.4 -33.5 Q53.7 -26.45 51.55 -20.5 L50.45 -18.1 48.55 -15.35 48.55 -15.3 48.5 -15.35 48.45 -15.4 Q34.4 -19.8 21.95 -19.25 9.35 -18.95 11.55 -3.65 L4.95 -7.95 Q-6.85 -9.3 -19.5 -8.65 -13.25 -16.9 -5.75 -21.85 -1.55 -24.6 3.05 -26.35 8.55 -28.4 14.6 -28.95 L21.0 -28.95 Q31.55 -28.6 40.55 -24.85 L44.0 -23.25 44.05 -23.25 45.55 -23.95 Q48.2 -31.0 46.4 -37.6 45.35 -41.15 43.35 -45.4 41.25 -49.8 38.25 -53.55 M57.45 15.9 Q62.7 5.8 57.45 -6.85 L57.45 -6.9 Q56.6 -8.0 56.9 -9.2 L56.95 -9.5 57.9 -13.35 58.4 -16.0 60.8 -13.15 62.8 -10.3 Q65.4 1.45 66.1 13.0 63.3 10.15 58.05 15.4 L57.5 15.95 57.45 15.9" fill="#325e74" fill-rule="evenodd" stroke="none"/>
    <path d="M34.65 -12.4 Q37.4 -12.4 38.5 -10.45 43.45 -4.4 35.15 -6.25 L26.85 -7.1 Q21.55 -7.55 22.4 -11.35 26.75 -15.35 34.65 -12.4" fill="#49809a" fill-rule="evenodd" stroke="none"/>
    <path d="M62.9 27.7 L62.9 28.4 Q62.95 30.1 63.6 31.55 66.85 37.35 67.1 42.15 L67.1 42.3 67.1 43.75 67.1 43.95 66.8 45.8 Q66.7 47.5 65.65 49.05 64.1 50.55 62.0 51.7 59.45 53.1 56.15 53.7 51.2 54.45 47.8 53.05 L47.8 53.0 47.4 53.0 47.75 53.05 45.4 52.8 44.35 52.65 41.15 51.95 38.35 50.95 37.5 50.6 34.3 48.8 Q61.65 54.8 62.15 46.8 L62.9 47.0 63.2 47.0 Q65.0 46.45 65.75 45.3 L66.3 43.85 66.35 43.75 66.3 42.25 66.2 41.95 65.9 41.75 65.35 41.55 Q62.8 36.55 61.1 35.2 L61.05 35.15 Q59.2 33.7 58.2 31.1 L57.95 30.4 57.75 30.0 Q56.85 27.85 57.75 23.0 58.1 27.45 57.75 30.0 60.6 29.8 62.9 27.7 M36.5 62.65 Q2.6 54.45 -3.95 44.55 -10.5 34.65 -13.2 22.2 -20.2 18.6 -11.95 13.05 -0.75 57.7 32.75 51.9 L32.75 52.0 Q32.55 52.5 32.8 56.2 L32.85 56.7 Q33.05 57.95 33.6 59.15 34.55 61.05 36.5 62.65 M66.1 13.0 L64.65 17.95 Q60.4 15.95 57.5 19.5 L57.5 15.95 58.05 15.4 Q63.3 10.15 66.1 13.0 M26.75 12.55 L26.7 12.65 26.0 13.75 25.9 13.95 Q23.85 17.7 25.15 21.65 L25.25 22.0 Q26.5 25.3 30.2 28.75 33.85 30.9 37.55 32.35 33.95 33.15 27.45 29.1 22.25 25.7 22.6 18.55 22.85 12.9 25.3 12.35 L26.55 12.5 26.75 12.55" fill="#66a2af" fill-rule="evenodd" stroke="none"/>
    <path d="M8.8 5.25 Q13.1 8.35 20.3 6.7 22.2 5.85 24.05 5.25 L24.25 5.2 24.35 5.15 24.45 5.1 24.95 4.95 Q43.6 -0.7 57.45 15.9 L57.5 15.95 57.5 19.5 57.75 23.0 Q56.85 27.85 57.75 30.0 L57.95 30.4 58.2 31.1 Q59.2 33.7 61.05 35.15 L61.1 35.2 Q62.8 36.55 65.35 41.55 62.75 40.9 60.5 42.45 L60.35 42.65 60.25 42.9 Q59.9 46.0 62.15 46.8 61.65 54.8 34.3 48.8 L34.25 48.8 33.45 48.3 33.35 48.25 33.1 48.2 Q32.5 50.3 32.75 51.9 -0.75 57.7 -11.95 13.05 -6.1 9.0 7.65 4.0 L7.7 3.95 7.7 4.0 8.8 5.25 M37.55 32.35 Q41.05 33.7 44.65 34.4 47.95 32.7 46.85 28.9 L46.8 28.85 46.2 27.45 Q40.8 15.25 30.35 12.95 L26.8 12.45 26.8 12.5 26.75 12.55 26.55 12.5 25.3 12.35 Q22.85 12.9 22.6 18.55 22.25 25.7 27.45 29.1 33.95 33.15 37.55 32.35 M23.9 12.35 L25.3 12.35 23.9 12.35 M26.55 12.5 L26.8 12.5 26.55 12.5 M7.7 4.0 L7.65 4.0 7.7 4.0 M25.2 36.95 L24.2 36.15 24.0 35.95 23.45 35.5 Q19.1 31.7 17.35 28.05 10.2 22.65 14.2 31.95 19.85 39.4 25.2 36.95 M37.5 50.6 L34.75 49.2 34.3 48.8 37.5 50.6" fill="#78cbdf" fill-rule="evenodd" stroke="none"/>
    <path d="M62.15 46.8 Q59.9 46.0 60.25 42.9 L60.35 42.65 60.5 42.45 Q62.75 40.9 65.35 41.55 L65.9 41.75 66.2 41.95 66.3 42.25 66.35 43.75 66.3 43.85 65.75 45.3 Q65.0 46.45 63.2 47.0 L62.9 47.0 62.15 46.8 M63.4 42.0 Q63.75 43.45 65.45 43.55 65.95 43.1 65.55 42.3 64.3 41.55 63.4 42.0" fill="#22383d" fill-rule="evenodd" stroke="none"/>
    <path d="M63.4 42.0 Q64.3 41.55 65.55 42.3 65.95 43.1 65.45 43.55 63.75 43.45 63.4 42.0" fill="#cccccc" fill-rule="evenodd" stroke="none"/>
    <path d="M25.2 36.95 Q19.85 39.4 14.2 31.95 10.2 22.65 17.35 28.05 19.1 31.7 23.45 35.5 L24.0 35.95 24.2 36.15 25.2 36.95" fill="#9bd7e6" fill-rule="evenodd" stroke="none"/>
    <path d="M47.8 53.05 L47.75 53.05 47.75 53.1 Q46.9 53.75 46.3 54.7 45.55 55.9 45.2 57.5 L42.2 55.45 Q41.25 54.9 40.35 54.5 37.55 53.15 34.85 52.75 L32.75 52.45 32.75 52.0 32.75 51.9 Q32.5 50.3 33.1 48.2 L33.35 48.25 33.45 48.3 34.25 48.8 34.3 48.8 34.75 49.2 37.5 50.6 38.35 50.95 41.15 51.95 44.35 52.65 45.4 52.8 47.75 53.05 47.4 53.0 47.8 53.0 47.8 53.05 M47.75 53.05 Q44.75 53.4 41.15 51.95 44.75 53.4 47.75 53.05" fill="url(#gradient0)" fill-rule="evenodd" stroke="none"/>
    <path d="M32.75 52.0 L32.75 52.45 34.85 52.75 Q37.55 53.15 40.35 54.5 41.25 54.9 42.2 55.45 L37.9 55.1 Q40.6 55.95 41.3 60.15 39.9 56.2 35.15 55.5 32.9 55.2 32.85 56.7 L32.8 56.2 Q32.55 52.5 32.75 52.0" fill="#ab8ca3" fill-rule="evenodd" stroke="none"/>
    <path d="M45.2 57.5 Q46.65 70.25 36.55 62.65 L36.5 62.65 Q34.55 61.05 33.6 59.15 33.05 57.95 32.85 56.7 32.9 55.2 35.15 55.5 39.9 56.2 41.3 60.15 40.6 55.95 37.9 55.1 L42.2 55.45 45.2 57.5" fill="#cba7c2" fill-rule="evenodd" stroke="none"/>
    <path d="M-14.35 -82.1 Q7.05 -74.65 20.25 -66.6 L22.05 -65.45 22.3 -65.3 Q32.6 -59.45 38.25 -53.55 41.25 -49.8 43.35 -45.4 45.35 -41.15 46.4 -37.6 48.2 -31.0 45.55 -23.95 L44.05 -23.25 44.0 -23.25 40.55 -24.85 Q31.55 -28.6 21.0 -28.95 L14.6 -28.95 Q8.55 -28.4 3.05 -26.35 3.2 -29.4 2.25 -32.0 0.95 -35.45 -2.35 -38.05 L-4.3 -40.0 Q-5.0 -41.05 -6.45 -41.85 M7.7 3.9 L8.8 5.25 Q13.1 8.35 20.3 6.7 22.2 5.85 24.05 5.25 L24.25 5.2 24.35 5.15 24.45 5.1 24.95 4.95 Q43.6 -0.7 57.45 15.9 L57.5 15.95 58.05 15.4 Q63.3 10.15 66.1 13.0 65.4 1.45 62.8 -10.3 L60.8 -13.15 58.4 -16.0 59.0 -19.75 Q60.3 -28.5 58.45 -34.9 56.7 -40.85 54.0 -46.95 L53.5 -48.0 Q50.45 -54.7 42.65 -60.25 38.25 -63.4 32.0 -66.65 28.65 -68.65 25.2 -70.35 M57.45 -6.9 Q56.6 -8.0 56.9 -9.2 L56.95 -9.5 57.9 -13.35 58.4 -16.0 M-5.9 -72.65 Q-0.5 -63.0 -14.4 -57.55 L-16.0 -56.95 Q-9.9 -55.5 -6.6 -53.5 L-6.45 -53.4 Q-0.35 -49.4 -4.85 -43.45 L-6.1 -41.85 M25.2 -70.45 L25.05 -70.55 Q20.15 -73.4 15.05 -75.65 1.4 -81.55 -14.2 -83.05 L-14.75 -83.1 -18.2 -83.4 -14.9 -82.3 -14.75 -82.25 -14.7 -82.25 -14.35 -82.1 M64.65 17.95 Q64.35 19.4 64.35 21.75 64.35 24.1 62.9 27.7 L62.9 28.4 Q62.95 30.1 63.6 31.55 66.85 37.35 67.1 42.15 L67.1 42.3 67.1 43.75 67.1 43.95 66.8 45.8 Q66.7 47.5 65.65 49.05 64.1 50.55 62.0 51.7 59.45 53.1 56.15 53.7 51.2 54.45 47.8 53.05 M47.75 53.1 Q46.9 53.75 46.3 54.7 45.55 55.9 45.2 57.5 46.65 70.25 36.55 62.65 L36.5 62.65 Q2.6 54.45 -3.95 44.55 -10.5 34.65 -13.2 22.2 M66.1 13.0 L64.65 17.95 Q60.4 15.95 57.5 19.5 L57.75 23.0 Q58.1 27.45 57.75 30.0 60.6 29.8 62.9 27.7 M37.55 32.35 Q41.05 33.7 44.65 34.4 47.95 32.7 46.85 28.9 M26.8 12.45 L26.8 12.5 26.55 12.5 25.3 12.35 23.9 12.35 M26.75 12.55 L26.7 12.65 26.0 13.75 25.9 13.95 Q23.85 17.7 25.15 21.65 M25.25 22.0 Q26.5 25.3 30.2 28.75 33.85 30.9 37.55 32.35 M7.65 4.0 L7.7 4.0 M34.3 48.8 L34.25 48.8 33.45 48.3 33.35 48.25 M33.1 48.2 Q32.5 50.3 32.75 51.9 L32.75 52.0 Q32.55 52.5 32.8 56.2 L32.85 56.7 Q33.05 57.95 33.6 59.15 34.55 61.05 36.5 62.65 M41.15 51.95 L38.35 50.95 37.5 50.6 34.3 48.8 M41.15 51.95 Q44.75 53.4 47.75 53.05 M-14.7 -82.25 L-14.65 -82.2 Q-8.5 -77.05 -5.9 -72.65 M-19.5 -8.65 Q-13.25 -16.9 -5.75 -21.85 -1.55 -24.6 3.05 -26.35" fill="none" stroke="#22383d" stroke-linecap="round" stroke-linejoin="round" stroke-width="1.2000000000000002"/>
    <path d="M48.55 -15.3 L48.5 -15.35 48.45 -15.4 M57.9 -13.35 L58.0 -15.95 58.0 -16.0" fill="none" stroke="#22383d" stroke-linecap="round" stroke-linejoin="round" stroke-width="0.05"/>
    <path d="M47.2 28.4 L47.35 28.6 Q47.55 28.95 47.25 29.25 L46.4 29.3 46.35 29.25 46.25 29.1 46.2 29.05 45.7 27.9 44.1 24.9 42.3 22.1 40.75 20.15 40.3 19.7 40.2 19.55 37.45 17.05 35.7 15.9 34.85 15.4 33.9 14.95 33.75 14.85 33.55 14.8 32.8 14.45 32.6 14.4 32.4 14.3 31.2 13.95 30.8 13.8 30.2 13.65 30.15 13.65 30.05 13.6 27.35 13.1 27.2 13.15 26.85 13.15 27.05 13.05 26.8 13.0 26.8 13.1 26.85 13.15 26.75 13.15 Q26.15 13.15 26.15 12.55 L26.1 12.5 26.1 12.45 26.05 12.4 26.05 12.3 26.0 12.25 26.0 12.2 26.05 12.15 26.05 12.05 26.1 11.95 26.1 11.9 26.15 11.9 26.3 11.8 26.65 11.8 26.75 11.85 26.8 11.85 30.3 12.2 30.55 12.2 31.85 12.5 32.05 12.6 32.5 12.7 32.9 12.85 33.1 12.9 34.15 13.3 34.35 13.4 36.2 14.25 36.55 14.5 37.35 14.95 39.85 16.85 42.3 19.4 44.8 23.05 46.7 26.95 47.35 28.6 47.25 28.45 47.2 28.4" fill="#22383d" fill-rule="evenodd" stroke="none"/>
  </g>
  <defs>
    <linearGradient gradientTransform="matrix(0.0095, 0.0, 0.0, 0.0057, 40.05, 52.85)" gradientUnits="userSpaceOnUse" id="gradient0" spreadMethod="pad" x1="-819.2" x2="819.2">
      <stop offset="0.19607843137254902" stop-color="#000000"/>
      <stop offset="0.6039215686274509" stop-color="#89637b"/>
    </linearGradient>
  </defs>
</svg>
