<?xml version="1.0" encoding="UTF-8" standalone="no"?>
<svg xmlns:xlink="http://www.w3.org/1999/xlink" height="9.0px" width="13.5px" xmlns="http://www.w3.org/2000/svg">
  <g transform="matrix(1.0, 0.0, 0.0, 1.0, 6.7, 5.35)">
    <path d="M-3.05 1.6 Q-3.05 2.9 -3.35 3.5 L-3.65 1.6 -3.75 -0.3 -4.1 -2.35 Q-6.7 -3.6 -6.7 -4.0 -6.7 -4.25 -4.25 -3.15 L-4.4 -4.05 Q-4.4 -5.05 -4.1 -4.45 L-3.65 -3.35 -3.55 -2.85 -1.9 -2.1 -2.2 -4.35 -1.9 -4.65 Q-1.55 -4.65 -1.5 -4.25 L-1.3 -3.4 -1.2 -1.8 -0.05 -1.25 1.2 -0.7 Q0.8 -2.95 0.8 -4.3 0.8 -5.95 1.3 -4.5 L1.75 -1.8 1.85 -0.4 4.15 0.6 4.0 -1.05 3.55 -2.85 Q3.25 -3.95 3.25 -4.7 3.25 -5.9 3.75 -4.8 L4.35 -2.4 4.55 -0.65 4.75 0.9 6.8 1.9 6.45 2.2 4.8 1.8 Q4.75 2.6 4.45 2.6 4.25 2.6 4.2 1.55 L2.5 0.8 1.9 0.5 2.05 2.35 Q2.05 3.05 1.75 3.2 1.4 2.45 1.35 1.3 L1.25 0.15 -0.4 -0.75 -1.15 -1.05 -1.05 1.9 Q-1.05 3.65 -1.35 3.65 -1.75 3.65 -1.75 -0.35 L-1.8 -1.35 -3.45 -2.05 -3.4 -1.7 Q-3.05 -0.15 -3.05 1.6" fill="#000000" fill-rule="evenodd" stroke="none"/>
  </g>
</svg>
