<?xml version="1.0" encoding="UTF-8" standalone="no"?>
<svg xmlns:xlink="http://www.w3.org/1999/xlink" height="88.3px" width="44.95px" xmlns="http://www.w3.org/2000/svg">
  <g transform="matrix(1.0, 0.0, 0.0, 1.0, 85.4, 70.7)">
    <path d="M-78.0 -63.35 Q-76.05 -62.85 -76.05 -61.65 -76.05 -60.15 -76.95 -55.8 -76.95 -55.4 -77.35 -55.1 -77.75 -54.8 -78.3 -54.8 L-79.35 -56.65 -79.1 -61.15 -78.75 -62.7 Q-78.45 -63.35 -78.0 -63.35 M-71.15 -57.65 Q-71.1 -59.7 -70.4 -60.55 -69.85 -61.25 -69.5 -60.8 L-69.6 -64.95 Q-69.35 -66.7 -67.2 -67.8 L-66.05 -66.45 Q-66.05 -65.6 -67.05 -62.55 L-68.1 -58.7 Q-68.1 -57.0 -66.55 -54.95 -64.65 -52.45 -64.15 -50.75 L-65.45 -50.65 Q-65.45 -51.25 -65.95 -51.65 -66.45 -52.05 -67.15 -52.05 -70.4 -55.75 -71.15 -57.65 M-70.45 -50.15 Q-69.7 -48.8 -69.15 -46.15 -68.75 -43.9 -68.8 -42.9 L-69.35 -42.15 -69.55 -42.55 Q-69.55 -46.8 -71.5 -46.8 -72.5 -46.8 -72.85 -46.35 -72.8 -42.95 -72.1 -41.2 L-71.4 -40.0 Q-71.4 -38.85 -71.8 -38.25 L-72.7 -38.85 -73.55 -44.1 Q-74.45 -48.8 -74.45 -51.45 L-74.4 -53.85 Q-73.5 -54.3 -72.5 -54.3 -72.0 -54.3 -71.3 -53.45 -70.4 -52.25 -70.45 -50.15 M-64.9 -34.25 Q-63.45 -32.65 -61.55 -29.85 L-59.8 -27.1 -59.45 -22.7 Q-59.3 -20.25 -58.8 -18.45 L-59.4 -18.75 -60.1 -18.8 Q-60.95 -21.65 -62.15 -24.2 L-66.6 -33.3 -66.1 -33.95 -64.9 -34.25 M-55.2 -10.55 L-54.55 -9.25 Q-53.2 -9.0 -52.7 -8.45 -52.2 -7.9 -52.5 -7.3 L-52.65 -7.05 Q-53.05 -6.65 -53.8 -6.4 L-55.5 -6.25 -56.3 -7.05 -56.85 -7.9 Q-56.85 -8.8 -56.25 -9.6 L-55.25 -10.55 -55.2 -10.55 M-43.7 15.85 L-44.7 14.6 -45.4 13.0 -45.35 12.3 -45.35 12.35 -45.1 11.8 Q-44.9 11.5 -44.25 11.5 -43.4 11.5 -42.7 12.9 L-41.95 14.55 -42.2 15.95 -42.85 16.0 -43.7 15.85 M-56.25 -4.9 L-55.8 -4.35 -55.7 -4.0 Q-55.05 -2.95 -55.25 -2.55 L-55.45 -2.05 Q-55.7 -1.7 -56.3 -1.7 -56.65 -1.7 -58.0 -3.3 L-58.0 -3.45 -57.75 -4.3 Q-57.35 -4.95 -56.25 -4.9 M-54.8 5.15 L-54.55 5.75 -55.3 7.4 Q-55.75 8.05 -56.6 8.05 L-58.0 7.75 -58.0 6.45 Q-57.4 5.15 -56.85 4.75 -56.0 4.25 -54.8 5.15 M-81.05 -44.2 L-80.75 -44.75 -79.2 -48.45 Q-77.95 -47.1 -77.55 -47.1 L-76.95 -47.5 -76.4 -48.4 -77.0 -49.8 Q-77.25 -50.55 -78.05 -50.95 L-77.15 -52.6 -75.95 -51.05 Q-76.1 -49.25 -76.4 -48.4 L-77.75 -44.9 Q-77.95 -45.45 -78.85 -45.75 -81.45 -41.05 -79.85 -38.9 -81.4 -40.7 -81.4 -41.3 L-81.05 -44.2 M-81.85 -57.6 Q-81.4 -56.5 -81.95 -55.15 -83.5 -54.4 -83.65 -53.65 L-84.5 -54.6 -84.85 -55.3 Q-84.85 -56.75 -83.65 -57.25 L-81.85 -57.6 M-50.1 -62.9 L-50.1 -63.65 -50.05 -63.75 -50.35 -64.6 -50.05 -65.45 Q-50.0 -65.75 -49.15 -65.75 -48.05 -65.75 -47.4 -65.25 -46.75 -64.75 -46.75 -63.9 -46.75 -63.4 -47.25 -62.6 -47.85 -61.7 -48.55 -61.7 L-50.1 -62.9 M-68.1 -33.65 Q-68.8 -33.65 -69.25 -34.35 -69.75 -35.05 -69.75 -36.0 L-68.1 -33.65 M-72.15 -9.35 Q-72.6 -9.5 -72.7 -9.65 L-72.95 -10.55 -72.9 -10.95 -71.8 -12.05 Q-70.85 -11.95 -70.35 -11.5 -69.85 -11.05 -69.95 -10.5 -70.1 -10.0 -70.75 -9.65 L-72.15 -9.35 M-72.4 -19.75 Q-72.95 -19.95 -72.95 -21.15 -72.95 -22.55 -72.3 -22.8 -71.55 -22.85 -71.05 -22.35 -70.6 -21.9 -70.6 -21.25 -70.65 -20.6 -71.15 -20.15 -71.7 -19.75 -72.4 -19.75 M-57.45 -13.7 L-57.05 -12.3 -57.45 -12.5 -57.45 -13.7 M-58.0 -15.55 L-57.55 -14.1 -57.85 -14.8 -58.0 -15.55" fill="#ffffff" fill-opacity="0.69803923" fill-rule="evenodd" stroke="none"/>
    <path d="M-60.35 -38.95 L-60.4 -38.9 -60.95 -38.9 Q-61.15 -38.9 -61.85 -39.4 L-63.6 -40.95 -63.95 -42.0 Q-61.25 -43.1 -60.95 -42.75 -60.95 -41.9 -60.5 -41.3 L-60.5 -39.05 -60.35 -38.95 M-66.75 -49.95 L-68.6 -48.6 Q-68.95 -48.7 -69.5 -49.55 L-67.75 -50.85 -67.15 -52.05 Q-66.45 -52.05 -65.95 -51.65 -65.45 -51.25 -65.45 -50.65 -65.45 -50.35 -65.8 -50.15 L-66.75 -49.95 M-68.8 -42.9 L-68.45 -40.45 -64.9 -34.25 -66.1 -33.95 -66.6 -33.3 -68.1 -33.65 -69.75 -36.0 Q-70.05 -36.7 -70.45 -36.85 L-70.8 -32.3 -70.5 -31.7 -70.4 -30.95 Q-70.4 -25.7 -71.0 -24.95 L-72.85 -25.05 Q-73.2 -26.8 -73.2 -28.65 L-72.7 -38.85 -71.8 -38.25 Q-71.4 -38.85 -71.4 -40.0 L-72.1 -41.2 Q-72.8 -42.95 -72.85 -46.35 -72.5 -46.8 -71.5 -46.8 -69.55 -46.8 -69.55 -42.55 L-69.35 -42.15 -68.8 -42.9 M-59.8 -27.1 L-59.3 -27.25 Q-57.1 -22.2 -55.75 -18.1 -54.35 -13.8 -54.35 -12.05 -54.35 -11.4 -54.6 -11.05 -54.75 -10.9 -55.25 -10.6 L-55.2 -10.55 -55.25 -10.55 Q-56.0 -10.55 -56.5 -11.05 -57.05 -11.6 -57.05 -12.3 L-57.45 -13.7 -57.55 -14.1 -58.0 -15.55 Q-58.0 -17.4 -58.8 -18.45 -59.3 -20.25 -59.45 -22.7 L-59.8 -27.1 M-78.1 -42.25 Q-77.8 -40.15 -79.7 -38.9 L-79.85 -38.9 Q-81.45 -41.05 -78.85 -45.75 -77.95 -45.45 -77.75 -44.9 -77.65 -43.95 -78.1 -42.25 M-79.5 -32.7 L-79.45 -30.4 Q-79.45 -29.95 -79.9 -29.3 -80.4 -28.6 -81.2 -28.05 -81.4 -28.35 -81.85 -28.45 L-82.7 -28.45 Q-82.95 -28.85 -83.0 -30.15 -82.95 -31.45 -82.7 -31.95 -82.3 -32.8 -79.5 -32.7" fill="#ffffff" fill-rule="evenodd" stroke="none"/>
    <path d="M-81.95 -55.15 L-80.85 -55.15 -80.65 -54.85 -80.45 -54.0 -81.6 -52.1 Q-82.9 -50.2 -83.9 -50.0 -85.35 -51.55 -85.05 -52.2 L-84.45 -52.65 Q-84.45 -53.15 -84.9 -53.35 -85.4 -53.6 -85.4 -54.1 L-84.95 -57.05 Q-84.4 -59.25 -83.7 -60.2 L-83.05 -60.55 Q-82.75 -60.8 -82.75 -62.2 L-82.75 -63.7 Q-82.75 -65.5 -82.55 -65.9 -82.1 -66.9 -79.85 -67.8 L-79.0 -67.5 Q-78.7 -67.3 -78.7 -66.65 L-79.55 -65.15 -80.45 -63.65 -80.45 -63.4 -79.5 -63.6 -78.0 -63.35 Q-78.45 -63.35 -78.75 -62.7 L-79.1 -61.15 -80.4 -59.75 Q-81.6 -58.35 -81.85 -57.6 L-83.65 -57.25 Q-84.85 -56.75 -84.85 -55.3 L-84.5 -54.6 -83.65 -53.65 Q-83.5 -54.4 -81.95 -55.15 M-76.95 -55.8 L-73.6 -56.7 -71.2 -57.2 -71.15 -57.65 Q-70.4 -55.75 -67.15 -52.05 L-67.75 -50.85 -69.5 -49.55 -70.45 -50.15 Q-70.4 -52.25 -71.3 -53.45 -72.0 -54.3 -72.5 -54.3 -73.5 -54.3 -74.4 -53.85 L-74.45 -51.45 Q-74.45 -48.8 -73.55 -44.1 L-72.7 -38.85 -73.2 -28.65 Q-73.2 -26.8 -72.85 -25.05 L-74.6 -31.25 -76.85 -44.5 -78.1 -42.25 Q-77.65 -43.95 -77.75 -44.9 L-76.4 -48.4 Q-76.1 -49.25 -75.95 -51.05 L-77.15 -52.6 -78.05 -50.95 Q-77.25 -50.55 -77.0 -49.8 L-76.4 -48.4 -76.95 -47.5 -77.55 -47.1 Q-77.95 -47.1 -79.2 -48.45 L-80.75 -44.75 -81.05 -46.0 Q-81.05 -46.5 -80.65 -46.7 -80.25 -46.9 -80.25 -47.4 -80.25 -47.9 -80.65 -48.1 -81.05 -48.35 -81.05 -48.85 L-80.8 -50.55 Q-80.2 -52.6 -78.3 -54.8 -77.75 -54.8 -77.35 -55.1 -76.95 -55.4 -76.95 -55.8 M-64.15 -50.75 Q-62.55 -48.5 -61.3 -45.8 -59.8 -42.7 -59.8 -41.15 -59.8 -39.6 -60.35 -38.95 L-60.5 -39.05 -60.5 -41.3 Q-60.95 -41.9 -60.95 -42.75 -61.25 -43.1 -63.95 -42.0 L-64.65 -44.1 -66.75 -49.95 -65.8 -50.15 Q-65.45 -50.35 -65.45 -50.65 L-64.15 -50.75 M-60.4 -38.9 L-60.6 -38.75 -61.55 -38.55 Q-62.75 -38.55 -63.6 -40.95 L-61.85 -39.4 Q-61.15 -38.9 -60.95 -38.9 L-60.4 -38.9 M-52.65 -7.05 Q-49.85 -3.55 -48.0 -0.25 -45.95 3.5 -44.2 9.0 L-42.1 13.15 -40.45 16.2 Q-40.45 17.6 -41.65 17.6 -42.55 17.6 -43.15 16.85 L-43.7 15.85 -42.85 16.0 -42.2 15.95 -41.95 14.55 -42.7 12.9 Q-43.4 11.5 -44.25 11.5 -44.9 11.5 -45.1 11.8 L-45.35 12.35 Q-46.95 9.25 -47.3 6.45 -48.55 2.95 -55.5 -6.25 L-53.8 -6.4 Q-53.05 -6.65 -52.65 -7.05 M-56.3 -7.05 L-56.25 -4.9 Q-57.35 -4.95 -57.75 -4.3 L-58.0 -3.45 Q-58.6 -4.3 -58.6 -6.9 -59.85 -8.5 -60.05 -11.25 L-60.3 -15.75 -58.15 -10.0 -58.35 -8.55 -58.6 -6.9 -57.35 -7.2 Q-56.85 -7.5 -56.85 -7.9 -57.45 -9.2 -57.45 -12.5 L-58.0 -13.35 -60.1 -18.8 -60.65 -18.45 -60.9 -17.6 Q-63.55 -27.15 -64.45 -28.35 -65.5 -29.7 -70.8 -32.3 L-70.45 -36.85 Q-70.05 -36.7 -69.75 -36.0 -69.75 -35.05 -69.25 -34.35 -68.8 -33.65 -68.1 -33.65 L-66.6 -33.3 -62.15 -24.2 Q-60.95 -21.65 -60.1 -18.8 L-59.4 -18.75 -58.8 -18.45 Q-58.0 -17.4 -58.0 -15.55 L-57.85 -14.8 -57.55 -14.1 -57.45 -13.7 -57.45 -12.5 -57.05 -12.3 Q-57.05 -11.6 -56.5 -11.05 -56.0 -10.55 -55.25 -10.55 L-56.25 -9.6 Q-56.85 -8.8 -56.85 -7.9 L-56.3 -7.05 M-55.25 -2.55 L-54.7 0.9 Q-54.35 4.05 -54.8 5.15 -56.0 4.25 -56.85 4.75 -57.4 5.15 -58.0 6.45 -58.0 5.15 -57.4 3.95 -56.85 2.8 -56.85 1.7 -56.85 0.9 -57.4 -0.65 -58.0 -2.25 -58.0 -3.3 -56.65 -1.7 -56.3 -1.7 -55.7 -1.7 -55.45 -2.05 L-55.25 -2.55 M-79.7 -38.9 L-79.5 -36.0 -79.5 -32.7 Q-82.3 -32.8 -82.7 -31.95 -82.95 -31.45 -83.0 -30.15 L-83.3 -30.15 -83.45 -30.9 Q-83.45 -34.4 -82.75 -35.5 -82.05 -36.55 -82.1 -37.8 -82.1 -38.45 -82.45 -40.2 L-82.8 -42.45 Q-82.8 -43.15 -81.05 -44.2 L-81.4 -41.3 Q-81.4 -40.7 -79.85 -38.9 L-79.7 -38.9 M-81.2 -28.05 Q-81.0 -27.85 -81.0 -26.75 -81.0 -25.55 -81.4 -25.05 L-82.75 -24.15 -83.9 -25.7 Q-83.9 -26.9 -83.6 -27.35 L-82.7 -28.45 -81.85 -28.45 Q-81.4 -28.35 -81.2 -28.05 M-80.4 -21.3 Q-80.4 -20.6 -80.8 -20.05 -81.25 -19.55 -81.85 -19.55 -82.45 -19.55 -82.85 -20.05 -83.3 -20.6 -83.3 -21.3 L-82.85 -22.5 Q-82.45 -23.05 -81.85 -23.05 -81.25 -23.05 -80.8 -22.5 -80.4 -22.0 -80.4 -21.3 M-50.35 -64.6 Q-52.4 -66.65 -52.8 -66.3 L-52.1 -65.55 -51.35 -64.85 -61.5 -66.75 -61.85 -66.9 -61.3 -65.95 -60.9 -64.65 Q-60.9 -64.05 -61.05 -63.8 L-61.3 -63.5 -62.05 -63.2 Q-63.8 -64.45 -64.7 -66.3 L-66.05 -69.1 -65.55 -69.85 -64.65 -70.1 Q-63.6 -70.1 -63.0 -69.05 L-62.9 -69.75 -60.7 -69.65 -56.05 -70.5 Q-51.85 -69.15 -49.1 -67.05 -46.3 -64.85 -46.3 -62.75 -46.3 -61.65 -46.6 -61.25 -46.95 -60.8 -47.95 -60.8 -48.45 -60.8 -49.05 -61.35 -49.7 -61.95 -50.1 -62.9 L-48.55 -61.7 Q-47.85 -61.7 -47.25 -62.6 -46.75 -63.4 -46.75 -63.9 -46.75 -64.75 -47.4 -65.25 -48.05 -65.75 -49.15 -65.75 -50.0 -65.75 -50.05 -65.45 L-50.35 -64.6 M-75.85 -68.1 Q-75.85 -67.0 -76.15 -66.25 -76.5 -65.5 -77.0 -65.5 -77.5 -65.5 -77.8 -66.25 -78.15 -67.0 -78.15 -68.1 -78.15 -69.2 -77.8 -69.95 -77.5 -70.7 -77.0 -70.7 -76.5 -70.7 -76.15 -69.95 -75.85 -69.2 -75.85 -68.1 M-56.3 -31.75 L-56.4 -30.45 Q-56.75 -29.65 -58.0 -29.3 -59.0 -30.2 -59.15 -31.45 L-59.15 -33.05 Q-59.15 -33.9 -59.7 -34.85 L-60.3 -35.75 -60.15 -37.65 Q-58.8 -38.4 -57.5 -36.15 -56.3 -34.05 -56.3 -31.75 M-72.3 -22.8 L-71.8 -24.0 Q-71.45 -24.7 -70.65 -24.7 -69.7 -24.7 -68.95 -23.15 -68.35 -21.95 -68.35 -21.4 L-68.75 -20.9 -70.1 -20.1 Q-69.6 -15.95 -69.55 -13.8 -69.35 -9.95 -71.25 -7.45 L-72.25 -7.65 -72.4 -8.4 -72.35 -9.15 -72.15 -9.35 -70.75 -9.65 Q-70.1 -10.0 -69.95 -10.5 -69.85 -11.05 -70.35 -11.5 -70.85 -11.95 -71.8 -12.05 -71.8 -16.5 -72.4 -19.75 -71.7 -19.75 -71.15 -20.15 -70.65 -20.6 -70.6 -21.25 -70.6 -21.9 -71.05 -22.35 -71.55 -22.85 -72.3 -22.8" fill="#ffffff" fill-opacity="0.4" fill-rule="evenodd" stroke="none"/>
  </g>
</svg>
