<?xml version="1.0" encoding="UTF-8" standalone="no"?>
<svg xmlns:xlink="http://www.w3.org/1999/xlink" height="113.8px" width="50.0px" xmlns="http://www.w3.org/2000/svg">
  <g transform="matrix(1.0, 0.0, 0.0, 1.0, 85.6, 77.0)">
    <path d="M-81.85 -57.6 L-81.75 -56.35 -81.95 -55.15 -83.65 -53.65 -84.85 -55.3 Q-84.85 -56.4 -84.15 -56.95 -83.45 -57.5 -81.85 -57.6 M-78.45 -55.05 L-79.05 -55.7 -79.35 -56.65 -79.1 -61.15 -78.0 -62.35 -77.0 -63.0 -76.35 -62.6 Q-76.05 -62.3 -76.05 -61.65 -76.05 -60.45 -76.95 -55.8 -76.95 -55.4 -77.25 -55.1 -77.55 -54.85 -77.95 -54.85 L-78.45 -55.05 M-71.15 -57.65 Q-71.1 -58.9 -70.6 -59.95 L-69.85 -60.95 Q-69.75 -61.0 -69.55 -63.15 L-68.95 -66.45 -68.95 -65.65 -68.2 -65.15 -67.8 -64.95 Q-66.95 -65.25 -66.65 -66.1 L-67.05 -66.95 -67.8 -67.25 -68.45 -66.95 -67.2 -67.8 Q-66.05 -67.45 -66.05 -66.45 L-67.05 -62.4 -68.1 -58.7 Q-67.35 -56.0 -66.1 -54.35 -66.65 -54.05 -66.65 -53.15 -66.65 -52.35 -64.4 -50.75 L-65.45 -50.65 Q-65.45 -51.25 -65.95 -51.65 -66.45 -52.05 -67.15 -52.05 L-69.1 -54.65 -71.15 -57.65 M-69.6 -48.0 Q-68.9 -45.05 -68.8 -42.9 L-69.35 -42.15 Q-69.8 -45.15 -70.1 -45.85 -70.1 -47.15 -69.6 -48.0 M-64.9 -34.25 L-59.8 -27.1 -58.8 -18.45 -60.1 -18.8 -63.2 -25.95 Q-64.25 -29.45 -64.85 -29.85 L-65.05 -29.9 -66.6 -33.35 Q-66.6 -33.7 -66.1 -33.95 L-64.9 -34.25 M-55.2 -10.55 L-53.85 -9.15 Q-53.0 -8.5 -52.65 -7.05 -53.0 -6.75 -53.9 -6.5 L-55.5 -6.25 -56.3 -7.05 -56.85 -7.9 -56.1 -9.3 -55.25 -10.55 -55.2 -10.55 M-50.6 -4.35 Q-49.65 -4.35 -49.0 -3.35 -48.35 -2.35 -48.35 -0.9 L-48.55 -0.45 -48.6 -0.2 -49.4 0.0 Q-50.4 0.0 -50.85 -1.4 L-51.1 -2.9 Q-51.1 -3.95 -50.6 -4.35 M-43.7 15.85 L-44.75 14.4 -45.4 13.0 -45.35 12.3 -45.35 12.35 -45.1 11.8 Q-44.9 11.5 -44.25 11.5 -43.7 11.5 -42.85 12.3 -41.8 13.3 -41.95 14.55 L-43.0 15.9 -43.7 15.85 M-56.25 -4.9 Q-55.25 -3.25 -55.25 -2.55 -55.55 -1.75 -56.3 -1.7 L-58.0 -3.3 -58.0 -3.45 Q-58.0 -4.05 -57.45 -4.45 L-56.25 -4.9 M-54.8 5.15 Q-54.65 8.05 -56.4 8.05 L-58.0 8.0 -58.0 6.45 Q-57.25 5.3 -56.5 5.05 L-54.8 5.15 M-81.05 -44.2 L-80.75 -44.75 -79.2 -48.45 -77.55 -47.1 Q-77.1 -47.1 -76.75 -47.65 L-76.4 -48.4 Q-76.9 -49.95 -77.55 -50.25 L-77.7 -50.35 -77.9 -50.7 -78.05 -50.95 Q-78.05 -51.95 -77.15 -52.6 L-75.95 -51.05 Q-76.05 -49.15 -76.4 -48.4 L-77.75 -44.9 Q-78.2 -45.45 -78.85 -45.75 L-79.75 -43.35 -80.4 -41.25 Q-80.4 -39.9 -79.85 -38.9 -81.4 -40.95 -81.4 -41.3 L-81.05 -44.2 M-47.65 -65.4 L-47.4 -65.25 Q-46.8 -64.8 -46.75 -64.0 L-46.75 -63.9 Q-46.75 -63.4 -47.25 -62.6 -47.85 -61.7 -48.55 -61.7 L-50.1 -62.9 -50.05 -63.75 -50.1 -63.9 Q-50.3 -63.6 -51.05 -63.4 L-52.55 -63.2 Q-56.1 -63.2 -58.6 -64.3 L-59.05 -65.2 -62.8 -65.5 -61.55 -66.4 -61.25 -66.7 Q-60.8 -67.25 -59.75 -67.25 -54.55 -66.8 -52.5 -65.95 L-51.35 -65.55 -51.05 -65.25 Q-50.8 -64.95 -50.2 -64.95 -49.7 -64.95 -49.65 -65.35 -49.65 -65.75 -49.15 -65.75 L-47.65 -65.4 M-61.35 -63.2 L-62.6 -62.65 Q-63.75 -62.9 -63.75 -63.4 L-62.35 -63.2 -61.35 -63.2 M-74.4 -53.35 L-74.1 -53.95 Q-73.2 -51.15 -71.8 -51.15 L-70.9 -51.35 -70.8 -51.85 Q-70.7 -52.2 -70.45 -51.05 -72.1 -50.35 -72.4 -46.65 L-72.55 -44.6 -72.55 -44.55 -72.5 -44.15 -72.45 -43.35 Q-72.2 -40.95 -71.65 -40.5 L-72.35 -40.7 -72.9 -40.55 -73.8 -45.45 Q-74.7 -50.8 -74.4 -53.35 M-61.9 -43.1 Q-62.65 -43.1 -63.2 -43.8 -63.75 -44.5 -63.75 -45.5 L-61.9 -43.1 M-68.95 -34.85 L-69.3 -34.45 -69.75 -36.0 -68.95 -34.85 M-69.05 -3.45 L-68.95 -2.85 -68.95 -2.45 -69.2 -1.7 -70.5 -2.0 -71.05 -1.7 -71.25 -1.85 -71.25 -3.15 -70.8 -3.9 -69.95 -4.15 -69.2 -3.7 -69.05 -3.45 M-68.35 3.0 Q-68.1 4.85 -68.35 5.55 L-69.45 5.55 Q-68.95 4.6 -68.95 1.75 L-68.35 3.0 M-72.15 -9.35 Q-72.95 -9.6 -72.95 -10.55 L-72.8 -11.25 -71.8 -12.05 -71.8 -9.35 -72.15 -9.35 M-72.4 -19.75 Q-72.95 -20.15 -72.95 -21.15 -72.95 -22.15 -72.3 -22.8 -71.55 -22.85 -71.05 -22.35 -70.55 -21.9 -70.55 -21.25 -70.6 -20.6 -71.1 -20.15 -71.65 -19.75 -72.4 -19.75 M-57.05 -12.3 L-57.45 -12.5 -57.45 -13.7 -57.05 -12.3 M-36.55 20.4 Q-36.15 21.65 -36.45 22.55 L-37.15 22.7 -37.75 23.0 Q-39.45 21.6 -40.2 19.7 L-39.45 19.2 -39.05 19.05 Q-39.05 19.6 -38.3 20.0 -37.6 20.4 -36.55 20.4 M-49.4 30.6 L-49.4 32.6 Q-49.8 33.75 -49.65 33.95 L-49.4 34.9 -49.7 35.8 -50.55 36.2 Q-52.25 35.65 -52.15 34.65 -51.7 33.3 -51.7 32.2 L-51.8 30.15 Q-51.8 28.8 -51.1 26.6 L-49.95 25.85 Q-48.5 26.7 -48.75 28.2 L-49.4 30.6" fill="#ffffff" fill-opacity="0.69803923" fill-rule="evenodd" stroke="none"/>
    <path d="M-80.45 -54.4 L-78.45 -55.05 -77.95 -54.85 -77.65 -54.55 -77.55 -53.8 Q-77.55 -53.0 -78.2 -52.4 L-78.95 -51.8 -78.05 -50.95 -77.9 -50.7 -77.7 -50.35 -77.55 -49.65 Q-77.55 -49.2 -79.2 -48.45 L-80.8 -50.5 -80.9 -50.45 -81.0 -51.15 -80.75 -51.95 -80.15 -52.1 -80.15 -52.15 -80.95 -53.15 -81.0 -53.55 -80.45 -54.4 M-76.4 -55.95 L-76.4 -56.6 -75.55 -56.7 -74.45 -56.45 Q-74.1 -55.75 -74.1 -53.95 L-74.4 -53.35 -75.25 -52.85 Q-76.2 -53.8 -76.35 -54.65 L-76.4 -55.95 M-68.95 -66.45 L-68.45 -66.95 -67.8 -67.25 -67.05 -66.95 -66.65 -66.1 Q-66.95 -65.25 -67.8 -64.95 L-68.2 -65.15 -68.95 -65.65 -68.95 -66.45 M-58.0 -40.2 L-59.8 -41.6 -60.9 -42.15 -60.35 -38.95 -60.4 -38.9 -61.3 -39.15 Q-62.1 -39.5 -63.6 -40.95 L-63.95 -42.0 -62.55 -42.4 Q-61.25 -42.8 -61.9 -43.1 L-63.75 -45.5 -64.35 -46.1 -64.35 -47.4 Q-64.2 -47.4 -64.0 -47.55 L-63.2 -47.7 Q-62.55 -47.7 -61.65 -46.75 L-60.8 -45.8 Q-60.3 -45.8 -60.25 -46.15 -60.25 -46.55 -59.75 -46.55 -59.05 -46.55 -57.6 -44.1 -56.3 -41.9 -56.3 -41.5 L-56.7 -41.0 Q-57.25 -40.55 -58.0 -40.2 M-66.75 -49.95 L-68.6 -48.6 Q-68.95 -48.7 -69.5 -49.55 -67.85 -50.55 -67.65 -50.95 L-67.15 -52.05 Q-66.45 -52.05 -65.95 -51.65 -65.45 -51.25 -65.45 -50.65 -65.45 -50.35 -65.8 -50.15 L-66.75 -49.95 M-68.8 -42.9 Q-68.6 -40.55 -68.05 -39.6 -66.7 -37.55 -64.9 -34.25 L-66.1 -33.95 Q-66.6 -33.7 -66.6 -33.35 -66.6 -33.95 -67.3 -34.4 L-68.95 -34.85 -69.75 -36.0 -70.45 -36.85 -70.8 -32.3 Q-70.4 -31.65 -70.4 -30.0 -70.4 -27.25 -70.8 -24.95 L-72.85 -25.05 Q-71.8 -28.4 -71.8 -30.15 -71.8 -30.95 -72.65 -33.55 -73.55 -36.15 -73.55 -37.75 L-73.5 -39.5 Q-73.4 -40.8 -72.9 -40.55 L-72.35 -40.7 -71.65 -40.5 Q-72.2 -40.95 -72.45 -43.35 L-72.5 -44.15 Q-72.35 -43.5 -71.25 -43.1 L-70.25 -43.55 -70.1 -45.85 Q-69.8 -45.15 -69.35 -42.15 L-68.8 -42.9 M-59.8 -27.1 L-59.3 -27.25 -55.15 -15.95 Q-54.35 -13.45 -54.35 -12.3 -54.35 -11.2 -55.2 -10.55 L-55.25 -10.55 Q-56.0 -10.55 -56.5 -11.05 -57.05 -11.6 -57.05 -12.3 L-57.45 -13.7 -58.0 -15.55 Q-58.1 -17.15 -58.8 -18.45 L-59.8 -27.1 M-78.15 -40.95 L-79.7 -38.9 -79.85 -38.9 Q-80.4 -39.9 -80.4 -41.25 L-79.75 -43.35 -78.85 -45.75 Q-78.2 -45.45 -77.75 -44.9 -77.75 -43.3 -78.1 -42.25 L-78.05 -41.7 -78.15 -40.95 M-79.5 -32.7 Q-79.35 -30.3 -79.6 -29.75 -79.7 -29.45 -81.2 -28.05 -81.7 -28.55 -82.7 -28.45 L-83.0 -30.15 Q-83.0 -31.2 -81.95 -31.95 -80.95 -32.7 -79.5 -32.7 M-58.6 -64.3 L-59.35 -63.75 Q-60.1 -63.3 -61.35 -63.2 L-62.35 -63.2 -63.75 -63.4 -64.1 -63.55 -64.35 -64.4 -64.3 -65.0 -64.0 -65.1 -63.5 -65.35 -62.8 -65.5 -59.05 -65.2 -58.6 -64.3 M-69.6 -15.3 L-69.6 -15.25 -69.5 -9.25 -69.5 -9.15 Q-69.55 -8.65 -69.85 -8.35 -70.2 -8.0 -70.65 -8.0 -71.15 -8.0 -71.45 -8.4 -71.8 -8.8 -71.8 -9.35 L-71.8 -12.05 -71.8 -14.0 -71.8 -15.65 -71.5 -15.85 -70.65 -16.1 Q-70.0 -16.1 -69.75 -15.7 L-69.6 -15.3 M-68.95 -1.15 L-68.95 0.7 -68.95 1.75 Q-68.95 4.6 -69.45 5.55 L-69.85 5.65 -70.65 5.55 Q-71.3 3.8 -71.3 1.7 L-71.25 -1.45 -71.05 -1.7 -70.5 -2.0 -69.2 -1.7 -68.95 -1.15 M-39.65 17.5 L-39.65 16.95 -39.3 16.8 -38.5 16.65 Q-37.35 16.65 -36.85 18.15 -36.5 19.2 -36.55 20.4 -37.6 20.4 -38.3 20.0 -39.05 19.6 -39.05 19.05 L-39.65 17.5 M-36.45 22.55 Q-35.6 23.3 -35.6 24.6 L-35.8 25.9 -36.75 27.0 -38.5 24.1 -38.25 23.3 -37.75 23.0 -37.15 22.7 -36.45 22.55" fill="#ffffff" fill-rule="evenodd" stroke="none"/>
    <path d="M-81.95 -55.15 L-80.85 -54.95 -80.45 -54.4 -81.0 -53.55 -80.95 -53.15 Q-81.75 -46.0 -84.45 -40.8 -85.6 -42.15 -85.6 -42.6 L-83.9 -50.0 Q-83.9 -50.55 -84.45 -51.1 L-85.05 -51.75 -84.75 -52.0 Q-84.45 -52.1 -84.45 -52.65 -84.45 -53.15 -84.9 -53.35 -85.4 -53.6 -85.4 -54.1 -85.4 -55.85 -84.2 -58.25 L-82.8 -61.05 Q-82.4 -62.45 -82.8 -64.8 -82.7 -66.7 -79.85 -67.8 L-79.0 -67.15 -78.7 -66.65 -80.35 -63.75 -80.45 -63.65 Q-79.95 -64.0 -79.0 -65.05 -78.55 -65.5 -77.85 -65.5 L-76.95 -65.35 -76.85 -65.2 Q-76.75 -63.85 -77.0 -63.0 L-78.0 -62.35 -79.1 -61.15 -81.85 -57.6 Q-83.45 -57.5 -84.15 -56.95 -84.85 -56.4 -84.85 -55.3 L-83.65 -53.65 -81.95 -55.15 M-76.95 -55.8 L-76.4 -55.95 -76.35 -54.65 Q-76.2 -53.8 -75.25 -52.85 L-74.4 -53.35 Q-74.7 -50.8 -73.8 -45.45 L-72.9 -40.55 Q-73.4 -40.8 -73.5 -39.5 L-73.55 -37.75 Q-73.55 -36.15 -72.65 -33.55 -71.8 -30.95 -71.8 -30.15 -71.8 -28.4 -72.85 -25.05 L-72.95 -25.4 -73.25 -24.55 -74.1 -24.15 -75.25 -25.5 Q-75.25 -26.35 -74.7 -27.7 -74.15 -29.0 -74.15 -29.45 -74.15 -30.75 -75.7 -32.5 -77.4 -34.4 -77.55 -35.05 L-78.15 -40.95 -78.05 -41.7 Q-77.95 -42.2 -77.0 -42.45 L-76.5 -42.5 -76.85 -44.5 -78.1 -42.25 Q-77.75 -43.3 -77.75 -44.9 L-76.4 -48.4 Q-76.05 -49.15 -75.95 -51.05 L-77.15 -52.6 Q-78.05 -51.95 -78.05 -50.95 L-78.95 -51.8 -78.2 -52.4 Q-77.55 -53.0 -77.55 -53.8 L-77.65 -54.55 -77.95 -54.85 Q-77.55 -54.85 -77.25 -55.1 -76.95 -55.4 -76.95 -55.8 M-74.45 -56.45 L-71.95 -57.0 Q-71.0 -57.2 -71.15 -57.65 L-69.1 -54.65 -67.15 -52.05 -67.65 -50.95 Q-67.85 -50.55 -69.5 -49.55 L-69.6 -48.0 Q-70.1 -47.15 -70.1 -45.85 L-70.25 -43.55 -71.25 -43.1 Q-72.35 -43.5 -72.5 -44.15 L-72.55 -44.55 -72.55 -44.6 -72.4 -46.65 Q-72.1 -50.35 -70.45 -51.05 -70.7 -52.2 -70.8 -51.85 L-70.9 -51.35 -71.8 -51.15 Q-73.2 -51.15 -74.1 -53.95 -74.1 -55.75 -74.45 -56.45 M-66.1 -54.35 L-66.15 -54.5 -65.5 -54.6 Q-65.0 -54.6 -64.9 -54.2 -64.85 -53.85 -64.35 -53.85 L-64.0 -54.2 -63.2 -55.15 -62.35 -54.85 Q-62.05 -54.65 -62.05 -54.0 -62.05 -53.5 -62.45 -53.45 -62.85 -53.45 -62.85 -52.95 L-60.6 -50.15 -59.9 -48.85 -59.0 -47.4 Q-58.2 -46.6 -57.05 -44.6 L-55.7 -41.8 -55.7 -39.65 -56.85 -39.05 Q-58.0 -39.35 -58.0 -40.2 -57.25 -40.55 -56.7 -41.0 L-56.3 -41.5 Q-56.3 -41.9 -57.6 -44.1 -59.05 -46.55 -59.75 -46.55 -60.25 -46.55 -60.25 -46.15 -60.3 -45.8 -60.8 -45.8 L-61.65 -46.75 Q-62.55 -47.7 -63.2 -47.7 L-64.0 -47.55 Q-64.2 -47.4 -64.35 -47.4 L-64.35 -46.1 -63.75 -45.5 Q-63.75 -44.5 -63.2 -43.8 -62.65 -43.1 -61.9 -43.1 -61.25 -42.8 -62.55 -42.4 L-63.95 -42.0 -66.75 -49.95 -65.8 -50.15 Q-65.45 -50.35 -65.45 -50.65 L-64.4 -50.75 Q-66.65 -52.35 -66.65 -53.15 -66.65 -54.05 -66.1 -54.35 M-59.8 -41.6 Q-59.8 -40.0 -60.35 -38.95 L-60.9 -42.15 -59.8 -41.6 M-60.4 -38.9 Q-61.75 -38.9 -62.65 -39.5 -63.6 -40.1 -63.6 -40.95 -62.1 -39.5 -61.3 -39.15 L-60.4 -38.9 M-52.65 -7.05 L-50.6 -4.35 Q-51.1 -3.95 -51.1 -2.9 L-50.85 -1.4 Q-50.4 0.0 -49.4 0.0 L-48.6 -0.2 -48.55 -0.45 -48.35 -0.9 Q-45.7 4.1 -40.45 16.15 L-40.5 17.25 -40.9 17.45 -41.85 17.6 Q-42.6 17.6 -43.15 16.85 L-43.7 15.85 -43.0 15.9 -41.95 14.55 Q-41.8 13.3 -42.85 12.3 -43.7 11.5 -44.25 11.5 -44.9 11.5 -45.1 11.8 L-45.35 12.35 -48.75 4.3 Q-50.6 0.4 -55.5 -6.25 L-53.9 -6.5 Q-53.0 -6.75 -52.65 -7.05 M-56.3 -7.05 L-56.25 -4.9 -57.45 -4.45 Q-58.0 -4.05 -58.0 -3.45 -58.5 -4.45 -58.6 -6.9 -59.8 -8.5 -60.05 -11.5 L-60.3 -15.75 -59.75 -14.4 -58.15 -10.05 -58.6 -6.9 -57.35 -7.2 Q-56.85 -7.5 -56.85 -7.9 -57.35 -9.4 -57.45 -12.5 -58.3 -13.55 -60.1 -18.8 -60.95 -18.15 -60.95 -16.9 L-60.9 -13.95 -61.25 -13.7 Q-61.6 -13.35 -62.05 -13.2 -63.4 -14.05 -63.5 -15.4 -63.65 -17.45 -64.05 -18.25 L-64.8 -20.7 -65.5 -23.4 -65.5 -25.15 -65.15 -25.65 -64.35 -25.85 Q-63.15 -25.85 -62.5 -22.9 L-62.05 -19.95 -61.35 -19.25 Q-62.4 -23.4 -63.2 -25.95 L-60.1 -18.8 -58.8 -18.45 Q-58.1 -17.15 -58.0 -15.55 L-57.45 -13.7 -57.45 -12.5 -57.05 -12.3 Q-57.05 -11.6 -56.5 -11.05 -56.0 -10.55 -55.25 -10.55 L-56.1 -9.3 -56.85 -7.9 -56.3 -7.05 M-55.25 -2.55 Q-54.3 3.4 -54.8 5.15 L-56.5 5.05 Q-57.25 5.3 -58.0 6.45 L-56.85 1.5 -57.1 0.15 -58.0 -3.3 -56.3 -1.7 Q-55.55 -1.75 -55.25 -2.55 M-65.05 -29.9 L-65.7 -29.45 Q-66.25 -28.75 -66.65 -28.75 -67.6 -28.75 -68.0 -30.15 -68.45 -31.75 -70.8 -32.3 L-70.45 -36.85 -69.75 -36.0 -69.3 -34.45 -68.95 -34.85 -67.3 -34.4 Q-66.6 -33.95 -66.6 -33.35 L-65.05 -29.9 M-79.7 -38.9 Q-79.45 -35.7 -79.5 -32.7 -80.95 -32.7 -81.95 -31.95 -83.0 -31.2 -83.0 -30.15 L-83.35 -30.15 -83.45 -30.9 Q-83.45 -32.8 -82.75 -35.0 L-82.05 -37.15 -82.4 -39.8 -82.8 -42.45 -81.05 -44.2 -81.4 -41.3 Q-81.4 -40.95 -79.85 -38.9 L-79.7 -38.9 M-81.2 -28.05 L-81.0 -26.7 -81.2 -25.05 -81.7 -24.75 Q-82.25 -24.35 -82.75 -24.15 L-83.9 -25.7 -83.6 -26.6 -82.7 -28.45 Q-81.7 -28.55 -81.2 -28.05 M-80.75 -44.75 L-80.9 -45.0 -81.05 -46.0 Q-81.05 -46.5 -80.65 -46.7 -80.25 -46.9 -80.25 -47.4 -80.25 -47.9 -80.65 -48.1 -81.05 -48.35 -81.05 -48.85 L-80.8 -50.5 -79.2 -48.45 Q-77.55 -49.2 -77.55 -49.65 L-77.7 -50.35 -77.55 -50.25 Q-76.9 -49.95 -76.4 -48.4 L-76.75 -47.65 Q-77.1 -47.1 -77.55 -47.1 L-79.2 -48.45 -80.75 -44.75 M-80.4 -21.3 Q-80.4 -20.6 -80.8 -20.05 -81.25 -19.55 -81.85 -19.55 -82.45 -19.55 -82.85 -20.05 -83.3 -20.6 -83.3 -21.3 L-82.85 -22.5 Q-82.45 -23.05 -81.85 -23.05 -81.25 -23.05 -80.8 -22.5 -80.4 -22.0 -80.4 -21.3 M-68.35 -73.95 Q-68.35 -73.45 -69.05 -72.6 -69.8 -71.7 -70.65 -71.25 L-71.55 -72.8 -71.25 -73.7 Q-72.15 -73.45 -72.95 -74.25 -72.7 -75.35 -71.75 -76.2 L-70.65 -77.0 -68.8 -77.0 Q-68.35 -75.95 -68.35 -73.95 M-63.75 -74.15 Q-63.75 -73.65 -64.05 -73.3 -64.4 -73.0 -64.9 -73.0 -65.4 -73.0 -65.7 -73.3 -66.05 -73.65 -66.05 -74.15 -66.05 -74.65 -65.7 -74.95 -65.4 -75.3 -64.9 -75.3 -64.4 -75.3 -64.05 -74.95 -63.75 -74.65 -63.75 -74.15 M-64.0 -65.1 L-65.5 -68.0 -66.05 -69.1 -65.65 -69.7 Q-65.3 -70.1 -64.65 -70.1 L-63.0 -69.05 Q-61.65 -69.65 -60.7 -69.65 L-58.35 -70.05 -56.05 -70.5 Q-52.45 -70.5 -49.1 -67.05 L-47.65 -65.4 -49.15 -65.75 Q-49.65 -65.75 -49.65 -65.35 -49.7 -64.95 -50.2 -64.95 -50.8 -64.95 -51.05 -65.25 L-51.35 -65.55 -52.8 -66.3 -52.5 -65.95 Q-54.55 -66.8 -59.75 -67.25 -60.8 -67.25 -61.25 -66.7 L-61.55 -66.4 -62.8 -65.5 -63.5 -65.35 -64.0 -65.1 M-46.75 -64.0 Q-46.3 -63.15 -46.3 -62.5 -46.3 -61.35 -46.75 -61.0 L-47.7 -60.8 Q-47.95 -60.8 -48.55 -61.25 L-50.1 -62.9 -48.55 -61.7 Q-47.85 -61.7 -47.25 -62.6 -46.75 -63.4 -46.75 -63.9 L-46.75 -64.0 M-75.85 -68.1 Q-75.85 -67.0 -76.15 -66.25 -76.5 -65.5 -77.0 -65.5 -77.5 -65.5 -77.8 -66.25 -78.15 -67.0 -78.15 -68.1 -78.15 -69.2 -77.8 -69.95 -77.5 -70.7 -77.0 -70.7 -76.5 -70.7 -76.15 -69.95 -75.85 -69.2 -75.85 -68.1 M-54.55 -29.15 L-55.0 -28.5 Q-55.35 -28.15 -56.0 -28.15 -57.75 -28.15 -59.15 -31.45 -60.3 -34.1 -60.3 -35.75 -60.3 -37.6 -59.45 -37.8 -58.3 -37.1 -57.35 -35.45 -56.55 -34.0 -56.35 -32.85 -56.1 -31.7 -55.5 -30.85 -54.8 -29.9 -54.55 -29.15 M-72.3 -22.8 Q-71.55 -24.7 -70.65 -24.7 -69.7 -24.7 -68.95 -23.15 L-68.35 -21.55 -69.2 -20.8 -70.1 -20.1 -69.6 -15.3 -69.75 -15.7 Q-70.0 -16.1 -70.65 -16.1 L-71.5 -15.85 -71.8 -15.65 -71.8 -14.0 Q-71.9 -17.05 -72.4 -19.75 -71.65 -19.75 -71.1 -20.15 -70.6 -20.6 -70.55 -21.25 -70.55 -21.9 -71.05 -22.35 -71.55 -22.85 -72.3 -22.8 M-69.5 -9.15 Q-69.5 -6.0 -69.05 -3.45 L-69.2 -3.7 -69.95 -4.15 -70.8 -3.9 -71.25 -3.15 Q-72.4 -6.6 -72.4 -8.4 L-72.35 -9.15 -72.15 -9.35 -71.8 -9.35 Q-71.8 -8.8 -71.45 -8.4 -71.15 -8.0 -70.65 -8.0 -70.2 -8.0 -69.85 -8.35 -69.55 -8.65 -69.5 -9.15 M-68.95 -2.45 L-68.95 -1.15 -69.2 -1.7 -68.95 -2.45 M-68.95 0.7 Q-68.35 1.6 -68.35 3.0 L-68.95 1.75 -68.95 0.7 M-68.35 5.55 Q-66.55 9.0 -66.05 11.1 L-66.4 12.45 -67.2 12.65 Q-68.15 12.65 -68.75 10.8 -69.2 8.85 -69.4 8.6 L-70.55 6.85 -70.65 5.55 -69.85 5.65 -69.45 5.55 -68.35 5.55 M-71.25 -1.45 L-71.25 -1.85 -71.05 -1.7 -71.25 -1.45 M-36.75 27.0 Q-37.05 27.85 -37.9 28.15 -39.2 27.2 -39.35 24.9 -39.5 23.0 -40.2 23.0 -40.8 23.0 -41.25 22.3 -41.75 21.55 -41.35 21.4 -40.25 20.9 -40.65 20.6 L-41.35 20.1 -41.3 18.65 Q-41.0 17.75 -39.65 17.5 L-39.05 19.05 -39.45 19.2 -40.2 19.7 Q-39.45 21.6 -37.75 23.0 L-38.25 23.3 -38.5 24.1 -36.75 27.0 M-51.1 26.6 L-52.0 22.8 Q-52.4 20.9 -51.7 19.25 L-52.15 17.95 -52.3 17.45 -53.4 18.4 Q-54.55 17.2 -54.55 12.5 L-54.45 6.6 -53.85 6.5 -53.4 6.35 Q-52.35 7.3 -51.8 10.2 L-50.85 14.35 Q-49.4 17.8 -49.5 19.3 L-49.95 22.55 Q-49.95 23.45 -49.1 25.15 -48.25 26.85 -48.25 27.95 -48.25 29.55 -49.4 30.6 L-48.75 28.2 Q-48.5 26.7 -49.95 25.85 L-51.1 26.6 M-49.4 34.9 L-49.4 36.2 -49.7 36.5 Q-49.95 36.8 -50.55 36.8 -51.8 36.8 -52.15 35.65 L-52.25 34.1 Q-52.25 32.95 -51.7 32.2 -51.7 33.3 -52.15 34.65 -52.25 35.65 -50.55 36.2 L-49.7 35.8 -49.4 34.9" fill="#ffffff" fill-opacity="0.4" fill-rule="evenodd" stroke="none"/>
  </g>
</svg>
