<?xml version="1.0" encoding="UTF-8" standalone="no"?>
<svg xmlns:xlink="http://www.w3.org/1999/xlink" height="135.9px" width="54.0px" xmlns="http://www.w3.org/2000/svg">
  <g transform="matrix(1.0, 0.0, 0.0, 1.0, 89.05, 78.45)">
    <path d="M-77.0 -63.0 Q-76.05 -62.4 -76.05 -61.45 -76.05 -59.9 -76.95 -55.8 -76.95 -55.4 -77.25 -55.1 -77.55 -54.85 -77.95 -54.85 L-78.45 -55.05 -78.95 -55.55 Q-79.35 -56.0 -79.35 -56.65 L-79.1 -61.15 -77.0 -63.0 M-71.15 -57.65 L-70.05 -62.05 Q-69.25 -64.6 -68.95 -66.45 -68.45 -66.95 -68.95 -65.65 L-67.8 -64.95 -66.65 -66.1 -67.05 -66.95 -68.45 -66.95 -67.2 -67.8 -66.35 -66.9 -66.05 -66.35 Q-66.05 -65.75 -66.2 -65.3 L-66.4 -64.65 Q-66.55 -63.95 -67.45 -62.6 -68.1 -61.7 -68.1 -58.7 L-66.1 -54.35 -66.5 -53.95 -66.65 -53.15 Q-66.65 -52.75 -64.4 -50.75 L-65.45 -50.65 Q-65.45 -51.25 -65.95 -51.65 -66.45 -52.05 -67.15 -52.05 L-68.3 -53.6 -71.15 -57.65 M-69.6 -48.0 Q-68.9 -45.1 -68.8 -42.9 L-69.35 -42.15 Q-69.75 -44.9 -70.1 -45.85 L-69.6 -48.0 M-64.9 -34.25 L-59.8 -27.1 -58.8 -18.45 -60.1 -18.8 -63.2 -25.95 Q-64.15 -28.6 -65.05 -29.9 L-66.6 -33.35 Q-66.6 -33.7 -66.1 -33.95 L-64.9 -34.25 M-55.2 -10.55 L-53.4 -8.65 Q-52.9 -8.05 -52.65 -7.05 L-53.95 -6.55 -55.5 -6.25 -56.3 -7.05 -56.85 -7.9 -55.25 -10.55 -55.2 -10.55 M-50.6 -4.35 Q-49.65 -4.35 -49.0 -3.35 -48.35 -2.35 -48.35 -0.9 L-48.65 -0.1 -49.25 0.0 -50.5 -1.05 Q-51.1 -1.8 -51.1 -2.9 -51.1 -3.7 -50.6 -4.35 M-40.5 16.0 L-39.75 17.5 Q-39.45 18.75 -39.05 19.05 -39.05 19.6 -38.3 20.0 -37.6 20.4 -36.55 20.4 -36.15 21.7 -36.45 22.55 L-37.75 23.0 -38.55 22.2 Q-39.0 21.85 -39.65 21.85 L-40.45 21.65 -40.8 21.1 -41.7 19.3 -42.5 17.45 -41.85 16.1 -40.5 16.0 M-36.2 26.45 L-35.75 28.9 -35.05 31.45 -35.05 33.2 -35.4 33.45 -36.2 33.9 -37.75 30.85 Q-38.5 29.05 -38.5 27.6 -38.5 25.85 -38.05 25.05 -37.3 25.05 -36.75 25.45 -36.2 25.85 -36.2 26.45 M-43.7 15.85 L-45.4 13.0 -45.35 12.3 -45.35 12.35 -45.1 11.7 -44.25 11.5 Q-43.05 11.5 -42.35 12.7 -41.9 13.5 -41.9 14.0 -41.9 14.8 -42.55 15.35 -43.1 15.75 -43.7 15.85 M-56.25 -4.9 Q-55.35 -3.3 -55.25 -2.55 -55.55 -1.8 -56.3 -1.7 L-58.0 -3.3 -58.0 -3.45 Q-58.0 -4.05 -57.45 -4.45 L-56.25 -4.9 M-54.8 5.15 Q-54.6 6.45 -55.0 7.3 -55.4 8.05 -56.2 8.05 L-58.0 8.0 -58.0 6.45 Q-57.45 6.0 -56.4 5.6 -55.35 5.15 -54.8 5.15 M-81.05 -44.2 L-80.75 -44.75 -79.2 -48.45 -77.55 -47.1 Q-76.75 -47.7 -76.4 -48.4 L-77.7 -50.35 -78.05 -50.95 Q-77.35 -54.15 -77.0 -53.8 -76.7 -53.45 -76.5 -51.95 -76.3 -50.5 -76.35 -48.8 L-76.4 -48.4 -77.75 -44.9 -78.85 -45.75 -80.4 -41.25 -80.1 -39.7 -79.85 -38.9 Q-81.4 -40.9 -81.4 -41.3 L-81.05 -44.2 M-81.95 -55.15 L-83.65 -53.65 -84.25 -54.1 Q-84.85 -54.65 -84.85 -55.3 -84.85 -57.5 -81.85 -57.6 -81.75 -57.2 -81.8 -56.35 L-81.95 -55.15 M-47.65 -65.4 Q-47.3 -65.4 -47.0 -65.0 -46.75 -64.6 -46.75 -64.0 L-47.25 -62.9 Q-47.55 -62.45 -48.55 -61.7 L-50.1 -62.9 -50.1 -63.9 Q-50.35 -63.65 -51.05 -63.45 L-52.55 -63.2 -58.6 -64.3 -59.4 -65.25 -61.0 -65.6 -62.8 -65.5 -61.7 -66.7 Q-61.15 -67.25 -59.75 -67.25 L-56.25 -66.7 -52.5 -65.95 -51.35 -65.55 -51.05 -65.15 -50.2 -64.95 Q-50.0 -64.95 -49.45 -65.3 L-47.65 -65.4 M-61.35 -63.2 L-62.6 -62.65 -63.3 -62.95 -63.75 -63.4 -61.35 -63.2 M-42.5 -44.95 L-42.8 -44.1 Q-42.75 -44.0 -42.85 -43.85 L-43.65 -43.65 -44.45 -43.85 -44.8 -44.4 Q-44.8 -46.1 -43.4 -46.45 L-42.75 -46.0 -42.5 -45.4 -42.5 -44.95 M-49.95 -47.35 L-50.55 -47.85 Q-50.55 -48.7 -50.1 -49.15 L-49.4 -49.4 Q-48.55 -49.1 -48.25 -48.25 L-49.1 -47.7 -49.95 -47.35 M-49.95 -31.95 L-49.85 -34.2 -49.25 -34.3 Q-48.85 -34.4 -48.8 -34.5 -47.5 -34.1 -47.45 -32.7 -47.35 -30.45 -47.1 -29.9 L-46.05 -27.95 -44.8 -25.15 -45.1 -24.5 Q-45.3 -24.15 -45.95 -24.15 -47.6 -24.15 -48.6 -26.45 L-49.45 -29.4 Q-49.95 -30.0 -49.95 -31.95 M-61.9 -43.1 Q-62.65 -43.1 -63.2 -43.8 -63.75 -44.5 -63.75 -45.5 L-61.9 -43.1 M-68.95 -34.85 L-69.3 -34.45 -69.75 -36.0 -68.95 -34.85 M-69.05 -3.45 L-68.95 -2.45 -69.2 -1.7 Q-70.25 -2.05 -71.05 -1.7 L-71.25 -1.85 -71.25 -3.15 -70.1 -3.75 Q-69.65 -3.8 -69.05 -3.45 M-68.35 3.0 Q-68.05 4.75 -68.35 5.55 L-69.45 5.55 Q-69.05 4.7 -68.95 1.75 L-68.35 3.0 M-72.15 -9.35 Q-72.6 -9.55 -72.7 -9.65 L-72.95 -10.55 -72.55 -11.35 -71.8 -12.05 -71.8 -9.35 -72.15 -9.35 M-72.4 -19.75 Q-72.95 -20.3 -72.95 -21.15 L-72.8 -22.05 -72.3 -22.8 Q-71.55 -22.85 -71.0 -22.35 -70.5 -21.9 -70.5 -21.25 -70.55 -20.6 -71.1 -20.15 -71.65 -19.75 -72.4 -19.75 M-57.05 -12.3 L-57.45 -12.5 -57.45 -13.7 -57.05 -12.3 M-49.4 30.6 Q-49.4 32.6 -49.65 33.75 L-49.4 34.9 -49.65 35.4 -50.55 36.2 -52.05 35.55 -52.15 34.65 -51.95 33.5 -51.7 32.2 -51.8 30.15 -51.1 26.6 Q-50.05 26.1 -49.95 25.85 -48.4 28.05 -49.4 30.6 M-57.4 36.2 Q-57.4 36.9 -57.8 37.45 -58.25 37.95 -58.85 37.95 -59.45 37.95 -59.85 37.45 -60.3 36.9 -60.3 36.2 -60.3 35.5 -59.85 35.0 -59.45 34.45 -58.85 34.45 -58.25 34.45 -57.8 35.0 -57.4 35.5 -57.4 36.2 M-49.4 56.75 L-49.65 57.1 Q-49.95 57.45 -50.55 57.45 -54.85 53.0 -54.2 51.65 -53.9 51.1 -54.6 51.1 -55.5 51.1 -55.7 50.6 L-56.3 48.85 -56.0 48.2 -55.7 47.85 -56.0 47.35 -56.3 46.4 -56.15 42.8 Q-54.35 41.95 -53.75 44.45 L-53.0 48.4 Q-49.95 54.5 -49.4 56.75" fill="#ffffff" fill-opacity="0.69803923" fill-rule="evenodd" stroke="none"/>
    <path d="M-76.4 -55.95 L-76.4 -56.6 -74.45 -56.45 Q-71.55 -57.05 -71.1 -57.4 L-71.15 -57.65 -68.3 -53.6 -67.15 -52.05 Q-66.45 -52.05 -65.95 -51.65 -65.45 -51.25 -65.45 -50.65 -65.45 -50.35 -65.8 -50.15 L-66.75 -49.95 -68.6 -48.6 Q-68.95 -48.7 -69.5 -49.55 L-69.6 -48.0 -70.1 -45.85 Q-69.75 -44.9 -69.35 -42.15 L-68.8 -42.9 Q-68.85 -41.35 -68.05 -39.75 L-64.9 -34.25 -66.1 -33.95 Q-66.6 -33.7 -66.6 -33.35 -66.6 -33.95 -67.3 -34.4 L-68.95 -34.85 -69.75 -36.0 -70.45 -36.85 -70.8 -32.3 Q-70.4 -31.4 -70.4 -29.65 L-70.5 -24.95 -72.85 -25.05 -72.25 -27.9 -71.8 -30.15 -72.65 -33.25 Q-73.55 -36.5 -73.55 -37.75 L-73.3 -40.55 -72.9 -40.55 -73.55 -43.15 Q-74.2 -46.75 -74.4 -53.35 -75.25 -53.35 -75.8 -54.1 -76.4 -54.85 -76.4 -55.95 M-68.95 -66.45 L-68.45 -66.95 -67.05 -66.95 -66.65 -66.1 -67.8 -64.95 -68.95 -65.65 Q-68.45 -66.95 -68.95 -66.45 M-58.0 -40.2 L-59.8 -41.6 -60.9 -42.15 -60.35 -38.95 -60.4 -38.9 Q-61.15 -39.0 -61.7 -39.4 L-63.6 -40.95 -63.95 -42.0 Q-62.35 -42.3 -61.7 -42.75 L-61.9 -43.1 -63.75 -45.5 -64.05 -45.95 -64.35 -47.4 -64.0 -47.6 -63.2 -47.7 Q-62.6 -47.7 -61.7 -46.75 L-60.8 -45.8 -60.1 -46.0 -59.75 -46.55 Q-58.0 -44.75 -57.05 -43.1 -56.3 -41.9 -56.3 -41.5 L-58.0 -40.2 M-59.8 -27.1 L-59.3 -27.25 -56.05 -18.5 Q-54.35 -13.8 -54.35 -12.3 -54.35 -11.2 -55.2 -10.55 L-55.25 -10.55 Q-56.0 -10.55 -56.5 -11.05 -57.05 -11.6 -57.05 -12.3 L-57.45 -13.7 -58.35 -17.1 -58.8 -18.45 -59.8 -27.1 M-39.65 17.5 L-39.65 16.8 -38.5 16.65 Q-37.5 16.8 -37.1 17.5 -36.6 18.3 -36.55 20.4 -37.6 20.4 -38.3 20.0 -39.05 19.6 -39.05 19.05 L-39.65 17.5 M-36.45 22.55 Q-36.15 23.1 -36.05 24.45 -35.95 25.8 -36.2 26.45 -36.2 25.85 -36.75 25.45 -37.3 25.05 -38.05 25.05 L-38.5 24.1 Q-38.35 23.35 -37.75 23.0 L-36.45 22.55 M-78.15 -40.95 L-79.7 -38.9 -79.85 -38.9 -80.1 -39.7 -80.4 -41.25 -78.85 -45.75 -77.75 -44.9 Q-77.8 -42.95 -78.1 -42.25 L-78.05 -41.7 -78.15 -40.95 M-79.5 -32.7 L-79.4 -31.0 Q-79.4 -30.1 -79.6 -29.85 L-81.2 -28.05 -82.7 -28.45 -83.0 -30.15 Q-83.0 -31.2 -81.95 -31.95 -80.95 -32.7 -79.5 -32.7 M-80.8 -50.5 L-80.9 -50.45 -81.0 -51.15 Q-80.85 -51.9 -80.15 -52.1 L-80.95 -53.15 -80.45 -54.4 -78.45 -55.05 -77.95 -54.85 -77.65 -54.65 -77.55 -53.85 Q-77.55 -53.2 -77.9 -52.7 L-78.95 -51.8 -78.05 -50.95 -77.7 -50.35 Q-77.7 -49.55 -78.15 -49.0 -78.6 -48.45 -79.2 -48.45 L-80.8 -50.5 M-58.6 -64.3 L-59.75 -63.5 -61.35 -63.2 -63.75 -63.4 -64.1 -63.55 -64.35 -64.4 -64.3 -65.1 -64.0 -65.1 -62.8 -65.5 -61.0 -65.6 -59.4 -65.25 -58.6 -64.3 M-69.6 -15.3 L-69.5 -9.15 Q-69.55 -8.6 -69.9 -8.2 -70.3 -7.85 -70.75 -7.9 -71.2 -7.95 -71.5 -8.35 -71.85 -8.8 -71.8 -9.35 L-71.8 -12.05 -71.8 -14.0 -71.8 -15.7 Q-71.65 -16.1 -70.65 -16.1 -70.0 -16.1 -69.8 -15.85 L-69.6 -15.3 M-68.95 -1.15 L-68.95 0.7 -68.95 1.75 Q-69.05 4.7 -69.45 5.55 L-69.95 5.65 -70.65 5.55 -71.3 1.7 -71.25 -1.45 -71.05 -1.7 Q-70.25 -2.05 -69.2 -1.7 L-68.95 -1.15" fill="#ffffff" fill-rule="evenodd" stroke="none"/>
    <path d="M-83.25 -67.8 Q-83.25 -67.3 -83.75 -66.95 -84.3 -66.65 -85.0 -66.65 -85.7 -66.65 -86.2 -66.95 -86.75 -67.3 -86.75 -67.8 -86.75 -68.3 -86.2 -68.6 L-85.0 -68.95 -83.75 -68.6 Q-83.25 -68.3 -83.25 -67.8 M-80.95 -53.15 Q-81.05 -49.75 -82.4 -45.6 -83.5 -42.25 -84.45 -40.8 L-85.6 -42.6 -83.9 -50.0 -84.55 -50.85 Q-84.95 -51.3 -84.95 -51.85 L-84.6 -51.85 Q-84.45 -51.9 -84.45 -52.5 -84.45 -53.0 -84.9 -53.3 -85.4 -53.6 -85.4 -54.1 -85.4 -54.95 -83.95 -58.45 -82.5 -61.85 -82.6 -62.65 -82.85 -64.7 -82.4 -65.7 -81.85 -67.0 -79.85 -67.8 L-79.05 -66.95 -78.7 -66.65 -79.5 -65.15 -80.45 -63.65 Q-79.4 -64.7 -77.85 -65.5 -77.05 -64.8 -76.95 -63.9 L-77.0 -63.0 -79.1 -61.15 Q-79.3 -60.7 -81.85 -57.6 -84.85 -57.5 -84.85 -55.3 -84.85 -54.65 -84.25 -54.1 L-83.65 -53.65 -81.95 -55.15 -80.9 -54.9 Q-80.45 -54.7 -80.45 -54.4 L-80.95 -53.15 M-76.95 -55.8 L-76.4 -55.95 Q-76.4 -54.85 -75.8 -54.1 -75.25 -53.35 -74.4 -53.35 -74.2 -46.75 -73.55 -43.15 L-72.9 -40.55 -73.3 -40.55 -73.55 -37.75 Q-73.55 -36.5 -72.65 -33.25 L-71.8 -30.15 -72.25 -27.9 -72.85 -25.05 -72.95 -25.4 -73.25 -24.55 -74.1 -24.15 -75.25 -25.5 -74.15 -29.3 -75.55 -31.45 Q-77.05 -33.65 -77.55 -35.05 L-77.85 -37.1 -78.15 -40.95 -78.05 -41.7 -77.4 -42.15 -76.5 -42.5 -76.85 -44.5 -78.1 -42.25 Q-77.8 -42.95 -77.75 -44.9 L-76.4 -48.4 -76.35 -48.8 Q-76.3 -50.5 -76.5 -51.95 -76.7 -53.45 -77.0 -53.8 -77.35 -54.15 -78.05 -50.95 L-78.95 -51.8 -77.9 -52.7 Q-77.55 -53.2 -77.55 -53.85 L-77.65 -54.65 -77.95 -54.85 Q-77.55 -54.85 -77.25 -55.1 -76.95 -55.4 -76.95 -55.8 M-66.1 -54.35 L-66.15 -54.5 -65.5 -54.6 -65.15 -54.2 Q-64.95 -53.85 -64.35 -53.85 -63.8 -53.85 -63.7 -54.15 L-63.2 -55.15 -62.3 -54.85 Q-62.05 -54.65 -62.05 -54.0 -62.05 -53.4 -62.3 -53.3 L-62.85 -52.95 Q-60.95 -50.8 -59.6 -48.65 L-55.7 -41.8 -55.7 -39.65 -56.05 -39.3 -56.85 -39.05 -58.0 -40.2 -56.3 -41.5 Q-56.3 -41.9 -57.05 -43.1 -58.0 -44.75 -59.75 -46.55 L-60.1 -46.0 -60.8 -45.8 -61.7 -46.75 Q-62.6 -47.7 -63.2 -47.7 L-64.0 -47.6 -64.35 -47.4 -64.05 -45.95 -63.75 -45.5 Q-63.75 -44.5 -63.2 -43.8 -62.65 -43.1 -61.9 -43.1 L-61.7 -42.75 Q-62.35 -42.3 -63.95 -42.0 L-66.75 -49.95 -65.8 -50.15 Q-65.45 -50.35 -65.45 -50.65 L-64.4 -50.75 Q-66.65 -52.75 -66.65 -53.15 L-66.5 -53.95 -66.1 -54.35 M-59.8 -41.6 Q-59.95 -39.65 -60.35 -38.95 L-60.9 -42.15 -59.8 -41.6 M-60.4 -38.9 Q-61.75 -38.9 -62.65 -39.5 -63.6 -40.1 -63.6 -40.95 L-61.7 -39.4 Q-61.15 -39.0 -60.4 -38.9 M-52.65 -7.05 L-50.6 -4.35 Q-51.1 -3.7 -51.1 -2.9 -51.1 -1.8 -50.5 -1.05 L-49.25 0.0 -48.65 -0.1 -48.35 -0.9 Q-45.2 5.1 -40.5 16.0 L-41.85 16.1 -42.5 17.45 -43.7 15.85 Q-43.1 15.75 -42.55 15.35 -41.9 14.8 -41.9 14.0 -41.9 13.5 -42.35 12.7 -43.05 11.5 -44.25 11.5 L-45.1 11.7 -45.35 12.35 Q-48.45 4.55 -49.95 1.9 L-55.5 -6.25 -53.95 -6.55 -52.65 -7.05 M-39.75 17.5 L-39.65 17.5 -39.05 19.05 Q-39.45 18.75 -39.75 17.5 M-38.5 27.6 L-39.05 25.55 -39.6 23.5 -40.45 22.8 -41.5 21.75 -40.8 21.1 -40.45 21.65 -39.65 21.85 Q-39.0 21.85 -38.55 22.2 L-37.75 23.0 Q-38.35 23.35 -38.5 24.1 L-38.05 25.05 Q-38.5 25.85 -38.5 27.6 M-56.3 -7.05 L-56.25 -4.9 -57.45 -4.45 Q-58.0 -4.05 -58.0 -3.45 -58.4 -4.55 -58.6 -6.9 -59.7 -8.55 -60.0 -11.75 L-60.3 -15.75 -58.15 -10.15 -58.6 -6.9 -57.35 -7.2 Q-56.85 -7.5 -56.85 -7.9 -57.25 -9.5 -57.45 -12.5 L-58.3 -14.15 -60.1 -18.8 Q-60.65 -18.2 -60.7 -16.3 L-60.9 -13.85 -62.05 -13.2 Q-63.35 -15.5 -64.0 -17.7 L-65.5 -23.4 -65.5 -25.4 -65.2 -25.6 -64.35 -25.85 Q-62.55 -25.85 -62.05 -19.95 L-61.35 -19.25 -63.2 -25.95 -60.1 -18.8 -58.8 -18.45 -58.35 -17.1 -57.45 -13.7 -57.45 -12.5 -57.05 -12.3 Q-57.05 -11.6 -56.5 -11.05 -56.0 -10.55 -55.25 -10.55 L-56.85 -7.9 -56.3 -7.05 M-55.25 -2.55 Q-54.5 2.5 -54.8 5.15 -55.35 5.15 -56.4 5.6 -57.45 6.0 -58.0 6.45 L-56.85 1.4 -58.0 -3.3 -56.3 -1.7 Q-55.55 -1.8 -55.25 -2.55 M-65.05 -29.9 L-66.65 -28.75 Q-67.25 -29.25 -67.7 -30.65 -68.45 -31.85 -70.8 -32.3 L-70.45 -36.85 -69.75 -36.0 -69.3 -34.45 -68.95 -34.85 -67.3 -34.4 Q-66.6 -33.95 -66.6 -33.35 L-65.05 -29.9 M-79.7 -38.9 L-79.5 -32.7 Q-80.95 -32.7 -81.95 -31.95 -83.0 -31.2 -83.0 -30.15 L-83.35 -30.15 -83.45 -30.9 -82.65 -34.1 Q-82.05 -36.0 -82.05 -37.3 L-82.4 -39.85 -82.8 -42.45 -81.05 -44.2 -81.4 -41.3 Q-81.4 -40.9 -79.85 -38.9 L-79.7 -38.9 M-81.2 -28.05 L-81.0 -26.6 -81.1 -25.05 -82.75 -24.15 -83.3 -24.55 Q-83.9 -25.05 -83.9 -25.7 L-83.9 -25.95 -82.7 -28.45 -81.2 -28.05 M-80.75 -44.75 L-81.05 -46.0 Q-81.05 -46.5 -80.65 -46.7 -80.25 -46.9 -80.25 -47.4 -80.25 -48.0 -80.6 -48.35 L-81.05 -48.85 -80.8 -50.5 -79.2 -48.45 Q-78.6 -48.45 -78.15 -49.0 -77.7 -49.55 -77.7 -50.35 L-76.4 -48.4 Q-76.75 -47.7 -77.55 -47.1 L-79.2 -48.45 -80.75 -44.75 M-86.75 -59.2 L-85.6 -57.85 Q-85.6 -57.1 -86.6 -54.5 -87.55 -51.95 -87.9 -51.7 L-89.05 -53.1 Q-89.05 -54.75 -86.75 -59.2 M-84.9 -27.3 Q-84.45 -27.45 -84.45 -26.45 L-84.9 -25.15 Q-85.25 -24.1 -85.05 -23.0 L-86.5 -21.85 -87.9 -22.1 -87.9 -25.55 -87.0 -26.55 Q-86.0 -27.3 -84.9 -27.3 M-80.4 -21.3 Q-80.4 -20.6 -80.8 -20.05 -81.25 -19.55 -81.85 -19.55 -82.45 -19.55 -82.85 -20.05 -83.3 -20.6 -83.3 -21.3 L-82.85 -22.5 Q-82.45 -23.05 -81.85 -23.05 -81.25 -23.05 -80.8 -22.5 -80.4 -22.0 -80.4 -21.3 M-75.7 -78.45 Q-75.25 -78.6 -75.25 -77.6 -75.25 -76.8 -76.5 -74.7 -77.95 -72.3 -79.3 -71.85 L-80.45 -73.2 Q-80.45 -74.25 -79.15 -76.15 -77.6 -78.5 -75.7 -78.45 M-63.75 -74.15 Q-63.75 -73.65 -64.05 -73.3 -64.4 -73.0 -64.9 -73.0 -65.4 -73.0 -65.7 -73.3 -66.05 -73.65 -66.05 -74.15 -66.05 -74.65 -65.7 -74.95 -65.4 -75.3 -64.9 -75.3 -64.4 -75.3 -64.05 -74.95 -63.75 -74.65 -63.75 -74.15 M-70.65 -71.25 Q-71.9 -72.25 -71.75 -72.55 L-71.25 -73.7 Q-71.25 -74.25 -71.95 -74.2 L-72.95 -74.25 -72.0 -75.6 -70.65 -77.0 -68.8 -77.0 Q-67.95 -75.65 -68.55 -73.65 -69.15 -71.65 -70.65 -71.25 M-64.0 -65.1 L-66.05 -69.1 Q-65.4 -69.95 -64.65 -70.1 L-63.0 -69.05 Q-56.1 -70.55 -55.7 -70.8 L-55.7 -72.1 Q-54.7 -72.1 -54.55 -72.4 L-52.7 -72.4 -52.45 -72.1 -52.25 -71.25 -53.6 -70.1 Q-52.2 -69.8 -50.15 -68.0 -48.55 -66.65 -47.65 -65.4 L-49.45 -65.3 Q-50.0 -64.95 -50.2 -64.95 L-51.05 -65.15 -51.35 -65.55 -52.3 -66.1 Q-52.75 -66.2 -52.5 -65.95 L-56.25 -66.7 -59.75 -67.25 Q-61.15 -67.25 -61.7 -66.7 L-62.8 -65.5 -64.0 -65.1 M-46.75 -64.0 Q-46.3 -63.2 -46.3 -62.25 L-46.5 -61.0 -47.7 -60.8 -48.2 -60.95 -50.1 -62.9 -48.55 -61.7 Q-47.55 -62.45 -47.25 -62.9 L-46.75 -64.0 M-75.85 -68.1 Q-75.85 -67.0 -76.15 -66.25 -76.5 -65.5 -77.0 -65.5 -77.5 -65.5 -77.8 -66.25 -78.15 -67.0 -78.15 -68.1 -78.15 -69.2 -77.8 -69.95 -77.5 -70.7 -77.0 -70.7 -76.5 -70.7 -76.15 -69.95 -75.85 -69.2 -75.85 -68.1 M-60.3 -63.2 Q-59.45 -62.25 -59.5 -60.7 L-59.75 -58.6 Q-59.75 -57.15 -58.5 -56.2 -56.1 -54.4 -54.55 -52.45 L-55.15 -51.6 -55.7 -51.15 Q-56.2 -51.15 -56.8 -51.65 L-58.05 -52.9 Q-58.45 -52.2 -59.15 -51.7 -61.05 -53.7 -61.6 -55.2 -62.05 -56.4 -62.05 -58.9 L-61.95 -61.3 Q-61.65 -62.25 -60.3 -63.2 M-50.55 -47.85 L-50.9 -48.15 -51.1 -49.05 Q-51.1 -49.55 -50.65 -49.7 -50.25 -49.9 -50.25 -50.4 -50.25 -50.9 -50.6 -51.35 L-50.95 -52.3 Q-50.95 -52.85 -51.3 -53.25 L-51.7 -53.75 -51.4 -54.3 -50.55 -54.6 -48.7 -53.35 -43.5 -50.3 Q-40.75 -48.9 -40.25 -47.5 L-40.2 -44.25 Q-40.2 -42.5 -40.35 -41.25 L-41.35 -40.8 Q-42.65 -41.15 -42.7 -42.75 L-42.5 -44.95 -42.5 -45.4 -42.75 -46.0 -43.4 -46.45 Q-45.3 -48.65 -48.35 -49.25 L-47.25 -48.3 -45.95 -46.7 -46.55 -45.85 Q-46.8 -45.4 -47.1 -45.4 -47.7 -45.4 -48.85 -46.3 L-49.95 -47.35 -49.1 -47.7 -48.25 -48.25 Q-48.55 -49.1 -49.4 -49.4 L-50.1 -49.15 Q-50.55 -48.7 -50.55 -47.85 M-49.95 -39.65 Q-49.95 -39.15 -50.25 -38.8 -50.6 -38.5 -51.1 -38.5 -51.6 -38.5 -51.9 -38.8 -52.25 -39.15 -52.25 -39.65 -52.25 -40.15 -51.9 -40.45 -51.6 -40.8 -51.1 -40.8 -50.6 -40.8 -50.25 -40.45 -49.95 -40.15 -49.95 -39.65 M-54.55 -29.15 Q-55.05 -28.15 -56.0 -28.15 -57.2 -28.15 -58.7 -30.0 -60.6 -32.35 -60.3 -35.75 -60.2 -37.25 -59.45 -37.8 -57.7 -37.25 -56.3 -33.85 L-54.55 -29.15 M-43.65 -32.5 Q-43.65 -31.9 -43.95 -31.45 -44.3 -31.05 -44.8 -31.05 -45.3 -31.05 -45.6 -31.45 -45.95 -31.9 -45.95 -32.5 -45.95 -33.1 -45.6 -33.5 -45.3 -33.95 -44.8 -33.95 L-43.95 -33.5 Q-43.65 -33.1 -43.65 -32.5 M-49.45 -29.4 Q-50.8 -29.8 -51.7 -30.9 -50.85 -31.95 -49.95 -31.95 -49.95 -30.0 -49.45 -29.4 M-72.3 -22.8 L-70.65 -24.7 Q-69.7 -24.7 -68.95 -23.25 L-68.35 -21.7 -69.2 -20.9 -70.1 -20.1 -69.6 -15.3 -69.8 -15.85 Q-70.0 -16.1 -70.65 -16.1 -71.65 -16.1 -71.8 -15.7 L-71.8 -14.0 -72.4 -19.75 Q-71.65 -19.75 -71.1 -20.15 -70.55 -20.6 -70.5 -21.25 -70.5 -21.9 -71.0 -22.35 -71.55 -22.85 -72.3 -22.8 M-69.5 -9.15 L-69.05 -3.45 Q-69.65 -3.8 -70.1 -3.75 L-71.25 -3.15 -72.4 -8.4 -72.35 -9.15 -72.15 -9.35 -71.8 -9.35 Q-71.85 -8.8 -71.5 -8.35 -71.2 -7.95 -70.75 -7.9 -70.3 -7.85 -69.9 -8.2 -69.55 -8.6 -69.5 -9.15 M-68.95 -2.45 L-68.95 -1.15 -69.2 -1.7 -68.95 -2.45 M-68.95 0.7 Q-68.35 1.7 -68.35 3.0 L-68.95 1.75 -68.95 0.7 M-68.35 5.55 L-66.05 11.1 -66.3 12.4 Q-66.4 12.65 -67.05 12.65 -68.7 12.65 -70.65 5.55 L-69.95 5.65 -69.45 5.55 -68.35 5.55 M-71.25 -1.45 L-71.25 -1.85 -71.05 -1.7 -71.25 -1.45 M-51.1 26.6 L-51.9 23.1 Q-52.4 20.95 -51.7 19.25 L-52.3 17.45 -52.6 17.8 -53.4 18.4 -54.1 15.7 -54.55 12.5 -54.45 6.6 -53.4 6.35 Q-50.0 14.95 -49.85 15.95 -49.6 17.4 -49.95 22.55 L-49.1 24.85 Q-48.25 27.2 -48.25 27.95 L-48.6 28.95 -49.4 30.6 Q-48.4 28.05 -49.95 25.85 -50.05 26.1 -51.1 26.6 M-49.4 34.9 L-49.45 36.5 -49.7 36.65 -50.55 36.8 Q-51.8 36.8 -52.15 35.65 L-52.25 34.1 -52.1 33.1 -51.7 32.2 -51.95 33.5 -52.15 34.65 -52.05 35.55 -50.55 36.2 -49.65 35.4 -49.4 34.9 M-62.75 3.75 L-61.9 7.45 Q-61.45 9.35 -61.45 10.65 -61.45 11.65 -61.7 12.25 -62.1 13.05 -63.2 13.8 L-64.35 12.2 Q-63.75 11.45 -63.75 10.5 -63.75 9.6 -64.3 7.9 -64.9 6.2 -64.9 5.5 L-64.75 4.0 Q-64.35 3.25 -62.75 3.75 M-64.05 13.95 L-61.55 13.95 -61.55 19.4 -64.05 19.4 -64.05 13.95 M-68.95 14.35 Q-67.75 16.55 -66.1 22.6 -64.55 28.4 -62.6 31.45 L-62.9 32.35 -63.2 32.65 -64.05 32.75 Q-65.4 32.75 -67.95 25.6 L-69.2 22.25 Q-70.1 19.5 -70.1 17.8 L-69.95 15.4 -68.95 14.35" fill="#ffffff" fill-opacity="0.4" fill-rule="evenodd" stroke="none"/>
  </g>
</svg>
