<?xml version="1.0" encoding="UTF-8" standalone="no"?>
<svg xmlns:xlink="http://www.w3.org/1999/xlink" height="47.25px" width="39.8px" xmlns="http://www.w3.org/2000/svg">
  <g transform="matrix(1.0, 0.0, 0.0, 1.0, 19.9, 23.7)">
    <path d="M4.9 -22.95 Q13.5 -21.9 19.3 -16.8 0.45 14.45 -9.2 22.95 -13.35 23.9 -16.3 21.15 -11.95 18.95 -9.0 12.25 -0.1 0.2 4.9 -22.95" fill="#bba45b" fill-rule="evenodd" stroke="none"/>
    <path d="M4.9 -22.95 Q-0.1 0.2 -9.0 12.25 -11.95 18.95 -16.3 21.15 -18.0 19.6 -19.3 16.9 -4.7 -0.2 -3.15 -23.1 1.15 -23.4 4.9 -22.95" fill="#dfc86b" fill-rule="evenodd" stroke="none"/>
    <path d="M-9.2 22.95 Q0.45 14.45 19.3 -16.8 M-3.15 -23.1 Q-4.7 -0.2 -19.3 16.9" fill="none" stroke="#1b180f" stroke-linecap="round" stroke-linejoin="round" stroke-width="1.2000000000000002"/>
  </g>
</svg>
