<?xml version="1.0" encoding="UTF-8" standalone="no"?>
<svg xmlns:xlink="http://www.w3.org/1999/xlink" height="105.8px" width="82.95px" xmlns="http://www.w3.org/2000/svg">
  <g transform="matrix(1.0, 0.0, 0.0, 1.0, 41.5, 52.95)">
    <path d="M-36.1 -37.15 Q-33.85 -38.2 -32.85 -38.2 -31.85 -38.2 -29.25 -37.15 -22.55 -32.6 -14.0 -24.2 L-7.7 -17.65 Q-5.4 -15.1 -4.05 -13.25 -7.55 -15.4 -12.0 -17.65 L-12.3 -17.8 Q-18.4 -20.95 -21.35 -21.65 L-26.75 -28.15 -29.6 -30.8 Q-31.9 -32.9 -33.9 -33.9 L-35.35 -34.75 Q-36.2 -35.65 -36.1 -37.15" fill="#bfa85b" fill-rule="evenodd" stroke="none"/>
    <path d="M-33.45 -40.05 L-29.25 -37.15 -33.45 -40.05 M-29.25 -37.15 Q-31.85 -38.2 -32.85 -38.2 -33.85 -38.2 -36.1 -37.15 -37.9 -34.05 -37.95 -30.6 L-39.1 -27.05 Q-40.35 -29.85 -40.35 -34.05 -40.35 -37.25 -39.55 -41.1 L-36.8 -52.35 Q-32.45 -50.45 -25.45 -45.1 -19.2 -40.4 -16.45 -37.45 L-12.15 -33.15 Q-9.5 -30.2 -7.15 -28.5 L-3.7 -26.35 Q-1.25 -24.95 2.05 -21.95 L4.05 -19.8 7.0 -15.95 Q4.45 -22.75 4.05 -27.1 L4.0 -29.7 4.05 -29.7 4.7 -29.5 25.15 -23.35 Q33.6 -20.55 40.85 -14.45 L33.15 -6.05 Q25.75 1.35 20.1 4.75 L18.85 5.55 15.3 11.15 15.2 11.25 11.45 13.3 3.9 0.15 Q3.5 -0.45 1.45 -4.55 L0.6 -6.2 Q-1.65 -10.6 -4.05 -13.25 -5.4 -15.1 -7.7 -17.65 L-14.0 -24.2 Q-22.55 -32.6 -29.25 -37.15" fill="#fae680" fill-rule="evenodd" stroke="none"/>
    <path d="M-39.1 -27.05 L-37.95 -30.6 Q-36.7 -16.2 -29.25 -8.0 -29.1 -6.1 -26.35 -2.8 -27.15 4.05 -16.9 11.85 -14.8 15.65 -10.35 18.2 L-10.2 18.3 Q-17.9 18.85 -25.65 13.5 L-33.05 6.1 Q-37.45 2.2 -39.5 -5.35 -40.9 -10.4 -40.9 -14.9 L-40.7 -17.65 Q-40.35 -21.25 -39.1 -27.05 M-20.25 29.25 L-21.2 27.75 Q-18.35 29.25 -13.4 29.9 L-8.15 30.2 -6.35 30.15 Q-2.85 32.1 1.6 32.1 -12.6 35.1 -20.25 29.25 M-29.25 -8.0 L-28.85 -8.6 Q-28.2 -9.2 -26.95 -9.25 L-24.2 -9.3 Q-17.95 -9.3 -13.85 -7.95 L-11.45 -6.95 -5.65 -4.2 Q-1.45 -0.9 0.8 3.8 L3.35 9.6 Q3.45 13.4 3.9 16.2 -9.9 17.4 -16.9 11.85 L-13.65 11.4 -9.5 11.6 -7.95 11.85 0.85 13.85 Q-15.7 4.35 -29.25 -8.0" fill="#e87d53" fill-rule="evenodd" stroke="none"/>
    <path d="M-36.1 -37.15 Q-36.2 -35.65 -35.35 -34.75 L-33.9 -33.9 Q-31.9 -32.9 -29.6 -30.8 L-26.75 -28.15 -21.35 -21.65 -30.25 -26.35 -34.7 -28.5 -37.95 -30.6 Q-37.9 -34.05 -36.1 -37.15 M4.0 -29.7 L4.05 -27.1 Q4.45 -22.75 7.0 -15.95 L4.05 -19.8 2.05 -21.95 Q-1.25 -24.95 -3.7 -26.35 L-7.15 -28.5 Q-9.5 -30.2 -12.15 -33.15 L-16.45 -37.45 Q-11.7 -34.55 4.0 -29.7" fill="#dfc86b" fill-rule="evenodd" stroke="none"/>
    <path d="M-21.35 -21.65 Q-18.4 -20.95 -12.3 -17.8 L-12.0 -17.65 Q-7.55 -15.4 -4.05 -13.25 -1.65 -10.6 0.6 -6.2 L1.45 -4.55 Q3.5 -0.45 3.9 0.15 3.35 5.1 3.35 7.75 L3.35 9.15 3.35 9.6 3.35 9.15 3.35 7.75 Q3.35 5.1 3.9 0.15 L11.45 13.3 15.2 11.25 15.3 11.15 15.55 10.85 15.25 11.4 Q19.85 29.25 15.25 48.5 15.45 53.0 12.4 52.25 12.4 51.0 11.8 50.15 11.2 49.25 10.35 49.25 9.45 47.5 5.75 45.35 L5.35 45.15 Q2.1 43.25 -0.35 42.8 -1.5 43.3 -2.6 44.05 L-2.45 42.6 Q-2.05 40.65 0.7 39.2 -5.55 40.25 -12.95 35.6 -17.95 32.45 -20.25 29.25 -12.6 35.1 1.6 32.1 -2.85 32.1 -6.35 30.15 L-7.8 29.6 Q-18.35 22.7 -20.65 20.3 -24.55 17.95 -28.65 13.0 L-31.5 9.15 -33.05 6.1 -25.65 13.5 Q-17.9 18.85 -10.2 18.3 L-10.35 18.2 Q-14.8 15.65 -16.9 11.85 -27.15 4.05 -26.35 -2.8 -29.1 -6.1 -29.25 -8.0 -36.7 -16.2 -37.95 -30.6 L-34.7 -28.5 Q-34.15 -28.2 -30.55 -24.35 L-26.65 -20.05 -30.55 -24.35 Q-34.15 -28.2 -34.7 -28.5 L-30.25 -26.35 -21.35 -21.65 M-26.35 -2.8 L-24.1 -0.3 Q-19.35 4.7 -12.4 9.15 L-7.95 11.85 -12.4 9.15 Q-19.35 4.7 -24.1 -0.3 L-26.35 -2.8 M1.3 0.0 Q0.4 -1.85 -2.45 -3.15 -4.3 -4.0 -5.65 -4.2 -4.3 -4.0 -2.45 -3.15 0.4 -1.85 1.3 0.0 M0.8 3.8 Q-1.45 -0.9 -5.65 -4.2 L-11.45 -6.95 -13.85 -7.95 Q-17.95 -9.3 -24.2 -9.3 L-26.95 -9.25 Q-28.2 -9.2 -28.85 -8.6 L-29.25 -8.0 Q-15.7 4.35 0.85 13.85 L-7.95 11.85 -9.5 11.6 -13.65 11.4 -16.9 11.85 Q-9.9 17.4 3.9 16.2 4.4 19.3 5.35 21.15 4.4 19.3 3.9 16.2 3.45 13.4 3.35 9.6 L0.8 3.8 M-1.4 22.55 L-2.7 23.3 -3.9 23.55 Q-4.9 23.55 -6.5 22.85 L-4.55 20.3 -2.3 20.45 -4.55 20.3 -6.5 22.85 Q-4.9 23.55 -3.9 23.55 L-2.7 23.3 -1.4 22.55 M-0.3 28.45 Q-6.0 27.4 -12.85 24.45 -18.65 21.95 -20.65 20.3 -18.65 21.95 -12.85 24.45 -6.0 27.4 -0.3 28.45 M5.35 21.5 L5.6 21.6 5.35 21.15 5.35 21.5 3.45 20.8 1.4 20.1 Q2.3 23.55 5.35 27.15 L7.3 29.2 9.6 31.0 11.55 20.75 9.6 31.0 7.3 29.2 5.35 27.15 Q2.3 23.55 1.4 20.1 L3.45 20.8 5.35 21.5 M8.15 23.9 L5.6 21.6 8.15 23.9 M-10.2 18.3 Q-6.7 20.3 -4.55 20.3 -6.7 20.3 -10.2 18.3 M3.2 39.05 L0.7 39.2 3.2 39.05 M5.65 42.0 L5.35 42.0 2.55 42.25 -0.35 42.8 2.55 42.25 5.35 42.0 5.65 42.0" fill="#e05a36" fill-rule="evenodd" stroke="none"/>
    <path d="M-29.25 -37.15 L-33.45 -40.05 M-21.35 -21.65 Q-18.4 -20.95 -12.3 -17.8 L-12.0 -17.65 Q-7.55 -15.4 -4.05 -13.25 -5.4 -15.1 -7.7 -17.65 L-14.0 -24.2 Q-22.55 -32.6 -29.25 -37.15 M-37.95 -30.6 L-39.1 -27.05 Q-40.35 -21.25 -40.7 -17.65 L-40.9 -14.9 Q-40.9 -10.4 -39.5 -5.35 -37.45 2.2 -33.05 6.1 L-25.65 13.5 M-10.2 18.3 L-10.35 18.2 Q-14.8 15.65 -16.9 11.85 L-13.65 11.4 -9.5 11.6 -7.95 11.85 -12.4 9.15 Q-19.35 4.7 -24.1 -0.3 L-26.35 -2.8 Q-29.1 -6.1 -29.25 -8.0 L-28.85 -8.6 Q-28.2 -9.2 -26.95 -9.25 L-24.2 -9.3 Q-17.95 -9.3 -13.85 -7.95 L-11.45 -6.95 -5.65 -4.2 Q-1.45 -0.9 0.8 3.8 M-16.45 -37.45 Q-19.2 -40.4 -25.45 -45.1 -32.45 -50.45 -36.8 -52.35 L-39.55 -41.1 Q-40.35 -37.25 -40.35 -34.05 -40.35 -29.85 -39.1 -27.05 M-26.65 -20.05 L-30.55 -24.35 Q-34.15 -28.2 -34.7 -28.5 L-37.95 -30.6 M-21.35 -21.65 L-30.25 -26.35 -34.7 -28.5 M4.0 -29.7 Q-11.7 -34.55 -16.45 -37.45 L-12.15 -33.15 Q-9.5 -30.2 -7.15 -28.5 L-3.7 -26.35 Q-1.25 -24.95 2.05 -21.95 M4.0 -29.7 L4.05 -29.7 4.7 -29.5 25.15 -23.35 Q33.6 -20.55 40.85 -14.45 M10.35 49.25 Q9.45 47.5 5.75 45.35 L5.35 45.15 Q2.1 43.25 -0.35 42.8 -1.5 43.3 -2.6 44.05 L-2.45 42.6 Q-2.05 40.65 0.7 39.2 -5.55 40.25 -12.95 35.6 -17.95 32.45 -20.25 29.25 L-21.2 27.75 Q-18.35 29.25 -13.4 29.9 L-8.15 30.2 -6.35 30.15 -7.8 29.6 Q-18.35 22.7 -20.65 20.3 -24.55 17.95 -28.65 13.0 L-31.5 9.15 -33.05 6.1 M3.9 0.15 Q3.5 -0.45 1.45 -4.55 L0.6 -6.2 Q-1.65 -10.6 -4.05 -13.25 M-5.65 -4.2 Q-4.3 -4.0 -2.45 -3.15 0.4 -1.85 1.3 0.0 M3.35 9.6 L3.35 9.15 3.35 7.75 Q3.35 5.1 3.9 0.15 L11.45 13.3 M-20.65 20.3 Q-18.65 21.95 -12.85 24.45 -6.0 27.4 -0.3 28.45 M-2.3 20.45 L-4.55 20.3 -6.5 22.85 Q-4.9 23.55 -3.9 23.55 L-2.7 23.3 -1.4 22.55 M5.35 21.15 Q4.4 19.3 3.9 16.2 3.45 13.4 3.35 9.6 M5.35 21.5 L5.6 21.6 5.35 21.15 M5.35 21.5 L3.45 20.8 1.4 20.1 Q2.3 23.55 5.35 27.15 L7.3 29.2 9.6 31.0 11.55 20.75 M5.6 21.6 L8.15 23.9 M-4.55 20.3 Q-6.7 20.3 -10.2 18.3 M-0.35 42.8 L2.55 42.25 5.35 42.0 5.65 42.0 M0.7 39.2 L3.2 39.05" fill="none" stroke="#1b180f" stroke-linecap="round" stroke-linejoin="miter-clip" stroke-miterlimit="3.0" stroke-width="1.2000000000000002"/>
    <path d="M12.4 52.25 Q12.4 51.0 11.8 50.15 11.2 49.25 10.35 49.25" fill="none" stroke="#1b180f" stroke-linecap="round" stroke-linejoin="round" stroke-width="1.2000000000000002"/>
    <path d="M7.1 -16.05 L7.1 -15.9 6.95 -15.9 6.75 -16.2 3.95 -19.4 3.8 -19.5 3.75 -19.55 3.75 -19.6 3.65 -19.65 3.45 -19.9 1.9 -21.35 1.65 -21.55 1.6 -21.6 Q1.25 -22.05 1.65 -22.45 L2.5 -22.4 3.3 -21.45 4.1 -20.45 4.3 -20.2 4.35 -20.1 4.4 -20.1 4.4 -20.05 4.55 -19.9 6.5 -17.1 7.1 -16.05 M-29.0 -37.7 L-28.95 -37.65 Q-28.4 -37.35 -28.65 -36.85 -28.95 -36.3 -29.45 -36.55 L-32.1 -37.65 -32.7 -37.8 -32.75 -37.85 -33.2 -37.85 -33.25 -37.8 -33.9 -37.7 -34.45 -37.55 -34.75 -37.5 -36.05 -37.05 Q-36.15 -36.95 -36.15 -37.1 L-36.1 -37.2 -35.55 -37.55 -34.85 -37.85 -34.6 -38.0 -33.4 -38.4 -33.3 -38.45 -33.2 -38.45 -33.1 -38.5 -31.9 -38.45 -29.3 -37.8 -29.0 -37.7" fill="#1b180f" fill-rule="evenodd" stroke="none"/>
  </g>
</svg>
