<?xml version="1.0" encoding="UTF-8" standalone="no"?>
<svg xmlns:xlink="http://www.w3.org/1999/xlink" height="138.05px" width="105.85px" xmlns="http://www.w3.org/2000/svg">
  <g transform="matrix(1.0, 0.0, 0.0, 1.0, 52.9, 69.35)">
    <path d="M0.95 -39.8 Q4.15 -39.55 5.95 -38.2 L11.8 -34.4 12.25 -29.65 12.25 -28.5 Q11.65 -26.3 9.9 -22.85 7.7 -18.45 5.4 -15.85 4.05 -19.25 0.4 -23.55 -2.65 -27.1 -4.5 -28.35 -6.25 -21.4 -11.0 -12.5 -14.0 -7.0 -16.2 -3.95 L-17.7 -2.1 -25.4 5.95 Q-21.75 -9.2 -17.6 -18.1 -14.9 -23.9 -10.9 -29.65 -7.5 -34.6 -3.15 -39.5 L0.95 -39.8" fill="#bba45b" fill-rule="evenodd" stroke="none"/>
    <path d="M11.8 -34.4 L5.95 -38.2 Q4.15 -39.55 0.95 -39.8 L0.0 -41.35 3.75 -43.6 Q10.25 -43.95 11.8 -34.4" fill="#dfc86b" fill-rule="evenodd" stroke="none"/>
    <path d="M0.95 -39.8 L-3.15 -39.5 0.0 -41.35 0.95 -39.8 M-16.2 -3.95 Q-14.0 -7.0 -11.0 -12.5 -6.25 -21.4 -4.5 -28.35 3.5 -20.85 -7.85 0.7 -12.95 5.45 -17.4 5.45 L-16.2 -3.95 M5.4 -15.85 Q7.7 -18.45 9.9 -22.85 11.65 -26.3 12.25 -28.5 L16.0 -39.7 Q27.35 -10.15 14.7 1.2 12.35 -2.95 8.4 -7.1 L5.4 -15.85 M35.75 -5.6 L37.9 -16.85 38.9 -14.95 Q42.2 0.95 35.65 14.05 28.8 22.0 20.55 24.7 L23.75 16.2 28.7 9.2 Q31.0 5.65 31.8 3.25 33.45 2.25 34.55 0.3 36.05 -2.35 35.75 -5.6 M-10.2 13.5 Q-7.35 10.65 -3.75 4.95 1.75 -3.8 3.3 -11.3 15.45 12.25 0.75 31.1 0.45 29.25 -1.2 28.0 -4.9 29.5 -6.95 32.65 -3.55 22.6 -5.7 13.0 L-10.2 13.5 M34.2 27.6 L36.25 27.6 41.75 26.6 Q47.5 25.15 50.6 23.0 49.8 29.05 30.65 32.8 L34.2 27.6" fill="#e87d53" fill-rule="evenodd" stroke="none"/>
    <path d="M-3.15 -39.5 Q-7.5 -34.6 -10.9 -29.65 -14.9 -23.9 -17.6 -18.1 -21.75 -9.2 -25.4 5.95 -25.5 7.2 -23.25 19.05 -20.7 32.35 -18.5 38.9 L-15.65 57.35 Q-33.85 59.9 -51.8 55.7 L-51.85 54.4 Q-54.1 37.05 -45.0 10.1 -36.5 -14.95 -26.45 -26.4 -19.15 -34.7 -11.55 -43.75 L-6.55 -49.75 -3.95 -52.9 Q6.5 -65.65 8.55 -68.75 20.0 -54.05 27.5 -37.05 35.35 -19.2 35.75 -5.6 36.05 -2.35 34.55 0.3 33.45 2.25 31.8 3.25 L32.65 -2.5 33.0 -6.5 Q33.0 -16.65 29.5 -23.6 25.85 -30.85 16.0 -39.7 L12.25 -28.5 12.25 -29.65 11.8 -34.4 Q10.25 -43.95 3.75 -43.6 L0.0 -41.35 -3.15 -39.5" fill="#fae680" fill-rule="evenodd" stroke="none"/>
    <path d="M-25.4 5.95 L-17.7 -2.1 -16.2 -3.95 -17.4 5.45 Q-12.95 5.45 -7.85 0.7 3.5 -20.85 -4.5 -28.35 -2.65 -27.1 0.4 -23.55 4.05 -19.25 5.4 -15.85 L8.4 -7.1 Q12.35 -2.95 14.7 1.2 27.35 -10.15 16.0 -39.7 25.85 -30.85 29.5 -23.6 33.0 -16.65 33.0 -6.5 L32.65 -2.5 31.8 3.25 Q31.0 5.65 28.7 9.2 L23.75 16.2 20.55 24.7 Q28.8 22.0 35.65 14.05 42.2 0.95 38.9 -14.95 42.1 -8.6 43.85 -1.95 45.5 4.35 45.5 9.4 45.5 14.8 43.25 19.25 40.3 24.95 34.2 27.6 L29.35 28.05 34.2 27.6 30.65 32.8 Q49.8 29.05 50.6 23.0 L51.35 26.5 Q51.35 29.95 49.65 31.9 47.65 34.15 42.5 35.75 44.45 36.0 47.5 38.2 51.15 40.9 52.35 44.1 47.65 41.2 44.2 40.95 46.7 43.2 47.35 45.75 L47.1 46.7 45.7 46.95 Q42.5 46.05 40.85 44.75 L15.45 68.7 -2.45 65.0 -15.65 57.35 -18.5 38.9 Q-20.7 32.35 -23.25 19.05 -25.5 7.2 -25.4 5.95 M8.4 -7.1 L3.35 -11.8 3.3 -11.3 3.35 -11.8 8.4 -7.1 M-10.2 13.5 L-12.15 15.15 -10.2 13.5 -5.7 13.0 Q-3.55 22.6 -6.95 32.65 -4.9 29.5 -1.2 28.0 0.45 29.25 0.75 31.1 15.45 12.25 3.3 -11.3 1.75 -3.8 -3.75 4.95 -7.35 10.65 -10.2 13.5 M5.9 40.55 L8.7 37.2 12.1 32.5 Q13.75 28.3 16.35 23.4 18.2 19.4 18.2 14.5 18.2 8.75 15.85 3.5 L14.7 1.2 15.85 3.5 Q18.2 8.75 18.2 14.5 18.2 19.4 16.35 23.4 13.75 28.3 12.1 32.5 12.3 37.6 11.5 41.1 11.0 43.15 10.1 44.65 9.15 46.3 5.4 49.25 L10.0 49.55 Q9.65 50.65 8.45 51.8 7.0 53.25 5.4 53.35 7.0 53.25 8.45 51.8 9.65 50.65 10.0 49.55 L5.4 49.25 Q9.15 46.3 10.1 44.65 11.0 43.15 11.5 41.1 12.3 37.6 12.1 32.5 L8.7 37.2 5.9 40.55 M42.85 40.8 L44.2 40.95 42.85 40.8 M42.5 35.75 L38.65 35.2 42.5 35.75" fill="#e05a36" fill-rule="evenodd" stroke="none"/>
    <path d="M-17.7 -2.1 L-16.2 -3.95 Q-14.0 -7.0 -11.0 -12.5 -6.25 -21.4 -4.5 -28.35 -2.65 -27.1 0.4 -23.55 4.05 -19.25 5.4 -15.85 7.7 -18.45 9.9 -22.85 11.65 -26.3 12.25 -28.5 L16.0 -39.7 Q25.85 -30.85 29.5 -23.6 33.0 -16.65 33.0 -6.5 L32.65 -2.5 31.8 3.25 Q31.0 5.65 28.7 9.2 L23.75 16.2 M5.4 -15.85 L8.4 -7.1 M37.9 -16.85 L35.75 -5.6 Q36.05 -2.35 34.55 0.3 33.45 2.25 31.8 3.25 M-51.8 55.7 L-51.85 54.4 Q-54.1 37.05 -45.0 10.1 -36.5 -14.95 -26.45 -26.4 -19.15 -34.7 -11.55 -43.75 L-6.55 -49.75 -3.95 -52.9 Q6.5 -65.65 8.55 -68.75 20.0 -54.05 27.5 -37.05 35.35 -19.2 35.75 -5.6" fill="none" stroke="#1b180f" stroke-linecap="round" stroke-linejoin="miter-clip" stroke-miterlimit="3.0" stroke-width="1.2000000000000002"/>
    <path d="M-3.15 -39.5 Q-7.5 -34.6 -10.9 -29.65 -14.9 -23.9 -17.6 -18.1 -21.75 -9.2 -25.4 5.95 -25.5 7.2 -23.25 19.05 -20.7 32.35 -18.5 38.9 M8.4 -7.1 Q12.35 -2.95 14.7 1.2 L15.85 3.5 Q18.2 8.75 18.2 14.5 18.2 19.4 16.35 23.4 13.75 28.3 12.1 32.5 12.3 37.6 11.5 41.1 11.0 43.15 10.1 44.65 9.15 46.3 5.4 49.25 L10.0 49.55 Q9.65 50.65 8.45 51.8 7.0 53.25 5.4 53.35 M3.3 -11.3 L3.35 -11.8 8.4 -7.1 M38.9 -14.95 L37.9 -16.85 M-12.15 15.15 L-10.2 13.5 Q-7.35 10.65 -3.75 4.95 1.75 -3.8 3.3 -11.3 M40.85 44.75 Q42.5 46.05 45.7 46.95 L47.1 46.7 47.35 45.75 Q46.7 43.2 44.2 40.95 L42.85 40.8 M12.1 32.5 L8.7 37.2 5.9 40.55 M29.35 28.05 L34.2 27.6 Q40.3 24.95 43.25 19.25 45.5 14.8 45.5 9.4 45.5 4.35 43.85 -1.95 42.1 -8.6 38.9 -14.95 M34.2 27.6 L36.25 27.6 41.75 26.6 Q47.5 25.15 50.6 23.0 L51.35 26.5 Q51.35 29.95 49.65 31.9 47.65 34.15 42.5 35.75 44.45 36.0 47.5 38.2 51.15 40.9 52.35 44.1 47.65 41.2 44.2 40.95 M0.0 -41.35 L-3.15 -39.5 M38.65 35.2 L42.5 35.75" fill="none" stroke="#1b180f" stroke-linecap="round" stroke-linejoin="round" stroke-width="1.2000000000000002"/>
    <path d="M-26.55 -7.2 L-26.5 -7.3 -26.4 -7.25 -24.85 5.95 -24.8 5.95 Q-24.8 6.6 -25.4 6.6 -26.0 6.6 -26.0 6.0 L-26.55 -7.2 M6.0 -38.25 L6.0 -38.1 5.85 -38.1 5.8 -38.15 5.5 -38.3 5.35 -38.4 5.1 -38.5 4.85 -38.65 4.6 -38.75 3.9 -38.95 3.75 -39.05 3.55 -39.05 2.75 -39.25 1.45 -39.35 1.25 -39.4 -0.25 -39.4 -2.25 -39.15 -2.65 -39.05 -3.0 -38.9 -3.05 -38.9 Q-3.6 -38.75 -3.8 -39.3 -3.95 -39.85 -3.35 -40.05 L-3.25 -40.05 -2.95 -40.15 -2.45 -40.25 -1.05 -40.3 -0.2 -40.25 0.2 -40.25 0.9 -40.15 1.1 -40.15 1.55 -40.05 1.8 -40.05 2.85 -39.8 3.1 -39.7 3.7 -39.55 3.85 -39.45 4.05 -39.4 5.0 -38.95 5.5 -38.65 5.65 -38.5 5.9 -38.3 6.0 -38.25" fill="#1b180f" fill-rule="evenodd" stroke="none"/>
  </g>
</svg>
