<?xml version="1.0" encoding="UTF-8" standalone="no"?>
<svg xmlns:xlink="http://www.w3.org/1999/xlink" height="75.5px" width="18.15px" xmlns="http://www.w3.org/2000/svg">
  <g transform="matrix(1.0, 0.0, 0.0, 1.0, 31.9, -52.4)">
    <path d="M-13.75 52.4 L-14.15 53.75 -13.95 53.9 Q-13.55 59.3 -16.05 63.85 -16.65 64.9 -17.6 65.6 L-17.6 65.75 Q-19.1 72.15 -19.95 79.0 -20.9 84.55 -22.25 90.3 -22.9 93.85 -23.9 97.1 L-24.05 99.05 Q-24.55 107.45 -26.8 116.4 L-28.25 121.1 Q-29.5 124.95 -31.85 127.9 -32.0 122.2 -31.35 116.65 -30.5 108.2 -28.1 99.5 L-27.45 97.4 -25.85 93.6 Q-25.9 87.85 -24.5 81.1 L-24.05 79.45 -22.8 73.9 Q-23.1 70.15 -22.25 65.85 L-21.8 64.45 Q-20.75 61.55 -19.05 59.0 -20.55 57.15 -18.9 54.55 -18.0 53.2 -16.6 52.9 L-14.85 53.35 -14.4 53.55 -13.75 52.4" fill="#ffffff" fill-opacity="0.69803923" fill-rule="evenodd" stroke="none"/>
  </g>
</svg>
