<?xml version="1.0" encoding="UTF-8" standalone="no"?>
<svg xmlns:xlink="http://www.w3.org/1999/xlink" height="40.55px" width="64.05px" xmlns="http://www.w3.org/2000/svg">
  <g transform="matrix(1.0, 0.0, 0.0, 1.0, 32.05, 19.1)">
    <path d="M10.6 -17.5 Q13.0 -18.7 16.5 -19.1 26.55 -18.0 31.4 -13.4 25.7 -13.2 20.95 -11.95 10.75 -9.3 4.9 -1.8 5.7 -5.6 9.55 -9.1 13.4 -12.65 19.65 -13.65 15.5 -16.15 10.6 -17.5 M-29.4 14.35 L-28.9 11.75 Q-27.65 9.25 -24.9 9.5 -26.5 2.9 -29.4 4.45 -28.6 1.6 -27.65 1.45 -21.85 1.5 -21.05 10.7 -24.1 10.7 -27.2 12.2 -28.6 12.85 -29.4 14.35" fill="#dfc86b" fill-rule="evenodd" stroke="none"/>
    <path d="M4.9 -1.8 Q3.8 -6.35 5.65 -12.1 6.9 -15.7 10.6 -17.5 15.5 -16.15 19.65 -13.65 13.4 -12.65 9.55 -9.1 5.7 -5.6 4.9 -1.8 M-29.4 4.45 Q-26.5 2.9 -24.9 9.5 -27.65 9.25 -28.9 11.75 L-29.4 14.35 Q-30.4 16.1 -30.6 19.1 -32.8 14.45 -29.4 4.45" fill="#fae680" fill-rule="evenodd" stroke="none"/>
    <path d="M31.4 -13.4 Q25.7 -13.2 20.95 -11.95 10.75 -9.3 4.9 -1.8 M-29.4 14.35 Q-28.6 12.85 -27.2 12.2 -24.1 10.7 -21.05 10.7 M-27.65 1.45 Q-28.6 1.6 -29.4 4.45 -32.8 14.45 -30.6 19.1 -30.4 16.1 -29.4 14.35" fill="none" stroke="#1b180f" stroke-linecap="round" stroke-linejoin="miter-clip" stroke-miterlimit="8.0" stroke-width="1.2000000000000002"/>
  </g>
</svg>
