<?xml version="1.0" encoding="UTF-8" standalone="no"?>
<svg xmlns:xlink="http://www.w3.org/1999/xlink" height="46.75px" width="70.15px" xmlns="http://www.w3.org/2000/svg">
  <g transform="matrix(1.0, 0.0, 0.0, 1.0, 34.75, 19.1)">
    <path d="M7.1 -17.5 Q9.5 -18.7 13.0 -19.1 26.8 -18.7 34.8 -4.4 13.6 -1.75 1.15 13.95 5.15 -0.05 10.25 -5.0 15.35 -9.95 30.7 -4.25 19.95 -18.85 7.1 -17.5 M-32.6 22.9 Q-29.75 14.45 -25.55 13.6 -27.3 7.25 -32.35 3.55 -31.7 1.65 -30.95 1.55 -25.15 1.6 -21.7 17.65 -28.45 18.1 -31.45 26.15 L-32.6 22.9" fill="#dfc86b" fill-rule="evenodd" stroke="none"/>
    <path d="M1.15 13.95 Q0.3 -6.35 2.15 -12.1 3.4 -15.7 7.1 -17.5 19.95 -18.85 30.7 -4.25 15.35 -9.95 10.25 -5.0 5.15 -0.05 1.15 13.95 M-32.35 3.55 Q-27.3 7.25 -25.55 13.6 -29.75 14.45 -32.6 22.9 -35.6 13.15 -32.7 4.55 L-32.35 3.55" fill="#fae680" fill-rule="evenodd" stroke="none"/>
    <path d="M34.8 -4.4 Q35.9 1.35 22.15 12.15 11.65 17.15 1.15 13.95 13.6 -1.75 34.8 -4.4" fill="#f5f7f9" fill-rule="evenodd" stroke="none"/>
    <path d="M-32.6 22.9 L-31.45 26.15 M-30.95 1.55 Q-31.7 1.65 -32.35 3.55 L-32.7 4.55 Q-35.6 13.15 -32.6 22.9" fill="none" stroke="#1b180f" stroke-linecap="round" stroke-linejoin="miter-clip" stroke-miterlimit="8.0" stroke-width="1.2000000000000002"/>
    <path d="M34.8 -4.4 Q13.6 -1.75 1.15 13.95 M-31.45 26.15 Q-28.45 18.1 -21.7 17.65" fill="none" stroke="#000000" stroke-linecap="round" stroke-linejoin="round" stroke-width="1.2000000000000002"/>
  </g>
</svg>
