<?xml version="1.0" encoding="UTF-8" standalone="no"?>
<svg xmlns:xlink="http://www.w3.org/1999/xlink" height="51.85px" width="69.15px" xmlns="http://www.w3.org/2000/svg">
  <g transform="matrix(1.0, 0.0, 0.0, 1.0, 31.45, 20.35)">
    <path d="M10.6 -17.9 Q13.0 -19.75 16.5 -20.35 30.3 -19.25 37.1 -3.05 32.95 4.9 25.5 9.65 18.0 14.4 6.05 13.1 10.75 3.85 18.2 1.6 25.65 -0.65 33.75 -4.2 21.05 -20.3 10.6 -17.9 M-27.65 1.45 Q-21.85 1.5 -17.15 24.5 -21.45 27.25 -26.1 30.9 L-29.3 22.8 Q-26.45 14.35 -22.25 13.5 -24.0 7.15 -29.05 3.45 -28.4 1.55 -27.65 1.45" fill="#dfc86b" fill-rule="evenodd" stroke="none"/>
    <path d="M6.05 13.1 Q3.8 -0.85 5.65 -9.65 6.9 -15.15 10.6 -17.9 21.05 -20.3 33.75 -4.2 25.65 -0.65 18.2 1.6 10.75 3.85 6.05 13.1 M-29.3 22.8 Q-32.3 13.05 -29.4 4.45 L-29.05 3.45 Q-24.0 7.15 -22.25 13.5 -26.45 14.35 -29.3 22.8" fill="#fae680" fill-rule="evenodd" stroke="none"/>
    <path d="M37.1 -3.05 Q32.95 4.9 25.5 9.65 18.0 14.4 6.05 13.1 M-26.1 30.9 L-29.3 22.8 Q-32.3 13.05 -29.4 4.45 L-29.05 3.45 Q-28.4 1.55 -27.65 1.45" fill="none" stroke="#1b180f" stroke-linecap="round" stroke-linejoin="miter-clip" stroke-miterlimit="8.0" stroke-width="1.2000000000000002"/>
  </g>
</svg>
