<?xml version="1.0" encoding="UTF-8" standalone="no"?>
<svg xmlns:xlink="http://www.w3.org/1999/xlink" height="136.3px" width="134.9px" xmlns="http://www.w3.org/2000/svg">
  <g transform="matrix(1.0, 0.0, 0.0, 1.0, 67.15, 68.15)">
    <path d="M53.6 -62.6 L55.05 -67.55 Q60.45 -60.9 62.05 -58.15 L64.55 -53.0 Q66.0 -49.3 66.6 -46.25 67.15 -43.35 67.15 -40.1 67.15 -30.3 64.0 -24.65 64.8 -20.75 64.6 -14.95 64.4 -8.7 63.1 -7.05 61.0 -1.25 56.95 3.6 53.15 8.15 45.35 14.75 L41.2 18.15 Q37.3 21.3 31.35 23.15 26.45 24.65 24.15 24.35 46.9 5.3 55.35 -5.5 62.5 -14.7 64.0 -24.65 62.8 -20.0 56.15 -11.0 48.95 -1.3 41.35 5.05 36.6 9.5 29.35 12.3 23.25 14.7 20.45 14.4 40.75 -7.25 46.9 -23.05 49.9 -30.7 51.4 -40.75 52.45 -47.65 53.6 -62.6 M-12.85 45.85 L-16.55 49.3 Q-20.15 52.3 -25.1 53.7 -29.15 54.85 -32.45 55.25 L-36.25 55.45 -28.35 52.65 -31.35 53.15 -35.75 53.2 -40.6 52.5 -42.75 52.65 -47.5 51.95 -48.8 51.65 Q-55.35 50.05 -59.95 46.9 -55.25 46.4 -51.45 44.75 -47.8 43.2 -45.55 40.95 -28.55 46.4 -12.85 45.85 M37.05 -38.5 Q41.9 -48.15 41.55 -49.85 42.75 -47.7 43.15 -44.95 L43.35 -39.6 Q43.65 -37.0 40.75 -31.0 37.35 -23.85 32.1 -18.7 30.1 -16.05 27.1 -14.4 24.5 -13.05 23.25 -13.3 26.8 -17.95 31.15 -25.5 36.3 -34.45 37.05 -38.5 M-30.2 50.05 L-32.95 51.05 -36.8 52.2 -40.6 52.5 -36.8 52.2 -32.95 51.05 -30.2 50.05" fill="#c8cacb" fill-rule="evenodd" stroke="none"/>
    <path d="M31.45 28.45 Q33.75 29.75 37.85 31.45 40.9 32.7 42.9 33.9 L42.95 33.95 43.1 34.0 43.15 34.05 43.35 34.15 43.55 34.25 43.6 34.25 43.65 34.3 43.9 34.4 44.45 34.55 44.95 34.0 Q49.75 34.7 51.35 35.95 50.6 37.0 46.35 39.9 L20.85 67.55 Q13.8 66.55 13.7 59.75 L13.65 59.75 Q14.55 55.75 13.35 51.0 L12.65 48.55 Q11.9 46.55 11.05 45.65 L4.5 43.3 5.7 43.0 Q15.9 40.65 24.4 35.05 29.1 31.05 31.45 28.45 M14.65 -60.05 Q19.4 -53.2 21.35 -48.55 23.15 -44.3 23.15 -40.25 L22.9 -38.0 22.3 -35.65 Q25.0 -33.15 28.55 -32.7 L32.8 -33.0 Q31.7 -31.5 28.05 -29.1 23.6 -26.2 19.5 -25.05 17.8 -25.35 17.05 -26.0 16.5 -26.45 16.5 -26.85 L16.8 -27.75 12.75 -25.7 Q19.75 -46.75 14.65 -60.05 M-4.0 -63.25 Q-1.25 -62.8 1.8 -61.2 4.3 -59.85 5.2 -58.85 8.0 -56.8 9.7 -51.65 11.1 -47.25 10.8 -44.4 L10.55 -43.75 Q11.4 -39.0 9.05 -35.85 7.7 -52.8 -4.0 -63.25 M43.65 34.3 L43.55 34.25 43.65 34.3" fill="#dfc86b" fill-rule="evenodd" stroke="none"/>
    <path d="M10.8 -44.4 Q11.75 -46.8 12.6 -51.4 13.7 -57.35 13.4 -61.85 L14.65 -60.05 Q19.75 -46.75 12.75 -25.7 L16.8 -27.75 16.5 -26.85 Q16.5 -26.45 17.05 -26.0 17.8 -25.35 19.5 -25.05 L4.05 -13.65 Q3.8 -15.65 2.25 -18.5 0.3 -21.95 -2.1 -23.3 -4.65 -24.65 -9.9 -26.25 -14.65 -27.7 -15.55 -27.7 -22.2 -27.7 -24.45 -19.75 -25.3 -15.6 -25.9 -8.75 L-26.35 -1.45 Q-26.35 1.75 -25.85 3.95 L-29.25 3.45 Q-32.75 3.45 -37.2 6.25 -39.75 7.8 -45.25 11.9 L-46.35 12.3 -46.4 12.3 -49.3 13.75 Q-49.5 11.1 -50.65 6.75 -52.1 1.1 -53.95 -1.75 -54.65 -3.55 -56.6 -5.35 -58.85 -7.5 -60.95 -7.7 -57.8 -16.2 -56.95 -17.6 L-59.45 -14.65 -61.8 -11.75 -61.05 -15.15 Q-58.9 -20.85 -56.05 -24.45 -51.4 -30.35 -41.15 -37.35 -43.95 -38.2 -46.85 -40.5 -49.35 -42.5 -49.9 -43.75 -44.2 -41.85 -38.15 -41.85 L-34.55 -42.3 -31.65 -42.9 -29.85 -43.35 -28.15 -43.35 -28.1 -42.05 -11.0 -44.75 Q-6.6 -44.15 -3.45 -40.85 -5.35 -42.95 -6.85 -47.45 -8.3 -51.6 -8.45 -54.1 L-1.4 -46.6 Q-2.05 -48.15 -3.0 -54.05 -4.0 -60.2 -4.0 -63.25 7.7 -52.8 9.05 -35.85 11.4 -39.0 10.55 -43.75 L10.8 -44.4 M0.2 -44.9 L-1.4 -46.6 0.2 -44.9 M-39.2 -36.7 L-41.15 -37.35 -39.2 -36.7" fill="#fae680" fill-rule="evenodd" stroke="none"/>
    <path d="M41.2 18.15 Q43.5 16.6 46.3 16.0 L48.8 15.65 49.85 15.95 50.15 16.35 Q44.7 20.65 38.65 23.7 33.65 26.2 31.45 28.45 29.1 31.05 24.4 35.05 15.9 40.65 5.7 43.0 L4.5 43.3 4.45 43.3 Q-4.0 45.5 -12.85 45.85 -28.55 46.4 -45.55 40.95 L-45.6 40.95 Q-54.8 39.7 -60.85 36.25 L-58.0 36.5 Q-54.6 36.5 -52.1 35.55 -50.45 34.95 -47.85 33.2 -46.9 30.65 -46.9 29.05 -46.9 26.2 -49.9 23.95 -52.6 21.95 -55.15 21.95 -56.95 21.95 -60.1 23.8 -58.85 22.55 -57.55 20.55 L-57.35 20.6 -56.9 20.5 -56.85 20.5 -49.05 14.5 -49.1 14.55 -46.05 12.95 -46.1 12.95 -34.4 8.2 -34.35 8.1 Q-34.35 7.95 -34.45 8.05 L-45.25 11.9 Q-39.75 7.8 -37.2 6.25 -32.75 3.45 -29.25 3.45 L-25.85 3.95 Q-17.7 6.15 -7.45 -1.45 2.8 -9.1 4.05 -13.65 L19.5 -25.05 Q23.6 -26.2 28.05 -29.1 31.7 -31.5 32.8 -33.0 L37.05 -38.5 Q36.3 -34.45 31.15 -25.5 26.8 -17.95 23.25 -13.3 24.5 -13.05 27.1 -14.4 30.1 -16.05 32.1 -18.7 37.35 -23.85 40.75 -31.0 43.65 -37.0 43.35 -39.6 45.25 -42.3 48.35 -48.9 52.0 -56.7 53.6 -62.6 52.45 -47.65 51.4 -40.75 49.9 -30.7 46.9 -23.05 40.75 -7.25 20.45 14.4 23.25 14.7 29.35 12.3 36.6 9.5 41.35 5.05 48.95 -1.3 56.15 -11.0 62.8 -20.0 64.0 -24.65 62.5 -14.7 55.35 -5.5 46.9 5.3 24.15 24.35 26.45 24.65 31.35 23.15 37.3 21.3 41.2 18.15" fill="#f5f7f9" fill-rule="evenodd" stroke="none"/>
    <path d="M-66.9 -6.85 L-67.15 -6.95 -67.15 -7.3 -66.9 -6.85" fill="#e87d53" fill-rule="evenodd" stroke="none"/>
    <path d="M-57.55 20.55 L-57.7 20.4 Q-58.05 19.9 -57.6 19.6 L-57.6 19.55 -49.5 13.85 -49.5 13.8 -49.45 13.8 -49.3 13.75 -46.4 12.3 -46.35 12.3 -45.25 11.9 -34.45 8.05 Q-34.35 7.95 -34.35 8.1 L-34.4 8.2 -46.1 12.95 -46.05 12.95 -49.1 14.55 -49.05 14.5 -56.85 20.5 -56.9 20.5 -57.35 20.6 -57.55 20.55" fill="#1b180f" fill-rule="evenodd" stroke="none"/>
    <path d="M-60.85 36.25 L-65.2 34.1 Q-65.45 32.95 -64.15 29.95 -62.6 26.5 -60.1 23.8 -56.95 21.95 -55.15 21.95 -52.6 21.95 -49.9 23.95 -46.9 26.2 -46.9 29.05 -46.9 30.65 -47.85 33.2 -50.45 34.95 -52.1 35.55 -54.6 36.5 -58.0 36.5 L-60.85 36.25" fill="url(#gradient0)" fill-rule="evenodd" stroke="none"/>
    <path d="M53.6 -62.6 L55.05 -67.55 Q60.45 -60.9 62.05 -58.15 L64.55 -53.0 Q66.0 -49.3 66.6 -46.25 67.15 -43.35 67.15 -40.1 67.15 -30.3 64.0 -24.65 64.8 -20.75 64.6 -14.95 64.4 -8.7 63.1 -7.05 M50.15 16.35 Q44.7 20.65 38.65 23.7 33.65 26.2 31.45 28.45 33.75 29.75 37.85 31.45 40.9 32.7 42.9 33.9 L42.95 33.95 M43.1 34.0 L43.15 34.05 43.35 34.15 43.55 34.25 43.6 34.25 43.65 34.3 43.9 34.4 M20.85 67.55 Q13.8 66.55 13.7 59.75 M13.65 59.75 Q14.55 55.75 13.35 51.0 L12.65 48.55 Q11.9 46.55 11.05 45.65 L4.5 43.3 4.45 43.3 M-65.2 34.1 Q-65.45 32.95 -64.15 29.95 -62.6 26.5 -60.1 23.8 -56.95 21.95 -55.15 21.95 -52.6 21.95 -49.9 23.95 -46.9 26.2 -46.9 29.05 -46.9 30.65 -47.85 33.2 M10.8 -44.4 Q11.75 -46.8 12.6 -51.4 13.7 -57.35 13.4 -61.85 L14.65 -60.05 Q19.4 -53.2 21.35 -48.55 23.15 -44.3 23.15 -40.25 L22.9 -38.0 22.3 -35.65 Q25.0 -33.15 28.55 -32.7 L32.8 -33.0 37.05 -38.5 Q41.9 -48.15 41.55 -49.85 42.75 -47.7 43.15 -44.95 L43.35 -39.6 Q45.25 -42.3 48.35 -48.9 52.0 -56.7 53.6 -62.6 M10.8 -44.4 Q11.1 -47.25 9.7 -51.65 8.0 -56.8 5.2 -58.85 4.3 -59.85 1.8 -61.2 -1.25 -62.8 -4.0 -63.25 -4.0 -60.2 -3.0 -54.05 -2.05 -48.15 -1.4 -46.6 L0.2 -44.9 M10.55 -43.75 L10.8 -44.4 M-2.1 -23.3 Q-4.65 -24.65 -9.9 -26.25 -14.65 -27.7 -15.55 -27.7 -22.2 -27.7 -24.45 -19.75 M43.55 34.25 L43.65 34.3 M-1.4 -46.6 L-8.45 -54.1 Q-8.3 -51.6 -6.85 -47.45 -5.35 -42.95 -3.45 -40.85 -6.6 -44.15 -11.0 -44.75" fill="none" stroke="#1b180f" stroke-linecap="round" stroke-linejoin="round" stroke-width="1.2000000000000002"/>
    <path d="M-12.85 45.85 L-16.55 49.3 Q-20.15 52.3 -25.1 53.7 -29.15 54.85 -32.45 55.25 L-36.25 55.45 -28.35 52.65 -31.35 53.15 -35.75 53.2 -40.6 52.5 -42.75 52.65 -47.5 51.95 -48.8 51.65 Q-55.35 50.05 -59.95 46.9 -55.25 46.4 -51.45 44.75 -47.8 43.2 -45.55 40.95 M-45.6 40.95 Q-54.8 39.7 -60.85 36.25 L-65.2 34.1 M-60.1 23.8 Q-58.85 22.55 -57.55 20.55 M-57.6 19.6 Q-60.35 16.1 -61.9 10.3 -63.25 5.2 -62.9 2.55 M4.05 -13.65 Q3.8 -15.65 2.25 -18.5 0.3 -21.95 -2.1 -23.3 M4.5 43.3 L5.7 43.0 Q15.9 40.65 24.4 35.05 29.1 31.05 31.45 28.45 M-28.15 -43.35 L-29.85 -43.35 -31.65 -42.9 -34.55 -42.3 -38.15 -41.85 Q-44.2 -41.85 -49.9 -43.75 -49.35 -42.5 -46.85 -40.5 -43.95 -38.2 -41.15 -37.35 L-39.2 -36.7 M-41.15 -37.35 Q-51.4 -30.35 -56.05 -24.45 -58.9 -20.85 -61.05 -15.15 L-61.8 -11.75 -59.45 -14.65 -56.95 -17.6 Q-57.8 -16.2 -60.95 -7.7 M-47.85 33.2 Q-50.45 34.95 -52.1 35.55 -54.6 36.5 -58.0 36.5 L-60.85 36.25 M-40.6 52.5 L-36.8 52.2 -32.95 51.05 -30.2 50.05" fill="none" stroke="#1b180f" stroke-linecap="round" stroke-linejoin="miter-clip" stroke-miterlimit="3.0" stroke-width="1.2000000000000002"/>
    <path d="M63.1 -7.05 Q61.0 -1.25 56.95 3.6 53.15 8.15 45.35 14.75 L41.2 18.15 Q43.5 16.6 46.3 16.0 L48.8 15.65 49.85 15.95 50.15 16.35 M4.05 -13.65 Q2.8 -9.1 -7.45 -1.45 M-60.95 -7.7 Q-58.85 -7.5 -56.6 -5.35 -54.65 -3.55 -53.95 -1.75" fill="none" stroke="#1b180f" stroke-linecap="round" stroke-linejoin="miter-clip" stroke-miterlimit="8.0" stroke-width="1.2000000000000002"/>
    <path d="M4.45 43.3 Q-4.0 45.5 -12.85 45.85 -28.55 46.4 -45.55 40.95 L-45.6 40.95" fill="none" stroke="#000000" stroke-linecap="round" stroke-linejoin="round" stroke-width="1.2000000000000002"/>
    <path d="M63.4 -24.8 Q63.6 -25.4 64.15 -25.2 64.7 -25.0 64.55 -24.45 L64.45 -24.05 64.35 -23.85 63.25 -21.15 59.25 -14.55 51.75 -5.0 44.9 2.05 41.4 5.1 41.25 5.1 41.25 4.95 43.85 2.6 44.05 2.45 50.5 -4.35 58.0 -14.4 58.45 -15.05 59.95 -17.4 60.1 -17.7 61.15 -19.5 62.25 -21.6 63.25 -24.15 63.4 -24.8 M42.75 -39.55 L42.7 -39.55 Q42.7 -40.1 43.3 -40.2 43.9 -40.2 43.9 -39.6 L43.95 -39.35 43.95 -38.75 43.9 -38.5 43.9 -38.35 43.85 -38.2 43.85 -37.9 43.75 -37.6 43.7 -37.25 42.95 -34.85 42.75 -34.4 42.7 -34.2 41.15 -30.85 38.5 -26.15 37.1 -24.15 36.9 -23.95 33.55 -19.9 33.3 -19.7 32.2 -18.55 31.95 -18.55 31.95 -18.8 33.5 -20.4 36.6 -24.45 39.55 -29.45 40.35 -31.2 40.5 -31.45 42.0 -35.2 42.7 -38.1 42.7 -38.2 42.75 -38.35 42.75 -39.55 M32.3 -33.35 L33.15 -33.45 Q33.65 -33.05 33.25 -32.6 L33.15 -32.45 32.2 -31.5 28.4 -28.8 28.2 -28.7 28.05 -28.65 27.45 -28.25 27.1 -28.1 26.8 -27.9 23.6 -26.3 21.35 -25.45 20.15 -25.1 19.9 -25.05 19.65 -24.95 19.5 -24.95 Q19.4 -24.85 19.4 -25.0 L19.45 -25.1 19.6 -25.2 19.8 -25.25 21.75 -25.95 22.0 -26.1 22.25 -26.2 22.5 -26.35 22.8 -26.45 26.45 -28.5 27.8 -29.4 30.7 -31.65 32.1 -33.05 32.3 -33.35 M21.75 -35.95 L21.8 -36.0 22.2 -36.25 22.65 -36.15 Q23.1 -35.75 22.8 -35.3 L19.6 -30.8 19.5 -30.8 Q19.4 -30.8 19.45 -30.95 L21.75 -35.95" fill="#1b180f" fill-rule="evenodd" stroke="none"/>
    <path d="M-24.65 42.0 L-24.8 41.9 Q-24.95 41.75 -24.7 41.75 L-17.0 39.25 -14.85 38.5 -12.6 37.7 -6.55 34.85 -5.05 33.8 -4.0 32.75 -3.65 32.3 -3.4 31.85 -3.2 31.25 -3.2 31.05 -3.15 31.0 -3.15 30.95 Q-3.15 30.45 -2.55 30.45 -1.9 30.45 -2.0 31.05 L-2.0 31.4 -2.2 32.35 -2.45 32.95 -2.85 33.6 -4.1 34.95 -6.2 36.45 -9.85 38.2 -16.65 40.4 -24.35 42.0 -24.65 42.0" fill="#000000" fill-rule="evenodd" stroke="none"/>
  </g>
  <defs>
    <radialGradient cx="0" cy="0" gradientTransform="matrix(0.0114, 0.0, 0.0, 0.0128, -56.05, 29.25)" gradientUnits="userSpaceOnUse" id="gradient0" r="819.2" spreadMethod="pad">
      <stop offset="0.5450980392156862" stop-color="#5e5856"/>
      <stop offset="1.0" stop-color="#918784"/>
    </radialGradient>
  </defs>
</svg>
