<?xml version="1.0" encoding="UTF-8" standalone="no"?>
<svg xmlns:xlink="http://www.w3.org/1999/xlink" height="88.95px" width="102.1px" xmlns="http://www.w3.org/2000/svg">
  <g transform="matrix(1.0, 0.0, 0.0, 1.0, 51.2, 44.4)">
    <path d="M7.15 -27.7 Q13.3 -23.8 14.95 -13.75 16.15 -19.75 14.5 -21.9 11.4 -26.0 7.15 -27.7 M-10.5 -43.7 Q-8.85 -43.95 -7.15 -43.7 -4.35 -43.35 -1.05 -42.35 8.65 -39.5 20.4 -39.9 L26.9 -40.3 Q47.2 2.2 48.4 9.3 30.55 20.55 16.7 22.75 9.45 22.85 8.45 17.85 L-16.65 15.5 -28.35 6.65 Q-40.9 13.45 -48.5 14.4 -45.2 12.45 -45.35 11.0 -46.05 -2.7 -38.5 -6.9 L-31.65 -8.35 Q-39.7 -8.45 -46.15 -12.85 -40.1 -13.35 -39.55 -15.4 -38.35 -22.05 -37.6 -24.0 -36.9 -26.0 -35.35 -26.8 -20.65 -32.35 -16.7 -35.35 -12.75 -38.4 -10.65 -39.6 -8.55 -40.8 -10.5 -43.7 M-48.4 15.55 L-50.6 15.55 -48.5 14.4 -48.4 15.55" fill="#fae680" fill-rule="evenodd" stroke="none"/>
    <path d="M7.15 -27.7 Q11.4 -26.0 14.5 -21.9 16.15 -19.75 14.95 -13.75 13.3 -23.8 7.15 -27.7 M-46.15 -12.85 Q-39.7 -8.45 -31.65 -8.35 L-38.5 -6.9 Q-44.7 -7.65 -46.15 -12.85 M-48.5 14.4 Q-40.9 13.45 -28.35 6.65 L-16.65 15.5 8.45 17.85 Q9.45 22.85 16.7 22.75 30.55 20.55 48.4 9.3 51.45 14.85 50.3 26.35 L46.2 28.55 Q9.95 45.1 -19.75 36.4 -19.05 41.2 -25.6 43.95 -24.55 40.0 -25.9 36.3 -25.95 30.85 -26.15 26.65 -26.75 18.2 -28.45 14.7 -29.05 13.4 -29.8 12.8 L-29.9 12.7 Q-31.0 11.8 -32.3 12.25 -38.25 15.35 -48.4 15.55 L-48.5 14.4" fill="#dfc86b" fill-rule="evenodd" stroke="none"/>
    <path d="M46.2 28.55 Q31.85 36.1 19.8 39.45 -4.15 46.1 -19.75 36.4 9.95 45.1 46.2 28.55" fill="#bba45b" fill-rule="evenodd" stroke="none"/>
    <path d="M26.9 -40.3 L20.4 -39.9 Q8.65 -39.5 -1.05 -42.35 -4.35 -43.35 -7.15 -43.7 -8.85 -43.95 -10.5 -43.7 M-39.55 -15.4 Q-40.1 -13.35 -46.15 -12.85 -44.7 -7.65 -38.5 -6.9 -46.05 -2.7 -45.35 11.0 M50.3 26.35 L46.2 28.55 Q31.85 36.1 19.8 39.45 -4.15 46.1 -19.75 36.4 M-25.9 36.3 Q-25.95 30.85 -26.15 26.65 -26.75 18.2 -28.45 14.7 -29.05 13.4 -29.8 12.8 L-29.9 12.7 Q-31.0 11.8 -32.3 12.25" fill="none" stroke="#1b180f" stroke-linecap="round" stroke-linejoin="round" stroke-width="1.2000000000000002"/>
    <path d="M-45.35 11.0 Q-45.2 12.45 -48.5 14.4 L-50.6 15.55 -48.4 15.55 Q-38.25 15.35 -32.3 12.25 M-19.75 36.4 Q-19.05 41.2 -25.6 43.95 -24.55 40.0 -25.9 36.3" fill="none" stroke="#1b180f" stroke-linecap="round" stroke-linejoin="miter-clip" stroke-miterlimit="3.0" stroke-width="1.2000000000000002"/>
    <path d="M-37.65 -24.0 L-37.55 -24.05 -37.5 -23.95 -37.5 -23.85 -37.6 -23.6 -38.1 -21.25 -38.95 -15.25 -38.95 -15.2 Q-39.05 -14.65 -39.65 -14.75 -40.25 -14.9 -40.1 -15.5 L-40.05 -15.85 -37.95 -23.25 -37.9 -23.45 -37.65 -24.0 M-10.5 -44.25 L-10.35 -44.3 Q-9.7 -44.2 -9.8 -43.6 L-10.0 -43.2 -10.45 -43.1 -12.3 -43.05 -13.5 -42.85 -13.65 -42.85 Q-13.75 -42.75 -13.75 -42.9 L-13.7 -43.0 -13.6 -43.1 -12.5 -43.65 -11.6 -44.0 -11.3 -44.05 -11.05 -44.15 -10.65 -44.25 -10.5 -44.25" fill="#1b180f" fill-rule="evenodd" stroke="none"/>
  </g>
</svg>
