<?xml version="1.0" encoding="UTF-8" standalone="no"?>
<svg xmlns:xlink="http://www.w3.org/1999/xlink" height="128.65px" width="148.85px" xmlns="http://www.w3.org/2000/svg">
  <g transform="matrix(1.0, 0.0, 0.0, 1.0, 52.9, 64.35)">
    <path d="M67.2 -56.1 Q71.7 -59.4 75.95 -63.75 76.95 -51.9 66.8 -42.8 L60.35 -41.9 Q69.75 -50.0 67.2 -56.1 M95.3 -50.65 Q96.4 -23.75 76.95 -11.45 L75.4 -16.3 75.35 -16.35 Q87.6 -17.35 95.3 -50.65 M59.8 30.45 Q53.75 39.5 43.5 44.5 55.95 32.85 53.6 27.8 L54.5 28.05 59.95 29.6 59.8 30.45" fill="#bba45b" fill-rule="evenodd" stroke="none"/>
    <path d="M67.2 -56.1 Q69.75 -50.0 60.35 -41.9 L66.8 -42.8 Q84.45 -42.5 95.3 -50.7 L95.3 -50.65 Q87.6 -17.35 75.35 -16.35 L75.4 -16.3 76.95 -11.45 Q73.55 -6.45 70.3 2.1 L70.15 2.4 Q69.85 5.1 68.7 8.05 67.55 10.5 67.5 13.55 L67.55 14.8 67.75 20.0 Q67.95 29.95 59.95 29.6 L59.95 30.5 59.8 30.45 59.95 29.6 54.5 28.05 Q61.75 28.95 62.1 23.4 L61.85 22.9 61.35 22.4 61.15 21.85 Q63.05 22.1 63.65 19.1 L64.95 11.1 65.0 9.95 65.15 8.7 Q66.05 6.9 66.55 2.6 68.55 -0.9 65.65 -2.95 63.0 -5.0 61.35 -5.2 L61.45 -5.85 Q61.75 -6.85 61.0 -6.5 L60.15 -5.1 60.1 -5.0 60.05 -4.9 60.0 -4.9 60.0 -4.85 59.4 -4.35 Q58.35 -3.65 57.3 -3.8 L57.05 -3.85 58.15 -4.8 58.2 -4.9 58.95 -6.35 61.3 -8.55 57.15 -12.35 62.45 -12.15 Q59.45 -14.0 56.6 -19.15 52.2 -21.6 47.7 -19.9 L48.2 -20.2 48.9 -20.75 49.35 -21.15 50.9 -22.15 Q53.1 -24.25 52.25 -26.05 L50.75 -29.45 Q50.05 -31.0 48.4 -31.15 L47.65 -30.95 47.45 -31.05 47.25 -31.3 47.2 -31.35 47.0 -31.35 46.95 -31.4 46.7 -31.35 46.75 -31.25 46.8 -31.2 46.8 -31.0 46.9 -30.95 46.9 -30.9 47.0 -30.85 47.95 -29.1 Q46.55 -29.1 45.95 -26.85 L45.95 -26.65 Q46.0 -17.45 43.3 -6.95 33.35 2.25 19.65 2.4 L34.8 5.9 Q38.65 16.0 36.1 22.75 45.65 21.5 53.6 27.8 55.95 32.85 43.5 44.5 38.7 46.85 33.05 48.3 -4.15 50.45 -28.25 63.35 L-28.9 63.7 Q-37.65 64.45 -45.45 54.65 -17.9 42.25 -0.9 27.8 L0.25 26.8 16.45 -8.85 Q24.2 -35.65 32.0 -47.3 35.75 -47.1 39.35 -46.1 L41.1 -46.15 Q55.05 -47.2 67.2 -56.1 M68.25 -8.55 Q66.4 -9.9 64.1 -9.25 L68.75 -5.0 Q71.85 -2.35 70.3 2.1 71.85 -2.35 68.75 -5.0 L64.1 -9.25 Q66.4 -9.9 68.25 -8.55" fill="#dfc86b" fill-rule="evenodd" stroke="none"/>
    <path d="M-45.45 54.65 Q-52.15 44.25 -52.3 -2.95 -28.05 -15.15 -7.5 -31.3 4.0 -40.35 14.55 -44.3 L14.65 -44.3 Q23.7 -47.75 32.0 -47.3 24.2 -35.65 16.45 -8.85 L0.25 26.8 -0.9 27.8 Q-17.9 42.25 -45.45 54.65 M47.95 -29.1 L48.7 -27.75 49.9 -24.15 49.9 -23.95 50.0 -23.75 50.0 -23.4 50.2 -23.25 50.45 -23.5 50.5 -23.65 50.5 -23.75 50.75 -25.15 50.55 -26.7 50.05 -28.3 48.7 -30.05 47.7 -30.95 47.65 -30.95 48.4 -31.15 Q50.05 -31.0 50.75 -29.45 L52.25 -26.05 Q53.1 -24.25 50.9 -22.15 L49.35 -21.15 48.9 -20.75 48.2 -20.2 47.7 -19.9 Q52.2 -21.6 56.6 -19.15 59.45 -14.0 62.45 -12.15 L57.15 -12.35 61.3 -8.55 58.95 -6.35 58.2 -4.9 58.15 -4.8 57.05 -3.85 54.15 -4.0 Q51.9 -5.2 51.1 -4.9 L51.05 -4.9 Q50.5 -4.75 51.35 -3.75 L53.6 -1.6 Q57.1 1.4 57.8 5.2 L58.85 12.7 Q59.5 18.05 60.25 20.4 L60.95 21.8 61.15 21.85 61.35 22.4 61.85 22.9 62.1 23.4 Q61.75 28.95 54.5 28.05 L53.6 27.8 Q45.65 21.5 36.1 22.75 38.65 16.0 34.8 5.9 L19.65 2.4 Q33.35 2.25 43.3 -6.95 46.0 -17.45 45.95 -26.65 L45.95 -26.85 Q46.55 -29.1 47.95 -29.1 M61.35 -5.2 Q63.0 -5.0 65.65 -2.95 68.55 -0.9 66.55 2.6 66.05 6.9 65.15 8.7 65.2 6.25 64.0 3.4 62.45 -0.35 61.75 -1.15 61.25 -2.45 61.25 -3.4 L61.35 -5.2" fill="#fae680" fill-rule="evenodd" stroke="none"/>
    <path d="M47.95 -29.1 L47.0 -30.85 46.9 -30.9 46.9 -30.95 46.8 -31.0 46.8 -31.2 46.75 -31.25 46.7 -31.35 46.95 -31.4 47.0 -31.35 47.2 -31.35 47.25 -31.3 47.45 -31.05 47.65 -30.95 47.7 -30.95 48.7 -30.05 50.05 -28.3 50.55 -26.7 50.75 -25.15 50.5 -23.75 50.5 -23.65 50.45 -23.5 50.2 -23.25 50.0 -23.4 50.0 -23.75 49.9 -23.95 49.9 -24.15 48.7 -27.75 47.95 -29.1" fill="#1b180f" fill-rule="evenodd" stroke="none"/>
    <path d="M60.0 -4.85 L60.0 -4.9 60.05 -4.9 60.1 -5.0 60.15 -5.1 61.0 -6.5 Q61.75 -6.85 61.45 -5.85 L61.25 -5.25 61.2 -5.2 59.5 -1.1 Q58.95 0.0 57.15 -0.9 L54.65 -2.65 54.4 -2.8 54.2 -2.95 Q53.75 -3.2 53.4 -3.45 L51.1 -4.9 Q51.9 -5.2 54.15 -4.0 L54.85 -3.45 Q56.05 -2.75 58.2 -2.1 L59.3 -3.95 59.4 -4.05 60.0 -4.85" fill="url(#gradient0)" fill-rule="evenodd" stroke="none"/>
    <path d="M57.05 -3.85 L57.3 -3.8 Q58.35 -3.65 59.4 -4.35 L60.0 -4.85 59.4 -4.05 59.3 -3.95 58.2 -2.1 Q56.05 -2.75 54.85 -3.45 L54.15 -4.0 57.05 -3.85 M61.45 -5.85 L61.35 -5.2 61.25 -3.4 Q61.25 -2.45 61.75 -1.15 L60.2 -1.0 59.5 -1.1 61.2 -5.2 61.25 -5.25 61.45 -5.85" fill="#a8736e" fill-rule="evenodd" stroke="none"/>
    <path d="M65.15 8.7 L65.0 9.95 64.95 11.1 63.65 19.1 Q63.05 22.1 61.15 21.85 L60.95 21.8 60.25 20.4 Q59.5 18.05 58.85 12.7 L57.8 5.2 Q57.1 1.4 53.6 -1.6 L51.35 -3.75 Q50.5 -4.75 51.05 -4.9 L51.1 -4.9 53.4 -3.45 Q53.75 -3.2 54.2 -2.95 L54.4 -2.8 54.65 -2.65 57.15 -0.9 58.45 0.15 59.35 2.7 59.75 6.7 60.2 13.4 Q60.8 20.05 61.4 20.4 L62.55 17.25 63.2 14.55 Q63.55 10.2 62.55 5.7 61.55 1.45 60.3 0.3 L59.5 -1.1 60.2 -1.0 61.75 -1.15 Q62.45 -0.35 64.0 3.4 65.2 6.25 65.15 8.7" fill="#cd8c87" fill-rule="evenodd" stroke="none"/>
    <path d="M57.15 -0.9 Q58.95 0.0 59.5 -1.1 L60.3 0.3 Q61.55 1.45 62.55 5.7 63.55 10.2 63.2 14.55 L62.55 17.25 61.4 20.4 Q60.8 20.05 60.2 13.4 L59.75 6.7 59.35 2.7 58.45 0.15 57.15 -0.9" fill="url(#gradient1)" fill-rule="evenodd" stroke="none"/>
    <path d="M66.8 -42.8 Q76.95 -51.9 75.95 -63.75 71.7 -59.4 67.2 -56.1 55.05 -47.2 41.1 -46.15 L39.35 -46.1 Q35.75 -47.1 32.0 -47.3 23.7 -47.75 14.65 -44.3 L14.55 -44.3 Q4.0 -40.35 -7.5 -31.3 -28.05 -15.15 -52.3 -2.95 M66.8 -42.8 Q84.45 -42.5 95.3 -50.7 L95.3 -50.65 Q96.4 -23.75 76.95 -11.45 L75.4 -16.3 M59.8 30.45 Q53.75 39.5 43.5 44.5 38.7 46.85 33.05 48.3 -4.15 50.45 -28.25 63.35 L-28.9 63.7" fill="none" stroke="#1b180f" stroke-linecap="round" stroke-linejoin="round" stroke-width="1.2000000000000002"/>
    <path d="M70.3 2.1 L70.15 2.4 Q69.85 5.1 68.7 8.05 67.55 10.5 67.5 13.55 L67.55 14.8 67.75 20.0 Q67.95 29.95 59.95 29.6 L59.95 30.5 M70.3 2.1 Q71.85 -2.35 68.75 -5.0 L64.1 -9.25 Q66.4 -9.9 68.25 -8.55" fill="none" stroke="#1b180f" stroke-linecap="round" stroke-linejoin="miter-clip" stroke-miterlimit="3.0" stroke-width="1.2000000000000002"/>
    <path d="M53.55 27.85 L53.5 27.75 Q53.5 27.6 53.6 27.7 L60.1 29.0 60.2 29.0 Q60.75 29.25 60.55 29.8 60.3 30.35 59.75 30.15 L53.55 27.85 M68.8 -8.6 L68.85 -8.55 Q68.85 -7.9 68.25 -7.9 67.65 -7.9 67.65 -8.45 L67.6 -8.9 67.6 -9.25 67.55 -9.35 67.55 -9.65 67.5 -9.8 67.5 -9.95 67.45 -10.3 67.35 -10.65 67.3 -11.05 67.05 -11.85 66.95 -12.05 66.9 -12.25 66.7 -12.65 66.7 -12.7 66.65 -12.75 66.3 -13.45 65.8 -14.2 65.5 -14.5 65.45 -14.6 64.7 -15.35 64.55 -15.45 64.4 -15.6 64.15 -15.8 63.7 -16.1 63.5 -16.2 63.15 -16.45 63.1 -16.45 63.1 -16.55 63.2 -16.6 63.6 -16.45 65.25 -15.45 65.55 -15.15 65.75 -15.0 66.55 -14.2 66.85 -13.8 66.95 -13.6 67.05 -13.5 67.1 -13.4 67.25 -13.2 67.3 -13.1 67.35 -13.05 67.35 -13.0 67.6 -12.6 68.0 -11.75 68.6 -9.8 68.65 -9.5 68.7 -9.35 68.7 -9.25 68.8 -8.6 M65.95 -27.25 L65.95 -27.35 Q65.95 -27.55 66.1 -27.4 L69.85 -24.75 70.35 -24.3 70.55 -24.15 70.85 -23.8 71.05 -23.65 71.1 -23.55 71.2 -23.5 73.3 -21.0 73.8 -20.2 74.1 -19.85 74.55 -19.05 74.8 -18.65 74.9 -18.45 75.05 -18.25 75.85 -16.65 75.75 -16.75 75.9 -16.55 75.85 -16.65 Q76.25 -16.25 75.8 -15.8 L74.95 -15.85 74.8 -16.0 74.75 -16.1 74.45 -16.9 73.05 -19.75 72.8 -20.1 72.6 -20.5 71.85 -21.65 70.7 -23.05 70.65 -23.15 70.55 -23.2 70.4 -23.4 68.85 -25.0 65.95 -27.25" fill="#1b180f" fill-rule="evenodd" stroke="none"/>
  </g>
  <defs>
    <linearGradient gradientTransform="matrix(-0.0013, 0.0028, -0.0035, -0.0016, 57.05, -2.1)" gradientUnits="userSpaceOnUse" id="gradient0" spreadMethod="pad" x1="-819.2" x2="819.2">
      <stop offset="0.5333333333333333" stop-color="#8c3c3a"/>
      <stop offset="1.0" stop-color="#1b180f"/>
    </linearGradient>
    <radialGradient cx="0" cy="0" gradientTransform="matrix(0.004, -7.0E-4, 0.0032, 0.0177, 58.9, 4.35)" gradientUnits="userSpaceOnUse" id="gradient1" r="819.2" spreadMethod="pad">
      <stop offset="0.0" stop-color="#1b180f"/>
      <stop offset="0.6549019607843137" stop-color="#be5250"/>
      <stop offset="1.0" stop-color="#cd8c87"/>
    </radialGradient>
  </defs>
</svg>
