<?xml version="1.0" encoding="UTF-8" standalone="no"?>
<svg xmlns:xlink="http://www.w3.org/1999/xlink" height="18.9px" width="4.35px" xmlns="http://www.w3.org/2000/svg">
  <g transform="matrix(1.0, 0.0, 0.0, 1.0, -60.05, -9.85)">
    <path d="M64.25 19.1 L63.85 20.25 62.9 20.6 62.2 20.05 62.0 18.4 61.65 17.45 61.1 18.8 60.85 19.0 Q60.05 18.2 60.05 16.75 L60.3 13.25 60.7 9.95 60.9 9.85 62.35 12.05 Q63.5 14.1 63.8 15.5 L62.55 13.35 62.1 13.1 61.85 13.35 61.75 14.05 62.2 15.55 62.55 17.1 62.4 18.7 Q62.25 19.65 62.4 20.1 L62.9 20.05 Q63.45 19.4 64.25 19.1 M61.8 28.75 L60.75 28.55 Q60.55 28.75 60.55 27.75 60.55 26.85 61.45 24.95 62.4 23.0 63.1 22.5 L64.35 24.0 63.25 26.3 Q63.1 26.1 62.8 26.0 L62.5 25.9 61.25 27.75 61.8 28.75" fill="#ffffff" fill-opacity="0.69803923" fill-rule="evenodd" stroke="none"/>
    <path d="M63.8 15.5 Q64.65 18.7 64.25 19.1 63.45 19.4 62.9 20.05 L62.4 20.1 Q62.25 19.65 62.4 18.7 L62.55 17.1 62.2 15.55 61.75 14.05 61.85 13.35 62.1 13.1 62.55 13.35 63.8 15.5 M63.25 26.3 Q63.25 27.3 62.85 28.05 62.4 28.75 61.8 28.75 L61.25 27.75 62.5 25.9 62.8 26.0 Q63.1 26.1 63.25 26.3" fill="#ffffff" fill-rule="evenodd" stroke="none"/>
  </g>
</svg>
