<?xml version="1.0" encoding="UTF-8" standalone="no"?>
<svg xmlns:xlink="http://www.w3.org/1999/xlink" height="75.15px" width="19.25px" xmlns="http://www.w3.org/2000/svg">
  <g transform="matrix(1.0, 0.0, 0.0, 1.0, 26.95, -26.7)">
    <path d="M-7.7 26.7 L-8.1 28.05 -7.95 28.15 Q-7.7 33.65 -10.4 38.05 -11.0 39.1 -11.95 39.75 L-12.0 39.9 Q-13.55 46.2 -14.35 53.1 -15.4 58.65 -16.8 64.4 -17.55 67.95 -18.55 71.15 L-18.7 73.1 Q-19.35 81.5 -21.6 90.45 L-23.2 95.1 Q-24.55 98.95 -26.95 101.85 -27.0 96.15 -26.15 90.65 -25.15 82.2 -22.75 73.55 L-22.1 71.4 -20.45 67.65 Q-20.45 61.9 -18.95 55.15 L-18.5 53.5 -17.2 48.0 Q-17.5 44.25 -16.6 39.9 L-16.15 38.5 Q-14.95 35.6 -13.2 33.1 -14.6 31.15 -12.9 28.7 -12.0 27.35 -10.55 27.1 L-8.8 27.6 -8.4 27.85 -7.7 26.7" fill="#ffffff" fill-opacity="0.69803923" fill-rule="evenodd" stroke="none"/>
  </g>
</svg>
