<?xml version="1.0" encoding="UTF-8" standalone="no"?>
<svg xmlns:xlink="http://www.w3.org/1999/xlink" height="32.0px" width="7.1px" xmlns="http://www.w3.org/2000/svg">
  <g transform="matrix(1.0, 0.0, 0.0, 1.0, -59.1, 1.85)">
    <path d="M63.9 1.9 L64.5 2.5 64.65 3.35 Q64.65 4.0 64.4 4.05 L63.7 4.0 63.0 3.2 Q62.45 2.55 62.45 2.0 L62.55 1.3 62.75 1.0 63.9 1.9 M62.1 9.35 L64.0 16.0 65.1 18.05 Q66.2 20.25 66.2 21.45 66.2 22.7 65.4 23.0 L65.3 22.85 64.75 20.65 64.3 18.35 Q64.3 17.45 63.9 16.9 L63.35 16.5 Q62.15 16.5 61.7 14.5 L61.4 11.55 61.05 9.95 61.45 9.05 61.65 9.1 62.1 9.35 M65.2 24.4 Q65.5 24.75 65.35 25.85 L64.9 27.45 64.45 27.25 Q64.05 26.9 64.05 26.25 L64.3 24.95 Q64.65 24.0 65.2 24.4 M64.5 28.35 L64.1 29.3 64.05 29.35 63.85 29.35 63.7 29.35 63.7 29.4 63.55 29.4 63.5 29.45 63.4 29.45 63.25 29.5 63.2 29.5 63.05 29.55 62.95 29.6 62.8 29.65 62.65 29.75 62.55 29.8 62.4 29.85 62.3 29.9 62.2 29.95 62.0 29.95 61.8 30.0 61.6 30.05 61.55 30.05 61.55 29.9 63.1 28.0 64.0 27.5 64.25 27.55 64.35 27.5 64.45 27.6 64.5 28.15 64.5 28.35" fill="#ffffff" fill-rule="evenodd" stroke="none"/>
    <path d="M65.3 22.85 L65.25 23.0 Q64.85 24.2 64.3 24.3 63.7 23.6 63.95 22.55 L64.35 21.1 Q64.35 19.55 61.6 15.1 L61.15 16.3 60.75 16.35 60.45 16.15 Q60.3 16.0 60.3 15.35 L60.55 13.3 61.4 11.55 61.7 14.5 Q62.15 16.5 63.35 16.5 L63.9 16.9 Q64.3 17.45 64.3 18.35 L64.75 20.65 65.3 22.85 M64.65 28.05 L64.5 28.35 64.5 28.15 64.45 27.6 64.65 27.8 64.65 28.05 M61.55 30.05 L61.45 30.1 61.3 30.15 61.2 29.8 63.1 28.0 61.55 29.9 61.55 30.05" fill="#ffffff" fill-opacity="0.69803923" fill-rule="evenodd" stroke="none"/>
    <path d="M63.7 4.0 L63.35 4.05 Q62.4 2.65 62.1 0.85 L61.95 -0.8 Q61.95 -1.75 62.4 -1.85 63.3 -1.4 63.55 -0.1 L63.9 1.9 62.75 1.0 62.55 1.3 62.45 2.0 Q62.45 2.55 63.0 3.2 L63.7 4.0 M61.3 30.15 Q60.5 30.15 59.7 29.55 L59.4 28.85 62.35 27.7 Q63.45 27.15 63.45 26.0 L61.45 16.45 60.9 17.0 59.85 17.25 Q59.2 17.25 59.15 17.05 L59.1 16.2 60.15 11.4 60.85 7.6 61.25 7.2 Q62.05 7.55 62.1 9.35 L61.65 9.1 61.45 9.05 61.05 9.95 61.4 11.55 60.55 13.3 60.3 15.35 Q60.3 16.0 60.45 16.15 L60.75 16.35 61.15 16.3 61.6 15.1 Q64.35 19.55 64.35 21.1 L63.95 22.55 Q63.7 23.6 64.3 24.3 64.85 24.2 65.25 23.0 L65.2 24.4 Q64.65 24.0 64.3 24.95 L64.05 26.25 Q64.05 26.9 64.45 27.25 L64.9 27.45 64.65 28.05 64.65 27.8 64.45 27.6 64.35 27.5 64.25 27.55 64.0 27.5 63.1 28.0 61.2 29.8 61.3 30.15" fill="#ffffff" fill-opacity="0.4" fill-rule="evenodd" stroke="none"/>
  </g>
</svg>
