<?xml version="1.0" encoding="UTF-8" standalone="no"?>
<svg xmlns:xlink="http://www.w3.org/1999/xlink" height="32.35px" width="15.2px" xmlns="http://www.w3.org/2000/svg">
  <g transform="matrix(1.0, 0.0, 0.0, 1.0, -51.3, 1.85)">
    <path d="M62.9 -1.5 Q62.1 -1.7 62.1 -0.8 L62.35 -0.15 Q62.7 0.3 63.3 0.3 L63.65 0.25 63.9 1.9 62.75 1.0 62.55 1.3 62.45 2.0 Q62.45 2.55 63.0 3.2 L63.7 4.0 63.35 4.05 Q62.4 2.65 62.1 0.85 L61.95 -0.8 Q61.95 -1.75 62.4 -1.85 L62.9 -1.5 M66.5 8.3 L65.85 5.95 66.0 5.8 66.2 6.7 66.5 8.1 66.5 8.3 M65.7 4.6 L65.45 4.65 Q64.55 5.05 64.55 6.0 L65.05 8.15 65.25 8.85 64.85 8.4 64.85 7.65 64.2 4.05 64.1 3.3 Q64.1 2.55 64.25 2.25 64.4 1.85 64.75 2.2 65.4 2.8 65.7 4.6 M62.1 9.35 L61.65 9.1 61.45 9.05 61.05 9.95 61.4 11.55 60.55 13.3 60.45 14.15 Q60.65 14.25 60.65 15.05 L60.4 16.05 60.45 16.15 60.75 16.35 61.15 16.3 61.6 15.1 Q64.35 19.55 64.35 21.1 L63.95 22.55 Q63.7 23.6 64.3 24.3 64.85 24.2 65.25 23.0 L65.2 24.4 Q64.65 24.0 64.3 24.95 L64.05 26.25 Q64.05 26.9 64.45 27.25 L64.9 27.45 64.65 28.05 64.65 27.8 64.45 27.6 64.35 27.5 64.25 27.55 64.0 27.5 63.1 28.0 61.2 29.8 61.3 30.15 60.6 30.05 Q60.45 30.5 59.9 30.5 L58.75 30.35 Q59.05 30.1 59.0 29.35 L58.85 28.8 59.45 28.85 62.35 27.7 Q63.45 27.15 63.45 26.0 L63.1 24.35 62.75 24.45 Q62.35 24.45 62.2 23.6 L62.15 22.75 Q62.15 22.05 62.5 21.6 L61.45 16.45 60.9 17.0 59.95 17.25 59.8 17.65 Q58.95 19.85 58.95 21.1 L59.05 22.05 Q58.75 21.6 58.35 22.2 57.75 23.05 57.75 23.75 L58.05 25.4 58.55 26.95 57.8 27.2 Q57.5 27.2 57.2 25.45 L57.0 23.7 57.3 21.3 57.45 18.8 Q57.35 17.55 58.5 16.2 L59.3 15.25 60.15 11.4 60.85 7.6 61.25 7.2 Q62.05 7.55 62.1 9.35 M58.7 5.85 L58.35 5.9 Q57.9 5.9 57.15 4.4 L56.1 2.1 54.95 4.1 Q54.6 3.9 53.85 4.4 52.55 5.25 52.55 6.2 52.55 6.65 52.8 6.85 52.45 7.45 52.4 8.05 L51.95 8.55 Q51.3 8.55 51.3 7.95 L51.9 6.3 Q52.5 5.05 52.5 4.4 52.5 3.95 53.35 2.9 L54.6 1.25 Q55.2 0.2 55.95 0.35 L57.15 1.05 Q57.7 1.0 58.1 1.45 57.45 1.7 57.45 2.45 L57.85 4.1 Q58.35 5.8 58.7 5.85" fill="#ffffff" fill-opacity="0.4" fill-rule="evenodd" stroke="none"/>
    <path d="M63.65 0.25 L63.3 0.3 Q62.7 0.3 62.35 -0.15 L62.1 -0.8 Q62.1 -1.7 62.9 -1.5 L63.1 -1.45 Q64.05 -1.05 64.05 -0.35 L63.65 0.25 M63.7 4.0 L63.0 3.2 Q62.45 2.55 62.45 2.0 L62.55 1.3 62.75 1.0 63.9 1.9 64.25 2.25 Q64.1 2.55 64.1 3.3 L64.2 4.05 63.7 4.0 M61.4 11.55 L61.05 9.95 61.45 9.05 61.65 9.1 62.1 9.35 64.0 16.0 65.1 18.05 Q66.2 20.25 66.2 21.45 66.2 22.7 65.4 23.0 L65.3 22.85 64.75 20.65 64.3 18.35 Q64.3 17.45 63.9 16.9 L63.35 16.5 Q62.15 16.5 61.7 14.5 L61.4 11.55 M58.85 28.8 L59.0 29.35 Q59.05 30.1 58.75 30.35 L58.35 30.45 Q57.7 30.45 57.15 29.85 L56.85 29.5 56.75 29.15 Q56.75 28.15 57.9 28.35 L58.05 28.4 58.85 28.8 M63.1 28.0 L64.0 27.5 64.25 27.55 64.35 27.5 64.45 27.6 64.5 28.15 64.5 28.35 64.1 29.3 64.05 29.35 63.85 29.35 63.7 29.35 63.7 29.4 63.55 29.4 63.5 29.45 63.4 29.45 63.25 29.5 63.2 29.5 63.05 29.55 62.95 29.6 62.8 29.65 62.65 29.75 62.55 29.8 62.4 29.85 62.3 29.9 62.2 29.95 62.0 29.95 61.8 30.0 61.6 30.05 61.55 30.05 61.55 29.9 63.1 28.0 M64.9 27.45 L64.45 27.25 Q64.05 26.9 64.05 26.25 L64.3 24.95 Q64.65 24.0 65.2 24.4 65.5 24.75 65.35 25.85 L64.9 27.45 M54.5 5.6 L54.5 5.85 52.8 9.75 Q52.4 9.75 52.35 9.1 L52.35 8.45 52.4 8.05 Q52.45 7.45 52.8 6.85 L53.45 5.8 Q54.4 4.55 54.5 5.6" fill="#ffffff" fill-rule="evenodd" stroke="none"/>
    <path d="M66.0 5.8 L65.85 5.95 66.5 8.3 66.5 8.45 Q66.6 10.25 65.85 10.25 65.7 10.25 65.25 8.85 L65.05 8.15 64.55 6.0 Q64.55 5.05 65.45 4.65 L65.7 4.6 Q66.3 4.4 66.3 5.1 L66.0 5.8 M58.55 26.95 L58.05 25.4 57.75 23.75 Q57.75 23.05 58.35 22.2 58.75 21.6 59.05 22.05 L59.3 22.85 59.55 25.8 Q59.65 27.0 58.65 27.0 L58.55 26.95 M61.3 30.15 L61.2 29.8 63.1 28.0 61.55 29.9 61.55 30.05 61.45 30.1 61.3 30.15 M64.45 27.6 L64.65 27.8 64.65 28.05 64.5 28.35 64.5 28.15 64.45 27.6 M65.25 23.0 Q64.85 24.2 64.3 24.3 63.7 23.6 63.95 22.55 L64.35 21.1 Q64.35 19.55 61.6 15.1 L61.15 16.3 60.75 16.35 60.45 16.15 60.4 16.05 60.65 15.05 Q60.65 14.25 60.45 14.15 L60.55 13.3 61.4 11.55 61.7 14.5 Q62.15 16.5 63.35 16.5 L63.9 16.9 Q64.3 17.45 64.3 18.35 L64.75 20.65 65.3 22.85 65.25 23.0 M58.1 1.45 L58.25 1.4 Q59.05 1.25 59.1 2.6 L59.45 4.95 Q59.45 5.85 58.7 5.85 58.35 5.8 57.85 4.1 L57.45 2.45 Q57.45 1.7 58.1 1.45 M54.95 4.1 L55.1 4.6 54.5 5.6 Q54.4 4.55 53.45 5.8 L52.8 6.85 Q52.55 6.65 52.55 6.2 52.55 5.25 53.85 4.4 54.6 3.9 54.95 4.1 M56.85 29.5 L56.55 29.25 55.5 28.5 Q55.5 27.9 56.65 27.1 57.8 26.25 57.8 28.1 L58.05 28.4 57.9 28.35 Q56.75 28.15 56.75 29.15 L56.85 29.5" fill="#ffffff" fill-opacity="0.69803923" fill-rule="evenodd" stroke="none"/>
  </g>
</svg>
