<?xml version="1.0" encoding="UTF-8" standalone="no"?>
<svg xmlns:xlink="http://www.w3.org/1999/xlink" height="55.2px" width="28.8px" xmlns="http://www.w3.org/2000/svg">
  <g transform="matrix(1.0, 0.0, 0.0, 1.0, -39.6, 24.85)">
    <path d="M55.35 -22.95 L56.15 -22.55 55.8 -23.0 56.0 -23.5 56.85 -23.75 57.5 -22.8 58.3 -21.05 60.15 -19.45 62.55 -17.55 Q61.9 -17.45 61.7 -16.75 L62.6 -15.85 Q63.5 -15.05 64.05 -14.9 64.45 -15.0 64.65 -15.4 L65.0 -14.45 Q64.65 -13.9 64.3 -13.85 59.2 -18.95 57.45 -18.95 57.15 -18.95 57.0 -19.15 L56.25 -20.65 Q56.25 -21.8 55.65 -22.6 L55.35 -22.95 M55.15 -17.3 L53.85 -18.15 54.15 -18.7 54.6 -18.95 Q54.6 -18.1 55.0 -17.5 L55.15 -17.3 M56.65 -18.25 L58.4 -16.95 Q59.25 -16.1 59.25 -15.55 L59.05 -14.7 58.65 -14.6 Q58.05 -14.75 57.3 -15.9 L57.8 -16.2 58.1 -16.7 56.65 -18.25 M51.6 -19.65 Q51.6 -18.7 52.15 -17.4 L52.7 -15.8 Q52.7 -14.3 51.8 -13.5 L50.9 -13.6 51.05 -14.8 51.3 -16.5 50.95 -18.7 50.55 -21.6 50.15 -22.35 Q49.7 -23.05 49.4 -24.05 L49.75 -24.85 Q51.7 -23.9 51.85 -21.85 L51.6 -19.65 M46.35 -5.25 L44.35 -2.3 Q43.75 -2.3 43.55 -2.9 44.85 -4.4 45.65 -6.95 47.0 -8.75 52.35 -8.75 52.75 -8.75 54.6 -7.8 56.95 -6.6 58.2 -5.1 L55.2 -7.1 54.65 -6.5 54.45 -6.05 56.05 -5.0 57.55 -3.8 56.65 -3.95 55.65 -4.65 Q54.5 -5.3 53.35 -5.4 L52.65 -6.0 54.0 -6.95 52.35 -7.4 50.05 -6.85 47.5 -6.15 46.05 -5.85 46.35 -5.25 M59.15 -4.15 Q60.45 -5.55 61.1 -5.55 L61.35 -4.45 Q61.35 -2.15 60.6 -2.0 59.85 -1.8 59.85 -1.05 L59.85 -0.9 59.45 -0.85 Q58.8 -1.05 58.95 -2.85 58.7 -2.45 57.75 -2.45 58.2 -2.65 58.2 -3.3 L58.85 -2.9 59.55 -3.75 59.15 -4.15 M52.4 8.05 L51.8 8.4 Q51.45 8.4 51.3 7.95 L52.15 5.75 50.05 6.35 47.8 6.65 47.65 6.6 47.6 5.9 Q47.6 5.5 51.15 4.05 54.7 2.55 54.7 1.1 53.55 -0.6 53.4 -1.7 L53.35 -2.7 54.0 -2.95 Q54.55 -2.95 55.65 -1.65 L58.1 1.45 58.35 4.15 Q58.55 5.6 58.7 5.85 L58.55 5.9 60.1 11.65 60.1 11.75 60.3 12.45 60.8 12.75 60.4 16.05 Q60.75 16.35 61.15 16.3 L61.6 15.15 61.65 15.15 62.7 16.9 61.95 19.05 61.8 18.15 62.15 17.15 62.2 16.35 61.95 16.35 61.5 16.55 61.45 16.45 60.15 17.4 60.6 17.85 Q60.6 18.85 60.95 18.55 L61.15 18.6 Q61.7 19.55 61.65 20.75 61.65 21.75 61.5 21.25 L61.05 21.45 60.1 20.5 Q59.45 19.7 59.25 18.8 L58.95 20.3 59.05 22.05 58.75 21.9 Q57.75 22.9 57.75 23.75 57.75 24.8 58.55 26.95 L57.8 27.2 Q57.0 25.2 57.0 23.7 L57.45 19.8 Q57.85 20.45 58.4 20.35 58.75 19.65 58.0 17.7 L58.75 15.7 Q58.0 16.25 57.9 17.45 L57.5 16.6 Q58.0 15.45 57.75 14.35 L57.35 14.5 57.1 13.15 56.85 12.0 55.9 14.65 54.95 15.65 54.9 15.2 Q54.6 15.05 53.95 15.55 L53.3 15.75 54.5 13.0 55.25 10.9 55.25 11.45 Q55.3 11.7 55.9 11.7 L56.65 11.55 Q56.8 11.4 56.85 11.4 L56.9 10.35 57.25 12.0 57.65 12.45 58.1 12.05 57.55 6.0 57.5 5.85 Q57.7 4.2 56.95 2.65 56.3 1.25 55.4 0.8 55.1 1.4 55.05 2.2 L55.1 3.85 54.95 4.1 53.95 4.2 53.0 4.2 52.65 7.3 52.4 8.05 M60.35 10.5 Q60.8 8.3 61.15 7.45 L61.25 7.2 61.75 8.2 62.1 9.35 Q61.05 9.0 61.05 9.95 L60.9 10.55 60.35 10.5 M64.9 27.45 L64.75 27.85 Q64.1 27.6 63.4 27.85 L64.05 26.15 64.05 26.25 Q64.25 27.2 64.9 27.45 M61.3 30.15 L58.75 30.35 Q59.15 29.85 58.85 28.8 L60.45 28.8 59.25 29.25 59.35 29.5 60.35 29.7 61.35 30.05 61.3 30.15 M63.05 24.5 Q62.45 23.75 62.3 22.35 L62.0 19.25 62.8 19.1 63.6 18.65 64.1 22.05 63.95 21.95 Q63.3 22.4 63.05 24.5 M57.35 19.7 L56.95 21.7 56.25 21.9 Q55.8 21.65 55.65 20.55 L56.5 17.45 57.35 19.7 M51.45 20.75 L51.1 20.95 50.2 21.0 Q50.0 20.9 50.0 19.9 50.0 19.65 50.55 18.85 51.3 17.75 52.4 16.95 L50.85 19.8 51.05 20.75 51.45 20.75 M63.15 8.75 L61.95 -0.45 Q61.95 -1.45 62.1 -1.7 L62.9 -1.5 62.3 -1.15 62.1 -0.8 62.35 0.3 63.65 0.25 63.9 1.9 Q62.75 1.0 62.45 2.0 L62.9 2.9 62.85 2.4 Q62.85 2.2 63.45 2.2 L64.05 2.35 Q64.05 2.05 64.2 2.25 L64.25 2.25 Q64.85 2.25 65.3 2.95 65.7 3.65 65.7 4.6 64.65 4.6 63.9 5.85 63.15 7.05 63.15 8.75 M66.0 5.85 L66.5 8.3 66.2 7.2 66.1 6.8 66.0 5.85 M66.5 9.35 Q67.45 11.25 67.45 12.7 L67.3 14.0 Q67.3 14.85 67.85 16.0 L68.4 17.5 68.35 18.45 67.9 18.75 Q67.05 15.55 64.8 13.75 62.85 12.25 62.85 10.55 62.85 10.05 63.1 9.75 L63.25 9.1 Q63.85 12.4 64.1 12.8 L64.5 12.7 Q64.95 12.4 64.95 11.15 L64.85 7.75 Q65.4 8.3 65.95 7.95 L66.5 9.35 M65.5 11.4 Q65.5 11.95 65.8 12.6 L66.5 13.5 67.05 13.8 65.5 11.4 M65.25 23.1 L65.25 23.0 65.25 23.05 65.25 23.1 M67.5 25.3 L67.3 26.2 66.75 26.55 66.25 26.2 66.0 25.3 Q66.0 24.8 66.25 24.45 66.45 24.05 66.75 24.05 67.05 24.05 67.3 24.45 L67.5 25.3 M45.6 10.15 L44.4 10.2 44.15 9.35 Q45.3 5.75 46.6 3.7 L47.5 2.7 Q47.7 2.7 47.7 3.7 47.7 4.75 46.75 7.05 L45.6 10.15 M40.05 14.1 L39.7 14.15 39.6 13.5 Q39.6 12.0 40.05 10.25 40.55 8.4 41.15 7.6 41.5 9.3 41.15 11.15 40.85 12.9 40.05 14.1" fill="#ffffff" fill-opacity="0.4" fill-rule="evenodd" stroke="none"/>
    <path d="M62.55 -17.55 Q63.6 -17.15 64.15 -16.4 L64.65 -15.4 Q64.45 -15.0 64.05 -14.9 63.5 -15.05 62.6 -15.85 L61.7 -16.75 Q61.9 -17.45 62.55 -17.55 M60.1 11.65 L60.15 11.35 60.35 10.5 60.9 10.55 61.05 9.95 Q61.05 9.0 62.1 9.35 L64.25 14.8 Q66.2 19.95 66.2 21.45 66.2 22.7 65.65 25.0 L64.9 27.45 Q64.25 27.2 64.05 26.25 L64.05 26.15 63.4 27.85 Q64.1 27.6 64.75 27.85 L64.1 29.35 63.85 29.35 63.7 29.35 63.7 29.4 63.55 29.4 63.5 29.45 63.4 29.45 63.25 29.5 63.2 29.5 63.05 29.55 62.95 29.6 62.8 29.65 62.65 29.75 62.55 29.8 62.4 29.85 62.3 29.9 62.2 29.95 62.0 29.95 61.8 30.0 61.6 30.05 61.45 30.1 61.4 30.15 61.35 30.05 60.35 29.7 59.35 29.5 59.25 29.25 60.45 28.8 62.05 27.4 63.05 24.5 Q63.3 22.4 63.95 21.95 L64.1 22.05 Q64.75 23.05 64.7 24.05 L65.25 23.1 65.25 23.05 65.3 22.85 64.15 17.9 63.75 16.75 63.6 18.65 62.8 19.1 62.0 19.25 61.95 19.05 62.7 16.9 61.65 15.15 61.6 15.15 61.0 15.0 Q60.75 14.85 60.75 14.2 L60.8 12.75 60.3 12.45 60.1 11.75 60.1 11.65 M58.75 30.35 L57.6 30.05 56.85 29.5 56.8 28.45 58.05 28.4 58.85 28.8 Q59.15 29.85 58.75 30.35 M61.8 18.15 L61.35 18.6 61.15 18.6 60.95 18.55 Q60.6 18.85 60.6 17.85 60.6 17.2 60.9 16.95 L61.5 16.55 61.95 16.35 62.2 16.35 62.15 17.15 61.8 18.15 M57.45 19.8 L57.35 19.7 56.5 17.45 Q55.9 15.45 56.2 14.8 L56.75 15.2 57.5 16.6 57.9 17.45 58.0 17.7 Q58.75 19.65 58.4 20.35 57.85 20.45 57.45 19.8 M54.95 15.65 Q54.95 16.95 54.35 17.9 53.7 18.8 52.8 18.8 52.35 19.2 52.35 18.2 52.35 17.6 53.05 16.65 L53.95 15.55 Q54.6 15.05 54.9 15.2 L54.95 15.65 M52.4 9.6 L52.35 8.75 52.4 8.05 52.65 7.3 52.4 9.6 M55.1 3.85 L55.05 2.2 Q55.1 1.4 55.4 0.8 56.3 1.25 56.95 2.65 57.7 4.2 57.5 5.85 L57.55 6.0 56.75 6.15 55.8 5.85 55.35 5.2 55.1 3.85 M62.9 -1.5 L63.5 -0.6 63.65 0.25 62.35 0.3 62.1 -0.8 62.3 -1.15 62.9 -1.5 M63.9 1.9 L64.2 2.25 Q64.05 2.05 64.05 2.35 L63.45 2.2 Q62.85 2.2 62.85 2.4 L62.9 2.9 62.45 2.0 Q62.75 1.0 63.9 1.9 M64.85 7.75 L64.4 6.75 Q64.5 6.3 64.85 6.0 L64.9 6.0 Q65.65 6.1 66.1 6.8 L66.2 7.2 65.95 7.95 Q65.4 8.3 64.85 7.75" fill="#ffffff" fill-rule="evenodd" stroke="none"/>
    <path d="M56.25 -20.65 Q55.6 -20.8 54.35 -21.6 L53.2 -22.4 53.1 -22.5 53.05 -22.7 53.05 -23.55 54.2 -23.4 Q54.85 -23.4 55.35 -22.95 L55.65 -22.6 Q56.25 -21.8 56.25 -20.65 M54.6 -18.95 L54.5 -19.1 55.1 -19.25 55.95 -18.95 56.65 -18.25 58.1 -16.7 57.8 -16.2 57.3 -15.9 55.95 -16.9 Q55.5 -16.9 55.15 -17.3 L55.0 -17.5 Q54.6 -18.1 54.6 -18.95 M58.2 -5.1 L59.15 -4.15 59.55 -3.75 58.85 -2.9 58.2 -3.3 Q58.2 -2.65 57.75 -2.45 L55.25 -2.85 Q54.8 -3.0 53.0 -4.1 52.8 -4.85 52.8 -3.85 52.8 -3.35 52.3 -3.2 51.7 -3.05 51.0 -3.85 50.25 -2.95 50.25 -2.35 L50.25 -1.65 49.6 -1.55 49.05 -1.55 48.9 -1.7 Q48.65 -1.9 48.65 -2.9 48.65 -4.4 50.0 -4.8 L53.35 -5.4 Q54.5 -5.3 55.65 -4.65 55.65 -4.35 55.95 -4.15 56.25 -3.95 56.65 -3.95 L57.55 -3.8 56.05 -5.0 54.45 -6.05 54.65 -6.5 55.2 -7.1 58.2 -5.1 M47.5 -6.15 L47.2 -5.5 46.35 -5.25 46.05 -5.85 47.5 -6.15 M58.1 1.45 L59.1 3.95 59.45 5.8 58.7 5.85 Q58.55 5.6 58.35 4.15 L58.1 1.45 M61.4 30.15 L61.3 30.15 61.35 30.05 61.4 30.15 M56.85 29.5 L55.5 28.5 57.2 26.9 58.05 28.4 56.8 28.45 56.85 29.5 M59.05 22.05 Q59.55 24.05 59.55 26.05 L59.25 26.85 58.55 26.95 Q57.75 24.8 57.75 23.75 57.75 22.9 58.75 21.9 L59.05 22.05 M56.75 15.2 L57.35 14.5 57.75 14.35 Q58.0 15.45 57.5 16.6 L56.75 15.2 M52.8 18.8 L51.45 20.75 51.05 20.75 50.85 19.8 52.4 16.95 53.3 15.75 53.95 15.55 53.05 16.65 Q52.35 17.6 52.35 18.2 52.35 19.2 52.8 18.8 M55.25 10.9 L55.4 9.25 55.4 9.15 55.1 9.15 Q54.45 9.15 54.3 8.75 L54.15 8.15 53.1 11.2 Q53.1 11.7 53.55 11.5 54.0 11.3 54.0 11.8 54.0 12.45 52.25 15.1 50.4 17.85 49.5 18.05 L48.95 18.1 Q48.75 18.05 48.75 17.45 L49.75 15.05 52.4 9.6 52.65 7.3 53.0 4.2 53.95 4.2 54.95 4.1 54.8 5.1 54.95 5.25 55.35 5.2 55.8 5.85 56.75 6.15 57.55 6.0 58.1 12.05 57.65 12.45 57.25 12.0 56.9 10.35 56.85 11.4 Q56.8 11.4 56.65 11.55 L55.9 11.7 Q55.3 11.7 55.25 11.45 L55.25 10.9 M64.55 -9.15 L64.2 -8.6 63.25 -8.4 62.35 -8.6 Q61.95 -8.85 61.95 -9.15 L62.35 -9.65 63.25 -9.9 64.2 -9.65 64.55 -9.15 M65.7 4.6 L66.15 4.6 66.0 5.85 66.1 6.8 Q65.65 6.1 64.9 6.0 L64.85 6.0 Q64.5 6.3 64.4 6.75 L64.85 7.75 64.95 11.15 Q64.95 12.4 64.5 12.7 L64.1 12.8 Q63.85 12.4 63.25 9.1 L63.2 9.0 63.15 8.75 Q63.15 7.05 63.9 5.85 64.65 4.6 65.7 4.6 M66.5 8.3 L66.5 9.35 65.95 7.95 66.2 7.2 66.5 8.3 M60.8 12.75 L60.75 14.2 Q60.75 14.85 61.0 15.0 L61.6 15.15 61.15 16.3 Q60.75 16.35 60.4 16.05 L60.8 12.75 M63.6 18.65 L63.75 16.75 64.15 17.9 65.3 22.85 65.25 23.0 65.25 23.1 64.7 24.05 Q64.75 23.05 64.1 22.05 L63.6 18.65" fill="#ffffff" fill-opacity="0.69803923" fill-rule="evenodd" stroke="none"/>
  </g>
</svg>
