<?xml version="1.0" encoding="UTF-8" standalone="no"?>
<svg xmlns:xlink="http://www.w3.org/1999/xlink" height="77.85px" width="45.35px" xmlns="http://www.w3.org/2000/svg">
  <g transform="matrix(1.0, 0.0, 0.0, 1.0, -39.6, 39.15)">
    <path d="M51.35 -21.45 L51.95 -18.5 Q52.8 -13.95 54.15 -13.95 L55.0 -11.2 Q55.7 -7.7 58.2 -5.1 L56.9 -6.0 57.35 -3.85 Q57.3 -3.25 56.35 -2.6 55.4 -2.55 54.85 -3.0 L54.45 -4.0 56.0 -5.2 54.0 -8.1 54.05 -8.05 53.1 -11.15 Q52.25 -13.5 51.8 -13.5 50.85 -13.5 50.9 -13.8 L51.2 -15.35 49.75 -18.5 Q50.5 -18.7 51.0 -20.0 L51.35 -21.45 M59.15 -4.15 L61.1 -5.55 61.7 -4.1 61.7 -4.05 Q66.0 -6.15 66.75 -6.15 67.85 -6.15 69.05 -4.8 70.5 -3.2 70.5 -0.8 70.5 0.1 69.4 1.5 L69.35 1.55 69.45 0.3 Q69.45 -1.35 68.5 -2.7 68.5 -3.5 67.7 -4.05 66.85 -4.65 65.7 -4.65 L64.05 -4.2 64.15 -3.95 62.55 -2.7 64.0 2.0 64.05 2.3 Q64.1 2.2 64.2 2.2 64.8 2.2 65.25 2.9 65.7 3.6 65.7 4.6 64.65 4.6 63.9 5.85 63.15 7.05 63.15 8.75 L63.15 8.55 Q63.0 8.4 63.0 7.4 L63.15 4.85 62.6 5.0 62.15 1.4 61.95 3.35 Q61.95 4.25 62.4 5.25 61.9 6.45 61.35 9.7 L61.4 10.15 61.4 10.2 61.4 10.45 61.55 10.95 62.55 9.75 63.05 8.95 62.75 10.95 Q62.4 11.8 62.1 11.85 61.45 11.5 61.25 10.55 L60.95 10.55 60.35 10.55 60.3 10.55 60.35 10.5 60.95 8.0 60.95 -1.3 60.6 -2.0 59.45 -0.85 Q59.05 -1.15 58.95 -2.85 58.65 -2.45 57.75 -2.45 58.2 -2.65 58.2 -3.3 58.8 -2.75 59.0 -2.95 L59.55 -3.75 59.15 -4.15 M69.15 1.85 Q68.3 2.75 67.85 2.9 L67.4 2.8 Q67.2 3.35 67.2 2.35 L67.4 0.95 67.4 -0.3 67.85 0.85 68.7 2.0 69.15 1.85 M66.9 -1.8 L66.65 -2.55 67.2 -2.25 66.9 -1.8 M66.0 5.85 L66.5 8.3 66.2 7.2 66.1 6.8 66.0 5.85 M66.5 9.35 Q67.5 11.55 68.4 18.25 L68.4 18.45 67.9 18.75 Q67.55 17.5 65.1 14.45 62.85 11.65 62.85 10.55 L63.05 9.6 63.25 9.1 64.1 12.8 64.5 12.7 64.95 12.2 64.85 7.75 65.45 8.0 65.95 7.95 66.5 9.35 M64.9 27.45 L64.75 27.85 63.4 27.85 64.05 26.15 64.05 26.25 Q64.35 27.1 64.9 27.45 M61.3 30.15 L58.75 30.35 Q59.15 29.85 58.85 28.8 L60.45 28.8 59.25 29.25 60.3 29.75 61.35 30.05 61.3 30.15 M58.7 30.35 L58.45 31.2 58.2 31.25 58.15 30.8 58.05 29.6 58.7 30.35 M55.7 34.75 Q54.8 36.6 50.55 38.7 50.1 38.6 49.85 38.1 55.15 32.8 55.85 30.35 L54.25 29.6 53.9 28.85 53.0 28.55 Q53.8 28.05 54.95 28.05 L55.7 29.15 56.85 30.9 56.45 31.85 56.05 32.7 55.75 33.55 55.5 33.6 Q55.4 33.6 55.4 34.2 55.4 35.2 55.7 34.75 M63.05 24.5 L62.45 23.1 Q62.25 22.3 62.0 19.25 L62.8 19.05 63.6 18.65 64.1 22.05 Q63.9 21.65 63.5 22.9 L63.05 24.5 M61.95 19.05 L61.8 18.15 62.1 17.2 62.2 16.7 Q62.4 17.8 61.95 19.05 M61.15 18.6 L61.45 19.05 61.7 20.2 61.65 21.4 61.85 21.45 61.3 21.45 Q60.8 21.45 60.35 20.9 L59.6 19.7 59.25 18.8 59.1 19.75 Q59.0 20.95 59.05 22.05 58.4 20.9 58.05 22.15 57.75 23.05 57.75 23.75 57.75 24.8 58.55 26.95 L57.8 27.2 Q57.0 25.05 57.0 23.7 L57.45 19.8 58.1 20.2 58.55 19.95 58.0 17.7 58.75 15.7 Q58.05 16.65 57.9 17.45 L57.5 16.6 57.75 15.05 57.75 14.35 57.35 14.5 57.1 13.15 56.85 12.0 56.05 14.3 54.95 15.65 54.9 15.2 53.95 15.55 53.3 15.75 54.4 13.25 55.25 10.9 55.25 11.65 56.15 11.7 56.85 11.55 56.9 10.35 57.05 11.4 58.1 12.05 Q57.9 8.0 57.55 6.15 L57.65 6.1 57.55 6.0 Q56.05 1.35 55.4 0.8 55.05 1.95 55.1 3.85 L54.95 4.1 52.7 4.2 52.65 7.3 52.4 8.05 Q51.8 8.8 50.6 11.6 L49.45 14.35 48.95 14.4 48.6 14.5 Q48.45 14.45 48.45 13.85 48.45 12.1 49.95 9.15 L51.65 5.95 48.0 6.65 47.45 6.65 47.65 6.6 47.6 5.9 Q47.6 5.7 49.6 4.8 52.25 3.55 54.7 1.1 L51.45 1.7 48.3 2.45 47.75 1.95 Q48.55 1.1 51.15 0.4 L53.95 -0.1 53.55 -1.7 53.35 -2.7 53.3 -2.8 54.0 -2.95 Q54.4 -2.95 55.35 -2.05 56.65 -0.85 58.1 1.45 58.4 4.9 58.7 5.85 L58.55 5.9 60.1 11.65 60.3 12.45 60.8 12.75 60.4 16.3 Q61.15 16.3 61.6 15.15 L62.15 16.4 61.5 16.55 61.45 16.45 61.3 16.6 61.0 16.8 60.15 17.4 60.6 17.85 60.75 18.5 60.85 18.65 61.15 18.6 M57.35 19.7 L56.95 21.7 Q57.25 21.9 56.25 21.9 56.05 21.95 55.8 21.4 55.55 20.8 55.75 19.8 L56.05 18.6 56.5 17.45 57.35 19.7 M56.25 16.45 L54.15 22.2 53.75 22.1 53.55 21.3 Q53.55 20.25 53.9 19.05 54.05 18.4 54.35 17.9 L54.7 17.25 Q55.2 16.4 56.0 15.9 L56.1 16.55 56.15 16.0 56.25 16.45 M51.45 20.75 L51.1 20.95 50.2 21.0 Q50.0 20.9 50.0 19.9 50.0 19.25 52.4 16.95 50.85 19.85 51.05 20.75 L51.45 20.75 M53.35 -5.4 L52.65 -6.0 53.45 -6.55 Q54.05 -5.7 53.9 -5.35 L53.35 -5.4 M53.1 -7.3 L47.85 -6.2 46.25 -6.1 Q45.45 -5.9 45.15 -5.55 46.1 -7.35 48.7 -8.15 L53.45 -8.35 53.2 -7.75 53.1 -7.3 M45.4 -3.8 Q44.45 -2.3 44.1 -2.3 L43.7 -2.6 43.55 -2.9 44.45 -4.1 44.6 -3.9 44.55 -3.8 Q44.65 -3.7 44.9 -3.7 L45.4 -3.8 M49.5 -19.05 L49.05 -20.25 49.15 -20.55 49.45 -21.05 49.5 -19.05 M45.8 -16.55 L45.25 -16.65 45.15 -17.45 Q45.15 -20.95 45.95 -20.95 46.7 -20.9 46.65 -22.5 L46.45 -23.6 46.25 -25.05 Q46.25 -25.6 46.8 -26.65 47.3 -27.75 47.9 -28.4 L48.0 -28.45 Q48.3 -17.5 45.8 -16.55 M55.35 -22.95 Q56.15 -22.55 55.8 -23.0 L56.0 -23.5 56.85 -23.75 57.85 -22.2 58.7 -20.65 56.35 -20.45 56.25 -20.65 Q56.05 -22.15 55.35 -22.95 M61.55 -18.35 L62.55 -17.55 61.95 -17.05 61.7 -16.75 63.0 -15.6 64.05 -14.9 Q64.8 -14.9 64.75 -15.2 L65.0 -14.45 Q64.7 -14.0 64.3 -13.85 62.4 -16.5 56.85 -19.5 L60.45 -18.95 Q60.45 -18.1 60.9 -17.55 L61.55 -18.35 M54.9 -21.25 L55.1 -19.8 54.45 -19.55 53.75 -20.5 Q52.85 -21.85 51.65 -22.5 51.15 -22.75 51.15 -24.65 51.15 -25.85 51.65 -26.1 52.6 -25.6 53.7 -23.5 L54.9 -21.25 M56.65 -18.25 Q58.45 -17.5 59.0 -16.45 L59.25 -15.4 59.2 -14.8 59.05 -14.7 Q59.8 -14.6 58.8 -14.6 58.6 -14.6 57.3 -15.9 L58.1 -16.7 56.65 -18.25 M55.15 -17.3 L53.85 -18.15 54.05 -18.45 54.6 -18.95 Q54.75 -17.85 55.15 -17.3 M55.95 -4.15 L55.65 -4.65 55.65 -4.6 55.95 -4.15 M65.5 11.4 L65.9 12.55 66.5 13.5 67.05 13.8 65.5 11.4 M65.25 23.0 L65.25 23.05 65.25 23.1 65.25 23.0 M67.5 25.3 L67.3 26.2 66.75 26.55 66.25 26.2 66.0 25.3 Q66.0 24.8 66.25 24.45 66.45 24.05 66.75 24.05 67.05 24.05 67.3 24.45 L67.5 25.3 M45.6 10.15 Q44.4 10.2 44.15 9.35 44.3 8.55 45.3 6.25 46.55 3.5 47.5 2.7 L47.65 2.75 47.7 3.5 46.85 6.85 45.6 10.15 M39.85 14.2 L39.65 14.2 39.6 13.5 Q40.05 10.15 40.9 8.1 L41.15 7.6 41.35 9.35 Q41.35 12.2 39.85 14.2" fill="#ffffff" fill-opacity="0.4" fill-rule="evenodd" stroke="none"/>
    <path d="M84.0 -39.15 Q84.95 -39.15 84.95 -38.45 L79.65 -34.9 78.9 -35.1 78.85 -35.5 Q81.1 -39.15 84.0 -39.15 M71.6 -25.4 L71.45 -24.7 71.2 -24.55 70.8 -24.45 Q68.9 -24.45 64.55 -28.0 60.5 -31.3 60.5 -31.8 60.5 -33.85 62.3 -32.7 63.65 -31.8 65.75 -29.3 67.25 -27.85 71.6 -25.4 M58.2 -5.1 L59.15 -4.15 59.55 -3.75 59.0 -2.95 Q58.8 -2.75 58.2 -3.3 58.2 -2.65 57.75 -2.45 L56.35 -2.6 Q57.3 -3.25 57.35 -3.85 L56.9 -6.0 58.2 -5.1 M69.35 1.55 L69.3 1.75 69.15 1.85 68.7 2.0 67.85 0.85 67.4 -0.3 66.55 1.75 65.75 1.8 65.55 1.1 66.9 -1.8 67.2 -2.25 66.65 -2.55 Q65.8 -2.9 64.15 -3.95 L64.05 -4.2 65.7 -4.65 67.3 -3.7 68.5 -2.7 Q69.45 -1.35 69.45 0.3 L69.35 1.55 M65.7 4.6 L66.15 4.6 66.0 5.85 66.1 6.8 65.3 6.2 64.85 6.0 64.4 6.75 64.85 7.75 64.95 12.2 64.5 12.7 64.1 12.8 63.25 9.1 63.15 8.75 Q63.15 7.05 63.9 5.85 64.65 4.6 65.7 4.6 M66.5 8.3 L66.5 9.35 65.95 7.95 66.2 7.2 66.5 8.3 M63.15 8.55 L63.05 8.95 62.55 9.75 61.55 10.95 61.4 10.45 61.4 10.2 61.4 10.15 61.35 9.7 Q61.9 6.45 62.4 5.25 L62.6 5.0 63.15 4.85 63.0 7.4 Q63.0 8.4 63.15 8.55 M61.4 30.15 L61.3 30.15 61.35 30.05 61.4 30.15 M54.95 28.05 L57.2 26.9 58.05 28.4 57.5 28.4 58.05 29.6 58.15 30.8 58.1 30.6 56.85 30.9 55.7 29.15 54.95 28.05 M59.05 22.05 Q59.55 24.55 59.55 26.2 L59.3 26.9 58.55 26.95 Q57.75 24.8 57.75 23.75 57.75 23.05 58.05 22.15 58.4 20.9 59.05 22.05 M52.8 18.8 L51.45 20.75 51.05 20.75 Q50.85 19.85 52.4 16.95 L53.3 15.75 53.95 15.55 Q52.35 17.7 52.35 18.2 L52.45 18.9 52.65 18.95 52.8 18.8 M55.25 10.9 L55.4 9.65 Q55.4 9.35 54.85 8.95 54.25 8.55 54.15 8.15 L53.1 11.2 Q53.2 11.7 53.8 11.45 L54.0 11.7 Q53.75 13.35 52.3 15.5 50.7 17.9 49.15 18.1 L48.95 18.1 Q48.75 18.45 48.75 17.45 L52.4 9.65 52.4 9.6 52.65 7.3 52.7 4.2 54.95 4.1 54.8 5.1 55.35 5.2 55.95 5.85 57.0 6.15 57.55 6.15 Q57.9 8.0 58.1 12.05 L57.05 11.4 56.9 10.35 56.85 11.55 56.15 11.7 55.25 11.65 55.25 10.9 M58.1 1.45 L58.85 3.6 59.45 5.8 58.7 5.85 Q58.4 4.9 58.1 1.45 M54.85 -3.0 L53.6 -3.75 54.45 -4.0 54.85 -3.0 M52.8 -4.2 L52.8 -3.4 Q52.0 -3.15 51.0 -3.85 50.1 -2.35 50.35 -1.55 L49.05 -1.55 Q48.65 -1.95 48.65 -2.9 48.65 -4.0 49.55 -4.55 50.6 -5.15 53.35 -5.4 L53.9 -5.35 52.8 -4.2 M43.55 -2.9 L42.65 -1.2 42.2 -1.2 Q42.0 -1.2 42.0 -1.85 L42.6 -5.1 Q43.4 -8.4 44.5 -9.05 44.75 -6.8 44.25 -4.8 L43.55 -2.9 M58.7 -20.65 Q60.8 -21.0 61.1 -21.3 L61.5 -22.1 61.95 -22.05 Q62.25 -20.8 61.55 -18.35 L60.9 -17.55 Q60.45 -18.1 60.45 -18.95 L56.85 -19.5 Q56.65 -19.5 56.5 -19.75 L56.35 -20.45 58.7 -20.65 M56.25 -20.65 L54.9 -21.25 53.7 -23.5 55.35 -22.95 Q56.05 -22.15 56.25 -20.65 M54.6 -18.95 L54.5 -19.1 54.45 -19.15 55.1 -19.25 56.1 -18.9 56.65 -18.25 58.1 -16.7 57.3 -15.9 55.15 -17.3 Q54.75 -17.85 54.6 -18.95 M81.3 -24.45 L81.1 -23.85 80.5 -23.5 Q79.55 -23.5 79.55 -24.4 79.55 -25.15 80.45 -25.1 81.3 -25.1 81.3 -24.45 M68.5 -9.0 L68.35 -8.6 67.6 -8.45 Q66.95 -8.45 65.8 -9.7 L66.25 -10.15 67.8 -11.4 68.3 -10.55 68.5 -9.0 M64.55 -9.15 L64.2 -8.6 63.25 -8.4 62.35 -8.6 Q61.95 -8.85 61.95 -9.15 L62.35 -9.65 63.25 -9.9 64.2 -9.65 64.55 -9.15 M60.8 12.75 L60.75 14.2 Q60.75 15.2 61.0 15.1 L61.6 15.15 Q61.15 16.3 60.4 16.3 L60.8 12.75 M65.3 22.85 L65.25 23.0 65.25 23.1 64.7 24.05 64.35 22.7 64.1 22.05 63.6 18.65 63.75 16.75 65.3 22.85 M56.75 15.2 L57.35 14.5 57.75 14.35 57.75 15.05 57.5 16.6 56.75 15.2 M55.75 33.55 L56.05 32.7 56.45 31.85 55.75 33.55" fill="#ffffff" fill-opacity="0.69803923" fill-rule="evenodd" stroke="none"/>
    <path d="M49.45 -21.05 L49.45 -22.65 49.05 -25.4 49.15 -25.95 49.35 -26.1 50.6 -24.3 50.75 -24.05 51.2 -22.75 51.35 -21.55 51.35 -21.45 51.0 -20.0 Q50.5 -18.7 49.75 -18.5 L49.5 -19.05 49.45 -21.05 M64.0 2.0 L64.2 2.2 Q64.1 2.2 64.05 2.3 L64.0 2.0 M62.75 10.95 L65.4 17.65 Q66.2 19.8 66.2 21.6 65.65 26.5 64.9 27.45 64.35 27.1 64.05 26.25 L64.05 26.15 63.4 27.85 64.75 27.85 64.3 29.3 64.2 29.3 64.15 29.35 63.85 29.35 63.7 29.35 63.7 29.4 63.55 29.4 63.5 29.45 63.4 29.45 63.25 29.5 63.2 29.5 63.05 29.55 62.95 29.6 62.8 29.65 62.65 29.75 62.55 29.8 62.4 29.85 62.3 29.9 62.2 29.95 62.0 29.95 61.8 30.0 61.6 30.05 61.45 30.1 61.4 30.15 61.35 30.05 60.3 29.75 59.25 29.25 60.45 28.8 Q61.55 28.8 62.3 27.55 63.05 26.3 63.05 24.5 L63.5 22.9 Q63.9 21.65 64.1 22.05 L64.35 22.7 64.7 24.05 65.25 23.1 65.25 23.05 65.3 22.85 63.75 16.75 63.6 18.65 62.8 19.05 62.0 19.25 61.95 19.05 Q62.4 17.8 62.2 16.7 L62.1 17.2 61.8 18.15 61.15 18.6 60.85 18.65 60.75 18.5 60.6 17.85 Q60.6 17.3 60.9 16.95 L61.0 16.8 61.3 16.6 61.5 16.55 62.15 16.4 61.6 15.15 61.0 15.1 Q60.75 15.2 60.75 14.2 L60.8 12.75 60.3 12.45 60.1 11.65 60.35 10.55 60.95 10.55 61.25 10.55 Q61.45 11.5 62.1 11.85 62.4 11.8 62.75 10.95 M58.75 30.35 L58.7 30.35 58.05 29.6 57.5 28.4 58.05 28.4 58.85 28.8 Q59.15 29.85 58.75 30.35 M58.2 31.25 L57.95 32.2 Q57.65 33.3 57.0 33.75 L56.65 34.45 55.7 34.75 Q55.4 35.2 55.4 34.2 55.4 33.6 55.5 33.6 L55.75 33.55 56.45 31.85 56.85 30.9 58.1 30.6 58.15 30.8 58.2 31.25 M54.25 29.6 L53.7 30.0 52.7 30.0 Q52.5 29.9 52.5 29.25 L52.6 28.65 53.0 28.55 53.9 28.85 54.25 29.6 M57.45 19.8 L57.35 19.7 56.5 17.45 56.25 16.45 56.15 16.0 56.75 15.2 57.5 16.6 57.9 17.45 58.0 17.7 58.55 19.95 58.1 20.2 57.45 19.8 M54.35 17.9 Q53.7 18.8 52.8 18.8 L52.65 18.95 52.45 18.9 52.35 18.2 Q52.35 17.7 53.95 15.55 L54.9 15.2 54.95 15.65 54.7 17.25 54.35 17.9 M52.4 9.65 L52.35 8.75 52.4 8.05 52.65 7.3 52.4 9.6 52.4 9.65 M53.6 -3.75 L53.05 -3.85 52.8 -4.2 53.9 -5.35 Q54.05 -5.7 53.45 -6.55 L53.1 -7.3 53.2 -7.75 53.45 -8.35 54.0 -8.1 56.0 -5.2 54.45 -4.0 53.6 -3.75 M47.85 -6.2 L46.55 -4.7 45.4 -3.8 44.9 -3.7 Q44.65 -3.7 44.55 -3.8 L44.6 -3.9 44.45 -4.1 Q44.4 -4.75 45.15 -5.55 45.45 -5.9 46.25 -6.1 L47.85 -6.2 M62.55 -17.55 L63.8 -16.4 64.65 -15.4 64.75 -15.2 Q64.8 -14.9 64.05 -14.9 L63.0 -15.6 61.7 -16.75 61.95 -17.05 62.55 -17.55 M64.85 7.75 L64.4 6.75 64.85 6.0 65.3 6.2 66.1 6.8 66.2 7.2 65.95 7.95 65.45 8.0 64.85 7.75 M55.1 3.85 Q55.05 1.95 55.4 0.8 56.05 1.35 57.55 6.0 L57.65 6.1 57.55 6.15 57.0 6.15 55.95 5.85 55.35 5.2 55.1 3.85 M47.9 25.65 L47.5 25.7 47.4 25.1 47.45 23.3 Q48.5 23.1 49.3 22.5 L49.45 22.45 Q49.65 24.4 47.9 25.65" fill="#ffffff" fill-rule="evenodd" stroke="none"/>
  </g>
</svg>
