<?xml version="1.0" encoding="UTF-8" standalone="no"?>
<svg xmlns:xlink="http://www.w3.org/1999/xlink" height="79.5px" width="47.05px" xmlns="http://www.w3.org/2000/svg">
  <g transform="matrix(1.0, 0.0, 0.0, 1.0, -39.6, 40.8)">
    <path d="M49.45 -21.05 L49.05 -25.4 49.6 -26.35 Q50.2 -27.25 50.55 -27.35 L51.05 -26.7 51.25 -25.5 51.3 -24.65 51.2 -24.0 Q51.2 -23.4 51.65 -23.2 52.35 -23.0 52.9 -21.55 L52.9 -19.2 52.7 -17.15 Q52.7 -16.5 52.95 -15.8 L53.5 -14.25 Q54.25 -11.5 57.0 -5.5 54.7 -5.15 53.75 -4.4 L53.95 -3.85 53.1 -3.3 52.4 -2.65 51.0 -3.8 50.9 -4.0 Q51.8 -4.55 53.9 -5.35 L53.45 -6.55 53.1 -7.3 53.45 -8.35 54.0 -8.1 54.55 -7.35 Q54.3 -7.75 53.95 -9.0 L52.85 -11.85 51.85 -13.5 51.55 -14.1 Q51.3 -14.55 51.3 -15.15 51.3 -16.75 51.75 -19.6 L51.45 -20.9 51.35 -21.2 Q51.05 -19.8 49.75 -18.5 L49.5 -19.05 49.45 -21.05 M67.45 0.8 L66.95 0.95 Q66.1 0.8 66.1 -0.1 L65.4 -1.4 65.65 -2.3 66.7 -2.35 67.15 -2.15 67.7 -0.8 67.7 0.5 67.45 0.8 M62.75 10.95 Q64.4 16.45 65.65 19.0 66.2 20.1 66.2 21.6 L65.95 24.4 Q65.55 26.65 64.9 27.45 L64.75 27.85 64.45 29.3 64.3 29.3 64.2 29.3 64.15 29.35 63.85 29.35 63.7 29.35 63.7 29.4 63.55 29.4 63.5 29.45 63.4 29.45 63.25 29.5 63.2 29.5 63.05 29.55 62.95 29.6 62.8 29.65 62.65 29.75 62.55 29.8 62.4 29.85 62.3 29.9 62.2 29.95 62.0 29.95 61.8 30.0 61.6 30.05 61.45 30.1 61.3 30.15 61.15 30.2 61.25 30.05 59.25 29.25 60.45 28.8 Q61.55 28.8 62.3 27.55 63.05 26.3 63.05 24.5 L62.9 21.95 62.3 19.2 62.0 19.25 61.95 19.05 61.95 19.0 61.5 19.2 60.9 18.8 Q60.6 18.4 60.6 17.85 L60.8 16.95 60.8 16.25 60.6 14.7 Q59.7 13.3 59.2 11.55 L58.8 9.8 Q58.8 8.6 59.25 8.45 59.75 8.45 60.15 8.9 60.5 9.3 60.5 9.9 L60.7 10.55 61.4 10.5 61.8 10.75 62.35 11.65 62.75 10.95 M58.75 30.35 L58.7 30.35 58.05 29.6 57.5 28.4 58.05 28.4 58.85 28.8 Q59.15 29.85 58.75 30.35 M58.2 31.25 Q58.2 32.7 57.5 33.75 56.75 34.75 55.7 34.75 L55.6 34.95 55.6 34.9 55.4 34.2 55.6 33.65 55.75 33.55 56.45 31.85 56.85 30.9 58.1 30.6 58.15 30.8 58.2 31.25 M54.25 29.6 Q53.95 30.0 53.05 30.05 52.55 30.0 52.5 29.25 52.55 28.9 52.75 28.7 L53.0 28.55 Q53.5 28.55 53.9 28.85 54.25 29.15 54.25 29.6 M57.45 19.8 L57.35 19.7 56.5 17.45 56.25 16.45 56.15 16.0 56.75 15.2 57.5 16.6 57.9 17.45 58.0 17.7 58.55 19.95 58.1 20.1 57.45 19.8 M54.2 18.3 L53.9 18.55 52.8 18.8 52.45 18.9 52.35 18.2 53.95 15.55 54.9 15.2 54.95 15.65 54.7 17.25 54.35 17.9 54.2 18.3 M49.5 22.7 Q48.95 24.6 47.65 25.7 L47.5 25.7 47.4 25.1 47.45 23.45 47.45 23.3 47.6 23.3 Q48.15 23.45 48.75 23.0 L49.5 22.7 M52.4 9.65 L52.35 9.0 52.1 9.4 51.6 9.45 Q51.0 9.85 51.0 8.85 L51.4 7.25 52.2 4.8 53.25 3.8 53.05 3.3 52.4 3.35 52.35 3.15 52.1 1.55 51.95 0.2 Q51.95 -0.85 52.4 -1.55 L52.45 -1.45 Q52.85 -1.05 53.6 -0.95 53.3 -0.5 53.3 -0.05 L53.4 1.3 53.65 2.15 53.65 4.15 Q53.15 7.55 52.4 9.65 M47.85 -6.2 Q46.15 -4.2 45.4 -3.8 45.15 -3.65 44.55 -3.8 L44.45 -4.1 45.15 -5.55 46.4 -6.0 47.85 -6.2 M64.7 4.95 L65.05 4.7 65.35 5.65 66.1 6.8 66.2 7.2 65.95 7.95 66.3 8.9 Q66.3 9.6 65.9 10.1 65.5 10.6 64.95 10.6 64.6 10.1 64.35 9.1 64.05 8.1 64.05 7.35 64.05 6.1 64.7 4.95 M55.1 3.85 L55.4 0.8 56.4 2.6 Q57.05 4.0 57.55 6.15 56.25 6.15 55.35 5.2 L55.1 3.85" fill="#ffffff" fill-rule="evenodd" stroke="none"/>
    <path d="M51.25 -25.5 L51.65 -26.1 52.2 -25.5 Q52.5 -25.25 53.1 -25.25 L54.95 -24.5 Q56.65 -23.65 57.05 -23.55 L59.55 -22.75 61.45 -22.0 Q61.95 -20.55 61.75 -19.2 L65.2 -15.6 65.85 -15.15 Q66.15 -14.9 66.15 -14.3 66.15 -13.8 65.8 -13.6 65.4 -13.4 65.4 -12.9 L65.4 -12.4 65.35 -12.3 64.8 -12.3 Q64.2 -12.3 62.8 -14.15 L60.7 -16.85 Q59.75 -17.85 56.85 -19.5 L58.15 -19.35 57.7 -20.05 Q57.0 -20.75 56.35 -20.45 L56.25 -20.65 55.65 -21.1 54.75 -21.6 54.9 -21.25 55.1 -19.8 54.45 -19.55 52.9 -21.55 Q52.35 -23.0 51.65 -23.2 51.2 -23.4 51.2 -24.0 L51.3 -24.65 51.25 -25.5 M53.5 -14.25 Q54.55 -13.5 55.3 -10.2 56.1 -6.8 58.2 -5.1 L56.9 -6.0 57.0 -5.5 Q54.25 -11.5 53.5 -14.25 M60.6 -5.25 L61.05 -5.4 60.65 -5.25 60.6 -5.25 M63.05 -4.7 L65.8 -5.8 66.75 -6.15 Q68.7 -6.15 69.75 -3.95 70.5 -2.4 70.5 -0.8 70.5 -0.25 69.35 1.55 L69.15 -0.75 68.5 -2.7 Q68.5 -3.5 67.7 -4.05 66.85 -4.65 65.7 -4.65 L64.05 -4.2 64.15 -3.95 62.55 -2.7 64.0 2.0 64.2 2.2 Q64.8 2.2 65.25 2.9 65.7 3.6 65.7 4.6 L65.05 4.7 64.7 4.95 Q64.3 5.35 63.75 6.8 63.3 8.0 63.15 8.75 L63.15 8.55 63.15 4.85 62.6 5.0 62.15 1.4 61.95 3.35 Q61.95 4.0 62.1 4.3 L62.4 5.25 61.35 9.7 61.4 10.5 60.7 10.55 60.5 9.9 60.95 8.0 60.95 -1.3 60.6 -2.0 59.45 -0.85 59.6 -1.45 61.4 -2.5 Q62.45 -3.2 62.9 -4.05 L63.05 -4.7 M69.15 1.85 L68.15 2.8 67.35 3.0 67.25 3.0 67.2 2.35 67.45 0.8 67.7 0.5 Q67.7 1.05 68.15 1.45 68.55 1.85 69.15 1.85 M66.7 -2.35 L66.65 -2.55 67.0 -2.4 67.15 -2.15 66.7 -2.35 M66.0 5.85 L66.5 8.3 66.2 7.2 66.1 6.8 66.0 5.85 M66.5 9.35 Q67.0 10.6 67.75 13.95 68.55 17.6 68.4 18.45 L67.9 18.75 Q67.5 16.4 65.1 14.15 62.85 12.1 62.85 10.55 L63.05 9.55 63.25 9.1 64.1 12.8 64.45 12.5 64.95 10.6 Q65.5 10.6 65.9 10.1 66.3 9.6 66.3 8.9 L66.5 9.35 M63.05 8.95 L62.75 10.95 62.35 11.65 61.8 10.75 63.05 8.95 M61.15 30.2 L58.75 30.35 Q59.15 29.85 58.85 28.8 L60.45 28.8 59.25 29.25 61.25 30.05 61.15 30.2 M58.7 30.35 L58.55 31.0 58.2 31.25 58.15 30.8 58.05 29.6 58.7 30.35 M55.6 34.9 L53.8 36.65 Q51.95 38.3 50.55 38.7 L49.85 38.1 53.55 34.1 Q55.8 31.35 55.85 30.35 L54.25 29.6 Q54.25 29.15 53.9 28.85 53.5 28.55 53.0 28.55 L54.95 28.05 56.85 30.9 56.45 31.85 55.75 33.55 55.6 33.65 55.4 34.2 55.6 34.9 M63.05 24.5 L62.4 22.65 62.0 19.25 62.3 19.2 62.9 21.95 63.05 24.5 M61.5 19.2 L61.7 20.7 61.85 21.45 Q60.55 20.95 59.6 19.7 L59.25 18.8 59.05 22.05 Q58.8 21.7 58.05 21.7 L57.75 23.75 Q57.85 25.05 58.55 26.95 L57.8 27.2 57.2 25.55 Q56.8 23.9 57.45 19.8 L58.1 20.1 58.55 19.95 58.0 17.7 58.75 15.7 58.45 16.3 57.9 17.45 57.5 16.6 57.75 14.35 57.35 14.5 57.3 13.15 Q57.1 13.15 56.85 12.0 L56.25 13.6 54.95 15.65 54.9 15.2 53.95 15.55 53.3 15.75 55.25 10.9 55.25 11.7 56.95 11.65 56.9 10.35 Q57.3 11.7 58.1 12.05 57.9 7.95 57.55 6.15 57.05 4.0 56.4 2.6 L55.4 0.8 55.1 3.85 54.95 4.1 53.65 4.15 53.65 2.15 54.7 1.1 53.4 1.3 53.3 -0.05 53.95 -0.1 53.75 -1.0 54.65 -1.05 55.0 -0.6 55.8 0.0 56.8 0.3 58.1 1.45 58.7 5.85 58.55 5.9 59.25 8.45 Q58.8 8.6 58.8 9.8 L59.2 11.55 Q59.7 13.3 60.6 14.7 L60.4 16.3 60.8 16.25 60.8 16.95 60.6 17.85 Q60.6 18.4 60.9 18.8 L61.5 19.2 M57.35 19.7 L57.05 21.8 56.05 21.9 Q55.7 21.7 55.7 20.7 55.7 19.5 56.5 17.45 L57.35 19.7 M56.25 16.45 L54.15 22.2 53.7 22.1 Q53.55 21.95 53.55 21.3 53.55 20.1 54.2 18.3 L54.35 17.9 54.7 17.25 Q55.95 15.65 56.1 16.55 L56.15 16.0 56.25 16.45 M51.45 20.75 L50.6 21.0 Q51.15 19.1 51.15 18.2 L52.4 16.95 Q51.05 20.35 51.05 20.75 L51.45 20.75 M47.45 23.45 L47.4 22.8 47.95 21.25 49.25 18.1 Q50.15 16.3 50.5 13.95 L51.15 11.9 Q51.9 10.0 52.4 9.7 L52.8 9.6 53.1 9.8 53.25 10.4 53.25 10.65 53.1 11.15 52.4 13.35 51.35 16.75 51.1 17.6 Q50.75 16.9 50.3 17.1 48.0 22.0 48.0 22.55 48.0 23.55 48.2 23.0 L48.75 23.0 Q48.15 23.45 47.6 23.3 L47.45 23.3 47.45 23.45 M51.6 9.45 L49.45 14.35 48.6 14.5 Q48.45 14.85 48.45 13.85 48.45 11.6 51.65 5.95 L50.25 6.35 52.2 4.8 51.4 7.25 51.0 8.85 Q51.0 9.85 51.6 9.45 M49.25 6.55 L47.45 6.65 Q47.8 6.05 48.25 5.8 L52.35 3.15 52.4 3.35 Q51.7 3.65 50.8 4.5 49.6 5.55 49.25 6.55 M52.1 1.55 L48.3 2.45 47.75 1.95 49.3 1.15 Q50.8 0.4 51.95 0.2 L52.1 1.55 M53.35 -5.4 L52.65 -6.0 53.45 -6.55 53.9 -5.35 53.35 -5.4 M53.1 -7.3 L47.85 -6.2 46.4 -6.0 45.15 -5.55 Q46.05 -6.65 48.55 -7.75 51.6 -9.15 53.45 -8.35 L53.1 -7.3 M45.4 -3.8 L44.6 -2.9 Q44.25 -2.5 43.7 -2.65 L43.3 -0.05 Q42.9 1.45 41.6 1.65 L41.15 1.7 Q41.0 1.7 41.0 1.1 41.0 -0.6 42.75 -5.9 L45.2 -14.0 45.0 -12.5 45.35 -12.1 Q45.5 -12.0 45.6 -12.0 L46.25 -12.2 Q45.4 -8.35 45.0 -8.0 L46.55 -8.25 46.65 -7.7 Q46.65 -7.15 45.7 -6.45 44.55 -5.6 43.8 -3.2 L44.45 -4.1 44.55 -3.8 Q45.15 -3.65 45.4 -3.8 M45.5 -16.6 L45.25 -16.65 45.15 -17.45 Q44.95 -20.9 46.15 -20.9 46.9 -20.9 46.65 -22.6 L46.25 -25.05 46.45 -25.65 47.35 -27.6 48.0 -28.45 48.05 -25.85 47.8 -22.35 47.2 -18.35 Q46.5 -18.35 46.0 -17.8 45.5 -17.3 45.5 -16.6 M54.0 -8.1 L54.05 -8.05 52.85 -11.85 53.95 -9.0 Q54.3 -7.75 54.55 -7.35 L54.0 -8.1 M51.85 -13.5 L51.15 -13.5 Q51.0 -13.65 51.2 -15.25 51.2 -16.25 49.75 -18.5 51.05 -19.8 51.35 -21.2 L51.45 -20.9 51.75 -19.6 Q51.3 -16.75 51.3 -15.15 51.3 -14.55 51.55 -14.1 L51.85 -13.5 M49.5 -19.05 L49.2 -20.3 49.45 -21.05 49.5 -19.05 M56.65 -18.25 Q59.1 -17.4 59.2 -16.2 L59.4 -14.6 58.6 -14.65 57.3 -15.9 58.1 -16.7 56.65 -18.25 M55.15 -17.3 L53.85 -18.15 54.6 -18.95 Q54.9 -17.7 55.15 -17.3 M65.5 11.4 L66.4 13.4 67.05 13.8 65.5 11.4 M67.5 25.3 L67.3 26.2 66.75 26.55 66.25 26.2 66.0 25.3 Q66.0 24.8 66.25 24.45 66.45 24.05 66.75 24.05 67.05 24.05 67.3 24.45 L67.5 25.3 M45.6 10.15 L44.65 10.15 44.4 10.05 Q44.15 9.95 44.15 9.35 L45.3 6.65 Q46.6 3.8 47.5 2.7 L47.65 2.75 47.7 3.25 Q46.45 8.6 45.6 10.15 M39.65 14.2 L39.6 13.5 Q39.6 12.65 40.55 9.25 L41.15 7.6 41.35 9.35 Q41.35 11.05 40.8 12.75 40.25 14.6 39.65 14.2" fill="#ffffff" fill-opacity="0.4" fill-rule="evenodd" stroke="none"/>
    <path d="M66.75 -38.0 Q66.85 -37.5 66.45 -37.0 65.7 -35.9 63.5 -35.9 62.3 -35.9 62.3 -36.8 62.3 -37.75 64.95 -37.75 65.75 -38.75 66.3 -38.6 66.75 -38.55 66.75 -38.0 M71.2 -24.2 L71.2 -23.2 Q71.15 -22.6 70.8 -22.45 L70.9 -22.45 Q71.5 -22.35 71.5 -21.8 L71.2 -21.3 Q70.95 -21.05 70.7 -21.05 L69.95 -21.2 69.85 -21.75 70.45 -22.4 69.7 -22.6 Q69.6 -24.2 68.0 -25.1 L65.7 -26.55 Q64.95 -27.55 62.55 -28.9 L60.35 -30.2 Q60.35 -33.4 66.4 -28.35 68.1 -26.7 70.15 -26.0 71.2 -25.65 71.2 -24.2 M77.45 -31.75 L77.55 -31.2 77.4 -30.7 76.75 -30.2 76.0 -30.35 75.95 -30.95 Q75.95 -32.3 77.45 -31.75 M86.2 -40.2 Q86.2 -39.6 85.4 -38.85 L85.8 -38.9 86.55 -38.75 86.65 -38.2 Q86.65 -37.7 86.05 -37.5 L83.95 -36.85 83.2 -37.0 83.2 -37.25 Q81.2 -36.2 79.55 -36.1 78.1 -36.0 75.35 -34.15 L72.85 -32.35 Q72.25 -32.35 72.05 -32.8 71.95 -33.0 72.0 -33.25 72.0 -35.15 75.9 -36.6 L81.0 -38.0 82.6 -38.7 Q83.85 -39.35 84.2 -39.9 84.55 -40.5 85.35 -40.75 86.2 -41.0 86.2 -40.2 M77.8 -27.15 L77.5 -26.65 77.05 -26.35 76.25 -26.5 76.2 -26.9 77.1 -27.75 Q77.8 -28.0 77.8 -27.15 M61.45 -22.0 L61.95 -22.05 Q62.25 -20.9 61.75 -19.2 61.95 -20.55 61.45 -22.0 M56.85 -19.5 Q56.65 -19.5 56.5 -19.75 L56.35 -20.45 Q57.0 -20.75 57.7 -20.05 L58.15 -19.35 56.85 -19.5 M56.25 -20.65 L54.9 -21.25 54.75 -21.6 55.65 -21.1 56.25 -20.65 M58.2 -5.1 L58.7 -4.6 60.7 -6.35 62.75 -8.0 63.2 -7.85 63.3 -7.5 61.9 -6.2 Q60.9 -5.35 60.6 -5.25 L60.65 -5.25 60.5 -5.2 Q60.25 -5.1 60.75 -5.2 60.9 -5.1 61.15 -5.4 L61.2 -5.45 Q61.5 -5.75 62.0 -5.75 62.5 -5.75 62.7 -5.4 L63.05 -4.7 62.9 -4.05 60.4 -2.85 Q59.85 -2.55 59.55 -2.55 L59.1 -2.6 59.6 -1.45 59.45 -0.85 59.4 -0.65 58.65 -0.5 Q58.15 -0.5 57.35 -1.25 L53.95 -3.85 53.75 -4.4 Q54.7 -5.15 57.0 -5.5 L56.9 -6.0 58.2 -5.1 M69.35 1.55 L69.15 1.85 Q68.55 1.85 68.15 1.45 67.7 1.05 67.7 0.5 L67.7 -0.8 67.15 -2.15 67.0 -2.4 66.65 -2.55 64.15 -3.95 64.05 -4.2 65.7 -4.65 67.75 -3.35 68.5 -2.7 69.15 -0.75 69.35 1.55 M66.95 0.95 Q66.65 1.55 66.2 1.6 65.7 1.65 65.55 1.1 L66.1 -0.1 Q66.1 0.8 66.95 0.95 M65.7 4.6 L66.15 4.6 66.0 5.85 66.1 6.8 65.35 5.65 65.05 4.7 65.7 4.6 M66.5 8.3 L66.5 9.35 66.3 8.9 65.95 7.95 66.2 7.2 66.5 8.3 M63.25 9.1 L63.15 8.75 Q63.3 8.0 63.75 6.8 64.3 5.35 64.7 4.95 64.05 6.1 64.05 7.35 64.05 8.1 64.35 9.1 64.6 10.1 64.95 10.6 L64.45 12.5 64.1 12.8 63.25 9.1 M63.15 8.55 L63.05 8.95 61.8 10.75 61.4 10.5 61.35 9.7 62.4 5.25 62.6 5.0 63.15 4.85 63.15 8.55 M54.95 28.05 L57.2 26.9 58.05 28.4 57.5 28.4 58.05 29.6 58.15 30.8 58.1 30.6 56.85 30.9 54.95 28.05 M59.05 22.05 L59.55 25.95 59.5 26.9 58.55 26.95 Q57.85 25.05 57.75 23.75 L58.05 21.7 Q58.8 21.7 59.05 22.05 M52.8 18.8 L51.45 20.75 51.05 20.75 Q51.05 20.35 52.4 16.95 L53.3 15.75 53.95 15.55 52.35 18.2 52.45 18.9 52.8 18.8 M50.6 21.0 L49.5 22.7 48.75 23.0 48.2 23.0 Q48.0 23.55 48.0 22.55 48.0 22.0 50.3 17.1 50.75 16.9 51.1 17.6 L51.15 18.2 Q51.15 19.1 50.6 21.0 M49.25 18.1 Q48.95 18.1 48.9 18.25 L48.8 18.2 48.75 17.45 Q48.75 16.9 49.3 16.0 L50.5 13.95 Q50.15 16.3 49.25 18.1 M52.4 9.7 L52.4 9.65 Q53.15 7.55 53.65 4.15 L54.95 4.1 54.8 5.1 55.0 5.2 55.35 5.2 Q56.25 6.15 57.55 6.15 57.9 7.95 58.1 12.05 57.3 11.7 56.9 10.35 L56.95 11.65 55.25 11.7 55.25 10.9 55.4 9.35 54.15 8.15 53.65 9.3 53.25 10.4 53.1 9.8 52.8 9.6 52.4 9.7 M50.25 6.35 L49.25 6.55 Q49.6 5.55 50.8 4.5 51.7 3.65 52.4 3.35 L53.05 3.3 53.25 3.8 52.2 4.8 50.25 6.35 M58.1 1.45 Q59.45 4.65 59.45 5.8 L58.7 5.85 58.1 1.45 M51.0 -3.8 Q50.35 -2.75 50.35 -1.55 L49.05 -1.55 48.75 -2.1 48.65 -3.0 Q48.65 -5.0 53.35 -5.4 L53.9 -5.35 Q51.8 -4.55 50.9 -4.0 L51.0 -3.8 M45.2 -14.0 L45.5 -16.6 Q45.5 -17.3 46.0 -17.8 46.5 -18.35 47.2 -18.35 47.6 -18.7 47.6 -17.7 L47.25 -16.65 Q46.85 -16.15 46.8 -15.65 L46.8 -14.25 Q46.8 -12.85 46.25 -12.2 L45.6 -12.0 Q45.5 -12.0 45.35 -12.1 L45.0 -12.5 45.2 -14.0 M58.05 -26.3 Q58.05 -25.9 57.6 -25.65 L56.8 -25.4 Q55.3 -25.4 54.3 -25.85 53.45 -26.25 53.45 -26.6 53.45 -27.8 55.75 -27.35 58.05 -26.9 58.05 -26.3 M54.6 -18.95 L54.45 -19.15 55.1 -19.25 56.65 -18.25 58.1 -16.7 57.3 -15.9 55.15 -17.3 Q54.9 -17.7 54.6 -18.95 M58.85 -3.1 L58.65 -3.3 58.85 -2.95 58.85 -3.1 M67.15 -23.85 Q67.15 -23.5 66.75 -23.2 L65.95 -22.9 61.7 -23.6 57.55 -24.4 Q57.55 -25.85 62.35 -25.1 67.15 -24.4 67.15 -23.85 M68.45 -8.75 L68.5 -8.55 67.85 -8.45 Q67.4 -8.45 65.8 -9.7 L67.8 -11.4 68.25 -10.35 68.45 -8.75 M64.55 -9.15 L64.2 -8.6 63.25 -8.4 62.35 -8.6 Q61.95 -8.85 61.95 -9.15 L62.35 -9.65 63.25 -9.9 64.2 -9.65 64.55 -9.15 M60.8 16.25 L60.4 16.3 60.6 14.7 60.8 16.25 M57.35 14.5 L57.75 14.35 57.5 16.6 56.75 15.2 57.35 14.5 M53.1 11.15 L53.1 11.2 Q53.1 11.8 53.4 11.8 L54.0 11.7 Q54.1 12.55 52.9 14.5 L51.35 16.75 52.4 13.35 53.1 11.15" fill="#ffffff" fill-opacity="0.69803923" fill-rule="evenodd" stroke="none"/>
  </g>
</svg>
