<?xml version="1.0" encoding="UTF-8" standalone="no"?>
<svg xmlns:xlink="http://www.w3.org/1999/xlink" height="123.15px" width="145.0px" xmlns="http://www.w3.org/2000/svg">
  <g transform="matrix(1.0, 0.0, 0.0, 1.0, 49.5, 61.05)">
    <path d="M72.05 -58.25 L70.0 -56.25 67.85 -54.4 68.0 -53.65 68.6 -53.5 58.9 -49.1 58.4 -49.3 Q57.85 -49.55 57.8 -49.9 60.75 -52.1 66.2 -54.8 70.95 -57.15 72.05 -58.25 M63.45 -43.4 L66.55 -46.35 Q68.8 -48.7 69.55 -50.0 L70.1 -49.8 70.25 -49.0 Q70.25 -45.6 68.5 -44.6 L65.5 -43.7 63.45 -43.4 M65.6 -42.65 L66.45 -41.85 67.65 -40.55 67.3 -39.75 Q67.05 -39.3 66.6 -39.3 66.15 -39.3 64.25 -40.9 L63.0 -42.15 Q63.5 -43.1 64.1 -43.2 64.65 -43.3 65.6 -42.65 M61.1 -38.15 L60.95 -38.05 Q61.45 -40.4 61.0 -40.5 L59.9 -39.2 Q60.85 -40.75 61.5 -41.3 L63.05 -41.0 61.9 -39.75 Q61.65 -39.75 61.45 -39.4 L61.25 -38.65 61.1 -38.15 M41.5 -43.85 L45.25 -42.6 Q44.0 -41.5 43.4 -41.5 L40.7 -41.85 38.4 -42.2 39.2 -42.4 Q40.95 -42.9 41.5 -43.85 M36.35 -42.05 L33.2 -41.25 29.15 -40.15 28.2 -40.25 Q28.0 -40.3 28.0 -40.95 L29.2 -42.65 Q31.2 -44.1 35.6 -44.35 L35.3 -43.4 Q35.45 -42.45 36.0 -42.1 L35.9 -42.05 36.35 -42.05 M29.3 -43.65 Q28.05 -42.35 27.9 -42.35 27.3 -42.35 26.55 -42.65 L24.85 -43.25 22.55 -42.25 21.95 -42.35 Q21.75 -42.5 21.75 -43.15 21.75 -45.2 25.55 -45.2 27.9 -45.2 29.3 -43.65 M67.85 -30.6 Q68.85 -32.45 73.3 -33.3 L74.3 -33.5 76.9 -34.05 Q79.0 -34.6 79.65 -35.05 79.9 -34.95 79.7 -33.8 L76.95 -33.4 Q74.7 -33.0 73.65 -32.45 L73.6 -32.45 71.35 -31.9 Q69.65 -31.25 69.0 -30.35 L68.15 -30.35 67.85 -30.6 M71.8 -28.55 L71.2 -28.15 70.25 -28.95 70.9 -29.35 Q71.0 -28.85 71.8 -28.55 M79.4 -25.15 L79.1 -25.15 Q79.05 -25.05 79.0 -25.1 L78.9 -25.8 82.55 -32.3 Q82.95 -30.15 83.3 -29.9 85.75 -32.5 86.95 -35.5 L87.05 -35.0 87.2 -34.0 Q87.2 -33.55 85.75 -31.7 L81.0 -26.4 Q80.35 -26.4 79.9 -26.0 79.4 -25.65 79.4 -25.15 M83.45 -34.35 L85.9 -37.7 87.65 -38.3 88.05 -38.35 Q88.2 -38.9 88.2 -37.9 L87.5 -37.3 Q87.5 -38.25 86.9 -37.7 L83.45 -34.35 M70.1 -24.75 Q68.8 -24.75 67.9 -25.5 L67.2 -26.25 67.2 -26.3 67.0 -26.75 66.95 -27.3 66.4 -27.85 70.1 -24.75 M55.3 -48.35 L55.45 -48.2 55.5 -47.45 Q55.5 -46.95 55.05 -46.7 L52.5 -45.35 51.5 -45.6 51.4 -46.4 Q51.7 -47.6 52.7 -48.05 L55.3 -48.35 M52.5 -36.5 L52.15 -36.0 51.35 -35.85 47.5 -39.65 47.55 -40.5 47.55 -40.65 Q47.55 -40.85 48.15 -40.85 48.8 -40.85 50.0 -40.0 51.85 -38.75 52.5 -36.5 M49.9 -30.75 L54.1 -31.45 52.0 -34.35 52.0 -35.35 Q52.1 -35.65 52.75 -35.65 L54.7 -34.1 Q56.8 -32.6 57.7 -33.0 58.15 -32.4 57.35 -31.55 57.5 -31.35 58.2 -31.55 L59.0 -31.9 59.2 -32.05 59.25 -31.45 Q59.25 -30.6 58.55 -29.5 57.55 -27.9 55.85 -27.9 L55.3 -27.8 55.35 -27.85 55.85 -28.8 55.3 -29.1 54.7 -29.25 54.85 -29.35 55.3 -29.7 55.3 -30.2 53.3 -30.7 51.25 -30.95 49.9 -30.75 M55.2 -27.7 L56.3 -27.45 58.1 -26.9 Q56.95 -26.2 54.55 -26.35 54.8 -27.3 55.2 -27.7 M55.2 -24.55 L61.45 -22.0 61.25 -19.2 60.4 -19.65 59.25 -19.95 58.6 -19.9 58.6 -19.7 58.55 -19.5 60.45 -18.0 62.2 -16.85 61.75 -16.2 61.6 -15.85 63.25 -13.7 58.1 -18.65 58.1 -19.35 58.1 -19.45 Q57.1 -22.5 56.35 -23.35 55.6 -23.85 55.2 -24.55 M54.9 -21.25 L55.1 -19.8 54.7 -19.7 Q54.0 -20.0 52.9 -21.55 L51.9 -22.45 Q51.2 -23.15 51.2 -24.0 L51.25 -25.5 51.6 -26.0 52.1 -25.45 Q53.35 -22.75 54.9 -21.25 M56.1 -7.6 L57.1 -6.35 58.2 -5.1 56.9 -6.0 57.0 -5.5 56.1 -7.6 M63.05 -4.7 Q66.6 -6.7 68.7 -5.25 70.5 -3.95 70.5 -0.8 70.5 -0.45 69.35 1.55 69.05 -1.55 68.5 -2.7 68.5 -3.5 67.7 -4.05 66.85 -4.65 65.7 -4.65 L63.75 -4.2 63.05 -4.7 M69.15 1.85 L67.4 3.0 67.25 2.55 67.45 0.8 67.7 0.5 Q67.7 1.05 68.15 1.45 68.55 1.85 69.15 1.85 M68.2 16.6 L68.45 18.25 67.9 18.75 Q67.9 18.5 66.3 16.2 L63.25 11.7 63.6 10.6 64.1 12.8 64.4 12.55 64.95 10.6 65.1 10.6 Q65.1 13.1 66.0 14.85 66.9 16.6 68.2 16.6 M61.15 30.2 L58.75 30.35 Q59.15 29.85 58.85 28.8 L60.45 28.8 59.25 29.25 61.25 30.05 61.15 30.2 M58.7 30.35 L58.55 31.0 58.2 31.25 58.15 30.8 58.05 29.6 58.7 30.35 M55.6 34.9 L54.35 36.2 55.45 34.45 55.6 34.9 M51.15 20.8 L50.6 21.0 51.05 19.05 51.15 18.2 52.4 16.95 51.05 20.75 51.2 20.75 51.15 20.8 M47.45 23.6 L47.4 22.6 49.25 18.1 49.65 17.25 49.9 16.4 49.65 16.8 48.75 17.65 Q47.15 20.25 44.7 22.1 43.4 23.1 43.4 25.65 43.4 26.85 42.65 28.95 L40.8 33.75 Q38.65 39.4 37.85 40.15 36.8 41.1 28.35 44.65 L27.45 44.5 Q27.25 44.45 27.25 43.75 27.25 43.55 29.4 41.75 L31.6 40.05 32.5 40.3 32.8 41.0 Q34.4 40.8 36.55 38.15 38.75 35.45 39.0 33.3 39.1 32.5 40.1 29.15 L41.15 25.8 39.85 25.75 39.75 24.95 Q40.8 22.05 40.75 20.8 L40.85 19.45 Q40.95 19.05 41.6 19.05 L42.7 20.15 46.1 17.2 Q49.0 14.8 49.8 13.35 L49.9 12.65 48.6 14.65 48.5 14.6 48.45 13.85 Q48.45 13.15 48.9 12.35 49.95 10.6 51.65 5.95 L50.25 6.35 52.2 4.8 51.15 8.5 51.0 8.85 51.1 9.6 51.3 9.6 53.2 6.3 53.65 6.0 Q54.15 6.1 54.15 7.9 L53.2 11.45 Q52.7 12.5 51.35 16.75 L51.1 17.6 50.3 17.1 48.0 22.55 48.05 23.25 47.45 23.45 47.45 23.6 M49.25 6.55 L48.5 6.65 47.45 6.65 52.35 3.15 52.4 3.35 50.8 4.9 49.25 6.55 M52.1 1.55 Q49.6 2.25 48.25 2.15 L48.5 1.6 51.95 0.2 52.1 1.55 M47.7 2.75 L46.75 6.6 45.6 10.15 44.35 10.2 44.2 10.1 44.15 9.35 Q44.15 7.4 45.65 5.2 L47.5 2.85 47.7 2.75 M40.65 9.0 L41.15 7.6 41.25 8.5 40.65 9.0 M53.3 -0.05 L54.65 -1.05 Q57.45 1.3 58.1 1.45 L57.95 1.8 57.9 2.55 58.4 5.05 57.8 5.1 57.0 3.35 56.0 1.6 55.4 1.15 54.35 1.2 53.4 1.3 53.3 -0.05 M60.95 1.05 L60.9 -1.4 Q60.9 -2.15 61.5 -2.55 64.05 1.95 64.95 4.8 L64.7 4.95 63.35 8.0 63.2 7.35 63.15 4.85 62.6 5.0 62.15 1.4 62.0 2.85 Q61.5 0.9 60.95 1.05 M59.6 -1.45 L60.55 -1.9 59.45 -0.85 59.6 -1.45 M53.35 -5.4 L52.65 -6.0 53.45 -6.55 53.9 -5.35 53.35 -5.4 M53.1 -7.3 L47.85 -6.2 46.4 -5.95 46.5 -4.85 Q46.15 -3.35 42.55 2.55 L38.5 8.85 37.5 8.6 37.4 7.9 Q40.45 3.15 42.4 -3.6 L41.95 -1.85 43.15 -3.55 Q44.75 -5.95 44.75 -7.7 44.75 -9.9 44.4 -10.6 L45.2 -14.0 Q45.1 -12.4 45.6 -12.0 L46.25 -12.2 45.5 -9.3 45.0 -8.0 45.8 -8.15 Q46.6 -8.3 46.65 -8.45 46.65 -7.6 46.0 -6.55 L49.95 -7.55 53.45 -8.35 53.1 -7.3 M45.5 -16.6 L45.35 -16.8 45.15 -18.2 Q45.05 -18.75 45.9 -20.2 L46.75 -21.8 46.5 -24.25 46.25 -25.0 Q45.1 -24.0 43.75 -17.85 42.55 -12.35 39.6 -11.3 L40.9 -17.1 41.15 -21.75 41.95 -23.7 Q42.9 -25.75 44.0 -26.95 44.35 -26.4 44.0 -24.7 L46.25 -26.95 Q47.65 -28.45 48.3 -28.55 48.45 -29.2 48.45 -28.2 L47.2 -18.35 Q46.5 -18.35 46.0 -17.8 45.5 -17.3 45.5 -16.6 M54.0 -8.1 L54.05 -8.05 52.85 -11.85 54.55 -7.35 54.0 -8.1 M51.85 -13.5 L51.15 -13.5 Q51.3 -15.2 51.0 -15.85 L49.75 -18.5 50.5 -19.6 51.35 -21.2 51.85 -13.5 M49.5 -19.05 L49.4 -19.75 Q49.3 -20.6 49.45 -21.05 L49.5 -19.05 M50.45 -27.3 L50.4 -28.1 51.45 -26.2 51.25 -26.2 51.0 -26.5 50.45 -27.3 M50.4 -28.7 L50.05 -28.65 Q49.6 -28.7 49.6 -29.9 L50.4 -28.7 M56.65 -18.25 L57.95 -17.7 Q59.0 -17.15 59.3 -16.15 L59.5 -15.4 59.4 -14.6 57.3 -15.9 58.1 -16.7 56.65 -18.25 M55.15 -17.3 L53.85 -18.15 54.6 -18.95 55.15 -17.3 M66.7 -2.35 L66.65 -2.55 67.15 -2.15 66.7 -2.35 M61.5 19.2 L61.85 21.45 59.6 19.7 59.25 18.8 59.05 22.05 58.05 21.7 Q57.75 23.0 57.75 23.75 57.75 24.65 58.55 26.95 L57.8 27.2 Q57.15 24.85 57.35 20.7 L57.5 20.2 57.6 19.95 58.55 20.1 59.25 16.95 59.95 13.6 60.6 14.7 60.4 16.3 60.8 16.25 60.6 17.85 Q60.8 18.9 61.5 19.2 M63.05 24.5 L62.4 22.65 Q62.15 21.9 62.0 19.25 L62.8 19.2 63.05 24.5 M67.5 25.3 L67.3 26.2 66.75 26.55 66.25 26.2 66.0 25.3 Q66.0 24.8 66.25 24.45 66.45 24.05 66.75 24.05 67.05 24.05 67.3 24.45 L67.5 25.3 M53.65 2.15 L54.1 1.7 54.0 2.7 54.45 4.1 53.65 4.15 53.65 2.15 M53.3 15.75 L55.25 10.9 Q55.25 12.4 54.9 13.35 L53.95 15.55 53.3 15.75 M41.1 10.4 L40.95 11.35 40.35 12.3 40.6 11.9 41.1 10.4 M53.9 28.7 L55.5 30.15 55.45 30.15 54.3 29.6 53.9 28.7 M55.75 31.3 L54.75 33.0 52.65 35.75 55.75 31.3 M-47.0 -0.8 L-46.85 -0.7 -46.8 0.0 -47.25 1.05 Q-47.75 2.0 -48.3 2.15 -49.5 1.65 -49.5 0.65 -49.5 -1.25 -47.0 -0.8 M-19.3 -18.7 Q-26.25 -14.65 -27.75 -15.0 L-27.9 -15.15 -28.1 -15.75 -21.6 -20.7 Q-16.25 -24.65 -9.15 -26.0 L-8.75 -25.5 -8.3 -25.1 -11.35 -24.0 -11.5 -23.95 Q-12.95 -24.1 -15.8 -22.3 -18.8 -20.45 -19.3 -18.7 M-34.25 -4.8 L-34.5 -4.0 -35.0 -4.1 -34.25 -4.8 M-40.9 0.9 L-41.8 1.05 -42.55 1.0 -42.8 0.95 -42.9 0.3 Q-42.9 -0.4 -41.15 -1.65 -38.8 -3.25 -37.6 -4.25 -39.8 -2.0 -40.9 0.9 M-37.3 -4.5 Q-36.05 -7.55 -33.15 -9.15 -31.5 -10.1 -27.4 -11.25 -27.25 -11.55 -27.25 -10.55 -27.25 -9.55 -28.25 -8.95 L-32.2 -7.35 Q-34.6 -7.2 -37.3 -4.5 M-42.9 24.5 L-43.0 20.05 Q-43.0 16.2 -38.95 9.3 -35.2 2.85 -32.4 0.8 L-31.9 0.85 -31.75 1.8 Q-31.6 3.1 -33.05 5.4 -34.55 7.75 -38.35 12.35 L-38.85 12.95 -39.55 13.8 Q-39.5 13.9 -38.95 13.5 L-38.95 14.35 -37.8 14.55 Q-36.1 12.9 -35.85 11.6 L-34.75 11.8 -34.55 12.6 Q-38.3 15.9 -38.6 18.8 L-39.75 19.65 -40.05 20.1 -40.0 20.65 -39.4 20.8 -40.5 22.35 Q-41.0 23.9 -40.7 28.2 L-40.9 28.35 -41.75 28.5 Q-42.35 28.5 -42.45 28.1 L-42.55 27.25 Q-42.35 25.05 -42.9 24.5 M-13.25 51.3 Q-12.45 50.8 -11.6 50.65 L-11.25 50.8 Q-11.1 50.9 -11.1 51.55 -11.1 52.85 -14.55 55.3 -18.0 57.75 -19.95 57.75 L-20.95 57.65 -21.3 56.8 Q-19.85 55.5 -17.5 54.3 -17.25 55.1 -16.3 55.1 -15.9 55.1 -14.6 53.85 -13.25 52.55 -13.25 51.9 L-13.25 51.3" fill="#ffffff" fill-opacity="0.4" fill-rule="evenodd" stroke="none"/>
    <path d="M65.5 -43.7 Q66.15 -43.4 66.05 -43.0 65.95 -42.85 65.75 -43.25 65.6 -43.7 65.6 -42.65 64.65 -43.3 64.1 -43.2 63.5 -43.1 63.0 -42.15 L64.25 -40.9 62.9 -38.95 61.55 -37.35 61.1 -38.15 61.25 -38.65 61.9 -39.75 63.05 -41.0 61.5 -41.3 59.35 -41.35 Q57.4 -41.35 56.0 -40.55 54.55 -39.5 53.5 -39.05 L53.4 -38.95 Q53.25 -39.0 53.25 -39.6 53.25 -41.35 56.1 -42.05 L63.45 -43.4 65.5 -43.7 M60.95 -38.05 L60.35 -36.4 59.1 -35.4 Q58.65 -35.55 58.5 -36.35 L59.9 -39.2 61.0 -40.5 Q61.45 -40.4 60.95 -38.05 M66.95 -27.3 L64.3 -29.4 Q61.7 -31.1 59.8 -30.25 L59.65 -30.4 Q59.45 -30.55 59.45 -31.15 59.45 -32.7 61.65 -32.7 L64.2 -32.2 Q66.65 -31.55 67.85 -30.6 L68.15 -30.35 68.9 -29.75 70.25 -28.95 71.2 -28.15 Q72.1 -27.8 72.7 -26.75 73.45 -25.55 73.2 -24.15 L71.2 -27.15 69.95 -28.2 69.65 -28.05 69.5 -27.2 Q72.6 -24.1 72.8 -22.15 72.9 -21.05 73.1 -21.05 74.1 -21.05 73.75 -21.25 L73.95 -21.9 74.6 -20.85 78.0 -23.45 Q79.2 -24.6 79.4 -25.15 79.4 -25.65 79.9 -26.0 80.35 -26.4 81.0 -26.4 L81.05 -26.0 Q80.15 -24.0 78.35 -22.0 76.3 -19.8 75.1 -19.95 76.45 -18.1 76.85 -15.95 77.2 -14.15 76.75 -13.0 76.4 -15.0 75.7 -16.65 74.85 -18.55 73.8 -19.2 L70.1 -24.75 66.4 -27.85 66.95 -27.3 M74.3 -33.5 L73.9 -33.45 73.3 -33.75 Q73.15 -33.85 73.15 -34.05 73.15 -34.3 76.6 -35.7 L80.4 -37.25 Q81.2 -37.65 83.0 -39.5 84.1 -40.6 86.5 -40.4 L86.6 -39.85 Q85.1 -37.8 82.25 -36.4 L79.05 -34.85 76.9 -34.05 74.3 -33.5 M79.7 -33.8 L80.3 -33.5 Q80.6 -33.3 80.6 -32.65 80.6 -30.75 78.55 -30.55 L75.7 -30.45 74.5 -29.7 71.8 -28.55 Q71.0 -28.85 70.9 -29.35 L71.1 -30.6 71.8 -31.4 69.8 -30.65 Q69.45 -30.45 69.0 -30.35 69.65 -31.25 71.35 -31.9 L73.6 -32.45 73.65 -32.45 Q74.7 -33.0 76.95 -33.4 L79.7 -33.8 M82.55 -32.3 L83.45 -34.35 86.9 -37.7 Q87.5 -38.25 87.5 -37.3 L87.5 -37.25 86.95 -35.5 Q85.75 -32.5 83.3 -29.9 82.95 -30.15 82.55 -32.3 M67.2 -26.25 L67.0 -25.85 Q66.8 -25.65 66.5 -25.65 L66.0 -25.85 65.8 -26.3 66.0 -26.75 66.5 -26.95 67.0 -26.75 67.2 -26.3 67.2 -26.25 M49.6 -29.9 L49.9 -30.75 51.25 -30.95 53.3 -30.7 55.3 -30.2 55.3 -29.7 54.85 -29.35 53.85 -29.35 52.2 -29.1 Q50.95 -28.8 50.45 -28.5 L50.4 -28.7 49.6 -29.9 M54.5 -26.25 L54.75 -24.95 54.15 -25.6 54.5 -26.25 M61.45 -22.0 L61.95 -22.05 61.55 -23.05 61.55 -24.3 Q61.6 -24.65 62.25 -24.65 L64.25 -23.45 Q65.75 -22.45 68.5 -22.15 L69.3 -20.9 Q69.05 -20.65 68.25 -20.55 L66.7 -20.5 66.85 -18.75 67.4 -19.05 68.0 -17.85 68.3 -16.15 67.75 -15.05 67.15 -13.75 Q67.15 -12.75 68.55 -11.0 L69.9 -9.35 Q69.9 -8.45 69.45 -7.7 L68.55 -7.5 Q67.9 -8.15 66.7 -8.85 66.2 -9.15 66.2 -10.0 66.2 -11.5 65.5 -11.85 64.15 -12.5 63.25 -13.7 L61.6 -15.85 61.75 -16.2 62.2 -16.85 Q63.3 -16.85 64.4 -15.75 L65.05 -16.2 Q63.55 -17.85 61.25 -19.2 L61.45 -22.0 M55.25 -21.1 L54.9 -21.25 Q53.35 -22.75 52.1 -25.45 L53.55 -23.8 55.1 -21.5 55.15 -21.4 55.25 -21.1 M54.15 -12.45 L54.25 -13.45 54.3 -13.6 54.95 -13.8 Q56.3 -13.8 58.05 -10.85 L59.55 -7.85 59.45 -6.45 58.9 -6.25 57.9 -6.1 Q57.1 -6.1 55.1 -9.9 L54.6 -10.95 Q54.1 -12.05 54.15 -12.45 M58.2 -5.1 L58.7 -4.6 62.75 -8.0 63.3 -7.5 60.6 -5.25 60.95 -5.5 62.0 -5.75 63.05 -4.7 63.75 -4.2 65.7 -4.65 66.3 -4.25 68.5 -2.7 Q69.05 -1.55 69.35 1.55 L69.15 1.85 Q68.55 1.85 68.15 1.45 67.7 1.05 67.7 0.5 L67.55 -0.8 67.15 -2.15 66.65 -2.55 64.25 -3.85 65.65 -1.95 66.95 0.95 67.25 2.55 67.4 3.0 69.2 14.85 Q69.2 16.15 68.2 16.6 66.9 16.6 66.0 14.85 65.1 13.1 65.1 10.6 65.3 8.2 64.95 4.8 64.05 1.95 61.5 -2.55 L61.0 -3.55 Q60.15 -2.55 59.6 -1.45 L59.45 -0.85 59.4 -0.7 59.5 -0.5 Q58.35 -0.5 53.95 -3.85 53.95 -4.55 54.85 -5.0 55.75 -5.5 57.0 -5.5 L56.9 -6.0 58.2 -5.1 M45.4 42.95 L40.15 46.05 Q36.0 48.45 35.0 48.5 L35.6 48.35 Q35.9 48.25 35.9 47.6 L35.75 47.0 35.6 47.15 Q35.0 47.2 35.2 46.95 L35.55 46.75 35.3 46.4 35.4 46.35 Q37.3 46.25 38.5 45.65 L39.8 44.8 39.5 44.3 Q40.15 44.0 39.7 44.0 L48.75 36.4 Q52.95 32.4 52.95 30.05 L52.75 30.05 50.8 31.5 49.8 30.9 Q49.45 30.7 49.45 30.4 L51.15 27.05 Q51.15 26.45 50.75 26.05 L50.3 25.75 51.35 22.85 51.8 20.95 51.75 20.35 51.65 20.5 51.2 20.75 51.05 20.75 52.4 16.95 53.3 15.75 53.95 15.55 54.9 13.35 Q55.25 12.4 55.25 10.9 L54.85 8.9 54.15 7.9 Q54.15 6.1 53.65 6.0 L53.2 6.3 53.65 4.15 54.45 4.1 54.0 2.7 54.1 1.7 54.35 1.2 55.4 1.15 56.0 1.6 57.0 3.35 57.8 5.1 58.4 5.05 57.9 2.55 57.95 1.8 58.1 1.45 58.1 1.25 58.8 1.05 59.55 1.25 60.05 1.8 Q60.45 4.1 60.2 8.5 L59.9 8.1 59.8 8.1 58.7 14.35 57.5 20.2 57.35 20.7 56.35 22.25 54.75 22.65 53.65 22.4 52.6 24.15 Q53.2 24.9 53.8 26.4 L53.8 27.85 53.9 28.7 54.3 29.6 54.25 30.2 54.0 31.5 55.45 30.15 55.5 30.15 55.85 31.0 55.75 31.3 52.65 35.75 Q51.55 38.25 48.8 39.95 46.05 41.7 45.4 42.95 M45.85 34.7 L45.95 34.65 46.0 35.35 Q46.0 36.95 45.45 37.4 L43.8 37.9 43.1 37.7 43.0 36.25 Q43.0 35.6 43.85 35.15 44.65 34.7 45.85 34.7 M50.6 21.0 L49.5 22.7 48.75 23.0 48.2 23.2 48.05 23.25 48.0 22.55 50.3 17.1 51.1 17.6 51.15 18.2 51.05 19.05 50.6 21.0 M49.25 18.1 L48.9 18.3 Q49.2 18.05 48.75 17.65 L49.65 16.8 49.9 16.4 49.65 17.25 49.25 18.1 M50.25 6.35 L49.25 6.55 50.8 4.9 52.4 3.35 Q52.9 3.35 53.15 3.6 L53.35 4.15 52.95 4.65 52.2 4.8 50.25 6.35 M51.0 -3.8 L50.35 -1.55 49.05 -1.55 Q48.65 -2.0 48.65 -3.0 48.65 -4.2 50.4 -4.8 L53.35 -5.4 53.9 -5.35 50.9 -4.0 51.0 -3.8 M45.2 -14.0 L45.5 -16.6 Q45.5 -17.3 46.0 -17.8 46.5 -18.35 47.2 -18.35 L47.55 -18.5 47.6 -17.95 Q46.85 -13.55 46.25 -12.2 L45.6 -12.0 Q45.1 -12.4 45.2 -14.0 M54.6 -18.95 L54.6 -19.05 55.1 -19.25 56.65 -18.25 58.1 -16.7 57.3 -15.9 55.15 -17.3 54.6 -18.95 M62.55 -19.4 L64.15 -18.55 64.2 -19.2 63.6 -19.95 62.55 -19.4 M72.0 -7.05 L70.75 -8.65 70.35 -9.45 70.4 -10.2 70.65 -10.5 72.1 -8.9 Q72.45 -8.25 72.0 -7.05 M64.55 -9.15 L64.2 -8.6 63.25 -8.4 62.35 -8.6 Q61.95 -8.85 61.95 -9.15 L62.35 -9.65 63.25 -9.9 64.2 -9.65 64.55 -9.15 M92.4 -34.7 L91.95 -34.6 Q91.8 -34.6 91.8 -35.2 L92.55 -37.4 93.7 -41.6 94.05 -41.75 Q94.5 -34.85 92.4 -34.7 M84.55 -33.2 L84.6 -33.45 84.6 -33.65 84.25 -32.95 84.55 -33.2 M62.6 5.0 L63.15 4.85 63.2 7.35 62.6 5.0 M63.35 8.0 L64.7 4.95 64.2 6.25 Q64.05 6.7 64.05 7.35 64.05 8.4 64.95 10.6 L64.4 12.55 64.1 12.8 63.6 10.6 63.55 9.0 63.35 8.0 M61.4 7.35 Q61.6 7.35 61.7 8.85 L61.6 8.85 61.4 7.35 M59.05 22.05 L59.55 25.2 59.55 26.9 58.55 26.95 Q57.75 24.65 57.75 23.75 57.75 23.0 58.05 21.7 L59.05 22.05 M55.2 27.95 L57.2 26.9 58.05 28.4 57.5 28.4 58.05 29.6 58.15 30.8 56.75 29.45 Q56.05 28.55 55.2 27.95 M60.8 16.25 L60.4 16.3 60.6 14.7 60.8 16.25 M53.2 11.45 L53.65 11.7 54.05 12.05 53.05 14.1 51.35 16.75 Q52.7 12.5 53.2 11.45 M13.75 49.05 L13.0 48.9 Q13.55 47.7 15.65 46.8 17.2 46.05 18.15 46.0 L19.2 46.2 Q19.2 47.45 18.75 48.0 17.55 49.4 13.75 49.05 M-11.35 -24.0 L-11.25 -23.25 Q-11.25 -22.3 -13.95 -20.45 -16.95 -18.4 -19.3 -18.5 L-19.3 -18.7 Q-18.8 -20.45 -15.8 -22.3 -12.95 -24.1 -11.5 -23.95 L-11.35 -24.0 M-32.2 -7.35 L-32.15 -7.0 -34.25 -4.8 -35.0 -4.1 Q-36.7 -4.1 -37.9 -2.55 -39.1 -1.0 -39.1 1.2 -39.15 1.7 -39.45 1.95 L-40.15 2.15 -40.7 1.7 -40.9 0.9 Q-39.8 -2.0 -37.6 -4.25 L-37.3 -4.5 Q-34.6 -7.2 -32.2 -7.35 M-38.35 12.35 L-38.05 12.15 Q-37.15 11.6 -35.85 11.6 -36.1 12.9 -37.8 14.55 L-38.95 14.35 -38.95 13.5 -38.85 12.95 -38.35 12.35 M-38.6 18.8 L-38.2 18.85 Q-38.0 18.9 -38.0 19.5 -38.0 20.15 -39.4 20.8 L-40.0 20.65 -40.05 20.1 -39.75 19.65 -38.6 18.8 M-24.4 28.25 L-25.1 28.2 -25.25 27.45 -24.35 25.5 Q-23.3 23.6 -22.4 22.9 -22.1 23.95 -22.5 25.5 -23.05 27.35 -24.4 28.25 M-37.7 54.5 L-37.9 55.0 -38.75 55.25 -39.8 54.7 Q-41.05 53.8 -42.3 51.75 L-42.35 51.0 Q-42.3 50.55 -41.7 50.55 -40.85 50.55 -39.7 51.5 -38.25 52.65 -37.7 54.5 M-30.2 60.25 Q-29.5 58.55 -27.75 57.8 L-26.1 57.4 Q-25.45 57.4 -25.35 57.75 L-25.35 58.45 -27.85 59.2 Q-29.55 59.85 -30.2 60.25" fill="#ffffff" fill-opacity="0.69803923" fill-rule="evenodd" stroke="none"/>
    <path d="M68.6 -53.5 L68.0 -53.65 67.85 -54.4 70.0 -56.25 72.05 -58.25 Q72.95 -60.4 74.65 -61.05 L75.4 -60.9 Q75.6 -60.8 75.6 -60.15 75.25 -58.4 74.15 -56.7 72.05 -53.35 68.6 -53.5 M35.6 -44.35 L36.4 -44.35 39.75 -45.0 Q40.4 -45.0 41.5 -43.85 40.95 -42.9 39.2 -42.4 L38.4 -42.2 36.55 -42.05 36.35 -42.05 35.9 -42.05 36.0 -42.1 Q35.45 -42.45 35.3 -43.4 L35.6 -44.35 M73.2 -24.15 Q73.95 -22.65 73.95 -21.9 L73.75 -21.25 Q74.1 -21.05 73.1 -21.05 72.9 -21.05 72.8 -22.15 72.6 -24.1 69.5 -27.2 L69.65 -28.05 69.95 -28.2 71.2 -27.15 73.2 -24.15 M76.75 -13.0 L77.95 -13.0 78.15 -12.8 78.3 -12.05 Q76.8 -10.0 74.7 -10.55 L74.4 -11.25 73.85 -15.35 73.5 -18.0 Q73.5 -18.75 73.8 -19.2 74.85 -18.55 75.7 -16.65 76.4 -15.0 76.75 -13.0 M55.3 -27.8 L55.05 -27.75 55.2 -27.7 Q54.8 -27.3 54.55 -26.35 L54.5 -26.25 54.15 -25.6 54.75 -24.95 55.2 -24.55 Q55.6 -23.85 56.35 -23.35 57.1 -22.5 58.1 -19.45 L58.1 -19.35 58.1 -18.65 Q56.9 -18.65 56.1 -19.35 55.25 -20.1 55.25 -21.1 L55.15 -21.4 55.1 -21.5 53.55 -23.8 52.1 -25.45 51.6 -26.0 51.45 -26.2 50.4 -28.1 50.45 -28.5 Q50.95 -28.8 52.2 -29.1 L53.85 -29.35 54.7 -29.25 55.3 -29.1 55.85 -28.8 55.35 -27.85 55.3 -27.8 M52.9 -21.55 L52.7 -17.15 Q52.7 -15.8 53.1 -14.95 L54.15 -12.45 Q54.1 -12.05 54.6 -10.95 L55.1 -9.9 56.1 -7.6 57.0 -5.5 Q55.75 -5.5 54.85 -5.0 53.95 -4.55 53.95 -3.85 L52.4 -2.65 51.0 -3.8 50.9 -4.0 53.9 -5.35 53.45 -6.55 53.1 -7.3 53.45 -8.35 54.0 -8.1 54.55 -7.35 52.85 -11.85 51.85 -13.5 51.35 -21.2 50.5 -19.6 49.75 -18.5 49.5 -19.05 49.45 -21.05 49.0 -25.65 49.4 -25.7 50.45 -27.3 51.0 -26.5 51.25 -26.2 51.25 -25.5 51.2 -24.0 Q51.2 -23.15 51.9 -22.45 L52.9 -21.55 M63.25 11.7 Q66.2 20.7 66.2 21.5 66.2 22.85 65.3 25.85 L64.35 29.3 64.3 29.3 64.2 29.3 64.15 29.35 63.85 29.35 63.7 29.35 63.7 29.4 63.55 29.4 63.5 29.45 63.4 29.45 63.25 29.5 63.2 29.5 63.05 29.55 62.95 29.6 62.8 29.65 62.65 29.75 62.55 29.8 62.4 29.85 62.3 29.9 62.2 29.95 62.0 29.95 61.8 30.0 61.6 30.05 61.45 30.1 61.3 30.15 61.15 30.2 61.25 30.05 59.25 29.25 60.45 28.8 Q61.55 28.8 62.3 27.55 63.05 26.3 63.05 24.5 L62.8 19.2 62.0 19.25 61.5 19.2 Q60.8 18.9 60.6 17.85 L60.8 16.25 60.6 14.7 59.95 13.6 59.25 16.95 58.55 20.1 57.6 19.95 57.5 20.2 58.7 14.35 59.8 8.1 59.9 8.1 60.2 8.5 Q60.45 4.1 60.05 1.8 60.35 1.35 60.95 1.05 61.5 0.9 62.0 2.85 L62.6 5.0 63.2 7.35 63.35 8.0 63.55 9.0 63.6 10.6 63.25 11.7 M58.75 30.35 L58.7 30.35 58.05 29.6 57.5 28.4 58.05 28.4 58.85 28.8 Q59.15 29.85 58.75 30.35 M58.2 31.25 Q58.2 32.75 57.45 33.85 56.7 34.9 55.6 34.9 L55.45 34.45 54.35 36.2 Q52.95 38.3 51.7 39.05 L51.45 40.15 51.35 40.15 51.3 40.15 51.25 40.2 51.15 40.25 51.0 40.35 50.85 40.4 50.7 40.5 50.55 40.55 50.45 40.6 50.35 40.65 50.25 40.75 50.1 40.85 50.0 40.85 49.85 40.95 49.7 41.0 49.65 41.05 49.55 41.1 49.45 41.2 49.35 41.3 49.3 41.35 49.25 41.45 49.1 41.5 49.1 41.55 49.05 41.45 47.45 42.45 Q46.2 43.15 45.4 42.95 46.05 41.7 48.8 39.95 51.55 38.25 52.65 35.75 L54.75 33.0 55.75 31.3 55.85 31.0 55.5 30.15 53.9 28.7 53.8 27.85 53.8 26.4 55.2 27.95 Q56.05 28.55 56.75 29.45 L58.15 30.8 58.2 31.25 M35.0 48.5 L34.85 48.8 34.75 48.8 34.45 48.85 34.35 48.85 34.3 48.85 34.2 48.8 34.1 48.75 33.95 48.75 33.8 48.75 33.65 48.75 33.45 48.75 33.35 48.75 33.2 48.75 33.05 48.7 32.95 48.7 32.85 48.7 32.7 48.7 32.4 48.75 32.1 48.8 31.9 48.8 31.8 48.8 31.7 48.8 31.55 48.75 31.4 48.75 31.3 48.75 31.15 48.75 30.95 48.75 30.9 48.75 30.8 48.75 30.65 48.75 30.5 48.75 30.25 48.8 30.0 48.8 29.9 48.8 29.8 48.8 29.65 48.8 29.25 48.85 29.1 48.9 28.5 48.75 26.4 47.7 Q28.15 46.3 32.4 45.4 L39.5 44.3 39.8 44.8 38.5 45.65 Q37.3 46.25 35.4 46.35 L35.3 46.4 35.55 46.75 35.2 46.95 Q35.0 47.2 35.6 47.15 L35.75 47.0 35.9 47.6 Q35.9 48.25 35.6 48.35 L35.0 48.5 M50.3 25.75 L48.3 30.45 Q46.75 33.9 45.85 34.7 44.65 34.7 43.85 35.15 43.0 35.6 43.0 36.25 42.75 36.85 42.75 35.85 42.75 35.25 43.5 34.25 L45.9 31.5 48.6 26.15 51.15 20.8 51.2 20.75 51.65 20.5 51.75 20.35 51.8 20.95 51.35 22.85 50.3 25.75 M49.5 22.7 L47.7 25.55 47.5 25.7 47.45 23.6 47.45 23.45 48.05 23.25 48.2 23.2 48.75 23.0 49.5 22.7 M52.35 3.15 L52.1 1.55 51.95 0.2 52.0 -0.7 52.3 -1.55 Q52.5 -1.85 52.75 -1.75 L53.15 -1.25 53.3 -0.05 53.4 1.3 53.65 2.15 53.65 4.15 53.2 6.3 51.3 9.6 51.1 9.6 51.0 8.85 51.15 8.5 52.2 4.8 52.95 4.65 53.35 4.15 53.15 3.6 Q52.9 3.35 52.4 3.35 L52.35 3.15 M48.25 2.15 L47.7 2.75 47.5 2.85 46.85 2.85 46.8 1.95 Q43.6 7.4 42.85 9.75 42.45 11.2 40.7 13.4 L40.65 13.55 39.7 17.6 Q38.7 21.45 37.8 22.4 L37.35 22.4 Q37.2 22.4 37.2 21.75 37.2 20.2 38.65 14.95 40.05 9.8 40.65 9.0 L41.25 8.5 Q42.3 7.85 44.95 3.3 47.6 -1.25 48.6 -1.8 L48.75 -1.85 48.85 -0.4 48.5 1.6 48.25 2.15 M47.85 -6.2 L46.5 -4.85 46.4 -5.95 47.85 -6.2 M42.4 -3.6 L43.15 -6.45 Q43.3 -10.9 43.75 -11.35 L44.4 -10.6 Q44.75 -9.9 44.75 -7.7 44.75 -5.95 43.15 -3.55 L41.95 -1.85 42.4 -3.6 M62.2 -16.85 L60.45 -18.0 58.55 -19.5 58.6 -19.7 58.6 -19.9 59.25 -19.95 60.4 -19.65 61.25 -19.2 Q63.55 -17.85 65.05 -16.2 L64.4 -15.75 Q63.3 -16.85 62.2 -16.85 M65.65 -1.95 L66.7 -2.35 67.15 -2.15 67.55 -0.8 67.7 0.5 67.45 0.8 66.95 0.95 65.65 -1.95 M95.5 -44.7 Q95.5 -43.85 95.1 -43.25 94.7 -42.65 94.15 -42.65 93.6 -42.65 93.2 -43.25 92.8 -43.85 92.8 -44.7 92.8 -45.55 93.2 -46.15 93.6 -46.75 94.15 -46.75 94.7 -46.75 95.1 -46.15 95.5 -45.55 95.5 -44.7 M64.7 4.95 L64.95 4.8 Q65.3 8.2 65.1 10.6 L64.95 10.6 Q64.05 8.4 64.05 7.35 64.05 6.7 64.2 6.25 L64.7 4.95 M61.4 7.35 L61.6 8.85 61.7 8.85 Q61.6 7.35 61.4 7.35 M56.35 22.25 L54.95 23.5 54.75 22.65 56.35 22.25 M41.1 10.4 L40.6 11.9 40.35 12.3 40.95 11.35 41.1 10.4 M-34.5 -4.0 L-34.2 -3.9 -34.1 -3.15 -35.75 -1.25 Q-37.65 0.75 -39.1 1.2 -39.1 -1.0 -37.9 -2.55 -36.7 -4.1 -35.0 -4.1 L-34.5 -4.0 M-42.55 27.25 L-43.95 28.5 -44.8 27.3 Q-44.8 25.85 -44.15 25.2 L-42.9 24.5 Q-42.35 25.05 -42.55 27.25 M-17.5 54.3 Q-17.5 53.1 -16.3 52.25 -15.1 51.35 -13.4 51.35 L-13.3 51.25 -13.25 51.3 -13.25 51.9 Q-13.25 52.55 -14.6 53.85 -15.9 55.1 -16.3 55.1 -17.25 55.1 -17.5 54.3 M-25.35 58.45 L-22.75 58.25 -22.6 58.3 -22.5 59.05 Q-22.5 60.5 -25.85 61.4 L-30.25 62.1 -30.75 62.1 -30.8 61.35 -30.65 60.65 -30.2 60.25 Q-29.55 59.85 -27.85 59.2 L-25.35 58.45" fill="#ffffff" fill-rule="evenodd" stroke="none"/>
  </g>
</svg>
