<?xml version="1.0" encoding="UTF-8" standalone="no"?>
<svg xmlns:xlink="http://www.w3.org/1999/xlink" height="242.1px" width="136.05px" xmlns="http://www.w3.org/2000/svg">
  <g transform="matrix(1.0, 0.0, 0.0, 1.0, 68.0, 121.65)">
    <path d="M19.8 -100.35 Q21.55 -112.4 31.7 -120.5 L23.7 -78.75 Q22.1 -72.4 21.8 -63.5 20.8 -73.15 18.35 -76.5 18.5 -57.9 22.0 -49.95 22.35 -43.9 23.1 -37.0 20.7 -33.8 17.2 -32.5 7.1 -28.7 6.45 -37.35 3.85 -51.9 9.8 -65.6 0.9 -54.5 -9.95 -53.55 -20.55 -50.2 -12.85 -60.95 10.95 -79.75 17.95 -95.3 19.4 -92.95 17.4 -82.35 L18.75 -88.2 Q21.3 -99.45 19.8 -100.35" fill="#e78157" fill-rule="evenodd" stroke="none"/>
    <path d="M31.7 -120.5 Q32.55 -83.15 46.1 -56.7 L47.0 -52.15 Q49.1 -40.85 48.35 -35.85 47.1 -23.8 39.9 -30.25 32.65 -39.55 28.4 -56.85 27.8 -43.25 23.1 -37.0 22.35 -43.9 22.0 -49.95 18.5 -57.9 18.35 -76.5 20.8 -73.15 21.8 -63.5 22.1 -72.4 23.7 -78.75 L31.7 -120.5 M17.95 -95.3 L19.8 -100.35 Q21.3 -99.45 18.75 -88.2 L17.4 -82.35 Q19.4 -92.95 17.95 -95.3" fill="#e05a36" fill-rule="evenodd" stroke="none"/>
    <path d="M46.1 -56.7 L48.2 -52.55 47.0 -52.15 46.1 -56.7 M58.7 -21.75 L60.35 -27.85 60.1 -21.7 58.7 -21.75 M-45.55 95.65 Q-47.65 88.65 -48.6 81.65 -51.35 70.75 -55.25 57.35 L-57.85 49.3 Q-74.45 15.35 -62.2 -14.8 -58.75 -23.5 -54.15 -30.1 -54.75 -26.1 -56.1 -23.3 -39.8 -46.75 -17.7 -57.2 L-12.85 -60.95 Q-20.55 -50.2 -9.95 -53.55 0.9 -54.5 9.8 -65.6 3.85 -51.9 6.45 -37.35 7.1 -28.7 17.2 -32.5 20.7 -33.8 23.1 -37.0 28.7 4.4 14.3 35.95 16.1 22.5 12.85 15.3 11.9 34.0 5.55 51.6 2.15 56.6 -1.85 61.35 3.7 53.9 -0.85 46.65 -3.5 62.95 -10.95 71.05 -25.35 84.75 -45.55 95.65 M-10.25 -37.4 Q-15.45 -28.4 -23.0 -20.7 -22.35 -15.2 -14.9 -25.95 L-10.25 -37.4 M-8.2 39.4 Q-9.25 45.7 -7.85 44.0 L-1.85 36.35 Q1.75 30.5 2.4 22.8 0.0 27.0 -2.35 27.0 -1.3 18.1 -3.65 9.25 -4.9 28.5 -8.2 39.4" fill="#fae680" fill-rule="evenodd" stroke="none"/>
    <path d="M48.2 -52.55 Q54.75 -37.1 58.7 -21.75 L60.1 -21.7 Q60.05 -15.75 61.0 -11.4 65.0 8.65 64.45 28.5 66.3 23.8 67.45 19.5 67.35 30.75 64.85 36.5 50.15 70.8 20.25 86.95 5.0 95.65 -7.3 113.3 L-10.15 115.95 -6.35 114.4 Q-6.5 116.6 -7.7 117.85 -8.95 119.2 -11.9 119.95 -14.8 121.05 -17.35 119.65 -25.55 122.0 -36.3 117.5 -42.3 106.55 -45.55 95.65 -25.35 84.75 -10.95 71.05 -3.5 62.95 -0.85 46.65 3.7 53.9 -1.85 61.35 2.15 56.6 5.55 51.6 11.9 34.0 12.85 15.3 16.1 22.5 14.3 35.95 28.7 4.4 23.1 -37.0 27.8 -43.25 28.4 -56.85 32.65 -39.55 39.9 -30.25 47.1 -23.8 48.35 -35.85 49.1 -40.85 47.0 -52.15 L48.2 -52.55 M-10.25 -37.4 L-14.9 -25.95 Q-22.35 -15.2 -23.0 -20.7 -15.45 -28.4 -10.25 -37.4 M-8.2 39.4 Q-4.9 28.5 -3.65 9.25 -1.3 18.1 -2.35 27.0 0.0 27.0 2.4 22.8 1.75 30.5 -1.85 36.35 L-7.85 44.0 Q-9.25 45.7 -8.2 39.4" fill="#dfc86b" fill-rule="evenodd" stroke="none"/>
    <path d="M-6.35 114.4 Q-7.05 113.45 -5.2 113.95 L-5.25 114.1 Q-4.85 116.35 -7.7 118.3 -10.15 119.95 -11.9 119.95 -8.95 119.2 -7.7 117.85 -6.5 116.6 -6.35 114.4" fill="#1b180f" fill-rule="evenodd" stroke="none"/>
    <path d="M19.8 -100.35 Q21.55 -112.4 31.7 -120.5 32.55 -83.15 46.1 -56.7 L48.2 -52.55 Q54.75 -37.1 58.7 -21.75 L60.35 -27.85 60.1 -21.7 Q60.05 -15.75 61.0 -11.4 65.0 8.65 64.45 28.5 66.3 23.8 67.45 19.5 67.35 30.75 64.85 36.5 50.15 70.8 20.25 86.95 5.0 95.65 -7.3 113.3 M-36.3 117.5 Q-42.3 106.55 -45.55 95.65 -47.65 88.65 -48.6 81.65 -51.35 70.75 -55.25 57.35 L-57.85 49.3 Q-74.45 15.35 -62.2 -14.8 -58.75 -23.5 -54.15 -30.1 -54.75 -26.1 -56.1 -23.3 -39.8 -46.75 -17.7 -57.2 L-12.85 -60.95 Q10.95 -79.75 17.95 -95.3 L19.8 -100.35 M47.0 -52.15 L46.1 -56.7 M23.1 -37.0 Q27.8 -43.25 28.4 -56.85 32.65 -39.55 39.9 -30.25 47.1 -23.8 48.35 -35.85 49.1 -40.85 47.0 -52.15 M-12.85 -60.95 Q-20.55 -50.2 -9.95 -53.55 0.9 -54.5 9.8 -65.6 3.85 -51.9 6.45 -37.35 7.1 -28.7 17.2 -32.5 20.7 -33.8 23.1 -37.0" fill="none" stroke="#1b180f" stroke-linecap="round" stroke-linejoin="miter-clip" stroke-miterlimit="8.0" stroke-width="1.2000000000000002"/>
    <path d="M-7.3 113.3 L-10.15 115.95 -6.35 114.4" fill="none" stroke="#1b180f" stroke-linecap="round" stroke-linejoin="round" stroke-width="1.2000000000000002"/>
  </g>
</svg>
