<?xml version="1.0" encoding="UTF-8" standalone="no"?>
<svg xmlns:xlink="http://www.w3.org/1999/xlink" height="73.1px" width="22.15px" xmlns="http://www.w3.org/2000/svg">
  <g transform="matrix(1.0, 0.0, 0.0, 1.0, 21.85, 5.1)">
    <path d="M0.3 -4.55 L-0.5 -3.4 -0.4 -3.25 Q-1.8 2.0 -5.75 5.45 -6.65 6.2 -7.75 6.6 L-7.8 6.6 Q-10.8 12.3 -12.4 18.95 -13.35 24.45 -12.8 30.4 -12.95 33.95 -13.35 37.35 L-13.15 39.35 Q-13.05 47.75 -16.1 56.8 L-17.9 61.4 Q-19.3 65.15 -21.85 68.0 -21.7 62.3 -20.65 56.9 -19.5 48.45 -17.15 40.15 L-16.8 38.25 Q-16.5 36.1 -15.85 34.25 -16.9 28.55 -16.55 21.7 L-16.5 19.4 Q-15.8 16.55 -14.3 13.6 -14.0 9.85 -12.25 5.5 L-11.35 4.1 Q-9.3 1.65 -6.9 -0.15 -7.65 -2.4 -5.25 -4.25 -3.95 -5.3 -2.55 -5.05 L-1.05 -4.0 -0.7 -3.7 0.3 -4.55" fill="#ffffff" fill-opacity="0.69803923" fill-rule="evenodd" stroke="none"/>
  </g>
</svg>
