<?xml version="1.0" encoding="UTF-8" standalone="no"?>
<svg xmlns:xlink="http://www.w3.org/1999/xlink" height="169.45px" width="73.8px" xmlns="http://www.w3.org/2000/svg">
  <g transform="matrix(1.0, 0.0, 0.0, 1.0, 36.65, 84.7)">
    <path d="M-32.1 17.3 Q-32.45 8.55 -36.55 2.85 L-0.75 -21.4 -1.6 -38.25 5.15 -46.6 6.0 -47.85 Q17.65 -64.85 18.9 -84.1 31.35 -60.25 13.05 -27.45 L21.2 -36.45 Q32.45 -42.7 35.75 -51.25 L36.45 -43.9 Q33.85 -32.0 28.9 -23.85 23.95 -15.7 16.65 -11.3 L27.25 -13.75 30.7 -9.35 Q16.9 2.3 16.2 26.4 16.3 47.15 4.35 55.6 -5.25 72.65 -17.05 73.75 -25.8 74.5 -35.8 66.5 -37.0 48.65 -32.9 28.1 -31.9 22.2 -32.1 17.3" fill="#fae680" fill-rule="evenodd" stroke="none"/>
    <path d="M-35.8 66.5 Q-25.8 74.5 -17.05 73.75 -5.25 72.65 4.35 55.6 16.3 47.15 16.2 26.4 16.9 2.3 30.7 -9.35 29.15 3.75 30.5 11.05 33.45 20.4 29.9 33.35 L29.85 33.6 Q23.25 62.85 8.65 74.45 -28.35 97.25 -35.8 66.5 M27.25 -13.75 L16.65 -11.3 Q23.95 -15.7 28.9 -23.85 33.85 -32.0 36.45 -43.9 37.15 -29.8 33.0 -21.25 30.8 -16.75 27.25 -13.75 M21.2 -36.45 L13.05 -27.45 Q31.35 -60.25 18.9 -84.1 38.05 -57.4 21.2 -36.45" fill="#dfc86b" fill-rule="evenodd" stroke="none"/>
    <path d="M36.45 -43.9 L35.75 -51.25 Q32.45 -42.7 21.2 -36.45 38.05 -57.4 18.9 -84.1 17.65 -64.85 6.0 -47.85 M33.0 -21.25 Q37.15 -29.8 36.45 -43.9" fill="none" stroke="#1b180f" stroke-linecap="round" stroke-linejoin="miter-clip" stroke-miterlimit="5.0" stroke-width="1.2000000000000002"/>
    <path d="M-32.1 17.3 Q-31.9 22.2 -32.9 28.1 -37.0 48.65 -35.8 66.5 -28.35 97.25 8.65 74.45 23.25 62.85 29.85 33.6 L29.9 33.35 Q33.45 20.4 30.5 11.05" fill="none" stroke="#1b180f" stroke-linecap="round" stroke-linejoin="round" stroke-width="1.2000000000000002"/>
    <path d="M-36.6 2.9 L-36.6 2.75 -36.45 2.75 -35.5 4.1 -35.4 4.2 -34.2 6.35 -34.1 6.65 -33.7 7.45 -33.1 9.1 -33.0 9.25 -32.3 11.7 -32.25 12.05 -32.15 12.35 -31.55 16.25 -31.5 17.25 -31.45 17.3 -31.65 17.7 Q-31.8 17.9 -32.05 17.9 -32.65 17.9 -32.65 17.3 L-32.75 14.95 -32.85 14.1 -32.85 13.8 -33.25 11.2 -33.6 9.8 -33.65 9.45 -34.4 7.15 -34.55 6.85 -34.65 6.55 -35.25 5.2 -36.6 2.9 M31.05 10.95 Q31.15 11.55 30.55 11.65 30.0 11.75 29.9 11.1 L29.75 10.25 29.45 3.65 30.6 -9.35 30.7 -9.4 30.75 -9.3 30.25 3.65 30.35 5.45 30.4 5.85 30.4 6.3 31.05 10.95 M27.3 -13.65 L27.15 -13.65 27.15 -13.8 28.0 -14.6 29.7 -16.65 30.7 -18.1 30.9 -18.5 31.15 -18.85 31.5 -19.55 31.7 -19.85 32.2 -20.95 32.3 -21.1 32.45 -21.5 32.45 -21.55 Q32.8 -22.05 33.3 -21.8 33.85 -21.45 33.5 -20.95 L33.2 -20.4 33.05 -20.2 32.75 -19.65 31.5 -17.85 30.45 -16.6 30.35 -16.45 30.15 -16.3 29.3 -15.35 28.0 -14.2 27.3 -13.65 M5.5 -48.2 L6.35 -48.3 Q6.8 -48.0 6.45 -47.45 L6.35 -47.3 6.25 -47.2 6.0 -46.9 5.6 -46.3 5.55 -46.25 -1.5 -38.15 -1.65 -38.15 -1.65 -38.3 4.7 -46.9 4.65 -46.85 5.05 -47.55 5.3 -47.85 5.4 -48.0 5.5 -48.2" fill="#1b180f" fill-rule="evenodd" stroke="none"/>
  </g>
</svg>
