<?xml version="1.0" encoding="UTF-8" standalone="no"?>
<svg xmlns:xlink="http://www.w3.org/1999/xlink" height="93.95px" width="34.35px" xmlns="http://www.w3.org/2000/svg">
  <g transform="matrix(1.0, 0.0, 0.0, 1.0, 17.2, 46.15)">
    <path d="M-10.1 45.25 Q-8.0 44.05 -6.3 41.25 L-5.0 38.7 -2.0 29.5 Q0.3 21.75 3.85 7.9 8.05 -11.1 8.05 -25.25 8.05 -30.1 7.2 -37.5 6.45 -43.75 6.1 -44.95 9.2 -42.8 13.0 -38.85 L14.65 -36.7 Q15.55 -35.15 15.9 -33.85 L16.4 -30.9 16.55 -25.75 Q16.7 -21.05 14.45 -9.9 12.8 -1.75 10.4 7.35 L6.7 20.15 3.95 29.0 Q1.65 35.35 0.4 40.35 -0.9 45.35 -1.3 46.4 -1.7 47.45 -3.7 47.15 L-10.1 45.25" fill="#dfc86b" fill-rule="evenodd" stroke="none"/>
    <path d="M-11.1 -14.8 L-11.15 -15.0 -11.9 -20.1 -12.3 -21.85 -12.9 -22.35 -13.75 -23.9 Q-14.15 -24.65 -14.15 -25.3 -14.15 -27.25 -10.95 -27.05 L-8.85 -32.45 -6.45 -37.8 Q-2.95 -42.85 -1.6 -44.2 0.35 -46.15 2.45 -46.15 L4.0 -45.7 6.1 -44.95 Q6.45 -43.75 7.2 -37.5 8.05 -30.1 8.05 -25.25 8.05 -11.1 3.85 7.9 0.3 21.75 -2.0 29.5 L-5.0 38.7 -6.3 41.25 Q-8.0 44.05 -10.1 45.25 L-16.6 44.4 -11.35 12.15 Q-10.5 -4.9 -11.1 -14.8" fill="#fae680" fill-rule="evenodd" stroke="none"/>
    <path d="M-11.1 -14.8 Q-10.5 -4.9 -11.35 12.15 L-16.6 44.4 M16.55 -25.75 Q16.7 -21.05 14.45 -9.9 12.8 -1.75 10.4 7.35 L6.7 20.15 3.95 29.0 Q1.65 35.35 0.4 40.35 -0.9 45.35 -1.3 46.4 -1.7 47.45 -3.7 47.15" fill="none" stroke="#1b180f" stroke-linecap="round" stroke-linejoin="round" stroke-width="1.2000000000000002"/>
    <path d="M-10.55 -15.05 L-10.5 -15.0 Q-10.5 -14.35 -11.05 -14.35 -11.7 -14.25 -11.7 -14.9 L-12.15 -20.0 -12.3 -20.6 -12.35 -20.85 -12.55 -21.45 -12.7 -21.7 -12.8 -22.0 -12.95 -22.25 -12.95 -22.4 -12.8 -22.4 -12.3 -21.6 -11.6 -20.15 -11.6 -20.1 -10.55 -15.05 M17.1 -25.75 L17.15 -25.7 Q17.05 -25.1 16.5 -25.1 16.25 -25.1 16.1 -25.3 15.9 -25.5 15.95 -25.7 L15.85 -32.35 15.65 -33.45 15.55 -33.8 15.55 -33.9 15.5 -34.0 15.1 -35.2 14.45 -36.6 14.45 -36.55 12.9 -38.75 12.9 -38.9 13.05 -38.9 14.8 -36.8 14.8 -36.75 15.0 -36.45 16.05 -34.35 16.1 -34.15 16.1 -34.05 16.15 -33.95 16.2 -33.8 16.8 -30.9 17.1 -25.75" fill="#1b180f" fill-rule="evenodd" stroke="none"/>
  </g>
</svg>
