<?xml version="1.0" encoding="UTF-8" standalone="no"?>
<svg xmlns:xlink="http://www.w3.org/1999/xlink" height="20.65px" width="29.8px" xmlns="http://www.w3.org/2000/svg">
  <g transform="matrix(1.0, 0.0, 0.0, 1.0, 14.55, 10.35)">
    <path d="M0.55 -9.75 Q3.1 -3.45 8.8 -1.1 3.7 8.35 -7.95 4.75 -10.25 3.35 -13.9 5.5 -13.7 4.4 -12.65 3.05 -2.1 -1.0 0.55 -9.75" fill="#fae680" fill-rule="evenodd" stroke="none"/>
    <path d="M-13.9 5.5 Q-10.25 3.35 -7.95 4.75 3.7 8.35 8.8 -1.1 11.1 -0.2 14.65 0.3 14.2 5.8 9.3 8.35 4.4 10.9 -11.55 8.7 -14.3 7.6 -13.9 5.5" fill="#dfc86b" fill-rule="evenodd" stroke="none"/>
    <path d="M0.55 -9.75 Q-2.1 -1.0 -12.65 3.05 -13.7 4.4 -13.9 5.5 -14.3 7.6 -11.55 8.7 4.4 10.9 9.3 8.35 14.2 5.8 14.65 0.3" fill="none" stroke="#1b180f" stroke-linecap="round" stroke-linejoin="round" stroke-width="1.2000000000000002"/>
    <path d="M-13.6 6.0 L-13.65 6.05 Q-14.15 6.3 -14.45 5.75 -14.7 5.25 -14.15 4.95 L-13.8 4.8 -13.65 4.7 -12.5 4.25 -11.65 4.05 -11.5 4.0 -11.35 4.0 -10.75 3.9 -9.8 3.9 -9.55 3.95 -9.4 4.0 -9.25 4.0 -9.15 4.05 -9.0 4.1 -8.75 4.15 -8.55 4.25 -8.5 4.3 -8.4 4.35 -8.25 4.4 -8.15 4.45 -8.1 4.5 -7.85 4.65 -7.85 4.75 Q-7.85 4.9 -7.95 4.8 L-8.0 4.8 -8.2 4.7 -8.3 4.7 -8.35 4.65 -8.5 4.6 -8.6 4.55 -8.7 4.55 -8.85 4.5 -9.1 4.45 -9.85 4.45 -10.35 4.5 -10.5 4.5 -10.65 4.55 -10.9 4.6 -11.25 4.75 -11.3 4.75 -11.95 5.0 -12.15 5.15 -12.8 5.45 -13.1 5.7 -13.25 5.75 -13.35 5.85 -13.6 6.0" fill="#1b180f" fill-rule="evenodd" stroke="none"/>
  </g>
</svg>
