<?xml version="1.0" encoding="UTF-8" standalone="no"?>
<svg xmlns:xlink="http://www.w3.org/1999/xlink" height="75.15px" width="55.5px" xmlns="http://www.w3.org/2000/svg">
  <g transform="matrix(1.0, 0.0, 0.0, 1.0, 28.0, 37.55)">
    <path d="M-0.3 -31.45 Q-0.25 -31.7 -0.35 -31.5 L-0.35 -31.6 0.5 -32.45 1.1 -33.15 Q2.45 -34.1 4.95 -35.35 9.35 -37.55 12.45 -37.55 17.75 -37.55 21.8 -35.45 L24.5 -33.65 Q19.65 -36.9 13.0 -36.8 L8.1 -36.25 Q5.35 -35.5 2.45 -33.45 -0.15 -31.65 -0.3 -31.45" fill="#1b180f" fill-rule="evenodd" stroke="none"/>
    <path d="M-0.3 -31.45 Q-0.15 -31.65 2.45 -33.45 5.35 -35.5 8.1 -36.25 L13.0 -36.8 Q19.65 -36.9 24.5 -33.65 L25.75 -32.55 25.8 -32.45 26.0 -32.1 Q13.0 -5.9 27.4 13.2 19.5 11.75 11.0 13.95 -5.6 18.1 -24.6 35.8 L-25.75 34.45 Q-29.15 29.0 -25.5 23.6 -15.65 7.65 -12.95 -2.45 L-12.5 -4.35 -12.05 -7.3 Q-11.85 -9.3 -12.05 -11.0 -1.45 -18.65 -0.45 -31.0 L-0.45 -31.05 -0.3 -31.45" fill="#fae680" fill-rule="evenodd" stroke="none"/>
    <path d="M27.4 13.2 L18.3 16.75 16.3 17.55 Q-2.55 25.4 -12.65 33.7 -20.95 39.0 -24.6 35.8 -5.6 18.1 11.0 13.95 19.5 11.75 27.4 13.2" fill="#dfc86b" fill-rule="evenodd" stroke="none"/>
    <path d="M16.3 17.55 Q-2.55 25.4 -12.65 33.7 -20.95 39.0 -24.6 35.8 L-25.75 34.45 Q-29.15 29.0 -25.5 23.6 -15.65 7.65 -12.95 -2.45" fill="none" stroke="#1b180f" stroke-linecap="round" stroke-linejoin="round" stroke-width="1.2000000000000002"/>
    <path d="M16.55 18.05 L16.5 18.1 Q15.95 18.3 15.7 17.75 15.4 17.2 16.0 17.0 L16.5 16.8 Q16.85 16.6 17.85 16.35 L18.05 16.25 18.1 16.25 27.35 13.1 27.45 13.15 27.4 13.25 18.5 17.2 18.4 17.2 18.35 17.25 18.15 17.3 16.55 18.05 M-12.1 -10.95 L-12.05 -11.05 -11.95 -11.0 -11.9 -10.9 -11.7 -7.2 -11.75 -7.0 -11.75 -6.6 -12.0 -4.3 -12.0 -4.1 -12.05 -3.95 -12.35 -2.3 -12.35 -2.2 Q-12.55 -1.6 -13.1 -1.8 -13.7 -2.0 -13.5 -2.55 L-12.45 -6.7 -12.4 -7.1 -12.35 -7.3 -12.35 -7.35 -12.3 -7.4 -12.3 -7.5 -12.2 -8.25 -12.1 -10.95" fill="#1b180f" fill-rule="evenodd" stroke="none"/>
  </g>
</svg>
