<?xml version="1.0" encoding="UTF-8" standalone="no"?>
<svg xmlns:xlink="http://www.w3.org/1999/xlink" height="42.55px" width="47.2px" xmlns="http://www.w3.org/2000/svg">
  <g transform="matrix(1.0, 0.0, 0.0, 1.0, 23.6, 21.25)">
    <path d="M-22.25 16.85 Q3.85 6.8 19.2 -15.65 21.4 -13.5 23.0 -10.55 -3.5 14.8 -11.9 17.6 -20.1 24.2 -22.25 16.85" fill="#dfc86b" fill-rule="evenodd" stroke="none"/>
    <path d="M10.15 -20.65 Q15.5 -19.3 19.2 -15.65 3.85 6.8 -22.25 16.85 -22.9 14.5 -23.0 10.85 -3.75 -0.75 10.15 -20.65" fill="#fae680" fill-rule="evenodd" stroke="none"/>
    <path d="M10.15 -20.65 Q-3.75 -0.75 -23.0 10.85 -22.9 14.5 -22.25 16.85 -20.1 24.2 -11.9 17.6 -3.5 14.8 23.0 -10.55" fill="none" stroke="#1b180f" stroke-linecap="round" stroke-linejoin="round" stroke-width="1.2000000000000002"/>
  </g>
</svg>
