<?xml version="1.0" encoding="UTF-8" standalone="no"?>
<svg xmlns:xlink="http://www.w3.org/1999/xlink" height="156.3px" width="480.9px" xmlns="http://www.w3.org/2000/svg">
  <g transform="matrix(1.0, 0.0, 0.0, 1.0, 240.15, 78.15)">
    <path d="M-133.1 -44.35 L-9.7 -43.3 Q20.45 -38.35 43.2 -43.0 L78.55 -49.8 Q99.4 -53.4 119.55 -52.0 99.4 -53.4 78.55 -49.8 L43.2 -43.0 Q20.45 -38.35 -9.7 -43.3 L-133.1 -44.35 M94.55 -69.4 Q48.2 -61.0 30.4 -51.5 L78.25 -61.4 Q118.1 -69.7 172.5 -63.8 139.0 -70.25 94.55 -69.4 M-157.55 -64.95 Q-142.7 -67.65 -126.8 -67.25 -92.8 -70.9 -31.7 -64.7 L-16.2 -63.05 Q32.7 -57.65 46.5 -63.05 76.0 -73.65 109.55 -76.55 157.1 -80.2 187.85 -70.3 243.4 -8.45 189.4 -3.95 53.35 8.15 -62.0 -6.95 -79.05 -15.1 -104.1 -21.05 -120.65 -24.4 -134.95 -21.05 L-134.85 -28.2 Q-149.75 -20.1 -166.1 41.45 -254.3 23.9 -237.45 -16.0 L-235.75 -18.9 Q-232.8 -23.8 -228.65 -28.85 L-228.55 -28.9 -226.95 -27.0 Q-213.35 -38.45 -197.65 -45.9 L-157.55 -64.95 M179.7 -35.95 L169.2 -43.95 Q149.8 -58.65 119.55 -52.0 150.5 -49.9 179.7 -35.95" fill="#faecc7" fill-rule="evenodd" stroke="none"/>
    <path d="M94.55 -69.4 Q139.0 -70.25 172.5 -63.8 118.1 -69.7 78.25 -61.4 L30.4 -51.5 Q48.2 -61.0 94.55 -69.4 M-157.55 -64.95 L-197.65 -45.9 Q-213.35 -38.45 -226.95 -27.0 L-228.55 -28.9 Q-196.8 -57.8 -157.55 -64.95" fill="#f9f6ee" fill-rule="evenodd" stroke="none"/>
    <path d="M-166.1 41.45 Q-149.75 -20.1 -134.85 -28.2 L-134.95 -21.05 Q-120.65 -24.4 -104.1 -21.05 -79.05 -15.1 -62.0 -6.95 53.35 8.15 189.4 -3.95 243.4 -8.45 187.85 -70.3 212.75 -62.3 226.7 -45.4 259.75 -2.2 211.65 43.95 193.45 60.05 78.05 77.0 -2.7 79.95 -79.3 66.45 -104.15 63.65 -115.2 48.8 -144.0 45.8 -166.1 41.45 M119.55 -52.0 Q149.8 -58.65 169.2 -43.95 L179.7 -35.95 Q150.5 -49.9 119.55 -52.0 M-115.2 48.8 Q-118.05 45.05 -119.95 40.55 -118.05 45.05 -115.2 48.8" fill="#e6d6b2" fill-rule="evenodd" stroke="none"/>
    <path d="M119.55 -52.0 Q99.4 -53.4 78.55 -49.8 L43.2 -43.0 Q20.45 -38.35 -9.7 -43.3 L-133.1 -44.35 M187.85 -70.3 Q157.1 -80.2 109.55 -76.55 76.0 -73.65 46.5 -63.05 32.7 -57.65 -16.2 -63.05 L-31.7 -64.7 Q-92.8 -70.9 -126.8 -67.25 -142.7 -67.65 -157.55 -64.95 -196.8 -57.8 -228.55 -28.9 L-228.65 -28.85 Q-232.8 -23.8 -235.75 -18.9 L-237.45 -16.0 M187.85 -70.3 Q212.75 -62.3 226.7 -45.4 259.75 -2.2 211.65 43.95 193.45 60.05 78.05 77.0 -2.7 79.95 -79.3 66.45 -104.15 63.65 -115.2 48.8 -118.05 45.05 -119.95 40.55 M119.55 -52.0 Q150.5 -49.9 179.7 -35.95" fill="none" stroke="#2e221f" stroke-linecap="round" stroke-linejoin="round" stroke-width="1.2000000000000002"/>
  </g>
</svg>
