<?xml version="1.0" encoding="UTF-8" standalone="no"?>
<svg xmlns:xlink="http://www.w3.org/1999/xlink" height="367.5px" width="181.95px" xmlns="http://www.w3.org/2000/svg">
  <g transform="matrix(1.0, 0.0, 0.0, 1.0, 91.75, 178.65)">
    <path d="M-27.4 -171.15 Q-6.2 -179.45 4.3 -177.75 25.2 -173.3 38.15 -154.15 78.5 -102.4 85.65 -57.4 97.65 1.8 73.05 46.35 4.9 151.2 31.45 162.85 19.45 163.05 14.1 156.5 7.8 148.45 23.05 100.25 35.95 59.65 62.5 19.85 77.25 1.8 68.7 -49.3 58.35 -98.05 24.5 -149.55 13.55 -163.45 9.45 -123.9 13.75 -107.25 14.5 -93.45 9.15 -110.2 0.5 -129.25 -13.9 -145.1 -10.65 -158.6 -15.05 -167.0 -27.4 -171.15" fill="#e6d6b2" fill-rule="evenodd" stroke="none"/>
    <path d="M31.45 162.85 Q32.5 163.35 33.75 163.65 7.95 179.95 -21.75 177.4 L-88.35 188.25 Q-93.25 172.1 -89.65 150.45 -87.6 138.85 -83.35 127.55 L-78.4 130.35 Q-52.15 86.0 -32.85 66.85 -6.35 40.55 40.0 -14.35 45.25 -30.65 46.6 -54.7 43.65 -71.4 39.15 -63.45 41.25 -44.3 30.35 -19.2 20.4 -2.35 0.9 14.45 7.65 4.2 13.75 -6.65 32.7 -36.95 14.5 -93.45 13.75 -107.25 9.45 -123.9 13.55 -163.45 24.5 -149.55 58.35 -98.05 68.7 -49.3 77.25 1.8 62.5 19.85 35.95 59.65 23.05 100.25 7.8 148.45 14.1 156.5 19.45 163.05 31.45 162.85" fill="#faecc7" fill-rule="evenodd" stroke="none"/>
    <path d="M-83.35 127.55 Q-72.6 99.0 -47.55 72.35 -20.1 46.2 0.9 14.45 20.4 -2.35 30.35 -19.2 41.25 -44.3 39.15 -63.45 43.65 -71.4 46.6 -54.7 45.25 -30.65 40.0 -14.35 -6.35 40.55 -32.85 66.85 -52.15 86.0 -78.4 130.35 L-83.35 127.55" fill="#f9f6ee" fill-rule="evenodd" stroke="none"/>
    <path d="M-27.4 -171.15 Q-6.2 -179.45 4.3 -177.75 25.2 -173.3 38.15 -154.15 78.5 -102.4 85.65 -57.4 97.65 1.8 73.05 46.35 4.9 151.2 31.45 162.85 32.5 163.35 33.75 163.65 M-88.35 188.25 Q-93.25 172.1 -89.65 150.45 -87.6 138.85 -83.35 127.55 -72.6 99.0 -47.55 72.35 -20.1 46.2 0.9 14.45 7.65 4.2 13.75 -6.65 32.7 -36.95 14.5 -93.45 9.15 -110.2 0.5 -129.25" fill="none" stroke="#2e221f" stroke-linecap="round" stroke-linejoin="round" stroke-width="1.2000000000000002"/>
  </g>
</svg>
