<?xml version="1.0" encoding="UTF-8" standalone="no"?>
<svg xmlns:xlink="http://www.w3.org/1999/xlink" height="108.65px" width="354.75px" xmlns="http://www.w3.org/2000/svg">
  <g transform="matrix(1.0, 0.0, 0.0, 1.0, 177.7, 55.0)">
    <path d="M124.5 16.95 Q119.75 35.6 103.7 43.6 96.25 47.25 86.4 48.7 L86.35 48.7 86.3 48.7 Q-11.9 63.6 -109.6 27.55 -170.4 5.2 -176.45 -24.55 L-176.85 -26.85 Q-99.8 4.4 -24.25 12.85 -14.85 12.7 -8.45 12.95 L-8.05 12.95 -3.75 13.2 15.9 10.8 Q41.3 8.0 57.95 8.45 71.05 9.05 83.4 14.55 L76.55 15.2 76.45 15.2 69.55 13.7 Q46.25 9.65 24.0 17.25 L22.85 17.7 15.45 17.7 Q7.8 24.9 32.75 27.0 45.0 28.7 58.45 27.55 91.85 18.5 91.45 17.95 L104.45 17.2 104.0 17.55 124.45 16.95 124.5 16.95 M86.4 48.7 L86.3 48.7 86.4 48.7" fill="#e6d6b2" fill-rule="evenodd" stroke="none"/>
    <path d="M-74.7 -51.95 Q-49.25 -58.15 -25.9 -48.75 56.45 -21.95 109.35 -23.5 124.9 -22.5 149.45 -16.8 166.75 -11.3 173.25 -5.05 176.65 -1.75 177.05 1.75 149.3 10.9 124.5 16.95 L124.45 16.95 104.0 17.55 104.45 17.2 91.45 17.95 Q91.85 18.5 58.45 27.55 45.0 28.7 32.75 27.0 7.8 24.9 15.45 17.7 L22.85 17.7 Q44.45 22.95 62.05 19.65 L67.15 18.5 67.25 18.5 Q67.4 18.65 67.4 18.45 L67.45 18.45 68.3 18.15 Q76.75 16.85 75.45 16.2 L76.45 15.2 76.55 15.2 83.4 14.55 Q71.05 9.05 57.95 8.45 41.3 8.0 15.9 10.8 L-3.75 13.2 -8.05 12.95 -8.45 12.95 Q-14.85 12.7 -24.25 12.85 -99.8 4.4 -176.85 -26.85 L-176.9 -27.55 Q-178.2 -39.2 -171.3 -51.95 L-74.7 -51.95 M173.25 -5.05 Q160.65 -12.05 149.45 -16.8 160.65 -12.05 173.25 -5.05 M33.05 -16.3 Q-27.7 -35.0 -90.15 -39.6 L-22.7 -23.65 Q54.7 -5.45 33.05 -16.3 M78.2 5.7 Q79.2 4.3 72.45 3.1 64.9 1.7 47.55 0.55 L31.2 3.4 24.75 4.55 Q6.65 8.0 15.05 7.85 L21.85 6.6 Q37.5 3.8 47.65 3.45 61.8 3.4 78.2 5.7 M76.15 19.75 Q90.85 14.2 53.65 24.1 35.6 23.6 19.9 20.95 15.45 23.65 53.3 25.85 61.4 25.2 76.15 19.75" fill="#faecc7" fill-rule="evenodd" stroke="none"/>
    <path d="M33.05 -16.3 Q54.7 -5.45 -22.7 -23.65 L-90.15 -39.6 Q-27.7 -35.0 33.05 -16.3 M78.2 5.7 Q61.8 3.4 47.65 3.45 37.5 3.8 21.85 6.6 L15.05 7.85 Q6.65 8.0 24.75 4.55 L31.2 3.4 47.55 0.55 Q64.9 1.7 72.45 3.1 79.2 4.3 78.2 5.7 M76.15 19.75 Q61.4 25.2 53.3 25.85 15.45 23.65 19.9 20.95 35.6 23.6 53.65 24.1 90.85 14.2 76.15 19.75" fill="#f9f6ee" fill-rule="evenodd" stroke="none"/>
    <path d="M76.45 15.2 L75.45 16.2 75.1 16.15 74.95 15.9 74.95 15.85 74.85 15.75 Q58.05 13.35 54.15 14.05 L43.25 15.6 43.0 15.6 43.0 15.65 33.25 16.7 32.8 16.8 Q32.6 16.8 32.7 16.95 L32.85 17.05 33.15 17.05 Q42.3 19.3 50.85 18.05 L61.75 17.6 68.3 18.15 67.45 18.45 67.4 18.45 Q67.4 18.65 67.25 18.5 L67.15 18.5 62.05 19.65 Q42.15 20.65 24.0 17.25 46.25 9.65 69.55 13.7 L76.45 15.2" fill="#e2757a" fill-rule="evenodd" stroke="none"/>
    <path d="M33.15 17.05 L41.45 16.55 42.25 16.45 50.05 16.6 51.65 16.75 60.25 17.3 61.75 17.6 50.85 18.05 Q42.3 19.3 33.15 17.05" fill="#eb969a" fill-rule="evenodd" stroke="none"/>
    <path d="M75.45 16.2 Q76.75 16.85 68.3 18.15 L61.75 17.6 60.25 17.3 51.65 16.75 50.05 16.6 42.25 16.45 41.45 16.55 33.15 17.05 32.85 17.05 32.7 16.95 Q32.6 16.8 32.8 16.8 L33.25 16.7 43.0 15.65 43.0 15.6 43.25 15.6 54.15 14.05 Q58.05 13.35 74.85 15.75 L74.95 15.85 74.95 15.9 75.1 16.15 75.45 16.2 M56.4 16.2 L62.9 17.35 Q73.75 17.5 69.9 15.75 L54.2 14.85 48.25 15.7 56.05 16.2 56.4 16.2" fill="#7e3a3f" fill-rule="evenodd" stroke="none"/>
    <path d="M62.05 19.65 Q44.45 22.95 22.85 17.7 L24.0 17.25 Q42.15 20.65 62.05 19.65" fill="#7b393d" fill-rule="evenodd" stroke="none"/>
    <path d="M56.4 16.2 L56.05 16.2 48.25 15.7 54.2 14.85 69.9 15.75 Q73.75 17.5 62.9 17.35 L56.4 16.2" fill="url(#gradient0)" fill-rule="evenodd" stroke="none"/>
    <path d="M-74.7 -51.95 Q-49.25 -58.15 -25.9 -48.75 56.45 -21.95 109.35 -23.5 124.9 -22.5 149.45 -16.8 160.65 -12.05 173.25 -5.05 M124.5 16.95 Q119.75 35.6 103.7 43.6 96.25 47.25 86.4 48.7 L86.3 48.7 Q-11.9 63.6 -109.6 27.55 -170.4 5.2 -176.45 -24.55 L-176.85 -26.85 -176.9 -27.55 Q-178.2 -39.2 -171.3 -51.95 M86.35 48.7 L86.3 48.7" fill="none" stroke="#2e221f" stroke-linecap="round" stroke-linejoin="round" stroke-width="1.2000000000000002"/>
  </g>
  <defs>
    <linearGradient gradientTransform="matrix(0.0199, 4.0E-4, 0.0, 0.0022, 58.5, 16.4)" gradientUnits="userSpaceOnUse" id="gradient0" spreadMethod="pad" x1="-819.2" x2="819.2">
      <stop offset="0.3333333333333333" stop-color="#6b3135"/>
      <stop offset="0.8313725490196079" stop-color="#db787f"/>
    </linearGradient>
  </defs>
</svg>
