<?xml version="1.0" encoding="UTF-8" standalone="no"?>
<svg xmlns:xlink="http://www.w3.org/1999/xlink" height="30.45px" width="121.95px" xmlns="http://www.w3.org/2000/svg">
  <g transform="matrix(1.0, 0.0, 0.0, 1.0, 54.15, 9.55)">
    <path d="M-44.9 -8.45 Q-45.0 -7.9 -45.4 -7.9 L-46.5 -8.0 Q-46.8 -8.05 -47.05 -7.0 -47.2 -6.1 -45.75 -5.65 -44.2 -5.15 -44.35 -4.45 -44.4 -3.7 -45.95 -3.9 -47.9 -4.15 -48.45 -5.8 -48.75 -6.55 -48.65 -7.4 -48.4 -9.15 -46.55 -9.45 -44.75 -9.85 -44.9 -8.45 M-39.8 -4.35 Q-39.0 -4.6 -38.45 -6.0 -37.95 -7.3 -37.4 -7.25 -36.7 -7.1 -36.65 -6.35 -36.6 -6.0 -36.7 -5.6 -36.75 -5.1 -37.6 -3.95 -38.4 -2.75 -39.0 -2.5 L-40.55 -2.7 Q-41.5 -3.35 -41.25 -5.55 -40.95 -7.9 -40.5 -7.8 -40.0 -7.75 -39.8 -4.35 M-29.05 -3.9 L-28.05 -4.1 -26.65 -4.3 Q-25.25 -4.1 -24.95 -2.05 -24.9 -1.0 -25.0 0.0 -25.15 1.35 -25.95 1.2 -26.8 1.1 -26.85 -0.25 L-26.9 -2.45 Q-28.15 -2.2 -28.75 -0.7 -29.3 0.8 -29.8 0.7 -30.7 0.6 -30.4 -1.45 -30.05 -3.45 -31.1 -3.6 -32.4 -3.7 -32.85 -1.45 -33.3 0.85 -34.3 0.7 -35.35 0.6 -34.85 -0.8 L-34.1 -4.55 Q-33.6 -5.8 -31.6 -5.4 -29.55 -5.15 -29.05 -3.9 M-3.55 14.5 L-3.5 14.2 Q-3.2 13.15 -1.3 14.65 0.65 16.25 0.55 17.35 L0.1 17.85 -3.8 20.9 Q-4.75 20.75 -4.35 19.6 L-4.05 18.0 -8.85 16.75 Q-15.55 14.95 -17.45 13.65 L-20.3 11.15 Q-22.05 9.2 -21.9 8.0 -21.7 6.4 -20.0 8.45 L-17.5 11.85 Q-15.65 13.7 -10.65 15.1 L-3.8 16.5 -3.75 16.2 -3.4 15.1 -3.55 14.5 M-39.3 10.25 Q-39.05 10.3 -38.2 10.85 L-37.25 11.35 Q-36.4 10.85 -35.8 10.9 -33.8 11.2 -33.25 13.25 -32.95 14.25 -33.1 15.3 -33.25 16.45 -34.05 16.4 -34.55 16.3 -35.1 14.85 L-36.0 12.85 -36.2 14.7 Q-36.3 16.05 -37.4 15.95 -38.6 15.75 -38.6 14.55 -38.45 12.85 -38.7 12.45 -39.15 12.8 -39.55 14.5 -39.95 15.8 -40.6 15.75 -42.0 15.55 -41.25 12.85 L-41.05 11.1 Q-40.7 10.05 -39.3 10.25 M-25.15 14.35 Q-25.25 15.45 -25.75 15.75 -26.55 16.25 -28.85 16.25 L-29.25 19.05 Q-29.45 20.75 -30.3 20.6 -31.35 20.5 -30.9 13.15 -30.75 12.35 -30.2 12.4 -29.6 12.55 -29.3 12.9 -27.6 10.65 -26.2 11.75 -24.95 12.8 -25.15 14.35 M-28.4 14.6 Q-27.35 14.55 -26.85 14.1 L-27.45 13.15 -27.8 13.85 -28.4 14.6 M-46.3 10.7 Q-46.45 11.6 -46.05 12.3 L-45.3 12.35 Q-44.85 8.95 -43.8 9.1 -42.95 9.2 -42.95 10.0 L-43.1 10.85 Q-43.15 11.7 -43.7 12.8 -44.55 14.3 -45.6 14.1 -47.65 13.85 -48.0 12.2 L-47.95 10.5 Q-47.7 8.35 -46.8 8.3 -46.0 8.3 -46.3 10.7 M-50.65 3.45 Q-48.35 3.75 -48.75 7.35 L-49.35 10.3 Q-50.4 12.85 -53.0 12.55 -54.6 12.35 -53.95 11.2 L-53.0 6.85 Q-51.95 3.3 -50.65 3.45 M-50.85 5.15 Q-51.05 6.65 -51.8 9.55 L-51.95 10.5 Q-51.6 10.4 -51.0 9.0 -50.4 7.8 -50.35 7.3 -50.1 5.45 -50.85 5.15 M61.2 7.55 L61.65 10.2 Q62.2 12.75 62.65 12.75 L65.4 11.75 66.8 11.2 67.0 10.5 66.8 9.7 Q66.55 9.05 66.25 9.05 65.3 9.05 64.75 9.55 L64.15 10.0 Q63.75 10.0 63.7 9.75 L63.7 9.5 64.0 8.8 64.25 8.1 Q64.25 7.45 63.95 7.1 63.4 6.55 61.8 6.3 61.2 6.45 61.2 7.55 M65.05 8.25 L66.65 8.2 Q67.55 8.7 67.75 9.4 L67.8 10.6 Q67.8 11.95 67.15 12.2 65.35 12.65 63.0 13.65 L62.25 13.65 Q61.4 13.6 60.85 10.95 60.4 8.9 60.4 7.45 60.4 4.9 62.65 5.45 64.85 5.95 65.05 8.25" fill="#000000" fill-rule="evenodd" stroke="none"/>
  </g>
</svg>
