<?xml version="1.0" encoding="UTF-8" standalone="no"?>
<svg xmlns:xlink="http://www.w3.org/1999/xlink" height="15.7px" width="28.95px" xmlns="http://www.w3.org/2000/svg">
  <g transform="matrix(1.0, 0.0, 0.0, 1.0, -42.8, -16.25)">
    <path d="M64.8 17.1 Q65.4 17.3 65.4 17.7 L65.4 17.75 66.1 18.4 68.15 18.1 71.75 18.2 71.4 18.75 Q71.35 19.05 70.8 19.2 L68.4 19.2 67.8 19.25 65.2 19.95 64.75 19.85 62.4 21.2 Q61.8 21.2 61.8 20.6 59.35 21.6 58.95 23.3 L58.5 26.25 57.6 29.25 Q57.1 30.95 56.25 31.95 L55.05 31.95 54.45 31.1 Q54.45 30.35 55.75 28.3 57.05 26.25 57.05 23.5 57.05 22.25 56.25 20.7 L56.2 20.85 Q55.7 22.25 54.9 22.25 54.3 22.25 54.3 21.6 L54.7 20.5 55.05 19.5 55.25 19.0 54.3 17.55 53.15 17.4 52.55 16.8 Q52.55 16.15 54.0 16.25 L64.8 17.1 M61.5 19.4 L62.3 19.1 60.9 19.45 60.8 19.55 61.5 19.4 M49.5 16.5 Q50.1 16.7 50.1 17.1 L49.5 17.7 48.7 17.7 48.75 17.8 Q48.75 18.5 46.95 19.2 L44.45 19.95 43.95 19.8 Q43.95 18.9 45.25 18.35 L47.15 17.7 46.65 17.4 46.65 16.5 Q47.35 16.1 48.0 16.75 48.35 16.4 49.5 16.5 M47.55 20.7 Q48.15 20.9 48.15 21.25 L47.85 21.7 46.65 21.8 Q42.8 21.8 42.8 20.95 42.8 20.35 43.6 20.4 L47.55 20.7 M56.1 30.0 L55.8 30.65 56.1 30.65 56.1 30.0" fill="#ffffff" fill-opacity="0.4" fill-rule="evenodd" stroke="none"/>
  </g>
</svg>
