<?xml version="1.0" encoding="UTF-8" standalone="no"?>
<svg xmlns:xlink="http://www.w3.org/1999/xlink" height="37.7px" width="45.75px" xmlns="http://www.w3.org/2000/svg">
  <g transform="matrix(1.0, 0.0, 0.0, 1.0, -26.0, -13.5)">
    <path d="M55.65 16.4 L60.85 16.8 Q63.9 17.05 65.4 17.7 L67.55 18.0 70.85 18.0 71.6 18.05 71.75 18.2 Q71.1 19.15 68.55 19.6 L65.45 19.95 63.8 20.8 Q62.65 21.4 61.8 20.6 59.5 20.85 58.85 24.3 58.5 26.05 58.65 29.65 58.8 32.75 58.4 36.45 L58.0 40.2 58.2 42.8 Q57.5 42.85 57.1 43.45 L56.35 44.65 Q52.8 49.6 52.8 49.9 52.8 50.5 52.95 50.5 L53.45 50.4 55.15 48.55 57.25 45.7 Q57.0 46.85 55.1 49.0 L52.8 51.15 52.3 51.2 Q52.05 51.15 52.05 50.5 L54.7 45.65 Q57.35 40.15 57.35 35.7 L57.05 30.75 56.25 31.95 55.05 31.95 Q54.45 32.1 54.45 31.1 L55.55 28.9 Q56.75 26.35 57.05 24.4 L57.7 24.8 58.05 24.65 57.5 20.1 57.05 17.9 57.4 17.15 Q57.35 16.65 55.65 16.4 M56.45 21.1 L56.25 20.7 55.15 23.55 54.75 24.15 Q53.7 22.45 54.15 21.0 54.55 19.65 54.05 19.1 53.25 18.2 51.7 17.8 L49.9 17.5 48.95 17.3 Q48.75 17.2 48.75 17.8 48.75 18.7 46.8 19.3 L43.95 19.8 45.25 18.35 Q45.05 19.05 45.8 19.2 48.5 18.25 48.5 17.6 48.5 17.0 48.3 16.95 L48.1 17.0 46.65 17.35 46.65 16.5 49.55 16.55 53.55 17.9 Q55.55 18.8 56.45 21.1 M62.0 19.3 L62.3 19.1 60.8 19.55 62.0 19.3 M48.15 21.25 Q48.1 21.8 46.6 21.8 L43.05 21.5 42.8 20.95 Q44.05 20.3 45.95 20.5 47.65 20.65 48.15 21.25 M55.9 30.5 L56.1 30.5 56.75 29.55 Q57.45 28.85 57.45 27.9 L57.35 27.2 57.2 27.25 56.9 27.3 Q56.3 27.9 55.8 28.85 L55.4 29.85 Q55.4 30.85 55.9 30.5 M35.45 13.65 L35.75 14.0 35.75 14.4 Q34.5 14.4 30.65 15.8 L26.95 17.15 26.3 17.15 26.35 17.1 26.0 16.6 Q28.0 15.6 29.25 14.1 30.6 13.2 35.45 13.65 M34.65 19.65 L34.35 20.2 33.6 20.4 32.85 20.2 32.55 19.65 Q32.55 19.35 32.85 19.15 33.15 18.9 33.6 18.9 L34.35 19.15 34.65 19.65" fill="#ffffff" fill-opacity="0.4" fill-rule="evenodd" stroke="none"/>
    <path d="M58.2 42.8 L58.45 42.8 58.6 42.65 58.65 43.25 58.2 44.45 57.25 45.7 55.15 48.55 53.45 50.4 52.95 50.5 Q52.8 50.5 52.8 49.9 52.8 49.6 56.35 44.65 L57.1 43.45 Q57.5 42.85 58.2 42.8 M57.05 24.4 Q56.4 23.0 56.4 22.1 L56.45 21.1 Q55.55 18.8 53.55 17.9 L49.55 16.55 51.85 16.1 55.4 16.35 55.55 16.4 55.65 16.4 Q57.35 16.65 57.4 17.15 L57.05 17.9 57.5 20.1 58.05 24.65 57.7 24.8 57.05 24.4 M45.25 18.35 L46.65 17.35 48.1 17.0 48.3 16.95 Q48.5 17.0 48.5 17.6 48.5 18.25 45.8 19.2 45.05 19.05 45.25 18.35 M55.9 30.5 Q55.4 30.85 55.4 29.85 L55.8 28.85 Q56.3 27.9 56.9 27.3 L57.2 27.25 57.35 27.2 57.45 27.9 Q57.45 28.85 56.75 29.55 L56.1 30.5 55.9 30.5" fill="#ffffff" fill-opacity="0.69803923" fill-rule="evenodd" stroke="none"/>
  </g>
</svg>
