<?xml version="1.0" encoding="UTF-8" standalone="no"?>
<svg xmlns:xlink="http://www.w3.org/1999/xlink" height="66.35px" width="126.2px" xmlns="http://www.w3.org/2000/svg">
  <g transform="matrix(1.0, 0.0, 0.0, 1.0, 27.9, 13.85)">
    <path d="M27.75 -4.55 L25.05 -4.1 22.15 -3.65 Q21.0 -3.65 20.7 -3.95 L22.35 -4.9 27.8 -5.4 27.6 -5.05 27.65 -4.65 27.75 -4.55 M32.95 -5.35 L35.95 -4.75 40.95 -2.25 Q40.2 -1.45 38.85 -1.05 L37.6 -2.1 37.35 -1.45 38.35 0.15 38.2 0.3 37.5 0.35 Q36.95 0.35 36.65 -0.55 L36.45 -1.55 Q36.45 -2.15 37.85 -2.8 35.75 -4.25 30.25 -4.5 L31.65 -4.85 32.95 -5.35 M87.35 22.3 Q87.05 22.7 85.95 23.3 85.35 23.3 85.5 22.15 L82.05 21.5 87.35 22.3 M81.35 21.25 Q79.9 20.85 79.65 20.1 L79.6 19.05 78.3 19.2 Q76.7 19.15 75.15 17.65 L75.05 17.35 Q75.0 17.2 75.6 17.2 76.15 17.2 79.1 18.1 82.0 19.0 82.35 19.25 L81.95 19.5 Q81.65 19.65 81.65 20.2 81.65 20.8 81.3 20.7 L80.75 20.6 80.9 20.85 81.35 21.25 M96.25 26.9 L94.05 24.95 Q92.35 23.75 90.55 23.75 L89.2 22.8 93.65 23.6 Q97.15 24.85 97.8 28.35 L97.65 28.8 96.25 26.9 M96.55 30.75 L96.3 30.95 95.9 30.85 Q95.75 30.75 95.75 30.1 L95.9 28.35 96.3 29.3 96.55 30.75 M55.75 16.4 L63.9 17.2 67.6 16.5 71.95 15.8 71.55 14.35 71.75 13.5 Q71.9 13.15 72.55 13.15 L73.45 13.25 74.5 13.6 74.7 14.1 74.9 15.0 74.8 15.6 74.3 15.5 72.9 14.3 72.75 14.4 73.6 15.25 73.8 15.7 Q73.8 16.3 73.6 16.35 L72.9 16.5 Q74.05 16.8 74.45 17.2 L74.55 17.85 74.55 18.05 73.95 18.15 72.75 17.9 69.55 17.4 69.5 17.35 69.45 18.05 Q69.45 18.65 70.55 18.45 L71.75 18.2 69.85 18.85 Q68.75 17.9 68.7 19.2 L68.6 19.2 64.6 20.4 Q65.55 22.35 65.55 23.75 L65.5 23.85 Q64.55 22.1 63.55 21.3 L63.6 20.9 Q63.6 19.95 62.85 20.0 62.25 20.05 62.15 20.65 L61.8 20.6 Q59.0 20.6 58.55 28.15 58.35 32.15 58.65 38.45 L59.0 40.95 Q59.2 42.65 58.6 42.65 L57.2 45.35 57.6 43.85 57.6 43.7 Q58.15 42.95 58.35 41.85 L58.4 40.0 Q58.4 36.7 57.55 36.5 56.8 36.35 56.75 39.3 L56.15 38.5 Q55.55 43.25 55.15 44.45 L55.8 33.85 Q55.8 32.55 55.15 32.25 54.45 31.9 54.45 31.1 54.45 29.95 55.3 29.45 L55.65 29.25 55.5 27.15 Q55.15 25.2 54.2 23.65 54.55 23.15 54.4 21.65 L54.35 20.55 54.75 20.15 56.25 19.0 58.2 19.2 Q58.5 19.2 58.6 18.75 L63.0 18.75 Q63.15 19.15 63.15 18.15 L63.1 17.65 63.0 17.8 61.1 17.5 59.35 17.3 55.75 16.4 M71.35 22.45 L73.95 25.35 Q76.2 27.7 76.15 29.5 L76.15 32.55 Q75.6 32.55 75.05 33.15 L74.45 32.3 74.6 31.65 75.4 31.8 75.55 31.55 75.6 30.75 Q75.6 29.8 74.75 28.1 73.85 26.2 72.7 25.15 L72.4 25.55 69.65 24.6 Q69.5 24.55 69.45 23.9 L70.25 23.25 70.65 22.9 70.7 22.9 71.35 22.45 M51.05 52.2 L48.65 51.8 48.3 51.45 51.45 49.5 54.65 46.75 55.1 46.75 53.85 48.75 53.65 48.4 Q52.65 48.8 51.6 50.85 L51.6 50.9 Q51.05 51.85 51.05 52.2 M53.15 23.5 L53.3 24.05 53.7 26.2 53.4 28.65 Q52.95 31.65 52.6 35.6 52.8 32.65 52.5 31.6 L51.95 31.55 51.5 32.05 51.45 35.1 51.65 38.4 52.05 41.65 51.2 41.85 50.4 41.65 50.6 37.45 50.95 33.5 Q50.95 24.7 48.65 23.25 48.0 24.8 47.5 29.7 46.75 33.7 44.1 33.35 L44.0 33.35 43.95 32.7 Q43.95 32.15 44.2 31.65 L44.7 30.45 44.9 30.45 44.8 30.7 Q44.7 31.95 45.7 31.95 46.5 31.95 46.65 30.9 L46.65 29.45 46.5 28.55 46.7 23.5 Q46.7 22.6 46.4 22.5 L45.65 23.15 44.85 21.45 Q40.35 23.85 38.55 27.1 36.95 30.1 32.65 30.95 L31.95 31.4 Q31.55 30.6 30.05 32.1 28.0 34.05 28.0 34.95 L28.05 35.4 28.45 35.55 27.95 36.0 Q27.8 36.3 27.8 35.3 27.8 34.25 28.9 32.8 30.55 30.65 33.85 29.25 35.2 28.65 36.35 27.2 L39.3 23.8 Q40.25 22.95 42.45 21.75 L42.95 21.55 Q42.8 21.4 42.8 20.95 42.8 20.35 43.9 20.35 L44.95 20.45 44.6 20.05 43.95 19.8 45.25 18.35 Q44.85 17.95 37.45 18.45 37.2 18.2 36.65 18.0 35.65 17.65 35.4 18.35 32.95 18.05 31.8 18.9 31.25 18.7 31.2 18.25 32.5 17.1 35.95 16.9 L40.2 16.9 39.6 17.25 39.9 17.7 40.85 17.85 44.15 17.2 48.6 16.5 49.2 16.55 Q49.3 17.0 49.9 17.1 L51.35 17.2 Q52.15 18.05 52.65 20.75 51.7 21.95 51.7 23.1 L51.8 24.8 Q52.05 26.5 52.65 26.5 53.4 26.5 53.4 25.15 L53.15 23.5 M34.6 19.9 L34.35 20.2 33.6 20.4 32.85 20.2 32.8 20.15 32.9 20.0 34.6 19.9 M50.6 15.4 L53.6 15.2 54.45 16.15 53.7 16.05 52.8 15.75 50.6 15.4 M47.15 22.35 Q47.4 22.7 47.9 22.7 48.65 22.7 48.65 21.85 48.65 21.0 47.8 21.0 46.95 21.0 46.95 21.7 L47.0 21.8 46.7 21.8 Q46.8 22.45 47.15 22.35 M54.1 18.55 L54.7 18.75 54.2 19.2 54.1 18.55 M58.2 22.55 Q58.2 21.8 57.45 21.8 56.7 21.8 56.7 22.6 L56.75 22.95 Q56.9 23.3 57.45 23.3 L57.95 23.1 58.2 22.55 M55.95 21.75 L55.7 21.85 55.6 22.6 55.9 24.1 Q56.3 25.5 56.65 26.0 L56.7 26.0 Q56.45 21.75 55.95 21.75 M58.2 33.95 L57.7 30.65 Q57.3 29.05 56.65 28.3 56.3 28.45 56.2 28.5 L56.1 29.3 Q56.1 31.8 56.6 32.75 L57.6 34.35 58.2 33.95 M51.75 30.0 L51.8 30.0 51.7 29.1 51.75 30.0 M35.7 14.1 L35.75 14.4 Q33.95 14.6 30.25 15.85 L26.55 17.15 Q26.3 17.15 26.0 16.6 28.2 14.95 30.65 14.0 34.3 12.5 35.7 14.1 M16.6 19.0 Q17.5 18.55 19.9 17.95 L20.7 17.75 19.65 17.7 16.25 17.35 15.9 16.7 Q16.95 16.0 19.7 15.0 23.45 13.55 27.0 12.95 L27.45 13.45 Q26.55 15.2 24.2 15.65 22.2 16.0 22.2 17.25 L22.2 17.35 23.3 17.15 23.95 17.25 24.15 17.55 Q23.4 18.3 21.45 19.0 18.35 18.7 16.6 19.0 M18.0 19.95 L13.75 22.85 Q10.55 24.5 7.9 23.6 7.45 26.05 5.35 26.3 L4.25 26.25 6.15 25.55 5.7 24.95 Q8.0 24.2 8.0 22.9 L7.85 22.3 7.7 22.4 Q7.15 22.5 6.45 22.95 L5.05 23.75 6.2 22.75 Q7.2 21.9 7.9 21.75 8.4 22.0 8.2 22.7 L11.95 21.2 Q12.4 21.25 12.5 21.55 L11.75 22.45 11.05 22.8 Q12.1 22.7 13.1 21.8 L15.55 19.6 15.45 20.1 Q15.45 20.35 16.05 20.4 L18.0 19.95 M-0.05 27.1 L-2.0 27.75 Q-3.5 28.3 -4.1 28.8 -3.85 28.45 -3.85 27.85 -3.8 27.3 -4.05 27.2 L-5.7 28.7 Q-6.85 29.9 -7.2 30.6 L-7.1 31.05 -6.45 31.15 -6.4 31.45 Q-6.95 32.05 -6.95 32.6 L-6.9 33.3 -6.2 33.5 -6.15 33.5 Q-6.4 35.5 -7.05 35.85 L-7.95 35.0 -8.15 33.55 Q-8.15 30.65 -6.75 28.95 -4.75 26.55 0.7 25.5 L0.1 25.9 0.0 26.2 -0.15 26.6 -0.05 27.1 M-18.8 -6.65 L-14.95 -5.7 -10.2 -4.35 Q-6.35 -3.6 -5.0 -2.7 L-3.5 -1.6 Q-2.15 -0.8 -0.7 -0.9 0.4 -0.85 0.5 -0.25 L0.15 0.2 -0.85 0.35 Q-3.3 0.35 -4.75 -0.65 L-7.55 -2.3 -10.9 -3.3 -13.05 -3.8 -13.2 -3.9 -13.2 -4.1 Q-13.2 -4.9 -15.85 -5.35 L-16.45 -5.7 -18.8 -6.65" fill="#ffffff" fill-opacity="0.4" fill-rule="evenodd" stroke="none"/>
    <path d="M38.85 -1.05 Q39.1 -0.45 38.95 0.1 L38.35 0.15 37.35 -1.45 37.6 -2.1 38.85 -1.05 M97.65 28.8 L97.75 28.8 97.8 29.35 97.25 28.3 Q96.2 26.45 96.2 28.5 L96.3 29.3 95.9 28.35 Q96.0 27.3 96.25 26.9 L97.65 28.8 M74.6 31.65 Q74.35 31.2 74.45 30.45 L74.35 29.35 Q73.95 28.1 73.2 26.9 L72.4 25.55 72.7 25.15 Q73.85 26.2 74.75 28.1 75.6 29.8 75.6 30.75 L75.55 31.55 75.4 31.8 74.6 31.65 M55.1 50.8 Q55.1 52.0 53.7 52.35 54.4 51.95 55.1 50.8 M52.75 52.45 L51.05 52.2 Q51.05 51.85 51.6 50.9 L51.6 50.85 Q52.65 48.8 53.65 48.4 L53.85 48.75 53.45 49.25 Q52.3 50.6 52.3 51.65 L52.35 52.1 52.75 52.45 M54.65 46.75 L55.15 44.45 Q55.55 43.25 56.15 38.5 L56.75 39.3 56.7 40.3 56.75 43.1 56.65 43.2 Q55.8 44.45 55.1 46.7 L55.1 46.75 54.65 46.75 M52.6 35.6 L52.7 40.15 52.6 40.9 52.45 41.45 Q52.3 41.65 52.05 41.65 L51.65 38.4 51.45 35.1 51.5 32.05 51.95 31.55 52.5 31.6 Q52.8 32.65 52.6 35.6 M44.7 30.45 L44.6 30.05 44.85 27.55 45.15 29.0 44.9 30.45 44.7 30.45 M45.15 25.5 L45.65 23.15 46.4 22.5 Q46.7 22.6 46.7 23.5 L46.5 28.55 45.6 26.35 45.15 25.5 M40.2 16.9 L43.9 16.0 49.75 15.5 Q49.15 15.65 49.15 16.25 L49.2 16.55 48.6 16.5 44.15 17.2 40.85 17.85 39.9 17.7 39.6 17.25 40.2 16.9 M54.45 16.15 L55.75 16.4 59.35 17.3 61.1 17.5 63.0 17.8 63.1 17.65 63.15 18.15 Q63.15 19.15 63.0 18.75 L58.6 18.75 58.6 18.45 Q58.6 15.85 55.15 18.4 L54.7 18.75 54.1 18.55 53.95 17.9 55.65 17.9 56.25 17.55 56.4 17.05 53.7 16.05 54.45 16.15 M58.2 33.95 L57.6 34.35 56.6 32.75 Q56.1 31.8 56.1 29.3 L56.2 28.5 Q56.3 28.45 56.65 28.3 57.3 29.05 57.7 30.65 L58.2 33.95 M21.45 19.0 Q22.25 19.25 22.45 19.45 L22.5 19.55 20.05 20.0 18.0 19.95 16.05 20.4 Q15.45 20.35 15.45 20.1 L15.55 19.6 Q16.4 19.0 16.6 19.0 18.35 18.7 21.45 19.0 M-4.1 28.8 Q-5.8 30.8 -6.45 31.15 L-7.1 31.05 -7.2 30.6 Q-6.85 29.9 -5.7 28.7 L-4.05 27.2 Q-3.8 27.3 -3.85 27.85 -3.85 28.45 -4.1 28.8 M0.7 25.5 Q2.25 24.6 2.65 24.45 L5.05 23.75 6.45 22.95 Q7.15 22.5 7.7 22.4 L7.85 22.3 8.0 22.9 Q8.0 24.2 5.7 24.95 L5.4 24.8 1.05 25.55 Q0.25 25.8 0.0 26.2 L0.1 25.9 0.7 25.5 M-13.05 -3.8 Q-12.75 -3.65 -12.75 -3.35 L-12.7 -3.15 -13.35 -3.05 -14.15 -3.25 -14.05 -3.25 Q-13.3 -3.25 -13.2 -3.9 L-13.05 -3.8 M-19.2 -5.7 L-19.8 -6.05 -19.4 -6.45 -18.8 -6.65 -16.45 -5.7 -15.85 -5.35 -16.75 -5.5 -19.2 -5.7" fill="#ffffff" fill-opacity="0.69803923" fill-rule="evenodd" stroke="none"/>
    <path d="M1.75 -8.85 Q1.75 -8.4 1.35 -8.25 L0.9 -8.15 -9.35 -10.25 -10.35 -10.9 Q-11.0 -11.55 -11.4 -11.75 L-13.4 -12.2 Q-14.5 -12.35 -14.5 -13.0 -14.5 -13.75 -6.35 -11.7 1.75 -9.7 1.75 -8.85 M27.8 -5.4 Q28.35 -5.9 30.45 -6.3 33.25 -6.8 33.25 -5.65 L32.95 -5.35 31.65 -4.85 30.25 -4.5 28.75 -4.35 27.75 -4.55 27.65 -4.65 27.6 -5.05 27.8 -5.4 M78.75 -1.75 L78.5 -1.2 Q78.25 -1.0 78.0 -1.0 L73.65 -3.6 71.65 -4.75 Q70.7 -5.35 70.7 -5.95 70.7 -7.45 72.1 -6.6 L74.25 -5.2 Q75.65 -4.1 77.8 -3.15 78.75 -2.75 78.75 -1.75 M97.8 29.35 L98.3 30.9 Q98.3 31.85 97.55 32.15 L96.85 31.9 96.55 30.75 96.3 29.3 96.2 28.5 Q96.2 26.45 97.25 28.3 L97.8 29.35 M69.85 18.85 L70.05 19.05 Q71.4 20.4 71.4 22.0 L71.35 22.45 70.7 22.9 70.65 22.9 Q70.3 22.75 69.5 21.15 L68.7 19.35 68.7 19.2 Q68.75 17.9 69.85 18.85 M63.55 21.3 Q63.45 21.9 62.85 21.9 62.2 21.9 62.1 21.45 L62.1 20.95 62.15 20.65 Q62.25 20.05 62.85 20.0 63.6 19.95 63.6 20.9 L63.55 21.3 M57.2 45.35 Q56.15 49.0 55.1 50.8 54.4 51.95 53.7 52.35 L53.05 52.5 52.75 52.45 52.35 52.1 52.3 51.65 Q52.3 50.6 53.45 49.25 L53.85 48.75 55.1 46.75 55.1 46.7 Q55.8 44.45 56.65 43.2 L56.75 43.1 56.7 40.3 56.75 39.3 Q56.8 36.35 57.55 36.5 58.4 36.7 58.4 40.0 L58.35 41.85 Q58.15 42.95 57.6 43.7 L57.6 43.85 57.2 45.35 M54.2 23.65 L53.65 23.9 53.15 23.0 53.15 23.5 53.4 25.15 Q53.4 26.5 52.65 26.5 52.05 26.5 51.8 24.8 L51.7 23.1 Q51.7 21.95 52.65 20.75 52.15 18.05 51.35 17.2 L49.9 17.1 Q49.3 17.0 49.2 16.55 L49.15 16.25 Q49.15 15.65 49.75 15.5 L50.6 15.4 52.8 15.75 53.7 16.05 56.4 17.05 56.25 17.55 55.65 17.9 53.95 17.9 54.1 18.55 54.2 19.2 54.7 18.75 55.15 18.4 Q58.6 15.85 58.6 18.45 L58.6 18.75 Q58.5 19.2 58.2 19.2 L56.25 19.0 54.75 20.15 54.35 20.55 54.4 21.65 Q54.55 23.15 54.2 23.65 M44.85 27.55 L44.55 26.2 Q44.55 24.55 45.15 25.5 L45.6 26.35 46.5 28.55 46.65 29.45 46.65 30.9 Q46.5 31.95 45.7 31.95 44.7 31.95 44.8 30.7 L44.9 30.45 45.15 29.0 44.85 27.55 M31.95 31.4 L32.05 32.15 Q32.05 32.85 28.75 35.65 L28.45 35.55 28.05 35.4 28.0 34.95 Q28.0 34.05 30.05 32.1 31.55 30.6 31.95 31.4 M37.45 18.45 L37.65 18.95 Q37.65 19.45 37.1 19.55 L34.6 19.9 32.9 20.0 32.8 20.15 Q32.2 20.9 31.7 20.9 31.2 20.9 31.05 20.5 L31.0 20.05 31.6 19.0 31.8 18.9 Q32.95 18.05 35.4 18.35 35.65 17.65 36.65 18.0 37.2 18.2 37.45 18.45 M47.0 21.8 L46.95 21.7 Q46.95 21.0 47.8 21.0 48.65 21.0 48.65 21.85 48.65 22.7 47.9 22.7 47.4 22.7 47.15 22.35 L47.05 22.15 47.0 21.8 M58.2 22.55 L57.95 23.1 57.45 23.3 Q56.9 23.3 56.75 22.95 L56.7 22.6 Q56.7 21.8 57.45 21.8 58.2 21.8 58.2 22.55 M4.25 26.25 L0.8 27.3 -0.05 27.1 -0.15 26.6 0.0 26.2 Q0.25 25.8 1.05 25.55 L5.4 24.8 5.7 24.95 6.15 25.55 4.25 26.25 M-6.4 31.45 L-5.8 30.8 Q-4.65 29.85 -4.65 31.2 L-5.15 32.35 -6.15 33.5 -6.2 33.5 -6.9 33.3 -6.95 32.6 Q-6.95 32.05 -6.4 31.45 M-14.15 -3.25 Q-17.7 -3.25 -19.3 -4.15 -20.3 -4.7 -20.3 -5.35 -20.3 -5.7 -19.2 -5.7 L-16.75 -5.5 -15.85 -5.35 Q-13.2 -4.9 -13.2 -4.1 L-13.2 -3.9 Q-13.3 -3.25 -14.05 -3.25 L-14.15 -3.25 M-26.4 -13.1 Q-26.4 -12.8 -26.65 -12.6 -26.85 -12.4 -27.15 -12.4 -27.9 -12.4 -27.9 -13.1 -27.9 -13.9 -27.15 -13.85 -26.4 -13.85 -26.4 -13.1" fill="#ffffff" fill-rule="evenodd" stroke="none"/>
  </g>
</svg>
