<?xml version="1.0" encoding="UTF-8" standalone="no"?>
<svg xmlns:xlink="http://www.w3.org/1999/xlink" height="134.05px" width="168.0px" xmlns="http://www.w3.org/2000/svg">
  <g transform="matrix(1.0, 0.0, 0.0, 1.0, 84.45, 67.6)">
    <path d="M-20.75 -16.25 L-5.4 -18.9 Q13.7 -18.6 26.65 -13.0 8.65 19.5 -23.85 18.3 -39.45 16.95 -64.0 1.15 -36.7 -8.8 -20.75 -16.25 M10.6 26.25 L2.65 23.75 Q22.8 16.5 34.6 0.4 46.35 -15.65 51.2 -19.2 56.05 -22.75 59.5 -22.25 L60.55 -15.7 Q53.4 2.95 40.2 14.9 29.25 24.75 10.6 26.25 M8.7 -14.15 Q-16.0 -4.95 -44.15 1.15 -24.95 2.6 -7.45 -2.0 26.1 -17.0 8.7 -14.15" fill="#75bede" fill-rule="evenodd" stroke="none"/>
    <path d="M43.25 -62.35 Q45.95 -68.9 51.15 -66.25 L74.8 -58.05 Q84.9 -58.45 82.5 -51.7 L70.3 -39.85 69.05 -40.85 Q66.05 -26.15 60.55 -15.7 L59.5 -22.25 Q56.05 -22.75 51.2 -19.2 46.35 -15.65 34.6 0.4 22.8 16.5 2.65 23.75 L10.6 26.25 Q-15.65 31.55 -43.6 32.35 L-41.4 29.6 Q-38.2 26.55 -41.5 24.5 -72.15 8.25 -82.85 -1.15 L-45.3 -12.0 -20.75 -16.25 Q-36.7 -8.8 -64.0 1.15 -39.45 16.95 -23.85 18.3 8.65 19.5 26.65 -13.0 13.7 -18.6 -5.4 -18.9 L4.05 -20.55 Q8.75 -22.25 13.2 -25.05 L15.0 -26.25 Q37.3 -26.55 43.6 -29.25 49.85 -31.95 55.7 -37.7 57.85 -39.85 57.75 -41.35 47.8 -45.1 41.4 -58.9 L42.6 -61.2 43.2 -62.4 43.25 -62.35" fill="#666666" fill-rule="evenodd" stroke="none"/>
    <path d="M15.0 -26.25 Q17.9 -28.25 20.7 -30.8 24.45 -34.2 28.05 -38.45 L29.35 -40.1 31.05 -42.25 36.0 -49.5 37.35 -51.75 37.55 -52.0 40.8 -57.8 41.4 -58.9 Q47.8 -45.1 57.75 -41.35 57.85 -39.85 55.7 -37.7 49.85 -31.95 43.6 -29.25 37.3 -26.55 15.0 -26.25" fill="#e2757a" fill-rule="evenodd" stroke="none"/>
    <path d="M82.5 -51.7 L82.25 -49.35 Q78.0 -39.3 68.85 -32.15 65.45 -28.05 67.0 -22.95 71.55 -13.15 69.55 2.25 63.2 15.7 55.25 25.6 49.7 32.4 43.45 37.55 24.0 41.6 9.55 35.85 -22.5 25.0 -34.1 39.75 -45.75 54.5 -61.05 64.75 -72.55 66.95 -83.85 64.75 -61.8 54.4 -43.6 32.35 -15.65 31.55 10.6 26.25 31.5 32.2 40.25 28.3 63.85 14.1 60.55 -15.7 66.05 -26.15 69.05 -40.85 L70.3 -39.85 82.5 -51.7" fill="#5f5e5f" fill-rule="evenodd" stroke="none"/>
    <path d="M82.25 -49.35 L82.1 -47.8 80.05 -31.9 79.55 -29.05 78.1 -21.85 Q77.05 -17.15 75.85 -13.35 L74.7 -10.05 Q72.25 -3.55 69.55 2.25 71.55 -13.15 67.0 -22.95 65.45 -28.05 68.85 -32.15 78.0 -39.3 82.25 -49.35 M60.55 -15.7 Q63.85 14.1 40.25 28.3 31.5 32.2 10.6 26.25 29.25 24.75 40.2 14.9 53.4 2.95 60.55 -15.7" fill="#3d9cc0" fill-rule="evenodd" stroke="none"/>
    <path d="M8.7 -14.15 Q26.1 -17.0 -7.45 -2.0 -24.95 2.6 -44.15 1.15 -16.0 -4.95 8.7 -14.15" fill="#aad2e7" fill-rule="evenodd" stroke="none"/>
    <path d="M43.45 37.55 Q39.0 41.2 34.15 44.0 20.8 49.4 6.45 53.5 -34.45 62.05 -48.2 63.4 L-61.05 64.75 Q-45.75 54.5 -34.1 39.75 -22.5 25.0 9.55 35.85 24.0 41.6 43.45 37.55" fill="#c85d64" fill-rule="evenodd" stroke="none"/>
    <path d="M43.25 -62.35 Q45.95 -68.9 51.15 -66.25 M74.8 -58.05 Q84.9 -58.45 82.5 -51.7 L82.25 -49.35 82.1 -47.8 80.05 -31.9 79.55 -29.05 78.1 -21.85 Q77.05 -17.15 75.85 -13.35 L74.7 -10.05 Q72.25 -3.55 69.55 2.25 63.2 15.7 55.25 25.6 49.7 32.4 43.45 37.55 39.0 41.2 34.15 44.0 20.8 49.4 6.45 53.5 -34.45 62.05 -48.2 63.4 L-61.05 64.75 Q-72.55 66.95 -83.85 64.75 -61.8 54.4 -43.6 32.35 L-41.4 29.6 M-41.5 24.5 Q-72.15 8.25 -82.85 -1.15 L-45.3 -12.0 -20.75 -16.25 -5.4 -18.9 4.05 -20.55 Q8.75 -22.25 13.2 -25.05 L15.0 -26.25 Q17.9 -28.25 20.7 -30.8 24.45 -34.2 28.05 -38.45 L29.35 -40.1 31.05 -42.25 36.0 -49.5 37.35 -51.75 M37.55 -52.0 L40.8 -57.8 41.4 -58.9 42.6 -61.2 43.2 -62.4" fill="none" stroke="#2e221f" stroke-linecap="round" stroke-linejoin="round" stroke-width="1.2000000000000002"/>
    <path d="M-41.4 29.6 Q-38.2 26.55 -41.5 24.5 M37.35 -51.75 L37.55 -52.0 M60.55 -15.7 Q63.85 14.1 40.25 28.3 31.5 32.2 10.6 26.25 L2.65 23.75 Q22.8 16.5 34.6 0.4 46.35 -15.65 51.2 -19.2 56.05 -22.75 59.5 -22.25 L60.55 -15.7 M41.4 -58.9 Q47.8 -45.1 57.75 -41.35 57.85 -39.85 55.7 -37.7 49.85 -31.95 43.6 -29.25 37.3 -26.55 15.0 -26.25 M69.55 2.25 Q71.55 -13.15 67.0 -22.95 65.45 -28.05 68.85 -32.15 78.0 -39.3 82.25 -49.35 M43.45 37.55 Q24.0 41.6 9.55 35.85 -22.5 25.0 -34.1 39.75 -45.75 54.5 -61.05 64.75 M-20.75 -16.25 Q-36.7 -8.8 -64.0 1.15 -39.45 16.95 -23.85 18.3 8.65 19.5 26.65 -13.0 13.7 -18.6 -5.4 -18.9" fill="none" stroke="#2e221f" stroke-linecap="round" stroke-linejoin="miter-clip" stroke-miterlimit="8.0" stroke-width="1.2000000000000002"/>
  </g>
</svg>
