<?xml version="1.0" encoding="UTF-8" standalone="no"?>
<svg xmlns:xlink="http://www.w3.org/1999/xlink" height="198.35px" width="43.35px" xmlns="http://www.w3.org/2000/svg">
  <g transform="matrix(1.0, 0.0, 0.0, 1.0, 21.65, 99.15)">
    <path d="M7.2 -98.95 Q4.65 -87.85 0.2 -78.25 -6.75 -61.8 -4.5 -51.55 -10.85 -47.35 -14.25 -43.15 -15.8 -49.6 -15.2 -57.65 -10.15 -77.45 4.25 -96.85 6.05 -99.85 7.2 -98.95 M-2.85 -40.5 Q-0.7 -27.75 3.7 -21.35 13.7 -2.55 11.95 24.75 2.1 31.5 -8.2 14.55 -5.15 13.6 -9.8 -11.65 L-12.5 -31.25 Q-8.15 -37.1 -2.85 -40.5 M-17.65 67.1 Q-13.35 56.8 -11.4 44.4 -8.75 54.6 -11.4 70.1 -8.35 70.25 -6.85 61.95 -7.05 36.15 -9.95 29.05 L-9.8 22.45 Q-5.5 31.05 -1.2 35.1 L-1.2 74.6 Q-1.5 79.55 -2.5 84.05 -11.3 80.35 -17.65 67.1" fill="#75bede" fill-rule="evenodd" stroke="none"/>
    <path d="M-4.5 -51.55 Q-6.75 -61.8 0.2 -78.25 4.65 -87.85 7.2 -98.95 12.05 -99.1 13.6 -97.45 L14.0 -96.95 Q14.45 -96.15 14.3 -94.9 L13.8 -93.15 13.8 -93.1 Q3.6 -74.7 3.55 -56.25 -0.95 -53.9 -4.5 -51.55 M4.6 -43.95 Q5.25 -40.1 6.4 -36.25 19.15 -7.0 20.85 13.65 16.45 21.65 11.95 24.75 13.7 -2.55 3.7 -21.35 -0.7 -27.75 -2.85 -40.5 0.65 -42.75 4.6 -43.95" fill="#3d9cc0" fill-rule="evenodd" stroke="none"/>
    <path d="M-4.5 -51.55 Q-0.95 -53.9 3.55 -56.25 3.5 -50.1 4.6 -43.95 0.65 -42.75 -2.85 -40.5 L-4.5 -51.55 M11.95 24.75 Q16.45 21.65 20.85 13.65 21.35 19.95 20.85 25.45 17.25 31.9 11.35 35.3 L11.95 24.75 M18.95 76.45 L18.25 85.2 Q17.85 90.65 6.65 99.2 L4.05 99.2 5.85 90.3 Q13.05 85.7 18.95 76.45" fill="#5f5e5f" fill-rule="evenodd" stroke="none"/>
    <path d="M9.55 69.0 Q9.8 56.15 7.9 36.9 9.7 36.2 11.35 35.3 12.45 42.1 9.55 69.0" fill="#e2757a" fill-rule="evenodd" stroke="none"/>
    <path d="M-14.25 -43.15 Q-10.85 -47.35 -4.5 -51.55 L-2.85 -40.5 Q-8.15 -37.1 -12.5 -31.25 L-15.65 -26.5 -17.9 -36.25 Q-17.1 -39.7 -14.25 -43.15 M4.05 99.2 Q-11.05 92.95 -21.05 74.5 L-18.8 69.7 -17.65 67.1 Q-11.3 80.35 -2.5 84.05 -1.5 79.55 -1.2 74.6 L-1.2 35.1 Q-5.5 31.05 -9.8 22.45 -9.85 16.9 -10.2 11.0 L-8.2 14.55 Q2.1 31.5 11.95 24.75 L11.35 35.3 Q9.7 36.2 7.9 36.9 9.8 56.15 9.55 69.0 9.2 84.05 5.85 90.3 L4.05 99.2" fill="#666666" fill-rule="evenodd" stroke="none"/>
    <path d="M20.85 25.45 Q20.55 54.7 18.95 76.45 13.05 85.7 5.85 90.3 9.2 84.05 9.55 69.0 12.45 42.1 11.35 35.3 17.25 31.9 20.85 25.45" fill="#c85d64" fill-rule="evenodd" stroke="none"/>
    <path d="M-15.2 -57.65 Q-15.8 -49.6 -14.25 -43.15 -17.1 -39.7 -17.9 -36.25 -17.9 -47.0 -15.2 -57.65 M-11.4 44.4 Q-10.25 37.1 -9.95 29.05 -7.05 36.15 -6.85 61.95 -8.35 70.25 -11.4 70.1 -8.75 54.6 -11.4 44.4 M-10.2 11.0 Q-11.35 -6.35 -15.65 -26.5 L-12.5 -31.25 -9.8 -11.65 Q-5.15 13.6 -8.2 14.55 L-10.2 11.0" fill="#aad2e7" fill-rule="evenodd" stroke="none"/>
    <path d="M4.25 -96.85 Q-10.15 -77.45 -15.2 -57.65 -17.9 -47.0 -17.9 -36.25 L-15.65 -26.5 Q-11.35 -6.35 -10.2 11.0 -9.85 16.9 -9.8 22.45 L-9.95 29.05 Q-10.25 37.1 -11.4 44.4 -13.35 56.8 -17.65 67.1 L-18.8 69.7 -21.05 74.5 M3.55 -56.25 Q3.6 -74.7 13.8 -93.1 L13.8 -93.15 14.3 -94.9 Q14.45 -96.15 14.0 -96.95 L13.6 -97.45 M20.85 13.65 Q19.15 -7.0 6.4 -36.25 5.25 -40.1 4.6 -43.95 3.5 -50.1 3.55 -56.25 M20.85 13.65 Q21.35 19.95 20.85 25.45 20.55 54.7 18.95 76.45 L18.25 85.2" fill="none" stroke="#2e221f" stroke-linecap="round" stroke-linejoin="round" stroke-width="1.2000000000000002"/>
    <path d="M-14.25 -43.15 Q-10.85 -47.35 -4.5 -51.55 -0.95 -53.9 3.55 -56.25 M4.6 -43.95 Q0.65 -42.75 -2.85 -40.5 -8.15 -37.1 -12.5 -31.25 L-15.65 -26.5 M11.95 24.75 Q16.45 21.65 20.85 13.65 M11.35 35.3 Q9.7 36.2 7.9 36.9 9.8 56.15 9.55 69.0 9.2 84.05 5.85 90.3 13.05 85.7 18.95 76.45 M11.95 24.75 Q2.1 31.5 -8.2 14.55 L-10.2 11.0 M20.85 25.45 Q17.25 31.9 11.35 35.3 M-14.25 -43.15 Q-17.1 -39.7 -17.9 -36.25 M-9.8 22.45 Q-5.5 31.05 -1.2 35.1 L-1.2 74.6 Q-1.5 79.55 -2.5 84.05 -11.3 80.35 -17.65 67.1" fill="none" stroke="#2e221f" stroke-linecap="round" stroke-linejoin="miter-clip" stroke-miterlimit="8.0" stroke-width="1.2000000000000002"/>
  </g>
</svg>
