<?xml version="1.0" encoding="UTF-8" standalone="no"?>
<svg xmlns:xlink="http://www.w3.org/1999/xlink" height="147.15px" width="158.85px" xmlns="http://www.w3.org/2000/svg">
  <g transform="matrix(1.0, 0.0, 0.0, 1.0, 78.15, 75.3)">
    <path d="M5.7 -52.8 L7.3 -60.05 9.3 -64.75 Q19.35 -85.7 30.95 -62.45 L33.95 -55.55 34.25 -53.15 Q35.9 -49.5 34.95 -44.25 28.35 -54.9 26.3 -60.25 L25.0 -58.6 Q23.45 -59.55 23.3 -63.05 19.05 -56.7 13.35 -51.4 14.2 -57.1 12.95 -62.85 8.7 -58.05 5.7 -52.8 M50.05 -34.6 L50.1 -34.6 Q55.4 -40.15 61.1 -43.75 83.1 -57.8 79.6 -35.65 78.6 -41.2 76.55 -44.65 73.85 -41.2 69.85 -38.7 71.15 -41.85 70.7 -42.9 65.7 -37.05 56.55 -32.65 59.55 -36.5 59.9 -39.0 55.75 -33.4 49.55 -29.15 50.7 -32.4 50.45 -34.25 L50.05 -34.6 M-75.75 -18.0 Q-77.15 -24.95 -77.45 -32.05 -79.15 -63.05 -57.7 -44.8 L-55.3 -42.55 Q-51.5 -35.6 -50.25 -29.0 -61.55 -39.2 -66.95 -40.3 -69.55 -36.2 -68.85 -30.8 -71.4 -32.5 -72.75 -35.95 -76.1 -28.25 -75.75 -18.0 M-38.7 -51.55 Q-38.4 -57.25 -37.35 -62.35 -31.3 -82.75 -14.95 -63.65 -8.3 -54.9 -2.9 -45.1 L-3.0 -45.2 -3.05 -45.25 Q-9.05 -52.4 -13.3 -55.2 -11.25 -51.55 -11.55 -48.9 -19.0 -58.7 -24.0 -60.5 -24.8 -58.4 -24.45 -54.05 -26.35 -57.2 -27.95 -57.2 -34.35 -51.95 -35.1 -43.45 -36.55 -44.85 -38.7 -51.55" fill="#aad2e7" fill-rule="evenodd" stroke="none"/>
    <path d="M33.95 -55.55 L34.8 -53.3 Q40.3 -37.8 39.8 -21.6 44.75 -29.05 50.05 -34.6 L50.45 -34.25 Q50.7 -32.4 49.55 -29.15 55.75 -33.4 59.9 -39.0 59.55 -36.5 56.55 -32.65 65.7 -37.05 70.7 -42.9 71.15 -41.85 69.85 -38.7 73.85 -41.2 76.55 -44.65 78.6 -41.2 79.6 -35.65 78.65 -29.7 75.85 -21.15 70.6 16.8 20.3 53.8 23.35 48.85 24.05 43.25 24.55 36.7 28.1 31.8 52.3 18.65 70.8 -26.85 71.6 -36.6 61.55 -29.9 58.25 -27.7 53.65 -23.7 L39.95 -6.95 37.7 -4.1 Q34.65 9.3 27.8 23.1 L23.2 31.6 16.65 42.1 Q19.2 33.65 12.15 26.0 19.8 21.15 23.05 12.7 35.55 -19.5 28.9 -44.7 L27.3 -48.25 Q22.3 -57.6 16.25 -50.0 L14.2 -46.95 Q7.2 -37.05 7.05 -20.1 5.05 -27.65 1.95 -34.85 5.05 -27.65 7.05 -20.1 10.4 -7.55 10.95 5.7 L10.9 13.65 10.15 24.9 9.75 27.85 8.7 34.55 Q7.1 32.7 -5.75 35.75 L-5.65 36.05 -3.9 42.45 Q-2.75 46.8 -1.9 51.25 L-1.9 51.55 Q-2.05 60.25 -6.7 67.25 -5.65 68.85 -4.3 71.4 L-6.7 71.25 -6.7 67.25 -20.15 57.7 Q-67.55 22.1 -75.75 -18.0 -76.1 -28.25 -72.75 -35.95 -71.4 -32.5 -68.85 -30.8 -69.55 -36.2 -66.95 -40.3 -61.55 -39.2 -50.25 -29.0 -51.5 -35.6 -55.3 -42.55 -45.05 -32.45 -36.65 -21.85 -39.5 -38.35 -38.7 -51.55 -36.55 -44.85 -35.1 -43.45 -34.35 -51.95 -27.95 -57.2 -26.35 -57.2 -24.45 -54.05 -24.8 -58.4 -24.0 -60.5 -19.0 -58.7 -11.55 -48.9 -11.25 -51.55 -13.3 -55.2 -9.05 -52.4 -3.05 -45.25 L-3.0 -45.2 Q-0.3 -40.1 1.95 -34.85 L5.7 -52.8 Q8.7 -58.05 12.95 -62.85 14.2 -57.1 13.35 -51.4 19.05 -56.7 23.3 -63.05 23.45 -59.55 25.0 -58.6 L26.3 -60.25 Q28.35 -54.9 34.95 -44.25 35.9 -49.5 34.25 -53.15 L33.95 -55.55 M39.8 -21.6 Q39.6 -13.0 37.7 -4.1 39.6 -13.0 39.8 -21.6 M-51.95 -22.6 L-58.8 -28.75 Q-68.35 -32.95 -68.0 -21.75 -60.9 0.2 -51.15 15.25 -43.65 26.9 -34.55 34.3 -13.75 51.3 -23.4 19.1 -31.4 -2.8 -51.95 -22.6 M-11.35 13.85 Q2.45 33.7 1.55 10.75 0.6 -23.8 -17.85 -46.8 -28.6 -57.4 -29.15 -43.4 -32.25 -16.2 -11.35 13.85 M-5.75 35.75 Q-9.6 23.2 -15.5 11.15 -24.0 -5.9 -36.65 -21.85 -24.0 -5.9 -15.5 11.15 -9.6 23.2 -5.75 35.75" fill="#75bede" fill-rule="evenodd" stroke="none"/>
    <path d="M23.2 31.6 L27.8 23.1 Q34.65 9.3 37.7 -4.1 L39.95 -6.95 Q43.45 0.65 40.15 9.15 34.55 24.45 26.25 32.75 L23.7 33.9 21.35 34.75 23.6 33.5 23.2 31.6 M7.05 -20.1 Q13.25 -11.8 13.7 -7.25 16.55 11.8 12.15 26.0 10.6 26.95 9.75 27.85 L10.15 24.9 10.9 13.65 10.95 5.7 Q10.4 -7.55 7.05 -20.1" fill="#c85d64" fill-rule="evenodd" stroke="none"/>
    <path d="M7.05 -20.1 Q7.2 -37.05 14.2 -46.95 L16.25 -50.0 Q22.3 -57.6 27.3 -48.25 L28.9 -44.7 Q35.55 -19.5 23.05 12.7 19.8 21.15 12.15 26.0 16.55 11.8 13.7 -7.25 13.25 -11.8 7.05 -20.1 M39.95 -6.95 L53.65 -23.7 Q58.25 -27.7 61.55 -29.9 71.6 -36.6 70.8 -26.85 52.3 18.65 28.1 31.8 L26.25 32.75 Q34.55 24.45 40.15 9.15 43.45 0.65 39.95 -6.95 M-51.95 -22.6 Q-31.4 -2.8 -23.4 19.1 -13.75 51.3 -34.55 34.3 -43.65 26.9 -51.15 15.25 -56.4 -5.05 -51.95 -22.6 M-11.35 13.85 Q-32.25 -16.2 -29.15 -43.4 -28.6 -57.4 -17.85 -46.8 0.6 -23.8 1.55 10.75 2.45 33.7 -11.35 13.85" fill="#e2757a" fill-rule="evenodd" stroke="none"/>
    <path d="M20.3 53.8 Q12.1 59.85 2.75 65.85 L3.15 68.35 -4.3 71.4 Q-5.65 68.85 -6.7 67.25 -2.05 60.25 -1.9 51.55 L-1.9 51.25 Q-2.75 46.8 -3.9 42.45 L-5.65 36.05 -5.75 35.75 Q7.1 32.7 8.7 34.55 L9.75 27.85 Q10.6 26.95 12.15 26.0 19.2 33.65 16.65 42.1 L23.2 31.6 23.6 33.5 21.35 34.75 23.7 33.9 26.25 32.75 28.1 31.8 Q24.55 36.7 24.05 43.25 23.35 48.85 20.3 53.8" fill="#3d9cc0" fill-rule="evenodd" stroke="none"/>
    <path d="M-51.15 15.25 Q-60.9 0.2 -68.0 -21.75 -68.35 -32.95 -58.8 -28.75 L-51.95 -22.6 Q-56.4 -5.05 -51.15 15.25" fill="#eb969a" fill-rule="evenodd" stroke="none"/>
    <path d="M5.7 -52.8 L7.3 -60.05 9.3 -64.75 Q19.35 -85.7 30.95 -62.45 L33.95 -55.55 34.8 -53.3 Q40.3 -37.8 39.8 -21.6 44.75 -29.05 50.05 -34.6 L50.1 -34.6 Q55.4 -40.15 61.1 -43.75 83.1 -57.8 79.6 -35.65 78.65 -29.7 75.85 -21.15 70.6 16.8 20.3 53.8 12.1 59.85 2.75 65.85 L3.15 68.35 M-6.7 71.25 L-6.7 67.25 -20.15 57.7 Q-67.55 22.1 -75.75 -18.0 -77.15 -24.95 -77.45 -32.05 -79.15 -63.05 -57.7 -44.8 L-55.3 -42.55 Q-45.05 -32.45 -36.65 -21.85 -39.5 -38.35 -38.7 -51.55 -38.4 -57.25 -37.35 -62.35 -31.3 -82.75 -14.95 -63.65 -8.3 -54.9 -2.9 -45.1 M-3.0 -45.2 Q-0.3 -40.1 1.95 -34.85 L5.7 -52.8 M1.95 -34.85 Q5.05 -27.65 7.05 -20.1 7.2 -37.05 14.2 -46.95 L16.25 -50.0 Q22.3 -57.6 27.3 -48.25 L28.9 -44.7 Q35.55 -19.5 23.05 12.7 19.8 21.15 12.15 26.0 10.6 26.95 9.75 27.85 L8.7 34.55 M16.65 42.1 L23.2 31.6 27.8 23.1 Q34.65 9.3 37.7 -4.1 39.6 -13.0 39.8 -21.6 M37.7 -4.1 L39.95 -6.95 53.65 -23.7 Q58.25 -27.7 61.55 -29.9 71.6 -36.6 70.8 -26.85 52.3 18.65 28.1 31.8 L26.25 32.75 23.7 33.9 21.35 34.75 M7.05 -20.1 Q10.4 -7.55 10.95 5.7 L10.9 13.65 10.15 24.9 9.75 27.85 M-51.15 15.25 Q-60.9 0.2 -68.0 -21.75 -68.35 -32.95 -58.8 -28.75 L-51.95 -22.6 Q-31.4 -2.8 -23.4 19.1 -13.75 51.3 -34.55 34.3 -43.65 26.9 -51.15 15.25 M-11.35 13.85 Q2.45 33.7 1.55 10.75 0.6 -23.8 -17.85 -46.8 -28.6 -57.4 -29.15 -43.4 -32.25 -16.2 -11.35 13.85 M-36.65 -21.85 Q-24.0 -5.9 -15.5 11.15 -9.6 23.2 -5.75 35.75" fill="none" stroke="#2e221f" stroke-linecap="round" stroke-linejoin="round" stroke-width="1.2000000000000002"/>
    <path d="M-6.2 36.2 L-6.2 36.15 Q-6.35 35.6 -5.75 35.4 -5.15 35.3 -5.05 35.85 L-2.0 50.05 -1.8 51.5 -1.85 51.6 -1.95 51.55 -6.2 36.2 M16.15 41.75 L16.15 41.7 17.0 41.6 Q17.45 41.95 17.1 42.4 L8.4 53.45 8.05 53.8 7.1 54.95 6.95 54.95 6.95 54.8 16.15 41.75 M8.1 34.4 L8.1 34.35 Q8.2 33.8 8.8 33.9 9.4 34.1 9.25 34.65 L8.95 36.15 8.8 36.6 6.3 46.15 6.25 46.25 6.25 46.3 4.85 50.65 4.75 50.7 4.7 50.6 5.75 46.2 5.8 46.1 5.8 46.05 5.95 45.5 8.1 34.4" fill="#2e221f" fill-rule="evenodd" stroke="none"/>
  </g>
</svg>
