<?xml version="1.0" encoding="UTF-8" standalone="no"?>
<svg xmlns:xlink="http://www.w3.org/1999/xlink" height="332.4px" width="101.0px" xmlns="http://www.w3.org/2000/svg">
  <g transform="matrix(1.0, 0.0, 0.0, 1.0, 50.5, 166.2)">
    <path d="M-48.75 -59.75 Q-46.25 -74.4 -43.05 -86.9 -43.5 -76.5 -40.35 -73.45 -40.5 -83.25 -36.6 -89.25 -34.95 -72.1 -31.15 -63.6 -30.1 -79.15 -30.35 -94.45 -29.7 -82.6 -26.65 -75.9 -27.65 -86.85 -26.65 -96.0 -24.55 -70.45 -19.8 -46.05 L-19.45 -44.2 Q-17.2 -32.8 -14.35 -21.65 L-16.15 -17.75 -18.05 -20.1 -17.8 -14.2 -19.7 -10.1 -20.35 -12.45 -21.3 -7.6 -21.35 -6.55 Q-26.1 -9.65 -26.95 -16.4 -26.45 -23.7 -28.65 -25.65 L-28.4 -18.95 -33.55 -28.05 Q-33.25 -20.45 -36.65 -15.25 L-37.7 -19.75 Q-38.8 -14.55 -38.95 -8.8 L-39.85 -2.05 -40.25 -1.7 -44.9 -13.5 -45.0 -7.55 -46.75 -9.75 -49.85 -18.15 -49.3 -44.2 -49.25 -46.05 -48.75 -59.75 M-49.6 16.15 L-46.3 25.0 Q-46.7 21.15 -45.2 15.75 -43.05 16.6 -41.4 23.45 L-39.1 29.5 -38.95 25.75 -37.0 28.55 -35.45 29.45 Q-37.15 21.3 -35.8 17.55 -35.5 21.2 -33.7 22.35 L-34.0 10.45 Q-33.65 14.2 -31.85 14.35 L-31.05 11.7 -30.4 5.05 -23.9 18.45 -23.9 11.55 Q-20.9 12.65 -17.15 19.55 L-14.9 26.85 -14.4 22.3 -14.0 23.0 -12.7 12.5 -10.4 16.0 -8.8 4.5 -5.5 8.3 -4.6 10.8 -4.55 11.0 -4.45 11.35 -4.6 10.8 -4.45 11.35 -4.25 11.9 -4.2 12.1 -4.3 11.8 -4.25 11.9 -4.3 11.8 -4.2 12.1 -4.0 12.6 -3.95 12.65 -3.95 12.7 -3.95 12.8 -3.85 13.05 -3.75 13.35 -3.75 13.4 -3.65 13.55 -3.65 13.6 -3.65 13.65 -3.65 13.55 -3.65 13.65 -3.45 14.15 -3.6 13.85 -3.15 15.1 -1.15 20.55 Q2.75 30.95 7.2 41.15 L13.1 54.05 Q19.15 66.65 26.1 78.9 L26.6 87.6 Q24.2 87.55 21.85 86.7 21.6 91.3 22.55 97.0 23.05 100.05 23.85 103.35 L17.65 97.8 Q19.6 119.25 17.05 130.55 11.85 125.35 8.65 118.65 10.15 131.0 7.75 138.25 4.75 132.7 1.75 131.2 1.85 133.9 0.35 137.65 -11.8 131.0 -19.45 114.15 L-22.2 120.35 Q-24.95 114.35 -29.65 111.4 -27.65 118.35 -29.35 123.15 -32.1 121.75 -34.3 117.7 L-34.3 124.65 Q-38.85 119.55 -41.85 111.15 -44.65 92.35 -46.9 66.25 L-47.85 54.05 -48.0 51.85 -48.05 51.1 -48.15 50.0 -48.65 41.15 -49.3 26.0 -49.5 19.2 -49.55 18.5 -49.55 17.15 -49.6 16.45 -49.6 16.15 M-10.95 -9.1 L-11.5 -11.0 -10.8 -8.75 -10.95 -9.1 M-4.3 11.8 L-4.45 11.35 -4.3 11.8 M-3.65 13.65 L-3.6 13.85 -3.65 13.65" fill="#e2757a" fill-rule="evenodd" stroke="none"/>
    <path d="M-49.85 -18.15 L-46.75 -9.75 -45.0 -7.55 -44.9 -13.5 -40.25 -1.7 -39.85 -2.05 -38.95 -8.8 Q-38.8 -14.55 -37.7 -19.75 L-36.65 -15.25 Q-33.25 -20.45 -33.55 -28.05 L-28.4 -18.95 -28.65 -25.65 Q-26.45 -23.7 -26.95 -16.4 -26.1 -9.65 -21.35 -6.55 L-21.3 -7.6 -20.35 -12.45 -19.7 -10.1 -17.8 -14.2 -18.05 -20.1 -16.15 -17.75 -14.35 -21.65 -11.65 -11.55 -11.5 -11.0 -10.95 -9.1 -10.8 -8.75 -4.6 10.8 -5.5 8.3 -8.8 4.5 -10.4 16.0 -12.7 12.5 -14.0 23.0 -14.4 22.3 -14.9 26.85 -17.15 19.55 Q-20.9 12.65 -23.9 11.55 L-23.9 18.45 -30.4 5.05 -31.05 11.7 -31.85 14.35 Q-33.65 14.2 -34.0 10.45 L-33.7 22.35 Q-35.5 21.2 -35.8 17.55 -37.15 21.3 -35.45 29.45 L-37.0 28.55 -38.95 25.75 -39.1 29.5 -41.4 23.45 Q-43.05 16.6 -45.2 15.75 -46.7 21.15 -46.3 25.0 L-49.6 16.15 -49.6 16.0 -49.6 14.6 -49.85 -5.9 -49.85 -7.25 -49.85 -8.0 -49.85 -9.6 -49.85 -10.65 -49.85 -13.6 -49.85 -18.05 -49.85 -18.15 M-10.95 -9.1 L-10.0 -5.85 -9.8 -5.15 -7.85 1.15 -5.5 8.3 -7.85 1.15 -9.8 -5.15 -10.0 -5.85 -10.95 -9.1 M26.1 78.9 Q48.95 105.85 49.9 120.5 38.95 121.95 24.25 107.9 32.5 132.95 17.0 165.6 -13.5 148.95 -21.6 125.65 -20.8 155.15 -24.3 159.5 -34.75 158.65 -41.85 111.15 -38.85 119.55 -34.3 124.65 L-34.3 117.7 Q-32.1 121.75 -29.35 123.15 -27.65 118.35 -29.65 111.4 -24.95 114.35 -22.2 120.35 L-19.45 114.15 Q-11.8 131.0 0.35 137.65 1.85 133.9 1.75 131.2 4.75 132.7 7.75 138.25 10.15 131.0 8.65 118.65 11.85 125.35 17.05 130.55 19.6 119.25 17.65 97.8 L23.85 103.35 Q23.05 100.05 22.55 97.0 21.6 91.3 21.85 86.7 24.2 87.55 26.6 87.6 L26.1 78.9 M-3.65 13.55 L-3.75 13.4 -3.75 13.35 -3.85 13.05 -3.9 12.85 -3.7 13.45 -3.65 13.55" fill="#eb969a" fill-rule="evenodd" stroke="none"/>
    <path d="M-41.2 -165.6 L-27.55 -165.6 Q-29.4 -129.8 -26.65 -96.0 -27.65 -86.85 -26.65 -75.9 -29.7 -82.6 -30.35 -94.45 -30.1 -79.15 -31.15 -63.6 -34.95 -72.1 -36.6 -89.25 -40.5 -83.25 -40.35 -73.45 -43.5 -76.5 -43.05 -86.9 -46.25 -74.4 -48.75 -59.75 L-47.4 -87.1 Q-45.25 -124.3 -41.2 -165.6" fill="#c85d64" fill-rule="evenodd" stroke="none"/>
    <path d="M-41.2 -165.6 Q-45.25 -124.3 -47.4 -87.1 L-48.75 -59.75 -49.25 -46.05 -49.3 -44.2 -49.85 -18.15 -49.85 -18.05 -49.85 -13.6 -49.85 -10.65 -49.85 -9.6 -49.85 -8.0 -49.85 -7.25 -49.85 -5.9 -49.6 14.6 -49.6 16.0 -49.6 16.15 -49.6 16.45 -49.55 17.15 -49.55 18.5 -49.5 19.2 -49.55 18.65 -49.55 18.5 M-26.65 -96.0 Q-29.4 -129.8 -27.55 -165.6 M-14.35 -21.65 Q-17.2 -32.8 -19.45 -44.2 L-19.8 -46.05 Q-24.55 -70.45 -26.65 -96.0 M-5.5 8.3 L-7.85 1.15 -9.8 -5.15 -10.0 -5.85 -10.95 -9.1 -11.5 -11.0 -11.65 -11.55 -14.35 -21.65 M-10.8 -8.75 L-11.5 -11.0 M-10.8 -8.75 L-10.95 -9.1 M-4.2 12.1 L-4.25 11.9 -4.3 11.8 -4.2 12.1 -4.15 12.15 -4.25 11.9 -4.45 11.35 -4.3 11.8 M-4.45 11.35 L-4.55 11.0 -4.6 10.8 -4.45 11.35 M-4.6 10.8 L-5.5 8.3 M-3.65 13.65 L-3.65 13.6 -3.65 13.55 -3.65 13.65 -3.45 14.15 -3.45 14.2 -3.4 14.3 -3.35 14.5 -3.15 15.1 -1.15 20.55 Q2.75 30.95 7.2 41.15 L13.1 54.05 Q19.15 66.65 26.1 78.9 48.95 105.85 49.9 120.5 38.95 121.95 24.25 107.9 32.5 132.95 17.0 165.6 -13.5 148.95 -21.6 125.65 -20.8 155.15 -24.3 159.5 -34.75 158.65 -41.85 111.15 -44.65 92.35 -46.9 66.25 L-47.85 54.05 -48.0 51.85 -48.05 51.1 -48.15 50.0 -48.65 41.15 -49.3 26.0 -49.5 19.2 M-3.6 13.85 L-3.65 13.65 M-3.65 13.55 L-3.75 13.4 -3.75 13.35 -3.85 13.05 -3.95 12.8 -3.95 12.7 -3.95 12.65 -4.0 12.6 -4.2 12.1 M-3.65 13.55 L-3.7 13.45 -3.9 12.85 -3.85 13.05 M-4.0 12.6 L-4.0 12.55 -4.15 12.15 M-3.9 12.85 L-3.95 12.8 M-3.45 14.15 L-3.6 13.85 -3.15 15.1 M-4.6 10.8 L-10.8 -8.75" fill="none" stroke="#2e221f" stroke-linecap="round" stroke-linejoin="round" stroke-width="1.2000000000000002"/>
  </g>
</svg>
