<?xml version="1.0" encoding="UTF-8" standalone="no"?>
<svg xmlns:xlink="http://www.w3.org/1999/xlink" height="299.8px" width="116.95px" xmlns="http://www.w3.org/2000/svg">
  <g transform="matrix(1.0, 0.0, 0.0, 1.0, 57.15, 146.8)">
    <path d="M52.7 -146.2 L59.2 -143.55 Q57.0 -104.3 54.3 -65.7 L53.3 -52.65 Q52.55 -58.0 52.25 -65.85 51.35 -61.55 49.05 -59.05 L47.1 -70.7 Q45.2 -60.65 41.3 -52.6 43.1 -68.7 40.65 -78.6 40.15 -68.8 37.9 -60.05 36.6 -70.25 37.65 -83.1 38.95 -94.15 39.85 -105.85 41.7 -129.1 52.7 -146.2" fill="#c85d64" fill-rule="evenodd" stroke="none"/>
    <path d="M53.3 -52.65 Q51.85 -35.9 49.85 -19.3 L49.7 -18.3 49.25 -14.45 48.15 -14.6 44.4 -8.45 45.15 -14.4 40.85 -3.05 40.65 -3.45 41.15 -10.2 41.3 -11.0 Q41.95 -16.3 42.1 -21.15 L40.85 -16.75 40.45 -19.45 Q40.0 -24.0 41.05 -29.7 L36.8 -21.1 37.9 -27.75 Q36.8 -26.4 36.1 -22.1 L35.6 -18.75 Q34.15 -12.15 31.05 -9.45 L31.35 -15.4 30.6 -13.1 30.2 -17.35 31.2 -23.1 29.8 -21.0 27.6 -26.35 27.55 -26.35 Q34.1 -52.1 37.65 -83.1 36.6 -70.25 37.9 -60.05 40.15 -68.8 40.65 -78.6 43.1 -68.7 41.3 -52.6 45.2 -60.65 47.1 -70.7 L49.05 -59.05 Q51.35 -61.55 52.25 -65.85 52.55 -58.0 53.3 -52.65 M43.25 25.15 Q37.3 59.3 28.7 92.85 L24.6 104.95 24.45 105.35 Q18.35 112.55 12.75 114.15 12.45 112.15 11.45 109.8 9.25 113.6 6.4 112.8 L5.6 107.1 Q2.5 110.5 -0.4 111.3 L-2.35 107.4 Q-10.1 123.55 -22.55 131.35 -20.5 128.05 -20.35 122.6 L-25.7 126.75 Q-26.45 123.8 -24.8 120.85 L-25.1 120.8 -28.65 122.9 Q-29.4 112.55 -24.25 95.3 L-27.3 97.5 Q-28.35 93.05 -23.6 85.25 L-23.9 85.15 -35.8 93.75 Q-36.45 92.45 -34.65 89.65 -38.1 92.2 -42.6 91.35 -38.85 86.3 -39.75 82.85 -36.15 79.65 -31.8 76.35 -0.35 52.65 17.7 5.15 L17.75 5.1 22.4 0.4 21.6 11.95 23.35 8.7 22.55 19.15 22.85 18.45 22.5 23.0 24.8 16.0 Q27.95 9.5 29.75 8.65 L28.75 15.45 34.35 2.75 33.75 9.35 33.8 12.1 Q34.65 12.1 35.3 9.6 L35.55 8.4 33.6 20.15 Q34.8 19.2 35.5 15.55 35.7 19.45 33.55 27.35 L34.55 26.55 36.05 24.0 35.6 27.7 37.75 21.9 Q39.7 15.25 41.05 14.6 41.05 20.05 43.25 25.15" fill="#e2757a" fill-rule="evenodd" stroke="none"/>
    <path d="M49.25 -14.45 Q47.3 0.55 44.9 15.4 L44.9 15.45 43.25 25.15 Q41.05 20.05 41.05 14.6 39.7 15.25 37.75 21.9 L35.6 27.7 36.05 24.0 34.55 26.55 33.55 27.35 Q35.7 19.45 35.5 15.55 34.8 19.2 33.6 20.15 L35.55 8.4 35.3 9.6 Q34.65 12.1 33.8 12.1 L33.75 9.35 34.35 2.75 28.75 15.45 29.75 8.65 Q27.95 9.5 24.8 16.0 L22.5 23.0 22.85 18.45 22.55 19.15 23.35 8.7 21.6 11.95 22.4 0.4 17.75 5.1 Q21.95 -6.1 25.5 -18.55 L27.55 -26.35 27.6 -26.35 29.8 -21.0 31.2 -23.1 30.2 -17.35 30.6 -13.1 31.35 -15.4 31.05 -9.45 Q34.15 -12.15 35.6 -18.75 L36.1 -22.1 Q36.8 -26.4 37.9 -27.75 L36.8 -21.1 41.05 -29.7 Q40.0 -24.0 40.45 -19.45 L40.85 -16.75 42.1 -21.15 Q41.95 -16.3 41.3 -11.0 L41.15 -10.2 40.65 -3.45 40.85 -3.05 45.15 -14.4 44.4 -8.45 48.15 -14.6 49.25 -14.45 M24.45 105.35 Q8.6 150.95 2.65 152.4 -2.35 137.2 -0.2 118.55 -9.7 139.5 -36.1 151.95 -44.3 119.95 -34.5 97.45 -48.0 109.1 -56.55 106.7 -54.4 95.75 -39.75 82.85 -38.85 86.3 -42.6 91.35 -38.1 92.2 -34.65 89.65 -36.45 92.45 -35.8 93.75 L-23.9 85.15 -23.6 85.25 Q-28.35 93.05 -27.3 97.5 L-24.25 95.3 Q-29.4 112.55 -28.65 122.9 L-25.1 120.8 -24.8 120.85 Q-26.45 123.8 -25.7 126.75 L-20.35 122.6 Q-20.5 128.05 -22.55 131.35 -10.1 123.55 -2.35 107.4 L-0.4 111.3 Q2.5 110.5 5.6 107.1 L6.4 112.8 Q9.25 113.6 11.45 109.8 12.45 112.15 12.75 114.15 18.35 112.55 24.45 105.35 M17.7 5.15 L17.6 5.25 17.7 5.15" fill="#eb969a" fill-rule="evenodd" stroke="none"/>
    <path d="M59.2 -143.55 Q57.0 -104.3 54.3 -65.7 L53.3 -52.65 Q51.85 -35.9 49.85 -19.3 L49.7 -18.3 49.25 -14.45 Q47.3 0.55 44.9 15.4 L44.9 15.45 43.25 25.15 Q37.3 59.3 28.7 92.85 L24.6 104.95 M24.45 105.35 Q8.6 150.95 2.65 152.4 -2.35 137.2 -0.2 118.55 -9.7 139.5 -36.1 151.95 -44.3 119.95 -34.5 97.45 -48.0 109.1 -56.55 106.7 -54.4 95.75 -39.75 82.85 -36.15 79.65 -31.8 76.35 -0.35 52.65 17.7 5.15 L17.75 5.1 Q21.95 -6.1 25.5 -18.55 L27.55 -26.35 Q34.1 -52.1 37.65 -83.1 38.95 -94.15 39.85 -105.85 41.7 -129.1 52.7 -146.2" fill="none" stroke="#2e221f" stroke-linecap="round" stroke-linejoin="round" stroke-width="1.2000000000000002"/>
  </g>
</svg>
