<?xml version="1.0" encoding="UTF-8" standalone="no"?>
<svg xmlns:xlink="http://www.w3.org/1999/xlink" height="105.75px" width="71.25px" xmlns="http://www.w3.org/2000/svg">
  <g transform="matrix(1.0, 0.0, 0.0, 1.0, 35.65, 52.9)">
    <path d="M-2.25 -41.0 Q-0.1 -29.9 -10.0 -29.25 -2.7 -32.5 -3.75 -38.45 -5.25 -45.8 -11.2 -47.3 -19.85 -49.05 -22.65 -43.35 -47.75 17.9 30.1 46.3 35.7 47.65 34.9 50.55 33.4 53.1 30.1 51.85 -57.75 25.05 -27.1 -45.9 -22.25 -54.65 -10.2 -51.4 -4.35 -49.9 -2.25 -41.0" fill="#e2757a" fill-rule="evenodd" stroke="none"/>
    <path d="M-2.25 -41.0 Q-0.1 -29.9 -10.0 -29.25 -2.7 -32.5 -3.75 -38.45 -5.25 -45.8 -11.2 -47.3 M30.1 46.3 Q35.7 47.65 34.9 50.55 33.4 53.1 30.1 51.85" fill="none" stroke="#2e221f" stroke-linecap="round" stroke-linejoin="miter-clip" stroke-miterlimit="8.0" stroke-width="1.2000000000000002"/>
    <path d="M-11.2 -47.3 Q-19.85 -49.05 -22.65 -43.35 -47.75 17.9 30.1 46.3 M30.1 51.85 Q-57.75 25.05 -27.1 -45.9 -22.25 -54.65 -10.2 -51.4 -4.35 -49.9 -2.25 -41.0 Z" fill="none" stroke="#2e221f" stroke-linecap="round" stroke-linejoin="round" stroke-width="1.2000000000000002"/>
  </g>
</svg>
