<?xml version="1.0" encoding="UTF-8" standalone="no"?>
<svg xmlns:xlink="http://www.w3.org/1999/xlink" height="24.3px" width="17.2px" xmlns="http://www.w3.org/2000/svg">
  <g transform="matrix(1.0, 0.0, 0.0, 1.0, 8.65, 12.15)">
    <path d="M-7.6 -0.6 L-7.3 0.8 Q-6.6 3.45 -4.45 4.35 -2.3 5.2 0.1 3.75 2.4 2.5 3.55 -0.35 4.7 -3.15 3.95 -5.75 3.2 -8.35 1.05 -9.2 -0.6 -9.9 -2.35 -9.2 -1.0 -10.55 0.55 -11.35 4.0 -13.1 6.35 -11.05 8.7 -9.0 8.55 -4.35 8.3 0.3 5.65 4.9 3.0 9.5 -0.5 11.3 -4.0 13.1 -6.35 11.05 -8.7 9.0 -8.5 4.3 -8.4 1.85 -7.6 -0.6" fill="url(#gradient0)" fill-rule="evenodd" stroke="none"/>
    <path d="M-2.35 -9.2 Q-0.6 -9.9 1.05 -9.2 3.2 -8.35 3.95 -5.75 4.7 -3.15 3.55 -0.35 2.4 2.5 0.1 3.75 -2.3 5.2 -4.45 4.35 -6.6 3.45 -7.3 0.8 L-7.6 -0.6 Q-7.8 -2.5 -6.95 -4.6 -5.8 -7.4 -3.45 -8.7 L-2.35 -9.2" fill="#494744" fill-rule="evenodd" stroke="none"/>
    <path d="M-2.35 -9.2 Q-0.6 -9.9 1.05 -9.2 3.2 -8.35 3.95 -5.75 4.7 -3.15 3.55 -0.35 2.4 2.5 0.1 3.75 -2.3 5.2 -4.45 4.35 -6.6 3.45 -7.3 0.8 L-7.6 -0.6 Q-7.8 -2.5 -6.95 -4.6 -5.8 -7.4 -3.45 -8.7 L-2.35 -9.2 Z" fill="none" stroke="#2e221f" stroke-linecap="round" stroke-linejoin="round" stroke-width="2.0"/>
  </g>
  <defs>
    <radialGradient cx="0" cy="0" gradientTransform="matrix(0.0134, 0.0072, -0.0123, 0.023, -3.6, 9.15)" gradientUnits="userSpaceOnUse" id="gradient0" r="819.2" spreadMethod="pad">
      <stop offset="0.0" stop-color="#db787f"/>
      <stop offset="0.5607843137254902" stop-color="#ad5056"/>
    </radialGradient>
  </defs>
</svg>
