<?xml version="1.0" encoding="UTF-8" standalone="no"?>
<svg xmlns:xlink="http://www.w3.org/1999/xlink" height="17.55px" width="15.45px" xmlns="http://www.w3.org/2000/svg">
  <g transform="matrix(1.0, 0.0, 0.0, 1.0, 7.3, 8.85)">
    <path d="M6.0 3.45 L6.35 7.0 Q8.5 9.35 -1.2 8.45 -8.2 6.65 -7.15 -0.3 -6.1 -7.3 -3.25 -8.65 -1.45 -8.45 0.05 -7.65 -1.25 -7.1 -2.15 -5.7 -3.6 -3.65 -3.35 -0.8 -3.15 2.1 -1.4 3.9 0.3 5.85 2.5 5.7 4.6 5.55 6.0 3.45" fill="url(#gradient0)" fill-rule="evenodd" stroke="none"/>
    <path d="M0.05 -7.65 L1.45 -8.0 Q3.6 -8.2 5.35 -6.35 7.05 -4.45 7.25 -1.6 7.5 1.25 6.1 3.3 L6.0 3.45 Q4.6 5.55 2.5 5.7 0.3 5.85 -1.4 3.9 -3.15 2.1 -3.35 -0.8 -3.6 -3.65 -2.15 -5.7 -1.25 -7.1 0.05 -7.65" fill="#494744" fill-rule="evenodd" stroke="none"/>
    <path d="M0.05 -7.65 L1.45 -8.0 Q3.6 -8.2 5.35 -6.35 7.05 -4.45 7.25 -1.6 7.5 1.25 6.1 3.3 L6.0 3.45 Q4.6 5.55 2.5 5.7 0.3 5.85 -1.4 3.9 -3.15 2.1 -3.35 -0.8 -3.6 -3.65 -2.15 -5.7 -1.25 -7.1 0.05 -7.65 Z" fill="none" stroke="#2e221f" stroke-linecap="round" stroke-linejoin="round" stroke-width="1.7000000000000002"/>
  </g>
  <defs>
    <radialGradient cx="0" cy="0" gradientTransform="matrix(0.0121, -0.0058, 0.0091, 0.019, 2.1, 6.6)" gradientUnits="userSpaceOnUse" id="gradient0" r="819.2" spreadMethod="pad">
      <stop offset="0.0" stop-color="#db787f"/>
      <stop offset="0.5607843137254902" stop-color="#ad5056"/>
    </radialGradient>
  </defs>
</svg>
