<?xml version="1.0" encoding="UTF-8" standalone="no"?>
<svg xmlns:xlink="http://www.w3.org/1999/xlink" height="200.9px" width="107.75px" xmlns="http://www.w3.org/2000/svg">
  <g transform="matrix(1.0, 0.0, 0.0, 1.0, 56.2, 135.7)">
    <path d="M26.05 -44.3 Q28.7 -43.05 28.85 -38.05 30.7 -39.15 30.5 -41.55 31.7 -39.4 32.5 -30.6 L33.9 -33.7 Q35.8 -31.5 34.35 -22.55 L35.7 -26.7 Q36.85 -24.4 34.95 -20.7 34.3 -18.35 29.85 -10.6 24.35 -6.85 19.45 -1.4 L18.15 0.0 15.8 2.9 Q13.4 6.0 11.15 9.5 11.5 4.6 12.1 0.0 L12.25 -0.85 12.25 -1.0 Q15.7 -27.25 26.05 -44.3 M-35.5 2.2 Q-39.8 -0.6 -41.25 -6.2 -39.3 -4.35 -37.65 -4.85 -39.0 -9.6 -41.6 -11.9 L-38.2 -10.85 Q-41.25 -15.35 -42.15 -18.85 -40.15 -18.45 -38.95 -16.0 -39.9 -22.2 -38.65 -22.55 -37.45 -17.7 -35.7 -15.0 -26.8 -1.75 -24.6 8.0 -30.05 4.7 -35.5 2.2" fill="#e2757a" fill-rule="evenodd" stroke="none"/>
    <path d="M-30.65 35.3 Q-32.35 31.45 -33.25 27.4 L-33.75 26.8 Q-27.8 31.6 -22.6 30.0 -22.4 24.05 -27.3 18.05 L-29.1 15.35 -24.6 8.0 Q-26.8 -1.75 -35.7 -15.0 -37.45 -17.7 -38.65 -22.55 -40.9 -31.25 -41.5 -46.85 -41.5 -50.7 -44.65 -50.65 -42.25 -52.7 -40.65 -55.05 -36.55 -58.15 -31.85 -58.45 -28.7 -60.1 -26.75 -62.25 -29.55 -56.9 -26.5 -54.85 -23.5 -52.7 -20.5 -58.45 -14.25 -95.3 -13.35 -122.0 L-13.65 -122.05 -13.05 -124.6 Q-11.35 -131.65 -9.6 -133.95 -4.3 -97.6 -5.7 -66.95 -9.6 -57.0 19.65 -48.2 L26.05 -44.3 Q15.7 -27.25 12.25 -1.0 L12.25 -0.85 12.1 0.0 Q11.5 4.6 11.15 9.5 13.4 6.0 15.8 2.9 L18.15 0.0 19.45 -1.4 24.15 3.1 Q19.9 9.2 18.15 18.0 17.4 23.75 20.4 22.95 19.9 37.25 15.2 46.65 13.75 49.4 12.1 51.25 8.1 55.6 2.45 54.6 -1.9 53.25 -6.2 51.25 -18.4 45.65 -30.65 35.3 M5.6 46.3 Q3.0 48.9 -9.3 43.6 -3.8 50.1 2.95 50.1 5.55 50.0 5.6 46.3 M-33.0 -44.15 Q-36.0 -35.95 -29.65 -18.9 -23.35 -1.9 -18.95 -1.05 -24.8 -25.8 -33.0 -44.15" fill="#faecc7" fill-rule="evenodd" stroke="none"/>
    <path d="M-39.7 8.25 Q-46.45 4.05 -55.6 1.0 L-55.6 -4.55 Q-50.5 -3.5 -45.4 -1.8 -40.45 -0.15 -35.5 2.2 -30.05 4.7 -24.6 8.0 L-29.1 15.35 Q-32.95 10.35 -39.7 8.25" fill="url(#gradient0)" fill-rule="evenodd" stroke="none"/>
    <path d="M46.5 -18.75 L50.95 -21.45 50.1 -13.7 45.05 -10.9 37.4 -7.55 Q31.0 -4.85 26.6 0.0 L24.15 3.1 19.45 -1.4 Q24.35 -6.85 29.85 -10.6 L32.75 -12.45 Q35.3 -13.35 37.75 -14.45 L38.55 -14.8 39.05 -15.0 Q42.85 -16.7 46.5 -18.75" fill="url(#gradient1)" fill-rule="evenodd" stroke="none"/>
    <path d="M25.0 -53.1 L31.15 -51.7 Q28.4 -48.25 26.05 -44.3 L19.65 -48.2 Q-9.6 -57.0 -5.7 -66.95 -4.3 -97.6 -9.6 -133.95 -5.9 -138.95 -2.2 -122.45 3.9 -98.9 17.65 -61.1 19.5 -54.55 25.0 -53.1 M45.05 -10.9 L43.85 -4.85 43.15 0.0 Q38.4 28.55 25.0 51.25 L20.8 57.85 Q5.55 72.1 -12.8 56.35 -16.1 53.85 -18.9 51.25 -26.8 43.8 -30.65 35.3 -18.4 45.65 -6.2 51.25 -1.9 53.25 2.45 54.6 8.1 55.6 12.1 51.25 13.75 49.4 15.2 46.65 19.9 37.25 20.4 22.95 26.55 20.55 30.2 14.65 35.3 7.95 36.8 0.0 37.5 -3.65 37.4 -7.55 L45.05 -10.9" fill="#e6d6b2" fill-rule="evenodd" stroke="none"/>
    <path d="M31.15 -51.7 Q52.65 -46.1 50.3 -31.05 50.0 -23.95 46.5 -18.75 42.85 -16.7 39.05 -15.0 L38.55 -14.8 37.75 -14.45 Q35.3 -13.35 32.75 -12.45 L29.85 -10.6 Q34.3 -18.35 34.95 -20.7 36.85 -24.4 35.7 -26.7 L34.35 -22.55 Q35.8 -31.5 33.9 -33.7 L32.5 -30.6 Q31.7 -39.4 30.5 -41.55 30.7 -39.15 28.85 -38.05 28.7 -43.05 26.05 -44.3 28.4 -48.25 31.15 -51.7" fill="#c85d64" fill-rule="evenodd" stroke="none"/>
    <path d="M-45.4 -1.8 Q-54.5 -39.85 -47.25 -48.8 L-44.65 -50.65 Q-41.5 -50.7 -41.5 -46.85 -40.9 -31.25 -38.65 -22.55 -39.9 -22.2 -38.95 -16.0 -40.15 -18.45 -42.15 -18.85 -41.25 -15.35 -38.2 -10.85 L-41.6 -11.9 Q-39.0 -9.6 -37.65 -4.85 -39.3 -4.35 -41.25 -6.2 -39.8 -0.6 -35.5 2.2 -40.45 -0.15 -45.4 -1.8" fill="#eb969a" fill-rule="evenodd" stroke="none"/>
    <path d="M-26.75 -62.25 Q-25.45 -63.7 -24.65 -65.3 -23.85 -66.9 -23.55 -68.7 -19.35 -96.15 -13.65 -122.05 L-13.35 -122.0 Q-14.25 -95.3 -20.5 -58.45 -23.5 -52.7 -26.5 -54.85 -29.55 -56.9 -26.75 -62.25 M5.6 46.3 Q5.55 50.0 2.95 50.1 -3.8 50.1 -9.3 43.6 3.0 48.9 5.6 46.3 M-33.0 -44.15 Q-24.8 -25.8 -18.95 -1.05 -23.35 -1.9 -29.65 -18.9 -36.0 -35.95 -33.0 -44.15" fill="#f9f6ee" fill-rule="evenodd" stroke="none"/>
    <path d="M31.15 -51.7 Q52.65 -46.1 50.3 -31.05 50.0 -23.95 46.5 -18.75 L50.95 -21.45 M50.1 -13.7 L45.05 -10.9 43.85 -4.85 43.15 0.0 Q38.4 28.55 25.0 51.25 L20.8 57.85 Q5.55 72.1 -12.8 56.35 -16.1 53.85 -18.9 51.25 -26.8 43.8 -30.65 35.3 -32.35 31.45 -33.25 27.4 L-33.75 26.8 -34.25 26.2 Q-41.5 17.4 -39.7 8.25 -46.45 4.05 -55.6 1.0 M-55.6 -4.55 Q-50.5 -3.5 -45.4 -1.8 -54.5 -39.85 -47.25 -48.8 L-44.65 -50.65 Q-42.25 -52.7 -40.65 -55.05 M-31.85 -58.45 Q-28.7 -60.1 -26.75 -62.25 -25.45 -63.7 -24.65 -65.3 -23.85 -66.9 -23.55 -68.7 -19.35 -96.15 -13.65 -122.05 L-13.05 -124.6 Q-11.35 -131.65 -9.6 -133.95 -5.9 -138.95 -2.2 -122.45 3.9 -98.9 17.65 -61.1 19.5 -54.55 25.0 -53.1 M29.85 -10.6 L32.75 -12.45 Q35.3 -13.35 37.75 -14.45 L38.55 -14.8 39.05 -15.0 Q42.85 -16.7 46.5 -18.75 M26.05 -44.3 Q15.7 -27.25 12.25 -1.0 L12.25 -0.85 12.1 0.0 Q11.5 4.6 11.15 9.5 13.4 6.0 15.8 2.9 L18.15 0.0 19.45 -1.4 Q24.35 -6.85 29.85 -10.6 M26.05 -44.3 Q28.4 -48.25 31.15 -51.7 M45.05 -10.9 L37.4 -7.55 Q37.5 -3.65 36.8 0.0 35.3 7.95 30.2 14.65 26.55 20.55 20.4 22.95 17.4 23.75 18.15 18.0 19.9 9.2 24.15 3.1 L26.6 0.0 Q31.0 -4.85 37.4 -7.55 M-35.5 2.2 Q-30.05 4.7 -24.6 8.0 -26.8 -1.75 -35.7 -15.0 -37.45 -17.7 -38.65 -22.55 -40.9 -31.25 -41.5 -46.85 -41.5 -50.7 -44.65 -50.65 M-33.75 26.8 Q-27.8 31.6 -22.6 30.0 -22.4 24.05 -27.3 18.05 L-29.1 15.35 Q-32.95 10.35 -39.7 8.25 M-35.5 2.2 Q-40.45 -0.15 -45.4 -1.8" fill="none" stroke="#2e221f" stroke-linecap="round" stroke-linejoin="round" stroke-width="1.2000000000000002"/>
  </g>
  <defs>
    <linearGradient gradientTransform="matrix(0.0173, 0.0076, -0.0049, 0.0111, -40.1, 5.4)" gradientUnits="userSpaceOnUse" id="gradient0" spreadMethod="pad" x1="-819.2" x2="819.2">
      <stop offset="0.43137254901960786" stop-color="#e2757a"/>
      <stop offset="1.0" stop-color="#faecc7"/>
    </linearGradient>
    <linearGradient gradientTransform="matrix(0.0136, -0.0136, 0.0106, 0.0106, 35.15, -9.2)" gradientUnits="userSpaceOnUse" id="gradient1" spreadMethod="pad" x1="-819.2" x2="819.2">
      <stop offset="0.0" stop-color="#faecc7"/>
      <stop offset="0.6" stop-color="#e2757a"/>
    </linearGradient>
  </defs>
</svg>
