<?xml version="1.0" encoding="UTF-8" standalone="no"?>
<svg xmlns:xlink="http://www.w3.org/1999/xlink" height="221.5px" width="477.5px" xmlns="http://www.w3.org/2000/svg">
  <g transform="matrix(1.0, 0.0, 0.0, 1.0, 236.75, 113.0)">
    <path d="M94.55 -69.4 Q48.2 -61.0 30.4 -51.5 L78.25 -61.4 Q118.1 -69.7 172.5 -63.8 139.0 -70.25 94.55 -69.4 M117.15 -10.15 Q140.25 -18.8 160.35 -32.05 164.55 -37.8 149.9 -38.8 50.6 -30.9 -46.55 -55.3 -68.2 -54.7 -68.7 -47.05 -73.35 -18.2 -54.45 3.95 -37.25 12.45 -13.25 2.65 -4.7 9.95 20.0 8.4 76.45 4.9 117.15 -10.15 M-116.0 -10.55 L-218.15 -31.0 Q-255.25 -63.1 -215.95 -92.55 -183.25 -122.0 -109.35 -107.75 45.6 -77.45 116.0 -77.0 L132.3 -77.5 Q164.8 -77.7 187.85 -70.3 229.6 -23.8 188.3 5.85 L188.25 5.85 Q114.45 46.95 27.5 60.2 L26.35 60.35 Q-16.45 65.25 -48.9 77.0 L-51.1 77.6 Q-143.2 100.55 -142.6 40.1 -139.85 27.0 -135.3 16.55 -134.45 56.2 -98.2 55.6 -126.05 36.15 -125.95 20.65 -125.9 5.1 -116.0 -10.55" fill="#faecc7" fill-rule="evenodd" stroke="none"/>
    <path d="M94.55 -69.4 Q139.0 -70.25 172.5 -63.8 118.1 -69.7 78.25 -61.4 L30.4 -51.5 Q48.2 -61.0 94.55 -69.4 M-116.0 -10.55 Q-125.9 5.1 -125.95 20.65 -126.05 36.15 -98.2 55.6 -134.45 56.2 -135.3 16.55 -127.95 -0.45 -116.0 -10.55" fill="#f9f6ee" fill-rule="evenodd" stroke="none"/>
    <path d="M149.9 -38.8 Q164.55 -37.8 160.35 -32.05 140.25 -18.8 117.15 -10.15 41.05 -7.3 -8.7 -30.8 -24.35 -6.75 -13.25 2.65 -37.25 12.45 -54.45 3.95 -73.35 -18.2 -68.7 -47.05 -68.2 -54.7 -46.55 -55.3 50.6 -30.9 149.9 -38.8 M-142.6 40.1 Q-143.2 100.55 -51.1 77.6 L-48.9 77.0 Q-16.45 65.25 26.35 60.35 L27.5 60.2 Q114.45 46.95 188.25 5.85 L188.3 5.85 Q229.6 -23.8 187.85 -70.3 212.75 -62.3 226.7 -45.4 259.75 -2.2 211.65 43.95 209.25 46.1 205.1 48.25 189.45 56.4 157.2 66.8 83.6 90.75 57.5 95.85 -80.3 123.1 -129.0 88.85 -149.0 73.85 -142.6 40.1" fill="#e6d6b2" fill-rule="evenodd" stroke="none"/>
    <path d="M117.15 -10.15 Q140.25 -18.8 160.35 -32.05 164.55 -37.8 149.9 -38.8 M-13.25 2.65 Q-24.35 -6.75 -8.7 -30.8 M117.15 -10.15 Q76.45 4.9 20.0 8.4 -4.7 9.95 -13.25 2.65 M187.85 -70.3 Q164.8 -77.7 132.3 -77.5 L116.0 -77.0 Q45.6 -77.45 -109.35 -107.75 -183.25 -122.0 -215.95 -92.55 -255.25 -63.1 -218.15 -31.0 L-116.0 -10.55 Q-127.95 -0.45 -135.3 16.55 -139.85 27.0 -142.6 40.1 -149.0 73.85 -129.0 88.85 -80.3 123.1 57.5 95.85 83.6 90.75 157.2 66.8 189.45 56.4 205.1 48.25 209.25 46.1 211.65 43.95 259.75 -2.2 226.7 -45.4 212.75 -62.3 187.85 -70.3" fill="none" stroke="#2e221f" stroke-linecap="round" stroke-linejoin="round" stroke-width="1.2000000000000002"/>
  </g>
</svg>
