<?xml version="1.0" encoding="UTF-8" standalone="no"?>
<svg xmlns:xlink="http://www.w3.org/1999/xlink" height="363.45px" width="134.7px" xmlns="http://www.w3.org/2000/svg">
  <g transform="matrix(1.0, 0.0, 0.0, 1.0, 28.0, 178.65)">
    <path d="M26.05 179.9 Q-0.15 161.3 -5.25 136.75 -12.35 105.95 -11.55 96.3 -10.8 86.6 -7.0 58.65 -2.05 40.5 2.8 24.25 L6.95 9.05 8.5 2.4 10.1 -5.05 10.35 -6.45 Q18.8 -58.55 12.85 -90.3 9.15 -110.2 0.5 -129.25 14.5 -130.9 23.6 -102.1 39.8 -9.45 24.45 24.15 -18.2 107.25 26.05 179.9" fill="#e6d6b2" fill-rule="evenodd" stroke="none"/>
    <path d="M75.05 65.0 Q74.2 85.9 87.55 100.2 100.95 114.55 106.1 125.75 85.95 131.9 57.85 141.7 L32.15 184.2 26.05 179.9 Q-18.2 107.25 24.45 24.15 39.8 -9.45 23.6 -102.1 14.5 -130.9 0.5 -129.25 -13.9 -145.1 -10.65 -158.6 -15.05 -167.0 -27.4 -171.15 -6.2 -179.45 4.3 -177.75 24.15 -173.5 36.85 -156.0 53.1 -119.55 68.35 -73.35 72.6 -43.35 73.35 -13.1 L75.15 60.4 75.05 64.6 75.05 65.0" fill="#faecc7" fill-rule="evenodd" stroke="none"/>
    <path d="M36.85 -156.0 L38.15 -154.15 Q62.8 -117.45 74.25 -78.65 82.3 -46.6 81.2 -22.75 80.1 1.1 75.8 54.0 L75.3 62.4 Q75.5 44.0 75.15 60.4 L73.35 -13.1 Q72.6 -43.35 68.35 -73.35 53.1 -119.55 36.85 -156.0" fill="#f9f6ee" fill-rule="evenodd" stroke="none"/>
    <path d="M36.85 -156.0 L38.15 -154.15 Q62.8 -117.45 74.25 -78.65 82.3 -46.6 81.2 -22.75 80.1 1.1 75.8 54.0 L75.3 62.4 75.05 65.0 Q74.2 85.9 87.55 100.2 100.95 114.55 106.1 125.75 M32.15 184.2 L26.05 179.9 Q-0.15 161.3 -5.25 136.75 -12.35 105.95 -11.55 96.3 -10.8 86.6 -7.0 58.65 -2.05 40.5 2.8 24.25 L6.95 9.05 8.5 2.4 10.1 -5.05 10.35 -6.45 Q18.8 -58.55 12.85 -90.3 9.15 -110.2 0.5 -129.25 M-27.4 -171.15 Q-6.2 -179.45 4.3 -177.75 24.15 -173.5 36.85 -156.0 M75.05 64.6 L75.05 65.0" fill="none" stroke="#2e221f" stroke-linecap="round" stroke-linejoin="round" stroke-width="1.2000000000000002"/>
  </g>
</svg>
