<?xml version="1.0" encoding="UTF-8" standalone="no"?>
<svg xmlns:xlink="http://www.w3.org/1999/xlink" height="113.7px" width="114.15px" xmlns="http://www.w3.org/2000/svg">
  <g transform="matrix(1.0, 0.0, 0.0, 1.0, 58.65, 57.05)">
    <path d="M15.95 -10.3 L16.0 -10.4 16.5 -10.9 16.65 -11.1 16.75 -11.2 17.15 -11.5 17.25 -11.6 18.4 -12.3 18.6 -12.4 19.55 -12.75 20.85 -12.9 21.05 -12.85 21.25 -12.85 22.0 -12.7 22.65 -12.5 23.2 -12.2 23.55 -11.95 23.65 -11.85 23.75 -11.8 23.85 -11.6 23.75 -11.55 23.65 -11.55 23.5 -11.6 23.35 -11.6 22.95 -11.7 22.75 -11.7 22.6 -11.75 22.15 -11.75 21.85 -11.8 21.25 -11.8 21.05 -11.75 20.9 -11.75 20.7 -11.7 20.55 -11.7 18.35 -11.1 18.2 -11.0 17.85 -10.9 17.65 -10.8 16.35 -10.25 16.3 -10.2 16.2 -10.2 16.1 -10.15 16.0 -10.15 15.95 -10.3 M-3.55 15.0 L-4.05 16.5 -4.3 15.9 -4.45 14.6 Q-4.45 13.1 -3.5 11.5 -2.5 9.9 -1.3 9.45 L-1.25 9.55 -1.85 10.7 -3.3 14.05 Q-3.05 13.65 -3.55 15.0 M2.65 0.2 L2.6 0.2 2.55 0.1 2.55 -0.1 Q3.15 -2.55 4.4 -3.9 5.65 -5.25 7.9 -5.75 L8.25 -5.65 6.9 -4.7 5.75 -3.75 3.7 -1.1 2.65 0.2 2.55 -0.1 2.65 0.2" fill="#2e221f" fill-rule="evenodd" stroke="none"/>
    <path d="M28.95 -49.25 Q17.25 -54.6 4.15 -47.45 0.85 -45.7 13.9 -43.0 26.6 -44.8 28.95 -49.25 M23.85 -11.6 L23.75 -11.8 23.65 -11.85 23.55 -11.95 23.2 -12.2 22.65 -12.5 22.0 -12.7 21.25 -12.85 21.05 -12.85 20.85 -12.9 19.55 -12.75 18.6 -12.4 18.4 -12.3 17.25 -11.6 17.15 -11.5 16.75 -11.2 16.65 -11.1 16.5 -10.9 16.0 -10.4 15.95 -10.3 Q15.95 -8.9 14.05 -7.5 L10.9 -5.85 8.25 -5.65 7.9 -5.75 Q5.65 -5.25 4.4 -3.9 3.15 -2.55 2.55 -0.1 L2.55 0.1 2.6 0.2 2.65 0.2 Q3.1 0.75 2.5 3.0 L2.3 3.45 Q0.9 6.1 -0.15 8.9 L-1.25 9.55 -1.3 9.45 Q-2.5 9.9 -3.5 11.5 -4.45 13.1 -4.45 14.6 L-4.3 15.9 -4.05 16.5 -3.55 15.0 Q-3.1 16.0 -1.7 13.45 12.85 -2.1 18.55 2.95 6.15 19.9 11.75 41.25 L11.85 41.6 12.25 43.05 Q18.85 56.5 2.4 53.5 0.45 54.6 -1.65 55.1 -22.3 60.25 -44.25 48.4 L-55.1 49.2 Q-59.4 47.4 -57.45 39.85 L-56.3 34.6 -32.15 -15.0 Q-22.95 -33.9 -7.75 -48.9 14.25 -60.95 36.3 -53.8 71.6 -16.3 42.0 -0.6 41.35 -2.0 37.4 -6.7 34.5 -10.1 28.3 -10.35 L26.35 -10.35 Q24.85 -10.5 23.85 -11.6 M2.9 24.5 Q-1.0 19.6 -2.35 35.6 0.35 45.05 3.45 47.55 L2.9 24.5" fill="#faecc7" fill-rule="evenodd" stroke="none"/>
    <path d="M17.65 -10.8 L17.85 -10.9 18.2 -11.0 18.35 -11.1 20.55 -11.7 20.7 -11.7 20.9 -11.75 21.05 -11.75 21.25 -11.8 21.85 -11.8 22.15 -11.75 Q22.05 -10.95 19.35 -10.3 17.45 -10.1 17.65 -10.8 M-1.7 13.45 Q-3.1 16.0 -3.55 15.0 -3.05 13.65 -3.3 14.05 L-1.85 10.7 Q-1.2 10.1 -1.7 13.45 M6.9 -4.7 Q7.85 -4.4 5.2 -1.45 4.25 -0.6 3.7 -1.1 L5.75 -3.75 6.9 -4.7" fill="#c6b999" fill-rule="evenodd" stroke="none"/>
    <path d="M15.95 -10.3 L16.0 -10.15 16.1 -10.15 16.2 -10.2 16.3 -10.2 16.35 -10.25 17.65 -10.8 Q17.45 -10.1 19.35 -10.3 22.05 -10.95 22.15 -11.75 L22.6 -11.75 22.75 -11.7 22.95 -11.7 23.35 -11.6 23.5 -11.6 23.65 -11.55 23.75 -11.55 23.85 -11.6 Q24.85 -10.5 26.35 -10.35 L28.3 -10.35 Q34.5 -10.1 37.4 -6.7 41.35 -2.0 42.0 -0.6 42.35 0.15 41.6 -0.1 L41.45 0.05 Q34.3 -6.8 28.0 -5.1 24.2 -4.05 20.75 0.05 L18.55 2.95 Q12.85 -2.1 -1.7 13.45 -1.2 10.1 -1.85 10.7 L-1.25 9.55 -0.15 8.9 Q0.9 6.1 2.3 3.45 L2.5 3.0 Q3.1 0.75 2.65 0.2 L3.7 -1.1 Q4.25 -0.6 5.2 -1.45 7.85 -4.4 6.9 -4.7 L8.25 -5.65 10.9 -5.85 14.05 -7.5 Q15.95 -8.9 15.95 -10.3 M-7.75 -48.9 Q-22.95 -33.9 -32.15 -15.0 L-56.3 34.6 Q-50.55 9.35 -42.8 -8.65 -37.5 -20.95 -30.4 -31.5 -19.1 -42.75 -7.75 -48.9" fill="#e6d6b2" fill-rule="evenodd" stroke="none"/>
    <path d="M28.95 -49.25 Q26.6 -44.8 13.9 -43.0 0.85 -45.7 4.15 -47.45 17.25 -54.6 28.95 -49.25 M2.9 24.5 L3.45 47.55 Q0.35 45.05 -2.35 35.6 -1.0 19.6 2.9 24.5" fill="#f9f6ee" fill-rule="evenodd" stroke="none"/>
    <path d="M36.3 -53.8 Q14.25 -60.95 -7.75 -48.9 -19.1 -42.75 -30.4 -31.5 -37.5 -20.95 -42.8 -8.65 -50.55 9.35 -56.3 34.6 L-57.45 39.85 Q-59.4 47.4 -55.1 49.2 M2.4 53.5 Q18.85 56.5 12.25 43.05 L11.85 41.6 M11.75 41.25 Q6.15 19.9 18.55 2.95 L20.75 0.05 Q24.2 -4.05 28.0 -5.1 34.3 -6.8 41.45 0.05" fill="none" stroke="#2e221f" stroke-linecap="round" stroke-linejoin="round" stroke-width="1.2000000000000002"/>
    <path d="M11.85 41.6 L11.75 41.25 M2.65 0.2 L2.55 -0.1" fill="none" stroke="#2e221f" stroke-linecap="round" stroke-linejoin="round" stroke-width="0.05"/>
  </g>
</svg>
