<?xml version="1.0" encoding="UTF-8" standalone="no"?>
<svg xmlns:xlink="http://www.w3.org/1999/xlink" height="156.8px" width="250.1px" xmlns="http://www.w3.org/2000/svg">
  <g transform="matrix(1.0, 0.0, 0.0, 1.0, 125.05, 78.4)">
    <path d="M8.3 -63.15 Q24.15 -62.4 36.45 -63.0 75.4 -61.5 120.7 -71.55 113.2 -62.65 100.05 -56.2 82.0 -47.3 53.25 -42.95 L38.05 -37.85 Q39.2 -32.8 102.55 -42.75 97.15 -39.4 90.35 -36.35 71.9 -28.05 43.1 -21.9 34.7 -18.4 26.3 -17.6 50.35 -10.35 80.45 -15.35 72.65 -12.35 62.85 -9.95 L56.65 -8.5 44.55 -6.2 26.65 -3.75 Q-2.65 -0.1 73.95 1.8 64.1 7.35 45.0 8.35 L44.75 8.4 Q32.7 9.0 16.95 7.8 -7.8 8.6 49.25 21.65 40.1 24.0 26.05 24.05 L18.85 23.9 2.5 22.7 Q-17.45 26.1 19.95 39.9 8.85 41.65 -4.25 39.95 -10.7 39.15 -17.6 37.45 -33.3 36.3 -48.0 27.65 -35.3 31.55 -24.45 27.65 L-34.4 22.15 Q-23.8 20.5 -16.4 14.05 L-25.45 13.8 Q-26.95 12.25 -28.95 11.0 -26.95 12.25 -25.45 13.8 -32.45 18.45 -42.3 16.4 -55.4 17.7 -66.15 15.0 -63.85 13.85 -62.1 12.35 -51.3 -16.15 -57.5 -45.6 -57.8 -51.75 -55.5 -56.75 -54.05 -42.9 -48.75 -36.7 L-47.9 -45.25 Q-45.0 -52.6 -40.8 -57.25 L-40.7 -57.4 Q-17.3 -62.55 8.3 -63.15 M-19.05 -13.15 Q-8.0 -10.85 0.55 -13.15 L-3.9 -17.25 Q54.9 -53.2 40.25 -50.7 32.55 -51.0 26.55 -45.8 7.95 -31.2 -16.7 -25.9 -8.4 -25.8 -6.5 -21.2 -14.8 -14.5 -23.5 -17.75 -22.45 -15.15 -19.05 -13.15 -28.0 -11.95 -34.85 -15.7 -28.0 -11.95 -19.05 -13.15 M-28.95 11.0 L-29.0 10.95 -28.95 11.0 M-29.0 10.95 Q-32.9 8.5 -38.7 7.1 -32.9 8.5 -29.0 10.95" fill="#3a5874" fill-rule="evenodd" stroke="none"/>
    <path d="M36.45 -63.0 L48.8 -64.15 Q69.9 -67.1 117.5 -76.05 126.45 -79.7 123.9 -75.8 122.45 -73.6 120.7 -71.55 75.4 -61.5 36.45 -63.0 M100.05 -56.2 Q121.2 -60.45 118.95 -57.95 113.75 -49.7 102.55 -42.75 39.2 -32.8 38.05 -37.85 L53.25 -42.95 Q82.0 -47.3 100.05 -56.2 M90.35 -36.35 Q110.15 -36.8 106.55 -32.9 99.0 -22.45 80.45 -15.35 50.35 -10.35 26.3 -17.6 34.7 -18.4 43.1 -21.9 71.9 -28.05 90.35 -36.35 M56.65 -8.5 Q66.55 -4.2 77.5 -5.7 83.2 -5.25 78.75 -1.65 76.7 0.25 73.95 1.8 -2.65 -0.1 26.65 -3.75 L44.55 -6.2 56.65 -8.5 M45.0 8.35 Q48.9 13.6 57.9 14.25 65.15 14.4 58.85 17.6 55.0 20.1 49.25 21.65 -7.8 8.6 16.95 7.8 32.7 9.0 44.75 8.4 L45.0 8.35 M18.85 23.9 Q24.65 29.3 36.8 31.7 42.6 33.0 36.8 34.7 29.05 38.45 19.95 39.9 -17.45 26.1 2.5 22.7 L18.85 23.9 M-4.25 39.95 Q-1.75 45.8 7.1 48.05 14.95 51.0 7.9 51.45 -11.65 53.8 -29.8 47.25 -20.8 53.65 -13.4 62.7 -9.85 67.0 -16.7 65.3 -42.8 54.35 -53.1 56.6 -61.7 57.65 -69.4 54.05 -58.3 54.0 -50.0 50.6 -55.1 50.45 -56.4 47.45 -49.65 47.7 -48.7 43.8 -54.75 34.8 -63.8 34.6 L-64.3 34.3 Q-65.45 33.6 -66.7 33.1 -60.7 26.7 -53.6 26.55 -61.3 23.85 -70.0 26.55 -74.85 22.25 -74.45 17.4 -69.65 16.65 -66.15 15.0 -55.4 17.7 -42.3 16.4 -32.45 18.45 -25.45 13.8 L-16.4 14.05 Q-23.8 20.5 -34.4 22.15 L-24.45 27.65 Q-35.3 31.55 -48.0 27.65 -33.3 36.3 -17.6 37.45 -10.7 39.15 -4.25 39.95 M-55.5 -56.75 Q-54.15 -59.75 -51.9 -62.3 -52.5 -51.7 -47.9 -45.25 L-48.75 -36.7 Q-54.05 -42.9 -55.5 -56.75 M26.55 -45.8 Q32.55 -51.0 40.25 -50.7 54.9 -53.2 -3.9 -17.25 L0.55 -13.15 Q-8.0 -10.85 -19.05 -13.15 -22.45 -15.15 -23.5 -17.75 -14.8 -14.5 -6.5 -21.2 -8.4 -25.8 -16.7 -25.9 7.95 -31.2 26.55 -45.8 M117.5 -76.05 L112.5 -73.45 117.5 -76.05 M-32.2 46.35 L-29.8 47.25 -32.2 46.35 M-55.15 22.0 Q-46.4 23.8 -37.6 20.05 -46.4 23.8 -55.15 22.0" fill="#2b4256" fill-rule="evenodd" stroke="none"/>
    <path d="M-40.7 -57.4 Q-32.55 -66.4 -19.45 -65.25 L8.3 -63.15 Q-17.3 -62.55 -40.7 -57.4" fill="#517397" fill-rule="evenodd" stroke="none"/>
    <path d="M-53.1 56.6 Q-47.2 60.65 -39.7 63.2 -33.35 66.7 -40.5 67.15 L-52.5 67.2 Q-48.55 70.35 -47.3 72.95 -54.9 73.95 -61.7 70.5 -58.65 75.25 -60.8 76.8 -73.8 73.2 -83.0 62.25 -77.6 68.95 -76.9 74.7 -86.75 67.3 -93.1 57.6 -88.7 66.8 -87.65 74.45 -85.55 89.0 -121.7 40.2 -129.55 13.9 -114.8 13.95 -103.5 16.4 -94.4 17.4 -82.55 18.65 -74.45 17.4 -74.85 22.25 -70.0 26.55 -61.3 23.85 -53.6 26.55 -60.7 26.7 -66.7 33.1 -65.45 33.6 -64.3 34.3 L-63.8 34.6 Q-59.25 37.6 -56.3 44.1 L-64.55 42.15 Q-61.75 45.8 -61.05 48.7 -64.8 50.45 -69.5 49.95 -64.8 50.45 -61.05 48.7 -61.75 45.8 -64.55 42.15 L-56.3 44.1 Q-59.25 37.6 -63.8 34.6 -54.75 34.8 -48.7 43.8 -49.65 47.7 -56.4 47.45 -55.1 50.45 -50.0 50.6 -58.3 54.0 -69.4 54.05 -61.7 57.65 -53.1 56.6 M-94.4 17.4 Q-100.7 39.9 -70.0 26.55 -100.7 39.9 -94.4 17.4 M-98.55 52.35 Q-92.0 49.15 -88.05 53.5 -82.0 49.85 -77.35 54.8 -76.0 51.7 -74.0 51.15 -76.0 51.7 -77.35 54.8 -82.0 49.85 -88.05 53.5 -92.0 49.15 -98.55 52.35" fill="#203242" fill-rule="evenodd" stroke="none"/>
    <path d="M8.3 -63.15 Q24.15 -62.4 36.45 -63.0 L48.8 -64.15 Q69.9 -67.1 117.5 -76.05 126.45 -79.7 123.9 -75.8 122.45 -73.6 120.7 -71.55 113.2 -62.65 100.05 -56.2 121.2 -60.45 118.95 -57.95 113.75 -49.7 102.55 -42.75 97.15 -39.4 90.35 -36.35 110.15 -36.8 106.55 -32.9 99.0 -22.45 80.45 -15.35 72.65 -12.35 62.85 -9.95 L56.65 -8.5 Q66.55 -4.2 77.5 -5.7 83.2 -5.25 78.75 -1.65 76.7 0.25 73.95 1.8 64.1 7.35 45.0 8.35 48.9 13.6 57.9 14.25 65.15 14.4 58.85 17.6 55.0 20.1 49.25 21.65 40.1 24.0 26.05 24.05 L18.85 23.9 Q24.65 29.3 36.8 31.7 42.6 33.0 36.8 34.7 29.05 38.45 19.95 39.9 8.85 41.65 -4.25 39.95 -1.75 45.8 7.1 48.05 14.95 51.0 7.9 51.45 -11.65 53.8 -29.8 47.25 -20.8 53.65 -13.4 62.7 -9.85 67.0 -16.7 65.3 -42.8 54.35 -53.1 56.6 -47.2 60.65 -39.7 63.2 -33.35 66.7 -40.5 67.15 L-52.5 67.2 Q-48.55 70.35 -47.3 72.95 -54.9 73.95 -61.7 70.5 -58.65 75.25 -60.8 76.8 -73.8 73.2 -83.0 62.25 -77.6 68.95 -76.9 74.7 -86.75 67.3 -93.1 57.6 -88.7 66.8 -87.65 74.45 -85.55 89.0 -121.7 40.2 -129.55 13.9 -114.8 13.95 -103.5 16.4 -94.4 17.4 -82.55 18.65 -74.45 17.4 -69.65 16.65 -66.15 15.0 -63.85 13.85 -62.1 12.35 -51.3 -16.15 -57.5 -45.6 -57.8 -51.75 -55.5 -56.75 -54.15 -59.75 -51.9 -62.3 -52.5 -51.7 -47.9 -45.25 -45.0 -52.6 -40.8 -57.25 M-40.7 -57.4 Q-32.55 -66.4 -19.45 -65.25 L8.3 -63.15 M56.65 -8.5 L44.55 -6.2 26.65 -3.75 M26.55 -45.8 Q7.95 -31.2 -16.7 -25.9 -8.4 -25.8 -6.5 -21.2 -14.8 -14.5 -23.5 -17.75 -22.45 -15.15 -19.05 -13.15 -28.0 -11.95 -34.85 -15.7 M112.5 -73.45 L117.5 -76.05 M100.05 -56.2 Q82.0 -47.3 53.25 -42.95 M43.1 -21.9 Q71.9 -28.05 90.35 -36.35 M-28.95 11.0 Q-26.95 12.25 -25.45 13.8 -32.45 18.45 -42.3 16.4 M-17.6 37.45 Q-10.7 39.15 -4.25 39.95 M-38.7 7.1 Q-32.9 8.5 -29.0 10.95 M-29.8 47.25 L-32.2 46.35 M-64.3 34.3 Q-65.45 33.6 -66.7 33.1 M-70.0 26.55 Q-100.7 39.9 -94.4 17.4 M-63.8 34.6 Q-59.25 37.6 -56.3 44.1 L-64.55 42.15 Q-61.75 45.8 -61.05 48.7 -64.8 50.45 -69.5 49.95 M-74.0 51.15 Q-76.0 51.7 -77.35 54.8 -82.0 49.85 -88.05 53.5 -92.0 49.15 -98.55 52.35 M-37.6 20.05 Q-46.4 23.8 -55.15 22.0 M45.0 8.35 L44.75 8.4 Q32.7 9.0 16.95 7.8 M18.85 23.9 L2.5 22.7" fill="none" stroke="#030506" stroke-linecap="round" stroke-linejoin="round" stroke-width="1.2000000000000002"/>
    <path d="M-40.8 -57.25 L-40.7 -57.4" fill="none" stroke="#030506" stroke-linecap="round" stroke-linejoin="miter-clip" stroke-miterlimit="8.0" stroke-width="0.05"/>
    <path d="M-29.0 10.95 L-28.95 11.0" fill="none" stroke="#030506" stroke-linecap="round" stroke-linejoin="round" stroke-width="0.05"/>
  </g>
</svg>
