<?xml version="1.0" encoding="UTF-8" standalone="no"?>
<svg xmlns:xlink="http://www.w3.org/1999/xlink" height="90.4px" width="74.35px" xmlns="http://www.w3.org/2000/svg">
  <g transform="matrix(1.0, 0.0, 0.0, 1.0, 37.2, 45.5)">
    <path d="M-24.9 -25.85 Q-25.6 -28.95 -26.65 -32.25 -30.95 -45.65 -20.55 -44.85 -8.1 -41.7 0.35 -35.25 2.6 -34.6 1.35 -31.3 -3.55 -20.85 5.0 -13.85 3.4 -13.4 2.35 -12.5 -3.45 -6.5 -24.9 -25.85 M8.4 -10.2 Q6.8 -8.25 6.6 -5.95 12.6 -3.65 20.2 -2.8 17.9 -1.05 15.25 -1.05 22.9 0.8 27.3 7.3 24.5 7.6 20.9 4.25 33.55 22.6 23.7 15.55 24.7 17.85 25.0 20.0 29.7 28.2 36.55 32.55 L13.5 38.85 Q20.65 18.15 13.5 7.1 8.0 5.0 5.6 1.8 9.25 1.6 9.95 -0.75 3.85 0.0 0.65 -4.3 L8.4 -10.2 M-36.6 -14.0 Q-33.2 -14.1 -27.1 -10.9 L-24.35 -9.4 -22.55 -8.1 Q-18.95 -5.6 -17.9 -1.5 -20.0 -0.7 -23.05 -3.25 -25.1 -2.65 -26.85 0.2 -27.1 -6.35 -36.6 -14.0 M13.6 -1.4 L15.25 -1.05 13.6 -1.4 M-18.65 -14.0 Q-11.5 -8.0 -12.35 -6.35 -10.55 4.25 -13.3 -0.6 L-18.65 -14.0" fill="#2b4256" fill-rule="evenodd" stroke="none"/>
    <path d="M5.0 -13.85 Q8.05 -14.75 13.2 -14.0 10.05 -12.3 8.4 -10.2 L0.65 -4.3 Q3.85 0.0 9.95 -0.75 9.25 1.6 5.6 1.8 8.0 5.0 13.5 7.1 20.65 18.15 13.5 38.85 -30.65 49.85 -32.9 40.9 -34.8 32.2 -31.95 16.5 -30.35 7.95 -28.3 3.1 -36.05 -5.6 -36.6 -14.0 -27.1 -6.35 -26.85 0.2 -25.1 -2.65 -23.05 -3.25 -20.0 -0.7 -17.9 -1.5 -18.95 -5.6 -22.55 -8.1 L-24.35 -9.4 Q-22.85 -16.5 -24.9 -25.85 -3.45 -6.5 2.35 -12.5 3.4 -13.4 5.0 -13.85 M-18.65 -14.0 Q-19.95 -11.15 -18.65 -7.55 -19.95 -11.15 -18.65 -14.0 L-13.3 -0.6 Q-10.55 4.25 -12.35 -6.35 -11.5 -8.0 -18.65 -14.0 M-28.3 3.1 L-26.85 0.2 -28.3 3.1" fill="#3a5874" fill-rule="evenodd" stroke="none"/>
    <path d="M-24.9 -25.85 Q-25.6 -28.95 -26.65 -32.25 -30.95 -45.65 -20.55 -44.85 -8.1 -41.7 0.35 -35.25 2.6 -34.6 1.35 -31.3 -3.55 -20.85 5.0 -13.85 8.05 -14.75 13.2 -14.0 10.05 -12.3 8.4 -10.2 6.8 -8.25 6.6 -5.95 12.6 -3.65 20.2 -2.8 17.9 -1.05 15.25 -1.05 22.9 0.8 27.3 7.3 24.5 7.6 20.9 4.25 33.55 22.6 23.7 15.55 24.7 17.85 25.0 20.0 29.7 28.2 36.55 32.55 M-32.9 40.9 Q-34.8 32.2 -31.95 16.5 -30.35 7.95 -28.3 3.1 -36.05 -5.6 -36.6 -14.0 -33.2 -14.1 -27.1 -10.9 L-24.35 -9.4 Q-22.85 -16.5 -24.9 -25.85 M2.35 -12.5 Q3.4 -13.4 5.0 -13.85 M15.25 -1.05 L13.6 -1.4 M-22.55 -8.1 L-24.35 -9.4 M-18.65 -7.55 Q-19.95 -11.15 -18.65 -14.0 -11.5 -8.0 -12.35 -6.35 M-23.05 -3.25 Q-25.1 -2.65 -26.85 0.2 L-28.3 3.1" fill="none" stroke="#030506" stroke-linecap="round" stroke-linejoin="round" stroke-width="1.2000000000000002"/>
    <path d="M25.55 24.25 Q25.3 24.35 25.2 24.1 L25.2 23.9 25.15 23.8 25.1 23.4 24.4 20.05 24.35 20.0 Q24.35 19.35 24.9 19.35 25.55 19.25 25.55 19.9 L25.8 23.95 25.8 24.0 25.75 24.1 25.75 24.15 25.7 24.15 25.65 24.25 25.55 24.25" fill="#030506" fill-rule="evenodd" stroke="none"/>
  </g>
</svg>
