<?xml version="1.0" encoding="UTF-8" standalone="no"?>
<svg xmlns:xlink="http://www.w3.org/1999/xlink" height="78.1px" width="58.6px" xmlns="http://www.w3.org/2000/svg">
  <g transform="matrix(1.0, 0.0, 0.0, 1.0, 32.0, 39.05)">
    <path d="M-31.4 -22.15 Q-19.4 -36.25 3.65 -38.0 26.7 -39.8 12.2 -34.6 28.1 -30.1 19.9 -28.6 28.1 -20.25 25.3 -16.4 23.45 -13.9 18.8 -11.4 18.65 -10.2 22.3 -9.75 18.45 -8.4 17.2 -3.35 19.2 -5.25 23.1 -3.35 20.0 -2.6 18.65 -0.35 16.25 7.0 12.95 13.4 7.0 22.05 -4.4 26.4 L1.0 27.7 Q-6.25 30.25 -9.2 27.8 L-14.1 12.4 Q-1.7 19.5 10.75 1.05 L5.75 1.05 Q7.55 -11.35 14.4 -17.2 9.6 -16.75 7.65 -22.75 12.45 -23.2 13.4 -28.25 4.5 -35.65 -31.4 -22.15" fill="#2b4256" fill-rule="evenodd" stroke="none"/>
    <path d="M-14.1 12.4 L-31.4 -22.15 Q4.5 -35.65 13.4 -28.25 12.45 -23.2 7.65 -22.75 9.6 -16.75 14.4 -17.2 7.55 -11.35 5.75 1.05 L10.75 1.05 Q-1.7 19.5 -14.1 12.4" fill="#3a5874" fill-rule="evenodd" stroke="none"/>
    <path d="M12.95 13.4 Q9.25 20.45 4.35 26.3 7.4 24.25 9.95 26.3 5.95 27.05 1.35 29.75 5.1 28.35 6.95 31.4 0.1 33.2 -5.85 38.45 L-9.2 27.8 Q-6.25 30.25 1.0 27.7 L-4.4 26.4 Q7.0 22.05 12.95 13.4" fill="#203242" fill-rule="evenodd" stroke="none"/>
    <path d="M-31.4 -22.15 Q-19.4 -36.25 3.65 -38.0 26.7 -39.8 12.2 -34.6 28.1 -30.1 19.9 -28.6 28.1 -20.25 25.3 -16.4 23.45 -13.9 18.8 -11.4 18.65 -10.2 22.3 -9.75 18.45 -8.4 17.2 -3.35 19.2 -5.25 23.1 -3.35 20.0 -2.6 18.65 -0.35 16.25 7.0 12.95 13.4 9.25 20.45 4.35 26.3 7.4 24.25 9.95 26.3 5.95 27.05 1.35 29.75 5.1 28.35 6.95 31.4 0.1 33.2 -5.85 38.45 L-9.2 27.8 -14.1 12.4 -31.4 -22.15 Z" fill="none" stroke="#030506" stroke-linecap="round" stroke-linejoin="round" stroke-width="1.2000000000000002"/>
  </g>
</svg>
