<?xml version="1.0" encoding="UTF-8" standalone="no"?>
<svg xmlns:xlink="http://www.w3.org/1999/xlink" height="10.1px" width="12.3px" xmlns="http://www.w3.org/2000/svg">
  <g transform="matrix(1.0, 0.0, 0.0, 1.0, -8.4, -20.35)">
    <path d="M19.55 20.35 L20.65 20.6 20.7 20.75 16.6 22.15 16.9 23.4 16.2 21.25 Q14.3 21.85 13.35 23.1 12.75 23.8 12.65 24.45 L13.35 24.3 15.7 22.9 Q16.65 28.3 16.35 28.45 L16.1 28.55 16.0 28.8 15.85 29.1 15.25 29.7 Q15.25 29.5 15.75 28.8 L16.2 27.55 15.9 25.35 15.0 24.65 Q14.35 24.75 13.35 25.2 12.45 25.6 12.45 25.75 12.45 26.4 11.9 26.25 L11.0 25.85 Q10.25 25.95 11.05 25.55 L11.85 24.95 11.6 24.6 Q10.7 25.0 10.3 26.0 10.0 26.15 9.65 27.2 L9.65 26.75 9.4 26.05 9.15 26.2 9.15 26.1 9.1 26.75 9.2 27.35 9.55 27.3 Q9.3 27.5 9.5 28.85 L9.25 29.4 Q8.75 29.75 8.45 28.3 8.25 27.1 9.15 26.05 9.9 25.15 11.05 24.65 L12.5 23.5 Q13.55 22.35 15.55 21.1 16.3 20.65 19.05 20.35 19.6 20.45 18.85 20.65 18.15 20.8 17.85 21.1 L18.1 21.35 18.9 21.15 Q19.5 20.95 19.55 20.35 M16.55 29.85 L15.85 30.45 16.45 29.9 16.55 29.85" fill="#ffffff" fill-opacity="0.4" fill-rule="evenodd" stroke="none"/>
    <path d="M16.9 23.4 L17.3 24.55 Q17.85 27.05 17.15 28.85 L17.0 29.55 16.55 29.85 16.45 29.9 16.6 29.2 16.35 28.45 Q16.65 28.3 15.7 22.9 L13.35 24.3 12.65 24.45 Q12.75 23.8 13.35 23.1 14.3 21.85 16.2 21.25 L16.9 23.4 M11.0 25.85 Q10.5 26.1 10.55 26.15 L10.55 26.1 Q10.65 26.0 10.3 26.0 10.7 25.0 11.6 24.6 L11.85 24.95 11.05 25.55 Q10.25 25.95 11.0 25.85 M9.65 27.2 L9.55 27.3 9.2 27.35 9.1 26.75 9.15 26.1 9.15 26.2 9.4 26.05 9.65 26.75 9.65 27.2 M19.05 20.35 L19.55 20.35 Q19.5 20.95 18.9 21.15 L18.1 21.35 17.85 21.1 Q18.15 20.8 18.85 20.65 19.6 20.45 19.05 20.35" fill="#ffffff" fill-opacity="0.69803923" fill-rule="evenodd" stroke="none"/>
    <path d="M15.85 30.45 Q15.25 30.35 15.2 30.0 15.85 30.45 15.25 29.7 L15.85 29.1 16.0 28.8 16.1 28.55 16.35 28.45 16.6 29.2 16.45 29.9 15.85 30.45" fill="#ffffff" fill-rule="evenodd" stroke="none"/>
  </g>
</svg>
