<?xml version="1.0" encoding="UTF-8" standalone="no"?>
<svg xmlns:xlink="http://www.w3.org/1999/xlink" height="40.7px" width="39.2px" xmlns="http://www.w3.org/2000/svg">
  <g transform="matrix(1.0, 0.0, 0.0, 1.0, 5.65, -2.2)">
    <path d="M30.9 25.45 L31.1 25.55 32.0 26.25 32.2 26.55 32.6 27.5 Q32.8 28.1 32.6 28.25 L32.05 28.35 31.55 27.65 31.3 27.05 31.3 26.9 30.9 25.45 M3.25 4.0 L3.35 4.3 0.6 4.0 -0.35 3.7 -0.25 3.35 1.45 3.4 3.25 4.0 M-2.4 3.3 L-2.45 3.3 -3.95 3.35 -4.35 3.3 -4.65 3.55 -5.5 2.85 -5.4 2.3 -4.8 2.2 -2.75 2.7 -2.35 2.95 -2.4 3.3 M-0.65 16.5 L-0.6 16.8 -3.95 16.6 -4.95 16.2 -5.1 15.75 -1.45 16.0 -0.65 16.5 M17.5 29.35 L17.75 29.2 18.15 30.55 18.15 31.15 Q18.2 31.9 18.4 32.2 L18.5 35.3 Q17.8 33.2 17.5 29.35 M19.25 37.95 L19.3 37.85 Q19.55 37.85 19.75 38.15 L19.95 38.9 19.4 39.15 19.15 38.7 19.25 37.95 M9.45 32.6 L9.55 34.75 9.0 34.9 8.95 34.65 8.75 32.3 Q8.75 31.7 8.85 31.75 L9.15 31.75 9.4 32.3 9.45 32.6" fill="#ffffff" fill-rule="evenodd" stroke="none"/>
    <path d="M20.15 7.9 Q20.05 6.85 20.3 6.45 L20.5 6.35 20.9 7.25 Q20.15 7.75 20.45 7.45 20.75 7.1 20.5 7.0 L20.15 7.9 M21.65 14.2 L21.1 15.35 20.3 15.9 Q20.75 14.7 20.75 13.3 L20.6 10.85 20.75 10.65 21.3 11.65 Q21.0 11.95 21.0 12.75 L21.2 13.7 21.65 14.2 M22.3 16.1 L20.6 19.25 Q20.45 18.45 20.6 17.95 L21.0 17.4 Q18.8 18.4 16.65 18.25 L22.3 16.1 M21.7 21.15 L20.65 21.25 23.15 23.25 22.65 24.9 22.15 24.25 22.8 24.25 21.8 23.1 21.05 22.5 20.95 23.55 Q20.95 24.2 21.75 25.2 L22.55 26.2 23.75 27.25 23.75 27.5 23.6 27.65 22.75 27.75 Q22.1 27.75 21.1 26.75 19.5 25.1 17.7 23.8 L17.7 23.55 Q17.7 22.95 18.2 22.95 L18.75 22.9 18.05 22.5 17.2 22.25 16.75 22.45 16.65 22.0 16.45 21.6 9.5 25.95 10.8 26.0 12.05 25.7 12.2 26.1 12.35 26.75 12.45 27.8 12.25 28.65 11.3 29.35 10.3 29.7 10.65 28.25 10.85 29.4 11.6 28.05 12.0 26.7 Q11.85 25.9 11.3 26.45 L10.1 27.8 9.05 29.25 Q8.5 29.65 8.5 31.85 L8.9 34.65 8.35 35.05 Q8.4 30.4 8.65 28.55 8.85 26.9 9.45 25.75 7.5 26.95 7.0 26.7 L12.9 23.1 Q17.55 20.35 19.3 20.35 20.55 20.35 21.7 21.15 M23.8 23.4 L24.05 23.4 23.35 22.45 23.95 22.5 24.05 23.15 Q24.05 23.7 24.25 23.55 24.65 23.25 24.9 23.3 L26.95 24.35 29.35 25.15 29.4 25.2 31.3 26.9 31.3 27.05 28.7 25.5 23.7 23.7 23.8 23.4 M32.85 27.5 Q33.5 27.9 33.55 28.75 L33.15 28.95 Q33.2 28.25 32.85 27.5 M33.0 28.95 L32.35 28.8 32.05 28.35 32.6 28.25 33.0 28.95 M10.85 9.5 L13.4 11.35 13.55 11.7 Q13.2 11.6 12.2 10.95 L10.65 9.7 10.85 9.5 M8.6 7.75 Q9.85 8.3 10.25 8.95 L10.2 9.15 8.45 7.95 8.6 7.75 M0.6 4.0 L4.6 5.25 4.55 5.0 6.35 6.3 Q5.65 6.3 2.35 5.0 L-2.4 3.3 -2.35 2.95 -0.2 3.3 -0.25 3.35 -0.35 3.7 0.6 4.0 M-3.8 3.45 L-5.2 3.8 -5.5 3.8 -5.65 3.15 -5.6 2.45 -5.4 2.3 -5.5 2.85 -4.65 3.55 -4.35 3.3 -3.95 3.35 -3.8 3.45 M-4.8 2.2 L-3.45 2.4 Q-2.85 2.6 -2.75 2.7 L-4.8 2.2 M9.8 18.5 L11.15 19.05 Q12.4 19.45 13.1 20.0 L12.2 21.85 Q11.55 22.9 10.7 23.05 L10.0 22.6 Q10.75 22.35 10.75 20.85 L9.55 18.9 9.8 18.5 M-4.95 15.6 Q-4.35 14.85 -3.25 14.85 L-1.4 15.05 -0.2 15.45 2.65 16.3 2.85 16.6 -0.65 16.5 -1.45 16.0 -1.85 15.5 Q-2.45 15.1 -3.1 15.1 -3.95 15.1 -4.95 15.6 M-3.95 16.6 L-4.4 16.6 -4.95 16.2 -3.95 16.6 M7.2 18.15 L7.25 18.3 Q7.7 18.6 6.7 18.6 6.15 18.6 5.55 17.95 L4.95 16.95 5.8 17.3 7.2 18.15 M15.7 15.25 L16.0 15.25 16.05 14.8 15.45 14.7 15.7 15.25 M16.15 14.8 L15.7 16.65 Q15.75 16.25 15.05 15.05 L14.2 13.75 14.5 13.0 15.0 13.45 16.15 14.8 M15.15 15.9 Q15.65 16.5 15.5 17.15 L15.0 17.25 14.9 16.65 14.95 15.9 15.15 15.9 M11.4 20.5 L11.85 19.7 10.95 19.7 11.4 20.5 M13.75 25.0 L16.55 22.7 16.6 23.5 Q16.7 23.95 17.35 23.95 L17.7 24.0 17.85 26.3 Q17.4 25.85 17.4 26.95 L17.5 27.75 17.75 28.0 18.0 27.85 18.15 30.55 17.75 29.2 17.5 29.35 16.85 27.35 16.5 28.05 16.6 29.9 16.4 30.55 15.5 30.45 15.2 30.0 15.85 29.1 16.2 27.4 Q16.2 26.3 15.65 25.75 15.1 25.2 13.75 25.0 M18.4 20.7 L17.55 20.85 17.4 21.15 Q17.55 21.6 17.9 21.65 L18.85 21.5 20.3 21.3 20.15 21.05 Q19.7 20.7 18.4 20.7 M18.5 35.3 L18.4 32.2 Q18.55 32.4 18.8 32.4 19.3 32.4 19.05 34.25 18.7 36.65 19.3 37.85 L19.25 37.95 Q18.25 37.6 18.55 36.75 18.2 37.2 18.25 37.6 17.65 36.05 17.0 32.05 L18.3 35.8 18.45 35.75 18.5 35.3 M9.35 31.8 L9.45 32.6 9.4 32.3 9.35 31.8 M6.2 26.65 L6.25 26.8 3.7 28.6 3.0 28.95 2.9 28.45 Q3.8 27.1 4.2 26.8 L6.2 26.65 M19.95 38.9 L20.6 40.45 21.2 42.15 20.9 42.9 20.05 42.15 19.25 40.0 19.65 40.6 20.35 41.35 20.55 40.85 20.05 40.05 19.45 39.25 19.35 39.15 19.4 39.15 19.95 38.9 M25.3 32.2 Q24.7 31.4 24.6 30.25 L24.9 29.85 Q25.65 31.05 26.25 32.6 L26.75 34.55 26.5 34.65 26.35 34.2 Q26.35 33.35 26.05 32.8 25.75 32.2 25.3 32.2 M19.85 24.25 Q20.1 26.05 22.55 27.35 L22.6 26.9 Q22.0 25.85 19.85 24.25" fill="#ffffff" fill-opacity="0.4" fill-rule="evenodd" stroke="none"/>
    <path d="M20.9 7.25 Q20.95 8.75 20.6 8.85 L20.35 8.6 20.15 7.9 20.5 7.0 Q20.75 7.1 20.45 7.45 20.15 7.75 20.9 7.25 M21.3 11.65 L21.4 11.6 21.85 13.2 Q21.95 14.1 21.65 14.2 L21.2 13.7 21.0 12.75 Q21.0 11.95 21.3 11.65 M23.15 23.25 L20.65 21.25 21.7 21.15 Q22.4 21.15 22.9 21.55 23.35 21.9 23.35 22.45 L24.05 23.4 23.8 23.4 23.15 23.25 M8.9 34.65 L8.5 31.85 Q8.5 29.65 9.05 29.25 L9.15 29.2 9.35 31.8 9.4 32.3 9.15 31.75 8.85 31.75 Q8.75 31.7 8.75 32.3 L8.95 34.65 8.9 34.65 M11.3 26.45 Q11.85 25.9 12.0 26.7 L11.6 28.05 10.85 29.4 10.65 28.25 11.0 27.05 11.3 26.45 M12.2 26.1 L12.05 25.7 10.8 26.0 9.5 25.95 16.45 21.6 16.65 22.0 16.75 22.45 17.2 22.25 18.05 22.5 18.75 22.9 18.2 22.95 Q17.7 22.95 17.7 23.55 L17.7 23.8 17.65 23.75 17.7 24.0 17.35 23.95 Q16.7 23.95 16.6 23.5 L16.55 22.7 13.75 25.0 13.3 25.8 12.2 26.1 M24.9 23.3 L25.2 22.75 Q26.5 22.9 30.9 25.45 L31.3 26.9 29.4 25.2 29.35 25.15 26.95 24.35 24.9 23.3 M32.2 26.55 L32.85 27.5 Q33.2 28.25 33.15 28.95 L33.0 28.95 32.6 28.25 Q32.8 28.1 32.6 27.5 L32.2 26.55 M0.6 4.0 L3.35 4.3 3.25 4.0 Q4.2 4.45 4.55 5.0 L4.6 5.25 0.6 4.0 M1.45 3.4 L-0.25 3.35 -0.2 3.3 1.45 3.4 M-2.45 3.3 L-2.25 3.9 -3.8 3.45 -3.95 3.35 -2.45 3.3 M-5.1 15.75 L-4.95 15.6 Q-3.95 15.1 -3.1 15.1 -2.45 15.1 -1.85 15.5 L-1.45 16.0 -5.1 15.75 M18.4 20.7 Q19.7 20.7 20.15 21.05 L20.3 21.3 18.85 21.5 17.9 21.65 Q17.55 21.6 17.4 21.15 L17.55 20.85 18.4 20.7 M16.6 29.9 L16.5 28.05 16.85 27.35 17.5 29.35 Q17.8 33.2 18.5 35.3 L18.45 35.75 18.3 35.8 17.0 32.05 16.6 29.9 M18.0 27.85 L17.75 28.0 17.5 27.75 17.4 26.95 Q17.4 25.85 17.85 26.3 18.3 27.25 18.0 27.85 M18.25 37.6 Q18.2 37.2 18.55 36.75 18.25 37.6 19.25 37.95 L19.15 38.7 19.4 39.15 19.35 39.15 Q18.9 39.15 18.6 38.7 18.25 38.25 18.25 37.6 M19.25 40.0 L19.45 39.25 20.05 40.05 20.55 40.85 20.35 41.35 19.65 40.6 19.25 40.0 M26.35 34.2 Q25.9 34.2 25.6 33.65 25.3 33.05 25.3 32.2 25.75 32.2 26.05 32.8 26.35 33.35 26.35 34.2 M19.85 24.25 Q22.0 25.85 22.6 26.9 L22.55 27.35 Q20.1 26.05 19.85 24.25" fill="#ffffff" fill-opacity="0.69803923" fill-rule="evenodd" stroke="none"/>
  </g>
</svg>
