<?xml version="1.0" encoding="UTF-8" standalone="no"?>
<svg xmlns:xlink="http://www.w3.org/1999/xlink" height="19.35px" width="59.55px" xmlns="http://www.w3.org/2000/svg">
  <g transform="matrix(1.0, 0.0, 0.0, 1.0, 21.5, -23.85)">
    <path d="M0.0 33.45 L1.0 37.95 Q1.25 41.8 -3.6 42.05 -18.9 41.1 -21.15 31.35 -9.8 36.35 0.0 33.45 M25.55 31.1 Q36.2 34.25 37.95 30.2 38.6 34.8 35.2 39.25 32.45 42.85 29.85 40.8 28.95 40.1 28.1 38.8 26.4 36.1 25.8 32.8 L25.8 32.75 Q26.25 31.75 25.55 31.1" fill="#edebe1" fill-rule="evenodd" stroke="none"/>
    <path d="M-21.15 31.35 Q-21.7 28.8 -21.4 25.6 L-3.6 26.2 Q-1.45 29.05 -0.25 32.65 L0.0 33.45 Q-9.8 36.35 -21.15 31.35 M25.55 31.1 L25.55 30.85 Q25.3 28.4 25.65 25.65 L33.75 24.3 Q36.65 24.25 37.8 29.35 L37.95 30.1 37.95 30.2 Q36.2 34.25 25.55 31.1" fill="#c2bdb8" fill-rule="evenodd" stroke="none"/>
    <path d="M-2.25 33.25 Q-1.9 36.6 -3.55 39.1 -5.2 41.7 -7.9 42.0 -10.55 42.3 -12.75 40.1 -14.9 38.0 -15.25 34.65 -15.6 31.3 -14.0 28.75 -12.3 26.2 -9.65 25.9 -6.95 25.6 -4.8 27.75 -2.6 29.9 -2.25 33.25" fill="url(#gradient0)" fill-rule="evenodd" stroke="none"/>
    <path d="M-2.25 33.25 Q-1.9 36.6 -3.55 39.1 -5.2 41.7 -7.9 42.0 -10.55 42.3 -12.75 40.1 -14.9 38.0 -15.25 34.65 -15.6 31.3 -14.0 28.75 -12.3 26.2 -9.65 25.9 -6.95 25.6 -4.8 27.75 -2.6 29.9 -2.25 33.25 Z" fill="none" stroke="#030506" stroke-linecap="round" stroke-linejoin="miter-clip" stroke-miterlimit="8.0" stroke-width="1.0"/>
    <path d="M-5.75 33.75 Q-5.75 35.65 -6.65 37.0 -7.55 38.35 -8.8 38.35 -10.1 38.35 -11.0 37.0 -11.9 35.65 -11.9 33.75 -11.9 31.8 -11.0 30.45 -10.1 29.1 -8.8 29.1 -7.55 29.1 -6.65 30.45 -5.75 31.8 -5.75 33.75" fill="#edebe1" fill-rule="evenodd" stroke="none"/>
    <path d="M-5.75 33.75 Q-5.75 35.65 -6.65 37.0 -7.55 38.35 -8.8 38.35 -10.1 38.35 -11.0 37.0 -11.9 35.65 -11.9 33.75 -11.9 31.8 -11.0 30.45 -10.1 29.1 -8.8 29.1 -7.55 29.1 -6.65 30.45 -5.75 31.8 -5.75 33.75 Z" fill="none" stroke="#030506" stroke-linecap="round" stroke-linejoin="miter-clip" stroke-miterlimit="8.0" stroke-width="1.0"/>
    <path d="M35.6 32.15 Q36.05 35.25 34.8 37.75 33.7 40.25 31.6 40.6 29.6 41.0 27.75 39.0 25.95 37.15 25.55 34.0 25.1 30.85 26.2 28.35 27.4 25.9 29.45 25.5 31.5 25.15 33.3 27.05 35.1 29.0 35.6 32.15" fill="url(#gradient1)" fill-rule="evenodd" stroke="none"/>
    <path d="M35.6 32.15 Q36.05 35.25 34.8 37.75 33.7 40.25 31.6 40.6 29.6 41.0 27.75 39.0 25.95 37.15 25.55 34.0 25.1 30.85 26.2 28.35 27.4 25.9 29.45 25.5 31.5 25.15 33.3 27.05 35.1 29.0 35.6 32.15 Z" fill="none" stroke="#030506" stroke-linecap="round" stroke-linejoin="miter-clip" stroke-miterlimit="8.0" stroke-width="1.0"/>
    <path d="M32.6 33.0 Q32.65 34.8 32.05 36.05 31.4 37.4 30.4 37.45 29.4 37.5 28.65 36.25 27.85 35.05 27.8 33.25 27.7 31.4 28.3 30.1 28.95 28.75 29.95 28.7 30.95 28.65 31.7 29.9 32.5 31.15 32.6 33.0" fill="#edebe1" fill-rule="evenodd" stroke="none"/>
    <path d="M32.6 33.0 Q32.65 34.8 32.05 36.05 31.4 37.4 30.4 37.45 29.4 37.5 28.65 36.25 27.85 35.05 27.8 33.25 27.7 31.4 28.3 30.1 28.95 28.75 29.95 28.7 30.95 28.65 31.7 29.9 32.5 31.15 32.6 33.0 Z" fill="none" stroke="#030506" stroke-linecap="round" stroke-linejoin="miter-clip" stroke-miterlimit="8.0" stroke-width="1.0"/>
  </g>
  <defs>
    <radialGradient cx="0" cy="0" gradientTransform="matrix(0.0167, -0.0018, 0.0018, 0.0168, -7.8, 39.9)" gradientUnits="userSpaceOnUse" id="gradient0" r="819.2" spreadMethod="pad">
      <stop offset="0.18823529411764706" stop-color="#ef603c"/>
      <stop offset="0.5647058823529412" stop-color="#992d2d"/>
    </radialGradient>
    <radialGradient cx="0" cy="0" gradientTransform="matrix(0.0129, -0.0024, 0.0023, 0.0158, 31.55, 38.65)" gradientUnits="userSpaceOnUse" id="gradient1" r="819.2" spreadMethod="pad">
      <stop offset="0.18823529411764706" stop-color="#ef603c"/>
      <stop offset="0.5647058823529412" stop-color="#992d2d"/>
    </radialGradient>
  </defs>
</svg>
