<?xml version="1.0" encoding="UTF-8" standalone="no"?>
<svg xmlns:xlink="http://www.w3.org/1999/xlink" height="36.45px" width="33.9px" xmlns="http://www.w3.org/2000/svg">
  <g transform="matrix(1.0, 0.0, 0.0, 1.0, 14.1, 20.7)">
    <path d="M-13.35 -20.0 L-0.2 -15.6 8.7 -8.05 8.75 -8.05 Q15.8 1.35 18.6 11.75 14.1 10.3 1.4 0.65 -11.6 -12.25 -13.5 -20.05 L-13.5 -20.1 -13.35 -20.0 -13.5 -20.05 -13.35 -20.0" fill="url(#gradient0)" fill-rule="evenodd" stroke="none"/>
    <path d="M1.4 0.65 Q14.1 10.3 18.6 11.75 L19.1 13.95 Q20.5 18.8 4.6 3.75 L1.4 0.65" fill="#edc5bd" fill-rule="evenodd" stroke="none"/>
    <path d="M-13.35 -20.0 L-13.5 -20.05 Q-11.6 -12.25 1.4 0.65 L4.6 3.75 Q20.5 18.8 19.1 13.95 L18.6 11.75 Q15.8 1.35 8.75 -8.05 M-13.5 -20.1 L-13.5 -20.05" fill="none" stroke="#030506" stroke-linecap="round" stroke-linejoin="miter-clip" stroke-miterlimit="3.0" stroke-width="1.2000000000000002"/>
    <path d="M4.0 -7.65 L3.95 -7.7 Q3.7 -8.05 4.05 -8.4 L4.75 -8.3 6.25 -6.3 8.8 -1.7 9.3 -0.35 9.25 -0.25 Q9.15 -0.15 9.15 -0.3 L8.35 -1.85 5.65 -5.8 5.5 -5.95 5.4 -6.1 4.0 -7.65" fill="#030506" fill-rule="evenodd" stroke="none"/>
  </g>
  <defs>
    <linearGradient gradientTransform="matrix(0.0131, 0.0227, -0.0186, 0.0108, 2.85, -2.45)" gradientUnits="userSpaceOnUse" id="gradient0" spreadMethod="pad" x1="-819.2" x2="819.2">
      <stop offset="0.07450980392156863" stop-color="#a3736a"/>
      <stop offset="0.5803921568627451" stop-color="#eda89a"/>
    </linearGradient>
  </defs>
</svg>
