<?xml version="1.0" encoding="UTF-8" standalone="no"?>
<svg xmlns:xlink="http://www.w3.org/1999/xlink" height="59.2px" width="68.2px" xmlns="http://www.w3.org/2000/svg">
  <g transform="matrix(1.0, 0.0, 0.0, 1.0, 34.4, 29.3)">
    <path d="M-30.15 8.15 Q-39.4 -5.6 -25.3 -26.8 -15.2 -35.4 15.9 -14.3 24.5 2.8 21.9 8.15 19.25 13.5 12.55 15.3 0.15 15.9 3.25 18.15 -14.15 17.75 -30.15 8.15" fill="#af3c8b" fill-opacity="0.99607843" fill-rule="evenodd" stroke="none"/>
    <path d="M15.9 -14.3 Q17.95 -10.55 22.3 -7.25 26.6 -3.95 33.8 15.1 L31.05 19.5 Q18.95 30.8 22.9 23.85 14.55 30.95 15.05 27.25 -3.0 31.4 6.9 27.25 -21.65 20.9 -30.15 8.15 -14.15 17.75 3.25 18.15 0.15 15.9 12.55 15.3 19.25 13.5 21.9 8.15 24.5 2.8 15.9 -14.3" fill="#983378" fill-opacity="0.99607843" fill-rule="evenodd" stroke="none"/>
    <path d="M31.05 19.5 Q18.95 30.8 22.9 23.85 14.55 30.95 15.05 27.25 -3.0 31.4 6.9 27.25 -21.65 20.9 -30.15 8.15 -39.4 -5.6 -25.3 -26.8" fill="none" stroke="#030506" stroke-linecap="round" stroke-linejoin="round" stroke-width="1.2000000000000002"/>
  </g>
</svg>
