<?xml version="1.0" encoding="UTF-8" standalone="no"?>
<svg xmlns:xlink="http://www.w3.org/1999/xlink" height="49.6px" width="55.25px" xmlns="http://www.w3.org/2000/svg">
  <g transform="matrix(1.0, 0.0, 0.0, 1.0, 30.95, 24.8)">
    <path d="M-15.7 -21.7 Q-15.25 -21.75 -13.5 -20.1 L-13.5 -20.05 8.75 -8.05 13.15 -6.65 Q16.45 -5.55 23.7 -0.95 17.5 1.4 18.8 5.9 23.3 14.15 22.55 22.8 -0.6 -0.55 -6.0 -6.6 -11.4 -12.7 -13.3 -16.05 -14.4 -17.25 -15.4 -19.45 -16.45 -21.7 -15.7 -21.7" fill="url(#gradient0)" fill-rule="evenodd" stroke="none"/>
    <path d="M-13.3 -16.05 Q-11.4 -12.7 -6.0 -6.6 -0.6 -0.55 22.55 22.8 22.55 25.15 19.75 23.6 L2.25 12.45 Q-4.6 6.95 -10.65 1.0 -8.75 -1.2 -13.3 -16.05" fill="#d5b889" fill-rule="evenodd" stroke="none"/>
    <path d="M-15.7 -21.7 Q-16.45 -21.7 -15.4 -19.45 -14.4 -17.25 -13.3 -16.05 -8.75 -1.2 -10.65 1.0 L-15.8 -6.4 -19.95 -11.55 -20.05 -11.65 Q-22.35 -15.05 -22.85 -18.35 L-23.65 -24.2 Q-19.65 -22.65 -15.7 -21.7" fill="#f0d19b" fill-rule="evenodd" stroke="none"/>
    <path d="M-15.8 -6.4 Q-21.7 -7.3 -28.5 -12.85 -32.8 -18.0 -29.55 -23.5 L-23.65 -24.2 -22.85 -18.35 Q-22.35 -15.05 -20.05 -11.65 L-19.95 -11.55 -15.8 -6.4" fill="#af3c8b" fill-opacity="0.99607843" fill-rule="evenodd" stroke="none"/>
    <path d="M-15.7 -21.7 Q-16.45 -21.7 -15.4 -19.45 -14.4 -17.25 -13.3 -16.05 -11.4 -12.7 -6.0 -6.6 -0.6 -0.55 22.55 22.8 23.3 14.15 18.8 5.9 17.5 1.4 23.7 -0.95 M22.55 22.8 Q22.55 25.15 19.75 23.6 L2.25 12.45 Q-4.6 6.95 -10.65 1.0 L-15.8 -6.4 -19.95 -11.55 -20.05 -11.65 Q-22.35 -15.05 -22.85 -18.35 L-23.65 -24.2" fill="none" stroke="#030506" stroke-linecap="round" stroke-linejoin="miter-clip" stroke-miterlimit="3.0" stroke-width="1.2000000000000002"/>
  </g>
  <defs>
    <linearGradient gradientTransform="matrix(-0.0024, 0.0286, -0.027, -0.0022, 3.8, 0.15)" gradientUnits="userSpaceOnUse" id="gradient0" spreadMethod="pad" x1="-819.2" x2="819.2">
      <stop offset="0.21568627450980393" stop-color="#41382e"/>
      <stop offset="0.45098039215686275" stop-color="#695a4a"/>
      <stop offset="0.7333333333333333" stop-color="#a08a71"/>
    </linearGradient>
  </defs>
</svg>
