<?xml version="1.0" encoding="UTF-8" standalone="no"?>
<svg xmlns:xlink="http://www.w3.org/1999/xlink" height="96.25px" width="190.75px" xmlns="http://www.w3.org/2000/svg">
  <g transform="matrix(1.0, 0.0, 0.0, 1.0, 95.9, 0.8)">
    <path d="M-38.35 6.9 L-37.25 6.75 -37.2 6.8 -38.35 6.9 M25.55 31.1 Q26.25 31.75 25.8 32.75 L25.55 31.1" fill="#3a5874" fill-rule="evenodd" stroke="none"/>
    <path d="M40.25 47.1 Q39.4 50.55 41.65 53.05 38.65 51.65 34.8 50.45 L34.6 50.4 34.8 50.45 Q50.1 57.0 51.3 77.85 51.25 90.0 49.25 89.1 46.7 88.85 41.65 83.1 39.25 80.0 32.9 76.45 26.6 72.9 23.4 71.4 L19.0 69.45 15.7 69.05 Q13.6 69.15 12.85 69.5 10.15 64.35 -3.55 57.15 -5.3 55.5 -5.75 55.55 -9.7 54.6 -13.7 53.05 -15.85 51.5 -16.45 49.75 -14.05 48.3 -10.65 48.85 L-8.3 49.0 Q2.0 51.15 10.4 56.75 14.8 57.75 15.6 53.95 15.1 44.35 17.85 37.5 19.8 35.65 21.2 35.6 22.6 35.5 23.45 37.15 25.55 44.5 29.95 47.65 34.4 50.75 34.5 50.35 L34.6 50.4 34.65 50.4 Q38.1 51.2 40.25 47.1 M26.05 55.4 Q22.25 57.25 29.05 65.85 40.3 68.75 44.55 78.85 48.35 72.75 26.05 55.4 M-3.55 57.15 L-2.05 57.8 -2.0 57.8 -1.8 57.9 -1.35 58.05 Q2.0 59.25 -3.55 57.15" fill="#f0d19b" fill-rule="evenodd" stroke="none"/>
    <path d="M41.65 53.05 Q49.3 56.6 51.1 61.35 53.65 68.15 54.15 74.85 54.6 81.5 50.35 94.5 45.7 91.25 42.7 84.85 L41.65 83.1 Q46.7 88.85 49.25 89.1 51.25 90.0 51.3 77.85 50.1 57.0 34.8 50.45 38.65 51.65 41.65 53.05 M-8.3 49.0 L-5.05 49.2 -0.2 49.5 Q8.3 49.95 11.05 46.55 L17.85 37.5 Q15.1 44.35 15.6 53.95 14.8 57.75 10.4 56.75 2.0 51.15 -8.3 49.0" fill="#d5b889" fill-rule="evenodd" stroke="none"/>
    <path d="M26.05 55.4 Q48.35 72.75 44.55 78.85 40.3 68.75 29.05 65.85 22.25 57.25 26.05 55.4" fill="#f5eaca" fill-rule="evenodd" stroke="none"/>
    <path d="M-3.55 57.15 Q2.0 59.25 -1.35 58.05 L-1.8 57.9 -2.0 57.8 -2.05 57.8 -3.55 57.15" fill="url(#gradient0)" fill-rule="evenodd" stroke="none"/>
    <path d="M55.85 20.05 Q42.35 22.85 35.85 20.15 38.65 21.65 37.4 22.75 35.8 23.85 33.75 24.3 L25.65 25.65 8.85 26.35 Q-1.5 24.2 -19.9 23.0 -13.5 20.3 -12.4 16.0 -30.4 22.1 -42.95 20.15 -49.8 19.95 -53.35 16.45 -72.65 14.5 -83.5 9.25 L-80.45 9.3 Q-60.6 9.55 -40.55 7.2 L-38.35 6.9 -37.2 6.8 -8.5 4.15 12.45 8.7 23.8 9.5 Q28.7 12.45 55.85 20.05 M-13.7 53.05 L-12.9 58.9 Q-12.4 62.2 -10.1 65.6 L-10.0 65.7 Q-8.3 68.5 -20.8 63.4 -33.55 58.15 -39.25 46.7 -37.05 38.8 -38.3 30.1 -35.95 35.05 -21.15 31.35 -18.9 41.1 -3.6 42.05 1.25 41.8 1.0 37.95 L0.0 33.45 Q18.0 29.5 21.15 29.75 24.3 29.95 25.55 31.1 L25.8 32.75 25.8 32.8 Q26.4 36.1 28.1 38.8 28.95 40.1 29.85 40.8 L23.45 37.15 Q22.6 35.5 21.2 35.6 19.8 35.65 17.85 37.5 L11.05 46.55 Q8.3 49.95 -0.2 49.5 L-5.05 49.2 -8.3 49.0 -10.65 48.85 Q-14.05 48.3 -16.45 49.75 -15.85 51.5 -13.7 53.05" fill="#af3c8b" fill-opacity="0.99607843" fill-rule="evenodd" stroke="none"/>
    <path d="M-39.6 23.9 L-40.55 23.85 Q-52.4 23.1 -63.55 20.25 -59.9 18.2 -58.7 18.25 -74.25 17.4 -80.45 14.35 -82.15 13.5 -83.1 12.5 -89.85 11.1 -94.1 8.75 L-83.5 9.25 Q-72.65 14.5 -53.35 16.45 -49.8 19.95 -42.95 20.15 -30.4 22.1 -12.4 16.0 -13.5 20.3 -19.9 23.0 -1.5 24.2 8.85 26.35 L-3.6 26.2 -21.4 25.6 -30.85 25.1 Q-26.05 23.55 -23.05 21.25 -31.5 24.1 -39.6 23.9" fill="#cb45a1" fill-opacity="0.99607843" fill-rule="evenodd" stroke="none"/>
    <path d="M-8.5 4.15 L37.75 -0.15 Q40.0 2.75 41.1 2.45 58.15 7.3 80.25 6.1 90.15 7.05 94.05 4.55 93.15 9.95 82.75 11.65 66.95 17.7 55.85 20.05 28.7 12.45 23.8 9.5 L12.45 8.7 -8.5 4.15 M37.4 22.75 Q39.9 25.75 41.3 28.75 43.55 33.55 43.05 38.35 L41.35 44.2 Q40.55 45.75 40.25 47.1 38.1 51.2 34.65 50.4 L34.6 50.4 34.5 50.35 Q34.4 50.75 29.95 47.65 25.55 44.5 23.45 37.15 L29.85 40.8 Q32.45 42.85 35.2 39.25 38.6 34.8 37.95 30.2 L37.95 30.1 37.8 29.35 Q36.65 24.25 33.75 24.3 35.8 23.85 37.4 22.75 M-38.3 30.1 Q-38.75 27.05 -39.6 23.9 -31.5 24.1 -23.05 21.25 -26.05 23.55 -30.85 25.1 L-21.4 25.6 Q-21.7 28.8 -21.15 31.35 -35.95 35.05 -38.3 30.1 M25.55 31.1 Q24.3 29.95 21.15 29.75 18.0 29.5 0.0 33.45 L-0.25 32.65 Q-1.45 29.05 -3.6 26.2 L8.85 26.35 25.65 25.65 Q25.3 28.4 25.55 30.85 L25.55 31.1" fill="#983378" fill-opacity="0.99607843" fill-rule="evenodd" stroke="none"/>
    <path d="M-8.5 4.15 L37.75 -0.15 Q40.0 2.75 41.1 2.45 58.15 7.3 80.25 6.1 90.15 7.05 94.05 4.55 93.15 9.95 82.75 11.65 66.95 17.7 55.85 20.05 42.35 22.85 35.85 20.15 38.65 21.65 37.4 22.75 39.9 25.75 41.3 28.75 43.55 33.55 43.05 38.35 L41.35 44.2 Q40.55 45.75 40.25 47.1 39.4 50.55 41.65 53.05 49.3 56.6 51.1 61.35 53.65 68.15 54.15 74.85 54.6 81.5 50.35 94.5 45.7 91.25 42.7 84.85 L41.65 83.1 Q39.25 80.0 32.9 76.45 26.6 72.9 23.4 71.4 L19.0 69.45 15.7 69.05 Q13.6 69.15 12.85 69.5 10.15 64.35 -3.55 57.15 -5.3 55.5 -5.75 55.55 -9.7 54.6 -13.7 53.05 -15.85 51.5 -16.45 49.75 -14.05 48.3 -10.65 48.85 L-8.3 49.0 -5.05 49.2 -0.2 49.5 Q8.3 49.95 11.05 46.55 L17.85 37.5 Q19.8 35.65 21.2 35.6 22.6 35.5 23.45 37.15 25.55 44.5 29.95 47.65 34.4 50.75 34.5 50.35 L34.6 50.4 34.65 50.4 Q38.1 51.2 40.25 47.1 M-20.8 63.4 Q-33.55 58.15 -39.25 46.7 -37.05 38.8 -38.3 30.1 -38.75 27.05 -39.6 23.9 L-40.55 23.85 Q-52.4 23.1 -63.55 20.25 M-83.1 12.5 Q-89.85 11.1 -94.1 8.75 L-83.5 9.25 -80.45 9.3 Q-60.6 9.55 -40.55 7.2 L-38.35 6.9 -37.25 6.75 M-37.2 6.8 L-8.5 4.15 M37.4 22.75 Q35.8 23.85 33.75 24.3 36.65 24.25 37.8 29.35 L37.95 30.1 37.95 30.2 Q38.6 34.8 35.2 39.25 32.45 42.85 29.85 40.8 28.95 40.1 28.1 38.8 26.4 36.1 25.8 32.8 L25.8 32.75 25.55 31.1 25.55 30.85 Q25.3 28.4 25.65 25.65 L8.85 26.35 -3.6 26.2 Q-1.45 29.05 -0.25 32.65 L0.0 33.45 1.0 37.95 Q1.25 41.8 -3.6 42.05 -18.9 41.1 -21.15 31.35 -21.7 28.8 -21.4 25.6 L-3.6 26.2 M33.75 24.3 L25.65 25.65 M34.6 50.4 L34.8 50.45 Q38.65 51.65 41.65 53.05 M-21.4 25.6 L-30.85 25.1 Q-26.05 23.55 -23.05 21.25 -31.5 24.1 -39.6 23.9 M-38.35 6.9 L-37.2 6.8" fill="none" stroke="#030506" stroke-linecap="round" stroke-linejoin="miter-clip" stroke-miterlimit="3.0" stroke-width="1.2000000000000002"/>
    <path d="M-63.55 20.25 Q-59.9 18.2 -58.7 18.25 -74.25 17.4 -80.45 14.35 -82.15 13.5 -83.1 12.5" fill="none" stroke="#030506" stroke-linecap="round" stroke-linejoin="miter-clip" stroke-miterlimit="8.0" stroke-width="1.2000000000000002"/>
  </g>
  <defs>
    <linearGradient gradientTransform="matrix(-0.0024, 0.0286, -0.027, -0.0022, 13.75, 77.4)" gradientUnits="userSpaceOnUse" id="gradient0" spreadMethod="pad" x1="-819.2" x2="819.2">
      <stop offset="0.21568627450980393" stop-color="#41382e"/>
      <stop offset="0.45098039215686275" stop-color="#695a4a"/>
      <stop offset="0.7333333333333333" stop-color="#a08a71"/>
    </linearGradient>
  </defs>
</svg>
