<?xml version="1.0" encoding="UTF-8" standalone="no"?>
<svg xmlns:xlink="http://www.w3.org/1999/xlink" height="248.8px" width="97.6px" xmlns="http://www.w3.org/2000/svg">
  <g transform="matrix(1.0, 0.0, 0.0, 1.0, 49.1, 124.4)">
    <path d="M7.4 -110.9 Q-30.5 -49.15 -45.6 45.9 -46.75 49.05 -46.9 50.85 -48.45 54.2 -48.5 51.85 L-48.5 51.55 -48.4 50.65 Q-35.95 -62.0 7.4 -110.9 M-45.05 62.6 Q-43.8 76.3 -36.0 91.6 -46.7 83.8 -45.05 62.6" fill="#cb45a1" fill-opacity="0.99607843" fill-rule="evenodd" stroke="none"/>
    <path d="M21.15 -121.8 Q19.5 -118.5 19.35 -112.25 20.05 -103.55 23.0 -98.0 L22.95 -97.75 Q22.6 -95.05 19.3 -98.5 18.25 -99.75 17.35 -102.05 L-17.45 50.25 Q-23.2 31.25 -22.95 38.2 -27.9 67.5 -22.95 92.85 -28.85 66.0 -31.0 73.3 L-25.05 122.95 Q-28.65 121.25 -29.7 116.95 -30.8 102.1 -36.0 91.6 -43.8 76.3 -45.05 62.6 -47.15 55.3 -46.9 50.85 -46.75 49.05 -45.6 45.9 -30.5 -49.15 7.4 -110.9 L10.3 -113.45 10.4 -113.55 Q17.0 -119.3 21.15 -121.8 M14.9 -30.15 Q16.9 -33.6 23.15 -29.7 27.95 -31.15 28.5 -40.05 L31.8 -43.4 Q36.6 -47.85 43.15 -52.3 50.55 -56.75 47.7 -35.35 49.5 -10.35 41.35 5.6 38.55 13.55 33.0 19.3 L32.45 19.9 33.95 7.95 Q36.1 -9.6 30.0 -19.3 29.45 -22.5 27.45 -23.3 25.45 -21.75 24.2 -17.7 22.45 -19.1 22.75 -22.2 22.15 -17.1 20.1 -14.35 L19.6 -15.1 Q19.15 -15.95 18.9 -19.1 18.75 -21.0 17.25 -24.45 L14.65 -29.7 14.9 -30.15" fill="#af3c8b" fill-opacity="0.99607843" fill-rule="evenodd" stroke="none"/>
    <path d="M23.0 -98.0 Q20.05 -103.55 19.35 -112.25 19.5 -118.5 21.15 -121.8 28.25 -126.15 28.25 -121.15 L28.25 -119.15 Q25.6 -120.95 22.95 -115.6 24.0 -107.1 23.0 -98.0 M-25.05 122.95 L-31.0 73.3 Q-28.85 66.0 -22.95 92.85 -27.9 67.5 -22.95 38.2 -23.2 31.25 -17.45 50.25 L17.35 -102.05 Q18.25 -99.75 19.3 -98.5 13.05 -63.1 6.25 -28.85 -5.0 19.8 -9.15 42.65 -12.2 59.65 -11.35 62.4 -13.6 62.1 -13.85 56.8 L-13.85 57.1 Q-15.3 92.75 -16.1 93.4 L-18.0 88.8 Q-20.95 97.05 -20.6 119.15 -20.15 125.75 -25.05 122.95 M24.65 -82.25 Q30.95 -68.4 30.15 -52.05 34.25 -48.2 31.8 -43.4 L28.5 -40.05 Q27.95 -31.15 23.15 -29.7 16.9 -33.6 14.9 -30.15 17.5 -35.65 17.8 -49.2 21.25 -40.25 24.65 -40.65 20.5 -69.15 24.65 -82.25 M32.45 19.9 Q30.05 22.0 28.45 19.95 27.1 11.5 29.35 1.25 22.35 15.8 12.5 25.55 10.05 29.5 9.35 25.55 10.0 15.65 12.95 5.5 5.3 19.35 -1.6 28.2 5.1 17.0 8.45 3.05 14.35 0.45 16.35 -11.4 L17.25 -24.45 Q18.75 -21.0 18.9 -19.1 19.15 -15.95 19.6 -15.1 L20.1 -14.35 Q22.15 -17.1 22.75 -22.2 22.45 -19.1 24.2 -17.7 25.45 -21.75 27.45 -23.3 29.45 -22.5 30.0 -19.3 36.1 -9.6 33.95 7.95 L32.45 19.9" fill="#983378" fill-opacity="0.99607843" fill-rule="evenodd" stroke="none"/>
    <path d="M19.3 -98.5 Q22.6 -95.05 22.95 -97.75 L23.0 -98.0 Q24.0 -107.1 22.95 -115.6 25.6 -120.95 28.25 -119.15 28.2 -113.15 27.55 -105.9 26.7 -95.4 24.65 -82.25 20.5 -69.15 24.65 -40.65 21.25 -40.25 17.8 -49.2 17.5 -35.65 14.9 -30.15 L14.65 -29.7 17.25 -24.45 16.35 -11.4 Q14.35 0.45 8.45 3.05 5.1 17.0 -1.6 28.2 L-9.15 42.65 Q-5.0 19.8 6.25 -28.85 13.05 -63.1 19.3 -98.5 M11.9 -53.05 L11.2 -50.1 9.15 -41.4 6.25 -28.85 9.15 -41.4 11.2 -50.1 11.9 -53.05" fill="#7b2961" fill-opacity="0.99607843" fill-rule="evenodd" stroke="none"/>
    <path d="M21.15 -121.8 Q17.0 -119.3 10.4 -113.55 L10.3 -113.45 7.4 -110.9 Q-35.95 -62.0 -48.4 50.65 L-48.5 51.55 -48.5 51.85 Q-48.45 54.2 -46.9 50.85 -47.15 55.3 -45.05 62.6 -46.7 83.8 -36.0 91.6 -30.8 102.1 -29.7 116.95 -28.65 121.25 -25.05 122.95 -20.15 125.75 -20.6 119.15 -20.95 97.05 -18.0 88.8 L-16.1 93.4 Q-15.3 92.75 -13.85 57.1 L-13.85 56.8 Q-13.6 62.1 -11.35 62.4 -12.2 59.65 -9.15 42.65 L-1.6 28.2 Q5.1 17.0 8.45 3.05 M-45.6 45.9 Q-46.75 49.05 -46.9 50.85 M17.35 -102.05 Q18.25 -99.75 19.3 -98.5 22.6 -95.05 22.95 -97.75 L23.0 -98.0 Q24.0 -107.1 22.95 -115.6 M28.25 -119.15 L28.25 -121.15 Q28.25 -126.15 21.15 -121.8 M24.65 -82.25 Q26.7 -95.4 27.55 -105.9 28.2 -113.15 28.25 -119.15 M6.25 -28.85 L9.15 -41.4 11.2 -50.1 11.9 -53.05 M31.8 -43.4 Q34.25 -48.2 30.15 -52.05 30.95 -68.4 24.65 -82.25 M28.5 -40.05 L31.8 -43.4 Q36.6 -47.85 43.15 -52.3 M41.35 5.6 Q38.55 13.55 33.0 19.3 L32.45 19.9 Q30.05 22.0 28.45 19.95 27.1 11.5 29.35 1.25 22.35 15.8 12.5 25.55 10.05 29.5 9.35 25.55 10.0 15.65 12.95 5.5 5.3 19.35 -1.6 28.2 M14.65 -29.7 L17.25 -24.45 Q18.75 -21.0 18.9 -19.1 19.15 -15.95 19.6 -15.1 L20.1 -14.35 Q22.15 -17.1 22.75 -22.2 22.45 -19.1 24.2 -17.7 25.45 -21.75 27.45 -23.3 29.45 -22.5 30.0 -19.3 M19.3 -98.5 Q13.05 -63.1 6.25 -28.85 -5.0 19.8 -9.15 42.65" fill="none" stroke="#030506" stroke-linecap="round" stroke-linejoin="round" stroke-width="1.2000000000000002"/>
  </g>
</svg>
