<?xml version="1.0" encoding="UTF-8" standalone="no"?>
<svg xmlns:xlink="http://www.w3.org/1999/xlink" height="46.65px" width="68.35px" xmlns="http://www.w3.org/2000/svg">
  <g transform="matrix(1.0, 0.0, 0.0, 1.0, 34.2, 23.3)">
    <path d="M-18.7 18.4 L14.15 -5.65 19.4 -15.95 Q40.7 -4.8 29.9 4.9 20.3 17.05 -4.55 22.75 -11.75 21.15 -18.7 18.4" fill="#374144" fill-rule="evenodd" stroke="none"/>
    <path d="M19.4 -15.95 L14.15 -5.65 -18.7 18.4 Q-26.15 15.45 -33.2 11.25 -8.35 5.0 -1.65 -16.25 3.45 -29.25 19.4 -15.95" fill="#455357" fill-opacity="0.99607843" fill-rule="evenodd" stroke="none"/>
    <path d="M-4.55 22.75 Q20.3 17.05 29.9 4.9 40.7 -4.8 19.4 -15.95 3.45 -29.25 -1.65 -16.25 -8.35 5.0 -33.2 11.25 L-33.6 11.55 M-33.6 11.1 L-33.2 11.25" fill="none" stroke="#070808" stroke-linecap="round" stroke-linejoin="round" stroke-width="1.2000000000000002"/>
  </g>
</svg>
