<?xml version="1.0" encoding="UTF-8" standalone="no"?>
<svg xmlns:xlink="http://www.w3.org/1999/xlink" height="112.95px" width="136.8px" xmlns="http://www.w3.org/2000/svg">
  <g transform="matrix(1.0, 0.0, 0.0, 1.0, 68.15, 56.8)">
    <path d="M68.05 -39.8 L67.55 -32.5 Q3.5 -62.85 -41.0 -38.8 -58.8 -26.2 -67.45 -7.75 -63.7 -34.85 -35.5 -48.65 -21.4 -55.6 -3.5 -56.15 26.85 -57.15 68.05 -39.8" fill="#4c5c63" fill-rule="evenodd" stroke="none"/>
    <path d="M62.35 39.0 L61.1 56.15 Q26.1 48.05 7.05 46.15 -21.2 43.95 -20.65 41.35 L-19.95 40.45 -18.75 38.3 -20.35 38.45 Q-20.7 37.9 -17.25 35.0 -16.05 31.75 -15.75 28.8 20.0 34.9 62.35 39.0 M-5.05 -45.0 L0.6 -45.0 Q1.15 -42.45 -6.25 -35.3 -13.0 -28.85 -17.1 -19.8 -18.05 -17.85 -19.25 -16.3 L-20.8 -15.3 Q-24.05 -14.6 -25.0 -16.65 -25.35 -25.0 -28.35 -28.55 L-32.45 -30.3 Q-33.1 -41.5 -5.05 -45.0 M-22.9 -22.2 L-22.9 -22.05 -22.85 -21.85 -22.7 -21.5 -22.7 -21.45 -22.65 -21.35 -22.65 -21.25 -22.6 -21.15 -22.6 -21.05 -22.55 -20.85 -22.55 -20.75 -22.5 -20.65 -22.5 -20.45 -22.45 -20.3 -22.45 -20.0 -22.5 -19.55 -22.65 -19.1 -22.65 -19.0 -23.05 -18.2 -23.1 -18.15 -23.7 -17.25 -23.75 -17.2 -23.7 -17.05 -23.55 -17.05 -22.75 -17.5 -22.55 -17.65 -22.15 -18.1 -22.1 -18.0 -22.0 -17.7 -21.9 -17.6 -21.85 -17.45 -21.45 -17.05 -21.2 -16.85 -21.15 -16.8 -21.1 -16.8 -21.0 -16.75 -20.95 -16.7 -20.8 -16.75 -20.8 -16.85 -20.85 -16.9 -20.95 -17.1 -21.1 -17.5 -21.2 -17.7 -21.2 -17.8 -21.25 -17.9 -21.25 -18.0 -21.3 -18.1 -21.3 -18.85 -21.25 -18.95 -21.15 -19.45 -20.9 -20.0 -20.8 -20.1 -20.7 -20.35 -20.55 -20.55 -20.4 -20.85 -20.3 -20.95 -19.85 -21.75 -19.8 -21.8 -19.8 -21.85 -19.75 -21.95 -19.7 -22.0 -19.75 -22.15 -19.85 -22.15 -19.9 -22.1 -20.0 -22.1 -20.1 -22.0 -20.55 -21.75 -21.6 -20.65 -21.8 -21.15 -22.05 -21.55 -22.3 -21.85 -22.55 -22.05 -22.6 -22.1 -22.6 -22.15 -22.7 -22.2 -22.75 -22.25 -22.9 -22.2" fill="#374144" fill-rule="evenodd" stroke="none"/>
    <path d="M-67.45 -7.75 Q-58.8 -26.2 -41.0 -38.8 3.5 -62.85 67.55 -32.5 L62.35 39.0 Q20.0 34.9 -15.75 28.8 -15.0 20.3 -18.15 13.5 -23.55 9.6 -30.45 13.3 -32.8 11.35 -32.95 8.6 L-30.05 11.15 Q-32.65 8.15 -32.5 4.75 L-29.95 6.95 Q-32.35 1.1 -29.65 -4.45 L-28.9 -7.55 Q-21.1 -30.65 -67.1 0.55 -67.75 -5.4 -67.45 -7.75 M-5.05 -45.0 Q-33.1 -41.5 -32.45 -30.3 L-28.35 -28.55 Q-25.35 -25.0 -25.0 -16.65 -24.05 -14.6 -20.8 -15.3 L-19.25 -16.3 Q-18.05 -17.85 -17.1 -19.8 -13.0 -28.85 -6.25 -35.3 1.15 -42.45 0.6 -45.0 L-5.05 -45.0" fill="#455357" fill-opacity="0.99607843" fill-rule="evenodd" stroke="none"/>
    <path d="M-22.9 -22.2 L-22.75 -22.25 -22.7 -22.2 -22.6 -22.15 -22.6 -22.1 -22.55 -22.05 -22.3 -21.85 -22.05 -21.55 -21.8 -21.15 -21.6 -20.65 -20.55 -21.75 -20.1 -22.0 -20.0 -22.1 -19.9 -22.1 -19.85 -22.15 -19.75 -22.15 -19.7 -22.0 -19.75 -21.95 -19.8 -21.85 -19.8 -21.8 -19.85 -21.75 -20.3 -20.95 -20.4 -20.85 -20.55 -20.55 -20.7 -20.35 -20.8 -20.1 -20.9 -20.0 -21.15 -19.45 -21.25 -18.95 -21.3 -18.85 -21.3 -18.1 -21.25 -18.0 -21.25 -17.9 -21.2 -17.8 -21.2 -17.7 -21.1 -17.5 -20.95 -17.1 -20.85 -16.9 -20.8 -16.85 -20.8 -16.75 -20.95 -16.7 -21.0 -16.75 -21.1 -16.8 -21.15 -16.8 -21.2 -16.85 -21.45 -17.05 -21.85 -17.45 -21.9 -17.6 -22.0 -17.7 -22.1 -18.0 -22.15 -18.1 -22.55 -17.65 -22.75 -17.5 -23.55 -17.05 -23.7 -17.05 -23.75 -17.2 -23.7 -17.25 -23.1 -18.15 -23.05 -18.2 -22.65 -19.0 -22.65 -19.1 -22.5 -19.55 -22.45 -20.0 -22.45 -20.3 -22.5 -20.45 -22.5 -20.65 -22.55 -20.75 -22.55 -20.85 -22.6 -21.05 -22.6 -21.15 -22.65 -21.25 -22.65 -21.35 -22.7 -21.45 -22.7 -21.5 -22.85 -21.85 -22.9 -22.05 -22.9 -22.2" fill="#070808" fill-rule="evenodd" stroke="none"/>
    <path d="M-20.65 41.35 L-22.7 43.6 -23.5 43.45 -23.6 43.05 Q-22.95 40.6 -24.95 39.8 -27.05 38.95 -27.8 41.6 -28.2 40.35 -28.05 38.8 L-27.4 36.2 Q-33.6 27.25 -34.75 16.25 L-34.2 14.4 Q-33.15 12.05 -30.45 13.3 -23.55 9.6 -18.15 13.5 -15.0 20.3 -15.75 28.8 -16.05 31.75 -17.25 35.0 -20.7 37.9 -20.35 38.45 L-18.75 38.3 -19.95 40.45 -20.65 41.35 M-29.45 17.55 Q-30.2 15.8 -32.05 16.15 -32.7 26.0 -25.05 35.35 -30.1 24.35 -29.45 17.55" fill="#464144" fill-rule="evenodd" stroke="none"/>
    <path d="M-29.45 17.55 Q-30.1 24.35 -25.05 35.35 -32.7 26.0 -32.05 16.15 -30.2 15.8 -29.45 17.55" fill="#3a4144" fill-rule="evenodd" stroke="none"/>
    <path d="M-22.7 43.6 Q-24.6 45.2 -25.75 44.5 -27.3 43.4 -27.8 41.6 -27.05 38.95 -24.95 39.8 -22.95 40.6 -23.6 43.05 L-23.5 43.45 -22.7 43.6 M-28.05 38.8 Q-36.55 25.1 -34.75 16.25 -33.6 27.25 -27.4 36.2 L-28.05 38.8" fill="#584144" fill-rule="evenodd" stroke="none"/>
    <path d="M68.05 -39.8 Q26.85 -57.15 -3.5 -56.15 -21.4 -55.6 -35.5 -48.65 -63.7 -34.85 -67.45 -7.75 -67.75 -5.4 -67.1 0.55 M-15.75 28.8 Q-16.05 31.75 -17.25 35.0 -20.7 37.9 -20.35 38.45 M-18.15 13.5 Q-15.0 20.3 -15.75 28.8" fill="none" stroke="#070808" stroke-linecap="round" stroke-linejoin="round" stroke-width="1.2000000000000002"/>
    <path d="M-20.65 41.35 L-22.7 43.6 Q-24.6 45.2 -25.75 44.5 -27.3 43.4 -27.8 41.6 -28.2 40.35 -28.05 38.8 -36.55 25.1 -34.75 16.25 L-34.2 14.4" fill="none" stroke="#070808" stroke-linecap="round" stroke-linejoin="round" stroke-width="0.8"/>
    <path d="M-20.7 38.75 L-20.85 38.55 Q-21.1 38.1 -20.65 37.9 -20.2 37.65 -19.95 38.1 L-20.0 38.1 -20.0 38.15 -19.85 38.15 -19.75 38.2 -18.75 38.2 -18.65 38.25 -18.7 38.35 -18.75 38.4 -18.95 38.5 -19.15 38.65 -19.3 38.7 -19.45 38.8 -19.55 38.8 -19.65 38.85 -19.95 38.95 -20.35 38.95 -20.45 38.9 -20.5 38.9 -20.6 38.85 -20.65 38.8 -20.65 38.75 -20.7 38.75 M-28.85 17.25 L-28.85 17.3 -28.8 17.4 -28.8 17.9 -28.8 19.25 -28.75 19.35 -27.35 27.3 -25.0 34.8 -24.9 35.25 -24.95 35.45 -25.15 35.4 -25.25 35.2 -25.6 34.7 -26.05 33.9 -28.65 28.15 -30.05 22.7 -30.15 21.9 -30.15 21.55 -30.2 21.15 -30.25 19.4 -30.2 19.25 -30.2 18.7 -30.15 18.5 -30.15 18.25 -30.0 17.6 -30.05 17.55 -30.05 17.5 -30.1 17.45 -30.1 17.35 -30.2 17.2 -30.3 17.0 -30.4 16.9 -30.4 16.85 -30.45 16.8 -30.55 16.75 -30.65 16.65 -30.85 16.55 -30.95 16.45 -31.05 16.45 -31.2 16.4 -31.3 16.35 -31.55 16.35 -31.6 16.3 -32.0 16.3 -32.2 16.2 Q-32.3 15.95 -32.05 15.95 L-31.75 15.85 -31.65 15.85 -31.6 15.8 -30.7 15.8 -30.6 15.85 -30.25 15.95 -30.1 16.05 -29.95 16.1 -29.85 16.15 -29.65 16.35 -29.5 16.45 -29.45 16.5 -29.15 16.05 -28.55 15.45 -28.45 15.4 -27.45 14.7 -26.15 14.1 -25.95 14.05 Q-25.85 13.95 -25.85 14.1 L-25.9 14.2 -26.05 14.35 -26.3 14.45 -27.55 15.35 -27.7 15.55 -28.15 16.0 -28.5 16.5 -28.75 17.0 -28.8 17.15 -28.85 17.2 -28.85 17.25 M-33.8 14.55 L-33.85 14.6 Q-34.0 14.95 -34.4 14.75 -34.7 14.55 -34.55 14.2 L-34.5 14.15 -34.5 14.1 -34.45 14.05 -34.4 13.95 -34.1 13.55 -33.5 13.0 -33.1 12.8 -32.65 12.65 -32.2 12.6 -31.75 12.65 -31.2 12.8 -31.05 12.9 -30.75 13.0 -30.55 13.1 -30.4 13.2 Q-30.25 13.2 -30.35 13.3 -30.35 13.45 -30.45 13.35 L-30.85 13.25 -31.1 13.15 -31.3 13.1 -31.45 13.1 -31.8 13.05 -32.2 13.05 -32.55 13.15 -32.85 13.3 -33.4 13.7 -33.55 13.95 -33.7 14.3 -33.75 14.35 -33.75 14.45 -33.8 14.5 -33.8 14.55 M-21.2 41.25 Q-21.2 40.65 -20.55 40.75 -19.95 40.75 -20.05 41.4 L-20.0 41.4 -20.0 41.45 -19.95 41.5 -19.65 41.7 -18.45 42.2 -16.7 42.7 -7.1 44.3 2.6 45.35 7.05 45.75 7.3 45.9 7.4 46.15 7.3 46.4 7.0 46.5 -7.2 45.3 -14.85 44.25 -18.8 43.3 -20.2 42.75 -20.75 42.4 -21.15 41.9 -21.2 41.75 -21.2 41.6 -21.25 41.45 -21.25 41.35 -21.2 41.25" fill="#070808" fill-rule="evenodd" stroke="none"/>
  </g>
</svg>
