<?xml version="1.0" encoding="UTF-8" standalone="no"?>
<svg xmlns:xlink="http://www.w3.org/1999/xlink" height="18.8px" width="11.1px" xmlns="http://www.w3.org/2000/svg">
  <g transform="matrix(1.0, 0.0, 0.0, 1.0, 30.9, -23.2)">
    <path d="M-25.45 23.6 L-26.95 24.35 -27.2 24.75 Q-26.65 25.25 -26.25 25.15 L-26.85 26.5 -27.25 25.15 -27.9 25.9 -27.9 27.55 -27.7 29.15 -27.15 31.3 -27.3 32.65 Q-27.5 32.65 -27.55 33.0 -27.3 34.3 -26.9 34.6 L-26.75 34.85 -26.7 36.3 -27.3 37.3 -26.7 37.55 -26.65 37.65 -27.65 38.0 Q-27.85 33.7 -28.5 29.35 L-28.8 28.45 -29.9 31.35 Q-30.4 31.7 -30.25 32.5 L-30.3 33.05 -30.65 33.7 -30.9 30.85 -30.2 29.05 Q-29.45 27.35 -29.35 26.65 -29.1 24.15 -28.45 23.2 -27.85 23.45 -27.75 23.95 -26.45 23.25 -25.45 23.6 M-26.1 25.1 L-24.5 24.45 -24.3 24.2 -25.05 23.7 Q-22.35 24.25 -21.55 26.9 L-20.3 31.4 Q-21.3 31.6 -20.95 31.3 -20.65 31.05 -20.95 30.85 L-21.3 31.75 -21.9 30.75 -21.95 29.75 Q-21.95 28.55 -23.85 26.75 -25.5 25.25 -26.1 25.1 M-29.5 33.95 L-29.7 34.55 -30.25 34.8 -29.5 33.95 M-20.25 31.45 L-20.0 32.0 -19.8 33.25 -20.05 35.05 Q-20.3 36.15 -20.65 36.5 L-21.15 35.9 -21.45 34.85 Q-21.35 33.35 -20.95 32.35 L-20.45 32.45 Q-20.2 32.2 -20.25 31.45 M-20.15 35.2 Q-20.0 34.85 -20.15 34.25 -20.3 33.65 -20.6 33.25 L-20.85 33.4 -21.15 35.9 -20.45 35.75 -20.2 35.3 -20.15 35.2 M-22.4 38.95 L-22.9 37.5 Q-21.8 39.4 -21.6 40.75 L-22.4 38.95 M-22.6 41.15 L-22.5 41.15 -22.5 41.2 -22.6 41.15 -24.3 38.55 Q-25.0 37.55 -26.1 37.55 L-25.95 37.3 -25.25 35.5 -22.6 41.15" fill="#ffffff" fill-opacity="0.29803923" fill-rule="evenodd" stroke="none"/>
    <path d="M-26.25 25.15 Q-26.65 25.25 -27.2 24.75 L-26.95 24.35 -25.45 23.6 -25.05 23.7 -24.3 24.2 -24.5 24.45 -26.1 25.1 -26.25 25.15 M-30.25 32.5 Q-30.4 31.7 -29.9 31.35 -29.3 32.35 -29.4 33.5 L-29.45 33.0 -29.85 32.1 -30.25 32.5 M-26.65 37.65 L-26.7 37.55 Q-25.35 36.1 -25.35 35.8 -25.35 32.2 -27.1 28.25 L-27.5 28.9 -27.15 31.3 -27.7 29.15 -27.9 27.55 -27.9 25.9 -27.25 25.15 -26.85 26.5 -22.9 37.5 -22.4 38.95 -22.95 38.35 Q-23.25 38.55 -23.35 38.9 L-22.5 41.15 -22.6 41.15 -25.25 35.5 -25.95 37.3 -26.1 37.55 -26.65 37.65 M-26.9 34.6 Q-27.3 34.3 -27.55 33.0 -27.5 32.65 -27.3 32.65 L-26.9 34.6 M-20.3 31.4 L-20.25 31.45 Q-20.2 32.2 -20.45 32.45 L-20.95 32.35 -21.3 31.75 -20.95 30.85 Q-20.65 31.05 -20.95 31.3 -21.3 31.6 -20.3 31.4 M-21.15 35.9 L-20.85 33.4 -20.6 33.25 Q-20.3 33.65 -20.15 34.25 -20.0 34.85 -20.15 35.2 L-20.55 34.35 -20.8 34.5 -20.2 35.3 -20.45 35.75 -21.15 35.9" fill="#ffffff" fill-opacity="0.49803922" fill-rule="evenodd" stroke="none"/>
    <path d="M-30.65 33.7 L-30.3 33.05 -30.25 32.5 -29.85 32.1 -29.45 33.0 -29.4 33.5 -29.45 33.85 -29.5 33.95 -30.25 34.8 -30.5 34.85 -30.9 34.2 -30.65 33.7 M-26.7 37.55 L-27.3 37.3 -26.7 36.3 -26.75 34.85 -26.9 34.6 -27.3 32.65 -27.15 31.3 -27.5 28.9 -27.1 28.25 Q-25.35 32.2 -25.35 35.8 -25.35 36.1 -26.7 37.55 M-20.15 35.2 L-20.2 35.3 -20.8 34.5 -20.55 34.35 -20.15 35.2 M-22.5 41.15 L-23.35 38.9 Q-23.25 38.55 -22.95 38.35 L-22.4 38.95 -21.6 40.75 -21.55 40.65 -21.55 41.3 Q-21.55 42.3 -21.85 41.9 L-22.5 41.2 -22.5 41.15" fill="#ffffff" fill-opacity="0.69803923" fill-rule="evenodd" stroke="none"/>
  </g>
</svg>
