<?xml version="1.0" encoding="UTF-8" standalone="no"?>
<svg xmlns:xlink="http://www.w3.org/1999/xlink" height="33.15px" width="27.1px" xmlns="http://www.w3.org/2000/svg">
  <g transform="matrix(1.0, 0.0, 0.0, 1.0, 35.2, -12.3)">
    <path d="M-16.7 13.75 L-16.1 13.9 -16.2 13.6 -17.2 13.4 -20.35 13.15 -20.6 13.05 -20.75 12.7 -17.55 12.3 -15.3 14.3 -15.45 14.65 -16.8 14.3 -16.85 14.2 -16.45 14.1 -16.7 13.75 M-24.0 15.7 Q-24.55 16.85 -25.05 17.6 L-26.6 19.55 -26.85 18.5 -27.1 18.05 Q-27.7 18.35 -28.35 19.5 -27.75 18.1 -27.2 18.0 -26.9 17.95 -26.9 16.9 -26.9 16.25 -25.8 15.2 -24.95 14.35 -24.4 14.05 L-24.25 14.05 -24.0 14.15 -24.55 15.6 -24.0 15.7 M-27.3 21.2 Q-27.3 21.55 -27.45 21.8 L-27.9 22.05 -27.95 21.95 -27.3 21.2 M-27.75 22.65 L-25.3 21.2 Q-22.75 19.9 -20.6 19.9 -18.85 19.9 -16.45 21.15 -13.7 22.55 -12.2 24.7 L-13.2 24.1 Q-13.9 23.8 -14.95 22.9 L-15.25 23.05 -15.4 23.0 -15.25 23.1 -15.05 24.0 Q-15.45 23.55 -17.1 22.45 -19.1 21.15 -19.95 21.15 L-21.85 21.1 -22.05 21.0 -23.65 21.95 -26.3 23.4 Q-27.3 23.55 -27.3 23.75 -22.3 23.45 -21.05 27.05 -20.3 29.1 -19.8 33.9 -20.85 33.05 -20.95 33.8 L-20.1 35.4 -20.25 35.95 -20.05 35.45 Q-19.9 35.1 -19.95 35.55 L-19.55 35.8 Q-19.35 36.4 -19.65 36.75 -19.65 37.25 -18.1 39.05 -18.65 38.45 -19.05 38.7 L-19.0 39.65 Q-21.15 37.6 -21.5 32.1 -21.8 27.3 -26.1 25.1 L-26.6 25.9 -27.75 22.65 M-11.6 25.9 Q-10.85 28.75 -11.45 32.5 L-11.7 29.55 Q-11.85 27.8 -12.15 26.8 L-12.0 26.85 Q-11.6 26.65 -11.6 25.9 M-10.3 34.75 L-10.55 35.15 -10.4 34.55 -10.3 34.75 M-11.2 35.75 L-12.35 36.2 -13.0 33.5 -11.2 35.75 M-13.4 27.95 L-13.5 26.85 -14.55 24.7 -14.25 24.85 -13.65 25.85 -13.0 26.7 -13.4 27.95 M-17.7 39.85 L-17.1 40.4 -17.3 40.8 -17.45 40.4 -17.65 40.9 -17.7 39.85 M-17.85 41.0 Q-16.95 41.75 -14.35 42.85 -11.75 43.9 -11.2 44.35 L-10.9 44.8 -12.95 44.9 Q-13.35 44.35 -15.1 43.95 L-15.25 44.1 -15.0 44.6 -17.6 43.75 -17.5 43.4 -16.9 43.9 -16.2 43.75 -16.15 43.45 Q-16.45 42.85 -17.8 42.4 L-18.8 41.25 Q-19.2 40.65 -19.2 40.0 L-19.15 39.5 -19.0 39.65 -18.45 40.35 -17.85 41.0 M-26.25 28.25 L-22.95 36.15 Q-21.3 40.3 -21.05 43.85 L-21.4 42.7 -22.5 39.9 -22.65 39.95 -23.8 37.7 Q-23.55 37.15 -24.05 36.2 -25.8 30.8 -26.4 29.85 L-27.0 28.55 -26.25 28.25 M-21.5 45.0 L-22.0 45.45 -22.5 44.95 -22.75 43.95 -22.6 42.95 -21.5 45.0 M-24.7 38.1 Q-25.2 37.8 -26.4 37.75 L-27.65 38.0 Q-28.05 32.1 -28.5 29.35 -27.35 30.85 -27.45 31.4 -27.55 32.35 -26.55 34.6 L-26.75 34.75 -26.85 35.45 -26.6 36.25 -26.1 36.45 -25.9 36.25 -25.25 36.35 -24.9 36.75 Q-24.6 37.6 -24.7 38.1 M-28.85 28.65 L-29.65 30.7 Q-30.45 30.9 -30.65 33.1 L-30.35 33.15 -30.1 33.75 -29.5 34.0 -29.55 34.55 -29.95 34.75 -30.5 34.85 Q-30.9 34.45 -30.9 32.5 -30.9 31.55 -30.3 30.1 -29.55 28.45 -29.3 26.25 L-28.85 28.65 M-21.45 13.2 L-21.45 13.05 -21.25 13.15 -21.45 13.2 M-34.85 21.05 L-35.0 19.75 -32.85 17.75 Q-31.5 18.7 -31.2 19.3 L-31.25 19.55 -31.05 19.65 -31.65 19.75 Q-32.25 19.75 -32.5 19.45 L-32.85 18.95 -34.0 20.15 Q-33.3 23.5 -33.7 24.35 -33.5 22.85 -34.65 20.95 L-34.85 21.05 M-10.6 42.65 L-8.4 43.55 -8.2 43.9 -8.25 44.1 -9.1 44.3 Q-9.5 44.3 -10.9 42.9 L-10.6 42.65" fill="#ffffff" fill-opacity="0.29803923" fill-rule="evenodd" stroke="none"/>
    <path d="M-17.2 13.4 L-16.2 13.6 -16.1 13.9 -16.7 13.75 -17.2 13.4 M-16.85 14.2 L-16.8 14.3 -17.0 14.35 -16.85 14.2 M-20.6 13.05 L-20.35 13.15 -21.05 13.25 Q-21.0 13.6 -21.3 13.65 L-20.3 14.05 -23.9 15.65 -24.0 15.7 -24.55 15.6 -24.0 14.15 -23.25 13.6 -22.7 13.4 -21.45 13.2 -21.25 13.15 -20.6 13.05 M-16.6 14.8 Q-16.0 15.2 -16.1 15.5 -16.6 14.8 -16.4 15.65 L-16.6 14.8 M-26.6 19.55 L-26.75 20.1 -27.3 21.2 -27.95 21.95 -28.5 20.95 -28.6 21.0 -28.35 19.5 Q-27.7 18.35 -27.1 18.05 L-26.85 18.5 -26.6 19.55 M-12.2 24.7 L-11.6 25.9 Q-11.6 26.65 -12.0 26.85 L-12.15 26.8 -12.6 26.0 -13.0 26.7 -13.65 25.85 -13.1 25.95 -12.95 25.85 Q-12.95 25.25 -14.0 23.85 L-14.2 24.0 -14.25 24.85 -14.55 24.7 -15.05 24.0 -15.25 23.1 Q-14.8 23.3 -14.65 23.6 L-14.55 23.55 -14.95 22.9 Q-13.9 23.8 -13.2 24.1 L-12.2 24.7 M-9.9 34.3 L-8.1 35.25 -8.2 35.45 -8.75 35.8 Q-9.75 35.7 -10.3 34.75 L-10.4 34.55 -10.0 34.45 -10.15 34.6 -9.85 34.55 Q-9.75 34.45 -9.9 34.3 M-10.55 35.2 L-10.45 35.7 -11.2 35.75 -13.0 33.5 -13.45 32.5 -13.6 31.35 -13.5 30.65 -13.4 30.65 Q-13.25 32.9 -12.05 34.35 L-10.65 35.5 -10.55 35.2 M-19.8 33.9 Q-19.55 34.35 -19.45 35.0 -19.35 35.6 -19.55 35.8 L-19.95 35.55 Q-19.9 35.1 -20.05 35.45 L-20.1 35.4 -20.95 33.8 Q-20.85 33.05 -19.8 33.9 M-18.1 39.05 L-18.05 39.1 -17.7 39.85 -17.65 40.9 -17.85 41.0 -18.45 40.35 -19.0 39.65 -19.05 38.7 Q-18.65 38.45 -18.1 39.05 M-12.95 44.9 L-13.0 45.1 -13.55 45.4 -15.0 44.6 -15.25 44.1 -15.1 43.95 Q-13.35 44.35 -12.95 44.9 M-17.5 43.4 L-17.8 42.4 Q-16.45 42.85 -16.15 43.45 L-16.2 43.75 -16.9 43.9 -17.5 43.4 M-26.5 27.3 L-26.3 27.3 Q-25.95 27.7 -26.05 28.05 L-26.25 28.25 -27.0 28.55 -27.25 28.05 Q-26.7 28.05 -26.5 27.3 M-21.05 43.85 L-21.2 44.8 Q-21.35 45.2 -21.5 45.0 L-22.6 42.95 -24.7 38.1 Q-24.6 37.6 -24.9 36.75 L-23.8 37.7 -22.65 39.95 Q-22.9 40.05 -23.0 40.6 L-22.4 42.15 -21.5 43.65 -21.25 43.3 -21.4 42.7 -21.05 43.85 M-29.4 31.85 Q-29.05 33.15 -29.5 34.0 L-30.1 33.75 -30.35 33.15 -29.85 32.65 -29.4 31.85 M-34.5 24.15 L-34.7 24.25 Q-35.2 23.55 -35.2 22.55 -35.0 23.65 -34.5 24.15 M-26.4 29.85 Q-25.8 30.8 -24.05 36.2 -25.2 34.2 -25.3 33.25 -25.5 31.9 -26.4 29.85 M-26.55 34.6 L-25.9 36.25 -26.1 36.45 -26.6 36.25 -26.85 35.45 -26.75 34.75 -26.55 34.6" fill="#ffffff" fill-opacity="0.49803922" fill-rule="evenodd" stroke="none"/>
    <path d="M-16.7 13.75 L-16.45 14.1 -16.85 14.2 -17.0 14.35 -16.6 14.8 -16.4 15.65 -16.5 15.9 -17.4 16.05 -18.8 15.0 -20.3 14.05 -21.3 13.65 Q-21.0 13.6 -21.05 13.25 L-20.35 13.15 -17.2 13.4 -16.7 13.75 M-27.9 22.05 L-27.75 22.65 -26.6 25.9 -26.5 27.3 Q-26.7 28.05 -27.25 28.05 L-27.0 28.55 -26.4 29.85 Q-25.5 31.9 -25.3 33.25 -25.2 34.2 -24.05 36.2 -23.55 37.15 -23.8 37.7 L-24.9 36.75 -25.25 36.35 -25.9 36.25 -26.55 34.6 Q-27.55 32.35 -27.45 31.4 -27.35 30.85 -28.5 29.35 L-28.85 28.65 -29.3 26.25 -28.6 21.0 -28.5 20.95 -27.95 21.95 -27.9 22.05 M-11.45 32.5 L-9.9 34.3 Q-9.75 34.45 -9.85 34.55 L-10.15 34.6 -10.0 34.45 -10.4 34.55 -10.55 35.15 -10.55 35.2 -10.65 35.5 -12.05 34.35 Q-13.25 32.9 -13.4 30.65 L-13.4 27.95 -13.0 26.7 -12.6 26.0 -12.15 26.8 Q-11.85 27.8 -11.7 29.55 L-11.45 32.5 M-29.65 30.7 L-29.4 31.85 -29.85 32.65 -30.35 33.15 -30.65 33.1 Q-30.45 30.9 -29.65 30.7 M-15.25 23.1 L-15.4 23.0 -15.25 23.05 -14.95 22.9 -14.55 23.55 -14.65 23.6 Q-14.8 23.3 -15.25 23.1 M-14.25 24.85 L-14.2 24.0 -14.0 23.85 Q-12.95 25.25 -12.95 25.85 L-13.1 25.95 -13.65 25.85 -14.25 24.85 M-33.7 24.35 L-34.5 24.15 Q-35.0 23.65 -35.2 22.55 -35.2 21.5 -34.85 21.05 L-34.65 20.95 Q-33.5 22.85 -33.7 24.35 M-22.65 39.95 L-22.5 39.9 -21.4 42.7 -21.25 43.3 -21.5 43.65 -22.4 42.15 -23.0 40.6 Q-22.9 40.05 -22.65 39.95" fill="#ffffff" fill-opacity="0.69803923" fill-rule="evenodd" stroke="none"/>
  </g>
</svg>
