<?xml version="1.0" encoding="UTF-8" standalone="no"?>
<svg xmlns:xlink="http://www.w3.org/1999/xlink" height="135.1px" width="50.0px" xmlns="http://www.w3.org/2000/svg">
  <g transform="matrix(1.0, 0.0, 0.0, 1.0, 25.0, 67.55)">
    <path d="M0.0 -65.35 L24.4 -66.95 Q22.7 -30.95 13.65 -10.55 12.75 -7.8 12.2 -5.2 8.1 8.75 8.65 16.85 L9.95 50.8 10.0 50.95 Q14.55 49.8 19.9 54.65 27.2 63.3 21.4 65.75 18.3 67.1 10.55 66.9 2.65 66.7 0.55 65.4 L-2.7 63.2 Q-5.5 61.75 -6.65 58.25 7.4 55.7 0.45 45.4 -8.35 10.9 -6.4 -2.25 0.7 -39.3 0.0 -65.35" fill="#374144" fill-rule="evenodd" stroke="none"/>
    <path d="M-6.65 58.25 L-8.05 53.95 -14.05 29.05 Q-23.15 9.05 -18.85 -5.2 -19.55 -17.25 -18.6 -34.6 -17.7 -51.95 -24.4 -63.75 L0.0 -65.35 Q0.7 -39.3 -6.4 -2.25 -8.35 10.9 0.45 45.4 7.4 55.7 -6.65 58.25" fill="#455357" fill-opacity="0.99607843" fill-rule="evenodd" stroke="none"/>
    <path d="M24.4 -66.95 Q22.7 -30.95 13.65 -10.55 12.75 -7.8 12.2 -5.2 8.1 8.75 8.65 16.85 L9.95 50.8 10.0 50.95 Q14.55 49.8 19.9 54.65 27.2 63.3 21.4 65.75 18.3 67.1 10.55 66.9 2.65 66.7 0.55 65.4 L-2.7 63.2 Q-5.5 61.75 -6.65 58.25 L-8.05 53.95 -14.05 29.05 Q-23.15 9.05 -18.85 -5.2 -19.55 -17.25 -18.6 -34.6 -17.7 -51.95 -24.4 -63.75" fill="none" stroke="#070808" stroke-linecap="round" stroke-linejoin="round" stroke-width="1.2000000000000002"/>
    <path d="M9.4 50.7 Q9.5 50.15 10.1 50.25 10.35 50.3 10.5 50.5 L10.55 50.95 10.55 51.15 10.5 51.2 10.5 51.3 10.45 51.5 10.45 51.8 10.4 51.9 10.4 52.55 10.45 52.7 10.45 52.85 10.6 53.3 10.65 53.4 10.75 53.55 10.75 53.6 11.05 53.9 11.15 54.05 11.25 54.15 11.3 54.15 11.3 54.25 11.2 54.3 11.0 54.25 10.5 53.9 10.45 53.85 10.4 53.85 10.4 53.8 10.25 53.7 9.95 53.25 9.85 53.05 9.75 52.9 9.7 52.7 9.65 52.6 9.65 52.5 9.55 52.35 9.55 52.15 9.5 52.0 9.4 51.5 9.4 50.7" fill="#070808" fill-rule="evenodd" stroke="none"/>
  </g>
</svg>
