<?xml version="1.0" encoding="UTF-8" standalone="no"?>
<svg xmlns:xlink="http://www.w3.org/1999/xlink" height="47.65px" width="55.25px" xmlns="http://www.w3.org/2000/svg">
  <g transform="matrix(1.0, 0.0, 0.0, 1.0, 27.65, 23.75)">
    <path d="M7.25 -21.1 Q20.1 -17.15 27.0 -6.0 25.0 -1.4 15.7 0.4 6.65 3.05 -5.35 20.85 -9.85 28.65 -15.5 11.5 -13.6 9.3 -13.25 5.55 -11.25 -0.05 -3.85 -12.3 2.8 -15.8 7.25 -21.1" fill="#374144" fill-rule="evenodd" stroke="none"/>
    <path d="M-15.5 11.5 Q-31.0 7.5 -25.7 2.15 -15.95 -8.95 -12.4 -23.15 -1.25 -23.7 7.25 -21.1 2.8 -15.8 -3.85 -12.3 -6.95 -10.6 -10.25 -3.5 -13.1 2.65 -13.3 5.55 L-13.25 5.55 Q-13.6 9.3 -15.5 11.5" fill="#455357" fill-opacity="0.99607843" fill-rule="evenodd" stroke="none"/>
    <path d="M-3.85 -12.3 Q-11.25 -0.05 -13.25 5.55 L-13.3 5.55 Q-13.1 2.65 -10.25 -3.5 -6.95 -10.6 -3.85 -12.3" fill="#070808" fill-rule="evenodd" stroke="none"/>
    <path d="M27.0 -6.0 Q25.0 -1.4 15.7 0.4 6.65 3.05 -5.35 20.85 -9.85 28.65 -15.5 11.5 -31.0 7.5 -25.7 2.15 -15.95 -8.95 -12.4 -23.15" fill="none" stroke="#070808" stroke-linecap="round" stroke-linejoin="round" stroke-width="1.2000000000000002"/>
  </g>
</svg>
