<?xml version="1.0" encoding="UTF-8" standalone="no"?>
<svg xmlns:xlink="http://www.w3.org/1999/xlink" height="73.6px" width="89.85px" xmlns="http://www.w3.org/2000/svg">
  <g transform="matrix(1.0, 0.0, 0.0, 1.0, 44.9, 36.8)">
    <path d="M-3.9 -36.2 Q4.25 -27.9 15.3 -19.1 L24.65 -10.75 32.6 -3.0 Q49.05 11.85 42.5 33.05 41.75 35.35 39.55 35.2 37.05 34.95 33.7 33.2 34.7 29.65 32.85 25.6 31.75 22.7 30.75 22.15 28.25 14.2 23.4 8.65 L17.85 3.1 Q-0.15 -14.7 -19.15 -30.85 L-3.9 -36.2" fill="#374144" fill-rule="evenodd" stroke="none"/>
    <path d="M24.05 25.1 Q22.65 22.45 21.6 19.85 24.5 20.15 26.7 18.9 28.1 17.95 26.7 16.35 23.5 14.95 20.3 15.9 19.2 11.45 15.4 8.0 13.5 6.35 10.95 4.9 L-4.1 -2.0 Q-35.4 -14.3 -42.4 -21.2 L-42.7 -21.5 Q-44.95 -23.65 -44.8 -25.25 L-19.15 -30.85 Q-0.15 -14.7 17.85 3.1 L23.4 8.65 Q28.25 14.2 30.75 22.15 29.8 21.6 29.0 23.0 28.45 23.55 28.25 24.35 25.3 22.35 24.05 25.1" fill="#455357" fill-opacity="0.99607843" fill-rule="evenodd" stroke="none"/>
    <path d="M39.55 35.2 Q35.8 38.25 28.7 32.15 24.55 31.55 24.05 25.1 25.3 22.35 28.25 24.35 28.45 23.55 29.0 23.0 29.8 21.6 30.75 22.15 31.75 22.7 32.85 25.6 34.7 29.65 33.7 33.2 32.55 33.45 31.2 32.15 L30.45 31.35 28.95 28.05 Q27.95 25.75 28.25 24.35 27.95 25.75 28.95 28.05 L30.45 31.35 31.2 32.15 Q32.55 33.45 33.7 33.2 37.05 34.95 39.55 35.2 M21.6 19.85 Q19.4 18.9 20.3 15.9 23.5 14.95 26.7 16.35 28.1 17.95 26.7 18.9 24.5 20.15 21.6 19.85 M28.7 32.15 L31.2 32.15 28.7 32.15" fill="#6d4144" fill-rule="evenodd" stroke="none"/>
    <path d="M-3.9 -36.2 Q4.25 -27.9 15.3 -19.1 L24.65 -10.75 32.6 -3.0 Q49.05 11.85 42.5 33.05 41.75 35.35 39.55 35.2 35.8 38.25 28.7 32.15 24.55 31.55 24.05 25.1 22.65 22.45 21.6 19.85 19.4 18.9 20.3 15.9 19.2 11.45 15.4 8.0 13.5 6.35 10.95 4.9 L-4.1 -2.0 Q-35.4 -14.3 -42.4 -21.2 M30.75 22.15 Q29.8 21.6 29.0 23.0 28.45 23.55 28.25 24.35 27.95 25.75 28.95 28.05 L30.45 31.35 31.2 32.15 Q32.55 33.45 33.7 33.2 34.7 29.65 32.85 25.6 31.75 22.7 30.75 22.15 M21.6 19.85 Q24.5 20.15 26.7 18.9 28.1 17.95 26.7 16.35 23.5 14.95 20.3 15.9 M39.55 35.2 Q37.05 34.95 33.7 33.2 M31.2 32.15 L28.7 32.15 M28.25 24.35 Q25.3 22.35 24.05 25.1" fill="none" stroke="#070808" stroke-linecap="round" stroke-linejoin="round" stroke-width="1.2000000000000002"/>
    <path d="M-44.85 -25.25 L-44.8 -25.3 -44.7 -25.2 -44.65 -25.05 -44.65 -24.85 -44.6 -24.7 -44.6 -24.65 -44.5 -24.45 -44.45 -24.3 -44.35 -24.1 -44.3 -24.05 -44.3 -23.95 -44.2 -23.8 -44.05 -23.65 -43.85 -23.35 -43.55 -23.05 -43.45 -22.9 -43.3 -22.8 -42.8 -22.3 -42.55 -22.15 -42.4 -22.0 -42.25 -21.9 -42.15 -21.8 Q-41.75 -21.35 -42.25 -20.95 -42.7 -20.55 -43.1 -21.05 L-43.2 -21.2 -43.35 -21.35 -44.0 -22.2 -44.2 -22.6 -44.3 -22.75 -44.7 -23.55 -44.75 -23.75 -44.8 -23.85 -44.8 -23.95 -44.9 -24.35 -44.9 -25.05 -44.85 -25.25" fill="#070808" fill-rule="evenodd" stroke="none"/>
  </g>
</svg>
