<?xml version="1.0" encoding="UTF-8" standalone="no"?>
<svg xmlns:xlink="http://www.w3.org/1999/xlink" height="149.0px" width="59.95px" xmlns="http://www.w3.org/2000/svg">
  <g transform="matrix(1.0, 0.0, 0.0, 1.0, 30.0, 74.5)">
    <path d="M7.15 -19.0 L14.9 -0.6 Q-10.2 -0.45 -19.5 19.0 -23.5 8.8 -25.9 -1.55 -14.75 -17.5 7.15 -19.0" fill="#e8cd8a" fill-rule="evenodd" stroke="none"/>
    <path d="M11.1 -19.2 Q15.7 -9.85 19.0 -0.5 L14.9 -0.6 7.15 -19.0 11.1 -19.2" fill="#e7c576" fill-rule="evenodd" stroke="none"/>
    <path d="M11.1 -19.2 L7.15 -19.0 Q0.45 -37.3 -8.6 -53.2 3.05 -36.15 11.1 -19.2 M14.9 -0.6 L19.0 -0.5 Q32.7 37.1 28.3 73.65 L14.5 73.9 7.2 62.25 Q1.6 49.05 3.85 35.85 6.95 43.25 10.05 42.05 12.05 32.45 8.6 18.45 L15.1 25.25 12.7 4.3 17.75 15.5 Q20.35 10.4 14.9 -0.6" fill="#374144" fill-rule="evenodd" stroke="none"/>
    <path d="M-27.8 -11.75 Q-31.05 -33.15 -27.7 -55.6 -29.1 -60.3 -27.15 -58.9 -28.2 -68.75 -26.25 -63.95 L-23.95 -73.9 -21.15 -70.4 Q-19.15 -57.35 -22.1 -31.15 L-25.65 -37.95 Q-24.55 -22.2 -27.8 -11.75" fill="#4c5c63" fill-rule="evenodd" stroke="none"/>
    <path d="M7.2 62.25 Q0.9 52.55 -6.0 43.35 -14.35 31.95 -19.5 19.0 -10.2 -0.45 14.9 -0.6 20.35 10.4 17.75 15.5 L12.7 4.3 15.1 25.25 8.6 18.45 Q12.05 32.45 10.05 42.05 6.95 43.25 3.85 35.85 1.6 49.05 7.2 62.25 M-25.9 -1.55 Q-27.05 -6.65 -27.8 -11.75 -24.55 -22.2 -25.65 -37.95 L-22.1 -31.15 Q-19.15 -57.35 -21.15 -70.4 L-16.75 -64.65 Q-16.65 -69.5 -13.8 -60.65 L-8.6 -53.2 Q0.45 -37.3 7.15 -19.0 -14.75 -17.5 -25.9 -1.55" fill="#455357" fill-opacity="0.99607843" fill-rule="evenodd" stroke="none"/>
    <path d="M19.0 -0.5 Q15.7 -9.85 11.1 -19.2 L7.15 -19.0 Q-14.75 -17.5 -25.9 -1.55 -27.05 -6.65 -27.8 -11.75 -31.05 -33.15 -27.7 -55.6 -29.1 -60.3 -27.15 -58.9 -28.2 -68.75 -26.25 -63.95 L-23.95 -73.9 -21.15 -70.4 -16.75 -64.65 Q-16.65 -69.5 -13.8 -60.65 L-8.6 -53.2 Q3.05 -36.15 11.1 -19.2 M14.9 -0.6 L19.0 -0.5 Q32.7 37.1 28.3 73.65 M14.5 73.9 L7.2 62.25 Q0.9 52.55 -6.0 43.35 -14.35 31.95 -19.5 19.0 -23.5 8.8 -25.9 -1.55 M14.9 -0.6 Q-10.2 -0.45 -19.5 19.0" fill="none" stroke="#070808" stroke-linecap="round" stroke-linejoin="round" stroke-width="1.2000000000000002"/>
  </g>
</svg>
