<?xml version="1.0" encoding="UTF-8" standalone="no"?>
<svg xmlns:xlink="http://www.w3.org/1999/xlink" height="19.4px" width="21.4px" xmlns="http://www.w3.org/2000/svg">
  <g transform="matrix(1.0, 0.0, 0.0, 1.0, 12.5, 9.7)">
    <path d="M2.0 0.0 Q2.0 4.0 0.4 6.85 -1.25 9.7 -3.55 9.7 -5.85 9.7 -7.45 6.85 -9.1 4.0 -9.1 0.0 -9.1 -4.0 -7.45 -6.85 -5.85 -9.7 -3.55 -9.7 -1.25 -9.7 0.4 -6.85 2.0 -4.0 2.0 0.0" fill="#070808" fill-rule="evenodd" stroke="none"/>
    <path d="M-2.7 -6.2 Q-2.7 -4.85 -4.1 -3.85 -5.55 -2.8 -7.6 -2.8 -9.6 -2.8 -11.05 -3.85 -12.5 -4.85 -12.5 -6.2 -12.5 -7.6 -11.05 -8.65 -9.6 -9.6 -7.6 -9.6 -5.55 -9.6 -4.1 -8.65 -2.7 -7.6 -2.7 -6.2" fill="url(#gradient0)" fill-rule="evenodd" stroke="none"/>
    <path d="M8.9 7.2 Q8.95 7.7 8.0 8.1 L5.45 8.85 Q3.95 9.05 2.85 8.85 1.75 8.7 1.7 8.2 1.65 7.75 2.65 7.25 L5.15 6.6 7.8 6.5 Q8.85 6.75 8.9 7.2" fill="url(#gradient1)" fill-rule="evenodd" stroke="none"/>
  </g>
  <defs>
    <radialGradient cx="0" cy="0" gradientTransform="matrix(0.0, -0.0043, 0.006, 0.0, -7.6, -6.2)" gradientUnits="userSpaceOnUse" id="gradient0" r="819.2" spreadMethod="pad">
      <stop offset="0.40784313725490196" stop-color="#ffffff"/>
      <stop offset="0.7490196078431373" stop-color="#e9e9e9"/>
      <stop offset="1.0" stop-color="#dbdbdb" stop-opacity="0.2509804"/>
    </radialGradient>
    <radialGradient cx="0" cy="0" gradientTransform="matrix(-2.0E-4, -0.0014, 0.0044, -6.0E-4, 5.3, 7.7)" gradientUnits="userSpaceOnUse" id="gradient1" r="819.2" spreadMethod="pad">
      <stop offset="0.40784313725490196" stop-color="#ffffff"/>
      <stop offset="0.7490196078431373" stop-color="#e9e9e9"/>
      <stop offset="1.0" stop-color="#dbdbdb" stop-opacity="0.2509804"/>
    </radialGradient>
  </defs>
</svg>
