<?xml version="1.0" encoding="UTF-8" standalone="no"?>
<svg xmlns:xlink="http://www.w3.org/1999/xlink" height="20.65px" width="76.5px" xmlns="http://www.w3.org/2000/svg">
  <g transform="matrix(1.0, 0.0, 0.0, 1.0, 38.25, 10.3)">
    <path d="M19.6 -5.8 L19.15 -5.35 Q18.75 -4.7 18.8 -3.45 20.75 5.6 33.2 4.95 33.45 7.6 32.4 8.85 L32.05 9.2 31.4 9.6 9.55 8.95 Q-26.45 4.75 -37.65 -3.35 L19.6 -5.8" fill="#374144" fill-rule="evenodd" stroke="none"/>
    <path d="M33.2 4.95 Q20.75 5.6 18.8 -3.45 18.75 -4.7 19.15 -5.35 L19.6 -5.8 20.0 -5.95 25.05 -7.0 30.75 -0.3 Q32.9 2.2 33.2 4.95" fill="url(#gradient0)" fill-rule="evenodd" stroke="none"/>
    <path d="M30.75 -0.3 L25.05 -7.0 29.0 -7.85 30.7 -5.95 32.15 -8.55 35.15 -9.35 35.45 -9.0 37.65 -9.7 Q32.55 -6.1 30.75 -0.3" fill="#66222c" fill-rule="evenodd" stroke="none"/>
    <path d="M32.15 -8.55 L30.7 -5.95 29.0 -7.85 32.15 -8.55" fill="#ffffff" fill-rule="evenodd" stroke="none"/>
    <path d="M33.2 4.95 Q20.75 5.6 18.8 -3.45 18.75 -4.7 19.15 -5.35 L19.6 -5.8 M-37.65 -3.35 Q-26.45 4.75 9.55 8.95 L31.4 9.6 32.05 9.2 32.4 8.85 Q33.45 7.6 33.2 4.95 32.9 2.2 30.75 -0.3 L25.05 -7.0 M30.75 -0.3 Q32.55 -6.1 37.65 -9.7" fill="none" stroke="#070808" stroke-linecap="round" stroke-linejoin="round" stroke-width="1.2000000000000002"/>
  </g>
  <defs>
    <linearGradient gradientTransform="matrix(0.0062, 0.0062, -0.0052, 0.0052, 26.0, -1.0)" gradientUnits="userSpaceOnUse" id="gradient0" spreadMethod="pad" x1="-819.2" x2="819.2">
      <stop offset="0.0" stop-color="#793b44"/>
      <stop offset="0.40784313725490196" stop-color="#b75b68"/>
      <stop offset="1.0" stop-color="#e06f7f"/>
    </linearGradient>
  </defs>
</svg>
