<?xml version="1.0" encoding="UTF-8" standalone="no"?>
<svg xmlns:xlink="http://www.w3.org/1999/xlink" height="73.15px" width="161.35px" xmlns="http://www.w3.org/2000/svg">
  <g transform="matrix(1.0, 0.0, 0.0, 1.0, 81.0, 37.55)">
    <path d="M-38.0 4.7 Q-54.9 -6.35 -69.3 -21.55 -81.15 -29.9 -73.15 -26.55 -76.85 -30.9 -80.4 -35.6 L-77.3 -35.6 -77.25 -36.4 Q-81.7 -37.9 -68.85 -35.4 -68.05 -35.45 -69.05 -36.8 L-49.85 -29.25 Q-56.6 -27.0 -63.4 -27.8 -56.8 -24.0 -49.0 -13.7 L-57.9 -16.9 -38.0 4.7" fill="#4c5c63" fill-rule="evenodd" stroke="none"/>
    <path d="M-69.05 -36.8 Q-63.85 -35.3 -62.0 -35.2 -63.85 -37.6 -56.05 -34.85 -32.25 -33.35 -11.35 -28.5 -27.65 -7.55 -21.2 14.15 -29.9 9.95 -38.0 4.7 L-57.9 -16.9 -49.0 -13.7 Q-56.8 -24.0 -63.4 -27.8 -56.6 -27.0 -49.85 -29.25 L-69.05 -36.8 M9.6 -22.65 Q44.6 -10.95 69.95 11.6 L70.0 11.6 70.8 12.35 72.25 13.65 77.7 18.95 72.0 26.45 Q71.15 24.55 38.85 19.7 L48.05 23.7 Q30.65 24.45 13.8 20.25 L25.8 24.55 5.05 23.85 0.2 22.5 Q-10.65 0.15 9.6 -22.65" fill="#455357" fill-opacity="0.99607843" fill-rule="evenodd" stroke="none"/>
    <path d="M-11.35 -28.5 Q-0.45 -26.1 9.6 -22.65 -10.65 0.15 0.2 22.5 -10.95 19.05 -21.2 14.15 -27.65 -7.55 -11.35 -28.5" fill="#e8cd8a" fill-rule="evenodd" stroke="none"/>
    <path d="M72.0 26.45 Q76.6 27.4 80.35 35.6 65.1 35.4 59.3 29.5 L29.6 27.4 Q17.05 26.95 5.05 23.85 L25.8 24.55 13.8 20.25 Q30.65 24.45 48.05 23.7 L38.85 19.7 Q71.15 24.55 72.0 26.45" fill="#374144" fill-rule="evenodd" stroke="none"/>
    <path d="M-38.0 4.7 Q-54.9 -6.35 -69.3 -21.55 -81.15 -29.9 -73.15 -26.55 -76.85 -30.9 -80.4 -35.6 L-77.3 -35.6 -77.25 -36.4 Q-81.7 -37.9 -68.85 -35.4 -68.05 -35.45 -69.05 -36.8 -63.85 -35.3 -62.0 -35.2 -63.85 -37.6 -56.05 -34.85 -32.25 -33.35 -11.35 -28.5 -0.45 -26.1 9.6 -22.65 44.6 -10.95 69.95 11.6 M59.3 29.5 L29.6 27.4 Q17.05 26.95 5.05 23.85 L0.2 22.5 Q-10.95 19.05 -21.2 14.15 -29.9 9.95 -38.0 4.7 M-11.35 -28.5 Q-27.65 -7.55 -21.2 14.15 M9.6 -22.65 Q-10.65 0.15 0.2 22.5" fill="none" stroke="#070808" stroke-linecap="round" stroke-linejoin="round" stroke-width="1.2000000000000002"/>
    <path d="M68.75 30.55 L68.8 30.65 68.7 30.7 59.2 30.05 59.15 30.05 Q58.55 29.95 58.65 29.4 58.75 28.8 59.35 28.9 L68.75 30.55 M77.75 18.85 L77.75 19.0 77.6 19.0 72.0 14.0 71.95 14.0 71.9 13.95 71.8 13.9 70.55 12.85 70.45 12.75 70.4 12.75 70.3 12.65 69.6 12.05 69.55 12.0 Q69.15 11.6 69.5 11.15 L70.35 11.1 71.15 11.9 71.15 11.95 71.3 12.05 72.1 12.9 72.45 13.2 77.75 18.85" fill="#070808" fill-rule="evenodd" stroke="none"/>
  </g>
</svg>
