<?xml version="1.0" encoding="UTF-8" standalone="no"?>
<svg xmlns:xlink="http://www.w3.org/1999/xlink" height="27.85px" width="38.4px" xmlns="http://www.w3.org/2000/svg">
  <g transform="matrix(1.0, 0.0, 0.0, 1.0, 18.9, 10.2)">
    <path d="M-9.1 -9.55 Q-4.65 -8.9 1.85 -6.85 4.6 -6.0 8.15 -3.65 18.55 3.15 18.9 10.2 12.2 18.4 -1.0 16.75 4.35 -2.6 1.45 -4.95 0.6 -6.95 -8.55 -9.45 L-9.1 -9.55" fill="#374144" fill-rule="evenodd" stroke="none"/>
    <path d="M-9.1 -9.55 L-8.55 -9.45 Q0.6 -6.95 1.45 -4.95 4.35 -2.6 -1.0 16.75 -15.55 12.5 -17.95 -2.55 -19.8 -6.8 -17.95 -8.6 -16.15 -11.15 -9.3 -9.6 L-9.1 -9.55" fill="#455357" fill-opacity="0.99607843" fill-rule="evenodd" stroke="none"/>
    <path d="M-1.0 16.75 Q12.2 18.4 18.9 10.2 M-17.95 -2.55 Q-15.55 12.5 -1.0 16.75 Z" fill="none" stroke="#070808" stroke-linecap="round" stroke-linejoin="round" stroke-width="1.2000000000000002"/>
  </g>
</svg>
