<?xml version="1.0" encoding="UTF-8" standalone="no"?>
<svg xmlns:xlink="http://www.w3.org/1999/xlink" height="87.4px" width="137.8px" xmlns="http://www.w3.org/2000/svg">
  <g transform="matrix(1.0, 0.0, 0.0, 1.0, 104.0, 30.05)">
    <path d="M-93.3 -16.5 Q-89.35 -28.8 -82.3 -29.4 L-82.25 -29.4 Q-78.3 -29.7 -73.3 -26.35 L-72.35 -25.7 Q-69.05 -23.25 -66.45 -20.25 L-63.5 -16.4 Q-57.35 -7.1 -56.4 6.55 -59.0 16.95 -65.75 18.45 -71.6 19.75 -80.75 14.2 -97.15 0.9 -93.35 -16.45 L-93.3 -16.5 M-83.0 -17.4 Q-83.4 -0.65 -73.3 5.9 -69.05 9.15 -66.75 8.2 -64.45 7.25 -64.1 1.95 -65.0 -7.95 -73.7 -17.15 L-76.6 -19.9 -76.65 -19.9 Q-81.75 -23.8 -83.0 -17.4" fill="#e8cd8a" fill-rule="evenodd" stroke="none"/>
    <path d="M-97.1 -12.8 L-93.3 -16.5 -93.35 -16.45 Q-97.15 0.9 -80.75 14.2 -71.6 19.75 -65.75 18.45 -59.0 16.95 -56.4 6.55 -57.35 -7.1 -63.5 -16.4 -54.5 -4.5 -49.8 3.0 L-40.2 17.8 Q-17.5 33.05 9.6 44.15 13.2 55.2 -4.25 54.4 -7.3 52.9 -10.35 50.4 -33.25 46.7 -42.55 43.65 -51.9 40.5 -57.7 37.1 -58.65 36.5 -59.95 35.8 L-58.8 34.95 Q-96.1 7.55 -97.1 -12.8 M-83.0 -17.4 Q-81.75 -23.8 -76.65 -19.9 L-76.6 -19.9 -73.7 -17.15 Q-65.0 -7.95 -64.1 1.95 -64.45 7.25 -66.75 8.2 -69.05 9.15 -73.3 5.9 -83.4 -0.65 -83.0 -17.4" fill="#455357" fill-opacity="0.99607843" fill-rule="evenodd" stroke="none"/>
    <path d="M-97.25 8.65 Q-101.25 4.0 -103.8 -1.1 -101.2 -8.2 -97.1 -12.8 -96.1 7.55 -58.8 34.95 L-60.35 35.8 Q-66.35 31.35 -80.6 22.55 -90.85 16.2 -97.25 8.65 M-66.45 -20.25 Q-68.4 -22.75 -71.6 -25.2 -66.05 -22.4 -57.15 -15.0 -55.1 -13.45 -48.4 -6.5 -41.75 0.4 -35.15 9.35 L-32.55 14.05 -6.0 32.65 Q4.75 40.25 12.1 39.75 L12.15 39.75 Q20.2 38.15 26.65 41.1 37.2 47.15 30.8 50.5 24.45 53.85 15.0 55.5 L9.85 56.3 Q2.7 57.8 -4.25 54.4 13.2 55.2 9.6 44.15 -17.5 33.05 -40.2 17.8 L-49.8 3.0 Q-54.5 -4.5 -63.5 -16.4 L-66.45 -20.25 M-33.45 13.45 L-33.55 13.4 -33.75 13.15 -33.55 13.4 -33.45 13.45 -32.55 14.05 -33.45 13.45 M16.95 40.85 L13.8 40.95 13.75 41.0 12.1 39.9 12.1 39.75 12.1 39.9 13.75 41.0 13.8 40.95 16.95 40.85" fill="#374144" fill-rule="evenodd" stroke="none"/>
    <path d="M-93.3 -16.5 Q-89.35 -28.8 -82.3 -29.4 L-82.25 -29.4 Q-78.3 -29.7 -73.3 -26.35 L-72.35 -25.7 Q-69.05 -23.25 -66.45 -20.25 L-63.5 -16.4 Q-57.35 -7.1 -56.4 6.55 -59.0 16.95 -65.75 18.45 -71.6 19.75 -80.75 14.2 -97.15 0.9 -93.35 -16.45 L-93.3 -16.5 M-71.6 -25.2 Q-66.05 -22.4 -57.15 -15.0 -55.1 -13.45 -48.4 -6.5 -41.75 0.4 -35.15 9.35 L-32.55 14.05 M12.15 39.75 Q20.2 38.15 26.65 41.1 37.2 47.15 30.8 50.5 24.45 53.85 15.0 55.5 L9.85 56.3 M-42.55 43.65 Q-51.9 40.5 -57.7 37.1 -58.65 36.5 -59.95 35.8 M-60.35 35.8 Q-66.35 31.35 -80.6 22.55 -90.85 16.2 -97.25 8.65 M-83.0 -17.4 Q-83.4 -0.65 -73.3 5.9 -69.05 9.15 -66.75 8.2 -64.45 7.25 -64.1 1.95 -65.0 -7.95 -73.7 -17.15 L-76.6 -19.9 -76.65 -19.9 Q-81.75 -23.8 -83.0 -17.4 M-33.75 13.15 L-33.55 13.4 -33.45 13.45 M12.1 39.75 L12.1 39.9 13.75 41.0 13.8 40.95 16.95 40.85" fill="none" stroke="#070808" stroke-linecap="round" stroke-linejoin="round" stroke-width="1.2000000000000002"/>
    <path d="M-32.55 14.05 L-6.0 32.65 Q4.75 40.25 12.1 39.75 L12.15 39.75 M9.85 56.3 Q2.7 57.8 -4.25 54.4 -7.3 52.9 -10.35 50.4 -33.25 46.7 -42.55 43.65 M-33.45 13.45 L-32.55 14.05" fill="none" stroke="#070808" stroke-linecap="round" stroke-linejoin="miter-clip" stroke-miterlimit="6.0" stroke-width="1.2000000000000002"/>
    <path d="M-103.95 -1.0 L-103.85 -1.25 -103.6 -1.15 -101.4 2.4 -97.5 7.45 -96.75 8.25 Q-96.4 8.75 -96.85 9.1 -97.3 9.45 -97.7 9.0 L-99.1 7.2 -101.45 3.7 -101.55 3.45 -101.7 3.25 -103.5 0.0 -103.95 -1.0" fill="#070808" fill-rule="evenodd" stroke="none"/>
  </g>
</svg>
