<?xml version="1.0" encoding="UTF-8" standalone="no"?>
<svg xmlns:xlink="http://www.w3.org/1999/xlink" height="118.3px" width="143.75px" xmlns="http://www.w3.org/2000/svg">
  <g transform="matrix(1.0, 0.0, 0.0, 1.0, 80.45, 59.15)">
    <path d="M-29.85 -42.5 Q-13.25 -60.35 24.45 -58.35 29.35 -58.65 34.75 -56.2 41.25 -53.3 48.45 -46.45 L48.45 -46.35 Q47.75 -40.15 45.05 -35.75 42.75 -28.65 42.8 -21.6 L42.8 -21.3 Q42.7 -13.5 39.85 -8.5 L39.7 -8.35 Q22.05 10.05 -13.7 24.45 -21.8 27.9 -30.4 13.15 -39.05 -1.6 -49.8 0.65 -53.9 1.4 -62.25 6.15 -71.0 -4.4 -74.7 -10.25 -78.45 -16.1 -75.9 -20.2 L-50.6 -29.95 Q-42.15 -32.65 -36.0 -36.85 -32.15 -38.55 -29.85 -42.5 M18.3 -48.95 Q9.45 -50.2 -2.9 -46.7 -17.15 -41.25 -21.65 -32.95 -3.75 -45.5 18.3 -48.95" fill="#455357" fill-opacity="0.99607843" fill-rule="evenodd" stroke="none"/>
    <path d="M48.45 -46.45 L48.45 -46.4 Q52.15 -42.85 56.05 -38.25 L58.35 -35.1 Q65.45 -25.7 60.95 -13.55 61.1 -10.0 60.85 -6.65 60.6 -3.4 58.55 -8.55 58.35 0.45 55.35 -3.05 32.55 33.45 -18.2 52.4 -37.75 61.5 -57.35 57.1 -59.7 48.3 -61.0 39.7 -63.6 22.75 -62.25 6.15 -53.9 1.4 -49.8 0.65 -39.05 -1.6 -30.4 13.15 -21.8 27.9 -13.7 24.45 22.05 10.05 39.7 -8.35 L39.85 -8.5 Q42.7 -13.5 42.8 -21.3 L42.8 -21.6 Q42.75 -28.65 45.05 -35.75 47.75 -40.15 48.45 -46.35 L48.45 -46.45" fill="#374144" fill-rule="evenodd" stroke="none"/>
    <path d="M-75.9 -20.2 L-79.85 -25.9 -68.65 -28.45 -62.75 -29.75 Q-39.2 -35.95 -29.85 -42.5 -32.15 -38.55 -36.0 -36.85 -42.15 -32.65 -50.6 -29.95 L-75.9 -20.2 M18.3 -48.95 Q-3.75 -45.5 -21.65 -32.95 -17.15 -41.25 -2.9 -46.7 9.45 -50.2 18.3 -48.95" fill="#4c5c63" fill-rule="evenodd" stroke="none"/>
    <path d="M-29.85 -42.5 Q-13.25 -60.35 24.45 -58.35 29.35 -58.65 34.75 -56.2 41.25 -53.3 48.45 -46.45 L48.45 -46.4 Q52.15 -42.85 56.05 -38.25 L58.35 -35.1 Q65.45 -25.7 60.95 -13.55 61.1 -10.0 60.85 -6.65 60.6 -3.4 58.55 -8.55 58.35 0.45 55.35 -3.05 32.55 33.45 -18.2 52.4 -37.75 61.5 -57.35 57.1 M-79.85 -25.9 L-68.65 -28.45 -62.75 -29.75 Q-39.2 -35.95 -29.85 -42.5 Z" fill="none" stroke="#070808" stroke-linecap="round" stroke-linejoin="round" stroke-width="1.2000000000000002"/>
    <path d="M-30.35 -42.8 L-30.3 -42.85 Q-29.9 -43.3 -29.45 -43.0 -29.0 -42.6 -29.3 -42.15 L-29.5 -41.85 -29.65 -41.7 -29.75 -41.5 -30.3 -40.8 -31.45 -39.55 -31.6 -39.45 -32.2 -38.9 -32.3 -38.85 -32.35 -38.75 -32.55 -38.65 -32.7 -38.5 -32.85 -38.4 -33.15 -38.15 -33.6 -37.9 -33.65 -37.85 -34.1 -37.55 -35.6 -36.85 -35.95 -36.75 Q-36.05 -36.65 -36.05 -36.8 L-36.0 -36.9 -35.55 -37.2 -35.35 -37.3 -34.9 -37.6 -34.6 -37.75 -34.1 -38.15 -33.95 -38.25 -33.85 -38.3 -32.95 -39.15 -32.8 -39.25 -32.75 -39.35 -32.4 -39.7 -31.95 -40.3 -31.7 -40.55 -31.15 -41.4 -30.95 -41.65 -30.6 -42.3 -30.5 -42.45 -30.35 -42.8" fill="#070808" fill-rule="evenodd" stroke="none"/>
  </g>
</svg>
