<?xml version="1.0" encoding="UTF-8" standalone="no"?>
<svg xmlns:xlink="http://www.w3.org/1999/xlink" height="144.95px" width="79.95px" xmlns="http://www.w3.org/2000/svg">
  <g transform="matrix(1.0, 0.0, 0.0, 1.0, 39.95, 72.45)">
    <path d="M30.95 -71.85 Q21.85 -48.15 18.7 -23.45 22.35 27.1 39.4 60.3 L14.95 69.6 12.05 64.55 4.15 46.7 Q-7.95 18.4 -18.8 -11.95 -29.15 -24.3 -29.8 -46.6 -26.35 -50.6 -23.1 -56.5 L30.95 -71.85 M25.5 28.65 L4.95 34.65 Q7.7 40.15 10.8 44.25 18.9 55.0 29.45 56.2 25.95 46.55 25.15 39.0 24.55 33.2 25.5 28.65" fill="#d2be91" fill-rule="evenodd" stroke="none"/>
    <path d="M-29.8 -46.6 Q-29.15 -24.3 -18.8 -11.95 -7.95 18.4 4.15 46.7 L12.05 64.55 14.95 69.6 8.8 71.9 2.95 53.65 -0.7 43.6 -4.2 34.4 Q-13.25 10.5 -18.8 -1.8 L-18.85 -2.05 Q-21.65 -8.8 -26.5 -12.15 -29.85 -15.15 -31.8 -19.05 -33.9 -19.4 -37.15 -16.9 -38.15 -25.05 -31.35 -32.0 -34.15 -31.8 -37.35 -29.85 -37.25 -34.2 -32.7 -37.2 -36.05 -35.55 -39.35 -36.3 -38.15 -39.2 -33.9 -39.7 L-37.75 -40.05 Q-33.65 -42.1 -29.8 -46.6" fill="#f7e2aa" fill-rule="evenodd" stroke="none"/>
    <path d="M10.8 44.25 Q7.7 40.15 4.95 34.65 L25.5 28.65 Q24.55 33.2 25.15 39.0 25.95 46.55 29.45 56.2 18.9 55.0 10.8 44.25" fill="url(#gradient0)" fill-rule="evenodd" stroke="none"/>
    <path d="M14.95 69.6 L39.4 60.3 Q22.35 27.1 18.7 -23.45 21.85 -48.15 30.95 -71.85 M-23.1 -56.5 Q-26.35 -50.6 -29.8 -46.6 -33.65 -42.1 -37.75 -40.05 L-33.9 -39.7 Q-38.15 -39.2 -39.35 -36.3 -36.05 -35.55 -32.7 -37.2 -37.25 -34.2 -37.35 -29.85 -34.15 -31.8 -31.35 -32.0 -38.15 -25.05 -37.15 -16.9 -33.9 -19.4 -31.8 -19.05 -29.85 -15.15 -26.5 -12.15 -21.65 -8.8 -18.85 -2.05 L-18.8 -1.8 Q-13.25 10.5 -4.2 34.4 L-0.7 43.6 2.95 53.65 8.8 71.9 14.95 69.6 M10.8 44.25 Q18.9 55.0 29.45 56.2 25.95 46.55 25.15 39.0 24.55 33.2 25.5 28.65" fill="none" stroke="#242119" stroke-linecap="round" stroke-linejoin="round" stroke-width="1.2000000000000002"/>
    <path d="M11.25 43.85 L11.3 43.9 Q11.55 44.4 11.15 44.75 10.7 45.05 10.3 44.6 L8.35 41.55 4.85 34.65 Q4.75 34.55 4.9 34.55 5.0 34.45 5.0 34.6 L6.8 37.65 7.1 38.05 8.5 40.25 11.25 43.85" fill="#242119" fill-rule="evenodd" stroke="none"/>
  </g>
  <defs>
    <linearGradient gradientTransform="matrix(-0.0058, -0.0215, 0.0218, -0.0058, 41.9, 42.4)" gradientUnits="userSpaceOnUse" id="gradient0" spreadMethod="pad" x1="-819.2" x2="819.2">
      <stop offset="0.6666666666666666" stop-color="#73bf96"/>
      <stop offset="0.8588235294117647" stop-color="#d2be91"/>
    </linearGradient>
  </defs>
</svg>
