<?xml version="1.0" encoding="UTF-8" standalone="no"?>
<svg xmlns:xlink="http://www.w3.org/1999/xlink" height="48.75px" width="71.9px" xmlns="http://www.w3.org/2000/svg">
  <g transform="matrix(1.0, 0.0, 0.0, 1.0, 35.95, 24.35)">
    <path d="M-32.05 -11.75 Q-32.9 -13.45 -32.1 -14.95 -26.8 -14.65 -22.5 -16.35 L-23.8 -18.75 Q-19.65 -17.35 -15.95 -18.9 -17.35 -20.3 -15.95 -21.2 -13.65 -19.8 -10.95 -21.3 -9.8 -22.7 -11.0 -23.75 -8.2 -23.7 -5.8 -22.2 L5.55 -7.1 Q8.25 -3.45 18.25 -3.5 25.8 -3.45 30.15 0.9 31.55 2.3 32.6 4.15 L32.6 4.35 34.85 9.5 Q37.65 16.0 25.4 20.05 17.7 26.6 3.4 21.65 -1.9 22.85 -8.75 20.45 -15.5 18.2 -17.65 14.05 -27.55 1.5 -32.05 -11.75" fill="#8c6032" fill-rule="evenodd" stroke="none"/>
    <path d="M-32.05 -11.75 Q-27.55 1.5 -17.65 14.05 -25.75 7.1 -30.35 0.9 -33.95 -3.95 -35.35 -8.35 -35.45 -10.75 -34.0 -11.65 -32.9 -10.7 -32.05 -11.75 M32.6 4.35 L32.6 4.15 32.65 4.4 32.6 4.35" fill="#ac7538" fill-rule="evenodd" stroke="none"/>
    <path d="M32.6 4.15 Q31.55 2.3 30.15 0.9 25.8 -3.45 18.25 -3.5 8.25 -3.45 5.55 -7.1 L-5.8 -22.2 Q-8.2 -23.7 -11.0 -23.75 -9.8 -22.7 -10.95 -21.3 -13.65 -19.8 -15.95 -21.2 -17.35 -20.3 -15.95 -18.9 -19.65 -17.35 -23.8 -18.75 L-22.5 -16.35 Q-26.8 -14.65 -32.1 -14.95 -32.9 -13.45 -32.05 -11.75 -32.9 -10.7 -34.0 -11.65 -35.45 -10.75 -35.35 -8.35 -33.95 -3.95 -30.35 0.9 -25.75 7.1 -17.65 14.05 -15.5 18.2 -8.75 20.45 -1.9 22.85 3.4 21.65 17.7 26.6 25.4 20.05 37.65 16.0 34.85 9.5 L32.6 4.35 32.6 4.15 32.65 4.4 32.6 4.35" fill="none" stroke="#242119" stroke-linecap="round" stroke-linejoin="round" stroke-width="1.2000000000000002"/>
    <path d="M13.3 5.35 Q13.0 5.35 13.1 5.1 13.1 4.8 13.35 4.9 L14.3 4.9 15.15 5.0 15.45 5.0 15.8 5.05 15.95 5.1 16.15 5.1 18.4 5.55 18.6 5.65 18.85 5.7 19.05 5.8 19.65 6.0 19.75 6.05 20.0 6.1 20.2 6.2 20.25 6.25 20.35 6.25 20.45 6.35 Q21.5 6.8 22.25 7.4 L23.9 8.9 25.1 10.75 25.8 12.8 25.9 13.05 26.0 13.55 26.0 13.65 26.05 13.8 26.1 14.25 26.15 14.4 26.15 14.75 26.2 14.95 26.2 15.2 26.25 17.65 26.2 18.0 26.2 18.3 25.95 20.1 25.95 20.15 Q25.85 20.75 25.25 20.65 24.7 20.55 24.8 19.95 L24.8 19.7 25.05 18.2 25.05 17.9 25.1 17.6 25.1 17.4 25.15 17.25 25.15 16.1 25.2 15.9 25.15 15.7 25.15 14.85 25.1 14.6 25.1 14.4 25.05 13.95 25.0 13.8 25.0 13.7 24.85 13.0 24.25 11.15 23.25 9.45 21.8 8.0 20.15 7.0 20.05 6.9 19.95 6.9 19.9 6.85 19.5 6.65 19.4 6.65 19.25 6.6 18.85 6.4 18.75 6.4 18.6 6.35 18.4 6.25 17.55 6.05 17.35 5.95 16.4 5.75 16.05 5.7 15.85 5.65 15.7 5.65 14.3 5.45 14.05 5.45 13.85 5.4 13.55 5.4 13.3 5.35 M33.0 3.9 Q33.45 4.35 33.0 4.75 32.6 5.2 32.15 4.75 L32.05 4.6 31.85 4.45 31.1 3.7 29.3 2.35 27.45 1.4 27.3 1.3 27.2 1.25 27.15 1.25 24.95 0.55 24.6 0.5 22.7 0.2 19.7 0.15 17.15 0.45 Q17.05 0.55 17.05 0.4 16.95 0.3 17.1 0.3 L17.8 0.1 20.6 -0.25 21.3 -0.25 21.65 -0.3 22.75 -0.3 23.15 -0.25 23.5 -0.25 24.3 -0.15 24.5 -0.15 24.7 -0.1 25.5 0.0 25.65 0.0 27.4 0.45 27.45 0.5 27.5 0.5 27.6 0.55 28.5 0.9 30.35 1.85 31.8 2.85 32.7 3.6 33.0 3.9" fill="#242119" fill-rule="evenodd" stroke="none"/>
  </g>
</svg>
