<?xml version="1.0" encoding="UTF-8" standalone="no"?>
<svg xmlns:xlink="http://www.w3.org/1999/xlink" height="181.35px" width="129.05px" xmlns="http://www.w3.org/2000/svg">
  <g transform="matrix(1.0, 0.0, 0.0, 1.0, 65.75, 97.0)">
    <path d="M54.8 -14.3 L62.7 -5.95 Q54.2 14.75 41.45 35.7 L8.15 5.1 Q23.4 7.2 34.5 2.9 47.85 -3.4 54.8 -14.3 M-60.35 42.2 L-48.6 35.55 Q-48.15 43.15 -42.6 49.8 L14.55 76.3 Q5.3 84.2 -3.05 83.75 L-3.15 83.75 -27.35 74.55 Q-28.85 76.0 -35.25 76.85 -49.75 67.9 -55.15 54.65 L-57.9 47.9 Q-56.05 51.5 -53.1 52.95 -49.15 55.65 -48.6 51.85 -48.0 46.2 -50.0 37.45 L-59.15 45.05 -60.35 42.2" fill="#d2be91" fill-rule="evenodd" stroke="none"/>
    <path d="M54.8 -14.3 Q47.85 -3.4 34.5 2.9 23.4 7.2 8.15 5.1 L41.45 35.7 Q36.8 43.3 32.05 52.0 22.45 69.6 14.55 76.3 L-42.6 49.8 Q-48.15 43.15 -48.6 35.55 L-60.35 42.2 -63.4 24.7 Q-65.6 20.1 -65.15 14.95 -64.0 7.0 -61.3 -4.05 -59.2 -12.75 -55.95 -20.75 -48.25 -39.7 -36.45 -53.25 -24.7 -66.85 -20.05 -74.65 -15.45 -82.45 -1.15 -96.4 L54.8 -14.3" fill="#f7e2aa" fill-rule="evenodd" stroke="none"/>
    <path d="M-57.9 47.9 L-59.1 45.1 -59.15 45.05 -50.0 37.45 Q-48.0 46.2 -48.6 51.85 -49.15 55.65 -53.1 52.95 -56.05 51.5 -57.9 47.9 M-53.6 47.9 L-53.05 49.95 -52.9 50.0 -52.8 49.95 -52.3 48.05 -50.75 48.75 -50.55 48.7 -50.55 48.55 -52.2 47.0 -52.05 46.8 -52.0 46.55 -51.8 44.25 -51.85 44.15 -52.0 44.2 -53.2 46.1 -53.25 46.2 -54.4 45.6 -54.8 45.7 -54.7 46.05 -53.7 47.15 -53.5 47.5 -53.6 47.6 -53.6 47.9" fill="#c1ae86" fill-rule="evenodd" stroke="none"/>
    <path d="M-53.6 47.9 L-53.6 47.6 -53.5 47.5 -53.7 47.15 -54.7 46.05 -54.8 45.7 -54.4 45.6 -53.25 46.2 -53.2 46.1 -52.0 44.2 -51.85 44.15 -51.8 44.25 -52.0 46.55 -52.05 46.8 -52.2 47.0 -50.55 48.55 -50.55 48.7 -50.75 48.75 -52.3 48.05 -52.8 49.95 -52.9 50.0 -53.05 49.95 -53.6 47.9" fill="#242119" fill-rule="evenodd" stroke="none"/>
    <path d="M41.45 35.7 Q54.2 14.75 62.7 -5.95 M14.55 76.3 Q22.45 69.6 32.05 52.0 36.8 43.3 41.45 35.7 M-1.15 -96.4 Q-15.45 -82.45 -20.05 -74.65 -24.7 -66.85 -36.45 -53.25 -48.25 -39.7 -55.95 -20.75 -59.2 -12.75 -61.3 -4.05 -64.0 7.0 -65.15 14.95 M14.55 76.3 Q5.3 84.2 -3.05 83.75 M-35.25 76.85 Q-49.75 67.9 -55.15 54.65" fill="none" stroke="#242119" stroke-linecap="round" stroke-linejoin="round" stroke-width="1.2000000000000002"/>
    <path d="M-65.7 14.9 L-65.7 14.8 Q-65.7 14.2 -65.05 14.3 -64.45 14.4 -64.55 14.95 L-64.6 15.4 -64.6 15.6 -64.65 15.9 -64.65 16.15 -64.7 16.5 -64.45 20.75 -63.95 22.85 -63.8 23.15 -63.6 23.75 -63.55 24.0 -63.3 24.65 -63.35 24.75 -63.45 24.7 -63.9 23.9 -64.0 23.6 -64.55 22.4 -64.6 22.2 -64.75 21.8 -65.25 20.0 -65.65 17.7 -65.65 17.25 -65.7 16.85 -65.7 16.5 -65.75 16.15 -65.75 15.3 -65.7 14.9" fill="#242119" fill-rule="evenodd" stroke="none"/>
  </g>
</svg>
