<?xml version="1.0" encoding="UTF-8" standalone="no"?>
<svg xmlns:xlink="http://www.w3.org/1999/xlink" height="21.55px" width="52.9px" xmlns="http://www.w3.org/2000/svg">
  <g transform="matrix(1.0, 0.0, 0.0, 1.0, 24.85, 13.55)">
    <path d="M12.95 1.15 Q13.3 -0.05 14.05 -0.55 L14.65 -0.75 Q25.9 -4.7 27.45 -0.45 23.75 3.3 18.75 4.9 19.4 3.15 21.8 1.4 15.65 2.4 13.2 7.05 L12.95 5.35 12.85 4.85 Q12.55 2.8 12.95 1.15 M-8.25 -6.9 Q-9.7 -5.6 -15.1 -4.8 L-16.15 -4.75 -16.15 -1.5 Q-17.5 -4.2 -18.85 -4.85 -19.75 -3.25 -22.45 -7.75 -25.2 -12.3 -23.8 -12.6 L-16.55 -13.55 -8.25 -6.9" fill="#d2be91" fill-rule="evenodd" stroke="none"/>
    <path d="M12.95 1.15 Q12.55 2.8 12.85 4.85 L12.95 5.35 11.55 6.05 Q7.4 0.05 -1.5 -4.4 L12.95 1.15" fill="#a18176" fill-rule="evenodd" stroke="none"/>
    <path d="M4.25 4.75 Q4.15 3.1 1.65 1.45 -2.5 0.2 -7.45 0.15 -11.8 -1.15 -15.1 -4.8 -9.7 -5.6 -8.25 -6.9 L-8.2 -6.95 -1.5 -4.4 Q7.4 0.05 11.55 6.05 9.45 6.95 4.25 4.75" fill="#b59185" fill-rule="evenodd" stroke="none"/>
    <path d="M-15.1 -4.8 Q-11.8 -1.15 -7.45 0.15 -2.5 0.2 1.65 1.45 4.15 3.1 4.25 4.75 L1.2 3.3 Q-0.85 3.1 -1.3 3.3 L-4.25 2.85 -10.25 3.1 -10.55 2.9 -11.65 2.1 -12.95 0.55 -16.15 -4.75 -15.1 -4.8" fill="#c69f92" fill-rule="evenodd" stroke="none"/>
    <path d="M4.25 4.75 Q9.45 6.95 11.55 6.05 L9.95 6.95 Q3.85 7.8 -0.95 7.05 -2.75 6.1 -4.15 6.3 -8.35 6.65 -9.2 4.9 -9.95 3.45 -10.55 2.9 L-10.25 3.1 -4.25 2.85 -1.3 3.3 Q-0.85 3.1 1.2 3.3 L4.25 4.75" fill="url(#gradient0)" fill-rule="evenodd" stroke="none"/>
    <path d="M12.95 5.35 L13.2 7.05 Q15.65 2.4 21.8 1.4 19.4 3.15 18.75 4.9 23.75 3.3 27.45 -0.45 M4.25 4.75 Q9.45 6.95 11.55 6.05 L9.95 6.95 Q3.85 7.8 -0.95 7.05 -2.75 6.1 -4.15 6.3 -8.35 6.65 -9.2 4.9 -9.95 3.45 -10.55 2.9 L-10.25 3.1 -4.25 2.85 -1.3 3.3 Q-0.85 3.1 1.2 3.3 L4.25 4.75 M-8.2 -6.95 L-8.25 -6.9 Q-9.7 -5.6 -15.1 -4.8 L-16.15 -4.75 -12.95 0.55 -11.65 2.1 -10.55 2.9 M11.55 6.05 L12.95 5.35 M-23.8 -12.6 Q-25.2 -12.3 -22.45 -7.75 -19.75 -3.25 -18.85 -4.85 -17.5 -4.2 -16.15 -1.5 L-16.15 -4.75" fill="none" stroke="#242119" stroke-linecap="round" stroke-linejoin="round" stroke-width="1.2000000000000002"/>
    <path d="M-18.8 -9.8 L-18.7 -9.8 Q-18.5 -9.8 -18.65 -9.65 L-18.85 -9.25 -18.9 -9.1 -19.0 -8.95 -19.1 -8.6 -19.1 -8.5 -19.15 -8.4 -19.15 -8.2 -19.2 -7.95 -19.2 -7.4 -19.15 -7.3 -19.1 -6.85 -18.95 -6.45 -18.85 -6.1 -18.75 -5.9 -18.5 -5.5 -18.25 -5.0 Q-18.0 -4.35 -18.6 -4.2 -19.15 -4.0 -19.35 -4.55 L-19.45 -4.75 -19.7 -5.6 -19.75 -5.7 -19.75 -5.8 -19.85 -6.25 -19.9 -6.75 -19.85 -7.3 -19.85 -7.55 -19.75 -8.05 -19.65 -8.3 -19.65 -8.4 -19.6 -8.55 -19.5 -8.75 -19.1 -9.4 -19.05 -9.5 -18.95 -9.6 -18.8 -9.8 M14.6 -0.8 L14.7 -0.75 14.65 -0.65 14.05 -0.4 14.1 -0.4 13.65 0.1 13.45 0.4 13.25 1.1 13.2 1.15 13.2 1.4 13.15 1.5 13.15 1.85 13.1 2.05 13.1 2.8 13.15 3.0 13.15 3.35 13.2 3.55 13.2 3.75 13.25 3.9 13.25 4.1 13.35 4.5 13.35 4.65 13.4 4.7 13.4 4.85 13.5 5.2 13.55 5.3 Q13.55 5.85 13.0 5.95 12.45 6.05 12.35 5.45 L12.3 5.05 12.25 4.95 12.25 2.95 12.3 2.75 12.3 2.55 12.35 2.15 12.55 1.35 12.6 1.25 12.6 1.15 12.65 1.05 12.65 1.0 12.7 0.95 12.85 0.55 13.05 0.2 13.3 -0.1 13.95 -0.65 14.0 -0.65 14.6 -0.8" fill="#242119" fill-rule="evenodd" stroke="none"/>
  </g>
  <defs>
    <radialGradient cx="0" cy="0" gradientTransform="matrix(8.0E-4, -0.0031, 0.0156, 0.0042, -0.05, 4.85)" gradientUnits="userSpaceOnUse" id="gradient0" r="819.2" spreadMethod="pad">
      <stop offset="0.5529411764705883" stop-color="#9a424c"/>
      <stop offset="0.7568627450980392" stop-color="#ee6878"/>
    </radialGradient>
  </defs>
</svg>
