<?xml version="1.0" encoding="UTF-8" standalone="no"?>
<svg xmlns:xlink="http://www.w3.org/1999/xlink" height="150.05px" width="70.75px" xmlns="http://www.w3.org/2000/svg">
  <g transform="matrix(1.0, 0.0, 0.0, 1.0, 35.4, 75.0)">
    <path d="M-18.65 36.45 Q-18.4 34.4 -16.9 32.85 L-14.2 6.95 Q-16.15 5.35 -15.4 2.95 L-13.85 0.0 -13.7 -8.4 Q-16.1 -10.85 -13.5 -14.55 L-13.15 -21.4 -14.4 -23.3 Q-14.95 -24.5 -12.8 -26.6 L-12.25 -33.5 Q-14.05 -35.9 -11.9 -37.25 -10.55 -51.7 -8.15 -67.0 1.55 -81.75 10.45 -67.0 L9.7 -36.8 Q11.1 -34.8 9.6 -32.85 L9.4 -25.85 Q11.3 -23.45 9.3 -21.05 L9.1 -13.9 Q11.8 -11.15 8.95 -7.85 L8.75 0.5 Q10.2 1.1 10.3 3.45 10.4 5.85 9.15 6.35 L12.05 34.5 Q16.5 40.3 13.7 45.3 10.65 50.85 -2.75 52.4 -15.7 52.55 -18.25 45.75 -19.8 41.55 -18.65 36.45" fill="url(#gradient0)" fill-rule="evenodd" stroke="none"/>
    <path d="M-18.65 36.45 Q-19.8 41.55 -18.25 45.75 -15.7 52.55 -2.75 52.4 10.65 50.85 13.7 45.3 16.5 40.3 12.05 34.5 20.0 35.25 27.0 39.45 30.25 42.05 30.55 44.65 30.9 47.75 27.0 50.85 8.2 65.05 -15.75 61.05 -30.95 57.9 -31.8 48.25 -31.5 45.9 -29.85 43.95 -24.5 38.25 -18.65 36.45" fill="#333333" fill-rule="evenodd" stroke="none"/>
    <path d="M30.55 44.65 Q34.25 49.7 34.75 58.55 13.65 79.15 -17.75 73.1 -31.6 70.25 -34.8 63.95 -33.75 54.8 -31.8 48.25 -30.95 57.9 -15.75 61.05 8.2 65.05 27.0 50.85 30.9 47.75 30.55 44.65" fill="url(#gradient1)" fill-rule="evenodd" stroke="none"/>
    <path d="M-16.8 33.45 Q-17.35 33.6 -17.55 33.0 L-17.5 32.55 -17.1 32.3 -14.1 31.5 -14.0 31.55 -14.05 31.65 -16.8 33.45 M12.5 34.1 L12.6 34.25 Q12.85 34.8 12.35 35.05 11.85 35.3 11.55 34.85 L9.85 31.85 Q9.8 31.7 9.9 31.6 L10.2 31.6 12.5 34.1" fill="#242119" fill-rule="evenodd" stroke="none"/>
    <path d="M-13.55 -13.95 Q-14.2 -13.95 -14.1 -14.6 -14.0 -15.2 -13.45 -15.1 L-4.3 -14.2 -4.25 -14.15 -4.35 -14.05 -13.55 -13.95 M-13.85 0.55 L-13.95 0.55 Q-14.15 0.55 -14.35 0.35 L-14.45 -0.05 -14.25 -0.45 -13.8 -0.55 -6.9 0.1 -6.85 0.15 -6.95 0.25 -13.85 0.55 M-12.8 -26.0 L-12.9 -26.0 -13.3 -26.2 -13.4 -26.65 -13.2 -27.05 -12.75 -27.15 -6.1 -26.5 -6.05 -26.45 -6.15 -26.35 -12.8 -26.0 M-11.9 -36.65 L-12.0 -36.65 Q-12.6 -36.65 -12.5 -37.3 -12.5 -37.9 -11.85 -37.8 L-6.05 -37.1 -6.0 -37.05 -6.1 -36.95 -11.9 -36.65" fill="#9c2653" fill-rule="evenodd" stroke="none"/>
    <path d="M12.05 34.5 L9.15 6.35 Q10.4 5.85 10.3 3.45 10.2 1.1 8.75 0.5 L8.95 -7.85 Q11.8 -11.15 9.1 -13.9 L9.3 -21.05 Q11.3 -23.45 9.4 -25.85 L9.6 -32.85 Q11.1 -34.8 9.7 -36.8 L10.45 -67.0 Q1.55 -81.75 -8.15 -67.0 -10.55 -51.7 -11.9 -37.25 -14.05 -35.9 -12.25 -33.5 L-12.8 -26.6 Q-14.95 -24.5 -14.4 -23.3 L-13.15 -21.4 -13.5 -14.55 Q-16.1 -10.85 -13.7 -8.4 L-13.85 0.0 -15.4 2.95 Q-16.15 5.35 -14.2 6.95 L-16.9 32.85 Q-18.4 34.4 -18.65 36.45 -19.8 41.55 -18.25 45.75 -15.7 52.55 -2.75 52.4 10.65 50.85 13.7 45.3 16.5 40.3 12.05 34.5 20.0 35.25 27.0 39.45 30.25 42.05 30.55 44.65 34.25 49.7 34.75 58.55 13.65 79.15 -17.75 73.1 -31.6 70.25 -34.8 63.95 -33.75 54.8 -31.8 48.25 -31.5 45.9 -29.85 43.95 -24.5 38.25 -18.65 36.45 M-31.8 48.25 Q-30.95 57.9 -15.75 61.05 8.2 65.05 27.0 50.85 30.9 47.75 30.55 44.65" fill="none" stroke="#242119" stroke-linecap="round" stroke-linejoin="round" stroke-width="1.2000000000000002"/>
  </g>
  <defs>
    <linearGradient gradientTransform="matrix(0.0162, 7.0E-4, -0.0031, 0.0773, -2.0, -11.0)" gradientUnits="userSpaceOnUse" id="gradient0" spreadMethod="pad" x1="-819.2" x2="819.2">
      <stop offset="0.32941176470588235" stop-color="#cb316c"/>
      <stop offset="0.7176470588235294" stop-color="#9c2653"/>
    </linearGradient>
    <linearGradient gradientTransform="matrix(0.0424, 0.0, 0.0, 0.0182, -0.05, 59.55)" gradientUnits="userSpaceOnUse" id="gradient1" spreadMethod="pad" x1="-819.2" x2="819.2">
      <stop offset="0.0" stop-color="#42624f"/>
      <stop offset="0.6352941176470588" stop-color="#333333"/>
    </linearGradient>
  </defs>
</svg>
