<?xml version="1.0" encoding="UTF-8" standalone="no"?>
<svg xmlns:xlink="http://www.w3.org/1999/xlink" height="62.95px" width="57.55px" xmlns="http://www.w3.org/2000/svg">
  <g transform="matrix(1.0, 0.0, 0.0, 1.0, 33.9, 29.15)">
    <path d="M23.05 -28.55 Q19.4 -17.55 17.2 -4.65 14.9 8.6 16.1 18.4 15.45 23.15 11.8 26.1 L5.25 9.95 4.45 6.7 Q3.75 3.95 6.75 -12.1 L9.45 -20.65 Q15.8 -29.55 23.05 -28.55 M-5.85 -16.65 Q-3.6 -12.9 -10.1 1.55 -16.75 8.1 -24.75 11.35 -25.7 9.1 -27.2 6.35 L-27.3 6.0 Q-30.35 -6.15 -16.1 -12.25 L-5.85 -16.65" fill="#d2be91" fill-rule="evenodd" stroke="none"/>
    <path d="M9.45 -20.65 L6.75 -12.1 Q3.75 3.95 4.45 6.7 L5.25 9.95 11.8 26.1 Q6.75 30.15 -4.0 30.75 -8.2 31.15 -11.45 30.6 -20.8 29.0 -22.95 19.55 L-23.25 18.0 Q-23.05 15.5 -24.75 11.35 -16.75 8.1 -10.1 1.55 -3.6 -12.9 -5.85 -16.65 L4.9 -22.6 9.45 -20.65 M-27.3 6.0 Q-28.8 0.7 -29.1 -1.4 -29.45 -3.6 -33.3 -15.1 -26.0 -20.55 -16.1 -12.25 -30.35 -6.15 -27.3 6.0" fill="#f7e2aa" fill-rule="evenodd" stroke="none"/>
    <path d="M16.1 18.4 Q14.9 8.6 17.2 -4.65 19.4 -17.55 23.05 -28.55 M-24.75 11.35 Q-23.05 15.5 -23.25 18.0 M-33.3 -15.1 Q-29.45 -3.6 -29.1 -1.4 -28.8 0.7 -27.3 6.0 L-27.2 6.35 Q-25.7 9.1 -24.75 11.35" fill="none" stroke="#242119" stroke-linecap="round" stroke-linejoin="round" stroke-width="1.2000000000000002"/>
    <path d="M11.8 26.1 L12.4 33.8" fill="none" stroke="#242119" stroke-linecap="round" stroke-linejoin="miter-clip" stroke-miterlimit="8.0" stroke-width="0.05"/>
  </g>
</svg>
