<?xml version="1.0" encoding="UTF-8" standalone="no"?>
<svg xmlns:xlink="http://www.w3.org/1999/xlink" height="111.1px" width="136.8px" xmlns="http://www.w3.org/2000/svg">
  <g transform="matrix(1.0, 0.0, 0.0, 1.0, 68.2, 55.3)">
    <path d="M16.0 -47.15 Q35.8 -39.7 54.8 -25.95 71.5 -8.8 67.1 8.45 61.6 9.85 56.55 18.5 65.15 -5.75 51.4 -17.45 17.5 -41.85 -17.35 -55.2 -0.4 -53.35 16.0 -47.15 M-61.65 8.65 Q-61.65 1.75 -58.7 -1.35 L-56.55 6.2 Q-57.9 4.1 -61.45 9.6 L-61.6 9.0 -61.65 8.65 M-53.75 16.6 Q-54.05 10.5 -52.0 4.4 -51.55 12.15 -48.65 15.65 -52.35 13.5 -53.0 17.6 L-53.75 16.6 M-39.35 27.95 Q-45.35 17.9 -44.2 13.4 -37.8 22.0 -22.35 27.4 -30.15 25.95 -38.3 23.1 -40.05 22.8 -38.3 28.7 L-39.35 27.95" fill="#d2be91" fill-rule="evenodd" stroke="none"/>
    <path d="M-17.35 -55.2 Q17.5 -41.85 51.4 -17.45 65.15 -5.75 56.55 18.5 51.3 22.55 44.75 25.85 34.75 30.85 21.7 34.15 L17.55 35.15 Q10.9 27.25 0.8 28.5 -10.4 29.55 -22.35 27.4 -37.8 22.0 -44.2 13.4 -45.35 17.9 -39.35 27.95 -47.8 22.0 -48.65 15.65 -51.55 12.15 -52.0 4.4 -54.05 10.5 -53.75 16.6 -57.35 11.45 -56.55 6.2 L-58.7 -1.35 Q-61.65 1.75 -61.65 8.65 -63.05 3.15 -63.7 -3.35 -63.75 -1.15 -65.05 1.75 -68.85 -6.7 -68.1 -10.5 L-17.35 -55.2" fill="#f7e2aa" fill-rule="evenodd" stroke="none"/>
    <path d="M21.7 34.15 Q34.75 30.85 44.75 25.85 42.45 32.1 40.15 36.6 L40.0 36.9 38.85 39.05 36.2 42.35 Q33.1 46.2 30.95 47.85 L27.7 47.75 27.3 50.2 23.4 52.05 Q18.2 54.1 7.6 53.85 4.55 53.75 1.45 55.2 4.5 53.0 7.3 52.55 15.85 51.0 17.6 49.55 19.35 48.05 20.2 44.2 L21.3 37.95 21.7 34.15" fill="url(#gradient0)" fill-rule="evenodd" stroke="none"/>
    <path d="M67.1 8.45 Q71.5 -8.8 54.8 -25.95 35.8 -39.7 16.0 -47.15 M-22.35 27.4 Q-10.4 29.55 0.8 28.5 10.9 27.25 17.55 35.15 M38.85 39.05 L36.2 42.35 Q33.1 46.2 30.95 47.85 M27.3 50.2 L23.4 52.05 Q18.2 54.1 7.6 53.85 M7.3 52.55 Q15.85 51.0 17.6 49.55 19.35 48.05 20.2 44.2 M-56.55 6.2 Q-57.35 11.45 -53.75 16.6 L-53.0 17.6 Q-52.35 13.5 -48.65 15.65 -47.8 22.0 -39.35 27.95 L-38.3 28.7 Q-40.05 22.8 -38.3 23.1 -30.15 25.95 -22.35 27.4 M-61.6 9.0 L-61.45 9.6 Q-57.9 4.1 -56.55 6.2" fill="none" stroke="#242119" stroke-linecap="round" stroke-linejoin="round" stroke-width="1.2000000000000002"/>
    <path d="M30.95 47.85 L27.7 47.75 27.3 50.2 M7.6 53.85 Q4.55 53.75 1.45 55.2 4.5 53.0 7.3 52.55" fill="none" stroke="#242119" stroke-linecap="round" stroke-linejoin="miter-clip" stroke-miterlimit="8.0" stroke-width="1.2000000000000002"/>
    <path d="M21.6 34.1 L21.7 34.05 21.75 34.15 21.55 37.8 21.55 38.3 20.85 43.85 20.75 44.3 20.75 44.35 Q20.6 44.9 20.0 44.8 19.4 44.6 19.6 44.05 L21.0 37.95 21.0 37.75 21.6 34.1 M39.35 39.3 L39.35 39.35 Q39.0 39.9 38.5 39.55 38.05 39.25 38.3 38.75 L39.5 36.65 39.5 36.7 39.7 36.3 39.7 36.35 44.65 25.8 Q44.65 25.65 44.75 25.75 L44.8 25.85 42.05 33.45 41.5 34.8 40.55 36.8 40.55 36.85 40.45 37.05 40.45 37.1 39.35 39.3 M-63.9 -4.9 L-63.85 -5.0 -63.75 -4.95 -61.65 6.3 -61.05 8.5 -61.05 8.65 -61.0 8.8 -60.95 8.9 Q-60.75 9.45 -61.35 9.65 -61.9 9.8 -62.1 9.25 L-62.15 9.15 -62.2 8.65 -62.2 8.75 -63.15 3.5 -63.85 -3.3 -63.85 -3.35 -63.85 -4.1 -63.85 -4.5 -63.9 -4.7 -63.9 -4.9 M16.2 -47.7 Q16.75 -47.45 16.55 -46.9 16.3 -46.4 15.75 -46.55 L7.65 -49.5 -5.1 -52.95 -17.35 -55.1 -17.4 -55.2 -17.3 -55.25 -4.25 -53.4 16.2 -47.7" fill="#242119" fill-rule="evenodd" stroke="none"/>
  </g>
  <defs>
    <linearGradient gradientTransform="matrix(-0.0021, -0.0078, 0.9659, -0.2555, -106.65, 74.1)" gradientUnits="userSpaceOnUse" id="gradient0" spreadMethod="pad" x1="-819.2" x2="819.2">
      <stop offset="0.6666666666666666" stop-color="#8bcca5"/>
      <stop offset="0.8588235294117647" stop-color="#f7e2aa"/>
    </linearGradient>
  </defs>
</svg>
