<?xml version="1.0" encoding="UTF-8" standalone="no"?>
<svg xmlns:xlink="http://www.w3.org/1999/xlink" height="60.55px" width="56.9px" xmlns="http://www.w3.org/2000/svg">
  <g transform="matrix(1.0, 0.0, 0.0, 1.0, 38.05, 26.05)">
    <path d="M-32.8 -4.35 Q-36.65 -7.0 -37.45 -9.55 -37.45 -12.1 -35.9 -13.1 -34.65 -12.05 -33.75 -13.1 -34.65 -15.05 -33.75 -16.6 -28.2 -16.15 -23.55 -17.85 L-24.9 -20.45 -22.55 -19.85 Q-20.6 -19.5 -18.65 -19.85 L-16.5 -20.45 Q-17.95 -21.9 -16.5 -22.85 -14.05 -21.45 -11.2 -22.85 -9.9 -24.35 -11.2 -25.45 -8.2 -25.4 -6.45 -22.95 -3.95 -19.4 -1.0 -17.3 L-0.2 -16.6 0.5 -15.95 3.75 -12.8 4.35 -12.2 3.75 -12.8 4.35 -12.2 4.5 -12.0 Q23.75 5.35 16.05 30.15 15.2 32.85 12.6 32.7 9.7 32.4 5.75 30.35 6.95 26.2 4.8 21.45 3.5 18.05 2.3 17.4 -0.6 8.1 -6.3 1.6 L-7.35 0.55 -11.2 -3.2 -11.25 -3.1 -13.05 -4.8 Q-19.75 -6.75 -32.8 -4.35" fill="#8c6032" fill-rule="evenodd" stroke="none"/>
    <path d="M-32.8 -4.35 Q-19.75 -6.75 -13.05 -4.8 L-11.25 -3.1 -11.2 -3.2 -7.35 0.55 -6.3 1.6 Q-0.6 8.1 2.3 17.4 1.2 16.75 0.25 18.4 -0.35 19.05 -0.6 20.0 -4.05 17.65 -5.5 20.85 L-8.4 14.75 Q-5.0 15.1 -2.4 13.6 -0.8 12.5 -2.4 10.65 -6.15 9.0 -9.9 10.1 -10.65 7.1 -12.45 4.45 -26.6 -0.1 -32.8 -4.35 M-12.45 4.45 Q-13.65 2.75 -16.4 1.1 -13.65 2.75 -12.45 4.45" fill="#833a2e" fill-rule="evenodd" stroke="none"/>
    <path d="M2.3 17.4 Q3.5 18.05 4.8 21.45 6.95 26.2 5.75 30.35 9.7 32.4 12.6 32.7 8.25 36.25 -0.1 29.1 -4.95 28.4 -5.5 20.85 -4.05 17.65 -0.6 20.0 -0.35 19.05 0.25 18.4 1.2 16.75 2.3 17.4 M5.75 30.35 Q4.45 30.65 2.85 29.1 L1.95 28.2 0.2 24.3 Q-0.95 21.65 -0.6 20.0 -0.95 21.65 0.2 24.3 L1.95 28.2 2.85 29.1 Q4.45 30.65 5.75 30.35 M-9.9 10.1 Q-6.15 9.0 -2.4 10.65 -0.8 12.5 -2.4 13.6 -5.0 15.1 -8.4 14.75 -10.95 13.6 -9.9 10.1 M2.85 29.1 L-0.1 29.1 2.85 29.1" fill="#8a4a4a" fill-rule="evenodd" stroke="none"/>
    <path d="M3.75 -12.8 L0.5 -15.95 -0.2 -16.6 -1.0 -17.3 Q-3.95 -19.4 -6.45 -22.95 -8.2 -25.4 -11.2 -25.45 -9.9 -24.35 -11.2 -22.85 -14.05 -21.45 -16.5 -22.85 -17.95 -21.9 -16.5 -20.45 L-18.65 -19.85 Q-20.6 -19.5 -22.55 -19.85 L-24.9 -20.45 -23.55 -17.85 Q-28.2 -16.15 -33.75 -16.6 -34.65 -15.05 -33.75 -13.1 -34.65 -12.05 -35.9 -13.1 -37.45 -12.1 -37.45 -9.55 -36.65 -7.0 -32.8 -4.35 -26.6 -0.1 -12.45 4.45 -10.65 7.1 -9.9 10.1 -10.95 13.6 -8.4 14.75 L-5.5 20.85 Q-4.05 17.65 -0.6 20.0 -0.95 21.65 0.2 24.3 L1.95 28.2 2.85 29.1 Q4.45 30.65 5.75 30.35 9.7 32.4 12.6 32.7 15.2 32.85 16.05 30.15 23.75 5.35 4.5 -12.0 L4.35 -12.2 3.75 -12.8 4.35 -12.2 M2.3 17.4 Q3.5 18.05 4.8 21.45 6.95 26.2 5.75 30.35 M2.3 17.4 Q1.2 16.75 0.25 18.4 -0.35 19.05 -0.6 20.0 M-8.4 14.75 Q-5.0 15.1 -2.4 13.6 -0.8 12.5 -2.4 10.65 -6.15 9.0 -9.9 10.1 M-16.4 1.1 Q-13.65 2.75 -12.45 4.45 M-5.5 20.85 Q-4.95 28.4 -0.1 29.1 L2.85 29.1 M-0.1 29.1 Q8.25 36.25 12.6 32.7" fill="none" stroke="#242119" stroke-linecap="round" stroke-linejoin="round" stroke-width="1.2000000000000002"/>
  </g>
</svg>
