<?xml version="1.0" encoding="UTF-8" standalone="no"?>
<svg xmlns:xlink="http://www.w3.org/1999/xlink" height="19.95px" width="13.3px" xmlns="http://www.w3.org/2000/svg">
  <g transform="matrix(1.0, 0.0, 0.0, 1.0, 6.65, 9.95)">
    <path d="M5.0 1.1 Q4.15 5.25 1.9 7.8 -0.35 10.45 -2.65 9.9 -4.9 9.5 -6.1 6.3 -7.15 3.05 -6.25 -1.0 -5.45 -5.15 -3.2 -7.75 -0.95 -10.35 1.4 -9.9 3.75 -9.45 4.7 -6.2 5.85 -3.0 5.0 1.1" fill="#885d32" fill-rule="evenodd" stroke="none"/>
    <path d="M5.6 -0.4 Q4.55 1.5 3.15 2.05 1.65 2.6 0.65 1.5 -0.4 0.45 -0.3 -1.65 -0.3 -3.8 0.7 -5.7 1.75 -7.6 3.2 -8.15 4.65 -8.75 5.65 -7.65 6.65 -6.6 6.65 -4.45 6.65 -2.3 5.6 -0.4" fill="url(#gradient0)" fill-rule="evenodd" stroke="none"/>
  </g>
  <defs>
    <radialGradient cx="0" cy="0" gradientTransform="matrix(0.003, 0.0033, -0.0033, 0.006, 3.2, -3.05)" gradientUnits="userSpaceOnUse" id="gradient0" r="819.2" spreadMethod="pad">
      <stop offset="0.6666666666666666" stop-color="#ffffff"/>
      <stop offset="1.0" stop-color="#ffffff" stop-opacity="0.0"/>
    </radialGradient>
  </defs>
</svg>
