<?xml version="1.0" encoding="UTF-8" standalone="no"?>
<svg xmlns:xlink="http://www.w3.org/1999/xlink" height="216.45px" width="71.55px" xmlns="http://www.w3.org/2000/svg">
  <g transform="matrix(1.0, 0.0, 0.0, 1.0, 35.8, 108.25)">
    <path d="M-31.75 49.15 Q-30.15 45.85 -30.2 42.95 L-33.65 39.55 Q-32.95 36.6 -30.85 36.15 -34.1 29.7 -35.2 21.2 -30.6 26.85 -24.55 26.85 -30.1 22.35 -31.7 10.3 -32.05 -16.35 -25.15 -53.1 -21.5 -47.85 -16.3 -46.2 -22.05 -53.1 -26.0 -62.75 -22.05 -82.95 -10.15 -107.65 -15.0 -83.6 -12.25 -48.45 L-12.25 15.3 Q-9.8 29.0 -10.3 49.45 -11.4 43.35 -16.35 44.45 -26.5 32.4 -26.1 45.3 -29.85 45.5 -31.75 49.15" fill="#8bcca5" fill-rule="evenodd" stroke="none"/>
    <path d="M-10.15 -107.65 Q-3.7 -79.15 5.25 -56.65 6.55 -49.3 3.25 -37.25 6.7 -42.45 9.7 -41.6 19.0 -3.65 32.35 37.8 L33.55 43.3 Q32.1 42.2 31.25 45.6 25.95 45.2 23.1 52.2 20.05 50.35 18.35 51.6 16.75 52.65 16.35 56.4 13.3 54.6 11.3 55.65 10.5 43.45 7.7 28.45 L-12.25 -48.45 Q-15.0 -83.6 -10.15 -107.65" fill="#73bf96" fill-rule="evenodd" stroke="none"/>
    <path d="M33.55 43.3 Q34.8 50.55 35.1 62.05 L35.15 65.4 34.9 84.2 34.9 84.25 Q34.75 90.1 30.25 92.35 L30.15 92.4 30.15 92.45 30.1 92.45 Q29.4 85.6 25.9 85.45 21.35 84.15 21.45 77.35 22.1 70.3 18.35 51.6 20.05 50.35 23.1 52.2 25.95 45.2 31.25 45.6 32.1 42.2 33.55 43.3" fill="#d2be91" fill-rule="evenodd" stroke="none"/>
    <path d="M30.1 92.45 L4.0 107.6 Q-10.5 92.25 -27.95 81.9 -22.75 80.9 -16.0 83.3 -28.3 68.4 -33.95 52.7 L-31.75 49.15 Q-29.85 45.5 -26.1 45.3 -26.5 32.4 -16.35 44.45 -11.4 43.35 -10.3 49.45 -3.95 76.85 6.6 93.5 12.95 80.4 11.3 55.65 13.3 54.6 16.35 56.4 16.75 52.65 18.35 51.6 22.1 70.3 21.45 77.35 21.35 84.15 25.9 85.45 29.4 85.6 30.1 92.45" fill="#f7e2aa" fill-rule="evenodd" stroke="none"/>
    <path d="M11.3 55.65 Q12.95 80.4 6.6 93.5 -3.7 36.1 1.35 27.65 4.75 31.3 11.3 55.65" fill="#9f6c34" fill-rule="evenodd" stroke="none"/>
    <path d="M-12.25 -48.45 L7.7 28.45 Q10.5 43.45 11.3 55.65 4.75 31.3 1.35 27.65 -3.7 36.1 6.6 93.5 -3.95 76.85 -10.3 49.45 -9.8 29.0 -12.25 15.3 L-12.25 -48.45" fill="#8a5e31" fill-rule="evenodd" stroke="none"/>
    <path d="M-10.15 -107.65 Q-3.7 -79.15 5.25 -56.65 6.55 -49.3 3.25 -37.25 6.7 -42.45 9.7 -41.6 19.0 -3.65 32.35 37.8 L33.55 43.3 Q34.8 50.55 35.1 62.05 L35.15 65.4 M4.0 107.6 Q-10.5 92.25 -27.95 81.9 -22.75 80.9 -16.0 83.3 -28.3 68.4 -33.95 52.7 L-31.75 49.15 Q-30.15 45.85 -30.2 42.95 L-33.65 39.55 Q-32.95 36.6 -30.85 36.15 -34.1 29.7 -35.2 21.2 -30.6 26.85 -24.55 26.85 -30.1 22.35 -31.7 10.3 -32.05 -16.35 -25.15 -53.1 -21.5 -47.85 -16.3 -46.2 -22.05 -53.1 -26.0 -62.75 -22.05 -82.95 -10.15 -107.65 M-12.25 -48.45 L7.7 28.45 Q10.5 43.45 11.3 55.65 13.3 54.6 16.35 56.4 16.75 52.65 18.35 51.6 20.05 50.35 23.1 52.2 25.95 45.2 31.25 45.6 32.1 42.2 33.55 43.3 M-10.3 49.45 Q-11.4 43.35 -16.35 44.45 -26.5 32.4 -26.1 45.3 -29.85 45.5 -31.75 49.15 M-10.3 49.45 Q-9.8 29.0 -12.25 15.3 L-12.25 -48.45 M11.3 55.65 Q12.95 80.4 6.6 93.5 -3.95 76.85 -10.3 49.45" fill="none" stroke="#242119" stroke-linecap="round" stroke-linejoin="round" stroke-width="1.2000000000000002"/>
    <path d="M30.15 92.45 L30.1 92.45" fill="none" stroke="#242119" stroke-linecap="round" stroke-linejoin="round" stroke-width="0.05"/>
    <path d="M-16.2 83.85 L-16.3 83.8 Q-16.8 83.55 -16.55 83.0 L-16.2 82.7 -15.75 82.7 -10.4 85.25 Q-10.25 85.25 -10.35 85.35 -10.35 85.5 -10.45 85.4 L-16.2 83.85 M34.55 65.4 L34.5 65.35 Q34.6 64.75 35.15 64.75 L35.55 64.95 35.7 65.35 34.95 84.2 34.85 84.25 34.8 84.15 34.55 65.4" fill="#242119" fill-rule="evenodd" stroke="none"/>
  </g>
</svg>
