<?xml version="1.0" encoding="UTF-8" standalone="no"?>
<svg xmlns:xlink="http://www.w3.org/1999/xlink" height="242.95px" width="216.05px" xmlns="http://www.w3.org/2000/svg">
  <g transform="matrix(1.0, 0.0, 0.0, 1.0, 108.3, 121.5)">
    <path d="M-91.05 6.85 L-107.7 -8.55 -102.4 -63.3 -79.65 -120.9 Q-83.35 -82.4 -81.0 -51.8 -79.5 -32.4 -75.55 -16.2 -73.15 -6.25 -69.8 2.55 -67.55 8.5 -64.85 13.95 -53.8 30.4 -41.95 43.35 L-33.75 51.8 Q-17.0 67.95 1.35 77.5 20.9 87.7 42.35 90.35 L49.6 90.5 Q58.3 89.85 66.0 88.35 72.15 87.15 77.65 85.4 L78.5 87.15 86.55 99.55 76.3 102.6 Q70.85 104.15 66.0 106.1 54.65 110.65 46.6 117.65 41.25 120.95 28.25 120.85 25.1 115.65 21.0 111.65 19.1 116.15 15.25 118.85 L10.8 117.1 Q7.55 118.3 4.9 120.65 -17.5 114.5 -36.4 105.4 -55.3 96.25 -68.1 88.3 L-71.25 74.95 Q-76.35 73.8 -80.7 74.95 -95.25 56.7 -102.45 32.0 L-96.85 20.9 -105.2 20.9 -106.45 14.4 -91.05 6.85 Q-80.55 13.2 -70.05 20.8 -80.55 13.2 -91.05 6.85 M49.6 90.5 L66.0 89.45 78.5 87.15 66.0 89.45 49.6 90.5" fill="#8bcca5" fill-rule="evenodd" stroke="none"/>
    <path d="M-79.65 -120.9 Q-71.15 -92.35 -61.85 -63.6 L-67.4 -48.7 -56.5 -47.4 Q-46.25 -16.4 -35.0 14.75 L-35.0 28.1 -29.15 30.15 Q-15.9 62.35 1.35 77.5 -17.0 67.95 -33.75 51.8 L-41.95 43.35 Q-53.8 30.4 -64.85 13.95 -67.55 8.5 -69.8 2.55 -73.15 -6.25 -75.55 -16.2 -79.5 -32.4 -81.0 -51.8 -83.35 -82.4 -79.65 -120.9 M-35.35 34.55 L-35.0 28.1 -35.35 34.55" fill="#73bf96" fill-rule="evenodd" stroke="none"/>
    <path d="M77.65 85.4 L83.15 83.4 Q92.45 79.75 94.35 78.55 L99.9 79.7 107.65 79.7 Q102.35 87.25 90.5 96.3 L86.55 99.55 78.5 87.15 77.65 85.4 M84.3 85.55 L78.5 87.15 84.3 85.55" fill="url(#gradient0)" fill-rule="evenodd" stroke="none"/>
    <path d="M-79.65 -120.9 L-102.4 -63.3 -107.7 -8.55 -91.05 6.85 Q-80.55 13.2 -70.05 20.8 M-79.65 -120.9 Q-71.15 -92.35 -61.85 -63.6 L-67.4 -48.7 -56.5 -47.4 Q-46.25 -16.4 -35.0 14.75 L-35.0 28.1 -29.15 30.15 Q-15.9 62.35 1.35 77.5 20.9 87.7 42.35 90.35 L49.6 90.5 Q58.3 89.85 66.0 88.35 72.15 87.15 77.65 85.4 L83.15 83.4 M90.5 96.3 L86.55 99.55 76.3 102.6 Q70.85 104.15 66.0 106.1 54.65 110.65 46.6 117.65 41.25 120.95 28.25 120.85 25.1 115.65 21.0 111.65 19.1 116.15 15.25 118.85 L10.8 117.1 Q7.55 118.3 4.9 120.65 -17.5 114.5 -36.4 105.4 -55.3 96.25 -68.1 88.3 L-71.25 74.95 Q-76.35 73.8 -80.7 74.95 -95.25 56.7 -102.45 32.0 L-96.85 20.9 -105.2 20.9 -106.45 14.4 -91.05 6.85 M-69.8 2.55 Q-73.15 -6.25 -75.55 -16.2 -79.5 -32.4 -81.0 -51.8 -83.35 -82.4 -79.65 -120.9 M-35.0 28.1 L-35.35 34.55 M78.5 87.15 L66.0 89.45 49.6 90.5 M78.5 87.15 L84.3 85.55 M1.35 77.5 Q-17.0 67.95 -33.75 51.8" fill="none" stroke="#242119" stroke-linecap="round" stroke-linejoin="round" stroke-width="1.2000000000000002"/>
    <path d="M-96.85 21.5 L-96.95 21.5 Q-97.6 21.4 -97.5 20.8 -97.4 20.2 -96.85 20.3 L-92.25 20.8 -92.15 20.85 -92.25 21.0 -96.85 21.5 M-71.45 75.5 L-71.6 75.45 Q-72.1 75.1 -71.85 74.6 -71.6 74.05 -71.0 74.35 L-68.15 75.95 -68.1 76.05 -68.2 76.1 -71.45 75.5 M-33.25 51.4 Q-32.85 51.8 -33.3 52.25 L-34.15 52.2 -42.0 43.4 -42.0 43.25 -41.85 43.25 -33.25 51.4 M-70.4 21.25 L-70.45 21.2 Q-70.9 20.85 -70.5 20.35 L-69.65 20.3 -63.55 25.45 -63.55 25.6 -63.7 25.6 -70.4 21.25 M-64.75 13.9 L-64.8 14.0 -64.9 13.95 -70.35 2.75 -70.35 2.7 Q-70.55 2.15 -70.0 1.95 -69.35 1.75 -69.2 2.3 L-64.75 13.9 M-35.9 34.45 L-35.9 34.4 Q-35.8 33.8 -35.2 33.9 -34.6 34.0 -34.75 34.6 L-36.4 43.6 -36.5 43.65 -36.55 43.55 -35.9 34.45 M21.45 111.25 L21.6 111.4 Q21.9 112.0 21.35 112.25 20.85 112.5 20.5 112.0 L19.5 110.25 19.55 110.05 19.85 110.0 21.45 111.25 M107.55 79.6 L107.7 79.6 107.7 79.75 106.3 81.7 106.2 81.8 106.0 82.1 103.85 84.7 101.45 87.25 90.85 96.75 90.8 96.75 Q90.35 97.1 90.0 96.65 89.65 96.2 90.1 95.8 L96.1 91.2 103.5 84.4 103.65 84.2 106.1 81.5 106.2 81.35 107.55 79.6 M83.35 83.95 L83.3 83.95 Q82.75 84.15 82.55 83.6 82.4 83.05 82.9 82.8 L94.0 78.6 94.15 78.5 94.25 78.45 94.4 78.45 94.4 78.6 93.95 78.9 83.35 83.95 M102.4 78.4 Q102.5 78.3 102.5 78.45 L102.45 78.55 100.05 79.8 99.95 79.8 99.9 79.85 99.75 79.95 98.4 80.55 98.05 80.75 91.95 83.4 90.3 84.05 84.45 86.1 84.4 86.1 83.95 86.05 83.7 85.7 Q83.55 85.15 84.1 84.95 L99.75 79.55 99.8 79.5 99.9 79.5 102.4 78.4" fill="#242119" fill-rule="evenodd" stroke="none"/>
  </g>
  <defs>
    <linearGradient gradientTransform="matrix(-0.0146, 0.0084, -0.0079, -0.0137, 94.35, 87.3)" gradientUnits="userSpaceOnUse" id="gradient0" spreadMethod="pad" x1="-819.2" x2="819.2">
      <stop offset="0.6352941176470588" stop-color="#f7e2aa"/>
      <stop offset="1.0" stop-color="#8bcca5"/>
    </linearGradient>
  </defs>
</svg>
