<?xml version="1.0" encoding="UTF-8" standalone="no"?>
<svg xmlns:xlink="http://www.w3.org/1999/xlink" height="173.75px" width="132.7px" xmlns="http://www.w3.org/2000/svg">
  <g transform="matrix(1.0, 0.0, 0.0, 1.0, 66.05, 89.05)">
    <path d="M3.9 -88.45 L60.25 -6.3 Q52.1 0.65 38.6 5.0 23.4 7.2 8.15 5.1 L41.45 35.7 Q36.8 43.3 32.05 52.0 22.45 69.6 15.25 84.05 L-42.6 49.8 Q-48.15 43.15 -48.6 35.55 L-60.35 42.2 Q-62.9 36.35 -64.8 32.55 L-65.25 31.5 Q-67.95 23.25 -61.3 -4.05 -59.2 -12.75 -55.95 -20.75 -48.25 -39.7 -34.15 -54.65 -22.55 -67.0 -11.6 -76.4 -3.7 -83.2 3.9 -88.45" fill="#f7e2aa" fill-rule="evenodd" stroke="none"/>
    <path d="M-60.35 42.2 L-48.6 35.55 Q-48.15 43.15 -42.6 49.8 L15.25 84.05 Q5.3 84.2 -3.05 83.75 L-3.15 83.75 -27.35 74.55 Q-28.85 76.0 -35.25 76.85 -49.75 67.9 -55.15 54.65 L-57.9 47.9 Q-56.05 51.5 -53.1 52.95 -49.15 55.65 -48.6 51.85 -48.0 46.2 -50.0 37.45 L-59.15 45.05 -60.35 42.2 M41.45 35.7 L8.15 5.1 Q23.4 7.2 38.6 5.0 52.1 0.65 60.25 -6.3 L66.05 2.15 Q54.2 14.75 41.45 35.7" fill="#d2be91" fill-rule="evenodd" stroke="none"/>
    <path d="M-57.9 47.9 L-59.1 45.1 -59.15 45.05 -50.0 37.45 Q-48.0 46.2 -48.6 51.85 -49.15 55.65 -53.1 52.95 -56.05 51.5 -57.9 47.9 M-53.6 47.9 L-53.05 49.95 -52.9 50.0 -52.8 49.95 -52.3 48.05 -50.75 48.75 -50.55 48.7 -50.55 48.55 -52.2 47.0 -52.05 46.8 -52.0 46.55 -51.8 44.25 -51.85 44.15 -52.0 44.2 -53.2 46.1 -53.25 46.2 -54.4 45.6 -54.8 45.7 -54.7 46.05 -53.7 47.15 -53.5 47.5 -53.6 47.6 -53.6 47.9" fill="#c1ae86" fill-rule="evenodd" stroke="none"/>
    <path d="M-53.6 47.9 L-53.6 47.6 -53.5 47.5 -53.7 47.15 -54.7 46.05 -54.8 45.7 -54.4 45.6 -53.25 46.2 -53.2 46.1 -52.0 44.2 -51.85 44.15 -51.8 44.25 -52.0 46.55 -52.05 46.8 -52.2 47.0 -50.55 48.55 -50.55 48.7 -50.75 48.75 -52.3 48.05 -52.8 49.95 -52.9 50.0 -53.05 49.95 -53.6 47.9" fill="#242119" fill-rule="evenodd" stroke="none"/>
    <path d="M3.9 -88.45 Q-3.7 -83.2 -11.6 -76.4 -22.55 -67.0 -34.15 -54.65 -48.25 -39.7 -55.95 -20.75 M15.25 84.05 Q22.45 69.6 32.05 52.0 36.8 43.3 41.45 35.7 54.2 14.75 66.05 2.15 M-3.05 83.75 Q5.3 84.2 15.25 84.05 M-55.15 54.65 Q-49.75 67.9 -35.25 76.85" fill="none" stroke="#242119" stroke-linecap="round" stroke-linejoin="round" stroke-width="1.2000000000000002"/>
    <path d="M-56.5 -20.95 L-56.45 -21.0 Q-56.3 -21.5 -55.7 -21.3 -55.15 -21.05 -55.35 -20.5 L-60.45 -6.65 -61.2 -4.0 Q-61.2 -3.85 -61.3 -3.95 L-61.35 -4.05 -60.65 -7.35 -56.5 -20.95" fill="#242119" fill-rule="evenodd" stroke="none"/>
  </g>
</svg>
