<?xml version="1.0" encoding="UTF-8" standalone="no"?>
<svg xmlns:xlink="http://www.w3.org/1999/xlink" height="52.15px" width="76.15px" xmlns="http://www.w3.org/2000/svg">
  <g transform="matrix(1.0, 0.0, 0.0, 1.0, 38.05, 26.05)">
    <path d="M34.7 5.15 L37.0 10.65 Q39.9 17.65 26.75 21.8 18.45 28.55 3.3 22.95 -2.35 24.2 -9.55 21.6 -16.75 19.0 -18.95 14.6 -34.15 1.05 -37.45 -9.55 -37.45 -12.1 -35.9 -13.1 -34.65 -12.05 -33.75 -13.1 -34.65 -15.05 -33.75 -16.6 -28.2 -16.15 -23.55 -17.85 L-24.9 -20.45 -22.55 -19.85 Q-20.6 -19.5 -18.65 -19.85 L-16.5 -20.45 Q-17.95 -21.9 -16.5 -22.85 -14.05 -21.45 -11.2 -22.85 -9.9 -24.35 -11.2 -25.45 -8.2 -25.4 -5.7 -23.75 L6.15 -7.5 Q8.9 -3.6 19.55 -3.4 30.15 -3.25 34.65 4.95 L34.7 5.15" fill="#8c6032" fill-rule="evenodd" stroke="none"/>
    <path d="M34.7 5.15 L34.65 4.95 34.75 5.2 34.7 5.15" fill="#ac7538" fill-rule="evenodd" stroke="none"/>
    <path d="M34.65 4.95 Q30.15 -3.25 19.55 -3.4 8.9 -3.6 6.15 -7.5 L-5.7 -23.75 Q-8.2 -25.4 -11.2 -25.45 -9.9 -24.35 -11.2 -22.85 -14.05 -21.45 -16.5 -22.85 -17.95 -21.9 -16.5 -20.45 L-18.65 -19.85 Q-20.6 -19.5 -22.55 -19.85 L-24.9 -20.45 -23.55 -17.85 Q-28.2 -16.15 -33.75 -16.6 -34.65 -15.05 -33.75 -13.1 -34.65 -12.05 -35.9 -13.1 -37.45 -12.1 -37.45 -9.55 -34.15 1.05 -18.95 14.6 -16.75 19.0 -9.55 21.6 -2.35 24.2 3.3 22.95 18.45 28.55 26.75 21.8 39.9 17.65 37.0 10.65 L34.7 5.15 34.65 4.95 34.75 5.2 34.7 5.15" fill="none" stroke="#242119" stroke-linecap="round" stroke-linejoin="round" stroke-width="1.2000000000000002"/>
    <path d="M14.15 5.75 L14.1 5.65 Q14.1 5.5 14.2 5.6 L14.45 5.6 17.95 6.0 19.75 6.45 21.7 7.2 23.6 8.35 25.3 9.95 26.55 11.95 27.25 14.1 27.6 16.15 27.6 19.65 27.3 21.9 Q27.2 22.5 26.6 22.4 26.0 22.2 26.15 21.65 L26.5 19.5 26.65 16.25 26.4 14.25 25.8 12.25 24.75 10.4 23.25 8.8 21.45 7.65 19.6 6.85 17.9 6.35 16.35 6.05 14.15 5.75 M35.1 4.7 L35.1 4.75 Q35.55 5.15 35.1 5.6 L34.25 5.55 33.6 4.85 33.45 4.75 32.75 4.05 32.5 3.9 32.3 3.7 31.75 3.35 31.5 3.15 29.95 2.2 29.8 2.15 29.6 2.05 27.0 1.05 23.8 0.5 23.45 0.5 23.05 0.45 20.15 0.5 18.45 0.7 18.25 0.7 Q18.15 0.8 18.15 0.65 18.05 0.55 18.2 0.55 L20.35 0.15 21.3 0.1 21.65 0.05 21.95 0.05 22.35 0.0 23.85 0.0 25.5 0.1 27.15 0.4 28.8 0.85 29.2 0.95 30.15 1.35 30.35 1.4 32.9 2.85 34.55 4.15 35.1 4.7" fill="#242119" fill-rule="evenodd" stroke="none"/>
  </g>
</svg>
