<?xml version="1.0" encoding="UTF-8" standalone="no"?>
<svg xmlns:xlink="http://www.w3.org/1999/xlink" height="154.85px" width="311.95px" xmlns="http://www.w3.org/2000/svg">
  <g transform="matrix(1.0, 0.0, 0.0, 1.0, 156.0, 77.4)">
    <path d="M-94.45 -61.2 L-94.35 -61.1 23.6 -22.5 23.55 -22.45 28.7 15.8 37.55 16.7 42.15 17.3 51.55 18.75 Q42.85 24.7 29.9 26.8 23.25 27.35 17.75 28.45 23.25 27.35 29.9 26.8 45.35 25.45 67.1 26.8 63.15 32.9 53.4 37.25 68.75 36.0 93.55 40.6 88.7 46.25 80.3 49.15 100.3 47.3 120.0 54.45 115.5 57.7 110.0 60.35 L105.7 60.4 Q55.45 57.65 13.15 45.3 -41.95 24.35 -81.2 -13.85 -92.0 -24.75 -95.55 -36.25 -97.6 -42.8 -94.45 -61.15 L-94.45 -61.2 M75.4 49.75 L80.3 49.15 75.4 49.75 M22.25 60.05 Q18.95 63.05 18.2 66.1 -1.55 61.45 -19.6 54.85 -15.9 52.7 -15.95 47.85 2.3 55.25 22.25 60.05 M46.35 38.2 L53.4 37.25 46.35 38.2 M-1.2 17.55 Q4.75 15.65 13.65 15.35 L28.7 15.8 13.65 15.35 Q4.75 15.65 -1.2 17.55 M-39.85 46.55 Q-113.5 -3.15 -135.85 -36.25 -147.15 -52.9 -145.45 -65.35 -145.75 -71.1 -144.0 -75.35 L-133.05 -73.8 Q-137.5 -73.9 -138.95 -66.1 -139.35 -61.7 -136.15 -57.5 L-129.3 -44.5 -123.4 -36.25 -122.3 -34.75 Q-112.35 -21.55 -101.25 -10.0 -72.5 20.0 -36.2 38.6 -35.4 43.4 -39.85 46.55" fill="#837f7e" fill-opacity="0.99607843" fill-rule="evenodd" stroke="none"/>
    <path d="M82.5 68.45 Q90.5 68.85 98.7 68.9 117.8 69.75 133.35 68.55 L134.3 68.55 135.4 68.6 138.8 68.85 Q149.4 70.0 155.35 75.8 78.7 80.25 18.2 66.1 18.95 63.05 22.25 60.05 50.65 66.85 82.5 68.45 M-36.2 38.6 Q-26.35 43.65 -15.95 47.85 -15.9 52.7 -19.6 54.85 -30.0 51.0 -39.85 46.55 -35.4 43.4 -36.2 38.6" fill="#494748" fill-opacity="0.99607843" fill-rule="evenodd" stroke="none"/>
    <path d="M-94.45 -61.2 L-94.45 -61.15 Q-97.6 -42.8 -95.55 -36.25 -92.0 -24.75 -81.2 -13.85 -41.95 24.35 13.15 45.3 55.45 57.65 105.7 60.4 L110.0 60.35 Q131.6 60.15 148.05 64.25 144.85 67.0 138.8 68.85 L135.4 68.6 134.3 68.55 133.35 68.55 Q117.8 69.75 98.7 68.9 90.5 68.85 82.5 68.45 50.65 66.85 22.25 60.05 2.3 55.25 -15.95 47.85 -26.35 43.65 -36.2 38.6 -72.5 20.0 -101.25 -10.0 -112.35 -21.55 -122.3 -34.75 L-123.4 -36.25 -129.3 -44.5 -136.15 -57.5 Q-139.35 -61.7 -138.95 -66.1 -137.5 -73.9 -133.05 -73.8 L-94.45 -61.2" fill="#747170" fill-opacity="0.99607843" fill-rule="evenodd" stroke="none"/>
    <path d="M37.55 16.7 L28.7 15.8 23.55 -22.45 37.55 16.7" fill="#837f7e" fill-rule="evenodd" stroke="none"/>
    <path d="M-39.85 46.55 Q-86.0 25.55 -119.55 -10.0 -131.15 -22.25 -141.2 -36.25 -146.8 -44.0 -151.95 -52.3 -157.35 -66.3 -154.25 -76.8 L-144.0 -75.35 Q-145.75 -71.1 -145.45 -65.35 -147.15 -52.9 -135.85 -36.25 -113.5 -3.15 -39.85 46.55" fill="#929497" fill-opacity="0.99607843" fill-rule="evenodd" stroke="none"/>
    <path d="M105.7 60.4 L110.0 60.35 Q115.5 57.7 120.0 54.45 100.3 47.3 80.3 49.15 L75.4 49.75 M82.5 68.45 Q50.65 66.85 22.25 60.05 2.3 55.25 -15.95 47.85 -26.35 43.65 -36.2 38.6 -72.5 20.0 -101.25 -10.0 -112.35 -21.55 -122.3 -34.75 M18.2 66.1 Q78.7 80.25 155.35 75.8 149.4 70.0 138.8 68.85 L135.4 68.6 M134.3 68.55 L133.35 68.55 M138.8 68.85 Q144.85 67.0 148.05 64.25 131.6 60.15 110.0 60.35 M53.4 37.25 L46.35 38.2 M68.15 26.85 L67.1 26.8 Q63.15 32.9 53.4 37.25 68.75 36.0 93.55 40.6 88.7 46.25 80.3 49.15 M29.9 26.8 Q42.85 24.7 51.55 18.75 L42.15 17.3 37.55 16.7 28.7 15.8 13.65 15.35 Q4.75 15.65 -1.2 17.55 M29.9 26.8 Q23.25 27.35 17.75 28.45 M67.1 26.8 Q45.35 25.45 29.9 26.8 M-154.25 -76.8 Q-157.35 -66.3 -151.95 -52.3 -146.8 -44.0 -141.2 -36.25 -131.15 -22.25 -119.55 -10.0 -86.0 25.55 -39.85 46.55 -30.0 51.0 -19.6 54.85 -1.55 61.45 18.2 66.1 M-133.05 -73.8 Q-137.5 -73.9 -138.95 -66.1" fill="none" stroke="#272625" stroke-linecap="round" stroke-linejoin="round" stroke-width="1.2000000000000002"/>
    <path d="M135.4 68.6 L134.3 68.55" fill="none" stroke="#272625" stroke-linecap="round" stroke-linejoin="round" stroke-width="0.05"/>
    <path d="M-136.15 -57.5 L-129.3 -44.5" fill="none" stroke="#272625" stroke-linecap="round" stroke-linejoin="miter-clip" stroke-miterlimit="10.0" stroke-width="0.05"/>
    <path d="M98.7 68.8 L98.75 68.85 98.65 68.95 98.0 69.0 82.4 69.0 Q81.85 69.0 81.85 68.4 81.95 67.75 82.5 67.85 L98.7 68.8 M-1.2 16.95 L-1.15 17.0 Q-0.65 17.15 -0.85 17.75 -1.1 18.3 -1.65 18.1 L-5.1 16.5 -6.0 16.0 -6.5 15.75 -15.0 10.45 -22.15 4.75 -26.65 0.5 -26.65 0.35 -26.5 0.35 -21.85 4.45 -17.5 7.85 -7.6 14.05 -1.2 16.95 M-121.8 -35.1 L-121.75 -35.05 Q-121.5 -34.5 -121.95 -34.2 -122.35 -33.85 -122.75 -34.35 L-129.35 -44.4 -129.35 -44.55 -129.2 -44.55 -121.8 -35.1 M-139.5 -66.1 L-139.5 -66.2 -139.3 -66.6 -138.85 -66.7 Q-138.25 -66.6 -138.35 -66.05 L-138.35 -65.65 -138.4 -65.55 -138.4 -65.2 -138.45 -64.95 -138.45 -64.35 -138.4 -64.0 -138.4 -63.45 -138.35 -63.25 -138.2 -62.45 -138.2 -62.25 -138.1 -61.85 -138.0 -61.65 -137.9 -61.2 -137.6 -60.45 -137.55 -60.25 -137.15 -59.35 -136.8 -58.75 -136.75 -58.6 -136.65 -58.5 -136.4 -58.05 -136.05 -57.55 -136.05 -57.4 -136.2 -57.4 -136.9 -58.3 -137.0 -58.45 -137.1 -58.55 -138.0 -60.0 -138.7 -61.4 -138.75 -61.6 -138.85 -61.8 -138.9 -62.05 -139.0 -62.25 -139.45 -64.25 -139.45 -64.45 -139.5 -64.6 -139.5 -65.25 -139.55 -65.5 -139.55 -65.7 -139.5 -66.1" fill="#272625" fill-rule="evenodd" stroke="none"/>
  </g>
</svg>
