<?xml version="1.0" encoding="UTF-8" standalone="no"?>
<svg xmlns:xlink="http://www.w3.org/1999/xlink" height="32.1px" width="59.25px" xmlns="http://www.w3.org/2000/svg">
  <g transform="matrix(1.0, 0.0, 0.0, 1.0, 29.6, 16.05)">
    <path d="M-1.3 -13.2 Q4.6 -6.4 11.1 -3.7 3.75 2.2 -4.95 -1.9 -6.4 -9.85 -1.55 -13.05 L-1.3 -13.2 M-18.6 -4.35 Q-11.8 1.1 -2.45 2.45 4.5 3.1 9.05 0.8 L22.6 -10.85 Q29.35 -5.05 29.05 6.9 28.0 11.45 22.4 14.6 17.55 16.55 11.0 14.05 3.15 4.3 -10.85 7.75 -12.8 8.9 -15.1 7.75 -16.95 4.25 -20.0 4.2 L-19.6 3.15 Q-20.35 -0.8 -18.6 -4.35" fill="#837f7e" fill-opacity="0.99607843" fill-rule="evenodd" stroke="none"/>
    <path d="M0.65 -14.2 Q-0.45 -13.8 -1.3 -13.2 L-1.55 -13.05 Q-5.05 -13.7 -11.6 -8.95 -6.6 -16.65 0.65 -14.2 M-16.4 -7.65 Q-17.8 -6.05 -18.6 -4.35 -25.7 -7.1 -29.0 5.65 -29.3 -9.15 -16.4 -7.65" fill="#504d4d" fill-opacity="0.99607843" fill-rule="evenodd" stroke="none"/>
    <path d="M-4.95 -1.9 Q-8.9 -2.3 -13.15 -6.25 L-11.6 -8.95 Q-5.05 -13.7 -1.55 -13.05 -6.4 -9.85 -4.95 -1.9 M16.2 -14.5 Q12.45 -12.95 11.55 -7.8 9.9 -8.35 8.15 -9.35 12.2 -17.8 16.2 -14.5 M-19.6 3.15 Q-24.7 0.35 -29.0 5.65 -25.7 -7.1 -18.6 -4.35 -20.35 -0.8 -19.6 3.15" fill="#444140" fill-rule="evenodd" stroke="none"/>
    <path d="M0.65 -14.2 L1.7 -14.55 Q5.05 -11.2 8.15 -9.35 9.9 -8.35 11.55 -7.8 12.45 -12.95 16.2 -14.5 19.9 -13.15 22.6 -10.85 L9.05 0.8 Q4.5 3.1 -2.45 2.45 -11.8 1.1 -18.6 -4.35 -17.8 -6.05 -16.4 -7.65 L-15.45 -8.65 -13.15 -6.25 Q-8.9 -2.3 -4.95 -1.9 3.75 2.2 11.1 -3.7 4.6 -6.4 -1.3 -13.2 -0.45 -13.8 0.65 -14.2" fill="#929497" fill-opacity="0.99607843" fill-rule="evenodd" stroke="none"/>
    <path d="M-1.3 -13.2 L-1.55 -13.05" fill="none" stroke="#272625" stroke-linecap="round" stroke-linejoin="miter-clip" stroke-miterlimit="10.0" stroke-width="0.05"/>
    <path d="M8.15 -9.35 Q5.05 -11.2 1.7 -14.55 L0.65 -14.2 Q-0.45 -13.8 -1.3 -13.2 M11.1 -3.7 Q3.75 2.2 -4.95 -1.9 -8.9 -2.3 -13.15 -6.25 L-15.45 -8.65 -16.4 -7.65 Q-17.8 -6.05 -18.6 -4.35 -20.35 -0.8 -19.6 3.15 L-20.0 4.2 Q-16.95 4.25 -15.1 7.75 -12.8 8.9 -10.85 7.75 3.15 4.3 11.0 14.05 17.55 16.55 22.4 14.6 28.0 11.45 29.05 6.9 29.35 -5.05 22.6 -10.85 19.9 -13.15 16.2 -14.5 12.45 -12.95 11.55 -7.8 9.9 -8.35 8.15 -9.35 12.2 -17.8 16.2 -14.5 M-1.55 -13.05 Q-6.4 -9.85 -4.95 -1.9 M-11.6 -8.95 L-13.15 -6.25 M-11.6 -8.95 Q-6.6 -16.65 0.65 -14.2 M-29.0 5.65 Q-24.7 0.35 -19.6 3.15 M-29.0 5.65 Q-29.3 -9.15 -16.4 -7.65" fill="none" stroke="#272625" stroke-linecap="round" stroke-linejoin="round" stroke-width="1.2000000000000002"/>
  </g>
</svg>
