<?xml version="1.0" encoding="UTF-8" standalone="no"?>
<svg xmlns:xlink="http://www.w3.org/1999/xlink" height="70.4px" width="92.75px" xmlns="http://www.w3.org/2000/svg">
  <g transform="matrix(1.0, 0.0, 0.0, 1.0, 46.4, 35.5)">
    <path d="M17.85 -27.3 Q21.85 -29.3 25.8 -28.5 32.7 -23.85 45.75 -25.4 25.95 -16.3 7.45 -10.8 2.0 -9.05 -3.95 -2.25 -17.5 13.25 -26.75 26.7 -33.6 32.0 -45.8 31.55 -29.2 26.05 -9.6 -5.35 L3.25 -34.2 8.65 -34.9 Q12.35 -26.4 9.05 -14.6 14.35 -20.15 17.85 -27.3" fill="#929497" fill-opacity="0.99607843" fill-rule="evenodd" stroke="none"/>
    <path d="M25.8 -28.5 Q21.85 -29.3 17.85 -27.3 14.35 -20.15 9.05 -14.6 12.35 -26.4 8.65 -34.9 18.0 -35.25 24.65 -29.35 L25.8 -28.5 M-45.8 31.55 Q-33.6 32.0 -26.75 26.7 -17.5 13.25 -3.95 -2.25 2.0 -9.05 7.45 -10.8 25.95 -16.3 45.75 -25.4 34.6 -15.55 15.45 -10.5 L11.8 -9.6 Q8.55 -9.2 6.35 -5.7 2.85 -0.75 -4.75 5.25 -15.15 17.45 -20.65 29.8 -25.15 39.05 -45.8 31.55" fill="#837f7e" fill-opacity="0.99607843" fill-rule="evenodd" stroke="none"/>
    <path d="M6.35 -5.7 Q8.55 -9.2 11.8 -9.6 L15.45 -10.5 Q5.55 0.55 -4.75 5.25 2.85 -0.75 6.35 -5.7" fill="#747170" fill-opacity="0.99607843" fill-rule="evenodd" stroke="none"/>
    <path d="M25.8 -28.5 L24.65 -29.35 Q18.0 -35.25 8.65 -34.9 L3.25 -34.2 -9.6 -5.35 Q-29.2 26.05 -45.8 31.55 M9.05 -14.6 Q14.35 -20.15 17.85 -27.3 M45.75 -25.4 Q32.7 -23.85 25.8 -28.5 M15.45 -10.5 L11.8 -9.6 Q8.55 -9.2 6.35 -5.7 M-4.75 5.25 Q5.55 0.55 15.45 -10.5 34.6 -15.55 45.75 -25.4 M-20.65 29.8 Q-15.15 17.45 -4.75 5.25" fill="none" stroke="#272625" stroke-linecap="round" stroke-linejoin="round" stroke-width="1.2000000000000002"/>
  </g>
</svg>
