<?xml version="1.0" encoding="UTF-8" standalone="no"?>
<svg xmlns:xlink="http://www.w3.org/1999/xlink" height="75.9px" width="48.8px" xmlns="http://www.w3.org/2000/svg">
  <g transform="matrix(1.0, 0.0, 0.0, 1.0, 24.4, 38.25)">
    <path d="M12.7 -28.85 L15.2 -30.65 Q19.65 -34.0 23.8 -37.65 7.0 -5.65 -0.7 -5.25 -8.1 11.8 -13.75 31.45 -16.35 35.4 -23.8 36.65 -14.1 13.5 -9.65 -8.0 -10.15 -17.55 -7.95 -28.6 L-4.25 -30.15 -4.0 -28.7 Q-3.5 -22.2 2.35 -22.3 7.7 -25.4 12.7 -28.85 M-0.7 -5.25 Q1.15 -7.15 1.9 -18.35 1.15 -7.15 -0.7 -5.25" fill="#929497" fill-opacity="0.99607843" fill-rule="evenodd" stroke="none"/>
    <path d="M-4.25 -30.15 Q0.7 -31.85 5.1 -30.75 L12.7 -28.85 Q7.7 -25.4 2.35 -22.3 -3.5 -22.2 -4.0 -28.7 L-4.25 -30.15 M23.8 -37.65 Q17.9 -13.7 6.55 -4.75 -0.65 9.7 -3.4 20.0 -5.5 27.85 -4.7 34.4 -13.0 39.45 -23.8 36.65 -16.35 35.4 -13.75 31.45 -8.1 11.8 -0.7 -5.25 7.0 -5.65 23.8 -37.65 M0.45 0.85 Q0.75 -1.85 2.35 -2.1 4.5 -3.2 6.55 -4.75 4.5 -3.2 2.35 -2.1 0.75 -1.85 0.45 0.85" fill="#837f7e" fill-opacity="0.99607843" fill-rule="evenodd" stroke="none"/>
    <path d="M12.7 -28.85 L15.2 -30.65 Q19.65 -34.0 23.8 -37.65 17.9 -13.7 6.55 -4.75 -0.65 9.7 -3.4 20.0 -5.5 27.85 -4.7 34.4 M-23.8 36.65 Q-14.1 13.5 -9.65 -8.0 -10.15 -17.55 -7.95 -28.6 M2.35 -22.3 Q7.7 -25.4 12.7 -28.85 M6.55 -4.75 Q4.5 -3.2 2.35 -2.1 0.75 -1.85 0.45 0.85 M1.9 -18.35 Q1.15 -7.15 -0.7 -5.25" fill="none" stroke="#272625" stroke-linecap="round" stroke-linejoin="round" stroke-width="1.2000000000000002"/>
  </g>
</svg>
