<?xml version="1.0" encoding="UTF-8" standalone="no"?>
<svg xmlns:xlink="http://www.w3.org/1999/xlink" height="114.7px" width="60.2px" xmlns="http://www.w3.org/2000/svg">
  <g transform="matrix(1.0, 0.0, 0.0, 1.0, 30.1, 57.65)">
    <path d="M-16.7 -54.6 Q1.35 -60.55 22.25 -52.05 L23.25 -47.75 Q25.05 -41.05 29.5 -37.75 L26.6 -35.85 Q29.05 -29.75 26.95 -22.15 L26.9 -22.4 Q27.6 -16.25 25.55 -11.1 24.45 -12.7 24.55 -16.6 21.35 -24.4 16.65 -26.5 18.95 -24.25 19.3 -21.8 12.75 -25.5 7.7 -25.7 L3.7 -25.35 Q-2.85 -25.2 -16.3 -37.8 -17.05 -46.3 -16.7 -54.6 M26.9 -22.4 L26.5 -25.0 26.9 -22.4" fill="#684626" fill-opacity="0.99607843" fill-rule="evenodd" stroke="none"/>
    <path d="M24.55 -16.6 L24.45 -15.7 Q23.4 -6.35 20.75 3.35 L20.75 11.25 19.2 8.6 18.55 10.6 Q18.35 12.25 17.3 13.25 14.8 13.2 12.5 11.35 L11.2 10.7 Q9.1 10.0 8.05 11.9 8.75 12.95 7.35 14.2 5.7 14.05 3.95 12.4 0.15 11.25 -3.05 12.9 L-3.85 13.35 Q-3.85 10.3 -5.6 7.6 L-6.95 3.9 Q-9.25 -2.85 -8.9 -6.55 L-6.85 -4.95 Q-8.95 -13.7 -13.5 -18.9 -16.85 -25.05 -16.3 -37.8 -2.85 -25.2 3.7 -25.35 L7.7 -25.7 Q12.75 -25.5 19.3 -21.8 18.95 -24.25 16.65 -26.5 21.35 -24.4 24.55 -16.6" fill="#7b532d" fill-opacity="0.99607843" fill-rule="evenodd" stroke="none"/>
    <path d="M18.55 10.6 Q20.35 14.85 20.8 19.9 L20.85 20.2 Q23.05 23.5 22.9 28.45 L21.05 26.0 20.9 25.0 20.25 25.0 Q19.55 26.6 18.1 26.75 17.5 25.35 15.35 25.1 13.6 25.8 13.45 27.9 10.55 27.75 9.0 25.9 7.5 29.2 4.3 31.0 1.45 29.85 1.6 27.8 0.4 29.85 -1.15 30.85 L-2.85 32.7 Q-0.75 29.0 0.5 24.25 1.05 20.35 -3.05 12.9 0.15 11.25 3.95 12.4 5.7 14.05 7.35 14.2 8.75 12.95 8.05 11.9 9.1 10.0 11.2 10.7 L12.5 11.35 Q14.8 13.2 17.3 13.25 18.35 12.25 18.55 10.6" fill="#3f3d3c" fill-rule="evenodd" stroke="none"/>
    <path d="M21.05 26.0 Q22.9 41.95 22.85 55.15 14.05 54.1 12.85 57.05 10.8 55.55 6.75 55.45 4.15 39.6 4.3 31.0 7.5 29.2 9.0 25.9 10.55 27.75 13.45 27.9 13.6 25.8 15.35 25.1 17.5 25.35 18.1 26.75 19.55 26.6 20.25 25.0 L21.05 26.0" fill="#837f7e" fill-opacity="0.99607843" fill-rule="evenodd" stroke="none"/>
    <path d="M6.75 55.45 L2.8 55.55 Q-0.2 45.2 -1.15 30.85 0.4 29.85 1.6 27.8 1.45 29.85 4.3 31.0 4.15 39.6 6.75 55.45 M20.25 25.0 L20.9 25.0 21.05 26.0 20.25 25.0" fill="#929497" fill-opacity="0.99607843" fill-rule="evenodd" stroke="none"/>
    <path d="M-3.85 14.75 L-5.6 17.55 Q-6.35 12.95 -8.85 9.75 -17.45 -1.75 -22.5 -15.7 -28.0 -30.6 -29.5 -48.35 -23.3 -52.45 -16.7 -54.6 -17.05 -46.3 -16.3 -37.8 -16.85 -25.05 -13.5 -18.9 -8.95 -13.7 -6.85 -4.95 L-8.9 -6.55 Q-9.25 -2.85 -6.95 3.9 L-5.6 7.6 Q-3.85 10.3 -3.85 13.35 L-4.0 13.45 -3.85 14.0 -3.85 14.75" fill="#855a28" fill-rule="evenodd" stroke="none"/>
    <path d="M-2.85 32.7 L-3.55 33.4 Q-3.4 28.8 -1.85 25.0 L-4.85 28.1 Q-4.7 22.05 -4.15 18.2 -3.85 16.0 -3.85 14.75 L-3.85 14.0 -3.85 13.35 -3.05 12.9 Q1.05 20.35 0.5 24.25 -0.75 29.0 -2.85 32.7" fill="#494748" fill-opacity="0.99607843" fill-rule="evenodd" stroke="none"/>
    <path d="M-3.85 13.35 L-3.85 14.0 -4.0 13.45 -3.85 13.35" fill="#2d2c2d" fill-opacity="0.9607843" fill-rule="evenodd" stroke="none"/>
    <path d="M-16.7 -54.6 Q1.35 -60.55 22.25 -52.05 L23.25 -47.75 Q25.05 -41.05 29.5 -37.75 L26.6 -35.85 Q29.05 -29.75 26.95 -22.15 L26.9 -22.4 Q27.6 -16.25 25.55 -11.1 24.45 -12.7 24.55 -16.6 L24.45 -15.7 Q23.4 -6.35 20.75 3.35 L20.75 11.25 19.2 8.6 18.55 10.6 Q18.35 12.25 17.3 13.25 14.8 13.2 12.5 11.35 L11.2 10.7 Q9.1 10.0 8.05 11.9 8.75 12.95 7.35 14.2 5.7 14.05 3.95 12.4 0.15 11.25 -3.05 12.9 L-3.85 13.35 -4.0 13.45 -3.85 14.0 -3.85 14.75 -5.6 17.55 Q-6.35 12.95 -8.85 9.75 -17.45 -1.75 -22.5 -15.7 -28.0 -30.6 -29.5 -48.35 -23.3 -52.45 -16.7 -54.6 M21.05 26.0 Q22.9 41.95 22.85 55.15 M2.8 55.55 Q-0.2 45.2 -1.15 30.85 M26.5 -25.0 L26.9 -22.4 M20.9 25.0 L21.05 26.0 20.25 25.0 M-3.85 14.0 L-3.85 13.35" fill="none" stroke="#272625" stroke-linecap="round" stroke-linejoin="round" stroke-width="1.2000000000000002"/>
    <path d="M18.55 10.6 Q20.35 14.85 20.8 19.9 L20.85 20.2 Q23.05 23.5 22.9 28.45 L21.05 26.0 M-1.15 30.85 L-2.85 32.7 -3.55 33.4 Q-3.4 28.8 -1.85 25.0 L-4.85 28.1 Q-4.7 22.05 -4.15 18.2 -3.85 16.0 -3.85 14.75 M-1.15 30.85 Q0.4 29.85 1.6 27.8 1.45 29.85 4.3 31.0 7.5 29.2 9.0 25.9 10.55 27.75 13.45 27.9 13.6 25.8 15.35 25.1 17.5 25.35 18.1 26.75 19.55 26.6 20.25 25.0 L20.9 25.0" fill="none" stroke="#272625" stroke-linecap="round" stroke-linejoin="miter-clip" stroke-miterlimit="8.0" stroke-width="1.2000000000000002"/>
    <path d="M-3.25 13.3 L-3.2 13.4 Q-3.3 14.0 -3.85 14.0 -4.5 13.9 -4.4 13.35 L-4.4 11.75 -4.45 11.5 -4.45 11.25 -4.5 10.95 -4.55 10.85 -4.55 10.7 -4.65 10.15 -4.8 9.75 -4.8 9.65 -5.05 8.9 -5.4 8.15 -5.5 8.0 -5.55 7.85 -5.65 7.65 -5.65 7.5 -5.5 7.5 -5.35 7.75 -5.25 7.85 -4.8 8.5 -4.3 9.4 -4.25 9.55 -4.15 9.7 -3.8 10.65 -3.75 10.75 -3.55 11.3 -3.3 12.55 -3.3 12.75 -3.25 12.9 -3.25 13.3 M11.65 10.3 L11.7 10.4 Q12.1 10.9 11.55 11.25 11.0 11.5 10.7 11.05 L10.6 10.9 10.55 10.8 10.45 10.7 10.4 10.55 10.2 10.25 9.95 9.7 9.35 7.95 9.35 7.75 9.3 7.65 9.3 7.35 9.25 7.2 9.25 6.45 Q9.15 6.35 9.3 6.35 9.4 6.25 9.4 6.4 L9.45 6.6 9.5 6.7 9.55 6.85 9.55 6.95 9.7 7.45 9.8 7.65 9.85 7.8 10.05 8.2 10.9 9.55 11.05 9.65 11.15 9.8 11.65 10.3 M27.05 -25.2 L27.05 -25.1 Q27.2 -24.5 26.65 -24.35 26.1 -24.15 25.9 -24.75 L24.45 -29.75 24.5 -29.85 24.6 -29.8 27.05 -25.2 M27.0 -36.25 L27.15 -36.1 Q27.5 -35.6 27.0 -35.25 26.5 -34.85 26.15 -35.4 L24.65 -37.5 24.65 -37.6 24.8 -37.65 27.0 -36.25" fill="#272625" fill-rule="evenodd" stroke="none"/>
  </g>
</svg>
