<?xml version="1.0" encoding="UTF-8" standalone="no"?>
<svg xmlns:xlink="http://www.w3.org/1999/xlink" height="18.0px" width="24.35px" xmlns="http://www.w3.org/2000/svg">
  <g transform="matrix(1.0, 0.0, 0.0, 1.0, -78.45, -2.35)">
    <path d="M91.7 10.45 L90.9 11.3 Q90.35 10.1 90.35 8.8 L90.4 7.85 90.25 7.7 Q90.05 7.5 90.2 7.45 L89.7 7.25 Q88.75 6.85 89.45 6.4 L92.1 7.1 92.45 7.35 Q93.75 7.85 94.85 8.6 L95.05 8.5 95.35 8.4 95.9 8.0 96.75 7.75 97.4 7.85 Q98.15 7.15 99.45 7.0 L101.3 6.5 102.6 6.65 102.8 6.85 Q101.15 7.7 99.1 8.15 L97.65 8.2 97.0 8.7 95.9 9.15 95.8 9.1 95.6 9.15 97.35 11.0 98.1 12.1 Q98.9 13.55 98.45 15.1 L98.4 15.15 Q98.5 16.5 98.05 18.0 L97.25 19.3 97.3 18.95 96.9 19.65 Q96.4 20.5 95.55 20.3 L94.95 20.05 Q94.8 18.8 95.65 17.85 L96.0 17.6 96.85 15.85 97.25 14.9 97.0 15.6 Q95.85 18.05 95.8 20.1 96.65 19.65 97.15 18.85 L97.45 18.6 Q97.8 18.0 97.75 17.55 98.95 14.5 97.25 11.55 96.85 12.3 97.2 13.6 L96.65 12.15 96.95 11.95 95.7 10.5 Q94.25 9.6 92.65 8.9 L92.2 9.05 Q92.25 8.25 91.75 7.65 L90.9 6.95 Q90.6 7.0 90.65 7.3 L90.7 7.35 Q90.5 7.55 90.45 7.9 90.4 9.35 91.0 10.55 L91.7 10.45 M101.8 7.85 L102.15 8.3 102.2 8.85 102.0 9.2 101.95 9.2 101.8 9.25 101.5 8.85 101.4 8.1 Q101.45 7.85 101.65 7.85 L101.7 7.9 101.8 7.85 M102.05 10.05 Q102.7 10.35 102.25 10.8 L102.0 10.9 Q101.6 10.65 101.85 10.2 101.9 10.05 102.05 10.05 M91.45 8.95 L91.5 9.05 Q91.35 9.65 91.45 8.95 M93.5 8.15 L93.35 8.35 Q93.55 9.75 94.8 9.0 L94.6 8.75 93.5 8.15 M84.0 2.35 L85.35 2.4 Q85.75 2.45 85.8 2.8 L85.75 2.85 85.8 2.85 Q86.7 3.25 85.55 3.8 85.25 3.95 85.15 3.6 85.05 3.25 85.35 3.05 84.75 3.2 83.95 2.75 83.5 2.5 84.0 2.35 M79.95 4.9 L80.1 5.05 80.7 4.85 81.5 4.7 Q81.8 5.7 79.8 6.3 79.4 6.45 79.0 6.05 L79.3 5.6 79.25 5.5 Q79.25 5.05 79.7 5.0 L79.95 4.9 M78.6 6.15 Q79.1 7.2 78.45 6.25 L78.6 6.15" fill="#ffffff" fill-opacity="0.4" fill-rule="evenodd" stroke="none"/>
    <path d="M97.25 14.9 L97.25 13.8 97.2 13.6 Q96.85 12.3 97.25 11.55 98.95 14.5 97.75 17.55 97.8 18.0 97.45 18.6 L97.15 18.85 Q96.65 19.65 95.8 20.1 95.85 18.05 97.0 15.6 L97.25 14.9 M92.2 9.05 L91.85 10.15 91.7 10.45 91.0 10.55 Q90.4 9.35 90.45 7.9 90.5 7.55 90.7 7.35 L90.65 7.3 Q90.6 7.0 90.9 6.95 L91.75 7.65 Q92.25 8.25 92.2 9.05 M93.5 8.15 L94.6 8.75 94.8 9.0 Q93.55 9.75 93.35 8.35 L93.5 8.15 M91.45 8.95 Q91.35 9.65 91.5 9.05 L91.45 8.95" fill="#ffffff" fill-opacity="0.69803923" fill-rule="evenodd" stroke="none"/>
  </g>
</svg>
