<?xml version="1.0" encoding="UTF-8" standalone="no"?>
<svg xmlns:xlink="http://www.w3.org/1999/xlink" height="54.4px" width="41.45px" xmlns="http://www.w3.org/2000/svg">
  <g transform="matrix(1.0, 0.0, 0.0, 1.0, -67.65, 11.5)">
    <path d="M102.05 -9.25 Q101.7 -8.6 100.05 -7.8 L99.25 -7.65 97.3 -6.45 Q96.6 -6.05 96.25 -5.15 L96.1 -5.25 96.35 -3.95 Q96.55 -3.5 96.05 -3.35 94.75 -4.15 95.6 -6.0 L95.9 -6.25 95.9 -6.8 95.9 -7.0 99.85 -9.35 100.1 -9.5 Q99.7 -9.7 99.55 -10.25 99.35 -11.1 100.0 -11.5 L101.3 -11.1 Q102.1 -10.75 102.0 -10.15 L101.95 -10.05 102.15 -9.6 102.0 -9.8 101.55 -9.6 102.05 -9.25 M101.1 -9.5 Q100.7 -9.55 100.8 -9.35 101.45 -8.05 101.1 -9.5 M107.9 -7.65 L108.05 -7.2 108.6 -6.5 108.85 -5.85 Q107.35 -5.75 107.15 -7.2 L105.45 -7.7 Q104.65 -8.0 104.35 -8.3 103.55 -8.5 102.8 -9.25 102.6 -9.5 102.7 -9.6 L102.9 -9.4 Q105.8 -7.75 107.9 -7.65 M104.3 -9.45 Q105.7 -9.6 106.1 -8.95 L104.3 -9.45 M99.35 2.85 L97.75 2.9 Q98.4 1.7 100.1 0.3 102.15 0.5 102.85 2.35 L101.8 2.35 100.7 2.25 100.4 1.25 99.35 2.85 M102.05 8.1 Q102.05 7.5 101.7 7.1 101.3 6.7 100.75 6.7 L101.95 6.65 102.8 6.85 Q102.45 7.05 102.3 7.4 L102.05 8.1 M89.15 5.6 L89.1 6.0 89.5 8.9 Q90.05 12.15 90.85 14.6 L89.85 15.35 89.3 15.4 89.4 15.1 89.15 15.35 88.6 15.7 Q88.35 14.8 88.95 13.9 89.15 13.6 89.55 13.7 L89.65 13.9 89.9 11.7 Q89.9 10.85 88.5 8.6 L86.45 5.3 86.4 5.2 86.9 5.2 89.15 5.6 M92.6 8.95 L92.4 8.2 93.85 8.45 94.45 9.2 96.85 11.25 Q98.3 13.85 97.6 15.3 L96.55 17.8 96.55 18.65 97.25 18.7 97.4 18.7 Q97.95 18.75 97.7 19.05 97.4 19.35 97.4 18.7 97.35 23.35 94.85 24.85 95.95 22.55 96.55 20.1 L95.85 20.4 94.95 20.05 Q95.25 18.45 96.4 16.75 97.35 15.25 97.35 14.35 97.35 13.3 96.4 11.7 95.0 9.35 92.6 8.95 M94.05 25.45 L93.75 25.9 93.65 26.65 Q93.65 27.65 93.9 27.65 L95.15 27.45 95.2 27.45 95.3 27.35 95.35 27.35 95.6 27.2 95.75 27.45 95.65 28.0 Q95.5 28.4 94.85 28.4 L94.0 28.3 93.3 28.25 93.05 27.1 Q93.2 26.4 93.65 25.85 L94.05 25.45 M99.05 16.05 Q99.9 17.4 100.15 17.35 L100.25 17.25 100.35 15.6 100.85 18.5 101.0 20.1 100.85 21.05 100.6 21.5 99.65 21.6 99.45 19.05 99.05 16.05 M100.35 15.35 Q99.05 13.65 98.45 11.95 98.25 10.85 97.5 9.8 L97.15 9.35 96.9 8.65 98.1 8.3 97.6 8.75 97.8 9.55 98.5 8.8 98.55 10.3 98.35 10.55 Q98.35 11.5 99.6 13.65 L100.1 13.6 Q100.75 13.6 100.7 14.2 L100.35 15.35 M98.25 8.25 L100.25 8.05 102.05 8.15 102.65 9.55 103.1 11.0 102.85 11.2 102.1 11.05 102.0 10.9 Q100.45 10.05 100.0 9.4 L99.75 8.95 98.85 8.7 98.25 8.25 M109.05 19.25 Q108.9 20.45 108.05 20.85 L107.8 18.9 Q107.6 17.5 108.35 18.4 108.75 16.4 106.5 14.65 L105.75 13.9 Q104.8 13.5 104.25 12.15 103.85 11.15 104.55 10.75 106.75 11.3 106.7 13.2 L106.7 13.4 Q109.5 15.45 109.05 19.25 M102.25 20.2 Q104.15 21.45 102.3 20.7 101.65 20.45 102.25 20.2 M105.1 12.2 Q104.65 12.35 105.0 12.65 106.95 14.0 105.1 12.2 M100.7 11.55 L100.55 12.0 100.15 12.15 99.75 12.0 99.6 11.55 Q99.6 11.3 99.75 11.15 L100.15 10.95 100.55 11.15 100.7 11.55 M80.7 4.85 L81.1 4.85 81.55 5.2 Q80.45 5.95 79.4 6.35 L79.0 6.05 Q79.7 5.2 80.7 4.85 M84.0 2.35 L85.6 2.75 86.2 3.3 85.3 3.85 Q85.05 3.45 85.35 3.05 L83.95 3.0 83.75 2.55 84.0 2.35 M86.5 7.1 L86.3 7.95 85.8 8.25 Q85.5 8.25 85.3 7.95 L85.1 7.1 85.3 6.3 85.8 5.95 Q86.1 5.95 86.3 6.3 L86.5 7.1 M83.55 29.8 Q82.5 31.3 80.9 32.65 79.85 33.55 78.85 33.2 L83.0 28.4 82.5 28.35 Q83.2 27.0 84.2 25.9 85.2 23.45 86.6 20.75 L87.0 20.2 87.2 19.75 Q87.5 19.05 88.2 19.0 88.05 18.05 88.3 17.25 88.45 16.75 89.0 16.85 L89.05 17.4 89.25 17.4 89.2 18.0 89.25 18.0 Q90.0 19.7 89.05 18.55 88.9 18.95 88.85 18.4 L88.6 18.85 88.25 19.0 88.85 19.4 89.2 19.75 Q88.0 20.1 87.5 21.35 L87.1 22.35 87.0 22.0 Q86.35 21.9 86.4 22.65 L86.5 23.7 Q85.05 26.45 82.85 28.6 83.45 28.65 84.05 28.25 L83.05 29.5 Q83.25 29.8 83.55 29.8 M89.1 20.05 L88.45 21.65 88.45 21.5 89.1 20.05 M88.3 22.0 L87.85 22.75 87.75 22.95 87.75 22.8 88.25 21.9 88.3 22.0 M87.55 23.6 L87.4 24.05 87.35 23.55 87.4 23.45 87.55 23.6 M86.75 25.35 L85.55 26.85 85.2 26.95 86.65 24.75 86.75 25.35 M89.1 15.9 Q90.35 16.75 88.95 16.0 88.8 15.95 89.1 15.9 M92.7 31.4 Q92.9 32.25 92.25 33.1 91.85 33.65 91.9 32.95 91.8 32.3 92.1 31.7 92.3 31.35 92.7 31.4 M92.4 33.95 Q92.5 35.65 92.05 34.4 91.9 33.9 92.4 33.95 M77.85 33.95 Q78.1 34.65 77.45 35.4 L77.0 35.7 Q76.65 34.9 77.25 34.15 77.45 33.9 77.85 33.95 M67.9 42.05 L67.85 41.25 Q67.7 40.1 68.55 39.6 L69.5 39.75 Q69.45 39.65 69.7 39.6 L70.05 40.2 70.1 40.4 Q70.75 40.05 71.5 39.95 L71.35 39.55 73.4 38.75 73.35 38.75 Q75.1 39.7 73.8 38.55 74.4 38.2 74.95 37.8 L75.55 37.7 Q75.1 39.5 72.7 40.15 L72.25 39.6 71.95 39.75 72.6 40.15 71.55 40.0 70.5 41.25 70.4 40.85 70.05 40.95 67.9 42.05 M68.7 42.75 L68.5 42.85 68.4 42.9 68.05 42.75 68.7 42.75 M76.0 36.75 Q76.5 38.7 75.7 37.35 75.45 36.95 76.0 36.75" fill="#ffffff" fill-opacity="0.4" fill-rule="evenodd" stroke="none"/>
    <path d="M102.15 -9.6 Q102.65 -8.9 102.05 -9.25 L101.55 -9.6 102.0 -9.8 102.15 -9.6 M101.1 -9.5 Q101.45 -8.05 100.8 -9.35 100.7 -9.55 101.1 -9.5 M102.7 -9.6 Q102.55 -9.75 103.1 -9.8 L104.3 -9.45 106.1 -8.95 107.35 -8.65 Q108.05 -8.45 108.25 -7.65 L107.9 -7.65 Q105.8 -7.75 102.9 -9.4 L102.7 -9.6 M100.7 2.25 L100.65 3.35 99.95 3.75 Q99.55 3.65 99.35 2.85 L100.4 1.25 100.7 2.25 M100.75 6.7 Q101.3 6.7 101.7 7.1 102.05 7.5 102.05 8.1 L102.05 8.15 100.25 8.05 98.25 8.25 98.1 8.3 96.9 8.65 97.15 9.35 97.5 9.8 Q98.25 10.85 98.45 11.95 99.05 13.65 100.35 15.35 L100.35 15.6 100.25 17.25 100.15 17.35 Q99.9 17.4 99.05 16.05 L98.8 16.3 Q99.15 16.95 98.7 17.65 L98.7 17.7 Q99.1 18.1 98.95 18.55 L98.6 18.75 97.85 22.85 Q96.9 26.25 95.6 27.2 L95.35 27.35 95.3 27.35 95.2 27.45 95.15 27.45 93.9 27.65 Q93.65 27.65 93.65 26.65 L93.75 25.9 94.05 25.45 94.85 24.85 Q97.35 23.35 97.4 18.7 97.4 19.35 97.7 19.05 97.95 18.75 97.4 18.7 L97.25 18.7 96.55 18.65 96.55 17.8 97.6 15.3 Q98.3 13.85 96.85 11.25 L94.45 9.2 93.85 8.45 92.4 8.2 92.6 8.95 92.3 10.2 91.55 10.7 91.5 10.8 91.75 11.9 91.95 13.65 Q91.95 14.65 91.75 14.65 L90.85 14.6 Q90.05 12.15 89.5 8.9 L89.1 6.0 89.15 5.6 89.15 5.5 89.25 5.6 89.35 5.65 89.5 5.6 90.85 6.7 91.45 6.85 93.55 7.15 94.15 7.25 95.65 7.7 95.95 7.9 Q98.25 6.5 100.75 6.7 M105.1 12.2 Q106.95 14.0 105.0 12.65 104.65 12.35 105.1 12.2 M89.2 19.75 L89.25 19.7 89.1 20.05 88.45 21.5 88.45 21.65 Q88.55 22.45 88.3 22.0 L88.25 21.9 87.75 22.8 87.75 22.95 87.55 23.6 87.4 23.45 87.35 23.55 87.4 24.05 87.35 25.4 87.0 26.25 86.75 25.35 86.65 24.75 85.2 26.95 85.55 26.85 85.85 26.85 Q85.8 28.45 84.0 29.65 L83.55 29.8 Q83.25 29.8 83.05 29.5 L84.05 28.25 Q83.45 28.65 82.85 28.6 85.05 26.45 86.5 23.7 L86.4 22.65 Q86.35 21.9 87.0 22.0 L87.1 22.35 87.5 21.35 Q88.0 20.1 89.2 19.75 M73.4 38.75 L73.7 38.45 73.8 38.55 Q75.1 39.7 73.35 38.75 L73.4 38.75 M72.7 40.15 L72.6 40.15 71.95 39.75 72.25 39.6 72.7 40.15 M70.5 41.25 Q70.55 42.2 69.05 42.65 L68.7 42.75 68.05 42.75 Q67.65 42.6 67.65 42.1 L67.9 42.05 70.05 40.95 70.4 40.85 70.5 41.25" fill="#ffffff" fill-opacity="0.69803923" fill-rule="evenodd" stroke="none"/>
  </g>
</svg>
