<?xml version="1.0" encoding="UTF-8" standalone="no"?>
<svg xmlns:xlink="http://www.w3.org/1999/xlink" height="62.5px" width="42.0px" xmlns="http://www.w3.org/2000/svg">
  <g transform="matrix(1.0, 0.0, 0.0, 1.0, -67.65, 11.5)">
    <path d="M102.05 -9.25 Q101.7 -8.6 100.05 -7.8 L99.25 -7.65 97.3 -6.45 Q96.6 -6.05 96.25 -5.15 L96.1 -5.25 96.35 -3.95 Q96.55 -3.5 96.05 -3.35 94.75 -4.15 95.6 -6.0 L95.9 -6.25 95.9 -6.8 95.9 -7.0 99.85 -9.35 100.1 -9.5 Q99.7 -9.7 99.55 -10.25 99.35 -11.1 100.0 -11.5 L101.3 -11.1 Q102.1 -10.75 102.0 -10.15 L101.95 -10.05 102.15 -9.6 102.0 -9.8 101.55 -9.6 102.05 -9.25 M101.1 -9.5 Q100.7 -9.55 100.8 -9.35 101.45 -8.05 101.1 -9.5 M90.55 -0.1 L92.05 0.0 92.05 -0.05 92.05 -0.1 95.45 -0.05 Q96.65 -0.05 96.55 0.7 96.0 1.35 94.9 1.3 L94.3 1.3 93.4 1.55 Q91.25 1.5 90.4 0.2 90.2 -0.05 90.55 -0.1 M107.9 -7.65 L108.05 -7.2 108.6 -6.5 108.85 -5.85 Q107.35 -5.75 107.15 -7.2 L105.45 -7.7 Q104.65 -8.0 104.35 -8.3 103.55 -8.5 102.8 -9.25 102.6 -9.5 102.7 -9.6 L102.9 -9.4 Q105.8 -7.75 107.9 -7.65 M104.3 -9.45 Q105.7 -9.6 106.1 -8.95 L104.3 -9.45 M100.9 6.4 L103.5 5.7 Q103.2 5.5 103.35 5.25 L103.55 5.1 105.2 4.95 104.9 6.15 105.2 6.05 105.25 6.1 105.3 6.05 105.15 6.0 105.4 5.9 105.55 5.95 106.75 6.1 106.8 6.1 Q106.3 5.65 105.9 4.65 105.65 3.85 106.25 3.65 L107.85 5.55 Q108.15 5.95 108.05 6.5 L107.95 6.55 Q107.85 7.55 105.9 7.5 L106.55 9.1 106.6 9.75 Q105.25 9.8 105.3 7.85 105.3 7.6 105.45 7.5 L105.2 7.45 105.25 7.75 Q105.35 8.3 105.0 8.65 L104.8 8.8 104.75 8.85 104.65 9.2 105.65 10.2 105.35 10.25 105.75 11.25 Q106.75 11.9 106.7 13.2 L106.7 13.4 Q109.05 15.1 109.15 18.1 L108.65 18.55 108.4 18.5 108.35 18.35 Q108.65 16.85 107.4 15.5 107.15 16.7 107.05 15.2 L107.05 15.15 106.5 14.65 105.75 13.9 105.65 13.8 Q106.05 13.8 106.0 13.25 105.85 13.1 105.7 13.1 104.65 13.25 104.5 12.65 L104.55 11.0 Q104.65 7.45 101.55 6.25 L101.5 6.5 100.9 6.4 M109.0 19.55 Q108.8 20.5 108.05 20.85 L107.9 19.4 108.65 19.65 109.0 19.55 M105.4 13.8 L105.45 16.35 105.4 17.4 105.3 17.8 105.2 18.4 Q105.1 19.2 104.3 19.65 L104.3 19.1 Q104.45 19.45 104.6 18.1 L104.3 18.15 104.35 17.3 104.7 17.75 104.85 17.1 Q104.9 15.95 104.6 14.95 L104.45 14.95 104.5 13.65 104.5 13.6 105.4 13.8 M104.45 13.6 L104.45 13.65 104.3 14.5 102.55 12.3 102.35 11.95 101.95 11.55 102.25 11.15 102.1 11.05 102.0 10.9 101.4 10.55 98.6 9.65 98.55 10.3 98.35 10.55 Q98.35 11.5 99.6 13.65 L100.1 13.6 Q100.75 13.6 100.7 14.2 L100.35 15.35 Q99.05 13.65 98.45 11.95 98.25 10.85 97.5 9.8 L97.15 9.35 97.0 8.95 96.35 8.65 98.5 8.55 102.1 7.95 102.2 8.1 Q103.9 10.4 104.2 13.55 L104.45 13.6 M100.35 15.6 L100.85 18.5 101.0 20.1 100.85 21.05 100.6 21.5 100.35 21.55 100.4 23.75 Q101.25 26.65 100.05 29.85 L100.3 30.4 100.35 31.4 100.15 32.35 99.85 32.75 Q98.7 32.95 98.8 31.9 98.8 31.3 98.5 31.8 97.4 32.4 98.2 30.1 98.45 29.3 99.0 29.0 L99.25 29.4 99.3 26.5 99.15 26.55 99.3 25.0 99.2 23.4 98.9 22.0 98.85 21.4 98.45 19.95 Q98.3 18.8 98.3 17.45 98.35 16.6 98.8 16.35 L99.0 16.25 99.25 17.2 99.05 16.05 Q99.9 17.4 100.15 17.35 L100.25 17.25 100.35 15.6 M95.6 27.2 L95.75 27.45 95.65 28.0 Q95.5 28.4 94.85 28.4 L94.0 28.3 93.3 28.25 93.05 27.1 Q93.2 26.4 93.65 25.85 L94.05 25.45 93.75 25.9 93.65 26.65 Q93.65 27.65 93.9 27.65 L95.15 27.45 95.2 27.45 95.3 27.35 95.35 27.35 95.6 27.2 M94.85 24.85 Q95.95 22.55 96.55 20.1 L95.85 20.4 94.95 20.05 Q95.25 18.45 96.4 16.75 97.35 15.25 97.35 14.35 97.35 13.3 96.4 11.7 95.0 9.35 92.6 8.95 L92.4 8.2 93.85 8.45 94.45 9.2 96.85 11.25 Q98.3 13.85 97.6 15.3 L96.55 17.8 96.55 18.65 97.25 18.7 97.4 18.7 Q97.35 23.35 94.85 24.85 M90.85 14.6 L89.85 15.35 89.3 15.4 89.4 15.1 89.15 15.35 88.6 15.7 Q88.35 14.8 88.95 13.9 89.15 13.6 89.55 13.7 L89.65 13.9 89.9 11.7 Q89.9 10.85 88.5 8.6 L86.45 5.3 86.4 5.2 86.9 5.2 89.15 5.6 89.1 6.0 89.5 8.9 Q90.05 12.15 90.85 14.6 M99.35 2.85 L97.75 2.9 97.85 2.75 Q97.35 2.7 97.35 2.15 L98.75 1.5 98.85 1.45 99.05 1.25 Q98.75 0.95 98.7 0.45 98.65 0.15 99.05 0.25 L99.6 0.75 100.1 0.3 Q102.15 0.5 102.85 2.35 L101.8 2.35 100.7 2.25 100.4 1.25 99.35 2.85 M101.7 7.2 L100.8 7.15 101.6 6.95 101.7 7.2 M105.75 6.4 L105.5 6.5 Q106.6 7.3 105.75 6.4 M105.05 10.9 L105.25 11.0 105.0 10.7 105.05 10.9 M107.05 10.0 L108.45 12.4 108.6 13.2 Q107.4 12.8 106.55 10.65 106.3 9.95 107.05 10.0 M107.0 6.3 L106.95 6.25 106.9 6.35 107.0 6.3 M104.15 20.3 L104.3 20.3 Q104.5 22.0 104.05 20.6 L104.05 20.5 104.15 20.3 M102.25 20.2 Q104.15 21.45 102.3 20.7 101.65 20.45 102.25 20.2 M92.25 4.75 Q92.75 5.9 91.95 4.8 L92.25 4.75 M87.0 0.25 L89.35 1.55 90.45 1.7 90.8 1.8 Q92.55 1.6 92.55 2.7 L91.4 2.9 91.4 3.25 89.15 2.65 88.3 2.6 Q85.5 2.35 86.55 1.35 L87.3 1.4 87.4 1.35 86.75 0.65 Q86.35 0.2 87.0 0.25 M94.9 2.2 Q96.0 3.6 94.45 2.45 L94.9 2.2 M99.05 8.85 L99.4 9.15 99.2 8.9 99.05 8.85 M97.8 9.55 L97.95 9.4 97.8 9.3 97.8 9.55 M100.7 11.55 L100.55 12.0 100.15 12.15 99.75 12.0 99.6 11.55 Q99.6 11.3 99.75 11.15 L100.15 10.95 100.55 11.15 100.7 11.55 M85.6 2.75 L86.2 3.3 85.3 3.85 Q85.05 3.45 85.35 3.05 L84.25 3.05 84.15 3.1 83.05 3.2 Q83.3 2.35 84.05 1.7 L84.55 1.35 Q85.25 1.75 84.75 2.5 L85.6 2.75 M80.7 4.85 L81.1 4.85 81.55 5.2 Q80.45 5.95 79.4 6.35 L79.0 6.05 Q79.7 5.2 80.7 4.85 M86.5 7.1 L86.3 7.95 85.8 8.25 Q85.5 8.25 85.3 7.95 L85.1 7.1 85.3 6.3 85.8 5.95 Q86.1 5.95 86.3 6.3 L86.5 7.1 M82.7 7.7 Q84.8 8.85 82.45 7.8 82.05 7.65 82.7 7.7 M83.55 29.8 Q82.5 31.3 80.9 32.65 79.85 33.55 78.85 33.2 L83.0 28.4 82.5 28.35 Q83.2 27.0 84.2 25.9 85.2 23.45 86.6 20.75 L87.0 20.2 87.2 19.75 Q87.5 19.05 88.2 19.0 88.05 18.05 88.3 17.25 88.45 16.75 89.0 16.85 L89.05 17.4 89.25 17.4 89.2 18.0 89.25 18.0 Q90.0 19.7 89.05 18.55 88.9 18.95 88.85 18.4 L88.6 18.85 88.25 19.0 88.85 19.4 89.2 19.75 Q88.0 20.1 87.5 21.35 L87.1 22.35 87.0 22.0 Q86.35 21.9 86.4 22.65 L86.5 23.7 Q85.05 26.45 82.85 28.6 83.45 28.65 84.05 28.25 L83.05 29.5 Q83.25 29.8 83.55 29.8 M89.1 20.05 L88.45 21.65 88.45 21.5 89.1 20.05 M88.3 22.0 L87.85 22.75 87.75 22.95 87.75 22.8 88.25 21.9 88.3 22.0 M87.55 23.6 L87.4 24.05 87.35 23.55 87.4 23.45 87.55 23.6 M86.75 25.35 L85.55 26.85 85.2 26.95 86.65 24.75 86.75 25.35 M89.1 15.9 Q90.35 16.75 88.95 16.0 88.8 15.95 89.1 15.9 M99.2 21.15 L99.55 21.7 99.65 21.35 99.6 20.6 99.35 20.15 99.25 20.0 Q99.05 20.3 99.15 21.2 L99.2 21.15 M97.4 18.7 Q97.95 18.75 97.7 19.05 97.4 19.35 97.4 18.7 M93.0 28.55 L93.0 29.2 92.75 29.0 93.0 28.55 M95.75 28.25 L95.4 30.4 94.95 30.5 Q94.35 29.85 95.05 28.9 L95.75 28.25 M91.35 34.2 L92.4 31.55 Q92.75 30.5 93.25 29.9 93.3 34.1 90.65 37.75 89.8 38.85 88.8 38.8 L89.9 37.1 89.7 38.0 Q90.35 38.05 90.75 37.3 92.2 34.7 91.95 33.6 L91.35 34.2 M84.8 45.55 L84.45 46.75 Q84.05 48.25 82.4 48.85 L81.2 48.1 80.85 47.85 Q80.9 47.3 81.3 46.8 L81.6 46.35 Q82.5 45.85 83.45 45.55 83.55 44.6 84.3 44.2 L84.5 44.1 Q86.35 42.4 87.8 39.95 L88.5 39.45 Q87.7 41.45 86.25 43.35 L87.5 41.2 86.25 42.55 81.9 47.55 Q82.8 48.45 83.6 47.35 L84.8 45.55 M84.55 50.35 L86.4 51.0 84.2 50.65 84.55 50.35 M77.85 33.95 Q78.1 34.65 77.45 35.4 L77.0 35.7 Q76.65 34.9 77.25 34.15 77.45 33.9 77.85 33.95 M67.9 42.05 L67.85 41.25 Q67.7 40.1 68.55 39.6 L69.5 39.75 Q69.45 39.65 69.7 39.6 L70.05 40.2 70.1 40.4 Q70.75 40.05 71.5 39.95 L71.35 39.55 73.4 38.75 73.35 38.75 Q75.1 39.7 73.8 38.55 74.4 38.2 74.95 37.8 L75.55 37.7 Q75.1 39.5 72.7 40.15 L72.25 39.6 71.95 39.75 72.6 40.15 71.55 40.0 70.5 41.25 70.4 40.85 70.05 40.95 67.9 42.05 M68.7 42.75 L68.5 42.85 68.4 42.9 68.05 42.75 68.7 42.75 M76.55 49.3 Q77.75 50.15 76.35 49.45 L76.55 49.3 M76.0 36.75 Q76.5 38.7 75.7 37.35 75.45 36.95 76.0 36.75" fill="#ffffff" fill-opacity="0.4" fill-rule="evenodd" stroke="none"/>
    <path d="M102.15 -9.6 Q102.65 -8.9 102.05 -9.25 L101.55 -9.6 102.0 -9.8 102.15 -9.6 M101.1 -9.5 Q101.45 -8.05 100.8 -9.35 100.7 -9.55 101.1 -9.5 M102.7 -9.6 Q102.55 -9.75 103.1 -9.8 L104.3 -9.45 106.1 -8.95 107.35 -8.65 Q108.05 -8.45 108.25 -7.65 L107.9 -7.65 Q105.8 -7.75 102.9 -9.4 L102.7 -9.6 M109.15 18.1 Q109.4 18.0 109.65 18.6 L109.65 18.8 109.0 19.55 108.65 19.65 107.9 19.4 107.25 19.5 107.35 18.0 Q107.35 17.25 107.95 17.2 L108.35 18.35 108.4 18.5 108.65 18.55 109.15 18.1 M105.65 13.8 L105.4 13.8 104.5 13.6 104.45 13.6 104.2 13.55 Q103.9 10.4 102.2 8.1 L102.1 7.95 98.5 8.55 96.35 8.65 97.0 8.95 97.15 9.35 97.5 9.8 Q98.25 10.85 98.45 11.95 99.05 13.65 100.35 15.35 L100.35 15.6 100.25 17.25 100.15 17.35 Q99.9 17.4 99.05 16.05 L98.8 16.3 98.8 16.35 Q98.35 16.6 98.3 17.45 98.3 18.8 98.45 19.95 L97.85 22.85 Q96.9 26.25 95.6 27.2 L95.35 27.35 95.3 27.35 95.2 27.45 95.15 27.45 93.9 27.65 Q93.65 27.65 93.65 26.65 L93.75 25.9 94.05 25.45 94.85 24.85 Q97.35 23.35 97.4 18.7 L97.25 18.7 96.55 18.65 96.55 17.8 97.6 15.3 Q98.3 13.85 96.85 11.25 L94.45 9.2 93.85 8.45 92.4 8.2 92.6 8.95 92.3 10.2 91.55 10.7 91.5 10.8 91.75 11.9 91.95 13.65 Q91.95 14.65 91.75 14.65 L90.85 14.6 Q90.05 12.15 89.5 8.9 L89.1 6.0 89.15 5.6 89.15 5.5 89.25 5.6 89.35 5.65 89.5 5.6 90.85 6.7 91.45 6.85 93.55 7.15 94.15 7.25 95.65 7.7 95.9 7.85 96.1 7.8 96.75 7.45 Q97.75 6.55 99.6 6.6 L100.85 6.4 100.9 6.4 101.5 6.5 101.55 6.25 Q104.65 7.45 104.55 11.0 L104.5 12.65 Q104.65 13.25 105.7 13.1 105.85 13.1 106.0 13.25 106.05 13.8 105.65 13.8 M104.3 19.1 L104.2 18.4 Q104.15 18.2 104.3 18.15 L104.6 18.1 Q104.45 19.45 104.3 19.1 M104.35 17.3 Q103.95 16.6 104.1 15.3 104.15 15.0 104.45 14.95 L104.6 14.95 Q104.9 15.95 104.85 17.1 L104.7 17.75 104.35 17.3 M100.7 2.25 L100.65 3.35 99.95 3.75 Q99.55 3.65 99.35 2.85 L100.4 1.25 100.7 2.25 M105.75 6.4 Q106.6 7.3 105.5 6.5 L105.75 6.4 M101.7 7.2 L101.6 6.95 100.8 7.15 101.7 7.2 M104.05 20.5 L103.9 20.2 Q103.8 20.05 104.1 20.1 L104.15 20.3 104.05 20.5 M89.2 19.75 L89.25 19.7 89.1 20.05 88.45 21.5 88.45 21.65 Q88.55 22.45 88.3 22.0 L88.25 21.9 87.75 22.8 87.75 22.95 87.55 23.6 87.4 23.45 87.35 23.55 87.4 24.05 87.35 25.4 87.0 26.25 86.75 25.35 86.65 24.75 85.2 26.95 85.55 26.85 85.85 26.85 Q85.8 28.45 84.0 29.65 L83.55 29.8 Q83.25 29.8 83.05 29.5 L84.05 28.25 Q83.45 28.65 82.85 28.6 85.05 26.45 86.5 23.7 L86.4 22.65 Q86.35 21.9 87.0 22.0 L87.1 22.35 87.5 21.35 Q88.0 20.1 89.2 19.75 M97.4 18.7 Q97.4 19.35 97.7 19.05 97.95 18.75 97.4 18.7 M89.9 37.1 Q90.15 36.0 90.7 35.1 L91.35 34.2 91.95 33.6 Q92.2 34.7 90.75 37.3 90.35 38.05 89.7 38.0 L89.9 37.1 M86.25 43.35 L84.8 45.55 83.6 47.35 Q82.8 48.45 81.9 47.55 L86.25 42.55 87.5 41.2 86.25 43.35 M73.4 38.75 L73.7 38.45 73.8 38.55 Q75.1 39.7 73.35 38.75 L73.4 38.75 M72.7 40.15 L72.6 40.15 71.95 39.75 72.25 39.6 72.7 40.15 M70.5 41.25 Q70.55 42.2 69.05 42.65 L68.7 42.75 68.05 42.75 Q67.65 42.6 67.65 42.1 L67.9 42.05 70.05 40.95 70.4 40.85 70.5 41.25" fill="#ffffff" fill-opacity="0.69803923" fill-rule="evenodd" stroke="none"/>
  </g>
</svg>
