<?xml version="1.0" encoding="UTF-8" standalone="no"?>
<svg xmlns:xlink="http://www.w3.org/1999/xlink" height="62.5px" width="47.25px" xmlns="http://www.w3.org/2000/svg">
  <g transform="matrix(1.0, 0.0, 0.0, 1.0, -64.75, 11.5)">
    <path d="M70.6 -3.45 L71.1 -2.45 70.3 -1.8 Q69.6 -1.4 68.6 -1.35 67.75 -1.6 67.35 -2.25 L70.6 -3.45 M67.55 -1.8 L67.9 -1.55 68.0 -0.85 Q68.0 0.15 67.85 -0.25 67.2 0.4 66.25 0.6 L65.85 0.3 66.3 -0.7 Q66.85 -1.65 67.55 -1.8 M74.55 -1.15 L74.2 -0.7 73.35 -0.5 72.5 -0.7 Q72.15 -0.9 72.15 -1.15 L72.5 -1.6 73.35 -1.8 74.2 -1.6 74.55 -1.15 M82.9 3.45 L82.8 3.6 82.5 3.7 81.25 3.6 81.4 2.05 Q81.4 1.3 80.85 0.75 79.7 -0.45 76.6 -0.45 L75.55 -1.2 74.8 -2.1 74.9 -2.75 75.25 -3.0 Q87.8 -1.75 88.8 -0.15 L87.55 0.55 88.75 1.25 87.3 1.3 85.45 1.3 84.6 1.4 84.95 2.0 83.8 1.95 82.9 3.45 M91.8 1.8 L93.05 2.3 93.0 2.55 93.05 3.05 92.65 3.15 92.55 3.2 91.7 3.75 89.65 3.65 89.2 3.7 89.25 3.95 88.9 3.85 88.3 3.15 88.65 2.9 92.3 2.5 91.8 1.8 M94.75 2.4 L95.05 2.4 97.6 2.25 Q98.55 1.9 98.7 0.45 L98.45 0.35 98.9 0.25 100.3 0.25 Q101.75 0.55 102.5 2.45 L102.1 2.05 101.9 2.05 Q102.0 2.35 100.4 1.25 L100.05 1.95 Q100.25 2.25 101.05 2.6 L100.7 2.75 99.6 2.8 Q99.9 2.4 98.85 1.9 L98.45 2.0 Q98.3 2.05 98.3 2.7 L95.15 3.9 94.8 3.35 94.7 3.3 94.9 2.45 94.75 2.4 M104.4 3.5 Q104.8 2.8 105.75 2.8 L111.35 3.05 Q111.35 3.6 112.0 4.35 L111.9 4.7 106.95 4.4 107.85 5.4 Q108.05 5.65 108.05 6.25 108.05 7.55 105.9 7.5 L106.65 9.45 106.6 9.75 105.6 8.95 Q105.2 8.4 105.45 7.5 L105.2 7.45 104.95 8.25 Q104.65 8.7 104.65 9.2 104.65 9.7 105.0 9.75 105.35 9.75 105.35 10.25 L107.2 13.65 Q109.05 17.05 109.15 18.1 L108.65 18.3 108.95 18.25 108.35 18.35 Q107.8 15.15 107.5 15.25 L107.2 16.05 106.95 15.5 Q106.6 14.75 105.65 13.8 L106.0 13.25 Q104.85 13.25 104.25 9.75 103.75 6.8 102.15 6.35 L103.2 5.95 103.35 5.35 Q103.35 4.75 103.5 4.85 L104.05 5.1 Q104.5 5.75 105.1 5.65 L105.0 6.05 104.9 6.15 105.15 6.0 106.8 6.1 106.15 5.2 106.8 4.65 106.95 4.4 107.1 3.65 107.0 3.05 106.75 3.15 Q104.7 3.9 104.4 3.5 M109.0 19.55 L108.8 20.65 108.4 20.9 Q108.15 20.8 108.05 20.35 L107.9 19.4 109.0 19.55 M105.4 13.8 L105.3 18.25 Q105.2 18.8 104.3 19.65 L104.3 19.1 Q104.4 18.15 104.4 18.65 L104.4 19.2 Q104.6 18.9 104.3 18.15 L104.35 17.3 104.15 16.4 104.2 16.1 104.6 14.95 104.45 14.95 104.5 13.6 105.4 13.8 M104.45 13.6 L104.45 14.15 104.3 14.5 Q102.5 12.9 102.25 11.35 102.15 10.7 98.6 9.65 L98.5 9.9 Q98.35 10.0 98.35 10.55 98.35 11.65 99.1 12.7 99.75 13.6 100.1 13.6 100.65 13.6 100.65 13.95 L100.35 15.35 97.75 10.95 96.35 8.65 100.05 8.25 102.1 7.95 Q102.75 7.95 104.45 13.6 M100.35 15.6 L101.0 20.05 100.6 24.95 Q100.25 30.0 100.35 31.4 100.3 32.7 99.4 32.8 98.9 32.6 98.75 31.6 L98.1 31.95 97.95 32.1 97.9 31.55 Q97.9 29.85 98.55 29.45 L99.1 29.35 Q98.85 29.15 99.2 28.0 99.65 26.55 99.15 26.55 98.6 26.55 98.6 23.9 L98.45 19.95 98.3 17.45 Q98.3 16.85 98.45 16.7 L98.8 16.35 99.25 17.2 99.05 16.75 Q98.9 16.3 99.05 16.05 L100.15 17.35 100.35 15.6 M95.6 27.2 L95.75 27.55 95.65 28.2 95.75 28.3 95.75 28.25 95.3 30.5 94.95 30.5 Q94.7 30.8 94.7 29.8 94.7 29.15 94.95 28.9 L95.6 28.4 95.0 28.4 93.3 28.3 93.05 27.1 Q93.45 26.05 94.05 25.45 L93.8 25.8 Q93.65 26.05 93.65 26.65 93.65 27.4 93.9 27.65 L95.6 27.2 M94.85 24.85 Q96.55 21.1 96.55 20.1 96.55 19.6 96.1 19.85 L94.95 20.05 Q95.9 17.75 96.9 15.95 L97.35 14.35 Q97.35 13.1 96.75 11.85 95.55 9.4 92.6 8.95 L92.4 8.2 Q94.05 8.6 95.8 10.1 97.9 12.0 97.9 14.1 L96.55 18.2 96.6 18.7 97.4 18.7 97.4 18.75 Q97.6 21.0 96.5 22.9 L94.85 24.85 M90.85 14.6 Q90.2 15.3 89.3 15.4 L89.2 15.3 88.6 15.7 Q89.15 13.95 89.65 13.45 L89.9 11.9 Q88.8 8.1 86.65 6.8 86.8 7.35 86.45 7.75 L85.2 7.65 Q81.9 11.1 81.55 11.8 80.75 13.4 79.8 16.7 78.8 19.45 76.7 20.5 L75.85 20.5 Q75.7 20.25 75.7 19.25 75.7 18.1 76.1 17.9 L77.15 17.65 Q79.05 17.05 80.5 11.4 81.45 7.65 84.15 7.0 82.95 6.15 82.75 5.8 L82.75 5.7 84.0 5.9 85.8 6.2 86.4 6.4 Q86.8 6.35 86.4 5.2 L89.15 5.6 Q88.9 7.95 90.85 14.6 M91.55 6.85 L91.4 6.1 Q91.45 5.15 91.75 4.8 L91.95 4.65 92.05 4.8 92.55 5.45 92.6 5.65 92.6 6.95 Q92.35 7.45 92.0 7.3 L92.45 8.05 92.35 8.15 92.05 7.65 91.55 6.85 M85.5 3.8 L85.35 3.05 85.95 3.0 86.2 3.3 85.5 3.8 M90.45 -0.05 L89.5 -0.6 89.0 -1.2 89.4 -1.25 91.4 -1.15 Q91.7 -1.75 91.7 -0.75 91.7 -0.15 91.4 -0.1 L90.7 -0.1 92.05 0.0 92.05 -0.1 96.55 0.4 Q95.4 1.25 93.3 1.45 90.8 1.7 90.45 -0.05 M102.05 -9.25 L96.45 -3.7 96.05 -3.35 Q95.3 -3.4 95.3 -4.4 95.3 -5.9 96.15 -6.45 L100.1 -9.5 Q99.55 -9.95 99.55 -10.95 L100.0 -11.5 101.9 -11.1 Q101.95 -9.9 101.25 -9.0 L102.15 -9.6 102.05 -9.25 M101.25 -9.0 L101.1 -9.5 100.8 -9.35 101.1 -8.9 101.2 -8.95 101.1 -8.9 101.25 -8.7 101.3 -8.75 101.25 -9.0 M92.4 -1.35 L96.0 -1.1 96.15 -0.15 94.05 -0.05 Q93.4 -0.05 92.75 -0.6 92.15 -1.1 92.15 -1.35 L92.4 -1.35 M104.0 -1.55 L104.2 -1.15 104.55 -0.8 104.55 -0.6 104.15 -0.35 103.25 -0.25 Q102.7 -0.25 100.75 -1.3 L100.7 -1.45 104.0 -1.55 M107.9 -7.65 L108.85 -6.15 108.85 -5.85 Q107.8 -5.85 105.6 -7.35 103.85 -8.5 102.7 -9.6 103.3 -9.25 105.4 -8.45 107.45 -7.7 107.9 -7.65 M103.25 4.2 L102.85 4.25 Q102.45 4.35 102.5 4.65 L102.3 5.45 102.0 5.7 Q101.1 5.15 101.1 3.5 L101.1 2.75 101.2 2.7 Q102.3 3.4 103.25 4.2 M105.75 6.4 L105.5 6.5 106.2 6.9 105.75 6.4 M107.05 10.0 L108.6 12.8 108.6 13.2 107.45 12.0 Q106.55 10.95 106.55 10.5 L106.6 9.95 106.6 10.15 107.05 10.0 M104.05 20.5 L104.1 20.35 104.15 20.3 104.35 21.25 104.35 21.3 104.05 20.5 M102.25 20.2 L103.25 21.0 Q102.75 21.0 102.0 20.5 L102.25 20.2 M96.7 4.9 Q96.35 6.65 96.45 7.25 L95.35 4.7 96.7 4.9 M100.7 11.55 L100.55 12.0 100.15 12.15 99.75 12.0 99.6 11.55 Q99.6 11.3 99.75 11.15 L100.15 10.95 100.55 11.15 100.7 11.55 M81.1 4.85 L81.55 5.2 Q79.6 6.5 79.0 6.05 80.35 4.85 81.1 4.85 M83.55 29.8 L81.65 31.75 Q80.05 33.25 79.4 33.35 L78.85 33.2 81.5 30.25 Q82.5 29.05 82.5 28.35 82.5 27.4 83.7 25.85 85.55 23.5 87.2 19.75 L87.65 18.6 88.6 16.9 89.0 16.85 89.65 18.95 89.6 19.05 89.05 18.55 88.95 18.65 88.85 18.4 88.25 19.0 89.2 19.75 Q87.5 21.0 87.1 22.35 86.7 22.0 86.6 22.0 86.4 22.0 86.4 22.65 86.4 24.85 82.85 28.6 L83.7 28.8 84.05 28.45 Q83.95 29.25 83.05 29.5 L83.55 29.8 M88.3 22.0 L87.75 22.95 88.25 21.9 88.3 22.0 M87.55 23.6 L87.45 23.8 87.4 23.45 87.55 23.6 M86.75 25.35 L85.55 26.85 85.95 25.85 86.65 24.75 86.75 25.35 M89.1 15.9 L89.75 16.4 88.95 16.0 89.1 15.9 M99.55 21.7 Q99.8 20.9 99.35 20.15 L99.25 20.0 99.15 20.8 99.55 21.7 M91.35 34.2 L92.4 31.55 92.8 30.65 93.25 29.9 Q93.75 32.2 91.95 35.5 90.35 38.4 89.3 38.8 L88.8 38.8 89.9 37.1 89.7 38.0 90.05 38.05 Q90.6 37.75 91.35 36.05 L92.05 33.95 Q92.0 33.75 91.65 33.95 L91.35 34.2 M84.8 45.55 L84.15 47.45 Q83.5 48.65 82.4 48.85 L80.85 47.85 Q83.15 45.95 84.45 44.45 L88.15 39.65 88.5 39.45 86.25 43.35 87.5 41.2 81.9 47.55 82.8 47.95 Q83.35 47.75 84.8 45.55 M86.4 51.0 L84.2 50.65 85.45 50.7 86.4 51.0 M65.1 0.35 L65.7 1.4 65.65 1.45 64.75 0.6 65.1 0.35 M78.0 34.8 L77.85 35.45 77.45 35.7 77.05 35.45 76.9 34.8 Q76.9 34.45 77.05 34.2 77.2 33.9 77.45 33.9 77.7 33.9 77.85 34.2 L78.0 34.8 M76.0 36.75 L76.2 37.9 76.15 37.95 75.9 37.9 75.7 37.15 Q75.7 36.55 75.85 36.6 L76.0 36.75 M67.9 42.05 L68.0 39.95 68.25 39.8 69.1 39.6 Q69.75 39.6 70.0 39.95 L70.1 40.4 Q70.55 40.4 71.0 39.9 71.5 39.25 73.4 38.75 L73.35 38.75 74.4 39.2 73.8 38.55 Q74.35 38.15 74.95 37.8 L75.55 37.7 Q75.55 38.25 74.85 39.05 73.95 40.0 72.7 40.15 L72.6 40.15 72.2 40.1 71.55 40.0 Q71.0 40.0 70.9 40.4 L70.5 41.25 69.6 41.35 67.9 42.05 M68.7 42.75 L68.2 42.9 68.05 42.75 68.7 42.75 M76.55 49.3 L77.15 49.8 76.35 49.3 76.55 49.3" fill="#ffffff" fill-opacity="0.4" fill-rule="evenodd" stroke="none"/>
    <path d="M88.75 1.25 Q90.5 1.15 91.8 1.8 L92.3 2.5 88.65 2.9 88.3 3.15 88.9 3.85 88.95 4.2 88.55 4.35 87.55 4.2 Q87.05 4.2 86.7 4.6 86.35 5.0 85.85 5.0 L85.05 4.9 85.0 4.75 84.75 4.55 85.0 4.35 85.5 3.8 86.2 3.3 85.95 3.0 85.35 3.05 83.0 3.65 82.9 3.45 83.8 1.95 84.95 2.0 85.1 1.9 85.05 1.45 85.55 1.35 87.3 1.3 88.75 1.25 M93.05 2.3 L94.65 2.35 94.5 2.4 94.75 2.4 94.9 2.45 94.7 3.3 94.8 3.35 95.15 3.9 98.3 2.7 Q98.3 2.05 98.45 2.0 L98.85 1.9 Q99.9 2.4 99.6 2.8 L100.7 2.75 Q100.05 4.45 99.35 4.85 97.95 5.6 97.35 6.2 L99.3 6.65 100.9 6.4 100.85 6.35 101.55 6.25 102.15 6.35 Q103.75 6.8 104.25 9.75 104.85 13.25 106.0 13.25 L105.65 13.8 105.4 13.8 104.5 13.6 104.45 13.6 Q102.75 7.95 102.1 7.95 L100.05 8.25 96.35 8.65 97.75 10.95 100.35 15.35 100.35 15.6 100.15 17.35 99.05 16.05 98.8 16.35 98.45 16.7 Q98.3 16.85 98.3 17.45 L98.45 19.95 Q97.75 23.6 97.25 24.8 96.9 25.7 95.6 27.2 L93.9 27.65 Q93.65 27.4 93.65 26.65 93.65 26.05 93.8 25.8 L94.05 25.45 94.85 24.85 96.5 22.9 Q97.6 21.0 97.4 18.75 L97.4 18.7 96.6 18.7 96.55 18.2 97.9 14.1 Q97.9 12.0 95.8 10.1 94.05 8.6 92.4 8.2 L92.6 8.95 Q91.85 10.65 91.85 11.35 L91.95 13.85 91.9 14.6 90.85 14.6 Q88.9 7.95 89.15 5.6 L89.15 5.5 Q90.05 6.4 91.55 6.85 L92.05 7.65 92.35 8.15 92.45 8.05 92.0 7.3 Q92.35 7.45 92.6 6.95 94.95 7.45 95.9 7.85 L96.7 7.5 96.6 7.05 96.85 5.55 96.7 4.9 95.35 4.7 95.3 4.6 95.15 4.7 94.6 4.75 93.7 4.9 94.05 5.2 Q94.4 5.5 94.4 6.1 L94.25 6.9 93.95 7.05 92.6 5.65 92.55 5.45 92.5 4.85 92.05 4.8 91.95 4.65 91.75 4.8 90.7 4.85 89.9 4.65 89.25 3.95 89.2 3.7 89.65 3.65 91.7 3.75 Q92.0 3.75 92.25 4.15 L92.55 4.0 92.55 3.4 92.55 3.2 92.65 3.15 93.05 3.05 93.0 2.55 93.05 2.3 M102.5 2.45 L104.4 3.5 Q104.7 3.9 106.75 3.15 L107.0 3.05 107.1 3.65 106.95 4.4 106.8 4.65 106.15 5.2 105.1 5.65 Q104.5 5.75 104.05 5.1 L103.25 4.2 Q102.3 3.4 101.2 2.7 L101.05 2.6 Q100.25 2.25 100.05 1.95 L100.4 1.25 Q102.0 2.35 101.9 2.05 L102.1 2.05 102.5 2.45 M109.15 18.1 Q109.65 18.2 109.0 19.55 L107.9 19.4 107.25 19.5 Q107.4 17.5 107.95 17.2 L108.35 18.35 108.95 18.25 108.65 18.3 109.15 18.1 M104.3 19.1 L104.2 18.4 104.3 18.15 Q104.6 18.9 104.4 19.2 L104.4 18.65 Q104.4 18.15 104.3 19.1 M104.15 16.4 L104.1 15.85 104.2 15.1 104.45 14.95 104.6 14.95 104.2 16.1 104.15 16.4 M101.25 -9.0 L101.2 -8.95 101.25 -9.0 101.3 -8.75 101.25 -8.7 101.1 -8.9 101.2 -8.95 101.1 -8.9 100.8 -9.35 101.1 -9.5 101.25 -9.0 M102.15 -9.6 L102.3 -9.1 102.25 -9.3 102.05 -9.25 102.15 -9.6 M102.7 -9.6 L104.3 -9.45 Q105.7 -9.35 106.1 -8.95 106.85 -8.95 107.4 -8.55 107.9 -8.2 107.9 -7.65 107.45 -7.7 105.4 -8.45 103.3 -9.25 102.7 -9.6 M105.75 6.4 L106.2 6.9 105.5 6.5 105.75 6.4 M104.1 20.35 L104.05 20.5 104.1 20.1 104.1 20.35 M89.2 19.75 L89.1 20.05 88.45 21.65 88.45 22.2 88.3 22.0 88.25 21.9 87.75 22.95 87.55 23.6 87.4 23.45 87.45 23.8 87.4 24.05 87.35 25.85 87.0 26.25 86.75 25.35 86.65 24.75 85.95 25.85 85.55 26.85 Q85.55 28.05 85.0 28.95 84.4 29.8 83.55 29.8 L83.05 29.5 Q83.95 29.25 84.05 28.45 L83.7 28.8 82.85 28.6 Q86.4 24.85 86.4 22.65 86.4 22.0 86.6 22.0 86.7 22.0 87.1 22.35 87.5 21.0 89.2 19.75 M97.4 18.75 L97.6 18.85 97.85 18.95 97.6 19.2 97.4 18.75 M89.9 37.1 Q90.45 35.45 91.35 34.2 L91.65 33.95 Q92.0 33.75 92.05 33.95 L91.35 36.05 Q90.6 37.75 90.05 38.05 L89.7 38.0 89.9 37.1 M86.25 43.35 L84.8 45.55 Q83.35 47.75 82.8 47.95 L81.9 47.55 87.5 41.2 86.25 43.35 M73.4 38.75 L73.8 38.55 74.4 39.2 73.35 38.75 73.4 38.75 M70.5 41.25 Q70.5 41.85 70.0 42.3 L68.7 42.75 68.05 42.75 67.9 42.05 69.6 41.35 70.5 41.25" fill="#ffffff" fill-opacity="0.69803923" fill-rule="evenodd" stroke="none"/>
  </g>
</svg>
