<?xml version="1.0" encoding="UTF-8" standalone="no"?>
<svg xmlns:xlink="http://www.w3.org/1999/xlink" height="89.4px" width="99.9px" xmlns="http://www.w3.org/2000/svg">
  <g transform="matrix(1.0, 0.0, 0.0, 1.0, -19.45, 24.35)">
    <path d="M23.6 -8.65 L24.3 -7.95 23.5 -7.2 22.85 -6.3 21.3 -3.55 21.15 -3.95 20.4 -4.25 Q19.8 -4.25 19.65 -4.45 L19.5 -5.0 Q19.35 -5.9 19.7 -5.95 L21.3 -5.9 21.25 -6.85 Q21.45 -7.95 23.6 -8.65 M28.3 -10.4 Q28.9 -10.2 30.0 -10.4 L31.7 -10.6 Q32.7 -10.6 32.7 -10.3 L33.1 -9.75 Q31.5 -8.8 30.3 -8.8 L28.75 -9.15 27.8 -9.75 28.3 -10.4 M36.7 -2.05 Q36.7 -3.15 37.75 -3.9 38.75 -4.7 40.2 -4.7 42.45 -3.8 43.05 -3.9 L45.1 -5.05 44.8 -5.5 46.9 -5.7 49.65 -5.2 51.85 -4.55 52.35 -4.55 54.0 -4.0 53.2 -3.1 52.5 -3.45 51.2 -4.1 Q43.0 -4.1 39.35 -1.55 L37.65 0.25 37.35 1.15 Q37.35 1.75 38.0 1.7 L38.7 1.7 36.85 3.0 Q36.0 3.9 35.75 5.45 L35.2 4.65 Q34.85 4.7 34.6 4.85 34.2 5.1 34.4 6.5 34.5 7.05 34.75 7.5 L34.6 10.65 33.35 11.2 Q32.85 11.15 32.7 10.5 L33.55 8.95 34.25 6.7 34.45 3.95 Q34.7 2.1 35.25 0.5 L35.05 2.3 35.4 4.2 35.95 3.75 36.8 0.65 38.35 -1.55 Q39.65 -3.4 39.85 -4.55 L37.55 -2.8 36.7 -2.05 M74.55 -1.15 L74.2 -0.7 73.35 -0.5 72.5 -0.7 Q72.15 -0.9 72.15 -1.15 L72.5 -1.6 73.35 -1.8 74.2 -1.6 74.55 -1.15 M82.9 3.45 L82.5 3.7 81.6 3.05 81.4 2.5 Q81.4 0.15 78.1 -0.25 74.8 -0.6 74.8 -2.1 74.8 -3.1 74.9 -3.0 L83.45 -1.65 Q88.2 -0.7 88.8 -0.15 L87.55 0.55 88.75 1.25 87.3 1.3 85.8 1.3 85.8 1.15 Q86.9 1.45 85.25 0.05 83.6 -1.35 82.9 -1.65 L82.6 -1.45 82.55 -1.3 83.6 -0.15 84.6 0.85 Q84.0 1.15 83.7 1.75 L82.9 3.45 M91.8 1.8 L93.05 2.3 93.4 2.65 93.35 3.0 93.0 3.2 92.55 3.2 91.7 3.75 89.2 3.7 89.25 3.95 88.9 3.85 88.3 3.15 88.65 2.9 90.1 2.8 92.3 2.5 91.8 1.8 M94.75 2.4 L97.5 2.3 Q98.5 2.1 98.45 0.35 L99.6 0.25 Q100.0 0.25 100.55 0.55 101.6 1.1 102.5 2.45 L101.75 2.2 100.4 1.25 100.05 1.95 101.05 2.6 100.7 2.75 99.5 2.2 98.85 1.9 Q98.5 2.0 97.85 3.05 97.3 3.9 95.15 3.9 94.55 3.9 94.55 3.6 L94.7 3.3 Q94.9 3.3 94.75 2.4 M104.4 3.5 L104.8 3.05 Q105.1 2.8 105.75 2.8 L108.3 2.7 Q110.95 2.85 112.0 4.35 111.9 4.7 106.95 4.4 L108.1 5.5 113.7 5.6 114.05 5.8 Q114.4 6.0 114.4 6.6 114.4 7.2 113.9 7.25 L112.75 7.3 Q115.2 10.8 115.45 13.95 L112.7 12.4 Q110.25 10.85 109.65 9.3 L109.6 9.1 110.0 8.8 111.4 10.05 112.0 9.55 Q111.65 7.85 110.85 7.65 L109.55 7.65 108.5 7.4 107.35 7.3 106.55 7.4 105.9 7.5 106.65 9.45 Q105.6 8.65 105.2 7.45 L104.95 8.1 Q104.65 8.65 104.65 9.2 L106.4 11.95 Q108.3 15.1 109.15 18.1 L108.65 18.3 108.35 18.35 Q107.95 15.7 107.5 15.25 L107.2 16.05 106.75 15.15 105.65 13.8 106.05 13.45 105.4 12.6 Q104.8 12.05 104.6 11.3 L103.75 9.05 Q102.9 7.1 102.15 6.35 L103.25 5.95 103.4 4.95 104.05 5.1 104.75 5.35 105.7 5.35 106.15 5.2 106.95 4.4 107.05 3.65 107.0 3.05 Q105.05 3.8 104.4 3.5 M109.0 19.55 L108.8 20.65 108.4 20.95 Q108.15 20.85 108.05 20.4 107.9 19.9 107.9 19.4 L109.0 19.55 M105.4 13.8 L105.2 17.0 Q105.05 18.25 104.4 19.0 L104.3 19.1 104.4 18.6 104.4 18.55 104.3 18.15 104.15 16.4 104.6 14.95 104.45 14.95 104.5 13.6 105.4 13.8 M104.45 13.6 L104.3 14.5 101.95 11.3 Q101.1 10.15 98.6 9.65 L98.45 9.8 98.35 10.55 Q98.35 12.95 99.35 13.15 100.35 13.35 100.35 15.35 L97.9 11.25 96.35 8.65 100.55 8.1 102.1 7.95 Q102.5 7.95 103.25 9.75 104.05 11.6 104.45 13.6 M100.35 15.6 L101.0 20.15 100.75 22.8 100.5 27.3 Q100.45 31.2 100.0 32.2 L99.2 32.9 100.0 35.05 100.5 36.9 99.95 38.7 98.9 40.7 97.85 41.05 98.6 38.85 99.05 37.25 98.85 34.1 Q98.55 32.1 97.95 32.1 L97.9 31.55 Q97.9 30.05 98.7 29.35 99.45 28.65 99.45 26.95 L98.45 19.95 98.3 17.45 98.5 16.6 Q98.6 16.5 98.8 16.35 L99.25 17.2 Q98.9 16.35 99.05 16.05 L100.15 17.35 100.25 17.25 100.35 15.6 M95.6 27.2 L95.75 27.3 95.75 27.9 95.55 30.3 94.95 30.5 94.9 30.6 94.75 30.55 94.7 29.8 Q94.7 29.2 95.0 28.85 L95.6 28.4 93.3 28.4 93.05 27.1 93.7 26.05 93.65 26.65 93.7 27.4 93.9 27.65 95.6 27.2 M94.85 24.85 Q96.55 21.55 96.55 19.95 L95.5 20.1 94.95 20.05 Q97.35 16.0 97.35 14.35 97.35 12.65 96.0 11.15 94.65 9.6 92.6 8.95 L92.4 8.2 Q95.1 8.2 96.7 10.7 97.9 12.55 97.9 14.2 L97.25 15.75 Q96.55 17.4 96.55 18.2 L96.6 18.9 97.0 18.75 97.4 18.75 Q97.55 21.3 96.5 23.0 L94.85 24.85 M90.85 14.6 Q90.25 15.3 89.3 15.4 89.45 15.15 88.6 15.7 L89.55 13.75 89.9 12.2 Q89.9 11.55 88.8 9.7 87.65 7.8 86.75 7.1 L85.6 8.0 85.2 7.65 Q84.65 7.65 83.05 9.75 81.5 11.75 81.15 12.75 L79.15 18.0 Q78.3 19.65 76.7 20.5 L75.85 20.5 Q75.7 20.25 75.7 19.25 75.7 18.2 76.4 17.95 77.65 17.5 78.95 15.8 L80.85 11.45 Q82.5 7.75 84.15 7.0 L82.75 5.8 82.75 5.7 86.4 6.4 86.5 5.8 86.4 5.2 89.15 5.6 Q89.0 6.55 89.65 9.8 L90.85 14.6 M91.55 6.85 Q91.35 5.9 91.75 4.85 L91.75 4.8 92.05 4.8 92.55 5.45 92.6 5.65 92.6 6.95 92.05 7.3 91.55 6.85 M85.5 3.8 L85.35 3.05 85.95 3.0 Q86.2 3.3 85.5 3.8 M98.25 -9.2 L97.9 -9.6 Q97.65 -9.8 97.65 -10.4 97.65 -10.7 99.05 -12.45 100.6 -14.45 101.15 -16.5 L101.7 -18.85 102.5 -19.85 Q102.75 -19.8 103.35 -20.1 L104.3 -20.65 Q104.0 -19.35 103.7 -19.1 103.55 -19.0 102.5 -12.95 102.4 -11.75 101.25 -9.0 L101.2 -8.95 101.25 -8.7 101.25 -9.0 102.15 -9.6 102.05 -9.25 100.7 -7.9 Q101.35 -11.4 101.55 -14.8 L100.8 -14.3 Q99.35 -12.6 98.85 -11.1 L98.25 -9.2 M103.1 -21.75 L103.35 -23.45 103.75 -24.35 103.95 -24.3 104.45 -23.55 104.55 -23.4 104.65 -23.0 Q104.0 -23.0 103.55 -22.6 103.1 -22.25 103.1 -21.75 M99.35 -6.55 L98.8 -6.0 99.2 -6.95 99.35 -6.55 M96.55 -3.75 L96.05 -3.35 95.5 -3.4 95.4 -4.1 95.45 -5.45 96.6 -5.85 96.55 -3.75 M91.55 -0.1 L91.05 -0.15 90.7 -0.1 91.55 -0.1 96.45 0.35 96.55 0.4 Q94.25 1.55 92.75 1.55 90.3 1.55 89.2 -0.95 L89.0 -1.2 90.45 -1.2 91.55 -1.35 91.65 -1.35 91.7 -0.95 91.55 -0.1 M92.15 -1.35 L96.0 -1.1 96.15 -0.15 94.05 -0.05 Q93.6 -0.05 92.15 -1.35 M107.9 -7.65 L108.85 -6.15 108.85 -5.85 Q107.9 -5.95 106.4 -6.8 L107.1 -7.3 107.9 -7.65 M105.85 -7.2 L102.7 -9.6 Q104.0 -9.6 104.95 -8.9 105.85 -8.2 105.85 -7.2 M109.95 -2.3 Q109.95 -2.0 109.3 -1.8 L107.7 -1.6 106.1 -1.8 Q105.45 -2.0 105.45 -2.3 L106.1 -2.8 107.7 -3.0 109.3 -2.8 109.95 -2.3 M104.2 -1.55 L104.4 -1.0 104.55 -0.6 104.35 -0.35 103.55 -0.25 102.5 -0.4 101.7 -0.8 100.7 -1.45 104.2 -1.55 M112.2 -0.2 L112.05 0.65 111.6 1.0 111.2 0.65 111.0 -0.2 111.2 -1.05 111.6 -1.4 112.05 -1.05 112.2 -0.2 M116.75 5.55 L118.2 7.85 119.35 9.8 Q119.35 17.2 118.6 17.55 117.55 18.05 117.55 19.2 L117.7 20.85 116.9 21.05 Q116.55 18.7 116.55 17.65 116.55 16.4 116.85 15.5 L116.75 15.45 117.35 15.35 Q117.95 15.35 117.95 15.95 L118.0 17.3 118.2 14.15 Q118.2 9.3 117.15 7.65 116.0 6.85 115.9 6.3 116.0 5.8 116.75 5.55 M103.25 4.2 L103.0 4.65 102.0 5.7 101.4 4.65 Q101.1 3.8 101.1 3.1 L101.1 2.65 101.1 2.55 101.2 2.7 103.25 4.2 M107.05 10.0 L108.6 12.8 108.6 13.2 107.1 11.55 106.55 10.5 106.6 9.85 106.6 10.15 107.05 10.0 M104.1 20.35 L104.4 21.2 104.35 21.3 104.05 20.5 104.1 20.35 M102.25 20.2 L103.25 21.0 102.0 20.5 102.25 20.2 M116.15 17.45 L115.95 18.55 115.4 19.0 114.9 18.55 Q114.65 18.1 114.65 17.45 114.65 16.8 114.9 16.35 115.1 15.9 115.4 15.9 L115.95 16.35 116.15 17.45 M106.8 30.75 L105.4 30.7 105.2 30.4 106.15 29.25 Q107.15 28.25 108.0 28.25 108.5 28.25 108.25 28.65 108.0 29.0 108.5 29.0 L109.3 28.85 108.85 28.25 110.45 26.7 111.8 24.55 112.0 24.4 112.35 25.05 112.45 25.95 Q112.45 26.55 111.05 28.2 L109.85 28.8 113.2 28.35 Q114.0 28.2 114.05 28.6 L112.95 29.65 112.55 29.15 Q112.1 28.8 111.45 28.8 110.8 28.8 110.35 29.15 109.9 29.45 109.9 29.95 109.9 30.45 110.35 30.8 L110.6 30.9 109.5 31.4 Q105.85 33.0 105.55 35.25 L105.05 35.35 104.75 35.2 106.8 31.7 107.25 31.9 Q108.2 31.75 108.85 31.1 109.4 30.6 109.4 30.15 109.4 29.55 109.2 29.45 L108.65 29.3 106.8 30.75 M115.1 25.3 L114.75 24.4 113.75 24.55 114.45 23.15 115.55 22.4 Q115.55 24.25 115.1 25.3 M112.95 26.5 L113.15 27.7 112.55 27.7 112.95 26.5 M117.2 22.25 L117.9 22.65 Q117.55 23.3 117.2 25.6 L116.95 25.75 116.4 25.2 116.2 24.25 Q116.2 22.8 117.2 22.25 M95.35 4.7 L96.7 4.9 96.45 6.9 96.45 7.25 95.35 4.7 M92.35 8.15 L92.1 7.5 92.35 8.15 M100.7 11.55 L100.55 12.0 100.15 12.15 99.75 12.0 99.6 11.55 Q99.6 11.3 99.75 11.15 L100.15 10.95 100.55 11.15 100.7 11.55 M89.1 15.9 L89.75 16.4 88.95 16.0 89.1 15.9 M83.55 29.8 L81.45 31.7 Q79.6 33.1 78.85 33.2 80.75 31.25 88.2 17.6 L88.45 17.25 Q88.75 16.9 89.0 16.85 L89.65 18.95 89.05 18.55 88.85 18.4 88.25 19.0 89.2 19.75 Q86.85 21.6 86.55 22.85 86.05 24.8 82.85 28.6 L83.85 28.85 84.05 28.45 83.7 29.1 83.05 29.5 83.55 29.8 M88.3 22.0 L87.75 22.95 88.25 21.9 88.3 22.0 M86.75 25.35 L85.55 26.85 Q85.35 27.0 85.7 26.3 L86.65 24.75 86.75 25.35 M99.65 20.95 L99.25 20.0 Q99.2 20.6 99.4 21.05 99.6 21.5 99.65 20.95 M96.65 29.95 L97.0 30.95 96.95 31.0 96.3 30.2 96.65 29.95 M91.35 34.2 L92.4 31.55 92.8 30.65 93.05 30.45 Q93.3 30.35 93.4 31.15 93.25 32.15 91.9 34.7 L92.05 34.15 92.0 33.65 91.95 33.85 91.35 34.2 M89.85 37.85 L88.8 38.8 89.9 37.1 89.85 37.85 M93.75 39.3 Q93.75 38.95 94.5 36.95 L95.45 34.4 Q96.35 33.0 96.65 34.35 96.95 35.25 96.75 36.45 L94.75 43.55 94.15 45.3 Q93.3 45.95 91.8 47.35 L91.6 46.45 Q91.35 46.05 91.0 46.05 L92.3 45.15 93.65 44.75 93.6 44.5 Q94.7 44.1 95.0 42.35 L95.2 38.85 94.95 37.9 94.75 37.85 94.15 38.55 93.75 39.3 M90.95 48.45 L91.75 48.3 92.8 48.25 92.95 48.45 Q90.85 50.15 89.5 50.15 L87.85 49.9 86.95 49.55 89.15 47.8 Q89.05 48.95 89.55 49.15 90.1 49.15 90.95 48.45 M84.8 45.55 L84.2 47.45 Q83.75 48.45 82.4 48.85 L80.85 47.85 84.6 44.3 87.5 40.6 87.85 40.1 88.5 39.45 86.25 43.35 87.5 41.2 81.9 47.55 82.15 47.85 82.8 47.95 Q83.1 47.95 84.8 45.55 M98.6 45.85 Q98.25 45.95 97.2 46.4 L95.75 47.1 96.35 47.9 Q96.2 48.5 94.95 48.9 L94.65 48.8 94.55 48.1 Q94.55 47.35 95.55 46.5 L97.1 44.7 97.4 43.3 Q97.55 42.5 98.05 42.5 98.65 42.5 98.55 42.8 L98.4 43.4 100.35 40.65 102.05 39.3 100.05 43.85 101.7 43.75 101.85 45.25 101.6 46.85 Q101.1 47.7 99.15 47.8 98.6 47.5 99.25 46.5 99.9 47.35 100.8 46.7 L101.65 45.55 Q101.0 45.1 99.75 45.1 L98.95 45.35 98.6 45.85 M104.85 36.9 L104.55 38.2 Q104.2 38.75 103.75 38.75 103.3 38.75 103.0 38.2 102.65 37.65 102.65 36.9 102.65 36.15 103.0 35.6 103.3 35.05 103.75 35.05 104.2 35.05 104.55 35.6 L104.85 36.9 M86.4 51.0 L84.2 50.65 84.65 50.6 86.4 51.0 M81.55 5.2 Q80.4 6.0 79.4 6.2 L79.0 6.05 Q80.6 4.9 81.55 5.2 M76.0 36.75 L76.15 37.95 75.85 37.9 Q75.7 37.8 75.7 37.15 L75.75 36.55 75.85 36.6 76.0 36.75 M78.0 34.8 L77.85 35.45 77.45 35.7 77.05 35.45 76.9 34.8 Q76.9 34.45 77.05 34.2 77.2 33.9 77.45 33.9 77.7 33.9 77.85 34.2 L78.0 34.8 M64.05 33.2 L63.85 33.95 63.4 34.25 62.95 33.95 62.75 33.2 62.95 32.45 Q63.15 32.15 63.4 32.15 63.65 32.15 63.85 32.45 L64.05 33.2 M67.9 42.05 L68.0 39.95 68.2 39.8 69.1 39.6 Q69.6 39.6 69.6 40.0 69.6 40.4 70.1 40.4 70.7 40.4 71.45 39.85 72.45 39.1 73.4 38.75 L73.6 38.7 73.35 38.75 74.4 39.2 73.8 38.55 Q74.35 38.15 74.95 37.8 L75.55 37.7 Q74.8 39.95 72.9 40.0 70.95 40.1 70.5 41.25 70.1 41.15 67.9 42.05 M75.25 47.85 L75.4 47.9 75.5 48.65 Q75.5 49.25 74.55 49.75 L72.9 50.2 72.05 50.0 71.55 49.75 71.15 49.35 73.55 47.1 Q73.9 47.65 73.9 48.45 L75.25 47.85 M78.25 46.1 L78.05 46.6 77.5 46.8 77.0 46.6 76.75 46.1 Q76.75 45.8 77.0 45.6 L77.5 45.4 78.05 45.6 78.25 46.1 M76.55 49.3 L77.15 49.8 76.35 49.3 76.55 49.3 M31.45 19.75 L31.25 20.6 30.7 20.9 30.2 20.6 29.95 19.75 Q29.95 19.25 30.2 18.95 30.4 18.6 30.7 18.6 31.0 18.6 31.25 18.95 L31.45 19.75 M31.9 17.0 L31.7 17.75 31.25 18.05 30.8 17.75 30.6 17.0 30.8 16.25 Q31.0 15.95 31.25 15.95 L31.7 16.25 31.9 17.0 M78.6 50.7 L78.8 50.8 78.95 51.65 Q78.95 52.35 78.45 53.1 77.75 54.15 76.25 54.05 75.95 54.0 75.65 53.75 76.3 52.25 78.6 50.7 M74.15 53.55 L74.8 54.45 Q74.2 55.2 72.5 55.45 L71.9 54.95 74.15 53.55 M67.95 55.45 L69.45 55.15 Q69.85 55.25 70.1 55.5 L70.25 55.8 Q63.65 58.6 59.35 59.0 L59.9 60.0 58.1 60.9 57.4 60.65 57.85 59.35 58.3 58.3 64.45 56.45 63.8 57.15 64.1 57.5 64.7 57.65 Q65.7 57.7 66.7 56.85 67.6 56.2 67.95 55.45 M52.65 60.95 L53.65 60.1 54.35 59.8 54.8 60.35 55.1 61.35 54.85 62.2 53.95 62.65 Q54.1 62.15 53.85 61.65 L53.15 60.95 52.65 60.95 M51.2 63.3 Q50.35 64.15 49.2 64.45 L46.35 64.7 45.75 64.6 45.85 63.9 45.6 63.85 45.0 63.7 44.95 63.35 45.25 62.6 Q45.45 62.25 46.1 62.25 46.6 62.25 46.5 62.65 46.35 63.0 46.85 63.0 L50.85 62.1 51.25 62.45 51.2 63.3 M42.75 64.25 L43.5 65.0 43.45 65.05 42.45 64.4 42.75 64.25" fill="#ffffff" fill-opacity="0.4" fill-rule="evenodd" stroke="none"/>
    <path d="M40.2 -4.7 L42.45 -5.65 44.8 -5.5 45.1 -5.05 43.05 -3.9 Q42.45 -3.8 40.2 -4.7 M35.75 5.45 L35.75 7.6 35.35 7.7 34.75 7.5 Q34.5 7.05 34.4 6.5 34.2 5.1 34.6 4.85 34.85 4.7 35.2 4.65 L35.75 5.45 M35.25 0.5 L35.65 -0.3 36.7 -2.05 37.55 -2.8 39.85 -4.55 Q39.65 -3.4 38.35 -1.55 L36.8 0.65 35.95 3.75 35.4 4.2 35.05 2.3 35.25 0.5 M88.75 1.25 L91.8 1.8 92.3 2.5 90.1 2.8 88.65 2.9 88.3 3.15 88.9 3.85 88.95 4.2 85.35 5.0 84.75 4.55 85.5 3.8 Q86.2 3.3 85.95 3.0 L85.35 3.05 83.0 3.65 82.9 3.45 83.7 1.75 Q84.0 1.15 84.6 0.85 L83.6 -0.15 82.55 -1.3 82.6 -1.45 82.9 -1.65 Q83.6 -1.35 85.25 0.05 86.9 1.45 85.8 1.15 L85.8 1.3 85.8 1.35 87.3 1.3 88.75 1.25 M93.05 2.3 L94.5 2.4 94.75 2.4 Q94.9 3.3 94.7 3.3 L94.55 3.6 Q94.55 3.9 95.15 3.9 97.3 3.9 97.85 3.05 98.5 2.0 98.85 1.9 L99.5 2.2 100.7 2.75 99.75 4.55 98.15 5.6 97.35 6.2 99.55 6.05 Q100.85 5.8 100.85 6.35 100.85 5.75 101.3 5.95 L102.15 6.35 Q102.9 7.1 103.75 9.05 L104.6 11.3 Q104.8 12.05 105.4 12.6 L106.05 13.45 105.65 13.8 105.4 13.8 104.5 13.6 104.45 13.6 Q104.05 11.6 103.25 9.75 102.5 7.95 102.1 7.95 L100.55 8.1 96.35 8.65 97.9 11.25 100.35 15.35 100.35 15.6 100.25 17.25 100.15 17.35 99.05 16.05 98.8 16.35 Q98.6 16.5 98.5 16.6 L98.3 17.45 98.45 19.95 97.5 24.2 Q96.9 26.0 95.6 27.2 L93.9 27.65 93.7 27.4 93.65 26.65 93.7 26.05 93.75 25.8 94.05 25.45 94.85 24.85 96.5 23.0 Q97.55 21.3 97.4 18.75 L97.0 18.75 96.6 18.9 96.55 18.2 Q96.55 17.4 97.25 15.75 L97.9 14.2 Q97.9 12.55 96.7 10.7 95.1 8.2 92.4 8.2 L92.6 8.95 Q91.85 10.9 91.95 13.0 L91.95 14.7 90.85 14.6 89.65 9.8 Q89.0 6.55 89.15 5.6 L89.15 5.5 Q90.55 6.55 91.55 6.85 L92.05 7.3 92.6 6.95 95.9 7.85 Q96.6 8.05 96.6 7.05 96.85 5.35 96.7 4.9 L95.35 4.7 95.3 4.6 93.7 4.9 94.1 5.3 94.4 6.35 94.35 6.85 Q93.95 7.05 92.6 5.65 L92.55 5.45 92.05 4.8 91.75 4.8 91.75 4.85 90.9 4.85 89.95 4.65 89.25 3.95 89.2 3.7 91.7 3.75 92.25 4.15 Q93.2 3.55 92.55 3.2 L93.0 3.2 93.35 3.0 93.4 2.65 93.05 2.3 M102.5 2.45 L104.4 3.5 Q105.05 3.8 107.0 3.05 L107.05 3.65 106.95 4.4 106.15 5.2 105.7 5.35 104.75 5.35 104.05 5.1 103.25 4.2 101.2 2.7 101.1 2.55 101.1 2.65 101.05 2.6 100.05 1.95 100.4 1.25 101.75 2.2 102.5 2.45 M109.15 18.1 L109.25 18.7 109.0 19.55 107.9 19.4 107.25 19.5 Q107.55 17.8 107.95 17.2 L108.35 18.35 108.65 18.3 109.15 18.1 M104.3 19.1 L104.3 18.15 104.4 18.55 104.4 18.6 104.3 19.1 M104.15 16.4 Q104.05 15.2 104.45 14.95 L104.6 14.95 104.15 16.4 M102.5 -19.85 L102.0 -20.15 103.1 -21.75 Q103.1 -22.25 103.55 -22.6 104.0 -23.0 104.65 -23.0 L104.75 -21.75 104.3 -20.65 103.35 -20.1 Q102.75 -19.8 102.5 -19.85 M103.95 -24.3 L104.4 -24.0 104.7 -23.3 104.55 -23.4 104.45 -23.55 103.95 -24.3 M101.2 -8.95 L101.25 -9.0 101.25 -8.7 101.2 -8.95 M102.15 -9.6 L102.25 -9.35 102.05 -9.25 102.15 -9.6 M100.7 -7.9 L99.35 -6.55 99.2 -6.95 98.8 -6.0 Q98.8 -5.05 98.15 -4.4 97.5 -3.75 96.55 -3.75 L96.6 -5.85 95.45 -5.45 95.05 -5.9 95.75 -6.5 96.7 -6.8 96.95 -7.0 98.25 -9.2 98.85 -11.1 Q99.35 -12.6 100.8 -14.3 L101.55 -14.8 Q101.35 -11.4 100.7 -7.9 M107.65 -15.65 L107.45 -15.0 Q107.25 -14.75 106.95 -14.75 106.65 -14.75 106.45 -15.0 L106.25 -15.65 106.45 -16.25 Q106.65 -16.55 106.95 -16.55 L107.45 -16.25 107.65 -15.65 M102.7 -9.6 L103.05 -9.65 105.0 -9.15 106.8 -8.85 Q107.4 -8.85 107.4 -9.15 L107.4 -9.6 Q107.9 -8.95 107.9 -7.65 L107.1 -7.3 106.4 -6.8 105.85 -7.2 Q105.85 -8.2 104.95 -8.9 104.0 -9.6 102.7 -9.6 M112.95 29.65 L113.0 29.95 112.55 30.8 111.45 31.1 110.6 30.9 110.35 30.8 Q109.9 30.45 109.9 29.95 109.9 29.45 110.35 29.15 110.8 28.8 111.45 28.8 112.1 28.8 112.55 29.15 L112.95 29.65 M106.8 31.7 L106.8 30.75 108.65 29.3 109.2 29.45 Q109.4 29.55 109.4 30.15 109.4 30.6 108.85 31.1 108.2 31.75 107.25 31.9 L106.8 31.7 M113.75 24.55 L114.75 24.4 115.1 25.3 Q115.1 26.3 114.55 27.0 113.95 27.7 113.15 27.7 L112.95 26.5 113.35 25.35 113.75 24.55 M92.35 8.15 L92.1 7.5 92.35 8.15 M89.2 19.75 L88.5 22.2 88.3 22.0 88.25 21.9 87.75 22.95 87.45 23.8 87.35 25.85 87.0 26.25 86.75 25.35 86.65 24.75 85.7 26.3 Q85.35 27.0 85.55 26.85 85.55 28.05 85.0 28.95 84.4 29.8 83.55 29.8 L83.05 29.5 83.7 29.1 84.05 28.45 83.85 28.85 82.85 28.6 Q86.05 24.8 86.55 22.85 86.85 21.6 89.2 19.75 M97.4 18.75 Q97.45 18.9 97.65 18.9 L97.75 18.9 97.4 18.75 M91.9 34.7 L91.65 35.1 89.85 37.85 89.9 37.1 91.35 34.2 91.95 33.85 92.0 33.65 92.05 34.15 91.9 34.7 M91.8 47.35 L90.95 48.45 Q90.1 49.15 89.55 49.15 89.05 48.95 89.15 47.8 89.9 46.65 91.0 46.05 91.35 46.05 91.6 46.45 L91.8 47.35 M93.6 44.5 L93.5 42.0 93.75 39.3 94.15 38.55 94.75 37.85 94.95 37.9 95.2 38.85 95.0 42.35 Q94.7 44.1 93.6 44.5 M86.25 43.35 L84.8 45.55 Q83.1 47.95 82.8 47.95 L82.15 47.85 81.9 47.55 87.5 41.2 86.25 43.35 M99.25 46.5 L98.8 46.3 98.6 45.85 98.95 45.35 99.75 45.1 Q101.0 45.1 101.65 45.55 L100.8 46.7 Q99.9 47.35 99.25 46.5 M73.4 38.75 L73.8 38.55 74.4 39.2 73.35 38.75 73.6 38.7 73.4 38.75 M70.5 41.25 Q70.5 41.85 70.0 42.3 L68.7 42.75 68.05 42.75 67.9 42.05 Q70.1 41.15 70.5 41.25 M64.45 56.45 L67.7 54.75 67.95 55.45 Q67.6 56.2 66.7 56.85 65.7 57.7 64.7 57.65 L64.1 57.5 63.8 57.15 64.45 56.45 M53.95 62.65 L52.55 63.2 51.2 63.3 51.25 62.45 51.7 62.05 Q51.85 61.4 52.3 61.1 L52.65 60.95 53.15 60.95 53.85 61.65 Q54.1 62.15 53.95 62.65" fill="#ffffff" fill-opacity="0.69803923" fill-rule="evenodd" stroke="none"/>
  </g>
</svg>
