<?xml version="1.0" encoding="UTF-8" standalone="no"?>
<svg xmlns:xlink="http://www.w3.org/1999/xlink" height="111.0px" width="71.95px" xmlns="http://www.w3.org/2000/svg">
  <g transform="matrix(1.0, 0.0, 0.0, 1.0, 35.95, 54.7)">
    <path d="M28.15 -39.65 Q31.65 -35.7 34.5 -30.65 36.25 -23.2 34.5 -14.8 L33.15 -16.25 Q32.6 -9.15 30.85 -4.3 29.25 -6.6 27.95 -9.5 26.3 -3.2 21.75 1.6 20.9 -0.35 22.05 -3.3 15.8 5.8 5.7 11.55 L0.3 15.4 -1.45 16.6 Q-0.95 14.0 0.3 11.85 0.5 9.25 -1.75 9.9 L-4.2 10.45 Q-7.05 8.0 -7.55 4.7 L-7.55 4.65 -7.75 4.1 Q-9.15 1.45 -17.05 0.75 -17.8 0.75 -18.35 1.2 -13.3 -4.8 -12.2 -12.75 -8.95 -10.75 -10.0 -5.3 -5.25 -12.3 -0.55 -14.95 0.95 -14.0 -0.05 -9.6 10.8 -18.8 18.75 -29.4 19.75 -29.3 19.9 -25.25 L28.15 -39.65" fill="#7b532d" fill-opacity="0.99607843" fill-rule="evenodd" stroke="none"/>
    <path d="M28.15 -39.65 L19.9 -25.25 Q19.75 -29.3 18.75 -29.4 10.8 -18.8 -0.05 -9.6 0.95 -14.0 -0.55 -14.95 -5.25 -12.3 -10.0 -5.3 -8.95 -10.75 -12.2 -12.75 -13.3 -4.8 -18.35 1.2 L-19.0 1.95 -19.3 2.55 Q-21.75 2.2 -22.5 0.05 L-22.55 -0.1 -24.4 1.6 -27.35 2.75 Q-24.8 -1.55 -25.3 -4.1 -26.9 -15.75 -27.35 -26.4 -27.65 -23.8 -29.3 -23.1 -30.25 -29.45 -29.3 -36.75 -30.0 -36.35 -30.85 -36.35 -30.55 -45.5 -26.55 -52.2 9.6 -60.8 28.15 -39.65" fill="#855a28" fill-rule="evenodd" stroke="none"/>
    <path d="M-18.35 1.2 Q-17.8 0.75 -17.05 0.75 -9.15 1.45 -7.75 4.1 L-7.55 4.65 -7.55 4.7 Q-7.05 8.0 -4.2 10.45 L-1.75 9.9 Q0.5 9.25 0.3 11.85 -0.95 14.0 -1.45 16.6 L0.3 15.4 0.0 15.7 Q-1.45 18.9 -2.35 24.4 -3.95 23.3 -3.9 20.75 -4.8 22.0 -4.65 23.1 -4.3 25.5 -5.5 27.95 L-7.45 26.0 -8.55 22.8 Q-10.05 24.7 -12.6 26.2 -13.95 23.25 -14.2 21.55 -16.4 21.65 -18.6 25.55 -21.25 23.45 -22.75 21.35 L-23.8 19.5 Q-23.25 9.5 -19.3 2.55 L-19.0 1.95 -18.35 1.2" fill="#3f3d3c" fill-rule="evenodd" stroke="none"/>
    <path d="M-24.4 1.6 L-22.55 -0.1 -22.5 0.05 Q-21.75 2.2 -19.3 2.55 -23.25 9.5 -23.8 19.5 -25.95 20.1 -27.95 22.0 L-28.5 22.0 Q-29.55 20.4 -29.65 18.45 L-29.7 17.75 -29.75 16.15 Q-25.7 7.2 -24.4 1.6" fill="#494748" fill-opacity="0.99607843" fill-rule="evenodd" stroke="none"/>
    <path d="M-27.95 22.0 Q-25.95 20.1 -23.8 19.5 L-22.75 21.35 Q-24.75 36.05 -29.25 52.4 L-35.35 51.35 Q-30.25 35.0 -28.5 22.0 L-27.95 22.0" fill="#929497" fill-opacity="0.99607843" fill-rule="evenodd" stroke="none"/>
    <path d="M-22.75 21.35 Q-21.25 23.45 -18.6 25.55 -16.4 21.65 -14.2 21.55 -13.95 23.25 -12.6 26.2 -10.05 24.7 -8.55 22.8 L-7.45 26.0 -16.2 54.65 -17.1 54.75 -26.5 56.3 Q-28.9 54.45 -29.2 52.4 L-29.25 52.4 Q-24.75 36.05 -22.75 21.35" fill="#837f7e" fill-opacity="0.99607843" fill-rule="evenodd" stroke="none"/>
    <path d="M-18.35 1.2 Q-17.8 0.75 -17.05 0.75 -9.15 1.45 -7.75 4.1 M-7.55 4.65 L-7.55 4.7 Q-7.05 8.0 -4.2 10.45 L-1.75 9.9 Q0.5 9.25 0.3 11.85 -0.95 14.0 -1.45 16.6 L0.3 15.4 5.7 11.55 Q15.8 5.8 22.05 -3.3 20.9 -0.35 21.75 1.6 26.3 -3.2 27.95 -9.5 29.25 -6.6 30.85 -4.3 32.6 -9.15 33.15 -16.25 L34.5 -14.8 Q36.25 -23.2 34.5 -30.65 M0.0 15.7 L0.3 15.4 M-27.35 -26.4 Q-26.9 -15.75 -25.3 -4.1 -24.8 -1.55 -27.35 2.75 L-24.4 1.6 -22.55 -0.1 -22.5 0.05 Q-21.75 2.2 -19.3 2.55 M-7.45 26.0 L-16.2 54.65 M-35.35 51.35 Q-30.25 35.0 -28.5 22.0 L-27.95 22.0 M-29.75 16.15 Q-25.7 7.2 -24.4 1.6" fill="none" stroke="#272625" stroke-linecap="round" stroke-linejoin="round" stroke-width="1.2000000000000002"/>
    <path d="M-26.55 -52.2 Q-30.55 -45.5 -30.85 -36.35 -30.0 -36.35 -29.3 -36.75 -30.25 -29.45 -29.3 -23.1 -27.65 -23.8 -27.35 -26.4 M-7.45 26.0 L-5.5 27.95 Q-4.3 25.5 -4.65 23.1 -4.8 22.0 -3.9 20.75 -3.95 23.3 -2.35 24.4 -1.45 18.9 0.0 15.7 M-27.95 22.0 Q-25.95 20.1 -23.8 19.5 L-22.75 21.35 Q-21.25 23.45 -18.6 25.55 -16.4 21.65 -14.2 21.55 -13.95 23.25 -12.6 26.2 -10.05 24.7 -8.55 22.8 L-7.45 26.0 M-28.5 22.0 Q-29.55 20.4 -29.65 18.45 L-29.7 17.75 -29.75 16.15" fill="none" stroke="#272625" stroke-linecap="round" stroke-linejoin="miter-clip" stroke-miterlimit="8.0" stroke-width="1.2000000000000002"/>
    <path d="M-8.3 4.3 Q-8.9 3.9 -8.65 3.3 L-8.25 2.9 -8.3 2.75 -8.3 1.55 -8.25 1.25 -8.2 0.1 -8.0 -1.05 -7.9 -1.35 -7.8 -1.85 -7.7 -2.1 -7.65 -2.3 -7.4 -3.0 -7.25 -3.25 -7.15 -3.3 -7.1 -3.2 -7.35 -2.0 -7.35 -1.75 -7.45 -0.95 -7.45 0.15 -7.4 0.4 -7.35 1.25 -7.1 2.9 -7.05 3.0 -7.1 3.3 -7.15 3.85 -7.45 4.6 -7.6 4.65 -8.3 4.3 M-22.0 0.4 L-22.05 0.5 Q-22.5 0.9 -22.9 0.5 -23.35 0.1 -22.95 -0.3 L-22.7 -0.55 -22.6 -0.7 -22.45 -0.85 -22.4 -0.95 -22.1 -1.25 -22.0 -1.45 -21.85 -1.65 -21.8 -1.75 -21.7 -1.85 -21.6 -2.05 -21.45 -2.25 -21.3 -2.6 -21.25 -2.75 -21.05 -3.2 -21.0 -3.45 -20.9 -3.65 -20.8 -4.1 -20.8 -4.2 -20.75 -4.3 -20.75 -4.5 -20.7 -4.65 -20.7 -4.95 -20.65 -5.15 -20.6 -5.25 -20.5 -5.2 -20.4 -4.65 -20.4 -3.8 -20.45 -3.6 -20.45 -3.3 -20.55 -2.8 -20.65 -2.5 -20.65 -2.4 -21.0 -1.45 -21.05 -1.35 -21.1 -1.2 -21.6 -0.15 -21.7 0.0 -21.8 0.1 -21.85 0.2 -22.0 0.4 M-26.75 -26.3 L-26.75 -26.2 Q-26.85 -25.65 -27.45 -25.75 -28.05 -25.85 -27.9 -26.45 L-27.85 -26.7 -27.85 -26.85 -27.8 -27.0 -27.75 -27.45 -27.0 -30.15 -26.85 -30.7 -26.45 -31.7 -26.4 -31.9 -26.3 -32.05 -26.2 -32.35 -26.05 -32.6 -25.95 -32.65 -25.9 -32.55 -26.05 -31.95 -26.05 -31.8 -26.6 -28.85 -26.65 -27.75 -26.7 -27.55 -26.7 -26.6 -26.75 -26.3 M-28.95 -36.2 L-29.15 -36.1 Q-29.7 -35.9 -29.95 -36.45 -30.15 -37.05 -29.6 -37.25 L-29.45 -37.3 -29.35 -37.35 -29.3 -37.35 -29.2 -37.4 -29.05 -37.5 -28.75 -37.65 -28.65 -37.75 -28.55 -37.8 -28.35 -38.0 -28.25 -38.05 -27.95 -38.45 -27.65 -38.75 -27.6 -38.85 -27.5 -38.95 -27.4 -39.0 -27.35 -38.9 -27.35 -38.75 -27.65 -38.0 -27.75 -37.7 -27.85 -37.6 -27.9 -37.45 -28.0 -37.35 -28.05 -37.2 -28.15 -37.1 -28.25 -36.95 -28.3 -36.85 -28.6 -36.55 -28.65 -36.45 -28.7 -36.45 -28.75 -36.4 -28.9 -36.3 -28.95 -36.2 M22.5 -2.9 L22.15 -2.6 21.7 -2.7 21.4 -3.05 21.5 -3.5 23.7 -7.2 23.8 -7.25 23.85 -7.15 22.5 -2.9 M28.45 -9.7 L28.5 -9.65 Q28.7 -9.1 28.15 -8.9 27.6 -8.6 27.4 -9.25 L27.25 -9.6 26.45 -11.95 26.4 -12.0 26.4 -12.1 26.35 -12.2 26.35 -12.4 26.2 -13.25 26.2 -13.5 26.15 -13.7 26.15 -15.0 26.5 -17.45 26.75 -18.25 26.85 -18.3 26.9 -18.2 26.8 -17.4 26.8 -17.1 26.75 -16.8 26.75 -16.5 26.7 -16.15 26.7 -15.4 26.75 -15.0 26.75 -14.6 26.85 -13.8 27.2 -12.4 27.25 -12.35 27.25 -12.25 28.45 -9.7 M31.9 -20.7 L31.95 -20.8 32.05 -20.75 32.15 -20.3 32.25 -20.05 32.55 -18.9 32.65 -18.7 32.7 -18.5 32.85 -18.1 32.95 -17.9 33.0 -17.75 33.45 -16.85 33.6 -16.65 33.65 -16.45 33.7 -16.45 33.75 -16.35 Q33.95 -15.8 33.35 -15.6 32.75 -15.45 32.6 -16.0 L32.5 -16.2 32.25 -17.05 32.15 -17.7 32.1 -17.9 31.95 -18.8 31.9 -20.7" fill="#272625" fill-rule="evenodd" stroke="none"/>
  </g>
</svg>
