<?xml version="1.0" encoding="UTF-8" standalone="no"?>
<svg xmlns:xlink="http://www.w3.org/1999/xlink" height="132.95px" width="50.75px" xmlns="http://www.w3.org/2000/svg">
  <g transform="matrix(1.0, 0.0, 0.0, 1.0, -8.35, 19.35)">
    <path d="M43.35 -3.55 L44.35 -1.0 Q51.4 17.1 58.5 40.8 58.1 40.6 54.25 45.1 46.7 23.3 39.2 5.55 37.2 3.9 35.05 3.1 L32.6 -18.75 Q38.75 -12.55 43.35 -3.55" fill="#3f3d3c" fill-rule="evenodd" stroke="none"/>
    <path d="M54.25 45.1 Q52.3 47.4 38.3 69.35 37.45 55.65 34.1 44.95 33.85 44.2 33.75 43.15 33.85 45.65 31.95 47.0 31.25 38.95 28.6 32.3 26.45 28.55 23.8 25.35 L24.45 24.8 35.05 3.1 Q37.2 3.9 39.2 5.55 46.7 23.3 54.25 45.1 M33.75 42.45 L33.75 43.15 33.75 42.45" fill="#494748" fill-opacity="0.99607843" fill-rule="evenodd" stroke="none"/>
    <path d="M30.0 93.9 L8.95 41.9 Q11.8 39.75 14.55 36.45 25.8 69.15 30.0 93.9" fill="#a2a5a8" fill-opacity="0.99607843" fill-rule="evenodd" stroke="none"/>
    <path d="M38.3 69.35 Q39.05 79.5 38.8 91.65 L36.5 98.75 Q38.3 97.9 39.1 96.15 L37.75 113.0 30.0 93.9 Q25.8 69.15 14.55 36.45 20.65 33.3 22.35 29.6 L23.8 25.35 Q26.45 28.55 28.6 32.3 31.25 38.95 31.95 47.0 33.85 45.65 33.75 43.15 33.85 44.2 34.1 44.95 37.45 55.65 38.3 69.35" fill="#95979a" fill-opacity="0.99607843" fill-rule="evenodd" stroke="none"/>
    <path d="M43.35 -3.55 L44.35 -1.0 Q51.4 17.1 58.5 40.8 M38.3 69.35 Q39.05 79.5 38.8 91.65 M39.1 96.15 L37.75 113.0 30.0 93.9 8.95 41.9 M32.6 -18.75 Q38.75 -12.55 43.35 -3.55 M28.6 32.3 Q26.45 28.55 23.8 25.35 M38.3 69.35 Q37.45 55.65 34.1 44.95 33.85 44.2 33.75 43.15" fill="none" stroke="#272625" stroke-linecap="round" stroke-linejoin="round" stroke-width="1.2000000000000002"/>
    <path d="M38.8 91.65 L36.5 98.75 Q38.3 97.9 39.1 96.15 M28.6 32.3 Q31.25 38.95 31.95 47.0 33.85 45.65 33.75 43.15 L33.75 42.45" fill="none" stroke="#242119" stroke-linecap="round" stroke-linejoin="round" stroke-width="1.0"/>
    <path d="M39.15 91.95 L39.15 92.0 Q38.8 92.4 38.4 92.0 38.0 91.7 38.4 91.3 L38.8 90.85 39.1 90.55 42.75 86.1 42.85 86.1 Q43.05 86.1 42.9 86.25 L39.55 91.45 39.15 91.95 M34.2 42.5 L34.2 42.55 Q34.1 43.05 33.6 42.95 33.1 42.85 33.25 42.35 L33.3 42.15 33.3 41.9 33.4 41.6 33.45 41.25 33.45 41.05 33.5 40.85 33.6 39.0 33.65 38.6 33.65 37.45 Q33.55 37.35 33.7 37.35 33.8 37.25 33.8 37.4 L34.15 39.45 34.15 39.9 34.2 40.15 34.2 40.4 34.25 40.85 34.25 42.3 34.2 42.5" fill="#242119" fill-rule="evenodd" stroke="none"/>
  </g>
</svg>
