<?xml version="1.0" encoding="UTF-8" standalone="no"?>
<svg xmlns:xlink="http://www.w3.org/1999/xlink" height="21.3px" width="19.5px" xmlns="http://www.w3.org/2000/svg">
  <g transform="matrix(1.0, 0.0, 0.0, 1.0, 9.75, 10.65)">
    <path d="M3.95 9.5 Q0.55 10.95 -3.05 9.2 -6.6 7.4 -8.3 3.45 -9.95 -0.45 -8.7 -4.25 -7.4 -8.05 -4.0 -9.5 -0.55 -10.95 3.05 -9.2 6.65 -7.4 8.35 -3.5 10.0 0.45 8.65 4.2 7.4 8.05 3.95 9.5" fill="url(#gradient0)" fill-rule="evenodd" stroke="none"/>
    <path d="M3.95 9.5 Q0.55 10.95 -3.05 9.2 -6.6 7.4 -8.3 3.45 -9.95 -0.45 -8.7 -4.25 -7.4 -8.05 -4.0 -9.5 -0.55 -10.95 3.05 -9.2 6.65 -7.4 8.35 -3.5 10.0 0.45 8.65 4.2 7.4 8.05 3.95 9.5 Z" fill="none" stroke="#242119" stroke-linecap="round" stroke-linejoin="miter-clip" stroke-miterlimit="10.0" stroke-width="1.0"/>
    <path d="M-2.95 -2.85 L-2.9 -2.9 Q-2.55 -3.45 -2.0 -3.1 L-1.9 -3.05 -1.75 -2.95 -1.65 -2.9 -1.15 -2.45 -0.85 -2.25 -0.75 -2.1 -0.6 -2.0 -0.35 -1.7 -0.25 -1.55 -0.1 -1.4 0.75 0.05 0.8 0.15 0.8 0.25 0.9 0.45 1.05 0.85 1.15 1.05 1.15 1.2 1.2 1.25 1.2 1.3 1.4 2.15 1.45 3.2 1.4 3.4 1.4 3.9 1.35 4.0 1.3 4.2 1.25 4.55 1.2 4.7 1.1 4.9 0.75 5.8 0.65 5.95 Q0.25 6.55 -0.25 6.2 L-0.4 6.15 -0.75 5.95 -1.35 5.5 -1.75 5.1 -1.9 5.0 -1.95 4.9 -2.05 4.85 -2.25 4.5 -2.4 4.35 -2.45 4.25 -2.5 4.2 -2.85 3.65 -2.9 3.55 -2.9 3.5 -2.95 3.45 -3.25 2.6 -3.25 2.55 -3.3 2.5 -3.3 2.4 -3.5 1.55 -3.5 1.45 -3.55 1.3 -3.6 -0.55 -3.55 -0.75 -3.5 -1.15 -3.15 -2.35 -3.15 -2.45 -3.1 -2.55 -3.0 -2.7 -2.95 -2.85" fill="#242119" fill-rule="evenodd" stroke="none"/>
    <path d="M-2.25 -2.9 Q-1.8 -1.0 -2.45 0.55 -3.2 2.1 -4.5 2.45 -5.9 2.75 -7.2 1.7 -8.45 0.55 -8.95 -1.35 -9.35 -3.25 -8.7 -4.8 -8.05 -6.4 -6.65 -6.75 -5.3 -7.0 -4.0 -5.9 -2.65 -4.8 -2.25 -2.9" fill="url(#gradient1)" fill-rule="evenodd" stroke="none"/>
  </g>
  <defs>
    <radialGradient cx="0" cy="0" gradientTransform="matrix(7.0E-4, -0.0116, 0.0165, 0.0011, -0.65, 7.1)" gradientUnits="userSpaceOnUse" id="gradient0" r="819.2" spreadMethod="pad">
      <stop offset="0.32941176470588235" stop-color="#d7b95a"/>
      <stop offset="0.7411764705882353" stop-color="#6a5822"/>
    </radialGradient>
    <radialGradient cx="0" cy="0" gradientTransform="matrix(0.0042, -0.001, 0.0014, 0.006, -5.6, -2.15)" gradientUnits="userSpaceOnUse" id="gradient1" r="819.2" spreadMethod="pad">
      <stop offset="0.6666666666666666" stop-color="#ffffff"/>
      <stop offset="1.0" stop-color="#ffffff" stop-opacity="0.0"/>
    </radialGradient>
  </defs>
</svg>
