<?xml version="1.0" encoding="UTF-8" standalone="no"?>
<svg xmlns:xlink="http://www.w3.org/1999/xlink" height="25.8px" width="18.55px" xmlns="http://www.w3.org/2000/svg">
  <g transform="matrix(1.0, 0.0, 0.0, 1.0, 9.65, 12.6)">
    <path d="M7.5 -9.05 L8.3 -9.25 6.65 -5.8 Q-0.5 8.95 -6.5 12.6 -8.5 8.2 -9.05 2.6 L-7.0 -0.6 Q-6.75 5.85 -5.4 8.65 -0.9 4.95 3.35 -8.25 L3.45 -8.25 7.5 -9.05" fill="#a39331" fill-rule="evenodd" stroke="none"/>
    <path d="M3.45 -8.25 L1.2 -9.1 Q1.35 -12.1 3.55 -12.6 4.65 -12.7 7.5 -9.05 L3.45 -8.25" fill="#bba838" fill-rule="evenodd" stroke="none"/>
    <path d="M-7.0 -0.6 Q-3.8 -3.95 3.0 -8.2 L3.35 -8.25 Q-0.9 4.95 -5.4 8.65 -6.75 5.85 -7.0 -0.6" fill="url(#gradient0)" fill-rule="evenodd" stroke="none"/>
    <path d="M8.3 -9.25 L6.65 -5.8 Q-0.5 8.95 -6.5 12.6 -8.5 8.2 -9.05 2.6 M-7.0 -0.6 Q-6.75 5.85 -5.4 8.65 -0.9 4.95 3.35 -8.25" fill="none" stroke="#272625" stroke-linecap="round" stroke-linejoin="round" stroke-width="1.2000000000000002"/>
    <path d="M4.0 -8.0 L3.95 -7.9 Q3.6 -7.4 3.1 -7.65 2.6 -7.9 2.85 -8.45 L2.95 -8.55 3.0 -8.7 3.0 -8.75 3.05 -8.8 3.15 -9.0 3.2 -9.2 3.25 -9.3 3.25 -9.4 3.3 -9.5 3.3 -9.65 3.4 -10.1 3.4 -10.3 3.45 -10.5 3.45 -10.95 Q3.35 -11.2 3.7 -11.3 4.1 -11.4 4.1 -11.0 L4.15 -10.9 4.15 -10.75 4.25 -10.35 4.25 -9.1 4.2 -8.95 4.1 -8.45 4.1 -8.35 4.05 -8.25 4.0 -8.1 4.0 -8.0" fill="#242119" fill-rule="evenodd" stroke="none"/>
  </g>
  <defs>
    <linearGradient gradientTransform="matrix(0.0027, 0.0055, -0.0092, 0.0046, -1.7, 0.2)" gradientUnits="userSpaceOnUse" id="gradient0" spreadMethod="pad" x1="-819.2" x2="819.2">
      <stop offset="0.32941176470588235" stop-color="#8a3333"/>
      <stop offset="0.7411764705882353" stop-color="#cd4e4e"/>
    </linearGradient>
  </defs>
</svg>
