<?xml version="1.0" encoding="UTF-8" standalone="no"?>
<svg xmlns:xlink="http://www.w3.org/1999/xlink" height="147.9px" width="103.05px" xmlns="http://www.w3.org/2000/svg">
  <g transform="matrix(1.0, 0.0, 0.0, 1.0, 51.55, 74.2)">
    <path d="M-17.45 -54.15 L-10.4 -56.3 Q-2.5 -57.05 4.9 -55.9 L11.35 -54.6 Q25.6 -50.8 40.3 -22.25 L42.6 -17.6 Q46.75 -9.05 50.9 1.5 50.1 8.0 47.25 11.55 42.35 0.2 37.95 -8.8 23.85 -50.85 -17.45 -54.15 M-24.05 -65.6 Q-22.45 -70.1 -22.5 -73.6 -19.95 -69.1 -21.45 -60.3 L-22.5 -54.2 Q-24.0 -48.1 -28.85 -44.5 -24.15 -56.55 -24.05 -65.6" fill="#3f3d3c" fill-rule="evenodd" stroke="none"/>
    <path d="M31.35 30.4 Q30.75 32.5 30.1 36.05 29.4 39.55 22.1 41.5 19.35 44.8 16.5 46.95 L15.1 48.2 Q16.35 46.5 16.1 45.0 11.15 33.2 1.0 26.4 1.85 25.05 3.1 24.15 L8.5 19.3 Q12.35 15.75 10.3 17.15 12.95 15.0 14.45 11.8 15.45 9.75 15.95 7.25 L16.35 5.4 16.9 1.95 17.65 -3.55 19.7 -8.3 17.8 -5.75 19.7 -8.3 17.65 -3.55 17.8 -5.75 Q18.0 -8.0 18.25 -8.7 20.3 -14.5 19.9 -16.5 20.15 -17.75 20.05 -19.1 L7.05 -5.65 Q2.7 -0.6 1.05 6.9 L-0.45 13.4 Q-1.2 17.85 -1.1 20.0 L-0.9 23.1 Q-0.8 24.05 -1.2 24.75 L-0.95 25.1 Q-3.4 23.6 -6.1 22.45 L-7.1 21.9 Q-10.5 20.15 -13.3 20.4 -17.35 20.75 -20.2 25.25 L-21.15 27.0 Q-27.5 17.15 -32.35 16.45 L-36.45 11.8 -37.15 10.95 Q-49.95 -5.45 -29.5 -7.6 -23.7 -2.55 -17.25 9.7 -18.05 0.7 -17.2 -6.3 -16.2 -14.8 -12.65 -20.35 L-12.5 -20.55 -11.3 -22.25 -11.25 -22.3 Q-3.45 -32.15 14.05 -30.35 20.2 -28.1 24.55 -22.25 30.3 -14.5 32.9 -0.4 34.65 9.1 33.85 18.0 33.25 24.35 31.35 30.4 M17.6 0.35 L18.65 -0.35 16.9 1.95 18.65 -0.35 17.6 0.35 M8.2 18.6 L8.25 18.5 8.7 18.25 8.2 18.6 M14.45 11.8 L16.8 10.6 15.25 10.8 16.8 10.6 14.45 11.8 M-22.1 28.35 L-21.4 27.5 -21.85 28.45 -21.85 28.4 -21.8 28.2 -21.85 28.4 -21.85 28.5 -21.9 28.6 -21.95 28.65 -22.1 28.35 M-21.95 28.65 L-21.8 28.2 -21.95 28.65" fill="#95979a" fill-opacity="0.99607843" fill-rule="evenodd" stroke="none"/>
    <path d="M-1.2 24.75 Q-0.8 24.05 -0.9 23.1 L-1.1 20.0 Q-1.2 17.85 -0.45 13.4 L1.05 6.9 Q2.7 -0.6 7.05 -5.65 L20.05 -19.1 Q20.15 -17.75 19.9 -16.5 20.3 -14.5 18.25 -8.7 18.0 -8.0 17.8 -5.75 L17.65 -3.55 16.9 1.95 16.35 5.4 Q16.85 1.6 16.45 -3.15 L15.5 -9.65 14.2 -8.65 Q5.2 -1.75 2.75 7.85 L2.6 8.4 2.5 8.9 2.45 9.15 2.3 10.25 Q1.7 14.15 2.05 18.6 L2.3 20.75 Q4.9 20.25 7.1 19.2 L8.2 18.6 8.7 18.25 10.3 17.15 Q12.35 15.75 8.5 19.3 L3.1 24.15 Q1.65 25.15 1.05 26.25 L0.65 26.15 -0.95 25.1 -1.2 24.75 M-34.7 26.45 L-35.05 26.1 -34.7 26.35 -34.1 26.75 -32.5 27.75 -30.5 28.95 -26.7 30.6 Q-24.75 31.3 -23.05 31.3 L-23.05 31.35 -23.2 33.3 Q-29.2 32.1 -34.7 26.45 M-33.35 16.4 L-32.35 16.45 Q-27.5 17.15 -21.15 27.0 L-21.1 27.1 -21.4 27.5 -22.1 28.35 -22.45 28.75 -24.8 24.55 -26.9 21.55 Q-28.3 19.75 -29.7 18.45 -30.35 17.75 -31.1 17.35 L-31.8 16.95 -32.4 16.65 -33.35 16.4" fill="#2d2c2d" fill-rule="evenodd" stroke="none"/>
    <path d="M47.25 11.55 Q43.85 22.55 31.35 30.4 33.25 24.35 33.85 18.0 34.65 9.1 32.9 -0.4 30.3 -14.5 24.55 -22.25 20.2 -28.1 14.05 -30.35 -3.45 -32.15 -11.25 -22.3 -9.0 -26.05 -10.05 -30.25 -11.0 -35.55 -12.65 -38.95 -12.7 -36.6 -14.8 -37.15 L-18.85 -40.35 -23.35 -44.65 Q-23.25 -43.9 -28.2 -43.7 -38.55 -45.4 -47.0 -34.55 -43.65 -41.5 -37.4 -46.15 L-33.6 -48.6 Q-26.65 -58.4 -24.05 -65.6 -24.15 -56.55 -28.85 -44.5 -24.0 -48.1 -22.5 -54.2 L-17.45 -54.15 Q23.85 -50.85 37.95 -8.8 42.35 0.2 47.25 11.55 M-34.5 -45.55 L-33.6 -48.6 -34.5 -45.55 M-31.7 -9.25 Q-24.45 -4.9 -17.2 -6.3 -18.05 0.7 -17.25 9.7 -23.7 -2.55 -29.5 -7.6 L-31.7 -9.25" fill="#494748" fill-opacity="0.99607843" fill-rule="evenodd" stroke="none"/>
    <path d="M-49.5 -0.55 Q-51.55 -11.65 -50.7 -20.55 L-50.5 -22.25 -50.35 -23.4 Q-50.65 -30.7 -47.0 -39.6 -45.65 -37.65 -47.0 -34.55 -38.55 -45.4 -28.2 -43.7 -23.25 -43.9 -23.35 -44.65 L-18.85 -40.35 -14.8 -37.15 Q-12.7 -36.6 -12.65 -38.95 -11.0 -35.55 -10.05 -30.25 -9.0 -26.05 -11.25 -22.3 L-11.3 -22.25 -12.5 -20.55 -12.65 -20.35 Q-16.2 -14.8 -17.2 -6.3 -24.45 -4.9 -31.7 -9.25 L-32.25 -9.6 Q-41.75 -15.15 -49.5 -0.55" fill="#565455" fill-opacity="0.99607843" fill-rule="evenodd" stroke="none"/>
    <path d="M-49.5 -0.55 Q-41.75 -15.15 -32.25 -9.6 L-31.7 -9.25 -29.5 -7.6 Q-49.95 -5.45 -37.15 10.95 L-36.45 11.8 -32.35 16.45 -33.35 16.4 -35.2 16.0 Q-37.4 15.55 -40.55 15.9 -42.8 13.95 -44.5 11.8 L-45.15 10.95 Q-48.85 5.85 -49.5 -0.55 M-22.75 40.95 Q-27.25 37.45 -30.1 34.35 -34.0 30.05 -34.7 26.5 L-34.7 26.45 Q-29.2 32.1 -23.2 33.3 L-23.05 31.35 -23.05 31.3 -22.9 30.65 -22.85 30.6 -22.85 30.55 -22.9 30.5 -22.25 29.3 -22.25 29.45 -23.05 31.35 -22.25 29.45 -22.15 29.45 -22.8 31.65 -23.3 34.35 Q-23.6 37.4 -22.75 40.95" fill="#a2a5a8" fill-opacity="0.99607843" fill-rule="evenodd" stroke="none"/>
    <path d="M16.1 45.0 L15.3 45.2 11.35 41.65 11.6 43.25 Q10.45 43.75 11.2 45.8 L11.25 46.0 11.15 46.0 11.2 45.8 10.8 46.05 Q4.0 50.3 1.05 55.95 L-0.4 59.25 Q-1.7 63.85 -1.95 73.1 L-2.3 73.1 -8.2 64.7 Q-10.35 60.7 -11.85 56.6 -15.6 46.45 -15.65 35.5 L-15.55 31.1 Q-15.55 28.1 -14.9 25.6 L-14.9 25.5 -14.05 22.55 -13.3 22.4 -7.1 21.9 -6.1 22.45 Q-3.4 23.6 -0.95 25.1 L0.65 26.15 1.0 26.4 Q11.15 33.2 16.1 45.0" fill="#bba838" fill-rule="evenodd" stroke="none"/>
    <path d="M11.15 46.0 L10.8 46.05 11.2 45.8 11.15 46.0 M-7.1 21.9 L-13.3 22.4 -14.05 22.55 Q-17.6 23.4 -20.2 25.25 -17.35 20.75 -13.3 20.4 -10.5 20.15 -7.1 21.9" fill="#cd4e4e" fill-opacity="0.99607843" fill-rule="evenodd" stroke="none"/>
    <path d="M-14.05 22.55 L-14.9 25.5 -14.9 25.6 Q-15.55 28.1 -15.55 31.1 L-15.65 35.5 Q-15.6 46.45 -11.85 56.6 -10.35 60.7 -8.2 64.7 L-2.3 73.1 Q-14.85 72.35 -22.75 40.95 -23.6 37.4 -23.3 34.35 L-22.8 31.65 -22.15 29.45 -21.9 28.6 -22.15 29.45 -22.25 29.45 -22.25 29.3 -22.0 28.75 -21.95 28.65 -21.9 28.6 -21.85 28.5 -21.85 28.4 -21.85 28.45 -21.4 27.5 -21.1 27.1 -21.15 27.0 -20.2 25.25 Q-17.6 23.4 -14.05 22.55 M-21.85 28.5 L-21.85 28.45 -21.85 28.5 M-22.25 29.45 L-22.0 28.75 -22.25 29.45" fill="#dac442" fill-rule="evenodd" stroke="none"/>
    <path d="M17.8 -5.75 L19.7 -8.3 17.65 -3.55 M16.9 1.95 L18.65 -0.35 17.6 0.35 M15.25 10.8 L16.8 10.6 14.45 11.8 M-47.0 -34.55 Q-45.65 -37.65 -47.0 -39.6 -50.65 -30.7 -50.35 -23.4 L-50.5 -22.25 -50.7 -20.55 M-36.65 24.9 L-38.2 25.2 -37.2 24.5" fill="none" stroke="#272625" stroke-linecap="round" stroke-linejoin="miter-clip" stroke-miterlimit="10.0" stroke-width="1.2000000000000002"/>
    <path d="M11.35 -54.6 Q25.6 -50.8 40.3 -22.25 L42.6 -17.6 Q46.75 -9.05 50.9 1.5 M22.1 41.5 Q19.35 44.8 16.5 46.95 L15.1 48.2 M10.8 46.05 Q4.0 50.3 1.05 55.95 L-0.4 59.25 Q-1.7 63.85 -1.95 73.1 L-2.3 73.1 Q-14.85 72.35 -22.75 40.95 -27.25 37.45 -30.1 34.35 -34.0 30.05 -34.7 26.5 L-34.7 26.45 M17.65 -3.55 L16.9 1.95 16.35 5.4 Q16.85 1.6 16.45 -3.15 L15.5 -9.65 14.2 -8.65 Q5.2 -1.75 2.75 7.85 L2.6 8.4 2.5 8.9 2.45 9.15 2.3 10.25 Q1.7 14.15 2.05 18.6 L2.3 20.75 Q4.9 20.25 7.1 19.2 L8.2 18.6 8.25 18.5 8.7 18.25 10.3 17.15 Q12.95 15.0 14.45 11.8 15.45 9.75 15.95 7.25 L16.35 5.4 M17.8 -5.75 L17.65 -3.55 M-11.25 -22.3 Q-3.45 -32.15 14.05 -30.35 20.2 -28.1 24.55 -22.25 30.3 -14.5 32.9 -0.4 34.65 9.1 33.85 18.0 33.25 24.35 31.35 30.4 M1.0 26.4 Q11.15 33.2 16.1 45.0 M0.65 26.15 L1.05 26.25 M11.15 46.0 L11.2 45.8 10.8 46.05 M-50.7 -20.55 Q-51.55 -11.65 -49.5 -0.55 -41.75 -15.15 -32.25 -9.6 M-17.2 -6.3 Q-16.2 -14.8 -12.65 -20.35 M-12.5 -20.55 L-11.3 -22.25 -11.25 -22.3 M-33.6 -48.6 L-37.4 -46.15 Q-43.65 -41.5 -47.0 -34.55 M-31.7 -9.25 L-29.5 -7.6 Q-23.7 -2.55 -17.25 9.7 -18.05 0.7 -17.2 -6.3 M-15.55 31.1 L-15.65 35.5 Q-15.6 46.45 -11.85 56.6 M-40.55 15.9 Q-42.8 13.95 -44.5 11.8 L-45.15 10.95 Q-48.85 5.85 -49.5 -0.55 M-0.95 25.1 Q-3.4 23.6 -6.1 22.45 L-7.1 21.9 Q-10.5 20.15 -13.3 20.4 -17.35 20.75 -20.2 25.25 L-21.15 27.0 M-21.85 28.45 L-21.85 28.5 -21.9 28.6 -22.15 29.45 -22.8 31.65 -23.3 34.35 Q-23.6 37.4 -22.75 40.95 M-21.85 28.4 L-21.8 28.2 M-21.95 28.65 L-21.9 28.6 M-21.85 28.5 L-21.85 28.4 M-21.85 28.45 L-21.4 27.5 M-1.2 24.75 L-0.95 25.1 0.65 26.15" fill="none" stroke="#272625" stroke-linecap="round" stroke-linejoin="round" stroke-width="1.2000000000000002"/>
    <path d="M-24.05 -65.6 Q-22.45 -70.1 -22.5 -73.6 -19.95 -69.1 -21.45 -60.3 L-22.5 -54.2 M-24.05 -65.6 Q-26.65 -58.4 -33.6 -48.6 L-34.5 -45.55" fill="none" stroke="#272625" stroke-linecap="round" stroke-linejoin="miter-clip" stroke-miterlimit="3.0" stroke-width="1.2000000000000002"/>
    <path d="M11.15 46.0 L10.8 46.05 M-2.3 73.1 L-2.0 73.55 M-32.25 -9.6 L-31.7 -9.25 M-14.9 25.5 L-14.9 25.6" fill="none" stroke="#242119" stroke-linecap="round" stroke-linejoin="round" stroke-width="0.05"/>
    <path d="M-35.05 26.1 L-36.65 24.9 -36.75 24.85 -37.2 24.5 Q-38.5 23.25 -39.55 20.75 L-39.65 20.45 -40.1 18.8 -40.3 18.25 -40.7 16.85 -45.35 15.3 -40.9 15.9 -40.55 15.9 Q-37.4 15.55 -35.2 16.0 L-33.35 16.4 -32.4 16.65 -31.8 16.95 -31.1 17.35 Q-30.35 17.75 -29.7 18.45 -28.3 19.75 -26.9 21.55 L-24.8 24.55 -22.45 28.75 -22.25 29.3 M-23.05 31.35 L-22.25 29.45 -22.0 28.75 -21.95 28.65 -21.8 28.2 M-35.05 26.1 L-34.7 26.35 -34.1 26.75 -32.5 27.75 -30.5 28.95 -26.7 30.6 Q-24.75 31.3 -23.05 31.3 M-40.9 15.9 L-40.7 16.85" fill="none" stroke="#242119" stroke-linecap="round" stroke-linejoin="miter-clip" stroke-miterlimit="10.0" stroke-width="1.2000000000000002"/>
    <path d="M-39.55 20.75 Q-40.25 20.45 -41.0 20.1 L-39.65 20.45 M-40.1 18.8 L-42.25 18.0 -40.3 18.25" fill="none" stroke="#272625" stroke-linecap="round" stroke-linejoin="miter-clip" stroke-miterlimit="10.0" stroke-width="0.8"/>
    <path d="M-14.95 31.1 L-14.95 31.2 Q-14.95 31.75 -15.6 31.75 -16.2 31.65 -16.1 31.05 L-16.1 30.7 -16.05 30.55 -16.05 30.2 -15.5 27.25 -15.25 26.4 -14.95 25.55 -14.85 25.5 -14.8 25.6 -14.8 25.85 -15.05 28.35 -14.95 30.55 -14.95 31.1 M-7.05 21.4 L-7.0 21.4 Q-6.45 21.4 -6.55 21.95 -6.55 22.45 -7.1 22.35 L-7.25 22.35 -7.65 22.3 -8.35 22.3 -9.2 22.25 -11.4 22.35 -12.6 22.5 -15.1 23.0 -16.25 23.45 -17.3 23.9 -17.75 24.15 -18.0 24.25 -19.45 25.25 -19.75 25.55 -19.9 25.65 -20.0 25.7 Q-20.45 26.0 -20.65 25.5 -20.9 25.1 -20.45 24.8 L-19.3 24.2 -16.4 23.0 -14.6 22.45 -9.25 21.55 -7.65 21.4 -7.05 21.4" fill="#242119" fill-rule="evenodd" stroke="none"/>
    <path d="M-10.35 -56.2 Q-10.45 -56.1 -10.45 -56.25 L-10.4 -56.35 -6.95 -56.7 -6.15 -56.75 -5.3 -56.8 -2.45 -56.85 -1.45 -56.8 3.6 -56.5 11.5 -55.15 Q12.1 -54.95 11.9 -54.4 L11.65 -54.05 11.2 -54.0 11.15 -54.0 5.4 -55.35 -1.5 -56.2 -2.5 -56.25 -3.45 -56.3 -4.4 -56.35 -10.35 -56.2 M-8.1 64.65 L-8.15 64.75 -8.25 64.7 -9.7 62.3 -11.55 58.7 -12.4 56.8 -12.4 56.7 Q-12.6 56.1 -12.0 55.95 -11.45 55.75 -11.25 56.35 L-9.85 60.55 -8.1 64.65" fill="#272625" fill-rule="evenodd" stroke="none"/>
  </g>
</svg>
