<?xml version="1.0" encoding="UTF-8" standalone="no"?>
<svg xmlns:xlink="http://www.w3.org/1999/xlink" height="109.05px" width="64.2px" xmlns="http://www.w3.org/2000/svg">
  <g transform="matrix(1.0, 0.0, 0.0, 1.0, 32.3, 54.05)">
    <path d="M-10.2 -45.0 Q-10.3 -48.1 -10.95 -49.65 -6.35 -56.2 0.85 -53.05 L0.35 -36.6 Q-1.65 -41.35 -3.4 -47.75 L-3.4 -44.25 Q-3.7 -37.9 -5.85 -32.4 -8.3 -38.75 -10.2 -45.0" fill="#89674b" fill-rule="evenodd" stroke="none"/>
    <path d="M-16.35 18.2 Q-17.65 21.15 -19.95 20.65 -15.15 11.4 -12.55 -0.5 -9.6 -20.0 -10.2 -45.0 -8.3 -38.75 -5.85 -32.4 -3.7 -37.9 -3.4 -44.25 0.6 -28.4 2.75 -8.85 5.25 -8.35 4.95 -14.85 8.25 -4.9 7.95 15.75 L10.55 12.75 Q11.95 15.1 7.95 26.95 6.45 32.5 -0.25 33.55 -5.1 31.6 -5.25 26.95 L-8.45 31.15 Q-13.0 21.0 -12.05 5.95 L-16.35 18.2" fill="#fcfcfc" fill-rule="evenodd" stroke="none"/>
    <path d="M8.6 -42.55 Q10.15 -26.35 13.4 -11.15 14.85 -4.7 20.45 3.8 19.0 4.35 16.3 0.45 21.65 33.75 31.1 46.8 28.85 47.7 22.65 46.65 L27.0 50.15 11.05 48.6 Q13.3 50.35 15.9 51.5 11.6 51.75 7.0 49.3 1.9 46.6 -3.45 40.9 -4.8 46.7 -8.25 50.05 -11.25 52.95 -16.05 54.05 L-13.75 51.65 -28.35 53.6 Q-26.5 52.1 -25.35 50.3 L-31.1 51.05 Q-21.65 38.35 -16.35 18.2 L-12.05 5.95 Q-13.0 21.0 -8.45 31.15 L-5.25 26.95 Q-5.1 31.6 -0.25 33.55 6.45 32.5 7.95 26.95 11.95 15.1 10.55 12.75 L7.95 15.75 Q8.25 -4.9 4.95 -14.85 5.25 -8.35 2.75 -8.85 0.6 -28.4 -3.4 -44.25 L-3.4 -47.75 Q-1.65 -41.35 0.35 -36.6 L2.6 -31.95 Q4.0 -33.05 4.95 -36.05 5.9 -39.1 6.35 -34.3 7.75 -37.7 8.6 -42.55 M22.65 46.65 Q17.75 41.9 17.45 36.35 17.75 41.9 22.65 46.65 M11.05 48.6 Q7.1 45.45 4.35 40.55 7.1 45.45 11.05 48.6 M-25.35 50.3 Q-21.45 47.55 -21.2 43.5 -21.45 47.55 -25.35 50.3 M-13.75 51.65 Q-9.75 47.3 -9.7 43.7 -9.75 47.3 -13.75 51.65" fill="#ece5e9" fill-rule="evenodd" stroke="none"/>
    <path d="M0.85 -53.05 Q4.5 -51.5 8.85 -47.35 8.6 -45.45 8.6 -42.55 7.75 -37.7 6.35 -34.3 5.9 -39.1 4.95 -36.05 4.0 -33.05 2.6 -31.95 L0.35 -36.6 0.85 -53.05" fill="#846045" fill-rule="evenodd" stroke="none"/>
    <path d="M7.0 49.3 Q-0.2 51.3 -8.25 50.05 -4.8 46.7 -3.45 40.9 1.9 46.6 7.0 49.3" fill="#3c2414" fill-rule="evenodd" stroke="none"/>
    <path d="M8.6 -42.55 Q10.15 -26.35 13.4 -11.15 14.85 -4.7 20.45 3.8 19.0 4.35 16.3 0.45 21.65 33.75 31.1 46.8 28.85 47.7 22.65 46.65 L27.0 50.15 11.05 48.6 Q13.3 50.35 15.9 51.5 11.6 51.75 7.0 49.3 -0.2 51.3 -8.25 50.05 -11.25 52.95 -16.05 54.05 L-13.75 51.65 -28.35 53.6 Q-26.5 52.1 -25.35 50.3 L-31.1 51.05 Q-21.65 38.35 -16.35 18.2 -17.65 21.15 -19.95 20.65 -15.15 11.4 -12.55 -0.5 -9.6 -20.0 -10.2 -45.0 -10.3 -48.1 -10.95 -49.65 M8.85 -47.35 Q8.6 -45.45 8.6 -42.55 7.75 -37.7 6.35 -34.3 5.9 -39.1 4.95 -36.05 4.0 -33.05 2.6 -31.95 L0.35 -36.6 Q-1.65 -41.35 -3.4 -47.75 L-3.4 -44.25 Q-3.7 -37.9 -5.85 -32.4 -8.3 -38.75 -10.2 -45.0 M4.35 40.55 Q7.1 45.45 11.05 48.6 M17.45 36.35 Q17.75 41.9 22.65 46.65 M-21.2 43.5 Q-21.45 47.55 -25.35 50.3 M-8.25 50.05 Q-4.8 46.7 -3.45 40.9 1.9 46.6 7.0 49.3 M-9.7 43.7 Q-9.75 47.3 -13.75 51.65" fill="none" stroke="#191411" stroke-linecap="round" stroke-linejoin="miter-clip" stroke-miterlimit="5.0" stroke-width="1.1500000000000001"/>
    <path d="M0.85 -53.05 L0.85 -53.35" fill="none" stroke="#191411" stroke-linecap="round" stroke-linejoin="miter-clip" stroke-miterlimit="5.0" stroke-width="0.05"/>
  </g>
</svg>
