<?xml version="1.0" encoding="UTF-8" standalone="no"?>
<svg xmlns:xlink="http://www.w3.org/1999/xlink" height="104.75px" width="43.2px" xmlns="http://www.w3.org/2000/svg">
  <g transform="matrix(1.0, 0.0, 0.0, 1.0, 21.6, 52.4)">
    <path d="M-7.45 49.5 Q-9.9 41.8 -10.55 32.85 L-10.85 25.55 Q-10.5 6.95 -13.2 -4.7 -16.1 -12.9 -17.9 -19.85 -23.7 -41.95 -18.8 -51.85 L1.7 -50.6 Q9.3 -5.25 4.15 48.2 -2.85 46.25 -7.45 49.5" fill="#89674b" fill-rule="evenodd" stroke="none"/>
    <path d="M1.7 -50.6 L20.85 -49.5 Q21.3 -34.25 20.6 -19.85 19.7 -0.9 16.9 16.5 16.65 24.0 15.5 32.85 14.35 41.65 12.35 51.8 7.9 49.25 4.15 48.2 9.3 -5.25 1.7 -50.6" fill="#846045" fill-rule="evenodd" stroke="none"/>
    <path d="M-7.45 49.5 Q-9.9 41.8 -10.55 32.85 L-10.85 25.55 Q-10.5 6.95 -13.2 -4.7 -16.1 -12.9 -17.9 -19.85 -23.7 -41.95 -18.8 -51.85 L1.7 -50.6 20.85 -49.5 Q21.3 -34.25 20.6 -19.85 19.7 -0.9 16.9 16.5 16.65 24.0 15.5 32.85 14.35 41.65 12.35 51.8" fill="none" stroke="#191411" stroke-linecap="round" stroke-linejoin="round" stroke-width="1.1500000000000001"/>
  </g>
</svg>
