<?xml version="1.0" encoding="UTF-8" standalone="no"?>
<svg xmlns:xlink="http://www.w3.org/1999/xlink" height="125.0px" width="45.0px" xmlns="http://www.w3.org/2000/svg">
  <g transform="matrix(1.0, 0.0, 0.0, 1.0, 22.8, 62.5)">
    <path d="M-2.2 61.55 Q-4.4 20.8 6.75 29.9 10.6 9.35 3.35 -29.0 L7.65 -22.5 Q8.25 -36.8 11.85 -44.05 14.45 -55.6 18.65 -57.7 21.95 -50.6 20.35 -33.85 L20.1 -30.75 20.05 -30.25 Q18.95 -15.05 20.35 -8.25 18.15 -9.65 16.25 -16.95 15.95 -7.95 16.6 10.0 L16.7 11.7 Q16.7 14.65 15.95 17.45 L14.6 21.1 Q14.5 21.2 14.55 21.35 11.15 30.9 9.35 38.85 8.45 42.9 7.95 46.5 L7.95 46.65 Q6.8 55.0 7.9 61.25 L-2.2 61.55 M6.75 29.9 Q9.6 31.5 9.35 38.85 9.6 31.5 6.75 29.9" fill="#846045" fill-rule="evenodd" stroke="none"/>
    <path d="M11.85 -44.05 Q8.25 -36.8 7.65 -22.5 L3.35 -29.0 Q10.6 9.35 6.75 29.9 -4.4 20.8 -2.2 61.55 L-17.55 61.95 Q-17.0 55.35 -17.25 46.65 -17.55 35.3 -19.2 20.45 -25.1 -22.7 -19.6 -61.95 L11.85 -44.05 M15.95 17.45 Q16.7 14.65 16.7 11.7 L16.9 15.2 15.95 17.45" fill="#89674b" fill-rule="evenodd" stroke="none"/>
    <path d="M-19.6 -61.95 Q-25.1 -22.7 -19.2 20.45 -17.55 35.3 -17.25 46.65 -17.0 55.35 -17.55 61.95 M7.9 61.25 Q6.8 55.0 7.95 46.65 L7.95 46.5 Q8.45 42.9 9.35 38.85 11.15 30.9 14.55 21.35 14.5 21.2 14.6 21.1 L15.95 17.45 Q16.7 14.65 16.7 11.7 L16.6 10.0 Q15.95 -7.95 16.25 -16.95 18.15 -9.65 20.35 -8.25 18.95 -15.05 20.05 -30.25" fill="none" stroke="#191411" stroke-linecap="round" stroke-linejoin="round" stroke-width="1.1500000000000001"/>
    <path d="M20.05 -30.25 L22.2 -29.8" fill="none" stroke="#191411" stroke-linecap="round" stroke-linejoin="miter-clip" stroke-miterlimit="5.0" stroke-width="0.05"/>
    <path d="M9.35 38.85 Q9.6 31.5 6.75 29.9" fill="none" stroke="#191411" stroke-linecap="round" stroke-linejoin="miter-clip" stroke-miterlimit="5.0" stroke-width="1.1500000000000001"/>
    <path d="M20.65 -30.75 L20.7 -30.55 Q20.6 -29.95 20.0 -30.05 19.4 -30.15 19.5 -30.7 L19.95 -34.4 20.0 -34.5 20.1 -34.45 20.65 -30.75" fill="#191411" fill-rule="evenodd" stroke="none"/>
  </g>
</svg>
