<?xml version="1.0" encoding="UTF-8" standalone="no"?>
<svg xmlns:xlink="http://www.w3.org/1999/xlink" height="162.05px" width="107.85px" xmlns="http://www.w3.org/2000/svg">
  <g transform="matrix(1.0, 0.0, 0.0, 1.0, 53.45, 81.25)">
    <path d="M5.6 -80.65 Q18.35 -67.3 19.95 -52.1 20.5 -35.8 27.45 -1.65 36.25 39.7 52.75 67.55 52.75 69.55 53.8 71.35 47.15 73.6 40.6 76.75 27.8 67.5 21.05 52.25 3.55 35.1 -24.4 31.45 -38.65 18.4 -52.85 11.35 L5.6 -80.65" fill="#846045" fill-rule="evenodd" stroke="none"/>
    <path d="M40.6 76.75 Q29.55 81.95 16.05 80.2 -4.25 49.85 -24.4 31.45 3.55 35.1 21.05 52.25 27.8 67.5 40.6 76.75" fill="#89674b" fill-rule="evenodd" stroke="none"/>
    <path d="M5.6 -80.65 Q18.35 -67.3 19.95 -52.1 20.5 -35.8 27.45 -1.65 36.25 39.7 52.75 67.55 52.75 69.55 53.8 71.35 M16.05 80.2 Q-4.25 49.85 -24.4 31.45 -38.65 18.4 -52.85 11.35" fill="none" stroke="#191411" stroke-linecap="round" stroke-linejoin="round" stroke-width="1.2000000000000002"/>
  </g>
</svg>
