<?xml version="1.0" encoding="UTF-8" standalone="no"?>
<svg xmlns:xlink="http://www.w3.org/1999/xlink" height="28.5px" width="7.6px" xmlns="http://www.w3.org/2000/svg">
  <g transform="matrix(1.0, 0.0, 0.0, 1.0, -40.75, -28.15)">
    <path d="M41.55 43.0 Q41.35 42.75 41.3 42.3 L41.3 41.95 41.35 41.85 41.5 41.75 Q41.3 41.2 41.8 40.55 41.95 40.4 42.2 40.35 42.75 41.0 42.1 41.8 L41.9 41.95 42.05 42.4 42.1 42.45 42.1 42.5 42.15 42.55 42.05 42.75 42.0 42.95 41.75 43.2 41.55 43.0 M48.15 36.05 Q48.65 37.85 48.0 39.9 L47.4 40.8 Q46.95 39.25 47.5 37.6 L47.45 37.45 47.55 37.25 47.65 37.2 47.7 37.05 47.9 36.25 48.0 36.15 48.15 36.05" fill="#ffffff" fill-opacity="0.8" fill-rule="evenodd" stroke="none"/>
    <path d="M42.1 42.5 L42.75 42.1 Q43.1 42.0 43.05 40.25 43.0 38.5 43.9 36.3 44.75 34.1 44.5 33.3 43.85 31.0 43.9 28.45 L44.05 28.3 Q44.15 28.15 44.35 28.15 L44.95 28.4 46.05 28.45 46.4 28.55 46.75 29.45 Q46.8 30.6 45.85 30.95 L45.75 31.4 45.75 31.55 Q46.25 32.3 46.0 33.5 L45.7 33.9 Q46.3 36.7 46.0 39.25 45.7 41.75 46.85 43.55 47.95 45.35 45.65 48.65 45.4 49.0 45.3 49.55 L44.8 52.1 44.6 52.95 44.45 53.45 44.4 54.75 43.95 55.1 43.4 56.65 43.2 56.65 Q43.25 54.25 43.7 51.9 43.2 50.45 43.75 48.5 L44.75 45.2 Q44.3 44.75 44.15 44.0 L44.15 43.7 43.95 43.7 43.6 43.6 42.4 44.95 42.0 45.65 41.6 45.95 Q39.95 44.6 41.5 43.05 L41.55 43.0 41.75 43.2 42.0 42.95 42.05 42.75 42.15 42.55 42.1 42.5" fill="url(#gradient0)" fill-rule="evenodd" stroke="none"/>
  </g>
  <defs>
    <linearGradient gradientTransform="matrix(0.0, 0.016, -0.0174, 0.0, 43.8, 42.4)" gradientUnits="userSpaceOnUse" id="gradient0" spreadMethod="pad" x1="-819.2" x2="819.2">
      <stop offset="0.0" stop-color="#505050" stop-opacity="0.5019608"/>
      <stop offset="0.22745098039215686" stop-color="#dddddd" stop-opacity="0.8"/>
      <stop offset="0.8705882352941177" stop-color="#ffffff"/>
    </linearGradient>
  </defs>
</svg>
