<?xml version="1.0" encoding="UTF-8" standalone="no"?>
<svg xmlns:xlink="http://www.w3.org/1999/xlink" height="46.4px" width="22.15px" xmlns="http://www.w3.org/2000/svg">
  <g transform="matrix(1.0, 0.0, 0.0, 1.0, -33.2, -13.7)">
    <path d="M42.1 42.5 L42.75 42.1 Q43.1 42.0 43.05 40.25 43.0 38.5 43.5 36.35 43.95 34.2 43.8 32.6 43.65 31.0 43.8 29.7 L44.0 27.95 Q44.0 27.55 44.25 27.4 L45.15 27.35 Q46.15 27.35 46.35 27.75 L46.6 28.55 46.75 29.45 46.7 30.0 Q47.1 30.25 47.05 30.8 L46.65 31.8 Q46.25 32.3 46.0 33.5 L46.05 34.15 Q46.3 36.7 46.0 39.25 45.7 41.75 46.85 43.55 47.95 45.35 45.65 48.65 45.4 49.0 45.3 49.55 L44.9 51.65 44.75 51.85 44.75 52.45 44.6 52.95 44.45 53.45 44.4 54.75 44.3 55.0 44.05 55.05 Q43.85 55.05 43.75 55.2 L43.6 56.0 43.6 56.15 43.4 56.65 43.2 56.65 Q43.25 54.25 43.7 51.9 43.2 50.45 43.75 48.5 L44.75 45.2 Q44.3 44.75 44.15 44.0 L44.15 43.7 43.95 43.7 43.6 43.6 42.4 44.95 42.0 45.65 41.6 45.95 Q39.95 44.6 41.5 43.05 L41.55 43.0 41.75 43.2 42.0 42.95 42.05 42.75 42.15 42.55 42.1 42.5" fill="url(#gradient0)" fill-rule="evenodd" stroke="none"/>
    <path d="M42.6 21.0 Q41.55 18.5 43.0 15.75 43.7 14.45 44.85 13.7 45.35 13.7 45.65 14.1 L45.75 14.5 Q42.9 16.4 43.55 19.8 L43.5 20.95 43.4 20.85 43.1 20.7 42.6 21.0 M42.95 22.65 Q42.15 25.2 40.9 27.55 41.4 30.1 40.95 33.55 40.65 35.85 39.7 37.5 L39.3 35.95 Q39.8 35.6 39.8 34.85 L39.8 32.6 39.85 32.35 40.4 30.1 40.3 29.95 40.0 29.75 39.95 29.75 40.2 28.75 39.95 29.2 40.25 27.85 40.15 27.7 Q40.0 27.55 39.85 27.5 39.35 27.65 39.2 28.2 38.9 29.45 39.0 30.55 L38.7 31.15 38.7 31.3 Q38.25 32.3 38.55 33.4 38.6 34.45 38.95 35.4 L38.5 35.85 Q36.25 32.0 38.1 28.45 L38.85 28.5 38.85 28.4 38.6 27.7 38.05 27.1 38.85 26.8 Q39.2 26.75 39.15 26.35 L38.75 26.05 37.0 25.95 36.7 26.15 36.55 26.3 36.6 27.0 36.55 26.95 34.95 26.35 35.15 26.1 35.25 25.75 35.05 25.5 34.65 25.35 34.85 25.3 37.95 25.2 38.4 25.2 38.95 24.8 Q39.45 24.5 40.0 24.35 L40.4 24.6 40.55 24.8 40.2 25.55 40.8 24.05 Q41.0 22.55 42.2 21.85 42.1 22.35 42.4 22.75 L42.95 22.65 M50.05 26.45 L50.7 29.15 50.75 29.75 Q50.8 31.4 50.45 33.2 50.85 32.85 51.5 32.65 L51.85 32.55 52.4 32.75 52.5 32.95 Q52.0 34.25 50.35 34.5 L50.2 34.5 50.3 34.55 50.55 34.7 50.15 36.05 50.1 36.7 50.0 36.7 Q49.75 38.25 50.05 39.95 50.3 41.15 49.45 41.6 48.05 39.0 48.75 36.05 48.2 35.15 49.3 33.1 49.65 32.5 49.6 31.65 49.4 29.2 49.55 26.75 L49.8 26.55 50.05 26.45 M54.3 43.0 Q54.1 43.25 53.7 43.3 52.65 42.15 53.4 40.3 L53.6 39.45 53.85 39.3 53.95 39.25 Q53.35 37.55 53.75 35.45 53.35 34.65 53.4 33.45 53.4 32.6 54.15 32.3 L53.9 31.45 53.55 30.55 53.35 31.7 Q53.3 32.45 52.65 32.65 51.65 31.7 52.4 30.1 52.75 29.45 53.4 29.2 55.35 30.2 55.15 32.8 L54.75 33.65 Q55.55 35.8 55.15 38.55 L54.75 37.6 54.55 37.7 Q54.35 37.75 54.3 37.95 L54.25 38.8 Q54.05 40.4 54.6 41.55 54.4 41.55 54.25 41.75 53.8 42.55 54.3 43.0 M44.9 51.65 L45.05 51.55 45.35 51.45 Q47.1 55.2 45.0 59.3 44.35 60.55 43.25 59.9 43.2 59.1 43.95 58.6 L44.1 58.2 Q43.5 57.4 43.6 56.15 L43.6 56.0 43.75 55.2 Q43.85 55.05 44.05 55.05 L44.3 55.0 44.55 54.95 44.7 52.9 44.75 52.45 44.75 51.85 44.9 51.65 M41.55 43.0 Q41.35 42.75 41.3 42.3 L41.3 41.95 41.35 41.85 41.5 41.75 Q41.3 41.2 41.8 40.55 41.95 40.4 42.2 40.35 42.75 41.0 42.1 41.8 L41.9 41.95 42.05 42.4 42.1 42.45 42.1 42.5 42.15 42.55 42.05 42.75 42.0 42.95 41.75 43.2 41.55 43.0 M48.15 36.05 Q48.65 37.85 48.0 39.9 L47.4 40.8 Q46.95 39.25 47.5 37.6 L47.45 37.45 47.55 37.25 47.65 37.2 47.7 37.05 47.9 36.25 48.0 36.15 48.15 36.05 M52.8 40.8 Q53.35 42.6 51.95 45.1 L51.55 45.6 51.75 45.75 51.9 45.95 Q51.95 46.85 51.0 46.65 L50.7 46.5 Q50.6 46.15 50.75 45.85 L50.85 45.75 Q49.7 43.8 51.7 41.7 L52.8 40.8 M40.25 40.85 Q40.1 41.35 39.55 41.45 38.75 40.7 38.95 39.5 38.8 39.0 38.9 38.35 L39.0 37.8 39.25 37.6 39.55 37.45 Q40.05 37.9 40.2 38.6 40.55 39.55 40.25 40.85 M41.7 50.35 Q42.7 50.85 42.5 52.15 L42.25 52.7 41.4 52.8 41.25 52.7 41.2 50.9 Q41.2 50.4 41.7 50.35" fill="#ffffff" fill-opacity="0.8" fill-rule="evenodd" stroke="none"/>
    <path d="M43.5 20.95 L43.5 21.0 Q43.45 21.8 43.0 22.55 L42.95 22.65 42.4 22.75 Q42.1 22.35 42.2 21.85 L42.5 21.1 42.6 21.0 43.1 20.7 43.4 20.85 43.5 20.95 M39.3 35.95 L39.15 36.0 38.95 35.4 Q38.6 34.45 38.55 33.4 38.25 32.3 38.7 31.3 L38.7 31.15 39.0 30.55 Q38.9 29.45 39.2 28.2 39.35 27.65 39.85 27.5 40.0 27.55 40.15 27.7 L40.25 27.85 39.95 29.2 39.85 29.8 39.95 29.75 40.0 29.75 40.3 29.95 40.4 30.1 39.85 32.35 39.8 32.6 39.8 34.85 Q39.8 35.6 39.3 35.95 M38.1 28.45 Q37.4 28.15 36.8 27.3 L36.6 27.0 36.55 26.3 36.7 26.15 37.0 25.95 38.75 26.05 39.15 26.35 Q39.2 26.75 38.85 26.8 L38.05 27.1 38.6 27.7 38.85 28.4 38.85 28.5 38.1 28.45 M34.95 26.35 L34.65 26.95 Q32.65 27.35 33.4 25.75 L33.9 25.35 34.65 25.35 35.05 25.5 35.25 25.75 35.15 26.1 34.95 26.35 M55.15 38.55 Q55.45 39.65 55.35 41.05 55.3 41.55 54.9 41.8 55.25 42.2 54.9 42.9 54.8 43.1 54.5 43.15 L54.3 43.0 Q53.8 42.55 54.25 41.75 54.4 41.55 54.6 41.55 54.05 40.4 54.25 38.8 L54.3 37.95 Q54.35 37.75 54.55 37.7 L54.75 37.6 55.15 38.55" fill="#ffffff" fill-rule="evenodd" stroke="none"/>
  </g>
  <defs>
    <linearGradient gradientTransform="matrix(0.0, 0.016, -0.0174, 0.0, 43.8, 42.4)" gradientUnits="userSpaceOnUse" id="gradient0" spreadMethod="pad" x1="-819.2" x2="819.2">
      <stop offset="0.0" stop-color="#505050" stop-opacity="0.5019608"/>
      <stop offset="0.22745098039215686" stop-color="#dddddd" stop-opacity="0.8"/>
      <stop offset="0.8705882352941177" stop-color="#ffffff"/>
    </linearGradient>
  </defs>
</svg>
