<?xml version="1.0" encoding="UTF-8" standalone="no"?>
<svg xmlns:xlink="http://www.w3.org/1999/xlink" height="76.95px" width="31.25px" xmlns="http://www.w3.org/2000/svg">
  <g transform="matrix(1.0, 0.0, 0.0, 1.0, -24.1, 1.85)">
    <path d="M52.25 1.45 Q52.25 2.65 51.85 3.5 51.45 4.3 50.85 4.3 50.25 4.3 50.35 3.9 L50.4 2.25 50.3 -0.2 Q50.25 -1.4 50.85 -1.4 51.45 -1.4 51.85 -0.55 52.25 0.25 52.25 1.45 M42.5 -1.85 L43.9 0.25 45.1 2.2 44.9 2.8 44.05 2.95 Q43.15 2.95 42.45 2.1 41.65 1.05 41.65 -0.7 41.65 -1.7 42.0 -1.85 L42.5 -1.85 M49.95 7.2 Q50.4 7.95 50.8 8.15 L52.25 8.4 52.7 9.25 52.15 9.65 51.2 9.85 Q50.7 11.9 52.15 15.85 53.55 19.8 53.75 19.85 L53.55 20.35 Q53.15 20.8 53.15 21.3 L52.85 22.15 52.25 22.3 51.35 21.65 Q51.35 21.45 51.7 21.15 52.05 20.9 52.05 20.35 L50.5 15.0 Q48.95 9.75 48.95 8.85 48.95 7.65 49.95 7.2 M42.6 21.0 Q42.05 18.75 42.3 17.9 L41.5 18.0 40.85 17.8 40.95 17.6 Q42.2 16.45 43.15 14.6 43.55 13.85 45.35 13.85 44.75 13.85 44.8 10.9 L44.75 5.7 45.65 5.05 Q47.9 8.15 47.9 10.85 L47.55 13.45 47.15 15.3 Q47.3 15.6 48.05 15.3 48.7 15.7 48.85 16.3 49.2 17.4 48.6 19.95 L49.0 20.0 Q49.4 20.15 49.5 20.45 47.5 19.65 47.55 18.2 L47.3 20.55 46.9 21.05 45.25 16.15 Q45.2 15.95 46.1 14.75 L45.75 14.4 Q44.8 15.45 44.05 17.0 42.9 19.4 43.6 20.95 L43.5 20.95 43.4 20.85 42.6 21.0 M42.95 22.65 L42.65 26.35 42.45 26.45 42.65 26.6 42.75 27.05 42.65 27.5 42.35 27.7 42.1 27.5 41.95 27.05 Q41.95 26.8 42.1 26.6 L42.35 26.4 Q42.15 26.2 42.35 25.5 L42.3 24.6 41.6 25.7 Q40.9 26.95 40.9 27.55 L40.7 30.45 Q40.6 32.55 41.2 32.55 41.85 32.55 41.95 33.4 L41.9 36.2 41.55 36.5 41.25 36.45 41.2 35.05 40.95 33.6 40.75 34.25 40.55 35.55 40.6 35.55 Q41.2 35.55 41.25 38.55 L41.35 42.0 Q42.75 39.85 43.4 38.1 L43.05 39.75 42.55 41.6 42.35 42.3 41.1 43.6 41.0 43.65 Q40.75 43.45 40.35 40.55 L39.65 41.45 39.9 42.3 39.5 42.95 38.5 44.15 Q39.6 44.85 40.85 47.25 L41.0 47.9 41.8 47.15 Q42.7 48.55 42.25 48.4 41.75 48.2 41.75 48.7 L42.15 49.85 Q42.55 50.5 42.55 51.0 L42.4 52.65 41.05 52.75 40.2 55.95 Q39.6 58.0 39.85 58.55 39.85 59.65 37.6 60.7 35.4 61.7 34.55 61.3 36.9 60.4 38.1 56.05 39.3 51.65 40.05 50.85 L40.35 49.9 38.05 49.55 Q37.45 49.55 37.4 49.1 L37.5 48.1 37.45 48.0 35.85 50.2 33.9 52.55 33.1 52.2 Q33.3 51.05 34.5 49.0 L35.6 47.1 Q35.6 45.25 34.1 44.5 32.6 44.1 32.25 42.8 31.9 41.45 28.5 43.2 25.1 44.95 24.1 44.95 25.75 41.45 27.25 40.5 L30.2 40.35 33.8 41.45 Q36.35 41.95 39.0 40.95 L39.45 41.3 Q38.9 40.3 38.9 38.65 L39.0 37.8 39.55 37.45 40.2 38.6 40.25 38.75 40.3 36.3 39.7 37.5 39.3 35.95 Q39.6 35.65 39.7 33.35 39.75 30.95 40.4 30.1 L40.0 29.75 39.95 29.75 40.2 28.75 39.95 29.2 40.15 27.9 39.85 27.5 39.0 30.35 Q38.45 31.9 38.45 32.35 38.45 33.5 38.95 35.4 L38.5 35.85 Q37.3 33.1 37.3 32.1 37.3 30.75 38.1 28.45 L38.85 28.5 Q38.85 27.95 38.05 27.1 L39.15 26.5 39.05 26.15 38.75 26.05 37.0 25.95 36.55 26.3 36.6 27.0 34.95 26.35 35.3 25.95 34.65 25.35 Q37.2 25.25 40.0 24.35 38.75 23.25 38.75 22.35 38.75 21.45 39.3 21.4 L40.1 21.5 Q40.55 21.5 41.15 20.05 L41.8 20.15 Q42.15 20.25 42.15 20.9 L42.05 21.5 41.2 21.8 40.2 21.6 Q40.65 22.15 40.8 23.05 L40.65 24.05 Q40.35 24.3 40.0 24.35 40.65 24.35 40.6 24.65 L40.2 25.55 41.15 23.55 Q41.6 22.55 42.2 21.85 42.95 22.65 42.2 22.35 42.4 22.75 42.95 22.65 M43.8 34.45 L43.5 33.75 43.6 33.8 43.7 34.0 43.8 34.45 M47.55 37.65 L48.15 36.05 48.3 36.65 48.4 37.95 Q48.4 38.8 47.8 40.45 L47.65 40.6 47.4 40.8 Q47.25 40.25 47.25 39.25 47.25 38.6 47.55 37.65 M54.3 43.0 L53.7 43.3 Q53.15 43.0 53.15 42.0 L53.3 38.55 53.4 33.45 Q53.4 32.95 53.8 32.9 54.15 32.8 54.15 32.3 L54.1 31.65 53.9 31.45 53.55 30.55 53.2 32.35 52.65 32.65 Q52.3 32.2 52.1 31.55 51.85 30.2 52.5 29.75 L53.4 29.2 Q55.35 31.15 55.25 32.35 L54.75 33.65 55.0 36.0 55.15 38.55 54.75 37.6 54.25 37.95 54.25 41.1 Q54.25 42.2 54.05 42.5 L54.3 43.0 M49.6 25.95 L50.65 28.65 Q50.9 30.35 50.45 33.2 51.25 32.7 51.85 32.55 52.35 32.65 52.5 32.95 50.1 33.85 50.1 34.3 50.1 34.55 50.55 34.7 L50.25 37.15 Q50.0 39.2 50.15 40.55 L49.85 41.35 49.45 41.6 Q48.55 39.45 48.55 37.55 L49.1 32.4 Q49.75 27.25 49.6 25.95 M52.8 40.8 L52.25 44.05 Q51.75 46.0 51.9 46.35 L51.45 46.7 50.9 46.05 Q50.5 45.45 50.5 44.3 50.5 43.65 51.35 42.45 52.0 41.55 52.8 40.8 M39.85 20.35 L39.75 20.85 36.8 16.6 Q34.95 13.9 33.35 13.85 35.45 12.65 37.6 15.5 39.25 17.7 39.85 20.35 M34.75 63.95 Q34.75 64.45 34.4 64.8 L33.5 65.15 Q33.0 65.15 32.65 64.8 32.25 64.45 32.25 63.95 32.25 63.45 32.65 63.1 33.0 62.75 33.5 62.75 34.0 62.75 34.4 63.1 34.75 63.45 34.75 63.95 M32.25 65.3 L32.0 65.9 31.4 66.1 30.8 65.9 30.55 65.3 Q30.55 64.95 30.8 64.75 31.05 64.5 31.4 64.5 L32.0 64.75 32.25 65.3 M40.55 35.55 Q40.55 34.85 40.2 35.2 39.85 35.55 40.55 35.55" fill="#ffffff" fill-opacity="0.8" fill-rule="evenodd" stroke="none"/>
    <path d="M43.5 20.95 L42.95 22.65 Q42.4 22.75 42.2 22.35 42.95 22.65 42.2 21.85 L42.6 21.0 43.4 20.85 43.5 20.95 M39.3 35.95 L38.95 35.4 Q38.45 33.5 38.45 32.35 38.45 31.9 39.0 30.35 L39.85 27.5 40.15 27.9 39.95 29.2 39.95 29.75 40.0 29.75 40.4 30.1 Q39.75 30.95 39.7 33.35 39.6 35.65 39.3 35.95 M38.1 28.45 Q37.2 27.9 36.6 27.0 L36.55 26.3 37.0 25.95 38.75 26.05 39.05 26.15 39.15 26.5 38.05 27.1 Q38.85 27.95 38.85 28.5 L38.1 28.45 M34.95 26.35 L34.5 26.8 33.85 27.05 33.35 26.85 33.25 26.45 33.35 25.9 34.65 25.35 35.3 25.95 34.95 26.35 M55.15 38.55 L55.35 40.4 Q55.35 42.1 54.75 43.1 L54.3 43.0 54.05 42.5 Q54.25 42.2 54.25 41.1 L54.25 37.95 54.75 37.6 55.15 38.55" fill="#ffffff" fill-rule="evenodd" stroke="none"/>
    <path d="M43.4 38.1 Q44.25 35.95 43.8 34.45 L43.7 34.0 43.8 30.35 Q43.8 29.2 44.35 27.5 44.85 25.85 45.35 25.3 46.25 26.05 46.4 29.85 46.55 33.6 47.55 37.65 47.25 38.6 47.25 39.25 47.25 40.25 47.4 40.8 L47.65 40.6 47.65 43.5 Q47.65 44.7 46.7 46.65 45.7 48.6 44.9 51.65 L45.35 51.45 45.6 53.75 Q45.7 55.25 46.3 55.25 L47.05 55.3 47.2 55.5 47.5 56.25 Q47.2 56.9 45.9 56.9 45.3 56.9 42.75 63.35 39.9 70.55 40.9 74.6 L40.35 75.1 Q39.35 74.2 39.15 73.35 38.95 72.6 39.35 71.25 36.2 69.55 36.25 67.85 36.25 67.1 37.1 66.65 L39.05 68.6 42.1 59.8 Q43.35 56.55 44.1 58.45 43.7 57.3 43.6 56.15 L43.35 56.7 43.2 56.65 44.05 47.95 44.25 45.5 Q44.25 46.1 44.1 45.35 L44.0 43.8 43.95 43.7 43.6 43.6 Q42.7 44.15 42.3 45.55 L41.8 47.15 41.0 47.9 40.85 47.25 40.65 45.7 Q40.65 44.75 41.1 43.6 L42.35 42.3 42.55 41.6 43.05 39.75 43.4 38.1" fill="url(#gradient0)" fill-rule="evenodd" stroke="none"/>
  </g>
  <defs>
    <linearGradient gradientTransform="matrix(0.0, 0.016, -0.0174, 0.0, 43.8, 42.4)" gradientUnits="userSpaceOnUse" id="gradient0" spreadMethod="pad" x1="-819.2" x2="819.2">
      <stop offset="0.0" stop-color="#505050" stop-opacity="0.5019608"/>
      <stop offset="0.1411764705882353" stop-color="#dddddd" stop-opacity="0.8"/>
      <stop offset="0.8705882352941177" stop-color="#ffffff"/>
    </linearGradient>
  </defs>
</svg>
