<?xml version="1.0" encoding="UTF-8" standalone="no"?>
<svg xmlns:xlink="http://www.w3.org/1999/xlink" height="161.9px" width="102.0px" xmlns="http://www.w3.org/2000/svg">
  <g transform="matrix(1.0, 0.0, 0.0, 1.0, 51.25, 80.65)">
    <path d="M47.95 -55.55 L50.65 -55.4 50.65 -29.7 50.4 -26.1 50.05 -23.4 49.95 -22.8 49.95 -22.6 Q46.35 1.8 27.7 34.5 26.05 38.75 25.15 43.0 23.2 52.15 24.85 61.25 16.25 66.55 7.6 70.7 L5.8 65.25 Q4.0 30.3 30.7 -21.85 43.25 -49.65 47.95 -55.55" fill="#846045" fill-rule="evenodd" stroke="none"/>
    <path d="M47.95 -55.55 Q43.25 -49.65 30.7 -21.85 4.0 30.3 5.8 65.25 L7.6 70.7 Q-5.65 77.0 -19.05 80.65 -30.5 64.85 -39.25 43.0 -45.05 28.65 -49.7 11.65 -54.0 -34.6 -38.8 -68.55 L-38.15 -69.95 -33.2 -79.5 -32.55 -80.65 -32.2 -80.15 -31.35 -78.95 Q6.75 -58.5 47.95 -55.55" fill="#89674b" fill-rule="evenodd" stroke="none"/>
    <path d="M24.85 61.25 Q23.2 52.15 25.15 43.0 26.05 38.75 27.7 34.5 46.35 1.8 49.95 -22.6 M-38.8 -68.55 Q-54.0 -34.6 -49.7 11.65 -45.05 28.65 -39.25 43.0 -30.5 64.85 -19.05 80.65" fill="none" stroke="#191411" stroke-linecap="round" stroke-linejoin="round" stroke-width="1.2000000000000002"/>
    <path d="M-33.25 -79.5 L-33.15 -79.55 -33.1 -79.45 -37.5 -70.0 -37.6 -69.85 -37.6 -69.75 -37.65 -69.7 -37.65 -69.65 -38.2 -68.3 -38.25 -68.25 Q-38.55 -67.7 -39.05 -67.95 -39.55 -68.2 -39.35 -68.75 L-38.6 -70.15 -38.6 -70.2 -38.5 -70.3 -33.25 -79.5 M50.5 -22.7 L50.5 -22.6 Q50.4 -22.05 49.8 -22.15 49.2 -22.35 49.35 -22.85 L49.45 -23.3 49.45 -23.45 50.25 -28.5 50.55 -30.95 50.65 -31.0 50.7 -30.9 50.6 -23.3 50.55 -23.1 50.5 -22.7" fill="#191411" fill-rule="evenodd" stroke="none"/>
  </g>
</svg>
