<?xml version="1.0" encoding="UTF-8" standalone="no"?>
<svg xmlns:xlink="http://www.w3.org/1999/xlink" height="57.45px" width="66.35px" xmlns="http://www.w3.org/2000/svg">
  <g transform="matrix(1.0, 0.0, 0.0, 1.0, 33.15, 28.7)">
    <path d="M4.25 -28.1 Q13.6 -14.8 23.5 -6.05 L25.4 -4.4 29.4 -1.25 Q32.0 0.7 32.6 3.15 30.85 8.35 27.45 12.8 19.35 4.6 8.8 0.8 -4.95 -10.45 -15.1 -25.3 -6.15 -28.15 4.25 -28.1" fill="#846045" fill-rule="evenodd" stroke="none"/>
    <path d="M-15.1 -25.3 Q-4.95 -10.45 8.8 0.8 19.35 4.6 27.45 12.8 20.2 22.1 5.55 28.15 -1.2 20.0 -5.4 13.0 L-6.35 11.25 -8.05 8.0 -10.0 6.25 -13.95 2.55 -14.45 2.1 -21.35 -4.4 -23.05 -6.05 Q-29.95 -12.75 -32.55 -15.9 -24.65 -22.25 -15.1 -25.3" fill="#89674b" fill-rule="evenodd" stroke="none"/>
    <path d="M32.6 3.15 Q32.0 0.7 29.4 -1.25 L25.4 -4.4 23.5 -6.05 Q13.6 -14.8 4.25 -28.1 M-32.55 -15.9 Q-29.95 -12.75 -23.05 -6.05 L-21.35 -4.4 -14.45 2.1 -13.95 2.55 -10.0 6.25 Q-8.1 8.4 -6.35 11.25 L-5.4 13.0 Q-1.2 20.0 5.55 28.15" fill="none" stroke="#191411" stroke-linecap="round" stroke-linejoin="round" stroke-width="1.2000000000000002"/>
  </g>
</svg>
