<?xml version="1.0" encoding="UTF-8" standalone="no"?>
<svg xmlns:xlink="http://www.w3.org/1999/xlink" height="135.05px" width="65.9px" xmlns="http://www.w3.org/2000/svg">
  <g transform="matrix(1.0, 0.0, 0.0, 1.0, 32.95, 67.55)">
    <path d="M-27.6 56.05 Q-39.0 32.65 -22.9 13.95 -8.0 -9.8 -14.7 -37.3 -10.65 -32.6 -9.25 -24.45 -9.75 -43.75 -2.85 -56.9 L-2.85 -40.95 Q0.35 -60.85 15.35 -66.7 7.6 -58.05 10.2 -49.45 15.95 -62.25 26.0 -66.95 18.75 -55.4 22.7 -45.45 25.95 -37.3 22.15 -29.9 25.05 -34.95 26.15 -39.25 29.7 -29.45 24.75 -13.0 L29.55 -21.85 Q32.75 6.6 20.2 26.85 26.1 24.9 32.35 18.1 26.8 33.35 18.75 39.25 17.0 49.15 10.1 57.3 L5.35 65.35 Q5.2 64.1 5.2 62.75 5.15 56.95 7.35 48.55 L3.3 53.55 6.2 39.9 10.8 28.15 Q7.05 29.35 4.3 34.3 8.45 22.5 15.15 17.15 10.7 17.5 7.35 21.9 15.5 4.25 10.95 -16.45 7.05 3.05 -2.2 19.2 -3.15 14.85 -4.8 14.55 -6.0 23.95 -11.2 32.85 -11.25 28.35 -12.45 25.7 -18.3 43.4 -17.85 60.8 L-27.6 56.05 M11.95 -44.55 Q10.35 -46.55 10.2 -49.45 10.35 -46.55 11.95 -44.55 M22.15 -29.9 L20.2 -26.75 22.15 -29.9 M12.3 42.3 Q15.7 41.45 18.75 39.25 15.7 41.45 12.3 42.3" fill="#846045" fill-rule="evenodd" stroke="none"/>
    <path d="M-11.55 59.15 L-18.45 66.9 -17.85 60.8 Q-18.3 43.4 -12.45 25.7 -11.25 28.35 -11.2 32.85 -6.0 23.95 -4.8 14.55 -3.15 14.85 -2.2 19.2 7.05 3.05 10.95 -16.45 15.5 4.25 7.35 21.9 10.7 17.5 15.15 17.15 8.45 22.5 4.3 34.3 7.05 29.35 10.8 28.15 L6.2 39.9 3.3 53.55 7.35 48.55 Q5.15 56.95 5.2 62.75 1.55 59.5 1.1 52.3 1.8 47.45 1.3 42.4 0.0 43.1 -0.6 45.45 L0.3 27.85 Q-3.8 34.7 -5.95 44.25 -5.5 41.25 -7.15 38.0 -11.15 48.75 -11.55 59.15" fill="#ece5e9" fill-rule="evenodd" stroke="none"/>
    <path d="M5.35 65.35 L-3.8 56.2 Q-7.05 55.55 -10.55 58.05 L-11.55 59.15 Q-11.15 48.75 -7.15 38.0 -5.5 41.25 -5.95 44.25 -3.8 34.7 0.3 27.85 L-0.6 45.45 Q0.0 43.1 1.3 42.4 1.8 47.45 1.1 52.3 1.55 59.5 5.2 62.75 5.2 64.1 5.35 65.35" fill="#dbd5d9" fill-rule="evenodd" stroke="none"/>
    <path d="M-27.6 56.05 Q-39.0 32.65 -22.9 13.95 -8.0 -9.8 -14.7 -37.3 -10.65 -32.6 -9.25 -24.45 -9.75 -43.75 -2.85 -56.9 L-2.85 -40.95 Q0.35 -60.85 15.35 -66.7 7.6 -58.05 10.2 -49.45 15.95 -62.25 26.0 -66.95 18.75 -55.4 22.7 -45.45 25.95 -37.3 22.15 -29.9 25.05 -34.95 26.15 -39.25 29.7 -29.45 24.75 -13.0 L29.55 -21.85 Q32.75 6.6 20.2 26.85 26.1 24.9 32.35 18.1 26.8 33.35 18.75 39.25 17.0 49.15 10.1 57.3 M-18.45 66.9 L-17.85 60.8 Q-18.3 43.4 -12.45 25.7 -11.25 28.35 -11.2 32.85 -6.0 23.95 -4.8 14.55 -3.15 14.85 -2.2 19.2 7.05 3.05 10.95 -16.45 15.5 4.25 7.35 21.9 10.7 17.5 15.15 17.15 8.45 22.5 4.3 34.3 7.05 29.35 10.8 28.15 L6.2 39.9 3.3 53.55 7.35 48.55 Q5.15 56.95 5.2 62.75 5.2 64.1 5.35 65.35 M-27.6 56.05 L-27.2 56.75 M20.2 -26.75 L22.15 -29.9 M10.2 -49.45 Q10.35 -46.55 11.95 -44.55 M18.75 39.25 Q15.7 41.45 12.3 42.3" fill="none" stroke="#191411" stroke-linecap="round" stroke-linejoin="round" stroke-width="1.2000000000000002"/>
  </g>
</svg>
