<?xml version="1.0" encoding="UTF-8" standalone="no"?>
<svg xmlns:xlink="http://www.w3.org/1999/xlink" height="14.9px" width="14.9px" xmlns="http://www.w3.org/2000/svg">
  <g transform="matrix(1.0, 0.0, 0.0, 1.0, 7.45, 7.45)">
    <path d="M7.45 0.0 Q7.45 3.1 5.25 5.25 3.1 7.45 0.0 7.45 -3.1 7.45 -5.3 5.25 -7.45 3.1 -7.45 0.0 -7.45 -3.1 -5.3 -5.3 -3.1 -7.45 0.0 -7.45 3.1 -7.45 5.25 -5.3 7.45 -3.1 7.45 0.0" fill="#292624" fill-rule="evenodd" stroke="none"/>
    <path d="M6.3 -4.7 Q6.3 -3.6 5.55 -2.55 4.8 -1.45 3.75 -1.05 L1.85 -1.15 Q1.1 -1.6 1.1 -2.7 1.1 -3.75 1.85 -4.8 2.65 -5.85 3.75 -6.25 L5.55 -6.2 Q6.3 -5.75 6.3 -4.7" fill="#ffffff" fill-rule="evenodd" stroke="none"/>
  </g>
</svg>
