<?xml version="1.0" encoding="UTF-8" standalone="no"?>
<svg xmlns:xlink="http://www.w3.org/1999/xlink" height="76.4px" width="39.05px" xmlns="http://www.w3.org/2000/svg">
  <g transform="matrix(1.0, 0.0, 0.0, 1.0, 19.55, 38.2)">
    <path d="M18.8 -36.3 L18.85 -36.3 18.8 -36.3 18.85 -36.35 18.85 -36.3 Q19.1 -34.95 17.85 -32.0 L17.8 -31.75 Q15.9 -25.95 14.75 -20.7 12.5 -10.5 12.25 -1.8 11.85 11.55 16.9 20.95 L18.8 24.0 12.85 26.35 5.9 29.95 Q0.0 27.3 0.55 -4.4 4.15 -21.45 18.8 -36.3" fill="#846045" fill-rule="evenodd" stroke="none"/>
    <path d="M18.85 -36.35 L18.8 -36.3 Q4.3 -29.7 -10.2 -18.7 -5.3 -24.85 2.45 -30.1 11.1 -36.0 15.25 -37.25 L16.9 -37.6 Q18.55 -37.7 18.85 -36.35" fill="#9a7454" fill-rule="evenodd" stroke="none"/>
    <path d="M18.8 -36.3 Q4.15 -21.45 0.55 -4.4 0.0 27.3 5.9 29.95 L4.35 30.75 3.95 31.15 -2.75 37.6 Q-5.5 35.8 -6.7 34.8 L-9.7 31.95 Q-18.65 22.3 -18.95 5.45 -19.0 1.35 -18.05 -2.15 -16.3 -11.15 -10.2 -18.7 4.3 -29.7 18.8 -36.3" fill="#89674b" fill-rule="evenodd" stroke="none"/>
    <path d="M18.85 -36.3 L18.8 -36.3" fill="none" stroke="#191411" stroke-linecap="round" stroke-linejoin="round" stroke-width="0.05"/>
    <path d="M18.8 24.0 L16.9 20.95 Q11.85 11.55 12.25 -1.8 12.5 -10.5 14.75 -20.7 15.9 -25.95 17.8 -31.75 L17.85 -32.0 Q19.1 -34.95 18.85 -36.3 L18.85 -36.35 Q18.55 -37.7 16.9 -37.6 L15.25 -37.25 Q11.1 -36.0 2.45 -30.1 -5.3 -24.85 -10.2 -18.7 -16.3 -11.15 -18.05 -2.15 -19.0 1.35 -18.95 5.45 -18.65 22.3 -9.7 31.95 L-6.7 34.8 Q-5.5 35.8 -2.75 37.6" fill="none" stroke="#191411" stroke-linecap="round" stroke-linejoin="round" stroke-width="1.2000000000000002"/>
  </g>
</svg>
