<?xml version="1.0" encoding="UTF-8" standalone="no"?>
<svg xmlns:xlink="http://www.w3.org/1999/xlink" height="17.15px" width="82.05px" xmlns="http://www.w3.org/2000/svg">
  <g transform="matrix(1.0, 0.0, 0.0, 1.0, 41.0, 10.65)">
    <path d="M-37.25 -3.2 L-37.35 -3.15 -37.3 -3.2 -37.25 -3.2" fill="#d08a89" fill-rule="evenodd" stroke="none"/>
    <path d="M-40.4 -0.5 Q-37.25 1.2 -32.65 1.3 L-32.2 1.35 Q-27.75 1.25 -21.9 -0.35 -9.1 -1.8 1.15 -6.95 L-10.55 -9.2 32.7 -10.65 40.45 3.7 Q32.45 5.8 22.8 5.2 10.7 3.55 3.35 4.0 L-6.8 4.7 -13.8 5.05 -21.8 5.35 -27.7 5.8 -32.8 5.65 Q-37.95 4.45 -40.4 -0.5" fill="#ece5e9" fill-rule="evenodd" stroke="none"/>
    <path d="M-37.35 -3.15 L-37.25 -3.2 -10.8 -9.25 -10.55 -9.2 1.15 -6.95 Q-9.1 -1.8 -21.9 -0.35 -27.75 1.25 -32.2 1.35 L-32.65 1.3 Q-37.25 1.2 -40.4 -0.5 -40.55 -1.2 -40.0 -1.75 -39.35 -2.6 -37.35 -3.15" fill="url(#gradient0)" fill-rule="evenodd" stroke="none"/>
    <path d="M-37.35 -3.15 Q-39.35 -2.6 -40.0 -1.75 -40.55 -1.2 -40.4 -0.5 M-37.3 -3.2 L-37.35 -3.15" fill="none" stroke="#191411" stroke-linecap="round" stroke-linejoin="round" stroke-width="1.1500000000000001"/>
    <path d="M-37.25 -3.2 L-37.35 -3.15 M-40.4 -0.5 Q-37.25 1.2 -32.65 1.3 L-32.2 1.35 Q-27.75 1.25 -21.9 -0.35 -9.1 -1.8 1.15 -6.95 L-10.55 -9.2 -10.8 -9.25 -37.25 -3.2 M40.45 3.7 Q32.45 5.8 22.8 5.2 10.7 3.55 3.35 4.0 L-6.8 4.7 -13.8 5.05 -21.8 5.35 -27.7 5.8 -32.8 5.65 Q-37.95 4.45 -40.4 -0.5" fill="none" stroke="#191411" stroke-linecap="round" stroke-linejoin="round" stroke-width="1.2000000000000002"/>
  </g>
  <defs>
    <linearGradient gradientTransform="matrix(0.0254, 0.0, 0.0, 0.0065, -19.65, -3.95)" gradientUnits="userSpaceOnUse" id="gradient0" spreadMethod="pad" x1="-819.2" x2="819.2">
      <stop offset="0.0" stop-color="#d08a89"/>
      <stop offset="1.0" stop-color="#953535"/>
    </linearGradient>
  </defs>
</svg>
