<?xml version="1.0" encoding="UTF-8" standalone="no"?>
<svg xmlns:xlink="http://www.w3.org/1999/xlink" height="221.9px" width="221.5px" xmlns="http://www.w3.org/2000/svg">
  <g transform="matrix(1.0, 0.0, 0.0, 1.0, 106.95, 139.25)">
    <path d="M15.95 -19.75 L15.95 -19.8 15.95 -19.75 M-36.15 -15.2 Q-11.5 -18.6 11.45 -13.2 L28.9 7.5 Q34.05 16.55 37.25 28.55 33.95 21.25 28.55 19.95 31.95 31.65 32.4 46.75 L29.55 38.95 Q24.7 59.2 27.1 67.55 L17.25 65.45 Q22.6 58.8 24.5 49.8 26.45 41.45 26.3 38.65 26.1 35.8 23.95 27.15 21.75 18.5 1.7 8.3 -9.1 6.6 -18.0 11.85 -28.25 20.95 -27.4 30.8 -53.35 52.5 -85.05 55.0 -85.05 52.55 -88.75 51.7 L-92.1 51.25 Q-75.95 43.0 -62.55 21.6 -52.55 8.95 -47.0 -4.5 L-43.25 -8.35 -36.55 -14.8 -36.15 -15.2" fill="#89674b" fill-rule="evenodd" stroke="none"/>
    <path d="M15.95 -19.75 L16.8 -19.4 Q22.7 -16.75 27.4 -8.3 31.3 -1.3 34.3 9.65 40.35 24.5 39.1 36.4 L35.6 32.0 Q38.1 38.3 38.3 50.45 L34.95 38.55 Q36.0 46.45 36.45 54.25 36.75 60.35 36.7 66.4 L33.05 55.8 33.75 68.95 27.1 67.55 Q24.7 59.2 29.55 38.95 L32.4 46.75 Q31.95 31.65 28.55 19.95 33.95 21.25 37.25 28.55 34.05 16.55 28.9 7.5 L11.45 -13.2 Q-11.5 -18.6 -36.15 -15.2 L-27.65 -19.6 -21.7 -21.95 Q-4.05 -26.7 15.95 -19.8 L15.95 -19.75" fill="#846045" fill-rule="evenodd" stroke="none"/>
    <path d="M12.1 35.95 L14.3 36.5 Q12.65 34.3 6.1 32.1 L5.75 31.95 5.5 31.9 Q0.55 30.0 -5.65 30.6 5.0 22.75 -0.6 12.8 -4.65 16.85 -9.25 20.35 L-10.1 21.0 Q-18.0 26.7 -27.4 30.8 -28.25 20.95 -18.0 11.85 -9.1 6.6 1.7 8.3 21.75 18.5 23.95 27.15 26.1 35.8 26.3 38.65 26.45 41.45 24.5 49.8 22.6 58.8 17.25 65.45 12.4 71.45 5.35 75.65 6.55 72.5 8.4 69.55 9.6 67.2 10.95 66.2 10.75 68.1 10.95 69.45 L14.4 61.95 Q20.6 51.65 16.1 41.9 L17.75 42.55 15.55 39.85 14.7 38.75 14.0 37.9 12.1 35.95 M-64.1 23.55 L-59.1 11.75 Q-56.65 5.7 -47.0 -4.5 -52.55 8.95 -62.55 21.6 L-64.1 23.55" fill="#eaaa5b" fill-rule="evenodd" stroke="none"/>
    <path d="M6.1 32.1 Q12.65 34.3 14.3 36.5 L12.1 35.95 14.0 37.9 14.7 38.75 15.55 39.85 17.75 42.55 16.1 41.9 Q20.6 51.65 14.4 61.95 L10.95 69.45 Q10.75 68.1 10.95 66.2 4.35 68.75 0.3 66.05 1.9 67.0 2.4 65.05 L0.05 65.85 Q-6.75 68.3 -14.0 73.75 -22.3 75.45 -29.55 75.7 L-23.5 72.75 Q-33.75 75.9 -41.25 75.0 L-46.5 73.85 Q-48.2 74.2 -51.4 72.5 L-51.55 72.4 -51.85 72.6 -54.7 74.15 -55.25 74.4 -60.2 75.95 Q-64.8 77.15 -69.5 77.75 L-73.25 78.0 Q-78.75 78.1 -83.95 76.7 L-88.65 75.15 Q-90.85 74.25 -92.75 74.2 -95.6 70.65 -94.85 68.05 -94.15 65.35 -90.25 62.1 L-86.75 58.5 -85.3 56.0 -85.05 55.05 -85.05 55.0 Q-53.35 52.5 -27.4 30.8 -17.95 36.6 -5.65 30.6 0.55 30.0 5.5 31.9 L5.75 31.95 6.1 32.1" fill="#fcfcfc" fill-rule="evenodd" stroke="none"/>
    <path d="M10.95 66.2 Q9.6 67.2 8.4 69.55 6.55 72.5 5.35 75.65 L4.9 76.9 0.85 76.9 Q1.8 77.15 1.8 77.4 L2.4 78.0 Q2.95 78.35 -2.1 78.6 L-4.0 79.6 Q-7.3 81.1 -10.9 82.05 L-29.55 75.7 Q-22.3 75.45 -14.0 73.75 -6.75 68.3 0.05 65.85 L2.4 65.05 Q1.9 67.0 0.3 66.05 4.35 68.75 10.95 66.2 M-54.7 74.15 L-51.85 72.6 -51.55 72.4 -51.4 72.5 Q-52.9 73.45 -54.7 74.15" fill="#ece5e9" fill-rule="evenodd" stroke="none"/>
    <path d="M-99.85 51.4 Q-98.15 49.95 -95.75 48.45 L-93.15 46.85 -86.25 42.4 Q-84.7 41.45 -82.7 40.1 L-74.0 33.7 Q-66.1 27.7 -64.4 24.2 L-64.1 23.55 -62.55 21.6 Q-75.95 43.0 -92.1 51.25 L-93.3 51.2 -99.85 51.4" fill="#9a7454" fill-rule="evenodd" stroke="none"/>
    <path d="M-85.05 55.0 L-85.05 55.05 -85.3 56.0 -86.75 58.5 -90.25 62.1 Q-94.15 65.35 -94.85 68.05 -95.6 70.65 -92.75 74.2 -96.2 72.4 -101.45 68.5 -106.7 64.6 -106.25 61.0 -94.35 60.05 -91.55 55.85 L-88.9 51.9 -88.75 51.7 -88.9 51.9 -88.75 51.7 Q-85.05 52.55 -85.05 55.0" fill="#3c2414" fill-rule="evenodd" stroke="none"/>
    <path d="M-92.1 51.25 L-88.75 51.7 -88.9 51.9 -91.55 55.85 Q-94.35 60.05 -106.25 61.0 -105.8 57.4 -99.85 51.4 L-93.3 51.2 -92.1 51.25" fill="#482b18" fill-rule="evenodd" stroke="none"/>
    <path d="M27.4 -8.3 L38.95 -7.05 M34.3 9.65 Q31.3 -1.3 27.4 -8.3 22.7 -16.75 16.8 -19.4 L15.95 -19.75 15.95 -19.8 Q-4.05 -26.7 -21.7 -21.95 M5.35 75.65 Q12.4 71.45 17.25 65.45 22.6 58.8 24.5 49.8 M-10.9 82.05 Q-7.3 81.1 -4.0 79.6 L-2.1 78.6 M-47.0 -4.5 L-43.25 -8.35 -36.55 -14.8 -36.15 -15.2 M-27.4 30.8 Q-53.35 52.5 -85.05 55.0 L-85.05 55.05 -85.3 56.0 -86.75 58.5 -90.25 62.1 Q-94.15 65.35 -94.85 68.05 -95.6 70.65 -92.75 74.2 -90.85 74.25 -88.65 75.15 L-83.95 76.7 Q-78.75 78.1 -73.25 78.0 L-69.5 77.75 Q-64.8 77.15 -60.2 75.95 L-55.25 74.4 M-99.85 51.4 Q-98.15 49.95 -95.75 48.45 L-93.15 46.85 -86.25 42.4 Q-84.7 41.45 -82.7 40.1 L-74.0 33.7 Q-66.1 27.7 -64.4 24.2 L-64.1 23.55 -59.1 11.75 Q-56.65 5.7 -47.0 -4.5 M-99.85 51.4 Q-105.8 57.4 -106.25 61.0 -106.7 64.6 -101.45 68.5 -96.2 72.4 -92.75 74.2" fill="none" stroke="#191411" stroke-linecap="round" stroke-linejoin="round" stroke-width="1.2000000000000002"/>
    <path d="M-21.7 -21.95 L-27.65 -19.6 M6.1 32.1 Q12.65 34.3 14.3 36.5 L12.1 35.95 M15.55 39.85 L17.75 42.55 16.1 41.9 M14.4 61.95 L10.95 69.45 Q10.75 68.1 10.95 66.2 M8.4 69.55 Q6.55 72.5 5.35 75.65 L4.9 76.9 0.85 76.9 Q1.8 77.15 1.8 77.4 L2.4 78.0 Q2.95 78.35 -2.1 78.6 M5.5 31.9 L5.75 31.95 M-47.0 -4.5 Q-52.55 8.95 -62.55 21.6 L-64.1 23.55" fill="none" stroke="#191411" stroke-linecap="round" stroke-linejoin="miter-clip" stroke-miterlimit="5.0" stroke-width="1.1500000000000001"/>
    <path d="M12.1 35.95 L14.0 37.9 14.7 38.75 15.55 39.85 M16.1 41.9 Q20.6 51.65 14.4 61.95 M10.95 66.2 Q9.6 67.2 8.4 69.55 M24.5 49.8 Q26.45 41.45 26.3 38.65 26.1 35.8 23.95 27.15 21.75 18.5 1.7 8.3 -9.1 6.6 -18.0 11.85 -28.25 20.95 -27.4 30.8 -17.95 36.6 -5.65 30.6 0.55 30.0 5.5 31.9 M-0.6 12.8 Q5.0 22.75 -5.65 30.6 M5.75 31.95 L6.1 32.1 M-92.1 51.25 L-88.75 51.7 Q-85.05 52.55 -85.05 55.0 M-92.1 51.25 L-93.3 51.2 -99.85 51.4" fill="none" stroke="#191411" stroke-linecap="round" stroke-linejoin="round" stroke-width="1.1500000000000001"/>
    <path d="M33.75 68.95 L33.05 55.8 36.7 66.4 Q36.75 60.35 36.45 54.25 36.0 46.45 34.95 38.55 L38.3 50.45 Q38.1 38.3 35.6 32.0 L39.1 36.4 Q40.35 24.5 34.3 9.65" fill="none" stroke="#191411" stroke-linecap="round" stroke-linejoin="miter-clip" stroke-miterlimit="5.0" stroke-width="1.2000000000000002"/>
    <path d="M-88.75 51.7 L-88.9 51.9 -88.75 51.7 M-106.25 61.0 L-106.95 61.35" fill="none" stroke="#191411" stroke-linecap="round" stroke-linejoin="round" stroke-width="0.05"/>
    <path d="M-51.05 72.1 L-50.9 72.1 -50.9 72.25 -50.95 72.3 -51.0 72.3 -51.05 72.4 -51.2 72.5 -51.15 72.5 -51.25 72.6 -51.3 72.6 -51.65 72.9 -54.45 74.7 -54.6 74.75 Q-55.15 74.85 -55.35 74.3 -55.45 73.75 -54.9 73.55 L-51.45 72.35 -51.5 72.35 -51.4 72.25 -51.35 72.25 -51.2 72.2 -51.1 72.15 -51.05 72.1" fill="#191411" fill-rule="evenodd" stroke="none"/>
    <path d="M106.15 -119.85 Q110.2 -122.45 113.95 -127.05 114.3 -111.8 107.7 -99.2 105.6 -95.4 102.9 -91.6 102.7 -91.4 102.5 -91.3 58.9 -46.8 12.2 -6.6 9.2 -5.65 5.6 -7.15 L58.85 -54.45 97.8 -96.35 Q106.15 -109.05 106.15 -119.85 M70.25 -79.1 Q67.65 -68.2 58.05 -62.5 L53.65 -54.75 45.9 -52.2 Q58.8 -76.8 61.6 -96.0 65.45 -98.4 69.45 -103.8 L70.65 -105.55 70.5 -103.4 Q68.8 -88.3 63.4 -74.1 L70.25 -79.1 M58.05 -62.5 Q61.05 -68.2 63.4 -74.1 61.05 -68.2 58.05 -62.5" fill="#dedede" fill-rule="evenodd" stroke="none"/>
    <path d="M106.15 -119.85 Q102.9 -117.85 99.45 -117.15 105.3 -126.7 113.95 -127.05 110.2 -122.45 106.15 -119.85 M61.6 -96.0 Q57.95 -93.8 54.45 -94.35 58.9 -102.8 66.55 -104.9 L70.65 -105.55 69.45 -103.8 Q65.45 -98.4 61.6 -96.0" fill="#ddc780" fill-rule="evenodd" stroke="none"/>
    <path d="M99.45 -117.15 Q102.9 -117.85 106.15 -119.85 106.15 -109.05 97.8 -96.35 L58.85 -54.45 5.6 -7.15 Q2.1 -8.55 0.8 -11.9 1.6 -11.5 3.55 -14.05 5.5 -16.65 13.2 -23.2 27.2 -37.5 42.1 -61.2 51.25 -82.15 54.45 -94.35 57.95 -93.8 61.6 -96.0 58.8 -76.8 45.9 -52.2 L53.65 -54.75 58.05 -62.5 Q67.65 -68.2 70.25 -79.1 80.7 -87.2 88.7 -96.5 93.05 -101.55 96.7 -107.0 98.25 -110.15 98.85 -112.8 99.6 -115.2 99.35 -117.15 L99.45 -117.15" fill="#f9f9f9" fill-rule="evenodd" stroke="none"/>
    <path d="M99.45 -117.15 Q102.9 -117.85 106.15 -119.85 110.2 -122.45 113.95 -127.05 105.3 -126.7 99.45 -117.15 L99.35 -117.15 Q99.6 -115.2 98.85 -112.8 98.25 -110.15 96.7 -107.0 93.05 -101.55 88.7 -96.5 80.7 -87.2 70.25 -79.1 L63.4 -74.1 Q61.05 -68.2 58.05 -62.5 L53.65 -54.75 M61.6 -96.0 Q57.95 -93.8 54.45 -94.35 51.25 -82.15 42.1 -61.2 27.2 -37.5 13.2 -23.2 5.5 -16.65 3.55 -14.05 1.6 -11.5 0.8 -11.9 2.1 -8.55 5.6 -7.15 9.2 -5.65 12.2 -6.6 L15.25 -7.95 M113.95 -127.05 Q114.3 -111.8 107.7 -99.2 105.6 -95.4 102.9 -91.6 102.7 -91.4 102.5 -91.3 58.9 -46.8 12.2 -6.6 M70.65 -105.55 L70.5 -103.4 Q68.8 -88.3 63.4 -74.1 M61.6 -96.0 Q65.45 -98.4 69.45 -103.8 L70.65 -105.55 66.55 -104.9 Q58.9 -102.8 54.45 -94.35" fill="none" stroke="#191411" stroke-linecap="round" stroke-linejoin="round" stroke-width="1.2000000000000002"/>
    <path d="M32.7 -132.45 Q29.75 -129.95 25.55 -130.2 29.85 -138.75 36.6 -138.65 35.1 -134.6 32.7 -132.45 M1.9 -98.4 Q-0.7 -95.8 -4.1 -93.9 -2.3 -104.5 7.0 -105.8 5.05 -101.6 1.9 -98.4" fill="#ddc780" fill-rule="evenodd" stroke="none"/>
    <path d="M32.7 -132.45 Q38.6 -122.6 38.3 -115.65 36.5 -102.9 30.5 -88.7 1.9 -45.35 -28.2 -16.4 -31.75 -16.8 -34.65 -18.6 -33.5 -18.75 -33.0 -19.4 -21.15 -35.9 0.35 -62.7 3.3 -66.15 3.15 -76.95 1.65 -88.2 -4.1 -93.9 -0.7 -95.8 1.9 -98.4 9.95 -90.05 8.8 -73.15 L13.3 -78.1 13.3 -78.2 20.65 -90.35 Q24.95 -96.25 28.25 -103.7 32.05 -120.35 25.55 -130.2 29.75 -129.95 32.7 -132.45" fill="#f9f9f9" fill-rule="evenodd" stroke="none"/>
    <path d="M-28.2 -16.4 Q1.9 -45.35 30.5 -88.7 36.5 -102.9 38.3 -115.65 38.6 -122.6 32.7 -132.45 35.1 -134.6 36.6 -138.65 50.55 -113.65 34.0 -85.6 L6.7 -46.0 Q-1.9 -32.6 -11.7 -24.95 -21.5 -17.3 -18.65 -17.6 -24.6 -15.8 -28.2 -16.4 M20.65 -90.35 L13.3 -78.2 13.3 -78.1 8.8 -73.15 Q9.95 -90.05 1.9 -98.4 5.05 -101.6 7.0 -105.8 13.35 -96.75 13.45 -82.3 17.35 -85.85 20.65 -90.35 M13.3 -78.2 L13.45 -82.3 13.3 -78.2" fill="#dedede" fill-rule="evenodd" stroke="none"/>
    <path d="M32.7 -132.45 Q29.75 -129.95 25.55 -130.2 32.05 -120.35 28.25 -103.7 24.95 -96.25 20.65 -90.35 17.35 -85.85 13.45 -82.3 L13.3 -78.2 13.3 -78.1 M1.9 -98.4 Q-0.7 -95.8 -4.1 -93.9 1.65 -88.2 3.15 -76.95 3.3 -66.15 0.35 -62.7 -21.15 -35.9 -33.0 -19.4 -33.5 -18.75 -34.65 -18.6 -31.75 -16.8 -28.2 -16.4 -24.6 -15.8 -18.65 -17.6 -21.5 -17.3 -11.7 -24.95 -1.9 -32.6 6.7 -46.0 L34.0 -85.6 Q50.55 -113.65 36.6 -138.65 35.1 -134.6 32.7 -132.45 M36.6 -138.65 Q29.85 -138.75 25.55 -130.2 M1.9 -98.4 Q5.05 -101.6 7.0 -105.8 -2.3 -104.5 -4.1 -93.9 M7.0 -105.8 Q13.35 -96.75 13.45 -82.3 M-36.4 -14.4 Q-35.05 -16.6 -34.65 -18.6" fill="none" stroke="#191411" stroke-linecap="round" stroke-linejoin="round" stroke-width="1.2000000000000002"/>
  </g>
</svg>
