<?xml version="1.0" encoding="UTF-8" standalone="no"?>
<svg xmlns:xlink="http://www.w3.org/1999/xlink" height="396.15px" width="367.85px" xmlns="http://www.w3.org/2000/svg">
  <g transform="matrix(1.0, 0.0, 0.0, 1.0, 183.95, 198.05)">
    <path d="M-3.65 -196.35 Q-17.35 -174.25 -26.25 -138.7 L-13.1 -135.1 1.6 -97.7 35.05 -38.4 Q70.05 -28.2 102.55 -23.0 L140.6 -6.25 Q154.05 4.35 143.25 17.5 128.75 -19.7 32.35 -27.0 14.85 -48.05 8.3 -70.35 -8.25 -111.8 -32.7 -130.05 -35.5 -132.6 -39.25 -132.05 -45.3 -135.05 -58.35 -130.15 -88.9 -110.05 -114.1 -82.65 L-147.5 -42.3 Q-162.25 -15.8 -171.15 53.4 L-176.05 100.55 Q-171.8 135.5 -161.3 158.6 -154.6 181.3 -145.5 195.45 -162.25 183.5 -173.75 132.7 -188.9 98.25 -180.15 64.75 -165.85 8.3 -160.7 -35.2 -159.9 -39.7 -157.75 -42.4 -126.3 -83.55 -110.05 -102.95 L-87.8 -126.05 Q-72.25 -138.9 -55.75 -147.7 -43.35 -151.75 -31.9 -150.85 L-29.05 -159.2 -27.65 -163.3 Q-15.0 -181.55 -5.7 -197.45 -4.45 -197.6 -3.65 -196.35" fill="#e69a60" fill-rule="evenodd" stroke="none"/>
    <path d="M18.85 79.75 Q4.75 9.75 15.15 1.3 53.6 -25.15 96.55 0.15 147.75 39.3 117.55 58.1 101.2 45.6 73.0 42.6 30.75 51.6 18.85 79.75 M-28.45 60.5 Q-48.4 38.25 -64.1 32.85 -119.25 34.5 -140.55 98.9 -148.75 76.4 -139.6 23.25 -89.45 -106.05 -53.0 -88.75 L-40.3 -50.1 Q-25.5 9.75 -28.45 60.5" fill="#3e98a8" fill-rule="evenodd" stroke="none"/>
    <path d="M143.25 17.5 L183.3 38.2 139.45 99.7 Q136.45 72.5 117.55 58.1 147.75 39.3 96.55 0.15 53.6 -25.15 15.15 1.3 4.75 9.75 18.85 79.75 14.2 90.7 14.2 104.6 10.75 113.3 5.6 105.9 -12.75 78.0 -28.45 60.5 -25.5 9.75 -40.3 -50.1 L-53.0 -88.75 Q-89.45 -106.05 -139.6 23.25 -148.75 76.4 -140.55 98.9 -151.95 134.9 -151.35 173.45 -160.45 148.55 -168.1 122.1 L-169.0 118.55 Q-178.1 79.0 -147.55 -17.65 -140.05 -67.15 -44.55 -130.05 -41.7 -131.75 -39.25 -132.05 -35.5 -132.6 -32.7 -130.05 -8.25 -111.8 8.3 -70.35 14.85 -48.05 32.35 -27.0 128.75 -19.7 143.25 17.5 M-2.3 77.25 Q-14.05 53.7 -8.35 -48.45 -14.05 53.7 -2.3 77.25" fill="#017384" fill-opacity="0.99607843" fill-rule="evenodd" stroke="none"/>
    <path d="M143.25 17.5 Q154.05 4.35 140.6 -6.25 L102.55 -23.0 Q70.05 -28.2 35.05 -38.4 L1.6 -97.7 -13.1 -135.1 -26.25 -138.7 Q-17.35 -174.25 -3.65 -196.35 3.35 -186.8 -5.5 -168.8 -8.9 -163.85 -11.95 -157.25 -8.4 -121.75 18.5 -81.85 L38.45 -44.7 Q59.15 -40.95 79.2 -35.15 107.75 -26.85 135.95 -14.5 154.7 -20.8 162.4 -12.45 171.15 1.85 183.3 38.2 L143.25 17.5 M-16.2 -142.9 L-11.95 -157.25 -16.2 -142.9 M-151.35 173.45 L-149.65 177.9 -141.95 197.5 Q-143.75 196.65 -145.5 195.45 -154.6 181.3 -161.3 158.6 -171.8 135.5 -176.05 100.55 L-171.15 53.4 Q-162.25 -15.8 -147.5 -42.3 L-114.1 -82.65 Q-88.9 -110.05 -58.35 -130.15 -45.3 -135.05 -39.25 -132.05 -41.7 -131.75 -44.55 -130.05 -140.05 -67.15 -147.55 -17.65 -178.1 79.0 -169.0 118.55 L-168.1 122.1 Q-160.45 148.55 -151.35 173.45 M-55.75 -147.7 Q-42.7 -154.7 -29.05 -159.2 L-31.9 -150.85 Q-43.35 -151.75 -55.75 -147.7" fill="#ce8457" fill-rule="evenodd" stroke="none"/>
    <path d="M-27.65 -163.3 L-26.25 -167.45 Q-11.35 -196.85 -5.7 -197.45 -15.0 -181.55 -27.65 -163.3" fill="#f9aa6e" fill-rule="evenodd" stroke="none"/>
    <path d="M143.25 17.5 L183.3 38.2 Q171.15 1.85 162.4 -12.45 154.7 -20.8 135.95 -14.5 107.75 -26.85 79.2 -35.15 59.15 -40.95 38.45 -44.7 L18.5 -81.85 Q-8.4 -121.75 -11.95 -157.25 L-16.2 -142.9 M-39.25 -132.05 Q-35.5 -132.6 -32.7 -130.05 -8.25 -111.8 8.3 -70.35 14.85 -48.05 32.35 -27.0 128.75 -19.7 143.25 17.5 M117.55 58.1 Q136.45 72.5 139.45 99.7 L183.3 38.2 M117.55 58.1 Q101.2 45.6 73.0 42.6 30.75 51.6 18.85 79.75 14.2 90.7 14.2 104.6 10.75 113.3 5.6 105.9 -12.75 78.0 -28.45 60.5 -48.4 38.25 -64.1 32.85 -119.25 34.5 -140.55 98.9 -151.95 134.9 -151.35 173.45 L-149.65 177.9 -141.95 197.5 Q-143.75 196.65 -145.5 195.45 -162.25 183.5 -173.75 132.7 -188.9 98.25 -180.15 64.75 -165.85 8.3 -160.7 -35.2 -159.9 -39.7 -157.75 -42.4 -126.3 -83.55 -110.05 -102.95 L-87.8 -126.05 Q-72.25 -138.9 -55.75 -147.7 -42.7 -154.7 -29.05 -159.2 L-27.65 -163.3 -26.25 -167.45 Q-11.35 -196.85 -5.7 -197.45 -4.45 -197.6 -3.65 -196.35 3.35 -186.8 -5.5 -168.8 -8.9 -163.85 -11.95 -157.25 M-29.05 -159.2 L-31.9 -150.85 M-151.35 173.45 Q-160.45 148.55 -168.1 122.1 L-169.0 118.55 Q-178.1 79.0 -147.55 -17.65 -140.05 -67.15 -44.55 -130.05 -41.7 -131.75 -39.25 -132.05 M-8.35 -48.45 Q-14.05 53.7 -2.3 77.25" fill="none" stroke="#24190f" stroke-linecap="round" stroke-linejoin="round" stroke-width="1.2000000000000002"/>
  </g>
</svg>
