<?xml version="1.0" encoding="UTF-8" standalone="no"?>
<svg xmlns:xlink="http://www.w3.org/1999/xlink" height="382.15px" width="378.75px" xmlns="http://www.w3.org/2000/svg">
  <g transform="matrix(1.0, 0.0, 0.0, 1.0, 189.35, 191.1)">
    <path d="M157.15 190.45 L159.9 181.0 162.9 169.9 164.2 165.25 Q170.85 139.25 175.95 111.9 176.25 110.15 176.6 93.65 176.7 87.75 172.4 71.05 L171.05 66.05 170.05 62.3 166.15 46.0 Q163.0 32.9 152.9 -2.6 L148.75 -17.15 Q139.05 -65.15 42.8 -120.1 L39.1 -122.55 Q31.9 -126.8 27.25 -122.55 17.25 -115.1 8.6 -103.75 L-6.55 -89.55 Q-19.9 -50.8 -39.8 -23.6 L-99.0 -10.75 -150.0 12.4 Q-174.0 24.3 -187.6 42.35 -176.2 8.65 -167.85 -4.95 -160.15 -13.3 -140.15 -11.45 L-84.65 -27.65 Q-64.6 -33.45 -43.9 -37.2 L-23.95 -74.35 Q-10.6 -94.15 -3.15 -112.75 5.9 -123.05 10.75 -135.4 L5.9 -149.35 2.95 -157.15 Q5.65 -157.1 0.1 -188.35 L1.4 -189.7 1.7 -189.9 Q13.75 -163.9 19.3 -133.8 27.95 -141.7 34.35 -139.65 62.6 -125.95 88.0 -105.7 121.5 -77.25 151.95 -35.85 160.55 -14.1 182.45 79.45 186.05 95.3 177.75 125.4 172.95 142.35 169.65 162.25 L157.15 190.45" fill="#e69a60" fill-rule="evenodd" stroke="none"/>
    <path d="M132.75 90.4 Q108.4 47.9 66.4 45.8 50.55 48.15 34.5 60.2 22.8 4.8 29.65 -63.1 24.3 -98.8 56.45 -85.3 98.55 -73.1 130.55 -26.6 149.75 16.25 155.5 74.25 161.45 122.7 132.75 90.4 M-24.05 88.05 Q-35.95 60.35 -80.15 58.05 -94.15 60.3 -104.6 63.85 -120.6 21.35 -93.6 10.2 -58.95 -10.1 -22.1 -6.15 -7.8 37.25 -24.05 88.05" fill="#3e98a8" fill-rule="evenodd" stroke="none"/>
    <path d="M1.7 -189.9 Q5.9 -192.85 11.2 -180.75 16.6 -168.2 20.8 -159.95 L23.6 -151.7 Q35.4 -147.8 46.75 -142.05 66.2 -134.4 84.0 -121.4 L107.25 -99.85 Q123.15 -82.9 152.9 -48.2 L157.7 -42.6 Q160.0 -40.05 161.0 -35.6 L183.2 55.1 185.0 60.7 Q193.7 87.25 182.55 121.75 175.25 179.3 157.15 190.45 L169.65 162.25 Q172.95 142.35 177.75 125.4 186.05 95.3 182.45 79.45 160.55 -14.1 151.95 -35.85 121.5 -77.25 88.0 -105.7 62.6 -125.95 34.35 -139.65 27.95 -141.7 19.3 -133.8 13.75 -163.9 1.7 -189.9 M-188.75 45.7 L-187.6 42.35 Q-174.0 24.3 -150.0 12.4 L-99.0 -10.75 -39.8 -23.6 Q-19.9 -50.8 -6.55 -89.55 L8.6 -103.75 Q-3.95 -87.35 -13.75 -62.85 -20.3 -40.55 -37.8 -19.5 -139.45 -3.85 -148.7 25.0 L-188.75 45.7 M-3.15 -112.75 Q4.4 -131.65 5.9 -149.35 L10.75 -135.4 Q5.9 -123.05 -3.15 -112.75 M26.45 -143.35 L23.6 -151.7 26.45 -143.35" fill="#ce8457" fill-rule="evenodd" stroke="none"/>
    <path d="M159.9 181.0 Q151.65 123.45 132.75 90.4 161.45 122.7 155.5 74.25 149.75 16.25 130.55 -26.6 98.55 -73.1 56.45 -85.3 24.3 -98.8 29.65 -63.1 22.8 4.8 34.5 60.2 19.75 71.3 4.85 90.55 L-0.4 97.8 -11.05 113.4 Q-16.2 120.8 -19.65 112.1 -19.65 104.5 -21.05 97.8 -22.1 92.6 -24.05 88.05 -7.8 37.25 -22.1 -6.15 -58.95 -10.1 -93.6 10.2 -120.6 21.35 -104.6 63.85 -128.2 71.75 -133.4 86.0 -140.95 106.6 -144.9 107.2 L-188.75 45.7 -148.7 25.0 Q-139.45 -3.85 -37.8 -19.5 -20.3 -40.55 -13.75 -62.85 -3.95 -87.35 8.6 -103.75 17.25 -115.1 27.25 -122.55 31.9 -126.8 39.1 -122.55 L42.8 -120.1 Q139.05 -65.15 148.75 -17.15 L152.9 -2.6 Q163.0 32.9 166.15 46.0 L170.05 62.3 171.05 66.05 172.4 71.05 Q176.7 87.75 176.6 93.65 176.25 110.15 175.95 111.9 170.85 139.25 164.2 165.25 L162.9 169.9 159.9 181.0 M-3.15 84.75 Q8.6 61.2 2.9 -40.95 8.6 61.2 -3.15 84.75" fill="#017384" fill-opacity="0.99607843" fill-rule="evenodd" stroke="none"/>
    <path d="M2.95 -157.15 L0.6 -162.5 Q-2.55 -169.3 -2.75 -177.75 -2.85 -184.75 0.1 -188.35 5.65 -157.1 2.95 -157.15" fill="#f9aa6e" fill-rule="evenodd" stroke="none"/>
    <path d="M1.7 -189.9 Q5.9 -192.85 11.2 -180.75 16.6 -168.2 20.8 -159.95 L23.6 -151.7 Q35.4 -147.8 46.75 -142.05 66.2 -134.4 84.0 -121.4 L107.25 -99.85 Q123.15 -82.9 152.9 -48.2 L157.7 -42.6 Q160.0 -40.05 161.0 -35.6 L183.2 55.1 185.0 60.7 Q193.7 87.25 182.55 121.75 175.25 179.3 157.15 190.45 L159.9 181.0 Q151.65 123.45 132.75 90.4 108.4 47.9 66.4 45.8 50.55 48.15 34.5 60.2 19.75 71.3 4.85 90.55 L-0.4 97.8 -11.05 113.4 Q-16.2 120.8 -19.65 112.1 -19.65 104.5 -21.05 97.8 -22.1 92.6 -24.05 88.05 -35.95 60.35 -80.15 58.05 -94.15 60.3 -104.6 63.85 -128.2 71.75 -133.4 86.0 -140.95 106.6 -144.9 107.2 L-188.75 45.7 -187.6 42.35 Q-176.2 8.65 -167.85 -4.95 -160.15 -13.3 -140.15 -11.45 L-84.65 -27.65 Q-64.6 -33.45 -43.9 -37.2 L-23.95 -74.35 Q-10.6 -94.15 -3.15 -112.75 4.4 -131.65 5.9 -149.35 L2.95 -157.15 0.6 -162.5 Q-2.55 -169.3 -2.75 -177.75 -2.85 -184.75 0.1 -188.35 L1.4 -189.7 1.7 -189.9 M159.9 181.0 L162.9 169.9 164.2 165.25 Q170.85 139.25 175.95 111.9 176.25 110.15 176.6 93.65 176.7 87.75 172.4 71.05 L171.05 66.05 170.05 62.3 166.15 46.0 Q163.0 32.9 152.9 -2.6 L148.75 -17.15 Q139.05 -65.15 42.8 -120.1 L39.1 -122.55 Q31.9 -126.8 27.25 -122.55 17.25 -115.1 8.6 -103.75 -3.95 -87.35 -13.75 -62.85 -20.3 -40.55 -37.8 -19.5 -139.45 -3.85 -148.7 25.0 L-188.75 45.7 M10.75 -135.4 L5.9 -149.35 M23.6 -151.7 L26.45 -143.35 M2.9 -40.95 Q8.6 61.2 -3.15 84.75" fill="none" stroke="#24190f" stroke-linecap="round" stroke-linejoin="round" stroke-width="1.2000000000000002"/>
  </g>
</svg>
