<?xml version="1.0" encoding="UTF-8" standalone="no"?>
<svg xmlns:xlink="http://www.w3.org/1999/xlink" height="149.0px" width="101.35px" xmlns="http://www.w3.org/2000/svg">
  <g transform="matrix(1.0, 0.0, 0.0, 1.0, 50.65, 74.5)">
    <path d="M15.25 -14.55 Q12.7 -13.75 10.35 -13.55 -7.25 -9.65 -32.6 -42.4 L-25.5 -49.05 Q-18.15 -55.35 -9.75 -60.45 14.85 -76.5 41.8 -73.4 52.95 -71.25 49.15 -42.05 29.25 -19.05 15.25 -14.55" fill="#e69a60" fill-rule="evenodd" stroke="none"/>
    <path d="M-32.6 -42.4 Q-7.25 -9.65 10.35 -13.55 12.7 -13.75 15.25 -14.55 -1.85 34.65 16.7 63.55 6.15 74.2 -13.65 73.9 L-50.05 -19.9 Q-42.5 -32.4 -32.6 -42.4" fill="#ce8457" fill-rule="evenodd" stroke="none"/>
    <path d="M15.25 -14.55 Q29.25 -19.05 49.15 -42.05 45.45 -13.35 27.35 41.45 24.6 55.6 16.7 63.55 -1.85 34.65 15.25 -14.55" fill="#ba7853" fill-rule="evenodd" stroke="none"/>
    <path d="M49.15 -42.05 Q52.95 -71.25 41.8 -73.4 14.85 -76.5 -9.75 -60.45 -18.15 -55.35 -25.5 -49.05 L-32.6 -42.4 Q-42.5 -32.4 -50.05 -19.9 M-13.65 73.9 Q6.15 74.2 16.7 63.55 24.6 55.6 27.35 41.45 45.45 -13.35 49.15 -42.05 Z" fill="none" stroke="#24190f" stroke-linecap="round" stroke-linejoin="round" stroke-width="1.2000000000000002"/>
  </g>
</svg>
