<?xml version="1.0" encoding="UTF-8" standalone="no"?>
<svg xmlns:xlink="http://www.w3.org/1999/xlink" height="124.65px" width="67.05px" xmlns="http://www.w3.org/2000/svg">
  <g transform="matrix(1.0, 0.0, 0.0, 1.0, 33.0, 62.25)">
    <path d="M0.85 -61.75 Q10.15 -62.1 19.4 -44.7 30.7 -28.2 33.55 20.6 25.9 22.25 17.95 35.65 19.0 -7.4 0.85 -61.75" fill="#ce8457" fill-rule="evenodd" stroke="none"/>
    <path d="M0.85 -61.75 Q19.0 -7.4 17.95 35.65 10.55 48.15 0.35 61.8 -5.3 58.8 -12.7 42.85 -19.9 33.1 -26.0 17.2 -29.65 7.75 -32.9 -3.85 -18.45 -63.05 0.85 -61.75" fill="#e69a60" fill-rule="evenodd" stroke="none"/>
    <path d="M33.55 20.6 Q30.7 -28.2 19.4 -44.7 10.15 -62.1 0.85 -61.75" fill="none" stroke="#24190f" stroke-linecap="round" stroke-linejoin="round" stroke-width="1.0"/>
    <path d="M-26.0 17.2 Q-19.9 33.1 -12.7 42.85 -5.3 58.8 0.35 61.8" fill="none" stroke="#24190f" stroke-linecap="round" stroke-linejoin="round" stroke-width="1.2000000000000002"/>
    <path d="M-32.95 -3.8 L-32.9 -3.9 -32.8 -3.85 -25.4 16.95 -25.4 17.0 Q-25.2 17.55 -25.75 17.75 -26.3 17.9 -26.55 17.4 L-32.95 -3.8" fill="#24190f" fill-rule="evenodd" stroke="none"/>
  </g>
</svg>
