<?xml version="1.0" encoding="UTF-8" standalone="no"?>
<svg xmlns:xlink="http://www.w3.org/1999/xlink" height="106.2px" width="175.6px" xmlns="http://www.w3.org/2000/svg">
  <g transform="matrix(1.0, 0.0, 0.0, 1.0, 62.4, 52.3)">
    <path d="M-61.3 -38.95 L-61.8 -51.7 Q-55.05 -49.6 -48.2 -47.8 -7.0 -37.05 37.6 -38.15 L50.95 -39.6 Q59.0 -40.95 68.0 -44.15 58.8 -39.1 50.95 -35.8 5.2 -16.55 -48.2 -34.45 L-49.7 -34.95 -61.3 -38.95" fill="#d9c997" fill-rule="evenodd" stroke="none"/>
    <path d="M68.0 -44.15 Q80.95 -42.25 79.75 -30.45 63.3 -22.8 50.95 -18.35 -2.95 1.15 -48.2 -1.4 L-59.9 -2.45 -61.3 -38.95 -49.7 -34.95 -48.2 -34.45 Q5.2 -16.55 50.95 -35.8 58.8 -39.1 68.0 -44.15" fill="#fae9ae" fill-rule="evenodd" stroke="none"/>
    <path d="M79.75 -30.45 Q98.1 -27.4 98.4 -11.7 72.35 10.3 45.2 19.5 18.0 28.7 -3.3 32.3 -24.65 35.85 -48.2 35.1 -58.7 34.7 -59.9 35.0 L-59.9 -2.45 -48.2 -1.4 Q-2.95 1.15 50.95 -18.35 63.3 -22.8 79.75 -30.45" fill="#e69a60" fill-rule="evenodd" stroke="none"/>
    <path d="M98.4 -11.7 Q111.05 -7.15 112.6 3.1 102.65 15.0 80.45 25.75 58.25 36.45 50.95 38.8 10.7 51.65 -48.2 53.1 L-59.2 53.3 -59.9 35.0 Q-58.7 34.7 -48.2 35.1 -24.65 35.85 -3.3 32.3 18.0 28.7 45.2 19.5 72.35 10.3 98.4 -11.7" fill="#ce8457" fill-rule="evenodd" stroke="none"/>
    <path d="M112.6 3.1 Q102.65 15.0 80.45 25.75 58.25 36.45 50.95 38.8 10.7 51.65 -48.2 53.1 L-59.2 53.3 M-61.8 -51.7 Q-55.05 -49.6 -48.2 -47.8 -7.0 -37.05 37.6 -38.15 L50.95 -39.6 Q59.0 -40.95 68.0 -44.15 M-59.9 -2.45 L-48.2 -1.4 Q-2.95 1.15 50.95 -18.35 63.3 -22.8 79.75 -30.45" fill="none" stroke="#24190f" stroke-linecap="round" stroke-linejoin="round" stroke-width="1.2000000000000002"/>
  </g>
</svg>
