<?xml version="1.0" encoding="UTF-8" standalone="no"?>
<svg xmlns:xlink="http://www.w3.org/1999/xlink" height="134.8px" width="36.3px" xmlns="http://www.w3.org/2000/svg">
  <g transform="matrix(1.0, 0.0, 0.0, 1.0, 18.15, 70.35)">
    <path d="M0.35 63.85 Q2.5 49.65 3.65 34.55 L4.65 16.55 6.7 -54.7 Q19.45 -26.0 17.2 34.55 L16.9 40.85 Q16.35 52.35 14.75 63.85 L0.35 63.85" fill="#ce8457" fill-rule="evenodd" stroke="none"/>
    <path d="M6.7 -54.7 L4.65 16.55 3.65 34.55 Q2.5 49.65 0.35 63.85 L-17.55 63.85 Q-15.6 59.25 -14.1 54.5 -11.7 48.0 -9.3 38.4 L-8.4 34.55 Q-0.45 -2.15 -8.1 -58.95 -11.85 -82.45 6.7 -54.7" fill="#e69a60" fill-rule="evenodd" stroke="none"/>
    <path d="M14.75 63.85 Q16.35 52.35 16.9 40.85 L17.2 34.55 Q19.45 -26.0 6.7 -54.7 -11.85 -82.45 -8.1 -58.95 -0.45 -2.15 -8.4 34.55 L-9.3 38.4 Q-11.7 48.0 -14.1 54.5 -15.6 59.25 -17.55 63.85" fill="none" stroke="#24190f" stroke-linecap="round" stroke-linejoin="round" stroke-width="1.2000000000000002"/>
  </g>
</svg>
