<?xml version="1.0" encoding="UTF-8" standalone="no"?>
<svg xmlns:xlink="http://www.w3.org/1999/xlink" height="298.1px" width="164.05px" xmlns="http://www.w3.org/2000/svg">
  <g transform="matrix(1.0, 0.0, 0.0, 1.0, 83.0, 164.05)">
    <path d="M41.05 -154.25 Q38.55 -151.35 35.35 -151.35 34.5 -151.35 34.35 -151.85 L34.25 -153.25 Q34.25 -153.7 35.65 -156.4 37.3 -159.55 38.8 -161.55 43.3 -167.6 43.3 -159.1 43.3 -156.8 41.05 -154.25 M9.75 -132.0 L10.1 -131.75 10.25 -130.85 8.3 -125.35 Q6.3 -119.7 6.3 -114.55 6.3 -100.05 10.8 -88.55 13.7 -81.15 20.65 -70.95 28.15 -59.95 30.5 -54.65 35.0 -44.7 35.0 -32.8 31.5 -4.9 31.5 0.85 31.5 6.5 32.45 9.2 33.45 12.0 35.65 13.95 39.4 8.85 41.35 1.35 42.65 -3.65 44.45 -14.0 46.55 -23.0 50.95 -28.65 56.7 -36.1 68.05 -40.75 L68.4 -40.0 63.85 -30.6 Q61.3 -25.1 61.3 -21.6 61.3 -16.2 64.4 -8.45 66.25 -3.75 71.2 7.05 81.05 30.0 81.05 52.35 81.05 62.0 77.05 75.8 73.4 88.6 68.55 97.55 64.4 105.25 61.15 109.1 55.8 115.55 47.75 119.55 39.7 123.55 27.0 128.5 12.75 134.05 9.25 134.05 6.55 134.05 5.3 132.95 L1.75 133.0 Q-24.5 133.0 -46.45 118.6 -59.7 109.95 -67.35 99.55 -74.4 90.1 -78.65 78.8 -83.0 67.2 -83.0 57.55 -83.0 42.95 -75.5 28.3 -70.45 18.4 -59.0 3.85 -45.9 -12.75 -42.5 -18.25 -35.0 -30.35 -35.0 -40.6 -35.0 -49.3 -37.5 -58.2 -40.0 -67.1 -40.0 -70.05 -40.0 -71.45 -38.7 -75.65 -37.4 -80.0 -36.5 -81.0 -34.35 -77.7 -29.15 -72.5 L-20.1 -63.45 Q-9.2 -52.05 -10.0 -44.75 L-9.85 -44.6 Q-6.85 -49.0 -6.85 -55.55 -6.85 -59.55 -10.45 -71.45 -14.1 -83.35 -14.1 -94.15 -14.1 -107.45 -10.7 -115.1 -6.65 -124.25 2.7 -128.7 L2.5 -129.0 Q3.8 -130.4 6.2 -131.3 L9.75 -132.0" fill="#ffebbd" fill-rule="evenodd" stroke="none"/>
  </g>
</svg>
