<?xml version="1.0" encoding="UTF-8" standalone="no"?>
<svg xmlns:xlink="http://www.w3.org/1999/xlink" height="264.5px" width="158.25px" xmlns="http://www.w3.org/2000/svg">
  <g transform="matrix(1.0, 0.0, 0.0, 1.0, 80.1, 132.75)">
    <path d="M5.5 -132.1 L6.55 -132.6 7.05 -132.4 7.25 -131.5 Q7.25 -131.1 4.9 -127.0 2.55 -122.85 2.55 -119.1 2.55 -112.0 7.7 -102.65 10.15 -98.2 19.05 -85.3 26.95 -73.8 30.4 -66.55 35.55 -55.7 35.55 -46.0 35.55 -36.05 30.8 -16.9 27.85 -5.05 25.15 1.45 25.6 3.4 27.25 7.05 29.45 11.75 30.8 11.75 36.5 11.75 39.4 -0.15 41.0 -6.55 42.5 -17.85 44.3 -25.95 49.3 -32.75 55.9 -41.7 66.3 -45.35 66.55 -45.85 66.55 -44.6 64.45 -41.8 62.3 -38.4 58.05 -31.65 58.05 -24.85 58.05 -19.7 61.2 -11.3 63.1 -6.3 68.1 5.35 78.15 29.7 78.15 48.35 78.15 73.45 67.35 93.4 52.3 121.1 19.0 131.75 L10.0 131.75 Q9.05 131.45 8.3 130.5 L4.25 130.55 Q-13.8 130.55 -30.25 123.2 -45.05 116.55 -56.85 104.75 -67.8 93.85 -74.0 80.8 -80.1 68.1 -80.1 56.85 -80.1 41.9 -73.05 28.2 -68.55 19.45 -57.6 5.85 -46.0 -8.6 -42.15 -15.35 -35.1 -27.8 -35.1 -40.55 -35.1 -45.75 -38.35 -59.15 -41.6 -72.55 -41.6 -73.75 -41.6 -83.4 -33.6 -84.35 -33.35 -84.85 -33.35 -83.6 -33.35 -82.95 -33.85 -81.8 L-34.35 -80.05 Q-34.35 -76.2 -29.15 -70.9 -24.9 -66.5 -20.0 -63.75 -14.8 -60.75 -11.65 -55.15 -9.15 -49.6 -7.45 -46.85 -5.1 -47.5 -4.1 -51.95 -3.55 -54.6 -3.6 -57.35 -3.6 -62.25 -8.1 -75.35 -12.6 -88.5 -12.6 -96.75 -12.6 -105.8 -7.8 -117.25 -1.85 -131.5 6.8 -132.75 L5.4 -132.1 5.5 -132.1" fill="#ffebbd" fill-rule="evenodd" stroke="none"/>
  </g>
</svg>
