<?xml version="1.0" encoding="UTF-8" standalone="no"?>
<svg xmlns:xlink="http://www.w3.org/1999/xlink" height="285.5px" width="158.15px" xmlns="http://www.w3.org/2000/svg">
  <g transform="matrix(1.0, 0.0, 0.0, 1.0, 80.5, 151.95)">
    <path d="M9.25 -151.85 L9.4 -151.95 9.55 -151.1 Q9.55 -150.15 8.05 -146.9 L4.8 -139.4 Q0.0 -127.4 0.0 -115.65 0.0 -103.95 5.1 -93.45 7.8 -87.75 16.25 -75.8 24.15 -64.6 27.4 -56.95 32.5 -45.1 32.5 -31.1 32.5 -28.7 31.0 -20.55 29.5 -12.35 29.5 -4.65 29.5 0.4 29.9 2.15 30.1 3.1 30.45 3.8 33.3 1.85 36.15 -1.65 43.0 -10.0 43.0 -23.1 43.65 -24.9 44.7 -30.0 45.7 -34.75 46.75 -37.45 50.15 -46.25 59.55 -50.0 L59.75 -49.85 59.9 -49.0 58.3 -44.35 Q56.65 -39.8 56.65 -35.85 56.65 -29.75 59.95 -21.0 61.9 -15.75 67.15 -3.7 77.65 21.95 77.65 46.55 77.65 54.9 73.2 71.6 68.75 88.2 65.15 93.8 L58.35 105.5 Q54.05 112.75 50.05 117.0 44.65 122.7 33.2 127.45 18.45 133.55 2.0 133.55 -11.75 133.55 -18.75 130.2 L-20.05 129.5 Q-32.25 126.6 -47.55 115.35 -55.5 109.45 -61.7 103.1 -67.6 97.1 -69.0 93.75 L-76.7 74.7 Q-80.5 63.9 -80.5 56.15 -80.5 53.1 -79.35 45.6 -77.7 35.25 -75.0 26.55 -66.8 0.25 -52.25 0.25 -41.95 0.25 -37.9 -16.25 -35.85 -24.5 -35.85 -33.1 -35.85 -42.35 -40.1 -54.9 -44.35 -67.4 -44.35 -76.4 L-43.5 -89.0 -43.35 -90.75 -42.5 -91.0 -41.25 -90.6 Q-39.6 -86.35 -33.35 -80.05 L-21.2 -68.7 Q-13.75 -61.75 -10.6 -57.15 -6.35 -50.85 -7.5 -46.0 -6.4 -47.65 -5.6 -53.15 -5.0 -57.35 -5.0 -59.1 -5.0 -60.9 -10.75 -80.4 -16.5 -99.95 -16.5 -106.75 -16.5 -117.7 -10.5 -130.35 -3.35 -145.5 8.1 -150.75 L9.25 -151.85" fill="#ffebbd" fill-rule="evenodd" stroke="none"/>
  </g>
</svg>
