<?xml version="1.0" encoding="UTF-8" standalone="no"?>
<svg xmlns:xlink="http://www.w3.org/1999/xlink" height="290.35px" width="155.65px" xmlns="http://www.w3.org/2000/svg">
  <g transform="matrix(1.0, 0.0, 0.0, 1.0, 78.1, 162.6)">
    <path d="M2.75 -155.6 L5.05 -157.6 4.2 -156.7 Q11.65 -161.8 22.05 -162.6 L22.25 -162.45 22.3 -161.65 20.15 -157.3 Q18.0 -153.15 18.0 -150.8 18.0 -147.15 14.65 -141.2 L7.25 -129.35 Q-3.5 -112.1 -3.5 -99.25 -3.5 -91.25 1.05 -84.75 2.25 -82.95 11.0 -73.65 17.8 -66.4 20.95 -59.3 25.5 -49.2 25.5 -35.05 L25.35 -28.35 Q25.2 -27.15 23.25 -20.25 22.4 -17.35 19.75 -13.25 L19.5 -12.9 Q19.55 -8.1 20.05 -6.7 22.1 -0.6 30.25 -0.6 37.25 -0.6 42.55 -8.85 46.55 -15.1 46.55 -17.85 46.55 -23.2 45.8 -27.9 45.0 -32.6 45.0 -36.25 45.0 -41.1 47.05 -47.1 49.95 -55.7 55.05 -55.0 L55.25 -54.85 55.4 -54.0 Q51.9 -42.15 51.9 -40.5 51.9 -35.15 55.9 -28.25 58.3 -24.1 64.75 -14.25 77.55 7.45 77.55 35.75 77.55 51.4 76.2 63.5 74.2 81.2 69.8 84.3 L67.2 90.1 Q61.75 101.8 60.4 103.75 56.1 109.75 38.9 118.0 18.55 127.75 2.0 127.75 -18.9 127.75 -41.1 114.6 -62.2 102.15 -68.1 88.25 -73.75 74.85 -75.85 66.3 -78.1 57.1 -78.1 46.35 -78.1 35.0 -74.85 22.25 -69.15 -0.1 -56.5 -0.1 L-51.1 0.6 -48.85 1.25 Q-44.65 1.25 -39.6 -3.45 L-36.1 -7.3 Q-35.15 -9.15 -34.55 -11.0 -33.5 -14.45 -33.5 -20.0 -33.5 -31.5 -39.75 -51.85 -46.0 -72.25 -46.0 -76.8 -46.0 -88.1 -40.6 -95.8 -40.55 -96.8 -40.35 -96.85 L-39.8 -96.85 -39.0 -97.85 Q-38.35 -97.0 -38.35 -95.8 L-38.5 -94.25 -38.25 -91.0 Q-36.1 -85.05 -31.1 -78.75 -27.95 -76.2 -21.25 -71.9 -13.2 -66.65 -9.85 -61.8 -4.9 -54.6 -5.6 -43.6 L-4.55 -44.75 Q-4.0 -49.35 -4.0 -50.0 -4.0 -56.5 -6.6 -64.4 -8.05 -69.0 -12.25 -78.65 -20.5 -97.75 -20.5 -108.3 -20.5 -122.5 -15.5 -133.05 -10.5 -143.65 0.75 -153.9 L1.5 -154.55 2.5 -155.4 2.75 -155.6" fill="#ffebbd" fill-rule="evenodd" stroke="none"/>
  </g>
</svg>
