<?xml version="1.0" encoding="UTF-8" standalone="no"?>
<svg xmlns:xlink="http://www.w3.org/1999/xlink" height="315.7px" width="172.05px" xmlns="http://www.w3.org/2000/svg">
  <g transform="matrix(1.0, 0.0, 0.0, 1.0, 79.1, 197.45)">
    <path d="M3.55 -157.5 Q-7.45 -139.9 -5.1 -122.25 L-5.3 -121.7 Q-5.5 -121.45 -6.35 -121.45 -11.85 -121.45 -15.65 -134.45 -17.55 -141.0 -18.35 -147.65 -18.35 -155.25 -14.75 -162.3 -11.05 -169.85 -3.1 -177.25 L2.8 -182.85 Q8.6 -188.25 13.15 -191.7 27.45 -202.55 27.45 -192.95 27.45 -185.5 18.6 -175.45 L10.75 -166.85 Q6.1 -161.6 3.55 -157.5 M59.0 -50.55 Q56.2 -53.7 54.7 -58.8 53.4 -63.2 53.4 -67.75 53.4 -71.3 56.25 -76.05 59.9 -82.0 64.75 -80.9 L65.0 -74.65 Q65.0 -68.15 63.7 -63.2 62.6 -58.75 59.0 -50.55 M14.55 -80.95 L22.9 -67.2 Q31.8 -51.8 31.8 -39.55 31.8 -32.85 28.9 -24.35 L26.5 -18.1 28.05 -16.6 Q31.4 -13.95 36.35 -13.95 51.1 -13.95 54.85 -25.8 55.35 -27.15 56.8 -34.85 57.55 -38.65 58.8 -40.2 L58.8 -40.7 58.9 -41.8 59.0 -42.45 Q67.4 -24.2 82.25 0.45 92.95 20.5 92.95 38.95 92.95 46.1 90.05 59.1 87.15 71.85 84.45 77.25 79.6 86.85 67.4 98.2 52.5 112.05 39.75 112.8 28.1 118.25 11.5 118.25 -29.15 118.25 -54.9 95.3 -66.6 84.85 -72.85 71.3 -79.1 57.85 -79.1 43.35 -79.1 31.4 -76.7 24.1 -74.2 16.7 -65.6 3.25 -60.45 -4.8 -56.4 -16.85 -52.3 -30.05 -49.85 -36.35 L-48.05 -36.5 Q-47.85 -35.85 -48.0 -34.85 L-48.2 -33.0 Q-48.2 -28.0 -45.6 -21.65 -41.9 -12.45 -35.25 -12.45 -29.85 -12.45 -27.7 -21.55 -26.6 -26.05 -26.6 -30.6 -26.6 -44.45 -32.8 -62.5 -36.1 -72.1 -37.1 -75.75 -39.05 -83.15 -39.05 -89.75 -39.05 -100.6 -37.4 -108.65 -35.6 -117.15 -31.4 -126.15 -31.05 -127.65 -30.2 -128.1 -29.95 -128.8 -29.95 -127.45 -29.95 -124.95 -30.85 -121.3 -31.85 -117.65 -31.85 -116.1 -31.85 -103.5 -26.0 -94.05 -22.6 -88.5 -13.2 -79.5 -3.95 -70.65 -0.4 -64.65 3.75 -57.7 4.95 -49.05 L6.5 -52.75 Q8.8 -58.95 8.8 -63.0 8.8 -65.8 6.75 -76.85 4.6 -87.95 4.6 -91.95 4.6 -92.75 4.95 -94.1 5.05 -95.5 5.45 -96.2 L5.55 -96.6 5.7 -96.6 6.1 -96.85 Q9.3 -89.7 14.55 -80.95" fill="#ffebbd" fill-rule="evenodd" stroke="none"/>
  </g>
</svg>
