<?xml version="1.0" encoding="UTF-8" standalone="no"?>
<svg xmlns:xlink="http://www.w3.org/1999/xlink" height="318.05px" width="169.55px" xmlns="http://www.w3.org/2000/svg">
  <g transform="matrix(1.0, 0.0, 0.0, 1.0, 76.5, 198.0)">
    <path d="M21.45 -196.4 L21.5 -194.9 Q21.5 -189.05 16.7 -178.7 11.95 -168.4 7.25 -164.0 1.35 -158.45 -3.35 -148.65 -8.55 -137.8 -10.3 -134.7 L-11.0 -136.05 -10.75 -137.25 Q-10.75 -137.75 -13.3 -144.45 -15.85 -152.05 -15.85 -157.1 -15.85 -168.75 -8.1 -176.9 -2.05 -183.25 20.5 -198.0 21.25 -197.45 21.45 -196.4 M64.8 -76.15 Q64.8 -69.85 63.55 -67.1 61.05 -62.55 58.4 -56.1 L57.2 -56.1 Q57.05 -56.15 57.05 -56.9 57.05 -57.5 57.55 -57.75 58.05 -57.95 58.05 -58.6 L56.25 -63.3 Q54.4 -67.85 54.4 -71.15 54.4 -75.3 56.05 -79.95 57.6 -84.45 59.6 -86.55 61.8 -88.8 63.2 -86.65 64.8 -84.15 64.8 -76.15 M11.15 -77.85 L12.25 -78.1 Q15.7 -78.1 20.8 -67.2 24.1 -60.15 27.0 -51.35 29.6 -43.4 29.35 -36.8 28.55 -29.35 28.55 -24.15 28.55 -17.55 29.55 -15.0 32.25 -8.1 41.5 -8.1 48.0 -8.1 51.35 -13.9 53.65 -17.85 55.15 -26.6 57.0 -36.95 57.85 -39.3 59.9 -45.1 64.15 -45.1 66.05 -45.1 66.05 -43.35 66.05 -42.6 64.3 -38.5 62.55 -34.4 62.55 -30.4 62.55 -27.1 67.3 -19.65 L77.8 -3.45 Q93.05 21.95 93.05 46.75 93.05 55.9 89.6 65.55 85.6 76.6 78.65 83.3 71.2 92.75 63.05 100.95 47.05 117.05 37.0 117.05 35.55 117.05 33.85 116.25 L31.4 117.3 Q26.7 119.05 18.0 120.05 L-5.0 120.05 Q-30.7 117.0 -53.9 94.9 -63.2 86.1 -68.95 76.85 -74.5 68.0 -74.5 62.6 L-75.5 53.95 Q-76.5 45.5 -76.5 43.3 -76.5 27.9 -75.35 21.45 -73.75 12.55 -67.25 -3.1 -61.05 -18.15 -59.0 -26.45 -55.95 -38.75 -57.8 -48.25 L-59.0 -50.15 Q-60.45 -52.65 -60.25 -53.75 -60.8 -54.1 -59.55 -54.1 -54.85 -54.1 -52.55 -47.8 -51.3 -44.3 -49.8 -33.9 -48.35 -24.05 -46.65 -20.05 -43.95 -13.75 -38.5 -13.75 -29.75 -13.75 -26.5 -24.95 -24.9 -30.6 -25.0 -36.35 -25.0 -47.6 -32.25 -65.95 -36.05 -75.55 -37.25 -79.4 -39.5 -86.75 -39.5 -92.6 -39.5 -101.25 -36.0 -111.35 -31.45 -124.4 -24.0 -127.0 L-23.25 -126.55 Q-23.0 -126.25 -23.0 -125.4 -26.5 -111.5 -26.5 -109.5 -26.5 -101.7 -23.6 -95.75 -21.7 -91.8 -16.65 -85.75 -10.55 -78.55 -8.05 -74.6 -3.15 -66.95 -0.35 -57.35 L-0.35 -38.25 Q-0.1 -36.4 0.5 -35.05 1.65 -32.35 4.85 -32.35 9.7 -32.35 12.5 -43.6 13.9 -49.25 14.3 -55.05 14.3 -57.4 12.8 -66.75 11.35 -75.95 10.8 -77.35 L11.15 -77.85" fill="#ffebbd" fill-rule="evenodd" stroke="none"/>
  </g>
</svg>
