<?xml version="1.0" encoding="UTF-8" standalone="no"?>
<svg xmlns:xlink="http://www.w3.org/1999/xlink" height="321.6px" width="162.65px" xmlns="http://www.w3.org/2000/svg">
  <g transform="matrix(1.0, 0.0, 0.0, 1.0, 77.1, 204.35)">
    <path d="M17.65 -201.95 L18.3 -199.4 Q18.3 -190.5 9.45 -180.15 L1.25 -171.0 Q-3.9 -165.25 -7.0 -160.6 L-9.45 -168.8 Q-9.85 -170.65 -9.85 -175.65 -9.85 -183.8 -7.45 -188.1 -5.55 -191.55 -1.25 -193.7 L7.25 -197.45 Q12.7 -200.15 16.5 -204.35 L17.65 -201.95 M65.8 -90.65 Q63.3 -72.1 57.4 -72.1 55.45 -72.1 54.55 -75.8 54.1 -77.7 54.05 -79.65 54.05 -84.35 56.4 -89.4 59.25 -95.75 63.8 -96.1 L63.6 -95.9 Q63.4 -95.75 63.4 -95.0 L64.6 -92.95 Q65.8 -91.0 65.8 -90.65 M26.8 -76.15 Q24.5 -67.9 24.5 -66.8 24.5 -64.2 28.45 -49.55 L32.55 -33.6 33.25 -22.15 Q33.7 -15.75 34.75 -12.15 37.5 -2.35 47.6 -2.35 58.9 -2.35 62.15 -10.55 63.3 -13.4 63.3 -20.1 L63.4 -20.35 64.4 -20.6 Q66.35 -20.6 72.3 -6.6 78.4 7.75 79.9 16.75 81.5 26.15 83.95 36.5 85.55 44.5 85.55 53.85 85.55 60.4 82.8 69.25 79.6 79.6 73.85 88.65 58.6 112.55 32.5 117.25 L18.5 117.25 Q-10.45 112.75 -22.85 109.05 L-26.25 107.95 -29.25 108.05 Q-50.2 108.05 -68.75 75.55 -72.9 68.15 -75.1 59.15 -77.1 50.85 -77.1 42.55 -77.1 30.4 -75.6 21.05 -74.0 10.75 -69.85 -1.25 -62.95 -21.25 -62.8 -26.4 -62.75 -27.9 -63.25 -32.95 -63.85 -38.5 -63.85 -44.9 -63.85 -49.7 -62.7 -54.35 -61.75 -58.0 -60.35 -60.45 L-60.35 -61.75 -59.75 -61.95 -59.1 -62.3 -58.85 -62.6 -58.5 -62.4 Q-58.35 -62.25 -58.35 -61.5 L-58.4 -61.1 Q-57.75 -59.4 -56.9 -55.8 -55.85 -51.25 -53.6 -49.0 -45.75 -41.25 -44.5 -35.75 -43.95 -27.65 -42.05 -21.75 -38.45 -10.35 -29.3 -10.35 -21.45 -10.35 -17.25 -25.35 -15.15 -32.85 -14.6 -40.5 -14.6 -44.0 -17.1 -52.65 -19.6 -61.25 -19.6 -65.4 L-19.35 -69.5 -19.15 -70.1 -20.5 -69.85 -22.0 -70.1 -22.25 -70.45 -22.5 -71.4 -20.35 -73.55 Q-30.6 -79.95 -34.35 -88.4 -37.1 -94.6 -37.1 -104.9 -37.1 -115.95 -29.45 -127.5 -26.5 -132.0 -24.25 -133.35 -21.85 -134.75 -21.85 -131.6 L-22.35 -126.25 -22.85 -120.9 Q-22.85 -113.25 -17.6 -101.75 -12.35 -90.3 -12.35 -82.85 -12.35 -80.95 -14.5 -76.1 -15.8 -73.15 -17.2 -71.6 L-16.1 -71.25 Q-16.2 -66.6 -11.9 -58.05 -6.8 -48.0 -6.0 -44.6 -5.8 -36.45 -4.55 -30.75 -3.35 -25.25 -0.7 -22.5 L-0.35 -22.6 -0.15 -22.0 Q2.35 -19.75 6.05 -19.75 10.4 -19.75 12.4 -27.55 L13.55 -32.95 13.55 -55.25 Q15.2 -64.7 16.3 -67.35 19.3 -74.75 26.55 -77.35 L26.8 -76.15" fill="#ffebbd" fill-rule="evenodd" stroke="none"/>
  </g>
</svg>
