<?xml version="1.0" encoding="UTF-8" standalone="no"?>
<svg xmlns:xlink="http://www.w3.org/1999/xlink" height="329.55px" width="162.15px" xmlns="http://www.w3.org/2000/svg">
  <g transform="matrix(1.0, 0.0, 0.0, 1.0, 78.1, 213.5)">
    <path d="M13.05 -208.65 Q17.75 -211.35 19.75 -213.5 20.95 -212.65 21.25 -210.3 L21.35 -207.25 Q21.35 -201.0 19.3 -198.0 17.95 -195.95 13.9 -193.75 9.0 -191.05 6.4 -188.65 1.65 -184.35 -2.1 -176.8 -3.5 -178.0 -4.05 -182.35 L-4.4 -186.9 Q-4.4 -197.45 5.1 -203.95 L13.05 -208.65 M59.6 -76.75 Q57.05 -80.7 56.2 -82.55 54.85 -85.55 54.85 -88.35 54.85 -91.75 60.45 -96.7 66.1 -101.65 66.1 -96.35 66.1 -93.2 63.45 -85.75 61.05 -79.15 59.6 -76.75 M14.85 -76.0 Q19.55 -87.55 34.1 -89.2 L34.25 -89.0 34.4 -88.0 31.4 -81.15 Q28.45 -74.1 28.45 -67.6 28.45 -59.45 32.1 -48.8 34.35 -42.35 40.0 -29.9 41.65 -26.15 41.85 -20.8 L41.4 -11.4 Q41.0 -5.35 42.8 -2.1 46.3 4.05 57.55 4.05 61.55 4.05 63.7 0.55 66.95 -4.6 68.25 -5.6 L69.2 -4.55 69.5 -3.05 68.95 1.9 Q68.4 6.15 68.4 6.85 68.4 10.4 70.85 15.45 L76.25 25.9 Q84.05 42.1 84.05 62.25 84.05 81.85 73.8 97.35 63.2 113.3 48.9 113.3 45.15 113.3 42.45 112.5 L40.25 111.65 26.65 113.85 Q13.9 116.05 3.0 116.05 -17.2 116.05 -37.6 103.0 -54.4 92.3 -64.6 77.9 -71.0 68.85 -74.7 56.6 -78.1 45.4 -78.1 35.65 -78.1 29.35 -75.65 22.1 -74.6 19.0 -70.25 8.85 -62.45 -9.35 -62.45 -24.35 -62.45 -28.75 -63.5 -35.25 -64.6 -41.7 -64.6 -46.8 -64.6 -53.7 -64.2 -55.2 -63.15 -59.3 -58.0 -64.8 -56.55 -62.3 -56.5 -57.65 -56.4 -52.6 -55.3 -50.1 -54.05 -47.4 -50.0 -43.55 L-42.35 -36.4 Q-39.45 -33.5 -37.65 -28.2 L-35.2 -18.85 Q-33.85 -13.55 -32.1 -11.25 -29.7 -8.05 -25.4 -8.05 -17.35 -8.05 -13.2 -19.1 -11.1 -24.65 -10.6 -30.35 -10.6 -31.7 -11.7 -43.9 -11.7 -47.65 -11.15 -51.75 -10.2 -58.65 -8.35 -58.65 -6.45 -58.65 -5.6 -51.15 -5.25 -48.75 -4.35 -34.7 -2.8 -10.8 2.4 -10.8 9.1 -10.8 11.95 -23.85 13.6 -31.15 13.6 -38.3 L12.5 -58.7 Q12.5 -70.4 14.85 -76.0 M-21.55 -107.35 Q-22.9 -101.95 -22.9 -95.95 -22.9 -93.0 -20.6 -88.05 -18.3 -83.05 -18.3 -81.95 L-18.6 -78.65 -19.0 -78.45 Q-19.5 -78.2 -19.95 -78.1 -19.8 -78.95 -19.8 -80.6 L-19.85 -80.35 -20.75 -80.15 -24.3 -87.4 Q-28.05 -95.55 -29.5 -97.75 -32.1 -101.75 -33.65 -106.6 -35.15 -111.4 -35.15 -115.45 -35.15 -121.3 -31.5 -127.55 -27.15 -135.0 -20.5 -136.7 -20.2 -132.2 -20.2 -122.35 -20.2 -112.65 -21.55 -107.35" fill="#ffebbd" fill-rule="evenodd" stroke="none"/>
  </g>
</svg>
