<?xml version="1.0" encoding="UTF-8" standalone="no"?>
<svg xmlns:xlink="http://www.w3.org/1999/xlink" height="325.5px" width="160.15px" xmlns="http://www.w3.org/2000/svg">
  <g transform="matrix(1.0, 0.0, 0.0, 1.0, 74.6, 206.95)">
    <path d="M17.0 -205.4 Q17.0 -200.7 8.8 -193.15 1.35 -186.4 -3.35 -184.85 -5.0 -187.7 -5.0 -191.6 -5.0 -195.85 -0.25 -201.0 6.25 -208.1 16.8 -206.75 17.0 -206.65 17.0 -205.4 M64.45 -101.7 Q65.8 -100.3 65.8 -97.5 65.8 -88.6 60.15 -88.6 58.2 -88.6 57.45 -91.1 57.05 -92.35 57.05 -93.75 57.05 -101.45 61.45 -102.6 63.15 -103.0 64.45 -101.7 M30.5 -95.85 L31.1 -95.7 Q31.3 -95.65 31.3 -94.85 L29.8 -89.9 Q28.3 -84.9 28.3 -83.05 28.3 -73.25 31.05 -64.6 32.65 -59.65 37.2 -50.35 41.55 -41.35 43.3 -35.6 46.05 -26.45 46.05 -15.75 L45.55 -11.25 45.05 -6.75 Q45.05 -2.85 46.05 -0.75 48.4 4.05 55.6 4.05 62.3 4.05 65.95 0.3 L68.25 -2.6 Q69.45 -4.15 70.4 -4.6 73.3 4.8 76.7 12.9 L81.5 23.8 Q85.55 33.55 85.55 47.3 85.55 68.55 78.7 85.25 65.0 118.55 29.0 118.55 -9.25 118.55 -24.4 111.7 -27.95 110.1 -30.15 108.15 -40.75 102.65 -47.5 93.85 -55.0 81.95 -60.1 76.8 -68.65 68.2 -71.9 59.7 -74.6 52.8 -74.6 43.05 -74.6 25.3 -65.1 0.75 -59.85 -12.85 -58.55 -17.0 -55.6 -26.55 -55.6 -34.1 -55.6 -40.4 -57.35 -47.9 -59.1 -55.35 -59.1 -56.8 L-59.0 -58.35 -57.75 -58.6 Q-48.9 -53.45 -42.85 -46.1 -37.4 -39.5 -35.35 -32.6 -33.75 -22.55 -32.5 -16.95 -30.15 -6.6 -25.5 -6.6 -17.25 -6.6 -13.0 -17.15 -10.85 -22.4 -10.35 -28.0 L-11.35 -38.85 -11.15 -39.2 -10.25 -39.35 -6.15 -22.9 Q-1.8 -6.5 0.75 -6.5 6.6 -6.5 9.3 -17.55 10.65 -23.1 10.8 -28.8 10.8 -33.85 8.55 -46.9 L6.3 -59.75 Q6.3 -68.6 11.9 -78.65 18.6 -90.85 29.45 -94.4 L30.5 -95.85 M-24.5 -141.75 Q-23.55 -140.35 -23.65 -140.2 -24.0 -140.3 -24.0 -140.0 -24.0 -139.25 -21.5 -134.3 -19.0 -129.35 -19.0 -126.85 -19.0 -124.3 -21.5 -112.35 -24.0 -100.45 -24.0 -98.9 -24.0 -97.65 -23.0 -95.35 L-23.25 -94.8 Q-23.45 -94.5 -24.25 -94.5 -24.95 -94.5 -28.35 -99.15 -31.3 -103.15 -32.5 -105.25 L-34.3 -110.25 Q-35.5 -114.4 -35.5 -116.1 -35.5 -120.95 -31.85 -130.1 -27.95 -140.0 -24.5 -141.75" fill="#ffebbd" fill-rule="evenodd" stroke="none"/>
  </g>
</svg>
