<?xml version="1.0" encoding="UTF-8" standalone="no"?>
<svg xmlns:xlink="http://www.w3.org/1999/xlink" height="86.1px" width="81.1px" xmlns="http://www.w3.org/2000/svg">
  <g transform="matrix(1.0, 0.0, 0.0, 1.0, 40.9, 48.3)">
    <path d="M35.95 19.75 Q28.05 41.55 18.3 37.05 -6.7 33.05 -20.65 18.85 L-35.55 -25.7 Q-6.55 -18.0 7.15 -9.85 21.85 8.75 35.95 19.75 M3.65 8.6 Q-0.25 10.15 8.75 18.75 21.55 23.75 21.55 19.9 12.2 16.6 3.65 8.6" fill="#e69a60" fill-rule="evenodd" stroke="none"/>
    <path d="M-40.3 -47.7 Q-30.1 -34.85 -22.3 -33.9 -3.5 -28.85 10.65 -20.8 37.65 -5.45 39.6 7.85 L35.95 19.75 Q21.85 8.75 7.15 -9.85 -6.55 -18.0 -35.55 -25.7 -42.65 -44.05 -40.3 -47.7 M3.65 8.6 Q12.2 16.6 21.55 19.9 21.55 23.75 8.75 18.75 -0.25 10.15 3.65 8.6" fill="#ce8457" fill-rule="evenodd" stroke="none"/>
    <path d="M-40.3 -47.7 Q-30.1 -34.85 -22.3 -33.9 -3.5 -28.85 10.65 -20.8 37.65 -5.45 39.6 7.85 M18.3 37.05 Q-6.7 33.05 -20.65 18.85" fill="none" stroke="#24190f" stroke-linecap="round" stroke-linejoin="round" stroke-width="1.2000000000000002"/>
  </g>
</svg>
