<?xml version="1.0" encoding="UTF-8" standalone="no"?>
<svg xmlns:xlink="http://www.w3.org/1999/xlink" height="126.2px" width="102.8px" xmlns="http://www.w3.org/2000/svg">
  <g transform="matrix(1.0, 0.0, 0.0, 1.0, 55.4, 63.75)">
    <path d="M-29.95 11.4 Q-34.25 0.6 -34.8 -10.6 -11.5 -40.55 4.2 -53.4 27.55 -72.6 34.05 -53.85 39.5 -24.2 39.4 1.9 39.3 27.95 40.1 30.85 L41.3 35.95 Q42.05 42.0 46.8 49.95 L46.85 50.1 34.85 54.65 Q31.1 43.7 29.05 20.85 26.55 -3.3 20.8 -19.75 19.75 -23.55 17.5 -23.45 -17.3 5.9 -24.25 30.1 -26.05 24.95 -27.45 19.85 L-29.95 11.4" fill="#ce8457" fill-rule="evenodd" stroke="none"/>
    <path d="M-29.95 11.4 L-27.45 19.85 Q-26.05 24.95 -24.25 30.1 -17.3 5.9 17.5 -23.45 19.75 -23.55 20.8 -19.75 26.55 -3.3 29.05 20.85 31.1 43.7 34.85 54.65 -8.0 69.1 -54.8 56.75 -35.9 40.2 -29.95 11.4 M46.8 49.95 Q42.05 42.0 41.3 35.95 42.2 40.8 46.8 49.95" fill="#e69a60" fill-rule="evenodd" stroke="none"/>
    <path d="M41.3 35.95 L40.1 30.85 Q39.3 27.95 39.4 1.9 39.5 -24.2 34.05 -53.85 27.55 -72.6 4.2 -53.4 -11.5 -40.55 -34.8 -10.6 -34.25 0.6 -29.95 11.4 -35.9 40.2 -54.8 56.75 M46.8 49.95 Q42.05 42.0 41.3 35.95 Z" fill="none" stroke="#24190f" stroke-linecap="round" stroke-linejoin="round" stroke-width="1.2000000000000002"/>
    <path d="M-24.15 30.05 L-24.2 30.15 -24.3 30.1 -30.5 11.55 -30.5 11.5 -30.45 11.05 -30.1 10.8 Q-29.5 10.6 -29.35 11.2 L-24.15 30.05 M20.7 -19.7 L20.75 -19.8 20.85 -19.75 23.35 -12.95 27.0 2.1 28.05 9.05 28.15 9.5 28.95 17.55 28.95 18.1 29.1 20.8 29.05 20.9 Q28.95 21.0 28.95 20.85 L25.25 -0.5 25.2 -1.0 21.3 -17.55 21.15 -17.95 20.7 -19.7" fill="#24190f" fill-rule="evenodd" stroke="none"/>
  </g>
</svg>
