<?xml version="1.0" encoding="UTF-8" standalone="no"?>
<svg xmlns:xlink="http://www.w3.org/1999/xlink" height="144.65px" width="163.3px" xmlns="http://www.w3.org/2000/svg">
  <g transform="matrix(1.0, 0.0, 0.0, 1.0, 81.6, 72.0)">
    <path d="M29.3 -70.35 Q32.3 -60.05 40.95 -49.75 48.8 -43.15 56.35 -41.05 L60.85 -29.35 Q65.4 -24.25 69.25 -17.35 55.95 -33.5 42.5 -42.0 36.05 -48.95 25.15 -55.6 12.5 -65.0 -13.25 -50.95 -63.5 -42.4 -47.3 15.95 L-46.35 19.3 Q-44.9 23.95 -42.1 30.2 -47.6 32.85 -56.0 29.75 L-58.85 27.4 Q-61.65 17.6 -66.0 7.55 -68.65 1.45 -71.9 -4.75 -76.0 -12.65 -81.0 -20.65 -80.75 -48.7 -40.5 -58.2 -24.1 -72.15 -1.35 -71.55 17.75 -72.85 29.3 -70.35" fill="#e69a60" fill-rule="evenodd" stroke="none"/>
    <path d="M69.25 -17.35 L70.65 -14.75 Q77.65 8.1 58.2 24.8 L-18.35 33.15 Q-31.2 33.3 -42.1 30.2 -44.9 23.95 -46.35 19.3 L-47.3 15.95 Q-63.5 -42.4 -13.25 -50.95 12.5 -65.0 25.15 -55.6 36.05 -48.95 42.5 -42.0 55.95 -33.5 69.25 -17.35 M5.25 -38.7 Q5.2 -26.6 6.6 -17.3 7.45 -11.75 8.8 -7.15 L9.55 -4.75 Q11.15 2.0 10.15 -8.45 8.8 -12.55 8.0 -17.15 6.9 -23.6 6.85 -31.1 L7.1 -39.25 Q6.4 -42.7 5.25 -38.7" fill="#fae9ae" fill-rule="evenodd" stroke="none"/>
    <path d="M29.3 -70.35 L32.65 -69.5 Q36.35 -68.4 39.25 -66.65 L43.35 -63.95 Q44.6 -63.05 45.15 -60.65 45.65 -58.3 47.15 -56.3 48.65 -54.35 50.25 -53.85 51.4 -53.55 56.35 -41.05 48.8 -43.15 40.95 -49.75 32.3 -60.05 29.3 -70.35 M76.8 -1.55 L81.1 13.6 81.1 15.95 Q81.0 30.25 76.35 31.85 14.25 65.35 -56.55 72.05 L-58.5 67.45 Q-56.0 59.6 -56.65 51.05 -58.3 46.65 -61.4 45.6 -63.05 44.25 -64.15 39.8 -64.75 37.25 -66.15 35.1 -73.25 23.95 -71.9 -4.75 -68.65 1.45 -66.0 7.55 -61.65 17.6 -58.85 27.4 L-56.0 29.75 Q-47.6 32.85 -42.1 30.2 -40.25 34.25 -36.45 38.35 -32.4 42.8 -27.35 44.4 0.55 47.15 32.75 42.05 64.9 36.95 70.3 33.1 75.45 28.2 76.8 18.85 78.05 9.5 76.8 -1.55" fill="#ce8457" fill-rule="evenodd" stroke="none"/>
    <path d="M70.65 -14.75 Q76.05 -4.3 76.8 -1.55 78.05 9.5 76.8 18.85 75.45 28.2 70.3 33.1 64.9 36.95 32.75 42.05 0.55 47.15 -27.35 44.4 -32.4 42.8 -36.45 38.35 -40.25 34.25 -42.1 30.2 -31.2 33.3 -18.35 33.15 L58.2 24.8 Q77.65 8.1 70.65 -14.75 M5.25 -38.7 Q6.4 -42.7 7.1 -39.25 L6.85 -31.1 Q6.9 -23.6 8.0 -17.15 8.8 -12.55 10.15 -8.45 11.15 2.0 9.55 -4.75 L8.8 -7.15 Q7.45 -11.75 6.6 -17.3 5.2 -26.6 5.25 -38.7" fill="#d9c997" fill-rule="evenodd" stroke="none"/>
    <path d="M-58.5 67.45 Q-60.9 60.55 -61.55 51.1 -69.45 45.1 -73.3 35.85 -76.7 25.35 -78.6 15.95 L-79.75 9.4 Q-81.2 0.1 -81.0 -20.65 -76.0 -12.65 -71.9 -4.75 -73.25 23.95 -66.15 35.1 -64.75 37.25 -64.15 39.8 -63.05 44.25 -61.4 45.6 -58.3 46.65 -56.65 51.05 -56.0 59.6 -58.5 67.45" fill="#ba7853" fill-rule="evenodd" stroke="none"/>
    <path d="M60.85 -29.35 Q65.4 -24.25 69.25 -17.35 L70.65 -14.75 Q76.05 -4.3 76.8 -1.55 L81.1 13.6 81.1 15.95 Q81.0 30.25 76.35 31.85 14.25 65.35 -56.55 72.05 L-58.5 67.45 Q-60.9 60.55 -61.55 51.1 -69.45 45.1 -73.3 35.85 -76.7 25.35 -78.6 15.95 L-79.75 9.4 Q-81.2 0.1 -81.0 -20.65 M-42.1 30.2 Q-44.9 23.95 -46.35 19.3 L-47.3 15.95 Q-63.5 -42.4 -13.25 -50.95 12.5 -65.0 25.15 -55.6 36.05 -48.95 42.5 -42.0 55.95 -33.5 69.25 -17.35 M76.8 -1.55 Q78.05 9.5 76.8 18.85 75.45 28.2 70.3 33.1 64.9 36.95 32.75 42.05 0.55 47.15 -27.35 44.4 -32.4 42.8 -36.45 38.35 -40.25 34.25 -42.1 30.2" fill="none" stroke="#24190f" stroke-linecap="round" stroke-linejoin="round" stroke-width="1.2000000000000002"/>
  </g>
</svg>
