<?xml version="1.0" encoding="UTF-8" standalone="no"?>
<svg xmlns:xlink="http://www.w3.org/1999/xlink" height="210.8px" width="228.6px" xmlns="http://www.w3.org/2000/svg">
  <g transform="matrix(1.0, 0.0, 0.0, 1.0, 113.6, 109.65)">
    <path d="M4.2 -107.65 Q80.8 -62.65 82.8 -14.9 83.4 -0.55 66.6 10.55 78.05 8.1 80.2 8.85 L85.0 10.65 Q87.65 11.7 85.6 14.4 L83.2 17.2 Q61.65 22.1 50.6 35.25 64.35 30.1 67.35 33.95 75.6 38.15 80.95 46.25 91.1 52.2 99.25 55.05 L79.1 75.25 Q72.5 72.75 65.9 73.25 40.75 74.35 28.3 72.25 L23.4 71.35 Q-44.9 53.85 -66.65 -2.1 -92.95 -69.6 -82.7 -93.25 L-82.65 -93.25 Q-82.9 -94.65 -77.1 -97.65 -73.5 -99.6 -67.5 -102.15 -52.0 -108.85 -33.15 -109.5 -14.3 -110.15 2.95 -107.85 L4.2 -107.65 M-1.5 -8.35 Q-2.35 -1.75 1.45 6.35 7.7 11.2 15.2 12.25 17.3 2.45 -1.5 -8.35 M75.45 63.5 L75.5 63.45 74.3 63.8 74.05 63.85 75.45 63.5 M-46.7 -94.25 Q-57.55 -84.95 -48.9 -49.65 -25.35 -14.05 -7.65 -17.85 -15.6 -60.2 -46.7 -94.25" fill="#fae9ae" fill-rule="evenodd" stroke="none"/>
    <path d="M4.2 -107.65 Q10.3 -106.5 18.55 -102.65 33.15 -95.85 54.45 -80.4 88.95 -55.5 105.75 -13.6 108.55 -3.55 110.85 8.0 114.4 20.95 112.75 26.8 112.2 33.35 114.9 39.3 L99.25 55.05 Q91.1 52.2 80.95 46.25 75.6 38.15 67.35 33.95 64.35 30.1 50.6 35.25 61.65 22.1 83.2 17.2 L85.6 14.4 Q87.65 11.7 85.0 10.65 L80.2 8.85 Q78.05 8.1 66.6 10.55 83.4 -0.55 82.8 -14.9 80.8 -62.65 4.2 -107.65 M110.85 8.0 Q113.1 18.3 112.85 25.5 L112.75 26.8 112.85 25.5 Q113.1 18.3 110.85 8.0" fill="#d9c997" fill-rule="evenodd" stroke="none"/>
    <path d="M-1.5 -8.35 Q17.3 2.45 15.2 12.25 7.7 11.2 1.45 6.35 -2.35 -1.75 -1.5 -8.35 M-46.7 -94.25 Q-15.6 -60.2 -7.65 -17.85 -25.35 -14.05 -48.9 -49.65 -57.55 -84.95 -46.7 -94.25" fill="#faefc6" fill-rule="evenodd" stroke="none"/>
    <path d="M-82.7 -93.25 Q-92.95 -69.6 -66.65 -2.1 -44.9 53.85 23.4 71.35 L12.25 79.7 -14.0 98.1 Q-53.1 82.7 -65.55 68.8 L-68.35 65.25 Q-78.35 50.05 -82.7 19.4 L-82.4 22.25 -93.45 -43.6 -99.4 -78.85 -98.75 -80.3 Q-95.0 -83.75 -82.7 -93.25" fill="#e69a60" fill-rule="evenodd" stroke="none"/>
    <path d="M-14.0 98.1 Q-20.8 99.45 -27.1 100.05 -62.2 90.75 -65.55 68.8 -53.1 82.7 -14.0 98.1 M-112.8 -51.7 L-112.2 -65.65 Q-106.45 -73.3 -98.75 -80.3 L-99.4 -78.85 -93.45 -43.6 -112.8 -51.7" fill="#ce8457" fill-rule="evenodd" stroke="none"/>
    <path d="M-27.1 100.05 L-31.9 100.4 Q-69.55 102.35 -86.95 76.6 -98.25 61.8 -103.3 43.65 -114.45 4.05 -112.8 -51.7 L-93.45 -43.6 -82.4 22.25 -82.7 19.4 Q-78.35 50.05 -68.35 65.25 L-65.55 68.8 Q-62.2 90.75 -27.1 100.05" fill="#ba7853" fill-rule="evenodd" stroke="none"/>
    <path d="M112.75 26.8 L112.85 25.5 Q113.1 18.3 110.85 8.0 M105.75 -13.6 Q88.95 -55.5 54.45 -80.4 33.15 -95.85 18.55 -102.65 M23.4 71.35 L28.3 72.25 Q40.75 74.35 65.9 73.25 M-31.9 100.4 Q-69.55 102.35 -86.95 76.6" fill="none" stroke="#24190f" stroke-linecap="round" stroke-linejoin="miter-clip" stroke-miterlimit="8.0" stroke-width="1.2000000000000002"/>
    <path d="M75.5 63.45 L75.45 63.5" fill="none" stroke="#24190f" stroke-linecap="round" stroke-linejoin="miter-clip" stroke-miterlimit="8.0" stroke-width="0.05"/>
    <path d="M110.85 8.0 Q108.55 -3.55 105.75 -13.6 M-82.7 -93.25 Q-92.95 -69.6 -66.65 -2.1 -44.9 53.85 23.4 71.35 M-86.95 76.6 Q-98.25 61.8 -103.3 43.65 -114.45 4.05 -112.8 -51.7 L-112.2 -65.65 Q-106.45 -73.3 -98.75 -80.3 -95.0 -83.75 -82.7 -93.25" fill="none" stroke="#24190f" stroke-linecap="round" stroke-linejoin="round" stroke-width="1.2000000000000002"/>
    <path d="M-31.85 100.95 L-31.85 101.0 Q-32.5 101.0 -32.5 100.4 -32.5 99.8 -31.9 99.8 L-27.75 99.6 -27.35 99.55 -27.0 99.55 -14.0 98.0 Q-13.9 97.9 -13.9 98.05 L-13.95 98.15 -26.15 100.4 -26.9 100.45 -27.0 100.5 -27.3 100.5 -31.85 100.95 M-82.7 -92.65 L-82.75 -92.65 Q-83.0 -92.65 -83.15 -92.85 L-83.3 -93.25 Q-83.3 -93.75 -82.85 -93.8 L-82.75 -93.95 -80.65 -95.7 -78.7 -96.9 -77.1 -97.7 -77.0 -97.7 -77.0 -97.55 -77.05 -97.55 -78.85 -96.25 -79.15 -95.95 -79.85 -95.4 -81.9 -93.2 -82.3 -92.65 -82.7 -92.65 M65.85 73.8 Q65.3 73.8 65.3 73.25 65.2 72.65 65.85 72.65 L68.45 72.65 69.55 72.75 69.85 72.75 72.65 73.15 74.5 73.55 76.65 74.2 79.1 75.15 79.15 75.25 79.05 75.3 77.45 74.85 77.05 74.7 76.05 74.45 71.9 73.75 71.6 73.75 71.3 73.7 69.55 73.65 69.0 73.6 67.55 73.65 67.15 73.7 66.8 73.7 65.85 73.8 M112.15 26.7 Q112.25 26.1 112.8 26.2 L113.2 26.4 113.3 26.8 113.2 27.65 113.2 28.0 113.15 28.35 113.2 31.95 113.85 35.95 113.95 36.2 114.0 36.45 114.95 39.25 114.9 39.35 114.8 39.3 114.4 38.55 114.3 38.25 114.1 37.9 113.5 36.3 113.45 36.05 113.25 35.55 112.65 33.2 112.15 28.75 112.1 28.35 112.1 27.95 112.15 27.6 112.15 26.7 M18.8 -103.15 Q19.35 -102.85 19.1 -102.35 18.85 -101.8 18.25 -102.1 L12.9 -104.6 10.8 -105.45 6.0 -107.05 5.7 -107.1 5.4 -107.2 4.2 -107.5 3.95 -107.5 2.9 -107.75 Q2.75 -107.75 2.85 -107.85 L2.95 -107.9 4.0 -107.8 4.1 -107.75 4.25 -107.75 4.45 -107.7 5.5 -107.55 5.8 -107.45 12.5 -105.6 17.8 -103.6 18.8 -103.15" fill="#24190f" fill-rule="evenodd" stroke="none"/>
    <path d="M85.15 10.95 L85.3 10.8 86.3 12.15 Q86.9 13.1 86.55 13.65 L85.75 15.3 Q85.2 16.4 82.85 16.8 84.35 16.25 85.3 14.75 86.2 13.3 86.0 12.65 L85.15 10.95 M31.55 49.7 L31.55 49.55 33.95 50.05 35.2 50.1 Q37.95 49.9 39.9 48.1 L42.0 45.95 Q41.8 47.3 40.0 48.9 37.9 50.85 35.65 51.0 L33.45 50.65 Q32.4 50.0 31.55 49.7" fill="#663c3c" fill-rule="evenodd" stroke="none"/>
    <path d="M77.1 15.7 Q81.6 15.95 72.85 19.4 67.15 21.85 67.35 20.85 71.15 17.35 77.1 15.7 M49.05 32.4 Q47.5 35.8 39.2 46.6 36.15 46.1 39.0 43.65 L49.05 32.4 M30.35 43.35 Q27.5 51.2 26.45 47.15 28.55 32.85 38.25 22.0 44.7 18.3 42.2 20.9 34.9 31.3 30.35 43.35" fill="#faefc6" fill-rule="evenodd" stroke="none"/>
    <path d="M53.85 21.85 L52.85 22.6 49.6 25.35 Q41.0 33.75 35.9 42.8 L34.3 45.3 Q38.95 28.85 52.15 18.7 68.25 12.1 83.25 12.55 L73.5 14.8 Q61.35 17.5 53.85 21.85" fill="#faa6a6" fill-rule="evenodd" stroke="none"/>
    <path d="M49.6 25.35 L52.85 22.6 53.85 21.85 Q55.4 22.85 52.95 24.8 50.5 26.7 49.6 25.35" fill="#ee8e8e" fill-rule="evenodd" stroke="none"/>
    <path d="M52.15 18.7 Q38.95 28.85 34.3 45.3 35.5 31.8 47.0 20.25 55.65 15.5 52.15 18.7" fill="#d9c997" fill-rule="evenodd" stroke="none"/>
    <path d="M53.85 21.85 Q61.35 17.5 73.5 14.8 51.6 25.3 35.9 42.8 41.0 33.75 49.6 25.35 50.5 26.7 52.95 24.8 55.4 22.85 53.85 21.85" fill="url(#gradient0)" fill-rule="evenodd" stroke="none"/>
    <path d="M49.6 25.35 L52.85 22.6 53.85 21.85 Q61.35 17.5 73.5 14.8 L83.25 12.55 Q68.25 12.1 52.15 18.7 38.95 28.85 34.3 45.3 L35.9 42.8 Q41.0 33.75 49.6 25.35 M73.5 14.8 Q51.6 25.3 35.9 42.8" fill="none" stroke="#663c3c" stroke-linecap="round" stroke-linejoin="round" stroke-width="1.0"/>
  </g>
  <defs>
    <radialGradient cx="0" cy="0" gradientTransform="matrix(0.0046, 0.006, -0.0266, 0.0204, 53.85, 24.4)" gradientUnits="userSpaceOnUse" id="gradient0" r="819.2" spreadMethod="pad">
      <stop offset="0.1803921568627451" stop-color="#663c3c"/>
      <stop offset="0.43137254901960786" stop-color="#8e5454"/>
      <stop offset="0.6549019607843137" stop-color="#fc9696"/>
    </radialGradient>
  </defs>
</svg>
