<?xml version="1.0" encoding="UTF-8" standalone="no"?>
<svg xmlns:xlink="http://www.w3.org/1999/xlink" height="14.55px" width="20.95px" xmlns="http://www.w3.org/2000/svg">
  <g transform="matrix(1.0, 0.0, 0.0, 1.0, 6.95, 5.35)">
    <path d="M-0.85 0.3 Q2.9 2.15 3.25 3.15 L3.5 4.45 Q4.65 4.6 4.7 3.55 5.35 4.6 5.05 5.35 L5.65 5.8 Q6.25 4.55 6.15 4.05 L7.9 4.75 7.35 4.05 4.3 1.9 Q1.85 0.1 0.9 -1.8 0.4 -0.6 0.65 -0.25 L-0.7 -0.8 Q-2.0 -0.6 -0.85 0.3 M-0.05 -4.9 Q8.3 -3.1 14.0 2.1 13.55 9.35 5.65 9.2 -0.45 9.05 -6.75 -0.55 -8.05 -6.75 -0.05 -4.9" fill="#d9c997" fill-rule="evenodd" stroke="none"/>
    <path d="M-0.85 0.3 Q-2.0 -0.6 -0.7 -0.8 L0.65 -0.25 Q0.4 -0.6 0.9 -1.8 1.85 0.1 4.3 1.9 L7.35 4.05 7.9 4.75 6.15 4.05 Q6.25 4.55 5.65 5.8 L5.05 5.35 Q5.35 4.6 4.7 3.55 4.65 4.6 3.5 4.45 L3.25 3.15 Q2.9 2.15 -0.85 0.3" fill="#3f274c" fill-rule="evenodd" stroke="none"/>
  </g>
</svg>
