<?xml version="1.0" encoding="UTF-8" standalone="no"?>
<svg xmlns:xlink="http://www.w3.org/1999/xlink" height="164.45px" width="75.1px" xmlns="http://www.w3.org/2000/svg">
  <g transform="matrix(1.0, 0.0, 0.0, 1.0, 34.25, 82.0)">
    <path d="M-12.2 52.1 Q-18.6 21.5 -31.5 -18.0 -38.3 -41.25 -23.9 -65.8 -6.35 -87.6 13.15 -78.95 32.6 -70.3 34.3 -66.35 35.95 -62.45 33.85 -43.65 32.7 -33.5 33.8 -22.55 18.3 85.75 -12.2 52.1" fill="#e69a60" fill-rule="evenodd" stroke="none"/>
    <path d="M33.8 -22.55 Q34.7 -13.25 37.2 -3.4 39.45 5.6 40.05 14.8 40.85 27.5 38.45 40.5 34.25 62.9 9.45 81.85 -2.55 68.7 -12.2 52.1 18.3 85.75 33.8 -22.55" fill="#ce8457" fill-rule="evenodd" stroke="none"/>
    <path d="M-12.2 52.1 Q-18.6 21.5 -31.5 -18.0 -38.3 -41.25 -23.9 -65.8 -6.35 -87.6 13.15 -78.95 32.6 -70.3 34.3 -66.35 M40.05 14.8 Q40.85 27.5 38.45 40.5 34.25 62.9 9.45 81.85 -2.55 68.7 -12.2 52.1 Z" fill="none" stroke="#24190f" stroke-linecap="round" stroke-linejoin="round" stroke-width="1.2000000000000002"/>
    <path d="M37.1 -3.35 L37.15 -3.45 37.25 -3.4 38.35 0.7 40.4 12.45 40.6 14.75 40.65 14.75 Q40.65 15.4 40.05 15.4 39.45 15.4 39.45 14.8 L39.35 13.6 39.3 11.95 39.05 9.0 38.0 1.15 37.9 0.8 37.1 -3.35" fill="#24190f" fill-rule="evenodd" stroke="none"/>
  </g>
</svg>
