<?xml version="1.0" encoding="UTF-8" standalone="no"?>
<svg xmlns:xlink="http://www.w3.org/1999/xlink" height="180.0px" width="128.8px" xmlns="http://www.w3.org/2000/svg">
  <g transform="matrix(1.0, 0.0, 0.0, 1.0, 64.45, 90.0)">
    <path d="M9.4 -88.7 Q10.95 -90.5 14.7 -87.55 29.3 -75.05 34.45 -53.55 35.8 -47.65 34.65 -43.55 33.4 -39.3 29.25 -37.2 31.6 -56.0 9.4 -88.7 M-63.8 -24.4 Q-63.35 -26.75 -59.25 -27.75 -44.55 -33.1 -30.75 -21.7 -28.15 -15.05 -28.1 -9.0 L-28.1 -8.2 Q-44.95 -25.95 -63.8 -24.4 M-39.0 -70.3 Q-36.95 -72.1 -30.9 -70.45 -13.05 -66.4 -1.7 -46.65 -0.65 -40.3 -2.2 -35.75 -3.7 -33.8 -4.8 -31.3 -9.85 -60.8 -39.0 -70.3" fill="#bbc9db" fill-rule="evenodd" stroke="none"/>
    <path d="M8.0 -50.55 Q4.9 -70.85 8.25 -85.35 8.5 -87.75 9.4 -88.7 31.6 -56.0 29.25 -37.2 27.35 -36.2 24.8 -35.7 19.8 -35.7 15.85 -38.8 L15.75 -38.85 Q11.15 -42.55 8.0 -50.55 M-37.0 7.6 Q-50.95 -4.75 -62.0 -19.55 -64.15 -22.45 -63.8 -24.4 -44.95 -25.95 -28.1 -8.2 -28.15 -5.5 -28.75 -2.9 -30.95 7.25 -37.0 7.6 M-22.95 -31.6 Q-24.8 -33.6 -25.45 -36.3 -31.15 -51.25 -39.3 -63.8 -40.95 -68.6 -39.0 -70.3 -9.85 -60.8 -4.8 -31.3 -9.6 -27.2 -15.0 -27.75 -16.8 -27.95 -18.7 -28.7 -21.3 -29.85 -22.95 -31.6" fill="#f0f3f6" fill-rule="evenodd" stroke="none"/>
    <path d="M44.9 -33.0 Q51.2 -23.45 55.25 -7.7 62.3 21.65 51.0 25.85 L50.45 18.05 Q46.9 -12.75 20.2 -26.35 9.4 -31.9 -2.15 -26.2 -13.2 -21.1 -15.1 -14.05 -12.95 10.35 -4.45 28.5 12.65 66.0 23.15 71.55 L28.1 73.05 Q19.5 78.6 8.0 74.5 0.55 66.75 -5.6 49.9 -12.85 30.2 -30.85 18.05 -39.6 12.1 -37.0 7.6 -30.95 7.25 -28.75 -2.9 -28.15 -5.5 -28.1 -8.2 L-28.1 -9.0 Q-25.7 -24.85 -15.0 -27.75 -9.6 -27.2 -4.8 -31.3 -3.7 -33.8 -2.2 -35.75 0.35 -39.15 4.0 -40.85 11.05 -42.4 15.75 -38.85 L15.85 -38.8 Q19.8 -35.7 24.8 -35.7 27.35 -36.2 29.25 -37.2 37.85 -38.85 44.9 -33.0 M-4.8 -31.3 Q-3.1 -33.25 -2.2 -35.75 -3.1 -33.25 -4.8 -31.3" fill="#e69a60" fill-rule="evenodd" stroke="none"/>
    <path d="M34.65 -43.55 Q40.15 -40.0 44.55 -33.5 L44.9 -33.0 Q37.85 -38.85 29.25 -37.2 33.4 -39.3 34.65 -43.55 M55.25 -7.7 L62.8 20.25 Q63.9 33.6 63.75 44.4 63.2 80.65 48.15 87.5 35.25 93.4 16.1 80.8 L10.55 76.85 8.0 74.5 Q19.5 78.6 28.1 73.05 44.55 76.9 48.35 62.05 51.85 45.85 51.0 25.9 L51.0 25.85 Q62.3 21.65 55.25 -7.7 M-30.75 -21.7 Q-25.15 -23.55 -22.95 -31.6 -21.3 -29.85 -18.7 -28.7 -16.8 -27.95 -15.0 -27.75 -25.7 -24.85 -28.1 -9.0 -28.15 -15.05 -30.75 -21.7 M-1.7 -46.65 Q4.15 -45.2 8.0 -50.55 11.15 -42.55 15.75 -38.85 11.05 -42.4 4.0 -40.85 0.35 -39.15 -2.2 -35.75 -0.65 -40.3 -1.7 -46.65" fill="#ce8457" fill-rule="evenodd" stroke="none"/>
    <path d="M51.0 25.85 L51.0 25.9 Q41.7 69.25 28.1 73.05 L23.15 71.55 Q12.65 66.0 -4.45 28.5 -12.95 10.35 -15.1 -14.05 -13.2 -21.1 -2.15 -26.2 9.4 -31.9 20.2 -26.35 46.9 -12.75 50.45 18.05 L51.0 25.85 M3.65 23.15 Q17.85 35.7 31.75 32.3 39.95 29.0 37.75 19.35 29.5 32.65 3.65 23.15" fill="#fae9ae" fill-rule="evenodd" stroke="none"/>
    <path d="M28.1 73.05 Q41.7 69.25 51.0 25.9 51.85 45.85 48.35 62.05 44.55 76.9 28.1 73.05 M3.65 23.15 Q29.5 32.65 37.75 19.35 39.95 29.0 31.75 32.3 17.85 35.7 3.65 23.15" fill="#d9c997" fill-rule="evenodd" stroke="none"/>
    <path d="M8.0 -50.55 Q4.9 -70.85 8.25 -85.35 8.5 -87.75 9.4 -88.7 10.95 -90.5 14.7 -87.55 29.3 -75.05 34.45 -53.55 35.8 -47.65 34.65 -43.55 40.15 -40.0 44.55 -33.5 M63.75 44.4 Q63.2 80.65 48.15 87.5 35.25 93.4 16.1 80.8 L10.55 76.85 8.0 74.5 Q0.55 66.75 -5.6 49.9 -12.85 30.2 -30.85 18.05 -39.6 12.1 -37.0 7.6 -50.95 -4.75 -62.0 -19.55 -64.15 -22.45 -63.8 -24.4 -63.35 -26.75 -59.25 -27.75 -44.55 -33.1 -30.75 -21.7 -25.15 -23.55 -22.95 -31.6 -24.8 -33.6 -25.45 -36.3 -31.15 -51.25 -39.3 -63.8 -40.95 -68.6 -39.0 -70.3 -36.95 -72.1 -30.9 -70.45 -13.05 -66.4 -1.7 -46.65 4.15 -45.2 8.0 -50.55 11.15 -42.55 15.75 -38.85 L15.85 -38.8 Q19.8 -35.7 24.8 -35.7 27.35 -36.2 29.25 -37.2 33.4 -39.3 34.65 -43.55 M51.0 25.9 L51.0 25.85 50.45 18.05 Q46.9 -12.75 20.2 -26.35 9.4 -31.9 -2.15 -26.2 -13.2 -21.1 -15.1 -14.05 -12.95 10.35 -4.45 28.5 12.65 66.0 23.15 71.55 L28.1 73.05 Q44.55 76.9 48.35 62.05 51.85 45.85 51.0 25.9 M-2.2 -35.75 Q-0.65 -40.3 -1.7 -46.65 M-2.2 -35.75 Q-3.1 -33.25 -4.8 -31.3 -9.6 -27.2 -15.0 -27.75 -16.8 -27.95 -18.7 -28.7 -21.3 -29.85 -22.95 -31.6 M-28.1 -9.0 L-28.1 -8.2 Q-28.15 -5.5 -28.75 -2.9 -30.95 7.25 -37.0 7.6 M-30.75 -21.7 Q-28.15 -15.05 -28.1 -9.0" fill="none" stroke="#24190f" stroke-linecap="round" stroke-linejoin="round" stroke-width="1.2000000000000002"/>
    <path d="M64.3 44.4 Q64.3 45.0 63.7 45.0 63.45 45.0 63.3 44.8 L63.15 44.35 62.7 20.25 62.75 20.15 62.85 20.2 64.3 44.4" fill="#24190f" fill-rule="evenodd" stroke="none"/>
  </g>
</svg>
