<?xml version="1.0" encoding="UTF-8" standalone="no"?>
<svg xmlns:xlink="http://www.w3.org/1999/xlink" height="20.45px" width="22.0px" xmlns="http://www.w3.org/2000/svg">
  <g transform="matrix(1.0, 0.0, 0.0, 1.0, 11.0, 10.2)">
    <path d="M8.55 -9.6 L-0.75 -7.6 -9.45 -4.65 -10.4 -6.5 Q-1.45 -10.55 8.55 -9.6" fill="url(#gradient0)" fill-rule="evenodd" stroke="none"/>
    <path d="M8.6 -9.6 L8.05 -6.45 Q7.6 -2.95 8.15 -0.85 L8.35 4.1 Q8.7 12.0 -5.35 1.75 L-7.15 0.3 Q-8.25 -1.2 -9.45 -4.65 L-0.75 -7.6 8.55 -9.6 8.6 -9.6" fill="url(#gradient1)" fill-rule="evenodd" stroke="none"/>
    <path d="M-7.15 0.3 L-5.35 1.75 Q8.7 12.0 8.35 4.1 L8.15 -0.85 8.55 0.4 Q10.35 4.1 10.4 7.45 10.4 10.8 4.35 9.1 -1.1 7.5 -5.85 2.0 L-6.95 0.6 -7.15 0.3" fill="#f5b1a3" fill-rule="evenodd" stroke="none"/>
    <path d="M-9.45 -4.65 Q-8.25 -1.2 -7.15 0.3 L-6.95 0.6 M-10.4 -6.5 L-9.45 -4.65" fill="none" stroke="#24190f" stroke-linecap="round" stroke-linejoin="miter-clip" stroke-miterlimit="8.0" stroke-width="1.2000000000000002"/>
    <path d="M8.15 -0.85 Q7.6 -2.95 8.05 -6.45 L8.6 -9.6 M8.15 -0.85 L8.55 0.4 Q10.35 4.1 10.4 7.45 10.4 10.8 4.35 9.1 -1.1 7.5 -5.85 2.0 L-6.95 0.6" fill="none" stroke="#24190f" stroke-linecap="round" stroke-linejoin="round" stroke-width="1.2000000000000002"/>
  </g>
  <defs>
    <linearGradient gradientTransform="matrix(0.0115, -0.0428, 0.0428, 0.0115, 11.45, -23.8)" gradientUnits="userSpaceOnUse" id="gradient0" spreadMethod="pad" x1="-819.2" x2="819.2">
      <stop offset="0.30980392156862746" stop-color="#f4726d"/>
      <stop offset="0.7529411764705882" stop-color="#bf5955"/>
    </linearGradient>
    <linearGradient gradientTransform="matrix(-0.0138, -0.0412, 0.049, 0.0039, 3.45, -24.95)" gradientUnits="userSpaceOnUse" id="gradient1" spreadMethod="pad" x1="-819.2" x2="819.2">
      <stop offset="0.30980392156862746" stop-color="#f4726d"/>
      <stop offset="0.7529411764705882" stop-color="#bf5955"/>
    </linearGradient>
  </defs>
</svg>
