<?xml version="1.0" encoding="UTF-8" standalone="no"?>
<svg xmlns:xlink="http://www.w3.org/1999/xlink" height="45.0px" width="57.95px" xmlns="http://www.w3.org/2000/svg">
  <g transform="matrix(1.0, 0.0, 0.0, 1.0, 15.85, 29.65)">
    <path d="M-5.9 13.65 Q-4.1 12.55 -2.75 11.25 L18.5 -12.25 Q26.65 -19.05 34.3 -22.8 36.95 -24.1 39.6 -25.0 L34.8 -19.8 Q26.55 -11.25 16.9 -4.0 L-1.05 14.75 -5.9 13.65" fill="#ce8457" fill-rule="evenodd" stroke="none"/>
    <path d="M-7.7 6.85 Q-0.3 -1.5 5.65 -11.0 L17.15 -29.05 Q19.4 -29.2 22.0 -28.15 L41.6 -27.3 41.15 -26.8 40.55 -26.1 40.05 -25.55 39.6 -25.0 Q36.95 -24.1 34.3 -22.8 26.65 -19.05 18.5 -12.25 L-2.75 11.25 Q-4.1 12.55 -5.9 13.65 L-12.4 11.9 -12.6 11.85 -7.7 6.85 -12.4 11.9 -7.7 6.85" fill="#e69a60" fill-rule="evenodd" stroke="none"/>
    <path d="M-12.4 11.9 L-12.5 12.0 Q-14.55 9.85 -14.95 6.15 -16.0 2.8 -13.1 4.15 -10.1 4.5 -7.7 6.85 L-12.6 11.85 -12.4 11.9" fill="#f0f3f6" fill-rule="evenodd" stroke="none"/>
    <path d="M17.15 -29.05 L5.65 -11.0 Q-0.3 -1.5 -7.7 6.85 L-12.4 11.9 -12.5 12.0 Q-14.55 9.85 -14.95 6.15 -16.0 2.8 -13.1 4.15 -10.1 4.5 -7.7 6.85 M-1.05 14.75 L16.9 -4.0 Q26.55 -11.25 34.8 -19.8 L39.6 -25.0" fill="none" stroke="#24190f" stroke-linecap="round" stroke-linejoin="round" stroke-width="1.2000000000000002"/>
    <path d="M40.5 -25.15 L40.35 -25.0 39.5 -25.05 Q39.1 -25.55 39.55 -25.9 L39.7 -26.05 40.2 -26.4 40.15 -26.4 40.9 -27.0 41.25 -27.35 41.35 -27.4 41.35 -27.45 41.4 -27.45 41.95 -27.9 42.05 -27.9 42.1 -27.75 41.7 -27.15 41.7 -27.1 41.65 -27.1 41.4 -26.6 41.35 -26.55 40.9 -25.75 40.85 -25.75 40.65 -25.45 40.6 -25.3 40.5 -25.15" fill="#24190f" fill-rule="evenodd" stroke="none"/>
  </g>
</svg>
