<?xml version="1.0" encoding="UTF-8" standalone="no"?>
<svg xmlns:xlink="http://www.w3.org/1999/xlink" height="88.6px" width="80.5px" xmlns="http://www.w3.org/2000/svg">
  <g transform="matrix(1.0, 0.0, 0.0, 1.0, 40.9, 48.3)">
    <path d="M15.4 30.85 L-6.25 39.7 Q-6.7 33.05 -20.65 18.85 L-35.55 -25.7 Q-6.55 -18.0 7.15 -9.85 21.8 8.7 15.75 18.75 13.8 22.65 15.4 30.85" fill="#e69a60" fill-rule="evenodd" stroke="none"/>
    <path d="M-40.3 -47.7 Q-30.1 -34.85 -22.3 -33.9 -3.5 -28.85 14.45 -8.3 29.2 8.55 26.8 6.45 33.45 16.15 26.65 26.2 L15.4 30.85 Q13.8 22.65 15.75 18.75 21.8 8.7 7.15 -9.85 -6.55 -18.0 -35.55 -25.7 -42.65 -44.05 -40.3 -47.7 M39.6 7.95 L39.6 8.0 39.55 8.0 39.6 7.95" fill="#ce8457" fill-rule="evenodd" stroke="none"/>
    <path d="M-40.3 -47.7 Q-30.1 -34.85 -22.3 -33.9 -3.5 -28.85 14.45 -8.3 29.2 8.55 26.8 6.45 33.45 16.15 26.65 26.2 M-6.25 39.7 Q-6.7 33.05 -20.65 18.85" fill="none" stroke="#24190f" stroke-linecap="round" stroke-linejoin="round" stroke-width="1.2000000000000002"/>
  </g>
</svg>
