<?xml version="1.0" encoding="UTF-8" standalone="no"?>
<svg xmlns:xlink="http://www.w3.org/1999/xlink" height="79.05px" width="55.65px" xmlns="http://www.w3.org/2000/svg">
  <g transform="matrix(1.0, 0.0, 0.0, 1.0, 27.85, 40.55)">
    <path d="M14.75 -37.8 Q16.8 -24.45 11.05 -11.1 3.3 6.05 -0.55 18.5 -4.4 30.95 -4.85 38.5 L-27.25 34.8 Q-24.65 13.25 -23.75 1.3 -19.35 -17.8 -6.75 -39.95 L14.75 -37.8 M-16.75 27.4 Q-18.25 34.5 -16.6 33.4 -15.0 32.35 -14.1 29.7 -13.2 27.05 -16.75 27.4" fill="#e69a60" fill-rule="evenodd" stroke="none"/>
    <path d="M14.75 -37.8 L27.2 -36.55 Q23.05 -14.8 14.1 2.1 10.25 21.35 -0.65 37.7 L-4.85 38.5 Q-4.4 30.95 -0.55 18.5 3.3 6.05 11.05 -11.1 16.8 -24.45 14.75 -37.8 M-16.75 27.4 Q-13.2 27.05 -14.1 29.7 -15.0 32.35 -16.6 33.4 -18.25 34.5 -16.75 27.4" fill="#ce8457" fill-rule="evenodd" stroke="none"/>
    <path d="M-0.65 37.7 Q10.25 21.35 14.1 2.1 23.05 -14.8 27.2 -36.55 M-6.75 -39.95 Q-19.35 -17.8 -23.75 1.3 -24.65 13.25 -27.25 34.8" fill="none" stroke="#24190f" stroke-linecap="round" stroke-linejoin="round" stroke-width="1.2000000000000002"/>
  </g>
</svg>
