<?xml version="1.0" encoding="UTF-8" standalone="no"?>
<svg xmlns:xlink="http://www.w3.org/1999/xlink" height="40.8px" width="98.7px" xmlns="http://www.w3.org/2000/svg">
  <g transform="matrix(1.0, 0.0, 0.0, 1.0, 48.7, 24.65)">
    <path d="M-34.45 14.35 Q-40.2 12.95 -43.4 10.05 -49.0 4.95 -47.9 -8.2 L-45.05 -4.4 -44.85 -4.7 -45.5 0.3 -44.85 -4.7 Q-44.0 -5.95 -45.5 0.3 -45.65 4.6 -40.3 6.95 L-36.8 8.1 Q-39.4 8.6 -34.45 14.35" fill="#e69a60" fill-rule="evenodd" stroke="none"/>
    <path d="M33.6 -18.1 Q34.2 -18.3 35.3 -20.05 36.4 -21.8 38.1 -22.15 39.8 -22.55 40.65 -24.65 L49.4 -14.2 Q46.2 -11.5 39.1 -9.75 19.15 -0.95 5.6 6.8 -11.3 15.95 -24.55 15.55 -30.2 15.35 -34.45 14.35 -39.4 8.6 -36.8 8.1 L-34.35 8.65 Q-22.6 10.75 -12.6 6.55 -2.6 2.35 6.55 -2.9 15.65 -8.15 18.55 -10.85 25.85 -15.65 33.6 -18.1" fill="#ce8457" fill-rule="evenodd" stroke="none"/>
    <path d="M-45.05 -4.4 L-44.85 -4.75 -44.85 -4.7 -44.85 -4.75 Q-30.35 -34.1 33.6 -18.1 25.85 -15.65 18.55 -10.85 15.65 -8.15 6.55 -2.9 -2.6 2.35 -12.6 6.55 -22.6 10.75 -34.35 8.65 L-36.8 8.1 -40.3 6.95 Q-45.65 4.6 -45.5 0.3 -44.0 -5.95 -44.85 -4.7 L-45.05 -4.4" fill="url(#gradient0)" fill-rule="evenodd" stroke="none"/>
    <path d="M49.4 -14.2 Q46.2 -11.5 39.1 -9.75 19.15 -0.95 5.6 6.8 -11.3 15.95 -24.55 15.55 -30.2 15.35 -34.45 14.35 -40.2 12.95 -43.4 10.05 -49.0 4.95 -47.9 -8.2 M-44.85 -4.75 L-44.75 -7.8 M33.6 -18.1 Q25.85 -15.65 18.55 -10.85 15.65 -8.15 6.55 -2.9 -2.6 2.35 -12.6 6.55 -22.6 10.75 -34.35 8.65 L-36.8 8.1 -40.3 6.95 Q-45.65 4.6 -45.5 0.3 L-44.85 -4.7 -44.85 -4.75" fill="none" stroke="#24190f" stroke-linecap="round" stroke-linejoin="round" stroke-width="1.2000000000000002"/>
  </g>
  <defs>
    <linearGradient gradientTransform="matrix(0.0296, -0.0377, 0.0159, 0.0124, -4.0, -8.35)" gradientUnits="userSpaceOnUse" id="gradient0" spreadMethod="pad" x1="-819.2" x2="819.2">
      <stop offset="0.16470588235294117" stop-color="#9f4946"/>
      <stop offset="0.7019607843137254" stop-color="#48211f"/>
    </linearGradient>
  </defs>
</svg>
