<?xml version="1.0" encoding="UTF-8" standalone="no"?>
<svg xmlns:xlink="http://www.w3.org/1999/xlink" height="245.35px" width="63.1px" xmlns="http://www.w3.org/2000/svg">
  <g transform="matrix(1.0, 0.0, 0.0, 1.0, 11.05, 361.9)">
    <path d="M49.85 -361.9 Q52.2 -359.45 52.05 -355.25 L52.05 -355.0 Q52.1 -354.75 51.95 -354.75 51.75 -354.15 51.0 -353.9 47.8 -356.0 48.55 -360.5 48.75 -361.7 49.85 -361.9 M45.4 -342.25 Q47.8 -338.45 43.8 -333.1 42.75 -331.65 41.1 -332.25 39.6 -336.2 42.65 -340.05 43.85 -341.6 45.4 -342.25 M15.7 -242.85 Q16.9 -238.25 17.1 -231.4 17.2 -229.85 16.8 -228.2 10.5 -230.25 12.95 -240.15 13.45 -242.25 15.7 -242.85 M-1.35 -287.45 Q0.15 -280.6 -6.95 -272.85 -8.45 -271.2 -10.95 -271.4 -11.9 -278.9 -4.85 -284.55 L-1.35 -287.45 M-0.3 -130.25 Q2.35 -126.55 1.1 -119.2 0.8 -117.35 -0.9 -116.55 -3.8 -120.95 -2.4 -127.55 -2.0 -129.55 -0.3 -130.25" fill="#ffffff" fill-opacity="0.69803923" fill-rule="evenodd" stroke="none"/>
  </g>
</svg>
