<?xml version="1.0" encoding="UTF-8" standalone="no"?>
<svg xmlns:xlink="http://www.w3.org/1999/xlink" height="36.1px" width="78.3px" xmlns="http://www.w3.org/2000/svg">
  <g transform="matrix(1.0, 0.0, 0.0, 1.0, 62.2, 9.7)">
    <path d="M-61.45 -9.7 Q-57.15 -7.45 -54.15 -4.65 -48.05 1.05 -47.8 8.95 -47.55 18.25 -54.15 15.55 -63.05 7.15 -62.1 -6.8 L-62.0 -8.15 Q-62.15 -9.6 -61.45 -9.7" fill="url(#gradient0)" fill-rule="evenodd" stroke="none"/>
    <path d="M13.6 8.7 Q17.3 8.25 15.55 14.0 14.7 16.65 12.75 20.6 9.65 26.2 -10.5 26.25 -20.35 26.9 -17.6 24.7 -7.4 14.55 3.55 10.8 8.5 9.1 13.6 8.7" fill="url(#gradient1)" fill-rule="evenodd" stroke="none"/>
  </g>
  <defs>
    <radialGradient cx="0" cy="0" gradientTransform="matrix(0.0137, -0.0034, 0.0043, 0.0176, -57.45, 6.35)" gradientUnits="userSpaceOnUse" id="gradient0" r="819.2" spreadMethod="pad">
      <stop offset="0.3843137254901961" stop-color="#f0f3f6"/>
      <stop offset="1.0" stop-color="#a9aaad"/>
    </radialGradient>
    <radialGradient cx="0" cy="0" gradientTransform="matrix(0.0044, 0.0165, -0.0306, 0.0098, 0.7, 22.9)" gradientUnits="userSpaceOnUse" id="gradient1" r="819.2" spreadMethod="pad">
      <stop offset="0.4" stop-color="#f0f3f6"/>
      <stop offset="0.6470588235294118" stop-color="#a9aaad"/>
    </radialGradient>
  </defs>
</svg>
