<?xml version="1.0" encoding="UTF-8" standalone="no"?>
<svg xmlns:xlink="http://www.w3.org/1999/xlink" height="177.75px" width="160.35px" xmlns="http://www.w3.org/2000/svg">
  <g transform="matrix(1.0, 0.0, 0.0, 1.0, 80.2, 97.8)">
    <path d="M17.8 -37.1 Q33.95 -37.1 70.1 -57.4 76.75 -58.4 78.75 -56.4 56.25 -37.75 34.25 -13.1 27.8 -9.1 12.65 -14.6 5.45 -16.4 -1.1 -14.4 -9.65 -9.4 -14.7 3.8 L-14.8 3.8 -14.95 3.95 -15.05 4.15 -15.15 4.25 -17.6 8.25 -17.85 8.75 -18.7 11.1 -19.1 13.4 -19.15 14.55 -19.2 14.7 -19.15 14.9 -18.95 18.65 -18.9 18.85 -18.9 19.25 -18.85 19.3 -18.85 19.45 -18.9 19.55 Q-18.25 22.75 -16.6 24.45 L-16.45 24.8 Q-15.7 26.1 -12.05 26.1 -7.15 29.3 -1.05 30.5 3.6 31.05 6.65 30.6 11.55 30.45 15.65 32.9 20.65 37.5 17.75 42.75 11.75 51.0 8.35 51.9 L2.75 53.0 Q-12.5 56.25 -16.0 59.5 -27.5 69.5 -40.3 71.55 -44.75 73.25 -49.1 73.9 -61.6 75.7 -73.85 68.75 L-75.1 66.95 -76.95 64.4 -78.1 62.5 Q-78.8 49.95 -72.75 37.4 -63.5 31.05 -67.0 24.25 -68.1 17.8 -58.8 15.7 -54.2 16.9 -56.25 15.9 -61.65 10.35 -63.65 4.45 -63.5 -0.65 -61.65 -4.85 L-61.75 -4.25 Q-61.95 7.45 -54.2 14.7 L-53.6 14.95 Q-48.05 16.75 -48.3 8.55 -48.55 0.5 -55.15 -4.95 L-55.95 -5.55 Q-56.75 -13.9 -50.3 -21.85 -37.2 -30.8 -21.9 -34.65 L-43.15 -31.0 -45.9 -31.0 Q-44.55 -56.95 -38.1 -73.85 -36.05 -84.05 -27.9 -96.25 -26.25 -97.25 -24.95 -97.15 -28.6 -79.25 -28.25 -64.8 -26.4 -52.0 -19.45 -43.95 -9.05 -34.45 3.15 -34.75 11.0 -35.15 17.8 -37.1 M-38.95 -2.75 L-38.45 -3.7 Q-31.55 -16.35 -22.35 -26.65 -33.0 -16.7 -42.25 -2.0 L-42.4 -1.5 Q-45.8 7.55 -44.25 7.1 L-44.5 7.55 -44.65 7.75 -45.3 8.9 -45.35 9.05 -45.4 9.15 -45.5 9.3 -45.55 9.45 -45.5 9.6 -45.4 9.6 -45.3 9.45 -45.15 9.35 -43.2 7.15 -42.85 6.65 -42.75 6.55 -42.7 6.4 -41.95 5.35 -41.65 4.8 -41.45 4.55 -40.1 1.9 -39.9 1.3 -39.75 1.0 -38.95 -1.8 -38.95 -1.95 -38.9 -2.1 -38.9 -2.25 -38.85 -2.35 -38.85 -2.7 -38.9 -2.8 -38.95 -2.75 M-41.3 1.75 L-41.0 1.15 -39.95 -0.85 -40.1 -0.55 -41.0 1.15 -41.1 1.4 -41.3 1.75 M-39.55 -1.7 L-39.35 -2.05 -39.4 -1.9 -39.55 -1.7 M-69.25 51.35 L-69.3 51.45 Q-68.8 51.25 -68.25 50.35 -67.45 49.05 -67.45 47.25 -67.45 44.5 -68.15 43.2 -69.1 41.45 -71.65 41.55 -72.2 47.5 -69.25 51.35 M-63.85 47.3 Q-62.45 47.25 -61.65 45.8 -61.4 43.9 -63.35 42.8 -62.9 45.25 -63.85 47.3 M-35.35 21.35 Q-41.3 33.55 -51.15 42.0 -52.05 43.7 -43.4 35.5 -29.4 19.6 -35.35 21.35 M-39.8 54.25 L-39.7 54.15 -41.55 53.65 -43.85 53.25 -45.35 53.3 Q-47.2 53.85 -49.45 56.3 -49.95 56.85 -50.45 57.95 -51.1 59.35 -51.0 60.35 L-50.85 60.3 Q-43.9 60.25 -39.8 54.25 M-64.35 58.05 Q-65.15 62.35 -63.8 57.5 -62.5 52.65 -56.2 50.05 -56.1 48.35 -57.5 49.4 -63.6 53.7 -64.35 58.05" fill="#e69a60" fill-rule="evenodd" stroke="none"/>
    <path d="M17.8 -37.1 Q11.0 -35.15 3.15 -34.75 -9.05 -34.45 -19.45 -43.95 -26.4 -52.0 -28.25 -64.8 -28.6 -79.25 -24.95 -97.15 -21.75 -97.05 -20.95 -90.6 -23.1 -56.9 -10.75 -46.6 1.4 -45.15 10.55 -38.65 13.45 -37.15 17.8 -37.1 M-73.85 68.75 Q-61.6 75.7 -49.1 73.9 -44.75 73.25 -40.3 71.55 -27.5 69.5 -16.0 59.5 -12.5 56.25 2.75 53.0 L8.35 51.9 Q11.75 51.0 17.75 42.75 20.65 37.5 15.65 32.9 11.55 30.45 6.65 30.6 3.6 31.05 -1.05 30.5 -7.15 29.3 -12.05 26.1 L-10.25 26.0 -3.95 25.85 Q-6.7 26.05 1.1 27.65 11.55 29.5 13.45 24.15 16.05 16.5 15.75 14.05 15.65 13.35 15.35 13.1 L15.6 11.65 15.6 11.3 Q15.65 8.7 13.15 9.0 L12.3 9.1 Q6.45 6.0 -1.1 9.55 -2.3 10.05 -3.5 10.8 -6.45 11.7 -6.35 9.45 L-5.8 8.3 Q-3.95 4.6 -0.4 0.25 -2.45 0.7 -5.0 2.9 L-8.2 7.65 Q-12.2 13.9 -15.15 21.05 L-15.2 21.05 Q-17.0 23.2 -16.6 24.45 -18.25 22.75 -18.9 19.55 L-18.85 19.45 -18.75 19.45 -18.7 19.4 -18.65 19.4 -18.65 19.2 -18.55 18.85 -18.55 18.7 -18.0 13.55 -17.9 13.2 -17.85 12.85 -16.75 9.0 -16.45 8.4 -16.45 8.3 -16.4 8.2 -16.35 8.05 -14.9 4.6 -14.8 4.45 -14.8 4.3 -14.7 4.1 -14.65 3.95 -14.65 3.9 Q-14.55 3.8 -14.7 3.8 -9.65 -9.4 -1.1 -14.4 5.45 -16.4 12.65 -14.6 27.8 -9.1 34.25 -13.1 56.25 -37.75 78.75 -56.4 80.95 -54.2 77.3 -48.25 55.65 -27.25 45.4 -5.15 45.8 28.1 33.0 47.3 30.55 50.95 27.65 54.1 L22.0 60.65 14.1 50.75 14.1 50.8 Q12.65 53.9 11.0 54.8 L8.1 56.15 7.6 56.3 6.3 56.7 5.3 56.95 Q-4.35 58.1 -7.45 60.3 -18.8 68.25 -30.4 72.45 L-37.8 73.85 Q-39.9 75.0 -42.05 75.8 -48.95 78.35 -56.5 77.25 -66.45 75.75 -69.4 73.5 -72.35 71.25 -72.95 70.15 L-73.85 68.75 M-35.35 21.35 Q-29.4 19.6 -43.4 35.5 -52.05 43.7 -51.15 42.0 -41.3 33.55 -35.35 21.35 M-64.35 58.05 Q-63.6 53.7 -57.5 49.4 -56.1 48.35 -56.2 50.05 -62.5 52.65 -63.8 57.5 -65.15 62.35 -64.35 58.05" fill="#ce8457" fill-rule="evenodd" stroke="none"/>
    <path d="M12.3 9.1 Q7.7 9.5 3.4 10.75 -6.65 13.65 -15.15 21.05 -12.2 13.9 -8.2 7.65 L-5.0 2.9 Q-2.45 0.7 -0.4 0.25 -3.95 4.6 -5.8 8.3 L-6.35 9.45 Q-6.45 11.7 -3.5 10.8 -2.3 10.05 -1.1 9.55 6.45 6.0 12.3 9.1 M15.35 13.1 Q15.65 13.35 15.75 14.05 16.05 16.5 13.45 24.15 11.55 29.5 1.1 27.65 -6.7 26.05 -3.95 25.85 L-3.85 25.85 Q9.85 25.0 12.35 20.55 14.35 16.5 15.1 13.9 L15.35 13.1 M-71.65 41.55 Q-68.45 43.0 -68.25 45.75 -68.05 48.45 -69.25 51.35 -72.2 47.5 -71.65 41.55 M-50.85 60.3 Q-50.55 57.4 -46.9 55.15 -43.3 52.85 -39.8 54.25 -43.9 60.25 -50.85 60.3" fill="#ba7853" fill-rule="evenodd" stroke="none"/>
    <path d="M-27.9 -96.25 Q-36.05 -84.05 -38.1 -73.85 -44.55 -56.95 -45.9 -31.0 L-43.15 -31.0 -21.9 -34.65 Q-37.2 -30.8 -50.3 -21.85 -56.75 -13.9 -55.95 -5.55 L-59.2 -7.7 Q-60.45 -7.45 -61.05 -6.5 L-61.3 -6.15 -61.5 -5.6 -61.6 -5.25 -61.65 -5.0 -61.65 -4.85 Q-63.5 -0.65 -63.65 4.45 -61.65 10.35 -56.25 15.9 -54.2 16.9 -58.8 15.7 -68.1 17.8 -67.0 24.25 -63.5 31.05 -72.75 37.4 -78.8 49.95 -78.1 62.5 -80.15 58.3 -79.35 52.1 -78.7 43.1 -74.8 38.7 -77.2 27.6 -72.6 16.35 L-72.45 15.95 Q-70.35 4.55 -63.4 -6.75 L-63.05 -7.05 Q-62.2 -7.7 -62.05 -8.05 L-62.0 -8.1 Q-61.7 -8.75 -61.5 -9.55 -61.05 -11.05 -61.0 -12.95 L-60.85 -14.25 Q-59.7 -24.35 -50.15 -29.5 L-44.35 -64.8 Q-42.2 -79.25 -31.25 -93.7 -29.4 -95.4 -27.9 -96.25 M-44.25 7.1 Q-45.8 7.55 -42.4 -1.5 L-42.25 -2.0 Q-33.0 -16.7 -22.35 -26.65 -31.55 -16.35 -38.45 -3.7 L-38.95 -2.75 -39.0 -2.75 -39.2 -2.45 -39.25 -2.35 -39.35 -2.05 -39.55 -1.7 -39.6 -1.6 -39.95 -0.85 -41.0 1.15 -41.3 1.75 -44.15 6.85 -44.25 7.1 M-63.85 47.3 Q-62.9 45.25 -63.35 42.8 -61.4 43.9 -61.65 45.8 -62.45 47.25 -63.85 47.3" fill="#f9aa6e" fill-rule="evenodd" stroke="none"/>
    <path d="M-18.85 19.45 L-18.85 19.3 -18.9 19.25 -18.9 18.85 -18.95 18.65 -19.15 14.9 -19.2 14.7 -19.15 14.55 -19.1 13.4 -18.7 11.1 -17.85 8.75 -17.6 8.25 -15.15 4.25 -15.05 4.15 -14.95 3.95 -14.8 3.8 -14.7 3.8 Q-14.55 3.8 -14.65 3.9 L-14.65 3.95 -14.7 4.1 -14.8 4.3 -14.8 4.45 -14.9 4.6 -16.35 8.05 -16.4 8.2 -16.45 8.3 -16.45 8.4 -16.75 9.0 -17.85 12.85 -17.9 13.2 -18.0 13.55 -18.55 18.7 -18.55 18.85 -18.65 19.2 -18.65 19.4 -18.7 19.4 -18.75 19.45 -18.85 19.45 M-44.25 7.1 L-44.15 6.85 -41.3 1.75 -41.1 1.4 -41.0 1.15 -40.1 -0.55 -39.95 -0.85 -39.6 -1.6 -39.55 -1.7 -39.4 -1.9 -39.35 -2.05 -39.25 -2.35 -39.2 -2.45 -39.0 -2.75 -38.95 -2.75 -38.9 -2.8 -38.85 -2.7 -38.85 -2.35 -38.9 -2.25 -38.9 -2.1 -38.95 -1.95 -38.95 -1.8 -39.75 1.0 -39.9 1.3 -40.1 1.9 -41.45 4.55 -41.65 4.8 -41.95 5.35 -42.7 6.4 -42.75 6.55 -42.85 6.65 -43.2 7.15 -45.15 9.35 -45.3 9.45 -45.4 9.6 -45.5 9.6 -45.55 9.45 -45.5 9.3 -45.4 9.15 -45.35 9.05 -45.3 8.9 -44.65 7.75 -44.5 7.55 -44.25 7.1 M-69.25 51.35 Q-68.05 48.45 -68.25 45.75 -68.45 43.0 -71.65 41.55 -69.1 41.45 -68.15 43.2 -67.45 44.5 -67.45 47.25 -67.45 49.05 -68.25 50.35 -68.8 51.25 -69.3 51.45 L-69.25 51.35 M-50.85 60.3 L-51.0 60.35 Q-51.1 59.35 -50.45 57.95 -49.95 56.85 -49.45 56.3 -47.2 53.85 -45.35 53.3 L-43.85 53.25 -41.55 53.65 -39.7 54.15 -39.8 54.25 Q-43.3 52.85 -46.9 55.15 -50.55 57.4 -50.85 60.3" fill="#24190f" fill-rule="evenodd" stroke="none"/>
    <path d="M-30.4 72.45 L-33.25 78.5 Q-34.5 80.0 -35.55 78.9 L-36.6 77.25 Q-37.5 75.65 -37.8 73.85 L-30.4 72.45" fill="#f0f3f6" fill-rule="evenodd" stroke="none"/>
    <path d="M78.75 -56.4 Q76.75 -58.4 70.1 -57.4 33.95 -37.1 17.8 -37.1 13.45 -37.15 10.55 -38.65 1.4 -45.15 -10.75 -46.6 -23.1 -56.9 -20.95 -90.6 -21.75 -97.05 -24.95 -97.15 -26.25 -97.25 -27.9 -96.25 -29.4 -95.4 -31.25 -93.7 -42.2 -79.25 -44.35 -64.8 L-50.15 -29.5 Q-59.7 -24.35 -60.85 -14.25 L-61.0 -12.95 Q-61.05 -11.05 -61.5 -9.55 -61.7 -8.75 -62.0 -8.1 M-55.95 -5.55 L-55.15 -4.95 Q-48.55 0.5 -48.3 8.55 -48.05 16.75 -53.6 14.95 L-54.2 14.7 Q-61.95 7.45 -61.75 -4.25 L-61.65 -4.85 -61.65 -5.0 -61.6 -5.25 M-78.1 62.5 L-76.95 64.4 -75.1 66.95 -73.85 68.75 -72.95 70.15 Q-72.35 71.25 -69.4 73.5 -66.45 75.75 -56.5 77.25 -48.95 78.35 -42.05 75.8 -39.9 75.0 -37.8 73.85 -37.5 75.65 -36.6 77.25 L-35.55 78.9 Q-34.5 80.0 -33.25 78.5 L-30.4 72.45 -37.8 73.85 M-12.05 26.1 Q-15.7 26.1 -16.45 24.8 M78.75 -56.4 Q80.95 -54.2 77.3 -48.25 55.65 -27.25 45.4 -5.15 45.8 28.1 33.0 47.3 30.55 50.95 27.65 54.1 L22.0 60.65 M7.6 56.3 L6.3 56.7 5.3 56.95 Q-4.35 58.1 -7.45 60.3 -18.8 68.25 -30.4 72.45 M15.6 11.3 Q15.65 8.7 13.15 9.0 L12.3 9.1 Q7.7 9.5 3.4 10.75 -6.65 13.65 -15.15 21.05 L-15.2 21.05 Q-17.0 23.2 -16.6 24.45 M15.35 13.1 L15.1 13.9 Q14.35 16.5 12.35 20.55 9.85 25.0 -3.85 25.85 L-3.95 25.85 -10.25 26.0 -12.05 26.1 M15.35 13.1 L15.6 11.65 M-62.05 -8.05 Q-62.2 -7.7 -63.05 -7.05 L-63.4 -6.75 Q-70.35 4.55 -72.45 15.95 L-72.6 16.35 Q-77.2 27.6 -74.8 38.7 -78.7 43.1 -79.35 52.1 -80.15 58.3 -78.1 62.5 M-61.5 -5.6 L-61.3 -6.15 -61.05 -6.5 Q-60.45 -7.45 -59.2 -7.7 L-55.95 -5.55" fill="none" stroke="#24190f" stroke-linecap="round" stroke-linejoin="round" stroke-width="1.2000000000000002"/>
    <path d="M-67.05 24.25 L-67.0 24.15 Q-66.9 24.05 -66.9 24.2 L-66.8 24.35 -66.35 25.3 -66.3 25.5 -66.15 25.9 -66.1 26.0 -66.05 26.3 -65.95 26.6 -65.95 26.75 -65.9 26.9 -65.9 27.05 -65.85 27.15 -65.85 27.6 -65.8 27.95 -65.8 28.35 -66.05 29.9 -66.6 31.5 -67.5 33.05 -68.6 34.4 -69.15 35.05 -69.75 35.65 -70.65 36.45 -70.8 36.55 -70.95 36.7 -72.3 37.75 -72.45 37.85 -72.55 37.9 -74.45 39.2 -74.5 39.2 Q-75.0 39.45 -75.3 39.0 L-75.35 38.5 -75.1 38.15 -74.4 37.8 -73.05 36.95 -72.95 36.85 -72.65 36.7 -72.1 36.35 -71.55 35.9 -71.25 35.7 -70.35 35.0 -69.15 33.9 -68.05 32.65 -67.15 31.25 -66.55 29.75 -66.25 28.3 -66.25 28.15 -66.2 27.95 -66.2 27.6 -66.25 27.3 -66.25 26.95 -66.3 26.8 -66.3 26.65 -66.4 26.1 -66.45 25.95 -66.5 25.85 -66.6 25.35 -67.0 24.45 -67.05 24.25 M-49.8 -29.0 L-49.85 -28.95 Q-50.35 -28.6 -50.65 -29.15 -51.0 -29.65 -50.45 -29.95 L-50.4 -30.0 -50.3 -30.05 -50.2 -30.15 -49.4 -30.55 -47.9 -31.05 -47.7 -31.05 -47.55 -31.1 -46.5 -31.25 -45.45 -31.25 -44.25 -31.2 -43.45 -31.1 -43.2 -31.1 -43.1 -31.05 -43.05 -30.95 Q-43.05 -30.8 -43.15 -30.9 L-43.45 -30.9 -44.25 -30.85 -45.75 -30.7 -45.9 -30.7 -46.05 -30.65 -46.4 -30.6 -46.7 -30.5 -47.35 -30.35 -47.65 -30.25 -48.45 -29.85 -48.7 -29.75 -49.55 -29.2 -49.55 -29.15 -49.6 -29.15 -49.7 -29.05 -49.8 -29.0 M7.85 56.8 L7.8 56.85 Q7.15 57.05 7.0 56.5 6.7 55.95 7.3 55.75 L7.35 55.7 7.4 55.7 7.5 55.65 7.65 55.6 8.0 55.55 7.9 55.6 9.8 54.9 10.7 54.45 10.8 54.45 10.85 54.4 10.95 54.35 11.0 54.3 11.05 54.3 11.15 54.25 11.25 54.15 11.35 54.1 11.55 53.95 11.7 53.8 11.9 53.65 12.1 53.45 12.15 53.35 12.25 53.3 12.9 52.5 12.95 52.4 13.05 52.3 14.05 50.65 14.2 50.75 14.15 50.8 13.75 51.8 13.5 52.25 13.35 52.6 13.25 52.7 13.15 52.95 12.7 53.65 12.6 53.75 12.55 53.85 12.35 54.05 12.2 54.25 11.8 54.65 11.65 54.75 11.45 54.95 11.4 54.95 11.35 55.0 11.2 55.1 11.15 55.1 11.1 55.15 10.2 55.7 8.25 56.65 8.15 56.7 8.0 56.75 7.9 56.8 7.85 56.8 M17.6 -37.65 L17.65 -37.65 Q18.25 -37.8 18.4 -37.2 18.5 -36.7 17.95 -36.5 L11.95 -35.3 6.6 -34.75 3.15 -34.65 Q3.05 -34.55 3.05 -34.7 L3.1 -34.8 3.75 -34.9 4.1 -34.9 8.45 -35.45 15.9 -37.1 17.6 -37.65" fill="#24190f" fill-rule="evenodd" stroke="none"/>
  </g>
</svg>
