<?xml version="1.0" encoding="UTF-8" standalone="no"?>
<svg xmlns:xlink="http://www.w3.org/1999/xlink" height="34.25px" width="79.45px" xmlns="http://www.w3.org/2000/svg">
  <g transform="matrix(1.0, 0.0, 0.0, 1.0, 39.95, 16.75)">
    <path d="M-37.35 -2.8 Q-39.95 -8.55 -39.3 -14.2 -38.65 -19.9 -37.5 -9.7 -36.4 0.5 -31.05 3.5 -25.7 6.5 -29.15 5.55 -34.65 5.0 -37.35 -2.8" fill="#ce8457" fill-rule="evenodd" stroke="none"/>
    <path d="M38.25 0.7 Q41.1 5.6 32.8 13.35 17.2 19.25 6.75 15.65 L18.45 14.8 Q35.15 15.1 38.25 0.7" fill="#ba7853" fill-rule="evenodd" stroke="none"/>
    <path d="M-37.35 -2.8 Q-34.65 5.0 -29.15 5.55 -25.7 6.5 -31.05 3.5 -36.4 0.5 -37.5 -9.7 -38.65 -19.9 -39.3 -14.2 -39.95 -8.55 -37.35 -2.8 M38.25 0.7 Q35.15 15.1 18.45 14.8 L6.75 15.65 Q17.2 19.25 32.8 13.35 41.1 5.6 38.25 0.7" fill="none" stroke="#24190f" stroke-linecap="round" stroke-linejoin="round" stroke-width="1.0"/>
  </g>
</svg>
