<?xml version="1.0" encoding="UTF-8" standalone="no"?>
<svg xmlns:xlink="http://www.w3.org/1999/xlink" height="34.95px" width="79.25px" xmlns="http://www.w3.org/2000/svg">
  <g transform="matrix(1.0, 0.0, 0.0, 1.0, 39.75, 17.45)">
    <path d="M-37.35 -2.8 Q-39.95 -8.55 -38.95 -14.5 -38.0 -20.5 -35.05 -11.85 -32.15 -3.2 -28.9 1.65 -25.7 6.5 -29.15 5.55 -34.65 5.0 -37.35 -2.8" fill="#ce8457" fill-rule="evenodd" stroke="none"/>
    <path d="M38.25 0.7 Q41.1 5.6 32.8 13.35 17.2 19.25 6.75 15.65 4.25 15.45 16.25 11.65 31.3 6.8 38.25 0.7" fill="#ba7853" fill-rule="evenodd" stroke="none"/>
    <path d="M-37.35 -2.8 Q-34.65 5.0 -29.15 5.55 -25.7 6.5 -28.9 1.65 -32.15 -3.2 -35.05 -11.85 -38.0 -20.5 -38.95 -14.5 -39.95 -8.55 -37.35 -2.8 M38.25 0.7 Q31.3 6.8 16.25 11.65 4.25 15.45 6.75 15.65 17.2 19.25 32.8 13.35 41.1 5.6 38.25 0.7" fill="none" stroke="#24190f" stroke-linecap="round" stroke-linejoin="round" stroke-width="1.0"/>
  </g>
</svg>
