<?xml version="1.0" encoding="UTF-8" standalone="no"?>
<svg xmlns:xlink="http://www.w3.org/1999/xlink" height="198.4px" width="14.55px" xmlns="http://www.w3.org/2000/svg">
  <g transform="matrix(1.0, 0.0, 0.0, 1.0, 36.75, -45.65)">
    <path d="M-22.45 45.65 Q-22.05 50.9 -22.3 56.6 -22.5 63.35 -23.7 70.8 L-24.55 75.15 Q-25.9 81.85 -26.45 89.0 L-26.55 91.2 Q-27.0 102.1 -28.5 112.25 L-29.5 118.95 -29.55 118.7 -29.5 141.35 -29.6 172.15 -29.95 204.15 -30.0 209.65 -30.3 222.2 Q-31.35 253.95 -34.85 239.6 L-35.85 222.25 -36.45 204.35 Q-36.9 188.45 -36.7 172.4 -36.55 157.2 -35.85 141.9 L-34.55 119.45 -34.0 112.65 Q-33.0 103.95 -31.5 95.9 L-31.5 89.4 Q-31.25 80.25 -30.1 71.15 L-29.0 63.65 -28.1 57.05 Q-27.55 52.35 -27.4 47.55 -24.9 46.35 -22.45 45.65" fill="#ffffff" fill-opacity="0.69803923" fill-rule="evenodd" stroke="none"/>
  </g>
</svg>
