<?xml version="1.0" encoding="UTF-8" standalone="no"?>
<svg xmlns:xlink="http://www.w3.org/1999/xlink" height="80.4px" width="299.7px" xmlns="http://www.w3.org/2000/svg">
  <g transform="matrix(1.0, 0.0, 0.0, 1.0, 149.85, 40.2)">
    <path d="M92.7 -9.05 Q54.55 2.3 22.15 3.9 L9.45 6.2 -43.85 -2.8 Q-77.8 -11.3 -110.7 -14.1 -130.8 -17.5 -145.1 -10.2 -148.65 -24.95 -131.25 -28.55 L-122.25 -29.65 Q-116.6 -29.55 -113.55 -25.7 -111.75 -24.25 -104.85 -22.65 -108.15 -29.0 -112.25 -30.1 -127.7 -35.45 -143.1 -31.6 -138.0 -35.75 -129.95 -36.85 -129.0 -38.3 -121.2 -39.05 -113.35 -41.25 -102.4 -34.3 -91.5 -27.35 -81.1 -27.6 -62.5 -29.0 36.5 -15.05 66.8 -9.05 92.7 -9.05 M-115.5 -34.25 Q-121.45 -36.8 -124.0 -37.1 L-129.95 -36.85 -124.0 -37.1 Q-121.45 -36.8 -115.5 -34.25" fill="#f1efa7" fill-rule="evenodd" stroke="none"/>
    <path d="M9.45 6.2 L-6.7 16.1 Q-36.85 6.8 -64.7 4.75 L-76.15 3.55 Q-99.45 -1.45 -119.35 -1.05 -121.85 -0.45 -129.0 -1.9 L-130.15 -3.0 -143.7 -5.85 Q-144.6 -8.15 -145.1 -10.2 -147.0 -9.25 -148.7 -11.75 -150.95 -21.7 -144.1 -30.75 L-143.1 -31.6 Q-127.7 -35.45 -112.25 -30.1 -108.15 -29.0 -104.85 -22.65 -111.75 -24.25 -113.55 -25.7 -116.6 -29.55 -122.25 -29.65 L-131.25 -28.55 Q-148.65 -24.95 -145.1 -10.2 -130.8 -17.5 -110.7 -14.1 -77.8 -11.3 -43.85 -2.8 L9.45 6.2" fill="#dbd39c" fill-rule="evenodd" stroke="none"/>
    <path d="M-117.6 0.95 Q-133.7 2.5 -143.7 -5.85 L-130.15 -3.0 -129.0 -1.9 Q-121.85 -0.45 -119.35 -1.05 L-117.6 0.95" fill="#ff9fa7" fill-rule="evenodd" stroke="none"/>
    <path d="M-76.15 3.55 Q-87.45 2.75 -99.25 3.55 -107.85 3.75 -117.6 0.95 L-119.35 -1.05 Q-99.45 -1.45 -76.15 3.55" fill="#cec29c" fill-rule="evenodd" stroke="none"/>
    <path d="M92.7 -9.05 Q116.8 -9.05 137.0 -14.3 137.7 9.5 149.25 27.95 142.45 32.25 128.65 30.9 L135.3 34.45 Q122.9 37.15 109.75 35.05 L116.05 38.05 Q52.25 45.45 -0.55 18.05 L-6.7 16.1 9.45 6.2 22.15 3.9 Q54.55 2.3 92.7 -9.05" fill="#c6bf8d" fill-rule="evenodd" stroke="none"/>
    <path d="M-6.7 16.1 L-0.55 18.05 Q52.25 45.45 116.05 38.05 L109.75 35.05 Q122.9 37.15 135.3 34.45 L128.65 30.9 Q142.45 32.25 149.25 27.95 137.7 9.5 137.0 -14.3 116.8 -9.05 92.7 -9.05 66.8 -9.05 36.5 -15.05 -62.5 -29.0 -81.1 -27.6 -91.5 -27.35 -102.4 -34.3 -113.35 -41.25 -121.2 -39.05 -129.0 -38.3 -129.95 -36.85 L-124.0 -37.1 Q-121.45 -36.8 -115.5 -34.25 M-6.7 16.1 Q-36.85 6.8 -64.7 4.75 L-76.15 3.55 Q-87.45 2.75 -99.25 3.55 -107.85 3.75 -117.6 0.95 -133.7 2.5 -143.7 -5.85 -144.6 -8.15 -145.1 -10.2 -147.0 -9.25 -148.7 -11.75 -150.95 -21.7 -144.1 -30.75 L-143.1 -31.6 Q-138.0 -35.75 -129.95 -36.85 M-104.85 -22.65 Q-111.75 -24.25 -113.55 -25.7 -116.6 -29.55 -122.25 -29.65 L-131.25 -28.55 Q-148.65 -24.95 -145.1 -10.2 M-119.35 -1.05 Q-121.85 -0.45 -129.0 -1.9 L-130.15 -3.0 -143.7 -5.85 M-117.6 0.95 L-119.35 -1.05" fill="none" stroke="#4b4037" stroke-linecap="round" stroke-linejoin="round" stroke-width="1.2000000000000002"/>
  </g>
</svg>
