<?xml version="1.0" encoding="UTF-8" standalone="no"?>
<svg xmlns:xlink="http://www.w3.org/1999/xlink" height="387.35px" width="223.75px" xmlns="http://www.w3.org/2000/svg">
  <g transform="matrix(1.0, 0.0, 0.0, 1.0, 112.2, 193.65)">
    <path d="M-8.7 -59.9 Q8.75 -86.7 25.15 -122.2 39.8 -154.1 53.6 -193.05 112.9 -130.7 111.5 18.2 88.8 26.45 69.25 42.8 63.25 48.85 44.4 55.35 23.4 59.85 -14.25 55.0 -2.75 63.4 34.15 62.5 L46.15 61.2 Q49.9 61.85 51.55 64.95 38.85 82.2 27.75 101.4 29.3 93.8 29.25 93.15 17.65 108.75 6.8 113.7 5.15 111.5 9.6 106.1 -4.35 113.75 -23.45 115.6 -19.65 114.95 -18.05 113.0 L-36.0 103.85 Q-62.8 84.2 -88.15 79.9 L-110.35 75.55 Q-105.85 12.1 -96.75 -20.5 -51.35 -17.4 -23.15 -26.35 -16.15 -29.95 -8.7 -59.9" fill="#f1efa7" fill-rule="evenodd" stroke="none"/>
    <path d="M-8.7 -59.9 Q-16.15 -29.95 -23.15 -26.35 -51.35 -17.4 -96.75 -20.5 -95.1 -26.4 -93.3 -31.3 -87.35 -48.75 -73.3 -52.85 -59.3 -56.95 -60.95 -54.6 L-61.25 -54.2 Q-48.75 -52.95 -34.2 -48.45 -29.95 -47.2 -26.65 -47.8 -34.15 -35.9 -52.0 -29.45 L-47.8 -29.2 -42.1 -29.55 Q-37.85 -28.5 -39.0 -24.65 -32.3 -27.75 -30.15 -31.0 L-30.1 -31.15 -29.95 -31.2 Q-20.6 -42.3 -11.55 -55.7 L-11.15 -56.25 -8.7 -59.9 M-110.35 75.55 L-88.15 79.9 Q-62.8 84.2 -36.0 103.85 L-18.05 113.0 Q-19.65 114.95 -23.45 115.6 -4.35 113.75 9.6 106.1 5.15 111.5 6.8 113.7 17.65 108.75 29.25 93.15 29.3 93.8 27.75 101.4 38.85 82.2 51.55 64.95 49.9 61.85 46.15 61.2 L34.15 62.5 Q-2.75 63.4 -14.25 55.0 23.4 59.85 44.4 55.35 63.25 48.85 69.25 42.8 88.8 26.45 111.5 18.2 111.2 43.3 109.25 70.85 90.2 89.85 74.55 123.5 58.85 157.2 25.15 170.0 18.2 168.35 14.65 170.25 -0.1 175.15 -15.15 175.5 L-16.6 175.5 Q-29.35 177.95 -44.7 177.65 -66.1 175.9 -87.5 167.6 -108.95 145.85 -111.6 95.5 L-110.35 75.55 M-64.25 -51.45 Q-62.45 -52.7 -61.25 -54.2 -62.45 -52.7 -64.25 -51.45 M-16.6 175.5 Q-24.1 175.3 -30.4 173.0 -24.1 175.3 -16.6 175.5" fill="#dbd39c" fill-rule="evenodd" stroke="none"/>
    <path d="M-15.15 175.5 Q-0.1 175.15 14.65 170.25 18.2 168.35 25.15 170.0 32.4 168.1 36.05 169.55 L19.75 174.0 Q14.6 176.1 6.7 178.65 L12.65 178.85 Q3.4 185.5 -6.8 185.05 -4.3 185.55 -3.0 187.85 -23.35 192.3 -39.6 187.5 -34.85 189.15 -35.55 193.1 -40.4 193.1 -53.3 186.25 -71.95 180.3 -87.5 167.6 -66.1 175.9 -44.7 177.65 -29.35 177.95 -16.6 175.5 L-15.15 175.5 Q-21.9 178.2 -29.3 178.05 -21.9 178.2 -15.15 175.5 M-11.55 -55.7 Q-20.6 -42.3 -29.95 -31.2 L-30.1 -31.15 -30.15 -31.0 Q-32.3 -27.75 -39.0 -24.65 -37.85 -28.5 -42.1 -29.55 L-47.8 -29.2 -52.0 -29.45 Q-34.15 -35.9 -26.65 -47.8 -25.2 -48.1 -23.95 -48.7 -17.0 -50.9 -11.55 -55.7 M-8.65 184.9 L-6.8 185.05 -8.65 184.9" fill="#cec29c" fill-rule="evenodd" stroke="none"/>
    <path d="M53.6 -193.05 Q39.8 -154.1 25.15 -122.2 8.75 -86.7 -8.7 -59.9 L-11.15 -56.25 -11.55 -55.7 Q-20.6 -42.3 -29.95 -31.2 M25.15 170.0 Q58.85 157.2 74.55 123.5 90.2 89.85 109.25 70.85 M-26.65 -47.8 Q-29.95 -47.2 -34.2 -48.45 -48.75 -52.95 -61.25 -54.2 -62.45 -52.7 -64.25 -51.45 M-93.3 -31.3 Q-87.35 -48.75 -73.3 -52.85 -59.3 -56.95 -60.95 -54.6 L-61.25 -54.2 M-26.65 -47.8 Q-25.2 -48.1 -23.95 -48.7 -17.0 -50.9 -11.55 -55.7" fill="none" stroke="#4b4037" stroke-linecap="round" stroke-linejoin="round" stroke-width="1.2000000000000002"/>
    <path d="M-96.75 -20.5 Q-105.85 12.1 -110.35 75.55 L-111.6 95.5 M19.75 174.0 L36.05 169.55 Q32.4 168.1 25.15 170.0 M-93.3 -31.3 Q-95.1 -26.4 -96.75 -20.5" fill="none" stroke="#4b4037" stroke-linecap="round" stroke-linejoin="miter-clip" stroke-miterlimit="3.0" stroke-width="1.2000000000000002"/>
    <path d="M19.75 174.0 Q14.6 176.1 6.7 178.65 L12.65 178.85 Q3.4 185.5 -6.8 185.05 -4.3 185.55 -3.0 187.85 -23.35 192.3 -39.6 187.5 -34.85 189.15 -35.55 193.1 -40.4 193.1 -53.3 186.25 -71.95 180.3 -87.5 167.6 M-30.4 173.0 Q-24.1 175.3 -16.6 175.5 L-15.15 175.5 Q-21.9 178.2 -29.3 178.05 M-6.8 185.05 L-8.65 184.9" fill="none" stroke="#4b4037" stroke-linecap="round" stroke-linejoin="miter-clip" stroke-miterlimit="5.0" stroke-width="1.2000000000000002"/>
    <path d="M-36.45 -30.3 L-30.5 -31.5 -30.5 -31.55 -30.1 -31.75 Q-29.85 -31.75 -29.65 -31.55 -29.3 -31.25 -29.5 -30.9 -29.5 -30.6 -29.8 -30.45 L-30.3 -29.8 -30.7 -29.4 -30.85 -29.3 -31.15 -29.0 -32.65 -27.8 -34.85 -26.45 -35.1 -26.35 -35.3 -26.2 -38.5 -24.7 -38.95 -24.55 Q-39.05 -24.45 -39.05 -24.6 L-39.0 -24.7 -35.4 -26.85 -35.15 -26.95 -32.45 -29.1 -31.45 -30.15 -36.3 -29.35 -47.75 -28.95 -52.35 -29.3 -52.4 -29.4 -52.3 -29.45 -47.8 -29.4 -36.45 -30.3" fill="#4b4037" fill-rule="evenodd" stroke="none"/>
  </g>
</svg>
