<?xml version="1.0" encoding="UTF-8" standalone="no"?>
<svg xmlns:xlink="http://www.w3.org/1999/xlink" height="71.35px" width="282.55px" xmlns="http://www.w3.org/2000/svg">
  <g transform="matrix(1.0, 0.0, 0.0, 1.0, 141.3, 35.65)">
    <path d="M-99.9 -28.5 Q-88.55 -31.4 -75.35 -25.2 -56.8 -19.35 -19.05 -18.7 13.9 -16.75 41.15 -24.8 L48.8 -27.95 Q78.3 -39.3 94.15 -32.45 113.25 -28.5 128.6 -17.65 122.85 -1.7 109.9 5.75 71.1 11.4 27.45 5.75 -15.05 4.8 -56.6 14.7 L-95.65 20.95 Q-111.1 22.4 -127.7 12.2 -127.15 9.25 -125.85 6.05 -123.25 -2.5 -117.15 -6.2 -115.6 -7.15 -113.85 -7.75 L-110.65 -8.55 -110.45 -8.6 -110.4 -8.6 Q-97.2 -11.6 -87.95 -8.15 -77.45 -4.2 -69.75 -7.55 -82.7 -9.0 -92.1 -11.95 -98.15 -13.55 -103.65 -12.75 -114.75 -11.85 -125.7 -9.35 -141.75 -4.0 -137.4 17.3 -141.4 11.75 -140.55 0.15 -139.7 -11.55 -121.4 -21.35 -117.25 -22.55 -112.5 -23.15 L-106.8 -23.1 Q-97.85 -22.05 -86.6 -15.35 -88.45 -20.6 -99.9 -28.5" fill="#f1efa7" fill-rule="evenodd" stroke="none"/>
    <path d="M-99.9 -28.5 Q-88.45 -20.6 -86.6 -15.35 -97.85 -22.05 -106.8 -23.1 L-110.5 -23.5 Q-105.45 -27.1 -99.9 -28.5 M-137.4 17.3 Q-141.75 -4.0 -125.7 -9.35 -114.75 -11.85 -103.65 -12.75 -98.15 -13.55 -92.1 -11.95 -82.7 -9.0 -69.75 -7.55 -77.45 -4.2 -87.95 -8.15 -97.2 -11.6 -110.4 -8.6 -109.5 -8.95 -111.75 -8.35 L-113.85 -7.75 Q-115.6 -7.15 -117.15 -6.2 -123.25 -2.5 -125.85 6.05 -127.15 9.25 -127.7 12.2 -111.1 22.4 -95.65 20.95 L-56.6 14.7 Q-15.05 4.8 27.45 5.75 71.1 11.4 109.9 5.75 122.85 -1.7 128.6 -17.65 136.1 -14.25 140.65 -7.25 139.25 3.1 140.65 15.75 137.4 15.5 135.55 10.45 135.45 21.75 139.7 33.0 L39.75 26.1 Q-7.2 22.35 -45.85 27.55 -60.0 28.4 -73.45 27.1 -79.8 28.05 -83.95 31.2 -104.75 31.25 -123.75 26.7 L-125.85 25.15 -127.15 22.4 Q-134.0 22.0 -137.4 17.3 M-127.15 22.4 L-127.3 22.1 Q-128.8 17.7 -127.7 12.2 -128.8 17.7 -127.3 22.1 L-127.15 22.4" fill="#dbd39c" fill-rule="evenodd" stroke="none"/>
    <path d="M-45.85 27.55 L-56.0 29.1 Q-66.3 30.95 -83.95 31.2 -79.8 28.05 -73.45 27.1 -60.0 28.4 -45.85 27.55" fill="#cec29c" fill-rule="evenodd" stroke="none"/>
    <path d="M-83.95 31.2 Q-103.4 40.8 -123.75 26.7 -104.75 31.25 -83.95 31.2" fill="#ff9fa7" fill-rule="evenodd" stroke="none"/>
    <path d="M94.15 -32.45 Q78.3 -39.3 48.8 -27.95 L41.15 -24.8 Q13.9 -16.75 -19.05 -18.7 -56.8 -19.35 -75.35 -25.2 -88.55 -31.4 -99.9 -28.5 -105.45 -27.1 -110.5 -23.5 L-112.5 -23.15 Q-117.25 -22.55 -121.4 -21.35 -139.7 -11.55 -140.55 0.15 -141.4 11.75 -137.4 17.3 -134.0 22.0 -127.15 22.4 L-125.85 25.15 -123.75 26.7 Q-103.4 40.8 -83.95 31.2 -104.75 31.25 -123.75 26.7 M-86.6 -15.35 Q-97.85 -22.05 -106.8 -23.1 L-112.5 -23.15 M-69.75 -7.55 Q-77.45 -4.2 -87.95 -8.15 -97.2 -11.6 -110.4 -8.6 L-110.45 -8.6 -110.65 -8.55 -113.85 -7.75 Q-115.6 -7.15 -117.15 -6.2 -123.25 -2.5 -125.85 6.05 -127.15 9.25 -127.7 12.2 -128.8 17.7 -127.3 22.1 L-127.15 22.4 M140.65 -7.25 Q139.25 3.1 140.65 15.75 137.4 15.5 135.55 10.45 135.45 21.75 139.7 33.0 L39.75 26.1 Q-7.2 22.35 -45.85 27.55 L-56.0 29.1 Q-66.3 30.95 -83.95 31.2 M-111.75 -8.35 L-113.85 -7.75 M-110.65 -8.55 L-111.75 -8.35 Q-109.5 -8.95 -110.4 -8.6" fill="none" stroke="#4b4037" stroke-linecap="round" stroke-linejoin="round" stroke-width="1.2000000000000002"/>
    <path d="M-73.45 27.0 Q-73.35 26.9 -73.35 27.05 L-73.4 27.15 -73.9 27.25 -74.15 27.35 -74.95 27.5 -76.9 28.05 -77.1 28.15 -77.85 28.4 -78.55 28.7 -79.3 29.0 -80.2 29.45 -80.45 29.55 -80.65 29.7 -80.9 29.8 -81.1 29.95 -81.5 30.15 -82.0 30.5 -82.2 30.6 -82.5 30.85 -82.65 30.95 -82.75 31.05 -83.2 31.35 -83.55 31.65 -83.6 31.65 -83.6 31.7 Q-84.05 32.0 -84.45 31.55 -84.75 31.1 -84.3 30.7 L-83.25 30.0 -82.55 29.65 -82.35 29.5 -79.3 28.2 -79.05 28.15 -78.65 28.0 -78.55 28.0 -77.25 27.65 -77.0 27.55 -75.2 27.2 -75.0 27.2 -74.85 27.15 -74.2 27.05 -73.95 27.05 -73.45 27.0" fill="#4b4037" fill-rule="evenodd" stroke="none"/>
  </g>
</svg>
