<?xml version="1.0" encoding="UTF-8" standalone="no"?>
<svg xmlns:xlink="http://www.w3.org/1999/xlink" height="232.45px" width="131.6px" xmlns="http://www.w3.org/2000/svg">
  <g transform="matrix(1.0, 0.0, 0.0, 1.0, 71.6, 116.4)">
    <path d="M14.45 -96.75 Q15.85 -97.95 18.25 -96.75 17.0 -100.2 13.7 -100.75 14.7 -103.55 17.9 -104.3 11.95 -105.7 6.4 -104.3 -5.4 -105.95 -9.55 -113.9 L6.45 -115.45 Q22.15 -117.05 36.0 -111.7 31.55 -111.85 27.85 -109.85 33.3 -107.5 35.75 -101.45 34.25 -103.85 31.85 -102.45 35.7 -93.85 36.85 -76.65 L33.65 -15.45 45.5 54.05 Q50.85 69.3 59.4 84.95 56.85 83.3 54.35 84.95 56.7 90.95 54.35 96.9 53.15 94.3 50.8 94.55 54.1 105.9 40.8 110.05 21.65 96.95 4.2 112.55 -8.1 117.65 -23.4 108.15 -28.15 93.7 -38.85 96.9 L-41.55 91.7 Q-47.5 76.25 -39.3 69.35 -31.2 62.4 -27.65 61.05 -24.15 59.7 -22.25 61.7 -18.2 65.85 -12.6 67.15 -7.35 69.6 -2.0 70.75 10.0 71.8 16.05 76.45 21.8 77.8 24.25 69.5 L24.5 68.5 Q24.6 20.2 17.1 -28.8 L17.15 -28.9 16.3 -47.0 17.15 -79.05 17.1 -79.15 Q17.5 -84.45 16.05 -88.7 18.15 -94.2 14.45 -96.75" fill="#dbd39c" fill-rule="evenodd" stroke="none"/>
    <path d="M17.9 -104.3 Q14.7 -103.55 13.7 -100.75 17.0 -100.2 18.25 -96.75 15.85 -97.95 14.45 -96.75 18.15 -94.2 16.05 -88.7 17.5 -84.45 17.1 -79.15 L17.0 -79.1 15.3 -61.0 15.5 -40.45 17.0 -28.85 Q17.0 -28.7 17.1 -28.8 24.6 20.2 24.5 68.5 L24.25 69.5 Q21.8 77.8 16.05 76.45 10.0 71.8 -2.0 70.75 -7.35 69.6 -12.6 67.15 -10.85 62.2 -9.55 56.25 -5.05 35.8 -5.4 3.15 -10.8 -54.7 -71.0 -115.45 -45.05 -107.65 -9.55 -113.9 -5.4 -105.95 6.4 -104.3 11.95 -105.7 17.9 -104.3" fill="#f1efa7" fill-rule="evenodd" stroke="none"/>
    <path d="M17.1 -79.15 L17.15 -79.05 16.3 -47.0 17.15 -28.9 17.1 -28.8 Q17.0 -28.7 17.0 -28.85 L15.5 -40.45 15.3 -61.0 17.0 -79.1 17.1 -79.15" fill="#4b4037" fill-rule="evenodd" stroke="none"/>
    <path d="M-38.85 96.9 Q-28.15 93.7 -23.4 108.15 -33.8 106.15 -38.85 96.9 M4.2 112.55 Q21.65 96.95 40.8 110.05 19.0 119.45 4.2 112.55" fill="#ff9fa7" fill-rule="evenodd" stroke="none"/>
    <path d="M-12.6 67.15 Q-18.2 65.85 -22.25 61.7 -19.5 54.8 -9.55 56.25 -10.85 62.2 -12.6 67.15" fill="#cec29c" fill-rule="evenodd" stroke="none"/>
    <path d="M17.9 -104.3 Q14.7 -103.55 13.7 -100.75 17.0 -100.2 18.25 -96.75 15.85 -97.95 14.45 -96.75 M-12.6 67.15 Q-18.2 65.85 -22.25 61.7 -24.15 59.7 -27.65 61.05 -31.2 62.4 -39.3 69.35 -47.5 76.25 -41.55 91.7 L-38.85 96.9 Q-28.15 93.7 -23.4 108.15 -8.1 117.65 4.2 112.55 21.65 96.95 40.8 110.05 54.1 105.9 50.8 94.55 53.15 94.3 54.35 96.9 56.7 90.95 54.35 84.95 56.85 83.3 59.4 84.95 50.85 69.3 45.5 54.05 L33.65 -15.45 36.85 -76.65 Q35.7 -93.85 31.85 -102.45 34.25 -103.85 35.75 -101.45 33.3 -107.5 27.85 -109.85 31.55 -111.85 36.0 -111.7 22.15 -117.05 6.45 -115.45 M40.8 110.05 Q19.0 119.45 4.2 112.55 M-12.6 67.15 Q-10.85 62.2 -9.55 56.25 -19.5 54.8 -22.25 61.7 M-9.55 56.25 Q-5.05 35.8 -5.4 3.15 -10.8 -54.7 -71.0 -115.45" fill="none" stroke="#4b4037" stroke-linecap="round" stroke-linejoin="round" stroke-width="1.2000000000000002"/>
    <path d="M-39.35 97.15 L-39.25 96.75 Q-39.1 96.55 -38.8 96.5 L-38.3 96.6 -38.25 96.6 -38.2 96.65 -38.15 96.65 -38.15 96.7 -38.1 96.75 -38.0 96.8 -37.95 96.95 -36.15 99.65 -34.65 101.4 -33.4 102.6 -30.55 104.75 -27.2 106.4 -26.85 106.5 -26.5 106.65 -23.75 107.45 -23.25 107.55 Q-22.7 107.65 -22.8 108.25 -22.9 108.8 -23.5 108.7 L-24.0 108.6 -24.15 108.6 -26.55 108.0 -26.9 107.85 -27.3 107.75 -27.65 107.6 -28.05 107.5 -31.25 105.95 -32.85 104.9 -33.6 104.3 -34.0 104.0 -36.3 101.8 -36.55 101.45 -37.35 100.55 -37.55 100.2 -37.8 99.95 -39.05 98.0 -39.15 97.8 -39.25 97.65 -39.3 97.55 -39.3 97.4 -39.35 97.35 -39.35 97.15 M14.05 -96.25 L14.0 -96.3 Q13.55 -96.7 13.95 -97.1 14.25 -97.55 14.8 -97.2 L14.95 -97.05 15.1 -96.95 15.25 -96.8 15.45 -96.65 15.85 -96.15 16.0 -96.0 16.7 -94.8 16.95 -94.0 17.1 -93.1 17.1 -92.1 17.05 -92.0 17.05 -91.8 16.85 -90.6 16.45 -89.4 16.1 -88.65 Q16.1 -88.5 16.0 -88.6 15.85 -88.6 15.95 -88.7 L16.2 -89.75 16.3 -90.05 16.5 -91.45 16.5 -92.2 16.4 -93.0 16.2 -93.75 15.9 -94.45 15.1 -95.45 14.9 -95.65 14.7 -95.8 14.55 -95.95 14.4 -96.05 14.25 -96.1 14.15 -96.2 14.05 -96.25 M6.4 -104.2 Q6.3 -104.1 6.3 -104.25 L6.35 -104.35 7.1 -104.6 7.4 -104.65 7.75 -104.75 9.95 -105.15 11.05 -105.25 11.3 -105.3 12.7 -105.35 16.2 -105.15 18.0 -104.85 18.05 -104.85 Q18.6 -104.7 18.5 -104.1 18.3 -103.5 17.75 -103.7 L17.25 -103.8 17.0 -103.9 15.15 -104.3 13.7 -104.5 13.45 -104.5 13.2 -104.55 10.0 -104.65 9.75 -104.6 9.5 -104.6 8.6 -104.5 8.4 -104.5 8.2 -104.45 6.9 -104.25 6.4 -104.2" fill="#4b4037" fill-rule="evenodd" stroke="none"/>
  </g>
</svg>
