<?xml version="1.0" encoding="UTF-8" standalone="no"?>
<svg xmlns:xlink="http://www.w3.org/1999/xlink" height="307.75px" width="122.25px" xmlns="http://www.w3.org/2000/svg">
  <g transform="matrix(1.0, 0.0, 0.0, 1.0, 61.1, 149.65)">
    <path d="M7.2 -140.95 Q18.65 -132.3 27.55 -119.2 18.65 -132.3 7.2 -140.95 L9.75 -147.55 Q23.85 -132.95 27.55 -119.2 44.95 -93.55 52.3 -50.75 65.3 -1.2 57.8 56.55 53.75 84.55 50.7 95.1 L50.6 95.35 50.25 95.5 34.35 111.4 Q35.7 51.15 26.4 -3.05 20.4 -40.45 9.4 -71.0 -6.0 -85.3 -10.9 -52.25 -14.15 -34.9 -10.9 -17.55 -14.9 -18.35 -18.0 -26.0 -23.75 -15.2 -23.15 10.15 L-28.8 -2.5 Q-36.3 10.8 -45.7 34.05 L-45.7 23.3 Q-53.5 37.7 -55.2 63.55 -61.1 41.05 -60.45 19.15 -52.95 -109.35 -28.7 -140.05 -13.9 -158.8 7.2 -140.95 M-2.45 101.95 Q-22.6 61.0 -12.25 28.4 -11.95 45.7 -9.65 68.85 3.45 114.1 -2.45 101.95" fill="#dbd39c" fill-rule="evenodd" stroke="none"/>
    <path d="M-55.2 63.55 Q-53.5 37.7 -45.7 23.3 L-45.7 34.05 Q-36.3 10.8 -28.8 -2.5 L-23.15 10.15 Q-23.75 -15.2 -18.0 -26.0 -14.9 -18.35 -10.9 -17.55 -14.15 -34.9 -10.9 -52.25 -6.0 -85.3 9.4 -71.0 20.4 -40.45 26.4 -3.05 35.7 51.15 34.35 111.4 L-11.75 157.5 Q-17.75 155.15 -19.5 149.65 -27.3 122.2 -42.3 98.35 -50.7 80.8 -55.2 63.55 M-2.45 101.95 Q3.45 114.1 -9.65 68.85 -11.95 45.7 -12.25 28.4 -22.6 61.0 -2.45 101.95" fill="#f1efa7" fill-rule="evenodd" stroke="none"/>
    <path d="M27.55 -119.2 Q18.65 -132.3 7.2 -140.95 M-60.45 19.15 Q-61.1 41.05 -55.2 63.55 -50.7 80.8 -42.3 98.35 -27.3 122.2 -19.5 149.65 M50.25 95.5 L50.6 95.35 50.7 95.1 Q53.75 84.55 57.8 56.55 65.3 -1.2 52.3 -50.75 44.95 -93.55 27.55 -119.2 23.85 -132.95 9.75 -147.55" fill="none" stroke="#4b4037" stroke-linecap="round" stroke-linejoin="round" stroke-width="1.2000000000000002"/>
    <path d="M-19.5 149.65 Q-17.75 155.15 -11.75 157.5" fill="none" stroke="#4b4037" stroke-linecap="round" stroke-linejoin="miter-clip" stroke-miterlimit="5.0" stroke-width="1.2000000000000002"/>
    <path d="M40.15 101.85 L40.0 101.85 40.0 101.7 40.05 101.6 40.55 100.95 40.6 100.9 40.7 100.85 40.95 100.55 41.0 100.5 41.05 100.4 41.2 100.25 43.6 98.35 45.5 97.2 46.0 96.95 46.45 96.65 46.95 96.45 47.35 96.2 48.9 95.45 49.45 95.25 49.9 95.0 49.95 95.0 Q50.5 94.8 50.7 95.35 50.9 95.85 50.35 96.15 L47.3 97.25 45.85 97.9 43.45 99.15 41.3 100.65 41.2 100.7 41.15 100.8 40.85 101.1 40.75 101.15 40.65 101.25 40.25 101.75 40.15 101.85" fill="#4b4037" fill-rule="evenodd" stroke="none"/>
  </g>
</svg>
