<?xml version="1.0" encoding="UTF-8" standalone="no"?>
<svg xmlns:xlink="http://www.w3.org/1999/xlink" height="39.3px" width="10.35px" xmlns="http://www.w3.org/2000/svg">
  <g transform="matrix(1.0, 0.0, 0.0, 1.0, -20.5, 26.4)">
    <path d="M21.9 -20.8 Q21.7 -21.6 21.9 -22.55 L22.0 -23.15 Q21.8 -23.6 21.9 -24.25 L22.05 -24.9 22.2 -25.0 22.0 -25.3 Q21.95 -25.8 22.3 -26.15 L22.85 -26.4 Q24.25 -25.65 23.25 -25.1 24.15 -24.4 23.65 -22.95 L23.9 -21.6 23.85 -20.55 23.75 -20.2 Q23.6 -19.45 22.85 -19.35 L22.8 -19.4 22.6 -19.35 Q22.05 -19.2 21.85 -19.75 L21.9 -20.2 22.1 -19.95 Q22.95 -19.25 23.5 -20.2 L23.55 -20.7 Q23.4 -21.45 22.7 -21.5 L22.0 -21.05 21.9 -20.8 M21.45 -5.65 L22.4 -7.5 22.8 -7.95 22.85 -8.5 Q23.5 -13.3 23.5 -18.25 L23.8 -18.55 24.3 -18.75 Q25.8 -13.95 24.75 -8.05 L24.3 -5.05 Q27.65 0.2 25.6 6.8 L25.7 7.35 Q26.45 12.1 23.2 12.9 L22.95 12.35 22.9 11.65 Q21.05 7.6 23.25 2.45 24.8 -1.2 23.5 -4.9 L21.95 -3.25 20.5 -3.35 20.85 -4.25 Q20.9 -3.9 21.3 -3.7 L22.2 -3.75 Q22.85 -4.3 22.8 -5.1 L22.6 -5.45 Q22.25 -5.8 21.7 -5.75 L21.45 -5.65 M27.85 -4.7 Q26.55 -4.3 26.0 -6.35 25.85 -7.0 26.6 -7.05 L27.45 -6.65 Q27.45 -7.25 28.2 -7.35 L29.15 -6.35 29.5 -6.45 30.1 -6.1 30.25 -6.0 Q30.45 -5.15 30.1 -4.5 L30.25 -3.8 28.35 -5.3 Q27.8 -5.25 27.85 -4.7 M29.3 -1.1 L28.9 -1.0 Q27.95 -1.1 28.0 -1.95 L28.1 -2.5 28.35 -2.75 28.4 -2.65 29.3 -1.1 M24.75 11.4 Q25.4 8.9 24.55 7.1 25.4 6.5 25.05 5.55 L24.9 5.4 24.3 5.1 Q23.95 5.1 23.6 5.45 23.0 6.1 23.3 6.7 L23.2 6.85 23.05 8.25 Q22.15 10.9 23.6 12.45 24.55 12.3 24.75 11.4 M24.75 2.35 Q24.45 2.35 24.2 2.65 22.85 4.15 24.45 4.95 25.1 4.9 25.35 4.35 25.7 3.6 25.5 2.8 L25.35 2.65 24.75 2.35" fill="#ffffff" fill-opacity="0.6" fill-rule="evenodd" stroke="none"/>
    <path d="M21.9 -20.2 L21.85 -20.25 21.9 -20.8 22.0 -21.05 22.7 -21.5 Q23.4 -21.45 23.55 -20.7 L23.5 -20.2 Q22.95 -19.25 22.1 -19.95 L21.9 -20.2 M20.85 -4.25 L20.8 -4.55 20.9 -5.25 21.25 -5.55 21.45 -5.65 21.7 -5.75 Q22.25 -5.8 22.6 -5.45 L22.8 -5.1 Q22.85 -4.3 22.2 -3.75 L21.3 -3.7 Q20.9 -3.9 20.85 -4.25 M30.25 -3.8 L30.8 -2.75 Q31.0 -2.2 30.65 -1.75 L30.6 -1.3 Q30.45 -0.6 29.8 -0.55 L29.3 -1.1 28.4 -2.65 28.35 -2.75 27.9 -3.5 27.8 -4.15 27.95 -4.3 27.85 -4.7 Q27.8 -5.25 28.35 -5.3 L30.25 -3.8 M24.75 2.35 L25.35 2.65 25.5 2.8 Q25.7 3.6 25.35 4.35 25.1 4.9 24.45 4.95 22.85 4.15 24.2 2.65 24.45 2.35 24.75 2.35 M24.75 11.4 Q24.55 12.3 23.6 12.45 22.15 10.9 23.05 8.25 L23.2 6.85 23.3 6.7 Q23.0 6.1 23.6 5.45 23.95 5.1 24.3 5.1 L24.9 5.4 25.05 5.55 Q25.4 6.5 24.55 7.1 25.4 8.9 24.75 11.4" fill="#ffffff" fill-opacity="0.9019608" fill-rule="evenodd" stroke="none"/>
  </g>
</svg>
