<?xml version="1.0" encoding="UTF-8" standalone="no"?>
<svg xmlns:xlink="http://www.w3.org/1999/xlink" height="47.15px" width="16.65px" xmlns="http://www.w3.org/2000/svg">
  <g transform="matrix(1.0, 0.0, 0.0, 1.0, -14.25, 26.4)">
    <path d="M20.75 -18.1 L20.05 -17.35 19.25 -17.05 Q18.7 -17.95 18.7 -19.15 18.7 -20.8 19.3 -21.2 L20.5 -21.4 Q22.25 -21.45 22.0 -25.75 L22.25 -26.0 22.85 -26.4 Q23.65 -25.35 23.5 -25.15 L23.25 -25.1 23.7 -23.5 24.3 -22.0 Q24.95 -22.0 25.4 -19.75 L26.05 -16.05 26.35 -12.15 Q26.35 -10.0 25.75 -7.1 25.7 -8.4 24.75 -9.2 L24.35 -9.05 23.9 -8.55 23.8 -7.7 23.8 -7.55 23.4 -7.05 Q22.5 -4.7 24.0 -3.35 L24.05 -3.0 23.7 -2.85 23.3 -2.6 23.1 0.8 23.05 2.9 22.45 3.05 19.55 -2.0 21.95 -6.8 Q24.3 -12.0 24.0 -18.65 L23.9 -19.25 23.7 -18.75 Q23.5 -18.5 22.85 -18.5 22.2 -18.5 22.05 -18.8 L21.95 -19.6 21.85 -19.8 21.7 -19.5 21.45 -19.85 Q20.9 -20.35 20.1 -20.2 19.4 -20.1 19.1 -19.35 18.9 -18.75 19.3 -18.3 19.9 -17.8 20.6 -18.05 L20.75 -18.1 M25.7 -6.35 L26.5 -6.95 28.2 -7.35 Q28.7 -7.35 28.85 -6.9 29.0 -6.45 29.5 -6.45 L30.3 -4.8 Q30.9 -3.1 30.9 -2.2 L30.75 -1.5 Q30.6 -1.3 30.6 -0.95 30.8 -0.55 29.8 -0.55 28.05 -0.55 28.15 -1.35 28.25 -2.1 27.75 -2.8 L28.45 -2.85 28.5 -2.75 28.55 -2.45 Q28.5 -1.75 29.15 -1.45 L29.5 -1.3 Q30.9 -1.95 30.2 -3.45 L29.75 -4.5 29.1 -4.7 27.5 -4.8 27.1 -4.65 Q26.65 -4.45 26.5 -4.05 L26.2 -4.25 25.85 -4.15 Q25.7 -4.8 25.15 -5.2 L25.15 -5.25 25.55 -5.8 25.7 -6.35 M25.6 -2.25 Q26.45 0.4 26.45 2.5 L26.2 6.4 26.1 7.25 25.8 6.3 Q25.9 1.55 24.25 -2.55 L25.0 -1.95 Q25.4 -2.0 25.6 -2.25 M25.9 9.35 L25.9 9.4 25.35 10.45 25.45 9.95 25.5 9.65 25.9 9.35 M24.2 16.4 L24.2 16.5 25.6 18.45 Q25.6 20.9 23.25 20.75 22.6 20.7 22.2 18.95 21.85 17.6 21.85 16.1 L21.85 12.05 Q19.8 11.7 17.85 10.75 14.05 8.85 14.25 5.8 L14.35 5.4 15.05 5.25 18.05 6.85 21.45 9.0 22.15 9.3 22.1 7.75 Q22.1 6.0 23.05 3.1 L23.05 4.8 Q22.4 5.9 23.05 6.55 L23.15 8.6 23.0 8.65 22.5 9.15 22.4 10.85 Q22.2 13.35 22.95 15.25 L22.65 15.4 22.35 15.7 22.15 16.7 Q21.8 19.05 23.15 20.25 23.9 20.15 24.05 19.4 24.35 17.75 23.95 16.55 L24.2 16.4 M21.5 -2.5 L21.95 -2.1 21.9 -3.2 Q21.45 -2.95 21.5 -2.5 M19.5 9.45 L19.1 9.6 Q18.7 9.75 18.65 10.2 L18.6 10.35 Q18.6 10.85 19.1 11.05 20.95 11.85 21.7 10.4 L21.45 9.8 Q20.6 9.15 19.5 9.45" fill="#ffffff" fill-opacity="0.6" fill-rule="evenodd" stroke="none"/>
    <path d="M25.75 -7.1 L25.7 -6.35 25.55 -5.8 25.15 -5.25 25.15 -5.2 Q25.7 -4.8 25.85 -4.15 26.05 -3.45 25.65 -2.45 L25.6 -2.25 Q25.4 -2.0 25.0 -1.95 L24.25 -2.55 Q25.9 1.55 25.8 6.3 L26.1 7.25 26.15 8.7 25.9 9.35 25.5 9.65 25.45 9.95 25.35 10.45 24.7 11.95 Q24.95 13.45 24.8 15.2 24.75 16.0 24.2 16.4 L23.95 16.55 Q24.35 17.75 24.05 19.4 23.9 20.15 23.15 20.25 21.8 19.05 22.15 16.7 L22.35 15.7 22.65 15.4 22.95 15.25 Q22.2 13.35 22.4 10.85 L22.5 9.15 23.0 8.65 23.15 8.6 23.05 6.55 Q22.4 5.9 23.05 4.8 L23.05 3.1 23.05 2.9 23.1 0.8 23.3 -2.6 23.7 -2.85 24.05 -3.0 24.0 -3.35 Q22.5 -4.7 23.4 -7.05 L23.8 -7.55 23.8 -7.7 23.9 -8.55 24.35 -9.05 24.75 -9.2 Q25.7 -8.4 25.75 -7.1 M27.75 -2.8 Q26.95 -2.9 26.4 -3.5 L26.4 -3.7 26.5 -4.05 Q26.65 -4.45 27.1 -4.65 L27.5 -4.8 29.1 -4.7 29.75 -4.5 30.2 -3.45 Q30.9 -1.95 29.5 -1.3 L29.15 -1.45 Q28.5 -1.75 28.55 -2.45 L28.5 -2.75 28.45 -2.85 27.75 -2.8 M21.7 -19.5 L21.7 -19.4 Q21.5 -18.55 20.75 -18.1 L20.6 -18.05 Q19.9 -17.8 19.3 -18.3 18.9 -18.75 19.1 -19.35 19.4 -20.1 20.1 -20.2 20.9 -20.35 21.45 -19.85 L21.7 -19.5 M19.5 9.45 Q20.6 9.15 21.45 9.8 L21.7 10.4 Q20.95 11.85 19.1 11.05 18.6 10.85 18.6 10.35 L18.65 10.2 Q18.7 9.75 19.1 9.6 L19.5 9.45" fill="#ffffff" fill-opacity="0.9019608" fill-rule="evenodd" stroke="none"/>
  </g>
</svg>
