<?xml version="1.0" encoding="UTF-8" standalone="no"?>
<svg xmlns:xlink="http://www.w3.org/1999/xlink" height="91.15px" width="38.55px" xmlns="http://www.w3.org/2000/svg">
  <g transform="matrix(1.0, 0.0, 0.0, 1.0, 3.2, 44.9)">
    <path d="M19.95 8.0 L20.4 8.3 21.25 8.35 21.5 7.85 22.1 7.4 Q22.2 5.75 23.05 3.1 L23.05 2.9 22.45 3.05 19.55 -2.0 21.75 -6.35 Q21.5 -7.0 21.75 -7.75 L20.35 -5.95 Q19.8 -5.7 19.3 -5.95 L19.25 -5.95 18.9 -5.85 Q18.2 -5.6 17.95 -6.25 L20.4 -9.75 21.8 -15.4 22.0 -17.95 Q22.1 -18.3 22.45 -18.45 L22.6 -18.5 Q22.15 -18.55 22.05 -18.8 L21.95 -19.6 21.85 -19.8 21.7 -19.5 21.7 -19.4 Q21.5 -18.55 20.75 -18.1 L20.05 -17.35 19.25 -17.05 Q18.7 -17.95 18.7 -19.15 18.7 -20.8 19.3 -21.2 L20.5 -21.4 Q22.25 -21.45 22.0 -25.75 L22.25 -26.0 22.85 -26.4 23.0 -26.2 Q23.2 -27.0 23.85 -27.5 L24.45 -27.35 24.7 -27.2 24.9 -26.3 25.35 -24.05 Q26.0 -20.3 26.0 -16.45 L26.05 -16.05 26.35 -12.15 Q26.35 -10.0 25.75 -7.1 L25.7 -6.35 26.5 -6.95 28.2 -7.35 Q28.7 -7.35 28.85 -6.9 29.0 -6.45 29.5 -6.45 L30.3 -4.8 Q30.9 -3.1 30.9 -2.2 L30.75 -1.5 Q30.6 -1.3 30.6 -0.95 30.8 -0.55 29.8 -0.55 28.05 -0.55 28.15 -1.35 28.25 -2.1 27.75 -2.8 26.95 -2.9 26.4 -3.5 L26.4 -3.7 26.5 -4.05 26.2 -4.25 25.85 -4.15 Q26.05 -3.45 25.65 -2.45 L25.6 -2.25 Q26.45 0.4 26.45 2.5 L26.2 6.4 26.1 7.25 26.15 8.7 25.9 9.35 25.9 9.4 25.35 10.45 24.7 11.95 Q24.95 13.45 24.8 15.2 L24.5 16.05 25.55 18.35 25.6 18.45 Q28.3 25.05 28.3 32.95 28.3 35.25 26.95 36.45 L26.65 36.2 26.35 35.6 Q25.45 35.8 25.05 36.75 23.75 40.0 23.65 42.7 24.7 42.95 25.35 42.0 L26.15 40.75 Q25.55 42.35 24.25 43.95 23.75 44.6 23.6 45.6 23.5 46.2 22.85 46.25 21.35 41.65 23.45 36.15 L23.95 35.1 Q23.4 33.65 23.6 31.95 23.7 30.95 24.75 30.65 23.65 25.85 23.5 20.75 L23.25 20.75 Q22.6 20.7 22.2 18.95 21.85 17.6 21.85 16.1 L20.95 14.15 Q20.5 13.05 20.6 11.8 L17.85 10.75 Q14.05 8.85 14.25 5.8 L14.35 5.4 15.05 5.25 Q15.3 5.25 17.9 6.75 L17.6 6.9 17.3 7.2 Q17.15 7.65 17.4 8.0 18.6 10.3 20.65 9.9 20.9 9.4 20.55 8.95 L20.5 8.85 19.95 8.0 M35.05 -25.2 L34.8 -24.45 34.2 -24.4 Q34.15 -24.05 33.35 -23.8 32.8 -23.6 32.55 -24.15 32.5 -24.65 32.85 -25.0 L33.15 -25.15 33.05 -25.6 Q32.3 -27.85 32.8 -30.65 L32.9 -32.7 33.2 -33.0 33.7 -33.2 Q34.85 -31.15 35.05 -28.45 L34.4 -29.3 34.0 -29.15 33.65 -28.9 33.4 -27.9 Q33.05 -25.8 34.4 -24.85 34.85 -24.9 35.05 -25.2 M13.05 -44.9 L15.45 -44.1 15.75 -43.55 Q14.65 -42.2 12.65 -43.1 L12.2 -43.6 12.3 -44.25 Q12.4 -44.85 13.05 -44.9 M6.7 -35.25 L7.95 -36.1 7.7 -36.55 7.0 -36.9 7.8 -37.1 11.55 -36.65 Q12.05 -36.45 12.05 -35.9 10.45 -34.3 7.1 -35.1 L6.7 -35.25 M5.5 -36.7 L4.1 -36.45 Q2.4 -36.1 1.55 -35.1 L1.5 -35.1 2.1 -35.8 Q3.05 -36.5 4.1 -36.85 L4.1 -36.9 5.5 -36.7 M2.3 -33.7 L3.05 -33.8 3.85 -34.0 3.6 -33.9 2.3 -33.7 M12.85 -34.65 Q14.05 -33.85 14.7 -32.4 14.9 -32.0 14.6 -31.6 12.5 -31.25 12.0 -33.5 L11.95 -34.0 12.45 -34.5 12.85 -34.65 M12.85 -2.55 L13.3 -2.15 Q13.7 -2.85 14.45 -3.0 15.15 -3.15 15.65 -2.7 L15.95 -2.2 Q15.65 -1.3 14.9 -0.75 14.7 -0.6 14.45 -0.55 L15.0 1.0 Q15.2 1.7 14.8 2.2 L14.0 2.4 13.35 2.15 Q13.2 0.5 12.25 -0.9 11.85 -1.45 12.1 -2.15 L12.45 -2.4 12.85 -2.55 M17.8 -4.3 L18.4 -3.95 18.6 -3.7 Q18.7 -2.2 17.2 -2.1 16.55 -2.05 16.35 -2.6 16.35 -3.45 17.1 -4.05 L17.8 -4.3 M23.6 -13.7 L23.15 -15.15 22.75 -15.0 22.3 -14.55 22.2 -12.5 22.0 -12.2 21.85 -11.35 Q21.45 -10.1 22.05 -9.3 22.15 -6.5 22.95 -4.1 L22.7 -4.3 22.15 -4.1 21.85 -3.6 21.8 -3.15 Q21.45 -2.9 21.5 -2.5 L21.95 -2.1 21.95 -2.5 Q22.1 -1.9 22.4 -1.4 L22.3 -0.75 Q22.5 -0.25 23.0 -0.35 L23.0 0.45 Q23.15 3.05 24.45 4.7 L25.3 4.15 25.5 4.15 25.95 3.7 Q26.4 2.45 25.3 1.95 25.1 0.7 24.55 -0.3 L24.7 -0.95 Q24.55 -2.7 23.45 -3.75 24.4 -4.4 24.45 -5.75 24.55 -10.1 23.6 -13.65 L23.7 -14.0 23.9 -14.1 23.9 -14.15 23.85 -14.15 23.65 -14.45 23.6 -13.7 M9.35 6.05 L9.15 5.95 8.7 6.15 8.35 6.45 8.25 6.95 Q8.25 7.6 8.8 7.85 8.45 8.9 7.35 9.25 5.6 6.55 7.85 3.1 8.45 2.15 9.4 1.85 L10.0 2.2 10.15 2.35 9.5 5.5 9.35 6.05 M10.05 14.45 L10.05 14.4 10.15 13.2 Q10.25 12.85 10.6 12.75 L11.0 12.6 11.4 13.1 12.3 12.4 Q13.35 15.2 11.1 18.75 10.4 19.8 9.5 18.95 L10.1 16.65 9.95 15.7 Q10.15 16.1 10.75 16.2 L11.35 15.8 Q12.05 14.5 10.75 14.0 10.55 14.05 10.3 14.25 L10.05 14.45 M9.4 21.3 Q11.2 22.8 8.65 23.5 8.05 23.65 7.85 23.1 7.95 22.1 8.8 21.55 L9.4 21.3 M26.6 31.85 Q26.3 31.85 26.05 32.1 25.65 32.45 25.75 32.95 25.95 33.5 26.5 33.3 28.25 32.75 26.6 31.85 M-1.85 -31.2 Q-0.55 -29.95 -1.4 -27.65 -1.65 -27.0 -2.3 -26.9 -3.95 -28.3 -2.65 -30.65 -2.4 -31.2 -1.85 -31.2" fill="#ffffff" fill-opacity="0.6" fill-rule="evenodd" stroke="none"/>
    <path d="M26.95 36.45 L27.2 36.85 27.15 37.35 26.95 37.65 Q27.0 39.1 26.15 40.75 L25.35 42.0 Q24.7 42.95 23.65 42.7 23.75 40.0 25.05 36.75 25.45 35.8 26.35 35.6 L26.65 36.2 26.95 36.45 M17.9 6.75 L18.1 6.7 19.0 7.45 19.95 8.0 20.5 8.85 20.55 8.95 Q20.9 9.4 20.65 9.9 18.6 10.3 17.4 8.0 17.15 7.65 17.3 7.2 L17.6 6.9 17.9 6.75 M35.05 -28.45 Q35.6 -27.3 35.2 -25.6 L35.05 -25.2 Q34.85 -24.9 34.4 -24.85 33.05 -25.8 33.4 -27.9 L33.65 -28.9 34.0 -29.15 34.4 -29.3 35.05 -28.45 M7.0 -36.9 L7.7 -36.55 7.95 -36.1 6.7 -35.25 3.85 -34.0 3.05 -33.8 2.3 -33.7 1.9 -33.8 1.5 -33.65 Q0.95 -33.45 0.75 -34.0 0.65 -34.55 1.05 -34.85 L1.5 -35.1 1.55 -35.1 Q2.4 -36.1 4.1 -36.45 L5.5 -36.7 6.2 -36.9 7.0 -36.9 M21.8 -3.15 L21.85 -3.6 22.15 -4.1 22.7 -4.3 22.95 -4.1 Q22.15 -6.5 22.05 -9.3 21.45 -10.1 21.85 -11.35 L22.0 -12.2 22.2 -12.5 22.3 -14.55 22.75 -15.0 23.15 -15.15 23.6 -13.7 23.6 -13.65 Q24.55 -10.1 24.45 -5.75 24.4 -4.4 23.45 -3.75 24.55 -2.7 24.7 -0.95 L24.55 -0.3 Q25.1 0.7 25.3 1.95 26.4 2.45 25.95 3.7 L25.5 4.15 25.3 4.15 24.45 4.7 Q23.15 3.05 23.0 0.45 L23.0 -0.35 Q22.5 -0.25 22.3 -0.75 L22.4 -1.4 Q22.1 -1.9 21.95 -2.5 L21.9 -2.6 21.8 -3.15 M8.8 7.85 Q8.25 7.6 8.25 6.95 L8.35 6.45 8.7 6.15 9.15 5.95 9.35 6.05 9.75 6.25 9.9 6.4 Q10.15 6.9 9.9 7.45 L9.15 7.95 8.8 7.85 M9.95 15.7 L9.85 15.05 9.95 14.55 10.05 14.45 10.3 14.25 Q10.55 14.05 10.75 14.0 12.05 14.5 11.35 15.8 L10.75 16.2 Q10.15 16.1 9.95 15.7 M26.6 31.85 Q28.25 32.75 26.5 33.3 25.95 33.5 25.75 32.95 25.65 32.45 26.05 32.1 26.3 31.85 26.6 31.85" fill="#ffffff" fill-opacity="0.9019608" fill-rule="evenodd" stroke="none"/>
  </g>
</svg>
