<?xml version="1.0" encoding="UTF-8" standalone="no"?>
<svg xmlns:xlink="http://www.w3.org/1999/xlink" height="187.15px" width="47.35px" xmlns="http://www.w3.org/2000/svg">
  <g transform="matrix(1.0, 0.0, 0.0, 1.0, 11.8, 109.7)">
    <path d="M7.3 -97.8 L7.1 -98.0 7.0 -98.2 7.05 -98.95 7.0 -98.95 Q3.85 -97.65 2.15 -99.6 L1.7 -99.65 Q-0.45 -99.85 -0.8 -101.55 1.65 -102.95 5.2 -102.3 L5.25 -103.15 Q5.3 -103.6 5.75 -103.65 L6.0 -103.55 Q6.45 -104.25 7.25 -104.6 L6.95 -104.75 Q6.4 -105.0 6.4 -105.6 L6.6 -106.2 Q7.0 -106.7 7.5 -106.75 8.45 -106.7 9.1 -106.1 L9.45 -105.5 Q9.25 -104.8 8.85 -104.5 10.05 -101.2 7.7 -100.05 L7.7 -100.0 7.7 -99.7 8.1 -99.85 Q9.15 -99.7 9.15 -98.65 L9.0 -98.0 Q8.4 -97.25 7.75 -97.5 L7.3 -97.8 M8.05 -95.0 L9.8 -95.2 9.8 -95.25 9.9 -95.25 Q9.5 -95.95 9.25 -96.9 9.05 -97.45 9.7 -97.5 L9.7 -97.35 Q10.0 -96.3 10.45 -95.7 L10.35 -95.6 10.15 -95.2 Q10.1 -94.5 10.5 -93.95 L10.85 -93.5 9.35 -92.6 9.65 -92.95 9.55 -93.1 Q8.6 -94.1 7.35 -93.3 L7.7 -94.25 8.05 -95.0 M12.35 -98.45 L12.8 -98.7 13.3 -98.95 Q14.7 -97.0 14.7 -94.0 14.7 -93.25 14.3 -92.5 L14.1 -92.35 14.2 -92.1 13.55 -92.65 12.95 -92.35 12.55 -92.0 12.4 -91.15 Q12.2 -88.65 14.2 -88.25 14.85 -88.55 14.95 -89.25 L15.0 -89.8 Q15.8 -86.85 15.5 -83.7 L14.45 -85.15 13.75 -84.8 13.45 -84.4 13.3 -82.7 Q13.05 -80.15 14.1 -78.55 L13.0 -77.2 Q11.85 -81.3 12.15 -86.7 12.3 -89.6 12.05 -92.5 L11.9 -92.6 11.85 -93.05 Q12.45 -93.05 13.15 -93.8 L13.1 -94.7 12.75 -95.3 13.15 -95.55 Q13.35 -96.3 12.9 -97.0 12.6 -97.5 12.5 -98.35 L12.35 -98.45 M15.9 -78.6 Q17.0 -77.65 16.9 -75.9 L16.55 -75.1 17.4 -71.9 17.45 -71.95 17.9 -72.15 Q18.6 -69.85 18.95 -67.35 22.2 -57.3 19.95 -47.65 L20.0 -47.7 20.3 -47.85 22.0 -47.7 22.15 -47.95 Q22.4 -48.65 23.05 -48.9 L23.4 -49.0 25.1 -48.9 25.9 -48.65 26.0 -48.45 Q26.2 -47.7 26.65 -47.1 L26.7 -46.5 26.45 -46.15 Q25.55 -45.5 24.8 -45.9 L23.15 -45.8 22.75 -45.6 22.95 -44.4 Q22.95 -43.85 22.55 -43.55 20.5 -43.5 20.55 -45.45 L20.0 -45.75 19.85 -46.0 19.7 -46.65 19.65 -46.55 Q18.65 -50.25 18.2 -54.4 L17.65 -54.45 Q17.2 -54.55 16.8 -54.75 L16.5 -59.6 Q15.9 -60.9 15.85 -62.6 L15.95 -63.55 Q13.2 -66.45 12.65 -71.2 12.45 -72.7 14.2 -72.7 L15.8 -72.85 14.85 -75.7 14.1 -75.45 Q13.35 -75.25 13.05 -75.95 13.35 -77.15 14.2 -78.05 L14.1 -78.55 14.75 -77.75 Q15.6 -77.9 15.9 -78.6 M7.65 -91.0 L7.65 -90.5 Q7.65 -89.1 6.35 -88.75 L6.05 -89.25 5.55 -85.95 Q5.4 -84.5 4.05 -84.15 2.05 -86.7 3.45 -90.1 L3.25 -88.55 3.85 -88.5 Q6.0 -89.65 7.65 -91.0 M4.8 -95.5 L4.8 -95.65 5.05 -97.8 5.45 -98.15 6.05 -98.45 6.5 -97.5 6.3 -97.25 Q5.2 -96.75 4.8 -95.5 M27.6 -67.65 L27.25 -69.8 Q26.25 -70.35 26.45 -72.05 L26.6 -72.45 25.15 -76.15 Q24.7 -77.1 25.0 -78.15 L25.4 -78.5 26.0 -78.8 Q30.3 -73.85 30.95 -67.8 32.4 -66.7 32.85 -64.75 33.0 -64.05 32.65 -63.4 L31.6 -63.3 Q31.6 -66.65 28.6 -68.4 L28.6 -68.35 Q28.2 -68.4 27.9 -68.05 L27.6 -67.65 M30.3 -61.0 L29.2 -59.55 Q30.3 -58.7 28.5 -58.1 27.8 -57.85 27.5 -58.55 27.4 -59.2 27.9 -59.6 L28.6 -59.95 29.15 -59.6 27.9 -65.95 28.2 -65.6 Q29.75 -63.9 29.05 -61.6 L29.55 -61.2 Q29.95 -61.0 30.3 -61.0 M19.65 -88.3 L20.4 -87.9 20.6 -87.75 20.4 -85.8 Q22.2 -84.75 20.1 -84.1 L19.75 -84.0 Q19.45 -83.8 19.05 -83.75 17.05 -85.15 18.55 -87.55 19.0 -88.25 19.65 -88.3 M0.45 -95.35 L0.4 -94.75 Q0.15 -93.25 -1.15 -92.8 -2.65 -93.25 -2.3 -94.9 L-1.95 -96.2 Q-2.75 -96.75 -3.1 -97.45 -4.3 -97.9 -4.05 -99.3 L-4.0 -99.95 -3.4 -100.55 -3.1 -100.65 -3.05 -100.7 -2.65 -100.9 -2.55 -100.95 -3.45 -101.75 Q-4.05 -101.85 -4.55 -102.55 L-4.55 -102.6 Q-6.9 -104.4 -9.8 -106.1 -11.35 -107.0 -11.2 -108.9 L-10.6 -109.5 -10.1 -109.7 -3.75 -104.05 -3.5 -104.25 -2.9 -104.5 -3.4 -104.75 Q-3.75 -104.95 -3.7 -105.35 L-3.6 -105.8 Q-3.35 -106.5 -2.6 -106.5 -1.45 -106.8 -0.85 -105.9 L-0.65 -105.3 Q-1.3 -104.1 -2.4 -104.3 -1.65 -103.9 -1.85 -102.85 L-2.0 -102.3 Q-1.7 -101.65 -2.5 -100.95 L-2.3 -101.05 Q-1.55 -101.15 -1.0 -100.6 L-0.75 -100.25 -0.75 -99.85 -1.25 -98.7 -0.8 -98.3 -0.85 -97.85 Q-1.1 -95.55 0.45 -95.35 M4.05 -79.35 Q5.65 -78.75 4.8 -77.1 L4.05 -76.6 Q2.8 -76.85 2.9 -78.05 L3.0 -78.7 3.45 -79.1 4.05 -79.35 M14.1 -70.1 L16.6 -66.95 16.6 -67.55 16.75 -69.3 16.45 -70.6 Q15.55 -70.0 14.1 -70.1 M17.9 -67.75 L17.3 -67.45 16.9 -67.1 Q16.65 -66.2 16.7 -65.35 16.9 -61.8 18.75 -59.55 19.95 -59.85 19.95 -61.1 19.95 -65.05 17.9 -67.75 M6.05 -71.5 Q7.75 -70.4 7.0 -68.1 6.75 -67.45 6.05 -67.35 4.5 -68.1 4.85 -70.15 L5.1 -71.0 5.6 -71.3 6.05 -71.5 M19.05 -45.5 Q20.3 -44.9 20.45 -43.4 L23.5 -39.5 23.55 -39.45 23.7 -39.5 Q25.75 -38.35 23.55 -37.65 22.9 -37.4 22.65 -38.05 20.25 -39.2 18.9 -41.5 18.9 -40.35 17.65 -39.85 L16.8 -39.8 Q15.6 -40.8 16.75 -41.95 L16.8 -42.0 Q16.2 -41.9 15.55 -42.45 L14.85 -38.85 Q14.65 -37.8 13.55 -37.6 11.3 -39.9 13.45 -43.05 13.95 -43.8 14.75 -43.8 L15.1 -43.6 15.1 -43.8 15.15 -44.05 15.55 -44.4 16.15 -44.7 Q17.5 -44.45 17.75 -43.25 L17.7 -42.6 17.5 -42.35 17.6 -42.4 Q18.25 -42.45 18.65 -42.0 L18.5 -42.25 18.05 -42.75 17.95 -43.6 17.95 -43.7 17.85 -44.05 Q17.5 -45.3 18.75 -45.5 L18.85 -45.4 19.05 -45.5 M23.4 -34.85 Q25.15 -33.7 24.25 -31.3 24.05 -30.7 23.4 -30.7 L22.95 -30.95 Q23.05 -29.35 21.85 -28.7 22.95 -27.65 22.25 -25.75 22.0 -25.15 21.35 -25.1 19.85 -25.65 20.2 -27.45 L20.3 -28.3 Q20.45 -28.75 20.9 -28.9 L21.35 -29.1 21.55 -28.95 Q20.45 -32.3 18.4 -35.9 17.55 -37.35 16.25 -38.35 L16.35 -38.75 Q16.45 -39.25 16.95 -39.4 L17.35 -39.5 Q21.0 -37.45 22.3 -33.7 L22.3 -34.05 22.9 -34.7 23.4 -34.85 M3.75 -22.45 L4.5 -22.05 4.7 -21.85 Q5.1 -19.85 3.55 -18.55 L2.35 -18.6 Q1.95 -20.05 2.65 -21.65 3.0 -22.35 3.75 -22.45 M1.45 -17.8 Q2.05 -17.9 2.45 -17.4 L2.75 -17.05 Q2.4 -15.0 0.2 -14.45 -0.35 -14.3 -0.75 -14.8 -0.75 -16.15 0.3 -17.25 0.8 -17.8 1.45 -17.8 M10.95 31.6 Q12.5 33.75 11.0 37.1 10.55 38.05 9.6 37.65 8.75 35.45 9.7 32.7 10.05 31.75 10.95 31.6 M11.25 37.95 Q13.35 39.05 11.15 39.8 10.45 40.0 10.15 39.3 10.1 38.65 10.55 38.25 10.9 37.95 11.25 37.95 M32.95 32.15 Q34.8 32.9 34.5 34.9 L33.85 35.7 Q32.2 35.5 31.85 33.65 31.8 33.25 31.9 32.8 L32.3 32.45 Q32.65 32.2 32.95 32.15 M34.1 38.8 Q36.3 41.8 35.15 46.25 34.8 47.5 33.6 47.2 32.85 44.7 32.9 41.55 L33.0 39.6 Q33.15 39.15 33.6 39.0 L34.1 38.8 M7.5 68.85 Q9.65 72.55 5.9 76.8 4.9 77.95 3.55 77.0 3.95 73.75 5.75 70.25 6.3 69.15 7.5 68.85 M-6.45 -5.95 L-7.5 -4.75 Q-9.5 -2.85 -11.8 -2.2 -10.8 -6.4 -7.4 -11.2 -6.15 -12.95 -3.75 -13.75 L-2.6 -14.05 Q-1.65 -14.25 -1.15 -13.45 L-0.95 -13.05 Q-1.4 -12.4 -2.0 -11.9 L-2.3 -12.05 -2.8 -11.85 -4.05 -10.9 -4.9 -10.7 Q-5.75 -10.55 -6.15 -10.1 L-5.85 -9.3 -6.1 -9.45 Q-6.7 -9.4 -7.2 -8.85 -8.6 -7.35 -7.45 -6.0 L-6.45 -5.95" fill="#ffffff" fill-opacity="0.6" fill-rule="evenodd" stroke="none"/>
    <path d="M7.75 -97.5 Q8.45 -97.0 8.1 -96.55 8.35 -95.9 8.05 -95.0 L7.7 -94.25 7.35 -93.3 Q8.6 -94.1 9.55 -93.1 L9.65 -92.95 9.35 -92.6 7.65 -91.0 Q6.0 -89.65 3.85 -88.5 L3.25 -88.55 3.45 -90.1 Q3.85 -92.7 4.75 -95.4 L4.8 -95.5 Q5.2 -96.75 6.3 -97.25 L6.5 -97.5 6.5 -97.55 Q6.9 -97.8 7.2 -97.85 L7.3 -97.8 7.75 -97.5 M9.7 -97.5 Q9.55 -98.1 9.65 -98.65 9.9 -99.05 10.35 -99.2 L10.7 -99.3 12.0 -98.7 12.35 -98.45 12.5 -98.35 Q12.6 -97.5 12.9 -97.0 13.35 -96.3 13.15 -95.55 L12.75 -95.3 13.1 -94.7 13.15 -93.8 Q12.45 -93.05 11.85 -93.05 11.35 -93.05 10.85 -93.5 L10.5 -93.95 Q10.1 -94.5 10.15 -95.2 L10.35 -95.6 10.45 -95.7 Q10.0 -96.3 9.7 -97.35 L9.7 -97.5 M14.2 -92.1 L15.0 -89.8 14.95 -89.25 Q14.85 -88.55 14.2 -88.25 12.2 -88.65 12.4 -91.15 L12.55 -92.0 12.95 -92.35 13.55 -92.65 14.2 -92.1 M15.5 -83.7 Q16.45 -81.8 16.05 -79.1 L15.9 -78.6 Q15.6 -77.9 14.75 -77.75 L14.1 -78.55 Q13.05 -80.15 13.3 -82.7 L13.45 -84.4 13.75 -84.8 14.45 -85.15 15.5 -83.7 M31.6 -63.3 L31.6 -63.05 Q31.6 -62.05 31.05 -61.3 30.7 -61.05 30.3 -61.0 29.95 -61.0 29.55 -61.2 L29.05 -61.6 Q29.75 -63.9 28.2 -65.6 L27.9 -65.95 27.6 -67.65 27.9 -68.05 Q28.2 -68.4 28.6 -68.35 L28.6 -68.4 Q31.6 -66.65 31.6 -63.3 M-0.8 -98.3 L-0.8 -98.5 -0.2 -99.1 0.3 -99.3 Q1.65 -98.45 1.7 -96.55 1.7 -95.95 1.35 -95.45 L0.45 -95.35 Q-1.1 -95.55 -0.85 -97.85 L-0.8 -98.3 M17.9 -67.75 Q19.95 -65.05 19.95 -61.1 19.95 -59.85 18.75 -59.55 16.9 -61.8 16.7 -65.35 16.65 -66.2 16.9 -67.1 L17.3 -67.45 17.9 -67.75 M18.2 -24.2 Q19.85 -23.4 19.05 -21.45 18.85 -20.9 18.2 -20.85 L17.95 -20.9 Q17.5 -19.2 15.95 -17.95 15.35 -17.45 14.8 -18.05 14.1 -19.65 15.35 -21.2 15.9 -21.95 16.75 -22.1 L17.05 -22.1 17.05 -22.75 17.1 -23.4 Q17.25 -23.8 17.7 -24.0 L18.2 -24.2 M20.5 -9.75 Q21.15 -9.8 21.55 -9.35 L21.8 -8.95 Q20.85 -6.6 19.5 -4.4 18.9 -3.45 18.0 -4.15 17.55 -6.55 18.9 -8.55 19.55 -9.45 20.5 -9.75 M-2.0 -11.9 L-1.55 -11.65 -1.4 -11.45 Q-1.1 -9.35 -3.5 -8.85 -4.45 -8.65 -4.85 -9.5 -4.65 -10.3 -4.05 -10.9 L-2.8 -11.85 -2.3 -12.05 -2.0 -11.9 M-5.85 -9.3 Q-4.25 -8.15 -6.05 -6.25 L-6.45 -5.95 -7.45 -6.0 Q-8.6 -7.35 -7.2 -8.85 -6.7 -9.4 -6.1 -9.45 L-5.85 -9.3" fill="#ffffff" fill-opacity="0.9019608" fill-rule="evenodd" stroke="none"/>
  </g>
</svg>
