<?xml version="1.0" encoding="UTF-8" standalone="no"?>
<svg xmlns:xlink="http://www.w3.org/1999/xlink" height="65.55px" width="97.9px" xmlns="http://www.w3.org/2000/svg">
  <g transform="matrix(1.0, 0.0, 0.0, 1.0, 53.7, 13.5)">
    <path d="M-3.15 23.45 Q15.95 22.25 37.65 35.8 47.5 42.5 42.55 43.45 25.85 51.4 3.35 52.0 -19.25 52.45 -18.9 47.65 -17.7 27.25 -3.15 23.45" fill="url(#gradient0)" fill-rule="evenodd" stroke="none"/>
    <path d="M-44.85 -11.85 L-43.6 -13.5 Q-39.4 -7.2 -37.5 0.1 -42.2 8.3 -50.15 15.7 -53.4 11.95 -53.7 5.8 -53.3 2.9 -52.45 0.3 -50.65 -6.1 -46.25 -10.35 L-45.35 -10.85 -44.85 -11.85" fill="#513c08" fill-rule="evenodd" stroke="none"/>
  </g>
  <defs>
    <radialGradient cx="0" cy="0" gradientTransform="matrix(0.0049, -0.0335, 0.0748, 0.011, 13.6, 44.05)" gradientUnits="userSpaceOnUse" id="gradient0" r="819.2" spreadMethod="pad">
      <stop offset="0.3254901960784314" stop-color="#6b4f09"/>
      <stop offset="0.7215686274509804" stop-color="#191202"/>
    </radialGradient>
  </defs>
</svg>
