<?xml version="1.0" encoding="UTF-8" standalone="no"?>
<svg xmlns:xlink="http://www.w3.org/1999/xlink" height="33.5px" width="54.6px" xmlns="http://www.w3.org/2000/svg">
  <g transform="matrix(1.0, 0.0, 0.0, 1.0, 27.3, 16.75)">
    <path d="M27.3 0.0 Q27.3 6.9 23.15 11.9 18.95 16.75 13.05 16.75 8.45 16.75 4.95 13.85 L3.0 11.9 Q-1.2 6.9 -1.2 0.0 -1.2 -3.4 -0.2 -6.3 0.85 -9.35 3.0 -11.85 7.15 -16.75 13.05 -16.75 18.95 -16.75 23.15 -11.85 27.3 -6.95 27.3 0.0" fill="url(#gradient0)" fill-rule="evenodd" stroke="none"/>
    <path d="M26.2 -4.5 Q26.2 -1.8 24.3 0.05 22.45 1.95 19.75 1.95 17.05 1.95 15.15 0.05 13.3 -1.8 13.3 -4.5 13.3 -7.2 15.15 -9.1 17.05 -10.95 19.75 -10.95 22.45 -10.95 24.3 -9.1 26.2 -7.2 26.2 -4.5" fill="url(#gradient1)" fill-rule="evenodd" stroke="none"/>
    <path d="M-14.75 5.45 Q-13.75 6.65 -14.85 7.3 -15.85 8.0 -18.4 7.75 -20.9 7.5 -23.35 6.5 -25.75 5.55 -26.75 4.35 -27.8 3.15 -26.8 2.45 -25.75 1.75 -23.25 2.0 -20.7 2.25 -18.3 3.25 -15.8 4.25 -14.75 5.45" fill="url(#gradient2)" fill-rule="evenodd" stroke="none"/>
  </g>
  <defs>
    <linearGradient gradientTransform="matrix(0.0045, -0.0168, 0.0197, 0.0053, 13.35, -2.3)" gradientUnits="userSpaceOnUse" id="gradient0" spreadMethod="pad" x1="-819.2" x2="819.2">
      <stop offset="0.0" stop-color="#872f08" stop-opacity="0.2"/>
      <stop offset="0.7333333333333333" stop-color="#311002"/>
    </linearGradient>
    <radialGradient cx="0" cy="0" gradientTransform="matrix(0.0081, 0.0, 0.0, 0.0081, 19.75, -4.5)" gradientUnits="userSpaceOnUse" id="gradient1" r="819.2" spreadMethod="pad">
      <stop offset="0.0" stop-color="#e2d9aa"/>
      <stop offset="0.6823529411764706" stop-color="#cec59b"/>
      <stop offset="0.8352941176470589" stop-color="#cec59b" stop-opacity="0.2"/>
    </radialGradient>
    <radialGradient cx="0" cy="0" gradientTransform="matrix(0.0075, 7.0E-4, 0.0031, 0.0036, -20.8, 4.9)" gradientUnits="userSpaceOnUse" id="gradient2" r="819.2" spreadMethod="pad">
      <stop offset="0.0" stop-color="#e2d9aa" stop-opacity="0.6"/>
      <stop offset="0.6823529411764706" stop-color="#cec59b" stop-opacity="0.2509804"/>
      <stop offset="0.8352941176470589" stop-color="#cec59b" stop-opacity="0.2"/>
    </radialGradient>
  </defs>
</svg>
