<?xml version="1.0" encoding="UTF-8" standalone="no"?>
<svg xmlns:xlink="http://www.w3.org/1999/xlink" height="192.55px" width="33.1px" xmlns="http://www.w3.org/2000/svg">
  <g transform="matrix(1.0, 0.0, 0.0, 1.0, 32.55, 49.05)">
    <path d="M0.55 -48.75 Q-1.15 -43.8 -3.6 -38.7 -6.5 -32.6 -10.25 -26.2 L-12.5 -22.45 Q-16.15 -16.65 -19.15 -10.3 L-19.65 -8.3 Q-22.1 2.3 -25.5 11.9 -26.15 15.15 -26.4 18.4 L-26.45 18.15 -26.15 40.6 Q-24.7 55.75 -21.05 71.7 -20.9 87.3 -25.95 103.85 -26.1 106.5 -25.8 108.95 L-25.5 121.6 Q-25.55 153.35 -29.75 139.1 L-30.95 121.8 -32.45 103.7 Q-32.05 87.9 -28.1 72.05 -28.1 57.0 -32.4 41.75 -32.9 30.5 -31.45 18.95 L-30.95 11.8 Q-29.3 3.25 -25.45 -4.6 L-24.15 -11.25 Q-21.5 -19.95 -16.35 -28.15 L-12.5 -34.75 -9.15 -40.55 Q-6.8 -44.75 -4.65 -49.05 L0.55 -48.75" fill="#ffffff" fill-opacity="0.69803923" fill-rule="evenodd" stroke="none"/>
  </g>
</svg>
