<?xml version="1.0" encoding="UTF-8" standalone="no"?>
<svg xmlns:xlink="http://www.w3.org/1999/xlink" height="63.25px" width="100.75px" xmlns="http://www.w3.org/2000/svg">
  <g transform="matrix(1.0, 0.0, 0.0, 1.0, 70.05, 50.9)">
    <path d="M30.1 4.35 Q-14.6 -11.0 -28.95 11.75 -31.9 8.9 -27.35 -3.0 -19.65 -18.4 1.9 -11.65 19.35 -6.2 30.1 4.35" fill="#dbd39c" fill-rule="evenodd" stroke="none"/>
    <path d="M-50.6 -37.3 L-54.7 -31.25 Q-60.45 -39.85 -64.95 -37.45 L-64.5 -38.75 Q-61.95 -45.7 -56.55 -50.3 -53.9 -47.9 -52.35 -44.6 -50.7 -40.25 -50.6 -37.3" fill="#ece3a8" fill-rule="evenodd" stroke="none"/>
    <path d="M30.1 4.35 Q19.35 -6.2 1.9 -11.65 -19.65 -18.4 -27.35 -3.0 -31.9 8.9 -28.95 11.75 -14.6 -11.0 30.1 4.35 M-50.6 -37.3 Q-50.7 -40.25 -52.35 -44.6 -53.9 -47.9 -56.55 -50.3 -61.95 -45.7 -64.5 -38.75 L-64.95 -37.45 Q-60.45 -39.85 -54.7 -31.25 L-50.6 -37.3" fill="none" stroke="#4b4037" stroke-linecap="round" stroke-linejoin="round" stroke-width="1.2000000000000002"/>
    <path d="M-60.1 -37.65 L-64.6 -39.85 -61.6 -37.75 -61.0 -37.3 M-61.6 -37.75 L-66.1 -38.15 -61.85 -37.4" fill="none" stroke="#4b4037" stroke-linecap="round" stroke-linejoin="miter-clip" stroke-miterlimit="10.0" stroke-width="0.8"/>
  </g>
</svg>
