<?xml version="1.0" encoding="UTF-8" standalone="no"?>
<svg xmlns:xlink="http://www.w3.org/1999/xlink" height="65.2px" width="102.85px" xmlns="http://www.w3.org/2000/svg">
  <g transform="matrix(1.0, 0.0, 0.0, 1.0, 72.15, 50.9)">
    <path d="M30.1 4.35 Q-0.1 17.95 -28.95 11.75 -31.9 8.9 -27.35 -3.0 -19.65 -18.4 1.9 -11.65 19.35 -6.2 30.1 4.35" fill="#dbd39c" fill-rule="evenodd" stroke="none"/>
    <path d="M-62.95 -22.3 Q-67.65 -30.35 -64.5 -38.75 -61.95 -45.7 -56.55 -50.3 -53.9 -47.9 -52.35 -44.6 -50.7 -40.25 -50.6 -37.3 -55.6 -28.8 -62.95 -22.3" fill="#ece3a8" fill-rule="evenodd" stroke="none"/>
    <path d="M30.1 4.35 Q19.35 -6.2 1.9 -11.65 -19.65 -18.4 -27.35 -3.0 -31.9 8.9 -28.95 11.75 -0.1 17.95 30.1 4.35 M-62.95 -22.3 Q-55.6 -28.8 -50.6 -37.3 -50.7 -40.25 -52.35 -44.6 -53.9 -47.9 -56.55 -50.3 -61.95 -45.7 -64.5 -38.75 -67.65 -30.35 -62.95 -22.3" fill="none" stroke="#4b4037" stroke-linecap="round" stroke-linejoin="round" stroke-width="1.2000000000000002"/>
    <path d="M-65.75 -31.1 L-67.55 -30.05 -66.15 -31.6 -68.8 -31.75 -65.8 -32.3 M-65.5 -29.45 L-66.4 -28.15 -65.3 -28.2 M-65.8 -32.0 L-66.15 -31.6" fill="none" stroke="#4b4037" stroke-linecap="round" stroke-linejoin="miter-clip" stroke-miterlimit="10.0" stroke-width="0.8"/>
  </g>
</svg>
