<?xml version="1.0" encoding="UTF-8" standalone="no"?>
<svg xmlns:xlink="http://www.w3.org/1999/xlink" height="346.5px" width="496.85px" xmlns="http://www.w3.org/2000/svg">
  <g transform="matrix(1.0, 0.0, 0.0, 1.0, 248.4, 173.25)">
    <path d="M-134.65 -86.2 Q-43.1 -144.1 16.55 -136.4 40.55 -132.75 65.5 -131.0 49.3 -135.25 34.35 -141.35 97.15 -136.6 154.75 -98.2 161.2 -93.55 165.95 -74.05 167.8 -78.0 165.05 -85.35 177.85 -62.85 178.95 -33.8 97.45 -100.25 3.75 -106.6 -73.65 -112.1 -134.65 -86.2 M80.65 -115.95 Q114.45 -101.95 127.45 -93.45 109.3 -110.4 80.65 -115.95 M99.35 35.45 Q94.4 27.1 88.0 18.0 77.0 2.35 61.6 -15.4 112.0 4.5 200.8 62.85 242.15 91.0 164.75 140.45 124.05 159.85 71.2 159.35 L59.5 159.8 Q75.55 148.9 94.8 148.9 77.7 143.95 60.55 142.85 68.3 135.2 80.05 132.1 68.55 130.0 56.55 130.75 67.95 118.45 81.25 111.55 88.9 111.5 93.85 116.65 96.2 118.2 93.65 124.65 L111.7 102.9 Q116.0 94.8 116.1 84.65 116.2 73.55 111.3 60.05 L98.9 59.4 105.5 46.7 99.35 35.45 M111.3 60.05 Q108.95 53.65 105.5 46.7 108.95 53.65 111.3 60.05" fill="#f1efa7" fill-rule="evenodd" stroke="none"/>
    <path d="M178.95 -33.8 Q177.85 -62.85 165.05 -85.35 167.8 -78.0 165.95 -74.05 161.2 -93.55 154.75 -98.2 97.15 -136.6 34.35 -141.35 49.3 -135.25 65.5 -131.0 40.55 -132.75 16.55 -136.4 -43.1 -144.1 -134.65 -86.2 -73.65 -112.1 3.75 -106.6 97.45 -100.25 178.95 -33.8 203.4 -13.85 226.75 11.5 203.4 -13.85 178.95 -33.8 M-247.8 -26.7 Q-199.45 -86.4 -145.75 -121.7 -74.2 -168.75 6.75 -172.4 261.55 -179.15 226.75 11.5 L230.7 18.0 Q274.1 92.7 207.6 146.45 148.5 176.85 74.0 172.0 66.0 166.45 55.2 162.95 57.3 161.25 59.5 159.8 L71.2 159.35 Q124.05 159.85 164.75 140.45 242.15 91.0 200.8 62.85 112.0 4.5 61.6 -15.4 -67.75 -111.45 -205.45 -10.3 L-223.6 -22.7 -247.8 -26.7 M-134.65 -86.2 Q-184.6 -65.0 -223.6 -22.7 -184.6 -65.0 -134.65 -86.2 M80.65 -115.95 Q109.3 -110.4 127.45 -93.45 114.45 -101.95 80.65 -115.95 M81.25 111.55 L90.45 108.95 101.05 105.95 Q114.85 94.0 116.1 84.65 116.0 94.8 111.7 102.9 L93.65 124.65 Q96.2 118.2 93.85 116.65 88.9 111.5 81.25 111.55 M101.05 105.95 L111.7 102.9 101.05 105.95" fill="#dbd39c" fill-rule="evenodd" stroke="none"/>
    <path d="M-42.2 146.45 L81.25 111.55 Q67.95 118.45 56.55 130.75 68.55 130.0 80.05 132.1 68.3 135.2 60.55 142.85 77.7 143.95 94.8 148.9 75.55 148.9 59.5 159.8 8.65 158.3 -42.2 146.45 M23.15 108.7 Q51.55 63.75 99.35 35.45 L105.5 46.7 98.9 59.4 111.3 60.05 Q116.2 73.55 116.1 84.65 76.95 105.3 23.15 108.7 M79.1 64.75 Q54.7 75.1 48.25 92.6 L63.65 77.8 79.1 64.75 M39.05 135.35 L0.6 141.65 29.3 140.2 Q49.2 135.85 39.05 135.35" fill="#eeaf4c" fill-rule="evenodd" stroke="none"/>
    <path d="M74.0 172.0 Q19.95 168.5 -42.2 146.45 8.65 158.3 59.5 159.8 57.3 161.25 55.2 162.95 66.0 166.45 74.0 172.0 M90.45 108.95 L23.15 108.7 Q76.95 105.3 116.1 84.65 114.85 94.0 101.05 105.95 L90.45 108.95 M79.1 64.75 L63.65 77.8 48.25 92.6 Q54.7 75.1 79.1 64.75 M39.05 135.35 Q49.2 135.85 29.3 140.2 L0.6 141.65 39.05 135.35" fill="#d79e44" fill-rule="evenodd" stroke="none"/>
    <path d="M-134.65 -86.2 Q-73.65 -112.1 3.75 -106.6 97.45 -100.25 178.95 -33.8 203.4 -13.85 226.75 11.5 261.55 -179.15 6.75 -172.4 -74.2 -168.75 -145.75 -121.7 -199.45 -86.4 -247.8 -26.7 M-223.6 -22.7 Q-184.6 -65.0 -134.65 -86.2 M226.75 11.5 L230.7 18.0 Q274.1 92.7 207.6 146.45 148.5 176.85 74.0 172.0 19.95 168.5 -42.2 146.45 L81.25 111.55 90.45 108.95 23.15 108.7 Q51.55 63.75 99.35 35.45 94.4 27.1 88.0 18.0 77.0 2.35 61.6 -15.4 -67.75 -111.45 -205.45 -10.3 M99.35 35.45 L105.5 46.7 Q108.95 53.65 111.3 60.05 116.2 73.55 116.1 84.65 116.0 94.8 111.7 102.9 L101.05 105.95 90.45 108.95" fill="none" stroke="#4b4037" stroke-linecap="round" stroke-linejoin="miter-clip" stroke-miterlimit="3.0" stroke-width="1.2000000000000002"/>
    <path d="M111.2 102.5 L111.25 102.5 Q111.55 102.0 112.05 102.4 112.5 102.85 112.15 103.25 L93.7 124.7 93.55 124.7 93.55 124.55 111.2 102.5" fill="#4b4037" fill-rule="evenodd" stroke="none"/>
  </g>
</svg>
