<?xml version="1.0" encoding="UTF-8" standalone="no"?>
<svg xmlns:xlink="http://www.w3.org/1999/xlink" height="377.55px" width="454.85px" xmlns="http://www.w3.org/2000/svg">
  <g transform="matrix(1.0, 0.0, 0.0, 1.0, 227.4, 188.75)">
    <path d="M49.1 121.7 Q72.1 109.9 86.65 92.5 L79.7 107.55 Q88.8 100.8 93.2 92.5 95.3 99.15 92.2 112.55 100.5 87.3 101.15 69.45 112.0 5.75 48.9 -71.45 -13.4 -147.3 -120.55 -145.4 -53.0 -162.35 -21.8 -155.0 60.05 -133.7 131.65 -62.95 175.15 -22.05 192.2 14.35 198.35 33.25 190.45 66.2 193.7 63.3 196.95 55.15 196.9 76.7 185.45 102.05 190.95 96.45 194.2 96.85 198.95 96.7 189.25 105.6 172.85 126.0 135.55 146.4 143.1 143.5 149.75 144.55 88.5 176.6 34.05 173.25 L34.2 173.05 Q43.95 165.05 58.4 159.7 45.7 157.6 33.0 161.45 45.65 141.35 70.7 133.4 50.9 133.4 32.55 140.4 37.5 128.7 49.1 121.7 M147.6 29.6 Q154.4 45.15 150.45 66.15 146.8 85.4 130.1 105.75 142.1 101.15 158.1 68.95 163.6 60.6 152.1 34.35 L147.6 29.6 M108.0 128.25 L74.2 149.35 Q80.05 150.8 96.45 144.35 107.0 133.35 108.0 128.25" fill="#f1efa7" fill-rule="evenodd" stroke="none"/>
    <path d="M-203.5 -134.0 L-226.8 -135.9 Q-98.8 -224.9 41.75 -162.25 175.7 -109.9 216.95 1.3 263.95 142.3 88.35 179.15 72.4 182.5 54.6 185.0 38.45 185.7 23.8 180.75 L32.8 174.35 34.05 173.25 Q88.5 176.6 149.75 144.55 143.1 143.5 135.55 146.4 172.85 126.0 189.25 105.6 198.95 96.7 194.2 96.85 190.95 96.45 185.45 102.05 196.9 76.7 196.95 55.15 193.7 63.3 190.45 66.2 198.35 33.25 192.2 14.35 175.15 -22.05 131.65 -62.95 60.05 -133.7 -21.8 -155.0 -53.0 -162.35 -120.55 -145.4 -159.15 -144.75 -203.5 -134.0 M86.65 92.5 Q95.45 82.0 101.15 69.45 100.5 87.3 92.2 112.55 95.3 99.15 93.2 92.5 88.8 100.8 79.7 107.55 L86.65 92.5" fill="#dbd39c" fill-rule="evenodd" stroke="none"/>
    <path d="M-69.6 160.95 Q-79.35 154.45 -87.65 146.4 -0.05 146.9 49.1 121.7 37.5 128.7 32.55 140.4 50.9 133.4 70.7 133.4 45.65 141.35 33.0 161.45 45.7 157.6 58.4 159.7 43.95 165.05 34.2 173.05 L34.05 173.25 32.8 174.35 29.8 174.35 Q-21.7 173.95 -69.6 160.95" fill="#eeaf4c" fill-rule="evenodd" stroke="none"/>
    <path d="M54.6 185.0 L27.15 188.2 Q-31.95 186.0 -69.6 160.95 -21.7 173.95 29.8 174.35 L32.8 174.35 23.8 180.75 Q38.45 185.7 54.6 185.0" fill="#d79e44" fill-rule="evenodd" stroke="none"/>
    <path d="M147.6 29.6 L152.1 34.35 Q163.6 60.6 158.1 68.95 142.1 101.15 130.1 105.75 146.8 85.4 150.45 66.15 154.4 45.15 147.6 29.6 M108.0 128.25 Q107.0 133.35 96.45 144.35 80.05 150.8 74.2 149.35 L108.0 128.25" fill="#fbfadd" fill-rule="evenodd" stroke="none"/>
    <path d="M-226.8 -135.9 Q-98.8 -224.9 41.75 -162.25 175.7 -109.9 216.95 1.3 263.95 142.3 88.35 179.15 72.4 182.5 54.6 185.0 L27.15 188.2 Q-31.95 186.0 -69.6 160.95 -79.35 154.45 -87.65 146.4 -0.05 146.9 49.1 121.7 72.1 109.9 86.65 92.5 95.45 82.0 101.15 69.45 112.0 5.75 48.9 -71.45 -13.4 -147.3 -120.55 -145.4 -159.15 -144.75 -203.5 -134.0" fill="none" stroke="#4b4037" stroke-linecap="round" stroke-linejoin="miter-clip" stroke-miterlimit="3.0" stroke-width="1.2000000000000002"/>
  </g>
</svg>
