<?xml version="1.0" encoding="UTF-8" standalone="no"?>
<svg xmlns:xlink="http://www.w3.org/1999/xlink" height="314.15px" width="905.7px" xmlns="http://www.w3.org/2000/svg">
  <g transform="matrix(1.0, 0.0, 0.0, 1.0, 453.4, 157.1)">
    <path d="M-83.95 -119.4 Q1.45 -116.65 88.5 -100.15 249.7 -60.2 289.8 -19.65 373.1 61.1 410.7 155.6 L394.55 154.75 Q196.85 -64.65 53.35 -43.9 -8.25 -35.3 -92.35 0.75 -129.0 16.9 -163.3 27.05 -241.25 35.65 -296.7 28.1 L-296.8 28.05 -296.85 28.0 Q-266.5 26.25 -249.2 1.75 -279.2 7.55 -296.85 -8.15 -255.75 -8.5 -214.7 -27.85 -262.0 -20.95 -306.7 -24.55 L-288.0 -45.55 -214.05 -82.0 Q-150.05 -110.65 -83.95 -119.4" fill="#f1efa7" fill-rule="evenodd" stroke="none"/>
    <path d="M410.7 155.6 Q373.1 61.1 289.8 -19.65 249.7 -60.2 88.5 -100.15 1.45 -116.65 -83.95 -119.4 -36.1 -125.8 12.85 -121.8 376.1 -121.25 426.85 156.45 376.1 -121.25 12.85 -121.8 148.05 -205.9 334.1 -86.2 432.35 -1.2 451.7 156.45 L426.85 156.45 410.7 155.6 M-296.7 28.1 Q-241.25 35.65 -163.3 27.05 L-176.85 30.85 Q-213.85 40.55 -248.15 43.25 -278.7 38.8 -296.7 28.1" fill="#dbd39c" fill-rule="evenodd" stroke="none"/>
    <path d="M-288.0 -45.55 L-306.7 -24.55 Q-262.0 -20.95 -214.7 -27.85 -255.75 -8.5 -296.85 -8.15 -279.2 7.55 -249.2 1.75 -266.5 26.25 -296.85 28.0 L-296.8 28.05 -305.25 26.7 -305.7 26.6 Q-331.05 18.8 -356.4 7.35 -346.25 16.35 -333.35 20.9 -359.35 15.7 -385.65 3.45 L-409.9 -6.85 Q-407.55 -3.35 -402.6 -0.15 -421.55 -7.05 -441.55 -15.35 L-451.7 -23.25 Q-364.85 -8.15 -333.3 -23.25 L-288.0 -45.55 M-332.35 -7.25 Q-349.6 -3.45 -367.0 -6.45 -365.85 -3.3 -345.25 -3.25 L-332.35 -7.25" fill="#eeaf4c" fill-rule="evenodd" stroke="none"/>
    <path d="M-296.8 28.05 L-296.7 28.1 Q-278.7 38.8 -248.15 43.25 -298.6 60.05 -365.55 109.2 -355.05 59.05 -327.55 35.75 -399.05 15.65 -441.55 -15.35 -421.55 -7.05 -402.6 -0.15 -407.55 -3.35 -409.9 -6.85 L-385.65 3.45 Q-359.35 15.7 -333.35 20.9 -346.25 16.35 -356.4 7.35 -331.05 18.8 -305.7 26.6 L-305.25 26.7 -296.8 28.05 M-332.35 -7.25 L-345.25 -3.25 Q-365.85 -3.3 -367.0 -6.45 -349.6 -3.45 -332.35 -7.25 M-248.15 43.25 Q-274.65 45.2 -299.4 42.95 -314.0 39.6 -327.55 35.75 -314.0 39.6 -299.4 42.95 -274.65 45.2 -248.15 43.25" fill="#d79e44" fill-rule="evenodd" stroke="none"/>
    <path d="M-83.95 -119.4 Q-150.05 -110.65 -214.05 -82.0 L-288.0 -45.55 -333.3 -23.25 Q-364.85 -8.15 -451.7 -23.25 L-441.55 -15.35 Q-399.05 15.65 -327.55 35.75 -314.0 39.6 -299.4 42.95 -274.65 45.2 -248.15 43.25 -213.85 40.55 -176.85 30.85 L-163.3 27.05 Q-129.0 16.9 -92.35 0.75 -8.25 -35.3 53.35 -43.9 196.85 -64.65 394.55 154.75 M426.85 156.45 Q376.1 -121.25 12.85 -121.8 -36.1 -125.8 -83.95 -119.4 M451.7 156.45 Q432.35 -1.2 334.1 -86.2 148.05 -205.9 12.85 -121.8 M-248.15 43.25 Q-298.6 60.05 -365.55 109.2 -355.05 59.05 -327.55 35.75" fill="none" stroke="#4b4037" stroke-linecap="round" stroke-linejoin="miter-clip" stroke-miterlimit="3.0" stroke-width="1.2000000000000002"/>
  </g>
</svg>
