<?xml version="1.0" encoding="UTF-8" standalone="no"?>
<svg xmlns:xlink="http://www.w3.org/1999/xlink" height="189.4px" width="39.1px" xmlns="http://www.w3.org/2000/svg">
  <g transform="matrix(1.0, 0.0, 0.0, 1.0, 30.95, 81.2)">
    <path d="M8.15 -80.2 Q5.75 -75.55 2.6 -70.85 -1.05 -65.2 -5.55 -59.3 L-8.25 -55.9 Q-12.5 -50.55 -16.25 -44.65 L-16.85 -42.75 Q-20.0 -32.3 -23.95 -23.0 -24.7 -19.75 -24.85 -16.55 L-24.9 -16.8 -24.5 5.6 Q-22.6 20.7 -17.65 36.6 -17.5 52.05 -24.1 68.6 -24.25 71.3 -23.85 73.6 -23.45 80.6 -23.35 86.25 -23.05 118.05 -27.55 103.8 L-28.85 86.5 -30.55 68.35 Q-29.95 52.6 -24.65 36.95 -24.7 22.05 -30.7 6.95 -31.5 -4.2 -29.9 -15.95 L-29.45 -23.25 Q-27.5 -31.8 -22.85 -39.4 L-21.15 -46.05 Q-17.7 -54.45 -11.35 -62.05 L-6.7 -68.1 -2.6 -73.45 3.0 -81.2 8.15 -80.2" fill="#ffffff" fill-opacity="0.69803923" fill-rule="evenodd" stroke="none"/>
  </g>
</svg>
