<?xml version="1.0" encoding="UTF-8" standalone="no"?>
<svg xmlns:xlink="http://www.w3.org/1999/xlink" height="320.4px" width="685.3px" xmlns="http://www.w3.org/2000/svg">
  <g transform="matrix(1.0, 0.0, 0.0, 1.0, 342.65, 159.8)">
    <path d="M-223.5 17.3 Q-245.6 19.6 -267.65 35.6 -262.0 13.7 -268.35 -8.25 -281.2 17.6 -308.65 45.5 -307.85 20.35 -317.1 10.15 -319.75 28.35 -329.85 39.1 -333.3 14.05 -341.05 2.15 -330.1 -95.2 -196.25 -149.65 56.2 -150.1 210.25 -31.5 241.15 -2.8 254.25 26.55 87.9 -66.6 -111.75 -37.85 -171.65 -30.95 -223.5 17.3" fill="#f1efa7" fill-rule="evenodd" stroke="none"/>
    <path d="M254.25 26.55 Q241.15 -2.8 210.25 -31.5 56.2 -150.1 -196.25 -149.65 -70.25 -181.5 132.6 -107.35 244.05 -60.55 342.05 63.2 L304.75 58.2 Q279.9 40.95 254.25 26.55" fill="#dbd39c" fill-rule="evenodd" stroke="none"/>
    <path d="M-341.05 2.15 Q-333.3 14.05 -329.85 39.1 -319.75 28.35 -317.1 10.15 -307.85 20.35 -308.65 45.5 -281.2 17.6 -268.35 -8.25 -262.0 13.7 -267.65 35.6 -245.6 19.6 -223.5 17.3 -256.6 47.95 -286.4 95.4 L-311.25 159.25 Q-339.45 102.1 -341.95 25.9 -342.4 13.7 -341.05 2.15" fill="#d79e44" fill-rule="evenodd" stroke="none"/>
    <path d="M-223.5 17.3 Q-171.65 -30.95 -111.75 -37.85 87.9 -66.6 254.25 26.55 279.9 40.95 304.75 58.2 M-196.25 -149.65 Q-330.1 -95.2 -341.05 2.15 -342.4 13.7 -341.95 25.9 -339.45 102.1 -311.25 159.25 L-286.4 95.4 Q-256.6 47.95 -223.5 17.3 M342.05 63.2 Q244.05 -60.55 132.6 -107.35 -70.25 -181.5 -196.25 -149.65" fill="none" stroke="#4b4037" stroke-linecap="round" stroke-linejoin="miter-clip" stroke-miterlimit="3.0" stroke-width="1.2000000000000002"/>
  </g>
</svg>
