<?xml version="1.0" encoding="UTF-8" standalone="no"?>
<svg xmlns:xlink="http://www.w3.org/1999/xlink" height="305.75px" width="191.95px" xmlns="http://www.w3.org/2000/svg">
  <g transform="matrix(1.0, 0.0, 0.0, 1.0, 128.35, 121.9)">
    <path d="M-89.6 -117.55 Q-68.05 -126.2 -50.65 -117.55 -58.3 -87.95 -64.7 -57.85 L-72.95 -75.9 Q-87.2 -25.35 -86.15 -47.1 -90.55 -81.5 -89.6 -117.55" fill="#fbfadd" fill-rule="evenodd" stroke="none"/>
    <path d="M-102.65 -8.3 Q-123.6 -63.9 -127.75 -117.5 -107.8 -121.2 -89.6 -117.55 -90.55 -81.5 -86.15 -47.1 -87.2 -25.35 -72.95 -75.9 L-64.7 -57.85 Q-58.3 -87.95 -50.65 -117.55 -19.85 -123.55 5.9 -117.55 L4.95 -38.7 3.9 -40.65 Q5.25 -8.6 -7.25 13.8 -20.75 -18.9 -30.65 -29.6 -27.4 6.45 -38.9 44.25 L-72.85 3.3 -76.35 26.7 -102.65 -8.3" fill="#f1efa7" fill-rule="evenodd" stroke="none"/>
    <path d="M62.6 182.65 L51.25 176.4 Q53.3 179.4 52.8 180.6 L38.35 167.5 Q35.65 165.35 26.05 159.2 16.4 153.05 2.2 143.2 3.4 145.55 2.2 147.6 -4.3 137.45 -10.05 131.6 -53.15 92.05 -82.85 37.2 -94.15 14.3 -102.65 -8.3 L-76.35 26.7 -72.85 3.3 -38.9 44.25 Q-27.4 6.45 -30.65 -29.6 -20.75 -18.9 -7.25 13.8 5.25 -8.6 3.9 -40.65 L4.95 -38.7 Q4.95 -2.6 8.8 34.75 L1.05 23.3 Q7.4 34.95 10.7 51.05 12.6 67.15 15.35 83.5 8.2 73.25 3.1 71.25 L17.9 107.25 Q31.55 140.7 62.6 182.65" fill="#eeaf4c" fill-rule="evenodd" stroke="none"/>
    <path d="M5.9 -117.55 Q15.65 -121.7 24.65 -117.5 19.65 -63.1 22.75 -5.7 L4.95 -38.7 5.9 -117.55" fill="#dbd39c" fill-rule="evenodd" stroke="none"/>
    <path d="M22.75 -5.7 Q23.95 16.7 26.35 39.5 32.2 71.1 40.1 103.15 42.75 113.15 49.5 126.3 47.15 125.35 43.4 118.8 52.0 149.5 62.6 182.65 31.55 140.7 17.9 107.25 L3.1 71.25 Q8.2 73.25 15.35 83.5 12.6 67.15 10.7 51.05 7.4 34.95 1.05 23.3 L8.8 34.75 Q4.95 -2.6 4.95 -38.7 L22.75 -5.7" fill="#d79e44" fill-rule="evenodd" stroke="none"/>
    <path d="M24.65 -117.5 Q19.65 -63.1 22.75 -5.7 23.95 16.7 26.35 39.5 32.2 71.1 40.1 103.15 42.75 113.15 49.5 126.3 47.15 125.35 43.4 118.8 52.0 149.5 62.6 182.65 L51.25 176.4 Q53.3 179.4 52.8 180.6 L38.35 167.5 Q35.65 165.35 26.05 159.2 16.4 153.05 2.2 143.2 3.4 145.55 2.2 147.6 -4.3 137.45 -10.05 131.6 -53.15 92.05 -82.85 37.2 -94.15 14.3 -102.65 -8.3 -123.6 -63.9 -127.75 -117.5" fill="none" stroke="#4b4037" stroke-linecap="round" stroke-linejoin="miter-clip" stroke-miterlimit="3.0" stroke-width="1.2000000000000002"/>
  </g>
</svg>
