<?xml version="1.0" encoding="UTF-8" standalone="no"?>
<svg xmlns:xlink="http://www.w3.org/1999/xlink" height="235.55px" width="420.4px" xmlns="http://www.w3.org/2000/svg">
  <g transform="matrix(1.0, 0.0, 0.0, 1.0, 208.5, 117.8)">
    <path d="M24.05 -111.25 Q71.0 -105.9 112.5 -99.35 97.75 -99.2 86.25 -95.35 109.05 -95.8 133.25 -93.5 155.95 -92.15 178.35 -87.6 165.95 -88.45 161.6 -85.7 190.0 -85.35 203.05 -82.3 L207.9 -81.2 Q215.95 -52.3 207.9 -22.5 191.95 -21.5 175.75 -19.25 L174.15 -19.0 Q-7.25 0.3 -106.05 96.7 L-113.4 103.9 -153.4 63.9 Q-62.8 10.3 33.3 -28.05 L-59.85 -2.55 -59.85 -14.95 Q-105.65 -2.5 -111.65 -19.1 -149.75 6.7 -180.95 36.35 L-207.9 9.4 Q-122.9 -89.75 24.05 -111.25 M164.45 -50.2 Q186.7 -54.9 188.9 -58.25 165.15 -51.0 138.5 -48.95 142.0 -46.05 164.45 -50.2" fill="#f1efa7" fill-rule="evenodd" stroke="none"/>
    <path d="M207.9 -81.2 L203.05 -82.3 Q190.0 -85.35 161.6 -85.7 165.95 -88.45 178.35 -87.6 155.95 -92.15 133.25 -93.5 109.05 -95.8 86.25 -95.35 97.75 -99.2 112.5 -99.35 71.0 -105.9 24.05 -111.25 106.25 -123.25 207.9 -110.95 211.15 -95.65 207.9 -81.2 M-113.4 103.9 L-106.05 96.7 Q-7.25 0.3 174.15 -19.0 L159.9 -16.8 Q16.25 20.15 -100.15 117.15 L-113.4 103.9 M164.45 -50.2 Q142.0 -46.05 138.5 -48.95 165.15 -51.0 188.9 -58.25 186.7 -54.9 164.45 -50.2" fill="#dbd39c" fill-rule="evenodd" stroke="none"/>
    <path d="M-180.95 36.35 Q-149.75 6.7 -111.65 -19.1 -105.65 -2.5 -59.85 -14.95 L-59.85 -2.55 33.3 -28.05 Q-62.8 10.3 -153.4 63.9 L-180.95 36.35" fill="#fbfadd" fill-rule="evenodd" stroke="none"/>
    <path d="M24.05 -111.25 Q-122.9 -89.75 -207.9 9.4 M175.75 -19.25 Q191.95 -21.5 207.9 -22.5 M207.9 -110.95 Q106.25 -123.25 24.05 -111.25 M-100.15 117.15 Q16.25 20.15 159.9 -16.8 L174.15 -19.0" fill="none" stroke="#4b4037" stroke-linecap="round" stroke-linejoin="miter-clip" stroke-miterlimit="3.0" stroke-width="1.2000000000000002"/>
  </g>
</svg>
