<?xml version="1.0" encoding="UTF-8" standalone="no"?>
<svg xmlns:xlink="http://www.w3.org/1999/xlink" height="180.65px" width="322.0px" xmlns="http://www.w3.org/2000/svg">
  <g transform="matrix(1.0, 0.0, 0.0, 1.0, 161.0, 90.35)">
    <path d="M-160.4 -60.0 L-160.4 -89.75 Q-128.85 -85.95 -95.4 -79.8 79.4 -44.1 160.4 89.7 L126.3 86.5 Q96.55 64.65 65.8 48.15 17.15 -0.45 -62.3 -23.95 -87.45 -30.15 -105.95 -28.2 L-86.6 -32.05 Q-79.5 -33.9 -97.9 -43.3 -126.55 -52.25 -160.4 -60.0" fill="#dbd39c" fill-rule="evenodd" stroke="none"/>
    <path d="M-160.4 -60.0 Q-126.55 -52.25 -97.9 -43.3 -79.5 -33.9 -86.6 -32.05 L-105.95 -28.2 Q-87.45 -30.15 -62.3 -23.95 17.15 -0.45 65.8 48.15 -41.25 -9.2 -160.4 -1.3 L-160.4 -60.0" fill="#f1efa7" fill-rule="evenodd" stroke="none"/>
    <path d="M65.8 48.15 Q96.55 64.65 126.3 86.5 M160.4 89.7 Q79.4 -44.1 -95.4 -79.8 -128.85 -85.95 -160.4 -89.75 M-160.4 -1.3 Q-41.25 -9.2 65.8 48.15 Z" fill="none" stroke="#4b4037" stroke-linecap="round" stroke-linejoin="miter-clip" stroke-miterlimit="3.0" stroke-width="1.2000000000000002"/>
  </g>
</svg>
