<?xml version="1.0" encoding="UTF-8" standalone="no"?>
<svg xmlns:xlink="http://www.w3.org/1999/xlink" height="140.1px" width="136.8px" xmlns="http://www.w3.org/2000/svg">
  <g transform="matrix(1.0, 0.0, 0.0, 1.0, -13.4, 3.75)">
    <path d="M122.75 101.3 L122.35 96.1 Q122.8 93.8 123.0 86.9 123.15 79.95 119.2 72.75 119.35 74.9 117.45 75.45 114.9 68.75 111.45 67.25 L110.95 71.55 Q107.75 66.05 102.55 61.35 105.7 68.75 103.25 73.25 97.8 61.45 91.45 56.05 L96.1 78.6 96.7 80.05 Q96.05 83.2 93.0 78.45 L92.6 76.15 Q89.9 57.85 70.35 41.35 68.3 40.4 69.95 55.9 L72.0 60.75 Q75.6 72.65 81.65 80.7 L80.85 71.2 85.9 91.4 Q89.8 100.55 94.7 107.45 L95.05 103.7 99.25 116.9 105.95 130.8 105.7 131.95 Q81.4 100.65 67.8 59.65 L64.55 45.5 64.0 40.7 52.5 23.8 129.45 36.6 Q139.45 8.6 149.6 75.85 142.85 73.4 136.1 58.1 139.4 79.05 136.95 85.4 133.1 81.45 130.85 72.4 129.95 96.2 138.25 116.8 129.5 111.35 122.75 101.3 M107.2 105.45 L103.8 92.15 102.25 82.8 Q110.5 105.65 123.6 128.05 124.9 122.65 125.2 111.05 127.05 122.4 125.1 135.75 114.5 121.0 107.2 105.45 M45.45 49.05 Q46.1 45.25 45.8 41.25 54.75 60.3 67.7 76.15 53.6 66.65 45.45 49.05 M24.15 19.0 L33.7 20.65 Q36.05 31.7 45.05 51.5 L43.65 61.3 24.15 19.0" fill="#cfaf5b" fill-rule="evenodd" stroke="none"/>
    <path d="M105.95 130.8 L99.25 116.9 95.05 103.7 94.7 107.45 Q89.8 100.55 85.9 91.4 L80.85 71.2 81.65 80.7 Q75.6 72.65 72.0 60.75 L69.95 55.9 Q68.3 40.4 70.35 41.35 89.9 57.85 92.6 76.15 L93.0 78.45 Q96.05 83.2 96.7 80.05 L96.1 78.6 91.45 56.05 Q97.8 61.45 103.25 73.25 105.7 68.75 102.55 61.35 107.75 66.05 110.95 71.55 L111.45 67.25 Q114.9 68.75 117.45 75.45 119.35 74.9 119.2 72.75 123.15 79.95 123.0 86.9 122.8 93.8 122.35 96.1 L122.75 101.3 Q124.3 105.95 125.2 111.05 124.9 122.65 123.6 128.05 110.5 105.65 102.25 82.8 L103.8 92.15 107.2 105.45 Q109.05 118.4 105.95 130.8 M52.5 23.8 L64.0 40.7 64.55 45.5 67.8 59.65 67.7 76.15 Q54.75 60.3 45.8 41.25 46.1 45.25 45.45 49.05 L45.05 51.5 Q36.05 31.7 33.7 20.65 L52.5 23.8" fill="#e1be63" fill-rule="evenodd" stroke="none"/>
    <path d="M122.75 101.3 Q129.5 111.35 138.25 116.8 129.95 96.2 130.85 72.4 133.1 81.45 136.95 85.4 139.4 79.05 136.1 58.1 142.85 73.4 149.6 75.85 139.45 8.6 129.45 36.6 M67.8 59.65 Q81.4 100.65 105.7 131.95 L105.95 130.8 Q109.05 118.4 107.2 105.45 114.5 121.0 125.1 135.75 127.05 122.4 125.2 111.05 124.3 105.95 122.75 101.3 M67.7 76.15 L67.8 59.65 M24.15 19.0 L43.65 61.3 45.05 51.5 45.45 49.05 Q53.6 66.65 67.7 76.15 M14.0 -3.15 L24.15 19.0" fill="none" stroke="#1a160c" stroke-linecap="round" stroke-linejoin="miter-clip" stroke-miterlimit="5.0" stroke-width="1.2000000000000002"/>
    <path d="M68.35 59.5 L68.35 59.55 Q68.5 60.05 67.9 60.25 67.3 60.35 67.2 59.75 L64.45 45.5 Q64.35 45.4 64.5 45.4 64.6 45.3 64.6 45.45 L68.35 59.5 M46.0 49.1 L46.0 49.15 Q45.9 49.75 45.3 49.65 44.7 49.45 44.85 48.95 L44.85 48.75 44.9 48.55 44.95 48.45 44.95 48.3 45.35 45.65 45.45 41.1 45.4 40.45 44.45 34.75 44.45 34.6 Q44.35 34.5 44.5 34.5 44.6 34.4 44.6 34.55 L46.1 41.05 46.1 41.4 46.25 46.8 46.15 47.75 46.15 48.15 46.1 48.5 46.1 48.65 46.05 48.75 46.05 48.95 46.0 49.1 M123.3 101.25 L123.35 101.35 Q123.35 101.95 122.7 101.95 122.45 101.95 122.3 101.75 L122.15 101.3 122.25 96.1 122.3 96.0 122.4 96.05 123.3 101.25 M107.75 105.3 Q107.9 105.9 107.3 106.05 106.7 106.15 106.6 105.55 L103.7 92.15 103.75 92.05 103.85 92.1 107.75 105.3" fill="#1a160c" fill-rule="evenodd" stroke="none"/>
  </g>
</svg>
