<?xml version="1.0" encoding="UTF-8" standalone="no"?>
<svg xmlns:xlink="http://www.w3.org/1999/xlink" height="85.55px" width="144.75px" xmlns="http://www.w3.org/2000/svg">
  <g transform="matrix(1.0, 0.0, 0.0, 1.0, 21.55, -13.05)">
    <path d="M102.8 41.3 L110.9 49.4 Q102.15 51.9 93.7 56.35 83.3 61.8 73.4 70.3 L78.05 70.45 Q72.85 74.85 69.35 74.45 72.85 75.85 72.15 76.05 71.35 76.25 67.05 78.05 L66.65 78.25 65.05 78.65 59.7 78.9 56.4 78.3 72.8 90.25 Q66.55 88.15 56.9 87.0 L52.05 85.1 Q28.55 106.95 -3.45 82.35 L-5.6 80.45 Q-7.45 78.4 -5.6 77.7 3.95 72.75 28.55 77.65 24.3 75.8 23.0 73.0 36.55 77.15 51.25 71.9 L45.6 70.6 Q58.35 69.25 64.7 65.7 L60.25 64.85 Q70.45 59.7 77.95 58.45 L78.1 58.4 78.35 58.35 78.5 58.4 78.55 58.35 81.45 57.75 84.0 56.8 88.8 53.9 91.05 51.55 91.15 51.35 91.25 51.25 91.2 51.1 Q98.5 46.4 102.8 41.3 M54.1 35.9 Q63.3 35.4 69.9 32.4 67.0 36.0 63.05 36.95 58.6 38.0 54.1 35.9" fill="#e1be63" fill-rule="evenodd" stroke="none"/>
    <path d="M72.8 90.25 L56.4 78.3 59.7 78.9 65.05 78.65 66.65 78.25 67.05 78.05 Q71.35 76.25 72.15 76.05 72.85 75.85 69.35 74.45 72.85 74.85 78.05 70.45 L73.4 70.3 Q83.3 61.8 93.7 56.35 105.75 58.75 108.6 67.1 109.45 65.55 108.5 60.7 111.7 66.0 116.65 72.15 114.45 67.15 117.35 64.35 122.0 72.1 122.6 77.3 123.2 82.5 120.4 90.0 L109.8 98.6 Q86.25 98.05 79.7 93.5 77.05 91.65 72.8 90.25" fill="#cfaf5b" fill-rule="evenodd" stroke="none"/>
    <path d="M91.2 51.1 L91.25 51.25 91.15 51.35 91.05 51.55 88.8 53.9 84.0 56.8 81.45 57.75 78.55 58.35 78.5 58.4 78.35 58.35 78.1 58.4 77.95 58.45 77.85 58.35 Q77.75 58.25 77.9 58.3 L78.25 58.05 78.35 58.05 78.5 58.0 83.2 55.9 83.5 55.8 87.4 53.6 87.5 53.5 87.65 53.45 90.55 51.45 90.7 51.4 90.8 51.3 91.1 51.1 91.2 51.1" fill="#1a160c" fill-rule="evenodd" stroke="none"/>
    <path d="M102.8 41.3 Q98.5 46.4 91.2 51.1 L91.1 51.1 90.8 51.3 90.7 51.4 90.55 51.45 87.65 53.45 87.5 53.5 87.4 53.6 83.5 55.8 83.2 55.9 78.5 58.0 78.35 58.05 78.25 58.05 77.9 58.3 Q77.75 58.25 77.85 58.35 L77.95 58.45 Q70.45 59.7 60.25 64.85 L64.7 65.7 Q58.35 69.25 45.6 70.6 L51.25 71.9 Q36.55 77.15 23.0 73.0 24.3 75.8 28.55 77.65 3.95 72.75 -5.6 77.7 -7.45 78.4 -5.6 80.45 -13.35 73.4 -16.35 68.55 -25.7 41.7 16.15 20.35 33.4 16.7 54.2 21.9 67.7 23.3 75.15 13.65 L102.8 41.3 M54.1 35.9 Q58.6 38.0 63.05 36.95 67.0 36.0 69.9 32.4 63.3 35.4 54.1 35.9" fill="#f7d373" fill-rule="evenodd" stroke="none"/>
    <path d="M16.15 20.35 Q-25.7 41.7 -16.35 68.55 -21.4 60.5 -20.9 53.9 -14.8 35.0 5.8 23.4 10.75 21.45 16.15 20.35" fill="#f6df9e" fill-rule="evenodd" stroke="none"/>
    <path d="M-5.6 80.45 L-3.45 82.35 M73.4 70.3 Q83.3 61.8 93.7 56.35 102.15 51.9 110.9 49.4 M122.6 77.3 Q122.0 72.1 117.35 64.35 114.45 67.15 116.65 72.15 111.7 66.0 108.5 60.7 109.45 65.55 108.6 67.1 105.75 58.75 93.7 56.35 M75.15 13.65 Q67.7 23.3 54.2 21.9 33.4 16.7 16.15 20.35 10.75 21.45 5.8 23.4 -14.8 35.0 -20.9 53.9 -21.4 60.5 -16.35 68.55 -13.35 73.4 -5.6 80.45" fill="none" stroke="#1a160c" stroke-linecap="round" stroke-linejoin="round" stroke-width="1.2000000000000002"/>
    <path d="M66.65 78.25 L67.05 78.05 Q71.35 76.25 72.15 76.05 72.85 75.85 69.35 74.45 72.85 74.85 78.05 70.45 L73.4 70.3" fill="none" stroke="#1a160c" stroke-linecap="round" stroke-linejoin="miter-clip" stroke-miterlimit="3.0" stroke-width="1.2000000000000002"/>
    <path d="M56.35 78.35 L56.3 78.25 Q56.3 78.1 56.4 78.2 L56.5 78.2 58.0 78.45 59.65 78.6 61.5 78.65 64.2 78.3 64.75 78.15 64.85 78.15 64.9 78.1 64.95 78.1 66.35 77.7 66.45 77.65 66.5 77.65 Q67.05 77.45 67.25 78.05 67.35 78.65 66.8 78.8 L66.7 78.85 65.15 79.15 65.0 79.15 64.8 79.2 63.45 79.35 60.05 79.2 59.6 79.1 57.95 78.8 56.45 78.4 56.35 78.35 M120.45 90.0 L120.35 90.05 120.3 89.95 121.25 86.55 121.35 86.25 122.05 82.2 122.05 81.9 122.1 81.6 122.1 81.35 122.15 80.8 122.15 78.9 122.1 78.5 122.1 78.15 122.05 77.9 122.0 77.35 122.0 77.3 121.95 77.25 Q121.95 76.65 122.55 76.65 L122.95 76.8 123.15 77.2 123.2 79.3 123.15 80.3 122.55 83.8 122.45 84.1 122.4 84.4 122.3 84.7 122.25 85.0 121.9 86.15 120.7 89.5 120.45 90.0" fill="#1a160c" fill-rule="evenodd" stroke="none"/>
  </g>
</svg>
