<?xml version="1.0" encoding="UTF-8" standalone="no"?>
<svg xmlns:xlink="http://www.w3.org/1999/xlink" height="184.0px" width="347.65px" xmlns="http://www.w3.org/2000/svg">
  <g transform="matrix(1.0, 0.0, 0.0, 1.0, 0.6, 0.6)">
    <path d="M317.7 118.55 L324.8 124.3 325.35 124.7 Q335.15 132.4 339.6 140.4 343.25 147.0 345.15 154.65 L345.45 155.9 Q346.45 160.2 346.95 164.95 340.35 169.1 336.7 172.2 L336.15 172.5 336.1 172.5 Q331.75 174.75 320.95 177.4 L314.0 179.05 Q312.4 177.75 310.8 177.15 L310.4 177.0 Q321.05 170.85 321.6 166.5 321.55 161.85 324.15 157.9 326.1 156.75 327.45 155.1 331.5 146.55 318.0 132.0 316.2 136.2 308.7 136.5 304.5 135.55 300.15 130.05 L310.6 119.65 Q310.2 118.05 309.95 116.25 313.45 113.45 317.7 118.55" fill="#cfaf5b" fill-rule="evenodd" stroke="none"/>
    <path d="M314.0 179.05 L313.5 179.15 306.75 180.45 Q291.9 182.85 273.0 182.8 186.85 148.55 140.6 145.45 90.8 137.55 49.1 147.75 14.4 153.05 4.25 105.4 95.2 81.35 191.2 99.35 230.15 96.4 270.1 126.85 267.1 123.05 276.1 127.05 283.6 129.6 283.25 126.55 281.45 112.3 288.95 107.25 L293.5 104.75 Q294.7 106.85 296.65 107.5 L300.4 108.15 Q310.85 108.45 317.7 118.55 313.45 113.45 309.95 116.25 310.2 118.05 310.6 119.65 L300.15 130.05 Q304.5 135.55 308.7 136.5 316.2 136.2 318.0 132.0 331.5 146.55 327.45 155.1 326.1 156.75 324.15 157.9 321.55 161.85 321.6 166.5 321.05 170.85 310.4 177.0 L310.8 177.15 Q312.4 177.75 314.0 179.05 M194.45 41.75 Q210.1 44.6 227.9 52.85 L222.55 52.35 Q230.45 55.5 236.95 60.6 232.0 58.0 231.55 58.9 L250.6 75.65 Q247.2 75.25 242.1 71.05 221.95 51.5 194.45 41.75 M306.8 176.75 L310.4 177.0 306.8 176.75" fill="#e1be63" fill-rule="evenodd" stroke="none"/>
    <path d="M4.25 105.4 Q1.6 93.1 0.6 77.25 -2.35 52.05 9.3 36.7 30.9 20.5 62.15 17.5 L55.0 22.45 Q94.2 13.05 100.85 8.75 L92.15 15.9 Q102.85 11.55 117.95 9.55 L113.65 13.05 Q135.0 6.1 158.1 4.5 204.3 11.9 269.0 65.85 L271.0 67.3 270.95 67.3 Q286.6 79.9 289.7 95.9 L293.5 104.75 288.95 107.25 Q281.45 112.3 283.25 126.55 283.6 129.6 276.1 127.05 267.1 123.05 270.1 126.85 230.15 96.4 191.2 99.35 95.2 81.35 4.25 105.4 M194.45 41.75 Q221.95 51.5 242.1 71.05 247.2 75.25 250.6 75.65 L231.55 58.9 Q232.0 58.0 236.95 60.6 230.45 55.5 222.55 52.35 L227.9 52.85 Q210.1 44.6 194.45 41.75 M89.25 21.35 Q99.9 22.85 106.0 20.85 108.25 20.95 114.7 15.9 103.7 21.15 89.25 21.35 M130.45 12.0 Q136.75 13.3 138.5 12.0 L142.35 9.2 Q138.45 11.9 130.45 12.0" fill="#f7d373" fill-rule="evenodd" stroke="none"/>
    <path d="M9.3 36.7 Q20.15 22.45 43.6 16.7 L87.6 9.85 Q100.4 3.65 114.8 0.0 114.75 1.85 109.5 4.9 L124.2 1.2 124.6 1.1 Q129.85 -0.25 137.35 0.5 129.2 2.0 123.65 6.15 139.35 1.5 158.1 4.5 135.0 6.1 113.65 13.05 L117.95 9.55 Q102.85 11.55 92.15 15.9 L100.85 8.75 Q94.2 13.05 55.0 22.45 L62.15 17.5 Q30.9 20.5 9.3 36.7 M130.45 12.0 Q138.45 11.9 142.35 9.2 L138.5 12.0 Q136.75 13.3 130.45 12.0 M89.25 21.35 Q103.7 21.15 114.7 15.9 108.25 20.95 106.0 20.85 99.9 22.85 89.25 21.35 M124.2 1.2 Q118.15 2.9 115.25 7.35 118.15 2.9 124.2 1.2" fill="#f6df9e" fill-rule="evenodd" stroke="none"/>
    <path d="M317.7 118.55 L324.8 124.3 325.35 124.7 Q335.15 132.4 339.6 140.4 M313.5 179.15 L306.75 180.45 Q291.9 182.85 273.0 182.8 186.85 148.55 140.6 145.45 90.8 137.55 49.1 147.75 14.4 153.05 4.25 105.4 1.6 93.1 0.6 77.25 -2.35 52.05 9.3 36.7 20.15 22.45 43.6 16.7 L87.6 9.85 M124.2 1.2 L124.6 1.1 M270.95 67.3 Q286.6 79.9 289.7 95.9 M310.4 177.0 L310.8 177.15 Q312.4 177.75 314.0 179.05 M310.4 177.0 L306.8 176.75" fill="none" stroke="#1a160c" stroke-linecap="round" stroke-linejoin="round" stroke-width="1.2000000000000002"/>
    <path d="M87.6 9.85 Q100.4 3.65 114.8 0.0 114.75 1.85 109.5 4.9 L124.2 1.2 Q118.15 2.9 115.25 7.35 M124.6 1.1 Q129.85 -0.25 137.35 0.5 129.2 2.0 123.65 6.15 139.35 1.5 158.1 4.5 204.3 11.9 269.0 65.85 L271.0 67.3" fill="none" stroke="#1a160c" stroke-linecap="round" stroke-linejoin="miter-clip" stroke-miterlimit="5.0" stroke-width="1.2000000000000002"/>
    <path d="M310.75 177.7 L310.7 177.7 Q310.45 177.7 310.3 177.5 L310.15 177.1 Q310.15 176.45 310.8 176.55 L320.95 177.3 321.0 177.35 320.9 177.45 310.75 177.7 M289.1 96.1 L289.1 96.05 Q288.9 95.45 289.5 95.3 290.05 95.1 290.25 95.65 L290.25 95.75 290.3 95.8 293.8 104.6 293.75 104.55 293.9 104.75 294.0 105.0 294.15 105.2 294.25 105.4 294.4 105.6 294.9 106.1 295.05 106.3 295.65 106.75 295.85 106.85 296.05 107.0 296.7 107.3 296.85 107.35 296.95 107.35 297.4 107.5 300.4 108.05 300.45 108.15 300.35 108.2 298.35 108.05 296.85 107.75 296.7 107.7 296.6 107.7 295.6 107.3 295.35 107.15 294.95 106.85 294.7 106.7 293.95 105.95 293.8 105.75 293.7 105.65 293.65 105.55 293.2 104.9 293.2 104.85 293.15 104.85 289.1 96.1 M339.05 140.65 Q338.8 140.1 339.3 139.85 339.85 139.6 340.1 140.1 L343.8 148.7 344.15 149.85 345.65 155.7 345.7 155.8 345.75 155.95 347.0 164.65 347.0 164.9 346.95 165.0 Q346.85 165.1 346.85 164.95 L345.2 156.1 342.6 147.95 339.05 140.65" fill="#1a160c" fill-rule="evenodd" stroke="none"/>
  </g>
</svg>
