<?xml version="1.0" encoding="UTF-8" standalone="no"?>
<svg xmlns:xlink="http://www.w3.org/1999/xlink" height="29.8px" width="27.65px" xmlns="http://www.w3.org/2000/svg">
  <g transform="matrix(1.0, 0.0, 0.0, 1.0, 0.5, 0.5)">
    <path d="M26.25 21.3 Q25.75 17.55 23.2 13.2 20.95 10.15 18.0 8.7 12.25 6.85 7.6 3.7 L7.9 3.8 11.1 4.5 Q17.75 5.1 22.4 9.65 26.65 13.8 26.65 18.5 26.65 20.05 26.25 21.3 M4.5 3.1 Q2.9 5.2 0.05 3.55 L0.35 2.15 Q1.2 -2.5 4.5 2.85 L4.5 3.1 M7.5 13.05 Q11.05 13.4 15.75 17.3 17.85 19.1 17.4 20.3 13.4 15.55 7.5 13.05" fill="#eea1b8" fill-rule="evenodd" stroke="none"/>
    <path d="M7.6 3.7 Q12.25 6.85 18.0 8.7 20.95 10.15 23.2 13.2 25.75 17.55 26.25 21.3 L25.15 23.25 Q23.35 25.45 19.8 25.45 18.75 25.45 17.15 24.6 15.25 23.6 13.9 21.95 L13.9 23.0 11.55 19.25 Q9.75 19.35 8.7 20.9 L7.3 18.35 6.9 15.7 Q5.85 16.6 4.95 16.35 3.5 15.15 2.1 12.95 L0.75 9.3 Q-0.1 7.9 0.0 3.5 L0.05 3.55 Q2.9 5.2 4.5 3.1 L4.2 4.15 4.8 2.9 7.6 3.7 M22.3 17.85 L20.35 12.7 12.2 10.05 Q4.95 4.2 4.85 5.45 L5.45 6.6 5.3 6.5 Q5.15 6.45 5.15 7.05 5.15 9.45 12.4 13.05 19.6 16.6 19.25 19.2 18.9 21.75 19.9 21.1 19.95 19.7 20.3 18.8 20.65 17.85 22.85 18.65 23.0 18.0 22.3 17.85 M7.5 13.05 Q13.4 15.55 17.4 20.3 17.85 19.1 15.75 17.3 11.05 13.4 7.5 13.05" fill="#d08da1" fill-rule="evenodd" stroke="none"/>
    <path d="M2.1 12.95 Q3.5 15.15 4.95 16.35 5.85 16.6 6.9 15.7 5.85 18.1 5.3 20.2 L4.9 22.05 Q3.55 18.75 2.9 15.85 L2.1 12.95 M7.3 18.35 L8.7 20.9 Q9.75 19.35 11.55 19.25 L13.9 23.0 Q13.8 26.2 13.15 27.85 L12.15 24.7 10.7 21.1 10.7 21.65 Q9.8 21.75 8.25 26.05 L7.65 20.95 7.3 18.35 M5.45 6.6 L4.85 5.45 Q4.95 4.2 12.2 10.05 L20.35 12.7 22.3 17.85 Q19.95 16.5 18.75 15.05 17.5 13.6 14.05 12.5 10.55 11.4 9.55 9.8 8.4 7.85 5.45 6.65 L5.45 6.6" fill="#ad7485" fill-rule="evenodd" stroke="none"/>
    <path d="M22.3 17.85 Q23.0 18.0 22.85 18.65 20.65 17.85 20.3 18.8 19.95 19.7 19.9 21.1 18.9 21.75 19.25 19.2 19.6 16.6 12.4 13.05 5.15 9.45 5.15 7.05 5.15 6.45 5.3 6.5 L5.45 6.6 5.45 6.65 Q8.4 7.85 9.55 9.8 10.55 11.4 14.05 12.5 17.5 13.6 18.75 15.05 19.95 16.5 22.3 17.85" fill="url(#gradient0)" fill-rule="evenodd" stroke="none"/>
    <path d="M4.8 2.9 L4.2 4.15 4.5 3.1 4.5 2.85 4.8 2.9 4.5 2.85 4.5 2.8 4.8 2.9 4.5 3.1 4.8 2.9" fill="#ee830f" fill-rule="evenodd" stroke="none"/>
    <path d="M6.9 15.7 L7.3 18.35 7.65 20.95 6.9 20.1 Q6.7 19.85 6.9 15.7" fill="#d29984" fill-rule="evenodd" stroke="none"/>
    <path d="M26.25 21.3 Q26.65 20.05 26.65 18.5 26.65 13.8 22.4 9.65 17.75 5.1 11.1 4.5 M0.75 9.3 L2.1 12.95 2.9 15.85 Q3.55 18.75 4.9 22.05 L5.3 20.2 Q5.85 18.1 6.9 15.7 L7.3 18.35 7.65 20.95 8.25 26.05 Q9.8 21.75 10.7 21.65 L10.7 21.1 12.15 24.7 13.15 27.85 Q13.8 26.2 13.9 23.0 L13.9 21.95 Q15.25 23.6 17.15 24.6 18.75 25.45 19.8 25.45 23.35 25.45 25.15 23.25 L26.25 21.3" fill="none" stroke="#1a160c" stroke-linecap="round" stroke-linejoin="miter-clip" stroke-miterlimit="3.0" stroke-width="1.0"/>
    <path d="M11.1 4.5 L7.9 3.8 7.6 3.7 4.8 2.9 4.5 2.8 4.5 2.85 M0.05 3.55 L0.0 3.5 Q-0.1 7.9 0.75 9.3 M0.35 2.15 L0.05 3.55" fill="none" stroke="#1a160c" stroke-linecap="round" stroke-linejoin="round" stroke-width="1.0"/>
    <path d="M4.5 2.85 L4.8 2.9 M4.5 2.85 Q1.2 -2.5 0.35 2.15" fill="none" stroke="#1a160c" stroke-linecap="round" stroke-linejoin="miter-clip" stroke-miterlimit="6.0" stroke-width="1.0"/>
    <path d="M4.8 2.9 L4.5 3.1" fill="none" stroke="#1a160c" stroke-linecap="round" stroke-linejoin="round" stroke-width="0.05"/>
  </g>
  <defs>
    <linearGradient gradientTransform="matrix(0.011, 0.0079, -0.0052, 0.0073, 16.8, 14.2)" gradientUnits="userSpaceOnUse" id="gradient0" spreadMethod="pad" x1="-819.2" x2="819.2">
      <stop offset="0.5137254901960784" stop-color="#66454f"/>
      <stop offset="1.0" stop-color="#2c1e22"/>
    </linearGradient>
  </defs>
</svg>
