<?xml version="1.0" encoding="UTF-8" standalone="no"?>
<svg xmlns:xlink="http://www.w3.org/1999/xlink" height="9.15px" width="10.35px" xmlns="http://www.w3.org/2000/svg">
  <g transform="matrix(1.0, 0.0, 0.0, 1.0, -37.4, -51.1)">
    <path d="M40.8 51.1 Q41.15 51.3 42.9 55.4 L43.35 55.35 Q44.3 54.6 45.25 52.85 L45.4 52.8 45.2 54.7 43.9 56.55 47.35 57.1 47.75 58.0 47.2 58.25 43.2 57.7 Q43.35 59.05 44.05 59.95 L43.9 60.25 Q43.35 60.1 42.25 58.1 40.7 59.65 39.0 59.85 L39.0 59.8 40.1 58.2 Q40.95 58.05 41.5 56.7 L37.4 54.55 37.6 54.15 41.4 55.15 40.7 52.55 Q40.35 50.9 40.8 51.1" fill="#191411" fill-rule="evenodd" stroke="none"/>
  </g>
</svg>
