<?xml version="1.0" encoding="UTF-8" standalone="no"?>
<svg xmlns:xlink="http://www.w3.org/1999/xlink" height="22.6px" width="29.0px" xmlns="http://www.w3.org/2000/svg">
  <g transform="matrix(1.0, 0.0, 0.0, 1.0, 1.0, -2.0)">
    <path d="M21.7 20.8 L21.65 20.85 21.05 20.95 21.0 20.95 Q15.75 21.1 12.5 15.5 11.2 13.85 9.3 13.15 6.7 12.05 4.75 10.25 L4.45 9.95 4.05 9.55 Q2.7 7.85 2.4 5.65 L3.9 7.95 3.9 8.05 Q4.65 8.65 5.0 9.35 5.3 10.0 8.3 10.45 11.3 10.85 15.35 15.4 19.4 19.9 21.7 20.8 M14.2 15.1 L14.05 15.3 Q14.05 15.75 14.55 16.3 L15.5 17.3 16.65 18.45 Q17.5 19.25 17.9 19.25 L18.05 19.15 Q17.9 18.95 16.95 18.25 L15.8 17.15 14.2 15.1 M11.7 12.75 Q11.7 12.3 9.75 11.6 7.8 10.85 7.2 11.0 L7.25 11.15 9.85 11.9 11.55 12.95 11.65 12.9 11.7 12.75" fill="#d08da1" fill-rule="evenodd" stroke="none"/>
    <path d="M4.45 9.95 L4.75 10.25 Q6.7 12.05 9.3 13.15 11.2 13.85 12.5 15.5 15.75 21.1 21.0 20.95 L21.05 20.95 21.65 20.85 21.7 20.8 23.25 20.75 Q23.7 20.7 23.2 19.7 L21.75 16.95 Q20.85 15.2 18.8 13.35 16.7 11.45 14.55 10.55 L11.4 9.25 7.4 6.95 Q11.35 8.95 15.1 8.95 19.6 10.9 22.6 15.1 24.65 17.4 25.55 21.05 L24.35 22.45 Q21.75 22.9 17.35 21.55 14.2 20.35 11.55 16.65 9.05 15.95 4.45 9.95" fill="#cfaf5b" fill-rule="evenodd" stroke="none"/>
    <path d="M21.7 20.8 Q19.4 19.9 15.35 15.4 11.3 10.85 8.3 10.45 5.3 10.0 5.0 9.35 4.65 8.65 3.9 8.05 L3.9 7.95 2.4 5.65 2.15 5.05 4.85 7.8 Q6.1 8.7 7.1 8.55 L7.45 8.35 Q7.25 7.25 5.95 6.45 5.5 6.15 2.8 4.8 4.2 5.0 6.5 6.4 L7.4 6.95 11.4 9.25 14.55 10.55 Q16.7 11.45 18.8 13.35 20.85 15.2 21.75 16.95 L23.2 19.7 Q23.7 20.7 23.25 20.75 L21.7 20.8 M7.6 9.8 Q11.1 9.35 14.5 13.3 18.4 17.9 21.6 20.1 22.45 18.55 19.3 15.4 16.15 12.25 13.85 11.2 L10.55 9.65 Q8.75 8.75 8.15 8.75 L6.8 9.05 Q6.65 9.6 7.6 9.8" fill="#643c48" fill-rule="evenodd" stroke="none"/>
    <path d="M2.4 5.65 Q2.7 7.85 4.05 9.55 L4.45 9.95 Q9.05 15.95 11.55 16.65 14.2 20.35 17.35 21.55 21.75 22.9 24.35 22.45 23.2 23.6 21.85 24.4 16.35 22.85 11.45 19.95 L5.0 14.25 -0.4 10.1 -0.9 9.55 Q-0.55 1.5 5.8 2.4 3.9 2.45 2.9 3.25 6.95 3.5 11.4 5.05 18.1 7.35 20.5 9.9 L24.65 14.85 Q26.7 16.85 27.95 16.1 27.05 18.95 25.55 21.05 24.65 17.4 22.6 15.1 19.6 10.9 15.1 8.95 11.35 8.95 7.4 6.95 L6.5 6.4 Q4.2 5.0 2.8 4.8 L2.15 5.05 2.4 5.65" fill="#e1be63" fill-rule="evenodd" stroke="none"/>
    <path d="M27.95 16.1 Q26.7 16.85 24.65 14.85 L20.5 9.9 Q18.1 7.35 11.4 5.05 6.95 3.5 2.9 3.25 3.9 2.45 5.8 2.4 18.85 1.05 27.95 16.1 M-0.9 9.55 L-0.4 10.1 5.0 14.25 11.45 19.95 Q16.35 22.85 21.85 24.4 6.9 25.2 -0.9 9.55" fill="#f7d373" fill-rule="evenodd" stroke="none"/>
    <path d="M7.6 9.8 Q6.65 9.6 6.8 9.05 L8.15 8.75 Q8.75 8.75 10.55 9.65 L13.85 11.2 Q16.15 12.25 19.3 15.4 22.45 18.55 21.6 20.1 18.4 17.9 14.5 13.3 11.1 9.35 7.6 9.8" fill="url(#gradient0)" fill-rule="evenodd" stroke="none"/>
    <path d="M2.15 5.05 L2.8 4.8 Q5.5 6.15 5.95 6.45 7.25 7.25 7.45 8.35 L7.1 8.55 Q6.1 8.7 4.85 7.8 L2.15 5.05" fill="url(#gradient1)" fill-rule="evenodd" stroke="none"/>
    <path d="M11.7 12.75 L11.65 12.9 11.55 12.95 9.85 11.9 7.25 11.15 7.2 11.0 Q7.8 10.85 9.75 11.6 11.7 12.3 11.7 12.75 M14.2 15.1 L15.8 17.15 16.95 18.25 Q17.9 18.95 18.05 19.15 L17.9 19.25 Q17.5 19.25 16.65 18.45 L15.5 17.3 14.55 16.3 Q14.05 15.75 14.05 15.3 L14.2 15.1" fill="#eea1b8" fill-rule="evenodd" stroke="none"/>
    <path d="M21.8 24.3 L21.9 24.35 21.85 24.45 21.1 24.55 20.85 24.55 20.6 24.6 17.75 24.6 16.2 24.4 15.65 24.35 15.35 24.25 13.85 23.95 11.4 23.1 10.8 22.8 10.65 22.75 10.5 22.65 9.55 22.2 9.25 22.0 9.1 21.95 9.0 21.85 7.8 21.1 5.65 19.35 4.7 18.4 3.7 17.35 3.6 17.2 2.25 15.5 0.55 12.8 -0.7 10.25 -0.95 9.55 -0.9 9.45 Q-0.9 9.4 -0.8 9.5 L0.55 11.75 3.75 16.05 3.85 16.15 4.35 16.7 4.45 16.85 6.3 18.65 8.1 20.1 8.25 20.15 9.65 21.1 9.75 21.15 10.05 21.35 10.9 21.8 11.05 21.85 11.2 21.95 14.7 23.3 14.95 23.35 15.25 23.45 15.5 23.5 15.8 23.6 19.15 24.15 19.95 24.2 21.5 24.25 21.8 24.3 M5.8 2.45 L5.7 2.4 5.75 2.3 6.95 2.1 9.2 2.0 10.1 2.05 12.25 2.35 Q13.45 2.6 14.55 3.0 L16.3 3.75 16.6 3.85 16.75 3.95 16.9 4.0 18.3 4.85 18.6 5.0 20.2 6.15 22.6 8.35 25.8 12.3 26.45 13.25 26.55 13.45 27.15 14.4 28.0 16.0 28.0 16.15 27.85 16.15 26.35 14.05 21.9 9.0 21.5 8.55 18.55 6.2 16.4 4.9 14.2 3.85 12.85 3.35 12.05 3.15 11.8 3.05 9.15 2.6 8.95 2.55 8.7 2.55 8.3 2.5 5.8 2.45" fill="#1a160c" fill-rule="evenodd" stroke="none"/>
  </g>
  <defs>
    <radialGradient cx="0" cy="0" gradientTransform="matrix(0.0042, -0.005, 0.0114, 0.0096, 17.25, 16.65)" gradientUnits="userSpaceOnUse" id="gradient0" r="819.2" spreadMethod="pad">
      <stop offset="0.2980392156862745" stop-color="#643c48"/>
      <stop offset="1.0" stop-color="#d08da1"/>
    </radialGradient>
    <linearGradient gradientTransform="matrix(-0.0023, -0.0023, 0.0016, -0.0016, 4.05, 6.45)" gradientUnits="userSpaceOnUse" id="gradient1" spreadMethod="pad" x1="-819.2" x2="819.2">
      <stop offset="0.0" stop-color="#d08da1"/>
      <stop offset="1.0" stop-color="#e1be63"/>
    </linearGradient>
  </defs>
</svg>
