<?xml version="1.0" encoding="UTF-8" standalone="no"?>
<svg xmlns:xlink="http://www.w3.org/1999/xlink" height="190.25px" width="40.25px" xmlns="http://www.w3.org/2000/svg">
  <g transform="matrix(1.0, 0.0, 0.0, 1.0, 32.65, 88.8)">
    <path d="M-24.65 -23.6 L-24.7 -23.65 -26.4 -1.4 Q-25.25 13.6 -19.75 29.05 -18.4 44.75 -21.2 61.8 L-21.65 67.35 Q-22.15 74.25 -22.75 79.95 -26.65 111.45 -29.3 96.8 L-28.25 79.5 -27.75 61.65 -26.8 29.95 Q-28.0 14.9 -32.6 -0.4 -32.9 -11.55 -29.75 -23.3 L-28.6 -30.6 Q-25.8 -38.75 -19.9 -45.8 L-17.45 -51.85 Q-13.6 -60.15 -8.6 -67.6 -6.85 -70.95 -5.75 -74.25 L-3.15 -80.75 Q-0.8 -84.85 2.45 -88.8 L7.6 -87.85 Q5.2 -83.1 2.3 -78.9 -0.45 -72.8 -2.45 -65.8 -3.4 -63.9 -5.05 -61.95 -9.1 -56.45 -12.6 -50.2 L-13.5 -48.25 Q-18.05 -38.35 -23.2 -29.75 -24.35 -26.7 -24.65 -23.6" fill="#ffffff" fill-opacity="0.69803923" fill-rule="evenodd" stroke="none"/>
  </g>
</svg>
