<?xml version="1.0" encoding="UTF-8" standalone="no"?>
<svg xmlns:xlink="http://www.w3.org/1999/xlink" height="21.3px" width="12.6px" xmlns="http://www.w3.org/2000/svg">
  <g transform="matrix(1.0, 0.0, 0.0, 1.0, -302.5, -119.85)">
    <path d="M310.65 122.6 L310.75 122.8 310.2 122.85 Q309.95 122.85 305.55 120.3 L305.6 119.95 306.3 119.85 Q309.15 119.85 309.85 120.8 L310.65 122.6 M309.15 124.95 L308.35 123.9 Q307.8 123.3 306.8 123.3 L306.3 123.4 306.55 123.5 306.45 123.95 Q306.45 124.3 307.0 124.95 305.85 124.7 304.65 124.1 303.0 123.3 302.55 122.35 L302.55 121.9 Q302.6 121.75 303.25 121.75 308.3 121.75 309.15 124.95 M307.55 125.55 L307.85 125.65 307.95 126.1 307.55 125.55 M308.25 126.7 L309.5 127.0 Q309.15 127.1 308.8 128.2 308.45 129.25 308.45 130.15 308.45 130.65 309.25 131.95 310.0 133.25 310.0 134.4 L309.5 134.8 Q308.8 135.15 308.45 135.45 L308.85 134.9 309.3 133.85 Q309.3 132.75 308.65 132.2 307.85 131.55 307.65 130.5 L308.25 126.7 M310.35 135.6 Q310.35 135.25 310.5 135.05 L310.75 134.8 310.35 135.6 M310.65 126.75 Q311.25 125.9 310.55 125.05 L311.2 125.3 311.45 125.85 311.25 126.5 310.65 126.75 M310.3 124.7 L309.75 124.6 310.0 124.5 Q309.6 124.5 309.5 124.75 309.05 124.45 308.9 123.75 309.1 123.15 309.8 123.05 L310.4 123.35 Q310.8 123.7 310.5 124.7 L310.3 124.7 M313.9 125.8 L314.4 126.65 315.1 128.0 314.45 128.45 Q313.5 127.55 313.35 126.6 L312.9 125.05 313.1 124.4 313.6 124.25 314.15 125.5 313.9 125.8 M312.05 138.65 L311.35 139.65 Q310.9 139.3 310.8 138.4 L311.15 137.75 311.65 137.3 Q312.0 137.4 312.2 137.7 L311.55 137.65 311.15 137.75 311.1 138.4 Q311.1 139.0 311.3 138.95 L311.75 138.8 312.05 138.65 M314.9 140.2 L314.65 140.9 314.0 141.15 313.4 140.9 Q313.1 140.6 313.1 140.2 313.1 139.8 313.4 139.55 313.65 139.25 314.0 139.25 314.35 139.25 314.65 139.55 L314.9 140.2" fill="#ffffff" fill-opacity="0.6" fill-rule="evenodd" stroke="none"/>
    <path d="M307.0 124.95 Q306.45 124.3 306.45 123.95 L306.55 123.5 306.3 123.4 306.8 123.3 Q307.8 123.3 308.35 123.9 L309.15 124.95 309.5 124.75 Q309.6 124.5 310.0 124.5 L309.75 124.6 310.3 124.7 310.55 125.05 Q311.25 125.9 310.65 126.75 L309.8 127.05 309.8 127.2 309.75 130.7 Q309.75 131.25 310.0 131.35 L310.4 131.65 310.65 131.9 Q310.9 132.25 310.95 133.2 L310.75 134.8 310.5 135.05 Q310.35 135.25 310.35 135.6 L308.45 135.45 Q308.8 135.15 309.5 134.8 L310.0 134.4 Q310.0 133.25 309.25 131.95 308.45 130.65 308.45 130.15 308.45 129.25 308.8 128.2 309.15 127.1 309.5 127.0 L308.25 126.7 307.95 126.1 307.85 125.65 307.55 125.55 307.15 125.05 307.0 124.95 M312.2 137.7 L312.3 137.7 312.3 138.3 312.05 138.65 311.75 138.8 311.3 138.95 Q311.1 139.0 311.1 138.4 L311.15 137.75 311.15 137.7 311.15 137.75 311.55 137.65 312.2 137.7" fill="#ffffff" fill-opacity="0.9019608" fill-rule="evenodd" stroke="none"/>
  </g>
</svg>
