<?xml version="1.0" encoding="UTF-8" standalone="no"?>
<svg xmlns:xlink="http://www.w3.org/1999/xlink" height="30.6px" width="23.85px" xmlns="http://www.w3.org/2000/svg">
  <g transform="matrix(1.0, 0.0, 0.0, 1.0, -299.7, -114.65)">
    <path d="M304.85 115.9 Q306.45 116.55 307.2 117.6 L307.15 117.85 Q307.6 118.25 306.6 118.25 306.15 118.25 305.35 117.7 L304.0 116.85 304.9 116.8 304.85 115.9 M301.4 115.9 L301.05 115.25 300.95 114.8 Q300.9 114.65 301.5 114.65 303.8 115.3 302.9 114.9 L302.8 114.8 303.4 114.7 Q304.05 114.7 304.2 115.0 L304.2 115.65 301.4 115.9 M307.95 119.95 L307.7 120.45 Q308.35 121.65 309.35 121.65 L309.9 121.6 310.8 122.85 Q310.0 122.85 305.55 120.3 L305.6 119.9 307.95 119.95 M309.9 121.55 L309.75 121.35 309.55 120.5 309.9 121.55 M307.65 130.3 Q307.3 130.8 306.95 130.0 306.6 129.3 306.6 128.75 L306.85 126.85 307.35 125.35 306.25 124.8 305.0 124.45 304.65 124.5 Q304.9 127.0 304.65 127.45 L304.25 127.55 Q303.35 126.8 302.95 125.65 L302.5 124.0 Q302.05 123.05 301.05 122.05 L299.7 120.55 Q299.9 119.9 300.9 119.9 302.35 119.9 305.35 121.5 L305.9 121.8 302.8 121.3 Q302.2 121.3 302.15 121.55 L302.25 121.8 302.4 122.3 Q302.9 123.05 305.55 123.9 307.75 124.55 307.75 125.9 L307.65 130.3 M307.45 122.5 L309.8 123.05 Q310.95 123.05 311.3 124.4 L311.45 125.85 Q311.45 126.3 310.2 126.9 L310.0 125.35 Q310.0 124.25 308.1 122.9 L307.45 122.5 M309.85 127.55 L310.55 131.55 Q309.9 130.85 309.6 129.6 L309.45 128.4 309.65 127.6 309.85 127.55 M310.7 131.7 Q311.25 131.25 312.2 130.85 L313.4 130.5 313.8 130.9 313.95 131.4 310.7 131.7 M315.65 131.4 Q317.3 131.2 318.5 131.95 319.9 132.75 319.5 134.25 L318.95 134.7 318.2 133.85 316.4 132.85 316.2 131.85 315.65 131.4 M314.1 132.65 L314.1 133.0 313.35 134.7 Q312.55 136.05 312.55 136.95 312.55 137.85 313.55 138.4 314.8 139.05 315.45 143.05 L314.5 143.45 311.45 139.95 Q311.3 140.2 311.55 141.3 L311.85 143.1 Q311.85 144.25 311.25 144.55 310.55 144.65 310.3 144.9 310.2 144.15 310.45 142.55 L310.75 140.4 308.45 135.45 Q308.45 134.85 308.6 134.85 L308.75 134.8 310.2 133.65 310.2 133.85 310.65 135.35 Q311.25 136.9 311.8 137.45 L312.1 137.15 312.15 136.65 Q312.15 136.15 311.8 136.2 311.4 136.2 311.4 135.7 311.4 135.1 311.7 134.4 L312.15 133.25 311.85 132.8 314.0 132.65 314.05 132.45 314.1 132.65 M308.15 135.0 L306.85 133.95 306.5 133.3 307.35 134.05 308.15 135.0 M306.45 133.25 Q306.3 132.85 306.3 132.45 306.3 131.9 306.55 131.5 L307.6 130.4 306.85 132.4 306.45 133.25 M304.7 129.4 L304.55 130.2 304.1 130.5 303.7 130.2 303.5 129.4 303.7 128.65 Q303.85 128.3 304.1 128.3 L304.55 128.65 304.7 129.4 M315.1 128.0 L314.45 128.45 Q313.55 127.85 313.2 126.5 L312.9 125.05 313.05 124.7 Q313.3 124.35 313.6 124.25 L314.6 125.8 315.1 128.0 M314.9 141.45 L313.7 139.9 311.95 138.35 311.7 138.9 313.0 140.65 314.3 142.1 Q314.8 142.0 314.9 141.45 M321.4 139.15 L321.2 139.65 320.7 139.85 Q320.4 139.85 320.2 139.65 L320.0 139.15 320.2 138.65 Q320.4 138.45 320.7 138.45 L321.2 138.65 321.4 139.15 M323.55 143.25 L323.25 143.55 Q321.75 142.6 321.75 141.25 L321.8 140.5 322.0 140.2 Q323.05 140.55 323.4 141.65 L323.55 143.25 M314.5 145.25 L314.1 144.95 Q313.85 144.65 313.85 144.0 L313.9 143.5 314.05 143.55 314.5 143.5 314.6 144.45 314.5 145.25" fill="#ffffff" fill-opacity="0.6" fill-rule="evenodd" stroke="none"/>
    <path d="M304.2 115.65 L304.85 115.9 304.9 116.8 304.0 116.85 302.75 116.85 301.8 116.7 301.5 116.55 301.4 115.9 304.2 115.65 M309.9 121.6 L309.35 121.65 Q308.35 121.65 307.7 120.45 L307.95 119.95 308.75 120.1 309.55 120.5 309.75 121.35 309.9 121.55 309.9 121.6 M305.9 121.8 L307.45 122.5 308.1 122.9 Q310.0 124.25 310.0 125.35 L310.2 126.9 309.85 127.55 309.65 127.6 309.45 128.4 309.6 129.6 Q309.9 130.85 310.55 131.55 L310.7 131.7 313.95 131.4 315.65 131.4 316.2 131.85 316.4 132.85 315.55 132.8 314.55 132.6 314.1 132.65 314.05 132.45 314.0 132.65 311.85 132.8 312.15 133.25 311.7 134.4 Q311.4 135.1 311.4 135.7 311.4 136.2 311.8 136.2 312.15 136.15 312.15 136.65 L312.1 137.15 311.8 137.45 Q311.25 136.9 310.65 135.35 L310.2 133.85 310.2 133.65 308.75 134.8 308.15 135.0 307.35 134.05 306.5 133.3 306.45 133.25 306.85 132.4 307.6 130.4 307.65 130.3 307.75 125.9 Q307.75 124.55 305.55 123.9 302.9 123.05 302.4 122.3 L302.25 121.8 302.15 121.55 Q302.2 121.3 302.8 121.3 L305.9 121.8 M314.9 141.45 Q314.8 142.0 314.3 142.1 L313.0 140.65 311.7 138.9 311.95 138.35 313.7 139.9 314.9 141.45" fill="#ffffff" fill-opacity="0.9019608" fill-rule="evenodd" stroke="none"/>
  </g>
</svg>
