<?xml version="1.0" encoding="UTF-8" standalone="no"?>
<svg xmlns:xlink="http://www.w3.org/1999/xlink" height="55.6px" width="42.45px" xmlns="http://www.w3.org/2000/svg">
  <g transform="matrix(1.0, 0.0, 0.0, 1.0, -286.95, -111.5)">
    <path d="M322.05 140.0 L321.6 140.0 321.45 140.6 323.35 144.1 Q325.0 146.9 326.85 148.35 L327.15 148.0 326.8 146.7 Q327.4 147.3 327.95 148.95 L328.45 150.8 327.2 150.5 327.15 151.0 Q322.8 143.1 319.8 140.25 315.5 136.2 314.1 134.3 L313.8 133.9 Q313.4 134.2 312.95 135.3 L312.55 136.95 Q312.55 137.75 313.75 138.4 315.1 139.15 315.45 143.05 314.85 143.3 313.8 142.4 L311.95 140.45 311.7 139.0 311.3 136.95 Q311.7 135.05 311.35 132.95 312.55 132.55 313.5 132.3 L314.4 131.4 314.5 131.4 Q315.75 135.0 316.7 135.85 L320.55 139.05 321.05 138.55 322.05 140.0 M328.8 153.1 L328.35 152.9 Q328.3 152.75 328.05 152.75 L327.8 153.25 327.35 151.55 327.6 151.8 328.6 152.1 328.8 153.1 M327.9 153.7 Q328.05 154.0 327.8 158.3 327.8 159.3 328.1 158.8 L329.15 158.7 Q328.55 159.45 328.15 159.45 L327.1 159.25 326.9 157.7 Q326.9 157.0 327.15 156.4 L327.9 153.7 M309.2 116.65 L310.55 116.8 Q310.15 117.35 309.2 116.65 M302.2 111.95 L302.4 113.0 Q302.6 113.45 302.9 113.45 L302.9 113.6 302.9 113.7 302.95 113.85 302.75 113.9 302.35 113.9 301.55 113.6 300.2 112.65 300.0 112.3 Q300.35 111.95 302.2 111.95 M302.9 114.9 L302.8 114.8 302.95 114.85 304.7 115.9 303.15 114.7 304.0 114.8 Q307.2 117.6 307.35 118.05 L307.4 118.2 306.8 118.25 Q305.8 118.25 304.85 117.65 303.75 116.95 301.5 116.7 L300.95 114.8 302.15 114.9 303.15 115.1 303.2 115.05 302.9 114.9 M310.4 118.4 Q310.4 118.75 310.0 119.0 L309.05 119.25 308.1 119.0 307.7 118.4 Q307.7 118.05 308.1 117.8 308.5 117.55 309.05 117.55 L310.0 117.8 Q310.4 118.05 310.4 118.4 M311.7 128.2 Q310.9 126.4 309.75 124.75 L308.9 123.25 309.1 122.2 Q309.15 121.9 308.55 121.9 307.95 121.45 304.55 120.35 L303.55 120.4 300.75 120.3 Q301.3 121.4 304.6 122.85 307.5 124.1 308.15 127.2 L309.2 135.05 Q309.5 137.9 311.4 140.55 312.15 144.1 312.15 147.7 311.55 146.75 311.2 146.55 L311.0 146.65 310.95 147.35 Q310.95 149.3 311.35 149.8 L312.15 150.45 312.7 150.1 313.85 152.25 314.6 153.8 312.9 153.9 Q311.7 152.3 311.25 150.8 310.65 148.8 310.8 145.3 310.7 143.9 310.9 144.7 L311.3 145.5 312.0 145.25 Q312.0 143.55 311.1 143.0 L310.65 144.7 310.3 144.9 Q310.65 142.65 308.5 137.45 L306.3 132.45 307.55 130.5 307.0 130.0 Q306.6 129.4 306.6 128.75 306.6 127.6 307.35 125.35 306.1 124.65 305.0 124.45 L304.65 124.5 304.8 126.5 Q304.8 127.4 304.25 127.55 303.15 126.05 302.5 124.0 L301.95 123.1 302.4 125.05 302.7 125.9 302.75 126.35 302.05 126.45 Q300.7 126.45 300.7 126.1 L301.0 125.0 Q301.0 122.5 300.35 121.75 L297.45 119.0 Q297.6 118.65 298.2 118.4 L299.55 118.1 303.65 118.75 308.3 120.0 Q309.85 120.5 310.0 121.2 310.25 122.3 310.8 122.85 L309.55 122.45 310.8 123.8 Q311.45 124.7 311.45 125.95 L312.05 125.55 312.15 125.5 312.3 125.5 312.35 126.1 312.0 127.4 311.7 128.2 M314.4 129.1 L316.3 127.35 316.65 127.35 316.8 128.1 316.5 129.3 315.9 130.95 318.0 131.45 Q319.5 131.95 319.6 133.6 319.45 134.55 318.95 134.7 318.75 134.1 317.65 133.5 L316.35 132.85 Q315.3 130.2 314.4 129.1 M292.35 115.2 L292.15 116.05 291.6 116.4 291.1 116.05 Q290.85 115.7 290.85 115.2 290.85 114.7 291.1 114.35 L291.6 114.0 292.15 114.35 292.35 115.2 M289.15 122.1 L288.0 123.5 287.3 121.8 286.95 120.6 Q286.95 120.15 287.5 119.45 L288.3 118.55 288.55 118.5 Q288.85 119.0 288.65 120.45 L288.3 121.45 288.5 122.1 289.15 122.1 M293.15 119.15 L293.0 119.65 292.6 119.85 Q292.35 119.85 292.2 119.65 L292.05 119.15 Q292.05 118.85 292.2 118.65 292.35 118.45 292.6 118.45 L293.0 118.65 293.15 119.15 M303.4 130.5 L303.05 130.25 303.75 128.85 Q304.3 127.75 304.9 127.55 L305.15 127.55 305.25 127.45 305.3 128.05 Q305.3 129.75 304.4 130.3 L303.4 130.5 M290.9 126.3 L290.75 126.75 290.3 126.9 289.9 126.75 289.7 126.3 289.9 125.9 Q290.05 125.7 290.3 125.7 L290.75 125.9 290.9 126.3 M314.45 128.45 L313.65 126.9 312.9 125.05 313.6 124.25 Q314.55 125.35 314.85 126.45 315.2 127.7 314.45 128.45 M316.8 136.4 L316.95 136.65 316.75 136.15 316.8 136.4 M314.5 145.25 L314.05 144.9 313.85 144.0 313.9 143.4 313.9 143.5 314.0 143.55 Q314.7 143.5 314.5 145.25 M316.95 146.95 L316.7 147.85 316.05 148.2 Q315.7 148.2 315.45 147.85 315.15 147.45 315.15 146.95 315.15 146.45 315.45 146.1 315.7 145.7 316.05 145.7 L316.7 146.1 316.95 146.95 M318.3 152.15 L318.0 152.45 317.35 152.0 Q317.0 151.65 316.5 150.35 L316.75 149.6 317.7 150.75 Q318.3 151.65 318.3 152.15 M315.45 154.35 L315.95 154.5 316.1 155.3 315.9 156.3 Q315.6 156.8 314.6 156.8 L313.2 156.6 313.3 155.4 313.9 156.05 314.75 156.2 Q315.75 156.2 315.45 155.95 L315.45 154.35 M316.8 162.85 L316.85 162.0 317.05 161.65 Q318.6 163.0 318.6 166.0 L318.35 167.1 317.45 167.05 317.2 164.95 316.8 162.85" fill="#ffffff" fill-opacity="0.6" fill-rule="evenodd" stroke="none"/>
    <path d="M326.8 146.7 L327.15 148.0 326.85 148.35 Q325.0 146.9 323.35 144.1 L321.45 140.6 321.6 140.0 322.05 140.0 323.5 141.7 Q323.85 141.85 325.0 143.8 L326.8 146.7 M321.05 138.55 L320.55 139.05 316.7 135.85 Q315.75 135.0 314.5 131.4 L314.4 131.4 313.5 132.3 Q312.55 132.55 311.35 132.95 311.7 135.05 311.3 136.95 L311.7 139.0 311.95 140.45 311.4 140.55 Q309.5 137.9 309.2 135.05 L308.15 127.2 Q307.5 124.1 304.6 122.85 301.3 121.4 300.75 120.3 L303.55 120.4 304.55 120.35 Q307.95 121.45 308.55 121.9 309.15 121.9 309.1 122.2 L308.9 123.25 309.75 124.75 Q310.9 126.4 311.7 128.2 L314.4 129.1 Q315.3 130.2 316.35 132.85 L318.7 135.55 321.05 138.55 M327.15 151.0 L327.2 150.5 328.45 150.8 Q328.7 151.4 328.6 152.1 L327.6 151.8 327.35 151.55 327.15 151.0 M327.8 153.25 L328.05 152.75 Q328.3 152.75 328.35 152.9 L328.8 153.1 Q329.75 157.5 329.15 158.7 L328.1 158.8 Q327.8 159.3 327.8 158.3 328.05 154.0 327.9 153.7 L327.8 153.25 M310.55 116.8 L309.2 116.65 306.7 115.65 Q304.55 114.8 304.0 114.8 L303.15 114.7 302.95 114.85 302.8 114.8 302.9 114.9 Q302.7 114.85 302.7 114.2 L302.75 113.9 302.95 113.85 302.9 113.7 302.9 113.6 303.35 113.6 302.9 113.45 Q302.6 113.45 302.4 113.0 L302.2 111.95 302.45 111.65 303.3 111.5 304.55 111.8 305.5 112.4 Q306.7 112.85 307.7 113.8 310.95 116.4 310.55 116.8 M288.65 120.45 Q289.3 118.85 290.1 118.7 L290.4 118.9 290.55 119.7 289.9 120.9 289.15 122.1 288.5 122.1 288.3 121.45 288.65 120.45 M310.65 144.7 L311.1 143.0 Q312.0 143.55 312.0 145.25 L311.3 145.5 310.9 144.7 Q310.7 143.9 310.8 145.3 L310.65 144.7 M312.9 153.9 L314.6 153.8 315.4 153.7 Q315.45 153.95 315.1 153.85 314.75 153.75 315.45 154.35 L315.45 155.95 Q315.75 156.2 314.75 156.2 L313.9 156.05 313.3 155.4 312.65 154.4 312.7 154.15 312.9 153.9 M312.7 150.1 L312.15 150.45 311.35 149.8 Q310.95 149.3 310.95 147.35 L311.0 146.65 311.2 146.55 Q311.55 146.75 312.15 147.7 312.75 148.95 312.7 150.1" fill="#ffffff" fill-opacity="0.9019608" fill-rule="evenodd" stroke="none"/>
  </g>
</svg>
