<?xml version="1.0" encoding="UTF-8" standalone="no"?>
<svg xmlns:xlink="http://www.w3.org/1999/xlink" height="99.3px" width="100.95px" xmlns="http://www.w3.org/2000/svg">
  <g transform="matrix(1.0, 0.0, 0.0, 1.0, -246.85, -80.15)">
    <path d="M327.65 133.5 L327.5 132.85 Q327.4 132.6 326.8 132.6 326.05 132.6 322.45 129.75 322.65 129.1 322.2 128.55 L321.6 129.05 318.1 126.95 317.45 125.65 316.6 124.4 316.4 125.55 315.0 122.8 315.3 121.35 315.85 120.7 317.95 122.3 319.8 123.6 318.1 125.55 323.4 128.8 Q324.7 129.55 325.1 129.55 325.8 129.55 327.35 131.65 L329.1 134.45 327.65 133.5 M317.9 127.3 L318.6 128.95 318.95 130.0 Q318.95 131.05 317.85 130.7 L317.8 131.65 318.45 132.1 Q318.25 131.65 318.45 131.15 L318.85 130.9 Q319.7 131.15 320.6 132.85 321.45 134.4 321.45 135.1 L320.75 135.3 Q319.4 134.5 319.1 134.55 L318.95 134.7 Q318.4 134.7 317.8 134.1 L316.5 132.95 Q318.25 132.85 318.3 132.2 L317.75 131.95 317.7 132.55 316.95 132.8 Q316.65 132.8 316.45 132.05 316.25 131.3 314.2 131.3 L313.5 131.35 313.55 131.35 313.4 132.0 314.3 133.8 315.8 136.3 313.8 133.9 Q313.3 134.3 312.9 135.6 312.55 136.6 312.55 136.95 L312.75 137.8 313.2 138.05 Q311.75 137.75 311.3 137.3 310.8 136.8 310.8 135.45 L311.1 131.55 311.05 130.45 Q312.55 131.55 313.35 131.55 L313.5 131.55 Q312.6 130.65 312.5 129.9 L312.45 128.5 312.4 128.35 Q312.45 128.2 313.05 128.2 313.55 128.2 313.85 128.65 L314.6 129.1 315.35 128.9 316.6 127.05 316.6 127.3 Q317.2 126.8 317.9 127.3 M316.4 132.95 L320.75 138.1 324.9 143.7 Q323.2 141.9 322.5 141.6 L321.9 141.4 321.4 141.5 321.55 141.75 324.35 145.2 Q326.35 147.5 327.7 148.25 L327.75 148.4 327.65 148.6 Q327.5 148.85 327.5 149.45 327.5 150.65 328.55 153.3 L328.8 153.1 Q330.95 157.7 332.9 159.85 333.6 160.65 333.6 163.3 L332.45 165.95 333.25 168.0 Q334.05 170.25 334.1 171.5 L335.9 170.7 Q335.2 169.55 335.2 168.55 L335.25 167.3 335.55 166.7 Q336.25 167.1 336.95 168.3 L337.75 169.85 338.55 169.35 Q339.5 168.85 340.1 168.85 341.45 168.85 342.65 167.25 343.85 165.65 345.65 165.65 346.65 165.65 346.2 165.9 L346.3 166.25 345.2 167.85 Q345.2 168.95 344.0 169.2 342.4 169.5 341.55 171.4 L341.0 173.05 Q340.55 174.05 339.65 174.0 339.4 176.65 335.15 177.45 L327.75 178.15 320.65 179.45 318.3 177.8 318.55 177.5 318.65 175.95 319.6 175.95 319.25 171.85 319.5 171.3 320.1 171.45 Q320.25 172.4 320.75 172.4 L321.1 173.35 320.1 173.3 320.1 176.65 320.7 177.85 Q320.85 178.3 321.4 178.3 L322.2 178.15 322.35 177.6 321.8 176.0 Q323.95 175.15 325.3 175.3 326.0 175.4 326.3 175.65 327.45 175.65 329.65 173.75 331.95 171.8 331.95 170.35 L329.55 166.55 Q330.45 166.0 330.45 165.0 L329.65 164.4 Q328.7 163.3 328.0 160.75 L327.4 159.35 Q326.9 158.35 326.9 157.7 326.9 157.2 327.4 155.8 L327.9 153.85 Q327.9 151.6 325.8 148.2 L322.1 142.9 Q323.4 147.6 323.4 149.3 L323.4 149.65 322.8 149.7 322.0 147.25 320.1 141.0 321.8 141.2 321.8 141.1 319.1 137.9 Q316.35 134.7 315.15 132.8 L316.4 132.95 M319.1 170.9 Q318.65 169.85 317.35 165.85 L314.75 158.55 Q315.15 158.95 315.55 158.95 L315.6 158.55 Q314.65 155.15 312.75 153.7 L311.45 151.25 311.2 150.65 311.1 153.45 310.9 153.8 310.35 154.05 Q309.8 152.35 309.5 149.7 L310.35 144.95 309.9 141.7 Q309.45 138.8 309.15 139.15 L309.2 139.35 308.65 139.45 Q307.5 139.45 307.15 137.7 307.0 136.9 307.25 136.1 L307.5 134.95 Q307.45 134.25 307.0 133.55 L306.4 132.7 306.55 132.5 306.75 131.65 306.45 130.55 306.1 130.15 305.35 130.2 304.7 130.1 304.05 134.05 Q303.55 136.6 302.55 137.5 L302.4 137.45 Q302.9 136.35 302.9 134.5 L302.5 132.85 302.1 131.2 Q302.1 130.5 302.6 130.0 L303.4 129.25 302.65 129.35 Q300.4 127.65 300.5 126.9 301.05 126.0 301.05 125.05 301.05 124.0 300.25 123.1 L299.3 122.4 Q298.75 122.4 298.95 122.85 L299.1 123.5 298.0 121.05 297.45 119.3 297.75 117.45 297.8 115.85 298.8 115.9 299.25 115.65 300.2 117.3 300.2 117.95 Q299.65 117.95 299.25 118.25 299.85 119.6 305.25 123.25 L304.95 123.95 304.9 124.5 304.65 124.5 Q304.75 125.95 305.0 126.85 L305.25 127.45 305.9 128.75 306.7 128.6 306.8 127.6 307.8 127.8 308.3 127.75 308.3 127.25 306.45 124.25 307.45 125.45 308.3 127.25 309.35 134.95 Q310.55 140.9 313.5 140.9 314.05 140.9 314.55 141.35 L315.3 141.75 Q316.2 142.95 315.2 142.95 315.7 142.95 316.3 144.45 L316.95 146.95 316.6 147.75 316.05 148.2 Q314.85 147.5 313.4 144.2 312.0 140.85 311.5 140.55 L311.4 140.0 Q310.8 139.9 310.35 140.95 310.45 142.65 310.8 143.95 311.2 145.25 312.15 147.35 L312.55 148.8 311.85 148.6 311.85 149.3 Q312.25 151.0 312.55 151.4 L312.95 151.35 313.2 151.1 315.1 154.2 Q315.15 154.6 315.5 155.2 315.9 155.95 315.9 156.45 L316.1 157.8 Q316.5 159.2 317.5 160.25 L316.5 159.85 316.1 159.7 316.1 159.65 316.05 160.35 317.45 162.55 Q318.95 164.75 319.8 165.15 L320.5 167.3 319.75 167.3 Q319.3 167.35 319.1 167.55 319.55 169.25 319.1 170.9 M297.1 115.1 L296.0 115.1 294.25 114.7 295.35 113.95 Q295.05 113.25 293.5 113.25 L294.85 113.1 Q294.75 112.7 295.0 112.25 292.45 111.25 292.2 110.7 L292.2 110.45 292.95 110.3 297.9 110.8 Q300.2 111.35 300.3 112.2 L301.8 111.75 303.3 111.5 306.65 113.7 310.75 116.9 310.8 117.0 310.4 117.05 304.0 114.8 307.4 118.25 306.65 118.15 307.4 119.15 Q305.7 118.3 304.9 118.3 L303.35 119.4 301.9 118.15 300.9 117.0 302.55 116.95 301.5 116.7 300.95 114.8 302.15 114.5 302.9 114.55 300.1 112.4 297.35 112.65 297.3 113.15 296.75 113.55 296.75 113.75 Q296.65 114.3 297.1 115.1 M293.1 114.8 Q292.55 114.8 292.1 115.75 291.65 116.65 291.65 118.0 291.2 117.85 290.8 118.0 L290.4 118.4 Q290.85 119.3 292.0 119.95 L292.1 120.6 290.85 122.25 Q289.9 123.35 289.15 122.15 L288.0 123.5 286.95 120.6 Q286.95 120.1 287.45 119.9 L287.9 119.15 287.2 116.8 286.5 114.2 286.45 114.1 Q285.4 113.0 284.35 112.7 L282.75 112.5 284.55 112.2 Q285.95 111.85 286.0 111.6 L285.6 111.15 285.3 110.95 283.8 110.9 Q281.3 110.9 280.35 112.0 L277.55 111.9 277.1 111.25 279.65 109.55 Q280.15 109.55 280.3 110.15 L285.65 110.65 285.55 110.15 285.7 109.25 286.35 109.15 287.1 109.35 287.3 108.9 285.2 108.2 Q283.85 107.8 282.75 107.05 L281.6 106.05 281.8 105.6 285.45 106.25 Q287.4 106.55 288.8 108.25 288.55 107.65 288.65 107.2 288.75 106.8 288.95 106.7 L289.95 107.0 290.15 108.2 289.95 108.65 289.5 108.9 289.15 108.95 288.75 110.2 288.3 111.85 Q288.0 112.75 288.0 113.3 L288.5 116.0 289.4 119.45 Q288.9 113.4 289.4 112.15 L289.85 112.85 Q289.95 110.1 290.5 109.75 L291.45 110.1 291.6 110.45 291.6 111.1 291.35 113.45 291.35 113.65 291.25 114.55 293.1 114.8 M292.25 118.65 L293.05 118.45 293.15 119.15 293.15 119.7 293.0 119.65 292.6 119.85 Q292.25 118.7 292.25 119.45 L292.25 118.65 M309.45 121.3 Q310.7 122.55 310.4 122.75 310.3 122.6 310.3 122.85 310.3 123.5 309.85 124.15 L308.25 122.9 308.85 122.9 Q309.2 122.65 309.45 121.3 M312.1 125.55 L312.3 125.5 312.1 126.85 311.7 128.2 312.25 128.45 311.15 128.7 312.1 125.55 M329.65 135.45 L332.4 139.4 332.25 139.9 333.45 141.15 Q333.85 141.5 332.65 141.3 L334.3 144.85 336.05 148.9 335.4 149.35 Q330.9 141.7 330.9 140.55 L330.95 139.85 331.0 139.85 Q331.45 139.45 331.95 139.65 331.85 138.9 330.8 137.2 L329.65 135.45 M329.45 137.7 L328.85 136.6 Q328.0 135.1 328.05 134.7 L328.45 134.55 328.55 134.55 Q329.05 136.85 329.45 137.7 M347.8 172.35 L347.8 172.45 347.1 172.5 346.15 172.3 345.75 171.85 344.85 170.4 Q345.0 170.05 346.4 171.0 347.85 171.95 347.8 172.35 M336.1 150.7 L335.9 151.55 335.4 151.85 Q335.1 151.85 334.9 151.55 L334.7 150.7 334.9 149.9 Q335.1 149.55 335.4 149.55 L335.9 149.9 336.1 150.7 M329.1 158.3 L329.3 158.15 329.1 155.45 Q328.55 154.3 328.2 155.9 L327.95 157.8 328.05 158.5 328.25 158.5 329.1 158.3 M329.25 158.35 L329.15 158.35 329.1 159.0 329.2 161.9 329.35 162.2 330.15 162.5 Q330.7 162.5 330.6 162.0 330.5 161.45 330.75 161.35 L331.2 161.6 331.35 162.5 331.1 163.2 330.4 163.1 330.7 164.55 Q332.35 160.9 332.0 160.6 330.6 160.25 329.25 158.35 M335.7 165.0 L335.45 165.9 Q335.15 166.25 334.75 166.25 334.35 166.25 334.1 165.9 333.8 165.5 333.8 165.0 333.8 164.5 334.1 164.15 334.35 163.75 334.75 163.75 335.15 163.75 335.45 164.15 L335.7 165.0 M331.65 175.65 L331.9 175.55 Q330.9 175.9 332.7 174.85 L336.6 172.4 Q334.3 172.25 333.6 171.65 L332.8 170.2 332.65 170.55 Q331.95 173.35 330.5 174.6 329.25 175.35 329.25 175.65 329.25 176.65 331.65 175.65 M339.3 173.25 Q339.6 173.9 339.55 173.35 L340.1 172.3 340.7 171.25 340.6 170.8 Q338.85 170.95 338.8 171.7 L339.3 173.25 M257.9 84.2 L255.7 82.5 Q254.65 81.75 253.95 81.75 L253.35 81.8 253.4 82.0 253.6 82.45 253.85 82.75 252.85 82.55 252.6 81.75 252.5 81.3 Q252.5 81.1 253.1 81.1 253.45 81.1 254.95 81.95 256.9 83.0 257.9 84.2 M325.8 177.45 L325.35 176.95 324.3 176.75 323.25 176.95 Q322.8 177.15 322.8 177.45 L323.25 177.95 324.3 178.15 325.35 177.95 325.8 177.45 M255.15 83.95 L256.9 85.45 Q256.2 85.45 255.7 85.0 255.15 84.55 255.15 83.95 M264.3 95.0 L264.15 95.15 Q263.4 94.55 259.65 88.65 L259.8 87.85 260.1 87.7 Q260.95 88.45 262.6 91.05 264.45 94.0 264.3 95.0 M273.35 101.6 L271.8 101.05 270.35 100.8 265.25 96.4 265.25 96.5 264.85 96.45 Q264.2 96.45 264.15 96.25 L264.15 95.8 Q264.5 94.8 265.9 94.8 L266.3 95.25 267.6 97.45 Q268.0 98.1 270.5 99.3 L274.0 100.85 Q273.75 100.85 273.55 101.1 L273.35 101.6 M276.4 102.65 Q277.0 103.7 278.1 103.7 L279.15 103.85 Q280.0 104.15 281.4 105.35 L280.55 105.4 Q280.9 105.6 279.9 105.6 L279.1 105.65 279.05 104.9 Q279.05 104.3 277.75 103.8 L275.8 103.1 276.25 103.0 276.4 102.65 M306.9 114.2 L306.5 113.8 305.5 113.6 304.5 113.8 Q304.1 113.95 304.1 114.2 L304.5 114.65 305.5 114.8 306.5 114.65 306.9 114.2 M310.4 118.4 Q310.4 118.75 310.0 119.0 L309.05 119.25 308.1 119.0 307.7 118.4 Q307.7 118.05 308.1 117.8 308.5 117.55 309.05 117.55 L310.0 117.8 Q310.4 118.05 310.4 118.4 M315.5 120.1 L315.5 120.15 313.3 120.05 313.0 119.3 312.5 118.15 312.9 117.55 315.5 120.1 M314.45 128.45 L313.85 127.15 Q313.6 127.55 312.85 127.55 312.65 127.1 312.75 126.15 L313.25 124.7 312.0 122.85 312.35 122.05 Q314.35 122.95 314.65 124.8 L314.45 128.45 M287.45 105.1 L287.35 105.75 286.3 105.65 286.4 105.5 287.3 104.75 287.45 105.1 M286.65 110.75 Q286.25 111.15 286.35 112.75 L286.4 112.9 287.15 114.6 287.8 114.3 288.0 111.65 287.75 110.1 Q287.1 110.3 286.65 110.75 M292.0 108.45 L291.8 109.0 291.2 109.2 Q290.85 109.2 290.65 109.0 L290.4 108.45 290.65 107.95 Q290.85 107.7 291.2 107.7 L291.8 107.95 292.0 108.45 M289.65 126.7 L290.0 126.2 290.4 125.8 290.9 124.9 291.15 124.9 Q291.75 124.9 291.9 124.2 L292.2 123.25 292.45 123.2 292.55 123.35 292.65 124.2 Q292.65 126.55 291.95 129.45 L290.95 128.1 289.65 126.7 M303.05 114.9 Q303.05 115.9 304.7 115.9 L302.95 114.6 303.05 114.9 M298.55 124.25 L298.3 125.4 Q298.05 125.85 297.7 125.85 297.35 125.85 297.1 125.4 296.85 124.9 296.85 124.25 296.85 123.6 297.1 123.15 297.35 122.65 297.7 122.65 L298.3 123.15 298.55 124.25 M301.65 135.45 Q301.5 135.45 301.3 135.3 301.65 136.2 300.65 136.2 300.15 136.2 299.65 135.05 L299.25 133.75 299.3 132.95 299.35 133.2 299.45 127.0 299.9 126.55 Q300.6 127.7 301.65 135.45 M295.25 126.25 L295.45 124.55 295.55 124.3 295.75 124.05 297.0 128.9 297.95 133.7 Q296.25 134.45 295.7 132.6 295.25 131.15 295.25 126.25 M284.75 124.35 L284.65 124.95 284.05 125.05 281.45 123.35 279.6 121.95 279.65 121.7 279.65 121.5 280.25 121.45 282.25 122.45 Q284.25 123.55 284.75 124.35 M301.0 141.3 L301.15 142.6 300.2 142.85 Q299.9 142.7 299.65 141.75 L299.4 140.05 Q299.4 139.7 299.75 138.45 300.2 136.9 300.7 136.4 L300.95 136.3 301.0 138.15 300.95 140.45 300.95 140.85 300.8 140.6 300.3 140.4 299.8 140.6 299.6 141.1 299.8 141.6 300.3 141.8 Q300.6 141.8 300.8 141.6 L301.0 141.3 M299.8 146.65 L299.8 144.75 300.45 144.35 Q301.15 144.55 301.0 146.3 L300.45 146.35 299.8 146.65 M321.8 124.3 L321.55 124.75 320.95 124.95 Q320.6 124.95 320.35 124.75 L320.1 124.3 320.35 123.85 Q320.6 123.65 320.95 123.65 L321.55 123.85 321.8 124.3 M275.3 111.3 L275.1 111.85 274.55 112.05 Q274.25 112.05 274.05 111.85 L273.8 111.3 274.05 110.8 Q274.25 110.55 274.55 110.55 274.85 110.55 275.1 110.8 L275.3 111.3 M279.3 106.6 L279.05 107.2 278.4 107.45 277.8 107.2 Q277.5 106.95 277.5 106.6 277.5 106.25 277.8 106.0 278.05 105.75 278.4 105.75 L279.05 106.0 279.3 106.6 M267.4 109.8 L268.0 109.55 268.35 108.95 268.0 108.35 Q267.65 108.1 267.15 108.1 L266.3 108.35 Q265.95 108.6 265.95 108.95 L266.1 109.4 264.2 108.75 Q259.55 107.25 258.6 107.4 L258.2 106.5 258.3 106.15 259.05 105.95 265.2 107.15 Q270.05 108.4 271.8 109.9 271.35 109.55 270.7 109.55 L269.85 109.75 269.7 110.1 269.85 110.55 267.4 109.8 M272.15 110.55 L271.8 109.9 272.3 110.4 272.15 110.55 M322.5 155.1 L322.3 156.2 321.75 156.65 321.25 156.2 Q321.0 155.75 321.0 155.1 321.0 154.45 321.25 154.0 L321.75 153.55 322.3 154.0 322.5 155.1 M318.0 152.45 Q317.1 151.7 316.5 150.35 L316.75 149.6 317.85 151.3 318.0 152.45 M323.4 159.0 L322.35 158.9 321.25 158.65 Q321.0 159.1 321.0 158.1 L321.05 157.25 322.0 156.8 322.7 157.8 323.4 159.0 M322.95 172.9 L322.75 173.45 322.15 173.65 Q321.8 173.65 321.6 173.45 L321.35 172.9 Q321.35 172.6 321.6 172.4 321.8 172.15 322.15 172.15 L322.75 172.4 322.95 172.9" fill="#ffffff" fill-opacity="0.6" fill-rule="evenodd" stroke="none"/>
    <path d="M322.45 129.75 Q322.1 129.75 321.85 129.55 L321.6 129.05 322.2 128.55 Q322.65 129.1 322.45 129.75 M318.1 126.95 L317.9 127.3 Q317.2 126.8 316.6 127.3 L316.6 127.05 316.4 125.55 316.6 124.4 317.45 125.65 318.1 126.95 M316.5 132.95 L316.4 132.95 315.15 132.8 Q316.35 134.7 319.1 137.9 L321.8 141.1 321.8 141.2 320.1 141.0 317.5 138.45 315.8 136.3 314.3 133.8 313.4 132.0 313.55 131.35 313.5 131.35 314.2 131.3 Q316.25 131.3 316.45 132.05 316.65 132.8 316.95 132.8 L317.7 132.55 317.75 131.95 318.3 132.2 Q318.25 132.85 316.5 132.95 M324.9 143.7 Q327.35 146.65 327.7 148.25 326.35 147.5 324.35 145.2 L321.55 141.75 321.4 141.5 321.9 141.4 322.5 141.6 Q323.2 141.9 324.9 143.7 M327.75 148.4 L328.65 150.1 Q328.9 150.8 328.8 153.1 L328.55 153.3 Q327.5 150.65 327.5 149.45 327.5 148.85 327.65 148.6 L327.75 148.4 M319.25 171.85 L319.1 170.9 Q319.55 169.25 319.1 167.55 319.3 167.35 319.75 167.3 L320.5 167.3 321.15 169.9 321.3 172.35 320.75 172.4 Q320.25 172.4 320.1 171.45 L319.5 171.3 319.25 171.85 M314.75 158.55 L313.0 155.0 312.75 153.7 Q314.65 155.15 315.6 158.55 L315.55 158.95 Q315.15 158.95 314.75 158.55 M297.8 115.85 L297.1 115.1 Q296.65 114.3 296.75 113.75 L296.75 113.55 297.3 113.15 298.35 114.1 299.25 115.65 298.8 115.9 297.8 115.85 M294.25 114.7 L293.15 114.8 293.1 114.8 291.25 114.55 291.35 113.65 291.35 113.45 293.5 113.25 Q295.05 113.25 295.35 113.95 L294.25 114.7 M291.65 118.0 L292.25 118.65 292.25 119.45 292.25 119.7 292.0 119.95 Q290.85 119.3 290.4 118.4 L290.8 118.0 Q291.2 117.85 291.65 118.0 M282.75 112.5 L281.55 112.45 280.35 112.0 Q281.3 110.9 283.8 110.9 L285.3 110.95 285.6 111.15 286.0 111.6 Q285.95 111.85 284.55 112.2 L282.75 112.5 M307.4 119.15 L309.45 121.3 Q309.2 122.65 308.85 122.9 L308.25 122.9 309.85 124.15 Q310.3 123.5 310.3 122.85 310.3 122.6 310.4 122.75 L311.1 124.05 312.1 125.55 311.15 128.7 312.25 128.45 312.45 128.5 312.5 129.9 Q312.6 130.65 313.5 131.55 L313.35 131.55 Q312.55 131.55 311.05 130.45 L311.1 131.55 310.8 135.45 Q310.8 136.8 311.3 137.3 311.75 137.75 313.2 138.05 L314.2 139.4 315.2 141.2 315.25 141.65 315.3 141.75 314.55 141.35 Q314.05 140.9 313.5 140.9 310.55 140.9 309.35 134.95 L308.3 127.25 307.45 125.45 306.45 124.25 308.3 127.25 308.3 127.75 307.8 127.8 306.8 127.6 Q305.85 126.5 305.4 125.55 L304.9 124.5 304.95 123.95 305.25 123.25 Q299.85 119.6 299.25 118.25 299.65 117.95 300.2 117.95 L300.2 117.3 Q300.45 116.95 300.7 116.95 L300.9 117.0 301.9 118.15 303.35 119.4 304.9 118.3 Q305.7 118.3 307.4 119.15 M329.1 134.45 L329.6 135.4 329.65 135.45 330.8 137.2 Q331.85 138.9 331.95 139.65 331.45 139.45 331.0 139.85 L329.7 138.05 329.45 137.7 Q329.05 136.85 328.55 134.55 L328.45 134.55 328.05 134.7 Q327.45 134.25 327.65 133.5 L329.1 134.45 M311.5 140.55 L312.7 145.95 312.75 147.35 312.15 147.35 Q311.2 145.25 310.8 143.95 310.45 142.65 310.35 140.95 310.8 139.9 311.4 140.0 L311.5 140.55 M312.55 148.8 Q313.2 149.8 313.2 151.1 L312.95 151.35 312.55 151.4 Q312.25 151.0 311.85 149.3 L311.85 148.6 312.55 148.8 M317.5 160.25 Q319.35 162.65 319.6 164.3 319.75 165.15 320.05 165.1 L319.8 165.15 Q318.95 164.75 317.45 162.55 L316.05 160.35 316.1 159.65 316.1 159.7 316.5 159.85 317.5 160.25 M321.1 173.35 L321.4 174.6 321.8 176.0 322.35 177.6 322.2 178.15 321.4 178.3 Q320.85 178.3 320.7 177.85 L320.1 176.65 320.1 173.3 321.1 173.35 M329.1 158.3 L328.25 158.5 328.05 158.5 327.95 157.8 328.2 155.9 Q328.55 154.3 329.1 155.45 L329.3 158.15 329.1 158.3 M331.65 175.65 Q329.25 176.65 329.25 175.65 329.25 175.35 330.5 174.6 331.95 173.35 332.65 170.55 L332.8 170.2 333.6 171.65 Q334.3 172.25 336.6 172.4 L332.7 174.85 Q330.9 175.9 331.9 175.55 L331.65 175.65 M325.8 177.45 L325.35 177.95 324.3 178.15 323.25 177.95 322.8 177.45 Q322.8 177.15 323.25 176.95 L324.3 176.75 325.35 176.95 325.8 177.45 M253.85 82.75 L253.6 82.45 253.4 82.0 253.35 81.8 253.95 81.75 Q254.65 81.75 255.7 82.5 L257.9 84.2 Q259.4 85.25 259.4 85.6 259.35 86.25 259.7 86.7 L259.7 87.25 259.7 87.5 259.1 87.6 Q258.15 87.6 258.05 87.15 257.85 86.25 256.9 85.45 L255.15 83.95 253.85 82.75 M252.6 81.75 L252.85 82.55 Q252.75 82.95 251.35 82.95 249.1 82.95 247.85 82.2 L246.85 81.2 246.9 80.4 246.9 80.3 Q246.95 80.15 247.55 80.15 248.4 80.15 248.6 80.55 L248.7 81.2 250.15 81.25 252.6 81.75 M274.0 100.85 L275.5 101.5 276.15 102.0 276.4 102.65 276.25 103.0 275.8 103.1 274.45 102.35 273.35 101.6 273.55 101.1 Q273.75 100.85 274.0 100.85 M306.9 114.2 L306.5 114.65 305.5 114.8 304.5 114.65 304.1 114.2 Q304.1 113.95 304.5 113.8 L305.5 113.6 306.5 113.8 306.9 114.2 M286.65 110.75 Q287.1 110.3 287.75 110.1 L288.0 111.65 287.8 114.3 287.15 114.6 286.4 112.9 286.35 112.75 Q286.25 111.15 286.65 110.75 M300.95 140.85 L301.0 141.1 301.0 141.3 300.8 141.6 Q300.6 141.8 300.3 141.8 L299.8 141.6 299.6 141.1 299.8 140.6 300.3 140.4 300.8 140.6 300.95 140.85 M301.0 146.3 L301.3 146.9 301.25 147.35 300.5 147.55 299.95 147.55 299.8 147.4 299.8 146.65 300.45 146.35 301.0 146.3 M266.1 109.4 L265.95 108.95 Q265.95 108.6 266.3 108.35 L267.15 108.1 Q267.65 108.1 268.0 108.35 L268.35 108.95 268.0 109.55 267.4 109.8 267.15 109.8 266.3 109.55 266.1 109.4 M269.85 110.55 L269.7 110.1 269.85 109.75 270.7 109.55 Q271.35 109.55 271.8 109.9 L272.15 110.55 272.1 110.9 270.95 111.0 Q270.1 110.85 269.85 110.55" fill="#ffffff" fill-opacity="0.9019608" fill-rule="evenodd" stroke="none"/>
  </g>
</svg>
