<?xml version="1.0" encoding="UTF-8" standalone="no"?>
<svg xmlns:xlink="http://www.w3.org/1999/xlink" height="60.6px" width="90.35px" xmlns="http://www.w3.org/2000/svg">
  <g transform="matrix(1.0, 0.0, 0.0, 1.0, 0.6, 0.6)">
    <path d="M72.5 20.05 Q93.25 33.05 88.15 52.8 87.4 55.6 85.55 58.5 80.35 60.85 74.55 57.05 66.2 62.05 56.35 53.05 47.5 46.45 40.85 39.35 L42.45 43.9 Q32.95 34.65 28.2 33.7 30.0 38.6 24.25 42.05 19.0 36.9 15.65 33.15 18.25 25.55 26.0 23.1 30.05 23.65 40.75 33.45 39.35 31.65 38.75 28.35 59.35 44.35 68.55 46.6 73.75 47.8 67.6 32.0 69.95 35.2 71.55 38.5 79.7 37.85 77.75 30.6 L81.7 34.6 Q81.7 31.4 79.05 28.6 74.0 23.5 72.5 20.05 M88.15 52.8 Q89.7 45.5 84.15 37.7 89.7 45.5 88.15 52.8 M74.55 57.05 Q75.5 50.0 73.45 43.35 75.5 50.0 74.55 57.05" fill="#e1be63" fill-rule="evenodd" stroke="none"/>
    <path d="M15.65 33.15 L13.25 30.3 0.0 16.7 Q6.35 7.85 10.85 5.55 22.15 2.4 32.9 10.5 38.3 14.95 65.1 16.05 69.1 17.95 72.5 20.05 74.0 23.5 79.05 28.6 81.7 31.4 81.7 34.6 L77.75 30.6 Q79.7 37.85 71.55 38.5 69.95 35.2 67.6 32.0 73.75 47.8 68.55 46.6 59.35 44.35 38.75 28.35 39.35 31.65 40.75 33.45 30.05 23.65 26.0 23.1 18.25 25.55 15.65 33.15" fill="#f7d373" fill-rule="evenodd" stroke="none"/>
    <path d="M0.0 16.7 L6.35 5.35 Q16.0 -5.35 31.6 5.35 51.95 9.75 65.1 16.05 38.3 14.95 32.9 10.5 22.15 2.4 10.85 5.55 6.35 7.85 0.0 16.7" fill="#f6df9e" fill-rule="evenodd" stroke="none"/>
    <path d="M72.5 20.05 Q93.25 33.05 88.15 52.8 87.4 55.6 85.55 58.5 80.35 60.85 74.55 57.05 66.2 62.05 56.35 53.05 47.5 46.45 40.85 39.35 L42.45 43.9 Q32.95 34.65 28.2 33.7 30.0 38.6 24.25 42.05 M0.0 16.7 L6.35 5.35 Q16.0 -5.35 31.6 5.35 51.95 9.75 65.1 16.05 69.1 17.95 72.5 20.05 M84.15 37.7 Q89.7 45.5 88.15 52.8 M73.45 43.35 Q75.5 50.0 74.55 57.05" fill="none" stroke="#1a160c" stroke-linecap="round" stroke-linejoin="round" stroke-width="1.2000000000000002"/>
    <path d="M67.5 32.05 L67.5 31.9 67.65 31.9 71.3 37.25 73.8 42.6 74.0 43.15 74.0 43.2 Q74.2 43.75 73.6 43.95 73.0 44.05 72.85 43.5 L71.6 39.7 69.1 34.55 68.8 34.1 68.6 33.7 67.5 32.05 M77.65 30.65 L77.65 30.5 77.8 30.5 80.75 33.1 84.35 37.0 84.6 37.35 84.65 37.4 84.75 37.85 84.45 38.2 84.0 38.3 83.65 38.05 83.65 38.0 83.4 37.7 82.8 36.8 81.7 35.2 81.4 34.9 80.3 33.5 77.65 30.65" fill="#1a160c" fill-rule="evenodd" stroke="none"/>
  </g>
</svg>
