<?xml version="1.0" encoding="UTF-8" standalone="no"?>
<svg xmlns:xlink="http://www.w3.org/1999/xlink" height="164.45px" width="78.3px" xmlns="http://www.w3.org/2000/svg">
  <g transform="matrix(1.0, 0.0, 0.0, 1.0, 0.6, 0.6)">
    <path d="M19.3 32.65 Q21.2 22.65 25.45 13.4 L25.7 12.9 Q27.5 9.05 31.7 7.45 L32.05 7.1 Q34.5 3.55 39.0 1.9 42.0 0.75 45.9 0.5 43.6 1.55 42.2 5.15 38.1 4.7 33.2 9.5 L27.0 14.65 19.3 32.65 M51.05 1.6 L58.6 1.2 61.5 1.7 Q65.9 2.85 67.95 6.5 L63.2 6.65 Q60.2 2.45 53.8 4.65 52.7 3.1 51.05 1.6" fill="#f6df9e" fill-rule="evenodd" stroke="none"/>
    <path d="M67.95 6.5 L68.6 6.85 Q69.4 7.35 70.25 8.15 73.2 13.25 73.1 17.4 L73.0 18.65 72.65 20.2 74.7 22.15 Q77.3 25.25 77.1 29.55 75.6 39.3 71.2 42.3 66.85 45.35 61.05 41.4 69.85 42.9 71.1 39.7 77.8 25.75 73.4 25.45 71.9 25.25 68.3 29.05 L63.9 28.75 Q61.15 28.1 59.7 26.0 67.75 28.05 71.0 19.05 L71.05 18.65 Q71.75 11.7 66.65 9.05 64.9 7.05 59.95 10.35 61.45 7.7 63.2 6.65 L67.95 6.5 M45.9 0.5 Q47.4 -0.25 49.3 0.15 L51.05 1.6 Q52.7 3.1 53.8 4.65 55.55 7.15 55.95 9.85 56.85 16.0 50.85 23.35 45.95 26.9 41.05 21.1 L40.75 19.7 41.05 21.1 Q41.65 32.6 34.8 34.7 31.15 35.65 29.35 33.1 28.85 32.4 28.5 31.5 36.15 35.4 38.25 27.15 41.7 19.7 34.05 14.6 30.8 13.8 28.8 16.65 30.0 13.25 32.55 12.0 33.55 11.5 34.8 11.35 38.4 14.5 40.0 17.8 L40.75 19.7 Q47.25 25.45 52.45 17.35 57.35 12.5 49.8 3.0 46.65 0.15 42.2 5.15 43.6 1.55 45.9 0.5 M72.65 20.2 Q71.05 25.35 63.9 28.75 71.05 25.35 72.65 20.2 M43.55 32.4 L41.65 36.0 Q40.7 37.7 42.7 41.4 40.05 37.8 34.75 38.65 36.75 37.5 39.2 36.95 41.35 34.15 43.55 32.4 M28.2 52.3 Q32.15 56.45 33.1 56.4 42.1 61.25 45.35 55.45 46.65 58.6 50.45 60.1 57.35 61.35 60.15 56.25 63.2 50.05 57.35 44.3 53.7 42.85 52.75 44.35 52.1 44.55 55.25 41.3 57.0 37.95 55.25 33.65 52.9 31.5 47.4 30.15 50.9 28.85 54.55 30.15 59.0 33.25 58.2 42.0 64.8 48.65 62.25 57.55 59.1 64.45 48.6 62.3 L34.4 59.0 Q31.65 57.8 30.0 55.75 28.8 54.25 28.2 52.3" fill="#c497a5" fill-rule="evenodd" stroke="none"/>
    <path d="M66.9 11.0 Q61.75 12.95 61.05 18.65 60.75 21.0 61.2 24.0 60.05 20.85 59.7 18.65 59.25 15.8 60.05 14.5 63.3 10.25 66.9 11.0 M48.0 3.95 Q42.15 11.55 44.55 20.25 42.4 16.7 42.65 12.35 44.65 5.85 48.0 3.95 M48.9 32.05 Q45.4 35.0 44.45 39.9 43.15 38.55 44.0 35.05 44.4 32.9 48.9 32.05 M72.7 28.5 Q65.55 33.05 62.65 40.15 62.3 36.0 64.8 33.65 68.75 29.85 72.7 28.5 M32.7 16.15 Q30.7 23.2 32.75 31.6 29.0 27.5 29.3 24.35 28.8 21.35 32.7 16.15 M36.0 41.75 Q31.9 47.5 33.95 54.6 31.85 54.15 30.65 47.7 30.1 44.75 36.0 41.75 M47.65 50.7 Q48.1 47.45 53.7 46.05 48.75 50.75 50.15 58.7 48.15 56.6 47.65 50.7" fill="#e7b3c3" fill-rule="evenodd" stroke="none"/>
    <path d="M59.95 10.35 Q64.9 7.05 66.65 9.05 71.75 11.7 71.05 18.65 L71.0 19.05 Q67.75 28.05 59.7 26.0 57.0 22.15 58.4 13.6 L58.6 13.15 59.95 10.35 M66.9 11.0 Q63.3 10.25 60.05 14.5 59.25 15.8 59.7 18.65 60.05 20.85 61.2 24.0 60.75 21.0 61.05 18.65 61.75 12.95 66.9 11.0 M42.2 5.15 Q46.65 0.15 49.8 3.0 57.35 12.5 52.45 17.35 47.25 25.45 40.75 19.7 L40.0 17.8 Q40.35 11.25 41.55 7.15 L42.2 5.15 M48.0 3.95 Q44.65 5.85 42.65 12.35 42.4 16.7 44.55 20.25 42.15 11.55 48.0 3.95 M48.9 32.05 Q44.4 32.9 44.0 35.05 43.15 38.55 44.45 39.9 45.4 35.0 48.9 32.05 M34.75 38.65 Q40.05 37.8 42.7 41.4 40.7 37.7 41.65 36.0 L43.55 32.4 Q45.45 30.9 47.4 30.15 52.9 31.5 55.25 33.65 57.0 37.95 55.25 41.3 52.1 44.55 52.75 44.35 53.7 42.85 57.35 44.3 63.2 50.05 60.15 56.25 57.35 61.35 50.45 60.1 46.65 58.6 45.35 55.45 42.1 61.25 33.1 56.4 32.15 56.45 28.2 52.3 27.6 50.45 27.55 48.15 28.25 45.65 29.45 43.7 31.45 40.45 34.75 38.65 M68.3 29.05 Q71.9 25.25 73.4 25.45 77.8 25.75 71.1 39.7 69.85 42.9 61.05 41.4 58.5 37.5 62.95 32.8 65.45 29.85 68.3 29.05 M72.7 28.5 Q68.75 29.85 64.8 33.65 62.3 36.0 62.65 40.15 65.55 33.05 72.7 28.5 M28.8 16.65 Q30.8 13.8 34.05 14.6 41.7 19.7 38.25 27.15 36.15 35.4 28.5 31.5 28.1 30.45 27.85 29.1 27.15 21.05 28.8 16.65 M32.7 16.15 Q28.8 21.35 29.3 24.35 29.0 27.5 32.75 31.6 30.7 23.2 32.7 16.15 M36.0 41.75 Q30.1 44.75 30.65 47.7 31.85 54.15 33.95 54.6 31.9 47.5 36.0 41.75 M47.65 50.7 Q48.15 56.6 50.15 58.7 48.75 50.75 53.7 46.05 48.1 47.45 47.65 50.7" fill="#d9a8b7" fill-rule="evenodd" stroke="none"/>
    <path d="M6.25 141.8 L0.0 113.15 Q4.3 110.3 7.6 105.95 14.9 96.25 17.15 79.05 18.55 68.35 18.0 54.75 17.3 43.25 19.3 32.65 L27.0 14.65 33.2 9.5 Q38.1 4.7 42.2 5.15 L41.55 7.15 Q39.55 10.25 34.8 11.35 33.55 11.5 32.55 12.0 30.0 13.25 28.8 16.65 27.15 21.05 27.85 29.1 28.1 30.45 28.5 31.5 28.85 32.4 29.35 33.1 30.75 38.1 29.45 43.7 28.25 45.65 27.55 48.15 27.6 50.45 28.2 52.3 28.8 54.25 30.0 55.75 28.85 58.75 31.7 61.7 39.5 67.55 48.95 68.75 56.5 75.95 46.35 96.25 38.35 122.9 27.0 145.4 24.35 148.65 20.0 150.05 12.6 151.3 6.25 141.8 M63.2 6.65 Q61.45 7.7 59.95 10.35 59.3 10.85 58.6 10.95 57.4 11.05 55.95 9.85 55.55 7.15 53.8 4.65 60.2 2.45 63.2 6.65 M38.6 102.4 L34.5 115.9 31.45 122.95 31.35 123.1 31.3 123.25 27.9 129.9 Q27.75 130.05 27.95 130.05 L28.05 130.05 30.2 127.05 30.3 126.85 31.85 124.25 33.1 122.0 35.35 117.0 37.2 111.45 37.25 111.15 37.45 110.5 37.95 108.15 38.05 107.9 38.6 104.4 38.6 104.05 38.75 102.8 38.75 102.45 38.7 102.35 38.6 102.4" fill="#f7d373" fill-rule="evenodd" stroke="none"/>
    <path d="M71.2 42.3 Q70.95 43.9 66.35 49.4 L70.05 46.8 63.35 60.45 Q63.4 70.55 61.65 79.05 59.55 89.35 54.75 97.3 47.85 125.5 40.0 154.6 34.5 162.85 22.05 163.25 11.7 163.9 9.0 152.95 L8.85 152.4 8.25 150.95 8.25 150.9 6.25 141.8 Q12.6 151.3 20.0 150.05 24.35 148.65 27.0 145.4 38.35 122.9 46.35 96.25 56.5 75.95 48.95 68.75 39.5 67.55 31.7 61.7 28.85 58.75 30.0 55.75 31.65 57.8 34.4 59.0 L48.6 62.3 Q59.1 64.45 62.25 57.55 64.8 48.65 58.2 42.0 59.0 33.25 54.55 30.15 50.9 28.85 47.4 30.15 45.45 30.9 43.55 32.4 41.35 34.15 39.2 36.95 36.75 37.5 34.75 38.65 31.45 40.45 29.45 43.7 30.75 38.1 29.35 33.1 31.15 35.65 34.8 34.7 41.65 32.6 41.05 21.1 45.95 26.9 50.85 23.35 56.85 16.0 55.95 9.85 57.4 11.05 58.6 10.95 59.3 10.85 59.95 10.35 L58.6 13.15 58.4 13.6 Q57.0 22.15 59.7 26.0 61.15 28.1 63.9 28.75 L68.3 29.05 Q65.45 29.85 62.95 32.8 58.5 37.5 61.05 41.4 66.85 45.35 71.2 42.3 M41.55 7.15 Q40.35 11.25 40.0 17.8 38.4 14.5 34.8 11.35 39.55 10.25 41.55 7.15" fill="#e1be63" fill-rule="evenodd" stroke="none"/>
    <path d="M38.6 102.4 L38.7 102.35 38.75 102.45 38.75 102.8 38.6 104.05 38.6 104.4 38.05 107.9 37.95 108.15 37.45 110.5 37.25 111.15 37.2 111.45 35.35 117.0 33.1 122.0 31.85 124.25 30.3 126.85 30.2 127.05 28.05 130.05 27.95 130.05 Q27.75 130.05 27.9 129.9 L31.3 123.25 31.35 123.1 31.45 122.95 34.5 115.9 38.6 102.4" fill="#1a160c" fill-rule="evenodd" stroke="none"/>
    <path d="M67.95 6.5 L68.6 6.85 Q69.4 7.35 70.25 8.15 73.2 13.25 73.1 17.4 L73.0 18.65 72.65 20.2 74.7 22.15 Q77.3 25.25 77.1 29.55 75.6 39.3 71.2 42.3 70.95 43.9 66.35 49.4 L70.05 46.8 63.35 60.45 Q63.4 70.55 61.65 79.05 59.55 89.35 54.75 97.3 47.85 125.5 40.0 154.6 34.5 162.85 22.05 163.25 M0.0 113.15 Q4.3 110.3 7.6 105.95 14.9 96.25 17.15 79.05 18.55 68.35 18.0 54.75 17.3 43.25 19.3 32.65 21.2 22.65 25.45 13.4 L25.7 12.9 Q27.5 9.05 31.7 7.45 L32.05 7.1 Q34.5 3.55 39.0 1.9 42.0 0.75 45.9 0.5 47.4 -0.25 49.3 0.15 L51.05 1.6 58.6 1.2 61.5 1.7 Q65.9 2.85 67.95 6.5 L63.2 6.65 Q61.45 7.7 59.95 10.35 L58.6 13.15 58.4 13.6 Q57.0 22.15 59.7 26.0 61.15 28.1 63.9 28.75 71.05 25.35 72.65 20.2 M53.8 4.65 Q52.7 3.1 51.05 1.6 M55.95 9.85 Q55.55 7.15 53.8 4.65 M40.75 19.7 L41.05 21.1 Q45.95 26.9 50.85 23.35 56.85 16.0 55.95 9.85 M42.2 5.15 L41.55 7.15 Q40.35 11.25 40.0 17.8 L40.75 19.7 M45.9 0.5 Q43.6 1.55 42.2 5.15 M43.55 32.4 Q41.35 34.15 39.2 36.95 36.75 37.5 34.75 38.65 31.45 40.45 29.45 43.7 28.25 45.65 27.55 48.15 27.6 50.45 28.2 52.3 28.8 54.25 30.0 55.75 31.65 57.8 34.4 59.0 L48.6 62.3 Q59.1 64.45 62.25 57.55 64.8 48.65 58.2 42.0 59.0 33.25 54.55 30.15 50.9 28.85 47.4 30.15 45.45 30.9 43.55 32.4 M63.9 28.75 L68.3 29.05 Q65.45 29.85 62.95 32.8 58.5 37.5 61.05 41.4 66.85 45.35 71.2 42.3 M34.8 11.35 Q33.55 11.5 32.55 12.0 30.0 13.25 28.8 16.65 27.15 21.05 27.85 29.1 28.1 30.45 28.5 31.5 28.85 32.4 29.35 33.1 31.15 35.65 34.8 34.7 41.65 32.6 41.05 21.1 M40.0 17.8 Q38.4 14.5 34.8 11.35" fill="none" stroke="#1a160c" stroke-linecap="round" stroke-linejoin="round" stroke-width="1.2000000000000002"/>
    <path d="M8.15 150.9 Q8.05 150.8 8.2 150.8 L8.3 150.85 8.4 151.0 8.65 151.55 8.95 152.35 9.3 153.45 9.35 153.7 10.2 155.95 10.3 156.1 10.4 156.35 10.55 156.6 10.65 156.85 11.7 158.5 12.8 159.8 13.05 160.05 13.1 160.05 13.4 160.35 13.65 160.5 13.85 160.7 14.05 160.85 14.55 161.15 14.65 161.25 15.0 161.45 15.25 161.55 15.5 161.7 16.4 162.05 16.5 162.1 16.8 162.15 17.05 162.25 17.3 162.3 17.6 162.4 17.85 162.45 18.0 162.45 18.1 162.5 19.2 162.65 22.0 162.65 22.0 162.6 22.05 162.6 22.45 162.8 22.65 163.2 Q22.65 163.8 22.05 163.8 L21.45 163.85 17.9 163.5 17.8 163.45 17.65 163.4 17.35 163.35 16.05 162.9 14.2 161.9 14.1 161.85 13.6 161.5 12.7 160.7 11.2 158.9 10.3 157.35 10.1 156.8 9.95 156.55 9.25 154.65 9.2 154.35 9.1 154.1 9.05 153.8 8.95 153.5 8.85 152.95 8.7 152.4 8.2 151.1 8.15 150.9" fill="#1a160c" fill-rule="evenodd" stroke="none"/>
  </g>
</svg>
