<?xml version="1.0" encoding="UTF-8" standalone="no"?>
<svg xmlns:xlink="http://www.w3.org/1999/xlink" height="163.8px" width="132.75px" xmlns="http://www.w3.org/2000/svg">
  <g transform="matrix(1.0, 0.0, 0.0, 1.0, -21.1, 25.55)">
    <path d="M24.1 25.6 Q20.65 10.55 22.2 -8.2 26.25 -16.55 32.35 -20.75 L34.0 -21.8 Q55.35 15.55 84.0 40.7 88.05 44.55 86.6 22.3 80.9 6.1 86.65 8.45 88.95 7.95 92.35 15.35 98.35 21.65 102.6 32.6 100.3 31.5 98.9 29.5 102.8 48.1 101.5 54.7 99.9 53.2 98.9 50.9 96.0 72.8 107.05 76.95 127.1 88.2 142.9 78.5 148.95 73.95 148.65 57.65 150.7 62.9 152.35 70.35 155.65 84.65 151.65 101.55 L151.6 100.45 Q151.1 105.0 148.9 110.9 141.6 123.7 139.55 122.55 L133.95 116.95 Q134.45 124.45 132.15 127.45 111.55 116.15 92.15 98.55 94.7 106.4 101.4 114.7 82.35 96.35 72.25 78.45 72.4 82.1 75.7 89.8 62.9 76.4 59.85 60.15 66.65 65.45 73.05 67.65 71.6 63.2 72.15 58.85 73.65 67.35 80.1 71.0 82.35 65.05 85.0 59.8 88.35 53.15 92.35 47.65 94.9 42.2 93.15 35.85 94.9 42.2 92.35 47.65 88.35 53.15 85.0 59.8 82.35 65.05 80.1 71.0 73.65 67.35 72.15 58.85 71.6 63.2 73.05 67.65 66.65 65.45 59.85 60.15 L54.85 55.85 56.25 61.85 Q52.7 60.2 49.7 57.0 L46.95 53.35 Q34.55 41.95 24.1 25.6" fill="#e1be63" fill-rule="evenodd" stroke="none"/>
    <path d="M34.0 -21.8 Q42.7 -26.8 55.25 -23.85 L80.1 -11.0 Q110.85 6.25 126.4 22.2 133.65 28.25 134.4 39.1 L135.3 33.0 Q135.95 29.75 134.4 21.8 141.85 31.05 145.55 43.25 147.7 50.0 148.65 57.65 148.95 73.95 142.9 78.5 127.1 88.2 107.05 76.95 96.0 72.8 98.9 50.9 99.9 53.2 101.5 54.7 102.8 48.1 98.9 29.5 100.3 31.5 102.6 32.6 98.35 21.65 92.35 15.35 88.95 7.95 86.65 8.45 80.9 6.1 86.6 22.3 88.05 44.55 84.0 40.7 55.35 15.55 34.0 -21.8" fill="#f7d373" fill-rule="evenodd" stroke="none"/>
    <path d="M80.1 -11.0 Q102.35 0.95 124.15 14.25 134.7 21.5 135.3 33.0 L134.4 39.1 Q133.65 28.25 126.4 22.2 110.85 6.25 80.1 -11.0" fill="#f6df9e" fill-rule="evenodd" stroke="none"/>
    <path d="M148.9 110.9 L147.0 115.3 146.65 116.25 146.6 116.4 146.3 117.1 143.2 123.3 143.05 123.55 139.15 130.25 Q136.3 127.1 135.5 120.6 136.25 129.65 134.15 137.65 132.8 134.2 130.95 131.25 118.1 126.4 105.55 117.4 110.2 121.1 112.9 126.0 94.5 116.75 80.4 103.0 86.15 109.05 87.65 113.95 61.1 88.8 51.45 74.55 L50.55 73.15 49.0 71.0 Q38.75 58.55 34.2 49.6 27.2 39.0 24.1 25.6 34.55 41.95 46.95 53.35 L49.7 57.0 Q52.7 60.2 56.25 61.85 L54.85 55.85 59.85 60.15 Q62.9 76.4 75.7 89.8 72.4 82.1 72.25 78.45 82.35 96.35 101.4 114.7 94.7 106.4 92.15 98.55 111.55 116.15 132.15 127.45 134.45 124.45 133.95 116.95 L139.55 122.55 Q141.6 123.7 148.9 110.9" fill="#cfaf5b" fill-rule="evenodd" stroke="none"/>
    <path d="M24.1 25.6 Q20.65 10.55 22.2 -8.2 26.25 -16.55 32.35 -20.75 L34.0 -21.8 Q42.7 -26.8 55.25 -23.85 L80.1 -11.0 Q102.35 0.95 124.15 14.25 M139.15 130.25 Q136.3 127.1 135.5 120.6 136.25 129.65 134.15 137.65 132.8 134.2 130.95 131.25 118.1 126.4 105.55 117.4 110.2 121.1 112.9 126.0 L113.3 126.2 M93.15 35.85 Q94.9 42.2 92.35 47.65 88.35 53.15 85.0 59.8 82.35 65.05 80.1 71.0 73.65 67.35 72.15 58.85 71.6 63.2 73.05 67.65 66.65 65.45 59.85 60.15 L54.85 55.85 56.25 61.85 M112.9 126.0 Q94.5 116.75 80.4 103.0 86.15 109.05 87.65 113.95 61.1 88.8 51.45 74.55 L50.55 73.15 49.0 71.0 Q38.75 58.55 34.2 49.6 27.2 39.0 24.1 25.6" fill="none" stroke="#1a160c" stroke-linecap="round" stroke-linejoin="round" stroke-width="1.2000000000000002"/>
    <path d="M124.15 14.25 Q134.7 21.5 135.3 33.0 135.95 29.75 134.4 21.8" fill="none" stroke="#1a160c" stroke-linecap="round" stroke-linejoin="miter-clip" stroke-miterlimit="3.0" stroke-width="1.2000000000000002"/>
    <path d="M151.5 100.4 Q151.5 100.25 151.6 100.35 L151.65 100.45 151.5 101.9 150.75 105.75 150.6 106.2 150.5 106.7 149.65 109.5 149.45 109.95 149.15 110.9 149.15 110.95 149.1 111.0 149.05 111.15 148.95 111.35 146.9 116.5 146.9 116.55 146.6 117.2 146.6 117.25 143.6 123.5 143.5 123.6 143.45 123.7 143.45 123.8 143.4 123.85 139.65 130.55 Q139.35 131.0 138.8 130.75 138.3 130.45 138.6 129.9 L142.55 123.35 142.6 123.3 142.6 123.25 142.7 123.15 145.95 116.9 145.95 116.95 148.6 110.8 148.65 110.75 148.65 110.7 150.65 104.7 151.35 101.4 151.5 100.4 M56.5 61.3 L56.55 61.3 Q57.05 61.6 56.8 62.1 56.45 62.6 55.95 62.35 L55.85 62.3 55.7 62.2 55.2 61.95 55.05 61.85 54.9 61.8 53.4 60.8 51.6 59.35 51.15 58.95 50.95 58.7 49.45 57.15 49.4 57.05 49.3 56.95 46.85 53.4 46.85 53.25 47.0 53.25 49.55 56.4 49.75 56.6 49.8 56.7 50.3 57.2 51.9 58.55 52.1 58.75 54.75 60.45 55.45 60.8 55.6 60.9 56.0 61.05 56.2 61.15 56.35 61.25 56.5 61.3 M91.15 31.1 Q91.05 30.95 91.25 30.85 L91.5 30.95 91.6 31.15 91.75 31.35 93.3 34.55 93.4 34.4 93.55 34.15 93.65 33.9 93.8 33.65 93.9 33.35 94.05 33.05 94.6 31.25 94.8 29.5 94.85 27.6 94.85 26.65 94.8 26.4 94.8 26.15 94.4 23.2 92.25 15.35 Q92.15 15.25 92.3 15.25 92.4 15.15 92.4 15.3 L94.25 20.4 95.3 24.55 95.7 29.55 95.55 31.4 95.05 33.4 94.9 33.75 94.8 34.1 94.5 34.65 94.4 34.95 93.75 36.0 93.3 36.45 93.25 36.45 Q92.75 36.55 92.6 36.15 L92.5 35.8 91.45 31.85 91.3 31.55 91.25 31.3 91.15 31.1 M133.9 22.15 Q133.55 21.65 134.0 21.3 L134.85 21.4 135.8 22.7 138.65 26.95 138.9 27.4 139.2 27.85 139.7 28.8 140.0 29.25 142.5 34.4 144.65 39.95 145.6 43.2 145.55 43.3 Q145.45 43.4 145.45 43.25 L144.45 40.45 144.4 40.25 143.45 38.0 142.65 36.1 140.7 32.1 138.4 28.3 138.3 28.05 136.6 25.65 136.5 25.45 134.9 23.4 134.75 23.15 134.55 22.95 133.9 22.15" fill="#1a160c" fill-rule="evenodd" stroke="none"/>
  </g>
</svg>
