<?xml version="1.0" encoding="UTF-8" standalone="no"?>
<svg xmlns:xlink="http://www.w3.org/1999/xlink" height="24.05px" width="32.0px" xmlns="http://www.w3.org/2000/svg">
  <g transform="matrix(1.0, 0.0, 0.0, 1.0, 0.0, 0.0)">
    <path d="M19.1 1.35 Q25.5 1.4 29.25 4.85 32.9 8.15 31.7 12.8 30.4 17.55 24.9 20.75 19.4 24.15 13.0 24.05 6.45 24.0 2.7 20.55 -0.95 17.15 0.3 12.35 1.55 7.8 7.1 4.45 12.6 1.2 19.1 1.35" fill="#23142e" fill-rule="evenodd" stroke="none"/>
    <path d="M8.55 7.6 Q6.15 8.65 4.1 8.5 L3.55 8.4 2.6 8.05 2.15 7.75 1.6 6.85 Q1.15 5.45 2.45 3.8 3.9 2.0 6.25 0.85 6.75 0.6 7.25 0.5 9.0 -0.1 10.6 0.0 12.05 0.15 12.65 0.85 L13.15 1.55 Q13.35 2.2 13.2 2.9 L12.25 4.75 Q10.9 6.5 8.55 7.6" fill="url(#gradient0)" fill-rule="evenodd" stroke="none"/>
    <path d="M30.75 17.4 Q29.25 10.05 25.0 4.7 27.05 5.8 29.75 10.0 31.4 12.65 30.75 17.4" fill="#ffffff" fill-rule="evenodd" stroke="none"/>
  </g>
  <defs>
    <radialGradient cx="0" cy="0" gradientTransform="matrix(0.0014, 0.0042, -0.0075, 0.0034, 7.4, 4.25)" gradientUnits="userSpaceOnUse" id="gradient0" r="819.2" spreadMethod="pad">
      <stop offset="0.6666666666666666" stop-color="#ffffff"/>
      <stop offset="1.0" stop-color="#ffffff" stop-opacity="0.0"/>
    </radialGradient>
  </defs>
</svg>
