<?xml version="1.0" encoding="UTF-8" standalone="no"?>
<svg xmlns:xlink="http://www.w3.org/1999/xlink" height="27.8px" width="27.6px" xmlns="http://www.w3.org/2000/svg">
  <g transform="matrix(1.0, 0.0, 0.0, 1.0, 0.0, 0.0)">
    <path d="M25.1 18.65 Q21.8 23.6 16.15 26.2 10.45 28.7 5.9 27.3 1.2 25.9 0.25 21.4 -0.75 16.9 2.6 11.95 5.85 7.05 11.6 4.6 17.2 2.1 21.9 3.45 26.45 4.85 27.4 9.3 28.35 13.8 25.1 18.65" fill="#23142e" fill-rule="evenodd" stroke="none"/>
    <path d="M18.15 7.95 Q15.8 8.15 13.85 7.15 L13.35 6.9 12.4 6.1 11.9 5.65 11.45 4.5 Q11.0 2.9 12.3 1.65 13.75 0.35 16.05 0.0 L17.0 0.1 Q18.7 0.15 20.3 0.85 21.6 1.55 22.25 2.55 L22.8 3.4 Q22.95 4.25 22.75 4.9 22.55 5.7 21.8 6.4 20.5 7.75 18.15 7.95" fill="url(#gradient0)" fill-rule="evenodd" stroke="none"/>
    <path d="M11.7 27.2 Q20.5 24.95 24.85 16.4 24.25 19.25 20.05 23.75 17.55 26.5 11.7 27.2" fill="#ffffff" fill-rule="evenodd" stroke="none"/>
  </g>
  <defs>
    <radialGradient cx="0" cy="0" gradientTransform="matrix(0.0014, 0.0049, -0.0074, 7.0E-4, 17.1, 4.05)" gradientUnits="userSpaceOnUse" id="gradient0" r="819.2" spreadMethod="pad">
      <stop offset="0.6666666666666666" stop-color="#ffffff"/>
      <stop offset="1.0" stop-color="#ffffff" stop-opacity="0.0"/>
    </radialGradient>
  </defs>
</svg>
