<?xml version="1.0" encoding="UTF-8" standalone="no"?>
<svg xmlns:xlink="http://www.w3.org/1999/xlink" height="73.55px" width="199.8px" xmlns="http://www.w3.org/2000/svg">
  <g transform="matrix(1.0, 0.0, 0.0, 1.0, 14.25, -14.1)">
    <path d="M177.85 30.15 L183.6 32.85 Q186.25 41.85 185.3 49.0 L180.85 50.65 Q168.0 50.2 154.0 46.7 L151.9 45.2 Q162.9 41.05 174.5 43.4 L177.25 44.15 183.4 44.8 Q171.6 34.05 158.55 30.95 122.25 21.95 108.6 26.9 71.6 28.35 17.75 46.85 15.75 47.45 13.9 48.15 L-2.95 52.4 -9.05 49.4 Q10.7 40.05 36.85 34.05 76.3 21.95 126.3 18.55 147.05 18.85 177.85 30.15 M59.95 84.35 L57.85 83.3 74.1 79.25 82.55 79.9 Q72.1 83.8 59.95 84.35" fill="#f7d373" fill-rule="evenodd" stroke="none"/>
    <path d="M-2.95 52.4 L13.9 48.15 Q15.75 47.45 17.75 46.85 73.3 75.65 102.05 74.45 138.35 67.6 173.65 53.35 161.35 51.7 154.0 46.7 168.0 50.2 180.85 50.65 L185.3 49.0 Q184.25 57.5 177.95 63.45 L167.3 70.9 Q154.85 78.65 141.45 83.5 146.55 76.45 154.5 70.8 83.25 93.65 59.95 84.35 72.1 83.8 82.55 79.9 L74.1 79.25 Q30.75 68.7 -2.95 52.4 M108.6 26.9 Q122.25 21.95 158.55 30.95 171.6 34.05 183.4 44.8 L177.25 44.15 174.5 43.4 Q155.5 32.4 134.7 28.2 122.9 26.3 108.6 26.9 M177.8 53.7 L173.65 53.35 177.8 53.7" fill="#e1be63" fill-rule="evenodd" stroke="none"/>
    <path d="M145.75 36.15 Q152.8 37.45 156.7 40.65 143.6 41.15 139.8 44.95 L153.15 52.0 148.2 53.6 Q152.15 55.6 156.15 55.8 134.4 64.15 107.3 69.15 96.75 71.2 85.1 70.2 60.4 64.9 46.05 56.05 L53.85 55.45 Q43.35 54.4 32.85 49.25 L46.6 47.9 39.35 47.2 Q49.25 43.15 61.45 41.0 82.5 33.4 107.3 33.45 L145.75 36.15" fill="#34154c" fill-rule="evenodd" stroke="none"/>
    <path d="M17.75 46.85 Q71.6 28.35 108.6 26.9 122.9 26.3 134.7 28.2 155.5 32.4 174.5 43.4 162.9 41.05 151.9 45.2 L154.0 46.7 Q161.35 51.7 173.65 53.35 138.35 67.6 102.05 74.45 73.3 75.65 17.75 46.85 M145.75 36.15 L107.3 33.45 Q82.5 33.4 61.45 41.0 49.25 43.15 39.35 47.2 L46.6 47.9 32.85 49.25 Q43.35 54.4 53.85 55.45 L46.05 56.05 Q60.4 64.9 85.1 70.2 96.75 71.2 107.3 69.15 134.4 64.15 156.15 55.8 152.15 55.6 148.2 53.6 L153.15 52.0 139.8 44.95 Q143.6 41.15 156.7 40.65 152.8 37.45 145.75 36.15" fill="#060504" fill-rule="evenodd" stroke="none"/>
    <path d="M177.85 30.15 Q147.05 18.85 126.3 18.55 76.3 21.95 36.85 34.05 10.7 40.05 -9.05 49.4 L-13.65 47.0 Q53.55 20.55 125.85 14.7 144.5 14.5 177.85 30.15" fill="#f6df9e" fill-rule="evenodd" stroke="none"/>
    <path d="M183.6 32.85 L177.85 30.15 Q144.5 14.5 125.85 14.7 53.55 20.55 -13.65 47.0 L-9.05 49.4 -2.95 52.4 Q30.75 68.7 74.1 79.25 L57.85 83.3 59.95 84.35 Q83.25 93.65 154.5 70.8 146.55 76.45 141.45 83.5 154.85 78.65 167.3 70.9 L177.95 63.45 M17.75 46.85 Q71.6 28.35 108.6 26.9 122.9 26.3 134.7 28.2 155.5 32.4 174.5 43.4 162.9 41.05 151.9 45.2 L154.0 46.7 Q161.35 51.7 173.65 53.35 L177.8 53.7 M177.25 44.15 L174.5 43.4 M17.75 46.85 Q73.3 75.65 102.05 74.45 138.35 67.6 173.65 53.35" fill="none" stroke="#1a160c" stroke-linecap="round" stroke-linejoin="round" stroke-width="1.2000000000000002"/>
    <path d="M17.55 46.25 L17.7 46.2 Q18.25 46.1 18.4 46.7 18.5 47.3 17.9 47.4 L13.95 48.25 13.75 48.2 Q13.65 48.0 13.8 48.0 L17.55 46.25" fill="#1a160c" fill-rule="evenodd" stroke="none"/>
  </g>
</svg>
