<?xml version="1.0" encoding="UTF-8" standalone="no"?>
<svg xmlns:xlink="http://www.w3.org/1999/xlink" height="188.0px" width="41.05px" xmlns="http://www.w3.org/2000/svg">
  <g transform="matrix(1.0, 0.0, 0.0, 1.0, 34.0, 96.35)">
    <path d="M-24.0 -31.8 L-24.05 -31.95 Q-25.85 -20.9 -27.8 -10.05 -27.4 4.9 -21.4 19.9 -18.85 35.5 -17.9 52.6 -17.95 55.25 -19.05 58.55 -20.4 65.45 -21.75 70.95 -29.7 101.7 -30.45 86.8 L-27.1 69.8 -24.35 52.55 Q-24.2 36.8 -28.4 21.35 -30.7 6.3 -34.0 -9.35 -33.75 -20.45 -29.15 -32.05 L-27.3 -39.3 Q-23.55 -47.1 -16.6 -53.25 L-13.45 -58.65 -5.4 -74.05 Q-4.25 -77.55 -4.55 -80.85 L-3.65 -88.0 Q-1.9 -92.25 1.9 -96.35 L7.05 -95.5 Q4.75 -90.75 1.9 -87.0 -0.05 -80.75 0.85 -73.25 0.1 -71.3 -1.65 -69.0 -5.4 -63.3 -8.65 -56.8 L-9.9 -54.85 Q-15.75 -45.6 -22.05 -37.85 -23.4 -34.9 -24.0 -31.8" fill="#ffffff" fill-opacity="0.69803923" fill-rule="evenodd" stroke="none"/>
  </g>
</svg>
