<?xml version="1.0" encoding="UTF-8" standalone="no"?>
<svg xmlns:xlink="http://www.w3.org/1999/xlink" height="102.65px" width="32.05px" xmlns="http://www.w3.org/2000/svg">
  <g transform="matrix(1.0, 0.0, 0.0, 1.0, 1.9, 13.25)">
    <path d="M-1.3 -9.15 L-0.65 -12.65 Q9.9 -2.85 17.6 10.15 8.3 -1.7 -1.3 -9.15" fill="#f6df9e" fill-rule="evenodd" stroke="none"/>
    <path d="M25.6 26.25 Q33.05 37.05 26.45 49.15 18.75 72.15 0.7 88.8 -3.2 76.8 -0.25 59.75 L-0.2 60.15 Q-0.85 49.7 -0.7 38.85 L3.2 38.9 3.15 38.9 4.75 41.75 Q8.65 49.45 5.6 54.75 L9.1 50.75 Q11.9 47.35 12.55 45.6 13.45 43.05 13.7 37.45 28.25 41.4 25.6 26.25" fill="#e1be63" fill-rule="evenodd" stroke="none"/>
    <path d="M17.6 10.15 Q22.05 17.65 25.55 26.2 L25.6 26.25 Q28.25 41.4 13.7 37.45 L13.7 36.7 Q13.85 32.35 9.8 26.65 8.05 24.15 5.55 21.45 9.7 26.55 5.8 34.5 L5.35 35.4 3.2 38.9 -0.7 38.85 Q-0.6 28.45 0.25 17.6 L0.35 17.6 Q-3.1 2.95 -1.3 -9.15 8.3 -1.7 17.6 10.15" fill="#f7d373" fill-rule="evenodd" stroke="none"/>
    <path d="M9.8 26.65 Q8.15 32.45 7.45 36.65 7.4 38.05 10.4 37.6 L11.35 38.45 Q9.0 38.2 8.25 39.25 7.75 39.95 7.8 40.9 9.0 45.7 9.1 50.75 L5.6 54.75 Q8.65 49.45 4.75 41.75 4.65 39.25 5.35 35.4 L5.8 34.5 Q9.7 26.55 5.55 21.45 8.05 24.15 9.8 26.65" fill="#c69aa7" fill-rule="evenodd" stroke="none"/>
    <path d="M9.1 50.75 Q9.0 45.7 7.8 40.9 7.75 39.95 8.25 39.25 9.0 38.2 11.35 38.45 L10.4 37.6 Q7.4 38.05 7.45 36.65 8.15 32.45 9.8 26.65 13.85 32.35 13.7 36.7 L13.7 37.45 Q13.45 43.05 12.55 45.6 11.9 47.35 9.1 50.75" fill="#d9a8b7" fill-rule="evenodd" stroke="none"/>
    <path d="M5.35 35.4 Q4.65 39.25 4.75 41.75 L3.15 38.9 3.2 38.9 5.35 35.4" fill="#544147" fill-rule="evenodd" stroke="none"/>
    <path d="M-0.65 -12.65 Q9.9 -2.85 17.6 10.15 22.05 17.65 25.55 26.2 L25.6 26.25 Q33.05 37.05 26.45 49.15 18.75 72.15 0.7 88.8 M9.1 50.75 Q11.9 47.35 12.55 45.6 13.45 43.05 13.7 37.45 L13.7 36.7 Q13.85 32.35 9.8 26.65 8.05 24.15 5.55 21.45 9.7 26.55 5.8 34.5 L5.35 35.4 3.2 38.9 3.15 38.9 4.75 41.75 Q8.65 49.45 5.6 54.75 L9.1 50.75" fill="none" stroke="#1a160c" stroke-linecap="round" stroke-linejoin="round" stroke-width="1.2000000000000002"/>
    <path d="M5.1 54.4 L5.1 54.35 Q5.45 53.9 5.95 54.2 6.45 54.6 6.05 55.05 L5.9 55.3 5.7 55.55 5.4 55.85 5.35 55.95 5.05 56.25 4.85 56.4 4.15 57.0 3.9 57.15 3.8 57.25 3.65 57.3 3.5 57.4 3.4 57.5 3.15 57.65 2.85 57.75 2.75 57.85 1.55 58.35 1.45 58.35 1.25 58.45 0.95 58.55 0.7 58.6 Q0.35 58.7 0.25 58.4 0.15 58.05 0.45 57.95 L1.0 57.75 1.15 57.65 1.25 57.6 1.35 57.6 2.2 57.15 2.3 57.05 2.45 57.0 2.9 56.7 3.0 56.6 3.1 56.55 3.25 56.45 3.35 56.35 3.55 56.2 3.75 56.0 3.95 55.85 4.05 55.75 4.1 55.65 4.3 55.5 4.45 55.3 4.5 55.2 4.7 55.0 5.1 54.4 M5.95 21.0 Q6.35 21.5 5.9 21.85 L5.05 21.8 4.9 21.6 3.9 20.5 3.55 20.2 3.4 20.0 3.2 19.85 2.85 19.5 1.3 18.3 1.1 18.2 1.1 18.15 Q0.8 17.95 1.0 17.7 1.1 17.45 1.45 17.55 L1.65 17.7 2.6 18.25 4.0 19.25 4.2 19.45 5.3 20.35 5.95 21.0" fill="#1a160c" fill-rule="evenodd" stroke="none"/>
  </g>
</svg>
