<?xml version="1.0" encoding="UTF-8" standalone="no"?>
<svg xmlns:xlink="http://www.w3.org/1999/xlink" height="117.05px" width="64.1px" xmlns="http://www.w3.org/2000/svg">
  <g transform="matrix(1.0, 0.0, 0.0, 1.0, 0.6, 0.6)">
    <path d="M2.9 11.45 Q12.1 39.1 22.75 54.7 L14.5 55.95 Q6.35 46.2 2.5 35.5 -2.7 21.2 2.9 11.45 M32.9 108.9 Q31.85 107.1 30.75 104.8 L30.35 103.55 36.2 102.7 Q35.85 106.2 32.9 108.9 M25.6 88.25 L20.45 71.85 Q25.3 71.55 29.7 70.5 31.1 81.5 33.05 87.05 L25.6 88.25" fill="#444d5c" fill-rule="evenodd" stroke="none"/>
    <path d="M22.75 54.7 Q30.7 52.9 37.75 49.0 40.25 57.6 42.15 65.35 36.5 68.8 29.7 70.5 26.25 59.55 22.75 54.7 M45.65 82.25 Q47.1 90.8 47.6 98.1 42.4 101.35 36.2 102.7 33.65 94.55 33.05 87.05 39.7 85.45 45.65 82.25" fill="#923d3c" fill-rule="evenodd" stroke="none"/>
    <path d="M2.9 11.45 Q4.3 9.0 6.4 6.85 24.4 -4.25 43.0 2.7 38.55 29.5 37.15 47.1 L37.75 49.0 Q30.7 52.9 22.75 54.7 12.1 39.1 2.9 11.45 M42.15 65.35 Q44.3 74.35 45.65 82.25 39.7 85.45 33.05 87.05 31.1 81.5 29.7 70.5 36.5 68.8 42.15 65.35 M47.6 98.1 Q72.2 99.6 57.3 111.85 52.35 115.95 39.95 115.85 37.1 116.25 32.9 108.9 35.85 106.2 36.2 102.7 42.4 101.35 47.6 98.1" fill="#2b414c" fill-rule="evenodd" stroke="none"/>
    <path d="M30.35 103.55 L25.6 88.25 33.05 87.05 Q33.65 94.55 36.2 102.7 L30.35 103.55 M20.45 71.85 L17.15 64.4 Q16.0 62.6 14.5 55.95 L22.75 54.7 Q26.25 59.55 29.7 70.5 25.3 71.55 20.45 71.85" fill="#e75a47" fill-rule="evenodd" stroke="none"/>
    <path d="M37.75 49.0 L37.15 47.1 Q38.55 29.5 43.0 2.7 24.4 -4.25 6.4 6.85 4.3 9.0 2.9 11.45 -2.7 21.2 2.5 35.5 6.35 46.2 14.5 55.95 16.0 62.6 17.15 64.4 L20.45 71.85 25.6 88.25 30.35 103.55 30.75 104.8 Q31.85 107.1 32.9 108.9 37.1 116.25 39.95 115.85 52.35 115.95 57.3 111.85 72.2 99.6 47.6 98.1 42.4 101.35 36.2 102.7 L30.35 103.55 M22.75 54.7 Q30.7 52.9 37.75 49.0 40.25 57.6 42.15 65.35 44.3 74.35 45.65 82.25 47.1 90.8 47.6 98.1 M22.75 54.7 L14.5 55.95 M33.05 87.05 L25.6 88.25 M29.7 70.5 Q25.3 71.55 20.45 71.85 M33.05 87.05 Q39.7 85.45 45.65 82.25 M29.7 70.5 Q36.5 68.8 42.15 65.35" fill="none" stroke="#303234" stroke-linecap="round" stroke-linejoin="round" stroke-width="1.2000000000000002"/>
  </g>
</svg>
