<?xml version="1.0" encoding="UTF-8" standalone="no"?>
<svg xmlns:xlink="http://www.w3.org/1999/xlink" height="245.35px" width="63.1px" xmlns="http://www.w3.org/2000/svg">
  <g transform="matrix(1.0, 0.0, 0.0, 1.0, 31.55, 122.7)">
    <path d="M24.9 -103.05 Q27.3 -99.25 23.3 -93.9 22.25 -92.45 20.6 -93.05 19.1 -97.0 22.15 -100.85 23.35 -102.4 24.9 -103.05 M29.35 -122.7 Q31.7 -120.25 31.55 -116.05 L31.55 -115.8 Q31.6 -115.55 31.45 -115.55 31.25 -114.95 30.5 -114.7 27.3 -116.8 28.05 -121.3 28.25 -122.5 29.35 -122.7 M16.55 -91.45 Q14.25 -86.7 11.4 -82.9 9.45 -76.65 10.3 -69.15 9.65 -67.2 7.85 -64.9 4.05 -59.25 0.8 -52.7 L-0.45 -50.75 Q-6.2 -41.6 -12.55 -33.8 -13.9 -30.85 -14.5 -27.75 L-14.55 -27.9 -18.25 -5.95 Q-17.95 9.0 -11.95 24.0 -9.4 39.6 -8.45 56.65 -8.5 59.35 -9.55 62.65 L-12.25 75.05 Q-20.2 105.8 -20.95 90.85 L-17.65 73.85 Q-16.05 65.1 -14.9 56.65 -14.75 40.9 -18.95 25.4 -21.2 10.4 -24.5 -5.3 -24.2 -16.3 -19.65 -28.0 L-17.8 -35.25 Q-14.05 -43.05 -7.1 -49.2 L-4.0 -54.55 4.05 -70.0 Q5.2 -73.5 4.95 -76.8 L5.85 -83.9 Q7.5 -88.25 11.4 -92.3 L16.55 -91.45 M-21.85 -48.25 Q-20.35 -41.4 -27.45 -33.65 -28.95 -32.0 -31.45 -32.2 -32.4 -39.7 -25.35 -45.35 L-21.85 -48.25 M-4.8 -3.65 Q-3.6 0.95 -3.4 7.8 -3.3 9.35 -3.7 11.0 -10.0 8.95 -7.55 -0.95 -7.05 -3.05 -4.8 -3.65 M-20.8 108.95 Q-18.15 112.65 -19.4 120.0 -19.7 121.85 -21.4 122.65 -24.3 118.25 -22.9 111.65 -22.5 109.65 -20.8 108.95" fill="#ffffff" fill-opacity="0.69803923" fill-rule="evenodd" stroke="none"/>
  </g>
</svg>
