<?xml version="1.0" encoding="UTF-8" standalone="no"?>
<svg xmlns:xlink="http://www.w3.org/1999/xlink" height="114.3px" width="122.35px" xmlns="http://www.w3.org/2000/svg">
  <g transform="matrix(1.0, 0.0, 0.0, 1.0, 0.6, 0.6)">
    <path d="M21.55 66.55 L0.0 16.0 Q36.95 26.55 56.05 15.1 101.15 5.7 84.4 32.1 76.55 39.35 66.7 45.5 71.1 46.3 74.7 44.9 68.25 50.6 59.9 53.35 62.8 54.25 65.65 53.95 47.0 66.15 21.55 66.55 M60.95 11.5 L62.05 10.5 Q77.35 1.2 89.35 0.15 L74.25 7.8 60.95 11.5" fill="#444d5c" fill-rule="evenodd" stroke="none"/>
    <path d="M34.15 96.1 L21.55 66.55 Q47.0 66.15 65.65 53.95 62.8 54.25 59.9 53.35 68.25 50.6 74.7 44.9 71.1 46.3 66.7 45.5 76.55 39.35 84.4 32.1 101.15 5.7 56.05 15.1 L60.95 11.5 74.25 7.8 89.35 0.15 91.15 0.0 Q91.9 18.75 97.0 25.25 105.65 33.85 113.0 37.45 86.55 76.45 35.55 96.5 L34.15 96.1" fill="#3c4451" fill-rule="evenodd" stroke="none"/>
    <path d="M91.15 0.0 Q99.05 -0.3 105.45 3.15 113.55 7.55 119.3 17.9 120.6 20.7 121.0 24.15 122.4 37.05 110.8 58.75 105.95 67.8 98.85 78.4 65.35 118.3 41.05 112.35 L34.15 96.1 35.55 96.5 Q86.55 76.45 113.0 37.45 105.65 33.85 97.0 25.25 91.9 18.75 91.15 0.0" fill="#2b414c" fill-rule="evenodd" stroke="none"/>
    <path d="M91.15 0.0 Q99.05 -0.3 105.45 3.15 113.55 7.55 119.3 17.9 120.6 20.7 121.0 24.15 122.4 37.05 110.8 58.75 105.95 67.8 98.85 78.4 65.35 118.3 41.05 112.35 M0.0 16.0 Q36.95 26.55 56.05 15.1 L60.95 11.5 62.05 10.5 Q77.35 1.2 89.35 0.15 L91.15 0.0 Z" fill="none" stroke="#303234" stroke-linecap="round" stroke-linejoin="round" stroke-width="1.2000000000000002"/>
  </g>
</svg>
