<?xml version="1.0" encoding="UTF-8" standalone="no"?>
<svg xmlns:xlink="http://www.w3.org/1999/xlink" height="41.05px" width="60.1px" xmlns="http://www.w3.org/2000/svg">
  <g transform="matrix(1.0, 0.0, 0.0, 1.0, 0.6, 0.6)">
    <path d="M54.8 19.3 L55.2 19.7 57.1 21.55 59.0 23.5 46.6 35.15 47.35 32.6 30.9 40.25 32.55 37.65 17.25 40.45 20.4 37.3 16.9 35.15 13.5 32.75 16.05 30.35 22.95 31.6 20.45 30.35 Q25.55 31.05 27.7 28.45 29.7 26.95 21.95 22.55 23.7 23.35 25.1 23.15 L23.5 21.8 19.6 17.9 23.1 15.65 Q24.2 19.45 29.4 22.4 L36.2 23.55 31.55 21.45 37.25 21.2 Q32.9 18.1 30.05 9.5 L32.65 11.9 34.1 14.4 Q37.3 12.8 39.05 10.4 42.45 13.2 45.85 14.1 L42.6 9.65 Q48.65 13.5 54.8 19.3" fill="#3c4451" fill-rule="evenodd" stroke="none"/>
    <path d="M42.6 9.65 L45.85 14.1 Q42.45 13.2 39.05 10.4 L40.25 8.25 42.25 9.45 42.6 9.65 M30.05 9.5 Q32.9 18.1 37.25 21.2 L31.55 21.45 36.2 23.55 29.4 22.4 Q24.2 19.45 23.1 15.65 25.75 13.5 27.6 10.8 L28.9 8.55 29.8 9.25 30.05 9.5 M21.95 22.55 Q29.7 26.95 27.7 28.45 25.55 31.05 20.45 30.35 L22.95 31.6 16.05 30.35 Q17.9 27.05 18.45 24.45 18.75 22.95 19.65 21.5 18.8 21.15 18.8 20.9 L19.3 21.25 Q20.65 22.1 21.95 22.55" fill="#444d5c" fill-rule="evenodd" stroke="none"/>
    <path d="M40.25 8.25 L39.05 10.4 Q34.65 7.0 29.95 5.45 L29.2 3.15 Q35.15 5.3 40.25 8.25 M28.9 8.55 L27.6 10.8 Q25.75 13.5 23.1 15.65 21.5 13.3 19.2 12.4 L22.15 13.0 Q16.6 11.5 9.15 1.7 L9.05 1.45 8.35 0.0 Q19.5 0.9 28.9 8.55 M0.05 19.6 L8.05 21.0 5.7 21.85 19.65 21.5 Q18.75 22.95 18.45 24.45 17.9 27.05 16.05 30.35 12.5 29.6 4.9 25.9 2.1 23.8 0.05 19.6" fill="#e75a47" fill-rule="evenodd" stroke="none"/>
    <path d="M39.05 10.4 Q37.3 12.8 34.1 14.4 L32.65 11.9 Q31.15 9.05 29.95 5.45 34.65 7.0 39.05 10.4 M23.1 15.65 L19.6 17.9 Q13.6 11.25 9.15 1.7 16.6 11.5 22.15 13.0 L19.2 12.4 Q21.5 13.3 23.1 15.65 M16.05 30.35 L13.5 32.75 4.9 25.9 Q12.5 29.6 16.05 30.35" fill="#a84444" fill-rule="evenodd" stroke="none"/>
    <path d="M0.05 19.6 L0.0 19.55 9.85 19.15 Q14.2 19.5 18.8 20.9 18.8 21.15 19.65 21.5 L5.7 21.85 8.05 21.0 0.05 19.6" fill="#e86e5e" fill-rule="evenodd" stroke="none"/>
    <path d="M54.8 19.3 Q48.65 13.5 42.6 9.65 L42.25 9.45 40.25 8.25 Q35.15 5.3 29.2 3.15 L29.95 5.45 Q31.15 9.05 32.65 11.9 L30.05 9.5 M19.6 17.9 L23.5 21.8 25.1 23.15 Q23.7 23.35 21.95 22.55 20.65 22.1 19.3 21.25 L18.8 20.9 Q14.2 19.5 9.85 19.15 L0.0 19.55 0.05 19.6 Q2.1 23.8 4.9 25.9 L13.5 32.75 16.9 35.15 20.4 37.3 M29.8 9.25 L28.9 8.55 Q19.5 0.9 8.35 0.0 L9.05 1.45 M9.15 1.7 Q13.6 11.25 19.6 17.9" fill="none" stroke="#303234" stroke-linecap="round" stroke-linejoin="miter-clip" stroke-miterlimit="5.0" stroke-width="1.2000000000000002"/>
    <path d="M24.55 23.4 L24.5 23.35 24.5 22.9 Q24.6 22.65 24.8 22.55 25.3 22.3 25.6 22.8 L25.45 22.7 25.55 22.8 25.6 22.8 25.6 22.85 25.65 22.85 26.45 23.5 27.05 23.95 28.05 24.5 29.35 25.25 31.15 26.1 31.2 26.2 31.1 26.25 30.65 26.15 29.15 25.7 28.8 25.55 28.45 25.45 26.65 24.7 24.8 23.7 24.65 23.6 24.6 23.5 24.6 23.45 24.55 23.45 24.55 23.4 M59.45 23.75 L59.45 23.9 59.3 23.9 57.05 22.0 56.85 21.8 56.6 21.65 56.2 21.3 54.75 20.1 54.7 20.05 Q54.25 19.6 54.75 19.2 54.95 19.0 55.2 19.05 L55.6 19.25 59.45 23.75 M32.1 12.15 L32.05 12.1 Q31.85 11.55 32.35 11.3 32.85 11.05 33.15 11.6 L34.4 13.95 34.5 14.1 34.5 14.15 34.75 14.6 34.85 14.65 34.9 14.75 36.3 16.7 37.3 17.85 37.45 17.95 38.3 18.75 38.45 18.85 39.0 19.35 40.25 20.2 40.95 20.55 40.9 20.55 41.3 20.75 41.35 20.85 41.25 20.9 40.85 20.8 40.8 20.8 40.1 20.45 39.8 20.25 39.25 20.0 37.8 19.0 37.2 18.5 37.05 18.4 35.25 16.6 34.25 15.4 34.15 15.25 34.05 15.2 34.0 15.1 33.8 14.8 33.7 14.7 33.7 14.65 33.65 14.65 33.55 14.45 32.1 12.15 M25.6 22.8 L25.6 22.85 25.6 22.8" fill="#303234" fill-rule="evenodd" stroke="none"/>
  </g>
</svg>
