<?xml version="1.0" encoding="UTF-8" standalone="no"?>
<svg xmlns:xlink="http://www.w3.org/1999/xlink" height="39.0px" width="23.05px" xmlns="http://www.w3.org/2000/svg">
  <g transform="matrix(1.0, 0.0, 0.0, 1.0, 0.6, 0.65)">
    <path d="M0.45 20.85 Q-1.55 5.4 5.4 0.7 L9.4 0.0 Q18.2 9.5 13.8 14.25 9.4 18.95 0.45 20.85" fill="#444d5c" fill-rule="evenodd" stroke="none"/>
    <path d="M15.1 34.5 Q14.2 34.1 13.3 33.15 12.6 32.85 12.3 32.15 11.25 30.5 11.8 26.65 L11.9 26.15 Q12.65 24.2 13.75 23.6 18.65 26.1 15.1 34.5 M8.25 36.3 L7.85 36.2 Q7.05 34.4 7.0 32.4 6.9 29.9 7.75 26.9 L8.05 26.25 Q10.05 27.1 10.3 28.8 11.75 34.35 8.25 36.3 M4.15 24.95 Q5.35 25.4 6.2 27.1 L5.9 30.25 Q4.1 31.8 2.15 29.95 3.0 26.4 4.15 24.95" fill="#b67474" fill-rule="evenodd" stroke="none"/>
    <path d="M3.15 33.95 L2.95 33.1 2.15 29.95 Q4.1 31.8 5.9 30.25 L6.2 27.1 Q5.35 25.4 4.15 24.95 5.9 22.65 8.3 25.65 9.55 23.45 11.8 26.65 11.25 30.5 12.3 32.15 11.6 36.9 8.25 36.3 11.75 34.35 10.3 28.8 10.05 27.1 8.05 26.25 L7.75 26.9 Q6.9 29.9 7.0 32.4 6.3 34.6 4.95 34.65 4.15 34.65 3.15 33.95 M13.75 23.6 Q15.35 22.65 17.7 24.65 20.35 30.65 15.1 34.5 18.65 26.1 13.75 23.6 M8.05 26.25 L8.3 25.65 8.05 26.25" fill="#9a6262" fill-rule="evenodd" stroke="none"/>
    <path d="M9.4 0.0 Q13.8 -0.3 15.4 2.4 23.95 19.0 21.15 28.6 19.1 36.2 15.1 34.5 13.65 39.95 7.85 36.2 4.1 36.45 3.15 33.95 4.15 34.65 4.95 34.65 6.3 34.6 7.0 32.4 7.05 34.4 7.85 36.2 L8.25 36.3 Q11.6 36.9 12.3 32.15 12.6 32.85 13.3 33.15 14.2 34.1 15.1 34.5 20.35 30.65 17.7 24.65 15.35 22.65 13.75 23.6 12.65 24.2 11.9 26.15 L11.8 26.65 Q9.55 23.45 8.3 25.65 5.9 22.65 4.15 24.95 3.0 26.4 2.15 29.95 0.95 25.0 0.45 20.85 9.4 18.95 13.8 14.25 18.2 9.5 9.4 0.0" fill="#3c4451" fill-rule="evenodd" stroke="none"/>
    <path d="M0.45 20.85 Q-1.55 5.4 5.4 0.7 L9.4 0.0 Q13.8 -0.3 15.4 2.4 23.95 19.0 21.15 28.6 19.1 36.2 15.1 34.5 13.65 39.95 7.85 36.2 4.1 36.45 3.15 33.95 L2.95 33.1 2.15 29.95 Q0.95 25.0 0.45 20.85 M15.1 34.5 Q14.2 34.1 13.3 33.15" fill="none" stroke="#303234" stroke-linecap="round" stroke-linejoin="round" stroke-width="1.2000000000000002"/>
    <path d="M13.75 23.6 Q15.35 22.65 17.7 24.65 20.35 30.65 15.1 34.5 M13.3 33.15 Q12.6 32.85 12.3 32.15 11.6 36.9 8.25 36.3 L7.85 36.2 Q7.05 34.4 7.0 32.4 6.3 34.6 4.95 34.65 4.15 34.65 3.15 33.95 M11.8 26.65 L11.9 26.15 Q12.65 24.2 13.75 23.6 M12.3 32.15 Q11.25 30.5 11.8 26.65 9.55 23.45 8.3 25.65 L8.05 26.25 7.75 26.9 Q6.9 29.9 7.0 32.4 M2.15 29.95 Q3.0 26.4 4.15 24.95 5.9 22.65 8.3 25.65" fill="none" stroke="#303234" stroke-linecap="round" stroke-linejoin="round" stroke-width="0.8"/>
  </g>
</svg>
