<?xml version="1.0" encoding="UTF-8" standalone="no"?>
<svg xmlns:xlink="http://www.w3.org/1999/xlink" height="86.95px" width="41.6px" xmlns="http://www.w3.org/2000/svg">
  <g transform="matrix(1.0, 0.0, 0.0, 1.0, 5.9, -8.5)">
    <path d="M28.4 81.2 Q23.4 76.3 18.75 65.7 17.1 68.1 16.75 73.95 13.9 68.0 11.9 59.85 10.3 53.3 9.3 45.35 8.0 48.55 8.65 54.4 4.1 49.95 0.75 37.35 L0.7 37.25 0.75 37.75 1.1 40.7 1.1 40.75 1.2 41.65 1.65 45.35 1.6 45.5 1.5 44.75 Q-0.65 46.75 -1.65 51.3 -2.75 43.45 -1.45 36.0 -3.3 35.05 -5.3 36.35 -3.5 32.95 -0.55 32.1 -2.85 30.2 -2.65 27.35 -1.4 28.95 0.25 29.55 1.45 27.3 9.35 15.0 17.25 2.7 27.75 13.6 38.2 24.4 33.75 45.1 33.05 60.1 33.15 69.5 L32.8 70.7 31.7 73.9 Q30.3 77.6 28.4 81.2" fill="#3c4451" fill-rule="evenodd" stroke="none"/>
    <path d="M1.1 40.7 L0.75 37.75 0.7 37.25 0.75 37.35 Q4.1 49.95 8.65 54.4 8.0 48.55 9.3 45.35 10.3 53.3 11.9 59.85 13.9 68.0 16.75 73.95 17.1 68.1 18.75 65.7 23.4 76.3 28.4 81.2 24.65 88.2 19.05 94.85 12.25 90.45 7.4 74.5 5.5 68.15 3.95 59.85 2.7 53.45 1.75 45.85 L1.65 45.35 1.2 41.65 1.1 40.75 1.1 40.7" fill="#444d5c" fill-rule="evenodd" stroke="none"/>
    <path d="M31.7 73.9 L32.8 70.7 33.15 69.5 Q33.05 60.1 33.75 45.1 38.2 24.4 27.75 13.6 M1.65 45.35 L1.75 45.85 Q2.7 53.45 3.95 59.85 5.5 68.15 7.4 74.5 12.25 90.45 19.05 94.85" fill="none" stroke="#303234" stroke-linecap="round" stroke-linejoin="round" stroke-width="1.2000000000000002"/>
    <path d="M0.25 29.55 Q-1.4 28.95 -2.65 27.35 -2.85 30.2 -0.55 32.1 -3.5 32.95 -5.3 36.35 -3.3 35.05 -1.45 36.0 -2.75 43.45 -1.65 51.3 -0.65 46.75 1.5 44.75 M1.6 45.5 L1.65 45.35" fill="none" stroke="#303234" stroke-linecap="round" stroke-linejoin="miter-clip" stroke-miterlimit="5.0" stroke-width="1.2000000000000002"/>
    <path d="M0.65 37.75 Q0.55 37.65 0.7 37.65 0.8 37.55 0.8 37.7 L1.35 40.65 1.35 40.7 1.9 44.25 2.0 44.5 2.15 45.4 2.1 45.3 2.15 45.4 2.3 45.65 Q2.6 46.2 2.0 46.4 L1.55 46.4 Q1.3 46.35 1.2 46.1 L1.05 45.65 1.0 45.6 1.0 45.55 0.95 44.65 0.9 44.35 0.85 41.65 0.8 41.35 0.65 37.75" fill="#303234" fill-rule="evenodd" stroke="none"/>
  </g>
</svg>
