<?xml version="1.0" encoding="UTF-8" standalone="no"?>
<svg xmlns:xlink="http://www.w3.org/1999/xlink" height="74.0px" width="67.7px" xmlns="http://www.w3.org/2000/svg">
  <g transform="matrix(1.0, 0.0, 0.0, 1.0, 33.55, 37.2)">
    <path d="M20.5 -25.0 L20.5 -25.05 28.15 -29.8 Q29.65 -30.6 30.85 -29.8 26.1 -25.0 23.75 -18.8 8.35 26.05 -19.3 36.2 L-19.3 36.15 -20.1 33.35 Q9.55 16.85 20.5 -24.95 L20.5 -25.0" fill="#36414c" fill-rule="evenodd" stroke="none"/>
    <path d="M28.15 -29.8 L20.5 -25.05 20.5 -25.0 20.5 -24.95 Q-6.45 -1.35 -28.85 1.4 L-32.95 -13.8 Q-24.75 -19.0 -15.65 -22.85 1.2 -24.0 21.15 -28.85 25.7 -29.85 32.35 -35.95 L32.95 -36.2 Q31.15 -32.75 28.15 -29.8 M20.5 -25.05 L20.5 -24.95 20.5 -25.05 M-25.3 14.35 L-19.85 14.2 Q-20.35 16.15 -21.6 16.8 -18.9 17.75 -16.7 17.65 -19.25 18.55 -18.95 19.5 L-12.4 18.95 Q-16.45 24.05 -21.75 27.35 L-25.3 14.35" fill="#3c4451" fill-rule="evenodd" stroke="none"/>
    <path d="M32.35 -35.95 Q25.7 -29.85 21.15 -28.85 1.2 -24.0 -15.65 -22.85 -0.2 -29.45 17.75 -32.15 25.3 -33.15 32.35 -35.95" fill="#444d5c" fill-rule="evenodd" stroke="none"/>
    <path d="M20.5 -24.95 Q9.55 16.85 -20.1 33.35 L-21.75 27.35 Q-16.45 24.05 -12.4 18.95 L-18.95 19.5 Q-19.25 18.55 -16.7 17.65 -18.9 17.75 -21.6 16.8 -20.35 16.15 -19.85 14.2 L-25.3 14.35 -28.85 1.4 Q-6.45 -1.35 20.5 -24.95" fill="url(#gradient0)" fill-rule="evenodd" stroke="none"/>
    <path d="M20.5 -25.0 L20.5 -24.95 Q9.55 16.85 -20.1 33.35 M-19.3 36.15 L-19.3 36.2 Q8.35 26.05 23.75 -18.8 M-15.65 -22.85 Q-24.75 -19.0 -32.95 -13.8 M-28.85 1.4 Q-6.45 -1.35 20.5 -24.95 L20.5 -25.05 M-15.65 -22.85 Q-0.2 -29.45 17.75 -32.15" fill="none" stroke="#303234" stroke-linecap="round" stroke-linejoin="round" stroke-width="1.2000000000000002"/>
    <path d="M23.75 -18.8 Q26.1 -25.0 30.85 -29.8 29.65 -30.6 28.15 -29.8 31.15 -32.75 32.95 -36.2 L32.35 -35.95 Q25.3 -33.15 17.75 -32.15 M-21.75 27.35 Q-16.45 24.05 -12.4 18.95 L-18.95 19.5 Q-19.25 18.55 -16.7 17.65 -18.9 17.75 -21.6 16.8 -20.35 16.15 -19.85 14.2 L-25.3 14.35" fill="none" stroke="#303234" stroke-linecap="round" stroke-linejoin="miter-clip" stroke-miterlimit="5.0" stroke-width="1.2000000000000002"/>
  </g>
  <defs>
    <radialGradient cx="0" cy="0" gradientTransform="matrix(0.0209, 0.0209, -0.033, 0.033, -10.45, -8.1)" gradientUnits="userSpaceOnUse" id="gradient0" r="819.2" spreadMethod="pad">
      <stop offset="0.32941176470588235" stop-color="#cececc"/>
      <stop offset="0.7294117647058823" stop-color="#909191"/>
    </radialGradient>
  </defs>
</svg>
