<?xml version="1.0" encoding="UTF-8" standalone="no"?>
<svg xmlns:xlink="http://www.w3.org/1999/xlink" height="53.05px" width="78.55px" xmlns="http://www.w3.org/2000/svg">
  <g transform="matrix(1.0, 0.0, 0.0, 1.0, 0.0, 0.0)">
    <path d="M72.6 18.65 Q80.45 23.4 77.9 37.55 72.05 50.55 68.15 52.2 59.2 54.85 53.65 49.2 64.05 19.95 72.6 18.65" fill="url(#gradient0)" fill-rule="evenodd" stroke="none"/>
    <path d="M26.95 0.75 Q33.0 1.95 35.65 4.95 37.8 7.75 38.25 12.15 L38.25 12.4 Q36.45 24.05 26.9 40.65 11.1 39.7 4.35 33.2 -4.7 26.35 5.1 4.2 8.9 1.5 15.35 0.3 L26.95 0.75" fill="url(#gradient1)" fill-rule="evenodd" stroke="none"/>
  </g>
  <defs>
    <radialGradient cx="0" cy="0" gradientTransform="matrix(0.0182, 0.0049, -0.0063, 0.0236, 67.7, 32.1)" gradientUnits="userSpaceOnUse" id="gradient0" r="819.2" spreadMethod="pad">
      <stop offset="0.40784313725490196" stop-color="#efdb11"/>
      <stop offset="0.6823529411764706" stop-color="#f3e447"/>
    </radialGradient>
    <radialGradient cx="0" cy="0" gradientTransform="matrix(0.0333, 0.0089, -0.008, 0.03, 20.6, 15.15)" gradientUnits="userSpaceOnUse" id="gradient1" r="819.2" spreadMethod="pad">
      <stop offset="0.40784313725490196" stop-color="#efdb11"/>
      <stop offset="0.6823529411764706" stop-color="#f3e447"/>
    </radialGradient>
  </defs>
</svg>
