<?xml version="1.0" encoding="UTF-8" standalone="no"?>
<svg xmlns:xlink="http://www.w3.org/1999/xlink" height="32.25px" width="18.65px" xmlns="http://www.w3.org/2000/svg">
  <g transform="matrix(1.0, 0.0, 0.0, 1.0, 9.1, 16.1)">
    <path d="M7.2 1.5 L6.3 4.15 Q4.7 8.35 2.6 11.2 -0.05 15.0 -2.0 14.4 -4.0 13.9 -4.0 9.25 -4.05 5.6 -2.8 1.2 L-2.1 -1.4 Q-0.15 -7.3 2.55 -11.1 5.2 -14.85 7.15 -14.3 9.15 -13.7 9.15 -9.1 9.1 -4.35 7.2 1.5" fill="url(#gradient0)" fill-rule="evenodd" stroke="none"/>
    <path d="M7.2 1.5 L6.3 4.15 Q4.7 8.35 2.6 11.2 -0.05 15.0 -2.0 14.4 -4.0 13.9 -4.0 9.25 -4.05 5.6 -2.8 1.2 L-2.1 -1.4 Q-0.15 -7.3 2.55 -11.1 5.2 -14.85 7.15 -14.3 9.15 -13.7 9.15 -9.1 9.1 -4.35 7.2 1.5 Z" fill="none" stroke="#303234" stroke-linecap="round" stroke-linejoin="round" stroke-width="0.8"/>
    <path d="M0.9 -4.15 Q-0.35 -0.3 -2.75 1.3 -5.05 3.1 -6.85 2.25 -8.8 1.05 -8.95 -2.35 -9.5 -5.65 -8.05 -9.3 -6.65 -13.2 -4.1 -14.95 -2.0 -16.85 0.0 -15.55 1.8 -14.65 2.1 -11.35 2.4 -8.0 0.9 -4.15" fill="url(#gradient1)" fill-rule="evenodd" stroke="none"/>
    <path d="M7.45 5.65 Q10.5 2.0 6.65 12.1 2.6 17.0 0.15 16.0 2.7 14.2 5.35 10.8 6.9 9.05 7.45 5.65" fill="#f5f4b6" fill-opacity="0.8" fill-rule="evenodd" stroke="none"/>
  </g>
  <defs>
    <radialGradient cx="0" cy="0" gradientTransform="matrix(0.0224, 0.0083, -0.0085, 0.0215, 5.4, -8.1)" gradientUnits="userSpaceOnUse" id="gradient0" r="819.2" spreadMethod="pad">
      <stop offset="0.12941176470588237" stop-color="#14171c"/>
      <stop offset="0.40784313725490196" stop-color="#323843"/>
      <stop offset="0.6823529411764706" stop-color="#d95442"/>
      <stop offset="0.9725490196078431" stop-color="#f05d49"/>
    </radialGradient>
    <radialGradient cx="0" cy="0" gradientTransform="matrix(0.0062, 0.0035, -0.004, 0.0103, -3.55, -6.7)" gradientUnits="userSpaceOnUse" id="gradient1" r="819.2" spreadMethod="pad">
      <stop offset="0.0" stop-color="#f5f4b6"/>
      <stop offset="0.6862745098039216" stop-color="#f5eb87"/>
      <stop offset="1.0" stop-color="#f5eb87" stop-opacity="0.0"/>
    </radialGradient>
  </defs>
</svg>
