<?xml version="1.0" encoding="UTF-8" standalone="no"?>
<svg xmlns:xlink="http://www.w3.org/1999/xlink" height="27.35px" width="18.25px" xmlns="http://www.w3.org/2000/svg">
  <g transform="matrix(1.0, 0.0, 0.0, 1.0, 9.3, 13.85)">
    <path d="M0.9 0.5 L0.15 2.75 Q-1.4 6.4 -3.25 8.95 -5.6 12.15 -7.3 11.6 -9.0 11.1 -8.9 7.05 -8.85 3.85 -7.7 0.0 L-7.05 -2.25 Q-5.15 -7.4 -2.8 -10.65 -0.4 -13.9 1.3 -13.35 2.95 -12.85 2.85 -8.8 2.7 -4.6 0.9 0.5" fill="url(#gradient0)" fill-rule="evenodd" stroke="none"/>
    <path d="M0.9 0.5 L0.15 2.75 Q-1.4 6.4 -3.25 8.95 -5.6 12.15 -7.3 11.6 -9.0 11.1 -8.9 7.05 -8.85 3.85 -7.7 0.0 L-7.05 -2.25 Q-5.15 -7.4 -2.8 -10.65 -0.4 -13.9 1.3 -13.35 2.95 -12.85 2.85 -8.8 2.7 -4.6 0.9 0.5 Z" fill="none" stroke="#303234" stroke-linecap="round" stroke-linejoin="round" stroke-width="0.8"/>
    <path d="M6.15 -0.9 Q4.55 2.65 2.85 3.65 1.15 4.95 0.45 3.8 -0.35 2.25 0.45 -1.15 0.95 -4.4 2.6 -7.6 4.4 -11.1 6.2 -12.25 7.8 -13.7 8.5 -11.95 9.3 -10.85 8.65 -7.55 7.95 -4.3 6.15 -0.9" fill="url(#gradient1)" fill-rule="evenodd" stroke="none"/>
    <path d="M4.7 5.5 Q8.05 2.85 2.9 10.9 -1.5 14.45 -3.45 13.15 -0.65 12.25 2.0 9.55 3.65 8.35 4.7 5.5" fill="#f5f4b6" fill-opacity="0.8" fill-rule="evenodd" stroke="none"/>
  </g>
  <defs>
    <radialGradient cx="0" cy="0" gradientTransform="matrix(0.0192, 0.0078, -0.0078, 0.0187, -0.45, -7.95)" gradientUnits="userSpaceOnUse" id="gradient0" r="819.2" spreadMethod="pad">
      <stop offset="0.12941176470588237" stop-color="#14171c"/>
      <stop offset="0.40784313725490196" stop-color="#323843"/>
      <stop offset="0.6823529411764706" stop-color="#d95442"/>
      <stop offset="0.9725490196078431" stop-color="#f05d49"/>
    </radialGradient>
    <radialGradient cx="0" cy="0" gradientTransform="matrix(0.0025, 0.0046, -0.0047, 0.0091, 4.45, -4.3)" gradientUnits="userSpaceOnUse" id="gradient1" r="819.2" spreadMethod="pad">
      <stop offset="0.0" stop-color="#f5f4b6" stop-opacity="0.8"/>
      <stop offset="0.6862745098039216" stop-color="#f5eb87"/>
      <stop offset="1.0" stop-color="#f5eb87" stop-opacity="0.0"/>
    </radialGradient>
  </defs>
</svg>
