<?xml version="1.0" encoding="UTF-8" standalone="no"?>
<svg xmlns:xlink="http://www.w3.org/1999/xlink" height="21.05px" width="28.5px" xmlns="http://www.w3.org/2000/svg">
  <g transform="matrix(1.0, 0.0, 0.0, 1.0, 0.05, 0.05)">
    <path d="M3.3 3.55 Q12.2 9.85 22.95 12.0 L23.0 12.0 24.5 13.05 Q25.95 13.9 27.85 14.4 27.7 16.3 25.05 18.2 L22.25 19.6 Q22.4 17.9 22.05 16.7 21.3 14.05 18.15 13.4 11.2 9.65 4.05 7.4 3.35 5.7 3.3 3.6 L3.3 3.55" fill="url(#gradient0)" fill-rule="evenodd" stroke="none"/>
    <path d="M22.25 19.6 L25.05 18.2 22.2 19.7 22.25 19.6" fill="#623e3e" fill-rule="evenodd" stroke="none"/>
    <path d="M22.05 16.7 Q22.4 17.9 22.25 19.6 21.95 20.1 18.6 20.4 15.2 20.7 8.8 16.75 6.05 13.0 4.7 9.65 8.9 10.35 13.85 13.1 17.4 14.6 19.15 18.1 19.25 16.2 18.15 14.85 19.0 14.4 22.05 16.7 M8.3 12.2 L11.5 14.45 Q12.9 15.55 15.25 16.45 11.8 13.7 8.3 12.2" fill="#b67474" fill-rule="evenodd" stroke="none"/>
    <path d="M4.05 7.4 Q11.2 9.65 18.15 13.4 21.3 14.05 22.05 16.7 19.0 14.4 18.15 14.85 19.25 16.2 19.15 18.1 17.4 14.6 13.85 13.1 8.9 10.35 4.7 9.65 L4.15 8.15 4.05 7.4" fill="#9a6262" fill-rule="evenodd" stroke="none"/>
    <path d="M8.3 12.2 Q11.8 13.7 15.25 16.45 12.9 15.55 11.5 14.45 L8.3 12.2" fill="#db8c8c" fill-rule="evenodd" stroke="none"/>
    <path d="M4.05 7.4 Q11.2 9.65 18.15 13.4 21.3 14.05 22.05 16.7 22.4 17.9 22.25 19.6 L22.2 19.7" fill="none" stroke="#303234" stroke-linecap="round" stroke-linejoin="miter-clip" stroke-miterlimit="3.0" stroke-width="0.7000000000000001"/>
    <path d="M22.25 19.6 L25.05 18.2 22.2 19.7 M8.8 16.75 Q15.2 20.7 18.6 20.4 21.95 20.1 22.25 19.6" fill="none" stroke="#303234" stroke-linecap="round" stroke-linejoin="round" stroke-width="1.2000000000000002"/>
    <path d="M3.3 3.55 L3.3 3.6 Q3.35 5.7 4.05 7.4 L4.15 8.15 4.7 9.65 Q6.05 13.0 8.8 16.75 M25.05 18.2 Q27.7 16.3 27.85 14.4" fill="none" stroke="#303234" stroke-linecap="round" stroke-linejoin="miter-clip" stroke-miterlimit="3.0" stroke-width="1.2000000000000002"/>
    <path d="M3.75 3.15 Q4.2 3.6 3.75 4.0 L2.9 4.05 2.75 3.9 2.7 3.9 2.7 3.85 2.55 3.75 2.35 3.5 2.05 3.2 0.55 1.2 0.1 0.45 -0.05 0.05 -0.05 -0.05 0.05 -0.05 0.35 0.25 0.8 0.8 0.95 0.9 1.7 1.7 2.7 2.5 3.25 2.85 3.35 2.95 3.4 2.95 3.45 3.0 3.75 3.15" fill="#303234" fill-rule="evenodd" stroke="none"/>
    <path d="M25.5 15.7 L25.15 13.95 27.0 14.2 25.5 15.7 M10.35 7.7 L12.65 8.85 10.75 10.3 10.35 7.7" fill="#ffffff" fill-rule="evenodd" stroke="none"/>
    <path d="M27.85 14.4 Q25.95 13.9 24.5 13.05 L23.0 12.0 22.95 12.0 Q12.2 9.85 3.3 3.55" fill="none" stroke="#303234" stroke-linecap="round" stroke-linejoin="round" stroke-width="1.2000000000000002"/>
  </g>
  <defs>
    <linearGradient gradientTransform="matrix(0.015, 0.0, 0.0, 0.0098, 15.55, 11.55)" gradientUnits="userSpaceOnUse" id="gradient0" spreadMethod="pad" x1="-819.2" x2="819.2">
      <stop offset="0.32941176470588235" stop-color="#2e1d1d"/>
      <stop offset="0.7294117647058823" stop-color="#623e3e"/>
    </linearGradient>
  </defs>
</svg>
