<?xml version="1.0" encoding="UTF-8" standalone="no"?>
<svg xmlns:xlink="http://www.w3.org/1999/xlink" height="59.15px" width="87.05px" xmlns="http://www.w3.org/2000/svg">
  <g transform="matrix(1.0, 0.0, 0.0, 1.0, 0.6, 0.6)">
    <path d="M69.45 20.6 L70.45 21.4 Q76.45 26.25 81.45 32.0 84.75 34.5 85.85 36.65 85.75 43.4 80.7 48.15 73.25 50.3 65.8 50.3 68.9 48.0 70.25 46.15 58.5 51.8 44.7 54.0 L44.15 54.05 44.75 53.75 Q47.7 52.1 48.7 50.5 L44.95 51.8 Q34.85 54.8 24.25 54.15 L32.1 51.85 24.8 52.55 Q34.9 48.95 43.65 44.55 L49.6 41.4 43.85 42.4 Q48.55 40.05 51.0 37.05 L51.25 36.7 Q36.5 35.15 21.2 30.75 L6.7 27.2 4.55 25.7 12.9 26.95 21.05 27.25 Q15.75 25.9 12.1 24.15 27.55 22.6 40.85 26.55 49.9 28.35 55.55 27.1 L41.9 17.45 Q35.15 12.7 34.4 8.7 39.0 11.2 43.25 11.7 42.85 10.15 41.3 7.65 55.25 12.65 69.45 20.6 M59.5 35.4 Q63.95 37.15 69.05 36.65 75.65 33.85 70.7 34.5 65.2 35.8 59.5 35.4" fill="#e75a47" fill-rule="evenodd" stroke="none"/>
    <path d="M69.45 20.6 Q55.25 12.65 41.3 7.65 42.85 10.15 43.25 11.7 39.0 11.2 34.4 8.7 35.15 12.7 41.9 17.45 L55.55 27.1 Q49.9 28.35 40.85 26.55 27.55 22.6 12.1 24.15 15.75 25.9 21.05 27.25 L12.9 26.95 4.55 25.7 2.1 23.8 0.0 21.95 2.0 21.65 Q25.65 17.85 51.1 25.4 28.05 14.45 22.8 0.0 50.75 6.0 69.45 20.6 M51.0 37.05 Q48.55 40.05 43.85 42.4 L49.6 41.4 43.65 44.55 Q34.9 48.95 24.8 52.55 L32.1 51.85 24.25 54.15 15.95 56.6 Q23.15 50.05 35.15 43.65 39.95 41.1 45.55 38.6 L44.85 38.6 51.0 37.05" fill="#e86e5e" fill-rule="evenodd" stroke="none"/>
    <path d="M6.7 27.2 L21.2 30.75 Q36.5 35.15 51.25 36.7 L51.0 37.05 44.85 38.6 Q21.95 37.35 6.7 27.2 M24.25 54.15 Q34.85 54.8 44.95 51.8 L48.7 50.5 Q47.7 52.1 44.75 53.75 L44.15 54.05 44.7 54.0 Q58.5 51.8 70.25 46.15 68.9 48.0 65.8 50.3 73.25 50.3 80.7 48.15 77.7 50.9 73.1 52.95 L72.85 53.05 68.7 53.8 68.45 53.85 67.65 54.0 65.15 54.4 64.9 54.45 44.4 57.2 Q25.7 58.95 15.95 56.6 L24.25 54.15 M59.5 35.4 Q65.2 35.8 70.7 34.5 75.65 33.85 69.05 36.65 63.95 37.15 59.5 35.4" fill="#a84444" fill-rule="evenodd" stroke="none"/>
    <path d="M85.85 36.65 Q84.75 34.5 81.45 32.0 76.45 26.25 70.45 21.4 L69.45 20.6 Q50.75 6.0 22.8 0.0 28.05 14.45 51.1 25.4 25.65 17.85 2.0 21.65 L0.0 21.95 2.1 23.8 4.55 25.7 6.7 27.2 Q21.95 37.35 44.85 38.6 L45.55 38.6 Q39.95 41.1 35.15 43.65 23.15 50.05 15.95 56.6 25.7 58.95 44.4 57.2 L64.9 54.45" fill="none" stroke="#303234" stroke-linecap="round" stroke-linejoin="miter-clip" stroke-miterlimit="5.0" stroke-width="1.2000000000000002"/>
    <path d="M65.2 54.95 L65.15 55.0 Q64.5 55.0 64.5 54.45 64.4 53.8 65.05 53.8 L67.45 53.55 67.6 53.55 67.7 53.5 67.95 53.5 68.4 53.45 68.55 53.4 68.65 53.4 68.9 53.35 73.05 52.85 73.15 52.9 73.1 53.0 72.9 53.15 72.85 53.15 69.05 54.05 68.8 54.15 68.7 54.15 68.55 54.2 67.85 54.35 67.75 54.4 67.65 54.4 67.6 54.45 65.2 54.95" fill="#303234" fill-rule="evenodd" stroke="none"/>
  </g>
</svg>
