<?xml version="1.0" encoding="UTF-8" standalone="no"?>
<svg xmlns:xlink="http://www.w3.org/1999/xlink" height="55.1px" width="48.85px" xmlns="http://www.w3.org/2000/svg">
  <g transform="matrix(1.0, 0.0, 0.0, 1.0, 0.9, 0.6)">
    <path d="M47.3 32.15 L47.35 32.25 Q40.15 32.2 23.45 21.55 21.6 20.4 20.1 18.35 23.6 20.15 27.25 20.8 L26.0 19.25 Q36.85 27.6 47.3 32.15 M31.15 53.85 L31.15 53.9 Q19.75 44.85 10.9 28.0 7.75 42.95 4.6 51.5 -0.65 39.5 -0.3 31.05 L-0.2 25.15 -0.2 25.1 Q-0.25 22.05 -0.45 20.05 L-0.65 18.9 14.6 1.05 14.2 5.85 12.8 5.0 Q11.7 6.45 11.45 9.35 L10.45 8.6 Q7.3 12.95 5.1 19.05 3.85 29.65 5.1 37.6 L9.8 22.65 Q12.35 24.35 13.5 28.65 L14.0 24.55 Q18.45 35.75 22.75 40.85 22.2 39.3 22.75 37.9 25.9 45.85 31.15 53.85" fill="#a84444" fill-rule="evenodd" stroke="none"/>
    <path d="M44.05 25.8 Q46.0 28.9 47.3 32.15 36.85 27.6 26.0 19.25 L27.25 20.8 Q23.6 20.15 20.1 18.35 21.6 20.4 23.45 21.55 32.0 37.55 31.15 53.85 25.9 45.85 22.75 37.9 22.2 39.3 22.75 40.85 18.45 35.75 14.0 24.55 L13.5 28.65 Q12.35 24.35 9.8 22.65 L5.1 37.6 Q3.85 29.65 5.1 19.05 7.3 12.95 10.45 8.6 L11.45 9.35 Q11.7 6.45 12.8 5.0 L14.2 5.85 14.6 1.05 15.5 0.0 Q14.85 2.15 17.45 4.95 23.4 9.25 29.0 15.0 L28.2 12.7 Q36.15 18.65 44.05 25.8 M16.3 14.35 Q11.75 13.65 10.2 12.95 14.2 15.8 18.0 16.75 18.3 15.65 16.3 14.35" fill="#e75a47" fill-rule="evenodd" stroke="none"/>
    <path d="M15.5 0.0 Q16.75 0.7 17.4 1.7 L19.2 3.3 30.45 11.8 Q39.25 18.25 44.05 25.8 36.15 18.65 28.2 12.7 L29.0 15.0 Q23.4 9.25 17.45 4.95 14.85 2.15 15.5 0.0 M16.3 14.35 Q18.3 15.65 18.0 16.75 14.2 15.8 10.2 12.95 11.75 13.65 16.3 14.35" fill="#e86e5e" fill-rule="evenodd" stroke="none"/>
    <path d="M44.05 25.8 Q46.0 28.9 47.3 32.15 L47.35 32.25 Q40.15 32.2 23.45 21.55 32.0 37.55 31.15 53.85 L31.15 53.9 Q19.75 44.85 10.9 28.0 7.75 42.95 4.6 51.5 -0.65 39.5 -0.3 31.05 L-0.2 25.15 M15.5 0.0 Q16.75 0.7 17.4 1.7 L19.2 3.3 30.45 11.8 Q39.25 18.25 44.05 25.8 Z" fill="none" stroke="#303234" stroke-linecap="round" stroke-linejoin="miter-clip" stroke-miterlimit="5.0" stroke-width="1.2000000000000002"/>
    <path d="M0.35 25.05 L0.4 25.15 Q0.3 25.75 -0.2 25.75 -0.8 25.65 -0.8 25.1 L-0.75 25.1 -0.6 20.0 -0.65 19.85 -0.7 18.9 -0.65 18.8 Q-0.55 18.7 -0.55 18.85 L-0.3 19.8 -0.25 19.9 -0.25 20.05 -0.1 20.8 0.35 25.05" fill="#303234" fill-rule="evenodd" stroke="none"/>
  </g>
</svg>
