<?xml version="1.0" encoding="UTF-8" standalone="no"?>
<svg xmlns:xlink="http://www.w3.org/1999/xlink" height="72.4px" width="88.9px" xmlns="http://www.w3.org/2000/svg">
  <g transform="matrix(1.0, 0.0, 0.0, 1.0, 36.6, 36.2)">
    <path d="M41.7 -33.1 L47.9 -35.6 Q47.85 -33.85 47.45 -33.0 L42.25 -25.75 42.65 -26.95 Q3.95 -12.5 -14.1 20.05 L-17.5 24.1 -17.55 24.15 Q-29.85 27.2 -36.5 36.15 L-36.5 36.1 Q-26.05 13.15 -13.05 -1.55 2.4 -19.6 21.85 -23.35 37.75 -28.3 41.7 -33.1" fill="#444d5c" fill-rule="evenodd" stroke="none"/>
    <path d="M-17.55 24.15 L-17.5 24.1 -14.1 20.05 Q-9.45 20.55 -4.8 18.65 0.85 16.95 5.9 12.6 6.1 14.85 3.95 16.65 L3.3 17.15 3.95 16.65 Q9.0 12.9 15.65 10.65 13.5 16.7 7.2 18.45 11.2 17.45 15.05 17.3 12.8 20.15 9.9 20.85 16.8 22.8 20.2 19.7 35.4 -4.05 42.25 -25.75 L47.45 -33.0 Q49.8 -33.15 51.7 -34.85 48.3 -30.35 46.45 -23.6 L46.35 -23.1 Q42.1 -5.3 27.8 16.1 L27.0 17.25 Q24.3 21.2 21.7 26.1 L20.05 26.8 Q18.05 25.0 14.9 26.4 L15.9 24.3 15.85 24.3 Q3.4 24.5 -9.0 26.8 -7.25 25.55 -6.95 24.15 -13.1 24.5 -21.3 27.0 L-17.55 24.15 M6.7 18.55 L7.2 18.45 6.7 18.55" fill="#3c4451" fill-rule="evenodd" stroke="none"/>
    <path d="M-14.1 20.05 Q3.95 -12.5 42.65 -26.95 L42.25 -25.75 Q35.4 -4.05 20.2 19.7 16.8 22.8 9.9 20.85 12.8 20.15 15.05 17.3 11.2 17.45 7.2 18.45 13.5 16.7 15.65 10.65 9.0 12.9 3.95 16.65 6.1 14.85 5.9 12.6 0.85 16.95 -4.8 18.65 -9.45 20.55 -14.1 20.05" fill="url(#gradient0)" fill-rule="evenodd" stroke="none"/>
    <path d="M41.7 -33.1 Q37.75 -28.3 21.85 -23.35 2.4 -19.6 -13.05 -1.55 -26.05 13.15 -36.5 36.1 L-34.55 27.9 -33.8 25.4 -33.3 23.9 Q-20.35 -15.8 23.75 -27.55 32.85 -29.8 41.7 -33.1" fill="#505766" fill-rule="evenodd" stroke="none"/>
    <path d="M-14.1 20.05 Q3.95 -12.5 42.65 -26.95 L42.25 -25.75 Q35.4 -4.05 20.2 19.7 16.8 22.8 9.9 20.85 12.8 20.15 15.05 17.3 11.2 17.45 7.2 18.45 13.5 16.7 15.65 10.65 9.0 12.9 3.95 16.65 L3.3 17.15 M46.35 -23.1 Q42.1 -5.3 27.8 16.1 M23.75 -27.55 Q-20.35 -15.8 -33.3 23.9 M7.2 18.45 L6.7 18.55 M3.95 16.65 Q6.1 14.85 5.9 12.6 0.85 16.95 -4.8 18.65 -9.45 20.55 -14.1 20.05" fill="none" stroke="#303234" stroke-linecap="round" stroke-linejoin="round" stroke-width="1.2000000000000002"/>
    <path d="M47.45 -33.0 Q47.85 -33.85 47.9 -35.6 L41.7 -33.1 Q32.85 -29.8 23.75 -27.55 M47.45 -33.0 Q49.8 -33.15 51.7 -34.85 48.3 -30.35 46.45 -23.6 L46.35 -23.1" fill="none" stroke="#303234" stroke-linecap="round" stroke-linejoin="miter-clip" stroke-miterlimit="5.0" stroke-width="1.2000000000000002"/>
    <path d="M-33.85 23.65 L-33.8 23.6 Q-33.5 23.05 -33.0 23.3 -32.5 23.55 -32.7 24.1 L-32.8 24.3 -32.9 24.45 -33.25 25.5 -33.25 25.55 -36.4 36.1 -36.35 36.1 -36.45 36.2 -36.6 36.15 -36.6 36.05 -36.55 36.05 -35.6 30.6 -34.3 25.2 -34.3 25.25 -33.85 23.65 M21.75 26.1 L21.65 26.15 21.6 26.05 21.8 25.55 27.3 15.75 27.3 15.7 Q27.45 15.5 27.7 15.45 L28.15 15.6 Q28.6 15.95 28.25 16.4 L21.75 26.1" fill="#303234" fill-rule="evenodd" stroke="none"/>
  </g>
  <defs>
    <radialGradient cx="0" cy="0" gradientTransform="matrix(0.0212, 0.026, -0.0599, 0.0489, 43.45, -6.4)" gradientUnits="userSpaceOnUse" id="gradient0" r="819.2" spreadMethod="pad">
      <stop offset="0.32941176470588235" stop-color="#cececc"/>
      <stop offset="0.7294117647058823" stop-color="#909191"/>
    </radialGradient>
  </defs>
</svg>
