<?xml version="1.0" encoding="UTF-8" standalone="no"?>
<svg xmlns:xlink="http://www.w3.org/1999/xlink" height="34.25px" width="84.4px" xmlns="http://www.w3.org/2000/svg">
  <g transform="matrix(1.0, 0.0, 0.0, 1.0, 4.85, 0.95)">
    <path d="M74.55 32.65 Q67.05 28.6 57.1 32.2 L57.8 29.95 Q58.0 29.15 60.45 24.4 62.9 19.6 68.8 18.2 74.3 20.55 74.8 27.05 L74.85 27.45 Q75.05 29.8 74.55 32.65" fill="#36414c" fill-rule="evenodd" stroke="none"/>
    <path d="M34.0 19.9 Q28.85 32.25 17.2 29.45 31.9 18.95 28.45 1.6 35.05 6.35 34.9 12.2 L34.85 13.6 Q34.6 18.3 34.0 19.9" fill="#3c4451" fill-rule="evenodd" stroke="none"/>
    <path d="M28.45 1.6 Q31.9 18.95 17.2 29.45 -7.55 23.6 -1.55 11.4 L-0.95 10.25 Q0.05 7.2 1.85 4.7 3.85 2.05 6.4 2.0 13.85 -1.75 20.15 -0.75 26.4 0.25 28.45 1.6" fill="#444d5c" fill-rule="evenodd" stroke="none"/>
    <path d="M57.1 32.2 Q67.05 28.6 74.55 32.65 M17.2 29.45 Q28.85 32.25 34.0 19.9 M17.2 29.45 Q-7.55 23.6 -1.55 11.4 L-0.95 10.25 Q0.05 7.2 1.85 4.7" fill="none" stroke="#303234" stroke-linecap="round" stroke-linejoin="round" stroke-width="1.2000000000000002"/>
    <path d="M2.25 5.1 L2.2 5.15 1.35 5.1 Q0.95 4.7 1.4 4.25 L1.55 4.1 1.65 4.05 1.8 3.95 2.05 3.7 2.6 3.3 2.8 3.2 3.0 3.05 3.7 2.65 4.65 2.25 5.7 2.0 5.85 1.95 6.1 1.9 6.35 1.9 6.45 1.95 6.4 2.05 6.2 2.15 5.8 2.3 5.6 2.35 4.65 2.85 4.25 3.15 4.05 3.25 3.9 3.4 3.5 3.7 3.35 3.9 2.9 4.35 2.75 4.45 2.55 4.7 2.5 4.8 2.4 4.9 2.25 5.1 M34.55 20.05 L34.5 20.15 Q34.3 20.75 33.75 20.45 33.2 20.3 33.4 19.7 L33.5 19.5 33.5 19.45 33.55 19.4 33.55 19.3 33.6 19.25 33.8 18.6 34.1 17.1 34.2 16.75 34.6 13.95 34.6 13.65 34.65 13.6 34.65 13.4 34.8 12.15 34.85 12.1 34.95 12.2 35.0 12.5 35.0 16.45 34.95 16.8 34.95 17.55 34.85 18.2 34.85 18.5 34.7 19.3 34.7 19.55 34.65 19.65 34.65 19.75 34.6 19.8 34.6 19.9 34.55 20.0 34.55 20.05 M75.4 32.7 L75.4 32.85 Q75.2 33.4 74.65 33.25 L74.3 33.0 74.25 32.55 74.3 32.3 74.3 32.15 74.35 32.05 74.5 31.5 74.5 31.3 74.6 30.85 74.75 29.3 74.75 27.75 74.7 27.55 74.7 27.05 74.75 26.95 74.85 27.0 74.95 27.25 75.3 28.75 75.5 31.35 75.5 31.6 75.45 31.8 75.45 32.5 75.4 32.7 M60.35 24.35 Q60.35 24.2 60.45 24.3 L60.5 24.4 58.55 29.0 58.45 29.35 58.35 29.55 58.3 29.7 58.3 29.8 58.25 29.9 58.25 29.95 58.2 30.05 57.65 32.35 57.65 32.45 Q57.4 33.0 56.85 32.8 56.3 32.55 56.5 32.0 L57.35 29.8 57.35 29.7 57.4 29.65 57.4 29.6 57.6 29.2 57.65 29.05 60.35 24.35" fill="#303234" fill-rule="evenodd" stroke="none"/>
    <path d="M3.1 22.9 Q3.55 23.6 2.8 24.05 2.1 24.5 1.65 23.75 L1.6 23.7 1.45 23.45 1.4 23.3 1.05 22.55 0.95 22.2 0.55 22.45 0.4 22.4 0.35 22.35 0.25 22.3 0.0 22.05 -0.05 21.95 -0.1 21.9 -0.15 21.8 -0.45 21.3 -1.15 19.7 -1.95 19.85 -2.05 19.8 -2.1 19.75 -2.2 19.7 -2.3 19.6 -2.65 19.35 -3.2 18.8 -3.2 18.7 -3.3 18.6 -3.45 18.35 -3.55 18.1 -4.0 17.25 -4.4 16.15 -4.55 15.6 -4.65 15.35 -4.75 14.7 -4.8 14.55 -4.8 14.4 -4.85 14.1 -4.8 13.95 -4.6 14.0 -4.6 14.05 -4.35 14.4 -4.3 14.55 -4.05 14.85 -3.2 16.15 -3.0 16.35 -2.85 16.6 -2.65 16.8 -2.5 17.05 -2.3 17.25 -2.15 17.45 -1.7 17.9 -2.1 16.25 -2.1 16.1 -2.15 15.95 -2.15 15.65 -2.25 15.1 -2.3 13.0 -2.25 12.55 -2.25 12.35 -2.2 12.15 -2.2 11.8 -2.0 10.65 -1.95 10.6 -1.85 10.7 -1.8 11.2 -1.8 11.8 -1.75 12.15 -1.75 12.35 -1.7 12.55 -1.25 15.2 -1.15 15.45 -1.1 15.75 -1.05 15.85 0.25 19.15 0.4 19.35 0.5 19.55 0.5 18.75 0.75 17.6 0.75 17.45 0.9 16.95 1.05 16.7 1.15 16.4 1.6 15.5 Q1.7 15.3 1.85 15.4 L1.95 15.65 1.7 16.6 1.65 16.7 1.65 16.85 1.55 17.15 1.55 17.45 1.5 17.6 1.5 18.95 1.55 19.15 1.65 19.85 1.95 20.8 2.1 21.1 2.1 21.15 2.15 21.25 2.2 21.4 2.5 21.85 2.8 22.45 3.05 22.8 3.1 22.9 M71.2 31.7 L71.15 31.75 Q70.55 31.85 70.45 31.25 70.35 30.65 70.95 30.55 L71.15 30.5 71.3 30.5 71.4 30.45 71.55 30.45 72.1 30.3 72.2 30.3 72.3 30.25 72.5 30.2 73.8 29.65 74.5 29.25 74.55 29.2 74.75 29.1 74.9 29.0 75.05 28.85 75.15 28.8 75.35 28.6 75.55 28.5 Q75.7 28.25 75.8 28.5 L75.9 28.65 75.8 28.75 75.65 28.95 75.1 29.5 74.9 29.65 74.85 29.75 74.75 29.8 73.75 30.55 72.25 31.35 72.05 31.4 71.85 31.5 71.55 31.6 71.45 31.65 71.2 31.7 M74.85 33.15 L74.65 33.15 Q74.05 33.05 74.15 32.45 L74.35 32.1 73.85 32.3 73.65 32.35 73.5 32.35 73.25 32.4 73.15 32.4 Q72.8 32.4 72.55 32.1 72.25 31.5 72.8 31.25 L73.1 31.1 73.25 31.0 73.45 30.95 73.65 30.85 73.85 30.8 74.1 30.7 74.4 30.65 74.95 30.4 75.9 30.05 76.2 29.9 76.5 29.7 77.0 29.5 78.45 28.6 79.4 27.9 79.55 27.9 79.55 28.05 79.35 28.3 79.2 28.45 79.1 28.6 78.35 29.4 77.6 30.05 77.45 30.2 77.3 30.3 76.75 30.75 75.8 31.35 75.5 31.5 75.2 31.7 74.65 32.0 74.9 32.0 75.0 32.0 75.15 32.05 75.3 32.05 75.45 32.1 76.35 32.1 76.45 32.05 76.55 32.05 76.75 31.95 76.95 31.9 77.0 31.85 77.3 31.7 77.45 31.7 77.45 31.85 77.35 31.95 77.3 32.05 77.2 32.1 77.15 32.2 77.0 32.35 76.9 32.4 76.8 32.5 76.7 32.55 76.55 32.65 76.45 32.7 76.4 32.75 76.3 32.8 75.9 32.95 75.8 33.0 75.65 33.0 75.55 33.05 75.1 33.15 74.85 33.15" fill="#303234" fill-rule="evenodd" stroke="none"/>
  </g>
</svg>
