<?xml version="1.0" encoding="UTF-8" standalone="no"?>
<svg xmlns:xlink="http://www.w3.org/1999/xlink" height="42.55px" width="86.3px" xmlns="http://www.w3.org/2000/svg">
  <g transform="matrix(1.0, 0.0, 0.0, 1.0, 7.75, 0.95)">
    <path d="M23.0 -0.3 Q29.15 31.45 4.6 36.0 -6.5 31.95 -4.25 21.2 -2.0 10.4 -0.95 8.8 L1.85 4.7 Q3.85 2.05 6.4 2.0 13.85 -1.75 20.15 -0.75 L23.0 -0.3" fill="#444d5c" fill-rule="evenodd" stroke="none"/>
    <path d="M23.0 -0.3 L22.8 -0.6 27.5 1.55 Q32.4 3.95 33.65 8.45 34.85 12.9 34.35 15.25 L29.7 29.75 Q25.55 41.9 21.8 40.9 19.35 41.45 4.6 36.0 29.15 31.45 23.0 -0.3" fill="#3c4451" fill-rule="evenodd" stroke="none"/>
    <path d="M55.75 35.65 L57.8 29.95 Q58.0 29.15 60.45 24.4 62.9 19.6 68.8 18.2 74.3 20.55 74.8 27.05 L74.8 27.1 75.2 28.2 75.15 30.45 74.0 37.2 73.85 37.8 73.85 37.85 Q67.05 28.6 55.75 35.65" fill="#36414c" fill-rule="evenodd" stroke="none"/>
    <path d="M4.6 36.0 Q19.35 41.45 21.8 40.9 25.55 41.9 29.7 29.75 M1.85 4.7 L-0.95 8.8 Q-2.0 10.4 -4.25 21.2 -6.5 31.95 4.6 36.0 M55.75 35.65 Q67.05 28.6 73.85 37.85" fill="none" stroke="#303234" stroke-linecap="round" stroke-linejoin="round" stroke-width="1.2000000000000002"/>
    <path d="M2.25 5.1 L2.2 5.15 1.35 5.1 Q0.95 4.7 1.4 4.25 L1.55 4.1 1.65 4.05 1.8 3.95 2.05 3.7 2.6 3.3 2.8 3.2 3.0 3.05 3.7 2.65 4.65 2.25 5.7 2.0 5.85 1.95 6.1 1.9 6.35 1.9 6.45 1.95 6.4 2.05 6.2 2.15 5.8 2.3 5.6 2.35 4.65 2.85 4.25 3.15 4.05 3.25 3.9 3.4 3.5 3.7 3.35 3.9 2.9 4.35 2.75 4.45 2.55 4.7 2.5 4.8 2.4 4.9 2.25 5.1 M30.25 29.9 L30.25 29.95 Q30.0 30.45 29.45 30.3 28.9 30.1 29.1 29.55 L33.45 17.15 34.05 15.25 34.1 15.15 34.1 15.05 34.2 14.6 34.2 14.25 34.25 14.15 34.25 13.5 33.85 9.85 33.55 8.45 Q33.45 8.35 33.6 8.35 33.7 8.25 33.7 8.4 L33.8 8.65 33.85 8.95 34.0 9.3 34.25 10.4 34.7 13.45 34.7 14.4 34.65 14.65 34.65 14.9 34.6 15.15 34.6 15.25 34.55 15.3 34.55 15.4 33.45 19.35 31.25 26.6 30.25 29.9 M74.4 37.85 L74.4 37.9 Q74.3 38.5 73.7 38.4 L73.35 38.15 73.25 37.7 73.25 37.5 73.45 36.95 73.4 37.05 73.55 36.45 73.6 36.35 73.6 36.25 73.75 35.8 74.5 32.75 74.85 30.55 74.85 30.4 74.9 30.25 74.9 28.35 74.7 27.1 74.65 27.1 74.65 27.05 74.7 27.05 74.75 26.95 74.9 27.05 74.85 27.05 75.2 28.3 75.35 29.6 75.35 29.9 75.4 30.25 75.4 30.6 75.35 30.9 75.35 31.55 74.7 36.35 74.65 36.5 74.65 36.65 74.55 37.3 74.5 37.4 74.45 37.6 74.45 37.8 74.4 37.85 M60.35 24.35 Q60.35 24.2 60.45 24.3 L60.5 24.4 59.25 27.2 58.65 28.65 58.3 29.5 58.2 29.7 58.2 29.75 58.15 29.85 58.1 30.0 58.1 30.05 56.3 35.85 56.25 35.9 Q56.05 36.5 55.5 36.2 54.95 36.05 55.15 35.4 L57.45 29.8 57.45 29.85 57.5 29.65 57.6 29.45 57.65 29.25 57.95 28.75 58.1 28.4 58.85 27.0 60.35 24.35" fill="#303234" fill-rule="evenodd" stroke="none"/>
    <path d="M-0.6 32.6 L-1.75 33.05 -1.9 32.95 -2.0 32.85 -2.15 32.65 -2.2 32.55 -2.3 32.4 -2.3 32.35 -2.35 32.25 -2.4 32.1 -2.65 31.1 -2.7 31.0 -2.7 30.85 -2.9 29.9 -2.9 29.6 -2.95 29.5 -3.05 27.65 -3.1 27.4 -3.1 27.25 -3.05 27.1 -3.0 25.65 -2.95 25.4 -2.95 25.1 -2.3 22.2 -2.2 21.9 -2.15 21.65 -1.95 21.15 -1.85 21.1 -1.8 21.2 -1.85 21.7 -1.9 21.95 -1.9 22.3 -2.0 23.05 -2.05 25.15 -2.0 25.45 -2.0 25.95 -1.9 27.05 -1.85 27.15 -1.85 27.3 -1.5 29.1 -1.5 29.2 -1.1 30.45 -1.1 30.55 -0.95 30.85 -0.85 31.2 -0.7 31.5 -0.65 31.65 -0.65 31.8 -0.6 31.9 -0.6 32.05 -0.55 32.25 -0.55 32.45 -0.6 32.6 M-3.2 28.65 Q-2.95 28.9 -3.1 29.2 -3.2 29.8 -3.85 29.6 L-4.0 29.6 -4.2 29.5 -4.25 29.5 -4.4 29.4 -4.6 29.35 -4.9 29.2 -5.0 29.1 -5.05 29.1 -5.4 28.75 -5.95 28.1 -6.1 27.85 -6.3 27.65 -6.55 27.25 -6.65 27.15 -6.95 26.65 -7.55 25.4 -7.75 24.85 -7.7 24.7 -7.5 24.7 -6.7 25.55 -6.5 25.7 -6.15 26.05 -5.95 26.2 -5.65 26.5 -5.55 26.55 -5.35 26.75 -4.9 27.05 -4.7 27.25 -4.5 27.35 -4.1 27.65 -3.35 28.4 -3.3 28.5 -3.25 28.55 -3.2 28.65 M2.35 33.65 Q2.8 34.45 2.05 34.8 L1.4 34.9 0.9 34.5 0.85 34.4 0.7 34.2 0.25 33.0 0.0 31.95 0.0 31.55 -0.05 31.35 0.0 29.2 0.5 27.55 0.85 26.9 0.95 26.75 1.1 26.45 Q1.2 26.25 1.35 26.35 L1.45 26.6 1.1 27.75 0.95 28.95 0.95 29.3 0.9 29.45 0.95 29.65 1.05 30.65 1.05 30.75 1.1 30.8 1.15 31.0 1.15 31.15 1.3 31.6 1.55 32.15 1.65 32.45 1.8 32.65 2.0 33.05 2.2 33.35 2.3 33.6 2.35 33.65 M73.5 37.75 L73.3 37.75 Q72.7 37.65 72.8 37.05 73.0 36.45 73.55 36.6 L73.65 36.6 73.8 36.65 73.95 36.65 74.1 36.7 75.0 36.7 75.1 36.65 75.2 36.65 75.4 36.55 75.6 36.5 75.65 36.45 75.95 36.3 76.1 36.3 76.1 36.45 76.0 36.55 75.95 36.65 75.85 36.7 75.8 36.8 75.65 36.95 75.55 37.0 75.45 37.1 75.35 37.15 75.2 37.25 75.1 37.3 75.05 37.35 74.55 37.55 74.45 37.6 74.3 37.6 74.2 37.65 73.75 37.75 73.5 37.75 M72.15 36.2 Q71.8 36.2 71.55 35.9 71.25 35.3 71.8 35.05 L72.1 34.9 72.25 34.8 72.45 34.75 72.65 34.65 72.85 34.6 73.1 34.5 73.4 34.45 73.95 34.2 74.9 33.85 75.2 33.7 75.5 33.5 76.0 33.3 77.45 32.4 78.4 31.7 78.55 31.7 78.55 31.85 78.35 32.1 78.2 32.25 78.1 32.4 77.55 32.95 77.35 33.2 76.45 34.0 76.3 34.1 75.75 34.55 74.8 35.15 74.5 35.3 74.2 35.5 72.85 36.1 72.65 36.15 72.5 36.15 72.25 36.2 72.15 36.2 M70.8 34.55 L70.75 34.6 Q70.15 34.7 70.05 34.1 69.95 33.5 70.55 33.4 L70.75 33.35 70.9 33.35 71.0 33.3 71.15 33.3 71.7 33.15 71.8 33.15 71.9 33.1 72.1 33.05 73.4 32.5 74.1 32.1 74.15 32.05 74.35 31.95 74.5 31.85 74.65 31.7 74.75 31.65 74.95 31.45 75.15 31.35 Q75.3 31.1 75.4 31.35 L75.5 31.5 75.4 31.6 75.25 31.8 74.7 32.35 74.5 32.5 74.45 32.6 74.35 32.65 73.35 33.4 71.85 34.2 71.65 34.25 71.45 34.35 71.15 34.45 71.05 34.5 70.8 34.55" fill="#303234" fill-rule="evenodd" stroke="none"/>
  </g>
</svg>
