<?xml version="1.0" encoding="UTF-8" standalone="no"?>
<svg xmlns:xlink="http://www.w3.org/1999/xlink" height="125.45px" width="95.45px" xmlns="http://www.w3.org/2000/svg">
  <g transform="matrix(1.0, 0.0, 0.0, 1.0, 0.6, 0.6)">
    <path d="M21.55 40.45 Q37.15 12.6 77.1 0.5 L84.65 0.0 Q59.4 10.6 46.85 29.75 49.3 31.15 53.1 28.9 33.35 41.4 22.3 62.65 L28.6 60.55 Q19.5 72.95 16.65 101.85 L20.4 99.35 Q21.9 103.85 14.3 117.65 L0.0 118.2 Q8.8 107.0 10.0 101.2 10.0 83.3 11.7 67.1 13.05 53.75 21.55 40.45" fill="#444d5c" fill-rule="evenodd" stroke="none"/>
    <path d="M84.65 0.0 Q105.2 -0.25 84.35 64.8 83.85 69.75 74.25 75.45 64.6 81.1 62.05 85.6 L53.2 100.7 Q46.95 111.25 35.35 115.4 28.95 118.0 23.0 124.25 22.95 118.65 14.3 117.65 21.9 103.85 20.4 99.35 L16.65 101.85 Q19.5 72.95 28.6 60.55 L22.3 62.65 Q33.35 41.4 53.1 28.9 49.3 31.15 46.85 29.75 59.4 10.6 84.65 0.0" fill="#3c4451" fill-rule="evenodd" stroke="none"/>
    <path d="M21.55 40.45 Q30.65 13.05 58.5 4.2 63.3 2.65 68.65 1.7 L77.1 0.5 Q37.15 12.6 21.55 40.45" fill="#505766" fill-rule="evenodd" stroke="none"/>
    <path d="M77.1 0.5 L68.65 1.7 Q63.3 2.65 58.5 4.2 30.65 13.05 21.55 40.45 13.05 53.75 11.7 67.1 10.0 83.3 10.0 101.2 8.8 107.0 0.0 118.2 M77.1 0.5 L84.65 0.0 M84.35 64.8 Q83.85 69.75 74.25 75.45 64.6 81.1 62.05 85.6 L53.2 100.7 Q46.95 111.25 35.35 115.4 28.95 118.0 23.0 124.25" fill="none" stroke="#303234" stroke-linecap="round" stroke-linejoin="round" stroke-width="1.2000000000000002"/>
  </g>
</svg>
