<?xml version="1.0" encoding="UTF-8" standalone="no"?>
<svg xmlns:xlink="http://www.w3.org/1999/xlink" height="19.25px" width="11.5px" xmlns="http://www.w3.org/2000/svg">
  <g transform="matrix(1.0, 0.0, 0.0, 1.0, -58.4, -68.45)">
    <path d="M63.0 81.95 L62.0 83.4 Q61.3 84.15 60.75 85.75 60.3 87.0 59.85 87.0 L59.8 87.0 59.35 86.75 59.3 86.45 Q59.3 85.1 60.95 82.95 62.6 80.8 62.6 79.7 L62.1 74.75 62.1 74.4 61.95 74.2 61.9 73.9 Q61.9 70.75 64.5 72.25 67.1 73.75 67.1 75.75 67.1 77.4 66.25 78.05 L63.6 80.0 63.1 81.65 63.0 81.95" fill="#ffffff" fill-opacity="0.8" fill-rule="evenodd" stroke="none"/>
    <path d="M59.85 87.0 L59.8 87.05 59.05 87.7 Q58.6 87.7 58.45 87.35 L58.4 87.0 Q58.4 85.6 59.6 83.65 60.8 81.7 60.8 79.95 L60.7 76.2 60.35 74.15 Q60.2 73.45 60.2 72.55 60.2 70.95 61.0 69.55 62.25 67.3 64.85 69.65 L68.15 72.4 Q69.9 73.9 69.9 75.0 69.9 77.7 67.2 79.0 63.85 80.55 63.6 81.0 L63.0 81.95 63.1 81.65 63.6 80.0 66.25 78.05 Q67.1 77.4 67.1 75.75 67.1 73.75 64.5 72.25 61.9 70.75 61.9 73.9 L61.95 74.2 62.1 74.4 62.1 74.75 62.6 79.7 Q62.6 80.8 60.95 82.95 59.3 85.1 59.3 86.45 L59.35 86.75 59.8 87.0 59.85 87.0" fill="#ffffff" fill-opacity="0.4" fill-rule="evenodd" stroke="none"/>
  </g>
</svg>
