<?xml version="1.0" encoding="UTF-8" standalone="no"?>
<svg xmlns:xlink="http://www.w3.org/1999/xlink" height="35.35px" width="21.75px" xmlns="http://www.w3.org/2000/svg">
  <g transform="matrix(1.0, 0.0, 0.0, 1.0, -48.15, -68.5)">
    <path d="M53.9 90.7 Q53.1 91.9 52.45 91.9 L51.65 91.85 Q51.4 92.25 51.4 91.25 51.4 90.65 54.95 86.4 L58.6 82.05 Q60.45 78.45 60.3 77.75 59.7 77.0 59.7 75.15 59.7 73.05 60.4 71.0 61.25 68.5 62.6 68.5 63.8 68.5 66.85 71.35 69.9 74.2 69.9 75.35 69.9 76.9 68.5 78.1 66.05 80.15 64.55 82.35 65.2 79.8 66.7 78.6 L68.0 77.25 Q68.0 76.35 65.75 74.0 63.45 71.6 62.25 71.6 61.95 71.6 60.85 76.05 L59.8 80.7 Q59.8 81.3 59.95 81.35 L60.15 81.3 Q57.1 86.45 54.2 90.2 L54.1 89.65 Q54.1 89.3 54.7 89.05 55.3 88.75 55.4 87.85 L55.25 87.55 Q54.8 87.75 53.2 89.25 L51.6 90.9 Q51.6 91.5 51.75 91.5 L52.25 91.4 53.9 90.7 M50.1 102.9 L49.05 103.85 48.8 103.8 48.7 103.15 Q48.7 102.8 52.0 98.2 L52.4 96.65 Q52.55 95.9 53.75 95.9 57.65 91.0 58.05 89.55 L60.6 81.5 61.1 81.6 59.6 86.9 Q58.35 91.05 57.15 92.6 L51.9 98.85 Q49.4 101.8 49.4 102.35 49.4 102.95 49.55 103.0 L49.65 102.9 50.1 102.9 M50.5 94.6 L50.3 94.2 49.2 96.35 49.3 96.8 48.9 96.3 49.5 94.1 Q49.85 92.9 50.6 92.3 L50.85 92.25 Q51.15 92.7 50.5 94.6 M49.3 98.3 L49.2 98.35 49.2 98.3 49.3 98.3 M48.3 98.1 Q47.8 97.05 48.8 98.15 L49.0 98.35 Q48.4 98.45 48.3 98.1 M63.4 82.15 Q62.9 84.0 61.85 84.7 L60.4 85.55 61.55 82.45 Q62.45 80.0 63.05 80.0 L64.1 80.1 64.1 80.15 64.0 80.7 61.6 84.0 61.2 84.7 63.4 82.15" fill="#ffffff" fill-opacity="0.4" fill-rule="evenodd" stroke="none"/>
    <path d="M64.55 82.35 Q64.55 84.0 63.65 85.15 62.7 86.3 61.4 86.3 L61.25 86.4 60.4 87.35 60.15 88.25 Q58.7 92.95 55.5 97.0 L50.1 102.9 49.65 102.9 49.55 103.0 Q49.4 102.95 49.4 102.35 49.4 101.8 51.9 98.85 L57.15 92.6 Q58.35 91.05 59.6 86.9 L61.1 81.6 60.6 81.5 60.15 81.3 59.95 81.35 Q59.8 81.3 59.8 80.7 L60.85 76.05 Q61.95 71.6 62.25 71.6 63.45 71.6 65.75 74.0 68.0 76.35 68.0 77.25 L66.7 78.6 Q65.2 79.8 64.55 82.35 M54.2 90.2 L53.9 90.7 52.25 91.4 51.75 91.5 Q51.6 91.5 51.6 90.9 L53.2 89.25 Q54.8 87.75 55.25 87.55 L55.4 87.85 Q55.3 88.75 54.7 89.05 54.1 89.3 54.1 89.65 L54.2 90.2 M49.3 96.8 L49.2 96.35 50.3 94.2 50.5 94.6 50.15 96.15 49.3 96.8 M49.2 98.3 L48.9 98.1 Q48.75 97.9 48.75 97.6 L49.35 97.3 50.0 97.6 50.0 98.05 Q49.55 98.5 49.3 98.3 L49.2 98.3 M54.25 90.5 Q54.2 91.15 54.2 90.25 L54.25 90.5 M64.0 80.7 L64.1 80.15 64.1 80.1 63.05 80.0 Q62.45 80.0 61.55 82.45 L60.4 85.55 61.85 84.7 Q62.9 84.0 63.4 82.15 L64.0 80.7" fill="#ffffff" fill-opacity="0.8" fill-rule="evenodd" stroke="none"/>
  </g>
</svg>
