<?xml version="1.0" encoding="UTF-8" standalone="no"?>
<svg xmlns:xlink="http://www.w3.org/1999/xlink" height="46.75px" width="33.1px" xmlns="http://www.w3.org/2000/svg">
  <g transform="matrix(1.0, 0.0, 0.0, 1.0, -36.8, -68.5)">
    <path d="M40.7 96.55 L40.0 97.15 39.65 97.1 Q39.35 97.55 39.35 96.55 39.35 96.0 40.2 94.85 L40.1 95.9 Q40.1 96.9 40.35 96.5 L40.7 96.55 M42.9 91.55 L45.85 87.65 Q46.4 86.7 46.75 83.2 46.95 80.7 49.1 79.6 L49.25 79.5 49.35 80.1 48.55 82.85 Q47.7 85.5 47.45 87.35 L47.2 86.9 Q45.75 88.35 45.75 88.85 45.75 89.85 46.15 89.45 L44.65 91.15 42.9 91.55 M52.35 90.1 L58.4 82.4 Q59.8 80.55 59.9 78.8 L59.8 73.7 Q59.95 72.35 60.4 71.0 61.25 68.5 62.6 68.5 63.8 68.5 66.85 71.35 69.9 74.2 69.9 75.35 69.9 76.9 68.5 78.1 66.05 80.15 64.55 82.35 65.2 79.8 66.7 78.6 L68.0 77.25 Q68.0 76.35 65.75 74.0 63.45 71.6 62.25 71.6 61.95 71.6 60.85 76.05 L60.6 77.1 59.8 80.7 59.95 81.35 60.15 81.3 54.2 90.2 Q53.55 90.95 54.0 90.3 L54.1 89.65 Q54.1 89.25 54.45 88.95 L55.4 87.85 Q54.55 88.2 53.0 89.5 L52.35 90.1 M55.3 97.25 L55.4 97.25 55.5 98.0 Q55.5 101.9 54.6 103.0 54.0 103.7 52.45 104.4 L53.6 101.15 Q54.3 98.55 54.15 97.95 L54.65 96.85 Q54.95 96.85 55.3 97.25 M49.9 105.7 L49.75 105.85 48.85 105.8 48.05 106.35 Q48.15 106.9 48.5 107.05 L48.05 107.45 47.9 107.25 Q45.95 107.8 43.0 110.5 L40.45 113.1 40.5 113.7 40.7 113.8 40.55 113.85 41.1 113.85 Q38.65 115.25 37.65 115.25 37.0 115.25 36.9 115.05 L36.8 114.65 44.0 109.5 Q49.65 105.25 50.2 102.8 50.25 102.35 50.45 102.0 L50.85 101.65 51.05 102.6 51.2 103.7 49.6 105.15 49.9 105.7 M45.05 111.05 L41.6 113.55 41.3 113.75 42.3 112.85 Q43.7 111.7 45.05 111.05 M50.1 102.9 L49.05 103.85 48.8 103.8 48.7 103.15 49.45 102.0 49.4 102.35 Q49.4 103.35 49.55 103.0 L50.1 102.9 M50.5 100.4 L53.25 95.95 Q56.25 93.65 57.95 89.55 L60.6 81.5 61.1 81.6 60.6 83.25 Q59.55 90.2 54.35 96.25 L50.9 99.9 50.5 100.4 M53.9 90.7 Q52.6 91.85 51.6 92.0 L51.45 91.95 51.4 91.25 51.6 91.0 Q51.7 91.85 53.9 90.7 M51.1 80.05 L50.9 80.55 50.35 80.75 Q50.05 80.75 49.85 80.55 L49.6 80.05 49.85 79.55 50.35 79.35 50.9 79.55 51.1 80.05 M63.4 82.15 Q62.9 84.0 61.85 84.7 L60.6 85.45 60.6 85.0 61.55 82.45 Q62.45 80.0 63.05 80.0 L64.1 80.1 64.1 80.15 64.0 80.7 61.6 84.0 61.2 84.7 63.4 82.15 M49.3 96.8 Q48.9 97.3 48.9 96.3 L49.7 94.35 Q50.5 92.65 50.85 92.25 51.15 92.9 50.5 94.6 50.1 94.05 50.0 94.3 L49.3 96.8" fill="#ffffff" fill-opacity="0.4" fill-rule="evenodd" stroke="none"/>
    <path d="M40.2 94.85 L41.95 92.65 42.9 91.55 44.65 91.15 44.8 91.45 40.7 96.55 40.35 96.5 Q40.1 96.9 40.1 95.9 L40.2 94.85 M47.45 87.35 Q47.45 88.2 47.1 88.85 46.7 89.45 46.15 89.45 45.75 89.85 45.75 88.85 45.75 88.35 47.2 86.9 L47.45 87.35 M64.55 82.35 Q64.55 84.0 63.65 85.15 62.7 86.3 61.4 86.3 L61.25 86.4 60.6 87.2 57.75 93.05 Q56.55 95.7 55.3 97.25 54.95 96.85 54.65 96.85 L54.15 97.95 Q54.3 98.55 53.6 101.15 L52.45 104.4 Q52.45 104.95 51.7 105.35 L49.9 105.7 49.6 105.15 51.2 103.7 51.05 102.6 50.85 101.65 50.45 102.0 Q50.25 102.35 50.2 102.8 L50.1 102.9 49.55 103.0 Q49.4 103.35 49.4 102.35 L49.45 102.0 50.5 100.4 50.9 99.9 54.35 96.25 Q59.55 90.2 60.6 83.25 L61.1 81.6 60.6 81.5 60.15 81.3 59.95 81.35 59.8 80.7 60.6 77.1 60.85 76.05 Q61.95 71.6 62.25 71.6 63.45 71.6 65.75 74.0 68.0 76.35 68.0 77.25 L66.7 78.6 Q65.2 79.8 64.55 82.35 M49.75 105.85 Q49.75 106.35 49.4 106.7 49.0 107.05 48.5 107.05 48.15 106.9 48.05 106.35 L48.85 105.8 49.75 105.85 M48.05 107.45 L48.15 108.05 47.05 109.25 45.05 111.05 Q43.7 111.7 42.3 112.85 L41.3 113.75 41.15 113.85 41.1 113.85 40.55 113.85 40.7 113.8 40.5 113.7 40.45 113.1 43.0 110.5 Q45.95 107.8 47.9 107.25 L48.05 107.45 M54.2 90.2 L53.9 90.7 Q51.7 91.85 51.6 91.0 L51.6 90.9 52.35 90.1 53.0 89.5 Q54.55 88.2 55.4 87.85 L54.45 88.95 Q54.1 89.25 54.1 89.65 L54.0 90.3 Q53.55 90.95 54.2 90.2 M64.0 80.7 L64.1 80.15 64.1 80.1 63.05 80.0 Q62.45 80.0 61.55 82.45 L60.6 85.0 60.6 85.45 61.85 84.7 Q62.9 84.0 63.4 82.15 L64.0 80.7 M50.5 94.6 L50.15 96.15 49.3 96.8 50.0 94.3 Q50.1 94.05 50.5 94.6" fill="#ffffff" fill-opacity="0.8" fill-rule="evenodd" stroke="none"/>
  </g>
</svg>
