<?xml version="1.0" encoding="UTF-8" standalone="no"?>
<svg xmlns:xlink="http://www.w3.org/1999/xlink" height="110.6px" width="51.0px" xmlns="http://www.w3.org/2000/svg">
  <g transform="matrix(1.0, 0.0, 0.0, 1.0, 0.65, 0.0)">
    <path d="M50.0 11.5 Q50.5 15.7 49.25 19.55 L49.25 19.5 Q50.35 15.7 50.0 11.5 M0.0 92.85 L0.2 87.6 0.45 84.65 Q10.4 89.25 20.1 90.05 21.35 94.3 20.1 94.7 10.9 101.6 0.0 92.85 M5.05 59.35 Q7.15 51.05 10.1 41.85 11.85 36.8 13.85 32.55 20.75 36.1 27.9 38.35 23.85 51.65 22.05 64.95 13.95 63.2 5.05 59.35 M24.35 10.35 L25.2 8.7 25.4 8.3 25.45 8.15 25.7 7.85 Q28.1 4.4 29.55 3.15 30.95 1.9 36.45 0.2 39.65 -0.8 43.7 3.2 40.85 7.35 36.6 9.15 38.75 9.8 40.9 9.15 38.25 12.15 36.7 16.4 30.7 14.2 24.35 10.35 M25.7 7.85 L25.4 8.3 25.7 7.85" fill="#444d5c" fill-rule="evenodd" stroke="none"/>
    <path d="M50.0 11.5 Q50.35 15.7 49.25 19.5 L49.2 19.3 48.3 16.3 47.2 19.1 Q42.1 18.4 36.7 16.4 38.25 12.15 40.9 9.15 38.75 9.8 36.6 9.15 40.85 7.35 43.7 3.2 46.6 6.05 49.95 11.45 L50.0 11.5 M39.75 41.0 Q37.7 48.1 36.2 55.05 L33.7 66.35 Q28.1 66.25 22.05 64.95 23.85 51.65 27.9 38.35 33.75 40.1 39.75 41.0 M29.05 90.0 L28.7 92.95 Q28.45 95.25 28.65 96.1 36.75 105.35 28.65 109.3 19.4 110.9 9.95 108.8 0.45 106.6 0.05 96.85 L0.0 92.85 Q10.9 101.6 20.1 94.7 21.35 94.3 20.1 90.05 24.6 90.45 29.05 90.0" fill="#3c4451" fill-rule="evenodd" stroke="none"/>
    <path d="M47.2 19.1 L43.5 29.15 41.75 34.45 39.75 41.0 Q33.75 40.1 27.9 38.35 31.6 26.2 36.7 16.4 42.1 18.4 47.2 19.1 M33.7 66.35 L33.05 69.25 32.7 70.9 Q29.95 83.6 29.05 90.0 24.6 90.45 20.1 90.05 19.65 79.4 22.05 64.95 28.1 66.25 33.7 66.35" fill="#a84444" fill-rule="evenodd" stroke="none"/>
    <path d="M0.45 84.65 Q1.25 75.95 3.5 65.7 L5.05 59.35 Q13.95 63.2 22.05 64.95 19.65 79.4 20.1 90.05 10.4 89.25 0.45 84.65 M13.85 32.55 L15.15 29.15 15.3 28.8 Q18.65 21.3 24.35 10.35 30.7 14.2 36.7 16.4 31.6 26.2 27.9 38.35 20.75 36.1 13.85 32.55" fill="#e75a47" fill-rule="evenodd" stroke="none"/>
    <path d="M49.2 19.3 L48.3 16.3 47.2 19.1 43.5 29.15 41.75 34.45 39.75 41.0 Q37.7 48.1 36.2 55.05 L33.7 66.35 33.05 69.25 32.7 70.9 Q29.95 83.6 29.05 90.0 L28.7 92.95 Q28.45 95.25 28.65 96.1 36.75 105.35 28.65 109.3 19.4 110.9 9.95 108.8 0.45 106.6 0.05 96.85 L0.0 92.85 0.2 87.6 0.45 84.65 Q1.25 75.95 3.5 65.7 L5.05 59.35 Q7.15 51.05 10.1 41.85 11.85 36.8 13.85 32.55 L15.15 29.15 15.3 28.8 Q18.65 21.3 24.35 10.35 L25.2 8.7 M25.4 8.3 L25.45 8.15 M25.4 8.3 L25.7 7.85 M36.7 16.4 Q30.7 14.2 24.35 10.35 M39.75 41.0 Q33.75 40.1 27.9 38.35 20.75 36.1 13.85 32.55 M22.05 64.95 Q28.1 66.25 33.7 66.35 M20.1 90.05 Q10.4 89.25 0.45 84.65 M22.05 64.95 Q13.95 63.2 5.05 59.35 M20.1 90.05 Q24.6 90.45 29.05 90.0 M47.2 19.1 Q42.1 18.4 36.7 16.4" fill="none" stroke="#303234" stroke-linecap="round" stroke-linejoin="round" stroke-width="1.2000000000000002"/>
    <path d="M36.4 0.1 Q36.5 0.0 36.5 0.15 L36.45 0.25 31.35 2.35 30.05 3.15 29.8 3.4 29.7 3.45 29.6 3.55 29.4 3.8 28.6 4.7 27.95 5.6 27.35 6.4 26.15 8.15 26.15 8.2 Q25.85 8.6 25.5 8.45 L25.55 8.6 25.75 8.8 25.5 9.2 25.05 9.25 24.65 9.0 24.6 8.55 24.7 8.45 24.95 8.3 25.2 8.25 25.25 8.25 Q24.9 7.9 25.2 7.5 L25.95 6.45 28.85 3.2 29.1 3.0 29.2 2.9 29.3 2.85 29.35 2.8 29.9 2.4 31.1 1.8 31.4 1.7 31.7 1.55 36.4 0.1 M49.8 19.65 L49.8 19.7 Q49.6 20.3 49.0 20.1 48.55 19.85 48.65 19.4 L48.6 19.4 Q48.55 19.15 48.65 18.95 L48.8 18.8 48.9 18.6 48.95 18.4 49.05 18.15 49.25 17.25 49.35 16.9 49.4 16.55 49.55 16.05 49.55 15.85 49.7 14.75 49.75 14.55 49.75 14.4 49.8 14.0 49.9 11.5 49.95 11.4 50.05 11.45 50.1 11.8 50.15 12.0 50.15 12.2 50.25 13.05 50.3 14.6 50.35 14.8 50.3 15.15 50.3 16.3 50.2 17.05 50.2 17.4 49.9 19.1 49.9 19.3 49.85 19.5 49.8 19.65" fill="#303234" fill-rule="evenodd" stroke="none"/>
  </g>
</svg>
