<?xml version="1.0" encoding="UTF-8" standalone="no"?>
<svg xmlns:xlink="http://www.w3.org/1999/xlink" height="104.85px" width="83.75px" xmlns="http://www.w3.org/2000/svg">
  <g transform="matrix(1.0, 0.0, 0.0, 1.0, -0.8, 0.6)">
    <path d="M83.95 53.65 L82.85 86.0 Q48.85 83.75 19.55 73.3 L19.1 73.15 Q13.4 75.5 7.05 73.15 L5.35 72.05 4.2 70.9 Q2.15 68.3 1.3 59.85 0.75 54.4 3.8 46.95 5.45 42.9 8.15 38.2 -0.55 16.75 17.5 2.4 48.5 2.0 23.7 50.0 L83.95 53.65" fill="#3c4451" fill-rule="evenodd" stroke="none"/>
    <path d="M82.85 86.0 L82.25 103.65 Q25.65 91.3 17.9 85.8 L10.15 80.3 9.8 80.1 9.5 79.9 8.05 78.7 7.3 77.9 6.85 76.8 6.45 75.75 5.35 72.05 7.05 73.15 Q13.4 75.5 19.1 73.15 L19.55 73.3 Q48.85 83.75 82.85 86.0" fill="#2b414c" fill-rule="evenodd" stroke="none"/>
    <path d="M17.5 2.4 Q32.9 -3.35 46.8 4.6 76.4 28.4 83.95 53.65 L23.7 50.0 Q48.5 2.0 17.5 2.4" fill="#444d5c" fill-rule="evenodd" stroke="none"/>
    <path d="M82.25 103.65 Q25.65 91.3 17.9 85.8 L10.15 80.3 M5.35 72.05 L4.2 70.9 M17.5 2.4 Q32.9 -3.35 46.8 4.6 76.4 28.4 83.95 53.65 M7.05 73.15 L5.35 72.05" fill="none" stroke="#303234" stroke-linecap="round" stroke-linejoin="round" stroke-width="1.2000000000000002"/>
    <path d="M6.35 75.75 Q6.25 75.65 6.4 75.65 6.5 75.55 6.5 75.7 L6.55 75.85 6.65 75.95 6.75 76.2 6.9 76.45 6.95 76.6 7.0 76.7 7.1 76.85 7.15 77.0 7.55 77.75 7.5 77.7 7.55 77.75 8.3 78.35 8.3 78.4 9.0 78.95 9.9 79.45 9.95 79.5 10.15 79.6 10.45 79.95 10.35 80.4 Q10.05 80.95 9.55 80.65 L9.5 80.6 9.3 80.5 9.05 80.3 9.15 80.35 8.4 79.7 7.75 78.95 7.75 79.0 7.05 78.05 7.0 78.0 6.7 77.0 6.65 76.9 6.45 76.35 6.4 76.05 6.35 75.9 6.35 75.75 M6.85 73.7 L6.8 73.7 Q6.2 73.45 6.45 72.9 6.65 72.35 7.2 72.55 L9.4 73.35 10.1 73.5 10.25 73.55 10.35 73.55 10.85 73.7 11.15 73.7 13.05 73.95 15.4 73.9 15.55 73.85 15.8 73.85 16.75 73.65 17.0 73.65 19.05 73.05 19.15 73.1 19.1 73.2 17.7 73.8 17.3 73.9 17.1 74.0 16.95 74.0 16.85 74.05 16.4 74.2 15.6 74.35 15.5 74.4 15.35 74.4 13.95 74.6 13.65 74.6 13.35 74.65 11.0 74.6 10.85 74.55 10.75 74.55 10.2 74.5 10.05 74.45 9.95 74.45 8.75 74.2 7.95 74.0 7.6 73.95 6.85 73.7 M4.65 70.5 L4.65 70.55 4.75 71.0 4.55 71.35 Q4.05 71.7 3.7 71.25 L3.45 70.9 3.45 70.85 3.4 70.8 3.35 70.7 3.1 70.3 2.95 70.0 2.9 69.95 2.9 69.85 2.55 69.1 2.5 68.9 2.4 68.65 2.35 68.45 2.25 68.2 1.7 66.0 Q1.4 64.85 1.25 63.4 L0.85 60.1 0.8 57.3 Q0.95 55.6 1.25 54.05 L2.05 50.9 2.3 50.1 2.45 49.75 2.55 49.35 3.55 46.85 3.7 46.55 3.95 45.85 7.85 38.45 8.05 38.15 8.15 38.1 8.2 38.2 4.1 46.7 4.0 47.05 3.7 47.75 3.1 49.55 3.05 49.75 2.95 49.9 2.65 51.05 Q2.15 52.7 1.95 54.15 1.7 55.55 1.6 57.3 L1.6 58.5 1.65 58.85 1.7 59.8 1.75 60.0 1.95 61.85 3.3 67.85 3.4 68.05 3.45 68.3 3.55 68.5 3.6 68.7 3.7 68.85 3.95 69.35 3.95 69.45 4.0 69.5 4.1 69.65 4.2 69.85 4.35 70.05 4.4 70.15 4.45 70.2 4.65 70.5" fill="#303234" fill-rule="evenodd" stroke="none"/>
    <path d="M16.65 20.3 Q16.55 20.75 15.4 21.6 14.15 22.45 14.65 25.1 14.9 26.6 14.45 26.0 14.25 26.0 13.7 24.25 L12.3 25.3 Q13.5 22.75 12.95 22.2 12.35 21.65 12.1 18.95 L12.55 19.85 Q12.95 20.75 13.25 20.85 L14.05 19.55 Q14.55 18.2 14.95 17.8 L15.0 17.7 15.1 18.7 Q14.7 21.15 15.0 20.9 L15.85 20.4 16.65 20.3" fill="#303234" fill-rule="evenodd" stroke="none"/>
    <path d="M11.05 19.1 Q10.45 20.95 11.2 23.65 10.3 24.1 10.05 21.0 9.8 17.9 12.25 16.95 11.3 17.8 11.05 19.1 M5.35 47.7 L7.05 46.7 6.9 46.95 Q1.4 56.35 6.6 67.4 6.75 70.35 3.8 63.3 1.8 55.05 5.35 47.7 M11.5 47.8 Q12.85 47.45 12.35 49.65 12.0 51.45 12.2 52.85 10.1 49.6 11.5 47.8 M15.15 27.0 Q16.55 24.4 16.8 22.35 17.6 22.55 16.85 24.95 16.0 26.85 15.15 27.0 M15.25 61.0 Q16.3 63.35 15.25 66.55 13.45 70.1 11.65 69.8 14.8 66.2 15.25 61.0" fill="#505766" fill-rule="evenodd" stroke="none"/>
    <path d="M9.95 68.75 Q1.6 58.1 9.65 46.95 L10.3 46.1 10.05 46.95 Q8.95 50.35 9.75 52.05 8.15 57.85 10.05 65.0 8.6 66.95 9.95 68.75" fill="#2b414c" fill-rule="evenodd" stroke="none"/>
    <path d="M12.7 61.95 Q12.85 66.2 10.15 69.15 L10.15 69.0 9.95 68.75 Q8.6 66.95 10.05 65.0 L12.7 61.95" fill="#8a414c" fill-rule="evenodd" stroke="none"/>
    <path d="M9.75 52.05 L11.8 57.3 Q12.6 59.8 12.7 61.95 L10.05 65.0 Q8.15 57.85 9.75 52.05" fill="url(#gradient0)" fill-rule="evenodd" stroke="none"/>
    <path d="M11.05 16.05 L10.85 16.4" fill="none" stroke="#303234" stroke-linecap="round" stroke-linejoin="miter-clip" stroke-miterlimit="3.0" stroke-width="0.05"/>
    <path d="M10.05 65.0 Q8.6 66.95 9.95 68.75 M12.7 61.95 L10.05 65.0" fill="none" stroke="#303234" stroke-linecap="round" stroke-linejoin="round" stroke-width="0.7000000000000001"/>
    <path d="M9.75 52.05 L11.8 57.3 Q12.6 59.8 12.7 61.95 12.85 66.2 10.15 69.15 L10.15 70.3 M9.95 68.75 L10.15 69.0 10.15 69.15" fill="none" stroke="#303234" stroke-linecap="round" stroke-linejoin="round" stroke-width="1.0"/>
    <path d="M10.2 46.05 Q10.2 45.9 10.3 46.0 L10.35 46.1 10.2 46.85 10.2 46.95 10.15 47.0 10.15 47.05 9.85 48.5 9.85 48.8 9.8 48.95 9.8 49.05 9.75 50.15 9.8 50.4 9.8 50.75 9.85 50.85 10.0 51.35 10.0 51.45 10.05 51.5 10.1 51.6 10.15 51.75 10.2 51.8 10.2 51.9 Q10.4 52.4 9.9 52.55 9.45 52.75 9.25 52.25 L9.25 52.15 9.15 51.95 9.15 51.8 9.1 51.7 9.1 51.6 9.0 51.2 9.0 50.15 9.2 49.0 9.25 48.85 9.25 48.7 9.45 48.15 9.5 47.85 9.85 46.95 9.85 46.9 9.9 46.9 9.9 46.75 10.0 46.6 10.1 46.3 10.2 46.05" fill="#303234" fill-rule="evenodd" stroke="none"/>
  </g>
  <defs>
    <radialGradient cx="0" cy="0" gradientTransform="matrix(0.0093, 0.0, 0.0, 0.0246, 13.15, 58.1)" gradientUnits="userSpaceOnUse" id="gradient0" r="819.2" spreadMethod="pad">
      <stop offset="0.13725490196078433" stop-color="#303234"/>
      <stop offset="0.3607843137254902" stop-color="#8a414c"/>
      <stop offset="0.40784313725490196" stop-color="#8a414c"/>
      <stop offset="0.49411764705882355" stop-color="#303234"/>
    </radialGradient>
  </defs>
</svg>
