<?xml version="1.0" encoding="UTF-8" standalone="no"?>
<svg xmlns:xlink="http://www.w3.org/1999/xlink" height="24.4px" width="5.65px" xmlns="http://www.w3.org/2000/svg">
  <g transform="matrix(1.0, 0.0, 0.0, 1.0, -6.6, -51.4)">
    <path d="M10.95 56.25 L10.75 55.6 10.9 55.4 Q12.2 56.05 12.2 57.6 L11.75 57.75 Q11.4 57.7 11.2 57.45 L11.8 57.5 11.8 56.8 Q11.7 56.25 11.4 56.1 L10.95 56.25 M7.45 67.65 L7.05 67.95 6.8 67.9 Q6.6 68.4 6.6 67.4 6.6 67.05 7.15 66.05 L8.1 63.35 8.2 63.1 Q8.5 62.25 9.6 61.85 L11.3 61.6 Q11.5 60.05 11.9 59.7 12.2 59.8 12.25 63.0 L12.0 62.75 12.1 63.0 11.6 62.5 11.55 62.4 11.15 62.9 11.15 62.8 10.85 63.45 9.65 63.6 Q8.7 64.45 8.95 64.6 8.5 64.7 8.25 65.35 L7.8 66.25 Q7.55 66.25 7.2 66.65 L6.85 67.1 6.9 67.4 Q7.15 67.65 7.45 67.65 M11.0 67.9 Q11.45 68.0 11.65 68.25 L11.75 68.8 11.35 69.2 10.65 69.3 Q11.0 68.8 11.0 67.9 M10.55 69.45 L10.75 69.65 Q10.95 69.7 10.95 70.3 10.95 70.8 10.5 70.9 10.05 71.0 10.05 71.5 L9.9 70.4 Q9.95 69.9 10.15 69.7 L10.55 69.45 M9.0 74.8 L8.95 74.7 9.0 74.95 Q8.35 71.55 8.35 70.4 8.35 69.95 9.1 67.85 L9.0 69.15 9.0 74.8 M10.1 65.15 L11.0 63.35 11.3 63.9 10.1 65.15 M10.05 53.5 L9.95 53.6 Q9.4 53.15 8.8 52.1 L9.0 51.4 Q10.2 52.85 10.05 53.5 M8.5 63.3 L8.7 63.3 8.6 63.25 8.5 63.3" fill="#ffffff" fill-opacity="0.4" fill-rule="evenodd" stroke="none"/>
    <path d="M11.2 57.45 Q10.75 57.0 10.95 56.25 L11.4 56.1 Q11.7 56.25 11.8 56.8 L11.8 57.5 11.2 57.45 M12.1 63.0 Q12.35 65.55 11.75 66.0 10.5 66.8 10.2 67.45 L10.25 67.45 10.8 67.4 11.0 67.9 Q11.0 68.8 10.65 69.3 L10.55 69.45 10.15 69.7 Q9.95 69.9 9.9 70.4 L10.05 71.5 10.15 72.3 10.2 72.75 10.2 74.85 Q9.55 76.75 9.0 74.8 L9.0 69.15 9.1 67.85 9.4 67.0 10.1 65.15 11.3 63.9 11.0 63.35 11.15 62.9 11.55 62.4 11.6 62.5 12.1 63.0 M7.8 66.25 Q8.05 66.9 7.45 67.65 7.15 67.65 6.9 67.4 L6.85 67.1 7.2 66.65 Q7.55 66.25 7.8 66.25" fill="#ffffff" fill-opacity="0.8" fill-rule="evenodd" stroke="none"/>
  </g>
</svg>
