<?xml version="1.0" encoding="UTF-8" standalone="no"?>
<svg xmlns:xlink="http://www.w3.org/1999/xlink" height="31.65px" width="16.85px" xmlns="http://www.w3.org/2000/svg">
  <g transform="matrix(1.0, 0.0, 0.0, 1.0, -3.7, -54.55)">
    <path d="M10.7 54.55 L11.75 55.25 Q13.0 58.7 11.85 58.5 L11.6 58.2 Q10.1 55.15 10.7 54.55 M5.85 71.1 L6.0 71.55 6.05 72.35 Q6.05 73.35 5.9 72.8 L5.45 73.0 4.0 71.7 Q4.1 71.1 4.85 71.35 L4.8 69.65 Q4.85 68.95 6.8 65.95 8.2 63.75 9.35 63.05 10.5 62.65 10.65 61.55 10.8 60.4 11.35 59.65 L11.9 59.6 12.35 64.5 12.65 63.65 12.65 62.9 13.35 62.7 13.75 62.55 13.9 63.4 13.65 64.6 Q13.4 65.35 12.35 64.75 12.55 66.15 11.3 68.0 L12.3 67.95 13.25 66.65 13.5 66.6 Q13.7 66.65 13.7 67.25 13.7 68.25 11.55 70.45 L11.0 69.65 12.05 63.45 Q12.05 61.95 11.3 61.75 L10.65 62.25 10.3 64.35 10.25 63.8 10.25 63.55 9.45 63.8 9.4 64.05 Q8.45 64.6 7.8 65.5 L6.85 66.65 7.35 67.15 7.9 66.95 Q7.5 68.0 6.95 68.3 7.05 67.7 6.8 67.45 L6.7 67.5 Q6.45 67.75 5.9 68.95 5.35 70.2 5.35 70.7 5.35 71.7 5.55 71.05 L5.85 71.1 M12.6 62.1 Q12.45 60.45 13.0 59.25 13.55 60.6 13.5 60.9 L13.45 61.15 13.4 61.1 12.9 61.55 12.6 62.1 M10.05 71.45 L12.55 74.95 Q12.95 75.6 12.75 76.6 12.1 75.0 11.35 74.25 L10.25 73.15 Q10.0 73.2 9.9 73.6 L10.55 74.75 Q10.65 76.0 10.2 78.6 L9.45 74.8 Q9.75 72.05 10.05 71.45 M12.85 76.9 L15.55 79.9 15.45 79.9 Q14.85 79.9 14.95 80.1 L15.0 80.15 Q13.45 79.25 12.85 76.9 M17.15 81.75 Q19.85 84.9 20.4 86.0 20.9 86.2 19.9 86.2 18.85 86.2 16.45 83.65 L12.35 79.15 14.55 80.85 Q15.55 80.85 16.55 82.65 17.5 84.4 17.85 84.4 L18.4 84.3 18.25 83.9 17.15 81.75 M10.15 82.35 L10.2 83.7 Q8.95 84.1 8.7 83.15 8.45 82.4 8.55 78.65 8.6 77.6 7.65 75.4 L6.75 73.0 Q6.75 72.35 7.05 72.4 L7.95 72.6 8.35 70.5 7.7 70.7 Q7.55 70.7 7.55 70.1 7.55 69.5 9.15 68.0 9.55 68.85 9.2 69.35 8.65 70.05 8.65 70.5 L8.3 72.4 Q7.95 73.75 7.95 74.25 L8.7 76.7 9.45 79.95 9.3 81.7 Q9.2 82.7 9.55 83.6 L9.75 83.55 10.15 82.35 M9.9 55.05 L10.0 55.0 9.95 55.25 9.9 55.05 M3.75 71.05 L3.7 71.3 3.7 70.85 3.75 71.05" fill="#ffffff" fill-opacity="0.4" fill-rule="evenodd" stroke="none"/>
    <path d="M12.65 62.9 L12.6 62.1 12.9 61.55 13.4 61.1 13.45 61.15 Q13.8 61.4 13.75 62.55 L13.35 62.7 12.65 62.9 M11.0 69.65 L10.45 70.45 10.05 71.45 Q9.75 72.05 9.45 74.8 L10.2 78.6 10.15 82.35 9.75 83.55 9.55 83.6 Q9.2 82.7 9.3 81.7 L9.45 79.95 8.7 76.7 7.95 74.25 Q7.95 73.75 8.3 72.4 L8.65 70.5 Q8.65 70.05 9.2 69.35 9.55 68.85 9.15 68.0 L10.3 64.35 10.65 62.25 11.3 61.75 Q12.05 61.95 12.05 63.45 L11.0 69.65 M12.75 76.6 L12.85 76.9 Q13.45 79.25 15.0 80.15 L14.95 80.1 Q14.85 79.9 15.45 79.9 L15.55 79.9 Q16.1 79.95 16.55 80.75 L17.15 81.75 18.25 83.9 18.4 84.3 17.85 84.4 Q17.5 84.4 16.55 82.65 15.55 80.85 14.55 80.85 L12.35 79.15 12.05 78.2 11.8 76.95 11.1 75.55 10.55 74.75 9.9 73.6 Q10.0 73.2 10.25 73.15 L11.35 74.25 Q12.1 75.0 12.75 76.6 M9.4 64.05 L9.5 64.0 9.6 64.65 8.95 65.45 7.9 66.95 7.35 67.15 6.85 66.65 7.8 65.5 Q8.45 64.6 9.4 64.05 M6.95 68.3 Q6.6 69.7 5.85 71.1 L5.55 71.05 Q5.35 71.7 5.35 70.7 5.35 70.2 5.9 68.95 6.45 67.75 6.7 67.5 L6.8 67.45 Q7.05 67.7 6.95 68.3" fill="#ffffff" fill-opacity="0.8" fill-rule="evenodd" stroke="none"/>
  </g>
</svg>
