<?xml version="1.0" encoding="UTF-8" standalone="no"?>
<svg xmlns:xlink="http://www.w3.org/1999/xlink" height="36.5px" width="22.4px" xmlns="http://www.w3.org/2000/svg">
  <g transform="matrix(1.0, 0.0, 0.0, 1.0, -3.95, -54.55)">
    <path d="M10.7 54.55 L11.9 56.45 12.45 57.75 12.45 58.35 12.3 58.4 12.15 58.55 Q10.45 56.7 10.55 55.05 L10.7 54.55 M4.6 72.3 L4.0 71.7 3.95 71.45 Q3.95 71.3 4.55 71.3 L8.15 64.15 10.35 61.55 11.9 59.6 12.0 59.75 12.35 64.5 12.65 63.65 Q12.65 60.6 13.0 59.25 L13.45 60.35 13.7 61.95 13.9 64.7 Q13.9 66.2 14.5 67.85 15.05 69.45 15.05 70.5 L14.95 71.4 14.7 71.65 13.9 71.5 13.35 70.45 12.75 69.15 12.0 69.95 11.7 70.45 11.5 71.25 Q11.5 71.55 12.8 72.45 L14.3 73.45 Q14.95 73.7 15.35 74.1 14.75 74.85 12.75 74.95 L12.7 74.65 Q13.55 74.65 13.65 74.0 10.55 71.3 10.55 68.5 10.55 67.5 11.55 66.5 11.55 67.7 12.35 68.2 L13.3 68.45 14.05 68.25 14.05 67.8 Q12.7 65.95 12.15 64.15 L11.35 62.4 10.45 63.1 9.5 63.8 Q7.5 66.25 7.5 66.45 7.5 67.45 7.85 67.1 6.7 68.8 6.2 70.85 5.85 72.4 6.05 73.0 L5.9 72.8 5.35 72.95 5.8 72.55 5.7 71.85 5.25 71.65 4.85 71.9 4.6 72.3 M14.35 78.55 L20.1 85.5 Q17.4 83.75 16.4 82.5 15.4 81.3 14.35 78.55 M23.5 87.45 L24.0 87.55 23.65 87.85 23.5 87.45 M24.95 88.1 L25.9 89.25 26.35 90.85 25.55 91.05 24.55 90.3 22.3 88.75 Q20.75 87.8 19.4 87.7 L18.3 87.75 Q17.35 87.75 14.45 82.65 L10.55 75.7 10.4 77.25 10.05 76.3 Q9.7 75.55 9.7 74.95 9.7 74.35 9.9 74.3 L10.05 74.4 11.45 74.35 Q11.95 76.2 14.25 81.3 17.1 87.55 18.35 87.55 L19.05 87.45 19.1 87.3 19.2 86.5 Q19.6 86.65 21.1 87.65 22.35 88.45 22.9 88.45 L23.55 88.65 24.45 88.85 25.0 88.75 24.95 88.5 24.95 88.1 M10.55 87.9 L10.4 88.4 9.6 88.65 Q8.4 88.65 8.5 88.0 L8.9 84.55 Q8.9 82.95 7.85 77.8 L6.75 73.0 7.15 71.55 7.55 70.1 7.9 69.4 9.8 66.05 Q10.05 67.95 9.15 70.5 8.2 73.2 8.2 73.7 8.2 74.65 8.95 79.1 9.7 83.55 9.7 85.75 L9.5 87.3 9.45 88.25 10.3 88.2 10.55 87.9" fill="#ffffff" fill-opacity="0.4" fill-rule="evenodd" stroke="none"/>
    <path d="M4.6 72.3 L4.85 71.9 5.25 71.65 5.7 71.85 5.8 72.55 5.35 72.95 Q5.05 72.95 4.85 72.75 L4.6 72.3 M7.85 67.1 Q7.5 67.45 7.5 66.45 7.5 66.25 9.5 63.8 L10.45 63.1 11.35 62.4 12.15 64.15 Q12.7 65.95 14.05 67.8 L14.05 68.25 13.3 68.45 12.35 68.2 Q11.55 67.7 11.55 66.5 10.55 67.5 10.55 68.5 10.55 71.3 13.65 74.0 13.55 74.65 12.7 74.65 L12.75 74.95 14.35 78.55 Q15.4 81.3 16.4 82.5 17.4 83.75 20.1 85.5 L21.85 86.45 23.5 87.45 23.65 87.85 24.0 87.55 24.7 87.7 24.95 88.1 24.95 88.5 25.0 88.75 24.45 88.85 23.55 88.65 22.9 88.45 Q22.35 88.45 21.1 87.65 19.6 86.65 19.2 86.5 L19.1 87.3 19.05 87.45 18.35 87.55 Q17.1 87.55 14.25 81.3 11.95 76.2 11.45 74.35 L10.05 74.4 9.9 74.3 Q9.7 74.35 9.7 74.95 9.7 75.55 10.05 76.3 L10.4 77.25 10.35 79.05 10.6 83.1 Q10.8 86.7 10.55 87.9 L10.3 88.2 9.45 88.25 9.5 87.3 9.7 85.75 Q9.7 83.55 8.95 79.1 8.2 74.65 8.2 73.7 8.2 73.2 9.15 70.5 10.05 67.95 9.8 66.05 L9.75 65.8 Q9.45 65.9 9.05 66.45 8.7 67.0 7.85 67.1" fill="#ffffff" fill-opacity="0.8" fill-rule="evenodd" stroke="none"/>
  </g>
</svg>
