<?xml version="1.0" encoding="UTF-8" standalone="no"?>
<svg xmlns:xlink="http://www.w3.org/1999/xlink" height="119.65px" width="70.1px" xmlns="http://www.w3.org/2000/svg">
  <g transform="matrix(1.0, 0.0, 0.0, 1.0, 0.2, 0.6)">
    <path d="M24.05 0.0 Q43.3 11.65 47.95 29.75 L50.0 26.2 Q59.5 48.0 57.5 70.65 59.15 68.45 60.4 67.9 61.45 83.75 52.3 101.0 54.4 101.1 55.65 99.65 53.05 108.45 44.1 109.9 36.5 111.8 29.8 101.25 20.8 88.85 15.1 70.0 7.25 56.2 6.95 26.25 L24.05 0.0 M28.45 41.9 Q30.05 46.35 29.6 52.3 L30.65 50.0 Q35.6 56.45 35.25 67.35 L36.2 64.65 Q38.5 69.05 39.6 77.45 40.4 64.95 38.4 58.4 35.05 48.8 28.45 41.9" fill="#444d5c" fill-rule="evenodd" stroke="none"/>
    <path d="M6.95 26.25 Q7.25 56.2 15.1 70.0 20.8 88.85 29.8 101.25 36.5 111.8 44.1 109.9 53.05 108.45 55.65 99.65 54.4 101.1 52.3 101.0 61.45 83.75 60.4 67.9 59.15 68.45 57.5 70.65 59.5 48.0 50.0 26.2 L47.95 29.75 Q43.3 11.65 24.05 0.0 84.35 16.35 64.3 101.1 64.15 109.6 48.25 118.45 L24.3 114.45 17.45 94.6 Q16.85 92.95 13.85 86.85 10.8 80.8 4.9 71.15 -1.05 61.45 0.25 36.45 L6.95 26.25 M28.45 41.9 Q35.05 48.8 38.4 58.4 40.4 64.95 39.6 77.45 38.5 69.05 36.2 64.65 L35.25 67.35 Q35.6 56.45 30.65 50.0 L29.6 52.3 Q30.05 46.35 28.45 41.9" fill="#3c4451" fill-rule="evenodd" stroke="none"/>
    <path d="M4.9 71.15 Q10.8 80.8 13.85 86.85 16.85 92.95 17.45 94.6 L24.3 114.45 M48.25 118.45 Q64.15 109.6 64.3 101.1 84.35 16.35 24.05 0.0" fill="none" stroke="#303234" stroke-linecap="round" stroke-linejoin="round" stroke-width="1.2000000000000002"/>
    <path d="M0.15 36.4 Q0.15 36.3 0.25 36.35 L0.3 36.45 0.2 45.35 1.1 57.35 2.3 63.4 4.0 68.2 4.35 68.95 4.4 69.0 4.65 69.55 5.4 70.8 5.4 70.85 Q5.65 71.35 5.2 71.65 4.7 72.0 4.35 71.45 L4.15 71.1 3.0 68.65 2.7 67.95 1.4 63.65 0.8 60.65 0.0 54.15 -0.2 48.45 0.15 36.4" fill="#303234" fill-rule="evenodd" stroke="none"/>
  </g>
</svg>
