<?xml version="1.0" encoding="UTF-8" standalone="no"?>
<svg xmlns:xlink="http://www.w3.org/1999/xlink" height="87.05px" width="26.5px" xmlns="http://www.w3.org/2000/svg">
  <g transform="matrix(1.0, 0.0, 0.0, 1.0, 0.1, 0.6)">
    <path d="M20.55 0.9 Q22.5 22.25 19.75 35.8 17.45 52.15 13.2 65.15 L12.65 67.1 Q8.9 78.85 1.4 80.8 L4.2 67.1 Q10.05 34.25 7.75 3.6 L20.55 0.9" fill="#444d5c" fill-rule="evenodd" stroke="none"/>
    <path d="M1.4 80.8 Q8.9 78.85 12.65 67.1 L13.2 65.15 Q17.45 52.15 19.75 35.8 22.5 22.25 20.55 0.9 L24.75 0.0 Q28.15 34.55 20.6 73.5 L18.7 82.55 17.5 81.9 Q8.15 77.3 0.2 85.9 L1.4 80.8" fill="#3c4451" fill-rule="evenodd" stroke="none"/>
    <path d="M7.75 3.6 Q10.05 34.25 4.2 67.1 L1.4 80.8 M20.6 73.5 Q28.15 34.55 24.75 0.0" fill="none" stroke="#303234" stroke-linecap="round" stroke-linejoin="round" stroke-width="1.2000000000000002"/>
    <path d="M0.8 80.65 L0.8 80.55 Q1.05 80.0 1.6 80.15 2.15 80.35 1.95 80.9 L0.05 86.4 0.0 86.45 -0.05 86.35 0.8 80.65 M18.75 82.55 L18.65 82.6 18.6 82.5 20.0 73.35 20.0 73.3 Q20.15 72.75 20.75 72.85 21.3 73.05 21.15 73.6 L18.75 82.55" fill="#303234" fill-rule="evenodd" stroke="none"/>
  </g>
</svg>
