<?xml version="1.0" encoding="UTF-8" standalone="no"?>
<svg xmlns:xlink="http://www.w3.org/1999/xlink" height="67.45px" width="20.35px" xmlns="http://www.w3.org/2000/svg">
  <g transform="matrix(1.0, 0.0, 0.0, 1.0, -6.15, 0.0)">
    <path d="M18.55 0.65 Q21.7 18.1 22.0 43.9 21.5 56.35 20.3 66.85 L7.25 66.85 Q9.0 53.55 9.2 40.4 L6.75 0.6 18.55 0.65" fill="#444d5c" fill-rule="evenodd" stroke="none"/>
    <path d="M20.3 66.85 Q21.5 56.35 22.0 43.9 21.7 18.1 18.55 0.65 L22.2 0.65 Q22.7 8.6 24.0 17.55 27.45 41.6 24.6 66.8 L20.3 66.85" fill="#3c4451" fill-rule="evenodd" stroke="none"/>
    <path d="M6.75 0.6 L9.2 40.4 Q9.0 53.55 7.25 66.85 M24.6 66.8 Q27.45 41.6 24.0 17.55 22.7 8.6 22.2 0.65" fill="none" stroke="#303234" stroke-linecap="round" stroke-linejoin="round" stroke-width="1.2000000000000002"/>
  </g>
</svg>
