<?xml version="1.0" encoding="UTF-8" standalone="no"?>
<svg xmlns:xlink="http://www.w3.org/1999/xlink" height="65.35px" width="29.5px" xmlns="http://www.w3.org/2000/svg">
  <g transform="matrix(1.0, 0.0, 0.0, 1.0, 0.5, 1.4)">
    <path d="M4.3 23.8 Q5.65 15.15 8.05 11.95 4.2 25.15 4.65 35.9 3.2 32.55 4.3 23.8" fill="#505766" fill-rule="evenodd" stroke="none"/>
    <path d="M1.75 63.25 L0.3 43.6 Q-1.45 20.7 11.55 -0.8 L21.65 6.2 Q9.25 32.3 10.85 51.5 12.45 56.85 13.55 63.35 L1.75 63.25 M4.3 23.8 Q3.2 32.55 4.65 35.9 4.2 25.15 8.05 11.95 5.65 15.15 4.3 23.8" fill="#444d5c" fill-rule="evenodd" stroke="none"/>
    <path d="M13.55 63.35 Q12.45 56.85 10.85 51.5 9.25 32.3 21.65 6.2 L28.4 10.9 Q14.8 25.9 17.2 63.35 L13.55 63.35" fill="#3c4451" fill-rule="evenodd" stroke="none"/>
    <path d="M11.55 -0.8 Q-1.45 20.7 0.3 43.6 L1.75 63.25 M17.2 63.35 Q14.8 25.9 28.4 10.9" fill="none" stroke="#303234" stroke-linecap="round" stroke-linejoin="round" stroke-width="1.2000000000000002"/>
  </g>
</svg>
